
<svg width="26" height="26" viewBox="0 0 26 26" fill="none" xmlns="http://www.w3.org/2000/svg">
<g clip-path="url(#clip0_4444_12)">
<path d="M31 22C31 23.0609 30.5786 24.0783 29.8284 24.8284C29.0783 25.5786 28.0609 26 27 26H-1C-2.06087 26 -3.07828 25.5786 -3.82843 24.8284C-4.57857 24.0783 -5 23.0609 -5 22V4C-5 2.93913 -4.57857 1.92172 -3.82843 1.17157C-3.07828 0.421427 -2.06087 0 -1 0H27C28.0609 0 29.0783 0.421427 29.8284 1.17157C30.5786 1.92172 31 2.93913 31 4V22Z" fill="#002488"/>
<path d="M-5 22C-5 23.0609 -4.57857 24.0783 -3.82843 24.8284C-3.07828 25.5786 -2.06087 26 -1 26H27C28.0609 26 29.0783 25.5786 29.8284 24.8284C30.5786 24.0783 31 23.0609 31 22V9H-5V22Z" fill="#141414"/>
<path d="M24 23.479C24 23.479 15.604 19.062 11.542 17.729C7.47999 16.396 6.39599 17.437 6.16699 17.937C6.60499 16.749 7.06299 16.458 7.06299 16.458C7.06299 16.458 5.45899 16.874 5.47999 17.874C5.14699 16.978 6.27099 15.874 7.75099 15.853C6.41799 15.665 4.10499 15.874 3.68899 17.186C3.70999 15.832 6.06399 15.457 7.02199 15.498C4.62599 14.748 2.62599 14.769 2.47999 15.769C2.31299 15.331 2.77199 14.972 2.77199 14.972C2.77199 14.972 1.83399 14.893 1.37599 15.31C1.35499 14.935 2.89699 14.561 3.64699 14.644C2.33499 14.123 1.31399 14.038 1.06399 14.632C0.978992 13.938 3.41699 13.75 4.54199 14C1.91699 13.042 0.937992 12.667 -0.0410075 13.688C-0.0410075 12.98 0.812992 12.709 1.41699 12.771C0.895992 12.229 0.500992 11.875 -0.0410075 11.854C0.270992 11.729 0.937993 11.979 0.937993 11.979C0.937993 11.979 0.187992 11.187 -0.333008 10.937C0.583992 11.083 2.29199 12.854 2.41699 12.999C2.54199 13.144 3.27099 13.311 3.27099 13.311C3.27099 13.311 0.895993 11.373 0.812993 10.749C1.79199 11.228 3.70899 13.332 3.70899 13.332C3.70899 13.332 4.18799 13.603 4.20899 13.394C4.22999 13.186 1.33399 11.29 1.37599 10.206C1.95899 11.018 2.79299 11.935 2.79299 11.935C2.79299 11.935 2.18899 11.143 2.25099 10.414C2.83399 11.456 3.70899 12.726 4.50099 13.164C3.19899 11.886 3.06299 11.143 3.16799 10.872C3.87599 12.164 5.02199 13.455 5.20999 13.539C5.39799 13.623 5.50199 13.601 5.50199 13.601C5.50199 13.601 4.68999 12.747 4.56399 12.205C5.12599 12.601 5.52199 13.517 5.64699 13.559C5.77199 13.601 5.91799 13.517 5.91799 13.517C5.91799 13.517 4.70999 12.267 4.70999 11.663C5.29299 12.121 6.06399 13.392 6.16799 13.58C6.27199 13.768 6.75099 14.101 6.81399 13.955C6.87699 13.809 5.08499 12.184 5.60599 11.913C6.43899 12.601 6.91799 13.601 7.00199 13.621C7.08599 13.641 7.45999 13.788 7.39799 13.663C7.33599 13.538 6.22299 12.132 6.50199 11.351C6.56299 12.18 7.41899 13.768 8.89799 14.122C10.377 14.476 14.773 17.434 17.71 18.31C20.647 19.186 25.939 20.352 25.939 20.352L25.772 20.602C25.772 20.602 18.001 18.56 18.001 18.623C18.001 18.686 18.23 18.894 18.23 18.894C18.23 18.894 25.689 20.852 25.668 20.915C25.647 20.978 25.5 21.271 25.5 21.271L17.938 18.917H17.709C17.709 18.917 25.251 21.459 25.251 21.521C25.251 21.583 25.105 21.854 25.105 21.854L17.313 18.916L17.563 19.208C17.563 19.208 25.001 22.04 24.98 22.124C24.959 22.208 24.771 22.416 24.771 22.416L17.688 19.52L17.271 19.416L24.646 22.604L24.417 22.875L17.563 19.834H17.334L24.272 23.272L24 23.479Z" fill="#008000"/>
<path d="M20.351 19.345C20.351 19.345 20.092 18.462 18.38 18.426L18.384 18.422C19.317 17.489 20.165 17.577 20.629 17.759C20.629 17.759 20.196 16.979 18.573 17.268C19.289 16.256 20.104 16.174 20.581 16.258C20.581 16.258 19.983 15.534 18.366 16.215C18.376 16.192 18.39 16.172 18.399 16.147C18.87 14.915 19.68 14.649 20.178 14.626C20.178 14.626 19.467 14.082 18.105 15.007C18.35 13.802 19.057 13.396 19.526 13.28C19.526 13.28 18.689 12.865 17.497 14.131L17.499 14.083C17.434 12.767 18.066 12.195 18.513 11.974C18.513 11.974 17.617 11.754 16.732 13.221L16.731 13.216C16.388 11.944 16.886 11.251 17.276 10.94C17.276 10.94 16.362 10.916 15.805 12.516C15.226 11.358 15.564 10.585 15.879 10.204C15.879 10.204 14.984 10.374 14.77 12.048C13.971 11.036 14.142 10.212 14.371 9.775C14.371 9.775 13.529 10.126 13.665 11.81C12.67 10.983 12.668 10.141 12.803 9.665C12.803 9.665 12.051 10.182 12.532 11.803C11.388 11.202 11.209 10.376 11.242 9.882C11.242 9.882 10.608 10.546 11.426 12.043C10.16 11.698 9.81001 10.92 9.73901 10.427C9.73901 10.427 9.26001 11.201 10.352 12.481C9.07801 12.388 8.58401 11.712 8.41601 11.249C8.41601 11.249 8.09801 12.119 9.47001 13.162L9.44701 13.164C8.14701 13.369 7.50901 12.801 7.24201 12.379C7.24201 12.379 7.12501 13.261 8.59301 13.979C7.43901 14.353 6.74001 13.946 6.41001 13.597C6.41001 13.597 6.46301 14.535 8.17001 14.94C8.14801 14.953 8.12601 14.961 8.10401 14.975C6.99801 15.689 6.18501 15.427 5.77101 15.15C5.77101 15.15 6.03001 16.033 7.74101 16.069L7.73601 16.073C6.80601 17.004 5.95601 16.92 5.49201 16.736C5.49201 16.736 5.92501 17.517 7.54701 17.227C6.83301 18.237 6.01701 18.323 5.54001 18.237C5.54001 18.237 6.13801 18.961 7.75401 18.279C7.74401 18.303 7.73001 18.323 7.72101 18.347C7.25201 19.576 6.44101 19.847 5.94301 19.868C5.94301 19.868 6.65301 20.412 8.01401 19.488C7.77101 20.691 7.06401 21.1 6.59501 21.214C6.59501 21.214 7.43101 21.629 8.62301 20.363C8.62167 20.3783 8.62101 20.3943 8.62101 20.411C8.68801 21.725 8.05601 22.3 7.60801 22.52C7.60801 22.52 8.50401 22.74 9.38901 21.273L9.39001 21.278C9.73401 22.549 9.23601 23.243 8.84601 23.553C8.84601 23.553 9.76001 23.577 10.316 21.978C10.895 23.134 10.558 23.908 10.242 24.29C10.242 24.29 11.137 24.119 11.351 22.446C12.151 23.457 11.98 24.281 11.75 24.718C11.75 24.718 12.592 24.367 12.457 22.683C13.452 23.509 13.454 24.352 13.319 24.827C13.319 24.827 14.071 24.31 13.59 22.69C14.737 23.293 14.911 24.119 14.88 24.61C14.88 24.61 15.513 23.947 14.697 22.451C15.965 22.797 16.31 23.575 16.384 24.065C16.384 24.065 16.862 23.293 15.773 22.013C17.048 22.106 17.538 22.783 17.708 23.243C17.708 23.243 18.026 22.374 16.654 21.33L16.675 21.329C17.978 21.123 18.613 21.693 18.88 22.113C18.88 22.113 18.997 21.232 17.529 20.512C18.684 20.138 19.381 20.547 19.712 20.894C19.712 20.894 19.659 19.957 17.953 19.55C17.975 19.537 17.997 19.529 18.018 19.516C19.125 18.805 19.935 19.069 20.351 19.345ZM1.24901 6.417C1.24901 6.417 1.29201 4.938 0.333008 4.146C-0.624992 3.354 -1.22899 4.208 -1.18799 4.688C-1.14599 5.167 -0.732993 5.792 0.0290072 6.021C-0.437993 5.104 0.196007 5.087 0.416007 5.209C0.727007 5.381 0.895007 5.834 0.895007 6.417H1.24901ZM1.68801 1.271C0.646008 1.813 0.688007 3.417 1.02101 4.229C1.35401 5.041 1.43801 6.417 1.43801 6.417H1.93801C1.93801 6.417 2.02101 5.042 2.35501 4.229C2.68801 3.417 2.72901 1.812 1.68801 1.271ZM2.12601 6.417C2.12601 6.417 2.08301 4.938 3.04201 4.146C4.00001 3.354 4.60401 4.208 4.56201 4.688C4.52001 5.167 4.10701 5.792 3.34501 6.021C3.81201 5.104 3.17801 5.087 2.95801 5.209C2.64701 5.381 2.47901 5.834 2.47901 6.417H2.12601ZM1.68801 6.604L0.811007 6.677L1.68801 6.75L2.56401 6.677L1.68801 6.604ZM2.82801 7.688C2.28101 7.391 2.12601 6.938 2.12601 6.938H1.24901C1.24901 6.938 1.09401 7.391 0.547007 7.688C1.03101 7.766 1.53101 7.516 1.53101 7.516C1.53101 7.516 1.24901 8.204 1.68701 8.875C2.12501 8.203 1.84301 7.516 1.84301 7.516C1.84301 7.516 2.34401 7.766 2.82801 7.688ZM12.562 6.417C12.562 6.417 12.605 4.938 11.646 4.146C10.688 3.354 10.083 4.208 10.125 4.688C10.167 5.167 10.58 5.792 11.342 6.021C10.875 5.104 11.509 5.087 11.729 5.209C12.04 5.381 12.208 5.834 12.208 6.417H12.562ZM13 1.271C11.958 1.813 12 3.417 12.333 4.229C12.666 5.041 12.75 6.417 12.75 6.417H13.25C13.25 6.417 13.333 5.042 13.667 4.229C14 3.417 14.042 1.812 13 1.271ZM13.438 6.417C13.438 6.417 13.395 4.938 14.354 4.146C15.312 3.354 15.916 4.208 15.875 4.688C15.833 5.167 15.42 5.792 14.657 6.021C15.125 5.104 14.49 5.087 14.27 5.209C13.959 5.381 13.791 5.834 13.791 6.417H13.438ZM13 6.604L12.123 6.677L13 6.75L13.877 6.677L13 6.604ZM14.141 7.688C13.594 7.391 13.439 6.938 13.439 6.938H12.562C12.562 6.938 12.407 7.391 11.86 7.688C12.344 7.766 12.844 7.516 12.844 7.516C12.844 7.516 12.562 8.203 13 8.875C13.438 8.203 13.156 7.516 13.156 7.516C13.156 7.516 13.656 7.766 14.141 7.688ZM23.952 6.417C23.952 6.417 23.995 4.938 23.037 4.146C22.079 3.354 21.474 4.208 21.516 4.688C21.558 5.167 21.971 5.792 22.733 6.021C22.266 5.104 22.901 5.087 23.121 5.209C23.432 5.381 23.6 5.834 23.6 6.417H23.952ZM24.391 1.271C23.349 1.813 23.391 3.417 23.725 4.229C24.059 5.041 24.141 6.417 24.141 6.417H24.641C24.641 6.417 24.724 5.042 25.057 4.229C25.391 3.417 25.433 1.812 24.391 1.271ZM24.829 6.417C24.829 6.417 24.786 4.938 25.745 4.146C26.703 3.354 27.307 4.208 27.265 4.688C27.223 5.167 26.81 5.792 26.047 6.021C26.515 5.104 25.88 5.087 25.66 5.209C25.349 5.381 25.181 5.834 25.181 6.417H24.829ZM24.391 6.604L23.514 6.677L24.391 6.75L25.268 6.677L24.391 6.604ZM25.531 7.688C24.984 7.391 24.829 6.938 24.829 6.938H23.953C23.953 6.938 23.798 7.391 23.251 7.688C23.735 7.766 24.235 7.516 24.235 7.516C24.235 7.516 23.953 8.204 24.391 8.875C24.829 8.203 24.547 7.516 24.547 7.516C24.547 7.516 25.047 7.766 25.531 7.688Z" fill="#FCDD09"/>
</g>
<defs>
<clipPath id="clip0_4444_12">
<rect width="26" height="26" fill="white"/>
</clipPath>
</defs>
</svg>
