<svg width="512" height="512" viewBox="0 0 512 512" fill="none" xmlns="http://www.w3.org/2000/svg">
<g clip-path="url(#clip0_3210_7814)">
<path d="M0.0517578 256.001C0.0517578 397.372 114.656 511.976 256.027 511.976C397.398 511.976 512.002 397.372 512.002 256.001C512.002 114.63 397.398 0.0258789 256.027 0.0258789C114.656 0.0258789 0.0517578 114.63 0.0517578 256.001Z" fill="#41479B"/>
<path d="M256.026 121.277C204.825 148.214 170.293 212.373 170.293 256C170.293 299.627 204.825 363.786 256.026 390.723C307.227 363.786 341.759 299.627 341.759 256C341.759 212.373 307.228 148.214 256.026 121.277Z" fill="#3CC8FF"/>
<path d="M267.081 209.869C275.352 205.508 289.476 200.71 305.524 206.599C305.524 206.599 290.068 189.383 268.62 203.41C274.39 196.413 283.057 187.75 292.44 185.337C292.44 185.337 273.764 178.363 262.464 203.269C264.653 190.707 264.253 170.929 244.007 159.447C244.007 159.447 255.329 183.743 256.44 203.902C255.782 200.325 254.464 196.586 250.99 192.96C240.285 181.789 230.976 180.858 230.976 180.858C230.976 180.858 245.82 197.307 253.113 212.871C248.911 207.845 241.507 201.406 229.58 201.804C201.652 202.735 195.601 219.491 195.601 219.491C207.179 214.616 225.552 212.189 239.796 213.393C221.407 216.633 214.875 239.542 214.875 239.542C229.639 221.13 245.757 218.14 252.192 217.702C240.438 227.426 241.154 245.332 241.154 245.332C243.885 235.251 254.468 223.762 259.625 218.614C273.511 233.636 275.153 250.522 275.153 250.522C275.153 250.522 278.192 245.442 276.79 235.102C275.464 225.341 269.34 218.933 264.664 215.167C289.181 218.545 305.177 236.329 305.177 236.329C297.156 212.923 277.084 209.876 267.081 209.869Z" fill="#73AF00"/>
<path d="M256.026 26.9709C382.516 26.9709 485.056 129.511 485.056 256V256C485.056 382.49 382.516 485.03 256.026 485.03V485.03C129.537 485.03 26.997 382.49 26.997 256V256C26.997 129.511 129.537 26.9709 256.026 26.9709V26.9709ZM511.948 256C511.948 114.629 397.345 0.0258789 255.974 0.0258789V0.0258789C114.603 0.0258789 0 114.629 0 256V256C0 397.37 114.603 511.974 255.974 511.974V511.974C397.345 511.974 511.948 397.37 511.948 256V256Z" fill="#FF4B55"/>
<path d="M228.661 288.559L241.011 267.227L342.473 264.982L335.738 293.049L228.661 288.559Z" fill="#FF965A"/>
<path d="M173.995 282.945C184.164 322.858 214.637 368.948 256.026 390.723C297.415 368.948 327.888 322.857 338.057 282.945H173.995Z" fill="#4173CD"/>
<path d="M188.665 323.362C188.665 323.362 218.051 321.907 235.705 329.156C240.115 330.967 240.686 336.924 236.704 339.545C228.104 345.203 215.61 354.944 215.61 363.78L188.665 323.362Z" fill="#FFE15A"/>
<path d="M240.309 377.251C239.186 366.024 249.12 357.857 262.763 352.552C280.445 345.676 270.762 334.729 261.921 327.573C251.377 319.038 265.009 316.627 322.266 315.504L294.199 359.289L256.028 390.725L240.309 377.251Z" fill="#FFE15A"/>
<path d="M256.026 398.341L252.888 396.683C199.452 368.581 163.555 301.246 163.555 256C163.555 210.754 199.452 143.419 252.888 115.317L256.026 113.659L259.164 115.317C312.6 143.419 348.497 210.754 348.497 256C348.497 301.246 312.6 368.581 259.164 396.683L256.026 398.341ZM256.026 128.947C208.63 155.707 177.027 215.57 177.027 256C177.027 296.43 208.629 356.293 256.026 383.053C303.422 356.293 335.025 296.43 335.025 256C335.025 215.57 303.423 155.708 256.026 128.947Z" fill="#FF4B55"/>
<path d="M284.656 332.902C284.038 332.902 283.419 332.738 282.867 332.389C264.56 320.883 254.061 301.839 254.061 280.137V218.11C254.061 216.248 255.568 214.742 257.429 214.742C259.291 214.742 260.797 216.249 260.797 218.11V280.137C260.797 299.471 270.145 316.436 286.445 326.678C288.024 327.671 288.498 329.75 287.511 331.323C286.866 332.342 285.774 332.902 284.656 332.902Z" fill="#A54B37"/>
<path d="M263.29 213.578C268.197 221.071 260.18 229.088 252.687 224.181C252.243 223.89 251.859 223.506 251.568 223.062C246.66 215.569 254.678 207.552 262.171 212.459C262.616 212.75 262.999 213.133 263.29 213.578Z" fill="#A54B37"/>
</g>
<defs>
<clipPath id="clip0_3210_7814">
<rect width="512.002" height="512.002" fill="white"/>
</clipPath>
</defs>
</svg>
