<svg width="512" height="512" viewBox="0 0 512 512" fill="none" xmlns="http://www.w3.org/2000/svg">
<g clip-path="url(#clip0_3210_7862)">
<path d="M512 0H0V512H512V0Z" fill="#82C3D2"/>
<path d="M117.46 48.1952C116.163 42.7072 115.842 40.6842 118.304 38.2222C119.505 37.0212 119.505 35.0762 118.304 33.8752C117.103 32.6742 115.158 32.6742 113.957 33.8752C108.972 38.8602 110.161 44.0352 111.452 49.5122C107.523 48.2282 103.449 49.1802 101.264 51.9362C100.18 53.3112 98.0851 57.1662 102.012 63.3202C102.925 64.7492 104.813 65.1692 106.257 64.2632C107.689 63.3502 108.106 61.4472 107.194 60.0182C105.72 57.7002 105.678 56.2712 106.089 55.7492C106.575 55.1312 108.085 54.8062 109.665 55.3652C110.686 55.7192 113.057 56.9442 113.057 60.6432C113.057 63.5972 111.691 66.3052 109.31 68.0642C106.923 69.8292 103.834 70.3282 100.856 69.4032C97.1781 68.2802 94.6121 64.4072 94.6121 59.9822C94.6121 56.8182 95.2901 53.6172 96.5361 50.8132C96.7341 50.3992 101.432 40.6662 102.642 37.0392C105.035 29.8642 102.603 26.2552 100.943 24.7482C98.7211 22.7252 95.4761 22.2202 92.6811 23.4452C92.2571 23.6332 91.9061 23.9062 91.5371 24.1602C91.1681 23.9062 90.8171 23.6332 90.3931 23.4452C87.6011 22.2202 84.3561 22.7242 82.1311 24.7482C80.4711 26.2552 78.0391 29.8642 80.4321 37.0392C81.6421 40.6662 86.3401 50.3982 86.4961 50.7232C87.7841 53.6172 88.4621 56.8172 88.4621 59.9822C88.4621 64.4072 85.8951 68.2802 82.2181 69.4032C79.2311 70.3282 76.1511 69.8352 73.7641 68.0642C71.3831 66.3052 70.0171 63.5972 70.0171 60.6432C70.0171 56.9442 72.3891 55.7202 73.4091 55.3652C74.9941 54.8072 76.4951 55.1312 76.9851 55.7492C77.3961 56.2712 77.3541 57.7002 75.8801 60.0182C74.9671 61.4472 75.3851 63.3502 76.8171 64.2632C78.2611 65.1762 80.1551 64.7492 81.0621 63.3202C84.9891 57.1662 82.8931 53.3112 81.8101 51.9362C79.6251 49.1802 75.5511 48.2282 71.6221 49.5122C72.9131 44.0352 74.1021 38.8602 69.1171 33.8752C67.9161 32.6742 65.9711 32.6742 64.7701 33.8752C63.5691 35.0762 63.5691 37.0212 64.7701 38.2222C67.2321 40.6842 66.9111 42.7072 65.6141 48.1952C64.8361 51.4852 63.8701 55.5862 63.8701 60.6422C63.8701 64.0072 65.0521 67.2232 67.0431 69.8652H66.9441C65.2451 69.8652 63.8701 71.2402 63.8701 72.9392C63.8701 74.6382 65.2451 76.0132 66.9441 76.0132H67.0431C65.0531 78.6552 63.8701 81.8712 63.8701 85.2362C63.8701 90.2922 64.8371 94.3932 65.6141 97.6832C66.9111 103.171 67.2321 105.194 64.7701 107.656C63.5691 108.857 63.5691 110.802 64.7701 112.003C65.3701 112.603 66.1571 112.904 66.9441 112.904C67.7311 112.904 68.5171 112.604 69.1181 112.003C74.1031 107.018 72.9141 101.842 71.6231 96.3662C75.5521 97.6452 79.6261 96.6982 81.8111 93.9422C82.8951 92.5672 84.9901 88.7122 81.0631 82.5582C80.1531 81.1292 78.2531 80.7032 76.8181 81.6152C75.3861 82.5282 74.9691 84.4312 75.8811 85.8602C77.3551 88.1782 77.3971 89.6072 76.9861 90.1292C76.4971 90.7412 74.9961 91.0662 73.4101 90.5132C72.3891 90.1592 70.0181 88.9342 70.0181 85.2352C70.0181 82.2812 71.3841 79.5732 73.7651 77.8142C76.1521 76.0492 79.2381 75.5442 82.2191 76.4752C85.8971 77.5982 88.4631 81.4712 88.4631 85.8962C88.4631 89.0602 87.7851 92.2612 86.4971 95.1552L66.3641 140.45C64.7101 144.173 63.8691 148.129 63.8691 152.206C63.8691 157.451 66.2541 162.241 70.0071 165.163C66.2541 168.086 63.8691 172.875 63.8691 178.12C63.8691 182.197 64.7101 186.154 66.3641 189.876L86.4961 235.172C87.7841 238.066 88.4621 241.266 88.4621 244.431C88.4621 248.856 85.8951 252.729 82.2181 253.852C79.2311 254.783 76.1511 254.284 73.7641 252.513C71.3831 250.754 70.0171 248.046 70.0171 245.092C70.0171 241.393 72.3891 240.169 73.4091 239.814C74.9941 239.262 76.4951 239.58 76.9851 240.198C77.3961 240.72 77.3541 242.149 75.8801 244.467C74.9671 245.896 75.3851 247.799 76.8171 248.712C78.2611 249.625 80.1551 249.204 81.0621 247.769C84.9891 241.615 82.8931 237.76 81.8101 236.385C79.6251 233.629 75.5511 232.682 71.6221 233.961C72.9131 228.485 74.1021 223.309 69.1171 218.324C67.9161 217.123 65.9711 217.123 64.7701 218.324C63.5691 219.525 63.5691 221.47 64.7701 222.671C67.2321 225.133 66.9111 227.156 65.6141 232.644C64.8361 235.934 63.8701 240.035 63.8701 245.091C63.8701 248.456 65.0521 251.672 67.0431 254.314H66.9441C65.2451 254.314 63.8701 255.689 63.8701 257.388C63.8701 259.087 65.2451 260.462 66.9441 260.462H67.0431C65.0531 263.104 63.8701 266.32 63.8701 269.685C63.8701 274.741 64.8371 278.841 65.6141 282.132C66.9111 287.62 67.2321 289.643 64.7701 292.105C63.5691 293.306 63.5691 295.251 64.7701 296.452C65.3701 297.052 66.1571 297.353 66.9441 297.353C67.7311 297.353 68.5171 297.053 69.1181 296.452C74.1031 291.467 72.9141 286.291 71.6231 280.815C75.5521 282.094 79.6261 281.147 81.8111 278.391C82.8951 277.016 84.9901 273.161 81.0631 267.007C80.1531 265.578 78.2531 265.152 76.8181 266.064C75.3861 266.977 74.9691 268.88 75.8811 270.309C77.3551 272.627 77.3971 274.056 76.9861 274.578C76.4971 275.196 74.9961 275.521 73.4101 274.962C72.3891 274.608 70.0181 273.383 70.0181 269.684C70.0181 266.73 71.3841 264.022 73.7651 262.263C76.1521 260.498 79.2381 259.993 82.2191 260.924C85.8971 262.047 88.4631 265.92 88.4631 270.345C88.4631 273.509 87.7851 276.71 86.4971 279.604L66.3651 324.9C64.7111 328.623 63.8701 332.579 63.8701 336.656C63.8701 341.901 66.2551 346.691 70.0081 349.613C66.2551 352.536 63.8701 357.325 63.8701 362.57C63.8701 366.647 64.7111 370.604 66.3651 374.326L86.4971 419.622C87.7851 422.516 88.4631 425.716 88.4631 428.881C88.4631 433.306 85.8961 437.179 82.2191 438.302C79.2321 439.233 76.1521 438.728 73.7651 436.963C71.3841 435.204 70.0181 432.496 70.0181 429.542C70.0181 425.843 72.3901 424.619 73.4101 424.264C74.9951 423.712 76.4961 424.03 76.9861 424.648C77.3971 425.17 77.3551 426.599 75.8811 428.917C74.9681 430.346 75.3861 432.249 76.8181 433.162C78.2621 434.075 80.1561 433.654 81.0631 432.219C84.9901 426.065 82.8941 422.21 81.8111 420.835C79.6261 418.073 75.5521 417.127 71.6231 418.411C72.9141 412.934 74.1031 407.759 69.1181 402.774C67.9171 401.573 65.9721 401.573 64.7711 402.774C63.5701 403.975 63.5701 405.92 64.7711 407.121C67.2331 409.583 66.9121 411.606 65.6151 417.094C64.8371 420.384 63.8711 424.485 63.8711 429.541C63.8711 434.359 66.1801 438.947 70.0391 441.838C66.1801 444.729 63.8711 449.316 63.8711 454.135C63.8711 459.191 64.8381 463.291 65.6151 466.582C66.9121 472.07 67.2331 474.093 64.7711 476.555C63.5701 477.756 63.5701 479.701 64.7711 480.902C65.3711 481.502 66.1581 481.803 66.9451 481.803C67.7321 481.803 68.5181 481.503 69.1191 480.902C74.1041 475.917 72.9151 470.741 71.6241 465.265C75.5531 466.544 79.6271 465.597 81.8121 462.841C82.8961 461.466 84.9911 457.611 81.0641 451.457C80.1541 450.028 78.2541 449.608 76.8191 450.514C75.3871 451.427 74.9701 453.33 75.8821 454.759C77.3561 457.077 77.3981 458.506 76.9871 459.028C76.4981 459.646 74.9971 459.965 73.4111 459.412C72.3901 459.058 70.0191 457.833 70.0191 454.134C70.0191 451.18 71.3851 448.472 73.7661 446.713C76.1531 444.948 79.2391 444.449 82.2201 445.374C85.8981 446.497 88.4641 450.37 88.4641 454.795C88.4641 457.959 87.7861 461.16 86.5401 463.964C86.3421 464.378 81.6441 474.111 80.4341 477.738C78.0411 484.913 80.4731 488.522 82.1331 490.029C83.5531 491.32 85.3811 491.998 87.2491 491.998C88.3091 491.998 89.3841 491.776 90.3951 491.332C90.8191 491.144 91.1701 490.871 91.5391 490.617C91.9081 490.871 92.2591 491.144 92.6831 491.332C93.6951 491.776 94.7691 491.998 95.8291 491.998C97.6931 491.998 99.5251 491.32 100.945 490.029C102.605 488.522 105.037 484.913 102.644 477.738C101.434 474.111 96.7361 464.379 96.5801 464.054C95.2921 461.16 94.6141 457.96 94.6141 454.795C94.6141 450.37 97.1811 446.497 100.858 445.374C103.848 444.449 106.925 444.948 109.312 446.713C111.693 448.472 113.059 451.18 113.059 454.134C113.059 457.833 110.687 459.057 109.667 459.412C108.088 459.964 106.578 459.646 106.091 459.028C105.68 458.506 105.722 457.077 107.196 454.759C108.109 453.33 107.691 451.427 106.259 450.514C104.824 449.613 102.93 450.034 102.014 451.457C98.0871 457.611 100.183 461.466 101.266 462.841C103.451 465.597 107.525 466.544 111.454 465.265C110.163 470.741 108.974 475.917 113.959 480.902C114.559 481.502 115.346 481.803 116.133 481.803C116.92 481.803 117.706 481.503 118.307 480.902C119.508 479.701 119.508 477.756 118.307 476.555C115.845 474.093 116.166 472.07 117.463 466.582C118.241 463.292 119.207 459.191 119.207 454.135C119.207 449.317 116.898 444.729 113.039 441.838C116.898 438.947 119.207 434.36 119.207 429.541C119.207 424.485 118.24 420.385 117.463 417.094C116.166 411.606 115.845 409.583 118.307 407.121C119.508 405.92 119.508 403.975 118.307 402.774C117.106 401.573 115.161 401.573 113.96 402.774C108.975 407.759 110.164 412.934 111.455 418.411C107.526 417.127 103.452 418.073 101.267 420.835C100.183 422.21 98.0881 426.065 102.015 432.219C102.928 433.648 104.816 434.068 106.26 433.162C107.692 432.249 108.109 430.346 107.197 428.917C105.723 426.599 105.681 425.17 106.092 424.648C106.578 424.03 108.088 423.711 109.668 424.264C110.689 424.618 113.06 425.843 113.06 429.542C113.06 432.496 111.694 435.204 109.313 436.963C106.926 438.728 103.837 439.233 100.859 438.302C97.1811 437.179 94.6151 433.306 94.6151 428.881C94.6151 425.717 95.2931 422.516 96.5811 419.622L116.713 374.326C118.367 370.603 119.208 366.647 119.208 362.57C119.208 357.325 116.823 352.535 113.07 349.613C116.823 346.69 119.208 341.901 119.208 336.656C119.208 332.579 118.367 328.622 116.713 324.9L96.5811 279.604C95.2931 276.71 94.6151 273.51 94.6151 270.345C94.6151 265.92 97.1821 262.047 100.859 260.924C103.849 259.999 106.926 260.498 109.313 262.263C111.694 264.022 113.06 266.73 113.06 269.684C113.06 273.383 110.688 274.607 109.668 274.962C108.089 275.52 106.579 275.196 106.092 274.578C105.681 274.056 105.723 272.627 107.197 270.309C108.11 268.88 107.692 266.977 106.26 266.064C104.825 265.163 102.931 265.584 102.015 267.007C98.0881 273.161 100.184 277.016 101.267 278.391C103.452 281.147 107.526 282.094 111.455 280.815C110.164 286.291 108.975 291.467 113.96 296.452C114.56 297.052 115.347 297.353 116.134 297.353C116.921 297.353 117.707 297.053 118.308 296.452C119.509 295.251 119.509 293.306 118.308 292.105C115.846 289.643 116.167 287.62 117.464 282.132C118.242 278.842 119.208 274.741 119.208 269.685C119.208 266.32 118.026 263.104 116.035 260.462H116.134C117.833 260.462 119.208 259.087 119.208 257.388C119.208 255.689 117.833 254.314 116.134 254.314H116.035C118.025 251.672 119.208 248.456 119.208 245.091C119.208 240.035 118.241 235.935 117.464 232.644C116.167 227.156 115.846 225.133 118.308 222.671C119.509 221.47 119.509 219.525 118.308 218.324C117.107 217.123 115.162 217.123 113.961 218.324C108.976 223.309 110.165 228.485 111.456 233.961C107.527 232.682 103.453 233.629 101.268 236.385C100.184 237.76 98.0891 241.615 102.016 247.769C102.929 249.198 104.817 249.612 106.261 248.712C107.693 247.799 108.11 245.896 107.198 244.467C105.724 242.149 105.682 240.72 106.093 240.198C106.579 239.58 108.089 239.261 109.669 239.814C110.69 240.168 113.061 241.393 113.061 245.092C113.061 248.046 111.695 250.754 109.314 252.513C106.927 254.278 103.838 254.777 100.86 253.852C97.1821 252.729 94.6161 248.856 94.6161 244.431C94.6161 241.267 95.2941 238.066 96.5821 235.172L116.714 189.876C118.368 186.153 119.209 182.197 119.209 178.12C119.209 172.875 116.824 168.085 113.071 165.163C116.824 162.24 119.209 157.451 119.209 152.206C119.209 148.129 118.368 144.172 116.714 140.45L96.5771 95.1542C95.2891 92.2602 94.6111 89.0602 94.6111 85.8952C94.6111 81.4702 97.1781 77.5972 100.855 76.4742C103.845 75.5492 106.922 76.0482 109.309 77.8132C111.69 79.5722 113.056 82.2802 113.056 85.2342C113.056 88.9332 110.684 90.1582 109.664 90.5122C108.085 91.0642 106.575 90.7402 106.088 90.1282C105.677 89.6062 105.719 88.1772 107.193 85.8592C108.106 84.4302 107.688 82.5272 106.256 81.6142C104.821 80.7132 102.927 81.1282 102.011 82.5572C98.0841 88.7112 100.18 92.5662 101.263 93.9412C103.448 96.6972 107.522 97.6442 111.451 96.3652C110.16 101.841 108.971 107.017 113.956 112.002C114.556 112.602 115.343 112.903 116.13 112.903C116.917 112.903 117.703 112.603 118.304 112.002C119.505 110.801 119.505 108.856 118.304 107.655C115.842 105.193 116.163 103.17 117.46 97.6822C118.238 94.3922 119.204 90.2912 119.204 85.2352C119.204 81.8702 118.022 78.6542 116.031 76.0122H116.13C117.829 76.0122 119.204 74.6372 119.204 72.9382C119.204 71.2392 117.829 69.8642 116.13 69.8642H116.031C118.021 67.2222 119.204 64.0062 119.204 60.6412C119.204 55.5862 118.238 51.4852 117.46 48.1952ZM86.2621 35.0932C85.1691 31.8152 85.5501 29.9472 86.2711 29.2932C86.7421 28.8492 87.4571 28.8672 87.9071 29.0712C88.4621 29.3172 88.4621 29.7072 88.4621 29.9002C88.4621 31.5992 89.8371 32.9742 91.5361 32.9742C93.2351 32.9742 94.6101 31.5992 94.6101 29.9002C94.6101 29.7082 94.6101 29.3182 95.1651 29.0712C95.6091 28.8672 96.3181 28.8492 96.8011 29.2932C97.5221 29.9472 97.9031 31.8152 96.8101 35.0932C96.0151 37.4712 93.1381 43.6572 91.5361 47.0162C89.9701 43.7362 87.0631 37.4872 86.2621 35.0932ZM91.5371 161.939C92.4201 163.139 93.4171 164.254 94.6311 165.163C93.4171 166.073 92.4201 167.187 91.5371 168.387C90.6541 167.187 89.6571 166.072 88.4431 165.163C89.6561 164.254 90.6541 163.139 91.5371 161.939ZM91.5371 346.39C92.4201 347.59 93.4171 348.705 94.6311 349.614C93.4171 350.524 92.4201 351.638 91.5371 352.838C90.6541 351.638 89.6571 350.523 88.4431 349.614C89.6561 348.705 90.6541 347.59 91.5371 346.39ZM96.8111 479.685C97.9041 482.963 97.5231 484.831 96.8021 485.485C96.3191 485.923 95.6101 485.905 95.1661 485.707C94.6111 485.461 94.6111 485.071 94.6111 484.878C94.6111 483.179 93.2361 481.804 91.5371 481.804C89.8381 481.804 88.4631 483.179 88.4631 484.878C88.4631 485.07 88.4631 485.46 87.9081 485.707C87.4581 485.905 86.7431 485.923 86.2721 485.485C85.5511 484.831 85.1701 482.963 86.2631 479.685C87.0581 477.307 89.9351 471.121 91.5371 467.762C93.1031 471.042 96.0101 477.291 96.8111 479.685ZM94.6011 441.84C93.4371 442.746 92.4061 443.829 91.5371 445.054C90.6681 443.829 89.6371 442.746 88.4731 441.84C89.6371 440.934 90.6681 439.851 91.5371 438.626C92.4051 439.851 93.4371 440.934 94.6011 441.84ZM111.089 371.83L91.5361 415.822L71.9841 371.83C70.6961 368.936 70.0181 365.736 70.0181 362.571C70.0181 358.146 72.5851 354.273 76.2621 353.15C79.2491 352.225 82.3321 352.724 84.7161 354.489C87.0971 356.248 88.4631 358.956 88.4631 361.91C88.4631 365.609 86.0911 366.833 85.0711 367.188C83.4861 367.74 81.9791 367.422 81.4951 366.804C81.0841 366.282 81.1261 364.853 82.6001 362.535C83.5131 361.106 83.0951 359.203 81.6631 358.29C80.2281 357.389 78.3341 357.81 77.4181 359.233C73.4911 365.387 75.5871 369.242 76.6701 370.617C78.8951 373.427 83.0831 374.394 87.0871 372.995C87.5441 372.837 88.0051 372.641 88.4621 372.409V380.185C88.4611 380.183 88.4571 380.18 88.4571 380.18C88.3631 378.562 87.0241 377.283 85.3881 377.283C83.6891 377.283 82.3141 378.658 82.3141 380.357C82.3141 382.362 83.7161 385.84 88.4621 386.918V392.654C88.4621 394.353 89.8371 395.728 91.5361 395.728C93.2351 395.728 94.6101 394.353 94.6101 392.654V386.918C99.3561 385.84 100.758 382.362 100.758 380.357C100.758 378.658 99.3861 377.181 97.6901 377.181C95.9911 377.181 94.6221 378.454 94.6221 380.153C94.6211 380.159 94.6111 380.165 94.6101 380.171V372.41C95.0671 372.642 95.5281 372.838 95.9851 372.996C99.9901 374.395 104.175 373.428 106.402 370.618C107.486 369.243 109.581 365.388 105.654 359.234C104.741 357.805 102.844 357.385 101.409 358.291C99.9771 359.204 99.5601 361.107 100.472 362.536C101.946 364.854 101.988 366.283 101.577 366.805C101.091 367.423 99.5841 367.742 98.0011 367.189C96.9801 366.835 94.6091 365.61 94.6091 361.911C94.6091 358.957 95.9751 356.249 98.3561 354.49C100.743 352.725 103.832 352.22 106.81 353.151C110.488 354.274 113.054 358.147 113.054 362.572C113.056 365.736 112.377 368.936 111.089 371.83ZM111.089 327.399C112.377 330.293 113.055 333.493 113.055 336.658C113.055 341.083 110.488 344.956 106.811 346.079C103.827 347.01 100.741 346.505 98.3571 344.74C95.9761 342.981 94.6101 340.273 94.6101 337.319C94.6101 333.62 96.9821 332.396 98.0021 332.041C99.5841 331.489 101.091 331.807 101.578 332.425C101.989 332.947 101.947 334.376 100.473 336.694C99.5601 338.123 99.9781 340.026 101.41 340.939C102.854 341.852 104.748 341.431 105.655 339.996C109.582 333.842 107.486 329.987 106.403 328.612C104.175 325.802 99.9901 324.847 95.9861 326.234C95.5291 326.392 95.0681 326.588 94.6111 326.82V319.044L94.6171 319.052C94.7101 320.667 96.0491 321.946 97.6851 321.946C99.3841 321.946 100.759 320.571 100.759 318.872C100.759 316.867 99.3571 313.389 94.6111 312.311V306.575C94.6111 304.876 93.2361 303.501 91.5371 303.501C89.8381 303.501 88.4631 304.876 88.4631 306.575V312.311C83.7171 313.389 82.3151 316.867 82.3151 318.872C82.3151 320.571 83.6871 322.048 85.3831 322.048C87.0821 322.048 88.4511 320.775 88.4511 319.076C88.4521 319.07 88.4621 319.064 88.4621 319.064L88.4631 326.819C88.0061 326.587 87.5451 326.391 87.0881 326.233C83.0831 324.846 78.8951 325.801 76.6711 328.611C75.5871 329.986 73.4921 333.841 77.4191 339.995C78.3321 341.424 80.2291 341.838 81.6641 340.938C83.0961 340.025 83.5131 338.122 82.6011 336.693C81.1271 334.375 81.0851 332.946 81.4961 332.424C81.9791 331.806 83.4861 331.487 85.0721 332.04C86.0931 332.394 88.4641 333.619 88.4641 337.318C88.4641 340.272 87.0981 342.98 84.7171 344.739C82.3301 346.504 79.2471 347.009 76.2631 346.078C72.5851 344.955 70.0191 341.082 70.0191 336.657C70.0191 333.493 70.6971 330.292 71.9851 327.398L91.5381 283.406L111.089 327.399ZM94.6011 257.389C93.4371 258.295 92.4061 259.378 91.5371 260.603C90.6681 259.378 89.6371 258.295 88.4731 257.389C89.6371 256.483 90.6681 255.4 91.5371 254.175C92.4051 255.4 93.4371 256.483 94.6011 257.389ZM111.089 187.379L91.5361 231.371L71.9831 187.379C70.6951 184.485 70.0171 181.285 70.0171 178.12C70.0171 173.695 72.5841 169.822 76.2611 168.699C79.2481 167.774 82.3311 168.273 84.7151 170.038C87.0961 171.797 88.4621 174.505 88.4621 177.459C88.4621 181.158 86.0901 182.382 85.0701 182.737C83.4851 183.295 81.9781 182.971 81.4941 182.353C81.0831 181.831 81.1251 180.402 82.5991 178.084C83.5121 176.655 83.0941 174.752 81.6621 173.839C80.2271 172.932 78.3331 173.353 77.4171 174.782C73.4901 180.936 75.5861 184.791 76.6691 186.166C78.8941 188.976 83.0821 189.937 87.0861 188.544C87.5431 188.386 88.0041 188.19 88.4611 187.958V195.734L88.4551 195.726C88.3621 194.111 87.0231 192.832 85.3871 192.832C83.6881 192.832 82.3131 194.207 82.3131 195.906C82.3131 197.911 83.7151 201.389 88.4611 202.467V208.203C88.4611 209.902 89.8361 211.277 91.5351 211.277C93.2341 211.277 94.6091 209.902 94.6091 208.203V202.467C99.3551 201.389 100.757 197.911 100.757 195.906C100.757 194.207 99.3851 192.73 97.6891 192.73C95.9901 192.73 94.6211 194.003 94.6211 195.702C94.6201 195.708 94.6101 195.714 94.6101 195.714L94.6081 187.959C95.0651 188.191 95.5261 188.387 95.9831 188.545C99.9881 189.938 104.173 188.977 106.4 186.167C107.484 184.792 109.579 180.937 105.652 174.783C104.739 173.348 102.842 172.928 101.407 173.84C99.9751 174.753 99.5581 176.656 100.47 178.085C101.944 180.403 101.986 181.832 101.575 182.354C101.089 182.972 99.5821 183.297 97.9991 182.738C96.9781 182.384 94.6071 181.159 94.6071 177.46C94.6071 174.506 95.9731 171.798 98.3541 170.039C100.741 168.274 103.83 167.775 106.808 168.7C110.486 169.823 113.052 173.696 113.052 178.121C113.056 181.285 112.377 184.485 111.089 187.379ZM111.089 142.948C112.377 145.842 113.055 149.042 113.055 152.207C113.055 156.632 110.488 160.505 106.811 161.628C103.827 162.559 100.741 162.054 98.3571 160.289C95.9761 158.53 94.6101 155.822 94.6101 152.868C94.6101 149.169 96.9821 147.945 98.0021 147.59C99.5841 147.038 101.091 147.356 101.578 147.974C101.989 148.496 101.947 149.925 100.473 152.243C99.5601 153.672 99.9781 155.575 101.41 156.488C102.854 157.395 104.748 156.98 105.655 155.545C109.582 149.391 107.486 145.536 106.403 144.161C104.175 141.351 99.9901 140.39 95.9861 141.783C95.5291 141.941 95.0681 142.137 94.6111 142.369V134.593C94.6121 134.595 94.6161 134.598 94.6161 134.598C94.7101 136.216 96.0491 137.495 97.6851 137.495C99.3841 137.495 100.759 136.12 100.759 134.421C100.759 132.416 99.3571 128.938 94.6111 127.86V122.124C94.6111 120.425 93.2361 119.05 91.5371 119.05C89.8381 119.05 88.4631 120.425 88.4631 122.124V127.86C83.7171 128.938 82.3151 132.416 82.3151 134.421C82.3151 136.12 83.6871 137.597 85.3831 137.597C87.0821 137.597 88.4511 136.324 88.4511 134.625C88.4521 134.619 88.4621 134.613 88.4631 134.607V142.368C88.0061 142.136 87.5451 141.94 87.0881 141.782C83.0831 140.389 78.8951 141.35 76.6711 144.16C75.5871 145.535 73.4921 149.39 77.4191 155.544C78.3321 156.973 80.2291 157.387 81.6641 156.487C83.0961 155.574 83.5131 153.671 82.6011 152.242C81.1271 149.924 81.0851 148.495 81.4961 147.973C81.9791 147.355 83.4861 147.036 85.0721 147.589C86.0931 147.943 88.4641 149.168 88.4641 152.867C88.4641 155.821 87.0981 158.529 84.7171 160.288C82.3301 162.053 79.2471 162.558 76.2631 161.627C72.5851 160.504 70.0191 156.631 70.0191 152.206C70.0191 149.042 70.6971 145.841 71.9851 142.947L91.5381 98.9552L111.089 142.948ZM88.4731 72.9382C89.6371 72.0322 90.6681 70.9492 91.5371 69.7242C92.4061 70.9492 93.4371 72.0322 94.6011 72.9382C93.4371 73.8442 92.4061 74.9272 91.5371 76.1522C90.6681 74.9272 89.6361 73.8442 88.4731 72.9382Z" fill="#FFE15A"/>
<path d="M270.3 286.22C302.532 286.22 328.66 260.091 328.66 227.86C328.66 195.629 302.532 169.5 270.3 169.5C238.069 169.5 211.94 195.629 211.94 227.86C211.94 260.091 238.069 286.22 270.3 286.22Z" fill="#FFE15A"/>
<path d="M274.674 153.443C274.674 155.86 272.714 157.82 270.297 157.82C267.88 157.82 265.92 155.86 265.92 153.443C265.92 151.026 270.297 140.311 270.297 140.311C270.297 140.311 274.674 151.026 274.674 153.443Z" fill="#FFE15A"/>
<path d="M265.92 302.269C265.92 299.852 267.88 297.892 270.297 297.892C272.714 297.892 274.674 299.852 274.674 302.269C274.674 304.686 270.297 315.401 270.297 315.401C270.297 315.401 265.92 304.687 265.92 302.269Z" fill="#FFE15A"/>
<path d="M344.71 232.234C342.293 232.234 340.333 230.274 340.333 227.857C340.333 225.44 342.293 223.48 344.71 223.48C347.127 223.48 357.842 227.857 357.842 227.857C357.842 227.857 347.127 232.234 344.71 232.234Z" fill="#FFE15A"/>
<path d="M195.884 223.479C198.301 223.479 200.261 225.439 200.261 227.856C200.261 230.273 198.301 232.233 195.884 232.233C193.467 232.233 182.752 227.856 182.752 227.856C182.752 227.856 193.467 223.479 195.884 223.479Z" fill="#FFE15A"/>
<path d="M326.01 178.334C324.301 180.043 321.529 180.043 319.82 178.334C318.111 176.625 318.111 173.853 319.82 172.144C321.529 170.435 332.201 165.954 332.201 165.954C332.201 165.954 327.719 176.624 326.01 178.334Z" fill="#FFE15A"/>
<path d="M214.585 277.379C216.294 275.67 219.066 275.67 220.775 277.379C222.484 279.088 222.484 281.86 220.775 283.569C219.066 285.278 208.394 289.759 208.394 289.759C208.394 289.759 212.876 279.088 214.585 277.379Z" fill="#FFE15A"/>
<path d="M319.82 283.569C318.111 281.86 318.111 279.088 319.82 277.379C321.529 275.67 324.301 275.67 326.01 277.379C327.719 279.088 332.2 289.76 332.2 289.76C332.2 289.76 321.529 285.279 319.82 283.569Z" fill="#FFE15A"/>
<path d="M220.775 172.143C222.484 173.852 222.484 176.624 220.775 178.333C219.066 180.042 216.294 180.042 214.585 178.333C212.876 176.624 208.395 165.952 208.395 165.952C208.395 165.952 219.066 170.434 220.775 172.143Z" fill="#FFE15A"/>
<path d="M245.864 157.433C246.789 159.666 245.729 162.227 243.495 163.152C241.261 164.077 238.701 163.017 237.776 160.783C236.851 158.55 236.795 146.976 236.795 146.976C236.795 146.976 244.939 155.199 245.864 157.433Z" fill="#FFE15A"/>
<path d="M294.73 298.28C293.805 296.047 294.865 293.486 297.099 292.561C299.332 291.636 301.893 292.696 302.818 294.93C303.743 297.163 303.799 308.737 303.799 308.737C303.799 308.737 295.655 300.513 294.73 298.28Z" fill="#FFE15A"/>
<path d="M340.721 203.424C338.488 204.349 335.927 203.289 335.002 201.055C334.077 198.822 335.137 196.261 337.371 195.336C339.605 194.411 351.178 194.355 351.178 194.355C351.178 194.355 342.954 202.499 340.721 203.424Z" fill="#FFE15A"/>
<path d="M199.873 252.289C202.106 251.364 204.667 252.424 205.592 254.658C206.517 256.891 205.457 259.452 203.223 260.377C200.99 261.302 189.416 261.358 189.416 261.358C189.416 261.358 197.64 253.214 199.873 252.289Z" fill="#FFE15A"/>
<path d="M302.818 160.783C301.893 163.016 299.332 164.077 297.099 163.152C294.866 162.227 293.805 159.666 294.73 157.433C295.655 155.2 303.799 146.976 303.799 146.976C303.799 146.976 303.743 158.549 302.818 160.783Z" fill="#FFE15A"/>
<path d="M237.776 294.93C238.701 292.697 241.262 291.636 243.495 292.561C245.728 293.486 246.789 296.047 245.864 298.28C244.939 300.513 236.795 308.737 236.795 308.737C236.795 308.737 236.851 297.163 237.776 294.93Z" fill="#FFE15A"/>
<path d="M337.37 260.377C335.137 259.452 334.076 256.891 335.001 254.658C335.926 252.425 338.487 251.364 340.72 252.289C342.953 253.214 351.177 261.358 351.177 261.358C351.177 261.358 339.604 261.302 337.37 260.377Z" fill="#FFE15A"/>
<path d="M203.224 195.336C205.457 196.261 206.518 198.822 205.593 201.055C204.668 203.288 202.107 204.349 199.874 203.424C197.641 202.499 189.417 194.355 189.417 194.355C189.417 194.355 200.99 194.411 203.224 195.336Z" fill="#FFE15A"/>
<path d="M260.073 154.019C260.545 156.39 259.005 158.694 256.634 159.166C254.263 159.638 251.959 158.098 251.487 155.727C251.015 153.356 253.218 141.994 253.218 141.994C253.218 141.994 259.601 151.648 260.073 154.019Z" fill="#FFE15A"/>
<path d="M280.522 301.693C280.05 299.322 281.59 297.018 283.961 296.546C286.332 296.074 288.636 297.614 289.108 299.985C289.58 302.356 287.377 313.718 287.377 313.718C287.377 313.718 280.994 304.064 280.522 301.693Z" fill="#FFE15A"/>
<path d="M344.134 217.632C341.763 218.104 339.459 216.564 338.987 214.193C338.515 211.822 340.055 209.518 342.426 209.046C344.797 208.574 356.159 210.777 356.159 210.777C356.159 210.777 346.505 217.161 344.134 217.632Z" fill="#FFE15A"/>
<path d="M196.461 238.08C198.832 237.608 201.136 239.148 201.608 241.519C202.08 243.89 200.54 246.194 198.169 246.666C195.798 247.138 184.436 244.935 184.436 244.935C184.436 244.935 194.09 238.552 196.461 238.08Z" fill="#FFE15A"/>
<path d="M315.278 168.416C313.935 170.426 311.217 170.967 309.207 169.624C307.197 168.281 306.656 165.563 307.999 163.553C309.342 161.543 318.934 155.066 318.934 155.066C318.934 155.066 316.621 166.406 315.278 168.416Z" fill="#FFE15A"/>
<path d="M225.316 287.297C226.659 285.287 229.377 284.746 231.387 286.089C233.397 287.432 233.938 290.15 232.595 292.16C231.252 294.17 221.66 300.647 221.66 300.647C221.66 300.647 223.973 289.307 225.316 287.297Z" fill="#FFE15A"/>
<path d="M329.737 272.837C327.727 271.494 327.186 268.776 328.529 266.766C329.872 264.756 332.59 264.215 334.6 265.558C336.61 266.901 343.087 276.493 343.087 276.493C343.087 276.493 331.747 274.181 329.737 272.837Z" fill="#FFE15A"/>
<path d="M210.857 182.875C212.867 184.218 213.408 186.936 212.065 188.946C210.722 190.956 208.004 191.497 205.994 190.154C203.984 188.811 197.507 179.219 197.507 179.219C197.507 179.219 208.847 181.532 210.857 182.875Z" fill="#FFE15A"/>
<path d="M232.595 163.552C233.938 165.562 233.397 168.28 231.387 169.623C229.377 170.966 226.659 170.425 225.316 168.415C223.973 166.405 221.66 155.065 221.66 155.065C221.66 155.065 231.252 161.542 232.595 163.552Z" fill="#FFE15A"/>
<path d="M307.999 292.16C306.656 290.15 307.197 287.432 309.207 286.089C311.217 284.746 313.935 285.287 315.278 287.297C316.621 289.307 318.934 300.647 318.934 300.647C318.934 300.647 309.342 294.17 307.999 292.16Z" fill="#FFE15A"/>
<path d="M334.601 190.154C332.591 191.497 329.873 190.956 328.53 188.946C327.187 186.936 327.728 184.218 329.738 182.875C331.748 181.532 343.088 179.219 343.088 179.219C343.088 179.219 336.611 188.811 334.601 190.154Z" fill="#FFE15A"/>
<path d="M205.993 265.558C208.003 264.215 210.721 264.756 212.064 266.766C213.407 268.776 212.866 271.494 210.856 272.837C208.846 274.18 197.506 276.493 197.506 276.493C197.506 276.493 203.983 266.901 205.993 265.558Z" fill="#FFE15A"/>
<path d="M289.108 155.727C288.636 158.098 286.332 159.638 283.961 159.166C281.59 158.694 280.05 156.39 280.522 154.019C280.994 151.648 287.377 141.994 287.377 141.994C287.377 141.994 289.58 153.356 289.108 155.727Z" fill="#FFE15A"/>
<path d="M251.487 299.985C251.959 297.614 254.263 296.074 256.634 296.546C259.005 297.018 260.545 299.322 260.073 301.693C259.601 304.064 253.218 313.718 253.218 313.718C253.218 313.718 251.015 302.356 251.487 299.985Z" fill="#FFE15A"/>
<path d="M342.426 246.667C340.055 246.195 338.515 243.891 338.987 241.52C339.459 239.149 341.763 237.609 344.134 238.081C346.505 238.553 356.159 244.936 356.159 244.936C356.159 244.936 344.797 247.138 342.426 246.667Z" fill="#FFE15A"/>
<path d="M198.169 209.046C200.54 209.518 202.08 211.822 201.608 214.193C201.136 216.564 198.832 218.104 196.461 217.632C194.09 217.16 184.436 210.777 184.436 210.777C184.436 210.777 195.798 208.574 198.169 209.046Z" fill="#FFE15A"/>
<path d="M407.576 243.212C405.867 242.493 403.912 243.317 403.199 245.016C403.199 245.023 403.199 245.023 403.199 245.023C403.186 245.056 403.121 245.213 403.006 245.481C400.476 251.39 395.243 260.026 389.958 268.151C394.88 252.305 399.381 235.381 399.695 234.191C400.166 232.413 399.113 230.589 397.338 230.105C395.56 229.628 393.733 230.661 393.236 232.432C390.938 240.662 386.241 251.494 381.907 260.665C382.701 250.441 382.852 240.969 382.861 240.283C382.887 238.472 381.469 236.975 379.658 236.89C377.955 236.942 376.311 238.184 376.177 239.995C371.892 298.946 315.167 325.316 309.643 327.741C306.754 328.029 293.294 329.545 281.076 333.788C279.69 334.27 278.512 334.751 277.336 335.229C276.9 335.066 276.431 334.974 275.937 335.003C238.441 337.716 208.544 322.334 187.057 289.381C170.822 264.482 165.73 238.347 165.681 238.085C165.338 236.268 163.599 235.098 161.772 235.418C159.955 235.764 158.762 237.51 159.105 239.327C159.241 240.049 161.474 251.456 167.628 266.469C159.395 253.474 153.66 237.732 151.64 229.534C151.6 229.37 151.495 229.246 151.433 229.094C151.339 228.862 151.259 228.63 151.12 228.429C151.021 228.287 150.893 228.183 150.775 228.06C150.592 227.867 150.416 227.678 150.194 227.534C150.066 227.451 149.922 227.41 149.784 227.345C149.536 227.23 149.295 227.116 149.02 227.065C148.83 227.028 148.634 227.052 148.437 227.049C148.237 227.047 148.047 226.995 147.842 227.031C147.797 227.038 147.763 227.069 147.718 227.078C147.675 227.086 147.633 227.072 147.59 227.083C147.411 227.127 147.274 227.239 147.11 227.309C146.901 227.399 146.687 227.468 146.504 227.594C146.324 227.718 146.19 227.879 146.039 228.034C145.89 228.188 145.732 228.323 145.615 228.501C145.496 228.682 145.431 228.885 145.348 229.086C145.267 229.282 145.174 229.466 145.131 229.678C145.087 229.895 145.107 230.118 145.108 230.343C145.108 230.524 145.059 230.696 145.09 230.881C145.103 230.959 145.129 231.039 145.142 231.117V231.129C145.146 231.144 145.151 231.163 145.155 231.176C147.225 243.375 152.16 256.021 156.621 265.664C149.535 257.624 143.616 248.361 141.517 242.876C141.456 242.716 141.335 242.605 141.253 242.461C141.128 242.239 141.02 242.013 140.852 241.83C140.734 241.7 140.588 241.615 140.453 241.506C140.25 241.343 140.056 241.177 139.821 241.065C139.67 240.993 139.507 240.97 139.347 240.921C139.1 240.846 138.861 240.764 138.598 240.749C138.391 240.735 138.187 240.787 137.978 240.814C137.785 240.839 137.594 240.814 137.402 240.874C137.365 240.885 137.34 240.915 137.304 240.928C137.268 240.939 137.232 240.933 137.196 240.946C137.014 241.015 136.885 241.149 136.722 241.246C136.531 241.36 136.328 241.452 136.166 241.598C135.999 241.748 135.885 241.932 135.754 242.11C135.63 242.278 135.491 242.428 135.4 242.614C135.304 242.81 135.269 243.023 135.213 243.233C135.158 243.439 135.085 243.632 135.071 243.847C135.056 244.063 135.109 244.278 135.138 244.498C135.163 244.687 135.137 244.875 135.196 245.063C138.837 256.81 147.597 270.786 154.457 280.631C148.74 276.225 144.537 271.46 143.318 270.021C143.187 269.864 143.057 269.707 142.926 269.55C141.746 268.131 139.661 267.929 138.232 269.086C136.807 270.25 136.585 272.341 137.735 273.773C137.797 273.851 138.049 274.165 138.467 274.655C143.487 280.63 148.959 286.206 153.914 290.913L147.135 288.024C145.589 287.357 143.772 287.959 142.925 289.429C142.078 290.899 142.461 292.763 143.817 293.783C144.477 294.273 156.482 303.242 166.876 308.544C165.895 308.603 164.745 308.531 163.457 308.433C161.885 308.283 160.339 309.407 159.956 311.002C159.58 312.604 160.417 314.238 161.937 314.865C162.192 314.97 165.359 316.277 169.272 317.669C168.36 318.042 167.634 318.806 167.334 319.8C166.883 321.284 167.517 322.892 168.864 323.663C169.214 323.866 173.947 326.579 179.8 328.984C179.643 329.226 179.516 329.487 179.421 329.775C178.963 331.18 179.486 332.723 180.706 333.566C181.722 334.265 204.455 349.693 231.005 349.693C232.747 349.693 234.509 349.628 236.28 349.484C238.12 349.34 239.496 347.726 239.349 345.882C239.202 344.039 237.604 342.646 235.744 342.816C219.065 344.176 202.997 337.913 193.44 333.128C194.702 332.821 195.427 332.54 195.607 332.468C197.081 331.867 197.931 330.317 197.643 328.755C197.355 327.193 196.009 326.049 194.417 326.016C190.537 325.938 185.164 324.048 180.536 322.022C182.285 321.146 183.304 320.309 183.396 320.237C184.403 319.394 184.828 318.047 184.484 316.779C184.138 315.517 183.085 314.569 181.791 314.36C180.369 314.125 178.598 313.667 176.741 313.105C178.545 312.066 179.313 310.922 179.607 310.34C180.071 309.412 180.081 308.327 179.636 307.392C179.188 306.457 178.335 305.784 177.322 305.568C176.446 305.378 175.456 305.058 174.384 304.64C174.58 304.444 174.76 304.222 174.907 303.967C175.76 302.522 175.407 300.666 174.083 299.626C174.014 299.574 171.416 297.534 167.484 294.141C168.108 293.912 168.661 293.487 169.059 292.912C169.902 291.696 169.843 290.068 168.918 288.918C168.844 288.826 166.242 285.555 162.657 280.587C163.84 281.506 165.024 282.445 166.205 283.204C166.761 283.557 167.391 283.733 168.016 283.733C168.863 283.733 169.699 283.413 170.343 282.792C170.608 282.536 170.815 282.241 170.978 281.927C173.008 284.096 175.142 286.066 177.383 287.747C177.676 287.966 178.029 287.961 178.358 288.071C179.307 289.662 180.296 291.258 181.332 292.852C201.656 324.124 230.313 340.874 264.685 341.88C261.52 343.802 258.085 345.788 252.644 347.906C251.457 348.368 250.408 348.833 249.352 349.297C248.843 349.397 248.365 349.581 247.966 349.897C238.471 354.293 234.54 358.635 232.944 361.673C231.352 364.693 232.725 367.792 234.67 369.4C235.275 369.897 236.043 370.152 236.814 370.152C237.343 370.152 237.873 370.034 238.353 369.792C239.536 369.204 240.327 367.955 240.275 366.641C240.412 366.491 240.994 366.007 242.818 365.948C244.148 365.837 246.946 366.138 250.211 366.399C253.317 366.655 257.043 366.945 261.005 367.149C258.527 370.038 255.646 373.387 255.646 373.387C254.78 374.394 254.59 375.819 255.166 377.015C255.745 378.218 256.99 378.963 258.297 378.917C260.941 378.825 262.739 378.773 263.919 378.747C264.949 380.094 266.21 380.63 267.024 380.839C269.325 381.427 271.619 380.506 273.349 379.414C274.656 380.355 275.964 380.754 277 380.904C279.337 381.224 281.501 380.544 283.066 379.773C284.687 380.819 286.276 381.087 287.485 381.087C287.501 381.087 287.521 381.087 287.541 381.087C290.153 381.074 292.437 379.812 294.055 378.577C295.483 379.427 296.85 379.701 297.905 379.747C300.301 379.832 302.288 378.91 303.609 378.047C308.325 378.995 312.391 376.772 315.078 374.321C316.304 375.034 317.471 375.21 318.399 375.164C320.788 375.079 322.609 373.628 323.776 372.327C329.123 372.974 332.96 371.987 335.18 369.353C336.389 367.921 336.88 366.307 337.014 364.836C351.85 364.751 353.193 356.652 353.301 355.652C353.399 354.743 353.121 353.835 352.53 353.135C351.942 352.436 351.089 352.004 350.177 351.952L311.282 349.612C309.654 349.494 308.203 350.586 307.824 352.175C307.817 352.201 307.154 354.672 305.078 356.646C302.286 359.311 297.791 360.72 292.9 361.465C292.919 361.017 292.855 360.561 292.683 360.117C292.016 358.391 290.075 357.554 288.356 358.202C280.326 361.318 267.325 360.926 257.154 360.218C258.715 358.942 260.592 357.681 262.093 356.856C263.361 356.157 264.041 354.725 263.773 353.3C263.578 352.266 262.83 351.545 261.927 351.082C264.756 349.654 267.074 348.275 269.274 346.933C273.092 344.593 276.7 342.39 283.27 340.108C295.952 335.702 310.627 334.362 310.774 334.349C311.107 334.323 311.434 334.238 311.745 334.114C312.268 333.898 353.664 316.556 373.167 276.543C372.912 277.752 372.638 278.857 372.34 279.825C371.83 281.472 372.654 283.231 374.242 283.898C375.471 284.414 376.867 284.146 377.811 283.27C376.579 286.519 375.464 289.075 374.556 290.585C373.628 292.121 374.076 294.115 375.569 295.109C375.919 295.338 376.295 295.495 376.68 295.586C375.17 297.796 373.64 299.887 372.114 301.803C371.098 303.078 371.156 304.895 372.219 306.098C369.598 308.844 367.274 311.105 365.509 312.543C364.355 313.478 363.979 315.04 364.509 316.374C362.806 317.348 361.407 318.034 360.436 318.329C358.808 318.819 357.808 320.46 358.115 322.134C358.275 323.016 358.772 323.762 359.458 324.252C357.412 324.801 355.173 325.331 352.741 325.814C351.371 326.089 350.316 327.18 350.09 328.56C349.868 329.939 350.521 331.312 351.734 332.005C351.839 332.064 352.983 332.711 354.731 333.456C348.256 336.064 336.695 339.47 317.725 341.34C315.888 341.523 314.541 343.164 314.725 345.001C314.905 346.838 316.493 348.113 318.386 348.008C354.398 344.445 365.518 335.431 365.972 335.045C367.011 334.176 367.423 332.757 367.011 331.463C366.736 330.607 366.135 329.914 365.364 329.515C376.869 325.894 381.808 321.886 382.066 321.671C383.328 320.625 383.645 318.814 382.814 317.396C381.977 315.977 380.235 315.363 378.715 315.977C378.287 316.14 377.604 316.31 376.741 316.48C384.461 311.192 392.659 304.896 396.264 302.086C396.898 301.615 397.473 301.164 397.98 300.739C399.379 299.562 399.575 297.484 398.421 296.065C397.274 294.653 395.185 294.418 393.754 295.549C393.231 295.961 392.688 296.386 392.126 296.824C390.462 298.06 388.335 299.458 386.014 300.897C394.777 290.948 403.599 280.162 406.119 277.063C406.348 276.782 406.573 276.501 406.802 276.22C407.959 274.782 407.734 272.677 406.295 271.52C404.854 270.343 402.745 270.585 401.592 272.017L401.585 272.024L401.582 272.031C401.52 272.103 401.236 272.456 400.758 273.044C398.117 276.267 395.339 279.385 392.597 282.3C401.523 266.121 408.283 250.197 409.273 247.837C409.309 247.752 409.342 247.667 409.378 247.582C410.09 245.879 409.283 243.918 407.576 243.212ZM250.706 356.033L251.62 356.151C250.499 357.199 249.587 358.374 248.862 359.586C247.272 359.458 245.831 359.347 244.701 359.295C246.258 358.279 248.262 357.175 250.706 356.033Z" fill="#FFE15A"/>
</g>
<defs>
<clipPath id="clip0_3210_7862">
<rect width="512" height="512" rx="256" fill="white"/>
</clipPath>
</defs>
</svg>
