<?xml version="1.0" encoding="utf-8"?>
<svg width="512" height="512" viewBox="0 0 512 512" fill="none" xmlns="http://www.w3.org/2000/svg">
  <g clip-path="url(#clip0_3209_7783)">
    <path d="M512 0H0V512H512V0Z" fill="#E6B432"/>
    <path d="M481 260.055V251.945C481 127.681 380.264 26.9453 256 26.9453C131.736 26.9453 31 127.681 31 251.945V260.055C31 384.319 131.736 485.055 256 485.055C380.264 485.055 481 384.32 481 260.055Z" fill="#C8414B"/>
    <path d="M366.55 361.014C377.874 361.014 387.054 351.834 387.054 340.51C387.054 329.186 377.874 320.006 366.55 320.006C355.226 320.006 346.046 329.186 346.046 340.51C346.046 351.834 355.226 361.014 366.55 361.014Z" fill="#41479B"/>
    <path d="M402.532 222.79C387.442 235.476 377.294 236.01 377.294 236.01C404.135 225.06 401.33 204.229 401.33 204.229C388.644 220.921 375.691 225.595 375.691 225.595C402.665 207.301 398.392 182.73 398.392 182.73C389.579 202.226 378.429 209.838 378.429 209.838C400.863 179.993 389.846 160.764 389.846 160.764C381.033 188.406 373.621 196.418 373.621 196.418C390.847 150.348 376.092 137.061 376.092 137.061C376.092 161.765 366.878 175.92 366.878 175.92C376.493 143.337 361.403 124.642 361.403 124.642C361.403 124.642 361.262 151.205 356.145 165.12C354.917 163.256 354.192 163.501 354.192 163.501C351.591 180.564 342.421 192.575 338.462 197.096C337.583 192.843 334.939 191.541 334.939 191.541C334.939 191.541 334.462 195.716 330.716 201.872C328.262 205.905 316.668 215.312 314.799 223.591C313.3 230.229 319.873 235.743 322.01 237.078C324.146 238.413 326.417 240.817 325.482 244.69C324.547 248.562 317.604 248.162 312.663 248.028C307.722 247.895 307.055 256.04 301.58 255.773L300.652 261.848L298.509 262.317C298.509 262.317 276.075 307.021 274.165 322.233L257.647 324.411L241.129 322.233C239.219 307.021 216.785 262.317 216.785 262.317L214.642 261.848L213.714 255.773C208.239 256.04 207.571 247.895 202.631 248.028C197.69 248.161 190.746 248.562 189.812 244.69C188.877 240.817 191.147 238.414 193.284 237.078C195.421 235.742 201.994 230.229 200.495 223.591C198.626 215.312 187.032 205.905 184.578 201.872C180.832 195.716 180.355 191.541 180.355 191.541C180.355 191.541 177.711 192.843 176.832 197.096C172.873 192.575 163.703 180.563 161.102 163.501C161.102 163.501 160.377 163.256 159.149 165.12C154.033 151.205 153.891 124.642 153.891 124.642C153.891 124.642 138.801 143.337 148.416 175.92C148.416 175.92 139.202 161.765 139.202 137.061C139.202 137.061 124.446 150.348 141.673 196.418C141.673 196.418 134.262 188.406 125.448 160.764C125.448 160.764 114.431 179.993 136.865 209.838C136.865 209.838 125.715 202.226 116.902 182.73C116.902 182.73 112.629 207.3 139.603 225.595C139.603 225.595 126.65 220.921 113.964 204.229C113.964 204.229 111.16 225.061 138 236.01C138 236.01 127.851 235.476 112.762 222.79C112.762 222.79 110.092 241.218 145.078 250.699C145.078 250.699 130.79 250.432 116.234 240.684C116.234 240.684 115.833 258.845 145.745 262.45C145.745 262.45 135.863 263.919 124.78 259.913C124.78 259.913 125.181 274.602 151.22 276.471C151.22 276.471 140.938 277.272 134.261 275.67C134.261 275.67 134.929 290.76 155.493 288.222C155.493 288.222 148.549 290.492 146.279 291.16C146.279 291.16 146.68 303.479 168.112 299.072C168.112 299.072 164.306 301.442 159.098 302.243C159.098 302.243 163.505 312.525 181.399 307.985L177.727 311.991C177.727 311.991 191.548 320.003 202.164 308.986L198.358 315.796C198.358 315.796 207.372 319.201 212.98 310.388C212.98 310.388 211.444 323.608 192.749 326.012C192.749 326.012 193.417 328.816 194.218 329.884C194.218 329.884 193.016 332.154 182.2 334.024C182.2 334.024 184.47 337.496 186.873 338.564C186.873 338.564 182.2 342.57 179.662 343.371C179.662 343.371 183.668 345.374 186.206 345.775C186.206 345.775 180.598 351.25 173.653 351.383C166.709 351.516 154.29 350.715 154.29 350.715C154.29 350.715 154.157 344.038 150.952 338.296C147.747 332.554 146.679 332.12 146.679 332.12C146.679 332.12 147.38 327.513 145.377 325.61C143.374 323.707 142.272 322.806 142.272 322.806C142.272 322.806 143.34 313.592 140.402 307.85C137.464 302.108 127.049 289.556 126.515 280.208C125.981 270.861 126.381 267.389 126.381 267.389L123.176 268.19L121.04 263.783L124.645 263.382L123.176 256.705L118.235 258.574L117.567 252.832L111.692 255.236L114.63 260.444L109.422 261.913L112.493 268.055L116.499 265.518L117.567 270.859C117.567 270.859 115.163 271.393 113.828 273.53C113.828 273.53 120.435 277.916 122.374 283.145C125.445 291.424 124.511 310.119 128.918 315.728C133.325 321.336 136.796 325.209 136.796 325.209C136.796 325.209 135.561 329.015 136.963 331.118C138.365 333.221 140.368 333.822 140.368 333.822C140.368 333.822 139.166 342.335 142.271 347.943C145.376 353.551 147.178 354.954 147.178 354.954C147.178 354.954 135.861 361.864 143.873 369.877C143.873 369.877 142.805 377.154 150.416 378.891C150.416 378.891 150.817 384.633 157.36 383.965C157.36 383.965 160.565 383.03 161.366 384.633C162.167 386.235 161.366 395.449 161.366 395.449C161.366 395.449 164.304 395.182 166.173 393.847L172.048 396.785L172.182 390.242L179.526 387.304C179.526 387.304 176.321 387.838 169.778 381.696C169.778 381.696 170.846 381.028 171.647 375.82C171.647 375.82 176.855 371.681 177.923 368.342C178.991 365.004 186.336 357.659 194.882 355.256L196.051 360.464C196.051 360.464 208.269 349.648 213.377 349.047L217.583 354.589C217.583 354.589 233.34 331.22 240.284 327.081C239.75 328.95 243.622 329.218 235.009 338.832C226.396 348.447 231.737 356.058 231.737 356.058C226.396 360.465 227.464 364.471 226.796 369.011C226.128 373.551 208.368 385.302 208.368 385.302C213.976 392.379 220.253 390.777 220.253 390.777C216.781 393.047 217.849 400.659 217.849 400.659C222.923 401.994 227.998 399.724 227.998 399.724C226.262 404.531 228.933 407.87 228.933 407.87C232.138 405.867 239.483 404.665 239.483 404.665C238.548 412.944 243.89 417.351 243.89 417.351L248.563 412.277C249.364 421.624 257.644 426.966 257.644 426.966C257.644 426.966 265.923 421.624 266.725 412.277L271.398 417.351C271.398 417.351 276.74 412.944 275.805 404.665C275.805 404.665 283.15 405.867 286.355 407.87C286.355 407.87 289.025 404.532 287.29 399.724C287.29 399.724 292.364 401.994 297.439 400.659C297.439 400.659 298.507 393.047 295.035 390.777C295.035 390.777 301.311 392.379 306.92 385.302C306.92 385.302 289.16 373.551 288.492 369.011C287.824 364.471 288.893 360.465 283.551 356.058C283.551 356.058 288.892 348.446 280.279 338.832C271.666 329.217 275.538 328.95 275.004 327.081C281.948 331.221 297.705 354.589 297.705 354.589L301.911 349.047C307.019 349.648 319.237 360.464 319.237 360.464L320.406 355.256L320.626 355.016C326.997 358.446 337.519 363.087 341.772 366.339C346.312 369.811 350.051 370.078 361.001 366.339C371.951 362.6 392.324 356.85 389.311 350.048C389.147 349.677 388.96 349.428 388.781 349.139C389.26 347.382 389.456 344.316 386.24 341.635C386.24 341.635 386.278 342.382 386.252 343.339L375.813 339.449C375.467 338.526 374.952 337.62 373.955 336.828C373.955 336.828 373.971 337.63 373.827 338.709L371.149 337.711L376.492 322.678C376.088 322.452 375.633 322.326 375.214 322.128C375.322 320.767 375.58 318.884 375.976 316.917C377.281 317.373 378.473 317.937 379.337 318.644L380.845 313.139C380.845 313.139 379.224 313.033 377.084 312.633C377.625 310.973 378.265 309.482 379.027 308.519L371.95 306.382C371.95 306.382 372.133 308.526 372.007 311.203C370.657 310.655 369.367 309.959 368.326 309.067L366.667 315.175C367.237 315.209 369.169 315.376 371.408 315.774C371.004 317.567 370.292 319.158 369.269 320.352C369.016 320.318 368.784 320.228 368.528 320.203L363.339 334.802L349.266 329.557C348.662 330.507 348.198 331.541 347.762 332.589C347.837 332.436 347.903 332.199 347.982 332.102C347.982 332.102 342.537 334.949 342.612 339.133C341.61 339.514 340.731 340.266 340.235 341.569C338.633 345.775 348.447 355.19 346.044 356.391C343.685 357.571 331.355 347.416 329.38 345.711C331.921 345.217 335.628 343.371 335.628 343.371C333.091 342.57 328.417 338.564 328.417 338.564C330.821 337.496 333.09 334.024 333.09 334.024C322.274 332.154 321.072 329.884 321.072 329.884C321.873 328.816 322.541 326.012 322.541 326.012C303.846 323.608 302.31 310.388 302.31 310.388C307.918 319.201 316.932 315.796 316.932 315.796L313.126 308.986C323.742 320.003 337.563 311.991 337.563 311.991L333.891 307.985C351.785 312.525 356.192 302.243 356.192 302.243C350.984 301.442 347.178 299.072 347.178 299.072C368.61 303.479 369.011 291.16 369.011 291.16C366.741 290.492 359.797 288.222 359.797 288.222C380.361 290.759 381.029 275.67 381.029 275.67C374.352 277.272 364.07 276.471 364.07 276.471C390.109 274.601 390.51 259.913 390.51 259.913C379.426 263.919 369.545 262.45 369.545 262.45C399.457 258.845 399.056 240.684 399.056 240.684C384.501 250.432 370.212 250.699 370.212 250.699C405.202 241.218 402.532 222.79 402.532 222.79ZM372.186 354.89C370.76 352.572 374.16 350.502 375.691 348.295L381.609 350.5C379.598 352.895 373.656 357.279 372.186 354.89ZM368.231 345.515C366.312 348.489 364.976 351.826 359.066 351.985C351.655 352.185 350.453 345.575 348.851 341.97C348.384 340.919 347.578 340.125 346.653 339.581C346.649 338.935 346.684 338.223 346.741 337.506L368.231 345.515Z" fill="#E6B432"/>
    <path d="M255.442 204.429C255.442 204.429 245.928 196.317 243.123 191.91C243.123 191.91 246.328 190.608 247.93 188.605C247.93 188.605 239.317 183.998 234.71 179.291C234.71 179.291 237.715 178.79 240.018 176.887C240.018 176.887 232.283 175.49 228.36 169.155C237.304 166.102 234.31 157.758 234.31 157.758C232.507 160.162 225.096 163.166 217.084 159.761C209.072 156.356 200.259 158.759 200.259 163.166C200.259 163.166 182.232 157.958 186.739 175.385C186.739 175.385 189.643 168.875 196.053 171.279C202.463 173.683 208.973 181.895 208.973 181.895C208.973 181.895 204.967 184.098 197.556 181.695C197.556 181.695 200.561 193.212 214.081 187.404C214.081 187.404 219.422 190.275 219.689 198.687C219.689 198.687 221.959 197.485 223.428 194.815C223.428 194.815 225.565 202.961 222.761 209.637C222.761 209.637 226.5 208.969 227.702 207.767C227.702 207.767 228.77 214.844 224.097 220.586C224.097 220.586 244.628 230.368 257.648 219.651C257.648 219.651 252.741 214.043 251.138 208.835C251.136 208.836 253.84 207.734 255.442 204.429Z" fill="#E6B432"/>
    <path d="M315.032 163.167C315.032 158.76 306.219 156.357 298.207 159.762C290.195 163.167 282.784 160.163 280.981 157.759C280.981 157.759 277.987 166.103 286.931 169.156C283.008 175.491 275.273 176.888 275.273 176.888C277.576 178.791 280.581 179.292 280.581 179.292C275.974 183.999 267.361 188.606 267.361 188.606C268.963 190.609 272.168 191.911 272.168 191.911C269.364 196.318 259.849 204.43 259.849 204.43C261.451 207.735 264.156 208.837 264.156 208.837C262.554 214.045 257.646 219.653 257.646 219.653C270.666 230.369 291.197 220.588 291.197 220.588C286.523 214.846 287.592 207.769 287.592 207.769C288.794 208.971 292.533 209.639 292.533 209.639C289.729 202.962 291.866 194.817 291.866 194.817C293.335 197.487 295.605 198.689 295.605 198.689C295.872 190.276 301.213 187.406 301.213 187.406C314.733 193.215 317.738 181.697 317.738 181.697C310.327 184.101 306.321 181.897 306.321 181.897C306.321 181.897 312.831 173.685 319.241 171.281C325.651 168.877 328.555 175.387 328.555 175.387C333.059 157.959 315.032 163.167 315.032 163.167Z" fill="#E6B432"/>
    <path d="M306.87 269.56C305.112 259.325 303.597 250.485 308.012 240.356L308.835 238.464L291.349 218.384L289.282 219.073C289.103 219.134 270.826 225.109 259.108 219.248L257.647 218.517L256.186 219.248C244.522 225.093 226.197 219.133 226.008 219.069L223.941 218.386L206.458 238.463L207.281 240.355C211.696 250.484 210.181 259.325 208.423 269.559C206.767 279.223 204.888 290.178 208.193 303.539C211.782 318.042 223.864 323.198 234.523 327.751C242.738 331.257 250.497 334.569 254.884 341.521L257.647 345.901L260.41 341.521C264.797 334.569 272.556 331.258 280.771 327.751C291.43 323.198 303.512 318.043 307.101 303.539C310.405 290.179 308.525 279.224 306.87 269.56ZM214.059 239.679L226.061 225.9C231.497 227.393 246.192 230.628 257.645 225.766C269.095 230.628 283.79 227.393 289.229 225.9L301.231 239.679C297.017 250.778 298.676 260.455 300.427 270.664C301.738 278.313 303.042 286.194 301.948 295.27H213.342C212.247 286.194 213.552 278.313 214.863 270.664C216.615 260.455 218.274 250.778 214.059 239.679ZM278.204 321.741C270.777 324.912 263.136 328.173 257.645 334.362C252.154 328.173 244.513 324.912 237.086 321.741C226.664 317.291 217.672 313.402 214.708 302.482H300.581C297.618 313.402 288.627 317.291 278.204 321.741Z" fill="#E6B432"/>
    <path d="M214.059 239.679L226.061 225.9C231.497 227.393 246.192 230.628 257.645 225.766C269.095 230.628 283.79 227.393 289.229 225.9L301.231 239.679C297.017 250.778 298.676 260.455 300.427 270.664C301.738 278.313 303.042 286.194 301.948 295.27H213.342C212.247 286.194 213.552 278.313 214.863 270.664C216.615 260.455 218.274 250.778 214.059 239.679Z" fill="#41479B"/>
    <path d="M214.248 300.577C214.351 301.046 214.417 301.496 214.535 301.971C217.343 313.313 226.492 317.218 237.088 321.742C244.515 324.913 252.156 328.174 257.647 334.363C263.138 328.174 270.778 324.913 278.206 321.742C288.801 317.218 297.951 313.313 300.759 301.971C300.877 301.496 300.942 301.045 301.046 300.577H214.248Z" fill="#73AF00"/>
    <path d="M296.849 262.701C296.849 256.793 291.234 255.861 286.129 255.963C281.024 256.065 273.556 255.132 273.368 251.165C273.25 248.691 277.401 248.46 280.106 249.327C281.676 249.83 291.438 251.573 294.501 245.039C294.501 245.039 290.93 245.154 287.164 244.309C284.26 243.657 272.348 245.141 270.204 249.735C268.06 254.329 274.974 258.914 282.937 258.914C290.9 258.914 291.993 260.508 291.931 262.45C291.849 265.001 285.535 265.724 281.905 265.69C276.193 263.615 262.861 265.241 262.798 264.987C262.721 264.68 259.723 259.53 259.723 259.53C259.723 259.53 265.181 259.146 265.873 258.146C266.565 257.147 261.732 253.309 261.732 253.309C261.732 253.309 265.796 251.689 265.95 250.536C266.119 249.268 262.651 246.265 262.651 246.265C262.651 246.265 263.991 244.944 264.999 242.692C265.72 241.081 259.997 240.65 259.997 240.65C260.303 239.425 260.186 238.237 258.67 237.689C257.498 237.266 253.157 238.914 250.196 238.914C247.235 238.914 246.112 241.058 246.112 241.058C246.112 241.058 240.905 241.671 240.191 242.283C239.476 242.896 240.395 246.877 240.395 246.877C237.741 246.469 236.516 244.121 236.516 244.121C235.189 250.144 241.416 250.757 241.416 250.757L242.437 254.024C242.437 254.024 242.437 254.024 244.989 254.33C247.541 254.636 246.316 257.086 242.335 257.086C238.353 257.086 236.663 261.835 236.663 261.835C233.896 261.912 232.358 259.683 231.743 256.839C231.066 253.708 231.465 248.899 231.974 245.847C232.589 242.157 230.744 241.081 230.744 241.081L229.514 244.156C229.437 241.004 226.67 240.697 226.67 240.697L226.209 244.541C224.825 242.004 222.442 243.157 222.442 243.157C222.442 243.157 224.748 251.459 224.671 251.92C224.594 252.381 223.826 252.765 222.749 251.613C221.673 250.46 220.904 251.229 220.904 251.229C222.057 259.531 226.509 258.313 226.509 258.313C226.509 258.313 226.708 260.913 228.052 266.193C229.487 271.83 235.391 270.768 235.391 270.768C235.391 272.606 236.82 275.26 237.229 281.385C237.637 287.51 232.022 291.798 232.022 291.798C226.917 291.696 227.428 296.698 227.428 296.698H241.517C241.517 283.671 247.116 281.437 247.116 281.437C255.418 281.821 263.412 278.362 263.412 278.362C262.182 283.358 264.335 285.434 264.335 285.434C267.717 284.973 266.026 291.66 265.026 291.66C264.027 291.66 261.951 291.66 260.721 291.66C259.491 291.66 255.955 295.504 255.955 295.504H270.56C270.56 295.504 272.789 292.275 273.558 290.661C274.326 289.047 271.867 286.817 271.713 285.126C271.559 283.435 274.25 282.359 274.25 282.359C277.094 286.356 283.628 286.587 283.628 286.587L283.474 283.589C283.474 283.589 286.856 284.742 287.625 285.741C288.393 286.74 288.24 291.352 284.166 291.891C280.092 292.429 279.784 295.35 279.784 295.35C279.784 295.35 289.085 295.35 290.93 295.35C292.775 295.35 294.235 291.891 294.235 290.584C294.235 289.277 294.235 280.745 294.235 278.9C294.235 277.055 292.698 277.286 289.085 276.902C285.803 276.553 286.117 272.963 284.765 268.795C289.512 268.634 296.849 267.596 296.849 262.701Z" fill="#E6B432"/>
    <path d="M295.984 123.015C295.07 114.954 288.644 104.69 264.169 99.8788C264.088 97.2788 262.488 95.0738 260.202 94.1458V89.6548H264.208V84.8478H260.202V80.8418H255.395V84.8478H251.389V89.6548H255.395V94.1458C253.109 95.0738 251.509 97.2788 251.428 99.8788C226.953 104.69 220.527 114.954 219.613 123.015C218.473 133.066 225.671 142.596 232.16 146.249V151.349H283.438V146.249C289.926 142.597 297.124 133.066 295.984 123.015ZM269.141 138.529H261.964V108.967C267.88 111.639 271.54 115.738 272.605 121.366C273.932 128.375 271.13 135.521 269.141 138.529ZM242.991 121.363C244.056 115.735 247.716 111.637 253.632 108.966V138.53H246.454C244.463 135.521 241.662 128.372 242.991 121.363ZM237.058 113.244C235.879 115.605 235.129 117.967 234.745 120.136C233.584 126.703 234.915 133.376 237.112 138.529H235.427C231.832 136.053 227.212 129.964 227.893 123.954C228.37 119.751 231.556 116.143 237.058 113.244ZM280.169 138.529H278.482C280.68 133.377 282.011 126.704 280.852 120.139C280.468 117.969 279.717 115.605 278.537 113.243C284.039 116.142 287.227 119.751 287.703 123.954C288.384 129.964 283.764 136.053 280.169 138.529Z" fill="#E6B432"/>
  </g>
  <defs>
    <clipPath id="clip0_3209_7783">
      <rect width="512" height="512" rx="256" fill="white"/>
    </clipPath>
  </defs>
</svg>