<svg width="26" height="26" viewBox="0 0 26 26" fill="none" xmlns="http://www.w3.org/2000/svg">
<g clip-path="url(#clip0_4444_17)">
<path d="M28.8483 0H0.848343C-0.212523 0 -1.22994 0.421427 -1.98008 1.17157C-2.73023 1.92172 -3.15166 2.93913 -3.15166 4L-3.15166 7H32.8483V4C32.8483 2.93913 32.4269 1.92172 31.6768 1.17157C30.9266 0.421427 29.9092 0 28.8483 0Z" fill="#141414"/>
<path d="M-4.30499 22C-4.30499 23.0609 -3.88357 24.0783 -3.13342 24.8284C-2.38327 25.5786 -1.36586 26 -0.304993 26H27.695C28.7559 26 29.7733 25.5786 30.5234 24.8284C31.2736 24.0783 31.695 23.0609 31.695 22V19H-4.30499V22Z" fill="#078930"/>
<path d="M-1 7H35V19H-1V7Z" fill="#DA121A"/>
<path d="M-1 7H35V9H-1V7ZM-1 17H35V19H-1V17Z" fill="#EEEEEE"/>
<path d="M-0.43316 -0.322571C-1.30241 0.491489 -1.84976 1.68093 -1.84976 3.30127V23.2918C-1.84976 24.3202 -1.30241 25.5097 -0.43316 26.3226L16.5 13L-0.43316 -0.322571Z" fill="#0F47AF"/>
<path d="M7.249 12.917L9.026 10.471L6.151 11.405L4.375 8.96002V11.983L1.5 12.917L4.375 13.851V16.873L6.151 14.428L9.026 15.362L7.249 12.917Z" fill="#FCDD09"/>
</g>
<defs>
<clipPath id="clip0_4444_17">
<rect width="26" height="26" fill="white"/>
</clipPath>
</defs>
</svg>
