<svg xmlns="http://www.w3.org/2000/svg"  fill="none" viewBox="0 0 24 24">
  <g class="Iconz/analytics">
    <path stroke="currentColor" stroke-linecap="round" stroke-linejoin="round"   d="m21 3-1.855 1.679M6 18l1.85-5.06M3 3v15a3 3 0 0 0 3 3h15m-8.302-6.421L9.28 12.465m8.42-5.793-3.18 7.176M19.5 5.55a1.25 1.25 0 1 1-2.499 0 1.25 1.25 0 0 1 2.499 0Zm-4.354 9.38a1.25 1.25 0 1 1-2.498 0 1.25 1.25 0 0 1 2.498 0Zm-5.644-3.174a1.25 1.25 0 1 1-2.499 0 1.25 1.25 0 0 1 2.499 0Z" class="iconz"/>
  </g>
</svg>
