<svg  viewBox="0 0 24 24" fill="none" xmlns="http://www.w3.org/2000/svg">
    <path fill="currentColor" d="M5.323 17.177a.75.75 0 1 0 1.354.645l-1.354-.645ZM17.927 6.572a.75.75 0 1 0-1.354-.644l1.354.644Zm-2.23 2.939-.677-.323.677.323Zm-5.01 2.477-.089-.745.09.745ZM6.5 3.25h11v-1.5h-11v1.5ZM20.75 6.5v11h1.5v-11h-1.5ZM17.5 20.75h-11v1.5h11v-1.5ZM3.25 17.5v-11h-1.5v11h1.5Zm3.427.322 1.553-3.26-1.355-.645-1.552 3.26 1.354.645Zm4.1-5.09 1.875-.225-.179-1.49-1.875.226.179 1.49Zm5.597-2.899 1.553-3.26-1.354-.645-1.553 3.26 1.354.645Zm.876-3.583v1.5a1.5 1.5 0 0 0 1.5-1.5h-1.5Zm0 0h-1.5a1.5 1.5 0 0 0 1.5 1.5v-1.5Zm0 0v-1.5a1.5 1.5 0 0 0-1.5 1.5h1.5Zm0 0h1.5a1.5 1.5 0 0 0-1.5-1.5v1.5Zm-2.5 5.25V13a1.5 1.5 0 0 0 1.5-1.5h-1.5Zm0 0h-1.5a1.5 1.5 0 0 0 1.5 1.5v-1.5Zm0 0V10a1.5 1.5 0 0 0-1.5 1.5h1.5Zm0 0h1.5a1.5 1.5 0 0 0-1.5-1.5v1.5Zm-6.25.75v1.5a1.5 1.5 0 0 0 1.5-1.5H8.5Zm0 0H7a1.5 1.5 0 0 0 1.5 1.5v-1.5Zm0 0v-1.5a1.5 1.5 0 0 0-1.5 1.5h1.5Zm0 0H10a1.5 1.5 0 0 0-1.5-1.5v1.5ZM6 17.5V19a1.5 1.5 0 0 0 1.5-1.5H6Zm0 0H4.5A1.5 1.5 0 0 0 6 19v-1.5Zm0 0V16a1.5 1.5 0 0 0-1.5 1.5H6Zm0 0h1.5A1.5 1.5 0 0 0 6 16v1.5Zm6.652-4.993a4.75 4.75 0 0 0 3.722-2.674l-1.354-.645a3.25 3.25 0 0 1-2.547 1.83l.179 1.49ZM6.5 20.75a3.25 3.25 0 0 1-3.25-3.25h-1.5a4.75 4.75 0 0 0 4.75 4.75v-1.5Zm14.25-3.25a3.25 3.25 0 0 1-3.25 3.25v1.5a4.75 4.75 0 0 0 4.75-4.75h-1.5ZM17.5 3.25a3.25 3.25 0 0 1 3.25 3.25h1.5a4.75 4.75 0 0 0-4.75-4.75v1.5ZM8.23 14.562a3.25 3.25 0 0 1 2.547-1.83l-.179-1.49a4.75 4.75 0 0 0-3.723 2.675l1.355.645ZM6.5 1.75A4.75 4.75 0 0 0 1.75 6.5h1.5A3.25 3.25 0 0 1 6.5 3.25v-1.5Z"/>
</svg>
