<svg  viewBox="0 0 24 24" fill="none" xmlns="http://www.w3.org/2000/svg">
<path d="M14.6338 5.29783C15.248 4.47828 15.76 3.35117 15.5555 2.22229C14.5307 2.32451 13.4044 2.93962 12.6862 3.76006C12.072 4.5805 11.5591 5.60539 11.7645 6.73338C12.8916 6.8356 14.0187 6.11827 14.6338 5.29783ZM20 16.856C19.5902 17.7796 19.2826 18.2916 18.7706 19.112C17.9511 20.24 16.9262 21.7778 15.4907 21.7778C14.8773 21.7778 14.5689 21.6755 14.1591 21.4702C13.6471 21.2658 13.2373 21.0604 12.3147 21.0604C11.4951 21.0604 10.9831 21.2649 10.4711 21.4702C10.0605 21.5724 9.75379 21.7778 9.13868 21.7778C7.80624 21.7778 6.78225 20.4444 5.85959 19.2142C3.70848 15.9342 3.50315 11.9343 4.8347 9.88448C5.75736 8.34671 7.29425 7.52627 8.72802 7.52627C9.44624 7.52627 10.0613 7.73071 10.6747 7.93604H10.6756C11.2907 8.14138 11.7005 8.34671 12.3147 8.34671C12.8276 8.34671 13.2373 8.24449 13.7493 8.03916C14.3644 7.83471 14.9795 7.62849 15.9013 7.62849C17.2338 7.62849 18.5653 8.24449 19.488 9.47471C16.3111 11.1147 16.824 15.6258 20 16.856Z" stroke="currentColor" stroke-linecap="round" stroke-linejoin="round"/>
</svg>
