<svg  viewBox="0 0 24 24" fill="none" xmlns="http://www.w3.org/2000/svg">
<path d="M22.1757 5.01744C22.3206 5.63878 22.3904 6.27529 22.3834 6.91328H22.386C22.3886 10.2011 22.3869 13.4864 22.3886 16.776C22.3895 17.3664 22.3678 17.9576 22.27 18.542C22.2034 18.935 22.1107 19.3245 21.9497 19.6881C21.6056 20.4704 21.0398 21.1346 20.3222 21.5987C19.7171 21.9969 19.0471 22.2081 18.3355 22.2999C17.8846 22.3561 17.4308 22.385 16.9764 22.3864H7.42794C6.94576 22.3864 6.46531 22.3804 5.98485 22.3345C5.60655 22.299 5.22912 22.2471 4.86553 22.1371C3.57047 21.7493 2.62861 20.9416 2.06592 19.7124C1.76899 19.064 1.67896 18.3636 1.63568 17.6581L1.6123 17.291V6.70984C1.6149 6.68301 1.62096 6.65704 1.62096 6.62934C1.63145 6.28753 1.66035 5.94653 1.70753 5.60783C1.76899 5.18971 1.85556 4.77678 2.02177 4.38896C2.51088 3.23933 3.3454 2.44118 4.50194 1.98237C5.11052 1.74257 5.75372 1.67332 6.40038 1.63609C6.53196 1.62917 6.66326 1.62167 6.79426 1.61359H17.2023C17.2378 1.61618 17.2751 1.62224 17.3097 1.62484C17.7636 1.63425 18.2162 1.67766 18.6636 1.75469C19.2422 1.85189 19.795 2.06572 20.2885 2.38318C21.2563 3.01772 21.9012 3.8834 22.1757 5.01744Z" stroke="currentColor" stroke-linecap="round" stroke-linejoin="round"/>
<path d="M16.8228 15.3121V10.3673L16.8219 10.3647C16.8237 8.71071 16.8237 7.05669 16.8219 5.40266C16.8219 5.33745 16.8185 5.2731 16.8115 5.20962C16.7847 4.93952 16.6003 4.77072 16.332 4.79236C16.1406 4.80794 15.9485 4.8469 15.758 4.88412L14.018 5.23299L12.0529 5.6312C11.4181 5.75817 10.7832 5.88629 10.1484 6.01556C9.92419 6.06144 9.69912 6.10127 9.47837 6.1584C9.24204 6.219 9.06631 6.3601 9.00571 6.60682C8.9806 6.7107 8.96935 6.82065 8.96935 6.92712L8.96762 14.7459C8.95261 15.0853 8.77948 15.2913 8.44821 15.364C8.20149 15.4168 7.95218 15.4653 7.70373 15.5173C7.3765 15.5848 7.0536 15.6558 6.74455 15.7856C5.94466 16.1232 5.62436 16.879 5.74556 17.5819C5.88839 18.3991 6.57661 18.9497 7.40766 18.9185C7.7245 18.907 8.0347 18.8573 8.33827 18.7696C8.91308 18.6025 9.339 18.2563 9.57965 17.7022C9.72509 17.3638 9.76577 17.0036 9.76577 16.6401C9.76837 14.3884 9.76664 12.1359 9.76837 9.88342C9.76722 9.84475 9.76722 9.80724 9.76837 9.77088C9.77963 9.52243 9.86619 9.41336 10.106 9.3467L10.1475 9.33545L13.3497 8.68792C14.0076 8.55518 14.6655 8.4236 15.3234 8.29317C15.4594 8.26633 15.5961 8.24469 15.7346 8.23603C15.868 8.22824 15.9632 8.30875 15.9978 8.4386C16.0124 8.49074 16.02 8.5446 16.0203 8.59875C16.0215 10.1685 16.022 11.7392 16.022 13.3106C16.0217 13.3668 16.0159 13.4227 16.0047 13.4777C15.9588 13.7253 15.8004 13.8699 15.5632 13.9244C15.2377 13.9997 14.9088 14.0612 14.5816 14.1322C14.2803 14.1962 13.9799 14.2741 13.7003 14.4127C13.38 14.5664 13.1188 14.8206 12.9565 15.1367C12.7943 15.4527 12.7399 15.8132 12.8017 16.1631C12.9489 16.9733 13.6613 17.5317 14.4837 17.4927C14.7988 17.4795 15.1076 17.4296 15.41 17.343C15.9537 17.1889 16.3605 16.8669 16.6116 16.3561C16.7726 16.028 16.8228 15.6731 16.8228 15.3121Z" stroke="currentColor" stroke-linecap="round" stroke-linejoin="round"/>
</svg>
