<svg xmlns="http://www.w3.org/2000/svg"  fill="none" viewBox="0 0 24 24">
  <g class="Iconz/bag">
    <path stroke="currentColor" stroke-linecap="round" stroke-linejoin="round" d="M16.232 5.23V3.294c0-.385-.179-.754-.496-1.026a1.846 1.846 0 0 0-1.197-.425H9.461c-.449 0-.88.153-1.197.425a1.354 1.354 0 0 0-.496 1.026v1.934M9.178 12v3.385H5.795V12m3.385 0h6.206M9.18 12H5.794m0 0h-3.95m20.312 0h-3.385m0 0h-3.386m3.386 0v3.385h-3.386V12M5.23 22.156h13.542a3.385 3.385 0 0 0 3.385-3.385V8.615a3.385 3.385 0 0 0-3.385-3.386H5.229a3.385 3.385 0 0 0-3.385 3.386V18.77a3.385 3.385 0 0 0 3.385 3.385Z" class="iconz"/>
  </g>
</svg>
