<svg width="189" height="262" viewBox="0 0 189 262" fill="none" xmlns="http://www.w3.org/2000/svg">
<path d="M81.8165 109.783C64.5173 138.375 30.4047 136.878 18.5055 113.954" stroke="#FF6956" stroke-width="12" stroke-linecap="round"/>
<path fill-rule="evenodd" clip-rule="evenodd" d="M14.0368 115.774C3.56288 105.261 18.789 73.8498 32.0329 82.0051C39.1414 86.3824 38.4281 97.6935 34.1734 106.589C37.3741 107.192 39.6768 108.646 39.7761 111.149C40.0746 118.667 17.2788 121.944 14.0368 115.774Z" fill="#FF6956"/>
<path d="M32.0329 82.0051L31.2464 83.2824L32.0329 82.0051ZM14.0368 115.774L15.0994 114.715L15.2593 114.875L15.3647 115.076L14.0368 115.774ZM34.1734 106.589L33.8955 108.063L31.9784 107.701L32.8202 105.941L34.1734 106.589ZM39.7761 111.149L41.275 111.09L41.275 111.09L39.7761 111.149ZM31.2464 83.2824C28.5272 81.608 25.7156 81.9024 22.9583 83.6331C20.1365 85.4042 17.4779 88.6448 15.4771 92.5702C13.4839 96.4807 12.2186 100.926 12.0665 104.972C11.9137 109.039 12.8851 112.492 15.0994 114.715L12.9743 116.832C9.95158 113.799 8.89857 109.384 9.06866 104.859C9.23952 100.314 10.6447 95.4449 12.8042 91.2079C14.9562 86.9858 17.9327 83.2455 21.3634 81.0922C24.8585 78.8984 28.9166 78.3246 32.8194 80.7278L31.2464 83.2824ZM32.8202 105.941C34.8661 101.664 36.0322 96.8552 35.8655 92.6623C35.6988 88.4697 34.2261 85.1172 31.2464 83.2824L32.8194 80.7278C36.9481 83.2702 38.673 87.7619 38.8631 92.5431C39.0532 97.3238 37.7353 102.618 35.5265 107.236L32.8202 105.941ZM38.2773 111.209C38.2481 110.473 37.92 109.876 37.2295 109.35C36.4955 108.792 35.3701 108.341 33.8955 108.063L34.4512 105.115C36.1774 105.44 37.8037 106.018 39.046 106.963C40.3319 107.941 41.2048 109.322 41.275 111.09L38.2773 111.209ZM15.3647 115.076C15.8281 115.958 17.2208 116.805 19.7213 117.233C22.1096 117.642 25.0822 117.588 27.9931 117.114C30.9109 116.639 33.6386 115.763 35.5731 114.619C37.575 113.437 38.3181 112.237 38.2773 111.209L41.275 111.09C41.3834 113.82 39.3889 115.849 37.0993 117.202C34.7421 118.595 31.6243 119.562 28.4752 120.075C25.3192 120.589 22.0036 120.667 19.2152 120.19C16.5391 119.732 13.8666 118.675 12.709 116.471L15.3647 115.076Z" fill="#FF6956"/>
<path d="M15.0899 112.434C5.07381 107.648 19.4116 77.64 29.4277 82.4257C39.4438 87.2114 25.106 117.219 15.0899 112.434Z" fill="white"/>
<path d="M106.921 115.26C125.226 142.85 159.713 140.463 171.121 117.648" stroke="#FF6956" stroke-width="12" stroke-linecap="round"/>
<path fill-rule="evenodd" clip-rule="evenodd" d="M175.554 119.313C185.549 108.716 169.762 78.3033 156.986 86.6625C150.129 91.1491 151.133 102.229 155.548 110.843C152.424 111.521 150.203 113.01 150.173 115.469C150.083 122.853 172.539 125.455 175.554 119.313Z" fill="#FF6956"/>
<path d="M156.986 86.6625L156.165 85.4073L156.986 86.6625ZM175.554 119.313L174.463 118.284L174.308 118.449L174.208 118.652L175.554 119.313ZM155.548 110.843L155.866 112.309L157.773 111.895L156.883 110.159L155.548 110.843ZM150.173 115.469L148.673 115.45L148.673 115.45L150.173 115.469ZM157.807 87.9177C160.42 86.2084 163.175 86.4193 165.92 88.0392C168.731 89.6978 171.424 92.8014 173.492 96.5966C175.551 100.377 176.911 104.701 177.169 108.663C177.429 112.645 176.569 116.051 174.463 118.284L176.646 120.342C179.537 117.276 180.452 112.907 180.163 108.468C179.872 104.008 178.361 99.2638 176.126 95.1615C173.899 91.0738 170.875 87.4794 167.445 85.4555C163.949 83.3929 159.94 82.9369 156.165 85.4073L157.807 87.9177ZM156.883 110.159C154.762 106.02 153.489 101.337 153.54 97.2234C153.591 93.1103 154.943 89.7916 157.807 87.9177L156.165 85.4073C152.172 88.02 150.598 92.4845 150.54 97.1865C150.482 101.888 151.92 107.052 154.213 111.527L156.883 110.159ZM151.673 115.487C151.682 114.774 151.983 114.186 152.641 113.656C153.342 113.092 154.429 112.621 155.866 112.309L155.23 109.377C153.543 109.743 151.958 110.355 150.76 111.32C149.519 112.319 148.695 113.705 148.673 115.45L151.673 115.487ZM174.208 118.652C173.783 119.517 172.451 120.384 170.01 120.871C167.682 121.336 164.766 121.363 161.9 120.977C159.026 120.589 156.329 119.804 154.404 118.737C152.411 117.631 151.661 116.481 151.673 115.487L148.673 115.45C148.64 118.148 150.664 120.093 152.95 121.36C155.304 122.666 158.393 123.531 161.499 123.95C164.612 124.369 167.871 124.357 170.598 123.813C173.213 123.291 175.818 122.179 176.901 119.974L174.208 118.652Z" fill="#FF6956"/>
<path d="M174.431 116.064C184.13 111.098 169.253 82.0392 159.554 87.0049C149.854 91.9707 164.732 121.03 174.431 116.064Z" fill="white"/>
<path d="M141.409 260.442C136.889 239.493 104.839 236.083 91.9261 238.757V261.605L140.454 261.605C141.07 261.605 141.539 261.044 141.409 260.442Z" fill="#FF6956"/>
<path d="M97.4682 177.136V259.896" stroke="#FF6956" stroke-width="11"/>
<path d="M43.323 260.454C47.3618 240.225 75.8466 236.174 87.3194 238.754V261.605L44.2827 261.605C43.6716 261.605 43.2033 261.053 43.323 260.454Z" fill="#FF6956"/>
<path d="M82.3768 176.023L82.3769 259.896" stroke="#FF6956" stroke-width="10"/>
<path fill-rule="evenodd" clip-rule="evenodd" d="M78.1036 195.481C51.4982 195.481 51.4982 157.13 78.1036 157.13C83.214 157.13 87.3427 158.545 90.4899 160.832C93.6974 158.542 97.8814 157.13 103.042 157.13C130.314 157.13 130.314 196.563 103.042 196.563C97.4687 196.563 93.0344 194.917 89.7391 192.296C86.6957 194.277 82.8172 195.481 78.1036 195.481Z" fill="white"/>
<path d="M90.4899 160.832L89.3144 162.45L90.4796 163.296L91.6518 162.459L90.4899 160.832ZM89.7391 192.296L90.9839 190.731L89.8559 189.834L88.648 190.62L89.7391 192.296ZM78.1036 155.13C70.9367 155.13 65.4016 157.73 61.6698 161.764C57.9665 165.768 56.1495 171.064 56.1495 176.306C56.1495 181.548 57.9665 186.843 61.6698 190.847C65.4016 194.881 70.9367 197.481 78.1036 197.481V193.481C71.9678 193.481 67.5258 191.287 64.6063 188.131C61.6582 184.944 60.1495 180.651 60.1495 176.306C60.1495 171.96 61.6582 167.668 64.6063 164.481C67.5258 161.324 71.9678 159.13 78.1036 159.13V155.13ZM91.6654 159.213C88.1461 156.657 83.597 155.13 78.1036 155.13V159.13C82.8309 159.13 86.5394 160.434 89.3144 162.45L91.6654 159.213ZM103.042 155.13C97.5032 155.13 92.9046 156.651 89.328 159.204L91.6518 162.459C94.4903 160.433 98.2596 159.13 103.042 159.13V155.13ZM103.042 198.563C110.377 198.563 116.038 195.894 119.853 191.758C123.638 187.652 125.496 182.222 125.496 176.847C125.496 171.471 123.638 166.041 119.853 161.936C116.038 157.799 110.377 155.13 103.042 155.13V159.13C109.342 159.13 113.909 161.39 116.912 164.648C119.944 167.936 121.496 172.364 121.496 176.847C121.496 181.33 119.944 185.758 116.912 189.046C113.909 192.303 109.342 194.563 103.042 194.563V198.563ZM88.4943 193.862C92.174 196.788 97.0571 198.563 103.042 198.563V194.563C97.8802 194.563 93.8949 193.046 90.9839 190.731L88.4943 193.862ZM78.1036 197.481C83.1681 197.481 87.4328 196.184 90.8301 193.972L88.648 190.62C85.9586 192.371 82.4663 193.481 78.1036 193.481V197.481Z" fill="#FF6956"/>
<path d="M90.1882 192.654C86.0725 189.131 84.8364 184.349 84.8364 184.349" stroke="#FF6956" stroke-width="4" stroke-linecap="round"/>
<path d="M77.9297 103.518H103.535L111.215 149.981L112.86 159.933C96.6041 162.808 83.8785 163.383 68.6046 159.933L70.2495 149.981L77.9297 103.518Z" fill="white"/>
<path d="M111.215 149.981L103.535 103.518H77.9297L70.2495 149.981M111.215 149.981L112.86 159.933C96.6041 162.808 83.8785 163.383 68.6046 159.933L70.2495 149.981M111.215 149.981C100.145 153.072 80.7507 153.072 70.2495 149.981" stroke="#FF6956" stroke-width="4" stroke-linecap="round"/>
<path d="M90.7322 102.603C78.6846 102.603 78.6846 120.351 90.7322 120.351C102.78 120.351 102.78 102.603 90.7322 102.603Z" fill="white" stroke="#FF6956" stroke-width="4" stroke-linecap="round"/>
<path d="M143.533 63.4836C159.068 58.9587 162.788 83.7814 147.253 88.3063C131.718 92.8311 127.998 68.0085 143.533 63.4836Z" fill="white"/>
<path d="M149.141 72.2869C142.737 72.2563 136.825 75.8744 134.117 80.692M140.805 75.4259L143.99 82.4376M147.253 88.3063C162.788 83.7814 159.068 58.9587 143.533 63.4836C127.998 68.0085 131.718 92.8311 147.253 88.3063Z" stroke="#FF6956" stroke-width="4" stroke-linecap="round"/>
<path d="M47.4695 60.4836C31.9344 55.9587 28.4937 79.8213 44.0287 84.3462C59.5638 88.871 63.0046 65.0085 47.4695 60.4836Z" fill="white"/>
<path d="M41.9736 68.9001C48.3573 68.9398 54.2903 72.4876 57.0419 77.1559M50.3173 72.0127L47.2187 78.7303M44.0287 84.3462C28.4937 79.8213 31.9344 55.9587 47.4695 60.4836C63.0046 65.0085 59.5638 88.871 44.0287 84.3462Z" stroke="#FF6956" stroke-width="4" stroke-linecap="round"/>
<path d="M135.968 57.0537C142.655 80.0104 129.218 104.113 105.956 110.889C82.6936 117.664 58.4156 104.547 51.729 81.5899C45.0424 58.6332 58.4795 34.5305 81.7414 27.755C105.003 20.9796 129.281 34.097 135.968 57.0537Z" fill="white" stroke="#FF6956" stroke-width="4" stroke-linecap="round"/>
<path d="M80.0129 29.0295L87.9382 3.81831L100.128 15.8835L115.111 5.96723L121.308 23.0743L139.381 17.8103L131.168 45.0137C110.639 44.2265 88.5595 35.736 80.0129 29.0295Z" fill="white" stroke="#FF6956" stroke-width="4" stroke-linecap="round"/>
<path d="M95.8461 47.2265C102.341 34.1952 114.772 35.0123 117.902 48.6763" stroke="#FF6956" stroke-width="4" stroke-linecap="round"/>
<path d="M73.849 93.5925C79.6654 106.504 108.1 108.757 115.063 84.7339" stroke="#FF6956" stroke-width="4" stroke-linecap="round"/>
<path d="M86.8661 70.3228L76.3407 80.035C76.3407 80.035 82.8413 85.4451 89.9629 83.5042" stroke="#FF6956" stroke-width="4" stroke-linecap="round"/>
<path d="M69.5599 45.3871C75.0705 35.0138 85.7165 35.7136 88.448 46.6286" stroke="#FF6956" stroke-width="4" stroke-linecap="round"/>
<path fill-rule="evenodd" clip-rule="evenodd" d="M102.252 50.9334C112.47 49.5987 115.39 73.0311 105.175 74.2595C94.9591 75.4879 92.0345 52.2682 102.252 50.9334ZM104.875 54.1665C108.162 53.7388 109.16 61.7529 105.873 62.1443C102.587 62.5356 101.588 54.5942 104.875 54.1665Z" fill="#FF6956"/>
<path fill-rule="evenodd" clip-rule="evenodd" d="M81.6913 50.5351C91.4061 53.9703 83.4028 76.1864 73.7378 72.6572C64.0729 69.128 71.9765 47.0998 81.6913 50.5351ZM82.5667 54.6053C85.6912 55.7119 82.9528 63.3095 79.8451 62.1707C76.7375 61.0318 79.4423 53.4988 82.5667 54.6053Z" fill="#FF6956"/>
<path d="M88.089 145.756C74.7081 145.756 74.7081 168.504 88.089 168.504C101.47 168.504 101.47 145.756 88.089 145.756Z" fill="white" stroke="#FF6956" stroke-width="4" stroke-linecap="round"/>
</svg>
