<svg width="177" height="203" viewBox="0 0 177 203" fill="none" xmlns="http://www.w3.org/2000/svg">
<path d="M144.617 73.3467L145.218 75.4109L145.218 75.4109L144.617 73.3467ZM148.957 103.446L149.558 105.51L148.957 103.446ZM142.977 86.9885C142.48 85.9103 141.202 85.4394 140.124 85.9368C139.046 86.4342 138.575 87.7114 139.072 88.7897L142.977 86.9885ZM142.981 97.2629C143.478 98.3411 144.756 98.812 145.834 98.3146C146.912 97.8173 147.383 96.54 146.886 95.4618L142.981 97.2629ZM137.395 74.5526C136.446 75.2667 136.256 76.6147 136.97 77.5633C137.684 78.512 139.032 78.7022 139.981 77.988L137.395 74.5526ZM136.999 98.7974C136.222 97.8993 134.864 97.801 133.966 98.5778C133.068 99.3546 132.97 100.712 133.746 101.61L136.999 98.7974ZM151.563 86.1129C152.75 86.1055 153.707 85.1369 153.699 83.9496C153.692 82.7622 152.723 81.8056 151.536 81.813L151.563 86.1129ZM136.732 86.7405C135.773 87.4413 135.564 88.7865 136.265 89.7451C136.966 90.7036 138.311 90.9126 139.27 90.2118L136.732 86.7405ZM30.5444 73.8273L31.1457 71.763L30.5444 73.8273ZM26.5583 101.472L27.1595 99.408L26.5583 101.472ZM35.796 88.0844C36.2934 87.0062 35.8225 85.7289 34.7442 85.2315C33.666 84.7342 32.3887 85.2051 31.8914 86.2833L35.796 88.0844ZM28.3016 94.0656C27.8042 95.1438 28.2751 96.4211 29.3534 96.9184C30.4316 97.4158 31.7089 96.9449 32.2062 95.8667L28.3016 94.0656ZM35.0338 78.4924C35.9591 79.2366 37.3125 79.0898 38.0567 78.1645C38.8008 77.2392 38.654 75.8859 37.7287 75.1417L35.0338 78.4924ZM39.3119 101.249C40.212 100.474 40.3139 99.1167 39.5395 98.2166C38.7651 97.3164 37.4076 97.2145 36.5075 97.989L39.3119 101.249ZM24.1907 81.4279C23.0033 81.4205 22.0348 82.3771 22.0274 83.5645C22.02 84.7518 22.9766 85.7204 24.164 85.7278L24.1907 81.4279ZM34.5741 89.6318C35.522 90.3469 36.8701 90.1581 37.5853 89.2102C38.3004 88.2623 38.1116 86.9141 37.1637 86.199L34.5741 89.6318ZM135.906 69.2901L133.842 69.8914L135.906 69.2901ZM101.22 132.485L101.822 134.55L101.22 132.485ZM38.025 97.7998L40.0892 97.1985L38.025 97.7998ZM133.931 58.6952C133.377 57.6451 132.076 57.2431 131.026 57.7974C129.976 58.3517 129.574 59.6523 130.128 60.7024L133.931 58.6952ZM64.4681 40.2019C65.5226 39.6561 65.935 38.3587 65.3892 37.3042C64.8433 36.2497 63.546 35.8373 62.4915 36.3832L64.4681 40.2019ZM103.039 70.6134L105.094 69.9816C104.907 69.3744 104.461 68.8809 103.877 68.6334C103.292 68.3859 102.627 68.4097 102.061 68.6984L103.039 70.6134ZM101.737 71.0711L102.175 73.176L101.737 71.0711ZM95.471 66.8729L97.5758 66.4346L95.471 66.8729ZM95.8364 63.5123L97.7949 64.3993C98.1146 63.6934 98.0297 62.8701 97.5727 62.2443C97.1157 61.6186 96.3573 61.2871 95.5876 61.3768L95.8364 63.5123ZM95.0352 63.6828L94.4002 61.6287L94.4002 61.6287L95.0352 63.6828ZM92.8246 65.2226L91.119 63.9137L91.119 63.9137L92.8246 65.2226ZM91.7265 67.7217L89.6263 67.2619L89.6263 67.2619L91.7265 67.7217ZM93.0858 76.6032L91.1525 77.5439L91.1525 77.5439L93.0858 76.6032ZM97.4746 81.2031L96.747 83.2262L96.747 83.2262L97.4746 81.2031ZM100.203 81.279L100.816 83.3398L100.816 83.3398L100.203 81.279ZM102.44 79.7294L104.152 81.0295L104.152 81.0295L102.44 79.7294ZM103.506 77.3062L105.604 77.7761L105.604 77.7761L103.506 77.3062ZM103.639 73.4264L105.774 73.1714L105.774 73.1714L103.639 73.4264ZM93.3484 65.5693C93.683 66.7086 94.8778 67.3609 96.0171 67.0263C97.1564 66.6918 97.8088 65.4969 97.4742 64.3576L93.3484 65.5693ZM98.7635 68.7479C98.4289 67.6086 97.2341 66.9563 96.0948 67.2909C94.9555 67.6255 94.3032 68.8203 94.6378 69.9596L98.7635 68.7479ZM101.162 73.1971C102.279 72.7936 102.857 71.5612 102.453 70.4444C102.05 69.3277 100.817 68.7495 99.7005 69.153L101.162 73.1971ZM100.271 71.2607C100.653 70.1361 100.05 68.9155 98.9254 68.5344C97.8008 68.1533 96.5801 68.7559 96.199 69.8805L100.271 71.2607ZM93.1421 78.9005C92.7609 80.0251 93.3636 81.2457 94.4882 81.6268C95.6128 82.008 96.8334 81.4053 97.2145 80.2807L93.1421 78.9005ZM99.4729 69.9313C99.4569 68.744 98.4814 67.7945 97.2941 67.8105C96.1068 67.8265 95.1573 68.802 95.1733 69.9893L99.4729 69.9313ZM100.326 72.3389C101.16 71.4946 101.153 70.1333 100.308 69.2984C99.4639 68.4636 98.1027 68.4713 97.2678 69.3157L100.326 72.3389ZM72.8646 71.4367L74.9596 71.9197C75.1 71.3109 74.9685 70.6711 74.5995 70.1669C74.2304 69.6627 73.6603 69.3439 73.0375 69.2937L72.8646 71.4367ZM71.0923 70.9465L72.0433 69.0183L71.0923 70.9465ZM68.8737 64.0998L66.9455 63.1487L66.9455 63.1487L68.8737 64.0998ZM69.3503 63.3122L71.0863 64.5806C71.5354 63.9659 71.626 63.1595 71.3244 62.4605C71.0229 61.7615 70.3741 61.2741 69.6188 61.179L69.3503 63.3122ZM67.7645 63.4227L67.2196 61.3429L67.2196 61.3429L67.7645 63.4227ZM65.4718 64.6652L64.0961 63.013L64.0961 63.013L65.4718 64.6652ZM61.991 69.7789L59.9916 68.9884L59.9916 68.9884L61.991 69.7789ZM61.8397 78.2174L60.0167 79.3573L60.0167 79.3573L61.8397 78.2174ZM68.6468 78.8142L70.0147 80.4728L70.0147 80.4728L68.6468 78.8142ZM70.5636 68.7768C71.0023 67.6734 70.4635 66.4233 69.3601 65.9846C68.2567 65.5458 67.0065 66.0847 66.5678 67.1881L70.5636 68.7768ZM66.9962 71.4142L67.6677 69.3718L67.6636 69.3704L66.9962 71.4142ZM70.9041 71.7346C71.8949 71.0802 72.1677 69.7465 71.5134 68.7557C70.859 67.7648 69.5253 67.4921 68.5345 68.1464L70.9041 71.7346ZM59.8853 73.8582C58.8944 74.5126 58.6216 75.8463 59.276 76.8371C59.9303 77.828 61.264 78.1008 62.2549 77.4464L59.8853 73.8582ZM70.6482 70.1577C71.3656 69.2115 71.1801 67.8629 70.2339 67.1455C69.2877 66.4282 67.9391 66.6137 67.2217 67.5599L70.6482 70.1577ZM71.2615 73.0215C72.4388 72.8665 73.2675 71.7866 73.1126 70.6093C72.9577 69.4321 71.8777 68.6033 70.7005 68.7582L71.2615 73.0215ZM78.9449 85.7783C79.7877 84.9419 79.7929 83.5806 78.9565 82.7378C78.1201 81.8949 76.7588 81.8897 75.916 82.7261L78.9449 85.7783ZM66.8764 94.7257L65.3619 93.1996C64.9413 93.6171 64.7116 94.1896 64.7271 94.7821C64.7426 95.3745 65.002 95.9342 65.4439 96.3291L66.8764 94.7257ZM81.0695 100.442C82.2076 100.103 82.8557 98.906 82.5171 97.7679C82.1785 96.6298 80.9814 95.9817 79.8433 96.3203L81.0695 100.442ZM73.5716 2.25L75.0841 0.721946C74.5473 0.190584 73.771 -0.0200902 73.0391 0.166982C72.3073 0.354054 71.7274 0.91143 71.5114 1.63523L73.5716 2.25ZM62.989 37.715L60.9288 37.1002C60.6763 37.9465 60.967 38.8612 61.6618 39.4064L62.989 37.715ZM132.86 59.4437L132.777 61.5922C133.743 61.6292 134.615 61.0169 134.909 60.0957L132.86 59.4437ZM144.886 21.647L146.935 22.2989C147.176 21.542 146.98 20.7141 146.425 20.1456C145.871 19.5771 145.048 19.3607 144.285 19.5828L144.886 21.647ZM119.832 28.9446L117.81 29.6769C118.197 30.743 119.344 31.3259 120.433 31.0088L119.832 28.9446ZM111.241 5.22904L113.262 4.49674C113.038 3.87706 112.541 3.39459 111.915 3.1877C111.29 2.98082 110.604 3.07239 110.054 3.43614L111.241 5.22904ZM90.4699 18.9759L88.9574 20.5039C89.681 21.2201 90.8076 21.3306 91.6565 20.7688L90.4699 18.9759ZM111.926 54.7682C110.76 54.5394 109.63 55.2985 109.402 56.4637C109.173 57.6289 109.932 58.7589 111.097 58.9876L111.926 54.7682ZM87.3625 52.4317C88.4796 52.834 89.7114 52.2545 90.1137 51.1373C90.516 50.0201 89.9365 48.7883 88.8193 48.386L87.3625 52.4317ZM86.3855 50.3767C85.624 51.2878 85.7453 52.6437 86.6564 53.4052C87.5674 54.1667 88.9233 54.0455 89.6848 53.1344L86.3855 50.3767ZM108.967 57.8496C109.086 59.031 110.14 59.8922 111.322 59.773C112.503 59.6539 113.364 58.5996 113.245 57.4182L108.967 57.8496ZM55.9076 57.4165C55.7327 58.591 56.543 59.6849 57.7175 59.8598C58.8919 60.0347 59.9858 59.2244 60.1607 58.0499L55.9076 57.4165ZM75.1244 56.3937C75.5839 57.4886 76.844 58.0037 77.9389 57.5442C79.0338 57.0847 79.5489 55.8246 79.0894 54.7297L75.1244 56.3937ZM62.8428 110.69L62.3739 108.592C61.7753 108.725 61.2623 109.108 60.9641 109.644C60.6659 110.18 60.6107 110.818 60.8126 111.397L62.8428 110.69ZM114.05 99.2444L116.198 99.3482C116.23 98.6782 115.948 98.0314 115.435 97.5995C114.921 97.1675 114.236 96.9999 113.581 97.1462L114.05 99.2444ZM112.48 108.711L114.536 109.341C114.797 108.489 114.505 107.563 113.802 107.015L112.48 108.711ZM95.6981 117.327L94.6231 119.189C95.3279 119.596 96.202 119.57 96.8814 119.123C97.5608 118.675 97.9291 117.882 97.833 117.073L95.6981 117.327ZM84.4426 126.093L82.4175 126.815C82.6882 127.575 83.3609 128.119 84.16 128.225L84.4426 126.093ZM145.218 75.4109C149.568 74.1439 152.799 74.9143 155.041 76.569C157.342 78.2678 158.877 81.1045 159.355 84.4226C160.314 91.073 156.954 98.8773 148.356 101.382L149.558 105.51C160.555 102.307 164.823 92.208 163.611 83.8089C163.005 79.6021 161.006 75.6275 157.594 73.1095C154.123 70.5475 149.463 69.6957 144.016 71.2825L145.218 75.4109ZM139.072 88.7897L142.981 97.2629L146.886 95.4618L142.977 86.9885L139.072 88.7897ZM139.981 77.988C141.423 76.903 143.158 76.0109 145.218 75.4109L144.016 71.2825C141.472 72.0235 139.264 73.1455 137.395 74.5526L139.981 77.988ZM148.356 101.382C143 102.942 139.281 101.436 136.999 98.7974L133.746 101.61C137.229 105.637 142.74 107.496 149.558 105.51L148.356 101.382ZM151.536 81.813C146.04 81.8471 140.813 83.757 136.732 86.7405L139.27 90.2118C142.672 87.7247 147.031 86.141 151.563 86.1129L151.536 81.813ZM31.1457 71.763C26.0974 70.2926 21.7591 71.0782 18.5212 73.4683C15.3428 75.8144 13.4876 79.5114 12.9253 83.4113C11.8026 91.1969 15.759 100.566 25.957 103.536L27.1595 99.408C19.3601 97.1362 16.3108 90.0619 17.1812 84.025C17.6154 81.0137 19.0064 78.4547 21.0749 76.9279C23.0837 75.4451 25.9927 74.7408 29.9432 75.8915L31.1457 71.763ZM31.8914 86.2833L28.3016 94.0656L32.2062 95.8667L35.796 88.0844L31.8914 86.2833ZM37.7287 75.1417C35.9036 73.6738 33.7084 72.5095 31.1457 71.763L29.9432 75.8915C31.9779 76.4841 33.6628 77.3898 35.0338 78.4924L37.7287 75.1417ZM25.957 103.536C31.4179 105.127 36.0312 104.071 39.3119 101.249L36.5075 97.989C34.4695 99.7424 31.4108 100.646 27.1595 99.408L25.957 103.536ZM24.164 85.7278C28.2759 85.7533 31.3385 87.1909 34.5741 89.6318L37.1637 86.199C33.4562 83.4022 29.5141 81.4609 24.1907 81.4279L24.164 85.7278ZM133.842 69.8914C141.382 95.7804 126.508 122.881 100.619 130.421L101.822 134.55C129.991 126.345 146.175 96.858 137.97 68.6889L133.842 69.8914ZM100.619 130.421C74.73 137.962 47.6299 123.088 40.0892 97.1985L35.9608 98.401C44.1655 126.57 73.6524 142.754 101.822 134.55L100.619 130.421ZM130.128 60.7024C131.645 63.576 132.897 66.6461 133.842 69.8914L137.97 68.6889C136.943 65.1635 135.582 61.8239 133.931 58.6952L130.128 60.7024ZM40.0892 97.1985C33.456 74.4249 44.1685 50.7094 64.4681 40.2019L62.4915 36.3832C40.4021 47.8171 28.7419 73.6168 35.9608 98.401L40.0892 97.1985ZM102.061 68.6984C101.827 68.8179 101.572 68.9093 101.298 68.9663L102.175 73.176C102.827 73.0401 103.445 72.8201 104.016 72.5284L102.061 68.6984ZM101.298 68.9663C99.6474 69.3101 97.9488 68.2259 97.5758 66.4346L93.3661 67.3112C94.2063 71.3458 98.1182 74.0208 102.175 73.176L101.298 68.9663ZM97.5758 66.4346C97.4254 65.7124 97.5196 65.0073 97.7949 64.3993L93.8778 62.6254C93.2365 64.0418 93.0251 65.6736 93.3661 67.3112L97.5758 66.4346ZM95.6702 65.7369C95.8176 65.6913 95.9557 65.663 96.0852 65.6479L95.5876 61.3768C95.1895 61.4232 94.793 61.5073 94.4002 61.6287L95.6702 65.7369ZM94.5303 66.5315C94.82 66.154 95.1826 65.8876 95.6702 65.7369L94.4002 61.6287C93.0216 62.0549 91.9248 62.8637 91.119 63.9137L94.5303 66.5315ZM93.8267 68.1816C93.9847 67.4603 94.2352 66.916 94.5303 66.5315L91.119 63.9137C90.3546 64.9097 89.886 66.0755 89.6263 67.2619L93.8267 68.1816ZM93.6888 70.82C93.6101 69.839 93.6605 68.941 93.8267 68.1816L89.6263 67.2619C89.352 68.5144 89.297 69.848 89.4026 71.1639L93.6888 70.82ZM94.2071 73.559C93.937 72.646 93.7605 71.714 93.6888 70.82L89.4026 71.1639C89.4996 72.3728 89.7345 73.5983 90.0837 74.7787L94.2071 73.559ZM95.0191 75.6625C94.6985 75.0036 94.4242 74.293 94.2071 73.559L90.0837 74.7787C90.365 75.7298 90.7237 76.6626 91.1525 77.5439L95.0191 75.6625ZM98.2023 79.18C97.1705 78.8089 95.9729 77.6227 95.0191 75.6625L91.1525 77.5439C92.326 79.9554 94.1933 82.3078 96.747 83.2262L98.2023 79.18ZM99.5901 79.2182C99.095 79.3654 98.6477 79.3402 98.2023 79.18L96.747 83.2262C98.0166 83.6828 99.4033 83.7599 100.816 83.3398L99.5901 79.2182ZM100.727 78.4293C100.439 78.8093 100.078 79.0731 99.5901 79.2182L100.816 83.3398C102.224 82.9212 103.339 82.1004 104.152 81.0295L100.727 78.4293ZM101.408 76.8364C101.252 77.5325 101.01 78.0576 100.727 78.4293L104.152 81.0295C104.889 80.0587 105.346 78.9277 105.604 77.7761L101.408 76.8364ZM101.504 73.6814C101.645 74.8622 101.607 75.9457 101.408 76.8364L105.604 77.7761C105.932 76.3077 105.958 74.7199 105.774 73.1714L101.504 73.6814ZM100.984 71.2452C101.231 72.0513 101.408 72.8767 101.504 73.6814L105.774 73.1714C105.646 72.1006 105.414 71.0232 105.094 69.9816L100.984 71.2452ZM92.9723 64.2886L93.3484 65.5693L97.4742 64.3576L97.0981 63.077L92.9723 64.2886ZM94.6378 69.9596L95.2816 72.1517L99.4073 70.94L98.7635 68.7479L94.6378 69.9596ZM95.2816 72.1517L95.4514 72.7301L99.5772 71.5184L99.4073 70.94L95.2816 72.1517ZM95.4514 72.73L95.473 72.8036L99.5988 71.5921L99.5772 71.5185L95.4514 72.73ZM95.4731 72.8038L95.4793 72.8248L99.605 71.613L99.5988 71.5919L95.4731 72.8038ZM95.4792 72.8248L95.5417 73.0374L99.6674 71.8257L99.605 71.6131L95.4792 72.8248ZM95.5416 73.037L95.543 73.0419L99.669 71.831L99.6676 71.8261L95.5416 73.037ZM95.5431 73.0423L95.5699 73.1334L99.6957 71.9219L99.6689 71.8307L95.5431 73.0423ZM95.5699 73.1334L98.14 81.8849L102.266 80.6732L99.6956 71.9218L95.5699 73.1334ZM99.7005 69.153L96.9648 70.1415L98.426 74.1856L101.162 73.1971L99.7005 69.153ZM96.9648 70.1415L96.8467 70.1841L98.308 74.2282L98.4261 74.1855L96.9648 70.1415ZM96.8468 70.1841L96.8116 70.1968L98.2726 74.241L98.3079 74.2283L96.8468 70.1841ZM96.8114 70.1969L96.7466 70.2203L98.208 74.2643L98.2728 74.2409L96.8114 70.1969ZM96.7467 70.2202L96.6239 70.2646L98.085 74.3088L98.2079 74.2644L96.7467 70.2202ZM96.6229 70.265L96.6217 70.2654L98.0848 74.3089L98.086 74.3084L96.6229 70.265ZM96.6228 70.265L96.6117 70.2691L98.0727 74.3132L98.0838 74.3092L96.6228 70.265ZM96.6115 70.2691L91.4148 72.1468L92.876 76.1909L98.0728 74.3132L96.6115 70.2691ZM90.3695 69.3894L95.7691 73.783L98.4831 70.4477L93.0835 66.0541L90.3695 69.3894ZM95.7691 73.783L95.9852 73.9588L98.6991 70.6235L98.483 70.4476L95.7691 73.783ZM95.9839 73.9577L95.9878 73.961L98.7044 70.6278L98.7005 70.6246L95.9839 73.9577ZM95.9894 73.9622L95.9979 73.9692L98.7114 70.6334L98.7029 70.6265L95.9894 73.9622ZM95.9976 73.969L96.2282 74.1565L98.9421 70.8212L98.7116 70.6336L95.9976 73.969ZM96.2282 74.1566L96.2758 74.1953L98.9897 70.8599L98.9421 70.8212L96.2282 74.1566ZM96.2757 74.1952L96.3487 74.2546L99.0628 70.9194L98.9898 70.86L96.2757 74.1952ZM96.3488 74.2547L102.149 78.9739L104.863 75.6386L99.0627 70.9193L96.3488 74.2547ZM96.199 69.8805L95.7739 71.135L99.8464 72.5152L100.271 71.2607L96.199 69.8805ZM95.7739 71.135L95.6592 71.4734L99.7317 72.8536L99.8463 72.5152L95.7739 71.135ZM95.6592 71.4734L95.6381 71.5356L99.7106 72.9158L99.7317 72.8536L95.6592 71.4734ZM95.6381 71.5356L95.5683 71.7415L99.6408 73.1217L99.7106 72.9158L95.6381 71.5356ZM95.5692 71.7389L95.5686 71.7407L99.6393 73.1261L99.6399 73.1243L95.5692 71.7389ZM95.5677 71.7433L95.5489 71.7988L99.6214 73.1789L99.6402 73.1234L95.5677 71.7433ZM95.5489 71.7988L95.3296 72.4458L99.4021 73.826L99.6214 73.179L95.5489 71.7988ZM95.3296 72.4458L93.1421 78.9005L97.2145 80.2807L99.4021 73.826L95.3296 72.4458ZM99.6244 81.1741L99.5157 73.1069L95.2161 73.1648L95.3248 81.2321L99.6244 81.1741ZM99.5157 73.1069L99.5044 72.2723L95.2048 72.3303L95.2161 73.1648L99.5157 73.1069ZM99.5044 72.272L99.5042 72.2575L95.2046 72.316L95.2048 72.3305L99.5044 72.272ZM99.5042 72.2578L99.5025 72.132L95.2029 72.1899L95.2046 72.3157L99.5042 72.2578ZM99.5025 72.132L99.5011 72.0232L95.2015 72.0811L95.2029 72.1899L99.5025 72.132ZM99.5011 72.0232L99.4942 71.5169L95.1946 71.5749L95.2015 72.0811L99.5011 72.0232ZM99.4942 71.5169L99.4729 69.9313L95.1733 69.9893L95.1946 71.5748L99.4942 71.5169ZM91.0325 66.4104L95.5592 73.24L99.1434 70.8643L94.6167 64.0348L91.0325 66.4104ZM95.5591 73.2399L95.6421 73.3651L99.2264 70.9896L99.1434 70.8644L95.5591 73.2399ZM95.6421 73.3651L95.6531 73.3817L99.2375 71.0064L99.2264 70.9897L95.6421 73.3651ZM95.6533 73.3819L95.6853 73.4302L99.2693 71.0544L99.2374 71.0062L95.6533 73.3819ZM95.6852 73.4301L95.8118 73.6212L99.3961 71.2456L99.2694 71.0546L95.6852 73.4301ZM95.8137 73.624L95.8157 73.6271L99.3963 71.2459L99.3942 71.2428L95.8137 73.624ZM95.8139 73.6242L95.9136 73.7748L99.4979 71.3993L99.3982 71.2488L95.8139 73.6242ZM95.9137 73.7748L100.648 80.9172L104.232 78.5416L99.4979 71.3992L95.9137 73.7748ZM104.063 71.3187L98.0986 70.118L97.25 74.3334L103.214 75.5341L104.063 71.3187ZM98.0987 70.118L98.0017 70.0985L97.153 74.3139L97.25 74.3334L98.0987 70.118ZM98.0017 70.0985L97.9603 70.0901L97.1115 74.3055L97.1529 74.3139L98.0017 70.0985ZM97.9602 70.0901L97.8815 70.0743L97.033 74.2897L97.1117 74.3056L97.9602 70.0901ZM97.8816 70.0743L97.8586 70.0697L97.0099 74.2851L97.0329 74.2897L97.8816 70.0743ZM97.8585 70.0697L97.777 70.0532L96.9285 74.2687L97.01 74.2851L97.8585 70.0697ZM97.7771 70.0533L97.5504 70.0076L96.7017 74.223L96.9284 74.2687L97.7771 70.0533ZM97.5504 70.0076L91.97 68.8842L91.1214 73.0997L96.7018 74.223L97.5504 70.0076ZM97.2678 69.3157L96.2812 70.3135L99.339 73.3367L100.326 72.3389L97.2678 69.3157ZM96.2813 70.3134L95.9855 70.6126L99.0432 73.6359L99.339 73.3368L96.2813 70.3134ZM95.9854 70.6127L95.9283 70.6704L98.9862 73.6936L99.0433 73.6358L95.9854 70.6127ZM95.9287 70.67L95.9168 70.682L98.9738 73.7061L98.9857 73.694L95.9287 70.67ZM95.9103 70.6886L95.8194 70.7813L98.8894 73.7921L98.9803 73.6995L95.9103 70.6886ZM95.8233 70.7766L95.8162 70.7838L98.876 73.8049L98.8832 73.7977L95.8233 70.7766ZM95.8173 70.7827L91.5569 75.0915L94.6147 78.1148L98.875 73.806L95.8173 70.7827ZM73.0375 69.2937C72.7017 69.2666 72.3662 69.1775 72.0433 69.0183L70.1412 72.8747C70.9605 73.2788 71.8253 73.5099 72.6917 73.5798L73.0375 69.2937ZM72.0433 69.0183C70.6725 68.3421 70.0418 66.5918 70.8019 65.0508L66.9455 63.1487C65.1848 66.7184 66.5408 71.0988 70.1412 72.8747L72.0433 69.0183ZM70.8019 65.0508C70.8853 64.8816 70.9809 64.7249 71.0863 64.5806L67.6143 62.0438C67.3632 62.3874 67.139 62.7564 66.9455 63.1487L70.8019 65.0508ZM68.3095 65.5025C68.5812 65.4313 68.8357 65.4144 69.0818 65.4453L69.6188 61.179C68.7912 61.0748 67.9841 61.1426 67.2196 61.3429L68.3095 65.5025ZM66.8476 66.3174C67.3836 65.8711 67.8797 65.6151 68.3095 65.5025L67.2196 61.3429C66.044 61.6509 64.9955 62.264 64.0961 63.013L66.8476 66.3174ZM65.2073 68.2112C65.7225 67.4292 66.2837 66.787 66.8476 66.3174L64.0961 63.013C63.1462 63.804 62.3152 64.785 61.6166 65.8454L65.2073 68.2112ZM63.9904 70.5694C64.3238 69.7261 64.7379 68.9235 65.2073 68.2112L61.6166 65.8454C60.9746 66.8198 60.4268 67.8876 59.9916 68.9884L63.9904 70.5694ZM63.3639 72.6219C63.5108 71.9407 63.7224 71.2472 63.9904 70.5694L59.9916 68.9884C59.641 69.8753 59.3592 70.7942 59.1605 71.7156L63.3639 72.6219ZM63.6626 77.0775C63.1294 76.2247 62.9256 74.6549 63.3639 72.6219L59.1605 71.7156C58.618 74.2318 58.6255 77.1324 60.0167 79.3573L63.6626 77.0775ZM64.6221 77.8742C64.1905 77.7049 63.8898 77.4408 63.6626 77.0775L60.0167 79.3573C60.71 80.466 61.7218 81.3555 63.0517 81.8772L64.6221 77.8742ZM65.8673 77.9414C65.4475 78.0537 65.0474 78.0411 64.6222 77.8742L63.0517 81.8772C64.3771 82.3972 65.72 82.432 66.9787 82.0952L65.8673 77.9414ZM67.2788 77.1555C66.7591 77.5841 66.2804 77.8308 65.8673 77.9414L66.9787 82.0952C68.1184 81.7903 69.1373 81.1965 70.0147 80.4728L67.2788 77.1555ZM69.1902 74.85C68.6041 75.8189 67.9435 76.6073 67.2788 77.1555L70.0147 80.4728C71.1338 79.5499 72.0932 78.3588 72.8694 77.0757L69.1902 74.85ZM70.3317 72.4394C70.0275 73.2877 69.6391 74.1081 69.1902 74.85L72.8694 77.0757C73.4724 76.0789 73.9822 74.9981 74.3792 73.8912L70.3317 72.4394ZM70.7695 70.9537C70.6559 71.4466 70.5089 71.9454 70.3317 72.4394L74.3792 73.8912C74.6114 73.244 74.8067 72.5832 74.9596 71.9197L70.7695 70.9537ZM66.5678 67.1881L65.4279 70.055L69.4237 71.6437L70.5636 68.7768L66.5678 67.1881ZM65.4279 70.055L65.2147 70.5914L69.2104 72.1801L69.4237 71.6437L65.4279 70.055ZM65.2147 70.5914L65.1875 70.6597L69.1833 72.2483L69.2104 72.1801L65.2147 70.5914ZM65.1876 70.6595L65.1798 70.6791L69.1755 72.268L69.1832 72.2484L65.1876 70.6595ZM65.1798 70.6792L65.1013 70.8764L69.0971 72.4651L69.1755 72.2678L65.1798 70.6792ZM65.1015 70.876L65.0997 70.8806L69.0951 72.47L69.0969 72.4655L65.1015 70.876ZM65.0995 70.8809L65.0659 70.9654L69.0617 72.5542L69.0953 72.4697L65.0995 70.8809ZM65.0659 70.9654L61.839 79.0814L65.8348 80.6701L69.0617 72.5542L65.0659 70.9654ZM73.0232 71.1216L67.9927 69.478L66.6573 73.5653L71.6878 75.2089L73.0232 71.1216ZM67.9927 69.478L67.8792 69.4409L66.5438 73.5283L66.6573 73.5653L67.9927 69.478ZM67.8793 69.4409L67.8454 69.4298L66.5099 73.5172L66.5437 73.5282L67.8793 69.4409ZM67.8454 69.4298L67.7831 69.4095L66.4476 73.4968L66.5099 73.5172L67.8454 69.4298ZM67.7831 69.4095L67.665 69.3709L66.3296 73.4583L66.4477 73.4969L67.7831 69.4095ZM67.6688 69.3721L67.6677 69.3718L66.3247 73.4567L66.3258 73.457L67.6688 69.3721ZM67.6636 69.3704L67.6529 69.3669L66.3181 73.4545L66.3288 73.458L67.6636 69.3704ZM67.6532 69.367L62.6588 67.7352L61.3233 71.8226L66.3178 73.4544L67.6532 69.367ZM63.374 65.136L64.8294 71.6219L69.0251 70.6804L67.5697 64.1945L63.374 65.136ZM64.8294 71.6219L64.8876 71.8815L69.0833 70.94L69.0251 70.6805L64.8294 71.6219ZM64.8874 71.8805L64.8885 71.8853L69.0846 70.9457L69.0835 70.9409L64.8874 71.8805ZM64.8887 71.8863L64.891 71.8965L69.0867 70.9549L69.0844 70.9447L64.8887 71.8863ZM64.891 71.8964L64.9531 72.1734L69.1488 71.2319L69.0867 70.9549L64.891 71.8964ZM64.9531 72.1733L64.966 72.2305L69.1617 71.2891L69.1488 71.2319L64.9531 72.1733ZM64.966 72.2306L64.9857 72.3183L69.1813 71.3767L69.1616 71.289L64.966 72.2306ZM64.9857 72.3182L66.5489 79.2849L70.7446 78.3434L69.1813 71.3768L64.9857 72.3182ZM68.5345 68.1464L66.4252 69.5394L68.7948 73.1275L70.9041 71.7346L68.5345 68.1464ZM66.4252 69.5393L66.1402 69.7276L68.5098 73.3158L68.7948 73.1275L66.4252 69.5393ZM66.1402 69.7276L66.0878 69.7622L68.4574 73.3503L68.5098 73.3157L66.1402 69.7276ZM66.0878 69.7622L65.9144 69.8767L68.284 73.4648L68.4574 73.3503L66.0878 69.7622ZM65.9149 69.8763L65.9134 69.8773L68.282 73.4662L68.2835 73.4652L65.9149 69.8763ZM65.9129 69.8777L65.8662 69.9085L68.2358 73.4967L68.2825 73.4658L65.9129 69.8777ZM65.8662 69.9085L65.3213 70.2683L67.6909 73.8565L68.2358 73.4967L65.8662 69.9085ZM65.3213 70.2683L59.8853 73.8582L62.2549 77.4464L67.6909 73.8565L65.3213 70.2683ZM63.553 79.5163L68.2194 73.3614L64.7928 70.7635L60.1264 76.9184L63.553 79.5163ZM68.2194 73.3614L68.7021 72.7246L65.2756 70.1268L64.7928 70.7635L68.2194 73.3614ZM68.7016 72.7253L68.7101 72.7142L65.2845 70.115L65.2761 70.1261L68.7016 72.7253ZM68.7106 72.7135L68.7833 72.6175L65.3567 70.0198L65.284 70.1157L68.7106 72.7135ZM68.7833 72.6176L68.8462 72.5345L65.4197 69.9367L65.3567 70.0197L68.7833 72.6176ZM68.8462 72.5346L69.1391 72.1483L65.7126 69.5504L65.4197 69.9367L68.8462 72.5346ZM69.1391 72.1483L70.6482 70.1577L67.2217 67.5599L65.7125 69.5504L69.1391 72.1483ZM65.6215 63.2494L64.9899 71.0624L69.276 71.4089L69.9075 63.5959L65.6215 63.2494ZM64.9899 71.0624L64.9784 71.2056L69.2644 71.5521L69.276 71.4089L64.9899 71.0624ZM64.9784 71.2057L64.9768 71.2248L69.2628 71.5711L69.2644 71.552L64.9784 71.2057ZM64.9768 71.2247L64.9724 71.28L69.2584 71.6264L69.2628 71.5711L64.9768 71.2247ZM64.9724 71.2799L64.9547 71.4985L69.2407 71.845L69.2584 71.6264L64.9724 71.2799ZM64.9547 71.4989L64.9544 71.5025L69.2405 71.8481L69.2407 71.8446L64.9547 71.4989ZM64.9544 71.5021L64.9405 71.6743L69.2265 72.0207L69.2404 71.8485L64.9544 71.5021ZM64.9405 71.6743L64.28 79.8451L68.566 80.1915L69.2265 72.0207L64.9405 71.6743ZM72.6659 74.5679L68.9087 70.1613L65.6366 72.9512L69.3938 77.3578L72.6659 74.5679ZM68.9087 70.1613L68.8476 70.0896L65.5754 72.8795L65.6366 72.9512L68.9087 70.1613ZM68.8475 70.0895L68.8214 70.0589L65.5495 72.849L65.5755 72.8796L68.8475 70.0895ZM68.8215 70.0591L68.7719 70.0009L65.4998 72.7907L65.5493 72.8489L68.8215 70.0591ZM68.772 70.001L68.7575 69.984L65.4852 72.7737L65.4997 72.7907L68.772 70.001ZM68.7574 69.9839L68.7061 69.9237L65.434 72.7136L65.4853 72.7738L68.7574 69.9839ZM68.7061 69.9237L68.5633 69.7563L65.2912 72.5461L65.434 72.7136L68.7061 69.9237ZM68.5633 69.7562L65.048 65.6333L61.7759 68.4232L65.2912 72.5461L68.5633 69.7562ZM70.7005 68.7582L67.3295 69.2018L67.8905 73.4651L71.2615 73.0215L70.7005 68.7582ZM67.3295 69.2018L66.932 69.2541L67.493 73.5174L67.8905 73.4651L67.3295 69.2018ZM66.932 69.2541L66.8553 69.2642L67.4164 73.5275L67.4931 73.5174L66.932 69.2541ZM66.8554 69.2642L66.8394 69.2663L67.4003 73.5296L67.4163 73.5275L66.8554 69.2642ZM66.8306 69.2675L66.708 69.2841L67.2865 73.545L67.4091 73.5284L66.8306 69.2675ZM66.7153 69.2826L66.7057 69.2839L67.2674 73.5471L67.277 73.5458L66.7153 69.2826ZM66.706 69.2839L60.9817 70.0371L61.5427 74.3004L67.2671 73.5471L66.706 69.2839ZM75.916 82.7261L65.3619 93.1996L68.3908 96.2518L78.9449 85.7783L75.916 82.7261ZM66.8764 94.7257C65.4439 96.3291 65.4445 96.3296 65.4452 96.3301C65.4454 96.3304 65.4461 96.3309 65.4465 96.3314C65.4475 96.3322 65.4486 96.3332 65.4497 96.3342C65.4521 96.3363 65.4548 96.3387 65.4579 96.3415C65.4642 96.347 65.4721 96.3539 65.4815 96.3622C65.5004 96.3787 65.5257 96.4005 65.5571 96.4272C65.6198 96.4807 65.7074 96.5538 65.8182 96.6432C66.0396 96.8218 66.3554 97.0663 66.7541 97.3489C67.5484 97.9117 68.6887 98.6377 70.0819 99.293C72.8363 100.589 76.8053 101.71 81.0695 100.442L79.8433 96.3203C76.9894 97.1694 74.1683 96.4634 71.9123 95.4021C70.8002 94.8789 69.8802 94.2939 69.2404 93.8405C68.9221 93.615 68.6775 93.425 68.5177 93.2961C68.4379 93.2318 68.3797 93.183 68.3443 93.1529C68.3266 93.1378 68.3147 93.1275 68.3087 93.1223C68.3057 93.1197 68.3042 93.1183 68.3042 93.1183C68.3042 93.1184 68.3046 93.1187 68.3054 93.1194C68.3058 93.1197 68.3062 93.1201 68.3068 93.1206C68.3071 93.1209 68.3076 93.1213 68.3077 93.1215C68.3083 93.1219 68.3088 93.1224 66.8764 94.7257ZM71.5114 1.63523L60.9288 37.1002L65.0493 38.3297L75.6319 2.86477L71.5114 1.63523ZM134.909 60.0957L146.935 22.2989L142.838 20.9951L130.811 58.7918L134.909 60.0957ZM144.285 19.5828L119.231 26.8804L120.433 31.0088L145.488 23.7112L144.285 19.5828ZM121.853 28.2123L113.262 4.49674L109.219 5.96134L117.81 29.6769L121.853 28.2123ZM110.054 3.43614L89.2833 17.183L91.6565 20.7688L112.427 7.02193L110.054 3.43614ZM91.9824 17.4478L75.0841 0.721946L72.0592 3.77805L88.9574 20.5039L91.9824 17.4478ZM111.097 58.9876C118.178 60.3778 125.505 61.3133 132.777 61.5922L132.942 57.2953C125.923 57.0262 118.819 56.1215 111.926 54.7682L111.097 58.9876ZM61.6618 39.4064C67.2558 43.796 76.4352 48.4968 87.3625 52.4317L88.8193 48.386C78.11 44.5296 69.4054 40.0169 64.3163 36.0236L61.6618 39.4064ZM89.6848 53.1344C93.6119 48.436 98.2502 47.1705 101.806 48.095C105.321 49.0087 108.399 52.2206 108.967 57.8496L113.245 57.4182C112.527 50.2961 108.415 45.3703 102.888 43.9334C97.4025 42.5072 91.1485 44.6782 86.3855 50.3767L89.6848 53.1344ZM60.1607 58.0499C60.6541 54.7368 63.4957 52.2237 66.8254 51.6276C69.9992 51.0593 73.399 52.2823 75.1244 56.3937L79.0894 54.7297C76.5108 48.5852 71.0275 46.5068 66.0676 47.3949C61.2637 48.2549 56.7209 51.9556 55.9076 57.4165L60.1607 58.0499ZM60.8126 111.397C64.7183 122.605 78.1822 129.254 90.5411 128.445C96.825 128.034 103.039 125.703 107.807 120.905C112.587 116.093 115.732 108.982 116.198 99.3482L111.903 99.1406C111.478 107.919 108.652 113.953 104.756 117.874C100.848 121.808 95.682 123.799 90.2604 124.154C79.2084 124.877 67.9586 118.836 64.8731 109.982L60.8126 111.397ZM113.581 97.1462L62.3739 108.592L63.3118 112.788L114.519 101.343L113.581 97.1462ZM113.802 107.015C109.581 103.725 104.204 104.083 100.188 106.219C96.2041 108.339 92.9643 112.548 93.5631 117.581L97.833 117.073C97.5061 114.325 99.2652 111.581 102.208 110.016C105.118 108.467 108.595 108.408 111.158 110.406L113.802 107.015ZM96.773 115.465C92.9138 113.238 88.5436 113.744 85.5208 115.994C82.4433 118.285 80.8241 122.347 82.4175 126.815L86.4677 125.371C85.5388 122.766 86.4542 120.66 88.0885 119.443C89.7774 118.186 92.296 117.846 94.6231 119.189L96.773 115.465ZM84.16 128.225C90.2277 129.029 96.6272 128.185 102.137 125.165C107.686 122.124 112.205 116.942 114.536 109.341L110.425 108.081C108.413 114.643 104.608 118.908 100.071 121.394C95.4948 123.902 90.0467 124.667 84.7251 123.962L84.16 128.225Z" fill="#FF6956"/>
<path d="M26.5922 169.247L20.5817 150.942H26.5375L29.0237 160.45L31.865 150.942H35.362L38.258 160.45L40.6895 150.942H46.6454L40.6895 169.247H36.8373L33.6408 159.548L30.4443 169.247H26.5922Z" fill="#FF6956"/>
<path d="M48.961 169.247V150.942H62.4573V155.177H54.07V164.876H62.4573V169.247H48.961ZM51.8297 162.034V157.936H61.5284V162.034H51.8297Z" fill="#FF6956"/>
<path d="M66.2756 169.247V150.942H71.3846V164.739H79.3348V169.247H66.2756Z" fill="#FF6956"/>
<path d="M90.393 169.657C89.1545 169.657 87.9524 169.447 86.7867 169.028C85.6393 168.591 84.6011 167.963 83.6722 167.143C82.7615 166.324 82.033 165.322 81.4866 164.138C80.9584 162.954 80.6943 161.606 80.6943 160.095C80.6943 158.583 80.9584 157.235 81.4866 156.051C82.033 154.867 82.7615 153.866 83.6722 153.046C84.6011 152.226 85.6393 151.607 86.7867 151.188C87.9524 150.751 89.1545 150.532 90.393 150.532C91.3584 150.532 92.2508 150.669 93.0704 150.942C93.89 151.215 94.6095 151.616 95.2287 152.144V157.089C94.7552 156.689 94.2907 156.361 93.8354 156.106C93.3983 155.851 92.9247 155.66 92.4147 155.532C91.9048 155.386 91.2946 155.314 90.5843 155.314C89.7647 155.314 88.9997 155.523 88.2894 155.942C87.5972 156.361 87.0326 156.935 86.5955 157.663C86.1584 158.373 85.9398 159.184 85.9398 160.095C85.9398 161.005 86.1584 161.825 86.5955 162.553C87.0326 163.264 87.5972 163.828 88.2894 164.247C88.9997 164.666 89.7647 164.876 90.5843 164.876C91.6407 164.876 92.4967 164.73 93.1524 164.439C93.8081 164.129 94.5002 163.683 95.2287 163.1V168.045C94.6095 168.573 93.89 168.974 93.0704 169.247C92.2508 169.52 91.3584 169.657 90.393 169.657Z" fill="#FF6956"/>
<path d="M106.642 169.657C105.404 169.657 104.211 169.447 103.063 169.028C101.934 168.591 100.923 167.963 100.031 167.143C99.1381 166.324 98.4278 165.322 97.8996 164.138C97.3896 162.954 97.1346 161.606 97.1346 160.095C97.1346 158.583 97.3896 157.235 97.8996 156.051C98.4278 154.867 99.1381 153.866 100.031 153.046C100.923 152.226 101.934 151.607 103.063 151.188C104.211 150.751 105.404 150.532 106.642 150.532C107.881 150.532 109.065 150.751 110.194 151.188C111.341 151.607 112.361 152.226 113.254 153.046C114.146 153.866 114.847 154.867 115.357 156.051C115.886 157.235 116.15 158.583 116.15 160.095C116.15 161.606 115.886 162.954 115.357 164.138C114.847 165.322 114.146 166.324 113.254 167.143C112.361 167.963 111.341 168.591 110.194 169.028C109.065 169.447 107.881 169.657 106.642 169.657ZM106.642 164.876C107.462 164.876 108.19 164.666 108.828 164.247C109.483 163.828 109.993 163.264 110.358 162.553C110.722 161.825 110.904 161.005 110.904 160.095C110.904 159.184 110.722 158.373 110.358 157.663C109.993 156.935 109.483 156.361 108.828 155.942C108.19 155.523 107.462 155.314 106.642 155.314C105.823 155.314 105.094 155.523 104.456 155.942C103.819 156.361 103.309 156.935 102.927 157.663C102.562 158.373 102.38 159.184 102.38 160.095C102.38 161.005 102.562 161.825 102.927 162.553C103.309 163.264 103.819 163.828 104.456 164.247C105.094 164.666 105.823 164.876 106.642 164.876Z" fill="#FF6956"/>
<path d="M119.148 169.247V150.669H120.951L128.765 158.592L136.579 150.669H138.382V169.247H133.273V160.231L129.53 164.466H128L124.257 160.231V169.247H119.148Z" fill="#FF6956"/>
<path d="M142.473 169.247V150.942H155.97V155.177H147.582V164.876H155.97V169.247H142.473ZM145.342 162.034V157.936H155.041V162.034H145.342Z" fill="#FF6956"/>
<path d="M34.7821 195.863V176.234H40.2606V195.863H34.7821ZM29.4501 180.775V176.234H45.5926V180.775H29.4501Z" fill="#39274E"/>
<path d="M56.7993 196.303C55.4711 196.303 54.1918 196.078 52.9614 195.629C51.7504 195.16 50.6665 194.486 49.7094 193.607C48.7524 192.729 47.9907 191.654 47.4243 190.385C46.8774 189.115 46.604 187.67 46.604 186.049C46.604 184.428 46.8774 182.982 47.4243 181.713C47.9907 180.443 48.7524 179.369 49.7094 178.49C50.6665 177.611 51.7504 176.947 52.9614 176.498C54.1918 176.029 55.4711 175.795 56.7993 175.795C58.1274 175.795 59.3969 176.029 60.6079 176.498C61.8383 176.947 62.9321 177.611 63.8891 178.49C64.8461 179.369 65.5981 180.443 66.145 181.713C66.7114 182.982 66.9946 184.428 66.9946 186.049C66.9946 187.67 66.7114 189.115 66.145 190.385C65.5981 191.654 64.8461 192.729 63.8891 193.607C62.9321 194.486 61.8383 195.16 60.6079 195.629C59.3969 196.078 58.1274 196.303 56.7993 196.303ZM56.7993 191.176C57.6782 191.176 58.4594 190.951 59.143 190.502C59.8461 190.053 60.393 189.447 60.7836 188.686C61.1743 187.904 61.3696 187.025 61.3696 186.049C61.3696 185.072 61.1743 184.203 60.7836 183.441C60.393 182.66 59.8461 182.045 59.143 181.596C58.4594 181.146 57.6782 180.922 56.7993 180.922C55.9204 180.922 55.1391 181.146 54.4555 181.596C53.7719 182.045 53.2251 182.66 52.8149 183.441C52.4243 184.203 52.229 185.072 52.229 186.049C52.229 187.025 52.4243 187.904 52.8149 188.686C53.2251 189.447 53.7719 190.053 54.4555 190.502C55.1391 190.951 55.9204 191.176 56.7993 191.176Z" fill="#39274E"/>
<path d="M86.6833 196.303C85.0622 196.303 83.5778 195.98 82.2301 195.336C80.8825 194.672 79.8083 193.725 79.0075 192.494C78.2067 191.264 77.8063 189.799 77.8063 188.1V176.176H83.2848V187.719C83.2848 188.383 83.402 188.979 83.6364 189.506C83.8903 190.033 84.2614 190.443 84.7497 190.736C85.2575 191.029 85.902 191.176 86.6833 191.176C87.4645 191.176 88.0993 191.029 88.5876 190.736C89.0954 190.443 89.4665 190.033 89.7008 189.506C89.9547 188.979 90.0817 188.383 90.0817 187.719V176.176H95.5602V188.1C95.5602 189.799 95.1598 191.264 94.359 192.494C93.5583 193.725 92.484 194.672 91.1364 195.336C89.8083 195.98 88.3239 196.303 86.6833 196.303Z" fill="#39274E"/>
<path d="M107.939 196.303C106.318 196.303 104.833 195.98 103.486 195.336C102.138 194.672 101.064 193.725 100.263 192.494C99.4622 191.264 99.0618 189.799 99.0618 188.1V176.176H104.54V187.719C104.54 188.383 104.657 188.979 104.892 189.506C105.146 190.033 105.517 190.443 106.005 190.736C106.513 191.029 107.157 191.176 107.939 191.176C108.72 191.176 109.355 191.029 109.843 190.736C110.351 190.443 110.722 190.033 110.956 189.506C111.21 188.979 111.337 188.383 111.337 187.719V176.176H116.816V188.1C116.816 189.799 116.415 191.264 115.615 192.494C114.814 193.725 113.74 194.672 112.392 195.336C111.064 195.98 109.579 196.303 107.939 196.303Z" fill="#39274E"/>
<path d="M129.048 196.303C128.149 196.303 127.192 196.264 126.177 196.186C125.181 196.127 124.204 196.029 123.247 195.893C122.29 195.775 121.411 195.639 120.61 195.482V176.586C121.86 176.371 123.179 176.186 124.565 176.029C125.972 175.854 127.319 175.766 128.608 175.766C130.561 175.766 132.329 176.156 133.911 176.937C135.493 177.719 136.753 178.852 137.69 180.336C138.628 181.82 139.097 183.617 139.097 185.727C139.097 187.172 138.852 188.539 138.364 189.828C137.895 191.098 137.222 192.221 136.343 193.197C135.464 194.174 134.409 194.936 133.179 195.482C131.948 196.029 130.571 196.303 129.048 196.303ZM128.784 191.176C129.78 191.176 130.62 190.951 131.304 190.502C132.007 190.033 132.544 189.408 132.915 188.627C133.286 187.846 133.472 186.977 133.472 186.02C133.472 185.004 133.286 184.115 132.915 183.354C132.544 182.572 132.007 181.967 131.304 181.537C130.62 181.107 129.78 180.893 128.784 180.893C128.335 180.893 127.866 180.932 127.378 181.01C126.909 181.068 126.479 181.146 126.089 181.244V190.824C126.538 190.961 126.997 191.059 127.466 191.117C127.934 191.156 128.374 191.176 128.784 191.176Z" fill="#39274E"/>
<path d="M142.569 188.832V176.234H146.729V188.832H142.569ZM144.649 196.42C143.926 196.42 143.301 196.166 142.774 195.658C142.266 195.131 142.012 194.506 142.012 193.783C142.012 193.041 142.266 192.416 142.774 191.908C143.301 191.4 143.926 191.146 144.649 191.146C145.372 191.146 145.987 191.4 146.495 191.908C147.022 192.416 147.286 193.041 147.286 193.783C147.286 194.506 147.022 195.131 146.495 195.658C145.987 196.166 145.372 196.42 144.649 196.42Z" fill="#39274E"/>
</svg>
