<svg width="176" height="203" viewBox="0 0 176 203" fill="none" xmlns="http://www.w3.org/2000/svg">
<path d="M144.341 73.3467L144.943 75.4109L144.943 75.4109L144.341 73.3467ZM148.681 103.446L149.283 105.51L148.681 103.446ZM142.701 86.9885C142.204 85.9103 140.927 85.4394 139.849 85.9368C138.77 86.4342 138.299 87.7114 138.797 88.7897L142.701 86.9885ZM142.705 97.2629C143.203 98.3411 144.48 98.812 145.558 98.3146C146.636 97.8173 147.107 96.54 146.61 95.4618L142.705 97.2629ZM137.119 74.5526C136.171 75.2667 135.981 76.6147 136.695 77.5633C137.409 78.512 138.757 78.7022 139.705 77.988L137.119 74.5526ZM136.723 98.7974C135.946 97.8993 134.588 97.801 133.69 98.5778C132.792 99.3546 132.694 100.712 133.471 101.61L136.723 98.7974ZM151.287 86.1129C152.474 86.1055 153.431 85.1369 153.424 83.9496C153.416 82.7622 152.448 81.8056 151.26 81.813L151.287 86.1129ZM136.456 86.7405C135.498 87.4413 135.289 88.7865 135.989 89.7451C136.69 90.7036 138.035 90.9126 138.994 90.2118L136.456 86.7405ZM30.2688 73.8273L30.8701 71.763L30.2688 73.8273ZM26.2827 101.472L26.8839 99.408L26.2827 101.472ZM35.5204 88.0844C36.0177 87.0062 35.5468 85.7289 34.4686 85.2315C33.3904 84.7342 32.1131 85.2051 31.6157 86.2833L35.5204 88.0844ZM28.026 94.0656C27.5286 95.1438 27.9995 96.4211 29.0777 96.9184C30.1559 97.4158 31.4332 96.9449 31.9306 95.8667L28.026 94.0656ZM34.7582 78.4924C35.6835 79.2366 37.0368 79.0898 37.781 78.1645C38.5252 77.2392 38.3784 75.8859 37.4531 75.1417L34.7582 78.4924ZM39.0363 101.249C39.9364 100.474 40.0383 99.1167 39.2639 98.2166C38.4894 97.3164 37.132 97.2145 36.2318 97.989L39.0363 101.249ZM23.9151 81.4279C22.7277 81.4205 21.7591 82.3771 21.7518 83.5645C21.7444 84.7518 22.701 85.7204 23.8884 85.7278L23.9151 81.4279ZM34.2984 89.6318C35.2464 90.3469 36.5945 90.1581 37.3096 89.2102C38.0247 88.2623 37.836 86.9141 36.888 86.199L34.2984 89.6318ZM135.63 69.2901L133.566 69.8914L135.63 69.2901ZM100.945 132.485L101.546 134.55L100.945 132.485ZM37.7494 97.7998L39.8136 97.1985L37.7494 97.7998ZM133.655 58.6952C133.101 57.6451 131.8 57.2431 130.75 57.7974C129.7 58.3517 129.298 59.6523 129.853 60.7024L133.655 58.6952ZM64.1925 40.2019C65.247 39.6561 65.6594 38.3587 65.1135 37.3042C64.5677 36.2497 63.2703 35.8373 62.2158 36.3832L64.1925 40.2019ZM102.763 70.6134L104.818 69.9816C104.631 69.3744 104.186 68.8809 103.601 68.6334C103.016 68.3859 102.351 68.4097 101.786 68.6984L102.763 70.6134ZM101.461 71.0711L101.899 73.176L101.461 71.0711ZM95.1954 66.8729L97.3002 66.4346L95.1954 66.8729ZM95.5608 63.5123L97.5193 64.3993C97.8389 63.6934 97.754 62.8701 97.297 62.2443C96.84 61.6186 96.0816 61.2871 95.312 61.3768L95.5608 63.5123ZM94.7596 63.6828L94.1246 61.6287L94.1246 61.6287L94.7596 63.6828ZM92.549 65.2226L90.8434 63.9137L90.8434 63.9137L92.549 65.2226ZM91.4509 67.7217L89.3506 67.2619L89.3506 67.2619L91.4509 67.7217ZM92.8102 76.6032L90.8769 77.5439L90.8769 77.5439L92.8102 76.6032ZM97.199 81.2031L96.4714 83.2262L96.4714 83.2262L97.199 81.2031ZM99.9273 81.279L100.54 83.3398L100.54 83.3398L99.9273 81.279ZM102.164 79.7294L103.876 81.0295L103.876 81.0295L102.164 79.7294ZM103.23 77.3062L105.328 77.7761L105.328 77.7761L103.23 77.3062ZM103.363 73.4264L105.498 73.1714L105.498 73.1714L103.363 73.4264ZM93.0728 65.5693C93.4074 66.7086 94.6022 67.3609 95.7415 67.0263C96.8808 66.6918 97.5331 65.4969 97.1985 64.3576L93.0728 65.5693ZM98.4879 68.7479C98.1533 67.6086 96.9585 66.9563 95.8192 67.2909C94.6799 67.6255 94.0276 68.8203 94.3621 69.9596L98.4879 68.7479ZM100.886 73.1971C102.003 72.7936 102.581 71.5612 102.178 70.4444C101.774 69.3277 100.542 68.7495 99.4249 69.153L100.886 73.1971ZM99.9959 71.2607C100.377 70.1361 99.7743 68.9155 98.6497 68.5344C97.5251 68.1533 96.3045 68.7559 95.9234 69.8805L99.9959 71.2607ZM92.8664 78.9005C92.4853 80.0251 93.088 81.2457 94.2126 81.6268C95.3372 82.008 96.5578 81.4053 96.9389 80.2807L92.8664 78.9005ZM99.1972 69.9313C99.1812 68.744 98.2058 67.7945 97.0184 67.8105C95.8311 67.8265 94.8816 68.802 94.8976 69.9893L99.1972 69.9313ZM100.05 72.3389C100.885 71.4946 100.877 70.1333 100.033 69.2984C99.1883 68.4636 97.827 68.4713 96.9922 69.3157L100.05 72.3389ZM72.5889 71.4367L74.684 71.9197C74.8243 71.3109 74.6929 70.6711 74.3238 70.1669C73.9548 69.6627 73.3847 69.3439 72.7618 69.2937L72.5889 71.4367ZM70.8166 70.9465L71.7677 69.0183L70.8166 70.9465ZM68.5981 64.0998L66.6698 63.1487L66.6698 63.1487L68.5981 64.0998ZM69.0747 63.3122L70.8107 64.5806C71.2598 63.9659 71.3504 63.1595 71.0488 62.4605C70.7472 61.7615 70.0985 61.2741 69.3432 61.179L69.0747 63.3122ZM67.4889 63.4227L66.9439 61.3429L66.9439 61.3429L67.4889 63.4227ZM65.1962 64.6652L63.8204 63.013L63.8204 63.013L65.1962 64.6652ZM61.7154 69.7789L59.716 68.9884L59.716 68.9884L61.7154 69.7789ZM61.564 78.2174L59.7411 79.3573L59.7411 79.3573L61.564 78.2174ZM68.3711 78.8142L69.7391 80.4728L69.7391 80.4728L68.3711 78.8142ZM70.2879 68.7768C70.7267 67.6734 70.1878 66.4233 69.0844 65.9846C67.981 65.5458 66.7309 66.0847 66.2922 67.1881L70.2879 68.7768ZM66.7205 71.4142L67.392 69.3718L67.3879 69.3704L66.7205 71.4142ZM70.6284 71.7346C71.6193 71.0802 71.8921 69.7465 71.2377 68.7557C70.5834 67.7648 69.2497 67.4921 68.2588 68.1464L70.6284 71.7346ZM59.6096 73.8582C58.6188 74.5126 58.346 75.8463 59.0004 76.8371C59.6547 77.828 60.9884 78.1008 61.9792 77.4464L59.6096 73.8582ZM70.3726 70.1577C71.09 69.2115 70.9045 67.8629 69.9582 67.1455C69.012 66.4282 67.6634 66.6137 66.946 67.5599L70.3726 70.1577ZM70.9859 73.0215C72.1631 72.8665 72.9919 71.7866 72.837 70.6093C72.682 69.4321 71.6021 68.6033 70.4248 68.7582L70.9859 73.0215ZM78.6692 85.7783C79.5121 84.9419 79.5173 83.5806 78.6809 82.7378C77.8445 81.8949 76.4832 81.8897 75.6403 82.7261L78.6692 85.7783ZM66.6007 94.7257L65.0863 93.1996C64.6656 93.6171 64.436 94.1896 64.4515 94.7821C64.467 95.3745 64.7264 95.9342 65.1683 96.3291L66.6007 94.7257ZM80.7939 100.442C81.932 100.103 82.5801 98.906 82.2415 97.7679C81.9029 96.6298 80.7057 95.9817 79.5676 96.3203L80.7939 100.442ZM73.296 2.25L74.8085 0.721946C74.2716 0.190584 73.4953 -0.0200902 72.7635 0.166982C72.0317 0.354054 71.4517 0.91143 71.2358 1.63523L73.296 2.25ZM62.7134 37.715L60.6532 37.1002C60.4006 37.9465 60.6913 38.8612 61.3861 39.4064L62.7134 37.715ZM132.584 59.4437L132.502 61.5922C133.468 61.6292 134.34 61.0169 134.633 60.0957L132.584 59.4437ZM144.611 21.647L146.66 22.2989C146.9 21.542 146.704 20.7141 146.15 20.1456C145.595 19.5771 144.772 19.3607 144.01 19.5828L144.611 21.647ZM119.556 28.9446L117.535 29.6769C117.921 30.743 119.069 31.3259 120.158 31.0088L119.556 28.9446ZM110.965 5.22904L112.986 4.49674C112.762 3.87706 112.266 3.39459 111.64 3.1877C111.014 2.98082 110.328 3.07239 109.778 3.43614L110.965 5.22904ZM90.1943 18.9759L88.6818 20.5039C89.4053 21.2201 90.5319 21.3306 91.3809 20.7688L90.1943 18.9759ZM111.65 54.7682C110.485 54.5394 109.355 55.2985 109.126 56.4637C108.897 57.6289 109.656 58.7589 110.822 58.9876L111.65 54.7682ZM87.0868 52.4317C88.204 52.834 89.4358 52.2545 89.8381 51.1373C90.2404 50.0201 89.6609 48.7883 88.5437 48.386L87.0868 52.4317ZM86.1099 50.3767C85.3484 51.2878 85.4696 52.6437 86.3807 53.4052C87.2918 54.1667 88.6477 54.0455 89.4092 53.1344L86.1099 50.3767ZM108.691 57.8496C108.81 59.031 109.865 59.8922 111.046 59.773C112.227 59.6539 113.089 58.5996 112.969 57.4182L108.691 57.8496ZM55.632 57.4165C55.4571 58.591 56.2674 59.6849 57.4419 59.8598C58.6163 60.0347 59.7102 59.2244 59.8851 58.0499L55.632 57.4165ZM74.8488 56.3937C75.3083 57.4886 76.5684 58.0037 77.6633 57.5442C78.7582 57.0847 79.2733 55.8246 78.8138 54.7297L74.8488 56.3937ZM62.5672 110.69L62.0982 108.592C61.4996 108.725 60.9867 109.108 60.6885 109.644C60.3902 110.18 60.3351 110.818 60.5369 111.397L62.5672 110.69ZM113.774 99.2444L115.922 99.3482C115.954 98.6782 115.672 98.0314 115.159 97.5995C114.646 97.1675 113.96 96.9999 113.305 97.1462L113.774 99.2444ZM112.511 111.446C113.664 111.164 114.369 109.999 114.087 108.846C113.804 107.693 112.639 106.987 111.486 107.27L112.511 111.446ZM70.3045 117.371C69.1513 117.654 68.4457 118.818 68.7285 119.971C69.0114 121.124 70.1756 121.83 71.3288 121.547L70.3045 117.371ZM74.4638 123.166L73.515 125.095L74.4638 123.166ZM144.943 75.4109C149.292 74.1439 152.523 74.9143 154.765 76.569C157.066 78.2678 158.601 81.1045 159.08 84.4226C160.039 91.073 156.678 98.8773 148.08 101.382L149.283 105.51C160.28 102.307 164.547 92.208 163.336 83.8089C162.729 79.6021 160.73 75.6275 157.319 73.1095C153.848 70.5475 149.188 69.6957 143.74 71.2825L144.943 75.4109ZM138.797 88.7897L142.705 97.2629L146.61 95.4618L142.701 86.9885L138.797 88.7897ZM139.705 77.988C141.147 76.903 142.883 76.0109 144.943 75.4109L143.74 71.2825C141.196 72.0235 138.989 73.1455 137.119 74.5526L139.705 77.988ZM148.08 101.382C142.724 102.942 139.006 101.436 136.723 98.7974L133.471 101.61C136.953 105.637 142.465 107.496 149.283 105.51L148.08 101.382ZM151.26 81.813C145.765 81.8471 140.537 83.757 136.456 86.7405L138.994 90.2118C142.396 87.7247 146.755 86.141 151.287 86.1129L151.26 81.813ZM30.8701 71.763C25.8218 70.2926 21.4835 71.0782 18.2455 73.4683C15.0672 75.8144 13.212 79.5114 12.6496 83.4113C11.527 91.1969 15.4834 100.566 25.6814 103.536L26.8839 99.408C19.0844 97.1362 16.0351 90.0619 16.9056 84.025C17.3398 81.0137 18.7308 78.4547 20.7992 76.9279C22.8081 75.4451 25.7171 74.7408 29.6676 75.8915L30.8701 71.763ZM31.6157 86.2833L28.026 94.0656L31.9306 95.8667L35.5204 88.0844L31.6157 86.2833ZM37.4531 75.1417C35.628 73.6738 33.4327 72.5095 30.8701 71.763L29.6676 75.8915C31.7023 76.4841 33.3872 77.3898 34.7582 78.4924L37.4531 75.1417ZM25.6814 103.536C31.1423 105.127 35.7556 104.071 39.0363 101.249L36.2318 97.989C34.1938 99.7424 31.1352 100.646 26.8839 99.408L25.6814 103.536ZM23.8884 85.7278C28.0002 85.7533 31.0629 87.1909 34.2984 89.6318L36.888 86.199C33.1806 83.4022 29.2384 81.4609 23.9151 81.4279L23.8884 85.7278ZM133.566 69.8914C141.107 95.7804 126.233 122.881 100.343 130.421L101.546 134.55C129.715 126.345 145.899 96.858 137.695 68.6889L133.566 69.8914ZM100.343 130.421C74.4544 137.962 47.3542 123.088 39.8136 97.1985L35.6851 98.401C43.8899 126.57 73.3768 142.754 101.546 134.55L100.343 130.421ZM129.853 60.7024C131.369 63.576 132.621 66.6461 133.566 69.8914L137.695 68.6889C136.668 65.1635 135.307 61.8239 133.655 58.6952L129.853 60.7024ZM39.8136 97.1985C33.1803 74.4249 43.8929 50.7094 64.1925 40.2019L62.2158 36.3832C40.1264 47.8171 28.4663 73.6168 35.6851 98.401L39.8136 97.1985ZM101.786 68.6984C101.551 68.8179 101.297 68.9093 101.023 68.9663L101.899 73.176C102.552 73.0401 103.169 72.8201 103.74 72.5284L101.786 68.6984ZM101.023 68.9663C99.3718 69.3101 97.6732 68.2259 97.3002 66.4346L93.0905 67.3112C93.9306 71.3458 97.8426 74.0208 101.899 73.176L101.023 68.9663ZM97.3002 66.4346C97.1498 65.7124 97.2439 65.0073 97.5193 64.3993L93.6022 62.6254C92.9608 64.0418 92.7495 65.6736 93.0905 67.3112L97.3002 66.4346ZM95.3945 65.7369C95.542 65.6913 95.68 65.663 95.8095 65.6479L95.312 61.3768C94.9138 61.4232 94.5174 61.5073 94.1246 61.6287L95.3945 65.7369ZM94.2546 66.5315C94.5444 66.154 94.9069 65.8876 95.3945 65.7369L94.1246 61.6287C92.7459 62.0549 91.6491 62.8637 90.8434 63.9137L94.2546 66.5315ZM93.5511 68.1816C93.709 67.4603 93.9596 66.916 94.2546 66.5315L90.8434 63.9137C90.079 64.9097 89.6104 66.0755 89.3506 67.2619L93.5511 68.1816ZM93.4132 70.82C93.3345 69.839 93.3848 68.941 93.5511 68.1816L89.3506 67.2619C89.0764 68.5144 89.0214 69.848 89.1269 71.1639L93.4132 70.82ZM93.9314 73.559C93.6614 72.646 93.4849 71.714 93.4132 70.82L89.1269 71.1639C89.2239 72.3728 89.4589 73.5983 89.808 74.7787L93.9314 73.559ZM94.7434 75.6625C94.4229 75.0036 94.1485 74.293 93.9314 73.559L89.808 74.7787C90.0894 75.7298 90.4481 76.6626 90.8769 77.5439L94.7434 75.6625ZM97.9266 79.18C96.8949 78.8089 95.6973 77.6227 94.7434 75.6625L90.8769 77.5439C92.0503 79.9554 93.9177 82.3078 96.4714 83.2262L97.9266 79.18ZM99.3145 79.2182C98.8194 79.3654 98.3721 79.3402 97.9266 79.18L96.4714 83.2262C97.7409 83.6828 99.1277 83.7599 100.54 83.3398L99.3145 79.2182ZM100.452 78.4293C100.163 78.8093 99.8025 79.0731 99.3145 79.2182L100.54 83.3398C101.948 82.9212 103.063 82.1004 103.876 81.0295L100.452 78.4293ZM101.132 76.8364C100.976 77.5325 100.734 78.0576 100.452 78.4293L103.876 81.0295C104.613 80.0587 105.07 78.9277 105.328 77.7761L101.132 76.8364ZM101.228 73.6814C101.369 74.8622 101.331 75.9457 101.132 76.8364L105.328 77.7761C105.657 76.3077 105.683 74.7199 105.498 73.1714L101.228 73.6814ZM100.708 71.2452C100.956 72.0513 101.132 72.8767 101.228 73.6814L105.498 73.1714C105.37 72.1006 105.138 71.0232 104.818 69.9816L100.708 71.2452ZM92.6967 64.2886L93.0728 65.5693L97.1985 64.3576L96.8224 63.077L92.6967 64.2886ZM94.3621 69.9596L95.0059 72.1517L99.1317 70.94L98.4879 68.7479L94.3621 69.9596ZM95.0059 72.1517L95.1758 72.7301L99.3016 71.5184L99.1317 70.94L95.0059 72.1517ZM95.1758 72.73L95.1974 72.8036L99.3232 71.5921L99.3016 71.5185L95.1758 72.73ZM95.1974 72.8038L95.2036 72.8248L99.3293 71.613L99.3231 71.5919L95.1974 72.8038ZM95.2036 72.8248L95.2661 73.0374L99.3918 71.8257L99.3293 71.6131L95.2036 72.8248ZM95.2659 73.037L95.2674 73.0419L99.3934 71.831L99.3919 71.8261L95.2659 73.037ZM95.2675 73.0423L95.2942 73.1334L99.42 71.9219L99.3933 71.8307L95.2675 73.0423ZM95.2943 73.1334L97.8644 81.8849L101.99 80.6732L99.42 71.9218L95.2943 73.1334ZM99.4249 69.153L96.6892 70.1415L98.1504 74.1856L100.886 73.1971L99.4249 69.153ZM96.6891 70.1415L96.571 70.1841L98.0324 74.2282L98.1505 74.1855L96.6891 70.1415ZM96.5712 70.1841L96.5359 70.1968L97.997 74.241L98.0322 74.2283L96.5712 70.1841ZM96.5358 70.1969L96.471 70.2203L97.9323 74.2643L97.9971 74.2409L96.5358 70.1969ZM96.4711 70.2202L96.3482 70.2646L97.8094 74.3088L97.9322 74.2644L96.4711 70.2202ZM96.3473 70.265L96.3461 70.2654L97.8092 74.3089L97.8103 74.3084L96.3473 70.265ZM96.3471 70.265L96.336 70.2691L97.797 74.3132L97.8081 74.3092L96.3471 70.265ZM96.3359 70.2691L91.1391 72.1468L92.6004 76.1909L97.7971 74.3132L96.3359 70.2691ZM90.0939 69.3894L95.4935 73.783L98.2074 70.4477L92.8078 66.0541L90.0939 69.3894ZM95.4935 73.783L95.7096 73.9588L98.4235 70.6235L98.2074 70.4476L95.4935 73.783ZM95.7082 73.9577L95.7122 73.961L98.4288 70.6278L98.4248 70.6246L95.7082 73.9577ZM95.7138 73.9622L95.7223 73.9692L98.4357 70.6334L98.4272 70.6265L95.7138 73.9622ZM95.722 73.969L95.9525 74.1565L98.6665 70.8212L98.436 70.6336L95.722 73.969ZM95.9526 74.1566L96.0002 74.1953L98.7141 70.8599L98.6664 70.8212L95.9526 74.1566ZM96.0001 74.1952L96.0731 74.2546L98.7872 70.9194L98.7142 70.86L96.0001 74.1952ZM96.0732 74.2547L101.873 78.9739L104.587 75.6386L98.7871 70.9193L96.0732 74.2547ZM95.9234 69.8805L95.4982 71.135L99.5707 72.5152L99.9959 71.2607L95.9234 69.8805ZM95.4982 71.135L95.3836 71.4734L99.456 72.8536L99.5707 72.5152L95.4982 71.135ZM95.3835 71.4734L95.3625 71.5356L99.435 72.9158L99.456 72.8536L95.3835 71.4734ZM95.3625 71.5356L95.2927 71.7415L99.3652 73.1217L99.4349 72.9158L95.3625 71.5356ZM95.2936 71.7389L95.293 71.7407L99.3637 73.1261L99.3643 73.1243L95.2936 71.7389ZM95.2921 71.7433L95.2733 71.7988L99.3458 73.1789L99.3646 73.1234L95.2921 71.7433ZM95.2733 71.7988L95.054 72.4458L99.1265 73.826L99.3458 73.179L95.2733 71.7988ZM95.054 72.4458L92.8664 78.9005L96.9389 80.2807L99.1265 73.826L95.054 72.4458ZM99.3488 81.1741L99.24 73.1069L94.9404 73.1648L95.0492 81.2321L99.3488 81.1741ZM99.24 73.1069L99.2288 72.2723L94.9292 72.3303L94.9404 73.1648L99.24 73.1069ZM99.2288 72.272L99.2286 72.2575L94.929 72.316L94.9292 72.3305L99.2288 72.272ZM99.2286 72.2578L99.2269 72.132L94.9273 72.1899L94.929 72.3157L99.2286 72.2578ZM99.2269 72.132L99.2254 72.0232L94.9258 72.0811L94.9273 72.1899L99.2269 72.132ZM99.2254 72.0232L99.2186 71.5169L94.919 71.5749L94.9258 72.0811L99.2254 72.0232ZM99.2186 71.5169L99.1972 69.9313L94.8976 69.9893L94.919 71.5748L99.2186 71.5169ZM90.7569 66.4104L95.2835 73.24L98.8677 70.8643L94.3411 64.0348L90.7569 66.4104ZM95.2835 73.2399L95.3665 73.3651L98.9508 70.9896L98.8678 70.8644L95.2835 73.2399ZM95.3664 73.3651L95.3775 73.3817L98.9619 71.0064L98.9508 70.9897L95.3664 73.3651ZM95.3776 73.3819L95.4096 73.4302L98.9937 71.0544L98.9617 71.0062L95.3776 73.3819ZM95.4095 73.4301L95.5362 73.6212L99.1204 71.2456L98.9938 71.0546L95.4095 73.4301ZM95.5381 73.624L95.5401 73.6271L99.1206 71.2459L99.1186 71.2428L95.5381 73.624ZM95.5382 73.6242L95.638 73.7748L99.2223 71.3993L99.1225 71.2488L95.5382 73.6242ZM95.638 73.7748L100.372 80.9172L103.956 78.5416L99.2222 71.3992L95.638 73.7748ZM103.787 71.3187L97.823 70.118L96.9744 74.3334L102.939 75.5341L103.787 71.3187ZM97.8231 70.118L97.7261 70.0985L96.8773 74.3139L96.9743 74.3334L97.8231 70.118ZM97.7261 70.0985L97.6847 70.0901L96.8359 74.3055L96.8773 74.3139L97.7261 70.0985ZM97.6845 70.0901L97.6058 70.0743L96.7574 74.2897L96.836 74.3056L97.6845 70.0901ZM97.6059 70.0743L97.583 70.0697L96.7343 74.2851L96.7573 74.2897L97.6059 70.0743ZM97.5829 70.0697L97.5014 70.0532L96.6528 74.2687L96.7344 74.2851L97.5829 70.0697ZM97.5015 70.0533L97.2748 70.0076L96.4261 74.223L96.6528 74.2687L97.5015 70.0533ZM97.2748 70.0076L91.6944 68.8842L90.8457 73.0997L96.4262 74.223L97.2748 70.0076ZM96.9922 69.3157L96.0056 70.3135L99.0633 73.3367L100.05 72.3389L96.9922 69.3157ZM96.0056 70.3134L95.7098 70.6126L98.7675 73.6359L99.0633 73.3368L96.0056 70.3134ZM95.7097 70.6127L95.6527 70.6704L98.7105 73.6936L98.7676 73.6358L95.7097 70.6127ZM95.6531 70.67L95.6412 70.682L98.6982 73.7061L98.7101 73.694L95.6531 70.67ZM95.6347 70.6886L95.5438 70.7813L98.6138 73.7921L98.7047 73.6995L95.6347 70.6886ZM95.5477 70.7766L95.5406 70.7838L98.6004 73.8049L98.6076 73.7977L95.5477 70.7766ZM95.5416 70.7827L91.2813 75.0915L94.339 78.1148L98.5993 73.806L95.5416 70.7827ZM72.7618 69.2937C72.4261 69.2666 72.0905 69.1775 71.7677 69.0183L69.8656 72.8747C70.6849 73.2788 71.5497 73.5099 72.416 73.5798L72.7618 69.2937ZM71.7677 69.0183C70.3969 68.3421 69.7662 66.5918 70.5263 65.0508L66.6698 63.1487C64.9092 66.7184 66.2651 71.0988 69.8656 72.8747L71.7677 69.0183ZM70.5263 65.0508C70.6097 64.8816 70.7052 64.7249 70.8107 64.5806L67.3387 62.0438C67.0876 62.3874 66.8633 62.7564 66.6698 63.1487L70.5263 65.0508ZM68.0339 65.5025C68.3055 65.4313 68.56 65.4144 68.8062 65.4453L69.3432 61.179C68.5155 61.0748 67.7085 61.1426 66.9439 61.3429L68.0339 65.5025ZM66.572 66.3174C67.1079 65.8711 67.6041 65.6151 68.0339 65.5025L66.9439 61.3429C65.7684 61.6509 64.7199 62.264 63.8204 63.013L66.572 66.3174ZM64.9316 68.2112C65.4469 67.4292 66.0081 66.787 66.572 66.3174L63.8204 63.013C62.8706 63.804 62.0396 64.785 61.3409 65.8454L64.9316 68.2112ZM63.7148 70.5694C64.0482 69.7261 64.4623 68.9235 64.9316 68.2112L61.3409 65.8454C60.6989 66.8198 60.1512 67.8876 59.716 68.9884L63.7148 70.5694ZM63.0883 72.6219C63.2351 71.9407 63.4468 71.2472 63.7148 70.5694L59.716 68.9884C59.3653 69.8753 59.0835 70.7942 58.8849 71.7156L63.0883 72.6219ZM63.387 77.0775C62.8537 76.2247 62.6499 74.6549 63.0883 72.6219L58.8849 71.7156C58.3424 74.2318 58.3499 77.1324 59.7411 79.3573L63.387 77.0775ZM64.3465 77.8742C63.9149 77.7049 63.6142 77.4408 63.387 77.0775L59.7411 79.3573C60.4344 80.466 61.4462 81.3555 62.776 81.8772L64.3465 77.8742ZM65.5916 77.9414C65.1719 78.0537 64.7717 78.0411 64.3465 77.8742L62.776 81.8772C64.1015 82.3972 65.4444 82.432 66.7031 82.0952L65.5916 77.9414ZM67.0031 77.1555C66.4835 77.5841 66.0048 77.8308 65.5916 77.9414L66.7031 82.0952C67.8428 81.7903 68.8616 81.1965 69.7391 80.4728L67.0031 77.1555ZM68.9146 74.85C68.3285 75.8189 67.6679 76.6073 67.0031 77.1555L69.7391 80.4728C70.8581 79.5499 71.8175 78.3588 72.5938 77.0757L68.9146 74.85ZM70.0561 72.4394C69.7518 73.2877 69.3634 74.1081 68.9146 74.85L72.5938 77.0757C73.1968 76.0789 73.7066 74.9981 74.1036 73.8912L70.0561 72.4394ZM70.4939 70.9537C70.3803 71.4466 70.2333 71.9454 70.0561 72.4394L74.1036 73.8912C74.3357 73.244 74.531 72.5832 74.684 71.9197L70.4939 70.9537ZM66.2922 67.1881L65.1523 70.055L69.1481 71.6437L70.2879 68.7768L66.2922 67.1881ZM65.1523 70.055L64.939 70.5914L68.9348 72.1801L69.1481 71.6437L65.1523 70.055ZM64.939 70.5914L64.9119 70.6597L68.9077 72.2483L68.9348 72.1801L64.939 70.5914ZM64.9119 70.6595L64.9042 70.6791L68.8998 72.268L68.9076 72.2484L64.9119 70.6595ZM64.9041 70.6792L64.8257 70.8764L68.8215 72.4651L68.8999 72.2678L64.9041 70.6792ZM64.8259 70.876L64.8241 70.8806L68.8195 72.47L68.8213 72.4655L64.8259 70.876ZM64.8239 70.8809L64.7903 70.9654L68.786 72.5542L68.8196 72.4697L64.8239 70.8809ZM64.7903 70.9654L61.5634 79.0814L65.5591 80.6701L68.7861 72.5542L64.7903 70.9654ZM72.7476 71.1216L67.7171 69.478L66.3816 73.5653L71.4121 75.2089L72.7476 71.1216ZM67.7171 69.478L67.6036 69.4409L66.2681 73.5283L66.3816 73.5653L67.7171 69.478ZM67.6037 69.4409L67.5698 69.4298L66.2342 73.5172L66.2681 73.5282L67.6037 69.4409ZM67.5698 69.4298L67.5075 69.4095L66.172 73.4968L66.2343 73.5172L67.5698 69.4298ZM67.5074 69.4095L67.3893 69.3709L66.0539 73.4583L66.172 73.4969L67.5074 69.4095ZM67.3931 69.3721L67.392 69.3718L66.049 73.4567L66.0502 73.457L67.3931 69.3721ZM67.3879 69.3704L67.3772 69.3669L66.0425 73.4545L66.0531 73.458L67.3879 69.3704ZM67.3776 69.367L62.3831 67.7352L61.0477 71.8226L66.0421 73.4544L67.3776 69.367ZM63.0984 65.136L64.5538 71.6219L68.7494 70.6804L67.294 64.1945L63.0984 65.136ZM64.5538 71.6219L64.612 71.8815L68.8077 70.94L68.7494 70.6805L64.5538 71.6219ZM64.6118 71.8805L64.6129 71.8853L68.809 70.9457L68.8079 70.9409L64.6118 71.8805ZM64.6131 71.8863L64.6154 71.8965L68.811 70.9549L68.8087 70.9447L64.6131 71.8863ZM64.6154 71.8964L64.6775 72.1734L68.8732 71.2319L68.811 70.9549L64.6154 71.8964ZM64.6775 72.1733L64.6903 72.2305L68.886 71.2891L68.8732 71.2319L64.6775 72.1733ZM64.6904 72.2306L64.71 72.3183L68.9057 71.3767L68.886 71.289L64.6904 72.2306ZM64.71 72.3182L66.2733 79.2849L70.469 78.3434L68.9057 71.3768L64.71 72.3182ZM68.2588 68.1464L66.1496 69.5394L68.5192 73.1275L70.6284 71.7346L68.2588 68.1464ZM66.1496 69.5393L65.8646 69.7276L68.2341 73.3158L68.5191 73.1275L66.1496 69.5393ZM65.8645 69.7276L65.8122 69.7622L68.1818 73.3503L68.2342 73.3157L65.8645 69.7276ZM65.8122 69.7622L65.6388 69.8767L68.0084 73.4648L68.1818 73.3503L65.8122 69.7622ZM65.6393 69.8763L65.6378 69.8773L68.0064 73.4662L68.0079 73.4652L65.6393 69.8763ZM65.6372 69.8777L65.5905 69.9085L67.9602 73.4967L68.0069 73.4658L65.6372 69.8777ZM65.5906 69.9085L65.0457 70.2683L67.4153 73.8565L67.9601 73.4967L65.5906 69.9085ZM65.0457 70.2683L59.6096 73.8582L61.9792 77.4464L67.4153 73.8565L65.0457 70.2683ZM63.2773 79.5163L67.9437 73.3614L64.5172 70.7635L59.8508 76.9184L63.2773 79.5163ZM67.9437 73.3614L68.4265 72.7246L64.9999 70.1268L64.5172 70.7635L67.9437 73.3614ZM68.426 72.7253L68.4344 72.7142L65.0089 70.115L65.0004 70.1261L68.426 72.7253ZM68.4349 72.7135L68.5077 72.6175L65.0811 70.0198L65.0083 70.1157L68.4349 72.7135ZM68.5076 72.6176L68.5706 72.5345L65.144 69.9367L65.0811 70.0197L68.5076 72.6176ZM68.5706 72.5346L68.8634 72.1483L65.4369 69.5504L65.1441 69.9367L68.5706 72.5346ZM68.8635 72.1483L70.3726 70.1577L66.946 67.5599L65.4369 69.5504L68.8635 72.1483ZM65.3459 63.2494L64.7143 71.0624L69.0003 71.4089L69.6319 63.5959L65.3459 63.2494ZM64.7143 71.0624L64.7027 71.2056L68.9887 71.5521L69.0003 71.4089L64.7143 71.0624ZM64.7027 71.2057L64.7012 71.2248L68.9872 71.5711L68.9888 71.552L64.7027 71.2057ZM64.7012 71.2247L64.6967 71.28L68.9827 71.6264L68.9872 71.5711L64.7012 71.2247ZM64.6967 71.2799L64.6791 71.4985L68.9651 71.845L68.9827 71.6264L64.6967 71.2799ZM64.679 71.4989L64.6787 71.5025L68.9648 71.8481L68.9651 71.8446L64.679 71.4989ZM64.6788 71.5021L64.6648 71.6743L68.9509 72.0207L68.9648 71.8485L64.6788 71.5021ZM64.6648 71.6743L64.0043 79.8451L68.2904 80.1915L68.9509 72.0207L64.6648 71.6743ZM72.3902 74.5679L68.633 70.1613L65.3609 72.9512L69.1181 77.3578L72.3902 74.5679ZM68.633 70.1613L68.5719 70.0896L65.2998 72.8795L65.3609 72.9512L68.633 70.1613ZM68.5718 70.0895L68.5457 70.0589L65.2738 72.849L65.2999 72.8796L68.5718 70.0895ZM68.5459 70.0591L68.4963 70.0009L65.2241 72.7907L65.2737 72.8489L68.5459 70.0591ZM68.4963 70.001L68.4819 69.984L65.2096 72.7737L65.2241 72.7907L68.4963 70.001ZM68.4818 69.9839L68.4304 69.9237L65.1583 72.7136L65.2097 72.7738L68.4818 69.9839ZM68.4304 69.9237L68.2877 69.7563L65.0155 72.5461L65.1583 72.7136L68.4304 69.9237ZM68.2877 69.7562L64.7723 65.6333L61.5002 68.4232L65.0156 72.5461L68.2877 69.7562ZM70.4248 68.7582L67.0538 69.2018L67.6149 73.4651L70.9859 73.0215L70.4248 68.7582ZM67.0539 69.2018L66.6564 69.2541L67.2174 73.5174L67.6149 73.4651L67.0539 69.2018ZM66.6564 69.2541L66.5797 69.2642L67.1407 73.5275L67.2174 73.5174L66.6564 69.2541ZM66.5798 69.2642L66.5638 69.2663L67.1246 73.5296L67.1406 73.5275L66.5798 69.2642ZM66.5549 69.2675L66.4324 69.2841L67.0109 73.545L67.1335 73.5284L66.5549 69.2675ZM66.4397 69.2826L66.4301 69.2839L66.9917 73.5471L67.0014 73.5458L66.4397 69.2826ZM66.4304 69.2839L60.7061 70.0371L61.2671 74.3004L66.9914 73.5471L66.4304 69.2839ZM75.6403 82.7261L65.0863 93.1996L68.1152 96.2518L78.6692 85.7783L75.6403 82.7261ZM66.6007 94.7257C65.1683 96.3291 65.1689 96.3296 65.1695 96.3301C65.1698 96.3304 65.1704 96.3309 65.1709 96.3314C65.1719 96.3322 65.1729 96.3332 65.1741 96.3342C65.1764 96.3363 65.1792 96.3387 65.1823 96.3415C65.1886 96.347 65.1964 96.3539 65.2059 96.3622C65.2248 96.3787 65.25 96.4005 65.2814 96.4272C65.3442 96.4807 65.4317 96.5538 65.5425 96.6432C65.764 96.8218 66.0798 97.0663 66.4785 97.3489C67.2728 97.9117 68.4131 98.6377 69.8062 99.293C72.5607 100.589 76.5296 101.71 80.7939 100.442L79.5676 96.3203C76.7137 97.1694 73.8927 96.4634 71.6367 95.4021C70.5246 94.8789 69.6045 94.2939 68.9648 93.8405C68.6465 93.615 68.4018 93.425 68.2421 93.2961C68.1623 93.2318 68.104 93.183 68.0687 93.1529C68.051 93.1378 68.0391 93.1275 68.0331 93.1223C68.0301 93.1197 68.0286 93.1183 68.0286 93.1183C68.0286 93.1184 68.029 93.1187 68.0298 93.1194C68.0301 93.1197 68.0306 93.1201 68.0312 93.1206C68.0315 93.1209 68.032 93.1213 68.0321 93.1215C68.0326 93.1219 68.0332 93.1224 66.6007 94.7257ZM71.2358 1.63523L60.6532 37.1002L64.7736 38.3297L75.3562 2.86477L71.2358 1.63523ZM134.633 60.0957L146.66 22.2989L142.562 20.9951L130.535 58.7918L134.633 60.0957ZM144.01 19.5828L118.955 26.8804L120.158 31.0088L145.212 23.7112L144.01 19.5828ZM121.578 28.2123L112.986 4.49674L108.944 5.96134L117.535 29.6769L121.578 28.2123ZM109.778 3.43614L89.0077 17.183L91.3809 20.7688L112.152 7.02193L109.778 3.43614ZM91.7067 17.4478L74.8085 0.721946L71.7835 3.77805L88.6818 20.5039L91.7067 17.4478ZM110.822 58.9876C117.902 60.3778 125.23 61.3133 132.502 61.5922L132.667 57.2953C125.647 57.0262 118.543 56.1215 111.65 54.7682L110.822 58.9876ZM61.3861 39.4064C66.9801 43.796 76.1596 48.4968 87.0868 52.4317L88.5437 48.386C77.8344 44.5296 69.1297 40.0169 64.0406 36.0236L61.3861 39.4064ZM89.4092 53.1344C93.3362 48.436 97.9746 47.1705 101.53 48.095C105.045 49.0087 108.123 52.2206 108.691 57.8496L112.969 57.4182C112.251 50.2961 108.139 45.3703 102.612 43.9334C97.1269 42.5072 90.8729 44.6782 86.1099 50.3767L89.4092 53.1344ZM59.8851 58.0499C60.3785 54.7368 63.22 52.2237 66.5498 51.6276C69.7236 51.0593 73.1234 52.2823 74.8488 56.3937L78.8138 54.7297C76.2351 48.5852 70.7519 46.5068 65.792 47.3949C60.9881 48.2549 56.4453 51.9556 55.632 57.4165L59.8851 58.0499ZM113.305 97.1462L62.0982 108.592L63.0362 112.788L114.243 101.343L113.305 97.1462ZM71.3288 121.547L112.511 111.446L111.486 107.27L70.3045 117.371L71.3288 121.547ZM60.5369 111.397C62.6535 117.471 67.5983 122.186 73.515 125.095L75.4125 121.237C70.2328 118.689 66.2515 114.729 64.5974 109.982L60.5369 111.397ZM73.515 125.095C81.5096 129.027 91.6924 129.869 100.157 126.018C108.777 122.097 115.239 113.484 115.922 99.3482L111.627 99.1406C111.01 111.899 105.33 118.941 98.3761 122.104C91.2664 125.338 82.4437 124.694 75.4125 121.237L73.515 125.095Z" fill="#FF6956"/>
<path d="M26.3165 169.247L20.306 150.942H26.2619L28.748 160.45L31.5894 150.942H35.0864L37.9824 160.45L40.4139 150.942H46.3697L40.4139 169.247H36.5617L33.3652 159.548L30.1687 169.247H26.3165Z" fill="#FF6956"/>
<path d="M48.6854 169.247V150.942H62.1817V155.177H53.7943V164.876H62.1817V169.247H48.6854ZM51.5541 162.034V157.936H61.2528V162.034H51.5541Z" fill="#FF6956"/>
<path d="M66 169.247V150.942H71.1089V164.739H79.0592V169.247H66Z" fill="#FF6956"/>
<path d="M90.1174 169.657C88.8789 169.657 87.6768 169.447 86.5111 169.028C85.3636 168.591 84.3255 167.963 83.3966 167.143C82.4859 166.324 81.7573 165.322 81.2109 164.138C80.6827 162.954 80.4186 161.606 80.4186 160.095C80.4186 158.583 80.6827 157.235 81.2109 156.051C81.7573 154.867 82.4859 153.866 83.3966 153.046C84.3255 152.226 85.3636 151.607 86.5111 151.188C87.6768 150.751 88.8789 150.532 90.1174 150.532C91.0827 150.532 91.9752 150.669 92.7948 150.942C93.6144 151.215 94.3338 151.616 94.9531 152.144V157.089C94.4796 156.689 94.0151 156.361 93.5598 156.106C93.1226 155.851 92.6491 155.66 92.1391 155.532C91.6291 155.386 91.019 155.314 90.3086 155.314C89.489 155.314 88.724 155.523 88.0137 155.942C87.3216 156.361 86.757 156.935 86.3199 157.663C85.8827 158.373 85.6642 159.184 85.6642 160.095C85.6642 161.005 85.8827 161.825 86.3199 162.553C86.757 163.264 87.3216 163.828 88.0137 164.247C88.724 164.666 89.489 164.876 90.3086 164.876C91.365 164.876 92.2211 164.73 92.8768 164.439C93.5324 164.129 94.2246 163.683 94.9531 163.1V168.045C94.3338 168.573 93.6144 168.974 92.7948 169.247C91.9752 169.52 91.0827 169.657 90.1174 169.657Z" fill="#FF6956"/>
<path d="M106.366 169.657C105.128 169.657 103.935 169.447 102.788 169.028C101.658 168.591 100.647 167.963 99.755 167.143C98.8625 166.324 98.1521 165.322 97.624 164.138C97.114 162.954 96.859 161.606 96.859 160.095C96.859 158.583 97.114 157.235 97.624 156.051C98.1521 154.867 98.8625 153.866 99.755 153.046C100.647 152.226 101.658 151.607 102.788 151.188C103.935 150.751 105.128 150.532 106.366 150.532C107.605 150.532 108.789 150.751 109.918 151.188C111.066 151.607 112.086 152.226 112.978 153.046C113.871 153.866 114.572 154.867 115.082 156.051C115.61 157.235 115.874 158.583 115.874 160.095C115.874 161.606 115.61 162.954 115.082 164.138C114.572 165.322 113.871 166.324 112.978 167.143C112.086 167.963 111.066 168.591 109.918 169.028C108.789 169.447 107.605 169.657 106.366 169.657ZM106.366 164.876C107.186 164.876 107.915 164.666 108.552 164.247C109.208 163.828 109.718 163.264 110.082 162.553C110.446 161.825 110.628 161.005 110.628 160.095C110.628 159.184 110.446 158.373 110.082 157.663C109.718 156.935 109.208 156.361 108.552 155.942C107.915 155.523 107.186 155.314 106.366 155.314C105.547 155.314 104.818 155.523 104.181 155.942C103.543 156.361 103.033 156.935 102.651 157.663C102.287 158.373 102.105 159.184 102.105 160.095C102.105 161.005 102.287 161.825 102.651 162.553C103.033 163.264 103.543 163.828 104.181 164.247C104.818 164.666 105.547 164.876 106.366 164.876Z" fill="#FF6956"/>
<path d="M118.873 169.247V150.669H120.676L128.489 158.592L136.303 150.669H138.106V169.247H132.997V160.231L129.254 164.466H127.725L123.982 160.231V169.247H118.873Z" fill="#FF6956"/>
<path d="M142.198 169.247V150.942H155.694V155.177H147.307V164.876H155.694V169.247H142.198ZM145.066 162.034V157.936H154.765V162.034H145.066Z" fill="#FF6956"/>
<path d="M56.5822 196.303C55.6838 196.303 54.6779 196.254 53.5647 196.156C52.4514 196.078 51.3869 195.971 50.3713 195.834C49.3752 195.697 48.5647 195.561 47.9397 195.424V176.527C49.1311 176.293 50.3908 176.107 51.719 175.971C53.0471 175.834 54.4143 175.766 55.8205 175.766C57.5393 175.766 58.9943 176.01 60.1857 176.498C61.3772 176.967 62.2854 177.631 62.9104 178.49C63.5549 179.35 63.8772 180.346 63.8772 181.479C63.8772 182.475 63.633 183.334 63.1447 184.057C62.676 184.779 62.0607 185.355 61.299 185.785C61.9045 186 62.4709 186.283 62.9982 186.635C63.5256 186.967 63.9455 187.406 64.258 187.953C64.59 188.5 64.7561 189.213 64.7561 190.092C64.7561 191.186 64.4436 192.211 63.8186 193.168C63.1936 194.105 62.2756 194.867 61.0647 195.453C59.8537 196.02 58.3596 196.303 56.5822 196.303ZM56.4943 191.762C57.2951 191.762 57.8908 191.557 58.2815 191.146C58.6916 190.736 58.8967 190.229 58.8967 189.623C58.8967 189.037 58.6623 188.617 58.1936 188.363C57.7248 188.109 57.09 187.982 56.2893 187.982H52.5393V184.32H56.465C57.1096 184.32 57.6076 184.164 57.9592 183.852C58.3107 183.539 58.4865 183.08 58.4865 182.475C58.4865 182.123 58.3986 181.791 58.2229 181.479C58.0666 181.166 57.8322 180.912 57.5197 180.717C57.2072 180.521 56.8068 180.424 56.3186 180.424C55.8498 180.424 55.3322 180.443 54.7658 180.482C54.219 180.521 53.7697 180.58 53.4182 180.658V191.41C53.6916 191.488 54.0236 191.557 54.4143 191.615C54.8244 191.674 55.2248 191.713 55.6154 191.732C56.0061 191.752 56.299 191.762 56.4943 191.762Z" fill="#39274E"/>
<path d="M65.4744 195.863L74.3807 175.941H77.1346L86.0408 195.863H79.6541L75.7576 184.789L71.8611 195.863H65.4744ZM69.8982 192.934V188.832H81.0604V192.934H69.8982Z" fill="#39274E"/>
<path d="M95.9877 196.303C94.6596 196.303 93.3705 196.078 92.1205 195.629C90.89 195.16 89.7768 194.486 88.7807 193.607C87.8041 192.729 87.0229 191.654 86.4369 190.385C85.8705 189.115 85.5873 187.67 85.5873 186.049C85.5873 184.428 85.8705 182.982 86.4369 181.713C87.0229 180.443 87.8041 179.369 88.7807 178.49C89.7768 177.611 90.89 176.947 92.1205 176.498C93.3705 176.029 94.6596 175.795 95.9877 175.795C97.0229 175.795 97.9799 175.941 98.8588 176.234C99.7377 176.527 100.509 176.957 101.173 177.523V182.826C100.665 182.396 100.167 182.045 99.6791 181.771C99.2104 181.498 98.7025 181.293 98.1557 181.156C97.6088 181 96.9545 180.922 96.1928 180.922C95.3139 180.922 94.4936 181.146 93.7318 181.596C92.9897 182.045 92.3842 182.66 91.9154 183.441C91.4467 184.203 91.2123 185.072 91.2123 186.049C91.2123 187.025 91.4467 187.904 91.9154 188.686C92.3842 189.447 92.9897 190.053 93.7318 190.502C94.4936 190.951 95.3139 191.176 96.1928 191.176C97.3256 191.176 98.2436 191.02 98.9467 190.707C99.6498 190.375 100.392 189.896 101.173 189.271V194.574C100.509 195.141 99.7377 195.57 98.8588 195.863C97.9799 196.156 97.0229 196.303 95.9877 196.303Z" fill="#39274E"/>
<path d="M109.011 190.561L105.524 188.012L115.427 176.234H121.726L109.011 190.561ZM104.089 195.863V176.234H109.567V195.863H104.089ZM115.368 195.863L108.513 186.195L112.79 183.295L122.106 195.863H115.368Z" fill="#39274E"/>
<path d="M124.846 188.832V176.234H129.006V188.832H124.846ZM126.926 196.42C126.204 196.42 125.579 196.166 125.051 195.658C124.544 195.131 124.29 194.506 124.29 193.783C124.29 193.041 124.544 192.416 125.051 191.908C125.579 191.4 126.204 191.146 126.926 191.146C127.649 191.146 128.264 191.4 128.772 191.908C129.299 192.416 129.563 193.041 129.563 193.783C129.563 194.506 129.299 195.131 128.772 195.658C128.264 196.166 127.649 196.42 126.926 196.42Z" fill="#39274E"/>
</svg>
