<svg  viewBox="0 0 24 24" fill="none" xmlns="http://www.w3.org/2000/svg">
<path d="M7.08049 13.3918C6.69873 12.6379 4.95686 10.382 4.76562 10.0819C3.66569 8.3554 1.37289 9.56003 2.48908 11.9208C2.75117 12.4751 4.34045 14.8581 5.8868 18.1157C8.24904 22.3391 13.6478 24.1544 17.6909 20.5838C19.5847 18.5235 19.6124 16.3187 19.9395 14.3827C20.2666 12.4465 21.6647 10.9147 22.0785 10.6248C24.5659 8.88265 20.0494 6.62923 18.3706 9.56003C17.9497 10.2946 17.8615 11.346 16.885 11.3022C16.1038 11.2671 15.6745 10.3347 15.4957 9.78172C14.8721 7.85279 13.3187 4.24037 12.8765 2.85698C12.2953 0.638736 9.36015 1.12325 9.87813 3.3414C10.0504 4.07931 10.494 5.43659 10.9734 6.79191M7.08049 13.3918C7.12204 13.4738 7.14748 13.5381 7.15305 13.5801C7.13959 13.5338 7.11496 13.4703 7.08049 13.3918ZM7.08049 13.3918C6.53745 12.1549 3.55134 7.18468 3.26153 6.62923C2.32578 4.83572 4.93895 3.18445 6.0432 4.97739L8.74046 9.49186M8.74046 9.49186L9.68335 11.07C9.7564 11.2195 9.55105 11.0723 9.47702 10.9121L8.74046 9.49186ZM8.74046 9.49186L5.71161 3.6515C4.55216 1.44245 7.84363 -0.158349 8.98764 2.46402L10.9734 6.79191M10.9734 6.79191L12.1668 9.39285C12.2589 9.63147 11.9705 9.47071 11.8687 9.20973C11.5959 8.51024 11.2774 7.65147 10.9734 6.79191Z" stroke="currentColor" stroke-linecap="round" stroke-linejoin="round"/>
</svg>
