<svg  viewBox="0 0 24 24" fill="none" xmlns="http://www.w3.org/2000/svg">
    <path stroke="currentColor" stroke-linecap="round" stroke-linejoin="round"   d="M6.335 21.89v-6.035c0-.566.46-1.024 1.03-1.024h2.06c.569 0 1.03.458 1.03 1.024v6.034m0-11.913c0 .565-.461 1.024-1.03 1.024h-2.06c-.57 0-1.03-.459-1.03-1.024V6.79c0-.566.46-1.024 1.03-1.024h2.06c.569 0 1.03.458 1.03 1.024v3.186Zm3.719 7.927v-2.048c0-.566.46-1.024 1.03-1.024h1.443c.569 0 1.03.458 1.03 1.024v2.048h-3.503Zm-.406-7.685V3a1 1 0 0 0-1-1H7a4 4 0 0 0-4 4v14a2 2 0 0 0 2 2h14a2 2 0 0 0 2-2v-6.782a2 2 0 0 0-2-2h-4.232a1 1 0 0 1-1-1Z"/>
</svg>
