<svg xmlns="http://www.w3.org/2000/svg"  fill="none" viewBox="0 0 24 24">
  <g class="Iconz/company">
    <path stroke="currentColor" stroke-linecap="round" stroke-linejoin="round" d="M5.905 22.639v-6.492c0-.608.496-1.102 1.108-1.102H9.23c.612 0 1.108.494 1.108 1.102v6.492m0-12.817c0 .609-.496 1.102-1.108 1.102H7.013a1.105 1.105 0 0 1-1.108-1.102V6.395c0-.609.496-1.102 1.108-1.102H9.23c.612 0 1.108.493 1.108 1.102v3.427Zm4 8.529v-2.204c0-.608.497-1.102 1.109-1.102h1.552c.613 0 1.109.494 1.109 1.102v2.204h-3.77Zm-.436-8.193V2.242a1 1 0 0 0-1-1H6.318a4 4 0 0 0-4 4v15.516a2 2 0 0 0 2 2h15.364a2 2 0 0 0 2-2v-7.6a2 2 0 0 0-2-2h-4.78a1 1 0 0 1-1-1Z" class="iconz"/>
  </g>
</svg>
