<svg xmlns="http://www.w3.org/2000/svg"  fill="none" viewBox="0 0 24 24">
  <g class="Iconz/dots_on">
    <path stroke="currentColor" stroke-linecap="round" stroke-linejoin="round"   d="M6.927 14.567a2.696 2.696 0 0 1 2.684 2.698 2.696 2.696 0 0 1-2.684 2.699 2.696 2.696 0 0 1-2.685-2.699 2.696 2.696 0 0 1 2.685-2.698Zm0-10.53A2.696 2.696 0 0 1 9.61 6.735a2.696 2.696 0 0 1-2.684 2.699 2.696 2.696 0 0 1-2.685-2.699 2.696 2.696 0 0 1 2.685-2.698Zm10.147 10.53a2.696 2.696 0 0 1 2.684 2.698 2.697 2.697 0 0 1-2.684 2.699 2.696 2.696 0 0 1-2.685-2.699 2.696 2.696 0 0 1 2.685-2.698Zm0-10.53a2.697 2.697 0 0 1 2.684 2.698 2.697 2.697 0 0 1-2.684 2.699 2.696 2.696 0 0 1-2.685-2.699 2.696 2.696 0 0 1 2.685-2.698Z" class="iconz"/>
  </g>
</svg>
