<svg viewBox="0 0 24 24" fill="none" xmlns="http://www.w3.org/2000/svg">
<path d="M2.9989 22.2615H21C21 17 13.9982 15.9432 13.9982 15.9432L12 18L10 15.9432C10 15.9432 2.9989 16.5 2.9989 22.2615Z" stroke="currentColor"  stroke-linecap="round" stroke-linejoin="round"/>
<path d="M8 11.5C8.79628 11.0249 9.74818 10.6769 10.7937 10.5M16 11.5C15.2037 11.0249 14.2518 10.6769 13.2063 10.5" stroke="currentColor"  stroke-linecap="round" stroke-linejoin="round"/>
<circle cx="12" cy="8" r="5" stroke="currentColor"  stroke-linecap="round" stroke-linejoin="round"/>
<path d="M16.375 5.5H7.625C8.06338 3.52727 8.43345 1.5 11.0315 1.5H12.9685C15.5666 1.5 15.9366 3.52727 16.375 5.5Z" fill="white"/>
<path d="M5 5.5H7.625M7.625 5.5H16.375M7.625 5.5C8.06338 3.52727 8.43345 1.5 11.0315 1.5H12.9685C15.5666 1.5 15.9366 3.52727 16.375 5.5M16.375 5.5H19" stroke="currentColor"  stroke-linecap="round" stroke-linejoin="round"/>
</svg>
