<svg  viewBox="0 0 24 24" fill="none" xmlns="http://www.w3.org/2000/svg">
    <path fill="currentColor" d="M9.047 1.5a.6.6 0 0 0-1.2 0h1.2Zm7.106 0a.6.6 0 1 0-1.2 0h1.2ZM7.847 5.314a.6.6 0 0 0 1.2 0h-1.2ZM3 7.336a.6.6 0 0 0 0 1.2v-1.2Zm18 1.2a.6.6 0 1 0 0-1.2v1.2Zm-6.047-3.222a.6.6 0 0 0 1.2 0h-1.2ZM9.03 15.654a.6.6 0 1 0 0 1.2v-1.2Zm4.803 3.8a.6.6 0 0 0 0-1.2v1.2ZM9.047 3.406V1.5h-1.2v1.907h1.2Zm6.506-.6H8.447v1.2h7.106v-1.2Zm-.6-1.307v1.907h1.2V1.5h-1.2Zm2.258 1.307h-1.658v1.2h1.657v-1.2ZM21.6 7.221c0-2.434-1.962-4.414-4.39-4.414v1.2c1.758 0 3.19 1.435 3.19 3.214h1.2Zm0 10.965V7.221h-1.2v10.965h1.2ZM17.21 22.6c2.428 0 4.39-1.98 4.39-4.414h-1.2c0 1.779-1.432 3.214-3.19 3.214v1.2Zm-10.42 0h10.42v-1.2H6.79v1.2ZM2.4 18.186c0 2.434 1.962 4.414 4.39 4.414v-1.2c-1.758 0-3.19-1.435-3.19-3.214H2.4Zm0-10.965v10.965h1.2V7.221H2.4Zm4.39-4.414c-2.428 0-4.39 1.98-4.39 4.414h1.2c0-1.779 1.432-3.214 3.19-3.214v-1.2Zm1.657 0H6.79v1.2h1.658v-1.2Zm-.6.6v1.907h1.2V3.407h-1.2ZM21 7.336H3v1.2h18v-1.2Zm-4.847-2.022V3.407h-1.2v1.907h1.2Zm-6.585 8.105c0-1.33 1.173-2.452 2.54-2.452v-1.2c-1.982 0-3.74 1.612-3.74 3.652h1.2Zm0 2.383V13.42h-1.2v2.383h1.2Zm2.54 2.451c-1.487 0-2.54-1.001-2.54-2.45h-1.2c0 2.16 1.64 3.65 3.74 3.65v-1.2Zm1.726 0h-1.726v1.2h1.726v-1.2Zm-1.726-2.6H9.03v1.2h3.076v-1.2Zm2.323-2.343a2.333 2.333 0 0 1-2.323 2.343v1.2c1.95 0 3.523-1.59 3.523-3.543h-1.2Zm-2.323-2.343a2.333 2.333 0 0 1 2.323 2.343h1.2c0-1.953-1.574-3.543-3.524-3.543v1.2Z"/>
</svg>
