<svg  viewBox="0 0 24 24" fill="none" xmlns="http://www.w3.org/2000/svg">
    <path stroke="currentColor" stroke-linecap="round" stroke-linejoin="round"   d="M7.382 8.194 7.12 5.31 3.957 4.033 3 5.129l1.568 3.103 2.814-.038Zm0 0 3.193 2.957m1.563 4.089 5.677 5.256a1.87 1.87 0 0 0 2.696-.147c.704-.807.64-2.05-.143-2.776L15.4 12.974m2.55-9.533a4.678 4.678 0 0 0-5.53 1.187c-1.322 1.515-1.562 3.645-.769 5.38a1.928 1.928 0 0 0-.355.318l-6.381 7.307a2.005 2.005 0 0 0 .143 2.775 1.87 1.87 0 0 0 2.695-.147l6.381-7.307c.108-.124.198-.258.27-.398 1.76.628 3.79.158 5.114-1.358 1.428-1.636 1.593-3.987.56-5.785l-3.044 3.486-2.13-1.971 3.045-3.486Z"/>
</svg>
