<svg  viewBox="0 0 24 24" fill="none" xmlns="http://www.w3.org/2000/svg">
    <path stroke="currentColor" stroke-linecap="round" stroke-linejoin="round"   d="M15.659 12.005A3.664 3.664 0 0 1 12 15.682a3.664 3.664 0 0 1-3.659-3.677A3.664 3.664 0 0 1 12 8.328a3.664 3.664 0 0 1 3.659 3.677Z"/>
  <path stroke="currentColor" stroke-linecap="round" stroke-linejoin="round"   d="M12 20.5c3.608 0 6.97-2.137 9.31-5.834.92-1.449.92-3.883 0-5.332C18.97 5.637 15.608 3.5 12 3.5c-3.608 0-6.97 2.137-9.31 5.834-.92 1.449-.92 3.883 0 5.332C5.03 18.363 8.392 20.5 12 20.5Z"/>
</svg>
