<svg  viewBox="0 0 24 24" fill="none" xmlns="http://www.w3.org/2000/svg">
    <path stroke="currentColor" stroke-linecap="round" stroke-linejoin="round"   d="m15.416 6.505-1.697-3.18c-.73-1.367-2.709-1.367-3.438 0l-1.697 3.18a1.942 1.942 0 0 1-1.387.998l-3.583.613c-1.54.263-2.151 2.125-1.062 3.234l2.534 2.578a1.91 1.91 0 0 1 .53 1.613l-.518 3.56c-.222 1.53 1.38 2.68 2.782 1.998l3.262-1.587a1.963 1.963 0 0 1 1.716 0L16.12 21.1c1.403.682 3.004-.469 2.782-1.999l-.518-3.559a1.91 1.91 0 0 1 .53-1.613l2.534-2.579c1.09-1.108.478-2.97-1.062-3.233l-3.583-.613a1.943 1.943 0 0 1-1.387-.998Z"/>
</svg>
