<svg viewBox="0 0 24 24" fill="none" xmlns="http://www.w3.org/2000/svg">
<path d="M9.52867 3.5492C10.2617 1.09387 13.7388 1.09387 14.4719 3.5492L15.711 7.69967L20.0413 7.5956C22.603 7.53404 23.6774 10.841 21.5688 12.2969L18.0044 14.7579L19.4415 18.8441C20.2917 21.2614 17.4786 23.3052 15.4423 21.7496L12.0003 19.1202L8.55821 21.7496C6.52195 23.3052 3.7089 21.2614 4.55906 18.8441L5.99615 14.7579L2.43174 12.2969C0.32311 10.841 1.3976 7.53404 3.95928 7.5956L8.28952 7.69967L9.52867 3.5492Z" stroke="currentColor" stroke-linecap="round" stroke-linejoin="round"/>
<path d="M9.81064 4.5133C10.4601 2.33809 13.5405 2.33809 14.1899 4.5133L15.2877 8.19026L19.1239 8.09807C21.3934 8.04353 22.3453 10.9732 20.4772 12.263L17.3194 14.4433L18.5926 18.0633C19.3457 20.2048 16.8536 22.0154 15.0497 20.6374L12.0003 18.3079L8.95089 20.6374C7.14694 22.0154 4.65482 20.2048 5.40798 18.0633L6.68113 14.4433L3.52336 12.263C1.65529 10.9732 2.60719 8.04353 4.87663 8.09807L8.71286 8.19026L9.81064 4.5133Z" stroke="currentColor" stroke-linecap="round" stroke-linejoin="round"/>
<path d="M10.0534 5.34191C10.6309 3.40743 13.3704 3.40743 13.948 5.34191L14.9243 8.61192L18.3359 8.52993C20.3542 8.48142 21.2007 11.0868 19.5394 12.2339L16.7311 14.1729L17.8634 17.3922C18.5332 19.2967 16.3169 20.907 14.7126 19.6814L12.0007 17.6098L9.28881 19.6814C7.68451 20.907 5.46821 19.2967 6.13801 17.3922L7.27025 14.1729L4.46197 12.2339C2.80065 11.0868 3.6472 8.48142 5.66547 8.52993L9.07712 8.61192L10.0534 5.34191Z" stroke="currentColor" stroke-linecap="round" stroke-linejoin="round"/>
<path d="M10.2983 6.18131C10.8031 4.49073 13.1972 4.49073 13.7019 6.18131L14.5551 9.03906L17.5367 8.96741C19.3005 8.92502 20.0403 11.202 18.5884 12.2044L16.1342 13.899L17.1237 16.7124C17.7091 18.3768 15.7722 19.784 14.3701 18.713L12.0001 16.9025L9.63015 18.713C8.22811 19.784 6.29122 18.3768 6.87659 16.7124L7.86608 13.899L5.41185 12.2044C3.95998 11.202 4.6998 8.92502 6.46362 8.96741L9.44515 9.03906L10.2983 6.18131Z" stroke="currentColor" stroke-linecap="round" stroke-linejoin="round"/>
<path d="M10.5792 7.14166C11.0007 5.73009 12.9996 5.73009 13.4211 7.14166L14.1335 9.52775L16.6229 9.46792C18.0956 9.43253 18.7133 11.3337 17.5011 12.1707L15.4519 13.5855L16.2781 15.9347C16.7668 17.3244 15.1496 18.4993 13.979 17.6051L12.0001 16.0934L10.0213 17.6051C8.85066 18.4993 7.23345 17.3244 7.7222 15.9347L8.54838 13.5855L6.49921 12.1707C5.28696 11.3337 5.90468 9.43253 7.37739 9.46792L9.86684 9.52775L10.5792 7.14166Z" stroke="currentColor" stroke-linecap="round" stroke-linejoin="round"/>
<path d="M10.8395 8.0325C11.1836 6.87976 12.8161 6.87976 13.1602 8.0325L13.742 9.98107L15.775 9.93221C16.9776 9.90331 17.4821 11.4559 16.4921 12.1394L14.8187 13.2948L15.4934 15.2132C15.8925 16.3481 14.5718 17.3076 13.6158 16.5773L11.9999 15.3428L10.3839 16.5773C9.42787 17.3076 8.1072 16.3481 8.50633 15.2132L9.18102 13.2948L7.50759 12.1394C6.51763 11.4559 7.02208 9.90331 8.22475 9.93221L10.2577 9.98107L10.8395 8.0325Z" stroke="currentColor" stroke-linecap="round" stroke-linejoin="round"/>
<path d="M11.0733 8.83114C11.3482 7.91045 12.6521 7.91045 12.9269 8.83114L13.3916 10.3875L15.0153 10.3484C15.9759 10.3254 16.3788 11.5654 15.5881 12.1113L14.2516 13.0342L14.7904 14.5664C15.1092 15.4728 14.0544 16.2392 13.2908 15.6559L12.0001 14.6699L10.7094 15.6559C9.9459 16.2392 8.89108 15.4728 9.20986 14.5664L9.74874 13.0342L8.41217 12.1113C7.62148 11.5654 8.02439 10.3254 8.98496 10.3484L10.6087 10.3875L11.0733 8.83114Z" stroke="currentColor" stroke-linecap="round" stroke-linejoin="round"/>
<path d="M11.364 9.82575C11.5526 9.19403 12.4472 9.19403 12.6358 9.82575L12.9546 10.8936L14.0687 10.8668C14.7277 10.851 15.0042 11.7018 14.4617 12.0764L13.5446 12.7096L13.9144 13.7609C14.1331 14.3828 13.4093 14.9086 12.8854 14.5084L11.9999 13.8319L11.1143 14.5084C10.5904 14.9086 9.86662 14.3828 10.0854 13.7609L10.4551 12.7096L9.53803 12.0764C8.99551 11.7018 9.27196 10.851 9.93104 10.8668L11.0451 10.8936L11.364 9.82575Z" stroke="currentColor" stroke-linecap="round" stroke-linejoin="round"/>
<path d="M11.6081 10.6609C11.7243 10.2718 12.2753 10.2718 12.3914 10.6609L12.5878 11.3186L13.274 11.3021C13.6799 11.2923 13.8501 11.8163 13.516 12.047L12.9512 12.437L13.1789 13.0845C13.3136 13.4675 12.8679 13.7914 12.5452 13.5449L11.9998 13.1283L11.4544 13.5449C11.1317 13.7914 10.6859 13.4675 10.8207 13.0845L11.0484 12.437L10.4836 12.047C10.1494 11.8163 10.3197 11.2923 10.7256 11.3021L11.4118 11.3186L11.6081 10.6609Z" stroke="currentColor" stroke-linecap="round" stroke-linejoin="round"/>
<path d="M11.7597 11.1778C11.8311 10.9389 12.1694 10.9389 12.2407 11.1778L12.3612 11.5816L12.7825 11.5715C13.0318 11.5655 13.1363 11.8872 12.9311 12.0289L12.5844 12.2683L12.7242 12.6659C12.8069 12.901 12.5332 13.0999 12.3351 12.9485L12.0002 12.6927L11.6653 12.9485C11.4672 13.0999 11.1935 12.901 11.2762 12.6659L11.4161 12.2683L11.0693 12.0289C10.8641 11.8872 10.9687 11.5655 11.2179 11.5715L11.6392 11.5816L11.7597 11.1778Z" stroke="currentColor" stroke-linecap="round" stroke-linejoin="round"/>
</svg>
