<svg  viewBox="0 0 24 24" fill="none" xmlns="http://www.w3.org/2000/svg">
<path d="M8.52116 15.4782C7.83324 15.4782 7.16077 15.6822 6.58878 16.0644C6.0168 16.4466 5.57099 16.9898 5.30773 17.6253C5.04448 18.2609 4.9756 18.9602 5.1098 19.6349C5.24401 20.3096 5.57527 20.9294 6.06171 21.4158C6.54814 21.9023 7.1679 22.2335 7.8426 22.3677C8.5173 22.5019 9.21665 22.4331 9.85221 22.1698C10.4878 21.9066 11.031 21.4607 11.4132 20.8888C11.7954 20.3168 11.9993 19.6443 11.9993 18.9564V15.4782M8.52116 15.4782H11.9993M8.52116 15.4782C7.59869 15.4782 6.714 15.1117 6.06171 14.4595C5.40942 13.8072 5.04297 12.9225 5.04297 12C5.04297 11.0775 5.40942 10.1928 6.06171 9.54055C6.714 8.88826 7.59869 8.52181 8.52116 8.52181M11.9993 15.4782V8.52181M15.4775 8.52181C16.4 8.52181 17.2847 8.15536 17.937 7.50307C18.5893 6.85078 18.9557 5.96609 18.9557 5.04362C18.9557 4.12115 18.5893 3.23646 17.937 2.58417C17.2847 1.93188 16.4 1.56543 15.4775 1.56543H11.9993M15.4775 8.52181H11.9993M15.4775 8.52181C13.5566 8.52181 11.9993 10.079 11.9993 12C11.9993 13.921 13.5566 15.4782 15.4775 15.4782C17.3985 15.4782 18.9557 13.921 18.9557 12C18.9557 10.079 17.3985 8.52181 15.4775 8.52181ZM11.9993 1.56543V8.52181M11.9993 1.56543H8.52116C7.59869 1.56543 6.714 1.93188 6.06171 2.58417C5.40942 3.23646 5.04297 4.12115 5.04297 5.04362C5.04297 5.96609 5.40942 6.85078 6.06171 7.50307C6.714 8.15536 7.59869 8.52181 8.52116 8.52181M11.9993 8.52181H8.52116" stroke="currentColor" stroke-linecap="round" stroke-linejoin="round"/>
</svg>
