<svg  viewBox="0 0 24 24" fill="none" xmlns="http://www.w3.org/2000/svg">
<path d="M11.9997 1.25C9.44617 1.24869 6.97557 2.15639 5.03028 3.81057C3.08499 5.46474 1.79206 7.75736 1.383 10.2779C0.973936 12.7984 1.47546 15.3823 2.79777 17.5668C4.12008 19.7512 6.17682 21.3937 8.59969 22.2C9.13969 22.3 9.33469 21.97 9.33469 21.7V20.4623C6.33469 21.1123 5.34996 18.5606 5.34996 18.5606C5.15152 17.8993 5.01828 17.2778 4.43346 16.9109C3.45846 16.2459 4.57469 16.185 4.57469 16.185C4.91526 16.2327 5.24047 16.3574 5.52554 16.5498C5.81061 16.7421 6.17802 16.8649 6.34969 17.1629C7.30969 18.8079 8.71969 18.465 9.34969 18.19C9.399 17.6437 9.64194 17.133 10.0347 16.75C7.64469 16.48 5.13469 15.56 5.13469 11.44C5.11937 10.3713 5.51698 9.33785 6.24469 8.555C5.91387 7.62824 5.95145 6.60985 6.34969 5.71C6.34969 5.71 7.24969 5.42 9.30469 6.81C11.0659 6.32999 12.9235 6.32999 14.6847 6.81C16.7397 5.42 17.6397 5.71 17.6397 5.71C18.0349 6.61055 18.0724 7.62778 17.7447 8.555C18.4715 9.33807 18.8674 10.3718 18.8497 11.44C18.8497 15.57 16.3497 16.475 13.9447 16.745C14.2027 17.0065 14.4015 17.3204 14.5275 17.6655C14.6534 18.0106 14.7036 18.3788 14.6747 18.745V21.695C14.6747 22.05 14.8697 22.315 15.4147 22.195C17.8351 21.3856 19.8885 19.7414 21.2077 17.5566C22.5269 15.3718 23.0258 12.789 22.6151 10.2701C22.2044 7.7512 20.911 5.46058 18.9661 3.808C17.0212 2.15542 14.5518 1.24869 11.9997 1.25Z" stroke="currentColor" stroke-linecap="round" stroke-linejoin="round"/>
</svg>
