<svg  viewBox="0 0 24 24" fill="none" xmlns="http://www.w3.org/2000/svg">
    <path stroke="currentColor" stroke-linecap="round" stroke-linejoin="round"   d="m10.973 12.5.002-3.5c-.001-.926.67-1.678 1.5-1.679h.002c.831 0 1.505.752 1.505 1.679l.002 1m0 0v2.5m0-2.5c-.001-.926.67-1.678 1.5-1.679h.002c.831 0 1.505.752 1.505 1.679v1.179m0 1.321.002-1.321c-.001-.926.67-1.678 1.5-1.679h.002c.831 0 1.505.752 1.505 1.679V17a4 4 0 0 1-4 4H7.983s-5.138-7.287-5.62-7.92c-.723-.95-.42-2.023 1.39-2.023 1.809 0 2.852 2.953 4.23 2.953.008.002.009-3.775.002-10.331C7.984 2.753 8.656 2 9.486 2h.002c.83 0 1.504.752 1.504 1.679v7.642"/>
</svg>
