<svg  viewBox="0 0 24 24" fill="none" xmlns="http://www.w3.org/2000/svg">
    <path stroke="currentColor" stroke-linecap="round" stroke-linejoin="round"   d="M4.339 9.553V9.14c0-4.219 3.423-7.639 7.647-7.639 4.223 0 7.647 3.42 7.647 7.639v.414m-15.294 0h-.173C2.398 9.553 1 11.023 1 12.793c0 1.77 1.398 3.24 3.166 3.24h.21c.387 3.48 3.674 6.467 7.61 6.467 3.935 0 7.222-2.988 7.609-6.467h.24c1.767 0 3.165-1.47 3.165-3.24 0-1.77-1.398-3.24-3.166-3.24h-.201m-15.294 0v6.48m15.294-6.48v6.48M15.32 17.5c-.462 1.398-1.865 2.354-3.457 2.354a3.772 3.772 0 0 1-2.525-.945m1.762-4.592c-.49.659-.155 1.923.763 2.14m7.72-7.25a5.671 5.671 0 0 1-5.855-5.444l-.046-1.156-.732 1.981a8.701 8.701 0 0 1-8.162 5.687m5.823 1.273c0-2.072-2.582-2.072-2.582 0 0 1.966 2.582 1.966 2.582 0Zm5.236 0c0-2.072-2.582-2.072-2.582 0 0 1.983 2.582 1.983 2.582 0Z"/>
</svg>
