<svg xmlns="http://www.w3.org/2000/svg" id="Loading" fill="none" viewBox="0 0 88 88"><style>
@keyframes a0_t { 0% { transform: translate(44px,44px) rotate(0deg) translate(-39.6px,-39.6px); } 100% { transform: translate(44px,44px) rotate(360deg) translate(-39.6px,-39.6px); } }
</style><path fill-rule="evenodd" clip-rule="evenodd" d="M63.1 56.5h.1c.7-1 1.3-2.1 2-3.2v-0.1l.1-0.1c.5-1.1 1-2.2 1.5-3.3v-0.1l.1-0.1c.3-1.2 .7-2.4 1-3.5v-0.1v-0.2c.3-1.1 .5-2.3 .6-3.5v-0.1v-0.1c.1-1.2 .1-2.4 .1-3.6v-0.1v-0.2c-0.1-1.1-0.2-2.3-0.3-3.5l-0.1-0.1v-0.1c-0.2-1.2-0.5-2.3-0.8-3.4l-0.1-0.1v-0.1c-0.4-1.1-0.8-2.2-1.3-3.3v-0.1l-0.1-0.1c-0.5-1.1-1-2.1-1.6-3.1l-0.1-0.1v-0.1c-0.7-0.9-1.4-1.9-2.1-2.8l-0.1-0.1c-0.8-0.9-1.6-1.7-2.4-2.6h-0.1l-0.1-0.1c-0.8-0.8-1.7-1.5-2.6-2.2l-0.1-0.1h-0.1c-1-0.7-1.9-1.3-2.9-1.8l-0.1-0.1l-0.1-0.1c-1-0.5-2.1-1-3.1-1.4l-0.1-0.1h-0.1c-1.1-0.4-2.1-0.7-3.2-1.1h-0.1h-0.1c-1.1-0.3-2.2-0.5-3.3-0.7h-0.1h-0.1c-1.2-0.1-2.3-0.2-3.4-0.3h-0.1h-0.1c-1.1 .1-2.2 .1-3.3 .2h-0.1h-0.1c-1.1 .1-2.2 .3-3.3 .5l-0.1 .1h-0.1c-1 .3-2.1 .6-3.1 .9h-0.1l-0.1 .1c-1 .4-2 .8-2.9 1.2l-0.1 .1h-0.1c-1 .5-1.9 1.1-2.8 1.6l-0.1 .1c-0.9 .6-1.7 1.3-2.5 1.9l-0.1 .1l-0.1 .1c-0.7 .7-1.5 1.4-2.2 2.1l-0.1 .1v.1c-1.6 1.8-2.8 3.8-4 5.7v.1l-0.1 .1c-0.5 1.1-1.1 2.2-1.6 3.3v.1v.1c-0.5 1.1-0.8 2.3-1.2 3.5v.1v.1c-0.3 1.2-0.5 2.4-0.7 3.5v.2v.1c-0.1 1.2-0.1 2.4-0.2 3.5v.2v.1c.1 1.2 .2 2.3 .3 3.5l.1 .1v.1c.2 1.2 .4 2.3 .7 3.5l.1 .1v.1c.4 1.1 .8 2.2 1.2 3.3v.1l.1 .1c.5 1 1 2.1 1.6 3.1l.1 .1v.1c.7 .9 1.3 1.9 2 2.8l.1 .1v.1c.8 .9 1.6 1.7 2.4 2.5v.1l.1 .1c.9 .8 1.7 1.5 2.6 2.2l.1 .1l.1 .1c1 .6 1.9 1.3 2.9 1.9h.1l.1 .1c1 .5 2 1 3 1.5h.1l.1 .1c1.1 .4 2.2 .7 3.2 1.1h.1h.1c1.1 .3 2.2 .6 3.3 .8h.1h.1c1.1 .1 2.3 .3 3.4 .3h.1h.1c1.1 0 2.2 0 3.3 0h.1l.1-0.1c1.1-0.1 2.2-0.2 3.3-0.4h.1l.1-0.1c1-0.2 2.1-0.5 3.1-0.8h.1l.1-0.1c1-0.4 2-0.8 3-1.2h.1l.1-0.1c.9-0.5 1.8-1 2.7-1.5l.1-0.1h.1c.9-0.6 1.7-1.2 2.5-1.9h.1l.1-0.1c.8-0.7 1.5-1.4 2.2-2.1l.1-0.1l.1-0.1c.7-0.8 1.3-1.5 1.9-2.3l.1-0.1v-0.1c.3-0.3 .5-0.6 .6-0.9Zm-3.2-15.6c-0.2-0.7-0.3-1.4-0.5-2c-0.2-0.7-0.5-1.3-0.7-2c-0.4-0.6-0.7-1.2-1-1.8c-0.4-0.6-0.8-1.1-1.2-1.6c-0.5-0.6-1-1.1-1.4-1.5c-0.6-0.5-1.1-0.9-1.6-1.3c-0.6-0.4-1.1-0.8-1.7-1.1c-0.6-0.3-1.2-0.6-1.9-0.9c-0.6-0.2-1.2-0.4-1.8-0.6c-0.7-0.1-1.3-0.3-2-0.4c-0.6-0.1-1.3-0.1-1.9-0.1c-0.7 0-1.3 0-2 .1c-0.6 0-1.2 .1-1.8 .3c-0.6 .1-1.2 .3-1.8 .5c-0.5 .2-1.1 .4-1.6 .7c-0.6 .3-1.1 .6-1.5 .9c-0.5 .3-1 .7-1.4 1c-0.4 .4-0.8 .8-1.2 1.2c-0.3 .4-0.6 .8-1 1.3c-0.2 .4-0.5 .9-0.7 1.3c-0.3 .5-0.4 .9-0.6 1.4c-0.2 .5-0.3 1-0.4 1.4c-0.1 .5-0.2 1-0.2 1.4c0 .5 0 1 0 1.5c0 .4 .1 .9 .2 1.3c.1 .5 .2 .9 .3 1.3c.2 .4 .4 .8 .6 1.2c.2 .4 .4 .8 .6 1.2c.3 .3 .6 .7 .8 1c.3 .3 .7 .6 1 .9c.3 .3 .6 .5 1 .8c.3 .2 .7 .4 1.1 .6c.4 .2 .7 .4 1.1 .5c.4 .1 .8 .2 1.2 .3c.4 .1 .8 .2 1.2 .2c.4 0 .8 .1 1.2 .1c.3-0.1 .7-0.1 1.1-0.1c.4-0.1 .7-0.2 1.1-0.3c.3-0.1 .7-0.2 1-0.3c.3-0.2 .6-0.3 .9-0.5c.3-0.2 .6-0.3 .8-0.5c.3-0.2 .5-0.4 .7-0.6c.2-0.3 .4-0.5 .6-0.7c.2-0.2 .3-0.5 .5-0.7c.1-0.2 .2-0.5 .3-0.7c.1-0.3 .2-0.5 .3-0.7c0-0.3 .1-0.5 .1-0.7c0-0.3 .1-0.5 .1-0.7c-0.1-0.3-0.1-0.5-0.1-0.7c0-0.2-0.1-0.4-0.1-0.6c-0.1-0.2-0.2-0.4-0.3-0.6c0-0.2-0.1-0.3-0.2-0.5c-0.1-0.2-0.3-0.3-0.4-0.5c-0.1-0.1-0.2-0.2-0.4-0.4c-0.1-0.1-0.2-0.2-0.4-0.3c-0.1-0.1-0.3-0.2-0.4-0.3c-0.2 0-0.3-0.1-0.5-0.2c-0.1 0-0.3-0.1-0.4-0.1c-0.2 0-0.3 0-0.5-0.1c-0.1 0-0.2 0-0.4 0c-0.1 0-0.2 0-0.4 .1c-0.1 0-0.2 0-0.3 0c-0.1 .1-0.2 .1-0.3 .2c-0.1 0-0.1 0-0.2 .1c-0.1 0-0.1 .1-0.2 .1c0 .1-0.1 .1-0.1 .1c0 .1-0.1 .1-0.1 .1c0 .1 0 .1 0 .1c-0.1 .1-0.1 .1-0.1 .2c-0.6 1.8-2.5 2.8-4.4 2.2c-1.8-0.6-2.8-2.5-2.2-4.3c.1-0.3 .2-0.6 .3-0.8v-0.1l.1-0.2c.1-0.2 .3-0.5 .4-0.7l.1-0.1l.1-0.1c.1-0.3 .3-0.5 .5-0.7l.1-0.1l.1-0.1c.2-0.2 .4-0.5 .6-0.7l.1-0.1h.1c.2-0.2 .5-0.4 .7-0.6l.1-0.1h.1c.3-0.2 .6-0.3 .9-0.5h.1l.1-0.1c.3-0.1 .6-0.2 .9-0.3l.2-0.1h.1c.3-0.1 .6-0.2 1-0.2l.1-0.1h.1c.3 0 .7-0.1 1-0.1h.1h.2c.3 0 .7 0 1 0h.2h.1c.3 .1 .7 .1 1.1 .2h.1l.1 .1c.4 .1 .7 .2 1.1 .3h.1l.1 .1c.4 .1 .7 .3 1.1 .4l.1 .1h.1c.3 .2 .7 .4 1 .7h.1l.1 .1c.3 .2 .6 .5 .9 .7l.1 .1l.1 .1c.3 .3 .6 .6 .9 .9v.1l.1 .1c.3 .3 .5 .6 .8 1v.1l.1 .1c.2 .4 .4 .8 .6 1.1v.1l.1 .2c.2 .4 .3 .8 .5 1.2v.1v.1c.1 .5 .2 .9 .3 1.3v.1l.1 .2c0 .4 .1 .9 .1 1.3v.2v.1c0 .4-0.1 .9-0.1 1.4v.1v.1c-0.1 .5-0.2 1-0.3 1.4v.1l-0.1 .1c-0.1 .5-0.3 1-0.4 1.4l-0.1 .1v.1c-0.2 .5-0.4 .9-0.7 1.4v.1l-0.1 .1c-0.3 .4-0.6 .8-0.9 1.3l-0.1 .1c-0.3 .4-0.7 .8-1 1.2l-0.1 .1l-0.1 .1c-0.4 .3-0.8 .7-1.2 1l-0.1 .1h-0.1c-0.4 .4-0.9 .7-1.3 1h-0.1l-0.1 .1c-0.5 .2-1 .5-1.5 .7l-0.1 .1h-0.1c-0.6 .2-1.1 .4-1.6 .6h-0.1h-0.1c-0.6 .2-1.2 .3-1.7 .4h-0.2h-0.1c-0.5 .1-1.1 .1-1.7 .2h-0.1h-0.1c-0.6 0-1.2 0-1.8-0.1h-0.1h-0.2c-0.6-0.1-1.2-0.2-1.8-0.3h-0.1h-0.1c-0.6-0.2-1.2-0.3-1.8-0.5l-0.1-0.1h-0.1c-0.6-0.2-1.1-0.5-1.7-0.7l-0.1-0.1h-0.1c-0.6-0.3-1.1-0.7-1.7-1l-0.1-0.1c-0.6-0.4-1.1-0.8-1.6-1.2h-0.1v-0.1c-0.5-0.5-1-0.9-1.4-1.4l-0.1-0.1l-0.1-0.1c-0.4-0.5-0.8-1-1.2-1.5l-0.1-0.1v-0.1c-0.4-0.6-0.7-1.1-1.1-1.7v-0.1l-0.1-0.1c-0.2-0.6-0.5-1.3-0.8-1.9v-0.1v-0.1c-0.2-0.7-0.4-1.3-0.6-2v-0.1v-0.1c-0.1-0.7-0.2-1.4-0.3-2.1v-0.1v-0.1c0-0.7 0-1.4 0-2.1v-0.1v-0.1c.1-0.7 .2-1.4 .3-2.1v-0.1v-0.2c.2-0.7 .4-1.4 .6-2v-0.2l.1-0.1c.2-0.6 .5-1.3 .8-2l.1-0.1v-0.1c.4-0.6 .7-1.3 1.1-1.9l.1-0.1l.1-0.1c.4-0.6 .9-1.2 1.4-1.8v-0.1l.1-0.1c.5-0.5 1.1-1.1 1.7-1.6v-0.1h.1c.6-0.5 1.2-1 1.9-1.5l.1-0.1h.1c.6-0.4 1.3-0.8 2-1.2l.1-0.1h.1c.8-0.4 1.5-0.7 2.3-1h.1l.1-0.1c.7-0.2 1.5-0.5 2.3-0.7h.1h.1c.9-0.2 1.7-0.3 2.5-0.4h.1h.1c.9-0.1 1.7-0.1 2.6-0.2h.1h.1c.8 .1 1.7 .1 2.6 .2l.1 .1h.1c.8 .1 1.7 .3 2.5 .5h.1h.1c.9 .3 1.7 .6 2.5 .9h.1h.1c.5 .2 .9 .4 1.4 .7c-0.5-0.4-0.9-0.8-1.4-1.1c-0.8-0.6-1.5-1.1-2.3-1.5c-0.9-0.4-1.7-0.8-2.6-1.2c-0.8-0.3-1.7-0.6-2.6-0.9c-0.9-0.2-1.8-0.4-2.7-0.5c-0.9-0.1-1.8-0.2-2.7-0.2c-0.9 0-1.8 0-2.7 .1c-0.9 .1-1.8 .2-2.6 .4c-0.9 .2-1.7 .5-2.6 .7c-0.8 .4-1.6 .7-2.3 1.1c-0.8 .4-1.5 .8-2.2 1.2c-0.7 .5-1.3 1-2 1.5c-0.6 .6-1.1 1.1-1.7 1.7c-1.2 1.4-2.1 2.9-3.2 4.6c-0.4 .9-0.9 1.8-1.3 2.7c-0.3 1-0.6 1.9-0.9 2.9c-0.2 .9-0.4 1.9-0.5 2.8c-0.1 1-0.1 2-0.1 2.9c0 1 .1 1.9 .2 2.9c.2 .9 .4 1.8 .6 2.7c.3 .9 .6 1.8 1 2.7c.4 .8 .8 1.7 1.3 2.5c.5 .8 1 1.5 1.6 2.3c.6 .7 1.2 1.4 1.9 2.1c.7 .6 1.4 1.2 2.1 1.8c.8 .5 1.5 1 2.3 1.5c.8 .4 1.7 .9 2.5 1.2c.9 .4 1.7 .7 2.6 1c.9 .2 1.8 .4 2.7 .6c.9 .1 1.8 .2 2.7 .2c.9 0 1.8 0 2.7 0c.9-0.2 1.8-0.3 2.7-0.4c.8-0.2 1.7-0.5 2.5-0.7c.8-0.3 1.6-0.6 2.4-1c.7-0.4 1.5-0.8 2.2-1.2c.7-0.5 1.4-1 2-1.5c.6-0.5 1.2-1.1 1.8-1.6c.5-0.6 1-1.2 1.5-1.9c.4-0.6 .8-1.3 1.2-1.9c.3-0.7 .6-1.4 .9-2.1c.3-0.7 .5-1.4 .7-2.1c.1-0.7 .2-1.4 .3-2.2c.1-0.7 .1-1.4 .1-2.1c-0.1-0.7-0.1-1.4-0.2-2.1Z" fill="currentColor" transform="translate(44,44) translate(-39.6,-39.6)" style="animation: 1s linear infinite both a0_t;"/></svg>