<?xml version="1.0" encoding="utf-8"?>
<svg fill="none" viewBox="0 0 24 24" xmlns="http://www.w3.org/2000/svg">
  <path stroke="currentColor" stroke-linecap="round" stroke-linejoin="round" d="M 12 22 C 17.55 22 22 17.6 22 12.04 C 22.022 6.502 17.538 2 12 2 M 12 22 C 6.45 22 2 17.6 2 12.04 C 1.978 6.502 6.462 2 12 2 M 12 22 C 14.31 22 15.73 19.04 16.26 15.4 M 12 22 C 9.69 22 8.27 19.04 7.74 15.4 M 12 2 C 14.31 2 15.73 4.99 16.26 8.65 M 12 2 C 9.69 2 8.27 4.99 7.74 8.65 M 3.25 8.65 L 7.74 8.65 M 7.74 8.65 L 16.26 8.65 M 7.74 8.65 C 7.425 10.889 7.425 13.161 7.74 15.4 M 16.26 8.65 L 20.75 8.65 M 16.26 8.65 C 16.58 10.83 16.58 13.24 16.26 15.4 M 3.25 15.4 L 7.74 15.4 M 7.74 15.4 L 16.26 15.4 M 16.26 15.4 L 20.75 15.4"/>
</svg>