<svg  viewBox="0 0 24 24" fill="none" xmlns="http://www.w3.org/2000/svg">
    <path stroke="currentColor" stroke-linecap="round" stroke-linejoin="round"   d="m9.98 6.459.76.72m1.428 1.354.911.863m1.462 1.385.911.863m1.429 1.353.76.72M12.085 3.69l-9.358 8.865a2.264 2.264 0 0 0 0 3.325l.585.554c.969-.918 2.54-.918 3.509 0a2.264 2.264 0 0 1 0 3.324l.585.554c.969.919 2.54.919 3.51 0l9.357-8.865c.97-.918.97-2.407 0-3.325l-.585-.554c-.969.918-2.54.918-3.509 0a2.264 2.264 0 0 1 0-3.324l-.585-.554c-.969-.919-2.54-.919-3.51 0Z"/>
</svg>
