<svg  viewBox="0 0 24 24" fill="none" xmlns="http://www.w3.org/2000/svg">
    <path stroke="currentColor" stroke-linecap="round" stroke-linejoin="round"   d="M14.948 4.458V3.11c0-.75-.578-1.36-1.29-1.36h-3.315c-.713 0-1.29.61-1.29 1.36v1.348m5.895 0H9.052m5.896 0h4.27c1.122 0 2.032.97 2.032 2.167v5.417h-.659M9.052 4.458H4.783c-1.123 0-2.033.97-2.033 2.167v5.417h.639m17.202 0h-6.314m6.314 0 .061 7.041c0 1.197-.91 2.167-2.033 2.167H5.381c-1.123 0-2.033-.97-2.033-2.167l.04-7.041m10.889 0v-.652c0-.626-.481-1.134-1.075-1.134H10.88c-.594 0-1.076.508-1.076 1.134v.652m4.473 0v.764c0 .626-.481 1.134-1.075 1.134H10.88c-.594 0-1.076-.508-1.076-1.134v-.764m0 0H3.39"/>
</svg>
