<?xml version="1.0" encoding="UTF-8" standalone="no"?>
<!-- Created with Keyshape -->
<svg xmlns="http://www.w3.org/2000/svg" viewBox="0 0 24 24" fill="none">
    <style>
@keyframes A1_t { 0% { transform: translate(-2.397634px,-2.562603px); animation-timing-function: cubic-bezier(0.42,0,0.58,1); } 12.5% { transform: translate(0px,0px); animation-timing-function: cubic-bezier(0.42,0,0.58,1); } 37.5% { transform: translate(-3.76142px,-3.801183px); } 75% { transform: translate(-3.76142px,-3.80118px); animation-timing-function: cubic-bezier(0,0,0.58,1); } 87.5% { transform: translate(0px,0px); animation-timing-function: cubic-bezier(0.42,0,0.58,1); } 100% { transform: translate(-2.39763px,-2.5626px); animation-timing-function: cubic-bezier(0,0,0.58,1); } }
@keyframes A2_t { 0% { transform: translate(0px,0px); animation-timing-function: cubic-bezier(0.42,0,0.58,1); } 12.5% { transform: translate(0px,0px); animation-timing-function: cubic-bezier(0.42,0,0.58,1); } 37.5% { transform: translate(-1.30435px,-1.30435px); } 75% { transform: translate(-1.3043px,-1.3043px); animation-timing-function: cubic-bezier(0,0,0.58,1); } 87.5% { transform: translate(0px,0px); animation-timing-function: cubic-bezier(0.42,0,0.58,1); } 100% { transform: translate(0px,0px); animation-timing-function: cubic-bezier(0,0,0.58,1); } }
@keyframes A3_t { 0% { transform: translate(0px,0px); animation-timing-function: cubic-bezier(0.42,0,0.58,1); } 12.5% { transform: translate(0px,0px); animation-timing-function: cubic-bezier(0.42,0,0.58,1); } 37.5% { transform: translate(1.244495px,1.204732px); } 75% { transform: translate(1.2445px,1.2047px); animation-timing-function: cubic-bezier(0,0,0.58,1); } 87.5% { transform: translate(0px,0px); animation-timing-function: cubic-bezier(0.42,0,0.58,1); } 100% { transform: translate(0px,0px); animation-timing-function: cubic-bezier(0,0,0.58,1); } }
    </style>
    <path id="A1" d="M8.40316,4.6087C6.30754,4.6087,4.6087,6.30754,4.6087,8.40316L4.6087,18.2055C4.6087,20.3012,6.30754,22,8.40316,22L11.0909,22C12.3134,22,13.3043,21.009,13.3043,19.7866L13.3043,16.4664C13.3043,14.72,14.72,13.3043,16.4664,13.3043L19.7866,13.3043C21.009,13.3043,22,12.3134,22,11.0909L22,8.40316C22,6.30754,20.3012,4.6087,18.2055,4.6087L8.40316,4.6087Z" stroke="currentColor" stroke-linecap="round" stroke-linejoin="round" fill="#ffffff" transform="translate(9.60237,9.4374) translate(-12,-12)" style="animation: 1.6s linear both A1_t;"/>
    <path id="A2" d="M8.40316,4.6087C6.30754,4.6087,4.6087,6.30754,4.6087,8.40316L4.6087,18.2055C4.6087,20.3012,6.30754,22,8.40316,22L11.0909,22C12.3134,22,13.3043,21.009,13.3043,19.7866L13.3043,16.4664C13.3043,14.72,14.72,13.3043,16.4664,13.3043L19.7866,13.3043C21.009,13.3043,22,12.3134,22,11.0909L22,8.40316C22,6.30754,20.3012,4.6087,18.2055,4.6087L8.40316,4.6087Z" stroke="currentColor" stroke-linecap="round" stroke-linejoin="round" fill="#ffffff" transform="translate(12,12) translate(-12,-12)" style="animation: 1.6s linear both A2_t;"/>
    <path id="A3" d="M21.2916,12.7166L12.6833,21.3249M10.3058,9.4063L16.3028,9.4063M4.65703,19.2222M8.40316,4.6087C6.30754,4.6087,4.6087,6.30754,4.6087,8.40316L4.6087,18.2055C4.6087,20.3012,6.30754,22,8.40316,22L11.0909,22C12.3134,22,13.3043,21.009,13.3043,19.7866L13.3043,16.4664C13.3043,14.72,14.72,13.3043,16.4664,13.3043L19.7866,13.3043C21.009,13.3043,22,12.3134,22,11.0909L22,8.40316C22,6.30754,20.3012,4.6087,18.2055,4.6087L8.40316,4.6087Z" stroke="currentColor" stroke-linecap="round" stroke-linejoin="round" fill="#ffffff" transform="translate(12,12) translate(-12,-12)" style="animation: 1.6s linear both A3_t;"/>
</svg>
