<svg viewBox="0 0 332 45" fill="none" xmlns="http://www.w3.org/2000/svg">
<path d="M0.768 44V34.656L4.8 34.784C6.80533 34.784 8.21333 34.464 9.024 33.824C9.87733 33.184 10.304 32.096 10.304 30.56V1.76H21.312V31.776C21.312 36.0853 20.1173 39.328 17.728 41.504C15.3387 43.68 11.84 44.768 7.232 44.768C5.056 44.768 2.90133 44.512 0.768 44ZM26.9705 26.08V1.76H37.9785V26.912C37.9785 29.3013 38.6825 31.2 40.0905 32.608C41.4985 33.9733 43.3545 34.656 45.6585 34.656C47.9625 34.656 49.8185 33.9733 51.2265 32.608C52.6345 31.2 53.3385 29.3013 53.3385 26.912V1.76H64.3465V26.08C64.3465 31.584 62.5758 36.0853 59.0345 39.584C55.4932 43.04 51.0345 44.768 45.6585 44.768C40.1972 44.768 35.7172 43.0613 32.2185 39.648C28.7198 36.192 26.9705 31.6693 26.9705 26.08ZM69.723 26.08V1.76H80.731V26.912C80.731 29.3013 81.435 31.2 82.843 32.608C84.251 33.9733 86.107 34.656 88.411 34.656C90.715 34.656 92.571 33.9733 93.979 32.608C95.387 31.2 96.091 29.3013 96.091 26.912V1.76H107.099V26.08C107.099 31.584 105.328 36.0853 101.787 39.584C98.2457 43.04 93.787 44.768 88.411 44.768C82.9497 44.768 78.4697 43.0613 74.971 39.648C71.4723 36.192 69.723 31.6693 69.723 26.08ZM109.667 35.296L117.091 29.664C118.456 31.456 119.864 32.8213 121.315 33.76C122.766 34.656 124.494 35.104 126.499 35.104C129.4 35.104 130.851 34.08 130.851 32.032C130.851 31.136 130.574 30.4533 130.019 29.984C129.464 29.5147 128.312 28.896 126.563 28.128L122.211 26.208C115.086 23.0507 111.523 18.8053 111.523 13.472C111.523 9.76 112.888 6.752 115.619 4.448C118.392 2.144 121.955 0.991997 126.307 0.991997C133.134 0.991997 137.955 3.82933 140.771 9.504L133.411 15.136C132.344 13.5573 131.278 12.4267 130.211 11.744C129.144 11.0187 127.886 10.656 126.435 10.656C123.918 10.656 122.659 11.552 122.659 13.344C122.659 14.112 122.915 14.752 123.427 15.264C123.982 15.7333 124.942 16.2453 126.307 16.8L131.171 18.848C134.926 20.4267 137.656 22.2187 139.363 24.224C141.112 26.1867 141.987 28.64 141.987 31.584C141.987 35.5947 140.515 38.7947 137.571 41.184C134.67 43.5733 130.979 44.768 126.499 44.768C122.744 44.768 119.374 43.936 116.387 42.272C113.443 40.5653 111.203 38.24 109.667 35.296ZM171.343 44L169.807 40.48H154.639L153.103 44H141.263L160.463 0.991997H163.983L183.183 44H171.343ZM165.903 31.648L162.255 21.856L158.543 31.648H165.903ZM211.418 1.76H222.426V44.768H218.906L195.994 22.56V44H184.986V0.991997H188.506L211.418 22.88V1.76ZM228.301 44V1.76H243.021C249.592 1.67466 255.096 3.59466 259.534 7.52C263.971 11.4453 266.147 16.5227 266.062 22.752C266.147 28.9387 263.95 34.0587 259.47 38.112C255.032 42.1227 249.55 44.0853 243.021 44H228.301ZM239.309 34.08H242.958C246.456 34.08 249.294 33.056 251.47 31.008C253.688 28.96 254.798 26.208 254.798 22.752C254.798 19.2533 253.71 16.544 251.534 14.624C249.4 12.704 246.542 11.744 242.958 11.744H239.309V34.08ZM267.628 22.88C267.5 16.864 269.697 11.68 274.22 7.328C278.785 2.976 284.161 0.863998 290.348 0.991997C296.535 0.863998 301.911 2.976 306.476 7.328C311.084 11.68 313.324 16.864 313.196 22.88C313.324 28.9387 311.084 34.1227 306.476 38.432C301.911 42.7413 296.535 44.8533 290.348 44.768C284.119 44.8533 278.743 42.7413 274.22 38.432C269.697 34.1227 267.5 28.9387 267.628 22.88ZM301.932 22.88C301.932 19.424 300.823 16.608 298.604 14.432C296.428 12.2133 293.697 11.104 290.412 11.104C286.999 11.104 284.225 12.192 282.092 14.368C279.959 16.544 278.892 19.3813 278.892 22.88C278.892 26.3787 279.959 29.2373 282.092 31.456C284.225 33.5893 286.999 34.656 290.412 34.656C293.74 34.656 296.492 33.568 298.668 31.392C300.844 29.216 301.932 26.3787 301.932 22.88ZM320.195 27.104L318.083 1.76H331.203L329.155 27.104H320.195ZM319.555 42.72C318.19 41.3547 317.507 39.648 317.507 37.6C317.507 35.552 318.19 33.8453 319.555 32.48C320.921 31.1147 322.67 30.432 324.803 30.432C326.851 30.432 328.537 31.1147 329.859 32.48C331.225 33.8453 331.907 35.552 331.907 37.6C331.907 39.648 331.225 41.3547 329.859 42.72C328.537 44.0853 326.851 44.768 324.803 44.768C322.67 44.768 320.921 44.0853 319.555 42.72Z" fill="currentColor"/>
</svg>
