<svg  viewBox="0 0 24 24" fill="none" xmlns="http://www.w3.org/2000/svg">
    <path stroke="currentColor" stroke-linecap="round" stroke-linejoin="round"   d="M9.925 5.281A9.41 9.41 0 0 0 9.51 7m0 0c-.127.816-.19 1.707-.197 2.586M9.51 7h2.24M9.51 7H7.475m1.838 2.586c-.011 1.48.136 2.923.4 3.899m-.4-3.899c-3.49.5-3.307 3.95-.111 3.95.174 0 .345-.018.51-.051m-.399-3.899c.273-.039.567-.06.885-.06.906 0 1.71.218 2.325.597m-2.81 3.362c.063.238.135.448.212.624m-.213-.624c1.655-.334 2.811-2.224 2.811-3.362m0 0c.774.476 1.248 1.207 1.248 2.077m-1.248-2.077c.124-.67.124-1.17.124-1.17m.83 9.01.773-1.588m0 0h4.633m-4.633 0 2.317-4.766 2.316 4.766m0 0 .772 1.589M17 2H9C5 2 3 4 3 8v7.102l-1.935 4.033A2 2 0 0 0 2.868 22H17c3.977 0 6-2 6-6V8c0-3.875-2-6-6-6Z"/>
</svg>
