<?xml version="1.0" encoding="UTF-8" standalone="no"?>
<!-- Created with Keyshape -->
<svg xmlns="http://www.w3.org/2000/svg" shape-rendering="geometricPrecision" text-rendering="geometricPrecision" viewBox="0 0 130 130" style="white-space: pre;">
    <style>
@keyframes Text_t { 0% { transform: translate(65px,65px) rotate(0deg) scale(0.95,0.95) translate(-53.7325px,-61.7197px); } 100% { transform: translate(65px,65px) rotate(-359deg) scale(0.95,0.95) translate(-53.7325px,-61.7197px); } }
    </style>
    <g id="Text" transform="translate(65,65) scale(0.95,0.95) translate(-53.7325,-61.7197)" style="animation: 7s linear infinite both Text_t;">
        <path fill-rule="evenodd" clip-rule="evenodd" d="M56.5073,16.5956C55.4926,16.4836,54.6252,16.1478,53.9053,15.5883C53.1853,15.0289,52.6486,14.3151,52.295,13.447C51.9573,12.5662,51.8457,11.6012,51.9603,10.5522C52.0765,9.48872,52.3945,8.56392,52.9143,7.77777C53.4483,6.99319,54.1192,6.4128,54.9269,6.03659C55.7505,5.64758,56.6767,5.5099,57.7057,5.62354C58.3632,5.69615,58.9644,5.88617,59.5093,6.19361C59.7365,6.3154,59.9456,6.45279,60.1369,6.60577L60.7555,0.942627L64.4856,1.35458L62.7691,17.069L59.1033,16.6642L59.1697,16.0564C58.9283,16.1966,58.6695,16.3148,58.3933,16.4112C57.7934,16.6068,57.1647,16.6682,56.5073,16.5956ZM57.5368,13.3278C57.9513,13.3736,58.318,13.3268,58.6369,13.1875C58.9575,13.0339,59.2207,12.8084,59.4268,12.5112C59.6487,12.2012,59.7832,11.8306,59.8302,11.3995C59.8758,10.9827,59.83,10.6068,59.6931,10.2717C59.5561,9.93662,59.3406,9.6583,59.0466,9.43675C58.7669,9.21679,58.427,9.08471,58.0268,9.04051C57.6266,8.99632,57.2591,9.05027,56.9243,9.20237C56.6038,9.35604,56.3326,9.58788,56.1107,9.89789C55.9046,10.1951,55.7796,10.5449,55.7357,10.9473C55.6902,11.364,55.7351,11.7472,55.8705,12.0966C56.0075,12.4317,56.223,12.71,56.517,12.9316C56.811,13.1531,57.1509,13.2852,57.5368,13.3278ZM41.0831,16.796C41.8823,17.2069,42.769,17.3711,43.7433,17.2884C44.4023,17.2324,44.9937,17.0589,45.5176,16.7678C45.8447,16.586,46.1299,16.3738,46.3731,16.1313L46.4328,16.8425L50.1076,16.5306L49.2206,5.96377L45.5458,6.27568L45.6046,6.97673C45.3242,6.77636,45.008,6.61864,44.6559,6.50356C44.0909,6.30487,43.479,6.23349,42.8199,6.28943C41.8457,6.37212,40.9989,6.68338,40.2795,7.22323C39.5589,7.74867,39.0187,8.44741,38.6591,9.31943C38.2994,10.1915,38.1643,11.1605,38.2538,12.2265C38.3421,13.2782,38.6362,14.2035,39.1362,15.0026C39.6349,15.7872,40.2839,16.3851,41.0831,16.796ZM45.6892,13.1406C45.3506,13.5756,44.8733,13.8192,44.2572,13.8715C43.8704,13.9043,43.5115,13.8405,43.1806,13.68C42.8497,13.5194,42.585,13.288,42.3865,12.9857C42.1867,12.6689,42.0693,12.3017,42.0343,11.8839C42.0004,11.4805,42.0561,11.1131,42.2014,10.7816C42.3599,10.4344,42.5817,10.1544,42.8668,9.94162C43.1663,9.72759,43.5166,9.60355,43.9177,9.5695C44.3189,9.53545,44.6777,9.5993,44.9943,9.76104C45.3252,9.92156,45.5899,10.153,45.7885,10.4553C45.987,10.7577,46.1038,11.1177,46.1388,11.5355C46.1921,12.1694,46.0422,12.7044,45.6892,13.1406ZM34.4551,20.5754C33.5217,21.2262,32.5535,21.6109,31.5506,21.7296C30.5514,21.8282,29.6015,21.6812,28.701,21.2888C27.7923,20.8844,27.0389,20.2485,26.4408,19.3813C25.8427,18.514,25.517,17.5976,25.4635,16.6321C25.4137,15.6464,25.6198,14.7022,26.082,13.7994C26.536,12.8847,27.2238,12.1061,28.1454,11.4635C29.0669,10.8209,30.0274,10.4504,31.0266,10.3518C32.0295,10.2331,32.9812,10.37,33.8817,10.7625C34.7741,11.1431,35.5193,11.767,36.1173,12.6343C36.7154,13.5016,37.0434,14.434,37.1015,15.4315C37.1631,16.4089,36.9669,17.3549,36.513,18.2696C36.0626,19.1642,35.3766,19.9328,34.4551,20.5754ZM32.5325,17.8255C32.8752,17.5866,33.1214,17.3094,33.2712,16.9938C33.4246,16.6581,33.478,16.3042,33.4314,15.9321C33.3847,15.56,33.2385,15.1957,32.9927,14.8393C32.7469,14.4829,32.4571,14.2276,32.1233,14.0733C31.7931,13.8989,31.4548,13.8269,31.1083,13.8574C30.7537,13.8759,30.4051,14.0046,30.0624,14.2435C29.7316,14.4742,29.4895,14.7574,29.3361,15.0931C29.1826,15.4288,29.1293,15.7826,29.1759,16.1548C29.2144,16.515,29.3565,16.8733,29.6023,17.2297C29.8399,17.5742,30.1238,17.8337,30.454,18.0081C30.7842,18.1825,31.1325,18.2563,31.4989,18.2295C31.8572,18.1908,32.2017,18.0562,32.5325,17.8255ZM19.2822,30.9631L10.0178,19.6451L12.9528,17.1235L20.045,25.7877L25.0607,21.6059L27.2182,24.145L22.2172,28.4415L21.6105,28.9627L19.2822,30.9631ZM67.6195,7.23618L64.9491,17.495L68.6003,18.4559L71.2706,8.19711L67.6195,7.23618ZM68.5317,5.61572C68.7987,6.07453,69.2034,6.37533,69.7459,6.51809C70.3161,6.66818,70.8225,6.60717,71.2648,6.33505C71.7248,6.0526,72.0276,5.63166,72.1732,5.07221C72.3152,4.52676,72.2545,4.01763,71.9911,3.54482C71.7417,3.07568,71.3319,2.76607,70.7616,2.61598C70.2191,2.47321,69.7179,2.54305,69.258,2.8255C68.7981,3.10794,68.4971,3.52189,68.3551,4.06735C68.2095,4.62679,68.2684,5.14292,68.5317,5.61572ZM77.2439,22.3013L80.2967,16.6544C80.5285,16.2216,80.5825,15.8158,80.4588,15.4368C80.342,15.0452,80.0874,14.7431,79.6949,14.5306C79.4291,14.3867,79.1579,14.3137,78.8813,14.3118C78.6175,14.3167,78.374,14.3901,78.151,14.5321C77.928,14.674,77.7381,14.8914,77.5813,15.1842L77.5744,15.1747L74.5286,20.8311L70.9014,19.3079L76.4552,9.32828L79.7592,11.1172L79.4258,11.7365C79.6664,11.6952,79.9134,11.6772,80.1667,11.6827C80.9127,11.6925,81.6527,11.8962,82.3869,12.2937C83.0579,12.657,83.5676,13.1383,83.9163,13.7375C84.2843,14.3309,84.4805,14.9708,84.5049,15.6572C84.5292,16.3436,84.3642,17.0177,84.0097,17.6796L80.5479,24.0903L77.2439,22.3013ZM80.513,30.0258C80.9389,30.9258,81.5941,31.7567,82.4785,32.5186C83.3519,33.2711,84.2823,33.768,85.2695,34.0092C86.2473,34.2615,87.204,34.2385,88.1397,33.9404C89.0768,33.6626,89.9103,33.0955,90.6399,32.2392L97.0242,24.7461L94.2236,22.3334L93.8842,22.7318C93.8196,22.4857,93.7253,22.2408,93.6013,21.9972C93.3455,21.4532,92.9664,20.9648,92.4641,20.5321C91.7217,19.8925,90.9115,19.4991,90.0334,19.3519C89.1664,19.2141,88.3165,19.3005,87.4838,19.6112C86.6511,19.9219,85.9167,20.4505,85.2806,21.1971C84.6445,21.9436,84.233,22.7599,84.0461,23.6459C83.8591,24.532,83.8999,25.3952,84.1683,26.2356C84.457,27.0745,84.9725,27.8137,85.715,28.4534C86.2172,28.886,86.7507,29.1933,87.3152,29.375C87.5523,29.4456,87.7858,29.4936,88.0159,29.5192L87.706,29.883C87.257,30.41,86.7463,30.6649,86.174,30.6478C85.6032,30.6511,85.034,30.4082,84.4662,29.919C83.9967,29.5146,83.673,29.0834,83.4951,28.6256C83.3079,28.1787,83.2041,27.6895,83.1837,27.1579L80.0048,27.3891C79.9192,28.2673,80.0886,29.1462,80.513,30.0258ZM89.3123,26.8978C88.9817,26.8414,88.6636,26.6815,88.3578,26.4181C88.063,26.1642,87.8673,25.8718,87.7705,25.5409C87.6737,25.2101,87.6589,24.8831,87.7258,24.5601C87.8022,24.226,87.9479,23.9328,88.1631,23.6803C88.3876,23.4168,88.6534,23.227,88.9606,23.1109C89.2771,22.9838,89.6007,22.9484,89.9314,23.0048C90.2822,23.0596,90.6051,23.214,90.8999,23.4679C91.2056,23.7313,91.4068,24.0284,91.5036,24.3593C91.6097,24.6791,91.6293,25.0006,91.5623,25.3236C91.4953,25.6467,91.3449,25.9454,91.111,26.2199C90.8865,26.4834,90.616,26.6787,90.2995,26.8058C89.9923,26.9219,89.6632,26.9526,89.3123,26.8978Z" fill="currentColor" transform="translate(53.4441,16.62) translate(-53.521,-17.5626)"/>
        <path fill-rule="evenodd" clip-rule="evenodd" d="M50.5343,108.729C51.549,108.841,52.4163,109.177,53.1363,109.736C53.8562,110.296,54.393,111.009,54.7465,111.878C55.0843,112.758,55.1958,113.723,55.0812,114.772C54.9651,115.836,54.6471,116.761,54.1273,117.547C53.5932,118.331,52.9223,118.912,52.1147,119.288C51.2911,119.677,50.3648,119.815,49.3358,119.701C48.6784,119.628,48.0772,119.438,47.5322,119.131C47.3051,119.009,47.0959,118.872,46.9047,118.719L46.2861,124.382L42.556,123.97L44.2724,108.256L47.9382,108.66L47.8719,109.268C48.1132,109.128,48.372,109.01,48.6483,108.913C49.2482,108.718,49.8769,108.656,50.5343,108.729ZM49.5048,111.997C49.0903,111.951,48.7236,111.998,48.4046,112.137C48.0841,112.291,47.8208,112.516,47.6148,112.813C47.3929,113.123,47.2584,113.494,47.2113,113.925C47.1658,114.342,47.2115,114.718,47.3485,115.053C47.4855,115.388,47.7009,115.666,47.995,115.888C48.2747,116.108,48.6146,116.24,49.0148,116.284C49.4149,116.328,49.7824,116.274,50.1173,116.122C50.4378,115.969,50.709,115.737,50.9309,115.427C51.1369,115.129,51.2619,114.78,51.3059,114.377C51.3514,113.961,51.3065,113.577,51.1711,113.228C51.0341,112.893,50.8186,112.615,50.5246,112.393C50.2306,112.171,49.8906,112.039,49.5048,111.997ZM65.9585,108.529C65.1592,108.118,64.2725,107.954,63.2983,108.036C62.6393,108.092,62.0479,108.266,61.524,108.557C61.1969,108.739,60.9117,108.951,60.6684,109.193L60.6087,108.482L56.9339,108.794L57.821,119.361L61.4958,119.049L61.4369,118.348C61.7174,118.548,62.0336,118.706,62.3856,118.821C62.9506,119.02,63.5626,119.091,64.2216,119.035C65.1959,118.953,66.0427,118.641,66.7621,118.101C67.4827,117.576,68.0228,116.877,68.3825,116.005C68.7421,115.133,68.8772,114.164,68.7877,113.098C68.6994,112.047,68.4053,111.121,67.9054,110.322C67.4067,109.537,66.7577,108.94,65.9585,108.529ZM61.3523,112.184C61.691,111.749,62.1683,111.505,62.7844,111.453C63.1712,111.42,63.53,111.484,63.8609,111.645C64.1919,111.805,64.4566,112.037,64.6551,112.339C64.8548,112.656,64.9722,113.023,65.0073,113.441C65.0412,113.844,64.9854,114.212,64.8401,114.543C64.6817,114.89,64.4599,115.17,64.1748,115.383C63.8753,115.597,63.525,115.721,63.1239,115.755C62.7227,115.789,62.3638,115.725,62.0473,115.564C61.7164,115.403,61.4516,115.172,61.2531,114.869C61.0546,114.567,60.9378,114.207,60.9027,113.789C60.8495,113.155,60.9994,112.62,61.3523,112.184ZM72.5865,104.749C73.5199,104.098,74.488,103.714,75.4909,103.595C76.4902,103.496,77.4401,103.643,78.3406,104.036C79.2493,104.44,80.0027,105.076,80.6008,105.943C81.1988,106.811,81.5246,107.727,81.5781,108.692C81.6279,109.678,81.4217,110.622,80.9595,111.525C80.5056,112.44,79.8178,113.218,78.8962,113.861C77.9746,114.504,77.0142,114.874,76.0149,114.973C75.0121,115.091,74.0603,114.955,73.1598,114.562C72.2675,114.181,71.5223,113.558,70.9242,112.69C70.3262,111.823,69.9981,110.891,69.9401,109.893C69.8785,108.916,70.0746,107.97,70.5286,107.055C70.979,106.16,71.6649,105.392,72.5865,104.749ZM74.509,107.499C74.1664,107.738,73.9202,108.015,73.7704,108.331C73.6169,108.666,73.5636,109.02,73.6102,109.392C73.6569,109.765,73.8031,110.129,74.0488,110.485C74.2946,110.842,74.5844,111.097,74.9183,111.251C75.2485,111.426,75.5868,111.498,75.9332,111.467C76.2879,111.449,76.6365,111.32,76.9791,111.081C77.3099,110.85,77.5521,110.567,77.7055,110.232C77.8589,109.896,77.9123,109.542,77.8657,109.17C77.8272,108.81,77.6851,108.451,77.4393,108.095C77.2017,107.75,76.9178,107.491,76.5876,107.316C76.2574,107.142,75.9091,107.068,75.5426,107.095C75.1844,107.134,74.8398,107.268,74.509,107.499ZM87.7593,94.3616L97.0237,105.68L94.0888,108.201L86.9966,99.5369L81.9809,103.719L79.8234,101.18L84.8244,96.8832L85.431,96.362L87.7593,94.3616ZM39.4221,118.088L42.0924,107.83L38.4413,106.869L35.771,117.127L39.4221,118.088ZM38.5099,119.709C38.2429,119.25,37.8382,118.949,37.2957,118.806C36.7254,118.656,36.2191,118.717,35.7767,118.99C35.3168,119.272,35.014,119.693,34.8684,120.252C34.7264,120.798,34.7871,121.307,35.0504,121.78C35.2999,122.249,35.7097,122.559,36.28,122.709C36.8224,122.851,37.3236,122.782,37.7836,122.499C38.2435,122.217,38.5444,121.803,38.6864,121.257C38.8321,120.698,38.7732,120.182,38.5099,119.709ZM29.7978,103.023L26.745,108.67C26.5133,109.103,26.4592,109.509,26.5829,109.888C26.6998,110.28,26.9544,110.582,27.3468,110.794C27.6127,110.938,27.8839,111.011,28.1604,111.013C28.4243,111.008,28.6677,110.935,28.8907,110.793C29.1137,110.651,29.3036,110.433,29.4604,110.14L29.4674,110.15L32.5132,104.494L36.1404,106.017L30.5865,115.996L27.2825,114.207L27.616,113.588C27.3753,113.629,27.1283,113.647,26.875,113.642C26.1291,113.632,25.389,113.428,24.6548,113.031C23.9839,112.668,23.4741,112.186,23.1255,111.587C22.7574,110.994,22.5612,110.354,22.5369,109.667C22.5125,108.981,22.6776,108.307,23.0321,107.645L26.4938,101.234L29.7978,103.023ZM26.5287,95.2988C26.1028,94.3988,25.4476,93.5679,24.5632,92.806C23.6898,92.0535,22.7594,91.5566,21.7722,91.3153C20.7944,91.0631,19.8377,91.0861,18.902,91.3842C17.9649,91.662,17.1315,92.229,16.4018,93.0854L10.0175,100.578L12.8181,102.991L13.1575,102.593C13.2221,102.839,13.3164,103.084,13.4404,103.327C13.6962,103.871,14.0753,104.36,14.5776,104.792C15.32,105.432,16.1302,105.826,17.0083,105.973C17.8754,106.111,18.7253,106.024,19.5579,105.713C20.3906,105.403,21.125,104.874,21.7611,104.128C22.3972,103.381,22.8087,102.565,22.9957,101.679C23.1826,100.793,23.1418,99.9294,22.8734,99.089C22.5847,98.2501,22.0692,97.5108,21.3267,96.8712C20.8245,96.4385,20.2911,96.1313,19.7265,95.9496C19.4895,95.879,19.2559,95.8309,19.0258,95.8053L19.3357,95.4416C19.7847,94.9146,20.2954,94.6597,20.8677,94.6768C21.4385,94.6735,22.0078,94.9164,22.5755,95.4056C23.045,95.81,23.3687,96.2412,23.5466,96.699C23.7338,97.1459,23.8376,97.6351,23.858,98.1667L27.0369,97.9354C27.1225,97.0573,26.9531,96.1784,26.5287,95.2988ZM17.7294,98.4268C18.06,98.4832,18.3782,98.6431,18.6839,98.9065C18.9787,99.1604,19.1744,99.4528,19.2712,99.7837C19.368,100.115,19.3829,100.441,19.3159,100.765C19.2395,101.099,19.0938,101.392,18.8786,101.644C18.6541,101.908,18.3883,102.098,18.0811,102.214C17.7646,102.341,17.441,102.376,17.1104,102.32C16.7595,102.265,16.4366,102.111,16.1418,101.857C15.8361,101.593,15.6349,101.296,15.5381,100.965C15.432,100.645,15.4124,100.324,15.4794,100.001C15.5464,99.6779,15.6968,99.3791,15.9307,99.1047C16.1552,98.8412,16.4257,98.6459,16.7422,98.5188C17.0494,98.4027,17.3785,98.372,17.7294,98.4268Z" fill="currentColor" transform="translate(53.4437,106.819) translate(-53.5206,-107.762)"/>
        <path fill-rule="evenodd" clip-rule="evenodd" d="M101.007,44.7925C101.007,45.8006,101.82,46.6178,102.822,46.6178C103.825,46.6178,104.637,45.8006,104.637,44.7925C104.637,43.7844,103.825,42.9672,102.822,42.9672C101.82,42.9672,101.007,43.7844,101.007,44.7925ZM101.007,79.8389C101.007,80.8471,101.82,81.6643,102.822,81.6643C103.825,81.6643,104.637,80.8471,104.637,79.8389C104.637,78.8308,103.825,78.0136,102.822,78.0136C101.82,78.0136,101.007,78.8308,101.007,79.8389ZM105.001,72.9027C103.998,72.9027,103.185,72.0854,103.185,71.0773C103.185,70.0692,103.998,69.252,105.001,69.252C106.003,69.252,106.816,70.0692,106.816,71.0773C106.816,72.0854,106.003,72.9027,105.001,72.9027ZM103.911,62.3157C103.911,63.3238,104.724,64.1411,105.727,64.1411C106.729,64.1411,107.542,63.3238,107.542,62.3157C107.542,61.3076,106.729,60.4904,105.727,60.4904C104.724,60.4904,103.911,61.3076,103.911,62.3157ZM105.001,55.3794C103.998,55.3794,103.185,54.5622,103.185,53.5541C103.185,52.546,103.998,51.7288,105.001,51.7288C106.003,51.7288,106.816,52.546,106.816,53.5541C106.816,54.5622,106.003,55.3794,105.001,55.3794Z" fill="currentColor" transform="translate(104.198,61.3731) translate(-104.275,-62.3157)"/>
        <path fill-rule="evenodd" clip-rule="evenodd" d="M6.612,44.7925C6.612,45.8006,5.79927,46.6178,4.79671,46.6178C3.79416,46.6178,2.98143,45.8006,2.98143,44.7925C2.98143,43.7844,3.79416,42.9672,4.79671,42.9672C5.79927,42.9672,6.612,43.7844,6.612,44.7925ZM6.612,79.8389C6.612,80.8471,5.79927,81.6643,4.79671,81.6643C3.79416,81.6643,2.98143,80.8471,2.98143,79.8389C2.98143,78.8308,3.79416,78.0136,4.79671,78.0136C5.79927,78.0136,6.612,78.8308,6.612,79.8389ZM2.61836,72.9027C3.62091,72.9027,4.43364,72.0854,4.43364,71.0773C4.43364,70.0692,3.62091,69.252,2.61836,69.252C1.6158,69.252,0.803072,70.0692,0.803072,71.0773C0.803072,72.0854,1.6158,72.9027,2.61836,72.9027ZM3.70751,62.3157C3.70751,63.3238,2.89478,64.1411,1.89222,64.1411C0.889668,64.1411,0.076937,63.3238,0.076937,62.3157C0.076937,61.3076,0.889668,60.4904,1.89222,60.4904C2.89478,60.4904,3.70751,61.3076,3.70751,62.3157ZM2.61836,55.3794C3.62091,55.3794,4.43364,54.5622,4.43364,53.5541C4.43364,52.546,3.62091,51.7288,2.61836,51.7288C1.6158,51.7288,0.803072,52.546,0.803072,53.5541C0.803072,54.5622,1.6158,55.3794,2.61836,55.3794Z" fill="currentColor" transform="translate(3.26753,61.3731) translate(-3.34447,-62.3157)"/>
    </g>
    <g transform="translate(65.0497,63.7866) translate(-33.0497,-29.7866)">
        <path d="M63.5411,45.6624C61.2831,45.6764,59.1245,46.4631,57.4395,47.695M58.8014,47.4306L60.5616,51.2465M57.749,42.198C58.4945,41.6369,59.3825,41.1833,60.4191,40.8814C69.2439,38.311,71.1984,51.8662,62.3737,54.4366C59.6324,55.2351,57.5541,54.4775,56.2558,52.9766" stroke="currentColor" stroke-width="2.6" stroke-linecap="round" fill="none" transform="translate(60.1795,38.796) translate(-62.1756,-47.659)"/>
        <path d="M6.17911,45.4891C8.30369,45.5023,9.88099,46.2631,11.4444,47.4425M10.5323,47.1131L8.91568,50.6179M11.6752,42.4444C10.9555,41.8656,10.0817,41.3995,9.04653,41.0979C0.941343,38.7372,-0.853826,51.1871,7.25136,53.5479C9.43829,54.1848,11.1658,53.7436,12.3635,52.7132" stroke="currentColor" stroke-width="2.6" stroke-linecap="round" fill="none" transform="translate(5.1837,38.4599) translate(-7.1798,-47.3229)"/>
        <path d="M54.7504,34.7349C55.4638,36.0865,56.0522,37.5298,56.4962,39.0544C60.0417,51.2269,53.0481,63.969,40.8755,67.5144C28.7029,71.0599,15.9609,64.0663,12.4154,51.8937C9.29625,41.1848,14.334,30.0352,23.879,25.0946" stroke="currentColor" stroke-width="2.6" stroke-linecap="round" fill="none" transform="translate(32.4597,37.9025) translate(-34.4558,-46.7654)"/>
        <path d="M41.6943,39.6504L42.7683,39.3202C42.6707,39.003,42.4379,38.7451,42.1322,38.6157C41.8265,38.4863,41.4792,38.4988,41.1836,38.6497L41.6943,39.6504ZM38.4507,36.4526L39.4743,36.916C39.6413,36.5471,39.5969,36.1169,39.3581,35.7899C39.1192,35.4629,38.7229,35.2897,38.3207,35.3366L38.4507,36.4526ZM38.09,36.5293L37.7581,35.4559L37.7581,35.4559L38.09,36.5293ZM37.0944,37.2228L37.9858,37.9068L37.9858,37.9068L37.0944,37.2228ZM36.5999,38.3483L37.6975,38.5886L36.5999,38.3483ZM36.5185,39.821L35.3985,39.9109L36.5185,39.821ZM36.7885,41.2517L35.7111,41.5704L35.7111,41.5704L36.7885,41.2517ZM37.2121,42.348L36.2018,42.8397L36.2018,42.8397L37.2121,42.348ZM39.1886,44.4196L39.5688,43.3624L39.5688,43.3624L39.1886,44.4196ZM40.4173,44.4538L40.7375,45.5308L40.7375,45.5308L40.4173,44.4538ZM41.4246,43.7559L42.3195,44.4353L42.3195,44.4353L41.4246,43.7559ZM41.9046,42.6647L40.8082,42.4191L40.8082,42.4191L41.9046,42.6647ZM41.9646,40.9174L40.8489,41.0506L40.8489,41.0506L41.9646,40.9174ZM39.168,36.2127C38.9932,35.6174,38.3687,35.2764,37.7734,35.4513C37.178,35.6262,36.8371,36.2506,37.0119,36.846L39.168,36.2127ZM37.1813,37.4227C37.3562,38.018,37.9806,38.3589,38.5759,38.1841C39.1713,38.0092,39.5122,37.3848,39.3374,36.7894L37.1813,37.4227ZM39.918,38.7665C39.7432,38.1711,39.1187,37.8302,38.5234,38.005C37.928,38.1799,37.5871,38.8043,37.7619,39.3997L39.918,38.7665ZM39.3392,44.7704C39.5141,45.3658,40.1385,45.7067,40.7339,45.5319C41.3293,45.357,41.6702,44.7326,41.4953,44.1372L39.3392,44.7704ZM40.9021,40.9601C41.4858,40.7492,41.7879,40.1052,41.577,39.5215C41.3662,38.9379,40.7221,38.6358,40.1385,38.8467L40.9021,40.9601ZM36.4067,40.195C35.8231,40.4059,35.521,41.05,35.7318,41.6336C35.9427,42.2172,36.5867,42.5193,37.1704,42.3085L36.4067,40.195ZM37.309,37.4768C36.8277,37.0851,36.12,37.1578,35.7284,37.6391C35.3367,38.1205,35.4094,38.8281,35.8908,39.2198L37.309,37.4768ZM41.1955,43.5362C41.6768,43.9278,42.3845,43.8551,42.7761,43.3738C43.1678,42.8925,43.0951,42.1848,42.6138,41.7931L41.1955,43.5362ZM40.5953,39.9918C40.7945,39.4041,40.4795,38.7662,39.8918,38.5671C39.3041,38.3679,38.6662,38.6828,38.467,39.2705L40.5953,39.9918ZM37.0903,43.3328C36.8911,43.9205,37.2061,44.5584,37.7938,44.7576C38.3815,44.9567,39.0194,44.6418,39.2185,44.0541L37.0903,43.3328ZM38.0651,44.4348C38.0735,45.0552,38.5832,45.5515,39.2037,45.5431C39.8242,45.5347,40.3204,45.025,40.312,44.4045L38.0651,44.4348ZM40.2438,39.3411C40.2354,38.7207,39.7256,38.2245,39.1052,38.2328C38.4847,38.2412,37.9885,38.751,37.9969,39.3714L40.2438,39.3411ZM38.031,36.6021C37.6882,36.0848,36.9909,35.9434,36.4737,36.2863C35.9565,36.6291,35.8151,37.3263,36.1579,37.8435L38.031,36.6021ZM40.4881,44.3767C40.8309,44.8939,41.5281,45.0353,42.0454,44.6925C42.5626,44.3496,42.704,43.6524,42.3612,43.1352L40.4881,44.3767ZM41.7428,42.0188C42.3512,42.1413,42.9436,41.7474,43.0661,41.1391C43.1885,40.5308,42.7946,39.9384,42.1863,39.8159L41.7428,42.0188ZM36.7402,38.7195C36.1319,38.5971,35.5395,38.991,35.417,39.5993C35.2945,40.2076,35.6884,40.8,36.2967,40.9225L36.7402,38.7195ZM40.583,40.5368C41.0193,40.0955,41.0153,39.3841,40.574,38.9478C40.1328,38.5115,39.4214,38.5156,38.9851,38.9568L40.583,40.5368ZM36.4131,41.5581C35.9768,41.9993,35.9808,42.7107,36.4221,43.147C36.8633,43.5833,37.5747,43.5793,38.011,43.138L36.4131,41.5581ZM41.1836,38.6497C41.0903,38.6973,40.9886,38.7338,40.8789,38.7566L41.3371,40.9565C41.6445,40.8925,41.9355,40.7888,42.2051,40.6512L41.1836,38.6497ZM40.8789,38.7566C40.2223,38.8933,39.5373,38.4625,39.3862,37.7368L37.1863,38.1949C37.5815,40.0929,39.4232,41.3551,41.3371,40.9565L40.8789,38.7566ZM39.3862,37.7368C39.3254,37.4447,39.3635,37.1606,39.4743,36.916L37.4272,35.9891C37.1252,36.6562,37.0258,37.4245,37.1863,38.1949L39.3862,37.7368ZM38.4218,37.6028C38.4793,37.585,38.5322,37.5743,38.5808,37.5686L38.3207,35.3366C38.1317,35.3586,37.9439,35.3985,37.7581,35.4559L38.4218,37.6028ZM37.9858,37.9068C38.0976,37.7611,38.2344,37.6607,38.4218,37.6028L37.7581,35.4559C37.1051,35.6578,36.5846,36.0416,36.2031,36.5388L37.9858,37.9068ZM37.6975,38.5886C37.7649,38.2806,37.8699,38.0579,37.9858,37.9068L36.2031,36.5388C35.8419,37.0094,35.623,37.5568,35.5023,38.1079L37.6975,38.5886ZM37.6384,39.7312C37.604,39.3015,37.6265,38.9128,37.6975,38.5886L35.5023,38.1079C35.3749,38.6898,35.35,39.3062,35.3985,39.9109L37.6384,39.7312ZM37.866,40.933C37.7472,40.5315,37.6698,40.1224,37.6384,39.7312L35.3985,39.9109C35.4431,40.4667,35.551,41.0292,35.7111,41.5704L37.866,40.933ZM38.2224,41.8564C38.0819,41.5678,37.9614,41.2557,37.866,40.933L35.7111,41.5704C35.8401,42.0066,36.0047,42.4347,36.2018,42.8397L38.2224,41.8564ZM39.5688,43.3624C39.1591,43.215,38.644,42.7229,38.2224,41.8564L36.2018,42.8397C36.7381,43.942,37.6033,45.0435,38.8083,45.4769L39.5688,43.3624ZM40.097,43.3769C39.9072,43.4333,39.7397,43.4238,39.5688,43.3624L38.8083,45.4769C39.4098,45.6932,40.0683,45.7298,40.7375,45.5308L40.097,43.3769ZM40.5297,43.0765C40.4187,43.2227,40.2836,43.3214,40.097,43.3769L40.7375,45.5308C41.4047,45.3324,41.9344,44.9426,42.3195,44.4353L40.5297,43.0765ZM40.8082,42.4191C40.7417,42.7162,40.6404,42.9307,40.5297,43.0765L42.3195,44.4353C42.6678,43.9765,42.8812,43.4453,43.001,42.9102L40.8082,42.4191ZM40.8489,41.0506C40.9109,41.5691,40.8934,42.0389,40.8082,42.4191L43.001,42.9102C43.1538,42.228,43.1651,41.4948,43.0802,40.7841L40.8489,41.0506ZM40.6204,39.9806C40.7294,40.3352,40.8068,40.6978,40.8489,41.0506L43.0802,40.7841C43.0215,40.2922,42.9151,39.7979,42.7683,39.3202L40.6204,39.9806ZM37.0119,36.846L37.1813,37.4227L39.3374,36.7894L39.168,36.2127L37.0119,36.846ZM37.7619,39.3997L38.0519,40.3871L40.208,39.7539L39.918,38.7665L37.7619,39.3997ZM38.0519,40.3871L38.1284,40.6476L40.2845,40.0143L40.208,39.7539L38.0519,40.3871ZM38.1284,40.6476L38.1381,40.6807L40.2942,40.0475L40.2845,40.0144L38.1284,40.6476ZM38.1381,40.6807L38.1409,40.6902L40.297,40.057L40.2942,40.0475L38.1381,40.6807ZM38.1409,40.6902L38.1691,40.786L40.3251,40.1527L40.297,40.057L38.1409,40.6902ZM38.1691,40.786L38.1697,40.7882L40.3258,40.155L40.3251,40.1527L38.1691,40.786ZM38.1697,40.7882L38.1818,40.8292L40.3378,40.196L40.3258,40.155L38.1697,40.7882ZM38.1818,40.8292L39.3392,44.7704L41.4953,44.1372L40.3378,40.196L38.1818,40.8292ZM40.1385,38.8467L38.9062,39.2919L39.6698,41.4053L40.9021,40.9601L40.1385,38.8467ZM38.9062,39.2919L38.853,39.3111L39.6166,41.4246L39.6698,41.4053L38.9062,39.2919ZM38.853,39.3111L38.8372,39.3169L39.6008,41.4303L39.6166,41.4246L38.853,39.3111ZM38.8372,39.3169L38.808,39.3274L39.5716,41.4408L39.6008,41.4303L38.8372,39.3169ZM38.808,39.3274L38.7526,39.3474L39.5163,41.4608L39.5716,41.4408L38.808,39.3274ZM38.7527,39.3474L38.7522,39.3476L39.5157,41.461L39.5162,41.4609L38.7527,39.3474ZM38.7521,39.3476L38.7471,39.3494L39.5108,41.4628L39.5158,41.461L38.7521,39.3476ZM38.7471,39.3494L36.4067,40.195L37.1704,42.3085L39.5107,41.4628L38.7471,39.3494ZM35.8908,39.2198L38.3225,41.1985L39.7408,39.4554L37.309,37.4768L35.8908,39.2198ZM38.3225,41.1984L38.4198,41.2776L39.8381,39.5346L39.7408,39.4554L38.3225,41.1984ZM38.4199,41.2777L38.4217,41.2792L39.8397,39.536L39.838,39.5345L38.4199,41.2777ZM38.4216,41.2791L38.4254,41.2822L39.8437,39.5392L39.8398,39.536L38.4216,41.2791ZM38.4254,41.2822L38.5292,41.3667L39.9475,39.6236L39.8437,39.5392L38.4254,41.2822ZM38.5292,41.3667L38.5507,41.3841L39.9689,39.6411L39.9475,39.6236L38.5292,41.3667ZM38.5507,41.3841L38.5835,41.4109L40.0018,39.6678L39.9689,39.6411L38.5507,41.3841ZM38.5835,41.4109L41.1955,43.5362L42.6138,41.7931L40.0018,39.6678L38.5835,41.4109ZM38.467,39.2705L38.2755,39.8356L40.4038,40.5569L40.5953,39.9918L38.467,39.2705ZM38.2755,39.8356L38.2239,39.988L40.3521,40.7093L40.4038,40.5569L38.2755,39.8356ZM38.2239,39.988L38.2144,40.016L40.3426,40.7373L40.3521,40.7093L38.2239,39.988ZM38.2144,40.016L38.183,40.1087L40.3112,40.83L40.3426,40.7373L38.2144,40.016ZM38.183,40.1088L38.1827,40.1096L40.311,40.8308L40.3112,40.8299L38.183,40.1088ZM38.1827,40.1095L38.1742,40.1345L40.3025,40.8558L40.3109,40.8308L38.1827,40.1095ZM38.1742,40.1345L38.0755,40.4259L40.2037,41.1472L40.3025,40.8558L38.1742,40.1345ZM38.0755,40.4259L37.0903,43.3328L39.2185,44.0541L40.2037,41.1472L38.0755,40.4259ZM40.312,44.4045L40.2631,40.7714L38.0161,40.8017L38.0651,44.4348L40.312,44.4045ZM40.2631,40.7714L40.258,40.3955L38.0111,40.4258L38.0161,40.8017L40.2631,40.7714ZM40.258,40.3955L40.2579,40.389L38.011,40.4193L38.0111,40.4258L40.258,40.3955ZM40.2579,40.3885L40.2579,40.3881L38.011,40.4194L38.011,40.4198L40.2579,40.3885ZM40.2579,40.3886L40.2571,40.3323L38.0102,40.3626L38.011,40.4189L40.2579,40.3886ZM40.2571,40.3323L40.2565,40.2833L38.0096,40.3136L38.0102,40.3626L40.2571,40.3323ZM40.2565,40.2833L40.2534,40.0553L38.0065,40.0856L38.0096,40.3136L40.2565,40.2833ZM40.2534,40.0553L40.2438,39.3411L37.9969,39.3714L38.0065,40.0856L40.2534,40.0553ZM36.1579,37.8435L38.1965,40.9192L40.0696,39.6777L38.031,36.6021L36.1579,37.8435ZM38.1965,40.9192L38.2339,40.9756L40.1069,39.7341L40.0696,39.6777L38.1965,40.9192ZM38.2339,40.9756L38.2388,40.9831L40.1119,39.7417L40.1069,39.7341L38.2339,40.9756ZM38.2388,40.9831L38.2532,41.0049L40.1263,39.7634L40.1119,39.7416L38.2388,40.9831ZM38.2532,41.0049L38.3103,41.0909L40.1833,39.8494L40.1263,39.7634L38.2532,41.0049ZM38.3103,41.0909L38.3112,41.0923L40.1843,39.8508L40.1833,39.8494L38.3103,41.0909ZM38.3112,41.0923L38.3561,41.1601L40.2292,39.9186L40.1843,39.8508L38.3112,41.0923ZM38.3561,41.1601L40.4881,44.3767L42.3612,43.1352L40.2292,39.9186L38.3561,41.1601ZM42.1863,39.8159L39.5003,39.2752L39.0568,41.4781L41.7428,42.0188L42.1863,39.8159ZM39.5003,39.2752L39.4566,39.2664L39.0131,41.4693L39.0568,41.4781L39.5003,39.2752ZM39.4566,39.2664L39.4379,39.2626L38.9944,41.4656L39.0131,41.4693L39.4566,39.2664ZM39.4379,39.2626L39.4025,39.2555L38.959,41.4584L38.9944,41.4656L39.4379,39.2626ZM39.4025,39.2555L39.3921,39.2534L38.9487,41.4563L38.959,41.4584L39.4025,39.2555ZM39.3921,39.2534L39.3554,39.246L38.9119,41.449L38.9487,41.4563L39.3921,39.2534ZM39.3554,39.246L39.2534,39.2255L38.8099,41.4284L38.9119,41.449L39.3554,39.246ZM39.2534,39.2255L36.7402,38.7195L36.2967,40.9225L38.8099,41.4284L39.2534,39.2255ZM38.9851,38.9568L38.5407,39.4063L40.1386,40.9862L40.583,40.5368L38.9851,38.9568ZM38.5407,39.4063L38.4075,39.541L40.0054,41.1209L40.1386,40.9862L38.5407,39.4063ZM38.4075,39.541L38.3818,39.567L39.9797,41.1469L40.0054,41.1209L38.4075,39.541ZM38.3818,39.567L38.3764,39.5724L39.9744,41.1523L39.9797,41.1469L38.3818,39.567ZM38.3764,39.5724L38.3355,39.6138L39.9334,41.1938L39.9743,41.1524L38.3764,39.5724ZM38.3355,39.6137L38.335,39.6143L39.9328,41.1943L39.9333,41.1938L38.3355,39.6137ZM38.335,39.6143L38.3317,39.6176L39.9297,41.1975L39.9329,41.1943L38.335,39.6143ZM38.3317,39.6176L36.4131,41.5581L38.011,43.138L39.9297,41.1975L38.3317,39.6176Z" fill="currentColor" transform="translate(37.2581,31.6322) translate(-39.2542,-40.4952)"/>
        <path d="M28.1055,40.0211L29.2003,40.2735C29.2737,39.9553,29.205,39.6209,29.0121,39.3575C28.8192,39.094,28.5213,38.9274,28.1958,38.9012L28.1055,40.0211ZM26.5228,36.3621L27.43,37.025C27.6647,36.7038,27.712,36.2824,27.5544,35.9171C27.3968,35.5517,27.0578,35.297,26.663,35.2474L26.5228,36.3621ZM25.8087,36.4119L25.5239,35.325L25.5239,35.325L25.8087,36.4119ZM24.7762,36.9715L24.0572,36.1081L24.0572,36.1081L24.7762,36.9715ZM23.8485,38.0357L22.9102,37.4175L22.9102,37.4175L23.8485,38.0357ZM23.2086,39.2744L22.1637,38.8613L22.1637,38.8613L23.2086,39.2744ZM22.8803,40.3507L23.9787,40.5875L23.9787,40.5875L22.8803,40.3507ZM23.1404,43.0747L22.1878,43.6704L22.1878,43.6704L23.1404,43.0747ZM24.0399,43.8216L24.4502,42.7756L24.4502,42.7756L24.0399,43.8216ZM25.2045,43.8858L25.4949,44.9712L25.4949,44.9712L25.2045,43.8858ZM26.206,43.3435L25.4911,42.4767L25.4911,42.4767L26.206,43.3435ZM27.2792,42.0594L28.2406,42.641L28.2406,42.641L27.2792,42.0594ZM27.8762,40.7995L28.9338,41.1788L28.9338,41.1788L27.8762,40.7995ZM27.2135,38.8807C27.4428,38.3041,27.1612,37.6508,26.5845,37.4215C26.0079,37.1922,25.3546,37.4738,25.1254,38.0504L27.2135,38.8807ZM22.9958,43.4064C22.7665,43.983,23.0481,44.6364,23.6247,44.8656C24.2014,45.0949,24.8547,44.8133,25.0839,44.2367L22.9958,43.4064ZM27.5273,41.8675C28.1171,42.0602,28.7515,41.7383,28.9442,41.1484C29.1369,40.5586,28.815,39.9242,28.2252,39.7315L27.5273,41.8675ZM23.5575,38.2064C22.9677,38.0137,22.3333,38.3356,22.1406,38.9255C21.9479,39.5153,22.2698,40.1497,22.8596,40.3424L23.5575,38.2064ZM25.8725,36.7255C25.7366,36.12,25.1356,35.7393,24.5302,35.8752C23.9247,36.011,23.544,36.612,23.6799,37.2175L25.8725,36.7255ZM25.1097,43.5895C25.2455,44.195,25.8465,44.5757,26.452,44.4398C27.0575,44.3039,27.4382,43.703,27.3023,43.0975L25.1097,43.5895ZM27.3081,40.2848C27.8259,39.9429,27.9684,39.2459,27.6265,38.7281C27.2845,38.2103,26.5876,38.0677,26.0698,38.4097L27.3081,40.2848ZM22.1747,40.982C21.6569,41.3239,21.5143,42.0209,21.8563,42.5387C22.1982,43.0565,22.8952,43.1991,23.413,42.8571L22.1747,40.982ZM22.2451,42.3959C21.8702,42.8904,21.9671,43.5952,22.4616,43.9701C22.9561,44.3449,23.6609,44.248,24.0358,43.7535L22.2451,42.3959ZM27.231,39.539C27.6059,39.0445,27.509,38.3397,27.0145,37.9648C26.52,37.5899,25.8153,37.6869,25.4404,38.1814L27.231,39.539ZM26.9286,36.5024C26.9786,35.8839,26.5177,35.342,25.8992,35.292C25.2807,35.242,24.7388,35.7029,24.6888,36.3214L26.9286,36.5024ZM24.0846,43.7952C24.0346,44.4137,24.4955,44.9557,25.114,45.0057C25.7325,45.0557,26.2744,44.5948,26.3244,43.9763L24.0846,43.7952ZM26.4242,42.7884C26.8268,43.2606,27.536,43.317,28.0082,42.9144C28.4804,42.5118,28.5368,41.8026,28.1342,41.3304L26.4242,42.7884ZM24.7035,37.3067C24.3008,36.8345,23.5917,36.7781,23.1195,37.1807C22.6473,37.5833,22.5909,38.2925,22.9935,38.7647L24.7035,37.3067ZM27.4037,40.8887C28.0189,40.8078,28.452,40.2434,28.371,39.6282C28.2901,39.013,27.7257,38.5798,27.1105,38.6608L27.4037,40.8887ZM22.7338,39.2368C22.1185,39.3177,21.6854,39.8821,21.7664,40.4973C21.8473,41.1125,22.4117,41.5456,23.0269,41.4647L22.7338,39.2368ZM28.1958,38.9012C28.0637,38.8905,27.9317,38.8555,27.8042,38.7926L26.8102,40.808C27.1972,40.9988,27.6058,41.108,28.0152,41.141L28.1958,38.9012ZM27.8042,38.7926C27.2674,38.5279,27.0096,37.8346,27.3158,37.2139L25.3004,36.2199C24.4714,37.9007,25.1082,39.9685,26.8102,40.808L27.8042,38.7926ZM27.3158,37.2139C27.3494,37.1457,27.3877,37.0828,27.43,37.025L25.6156,35.6992C25.4972,35.8612,25.3915,36.0351,25.3004,36.2199L27.3158,37.2139ZM26.0935,37.4988C26.198,37.4714,26.2927,37.4656,26.3825,37.4769L26.663,35.2474C26.2693,35.1978,25.886,35.2302,25.5239,35.325L26.0935,37.4988ZM25.4951,37.8349C25.7234,37.6449,25.9269,37.5425,26.0935,37.4988L25.5239,35.325C24.9675,35.4708,24.4754,35.7598,24.0572,36.1081L25.4951,37.8349ZM24.7867,38.6539C25.0121,38.3117,25.2551,38.0348,25.4951,37.8349L24.0572,36.1081C23.6155,36.4759,23.2315,36.9299,22.9102,37.4175L24.7867,38.6539ZM24.2534,39.6876C24.3999,39.3171,24.5816,38.9652,24.7867,38.6539L22.9102,37.4175C22.6149,37.8658,22.3634,38.3563,22.1637,38.8613L24.2534,39.6876ZM23.9787,40.5875C24.0429,40.2894,24.1357,39.9853,24.2534,39.6876L22.1637,38.8613C22.0028,39.2683,21.8734,39.6903,21.782,40.1139L23.9787,40.5875ZM24.0931,42.479C23.8839,42.1445,23.785,41.4857,23.9787,40.5875L21.782,40.1139C21.5339,41.2645,21.5302,42.6189,22.1878,43.6704L24.0931,42.479ZM24.4502,42.7756C24.2883,42.7121,24.1786,42.6157,24.0931,42.479L22.1878,43.6704C22.5168,44.1967,22.9982,44.6198,23.6295,44.8675L24.4502,42.7756ZM24.9141,42.8004C24.7554,42.8428,24.6092,42.838,24.4502,42.7756L23.6295,44.8675C24.2589,45.1145,24.8978,45.1309,25.4949,44.9712L24.9141,42.8004ZM25.4911,42.4767C25.27,42.659,25.0739,42.7576,24.9141,42.8004L25.4949,44.9712C26.0344,44.8268,26.5128,44.5469,26.9209,44.2103L25.4911,42.4767ZM26.3179,41.4778C26.0608,41.9028,25.7741,42.2433,25.4911,42.4767L26.9209,44.2103C27.4413,43.7811,27.8841,43.2302,28.2406,42.641L26.3179,41.4778ZM26.8186,40.4201C26.6849,40.7928,26.5144,41.1529,26.3179,41.4778L28.2406,42.641C28.5177,42.1829,28.7516,41.6867,28.9338,41.1788L26.8186,40.4201ZM27.0106,39.7687C26.9609,39.9845,26.8964,40.2032,26.8186,40.4201L28.9338,41.1788C29.0403,40.8819,29.13,40.5785,29.2003,40.2735L27.0106,39.7687ZM25.1254,38.0504L24.6121,39.3414L26.7002,40.1716L27.2135,38.8807L25.1254,38.0504ZM24.6121,39.3414L24.516,39.583L26.6042,40.4132L26.7002,40.1716L24.6121,39.3414ZM24.516,39.583L24.5038,39.6137L26.5919,40.4439L26.6042,40.4132L24.516,39.583ZM24.5038,39.6137L24.5003,39.6225L26.5884,40.4527L26.5919,40.4439L24.5038,39.6137ZM24.5003,39.6225L24.465,39.7113L26.5531,40.5416L26.5884,40.4527L24.5003,39.6225ZM24.465,39.7113L24.4642,39.7134L26.5523,40.5436L26.5531,40.5415L24.465,39.7113ZM24.4642,39.7134L24.449,39.7514L26.5372,40.5817L26.5523,40.5436L24.4642,39.7134ZM24.449,39.7514L22.9958,43.4064L25.0839,44.2367L26.5372,40.5817L24.449,39.7514ZM28.2252,39.7315L25.9597,38.9913L25.2618,41.1273L27.5273,41.8675L28.2252,39.7315ZM25.9597,38.9913L25.9086,38.9746L25.2107,41.1106L25.2618,41.1273L25.9597,38.9913ZM25.9086,38.9746L25.8933,38.9696L25.1954,41.1056L25.2107,41.1106L25.9086,38.9746ZM25.8933,38.9696L25.8653,38.9604L25.1674,41.0965L25.1954,41.1056L25.8933,38.9696ZM25.8653,38.9604L25.8121,38.9431L25.1142,41.0791L25.1674,41.0965L25.8653,38.9604ZM25.8121,38.9431L25.8116,38.9429L25.1137,41.0789L25.1142,41.0791L25.8121,38.9431ZM25.8115,38.9429L25.8067,38.9413L25.1089,41.0774L25.1137,41.0789L25.8115,38.9429ZM25.8068,38.9413L23.5575,38.2064L22.8596,40.3424L25.1089,41.0773L25.8068,38.9413ZM23.6799,37.2175L24.3353,40.1385L26.5279,39.6465L25.8725,36.7255L23.6799,37.2175ZM24.3353,40.1385L24.3615,40.2553L26.5541,39.7633L26.5279,39.6465L24.3353,40.1385ZM24.3615,40.2553L24.362,40.2575L26.5546,39.7655L26.5541,39.7634L24.3615,40.2553ZM24.362,40.2575L24.363,40.2621L26.5557,39.7701L26.5546,39.7655L24.362,40.2575ZM24.363,40.2621L24.391,40.3868L26.5836,39.8948L26.5557,39.7701L24.363,40.2621ZM24.391,40.3868L24.3968,40.4125L26.5894,39.9205L26.5836,39.8948L24.391,40.3868ZM24.3968,40.4125L24.4057,40.452L26.5983,39.96L26.5894,39.9205L24.3968,40.4125ZM24.4057,40.452L25.1097,43.5895L27.3023,43.0975L26.5983,39.96L24.4057,40.452ZM26.0698,38.4097L25.1199,39.037L26.3582,40.9121L27.3081,40.2848L26.0698,38.4097ZM25.1199,39.037L24.9916,39.1217L26.2299,40.9969L26.3582,40.9121L25.1199,39.037ZM24.9916,39.1217L24.968,39.1373L26.2063,41.0124L26.2299,40.9969L24.9916,39.1217ZM24.968,39.1373L24.8899,39.1889L26.1282,41.064L26.2063,41.0124L24.968,39.1373ZM24.8899,39.1888L24.8892,39.1893L26.1275,41.0645L26.1282,41.064L24.8899,39.1888ZM24.8892,39.1893L24.8682,39.2032L26.1065,41.0784L26.1275,41.0645L24.8892,39.1893ZM24.8682,39.2032L24.6228,39.3653L25.8611,41.2404L26.1065,41.0784L24.8682,39.2032ZM24.6228,39.3653L22.1747,40.982L23.413,42.8571L25.8611,41.2404L24.6228,39.3653ZM24.0358,43.7535L26.1373,40.9816L24.3466,39.624L22.2451,42.3959L24.0358,43.7535ZM26.1373,40.9816L26.3547,40.6949L24.564,39.3373L24.3466,39.624L26.1373,40.9816ZM26.3547,40.6949L26.3585,40.6899L24.5678,39.3322L24.564,39.3372L26.3547,40.6949ZM26.3586,40.6897L26.3588,40.6894L24.5678,39.3322L24.5676,39.3325L26.3586,40.6897ZM26.3587,40.6896L26.3912,40.6467L24.6006,39.289L24.568,39.332L26.3587,40.6896ZM26.3912,40.6467L26.4196,40.6093L24.6289,39.2517L24.6006,39.289L26.3912,40.6467ZM26.4196,40.6093L26.5515,40.4353L24.7608,39.0777L24.6289,39.2517L26.4196,40.6093ZM26.5515,40.4353L27.231,39.539L25.4404,38.1814L24.7608,39.0777L26.5515,40.4353ZM24.6888,36.3214L24.4043,39.8399L26.6442,40.021L26.9286,36.5024L24.6888,36.3214ZM24.4043,39.8399L24.3991,39.9045L26.6389,40.0855L26.6442,40.021L24.4043,39.8399ZM24.3991,39.9045L24.3984,39.9131L26.6383,40.0941L26.6389,40.0855L24.3991,39.9045ZM24.3984,39.913L24.3964,39.9379L26.6362,40.119L26.6383,40.0941L24.3984,39.913ZM24.3964,39.9379L24.3885,40.0364L26.6283,40.2174L26.6362,40.119L24.3964,39.9379ZM24.3884,40.0364L24.3883,40.038L26.6282,40.2189L26.6283,40.2173L24.3884,40.0364ZM24.3883,40.038L24.3821,40.1155L26.6219,40.2966L26.6282,40.219L24.3883,40.038ZM24.3821,40.1155L24.0846,43.7952L26.3244,43.9763L26.6219,40.2966L24.3821,40.1155ZM28.1342,41.3304L26.4421,39.3459L24.7322,40.8039L26.4242,42.7884L28.1342,41.3304ZM26.4421,39.3459L26.4146,39.3136L24.7046,40.7716L24.7322,40.8039L26.4421,39.3459ZM26.4146,39.3136L26.4029,39.2998L24.6929,40.7578L24.7046,40.7716L26.4146,39.3136ZM26.4029,39.2998L26.3805,39.2736L24.6706,40.7316L24.6929,40.7578L26.4029,39.2998ZM26.3805,39.2736L26.374,39.266L24.6641,40.724L24.6706,40.7316L26.3805,39.2736ZM26.374,39.266L26.3509,39.2389L24.6409,40.6968L24.6641,40.724L26.374,39.266ZM26.3509,39.2389L26.2866,39.1635L24.5766,40.6214L24.6409,40.6968L26.3509,39.2389ZM26.2866,39.1635L24.7035,37.3067L22.9935,38.7647L24.5766,40.6214L26.2866,39.1635ZM27.1105,38.6608L25.5925,38.8606L25.8857,41.0885L27.4037,40.8887L27.1105,38.6608ZM25.5925,38.8606L25.4135,38.8841L25.7067,41.1121L25.8857,41.0885L25.5925,38.8606ZM25.4135,38.8841L25.379,38.8887L25.6721,41.1166L25.7067,41.1121L25.4135,38.8841ZM25.3789,38.8887L25.3717,38.8896L25.6649,41.1175L25.6722,41.1166L25.3789,38.8887ZM25.3717,38.8896L25.3167,38.8968L25.6099,41.1248L25.6649,41.1175L25.3717,38.8896ZM25.3168,38.8968L25.3161,38.8969L25.6092,41.1249L25.6099,41.1248L25.3168,38.8968ZM25.316,38.8969L25.3117,38.8975L25.605,41.1254L25.6093,41.1249L25.316,38.8969ZM25.3117,38.8975L22.7338,39.2368L23.0269,41.4647L25.6049,41.1254L25.3117,38.8975Z" fill="currentColor" transform="translate(23.4324,31.2868) translate(-25.4285,-40.1498)"/>
        <path d="M30.1616,45.7929L25.4086,50.5097C25.4086,50.5097,28.3187,53.1096,31.5243,52.1558" stroke="currentColor" stroke-width="2.6" stroke-linecap="round" stroke-linejoin="round" fill="none" transform="translate(26.4703,40.2165) translate(-28.4664,-49.0795)"/>
        <path d="M45.51,33.4647C48.6567,34.0825,51.9062,34.4968,55.1243,34.6202L60.5405,17.5984L49.2572,20.8849L45.3881,10.2046L36.034,16.3955L28.4239,8.86298L23.658,24.8347C26.0635,26.7223,30.0906,28.797,34.9626,30.5514" stroke="currentColor" stroke-width="2.6" stroke-linecap="round" stroke-linejoin="round" fill="none" transform="translate(40.1031,12.8786) translate(-42.0992,-21.7416)"/>
        <path d="M34.9376,31.1579C38.8511,26.4756,44.7484,28.0628,45.3275,33.8052" stroke="currentColor" stroke-width="2.6" stroke-linecap="round" fill="none" transform="translate(38.1364,22.2462) translate(-40.1325,-31.1092)"/>
        <path d="M23.9851,56.2113C27.0197,62.9476,41.8551,64.1234,45.4876,51.5895" stroke="currentColor" stroke-width="2.6" stroke-linecap="round" fill="none" transform="translate(32.7402,47.5244) translate(-34.7363,-56.3874)"/>
        <path d="M21.4266,33.8498C22.5164,29.8984,28.0777,29.2558,30.016,32.8719" stroke="currentColor" stroke-width="2.6" stroke-linecap="round" fill="none" transform="translate(23.7252,23.3072) translate(-25.7213,-32.1702)"/>
    </g>
</svg>
