<svg viewBox="0 0 131 118" fill="none" xmlns="http://www.w3.org/2000/svg">
<path d="M15.9682 61.0109L16.5042 59.1704L15.9682 61.0109ZM12.5274 84.8734L11.9913 86.7139L12.5274 84.8734ZM20.5567 73.3429C21.0001 72.3816 20.5803 71.2428 19.6189 70.7994C18.6576 70.3559 17.5188 70.7758 17.0753 71.7371L20.5567 73.3429ZM13.9767 78.4546C13.5333 79.416 13.9531 80.5548 14.9144 80.9982C15.8758 81.4416 17.0146 81.0218 17.458 80.0605L13.9767 78.4546ZM20.0099 65.2541C20.8191 65.9367 22.0285 65.834 22.7111 65.0247C23.3937 64.2155 23.291 63.0061 22.4817 62.3235L20.0099 65.2541ZM24.0432 84.3008C24.805 83.5656 24.8267 82.3521 24.0915 81.5903C23.3563 80.8284 22.1428 80.8068 21.381 81.542L24.0432 84.3008ZM10.4841 67.5105C9.42545 67.5039 8.5619 68.3568 8.55532 69.4154C8.54874 70.4741 9.40163 71.3377 10.4603 71.3442L10.4841 67.5105ZM19.797 74.3492C20.665 74.9553 21.86 74.7431 22.4662 73.8751C23.0724 73.0071 22.8601 71.8121 21.9921 71.206L19.797 74.3492ZM114.763 64.6214L115.299 66.4619L114.763 64.6214ZM118.374 89.6587L118.91 91.4991L118.374 89.6587ZM113.516 75.9152C113.073 74.9539 111.934 74.534 110.972 74.9775C110.011 75.4209 109.591 76.5597 110.035 77.521L113.516 75.9152ZM113.286 84.5693C113.729 85.5306 114.868 85.9504 115.829 85.507C116.791 85.0636 117.211 83.9248 116.767 82.9634L113.286 84.5693ZM107.99 66.0708C107.181 66.7534 107.078 67.9628 107.761 68.772C108.443 69.5813 109.653 69.684 110.462 69.0014L107.99 66.0708ZM109.019 86.2312C108.257 85.496 107.043 85.5176 106.308 86.2794C105.573 87.0412 105.595 88.2548 106.356 88.9899L109.019 86.2312ZM120.542 75.3691C121.6 75.3625 122.453 74.499 122.447 73.4403C122.44 72.3816 121.577 71.5288 120.518 71.5353L120.542 75.3691ZM108.497 75.3958C107.629 76.0019 107.417 77.1969 108.023 78.0649C108.629 78.9329 109.824 79.1451 110.692 78.539L108.497 75.3958ZM77.9746 113.735L78.5107 115.575L78.5107 115.575L77.9746 113.735ZM23.4256 83.7949L25.2661 83.2588L23.4256 83.7949ZM50.145 32.3726C51.1295 31.9832 51.6119 30.8695 51.2226 29.885C50.8333 28.9005 49.7196 28.418 48.7351 28.8074L50.145 32.3726ZM109.062 87.7289C109.423 86.7336 108.908 85.6342 107.913 85.2734C106.918 84.9126 105.818 85.427 105.457 86.4223L109.062 87.7289ZM104.402 46.8073C103.833 45.9143 102.649 45.6513 101.756 46.2198C100.862 46.7884 100.599 47.9733 101.168 48.8663L104.402 46.8073ZM107.328 67.6493C107.403 68.7053 108.321 69.5003 109.377 69.4248C110.433 69.3494 111.227 68.4322 111.152 67.3762L107.328 67.6493ZM57.3879 4.36957L58.7364 3.00717L56.502 0.795564L55.5592 3.7947L57.3879 4.36957ZM49.0849 30.7822L47.2562 30.2073L46.8587 31.4719L47.9015 32.2903L49.0849 30.7822ZM102.678 47.5281L102.605 49.4436L104.085 49.5004L104.513 48.0821L102.678 47.5281ZM111.282 19.0283L113.117 19.5823L114.138 16.1998L110.746 17.1878L111.282 19.0283ZM92.3477 24.5432L90.5454 25.1961L91.1578 26.8864L92.8838 26.3837L92.3477 24.5432ZM85.8551 6.62089L87.6574 5.96798L86.828 3.67829L84.7972 5.02236L85.8551 6.62089ZM70.1583 17.0097L68.8098 18.3721L69.917 19.4681L71.2162 18.6082L70.1583 17.0097ZM66.0117 41.9538C65.2537 42.6929 65.2385 43.9066 65.9776 44.6645C66.7168 45.4225 67.9304 45.4377 68.6883 44.6986L66.0117 41.9538ZM83.6608 52.4666C83.587 53.5228 84.3833 54.4387 85.4394 54.5125C86.4956 54.5863 87.4115 53.79 87.4853 52.7339L83.6608 52.4666ZM60.0497 71.7324C60.8546 71.0447 60.9495 69.8347 60.2618 69.0298C59.574 68.2249 58.364 68.13 57.5591 68.8177L60.0497 71.7324ZM48.3291 79.2259L47.0838 77.7685L45.2915 79.3L47.1565 80.7423L48.3291 79.2259ZM62.4254 84.3672C63.4529 84.1122 64.0792 83.0725 63.8242 82.045C63.5691 81.0175 62.5294 80.3913 61.5019 80.6463L62.4254 84.3672ZM69.786 108.075L70.3221 109.915L69.786 108.075ZM66.0192 94.5044L66.5553 96.3448L66.0192 94.5044ZM38.0954 50.0147C38.093 51.0734 38.9492 51.9336 40.0079 51.9361C41.0666 51.9385 41.9268 51.0823 41.9292 50.0236L38.0954 50.0147ZM54.4597 44.0081C55.2226 44.7421 56.4361 44.7187 57.1701 43.9558C57.9041 43.1929 57.8807 41.9793 57.1178 41.2453L54.4597 44.0081ZM80.2174 60.2068L82.0496 59.6434C81.8832 59.1021 81.4859 58.6621 80.9643 58.4414C80.4428 58.2207 79.8503 58.2419 79.3459 58.4994L80.2174 60.2068ZM78.9169 60.664L78.5261 58.7873L78.9169 60.664ZM72.6592 56.4711L74.5359 56.0803L72.6592 56.4711ZM73.0241 53.115L74.7703 53.9057C75.0553 53.2763 74.9796 52.5423 74.5721 51.9844C74.1646 51.4265 73.4884 51.131 72.8021 51.211L73.0241 53.115ZM70.0164 54.823L68.4957 53.656L68.4957 53.656L70.0164 54.823ZM68.9197 57.319L67.0471 56.909L67.0471 56.909L68.9197 57.319ZM70.2773 66.1891L68.5536 67.0278L68.5536 67.0278L70.2773 66.1891ZM77.3853 70.8589L77.9317 72.6963L77.9317 72.6963L77.3853 70.8589ZM79.6193 69.3113L81.146 70.4704L81.146 70.4704L79.6193 69.3113ZM80.6837 66.8912L82.5543 67.3101L82.5543 67.3101L80.6837 66.8912ZM70.7604 55.1039C71.0587 56.1197 72.124 56.7013 73.1398 56.403C74.1556 56.1046 74.7372 55.0393 74.4389 54.0235L70.7604 55.1039ZM75.7268 58.409C75.4285 57.3932 74.3632 56.8116 73.3474 57.1099C72.3316 57.4082 71.75 58.4735 72.0483 59.4893L75.7268 58.409ZM78.2649 62.5706C79.2605 62.2109 79.7761 61.1121 79.4163 60.1164C79.0565 59.1207 77.9577 58.6052 76.962 58.9649L78.2649 62.5706ZM77.2356 60.7795C77.5755 59.7769 77.0381 58.6886 76.0354 58.3487C75.0328 58.0089 73.9445 58.5463 73.6047 59.5489L77.2356 60.7795ZM70.5516 68.5574C70.2118 69.5601 70.7491 70.6484 71.7518 70.9882C72.7545 71.328 73.8428 70.7906 74.1826 69.788L70.5516 68.5574ZM76.4259 59.5289C76.4116 58.4703 75.5419 57.6237 74.4833 57.638C73.4247 57.6523 72.5781 58.522 72.5924 59.5806L76.4259 59.5289ZM77.344 61.7683C78.0883 61.0155 78.0815 59.8018 77.3286 59.0574C76.5758 58.3131 75.3621 58.32 74.6177 59.0728L77.344 61.7683ZM54.5171 61.0292L56.385 61.4599C56.5102 60.917 56.393 60.3466 56.0639 59.897C55.7349 59.4474 55.2265 59.1633 54.6712 59.1185L54.5171 61.0292ZM52.7469 60.5396L53.5948 58.8204L52.7469 60.5396ZM50.5311 53.7016L48.812 52.8536L48.812 52.8536L50.5311 53.7016ZM51.0074 52.9147L52.5551 54.0457C52.9556 53.4977 53.0364 52.7787 52.7676 52.1554C52.4987 51.5321 51.9203 51.0975 51.2468 51.0127L51.0074 52.9147ZM49.4237 53.025L48.9378 51.1707L48.9378 51.1707L49.4237 53.025ZM43.6575 59.3731L41.8749 58.6683L43.6575 59.3731ZM42.9296 61.7599L41.0558 61.3559L41.0558 61.3559L42.9296 61.7599ZM43.5064 67.8008L41.881 68.8171L41.881 68.8171L43.5064 67.8008ZM48.0838 69.5994L48.5793 71.4512L48.5793 71.4512L48.0838 69.5994ZM52.6848 65.5492L54.3249 66.5414L54.3249 66.5414L52.6848 65.5492ZM54.0087 62.7552L55.8131 63.4024L55.8131 63.4024L54.0087 62.7552ZM52.0049 58.2877C52.396 57.3039 51.9156 56.1893 50.9318 55.7982C49.9481 55.407 48.8335 55.8875 48.4423 56.8712L52.0049 58.2877ZM52.4319 61.1344C53.3153 60.5509 53.5585 59.3618 52.9751 58.4784C52.3917 57.595 51.2026 57.3518 50.3192 57.9352L52.4319 61.1344ZM41.6814 63.6395C40.798 64.2229 40.5547 65.412 41.1382 66.2954C41.7216 67.1788 42.9107 67.4221 43.7941 66.8386L41.6814 63.6395ZM52.1198 59.6127C52.7595 58.769 52.5941 57.5666 51.7504 56.927C50.9068 56.2874 49.7044 56.4528 49.0648 57.2964L52.1198 59.6127ZM52.8853 62.3833C53.935 62.2452 54.6739 61.2823 54.5358 60.2326C54.3977 59.183 53.4348 58.4441 52.3851 58.5822L52.8853 62.3833ZM16.5042 59.1704C12.1311 57.8967 8.36601 58.5759 5.55363 60.6519C2.79439 62.6886 1.18637 65.8959 0.699152 69.2749C-0.273446 76.0201 3.15451 84.14 11.9913 86.7139L13.0634 83.033C6.36516 81.082 3.74597 75.0082 4.49376 69.8221C4.86673 67.2354 6.06079 65.0427 7.83047 63.7364C9.547 62.4694 12.0377 61.8626 15.4321 62.8513L16.5042 59.1704ZM17.0753 71.7371L13.9767 78.4546L17.458 80.0605L20.5567 73.3429L17.0753 71.7371ZM22.4817 62.3235C20.8479 60.9454 18.8544 59.855 16.5042 59.1704L15.4321 62.8513C17.2828 63.3904 18.7964 64.2305 20.0099 65.2541L22.4817 62.3235ZM11.9913 86.7139C17.0048 88.1741 21.1881 87.056 24.0432 84.3008L21.381 81.542C19.6291 83.2326 16.916 84.1551 13.0634 83.033L11.9913 86.7139ZM10.4603 71.3442C13.8791 71.3655 17.1758 72.5187 19.797 74.3492L21.9921 71.206C18.7789 68.962 14.7331 67.5369 10.4841 67.5105L10.4603 71.3442ZM115.299 66.4619C118.885 65.4175 121.53 66.0559 123.358 67.4052C125.239 68.7938 126.502 71.1194 126.896 73.8529C127.686 79.3327 124.918 85.7559 117.837 87.8182L118.91 91.4991C128.129 88.8139 131.706 80.3446 130.691 73.3058C130.182 69.7799 128.505 66.4397 125.635 64.3207C122.711 62.1624 118.792 61.4515 114.227 62.781L115.299 66.4619ZM110.035 77.521L113.286 84.5693L116.767 82.9634L113.516 75.9152L110.035 77.521ZM110.462 69.0014C111.745 67.9187 113.345 67.031 115.299 66.4619L114.227 62.781C111.774 63.4956 109.694 64.6335 107.99 66.0708L110.462 69.0014ZM117.837 87.8182C113.767 89.0039 110.884 88.0312 109.019 86.2312L106.356 88.9899C109.325 91.8546 113.678 93.023 118.91 91.4991L117.837 87.8182ZM120.518 71.5353C116.08 71.5629 111.854 73.0515 108.497 75.3958L110.692 78.539C113.457 76.6082 116.934 75.3915 120.542 75.3691L120.518 71.5353ZM77.4386 111.894C55.124 118.394 31.7656 105.573 25.2661 83.2588L21.5852 84.3309C28.6768 108.678 54.1632 122.667 78.5107 115.575L77.4386 111.894ZM25.2661 83.2588C19.1407 62.2289 30.1759 40.2696 50.145 32.3726L48.7351 28.8074C26.9428 37.4254 14.9012 61.383 21.5852 84.3309L25.2661 83.2588ZM105.457 86.4223C101.056 98.5638 90.9061 107.972 77.4386 111.894L78.5107 115.575C93.0811 111.331 104.219 101.089 109.062 87.7289L105.457 86.4223ZM101.168 48.8663C104.711 54.4311 106.914 61.8532 107.328 67.6493L111.152 67.3762C110.697 60.9999 108.315 52.9537 104.402 46.8073L101.168 48.8663ZM55.5592 3.7947L47.2562 30.2073L50.9136 31.3571L59.2166 4.94443L55.5592 3.7947ZM47.9015 32.2903C52.6239 35.9959 60.8781 40.061 70.5661 43.2988C80.2886 46.548 91.6306 49.0229 102.605 49.4436L102.751 45.6126C92.2176 45.2087 81.24 42.8237 71.7813 39.6626C62.2883 36.4901 54.4997 32.5946 50.2682 29.2741L47.9015 32.2903ZM104.513 48.0821L113.117 19.5823L109.447 18.4743L100.843 46.9741L104.513 48.0821ZM110.746 17.1878L91.8117 22.7028L92.8838 26.3837L111.818 20.8687L110.746 17.1878ZM94.1501 23.8903L87.6574 5.96798L84.0528 7.2738L90.5454 25.1961L94.1501 23.8903ZM84.7972 5.02236L69.1003 15.4111L71.2162 18.6082L86.9131 8.21942L84.7972 5.02236ZM71.5068 15.6473L58.7364 3.00717L56.0394 5.73197L68.8098 18.3721L71.5068 15.6473ZM68.6883 44.6986C71.8595 41.6061 75.5996 41.686 78.6261 43.4706C81.7609 45.319 83.9111 48.885 83.6608 52.4666L87.4853 52.7339C87.8517 47.4914 84.7663 42.6405 80.5734 40.1681C76.2721 37.6318 70.5923 37.4868 66.0117 41.9538L68.6883 44.6986ZM57.5591 68.8177L47.0838 77.7685L49.5744 80.6832L60.0497 71.7324L57.5591 68.8177ZM48.3291 79.2259C47.1565 80.7423 47.157 80.7427 47.1576 80.7431C47.1578 80.7433 47.1584 80.7438 47.1588 80.7441C47.1597 80.7448 47.1607 80.7456 47.1618 80.7464C47.164 80.7481 47.1666 80.7501 47.1696 80.7524C47.1756 80.7569 47.1832 80.7627 47.1923 80.7697C47.2107 80.7835 47.2354 80.8021 47.2663 80.8248C47.3281 80.8704 47.4147 80.9331 47.5245 81.01C47.7441 81.1636 48.0578 81.3745 48.4539 81.6186C49.2438 82.1054 50.3738 82.732 51.7483 83.2998C54.4706 84.4242 58.3217 85.3857 62.4254 84.3672L61.5019 80.6463C58.4957 81.3924 55.5294 80.7135 53.2119 79.7563C52.0666 79.2833 51.121 78.7588 50.4654 78.3548C50.1387 78.1534 49.8872 77.9839 49.7221 77.8685C49.6397 77.8108 49.5792 77.7669 49.5419 77.7394C49.5233 77.7256 49.5105 77.716 49.5037 77.7109C49.5004 77.7084 49.4985 77.707 49.4982 77.7067C49.498 77.7066 49.4982 77.7067 49.4988 77.7072C49.4991 77.7074 49.4995 77.7077 49.5 77.7081C49.5002 77.7083 49.5007 77.7086 49.5008 77.7087C49.5013 77.7091 49.5018 77.7095 48.3291 79.2259ZM70.3221 109.915C72.8209 109.187 74.4208 107.462 75.1945 105.405C75.9452 103.409 75.9107 101.152 75.3535 99.1447C74.7967 97.1387 73.6643 95.1905 71.9868 93.887C70.2521 92.5389 67.9857 91.935 65.4832 92.6639L66.5553 96.3448C67.7886 95.9856 68.7949 96.2619 69.6344 96.9142C70.5311 97.6111 71.2744 98.7835 71.6593 100.17C72.0438 101.555 72.0171 102.963 71.6061 104.055C71.2182 105.087 70.487 105.874 69.25 106.234L70.3221 109.915ZM65.4832 92.6639C62.9844 93.3917 61.3845 95.1169 60.6108 97.1741C59.8601 99.1699 59.8946 101.427 60.4518 103.434C61.0086 105.441 62.141 107.389 63.8184 108.692C65.5531 110.04 67.8196 110.644 70.3221 109.915L69.25 106.234C68.0166 106.594 67.0103 106.317 66.1709 105.665C65.2741 104.968 64.5308 103.796 64.1459 102.409C63.7614 101.024 63.7882 99.6164 64.1992 98.5237C64.5871 97.4924 65.3182 96.7051 66.5553 96.3448L65.4832 92.6639ZM41.9292 50.0236C41.9362 47.0269 43.8886 44.3788 46.5764 43.0565C49.2342 41.7489 52.2612 41.8929 54.4597 44.0081L57.1178 41.2453C53.5109 37.7751 48.6586 37.7594 44.884 39.6164C41.1394 41.4587 38.1063 45.2996 38.0954 50.0147L41.9292 50.0236ZM79.3459 58.4994C79.0939 58.628 78.82 58.7261 78.5261 58.7873L79.3077 62.5407C79.9391 62.4092 80.5361 62.1963 81.0888 61.9142L79.3459 58.4994ZM78.5261 58.7873C76.7484 59.1575 74.9334 57.9895 74.5359 56.0803L70.7825 56.8619C71.5966 60.7712 75.385 63.3575 79.3077 62.5407L78.5261 58.7873ZM74.5359 56.0803C74.3754 55.31 74.4757 54.5563 74.7703 53.9057L71.2778 52.3243C70.6569 53.6955 70.4522 55.2755 70.7825 56.8619L74.5359 56.0803ZM72.7903 55.1166C72.9506 55.0671 73.1023 55.0358 73.246 55.019L72.8021 51.211C72.419 51.2556 72.0371 51.3366 71.658 51.4538L72.7903 55.1166ZM71.5372 55.9901C71.8542 55.577 72.2556 55.2819 72.7903 55.1166L71.658 51.4538C70.3289 51.8647 69.2728 52.6434 68.4957 53.656L71.5372 55.9901ZM70.7922 57.729C70.9555 56.9837 71.2173 56.4068 71.5372 55.9901L68.4957 53.656C67.7575 54.618 67.3011 55.749 67.0471 56.909L70.7922 57.729ZM70.6499 60.4317C70.5699 59.434 70.6204 58.5138 70.7922 57.729L67.0471 56.909C66.779 58.1334 66.7243 59.4421 66.8283 60.7383L70.6499 60.4317ZM71.1762 63.2141C70.9023 62.288 70.7229 61.3414 70.6499 60.4317L66.8283 60.7383C66.9238 61.9288 67.1554 63.137 67.4998 64.3016L71.1762 63.2141ZM72.001 65.3503C71.675 64.6804 71.3965 63.9588 71.1762 63.2141L67.4998 64.3016C67.7774 65.2398 68.1311 66.1596 68.5536 67.0278L72.001 65.3503ZM75.3092 68.9793C74.1973 68.5794 72.9653 67.3323 72.001 65.3503L68.5536 67.0278C69.7137 69.4121 71.5429 71.699 74.0117 72.5869L75.3092 68.9793ZM76.8389 69.0215C76.2953 69.1832 75.7983 69.1552 75.3092 68.9793L74.0117 72.5869C75.2355 73.0271 76.5702 73.1012 77.9317 72.6963L76.8389 69.0215ZM78.0925 68.1521C77.7762 68.5687 77.3756 68.8619 76.8389 69.0215L77.9317 72.6963C79.2884 72.2929 80.3621 71.503 81.146 70.4704L78.0925 68.1521ZM78.8131 66.4723C78.652 67.1919 78.3987 67.7488 78.0925 68.1521L81.146 70.4704C81.8577 69.533 82.3022 68.4359 82.5543 67.3101L78.8131 66.4723ZM78.9133 63.2437C79.0565 64.4427 79.0193 65.5518 78.8131 66.4723L82.5543 67.3101C82.8758 65.8745 82.9024 64.3158 82.7201 62.789L78.9133 63.2437ZM78.3851 60.7701C78.6365 61.5878 78.8156 62.4257 78.9133 63.2437L82.7201 62.789C82.5941 61.7338 82.3656 60.6711 82.0496 59.6434L78.3851 60.7701ZM70.3849 53.8254L70.7604 55.1039L74.4389 54.0235L74.0634 52.745L70.3849 53.8254ZM72.0483 59.4893L72.6912 61.6784L76.3697 60.5981L75.7268 58.409L72.0483 59.4893ZM72.6912 61.6784L72.8609 62.256L76.5394 61.1757L76.3697 60.5981L72.6912 61.6784ZM72.8609 62.2561L72.8825 62.3296L76.5609 61.2491L76.5393 61.1757L72.8609 62.2561ZM72.8825 62.3296L72.8887 62.3507L76.5671 61.2701L76.5609 61.2491L72.8825 62.3296ZM72.8886 62.3505L72.951 62.5629L76.6295 61.4827L76.5671 61.2703L72.8886 62.3505ZM72.951 62.563L72.9525 62.5679L76.6309 61.4875L76.6295 61.4826L72.951 62.563ZM72.9525 62.5679L72.9792 62.6589L76.6577 61.5785L76.6309 61.4875L72.9525 62.5679ZM72.9792 62.6589L75.5461 71.3991L79.2245 70.3188L76.6577 61.5786L72.9792 62.6589ZM76.962 58.9649L74.2296 59.9522L75.5324 63.5579L78.2649 62.5706L76.962 58.9649ZM74.2296 59.9522L74.1116 59.9948L75.4145 63.6005L75.5324 63.5579L74.2296 59.9522ZM74.1117 59.9948L74.0765 60.0075L75.3793 63.6133L75.4144 63.6005L74.1117 59.9948ZM74.0764 60.0076L74.0117 60.031L75.3146 63.6366L75.3793 63.6132L74.0764 60.0076ZM74.0118 60.0309L73.889 60.0753L75.1918 63.681L75.3145 63.6366L74.0118 60.0309ZM73.8844 60.077L73.8832 60.0774L75.1953 63.6797L75.1965 63.6793L73.8844 60.077ZM73.8881 60.0756L73.877 60.0796L75.1793 63.6855L75.1904 63.6815L73.8881 60.0756ZM73.8768 60.0797L68.6866 61.955L69.9894 65.5607L75.1796 63.6854L73.8768 60.0797ZM67.7098 58.8059L73.1025 63.1938L75.5223 60.2201L70.1296 55.8321L67.7098 58.8059ZM73.1025 63.1938L73.3183 63.3694L75.7381 60.3957L75.5223 60.2201L73.1025 63.1938ZM73.3183 63.3694L73.3223 63.3726L75.742 60.3989L75.7381 60.3957L73.3183 63.3694ZM73.3222 63.3726L73.3307 63.3795L75.7505 60.4058L75.742 60.3989L73.3222 63.3726ZM73.3308 63.3796L73.561 63.5669L75.9807 60.5931L75.7505 60.4058L73.3308 63.3796ZM73.561 63.5669L73.6085 63.6056L76.0283 60.6319L75.9808 60.5932L73.561 63.5669ZM73.6086 63.6056L73.6815 63.6649L76.1012 60.6912L76.0283 60.6318L73.6086 63.6056ZM73.6815 63.6649L79.4739 68.3781L81.8936 65.4043L76.1012 60.6912L73.6815 63.6649ZM73.6047 59.5489L73.18 60.8018L76.811 62.0324L77.2356 60.7795L73.6047 59.5489ZM73.18 60.8018L73.0655 61.1398L76.6965 62.3704L76.811 62.0324L73.18 60.8018ZM73.0655 61.1399L73.0444 61.202L76.6755 62.4324L76.6965 62.3703L73.0655 61.1399ZM73.0445 61.2019L72.9748 61.4075L76.6057 62.6381L76.6754 62.4325L73.0445 61.2019ZM72.974 61.4097L72.9734 61.4115L76.6059 62.6377L76.6065 62.6359L72.974 61.4097ZM72.9741 61.4094L72.9554 61.4648L76.5864 62.6953L76.6051 62.6399L72.9741 61.4094ZM72.9554 61.4647L72.7364 62.1109L76.3674 63.3415L76.5864 62.6953L72.9554 61.4647ZM72.7364 62.1109L70.5516 68.5574L74.1826 69.788L76.3674 63.3415L72.7364 62.1109ZM76.5772 70.7573L76.4686 62.7003L72.6351 62.752L72.7437 70.809L76.5772 70.7573ZM76.4686 62.7003L76.4574 61.8668L72.6239 61.9185L72.6351 62.752L76.4686 62.7003ZM76.4574 61.8666L76.4572 61.852L72.6237 61.9042L72.6239 61.9188L76.4574 61.8666ZM76.4572 61.8523L76.4555 61.7267L72.622 61.7784L72.6237 61.904L76.4572 61.8523ZM76.4555 61.7267L76.454 61.618L72.6205 61.6697L72.622 61.7784L76.4555 61.7267ZM76.454 61.618L76.4472 61.1124L72.6137 61.164L72.6205 61.6697L76.454 61.618ZM76.4472 61.1124L76.4259 59.5289L72.5924 59.5806L72.6137 61.1641L76.4472 61.1124ZM68.4186 55.8821L72.9395 62.7029L76.1351 60.5848L71.6142 53.764L68.4186 55.8821ZM72.9395 62.7029L73.0224 62.828L76.218 60.7099L76.1351 60.5848L72.9395 62.7029ZM73.0223 62.8278L73.0333 62.8445L76.2291 60.7267L76.2181 60.71L73.0223 62.8278ZM73.0335 62.8447L73.0654 62.893L76.2609 60.7746L76.2289 60.7264L73.0335 62.8447ZM73.0653 62.8928L73.1918 63.0836L76.3875 60.9656L76.261 60.7748L73.0653 62.8928ZM73.191 63.0825L73.1931 63.0856L76.3903 60.9698L76.3882 60.9667L73.191 63.0825ZM73.1939 63.0868L73.2935 63.2371L76.4892 61.119L76.3895 60.9687L73.1939 63.0868ZM73.2935 63.2371L78.0214 70.3703L81.2171 68.2522L76.4892 61.119L73.2935 63.2371ZM81.195 61.1371L75.2382 59.938L74.4816 63.6964L80.4384 64.8956L81.195 61.1371ZM75.2383 59.938L75.1414 59.9185L74.3847 63.6769L74.4816 63.6964L75.2383 59.938ZM75.1414 59.9185L75.1001 59.9102L74.3433 63.6686L74.3847 63.6769L75.1414 59.9185ZM75.1 59.9101L75.0214 59.8943L74.2648 63.6528L74.3434 63.6686L75.1 59.9101ZM75.0213 59.8943L74.9984 59.8897L74.2419 63.6482L74.2649 63.6528L75.0213 59.8943ZM74.9985 59.8897L74.917 59.8733L74.1604 63.6318L74.2419 63.6482L74.9985 59.8897ZM74.9171 59.8733L74.6907 59.8277L73.9341 63.5862L74.1604 63.6317L74.9171 59.8733ZM74.6907 59.8277L69.1174 58.7058L68.3608 62.4642L73.9341 63.5862L74.6907 59.8277ZM74.6177 59.0728L73.6324 60.0693L76.3587 62.7649L77.344 61.7683L74.6177 59.0728ZM73.6324 60.0693L73.337 60.3681L76.0632 63.0637L76.3586 62.7649L73.6324 60.0693ZM73.3369 60.3682L73.2799 60.4258L76.0063 63.1212L76.0633 63.0636L73.3369 60.3682ZM73.2803 60.4254L73.2684 60.4375L75.994 63.1337L76.0059 63.1216L73.2803 60.4254ZM73.2626 60.4434L73.1718 60.5359L75.909 63.2203L75.9998 63.1278L73.2626 60.4434ZM73.1766 60.5303L73.1695 60.5375L75.8948 63.234L75.9019 63.2268L73.1766 60.5303ZM73.169 60.538L68.9141 64.8413L71.6404 67.5369L75.8953 63.2335L73.169 60.538ZM54.6712 59.1185C54.3074 59.0892 53.9439 58.9926 53.5948 58.8204L51.8989 62.2587C52.6907 62.6493 53.5261 62.8724 54.363 62.9399L54.6712 59.1185ZM53.5948 58.8204C52.1063 58.0862 51.4376 56.1972 52.2503 54.5495L48.812 52.8536C47.1071 56.3101 48.4225 60.544 51.8989 62.2587L53.5948 58.8204ZM52.2503 54.5495C52.3396 54.3685 52.4419 54.2005 52.5551 54.0457L49.4597 51.7836C49.2166 52.1163 48.9994 52.4736 48.812 52.8536L52.2503 54.5495ZM49.9095 54.8793C50.2073 54.8013 50.491 54.7817 50.768 54.8166L51.2468 51.0127C50.4514 50.9126 49.675 50.9775 48.9378 51.1707L49.9095 54.8793ZM48.3605 55.7391C48.9153 55.2771 49.4404 55.0023 49.9095 54.8793L48.9378 51.1707C47.8037 51.4679 46.7861 52.0611 45.9073 52.7929L48.3605 55.7391ZM46.6773 57.6807C47.2017 56.8848 47.7767 56.2252 48.3605 55.7391L45.9073 52.7929C44.9793 53.5656 44.1638 54.5272 43.4759 55.5713L46.6773 57.6807ZM45.4402 60.0779C45.7786 59.2219 46.1993 58.4061 46.6773 57.6807L43.4759 55.5713C42.844 56.5305 42.3041 57.5827 41.8749 58.6683L45.4402 60.0779ZM44.8035 62.164C44.9529 61.4708 45.1681 60.7661 45.4402 60.0779L41.8749 58.6683C41.5291 59.5429 41.2514 60.4485 41.0558 61.3559L44.8035 62.164ZM45.1317 66.7845C44.5532 65.8593 44.3601 64.2203 44.8035 62.164L41.0558 61.3559C40.5195 63.843 40.5376 66.6686 41.881 68.8171L45.1317 66.7845ZM46.2012 67.6726C45.722 67.4846 45.3836 67.1873 45.1317 66.7845L41.881 68.8171C42.5485 69.8846 43.5209 70.7394 44.8009 71.2416L46.2012 67.6726ZM47.5883 67.7477C47.1242 67.8719 46.6741 67.8581 46.2012 67.6726L44.8009 71.2416C46.0765 71.742 47.3672 71.7756 48.5793 71.4512L47.5883 67.7477ZM49.0851 66.918C48.5469 67.3618 48.0399 67.6268 47.5883 67.7477L48.5793 71.4512C49.6787 71.1571 50.6673 70.5826 51.5244 69.8757L49.0851 66.918ZM51.0446 64.557C50.4491 65.5414 49.7733 66.3504 49.0851 66.918L51.5244 69.8757C52.6177 68.974 53.5599 67.8061 54.3249 66.5414L51.0446 64.557ZM52.2044 62.108C51.8955 62.969 51.5011 63.8023 51.0446 64.557L54.3249 66.5414C54.9189 65.5595 55.4215 64.494 55.8131 63.4024L52.2044 62.108ZM52.6492 60.5985C52.5336 61.0998 52.3843 61.6065 52.2044 62.108L55.8131 63.4024C56.0419 62.7644 56.2344 62.1133 56.385 61.4599L52.6492 60.5985ZM48.4423 56.8712L47.3041 59.734L50.8667 61.1504L52.0049 58.2877L48.4423 56.8712ZM47.3041 59.734L47.0911 60.2697L50.6537 61.6862L50.8667 61.1504L47.3041 59.734ZM47.0911 60.2697L47.064 60.3378L50.6266 61.7543L50.6536 61.6862L47.0911 60.2697ZM47.064 60.3377L47.0563 60.3573L50.6188 61.7739L50.6265 61.7544L47.064 60.3377ZM47.0562 60.3573L46.9779 60.5543L50.5405 61.9708L50.6188 61.7738L47.0562 60.3573ZM46.978 60.554L46.9762 60.5585L50.5385 61.9757L50.5403 61.9711L46.978 60.554ZM46.9761 60.5589L46.9425 60.6433L50.5051 62.0597L50.5387 61.9753L46.9761 60.5589ZM46.9425 60.6433L43.7198 68.7488L47.2823 70.1653L50.5051 62.0597L46.9425 60.6433ZM54.6041 60.933L49.58 59.2915L48.3893 62.9358L53.4134 64.5773L54.6041 60.933ZM49.58 59.2915L49.4667 59.2545L48.276 62.8987L48.3893 62.9358L49.58 59.2915ZM49.4666 59.2545L49.4328 59.2434L48.2422 62.8877L48.276 62.8988L49.4666 59.2545ZM49.4329 59.2434L49.3707 59.2231L48.18 62.8674L48.2422 62.8877L49.4329 59.2434ZM49.3707 59.2231L49.2527 59.1846L48.062 62.8288L48.18 62.8674L49.3707 59.2231ZM49.2523 59.1844L49.2512 59.1841L48.0614 62.8286L48.0625 62.829L49.2523 59.1844ZM49.2519 59.1843L49.2412 59.1808L48.05 62.8249L48.0606 62.8284L49.2519 59.1843ZM49.2409 59.1807L44.2529 57.551L43.0622 61.1952L48.0503 62.825L49.2409 59.1807ZM45.2635 54.6857L46.717 61.1634L50.4578 60.324L49.0043 53.8463L45.2635 54.6857ZM46.717 61.1634L46.7752 61.4226L50.516 60.5831L50.4578 60.3239L46.717 61.1634ZM46.7751 61.422L46.7761 61.4268L50.5172 60.5884L50.5161 60.5837L46.7751 61.422ZM46.7764 61.4278L46.7787 61.438L50.5193 60.5976L50.517 60.5874L46.7764 61.4278ZM46.7785 61.4375L46.8406 61.7141L50.5814 60.8747L50.5194 60.5981L46.7785 61.4375ZM46.8406 61.714L46.8534 61.7711L50.5943 60.9319L50.5814 60.8747L46.8406 61.714ZM46.8534 61.7712L46.8731 61.8588L50.6139 61.0194L50.5942 60.9318L46.8534 61.7712ZM46.8731 61.8588L48.4343 68.8165L52.1752 67.9771L50.6139 61.0194L46.8731 61.8588ZM50.3192 57.9352L48.213 59.3261L50.3257 62.5253L52.4319 61.1344L50.3192 57.9352ZM48.2129 59.3261L47.9283 59.5141L50.041 62.7132L50.3257 62.5253L48.2129 59.3261ZM47.9284 59.514L47.876 59.5486L49.9887 62.7478L50.041 62.7133L47.9284 59.514ZM47.876 59.5486L47.7028 59.663L49.8155 62.8622L49.9887 62.7478L47.876 59.5486ZM47.7014 59.6639L47.6999 59.6649L49.8154 62.8622L49.817 62.8612L47.7014 59.6639ZM47.7014 59.6639L47.6547 59.6947L49.7673 62.894L49.8139 62.8632L47.7014 59.6639ZM47.6546 59.6948L47.1105 60.0542L49.2232 63.2533L49.7674 62.894L47.6546 59.6948ZM47.1105 60.0542L41.6814 63.6395L43.7941 66.8386L49.2232 63.2533L47.1105 60.0542ZM45.0339 68.9589L49.6944 62.8119L46.6393 60.4956L41.9788 66.6427L45.0339 68.9589ZM49.6944 62.8119L50.1765 62.1759L47.1214 59.8597L46.6393 60.4956L49.6944 62.8119ZM50.1765 62.1759L50.1849 62.1648L47.1298 59.8486L47.1214 59.8597L50.1765 62.1759ZM50.1849 62.1648L50.2576 62.069L47.2025 59.7528L47.1298 59.8486L50.1849 62.1648ZM50.2576 62.069L50.3204 61.9861L47.2654 59.6699L47.2025 59.7528L50.2576 62.069ZM50.3204 61.9861L50.6129 61.6003L47.5578 59.2841L47.2653 59.6699L50.3204 61.9861ZM50.6129 61.6003L52.1198 59.6127L49.0648 57.2964L47.5578 59.2841L50.6129 61.6003ZM47.513 52.8706L46.8822 60.6735L50.7036 60.9824L51.3343 53.1795L47.513 52.8706ZM46.8822 60.6735L46.8706 60.8166L50.692 61.1255L50.7036 60.9825L46.8822 60.6735ZM46.8706 60.8168L46.8691 60.8359L50.6905 61.1443L50.692 61.1253L46.8706 60.8168ZM46.8691 60.8356L46.8646 60.8908L50.686 61.1997L50.6905 61.1446L46.8691 60.8356ZM46.8646 60.8908L46.847 61.1091L50.6684 61.418L50.686 61.1997L46.8646 60.8908ZM46.8471 61.1074L46.8468 61.111L50.6679 61.4232L50.6682 61.4197L46.8471 61.1074ZM46.8467 61.1127L46.8328 61.2846L50.6542 61.5935L50.6681 61.4216L46.8467 61.1127ZM46.8328 61.2846L46.1731 69.445L49.9945 69.7539L50.6542 61.5935L46.8328 61.2846ZM54.1435 64.3055L50.391 59.9045L47.4737 62.3919L51.2261 66.7929L54.1435 64.3055ZM50.3911 59.9045L50.33 59.8329L47.4126 62.3203L47.4736 62.3919L50.3911 59.9045ZM50.33 59.8329L50.304 59.8024L47.3865 62.2897L47.4126 62.3203L50.33 59.8329ZM50.3039 59.8023L50.2544 59.7443L47.3371 62.2317L47.3866 62.2898L50.3039 59.8023ZM50.2544 59.7442L50.2399 59.7272L47.3227 62.2149L47.3372 62.2318L50.2544 59.7442ZM50.24 59.7273L50.1887 59.6672L47.2713 62.1546L47.3226 62.2148L50.24 59.7273ZM50.1887 59.6672L50.0461 59.4999L47.1287 61.9874L47.2713 62.1546L50.1887 59.6672ZM50.0461 59.4999L46.5353 55.3823L43.6179 57.8697L47.1287 61.9874L50.0461 59.4999ZM52.3851 58.5822L49.0192 59.0251L49.5194 62.8262L52.8853 62.3833L52.3851 58.5822ZM49.0192 59.0251L48.6223 59.0774L49.1225 62.8785L49.5194 62.8262L49.0192 59.0251ZM48.6223 59.0774L48.5457 59.0874L49.0458 62.8885L49.1224 62.8785L48.6223 59.0774ZM48.5454 59.0875L48.5294 59.0896L49.0302 62.8906L49.0461 62.8885L48.5454 59.0875ZM48.5219 59.0906L48.3995 59.1072L48.9152 62.9062L49.0376 62.8896L48.5219 59.0906ZM48.4063 59.1058L48.3967 59.1071L48.8966 62.9082L48.9062 62.9069L48.4063 59.1058ZM48.3966 59.1071L42.6795 59.8594L43.1797 63.6605L48.8968 62.9082L48.3966 59.1071Z" fill="currentColor"/>
</svg>
