<svg viewBox="0 0 59 68" fill="none" xmlns="http://www.w3.org/2000/svg">
<path d="M39.6554 65.6029L24.9321 51.4824C17.6768 44.637 26.8739 34.0534 34.7095 39.9422C39.216 43.0311 44.1508 48.2859 50.9195 48.2656C53.657 48.2573 55.5276 45.7815 55.8307 43.0607L56.4611 37.402C56.8548 33.868 55.7194 30.3391 52.7866 28.1193M52.3397 47.7243V10.4471C52.368 5.98482 48.7401 2.47385 44.2777 2.4757C35.9182 2.47917 26.4712 2.41111 18.1117 2.41522C13.7362 2.41737 10.0533 6.0717 10.0266 10.4471V46.5542C9.99959 50.9915 13.6744 54.603 18.1117 54.603C18.1117 54.603 24.2038 54.603 27.8795 54.603M9.76896 31.5639L7.29075 31.2411C4.72115 30.8958 2.36712 32.7908 2.03288 35.4739C1.69864 38.1569 3.51077 40.6119 6.08037 40.9572L9.34042 41.5011L8.34433 41.2615C5.77473 40.9162 3.4207 42.8113 3.08646 45.4943C2.75222 48.1773 4.56435 50.6323 7.13395 50.9776L8.71391 51.19L11.1514 51.6738M9.76896 31.5639C7.19935 31.2186 5.57569 28.5464 5.87895 26.112C6.08839 24.4308 7.08241 23.0579 8.42773 22.3519C9.24903 21.921 9.78254 21.9028 9.78254 21.9028H9.96098M9.76896 31.5639L9.678 31.7918M35.9458 62.563L13.3063 60.874L12.2749 60.6378C9.9993 60.05 8.46078 57.7583 8.77077 55.2699C8.94137 53.9004 9.56351 52.9317 10.2096 52.2752M29.5941 50.5454L27.8795 49.1042C24.1035 45.6171 29.2973 40.0466 33.0716 43.532L34.6013 44.9293L29.5941 50.5454Z" stroke="currentColor" stroke-linecap="round" stroke-linejoin="round"/></svg>
