<svg width="108" height="121" viewBox="0 0 108 121" fill="none" xmlns="http://www.w3.org/2000/svg">
<path fill-rule="evenodd" clip-rule="evenodd" d="M94.1292 5.92563L73.8163 20.7751L45.0685 0.5L24.1227 29.0622L0.451234 21.4783L13.8802 62.5668L13.8802 63.7109C6.23197 64.0362 -3.03641e-07 70.3752 0 78.1474C-1.99335e-07 86.1278 6.43231 92.5971 14.367 92.5971L15.4056 92.5964C20.2017 108.727 35.6907 120.5 54 120.5C72.3093 120.5 87.7983 108.727 92.5944 92.5964L94.1072 92.5894C101.822 92.3378 108 85.9682 108 78.1474L107.992 77.6705C107.747 70.0766 101.677 63.9638 94.1292 63.7062V5.92563ZM20.8697 63.1903L20.8073 82.0164C20.8073 99.1716 35.2822 113.191 53.3531 113.518L54 113.524C72.155 113.524 86.8434 99.7067 87.1865 82.6277L87.191 52.028L20.8697 63.1903ZM101.064 78.1474C101.064 82.1078 98.0016 85.3487 94.1284 85.6051V70.6898L94.8916 70.7802C98.3963 71.3815 101.064 74.4511 101.064 78.1474ZM13.487 70.7253L13.8716 70.6898V85.6051C9.99841 85.3487 6.93578 82.1078 6.93578 78.1474C6.93578 74.3191 9.79763 71.1631 13.487 70.7253Z" fill="currentColor"/>
<path d="M70.0388 70.5C70.5671 70.5 71.0743 70.4098 71.5456 70.2439V72.8631C71.5456 81.7123 59.491 81.7123 59.491 72.8631V68.1369C59.491 62.4897 64.4001 60.4463 67.9528 62.0067C66.5061 62.7571 65.5183 64.2637 65.5183 66C65.5183 68.4853 67.5422 70.5 70.0388 70.5Z" fill="currentColor"/>
<path d="M49.4456 70.2439C48.9743 70.4098 48.4671 70.5 47.9387 70.5C45.4422 70.5 43.4183 68.4853 43.4183 66C43.4183 64.2637 44.4061 62.7571 45.8528 62.0067C42.3001 60.4463 37.391 62.4897 37.391 68.1369V72.8631C37.391 81.7123 49.4456 81.7123 49.4456 72.8631V70.2439Z" fill="currentColor"/>
<path d="M33.5898 93.5586C34.9358 92.2437 37.088 92.274 38.3968 93.6263C43.4275 98.8241 51.0575 101.138 58.4684 99.0142C65.8793 96.8903 71.1459 90.8803 72.69 83.7982C73.0917 81.9556 74.9041 80.7891 76.738 81.1927C78.572 81.5963 79.7331 83.4172 79.3314 85.2598C77.2733 94.6993 70.2453 102.742 60.3334 105.583C50.4215 108.424 40.2276 105.316 33.5224 98.3882C32.2136 97.0358 32.2437 94.8736 33.5898 93.5586Z" fill="currentColor"/>
</svg>
