<svg  viewBox="0 0 24 24" fill="none" xmlns="http://www.w3.org/2000/svg">
<path d="M13.3682 2.95605C13.8363 2.7422 14.3293 2.7016 14.9062 2.80176L14.9053 2.80273C15.3823 2.87925 15.7466 3.09339 16.041 3.33496C16.2791 3.53029 16.5141 3.7825 16.7031 3.97852C16.7094 3.97453 16.7161 3.97091 16.7227 3.9668L16.7275 3.96484C16.8854 3.86746 17.1178 3.71341 17.4629 3.61133C17.8002 3.51155 18.204 3.47034 18.751 3.4834L18.75 3.48438C19.3556 3.49823 20.099 3.62136 20.7393 4.09863C21.3592 4.56088 21.7883 5.28226 21.9619 6.29297L21.9932 6.49902V6.50195C22.0868 7.22908 21.8629 8.12863 21.5752 8.99414C21.2773 9.89038 20.8579 10.8966 20.4531 11.8779C20.0425 12.8734 19.6448 13.8488 19.3623 14.7314C19.0736 15.6336 18.9386 16.3412 18.9824 16.8252L18.9941 16.9043C19.0077 16.9717 19.0263 17.0062 19.0371 17.0225C19.0516 17.0442 19.0778 17.0724 19.1387 17.1055C19.2948 17.1902 19.5356 17.2391 19.9434 17.2988C20.2828 17.3485 20.7928 17.4103 21.2168 17.6074C21.4464 17.7142 21.6812 17.8726 21.8711 18.1123C22.0156 18.2947 22.1177 18.5031 22.1787 18.7324L22.2256 18.9688C22.2781 19.3442 22.2473 19.7099 22.1055 20.043C21.9624 20.379 21.7286 20.6317 21.458 20.8115C20.945 21.1524 20.2884 21.2439 19.7227 21.25C19.1342 21.2563 18.5224 21.1697 18.0059 21.0547C17.503 20.9427 17.0251 20.7893 16.7227 20.6279L16.7207 20.627C15.0559 19.7334 14.0496 17.7323 14.4658 15.7422L14.4688 15.7266C14.5577 15.3418 14.7987 14.7325 15.0732 14.085C15.3571 13.4153 15.7085 12.6347 16.0498 11.8789C16.393 11.1188 16.7257 10.3847 16.9795 9.79297C17.018 9.70312 17.0528 9.61664 17.0869 9.53516C16.9871 9.74152 16.8665 9.9933 16.7314 10.2783C16.3924 10.994 15.9633 11.9125 15.5332 12.8359C14.6789 14.67 13.8121 16.542 13.666 16.8418C13.1061 17.9965 12.0328 18.5922 11.0225 18.4717C10.5173 18.4114 10.0324 18.1661 9.7041 17.7236C9.37405 17.2787 9.25502 16.7068 9.34082 16.0898H9.3418C9.36274 15.936 9.42651 15.7322 9.48145 15.5654C9.54724 15.3656 9.63507 15.1165 9.73633 14.8389C9.93889 14.2835 10.2035 13.5862 10.4648 12.8916C10.7278 12.1929 10.9881 11.4951 11.1875 10.9248C11.2873 10.6394 11.3697 10.3926 11.4287 10.1973C11.4581 10.0998 11.4799 10.02 11.4951 9.95801C11.5113 9.89201 11.5156 9.86424 11.5156 9.86426L11.5195 9.83398C11.5417 9.68409 11.5317 9.56242 11.5068 9.4834C11.498 9.45546 11.4867 9.4362 11.4766 9.4209C11.4463 9.43593 11.4143 9.45827 11.3877 9.48242C11.3766 9.49253 11.3683 9.50097 11.3633 9.50684C11.3541 9.53013 11.3078 9.64153 11.2148 9.88477C11.1175 10.1395 10.9894 10.4859 10.8389 10.8955C10.5379 11.7144 10.1534 12.7766 9.76562 13.8477C9.37828 14.9174 8.98682 15.9961 8.67383 16.8447C8.37299 17.6604 8.11931 18.3361 8.01855 18.5352L8.01465 18.542C7.71746 19.114 7.37884 19.5672 6.93555 19.8779C6.4812 20.1963 5.98892 20.3142 5.48047 20.3438C2.97188 20.4977 1.14653 18.2017 1.9375 15.5898C2.00703 15.348 2.17218 14.7314 2.40332 13.8887C2.63544 13.0424 2.93003 11.9831 3.24609 10.8955C3.56181 9.80917 3.90094 8.6891 4.22363 7.72168C4.50148 6.88873 4.77896 6.13103 5.02832 5.60547L5.13379 5.39453C5.54518 4.60991 6.28652 3.96006 7.0918 3.58301C7.89087 3.20898 8.8892 3.0446 9.77441 3.45605L9.77344 3.45703C10.4042 3.74692 11.2566 4.19805 11.5664 4.36328C11.5923 4.35348 11.6402 4.33154 11.7148 4.27832C11.8038 4.21485 11.8961 4.13271 11.9912 4.04004C12.0386 3.99388 12.0823 3.95024 12.1279 3.9043C12.169 3.86294 12.2202 3.81063 12.2686 3.7666C12.5913 3.46851 12.9431 3.15035 13.3682 2.95605Z" stroke="currentColor" stroke-width="1.5" stroke-linecap="round" stroke-linejoin="round"/>
</svg>
