<svg  viewBox="0 0 24 24" fill="none" xmlns="http://www.w3.org/2000/svg">
    <path stroke="currentColor" stroke-linecap="round" stroke-linejoin="round"   d="M17.5 8.031A5.977 5.977 0 0 1 19 12a5.977 5.977 0 0 1-1.5 3.969M19.708 6A8.967 8.967 0 0 1 22 12a8.967 8.967 0 0 1-2.292 6M4 7.904H2.333C1.597 7.904 1 8.474 1 9.178v5.644c0 .704.597 1.274 1.333 1.274H4m0-8.192v8.192m0-8.192 4.72-4.758C10.022 2.11 12 2.994 12 4.614v14.772c0 1.62-1.978 2.505-3.28 1.468L4 16.096m8-7.918v7.644c2.21 0 4-1.711 4-3.822 0-2.11-1.79-3.822-4-3.822Z"/>
</svg>
