<svg  viewBox="0 0 24 24" fill="none" xmlns="http://www.w3.org/2000/svg">
    <path stroke="currentColor" stroke-linecap="round" stroke-linejoin="round"   d="M22 6.722C22 3.654 20.346 2 17.278 2H6.722C3.654 2 2 3.654 2 6.722m20 0v10.556C22 20.346 20.346 22 17.278 22H6.722C3.654 22 2 20.346 2 17.278V6.722m20 0-10 8.056L2 6.722M13.463 1l1.315 3.552 3.552 1.315-3.552 1.314-1.315 3.553L12.15 7.18 8.596 5.867l3.553-1.315L13.463 1Zm5.661 11.026 1.058 2.858 2.859 1.058L20.182 17l-1.058 2.859L18.067 17l-2.86-1.058 2.86-1.058 1.057-2.858Z"/>
</svg>
