<svg  viewBox="0 0 24 24" fill="none" xmlns="http://www.w3.org/2000/svg">
    <path stroke="currentColor" stroke-linecap="round" stroke-linejoin="round"   d="M5.646 9.183v7.415M15.431 2.16l.746 2.014 2.014.746-2.014.745-.746 2.014-.745-2.014-2.014-.745 2.014-.746.745-2.014Zm-2.1 13.523 1.355-1.342 2.034 1.395 1.645-2.007 1.718 2.06c1.61.025 2.943-1.33 2.917-3.026-.027-1.696-1.306-3.092-2.917-3.117L10.23 9.51v-.44c-.042-2.665-2.052-4.857-4.584-4.897-2.53-.039-4.688 2.09-4.645 4.755v7.898c.042 2.665 2.114 4.858 4.645 4.897 2.532.04 4.626-2.09 4.584-4.755v-1.316l3.102.03Zm5.034 1.286.745 2.014 2.014.746-2.014.745-.745 2.014-.745-2.014-2.015-.745 2.015-.746.745-2.014Z"/>
</svg>
