
<?xml version="1.0" encoding="UTF-8" standalone="no"?>
<!-- Created with Keyshape -->
<svg xmlns="http://www.w3.org/2000/svg" id="Doc" viewBox="0 0 140 106" text-rendering="geometricPrecision" shape-rendering="geometricPrecision" style="white-space: pre;">
    <defs>
        <mask id="Mask-1">
            <path fill="#ffffff" stroke="none" d="M50.3,-84.8277C50.3,-84.8277,50.3,14.0965,50.3,14.0965C50.3,14.0965,-89.7125,14.0965,-89.7125,14.0965C-89.7125,14.0965,-89.7125,-84.8277,-89.7125,-84.8277C-89.7125,-84.8277,50.3,-84.8277,50.3,-84.8277Z" transform="translate(90,92.1723)"/>
        </mask>
    </defs>
    <style>
@keyframes a0_t { 0% { transform: translate(70px,89px) scale(1.9,1.9) translate(-37px,-40px); } 6.4% { transform: translate(70px,89px) scale(1.9,1.9) translate(-37px,-40px); animation-timing-function: cubic-bezier(0.55,0.055,0.675,0.19); } 8.9846% { transform: translate(70px,83px) scale(1.9,1.9) translate(-37px,-40px); animation-timing-function: cubic-bezier(0.68,0,0.265,1); } 15.1076% { transform: translate(70px,117px) scale(1.9,1.9) translate(-37px,-40px); } 64.0923% { transform: translate(70px,117px) scale(1.9,1.9) translate(-37px,-40px); } 85.9076% { transform: translate(70px,89px) scale(1.9,1.9) translate(-37px,-40px); } 100% { transform: translate(70px,89px) scale(1.9,1.9) translate(-37px,-40px); animation-timing-function: cubic-bezier(0.55,0.055,0.675,0.19); } }
    </style>
    <g mask="url(#Mask-1)">
        <g transform="translate(70,89) scale(1.9,1.9) translate(-37,-40)" style="animation: 3.25s linear infinite both a0_t;">
            <path fill-rule="evenodd" clip-rule="evenodd" d="M117.496,53.6171L103.578,63.5167L83.8803,50L69.5285,69.0415L53.3092,63.9855L62.5105,91.3779L62.5105,92.1406C57.2701,92.3574,53,96.5835,53,101.765C53,107.085,57.4073,111.398,62.844,111.398L63.5557,111.398C66.8419,122.152,77.4547,130,90,130C102.545,130,113.158,122.152,116.444,111.398L117.481,111.393C122.767,111.225,127,106.979,127,101.765L126.995,101.447C126.827,96.3844,122.667,92.3092,117.496,92.1375L117.496,53.6171ZM67.2996,91.7935L67.2569,104.344C67.2569,115.781,77.1748,125.127,89.5568,125.346L90,125.35C102.44,125.35,112.504,116.138,112.739,104.752L112.742,84.352L67.2996,91.7935ZM122.248,101.765C122.248,104.405,120.149,106.566,117.495,106.737L117.495,96.7932L118.018,96.8535C120.42,97.2544,122.248,99.3008,122.248,101.765ZM62.2411,96.8169L62.5046,96.7932L62.5046,106.737C59.8508,106.566,57.7523,104.405,57.7523,101.765C57.7523,99.2127,59.7132,97.1087,62.2411,96.8169Z" fill="currentColor" transform="translate(37,40) translate(-90,-90)"/>
            <path d="M100.99,96.6667C101.352,96.6667,101.699,96.6065,102.022,96.496L102.022,98.242C102.022,104.142,93.7624,104.142,93.7624,98.242L93.7624,95.0913C93.7624,91.3265,97.126,89.9642,99.5603,91.0045C98.569,91.5047,97.8922,92.5091,97.8922,93.6667C97.8922,95.3235,99.2789,96.6667,100.99,96.6667Z" fill="currentColor" transform="translate(44.8922,46.6668) translate(-97.8922,-96.6668)"/>
            <path d="M86.8794,96.496C86.5564,96.6065,86.2089,96.6667,85.8469,96.6667C84.1363,96.6667,82.7496,95.3235,82.7496,93.6667C82.7496,92.5091,83.4264,91.5047,84.4177,91.0045C81.9834,89.9642,78.6198,91.3265,78.6198,95.0913L78.6198,98.242C78.6198,104.142,86.8794,104.142,86.8794,98.242L86.8794,96.496Z" fill="currentColor" transform="translate(29.7496,46.6668) translate(-82.7496,-96.6668)"/>
            <path d="M93.7624,120.003C90.6207,114.828,98.9992,110.056,102.141,115.231C105.362,120.537,96.6546,124.767,93.7624,120.003Z" fill="currentColor" transform="translate(44.9573,67.539) translate(-97.9573,-117.539)"/>
        </g>
    </g>
</svg>
