<?xml version="1.0" encoding="UTF-8" standalone="no"?>
<!-- Created with Keyshape -->
<svg xmlns="http://www.w3.org/2000/svg" fill="none" viewBox="0 0 24 24">
    <style>
@keyframes a0_v { 0% { visibility: visible; animation-timing-function: steps(1); } 33.3333% { visibility: hidden; animation-timing-function: steps(1); } 66.6667% { visibility: visible; animation-timing-function: steps(1); } 100% { visibility: visible; animation-timing-function: steps(1); } }
@keyframes a0_d { 0% { d: path('M21.185,11.324L11.285,21.224M8.553,7.517L15.449,7.517M6.364,2C3.95383,2,2,3.95383,2,6.364L2,17.636C2,18.7934,2.45978,19.9034,3.27819,20.7218C4.09659,21.5402,5.2066,22,6.364,22L9.454,22C10.1293,22.0003,10.7771,21.7321,11.2546,21.2546C11.7321,20.7771,12.0003,20.1293,12,19.454L12,15.636C11.9352,13.777,13.603,11.9643,15.636,12L19.455,12C20.8606,12,22,10.8606,22,9.455L22,6.364C22,3.95383,20.0462,2,17.636,2L13.351,2L6.364,2Z'); animation-timing-function: cubic-bezier(0.5,0,1,0.5); } 33.3333% { d: path('M21.185,17.1558L17.1168,21.224M8.553,7.517L15.449,7.517M6.364,2C3.95383,2,2,3.95383,2,6.364L2,17.636C2,18.7934,2.45978,19.9034,3.27819,20.7218C4.09659,21.5402,5.2066,22,6.364,22L15.2858,22C15.9611,22.0003,16.6089,21.7321,17.0864,21.2546C17.1197,21.216,17.5768,20.6816,18.42,19.93L18.415,19.935C18.89,19.46,19.3,19.03,20.165,18.185L20.165,18.185C21.5176,16.6919,22,16.6924,22,15.2868L22,6.364C22,3.95383,20.0462,2,17.636,2L13.351,2L6.364,2Z'); } 66.6667% { d: path('M21.185,17.1558L17.1168,21.224M8.553,7.517L15.449,7.517M6.364,2C3.95383,2,2,3.95383,2,6.364L2,17.636C2,18.7934,2.45978,19.9034,3.27819,20.7218C4.09659,21.5402,5.2066,22,6.364,22L15.2858,22C15.9611,22.0003,16.6089,21.7321,17.0864,21.2546C17.1197,21.216,17.5768,20.6816,18.42,19.93L18.415,19.935C18.89,19.46,19.3,19.03,20.165,18.185L20.165,18.185C21.5176,16.6919,22,16.6924,22,15.2868L22,6.364C22,3.95383,20.0462,2,17.636,2L13.351,2L6.364,2Z'); animation-timing-function: cubic-bezier(0.005,0.5,0.5,1); } 100% { d: path('M21.185,11.324L11.285,21.224M8.553,7.517L15.449,7.517M6.364,2C3.95383,2,2,3.95383,2,6.364L2,17.636C2,18.7934,2.45978,19.9034,3.27819,20.7218C4.09659,21.5402,5.2066,22,6.364,22L9.454,22C10.1293,22.0003,10.7771,21.7321,11.2546,21.2546C11.7321,20.7771,12.0003,20.1293,12,19.454L12,15.636C11.9352,13.777,13.603,11.9643,15.636,12L19.455,12C20.8606,12,22,10.8606,22,9.455L22,6.364C22,3.95383,20.0462,2,17.636,2L13.351,2L6.364,2Z'); animation-timing-function: cubic-bezier(0.5,0,0.995,0.5); } }
@keyframes a1_d { 0% { d: path('M8.553,7.517L15.449,7.517M22,9.455L22,6.364C22,3.95383,20.0462,2,17.636,2L13.351,2L6.364,2L6.364,2C3.95383,2,2,3.95383,2,6.364L2,17.636C2,18.7934,2.45978,19.9034,3.27819,20.7218C4.09659,21.5402,5.2066,22,6.364,22L7.0567,22'); animation-timing-function: cubic-bezier(0.5,0,1,0.5); } 16.6667% { d: path('M8.553,7.517L15.449,7.517M22,9.455L22,6.364C22,3.95383,20.0462,2,17.636,2L13.351,2L6.364,2L6.364,2C3.95383,2,2,3.95383,2,6.364L2,17.636C2,18.7934,2.45978,19.9034,3.27819,20.7218C4.09659,21.5402,5.2066,22,6.364,22L10.2835,22'); animation-timing-function: cubic-bezier(0.5,0,1,0.5); } 33.3333% { d: path('M8.553,7.517L15.449,7.517M22,9.455L22,6.364C22,3.95383,20.0462,2,17.636,2L13.351,2L6.364,2L6.364,2C3.95383,2,2,3.95383,2,6.364L2,17.636C2,18.7934,2.45978,19.9034,3.27819,20.7218C4.09659,21.5402,5.2066,22,6.364,22L14.9875,22'); } 66.6667% { d: path('M8.553,7.517L15.449,7.517M22,9.455L22,6.364C22,3.95383,20.0462,2,17.636,2L13.351,2L6.364,2L6.364,2C3.95383,2,2,3.95383,2,6.364L2,17.636C2,18.7934,2.45978,19.9034,3.27819,20.7218C4.09659,21.5402,5.2066,22,6.364,22L14.9875,22'); animation-timing-function: cubic-bezier(0.005,0.5,0.5,1); } 83.3333% { d: path('M8.553,7.517L15.449,7.517M22,9.455L22,6.364C22,3.95383,20.0462,2,17.636,2L13.351,2L6.364,2L6.364,2C3.95383,2,2,3.95383,2,6.364L2,17.636C2,18.7934,2.45978,19.9034,3.27819,20.7218C4.09659,21.5402,5.2066,22,6.364,22L10.2835,22'); animation-timing-function: cubic-bezier(0.005,0.5,0.5,1); } 100% { d: path('M8.553,7.517L15.449,7.517M22,9.455L22,6.364C22,3.95383,20.0462,2,17.636,2L13.351,2L6.364,2L6.364,2C3.95383,2,2,3.95383,2,6.364L2,17.636C2,18.7934,2.45978,19.9034,3.27819,20.7218C4.09659,21.5402,5.2066,22,6.364,22L7.0567,22'); animation-timing-function: cubic-bezier(0,0,0.474892,0.625708); } }
@keyframes a2_v { 0% { visibility: hidden; animation-timing-function: steps(1); } 33.3333% { visibility: visible; animation-timing-function: steps(1); } 66.6667% { visibility: hidden; animation-timing-function: steps(1); } 100% { visibility: hidden; animation-timing-function: steps(1); } }
@keyframes a3_d { 0% { d: path('M0,0L7.02002,0L7.02002,-0.05667L0.0430676,-0.05667C0.0430676,-0.05667,0.0227606,-0.00266782,0.0227606,-0.00266782C0.0227606,-0.00266782,0,0,0,0Z'); } 8.3333% { d: path('M0,0L7.02002,0L7.02002,-0.05667L0.0430676,-0.05667C0.0430676,-0.05667,0.0227606,-0.00266782,0.0227606,-0.00266782C0.0227606,-0.00266782,0,0,0,0Z'); animation-timing-function: cubic-bezier(0.5,0,1,0.5); } 25% { d: path('M0,0L7.02002,0L7.02002,5.94333L0.0430676,5.94333C0.0430676,5.94333,0.0227606,10.141,0.0227606,10.141C0.0227606,10.141,0,0,0,0Z'); } 75% { d: path('M0,0L7.02002,0L7.02002,5.94333L0.0430676,5.94333C0.0430676,5.94333,0.0227606,10.141,0.0227606,10.141C0.0227606,10.141,0,0,0,0Z'); animation-timing-function: cubic-bezier(0.006518,0.388327,0.651805,1); } 91.6667% { d: path('M0,0L7.02002,0L7.02002,-0.05667L0.0430676,-0.05667C0.0430676,-0.05667,0.0227606,-0.00266782,0.0227606,-0.00266782C0.0227606,-0.00266782,0,0,0,0Z'); } 100% { d: path('M0,0L7.02002,0L7.02002,-0.05667L0.0430676,-0.05667C0.0430676,-0.05667,0.0227606,-0.00266782,0.0227606,-0.00266782C0.0227606,-0.00266782,0,0,0,0Z'); } }
    </style>
    <path stroke=" currentColor" stroke-linecap="round" stroke-linejoin="round" d="M21.185,11.324L11.285,21.224M8.553,7.517L15.449,7.517M6.364,2C3.95383,2,2,3.95383,2,6.364L2,17.636C2,18.7934,2.45978,19.9034,3.27819,20.7218C4.09659,21.5402,5.2066,22,6.364,22L9.454,22C10.1293,22.0003,10.7771,21.7321,11.2546,21.2546C11.7321,20.7771,12.0003,20.1293,12,19.454L12,15.636C11.9352,13.777,13.603,11.9643,15.636,12L19.455,12C20.8606,12,22,10.8606,22,9.455L22,6.364C22,3.95383,20.0462,2,17.636,2L13.351,2L6.364,2Z" visibility="visible" transform="translate(12,12) translate(-12,-12)" style="animation: 1.2s linear forwards a0_v, 1.2s linear both a0_d;"/>
    <path stroke=" currentColor" stroke-linecap="round" stroke-linejoin="round" d="M8.553,7.517L15.449,7.517M22,9.455L22,6.364C22,3.95383,20.0462,2,17.636,2L13.351,2L6.364,2L6.364,2C3.95383,2,2,3.95383,2,6.364L2,17.636C2,18.7934,2.45978,19.9034,3.27819,20.7218C4.09659,21.5402,5.2066,22,6.364,22L7.0567,22" transform="translate(12,12) translate(-12,-12)" style="animation: 1.2s linear both a1_d;"/>
    <path stroke=" currentColor" stroke-linecap="round" stroke-linejoin="round" d="M22,9.455L22,6.364C22,3.95383,20.0462,2,17.636,2L13.351,2L6.364,2L6.364,2C3.95383,2,2,3.95383,2,6.364L2,17.636C2,18.7934,2.45978,19.9034,3.27819,20.7218C4.09659,21.5402,5.2066,22,6.364,22L9.454,22" visibility="hidden" transform="translate(12,12) rotate(90) translate(-12,-12)" style="animation: 1.2s linear forwards a2_v;"/>
    <path d="M0,0L7.02002,0L7.02002,-0.05667L0.0430676,-0.05667C0.0430676,-0.05667,0.0227606,-0.00266782,0.0227606,-0.00266782C0.0227606,-0.00266782,0,0,0,0Z" stroke="currentColor"  fill="none" stroke-linecap="round" stroke-linejoin="round" transform="translate(8.49672,7.53683)" style="animation: 1.2s linear both a3_d;"/>
</svg>
