<svg viewBox="0 0 24 24" fill="none" xmlns="http://www.w3.org/2000/svg">
<path d="M16.1811 18.7006C16.4778 18.7006 16.7678 18.6126 17.0145 18.4478C17.2611 18.283 17.4534 18.0487 17.5669 17.7746C17.6804 17.5006 17.7102 17.199 17.6523 16.908C17.5944 16.617 17.4515 16.3497 17.2418 16.14C17.032 15.9302 16.7647 15.7873 16.4737 15.7294C16.1828 15.6716 15.8812 15.7013 15.6071 15.8148C15.333 15.9283 15.0987 16.1206 14.9339 16.3673C14.7691 16.6139 14.6811 16.904 14.6811 17.2006V20.2006M19.1811 15.7006L22.1811 18.7006M22.1811 15.7006L19.1811 18.7006M6.21035 5.20062H1.54333V8.91262C3.77527 6.58802 6.71872 7.95803 6.93007 10.2473C7.27069 13.9368 1.93474 15.1238 1.23633 11.7006M8.26499 10.4506C8.26499 11.3126 8.6074 12.1392 9.2169 12.7487C9.82639 13.3582 10.653 13.7006 11.515 13.7006C12.3769 13.7006 13.2036 13.3582 13.8131 12.7487C14.4226 12.1392 14.765 11.3126 14.765 10.4506C14.765 9.58867 14.4226 8.76202 13.8131 8.15253C13.2036 7.54303 12.3769 7.20062 11.515 7.20062C10.653 7.20062 9.82639 7.54303 9.2169 8.15253C8.6074 8.76202 8.26499 9.58867 8.26499 10.4506ZM16.265 10.4506C16.265 11.3126 16.6074 12.1392 17.2169 12.7487C17.8264 13.3582 18.653 13.7006 19.515 13.7006C20.3769 13.7006 21.2036 13.3582 21.8131 12.7487C22.4226 12.1392 22.765 11.3126 22.765 10.4506C22.765 9.58867 22.4226 8.76202 21.8131 8.15253C21.2036 7.54303 20.3769 7.20062 19.515 7.20062C18.653 7.20062 17.8264 7.54303 17.2169 8.15253C16.6074 8.76202 16.265 9.58867 16.265 10.4506Z" stroke="currentColor" stroke-linecap="round" stroke-linejoin="round"/>
</svg>
