<svg  viewBox="0 0 24 24" fill="none" xmlns="http://www.w3.org/2000/svg">
<path d="M6.81365 17.3694C7.87759 18.0888 9.07877 18.5805 10.3418 18.8136C11.6048 19.0466 12.9023 19.0161 14.1529 18.7238C15.2675 18.4617 16.3209 17.9866 17.255 17.3245M12.6693 4.20286C11.3521 3.97689 10.2033 5.11343 10.4151 6.43304L10.7418 8.46789M7.75213 11.6599C7.40646 11.6599 7.06856 11.7624 6.78115 11.9544C6.49374 12.1464 6.26973 12.4194 6.13745 12.7388C6.00517 13.0581 5.97056 13.4095 6.03799 13.7485C6.10543 14.0876 6.27188 14.399 6.51631 14.6434C6.76073 14.8878 7.07214 15.0543 7.41117 15.1217C7.75019 15.1891 8.1016 15.1545 8.42095 15.0223C8.74031 14.89 9.01326 14.666 9.20531 14.3786C9.39735 14.0911 9.49985 13.7532 9.49985 13.4076C9.49837 12.9445 9.31376 12.5008 8.98632 12.1734C8.65888 11.846 8.2152 11.6613 7.75213 11.6599ZM16.2435 11.6599C16.0142 11.6599 15.7872 11.7051 15.5755 11.793C15.3638 11.8809 15.1715 12.0097 15.0096 12.1721C14.8478 12.3345 14.7196 12.5272 14.6323 12.7392C14.5451 12.9512 14.5006 13.1783 14.5014 13.4076C14.5014 13.7535 14.604 14.0916 14.7963 14.3791C14.9886 14.6667 15.2619 14.8907 15.5816 15.0228C15.9012 15.1549 16.2529 15.1892 16.5921 15.1213C16.9313 15.0534 17.2427 14.8864 17.4869 14.6414C17.7311 14.3964 17.8971 14.0845 17.9639 13.7451C18.0307 13.4057 17.9953 13.0541 17.8621 12.7349C17.729 12.4156 17.5041 12.143 17.216 11.9517C16.9278 11.7603 16.5894 11.6587 16.2435 11.6599ZM9.75273 8.60838C10.0562 8.57466 10.6744 8.51846 10.9778 8.49598C11.2813 8.4735 11.6578 8.46789 11.995 8.46789C13.742 8.45462 15.4772 8.72044 17.1356 9.25284C17.8297 9.47571 18.5889 9.16825 19.2195 8.80235C19.5876 8.58877 20.0046 8.47358 20.4301 8.46789C21.1223 8.4899 21.7774 8.78577 22.2516 9.29049C22.7257 9.79521 22.9802 10.4675 22.959 11.1597C22.9632 12.2943 22.8305 13.5532 22.9397 14.6825C22.9507 14.7965 22.9571 14.9111 22.959 15.026C22.959 18.6788 18.053 21.5842 12.0006 21.5898C5.94822 21.5898 1.04224 18.6788 1.04224 15.026C1.04436 14.9075 1.05135 14.7895 1.06311 14.6721C1.17597 13.5458 1.04024 12.2916 1.04224 11.1597C1.02104 10.4675 1.27547 9.79521 1.74964 9.29049C2.2238 8.78577 2.87893 8.4899 3.57109 8.46789C3.99749 8.47316 4.41536 8.58812 4.78445 8.8017C5.41433 9.16619 6.17695 9.46511 6.86843 9.23826C7.80488 8.93105 8.77127 8.71978 9.75273 8.60838ZM16.6144 4.38268C16.6144 5.47206 15.7312 6.35518 14.6419 6.35518C13.5525 6.35518 12.6694 5.47206 12.6694 4.38268C12.6694 3.29329 13.5525 2.41017 14.6419 2.41017C15.7312 2.41017 16.6144 3.29329 16.6144 4.38268Z" stroke="currentColor" stroke-linecap="round" stroke-linejoin="round"/>
</svg>
