<?xml version="1.0" encoding="UTF-8" standalone="no"?>
<!-- Created with Keyshape -->
<svg xmlns="http://www.w3.org/2000/svg" fill="none" viewBox="0 0 24 24">
    <defs>
        <clipPath id="ClipPath-1">
            <ellipse rx="10.7058" ry="10.7058" fill="#000000" stroke="none" transform="translate(18.2949,13.5209)"/>
        </clipPath>
    </defs>
    <style>
@keyframes a0_t { 0% { transform: translate(0px,0px); animation-timing-function: cubic-bezier(0,0,0.58,1); } 5.8823% { transform: translate(1px,1px); } 79.4117% { transform: translate(1px,1px); } 85.2941% { transform: translate(0px,0px); } 100% { transform: translate(0px,0px); } }
@keyframes a0_d { 0% { d: path('M17.814,17.842C19.6004,16.1107,20.6079,13.7287,20.606,11.241C20.606,6.137,16.44,2,11.303,2C6.165,2,2,6.137,2,11.24C2,16.344,6.165,20.482,11.303,20.482C13.7346,20.4864,16.0713,19.5388,17.813,17.842ZM17.814,17.842L22,22'); animation-timing-function: cubic-bezier(0,0,0.58,1); } 5.8824% { d: path('M18.6683,18.7005C20.7173,16.7148,21.8728,13.9827,21.8706,11.1295C21.8706,5.27545,17.0924,0.530534,11.2006,0.530534C5.30757,0.530534,0.530534,5.27545,0.530534,11.1283C0.530534,16.9823,5.30757,21.7284,11.2006,21.7284C13.9895,21.7334,16.6696,20.6466,18.6672,18.7005ZM18.6683,18.7005L22.0301,21.9567'); } 79.4118% { d: path('M18.6683,18.7005C20.7173,16.7148,21.8728,13.9827,21.8706,11.1295C21.8706,5.27545,17.0924,0.530534,11.2006,0.530534C5.30757,0.530534,0.530534,5.27545,0.530534,11.1283C0.530534,16.9823,5.30757,21.7284,11.2006,21.7284C13.9895,21.7334,16.6696,20.6466,18.6672,18.7005ZM18.6683,18.7005L22.0301,21.9567'); } 85.2941% { d: path('M17.814,17.842C19.6004,16.1107,20.6079,13.7287,20.606,11.241C20.606,6.137,16.44,2,11.303,2C6.165,2,2,6.137,2,11.24C2,16.344,6.165,20.482,11.303,20.482C13.7346,20.4864,16.0713,19.5388,17.813,17.842ZM17.814,17.842L22,22'); animation-timing-function: cubic-bezier(0,0,0.58,1); } 100% { d: path('M17.814,17.842C19.6004,16.1107,20.6079,13.7287,20.606,11.241C20.606,6.137,16.44,2,11.303,2C6.165,2,2,6.137,2,11.24C2,16.344,6.165,20.482,11.303,20.482C13.7346,20.4864,16.0713,19.5388,17.813,17.842ZM17.814,17.842L22,22'); } }
@keyframes TXT_t { 0% { transform: translate(-57.520645px,11.494388px); } 5.8823% { transform: translate(-57.520645px,11.494388px); } 73.5294% { transform: translate(-165.845958px,11.643494px); } 100% { transform: translate(-165.845958px,11.643494px); } }
@keyframes TXT_v { 0% { visibility: hidden; animation-timing-function: steps(1); } 5.8824% { visibility: visible; animation-timing-function: steps(1); } 73.5294% { visibility: hidden; animation-timing-function: steps(1); } 100% { visibility: hidden; animation-timing-function: steps(1); } }
    </style>
    <path stroke=" currentColor" stroke-linecap="round" d="M17.814,17.842C19.6004,16.1107,20.6079,13.7287,20.606,11.241C20.606,6.137,16.44,2,11.303,2C6.165,2,2,6.137,2,11.24C2,16.344,6.165,20.482,11.303,20.482C13.7346,20.4864,16.0713,19.5388,17.813,17.842ZM17.814,17.842L22,22" fill="none" transform="translate(12,12) translate(-12,-12)" style="animation: 3.4s linear infinite both a0_t, 3.4s linear infinite both a0_d;"/>
    <g clip-path="url(#ClipPath-1)" transform="translate(62.6726,12.0082) translate(-68.6797,-13.4062)" style="white-space: pre;">
        <path id="TXT" d="M94.2783,0.00253523C94.025,0.00253523,93.8216,-0.0674636,93.6684,-0.207462C93.515,-0.347459,93.4383,-0.540791,93.4383,-0.787446C93.4383,-1.03411,93.515,-1.22745,93.6684,-1.36744C93.8216,-1.50744,94.025,-1.57743,94.2783,-1.57743C94.5316,-1.57743,94.7315,-1.50744,94.8783,-1.36744C95.0316,-1.22745,95.1083,-1.03411,95.1083,-0.787446C95.1083,-0.540791,95.0316,-0.347459,94.8783,-0.207462C94.7315,-0.0674636,94.5316,0.00253523,94.2783,0.00253523ZM129.278,0.00253523C129.024,0.00253523,128.821,-0.0674636,128.669,-0.207462C128.514,-0.347459,128.438,-0.540791,128.438,-0.787446C128.438,-1.03411,128.514,-1.22745,128.669,-1.36744C128.821,-1.50744,129.024,-1.57743,129.278,-1.57743C129.531,-1.57743,129.731,-1.50744,129.878,-1.36744C130.03,-1.22745,130.108,-1.03411,130.108,-0.787446C130.108,-0.540791,130.03,-0.347459,129.878,-0.207462C129.731,-0.0674636,129.531,0.00253523,129.278,0.00253523ZM111.938,5.95243C112.444,6.03243,112.891,6.07244,113.278,6.07244C113.944,6.07244,114.485,5.95577,114.898,5.72244C115.312,5.48911,115.614,5.11911,115.809,4.61246C116.001,4.09913,116.097,3.43581,116.097,2.62248L116.097,2.0225C116.097,1.20251,116.001,0.539194,115.809,0.0325364C115.614,-0.474133,115.312,-0.84412,114.898,-1.07745C114.485,-1.31078,113.944,-1.42744,113.278,-1.42744C112.891,-1.42744,112.444,-1.38745,111.938,-1.30745ZM87.1885,-1.32745L87.1885,5.97243L88.3284,5.97243L88.3284,2.69248L90.7984,2.69248L90.7984,1.7325L88.3284,1.7325L88.3284,-0.377473L90.8984,-0.377473L90.8984,-1.32745ZM104.069,6.07244C103.521,6.07244,103.084,5.9791,102.758,5.79244C102.432,5.60578,102.191,5.30911,102.038,4.90245C101.892,4.48912,101.818,3.94579,101.818,3.27248C101.818,2.63915,101.878,2.13249,101.998,1.7525C102.124,1.37251,102.324,1.09918,102.598,0.932517C102.878,0.759187,103.248,0.672523,103.709,0.672523C103.981,0.672523,104.248,0.702525,104.508,0.762515C104.569,0.775057,104.63,0.789424,104.689,0.805642L104.689,-1.32745L105.768,-1.32745L105.768,5.75243C105.555,5.84577,105.302,5.92243,105.008,5.98243C104.714,6.04243,104.401,6.07244,104.069,6.07244ZM145.837,5.78243C146.278,5.97576,146.784,6.07244,147.357,6.07244C148.09,6.07244,148.62,5.90911,148.948,5.58245C149.28,5.25579,149.446,4.73579,149.446,4.02246L149.446,-1.32745L146.237,-1.32745L146.237,-0.377473L147.672,-0.377473L148.306,-0.377473L148.306,3.91247C148.306,4.31912,148.22,4.6158,148.047,4.80245C147.874,4.98911,147.59,5.08244,147.197,5.08244C146.97,5.08244,146.737,5.05245,146.498,4.99245C146.264,4.93245,146.044,4.85246,145.837,4.75245ZM156.807,5.98243C157.101,6.04243,157.414,6.07244,157.747,6.07244C158.294,6.07244,158.73,5.9791,159.057,5.79244C159.391,5.60578,159.63,5.30911,159.777,4.90245C159.923,4.48912,159.997,3.94579,159.997,3.27248C159.997,2.63915,159.933,2.13249,159.806,1.7525C159.688,1.37251,159.49,1.09918,159.217,0.932517C158.944,0.759187,158.574,0.672523,158.106,0.672523C157.834,0.672523,157.567,0.702525,157.306,0.762515C157.246,0.775057,157.185,0.789424,157.127,0.805642L157.127,-1.32745L156.047,-1.32745L156.047,5.75243C156.26,5.84577,156.513,5.92243,156.807,5.98243ZM162.207,-1.32745L162.357,3.72248L163.458,3.72248L163.607,-1.32745ZM113.047,5.02607C113.078,5.03551,113.108,5.04429,113.139,5.05245C113.238,5.07244,113.348,5.08244,113.467,5.08244C113.822,5.08244,114.108,4.99578,114.328,4.82245C114.548,4.64246,114.712,4.36579,114.818,3.99246C114.924,3.61915,114.978,3.13581,114.978,2.54249L114.978,2.10249C114.978,1.50917,114.924,1.02585,114.818,0.652518C114.712,0.27919,114.548,0.00586314,114.328,-0.167464C114.108,-0.347459,113.822,-0.437463,113.467,-0.437463C113.348,-0.437463,113.238,-0.427467,113.139,-0.407462C113.108,-0.40134,113.078,-0.393963,113.047,-0.385334ZM97.7982,0.752519C97.4982,0.799184,97.215,0.87918,96.9483,0.992512L96.9483,5.97243L98.0383,5.97243L98.0383,1.77769C98.0624,1.76836,98.0858,1.75997,98.1083,1.7525C98.2349,1.70583,98.3516,1.6725,98.4582,1.65251C98.5716,1.6325,98.6915,1.62251,98.8183,1.62251C99.0716,1.62251,99.2649,1.65251,99.3982,1.7125C99.5378,1.7725,99.6349,1.87583,99.6887,2.0225C99.7481,2.1625,99.7783,2.36582,99.7783,2.63248L99.7783,5.97243L100.868,5.97243L100.868,2.57249C100.868,2.08583,100.805,1.70583,100.678,1.43251C100.558,1.1525,100.348,0.955848,100.048,0.842522C99.7547,0.729186,99.3417,0.672523,98.8083,0.672523C98.4349,0.672523,98.0983,0.699184,97.7982,0.752519ZM119.278,6.07244C118.464,6.07244,117.861,5.8691,117.467,5.46244C117.075,5.04911,116.877,4.41912,116.877,3.57248L116.877,3.17248C116.877,2.31248,117.041,1.6825,117.368,1.28251C117.695,0.875851,118.208,0.672523,118.907,0.672523C119.608,0.672523,120.121,0.875851,120.447,1.28251C120.775,1.6825,120.938,2.31248,120.938,3.17248L120.938,3.85248L117.966,3.85248C117.982,4.1233,118.02,4.3433,118.078,4.51245C118.158,4.74578,118.301,4.90911,118.508,5.00244C118.714,5.09578,119.001,5.14244,119.368,5.14244C119.561,5.14244,119.758,5.13245,119.958,5.11245C120.158,5.08578,120.388,5.03912,120.647,4.97245L120.647,5.91244C120.434,5.9591,120.208,5.99577,119.968,6.02243C119.734,6.05576,119.505,6.07244,119.278,6.07244ZM122.897,6.00244C123.158,6.0491,123.438,6.07244,123.738,6.07244C124.451,6.07244,124.978,5.95243,125.318,5.71243C125.664,5.47244,125.839,5.09912,125.839,4.59247C125.839,4.18579,125.714,3.86248,125.468,3.62248C125.221,3.3758,124.797,3.15914,124.198,2.97248C123.924,2.88581,123.707,2.80248,123.548,2.72248C123.388,2.64249,123.272,2.55583,123.198,2.46249C123.125,2.36916,123.088,2.26916,123.088,2.1625C123.088,1.97583,123.175,1.83917,123.347,1.7525C123.521,1.66584,123.791,1.62251,124.158,1.62251C124.284,1.62251,124.414,1.62917,124.548,1.6425C124.573,1.64491,124.6,1.64764,124.628,1.65069L124.628,2.50249L125.708,2.50249L125.708,0.892515C125.367,0.812521,125.075,0.755847,124.828,0.722517C124.582,0.689188,124.331,0.672523,124.077,0.672523C123.351,0.672523,122.818,0.789188,122.478,1.02252C122.144,1.24918,121.978,1.6125,121.978,2.1125C121.978,2.53915,122.112,2.88247,122.378,3.14248C122.645,3.40247,123.084,3.61915,123.697,3.79248C123.944,3.8658,124.14,3.94246,124.287,4.02246C124.441,4.0958,124.551,4.17246,124.617,4.25246C124.691,4.33246,124.728,4.42579,124.728,4.53246C124.728,4.73246,124.645,4.88245,124.477,4.98245C124.318,5.07578,124.055,5.12245,123.688,5.12245C123.434,5.12245,123.178,5.09912,122.917,5.05245C122.664,5.00579,122.398,4.93912,122.117,4.85246L122.117,5.81243C122.378,5.89909,122.638,5.96243,122.897,6.00244ZM134.087,6.82242C133.695,7.08241,133.061,7.21241,132.187,7.21241L132.187,8.17239C133.408,8.17239,134.307,7.95572,134.888,7.52241C135.474,7.09575,135.768,6.43243,135.768,5.53244L135.768,0.992512C135.301,0.779179,134.734,0.672523,134.067,0.672523C133.515,0.672523,133.072,0.752519,132.738,0.912525C132.41,1.07251,132.175,1.3325,132.028,1.69251C131.888,2.05249,131.817,2.53249,131.817,3.13249C131.817,3.7658,131.891,4.2758,132.037,4.66246C132.185,5.04911,132.421,5.33245,132.747,5.51245C133.082,5.68577,133.521,5.77244,134.067,5.77244C134.29,5.77244,134.495,5.75972,134.685,5.73427C134.656,6.22531,134.458,6.58808,134.087,6.82242ZM136.947,0.992512C137.214,0.87918,137.497,0.799184,137.798,0.752519C138.097,0.699184,138.434,0.672523,138.807,0.672523C139.342,0.672523,139.755,0.729186,140.048,0.842522C140.347,0.955848,140.557,1.1525,140.677,1.43251C140.804,1.70583,140.867,2.08583,140.867,2.57249L140.867,5.97243L139.777,5.97243L139.777,2.63248C139.777,2.36582,139.747,2.1625,139.688,2.0225C139.634,1.87583,139.538,1.7725,139.397,1.7125C139.264,1.65251,139.07,1.62251,138.817,1.62251C138.691,1.62251,138.571,1.6325,138.457,1.65251C138.351,1.6725,138.235,1.70583,138.108,1.7525C138.086,1.75997,138.062,1.76836,138.037,1.77769L138.037,5.97243L136.947,5.97243ZM152.907,6.07244C152.193,6.07244,151.666,5.87243,151.327,5.47244C150.994,5.06578,150.827,4.43246,150.827,3.57248L150.827,3.17248C150.827,2.31248,150.994,1.6825,151.327,1.28251C151.666,0.875851,152.193,0.672523,152.907,0.672523C153.628,0.672523,154.154,0.875851,154.487,1.28251C154.821,1.6825,154.988,2.31248,154.988,3.17248L154.988,3.57248C154.988,4.43246,154.821,5.06578,154.487,5.47244C154.154,5.87243,153.628,6.07244,152.907,6.07244ZM93.8783,5.97243L93.8783,1.71251L92.1783,1.71251L92.1783,0.772523L94.9783,0.772523L94.9783,5.97243ZM128.878,5.97243L128.878,1.71251L127.178,1.71251L127.178,0.772523L129.978,0.772523L129.978,5.97243ZM119.863,2.97248L117.962,2.97248C117.981,2.51587,118.053,2.18255,118.178,1.9725C118.325,1.72583,118.572,1.6025,118.918,1.6025C119.258,1.6025,119.501,1.72583,119.648,1.9725C119.773,2.18255,119.844,2.51587,119.863,2.97248ZM104.328,1.7025C104.44,1.73257,104.56,1.77649,104.689,1.83424L104.689,4.98851C104.474,5.08446,104.23,5.13245,103.958,5.13245C103.691,5.13245,103.479,5.07578,103.318,4.96245C103.165,4.84911,103.055,4.65912,102.988,4.39246C102.928,4.1258,102.898,3.75914,102.898,3.29247C102.898,2.86581,102.925,2.53249,102.978,2.29249C103.038,2.05249,103.134,1.8825,103.267,1.7825C103.401,1.67583,103.581,1.62251,103.808,1.62251C103.981,1.62251,104.154,1.64916,104.328,1.7025ZM134.687,4.73617L134.687,1.75201C134.589,1.71739,134.495,1.69089,134.408,1.6725C134.247,1.63917,134.087,1.62251,133.927,1.62251C133.668,1.62251,133.461,1.66918,133.307,1.76251C133.161,1.85584,133.055,2.0125,132.987,2.23249C132.927,2.45248,132.898,2.75915,132.898,3.15248C132.898,3.57914,132.931,3.9158,132.998,4.16246C133.064,4.40912,133.174,4.58245,133.327,4.68245C133.487,4.78246,133.705,4.83245,133.978,4.83245C134.138,4.83245,134.295,4.81912,134.447,4.79245C134.523,4.77612,134.603,4.75734,134.687,4.73617ZM157.127,1.83682C157.259,1.77779,157.384,1.73301,157.497,1.7025C157.67,1.64916,157.841,1.62251,158.007,1.62251C158.241,1.62251,158.421,1.67583,158.547,1.7825C158.68,1.8825,158.774,2.05249,158.827,2.29249C158.886,2.53249,158.917,2.86581,158.917,3.29247C158.917,3.75914,158.884,4.1258,158.817,4.39246C158.757,4.65912,158.647,4.84911,158.486,4.96245C158.333,5.07578,158.124,5.13245,157.857,5.13245C157.585,5.13245,157.341,5.08446,157.127,4.98851ZM152.907,5.11245C153.26,5.11245,153.511,4.98911,153.657,4.74245C153.804,4.49579,153.877,4.07913,153.877,3.49247L153.877,3.25247C153.877,2.66582,153.804,2.24916,153.657,2.00249C153.511,1.75584,153.26,1.6325,152.907,1.6325C152.561,1.6325,152.31,1.75584,152.158,2.00249C152.01,2.24916,151.938,2.66582,151.938,3.25247L151.938,3.49247C151.938,4.07913,152.01,4.49579,152.158,4.74245C152.31,4.98911,152.561,5.11245,152.907,5.11245ZM162.296,5.86244C162.451,6.00244,162.654,6.07244,162.907,6.07244C163.161,6.07244,163.361,6.00244,163.507,5.86244C163.66,5.71577,163.737,5.52244,163.737,5.28244C163.737,5.03578,163.66,4.84246,163.507,4.70246C163.361,4.56246,163.161,4.49246,162.907,4.49246C162.654,4.49246,162.451,4.56246,162.296,4.70246C162.15,4.84246,162.076,5.03578,162.076,5.28244C162.076,5.52244,162.15,5.71577,162.296,5.86244Z" fill="currentColor" fill-rule="evenodd" visibility="hidden" transform="translate(98.6764,19.5144) translate(-156.197,-8.01999)" style="animation: 3.4s linear infinite both TXT_t, 3.4s linear infinite forwards TXT_v;"/>
    </g>
</svg>
