<svg viewBox="0 0 24 24" fill="none" xmlns="http://www.w3.org/2000/svg">
<path fill-rule="evenodd" clip-rule="evenodd" d="M6.52656 1.56854C4.54996 1.56854 2.94761 2.96617 2.94761 4.69023C2.94761 6.41429 4.54996 7.81192 6.52656 7.81192H17.4739C19.4505 7.81192 21.0529 6.41429 21.0529 4.69023C21.0529 2.96617 19.4505 1.56854 17.4739 1.56854H6.52656ZM2.70099 7.06151L2.50024 6.64128V19.3097C2.50024 21.0338 4.10259 22.4314 6.07919 22.4314H17.9213C19.8979 22.4314 21.5002 21.0338 21.5002 19.3097V6.64128L21.2995 7.06151C20.7438 8.2248 19.4407 8.98255 17.9959 8.98255H6.00463C4.55981 8.98255 3.25669 8.2248 2.70099 7.06151ZM8.15332 15.1279C8.15332 17.6104 9.93103 19.2213 12.0002 19.2213C14.0693 19.2213 15.8472 17.6112 15.8472 15.1279V11.5275H13.473V14.9378C13.473 15.966 12.8976 16.6629 12.0002 16.6629C11.0915 16.6629 10.5275 15.9753 10.5275 14.9378V11.5275H8.15332V15.1279Z" fill="currentColor"/>
</svg>
