<svg  viewBox="0 0 24 24" fill="none" xmlns="http://www.w3.org/2000/svg">
    <path stroke="currentColor" stroke-linecap="round" stroke-linejoin="round" d="M3 5.503C3 3.568 4.518 2 6.39 2h11.22C19.481 2 21 3.568 21 5.503m-18 0c0 1.935 1.518 3.504 3.39 3.504h3.36M3 5.503V18.39C3 21.306 4.518 22 6.39 22h11.22c1.872 0 3.39-.694 3.39-3.61V5.503m0 0c0 1.935-1.518 3.504-3.39 3.504h-2.86m-5 0h5m-5 0V9m0 .007V10.5a.5.5 0 0 0 .5.5h4a.5.5 0 0 0 .5-.5V9.007m0 0V9m.425-3a2 2 0 0 0-2-2H11a2 2 0 0 0-2 2m1.367 9.43L8 14.944 9.546 19l6.444-1.15.01-4.439-2.114 1.327L11.803 13l-1.436 2.43Z"/>
</svg>
