<svg  viewBox="0 0 24 24" fill="none" xmlns="http://www.w3.org/2000/svg">
    <path stroke="currentColor" stroke-linecap="round" stroke-linejoin="round"   d="M12.078 21V11m0 0c-1.708 0-3.093-1.343-3.093-3s1.385-3 3.093-3m0 6c1.709 0 3.094-1.343 3.094-3s-1.385-3-3.094-3m0-2v2m-7.11-2v10m0 0c-1.708 0-3.093 1.343-3.093 3s1.385 3 3.093 3m0-6c1.708 0 3.093 1.343 3.093 3s-1.385 3-3.093 3m0 2v-2M19.032 3v8.055m0 0c-1.708 0-3.093 1.343-3.093 3s1.385 3 3.093 3m0-6c1.708 0 3.093 1.343 3.093 3s-1.385 3-3.093 3m0 3.945v-3.945"/>
</svg>
