<svg  viewBox="0 0 24 24" fill="none" xmlns="http://www.w3.org/2000/svg">
    <path stroke="currentColor" stroke-linecap="round" stroke-linejoin="round"   d="m3.618 4.537 2.127 1.329 2.763-.87-.25.33m0 0 .008-.014a1.975 1.975 0 0 1 1.48-.931l3.728-.372c.284-.028.572.008.842.104l3.116 1.753L20.8 4.38m-12.541.944L6.237 8.691c-1.054 1.696 1.457 3.4 2.564 1.754l1.323-2.031c.667-.948 1.487-.923 2.201-.437l5.31 3.634m0 0 .416.286m-.416-.286.416.286m2.748-.286-.646.271c-.961.353-1.458.423-2.102.015m-1.114 4.983.273.192c.527.37 1.246.23 1.607-.312.36-.542.241-1.304-.286-1.675m-1.594 1.795-1.049-.719m1.049.72c.527.37.663 1.11.303 1.652-.36.542-1.08.681-1.607.311l-.273-.191m1.832-4.456 1.339.889m0 0 .66.453c.528.37 1.248.23 1.608-.312a1.21 1.21 0 0 0-.303-1.652l-2.445-1.678m-2.69 6.756-.777-.527m.776.527c.527.37.663 1.11.303 1.652-.36.543-1.08.682-1.607.312l-1.636-1.105M3 12.817l1.151.946m1.338 2.554 1.275-1.85a1.136 1.136 0 0 1 1.615-.264c.517.385.632 1.129.256 1.66L7.36 17.715m-1.87-1.398a1.211 1.211 0 0 0 .256 1.661c.517.386 1.24.268 1.615-.263M5.49 16.317l.887-1.301a1.211 1.211 0 0 0-.256-1.66 1.136 1.136 0 0 0-1.615.263l-.887 1.301a1.211 1.211 0 0 0 .256 1.661c.517.386 1.24.268 1.615-.264Zm1.871 1.398 1.081-1.577a1.136 1.136 0 0 1 1.615-.263 1.21 1.21 0 0 1 .257 1.66L9.23 19.113m-1.87-1.397a1.211 1.211 0 0 0 .255 1.66c.517.387 1.24.269 1.615-.263m0 0 .887-1.301a1.136 1.136 0 0 1 1.615-.264 1.21 1.21 0 0 1 .257 1.66l-.887 1.302a1.136 1.136 0 0 1-1.615.264 1.211 1.211 0 0 1-.257-1.66Z"/>
</svg>
