<svg  viewBox="0 0 24 24" fill="none" xmlns="http://www.w3.org/2000/svg">
<path d="M5.89356 21.662L6.84906 21.438C7.53199 21.8108 8.25339 22.1084 9.00056 22.3255M2.02656 19.573L1.63656 21.167C1.45956 21.892 2.11006 22.5485 2.83656 22.378L4.43006 22.005M2.37606 18.1445L2.60156 17.221C2.22274 16.5409 1.91978 15.8215 1.69706 15.0755M22.3031 8.92452C22.0803 8.17856 21.7769 7.45913 21.3981 6.77902M1.70006 8.91052C1.92352 8.16499 2.22765 7.44607 2.60706 6.76652M20.3546 5.23502C19.864 4.63029 19.3098 4.08012 18.7016 3.59402M3.65406 5.22502C4.14474 4.62085 4.6993 4.07149 5.30806 3.58652M17.1511 2.56202C16.4681 2.18919 15.7467 1.89162 14.9996 1.67452M6.86006 2.55552C7.5437 2.18286 8.26598 1.88593 9.01406 1.67002M13.1716 1.31352C12.3979 1.22975 11.6174 1.22908 10.8436 1.31152M1.32206 13.2485C1.22728 12.4189 1.22728 11.5812 1.32206 10.7515M22.3001 15.0895C22.0766 15.835 21.7725 16.554 21.3931 17.2335M20.3461 18.775C19.8554 19.3792 19.3008 19.9285 18.6921 20.4135M17.1401 21.4445C16.4564 21.8172 15.7341 22.1141 14.9861 22.33M22.6781 13.2485C22.7728 12.4189 22.7728 11.5812 22.6781 10.7515M10.8286 22.6865C11.6023 22.7703 12.3827 22.771 13.1566 22.6885M5.59736 16.0789C3.52353 12.8232 4.22272 8.52932 7.22261 6.10007C10.2225 3.67083 14.5677 3.87959 17.3209 6.58532C20.074 9.29104 20.3587 13.6319 17.9821 16.6737C15.6055 19.7154 11.3245 20.4896 8.0335 18.4723L4.89171 19.121L5.59736 16.0789Z" stroke="currentColor" stroke-linecap="round" stroke-linejoin="round"/>
</svg>
