<svg xmlns="http://www.w3.org/2000/svg"  fill="none" viewBox="0 0 24 24">
  <g class="Iconz/Terms">
    <path stroke="currentColor" stroke-linecap="round" stroke-linejoin="round"   d="M13.737 3.477h4.139c1.725 0 3.124 1.343 3.124 3V18.5c0 1.657-1.399 3-3.124 3h-2.38m0 0H6.124C4.4 21.5 3 20.157 3 18.5v-.194l.045-11.548V5.5c0-1.657 1.398-3 3.124-3h6.595m2.732 19c1.726 0 3.124-1.343 3.124-3V8.385m-8.975 5.606h5.602m3.373-5.606h-4.502c-.748 0-1.354-.582-1.354-1.3V2.5m5.856 5.885L12.764 2.5M10.457 6H6.014h2.167v5m1.464 5.886h5.478m-8.398-2.895h.522m-.522 2.895h.522" class="iconz"/>
  </g>
</svg>
