<svg width="146" height="146" viewBox="0 0 146 146" fill="none" xmlns="http://www.w3.org/2000/svg">
<rect x="0.546631" y="0.28299" width="145.434" height="145.434" rx="32" fill="#333444"/>
<path d="M23.2637 62.9038C20.5713 62.9038 18.3145 62.0327 16.4933 60.2907C14.7512 58.4694 13.8801 56.2126 13.8801 53.5203C13.8801 50.7487 14.7512 48.4919 16.4933 46.7499C18.2354 45.0078 20.4922 44.1367 23.2637 44.1367C26.0352 44.1367 28.292 45.0078 30.0341 46.7499C31.7762 48.4919 32.6472 50.7487 32.6472 53.5203C32.6472 56.2126 31.7366 58.4694 29.9153 60.2907C28.1732 62.0327 25.956 62.9038 23.2637 62.9038ZM23.2637 101.863C20.5713 101.863 18.3145 100.992 16.4933 99.2501C14.7512 97.4289 13.8801 95.1721 13.8801 92.4797C13.8801 89.7082 14.7512 87.4514 16.4933 85.7093C18.2354 83.9673 20.4922 83.0962 23.2637 83.0962C26.0352 83.0962 28.292 83.9673 30.0341 85.7093C31.7762 87.4514 32.6472 89.7082 32.6472 92.4797C32.6472 95.1721 31.7366 97.4289 29.9153 99.2501C28.1732 100.992 25.956 101.863 23.2637 101.863Z" fill="#FF6347"/>
<path d="M60.1003 115.46C53.6203 115.46 48.9803 114.26 46.1803 111.86C43.4603 109.46 41.7403 105.58 41.0203 100.22C40.3003 94.78 39.9403 85.78 39.9403 73.22C39.9403 60.66 40.3003 51.7 41.0203 46.34C41.7403 40.9 43.4603 36.98 46.1803 34.58C48.9803 32.18 53.6203 30.98 60.1003 30.98C66.6603 30.98 71.3003 32.18 74.0203 34.58C76.8203 36.98 78.5403 40.86 79.1803 46.22C79.9003 51.58 80.2603 60.58 80.2603 73.22C80.2603 85.78 79.9003 94.78 79.1803 100.22C78.4603 105.58 76.7003 109.46 73.9003 111.86C71.1803 114.26 66.5803 115.46 60.1003 115.46ZM60.1003 102.38C62.1803 102.38 63.5803 101.9 64.3003 100.94C65.1003 99.98 65.6203 97.62 65.8603 93.86C66.1003 90.1 66.2203 83.22 66.2203 73.22C66.2203 63.22 66.1003 56.34 65.8603 52.58C65.6203 48.82 65.1003 46.46 64.3003 45.5C63.5803 44.54 62.1803 44.06 60.1003 44.06C58.0203 44.06 56.5803 44.54 55.7803 45.5C55.0603 46.46 54.5803 48.78 54.3403 52.46C54.1003 56.14 53.9803 63.06 53.9803 73.22C53.9803 83.38 54.1003 90.3 54.3403 93.98C54.5803 97.66 55.0603 99.98 55.7803 100.94C56.5803 101.9 58.0203 102.38 60.1003 102.38ZM108.147 115.46C101.667 115.46 97.0272 114.26 94.2272 111.86C91.5072 109.46 89.7872 105.58 89.0672 100.22C88.3472 94.78 87.9872 85.78 87.9872 73.22C87.9872 60.66 88.3472 51.7 89.0672 46.34C89.7872 40.9 91.5072 36.98 94.2272 34.58C97.0272 32.18 101.667 30.98 108.147 30.98C114.707 30.98 119.347 32.18 122.067 34.58C124.867 36.98 126.587 40.86 127.227 46.22C127.947 51.58 128.307 60.58 128.307 73.22C128.307 85.78 127.947 94.78 127.227 100.22C126.507 105.58 124.747 109.46 121.947 111.86C119.227 114.26 114.627 115.46 108.147 115.46ZM108.147 102.38C110.227 102.38 111.627 101.9 112.347 100.94C113.147 99.98 113.667 97.62 113.907 93.86C114.147 90.1 114.267 83.22 114.267 73.22C114.267 63.22 114.147 56.34 113.907 52.58C113.667 48.82 113.147 46.46 112.347 45.5C111.627 44.54 110.227 44.06 108.147 44.06C106.067 44.06 104.627 44.54 103.827 45.5C103.107 46.46 102.627 48.78 102.387 52.46C102.147 56.14 102.027 63.06 102.027 73.22C102.027 83.38 102.147 90.3 102.387 93.98C102.627 97.66 103.107 99.98 103.827 100.94C104.627 101.9 106.067 102.38 108.147 102.38Z" fill="#FF6347"/>
</svg>
