<svg viewBox="0 0 24 24" fill="none" xmlns="http://www.w3.org/2000/svg">
<path d="M9.9123 16.2631C8.88927 16.2797 7.86885 16.155 6.87993 15.8926C6.62088 15.8616 6.35837 15.905 6.12314 16.0178C5.41854 16.4145 4.74526 16.8633 3.94671 17.3644C4.09285 16.7015 4.1868 16.1222 4.35381 15.5638C4.43151 15.4016 4.44221 15.2154 4.38359 15.0454C4.32498 14.8754 4.20178 14.7354 4.04066 14.6556C1.61371 12.9437 0.590741 10.3758 1.35797 7.73489C2.06779 5.29229 3.80579 3.81524 6.17011 3.03758C7.72741 2.52071 9.40522 2.49058 10.9801 2.95119C12.5549 3.41181 13.9521 4.3413 14.9854 5.61588C15.8035 6.77785 16.2922 8.1394 16.3998 9.55641M6.43638 7.93663C6.43549 7.75242 6.36354 7.57565 6.23554 7.44318C6.10753 7.31071 5.93333 7.23274 5.74926 7.22554M6.43638 7.93663C6.42808 8.12245 6.34648 8.2974 6.20946 8.42319C6.07245 8.54898 5.89117 8.61535 5.70532 8.60776M6.43638 7.93663L5.02619 7.89668M5.74926 7.22554C5.65751 7.22126 5.56582 7.23531 5.47956 7.26687C5.3933 7.29843 5.3142 7.34687 5.24687 7.40936C5.17955 7.47185 5.12536 7.54713 5.08747 7.6308C5.04958 7.71447 5.02874 7.80486 5.02619 7.89668M5.74926 7.22554L5.70532 8.60776M5.02619 7.89668C5.02243 7.98838 5.03719 8.07989 5.06958 8.16576C5.10197 8.25163 5.15134 8.33009 5.21473 8.39646C5.27811 8.46283 5.35422 8.51575 5.43851 8.55205C5.5228 8.58836 5.61354 8.6073 5.70532 8.60776M10.4525 7.92864C10.4555 7.74381 10.5301 7.56734 10.6604 7.43625C10.7907 7.30517 10.9668 7.22965 11.1516 7.22554H11.1716M10.4525 7.92864C10.4551 8.02046 10.4757 8.11087 10.5133 8.1947C10.5508 8.27853 10.6045 8.35414 10.6713 8.41721C10.7381 8.48028 10.8166 8.52957 10.9025 8.56227C10.9883 8.59497 11.0798 8.61043 11.1716 8.60776M10.4525 7.92864L11.8627 7.91665M11.1716 8.60776C11.3549 8.60776 11.5307 8.53495 11.6603 8.40534C11.7899 8.27573 11.8627 8.09995 11.8627 7.91665M11.1716 8.60776V7.22554M11.8627 7.91665C11.8627 7.73336 11.7899 7.55757 11.6603 7.42796C11.5307 7.29836 11.3549 7.22554 11.1716 7.22554M14.1306 14.8143C14.2062 14.8143 14.281 14.7995 14.3508 14.7706C14.4206 14.7416 14.484 14.6993 14.5374 14.6459C14.5908 14.5924 14.6332 14.529 14.6621 14.4592C14.691 14.3894 14.7059 14.3146 14.7059 14.2391M14.1306 14.8143C14.0551 14.8143 13.9803 14.7995 13.9105 14.7706C13.8407 14.7416 13.7773 14.6993 13.7239 14.6459C13.6705 14.5924 13.6281 14.529 13.5992 14.4592C13.5703 14.3894 13.5554 14.3146 13.5554 14.2391M14.1306 14.8143V13.6638M14.7059 14.2391C14.7059 14.1635 14.691 14.0887 14.6621 14.0189C14.6332 13.9491 14.5908 13.8857 14.5374 13.8323C14.484 13.7789 14.4206 13.7365 14.3508 13.7076C14.281 13.6787 14.2062 13.6638 14.1306 13.6638M14.7059 14.2391H13.5554M14.1306 13.6638C14.0551 13.6638 13.9803 13.6787 13.9105 13.7076C13.8407 13.7365 13.7773 13.7789 13.7239 13.8323C13.6705 13.8857 13.6281 13.9491 13.5992 14.0189C13.5703 14.0887 13.5554 14.1635 13.5554 14.2391M18.1707 14.2031C18.1787 14.0599 18.2402 13.925 18.3431 13.8251C18.446 13.7252 18.5827 13.6676 18.726 13.6638H18.742M18.1707 14.2031C18.1676 14.2776 18.1791 14.352 18.2047 14.422C18.2303 14.4921 18.2695 14.5564 18.3199 14.6113C18.3704 14.6662 18.4311 14.7106 18.4988 14.742C18.5664 14.7734 18.6395 14.7912 18.714 14.7944M18.1707 14.2031L19.3053 14.2511M18.714 14.7944C18.7885 14.7975 18.8629 14.786 18.9329 14.7604C19.003 14.7348 19.0673 14.6956 19.1222 14.6452C19.1771 14.5947 19.2215 14.5339 19.2529 14.4663C19.2843 14.3987 19.3021 14.3256 19.3053 14.2511M18.714 14.7944L18.742 13.6638M19.3053 14.2511C19.3074 14.1754 19.2945 14.1 19.2672 14.0294C19.2399 13.9587 19.1989 13.8942 19.1465 13.8396C19.0941 13.7849 19.0313 13.7413 18.9619 13.7111C18.8924 13.6809 18.8177 13.6649 18.742 13.6638M20.784 21.4197C20.1472 21.1379 19.5575 20.7099 18.9312 20.6421C18.3048 20.5742 17.6524 20.9396 17.0053 21.0022C16.0633 21.1192 15.1071 21.0269 14.205 20.7319C13.3028 20.4369 12.4768 19.9464 11.786 19.2955C8.98328 16.6963 9.39038 12.761 12.6107 10.6472C15.476 8.7683 19.6827 9.39461 21.7026 12.0042C22.5672 13.0432 22.9892 14.3801 22.8779 15.7272C22.7667 17.0742 22.1309 18.3238 21.1076 19.2068C20.4865 19.76 20.2621 20.2193 20.6587 20.9448C20.719 21.0976 20.7611 21.257 20.784 21.4197Z" stroke="currentColor" stroke-linecap="round"/>
</svg>
