<svg viewBox="0 0 88 120" fill="none" xmlns="http://www.w3.org/2000/svg">
<path d="M14.9112 77.4751L14.921 77.4771L14.9306 77.4792L36.6387 81.3441M14.9112 77.4751L9.18204 76.2388C5.11481 75.561 2.13379 72.042 2.13379 67.9186C2.13379 62.7064 6.81407 58.7416 11.9554 59.5984L13.4579 59.7892M14.9112 77.4751C9.77747 76.6313 5.10891 80.5937 5.10891 85.7994C5.10891 89.9228 8.08993 93.4417 12.1572 94.1196L43.4324 98.9205M13.4579 59.7892C10.3457 58.5169 8.21848 55.465 8.21848 51.9819C8.21848 47.914 11.0692 44.6059 14.7651 43.7567M13.4579 59.7892L14.2712 60.0873M78.1058 54.2114C82.6048 56.4783 85.544 62.04 85.544 66.7271V85.0659C85.544 94.1196 77.4926 95.2485 73.96 90.5039L54.4611 65.2835C50.7696 60.1351 43.6034 58.9541 38.455 62.6457C33.3066 66.3372 32.1256 73.5034 35.8172 78.6518L45.9646 93.2193C40.1076 104.864 46.5847 115.234 51.6042 118.171M41.2521 98.583L20.8689 95.4505C11.9488 95.0464 10.1001 109.191 19.5044 110.634L48.1056 115.081M33.5781 72.2559H28.4235C20.9609 72.2559 14.9112 66.2062 14.9112 58.7436V15.7681C14.9112 8.30547 20.9609 2.25583 28.4235 2.25583H64.4987C71.9613 2.25583 78.0109 8.30549 78.0109 15.7681C78.0374 37.9336 78.0894 37.0993 78.0949 59.2649C78.0961 64.3603 75.1627 68.7693 70.8926 70.8978C68.887 71.8381 68.0593 72.0947 66.9118 72.2559H60.4815M49.1586 69.1216L50.3045 70.7337L42.5314 76.2587L41.3855 74.6466C39.8599 72.5001 40.3631 69.5233 42.5096 67.9976C44.656 66.4719 47.6329 66.9751 49.1586 69.1216ZM50.1768 41.4709L55.5585 41.4856C59.2429 41.4956 62.2085 44.4387 62.1526 48.0297C62.0978 51.5514 59.1533 54.3784 55.5399 54.3784H30.7563L43.2042 31.0214H36.6387C33.057 31.0214 30.1534 28.1912 30.1534 24.6999C30.1534 21.2086 33.057 18.3784 36.6387 18.3784H61.5121L50.1768 41.4709Z" stroke="currentColor" stroke-linecap="round" stroke-linejoin="round"/>
</svg>
