<svg viewBox="0 0 88 130" fill="none" xmlns="http://www.w3.org/2000/svg">
<path d="M15.039 87.7234L15.0294 87.7213L15.0196 87.7192M15.0196 87.7192L9.29044 86.483C5.22321 85.8051 2.24219 82.2861 2.24219 78.1628C2.24219 72.9505 6.92247 68.9857 12.0638 69.8426L13.5663 70.0334C10.4541 68.7611 8.32688 65.7092 8.32688 62.226C8.32688 58.1581 11.1776 54.85 14.8735 54.0009M15.0196 87.7192C9.88587 86.8754 5.2173 90.8378 5.2173 96.0435C5.2173 100.167 8.19833 103.686 12.2656 104.364L43.5408 109.165M15.0196 87.7192V83.9877M15.0196 83.9877V15.0123C15.0196 7.54965 21.0693 1.5 28.5319 1.5H64.607C72.0697 1.5 78.1193 7.54966 78.1193 15.0123C78.1458 37.1778 78.1978 62.3435 78.2032 84.5091C78.2045 89.6044 75.2711 94.0134 71.0009 96.1419M15.0196 83.9877C15.0196 91.4503 21.0693 97.5 28.5319 97.5H41.0175M78.2142 64.4555C82.7132 66.7225 85.6524 72.2841 85.6524 76.9713V95.3101C85.6524 104.364 77.601 105.493 74.0684 100.748L54.5695 75.5276C50.878 70.3792 43.7118 69.1982 38.5634 72.8898C33.415 76.5814 32.234 83.7476 35.9255 88.896L46.073 103.463C40.216 115.108 46.6931 125.478 51.7126 128.416M33.7721 26.8915V26.2072C33.7721 19.2428 39.4239 13.5971 46.3958 13.5971C53.3677 13.5971 59.0196 19.2428 59.0196 26.2072V26.8915M33.7721 26.8915H33.487C30.5685 26.8915 28.2607 29.3185 28.2607 32.2397C28.2607 35.1609 30.5685 37.5879 33.487 37.5879H33.7721M33.7721 26.8915V37.5879M33.7721 37.5879C33.8077 37.5879 33.8377 37.6149 33.8419 37.6503C34.5119 43.367 39.9225 48.2638 46.3958 48.2638C52.8691 48.2638 58.2797 43.367 58.9498 37.6503C58.9539 37.6149 58.9839 37.5879 59.0196 37.5879M59.0196 37.5879H59.352C62.2704 37.5879 64.5782 35.1609 64.5782 32.2397C64.5782 29.3185 62.2704 26.8915 59.352 26.8915H59.0196M59.0196 37.5879V26.8915M42.026 42.3368C43.1106 43.3116 44.5874 43.8981 46.1952 43.8981C48.8224 43.8981 51.1396 42.3195 51.9016 40.0119M44.9353 33.6187C44.1279 34.7066 44.6788 36.7941 46.1952 37.1524M53.8649 22.4628C52.6067 20.7596 49.8758 20.8407 48.4797 22.0939M39.3183 20.5478C40.5764 19.1919 43.3073 19.2565 44.7034 20.2541M30.5184 55.9304H62.3202M33.9017 63.5971H58.9371M41.3604 108.827L20.9773 105.695C12.0572 105.291 10.2085 119.435 19.6128 120.878L48.214 125.325M49.267 79.3658L50.4128 80.9779L42.6398 86.5028L41.4939 84.8907C39.9683 82.7443 40.4715 79.7674 42.618 78.2417C44.7644 76.716 47.7413 77.2193 49.267 79.3658ZM44.1279 28.5354C44.1279 25.1142 39.8657 25.1142 39.8657 28.5354C39.8657 31.781 44.1279 31.781 44.1279 28.5354ZM52.7713 28.5354C52.7713 25.1142 48.5091 25.1142 48.5091 28.5354C48.5091 31.8081 52.7713 31.8081 52.7713 28.5354Z" stroke="currentColor" stroke-linecap="round" stroke-linejoin="round"/>
</svg>
