<svg width="132" height="88" viewBox="0 0 132 88" fill="none" xmlns="http://www.w3.org/2000/svg">
<path fill-rule="evenodd" clip-rule="evenodd" d="M28.8906 43.9996V81.1086H65.9996H103.109V43.9996V6.89062H65.9996H28.8906V43.9996ZM55.5168 43.27V60.7802L60.0768 60.7238L64.6369 60.6672L64.6922 53.9058L64.7475 47.1444H69.6715H74.5955V43.2658V39.3872H69.6686H64.7417V36.452V33.5168H70.1927H75.6438V29.6382V25.7596H65.5803H55.5168V43.27Z" fill="#A42528"/>
<path fill-rule="evenodd" clip-rule="evenodd" d="M59.5353 8.82994C58.3937 11.4387 56.9901 15.2995 56.1626 18.1072C55.7887 19.3756 55.3948 20.6906 55.2872 21.0292C55.1797 21.3677 55.169 21.7223 55.2638 21.817C55.3583 21.9116 61.2735 21.9646 68.4083 21.9351L81.381 21.881L82.3906 19.3651C83.7545 15.9664 85.59 12.3092 87.3735 9.43752C88.1864 8.12843 88.8516 7.01977 88.8516 6.97407C88.8516 6.92815 82.4464 6.89062 74.6179 6.89062H60.3842L59.5353 8.82994ZM55.3302 66.0658C56.5548 70.5409 58.4109 75.7639 60.0982 79.4838L60.7402 80.8989H76.267H91.7939L90.7666 79.5886C88.1522 76.2536 84.5992 70.1174 82.876 65.961L82.2894 64.5458H68.6018H54.9141L55.3302 66.0658Z" fill="#1A171B"/>
</svg>
