<svg width="132" height="88" viewBox="0 0 132 88" fill="none" xmlns="http://www.w3.org/2000/svg">
<path d="M42.2123 33.145L64.9406 10.4712C65.2234 10.1942 65.6038 10.0391 66 10.0391C66.3962 10.0391 66.7767 10.1942 67.0594 10.4712L99.8036 43.329C100.081 43.611 100.237 43.9905 100.237 44.3858C100.237 44.7811 100.081 45.1606 99.8036 45.4427L99.6109 45.6348C98.3046 46.9274 96.5392 47.6527 94.6993 47.6527C92.8594 47.6527 91.094 46.9274 89.7877 45.6348L66.6742 22.5767C66.3914 22.2997 66.011 22.1446 65.6148 22.1446C65.2185 22.1446 64.8381 22.2997 64.5554 22.5767L51.6504 35.4508C50.344 36.7434 48.5787 37.4687 46.7387 37.4687C44.8988 37.4687 43.1334 36.7434 41.8271 35.4508C41.694 35.0648 41.6595 34.6518 41.7268 34.2492C41.794 33.8466 41.9609 33.467 42.2123 33.145Z" fill="#323A45"/>
<path d="M89.9787 54.8581L67.2504 77.5319C66.9677 77.8089 66.5873 77.9641 66.191 77.9641C65.7948 77.9641 65.4144 77.8089 65.1317 77.5319L32.1949 44.6741C31.9173 44.3921 31.7617 44.0126 31.7617 43.6173C31.7617 43.222 31.9173 42.8425 32.1949 42.5605C33.5012 41.2679 35.2666 40.5425 37.1065 40.5425C38.9464 40.5425 40.7118 41.2679 42.0181 42.5605L64.9391 65.4264C65.2218 65.7034 65.6022 65.8586 65.9984 65.8586C66.3947 65.8586 66.7751 65.7034 67.0578 65.4264L79.9629 52.5523C81.2692 51.2597 83.0346 50.5344 84.8745 50.5344C86.7144 50.5344 88.4798 51.2597 89.7861 52.5523C89.9563 52.6871 90.0971 52.8553 90.1996 53.0464C90.3022 53.2375 90.3644 53.4476 90.3825 53.6636C90.4005 53.8797 90.374 54.0972 90.3046 54.3026C90.2351 54.508 90.1242 54.6971 89.9787 54.8581Z" fill="#323A45"/>
<path d="M68.4047 43.3289L62.8189 37.7566C62.0745 36.9424 61.6618 35.8802 61.6618 34.7782C61.6618 33.6763 62.0745 32.614 62.8189 31.7999L63.0116 31.6077C63.3932 31.1985 63.8552 30.8721 64.3689 30.649C64.8825 30.4258 65.4368 30.3106 65.9971 30.3106C66.5573 30.3106 67.1116 30.4258 67.6252 30.649C68.1389 30.8721 68.6009 31.1985 68.9826 31.6077L80.5393 43.1368C80.8169 43.4188 80.9725 43.7983 80.9725 44.1936C80.9725 44.5889 80.8169 44.9684 80.5393 45.2505L69.3678 56.3952C68.9862 56.8044 68.5241 57.1308 68.0105 57.354C67.4968 57.5772 66.9425 57.6923 66.3823 57.6923C65.822 57.6923 65.2678 57.5772 64.7541 57.354C64.2404 57.1308 63.7784 56.8044 63.3968 56.3952C62.9866 56.0145 62.6594 55.5536 62.4357 55.0411C62.212 54.5287 62.0965 53.9758 62.0965 53.4169C62.0965 52.8579 62.212 52.305 62.4357 51.7926C62.6594 51.2802 62.9866 50.8192 63.3968 50.4385L68.5973 45.2505C68.7993 44.9596 68.8908 44.6064 68.8555 44.2543C68.8202 43.9022 68.6604 43.5742 68.4047 43.3289Z" fill="#323A45"/>
<path d="M61.4729 42.7526L59.5468 40.8311C59.1652 40.4219 58.7031 40.0955 58.1895 39.8723C57.6758 39.6491 57.1215 39.5339 56.5613 39.5339C56.001 39.5339 55.4468 39.6491 54.9331 39.8723C54.4194 40.0955 53.9574 40.4219 53.5758 40.8311C52.8314 41.6452 52.4187 42.7074 52.4187 43.8094C52.4187 44.9114 52.8314 45.9736 53.5758 46.7878C53.9574 47.197 54.4194 47.5234 54.9331 47.7465C55.4468 47.9697 56.001 48.0849 56.5613 48.0849C57.1215 48.0849 57.6758 47.9697 58.1895 47.7465C58.7031 47.5234 59.1652 47.197 59.5468 46.7878L61.4729 44.8662C61.7505 44.5842 61.9061 44.2047 61.9061 43.8094C61.9061 43.4141 61.7505 43.0346 61.4729 42.7526Z" fill="#323A45"/>
</svg>
