<svg width="132" height="88" viewBox="0 0 132 88" fill="none" xmlns="http://www.w3.org/2000/svg">
<path fill-rule="evenodd" clip-rule="evenodd" d="M48.1276 17.8478C45.7977 17.8478 43.9088 19.7366 43.9088 22.0666C43.9088 25.1902 42.3313 28.1024 39.715 29.8086L33.6112 33.7894C32.7487 34.3519 32.2287 35.3119 32.2287 36.3416V65.0763C32.2287 67.881 34.5023 70.1547 37.307 70.1547H44.199L48.6901 64.9151C50.8126 62.4388 53.9112 61.0137 57.1727 61.0137H75.2312C78.8393 61.0137 82.2253 62.7561 84.3225 65.6922L87.51 70.1547H94.6922C97.4968 70.1547 99.7705 67.881 99.7705 65.0763V36.0843C99.7705 35.1407 99.3333 34.2502 98.5865 33.6732L92.0035 28.5863C89.8558 26.9268 88.5982 24.3657 88.5982 21.6515C88.5982 19.5508 86.8952 17.8478 84.7945 17.8478H48.1276ZM39.8462 22.0666C39.8462 17.4929 43.5539 13.7852 48.1276 13.7852H84.7945C89.139 13.7852 92.6608 17.307 92.6608 21.6515C92.6608 23.1075 93.3354 24.4813 94.4875 25.3716L101.071 30.4585C102.813 31.8049 103.833 33.8825 103.833 36.0843V65.0763C103.833 70.1248 99.7407 74.2173 94.6922 74.2173H37.307C32.2586 74.2173 28.166 70.1248 28.166 65.0763V36.3416C28.166 33.939 29.3795 31.6989 31.3919 30.3864L37.4957 26.4057C38.962 25.4494 39.8462 23.8172 39.8462 22.0666ZM80.4728 42.7317C80.4728 50.5848 74.1066 56.951 66.2535 56.951C58.4004 56.951 52.0342 50.5848 52.0342 42.7317C52.0342 34.8785 58.4004 28.5123 66.2535 28.5123C74.1066 28.5123 80.4728 34.8785 80.4728 42.7317Z" fill="#FFCE34"/>
</svg>
