<svg width="132" height="88" viewBox="0 0 132 88" fill="none" xmlns="http://www.w3.org/2000/svg">
<path fill-rule="evenodd" clip-rule="evenodd" d="M49.6996 55.0881C49.6996 56.3765 49.7486 56.6694 49.9639 56.6694C50.1486 56.6694 50.2283 56.4839 50.2283 56.0544C50.2283 55.4411 50.2304 55.4395 51.0359 55.4395C52.076 55.4395 52.0151 55.0234 50.9635 54.9463C50.3162 54.8987 50.2283 54.8409 50.2283 54.4631C50.2283 54.0715 50.2979 54.0339 51.0213 54.0339C51.6087 54.0339 51.8143 53.9656 51.8143 53.7704C51.8143 53.5653 51.5794 53.5068 50.757 53.5068H49.6996V55.0881ZM52.2843 53.624C52.2197 53.6883 52.1668 54.3999 52.1668 55.2053C52.1668 56.5522 52.195 56.6694 52.5193 56.6694C52.7935 56.6694 52.8717 56.5522 52.8717 56.1423C52.8717 55.4532 53.2365 55.4583 53.8249 56.1553C54.0755 56.4522 54.4074 56.6697 54.5623 56.6385C54.8043 56.5896 54.7909 56.5144 54.4675 56.1056L54.0911 55.6294L54.467 55.2547C54.7172 55.0052 54.8087 54.7532 54.7408 54.5009C54.6848 54.2924 54.6377 54.0752 54.6365 54.0183C54.628 53.6558 52.5942 53.3149 52.2843 53.624ZM55.1627 56.6694H56.3082C57.2089 56.6694 57.4537 56.613 57.4537 56.4058C57.4537 56.2068 57.2383 56.1423 56.5725 56.1423C55.8089 56.1423 55.6914 56.0954 55.6914 55.7909C55.6914 55.4929 55.8089 55.4395 56.4656 55.4395C56.9911 55.4395 57.2724 55.3548 57.3413 55.1759C57.423 54.9635 57.2729 54.9124 56.5671 54.9124C55.7504 54.9124 55.6914 54.8827 55.6914 54.4732C55.6914 54.0632 55.7501 54.0339 56.5725 54.0339C57.2383 54.0339 57.4537 53.9694 57.4537 53.7704C57.4537 53.5632 57.2089 53.5068 56.3082 53.5068H55.1627V56.6694ZM57.9769 53.5507C57.9741 53.5748 57.9542 54.2866 57.9329 55.1322L57.8943 56.6697L58.9957 56.6696C59.8571 56.6694 60.0971 56.6119 60.0971 56.4058C60.0971 56.2106 59.8915 56.1423 59.3041 56.1423C58.6286 56.1423 58.5111 56.0903 58.5111 55.7909C58.5111 55.4915 58.6286 55.4395 59.3041 55.4395C59.8915 55.4395 60.0971 55.3711 60.0971 55.1759C60.0971 54.9807 59.8915 54.9124 59.3041 54.9124C58.5757 54.9124 58.5111 54.8766 58.5111 54.4732C58.5111 54.0697 58.5757 54.0339 59.3041 54.0339C59.8915 54.0339 60.0971 53.9656 60.0971 53.7704C60.0971 53.5653 59.8622 53.5068 59.0398 53.5068C58.4582 53.5068 57.9799 53.5267 57.9769 53.5507ZM61.507 55.0881C61.507 56.3765 61.556 56.6694 61.7713 56.6694C61.9357 56.6694 62.0357 56.5035 62.0357 56.2301C62.0357 55.851 62.1146 55.7909 62.6132 55.7909C63.4663 55.7909 63.9742 55.3646 63.9742 54.6488C63.9742 53.8702 63.4571 53.5068 62.3488 53.5068H61.507V55.0881ZM64.5029 55.0881C64.5029 56.3765 64.5519 56.6694 64.7672 56.6694C64.9826 56.6694 65.0316 56.3765 65.0316 55.0881C65.0316 53.7997 64.9826 53.5068 64.7672 53.5068C64.5519 53.5068 64.5029 53.7997 64.5029 55.0881ZM65.9929 53.9381C65.3971 54.532 65.3844 55.7406 65.968 56.2874C66.4379 56.7274 67.6852 56.817 68.0044 56.4336C68.2918 56.0884 68.0932 55.9912 67.3132 56.0956C66.4499 56.211 66.0889 55.9371 66.0889 55.167C66.0889 54.3428 66.5181 53.9731 67.3257 54.1019C68.0854 54.223 68.323 54.0754 67.8925 53.7494C67.3851 53.3652 66.477 53.4553 65.9929 53.9381ZM68.3799 53.7704C68.3799 53.9343 68.5463 54.0339 68.8205 54.0339C69.2512 54.0339 69.2611 54.0632 69.2611 55.3516C69.2611 56.4058 69.3139 56.6694 69.5254 56.6694C69.7369 56.6694 69.7898 56.4058 69.7898 55.3516V54.0339H70.3185C70.6709 54.0339 70.8471 53.9461 70.8471 53.7704C70.8471 53.5613 70.5927 53.5068 69.6135 53.5068C68.6344 53.5068 68.3799 53.5613 68.3799 53.7704ZM71.3758 54.7973C71.3758 56.2937 71.6294 56.6694 72.6401 56.6694C73.5935 56.6694 73.9157 56.1929 73.9241 54.7699C73.9298 53.8392 73.8762 53.5947 73.6668 53.5947C73.4654 53.5947 73.3815 53.8875 73.3144 54.8245L73.2262 56.0544H71.9926L71.9408 54.7806C71.9012 53.8062 71.8287 53.5068 71.6324 53.5068C71.431 53.5068 71.3758 53.7846 71.3758 54.7973ZM74.548 55.0881C74.548 56.3765 74.597 56.6694 74.8123 56.6694C74.9885 56.6694 75.0767 56.4937 75.0767 56.1423C75.0767 55.7505 75.1586 55.6152 75.396 55.6152C75.5717 55.6152 75.8912 55.8524 76.1062 56.1423C76.3304 56.4447 76.6592 56.6694 76.8772 56.6694C77.2381 56.6694 77.2316 56.6425 76.7484 56.1397L76.2392 55.6099L76.6273 55.339C77.1486 54.9751 77.1465 54.1455 76.6234 53.7804C76.4017 53.6254 75.8667 53.5068 75.3898 53.5068H74.548V55.0881ZM77.5439 56.6694H78.6012C79.4237 56.6694 79.6586 56.6109 79.6586 56.4058C79.6586 56.2106 79.453 56.1423 78.8656 56.1423C78.1901 56.1423 78.0726 56.0903 78.0726 55.7909C78.0726 55.4915 78.1901 55.4395 78.8656 55.4395C79.453 55.4395 79.6586 55.3711 79.6586 55.1759C79.6586 54.9807 79.453 54.9124 78.8656 54.9124C78.1372 54.9124 78.0726 54.8766 78.0726 54.4732C78.0726 54.0697 78.1372 54.0339 78.8656 54.0339C79.453 54.0339 79.6586 53.9656 79.6586 53.7704C79.6586 53.5653 79.4237 53.5068 78.6012 53.5068H77.5439V56.6694ZM80.451 53.8589C80.0238 54.3296 80.3242 55.0331 81.0184 55.1874C82.0273 55.4116 82.1449 55.4746 82.0902 55.7619C82.0215 56.1238 81.1476 56.2509 80.786 55.9517C80.58 55.7811 80.48 55.7809 80.3121 55.9508C79.9972 56.269 80.6267 56.6694 81.4421 56.6694C82.1925 56.6694 82.6545 56.3045 82.6545 55.712C82.6545 55.2157 82.353 54.9489 81.6283 54.8043C80.863 54.6518 80.5867 54.291 81.047 54.0453C81.3028 53.9088 81.5256 53.9134 81.8521 54.0617C82.3845 54.3034 82.6212 54.1537 82.3056 53.7746C81.9759 53.3785 80.8402 53.4302 80.451 53.8589ZM52.8717 54.561C52.8717 55.0245 52.9329 55.0881 53.3789 55.0881C54.0334 55.0881 54.4164 54.6712 54.1053 54.2975C53.9846 54.1525 53.6577 54.0339 53.3789 54.0339C52.9329 54.0339 52.8717 54.0975 52.8717 54.561ZM62.0357 54.6488C62.0357 55.1821 62.0922 55.2638 62.4618 55.2638C63.1011 55.2638 63.4455 55.0851 63.4455 54.753C63.4455 54.3145 63.0879 54.0339 62.5291 54.0339C62.0827 54.0339 62.0357 54.0924 62.0357 54.6488ZM75.0767 54.5715C75.0767 55.0853 75.1061 55.1069 75.7361 55.0547C76.8671 54.9612 76.7096 54.043 75.5613 54.0365C75.1376 54.0343 75.0767 54.1015 75.0767 54.5715Z" fill="#DF5719"/>
<path fill-rule="evenodd" clip-rule="evenodd" d="M83.3122 40.5121C81.5101 40.8132 80.1808 41.8263 79.4138 43.483C78.8649 44.6688 78.8906 47.0971 79.4657 48.3743C80.2811 50.185 82.0182 51.2236 84.2279 51.2216C86.5961 51.2197 88.0345 50.4052 88.9949 48.5219C89.5479 47.4376 89.611 47.1684 89.6131 45.8832C89.6152 44.6131 89.5493 44.3177 89.027 43.2593C87.9795 41.1372 85.8106 40.0946 83.3122 40.5121ZM31.9004 42.4377H33.4865V49.29H31.9004V51.047H36.8348V49.29H35.425V40.6808H31.9004V42.4377ZM41.0643 51.047H42.9958L43.091 43.6102L44.6818 45.7781C45.5568 46.9706 46.3606 47.9754 46.4681 48.0111C46.5756 48.0468 47.4061 47.0954 48.3137 45.8969L49.9639 43.7177L50.0591 51.047H52.1478L52.1575 40.6808L49.7877 40.6895L46.5678 45.0917L43.3285 40.6808H41.0643V51.047ZM53.9291 51.047H55.8676V40.6808H53.9291V51.047ZM57.8062 51.047H65.2078V49.29H59.7447V40.6808H57.8062V51.047ZM66.5295 51.047H73.843V49.29H68.5562V40.6808H66.5295V51.047ZM75.2529 51.047H77.1914V40.6808H75.2529V51.047ZM91.2898 51.047H93.2283V47.6105C93.2283 45.4433 93.2912 44.2128 93.3987 44.2789C93.4923 44.3367 94.7307 45.8832 96.1506 47.7154C98.6005 50.8773 98.7625 51.047 99.3285 51.047H99.925V40.6808H97.9944L97.8984 46.9495L92.9682 40.6808H91.2898V51.047ZM82.5664 42.6602C81.6266 43.1834 80.8922 44.5887 80.8922 45.8639C80.8922 47.1978 81.6241 48.5391 82.6381 49.0639C83.9697 49.7528 85.5824 49.5717 86.5913 48.6199C87.4101 47.8477 87.6563 47.2124 87.6621 45.8581C87.6688 44.2594 87.0987 43.1848 85.9497 42.6303C84.9092 42.1282 83.4999 42.1406 82.5664 42.6602ZM86.4435 53.3343C85.3309 53.4492 85.1954 53.5396 84.9341 54.3438C84.2351 56.4935 82.3572 59.2968 80.1988 61.4132C77.6616 63.9008 74.8682 65.5107 71.441 66.4606C69.8273 66.9079 69.4599 66.9429 66.3533 66.9453C64.1583 66.9469 62.671 66.8671 62.0357 66.7137C56.7821 65.4448 52.6095 62.8937 49.879 59.2808C48.7323 57.7636 47.6555 55.7766 47.1548 54.2535L46.8515 53.3311H40.1765L40.2896 53.8143C40.6909 55.5263 41.6283 57.7072 43.1771 60.5325C43.5737 61.2558 43.8162 61.875 43.7159 61.9084C43.4038 62.012 41.0587 61.4175 40.3416 61.0529C39.2751 60.5103 38.7578 59.2311 38.0774 55.4527C37.8786 54.3486 37.716 53.4196 37.716 53.3882C37.716 53.3567 36.4397 53.3311 34.8797 53.3311H32.0435L32.1607 54.2535C32.5798 57.5537 33.3027 60.5007 34.1115 62.2053C35.8014 65.7665 38.8847 67.1895 46.8424 68.0809C48.6147 68.2794 50.3197 68.5507 50.6313 68.6837C50.9427 68.8167 51.9421 69.3672 52.852 69.9069C56.9269 72.3243 61.1214 73.4242 66.2652 73.4242C69.6146 73.4242 71.5556 73.1336 74.3065 72.2203C76.0026 71.6572 79.2626 70.1335 81.1696 69.0124C81.8883 68.59 82.3366 68.4727 83.6293 68.3692C86.2919 68.1557 90.3991 67.3953 92.3472 66.755C97.0527 65.2084 98.7533 62.7361 99.7451 56.0003C99.94 54.6771 100.1 53.5353 100.1 53.4629C100.101 53.3905 98.8359 53.3311 97.2895 53.3311H94.478L94.3856 53.9021C94.3349 54.2161 94.2092 55.0703 94.1065 55.8002C93.5515 59.7423 92.6307 61.0197 89.8775 61.6666C88.2835 62.041 88.259 62.0373 88.5128 61.4572C88.6291 61.1915 89.1789 60.1438 89.7349 59.1292C90.594 57.5612 92.1417 53.5945 91.9635 53.4172C91.8567 53.3111 87.3273 53.2429 86.4435 53.3343Z" fill="#444444"/>
<path d="M56.593 15.611C56.8089 15.1606 57.1295 14.8043 57.4199 14.6917C57.6809 14.5907 58.362 14.5462 58.9335 14.5926C59.505 14.6392 63.3761 14.6773 67.5357 14.6773H75.0987L75.6082 15.7972C76.1847 17.0649 77.5749 21.0025 77.4459 21.0025C77.3994 21.0025 75.9156 20.6906 74.1483 20.3097C70.2991 19.4795 68.534 19.2444 66.1817 19.2484C63.528 19.253 61.4512 19.5222 58.0705 20.2997C56.3897 20.6862 54.9322 21.0025 54.8316 21.0025C54.6393 21.0025 55.9893 16.8704 56.593 15.611Z" fill="#444444"/>
<path d="M37.6707 25.5487C37.8297 24.9429 39.0069 23.8839 39.8528 23.5859C40.2768 23.4366 41.1627 23.308 41.8213 23.3004C42.8758 23.2881 43.072 23.3394 43.4625 23.7288C44.0194 24.284 43.9147 24.747 43.0575 25.5195C42.1972 26.2952 40.9477 26.6807 39.5765 26.5937C38.2435 26.509 37.5225 26.1137 37.6707 25.5487Z" fill="#444444"/>
<path d="M52.6074 23.989C54.8089 22.4917 59.0514 20.9898 62.4763 20.4952C64.2121 20.2445 68.3308 20.2789 70.0594 20.5585C71.9245 20.86 74.2775 21.5165 76.1341 22.2536C77.3046 22.7182 78.004 23.0852 81.0075 24.81C81.5121 25.0998 82.2242 25.2856 83.2985 25.4078C89.589 26.1232 91.8747 26.5856 94.0302 27.5785C97.0948 28.9903 98.6019 31.4597 99.4974 36.5367C99.6327 37.3049 99.7141 37.9627 99.6782 37.9987C99.642 38.0345 98.3709 38.0795 96.8534 38.0985C94.2191 38.1315 94.0912 38.1171 94.0295 37.7817C93.4123 34.4267 92.7982 33.1571 91.4645 32.4789C90.8378 32.1604 88.3076 31.6136 88.1931 31.7719C88.1788 31.7918 88.6233 32.6211 89.1805 33.6148C89.7379 34.6086 90.4349 36.0119 90.7297 36.7335L91.2657 38.0453H84.2752L84.0915 37.5203C83.4504 35.6867 79.7543 31.5488 77.3677 29.9924C71.3484 26.0677 63.356 25.5179 57.1894 28.6044C54.0877 30.1569 50.9119 33.0238 48.9073 36.0811C48.1768 37.1952 47.5522 37.9574 47.2877 38.0577C46.7886 38.2468 44.3614 38.2716 42.4127 38.1073C41.42 38.0237 41.0644 37.9281 41.0644 37.7446C41.0644 37.3237 41.779 35.7642 42.8815 33.7798C43.4598 32.7385 43.9015 31.8547 43.8625 31.8159C43.8238 31.7772 43.2762 31.8533 42.6458 31.9849C39.8715 32.5647 39.2539 33.1932 38.5198 36.1841C38.0108 38.257 38.0188 38.2528 34.8963 38.1076C33.5878 38.0467 32.4934 37.9776 32.4643 37.9539C32.3766 37.882 32.7925 35.5881 33.1617 34.1082C33.9038 31.1329 35.0985 29.2672 36.7927 28.4377C37.7257 27.981 37.9432 27.9457 39.5964 27.9837C41.7383 28.0327 42.4338 27.8287 43.9459 26.7086C45.2188 25.7657 45.6345 25.6432 48.3016 25.4255C50.4292 25.2519 51.0597 25.0414 52.6074 23.989Z" fill="#DF5719"/>
</svg>
