<svg width="132" height="88" viewBox="0 0 132 88" fill="none" xmlns="http://www.w3.org/2000/svg">
<path d="M32.0066 19.9928C33.9167 20.2987 35.7888 20.8214 37.582 21.5422C37.6409 19.8822 38.3896 18.2526 39.621 17.1336C40.8514 16.015 42.5376 15.4234 44.1939 15.5239C46.6728 15.6829 49.0886 17.7276 49.0796 20.2156C49.0754 21.5933 48.3918 22.8649 47.7263 24.0617C47.2593 24.9043 46.7916 25.7548 46.2429 26.5449C43.866 29.953 40.1238 32.1142 37.1082 34.975C35.9437 36.0786 34.8943 37.2845 33.8378 38.4816C33.351 39.0313 32.8732 39.5895 32.3874 40.139C32.2165 40.3359 32.0466 40.5325 31.9496 40.7729C31.8617 40.9962 31.8567 41.247 31.8517 41.4887C31.8047 42.9907 31.7657 44.4843 31.7188 45.9863C33.7258 46.002 35.7418 46.0185 37.7489 46.0342C40.2387 46.0518 42.9394 45.9731 45.4064 46.324L54.8647 46.5168C54.8859 46.7261 55.2445 43.4189 55.2877 41.3157C54.9558 41.643 44.17 41.1804 39.3551 41.1741C41.5851 39.6918 43.2983 36.9633 45.5271 35.4893C46.4987 34.8408 48.1569 33.1466 48.9825 32.3117C49.6881 31.5914 51.0827 30.6344 51.6324 29.7858C52.9307 27.8 53.1567 28.1718 54.274 26.0824C54.9406 24.827 55.5753 23.5375 55.8784 22.1496C56.8068 17.8933 54.1181 13.288 50.1479 11.5204C47.6633 10.4178 44.8586 10.294 42.1428 10.2971C41.2182 10.2948 40.2847 10.3093 39.3881 10.5414C37.3701 11.06 35.8058 12.6056 34.3425 14.0957C33.5609 14.881 32.7773 15.6919 32.2415 16.6662C31.7048 17.6404 31.6368 18.9415 32.0066 19.9928Z" fill="#A06CD5"/>
<path d="M79.8479 16.6752C79.3573 14.5739 78.7435 12.3388 77.3133 10.7146C76.034 9.25949 74.4967 8.12833 72.9023 7.74751C71.2132 7.347 69.3482 7.86534 67.6558 8.411C66.0237 8.93454 64.5434 9.92199 63.239 11.0912C61.9287 12.2694 60.6142 13.5559 59.9605 15.1416C59.3508 16.6287 58.9191 18.2439 58.756 19.8442C58.5921 21.4294 58.7142 23.0832 58.7681 24.6752C58.83 26.4828 58.8071 28.3624 59.1069 30.1441C59.4088 31.9404 60.1813 33.6539 60.9332 35.3152C61.6757 36.9619 62.983 38.2508 64.2794 39.5098C65.5999 40.7817 66.8492 42.3178 68.6175 42.7949C70.8232 43.3865 73.1943 42.5323 75.2392 41.536C77.2924 40.5388 79.2853 39.1454 80.192 37.0507C80.9485 35.2907 80.8465 33.2623 80.9504 31.3428C81.0384 29.7044 81.5213 28.0525 81.4473 26.4168C81.3813 24.7797 80.8517 23.1635 80.6237 21.537C80.4037 19.917 80.2208 18.2778 79.8479 16.6752ZM76.3697 28.8681C76.3079 29.9843 76.1167 31.0524 75.6731 32.0796C74.6265 34.5155 71.9059 35.6411 69.3402 34.9583C67.3019 34.4179 65.5958 33.1037 64.7293 31.1762C63.8636 29.2561 63.5228 27.1067 63.4499 24.9978C63.3818 23.1357 63.7266 21.2905 64.4345 19.5747C65.191 17.7374 66.8204 16.4155 68.7214 15.7999C70.6305 15.1834 72.5365 15.312 74.0647 17.0494C74.8913 17.9886 75.0814 19.2085 75.3652 20.4331C75.691 21.8239 76.2067 23.1701 76.3337 24.591C76.4616 26.0114 76.4426 27.4409 76.3697 28.8681Z" fill="#A06CD5"/>
<path d="M53.2491 56.8106C55.0402 56.6929 56.8423 56.7792 58.6135 57.0614C58.3248 55.5467 58.6655 53.917 59.5491 52.6498C60.4316 51.3835 61.836 50.4996 63.3554 50.2485C65.6313 49.8803 68.2418 51.2317 68.7448 53.4856C69.0267 54.7332 68.6697 56.0255 68.3158 57.2462C68.0691 58.1047 67.8191 58.9713 67.4853 59.7998C66.0369 63.3754 63.0985 66.1045 60.9593 69.317C60.1348 70.5554 59.4341 71.8638 58.7244 73.1662C58.3977 73.7638 58.0809 74.3677 57.7539 74.9653C57.6411 75.1781 57.527 75.3921 57.4891 75.6288C57.4561 75.8499 57.5031 76.0776 57.549 76.2976C57.816 77.6669 58.0897 79.0265 58.3567 80.3957C60.1769 79.995 62.0048 79.593 63.824 79.1934C66.0839 78.6945 68.5108 78.0659 70.8167 77.8739L79.4148 76.0947C79.4797 76.2798 79.1189 73.2121 78.7229 71.3001C78.4922 71.6639 68.6359 73.4739 64.275 74.4626C65.9849 72.6605 66.9746 69.8368 68.6879 68.0424C69.4315 67.2548 70.5848 65.3788 71.1546 64.4534C71.6474 63.6553 72.7119 62.5014 73.0356 61.6195C73.7982 59.5543 74.0801 59.8441 74.657 57.7225C75.0019 56.4484 75.3107 55.1501 75.3016 53.831C75.2606 49.7876 71.8773 46.1747 67.9162 45.3953C65.4382 44.9108 62.8785 45.3777 60.4186 45.9418C59.5821 46.1304 58.7406 46.3364 57.9769 46.7316C56.2576 47.6176 55.1612 49.3399 54.1448 50.9908C53.5989 51.8631 53.0583 52.7585 52.7734 53.7512C52.4896 54.744 52.6964 55.9353 53.2491 56.8106Z" fill="#E75A7C"/>
<path d="M100.28 48.5103C100.263 46.3515 100.159 44.0368 99.1199 42.1371C98.1943 40.4368 96.9411 38.9939 95.4718 38.2723C93.9114 37.5089 91.9793 37.604 90.2052 37.763C88.5011 37.9145 86.8357 38.5509 85.3094 39.405C83.7672 40.2647 82.2019 41.2299 81.2166 42.633C80.2978 43.9502 79.5163 45.4297 79.0075 46.9554C78.4988 48.4652 78.2529 50.1058 77.9529 51.6697C77.6191 53.4476 77.1824 55.2761 77.0784 57.079C76.9805 58.8987 77.3542 60.7395 77.7211 62.5256C78.083 64.2953 79.0766 65.8408 80.0641 67.3549C81.0706 68.8861 81.95 70.6593 83.5723 71.5148C85.5943 72.5774 88.0963 72.2667 90.3081 71.7447C92.529 71.2242 94.7821 70.3046 96.1274 68.4615C97.253 66.9111 97.5986 64.9091 98.1225 63.0597C98.5702 61.4809 99.4048 59.9764 99.6927 58.3641C99.9886 56.7528 99.8267 55.0597 99.9655 53.4234C100.107 51.7946 100.29 50.1553 100.28 48.5103ZM94.2013 59.6376C93.8955 60.7126 93.4725 61.7127 92.812 62.6156C91.2588 64.7622 88.354 65.2608 86.0033 64.0293C84.1341 63.0539 82.7566 61.3954 82.3389 59.3246C81.914 57.2602 82.057 55.0896 82.4489 53.0153C82.7948 51.1855 83.5354 49.4604 84.6049 47.9432C85.7464 46.3174 87.6274 45.3868 89.6176 45.2053C91.6176 45.0246 93.4486 45.57 94.5552 47.6008C95.1539 48.6995 95.0739 49.9312 95.0788 51.1879C95.089 52.616 95.2958 54.0433 95.1068 55.4568C94.9168 56.8708 94.5841 58.2604 94.2013 59.6376Z" fill="#E75A7C"/>
</svg>
