<svg width="132" height="88" viewBox="0 0 132 88" fill="none" xmlns="http://www.w3.org/2000/svg">
<rect x="31.0312" y="9.03125" width="69.9375" height="69.9375" fill="#02343F"/>
<path d="M48.2969 29.4354C48.2969 26.2223 49.7027 23.5848 52.5136 21.5228C55.3252 19.4607 59.5419 18.4297 65.1644 18.4297C70.7867 18.4297 75.1009 19.4607 78.1057 21.5228C81.1594 23.5848 82.6858 26.6778 82.6858 30.802C82.6858 32.1447 82.5652 33.3675 82.3222 34.4704C82.08 35.5254 81.5231 36.6525 80.6502 37.8513C79.826 39.0023 79.002 40.0332 78.178 40.9444C77.403 41.8556 76.0455 43.0544 74.1071 44.5408C71.1989 46.8427 68.1449 49.1446 64.9463 51.4463C61.7476 53.7003 59.8813 55.0189 59.3478 55.4025L54.9132 58.5675H72.3623C75.7067 58.5675 78.0814 57.8482 79.4872 56.4096C80.893 54.9711 81.8861 52.7172 82.4679 49.648H83.7039L82.9772 69.5732H48.8055V61.2287L56.1491 54.5394C61.1415 50.0318 64.6798 46.0275 66.764 42.5268C68.8483 38.9782 69.8904 35.0939 69.8904 30.8739C69.8904 26.6059 69.4292 23.7047 68.5086 22.1701C67.588 20.5876 66.0367 19.7964 63.8559 19.7964C61.6744 19.7964 60.1477 20.3479 59.2755 21.4508C58.4032 22.5538 57.9663 23.6088 57.9663 24.6158C57.9663 25.6229 58.1118 26.51 58.4032 27.2773H60.584C60.9717 28.2844 61.1658 29.5073 61.1658 30.9459C61.1658 32.3366 60.5597 33.5594 59.3478 34.6144C58.1361 35.6213 56.5371 36.1249 54.5495 36.1249C52.5619 36.1249 51.0112 35.5016 49.8965 34.2547C48.8304 32.9599 48.2969 31.3535 48.2969 29.4354Z" fill="#F0EDCC"/>
</svg>
