<svg width="132" height="88" viewBox="0 0 132 88" fill="none" xmlns="http://www.w3.org/2000/svg">
<path d="M84.2468 4.08373C84.3788 3.8889 84.5548 3.68521 84.6516 3.62322C84.81 3.53466 84.8804 3.55237 85.1532 3.79148C85.3292 3.94203 85.7252 4.28742 86.0244 4.5531C86.3324 4.82764 87.0276 5.44756 87.5644 5.93464C88.11 6.43058 88.8668 7.08592 89.254 7.39588C89.6324 7.7147 90.2484 8.27263 91.2604 9.29993L91.1988 9.87557C91.1724 10.1944 91.0844 10.6726 91.0052 10.9383C90.9348 11.204 90.8204 11.8062 90.75 12.2667C90.6708 12.7892 90.5652 13.1789 90.4684 13.3029C90.3804 13.4091 89.958 13.8962 89.518 14.3921C89.078 14.8881 88.4532 15.6231 88.1276 16.0217C87.7932 16.4113 87.2828 17.0224 86.9836 17.3678C86.6844 17.7132 86.3412 18.0674 86.218 18.156C85.998 18.3154 85.9892 18.3154 85.5316 18.0585C85.2676 17.9168 84.7924 17.598 84.4756 17.3412C84.15 17.0932 83.534 16.6593 83.094 16.3847C82.654 16.1102 82.0644 15.7117 81.774 15.4903C81.4836 15.2777 81.0172 14.9501 80.7268 14.7641C80.4452 14.587 80.1724 14.401 80.1108 14.3479C80.058 14.2947 79.8732 14.1619 79.706 14.0379C79.5388 13.9139 79.2924 13.7634 79.1516 13.7014C78.9932 13.6305 78.8964 13.5065 78.87 13.3294C78.8348 13.1169 78.914 12.922 79.2308 12.4172C79.4596 12.0719 79.706 11.6822 79.794 11.5582C79.8732 11.4342 79.9788 11.2394 80.014 11.1154C80.058 10.9914 80.234 10.6726 80.41 10.4069C80.586 10.1412 80.9204 9.58332 81.1492 9.16709C81.378 8.75085 81.598 8.35233 81.642 8.28149C81.686 8.21064 81.9676 7.75012 82.2668 7.26304C82.566 6.77596 82.9972 6.09405 83.2172 5.75752C83.4372 5.41213 83.6396 5.11988 83.6748 5.09332C83.71 5.06675 83.798 4.90734 83.8772 4.73907C83.9564 4.57081 84.1236 4.26971 84.2468 4.08373Z" fill="#8773D6"/>
<path d="M88.0836 37.0104C87.7932 37.0459 87.6436 37.0281 87.67 36.975C87.7052 36.9307 87.9252 36.8864 88.1716 36.8864C88.418 36.8864 88.6028 36.9042 88.5852 36.9219C88.5676 36.9396 88.3388 36.975 88.0836 37.0104Z" fill="#8773D6"/>
<path d="M83.666 37.8075C83.2524 37.8517 83.2084 37.8429 83.3756 37.7543C83.4812 37.6923 83.7804 37.6392 84.0356 37.6303C84.3084 37.6303 84.4316 37.6481 84.326 37.6835C84.2292 37.7189 83.93 37.772 83.666 37.8075Z" fill="#8773D6"/>
<path d="M42.2708 25.7365C42.5084 25.6126 42.8428 25.4886 43.01 25.4531C43.1772 25.4089 43.8108 25.4 44.418 25.4177C45.0868 25.4354 45.826 25.524 46.31 25.6303C46.7412 25.7277 47.4804 25.9225 47.938 26.0642C48.3956 26.2059 49.0468 26.4362 49.39 26.5601C49.7332 26.693 50.1644 26.8524 50.358 26.9232C50.5516 26.9852 51.3788 27.3572 52.206 27.7557C53.0332 28.1454 53.8428 28.5439 54.01 28.6413C54.1772 28.7299 54.6964 29.0044 55.154 29.2435C55.6116 29.4826 56.5092 29.9786 57.134 30.3328C57.7588 30.6959 58.4012 31.0767 58.5596 31.1741C58.7092 31.2715 59.0612 31.4929 59.3428 31.6612C59.6156 31.8295 60.6452 32.5025 61.6132 33.1579C62.59 33.8132 63.4876 34.4243 63.6196 34.5306C63.7516 34.628 63.9892 34.8051 64.1476 34.9202C64.306 35.0265 64.8692 35.4427 65.406 35.8324C65.9428 36.2221 66.8668 36.9217 67.4652 37.3999C68.0636 37.8693 68.9524 38.5955 69.4452 38.994C69.9292 39.4014 70.8444 40.1807 71.478 40.7209C72.1028 41.27 73.3876 42.4479 74.3204 43.3512C75.262 44.2545 76.4324 45.4323 76.9252 45.9725C77.4092 46.5128 78.034 47.2124 78.3068 47.5224C78.5796 47.8323 78.9316 48.2486 79.0988 48.4434C79.266 48.6382 79.442 48.8419 79.486 48.895C79.53 48.957 79.6444 49.081 79.7324 49.1873C79.8116 49.2847 80.146 49.7541 80.4804 50.2234C80.806 50.6928 81.1228 51.1622 81.1932 51.2596C81.2636 51.3659 81.422 51.6138 81.554 51.8087C81.686 52.0035 81.8796 52.34 81.994 52.5614C82.0996 52.7828 82.2932 53.1636 82.4076 53.4028C82.5308 53.6507 82.7244 54.1024 82.8388 54.4212C82.9444 54.74 83.0852 55.2802 83.138 55.6168C83.1908 55.9621 83.2084 56.4138 83.182 56.6352C83.1468 56.8566 83.0236 57.2374 82.9004 57.4765C82.7508 57.7865 82.5308 58.0345 82.1876 58.2824C81.906 58.4861 81.1932 58.8935 80.586 59.2035C79.9788 59.5046 79.1516 59.9296 78.738 60.1333C78.3244 60.3459 75.9924 61.5326 73.546 62.7724C71.0996 64.0123 67.4388 65.872 65.406 66.9082C63.3732 67.9444 61.2348 69.0336 60.654 69.317C60.0732 69.6093 59.3604 69.9635 59.07 70.1141C58.7796 70.2646 56.3244 71.5133 53.614 72.886C50.9036 74.2587 45.7732 76.8535 42.218 78.6601C38.6628 80.4668 35.6356 81.9989 35.486 82.0786C35.3364 82.1583 34.9404 82.362 34.606 82.5214C34.2716 82.6896 33.418 83.1236 32.714 83.4867C32.01 83.8586 31.2444 84.2217 30.998 84.3103C30.7604 84.3988 30.4876 84.4431 30.4084 84.4166C30.3116 84.3811 30.25 84.266 30.25 84.1332C30.25 84.0092 30.2852 83.7435 30.3292 83.5398C30.382 83.3273 30.4964 82.7428 30.602 82.2291C30.6988 81.7155 30.8396 80.9981 30.91 80.635C30.9892 80.2719 31.1036 79.652 31.174 79.2624C31.2532 78.8727 31.3676 78.359 31.438 78.1111C31.4996 77.872 31.6052 77.3672 31.658 77.0041C31.7196 76.641 31.8604 75.8971 31.9836 75.3657C32.1068 74.8343 32.274 74.0107 32.362 73.5502C32.45 73.0897 32.626 72.2307 32.758 71.6462C32.8812 71.0617 33.0836 70.0432 33.2068 69.3879C33.33 68.7325 33.5236 67.7938 33.638 67.3067C33.7524 66.8196 33.9108 66.1023 33.9988 65.7126C34.078 65.323 34.2188 64.6499 34.298 64.2071C34.386 63.7643 34.5884 62.7547 34.7644 61.9488C34.9316 61.1429 35.1164 60.2485 35.178 59.9562C35.2308 59.664 35.3364 59.1857 35.398 58.8935C35.4596 58.6012 35.6356 57.7688 35.794 57.0337C35.9436 56.3075 36.0844 55.6876 36.102 55.661C36.1196 55.6345 36.1988 55.2802 36.2692 54.864C36.3484 54.4478 36.4452 53.9518 36.4892 53.757C36.542 53.5622 36.6388 53.0839 36.7092 52.6943C36.7884 52.3046 36.9292 51.6493 37.026 51.233C37.114 50.8168 37.2636 50.1437 37.3428 49.7275C37.4132 49.3113 37.5716 48.5762 37.686 48.0891C37.7916 47.6021 37.9588 46.8493 38.038 46.4065C38.126 45.9637 38.3284 44.9718 38.4956 44.1925C38.6628 43.4132 38.8652 42.5187 38.9356 42.1999C38.9972 41.8811 39.1556 41.146 39.27 40.5615C39.3932 39.977 39.5516 39.18 39.6308 38.7903C39.7012 38.4007 39.8068 37.9224 39.8508 37.7276C39.8948 37.5328 40.0356 36.8774 40.1588 36.2663C40.2732 35.6553 40.5108 34.4597 40.678 33.6095C40.8452 32.7594 41.0476 31.8029 41.1268 31.4841C41.2324 31.0501 41.2588 30.7136 41.2236 30.1114C41.1884 29.6775 41.1268 29.1727 41.074 29.0044C41.03 28.8361 40.986 28.3845 40.986 28.0125C40.986 27.5166 41.0388 27.2066 41.162 26.9232C41.2588 26.7018 41.4524 26.3919 41.5932 26.2413C41.734 26.0819 42.0332 25.8517 42.2708 25.7365Z" fill="#B395A2"/>
<path d="M86.218 30.687C86.6316 30.6339 87.0892 30.5808 87.23 30.5631C87.3708 30.5542 87.8284 30.5276 88.242 30.5276C88.902 30.5099 89.0516 30.5365 89.518 30.7668C89.8084 30.8996 90.134 31.1121 90.2308 31.2273C90.3364 31.3424 90.53 31.6435 90.6532 31.8826C90.8292 32.228 90.8996 32.5025 90.9348 33.1225C90.97 33.583 90.9524 34.132 90.8908 34.4332C90.838 34.7077 90.6796 35.1062 90.5388 35.3188C90.398 35.5224 90.0988 35.8767 89.8788 36.1158C89.6588 36.3461 89.3068 36.594 89.1044 36.6737C88.8932 36.7534 88.506 36.842 88.242 36.8597C87.978 36.8863 87.714 36.9305 87.67 36.966C87.626 37.0103 87.406 37.09 87.186 37.152C86.966 37.2139 86.7284 37.2405 86.658 37.2139C86.5876 37.1874 86.4732 37.2139 86.4116 37.2671C86.35 37.3291 86.306 37.3379 86.306 37.2848C86.306 37.2405 86.2004 37.2051 86.086 37.2228C85.9628 37.2317 85.866 37.2671 85.866 37.3114C85.866 37.3468 85.5404 37.4265 85.1444 37.4973C84.7396 37.5682 84.2204 37.6302 83.974 37.639C83.7364 37.639 83.4724 37.6833 83.402 37.7276C83.3316 37.7719 83.0324 37.8427 82.742 37.8781C82.4516 37.9136 82.038 37.9844 81.818 38.0287C81.598 38.0641 81.1844 38.1704 80.894 38.2501C80.6036 38.3298 80.102 38.3918 79.7764 38.3918C79.2836 38.3918 79.09 38.3475 78.6764 38.1261C78.3948 37.9756 78.034 37.7099 77.8756 37.5239C77.7172 37.3468 77.4444 36.9217 77.286 36.5763C77.1188 36.2398 76.934 35.7173 76.8812 35.425C76.8284 35.1328 76.802 34.6191 76.8284 34.2737C76.8636 33.9372 76.9076 33.5475 76.934 33.4147C76.9604 33.273 77.0836 32.9542 77.2156 32.7062C77.3388 32.4494 77.5236 32.1572 77.6116 32.0597C77.6996 31.9623 77.77 31.856 77.77 31.8206C77.77 31.7763 77.9108 31.6701 78.078 31.5727C78.2452 31.4752 78.5972 31.3424 78.8436 31.2715C79.0988 31.2007 79.9612 31.121 80.762 31.0944C81.5628 31.059 82.9444 30.9793 83.842 30.9085C84.7396 30.8376 85.8044 30.7402 86.218 30.687Z" fill="#B395A2"/>
<path d="M42.5789 34.3624C42.6669 34.1676 42.8429 33.9019 42.9661 33.769V33.7602C43.0893 33.6273 43.2565 33.5211 43.3445 33.5211C43.4237 33.5211 43.6085 33.5919 43.7581 33.6805C43.9077 33.769 44.1981 34.0701 44.4181 34.3535C44.6381 34.6369 44.9021 34.9735 45.0165 35.0974C45.1309 35.2303 45.5357 35.7174 45.9053 36.1779C46.2837 36.6384 46.8821 37.338 47.2429 37.7277C47.5949 38.1174 49.1877 39.7557 50.7805 41.3587C52.7957 43.3867 53.6933 44.3609 53.7285 44.538C53.7637 44.6797 53.8165 44.8037 53.8517 44.8214C53.8957 44.8391 53.8957 45.1048 53.8605 45.4059C53.8165 45.8132 53.7373 46.0612 53.5525 46.318C53.4117 46.5129 52.7781 47.1416 52.1357 47.7261C51.4933 48.3018 50.4989 49.1785 49.9181 49.6656C49.3373 50.1527 48.8357 50.5955 48.8093 50.6486C48.7741 50.7018 48.2637 51.1888 47.6653 51.7202C47.0669 52.2516 46.3277 52.9335 46.0197 53.2257C45.6237 53.6065 45.0693 54.3416 44.1101 55.794C43.3709 56.9098 42.6141 58.1054 42.4293 58.4508C42.2445 58.7962 41.7781 59.5312 41.3909 60.0892C41.0037 60.6471 40.4669 61.3733 40.2029 61.701C39.8773 62.0906 39.5693 62.3652 39.2877 62.498C39.0589 62.6131 38.8477 62.7725 38.8301 62.8522C38.8037 62.9408 38.6541 63.0559 38.5045 63.1002C38.3461 63.1533 38.1085 63.171 37.9765 63.1445C37.8005 63.1179 37.7037 63.1445 37.6421 63.2508C37.5629 63.4013 37.5453 63.3924 37.2021 63.0116L37.1141 63.3659C37.0613 63.5607 36.9997 63.7201 36.9645 63.7201C36.9205 63.7201 36.9205 63.4544 36.9557 63.1268C36.9997 62.7902 37.0437 62.126 37.0701 61.639C37.0965 61.1519 37.1317 60.5939 37.1581 60.3991C37.1757 60.2043 37.2197 59.8678 37.2549 59.6464C37.2813 59.4249 37.3165 59.2301 37.3341 59.2035C37.3517 59.177 37.4309 58.8582 37.5101 58.4951C37.5893 58.132 37.7125 57.4766 37.7829 57.0338C37.8533 56.591 37.9501 55.98 37.9941 55.6611C38.0381 55.3423 38.1173 54.811 38.1613 54.4656C38.2053 54.1202 38.2317 53.8191 38.2053 53.7748C38.1877 53.7394 38.2317 53.5357 38.3021 53.3143C38.3725 53.0929 38.4693 52.7032 38.5221 52.4464C38.5661 52.1984 38.6805 51.6316 38.7685 51.1888C38.8653 50.746 38.9621 50.3298 38.9885 50.259C39.0237 50.1881 39.1029 49.8073 39.1733 49.4176C39.2437 49.028 39.4285 48.1335 39.5781 47.425C39.7365 46.7166 39.8949 45.9815 39.9301 45.7867C39.9741 45.5918 40.1237 44.8922 40.2733 44.2369C40.4229 43.5815 40.6693 42.4657 40.8101 41.7572C40.9509 41.0487 41.1269 40.2517 41.2061 39.986C41.2765 39.7203 41.4349 39.0827 41.5493 38.569C41.6725 38.0554 41.7957 37.4797 41.8221 37.2849C41.8573 37.0901 42.0069 36.4347 42.1477 35.8236C42.2973 35.2126 42.4909 34.5572 42.5789 34.3624Z" fill="#B23825"/>
<path fill-rule="evenodd" clip-rule="evenodd" d="M42.3588 31.5993C42.3764 31.679 42.4292 31.7499 42.482 31.7499C42.5348 31.7499 42.5876 31.741 42.6052 31.7233C42.6316 31.7145 42.7548 31.865 42.8868 32.0598C43.0188 32.2547 43.2212 32.5558 43.5644 33.034L43.2916 32.7683C43.142 32.6266 42.9572 32.4495 42.878 32.3875C42.8076 32.3344 42.7284 32.2812 42.702 32.2812C42.6756 32.2812 42.658 32.361 42.658 32.4584C42.658 32.5558 42.5172 32.9366 42.35 33.2997C42.1828 33.6628 42.042 34.0436 42.042 34.141C42.042 34.2384 41.9804 34.5484 41.9012 34.8229C41.822 35.1063 41.7428 35.4606 41.7164 35.6023C41.6988 35.744 41.5404 36.4879 41.3644 37.2406C41.1884 37.9934 40.9948 38.8524 40.9244 39.1447C40.8628 39.4369 40.7484 39.9328 40.678 40.2517C40.6076 40.5705 40.4492 41.2435 40.326 41.7572C40.2028 42.2708 39.9828 43.2096 39.842 43.8384C39.6924 44.4671 39.4372 45.5476 39.2612 46.2295C39.0852 46.9114 38.8124 48.045 38.654 48.7534C38.4956 49.4619 38.258 50.4361 38.1348 50.9232C38.0116 51.4103 37.7036 52.6412 37.4484 53.6508C37.1932 54.6693 36.9732 55.4663 36.9556 55.422C36.938 55.3866 37.026 54.9527 37.1492 54.4656C37.2724 53.9785 37.4484 53.2435 37.5452 52.8272C37.642 52.411 37.818 51.6317 37.95 51.1003C38.0732 50.5689 38.214 49.9224 38.2668 49.6833C38.3284 49.4354 38.4428 49.0014 38.5308 48.7092C38.6276 48.4169 38.698 48.0981 38.698 48.0007C38.698 47.9033 38.8564 47.1859 39.05 46.4066C39.2436 45.6273 39.5428 44.352 39.71 43.5727C39.8772 42.7933 40.0708 41.9343 40.1412 41.6686C40.2204 41.403 40.3788 40.7033 40.502 40.1188C40.634 39.5343 40.7748 38.9321 40.8188 38.7904C40.8716 38.6487 40.986 38.1439 41.074 37.6834C41.1708 37.2229 41.3292 36.4613 41.426 36.0008C41.5228 35.5403 41.7076 34.6812 41.8308 34.0967C41.9628 33.5122 42.1124 32.7152 42.1828 32.3255C42.2444 31.9359 42.306 31.5728 42.3148 31.5285C42.3236 31.4753 42.3412 31.5108 42.3588 31.5905V31.5993ZM59.1228 48.4966C59.1668 48.4966 59.2196 48.5409 59.246 48.5852C59.2724 48.6295 59.3252 48.656 59.378 48.6295C59.4308 48.6029 59.466 48.6649 59.466 48.7623C59.466 48.8597 59.4924 48.9306 59.5364 48.9306C59.5716 48.9217 59.6596 48.9217 59.73 48.9217C59.8004 48.9306 59.9852 49.0988 60.126 49.2937C60.2668 49.4885 60.4604 49.6568 60.5484 49.6479C60.6276 49.6479 60.7332 49.7276 60.786 49.825C60.8388 49.9224 60.8476 50.0022 60.8124 50.0022C60.7684 50.0022 60.8388 50.073 60.962 50.1527C61.0852 50.2413 61.2084 50.3033 61.2524 50.2855C61.2876 50.2767 61.4284 50.4184 61.5692 50.5955C61.7012 50.7815 61.974 51.0383 62.1588 51.1623C62.3524 51.2863 62.6692 51.4988 62.8804 51.6228C63.0828 51.7556 63.2324 51.9062 63.206 51.9505C63.1796 51.9948 63.1092 52.0125 63.0564 51.9859C62.9948 51.9593 63.03 52.0213 63.1444 52.1187C63.25 52.225 63.382 52.2782 63.4524 52.2427C63.5228 52.1955 63.5374 52.2103 63.4964 52.287C63.4436 52.3667 63.3468 52.3667 62.766 52.2162L63.1444 52.6147L62.9156 52.5793C62.722 52.5438 62.6868 52.5615 62.7484 52.6855C62.7836 52.7741 62.7484 52.9689 62.678 53.146C62.6076 53.3143 62.5108 53.456 62.458 53.456C62.4052 53.456 62.37 53.5268 62.37 53.6066C62.37 53.6951 62.238 53.9874 62.0884 54.253C61.93 54.5187 61.6484 54.9792 61.4548 55.2715C61.2612 55.5637 61.006 55.8825 60.8916 55.98C60.7684 56.0774 60.5836 56.3165 60.4692 56.5113C60.3636 56.7062 60.1172 57.0073 59.9324 57.1755C59.7476 57.3526 59.5364 57.5298 59.4572 57.5741C59.378 57.6272 59.1404 57.9549 58.9292 58.3091C58.718 58.6633 58.4628 58.9822 58.366 59.0176C58.2604 59.053 57.8116 59.4781 57.3628 59.9652C56.9052 60.4523 56.298 61.1253 56.0076 61.4707C55.7172 61.8072 55.022 62.5866 54.4588 63.1888C53.8956 63.7998 53.2444 64.4463 52.998 64.6412C52.7604 64.8271 52.162 65.3496 51.678 65.8013C51.194 66.2441 50.3404 67.05 49.786 67.5814C49.2228 68.1127 48.2372 69.0426 47.586 69.6448C46.9348 70.247 46.31 70.7872 46.2044 70.8404C46.0988 70.9024 45.562 71.3717 45.0164 71.8854C44.4708 72.399 43.5644 73.2138 43.0012 73.7009C42.438 74.1791 41.4172 75.0558 40.722 75.6403C40.0356 76.2248 39.4284 76.7651 39.3668 76.8359C39.314 76.9156 38.9092 77.3141 38.478 77.7215C38.0468 78.1289 37.686 78.492 37.686 78.5186C37.686 78.5451 37.598 78.6868 37.2988 79.0942L37.4924 79.2979C37.642 79.4573 37.7564 79.4927 38.038 79.4573C38.2316 79.4396 38.522 79.3776 38.6804 79.3244C38.83 79.2713 38.962 79.1828 38.962 79.1385C38.962 79.0942 39.0412 79.0499 39.138 79.0499C39.2348 79.0499 39.842 78.7754 40.4844 78.4477C41.118 78.12 41.866 77.7569 42.13 77.6418C42.394 77.5267 42.8516 77.2787 43.142 77.0927C43.4324 76.8979 43.7228 76.7385 43.7844 76.7473C43.8372 76.7473 43.9604 76.6765 44.0484 76.5879C44.1276 76.5082 44.5148 76.278 44.902 76.092C45.2892 75.8972 45.7028 75.6758 45.826 75.5961C45.9492 75.5075 46.4068 75.2595 46.838 75.0381C47.2692 74.8167 47.6564 74.6485 47.7004 74.6662C47.7356 74.6927 47.762 74.6573 47.762 74.5953C47.762 74.5422 47.7884 74.5245 47.8236 74.5599C47.8588 74.6042 47.8148 74.6927 47.718 74.7636C47.6212 74.8256 47.5596 74.9053 47.586 74.9319C47.6124 74.9584 47.7444 74.9319 47.8764 74.8699C48.0084 74.8079 48.114 74.7282 48.114 74.6839C48.114 74.6485 48.1404 74.6308 48.1844 74.6308C48.2196 74.6396 48.3164 74.6396 48.4044 74.6308C48.5012 74.6219 48.5452 74.5688 48.5276 74.4625C48.51 74.3828 48.4308 74.3031 48.3516 74.2854C48.2636 74.2765 48.202 74.3297 48.202 74.4005C48.202 74.4713 48.1668 74.5333 48.114 74.5333C48.0612 74.5333 48.026 74.4713 48.026 74.4005C48.026 74.3297 48.114 74.2411 48.2284 74.2145C48.334 74.1791 48.5276 74.0817 48.6684 73.9931C48.862 73.8514 48.8972 73.8514 48.8444 73.9666C48.8004 74.0551 48.8268 74.1348 48.906 74.1791C48.9764 74.2234 49.0732 74.2234 49.126 74.188C49.1788 74.1437 49.346 74.0905 49.5044 74.0551C49.654 74.0285 49.786 73.9754 49.786 73.9311C49.786 73.8957 49.9004 73.8426 50.05 73.7983C50.1908 73.7629 50.314 73.6832 50.314 73.6212C50.314 73.568 50.4812 73.4618 50.6836 73.3998C50.8948 73.3378 51.0796 73.3112 51.106 73.3378C51.1324 73.3643 51.0708 73.4618 50.974 73.5592C50.8772 73.6566 50.3668 73.9488 49.83 74.2234C49.2932 74.4891 48.8356 74.7105 48.8004 74.7105C48.7564 74.7105 48.598 74.799 48.4484 74.9053C48.2812 75.0293 48.1932 75.0558 48.246 74.9761C48.29 74.9053 48.1756 74.9673 47.982 75.1178C47.7884 75.2684 47.4716 75.4455 47.278 75.5252C47.0844 75.5961 46.75 75.7643 46.53 75.906C46.31 76.0477 45.738 76.3577 45.254 76.5968C44.77 76.8359 44.2948 77.075 44.198 77.1282C44.1012 77.1813 43.9076 77.2787 43.758 77.3407C43.6172 77.4115 43.4324 77.5001 43.362 77.5444C43.2916 77.5887 42.4732 78.0049 41.558 78.4831C40.6428 78.9525 39.7892 79.4042 39.666 79.4839C39.5428 79.5724 39.1468 79.785 38.786 79.9709C38.4252 80.1569 38.0292 80.3517 37.906 80.4137C37.7828 80.4757 37.5716 80.5909 37.422 80.6706C37.2812 80.7414 36.8412 80.9717 36.454 81.1665C36.0668 81.3702 35.6884 81.5739 35.618 81.6182C35.5476 81.6624 35.0724 81.9193 34.562 82.1938C34.0516 82.4683 33.5764 82.7252 33.506 82.7694C33.4356 82.8137 33.1364 82.9554 32.846 83.0883C32.4148 83.2742 32.2212 83.3185 31.7724 83.2919C31.482 83.2742 31.2092 83.2388 31.1828 83.2122C31.1564 83.1857 31.0948 83.0086 31.042 82.8137C30.998 82.6189 30.9628 82.3001 30.9628 82.1052C30.9716 81.8041 30.9804 81.7864 31.1036 82.1938L31.2092 81.9724C31.262 81.8484 31.4644 81.4942 31.658 81.1754C31.8428 80.8565 32.0804 80.458 32.1684 80.2898C32.2652 80.1215 32.406 79.9178 32.4852 79.847C32.5644 79.7761 32.6348 79.661 32.626 79.599C32.626 79.5459 32.6876 79.475 32.758 79.4484C32.8284 79.4219 32.9692 79.2359 33.0572 79.0233C33.1452 78.8197 33.286 78.5894 33.3652 78.5186C33.4444 78.4477 33.5148 78.368 33.506 78.3414C33.506 78.3149 33.6732 78.0315 33.8756 77.7038C34.0868 77.385 34.386 76.8802 34.5532 76.5968C34.7204 76.3134 35.0548 75.7289 35.31 75.2861C35.5564 74.8433 36.058 74.0728 36.4276 73.5592C36.7972 73.0455 37.2724 72.3282 37.4836 71.9651C37.7036 71.602 38.2668 70.6987 38.742 69.9725C39.2084 69.2374 39.7892 68.343 40.0268 67.9799C40.2644 67.6168 40.5284 67.2183 40.6076 67.0943C40.6956 66.9703 41.2236 66.1998 41.7956 65.3674C42.3588 64.5349 42.9924 63.6316 43.2036 63.3482C43.406 63.0648 43.7316 62.6308 43.9164 62.374C44.1012 62.126 44.4356 61.6921 44.6732 61.4264C44.902 61.1607 45.1836 60.7622 45.298 60.5408C45.4124 60.3194 45.6764 59.8678 45.8964 59.5224C46.1164 59.177 46.5036 58.6811 46.7588 58.4154C47.0052 58.1497 47.2868 57.7689 47.366 57.5741C47.4452 57.3792 47.7268 56.9896 47.9908 56.7062C48.2548 56.4316 48.466 56.1748 48.466 56.1305C48.466 56.0951 48.7476 55.8294 49.0908 55.5372C49.434 55.2449 49.918 54.8198 50.1644 54.5984C50.4196 54.377 50.9828 54.0051 51.414 53.7748C52.0564 53.4294 52.3732 53.1903 53.086 52.4553C53.702 51.8265 54.318 51.3217 55.11 50.7815C55.7436 50.3564 56.6148 49.8516 57.046 49.6568C57.6444 49.3999 57.8468 49.3468 57.8644 49.4354C57.882 49.5328 57.9084 49.5416 58.014 49.4442C58.0932 49.3911 58.1548 49.2848 58.146 49.2228C58.146 49.1697 58.1812 49.1343 58.234 49.1608C58.2868 49.1874 58.3396 49.1343 58.366 49.0457C58.41 48.904 58.4276 48.9129 58.542 49.0723C58.674 49.2405 58.674 49.2317 58.63 48.9129C58.6036 48.7269 58.6212 48.5852 58.674 48.5852C58.7268 48.5852 58.762 48.6826 58.762 48.8066C58.762 48.9306 58.7884 49.028 58.8148 49.028C58.8412 49.028 58.9116 48.9749 58.9732 48.9129C59.0348 48.8597 59.0788 48.7357 59.0612 48.6472C59.0524 48.5675 59.0788 48.4966 59.1228 48.4966ZM36.7444 56.3785C36.762 56.4493 36.7268 56.6884 36.674 56.9098C36.6212 57.1312 36.5596 57.2907 36.542 57.2641C36.5156 57.2375 36.5508 56.9984 36.6036 56.7327C36.6652 56.467 36.7268 56.3076 36.7444 56.3785ZM52.5932 72.6559C52.6196 72.6736 52.5492 72.771 52.426 72.8596C52.3028 72.957 52.1532 73.019 52.1004 72.9924C52.0388 72.957 51.986 72.9924 51.986 73.0455C51.986 73.1075 51.9684 73.1429 51.942 73.1164C51.9156 73.0898 51.9156 73.0012 51.942 72.9127C51.9684 72.833 52.1092 72.7267 52.2676 72.6913C52.4172 72.647 52.5668 72.6293 52.5932 72.6559Z" fill="#C75246"/>
<path d="M49.3636 39.7645C48.5716 38.9851 47.8324 38.2324 47.7268 38.0818C47.63 37.9401 48.0524 38.3386 48.686 38.9763C49.3108 39.605 50.1468 40.4198 50.534 40.7829C50.9212 41.146 51.5284 41.7039 51.8892 42.0227C52.2412 42.3416 52.5756 42.6427 52.6372 42.6869C52.69 42.7401 53.13 43.1209 53.614 43.5283C54.098 43.9356 54.6348 44.4139 54.802 44.591C54.9692 44.7593 55.286 45.0426 55.506 45.2109C55.726 45.3792 55.9196 45.5386 55.946 45.574C55.9724 45.6006 56.7996 46.2825 57.794 47.0972C58.7884 47.9031 59.6948 48.6559 59.818 48.7533C59.9412 48.8507 60.0644 48.9304 60.0996 48.9304C60.1436 48.9304 60.17 48.9836 60.17 49.0456C60.17 49.0987 60.2844 49.2581 60.4164 49.3998C60.5836 49.5681 60.61 49.6389 60.522 49.6478C60.4516 49.6478 60.2668 49.4795 60.126 49.2847C59.9764 49.0899 59.8004 48.9216 59.73 48.9127C59.6596 48.9127 59.5716 48.9127 59.5276 48.9216C59.4924 48.9216 59.466 48.8507 59.466 48.7533C59.466 48.6559 59.422 48.5939 59.378 48.6205C59.3252 48.647 59.2724 48.6205 59.246 48.5762C59.2196 48.5319 59.158 48.4876 59.114 48.4876C59.0612 48.4876 59.0436 48.5585 59.0524 48.6382C59.07 48.7268 59.0348 48.8507 58.9732 48.9039C58.9116 48.9659 58.8412 49.019 58.8148 49.019C58.7884 49.019 58.762 48.9216 58.762 48.7976C58.762 48.6736 58.718 48.5762 58.674 48.5762C58.6212 48.5762 58.6036 48.7179 58.63 48.9039C58.674 49.2227 58.674 49.2315 58.542 49.0633C58.4276 48.9039 58.41 48.895 58.366 49.0367C58.3396 49.1253 58.278 49.1784 58.234 49.1518C58.1812 49.1253 58.146 49.1607 58.146 49.2138C58.1548 49.2758 58.0932 49.391 58.014 49.4618C57.8908 49.5769 57.8732 49.5769 57.882 49.4352C57.882 49.3024 57.8116 49.3112 56.606 49.816L56.9844 49.4795C57.3364 49.1784 57.3628 49.1253 57.3188 48.7976L57.3168 48.783C57.2902 48.5867 57.2473 48.2699 57.2044 48.0626C57.1604 47.8146 57.0636 47.6375 56.9316 47.5489C56.826 47.4781 56.738 47.3541 56.738 47.2744C56.738 47.1858 56.6588 47.0618 56.562 47.0087C56.4564 46.9378 56.4124 46.8493 56.4476 46.7873C56.4945 46.7105 56.4798 46.6958 56.4036 46.743C56.3332 46.7784 56.2188 46.6633 56.0516 46.3888C55.9196 46.1496 55.726 45.8308 55.638 45.6803C55.5412 45.5209 55.4092 45.388 55.3476 45.388C55.2948 45.388 55.242 45.3615 55.242 45.326C55.242 45.2818 55.066 45.0781 54.8636 44.8567C54.6524 44.6353 54.3268 44.3165 54.1332 44.1482C53.9484 43.9799 53.5348 43.6168 53.218 43.3511C52.9012 43.0855 52.5844 42.8109 52.5052 42.7312C52.426 42.6604 52.0212 42.2796 51.59 41.8899C51.1588 41.5002 50.1644 40.5438 49.3636 39.7645Z" fill="#D24C3B"/>
<path d="M63.4436 52.2249C63.382 52.2692 63.2588 52.2249 63.1532 52.1452L62.9772 51.9858L63.1796 51.9681C63.294 51.9503 63.47 51.9592 63.5756 51.9858C63.69 52.0123 63.778 52.092 63.778 52.1629C63.778 52.2426 63.8748 52.3046 63.998 52.3134C64.1124 52.3312 64.2268 52.3046 64.2356 52.2692C64.2532 52.2337 64.4028 52.2515 64.57 52.3134C64.7372 52.3666 64.9308 52.4729 65.0012 52.5348C65.0716 52.5968 65.186 52.65 65.2652 52.65C65.3444 52.65 65.6612 52.774 65.978 52.9245C66.2948 53.0751 66.6116 53.2345 66.682 53.2699C66.7524 53.3142 67.1308 53.509 67.518 53.7038C67.9052 53.8987 68.3628 54.1201 68.53 54.1909C68.6972 54.2706 69.3132 54.5806 69.894 54.8905C70.4748 55.1917 71.1436 55.5636 71.39 55.6964C71.6276 55.8381 71.9796 56.033 72.1556 56.1215C72.3404 56.2101 72.534 56.2809 72.578 56.2809C72.622 56.2809 72.666 56.3075 72.666 56.3429C72.666 56.3872 73.0004 56.5909 73.414 56.8123C74.1444 57.202 74.1708 57.2197 74.2852 57.6536C74.3556 57.8927 74.4084 58.2293 74.3996 58.3887C74.3878 58.5835 74.3086 58.737 74.162 58.8492C74.0388 58.9377 73.4668 59.292 72.886 59.6285C72.3052 59.965 71.3108 60.5495 70.6684 60.9392C70.0348 61.32 69.0844 61.8779 68.5564 62.1791C68.0372 62.4802 66.7964 63.1886 65.802 63.7643C64.8076 64.3399 63.6636 65.0218 63.25 65.2698C62.8364 65.5266 61.4284 66.3502 60.126 67.103C58.8148 67.8558 57.5212 68.6262 57.2308 68.8211L57.2294 68.822C56.9483 69.0076 56.6675 69.1931 56.6148 69.2285C56.562 69.2639 55.9812 69.6004 55.33 69.9724C54.6788 70.3443 53.5876 70.9819 52.91 71.3982C52.2324 71.8056 51.2996 72.3812 50.842 72.6734C50.3844 72.9568 49.9532 73.196 49.8916 73.196C49.8388 73.196 49.7772 73.2314 49.7596 73.2668C49.7508 73.3111 49.5572 73.4705 49.3196 73.621C49.0908 73.7804 48.906 73.8867 48.906 73.8602C48.906 73.8336 48.8004 73.8867 48.6596 73.9841C48.5276 74.0727 48.334 74.1701 48.2196 74.2055C48.114 74.2321 48.026 74.303 48.026 74.3472C48.026 74.3915 47.5772 74.6572 47.0316 74.9317C46.4948 75.2063 45.9492 75.4985 45.826 75.5782C45.7028 75.6668 45.2892 75.8882 44.902 76.083C44.5148 76.269 44.1276 76.4993 44.0396 76.579C43.9604 76.6675 43.8372 76.7384 43.7756 76.7384C43.7228 76.7295 43.4324 76.8889 43.142 77.0837C42.8516 77.2697 42.394 77.5177 42.13 77.6328C41.866 77.7479 41.118 78.111 40.4756 78.4387C39.842 78.7664 39.2348 79.0409 39.138 79.0409C39.0412 79.0409 38.962 79.0852 38.962 79.1295C38.962 79.1738 38.83 79.2623 38.6716 79.3155C38.522 79.3686 38.2316 79.4306 38.038 79.4483C37.7564 79.4837 37.642 79.4483 37.2988 79.0852L37.4924 78.8195C37.598 78.6778 37.686 78.5361 37.686 78.5096C37.686 78.483 38.038 78.1199 38.478 77.7125C38.9092 77.3051 39.314 76.9066 39.3668 76.8269C39.4284 76.7561 40.0356 76.2159 40.722 75.6314C41.4172 75.0469 42.438 74.1701 43.0012 73.6919C43.5644 73.2048 44.4708 72.3901 45.0164 71.8764C45.562 71.3628 46.0988 70.8934 46.2044 70.8314C46.31 70.7783 46.9348 70.238 47.586 69.6358C48.2372 69.0336 49.2228 68.1037 49.786 67.5724C50.3404 67.041 51.194 66.2351 51.678 65.7923C52.162 65.3407 52.7516 64.8181 52.998 64.6322C53.2356 64.4373 53.8956 63.7908 54.4588 63.1798C55.022 62.5776 55.7172 61.8071 56.0076 61.4617C56.298 61.1163 56.9052 60.4433 57.3628 59.9562C57.8116 59.4691 58.2604 59.044 58.366 59.0086C58.4628 58.9732 58.718 58.6544 58.9292 58.3001C59.1404 57.9459 59.378 57.6182 59.4572 57.5651C59.5364 57.5208 59.7476 57.3437 59.9324 57.1665C60.1172 56.9983 60.3636 56.6972 60.4692 56.5023C60.5836 56.3075 60.7684 56.0684 60.8916 55.971C61.006 55.8736 61.2612 55.5547 61.4548 55.2625C61.6484 54.9702 61.93 54.5097 62.0884 54.2441C62.238 53.9784 62.37 53.6861 62.37 53.5976C62.37 53.5179 62.4052 53.447 62.458 53.447C62.502 53.447 62.6076 53.3053 62.678 53.1371C62.7484 52.9599 62.7836 52.7651 62.7396 52.6765C62.6868 52.5526 62.722 52.5348 63.1444 52.6057L62.766 52.2072L63.0916 52.2957C63.3468 52.3666 63.4436 52.3577 63.4876 52.2692C63.5345 52.1983 63.5198 52.1836 63.4436 52.2249Z" fill="#D24C3B"/>
<path fill-rule="evenodd" clip-rule="evenodd" d="M42.702 32.2812C42.7284 32.2812 42.8076 32.3344 42.878 32.3964C42.9572 32.4495 43.098 32.5823 43.1948 32.6798C43.2916 32.7772 43.67 33.2554 44.0396 33.7425C44.5676 34.451 44.6204 34.5395 44.2684 34.1676C44.0396 33.9196 43.758 33.6716 43.6524 33.6185C43.538 33.5654 43.3884 33.5211 43.318 33.5211C43.2476 33.5211 43.0893 33.6273 42.9661 33.769C42.8429 33.9019 42.6669 34.1676 42.5789 34.3624C42.4909 34.5572 42.2973 35.2126 42.1477 35.8236C42.0069 36.4347 41.8573 37.0901 41.8221 37.2849C41.7957 37.4797 41.6725 38.0554 41.5493 38.569C41.4349 39.0827 41.2765 39.7203 41.2061 39.986C41.1269 40.2517 40.9509 41.0487 40.8101 41.7572C40.6693 42.4657 40.4229 43.5815 40.2733 44.2369C40.1237 44.8922 39.9741 45.5918 39.9301 45.7867C39.8949 45.9815 39.7365 46.7166 39.5781 47.425C39.4285 48.1335 39.2437 49.028 39.1733 49.4176C39.1029 49.8073 39.0237 50.1881 38.9885 50.259C38.9621 50.3298 38.8653 50.746 38.7685 51.1888C38.6805 51.6316 38.566 52.1984 38.522 52.4553C38.4692 52.7032 38.3725 53.0929 38.3021 53.3143C38.2317 53.5357 38.1876 53.7394 38.2052 53.7837C38.2316 53.8191 38.2053 54.1202 38.1613 54.4656C38.1173 54.811 38.0381 55.3423 37.9941 55.6611C37.9501 55.98 37.8533 56.591 37.7829 57.0338C37.7125 57.4766 37.5893 58.132 37.5101 58.4951C37.4309 58.8582 37.3517 59.177 37.3341 59.2035C37.3165 59.2301 37.29 59.3895 37.2636 59.5578C37.2372 59.7261 37.1932 60.0714 37.1668 60.3106C37.1404 60.5585 37.0965 61.1519 37.0701 61.639C37.0437 62.126 36.9997 62.7902 36.9557 63.1268C36.9205 63.4544 36.9205 63.7201 36.9645 63.7201C36.9997 63.7201 37.0613 63.5607 37.2021 63.0116L37.378 63.2065C37.5452 63.3925 37.5629 63.4013 37.6421 63.2508C37.7037 63.1445 37.8005 63.1179 37.9765 63.1445C38.1085 63.171 38.3461 63.1533 38.5045 63.1002C38.6541 63.0559 38.8037 62.9408 38.8301 62.8522C38.8477 62.7725 39.0589 62.6131 39.2877 62.498C39.5693 62.3652 39.8773 62.0906 40.2029 61.701C40.4669 61.3733 41.0037 60.6471 41.3909 60.0892C41.7781 59.5312 42.2445 58.7962 42.4293 58.4508C42.6141 58.1054 43.3709 56.9098 44.1101 55.794C45.0693 54.3416 45.6237 53.6065 46.0197 53.2257C46.3277 52.9335 47.0669 52.2516 47.6653 51.7202C48.2637 51.1888 48.7741 50.7018 48.8093 50.6486C48.8357 50.5955 49.3373 50.1527 49.9181 49.6656C50.4989 49.1785 51.4492 48.3461 52.03 47.8236C52.6108 47.3011 53.2708 46.6988 53.5084 46.4863C53.7372 46.2738 53.9572 46.0966 54.01 46.0966C54.0628 46.0966 54.098 46.0435 54.098 45.9815C54.1068 45.9195 54.1508 45.9372 54.2124 46.0258C54.3092 46.1675 54.3356 46.1586 54.758 45.6361L54.8372 45.8487C54.9076 46.0435 54.9076 46.0435 55.0572 45.6981L55.066 45.8752C55.0748 46.0435 55.0748 46.0435 55.1804 45.8575C55.286 45.6627 55.286 45.6627 55.3916 45.831C55.4532 45.9284 55.5412 46.0081 55.594 46.0081C55.6468 46.0081 55.6556 45.9549 55.6204 45.8929C55.5852 45.8309 55.6292 45.8398 55.7172 45.9195C55.8052 45.9904 55.9724 46.2206 56.0868 46.4243C56.2276 46.6811 56.3332 46.7785 56.4036 46.7343C56.4799 46.6929 56.4945 46.7077 56.4476 46.7785C56.4124 46.8494 56.4564 46.938 56.562 46.9999C56.6588 47.0619 56.738 47.1859 56.738 47.2656C56.738 47.3542 56.826 47.4781 56.9316 47.5489C57.0636 47.6375 57.1604 47.8146 57.2044 48.0626C57.2484 48.2751 57.2924 48.6028 57.3188 48.7976C57.3628 49.1341 57.3452 49.1697 56.8964 49.5328C56.6412 49.7365 55.8756 50.2767 55.198 50.7283C54.2828 51.3394 53.746 51.7733 53.086 52.4464C52.3644 53.1815 52.0564 53.4206 51.414 53.7659C50.9828 53.9962 50.4196 54.3682 50.1644 54.5896C49.918 54.811 49.434 55.236 49.0908 55.5283C48.7476 55.8205 48.466 56.0862 48.466 56.1217C48.466 56.1659 48.2548 56.4228 47.9908 56.6973C47.7268 56.9807 47.4452 57.3704 47.366 57.5652C47.2868 57.76 47.0052 58.1408 46.7588 58.4065C46.5036 58.6722 46.1164 59.1681 45.8964 59.5135C45.6764 59.8589 45.4124 60.3106 45.298 60.532C45.1836 60.7534 44.902 61.1519 44.6732 61.4176C44.4356 61.6832 44.1012 62.1172 43.9164 62.3652C43.7316 62.622 43.406 63.0559 43.2036 63.3393C42.9924 63.6227 42.3588 64.526 41.7956 65.3585C41.2236 66.191 40.6956 66.9614 40.6076 67.0854C40.5284 67.2094 40.2644 67.6079 40.0268 67.971C39.7892 68.3341 39.2084 69.2286 38.742 69.9636C38.2668 70.6898 37.7036 71.5931 37.4836 71.9562C37.2724 72.3193 36.7972 73.0367 36.4276 73.5503C36.058 74.064 35.5564 74.8344 35.31 75.2772C35.0548 75.72 34.7204 76.3045 34.5532 76.5879C34.386 76.8713 34.0868 77.3761 33.8756 77.6949C33.6732 78.0226 33.506 78.306 33.506 78.3326C33.5148 78.3591 33.4444 78.4388 33.3652 78.5097C33.286 78.5805 33.1452 78.8108 33.0572 79.0145C32.9692 79.227 32.8284 79.413 32.758 79.4396C32.6876 79.4661 32.626 79.537 32.626 79.5901C32.6348 79.6521 32.5644 79.7672 32.4852 79.8381C32.406 79.9089 32.2652 80.1126 32.1684 80.2809C32.0804 80.4492 31.8428 80.8477 31.658 81.1665C31.4644 81.4853 31.2532 81.8396 31.2004 81.9635C31.0948 82.1761 31.086 82.1584 31.0596 81.7421C31.0508 81.4942 31.0948 81.1665 31.1652 80.9894C31.2356 80.8211 31.3412 80.4049 31.394 80.0595C31.4556 79.7141 31.5436 79.3599 31.5964 79.2624C31.6404 79.165 31.7284 78.7842 31.79 78.4211C31.8516 78.058 32.01 77.2964 32.1332 76.7385C32.2652 76.1805 32.5292 74.9407 32.7228 73.9931C32.9076 73.0455 33.1188 72.0448 33.1892 71.7791C33.2508 71.5134 33.3916 70.8758 33.4972 70.3621C33.6028 69.8485 33.8668 68.6529 34.0868 67.7053C34.3068 66.7577 34.5356 65.757 34.606 65.4913C34.6676 65.2256 34.782 64.7474 34.8612 64.4286C34.9316 64.1098 35.046 63.6316 35.1164 63.3659C35.1868 63.1002 35.31 62.56 35.3892 62.1703C35.4684 61.7807 35.574 61.3201 35.618 61.1519C35.662 60.9836 35.8644 60.1423 36.058 59.2921C36.2604 58.4419 36.498 57.4855 36.586 57.1667C36.6652 56.8478 36.9996 55.5194 37.3252 54.1999C37.6508 52.8803 38.0204 51.4103 38.1348 50.9232C38.258 50.4361 38.4956 49.4619 38.654 48.7534C38.8124 48.045 39.0852 46.9114 39.2612 46.2295C39.4372 45.5476 39.6924 44.4671 39.842 43.8384C39.9828 43.2096 40.2028 42.2708 40.326 41.7572C40.4492 41.2435 40.6076 40.5705 40.678 40.2517C40.7484 39.9328 40.8628 39.4369 40.9244 39.1447C40.9948 38.8524 41.1884 37.9934 41.3644 37.2406C41.5404 36.4879 41.6988 35.744 41.7164 35.6023C41.7428 35.4606 41.822 35.1063 41.9012 34.8229C41.9804 34.5484 42.042 34.2384 42.042 34.141C42.042 34.0436 42.1828 33.6628 42.35 33.2997C42.5172 32.9366 42.658 32.5558 42.658 32.4584C42.658 32.361 42.6756 32.2812 42.702 32.2812ZM46.31 36.6207C46.354 36.6207 46.7324 37.0103 47.1372 37.4797C47.6652 38.1085 47.7268 38.1971 47.3572 37.8162C47.0756 37.5151 46.6972 37.1343 46.53 36.9484C46.3628 36.7624 46.2572 36.6207 46.31 36.6207Z" fill="#BA4739"/>
<path d="M42.9836 32.1927C42.8956 32.0687 42.834 31.9181 42.834 31.865V31.8561C42.834 31.803 42.8692 31.7499 42.922 31.7499C42.9748 31.7499 43.01 31.7764 43.01 31.8119C43.01 31.8561 43.1332 32.0244 43.2828 32.1927C43.4236 32.3609 43.6084 32.6266 43.6876 32.7683C43.7668 32.91 43.8988 33.1314 43.978 33.2554C44.0572 33.3794 44.242 33.6539 44.3828 33.8665C44.5236 34.0879 44.7436 34.3801 44.8668 34.5307C44.9988 34.6812 45.3508 35.1063 45.65 35.4694C45.9492 35.8325 46.5916 36.5675 47.0844 37.0989C47.5772 37.6391 48.378 38.4716 48.862 38.9587C49.346 39.4546 50.0852 40.172 50.4988 40.5616C50.9124 40.9513 51.4228 41.4295 51.6428 41.6243C51.854 41.8192 52.2852 42.2 52.602 42.4657C52.91 42.7313 53.2708 43.0324 53.3852 43.1299L53.4043 43.1462C53.5175 43.2425 53.6706 43.3728 53.7372 43.4398C53.8164 43.5107 54.1772 43.8118 54.538 44.104C54.8988 44.3874 55.2508 44.6797 55.3036 44.7417C55.3652 44.8036 55.4532 44.8568 55.506 44.8568C55.5588 44.8568 55.682 44.9365 55.7876 45.0339C55.902 45.1402 56.0516 45.273 56.122 45.335C56.1924 45.397 56.4828 45.6273 56.7732 45.8398C57.0548 46.0524 57.354 46.2738 57.4332 46.318C57.5036 46.3623 57.618 46.4774 57.6796 46.5571C57.7412 46.6457 57.8292 46.7166 57.882 46.7166C57.9348 46.7166 58.1196 46.814 58.2956 46.938C58.4804 47.0531 58.6916 47.2125 58.762 47.2745C58.8324 47.3453 58.9908 47.4516 59.114 47.5136C59.2372 47.5844 59.3956 47.6907 59.466 47.7616C59.5364 47.8324 59.9324 48.1158 60.3372 48.3903C60.742 48.6649 61.1644 48.9483 61.2788 49.0191C61.3844 49.09 61.9476 49.4973 62.5196 49.9136C63.0916 50.3298 63.7956 50.8257 64.086 51.0117C64.3764 51.1977 64.7548 51.4368 64.922 51.5519C65.0892 51.6582 65.4676 51.8973 65.7492 52.0833C66.0396 52.2781 66.3916 52.4995 66.5412 52.5881C66.6908 52.6855 66.9548 52.8626 67.122 52.9866C67.2892 53.1195 67.5092 53.27 67.606 53.3231C67.7028 53.3763 68.2572 53.7128 68.838 54.0671C69.4188 54.4213 70.1932 54.8464 70.554 55.0147C70.9148 55.1918 71.61 55.5194 72.094 55.7497C72.578 55.98 73.2644 56.2811 73.6164 56.4228C73.9684 56.5645 74.25 56.7062 74.25 56.7416C74.25 56.7859 74.3292 56.8124 74.426 56.8124C74.5228 56.8124 74.8308 56.9453 75.1036 57.1047C75.3852 57.2641 75.8516 57.5563 76.1508 57.7512C76.4412 57.9371 76.846 58.2471 77.0484 58.4242C77.2508 58.6102 77.418 58.805 77.418 58.8493C77.418 58.8936 77.462 58.9379 77.506 58.9379C77.55 58.9379 77.6116 58.9999 77.638 59.0707C77.6644 59.1416 77.6116 59.2921 77.5236 59.3984C77.4268 59.5135 77.022 59.7703 76.6172 59.974C76.2124 60.1777 75.702 60.4522 75.482 60.5851C75.262 60.7091 74.91 60.9128 74.69 61.019C74.47 61.1253 74.0916 61.3113 73.854 61.4353C73.6076 61.5504 73.3172 61.7098 73.194 61.7807C73.0708 61.8604 72.4988 62.1969 71.918 62.5246C71.3372 62.8611 70.7036 63.2153 70.51 63.3216C70.3164 63.4279 70.0612 63.5519 69.938 63.5873C69.8148 63.6316 69.4892 63.791 69.2076 63.9592C68.9348 64.1186 68.6532 64.2515 68.5916 64.2515C68.5388 64.2515 68.3892 64.3489 68.266 64.4729C68.1428 64.5969 67.8876 64.7474 67.694 64.7917C67.5004 64.8448 67.2628 64.96 67.166 65.0574C67.0692 65.1459 66.7348 65.3231 66.418 65.447C66.1012 65.571 65.67 65.7924 65.45 65.9341C65.23 66.0758 65.0188 66.1998 64.966 66.1998C64.9132 66.1998 64.5788 66.3769 64.218 66.5895C63.8572 66.802 63.1444 67.1917 62.634 67.4574C62.1236 67.723 61.5692 68.0242 61.402 68.1216C61.2348 68.219 60.7772 68.4669 60.39 68.6795C60.0028 68.892 58.9556 69.4411 58.058 69.8928C57.1604 70.3533 56.3948 70.7607 56.342 70.8049C56.2892 70.8404 55.4356 71.292 54.4236 71.8145C53.4204 72.3282 52.5932 72.7178 52.5756 72.6824C52.5668 72.6381 52.426 72.6381 52.2676 72.6824C52.0652 72.7356 51.9772 72.8153 51.942 72.9747C51.9156 73.0987 51.8628 73.1784 51.81 73.1518C51.7572 73.1252 51.722 73.1341 51.722 73.1695C51.722 73.2138 51.5636 73.3112 51.37 73.3909C51.0444 73.5415 51.018 73.5415 51.0796 73.3998C51.1412 73.2669 51.1148 73.2581 50.93 73.3201C50.8068 73.3555 50.622 73.4086 50.5076 73.4263C50.402 73.444 50.314 73.5237 50.314 73.5946C50.314 73.6654 50.1996 73.754 50.05 73.7894C49.9004 73.8337 49.786 73.8868 49.786 73.9223C49.786 73.9665 49.6452 74.0197 49.4692 74.0551C49.2932 74.0994 49.1348 74.1525 49.1172 74.1879C49.0996 74.2322 49.0204 74.2411 48.95 74.2145C48.8796 74.1879 48.818 74.1171 48.818 74.0551C48.818 74.002 49.3196 73.63 49.9356 73.2492C50.5604 72.8595 51.3172 72.3813 51.634 72.1776C51.9508 71.9739 52.5052 71.6286 52.866 71.4072C53.2268 71.1858 54.1948 70.619 55.022 70.1496C55.8492 69.6802 56.562 69.2639 56.6148 69.2285C56.6676 69.193 56.9492 69.007 57.2308 68.8211C57.5212 68.6262 58.8148 67.8558 60.126 67.103C61.4372 66.3502 62.8364 65.5266 63.25 65.2698C63.6636 65.0218 64.8076 64.3399 65.802 63.7643C66.7964 63.1886 68.0372 62.4802 68.5564 62.1791C69.0844 61.8779 70.0348 61.32 70.6684 60.9392C71.3108 60.5495 72.3052 59.965 72.886 59.6285C73.4668 59.292 74.0388 58.9377 74.162 58.8492C74.3086 58.737 74.3878 58.5835 74.3996 58.3887C74.4084 58.2293 74.3556 57.8927 74.2852 57.6536C74.1708 57.2197 74.1444 57.202 73.414 56.8123C73.0004 56.5909 72.666 56.3872 72.666 56.3429C72.666 56.3075 72.622 56.2809 72.578 56.2809C72.534 56.2809 72.3404 56.2101 72.1556 56.1215C71.9796 56.033 71.6276 55.8381 71.39 55.6964C71.1436 55.5636 70.4748 55.1917 69.894 54.8905C69.3132 54.5806 68.6972 54.2706 68.53 54.1909C68.3628 54.1201 67.9052 53.8987 67.518 53.7038C67.1308 53.509 66.7524 53.3142 66.682 53.2699C66.6116 53.2345 66.2948 53.0751 65.978 52.9245C65.6612 52.774 65.3356 52.6501 65.2476 52.6501C65.1684 52.6501 65.0452 52.597 64.9836 52.535C64.9308 52.473 64.7372 52.3666 64.57 52.3134C64.4028 52.2515 64.2532 52.2337 64.2356 52.2692C64.2268 52.3046 64.1124 52.3312 63.998 52.3134C63.8748 52.3046 63.778 52.2426 63.778 52.1629C63.778 52.092 63.6724 52.0036 63.5316 51.9682C63.3996 51.9416 63.2764 51.8885 63.25 51.8619C63.2236 51.8353 63.1268 51.7556 63.03 51.7025C62.9332 51.6405 62.6956 51.4988 62.502 51.3925C62.3084 51.2951 61.9564 51.0029 61.7188 50.7549C61.4812 50.5069 61.2612 50.3032 61.2348 50.3032C61.2084 50.2944 61.094 50.2413 60.9884 50.1704C60.8828 50.0907 60.83 49.9933 60.8564 49.9224C60.8916 49.8604 60.7684 49.6922 60.5396 49.5062C60.3372 49.3379 60.17 49.1343 60.17 49.0634C60.17 48.9926 60.1436 48.9304 60.0996 48.9304C60.0644 48.9304 59.9412 48.8507 59.818 48.7533C59.6948 48.6559 58.7884 47.9031 57.794 47.0972C56.7996 46.2825 55.9724 45.6006 55.946 45.574C55.9196 45.5386 55.726 45.3792 55.506 45.2109C55.286 45.0426 54.9692 44.7593 54.802 44.591C54.6348 44.4139 54.098 43.9356 53.614 43.5283C53.13 43.1209 52.69 42.7401 52.6372 42.6869C52.5756 42.6427 52.2412 42.3416 51.8892 42.0227C51.5284 41.7039 50.9212 41.146 50.534 40.7829C50.1468 40.4198 49.2756 39.5609 48.598 38.8701C47.9204 38.1793 47.0844 37.3026 46.7412 36.9218C46.398 36.5321 45.782 35.8236 45.3772 35.3366C44.9636 34.8495 44.2948 33.9904 43.8812 33.4325C43.4676 32.8746 43.0628 32.3167 42.9836 32.1927Z" fill="#D2594D"/>
<path d="M48.0876 74.5156C48.1492 74.5245 48.202 74.4713 48.2108 74.3916C48.2108 74.3208 48.2812 74.2677 48.3516 74.2854C48.4308 74.3031 48.51 74.3828 48.5276 74.4713C48.5452 74.5687 48.5012 74.6219 48.3956 74.6307C48.3164 74.6396 48.2196 74.6396 48.1756 74.6307C48.1404 74.6307 48.114 74.6485 48.114 74.6927C48.114 74.7282 48.0084 74.8079 47.8764 74.8699C47.7444 74.9319 47.6212 74.9584 47.6036 74.9318C47.5948 74.9053 47.674 74.799 47.7796 74.6927C47.894 74.5776 48.0348 74.4979 48.0876 74.5156Z" fill="#D2594D"/>
<path d="M51.4405 42.0228C50.2173 40.783 48.9413 39.4634 48.5981 39.1003C48.1874 38.6575 48.3311 38.7756 49.0293 39.4546C49.6101 40.0125 50.2437 40.6324 50.4461 40.8273C50.6485 41.0221 51.1588 41.5002 51.59 41.8899C52.0212 42.2796 52.426 42.6604 52.5052 42.7312C52.5844 42.8109 52.9012 43.0855 53.218 43.3511C53.5348 43.6168 53.9484 43.9799 54.1332 44.1482C54.3268 44.3165 54.6524 44.6353 54.8636 44.8567C55.066 45.0781 55.242 45.2818 55.242 45.326C55.242 45.3615 55.2949 45.3881 55.3565 45.3881C55.4093 45.397 55.5412 45.5209 55.638 45.6803C55.814 45.946 55.8141 45.9638 55.6645 45.9903C55.5765 45.9992 55.4533 45.9283 55.4005 45.8309C55.2861 45.6626 55.286 45.6627 55.1804 45.8575C55.0748 46.0435 55.0748 46.0435 55.0572 45.6981L54.9781 45.8752C54.9077 46.0435 54.9076 46.0435 54.758 45.6361L54.5381 45.9106C54.3357 46.1586 54.3092 46.1675 54.2124 46.0258C54.1508 45.9372 54.1069 45.9195 54.0981 45.9903C54.0981 46.0435 54.0365 46.0966 53.9661 46.0966C53.8957 46.0966 53.7989 46.1674 53.7549 46.256C53.7197 46.3357 53.6053 46.442 53.5173 46.4774C53.3765 46.5394 53.3941 46.504 53.5789 46.256C53.7461 46.0435 53.8253 45.8132 53.8605 45.4147C53.8957 45.1047 53.8957 44.839 53.8605 44.8213C53.8165 44.8036 53.7637 44.6797 53.7285 44.538C53.6933 44.3609 52.9629 43.5549 51.4405 42.0228Z" fill="#D0422E"/>
<path d="M42.5523 26.4007C42.7811 26.259 43.1419 26.1173 43.3619 26.0819C43.5819 26.0465 43.9779 26.011 44.2419 26.011C44.5059 26.0022 45.0075 26.0553 45.3419 26.1173C45.6763 26.1881 46.2923 26.3121 46.7059 26.3918C47.1195 26.4715 47.8851 26.7195 48.4219 26.9232C48.9587 27.1357 49.5659 27.3571 49.7859 27.4103C50.0059 27.4723 50.3755 27.6228 50.6219 27.7645C50.8595 27.8974 51.2379 28.0656 51.4579 28.1276C51.6779 28.1896 51.9771 28.3313 52.1179 28.4376C52.2587 28.5527 52.6195 28.721 52.9099 28.8272C53.2003 28.9247 53.6579 29.1461 53.9219 29.3055C54.1859 29.4649 54.4851 29.6243 54.5819 29.6509C54.6787 29.6863 54.8987 29.8191 55.0659 29.952C55.2419 30.0848 55.9283 30.4656 56.5883 30.7933C57.2483 31.1298 57.7939 31.4221 57.7939 31.4575C57.7939 31.5018 57.8995 31.5903 58.0315 31.6612C58.1723 31.732 58.5507 31.9623 58.8939 32.166C59.2371 32.3785 59.5715 32.5822 59.6419 32.6353C59.7123 32.6796 60.1083 32.9453 60.5219 33.2198C60.9355 33.4944 61.3491 33.7955 61.4459 33.884C61.5427 33.9726 61.6747 34.0523 61.7275 34.0523C61.7891 34.0523 62.2027 34.3091 62.6339 34.6279C63.0651 34.9468 63.4523 35.2036 63.4875 35.2036C63.5315 35.2036 63.7163 35.3453 63.9099 35.5047C64.1035 35.6641 64.3587 35.8501 64.4819 35.9121C64.6051 35.9829 65.0011 36.2752 65.3619 36.5763C65.7227 36.8685 66.1891 37.2316 66.4003 37.3733C66.6027 37.5239 66.7787 37.6656 66.7699 37.701C66.7699 37.7453 66.9371 37.8692 67.1395 37.9844C67.3507 38.1084 67.5971 38.2855 67.6939 38.3918C67.7907 38.498 68.0459 38.7106 68.2659 38.8611C68.4859 39.0028 68.7059 39.1711 68.7499 39.2242C68.7939 39.2774 69.1019 39.543 69.4187 39.8087C69.7355 40.0744 70.1315 40.3932 70.2987 40.5172C70.4571 40.6412 70.8179 40.9423 71.0819 41.1814C71.3459 41.4294 71.7243 41.7659 71.9179 41.9253C72.1115 42.0936 72.9827 42.9083 73.8539 43.7408C74.7163 44.5733 75.6315 45.4766 75.8779 45.7423C76.1155 46.0079 76.5115 46.433 76.7579 46.6898C76.9955 46.9378 77.3123 47.2743 77.4531 47.4426C77.5939 47.602 77.8931 47.9563 78.1131 48.2219C78.3331 48.4876 78.5707 48.7799 78.6499 48.8773C78.7203 48.9658 78.9315 49.2227 79.1163 49.4529C79.3011 49.6743 79.5475 49.9843 79.6619 50.126C79.7763 50.2677 79.9611 50.5156 80.0755 50.6573C80.1899 50.799 80.4715 51.1887 80.7003 51.5164C80.9291 51.8529 81.1139 52.1452 81.1139 52.1806C81.1051 52.2249 81.1843 52.3488 81.2811 52.4728C81.3691 52.5968 81.5627 52.9156 81.7123 53.1813C81.8531 53.447 82.0555 53.8278 82.1611 54.0226C82.2667 54.2175 82.3459 54.4566 82.3459 54.554C82.3459 54.6514 82.4075 54.8551 82.4779 54.9968C82.5571 55.1385 82.6451 55.5193 82.6715 55.8381C82.7067 56.2101 82.6803 56.5377 82.6099 56.768C82.5395 56.9628 82.3899 57.2817 82.2667 57.4853C82.0995 57.751 81.8795 57.937 81.4219 58.1761C81.0787 58.3532 80.6299 58.5569 80.4099 58.6189C80.1899 58.6898 79.8379 58.796 79.6179 58.858C79.3979 58.92 79.2043 58.9732 79.1779 58.982C79.1515 58.9909 79.0107 59.044 78.8699 59.106C78.7027 59.1768 78.4299 59.2034 78.1395 59.168C77.8931 59.1414 77.6203 59.0529 77.5499 58.982C77.4795 58.9112 77.4179 58.8315 77.4179 58.8049C77.4179 58.7783 77.2507 58.6101 77.0483 58.4329C76.8459 58.247 76.4412 57.9371 76.1508 57.7512C75.8516 57.5563 75.3852 57.2641 75.1036 57.1047C74.8308 56.9453 74.5228 56.8124 74.426 56.8124C74.3292 56.8124 74.25 56.7859 74.25 56.7416C74.25 56.7062 73.9684 56.5645 73.6164 56.4228C73.2644 56.2811 72.578 55.98 72.094 55.7497C71.61 55.5194 70.9148 55.1918 70.554 55.0147C70.1932 54.8464 69.4188 54.4213 68.838 54.0671C68.2572 53.7128 67.7028 53.3763 67.606 53.3231C67.5092 53.27 67.2892 53.1195 67.122 52.9866C66.9548 52.8626 66.6908 52.6855 66.5412 52.5881C66.3916 52.4995 66.0396 52.2781 65.7492 52.0833C65.4676 51.8973 65.0892 51.6582 64.922 51.5519C64.7548 51.4368 64.3764 51.1977 64.086 51.0117C63.7956 50.8257 63.0916 50.3298 62.5196 49.9136C61.9476 49.4973 61.3844 49.09 61.2788 49.0191C61.1644 48.9483 60.742 48.6649 60.3372 48.3903C59.9324 48.1158 59.5364 47.8324 59.466 47.7616C59.3956 47.6907 59.2372 47.5844 59.114 47.5136C58.9908 47.4516 58.8324 47.3453 58.762 47.2745C58.6916 47.2125 58.4804 47.0531 58.2956 46.938C58.1196 46.814 57.9348 46.7166 57.882 46.7166C57.8292 46.7166 57.7412 46.6457 57.6796 46.5571C57.618 46.4774 57.5036 46.3623 57.4332 46.318C57.354 46.2738 57.0548 46.0524 56.7732 45.8398C56.4828 45.6273 56.1924 45.397 56.122 45.335C56.0516 45.273 55.902 45.1402 55.7876 45.0339C55.682 44.9365 55.5588 44.8568 55.506 44.8568C55.4532 44.8568 55.3652 44.8036 55.3036 44.7417C55.2508 44.6797 54.8988 44.3874 54.538 44.104C54.1772 43.8118 53.8164 43.5107 53.7372 43.4398C53.6706 43.3728 53.5175 43.2425 53.4043 43.1462L53.3852 43.1299C53.2708 43.0324 52.91 42.7313 52.602 42.4657C52.2852 42.2 51.854 41.8192 51.6428 41.6243C51.4228 41.4295 50.9124 40.9513 50.4988 40.5616C50.0852 40.172 49.346 39.4546 48.862 38.9587C48.378 38.4716 47.5772 37.6391 47.0844 37.0989C46.5916 36.5675 45.9492 35.8325 45.65 35.4694C45.3508 35.1063 44.9988 34.6812 44.8668 34.5307C44.7436 34.3801 44.5236 34.0879 44.3828 33.8665C44.242 33.6539 44.0572 33.3794 43.978 33.2554C43.8988 33.1314 43.7668 32.91 43.6876 32.7683C43.6084 32.6266 43.4411 32.3785 43.3179 32.2368C43.1859 32.0951 42.9659 31.7497 42.8163 31.4841C42.6667 31.2184 42.4203 30.7933 42.2619 30.5542C42.1035 30.3151 41.9275 29.9077 41.8659 29.6686C41.8131 29.4295 41.7163 28.9867 41.6635 28.6944C41.5931 28.2782 41.6019 28.0479 41.6899 27.6317C41.7603 27.3394 41.8835 27.0029 41.9803 26.8789C42.0683 26.7549 42.3323 26.5424 42.5523 26.4007Z" fill="#E57067"/>
<path d="M84.1851 4.58831C84.3347 4.27835 84.5371 3.97725 84.6339 3.9064C84.7923 3.79127 84.8451 3.82669 85.2939 4.30492C85.5579 4.58831 85.9099 5.03997 86.0595 5.29679C86.2179 5.54476 86.5875 6.1204 86.8779 6.55435C87.1683 6.9883 87.4587 7.44881 87.5203 7.57279C87.5819 7.69678 87.7315 7.9536 87.8459 8.14843C87.9691 8.34327 88.1099 8.60009 88.1715 8.72408C88.2331 8.84806 88.4091 9.1226 88.5587 9.344C88.7083 9.5654 88.9899 10.0082 89.1747 10.3447C89.3595 10.6724 89.6235 11.1329 89.7555 11.3632C89.8875 11.5934 90.0723 11.9565 90.1779 12.1779C90.2747 12.3993 90.3539 12.6739 90.3539 12.7978C90.3539 12.9218 90.3187 13.0635 90.2835 13.1167C90.2483 13.1698 90.0811 13.2584 89.9139 13.3204C89.7467 13.3735 88.5411 13.462 87.2299 13.5152C85.9187 13.5683 84.6603 13.6215 84.4139 13.6392C84.1763 13.6569 83.2611 13.71 82.3899 13.7454C81.5187 13.7897 80.6827 13.8251 80.5419 13.8163C80.4011 13.8074 80.0667 13.7454 79.8115 13.6746C79.5475 13.6037 79.2659 13.462 79.1691 13.3558C79.0019 13.1521 79.0019 13.1521 79.1779 12.913C79.2835 12.7713 79.3627 12.6384 79.3539 12.603C79.3539 12.5587 79.5123 12.2931 79.7059 12.0008C79.8995 11.7086 80.0931 11.3809 80.1459 11.2746C80.1899 11.1595 80.4099 10.7875 80.6299 10.451C80.8499 10.1145 81.1051 9.67167 81.1931 9.47684C81.2899 9.28201 81.4219 9.06061 81.5011 8.98976C81.5803 8.91891 81.6595 8.76836 81.6859 8.66208C81.7123 8.54696 81.8971 8.21043 82.0995 7.90932C82.3019 7.59936 82.5571 7.2097 82.6715 7.04143C82.7771 6.87317 82.8739 6.69605 82.8827 6.64291C82.8827 6.58977 83.0235 6.37723 83.1907 6.15583C83.3491 5.93443 83.5339 5.65989 83.5867 5.53591C83.6395 5.41192 83.7363 5.27908 83.7979 5.22595C83.8683 5.17281 84.0355 4.88942 84.1851 4.58831Z" fill="#6B44D1"/>
<path d="M41.8044 26.3475C41.9628 26.1793 42.35 25.9313 42.6668 25.7896C43.2036 25.5593 43.2828 25.5505 44.374 25.5859C45.0428 25.6036 45.7908 25.6833 46.178 25.7719C46.5388 25.8604 47.1108 26.0021 47.454 26.0996C47.7972 26.197 48.3868 26.3741 48.774 26.4892C49.1612 26.6132 49.5572 26.7638 49.654 26.8258C49.7508 26.8877 49.962 26.9675 50.1204 26.994C50.27 27.0294 50.8244 27.2597 51.3524 27.5077C51.8716 27.7556 52.9892 28.3047 53.834 28.7209C54.6788 29.1372 55.5852 29.6065 55.8404 29.7748C56.0868 29.9342 56.3948 30.1025 56.518 30.1556C56.6412 30.2088 56.9492 30.377 57.2044 30.5364C57.4508 30.6958 57.7588 30.873 57.882 30.9349C58.0052 30.9969 58.278 31.1652 58.498 31.3069C58.718 31.4486 58.9908 31.608 59.114 31.6611C59.2372 31.7143 59.4132 31.8294 59.51 31.918C59.6068 32.0065 59.8796 32.1925 60.1084 32.3342C60.346 32.4759 60.6276 32.653 60.742 32.7239C60.8652 32.7947 61.2964 33.0958 61.7188 33.3881C62.1324 33.6803 62.5636 33.9637 62.6604 34.0257C62.766 34.0877 62.9244 34.1851 63.0212 34.2471C63.0996 34.3023 63.2686 34.4277 63.4228 34.5421L63.4788 34.5836C63.6372 34.7076 63.9892 34.9644 64.262 35.1593C64.5348 35.3541 64.8868 35.6198 65.0364 35.7526C65.1948 35.8855 65.3444 35.9917 65.3884 36.0006C65.4236 36.0006 65.7932 36.2663 66.2244 36.594C66.6468 36.9216 67.3244 37.453 67.738 37.7895C68.1516 38.1172 68.5476 38.4449 68.618 38.5069C68.6884 38.5777 69.2076 39.0028 69.762 39.4633C70.3164 39.915 71.17 40.65 71.654 41.084C72.138 41.5179 73.1852 42.4921 73.986 43.2537C74.778 44.0153 75.5964 44.7946 75.79 44.9895C75.9688 45.1694 76.4179 45.6666 76.8321 46.1253L76.934 46.2382C77.374 46.7341 78.0868 47.5489 78.5268 48.0536C78.9668 48.5584 79.5564 49.2758 79.8292 49.6389C80.102 50.002 80.322 50.3296 80.322 50.3651C80.322 50.4094 80.4892 50.6485 80.7004 50.8964C80.9028 51.1533 81.2108 51.6049 81.3868 51.8972C81.5628 52.1894 81.8532 52.7296 82.038 53.0927C82.214 53.4558 82.4164 53.8809 82.478 54.0226C82.5396 54.1643 82.6804 54.554 82.7772 54.8816C82.9004 55.2802 82.962 55.7141 82.962 56.1658C82.9532 56.644 82.9092 56.9451 82.8036 57.1399C82.7244 57.2905 82.4956 57.5916 82.302 57.7953C82.1084 58.0078 81.7124 58.3266 81.422 58.5215C81.1316 58.7074 80.0228 59.2919 78.958 59.8233C77.8932 60.3547 76.9252 60.8506 76.802 60.9215C76.6788 60.9923 75.7724 61.4528 74.778 61.9487C73.7836 62.4358 72.9124 62.8786 72.842 62.9229C72.7716 62.9672 72.2524 63.2329 71.6892 63.5163C71.126 63.7997 69.8236 64.4639 68.7852 64.9864C67.7468 65.5177 64.9836 66.9258 62.634 68.1214C60.2844 69.317 54.5644 72.2129 49.918 74.5686C45.2716 76.9154 39.7716 79.7139 37.686 80.7767C35.6092 81.8394 33.286 83.0172 32.538 83.398C31.79 83.7789 31.0332 84.0977 30.558 84.1331L30.5756 83.5132C30.5844 83.1766 30.6636 82.539 30.7604 82.0962C30.8572 81.6534 31.1036 80.5198 31.2972 79.5722C31.4996 78.6246 31.7636 77.3671 31.8868 76.7826C32.0012 76.1981 32.2212 75.1619 32.362 74.48C32.5028 73.7981 32.7052 72.8859 32.802 72.4431C32.8988 72.0003 33.066 71.2299 33.1628 70.7162C33.2596 70.2026 33.4532 69.2638 33.594 68.635C33.7348 68.0063 33.9108 67.2092 33.9812 66.8638C34.0516 66.5185 34.2364 65.686 34.386 65.0041C34.5356 64.3222 34.694 63.6048 34.738 63.41C34.782 63.2152 34.8788 62.7989 34.9492 62.4801C35.0284 62.1613 35.1428 61.5857 35.2132 61.196C35.2818 60.8165 35.4755 59.8828 35.64 59.0899L35.6532 59.0263C35.8204 58.2204 36.0316 57.2639 36.1108 56.9008C36.19 56.5377 36.3132 56.0595 36.3748 55.8381C36.4364 55.6167 36.5684 54.9791 36.674 54.4211C36.7796 53.8632 36.9116 53.2079 36.982 52.9599C37.0436 52.7208 37.158 52.216 37.2284 51.8529C37.3076 51.4898 37.4484 50.7902 37.554 50.3031C37.6596 49.816 37.8356 48.9747 37.9588 48.4433C38.082 47.9119 38.2756 47.0529 38.39 46.5393C38.5044 46.0256 38.6276 45.4677 38.654 45.2994C38.6804 45.1312 38.786 44.6529 38.8828 44.2367C38.9796 43.8205 39.094 43.3245 39.138 43.1297C39.182 42.9349 39.2436 42.5983 39.2788 42.3769C39.3052 42.1555 39.446 41.4382 39.5868 40.7828C39.7276 40.1275 39.886 39.3925 39.9388 39.1445C39.9916 38.9054 40.106 38.3474 40.2028 37.9046C40.2908 37.4618 40.4668 36.6737 40.59 36.1334C40.722 35.5932 40.898 34.7608 40.986 34.2737C41.0828 33.7866 41.2148 33.1312 41.294 32.8124C41.3732 32.4936 41.47 31.9977 41.5052 31.7054C41.5404 31.4132 41.5932 31.2361 41.6196 31.3069C41.6548 31.3778 41.69 31.5194 41.7164 31.6169C41.734 31.7143 41.7252 32.1305 41.6812 32.5467C41.6372 32.963 41.5844 33.4589 41.558 33.6537C41.5316 33.8486 41.4876 34.0346 41.47 34.0788C41.4436 34.1143 41.3908 34.4065 41.3468 34.743C41.3028 35.0707 41.162 35.7969 41.0388 36.3548C40.9068 36.9128 40.766 37.515 40.722 37.6832C40.678 37.8515 40.5812 38.312 40.502 38.7017C40.4228 39.0913 40.3172 39.5519 40.2644 39.7201C40.2116 39.8884 40.0972 40.3666 40.018 40.7828C39.93 41.1991 39.7804 41.9784 39.6748 42.5098C39.5692 43.0411 39.402 43.8028 39.3052 44.1924C39.2084 44.5821 39.0676 45.1754 39.006 45.5208C38.9356 45.8662 38.8388 46.2824 38.786 46.4507C38.7332 46.619 38.6364 47.1415 38.5572 47.602C38.478 48.0625 38.4076 48.461 38.39 48.4876C38.3724 48.5142 38.302 48.7887 38.2316 49.1075C38.1612 49.4263 38.0116 50.002 37.9148 50.3916C37.8092 50.7813 37.6244 51.6403 37.5012 52.2957C37.378 52.951 37.2196 53.7126 37.1404 53.9783C37.0612 54.244 36.9028 54.8816 36.7884 55.3953C36.674 55.9089 36.5156 56.582 36.4452 56.9008C36.3748 57.2196 36.1988 58.0344 36.0492 58.7163C35.8996 59.3982 35.7236 60.1953 35.662 60.4875C35.6004 60.7798 35.4596 61.4174 35.3628 61.9045C35.2572 62.3916 35.0548 63.3126 34.914 63.9414C34.7644 64.5701 34.606 65.252 34.562 65.4469C34.518 65.6417 34.4212 66.0579 34.3508 66.3768C34.2804 66.6956 34.1044 67.4749 33.9548 68.1037C33.8052 68.7325 33.5852 69.7509 33.462 70.362C33.3388 70.973 33.1628 71.7878 33.066 72.1775C32.978 72.5671 32.8372 73.1428 32.7668 73.4616C32.6964 73.7804 32.6172 74.2143 32.582 74.4357C32.5468 74.6571 32.3796 75.4542 32.2124 76.2069C32.0364 76.9597 31.8516 77.8542 31.79 78.1996C31.7372 78.5449 31.5964 79.1737 31.4908 79.6165C31.3852 80.0593 31.2444 80.635 31.174 80.9006C31.1036 81.1663 31.0244 81.5471 30.998 81.742C30.9628 81.9368 30.9716 82.3708 31.0156 82.7073C31.0684 83.1678 31.13 83.3449 31.262 83.4335C31.4116 83.5309 31.526 83.5309 31.966 83.4246C32.2564 83.3538 32.8284 83.1235 33.242 82.911C33.6556 82.6896 34.43 82.291 34.958 82.0076C35.4948 81.7243 36.7796 81.0601 37.818 80.5198C38.8564 79.9796 41.118 78.8195 42.834 77.9427C44.55 77.066 46.4332 76.1095 47.014 75.8084C47.5948 75.5073 48.6068 74.9937 49.258 74.666C49.9092 74.3472 50.5692 74.0107 50.71 73.931C50.8508 73.8512 51.1764 73.6918 51.414 73.5767L52.118 73.2225C52.2588 73.1428 52.5844 72.9834 52.822 72.8682C53.0684 72.7531 53.3236 72.6203 53.394 72.576C53.4644 72.5317 54.9164 71.7967 56.606 70.9376C58.3044 70.0786 60.7508 68.821 62.062 68.1391C63.3732 67.4572 64.6404 66.8107 64.878 66.6956C65.1244 66.5804 65.5556 66.3679 65.846 66.2262C66.1364 66.0845 66.4972 65.8985 66.638 65.8188C66.7788 65.748 67.1044 65.5797 67.342 65.4646C67.5884 65.3406 67.9052 65.1812 68.046 65.1015C68.1868 65.0306 68.5476 64.8535 68.838 64.7118C69.1284 64.5701 69.6652 64.2956 70.026 64.1008C70.3868 63.9059 70.8444 63.6668 71.038 63.5605C71.2316 63.4543 71.8916 63.1177 72.5076 62.8166C73.1236 62.5067 73.7484 62.1967 73.8892 62.1259C74.0388 62.055 74.7252 61.7096 75.4116 61.3554C76.1068 61.0012 77.1276 60.4875 77.682 60.2041C78.2364 59.9296 78.87 59.5665 79.09 59.4159C79.31 59.2654 79.6884 59.044 79.926 58.92C80.1724 58.796 80.5244 58.6455 80.718 58.5835C80.9116 58.5126 81.29 58.3355 81.554 58.1761C81.8268 58.0078 82.1612 57.7067 82.3284 57.4765C82.478 57.2551 82.654 56.8831 82.698 56.6351C82.742 56.396 82.7596 55.9621 82.7332 55.6875C82.698 55.4041 82.6188 55.0676 82.5572 54.9348C82.4868 54.7931 82.434 54.616 82.434 54.5363C82.434 54.4477 82.3372 54.182 82.2052 53.934C82.082 53.6949 81.8708 53.2964 81.7476 53.0484C81.6244 52.8093 81.3604 52.3488 81.1668 52.03C80.9644 51.7112 80.762 51.3924 80.7004 51.3215C80.6476 51.2507 80.3484 50.8521 80.0404 50.4359C79.7324 50.0197 79.3452 49.506 79.178 49.2846C79.0108 49.0632 78.694 48.6824 78.474 48.4345C78.2799 48.2079 77.9967 47.8709 77.7998 47.6366L77.726 47.5489C77.5324 47.3097 77.2068 46.9378 76.9956 46.7164C76.7844 46.495 75.9308 45.6359 75.1036 44.8035C74.2676 43.971 73.3172 43.0323 72.974 42.7223C72.6308 42.4035 72.1028 41.9341 71.786 41.6685C71.4692 41.4028 71.1524 41.1282 71.082 41.0485C71.0116 40.9688 70.6508 40.6589 70.29 40.3578C69.9292 40.0655 69.5244 39.729 69.3924 39.6139C69.2692 39.4987 69.0492 39.3216 68.9084 39.2065C68.7764 39.1002 68.4508 38.8434 68.1956 38.6308C67.9316 38.4271 67.5356 38.126 67.3156 37.9578C67.0868 37.7895 66.858 37.6124 66.8052 37.5593C66.7524 37.5061 66.5764 37.3644 66.418 37.2404C66.2596 37.1165 65.8812 36.8242 65.5908 36.594C65.2916 36.3548 64.9132 36.0803 64.746 35.974C64.5788 35.8766 64.4204 35.7615 64.394 35.7349C64.3676 35.6995 64.0156 35.4427 63.602 35.1593C63.1884 34.8759 62.7132 34.5394 62.546 34.4065C62.3788 34.2737 62.0972 34.0965 61.93 34.008C61.7628 33.9194 61.6044 33.8132 61.578 33.7777C61.5516 33.7335 61.4548 33.6449 61.358 33.5829C61.2524 33.5298 61.0412 33.3969 60.8828 33.2995C60.7244 33.2021 60.2316 32.8833 59.7916 32.591C59.3428 32.2899 58.7884 31.9357 58.542 31.794C58.3044 31.6611 58.0844 31.5106 58.058 31.4752C58.0316 31.4397 57.838 31.3246 57.6356 31.2095C57.4244 31.0944 57.0636 30.8907 56.8436 30.7578C56.6148 30.6338 56.1924 30.4124 55.902 30.2707C55.6116 30.1291 55.3476 29.9696 55.3124 29.9077C55.2684 29.8457 54.9516 29.6685 54.6084 29.5091C54.2564 29.3409 53.9044 29.146 53.834 29.0575C53.7636 28.9778 53.6052 28.8892 53.482 28.8715C53.3588 28.8449 53.1036 28.7475 52.91 28.6501C52.7164 28.5527 52.5228 28.473 52.47 28.473C52.4172 28.473 52.3028 28.3933 52.206 28.2959C52.1092 28.1984 51.942 28.101 51.8364 28.0745C51.722 28.0479 51.3436 27.8973 51.0004 27.7379C50.6484 27.5697 50.138 27.366 49.874 27.2774C49.61 27.1889 48.9588 26.9497 48.422 26.746C47.8852 26.5335 47.1988 26.321 46.882 26.259C46.5652 26.197 46.0724 26.073 45.782 25.9844C45.4124 25.8604 44.946 25.8073 44.242 25.7985C43.2564 25.7719 43.2124 25.7807 42.658 26.0641C42.2004 26.3032 42.0244 26.4538 41.7956 26.8169C41.6284 27.0737 41.4436 27.4457 41.3732 27.6582C41.3028 27.8619 41.25 28.1187 41.25 28.2339C41.25 28.3401 41.206 28.4907 41.1532 28.5615C41.0828 28.659 41.074 28.5261 41.1004 28.0745C41.1268 27.7202 41.2236 27.2774 41.3204 27.056C41.426 26.8346 41.6372 26.5158 41.8044 26.3475Z" fill="#B27378"/>
<path d="M89.7908 31.4575C89.5884 31.2272 89.3684 31.0235 89.298 31.0058C89.2188 30.9881 89.2364 30.9704 89.342 30.9704C89.4388 30.9615 89.6852 31.0678 89.8788 31.2006C90.1252 31.36 90.3247 31.5962 90.4772 31.9091C90.6268 32.2014 90.706 32.5025 90.6972 32.7416C90.6972 32.9541 90.6708 33.0604 90.6444 32.9895C90.618 32.9187 90.4948 32.6353 90.3716 32.3696C90.2484 32.1039 89.9844 31.6966 89.7908 31.4575Z" fill="#B27378"/>
<path d="M61.71 33.3882C61.2876 33.096 60.9268 32.8303 60.9004 32.7949V32.786C60.874 32.7506 60.8828 32.724 60.9092 32.724C60.9356 32.724 61.4196 33.034 61.974 33.4059C62.5372 33.7868 62.9684 34.1056 62.942 34.1144C62.9156 34.1321 62.8012 34.0879 62.6868 34.0259C62.5724 33.9727 62.1324 33.6805 61.71 33.3882Z" fill="#B395A2"/>
<path d="M84.458 31.254C84.6252 31.2275 85.4172 31.1566 86.218 31.0858C87.0188 31.0238 88.0572 30.9706 89.4036 30.9972L89.7468 31.3957C89.9404 31.6171 90.2132 32.0422 90.354 32.3433C90.5036 32.6533 90.618 32.9721 90.618 33.0518C90.618 33.1404 90.5212 33.2732 90.4156 33.3529C90.31 33.4326 90.0812 33.53 89.914 33.5655C89.7468 33.6009 89.5092 33.6806 89.386 33.7426C89.2628 33.8046 88.8668 33.9197 88.506 33.9994C88.1452 34.0702 86.8604 34.2739 85.646 34.4511C84.4404 34.6282 83.3668 34.823 83.27 34.8673C83.1732 34.9204 82.918 35.1064 82.698 35.2835C82.478 35.4606 82.258 35.6643 82.1964 35.7352C82.1436 35.806 82.0468 36.0274 81.9852 36.2223C81.9236 36.4171 81.7476 36.7536 81.6068 36.975C81.4572 37.1964 81.2812 37.4178 81.2196 37.4798C81.1668 37.5418 81.114 37.6215 81.114 37.6569C81.114 37.7012 80.9116 37.8341 80.6564 37.9669C80.3484 38.1352 80.058 38.2149 79.794 38.2149C79.5388 38.2149 79.222 38.1263 78.9052 37.9669C78.6324 37.8341 78.2716 37.5595 78.0956 37.347C77.9108 37.1433 77.77 36.9219 77.77 36.8599C77.7612 36.8068 77.6996 36.7182 77.6292 36.6651C77.5588 36.6119 77.418 36.3551 77.3124 36.0894C77.2156 35.8237 77.1012 35.3632 77.0484 35.071C77.0044 34.7787 76.9956 34.3005 77.0308 34.0083C77.066 33.716 77.198 33.2378 77.33 32.9455C77.462 32.6533 77.6908 32.2813 77.8228 32.1131C77.9636 31.9448 78.2716 31.7145 78.518 31.5906C78.9228 31.3869 79.0372 31.378 80.014 31.4046C80.5948 31.4223 81.3428 31.4311 81.686 31.4311C82.0292 31.4311 82.7156 31.4046 83.226 31.3692C83.7364 31.3337 84.2908 31.2806 84.458 31.254Z" fill="#DE4895"/>
<path d="M42.5876 26.1085C42.8868 25.9579 43.2036 25.8162 43.274 25.7985C43.3444 25.7808 43.8196 25.772 44.33 25.7897C44.902 25.8074 45.4564 25.887 45.782 25.9844C46.0724 26.073 46.5652 26.197 46.882 26.259C47.1988 26.321 47.8852 26.5335 48.422 26.746C48.9588 26.9497 49.61 27.1889 49.874 27.2774C50.138 27.366 50.6484 27.5697 50.9916 27.738C51.3436 27.8974 51.722 28.048 51.8276 28.0745C51.942 28.1011 52.1092 28.1984 52.206 28.2959C52.3028 28.3933 52.4172 28.473 52.47 28.473C52.5228 28.473 52.7164 28.5527 52.91 28.6501C53.1036 28.7475 53.3588 28.8449 53.482 28.8715C53.6052 28.8892 53.7636 28.9778 53.834 29.0575C53.9044 29.146 54.2564 29.3409 54.5996 29.5092C54.9516 29.6686 55.2684 29.8457 55.3036 29.9077C55.3476 29.9697 55.6116 30.1291 55.902 30.2707C56.1924 30.4124 56.6148 30.6338 56.8436 30.7578C57.0636 30.8907 57.4244 31.0944 57.6356 31.2095C57.838 31.3246 58.0316 31.4397 58.058 31.4752C58.0844 31.5106 58.2956 31.6611 58.542 31.794C58.7796 31.9357 59.3428 32.2899 59.7916 32.591C60.2316 32.8833 60.7244 33.2021 60.8828 33.2995C61.0412 33.3969 61.2524 33.5298 61.358 33.5829C61.4548 33.6449 61.5516 33.7335 61.578 33.7777C61.6044 33.8132 61.7628 33.9194 61.93 34.008C62.0972 34.0965 62.3788 34.2737 62.546 34.4065C62.7132 34.5394 63.1884 34.8759 63.602 35.1593C64.0156 35.4427 64.3676 35.6995 64.394 35.7349C64.4204 35.7615 64.5788 35.8766 64.746 35.974C64.9132 36.0803 65.2916 36.3548 65.5908 36.594C65.8812 36.8242 66.2596 37.1165 66.418 37.2404C66.5764 37.3644 66.7524 37.5061 66.8052 37.5593C66.858 37.6124 67.0868 37.7895 67.3156 37.9578C67.5356 38.126 67.9316 38.4271 68.1956 38.6308C68.4508 38.8434 68.7764 39.1002 68.9084 39.2065C69.0492 39.3216 69.2692 39.4987 69.3924 39.6139C69.5244 39.729 69.9292 40.0655 70.29 40.3578C70.6508 40.6589 71.0116 40.9688 71.082 41.0485C71.1524 41.1282 71.4692 41.4028 71.786 41.6685C72.1028 41.9341 72.6308 42.4035 72.974 42.7223C73.3172 43.0323 74.2676 43.971 75.1036 44.8035C75.9308 45.6359 76.7844 46.495 76.9956 46.7164C77.2068 46.9378 77.5324 47.3097 77.726 47.5489L77.7998 47.6366C77.9967 47.8709 78.2799 48.2079 78.474 48.4345C78.694 48.6824 79.0108 49.0632 79.178 49.2846C79.3452 49.506 79.7324 50.0197 80.0404 50.4359C80.3484 50.8521 80.6476 51.2507 80.7092 51.3216C80.762 51.3924 81.0084 51.7644 81.246 52.1452C81.4924 52.526 81.6684 52.8537 81.642 52.8714C81.6156 52.898 81.4924 52.7651 81.3604 52.588C81.2284 52.402 81.1139 52.2249 81.1139 52.1806C81.1139 52.1452 80.9291 51.8529 80.7003 51.5164C80.4715 51.1887 80.1899 50.799 80.0755 50.6573C79.9611 50.5156 79.7763 50.2677 79.6619 50.126C79.5475 49.9843 79.3011 49.6743 79.1163 49.4529C78.9315 49.2227 78.7203 48.9658 78.6499 48.8773L78.6494 48.8765C78.5695 48.7784 78.3326 48.4869 78.1131 48.2219C77.8931 47.9563 77.5939 47.602 77.4531 47.4426C77.3123 47.2743 76.9955 46.9378 76.7579 46.6898C76.5115 46.433 76.1155 46.0079 75.8779 45.7423C75.6315 45.4766 74.7163 44.5733 73.8539 43.7408C72.9827 42.9083 72.1115 42.0936 71.9179 41.9253C71.7243 41.7659 71.3459 41.4294 71.0819 41.1814C70.8179 40.9423 70.4571 40.6412 70.2987 40.5172C70.1315 40.3932 69.7355 40.0744 69.4187 39.8087C69.1019 39.543 68.7939 39.2774 68.7499 39.2242C68.7059 39.1711 68.4859 39.0028 68.2659 38.8611C68.0459 38.7106 67.7907 38.498 67.6939 38.3918C67.5971 38.2855 67.3507 38.1084 67.1395 37.9844C66.9371 37.8692 66.7699 37.7453 66.7699 37.701C66.7787 37.6656 66.6027 37.5239 66.4003 37.3733C66.1891 37.2316 65.7227 36.8685 65.3619 36.5763C65.0011 36.2752 64.6051 35.9829 64.4819 35.9121C64.3587 35.8501 64.1035 35.6641 63.9099 35.5047C63.7163 35.3453 63.5316 35.2036 63.4964 35.2036C63.4524 35.2036 63.0651 34.9468 62.6339 34.6279C62.2027 34.3091 61.7892 34.0523 61.7364 34.0523C61.6748 34.0523 61.5427 33.9726 61.4459 33.884C61.3491 33.7955 60.9355 33.4944 60.5219 33.2198C60.1083 32.9453 59.7123 32.6796 59.6419 32.6353C59.5715 32.5822 59.2371 32.3785 58.8939 32.166C58.5507 31.9623 58.1723 31.732 58.0315 31.6612C57.8995 31.5903 57.7939 31.5018 57.7939 31.4575C57.7939 31.4221 57.2483 31.1298 56.5883 30.7933C55.9283 30.4656 55.2419 30.0848 55.0659 29.952C54.8987 29.8191 54.6787 29.6863 54.5819 29.6509C54.4851 29.6243 54.1859 29.4649 53.9219 29.3055C53.6579 29.1461 53.2003 28.9247 52.9099 28.8272C52.6195 28.721 52.2587 28.5527 52.1179 28.4376C51.9771 28.3313 51.6779 28.1896 51.4579 28.1276C51.2379 28.0656 50.8683 27.8974 50.6219 27.7645C50.3843 27.6228 50.0059 27.4723 49.7859 27.4103C49.5659 27.3571 48.9587 27.1357 48.4219 26.9232C47.8851 26.7195 47.1195 26.4715 46.7059 26.3918C46.2923 26.3121 45.6588 26.1793 45.298 26.1085C44.858 26.0199 44.3916 26.0022 43.89 26.0376C43.3796 26.0731 43.0188 26.1528 42.7548 26.2856C42.5348 26.3919 42.2444 26.6044 42.0948 26.755C41.9012 26.9587 41.7868 27.1978 41.6988 27.5963C41.602 28.0391 41.5932 28.2782 41.6724 28.6944C41.7252 28.9867 41.8131 29.4206 41.8659 29.6686C41.9275 29.9077 42.1035 30.3062 42.2619 30.5542C42.4115 30.7933 42.6316 31.1476 42.7284 31.3247C42.8692 31.5726 42.8956 31.7055 42.834 31.8118C42.79 31.9003 42.746 31.918 42.746 31.856C42.746 31.8029 42.7196 31.7586 42.6844 31.7586C42.6404 31.7675 42.5612 31.7675 42.5084 31.7586C42.4468 31.7586 42.394 31.6789 42.394 31.5904C42.394 31.5107 42.3764 31.4575 42.35 31.4841C42.3324 31.5107 42.2532 31.8649 42.1828 32.2811C42.1124 32.6974 41.9628 33.5122 41.8308 34.0967C41.7076 34.6812 41.5228 35.5403 41.426 36.0008C41.3292 36.4613 41.1708 37.2229 41.074 37.6834C40.986 38.1439 40.8716 38.6487 40.8188 38.7904C40.7748 38.9321 40.634 39.5343 40.502 40.1188C40.3788 40.7033 40.2204 41.403 40.1412 41.6686C40.0708 41.9343 39.8772 42.7933 39.71 43.5727C39.5428 44.352 39.2436 45.6273 39.05 46.4066C38.8564 47.1859 38.698 47.9033 38.698 48.0007C38.698 48.0981 38.6276 48.4169 38.5308 48.7092C38.4428 49.0014 38.3284 49.4354 38.2668 49.6833C38.214 49.9224 38.0732 50.5689 37.95 51.1003C37.818 51.6317 37.642 52.411 37.5452 52.8272C37.458 53.2018 37.1785 54.3511 36.8989 55.5004L36.806 55.8824C36.498 57.1488 36.2164 58.3444 36.1812 58.5392C36.146 58.7341 36.102 58.8492 36.0844 58.8049C36.0668 58.7606 36.1548 58.2381 36.278 57.6536C36.4012 57.0691 36.6036 56.1747 36.7268 55.661C36.8412 55.1474 37.0172 54.4566 37.114 54.1112C37.202 53.7658 37.378 52.951 37.5012 52.2957C37.6244 51.6403 37.8092 50.7813 37.9148 50.3916C38.0116 50.002 38.1612 49.4263 38.2316 49.1075C38.302 48.7887 38.3724 48.5142 38.39 48.4876C38.4076 48.461 38.478 48.0625 38.5572 47.602C38.6364 47.1415 38.7332 46.619 38.786 46.4507C38.8388 46.2824 38.9356 45.8662 39.006 45.5208C39.0676 45.1754 39.2084 44.5821 39.3052 44.1924C39.402 43.8028 39.5692 43.0411 39.6748 42.5098C39.7804 41.9784 39.93 41.1991 40.018 40.7828C40.0972 40.3666 40.2116 39.8884 40.2644 39.7201C40.3172 39.5519 40.4228 39.0913 40.502 38.7017C40.5812 38.312 40.678 37.8515 40.722 37.6832C40.766 37.515 40.9068 36.9128 41.0388 36.3548C41.162 35.7969 41.3028 35.0708 41.3468 34.7342C41.3908 34.4066 41.4436 34.1143 41.47 34.07C41.4876 34.0346 41.5316 33.8486 41.558 33.6537C41.5844 33.4589 41.6372 32.9808 41.6812 32.5911C41.7252 32.1749 41.7252 31.6789 41.6812 31.3955C41.6372 31.1298 41.558 30.7313 41.5052 30.5099C41.4524 30.2885 41.3556 29.7749 41.294 29.3586C41.2177 28.8568 41.206 28.4583 41.2588 28.1631C41.3028 27.9151 41.382 27.5963 41.4436 27.4546C41.5052 27.3129 41.6636 27.0118 41.7956 26.7904C41.9716 26.4804 42.1476 26.3299 42.5876 26.1085Z" fill="#C86C65"/>
<path d="M81.642 53.0219C81.642 53.0229 81.6421 53.024 81.6422 53.0252C81.6452 52.9882 81.6792 53.0062 81.7212 53.0485C81.7652 53.0928 81.9412 53.4116 82.1172 53.757C82.2932 54.1024 82.434 54.4477 82.434 54.5363C82.434 54.616 82.4956 54.8109 82.566 54.9526C82.6364 55.0942 82.6804 55.3245 82.6628 55.4662C82.6364 55.6787 82.6364 55.6787 82.6188 55.4219C82.6188 55.2625 82.566 55.112 82.522 55.0854C82.478 55.0588 82.3988 54.8551 82.3548 54.6249C82.3108 54.3858 82.126 53.9518 81.9588 53.6507C81.7867 53.3477 81.6483 53.0785 81.6422 53.0252C81.6421 53.027 81.642 53.0288 81.642 53.0308V53.0219Z" fill="#C86C65"/>
<path d="M79.794 58.7961C80.058 58.7252 80.2956 58.6455 80.3132 58.6189C80.3308 58.5924 80.41 58.5747 80.4892 58.5747C80.5684 58.5747 80.3924 58.6898 80.102 58.8226C79.8116 58.9643 79.3716 59.2123 79.134 59.3806C78.8876 59.5488 78.2364 59.9208 77.682 60.1953C77.1276 60.4787 76.1068 60.9924 75.4116 61.3466C74.7252 61.7008 74.0388 62.0462 73.8892 62.1171C73.7484 62.1879 73.1236 62.4979 72.5076 62.8078C71.8916 63.109 71.2316 63.4455 71.038 63.5518C70.8444 63.658 70.3868 63.8971 70.026 64.092C69.6652 64.2868 69.1284 64.5613 68.838 64.703C68.5476 64.8447 68.1868 65.0219 68.046 65.0927C67.9052 65.1724 67.5796 65.3318 67.342 65.4558C67.0956 65.5709 66.7788 65.7392 66.638 65.81C66.4972 65.8897 66.1364 66.0757 65.846 66.2174C65.5556 66.3591 65.1156 66.5717 64.878 66.6868C64.6316 66.8019 63.3732 67.4484 62.062 68.1303C60.7508 68.8122 58.2956 70.0698 56.606 70.9288C54.9076 71.7879 53.4644 72.5229 53.394 72.5672C53.3236 72.6115 53.0596 72.7443 52.822 72.8594C52.5756 72.9746 52.2588 73.134 52.118 73.2137C51.9772 73.2845 51.6516 73.4439 51.414 73.5679C51.1676 73.683 50.8508 73.8425 50.71 73.9222C50.5692 74.0019 49.9268 74.3207 49.302 74.6395C48.6772 74.9495 47.8852 75.348 47.542 75.534C47.1988 75.7111 46.7588 75.9325 46.5476 76.0299C46.3452 76.1185 46.1956 76.1539 46.222 76.1096C46.2484 76.0653 46.6092 75.8439 47.0316 75.6314C47.4628 75.4188 48.4924 74.8875 49.3196 74.4624C50.1556 74.0284 51.2292 73.4794 51.6956 73.2314C52.1708 72.9923 53.3852 72.3546 54.406 71.8233C55.4268 71.2919 56.2892 70.8314 56.342 70.796C56.3948 70.7517 57.1604 70.3443 58.058 69.8838C58.9556 69.4322 60.0028 68.8831 60.39 68.6705C60.7772 68.458 61.2348 68.21 61.402 68.1126C61.5692 68.0152 62.1236 67.7141 62.634 67.4484C63.1444 67.1827 63.8572 66.7931 64.218 66.5805C64.5788 66.368 64.9132 66.1909 64.966 66.1909C65.0188 66.1909 65.23 66.0669 65.45 65.9252C65.67 65.7835 66.1012 65.5621 66.418 65.4381C66.7348 65.3141 67.0692 65.137 67.166 65.0484C67.2628 64.951 67.5004 64.8359 67.694 64.7827C67.8876 64.7385 68.1428 64.5879 68.266 64.4639C68.3892 64.3399 68.5388 64.2425 68.5916 64.2425C68.6532 64.2425 68.9348 64.1097 69.2076 63.9503C69.4892 63.782 69.8148 63.6226 69.938 63.5783C70.0612 63.5429 70.3164 63.4189 70.51 63.3126C70.7036 63.2064 71.3372 62.8521 71.918 62.5156C72.4988 62.1879 73.0708 61.8514 73.194 61.7717C73.3172 61.7008 73.6076 61.5414 73.854 61.4263C74.0916 61.3023 74.47 61.1164 74.69 61.0101C74.91 60.9038 75.262 60.7001 75.482 60.5761C75.702 60.4433 76.2124 60.1688 76.6172 59.9651C77.0308 59.7614 77.4444 59.4868 77.5412 59.3451C77.7084 59.1237 77.7612 59.106 78.166 59.1592C78.4388 59.1946 78.7116 59.168 78.87 59.0972C79.0108 59.044 79.178 58.982 79.222 58.9643C79.266 58.9466 79.53 58.8758 79.794 58.7961Z" fill="#C86C65"/>
<path d="M44.198 77.1103C44.2948 77.0572 44.726 76.8358 45.166 76.6144C45.5972 76.393 45.9932 76.207 46.0372 76.1982C46.09 76.1982 46.09 76.2247 46.0372 76.2779C45.9932 76.3222 44.5324 77.0838 42.79 77.9605C41.0476 78.8461 39.5868 79.6077 39.534 79.652C39.49 79.7051 39.4108 79.7406 39.358 79.7406C39.314 79.7406 39.4108 79.6432 39.578 79.528C39.7452 79.4129 40.634 78.9347 41.558 78.4653C42.4732 77.9959 43.2916 77.5708 43.362 77.5266C43.4324 77.4823 43.6084 77.3937 43.758 77.3229C43.8988 77.2609 44.1012 77.1635 44.198 77.1103Z" fill="#C86C65"/>
<path d="M31.2356 83.407C31.13 83.345 31.042 83.2121 31.042 83.1324C31.042 83.0173 31.0596 83.0084 31.1124 83.0882C31.1476 83.159 31.2708 83.221 31.394 83.2299C31.5172 83.2476 31.79 83.2741 32.406 83.3007L31.922 83.4247C31.5084 83.5221 31.4116 83.5221 31.2356 83.407Z" fill="#C86C65"/>
<path d="M83.842 31.1301C84.2996 31.0681 85.3292 30.9707 86.13 30.9087C86.9308 30.8467 87.8196 30.7936 88.11 30.7847C88.418 30.7847 88.594 30.8113 88.55 30.8555C88.4972 30.8998 87.5908 30.9972 86.526 31.0858C85.4612 31.1655 84.0972 31.2718 83.49 31.3161C82.8828 31.3603 82.2932 31.4135 82.17 31.44C82.0468 31.4666 81.4308 31.4578 79.662 31.3515L81.334 31.2984C82.258 31.2629 83.3844 31.1921 83.842 31.1301Z" fill="#E364AE"/>
<path d="M89.914 33.5744C90.0812 33.5389 90.3188 33.4238 90.4244 33.3087C90.6092 33.1315 90.6444 33.1227 90.706 33.2467C90.75 33.3264 90.7852 33.5212 90.7852 33.6718C90.794 33.8312 90.7412 34.1766 90.6708 34.4245C90.6092 34.6814 90.4332 35.1153 90.2836 35.381C90.0988 35.7175 89.8788 35.9566 89.5884 36.1426C89.3596 36.2932 89.078 36.4614 88.9724 36.5234C88.858 36.5765 88.3476 36.7005 87.8284 36.7979C87.3004 36.8865 86.5436 37.0105 86.13 37.0725C85.7164 37.1256 85.2412 37.2319 85.074 37.3027C84.9068 37.3647 84.546 37.4444 84.282 37.471C84.018 37.4976 83.1644 37.6393 82.39 37.781C81.6156 37.9227 80.8412 38.0821 80.674 38.1263C80.5068 38.1706 80.322 38.2149 80.278 38.2149C80.234 38.2149 80.4012 38.1086 80.6564 37.9758C80.9116 37.8341 81.114 37.7012 81.114 37.6569C81.114 37.6215 81.1668 37.5419 81.2284 37.4799C81.2812 37.4179 81.4572 37.1964 81.6068 36.975C81.7476 36.7536 81.9236 36.4171 81.9852 36.2223C82.0468 36.0274 82.1436 35.806 82.1964 35.7352C82.258 35.6643 82.478 35.4606 82.698 35.2835C82.918 35.1064 83.1732 34.9204 83.27 34.8673C83.3668 34.823 84.4404 34.6282 85.646 34.4511C86.8604 34.2739 88.1452 34.0702 88.506 33.9994C88.8668 33.9197 89.2628 33.8046 89.386 33.7426C89.5092 33.6806 89.7468 33.6009 89.914 33.5744Z" fill="#E364AE"/>
<path d="M77.7524 37.1079C77.6116 36.9131 77.4972 36.7271 77.4972 36.6917C77.4972 36.6562 77.5588 36.6474 77.6292 36.674C77.6996 36.7094 77.7612 36.7802 77.77 36.8511C77.77 36.9219 77.8844 37.1079 78.034 37.2585C78.1748 37.4179 78.298 37.595 78.298 37.6393C78.3068 37.6835 78.2364 37.6658 78.1572 37.595C78.0692 37.5241 77.8932 37.3027 77.7524 37.1079Z" fill="#E364AE"/>
<path d="M43.2916 28.0216C43.3532 27.9419 43.4852 27.8356 43.582 27.7825C43.6788 27.7294 43.9516 27.6851 44.198 27.6851C44.4356 27.6851 45.034 27.7382 45.518 27.8002C46.002 27.8711 46.5564 27.9862 46.75 28.0659C46.9436 28.1456 47.4452 28.305 47.8676 28.429C48.2988 28.553 48.642 28.615 48.642 28.5618C48.642 28.5087 48.5892 28.4733 48.5276 28.4644C48.4748 28.4644 48.4572 28.4379 48.51 28.4201C48.5628 28.3936 48.8708 28.4821 49.214 28.6061C49.5572 28.7301 49.9884 28.9338 50.182 29.0401C50.3756 29.1552 50.8068 29.3412 51.15 29.4386C51.4932 29.5449 51.8276 29.6866 51.898 29.7485C51.9684 29.8105 52.294 29.9699 52.6196 30.1028C52.954 30.2268 53.2444 30.333 53.2796 30.333C53.3236 30.333 53.4908 30.4305 53.658 30.5544C53.8252 30.6784 54.186 30.8644 54.45 30.9618C54.714 31.0681 55.0396 31.2186 55.1716 31.3161C55.3124 31.4046 55.4444 31.4843 55.4796 31.4843C55.5236 31.4932 55.4884 31.4312 55.418 31.3515C55.3212 31.2541 55.3212 31.2098 55.3916 31.2186C55.4532 31.2186 55.7788 31.3958 56.122 31.6172C56.4652 31.8386 56.7732 32.0157 56.826 32.0157C56.8788 32.0157 57.0988 32.1308 57.3276 32.2725C57.5652 32.4142 57.8556 32.5471 57.9876 32.5825C58.1284 32.609 58.234 32.6887 58.234 32.7507C58.234 32.8039 58.3572 32.9013 58.5156 32.9633C58.674 33.0164 58.9028 33.0873 59.026 33.1227C59.1932 33.167 59.2196 33.1581 59.114 33.0873C59.0084 33.0076 59.0172 32.9899 59.1756 32.9899C59.29 32.9899 59.378 33.0253 59.378 33.0784C59.378 33.1315 59.422 33.1581 59.4748 33.1493C59.5276 33.1315 59.598 33.1847 59.6244 33.2555C59.6684 33.3618 59.6332 33.3707 59.5012 33.3175C59.3428 33.2467 59.3428 33.2467 59.51 33.4149C59.6068 33.5035 59.8972 33.6895 60.1436 33.8135C60.3988 33.9463 60.61 34.0349 60.61 34.0083C60.61 33.9817 60.7332 34.0437 60.874 34.1411C61.0148 34.2386 61.1204 34.3537 61.094 34.4068C61.0676 34.46 61.1116 34.5485 61.182 34.6105C61.2612 34.6636 61.3228 34.6814 61.3228 34.6282C61.3228 34.5751 61.4196 34.5574 61.5428 34.5839C61.6572 34.6105 61.7804 34.6991 61.798 34.7876C61.8244 34.8673 61.9916 35.0356 62.1676 35.1596C62.3524 35.2836 62.5812 35.381 62.678 35.381C62.7748 35.3898 62.9772 35.5138 63.118 35.6732C63.2588 35.8326 63.5052 36.0009 63.646 36.054C63.7868 36.1072 64.0684 36.2931 64.262 36.4703C64.4556 36.6474 64.8516 36.9928 65.142 37.2407C65.5204 37.5596 65.6876 37.657 65.7316 37.5773C65.7844 37.4887 65.802 37.4887 65.802 37.5773C65.802 37.6304 65.8372 37.6658 65.89 37.6393C65.9428 37.6127 66.0044 37.6481 66.0396 37.7101C66.0865 37.781 66.0719 37.7957 65.9956 37.7544C65.9428 37.7101 65.89 37.7278 65.89 37.7721C65.89 37.8164 65.9604 37.9227 66.0396 38.0024C66.1276 38.0821 66.3476 38.2238 66.5236 38.3123C66.7084 38.4097 66.8844 38.4629 66.9196 38.4452C66.9636 38.4186 67.0516 38.4452 67.122 38.4983C67.2276 38.5691 67.2276 38.578 67.0956 38.5337C67.0164 38.5072 67.1748 38.7108 67.4476 38.9942C67.7292 39.2688 68.1516 39.6407 68.398 39.809C68.6356 39.9861 68.8996 40.119 68.97 40.119C69.0404 40.119 69.0932 40.1721 69.0756 40.2341C69.0668 40.2961 69.1108 40.3226 69.19 40.2961C69.2604 40.2695 69.5156 40.4201 69.762 40.6326C70.0084 40.8363 70.4836 41.2614 70.818 41.5802C71.1612 41.899 71.9356 42.6341 72.5428 43.2186C73.1588 43.8031 73.8892 44.5115 74.1708 44.7949C74.4612 45.0695 74.7164 45.282 74.7516 45.2554C74.7956 45.2289 74.8924 45.282 74.9716 45.3617C75.0596 45.4503 75.1036 45.5477 75.086 45.592C75.0596 45.6274 75.13 45.7514 75.2356 45.8754C75.35 45.9994 75.482 46.1056 75.526 46.1056C75.57 46.1056 75.5524 46.0348 75.482 45.9462C75.3588 45.7957 75.3588 45.7957 75.5524 45.9462C75.6844 46.0525 75.7284 46.141 75.6844 46.2562C75.6316 46.3713 75.6492 46.389 75.7724 46.3447C75.8516 46.3005 75.9044 46.3005 75.878 46.3447C75.8604 46.3802 75.8956 46.4864 75.9572 46.5839C76.0276 46.6813 76.1332 46.761 76.2036 46.761C76.2652 46.7698 76.3092 46.8141 76.2916 46.8761C76.2828 46.9381 76.318 46.9647 76.362 46.9381C76.406 46.9115 76.5116 46.9469 76.582 47.0089C76.6612 47.0621 76.7228 47.1418 76.714 47.1861C76.714 47.2215 76.67 47.2303 76.626 47.2038C76.582 47.1772 76.538 47.1683 76.538 47.1861C76.538 47.1949 76.6436 47.3012 77.022 47.6466L76.846 47.4252C76.7492 47.3012 76.846 47.3632 77.0484 47.558C77.2508 47.7528 77.4092 47.9742 77.4004 48.0451C77.3828 48.1159 77.4268 48.1691 77.4796 48.1602C77.5412 48.1425 77.7788 48.3728 78.0076 48.6739C78.2452 48.9661 78.5796 49.3646 78.7556 49.5595C78.9404 49.7455 79.0988 49.8871 79.1076 49.8606C79.1252 49.8429 79.1868 49.958 79.2396 50.1263C79.3012 50.2945 79.398 50.4362 79.442 50.4362C79.486 50.4362 79.5124 50.4805 79.486 50.5248C79.4596 50.5691 79.5036 50.6399 79.574 50.6842C79.6532 50.7196 79.7236 50.8082 79.7324 50.879C79.75 50.9499 79.794 51.0739 79.838 51.1447C79.8908 51.2155 79.9788 51.2775 80.0492 51.2775C80.1196 51.2775 80.278 51.4812 80.41 51.7203C80.5508 51.9949 80.6828 52.1543 80.762 52.1366C80.8324 52.1189 80.8676 52.1277 80.8236 52.1543C80.7884 52.1809 80.806 52.2606 80.85 52.3226C80.9028 52.3757 81.0612 52.5705 81.202 52.7388C81.3428 52.9071 81.5276 53.2701 81.6068 53.5358C81.6948 53.8015 81.8444 54.1203 81.95 54.2443C82.0556 54.3683 82.1964 54.6428 82.2492 54.8642C82.3108 55.0856 82.3988 55.4399 82.4428 55.6613C82.4868 55.8827 82.5044 56.2015 82.4868 56.3698C82.4692 56.538 82.4076 56.8037 82.346 56.9454C82.2932 57.0871 82.1436 57.2996 82.0116 57.4059C81.8796 57.5033 81.774 57.645 81.774 57.707C81.774 57.769 81.598 57.9107 81.378 58.0258C81.158 58.141 80.8412 58.2827 80.674 58.3358C80.5068 58.3889 80.2252 58.4244 80.058 58.4244C79.8644 58.4155 79.6268 58.3092 79.4156 58.141C79.2396 57.9993 79.0636 57.8753 79.0196 57.8753C78.9844 57.8841 78.8964 57.8221 78.826 57.7424C78.7556 57.6716 78.5708 57.583 78.43 57.5476C78.2892 57.521 78.0076 57.4236 77.814 57.3174C77.6204 57.2199 77.1628 57.034 76.802 56.9011C76.4412 56.7683 75.6492 56.476 75.042 56.2458C74.4348 56.0155 73.3436 55.5461 72.622 55.1919C71.9004 54.8377 70.9236 54.3329 70.466 54.076C70.0084 53.8104 68.9348 53.155 68.09 52.6148C67.2452 52.0657 66.2948 51.4635 65.978 51.2775C65.6612 51.0827 65.1068 50.7196 64.746 50.4539C64.4144 50.2179 63.6442 49.6602 62.9615 49.1658L62.7836 49.037C62.0708 48.5145 61.4196 48.0451 61.3316 48.0008C61.2524 47.9477 61.1204 47.8768 61.05 47.8237C60.9796 47.7794 60.8564 47.7263 60.786 47.7174C60.7156 47.6997 60.5924 47.6289 60.522 47.558C60.4516 47.4872 60.3372 47.4252 60.2756 47.4252C60.2228 47.4252 60.1612 47.3986 60.1436 47.3632C60.1348 47.3189 59.7388 46.9912 59.2548 46.6281C58.7796 46.265 58.2076 45.8399 57.9788 45.6982C57.7588 45.5566 57.3716 45.2377 57.134 44.9986C56.8876 44.7595 56.5708 44.4584 56.43 44.3256C56.2892 44.2016 55.9548 43.9448 55.6996 43.7676C55.4532 43.5905 55.2332 43.4045 55.2156 43.3691C55.2068 43.3248 54.9252 43.0503 54.582 42.758C54.2388 42.4658 53.8164 42.085 53.6316 41.9256C53.438 41.7573 53.1476 41.4916 52.9716 41.3234C52.7868 41.164 52.5052 40.9337 52.338 40.8186C52.1708 40.7123 51.81 40.3846 51.5284 40.1012C51.2556 39.8178 50.666 39.1979 50.2084 38.7286C49.7596 38.2503 49.0908 37.5684 48.73 37.2053C48.3692 36.8422 47.894 36.4171 47.6828 36.2489C47.4628 36.0895 47.1724 35.7972 47.0404 35.6024C46.9084 35.4075 46.7236 35.1064 46.6444 34.9382C46.5652 34.7699 46.4156 34.5397 46.3188 34.4334C46.2132 34.3271 46.134 34.2031 46.134 34.1677C46.134 34.1323 45.9492 33.8577 45.7292 33.5655C45.5092 33.2732 45.122 32.6356 44.8756 32.1485C44.6204 31.6614 44.418 31.2364 44.418 31.2009C44.418 31.1567 44.2244 30.6961 43.978 30.1559C43.7404 29.6157 43.538 29.1286 43.538 29.0755C43.538 29.0135 43.4588 28.9072 43.362 28.8541C43.2447 28.7773 43.186 28.6445 43.186 28.4556C43.186 28.2962 43.23 28.1013 43.2916 28.0216Z" fill="#EB7269"/>
<path d="M53.7461 58.2912C53.8781 58.4684 53.8781 58.4684 54.2653 58.2735C54.5381 58.1407 54.6877 58.1141 54.7581 58.1761C54.8109 58.2292 54.8549 58.4329 54.8461 58.6366C54.8461 58.858 54.8813 58.982 54.9341 58.9466C54.9781 58.92 54.9957 58.9466 54.9605 59.0263C54.9341 59.0971 54.7933 59.416 54.6701 59.7348C54.5381 60.0536 54.3621 60.4078 54.1509 60.7532L54.4149 60.523C54.5557 60.3901 54.7581 60.2396 54.8725 60.1864C55.0221 60.1067 54.9605 60.2573 54.5733 60.8595C54.2917 61.2934 53.9749 61.7628 53.8605 61.9045C53.7373 62.0462 53.2005 62.6307 52.6549 63.1886C52.1181 63.7466 51.5989 64.3045 51.5021 64.4196C51.3877 64.5613 51.3701 64.6056 51.4581 64.5613C51.5285 64.5259 51.6605 64.4285 51.7485 64.3488C51.8277 64.2691 51.9157 64.2248 51.9421 64.2513C51.9685 64.2779 51.8453 64.4107 51.6605 64.5524C51.4757 64.6853 50.3669 65.7834 49.1965 66.9879C48.0261 68.1834 47.0845 69.1842 47.1021 69.2107C47.1285 69.2373 47.2165 69.2019 47.2957 69.131C47.3837 69.0602 47.1197 69.3524 46.7061 69.7775C46.2925 70.2114 45.2717 71.1856 44.4357 71.9472C43.5909 72.7088 42.6141 73.5945 42.2533 73.9221C41.8925 74.2587 41.6197 74.542 41.6461 74.5686C41.6725 74.5952 41.5229 74.7546 41.3205 74.9229C41.1093 75.0911 40.9157 75.2062 40.8805 75.1885C40.8365 75.162 40.4845 75.4719 40.0885 75.8705C39.6837 76.269 39.4373 76.4992 39.5341 76.3841C39.6309 76.269 39.2173 76.6144 38.6101 77.1546C38.0029 77.6948 37.4133 78.235 37.2901 78.359C37.1669 78.483 37.0349 78.5715 36.9821 78.545C36.9381 78.5184 36.6389 78.7752 36.3221 79.1206C36.0053 79.466 35.6797 79.7494 35.6005 79.7494C35.5125 79.7494 35.4245 79.8291 35.3981 79.9265C35.3717 80.0239 35.2837 80.1036 35.2045 80.1036C35.1165 80.1036 34.9933 80.1833 34.9405 80.2807C34.8613 80.3959 34.7645 80.4402 34.6501 80.4136C34.5533 80.387 34.4741 80.4136 34.4741 80.4579C34.4741 80.5022 34.4125 80.5464 34.3421 80.5464C34.2717 80.5464 34.1837 80.4933 34.1573 80.4313C34.1309 80.3782 34.1925 80.1213 34.3069 79.8822C34.4125 79.6343 34.5181 79.3597 34.5357 79.2623C34.5533 79.1649 34.7909 78.8461 35.0461 78.5538C35.3013 78.2616 35.7061 77.7036 35.9437 77.314C36.1813 76.9243 36.6829 76.207 37.0613 75.7199C37.4485 75.2328 38.1437 74.3826 38.6013 73.8336C39.0677 73.2845 39.4725 72.824 39.4989 72.8151C39.5341 72.8063 40.0445 72.1863 40.6429 71.4424C41.2413 70.6897 41.8925 69.8749 42.0861 69.627C42.2797 69.3701 42.8517 68.7236 43.3533 68.1923C43.8549 67.6609 44.4093 67.041 44.5853 66.8196C44.7525 66.5982 45.1309 66.1554 45.4301 65.8366C45.7205 65.5178 46.2573 64.9067 46.6181 64.4993C46.9789 64.0831 47.5421 63.5251 47.8677 63.2683C48.2109 62.9849 48.5189 62.6484 48.6245 62.4359C48.7125 62.241 49.3637 61.4706 50.0589 60.7266C50.7541 59.9739 51.5285 59.2388 51.7661 59.0794C52.0125 58.92 52.4261 58.6632 52.6901 58.5038C52.9541 58.3444 53.2709 58.1938 53.3941 58.1673C53.5525 58.1318 53.6493 58.1673 53.7461 58.2912Z" fill="#D2594D"/>
<path d="M64.7548 55.9888C65.6964 54.9084 65.8196 54.8021 66.2948 54.6339C66.6116 54.5187 67.0516 54.439 67.43 54.439C67.7644 54.4302 68.2396 54.4745 68.486 54.5364C68.7236 54.6073 69.1636 54.7756 69.454 54.9084C69.7444 55.0501 70.1052 55.2538 70.246 55.3512C70.3956 55.4486 70.6332 55.6257 70.7828 55.7497C70.9236 55.8737 71.1348 56.1128 71.258 56.2811C71.3724 56.4493 71.5044 56.7327 71.5396 56.901C71.5924 57.0958 71.5836 57.3172 71.5308 57.5032C71.4516 57.7246 71.2756 57.884 70.7036 58.2383C70.3076 58.4951 69.6476 58.9202 69.234 59.1947C68.8204 59.4781 68.2924 59.8235 68.0548 59.9652C67.8173 60.1068 67.2897 60.4254 66.8938 60.6644L66.8932 60.6648C66.4884 60.9128 65.4588 61.5681 64.5964 62.1261C63.7428 62.684 62.5196 63.4987 61.886 63.9238C61.2612 64.3578 60.214 65.0485 59.5716 65.4736C58.9292 65.8987 57.3892 66.9083 56.1396 67.7319C54.8988 68.5467 53.4996 69.4588 53.042 69.7688C52.5844 70.0699 52.1708 70.3356 52.118 70.3533C52.074 70.371 51.7044 70.5836 51.2996 70.8138C50.9036 71.0529 50.578 71.292 50.578 71.3363C50.578 71.3806 50.2524 71.6109 49.8476 71.8411C49.4516 72.0714 48.6684 72.5407 48.114 72.895C47.5596 73.2404 46.6444 73.7894 46.09 74.1083C45.5356 74.4271 44.8492 74.7636 44.5764 74.8522C44.198 74.9762 44.0748 74.985 44.066 74.9053C44.066 74.8433 44.3916 74.4448 44.7876 74.0197C45.1924 73.5858 45.87 72.9393 46.31 72.5762C46.7412 72.2131 47.3396 71.6994 47.63 71.4249C47.9204 71.1504 48.7476 70.4596 49.478 69.8839C50.1996 69.3083 51.018 68.6264 51.282 68.3696C51.546 68.1127 52.1444 67.5902 52.602 67.2006C53.0596 66.8109 53.7372 66.2707 54.098 65.9873C54.4588 65.7039 55.6468 64.6943 56.738 63.7379C57.8292 62.7725 59.29 61.453 59.994 60.7977C60.698 60.1423 61.8244 59.0619 62.502 58.3888C63.1796 57.7158 64.1916 56.6353 64.7548 55.9888Z" fill="#D0422E"/>
<path d="M97.746 20.7508C97.9132 20.6268 98.23 20.4851 98.45 20.4408C98.6788 20.3965 99.0484 20.3965 99.33 20.4408C99.594 20.4851 99.8932 20.5559 99.99 20.6179C100.087 20.6711 100.342 20.8482 100.562 21.0164C100.782 21.1847 101.037 21.4415 101.134 21.6009C101.231 21.7515 101.354 22.1146 101.407 22.4068C101.495 22.8408 101.495 23.009 101.389 23.2924C101.328 23.4873 101.16 23.7529 101.028 23.8769C100.888 24.0009 100.377 24.3286 99.8844 24.6031C99.11 25.0371 98.9164 25.1079 98.142 25.0814L98.6084 25.0282C98.9692 24.9839 99.1188 24.9131 99.3124 24.7094C99.4532 24.5677 99.594 24.364 99.6292 24.2666C99.6732 24.1692 99.6996 23.8504 99.6908 23.5581C99.682 23.2659 99.6292 22.9736 99.5676 22.9116C99.506 22.8496 99.2948 22.7168 99.0836 22.6194C98.8812 22.5308 98.582 22.4511 98.4236 22.4511C98.274 22.4511 98.01 22.5308 97.8516 22.6282C97.702 22.7257 97.4644 22.8054 97.3236 22.8054C97.1916 22.8054 97.0156 22.8762 96.9276 22.9648C96.8396 23.0533 96.7692 23.2482 96.7692 23.7352L96.6372 23.3367C96.5756 23.1153 96.514 22.8142 96.514 22.6725C96.514 22.5308 96.6108 22.2031 96.7164 21.964C96.8308 21.7161 97.042 21.3972 97.1828 21.2556C97.3236 21.105 97.5788 20.8836 97.746 20.7508Z" fill="#EB994C"/>
<path d="M97.3236 22.8054C97.4556 22.8054 97.702 22.7256 97.8604 22.6282C98.01 22.5307 98.274 22.451 98.4324 22.451C98.582 22.451 98.8812 22.5307 99.0924 22.6193C99.2948 22.7167 99.506 22.8496 99.5676 22.9116C99.6292 22.9736 99.682 23.2659 99.6908 23.5581C99.6996 23.8504 99.6732 24.1691 99.638 24.2665C99.594 24.3639 99.4356 24.5765 99.2684 24.727C99.0308 24.9662 98.9076 25.0193 98.582 25.0193C98.362 25.0193 98.054 24.9573 97.9044 24.8953C97.746 24.8245 97.5348 24.6916 97.438 24.6031C97.3412 24.5145 97.1564 24.3108 97.0244 24.1603C96.8396 23.9389 96.778 23.7794 96.778 23.4961C96.778 23.2658 96.8396 23.0533 96.9276 22.9648C97.0068 22.8762 97.1828 22.8054 97.3236 22.8054Z" fill="#E88740"/>
<path d="M60.302 12.373C60.5924 12.2668 60.9884 12.1428 61.182 12.0985C61.3756 12.0542 61.9476 12.0188 62.458 12.0099C62.9684 12.0099 63.6196 12.0631 63.91 12.1251C64.2004 12.187 64.614 12.3287 64.834 12.435C65.054 12.5413 65.406 12.7361 65.626 12.869C65.846 13.0018 66.2508 13.3295 66.5412 13.5952C66.8228 13.8608 67.166 14.2416 67.3068 14.4365C67.4476 14.6313 67.6764 15.0298 67.826 15.3221C67.9756 15.632 68.1428 16.1811 68.222 16.6505C68.2924 17.0844 68.354 17.6512 68.354 17.8903C68.354 18.1383 68.2748 18.6962 68.1868 19.1302C68.0988 19.5641 67.9404 20.1043 67.8436 20.3257C67.738 20.5471 67.5532 20.8217 67.43 20.9457C67.3068 21.0696 67.2012 21.2025 67.2012 21.2556C67.2012 21.3088 66.9988 21.5036 66.7524 21.6984C66.506 21.8933 66.1452 22.2032 65.9428 22.3803C65.7404 22.5575 65.3444 22.7966 65.054 22.9117C64.7636 23.018 64.2268 23.1597 63.866 23.2217C63.5052 23.2836 62.8892 23.3634 62.502 23.3899C61.9388 23.4342 61.6572 23.4076 61.094 23.2482C60.7068 23.142 60.1524 22.9117 59.862 22.7346C59.5716 22.5575 59.0964 22.1766 58.806 21.8755C58.5068 21.5833 58.146 21.1671 57.9964 20.9457C57.8556 20.7243 57.6268 20.3257 57.5036 20.0601C57.3804 19.7944 57.1868 19.2984 57.0724 18.9531C56.914 18.4571 56.87 18.1383 56.87 17.359C56.8788 16.4645 56.9052 16.3228 57.178 15.632C57.3364 15.2158 57.6356 14.649 57.8292 14.3568C58.0316 14.0734 58.41 13.6483 58.674 13.418C58.938 13.1789 59.2988 12.8955 59.466 12.7715C59.6332 12.6564 60.0116 12.4793 60.302 12.373Z" fill="#E2A76C"/>
<path d="M97.7372 20.1575C97.8604 20.0866 98.142 20.0069 98.362 19.9715C98.582 19.9272 98.978 19.9184 99.242 19.9449C99.506 19.9715 99.902 20.0778 100.113 20.184C100.333 20.2815 100.676 20.5294 100.879 20.7243C101.081 20.9191 101.345 21.2556 101.477 21.477C101.671 21.8047 101.715 21.9995 101.75 23.3191L101.31 23.9567C101.037 24.3552 100.738 24.6829 100.518 24.8069C100.324 24.922 99.8932 25.0991 99.55 25.1966C98.9956 25.356 98.8812 25.3648 98.3708 25.2674C98.054 25.2054 97.79 25.0991 97.7724 25.046C97.7548 24.9574 97.8164 24.9486 98.0364 25.0194C98.186 25.0726 98.4676 25.108 98.6524 25.108C98.8812 25.108 99.2332 24.9662 99.8844 24.6031C100.377 24.3286 100.888 24.0009 101.028 23.8769C101.16 23.7529 101.328 23.4873 101.389 23.2924C101.495 23.009 101.495 22.8408 101.407 22.4068C101.354 22.1146 101.231 21.7515 101.134 21.6009C101.037 21.4415 100.738 21.1493 100.474 20.9545C100.21 20.7508 99.8492 20.5471 99.682 20.5029C99.5148 20.4586 99.2156 20.4143 99.022 20.4054C98.8284 20.3966 98.5292 20.4232 98.362 20.4586C98.1948 20.494 97.9132 20.6268 97.746 20.7508C97.5788 20.8836 97.3236 21.105 97.1828 21.2556C97.042 21.3972 96.8308 21.7161 96.7164 21.964C96.6108 22.212 96.514 22.5132 96.514 22.6549C96.514 22.7877 96.5756 23.142 96.6548 23.4431C96.734 23.753 96.8484 24.063 96.9188 24.1338C96.9804 24.2047 97.042 24.2932 97.042 24.3375C97.042 24.3729 97.0156 24.3995 96.9804 24.3995C96.9364 24.4084 96.8044 24.2135 96.6812 23.9833C96.558 23.753 96.3996 23.3368 96.338 23.0711C96.2764 22.8054 96.25 22.4423 96.2852 22.2741C96.3116 22.1058 96.4524 21.7161 96.602 21.415C96.7428 21.1051 97.0068 20.7243 97.1828 20.5737C97.3588 20.4143 97.6052 20.2283 97.7372 20.1575Z" fill="#E2A76C"/>
<path d="M44.4532 28.048C44.2772 28.0303 44.2068 27.986 44.2772 27.9417C44.33 27.8974 44.5148 27.8709 44.682 27.8709C44.8492 27.8709 45.1572 27.9417 45.3596 28.0391C45.5972 28.1454 45.738 28.2694 45.738 28.3668C45.738 28.4465 45.6588 28.6502 45.562 28.8096C45.4652 28.9602 45.3332 29.0841 45.2716 29.0664C45.2188 29.0487 45.1308 28.8893 45.078 28.7033C45.0252 28.5262 44.9196 28.3579 44.8316 28.3402C44.7524 28.3137 44.6908 28.2428 44.6996 28.1897C44.7172 28.1188 44.6116 28.0657 44.4532 28.048Z" fill="#E57067"/>
<path d="M60.434 13.2764C60.7508 13.1524 61.1468 12.993 61.314 12.931C61.4988 12.8601 61.8948 12.8247 62.282 12.8336C62.7484 12.8513 63.03 12.9133 63.25 13.0373C63.4172 13.1347 63.7516 13.2675 63.998 13.3295C64.2356 13.3826 64.5348 13.5066 64.658 13.5952C64.7812 13.6837 64.9748 13.7812 65.098 13.8077C65.2212 13.8431 65.4412 13.9671 65.582 14.0911C65.7228 14.2062 65.8724 14.3037 65.9076 14.3037C65.9516 14.3037 66.1276 14.4011 66.3036 14.5251C66.4884 14.649 66.8316 14.9856 67.078 15.269C67.43 15.6852 67.562 15.9332 67.738 16.5265C67.9228 17.1553 67.958 17.4387 67.9492 18.3332C67.9404 19.3162 67.914 19.4313 67.6852 19.9095C67.5444 20.1929 67.342 20.4852 67.2276 20.556C67.122 20.6269 66.8052 20.7331 66.5236 20.804C66.2508 20.8748 65.8812 20.9722 65.714 21.0254C65.5468 21.0785 65.1332 21.2822 64.79 21.4859C64.4468 21.6984 64.0772 21.973 63.954 22.1058C63.8308 22.2387 63.558 22.4335 63.338 22.5486C63.118 22.6549 62.8188 22.7789 62.678 22.8232C62.5372 22.8674 62.194 22.9294 61.9212 22.9649C61.6396 23.0003 61.4284 23.0091 61.446 22.9826C61.4548 22.956 61.666 22.9117 61.8948 22.8763C62.1764 22.832 62.4932 22.6903 62.81 22.4689C63.074 22.2829 63.5316 21.8401 63.8308 21.477C64.1564 21.0608 64.3852 20.6977 64.4116 20.5029C64.4468 20.3258 64.4204 20.0158 64.35 19.7944C64.2884 19.573 64.1388 19.1745 64.0156 18.9088C63.8924 18.6431 63.6372 18.2357 63.4348 18.0055C63.1884 17.7132 62.9684 17.5538 62.7484 17.4918C62.5636 17.4476 62.194 17.4033 61.93 17.4033C61.666 17.4033 61.2436 17.421 61.006 17.4564C60.7596 17.4918 60.39 17.5095 60.17 17.5007C59.95 17.5007 59.6772 17.5273 59.554 17.5804C59.4308 17.6247 59.2372 17.6778 59.114 17.6867C58.9908 17.7044 58.7884 17.8018 58.674 17.9169C58.5508 18.0232 58.3132 18.156 58.146 18.2003C57.9788 18.2534 57.8028 18.2889 57.75 18.2889C57.6972 18.2977 57.618 18.3597 57.5564 18.4483C57.4948 18.528 57.442 18.6697 57.442 18.7582C57.442 18.8379 57.4156 18.8911 57.3716 18.8734C57.3364 18.8557 57.2836 18.528 57.2484 18.1472C57.2132 17.7575 57.2132 17.2262 57.2572 16.9605C57.3012 16.6948 57.4332 16.252 57.5652 15.9863C57.6884 15.7206 58.0404 15.2247 58.3308 14.8793C58.63 14.5339 59.0964 14.0911 59.3692 13.8874C59.642 13.6749 60.1172 13.4003 60.434 13.2764Z" fill="#EB994C"/>
<path d="M60.9445 17.5007C61.1557 17.5007 61.3757 17.4564 61.4285 17.4033C61.4901 17.359 61.7277 17.3413 61.9741 17.3679C62.2117 17.3944 62.5637 17.4564 62.7397 17.5007C62.9773 17.5538 63.1885 17.7132 63.4349 17.9966C63.6373 18.2357 63.8924 18.6431 64.0156 18.9088C64.1388 19.1745 64.2885 19.573 64.3589 19.7944C64.4381 20.0867 64.4557 20.2903 64.3941 20.5472C64.3413 20.7597 64.1125 21.1494 63.8221 21.4948C63.5581 21.8313 63.1533 22.2387 62.9157 22.4069C62.6869 22.5752 62.3437 22.7612 62.1501 22.8143C61.9565 22.8674 61.5429 22.9117 61.2261 22.9029C60.7157 22.894 60.5837 22.8497 60.0381 22.5221C59.6949 22.3184 59.1581 21.8844 58.8413 21.5656C58.4717 21.2025 58.1461 20.7774 57.9701 20.4143C57.8117 20.0955 57.6181 19.635 57.5301 19.3959C57.4509 19.1479 57.3981 18.8911 57.4157 18.8202C57.4421 18.7494 57.5037 18.5988 57.5565 18.4837C57.6181 18.3774 57.6972 18.2889 57.75 18.2889C57.8028 18.2889 57.9788 18.2534 58.146 18.2003C58.3132 18.156 58.5508 18.0232 58.674 17.9169C58.7884 17.8018 58.9908 17.7044 59.114 17.6867C59.2372 17.6778 59.4308 17.6247 59.554 17.5804C59.6772 17.5273 59.95 17.4918 60.17 17.5007L60.9445 17.5007Z" fill="#E88740"/>
<path d="M59.3692 22.1854C59.1492 22.0172 58.85 21.7338 58.7092 21.5655C58.5244 21.3353 58.5948 21.3795 58.982 21.7249C59.2724 21.9906 59.7652 22.3537 60.082 22.5485C60.3988 22.7345 60.6276 22.8939 60.5924 22.8939C60.5484 22.8939 60.3548 22.8053 60.1524 22.6991C59.9412 22.5928 59.5892 22.3625 59.3692 22.1854Z" fill="#C86C65"/>
</svg>
