<svg width="132" height="88" viewBox="0 0 132 88" fill="none" xmlns="http://www.w3.org/2000/svg">
<path fill-rule="evenodd" clip-rule="evenodd" d="M39.0569 13.6094C36.7138 14.8858 35.5829 16.0179 34.5477 18.1247C33.7877 19.671 33.1547 21.5691 33.1404 22.342C33.1185 23.5372 33.4431 23.7478 35.304 23.7478C37.2805 23.7478 37.4932 23.5791 37.4932 22.0127C37.4932 18.3602 41.0779 15.6255 45.8655 15.6255C51.6063 15.6255 53.8456 17.8467 53.8456 23.5391C53.8456 28.7867 50.8301 31.2452 44.3937 31.2452C41.3137 31.2452 41.2462 31.2852 41.2462 33.1196V34.9939H45.0242C50.2365 34.9939 53.469 36.6715 54.3479 39.8335C56.26 46.7099 53.0818 51.2384 46.3427 51.2384C40.6764 51.2384 38.0768 49.2884 36.5549 43.8971C36.2553 42.8369 35.693 42.4913 34.2688 42.4913C32.396 42.4913 32.3829 42.5145 32.807 45.1467C33.333 48.4099 34.3369 50.0519 37.0904 52.1493C45.8817 58.847 59.3137 53.2464 59.3719 42.8587C59.3887 39.8341 57.0106 35.5925 54.356 33.9137L52.4238 32.6916L54.0583 31.6219C58.4311 28.7604 59.5595 21.819 56.4339 17.0051C53.0387 11.7744 45.2281 10.248 39.0569 13.6094ZM65.1715 12.3891C64.1525 12.5335 63.7641 13.0077 63.7641 14.1073C63.7641 15.4144 64.0568 15.6255 65.8708 15.6255C67.8348 15.6255 67.9981 15.7842 68.2796 17.9685C68.4453 19.2574 68.4747 27.1997 68.3452 35.6187L68.1101 50.926L65.9371 51.1196C64.1037 51.2833 63.7641 51.552 63.7641 52.8378V54.3623L74.2412 54.3485C83.2008 54.3367 85.0998 54.1617 87.351 53.1408C91.2772 51.3608 95.2785 47.0304 96.8335 42.8781C98.6162 38.1197 98.7006 28.9147 97.003 24.4513C94.6906 18.3715 89.437 13.6318 84.0928 12.8028C81.3418 12.376 67.4107 12.0711 65.1715 12.3891ZM72.8338 50.926L76.9621 51.1084C86.773 51.5426 93.1444 45.9989 94.1414 36.161C94.9633 28.0494 92.532 21.6878 87.204 18.0085C84.9153 16.4278 84.2348 16.2903 78.6097 16.2709L72.501 16.2503L72.8338 50.926Z" fill="#BC033F"/>
<path fill-rule="evenodd" clip-rule="evenodd" d="M33.5147 53.5461C33.2952 53.7661 33.115 54.742 33.115 55.716C33.115 57.3224 33.3177 57.486 35.3043 57.486C37.3196 57.486 37.4935 57.3373 37.4935 55.6117C37.4935 54.5808 37.2827 53.7167 37.0244 53.6911C36.766 53.6655 35.961 53.5324 35.2348 53.3956C34.5086 53.2587 33.7349 53.3268 33.5147 53.5461ZM30.9802 60.5219C30.4241 61.4203 31.2491 63.1091 32.2437 63.1091C32.9111 63.1091 33.115 64.2062 33.115 67.795C33.115 71.5437 32.9274 72.4809 32.1768 72.4809C31.5932 72.4809 31.2385 73.0707 31.2385 74.0429C31.2385 75.5461 31.3886 75.6049 35.2373 75.6049C37.8663 75.6049 39.335 75.3374 39.5239 74.8239C39.9504 73.6643 39.3844 72.4809 38.4023 72.4809C37.7393 72.4809 37.4972 71.067 37.3596 66.3893L37.1807 60.2976L34.2665 60.1095C32.6634 60.0058 31.1847 60.1914 30.9802 60.5219ZM43.9167 60.7424C41.7437 61.7896 39.8366 66.2868 40.347 69.1602C40.8499 71.9917 43.836 75.3874 46.2992 75.9279C49.2341 76.572 53.6895 73.6643 53.7364 71.0751C53.7652 69.4907 50.5364 69.6107 49.5231 71.2313C47.6028 74.3034 44.3489 71.5394 44.7449 67.1721C45.0852 63.4115 48.7881 61.4953 49.2647 64.8329C49.4686 66.2599 51.8349 67.3452 53.0746 66.5798C54.0467 65.98 53.1591 62.3156 51.7423 61.0786C50.3318 59.8465 46.1479 59.6666 43.9167 60.7424ZM58.0373 61.3941C55.83 63.2584 55.0068 65.0291 55.0099 67.91C55.0162 74.3272 61.41 78.0559 66.2526 74.4665C68.7021 72.6515 69.4739 70.6703 69.2025 66.8941C68.9904 63.9426 68.6814 63.2634 66.8544 61.7396C64.1516 59.486 60.468 59.3417 58.0373 61.3941ZM70.2302 60.9624C70.0012 61.5584 70.3747 62.3032 71.1884 62.8717C72.3275 63.6689 72.5214 64.4256 72.5214 68.0699C72.5214 71.8099 72.3675 72.3753 71.2704 72.6621C69.7579 73.057 69.5778 75.4255 71.0383 75.7154C71.5981 75.8267 73.5684 75.821 75.4168 75.7029C79.0084 75.4743 79.637 74.6795 77.7318 72.7764C76.9411 71.9867 76.7253 70.7996 76.8436 67.8956C77.0137 63.7445 77.4203 63.1429 79.7552 63.589C81.1933 63.8632 81.2783 64.1194 81.2783 68.1805C81.2783 71.5868 81.0832 72.4809 80.3401 72.4809C79.7565 72.4809 79.4018 73.0707 79.4018 74.0429C79.4018 75.5605 79.5269 75.6049 83.7803 75.6049C86.1885 75.6049 88.1588 75.3468 88.1588 75.0313C88.1588 73.7861 87.3582 72.4809 86.5944 72.4809C86.0234 72.4809 85.7225 71.0114 85.5592 67.4214C85.3591 63.0167 85.1389 62.2082 83.8598 61.1735C82.2585 59.8784 79.3724 59.6222 77.5222 60.6119C76.7391 61.0305 76.2218 61.0305 75.9628 60.6119C75.3155 59.5653 70.6574 59.8502 70.2302 60.9624ZM91.1381 60.963C87.188 63.1041 88.7574 67.6707 94.0022 69.2976C96.0745 69.9405 96.9158 70.5303 96.9158 71.3413C96.9158 73.0595 92.8088 72.9601 92.3559 71.2313C92.1351 70.3873 91.5027 69.9818 90.4068 69.9818C88.9707 69.9818 88.7843 70.2323 88.7843 72.1604C88.7843 74.0729 89.0602 74.454 91.0499 75.2843C94.0748 76.5464 96.1971 76.4727 98.5802 75.0207C100.793 73.673 101.596 71.8924 101.022 69.6063C100.656 68.1512 99.8969 67.6676 94.8335 65.6651C92.8513 64.881 92.8826 63.5234 94.8898 63.2272C95.7148 63.106 96.4629 63.5134 96.8958 64.3206C97.3055 65.0866 98.2106 65.6083 99.1269 65.6083C100.474 65.6083 100.669 65.3302 100.669 63.4059C100.669 61.6171 100.368 61.0898 99.0644 60.5944C96.7569 59.7184 93.1228 59.8871 91.1381 60.963ZM60.7764 64.0819C58.038 65.9975 59.3171 72.4809 62.4327 72.4809C64.2767 72.4809 65.0154 71.1108 65.0154 67.6919C65.0154 65.0791 64.7664 64.2694 63.8057 63.7558C62.2845 62.9429 62.4258 62.9279 60.7764 64.0819Z" fill="#030303"/>
</svg>
