<svg width="132" height="88" viewBox="0 0 132 88" fill="none" xmlns="http://www.w3.org/2000/svg">
<path d="M64.7871 52.3316L60.5973 80.2974C60.5492 80.6143 60.6064 80.9391 60.7591 81.2188C60.9115 81.4989 61.1512 81.7182 61.4391 81.8412C61.7268 81.9641 62.0463 81.9842 62.3466 81.8985C62.6465 81.812 62.9101 81.6245 63.0949 81.366L91.0787 42.1769C91.514 41.5678 91.7759 40.8472 91.8367 40.0942C91.8975 39.3405 91.7546 38.585 91.4235 37.9106C91.0924 37.2366 90.586 36.67 89.9611 36.2742C89.3361 35.878 88.6169 35.6685 87.8832 35.6685H67.2137L71.404 7.70419C71.452 7.38678 71.3949 7.06223 71.2421 6.78227C71.0897 6.50277 70.85 6.28342 70.5622 6.16039C70.2744 6.03735 69.955 6.01728 69.6546 6.10331C69.3547 6.18938 69.0911 6.37704 68.9064 6.6356L40.9215 45.8247C40.487 46.4334 40.2247 47.1541 40.1641 47.9074C40.1031 48.6607 40.2464 49.4163 40.5774 50.0903C40.9089 50.7643 41.4149 51.3309 42.0398 51.7267C42.6648 52.1221 43.3841 52.3316 44.1176 52.3316H64.7871Z" fill="url(#paint0_linear_2056_27539)"/>
<defs>
<linearGradient id="paint0_linear_2056_27539" x1="40.1504" y1="44.0008" x2="91.8504" y2="44.0008" gradientUnits="userSpaceOnUse">
<stop stop-color="#1B4ADC"/>
<stop offset="0.5" stop-color="#7000FF"/>
<stop offset="1" stop-color="#E700B7"/>
</linearGradient>
</defs>
</svg>
