<svg width="132" height="88" viewBox="0 0 132 88" fill="none" xmlns="http://www.w3.org/2000/svg">
<path d="M67.7057 6.89844H60.8828L59.1771 7.7513L54.0599 16.7064L51.0749 20.9707L46.3841 25.6615L42.1198 29.0729L37.429 31.6315L28.474 35.4694L21.651 38.8809L19.0924 41.8659L18.666 44.4245L19.9453 47.4095L23.3568 52.1003L28.0475 55.5117L34.8704 58.4967L37.8555 63.1875L41.2669 66.1725L45.1048 67.4518V68.3047H44.252L43.7289 69.1759L68.8101 79.177L83.8027 74.1531L83.4837 70.0104L86.0423 69.1575L89.4538 67.0254L92.0124 63.1875L104.379 57.6439L109.496 53.806L113.334 49.1152V46.1302L111.628 43.5716L108.217 41.4394L103.952 40.1602L97.556 37.1751L92.4388 33.3372L85.1895 26.0879L82.2044 22.25L80.0723 17.1328L78.3665 10.3099L75.8079 8.60417L67.7057 6.89844Z" fill="#FA6D5C"/>
<path fill-rule="evenodd" clip-rule="evenodd" d="M46.3841 68.7279L45.1048 67.875L43.3991 69.1543L42.9727 72.5658L44.6784 74.2715L47.237 75.9772L52.7806 77.6829L56.1921 78.9622L55.7656 81.0944H74.1029V78.5412L78.3672 77.6883L82.6315 75.5562L83.8403 74.7829L83.4837 70.86L81.778 70.4336L77.9401 72.5658H64.2943L61.3092 72.1393L54.0599 71.7129L50.6484 70.86L46.3841 69.5807V68.7279ZM91.1535 79.3855L91.1601 79.3941L93.7181 80.673V80.668L91.1595 79.3887L91.1535 79.3855Z" fill="#61588D"/>
<path d="M60.8828 6.89844H67.7057L75.8079 8.60417L78.3665 10.3099L80.0723 17.1328L82.2044 22.25L85.1895 26.0879L92.4388 33.3372L97.556 37.1751L103.952 40.1602L108.217 41.4395L111.628 43.5716L113.334 46.1302V49.1152L109.496 53.806L104.379 57.6439L92.8652 62.7611H92.0124L93.2917 56.3646L93.7181 53.806V47.8359L92.0124 43.1452L87.748 42.2923L78.3665 41.013H71.5436L64.2943 42.7188L57.4714 44.4245L56.1921 46.1302H54.0599L53.6335 45.7038L47.6634 46.1302L43.8255 46.5566H34.444V54.2324L35.2969 58.0703L32.7383 57.6439L26.7682 54.6589L22.9303 51.6738L19.9453 47.4095L18.666 44.4245L19.0924 41.8659L21.651 38.8809L28.474 35.4694L37.429 31.6315L42.1198 29.0729L46.3841 25.6615L51.0749 20.9707L54.0599 16.7064L57.4714 10.7363L59.1771 7.7513L60.8828 6.89844Z" fill="#61598E"/>
<path d="M92.0137 42.7188L95.8516 43.1452L106.939 45.2773L112.056 47.8359L112.909 49.5417L109.497 53.806L104.38 57.6439L92.8665 62.7611H92.0137L93.293 56.3646L93.7194 53.806V47.8359L92.0137 42.7188Z" fill="#2E274F"/>
<path d="M77.0859 41.8633H83.056L85.6146 43.9954L87.3203 47.4069L86.8939 50.3919L83.9089 53.377L83.056 53.8034H78.7917L75.8066 52.9505L73.6745 49.9655L73.248 46.9805L75.8066 43.1426L77.0859 41.8633Z" fill="#FCF8F8"/>
<path d="M19.0938 43.5742L22.0788 44.0007L25.0638 44.8535L34.0189 46.1328L34.4453 54.235L35.2982 58.0729L32.7396 57.6465L26.7695 54.6615L22.9316 51.6764L19.9466 47.4121L19.0938 45.2799V43.5742Z" fill="#302950"/>
<path d="M45.1048 67.8789L46.3841 68.7318V69.5846L50.6484 70.8639L54.0599 71.7168L61.3092 72.1432L65.5736 72.9961L63.8678 73.849L59.6035 75.9811L57.4714 78.1133L64.2943 78.5397V81.0983H55.7656L56.1921 78.9661L52.7806 77.6868L47.237 75.9811L44.6784 74.2754L42.9727 72.5697L43.3991 69.1582L45.1048 67.8789Z" fill="#877DA6"/>
<path d="M45.5312 55.0859H51.0749L55.3392 58.4974L59.6035 57.2181L61.7357 56.7917L65.1471 59.7767L67.7057 59.3503L71.97 57.6445L73.6758 58.4974L75.3815 59.7767L77.5137 58.9238L78.3665 58.4974H81.778L85.6159 59.7767V60.2031L79.2194 60.6296L74.9551 64.041H74.1022L71.5436 61.056L68.985 61.9089L65.5736 63.6146L63.4414 62.7617L60.8828 60.2031L58.7506 60.6296L56.6185 61.9089L54.9128 61.4824L50.222 57.6445L45.5312 55.5124V55.0859Z" fill="#3A284B"/>
<path d="M60.4551 14.1484L62.1608 15.0013L63.8665 16.2806L70.263 19.2656V19.6921L64.7194 20.5449H62.5872L61.7344 23.1035L58.7493 28.6471L57.4701 26.9414L56.6172 25.2357V22.6771L60.0286 14.5749L60.4551 14.1484Z" fill="#F6CD5E"/>
<path d="M59.1771 43.5742H60.8828L61.7357 45.7064L61.3092 47.4121L57.8978 50.3971L57.0449 50.8236H51.5013L48.9427 49.9707L47.237 47.8385L46.8105 46.1328L51.0749 45.2799H53.6335L54.0599 45.7064H56.1921L57.4714 44.0007L59.1771 43.5742Z" fill="#FAF6F6"/>
<path d="M57.4701 11.1602L59.1758 12.013L60.4551 13.2923L60.0286 15.8509L56.6172 23.5267L55.3379 22.2474L54.9115 21.3945L52.7793 22.2474L50.2207 23.5267L50.6471 21.3945L54.0586 16.7038L57.4701 11.1602Z" fill="#312B50"/>
<path d="M68.9837 43.5742H69.8366L71.1159 52.5293V55.5143L64.7194 55.0879L64.293 53.8086L68.5573 44.0007L68.9837 43.5742Z" fill="#3A294C"/>
<path d="M56.1921 78.9648H63.8678V81.097H55.7656L56.1921 78.9648Z" fill="#FDD05A"/>
<path d="M80.0736 45.7031H82.2057L83.0586 46.556L82.6322 48.6882L82.2057 49.1146H79.6471L79.2207 48.6882V46.556L80.0736 45.7031Z" fill="#3B355A"/>
<path d="M76.2344 41.0156H82.2044L87.748 41.8685L86.0423 42.7214L84.763 43.5742L83.0573 42.2949H76.6608L76.2344 41.0156Z" fill="#EE7A71"/>
<path d="M55.3405 44.4219H57.0462L56.1934 46.1276H54.0612L53.6348 44.8483L55.3405 44.4219Z" fill="#373158"/>
<path d="M56.1921 78.9648H58.3242L57.0449 80.6706L55.7656 81.097L56.1921 78.9648Z" fill="#E1BB5F"/>
</svg>
