<svg width="132" height="88" viewBox="0 0 132 88" fill="none" xmlns="http://www.w3.org/2000/svg">
<path fill-rule="evenodd" clip-rule="evenodd" d="M105.631 17.5615C102.705 18.7467 98.0053 24.8688 95.6495 30.5653C93.7458 35.1691 93.3437 35.5551 90.4565 35.5551C87.673 35.5551 87.3257 35.2675 87.321 32.9537C87.3068 25.6899 82.3469 17.5823 77.9174 17.5823C76.816 17.5823 74.8207 18.6786 73.4832 20.019C68.8093 24.7033 72.2666 33.1146 80.4696 37.0165L83.7259 38.565L83.0567 45.337C82.262 53.3756 79.6258 62.432 77.3445 64.9586C75.0227 67.5296 71.638 67.2506 69.7296 64.3314C66.1014 58.7816 69.1982 46.7266 74.4054 46.1288C75.8646 45.9613 77.6135 46.2858 78.2921 46.8496C80.3507 48.5617 82.1402 45.6274 80.2148 43.6967C76.1147 39.5885 69.7182 41.6374 66.444 48.1086C65.3312 50.3088 63.9466 52.4221 63.368 52.8042C62.1967 53.5771 55.2358 53.7965 55.2358 53.0615C55.2358 52.8042 56.3128 47.0586 57.6294 40.2923C59.4756 30.7998 59.7852 27.5439 58.981 26.0389C57.4237 23.1226 55.7304 24.3495 55.5322 28.5391C55.351 32.354 51.7436 50.7213 51.0357 51.4307C50.6752 51.7921 41.5972 49.1103 39.8927 48.1398C39.5 47.9156 40.8327 45.7381 42.8535 43.2995C49.6445 35.1086 51.6398 28.7282 49.2226 22.9315C47.1641 17.9928 40.1494 15.6563 39.3811 19.6529C39.1668 20.771 39.8483 21.3178 41.7228 21.5344C48.5128 22.3167 47.2632 32.7135 39.3424 41.347C34.9176 46.1704 34.7628 46.247 31.6765 45.1686C24.5259 42.6704 18.4258 44.9274 18.4258 50.0705C18.4258 55.5361 25.9756 57.1669 32.0757 53.018L35.6066 50.6172L43.03 53.2526L50.4534 55.888L49.8927 62.5322C49.4378 67.9203 49.6152 69.412 50.8271 70.4204C53.0008 72.2281 54.5053 70.8432 53.8106 67.6734C53.485 66.1873 53.4916 63.1424 53.8257 60.9052L54.4336 56.8386L59.0858 57.1669C63.6974 57.4923 63.7427 57.5263 64.3317 61.2221C65.1661 66.4503 69.1878 70.5547 73.4748 70.5547C80.3469 70.5547 85.3238 61.4832 86.8387 46.1969C87.4852 39.6756 87.6353 39.3388 89.8996 39.3388C92.0921 39.3388 92.2299 39.5838 91.6278 42.4131C88.6773 56.272 88.9718 64.2661 92.5763 68.1634C97.2087 73.1731 105.37 69.9446 109.148 61.6071C111.101 57.2984 111.463 49.1293 109.856 45.5962C107.749 40.9592 99.944 40.1741 97.3258 44.3353C95.9827 46.4693 98.0714 48.8133 99.7854 47.0955C101.242 45.6359 104.558 45.6359 106.015 47.0955C109.374 50.4621 105.512 63.8934 100.369 66.7313C98.0837 67.9922 97.658 67.9638 95.9846 66.4456C92.6424 63.4148 92.565 54.296 95.7798 42.3318C96.6783 38.986 97.4296 38.1867 101.276 36.4821C111.274 32.0513 116.508 23.1794 111.867 18.5282C109.829 16.4859 108.713 16.3128 105.631 17.5615ZM104.898 22.5882C102.554 24.9379 98.2281 32.6066 98.8793 33.2593C99.7656 34.1485 105.94 29.853 107.888 26.9934C111.489 21.7047 109.179 18.2993 104.898 22.5882ZM76.0364 22.7414C73.6748 25.5934 78.227 33.6632 82.1978 33.6632C85.2294 33.6632 81.6173 22.7698 78.2081 21.6309C77.6692 21.4502 76.6914 21.9506 76.0364 22.7414ZM22.8307 48.4832C21.4112 49.9049 22.3371 51.636 24.5164 51.636C27.9417 51.636 31.9945 49.6079 30.4863 48.6487C29.0261 47.7198 23.7066 47.6044 22.8307 48.4832Z" fill="black"/>
</svg>
