<svg width="132" height="88" viewBox="0 0 132 88" fill="none" xmlns="http://www.w3.org/2000/svg">
<path d="M48.1729 32.1758C45.8473 32.1758 43.574 32.8693 41.6403 34.1687C39.7067 35.468 38.1996 37.3148 37.3096 39.4755C36.4197 41.6363 36.1868 44.0139 36.6405 46.3077C37.0942 48.6015 38.2141 50.7086 39.8585 52.3623C41.5029 54.0161 43.5981 55.1423 45.879 55.5986C48.1599 56.0548 50.5241 55.8207 52.6726 54.9257C54.8212 54.0306 56.6576 52.515 57.9496 50.5704C59.2416 48.6258 59.9313 46.3395 59.9313 44.0008C59.9036 40.8732 58.6559 37.8816 56.4568 35.6699C54.2576 33.4583 51.2829 32.2036 48.1729 32.1758ZM48.1729 53.3425C46.3474 53.3542 44.5594 52.8212 43.0351 51.8109C41.5108 50.8007 40.3186 49.3585 39.6093 47.6669C38.8999 45.9752 38.7054 44.11 39.0501 42.3071C39.3948 40.5042 40.2634 38.8447 41.5461 37.5382C42.8287 36.2318 44.4677 35.3372 46.2559 34.9676C48.0441 34.5979 49.9011 34.7698 51.5921 35.4616C53.2831 36.1533 54.7322 37.3338 55.7561 38.8538C56.78 40.3737 57.3328 42.1649 57.3444 44.0008C57.3446 46.458 56.3821 48.8164 54.6654 50.5649C52.9487 52.3135 50.6161 53.3114 48.1729 53.3425ZM73.4416 32.1758C71.116 32.1758 68.8426 32.8693 66.909 34.1687C64.9753 35.468 63.4683 37.3148 62.5783 39.4755C61.6883 41.6363 61.4555 44.0139 61.9092 46.3077C62.3629 48.6015 63.4827 50.7086 65.1272 52.3623C66.7716 54.0161 68.8668 55.1423 71.1476 55.5986C73.4285 56.0548 75.7927 55.8207 77.9413 54.9257C80.0899 54.0306 81.9263 52.515 83.2183 50.5704C84.5103 48.6258 85.1999 46.3395 85.1999 44.0008C85.1999 40.8646 83.9611 37.8569 81.756 35.6392C79.5509 33.4216 76.5601 32.1758 73.4416 32.1758ZM73.4416 53.3425C71.6161 53.3542 69.8281 52.8212 68.3038 51.8109C66.7795 50.8007 65.5873 49.3585 64.8779 47.6669C64.1686 45.9752 63.974 44.11 64.3188 42.3071C64.6635 40.5042 65.5321 38.8447 66.8147 37.5382C68.0974 36.2318 69.7364 35.3372 71.5246 34.9676C73.3127 34.5979 75.1698 34.7698 76.8608 35.4616C78.5518 36.1533 80.0009 37.3338 81.0248 38.8538C82.0487 40.3737 82.6014 42.1649 82.6131 44.0008C82.6334 45.2232 82.411 46.4375 81.9587 47.5724C81.5065 48.7073 80.8336 49.74 79.9794 50.61C79.1253 51.48 78.1071 52.1698 76.9844 52.639C75.8618 53.1082 74.6573 53.3474 73.4416 53.3425ZM27.9486 39.2708C26.8525 39.0923 25.7313 39.1474 24.6577 39.4326C23.5841 39.7178 22.5821 40.2267 21.7167 40.9263V34.659H32.2992C32.6519 34.659 32.8871 34.5408 32.8871 33.4765C32.8871 32.4123 32.4167 32.4123 32.1816 32.4123H20.5408C20.2602 32.4123 19.991 32.5244 19.7925 32.724C19.5941 32.9236 19.4826 33.1943 19.4826 33.4765V43.8825C19.4826 44.4738 19.8353 44.592 20.4232 44.7103C20.601 44.7929 20.8009 44.8146 20.9921 44.7718C21.1833 44.7291 21.3552 44.6244 21.4815 44.4738C22.1393 43.5356 23.0249 42.7824 24.054 42.2856C25.083 41.7889 26.2213 41.5652 27.3607 41.6358C28.6868 41.8023 29.9223 42.4012 30.8779 43.3408C31.8335 44.2805 32.4566 45.5091 32.6519 46.8388C32.8313 48.4055 32.3885 49.98 31.4196 51.2201C30.4508 52.4602 29.0343 53.2654 27.4782 53.4608H26.7727C25.5684 53.4437 24.3972 53.0623 23.4115 52.3663C22.4258 51.6703 21.6713 50.6919 21.2463 49.5585C21.1287 49.2038 20.8936 48.9673 19.9529 49.322C19.0122 49.6768 18.8947 49.9133 19.0122 50.268C19.7779 52.3248 21.3154 53.9973 23.2943 54.9261C25.2732 55.8548 27.5355 55.9656 29.5947 55.2345C31.6399 54.4646 33.303 52.9183 34.2265 50.9282C35.15 48.938 35.2601 46.663 34.5332 44.592C34.0162 43.1895 33.1309 41.9541 31.9715 41.0171C30.812 40.0802 29.4218 39.4767 27.9486 39.2708ZM93.1956 32.294C91.6387 32.4743 90.2025 33.2252 89.1613 34.4031C88.1202 35.5811 87.5471 37.1035 87.5516 38.6795V49.2038C87.5516 49.795 88.0219 49.9133 88.7274 49.9133C89.4329 49.9133 89.9033 49.795 89.9033 49.2038V38.6795C89.8826 37.7055 90.2186 36.7578 90.8473 36.0165C91.4759 35.2753 92.3535 34.7922 93.3132 34.659C93.8415 34.6054 94.3751 34.6617 94.8808 34.8244C95.3866 34.9872 95.8536 35.2529 96.2528 35.605C96.6573 35.9578 96.982 36.3936 97.2051 36.8832C97.4282 37.3727 97.5445 37.9045 97.5462 38.443C97.468 39.2505 97.1845 40.0242 96.7231 40.6898C96.3516 41.2086 95.8536 41.6226 95.277 41.8918C94.7004 42.161 94.0646 42.2765 93.4308 42.227C92.9604 42.227 92.6077 42.227 92.4901 43.2913C92.4901 44.0008 92.4901 44.3555 93.078 44.4738C94.2601 44.5951 95.4507 44.3473 96.4879 43.7643C97.4214 43.2859 98.2218 42.5815 98.8171 41.7145C99.4124 40.8475 99.7838 39.8451 99.8978 38.7978C99.9652 37.9873 99.8714 37.1715 99.6218 36.3978C99.3723 35.6242 98.9721 34.9083 98.4445 34.2919C97.9169 33.6755 97.2726 33.1709 96.5491 32.8076C95.8255 32.4443 95.0373 32.2295 94.2303 32.1758C93.894 32.2708 93.5446 32.3107 93.1956 32.294ZM108.599 38.443L112.832 34.186C112.95 34.0678 113.302 33.713 112.597 32.8853C112.5 32.7533 112.377 32.6431 112.235 32.5617C112.093 32.4802 111.936 32.4294 111.774 32.4123C111.683 32.414 111.593 32.4362 111.512 32.4771C111.431 32.518 111.359 32.5767 111.303 32.6488L107.07 36.9058L102.837 32.5305C102.485 32.1758 102.132 32.294 101.544 32.767C100.956 33.24 100.956 33.713 101.309 34.0678L105.542 38.3248L101.285 42.7C101.162 42.8304 101.08 42.9952 101.05 43.173C101.053 43.3396 101.098 43.5027 101.18 43.6474C101.262 43.792 101.379 43.9135 101.52 44.0008C101.751 44.2261 102.034 44.3889 102.344 44.4738C102.557 44.4472 102.759 44.3657 102.931 44.2373L107.164 39.9803L111.397 44.2373C111.453 44.3094 111.525 44.3681 111.606 44.409C111.687 44.4499 111.777 44.472 111.868 44.4738C112.03 44.4567 112.187 44.4058 112.329 44.3244C112.471 44.243 112.594 44.1327 112.691 44.0008C113.044 43.5278 113.161 43.0548 112.809 42.8183L108.599 38.443Z" fill="black"/>
</svg>
