<svg width="132" height="88" viewBox="0 0 132 88" fill="none" xmlns="http://www.w3.org/2000/svg">
<path d="M39.8668 12.1016H103.4C99.8801 33.4037 96.1634 54.6703 92.2497 75.9016H28.5996V75.338L39.8668 12.1016ZM54.8257 49.2385C53.8774 53.9756 50.2336 53.4227 46.4193 53.2845C46.2443 53.2786 46.0724 53.3288 45.9292 53.4275C45.7861 53.5262 45.6796 53.6682 45.6255 53.8321L44.1339 58.314C44.1005 58.4137 44.0877 58.5191 44.0962 58.624C44.1048 58.7288 44.1346 58.831 44.1839 58.9243C44.2331 59.0176 44.3008 59.1002 44.3828 59.167C44.4648 59.2339 44.5595 59.2838 44.6613 59.3136C51.4855 61.2754 58.2245 59.6113 61.261 52.689C63.3653 47.8987 67.6377 34.5645 63.3653 30.0932C60.4513 27.0414 53.2115 27.5252 50.0471 29.9656C46.2861 32.8685 44.8797 39.4239 44.9436 44.0919C45.0235 49.8818 49.9566 49.919 54.5433 48.962C54.7777 48.9124 54.8719 49.0045 54.8257 49.2385ZM77.9407 49.1906C77.0457 53.965 73.274 53.4759 69.5023 53.2898C69.3327 53.2802 69.1649 53.3267 69.0251 53.4219C68.8853 53.5172 68.7814 53.6558 68.7298 53.8161L67.2222 58.3406C67.1844 58.4547 67.171 58.5755 67.183 58.6951C67.1951 58.8147 67.2322 58.9304 67.292 59.0347C67.3518 59.139 67.4329 59.2296 67.5301 59.3005C67.6273 59.3715 67.7384 59.4212 67.8562 59.4465C77.6636 61.5519 82.895 58.229 85.8037 48.8769C87.3273 43.9803 89.1545 37.4408 87.9026 32.5441C86.2352 26.0153 74.4034 27.0999 71.3615 31.6563C69.1205 35.0128 68.0142 38.9454 68.0426 43.4539C68.0852 49.8127 72.6773 50.1636 77.6743 48.9354C77.8945 48.8823 77.9833 48.9673 77.9407 49.1906Z" fill="#2C2C2C"/>
<path d="M56.9775 36.0585C56.9562 37.6322 56.2956 45.1074 52.9607 42.917C52.8009 42.8106 52.7175 42.6635 52.7104 42.4757C52.6358 40.6202 53.1206 34.8037 55.9387 34.9526C56.2217 34.969 56.4876 35.093 56.681 35.299C56.8745 35.5049 56.9806 35.7769 56.9775 36.0585Z" fill="#2C2C2C"/>
<path d="M79.9597 35.5215C80.5457 37.2494 79.4057 44.1026 76.4863 43.103C76.2602 43.0264 76.0648 42.8789 75.9295 42.6825C75.7941 42.4861 75.726 42.2513 75.7352 42.0131C75.7991 40.1842 76.4331 33.9318 79.5868 35.1387C79.7715 35.2096 79.8958 35.3372 79.9597 35.5215Z" fill="#2C2C2C"/>
</svg>
