<svg width="132" height="88" viewBox="0 0 132 88" fill="none" xmlns="http://www.w3.org/2000/svg">
<path fill-rule="evenodd" clip-rule="evenodd" d="M63.4377 5.58567C62.1012 6.26972 54.6723 10.1796 46.9286 14.2738C35.4739 20.3298 32.5482 21.7177 31.2348 21.7177C29.4045 21.7177 28 22.8015 28 24.2134C28 26.8017 31.8402 30.6918 36.8116 33.1392C39.3425 34.3854 39.803 34.4753 43.6461 34.4753H47.7666L46.0024 36.361C42.4452 40.1644 40.0043 44.7972 38.2624 51.0533C37.4337 54.0285 37.2004 55.9551 37.0344 61.2055C36.9218 64.7695 36.9947 68.8848 37.1964 70.3509C37.6662 73.7626 37.5006 74.2782 36.2973 73.1482L35.3666 72.2738L35.0875 73.1531L34.8085 74.0324L33.8341 73.117L32.86 72.2017V77.4567C32.86 81.0033 33.018 82.8691 33.346 83.1972C33.9855 83.8367 81.5438 83.88 88.3454 83.247C95.9894 82.5358 101.971 80.9547 103.528 79.2338C104.214 78.4752 104.2 78.4283 103.147 77.9483C102.546 77.6745 101.772 76.9046 101.427 76.2372L100.8 75.0242L100.007 76.1137C99.4729 76.8463 98.8427 77.2031 98.0833 77.2031C97.0716 77.2031 96.9258 77.0278 96.6844 75.5183L96.4151 73.8335L95.0948 75.1133C93.6279 76.5353 93.3249 76.6114 92.2853 75.8229C91.6964 75.3762 91.6433 75.0785 91.9892 74.1692C92.4088 73.0652 92.4043 73.0612 90.967 73.3309C89.7613 73.5573 89.398 73.4479 88.7642 72.6687C88.0206 71.7546 88.0218 71.7084 88.816 70.4193L89.6264 69.1031H88.0384C86.7299 69.1031 86.3678 68.9216 85.9806 68.0715C85.3184 66.6184 85.3889 66.0984 86.367 65.2171L87.2235 64.4455L85.8607 64.243C84.6421 64.062 84.4262 63.8259 83.8215 62.0155C82.8925 59.2327 82.9147 59.0788 84.2954 58.7755C84.9636 58.6289 85.5104 58.3839 85.5104 58.2316C85.5104 58.0789 84.7976 57.5135 83.9264 56.9753C82.8463 56.3078 82.2663 55.6169 82.1039 54.804C81.6831 52.7009 81.8411 51.7297 82.6754 51.2829C83.809 50.6763 83.6838 50.1445 82.3716 49.9934C81.3883 49.8804 81.2271 49.6524 80.9934 48.0429C80.7492 46.3581 80.8233 46.1402 81.9747 45.1613L83.2205 44.1018L81.7329 43.611C80.2778 43.1306 80.2454 43.0752 80.2454 41.0514C80.2454 39.4848 80.4592 38.755 81.1258 38.045L82.0067 37.1079H80.9845C79.9797 37.1079 79.9582 37.0418 79.701 33.1591C79.5573 30.9874 79.4386 27.0067 79.4374 24.3138C79.4333 14.8274 76.3355 7.63134 71.1818 5.13612C68.7255 3.94703 66.3712 4.08392 63.4377 5.58567Z" fill="#61755D"/>
<path fill-rule="evenodd" clip-rule="evenodd" d="M63.4164 5.86273C61.6462 6.72094 54.1394 10.6393 46.7348 14.5703C36.1294 20.2006 32.9464 21.7174 31.7387 21.7174C25.4782 21.7174 28.5275 28.8527 36.4574 32.7598C39.0421 34.0331 39.2807 34.0728 44.9937 34.1704C51.7491 34.2858 53.5753 34.7402 56.4556 37.0232C58.0918 38.3205 62.0131 42.9533 62.0115 43.5875C62.0111 43.6989 59.9626 44.8803 57.4592 46.2132C53.0022 48.5865 52.9374 48.6407 54.3253 48.8485C55.2394 48.985 55.563 49.1758 55.2366 49.3851C54.3909 49.9283 54.6684 50.4726 55.7902 50.4726C56.6504 50.4726 56.81 50.6249 56.6379 51.2826C56.5217 51.7281 56.4548 52.0926 56.4897 52.0926C56.5245 52.0926 58.3587 51.447 60.5656 50.6581C62.7729 49.8691 64.7201 49.3681 64.8935 49.5443C65.4301 50.0903 67.1955 55.9033 68.1537 60.2773C69.2873 65.4516 69.4773 73.9457 68.5008 75.7788L67.8941 76.9184L57.1607 76.6576C51.2578 76.5147 44.9568 76.2814 43.159 76.1396L39.8902 75.882L38.9239 74.0603L37.9575 72.2386L37.5926 73.333L37.2281 74.4269L36.2974 73.5529L35.3667 72.6785L35.0893 73.5529C34.8248 74.386 34.7758 74.3941 34.0383 73.727C33.2814 73.0418 33.2652 73.1337 33.2652 78.1448C33.2652 83.2308 33.2713 83.264 34.2526 83.5103C34.7957 83.6464 46.9608 83.6735 61.2865 83.5702C88.382 83.3754 92.5187 83.1373 98.4236 81.4318C100.903 80.7158 103.736 79.2796 103.736 78.7381C103.736 78.551 103.308 78.2351 102.786 78.0367C102.264 77.8382 101.601 77.1068 101.313 76.411L100.789 75.1466L100.041 76.377C98.7314 78.5304 96.4456 77.7341 96.4456 75.1251C96.4456 74.2479 96.3893 74.2633 95.1257 75.488C93.9261 76.6511 93.7143 76.7204 92.7969 76.2534C92.0214 75.8586 91.801 75.4467 91.8448 74.473C91.8982 73.2811 91.8415 73.2293 90.8845 73.5934C89.0503 74.2908 87.4837 72.2018 88.5825 70.5243L89.2487 69.5077H87.828C86.5652 69.5077 86.3388 69.3388 85.7936 67.9889C85.2153 66.5573 85.2282 66.4179 86.02 65.5622L86.8604 64.6546L85.5786 64.3982C84.4575 64.1738 84.2206 63.8851 83.6888 62.0937C82.874 59.3498 82.9116 59.0355 84.093 58.7391C85.4397 58.4009 85.3688 58.1636 83.5321 56.8647C82.2523 55.96 81.9344 55.4561 81.7428 54.0297C81.5585 52.6543 81.6735 52.1209 82.2989 51.4551C83.1449 50.5544 82.9776 50.0676 81.823 50.0676C81.2811 50.0676 81.0373 49.614 80.8279 48.2183C80.5817 46.5773 80.6695 46.2448 81.6063 45.2667L82.6617 44.1651L81.5079 43.7293C80.5355 43.3623 80.3091 42.9922 80.0661 41.3738C79.8194 39.7278 79.9037 39.32 80.6541 38.5213C81.5257 37.5935 81.5261 37.5878 80.7068 37.3278C79.67 36.9985 79.5392 35.9816 79.2569 26.0477C79.1147 21.0475 78.8183 17.5685 78.3938 15.9226C76.6823 9.28379 72.0106 4.31684 67.4664 4.30469C67.0092 4.30347 65.1867 5.00453 63.4164 5.86273Z" fill="#42513F"/>
<path d="M44.6035 15.7111L46.831 14.4961C47.5735 14.9011 49.18 16.1566 49.666 17.9386C48.37 15.6706 45.751 15.5086 44.6035 15.7111Z" fill="black"/>
<path d="M40.1484 18.1411L42.376 16.9261C43.1185 17.3311 44.725 18.5866 45.211 20.3686C43.915 18.1006 41.2959 17.9386 40.1484 18.1411Z" fill="black"/>
<path fill-rule="evenodd" clip-rule="evenodd" d="M64.2783 12.4129C63.8317 12.4452 63.4141 12.5571 63.1762 12.6463C62.9668 12.7249 62.7333 12.6187 62.6548 12.4093C62.5763 12.1999 62.6824 11.9664 62.8918 11.8879C63.1939 11.7746 63.6876 11.6435 64.2198 11.605C64.7441 11.567 65.3659 11.6144 65.8749 11.9198C66.3685 12.216 66.7319 12.7095 66.9831 13.1654C67.2376 13.6271 67.4017 14.0957 67.477 14.397C67.5312 14.614 67.3992 14.8339 67.1822 14.8881C66.9652 14.9424 66.7454 14.8104 66.6911 14.5934C66.6314 14.3545 66.4918 13.952 66.2737 13.5563C66.0524 13.1547 65.7745 12.8042 65.4582 12.6144C65.1572 12.4338 64.7327 12.3799 64.2783 12.4129Z" fill="black"/>
</svg>
