<?xml version="1.0" encoding="utf-8"?>
<svg width="132" height="88" viewBox="0 0 132 88" fill="none" xmlns="http://www.w3.org/2000/svg">
  <mask id="mask0_2056_21529" style="mask-type:luminance" maskUnits="userSpaceOnUse" x="32" y="19" width="68" height="50">
    <path d="M32.0156 19.832H99.9835V68.1647H32.0156V19.832Z" fill="white"/>
  </mask>
  <g mask="url(#mask0_2056_21529)">
    <path fill-rule="evenodd" clip-rule="evenodd" d="M50.9914 25.854C59.3855 17.8247 72.613 17.8248 81.0071 25.854L94.8536 39.098C101.483 45.4406 101.717 55.9574 95.3753 62.5885C89.0324 69.2196 78.5153 69.4533 71.8845 63.1104L65.9993 57.4812L60.114 63.1104C53.4832 69.4533 42.9662 69.2196 36.6232 62.5885C30.2812 55.9574 30.5151 45.4406 37.146 39.098L50.9914 25.854Z" style="fill: rgb(230, 229, 30);"/>
    <path fill-rule="evenodd" clip-rule="evenodd" d="M61.0779 36.3632C63.8347 33.7383 68.1657 33.7383 70.9223 36.3632L83.2654 48.1192C84.0811 48.8958 84.1121 50.1863 83.3355 51.0017C82.5589 51.8174 81.2684 51.8487 80.4527 51.0724L68.1096 39.3164C66.9282 38.1914 65.0722 38.1914 63.8906 39.3164L51.5475 51.0724C50.7318 51.8487 49.4404 51.8174 48.6638 51.0017C47.8872 50.1863 47.9191 48.8958 48.7348 48.1192L61.0779 36.3632Z" fill="black"/>
    <path fill-rule="evenodd" clip-rule="evenodd" d="M84.3507 43.9297C85.4771 43.9297 86.3895 44.8424 86.3895 45.9688V52.0103C86.3895 53.1364 85.4771 54.0491 84.3507 54.0491H78.3084C77.1831 54.0491 76.2695 53.1364 76.2695 52.0103C76.2695 50.8842 77.1831 49.9712 78.3084 49.9712H82.3116V45.9688C82.3116 44.8424 83.2243 43.9297 84.3507 43.9297Z" fill="black"/>
  </g>
</svg>