<svg width="132" height="88" viewBox="0 0 132 88" fill="none" xmlns="http://www.w3.org/2000/svg">
<path fill-rule="evenodd" clip-rule="evenodd" d="M65.8611 45.1461C65.7495 45.1911 65.7187 46.6025 65.7187 51.6656C65.7187 55.2197 65.6861 58.1601 65.6463 58.1998C65.6065 58.2396 65.4399 58.1036 65.2759 57.8976C64.0772 56.3913 62.0165 55.1836 59.7876 54.6812C58.5978 54.4129 58.3181 54.3913 56.6575 54.4391C54.9427 54.4884 54.759 54.5161 53.5801 54.9028C50.6282 55.8708 48.5662 57.6451 47.2076 60.386C46.2441 62.33 45.8132 64.0171 45.6521 66.4779C45.2838 72.1 46.8002 76.5663 50.0237 79.3537C51.4657 80.6006 53.3916 81.4578 55.6317 81.8497C56.7239 82.0409 59.8475 81.9454 60.7607 81.6929C62.9486 81.0881 64.6436 79.9794 65.5325 78.5721C65.702 78.3036 65.8903 78.1145 65.9507 78.1519C66.0124 78.19 66.0606 78.8913 66.0606 79.7523V81.2848L71.5885 81.2238L71.6178 63.2896C71.6451 46.5296 71.6344 45.3461 71.4535 45.2131C71.3109 45.1082 70.5673 45.0731 68.6318 45.0798C67.1862 45.0846 65.9395 45.1146 65.8611 45.1461ZM76.8884 59.7579L90.2061 59.8166L75.8626 77.2039V81.2807H99V76.7276L83.2758 76.6691L98.2022 59.1877V55.0911H76.8884V59.7579ZM56.7145 59.295C55.8257 59.5324 55.6322 59.6313 54.7614 60.2931C52.5557 61.9689 51.5285 64.549 51.5285 68.4137C51.5285 72.1119 52.6887 74.7646 54.9846 76.3167C55.755 76.8373 56.2352 77.0302 57.4333 77.2998C58.2385 77.481 60.0824 77.3055 61.0373 76.9568C62.5208 76.415 63.8762 75.1273 64.6961 73.4808C65.5218 71.8224 65.8302 70.3646 65.8316 68.113C65.8334 64.9968 65.0686 62.5882 63.5661 60.9787C62.939 60.307 61.4721 59.4889 60.4725 59.2536C59.4865 59.0214 57.6633 59.0415 56.7145 59.295Z" fill="black"/>
<path fill-rule="evenodd" clip-rule="evenodd" d="M62.7597 6.20519C62.6655 6.31848 62.6391 11.1303 62.6603 24.2817L62.6891 42.2038L68.2111 42.2647L68.274 38.7878L68.5561 39.2433C69.4703 40.7193 71.01 41.816 73.0049 42.4117C74.3667 42.8185 75.3659 42.944 77.2431 42.944C79.5718 42.944 80.9028 42.6288 82.6892 41.6542C83.5397 41.1902 83.9995 40.8342 84.8547 39.9775C87.1217 37.7066 88.2723 34.7864 88.6234 30.4119C88.989 25.8566 87.517 21.2534 84.8374 18.5734C82.7497 16.4853 79.903 15.3881 76.5729 15.3879C73.7602 15.3879 71.5128 16.2946 69.6052 18.1988C69.0835 18.7195 68.6346 19.1456 68.6079 19.1456C68.581 19.1456 68.559 16.2303 68.559 12.6673C68.559 6.86494 68.5402 6.18184 68.3787 6.1199C68.2795 6.08187 67.0035 6.05078 65.5432 6.05078C63.4472 6.05078 62.861 6.08335 62.7597 6.20519ZM44.1678 15.4407C44.0738 15.4637 43.4583 15.5444 42.8001 15.6202C39.3226 16.0208 36.7463 17.4738 35.1992 19.9069C34.6622 20.7517 34.1887 22.0738 34.0794 23.0343C34.0413 23.3693 33.9864 23.7595 33.9573 23.9015L33.9045 24.1596L39.7745 24.0988L39.9034 23.5295C40.1116 22.6101 40.3599 22.1416 40.9437 21.566C42.0132 20.5112 43.4223 20.0605 45.6496 20.0605C47.8406 20.0605 49.1472 20.4567 50.0641 21.3994C50.6684 22.0205 50.9479 22.8691 50.8616 23.8202C50.7073 25.5198 49.6782 26.2171 46.7323 26.6182C41.3772 27.3471 39.2975 27.7158 38.0152 28.1636C34.7263 29.3123 32.9931 31.7722 33 35.2816C33.0044 37.4581 33.6311 39.0451 35.0393 40.4448C36.0454 41.4448 37.1796 42.0864 38.7395 42.538C42.5488 43.6408 48.1061 42.542 50.6187 40.189L50.9718 39.8584L51.2271 40.558C51.8166 42.173 53.2133 42.9647 55.4828 42.9703C56.4726 42.9726 58.2039 42.6934 58.8365 42.4295L59.2128 42.2724V38.3005L58.2725 38.3511C57.621 38.3862 57.2447 38.3551 57.0473 38.2498C56.4108 37.9105 56.4253 38.0968 56.3625 29.3937L56.3047 21.366L56.001 20.5827C55.0038 18.0115 52.6063 16.3322 48.9844 15.6685C48.0833 15.5034 44.5888 15.3381 44.1678 15.4407ZM73.346 20.3522C72.1294 20.6724 71.6945 20.9311 70.81 21.8602C69.7384 22.9859 68.9177 24.7278 68.5717 26.6108C68.4106 27.4884 68.4066 30.9451 68.566 31.6491C69.0919 33.9716 69.6419 35.1274 70.7676 36.2761C71.8097 37.3395 73.0076 37.9791 74.5199 38.2794C75.5485 38.4836 77.3236 38.2662 78.3339 37.8122C80.5456 36.8181 82.0462 34.6715 82.5811 31.7362C82.762 30.744 82.7639 27.6825 82.5842 26.8727C82.3116 25.6442 81.8837 24.4223 81.4667 23.6816C80.5811 22.1087 79.1629 20.8464 77.7029 20.3316C76.6086 19.9458 74.8592 19.954 73.346 20.3522ZM50.2489 29.399C49.928 29.7196 48.3604 30.1066 46.3206 30.3691C43.9305 30.6765 42.2407 31.0111 41.3938 31.3446C40.0976 31.8551 39.2954 32.7074 38.9829 33.9059C38.6499 35.1832 38.8115 35.9926 39.5585 36.7905C40.567 37.8675 41.8654 38.314 43.9969 38.3166C45.5619 38.3184 46.3912 38.1424 47.6778 37.5354C48.718 37.0445 49.7507 36.0856 50.1795 35.2122C50.4893 34.5812 50.4928 34.5477 50.5307 31.9272C50.5521 30.4487 50.5246 29.2798 50.4686 29.2798C50.4133 29.2798 50.3145 29.3334 50.2489 29.399Z" fill="black"/>
</svg>
