<svg width="132" height="88" viewBox="0 0 132 88" fill="none" xmlns="http://www.w3.org/2000/svg">
<path fill-rule="evenodd" clip-rule="evenodd" d="M66.0004 78.0984C84.8333 78.0984 100.1 62.8313 100.1 43.9984C100.1 25.1655 84.8333 9.89844 66.0004 9.89844C47.1675 9.89844 31.9004 25.1655 31.9004 43.9984C31.9004 62.8313 47.1675 78.0984 66.0004 78.0984ZM76.8505 33.458H48.6405V26.638H83.6705V61.358H76.8505V33.458ZM54.5302 49.2679C54.5302 45.8438 57.306 43.0679 60.7302 43.0679C64.1544 43.0679 66.9302 45.8438 66.9302 49.2679C66.9302 52.6921 64.1544 55.4679 60.7302 55.4679C57.306 55.4679 54.5302 52.6921 54.5302 49.2679ZM60.7302 36.2479C53.5395 36.2479 47.7102 42.0772 47.7102 49.2679C47.7102 56.4587 53.5395 62.2879 60.7302 62.2879C67.921 62.2879 73.7502 56.4587 73.7502 49.2679C73.7502 42.0772 67.921 36.2479 60.7302 36.2479Z" fill="#2E2F31"/>
</svg>
