<svg width="360" height="360" viewBox="0 0 360 360" fill="none" xmlns="http://www.w3.org/2000/svg">
<path d="M222.792 39.8369C202.764 43.1839 173.657 51.6183 154.831 59.651C126.658 71.7002 91.4092 99.9488 86.3354 114.542C85.4008 117.487 82.0628 122.039 78.9919 124.85C72.85 130.473 71.7819 135.962 75.6539 140.381C77.9237 142.79 78.3243 142.656 85.0002 139.309C88.8723 137.435 92.2102 136.096 92.4773 136.364C92.8778 136.632 88.7388 139.042 83.398 141.719C78.0572 144.397 73.6511 147.342 73.5176 148.279C73.3841 150.555 74.8528 150.421 80.9947 147.878C84.5997 146.405 88.2047 146.003 93.1449 146.672C98.2186 147.342 103.426 146.672 112.772 144.263C127.326 140.514 132.132 141.317 133.868 147.61C134.402 149.618 134.269 151.76 133.601 152.162C130.53 154.17 132.533 156.58 136.939 156.044C140.811 155.509 141.078 155.777 139.209 157.383C136.538 159.525 136.271 161.4 138.408 163.943C139.609 165.55 139.609 166.085 138.141 166.621C134.803 167.692 130.931 172.378 130.931 175.323C130.931 176.929 129.996 178.536 128.928 179.072C127.726 179.473 126.258 181.749 125.323 184.293C124.522 186.703 121.985 190.853 119.715 193.397C115.176 198.35 114.241 201.429 117.579 200.091C121.451 198.618 119.715 201.965 115.576 204.107C113.173 205.312 110.369 208.391 109.034 210.801C107.698 213.345 105.829 215.888 104.761 216.558C103.693 217.093 102.892 218.834 102.892 220.44C102.892 221.913 101.557 225.126 99.8209 227.268C95.6818 233.025 94.4801 250.161 97.9516 256.989C101.023 263.148 106.764 269.173 111.704 271.85C119.849 276.134 149.223 271.181 155.498 264.621C158.436 261.542 164.177 259.265 169.117 258.998C170.319 258.998 172.455 257.659 173.523 256.186C174.725 254.58 175.66 254.044 175.793 254.847C175.793 256.989 182.202 256.186 186.074 253.642C188.611 251.902 189.679 251.902 191.682 253.241C192.884 254.312 194.085 255.651 194.085 256.32C194.085 257.123 190.213 262.345 185.407 268.101C177.262 278.142 176.995 278.946 177.796 284.569C179.532 297.555 190.347 312.951 200.895 317.771C212.644 322.858 230.269 320.582 238.681 312.683C241.351 310.14 243.621 309.604 250.831 309.604C257.907 309.604 260.577 308.935 264.183 306.257C267.654 303.713 268.856 303.312 269.791 304.784C270.591 306.123 271.393 306.257 272.862 304.918C276.199 302.241 282.475 289.522 281.006 288.585C280.338 288.049 279.137 288.719 278.469 289.924C277.268 292.2 272.594 291.396 272.594 288.987C272.594 288.183 273.128 288.049 273.93 288.451C275.398 289.388 286.614 279.079 286.614 276.803C286.614 273.456 283.543 273.858 275.932 277.875C267.787 282.159 262.714 283.364 262.714 280.686C262.714 278.678 256.973 279.079 250.297 281.355C247.226 282.426 242.553 283.096 240.016 282.694C237.479 282.293 232.672 282.962 229.201 284.167C225.863 285.372 221.59 286.309 219.721 286.309C216.783 286.309 216.383 285.907 217.184 283.23C218.653 278.544 221.724 272.787 229.468 260.47C233.206 254.446 237.612 246.547 239.081 242.932C240.683 239.451 242.82 235.435 244.021 234.096C245.757 232.088 245.891 231.151 244.555 229.544C243.487 228.205 243.22 225.394 243.754 221.377C244.555 216.022 244.289 214.549 241.351 211.202C238.814 208.257 236.544 207.186 233.206 207.186C223.192 207.052 199.827 210.935 185.807 214.951C177.796 217.227 170.986 218.834 170.586 218.432C170.185 218.031 176.46 211.47 184.472 203.839C243.621 147.208 267.654 123.512 271.126 118.424C276.333 110.793 279.003 103.831 281.54 92.0499C283.142 84.2849 283.142 81.3395 281.674 75.8505C275.799 53.2248 260.044 40.5063 236.811 39.5691C231.337 39.4352 225.061 39.5691 222.792 39.8369ZM166.58 163.809C166.981 164.479 165.779 165.817 163.91 166.621C162.041 167.424 158.836 171.44 156.833 175.323C154.964 179.205 152.427 182.284 151.226 182.284C148.555 182.284 148.555 180.946 151.493 176.662C154.163 172.511 163.509 162.872 164.844 162.738C165.379 162.738 166.18 163.274 166.58 163.809ZM226.263 252.572C225.462 254.178 224.394 255.383 224.127 255.383C223.726 255.383 223.994 254.178 224.928 252.572C225.729 251.099 226.664 249.76 227.065 249.76C227.465 249.76 227.065 251.099 226.263 252.572ZM221.19 260.336C219.988 262.345 218.653 263.817 218.252 263.817C217.585 263.817 218.92 261.274 221.056 258.596C223.459 255.516 223.593 256.722 221.19 260.336ZM209.974 286.309C211.042 292.066 215.716 293.806 224.928 291.932C234.675 289.79 238.28 290.861 231.471 293.94C222.792 297.823 215.047 298.224 209.974 295.011C205.167 291.932 202.764 285.773 205.301 282.694C207.571 280.15 208.906 281.222 209.974 286.309ZM259.91 286.309C258.174 289.656 256.305 290.057 255.237 287.112C254.436 285.238 256.038 283.899 259.643 283.631C260.978 283.631 261.112 284.301 259.91 286.309ZM259.91 297.287C259.91 297.421 257.907 298.626 255.504 299.831C251.365 301.973 250.697 301.973 247.092 299.831C244.822 298.492 242.419 297.957 241.485 298.492C240.55 299.027 240.283 298.894 240.817 297.957C241.618 296.618 259.91 295.948 259.91 297.287ZM208.772 302.91C208.372 303.445 207.17 302.91 206.235 301.973C204.9 300.634 205.034 300.5 207.037 301.17C208.372 301.705 209.173 302.509 208.772 302.91Z" fill="black"/>
<path d="M202.765 196.342C196.223 197.948 191.282 201.697 191.282 204.91C191.282 209.328 193.953 209.462 207.438 205.445C221.858 201.161 229.068 200.224 231.472 202.232C233.474 203.973 238.949 201.429 238.949 198.617C238.949 195.806 228.668 194.333 224.662 196.476C222.259 197.814 221.324 197.814 220.923 196.609C220.39 194.869 209.975 194.735 202.765 196.342Z" fill="black"/>
<path d="M246.825 204.375C246.291 204.911 245.891 206.518 245.891 207.856C245.891 211.07 249.495 211.337 250.697 208.258C252.032 204.643 249.228 201.965 246.825 204.375Z" fill="black"/>
<path d="M251.498 212.542C250.43 213.881 250.296 214.684 251.23 214.684C252.966 214.684 254.969 212.006 253.901 211.069C253.634 210.667 252.566 211.337 251.498 212.542Z" fill="black"/>
<path d="M249.362 218.03C247.76 219.235 247.092 220.574 247.627 221.109C248.294 221.779 249.762 221.244 251.098 219.905C254.169 216.825 252.833 215.486 249.362 218.03Z" fill="black"/>
</svg>
