<svg width="132" height="88" viewBox="0 0 132 88" fill="none" xmlns="http://www.w3.org/2000/svg">
<path fill-rule="evenodd" clip-rule="evenodd" d="M69.6501 6.38935C68.7172 6.57193 66.8289 7.24637 65.454 7.88768C64.0791 8.529 62.3387 9.05399 61.5862 9.05399C59.8709 9.05399 55.5597 11.397 54.6352 12.8314C54.2674 13.4018 53.0757 14.6887 51.987 15.6909C50.4151 17.1377 49.9546 17.8425 49.751 19.1124C49.5053 20.6431 47.4582 23.3055 46.5268 23.3055C46.3252 23.3055 45.8492 22.6168 45.4683 21.7752C45.0878 20.9336 44.6319 20.3342 44.4554 20.4428C44.2789 20.5518 44.032 20.157 43.9068 19.5658C43.5846 18.0432 43.1458 17.3353 42.5242 17.3353C42.2287 17.3353 41.9691 17.6819 41.9474 18.1056C41.8621 19.7765 41.7948 19.8913 41.0427 19.6532C40.5049 19.483 40.1078 19.6944 39.6462 20.3974C39.2911 20.9378 38.7769 21.3796 38.5034 21.3796C38.2299 21.3796 37.8235 21.9023 37.6002 22.5409C37.3769 23.1795 36.8639 23.8297 36.4602 23.9853C35.6578 24.2946 31.7495 28.8142 31.7495 29.4324C31.7495 29.6427 31.4651 29.9736 31.1178 30.1677C30.5496 30.4847 30.5681 30.6014 31.3013 31.3325C32.3915 32.4195 32.6631 33.6859 32.1026 35.0683C31.5393 36.458 31.5096 36.621 31.1526 40.3267C30.9683 42.241 31.0336 44.1319 31.3373 45.671C31.6425 47.2171 31.6753 48.1847 31.4311 48.4281C30.9452 48.9126 29.42 48.4366 29.5359 47.8369C29.5849 47.5849 29.3671 47.3789 29.0518 47.3789C28.3553 47.3789 27.8071 50.1529 28.3147 51.1089C28.504 51.466 28.6717 52.246 28.6871 52.8422C28.7026 53.4388 29.0456 54.4468 29.449 55.0824C29.8523 55.7179 30.5221 56.8561 30.9378 57.6118C31.3531 58.3675 31.9647 59.2103 32.2965 59.4849C32.6283 59.7596 32.8134 60.1239 32.7075 60.2949C32.6017 60.4656 32.7643 60.8538 33.0691 61.1581C33.3743 61.462 33.8958 62.3599 34.2285 63.1537C34.5607 63.9472 35.5064 65.4024 36.33 66.3873C37.1533 67.3725 38.1874 68.8882 38.6286 69.7556C39.3456 71.1661 43.0778 74.791 45.6568 76.5813C48.9386 78.8596 50.1957 79.556 51.9719 80.0802C54.6785 80.8787 60.3523 81.921 62.1502 81.9502C63.8338 81.9776 66.7338 80.9638 67.87 79.9512C68.9555 78.9832 70.2621 78.7413 70.8149 79.4058C71.0695 79.7112 71.5168 79.8695 71.8096 79.7574C72.1025 79.6457 72.4432 79.8168 72.5668 80.138C72.714 80.5205 73.2761 80.7119 74.194 80.6926C74.9651 80.6765 77.2382 80.9307 79.2451 81.2577C84.0392 82.0388 88.6213 82.1798 88.8311 81.5527C88.9176 81.2935 89.1749 81.0817 89.4029 81.0817C90.2126 81.0817 92.4011 79.1046 92.4011 78.3731C92.4011 77.6267 93.6353 77.0604 94.7348 77.3023C95.0527 77.3724 95.3355 77.0616 95.4128 76.5559C95.4858 76.079 95.8134 75.6892 96.141 75.6892C96.6158 75.6892 96.6834 75.4077 96.4751 74.2999C96.1031 72.324 95.5746 71.0671 95.1149 71.0671C94.1391 71.0671 94.8924 69.6971 96.8468 67.9156C99.3323 65.6512 103.361 59.8327 104.07 57.4847C104.36 56.5237 104.534 54.1691 104.494 51.7587C104.439 48.4065 104.24 47.1497 103.399 44.8256C102.472 42.2661 101.57 35.3699 101.65 31.4615C101.661 30.9689 101.49 30.2324 101.271 29.8245C100.997 29.3146 100.998 29.0831 101.273 29.0831C101.868 29.0831 101.756 27.6656 101.054 26.3117C100.567 25.3715 100.357 25.2329 100.063 25.6566C99.8067 26.0275 99.7434 25.7167 99.8597 24.6536C99.9891 23.4695 99.7584 22.6002 98.8649 20.8981C98.2252 19.6798 97.4591 18.6834 97.1624 18.6834C96.8657 18.6834 96.304 17.9465 95.9138 17.0464C94.5822 13.9734 89.4272 9.8852 83.9589 7.56491C80.7818 6.2168 73.5612 5.62363 69.6501 6.38935ZM38.4134 24.8392C36.9601 26.571 36.9033 26.772 37.8699 26.772C38.6205 26.772 40.0811 24.5245 39.8188 23.7734C39.7366 23.5369 39.1042 24.0169 38.4134 24.8392ZM44.703 26.4997C44.5377 26.8795 44.511 27.2986 44.6432 27.4307C45.0356 27.8216 45.352 27.2724 45.1712 26.5132C45.0113 25.8403 44.9904 25.8399 44.703 26.4997ZM73.4364 28.0943C72.7121 28.5885 71.5222 29.793 70.7921 30.7713C70.062 31.7493 69.3295 32.5497 69.1642 32.5497C68.9988 32.5497 68.4325 33.1825 67.9055 33.9555L66.9471 35.3618L67.8916 37.1302C68.4255 38.1305 68.8358 39.5475 68.8358 40.3918C68.8358 41.4514 69.1441 42.2588 69.8982 43.1732C70.4823 43.8819 71.3457 44.965 71.8166 45.5801C73.2224 47.4166 77.6318 47.6366 78.5555 45.916C79.0593 44.9773 79.0117 39.0167 78.4643 34.5133C78.1912 32.2646 77.769 30.7628 77.0817 29.5934C75.7087 27.2577 75.0559 26.9893 73.4364 28.0943ZM29.2118 32.5928C29.0657 32.8281 29.1859 33.1748 29.4787 33.3631C29.8913 33.6281 29.904 33.7741 29.5363 34.0118C29.1855 34.2383 29.2709 34.4967 29.8627 35.0024C30.3035 35.3784 30.7632 35.5871 30.8849 35.4662C31.0062 35.3449 30.9683 35.2459 30.8007 35.2459C30.633 35.2459 30.7122 34.9859 30.9768 34.6681C31.3091 34.2691 31.3238 34.0904 31.024 34.0904C30.7856 34.0904 30.5905 33.8304 30.5905 33.5126C30.5905 33.1948 30.8617 32.9348 31.1928 32.9348C31.5239 32.9348 31.6877 32.7615 31.5563 32.5497C31.2334 32.0289 29.5421 32.0597 29.2118 32.5928ZM41.5472 35.1496C41.2057 35.9442 40.79 36.8694 40.6231 37.206C40.4559 37.5431 40.4733 38.063 40.6614 38.3616C41.0504 38.9798 40.7421 40.2936 40.0997 40.7554C39.8389 40.9426 39.9714 41.0169 40.4358 40.9438C40.9809 40.8575 41.2675 40.4242 41.4271 39.4451C41.5507 38.6874 42.0313 37.5357 42.4952 36.886C43.5 35.4793 43.5877 34.9478 42.6942 35.6804C42.1097 36.1595 42.0726 36.0925 42.2982 34.957C42.6293 33.2911 42.3102 33.3728 41.5472 35.1496ZM28.1204 36.6263C27.9914 36.9618 27.7739 38.4351 27.6375 39.9003C27.393 42.5234 27.403 42.5642 28.3136 42.5584C30.3043 42.5457 30.4151 42.184 29.6908 38.0584C29.6077 37.5843 29.7727 37.1236 30.0663 37.0111C31.0012 36.6537 30.621 36.0162 29.4729 36.0162C28.8096 36.0162 28.2599 36.2643 28.1204 36.6263ZM27.5 44.2975C27.5 45.0085 27.7051 45.2604 28.2846 45.2604C29.2431 45.2604 29.7487 44.1561 29.0051 43.6866C28.0524 43.0853 27.5 43.3095 27.5 44.2975ZM27.9238 46.1783C27.5838 46.5866 27.607 46.7595 28.0227 46.9186C28.5655 47.1262 29.4316 46.5334 29.4316 45.9537C29.4316 45.4503 28.4024 45.6036 27.9238 46.1783ZM42.3732 55.275C42.5045 55.4868 42.6884 55.6601 42.7823 55.6601C42.8761 55.6601 42.9526 55.4868 42.9526 55.275C42.9526 55.0631 42.7684 54.8898 42.5435 54.8898C42.3187 54.8898 42.2418 55.0631 42.3732 55.275ZM88.2304 73.2253C87.5304 73.5303 87.0641 73.9525 87.1947 74.1632C87.3256 74.3738 87.5509 74.4921 87.6953 74.4255C89.2727 73.7013 90.0832 73.1933 90.0832 72.9279C90.0832 72.5069 89.7602 72.5589 88.2304 73.2253ZM92.5981 74.5399C92.7317 74.7552 93.0025 74.8318 93.2003 74.7097C93.7362 74.3796 93.6365 74.1485 92.9577 74.1485C92.6267 74.1485 92.4648 74.3246 92.5981 74.5399Z" fill="black"/>
</svg>
