<svg width="132" height="88" viewBox="0 0 132 88" fill="none" xmlns="http://www.w3.org/2000/svg">
<path d="M65.9996 77.2766C84.3769 77.2766 99.2746 62.3788 99.2746 44.0016C99.2746 25.6243 84.3769 10.7266 65.9996 10.7266C47.6223 10.7266 32.7246 25.6243 32.7246 44.0016C32.7246 62.3788 47.6223 77.2766 65.9996 77.2766Z" fill="#E2344A"/>
<path fill-rule="evenodd" clip-rule="evenodd" d="M71.1686 35.1524C72.0208 34.0893 72.5305 32.74 72.5305 31.2716C72.5305 27.8424 69.7506 25.0625 66.3213 25.0625C62.8922 25.0625 60.1122 27.8424 60.1122 31.2716C60.1122 32.74 60.6219 34.0893 61.474 35.1524H60.8883H54.2911V38.2569H58.948L48.082 59.2127L50.0224 59.9889V62.3172L51.9627 61.1531L54.2911 62.3172L65.9333 38.2569L66.1124 38.1375L66.3213 38.2569L77.9635 62.3172L80.2919 61.1531L82.2323 62.3172V59.9889L84.1726 59.2127L73.3066 38.2569H77.9635V35.1524H71.1686ZM69.4259 31.2716C69.4259 32.9863 68.036 34.3762 66.3213 34.3762C64.6068 34.3762 63.2168 32.9863 63.2168 31.2716C63.2168 29.557 64.6068 28.1671 66.3213 28.1671C68.036 28.1671 69.4259 29.557 69.4259 31.2716Z" fill="white"/>
</svg>
