<svg width="132" height="88" viewBox="0 0 132 88" fill="none" xmlns="http://www.w3.org/2000/svg">
<path fill-rule="evenodd" clip-rule="evenodd" d="M31.625 43.9982V78.0984L65.8628 77.961L100.101 77.8241L100.238 43.8613L100.375 9.89844H65.9997H31.625V43.9982ZM31.876 44.2608C31.876 63.0136 31.9431 70.608 32.0247 61.1373C32.1062 51.666 32.1062 36.3228 32.0241 27.0413C31.9426 17.7592 31.876 25.508 31.876 44.2608ZM54.0061 36.5359V47.1909H55.8712C57.1864 47.1909 57.7363 46.9517 57.7363 46.3796C57.7363 45.6646 57.8786 45.6598 58.9353 46.3401C61.0023 47.671 63.6774 47.8569 65.6843 46.8095C68.4014 45.3908 69.5647 42.84 69.3335 38.806C69.1032 34.7779 67.8718 32.8605 64.8215 31.7827C62.8525 31.087 62.4982 31.1141 60.4737 32.1152L58.2692 33.2057V29.5436V25.8809H56.1377H54.0061V36.5359ZM40.3579 31.7023C39.0268 32.2734 36.9538 34.7741 36.9538 35.8087C36.9538 37.1039 40.1618 36.6798 41.5302 35.2041C43.5424 33.0331 46.9401 33.8301 46.453 36.3585C46.2724 37.2946 44.9716 37.7868 41.024 38.4118C36.9831 39.0516 35.1692 42.7926 37.4771 45.7264C38.8706 47.4973 41.5601 47.9677 44.4973 46.9539C45.8834 46.4755 46.8836 46.363 46.9896 46.6731C47.0877 46.9576 47.9867 47.1909 48.988 47.1909H50.8088V40.8278C50.8088 34.9047 50.7214 34.3629 49.5485 32.9995C48.4556 31.7295 47.8348 31.5137 44.8858 31.3768C43.0143 31.29 40.9771 31.4365 40.3579 31.7023ZM59.6739 35.0853C58.5676 35.894 57.8344 38.8848 58.2431 40.9215C59.344 46.4025 65.1967 45.1771 65.1967 39.4661C65.1967 35.5472 62.245 33.2057 59.6739 35.0853ZM43.7209 40.2471C41.2286 40.7292 40.5412 41.3706 40.772 43.0009C40.9169 44.0237 41.3139 44.2912 42.8827 44.4222C45.229 44.6183 46.5457 43.4931 46.5457 41.2929C46.5457 40.4346 46.3662 39.7601 46.1461 39.7937C45.926 39.8273 44.8352 40.0313 43.7209 40.2471ZM47.6115 53.6665C47.6115 57.3153 47.5699 57.4411 46.6438 56.603C45.2482 55.3399 42.5528 54.9409 40.6734 55.7192C36.1151 57.6067 34.9827 65.1542 38.634 69.3113C40.1058 70.9873 40.5306 71.1647 43.0719 71.1647C44.9199 71.1647 46.1093 70.8909 46.5457 70.3656C47.4058 69.3299 48.1444 69.3454 48.1444 70.3991C48.1444 71.0182 48.5899 71.1892 49.8763 71.0651L51.6081 70.8983L51.7526 60.3765L51.897 49.8547H49.7542H47.6115V53.6665ZM55.0719 57.3132V58.9114H58.5356C60.4407 58.9114 61.9994 59.0595 61.9994 59.2407C61.9994 59.4213 60.3208 61.4308 58.2692 63.7062C55.3181 66.9794 54.539 68.193 54.539 69.5196V71.1956L61.5997 71.047L68.6604 70.8983L68.8267 69.4551L68.9935 68.0124L64.5919 67.8568L60.1902 67.7018L64.2924 63.1079C67.1987 59.8523 68.394 58.1059 68.394 57.1145V55.7149H61.7329H55.0719V57.3132ZM41.7887 59.7825C40.1767 61.8309 40.2769 65.4787 41.9923 67.193C43.5877 68.7886 44.3881 68.8275 46.2074 67.3966C47.4159 66.4461 47.6115 65.8905 47.6115 63.4009C47.6115 61.2199 47.3499 60.2481 46.5457 59.4442C45.0585 57.9573 43.1156 58.0953 41.7887 59.7825ZM71.5913 68.5009V71.1647H74.5221H77.453V68.5009V65.8372H74.5221H71.5913V68.5009Z" fill="black"/>
</svg>
