<svg width="132" height="88" viewBox="0 0 132 88" fill="none" xmlns="http://www.w3.org/2000/svg">
<path d="M99.3555 23.7888C99.1225 23.3884 98.8031 23.0455 98.4207 22.785C98.0383 22.5246 97.6026 22.3534 97.1456 22.2839C96.433 22.1791 95.7065 22.3347 95.0987 22.7223C94.4806 23.1159 94.0178 23.7123 93.7891 24.4099L93.7787 24.4395C92.9061 26.689 92.0319 28.9403 91.1646 31.1899C89.7352 34.8957 88.2157 38.6101 86.828 42.3977C86.429 43.4885 86.0214 44.5898 86.0214 44.5898C85.7699 45.2335 86.1706 45.4423 87.161 45.9155C88.6615 46.6341 90.2071 47.4083 91.1767 48.0276C91.7075 48.3686 91.9157 48.647 92.2123 47.7214C92.5106 46.7976 99.5845 26.576 99.5845 26.576C99.5845 26.576 99.7354 26.1497 99.7788 25.9148C99.9227 25.1685 99.7232 24.4134 99.3555 23.7888ZM76.6683 41.2685C78.4549 41.7592 81.86 42.7996 82.9077 43.064C83.9537 43.3267 83.8149 42.7856 83.9138 41.7922C84.4602 37.5993 87.1107 17.1237 87.1107 17.1237L87.1125 17.1045L87.6433 12.3375C87.6676 12.1374 87.678 11.9808 87.678 11.9808C87.7206 11.1233 87.445 10.2804 86.9043 9.6147C86.6011 9.2353 86.2207 8.92514 85.7884 8.70493C85.3562 8.48472 84.8821 8.35952 84.3978 8.33769C83.765 8.30842 83.1366 8.45548 82.5821 8.76258C82.0276 9.06967 81.5687 9.5248 81.2564 10.0775C81.045 10.4485 80.9038 10.8555 80.84 11.2779L80.8331 11.3006L75.598 39.868C75.4072 40.9101 75.676 40.9971 76.6683 41.2685ZM64.8346 38.9181C65.9343 38.9703 69.4938 39.4365 71.0446 39.6314C72.5953 39.8262 71.9414 38.4309 71.8963 36.4702C71.8928 36.284 71.8876 36.0979 71.8876 35.9047C71.872 31.9224 71.7089 27.9539 71.5945 23.9993L71.2337 11.2971C71.2094 10.3454 71.1816 9.39722 71.1539 8.44903V8.4299L70.9908 5.09297C71.0104 5.01337 71.0168 4.93109 71.0099 4.8494C70.9683 4.16022 70.7364 3.49625 70.3399 2.93179C69.9435 2.36734 69.3983 1.92469 68.7653 1.65339C68.3231 1.46783 67.8482 1.37317 67.3689 1.37503C67.3359 1.37503 67.2908 1.37503 67.2371 1.37851C66.293 1.41224 65.4001 1.81721 64.7513 2.50589C64.087 3.19979 63.7181 4.12578 63.7227 5.08775V5.11385L63.4556 35.5951C63.4556 35.5951 63.4087 36.9869 63.4 37.8168C63.3914 38.6432 63.74 38.8659 64.8363 38.9181M46.1006 13.8598C46.1144 13.9363 46.1248 14.0529 46.1699 14.2895L51.2472 38.417C51.4623 39.3774 51.9463 39.6905 52.9298 39.647C53.9151 39.6053 56.2048 39.3078 58.6367 39.1773C60.694 39.0694 59.8215 37.5262 59.2248 35.8299C58.9594 35.0749 58.6593 34.2519 58.4043 33.4916C57.001 29.3057 55.8683 24.998 54.6055 20.7633C53.8561 18.2389 53.1137 15.7109 52.3643 13.1882L52.1596 12.508L52.151 12.4854C52.0577 12.1132 51.901 11.7601 51.6878 11.4415C51.4788 11.1322 51.2169 10.8625 50.9142 10.6447C50.3057 10.206 49.5565 10.0095 48.8118 10.0931C48.2893 10.1525 47.7916 10.3487 47.3686 10.6621C47.0672 10.8839 46.8071 11.1571 46.6001 11.4693C46.1361 12.1732 45.9574 13.0282 46.1006 13.8598ZM56.7026 81.5883C57.1398 81.8145 57.4659 82.1972 57.6046 82.667C57.7382 83.1263 57.9013 83.6204 57.988 84.1806C58.0105 84.3232 58.0366 84.4624 58.0695 84.6034C58.3505 85.7986 59.4555 86.625 60.6906 86.625H78.3907C79.546 86.625 80.5798 85.9012 80.9493 84.8156C81.0118 84.6277 81.0707 84.4416 81.1228 84.2519C81.2581 83.7491 81.4229 83.3072 81.5738 82.9036C81.7663 82.3886 82.1427 81.9641 82.618 81.677C82.6944 81.6318 82.7707 81.5831 82.8418 81.5344C83.8219 80.8576 84.5643 79.8781 85.1627 78.7959C85.7525 77.7294 86.1567 76.4959 86.3249 75.1162L86.3371 75.0501C88.1116 64.4687 90.299 54.4562 90.9859 52.0153C91.8359 48.9793 89.1559 47.6988 89.1559 47.6988C89.1559 47.6988 83.0396 44.3984 73.7523 42.636C64.4668 40.8753 56.9819 41.4008 54.8258 41.7139C52.5707 42.0427 52.7251 42.6882 52.7806 43.9061C52.8986 46.3139 52.9385 48.8732 53.0148 50.8948C53.0214 51.0992 53.0812 51.2984 53.1883 51.4724C53.4623 51.7647 54.0122 52.0605 54.406 52.1266C56.6957 52.5198 60.335 53.1913 63.7886 55.4914C69.1556 59.0701 72.0194 64.4061 72.3195 71.3548C72.2918 71.6106 72.0437 71.6697 71.9136 71.6697C71.7696 71.6697 71.5077 71.6001 71.5077 71.2765C71.5029 70.3519 71.4 69.4322 71.2007 68.5294C71.1972 68.5294 71.1972 68.5276 71.1972 68.5242C71.1583 68.3516 71.1155 68.1799 71.0689 68.0092C67.0983 52.2519 52.1267 52.8434 48.6522 53.2035L47.3703 51.8569L46.1908 50.6165C46.058 50.4759 45.9239 50.3367 45.7883 50.1989C45.7363 50.1432 45.6912 50.0945 45.6496 50.0545C45.6114 50.0145 45.5819 49.9814 45.5541 49.9571C44.8083 49.2142 44.0363 48.4382 43.2297 47.6988C42.4214 46.9611 41.5818 46.2583 40.6885 45.6546C39.8122 45.0453 38.8568 44.5594 37.8489 44.2105C36.816 43.8616 35.7266 43.7116 34.6381 43.7686L34.5618 43.7773C34.5097 43.7843 34.4282 43.7947 34.3224 43.8156C33.9755 43.8747 33.3857 43.9844 32.8705 44.0818C32.734 44.1076 32.6057 44.1664 32.4969 44.2531C32.3881 44.3398 32.302 44.4518 32.2461 44.5794C32.1907 44.7063 32.1675 44.8449 32.1784 44.983C32.1893 45.1211 32.234 45.2544 32.3085 45.371C32.7265 46.0321 33.3666 47.0325 34.1038 48.1894L34.1177 48.2121L40.7475 57.981L53.2958 78.0756C54.4251 79.6606 55.2681 80.8402 56.7026 81.5883Z" fill="black"/>
</svg>
