<svg width="132" height="88" viewBox="0 0 132 88" fill="none" xmlns="http://www.w3.org/2000/svg">
<path fill-rule="evenodd" clip-rule="evenodd" d="M28.3242 43.9992C28.3242 23.1918 45.1919 6.32422 65.9992 6.32422C86.8066 6.32422 103.674 23.1918 103.674 43.9992C103.674 64.8066 86.8066 81.6742 65.9992 81.6742C45.1919 81.6742 28.3242 64.8066 28.3242 43.9992ZM32.2565 43.2664L32.2527 43.4772L32.2496 43.7493L32.2487 43.9992C32.2487 44.5902 32.2639 45.1777 32.2939 45.7614C33.8554 46.585 35.2976 47.3557 36.6197 48.0732C36.4545 46.7705 36.3694 45.4437 36.3694 44.0977C36.3694 42.9687 36.4292 41.853 36.546 40.7542C35.2692 41.4487 33.8808 42.193 32.3816 42.9863C32.3421 43.0074 32.3022 43.0265 32.2619 43.0445L32.2565 43.2664ZM34.5353 56.2356C33.8213 54.401 33.2631 52.4886 32.877 50.5145C36.3459 52.3705 39.0681 53.8924 41.0533 55.0843C41.4821 55.3415 41.9122 55.6013 42.3435 55.8623L43.0122 56.267L43.0185 56.2705L43.0603 56.2958C46.3934 58.3144 49.7917 60.372 53.1888 61.9974C57.289 63.9593 61.5715 65.3876 66.0304 65.3876C75.91 65.3876 85.1152 60.1957 94.45 53.907C95.5942 53.1363 97.1103 52.1939 99.0064 51.0771C98.6393 52.7975 98.141 54.4696 97.5226 56.0819C97.4739 56.0992 97.4256 56.1187 97.3777 56.1402L97.309 56.1724L97.2651 56.195C94.2949 57.7606 91.8819 59.0855 90.0351 60.167C88.7297 60.932 87.4779 61.6904 86.2623 62.4274C79.5429 66.5002 73.9323 69.9008 66.5186 69.9008C57.7265 69.9008 49.2064 65.3792 39.6565 59.1008C38.5264 58.3577 37.1019 57.4888 35.3918 56.497C35.1209 56.3399 34.828 56.2544 34.5353 56.2356ZM99.7497 43.9992C99.7497 44.7224 99.727 45.4402 99.6822 46.1519C98.3857 46.8905 97.2064 47.5769 96.1457 48.2108C96.3226 46.864 96.4138 45.4912 96.4138 44.0973C96.4138 42.9541 96.3524 41.8247 96.2327 40.7125C97.239 41.313 98.3489 41.9603 99.5613 42.6529C99.6156 42.6839 99.6707 42.7119 99.7266 42.7372C99.742 43.1561 99.7497 43.5769 99.7497 43.9992ZM92.4893 44.0973C92.4893 46.5214 92.1747 48.8692 91.5851 51.1031C88.6462 53.0658 85.8071 54.844 83.027 56.3517C85.5233 52.909 86.9952 48.6749 86.9952 44.0973C86.9952 39.9709 85.7991 36.1234 83.7347 32.8834C86.3516 34.349 89.0243 36.0464 91.7861 37.904C92.2459 39.8923 92.4893 41.9649 92.4893 44.0973ZM45.1995 44.0973C45.1995 47.9923 46.265 51.6385 48.1205 54.7601C47.6988 54.5095 47.2756 54.2558 46.8505 54.0001C46.4078 53.7338 45.9632 53.4651 45.5163 53.1945L44.9122 52.8289C44.3039 52.461 43.6911 52.0904 43.0729 51.7194C42.4638 51.3538 41.7912 50.9602 41.0556 50.5386C40.558 48.4748 40.2939 46.3183 40.2939 44.0977C40.2939 42.1167 40.504 40.187 40.9024 38.329C41.6862 37.8799 42.3996 37.4617 43.0425 37.0747C43.7381 36.6562 44.427 36.238 45.1103 35.8233C45.9597 35.3079 46.8004 34.7974 47.635 34.2976C46.0804 37.2203 45.1995 40.5561 45.1995 44.0973ZM94.4421 62.1756C93.5401 62.6761 92.7325 63.1353 92.0186 63.5534C90.8312 64.249 89.6555 64.9657 88.481 65.6816C81.7823 69.7647 75.1206 73.8253 66.5186 73.8253C56.5614 73.8253 47.2662 68.7763 37.8301 62.596C43.8704 71.727 54.2315 77.7497 65.9992 77.7497C77.9467 77.7497 88.4442 71.5419 94.4421 62.1756ZM32.7175 38.3616C36.2471 36.4695 39.0108 34.9208 41.0187 33.7124L41.9537 33.1475L43.0224 32.499L43.0253 32.4967C46.3522 30.477 49.7444 28.4178 53.1353 26.7905C54.8639 25.9612 56.6251 25.2269 58.4184 24.6554C60.7955 23.7157 63.3861 23.1995 66.0973 23.1995C68.0689 23.1995 69.9768 23.4724 71.7851 23.9828C79.4955 25.512 86.876 29.85 94.3381 34.8913C95.5427 35.7053 97.1607 36.7102 99.2018 37.9098C98.8097 35.7578 98.2135 33.6771 97.4341 31.6885C97.2852 31.6448 97.1392 31.5827 96.9991 31.5014C95.289 30.5096 93.8645 29.6408 92.7344 28.8976C83.1845 22.6192 74.6644 18.0977 65.8723 18.0977C58.4586 18.0977 52.8479 21.4982 46.1286 25.571C44.913 26.308 43.6611 27.0665 42.3557 27.8314C40.509 28.913 38.096 30.2379 35.1258 31.8034C34.9048 31.9199 34.6716 31.9897 34.4375 32.0169C33.667 34.0455 33.0864 36.1679 32.7175 38.3616ZM65.8723 14.1732C75.5833 14.1732 84.6647 18.9753 93.8612 24.9459C87.7805 16.071 77.5698 10.2487 65.9992 10.2487C53.9107 10.2487 43.3066 16.6041 37.3458 26.1559C38.4944 25.5243 39.5028 24.954 40.3722 24.445C41.5536 23.7529 42.7232 23.0404 43.8917 22.3284L43.9003 22.3226L43.9099 22.3169C50.6086 18.2337 57.2703 14.1732 65.8723 14.1732ZM53.8975 32.2963C50.9424 35.3508 49.124 39.5117 49.124 44.0973C49.124 44.5185 49.1393 44.9366 49.1695 45.3502L61.0877 38.2463C61.5565 37.8308 62.0773 37.4725 62.6392 37.1827L53.8975 32.2963ZM59.1719 46.9242C58.8207 46.1209 58.6053 45.2452 58.5544 44.325L50.1707 49.3222C50.1404 49.3402 50.1098 49.3574 50.079 49.3735C50.0451 49.3915 50.0109 49.408 49.9765 49.4237C51.4975 54.0296 54.9374 57.7629 59.3495 59.6764L59.1719 46.9242ZM63.1516 50.8598L63.2906 60.8396C64.2036 60.9914 65.1412 61.0707 66.0973 61.0707C69.9364 61.0707 73.4778 59.796 76.3214 57.6471L65.136 51.3952C64.4406 51.307 63.7747 51.1238 63.1516 50.8598ZM70.611 49.9595L79.2718 54.8C81.6469 51.88 83.0707 48.1548 83.0707 44.0973C83.0707 43.5018 83.04 42.9135 82.9802 42.3336L71.5113 49.17C71.2328 49.4563 70.9317 49.7204 70.611 49.9595ZM82.0598 38.3133C80.5947 34.2708 77.6376 30.943 73.8538 28.9958L73.8836 43.1871L82.0598 38.3133ZM65.9597 27.3202C67.2864 27.3202 68.6071 27.429 69.9264 27.6364L69.9456 36.7704L57.1945 29.6434C58.0045 29.1433 58.8597 28.7098 59.7525 28.3496C61.8514 27.6927 63.9124 27.3202 65.9597 27.3202Z" fill="#1B2335"/>
</svg>
