<svg width="132" height="88" viewBox="0 0 132 88" fill="none" xmlns="http://www.w3.org/2000/svg">
<path d="M93.6786 77H81.5486L78.1273 70.1015H54.1783L50.7363 77H38.7307L59.2377 38.6375H73.0472L93.6786 77ZM73.9803 62.1093L66.1839 46.7138H65.9143L58.1802 62.1093H73.9803Z" fill="#00A9E6"/>
<path d="M31.3496 27.9125C31.3496 27.9125 44.8095 18.2232 65.9453 18.2232C87.0811 18.2232 100.65 27.9125 100.65 27.9125C100.65 27.9125 89.8414 11 65.7903 11C41.7392 11 31.3496 27.9125 31.3496 27.9125Z" fill="#00A9E6"/>
<path d="M65.7456 27.9318C59.6622 27.8307 53.6885 29.5706 48.5969 32.9265C48.5969 32.9265 53.7245 24.6229 65.7766 24.6229C69.131 24.5176 72.4623 25.2153 75.4972 26.6587C78.5321 28.1022 81.1839 30.2502 83.2351 32.9265C77.999 29.6113 71.9294 27.878 65.7456 27.9318Z" fill="#00A9E6"/>
</svg>
