<svg width="132" height="88" viewBox="0 0 132 88" fill="none" xmlns="http://www.w3.org/2000/svg">
<path fill-rule="evenodd" clip-rule="evenodd" d="M44.0784 8.66406C36.6688 8.66406 30.6621 14.6707 30.6621 22.0803V65.9228C30.6621 73.3324 36.6688 79.3391 44.0784 79.3391H87.9208C95.3304 79.3391 101.337 73.3324 101.337 65.9228V22.0803C101.337 14.6707 95.3304 8.66406 87.9208 8.66406H44.0784ZM90.0769 25.9132C90.0769 23.6639 88.2534 21.8404 86.0041 21.8404C83.7548 21.8404 81.9313 23.6639 81.9313 25.9132C81.9313 26.4335 82.0289 26.931 82.2067 27.3885L79.0585 30.5367C75.6508 27.2301 71.003 25.1945 65.8797 25.1945C55.4269 25.1945 46.9532 33.6682 46.9532 44.121C46.9532 54.5739 55.4269 63.0476 65.8797 63.0476C70.7592 63.0476 75.2074 61.201 78.5637 58.1686L82.5238 62.1288C82.1479 62.7456 81.9313 63.4702 81.9313 64.2454C81.9313 66.4948 83.7548 68.3182 86.0041 68.3182C88.2534 68.3182 90.0769 66.4948 90.0769 64.2454C90.0769 61.9961 88.2534 60.1726 86.0041 60.1726C85.6855 60.1726 85.3755 60.2092 85.078 60.2784L80.6971 55.8975C83.2693 52.6654 84.8062 48.5727 84.8062 44.121C84.8062 39.9147 83.4341 36.0289 81.1129 32.8868L84.3594 29.6403C84.8624 29.8626 85.4188 29.986 86.0041 29.986C88.2534 29.986 90.0769 28.1626 90.0769 25.9132ZM65.8797 29.0277C69.9444 29.0277 73.6339 30.6345 76.3476 33.2476L68.5497 41.0454C67.8348 40.4243 66.9012 40.0482 65.8797 40.0482C63.6304 40.0482 61.8069 41.8717 61.8069 44.121C61.8069 46.3704 63.6304 48.1938 65.8797 48.1938C66.6549 48.1938 67.3795 47.9772 67.9963 47.6013L75.8488 55.4538C73.1899 57.7945 69.7006 59.2143 65.8797 59.2143C57.5439 59.2143 50.7864 52.4568 50.7864 44.121C50.7864 35.7852 57.5439 29.0277 65.8797 29.0277ZM69.9525 44.121C69.9525 44.4396 69.9159 44.7496 69.8467 45.0471L77.9645 53.1649C79.8538 50.6444 80.973 47.5134 80.973 44.121C80.973 40.975 80.0105 38.0538 78.3639 35.6359L69.9519 44.0479C69.9523 44.0722 69.9525 44.0966 69.9525 44.121Z" fill="#000B20"/>
</svg>
