<svg width="132" height="88" viewBox="0 0 132 88" fill="none" xmlns="http://www.w3.org/2000/svg">
<g clip-path="url(#clip0_2056_23939)">
<path d="M88.2005 9.625H43.7995C37.0757 9.625 31.625 15.2155 31.625 22.1116V65.8884C31.625 72.7845 37.0757 78.375 43.7995 78.375H88.2005C94.9243 78.375 100.375 72.7845 100.375 65.8884V22.1116C100.375 15.2155 94.9243 9.625 88.2005 9.625Z" fill="#00005B"/>
<path d="M58.6453 50.7562H47.9915L45.8239 57.6755C45.7944 57.8015 45.723 57.9129 45.6219 57.9907C45.5209 58.0684 45.3966 58.1075 45.2704 58.1013H39.8744C39.5667 58.1013 39.4591 57.9278 39.5516 57.5809L48.7756 30.4474C48.8678 30.1636 48.96 29.8404 49.0523 29.4777C49.1931 28.8632 49.2686 28.2348 49.2774 27.6036C49.2711 27.5586 49.2752 27.5128 49.2892 27.4697C49.3032 27.4266 49.3268 27.3874 49.3581 27.3553C49.3894 27.3232 49.4276 27.299 49.4696 27.2846C49.5116 27.2702 49.5563 27.2661 49.6002 27.2724H56.9333C57.148 27.2724 57.271 27.3513 57.3023 27.509L67.7308 57.6282C67.823 57.9438 67.7308 58.1015 67.4542 58.1013H61.4585C61.3556 58.113 61.2519 58.0858 61.1671 58.0249C61.0822 57.964 61.0219 57.8734 60.9974 57.7702L58.6453 50.7562ZM49.6519 44.9219H56.9389C56.7544 44.2915 56.5391 43.582 56.2931 42.7933C56.0466 42.0054 55.7853 41.1619 55.5091 40.2626C55.2324 39.3639 54.9557 38.4652 54.6789 37.5664C54.4023 36.6677 54.1486 35.8005 53.9179 34.9647C53.6874 34.1296 53.4799 33.3649 53.2953 32.6706H53.2492C52.9897 33.9482 52.6664 35.2112 52.2807 36.4548C51.8497 37.8739 51.4116 39.3245 50.9663 40.8066C50.5203 42.2892 50.0821 43.661 49.6519 44.9219Z" fill="#9999FF"/>
<path d="M89.7291 34.9518V52.9624C89.7291 53.7511 89.7368 54.4527 89.7522 55.0674C89.7673 55.6823 89.798 56.2184 89.8443 56.6757C89.8905 57.1332 89.9287 57.4071 89.9597 57.7219C89.99 57.9747 89.8827 58.1004 89.6369 58.1004H84.7021C84.5875 58.1128 84.472 58.0874 84.3725 58.0278C84.2729 57.9683 84.1945 57.8777 84.1486 57.7693C84.0823 57.5279 84.0284 57.2832 83.9872 57.036C83.9439 56.8321 83.9207 56.6242 83.918 56.4155C82.9898 57.265 81.8861 57.8876 80.6896 58.2366C79.6522 58.5264 78.5826 58.6775 77.5074 58.686C76.45 58.6991 75.3979 58.5312 74.3944 58.1893C73.4647 57.8639 72.626 57.312 71.95 56.5811C71.216 55.7675 70.665 54.7986 70.3358 53.7429C69.9219 52.3892 69.7272 50.975 69.7593 49.5567V34.999C69.7521 34.9476 69.7567 34.8952 69.7727 34.8459C69.7887 34.7966 69.8157 34.7519 69.8515 34.7151C69.8873 34.6784 69.9309 34.6507 69.979 34.6343C70.027 34.6179 70.0781 34.6132 70.1283 34.6206H75.6091C75.6592 34.6133 75.7103 34.618 75.7583 34.6345C75.8063 34.6509 75.85 34.6786 75.8858 34.7153C75.9215 34.752 75.9485 34.7967 75.9645 34.846C75.9806 34.8952 75.9852 34.9476 75.9781 34.999V48.7998C75.9781 50.0932 76.2548 51.1102 76.8082 51.8508C77.3617 52.5921 78.476 52.9624 79.7673 52.9624C80.429 52.9708 81.0863 52.8504 81.7042 52.6076C82.3514 52.3736 82.9632 52.0471 83.5215 51.638V34.9518C83.5215 34.7315 83.6598 34.6206 83.9366 34.6206H89.4063C89.4501 34.6142 89.4948 34.6185 89.5368 34.6329C89.5788 34.6473 89.6169 34.6715 89.6482 34.7036C89.6795 34.7357 89.7031 34.7748 89.7172 34.8179C89.7312 34.861 89.7353 34.9068 89.7291 34.9518Z" fill="#9999FF"/>
</g>
<defs>
<clipPath id="clip0_2056_23939">
<rect width="68.75" height="68.75" fill="white" transform="translate(31.625 9.625)"/>
</clipPath>
</defs>
</svg>
