<svg width="132" height="88" viewBox="0 0 132 88" fill="none" xmlns="http://www.w3.org/2000/svg">
<g clip-path="url(#clip0_2056_24587)">
<path d="M87.8826 11.2344H44.1151C37.5201 11.2344 32.1738 16.5806 32.1738 23.1756V64.8291C32.1738 71.424 37.5201 76.7703 44.1151 76.7703H87.8826C94.4776 76.7703 99.8238 71.424 99.8238 64.8291V23.1756C99.8238 16.5806 94.4776 11.2344 87.8826 11.2344Z" fill="#000B1D"/>
<path d="M69.4639 38.6441C67.8845 43.9377 66.5554 49.0404 64.976 54.035C64.291 56.5777 63.2413 59.0078 61.8597 61.2496C61.0656 62.3774 60.0192 63.3043 58.8038 63.9565C57.5883 64.6086 56.2375 64.9681 54.8587 65.0063C52.6813 65.0063 50.5469 63.9816 50.5469 61.7191C50.5958 61.0321 50.8825 60.3835 51.3577 59.8849C51.8329 59.3863 52.467 59.0689 53.1509 58.9871C53.3942 58.9775 53.6352 59.0364 53.8465 59.1572C54.0579 59.278 54.231 59.4557 54.3462 59.6702C55.4134 61.5911 56.4381 62.701 56.9077 62.701C57.3773 62.701 57.7614 62.0607 58.5297 59.286L64.1329 38.6476L60.1016 38.6431C59.9632 38.2584 59.9505 37.8397 60.0653 37.4473C60.18 37.0549 60.4163 36.709 60.7402 36.4595H64.753C65.4781 33.9386 66.4687 31.5018 67.7081 29.19C68.5289 27.4113 69.8234 25.8929 71.4498 24.8011C73.0762 23.7093 74.9718 23.0861 76.9288 23C80.1305 23 81.4538 24.5368 81.4538 26.5007C81.4471 27.2657 81.1687 28.0035 80.6682 28.5821C80.1677 29.1608 79.4778 29.5427 78.7217 29.6595C78.0389 29.6595 77.6973 29.1474 77.4838 28.4217C76.7581 25.6896 75.8189 24.8785 75.2639 24.8785C74.7089 24.8785 73.8551 25.9029 72.9162 28.0373C71.741 30.7672 70.7915 33.5888 70.077 36.4737L74.9591 36.4673C75.1086 36.8525 75.1238 37.2769 75.0023 37.6718C74.8807 38.0668 74.6296 38.4092 74.2894 38.6437L69.4639 38.6441Z" fill="white"/>
</g>
<defs>
<clipPath id="clip0_2056_24587">
<rect width="67.65" height="67.65" fill="white" transform="translate(32.1758 10.1758)"/>
</clipPath>
</defs>
</svg>
