<svg width="132" height="88" viewBox="0 0 132 88" fill="none" xmlns="http://www.w3.org/2000/svg">
<path d="M88.204 9.625H43.796C37.0741 9.625 31.625 15.276 31.625 22.2468V65.7532C31.625 72.724 37.0741 78.375 43.796 78.375H88.204C94.9259 78.375 100.375 72.724 100.375 65.7532V22.2468C100.375 15.276 94.9259 9.625 88.204 9.625Z" fill="#000B1D"/>
<path d="M47.6707 57.4185V27.3174C47.6707 27.0979 47.7618 26.9876 47.9435 26.9876C48.4272 26.9876 48.7768 26.9802 49.4434 26.964C50.1094 26.9485 50.8287 26.9328 51.6014 26.9171C52.3735 26.9015 53.1912 26.8858 54.0543 26.8698C54.9175 26.8543 55.773 26.8464 56.6206 26.8462C58.594 26.7937 60.5611 27.0966 62.4347 27.7414C63.8556 28.2399 65.1514 29.0606 66.228 30.1438C67.1404 31.0828 67.8456 32.2158 68.2949 33.4647C68.7194 34.6803 68.9345 35.9639 68.9303 37.2568C69.0162 39.4614 68.4278 41.6377 67.2495 43.4748C66.122 45.1143 64.5366 46.3556 62.7074 47.0313C60.6687 47.7927 58.5146 48.1678 56.3478 48.1385C55.6813 48.1385 55.2121 48.1306 54.9403 48.1149C54.6676 48.0993 54.2588 48.0914 53.7139 48.0912V57.3713C53.7218 57.4289 53.7166 57.4876 53.6989 57.5427C53.6811 57.5979 53.6512 57.648 53.6116 57.6892C53.5719 57.7303 53.5236 57.7613 53.4704 57.7797C53.4172 57.7981 53.3606 57.8034 53.3051 57.7952H47.9891C47.7768 57.7952 47.6707 57.6696 47.6707 57.4185ZM53.7139 32.6403V42.3912C54.1072 42.4229 54.4704 42.4387 54.8037 42.4385H56.3023C57.4018 42.4553 58.4973 42.2965 59.5502 41.9676C60.4504 41.6904 61.2548 41.1507 61.8677 40.4128C62.5017 39.5505 62.8159 38.4806 62.7531 37.3981C62.7771 36.4869 62.5484 35.5878 62.0943 34.8074C61.6169 34.0528 60.9271 33.4689 60.1185 33.1351C59.0626 32.7093 57.9347 32.509 56.8024 32.5461C56.0758 32.5461 55.4324 32.554 54.8721 32.5697C54.311 32.5859 53.9249 32.6094 53.7139 32.6403Z" fill="white"/>
<path d="M75.8508 40.0599L72.6505 39.962C72.4383 39.9309 72.3322 39.8206 72.3322 39.6323V35.5007C72.3261 35.4559 72.3301 35.4102 72.3439 35.3673C72.3578 35.3244 72.3811 35.2854 72.4119 35.2534C72.4428 35.2214 72.4804 35.1973 72.5218 35.183C72.5633 35.1687 72.6073 35.1646 72.6505 35.171L75.8508 35.2073V35.115C75.8442 33.7058 75.9199 32.2975 76.0774 30.8977C76.216 30.0745 76.4606 29.2744 76.8045 28.5187C77.3918 27.2535 78.2835 26.1665 79.3935 25.3625C80.7194 24.4862 82.2748 24.0583 83.8451 24.1379C84.2852 24.1355 84.7251 24.159 85.1627 24.2084C85.6079 24.2483 86.0479 24.3351 86.4761 24.4676C86.5707 24.5006 86.6526 24.5641 86.7099 24.6488C86.7672 24.7336 86.7968 24.8351 86.7944 24.9386V29.6022C86.7944 29.8223 86.6731 29.9008 86.4305 29.8378C86.2183 29.8067 85.7226 29.7906 85.4804 29.7906H84.7994C84.184 29.7809 83.5725 29.8928 82.9975 30.1203C82.5725 30.3594 82.2487 30.7542 82.0893 31.2275C81.8685 31.9017 81.7684 32.6121 81.7938 33.3237V35.2073H86.2321C86.4131 35.2073 86.527 35.2387 86.5726 35.3015C86.6237 35.3858 86.6476 35.4848 86.6409 35.5841V39.7302C86.6409 39.9503 86.5047 40.0602 86.2321 40.0599H81.7938L81.8293 57.5466C81.8282 57.645 81.805 57.7417 81.7615 57.8292C81.716 57.9234 81.6027 57.9706 81.4204 57.9706H76.2496C76.0068 57.9706 75.8863 57.8292 75.8863 57.5466L75.8508 40.0599Z" fill="white"/>
</svg>
