<svg width="132" height="88" viewBox="0 0 132 88" fill="none" xmlns="http://www.w3.org/2000/svg">
<g clip-path="url(#clip0_2130_5887)">
<path d="M88.2005 9.625H43.7995C37.0757 9.625 31.625 15.2155 31.625 22.1116V65.8884C31.625 72.7845 37.0757 78.375 43.7995 78.375H88.2005C94.9243 78.375 100.375 72.7845 100.375 65.8884V22.1116C100.375 15.2155 94.9243 9.625 88.2005 9.625Z" fill="#470137"/>
<path d="M67.676 31.0561L59.5264 44.5029L68.2193 58.7646C68.2736 58.8733 68.3008 58.9819 68.2736 59.0906C68.2465 59.1993 68.1378 59.1178 67.9748 59.1449H61.754C61.3193 59.1449 61.0205 59.1178 60.8303 58.8461C60.2599 57.7052 59.6622 56.5914 59.0918 55.4504C58.5213 54.3367 57.8965 53.1957 57.2445 52.0276C56.5926 50.8595 55.9406 49.6914 55.2886 48.4961H55.2343C54.6638 49.6642 54.039 50.8324 53.4142 52.0005C52.7894 53.1686 52.1646 54.3367 51.567 55.4776C50.9422 56.6186 50.3174 57.7867 49.6926 58.9004C49.5839 59.1721 49.3666 59.1993 49.0678 59.1993H43.0914C42.9828 59.1993 42.9013 59.2536 42.9013 59.1178C42.8741 59.0091 42.9013 58.9004 42.9556 58.8189L51.404 44.9647L43.1729 31.0289C43.0914 30.9202 43.0643 30.8116 43.1186 30.7572C43.1729 30.6757 43.2816 30.6486 43.3903 30.6486H49.5568C49.6926 30.6486 49.8284 30.6757 49.9371 30.7029C50.0457 30.7572 50.1272 30.8387 50.2087 30.9474C50.7249 32.1155 51.3225 33.2836 51.9473 34.4517C52.5993 35.6198 53.2241 36.7608 53.9032 37.9017C54.5552 39.0426 55.1528 40.1836 55.7233 41.3517H55.7776C56.3481 40.1564 56.9457 38.9883 57.5434 37.8474C58.141 36.7064 58.7658 35.5655 59.3906 34.4245C60.0154 33.2836 60.613 32.1155 61.2107 31.0017C61.2378 30.8931 61.2922 30.7844 61.3737 30.7301C61.4823 30.6757 61.591 30.6486 61.7268 30.6757H67.4587C67.5945 30.6486 67.7303 30.7301 67.7575 30.8659C67.7847 30.8931 67.7303 31.0017 67.676 31.0561ZM80.2263 59.7157C78.2161 59.7428 76.2059 59.3354 74.3858 58.4932C72.6744 57.7054 71.2618 56.4015 70.2839 54.7988C69.2787 53.1417 68.7898 51.0771 68.7898 48.6051C68.7626 46.5948 69.2787 44.6118 70.2839 42.8732C71.3161 41.1075 72.8102 39.6405 74.6031 38.6626C76.5047 37.6032 78.7866 37.087 81.4759 37.087C81.6118 37.087 81.8019 37.087 82.0464 37.1142C82.2909 37.1413 82.5625 37.1413 82.8885 37.1685V28.5843C82.8885 28.3941 82.97 28.2855 83.1602 28.2855H88.6747C88.8106 28.2583 88.9192 28.367 88.9464 28.4756V54.3913C88.9464 54.8803 88.9735 55.4236 89.0007 56.0212C89.055 56.5917 89.0822 57.135 89.1094 57.5968C89.1094 57.7869 89.0279 57.9499 88.8377 58.0314C87.4251 58.6291 85.931 59.0637 84.4098 59.3354C83.0244 59.5798 81.6389 59.7157 80.2263 59.7157ZM82.8885 54.2826V42.3299C82.644 42.2756 82.3996 42.2212 82.1551 42.1941C81.8563 42.1669 81.5574 42.1397 81.2586 42.1397C80.1992 42.1397 79.1397 42.3571 78.1889 42.846C77.2653 43.3079 76.4775 43.987 75.8799 44.8563C75.2823 45.7256 74.9834 46.8937 74.9834 48.3063C74.9563 49.257 75.1193 50.2078 75.4453 51.1043C75.7169 51.8377 76.1244 52.4897 76.6677 53.033C77.1838 53.522 77.8086 53.9023 78.5149 54.1196C79.2484 54.3641 80.009 54.4728 80.7696 54.4728C81.1771 54.4728 81.5574 54.4456 81.9106 54.4184C82.2637 54.4456 82.5625 54.3913 82.8885 54.2826Z" fill="#FF61F6"/>
</g>
<defs>
<clipPath id="clip0_2130_5887">
<rect width="68.75" height="68.75" fill="white" transform="translate(31.625 9.625)"/>
</clipPath>
</defs>
</svg>
