<svg width="132" height="88" viewBox="0 0 132 88" fill="none" xmlns="http://www.w3.org/2000/svg">
<path d="M31.625 65.7662V22.2338C31.625 21.4055 31.6694 20.5771 31.8468 19.7948C32.0242 19.0126 32.246 18.1842 32.5565 17.448C32.8669 16.7117 33.2218 15.9754 33.6653 15.2391C34.1089 14.5028 34.6411 13.9046 35.1734 13.3064C35.75 12.7082 36.371 12.202 37.0363 11.7418C37.7016 11.2816 38.4113 10.8675 39.1653 10.5914C39.9194 10.2692 40.6734 10.0392 41.4274 9.85509C42.2258 9.67102 42.9798 9.625 43.7782 9.625H88.2218C89.0202 9.625 89.8185 9.67102 90.5726 9.85509C91.371 10.0392 92.125 10.2692 92.8347 10.5914C93.5444 10.9135 94.254 11.2816 94.9637 11.7418C95.6734 12.202 96.25 12.7542 96.8266 13.3064C97.4032 13.9046 97.8911 14.5489 98.3347 15.2391C98.7782 15.9294 99.1774 16.6657 99.4435 17.448C99.754 18.2303 99.9758 19.0126 100.153 19.7948C100.331 20.6232 100.375 21.4055 100.375 22.2338V65.7662C100.375 66.5945 100.331 67.4229 100.153 68.2052C99.9758 69.0335 99.754 69.8158 99.4435 70.552C99.1331 71.3343 98.7782 72.0246 98.3347 72.7609C97.8911 73.4972 97.3589 74.0954 96.8266 74.6936C96.25 75.2918 95.629 75.798 94.9637 76.2582C94.2984 76.7184 93.5887 77.1325 92.8347 77.4086C92.0806 77.7308 91.3266 77.9608 90.5726 78.1449C89.7742 78.329 89.0202 78.375 88.2218 78.375H43.8226C43.0242 78.375 42.2258 78.329 41.4718 78.1449C40.6734 77.9608 39.9194 77.7308 39.2097 77.4086C38.4556 77.0865 37.7903 76.7184 37.0806 76.2582C36.371 75.798 35.7944 75.2458 35.2177 74.6936C34.6411 74.0954 34.1532 73.4511 33.7097 72.7609C33.2661 72.0706 32.8669 71.3343 32.6008 70.552C32.2903 69.7697 32.0685 68.9875 31.8911 68.2052C31.7137 67.4689 31.625 66.6406 31.625 65.7662Z" fill="#0C131F"/>
<path d="M55.9755 60.0601C54.29 60.0601 52.7376 59.876 51.3626 59.5999C49.9876 59.3238 48.8343 58.9096 47.8585 58.4495C47.5924 58.3114 47.5037 58.0353 47.5037 57.6672V52.053C47.5037 51.915 47.548 51.869 47.6367 51.7769C47.6811 51.7309 47.8142 51.7309 47.9029 51.8229C49.1892 52.6513 50.5198 53.2495 51.9392 53.6636C53.3585 54.0778 54.7335 54.2619 56.1085 54.2619C57.8384 54.2619 59.0803 53.9858 59.8343 53.4336C60.5884 52.8813 60.9432 52.1911 60.9432 51.3628C60.9432 50.8106 60.8101 50.3504 60.5884 49.9362C60.3222 49.5221 59.923 49.1079 59.3021 48.6938C58.6811 48.2796 57.8827 47.8655 56.8182 47.4513L54.5561 46.4389C52.6932 45.6106 51.2738 44.7363 50.2093 43.8159C49.1448 42.8956 48.4351 41.8832 48.0803 40.8248C47.6811 39.7664 47.4593 38.616 47.4593 37.3735C47.4593 35.6708 47.8585 34.1062 48.6569 32.7717C49.4997 31.3912 50.6529 30.2868 52.294 29.5045C53.8908 28.7222 55.9311 28.3081 58.3263 28.3081C59.7456 28.3081 61.1206 28.4001 62.4069 28.5842C63.6488 28.7682 64.669 29.0904 65.423 29.4585C65.6448 29.5965 65.7335 29.7806 65.7335 30.0567V35.3947C65.7335 35.4408 65.6892 35.5328 65.6005 35.5788C65.5561 35.6248 65.423 35.6248 65.3343 35.5328C64.4472 35.0266 63.3384 34.6585 62.1851 34.3363C60.9876 34.1523 59.7013 34.0142 58.415 34.0142C57.5722 34.0142 56.7738 34.0602 56.1972 34.2443C55.5763 34.4284 55.0884 34.6124 54.7335 34.8425C54.3787 35.0726 54.0682 35.3947 53.8908 35.7169C53.7134 36.085 53.6247 36.4531 53.6247 36.8213C53.6247 37.3275 53.7577 37.7876 54.0238 38.1558C54.29 38.5699 54.7779 38.9381 55.3988 39.3522C56.0198 39.7664 56.9069 40.2266 58.0158 40.7328L59.7013 41.377C61.6972 42.2513 63.2497 43.1257 64.3585 44.092C65.4674 45.0584 66.2658 46.0708 66.7093 47.2212C67.1529 48.3716 67.3746 49.5221 67.3746 50.8566C67.3746 52.6973 66.8867 54.3539 65.9553 55.7344C64.9795 57.115 63.6932 58.2194 62.0077 58.9556C60.3222 59.6919 58.2819 60.0601 55.9755 60.0601ZM82.7214 54.9521V58.8176C82.7214 59.1397 82.5884 59.3698 82.3666 59.4158C81.79 59.5999 81.169 59.7379 80.548 59.876C79.9271 60.014 79.173 60.0601 78.3747 60.0601C76.3787 60.0601 74.8706 59.5079 73.7174 58.4495C72.6085 57.3911 72.0319 55.6424 72.0319 53.2955V41.6531H69.3263C69.0601 41.6531 68.9714 41.5151 68.9714 41.2389V36.5452C68.9714 36.2691 69.1045 36.177 69.3706 36.177H72.0763C72.1206 35.6248 72.1206 35.0266 72.2093 34.3363C72.2537 33.6461 72.298 32.9098 72.3867 32.2195C72.4311 31.5293 72.5198 30.931 72.5642 30.4709C72.6085 30.3788 72.6085 30.2868 72.6972 30.1948C72.7416 30.1488 72.8303 30.0567 72.919 30.0107L78.3303 29.3204C78.419 29.2744 78.5077 29.2744 78.5521 29.3204C78.5964 29.3665 78.6408 29.4585 78.6408 29.5965C78.5964 30.3328 78.5521 31.2992 78.5077 32.5417C78.4634 33.7841 78.4634 34.9806 78.419 36.177H82.6327C82.8101 36.177 82.8988 36.3151 82.8988 36.5452V41.331C82.8988 41.5151 82.8545 41.6071 82.6771 41.6531H78.3747V51.7309C78.3747 52.7893 78.5521 53.5716 78.9069 54.0318C79.2617 54.492 79.8827 54.722 80.8142 54.722C81.0803 54.722 81.3464 54.722 81.5682 54.676C81.8343 54.676 82.0561 54.63 82.3222 54.63C82.4109 54.584 82.4997 54.584 82.5884 54.676C82.6771 54.722 82.7214 54.8141 82.7214 54.9521Z" fill="white"/>
</svg>
