<svg width="360" height="360" viewBox="0 0 360 360" fill="none" xmlns="http://www.w3.org/2000/svg">
<path fill-rule="evenodd" clip-rule="evenodd" d="M99.7864 52C72.8424 52 51 73.8424 51 100.786V260.214C51 287.158 72.8424 309 99.7864 309H259.214C286.158 309 308 287.158 308 260.214V100.786C308 73.8424 286.158 52 259.214 52H99.7864ZM267.054 114.726C267.054 106.546 260.424 99.9155 252.244 99.9155C244.065 99.9155 237.434 106.546 237.434 114.726C237.434 116.618 237.789 118.427 238.435 120.09L226.987 131.538C214.596 119.514 197.695 112.112 179.064 112.112C141.054 112.112 110.241 142.926 110.241 180.936C110.241 218.946 141.054 249.76 179.064 249.76C196.808 249.76 212.983 243.045 225.188 232.018L239.589 246.419C238.221 248.662 237.434 251.297 237.434 254.116C237.434 262.295 244.065 268.926 252.244 268.926C260.424 268.926 267.054 262.295 267.054 254.116C267.054 245.936 260.424 239.305 252.244 239.305C251.086 239.305 249.958 239.438 248.876 239.69L232.946 223.759C242.299 212.006 247.888 197.124 247.888 180.936C247.888 165.64 242.898 151.51 234.458 140.084L246.263 128.279C248.092 129.087 250.116 129.536 252.244 129.536C260.424 129.536 267.054 122.905 267.054 114.726ZM179.064 126.051C193.845 126.051 207.262 131.894 217.129 141.396L188.774 169.752C186.174 167.493 182.779 166.126 179.064 166.126C170.885 166.126 164.254 172.756 164.254 180.936C164.254 189.115 170.885 195.746 179.064 195.746C181.883 195.746 184.518 194.958 186.761 193.591L215.316 222.146C205.647 230.658 192.959 235.821 179.064 235.821C148.752 235.821 124.18 211.248 124.18 180.936C124.18 150.624 148.752 126.051 179.064 126.051ZM193.875 180.936C193.875 182.094 193.742 183.222 193.49 184.304L223.009 213.823C229.879 204.657 233.949 193.272 233.949 180.936C233.949 169.496 230.449 158.873 224.461 150.081L193.872 180.67C193.874 180.758 193.875 180.847 193.875 180.936Z" fill="#000B20"/>
</svg>
