<svg width="132" height="88" viewBox="0 0 132 88" fill="none" xmlns="http://www.w3.org/2000/svg">
<path d="M65.9996 77.2766C84.3769 77.2766 99.2746 62.3788 99.2746 44.0016C99.2746 25.6243 84.3769 10.7266 65.9996 10.7266C47.6223 10.7266 32.7246 25.6243 32.7246 44.0016C32.7246 62.3788 47.6223 77.2766 65.9996 77.2766Z" fill="#232425"/>
<path fill-rule="evenodd" clip-rule="evenodd" d="M68.4585 26.5249H70.2773L86.1654 54.1181V54.1196L82.7443 59.9675L68.8399 59.9647L70.2493 62.4018H69.6363L68.2266 59.9647L50.9795 59.9632H50.9669L50.0841 58.4098H48.989L45.832 52.9275L45.8348 52.9263V52.9248L49.8858 45.8878L53.6336 43.7197L59.8343 32.9498L58.5869 30.7858L61.5749 25.5977H67.9249L68.4585 26.5249ZM65.3143 35.1237L54.346 54.1239H64.8477L63.6339 52.0243L75.0755 52.0341L65.3143 35.1237Z" fill="white"/>
</svg>
