<svg width="132" height="88" viewBox="0 0 132 88" fill="none" xmlns="http://www.w3.org/2000/svg">
<path fill-rule="evenodd" clip-rule="evenodd" d="M100.375 16.3388C100.375 12.6333 97.3666 9.625 93.6611 9.625H38.3389C34.6333 9.625 31.625 12.6333 31.625 16.3388V71.6608C31.625 75.3663 34.6333 78.3746 38.3389 78.3746H93.6611C97.3666 78.3746 100.375 75.3663 100.375 71.6608V16.3388Z" fill="#134881"/>
<path fill-rule="evenodd" clip-rule="evenodd" d="M95.3392 70.6746C95.3278 72.1472 94.1287 73.3393 92.6536 73.3393H65.5504L53.9657 53.2733H95.3392V70.6746ZM36.66 70.6537V58.8718L62.1854 14.6604H72.1609L50.5966 52.0115L62.9099 73.3393H39.3455C37.8631 73.3393 36.66 72.136 36.66 70.6537ZM69.3679 50.9852H59.2824C58.1564 50.9852 57.1158 50.3944 56.5532 49.419C56.2764 48.9401 56.1307 48.3967 56.1307 47.8435C56.1307 47.2903 56.2764 46.7469 56.5532 46.2679L61.5986 37.5285L69.3679 50.9852ZM92.6536 14.6604C94.1287 14.6604 95.3278 15.8524 95.3392 17.3251V50.9852H72.0098L62.9186 35.2416L74.8015 14.6604H92.6536Z" fill="url(#paint0_radial_2056_23948)"/>
<defs>
<radialGradient id="paint0_radial_2056_23948" cx="0" cy="0" r="1" gradientUnits="userSpaceOnUse" gradientTransform="translate(81.5106 3.63226) scale(69.7074 69.707)">
<stop stop-color="#6BE1FB"/>
<stop offset="1" stop-color="#38BDFA"/>
</radialGradient>
</defs>
</svg>
