<svg width="132" height="88" viewBox="0 0 132 88" fill="none" xmlns="http://www.w3.org/2000/svg">
<path fill-rule="evenodd" clip-rule="evenodd" d="M100.375 16.3389C100.375 12.6333 97.3666 9.625 93.6611 9.625H38.3389C34.6333 9.625 31.625 12.6333 31.625 16.3389V71.6611C31.625 75.3666 34.6333 78.375 38.3389 78.375H93.6611C97.3666 78.375 100.375 75.3666 100.375 71.6611V16.3389Z" fill="#4E3188"/>
<path fill-rule="evenodd" clip-rule="evenodd" d="M95.3403 53.271V70.654C95.3403 72.1183 94.166 73.3104 92.7084 73.339L74.9556 73.339L63.3648 53.271H95.3403ZM72.3144 73.339H40.9083L56.62 46.167L72.3144 73.339ZM38.3865 73.1625C37.4365 72.7982 36.7457 71.9102 36.6685 70.8531L36.6611 58.8713L49.4288 36.7659H59.4083L38.3865 73.1625ZM68.5351 36.7246C69.4046 36.7282 70.2364 37.2389 70.6856 37.9958C70.6903 38.0035 70.699 38.0189 70.699 38.0189L73.3376 42.5879L73.3604 42.6257C73.7914 43.38 73.8082 44.3303 73.3772 45.0982C72.493 46.6452 71.5947 48.1848 70.7031 49.7281C70.2653 50.4787 69.4368 50.9684 68.556 50.9793C66.8755 50.9864 63.5058 50.9825 63.5011 50.9825C62.6316 50.9788 61.7864 50.5153 61.3365 49.7583C61.3265 49.7419 61.3077 49.7085 61.3077 49.7085C61.3077 49.7085 58.6678 45.1391 58.6624 45.1284C58.2307 44.3742 58.2314 43.3998 58.6624 42.6319C58.6684 42.6206 58.6819 42.5981 58.6819 42.5981C58.6819 42.5981 60.4483 39.534 61.3325 38.0019C61.7702 37.2514 62.6008 36.735 63.4809 36.724C63.4957 36.724 63.5252 36.7233 63.5252 36.7233L68.5351 36.7246ZM93.5201 14.8031L72.6232 50.9825H95.3403V17.3459C95.3403 16.1666 94.5782 15.1637 93.5201 14.8031ZM62.1966 14.6604H90.9608L75.4048 41.5935L61.023 16.6931L62.1966 14.6604ZM68.654 34.4791H50.7494L59.7017 18.9798L68.654 34.4791Z" fill="url(#paint0_radial_2056_23950)"/>
<defs>
<radialGradient id="paint0_radial_2056_23950" cx="0" cy="0" r="1" gradientUnits="userSpaceOnUse" gradientTransform="translate(81.5117 3.63225) scale(69.7067)">
<stop stop-color="#F9A6FF"/>
<stop offset="1" stop-color="#EA73FF"/>
</radialGradient>
</defs>
</svg>
