<svg width="132" height="88" viewBox="0 0 132 88" fill="none" xmlns="http://www.w3.org/2000/svg">
<path d="M84.1879 9.76172H47.8105C38.947 9.76172 31.7617 16.947 31.7617 25.8105V62.1879C31.7617 71.0514 38.947 78.2367 47.8105 78.2367H84.1879C93.0514 78.2367 100.237 71.0514 100.237 62.1879V25.8105C100.237 16.947 93.0514 9.76172 84.1879 9.76172Z" fill="#00005B"/>
<path d="M59.8885 51.5218H49.2749L47.1065 58.2551C47.0495 58.5119 46.8213 58.6831 46.5645 58.6547H41.2005C40.8867 58.6547 40.8011 58.4836 40.8867 58.1412L50.0736 31.8067C50.1592 31.5215 50.2448 31.2647 50.359 30.9224C50.4732 30.3232 50.5302 29.6954 50.5302 29.0677C50.5018 28.9251 50.6158 28.7825 50.7584 28.7539H58.148C58.3479 28.7539 58.4904 28.8395 58.519 28.9821L68.9329 58.0839C69.0185 58.398 68.9329 58.5405 68.6477 58.5405H62.6845C62.485 58.5692 62.2852 58.4263 62.2282 58.2268L59.8885 51.3793V51.5218ZM50.9298 45.844H58.1767C58.0055 45.2449 57.7771 44.5318 57.5203 43.7898C57.2635 43.0194 57.0067 42.1921 56.7499 41.3362C56.4648 40.4516 56.208 39.5957 55.9226 38.7114C55.6372 37.8268 55.3807 36.9995 55.1523 36.1719C54.9241 35.3732 54.7243 34.6313 54.5245 33.9465H54.4675C54.2107 35.1734 53.897 36.4004 53.4974 37.627C53.0694 38.9965 52.6414 40.4233 52.1851 41.8498C51.8141 43.3048 51.3578 44.6457 50.9298 45.844ZM85.7379 48.954H76.6935C76.8075 49.8386 77.0929 50.7229 77.5778 51.4932C78.0914 52.2636 78.8048 52.8627 79.6607 53.2051C80.802 53.6903 82.0573 53.9471 83.3126 53.9185C84.3114 53.8899 85.3099 53.8043 86.28 53.6047C87.1501 53.4907 88.0029 53.2703 88.8192 52.9483C88.9618 52.8344 89.0474 52.8913 89.0474 53.1768V57.542C89.0474 57.656 89.019 57.7702 88.9904 57.8844C88.9334 57.97 88.8762 58.027 88.7906 58.0839C87.8782 58.4847 86.92 58.7722 85.9377 58.9399C84.603 59.1966 83.2449 59.3113 81.8861 59.2823C79.7177 59.2823 77.8919 58.9399 76.4081 58.2838C75.01 57.6846 73.7834 56.7431 72.8132 55.5734C71.9098 54.4741 71.24 53.2023 70.8445 51.8356C70.4452 50.4947 70.2454 49.0966 70.2454 47.6701C70.2454 46.1294 70.4735 44.6174 70.9588 43.1337C71.4136 41.7051 72.1402 40.3779 73.0986 39.225C74.0401 38.0836 75.2098 37.1707 76.5507 36.5143C77.8918 35.8582 79.4895 35.63 81.3156 35.63C82.8277 35.6014 84.3397 35.8868 85.7379 36.5143C86.9075 37.0279 87.9347 37.7982 88.7336 38.797C89.4754 39.7669 90.0745 40.8512 90.4455 42.0496C90.8165 43.1906 90.9877 44.3606 90.9877 45.5303C90.9877 46.215 90.9591 46.8142 90.9305 47.3564C90.8735 47.8983 90.8449 48.2979 90.8165 48.5547C90.7879 48.7542 90.6167 48.9254 90.4169 48.9254C90.2457 48.9254 89.9319 48.954 89.4754 48.9827C89.019 49.0396 88.4769 49.0682 87.8207 49.0682C87.1643 49.0682 86.4796 48.954 85.7379 48.954ZM76.6935 44.7886H82.7135C83.4554 44.7886 83.9974 44.7886 84.3397 44.7599C84.5682 44.7313 84.7963 44.6743 84.9961 44.5318V44.2464C84.9972 43.8875 84.9394 43.5308 84.8249 43.1906C84.3114 41.593 82.799 40.5089 81.1158 40.5658C80.3415 40.5225 79.5711 40.7041 78.8977 41.0889C78.2244 41.4737 77.6768 42.0452 77.321 42.7343C76.9787 43.3904 76.7791 44.0752 76.6935 44.7886Z" fill="#9999FF"/>
</svg>
