<svg width="132" height="88" viewBox="0 0 132 88" fill="none" xmlns="http://www.w3.org/2000/svg">
<path d="M101.218 43.9995C101.218 63.45 85.45 79.2178 65.9995 79.2178C46.549 79.2178 30.7812 63.45 30.7812 43.9995C30.7812 24.549 46.549 8.78125 65.9995 8.78125C85.45 8.78125 101.218 24.549 101.218 43.9995Z" fill="#FF8C8D"/>
<path fill-rule="evenodd" clip-rule="evenodd" d="M63.6641 27.6751C57.786 28.292 52.8482 30.2326 48.4751 33.6445C45.3563 36.0779 42.4551 39.5665 40.7598 42.9216L40.2103 44.0094L40.703 44.9848C42.0077 47.5685 43.9954 50.1956 46.3639 52.4664C50.3948 56.3313 55.2431 58.8256 60.8202 59.9037C63.8727 60.4938 67.865 60.5208 70.836 59.9718C79.5402 58.3631 86.7712 53.1628 90.9421 45.5121L91.7889 43.9586L90.8818 42.3325C89.4671 39.7963 88.197 38.1422 85.9158 35.8654C81.6403 31.5979 76.5383 28.9696 70.5942 27.9727C69.1468 27.7299 64.8856 27.5469 63.6641 27.6751ZM63.3516 31.7089C58.3998 32.7699 54.4448 36.8664 53.58 41.8305C53.3428 43.1921 53.4683 45.9741 53.8273 47.3113C54.2018 48.7069 55.2376 50.6951 56.2177 51.9C57.8225 53.873 60.1596 55.392 62.7063 56.1175C64.3721 56.5921 67.4629 56.6274 69.0631 56.1902C76.2626 54.2224 80.2034 46.903 77.8447 39.8798C76.4682 35.7808 72.8107 32.5801 68.482 31.6863C67.0176 31.3839 64.8232 31.3936 63.3516 31.7089Z" fill="white"/>
<path fill-rule="evenodd" clip-rule="evenodd" d="M63.9014 37.7615C61.8565 38.4768 60.1996 40.1912 59.6171 42.194C59.2732 43.3765 59.3806 45.237 59.8645 46.4768C60.3475 47.7145 61.7963 49.2696 63.0282 49.8724C68.6493 52.6238 74.5945 46.7843 71.8971 41.1614C71.222 39.754 69.7963 38.3906 68.4643 37.8787C67.0628 37.3401 65.24 37.2932 63.9014 37.7615Z" fill="black" fill-opacity="0.809"/>
</svg>
