<svg width="132" height="88" viewBox="0 0 132 88" fill="none" xmlns="http://www.w3.org/2000/svg">
<mask id="mask0_2056_25516" style="mask-type:luminance" maskUnits="userSpaceOnUse" x="25" y="27" width="82" height="34">
<path d="M25.0195 27.1406H106.981V60.8619H25.0195V27.1406Z" fill="white"/>
</mask>
<g mask="url(#mask0_2056_25516)">
<path fill-rule="evenodd" clip-rule="evenodd" d="M59.5874 40.8331C60.1611 37.8661 60.405 35.302 60.405 33.8269C60.405 28.2972 57.889 27.1367 55.7792 27.1367C51.2962 27.1367 44.9613 32.3216 36.4133 42.988C30.3072 50.6074 25.3066 58.3311 25.2566 58.4081C25.1506 58.5709 25.0787 58.7532 25.0437 58.9443C25.0087 59.1352 25.0117 59.3312 25.0527 59.5213C25.0937 59.711 25.1716 59.8911 25.2816 60.0506C25.3925 60.2104 25.5334 60.3468 25.6964 60.4521C25.8593 60.5577 26.0412 60.6298 26.2331 60.6647C26.424 60.6996 26.6199 60.6963 26.8099 60.6556C26.9998 60.6147 27.1797 60.5368 27.3386 60.4263C27.4985 60.316 27.6355 60.1752 27.7404 60.0119C35.2109 48.4451 49.43 30.0938 55.7792 30.0938C56.2789 30.0938 57.4482 30.0938 57.4482 33.8269C57.4482 35.285 57.1815 37.881 56.5737 40.8419C56.5737 40.8419 58.293 40.7841 59.5874 40.8331ZM77.1071 38.0286C77.1071 39.3132 76.0654 40.3549 74.7801 40.3549C73.4958 40.3549 72.4541 39.3132 72.4541 38.0286C72.4541 36.7438 73.4958 35.7024 74.7801 35.7024C76.0654 35.7024 77.1071 36.7438 77.1071 38.0286Z" fill="#1C0694"/>
<path fill-rule="evenodd" clip-rule="evenodd" d="M83.8869 48.853C83.0822 49.98 82.1918 51.0429 81.2232 52.0323C77.6328 55.7066 73.4657 57.9 70.0764 57.9C68.3312 57.9 67.4457 57.1539 67.4457 55.6824C67.4457 54.1262 68.2993 51.1633 72.3655 45.8847C72.5214 45.6823 72.6223 45.443 72.6572 45.1903C72.6933 44.9373 72.6633 44.6794 72.5703 44.4418C72.4763 44.2042 72.3234 43.9946 72.1246 43.8337C71.9266 43.6731 71.6898 43.5664 71.4379 43.5241L71.4368 43.5255L71.4379 43.5178C61.4364 41.8438 48.072 41.0694 41.1991 46.8871V46.8937C37.7727 49.7941 37.5059 53.0391 37.5059 53.9642C37.5059 57.8915 40.4974 60.8527 44.4645 60.8527C49.8551 60.8527 54.279 56.7906 57.2586 49.1063C57.5603 48.3228 57.8391 47.5303 58.0932 46.73C56.9996 46.732 55.9471 46.7691 54.9445 46.8403C52.9455 52.5922 49.6131 57.8953 44.4645 57.8953C41.8378 57.8953 40.4635 55.9178 40.4635 53.9642C40.4635 52.7201 41.1581 50.8022 43.1092 49.1506V49.1445C46.2658 46.4729 53.2395 43.8585 68.5603 46.0651C65.8265 49.9662 64.4892 53.1304 64.4892 55.6824C64.4892 59.5021 67.4988 60.8573 70.0764 60.8573C74.3075 60.8573 79.1412 58.3942 83.3382 54.0992C84.7116 52.6942 85.9059 51.2037 86.8896 49.6978C84.9605 49.5892 83.8869 48.853 83.8869 48.853Z" fill="#1C0694"/>
<path fill-rule="evenodd" clip-rule="evenodd" d="M106.548 53.5378C106.419 53.3921 106.263 53.273 106.089 53.1875C105.915 53.1017 105.725 53.0513 105.531 53.039C105.337 53.0266 105.143 53.0524 104.959 53.1151C104.775 53.1778 104.606 53.276 104.46 53.4044C101.214 56.2592 97.8727 57.8966 95.2937 57.8966C93.7614 57.8966 92.9859 57.0949 92.9859 55.514C92.9859 53.8051 93.9025 50.5783 98.2673 44.9108C98.4824 44.6311 98.5893 44.2841 98.5712 43.9323C98.5522 43.5803 98.4084 43.2465 98.1653 42.9913C97.9225 42.7358 97.5966 42.5758 97.246 42.5397C96.8951 42.5034 96.5431 42.5936 96.2532 42.7941C94.0505 44.3223 90.8299 45.3486 88.2392 45.3486C84.9587 45.3486 83.4643 43.3543 83.4643 41.5011C83.4643 39.245 84.6309 38.6488 85.2466 38.6488C86.8317 38.6488 86.9956 40.4077 87.0077 40.9467C87.0267 41.7552 86.8787 42.6541 86.5908 43.6054C86.5908 43.6054 88.0233 44.1097 89.6054 43.7687C89.8595 42.7578 89.9854 41.7854 89.9642 40.8785C89.8933 37.8243 87.9543 35.6914 85.2474 35.6914C82.8915 35.6914 80.5078 37.6871 80.5078 41.5013C80.5078 43.5658 81.4054 45.3909 83.0356 46.6403C84.437 47.7144 86.285 48.3057 88.2392 48.3057C89.6934 48.3057 91.2746 48.0551 92.8198 47.605C90.9647 50.6984 90.0283 53.3472 90.0283 55.514C90.0283 59.2028 92.673 60.8539 95.2937 60.8539C99.7958 60.8539 104.192 57.5778 106.414 55.6248C106.559 55.4966 106.678 55.341 106.764 55.1666C106.85 54.9923 106.9 54.8028 106.912 54.6092C106.925 54.4153 106.899 54.2209 106.836 54.0369C106.773 53.8532 106.675 53.6836 106.548 53.5378Z" fill="#1C0694"/>
</g>
</svg>
