<svg width="132" height="88" viewBox="0 0 132 88" fill="none" xmlns="http://www.w3.org/2000/svg">
<path d="M35.0834 53.5037L40.919 44.1828C46.9201 34.6189 52.9135 25.0507 58.8991 15.4782C60.5081 12.9027 63.2681 8.54484 66.1031 8.62211C68.7364 8.6968 71.4679 12.9284 72.7173 14.9168C76.4749 20.8903 80.2265 26.869 83.9721 32.8529L100.814 59.7365L112.941 79.0996C112.953 79.119 112.96 79.1414 112.961 79.1645C112.962 79.1875 112.957 79.2106 112.947 79.2313C112.936 79.252 112.92 79.2697 112.9 79.2828C112.881 79.2958 112.858 79.3036 112.834 79.3056C108.729 79.6456 105.412 78.4608 102.886 75.7513C102.145 74.9546 101.229 73.5527 100.139 71.5455C98.1144 67.8161 96.1313 64.0618 94.1896 60.2826L84.6187 42.3181L84.5101 42.3825L90.1207 55.3195L97.6997 72.841C97.7036 72.8504 97.7049 72.8607 97.7036 72.8708C97.7023 72.8809 97.6983 72.8904 97.6923 72.8983C97.6862 72.9062 97.6781 72.9123 97.669 72.9158C97.6598 72.9193 97.6498 72.9201 97.6402 72.9182C94.5258 72.501 92.1236 71.1299 90.4336 68.8051C89.8577 68.0135 89.2084 66.6553 88.4859 64.7305C87.4719 62.0314 86.4665 59.3288 85.4698 56.6227L76.6853 32.9817L75.3532 29.4789C75.3377 29.4377 75.3092 29.424 75.2678 29.4377C75.2471 29.4429 75.2264 29.4489 75.2057 29.4558C75.1988 29.4575 75.1962 29.4618 75.198 29.4686L77.257 36.1908L85.9638 65.1401C85.9698 65.1604 85.9704 65.182 85.9654 65.2026C85.9604 65.2233 85.9501 65.2422 85.9354 65.2576C85.9207 65.273 85.9022 65.2843 85.8818 65.2903C85.8614 65.2964 85.8397 65.297 85.819 65.292C81.5871 64.2309 78.7262 60.3392 77.5079 56.3548C77.3337 55.7848 77.0768 54.6387 76.737 52.9165C75.6213 47.2417 74.5263 41.5626 73.4519 35.8792C72.5 31.4664 71.2757 26.5454 69.7788 21.1161C69.2744 19.2823 67.756 14.7828 65.1176 15.9933C63.6069 16.6862 62.5593 19.9236 62.1403 21.4097C59.9709 29.1244 58.2016 36.9309 56.8324 44.8292C56.4237 47.1833 55.8537 50.1606 55.1226 53.7613C54.0775 58.9098 51.5891 63.7312 46.157 65.3229C46.1391 65.3285 46.1201 65.329 46.1019 65.3244C46.0837 65.3198 46.0671 65.3103 46.0538 65.2968C46.0405 65.2833 46.0311 65.2664 46.0265 65.2479C46.0219 65.2293 46.0223 65.2099 46.0277 65.1916L52.1763 44.7005L56.6384 29.9297C56.6522 29.8799 56.6349 29.8636 56.5866 29.8807C56.5608 29.891 56.534 29.9005 56.5064 29.9091C56.4909 29.9142 56.4806 29.9245 56.4754 29.94L49.856 47.7345C47.8418 53.1448 45.8234 58.5561 43.8006 63.9682C42.9331 66.2896 42.2235 67.847 41.6717 68.6402C40.0145 71.0286 37.6019 72.4503 34.4341 72.9054C34.4139 72.9078 34.3934 72.905 34.3746 72.8971C34.3558 72.8892 34.3395 72.8765 34.3272 72.8603C34.3149 72.8442 34.307 72.8251 34.3045 72.8049C34.3019 72.7848 34.3047 72.7644 34.3125 72.7457L45.3862 47.2116L47.6935 41.9936C47.7263 41.9197 47.7504 41.8545 47.766 41.7978C47.8539 41.4613 47.8108 41.4587 47.6366 41.7901L45.7251 45.4345L41.1181 54.1012C37.9434 60.1229 34.7488 66.1325 31.5344 72.1301C28.9451 76.9619 24.9176 80.0937 19.113 79.2361C19.0984 79.2341 19.0846 79.2284 19.0727 79.2197C19.0608 79.2109 19.0514 79.1994 19.0452 79.186C19.039 79.1727 19.0363 79.158 19.0373 79.1433C19.0383 79.1287 19.043 79.1145 19.051 79.1021L35.0834 53.5037Z" fill="url(#paint0_linear_2056_24185)"/>
<defs>
<linearGradient id="paint0_linear_2056_24185" x1="65.9992" y1="8.62109" x2="65.9992" y2="79.3773" gradientUnits="userSpaceOnUse">
<stop stop-color="#73D3E9"/>
<stop offset="1" stop-color="#0977B5"/>
</linearGradient>
</defs>
</svg>
