<svg width="132" height="88" viewBox="0 0 132 88" fill="none" xmlns="http://www.w3.org/2000/svg">
<path d="M62.3015 16.9761L37.8138 27.1307C36.4525 27.6958 36.4662 29.6343 37.8368 30.1786L62.4266 39.9511C64.5871 40.8098 66.9931 40.8098 69.1536 39.9511L93.7438 30.1786C95.1137 29.6343 95.1281 27.6958 93.766 27.1311L69.2791 16.9761C67.0451 16.0496 64.5355 16.0496 62.3015 16.9761Z" fill="#FCB400"/>
<path d="M67.9727 45.2885V69.7019C67.9727 70.8627 69.141 71.6582 70.218 71.2303L97.6185 60.5716C97.9241 60.4502 98.1862 60.2395 98.3709 59.967C98.5556 59.6945 98.6543 59.3726 98.6542 59.0431V34.6301C98.6542 33.4689 97.4859 32.6738 96.4089 33.1017L69.0084 43.7605C68.7029 43.8819 68.4408 44.0926 68.2561 44.3651C68.0714 44.6376 67.9727 44.9591 67.9727 45.2885Z" fill="#18BFFF"/>
<path d="M61.575 46.5466L53.4431 50.4815L52.6174 50.8814L35.4516 59.1244C34.3638 59.6505 32.9746 58.8558 32.9746 57.6443V34.7307C32.9746 34.2924 33.1988 33.9141 33.4996 33.6294C33.6229 33.5063 33.7629 33.4011 33.9154 33.3169C34.3252 33.0702 34.9103 33.0044 35.4078 33.2016L61.4383 43.5381C62.7615 44.0642 62.8654 45.9219 61.575 46.5466Z" fill="#F82B60"/>
<path d="M61.5735 46.5466L53.4416 50.4815L33.498 33.6291C33.6214 33.5061 33.7614 33.401 33.9138 33.3169C34.3237 33.0702 34.9088 33.0044 35.4063 33.2016L61.4368 43.5381C62.76 44.0642 62.8639 45.9219 61.5735 46.5466Z" fill="black" fill-opacity="0.25"/>
</svg>
