<svg width="132" height="88" viewBox="0 0 132 88" fill="none" xmlns="http://www.w3.org/2000/svg">
<g clip-path="url(#clip0_2056_27418)">
<path d="M88.4772 7.13148C91.9749 6.62945 91.975 6.63058 91.9752 6.63186L91.9756 6.63454L91.9764 6.64062L91.9784 6.65546C91.98 6.66663 91.9818 6.68005 91.9839 6.69588C91.9882 6.72754 91.9934 6.76853 91.9993 6.81842C92.0114 6.91821 92.0265 7.05389 92.0425 7.22179C92.0744 7.55719 92.1099 8.02416 92.1302 8.59347C92.1706 9.72557 92.1525 11.2979 91.9134 13.0663C91.4463 16.5202 90.0622 21.2239 86.057 24.5615C82.1757 27.7957 76.8626 28.8517 73.0201 29.2126C71.0203 29.4003 69.2379 29.4147 67.9543 29.3829C67.3101 29.367 66.7849 29.3393 66.4132 29.3147C66.2423 29.3034 66.1034 29.2928 65.9998 29.2843C65.8962 29.2928 65.7574 29.3034 65.5864 29.3147C65.2147 29.3393 64.6896 29.367 64.0452 29.3829C62.7618 29.4147 60.9792 29.4003 58.9794 29.2126C55.1369 28.8517 49.8238 27.7959 45.9427 24.5617C41.9374 21.224 40.5533 16.5202 40.0861 13.0663C39.8471 11.2979 39.8289 9.72557 39.8693 8.59347C39.8897 8.02416 39.9252 7.55719 39.9571 7.22179C39.9731 7.05389 39.9882 6.91821 40.0002 6.81842C40.0063 6.76853 40.0115 6.72754 40.0156 6.69588C40.0177 6.68005 40.0196 6.66663 40.0211 6.65546L40.0232 6.64062L40.0241 6.63454L40.0244 6.63186C40.0247 6.63058 40.0248 6.62945 43.5223 7.13148H88.4772ZM88.4772 7.13148C88.8277 3.61545 88.8269 3.61545 88.8259 3.61531L88.8239 3.61503L88.819 3.6146L88.8058 3.61333C88.8009 3.61291 88.7954 3.61234 88.7892 3.61178C88.7825 3.61107 88.7752 3.61051 88.7671 3.60966C88.7356 3.60683 88.6932 3.60301 88.6402 3.59863C88.5343 3.58973 88.3862 3.57828 88.2002 3.56598C87.8285 3.54139 87.3034 3.51355 86.6591 3.49758C85.3756 3.46578 83.5931 3.48019 81.5933 3.66803C77.7508 4.02886 72.4377 5.08479 68.5566 8.31899C67.5468 9.16051 66.7036 10.0887 65.9998 11.0619C65.2959 10.0887 64.4528 9.16051 63.4431 8.31899C59.5619 5.08479 54.2488 4.02886 50.4063 3.66803C48.4065 3.48019 46.6241 3.46578 45.3405 3.49758C44.6963 3.51355 44.1711 3.54139 43.7993 3.56598C43.6133 3.57828 43.4652 3.58973 43.3594 3.59863C43.3064 3.60301 43.264 3.60683 43.2326 3.60966C43.2169 3.61121 43.2039 3.61234 43.1937 3.61333L43.1807 3.6146L43.1758 3.61503L43.1736 3.61531C43.1728 3.61545 43.1718 3.61545 43.5223 7.13148H88.4772ZM88.4772 7.13148L91.9749 6.62945C91.7439 5.02048 90.4451 3.77672 88.8278 3.61545L88.4772 7.13148ZM43.5223 7.13148L40.0248 6.62945C40.2557 5.02048 41.5545 3.77672 43.1718 3.61545L43.5223 7.13148Z" fill="#FFF7D9"/>
<path d="M88.4772 7.13148C91.9749 6.62945 91.975 6.63058 91.9752 6.63186L91.9756 6.63454L91.9764 6.64062L91.9784 6.65546C91.98 6.66663 91.9818 6.68005 91.9839 6.69588C91.9882 6.72754 91.9934 6.76853 91.9993 6.81842C92.0114 6.91821 92.0265 7.05389 92.0425 7.22179C92.0744 7.55719 92.1099 8.02416 92.1302 8.59347C92.1706 9.72557 92.1526 11.2979 91.9134 13.0663C91.4463 16.5202 90.0622 21.2239 86.057 24.5615C82.1757 27.7957 76.8626 28.8517 73.0201 29.2126C71.0203 29.4003 69.2379 29.4147 67.9543 29.3829C67.3101 29.367 66.7849 29.3393 66.4132 29.3147C66.2423 29.3034 66.1034 29.2928 65.9998 29.2843C65.8962 29.2928 65.7574 29.3034 65.5864 29.3147C65.2147 29.3393 64.6896 29.367 64.0452 29.3829C62.7618 29.4147 60.9792 29.4003 58.9794 29.2126C55.1369 28.8517 49.8238 27.7959 45.9427 24.5617C41.9374 21.224 40.5533 16.5202 40.0861 13.0663C39.8471 11.2979 39.8289 9.72557 39.8693 8.59347C39.8897 8.02416 39.9252 7.55719 39.9571 7.22179C39.9731 7.05389 39.9882 6.91821 40.0002 6.81842C40.0063 6.76853 40.0115 6.72754 40.0156 6.69588C40.0177 6.68005 40.0196 6.66663 40.0211 6.65546L40.0232 6.64062L40.0241 6.63454L40.0244 6.63186C40.0247 6.63058 40.0248 6.62945 43.5223 7.13148M88.4772 7.13148H43.5223M88.4772 7.13148C88.8277 3.61545 88.8269 3.61545 88.8259 3.61531L88.8239 3.61503L88.819 3.6146L88.8058 3.61333C88.8009 3.61291 88.7954 3.61234 88.7892 3.61178C88.7825 3.61107 88.7752 3.61051 88.7671 3.60966C88.7356 3.60683 88.6932 3.60301 88.6402 3.59863C88.5343 3.58973 88.3862 3.57828 88.2002 3.56598C87.8285 3.54139 87.3034 3.51355 86.6591 3.49758C85.3756 3.46578 83.5931 3.48019 81.5933 3.66803C77.7508 4.02886 72.4377 5.08479 68.5566 8.31899C67.5468 9.16051 66.7036 10.0887 65.9998 11.0619C65.2959 10.0887 64.4528 9.16051 63.4431 8.31899C59.5619 5.08479 54.2488 4.02886 50.4063 3.66803C48.4065 3.48019 46.6241 3.46578 45.3405 3.49758C44.6963 3.51355 44.1711 3.54139 43.7993 3.56598C43.6133 3.57828 43.4652 3.58973 43.3594 3.59863C43.3064 3.60301 43.264 3.60683 43.2326 3.60966C43.2169 3.61121 43.2039 3.61234 43.1937 3.61333L43.1807 3.6146L43.1758 3.61503L43.1736 3.61531C43.1728 3.61545 43.1718 3.61545 43.5223 7.13148M88.4772 7.13148L91.9749 6.62945C91.7439 5.02048 90.4451 3.77672 88.8278 3.61545L88.4772 7.13148ZM43.5223 7.13148L40.0248 6.62945C40.2557 5.02048 41.5545 3.77672 43.1718 3.61545L43.5223 7.13148ZM65.9998 27.1175V27.1177C65.9998 27.1179 65.9998 27.1179 65.9998 27.118" stroke="white" stroke-width="7.06683" stroke-linecap="round" stroke-linejoin="round"/>
<path d="M65.8641 25.7469C65.8641 25.7469 54.2743 26.9022 48.2054 21.8449C42.1367 16.7876 43.5231 7.12924 43.5231 7.12924C43.5231 7.12924 55.1129 5.97396 61.1818 11.0313C67.2505 16.0886 65.8641 25.7469 65.8641 25.7469Z" fill="#4DFF74" stroke="#1B1C32" stroke-width="5.65346" stroke-linecap="round" stroke-linejoin="round"/>
<path d="M66.1363 25.7469C66.1363 25.7469 77.7262 26.9022 83.7951 21.8449C89.8638 16.7876 88.4774 7.12924 88.4774 7.12924C88.4774 7.12924 76.8875 5.97396 70.8187 11.0313C64.75 16.0886 66.1363 25.7469 66.1363 25.7469Z" fill="#4DFF74" stroke="#1B1C32" stroke-width="5.65346" stroke-linecap="round" stroke-linejoin="round"/>
<path d="M57.7595 79.3012C56.5426 75.347 53.1149 72.2705 48.6827 70.8095C42.4936 68.7693 37.904 66.0127 35.1606 61.9346C32.379 57.7993 31.9188 52.9427 32.5866 47.6808C33.7125 38.8115 40.9659 32.2227 50.9242 32.2227H81.0761C91.0184 32.2227 98.3385 38.7959 99.4661 47.6808C100.326 54.4529 98.6293 60.2764 94.8418 65.0804C91.1401 69.7758 85.613 73.2866 79.1125 75.954L71.8702 78.9259C69.2376 80.0063 66.7953 81.5018 64.6361 83.3554C64.6359 83.3555 64.6358 83.3557 64.6355 83.3558L64.2765 83.6642C63.3725 84.4406 62.1382 84.7091 60.9934 84.3782C59.8487 84.0475 58.9477 83.1619 58.5972 82.0232L57.7595 79.3012ZM57.7595 79.3012L59.9502 78.627M36.0917 48.1257H36.0919" stroke="white" stroke-width="7.06683" stroke-linecap="round" stroke-linejoin="round"/>
<path d="M81.0764 35.7578H50.9245C42.6785 35.7578 36.9856 41.0892 36.0922 48.1274C34.8672 57.779 38.0862 63.5976 49.7893 67.4555C55.0454 69.1881 59.509 72.9741 61.1369 78.2636L61.9746 80.9855L62.3341 80.6767C64.78 78.5769 67.5468 76.8826 70.5291 75.6588L77.7713 72.6869C90.1543 67.6056 97.4479 59.8418 95.9611 48.1274C95.0678 41.0892 89.3224 35.7578 81.0764 35.7578Z" fill="#FFCA0A"/>
<path d="M77.0481 61.9991C86.871 55.7803 84.5626 49.4438 83.4789 46.2401L91.8178 42.7773L95.3512 43.484V57.759L84.327 69.914L62.8438 79.9489L58.1797 74.5781C60.0171 68.0766 70.5896 66.088 77.0481 61.9991Z" fill="#CCA000"/>
<path fill-rule="evenodd" clip-rule="evenodd" d="M33.2872 47.7702C34.3665 39.2671 41.3079 32.9297 50.9237 32.9297H81.0756C90.6786 32.9297 97.6838 39.2546 98.7646 47.7702C99.6009 54.3593 97.9534 59.992 94.2865 64.6434C90.6879 69.2077 85.2823 72.6586 78.8437 75.3007L71.6015 78.2726C68.8989 79.3815 66.3916 80.9168 64.1751 82.8197C64.175 82.8198 64.1748 82.8199 64.1747 82.8201L63.8156 83.1285C63.0923 83.7497 62.105 83.9643 61.1891 83.6998C60.2732 83.435 59.5526 82.7267 59.2722 81.8156L58.4345 79.0937C57.1353 74.8724 53.5004 71.6541 48.9036 70.1388L48.9034 70.1387C42.7819 68.1208 38.3641 65.4317 35.7465 61.5404C33.0982 57.6037 32.6304 52.9449 33.2872 47.7702ZM63.4379 76.2763C61.2253 70.5447 56.2237 66.599 50.6735 64.7694C45.092 62.9295 42.0487 60.7803 40.4374 58.385C38.8567 56.0351 38.3275 52.9588 38.8957 48.4819C39.6031 42.9085 44.0475 38.5832 50.9237 38.5832H81.0756C87.9646 38.5832 92.4504 42.9209 93.1561 48.4819C93.8066 53.6072 92.5506 57.7136 89.8468 61.1432C87.0745 64.6596 82.6417 67.6312 76.6974 70.0704L69.4552 73.0423C67.3398 73.9104 65.3235 74.9948 63.4379 76.2763Z" fill="#1B1C32"/>
<path d="M92.3829 41.4102C90.4983 45.179 80.5709 47.0636 66.0001 47.0636C51.4292 47.0636 41.5018 45.179 39.6172 41.4102" stroke="#1B1C32" stroke-width="5.65346" stroke-linejoin="round"/>
</g>
<defs>
<clipPath id="clip0_2056_27418">
<rect width="132" height="88" fill="white"/>
</clipPath>
</defs>
</svg>
