<svg width="132" height="88" viewBox="0 0 132 88" fill="none" xmlns="http://www.w3.org/2000/svg">
<path fill-rule="evenodd" clip-rule="evenodd" d="M65.9996 78.6516C85.1363 78.6516 100.65 63.1382 100.65 44.0016C100.65 24.8649 85.1363 9.35156 65.9996 9.35156C46.8629 9.35156 31.3496 24.8649 31.3496 44.0016C31.3496 63.1382 46.8629 78.6516 65.9996 78.6516ZM65.7697 21.5445C65.7697 21.3595 65.8251 21.1529 65.8927 21.0853L85.7749 60.9764C85.7749 60.9764 77.3277 61.0406 75.392 61.0222C74.2865 58.7185 72.0013 54.1472 72.0013 54.1472H60.0046L56.6639 61.0222L46.3828 61.0281L65.7697 21.5445ZM69.9852 46.8139H62.1041L65.9777 37.5556L69.9852 46.8139Z" fill="#FE3434"/>
</svg>
