<svg width="132" height="88" viewBox="0 0 132 88" fill="none" xmlns="http://www.w3.org/2000/svg">
<path d="M65.9991 73.5451C82.3212 73.5451 95.5529 60.3134 95.5529 43.9913C95.5529 27.6692 82.3212 14.4375 65.9991 14.4375C49.677 14.4375 36.4453 27.6692 36.4453 43.9913C36.4453 60.3134 49.677 73.5451 65.9991 73.5451Z" fill="white"/>
<path d="M59.5707 66.5834C57.8843 66.5834 56.5176 65.2166 56.5176 63.5304C56.5176 61.8438 57.8846 60.4766 59.5707 60.477L72.4291 60.4766C74.1155 60.4766 75.4825 61.8438 75.4825 63.53C75.4825 65.2166 74.1155 66.5834 72.4291 66.5834H59.5707Z" fill="#089C58"/>
<path d="M80.7293 37.0295C79.5371 35.8373 77.6036 35.8373 76.4114 37.0295L68.8721 44.569V25.8813C68.8721 24.1951 67.5051 22.8281 65.8187 22.8281C64.1328 22.8281 62.7655 24.1951 62.7655 25.8813V44.3874L55.4076 37.0293C54.2154 35.8371 52.2822 35.8371 51.0897 37.0293C49.8972 38.2218 49.8972 40.155 51.0897 41.3473L63.6599 53.9175C64.2791 54.5367 65.0983 54.8314 65.9095 54.8075C66.7209 54.8314 67.5399 54.5367 68.1593 53.9175L80.7293 41.3473C81.922 40.1553 81.922 38.222 80.7293 37.0295Z" fill="#089C58"/>
<path d="M66.0059 43.9984L66 43.9922V43.9984H66.0059Z" fill="#1E1E1E"/>
<path d="M65.9805 44.0008H65.9994V43.9947L65.9928 43.9883L65.9805 44.0008Z" fill="#1E1E1E"/>
<path d="M65.9988 43.9933V43.9805L65.9922 43.9869L65.9988 43.9933Z" fill="#1E1E1E"/>
<path d="M91.483 68.9753L85.7323 63.2252L85.4807 63.4767C80.2773 68.6818 73.3589 71.5481 65.9996 71.5481C58.6367 71.5481 51.7161 68.6794 46.512 63.4706L46.2604 63.2188L40.5098 68.9694L40.7611 69.221C47.4173 75.8822 56.242 79.5853 65.6439 79.6766V79.6809H65.9996H66.3552V79.6766C75.754 79.5853 84.5763 75.8846 91.2314 69.2272L91.483 68.9753Z" fill="#006699"/>
<path d="M101.675 43.6417C101.583 34.2398 97.8802 25.4154 91.2193 18.7592L90.9677 18.5078L85.2168 24.2585L85.4686 24.5101C90.6777 29.7142 93.5461 36.6348 93.5461 43.9976C93.5461 51.3536 90.682 58.2699 85.4809 63.4728L85.2294 63.7247L90.98 69.4746L91.2316 69.223C97.8848 62.5692 101.583 53.749 101.674 44.3533H101.679V43.9976V43.6419H101.675V43.6417Z" fill="#DB4436"/>
<path d="M91.2182 18.761C84.5641 12.1121 75.7463 8.41587 66.3546 8.32458V8.32031H65.999H65.6433V8.32458C56.2478 8.41587 47.4276 12.1142 40.7731 18.7672L40.5215 19.0187L46.2721 24.7694L46.5237 24.5181C51.7262 19.317 58.6425 16.4529 65.999 16.4529C73.3518 16.4529 80.2658 19.3149 85.4675 24.5119L85.7194 24.7632L91.47 19.0128L91.2182 18.761Z" fill="#F16533"/>
<path d="M38.4531 43.999C38.4531 36.6395 41.3194 29.721 46.5245 24.5179L46.776 24.2663L41.0254 18.5156L40.7738 18.767C34.1169 25.4225 30.4159 34.2448 30.3246 43.6433H30.3203V43.999V44.3547H30.3246C30.4159 53.7466 34.1121 62.5646 40.7612 69.2183L41.0128 69.4698L46.7635 63.7194L46.5121 63.4678C41.3151 58.2664 38.4531 51.3519 38.4531 43.999Z" fill="#329FD9"/>
</svg>
