<svg width="132" height="88" viewBox="0 0 132 88" fill="none" xmlns="http://www.w3.org/2000/svg">
<path fill-rule="evenodd" clip-rule="evenodd" d="M47.2753 27.7894C47.1859 28.0256 47.1521 35.5557 47.2011 44.5234L47.2896 60.8283H69.7451L69.9357 52.0751H57.3266V27.3604H52.3825C48.741 27.3604 47.3953 27.4732 47.2753 27.7894ZM71.2762 61H93.7316V52.0751H81.4833V27.3604H71.2762V61ZM15.5422 44.8666L6 61H26.2195C37.3401 61 46.4389 60.8966 46.4389 60.7707C46.4389 60.366 25.6081 28.7334 25.3414 28.7334C25.2001 28.7334 20.7907 35.9934 15.5422 44.8666Z" fill="black"/>
<path d="M126 43.7619C126 53.0192 118.508 60.5236 109.265 60.5236C100.023 60.5236 92.5305 53.0192 92.5305 43.7619C92.5305 34.5046 100.023 27 109.265 27C118.508 27 126 34.5046 126 43.7619Z" fill="black"/>
</svg>
