<svg width="132" height="88" viewBox="0 0 132 88" fill="none" xmlns="http://www.w3.org/2000/svg">
<path d="M66.1132 7.14844C45.754 7.14844 29.1504 23.5482 29.1504 43.8996C29.1504 64.2511 45.5564 80.8484 65.9156 80.8484C76.3917 80.8484 86.2748 76.3039 93.3906 68.598C100.309 60.6945 103.669 50.2224 102.681 39.7503C100.506 21.1771 84.8911 7.14844 66.1132 7.14844ZM39.4288 29.6734C40.0218 28.6854 40.6148 27.4999 41.4054 26.512C41.4054 26.1168 41.8008 25.9192 42.1961 25.9192C42.5914 25.9192 42.9867 26.1168 43.1844 26.3144L55.6371 38.7624C57.4161 40.1455 59.5904 40.5407 61.567 39.7503C61.7647 39.7503 61.9623 39.5527 61.9623 39.3551C62.753 37.3793 62.753 35.2058 61.7647 33.4275L61.3693 33.0324L48.719 20.5844C48.5213 20.1892 48.3236 19.9916 48.5213 19.5964C48.5213 19.2013 48.719 19.0037 48.9166 18.8061C49.9049 18.0157 50.8932 17.423 52.0792 16.8302C52.4745 16.6326 53.0675 16.6326 53.4628 17.0278L54.8465 18.4109L65.5202 29.0806C66.5086 30.2661 67.8922 30.8589 69.4735 30.8589C71.0548 30.6613 71.4501 31.6492 71.6478 33.4275C72.0431 36.7865 73.0314 39.9479 74.2174 43.1093L74.6127 44.0972C75.601 46.6659 75.9963 47.2586 74.6127 48.4441C73.2291 49.6297 71.8454 51.0128 70.4618 52.5935C70.0665 52.9887 69.6712 53.3838 69.2758 53.3838C69.0782 53.3838 68.8805 53.3838 68.6828 53.1862C64.1366 51.8031 59.3927 50.42 54.6488 49.0369C53.6605 48.8393 53.2652 48.2466 53.4628 47.4562C53.6605 45.6779 52.8699 43.8996 51.4862 42.9117L40.8125 32.242L39.8242 31.2541C39.2312 30.6613 39.0335 30.0685 39.4288 29.6734ZM96.1579 47.2586C94.5766 61.2873 83.5075 72.3522 69.4735 74.1305C60.7764 75.1184 52.2769 72.3522 45.754 66.6222C39.6265 60.6945 35.8709 52.3959 35.8709 43.7021V41.9238C35.8709 41.5286 36.2662 41.1334 36.6616 40.9358H37.0569C37.4522 40.9358 37.6499 41.1334 37.8475 41.331L38.6382 42.1214C41.2078 44.69 43.9751 47.4562 46.5447 50.2224C48.126 51.8031 50.3003 52.9887 52.4745 53.5814C58.2067 55.1621 64.7296 56.9404 72.6361 59.1139L80.1472 61.0897C80.3449 61.0897 80.7402 61.2873 80.9379 61.2873C81.9262 61.4849 83.1122 60.8921 83.3098 59.7066V58.7187C80.7402 48.8393 77.973 38.5648 75.008 28.2903C74.6127 27.1047 74.0197 25.9192 73.2291 25.1289C70.2641 22.1651 67.2992 19.2013 64.3343 16.0399L63.346 15.0519C62.9506 14.6567 62.9506 14.2616 63.1483 13.8664C63.346 13.4712 63.7413 13.0761 64.1366 13.0761H65.9156C82.7169 13.2736 96.3556 26.9072 96.1579 43.7021C96.3556 45.0852 96.3556 46.2707 96.1579 47.2586Z" fill="black"/>
</svg>
