<svg width="132" height="88" viewBox="0 0 132 88" fill="none" xmlns="http://www.w3.org/2000/svg">
<path fill-rule="evenodd" clip-rule="evenodd" d="M11.7412 43.9993V61.8228H64.7622H120.258V43.9993V26.1758H64.7622H11.7412V43.9993ZM26.4622 31.9727C26.4622 32.1155 26.3449 32.2323 26.2016 32.2323C26.0184 32.2323 25.9411 32.4168 25.9411 32.8542C25.9411 33.3305 25.8598 33.4973 25.5937 33.5665C25.306 33.6414 25.2463 33.8025 25.2463 34.5021C25.2463 35.1379 25.1818 35.3471 24.9857 35.3471C24.8273 35.3471 24.7252 35.5082 24.7252 35.7581C24.7252 36.5376 24.5074 37.2506 24.2692 37.2506C24.0985 37.2506 24.0304 37.497 24.0304 38.1158C24.0304 38.7455 23.9637 38.981 23.7852 38.981C23.6344 38.981 23.4946 39.2477 23.4225 39.6732C23.3504 40.0987 23.2106 40.3654 23.0598 40.3654C22.8812 40.3654 22.8145 40.6009 22.8145 41.2306C22.8145 41.8518 22.7468 42.0958 22.5743 42.0958C22.3006 42.0958 22.1257 42.6149 22.1222 43.4369C22.1204 43.8204 22.0369 43.9993 21.8592 43.9993C21.6772 43.9993 21.5987 44.182 21.5987 44.6049C21.5987 45.0052 21.5172 45.2106 21.3584 45.2106C21.0847 45.2106 20.9098 45.7297 20.9063 46.5517C20.9046 46.9352 20.821 47.1141 20.6433 47.1141C20.4755 47.1141 20.3819 47.2833 20.3804 47.59C20.3767 48.3309 20.1915 48.8445 19.9282 48.8445C19.7557 48.8445 19.688 49.0885 19.688 49.7097C19.688 50.3635 19.6243 50.575 19.4275 50.575C19.2442 50.575 19.1669 50.7594 19.1669 51.1969C19.1669 51.6731 19.0856 51.8399 18.8195 51.9091C18.5263 51.9856 18.4721 52.1452 18.4721 52.9313C18.4721 53.6439 18.411 53.8628 18.2116 53.8628C18.0401 53.8628 17.951 54.0336 17.951 54.3617C17.951 54.7329 18.0511 54.8874 18.3419 54.9651C18.839 55.0978 23.6472 55.1021 24.1404 54.9703C24.4322 54.8924 24.5347 54.6908 24.6239 54.021C24.7012 53.4407 24.8179 53.1706 24.9916 53.1706C25.1813 53.1706 25.2463 52.9502 25.2463 52.3054C25.2463 51.6824 25.3139 51.4402 25.4875 51.4402C25.6256 51.4402 25.7774 51.1815 25.8428 50.8345L25.9569 50.2289H29.8385C33.1286 50.2289 33.7355 50.2685 33.8203 50.4884C33.8752 50.6312 34.0398 50.748 34.1863 50.748C34.36 50.748 34.4531 50.9129 34.4546 51.2239C34.4583 51.9648 34.6434 52.4784 34.9068 52.4784C35.0822 52.4784 35.147 52.7352 35.147 53.4302C35.147 54.1251 35.2118 54.3819 35.3872 54.3819C35.5194 54.3819 35.67 54.5436 35.7219 54.7412C35.8122 55.0855 35.9192 55.0992 38.3041 55.0705C41.4754 55.0322 42.4422 54.9267 42.4422 54.6192C42.4422 54.4887 42.325 54.3819 42.1817 54.3819C41.9856 54.3819 41.9211 54.1727 41.9211 53.537C41.9211 52.8373 41.8614 52.6762 41.5738 52.6013C41.2837 52.5259 41.2264 52.3653 41.2264 51.6295C41.2264 50.9614 41.1633 50.748 40.9658 50.748C40.7845 50.748 40.7053 50.5663 40.7053 50.151C40.7053 49.7826 40.5984 49.4943 40.4263 49.3984C40.2585 49.3048 40.1112 48.9222 40.0563 48.438C39.9973 47.9161 39.8816 47.6332 39.7274 47.6332C39.5841 47.6332 39.4885 47.4437 39.487 47.1573C39.4833 46.4164 39.2982 45.9028 39.0348 45.9028C38.8703 45.9028 38.7946 45.6846 38.7946 45.2106C38.7946 44.7107 38.7222 44.5184 38.5341 44.5184C38.3757 44.5184 38.2735 44.3573 38.2735 44.1074C38.2735 43.3279 38.0557 42.6149 37.8176 42.6149C37.6468 42.6149 37.5787 42.3685 37.5787 41.7497C37.5787 41.1285 37.511 40.8845 37.3385 40.8845C37.0752 40.8845 36.89 40.3709 36.8864 39.6299C36.8848 39.3233 36.7912 39.1541 36.6234 39.1541C36.4353 39.1541 36.3629 38.9618 36.3629 38.4619C36.3629 37.9879 36.2871 37.7697 36.1226 37.7697C35.8593 37.7697 35.6742 37.2561 35.6705 36.5152C35.6689 36.2085 35.5753 36.0393 35.4075 36.0393C35.2074 36.0393 35.147 35.8181 35.147 35.0875C35.147 34.2512 35.1049 34.1358 34.7996 34.1358C34.51 34.1358 34.4522 34.0204 34.4522 33.4436C34.4522 32.9437 34.3798 32.7514 34.1917 32.7514C34.018 32.7514 33.9311 32.5784 33.9311 32.2323V31.7132H30.1966C26.993 31.7132 26.4622 31.75 26.4622 31.9727ZM45.0477 43.1341C45.0477 52.7808 45.0852 54.555 45.2896 54.555C45.4227 54.555 45.5766 54.6718 45.6316 54.8145C45.7145 55.0298 46.1913 55.0741 48.4275 55.0741H51.1234L51.1686 47.6765C51.208 41.2363 51.2476 40.2789 51.4745 40.2789C51.6414 40.2789 51.7546 40.4808 51.7894 40.8412C51.8231 41.1896 51.9387 41.4036 52.0933 41.4036C52.2307 41.4036 52.3429 41.5504 52.3429 41.7295C52.3429 41.91 52.498 42.0958 52.6903 42.146C52.9432 42.2119 53.0377 42.382 53.0377 42.7717C53.0377 43.1249 53.1237 43.3071 53.2904 43.3071C53.4416 43.3071 53.5889 43.5502 53.6571 43.9128C53.7224 44.2597 53.8742 44.5184 54.0123 44.5184C54.145 44.5184 54.2536 44.6742 54.2536 44.8645C54.2536 45.0549 54.3674 45.2106 54.5063 45.2106C54.6574 45.2106 54.8047 45.4537 54.873 45.8163C54.9383 46.1632 55.0901 46.4219 55.2282 46.4219C55.3609 46.4219 55.4695 46.5776 55.4695 46.768C55.4695 46.9583 55.5832 47.1141 55.7222 47.1141C55.8733 47.1141 56.0206 47.3572 56.0889 47.7197C56.1542 48.0667 56.306 48.3254 56.4441 48.3254C56.5942 48.3254 56.6853 48.514 56.6853 48.8243C56.6853 49.1778 56.7866 49.3496 57.0327 49.4138C57.2238 49.4635 57.3801 49.6284 57.3801 49.78C57.3801 49.9318 57.4974 50.0558 57.6407 50.0558C57.8227 50.0558 57.9012 50.2386 57.9012 50.6615C57.9012 51.1517 57.9674 51.2671 58.2486 51.2671C58.4802 51.2671 58.596 51.3826 58.596 51.6132C58.596 51.8055 58.7119 51.9593 58.8566 51.9593C59.0386 51.9593 59.1171 52.142 59.1171 52.565C59.1171 53.0552 59.1833 53.1706 59.4645 53.1706C59.7457 53.1706 59.8119 53.286 59.8119 53.7763C59.8119 54.1992 59.8904 54.3819 60.0724 54.3819C60.2157 54.3819 60.333 54.4939 60.333 54.6309C60.333 54.9871 61.4031 55.1016 64.1543 55.04L66.4992 54.9876L66.5438 43.3504L66.5885 31.7132H63.8081H61.0278V37.5967C61.0278 42.8646 60.9987 43.4802 60.7509 43.4802C60.5987 43.4802 60.4332 43.3244 60.3833 43.1341C60.3333 42.9437 60.1843 42.788 60.0521 42.788C59.9201 42.788 59.8119 42.6322 59.8119 42.4419C59.8119 42.2516 59.6981 42.0958 59.5592 42.0958C59.408 42.0958 59.2607 41.8527 59.1925 41.4902C59.1298 41.1571 58.9787 40.8845 58.8566 40.8845C58.7344 40.8845 58.5833 40.612 58.5206 40.2789C58.4524 39.9163 58.3051 39.6732 58.1539 39.6732C58.015 39.6732 57.9012 39.5175 57.9012 39.3271C57.9012 39.1368 57.7902 38.981 57.6544 38.981C57.5187 38.981 57.3577 38.754 57.2964 38.4764C57.2353 38.1987 57.0727 37.9287 56.9353 37.8761C56.7979 37.8235 56.6853 37.6614 56.6853 37.5155C56.6853 37.3698 56.5768 37.2506 56.4441 37.2506C56.306 37.2506 56.1542 36.9919 56.0889 36.6449C56.0206 36.2824 55.8733 36.0393 55.7222 36.0393C55.5832 36.0393 55.4695 35.8835 55.4695 35.6932C55.4695 35.5028 55.3609 35.3471 55.2282 35.3471C55.0901 35.3471 54.9383 35.0884 54.873 34.7415C54.8099 34.4063 54.6548 34.1358 54.5256 34.1358C54.3964 34.1358 54.2413 33.8653 54.1782 33.5301C54.11 33.1676 53.9627 32.9245 53.8115 32.9245C53.6726 32.9245 53.5588 32.7688 53.5588 32.5784C53.5588 32.3862 53.443 32.2323 53.2983 32.2323C53.155 32.2323 53.0377 32.1155 53.0377 31.9727C53.0377 31.7495 52.4781 31.7132 49.0427 31.7132H45.0477V43.1341ZM72.1443 43.0476C72.1443 52.5824 72.1825 54.3819 72.3846 54.3819C72.5167 54.3819 72.6658 54.5377 72.7158 54.728C72.8037 55.063 72.9527 55.0741 77.3988 55.0741C83.1841 55.0741 85.6927 54.9353 85.6927 54.6152C85.6927 54.4479 85.9624 54.3819 86.648 54.3819C87.3681 54.3819 87.6033 54.32 87.6033 54.1301C87.6033 53.9796 87.8474 53.8329 88.2113 53.7649C88.5595 53.6998 88.8192 53.5485 88.8192 53.411C88.8192 53.2516 89.0242 53.1706 89.4271 53.1706C89.9192 53.1706 90.0351 53.1047 90.0351 52.8245C90.0351 52.6323 90.1509 52.4784 90.2956 52.4784C90.4389 52.4784 90.5562 52.3616 90.5562 52.2189C90.5562 52.0747 90.7106 51.9593 90.9035 51.9593C91.0965 51.9593 91.2509 51.8439 91.2509 51.6997C91.2509 51.557 91.3682 51.4402 91.5115 51.4402C91.6562 51.4402 91.772 51.2863 91.772 51.0941C91.772 50.8634 91.8879 50.748 92.1194 50.748C92.351 50.748 92.4668 50.6326 92.4668 50.4019C92.4668 50.2116 92.5806 50.0558 92.7196 50.0558C92.8707 50.0558 93.018 49.8127 93.0862 49.4502C93.1515 49.1032 93.3033 48.8445 93.4414 48.8445C93.6014 48.8445 93.6827 48.6403 93.6827 48.2389C93.6827 47.8403 93.7643 47.6332 93.9215 47.6332C94.2081 47.6332 94.3775 46.8864 94.3775 45.6216C94.3775 44.9102 94.4388 44.6915 94.638 44.6915C94.8503 44.6915 94.8986 44.403 94.8986 43.1341C94.8986 41.9332 94.8442 41.5767 94.6613 41.5767C94.4914 41.5767 94.399 41.2277 94.3358 40.3458C94.2854 39.6452 94.155 39.0579 94.033 38.9828C93.9151 38.9103 93.7779 38.4908 93.728 38.0507C93.6662 37.5048 93.5568 37.2506 93.3832 37.2506C93.2434 37.2506 93.0881 37.0948 93.0383 36.9045C92.9883 36.7142 92.8392 36.5584 92.707 36.5584C92.5483 36.5584 92.4668 36.353 92.4668 35.9528C92.4668 35.4625 92.4006 35.3471 92.1194 35.3471C91.9265 35.3471 91.772 35.2317 91.772 35.0875C91.772 34.9448 91.6548 34.828 91.5115 34.828C91.3668 34.828 91.2509 34.6741 91.2509 34.4819C91.2509 34.2017 91.1351 34.1358 90.643 34.1358C90.1509 34.1358 90.0351 34.0699 90.0351 33.7897C90.0351 33.559 89.9192 33.4436 89.6877 33.4436C89.4947 33.4436 89.3403 33.3282 89.3403 33.1841C89.3403 33.0027 89.1569 32.9245 88.7323 32.9245C88.3323 32.9245 88.1244 32.8432 88.1244 32.6866C88.1244 32.4493 87.4088 32.2323 86.6263 32.2323C86.3755 32.2323 86.2137 32.1306 86.2137 31.9727C86.2137 31.7462 85.3163 31.7132 79.179 31.7132H72.1443V43.0476ZM98.0251 33.8762V36.0393H99.8489H101.673V43.3936V50.748H99.8489H98.0251V52.9111V55.0741L104.669 55.0717C108.323 55.0705 111.489 55.0224 111.704 54.9651C112.081 54.8642 112.095 54.7907 112.095 52.8043V50.748H110.341C108.734 50.748 108.58 50.7191 108.497 50.4019C108.447 50.2116 108.298 50.0558 108.166 50.0558C107.965 50.0558 107.926 48.8992 107.926 43.0476V36.0393H109.75C111.458 36.0393 111.573 36.0173 111.573 35.6932C111.573 35.5009 111.689 35.3471 111.834 35.3471C112.049 35.3471 112.095 35.0299 112.095 33.5301V31.7132H105.06H98.0251V33.8762ZM78.9185 43.0476V50.0558H81.3502C83.396 50.0558 83.782 50.0146 83.782 49.7963C83.782 49.6137 83.9672 49.5367 84.4063 49.5367C84.8843 49.5367 85.0517 49.4557 85.1212 49.1906C85.1844 48.9497 85.3581 48.8445 85.6927 48.8445C86.0272 48.8445 86.2009 48.7393 86.2641 48.4984C86.314 48.3081 86.4795 48.1523 86.6317 48.1523C86.821 48.1523 86.9085 47.9945 86.9085 47.6535C86.9085 47.2999 87.0098 47.1281 87.2559 47.0639C87.546 46.9885 87.6033 46.8279 87.6033 46.0921C87.6033 45.424 87.6664 45.2106 87.8639 45.2106C88.0815 45.2106 88.1244 44.8548 88.1244 43.0476C88.1244 41.2403 88.0815 40.8845 87.8639 40.8845C87.6818 40.8845 87.6033 40.7018 87.6033 40.2789C87.6033 39.7886 87.5371 39.6732 87.2559 39.6732C86.9747 39.6732 86.9085 39.5578 86.9085 39.0675C86.9085 38.6446 86.83 38.4619 86.648 38.4619C86.5047 38.4619 86.3874 38.3378 86.3874 38.1861C86.3874 38.0345 86.2311 37.8696 86.04 37.8199C85.849 37.7701 85.6927 37.6216 85.6927 37.4899C85.6927 37.3333 85.4896 37.2506 85.105 37.2506C84.6633 37.2506 84.4947 37.1646 84.4264 36.9045C84.3432 36.5873 84.1895 36.5584 82.5825 36.5584C81.1397 36.5584 80.8292 36.5124 80.8292 36.2988C80.8292 36.0995 80.6072 36.0393 79.8738 36.0393H78.9185V43.0476ZM29.5863 39.5434C29.5828 40.3654 29.4079 40.8845 29.1341 40.8845C28.9617 40.8845 28.8939 41.1285 28.8939 41.7497C28.8939 42.4035 28.8302 42.6149 28.6334 42.6149C28.4453 42.6149 28.3728 42.8072 28.3728 43.3071C28.3728 43.7811 28.2971 43.9993 28.1326 43.9993C27.8693 43.9993 27.6841 44.5129 27.6805 45.2539L27.678 45.7297H30.1098C32.1556 45.7297 32.5415 45.6886 32.5415 45.4702C32.5415 45.3274 32.4243 45.2106 32.281 45.2106C32.0809 45.2106 32.0204 44.9895 32.0204 44.2589C32.0204 43.5283 31.96 43.3071 31.7599 43.3071C31.5921 43.3071 31.4985 43.1379 31.4969 42.8313C31.4933 42.0903 31.3081 41.5767 31.0448 41.5767C30.8694 41.5767 30.8046 41.3199 30.8046 40.6249C30.8046 39.93 30.7398 39.6732 30.5644 39.6732C30.4322 39.6732 30.2831 39.5175 30.2331 39.3271C30.0787 38.7386 29.589 38.9023 29.5863 39.5434Z" fill="black"/>
</svg>
