<svg width="132" height="88" viewBox="0 0 132 88" fill="none" xmlns="http://www.w3.org/2000/svg">
<mask id="mask0_2056_25314" style="mask-type:luminance" maskUnits="userSpaceOnUse" x="34" y="12" width="64" height="64">
<path d="M34.0156 12.0156H97.9852V75.9852H34.0156V12.0156Z" fill="white"/>
</mask>
<g mask="url(#mask0_2056_25314)">
<path fill-rule="evenodd" clip-rule="evenodd" d="M55.3954 12.6562L34.0156 76.0224H54.6719C58.741 76.0224 60.7829 74.7808 62.7989 71.0917C63.1127 70.5169 63.3786 69.9782 63.6237 69.4824C64.623 67.4573 65.2629 66.1609 67.3318 66.1609H83.7891L87.3804 76.0224H97.9852L76.2635 12.6562H55.3954ZM64.1195 16.8565L47.6283 66.3438H61.0398C62.4082 66.3438 63.3498 65.975 64.0463 64.5178L65.5726 61.5965C67.5397 57.3964 70.4472 56.8483 74.2964 56.8483H80.5386L67.3689 16.8565C66.856 15.5783 64.4613 15.761 64.1195 16.8565Z" fill="#C1FF05"/>
</g>
</svg>
