<svg width="132" height="88" viewBox="0 0 132 88" fill="none" xmlns="http://www.w3.org/2000/svg">
<path d="M45.3157 43.7032C34.009 63.2832 24.7553 79.4006 24.694 79.5538C24.6327 79.707 24.8472 79.8296 25.2149 79.8296C25.5519 79.8296 26.2567 79.3087 26.8082 78.6346C27.6356 77.5621 27.8807 77.4395 28.7693 77.5927C29.9337 77.7766 30.0256 77.654 30.6997 75.1721C31.0061 74.1303 31.3738 73.2416 31.5883 73.1804C31.7722 73.0884 32.0786 73.7013 32.2624 74.6512C32.6301 76.3671 33.0591 77.0718 33.6719 77.0718C34.1928 77.0718 34.4073 76.1832 34.6218 72.782C35.0508 65.9796 35.9701 65.857 36.8587 72.4756C37.1957 75.1721 37.8698 76.459 38.4214 75.5398C38.7891 74.9576 38.9729 73.0578 39.1874 67.7262C39.3406 63.2832 39.6164 61.7204 40.1679 61.5366C40.7501 61.3221 41.1791 63.3138 41.5162 67.8487C41.8226 72.3837 42.1903 74.4673 42.7112 74.7737C43.3853 75.2027 43.7224 73.2723 43.9981 67.2972C44.3658 58.9014 44.5497 56.7565 44.8867 56.2356C45.1319 55.8373 45.1931 55.8373 45.4383 56.205C45.8366 56.8178 46.0205 58.3192 46.572 65.7038C46.8171 69.3195 47.2155 72.6901 47.43 73.211L47.859 74.1609L48.1654 73.3949C48.3186 72.9659 48.5943 68.2164 48.7782 62.8235C49.054 53.6004 49.2072 51.9458 49.7281 51.9458C50.586 51.9458 51.1376 56.205 51.444 65.4281C51.6891 71.6789 51.873 73.4255 52.3939 73.6093C53.0067 73.8238 53.1293 72.5063 53.4357 62.9767C53.834 51.67 54.263 48.5446 55.2436 50.3524C55.7032 51.2104 56.1934 57.2774 56.1934 62.2107C56.2241 67.2972 56.6837 73.3949 57.082 73.7932C57.7868 74.4979 58.0626 72.016 58.3077 62.3946C58.5528 52.8957 58.6754 51.333 59.2882 51.333C59.9011 51.333 60.2075 54.1214 60.4832 61.7511C60.8509 72.1692 61.0654 74.3141 61.7089 74.3141C62.2298 74.3141 62.3524 72.5982 62.6282 63.4364C62.9039 53.7843 63.0571 52.1603 63.9151 52.0071C64.7731 51.8539 65.0795 54.3052 65.3859 63.7734C65.6923 72.7207 65.9068 74.7737 66.4583 74.7737C66.9486 74.7737 67.1937 72.782 67.5308 65.8877C67.9291 57.2774 68.2355 55.01 69.0322 55.01C69.8289 55.01 70.1353 57.5226 70.5949 68.1858C70.8401 74.2528 70.9933 75.5398 71.5142 75.5398C71.8819 75.5398 72.0964 74.0077 72.5866 67.573C73.1075 61.1689 73.4446 59.2998 74.1187 59.2998C74.7622 59.2998 75.1299 61.9043 75.3444 68.1858C75.5282 73.8238 75.8653 76.1526 76.4475 76.1526C77.0297 76.1526 77.3974 74.4367 77.857 69.5953C78.3166 64.5088 78.623 63.1606 79.2358 63.3444C79.818 63.5589 80.0019 64.7846 80.247 69.9324C80.3696 72.5982 80.5841 75.2946 80.7373 75.9075C81.442 78.7265 82.3613 77.1638 82.9741 72.0466C83.495 67.7875 83.9853 66.5618 84.69 67.91C84.9045 68.2777 85.2109 70.4226 85.3641 72.5982C85.7012 77.4395 85.7931 77.9911 86.3447 77.9911C86.8962 77.9911 87.0188 77.5927 87.4478 74.7124C87.6623 73.3642 87.9074 72.0773 88.0606 71.8628C88.5509 71.0661 89.225 71.8015 89.4088 73.3029C89.5007 74.0996 89.654 75.4785 89.7459 76.3058C90.1136 79.3087 90.8183 79.278 91.4312 76.2445C92.0134 73.4868 92.7181 73.7013 93.3616 76.7654C93.5761 77.8379 93.9131 78.7571 94.097 78.8184C94.2808 78.8797 94.6179 78.3588 94.863 77.654C95.4452 75.9381 95.9661 75.7849 96.2112 77.317C96.3032 77.9911 96.5177 78.6958 96.6402 78.9103C96.9773 79.4312 97.8965 79.0635 98.0804 78.2975C98.2949 77.4395 98.9383 77.5315 99.3367 78.4507C99.8269 79.4925 100.409 79.6764 101.359 79.0635C102.125 78.5426 102.248 78.5733 103.657 79.1861C105.159 79.8296 107.518 80.0747 107.303 79.5844C107.028 78.849 66.1213 8.1591 65.9987 8.1591C65.9068 8.12846 56.6224 24.154 45.3157 43.7032Z" fill="#C61C3E"/>
</svg>
