<svg width="132" height="88" viewBox="0 0 132 88" fill="none" xmlns="http://www.w3.org/2000/svg">
<path d="M79.9679 60.1069H96.2644L74.2995 22.1602L66.2695 35.4299L72.443 46.5354L79.9679 60.1069Z" fill="#3C10EE"/>
<path d="M37.1268 77.9446L30.8366 67.1596C30.2394 66.1357 30.2366 64.8757 30.8292 63.8492L47.3813 35.1789L61.4715 10.1002C62.7556 7.81475 66.0838 7.81575 67.3665 10.102L73.4075 20.8698C73.9956 21.918 73.9678 23.1977 73.3347 24.2201L68.2219 32.4759L43.002 77.8839C41.7377 80.1602 38.439 80.1945 37.1268 77.9446Z" fill="#F0F0F7"/>
<path d="M83.5592 60.1055H96.195L101.169 68.7845C102.44 71.0036 100.818 73.7529 98.236 73.7529H62.5371C59.9728 73.7529 58.348 71.037 59.5851 68.8185L63.4829 61.8282C64.0756 60.7654 65.2065 60.1055 66.4349 60.1055H83.5592Z" fill="#2CA4FE"/>
</svg>
