<svg width="132" height="88" viewBox="0 0 132 88" fill="none" xmlns="http://www.w3.org/2000/svg">
<path d="M55.463 11.3269C47.4683 12.3626 41.9335 15.4375 39.7973 20.0336C38.7292 22.267 38.6321 25.5684 39.506 27.8665C40.1857 29.6467 42.3867 31.783 44.4258 32.6892C46.206 33.4661 49.4751 33.8868 51.3524 33.5632C52.8737 33.3042 55.9486 31.7182 55.9486 31.2003C55.9486 31.0061 55.2365 30.7796 54.3949 30.6501C50.6403 30.0999 48.5365 28.4815 47.8567 25.6008C47.4036 23.8206 47.7596 21.1341 48.6336 19.2568C50.2843 15.7612 55.4307 13.5602 61.9041 13.5602C68.4423 13.5602 71.679 15.7288 72.7472 20.8428C72.9414 21.7491 73.2003 26.4747 73.2974 31.3946L73.4916 40.3279L68.7336 40.5221C50.964 41.3313 39.7973 46.5424 36.3987 55.5729C35.4601 58.0652 35.3954 64.0207 36.2693 66.5454C38.4702 72.8894 45.7852 77 54.7833 77C60.9978 77 66.0471 75.0903 70.2549 71.1739C71.5172 69.9763 72.9414 68.3903 73.3945 67.6459C73.8476 66.9338 74.3008 66.3188 74.3979 66.3188C74.5274 66.3188 74.6892 66.8691 74.8187 67.5164C75.3365 70.7208 77.8612 74.184 80.7419 75.6406C83.8815 77.2266 89.5458 77.4208 92.6854 76.0613C94.2714 75.3816 96.6665 73.3101 96.3105 72.9541C96.2134 72.857 95.5984 73.0188 94.9187 73.3101C94.239 73.6014 92.6206 73.8927 91.3907 73.9898C89.3839 74.1517 88.9955 74.0869 88.2187 73.472C86.3738 72.0154 86.3414 71.4328 86.3414 48.8081C86.3414 31.8477 86.2443 27.7371 85.8559 25.6332C83.9786 15.8259 75.6278 10.8414 61.2568 11.0032C59.3147 11.0356 56.693 11.1974 55.463 11.3269ZM73.3298 52.9511L73.2327 62.5966L72.294 64.3444C70.0283 68.6816 64.1051 72.9217 59.1853 73.7633C52.7118 74.8638 49.6693 70.8502 49.6369 61.14C49.6369 56.9647 50.0577 54.7961 51.4171 51.8507C53.9418 46.5101 60.5447 43.4675 69.9312 43.3704L73.4592 43.3381L73.3298 52.9511Z" fill="#3E3E3E"/>
</svg>
