<svg width="132" height="88" viewBox="0 0 132 88" fill="none" xmlns="http://www.w3.org/2000/svg">
<path d="M105.869 70.6889L98.2382 57.4933L104.196 55.5613C104.347 55.5152 104.486 55.4358 104.602 55.3288C104.719 55.2218 104.81 55.09 104.869 54.943C104.936 54.8044 104.97 54.6525 104.97 54.4987C104.97 54.3448 104.936 54.1929 104.869 54.0543L92.9718 32.9955C92.9067 32.8684 92.8143 32.7573 92.7013 32.6705C92.5883 32.5836 92.4575 32.523 92.3184 32.4932C92.1806 32.4599 92.0374 32.4565 91.8982 32.4832C91.759 32.5098 91.6271 32.5659 91.5111 32.6477L86.1295 36.2412L72.3294 12.2844C71.9136 11.3715 71.2636 10.5862 70.4463 10.009C69.6289 9.43186 68.6735 9.08362 67.6781 9C66.6693 9.07028 65.6978 9.41234 64.8659 9.99026C64.0339 10.5682 63.3721 11.3606 62.95 12.2844L25.3938 77.3736C25.3938 77.3736 24.8364 78.2044 25.0479 78.668C25.2593 79.1317 26.1819 78.9385 26.278 78.9385H101.14C102.154 79.0981 103.191 78.9453 104.116 78.5003C105.041 78.0553 105.811 77.3389 106.323 76.4457C106.835 75.5524 107.065 74.5241 106.984 73.4964C106.903 72.4688 106.514 71.4899 105.869 70.6889ZM32.9089 74.8813L91.7418 35.0048L102.447 53.977L32.9089 74.8813ZM96.22 58.0922L104.1 71.8094C104.483 72.338 104.726 72.9556 104.807 73.6043C104.888 74.2531 104.803 74.9118 104.562 75.5189C104.159 76.0311 103.635 76.4327 103.037 76.686C102.438 76.9394 101.786 77.0364 101.14 76.9679H33.3702L96.22 58.0922ZM67.6781 11.1252C68.3033 11.214 68.8957 11.4609 69.4 11.8427C69.9042 12.2246 70.3038 12.7289 70.5612 13.3084L75.6545 22.1763L31.9479 70.2252L64.6221 13.3084C64.8944 12.7056 65.3205 12.1861 65.8573 11.8026C66.3941 11.4192 67.0223 11.1854 67.6781 11.1252ZM76.8269 24.1083L84.515 37.6323L32.7167 72.4277L76.8269 24.1083Z" fill="#2F1559"/>
</svg>
