<svg width="132" height="88" viewBox="0 0 132 88" fill="none" xmlns="http://www.w3.org/2000/svg">
<path fill-rule="evenodd" clip-rule="evenodd" d="M26 43.6316L65.5626 83L106 41.5319L65.5804 5L26 43.6316ZM55.8211 31.6146C52.7475 35.3006 56.0766 38.047 60.6587 35.6063C63.3395 34.1792 64.717 34.1905 66.4907 35.6546C70.6719 39.1073 69.2022 42.005 63.2683 42.005C60.2206 42.005 56.5827 43.1424 55.1841 44.5325C52.1687 47.5332 51.8631 53.4556 54.5842 56.1634C57.3555 58.921 65.1617 58.5494 66.8319 55.5793C68.1156 53.2979 68.4422 53.2979 70.3453 55.5793C73.3947 59.2364 78.5136 58.7955 78.5136 54.8762C78.5136 53.1064 77.786 51.6584 76.8967 51.6584C76.0075 51.6584 75.2799 47.789 75.2799 43.0588C75.2799 36.7712 74.4844 33.7432 72.3227 31.7964C68.5942 28.437 58.5633 28.3276 55.8211 31.6146ZM60.6717 47.7037C58.1106 50.7735 60.6135 53.8321 65.0032 53.0002C69.262 52.191 70.0559 45.2228 65.8892 45.2228C64.1576 45.2228 61.8099 46.3394 60.6717 47.7037Z" fill="black"/>
</svg>
