<svg width="132" height="88" viewBox="0 0 132 88" fill="none" xmlns="http://www.w3.org/2000/svg">
<path d="M81.1908 42.4286C89.8696 42.4286 96.9051 35.393 96.9051 26.7143C96.9051 18.0355 89.8696 11 81.1908 11C72.5121 11 65.4766 18.0355 65.4766 26.7143C65.4766 35.393 72.5121 42.4286 81.1908 42.4286Z" stroke="black" stroke-width="4.4"/>
<path fill-rule="evenodd" clip-rule="evenodd" d="M81.1908 76.9989C89.8696 76.9989 96.9051 69.9634 96.9051 61.2846C96.9051 52.6058 89.8696 45.5703 81.1908 45.5703C72.5121 45.5703 65.4766 52.6058 65.4766 61.2846C65.4766 69.9634 72.5121 76.9989 81.1908 76.9989Z" stroke="black" stroke-width="4.4"/>
<path fill-rule="evenodd" clip-rule="evenodd" d="M36.1433 11H64.429C65.0076 11 65.4767 11.469 65.4767 12.0476V75.9524C65.4767 76.531 65.0076 77 64.429 77H36.1433C35.5647 77 35.0957 76.531 35.0957 75.9524V12.0476C35.0957 11.469 35.5647 11 36.1433 11Z" stroke="black" stroke-width="4.4"/>
</svg>
