<svg width="360" height="360" viewBox="0 0 360 360" fill="none" xmlns="http://www.w3.org/2000/svg">
<path d="M235.239 174.286C266.798 174.286 292.381 148.702 292.381 117.143C292.381 85.5837 266.798 60 235.239 60C203.679 60 178.096 85.5837 178.096 117.143C178.096 148.702 203.679 174.286 235.239 174.286Z" stroke="black" stroke-width="16"/>
<path fill-rule="evenodd" clip-rule="evenodd" d="M235.239 300C266.798 300 292.381 274.416 292.381 242.857C292.381 211.298 266.798 185.714 235.239 185.714C203.679 185.714 178.096 211.298 178.096 242.857C178.096 274.416 203.679 300 235.239 300Z" stroke="black" stroke-width="16"/>
<path fill-rule="evenodd" clip-rule="evenodd" d="M71.4287 60H174.286C176.39 60 178.095 61.7056 178.095 63.8095V296.19C178.095 298.294 176.39 300 174.286 300H71.4287C69.3247 300 67.6191 298.294 67.6191 296.19V63.8095C67.6191 61.7056 69.3247 60 71.4287 60Z" stroke="black" stroke-width="16"/>
</svg>
