<svg width="132" height="88" viewBox="0 0 132 88" fill="none" xmlns="http://www.w3.org/2000/svg">
<path fill-rule="evenodd" clip-rule="evenodd" d="M42.4246 56.3535L57.266 18.5093C57.6571 17.1367 59.0238 16.1562 60.3906 16.1562H71.1315C72.6938 16.1562 73.8653 17.1367 74.4508 18.5093L94.9559 70.2749C95.3469 71.0595 94.7604 71.8438 93.9794 71.8438H79.1379L78.7477 71.6485L43.0102 57.7261C42.4246 57.53 42.229 56.9418 42.4246 56.3535ZM53.3599 68.3147L52.1887 71.0595C52.1887 71.4522 51.7977 71.8438 51.2122 71.8438H37.933C37.3474 71.8438 36.7608 71.0595 36.9563 70.2749L39.8855 63.0201C40.081 62.4319 40.6667 62.2358 41.2523 62.4319L52.7745 66.9419C53.3599 67.1379 53.5555 67.7264 53.3599 68.3147ZM73.8653 58.3143L65.6634 36.5492L59.4138 52.6278L73.8653 58.3143Z" fill="url(#paint0_linear_2056_25178)"/>
<defs>
<linearGradient id="paint0_linear_2056_25178" x1="50.096" y1="40.7938" x2="91.1029" y2="69.836" gradientUnits="userSpaceOnUse">
<stop stop-color="#C92A6A"/>
<stop offset="1" stop-color="#D82E5A"/>
</linearGradient>
</defs>
</svg>
