<svg width="132" height="88" viewBox="0 0 132 88" fill="none" xmlns="http://www.w3.org/2000/svg">
<path d="M102.221 39.7506L99.6219 36.8059L85.6174 20.9628C84.9558 20.1716 83.9491 19.5387 82.6003 19.064C81.3269 18.6104 80.0279 18.3828 78.7047 18.3828H38.9245C35.924 18.3828 33.4405 19.3684 31.4784 21.3426C29.3761 23.5322 28.3242 26.0082 28.3242 28.7721V59.1035C28.3242 61.9502 29.3761 64.4322 31.4784 66.545C33.4405 68.5945 35.924 69.6208 38.9245 69.6208H78.7047C80.1605 69.6208 81.4821 69.3722 82.6727 68.8764C83.919 68.3519 84.9573 67.5743 85.7846 66.5465L99.6219 49.5536L102.221 46.3633C104.158 43.9551 104.158 41.7519 102.221 39.7506ZM75.1121 37.6513L59.2464 53.3527L49.1073 43.3613C48.9671 43.2845 48.8842 43.1338 48.8556 42.9107L52.1665 39.7943C52.3051 39.8711 52.4558 39.9374 52.6156 39.9947L59.2464 46.8591L71.6746 34.3284C72.0016 34.0285 72.2729 33.8492 72.4899 33.7934L75.644 36.7938C75.6154 37.1208 75.4391 37.4072 75.1121 37.6513Z" fill="#0DA5F3"/>
</svg>
