<svg width="132" height="88" viewBox="0 0 132 88" fill="none" xmlns="http://www.w3.org/2000/svg">
<path d="M71.3161 26.7354C75.9359 29.4026 75.9359 36.0707 71.3161 38.7379L41.6484 55.8666C37.0286 58.5338 31.2539 55.1997 31.2539 49.8653V15.608C31.2539 10.2736 37.0286 6.93947 41.6484 9.6067L71.3161 26.7354Z" fill="#0040E3" fill-opacity="0.75"/>
<path d="M85.2528 49.1368C89.9327 51.7922 89.9327 58.5357 85.2528 61.1911L54.8827 78.4226C50.263 81.0444 44.5332 77.7073 44.5332 72.3961V37.9321C44.5332 32.6206 50.263 29.2838 54.8827 31.9049L85.2528 49.1368Z" fill="#FFB8D1" fill-opacity="0.75"/>
<path d="M97.2822 26.7354C101.902 29.4026 101.902 36.0707 97.2822 38.7379L67.6142 55.8666C62.9945 58.5338 57.2197 55.1997 57.2197 49.8653V15.608C57.2197 10.2736 62.9945 6.93947 67.6142 9.6067L97.2822 26.7354Z" fill="#31FBD6" fill-opacity="0.75"/>
</svg>
