<svg width="132" height="88" viewBox="0 0 132 88" fill="none" xmlns="http://www.w3.org/2000/svg">
<path d="M100.961 51.2815C98.9511 62.1837 90.1823 71.711 80.0345 77.0609C78.765 77.7287 78.2572 78.1107 76.8256 78.203H97.4232C97.887 78.2176 98.3489 78.1389 98.7816 77.9712C99.2145 77.8035 99.6093 77.5503 99.9428 77.2268C100.276 76.9032 100.542 76.5158 100.723 76.0874C100.905 75.659 100.999 75.1985 101 74.733V51.2815H100.961Z" fill="#F7931E"/>
<path d="M78.5078 77.5792C78.0909 77.6099 77.6724 77.6099 77.2558 77.5792H78.5078Z" fill="#FFCE00"/>
<path d="M57.9938 30.2452C57.683 30.5 57.3722 30.7372 57.0527 30.9612C51.8386 34.6421 35.9208 46.5807 32.3179 41.4416C28.785 36.399 32.5061 22.0928 41.6689 15.2098C41.844 15.0693 42.0192 14.9463 42.1987 14.8189C52.1495 7.80412 59.5918 8.77485 63.1903 13.9184C66.5701 18.7414 62.7876 26.3007 57.9938 30.2452Z" fill="#8427E0"/>
<path d="M96.8991 41.2929C91.9741 44.763 84.2033 40.7131 80.3554 35.7496C80.1976 35.5475 80.0488 35.341 79.9175 35.1391C76.2532 29.9032 64.3544 13.9322 69.4764 10.3216C74.5984 6.71101 89.3035 10.6554 96.0104 20.2354C96.1592 20.4462 96.3038 20.6746 96.4482 20.8635C102.949 30.5578 101.925 37.757 96.8991 41.2929Z" fill="#00B5FF"/>
<path d="M90.3109 72.7997C90.1358 72.9359 89.9651 73.0633 89.7944 73.182C79.8435 80.2099 72.4013 79.2216 68.8027 74.0867C65.4273 69.255 69.2011 61.7088 73.9949 57.7599C74.3012 57.5008 74.6208 57.2592 74.9405 57.0352C80.1543 53.3588 96.0722 41.4244 99.6708 46.5593C103.204 51.6018 99.4825 65.9168 90.3109 72.7997Z" fill="#FFBD00"/>
<path d="M62.5281 77.6803C57.4061 81.2865 42.701 77.3463 35.9942 67.7664C35.8541 67.5731 35.7271 67.3799 35.5958 67.1865C29.0509 57.488 30.0841 50.2492 35.1011 46.709C40.0218 43.2389 47.7968 47.2844 51.6404 52.2523C51.7982 52.4544 51.947 52.6563 52.0782 52.8628C55.76 58.0985 67.6546 74.0696 62.5281 77.6803Z" fill="#E3006D"/>
<path d="M57.9938 30.2452C50.8797 33.3814 35.7931 39.9086 33.5254 34.6772C31.6254 30.2847 35.1452 21.289 41.6725 15.2098C41.8476 15.0693 42.0227 14.9463 42.2022 14.8189C52.1486 7.80412 59.5916 8.77485 63.1903 13.9184C66.5701 18.7414 62.7876 26.3007 57.9938 30.2452Z" fill="#9327FF"/>
<path d="M96.9018 41.292C91.9767 44.7621 84.206 40.7123 80.358 35.7487C77.1577 28.4266 71.0638 13.9359 76.164 11.7177C80.7606 9.7191 90.3874 13.6943 96.4332 20.8628C102.952 30.5569 101.928 37.7562 96.9018 41.292Z" fill="#00C8FF"/>
<path d="M90.3109 72.7997C90.1358 72.9359 89.9651 73.0633 89.7944 73.182C79.8435 80.2099 72.4013 79.2216 68.8027 74.0867C65.4273 69.255 69.2011 61.7088 73.9949 57.7599C81.1044 54.6194 96.1992 48.0965 98.4668 53.3237C100.367 57.7204 96.8471 66.7163 90.3109 72.7997Z" fill="#FFCE00"/>
<path d="M55.8333 76.2877C51.2541 78.2819 41.6535 74.3243 35.6034 67.1865C29.0498 57.488 30.0841 50.2492 35.1011 46.709C40.0218 43.2389 47.7968 47.2844 51.6404 52.2523C54.8449 59.5789 60.9335 74.0652 55.8333 76.2877Z" fill="#FB006D"/>
</svg>
