<svg width="132" height="88" viewBox="0 0 132 88" fill="none" xmlns="http://www.w3.org/2000/svg">
<path d="M34.0156 22.6773C34.0156 16.789 38.7894 12.0156 44.6775 12.0156H87.3234C93.2115 12.0156 97.9852 16.789 97.9852 22.6773V65.3234C97.9852 71.2115 93.2115 75.9852 87.3234 75.9852H44.6775C38.7894 75.9852 34.0156 71.2115 34.0156 65.3234V22.6773Z" fill="#1890FF"/>
<path d="M57.1628 28.0081C58.1025 28.0081 59.0331 28.1929 59.9007 28.5526C60.7681 28.9123 61.5568 29.4392 62.2214 30.1036C62.8861 30.768 63.413 31.5567 63.7727 32.4246C64.1327 33.2925 64.3175 34.2231 64.3175 35.1625V42.3172H57.1628C55.2648 42.3172 53.4456 41.5634 52.1042 40.2214C50.7619 38.88 50.0084 37.06 50.0084 35.1625C50.0084 33.265 50.7619 31.4454 52.1042 30.1036C53.4456 28.7619 55.2648 28.0081 57.1628 28.0081ZM57.1628 45.6838H64.3175V52.8382C64.3175 54.2533 63.8978 55.6366 63.1122 56.813C62.3254 57.9897 61.2081 58.9066 59.9007 59.4481C58.5934 59.9898 57.1548 60.1314 55.7666 59.8553C54.3793 59.5792 53.1049 58.8978 52.1042 57.8973C51.1029 56.8969 50.422 55.622 50.1462 54.2341C49.8693 52.8464 50.0112 51.4076 50.5529 50.1003C51.0947 48.7932 52.0112 47.6759 53.1877 46.8896C54.3641 46.1034 55.7477 45.6838 57.1628 45.6838ZM74.8384 28.0081C76.7357 28.0081 78.5559 28.7619 79.8971 30.1036C81.2396 31.4454 81.9931 33.265 81.9931 35.1625C81.9931 37.06 81.2396 38.88 79.8971 40.2214C78.5559 41.5634 76.7357 42.3172 74.8384 42.3172H67.684V35.1625C67.684 33.265 68.4386 31.4454 69.7798 30.1036C71.1213 28.7619 72.9415 28.0081 74.8384 28.0081ZM67.684 45.6838H74.8384C76.2539 45.6838 77.6371 46.1034 78.8136 46.8896C79.99 47.6759 80.9077 48.7932 81.4483 50.1003C81.9901 51.4076 82.1312 52.8464 81.8553 54.2341C81.5792 55.622 80.8978 56.8969 79.8971 57.8973C78.8966 58.8978 77.6223 59.5792 76.2338 59.8553C74.8464 60.1314 73.4082 59.9898 72.1008 59.4481C70.7935 58.9066 69.6759 57.9897 68.8894 56.813C68.1037 55.6366 67.684 54.2533 67.684 52.8382V45.6838Z" fill="white"/>
</svg>
