<svg width="132" height="88" viewBox="0 0 132 88" fill="none" xmlns="http://www.w3.org/2000/svg">
<path d="M50.9892 11.6367H55.1233V23.9326C44.5635 28.4228 37.209 38.4708 37.209 50.146C37.209 61.8213 44.5635 71.8693 55.1233 76.3595V58.6311M81.0104 11.6367H76.8763V23.9326C87.4362 28.4228 94.7906 38.4708 94.7906 50.146C94.7906 61.8213 87.4362 71.8693 76.8763 76.3595V58.6311M61.5212 53.8633V67.299M71.1182 53.8633V73.0571" stroke="#F15A29" stroke-width="2.86" stroke-linecap="round"/>
<path fill-rule="evenodd" clip-rule="evenodd" d="M66.0335 11.8711C58.072 24.1614 55.8513 31.6246 54.9542 45.7247C52.3342 49.7058 51.7187 51.9972 51.8765 56.1887C58.0317 48.1869 74.6508 47.5713 80.1905 56.1887C81.1621 52.8714 80.9129 50.6524 78.3439 45.7247C77.201 30.9268 74.4893 23.4917 66.0335 11.8711ZM66.6261 35.8765C68.6658 35.8765 70.3191 33.1206 70.3191 29.7212C70.3191 26.3218 68.6658 23.566 66.6261 23.566C64.5864 23.566 62.9329 26.3218 62.9329 29.7212C62.9329 33.1206 64.5864 35.8765 66.6261 35.8765Z" fill="#414143"/>
</svg>
