<svg width="132" height="88" viewBox="0 0 132 88" fill="none" xmlns="http://www.w3.org/2000/svg">
<path fill-rule="evenodd" clip-rule="evenodd" d="M34.0156 21.0817C34.0156 16.0746 38.0687 12.0156 43.0683 12.0156H76.2607C81.2602 12.0156 85.3132 16.0746 85.3132 21.0817V54.3237C85.3132 59.3309 81.2602 63.3899 76.2607 63.3899H43.0683C38.0687 63.3899 34.0156 59.3309 34.0156 54.3237V21.0817ZM76.5833 37.3279C68.1246 35.8217 61.5455 29.2327 60.0412 20.7612C60.0412 20.3846 59.4775 20.3846 59.2897 20.7612C57.7862 29.2327 51.2066 35.8217 42.7475 37.3279C42.3717 37.3279 42.3717 37.8925 42.7475 38.0809C51.2066 39.587 57.7862 46.176 59.2897 54.6474C59.2897 55.0242 59.8534 55.0242 60.0412 54.6474C61.5455 46.176 68.1246 39.587 76.5833 38.0809C76.9592 37.8925 76.9592 37.516 76.5833 37.3279ZM46.7667 68.225C47.3533 72.6038 51.1475 75.9822 55.7402 75.9822H88.9325C93.9322 75.9822 97.9852 71.9793 97.9852 67.0406V34.2548C97.9852 29.7211 94.57 25.9754 90.1411 25.3921V56.1374C90.1411 62.8133 84.7376 68.225 78.0716 68.225H46.7667Z" fill="black"/>
</svg>
