<svg width="132" height="88" viewBox="0 0 132 88" fill="none" xmlns="http://www.w3.org/2000/svg">
<path d="M39.9874 44.4996C39.8091 44.3226 39.6677 44.1122 39.5714 43.8805C39.475 43.6488 39.4256 43.4003 39.426 43.1495C39.1479 32.8859 46.9125 27.6171 54.7812 27.8385C55.0327 27.8383 55.2819 27.8876 55.5143 27.9836C55.7468 28.0795 55.958 28.2202 56.1359 28.3975C56.3137 28.5749 56.4548 28.7855 56.551 29.0173C56.6472 29.2491 56.6967 29.4975 56.6966 29.7483V43.1495C56.6966 43.656 56.4948 44.1418 56.1355 44.5C55.7763 44.8582 55.2891 45.0594 54.7812 45.0594L41.3414 45.0595C41.0898 45.0598 40.8406 45.0105 40.6083 44.9144C40.3759 44.8183 40.1649 44.6773 39.9874 44.4996ZM34.5886 49.8828C35.4732 50.77 36.5255 51.4734 37.6847 51.9523C38.8438 52.4311 40.0867 52.6759 41.3414 52.6723H54.7806C57.3127 52.6695 59.7402 51.6653 61.5306 49.88C63.321 48.0948 64.3281 45.6742 64.3309 43.1495V29.7489C64.3342 28.4978 64.0887 27.2585 63.6086 26.1027C63.1285 24.9468 62.4233 23.8974 61.5339 23.015C59.7146 21.2717 57.3033 20.2759 54.7806 20.226C51.7203 20.14 48.6743 20.6737 45.8268 21.795C42.9793 22.9163 40.3895 24.6018 38.214 26.7497C33.9071 31.0388 31.6149 36.7451 31.7937 43.3554C31.8268 45.8134 32.8311 48.159 34.5886 49.8828Z" fill="#21C2FD"/>
<path d="M56.7059 41.99C56.6728 41.965 59.4 43.4614 59.6113 46.1722C59.8226 48.8829 58.7526 52.5048 54.9149 52.7059C51.0841 52.7517 45.4462 52.7389 41.4217 52.7059C34.4235 52.7522 31.366 46.8783 31.6457 41.6457C31.7246 34.8246 35.6974 28.5378 39.6867 25.4343C43.5058 22.2578 50.3791 23.3104 54.6459 27.8098C54.6459 27.788 39.6659 27.3612 39.4161 42.8515C39.4161 42.8515 39.2229 44.9802 41.8855 44.912C45.7654 44.8748 55.4491 44.9935 55.5211 44.729C56.6349 44.3166 56.7209 43.3225 56.7059 41.99Z" fill="url(#paint0_linear_2056_24208)"/>
<path d="M55.9799 70.4712C55.8024 70.649 55.5913 70.79 55.359 70.886C55.1266 70.9821 54.8775 71.0314 54.6259 71.0311C44.3327 71.3083 39.0487 63.5666 39.2707 55.72C39.2706 55.4692 39.32 55.2208 39.4162 54.989C39.5124 54.7572 39.6535 54.5466 39.8314 54.3692C40.0093 54.1918 40.2205 54.0512 40.4529 53.9552C40.6854 53.8593 40.9345 53.81 41.1861 53.8101H54.6259C55.1339 53.8101 55.6211 54.0113 55.9803 54.3695C56.3395 54.7277 56.5413 55.2135 56.5413 55.72L56.5408 69.1212C56.5411 69.372 56.4922 69.6204 56.3959 69.8521C56.2995 70.0838 56.1581 70.2943 55.9799 70.4712ZM61.3786 75.8545C62.2684 74.9725 62.9738 73.9231 63.4541 72.7673C63.9343 71.6115 64.1797 70.3722 64.1762 69.1212V55.7206C64.1734 53.1958 63.1663 50.7753 61.3759 48.99C59.5854 47.2047 57.1579 46.2005 54.6259 46.1977H41.1861C39.9314 46.1944 38.6886 46.4392 37.5294 46.9179C36.3702 47.3966 35.3177 48.0998 34.4329 48.9867C32.6847 50.8009 31.6862 53.2052 31.6363 55.7206C31.5395 58.7852 32.0642 61.8377 33.1789 64.6953C34.2935 67.5529 35.9753 70.1568 38.1233 72.3508C42.4248 76.6452 48.203 78.8202 54.8325 78.6414C57.2975 78.6084 59.6499 77.6069 61.3786 75.8545Z" fill="#FEC92E"/>
<path d="M56.527 56.7492C56.4939 56.7742 59.2018 55.2645 59.4121 52.5287C59.6223 49.7929 58.5363 46.4409 54.7231 46.2387C50.9099 46.0365 45.3836 46.169 41.3858 46.2025C34.1277 46.1216 31.3664 51.8162 31.6439 57.0967C31.7169 60.1953 32.432 63.2453 33.7443 66.055C35.0566 68.8647 36.9376 71.3733 39.2692 73.4231C43.0616 76.6288 50.2524 75.5671 54.4893 71.0284C54.4893 71.0503 39.7596 71.5866 39.2692 55.8935C39.2692 55.8935 39.1689 53.7346 41.8122 53.8016C45.6643 53.8394 55.2797 53.7192 55.3512 53.9863C56.457 54.4014 56.5979 55.5998 56.527 56.7492Z" fill="url(#paint1_linear_2056_24208)"/>
<path d="M64.9702 69.6352C65.1478 69.8129 65.3588 69.9539 65.5912 70.05C65.8235 70.1461 66.0726 70.1954 66.3242 70.195C76.6174 70.4723 81.9014 62.73 81.6794 54.884C81.6796 54.6332 81.6301 54.3847 81.5339 54.1529C81.4377 53.9212 81.2966 53.7105 81.1187 53.5332C80.9408 53.3558 80.7296 53.2151 80.4972 53.1192C80.2647 53.0233 80.0156 52.9739 79.764 52.9741H66.3226C66.0711 52.9741 65.822 53.0235 65.5896 53.1195C65.3572 53.2154 65.1461 53.3561 64.9682 53.5335C64.7904 53.7108 64.6493 53.9214 64.553 54.1531C64.4568 54.3848 64.4072 54.6332 64.4072 54.884L64.4072 68.2851C64.4071 68.5361 64.4568 68.7846 64.5534 69.0163C64.6501 69.248 64.7917 69.4583 64.9702 69.6352ZM59.5715 75.0185C58.6817 74.1364 57.9763 73.0871 57.4961 71.9313C57.0159 70.7755 56.7704 69.5362 56.7739 68.2851V54.8845C56.7767 52.3598 57.7838 49.9392 59.5742 48.154C61.3647 46.3687 63.7922 45.3645 66.3242 45.3617H79.764C81.0187 45.3584 82.2616 45.6032 83.4207 46.0819C84.5799 46.5606 85.6324 47.2638 86.5173 48.1507C88.2654 49.9648 89.2639 52.3691 89.3138 54.8845C89.4106 57.9491 88.8859 61.0017 87.7713 63.8593C86.6566 66.7169 84.9748 69.3207 82.8268 71.5148C78.5253 75.8092 72.7477 77.9841 66.1177 77.8053C63.6521 77.7728 61.299 76.7713 59.5699 75.0185H59.5715Z" fill="#FC491E"/>
<path d="M64.4203 55.9132C64.4534 55.9382 61.7455 54.4285 61.5352 51.6927C61.3249 48.9569 62.411 45.6049 66.2242 45.4027C70.0374 45.2005 75.5637 45.333 79.5615 45.3665C86.8196 45.2856 89.5809 50.9801 89.3034 56.2607C89.2249 63.1446 85.4331 69.3228 81.6413 72.5285C77.8494 75.7342 70.7007 74.7636 66.4654 70.2238C66.4654 70.2456 81.1887 70.749 81.6786 55.0575C81.6786 55.0575 81.779 52.8986 79.1356 52.9656C75.2835 53.0029 65.6681 52.8831 65.5965 53.1503C64.4907 53.5653 64.3499 54.7638 64.4203 55.9132Z" fill="url(#paint2_linear_2056_24208)"/>
<path d="M92.0148 33.6341C92.193 33.4571 92.3344 33.2467 92.4308 33.015C92.5271 32.7833 92.5766 32.5349 92.5762 32.284C92.8532 22.0204 85.0897 16.7516 77.221 16.9735C76.9694 16.9734 76.7203 17.0227 76.4879 17.1186C76.2554 17.2145 76.0442 17.3552 75.8663 17.5326C75.6884 17.71 75.5473 17.9206 75.4511 18.1524C75.3549 18.3841 75.3055 18.6326 75.3056 18.8834V32.2846C75.3056 32.7911 75.5074 33.2769 75.8666 33.6351C76.2258 33.9932 76.713 34.1945 77.221 34.1945H90.6608C90.9124 34.1948 91.1615 34.1455 91.3939 34.0494C91.6263 33.9533 91.8373 33.8118 92.0148 33.6341ZM97.413 39.0173C96.5284 39.9045 95.4761 40.6079 94.317 41.0868C93.1578 41.5656 91.9149 41.8104 90.6603 41.8069H77.221C74.6891 41.8041 72.2616 40.7999 70.4712 39.0148C68.6808 37.2296 67.6737 34.8092 67.6707 32.2846V18.8834C67.6674 17.6324 67.9129 16.3931 68.393 15.2372C68.8731 14.0814 69.5783 13.0319 70.4678 12.1496C72.2871 10.4063 74.6983 9.41044 77.221 9.36057C80.2814 9.27433 83.3274 9.80795 86.175 10.9292C89.0226 12.0504 91.6126 13.7358 93.7882 15.8837C98.0951 20.1733 100.387 25.8796 100.208 32.49C100.175 34.948 99.1707 37.2936 97.413 39.0173Z" fill="#25BB21"/>
<path d="M75.2972 31.1257C75.3303 31.1007 72.6032 32.5971 72.3918 35.3079C72.1805 38.0186 73.251 41.641 77.0909 41.8416C80.9212 41.8874 86.5596 41.8746 90.5841 41.8416C97.5796 41.8879 100.637 36.0135 100.357 30.7808C100.278 23.9603 96.3057 17.6729 92.3164 14.5721C88.4974 11.3957 81.624 12.4483 77.3572 16.9476C77.3572 16.9258 92.3372 16.499 92.5865 31.9894C92.5865 31.9894 92.7797 34.118 90.1171 34.0498C86.2372 34.0126 76.554 34.1313 76.4814 33.8668C75.3682 33.4522 75.2823 32.4582 75.2972 31.1257Z" fill="url(#paint3_linear_2056_24208)"/>
<defs>
<linearGradient id="paint0_linear_2056_24208" x1="66" y1="78.6516" x2="66" y2="9.35156" gradientUnits="userSpaceOnUse">
<stop stop-color="#21C2FD"/>
<stop offset="1" stop-color="#1FD2FB"/>
</linearGradient>
<linearGradient id="paint1_linear_2056_24208" x1="66" y1="9.35156" x2="66" y2="78.6516" gradientUnits="userSpaceOnUse">
<stop stop-color="#FEB22A"/>
<stop offset="1" stop-color="#FEE07F"/>
</linearGradient>
<linearGradient id="paint2_linear_2056_24208" x1="66" y1="9.35156" x2="66" y2="78.6516" gradientUnits="userSpaceOnUse">
<stop stop-color="#FE9125"/>
<stop offset="1" stop-color="#FC491E"/>
</linearGradient>
<linearGradient id="paint3_linear_2056_24208" x1="86.3703" y1="41.8714" x2="86.3703" y2="12.739" gradientUnits="userSpaceOnUse">
<stop stop-color="#2EBE21"/>
<stop offset="1" stop-color="#7BDB27"/>
</linearGradient>
</defs>
</svg>
