<svg width="132" height="88" viewBox="0 0 132 88" fill="none" xmlns="http://www.w3.org/2000/svg">
<g clip-path="url(#clip0_2201_6013)">
<path d="M77.392 105.864C101.805 105.864 121.597 86.1623 121.597 61.8595C121.597 37.5568 101.805 17.8555 77.392 17.8555C52.9785 17.8555 33.1875 37.5568 33.1875 61.8595C33.1875 86.1623 52.9785 105.864 77.392 105.864Z" fill="#FF187B"/>
<mask id="mask0_2201_6013" style="mask-type:luminance" maskUnits="userSpaceOnUse" x="6" y="-2" width="125" height="114">
<path d="M96.2574 50.6969C95.1532 49.1619 94.3156 47.4184 94.3346 45.7128C94.3727 42.8892 95.4007 39.9328 95.4197 36.9765C95.4578 33.0157 95.4197 29.055 95.4197 25.1132H88.8138C86.1296 9.97138 72.1752 -1.55078 55.3463 -1.55078C41.1635 -1.55078 29.0178 6.63602 23.9348 18.2529C13.7499 23.7677 6.89648 34.1149 6.89648 45.9782C6.89648 56.4391 12.4744 66.1609 21.1173 71.9978C25.534 74.9731 30.655 76.9061 35.9473 77.6262C38.3841 77.9673 41.5824 77.2851 43.8668 78.0621C45.0472 78.4601 45.8658 79.5213 46.989 80.033C48.5881 80.7721 50.4157 80.791 52.11 81.17C56.9264 82.2123 60.8671 85.5288 64.4652 88.8831C67.1304 91.3656 69.7575 93.924 71.8135 96.9372C74.2503 100.519 75.8114 104.688 76.3254 108.99C76.4015 109.634 76.4967 110.354 77.0297 110.752C77.3534 110.98 77.7722 111.037 78.172 111.075C86.1105 111.814 93.9919 109.577 101.664 107.379C109.545 105.105 117.503 102.812 124.604 98.7186C126.146 97.8279 127.707 96.8046 128.697 95.3264C130.372 92.8059 130.144 89.5274 129.839 86.5332C129.42 82.2692 128.811 77.6452 125.746 74.632C123.804 72.7369 121.348 72.0736 119.54 69.97C116.285 66.1798 112.496 62.8445 108.308 60.0966C105.243 58.0878 101.969 56.3633 99.2082 53.9375C98.2373 53.0658 97.1521 51.9477 96.2574 50.6969Z" fill="white"/>
</mask>
<g mask="url(#mask0_2201_6013)">
<path d="M20.5466 37.2042C20.5466 37.2042 20.6418 37.1663 20.8132 37.0905C21.6127 36.7684 24.2589 35.6692 26.6576 35.8777C30.941 36.2567 33.4158 38.4171 30.9029 41.6766H30.2176L30.8839 40.0848C30.8839 40.0848 32.6734 36.9958 26.4863 36.4083C22.0125 35.9724 20.5466 38.6255 20.5466 38.6255L19.7852 37.3369" fill="#2F2F2F"/>
</g>
<mask id="mask1_2201_6013" style="mask-type:luminance" maskUnits="userSpaceOnUse" x="6" y="-2" width="125" height="114">
<path d="M96.2574 50.6969C95.1532 49.1619 94.3156 47.4184 94.3346 45.7128C94.3727 42.8892 95.4007 39.9328 95.4197 36.9765C95.4578 33.0157 95.4197 29.055 95.4197 25.1132H88.8138C86.1296 9.97138 72.1752 -1.55078 55.3463 -1.55078C41.1635 -1.55078 29.0178 6.63602 23.9348 18.2529C13.7499 23.7677 6.89648 34.1149 6.89648 45.9782C6.89648 56.4391 12.4744 66.1609 21.1173 71.9978C25.534 74.9731 30.655 76.9061 35.9473 77.6262C38.3841 77.9673 41.5824 77.2851 43.8668 78.0621C45.0472 78.4601 45.8658 79.5213 46.989 80.033C48.5881 80.7721 50.4157 80.791 52.11 81.17C56.9264 82.2123 60.8671 85.5288 64.4652 88.8831C67.1304 91.3656 69.7575 93.924 71.8135 96.9372C74.2503 100.519 75.8114 104.688 76.3254 108.99C76.4015 109.634 76.4967 110.354 77.0297 110.752C77.3534 110.98 77.7722 111.037 78.172 111.075C86.1105 111.814 93.9919 109.577 101.664 107.379C109.545 105.105 117.503 102.812 124.604 98.7186C126.146 97.8279 127.707 96.8046 128.697 95.3264C130.372 92.8059 130.144 89.5274 129.839 86.5332C129.42 82.2692 128.811 77.6452 125.746 74.632C123.804 72.7369 121.348 72.0736 119.54 69.97C116.285 66.1798 112.496 62.8445 108.308 60.0966C105.243 58.0878 101.969 56.3633 99.2082 53.9375C98.2373 53.0658 97.1521 51.9477 96.2574 50.6969Z" fill="white"/>
</mask>
<g mask="url(#mask1_2201_6013)">
<path d="M21.2305 37.8101C21.2305 37.8101 23.4198 35.2896 29.0929 36.9383C29.0929 36.9383 25.1141 36.4456 21.2305 37.8101Z" fill="#FFC880"/>
</g>
<mask id="mask2_2201_6013" style="mask-type:luminance" maskUnits="userSpaceOnUse" x="6" y="-2" width="125" height="114">
<path d="M96.2574 50.6969C95.1532 49.1619 94.3156 47.4184 94.3346 45.7128C94.3727 42.8892 95.4007 39.9328 95.4197 36.9765C95.4578 33.0157 95.4197 29.055 95.4197 25.1132H88.8138C86.1296 9.97138 72.1752 -1.55078 55.3463 -1.55078C41.1635 -1.55078 29.0178 6.63602 23.9348 18.2529C13.7499 23.7677 6.89648 34.1149 6.89648 45.9782C6.89648 56.4391 12.4744 66.1609 21.1173 71.9978C25.534 74.9731 30.655 76.9061 35.9473 77.6262C38.3841 77.9673 41.5824 77.2851 43.8668 78.0621C45.0472 78.4601 45.8658 79.5213 46.989 80.033C48.5881 80.7721 50.4157 80.791 52.11 81.17C56.9264 82.2123 60.8671 85.5288 64.4652 88.8831C67.1304 91.3656 69.7575 93.924 71.8135 96.9372C74.2503 100.519 75.8114 104.688 76.3254 108.99C76.4015 109.634 76.4967 110.354 77.0297 110.752C77.3534 110.98 77.7722 111.037 78.172 111.075C86.1105 111.814 93.9919 109.577 101.664 107.379C109.545 105.105 117.503 102.812 124.604 98.7186C126.146 97.8279 127.707 96.8046 128.697 95.3264C130.372 92.8059 130.144 89.5274 129.839 86.5332C129.42 82.2692 128.811 77.6452 125.746 74.632C123.804 72.7369 121.348 72.0736 119.54 69.97C116.285 66.1798 112.496 62.8445 108.308 60.0966C105.243 58.0878 101.969 56.3633 99.2082 53.9375C98.2373 53.0658 97.1521 51.9477 96.2574 50.6969Z" fill="white"/>
</mask>
<g mask="url(#mask2_2201_6013)">
<path d="M29.0931 52.0035C29.0931 52.0035 24.3529 55.3388 21.9161 54.7134C19.4793 54.0691 20.4502 51.3781 23.1725 51.4918C25.9139 51.6244 29.0931 52.0035 29.0931 52.0035Z" fill="#FF9166"/>
</g>
<mask id="mask3_2201_6013" style="mask-type:luminance" maskUnits="userSpaceOnUse" x="1" y="32" width="127" height="95">
<path d="M72.0573 47.2313C70.1782 47.4486 68.2238 47.3139 66.7489 46.4592C64.2798 45.0411 62.2006 42.7133 59.6176 41.2517C56.1641 39.2865 52.6642 37.3923 49.2039 35.453L45.9811 41.2068C31.3855 36.1342 14.4867 42.6361 6.31016 57.2665C-0.599468 69.595 0.679514 84.1377 8.40213 94.2358C8.28991 105.785 14.036 116.795 24.4498 122.594C33.6223 127.709 44.8769 127.605 54.1985 122.954C58.966 120.566 63.1456 117.069 66.3521 112.821C67.8314 110.879 68.7951 107.765 70.5785 106.151C71.503 105.325 72.8368 105.118 73.8289 104.407C75.2513 103.379 76.1497 101.798 77.3163 100.523C80.5703 96.8407 85.3948 95.0354 90.0958 93.5443C93.5692 92.44 97.0908 91.4175 100.737 91.0923C105.063 90.7223 109.478 91.4003 113.508 93.0725C114.113 93.3131 114.79 93.5999 115.393 93.3137C115.757 93.1453 115.998 92.8064 116.223 92.4771C120.732 85.9501 122.609 77.9903 124.399 70.2571C126.234 62.3 128.105 54.2555 127.963 46.0887C127.926 44.3064 127.782 42.4546 126.983 40.8754C125.595 38.1876 122.607 36.7867 119.82 35.5765C115.871 33.8564 111.521 32.1287 107.387 33.3105C104.769 34.0695 103 35.8943 100.273 36.431C95.3574 37.4093 90.5995 39.0657 86.1331 41.3658C82.8702 43.0512 79.7743 45.057 76.2999 46.2718C75.108 46.6818 73.5996 47.0787 72.0573 47.2313Z" fill="white"/>
</mask>
<g mask="url(#mask3_2201_6013)">
<path d="M96.1892 60.6401L66.1777 78.1758L66.2453 78.2904L96.2568 60.7548L96.1892 60.6401Z" fill="#2F2F2F"/>
</g>
<mask id="mask4_2201_6013" style="mask-type:luminance" maskUnits="userSpaceOnUse" x="6" y="-2" width="125" height="114">
<path d="M96.2574 50.6969C95.1532 49.1619 94.3156 47.4184 94.3346 45.7128C94.3727 42.8892 95.4007 39.9328 95.4197 36.9765C95.4578 33.0157 95.4197 29.055 95.4197 25.1132H88.8138C86.1296 9.97138 72.1752 -1.55078 55.3463 -1.55078C41.1635 -1.55078 29.0178 6.63602 23.9348 18.2529C13.7499 23.7677 6.89648 34.1149 6.89648 45.9782C6.89648 56.4391 12.4744 66.1609 21.1173 71.9978C25.534 74.9731 30.655 76.9061 35.9473 77.6262C38.3841 77.9673 41.5824 77.2851 43.8668 78.0621C45.0472 78.4601 45.8658 79.5213 46.989 80.033C48.5881 80.7721 50.4157 80.791 52.11 81.17C56.9264 82.2123 60.8671 85.5288 64.4652 88.8831C67.1304 91.3656 69.7575 93.924 71.8135 96.9372C74.2503 100.519 75.8114 104.688 76.3254 108.99C76.4015 109.634 76.4967 110.354 77.0297 110.752C77.3534 110.98 77.7722 111.037 78.172 111.075C86.1105 111.814 93.9919 109.577 101.664 107.379C109.545 105.105 117.503 102.812 124.604 98.7186C126.146 97.8279 127.707 96.8046 128.697 95.3264C130.372 92.8059 130.144 89.5274 129.839 86.5332C129.42 82.2692 128.811 77.6452 125.746 74.632C123.804 72.7369 121.348 72.0736 119.54 69.97C116.285 66.1798 112.496 62.8445 108.308 60.0966C105.243 58.0878 101.969 56.3633 99.2082 53.9375C98.2373 53.0658 97.1521 51.9477 96.2574 50.6969Z" fill="white"/>
</mask>
<g mask="url(#mask4_2201_6013)">
<path d="M72.9366 33.4336C72.9366 33.4336 77.2581 37.8871 74.8213 41.5257C74.8213 41.5257 79.5997 38.0766 79.9804 35.2908C80.3612 32.505 82.9883 39.9527 81.5986 42.4164C80.2089 44.88 84.7588 37.2238 84.2257 35.2908C83.6927 33.3578 80.9132 32.884 80.9132 32.884L72.9366 32.2587L70.043 32.0312C70.062 32.0502 72.7653 33.2441 72.9366 33.4336Z" fill="#E42625"/>
</g>
<mask id="mask5_2201_6013" style="mask-type:luminance" maskUnits="userSpaceOnUse" x="6" y="-2" width="125" height="114">
<path d="M96.2574 50.6969C95.1532 49.1619 94.3156 47.4184 94.3346 45.7128C94.3727 42.8892 95.4007 39.9328 95.4197 36.9765C95.4578 33.0157 95.4197 29.055 95.4197 25.1132H88.8138C86.1296 9.97138 72.1752 -1.55078 55.3463 -1.55078C41.1635 -1.55078 29.0178 6.63602 23.9348 18.2529C13.7499 23.7677 6.89648 34.1149 6.89648 45.9782C6.89648 56.4391 12.4744 66.1609 21.1173 71.9978C25.534 74.9731 30.655 76.9061 35.9473 77.6262C38.3841 77.9673 41.5824 77.2851 43.8668 78.0621C45.0472 78.4601 45.8658 79.5213 46.989 80.033C48.5881 80.7721 50.4157 80.791 52.11 81.17C56.9264 82.2123 60.8671 85.5288 64.4652 88.8831C67.1304 91.3656 69.7575 93.924 71.8135 96.9372C74.2503 100.519 75.8114 104.688 76.3254 108.99C76.4015 109.634 76.4967 110.354 77.0297 110.752C77.3534 110.98 77.7722 111.037 78.172 111.075C86.1105 111.814 93.9919 109.577 101.664 107.379C109.545 105.105 117.503 102.812 124.604 98.7186C126.146 97.8279 127.707 96.8046 128.697 95.3264C130.372 92.8059 130.144 89.5274 129.839 86.5332C129.42 82.2692 128.811 77.6452 125.746 74.632C123.804 72.7369 121.348 72.0736 119.54 69.97C116.285 66.1798 112.496 62.8445 108.308 60.0966C105.243 58.0878 101.969 56.3633 99.2082 53.9375C98.2373 53.0658 97.1521 51.9477 96.2574 50.6969Z" fill="white"/>
</mask>
<g mask="url(#mask5_2201_6013)">
<path d="M46.4192 34.1554C45.9242 34.1554 45.4673 34.0417 45.0675 33.7953C44.0776 33.2078 43.6016 32.0139 43.7159 30.441C43.8111 29.0765 44.3441 27.5225 45.2198 26.0823C46.7238 23.5997 48.8559 22.0078 50.6454 22.0078C51.1404 22.0078 51.5973 22.1215 51.9971 22.3679C53.8818 23.5049 53.8247 26.8213 51.8448 30.0809C50.3408 32.5445 48.2087 34.1554 46.4192 34.1554ZM50.6264 23.7513C49.6555 23.7513 47.9802 24.8694 46.7047 26.9919C45.9813 28.1858 45.5244 29.4745 45.4483 30.5547C45.3911 31.4075 45.5815 32.0708 45.9623 32.2982C46.0765 32.374 46.2288 32.4119 46.4001 32.4119C47.371 32.4119 49.0463 31.2938 50.3218 29.1902C51.9019 26.575 51.8257 24.3388 51.0642 23.884C50.95 23.7892 50.8168 23.7513 50.6264 23.7513Z" fill="#2F2F2F"/>
<g opacity="0.44">
<path d="M51.0829 29.6242C49.4267 32.3721 46.9138 33.8882 45.505 33.0354C44.0962 32.1826 44.2866 29.2642 45.9429 26.5352C47.5991 23.7874 50.112 22.2713 51.5208 23.1241C52.9486 23.9769 52.7582 26.8764 51.0829 29.6242Z" fill="#70C9EB" stroke="white" stroke-width="1.2134" stroke-miterlimit="10"/>
</g>
<path d="M93.7454 52.6874C93.1172 50.0722 93.7454 48.8214 93.0029 47.0779C92.2414 45.3344 92.2414 43.7046 91.004 43.0793C89.7476 42.4539 91.1944 42.0749 91.1944 41.26C91.1944 40.4451 90.1283 38.4552 89.2526 38.1331C88.3769 37.8299 87.4441 38.0762 87.1775 38.0004C86.9301 37.9436 87.5583 36.8823 87.5583 36.3138C87.5583 35.7453 87.1775 34.6272 86.378 34.1344C85.5594 33.6417 84.2458 32.8837 84.2458 32.8837C84.2458 32.8837 83.6176 31.0075 83.5605 30.818C83.5033 30.6285 85.1977 29.3209 85.5023 27.3879C85.8069 25.4549 86.1876 21.0772 84.2458 20.0918C82.304 19.0874 77.6018 17.4766 74.651 25.1517L74.0799 25.2464C74.0799 25.2464 72.9186 24.6211 72.081 23.9009C71.2243 23.1808 69.4158 22.6881 67.1694 23.0292C64.8849 23.3893 62.5433 23.5788 59.6497 24.8864C56.775 26.194 58.1076 26.3456 55.2901 26.573C54.7571 26.6109 54.2621 26.7246 53.8243 26.8573C51.9586 27.4448 50.8925 28.6576 50.0549 28.7524C49.0269 28.885 43.0682 28.4491 40.2697 28.506C37.4713 28.5629 25.3826 29.3398 21.8417 32.5046C20.6614 33.547 19.8999 35.0062 18.9861 36.0864C17.2156 38.1899 15.7688 39.8008 15.5403 41.1463C15.1977 43.174 15.7878 43.2119 14.4171 44.7659C13.0465 46.3199 11.295 49.352 12.7038 50.4701C14.1125 51.5882 15.4642 51.304 15.7117 51.2092C15.9592 51.1145 16.8158 54.4877 19.0051 55.3026C21.1944 56.1175 21.0421 55.928 23.8596 55.549C26.6771 55.17 27.3054 54.2035 28.7522 53.8623C30.199 53.5212 33.264 55.549 34.292 56.2691C35.32 56.9893 38.8419 57.084 40.403 57.7094C41.5072 58.1453 43.2205 58.7896 44.5341 59.3202C50.7212 59.036 57.251 63.3189 58.8311 67.6776C60.5254 72.3585 72.8996 97.5632 81.4092 111.151L114.172 86.2495L119.37 75.9023L114.629 72.0363L109.661 69.7243L103.683 66.2184C103.683 66.2184 97.0959 61.9354 96.9056 60.6468" fill="#FF9166"/>
<path d="M17.6155 44.9371C17.6155 44.9371 13.6176 48.0451 15.9402 48.064C18.2627 48.083 26.4488 43.6105 30.4085 42.6061C34.3683 41.6017 30.9606 37.2809 30.4085 37.262C29.8564 37.2241 27.9908 41.2227 27.8956 41.2606C27.8004 41.2985 22.3748 42.1703 22.2034 42.1703C22.0321 42.1513 17.1586 43.5347 17.1586 43.5347" fill="#FFC880"/>
<path d="M105.263 67.2215L97.2297 59.9633L93.0035 47.0767L89.2341 38.1508L86.626 36.8432L86.4546 37.7149C85.7693 36.0662 84.7984 34.9102 84.7984 34.9102C85.5218 36.0662 85.636 39.989 85.5028 39.1741C85.3695 38.3592 83.8846 37.5064 83.8846 37.5064C85.2934 39.231 85.0459 44.9731 84.8745 43.9308C84.6842 42.8885 84.1892 42.68 84.1892 42.68C84.5509 44.6888 83.3706 49.9003 83.1612 50.81C83.4277 49.6919 82.4949 48.3843 82.4949 48.3843C82.0951 52.1934 78.6303 56.0973 79.6203 54.6002C80.6102 53.103 80.1723 52.1745 80.1723 52.1745C78.3067 56.4384 70.0826 57.8976 71.6627 57.1585C73.2428 56.4384 73.852 54.7328 73.852 54.7328C71.0345 57.0259 63.9336 57.8029 65.2471 57.4239C66.5607 57.0448 67.3032 55.7562 67.3032 55.7562C64.143 57.1965 54.8528 57.3102 56.3758 57.2344C57.8988 57.1585 59.3075 56.1541 59.3075 56.1541C56.1854 57.1585 47.7709 56.2868 49.8079 56.1541C51.8449 56.0215 54.7005 55.0171 54.7005 55.0171C52.5683 55.7183 43.3543 54.5433 45.1438 54.5433C46.9333 54.5433 49.0845 54.0695 49.0845 54.0695C46.1147 54.5623 40.651 53.1978 41.5458 53.3115C42.4405 53.4442 44.23 53.0272 44.23 53.0272C42.8974 53.103 38.4808 52.3829 39.8705 52.4208C41.2602 52.4587 42.193 51.8333 42.193 51.8333C40.2512 51.9091 36.9768 51.0374 37.7193 51.0374C38.4808 51.0374 39.8514 50.5826 39.8514 50.5826C38.4427 50.8479 36.3867 50.412 36.3867 50.412C38.5759 50.2415 41.5458 47.4936 41.5458 47.4936C39.1471 48.7443 35.4729 49.5213 32.1985 49.9951H21.9564C20.719 49.654 19.7291 49.4645 19.9004 49.6919C19.9194 49.7108 19.9575 49.7487 20.0336 49.8056L16.7402 48.6875C14.8174 47.5315 15.6551 44.6888 15.3695 44.8973C15.084 45.1058 12.9518 48.8959 13.2183 50.8289C13.4848 52.7619 15.3314 50.8479 16.4166 51.0563C17.5017 51.2648 17.9967 53.5958 18.0538 53.6337C18.0728 53.6526 18.4155 53.9179 18.7391 54.1643C18.7391 54.6949 19.0056 55.1687 19.6339 55.5477C22.4704 57.1775 24.6787 56.0215 26.3731 55.7562C28.0674 55.5098 34.3116 56.2868 34.3116 56.2868L41.1269 57.9924L48.9893 60.5887C48.9893 60.5887 57.7845 64.0377 59.574 68.0553C61.3445 72.0729 82.1522 110.619 82.1522 110.619L119.427 85.0164L123.615 76.9433L105.263 67.2215ZM83.1422 50.9237C83.1422 50.9426 83.1231 50.9426 83.1422 50.9237Z" fill="#E42625"/>
<path d="M18.0156 39.1014C18.0156 39.1014 29.0953 34.8185 27.6675 37.7938C26.2397 40.7691 22.0706 41.7924 21.9754 41.8114C21.8802 41.8493 27.6104 41.8114 29.3047 40.8828C31.0181 39.9542 33.1122 36.164 27.0012 35.1406L25.3069 35.2733L23.4603 35.4628L21.4043 35.9934C21.4043 35.9934 21.0235 36.5809 20.9474 36.5809C20.8522 36.5998 18.3393 37.4905 18.3393 37.4905C18.3393 37.4905 18.0156 39.0824 18.6819 39.1961C19.3482 39.3098 20.5666 38.7603 20.5666 38.7603" fill="#E42625"/>
<path d="M37.5854 43.3828C37.5854 43.3828 39.9651 44.7283 34.1968 45.3348C28.4285 45.9412 17.1584 46.8508 15.4832 48.4806C13.8079 50.1104 15.5022 50.5273 18.4911 49.3145C21.4609 48.1205 27.1149 48.5564 27.4957 48.5564C27.8764 48.5564 31.7219 47.8931 32.6548 48.1205C33.5876 48.329 38.1946 46.9077 38.4231 46.5476C38.6515 46.1875 39.5272 45.3727 38.9751 44.5009C38.4421 43.6292 37.5854 43.3828 37.5854 43.3828Z" fill="#E42625"/>
<path d="M77.2968 28.9998C77.2968 28.9998 79.9049 21.95 82.2084 22.0069C84.5119 22.0638 82.2655 19.8086 81.7515 19.8086C81.2375 19.8086 77.5442 20.3392 77.2968 20.7372C77.0683 21.1352 76.5162 24.7548 76.5733 25.4749C76.6114 26.1951 75.9261 28.9998 77.1635 29.6441C78.4009 30.2885 77.2968 28.9998 77.2968 28.9998Z" fill="#FFC880"/>
<path d="M21.6695 36.1066C21.6695 36.1066 23.8588 34.0409 26.029 33.3966C28.1993 32.7712 35.8142 31.8995 37.8321 31.8426C39.8501 31.7858 50.4729 31.7289 50.4729 31.7289L50.2064 29.7012L44.5523 29L33.2632 29.7012L27.9328 30.9898C27.9328 30.9898 24.3728 32.4112 24.1824 32.468C23.9921 32.5249 20.2988 36.2203 20.2988 36.2203L21.6695 36.1066Z" fill="#FFC880"/>
<path d="M39.6987 45.3345C39.6987 45.3345 40.4983 46.9454 36.8622 47.3433C33.226 47.7413 27.1151 49.011 24.7735 49.011C22.4319 49.011 16.1306 49.9396 17.2918 53.0286C18.4531 56.1366 18.0914 51.5694 20.5853 50.9251C23.0792 50.2807 24.8306 50.4892 29.9707 49.9775C35.1107 49.4848 40.2889 47.855 40.5173 46.5284C40.7458 45.2208 39.6987 45.3345 39.6987 45.3345Z" fill="#E42625"/>
<path d="M81.3887 20.5289C81.3887 20.5289 87.4235 20.0741 82.0931 27.9766C78.2666 33.643 83.7493 31.4447 83.7493 31.4447L86.4336 27.0291C86.4336 27.0291 86.9666 22.045 86.9476 21.9881C86.9286 21.9502 84.4347 19.6761 83.8064 19.8846C83.1592 20.131 81.3887 20.5289 81.3887 20.5289Z" fill="#E42625"/>
<path d="M67.5105 23.7288C67.5105 23.7288 74.9922 30.1911 70.9943 34.8909C66.9965 39.5908 62.3324 48.1945 53.7656 42.8124C53.7656 42.8124 60.7142 42.0165 62.9606 40.2162C65.207 38.4158 68.8812 33.3559 68.3672 30.3048C67.8532 27.2537 65.7781 24.1647 65.7781 24.1647L68.3672 23.293" fill="#E42625"/>
<path d="M52.2051 35.7648C52.2051 35.7648 53.7471 38.7401 57.0786 38.3611C60.4101 37.9821 63.7607 35.9733 64.3889 35.2911C64.3889 35.2911 62.8279 33.6423 60.5434 32.4484C58.2589 31.2735 54.737 33.5476 53.1569 34.7604L52.2051 35.7648Z" fill="#2F2F2F"/>
<path d="M80.1715 111.986C80.0192 109.541 75.7549 100.426 69.0157 88.2024C63.038 77.3625 57.2697 67.9628 56.0894 66.8068C53.9382 64.6653 45.8283 60.5151 42.8204 59.0748C42.2683 58.8853 40.1933 58.8853 38.9368 58.8664C36.0622 58.8474 34.5202 58.8095 33.6635 58.222C31.2267 56.5164 29.6657 55.9858 29.2659 56.0427C28.9042 56.1374 28.5806 56.289 28.1427 56.5164C27.286 56.9523 26.239 57.4829 24.2401 57.7483C23.8022 57.8051 23.4405 57.862 23.1359 57.8999C21.1751 58.1841 20.7562 58.1841 18.7002 57.4071C16.7584 56.687 15.6923 54.6972 15.1212 53.5222C14.2265 53.5032 13.1033 53.2379 11.9991 52.3472C11.3899 51.8545 11.0282 51.1723 10.9521 50.3384C10.7236 47.8369 13.2556 44.8995 13.5411 44.5774C14.1503 43.8951 14.1503 43.8572 14.1694 43.2697C14.1884 42.8907 14.2074 42.3791 14.3217 41.6589C14.6072 40.0291 15.9779 38.3994 17.7103 36.3527L18.072 35.9168C18.3575 35.5757 18.6621 35.1587 18.9667 34.7229C19.5379 33.908 20.2042 32.9794 21.0799 32.1835C25.5536 28.2038 40.2885 27.8247 40.4408 27.8247C41.9066 27.7868 44.1911 27.9005 46.2091 27.9763C47.4846 28.0332 48.9885 28.0901 49.731 28.0901C50.8541 27.2373 54.1095 25.039 57.7266 25.039C57.7837 25.039 57.8408 25.039 57.917 25.039C59.6494 24.1483 66.8835 20.7939 72.8422 23.3523C73.28 23.5418 73.7179 23.7882 74.0796 24.0346C75.317 21.4193 76.9352 19.7137 78.896 18.9747C80.7807 18.2545 82.9319 18.463 85.0831 19.5811C86.3967 20.2633 87.1582 21.7604 87.3295 24.0535C87.4628 25.8349 87.2153 27.6731 87.1011 28.3933C86.8726 29.7767 86.1302 30.8758 85.5591 31.596C87.8245 34.5523 94.6398 44.0846 95.3823 53.3327C95.6107 56.308 98.3902 59.8518 103.625 63.8505C108.347 67.4511 114.229 70.8054 118.95 73.4965C122.396 75.4674 125.138 77.0214 126.641 78.2153L124.852 80.4704C123.519 79.4092 120.74 77.8362 117.523 75.998C112.725 73.2691 106.767 69.8579 101.874 66.1435C95.8773 61.5763 92.8123 57.464 92.5077 53.5791C91.7081 43.6109 82.7035 32.6572 82.6083 32.5435L82.437 32.3351L82.3608 32.0887C82.0753 31.2549 82.5893 30.6863 82.951 30.2694C83.3698 29.7767 84.0932 28.9428 84.2455 27.9763C84.7405 24.9063 84.9308 22.5374 83.8648 21.2109C82.8558 19.9412 81.2186 20.4149 79.8289 21.3246C78.4962 22.1963 77.1827 23.864 76.1737 26.4603L75.8881 27.2373L73.8131 27.5784L73.2991 27.1046C73.0706 26.8961 72.3472 26.3087 71.6999 26.0244C66.3314 23.7313 59.0211 27.7489 58.945 27.7868L58.5642 27.9953L58.1264 27.9574C54.6997 27.711 51.2159 30.6105 51.1778 30.6295L50.8542 30.9137L50.4163 30.9706C49.8261 31.0464 48.4364 30.9895 46.0758 30.8758C44.115 30.7811 41.8876 30.6863 40.4979 30.7242C36.1764 30.819 25.7821 31.8613 23.0026 34.3439C22.3744 34.9124 21.8414 35.6515 21.3274 36.3906C21.0037 36.8643 20.6611 37.3381 20.2803 37.7929L19.9186 38.2288C18.586 39.8017 17.3105 41.2988 17.1582 42.1706C17.063 42.7012 17.063 43.0802 17.044 43.4024C17.0059 44.5205 16.8536 45.1838 15.6923 46.4914C14.3788 47.9696 13.6744 49.6752 13.8076 50.1489C14.6453 50.8122 15.3497 50.6606 15.4258 50.6417C15.6733 50.5659 16.6632 50.3384 17.2915 51.4565C17.3866 51.6082 17.4628 51.7977 17.577 52.0251C17.9387 52.7831 18.6812 54.375 19.6902 54.7351C21.1941 55.2846 21.1941 55.2846 22.7171 55.0762C23.0407 55.0193 23.4215 54.9814 23.8593 54.9056C25.3633 54.6972 26.1057 54.3181 26.8291 53.9581C27.3431 53.6928 27.8762 53.4274 28.5996 53.2569C29.1326 53.1242 30.7698 52.7452 35.2436 55.8342C35.7766 56.0048 37.6804 56.0048 38.9559 56.0237C41.4117 56.0427 42.9727 56.0806 43.9246 56.4406L44.0198 56.4785C44.4767 56.706 55.1756 61.8606 58.1454 64.798C59.8588 66.5036 66.4457 77.5709 71.5667 86.8569C75.7739 94.4562 82.8367 107.836 83.0842 111.853L80.1715 111.986Z" fill="#2F2F2F"/>
<path d="M26.8295 42.1523C26.8295 42.1523 27.058 42.9104 24.9639 43.2136C22.8698 43.5168 19.1575 44.4833 17.6726 45.3361C16.1877 46.1889 15.5404 47.307 15.9973 47.5534C16.4542 47.7997 18.9671 46.8901 19.8809 46.7006C20.7947 46.5111 29.0759 45.8478 29.0759 45.8478C29.0759 45.8478 27.3435 46.5679 27.2484 46.7006C27.1532 46.8332 22.5081 47.2501 22.1273 47.288C21.7466 47.3259 17.9582 48.065 17.5394 48.3303C17.1396 48.5767 15.0074 48.9557 14.817 48.842C14.6267 48.7283 14.1507 47.7808 14.303 47.4965C14.4553 47.2122 14.7218 45.1087 15.4833 44.7676C16.2448 44.4265 18.2247 43.5547 18.4531 43.3652C18.6816 43.1757 21.423 42.5693 21.5753 42.5314C21.7275 42.4935 26.8295 42.1523 26.8295 42.1523Z" fill="#E42625"/>
<path d="M85.5009 47.4961C85.5009 47.4961 83.5019 58.8477 73.7168 59.2267C73.7168 59.2267 85.5009 64.3435 85.5009 47.4961Z" fill="#2F2F2F"/>
<path d="M58.964 28.0167C58.964 28.0167 52.7769 28.282 49.5215 32.8871C49.5215 32.8871 50.1878 28.4147 54.6235 27.0312" fill="#2F2F2F"/>
<path d="M56.0703 28.5467C56.0703 28.5467 59.8016 27.3149 61.3056 28.5467C61.3056 28.5467 59.4209 26.5948 57.0983 26.5" fill="#2F2F2F"/>
<path d="M61.7051 27.145C61.7051 27.145 68.5966 24.1697 74.1174 27.6566C74.1174 27.6566 69.3581 22.2746 61.7051 27.145Z" fill="#FFC880"/>
<path d="M16.1295 43.2878C16.1295 43.2878 15.6536 42.2455 21.1744 41.5065C26.6952 40.7484 31.9495 40.142 30.8263 37.5078C30.8263 37.5078 32.197 40.3694 29.1891 41.8855C26.1812 43.3826 17.938 42.2834 15.4061 46.7559C15.4061 46.7559 13.6927 49.1437 13.807 49.9396C13.9212 50.7356 13.293 49.6364 13.293 49.4659C13.2739 49.2953 13.1978 46.7938 13.293 46.6043C13.3881 46.4148 13.7879 45.6946 13.9021 45.5051C14.0164 45.3345 15.2538 44.2922 15.2538 44.2922" fill="#2F2F2F"/>
<path d="M16.1297 40.8065C16.3962 40.2001 20.7938 37.149 24.9439 36.8647C29.075 36.5805 26.0671 39.2715 22.5262 39.6505C18.9853 40.0295 17.9192 42.8343 17.9192 42.8343L16.1297 43.6492L15.4824 42.4174" fill="#2F2F2F"/>
<path d="M78.4019 22.783C78.4019 22.783 74.2137 28.6389 78.1544 31.3109C78.1544 31.3109 72.0434 23.7116 64.2953 24.2612C56.5281 24.8108 74.7848 24.6213 74.7848 24.6213L77.6023 21.4375" fill="#2F2F2F"/>
<path d="M85.5009 23.293C85.5009 23.293 86.072 30.7028 80.418 31.3092C80.418 31.3092 84.016 32.4273 85.5009 34.2845" fill="#2F2F2F"/>
<path d="M54.3187 70.0842C54.3758 70.0463 54.6042 69.8188 54.9279 69.5156C54.5091 69.8567 54.2616 70.141 54.3187 70.0842Z" fill="#303031"/>
<path d="M76.4009 28.0712C76.4009 28.0712 76.9149 31.653 78.9329 27.5027C80.9318 23.3525 84.111 21.1162 83.3685 24.2621C82.6261 27.4269 79.1803 34.0218 74.8398 27.01" fill="#2F2F2F"/>
<path d="M58.2985 32.4844C58.2985 32.4844 56.7374 36.9568 58.9648 37.4306C58.9648 37.4306 55.5761 37.3548 54.0532 36.3883C52.5302 35.4218 55.2715 33.5077 58.2985 32.4844Z" fill="#F4C2A0"/>
<path d="M12.3613 49.5455C12.3613 49.5455 15.0075 50.6257 17.5585 49.1286C20.1285 47.6315 28.562 47.7831 33.664 47.2524C38.766 46.7218 38.4233 43.6328 38.4233 43.6328C38.4233 43.6328 42.5163 45.2626 37.8332 47.6504C33.15 50.0382 19.2719 48.8064 18.2248 51.4595C17.1968 54.1127 18.815 56.0078 20.8519 55.7235" fill="#2F2F2F"/>
<path d="M58.2988 32.2035C58.2988 32.2035 60.0122 31.256 62.3728 32.4878C64.7525 33.7196 65.1903 34.6861 64.9238 34.9703C64.6763 35.2546 63.8196 35.7852 63.6293 35.8989" fill="#2F2F2F"/>
<g opacity="0.44">
<path d="M65.8738 37.5289C62.5232 42.4183 56.6407 44.6924 52.7381 42.6267C48.8354 40.5611 48.3976 34.9137 51.7672 30.0243C55.1177 25.135 61.0003 22.8609 64.9029 24.9265C68.7865 27.0111 69.2243 32.6396 65.8738 37.5289Z" fill="#70C9EB" stroke="white" stroke-width="1.2134" stroke-miterlimit="10"/>
</g>
<path d="M54.0146 31.7269C56.9464 27.2545 60.9823 24.3361 63.5142 24.6772C63.2667 24.1466 62.905 23.7486 62.4101 23.5212C59.9923 22.3462 55.4044 25.3973 52.168 30.3435C48.9317 35.2897 48.2463 40.2738 50.6641 41.4488C50.8925 41.5625 51.159 41.6383 51.4256 41.6762C50.4737 39.6295 51.4256 35.6687 54.0146 31.7269Z" fill="#70C9EB"/>
<path d="M55.974 43.7644C54.6033 43.7644 53.3469 43.4612 52.2237 42.8737C50.0534 41.7177 48.7399 39.6142 48.5305 36.9421C48.3401 34.3837 49.1777 31.5979 50.9101 29.0774C53.5373 25.2683 57.7445 22.8047 61.6471 22.8047C63.0178 22.8047 64.2743 23.1079 65.3975 23.6954C67.5677 24.8514 68.8813 26.9549 69.0907 29.627C69.2811 32.1854 68.4434 34.9712 66.711 37.4917C64.1029 41.3008 59.8957 43.7644 55.974 43.7644ZM61.6662 24.5482C58.4298 24.5482 54.8889 26.6896 52.6235 29.9871C49.5585 34.4595 49.844 39.5573 53.2707 41.3766C54.0703 41.7935 54.9841 42.0209 55.9931 42.0209C59.2294 42.0209 62.7703 39.8795 65.0358 36.582C68.1008 32.1096 67.8152 27.0118 64.3885 25.1925C63.5889 24.7566 62.6751 24.5482 61.6662 24.5482Z" fill="#2F2F2F"/>
<path d="M75.9458 31.9187L67.6836 30.8575L67.9692 28.7539L76.2313 29.8152L75.9458 31.9187Z" fill="#2F2F2F"/>
<path d="M60.4868 27.332C60.4868 27.332 52.9861 34.3628 52.6815 40.844C52.6625 40.844 51.9581 29.4735 60.4868 27.332Z" fill="white"/>
<path d="M46.1504 27.9163C46.2456 27.9353 46.3408 27.9542 46.4169 27.9922C46.6073 27.9922 46.8167 27.9732 47.0071 27.9542C47.1403 27.9353 47.2736 27.9353 47.4069 27.9542C47.6543 27.9163 47.9018 27.8784 48.1493 27.8784C48.1683 27.8784 48.1683 27.8784 48.1874 27.8784C49.9198 25.6422 51.5189 24.1641 51.5189 24.1641C49.006 24.7894 47.3117 26.2108 46.1504 27.9163Z" fill="white"/>
<path d="M32.0458 55.5122C29.609 54.0151 27.058 53.9582 25.3637 54.5457C23.6694 55.1332 21.6705 55.228 20.2807 54.9247C18.891 54.6026 17.7297 52.4232 18.358 51.5704C18.9862 50.7176 21.1374 49.6185 23.5361 49.7132C25.9348 49.808 22.0512 48.8225 21.937 48.8604C21.8228 48.8983 16.8921 50.0164 16.8921 50.0164C16.8921 50.0164 15.9212 52.9159 16.0925 53.3897C16.2448 53.8445 19.405 56.384 19.9381 56.4219C20.4711 56.4598 25.0972 56.9525 25.2114 56.9525C25.3256 56.9525 29.4757 56.2703 29.4757 56.2703" fill="#2F2F2F"/>
<path d="M19.1948 56.044L20.6987 56.025L23.6114 55.8165L27.5331 55.0585L28.7325 54.6605L31.1502 55.0775L35.8143 56.2335C35.8143 56.2335 35.7382 58.2233 32.559 57.4274C29.3797 56.6125 28.3898 58.3181 24.6204 60.7627C20.851 63.1885 22.5263 67.7935 22.5263 67.7935C18.1858 64.4582 22.8499 59.5499 20.0895 60.7438C17.3291 61.9377 18.2429 64.0412 18.2429 64.0412C13.3884 59.0572 25.2677 56.4609 20.4132 57.4084C15.5587 58.356 14.2261 63.4538 14.2261 63.4538C12.6269 59.2088 15.0827 56.1198 18.1477 54.0352" fill="#2F2F2F"/>
<path d="M57.8418 65.1953C57.8418 65.1953 67.0749 74.9361 78.6305 75.0877C78.6305 75.0877 75.1657 76.9638 70.4254 76.0352C65.6851 75.1066 75.337 85.7002 87.083 85.2264C98.829 84.7716 87.083 92.2383 87.083 92.2383L82.971 97.5256C82.971 97.5256 85.9027 104.537 85.5029 105.693C85.0841 106.849 81.981 111.132 81.981 111.132" fill="#2F2F2F"/>
<path d="M51.5 60.7617C51.5 60.7617 64.807 63.9455 72.7265 61.4061C72.7265 61.4061 69.2998 64.7793 64.6357 66.3333C59.9716 67.8873 72.6885 68.4937 80.7412 66.1248C80.7412 66.1248 65.5305 73.5157 63.1889 72.6819C60.8473 71.848 56.4878 65.7458 56.3545 65.6321" fill="#2F2F2F"/>
<path d="M26.1055 54.6213C26.1055 54.6213 38.2322 54.356 40.2882 53.3516C40.2882 53.3516 37.4517 56.0615 38.8795 56.6869C40.2882 57.3123 42.1158 57.4071 42.1158 57.4071" fill="#2F2F2F"/>
<path d="M40.2887 53.3515C40.2887 53.3515 35.1867 53.8064 33.5304 53.3515C31.8742 52.8967 38.0042 49.5234 38.0042 49.5234C38.0042 49.5234 29.1899 52.2903 27.5908 53.56C25.9917 54.8297 30.8462 55.3793 30.8462 55.3793C30.8462 55.3793 35.8339 56.0805 35.9482 56.0805" fill="#2F2F2F"/>
<path d="M63.1328 22.9187C63.1328 22.9187 67.5114 22.8619 69.1295 29.1915L83.2362 30.4801L69.891 28.5472C69.872 28.5472 67.9873 21.5543 63.1328 22.9187Z" fill="#FFC880"/>
<path d="M91.7847 45.3359C91.7847 45.3359 92.2607 57.294 85.5215 61.5958C85.5215 61.5958 92.8699 57.5403 93.955 55.3989C95.0401 53.2574 92.432 69.3847 86.9493 73.7434C86.9493 73.7434 95.1734 68.5129 96.03 65.8977C96.8677 63.3014 97.8005 72.4168 96.03 76.4723L99.7233 66.7694C99.7233 66.7694 108.88 79.7698 108.956 80.2436C109.032 80.6984 118.665 81.9302 118.665 81.9302L126.242 78.7275L115.277 74.3119L107.262 67.7928L103.873 65.8787L98.7714 62.3539L95.0211 56.0811C95.0211 56.0811 93.46 48.8608 93.4029 48.8608" fill="#2F2F2F"/>
<path d="M76.0585 31.8834L74.0215 31.5043C74.0215 31.4664 74.8972 26.8803 75.1447 24.7578L77.2007 25.0042C76.9532 27.1835 76.0965 31.6939 76.0585 31.8834Z" fill="#2F2F2F"/>
<path d="M81.6759 33.2819C80.667 33.2819 79.6961 33.0355 78.9727 32.3533L80.2482 31.0267C81.2381 31.9743 84.1318 31.0836 85.3692 30.4961L86.1687 32.1638C85.8261 32.2964 83.6939 33.2819 81.6759 33.2819Z" fill="#2F2F2F"/>
<path d="M75.2411 22.9727C75.2411 22.9727 74.2511 30.1551 74.7271 30.9321C75.0697 31.4817 75.8122 27.9189 76.1358 25.2279C76.1358 25.2279 77.5065 19.5805 79.5054 18.7656C79.5054 18.7846 75.4886 19.8079 75.2411 22.9727Z" fill="#494949"/>
<path d="M80.1235 32.3025C80.452 31.935 80.4955 31.4397 80.2206 31.1962C79.9457 30.9527 79.4566 31.0531 79.128 31.4206C78.7995 31.788 78.756 32.2834 79.0309 32.5269C79.3058 32.7704 79.795 32.6699 80.1235 32.3025Z" fill="#494949"/>
<path d="M37.5104 46.2461L36.311 46.9283L28.125 62.904L32.1038 51.7419L34.1217 47.7053L37.5104 46.2461Z" fill="white" stroke="#2F2F2F" stroke-width="3.6401" stroke-miterlimit="10"/>
</g>
<mask id="mask6_2201_6013" style="mask-type:luminance" maskUnits="userSpaceOnUse" x="6" y="-2" width="125" height="114">
<path d="M96.2574 50.6969C95.1532 49.1619 94.3156 47.4184 94.3346 45.7128C94.3727 42.8892 95.4007 39.9328 95.4197 36.9765C95.4578 33.0157 95.4197 29.055 95.4197 25.1132H88.8138C86.1296 9.97138 72.1752 -1.55078 55.3463 -1.55078C41.1635 -1.55078 29.0178 6.63602 23.9348 18.2529C13.7499 23.7677 6.89648 34.1149 6.89648 45.9782C6.89648 56.4391 12.4744 66.1609 21.1173 71.9978C25.534 74.9731 30.655 76.9061 35.9473 77.6262C38.3841 77.9673 41.5824 77.2851 43.8668 78.0621C45.0472 78.4601 45.8658 79.5213 46.989 80.033C48.5881 80.7721 50.4157 80.791 52.11 81.17C56.9264 82.2123 60.8671 85.5288 64.4652 88.8831C67.1304 91.3656 69.7575 93.924 71.8135 96.9372C74.2503 100.519 75.8114 104.688 76.3254 108.99C76.4015 109.634 76.4967 110.354 77.0297 110.752C77.3534 110.98 77.7722 111.037 78.172 111.075C86.1105 111.814 93.9919 109.577 101.664 107.379C109.545 105.105 117.503 102.812 124.604 98.7186C126.146 97.8279 127.707 96.8046 128.697 95.3264C130.372 92.8059 130.144 89.5274 129.839 86.5332C129.42 82.2692 128.811 77.6452 125.746 74.632C123.804 72.7369 121.348 72.0736 119.54 69.97C116.285 66.1798 112.496 62.8445 108.308 60.0966C105.243 58.0878 101.969 56.3633 99.2082 53.9375C98.2373 53.0658 97.1521 51.9477 96.2574 50.6969Z" fill="white"/>
</mask>
<g mask="url(#mask6_2201_6013)">
<path d="M95.1724 51.4371C95.0962 51.2855 95.0772 51.1339 95.0581 50.9823C94.5632 50.2622 94.0682 49.5231 93.7255 48.7461H93.7065C89.366 67.1474 82.8172 70.6155 62.5996 73.0222L62.8471 75.0689C72.9368 73.875 80.2471 72.359 85.4634 68.4551C90.0133 65.0628 92.9069 60.0598 95.1724 51.4371ZM105.662 65.3661C104.9 65.1765 104.215 64.7217 103.682 64.1153C103.454 63.85 103.111 63.5089 102.806 63.1488C97.9708 76.2249 88.4903 81.7586 70.0051 83.0094L70.2336 86.4584C81.5798 85.7004 89.5944 83.3315 95.4579 79.0486C99.9697 75.7701 103.282 71.3356 105.662 65.3661ZM97.1142 58.3353C96.6002 57.5962 96.2194 56.7055 95.9719 55.9285C95.6102 54.7914 95.8196 53.4459 95.515 52.2899C93.3638 60.8557 90.7176 65.6882 86.5485 68.7962C81.7892 72.34 74.8596 73.7613 65.2077 74.8984L65.5885 78.1011C75.7734 76.8882 83.1598 75.3532 88.4903 71.3735C92.3168 68.5119 95.001 64.5512 97.1142 58.3353ZM101.245 62.1634C100.807 61.8791 100.541 61.4811 100.389 61.0263C99.7032 60.8557 99.1702 60.2872 98.7704 59.6429C94.0301 72.7759 85.3491 77.8737 67.397 79.0865L67.6064 82.3082C78.9526 81.5502 86.4914 79.276 92.0883 74.9552C96.01 71.9231 98.9988 67.7539 101.245 62.1634Z" fill="#2F2F2F"/>
</g>
<mask id="mask7_2201_6013" style="mask-type:luminance" maskUnits="userSpaceOnUse" x="6" y="-2" width="125" height="114">
<path d="M96.2574 50.6969C95.1532 49.1619 94.3156 47.4184 94.3346 45.7128C94.3727 42.8892 95.4007 39.9328 95.4197 36.9765C95.4578 33.0157 95.4197 29.055 95.4197 25.1132H88.8138C86.1296 9.97138 72.1752 -1.55078 55.3463 -1.55078C41.1635 -1.55078 29.0178 6.63602 23.9348 18.2529C13.7499 23.7677 6.89648 34.1149 6.89648 45.9782C6.89648 56.4391 12.4744 66.1609 21.1173 71.9978C25.534 74.9731 30.655 76.9061 35.9473 77.6262C38.3841 77.9673 41.5824 77.2851 43.8668 78.0621C45.0472 78.4601 45.8658 79.5213 46.989 80.033C48.5881 80.7721 50.4157 80.791 52.11 81.17C56.9264 82.2123 60.8671 85.5288 64.4652 88.8831C67.1304 91.3656 69.7575 93.924 71.8135 96.9372C74.2503 100.519 75.8114 104.688 76.3254 108.99C76.4015 109.634 76.4967 110.354 77.0297 110.752C77.3534 110.98 77.7722 111.037 78.172 111.075C86.1105 111.814 93.9919 109.577 101.664 107.379C109.545 105.105 117.503 102.812 124.604 98.7186C126.146 97.8279 127.707 96.8046 128.697 95.3264C130.372 92.8059 130.144 89.5274 129.839 86.5332C129.42 82.2692 128.811 77.6452 125.746 74.632C123.804 72.7369 121.348 72.0736 119.54 69.97C116.285 66.1798 112.496 62.8445 108.308 60.0966C105.243 58.0878 101.969 56.3633 99.2082 53.9375C98.2373 53.0658 97.1521 51.9477 96.2574 50.6969Z" fill="white"/>
</mask>
<g mask="url(#mask7_2201_6013)">
<path d="M38.2519 47.7028C38.7088 46.471 36.1578 46.9069 36.1578 46.9069C34.3112 47.1343 29.4948 49.0294 29.4186 49.0673C29.3425 49.1241 25.0781 49.56 25.0781 49.56C25.0781 49.56 30.3705 49.7306 31.3414 49.7306C31.3795 49.7306 31.3985 49.7306 31.4175 49.7306C31.4175 49.7306 31.9887 49.162 32.0458 49.0673C32.1029 48.9725 33.5878 47.4565 33.5878 47.4565L35.244 47.7786L35.9484 48.9157C35.9484 48.9157 36.7099 48.5746 36.8812 48.5746C37.0526 48.5746 38.2519 47.7028 38.2519 47.7028Z" fill="white" stroke="#2F2F2F" stroke-width="3.6401" stroke-miterlimit="10"/>
</g>
<mask id="mask8_2201_6013" style="mask-type:luminance" maskUnits="userSpaceOnUse" x="6" y="-2" width="125" height="114">
<path d="M96.2574 50.6969C95.1532 49.1619 94.3156 47.4184 94.3346 45.7128C94.3727 42.8892 95.4007 39.9328 95.4197 36.9765C95.4578 33.0157 95.4197 29.055 95.4197 25.1132H88.8138C86.1296 9.97138 72.1752 -1.55078 55.3463 -1.55078C41.1635 -1.55078 29.0178 6.63602 23.9348 18.2529C13.7499 23.7677 6.89648 34.1149 6.89648 45.9782C6.89648 56.4391 12.4744 66.1609 21.1173 71.9978C25.534 74.9731 30.655 76.9061 35.9473 77.6262C38.3841 77.9673 41.5824 77.2851 43.8668 78.0621C45.0472 78.4601 45.8658 79.5213 46.989 80.033C48.5881 80.7721 50.4157 80.791 52.11 81.17C56.9264 82.2123 60.8671 85.5288 64.4652 88.8831C67.1304 91.3656 69.7575 93.924 71.8135 96.9372C74.2503 100.519 75.8114 104.688 76.3254 108.99C76.4015 109.634 76.4967 110.354 77.0297 110.752C77.3534 110.98 77.7722 111.037 78.172 111.075C86.1105 111.814 93.9919 109.577 101.664 107.379C109.545 105.105 117.503 102.812 124.604 98.7186C126.146 97.8279 127.707 96.8046 128.697 95.3264C130.372 92.8059 130.144 89.5274 129.839 86.5332C129.42 82.2692 128.811 77.6452 125.746 74.632C123.804 72.7369 121.348 72.0736 119.54 69.97C116.285 66.1798 112.496 62.8445 108.308 60.0966C105.243 58.0878 101.969 56.3633 99.2082 53.9375C98.2373 53.0658 97.1521 51.9477 96.2574 50.6969Z" fill="white"/>
</mask>
<g mask="url(#mask8_2201_6013)">
<path d="M74.5937 29.6402L69.7012 29.2422L74.727 30.9288L74.5937 29.6402Z" fill="#494949"/>
</g>
<mask id="mask9_2201_6013" style="mask-type:luminance" maskUnits="userSpaceOnUse" x="6" y="-2" width="125" height="114">
<path d="M96.2574 50.6969C95.1532 49.1619 94.3156 47.4184 94.3346 45.7128C94.3727 42.8892 95.4007 39.9328 95.4197 36.9765C95.4578 33.0157 95.4197 29.055 95.4197 25.1132H88.8138C86.1296 9.97138 72.1752 -1.55078 55.3463 -1.55078C41.1635 -1.55078 29.0178 6.63602 23.9348 18.2529C13.7499 23.7677 6.89648 34.1149 6.89648 45.9782C6.89648 56.4391 12.4744 66.1609 21.1173 71.9978C25.534 74.9731 30.655 76.9061 35.9473 77.6262C38.3841 77.9673 41.5824 77.2851 43.8668 78.0621C45.0472 78.4601 45.8658 79.5213 46.989 80.033C48.5881 80.7721 50.4157 80.791 52.11 81.17C56.9264 82.2123 60.8671 85.5288 64.4652 88.8831C67.1304 91.3656 69.7575 93.924 71.8135 96.9372C74.2503 100.519 75.8114 104.688 76.3254 108.99C76.4015 109.634 76.4967 110.354 77.0297 110.752C77.3534 110.98 77.7722 111.037 78.172 111.075C86.1105 111.814 93.9919 109.577 101.664 107.379C109.545 105.105 117.503 102.812 124.604 98.7186C126.146 97.8279 127.707 96.8046 128.697 95.3264C130.372 92.8059 130.144 89.5274 129.839 86.5332C129.42 82.2692 128.811 77.6452 125.746 74.632C123.804 72.7369 121.348 72.0736 119.54 69.97C116.285 66.1798 112.496 62.8445 108.308 60.0966C105.243 58.0878 101.969 56.3633 99.2082 53.9375C98.2373 53.0658 97.1521 51.9477 96.2574 50.6969Z" fill="white"/>
</mask>
<g mask="url(#mask9_2201_6013)">
<path d="M76.9348 20.0508C76.9348 20.0508 75.1073 20.8657 75.0502 24.1442C74.974 27.4416 75.7355 21.0173 76.9348 20.0508Z" fill="#6D6D6D"/>
</g>
<path d="M16.2621 55.5696C16.2621 55.5696 12.6831 57.9574 14.149 63.131C14.149 63.131 13.4636 57.5974 16.3192 56.2139C19.1748 54.8305 15.5577 52.5375 15.5577 52.5375C15.5577 52.5375 12.7783 52.5185 12.2833 51.3246C11.7884 50.1307 11.598 47.3828 11.598 47.3828C11.598 47.3828 9.88464 50.017 11.6361 51.8173C13.3875 53.6177 15.1389 53.504 15.1389 53.504L16.2621 55.5696Z" fill="#E42625"/>
<path d="M17.1968 54.7734C17.1968 54.7734 18.1677 54.9819 17.3871 56.1948C16.6066 57.4076 13.8652 60.9325 14.246 63.3203L13.8652 60.9325C13.8652 60.9325 14.3412 57.1234 16.1307 55.8536L17.1968 54.7734Z" fill="#E42625"/>
<path d="M20.4703 57.9023C20.4703 57.9023 16.5105 58.8688 17.0246 61.6167C17.5386 64.3646 18.3572 64.1941 18.3572 64.1941C18.3572 64.1941 17.0436 61.5599 18.1668 60.5555C19.29 59.5511 20.6797 59.1342 20.6797 59.1342L20.4703 57.9023Z" fill="#E42625"/>
</g>
<defs>
<clipPath id="clip0_2201_6013">
<rect width="112" height="56" fill="white" transform="translate(10 16)"/>
</clipPath>
</defs>
</svg>
