<svg width="132" height="88" viewBox="0 0 132 88" fill="none" xmlns="http://www.w3.org/2000/svg">
<path d="M65.9996 77.2766C84.3769 77.2766 99.2746 62.3788 99.2746 44.0016C99.2746 25.6243 84.3769 10.7266 65.9996 10.7266C47.6223 10.7266 32.7246 25.6243 32.7246 44.0016C32.7246 62.3788 47.6223 77.2766 65.9996 77.2766Z" fill="#706AF1"/>
<path d="M80.3056 37.4902L67.9463 27.6662C66.8372 26.7154 65.2527 26.7154 64.1435 27.6662L51.9427 37.4902C51.4673 37.8071 51.1504 38.4409 51.1504 39.0747V59.1982C51.1504 59.9904 51.6257 60.6243 52.2596 60.9412C52.8934 61.2581 53.6856 61.2581 54.3194 60.7827L65.2527 52.0678C65.728 51.5925 66.5203 51.5925 66.9956 52.0678L77.9288 60.7827C78.2457 61.0996 78.7211 61.2581 79.1965 61.2581C79.5134 61.2581 79.8303 61.2581 79.9887 61.0996C80.6225 60.7827 81.0979 60.1489 81.0979 59.3566V39.0747C81.0979 38.4409 80.781 37.8071 80.3056 37.4902ZM64.1435 50.8002L53.2103 59.5151C53.0518 59.6735 53.0518 59.5151 52.8934 59.5151C52.8934 59.5151 52.7349 59.3566 52.7349 59.1982V39.0747C52.7349 38.9163 52.7349 38.9163 52.8934 38.9163L65.2527 29.0922V50.3249C64.9357 50.3249 64.4604 50.4833 64.1435 50.8002ZM79.3549 59.1982C79.3549 59.3566 79.1965 59.3566 79.1965 59.5151C79.1965 59.5151 79.038 59.5151 78.8796 59.5151L67.9463 50.8002C67.6294 50.4833 67.3125 50.3249 66.8372 50.3249V28.9338L79.1965 38.7578L79.3549 38.9163V59.1982Z" fill="white"/>
</svg>
