<svg width="132" height="88" viewBox="0 0 132 88" fill="none" xmlns="http://www.w3.org/2000/svg">
<path fill-rule="evenodd" clip-rule="evenodd" d="M19.2307 27.7421C18.8594 28.1399 18.5554 28.6058 18.5554 28.7771C18.5554 28.9486 18.4203 29.0889 18.2553 29.0889C18.0902 29.0889 17.9552 29.4853 17.9552 29.9698V30.8505L20.5068 30.948C22.4003 31.0202 23.0585 30.948 23.0579 30.669C23.0576 30.4622 22.9222 30.2928 22.7571 30.2928C22.5921 30.2928 22.457 29.8805 22.457 29.3763C22.457 28.3374 21.3 26.9713 20.4447 27.0005C20.1485 27.0107 19.6019 27.3445 19.2307 27.7421ZM38.9639 43.8579C38.9639 57.5608 39.0317 60.2 39.3928 60.5618C39.6617 60.8318 40.4444 60.9919 41.4936 60.9919H43.1656V54.0482C43.1656 48.4314 43.2476 47.022 43.5945 46.6744C43.9411 46.3265 45.3466 46.2443 50.9475 46.2443C55.3636 46.2443 57.8717 46.3532 57.8717 46.5453C57.8717 46.7108 58.1355 46.8462 58.4576 46.8462C58.9669 46.8462 59.0554 46.5997 59.1328 44.9652C59.2145 43.2481 59.2841 43.0754 59.9306 42.9836C60.7565 42.8665 63.274 40.4551 63.274 39.7812C63.274 39.5287 63.409 39.3219 63.5741 39.3219C63.7455 39.3219 63.8742 38.419 63.8742 37.2151C63.8742 36.0113 63.7455 35.1083 63.5741 35.1083C63.409 35.1083 63.274 34.9016 63.274 34.6491C63.274 34.1335 60.7634 31.4967 60.2727 31.4967C59.7379 31.4967 57.2637 28.8421 57.6595 28.6928C57.8588 28.6176 57.3126 28.4554 56.4461 28.3323C55.5797 28.2092 54.8705 27.9904 54.8705 27.8462C54.8705 27.702 51.2915 27.584 46.9172 27.584H38.9639V43.8579ZM66.5753 29.2394V30.8947H72.5778H78.5803V45.5132C78.5803 61.6908 78.4921 60.9919 80.5311 60.9919C82.5702 60.9919 82.4819 61.6908 82.4819 45.5132V30.8947H88.4844H94.4869V29.2394V27.584H89.8527C87.087 27.584 85.1437 27.7053 85.033 27.885C84.931 28.0506 84.6059 28.186 84.3109 28.186C83.475 28.186 82.4819 29.2267 82.4819 30.1023C82.4819 30.877 82.4381 30.8947 80.5311 30.8947C78.7805 30.8947 78.5803 30.833 78.5803 30.2928C78.5803 29.9617 78.4453 29.6908 78.2802 29.6908C78.1151 29.6908 77.9801 29.4344 77.9801 29.1211C77.9801 28.4966 77.4239 28.186 76.3048 28.186C75.9056 28.186 75.5791 28.0506 75.5791 27.885C75.5791 27.6978 73.8783 27.584 71.0772 27.584H66.5753V29.2394ZM98.9888 44.288V60.9919H104.241C107.542 60.9919 109.493 60.8802 109.493 60.6909C109.493 60.5236 110.294 60.3899 111.294 60.3899C112.294 60.3899 113.095 60.2563 113.095 60.089C113.095 59.9234 113.365 59.788 113.695 59.788C114.025 59.788 114.295 59.6526 114.295 59.487C114.295 59.3215 114.504 59.1861 114.759 59.1861C115.014 59.1861 115.56 58.8475 115.973 58.4336C116.386 58.0198 116.987 57.6812 117.31 57.6812C117.696 57.6812 117.897 57.4759 117.897 57.0793C117.897 56.7482 117.762 56.4773 117.597 56.4773C117.431 56.4773 117.296 56.6128 117.296 56.7783C117.296 56.9438 116.621 57.0793 115.796 57.0793C114.97 57.0793 114.295 57.2147 114.295 57.3802C114.295 57.5701 112.244 57.6812 108.743 57.6812H103.191V44.288V30.8947H109.343C113.245 30.8947 115.496 31.0049 115.496 31.1957C115.496 31.3612 116.036 31.4967 116.696 31.4967C117.356 31.4967 117.897 31.6321 117.897 31.7976C117.897 31.9632 118.167 32.0986 118.497 32.0986C118.827 32.0986 119.097 32.0273 119.097 31.9403C119.097 31.5764 116.377 29.0889 115.979 29.0889C115.741 29.0889 115.498 28.9468 115.441 28.7735C115.383 28.5998 114.562 28.3777 113.615 28.2799C112.668 28.1821 111.894 27.9852 111.894 27.8429C111.894 27.7005 108.99 27.584 105.441 27.584H98.9888V44.288ZM43.1656 37.0647V43.2346H51.1189H59.0722V37.0647V30.8947H51.1189H43.1656V37.0647ZM14.7288 33.1686C13.8621 34.0634 13.1532 35.0012 13.1532 35.2528C13.1532 35.5044 13.0181 35.7103 12.853 35.7103C12.688 35.7103 12.5529 36.252 12.5529 36.9142C12.5529 37.5763 12.4179 38.1181 12.2528 38.1181C12.0877 38.1181 11.9527 38.6598 11.9527 39.3219C11.9527 39.9841 11.8176 40.5258 11.6525 40.5258C11.4875 40.5258 11.3524 40.9321 11.3524 41.4287C11.3524 41.9253 11.2174 42.3317 11.0523 42.3317C10.8872 42.3317 10.7522 42.8057 10.7522 43.3851C10.7522 43.9644 10.6171 44.4385 10.452 44.4385C10.287 44.4385 10.1519 44.9802 10.1519 45.6423C10.1519 46.3045 10.0169 46.8462 9.85179 46.8462C9.68672 46.8462 9.55166 47.2525 9.55166 47.7491C9.55166 48.2457 9.41661 48.6521 9.25154 48.6521C9.08647 48.6521 8.95142 49.1938 8.95142 49.8559C8.95142 50.5181 8.81636 51.0598 8.65129 51.0598C8.48622 51.0598 8.35117 51.6016 8.35117 52.2637C8.35117 52.9259 8.21611 53.4676 8.05104 53.4676C7.88597 53.4676 7.75092 53.8739 7.75092 54.3705C7.75092 54.8671 7.61586 55.2734 7.45079 55.2734C7.28572 55.2734 7.15067 55.8152 7.15067 56.4773C7.15067 57.1395 7.01561 57.6812 6.85054 57.6812C6.68547 57.6812 6.55042 58.1438 6.55042 58.7096C6.55042 59.2752 6.38295 59.7937 6.17796 59.8623C5.90695 59.9529 5.94207 60.1239 6.30672 60.4893C6.94718 61.1318 9.70563 61.1815 10.3233 60.5618C10.5592 60.3255 10.7522 59.6484 10.7522 59.0569C10.7522 58.4658 10.8872 57.9822 11.0523 57.9822C11.2174 57.9822 11.3524 57.5081 11.3524 56.9288C11.3524 56.3494 11.4875 55.8754 11.6525 55.8754C11.8176 55.8754 11.9527 55.3336 11.9527 54.6715C11.9527 54.0094 12.0877 53.4676 12.2528 53.4676C12.4179 53.4676 12.5529 52.9839 12.5529 52.3928C12.5529 50.4717 12.6111 50.4579 20.635 50.4579C27.6591 50.4579 27.8593 50.4744 27.8593 51.0598C27.8593 51.3909 27.9943 51.6618 28.1594 51.6618C28.3245 51.6618 28.4595 52.2035 28.4595 52.8657C28.4595 53.5278 28.5946 54.0695 28.7596 54.0695C28.9247 54.0695 29.0598 54.6113 29.0598 55.2734C29.0598 55.9356 29.1948 56.4773 29.3599 56.4773C29.525 56.4773 29.66 56.9514 29.66 57.5307C29.66 58.1101 29.7951 58.5841 29.9601 58.5841C30.1252 58.5841 30.2603 58.9323 30.2603 59.3579C30.2603 59.7838 30.4532 60.3255 30.6891 60.5618C31.3068 61.1815 34.0652 61.1318 34.706 60.4893C35.0704 60.1239 35.1055 59.9529 34.8345 59.8623C34.6295 59.7937 34.462 59.3429 34.462 58.8601C34.462 58.3774 34.327 57.9822 34.1619 57.9822C33.9968 57.9822 33.8618 57.5081 33.8618 56.9288C33.8618 56.3494 33.7267 55.8754 33.5616 55.8754C33.3966 55.8754 33.2615 55.4691 33.2615 54.9725C33.2615 54.4759 33.1265 54.0695 32.9614 54.0695C32.7963 54.0695 32.6613 53.5278 32.6613 52.8657C32.6613 52.2035 32.5262 51.6618 32.3611 51.6618C32.1961 51.6618 32.061 51.12 32.061 50.4579C32.061 49.7957 31.926 49.254 31.7609 49.254C31.5958 49.254 31.4608 48.8477 31.4608 48.3511C31.4608 47.8545 31.3257 47.4482 31.1606 47.4482C30.9956 47.4482 30.8605 46.9064 30.8605 46.2443C30.8605 45.5821 30.7255 45.0404 30.5604 45.0404C30.3953 45.0404 30.2603 44.5664 30.2603 43.987C30.2603 43.4076 30.1252 42.9336 29.9601 42.9336C29.7951 42.9336 29.66 42.5273 29.66 42.0307C29.66 41.5341 29.525 41.1278 29.3599 41.1278C29.1948 41.1278 29.0598 40.586 29.0598 39.9239C29.0598 39.2617 28.9247 38.72 28.7596 38.72C28.5946 38.72 28.4595 38.1782 28.4595 37.5161C28.4595 36.854 28.3245 36.3122 28.1594 36.3122C27.9943 36.3122 27.8593 36.0413 27.8593 35.7103C27.8593 35.3792 27.7242 35.1083 27.5591 35.1083C27.3941 35.1083 27.259 34.9007 27.259 34.6469C27.259 34.3929 26.7908 33.7157 26.2185 33.1421C25.6464 32.5681 24.9712 32.0986 24.7179 32.0986C24.4649 32.0986 24.2578 31.9632 24.2578 31.7976C24.2578 31.6321 23.9877 31.4967 23.6575 31.4967C23.2575 31.4967 23.0573 31.6974 23.0573 32.0986C23.0573 32.4297 23.1923 32.7006 23.3574 32.7006C23.5225 32.7006 23.6575 33.2423 23.6575 33.9044C23.6575 34.5666 23.7926 35.1083 23.9576 35.1083C24.1227 35.1083 24.2578 35.6501 24.2578 36.3122C24.2578 36.9744 24.3928 37.5161 24.5579 37.5161C24.723 37.5161 24.858 38.0579 24.858 38.72C24.858 39.3821 24.9931 39.9239 25.1581 39.9239C25.3232 39.9239 25.4583 40.4656 25.4583 41.1278C25.4583 41.7899 25.5933 42.3317 25.7584 42.3317C25.9235 42.3317 26.0585 42.8057 26.0585 43.3851C26.0585 43.9644 26.1936 44.4385 26.3586 44.4385C26.5237 44.4385 26.6588 45.1156 26.6588 45.9433V47.4482H20.635C15.4083 47.4482 14.5445 47.3817 14.11 46.9455C13.7453 46.5802 13.7102 46.4092 13.9812 46.3186C14.1931 46.2479 14.3537 45.6863 14.3537 45.0154C14.3537 44.3668 14.4887 43.8365 14.6538 43.8365C14.8189 43.8365 14.9539 43.3625 14.9539 42.7831C14.9539 42.2037 15.089 41.7297 15.254 41.7297C15.4191 41.7297 15.5542 41.188 15.5542 40.5258C15.5542 39.8637 15.6892 39.3219 15.8543 39.3219C16.0193 39.3219 16.1544 38.7802 16.1544 38.1181C16.1544 37.4559 16.2895 36.9142 16.4545 36.9142C16.6196 36.9142 16.7547 36.3724 16.7547 35.7103C16.7547 35.0481 16.8897 34.5064 17.0548 34.5064C17.2198 34.5064 17.3549 33.9646 17.3549 33.3025C17.3549 32.6404 17.49 32.0986 17.655 32.0986C17.8201 32.0986 17.9552 31.9632 17.9552 31.7976C17.9552 31.6321 17.5839 31.5069 17.1298 31.5192C16.5419 31.5352 15.8513 32.0095 14.7288 33.1686ZM119.697 33.4352C119.697 33.8394 119.832 34.2536 119.998 34.3559C120.163 34.4582 120.298 34.9401 120.298 35.4271C120.298 35.914 120.433 36.3122 120.598 36.3122C120.765 36.3122 120.898 37.1149 120.898 38.1181C120.898 39.1212 121.031 39.9239 121.198 39.9239C121.382 39.9239 121.498 41.3785 121.498 43.686C121.498 45.9936 121.382 47.4482 121.198 47.4482C121.031 47.4482 120.898 48.2509 120.898 49.254C120.898 50.2571 120.765 51.0598 120.598 51.0598C120.433 51.0598 120.298 51.4661 120.298 51.9627C120.298 52.4593 120.163 52.8657 119.998 52.8657C119.832 52.8657 119.697 53.2422 119.697 53.7021C119.697 54.1932 119.449 54.7175 119.097 54.9725C118.477 55.4206 118.266 56.4773 118.797 56.4773C118.962 56.4773 119.097 56.3419 119.097 56.1763C119.097 56.0108 119.367 55.8754 119.697 55.8754C120.028 55.8754 120.298 55.7399 120.298 55.5744C120.298 55.4089 120.504 55.2734 120.756 55.2734C121.422 55.2734 123.772 52.8115 124.009 51.8664C124.12 51.4228 124.343 51.0598 124.505 51.0598C124.667 51.0598 124.799 50.6535 124.799 50.1569C124.799 49.6603 124.935 49.254 125.1 49.254C125.265 49.254 125.4 48.8477 125.4 48.3511C125.4 47.8545 125.535 47.4482 125.7 47.4482C125.883 47.4482 126 46.0938 126 43.987C126 41.8802 125.883 40.5258 125.7 40.5258C125.535 40.5258 125.4 40.1195 125.4 39.6229C125.4 39.1263 125.265 38.72 125.1 38.72C124.935 38.72 124.799 38.4491 124.799 38.1181C124.799 37.787 124.664 37.5161 124.499 37.5161C124.334 37.5161 124.199 37.2528 124.199 36.931C124.199 36.2319 120.831 32.7006 120.164 32.7006C119.869 32.7006 119.697 32.9711 119.697 33.4352ZM59.2616 46.7565C59.1575 46.861 59.0722 49.9712 59.0722 53.6684V60.3899H61.4732H63.8742L63.8697 55.6496C63.8664 52.478 63.7689 51.0586 63.5741 51.3608C63.358 51.6964 63.2821 51.5203 63.2785 50.6758C63.2749 49.7328 63.0438 49.3082 61.9234 48.1847C61.1806 47.4397 60.5728 46.9064 60.5728 46.9994C60.5728 47.0924 60.3204 47.0328 60.0119 46.8673C59.7037 46.7018 59.366 46.6521 59.2616 46.7565Z" fill="black"/>
</svg>
