<svg width="132" height="88" viewBox="0 0 132 88" fill="none" xmlns="http://www.w3.org/2000/svg">
<path d="M97.4954 41.1758C100.973 44.6517 103.34 49.0796 104.297 53.9C105.253 58.7212 104.761 63.7179 102.881 68.2583C101.002 72.7991 97.8142 76.6802 93.7272 79.4104C89.6405 82.1409 84.8343 83.5983 79.9215 83.5983C75.0087 83.5983 70.2021 82.1409 66.1155 79.4104C62.0288 76.6802 58.8406 72.7991 56.9615 68.2583C55.0823 63.7179 54.5896 58.7212 55.546 53.9C56.5025 49.0796 58.8695 44.6517 62.3476 41.1758C67.0093 36.5206 73.3323 33.9062 79.9215 33.9062C86.5103 33.9062 92.8337 36.5206 97.4954 41.1758Z" fill="url(#paint0_linear_2056_27560)"/>
<path d="M97.5002 11.6673C100.973 15.1432 103.34 19.5715 104.297 24.3924C105.258 29.2131 104.765 34.21 102.881 38.7509C101.002 43.2916 97.8142 47.173 93.7272 49.9032C89.6405 52.6342 84.839 54.0916 79.9215 54.0916C75.0087 54.0916 70.2021 52.6342 66.1155 49.9032C62.0288 47.173 58.8406 43.2916 56.9615 38.7509C55.0823 34.21 54.5896 29.2131 55.546 24.3924C56.5025 19.5715 58.8695 15.1432 62.3476 11.6673C67.0093 7.01255 73.3323 4.39844 79.9215 4.39844C86.5103 4.39844 92.8337 7.01255 97.5002 11.6673Z" fill="url(#paint1_linear_2056_27560)"/>
<path d="M69.6448 28.5324C73.118 32.0075 75.4851 36.435 76.4462 41.255C77.4026 46.075 76.91 51.0713 75.0308 55.6117C73.1516 60.1517 69.9636 64.0327 65.8768 66.7629C61.7901 69.4931 56.9885 70.9505 52.0757 70.9505C47.1581 70.9505 42.3565 69.4931 38.2698 66.7629C34.183 64.0327 30.9949 60.1517 29.1157 55.6117C27.2366 51.0713 26.7439 46.075 27.7003 41.255C28.6616 36.435 31.0287 32.0075 34.5019 28.5324C39.1683 23.8813 45.4867 21.2695 52.0757 21.2695C58.6598 21.2695 64.9783 23.8813 69.6448 28.5324Z" fill="url(#paint2_linear_2056_27560)"/>
<defs>
<linearGradient id="paint0_linear_2056_27560" x1="79.9215" y1="33.9062" x2="79.9215" y2="83.5983" gradientUnits="userSpaceOnUse">
<stop stop-color="#F0294D"/>
<stop offset="1" stop-color="#8B0154"/>
</linearGradient>
<linearGradient id="paint1_linear_2056_27560" x1="96.1283" y1="33.8167" x2="79.9267" y2="54.0954" gradientUnits="userSpaceOnUse">
<stop stop-color="#FF3939"/>
<stop offset="1" stop-color="#FF7757"/>
</linearGradient>
<linearGradient id="paint2_linear_2056_27560" x1="71.3065" y1="66.0818" x2="34.691" y2="24.6358" gradientUnits="userSpaceOnUse">
<stop stop-color="#FF7757"/>
<stop offset="1" stop-color="#FEE45A"/>
</linearGradient>
</defs>
</svg>
