<svg width="132" height="88" viewBox="0 0 132 88" fill="none" xmlns="http://www.w3.org/2000/svg">
<path d="M66 6C58.4843 6 51.1374 8.22866 44.8883 12.4042C38.6393 16.5796 33.7687 22.5144 30.8926 29.458C28.0165 36.4016 27.2639 44.0421 28.7302 51.4134C30.1964 58.7847 33.8156 65.5557 39.13 70.87C44.4444 76.1844 51.2153 79.8036 58.5866 81.2698C65.9579 82.7361 73.5984 81.9835 80.542 79.1074C87.4856 76.2313 93.4204 71.3607 97.5958 65.1117C101.771 58.8626 104 51.5157 104 44C104 33.9218 99.9964 24.2563 92.8701 17.1299C85.7437 10.0036 76.0782 6 66 6ZM40.0581 63.0388H39.8404L66.3305 15.5019L72.12 25.8913L72.5164 26.6026C73.6034 28.6854 76.2411 34.8069 71.274 37.396C71.2436 37.4119 71.2173 37.4264 71.1879 37.442C62.5893 41.5468 54.7531 47.087 48.0158 53.8245C45.1827 56.6582 42.553 59.6881 40.1463 62.8919L40.0581 63.0388ZM40.5241 63.0388C48.5898 55.2329 57.6238 50.5845 65.5971 47.8222C68.0118 46.9859 70.467 46.2715 72.9534 45.6817C74.3687 45.3462 75.7453 45.0654 77.0842 44.8218C78.8201 44.6772 82.5411 45.1438 85.9435 50.6979L86.8965 52.4081L92.8205 63.0388L40.5241 63.0388Z" fill="black"/>
</svg>
