<svg width="132" height="88" viewBox="0 0 132 88" fill="none" xmlns="http://www.w3.org/2000/svg">
<path d="M76.1734 9.83926C70.4845 19.2405 66.5359 29.7999 63.8949 40.4527C63.8818 40.5052 63.8634 40.5374 63.8399 40.5491C64.9856 30.0954 67.1555 19.8633 70.3496 9.85273C70.5997 9.06782 71.0522 7.90446 71.3293 6.90285L71.4807 6.63534C71.5015 6.5994 71.5295 6.59214 71.5648 6.61357L76.3041 9.48465C76.3332 9.50262 76.3398 9.52681 76.3239 9.55723L76.1734 9.83926Z" fill="#E01921"/>
<path d="M71.3293 6.90285C71.0522 7.90446 70.5997 9.06782 70.3496 9.85273C67.1555 19.8633 64.9856 30.0954 63.8399 40.5491L63.7797 41.0935C63.7707 41.0907 63.7641 41.0841 63.76 41.0738C63.7524 41.0565 63.7462 41.0568 63.7413 41.0748C61.4867 50.2476 60.0985 59.551 59.5768 68.9851L59.55 69.0162C59.5466 69.02 59.5423 69.0228 59.5375 69.0242C59.5327 69.0257 59.5276 69.0258 59.5228 69.0245C59.5179 69.0232 59.5135 69.0205 59.5101 69.0169C59.5066 69.0132 59.5043 69.0087 59.5033 69.0038C57.7308 58.3707 57.7204 47.5189 59.0342 36.9149C59.0377 36.8872 59.0256 36.8707 58.9979 36.8651C58.9875 36.8631 58.9757 36.8641 58.9626 36.8682L59.1514 36.2192C61.7904 26.596 65.4111 17.2445 70.3393 8.55458C70.6561 7.99605 70.9861 7.44548 71.3293 6.90285Z" fill="#F36421"/>
<path d="M76.1736 9.83925C75.333 12.4909 74.6363 14.83 74.0836 16.8567C72.4488 22.854 71.1589 29.0406 70.2138 35.4166L70.1703 35.7536L70.0582 36.3757C69.7832 37.2218 69.5869 38.1063 69.3794 38.972C66.0763 52.7561 64.6941 67.1136 64.8176 81.272C64.7934 81.2353 64.7796 81.2073 64.7761 81.188C62.5294 67.9451 62.2918 54.4338 63.7799 41.0935L63.8401 40.5491C63.8636 40.5373 63.8819 40.5052 63.8951 40.4527C66.5361 29.7999 70.4847 19.2405 76.1736 9.83925Z" fill="#F05022"/>
<path d="M82.0181 19.9155C81.9178 19.9736 81.8486 20.0423 81.8106 20.1218C78.5448 27.0253 76.295 34.1828 74.5391 41.6015C74.5367 41.6117 74.531 41.6208 74.523 41.6276C74.515 41.6343 74.505 41.6382 74.4945 41.6389C74.4412 41.6409 74.4239 41.606 74.4425 41.5341C74.5889 33.4839 75.3921 25.4679 76.9218 17.5618C76.9356 17.4886 76.9076 17.4523 76.8377 17.453L77.0038 17.1004C77.0204 17.0652 77.0463 17.0562 77.0816 17.0735L82.0575 19.5412C82.0914 19.5578 82.1035 19.5844 82.0938 19.621L82.0181 19.9155Z" fill="#BC1B8D"/>
<path d="M76.8377 17.453C76.9076 17.4523 76.9356 17.4886 76.9218 17.5618C75.3921 25.4679 74.5889 33.4839 74.4425 41.5341C74.3851 41.6862 74.3865 41.8431 74.4467 42.0049C71.6967 54.5592 70.384 67.6963 70.4733 80.5721C70.4165 80.4691 70.3837 80.3913 70.3747 80.3388C67.8945 65.7885 68.0242 51.0225 70.0582 36.3757L70.1703 35.7536C70.2332 35.6686 70.2564 35.5735 70.2398 35.4685C71.9676 29.2535 74.0369 23.2718 76.8377 17.453Z" fill="#ED028C"/>
<path d="M61.9305 21.2582C60.9855 22.7624 60.0823 24.3989 59.2209 26.1678C56.5048 31.7482 54.3744 37.49 52.8295 43.3932C52.8098 43.4699 52.7507 43.5394 52.7102 43.6078C52.9205 40.874 53.1699 38.3423 53.4584 36.0128C54.1298 30.5994 55.2049 25.1963 56.6671 19.8616C56.8068 19.3528 56.9345 18.841 57.05 18.326L57.1611 18.1248C57.1797 18.0917 57.2057 18.0847 57.2389 18.1041L62.0011 20.9275C62.0308 20.9448 62.0395 20.9697 62.027 21.0021L61.9305 21.2582Z" fill="#F36421"/>
<path d="M57.05 18.326C56.9345 18.841 56.8068 19.3528 56.6671 19.8616C55.2049 25.1963 54.1298 30.5994 53.4584 36.0128C53.1699 38.3423 52.9205 40.874 52.7102 43.6078L52.702 43.893C51.3405 49.0331 50.4238 54.252 49.952 59.5496L49.8648 59.4895C49.8413 59.4729 49.8261 59.4508 49.8192 59.4232C48.2823 53.6468 47.614 47.7138 47.6181 41.7415C47.6181 41.689 47.5932 41.6617 47.5434 41.6596L47.6472 41.276C49.7901 33.2517 52.8503 25.4783 57.05 18.326Z" fill="#F7931D"/>
<path d="M82.0181 19.9155C80.878 26.7464 80.2233 33.6242 80.0545 40.5491C77.9431 48.5551 76.7934 56.699 76.6052 64.9807C76.6045 65.0195 76.5872 65.0485 76.5533 65.0678L76.4963 65.101C74.9687 57.9632 74.4156 50.5154 74.4249 43.2429C74.426 42.8904 74.4571 42.4186 74.4467 42.0049C74.3865 41.8431 74.3851 41.6862 74.4425 41.5341C74.4239 41.606 74.4412 41.6409 74.4945 41.6389C74.505 41.6382 74.515 41.6343 74.523 41.6276C74.531 41.6208 74.5367 41.6117 74.5391 41.6015C76.295 34.1828 78.5448 27.0253 81.8106 20.1218C81.8486 20.0423 81.9178 19.9736 82.0181 19.9155Z" fill="#D10F8C"/>
<path d="M61.9305 21.2582C61.164 24.3668 60.4964 27.5938 59.9277 30.9394C59.6039 32.8431 59.3452 34.603 59.1514 36.2192L58.9626 36.8682C58.9605 36.947 58.9494 37.0245 58.9293 37.1005C56.2886 46.9984 54.6833 57.0608 54.1132 67.2878C54.0841 67.7979 54.0924 68.5818 54.026 69.2277C53.9928 69.5419 54.0334 69.8924 53.9815 70.2294C52.5037 61.445 52.1655 52.7934 52.702 43.893L52.7102 43.6078C52.7507 43.5394 52.8098 43.4699 52.8295 43.3932C54.3744 37.49 56.5048 31.7482 59.2209 26.1678C60.0823 24.3989 60.9855 22.7624 61.9305 21.2582Z" fill="#F58220"/>
<path d="M49.2038 26.2186C49.0204 26.4847 48.8925 26.6842 48.8199 26.8169C46.128 31.7005 43.9436 36.8026 42.2666 42.1231C42.1988 42.338 42.1393 42.5568 42.0881 42.7794C42.0805 42.8133 42.0608 42.8368 42.0289 42.8499C42.0019 42.8617 41.9736 42.8637 41.9438 42.8561C41.9075 36.8247 42.4243 30.9135 43.6862 25.021C43.6917 24.9961 43.6827 24.9799 43.6592 24.9723C43.6488 24.9681 43.6377 24.9661 43.6259 24.9661L43.7577 24.7152C43.7743 24.682 43.8006 24.6699 43.8366 24.6789L49.1955 26.0164C49.2314 26.0254 49.2505 26.0482 49.2525 26.0849C49.256 26.1332 49.2397 26.1778 49.2038 26.2186Z" fill="#F7931D"/>
<path d="M43.6259 24.9661C43.6377 24.9661 43.6488 24.9681 43.6592 24.9723C43.6827 24.9799 43.6917 24.9961 43.6862 25.021C42.4243 30.9135 41.9075 36.8247 41.9438 42.8561L41.9614 43.2449L41.3979 45.3197C41.3875 45.3563 41.3633 45.3733 41.3252 45.3705C41.1883 45.3608 41.0212 45.3446 40.824 45.3218C33.9487 44.5172 27.0737 43.7129 20.199 42.909C20.051 42.8917 19.9306 42.8717 19.8379 42.8489C19.7881 42.8371 19.7884 42.8267 19.8389 42.8178L37.0103 39.7497C37.0505 39.7428 37.0768 39.72 37.0892 39.6812C38.7475 34.5419 40.9264 29.6368 43.6259 24.9661Z" fill="#FEC210"/>
<path d="M49.2038 26.2186C48.1944 31.1859 47.6755 36.205 47.6472 41.276L47.5434 41.6596C45.8443 48.0598 44.8223 54.5675 44.4778 61.1827C44.4439 61.1578 44.4173 61.1081 44.3979 61.0334C42.8614 55.1558 42.0492 49.2263 41.9614 43.2449L41.9437 42.8561C41.9734 42.8637 42.0018 42.8617 42.0288 42.8499C42.0606 42.8368 42.0803 42.8133 42.0879 42.7794C42.1391 42.5568 42.1986 42.338 42.2664 42.1231C43.9434 36.8026 46.1278 31.7005 48.8197 26.8169C48.8924 26.6842 49.0204 26.4847 49.2038 26.2186Z" fill="#FAAF18"/>
<path d="M89.827 31.2173C89.7495 31.2305 89.6973 31.2633 89.6703 31.3158C87.0656 36.3166 85.2527 41.9624 84.1495 47.4266C84.0887 47.7301 84.0496 47.7273 84.0323 47.4183C83.6781 41.1177 83.9417 34.8439 84.823 28.5972C84.8272 28.5654 84.8134 28.5474 84.7815 28.5433C84.7718 28.5426 84.7615 28.5439 84.7504 28.5474L84.8832 28.282C84.8991 28.2509 84.9227 28.2436 84.9538 28.2602L89.8353 30.8907C89.8692 30.9087 89.8823 30.9363 89.8747 30.9737L89.827 31.2173Z" fill="#90268F"/>
<path d="M84.7504 28.5474C84.7615 28.5439 84.7718 28.5426 84.7815 28.5433C84.8134 28.5474 84.8272 28.5654 84.823 28.5972C83.9417 34.8439 83.6781 41.1177 84.0323 47.4183C84.0496 47.7273 84.0887 47.7301 84.1495 47.4266C85.2527 41.9624 87.0656 36.3166 89.6703 31.3158C89.6973 31.2633 89.7495 31.2305 89.827 31.2173C89.2825 36.0982 89.1721 40.9891 89.4959 45.89L89.3901 46.1959C87.8383 50.7422 86.7038 55.3904 85.9864 60.1407C85.9449 60.4206 85.9594 60.6954 85.7985 60.9774C84.9787 57.047 84.4339 53.1902 84.1641 49.407C84.1177 48.7573 84.0821 48.2838 84.0572 47.9865C84.0496 47.8981 84.0368 47.8974 84.0188 47.9845C82.9153 53.3976 82.2802 58.8632 82.1135 64.3814C82.1133 64.3921 82.1095 64.4024 82.1027 64.4107C82.0959 64.419 82.0866 64.4247 82.0761 64.4271L76.656 65.6309C76.6187 65.6392 76.5962 65.6243 76.5886 65.5863L76.4963 65.101L76.5533 65.0678C76.5872 65.0485 76.6045 65.0195 76.6052 64.9807C76.7934 56.699 77.9431 48.5551 80.0545 40.5491C80.0787 40.5567 80.0943 40.5481 80.1012 40.5232C81.2254 36.3654 82.7752 32.3734 84.7504 28.5474Z" fill="#BC1B8D"/>
<path d="M70.2137 35.4166L70.2396 35.4685C70.2562 35.5735 70.2331 35.6686 70.1701 35.7536L70.2137 35.4166Z" fill="#F58220"/>
<path d="M70.0582 36.3757C68.0242 51.0225 67.8945 65.7885 70.3747 80.3388C70.3837 80.3913 70.4165 80.4691 70.4733 80.5721L70.4732 80.8054L67.8259 81.3155L67.4419 81.3539L64.8258 81.4016L64.8176 81.272C64.6941 67.1136 66.0763 52.7561 69.3794 38.972C69.5869 38.1063 69.7832 37.2218 70.0582 36.3757Z" fill="#E01921"/>
<path d="M58.9627 36.8682C58.9759 36.8641 58.9876 36.863 58.998 36.8651C59.0257 36.8707 59.0378 36.8872 59.0343 36.9149C57.7205 47.5189 57.7309 58.3707 59.5034 69.0038C59.5044 69.0087 59.5067 69.0132 59.5102 69.0169C59.5136 69.0205 59.518 69.0232 59.5229 69.0245C59.5277 69.0257 59.5328 69.0257 59.5376 69.0242C59.5424 69.0228 59.5468 69.02 59.5501 69.0162L59.577 68.9851L59.5791 69.3148C59.5798 69.348 59.5636 69.3674 59.5304 69.3729L54.0459 70.3434C54.0086 70.3503 53.9854 70.3351 53.9764 70.2978C53.9715 70.2777 53.9733 70.2549 53.9816 70.2293C54.0335 69.8924 53.993 69.5419 54.0262 69.2277C54.0926 68.5818 54.0843 67.7979 54.1134 67.2878C54.6834 57.0608 56.2888 46.9984 58.9295 37.1005C58.9496 37.0245 58.9606 36.947 58.9627 36.8682Z" fill="#F05022"/>
<path d="M91.3918 59.8089C91.3884 59.739 91.3632 59.6803 91.3161 59.6326C91.2926 59.6084 91.2771 59.5797 91.2694 59.5465C90.3618 55.1806 89.7716 50.7729 89.4991 46.3234C89.4942 46.2508 89.4579 46.2083 89.3901 46.1959L89.4959 45.89C90.2763 43.8011 91.1729 41.7678 92.1857 39.7901C92.203 39.7563 92.2303 39.7421 92.2677 39.7476L112.089 42.5523C112.238 42.5738 112.238 42.5969 112.091 42.6218L95.8448 45.3747C95.8033 45.3816 95.7739 45.4044 95.7566 45.4431C93.7662 50.0292 92.3362 54.9055 91.3918 59.8089Z" fill="#90268F"/>
<path d="M47.5434 41.6596C47.5932 41.6617 47.6181 41.689 47.6181 41.7415C47.614 47.7138 48.2823 53.6468 49.8192 59.4232C49.8261 59.4508 49.8413 59.4729 49.8648 59.4895L49.952 59.5496L49.9272 59.7933C49.9237 59.8258 49.9061 59.8465 49.8742 59.8555L44.5579 61.3424C44.5143 61.3548 44.4905 61.3382 44.4863 61.2926L44.478 61.1827C44.8225 54.5675 45.8443 48.0598 47.5434 41.6596Z" fill="#F36421"/>
<path d="M89.3901 46.1959C89.4579 46.2083 89.4942 46.2508 89.4991 46.3234C89.7716 50.7729 90.3618 55.1806 91.2694 59.5465C91.2771 59.5797 91.2926 59.6084 91.3161 59.6326C91.3632 59.6803 91.3884 59.739 91.3918 59.8089C91.4292 59.954 91.3825 60.01 91.2435 60.0401C89.4641 60.4223 87.6837 60.7994 85.9022 61.1713C85.8656 61.1789 85.8396 61.1658 85.8244 61.1319C85.8043 61.0877 85.7957 61.0362 85.7985 60.9774C85.9594 60.6954 85.9448 60.4206 85.9863 60.1407C86.7037 55.3904 87.8383 50.7422 89.3901 46.1959Z" fill="#722B91"/>
</svg>
