<svg width="132" height="88" viewBox="0 0 132 88" fill="none" xmlns="http://www.w3.org/2000/svg">
<path d="M65.9995 10.0156C47.2495 10.0156 32.0156 25.2498 32.0156 43.9996C32.0156 62.632 47.3674 77.9833 65.9995 77.9833C84.7496 77.9833 99.9835 62.7491 99.9835 43.9996C99.8666 25.367 84.6316 10.0156 65.9995 10.0156ZM45.2574 23.2577C50.7656 17.7499 58.1483 14.7031 65.9995 14.7031C73.8508 14.7031 81.1163 17.7499 86.7417 23.2577C92.366 28.7654 95.2955 36.1481 95.2955 43.9996C95.2955 48.101 94.4761 52.0854 92.8349 55.8353C92.0154 57.7103 89.4364 57.9446 88.2649 56.1868L87.0926 54.3118C85.9211 52.4369 83.929 51.3823 81.702 51.3823C79.4762 51.3823 77.4841 52.554 76.3117 54.3118L75.374 55.8353C74.9054 56.6557 73.9676 57.1245 73.0302 57.1245C72.0935 57.1245 71.156 56.6557 70.6874 55.8353L58.0314 35.6795C57.0936 34.156 55.4524 33.2185 53.6955 33.2185C51.9371 33.2185 50.297 34.156 49.3595 35.6795L40.5706 49.7416C39.75 51.148 37.641 50.6791 37.2891 49.1559C36.9373 47.5152 36.8204 45.7574 36.8204 43.9996C36.7034 36.1481 39.75 28.7654 45.2574 23.2577Z" fill="black"/>
<path d="M92.9525 51.0312C96.8196 51.0312 99.9843 47.867 99.9843 43.9999C99.9843 40.1329 96.8196 36.9688 92.9525 36.9688C89.0855 36.9688 85.9219 40.1329 85.9219 43.9999C85.9219 47.867 89.0855 51.0312 92.9525 51.0312Z" fill="black"/>
</svg>
