<svg width="132" height="88" viewBox="0 0 132 88" fill="none" xmlns="http://www.w3.org/2000/svg">
<path d="M35.6 19.4462L90.5538 74.4V60.56C90.5538 46.2638 89.471 40.6564 86.3765 34.8702C83.773 30.0021 79.9979 26.227 75.1297 23.6235C69.3436 20.529 63.7362 19.4462 49.44 19.4462H35.6ZM77.6923 82H28V11.8462H49.44C66.3789 11.8462 72.5213 13.6098 78.7139 16.9217C84.9065 20.2335 89.7665 25.0935 93.0783 31.2861C96.3902 37.4787 98.1539 43.6211 98.1539 60.56V82H77.6923ZM96.6923 20.6154C92.6564 20.6154 89.3846 17.3436 89.3846 13.3077C89.3846 9.27177 92.6564 6 96.6923 6C100.728 6 104 9.27177 104 13.3077C104 17.3436 100.728 20.6154 96.6923 20.6154Z" fill="black"/>
</svg>
