<svg width="132" height="88" viewBox="0 0 132 88" fill="none" xmlns="http://www.w3.org/2000/svg">
<path fill-rule="evenodd" clip-rule="evenodd" d="M82.8234 63.7546C81.5627 63.4911 80.4046 62.7244 79.6351 60.7831C79.1568 59.5773 78.0684 58.2215 76.4468 58.2215H55.637C54.3636 58.2215 53.2183 59.0467 52.4488 60.7685C51.4483 63.0501 49.8542 64.1077 47.6536 63.7399C45.8707 63.4454 43.4355 61.1802 44.8556 57.9434C45.2037 57.1639 55.4208 34.7517 55.4208 34.7517C59.0873 35.4433 59.1294 38.2538 58.8857 39.6059C58.2444 43.0074 55.7543 49.3346 55.6095 49.8652C55.3915 50.6904 55.463 51.8943 56.2912 52.2621C57.0131 52.5713 57.7094 52.4231 58.435 51.823C59.5491 50.9099 69.4327 41.4009 70.4038 40.475C70.4203 42.2261 70.3598 43.979 70.347 45.73C70.3158 50.2329 73.3319 51.5284 74.5779 52.0425C77.7954 53.3508 81.9823 50.9374 83.3895 49.6584C83.8385 50.6282 86.5045 56.1923 87.2283 58.077C88.6337 61.7254 85.5041 64.3291 82.8234 63.7546ZM62.5211 19.2411C62.7813 18.6812 64.0144 17.0638 66.1143 17.1516C67.9851 17.2266 69.0992 18.4617 69.4913 19.2119C69.9989 20.1981 82.5613 47.8616 82.5613 47.8616C81.2292 49.0692 79.2283 50.0262 77.6342 50.1287C76.0419 50.2329 74.8527 49.5852 74.0263 48.3794C73.0405 46.9651 73.2586 44.8298 73.5627 39.7249C73.6488 38.2538 73.5628 36.4442 72.3901 35.93C71.3182 35.4433 70.4936 36.2832 69.3172 37.2968C68.4762 38.0177 62.9132 43.1977 59.9833 46.052C60.2746 45.214 62.2023 39.7706 61.9568 37.4743C61.6379 34.6181 59.0287 32.9403 56.3901 32.631C57.3026 30.6311 61.4913 21.4331 62.5211 19.2411ZM65.9989 8.25C46.567 8.25 30.7998 24.2601 30.7998 43.9918C30.7998 63.7271 46.567 79.75 65.9989 79.75C85.4454 79.75 101.2 63.7399 101.2 44.0064C101.2 24.2729 85.4454 8.25 65.9989 8.25Z" fill="#FBAE1D"/>
</svg>
