<svg width="132" height="88" viewBox="0 0 132 88" fill="none" xmlns="http://www.w3.org/2000/svg">
<path d="M20.625 33.7118H24.4403V38.6171H20.625V33.7118Z" fill="#F16623"/>
<path d="M28.5282 33.7118H32.3435V38.6171H28.5282V33.7118Z" fill="#F16623"/>
<path d="M36.4313 30.8504H40.2466V41.4785H36.4313V30.8504Z" fill="#F16623"/>
<path d="M44.3345 27.7165H48.1498V43.7948H44.3345V27.7165Z" fill="#F16623"/>
<path d="M52.2376 21.585H56.0529V50.7439H52.2376V21.585Z" fill="#F16623"/>
<path d="M60.1408 6.32422H63.9561V81.6742H60.1408V6.32422Z" fill="#F16623"/>
<path d="M68.0439 15.8622H71.8592V56.4667H68.0439V15.8622Z" fill="#F16623"/>
<path d="M75.9471 24.5826H79.7624V47.7463H75.9471V24.5826Z" fill="#F16623"/>
<path d="M83.8502 31.5317H87.6655V40.7972H83.8502V31.5317Z" fill="#F16623"/>
<path d="M91.7534 27.444H95.5687V43.1136H91.7534V27.444Z" fill="#F16623"/>
<path d="M99.6565 33.7118H103.472V38.6171H99.6565V33.7118Z" fill="#F16623"/>
<path d="M107.56 33.7118H111.375V38.6171H107.56V33.7118Z" fill="#F16623"/>
</svg>
