<svg width="132" height="88" viewBox="0 0 132 88" fill="none" xmlns="http://www.w3.org/2000/svg">
<rect x="30" y="8" width="72" height="72" rx="8" fill="#030303"/>
<path d="M83.0497 35.9241V21.5434C83.0497 20.0215 82.3598 18.5534 81.122 17.6801C79.5566 16.579 77.5185 16.5726 75.9624 17.6168C66.8279 23.7456 49.264 40.8096 40.8319 63.4899C40.6177 64.0656 40.4255 64.6542 40.2113 65.2268C40.1484 65.3914 40.0664 65.559 40.1263 65.7394C40.1956 65.9516 40.4318 66.059 40.6523 66.0845C41.0681 66.1286 41.5091 66.094 41.928 66.094H43.336C44.0668 66.094 44.8007 66.094 45.5315 66.094C46.0764 66.094 46.3315 65.4579 46.4985 65.0276C49.1727 58 52.1967 52.0865 55.3024 47.1124C55.3087 47.1093 55.3151 47.1061 55.3246 47.0998H77.2004C77.2004 47.0998 77.2256 47.1124 77.2256 47.125V64.9959C77.2256 65.6097 77.7107 66.1064 78.3092 66.1064H81.9692C82.5677 66.1064 83.0528 65.6097 83.0528 64.9959V48.8051C83.0528 48.8051 83.0528 48.7736 83.0528 48.7578V35.9212L83.0497 35.9241ZM77.2224 41.2241C77.2224 41.2241 77.2099 41.2493 77.1972 41.2493H59.3468C59.328 41.2493 59.3153 41.2241 59.328 41.2081C66.5223 31.5451 73.5559 26.4287 77.1845 23.6792C77.2004 23.6665 77.2224 23.6792 77.2224 23.6981V41.2241Z" fill="white"/>
</svg>
