<svg width="132" height="88" viewBox="0 0 132 88" fill="none" xmlns="http://www.w3.org/2000/svg">
<path d="M49.9719 11.7743C52.7557 12.1197 55.5162 13.0163 58.0982 14.5068C68.4241 20.4686 71.9626 33.6728 66.0003 43.999C60.038 33.6728 46.8344 30.1346 36.5083 36.0966C33.9305 37.5849 31.7755 39.5245 30.0863 41.758C30.895 28.6004 38.7742 17.3548 49.9719 11.7743Z" fill="#FFD600"/>
<path d="M30.0863 41.758C31.7755 39.5248 33.9305 37.5849 36.5083 36.0966C46.8345 30.1349 60.0383 33.673 66.0006 43.9993C54.0771 43.9993 44.4109 53.665 44.4109 65.5884C44.4109 68.5672 45.0134 71.4047 46.1049 73.9856C36.4085 67.5396 30.0176 56.5156 30.0176 43.9993C30.0176 43.2466 30.0403 42.4992 30.0863 41.758Z" fill="#1BC47D"/>
<path d="M46.1049 73.9856C45.0145 71.4039 44.4109 68.567 44.4109 65.5884C44.4109 53.6647 54.0771 43.9987 66.0006 43.9987C60.0383 54.325 63.5767 67.5297 73.9027 73.4908C76.4847 74.9811 79.2462 75.8787 82.0289 76.2235C77.2021 78.6284 71.7599 79.9817 66.0006 79.9817C58.644 79.9817 51.8034 77.7737 46.1049 73.9856Z" fill="#18A0FB"/>
<path d="M82.0289 76.2235C79.2462 75.8787 76.4847 74.9811 73.9027 73.4908C63.5767 67.5297 60.0386 54.325 66.0008 43.9987C71.9628 54.325 85.1667 57.8629 95.4926 51.9011C98.0705 50.4131 100.225 48.4733 101.915 46.24C101.106 59.3974 93.2267 70.6432 82.0289 76.2235Z" fill="#7B61FF"/>
<path d="M101.914 46.2389C100.225 48.4727 98.0702 50.412 95.4924 51.9006C85.1664 57.8623 71.9626 54.3244 66.0006 43.9982C77.9248 43.9982 87.5903 34.3319 87.5903 22.4082C87.5903 19.43 86.9875 16.5926 85.896 14.0114C95.5925 20.4578 101.983 31.4816 101.983 43.9982C101.983 44.7509 101.96 45.498 101.914 46.2389Z" fill="#F24822"/>
<path d="M85.8963 14.0119C86.9866 16.5931 87.5905 19.4305 87.5905 22.4088C87.5905 34.3325 77.924 43.9982 66.0006 43.9982C71.9617 33.6722 68.4244 20.4682 58.0984 14.5065C55.5167 13.016 52.7549 12.1193 49.9722 11.7739C54.7979 9.3686 60.2415 8.01562 66.0006 8.01562C73.3571 8.01562 80.198 10.2232 85.8963 14.0119Z" fill="#F97F0F"/>
</svg>
