<svg width="132" height="88" viewBox="0 0 132 88" fill="none" xmlns="http://www.w3.org/2000/svg">
<path d="M73.0028 53.22V58.5858H74.1699C85.773 58.5858 95.1791 67.992 95.1791 79.595V82.2211H36.8203V79.595C36.8203 67.992 46.2264 58.5858 57.8295 58.5858H58.9967V53.22C53.9669 50.8307 50.3514 45.9474 49.7483 40.1682C48.0486 39.9279 46.7413 38.4673 46.7413 36.7013V32.6162C46.7413 30.8812 48.0032 29.4409 49.6592 29.1631V27.3639C49.6592 18.3393 56.9751 11.0234 65.9997 11.0234C75.0243 11.0234 82.3402 18.3393 82.3402 27.3639V29.1631C83.9962 29.4409 85.2581 30.8812 85.2581 32.6162V36.7013C85.2581 38.4673 83.9508 39.9279 82.2511 40.1682C81.648 45.9474 78.0325 50.8307 73.0028 53.22Z" fill="#D0C6AC"/>
<path d="M73.0028 53.22V58.5858H74.1699C85.773 58.5858 95.1791 67.992 95.1791 79.595V82.2211H36.8203V79.595C36.8203 67.992 46.2264 58.5858 57.8295 58.5858H58.9967V53.22C53.9669 50.8307 50.3514 45.9474 49.7483 40.1682C48.0486 39.9279 46.7413 38.4673 46.7413 36.7013V32.6162C46.7413 30.8812 48.0032 29.4409 49.6592 29.1631V27.3639C49.6592 18.3393 56.9751 11.0234 65.9997 11.0234C75.0243 11.0234 82.3402 18.3393 82.3402 27.3639V29.1631C83.9962 29.4409 85.2581 30.8812 85.2581 32.6162V36.7013C85.2581 38.4673 83.9508 39.9279 82.2511 40.1682C81.648 45.9474 78.0325 50.8307 73.0028 53.22Z" fill="#EDB98A"/>
<path d="M73.0028 53.22V58.5858H74.1699C85.773 58.5858 95.1791 67.992 95.1791 79.595V82.2211H36.8203V79.595C36.8203 67.992 46.2264 58.5858 57.8295 58.5858H58.9967V53.22C53.9669 50.8307 50.3514 45.9474 49.7483 40.1682C48.0486 39.9279 46.7413 38.4673 46.7413 36.7013V32.6162C46.7413 30.8812 48.0032 29.4409 49.6592 29.1631V27.3639C49.6592 18.3393 56.9751 11.0234 65.9997 11.0234C75.0243 11.0234 82.3402 18.3393 82.3402 27.3639V29.1631C83.9962 29.4409 85.2581 30.8812 85.2581 32.6162V36.7013C85.2581 38.4673 83.9508 39.9279 82.2511 40.1682C81.648 45.9474 78.0325 50.8307 73.0028 53.22Z" fill="black" fill-opacity="0.1"/>
<path fill-rule="evenodd" clip-rule="evenodd" d="M82.3411 34.0781V40.7894C82.3411 49.814 75.0252 57.1298 66.0006 57.1298C56.976 57.1298 49.6602 49.814 49.6602 40.7894V34.0781V38.455C49.6602 47.4796 56.976 54.7955 66.0006 54.7955C75.0252 54.7955 82.3411 47.4796 82.3411 38.455V34.0781Z" fill="black" fill-opacity="0.1"/>
<path fill-rule="evenodd" clip-rule="evenodd" d="M75.9092 58.6743C86.6985 59.5585 95.1791 68.5952 95.1791 79.6125V82.2236H36.8203V79.6125C36.8203 68.4954 45.4551 59.3951 56.3838 58.6523C56.375 58.7614 56.3705 58.8711 56.3705 58.9815C56.3705 62.4431 60.747 65.2493 66.1456 65.2493C71.5442 65.2493 75.9207 62.4431 75.9207 58.9815C75.9207 58.8785 75.9168 58.7761 75.9092 58.6743Z" fill="#E6E6E6"/>
<path fill-rule="evenodd" clip-rule="evenodd" d="M75.9092 58.6743C86.6985 59.5585 95.1791 68.5952 95.1791 79.6125V82.2236H36.8203V79.6125C36.8203 68.4954 45.4551 59.3951 56.3838 58.6523C56.375 58.7614 56.3705 58.8711 56.3705 58.9815C56.3705 62.4431 60.747 65.2493 66.1456 65.2493C71.5442 65.2493 75.9207 62.4431 75.9207 58.9815C75.9207 58.8785 75.9168 58.7761 75.9092 58.6743Z" fill="#262E33"/>
<path fill-rule="evenodd" clip-rule="evenodd" d="M75.9092 58.6743C86.6985 59.5585 95.1791 68.5952 95.1791 79.6125V82.2236H36.8203V79.6125C36.8203 68.4954 45.4551 59.3951 56.3838 58.6523C56.375 58.7614 56.3705 58.8711 56.3705 58.9815C56.3705 62.4431 60.747 65.2493 66.1456 65.2493C71.5442 65.2493 75.9207 62.4431 75.9207 58.9815C75.9207 58.8785 75.9168 58.7761 75.9092 58.6743Z" fill="black" fill-opacity="0.16"/>
<path fill-rule="evenodd" clip-rule="evenodd" d="M56.8913 58.625C45.7236 59.1158 36.8203 68.3249 36.8203 79.6136L36.8203 82.2246H57.0596C56.0673 78.6998 55.4951 74.553 55.4951 70.1152C55.4951 65.9347 56.0028 62.0124 56.8913 58.625ZM75.2316 82.2246H95.1791V79.6136C95.1791 68.4248 86.4326 59.2788 75.4038 58.6401C76.2899 62.024 76.7961 65.9408 76.7961 70.1152C76.7961 74.553 76.2239 78.6998 75.2316 82.2246Z" fill="#3A4C5A"/>
<path fill-rule="evenodd" clip-rule="evenodd" d="M80.2969 75.2192L83.0852 73.128C83.5063 72.8122 84.0866 72.8173 84.5021 73.1404L86.4245 74.6356L80.2969 75.2192Z" fill="#E6E6E6"/>
<path fill-rule="evenodd" clip-rule="evenodd" d="M56.955 58.2969C55.7878 63.9382 56.2742 71.9139 58.414 82.224H53.7453L49.6602 71.7194L51.4109 69.0932L49.6602 67.3425L55.2042 58.5887C55.7959 58.4046 56.3795 58.3074 56.955 58.2969Z" fill="#2F4351"/>
<path fill-rule="evenodd" clip-rule="evenodd" d="M75.045 58.2969C76.2122 63.9382 75.7258 71.9139 73.586 82.224H78.2547L82.3398 71.7194L80.5891 69.0932L82.3398 67.3425L76.7958 58.5887C76.2041 58.4046 75.6205 58.3074 75.045 58.2969Z" fill="#2F4351"/>
<path fill-rule="evenodd" clip-rule="evenodd" d="M61.9141 44C61.9141 46.2561 63.743 48.0851 65.9992 48.0851C68.2553 48.0851 70.0843 46.2561 70.0843 44" fill="black" fill-opacity="0.7"/>
<path fill-rule="evenodd" clip-rule="evenodd" d="M62.498 38.4531C62.498 39.7424 64.0657 40.7875 65.9996 40.7875C67.9334 40.7875 69.5011 39.7424 69.5011 38.4531" fill="black" fill-opacity="0.16"/>
<path d="M58.4129 34.9547C59.3798 34.9547 60.1636 34.1708 60.1636 33.2039C60.1636 32.237 59.3798 31.4531 58.4129 31.4531C57.446 31.4531 56.6621 32.237 56.6621 33.2039C56.6621 34.1708 57.446 34.9547 58.4129 34.9547Z" fill="black" fill-opacity="0.6"/>
<path d="M73.5867 34.9547C74.5536 34.9547 75.3375 34.1708 75.3375 33.2039C75.3375 32.237 74.5536 31.4531 73.5867 31.4531C72.6198 31.4531 71.8359 32.237 71.8359 33.2039C71.8359 34.1708 72.6198 34.9547 73.5867 34.9547Z" fill="black" fill-opacity="0.6"/>
<path d="M54.2195 29.4558C55.3618 27.8484 58.4936 26.9471 61.1913 27.6095C61.5043 27.6864 61.8203 27.495 61.8972 27.182C61.974 26.869 61.7826 26.5529 61.4696 26.476C58.3367 25.7067 54.7102 26.7504 53.2681 28.7797C53.0814 29.0424 53.143 29.4068 53.4057 29.5935C53.6684 29.7802 54.0328 29.7186 54.2195 29.4558Z" fill="black" fill-opacity="0.6"/>
<path d="M77.7786 29.4558C76.6362 27.8484 73.5045 26.9471 70.8068 27.6095C70.4938 27.6864 70.1777 27.495 70.1009 27.182C70.024 26.869 70.2154 26.5529 70.5284 26.476C73.6613 25.7067 77.2878 26.7504 78.73 28.7797C78.9167 29.0424 78.855 29.4068 78.5923 29.5935C78.3296 29.7802 77.9653 29.7186 77.7786 29.4558Z" fill="black" fill-opacity="0.6"/>
<path fill-rule="evenodd" clip-rule="evenodd" d="M83.3626 29.5065C84.4881 30.0888 85.2574 31.2638 85.2574 32.6185V36.4118C85.2574 38.168 83.9645 39.6222 82.2786 39.8746C81.7699 45.7827 78.1174 50.7923 73.0021 53.2223V58.5881H74.1692C79.273 58.5881 83.9517 60.408 87.5917 63.4343V27.3662C87.5917 21.4035 85.1749 16.0053 81.2674 12.0978C77.3599 8.19029 71.9617 5.77344 65.999 5.77344C54.0737 5.77344 44.4062 15.4408 44.4062 27.3662V80.9735C48.3657 80.4072 51.4093 77.002 51.4093 72.886V59.587C53.4328 58.9383 55.5899 58.5881 57.8288 58.5881H58.9959V53.2223C55.7199 51.666 53.0438 49.0517 51.4093 45.8209V27.7356C54.0783 26.8675 56.8885 25.6204 59.6792 24.0092C64.1737 21.4143 67.8756 18.3033 70.3952 15.2267C70.9102 16.7435 71.5942 18.2625 72.4507 19.7459C75.009 24.177 78.6115 27.4344 82.3395 29.0927V29.1654C82.4563 29.185 82.5712 29.2104 82.6838 29.2412C82.9098 29.3356 83.1361 29.4241 83.3626 29.5065Z" fill="#944F23"/>
<path fill-rule="evenodd" clip-rule="evenodd" d="M83.3626 29.5065C84.4881 30.0888 85.2574 31.2638 85.2574 32.6185V36.4118C85.2574 38.168 83.9645 39.6222 82.2786 39.8746C81.7699 45.7827 78.1174 50.7923 73.0021 53.2223V58.5881H74.1692C79.273 58.5881 83.9517 60.408 87.5917 63.4343V27.3662C87.5917 21.4035 85.1749 16.0053 81.2674 12.0978C77.3599 8.19029 71.9617 5.77344 65.999 5.77344C54.0737 5.77344 44.4062 15.4408 44.4062 27.3662V80.9735C48.3657 80.4072 51.4093 77.002 51.4093 72.886V59.587C53.4328 58.9383 55.5899 58.5881 57.8288 58.5881H58.9959V53.2223C55.7199 51.666 53.0438 49.0517 51.4093 45.8209V27.7356C54.0783 26.8675 56.8885 25.6204 59.6792 24.0092C64.1737 21.4143 67.8756 18.3033 70.3952 15.2267C70.9102 16.7435 71.5942 18.2625 72.4507 19.7459C75.009 24.177 78.6115 27.4344 82.3395 29.0927V29.1654C82.4563 29.185 82.5712 29.2104 82.6838 29.2412C82.9098 29.3356 83.1361 29.4241 83.3626 29.5065Z" fill="#49312B"/>
<path fill-rule="evenodd" clip-rule="evenodd" d="M83.3635 29.5064C84.7839 30.0236 86.2104 30.305 87.5926 30.3272V27.366V63.4341C83.9525 60.4079 79.2738 58.588 74.1701 58.588H73.0029V53.2222C78.1183 50.7921 81.7708 45.7825 82.2794 39.8744C83.9653 39.6221 85.2583 38.1678 85.2583 36.4116V32.6183C85.2583 31.2637 84.489 30.0887 83.3635 29.5064ZM82.6846 29.2411C82.572 29.2102 82.4572 29.1848 82.3403 29.1652V29.0926C82.455 29.1436 82.5698 29.1931 82.6846 29.2411ZM51.4102 45.8208C53.0447 49.0516 55.7207 51.6659 58.9968 53.2222V58.588H57.8296C55.5907 58.588 53.4337 58.9382 51.4102 59.5868V45.8208Z" fill="#382520"/>
</svg>
