<svg width="132" height="88" viewBox="0 0 132 88" fill="none" xmlns="http://www.w3.org/2000/svg">
<path fill-rule="evenodd" clip-rule="evenodd" d="M59.8385 27.517C54.138 27.517 49.5164 32.1381 49.5164 37.8386V54.4719C49.5164 60.1724 54.138 64.7938 59.8385 64.7938H76.4716C82.1718 64.7938 86.7937 60.1724 86.7937 54.4719V37.8386C86.7937 32.1381 82.1718 27.517 76.4716 27.517H59.8385ZM38.3246 37.8386C38.3246 25.9569 47.9571 16.3248 59.8385 16.3248H76.4716C88.3538 16.3248 97.9854 25.9569 97.9854 37.8386V54.4719C97.9854 66.3541 88.3538 75.9855 76.4716 75.9855H59.8385C47.9571 75.9855 38.3246 66.3541 38.3246 54.4719V37.8386Z" fill="#212833"/>
<path d="M75.8941 13.881H51.7983C43.0075 13.881 35.8809 21.0076 35.8809 29.7987V53.8933C35.8809 62.6845 43.0075 69.8112 51.7983 69.8112H75.8941C84.6847 69.8112 91.8114 62.6845 91.8114 53.8933V29.7987C91.8114 21.0076 84.6847 13.881 75.8941 13.881Z" fill="white"/>
<path fill-rule="evenodd" clip-rule="evenodd" d="M51.7983 15.7464C44.0378 15.7464 37.7458 22.0379 37.7458 29.7987V53.8933C37.7458 61.6544 44.0378 67.9461 51.7983 67.9461H75.8938C83.654 67.9461 89.946 61.6544 89.946 53.8933V29.7987C89.946 22.0379 83.654 15.7464 75.8938 15.7464H51.7983ZM34.0156 29.7987C34.0156 19.9773 41.9778 12.0156 51.7983 12.0156H75.8938C85.7152 12.0156 93.6764 19.9773 93.6764 29.7987V53.8933C93.6764 63.7147 85.7152 71.6765 75.8938 71.6765H51.7983C41.9778 71.6765 34.0156 63.7147 34.0156 53.8933V29.7987Z" fill="#212833"/>
<path d="M57.4003 43.7329V45.1401C57.4003 46.1771 57.5013 47.177 57.7042 48.1398C57.9069 49.1028 58.2259 49.9471 58.6596 50.6728C59.0943 51.3988 59.6512 51.9766 60.3318 52.4061C61.0125 52.8357 61.8452 53.0505 62.8297 53.0505C63.8142 53.0505 64.6537 52.8283 65.3484 52.3839C66.0441 51.9395 66.6079 51.3543 67.0427 50.6285C67.4774 49.9028 67.7953 49.0657 67.9983 48.1175C68.2012 47.1696 68.3022 46.1771 68.3022 45.1401V43.7329H76.7722V45.1401C76.7722 47.3324 76.4972 49.3842 75.9466 51.2951C75.3966 53.2061 74.5422 54.8578 73.3847 56.2501C72.2261 57.6427 70.7708 58.7388 69.0188 59.5388C67.2676 60.3385 65.2035 60.7386 62.8297 60.7386C60.3679 60.7386 58.2619 60.3165 56.5096 59.4723C54.7576 58.6277 53.3171 57.4945 52.1877 56.0724C51.0583 54.6504 50.2336 52.9985 49.7119 51.1175C49.191 49.2362 48.9303 47.2436 48.9303 45.1401V43.7329H57.4003ZM53.4552 28.9195C55.9538 28.9195 57.9789 30.9922 57.9789 33.5488C57.9789 36.1052 55.9538 38.1779 53.4552 38.1779C50.9563 38.1779 48.9303 36.1052 48.9303 33.5488C48.9303 30.9922 50.9563 28.9195 53.4552 28.9195ZM71.5527 28.9195C74.0513 28.9195 76.0775 30.9922 76.0775 33.5488C76.0775 36.1052 74.0513 38.1779 71.5527 38.1779C69.0537 38.1779 67.0286 36.1052 67.0286 33.5488C67.0286 30.9922 69.0537 28.9195 71.5527 28.9195Z" fill="#212833"/>
</svg>
