<svg width="132" height="88" viewBox="0 0 132 88" fill="none" xmlns="http://www.w3.org/2000/svg">
<path fill-rule="evenodd" clip-rule="evenodd" d="M36.0937 26.8357C35.7423 27.2266 35.4546 27.9607 35.4546 28.4674C35.4546 28.9741 36.8275 31.9332 38.5052 35.0427C40.1832 38.1525 43.773 44.8063 46.4825 49.8288C52.5367 61.0512 52.0717 60.3028 53.16 60.5806C53.8111 60.7469 54.3101 60.5519 54.9354 59.8862C56.2419 58.4958 71.7575 29.3899 71.7575 28.3298C71.7575 27.8247 71.4397 27.1217 71.0512 26.7681C70.417 26.1903 68.6351 26.125 53.5388 26.125C37.7478 26.125 36.6943 26.1677 36.0937 26.8357ZM78.5161 26.4922C78.0913 26.6675 77.3961 27.1991 76.9713 27.6739C76.2313 28.5008 76.1942 29.1669 76.0892 43.4513C75.9683 59.8687 75.9949 60.0809 78.3102 61.2855C79.8114 62.0666 84.1909 62.06 85.8361 61.2746C88.1642 60.1629 88.1711 60.1108 88.1711 44C88.1711 28.047 88.1395 27.7967 85.9833 26.6748C84.8328 26.076 79.8241 25.9536 78.5161 26.4922ZM94.7586 27.766C94.2387 28.5121 94.1573 30.7173 94.1573 44C94.1573 60.7333 94.2028 61.0978 96.3026 61.0978C97.6215 61.0978 123.735 45.9818 124.328 44.8743C125.07 43.4921 124.223 42.4631 120.687 40.4499C118.946 39.4594 112.949 36.0056 107.36 32.7753C101.771 29.5453 96.7846 26.9022 96.279 26.9022C95.7669 26.9022 95.0934 27.2845 94.7586 27.766ZM24.1539 27.9708C23.6136 28.5762 10.8052 52.0935 8.22036 57.2256C7.03627 59.5765 7.1726 60.9354 8.64943 61.5C9.22294 61.7196 16.4275 61.875 26.0177 61.875C41.8914 61.875 42.4305 61.8505 43.1786 61.0978C43.6034 60.6704 43.951 60.0183 43.951 59.6492C43.951 58.7628 28.2615 29.3619 27.0462 27.9708C26.7194 27.5966 26.0718 27.2908 25.6064 27.2908C25.141 27.2908 24.4876 27.5966 24.1539 27.9708Z" fill="#7825E7"/>
</svg>
