<svg width="132" height="88" viewBox="0 0 132 88" fill="none" xmlns="http://www.w3.org/2000/svg">
<mask id="mask0_2056_25926" style="mask-type:luminance" maskUnits="userSpaceOnUse" x="39" y="8" width="54" height="72">
<path d="M39.4189 8.55859H92.5816V79.4422H39.4189V8.55859Z" fill="white"/>
</mask>
<g mask="url(#mask0_2056_25926)">
<path fill-rule="evenodd" clip-rule="evenodd" d="M82.818 55.7287C87.0656 52.2585 90.1357 47.5591 91.6075 42.2752C93.0784 36.991 92.8803 31.3813 91.0373 26.215C89.1941 21.0485 85.7994 16.5786 81.3161 13.4183C76.8327 10.2579 71.482 8.56174 65.9964 8.5625C60.5117 8.56317 55.1611 10.2607 50.6789 13.4223C46.1964 16.5839 42.8018 21.0546 40.9611 26.2214C39.1204 31.3883 38.9221 36.9983 40.3952 42.2819C41.8681 47.5655 44.9394 52.264 49.1882 55.7333L60.8396 32.4256C62.9662 28.1726 69.04 28.1726 71.1663 32.4256L82.818 55.7287Z" fill="#FFD860"/>
<path d="M68.5265 33.7462C68.2931 33.2778 67.9329 32.8838 67.4877 32.6086C67.0425 32.3332 66.5297 32.1875 66.0059 32.1875C65.4821 32.1875 64.9692 32.3332 64.524 32.6086C64.0788 32.8838 63.7186 33.2778 63.4852 33.7462L42.6763 75.3677C42.4615 75.7976 42.3594 76.276 42.3807 76.7557C42.4017 77.2362 42.5456 77.7025 42.7982 78.1123C43.0505 78.5209 43.404 78.8589 43.8236 79.0926C44.2435 79.3263 44.7164 79.4491 45.197 79.4479H54.3146C54.8628 79.4479 55.4 79.2962 55.8662 79.0082C56.3324 78.7202 56.7091 78.3082 56.955 77.8176L63.4852 64.7578C63.7186 64.2895 64.0788 63.8954 64.524 63.6203C64.9692 63.3448 65.4821 63.1992 66.0059 63.1992C66.5297 63.1992 67.0425 63.3448 67.4877 63.6203C67.9329 63.8954 68.2931 64.2895 68.5265 64.7578L75.0568 77.8176C75.3027 78.3073 75.6805 78.7181 76.1468 79.0048C76.613 79.2928 77.1502 79.4445 77.6972 79.4436H86.8148C88.9101 79.4436 90.2704 77.2374 89.3355 75.3677L68.5265 33.7419V33.7462Z" fill="#0A0F0D"/>
</g>
</svg>
