<svg width="132" height="88" viewBox="0 0 132 88" fill="none" xmlns="http://www.w3.org/2000/svg">
<path fill-rule="evenodd" clip-rule="evenodd" d="M68.2986 11.8242H63.7017V32.1748L56.0782 13.3083L51.8151 15.0296L59.6375 34.3891L44.8733 19.6246L41.6236 22.8743L55.7746 37.0252L37.4348 29.0136L35.5968 33.2247L55.0005 41.7027H33.8252V46.2999H55.0005L35.5948 54.7759L37.4368 58.9867L55.7746 50.9751L41.6236 65.1261L44.8733 68.3758L59.6375 53.6116L51.8151 72.9707L56.0782 74.6922L63.7017 55.8215V76.1742H68.2986V55.8237L75.9222 74.6922L80.1852 72.9707L72.3629 53.6116L87.1271 68.3758L90.3767 65.1261L76.2258 50.9751L94.5655 58.9867L96.4037 54.7759L76.9999 46.2977H98.1752V41.7008H76.9999L96.4056 33.2225L94.5636 29.0117L76.2258 37.0233L90.3767 22.8723L87.1271 19.6226L72.3629 34.3869L80.1852 15.0276L75.9222 13.3063L68.2986 32.1748V11.8242Z" fill="#5E36F5"/>
</svg>
