<svg width="132" height="88" viewBox="0 0 132 88" fill="none" xmlns="http://www.w3.org/2000/svg">
<path fill-rule="evenodd" clip-rule="evenodd" d="M40.6946 9.4316C40.1292 9.51163 39.4683 9.73965 39.2259 9.93854C38.9836 10.1371 38.422 10.4552 37.9775 10.6447C37.5331 10.8344 37.1698 11.1975 37.1698 11.4517C37.1698 11.7059 36.9709 12.2991 36.728 12.7698C36.4848 13.2406 36.1429 14.6566 35.9678 15.9168C35.793 17.1766 35.5375 18.277 35.4 18.362C34.9858 18.6186 34.5261 20.0968 34.5261 21.1718C34.5261 21.7276 34.4069 22.1825 34.2612 22.1825C33.9011 22.1825 33.3536 23.8283 33.3412 24.9478C33.3356 25.4498 33.076 26.3898 32.7637 27.0371C32.4515 27.6844 32.186 28.7436 32.1733 29.3908C32.1607 30.0381 31.9457 31.0973 31.6954 31.7446C31.4455 32.3919 31.0783 33.9383 30.8803 35.1811C30.682 36.4241 30.3669 37.6254 30.18 37.8511C29.9929 38.0765 29.7509 39.2225 29.6419 40.3976C29.5329 41.5727 29.1993 43.0141 28.9005 43.6007C28.6021 44.1874 28.3577 45.2425 28.3577 45.9454C28.3577 46.6483 28.1104 47.7789 27.8084 48.4577C27.5062 49.1365 27.1737 50.5693 27.0694 51.6417C26.9654 52.7142 26.6734 54.0061 26.4211 54.513C26.1688 55.02 25.8859 56.4596 25.7928 57.7121C25.6997 58.9649 25.44 60.2732 25.2153 60.6198C24.9891 60.9688 24.6969 62.6099 24.56 64.2976C24.424 65.9737 24.1053 67.8747 23.8515 68.522C23.5343 69.3305 23.3859 70.7174 23.3771 72.9538C23.3645 76.1331 23.383 76.2261 24.172 76.9631C24.9398 77.6801 25.1977 77.7275 29.3858 77.9193C31.8091 78.0305 34.3866 78.2394 35.1136 78.3842C37.2203 78.8029 42.9866 78.7246 49.6759 78.1862C55.6149 77.7081 55.9054 77.6557 56.8107 76.8987C57.476 76.3423 57.8038 75.7712 57.9216 74.9636C58.0132 74.3334 58.3384 73.2795 58.6442 72.6216C58.95 71.9637 59.1999 71.1364 59.1999 70.7828C59.1999 70.3603 59.3809 70.1402 59.7287 70.1402C60.0195 70.1402 60.4225 69.9748 60.6243 69.7724C61.1022 69.2937 68.3057 69.0475 68.3057 69.51C68.3057 69.6821 68.5572 70.0599 68.8647 70.3494C69.172 70.6389 69.5814 71.4677 69.7747 72.1912C69.9677 72.9147 70.3111 73.7717 70.5375 74.0954C70.764 74.4193 70.9493 75.033 70.9493 75.4588C70.9493 75.9654 71.2628 76.4935 71.8549 76.9849C72.6601 77.6531 73.1089 77.7563 75.8938 77.9155C77.6171 78.0141 80.415 78.2415 82.1113 78.421C83.8076 78.6007 86.4512 78.6678 87.986 78.5704C89.5208 78.4731 94.2581 78.2759 98.5138 78.1326L106.251 77.8723L107.126 76.9961C108.092 76.0284 108.639 74.4402 108.625 72.641C108.612 70.9905 107.864 67.5252 107.277 66.4036C107.007 65.8855 106.779 64.8263 106.772 64.0498C106.765 63.2731 106.553 62.108 106.301 61.4607C106.049 60.8134 105.721 59.1779 105.572 57.8262C105.422 56.4746 105.121 55.0182 104.902 54.5898C104.683 54.1614 104.41 52.8645 104.296 51.7076C104.181 50.5508 103.892 49.2268 103.652 48.7655C103.413 48.3041 103.111 46.9881 102.983 45.8409C102.854 44.6938 102.549 43.436 102.305 43.0458C102.061 42.6557 101.779 41.6842 101.678 40.8869C101.577 40.0895 101.315 39.2289 101.095 38.9744C100.875 38.7199 100.606 37.7199 100.498 36.7522C100.39 35.7845 100.12 34.7141 99.8973 34.374C99.6746 34.0336 99.4006 33.1042 99.2884 32.3086C99.1762 31.513 98.8939 30.5589 98.6612 30.1888C98.4289 29.8183 98.119 28.4673 97.9733 27.1863C97.8273 25.9049 97.5215 24.4868 97.2936 24.0346C97.0657 23.5824 96.8034 22.4408 96.7105 21.4978C96.618 20.5546 96.346 19.4836 96.1066 19.1176C95.8672 18.7516 95.5456 17.1693 95.392 15.602C95.2225 13.8746 94.9414 12.5521 94.6782 12.2446C94.4391 11.9657 94.1618 11.5061 94.0613 11.2228C93.9612 10.9395 93.6945 10.7079 93.4689 10.7079C93.2433 10.7079 92.7049 10.4293 92.2728 10.0886C91.4897 9.47162 91.3878 9.46897 66.6047 9.37776C52.9196 9.32745 41.26 9.35187 40.6946 9.4316ZM45.9372 13.5518L41.9268 13.6663L41.164 14.6684C40.5844 15.4293 40.4009 16.0142 40.4009 17.099C40.4009 17.9272 40.1635 18.9934 39.8363 19.6366C39.5258 20.2465 39.1783 21.3001 39.0641 21.9774C38.9498 22.655 38.6091 23.6712 38.3068 24.2361C38.0046 24.801 37.7572 25.704 37.7572 26.2427C37.7572 26.7814 37.5037 27.8427 37.1939 28.6009C36.884 29.3591 36.562 30.7507 36.4786 31.6937C36.3949 32.637 36.1402 33.6961 35.9129 34.0474C35.6855 34.399 35.4165 35.5921 35.3151 36.6987C35.2138 37.8052 34.9394 39.0951 34.7053 39.5649C34.4712 40.0351 34.1895 41.3144 34.0791 42.4077C33.9689 43.5013 33.6811 44.7932 33.4393 45.2787C33.1976 45.7641 32.8877 47.1149 32.7508 48.2806C32.6136 49.4463 32.312 50.7041 32.0799 51.0757C31.8482 51.4473 31.5791 52.6715 31.4825 53.7963C31.3635 55.1768 31.1614 55.922 30.86 56.0909C30.5178 56.2828 30.4139 56.8997 30.4139 58.7348C30.4139 60.7128 30.3131 61.2359 29.8343 61.7464C29.4125 62.1963 29.2042 62.9618 29.0691 64.5606C28.9672 65.7684 28.6332 67.5981 28.3269 68.6264C27.5655 71.1835 27.5884 73.1206 28.3883 73.8459C28.9737 74.3766 29.6073 74.4064 40.358 74.4064C50.2334 74.4064 51.8142 74.3452 52.5139 73.9356C53.752 73.2106 54.4867 72.0858 54.6893 70.6045C54.791 69.8621 55.1205 68.9704 55.4216 68.6229C55.7224 68.2751 55.9688 67.7667 55.9688 67.4928C55.9688 66.075 57.7853 65.6295 65.0021 65.2767C69.9883 65.0331 70.633 65.2311 72.0658 67.4457C72.5825 68.2448 73.0055 69.0454 73.0055 69.2252C73.0055 69.4046 73.2499 69.7965 73.5483 70.0955C73.8468 70.3944 74.1781 71.1838 74.2841 71.8493C74.4507 72.892 74.6619 73.1677 75.8101 73.8417L77.1428 74.6241L90.1864 74.5058C97.3603 74.4408 103.331 74.286 103.456 74.1619C103.919 73.6976 103.568 69.555 102.964 68.3707C102.643 67.7385 102.378 66.7858 102.376 66.2535C102.374 65.721 102.29 64.7877 102.19 64.1793C102.025 63.1816 101.969 63.1239 101.615 63.5909C101.399 63.8757 101.218 64.5721 101.214 65.1385C101.187 68.0589 99.8491 71.6113 98.7758 71.6113C98.6277 71.6113 98.1701 71.8761 97.7595 72.1997C97.0478 72.7605 96.5678 72.7882 87.5351 72.7882H78.0577L77.0003 71.729C76.4143 71.142 75.9429 70.3753 75.9429 70.0092C75.9429 69.6459 75.6952 69.1242 75.3924 68.8497C75.0898 68.5755 74.7706 67.8164 74.683 67.1633C74.5955 66.5098 74.3288 65.754 74.0906 65.4833C73.852 65.2129 73.5648 64.4285 73.4523 63.7409C73.3398 63.0533 73.1374 62.4905 73.0026 62.4905C72.8677 62.4905 72.6007 62.015 72.4092 61.4339L72.0611 60.3774L71.3709 61.2133C70.9911 61.6731 70.3325 62.4793 69.9075 63.0054L69.1347 63.9616H64.6619H60.1892L59.254 62.9036C58.7396 62.3216 58.3187 61.7164 58.3187 61.559C58.3187 61.1156 57.0818 61.4057 56.8568 61.902C56.7467 62.1448 56.3695 62.8992 56.0191 63.5785C55.6684 64.2579 55.3814 65.0367 55.3814 65.3091C55.3814 65.5815 55.1332 66.2174 54.8297 66.7219C54.5263 67.2265 54.1885 68.1427 54.0792 68.7582C53.9697 69.3734 53.7012 69.9457 53.4824 70.0298C53.2635 70.114 53.0039 70.5041 52.9055 70.8969C52.8071 71.29 52.56 71.6113 52.3568 71.6113C52.1535 71.6113 51.7608 71.8761 51.4841 72.1997C51.0018 72.764 50.6176 72.7882 42.1321 72.7882H33.2834L32.1707 71.5689C31.5585 70.8981 30.979 69.9548 30.8827 69.4726C30.7863 68.9901 30.7076 66.4357 30.7076 63.7959V58.996L31.5154 58.1558C31.9598 57.6935 33.078 57.0127 34.0009 56.6429L35.6788 55.9706L36.681 56.7364C37.4891 57.3537 37.7208 57.7718 37.8768 58.8931C37.9831 59.658 38.2642 60.541 38.5013 60.8549C38.7383 61.1691 38.9322 61.6561 38.9322 61.9373C38.9322 63.0163 39.742 63.3731 42.1915 63.3731C44.4133 63.3731 44.5414 63.337 44.8069 62.6376C44.9605 62.233 45.2155 61.902 45.3738 61.902C45.5321 61.902 45.7542 61.4069 45.8676 60.8017C45.981 60.1965 46.3143 59.1705 46.6087 58.5215C47.1662 57.2925 47.3151 55.546 46.9159 54.9167C46.6336 54.4712 45.3944 56.8774 45.3944 57.871C45.3944 58.7724 43.0295 61.3136 42.1903 61.3136C41.5132 61.3136 39.5197 59.9699 39.5197 59.5133C39.5197 59.3709 39.2553 58.9893 38.9322 58.6656C38.6091 58.342 38.3447 57.833 38.3447 57.5344C38.3447 57.2357 38.0803 56.7517 37.7572 56.459C37.4341 56.1662 37.1698 55.6999 37.1698 55.4233C37.1698 55.1465 36.9136 54.5939 36.6005 54.1953C36.2874 53.7966 35.9378 53.0975 35.8236 52.6418C35.7096 52.1863 35.3618 51.5588 35.0511 51.2475C34.5326 50.7282 34.4938 50.2986 34.5796 46.0145C34.6786 41.0675 34.6246 41.2714 36.2357 39.7585C36.4492 39.5582 36.8414 39.163 37.1078 38.8806C37.3739 38.5981 38.0257 38.2857 38.5559 38.1859C39.1871 38.0674 39.5197 37.8358 39.5197 37.5145C39.5197 37.245 39.7256 36.7301 39.977 36.3706C40.35 35.8366 40.716 35.7165 41.9676 35.7165C43.315 35.7165 43.5982 35.8272 44.3008 36.6295C44.7408 37.1314 45.1006 37.644 45.1006 37.7684C45.1006 37.8926 45.8925 38.0841 46.8604 38.1936C48.2492 38.351 48.6924 38.5284 48.963 39.0347C49.1515 39.3875 49.4832 39.8541 49.6999 40.0713C49.9167 40.2884 50.1129 40.7545 50.1358 41.1069C50.1585 41.4597 50.2019 42.0128 50.2325 42.3365C50.2627 42.6601 50.31 43.2227 50.3376 43.5869C50.3652 43.9511 50.5001 44.2489 50.6375 44.2489C50.7747 44.2489 50.9762 42.7799 51.0849 40.9845C51.1939 39.1889 51.4591 37.3686 51.6747 36.939C52.4484 35.3958 52.4534 34.4055 51.6941 32.9768C51.2987 32.233 50.9753 31.5763 50.9753 31.5172C50.9753 31.4583 51.413 30.9172 51.9482 30.3147C52.9049 29.2376 52.9536 29.2208 54.8791 29.292C56.7713 29.3617 56.8668 29.3308 57.7248 28.3684C58.6257 27.3578 58.7764 26.6078 58.4289 24.8672L58.2453 23.9478H55.9495C54.4549 23.9478 53.5761 24.0734 53.4313 24.3082C53.3091 24.5062 53.1123 25.3815 52.9945 26.2527C52.8641 27.2151 52.5407 28.0919 52.1711 28.4858C51.8366 28.8427 51.5628 29.287 51.5628 29.4729C51.5628 29.6592 51.2984 29.9531 50.9753 30.1264C50.6522 30.2997 50.3879 30.583 50.3879 30.7563C50.3879 30.9296 50.0906 31.4365 49.727 31.8835C49.3633 32.3301 48.9309 32.9271 48.7656 33.2098C48.3217 33.9692 44.838 34.5606 42.766 34.2284C40.2455 33.8241 39.9379 33.3048 39.683 29.0231C39.4791 25.6022 39.7758 23.0651 40.3794 23.0651C40.5169 23.0651 40.721 22.5688 40.8335 21.9618C40.9457 21.3551 41.2909 20.4457 41.6005 19.9411C41.9101 19.4365 42.1633 18.7675 42.1633 18.4544C42.1633 17.7047 43.8558 15.4154 44.4101 15.4154C44.6483 15.4154 45.476 15.2083 46.2494 14.9547C48.3182 14.2771 80.4837 14.4963 84.9018 15.2183C86.5173 15.4822 87.8723 15.7008 87.9126 15.7041C87.9528 15.707 87.986 15.8877 87.986 16.1054C87.986 16.3231 88.233 16.725 88.535 16.9989C88.8414 17.2764 89.1665 18.1002 89.2708 18.8616C89.3736 19.6128 89.6882 20.4819 89.9702 20.7938C90.4137 21.2839 90.4954 22.1416 90.5776 27.1718C90.6608 32.2548 90.612 33.0442 90.1896 33.4672C89.6744 33.9833 87.5906 34.1534 83.7268 33.9948C81.814 33.9162 81.6093 33.8415 80.7895 32.9265C80.3048 32.3857 79.5778 31.3877 79.1739 30.7092C78.7701 30.0308 78.1423 29.1516 77.7787 28.7559C77.309 28.2449 77.1178 27.6738 77.1178 26.7829C77.1178 25.7931 76.9442 25.3624 76.2939 24.7383C75.5375 24.0125 75.274 23.9478 73.0763 23.9478H70.6823L70.4873 24.9878C70.2191 26.4204 70.4999 27.574 71.3371 28.4788C71.9002 29.0875 72.3187 29.2437 73.3874 29.2437C74.8499 29.2437 76.2436 29.6674 76.5932 30.2185C76.9721 30.8149 76.8458 33.3293 76.3814 34.4429C76.0442 35.2514 76.0192 35.6012 76.2768 35.9122C76.471 36.1464 76.6904 37.9761 76.7929 40.211L76.9709 44.1018H77.7053C78.372 44.1018 78.4531 43.9653 78.5865 42.6192C78.7325 41.1452 78.9445 40.75 80.3489 39.334C81.2169 38.4587 82.1236 38.0703 83.2995 38.0703C84.0024 38.0703 84.2626 37.8599 84.7549 36.8934L85.3544 35.7165H87.2769C89.5807 35.7165 90.2249 36.0117 90.4822 37.1853C90.6658 38.0218 90.7548 38.0703 92.1115 38.0703C93.2979 38.0703 93.7265 38.2286 94.5848 38.9836C95.1558 39.4858 95.6231 40.1587 95.6231 40.4791C95.6231 40.8142 95.7791 41.0095 95.9903 40.9389C96.4109 40.7986 96.4086 40.8551 96.0881 38.5116C95.9553 37.5407 95.6507 36.5224 95.4111 36.2485C95.1717 35.9749 94.8817 34.9819 94.7669 34.0419C94.652 33.1021 94.3527 31.9358 94.1019 31.4504C93.8507 30.9649 93.5767 29.6727 93.493 28.5788C93.409 27.4849 93.1754 26.391 92.9736 26.1474C92.7718 25.904 92.5098 24.7101 92.3909 23.4941C92.2569 22.1248 91.9929 21.0824 91.6968 20.7546C91.4142 20.4419 91.1472 19.453 91.0438 18.3353C90.8499 16.2387 90.1032 14.0326 89.5099 13.8034C89.0232 13.6154 51.334 13.398 45.9372 13.5518ZM46.7432 19.7766C46.5073 20.2333 46.1211 20.7676 45.8852 20.9638C45.649 21.1601 45.3685 21.7864 45.2619 22.3555C45.1556 22.9245 44.8771 23.4638 44.6439 23.5535C44.3081 23.6824 44.2194 24.4174 44.2194 27.0686C44.2194 28.9121 44.3105 30.4206 44.4215 30.4206C45.0008 30.4206 46.6286 28.966 47.056 28.0668C47.3251 27.5005 47.7278 26.9023 47.951 26.7376C48.174 26.5731 48.4839 25.5392 48.6393 24.4406C48.7944 23.3417 49.1227 22.0533 49.3686 21.577L49.8154 20.7114H55.6172C62.2701 20.7114 62.5462 20.7926 62.8707 22.8427C62.9794 23.5315 63.3316 24.6536 63.653 25.3365L64.2372 26.5781L63.4077 28.086C62.9512 28.9151 62.1482 30.0705 61.6232 30.653C60.6345 31.7502 60.2453 32.9041 61.1048 32.1894C61.3938 31.9494 62.2768 31.864 63.722 31.9373C65.8093 32.0429 65.9485 32.0959 66.9575 33.1674C67.5931 33.8427 68.012 34.582 68.012 35.029C68.012 35.437 68.2764 36.1076 68.5995 36.5189C68.9226 36.9305 69.1869 37.5622 69.1869 37.9232C69.1869 38.2842 69.4346 38.895 69.7371 39.281C70.0399 39.667 70.3754 40.6447 70.4829 41.4538C70.69 43.0158 70.3184 45.6709 69.8493 45.9777C69.6951 46.0786 69.4225 46.4394 69.2442 46.7792C68.8098 47.6062 65.6301 48.6622 63.5739 48.6622C62.6907 48.6622 61.2969 48.4256 60.4768 48.1361C58.9426 47.5951 57.1438 46.1646 57.1438 45.4858C57.1438 45.2748 56.9294 44.6867 56.667 44.1789C56.2861 43.4413 56.2605 43.1426 56.5402 42.6945C56.7326 42.3859 57.0084 41.4038 57.1535 40.5123C57.2983 39.6205 57.5867 38.687 57.7944 38.4378C58.3622 37.7552 58.8956 35.1564 58.5161 34.9213C58.3457 34.8159 58.1466 34.9095 58.0735 35.1293C58.0003 35.3491 57.629 35.8178 57.2484 36.1714C56.8677 36.5248 56.5554 36.9973 56.5543 37.2215C56.5534 37.4457 56.3016 38.0103 55.995 38.476C55.5185 39.1995 55.4319 39.9301 55.4011 43.4777L55.3652 47.6324L56.306 48.5151L57.2472 49.3977H63.878H70.5087L71.3899 48.5586L72.2712 47.7195L72.1792 42.729C72.0967 38.2577 72.0279 37.6796 71.5183 37.1691C71.2052 36.8555 70.9493 36.3785 70.9493 36.109C70.9493 35.8395 70.7481 35.4091 70.502 35.1528C69.7057 34.3231 68.3057 32.4063 68.3057 32.1453C68.3057 32.0059 68.1042 31.6601 67.8578 31.3768C66.3395 29.6318 65.9558 29.1275 65.9558 28.8774C65.9558 28.7233 65.7426 28.1469 65.4818 27.5964C65.0456 26.6755 65.0456 26.516 65.4818 25.5951C65.7426 25.0446 65.9558 24.2682 65.9558 23.8695C65.9558 23.4709 66.1976 22.8289 66.4934 22.4429C66.7889 22.0568 67.1096 21.524 67.206 21.2589C67.3549 20.8485 68.0293 20.7608 71.7354 20.6705C74.1302 20.6119 77.027 20.6075 78.1726 20.6602L80.2555 20.7561L80.7011 21.8371C80.9461 22.4317 81.3167 23.8448 81.5247 24.9776C81.7327 26.1103 82.148 27.3528 82.4476 27.7388C82.7472 28.1248 82.9925 28.5729 82.9925 28.7347C82.9925 29.2823 84.4867 30.4206 85.2049 30.4206C86.1851 30.4206 86.3487 29.5712 86.1249 25.651C85.9766 23.0557 85.8271 22.2916 85.3483 21.6817C85.0219 21.2663 84.7549 20.7484 84.7549 20.5313C84.7549 20.3142 84.4027 19.9055 83.9724 19.6231C83.2924 19.1767 82.2018 19.0943 75.6353 18.9934C68.5724 18.8849 68.0431 18.9131 67.5029 19.4265C66.108 20.7529 65.6119 21.0056 64.4017 21.0056C63.3492 21.0056 62.9921 20.8402 62.1781 19.9758L61.2085 18.9461H54.19H47.1718L46.7432 19.7766ZM59.0921 33.8085C58.8339 34.4826 58.8601 34.8339 59.1685 34.8339C59.5624 34.8339 59.8453 33.8915 59.5424 33.5882C59.3856 33.4311 59.2023 33.5208 59.0921 33.8085ZM62.7553 37.629C62.5723 38.3572 62.3038 38.953 62.1587 38.953C61.4963 38.953 61.2296 43.8655 61.87 44.2715C62.4301 44.6267 64.2701 44.6114 65.2362 44.2433C65.999 43.9529 66.0199 43.8832 65.9012 42.0164C65.8337 40.9566 65.621 39.9921 65.4283 39.8727C65.2359 39.7535 64.9592 39.0177 64.8138 38.2377C64.3852 35.9399 63.2635 35.6083 62.7553 37.629ZM96.5913 45.6835C96.6142 49.6884 96.5325 50.7835 96.168 51.3472C95.9195 51.7315 95.6208 52.4323 95.5045 52.9051C95.3881 53.3779 95.0368 54.0908 94.7237 54.4895C94.4106 54.8882 94.1544 55.3748 94.1544 55.571C94.1544 55.7673 93.8901 56.233 93.567 56.6061C93.2439 56.9792 92.9795 57.5085 92.9795 57.7824C92.9795 58.0563 92.7151 58.52 92.392 58.8127C92.0689 59.1055 91.8046 59.5103 91.8046 59.7119C91.8046 60.2088 89.8821 61.3136 89.0176 61.3136C88.1061 61.3136 86.2991 60.1503 86.0471 59.4012C85.9381 59.0775 85.6029 58.497 85.3019 58.111C84.9799 57.6979 84.7549 56.9336 84.7549 56.2527C84.7549 54.8049 84.3175 53.9581 83.5697 53.9581C83.0571 53.9581 82.9925 54.1653 82.9925 55.8049C82.9925 57.0477 83.1517 57.8795 83.4786 58.3473C83.7462 58.7298 84.0726 59.6198 84.2042 60.325C84.3358 61.0306 84.7449 62.0165 85.1133 62.5164L85.783 63.4252L88.33 63.3255C90.5447 63.239 90.9756 63.1331 91.6345 62.5128C92.051 62.1204 92.392 61.574 92.392 61.2983C92.392 61.0226 92.5894 60.6331 92.8306 60.4327C93.0717 60.2324 93.404 59.5659 93.569 58.9522C94.014 57.2972 95.3294 56.0177 96.5863 56.0177C97.1479 56.0177 97.7604 56.2024 97.9475 56.4281C98.1346 56.6541 98.7206 56.92 99.2496 57.0195C99.9369 57.1486 100.302 57.4305 100.53 58.0066L100.848 58.8127L100.879 57.8462C100.896 57.3146 100.72 56.5864 100.487 56.228C100.254 55.8697 99.9366 54.5171 99.7821 53.2226C99.6273 51.928 99.2951 50.3392 99.0437 49.692C98.7919 49.0447 98.5805 47.9561 98.5734 47.2726C98.5664 46.5891 98.3023 45.4637 97.9868 44.7717C97.6716 44.0797 97.333 42.8846 97.2346 42.1158C96.8645 39.223 96.5637 40.891 96.5913 45.6835ZM39.9138 42.6878C39.3801 42.7919 39.2479 43.085 39.0799 44.5355C38.8273 46.7159 39.1686 50.0135 39.6921 50.4487C39.9118 50.6314 40.1803 51.264 40.2887 51.8545C40.3973 52.4453 40.7313 53.2441 41.0309 53.6301C41.3305 54.0161 41.5758 54.5204 41.5758 54.7508C41.5758 54.9811 41.708 55.0879 41.8695 54.9879C42.0311 54.8879 42.1633 53.8254 42.1633 52.6271C42.1633 50.6093 42.2308 50.371 43.075 49.408C44.4356 47.8554 45.7404 47.9405 48.1282 49.7367C50.6017 51.5976 51.3951 53.2238 51.4071 56.459C51.4139 58.2378 51.2905 58.9905 50.9019 59.5403C50.619 59.9402 50.3879 60.6175 50.3879 61.0453C50.3879 61.4728 50.1408 62.1383 49.8386 62.5243C49.5366 62.9103 49.1956 63.6562 49.081 64.1822C48.9662 64.7083 48.7479 65.1385 48.5958 65.1385C48.4436 65.1385 48.1687 65.4695 47.9845 65.874C47.8006 66.2786 47.5163 66.6096 47.353 66.6096C47.1897 66.6096 46.8017 66.8402 46.4903 67.1224C45.9998 67.5669 45.4099 67.6222 42.0611 67.5378C39.7808 67.4804 38.0345 67.3051 37.7992 67.11C37.5801 66.9282 37.1175 66.6401 36.7712 66.4698C36.4251 66.2991 36.0154 65.7319 35.8609 65.2088C35.6832 64.6062 35.4141 64.2843 35.1265 64.3302C34.7885 64.3844 34.6245 64.0287 34.4824 62.9318L34.2915 61.4607L34.3778 62.9318C34.4721 64.54 35.22 67.9903 35.5448 68.3172C35.838 68.612 43.6005 68.7571 46.7253 68.5258L49.3777 68.3296L50.1834 66.6604C50.6264 65.7425 50.9868 64.7265 50.9841 64.4029C50.9815 64.0793 51.2418 63.4173 51.5628 62.9318C51.8839 62.4464 52.1473 61.7029 52.1482 61.2798C52.1494 60.8567 52.3944 60.1947 52.6928 59.8087C52.9912 59.4227 53.317 58.5774 53.4172 57.9301C53.6777 56.2433 55.5124 54.5466 57.0753 54.5466C58.3287 54.5466 60.0709 55.6269 60.443 56.6349C60.7059 57.3469 61.2561 57.1086 61.2561 56.2825C61.2561 55.9621 61.536 55.3204 61.8782 54.857C62.2204 54.3933 62.4108 53.869 62.3015 53.6919C62.1778 53.4915 60.9162 53.3679 58.9623 53.3653C57.2052 53.3629 55.369 53.1987 54.7939 52.9928C53.5916 52.5626 52.1503 51.2875 52.1503 50.654C52.1503 49.6658 50.9877 48.6996 49.5719 48.5118C48.809 48.4103 47.9205 48.2164 47.5974 48.0802C47.2743 47.9443 46.7981 47.7663 46.5393 47.6851C46.0664 47.5365 45.6881 45.81 45.6881 43.8008C45.6881 43.0597 45.5403 42.8066 45.0272 42.6689C44.3078 42.4759 40.9337 42.4883 39.9138 42.6878ZM82.9884 44.3225C82.9863 45.1719 82.9061 46.1604 82.8101 46.5188C82.5513 47.4853 80.862 48.3365 78.7968 48.5407C77.7925 48.6401 76.9242 48.8484 76.8672 49.0038C76.7204 49.403 75.5701 50.6982 74.2039 52.0025C73.6626 52.5197 70.2147 53.3632 68.5995 53.3738C67.3076 53.3823 66.9954 53.7719 67.5729 54.6545C68.0702 55.4148 68.0751 56.7247 67.5846 57.8565C67.4248 58.2261 67.495 58.3714 67.8337 58.3714C68.0934 58.3714 68.3057 58.2458 68.3057 58.0925C68.3057 57.7998 69.2005 56.7208 70.5754 55.356C72.1678 53.7751 74.9829 54.7755 75.4849 57.1007C75.596 57.6153 75.863 58.1828 76.078 58.3617C76.293 58.5403 76.56 59.1785 76.6713 59.7795C76.7826 60.3806 77.0664 61.0876 77.302 61.3507C77.5375 61.6137 77.8087 62.3419 77.9044 62.9689C78.0002 63.5959 78.2457 64.3073 78.4502 64.55C78.6546 64.7927 78.9507 65.4671 79.1084 66.0488C79.2662 66.6304 79.6389 67.3916 79.9374 67.7405C80.467 68.3602 80.6573 68.3749 88.1849 68.3749H95.8901L96.0702 67.2715C96.1689 66.6649 96.4482 65.6966 96.6906 65.1205C96.9379 64.5321 97.0859 63.5 97.0284 62.7668C96.9461 61.7243 96.8739 61.5796 96.6703 62.0492C96.5299 62.3728 96.2547 62.8362 96.0584 63.0789C95.8625 63.3217 95.6084 63.9174 95.4939 64.4029C95.1887 65.6972 94.2141 66.6096 93.137 66.6096C92.6335 66.6096 91.4606 66.8081 90.5301 67.0509C88.1211 67.6793 84.6195 67.6181 83.0853 66.9205C81.7697 66.3221 80.9364 65.1152 80.9364 63.808C80.9364 63.384 80.7384 62.8385 80.4963 62.5961C80.254 62.3534 79.9847 61.8002 79.8974 61.3666C79.8105 60.9329 79.4797 60.0885 79.1628 59.49C78.3142 57.888 78.3218 53.1125 79.1739 52.3399C79.4971 52.0472 79.7614 51.6541 79.7614 51.4667C79.7614 51.0607 81.2865 49.5448 81.6948 49.5448C81.8522 49.5448 82.2071 49.28 82.4838 48.9564C82.8912 48.4798 83.3503 48.368 84.8988 48.368C87.5815 48.368 87.9766 48.8061 88.0154 51.825C88.0521 54.6887 88.2871 55.5763 89.0088 55.5763C89.3974 55.5763 89.6439 55.2668 89.8292 54.5466C89.9752 53.9802 90.2657 53.4194 90.4748 53.3006C90.684 53.1817 90.9422 52.5044 91.0482 51.7956C91.1542 51.0868 91.4298 50.2574 91.6603 49.9523C92.2804 49.1321 92.254 44.466 91.6239 43.5031C91.1575 42.7899 91.0817 42.7778 87.071 42.7778H82.9925L82.9884 44.3225ZM61.5498 58.3411C61.5498 58.6483 61.9096 59.3103 62.3497 59.8122C63.027 60.5857 63.3528 60.7237 64.4792 60.7146C66.098 60.7016 67.6372 59.6454 67.3044 58.776C67.1716 58.4303 67.0268 58.3564 66.8946 58.5674C66.7821 58.7468 66.2052 59.0958 65.6128 59.3432C64.6099 59.7613 64.4519 59.7513 63.3363 59.1982C62.6769 58.8716 62.1373 58.4194 62.1373 58.1934C62.1373 57.9677 62.0051 57.783 61.8436 57.783C61.682 57.783 61.5498 58.0342 61.5498 58.3411Z" fill="black"/>
</svg>
