<svg width="132" height="88" viewBox="0 0 132 88" fill="none" xmlns="http://www.w3.org/2000/svg">
<path d="M40.4531 54.6441V68.0996C40.6031 74.8723 46.0865 80.4859 52.8612 80.4975C60.0712 80.51 66.2094 80.5151 71.4733 80.4851C82.4474 80.4224 91.5449 71.5396 91.5449 60.4132C91.5449 47.8236 73.7267 34.1371 64.1755 34.1371C58.6409 34.1371 54.3207 38.7537 54.3207 43.9906C54.3207 49.5925 59.1165 53.8441 64.1755 53.8441C75.4496 53.8441 91.5449 38.6135 91.5449 27.5681C91.5449 16.5226 82.5389 7.49609 71.4733 7.49609H52.8612C45.878 7.49609 40.5446 13.225 40.4531 19.9042V32.7474" stroke="#FAAA00" stroke-width="7.30018" stroke-miterlimit="1.5" stroke-linecap="round" stroke-linejoin="round"/>
</svg>
