<svg width="132" height="88" viewBox="0 0 132 88" fill="none" xmlns="http://www.w3.org/2000/svg">
<path d="M57.0371 30.4575H69.5624V25.2997H57.0371V30.4575ZM69.5624 41.3096H54.7598V46.4677H69.5624V41.3096ZM74.9694 35.8836C74.9694 38.8766 72.5525 41.3096 69.5624 41.3096V46.4677C75.3765 46.4677 80.0969 41.7329 80.0969 35.8836H74.9694ZM69.5624 30.4575C72.5525 30.4575 74.9694 32.8907 74.9694 35.8836H80.0969C80.0969 30.0344 75.3765 25.2997 69.5624 25.2997V30.4575ZM69.5624 57.3198H57.0371V62.4776H69.5624V57.3198ZM74.9694 51.8937C74.9694 54.8866 72.5525 57.3198 69.5624 57.3198V62.4776C75.3765 62.4776 80.0969 57.7429 80.0969 51.8937H74.9694ZM69.5624 46.4677C72.5525 46.4677 74.9694 48.9007 74.9694 51.8937H80.0969C80.0969 46.0444 75.3765 41.3096 69.5624 41.3096V46.4677ZM52.196 30.1658V43.8886H57.3236V30.1658H52.196ZM52.196 43.8886V57.6115H57.3236V43.8886H52.196ZM57.0371 57.3198C57.1914 57.3198 57.3236 57.4467 57.3236 57.6115H52.196C52.196 60.3027 54.3673 62.4776 57.0371 62.4776V57.3198ZM57.0371 25.2997C54.3673 25.2997 52.196 27.4746 52.196 30.1658H57.3236C57.3236 30.3306 57.1914 30.4575 57.0371 30.4575V25.2997Z" fill="black" fill-opacity="0.9025"/>
<path fill-rule="evenodd" clip-rule="evenodd" d="M40.0242 12.4559C37.7048 12.4559 35.8246 14.3389 35.8246 16.6618V71.3382C35.8246 73.6611 37.7048 75.5441 40.0242 75.5441H91.9758C94.2951 75.5441 96.1754 73.6611 96.1754 71.3382V16.6618C96.1754 14.3389 94.2951 12.4559 91.9758 12.4559H40.0242ZM31.625 16.6618C31.625 12.0161 35.3855 8.25 40.0242 8.25H91.9758C96.6145 8.25 100.375 12.0161 100.375 16.6618V71.3382C100.375 75.9839 96.6145 79.75 91.9758 79.75H40.0242C35.3855 79.75 31.625 75.9839 31.625 71.3382V16.6618Z" fill="black" fill-opacity="0.9025"/>
</svg>
