<svg width="132" height="88" viewBox="0 0 132 88" fill="none" xmlns="http://www.w3.org/2000/svg">
<mask id="mask0_2056_25589" style="mask-type:alpha" maskUnits="userSpaceOnUse" x="34" y="12" width="64" height="64">
<path d="M97.9852 12.0156H34.0156V75.9852H97.9852V12.0156Z" fill="#C4C4C4"/>
</mask>
<g mask="url(#mask0_2056_25589)">
<path d="M102.264 12.4288L97.6669 7.83203L29.6641 75.8349L34.2609 80.4316L102.264 12.4288Z" fill="#483439"/>
<path d="M114.613 21.6125L110.016 17.0156L42.0137 85.0184L46.6105 89.6153L114.613 21.6125Z" fill="#483439"/>
<path d="M94.6231 -1.37582L90.0262 -5.97266L22.0234 62.0303L26.6203 66.6269L94.6231 -1.37582Z" fill="#483439"/>
<path d="M83.6289 -11.3719L79.032 -15.9688L11.0293 52.0341L15.6261 56.631L83.6289 -11.3719Z" fill="#483439"/>
<path d="M76.631 -26.3641L72.0341 -30.9609L4.03125 37.0418L8.6281 41.6387L76.631 -26.3641Z" fill="#483439"/>
<path d="M129.606 27.6125L125.009 23.0156L57.0059 91.0184L61.6028 95.6153L129.606 27.6125Z" fill="#483439"/>
<path d="M141.6 37.6044L137.003 33.0078L69 101.011L73.5969 105.607L141.6 37.6044Z" fill="#483439"/>
</g>
</svg>
