<svg width="132" height="88" viewBox="0 0 132 88" fill="none" xmlns="http://www.w3.org/2000/svg">
<path fill-rule="evenodd" clip-rule="evenodd" d="M35.5137 20.0125C35.5137 16.4244 38.4223 13.5156 42.0106 13.5156H89.9877C93.5762 13.5156 96.4849 16.4243 96.4849 20.0125V67.9899C96.4849 71.5781 93.5762 74.4868 89.9877 74.4868H42.0106C38.4223 74.4868 35.5137 71.5781 35.5137 67.9899V20.0125ZM42.0106 18.5133C41.183 18.5133 40.5113 19.1845 40.5113 20.0125V67.9899C40.5113 68.8174 41.183 69.489 42.0106 69.489H89.9877C90.8155 69.489 91.487 68.8174 91.487 67.9899V20.0125C91.487 19.1845 90.8155 18.5133 89.9877 18.5133H42.0106Z" fill="#080808"/>
<path fill-rule="evenodd" clip-rule="evenodd" d="M51.5064 30.0078C51.5064 27.5237 53.5205 25.5099 56.0043 25.5099H69.5978C75.4991 25.5099 80.4925 30.0952 80.4925 36.005C80.4925 39.2494 78.9874 42.0946 76.6535 44.0011C78.9874 45.9074 80.4925 48.7529 80.4925 51.9973C80.4925 57.9071 75.4991 62.4924 69.5978 62.4924H56.0043C53.5205 62.4924 51.5064 60.4783 51.5064 57.9945V30.0078ZM56.504 46.4998V57.4946H69.5978C72.9713 57.4946 75.4949 54.9197 75.4949 51.9973C75.4949 49.0746 72.9713 46.4998 69.5978 46.4998H56.504ZM69.5978 41.5022C72.9713 41.5022 75.4949 38.9274 75.4949 36.005C75.4949 33.0823 72.9713 30.5074 69.5978 30.5074H56.504V41.5022H69.5978Z" fill="#080808"/>
</svg>
