<svg width="132" height="88" viewBox="0 0 132 88" fill="none" xmlns="http://www.w3.org/2000/svg">
<path fill-rule="evenodd" clip-rule="evenodd" d="M115.604 58.7461V29.2578H84.8541V58.7461H115.604ZM108.596 37.7265C106.228 36.3653 103.858 35.6596 101.64 35.6596C99.2714 35.6596 97.3045 36.4157 95.7926 37.928C94.23 39.3899 93.4242 41.2044 93.4242 43.4728C93.4242 45.64 94.23 47.5049 95.7427 49.0182C97.3556 50.4287 99.2714 51.135 101.59 51.135C104.06 51.135 106.48 50.3789 108.849 48.866V52.0423C106.63 53.2518 104.16 53.8568 101.438 53.8568C99.1197 53.8568 97.2039 53.4034 95.5902 52.4962C94.046 51.5558 92.75 50.2592 91.8101 48.7149C90.9029 47.0022 90.3984 45.2879 90.3984 43.4728C90.3984 40.4483 91.4568 37.9784 93.6245 35.9618C95.7423 33.9453 98.3638 32.8869 101.438 32.8869C103.656 32.8869 106.025 33.4415 108.596 34.6006V37.7265H108.596ZM81.4272 29.2578H50.6777V58.7461H81.4272V29.2578ZM60.1039 33.643H65.4474C67.1613 33.643 68.4724 33.8445 69.4291 34.2984C70.3874 34.8027 71.0926 35.4071 71.5469 36.1638C72.0501 36.9703 72.3032 37.8776 72.3032 38.936C72.3032 40.952 71.2946 42.3636 69.1772 43.221C70.6895 43.4728 71.8989 44.0779 72.7566 45.0858C73.6127 45.9931 74.0166 47.1528 74.0665 48.4631C74.0166 49.4716 73.7644 50.4287 73.2607 51.2358C72.7055 52.0423 71.9496 52.6982 70.8911 53.2523C69.8326 53.7566 68.5722 54.0084 67.0096 54.0084H60.1039V33.643Z" fill="black"/>
<path fill-rule="evenodd" clip-rule="evenodd" d="M64.9422 42.3641C66.5044 42.3641 67.6135 42.0618 68.2689 41.5072C68.9243 40.8518 69.2763 40.0957 69.2763 39.138C69.2763 37.2228 68.0171 36.2142 65.5465 36.2142H63.0268V42.3641H64.9422ZM65.7484 44.9851H63.0268V51.3863H65.9504C67.311 51.3863 68.4206 51.2861 69.1258 51.0841C69.7812 50.731 70.235 50.328 70.5371 49.8746C70.8397 49.3703 71.0417 48.8162 71.0417 48.2112C70.9906 47.6062 70.8397 47.051 70.4865 46.5478C70.1843 45.9926 69.6802 45.5896 68.9742 45.3372C68.3196 45.0859 67.2104 44.9347 65.7484 44.9851ZM47.1478 29.2578H16.3984V58.7461H47.1478V29.2578ZM25.7749 54.0079V33.643H31.1183C32.832 33.643 34.0924 33.8445 35.0501 34.2984C36.0077 34.7518 36.7639 35.4071 37.2178 36.2137C37.7215 36.9698 37.9739 37.8771 38.0243 38.9355C37.9739 40.9515 36.9659 42.363 34.8486 43.2703C36.4113 43.5227 37.5704 44.1272 38.4278 45.0848C39.2847 45.9921 39.7386 47.1517 39.7386 48.462C39.7386 49.5204 39.4867 50.4785 38.9321 51.2347C38.3774 52.091 37.6213 52.747 36.6133 53.2512C35.5549 53.7555 34.2441 54.0074 32.6815 54.0074H25.7749V54.0079Z" fill="black"/>
<path fill-rule="evenodd" clip-rule="evenodd" d="M31.2195 36.2148H28.6992V42.3647H30.6649C32.1771 42.3647 33.2859 42.0625 33.9418 41.5079C34.5967 40.9028 34.9498 40.0963 34.9498 39.1891C34.9493 37.2229 33.6894 36.2148 31.2195 36.2148ZM31.421 44.9858H28.6992V51.387H31.5721C33.0844 51.387 34.1931 51.2868 34.8485 51.0847C35.4032 50.8329 35.8566 50.4797 36.2092 49.9755C36.5119 49.4213 36.6631 48.8662 36.7135 48.2118C36.6631 47.5056 36.461 46.9514 36.1588 46.5484C35.813 45.9903 35.2752 45.5777 34.6465 45.3882C33.9413 45.0865 32.8325 44.9858 31.421 44.9858Z" fill="black"/>
</svg>
