<svg width="132" height="88" viewBox="0 0 132 88" fill="none" xmlns="http://www.w3.org/2000/svg">
<path d="M28 6H104V82H28V6Z" fill="#EC3B3B"/>
<path d="M43.4815 68.6296L51.6806 18.6667H73.0947C76.8566 18.6667 79.9353 19.179 82.3307 20.2036C84.7422 21.2282 86.4463 22.6757 87.4431 24.5461C88.4559 26.4165 88.7534 28.6202 88.3354 31.1574C88.0138 32.979 87.3225 34.646 86.2615 36.1586C85.2165 37.6549 83.8902 38.9235 82.2825 39.9644C80.6909 40.989 78.9144 41.6965 76.9531 42.0868L76.8566 42.5747C78.9787 42.6398 80.8276 43.1765 82.4031 44.1849C83.9786 45.177 85.1361 46.5594 85.8756 48.3322C86.6152 50.0887 86.792 52.1379 86.4062 54.48C85.956 57.2123 84.8548 59.6438 83.1024 61.7744C81.35 63.9049 79.0752 65.5801 76.2779 66.7999C73.4805 68.0197 70.2973 68.6296 66.7283 68.6296H43.4815ZM58.7222 57.7978H64.992C67.2106 57.7978 68.9549 57.3668 70.225 56.5048C71.5111 55.6428 72.2748 54.3824 72.5159 52.7235C72.7088 51.5524 72.6124 50.5603 72.2265 49.7471C71.8407 48.9339 71.1896 48.3159 70.2732 47.893C69.3569 47.4702 68.2074 47.2588 66.8248 47.2588H60.362L58.7222 57.7978ZM61.8089 38.8665H67.3071C68.4646 38.8665 69.5257 38.6795 70.4903 38.3054C71.4549 37.9314 72.2507 37.3865 72.8776 36.6709C73.5046 35.9553 73.8985 35.0933 74.0593 34.0849C74.3004 32.5236 73.9307 31.3363 72.95 30.5231C71.9854 29.7099 70.6832 29.3033 69.0434 29.3033H63.3522L61.8089 38.8665Z" fill="white"/>
</svg>
