<svg width="132" height="88" viewBox="0 0 132 88" fill="none" xmlns="http://www.w3.org/2000/svg">
<path d="M102.747 33.2992C103.288 35.138 103.694 37.0348 103.951 38.9778C103.059 39.5291 101.818 39.8862 100.243 39.8862H95.0789V33.0093H100.424C101.315 33.0093 102.089 33.1148 102.747 33.2992Z" fill="#CE2027"/>
<path d="M60.6482 55.9195H54.759V48.258H60.8291C69.1511 48.258 68.3157 55.9195 60.6482 55.9195Z" fill="#CE2027"/>
<path d="M59.9235 39.8862H54.759V33.0093H60.1044C67.3058 33.0093 66.8365 39.8862 59.9235 39.8862Z" fill="#CE2027"/>
<path fill-rule="evenodd" clip-rule="evenodd" d="M98.8568 24.4571H82.4864V64.6286H98.1768C91.3819 75.0828 79.5726 82 66.1405 82C45.0759 82 28 64.9869 28 44C28 23.0131 45.0759 6 66.1405 6C80.0313 6 92.1886 13.3988 98.8568 24.4571ZM42.1665 24.4571V64.6286H63.9993C67.3675 64.6286 70.2663 64.1382 72.6969 63.1575C75.1275 62.1767 77.0005 60.8299 78.3137 59.1168C79.6429 57.4036 80.3069 55.4488 80.3069 53.2519C80.3069 51.3559 79.8238 49.7082 78.8575 48.3089C78.3531 47.5715 77.7582 46.9179 77.0729 46.348C76.445 45.8266 75.7416 45.3752 74.9615 44.994C73.3312 44.1832 71.5189 43.5491 69.5257 43.4837C71.3231 43.1698 72.8927 42.4115 74.2368 41.6006C75.5809 40.7768 76.6227 39.7568 77.3623 38.5407C78.1179 37.3246 78.4946 35.9777 78.4946 34.5C78.4946 33.2958 78.2797 32.1846 77.8476 31.1673C77.5486 30.4614 77.1452 29.8004 76.6376 29.1843C75.4149 27.6806 73.5951 26.5167 71.1794 25.6929C68.7786 24.8691 65.8116 24.4571 62.2785 24.4571H42.1665Z" fill="#CE2027"/>
<path d="M104 48.632C103.698 51.1107 103.156 53.5159 102.398 55.8236C101.951 55.8861 101.475 55.9195 100.968 55.9195H95.0789V48.258H101.149C102.261 48.258 103.209 48.3948 104 48.632Z" fill="#CE2027"/>
</svg>
