<svg width="132" height="88" viewBox="0 0 132 88" fill="none" xmlns="http://www.w3.org/2000/svg">
<g opacity="0.8">
<path opacity="0.8" fill-rule="evenodd" clip-rule="evenodd" d="M75.7347 28.2857V52.7117L51.8574 28.7744C59.4459 25.4928 68.0184 25.3173 75.7347 28.2857Z" fill="#FFA101"/>
<path opacity="0.8" fill-rule="evenodd" clip-rule="evenodd" d="M88.6971 43.2201L73.0762 58.9011L73.1533 28.2422C80.0992 31.0019 85.6818 36.3814 88.6971 43.2201Z" fill="#F7ED00"/>
<path opacity="0.8" fill-rule="evenodd" clip-rule="evenodd" d="M92.5304 51.39C92.5304 55.2652 91.8188 59.1061 90.4213 62.7327H66.0039L89.9412 38.8555C91.6559 42.7993 92.539 47.0775 92.5304 51.39Z" fill="#B5DD01"/>
<path opacity="0.8" fill-rule="evenodd" clip-rule="evenodd" d="M90.4648 60.4436C87.7101 67.3889 82.3374 72.9742 75.504 75.996L59.8145 60.375L90.4648 60.4436Z" fill="#60C660"/>
<path opacity="0.8" fill-rule="evenodd" clip-rule="evenodd" d="M79.5582 77.2342C71.9736 80.5171 63.4042 80.6957 55.6895 77.7314V53.2969L79.5582 77.2342Z" fill="#668FD1"/>
<path opacity="0.8" fill-rule="evenodd" clip-rule="evenodd" d="M57.7484 47.1055L57.6798 77.7644C50.7419 75.0089 45.1633 69.6395 42.1445 62.8122L57.7655 47.1226L57.7484 47.1055Z" fill="#9869BC"/>
<path opacity="0.8" fill-rule="evenodd" clip-rule="evenodd" d="M65.1208 42.9805L41.2006 66.8577C37.908 59.2717 37.7325 50.6948 40.712 42.9805H65.1208Z" fill="#D35F99"/>
<path opacity="0.8" fill-rule="evenodd" clip-rule="evenodd" d="M71.6016 45.3397H40.9512C43.7104 38.3667 49.0986 32.7567 55.9549 29.7188L71.6016 45.3397Z" fill="#E54838"/>
</g>
<path fill-rule="evenodd" clip-rule="evenodd" d="M65.9991 27.9364C52.3378 27.9364 41.243 39.0779 41.243 52.8468C41.243 66.6156 52.3378 77.7571 65.9991 77.7571C79.6603 77.7571 90.7551 66.6156 90.7551 52.8468C90.7551 39.0779 79.6603 27.9364 65.9991 27.9364ZM37.1191 52.8468C37.1191 36.8227 50.038 23.8125 65.9991 23.8125C81.9602 23.8125 94.879 36.8227 94.879 52.8468C94.879 68.8708 81.9602 81.881 65.9991 81.881C50.038 81.881 37.1191 68.8708 37.1191 52.8468Z" fill="#353F4F"/>
<path fill-rule="evenodd" clip-rule="evenodd" d="M37.1191 6.12109H40.66V53.9014H37.1191V6.12109Z" fill="#353F4F"/>
</svg>
