<svg width="132" height="88" viewBox="0 0 132 88" fill="none" xmlns="http://www.w3.org/2000/svg">
<path d="M66 77C84.2254 77 99 62.2254 99 44C99 25.7746 84.2254 11 66 11C47.7746 11 33 25.7746 33 44C33 62.2254 47.7746 77 66 77Z" fill="#1769FF"/>
<path d="M56.3137 29.047C57.7367 29.047 59.0356 29.1737 60.2104 29.4245C61.3852 29.6753 62.3884 30.0872 63.2253 30.66C64.0621 31.2329 64.7116 31.9932 65.1736 32.9436C65.6356 33.8941 65.8653 35.0662 65.8653 36.4628C65.8653 37.9702 65.5221 39.2269 64.8383 40.2327C64.1545 41.2385 63.1408 42.0622 61.8023 42.7037C63.645 43.2344 65.0205 44.1637 65.9286 45.4889C66.8368 46.8142 67.2909 48.414 67.2909 50.2858C67.2909 51.7932 66.9978 53.1001 66.4117 54.2036C65.8257 55.3071 65.0363 56.2073 64.0437 56.9043C63.051 57.6039 61.9211 58.1187 60.6513 58.454C59.3735 58.7892 58.0561 58.9582 56.7361 58.9556H42.2399V29.047H56.3137ZM55.4769 41.1514C56.649 41.1514 57.6126 40.8716 58.3677 40.3145C59.1227 39.7549 59.5002 38.8493 59.4976 37.5927C59.4976 36.8957 59.3709 36.3229 59.1201 35.8767C58.8693 35.4305 58.534 35.0794 58.1142 34.8286C57.6945 34.5778 57.214 34.4036 56.6701 34.3059C56.1105 34.2082 55.5429 34.1581 54.9726 34.1607H48.8188V41.1567L55.4769 41.1514ZM55.8544 53.8419C56.4748 53.8445 57.0925 53.7812 57.6971 53.6544C58.2832 53.5277 58.8006 53.3192 59.2468 53.0261C59.6929 52.7331 60.0493 52.3344 60.316 51.8329C60.58 51.3313 60.7146 50.6871 60.7146 49.9056C60.7146 48.3718 60.2817 47.2736 59.4157 46.6189C58.5498 45.9615 57.4041 45.6341 55.9811 45.6341H48.8188V53.8445L55.8544 53.8419ZM75.5646 53.2136C76.4569 54.0795 77.7426 54.5124 79.419 54.5124C80.6202 54.5124 81.6525 54.2115 82.5184 53.6122C83.3843 53.0129 83.9149 52.3767 84.1103 51.7061H89.3454C88.5085 54.3039 87.2229 56.1598 85.491 57.2765C83.7592 58.3932 81.6657 58.9529 79.2078 58.9529C77.505 58.9529 75.9685 58.681 74.601 58.1372C73.2335 57.5933 72.0745 56.8172 71.1241 55.8113C70.1737 54.8055 69.4398 53.6069 68.925 52.2104C68.4102 50.8138 68.1515 49.2773 68.1515 47.6036C68.1515 45.9853 68.4155 44.4778 68.9461 43.0812C69.4768 41.6847 70.2318 40.4782 71.2086 39.4592C72.1854 38.4401 73.3523 37.6376 74.7066 37.0515C76.0609 36.4654 77.5631 36.1724 79.2105 36.1724C81.0532 36.1724 82.6583 36.5288 84.0285 37.2416C85.396 37.9544 86.5206 38.91 87.3997 40.1112C88.2789 41.3124 88.9151 42.68 89.3058 44.2164C89.6965 45.7529 89.8365 47.358 89.7256 49.0345H74.1021C74.1839 50.9537 74.6723 52.3503 75.5646 53.2136ZM82.2887 41.822C81.5759 41.0405 80.4935 40.6498 79.0415 40.6498C78.0911 40.6498 77.3017 40.8109 76.6761 41.1303C76.0477 41.4524 75.5461 41.8484 75.1686 42.3236C74.7911 42.7988 74.5271 43.3004 74.374 43.831C74.2209 44.3617 74.1285 44.8368 74.1021 45.254H83.7777C83.4952 43.7492 82.9989 42.6034 82.2887 41.822ZM73.083 30.565H85.1716V33.9178H73.083V30.565Z" fill="white"/>
</svg>
