<svg width="132" height="88" viewBox="0 0 132 88" fill="none" xmlns="http://www.w3.org/2000/svg">
<path d="M93.7066 9.89844H38.2941C34.763 9.89844 31.9004 12.761 31.9004 16.2922V71.7047C31.9004 75.2359 34.763 78.0984 38.2941 78.0984H93.7066C97.2378 78.0984 100.1 75.2359 100.1 71.7047V16.2922C100.1 12.761 97.2378 9.89844 93.7066 9.89844Z" fill="#9CD121"/>
<g filter="url(#filter0_d_2056_22759)">
<path d="M52.7324 62.3262V23.5391H66.5012C71.0447 23.5391 74.503 24.4182 76.8761 26.1764C79.249 27.9346 80.4354 30.5541 80.4354 34.035C80.4354 35.811 79.9387 37.4093 78.9454 38.8301C77.9522 40.2509 76.4988 41.352 74.5858 42.1334C76.7563 42.7018 78.4304 43.7762 79.6077 45.3568C80.8033 46.9196 81.4012 48.8021 81.4012 51.0044C81.4012 54.6452 80.1871 57.4422 77.7589 59.3959C75.3492 61.3494 71.8909 62.3262 67.3842 62.3262H52.7324ZM59.7134 44.8241V56.9451H67.4668C69.6559 56.9451 71.3666 56.4211 72.5992 55.3733C73.8316 54.3254 74.4478 52.8692 74.4478 51.0044C74.4478 46.9729 72.314 44.9128 68.0463 44.8241H59.7134ZM59.7134 39.8691H66.5563C68.7269 39.8691 70.4194 39.3984 71.6334 38.4573C72.8658 37.4982 73.482 36.1484 73.482 34.4081C73.482 32.4899 72.9118 31.1047 71.7713 30.2522C70.6492 29.3997 68.8925 28.9735 66.5012 28.9735H59.7134V39.8691Z" fill="white"/>
</g>
<defs>
<filter id="filter0_d_2056_22759" x="52.7324" y="23.5391" width="28.8055" height="38.7891" filterUnits="userSpaceOnUse" color-interpolation-filters="sRGB">
<feFlood flood-opacity="0" result="BackgroundImageFix"/>
<feColorMatrix in="SourceAlpha" type="matrix" values="0 0 0 0 0 0 0 0 0 0 0 0 0 0 0 0 0 0 127 0" result="hardAlpha"/>
<feOffset dx="0.1375"/>
<feColorMatrix type="matrix" values="0 0 0 0 0 0 0 0 0 0 0 0 0 0 0 0 0 0 0.25 0"/>
<feBlend mode="normal" in2="BackgroundImageFix" result="effect1_dropShadow_2056_22759"/>
<feBlend mode="normal" in="SourceGraphic" in2="effect1_dropShadow_2056_22759" result="shape"/>
</filter>
</defs>
</svg>
