<svg width="132" height="88" viewBox="0 0 132 88" fill="none" xmlns="http://www.w3.org/2000/svg">
<path d="M89.4349 23.1463V47.7425H45.4348V23.1463H89.4349ZM67.4348 77C47.7746 77 33 62.2255 33 45.4348C33 25.7746 47.7746 11 67.4348 11C84.2255 11 99 25.7746 99 45.4348C99 62.2255 84.2255 77 67.4348 77ZM67.4348 64.7019C77.4332 64.7019 86.7019 55.4332 86.7019 45.4348C86.7019 32.8644 77.6935 23.2981 67.4348 23.2981C54.5667 23.2981 45.2981 32.5667 45.2981 45.4348C45.2981 55.6935 54.8644 64.7019 67.4348 64.7019Z" fill="#FF4135"/>
</svg>
