<svg width="132" height="88" viewBox="0 0 132 88" fill="none" xmlns="http://www.w3.org/2000/svg">
<path d="M43.1185 23.424H46.5083V64.576H43.1185V23.424Z" fill="black"/>
<path d="M49.507 16.5H52.8967V71.5H49.507V16.5Z" fill="black"/>
<path d="M55.8954 18.9822H59.2852V69.1485H55.8954V18.9822Z" fill="black"/>
<path d="M62.2839 23.424H65.6737V52.557H62.2839V23.424Z" fill="black"/>
<path d="M68.6723 25.7755H72.0621V61.9632H68.6723V25.7755Z" fill="black"/>
<path d="M75.0608 30.0867H78.4506V56.7375H75.0608V30.0867Z" fill="black"/>
<path d="M81.4493 34.7898H84.8391V53.0796H81.4493V34.7898Z" fill="black"/>
<path d="M87.8377 36.88H91.2275V50.4667H87.8377V36.88Z" fill="black"/>
<path d="M24.4746 42.2363H37.773V45.633H24.4746V42.2363Z" fill="black"/>
<path d="M94.2262 42.2363H107.525V45.633H94.2262V42.2363Z" fill="black"/>
</svg>
