<svg width="132" height="88" viewBox="0 0 132 88" fill="none" xmlns="http://www.w3.org/2000/svg">
<path fill-rule="evenodd" clip-rule="evenodd" d="M37.8145 79.1737H76.2152C81.1797 79.1737 86.5681 78.5025 89.68 74.6337C92.4864 71.1448 93.7643 66.4537 94.1014 60.8073C94.5406 53.4605 93.3316 49.2336 89.6487 45.2397L86.7777 42.1248L89.3441 39.441C92.3273 36.3209 93.6022 32.858 93.7266 27.5353C93.8503 22.2714 92.6144 17.2954 89.8828 13.5272C87.1216 9.71841 82.0428 8.90719 77.3391 8.91903C73.5749 8.9285 67.9635 8.91125 59.7015 8.82812H37.8145V79.1737ZM50.8381 63.8847H65.2503L65.6707 51.9486H74.5362L75.4384 41.4593H65.9529L66.3942 34.3584H77.2176L79.0561 23.2962L50.8381 23.3743V63.8847Z" fill="#00A6DB"/>
<path d="M50.8381 23.2962V63.8066H54.4558V27.6366H78.3326L79.0561 23.2962H50.8381Z" fill="#A3DAF6"/>
</svg>
