<svg width="132" height="88" viewBox="0 0 132 88" fill="none" xmlns="http://www.w3.org/2000/svg">
<path d="M96.0296 42.0337C93.4924 42.0337 91.4309 44.1006 91.4309 46.6407C91.4309 49.1833 93.4933 51.2511 96.0296 51.2511C98.565 51.2511 100.627 49.1825 100.627 46.6407C100.627 44.1006 98.5642 42.0337 96.0296 42.0337Z" fill="#FA4819"/>
<path d="M84.036 42.0337C81.4989 42.0337 79.4391 44.1006 79.4391 46.6407C79.4391 49.1833 81.4997 51.2511 84.036 51.2511C86.5715 51.2511 88.633 49.1825 88.633 46.6407C88.633 44.1006 86.5706 42.0337 84.036 42.0337Z" fill="#FA4819"/>
<path d="M47.8584 42.0337C45.3229 42.0337 43.2614 44.1006 43.2614 46.6407C43.2614 49.1833 45.3238 51.2511 47.8584 51.2511C50.3947 51.2511 52.4545 49.1825 52.4545 46.6407C52.4553 44.1006 50.3947 42.0337 47.8584 42.0337Z" fill="#FA4819"/>
<path d="M35.8692 42.0337C33.332 42.0337 31.2696 44.1006 31.2696 46.6407C31.2696 49.1833 33.3329 51.2511 35.8692 51.2511C38.4029 51.2511 40.4627 49.1825 40.4627 46.6407C40.4635 44.1006 38.4029 42.0337 35.8692 42.0337Z" fill="#FA4819"/>
<path d="M96.0296 39.0336C98.565 39.0336 100.627 36.9667 100.627 34.4267C100.627 31.8849 98.5642 29.8171 96.0296 29.8171C93.4924 29.8171 91.4309 31.8849 91.4309 34.4267C91.43 36.9667 93.4924 39.0336 96.0296 39.0336Z" fill="#FA4819"/>
<path d="M84.036 29.8171C81.4989 29.8171 79.4391 31.8849 79.4391 34.4267C79.4391 36.9667 81.4997 39.0336 84.036 39.0336C86.5715 39.0336 88.633 36.9667 88.633 34.4267C88.633 31.8849 86.5706 29.8171 84.036 29.8171Z" fill="#FA4819"/>
<path d="M72.0443 29.8171C69.5071 29.8171 67.4439 31.8849 67.4439 34.4267C67.4439 36.9667 69.508 39.0336 72.0443 39.0336C74.578 39.0336 76.6378 36.9667 76.6378 34.4267C76.6378 31.8849 74.5771 29.8171 72.0443 29.8171Z" fill="#FA4819"/>
<path d="M59.8545 29.8171C57.3191 29.8171 55.2567 31.8849 55.2567 34.4267C55.2567 36.9667 57.3199 39.0336 59.8545 39.0336C62.3908 39.0336 64.4523 36.9667 64.4523 34.4267C64.4532 31.8849 62.3908 29.8171 59.8545 29.8171Z" fill="#FA4819"/>
<path d="M47.8584 29.8171C45.3229 29.8171 43.2614 31.8849 43.2614 34.4267C43.2614 36.9667 45.3238 39.0336 47.8584 39.0336C50.3947 39.0336 52.4545 36.9667 52.4545 34.4267C52.4553 31.8849 50.3947 29.8171 47.8584 29.8171Z" fill="#FA4819"/>
<path d="M84.036 17.6016C81.4989 17.6016 79.4391 19.6684 79.4391 22.2085C79.4391 24.7503 81.4997 26.8172 84.036 26.8172C86.5715 26.8172 88.633 24.7494 88.633 22.2085C88.633 19.6684 86.5706 17.6016 84.036 17.6016Z" fill="#FA4819"/>
<path d="M72.0443 17.6016C69.5071 17.6016 67.4439 19.6684 67.4439 22.2085C67.4439 24.7503 69.508 26.8172 72.0443 26.8172C74.578 26.8172 76.6378 24.7494 76.6378 22.2085C76.6378 19.6684 74.5771 17.6016 72.0443 17.6016Z" fill="#FA4819"/>
<path d="M59.8545 17.6016C57.3191 17.6016 55.2567 19.6684 55.2567 22.2085C55.2567 24.7503 57.3199 26.8172 59.8545 26.8172C62.3908 26.8172 64.4523 24.7494 64.4523 22.2085C64.4532 19.6684 62.3908 17.6016 59.8545 17.6016Z" fill="#FA4819"/>
<path d="M47.8584 17.6016C45.3229 17.6016 43.2614 19.6684 43.2614 22.2085C43.2614 24.7503 45.3238 26.8172 47.8584 26.8172C50.3947 26.8172 52.4545 24.7494 52.4545 22.2085C52.4553 19.6684 50.3947 17.6016 47.8584 17.6016Z" fill="#FA4819"/>
<path d="M35.8692 29.8171C33.332 29.8171 31.2696 31.8849 31.2696 34.4267C31.2696 36.9667 33.3329 39.0336 35.8692 39.0336C38.4029 39.0336 40.4627 36.9667 40.4627 34.4267C40.4635 31.8849 38.4029 29.8171 35.8692 29.8171Z" fill="#FA4819"/>
<path d="M46.8991 56.674H44.6209C44.4769 56.674 44.3584 56.791 44.3584 56.9352V69.9186C44.3584 70.0629 44.4769 70.1807 44.6209 70.1807H46.8991C47.0396 70.1807 47.158 70.0611 47.158 69.9186V56.9352C47.158 56.7936 47.0396 56.674 46.8991 56.674Z" fill="#FA4819"/>
<path d="M39.9952 63.1156C41.015 62.4366 41.5126 61.5061 41.5126 60.273V60.2369C41.5126 59.3029 41.2019 58.5377 40.5665 57.9C39.7679 57.0979 38.5322 56.674 36.9946 56.674H31.3366C31.1927 56.674 31.0742 56.791 31.0742 56.9352V69.9186C31.0742 70.0629 31.1927 70.1807 31.3366 70.1807H37.178C40.3418 70.1807 42.2331 68.7515 42.2331 66.3575V66.3197C42.2331 64.7928 41.5222 63.7743 39.9952 63.1156ZM37.1973 67.6354H33.8343V64.5967H37.0315C38.1285 64.5967 39.4361 64.8544 39.4361 66.0795V66.1174C39.4361 67.4375 38.0337 67.6354 37.1973 67.6354ZM33.8343 62.1455V59.2184H36.6971C37.9775 59.2184 38.713 59.725 38.713 60.6081V60.6441C38.713 61.9502 37.3465 62.1455 36.5312 62.1455H33.8343Z" fill="#FA4819"/>
<path d="M59.832 56.674H49.3208C49.1786 56.674 49.0619 56.791 49.0619 56.9352V59.0496C49.0619 59.1929 49.1786 59.309 49.3208 59.309H53.1674V69.9178C53.1674 70.062 53.2859 70.1799 53.4298 70.1799H55.723C55.867 70.1799 55.9854 70.062 55.9854 69.9178V59.309H59.832C59.976 59.309 60.0927 59.1929 60.0927 59.0496V56.9352C60.0927 56.7883 59.9777 56.674 59.832 56.674Z" fill="#FA4819"/>
<path d="M81.1706 56.674H78.7808C78.6676 56.674 78.5667 56.7478 78.5342 56.8534L75.6855 65.7163L72.7542 56.8191C72.72 56.7118 72.6191 56.6379 72.5059 56.6379H70.5795C70.4663 56.6379 70.3671 56.7091 70.3346 56.8147L67.4016 65.7189L64.5547 56.8525C64.5187 56.7452 64.4195 56.674 64.308 56.674H61.8481C61.7621 56.674 61.6884 56.7109 61.6287 56.7874C61.5822 56.8543 61.5725 56.9449 61.6015 57.0205L66.1168 70.1007C66.1563 70.2054 66.252 70.2722 66.3617 70.2722H68.324C68.4337 70.2722 68.5329 70.2027 68.5706 70.0972L71.5071 61.4884L74.4419 70.0963C74.4779 70.2001 74.5788 70.2722 74.6902 70.2722H76.6526C76.7623 70.2722 76.8632 70.201 76.8939 70.1042L81.4137 57.017C81.4409 56.9334 81.4277 56.8464 81.3742 56.776C81.325 56.7118 81.2495 56.674 81.1706 56.674Z" fill="#FA4819"/>
<path d="M85.9101 56.674H83.6336C83.4914 56.674 83.3747 56.791 83.3747 56.9352V69.9186C83.3747 70.0629 83.4914 70.1807 83.6336 70.1807H85.9101C86.0523 70.1807 86.1707 70.0629 86.1707 69.9186V56.9352C86.1707 56.791 86.0531 56.674 85.9101 56.674Z" fill="#FA4819"/>
<path d="M100.664 62.4067H95.1486C95.0064 62.4067 94.8897 62.5228 94.8897 62.6662V64.6522C94.8897 64.7964 95.0064 64.9134 95.1486 64.9134H98.2018V66.9468C97.4216 67.4912 96.3764 67.8035 95.3338 67.8035C92.8949 67.8035 91.1906 66.004 91.1906 63.4279V63.3892C91.1906 61.0065 92.9598 59.0672 95.1311 59.0672C96.7152 59.0672 97.6288 59.5765 98.5915 60.4006C98.6363 60.4366 98.681 60.4569 98.7934 60.4586C98.8451 60.4525 98.9153 60.4243 98.9548 60.3698L100.399 58.6406C100.444 58.5888 100.466 58.5184 100.461 58.4445C100.452 58.3777 100.42 58.317 100.37 58.2765C98.8443 56.9792 97.3514 56.4515 95.2206 56.4515C91.3292 56.4515 88.2804 59.5149 88.2804 63.4279V63.463C88.2804 67.5493 91.1502 70.4016 95.2601 70.4016C97.8605 70.4016 99.7254 69.2696 100.833 68.318C100.889 68.2696 100.924 68.194 100.924 68.121V62.6662C100.925 62.5228 100.808 62.4067 100.664 62.4067Z" fill="#FA4819"/>
</svg>
