<svg width="132" height="88" viewBox="0 0 132 88" fill="none" xmlns="http://www.w3.org/2000/svg">
<path fill-rule="evenodd" clip-rule="evenodd" d="M66.0004 78.0984C84.8334 78.0984 100.1 62.8315 100.1 43.9984C100.1 25.1654 84.8334 9.89844 66.0004 9.89844C57.5439 9.89844 49.8057 12.9769 43.8468 18.074H47.8639V36.7451C50.0113 34.7289 52.8162 33.7209 56.2785 33.7209C60.8369 33.7209 64.6065 35.3645 67.5864 38.6516C70.5674 41.8951 72.0573 46.0148 72.0573 51.0113C72.0573 56.0079 70.5674 60.1276 67.5864 63.3709C64.6503 66.5704 60.8806 68.1703 56.2785 68.1703C52.0274 68.1703 48.8933 66.7679 46.8772 63.9627V67.3813H41.1799C47.3985 73.9793 56.2186 78.0984 66.0004 78.0984ZM36.5558 61.209V26.7879C33.5968 31.8396 31.9004 37.721 31.9004 43.9984C31.9004 50.2759 33.5968 56.1572 36.5558 61.209ZM60.4867 50.9455C60.4867 53.0931 59.873 54.8024 58.6457 56.0735C57.462 57.3006 55.9283 57.9144 54.0435 57.9144C52.2025 57.9144 50.6687 57.3006 49.4413 56.0735C48.2578 54.8464 47.6669 53.159 47.6669 51.0113C47.6669 48.8637 48.2796 47.1544 49.507 45.8833C50.7344 44.6123 52.2462 43.9768 54.0435 43.9768C55.8408 43.9768 57.3526 44.6123 58.58 45.8833C59.8512 47.1106 60.4867 48.7981 60.4867 50.9455Z" fill="#242424"/>
</svg>
