<svg width="132" height="88" viewBox="0 0 132 88" fill="none" xmlns="http://www.w3.org/2000/svg">
<path fill-rule="evenodd" clip-rule="evenodd" d="M71.2355 15.41C62.24 13.334 51.4751 13.4049 43.4398 21.4401C35.4036 29.4764 35.3336 40.2412 37.4097 49.2359C38.4432 53.7138 39.9965 57.687 41.2949 60.5426C41.8086 61.6778 42.3583 62.7965 42.9441 63.897C43.156 64.2938 43.3748 64.6865 43.6008 65.0754L43.6077 65.0883L43.6097 65.0905C43.7527 65.3463 43.7906 65.6471 43.7147 65.9301C43.6397 66.2128 43.4568 66.4559 43.2059 66.6066C42.9551 66.7576 42.6552 66.8035 42.3693 66.7378C42.0845 66.6707 41.8366 66.4958 41.6787 66.2488L41.6777 66.2458L41.6747 66.2408L41.6637 66.223C41.6007 66.1179 41.5387 66.0129 41.4798 65.9062C41.3018 65.5921 41.1279 65.2764 40.959 64.9574C40.3503 63.8148 39.7786 62.6532 39.2448 61.4743C37.9055 58.5265 36.2922 54.4076 35.2157 49.7417C33.0707 40.4461 32.9998 28.6967 41.8486 19.8489C50.6963 11.0001 62.4449 11.071 71.7415 13.215C76.4083 14.2915 80.5272 15.9037 83.4739 17.2441C84.6522 17.7785 85.8138 18.3502 86.9573 18.9583C87.3599 19.1735 87.7597 19.3955 88.1566 19.624L88.2226 19.663L88.2407 19.673L88.2476 19.678C88.5033 19.8316 88.6895 20.0807 88.7624 20.3706C88.8344 20.6605 88.7893 20.9673 88.6353 21.2237C88.4816 21.48 88.2327 21.6648 87.9426 21.7375C87.6528 21.8101 87.3461 21.7647 87.0901 21.611M87.0901 21.611L87.0882 21.609L87.0753 21.602L87.0203 21.5691C86.6485 21.355 86.2745 21.1471 85.8966 20.9453C84.7963 20.3602 83.6776 19.8102 82.5422 19.2961C79.6866 17.9968 75.7145 16.4435 71.2355 15.41" fill="#FF00E5"/>
<path fill-rule="evenodd" clip-rule="evenodd" d="M86.2217 18.2319C86.5385 18.0416 86.8902 17.9156 87.2562 17.8612C87.6209 17.8066 87.9938 17.8247 88.3526 17.9142C88.7115 18.0038 89.0481 18.1631 89.3451 18.3831C89.6418 18.6031 89.8929 18.8795 90.0827 19.1965L87.6698 20.6448C88.4725 20.1592 89.2772 19.677 90.0838 19.1984L90.0857 19.2014L90.1027 19.2304C90.1707 19.3437 90.2378 19.458 90.3016 19.5733C90.4316 19.8042 90.6175 20.136 90.8444 20.5608C91.47 21.7353 92.0569 22.9292 92.6055 24.1411C93.9769 27.1576 95.6341 31.3857 96.7434 36.1924C98.9404 45.7159 99.1175 58.202 89.6589 67.6593C80.2014 77.1179 67.7153 76.9411 58.1928 74.743C53.385 73.6337 49.1572 71.9773 46.1407 70.6051C44.929 70.0562 43.7357 69.4696 42.5602 68.8448C42.1134 68.605 41.6697 68.3581 41.2309 68.1031L41.2089 68.0902L41.1989 68.0842C41.1979 68.0842 41.1969 68.0831 42.6442 65.6694L41.1969 68.0831C40.5572 67.6994 40.0954 67.0777 39.9145 66.353C39.7326 65.6292 39.8465 64.8628 40.2304 64.2229C40.6142 63.5824 41.2359 63.1207 41.9605 62.9395C42.6842 62.758 43.4508 62.8718 44.0906 63.2554L44.0925 63.2565L44.0996 63.2607L44.1456 63.2884C44.1904 63.3146 44.2605 63.3555 44.3554 63.4086C44.5454 63.5175 44.8353 63.6784 45.2131 63.8802C45.9696 64.2839 47.0801 64.8507 48.4694 65.4824C51.2582 66.7499 55.1194 68.258 59.4581 69.2595C68.227 71.2827 78.2533 71.1059 85.6799 63.6803C93.1063 56.2539 93.2831 46.2266 91.2591 37.4577C90.2576 33.1198 88.7495 29.2577 87.482 26.4701C86.9831 25.3673 86.4485 24.2811 85.8798 23.2124C85.6887 22.8538 85.4918 22.4982 85.288 22.146L85.2611 22.0989L85.257 22.0921L85.2561 22.091C84.8731 21.4511 84.7592 20.6853 84.9413 19.9617C85.1222 19.238 85.5828 18.6159 86.2217 18.2319Z" fill="#2097EE"/>
<path fill-rule="evenodd" clip-rule="evenodd" d="M85.0271 16.1781L84.4353 17.4106L85.0282 16.1791C85.3408 16.3442 85.5779 16.6241 85.6887 16.9603C85.7998 17.2963 85.7756 17.6623 85.6227 17.9813C85.4698 18.3002 85.1981 18.5473 84.8662 18.6705C84.5343 18.7937 84.1685 18.7835 83.8437 18.642L83.8355 18.639L83.7986 18.621L83.6328 18.546C83.4827 18.4801 83.2558 18.3821 82.958 18.2621C82.3623 18.0213 81.4829 17.6924 80.3732 17.3456C77.4516 16.4356 74.433 15.8694 71.3796 15.6584C64.1229 15.1746 54.9014 16.7159 46.8092 24.8091C38.716 32.9023 37.1737 42.1228 37.6585 49.3795C37.8694 52.4325 38.4361 55.4509 39.3457 58.3731C39.6915 59.4827 40.0214 60.3622 40.2613 60.9578C40.3752 61.2402 40.4952 61.5202 40.6211 61.7974L40.6321 61.8224L40.6381 61.8356L40.6421 61.8425C40.799 62.1692 40.82 62.5459 40.7001 62.8883C40.5811 63.2304 40.3302 63.5109 40.0034 63.6682C39.6765 63.8252 39.3007 63.8461 38.9579 63.7265C38.6161 63.6066 38.3352 63.3555 38.1783 63.0288L39.4107 62.4351C38.1783 63.0288 38.1783 63.0269 38.1783 63.0269L38.1773 63.025L38.1743 63.02L38.1673 63.0038C38.1263 62.9175 38.0863 62.83 38.0473 62.742C37.9364 62.4904 37.8294 62.2368 37.7265 61.9814C37.3586 61.0631 37.0288 60.1306 36.7359 59.1857C35.7624 56.0587 35.1567 52.8285 34.9308 49.5613C34.409 41.743 36.0842 31.6678 44.876 22.8761C53.668 14.0841 63.7432 12.4099 71.5614 12.9307C74.829 13.156 78.0594 13.7618 81.187 14.7358C82.3752 15.1056 83.324 15.4615 83.9807 15.7263C84.3244 15.8651 84.6663 16.0117 85.0031 16.1661L85.0202 16.1751L85.0251 16.1772L85.0271 16.1781Z" fill="#DF16E7"/>
<path fill-rule="evenodd" clip-rule="evenodd" d="M83.134 14.1466C83.134 14.1466 83.1359 14.1466 82.7272 15.7029L83.137 14.1476C83.5437 14.2603 83.8905 14.5288 84.1014 14.8949C84.3123 15.2611 84.3704 15.6956 84.2634 16.1043C84.1564 16.5131 83.8927 16.8633 83.5297 17.0794C83.167 17.2955 82.733 17.3601 82.3233 17.2591H82.3202L82.3062 17.2551C82.1275 17.2144 81.9476 17.1788 81.7667 17.1482C81.3668 17.0792 80.7591 16.9952 79.9695 16.9433C78.3902 16.8373 76.0904 16.8583 73.2727 17.383C67.6592 18.4306 59.913 21.4941 51.7028 29.7043C43.4927 37.9134 40.4302 45.6596 39.3846 51.274C38.8589 54.0908 38.8379 56.3914 38.9429 57.9708C38.9959 58.7595 39.0798 59.3672 39.1478 59.7679C39.1778 59.9486 39.2137 60.1281 39.2547 60.3066L39.2587 60.3206V60.3237C39.3527 60.7315 39.2847 61.1599 39.0678 61.5183C38.8509 61.8766 38.5041 62.1362 38.0983 62.2421C37.6935 62.3479 37.2637 62.2918 36.8988 62.0856C36.535 61.8793 36.2651 61.5392 36.1482 61.1374L37.7024 60.7276C36.1482 61.1374 36.1472 61.1352 36.1472 61.1352V61.1324L36.1452 61.1264L36.1412 61.1093C36.1222 61.0384 36.1062 60.9672 36.0912 60.8954C36.0612 60.7554 36.0213 60.5596 35.9783 60.3088C35.8603 59.6048 35.7794 58.8956 35.7344 58.1836C35.6135 56.3705 35.6424 53.7968 36.2221 50.6844C37.3856 44.4402 40.755 36.1041 49.4289 27.4304C58.1037 18.7554 66.4398 15.386 72.684 14.2226C75.7964 13.6428 78.3701 13.6129 80.1832 13.7338C81.0899 13.7938 81.8076 13.8927 82.3084 13.9777C82.5763 14.0237 82.8441 14.0779 83.1089 14.1406L83.126 14.1446L83.132 14.1466H83.134Z" fill="#BF2BE8"/>
<path fill-rule="evenodd" clip-rule="evenodd" d="M83.3817 16.3564C83.222 15.7607 83.0589 15.166 82.892 14.5722L82.89 14.5733L82.884 14.5752L82.87 14.5793C82.8202 14.5933 82.7701 14.6083 82.7201 14.6242C82.6282 14.6542 82.5023 14.6952 82.3414 14.7532C82.0216 14.8681 81.5667 15.046 80.9791 15.3099C79.8026 15.8367 78.0943 16.7072 75.8654 18.1066C71.4074 20.9053 64.8687 25.8208 56.3446 34.345C47.8207 42.8689 42.905 49.4078 40.1064 53.8656C38.707 56.0944 37.8365 57.8038 37.3097 58.9792C37.1068 59.4261 36.9209 59.8806 36.753 60.3415C36.69 60.5167 36.632 60.6933 36.579 60.8712L36.575 60.8844L36.573 60.8902V60.8924C36.573 60.8932 36.572 60.8954 38.3562 61.3821L36.572 60.8954C36.4411 61.3681 36.5041 61.8733 36.7459 62.2998C36.9888 62.7263 37.3896 63.0393 37.8624 63.1696C38.3352 63.3003 38.841 63.2376 39.2678 62.9953C39.6936 62.7533 40.0064 62.3515 40.1374 61.8788M83.8715 18.1396L83.8787 18.1376C84.3514 18.0071 84.7532 17.6943 84.9952 17.2678C85.2369 16.8412 85.2999 16.3359 85.169 15.8632C85.0392 15.3904 84.7262 14.9888 84.2994 14.7467C83.8726 14.5046 83.368 14.4418 82.895 14.5722L83.3817 16.3564" fill="#9F41E9"/>
<path fill-rule="evenodd" clip-rule="evenodd" d="M85.0031 15.4111C85.2691 15.4832 85.5168 15.6069 85.7338 15.775C85.9516 15.9431 86.1337 16.1524 86.2695 16.3909C86.4056 16.6294 86.4934 16.8923 86.5286 17.1648C86.5624 17.4374 86.5434 17.7139 86.4705 17.9789L84.4534 17.4292C86.4694 17.9789 86.4694 17.9789 86.4694 17.9809L86.4683 17.9839L86.4664 17.9899L86.4626 18.0049C86.4485 18.0576 86.4326 18.11 86.4155 18.1618C86.3856 18.2578 86.3424 18.3867 86.2835 18.5496C86.1667 18.8755 85.9857 19.3353 85.7198 19.929C85.1879 21.1164 84.3126 22.8346 82.9071 25.0725C80.0974 29.5473 75.1697 36.1003 66.6348 44.6352C58.0999 53.1704 51.5469 58.0978 47.0721 60.9075C44.8342 62.313 43.116 63.1886 41.9286 63.7202C41.4768 63.9253 41.016 64.1132 40.5492 64.2842C40.3693 64.348 40.1884 64.4082 40.0045 64.463L39.9895 64.4671L39.9835 64.469H39.9805C39.9795 64.4701 39.9775 64.4709 39.4277 62.4538L39.9775 64.4701C39.7126 64.5411 39.4357 64.5581 39.1639 64.5221C38.892 64.4861 38.6291 64.3961 38.3912 64.2581C37.9115 63.9806 37.5616 63.5233 37.4187 62.9876C37.2768 62.4516 37.3527 61.881 37.6306 61.4011C37.9085 60.9212 38.3653 60.5714 38.901 60.4287C38.944 60.4158 39.0209 60.3908 39.1329 60.3498C39.3568 60.2698 39.7196 60.1298 40.2184 59.9051C41.2179 59.4571 42.7652 58.6756 44.8493 57.3663C49.0172 54.7494 55.3293 50.0288 63.6783 41.6787C72.0284 33.3297 76.749 27.0176 79.3659 22.8497C80.6752 20.7656 81.4567 19.2183 81.9047 18.2188C82.1286 17.719 82.2694 17.3572 82.3494 17.1333C82.3824 17.0441 82.4124 16.9541 82.4393 16.8634C82.5884 16.3318 82.942 15.8807 83.4219 15.6086C83.9026 15.3366 84.4713 15.2655 85.0031 15.4111Z" fill="#7F56EA"/>
<path fill-rule="evenodd" clip-rule="evenodd" d="M84.9308 16.2454C85.5295 16.088 86.1653 16.1745 86.6991 16.4861C87.2337 16.7976 87.6225 17.3086 87.7795 17.9066L85.5245 18.5003C86.2753 18.2985 87.028 18.1019 87.7806 17.9106V17.9126L87.7837 17.9196L87.7886 17.9396C87.8084 18.0187 87.8266 18.098 87.8436 18.1775C87.8766 18.3274 87.9184 18.5343 87.9635 18.7962C88.0523 19.3199 88.1533 20.0616 88.2154 20.9951C88.3403 22.8612 88.3092 25.496 87.7155 28.6756C86.5261 35.0624 83.0878 43.5294 74.3089 52.3082C65.5301 61.0882 57.064 64.5265 50.6771 65.717C47.4975 66.3096 44.8628 66.3407 42.9958 66.2166C42.2591 66.1696 41.5254 66.0857 40.7968 65.9636C40.5099 65.9147 40.225 65.8567 39.9412 65.7887L39.9212 65.7838L39.9132 65.7819L39.9102 65.7808C39.9082 65.7808 39.9072 65.7808 40.4999 63.5249L39.9072 65.7799C39.3225 65.613 38.8257 65.2231 38.5239 64.6942C38.222 64.1657 38.1391 63.5392 38.292 62.9502C38.4459 62.3611 38.8237 61.8551 39.3455 61.5408C39.8662 61.2265 40.4899 61.1286 41.0827 61.268M41.0896 61.2691L41.0857 61.268H41.0827L41.0896 61.2691C41.1027 61.2721 41.1296 61.2801 41.1716 61.2881C41.2536 61.306 41.3915 61.334 41.5804 61.367C41.9582 61.4311 42.542 61.5119 43.3046 61.5628C44.8298 61.6648 47.0699 61.6459 49.8196 61.133C55.2919 60.1125 62.9052 57.118 71.0106 49.0118C79.1168 40.9056 82.1112 33.2934 83.1307 27.822C83.6435 25.0711 83.6636 22.8313 83.5616 21.305C83.5256 20.7277 83.4596 20.1525 83.3647 19.5818C83.3366 19.4144 83.3036 19.2478 83.2657 19.0821C83.1128 18.4851 83.2008 17.8517 83.5135 17.3202C83.8253 16.7885 84.3352 16.4022 84.9308 16.2454" fill="#606CEC"/>
<path fill-rule="evenodd" clip-rule="evenodd" d="M85.4808 17.2547C85.7847 17.1081 86.1155 17.023 86.4535 17.0041C86.7904 16.9851 87.1281 17.0329 87.4471 17.1445C87.7658 17.2561 88.0598 17.4296 88.3117 17.6548C88.5636 17.8801 88.7684 18.1526 88.9153 18.4571L86.5965 19.5725C88.9153 18.4571 88.9153 18.4581 88.9164 18.4591L88.9172 18.4621L88.9213 18.4691L88.9312 18.4891L88.9612 18.554C89.1141 18.8914 89.2601 19.2319 89.399 19.5755C89.6748 20.2592 90.0417 21.2398 90.4226 22.4641C91.4241 25.6816 92.0478 29.0047 92.2796 32.3666C92.8175 40.4326 91.0842 50.8857 81.9845 59.9854C72.8839 69.0849 62.4317 70.8182 54.3657 70.2803C51.0032 70.0485 47.6799 69.4259 44.4624 68.4232C43.4858 68.1216 42.5233 67.7797 41.5747 67.3997C41.2309 67.2619 40.89 67.1159 40.5532 66.9619L40.4882 66.9319L40.4682 66.922L40.4612 66.919L40.4582 66.9171C40.4562 66.9171 40.4552 66.9171 41.5717 64.598L40.4552 66.9171C39.8395 66.6212 39.3677 66.0934 39.1419 65.4497C38.9159 64.8059 38.9549 64.0983 39.2498 63.4831C39.5457 62.8682 40.0734 62.3955 40.7171 62.1697C41.3618 61.9437 42.0685 61.9827 42.6842 62.2784H42.6862L42.6882 62.2803M84.2785 20.687V20.689L84.2914 20.717L84.3585 20.8649C84.4204 21.0029 84.5123 21.2168 84.6272 21.5016C84.8571 22.0714 85.175 22.919 85.51 23.9934C86.3913 26.8254 86.9402 29.7505 87.1451 32.7093C87.6129 39.7179 86.1295 48.5619 78.3454 56.3472C70.561 64.1313 61.7161 65.6136 54.7075 65.1469C51.7488 64.942 48.8241 64.3931 45.9925 63.5106C45.1499 63.2502 44.3183 62.956 43.4998 62.6282C43.2359 62.522 42.975 62.4104 42.7161 62.2932L42.6882 62.2803M84.2785 20.687L84.2766 20.685C83.9815 20.0702 83.9427 19.3635 84.1685 18.72C84.3943 18.0767 84.8662 17.5503 85.4808 17.2547" fill="#4082ED"/>
</svg>
