<svg width="132" height="88" viewBox="0 0 132 88" fill="none" xmlns="http://www.w3.org/2000/svg">
<path d="M67.6008 47.805C67.7413 45.2983 68.9688 43.0899 70.8207 41.5244C72.6367 39.9867 75.0811 39.0469 77.7481 39.0469C80.4126 39.0469 82.8569 39.9867 84.6743 41.5244C86.5248 43.0899 87.7523 45.2983 87.8941 47.8023C88.0346 50.3779 86.9994 52.7706 85.1833 54.5442C83.3315 56.3483 80.6976 57.4804 77.7481 57.4804C74.7987 57.4804 72.1595 56.3483 70.309 54.5442C68.4916 52.7706 67.459 50.3779 67.6008 47.805Z" fill="#0E548B"/>
<path d="M51.4411 52.8678C51.4583 53.8488 51.7712 55.755 52.2404 57.2436C53.2267 60.3945 54.8995 63.3094 57.2273 65.8784C59.6159 68.519 62.5574 70.6399 65.9549 72.1457C69.526 73.7272 73.3954 74.5331 77.4145 74.5265C81.3599 74.5334 85.2623 73.7086 88.8675 72.106C92.265 70.5855 95.2038 68.4553 97.5885 65.8135C99.9149 63.2339 101.585 60.3136 102.574 57.1627C103.071 55.5707 103.385 53.9548 103.511 52.3336C103.634 50.7341 103.582 49.1259 103.356 47.5377C102.917 44.4462 101.834 41.4814 100.176 38.8352C98.6402 36.3738 96.6755 34.2076 94.3753 32.4393L94.3806 32.4353L70.9033 14.4088C70.8821 14.3929 70.8648 14.3756 70.8423 14.3611C69.302 13.1786 66.7118 13.1826 65.0177 14.3677C63.305 15.566 63.1088 17.5478 64.6333 18.7978L64.6266 18.8044L74.4187 26.7672L44.5733 26.799H44.5335C42.0666 26.8016 39.6951 28.4202 39.2259 30.4655C38.7434 32.5493 40.4189 34.2779 42.9839 34.2872L42.9799 34.2965L58.1074 34.2673L31.1133 54.9874L31.0099 55.0643C28.4635 57.0143 27.6403 60.2566 29.2443 62.3086C30.8721 64.3951 34.3332 64.3991 36.9061 62.3205L51.6386 50.2631C51.6386 50.2631 51.4239 51.8909 51.4411 52.8678ZM89.2983 58.3186C86.2628 61.4112 82.013 63.1649 77.4145 63.1742C72.8095 63.1822 68.5596 61.4443 65.5241 58.3571C64.0898 56.9168 62.983 55.1842 62.279 53.2774C61.6181 51.4628 61.3638 49.5251 61.5341 47.6013C61.6949 45.7257 62.2491 43.905 63.1605 42.2579C64.0779 40.6086 65.3038 39.1509 66.7714 37.9643C69.7222 35.5597 73.4789 34.258 77.4079 34.2527C81.3409 34.2474 85.0949 35.5372 88.0483 37.9339C89.5142 39.1159 90.7388 40.5691 91.6552 42.2142C92.5684 43.86 93.1249 45.6798 93.2883 47.5549C93.4561 49.4775 93.2009 51.4136 92.5407 53.2271C91.8372 55.137 90.7315 56.8734 89.2983 58.3186Z" fill="#F4792B"/>
</svg>
