<svg width="132" height="88" viewBox="0 0 132 88" fill="none" xmlns="http://www.w3.org/2000/svg">
<path fill-rule="evenodd" clip-rule="evenodd" d="M45.3899 7.01767C41.8112 7.62235 39.9728 8.22211 37.4724 9.60084C31.4817 12.9041 27.4019 20.0064 25.1509 31.0508C24.3998 34.7362 24.2092 36.7066 24.1994 40.8922C24.1864 46.4223 24.7708 50.4255 26.2853 55.1811C31.029 70.0762 40.0028 78.4927 53.3074 80.5253C61.5757 81.7886 70.8958 81.041 79.4904 78.4253C82.5285 77.5006 86.3157 75.9893 89.262 74.5262C93.8883 72.2284 96.3676 70.528 99.1159 67.7677C105.103 61.7548 107.781 54.6234 107.799 44.6482C107.808 39.8761 107.136 35.6053 105.787 31.8599C103.335 25.0506 98.454 20.0022 91.3556 16.9338C89.1543 15.982 82.8938 13.8417 78.7566 12.6261C66.0358 8.88886 50.1346 6.21598 45.3899 7.01767Z" fill="url(#paint0_linear_2056_27531)"/>
<defs>
<linearGradient id="paint0_linear_2056_27531" x1="65.9992" y1="6.875" x2="65.9992" y2="81.125" gradientUnits="userSpaceOnUse">
<stop stop-color="#EF649E"/>
<stop offset="1" stop-color="#EEC9A3"/>
</linearGradient>
</defs>
</svg>
