<svg width="132" height="88" viewBox="0 0 132 88" fill="none" xmlns="http://www.w3.org/2000/svg">
<path d="M41.497 59.4042C33.2259 43.9996 53.8811 10.9453 72.4802 9.82282C91.0796 8.70035 107.622 39.5094 97.2946 56.0366C86.9664 72.5635 49.768 74.8086 41.497 59.4042Z" fill="#FF9933"/>
<path d="M70.5934 43.8186C76.8483 51.0434 86.7648 55.9681 87.8101 61.8671C88.8548 67.7662 81.0283 74.6379 72.9582 76.9779C64.8891 79.3176 56.5751 78.2362 49.6164 74.425C42.6576 70.6149 37.0543 64.0762 33.9558 56.3905C30.8572 48.7051 30.2635 38.7622 34.8803 31.9117C39.4961 25.0609 49.3225 21.3027 55.5325 24.1858C61.7426 27.0692 64.3375 36.5938 70.5934 43.8186Z" fill="#FF0066"/>
<path fill-rule="evenodd" clip-rule="evenodd" d="M84.4787 53.0966C84.4787 61.3061 77.3362 64.8781 69.6056 64.8781H51.2684V23.1375H69.34C73.284 23.1375 77.3362 24.4168 79.8948 27.029C81.6539 28.8416 82.6665 31.4535 82.6665 34.1722C82.6665 38.3835 80.0009 41.4753 76.0027 43.1281V43.2879C81.3341 44.1409 84.4787 48.0855 84.4787 53.0966ZM72.2184 35.878C72.2184 33.3194 70.3523 32.1465 67.4208 32.1465H61.4497V39.6631H67.5266C70.5654 39.6631 72.2184 38.2237 72.2184 35.878ZM73.9776 51.8706C73.9776 49.205 71.7388 47.9791 69.1799 47.9791H61.4497V55.8152H69.233C71.8986 55.8152 73.9776 54.5359 73.9776 51.8706Z" fill="white"/>
</svg>
