<svg width="132" height="88" viewBox="0 0 132 88" fill="none" xmlns="http://www.w3.org/2000/svg">
<mask id="mask0_2056_22983" style="mask-type:alpha" maskUnits="userSpaceOnUse" x="29" y="7" width="74" height="74">
<path fill-rule="evenodd" clip-rule="evenodd" d="M54.7234 7.97683L77.018 7.97656C85.7064 7.97656 88.8567 8.88172 92.0332 10.5814C95.2094 12.2811 97.7021 14.7753 99.401 17.9535L99.5018 18.1442C101.135 21.2599 102.004 24.4579 102.004 32.9773V55.0258L102.003 55.5407C101.968 63.8453 101.066 66.9351 99.401 70.0497C97.7021 73.2278 95.2094 75.7219 92.0332 77.4217L91.8426 77.5228C88.7285 79.1572 85.5325 80.0266 77.018 80.0266H54.9823L54.4676 80.0254C46.168 79.9899 43.08 79.0875 39.9672 77.4217C36.7909 75.7219 34.2981 73.2278 32.5994 70.0497L32.4985 69.8588C30.8816 66.7751 30.0139 63.6106 29.9964 55.2849L29.9961 32.9773C29.9961 24.284 30.9007 21.1316 32.5994 17.9535C34.2981 14.7753 36.7909 12.2811 39.9672 10.5814L40.1578 10.4804C43.24 8.86255 46.4026 7.99438 54.7234 7.97683Z" fill="white"/>
</mask>
<g mask="url(#mask0_2056_22983)">
<path d="M102.006 7.97656H29.998V80.0266H102.006V7.97656Z" fill="#91D7E0"/>
<path fill-rule="evenodd" clip-rule="evenodd" d="M33.4912 72.7902C43.0338 72.7902 50.7696 65.212 50.7696 55.8638C50.7696 46.5157 43.0338 38.9375 33.4912 38.9375C23.9487 38.9375 16.2129 46.5157 16.2129 55.8638C16.2129 65.212 23.9487 72.7902 33.4912 72.7902Z" fill="#F05984"/>
<path fill-rule="evenodd" clip-rule="evenodd" d="M98.6222 72.7902C108.165 72.7902 115.9 65.212 115.9 55.8638C115.9 46.5157 108.165 38.9375 98.6222 38.9375C89.0795 38.9375 81.3438 46.5157 81.3438 55.8638C81.3438 65.212 89.0795 72.7902 98.6222 72.7902Z" fill="#F05984"/>
<path d="M43.4952 38.6126C45.9432 38.6126 47.9278 36.6269 47.9278 34.1774C47.9278 31.7279 45.9432 29.7422 43.4952 29.7422C41.0471 29.7422 39.0625 31.7279 39.0625 34.1774C39.0625 36.6269 41.0471 38.6126 43.4952 38.6126Z" fill="black"/>
<path d="M88.3681 38.6126C90.8163 38.6126 92.801 36.6269 92.801 34.1774C92.801 31.7279 90.8163 29.7422 88.3681 29.7422C85.9202 29.7422 83.9355 31.7279 83.9355 34.1774C83.9355 36.6269 85.9202 38.6126 88.3681 38.6126Z" fill="black"/>
<mask id="mask1_2056_22983" style="mask-type:alpha" maskUnits="userSpaceOnUse" x="49" y="38" width="35" height="18">
<path d="M65.9194 55.0403C57.0365 55.0403 48.0135 50.2268 49.2986 42.7267C50.5837 35.2268 59.4596 38.935 65.9194 38.9756H65.9548L66.0926 38.9753L66.2298 38.9729L66.2652 38.9756C72.6602 38.9357 81.4236 35.3006 82.8451 42.5051L82.8859 42.7267C84.1711 50.2268 75.1481 55.0403 66.2652 55.0403L65.9548 55.0394H66.2298L65.9194 55.0403Z" fill="white"/>
</mask>
<g mask="url(#mask1_2056_22983)">
<path d="M84.9993 35.125H48.2715V55.0383H84.9993V35.125Z" fill="black"/>
<path fill-rule="evenodd" clip-rule="evenodd" d="M62.2934 64.4541C66.4402 64.4541 69.8019 61.1308 69.8019 57.0317C69.8019 52.9327 66.4402 49.6094 62.2934 49.6094C58.1468 49.6094 54.7852 52.9327 54.7852 57.0317C54.7852 61.1308 58.1468 64.4541 62.2934 64.4541Z" fill="#F05984"/>
<path d="M60.3954 38.4721C60.3954 36.6236 58.8968 35.125 57.0483 35.125C55.1997 35.125 53.7012 36.6236 53.7012 38.4721V39.3811C53.7012 41.2297 55.1997 42.7283 57.0483 42.7283C58.8968 42.7283 60.3954 41.2297 60.3954 39.3811V38.4721Z" fill="white"/>
<path d="M67.995 38.4721C67.995 36.6236 66.4965 35.125 64.6479 35.125C62.7993 35.125 61.3008 36.6236 61.3008 38.4721V39.3811C61.3008 41.2297 62.7993 42.7283 64.6479 42.7283C66.4965 42.7283 67.995 41.2297 67.995 39.3811V38.4721Z" fill="white"/>
<path fill-rule="evenodd" clip-rule="evenodd" d="M69.8933 64.4541C74.0398 64.4541 77.4015 61.1308 77.4015 57.0317C77.4015 52.9327 74.0398 49.6094 69.8933 49.6094C65.7465 49.6094 62.3848 52.9327 62.3848 57.0317C62.3848 61.1308 65.7465 64.4541 69.8933 64.4541Z" fill="#F05984"/>
</g>
</g>
</svg>
