<svg width="360" height="360" viewBox="0 0 360 360" fill="none" xmlns="http://www.w3.org/2000/svg">
<path d="M237.394 56H122.606C85.8204 56 56 85.8204 56 122.606V237.394C56 274.18 85.8204 304 122.606 304H237.394C274.18 304 304 274.18 304 237.394V122.606C304 85.8204 274.18 56 237.394 56Z" fill="#9FD5DE"/>
<path fill-rule="evenodd" clip-rule="evenodd" d="M101.349 163.703C110.741 163.703 118.355 156.089 118.355 146.697C118.355 137.305 110.741 129.691 101.349 129.691C91.9581 129.691 84.3438 137.305 84.3438 146.697C84.3438 156.089 91.9581 163.703 101.349 163.703ZM258.652 163.703C268.044 163.703 275.658 156.089 275.658 146.697C275.658 137.305 268.044 129.691 258.652 129.691C249.261 129.691 241.647 137.305 241.647 146.697C241.647 156.089 249.261 163.703 258.652 163.703Z" fill="black"/>
<path fill-rule="evenodd" clip-rule="evenodd" d="M73.7253 282.638C62.7245 270.758 56 254.862 56 237.395V165.401C60.5421 164.291 65.2875 163.703 70.1714 163.703C103.044 163.703 129.691 190.351 129.691 223.223C129.691 254.902 104.944 280.8 73.7253 282.638ZM304 164.781V237.395C304 254.757 297.356 270.568 286.473 282.424C256.509 279.328 233.143 254.005 233.143 223.223C233.143 190.351 259.791 163.703 292.663 163.703C296.539 163.703 300.33 164.073 304 164.781Z" fill="#EE6689"/>
<path fill-rule="evenodd" clip-rule="evenodd" d="M155.346 175.476C159.801 173.991 164.616 176.398 166.101 180.853C167.685 185.604 173.507 189.388 181.594 189.388C189.756 189.388 194.767 185.629 195.861 181.408C197.039 176.863 201.68 174.133 206.225 175.312C210.771 176.49 213.5 181.13 212.323 185.676C208.457 200.587 193.627 206.393 181.594 206.393C169.487 206.393 154.762 200.611 149.968 186.231C148.483 181.776 150.891 176.961 155.346 175.476Z" fill="black"/>
</svg>
