<svg width="132" height="88" viewBox="0 0 132 88" fill="none" xmlns="http://www.w3.org/2000/svg">
<path fill-rule="evenodd" clip-rule="evenodd" d="M103.674 43.9992C103.674 64.8065 86.8065 81.6742 65.9992 81.6742C45.1919 81.6742 28.3242 64.8065 28.3242 43.9992C28.3242 23.1919 45.1919 6.32422 65.9992 6.32422C86.8065 6.32422 103.674 23.1919 103.674 43.9992ZM67.3097 40.7212C67.6915 41.3142 68.0844 41.8793 68.6369 42.6431C68.5952 42.5853 69.3537 43.6292 69.5527 43.9077C71.0936 46.0637 71.7393 47.3826 71.9096 48.9722C71.939 49.2965 71.9443 49.6155 71.9244 49.9292C71.8825 50.5882 71.7298 51.2347 71.4553 51.8782C71.347 52.1322 71.2149 52.376 71.0599 52.6096C70.5933 53.3124 69.9254 53.9079 69.1141 54.3419C68.7977 54.511 68.4631 54.6536 68.1155 54.7672C65.2236 55.588 61.9581 54.6604 60.0081 52.4652L56.5229 55.9519C59.7125 59.5418 64.825 60.9848 69.406 59.6621C70.0927 59.4426 70.6952 59.1877 71.2694 58.8808C72.7653 58.0808 74.043 56.9415 74.9754 55.537C75.3024 55.0447 75.5849 54.5223 75.8185 53.9747C76.3299 52.7767 76.623 51.5354 76.7034 50.2698C76.7413 49.6665 76.731 49.0609 76.6742 48.4548C76.5132 46.9202 76.089 45.5247 75.4167 44.1486C74.8975 43.0856 74.2849 42.1181 73.3691 40.8367C73.1564 40.5388 72.3838 39.4756 72.4366 39.5485C71.9275 38.8447 71.5788 38.3431 71.2536 37.837C70.9783 37.4269 70.9183 37.1365 70.9986 36.5947C71.0245 36.4882 71.0627 36.38 71.1132 36.27C71.1744 36.1376 71.2553 36.0012 71.3528 35.8691C71.4856 35.6888 71.6466 35.5185 71.8292 35.3663C73.1531 34.3287 75.0103 34.5492 78.77 35.9447L80.3513 31.1471C78.0783 30.3033 76.7607 29.9071 75.1851 29.7233C72.8284 29.4485 70.7231 29.8966 68.9438 31.3092C68.4121 31.7457 67.9623 32.2184 67.5785 32.7396C67.2799 33.1452 67.0219 33.5795 66.8109 34.0359C66.5879 34.5209 66.4204 35.0229 66.3119 35.5411L66.2895 35.6604C65.9866 37.52 66.2867 39.1885 67.3097 40.7212ZM63.5292 44.7624V32.2576H58.7394V49.845H66.4593V44.7624H63.5292ZM56.3189 43.5189C56.3189 45.414 54.8717 46.9501 53.086 46.9501C51.2999 46.9501 49.8526 45.414 49.8526 43.5189C49.8526 41.6241 51.2999 40.0882 53.086 40.0882C54.8717 40.0882 56.3189 41.6241 56.3189 43.5189Z" fill="black"/>
</svg>
