<svg width="132" height="88" viewBox="0 0 132 88" fill="none" xmlns="http://www.w3.org/2000/svg">
<path d="M81.1021 21.8375H60.344V29.6063V34.3452V38.3384V41.8188V49.6652H71.6708V38.3539H63.1096V29.6218H75.8193C77.0934 29.6218 78.2432 30.1346 79.0667 30.9736C79.9057 31.7971 80.4184 32.9624 80.4184 34.2209V54.0312V58.3973H76.0524H56.1955C54.9214 58.3973 53.7716 57.8845 52.9481 57.0455C52.1091 56.2065 51.5964 55.0567 51.5964 53.7982V34.3608V33.9879V29.6218V18.0775V13.1055H81.1021C85.4681 13.1055 89.4146 14.8767 92.2891 17.7512C95.148 20.6101 96.9348 24.5721 96.9348 28.9226V61.7223V67.9062V70.6408C96.9348 72.987 95.0237 74.8981 92.6775 74.8981H91.9472H89.7098H50.8972C46.5311 74.8981 42.5846 73.1268 39.7102 70.2524C36.8357 67.3935 35.0645 63.4314 35.0645 59.0809V29.6063H39.6325H43.7965H48.8151V38.3384H43.7965V59.0809C43.7965 61.0231 44.5889 62.7944 45.8786 64.084C47.1682 65.3736 48.9394 66.166 50.8816 66.166H88.1716V28.9226C88.1716 26.9805 87.3792 25.2092 86.0896 23.9196C84.8155 22.6455 83.0598 21.8375 81.1021 21.8375Z" fill="#00B289"/>
</svg>
