<svg width="132" height="88" viewBox="0 0 132 88" fill="none" xmlns="http://www.w3.org/2000/svg">
<path fill-rule="evenodd" clip-rule="evenodd" d="M66 77C84.2253 77 99 62.2253 99 44C99 25.7747 84.2253 11 66 11C47.7747 11 33 25.7747 33 44C33 62.2253 47.7747 77 66 77ZM66.481 24.4698C68.942 24.875 70.6715 27.2569 70.6813 30.2416C70.6813 32.6629 69.6239 34.5407 67.7361 35.4303C64.6823 36.8831 61.2726 35.1437 60.561 31.7636C59.9779 29.0062 61.1144 26.1203 63.2393 24.9837C64.2672 24.4303 65.2654 24.2721 66.481 24.4698ZM78.2716 24.4797C80.7425 24.9442 82.4127 27.2865 82.4029 30.2811C82.4029 32.0798 81.9186 33.3647 80.8314 34.4618C79.7245 35.5884 77.9752 36.1617 76.4828 35.8948C75.6427 35.7466 74.5556 35.2326 73.933 34.6989C72.0946 33.1275 71.5907 29.787 72.8162 27.3063C73.8638 25.1617 76.0183 24.0449 78.2716 24.4797ZM56.1036 24.8849C56.9932 25.2308 57.7344 25.9919 57.9716 26.8022C58.2582 27.8004 58.0012 28.858 57.2798 29.619L56.9832 29.9353L57.3193 30.123C58.189 30.6172 58.6436 31.3287 58.7228 32.3171C58.8611 34.0762 57.7048 35.4006 55.7676 35.6774C55.3822 35.7366 53.6229 35.786 51.8638 35.786H48.6716L48.7308 33.9676L49.3535 33.9478C49.6994 33.928 50.0354 33.8984 50.1144 33.8687C50.2133 33.8292 50.2331 33.0188 50.2133 30.1033L50.1837 26.397L48.6814 26.3377V24.5686L52.0813 24.5983C55.3723 24.628 55.5008 24.6378 56.1036 24.8849ZM54.9276 38.3952C56.7856 38.7807 58.2879 40.3917 58.7919 42.5363C59.1477 44.0385 58.9006 46.0744 58.2285 47.2605C56.756 49.8301 53.3561 50.6009 50.9051 48.9109C49.3832 47.8633 48.6024 46.0547 48.7012 43.7914C48.8692 40.1051 51.6463 37.7034 54.9276 38.3952ZM66.8467 38.4447C69.0902 38.9487 70.6813 41.3107 70.6813 44.1374C70.6813 47.4779 68.5763 49.7906 65.5422 49.8004C63.5259 49.8004 61.9051 48.7824 61.0255 46.964C60.0075 44.8787 60.2644 42.0816 61.6284 40.273C62.8836 38.6027 64.7317 37.9604 66.8467 38.4447ZM78.6867 38.4644C80.0111 38.8301 81.0687 39.7591 81.7307 41.1131C82.225 42.1409 82.4127 42.9217 82.4127 44.0979C82.4127 46.8157 81.2168 48.6836 78.9141 49.5435C78.4001 49.7411 78.0542 49.7906 77.3427 49.7906C74.9312 49.7906 73.2114 48.5057 72.3812 46.0547C72.2331 45.6099 72.1836 45.1949 72.1935 44.1374C72.1935 42.9514 72.2331 42.6944 72.4801 41.9829C73.1126 40.1445 74.3776 38.8696 75.9886 38.4447C76.7694 38.2272 77.8764 38.2371 78.6867 38.4644ZM55.313 52.3799C56.2025 52.6567 56.7658 53.0124 57.3983 53.7043C58.0606 54.4257 58.5745 55.4536 58.8116 56.521C59.0093 57.4401 58.9599 59.1894 58.703 59.9999C58.0012 62.2236 56.0345 63.7061 53.8206 63.6962C52.4173 63.6962 51.4191 63.3009 50.3813 62.3225C47.8017 59.9109 48.207 54.9002 51.1324 52.9532C51.4586 52.7358 51.9824 52.4788 52.2987 52.3799C53.0992 52.123 54.4928 52.123 55.313 52.3799ZM66.9059 52.3305C69.1495 52.9235 70.6813 55.246 70.6813 58.0331C70.6813 59.7627 70.2267 61.008 69.2186 62.0852C68.2303 63.1427 66.9356 63.7061 65.5026 63.6962C63.3085 63.6962 61.4999 62.3422 60.7092 60.0987C60.4127 59.2587 60.3337 57.5686 60.5512 56.5507C60.986 54.4949 62.3597 52.9136 64.198 52.3305C64.7515 52.1527 66.2439 52.1527 66.9059 52.3305ZM75.6427 52.9829C75.7614 53.3189 76.1567 54.4257 76.5322 55.4536C76.7847 56.1632 77.037 56.8492 77.1888 57.2613C77.2568 57.4462 77.3046 57.5759 77.3228 57.6279C77.3304 57.6467 77.3373 57.6652 77.3437 57.6827C77.3662 57.7436 77.384 57.7914 77.4101 57.7965C77.5053 57.8153 77.7122 57.2668 78.6738 54.7192L78.9338 54.0304L79.5565 52.3898H83.3417V54.1491H81.7703L81.8296 54.7025C81.8593 54.999 81.9087 56.175 81.9383 57.3215C81.968 58.458 82.0273 59.9208 82.0569 60.5632L82.1261 61.7294H83.1342V63.4887H78.5681V61.7294H80.3373L80.3274 61.4428C80.3174 60.7016 80.0309 55.6908 80.0012 55.6513C79.9814 55.6315 79.5169 56.8175 78.9734 58.2802L77.985 60.9486H76.7892L75.8997 58.458C75.4154 57.0943 75.0003 55.8885 74.9707 55.7896C74.8521 55.4042 74.773 55.6414 74.7433 56.4617C74.7335 56.9361 74.6741 58.0925 74.6247 59.0313C74.5655 59.9702 74.5259 60.9684 74.5259 61.2352V61.7294H76.3939L76.3345 63.4392L71.6203 63.4985V61.7393L72.7074 61.68L72.826 58.8731C72.8952 57.3314 72.9644 55.6414 72.9842 55.1176L73.0137 54.1589L71.5609 54.0996L71.5017 52.3898H75.4253L75.6427 52.9829ZM64.5934 26.3179C63.2591 26.8022 62.3597 28.1069 62.2114 29.8068C62.0336 31.6747 63.101 33.592 64.5735 34.0762C65.7002 34.4518 67.1333 34.0862 67.8746 33.2263C68.685 32.3072 69.11 30.7358 68.9123 29.4509C68.7838 28.6504 68.3489 27.672 67.8844 27.1481C67.153 26.3081 65.6706 25.9325 64.5934 26.3179ZM76.4729 26.2785C75.4946 26.5551 74.8719 27.1284 74.3579 28.2452C73.3894 30.3602 74.1504 33.0485 75.959 33.9379C76.3445 34.1356 76.6113 34.1751 77.3228 34.1751C78.0741 34.1751 78.2816 34.1356 78.7361 33.8984C80.1001 33.1769 80.9402 31.2101 80.6337 29.4213C80.4855 28.5417 79.932 27.3952 79.428 26.9604C78.6473 26.2785 77.4514 26.0017 76.4729 26.2785ZM51.9725 27.7213C51.9824 26.9901 51.9922 26.3871 52.0021 26.3674C52.012 26.2883 54.9276 26.3674 55.2636 26.4563C55.8665 26.6244 56.3606 27.1581 56.3606 27.6324C56.3606 28.2551 56.0938 28.6306 55.481 28.8876C55.224 28.9963 54.6903 29.0457 53.5341 29.0457H51.9527L51.9725 27.7213ZM51.9527 33.9181H52.2096C55.0066 33.9577 55.7676 33.9181 56.2222 33.7007C56.7658 33.4437 56.9832 33.0682 56.9832 32.4258C56.9832 32.0502 56.924 31.8823 56.667 31.5857C56.1728 31.0322 55.6096 30.9038 53.6131 30.9136H51.9527V33.9181ZM50.9643 41.9532C51.3499 41.1527 52.1405 40.4114 52.8224 40.2039C55.1747 39.4824 57.2303 41.2713 57.2106 44.0385C57.2007 46.5587 55.6095 48.3179 53.544 48.1005C51.0137 47.8337 49.6598 44.6019 50.9643 41.9532ZM64.6724 40.1545C62.1325 40.9353 61.332 44.9873 63.3085 47.132C63.9115 47.7843 64.6131 48.0807 65.6014 48.0807C66.2439 48.0807 66.4711 48.0313 66.9752 47.7843C68.3984 47.0925 69.2582 44.9873 68.8728 43.1392C68.4675 41.2219 67.3804 40.1545 65.7497 40.0754C65.3543 40.0654 64.8701 40.0951 64.6724 40.1545ZM74.4469 41.9038C74.773 41.2119 75.6131 40.4311 76.2357 40.2236C77.8072 39.7097 79.4577 40.3817 80.1692 41.8346C80.5251 42.566 80.7622 43.742 80.693 44.4239C80.6041 45.2047 80.268 46.1634 79.8925 46.7366C78.5583 48.7627 75.5637 48.5057 74.4172 46.2721C74.1504 45.7483 73.9033 44.6908 73.9033 44.0879C73.8934 43.5147 74.1405 42.5363 74.4469 41.9038ZM52.9312 54.0403C52.4469 54.1886 52.0516 54.4455 51.6266 54.9002C49.7389 56.8669 50.2133 60.583 52.4964 61.6998C53.277 62.0754 54.2852 62.0951 55.0956 61.7394C57.428 60.7115 57.9815 56.7878 56.0542 54.8705C55.6688 54.4752 55.3131 54.238 54.9671 54.1194C54.4434 53.9415 53.3958 53.902 52.9312 54.0403ZM62.2807 57.0547C62.5475 55.6216 63.5259 54.3862 64.6625 54.0403C65.1171 53.902 66.1647 53.9415 66.659 54.1095C67.2421 54.3072 68.003 54.9496 68.3391 55.5425C69.5942 57.7069 68.8234 60.8498 66.8171 61.7394C65.6212 62.2631 64.0794 61.937 63.269 60.9783C62.3794 59.9505 62.0039 58.468 62.2807 57.0547Z" fill="black"/>
</svg>
