<svg width="132" height="88" viewBox="0 0 132 88" fill="none" xmlns="http://www.w3.org/2000/svg">
<mask id="mask0_2056_26427" style="mask-type:luminance" maskUnits="userSpaceOnUse" x="30" y="8" width="72" height="72">
<path d="M101.982 43.9985C101.982 24.1256 85.8721 8.01562 65.9995 8.01562C46.1269 8.01562 30.0166 24.1256 30.0166 43.9985C30.0166 63.8713 46.1269 79.9817 65.9995 79.9817C85.8721 79.9817 101.982 63.8713 101.982 43.9985Z" fill="white"/>
</mask>
<g mask="url(#mask0_2056_26427)">
<path d="M101.982 43.9985C101.982 24.1256 85.8721 8.01562 65.9995 8.01562C46.1269 8.01562 30.0166 24.1256 30.0166 43.9985C30.0166 63.8713 46.1269 79.9817 65.9995 79.9817C85.8721 79.9817 101.982 63.8713 101.982 43.9985Z" fill="#FF4E51"/>
<path d="M47.6687 25.1604L37.8703 72.1268C36.5179 78.6108 40.678 84.9649 47.1629 86.3171L94.1285 96.1156C100.614 97.4689 106.967 93.309 108.32 86.8239L118.118 39.858C119.471 33.3733 115.311 27.0197 108.826 25.6669L61.86 15.8685C55.375 14.5156 49.0219 18.6757 47.6687 25.1604Z" fill="#FAD524"/>
<path d="M56.1035 49.908C56.1585 52.0544 57.2538 54.0861 59.148 55.5562C61.042 57.0264 63.5808 57.8143 66.2037 57.7466C68.8275 57.6792 71.3212 56.7616 73.1373 55.196C74.9534 53.6304 75.9431 51.5448 75.8881 49.3984" fill="black"/>
<path d="M56.8241 42.3815C56.8241 41.2884 56.1594 40.4023 55.3396 40.4023C54.5201 40.4023 53.8555 41.2884 53.8555 42.3815C53.8555 43.4744 54.5201 44.3604 55.3396 44.3604C56.1594 44.3604 56.8241 43.4744 56.8241 42.3815Z" fill="black"/>
<path d="M76.704 41.4789C76.704 40.386 76.0393 39.5 75.2198 39.5C74.4 39.5 73.7354 40.386 73.7354 41.4789C73.7354 42.572 74.4 43.4581 75.2198 43.4581C76.0393 43.4581 76.704 42.572 76.704 41.4789Z" fill="black"/>
</g>
</svg>
