<svg width="132" height="88" viewBox="0 0 132 88" fill="none" xmlns="http://www.w3.org/2000/svg">
<mask id="mask0_2056_26327" style="mask-type:luminance" maskUnits="userSpaceOnUse" x="30" y="14" width="64" height="64">
<path d="M30.0182 45.9293V46.0891C30.0112 47.2743 30.0671 48.459 30.1861 49.6382C32.1112 66.4011 46.7832 78.7495 63.6291 77.7839C80.4753 76.8184 93.6401 62.8748 93.6371 46.0014H87.8816C84.8712 45.9838 82.2353 48.0171 81.4879 50.9332C79.0739 60.5458 70.0581 66.9998 60.1809 66.1872C50.3026 65.3746 42.4643 57.5332 41.6546 47.6552C40.845 37.7772 47.3021 28.7641 56.9155 26.3537C59.8292 25.6008 61.8589 22.9674 61.8482 19.959V14.1719C44.3065 14.1938 30.0801 28.3876 30.0182 45.9293Z" fill="white"/>
</mask>
<g mask="url(#mask0_2056_26327)">
<path d="M107.538 1.27344H16.1504V92.6614H107.538V1.27344Z" fill="url(#paint0_linear_2056_26327)"/>
</g>
<path d="M71.552 43.6564L101.982 13.2257C100.032 11.266 97.3817 10.1641 94.616 10.1641C91.8514 10.1641 89.2007 11.266 87.2504 13.2257L64.1895 36.2864L71.552 43.6564Z" fill="#F7458D"/>
<path d="M56.6367 51.2039L69.6255 45.0013L62.8396 38.2148L56.6367 51.2039Z" fill="#32374F"/>
<defs>
<linearGradient id="paint0_linear_2056_26327" x1="61.0571" y1="27.4504" x2="61.0571" y2="69.5166" gradientUnits="userSpaceOnUse">
<stop stop-color="#54EBD8"/>
<stop offset="0.97" stop-color="#4744FB"/>
<stop offset="1" stop-color="#4744FB"/>
</linearGradient>
</defs>
</svg>
