<svg width="132" height="88" viewBox="0 0 132 88" fill="none" xmlns="http://www.w3.org/2000/svg">
<path fill-rule="evenodd" clip-rule="evenodd" d="M68.0979 76.2113V44.5708C68.0979 43.6229 68.6284 42.7547 69.4718 42.3221L97.6769 27.8557C98.9188 27.2188 99.4092 25.6956 98.7722 24.4537C98.5273 23.9762 98.1367 23.589 97.657 23.3483L71.0126 9.97759C69.0891 9.01233 66.8202 9.0238 64.9066 10.0085L37.9741 23.8664C34.8874 25.4546 32.9473 28.6348 32.9473 32.1061V57.2465C32.9473 59.7095 34.2909 61.9763 36.4515 63.1586L64.3576 78.4284C65.582 79.0983 67.1177 78.6489 67.7877 77.4245C67.9912 77.0525 68.0979 76.6353 68.0979 76.2113Z" fill="#0A073B"/>
</svg>
