<svg width="132" height="88" viewBox="0 0 132 88" fill="none" xmlns="http://www.w3.org/2000/svg">
<path d="M88.4424 9.89844H43.5585C37.1199 9.89844 31.9004 15.1179 31.9004 21.5565V66.4405C31.9004 72.8789 37.1199 78.0984 43.5585 78.0984H88.4424C94.8808 78.0984 100.1 72.8789 100.1 66.4405V21.5565C100.1 15.1179 94.8808 9.89844 88.4424 9.89844Z" fill="#333333"/>
<path fill-rule="evenodd" clip-rule="evenodd" d="M86.9037 49.3221C87.2102 49.0158 87.0868 48.4939 86.6757 48.3569L63.315 40.5777C62.8594 40.426 62.4261 40.8593 62.5777 41.315L70.357 64.6759C70.4941 65.087 71.0157 65.2101 71.3222 64.9038L77.1981 59.0276C77.4258 58.7999 77.7951 58.7999 78.0227 59.0276L85.3 66.3052C85.5276 66.5325 85.8969 66.5325 86.1242 66.3052L88.305 64.1244C88.5327 63.8968 88.5327 63.5278 88.305 63.2998L81.0277 56.0226C80.8001 55.7949 80.8001 55.426 81.0277 55.1983L86.9037 49.3221Z" fill="white"/>
<path d="M51.3336 30.8595V32.6229C51.3336 34.8272 51.2656 36.4905 51.1297 37.6127C50.9938 38.7349 50.5928 39.7703 49.9269 40.7188C49.2744 41.6673 48.2007 42.469 46.7055 43.1234C48.4589 43.8047 49.6686 44.8336 50.3346 46.2096C51.0006 47.5723 51.3336 49.4692 51.3336 51.9007V55.7284C51.3336 56.7569 51.4084 57.5383 51.5579 58.0728C51.721 58.6071 52.0539 59.0078 52.5569 59.2751C53.0734 59.5557 53.8889 59.696 55.0034 59.696H55.7985V62.9423H54.0044C51.7753 62.9423 50.1443 62.321 49.1113 61.0785C48.0919 59.8363 47.5822 57.7055 47.5822 54.6862V51.7003C47.5822 49.3224 47.2492 47.6057 46.5833 46.5503C45.9308 45.4948 44.7279 44.9138 42.9746 44.8069V41.4402C44.3746 41.3601 45.4008 41.006 46.0532 40.3781C46.7055 39.7502 47.1201 38.9487 47.2968 37.9734C47.4871 36.9981 47.5822 35.7424 47.5822 34.206V32.2422C47.5822 29.9443 47.7589 28.1742 48.1123 26.9318C48.4793 25.6894 49.1793 24.7743 50.2123 24.1864C51.2453 23.5986 52.7471 23.3047 54.718 23.3047H55.7985V26.531H55.35C54.2626 26.531 53.4336 26.6312 52.8627 26.8316C52.2918 27.0186 51.8908 27.4061 51.6598 27.9939C51.4424 28.5817 51.3336 29.5369 51.3336 30.8595Z" fill="#35BA67"/>
<path d="M80.666 32.6229V30.8595C80.666 29.5369 80.5575 28.5817 80.3399 27.9939C80.109 27.4061 79.708 27.0186 79.137 26.8316C78.5661 26.6312 77.737 26.531 76.6497 26.531H76.2012V23.3047H77.2817C79.2526 23.3047 80.7543 23.5986 81.7874 24.1864C82.8205 24.7743 83.5203 25.6894 83.8873 26.9318C84.241 28.1742 84.4177 29.9443 84.4177 32.2422V34.206C84.4177 35.7424 84.5125 36.9981 84.7031 37.9734C84.8798 38.9487 85.2942 39.7502 85.9466 40.3781C86.5991 41.0061 87.6253 41.3601 89.025 41.4402V44.8069L85.2942 43.1234C83.799 42.469 82.7253 41.6673 82.0729 40.7188C81.4068 39.7703 81.006 38.7349 80.8699 37.6127C80.7342 36.4905 80.666 34.8272 80.666 32.6229Z" fill="#35BA67"/>
</svg>
