<svg width="132" height="88" viewBox="0 0 132 88" fill="none" xmlns="http://www.w3.org/2000/svg">
<path d="M65.9996 77.2766C84.3769 77.2766 99.2746 62.3788 99.2746 44.0016C99.2746 25.6243 84.3769 10.7266 65.9996 10.7266C47.6223 10.7266 32.7246 25.6243 32.7246 44.0016C32.7246 62.3788 47.6223 77.2766 65.9996 77.2766Z" fill="#4912F6"/>
<path fill-rule="evenodd" clip-rule="evenodd" d="M74.3358 50.5885C74.3358 50.5885 73.907 57.7644 66.0362 57.7644C58.1654 57.7644 57.7369 50.5885 57.7369 50.5885V50.2618C57.7369 49.9431 58.0069 49.6926 58.3224 49.7224C59.9189 49.8748 62.8659 50.2808 66.0362 50.2808C69.2071 50.2808 72.1534 49.8748 73.7506 49.7224C74.0658 49.6924 74.3361 49.9431 74.3361 50.2618L74.3358 50.5885ZM60.3267 43.0412C61.5199 43.0412 62.4877 44.0186 62.4877 45.2234C62.4877 46.4289 61.5199 47.4057 60.3267 47.4057C59.1335 47.4057 58.1656 46.4289 58.1656 45.2232C58.1656 44.0186 59.1335 43.0412 60.3267 43.0412ZM71.746 43.0412C72.9399 43.0412 73.9072 44.0186 73.9072 45.2234C73.9072 46.4289 72.9399 47.4057 71.746 47.4057C70.5528 47.4057 69.5848 46.4289 69.5848 45.2232C69.5848 44.0186 70.5528 43.0412 71.746 43.0412ZM66.0362 32.4492C57.8561 32.4492 51.2246 39.1457 51.2246 47.4057C51.2246 55.6664 57.8561 62.3627 66.0359 62.3627C74.2169 62.3627 80.8483 55.6664 80.8483 47.4057C80.8483 39.1457 74.2169 32.4492 66.0362 32.4492Z" fill="white"/>
<path fill-rule="evenodd" clip-rule="evenodd" d="M84.7678 38.6623C82.0834 30.4988 74.5686 25.0195 66.0368 25.0195C57.5041 25.0195 49.9899 30.4988 47.3051 38.6623C45.4769 38.6789 44 40.1797 44 42.0297V48.2769C44 50.1374 45.4939 51.6456 47.3362 51.6456H49.1474C49.9675 51.6456 50.633 50.9745 50.633 50.1456V40.1604C50.633 39.436 50.1233 38.8306 49.4459 38.6912C52.0219 31.7097 58.5984 27.0698 66.0368 27.0698C73.4743 27.0698 80.051 31.7097 82.627 38.6912C81.9494 38.8306 81.4399 39.436 81.4399 40.1604V50.1456C81.4399 50.9747 82.1052 51.6456 82.9262 51.6456H84.7367C86.5787 51.6456 88.0729 50.1373 88.0729 48.2771V42.0297C88.0729 40.1795 86.5958 38.6788 84.7678 38.6623Z" fill="white"/>
<path fill-rule="evenodd" clip-rule="evenodd" d="M88.1034 42.0306V48.2807C88.1034 50.1416 86.6129 51.6508 84.7691 51.6508H82.9581C82.2231 51.6508 81.6099 51.1094 81.4922 50.4C81.5733 50.413 81.6547 50.4206 81.7398 50.4206H83.551C85.3947 50.4206 86.8854 48.9115 86.8854 47.0499V40.8004C86.887 40.2086 86.7312 39.627 86.4343 39.1152C87.4331 39.6933 88.1034 40.7841 88.1034 42.0306ZM80.8469 47.4089C80.8469 55.6676 74.2154 62.3638 66.0327 62.3638C61.6348 62.3638 57.6837 60.4282 54.9668 57.3528C57.5819 59.7024 61.0338 61.1336 64.8144 61.1336C72.9971 61.1336 79.6286 54.4374 79.6286 46.1787C79.6286 42.3609 78.2115 38.8755 75.8845 36.2305C78.9301 38.9738 80.8469 42.9639 80.8469 47.4089Z" fill="#F2F2F2"/>
</svg>
