<svg width="132" height="88" viewBox="0 0 132 88" fill="none" xmlns="http://www.w3.org/2000/svg">
<path fill-rule="evenodd" clip-rule="evenodd" d="M62.2619 65.6107C60.5689 65.6107 58.8759 65.5402 57.1829 65.4697C55.49 65.3992 53.7265 65.1877 51.6102 64.9762V24.8585C52.8094 24.7175 54.1497 24.506 55.5605 24.4355C57.1124 24.2945 59.0875 24.2945 61.4859 24.2945C63.4255 24.2715 65.3627 24.4368 67.2702 24.788C68.9299 25.0816 70.5278 25.6537 71.9965 26.4801C73.318 27.2368 74.4138 28.332 75.1708 29.6529C75.98 31.1682 76.3696 32.872 76.2994 34.5883C76.3188 35.7125 76.1519 36.8322 75.8056 37.902C75.4796 38.8421 75.0031 39.7231 74.3948 40.5108C73.8636 41.2458 73.1924 41.8687 72.4197 42.3439C71.7615 42.7964 71.0171 43.1084 70.2329 43.2605V43.6835C71.1993 43.8366 72.1457 44.0967 73.0546 44.4591C74.1012 44.8991 75.0761 45.4932 75.9467 46.2217C76.8622 47.0839 77.6044 48.1129 78.1335 49.2534C78.7311 50.681 79.0196 52.2188 78.98 53.7658C79.0811 55.8026 78.6172 57.8278 77.6397 59.6178C76.7723 61.1317 75.5028 62.3762 73.9716 63.2136C72.3122 64.1483 70.4949 64.7697 68.6105 65.0467C66.5204 65.4599 64.3921 65.649 62.2619 65.6107ZM59.3697 59.1242H59.5813C60.1889 59.2118 60.8016 59.2589 61.4154 59.2652C62.0484 59.3239 62.6843 59.3475 63.32 59.3358C64.1706 59.3297 65.0195 59.2589 65.8594 59.1242C66.7305 58.9681 67.5666 58.6577 68.3283 58.2077C69.109 57.7686 69.7645 57.1376 70.2329 56.3745C70.779 55.4342 71.048 54.3588 71.0089 53.2723C71.0335 52.2563 70.8411 51.2468 70.4446 50.311C70.0566 49.5394 69.4728 48.883 68.7516 48.4074C67.9953 47.8819 67.1249 47.5436 66.2121 47.4203C65.1435 47.2122 64.0558 47.1177 62.9673 47.1383H59.3697V59.1242ZM62.2619 29.9349C61.3665 29.9371 60.4719 29.9841 59.5813 30.0759H59.4402V41.2863H62.1208C63.0224 41.301 63.9225 41.2063 64.8013 41.0043C65.5879 40.8602 66.3339 40.5475 66.9881 40.0877C67.6437 39.6273 68.157 38.9921 68.4694 38.2546C68.8403 37.3378 69.0088 36.3517 68.9632 35.3638C69.0043 34.4067 68.7849 33.4564 68.3283 32.6141C67.9403 31.9213 67.3819 31.3389 66.7059 30.922C66.0469 30.485 65.3008 30.1963 64.5192 30.0759C63.8137 30.0054 62.9673 29.9349 62.2619 29.9349Z" fill="#343333"/>
<path d="M85.3292 57.7141H89.491V54.2593H97.0389V57.7141H101.201L93.2297 65.6813L85.3292 57.7141Z" fill="#40D1F5"/>
<path d="M30.8008 78.5133V9.48828H97.0383V54.3299H89.4905V17.1029H38.4192V70.8987H90.6897V78.5133H30.8008Z" fill="#40D1F5"/>
</svg>
