<svg width="132" height="88" viewBox="0 0 132 88" fill="none" xmlns="http://www.w3.org/2000/svg">
<path d="M63.6651 74.2643C60.6657 74.2643 57.8361 74.0945 55.1762 73.7549C52.5164 73.472 50.3375 72.9909 48.6398 72.3118C46.942 71.6327 45.9516 70.7555 45.6686 69.6803C46.5741 69.2841 47.2532 68.7465 47.706 68.0674C48.2153 67.3882 48.6115 66.4545 48.8944 65.266C49.234 64.021 49.5735 62.4081 49.9131 60.4273L54.4971 36.3188C55.2328 32.1875 56.6476 29.0183 58.7416 26.8112C60.8355 24.5475 64.033 23.4156 68.334 23.4156C70.5412 23.4156 72.4087 23.8118 73.9367 24.6041C75.4647 25.3964 76.3136 26.4717 76.4834 27.8299C74.8988 28.3958 73.8801 29.4711 73.4274 31.0557C72.9747 32.5837 72.5785 34.2249 72.239 35.9792L71.5598 39.5446H72.4087C75.5213 39.5446 77.9831 39.0353 79.7941 38.0166C81.6617 36.9979 82.9916 35.7246 83.7839 34.1966C84.5762 32.6686 84.9723 31.084 84.9723 29.4428C84.9723 26.2736 83.5292 23.7835 80.643 21.9725C77.7568 20.1616 73.8801 19.2561 69.0132 19.2561C66.5797 19.2561 64.1179 19.5956 61.6278 20.2747C59.1943 20.8973 56.9589 21.8876 54.9216 23.2459C52.8842 24.6041 51.243 26.3019 49.998 28.3392C48.7529 30.3766 48.1304 32.8101 48.1304 35.6397C48.1304 37.3375 48.2719 38.9221 48.5549 40.3935C48.8944 41.8649 49.5169 43.5344 50.4224 45.4019C49.5735 46.3074 48.5549 46.9865 47.3664 47.4393C46.2346 47.8354 45.1876 48.0335 44.2255 48.0335C41.7354 48.0335 39.6132 47.4676 37.8588 46.3357C36.1045 45.2039 34.7745 43.7325 33.869 41.9215C33.0201 40.0539 32.5957 38.1015 32.5957 36.0641C32.5957 31.8763 34.0105 28.0846 36.8402 24.689C39.6698 21.2934 43.8011 18.6336 49.234 16.7094C54.6669 14.7287 61.2882 13.7383 69.0981 13.7383C72.6068 13.7383 76.1156 13.9647 79.6243 14.4174C83.1331 14.8701 86.3306 15.6341 89.2168 16.7094C92.103 17.7847 94.4233 19.2278 96.1777 21.0388C97.9321 22.8497 98.8093 25.1134 98.8093 27.8299C98.8093 29.8106 98.3282 31.6499 97.3662 33.3477C96.4041 34.9889 95.159 36.4603 93.631 37.7619C92.1596 39.007 90.6033 39.9973 88.9621 40.733C90.4335 41.1858 91.9615 41.8932 93.5461 42.8553C95.1873 43.7608 96.5739 45.0341 97.7057 46.6753C98.8376 48.3165 99.4035 50.467 99.4035 53.1269C99.4035 56.0131 98.781 58.7295 97.5359 61.2762C96.2909 63.8229 94.2818 66.0866 91.5088 68.0674C88.7923 69.9915 85.1421 71.4912 80.5581 72.5665C75.9741 73.6983 70.3431 74.2643 63.6651 74.2643ZM66.5514 68.4069C70.0601 68.4069 73.003 67.7561 75.3799 66.4545C77.8133 65.1528 79.6243 63.4267 80.8128 61.2762C82.0012 59.0691 82.5954 56.6639 82.5954 54.0606C82.5954 51.0046 81.5485 48.8258 79.4545 47.5242C77.4172 46.2225 74.4178 45.4868 70.4563 45.3171L67.9096 58.6447C67.2871 61.7007 66.608 63.9644 65.8723 65.4358C65.1366 66.9072 64.3726 67.8127 63.5803 68.1522C64.1462 68.2088 64.6555 68.2654 65.1083 68.322C65.6176 68.3786 66.0986 68.4069 66.5514 68.4069Z" fill="white"/>
<path fill-rule="evenodd" clip-rule="evenodd" d="M48.8944 65.265C48.6115 66.4535 48.2153 67.3873 47.706 68.0664C47.2532 68.7455 46.5741 69.2831 45.6686 69.6793C45.7354 69.9331 45.8417 70.1759 45.9873 70.4077C46.4586 71.1577 47.3428 71.7921 48.6398 72.3108C49.9131 72.8202 51.4571 73.2181 53.2717 73.5046C53.8765 73.6001 54.5113 73.6832 55.1762 73.754C57.5086 74.0517 59.9716 74.2189 62.5651 74.2556C62.6995 74.2575 62.8343 74.259 62.9694 74.2602C63.2003 74.2623 63.4322 74.2633 63.6651 74.2633C63.9 74.2633 64.1335 74.2626 64.3657 74.2612C64.3933 74.261 64.4208 74.2609 64.4483 74.2607C65.0364 74.2567 65.6162 74.2482 66.1877 74.2353C66.3093 74.2325 66.4305 74.2295 66.5514 74.2264C67.2408 74.2083 67.9179 74.1836 68.5828 74.1523C72.4141 73.9717 75.8381 73.571 78.8548 72.9501C78.8796 72.945 78.9044 72.9399 78.9291 72.9348C79.319 72.8539 79.7022 72.7693 80.0784 72.681C80.2396 72.6432 80.3994 72.6047 80.5581 72.5655C85.1421 71.4902 88.7923 69.9905 91.5088 68.0664C94.2818 66.0856 96.2909 63.8219 97.5359 61.2752C98.781 58.7286 99.4035 56.0121 99.4035 53.1259C99.4035 50.466 98.8376 48.3155 97.7057 46.6743C97.3545 46.165 96.9787 45.6911 96.5784 45.2527C95.6888 44.2782 94.678 43.4788 93.5461 42.8543C91.9615 41.8922 90.4335 41.1848 88.9621 40.7321C90.6033 39.9964 92.1596 39.006 93.631 37.7609C94.5111 37.0112 95.2973 36.2052 95.9896 35.3429C96.4994 34.708 96.9582 34.0426 97.3662 33.3467C98.3282 31.6489 98.8093 29.8096 98.8093 27.8289C98.8093 25.1124 97.9321 22.8487 96.1777 21.0378C94.4233 19.2268 92.103 17.7837 89.2168 16.7084C87.7535 16.1633 86.2102 15.6981 84.5869 15.313C83.0083 14.9385 81.3542 14.6396 79.6243 14.4164C76.1156 13.9637 72.6068 13.7373 69.098 13.7373C69.0697 13.7373 69.0414 13.7373 69.0132 13.7373C65.84 13.7403 62.8636 13.907 60.0837 14.2377C60.0507 14.2416 60.0177 14.2455 59.9848 14.2495C57.285 14.5749 54.7713 15.0554 52.4437 15.6909C51.3313 15.9947 50.2614 16.3338 49.234 16.7084C43.8011 18.6326 39.6698 21.2924 36.8402 24.688C34.0105 28.0836 32.5957 31.8753 32.5957 36.0632C32.5957 38.1005 33.0201 40.0529 33.869 41.9205C34.7745 43.7315 36.1044 45.2029 37.8588 46.3347C39.34 47.2903 41.0834 47.8425 43.0889 47.9914C43.4589 48.0188 43.8377 48.0325 44.2255 48.0325C44.2814 48.0325 44.3376 48.0319 44.3941 48.0305C44.6254 48.025 44.8614 48.0084 45.1022 47.9805C45.8149 47.8979 46.5696 47.7172 47.3664 47.4383C48.5549 46.9856 49.5735 46.3065 50.4224 45.401C49.5169 43.5334 48.8944 41.8639 48.5549 40.3925C48.2719 38.9211 48.1304 37.3365 48.1304 35.6387C48.1304 35.4863 48.1322 35.3351 48.1358 35.185C48.1364 35.1595 48.1371 35.1341 48.1378 35.1087C48.2113 32.504 48.8314 30.2472 49.998 28.3382C51.2389 26.3076 52.8735 24.6142 54.9016 23.2582C54.9082 23.2538 54.9149 23.2493 54.9216 23.2449C54.9337 23.2368 54.9458 23.2287 54.958 23.2207C55.1199 23.1132 55.283 23.0081 55.4474 22.9052C57.3418 21.7203 59.4019 20.8432 61.6278 20.2738C63.8865 19.6578 66.1219 19.3211 68.334 19.2639C68.5607 19.258 68.787 19.2551 69.0132 19.2551C69.0415 19.2551 69.0698 19.2551 69.098 19.2552C71.7927 19.261 74.1823 19.5458 76.2668 20.1094C77.1593 20.3507 77.9959 20.6431 78.7765 20.9866C79.4389 21.2781 80.0611 21.6064 80.643 21.9715C80.942 22.1592 81.2255 22.3541 81.4936 22.5563C82.4506 23.2782 83.2101 24.093 83.7722 25.0008C84.5723 26.2929 84.9723 27.7732 84.9723 29.4418C84.9723 30.1569 84.8971 30.8613 84.7467 31.555C84.6198 32.1399 84.4395 32.7172 84.2056 33.2869C84.0804 33.592 83.9398 33.8949 83.7839 34.1956C83.6943 34.3683 83.598 34.5377 83.4947 34.7038C82.6841 36.0081 81.4506 37.112 79.7941 38.0156C79.7693 38.0295 79.7444 38.0434 79.7194 38.0571C79.285 38.2958 78.814 38.5057 78.3062 38.6868C76.7728 39.2339 74.9046 39.519 72.7017 39.5421C72.6047 39.5431 72.507 39.5436 72.4087 39.5436H71.5598L72.239 35.9783C72.2941 35.6936 72.3506 35.4119 72.4087 35.1331C72.6519 33.9663 72.9211 32.8518 73.2165 31.7895C73.2854 31.5417 73.3557 31.2968 73.4274 31.0547C73.8102 29.7148 74.5977 28.7391 75.7898 28.1275C76.0075 28.0158 76.2387 27.9163 76.4834 27.8289C76.4148 27.28 76.2353 26.7773 75.9448 26.3208C75.5166 25.6478 74.8472 25.0752 73.9367 24.6031C72.6153 23.9179 71.04 23.529 69.2107 23.4364C69.1452 23.4331 69.0793 23.4301 69.0132 23.4276C68.7905 23.419 68.5641 23.4147 68.334 23.4147C66.1859 23.4147 64.313 23.697 62.7154 24.2617C62.6948 24.269 62.6742 24.2763 62.6536 24.2837C61.0802 24.8496 59.7762 25.6917 58.7416 26.8102C58.4586 27.1084 58.1881 27.4242 57.93 27.7576C57.0412 28.9053 56.2994 30.2614 55.7046 31.8256C55.2646 32.9827 54.905 34.2537 54.6259 35.6387C54.5809 35.8621 54.5379 36.0885 54.4971 36.3178L49.9131 60.4264C49.5735 62.4071 49.234 64.02 48.8944 65.265ZM42.9294 55.7341L42.2989 59.0499L42.287 59.119C41.9872 60.8679 41.7115 62.1633 41.4725 63.0697L36.5009 65.2448L38.1861 71.6484C39.4074 76.2893 43.258 78.4914 45.7662 79.4947C48.3269 80.519 51.2348 81.1106 54.2763 81.4391C57.2724 81.8178 60.4049 82.0006 63.6651 82.0006C70.7133 82.0006 76.9949 81.4097 82.3685 80.0881C87.5347 78.8723 92.1977 77.0601 95.9811 74.3802L95.9936 74.3714L96.006 74.3625C99.6146 71.7849 102.574 68.5869 104.487 64.6735C106.259 61.049 107.141 57.1678 107.141 53.1259C107.141 49.4126 106.351 45.5822 104.075 42.2816C103.506 41.4558 102.885 40.6764 102.212 39.9484C102.879 39.0969 103.489 38.2006 104.041 37.2596L104.07 37.2107L104.098 37.1613C105.729 34.282 106.547 31.1257 106.547 27.8289C106.547 23.2739 105.002 19.0268 101.735 15.6542C99.0217 12.8535 95.6487 10.8478 91.918 9.45794C88.4049 8.14914 84.6233 7.26 80.6145 6.74273C76.7801 6.24797 72.9406 6 69.098 6C60.6952 6 53.1319 7.05769 46.6175 9.42688C40.2777 11.6771 34.8401 15.002 30.8962 19.7347C26.9773 24.4374 24.8584 29.9596 24.8584 36.0632C24.8584 39.2129 25.5226 42.2563 26.8253 45.1222L26.8845 45.2526L26.9486 45.3807C28.4938 48.4712 30.7832 50.9777 33.6642 52.8364C36.5136 54.6747 39.688 55.5531 42.9294 55.7341ZM63.5802 68.1513C63.6087 68.1541 63.637 68.157 63.6651 68.1598C64.1972 68.2136 64.6783 68.2673 65.1083 68.3211C65.6176 68.3776 66.0986 68.4059 66.5514 68.4059C68.1525 68.4059 69.6359 68.2704 71.0013 67.9994C71.8836 67.8242 72.7168 67.5925 73.5007 67.3042C74.1621 67.0609 74.7885 66.7773 75.3798 66.4535C75.9762 66.1345 76.5352 65.79 77.0569 65.42C78.6636 64.2803 79.9156 62.8987 80.8128 61.2752C82.0012 59.0681 82.5954 56.6629 82.5954 54.0597C82.5954 51.0037 81.5485 48.8248 79.4545 47.5232C79.0294 47.2516 78.5623 47.0046 78.0534 46.7823C78.0416 46.7771 78.0297 46.7719 78.0178 46.7668C78.0098 46.7633 78.0017 46.7598 77.9936 46.7563C76.492 46.1102 74.6304 45.6758 72.4087 45.4533C72.1314 45.4255 71.8484 45.401 71.5598 45.3798C71.2007 45.3535 70.8328 45.3322 70.4563 45.3161L67.9096 58.6437C67.7648 59.3544 67.617 60.0223 67.4661 60.6473C67.1727 61.8623 66.8678 62.9154 66.5514 63.8065C66.3306 64.428 66.1043 64.9708 65.8723 65.4348C65.7003 65.7788 65.5267 66.0919 65.3516 66.374C65.3407 66.3916 65.3297 66.4092 65.3188 66.4266C65.3002 66.4561 65.2815 66.4853 65.2629 66.5141C64.7438 67.3172 64.2112 67.8501 63.6651 68.1127C63.6369 68.1263 63.6086 68.1391 63.5802 68.1513Z" fill="url(#paint0_linear_2201_6033)"/>
<defs>
<linearGradient id="paint0_linear_2201_6033" x1="115.697" y1="12.6404" x2="21.8517" y2="24.3104" gradientUnits="userSpaceOnUse">
<stop offset="0.0291409" stop-color="#FFAF00"/>
<stop offset="0.768086" stop-color="#FE274B"/>
</linearGradient>
</defs>
</svg>
