<svg width="132" height="88" viewBox="0 0 132 88" fill="none" xmlns="http://www.w3.org/2000/svg">
<path d="M28.733 18.8359H28.0449V69.1609H28.733V18.8359Z" fill="#3A3A3A"/>
<path d="M31.4853 18.8359H30.7972V69.1609H31.4853V18.8359Z" fill="#3A3A3A"/>
<path d="M34.2374 18.8359H33.5493V69.1609H34.2374V18.8359Z" fill="#3A3A3A"/>
<path d="M36.9896 18.8359H36.3016V69.1609H36.9896V18.8359Z" fill="#3A3A3A"/>
<path d="M39.742 18.8359H39.0539V69.1609H39.742V18.8359Z" fill="#3A3A3A"/>
<path d="M103.256 67.4857L101.192 63.7631V18.8359H100.504V62.5222L98.4401 58.8002V18.8359H97.7521V57.5586L95.6879 53.8366V18.8359H94.9999V52.5957L92.9357 48.8724V18.8359H92.2476V47.6322L76.2813 18.8359H75.4934L103.398 69.1609H103.945V18.8359H103.256V67.4857Z" fill="#3A3A3A"/>
<path d="M95.9287 69.1609L68.0246 18.8359H67.2368L95.1409 69.1609H95.9287Z" fill="#3A3A3A"/>
<path d="M101.433 69.1609L73.529 18.8359H72.7412L100.645 69.1609H101.433Z" fill="#3A3A3A"/>
<path d="M98.681 69.1609L70.7769 18.8359H69.9891L97.8932 69.1609H98.681Z" fill="#3A3A3A"/>
<path d="M53.5031 53.6498C53.5031 49.6583 50.2624 46.4113 46.2785 46.4113H39.3979V47.1007H46.2785C49.8825 47.1007 52.815 50.0389 52.815 53.6498C52.815 57.2608 49.8825 60.1989 46.2785 60.1989H39.3979V60.8883H46.2785C50.2617 60.8883 53.5031 57.6413 53.5031 53.6498Z" fill="#3A3A3A"/>
<path d="M50.7509 53.6498C50.7509 51.179 48.7445 49.1688 46.2785 49.1688H39.3979V49.8582H46.2785C48.3654 49.8582 50.0628 51.5596 50.0628 53.6498C50.0628 55.74 48.3647 57.4414 46.2785 57.4414H39.3979V58.1308H46.2785C48.7438 58.1308 50.7509 56.1206 50.7509 53.6498Z" fill="#3A3A3A"/>
<path d="M56.2553 53.6499C56.2553 48.1383 51.7795 43.6538 46.2785 43.6538H39.3979V44.3432H46.2785C51.3997 44.3432 55.5672 48.5189 55.5672 53.6499C55.5672 58.781 51.3997 62.9566 46.2785 62.9566H39.3979V63.646H46.2785C51.7795 63.646 56.2553 59.1615 56.2553 53.6499Z" fill="#3A3A3A"/>
<path d="M59.0076 53.6497C59.0076 46.6173 53.2973 40.8961 46.2785 40.8961H39.3979V41.5855H46.2785C52.9176 41.5855 58.3195 46.9986 58.3195 53.6497C58.3195 60.3009 52.9176 65.7139 46.2785 65.7139H39.3979V66.4033H46.2785C53.2973 66.4033 59.0076 60.6822 59.0076 53.6497Z" fill="#3A3A3A"/>
<path d="M61.7598 34.3471C61.7598 25.7946 54.8146 18.8359 46.2785 18.8359H39.3979V19.5253H46.2785C54.4347 19.5253 61.0717 26.1744 61.0717 34.3471C61.0717 37.6479 59.9536 40.8638 57.9335 43.4573C57.4767 42.9333 56.9854 42.4411 56.4631 41.9827C58.1234 39.7656 59.0076 37.1356 59.0076 34.3471C59.0076 27.3147 53.2973 21.5935 46.2785 21.5935H39.3979V22.2829H46.2785C52.9176 22.2829 58.3195 27.6952 58.3195 34.3471C58.3195 36.9729 57.4904 39.4485 55.9354 41.5394C55.398 41.1086 54.8338 40.7114 54.242 40.3544C55.5384 38.6288 56.2553 36.5152 56.2553 34.3471C56.2553 28.8354 51.7795 24.351 46.2785 24.351H39.3979V25.0404H46.2785C51.3997 25.0404 55.5672 29.2153 55.5672 34.3471C55.5672 36.3939 54.8813 38.3896 53.6414 40.0083C53.0187 39.6691 52.3692 39.374 51.6983 39.1217C52.8611 37.8009 53.5031 36.1257 53.5031 34.3471C53.5031 30.3555 50.2624 27.1085 46.2785 27.1085H39.3979V27.7979H46.2785C49.8825 27.7979 52.815 30.736 52.815 34.3471C52.815 36.0505 52.1662 37.6513 50.9931 38.8763C50.1585 38.6081 49.2929 38.411 48.4039 38.2882C49.8 37.5292 50.7509 36.0471 50.7509 34.3471C50.7509 31.8763 48.7445 29.8661 46.2785 29.8661H39.3979V30.5555H46.2785C48.3654 30.5555 50.0628 32.2569 50.0628 34.3471C50.0628 36.4373 48.3647 38.1387 46.2785 38.1387H39.3979V38.8281H46.2785C54.4347 38.8281 61.0717 45.4772 61.0717 53.6498C61.0717 61.8224 54.4347 68.4715 46.2785 68.4715H39.3979V69.1609H46.2785C54.8146 69.1609 61.7598 62.2023 61.7598 53.6498C61.7598 50.0043 60.4951 46.6512 58.3862 43.9998C60.5591 41.2664 61.7598 37.8505 61.7598 34.3471Z" fill="#3A3A3A"/>
<path d="M93.1765 69.1609L65.2717 18.8359H64.7254V69.1609H65.4134V20.5111L67.4776 24.2338V69.1609H68.1656V25.4747L70.2298 29.1974V69.1609H70.9178V30.4383L72.982 34.1609V69.1609H73.6701V35.4018L75.7343 39.1245V69.1609H76.4223V40.3654L92.3887 69.1609H93.1765Z" fill="#3A3A3A"/>
<path d="M40.4298 27.7979H39.7418V29.866H40.4298V27.7979ZM40.4298 25.0403H39.7418V27.1085H40.4298V25.0403ZM40.4298 22.2828H39.7418V24.351H40.4298V22.2828ZM40.4298 19.5253H39.7418V21.5934H40.4298V19.5253Z" fill="#CBCBCB"/>
<path d="M40.4298 29.866H39.7418V30.5555H40.4298V29.866ZM40.4298 27.1085H39.7418V27.7979H40.4298V27.1085ZM40.4298 24.351H39.7418V25.0403H40.4298V24.351ZM40.4298 21.5934H39.7418V22.2828H40.4298V21.5934ZM40.4298 18.8359H39.7418V19.5253H40.4298V18.8359Z" fill="#282828"/>
<path d="M41.1181 27.7979H40.43V29.866H41.1181V27.7979ZM41.1181 25.0403H40.43V27.1085H41.1181V25.0403ZM41.1181 22.2828H40.43V24.351H41.1181V22.2828ZM41.1181 19.5253H40.43V21.5934H41.1181V19.5253Z" fill="#D5D5D5"/>
<path d="M41.1181 29.866H40.43V30.5555H41.1181V29.866ZM41.1181 27.1085H40.43V27.7979H41.1181V27.1085ZM41.1181 24.351H40.43V25.0403H41.1181V24.351ZM41.1181 21.5934H40.43V22.2828H41.1181V21.5934ZM41.1181 18.8359H40.43V19.5253H41.1181V18.8359Z" fill="#2C2C2C"/>
<path d="M41.8061 27.7979H41.1181V29.866H41.8061V27.7979ZM41.8061 25.0403H41.1181V27.1085H41.8061V25.0403ZM41.8061 22.2828H41.1181V24.351H41.8061V22.2828ZM41.8061 19.5253H41.1181V21.5934H41.8061V19.5253Z" fill="#DFDFDF"/>
<path d="M41.8061 29.866H41.1181V30.5555H41.8061V29.866ZM41.8061 27.1085H41.1181V27.7979H41.8061V27.1085ZM41.8061 24.351H41.1181V25.0403H41.8061V24.351ZM41.8061 21.5934H41.1181V22.2828H41.8061V21.5934ZM41.8061 18.8359H41.1181V19.5253H41.8061V18.8359Z" fill="#313131"/>
<path d="M42.4941 27.7979H41.8061V29.866H42.4941V27.7979ZM42.4941 25.0403H41.8061V27.1085H42.4941V25.0403ZM42.4941 22.2828H41.8061V24.351H42.4941V22.2828ZM42.4941 19.5253H41.8061V21.5934H42.4941V19.5253Z" fill="#E9E9E9"/>
<path d="M42.4941 29.866H41.8061V30.5555H42.4941V29.866ZM42.4941 27.1085H41.8061V27.7979H42.4941V27.1085ZM42.4941 24.351H41.8061V25.0403H42.4941V24.351ZM42.4941 21.5934H41.8061V22.2828H42.4941V21.5934ZM42.4941 18.8359H41.8061V19.5253H42.4941V18.8359Z" fill="#353535"/>
<path d="M43.1822 27.7979H42.4941V29.866H43.1822V27.7979ZM43.1822 25.0403H42.4941V27.1085H43.1822V25.0403ZM43.1822 22.2828H42.4941V24.351H43.1822V22.2828ZM43.1822 19.5253H42.4941V21.5934H43.1822V19.5253Z" fill="#F3F3F3"/>
<path d="M43.1822 29.866H42.4941V30.5555H43.1822V29.866ZM43.1822 27.1085H42.4941V27.7979H43.1822V27.1085ZM43.1822 24.351H42.4941V25.0403H43.1822V24.351ZM43.1822 21.5934H42.4941V22.2828H43.1822V21.5934ZM43.1822 18.8359H42.4941V19.5253H43.1822V18.8359Z" fill="#393939"/>
<path d="M40.4298 47.1006H39.7418V49.1687H40.4298V47.1006ZM40.4298 44.343H39.7418V46.4112H40.4298V44.343ZM40.4298 41.5855H39.7418V43.6537H40.4298V41.5855ZM40.4298 38.828H39.7418V40.8961H40.4298V38.828Z" fill="#CBCBCB"/>
<path d="M40.4298 46.4112H39.7418V47.1006H40.4298V46.4112Z" fill="#282828"/>
<path d="M40.4298 49.1687H39.7418V49.8582H40.4298V49.1687Z" fill="#282828"/>
<path d="M40.4298 43.6537H39.7418V44.343H40.4298V43.6537Z" fill="#282828"/>
<path d="M40.4298 40.8961H39.7418V41.5855H40.4298V40.8961Z" fill="#282828"/>
<path d="M40.4298 38.1387H39.7418V38.828H40.4298V38.1387Z" fill="#282828"/>
<path d="M41.1181 47.1006H40.43V49.1687H41.1181V47.1006ZM41.1181 44.343H40.43V46.4112H41.1181V44.343ZM41.1181 41.5855H40.43V43.6537H41.1181V41.5855ZM41.1181 38.828H40.43V40.8961H41.1181V38.828Z" fill="#D5D5D5"/>
<path d="M41.1181 46.4112H40.43V47.1006H41.1181V46.4112Z" fill="#2C2C2C"/>
<path d="M41.1181 49.1687H40.43V49.8582H41.1181V49.1687Z" fill="#2C2C2C"/>
<path d="M41.1181 43.6537H40.43V44.343H41.1181V43.6537Z" fill="#2C2C2C"/>
<path d="M41.1181 40.8961H40.43V41.5855H41.1181V40.8961Z" fill="#2C2C2C"/>
<path d="M41.1181 38.1387H40.43V38.828H41.1181V38.1387Z" fill="#2C2C2C"/>
<path d="M41.8061 47.1006H41.1181V49.1687H41.8061V47.1006ZM41.8061 44.343H41.1181V46.4112H41.8061V44.343ZM41.8061 41.5855H41.1181V43.6537H41.8061V41.5855ZM41.8061 38.828H41.1181V40.8961H41.8061V38.828Z" fill="#DFDFDF"/>
<path d="M41.8061 46.4112H41.1181V47.1006H41.8061V46.4112Z" fill="#313131"/>
<path d="M41.8061 49.1687H41.1181V49.8582H41.8061V49.1687Z" fill="#313131"/>
<path d="M41.8061 43.6537H41.1181V44.343H41.8061V43.6537Z" fill="#313131"/>
<path d="M41.8061 40.8961H41.1181V41.5855H41.8061V40.8961Z" fill="#313131"/>
<path d="M41.8061 38.1387H41.1181V38.828H41.8061V38.1387Z" fill="#313131"/>
<path d="M42.4941 47.1006H41.8061V49.1687H42.4941V47.1006ZM42.4941 44.343H41.8061V46.4112H42.4941V44.343ZM42.4941 41.5855H41.8061V43.6537H42.4941V41.5855ZM42.4941 38.828H41.8061V40.8961H42.4941V38.828Z" fill="#E9E9E9"/>
<path d="M42.4941 46.4112H41.8061L41.806 47.1007L42.4941 47.1006V46.4112Z" fill="#353535"/>
<path d="M42.4941 49.1687H41.8061V49.8582H42.4941V49.1687Z" fill="#353535"/>
<path d="M42.4941 43.6537L41.806 43.6538V44.3432L42.4941 44.343V43.6537Z" fill="#353535"/>
<path d="M42.4941 40.8961H41.8061V41.5855H42.4941V40.8961Z" fill="#353535"/>
<path d="M42.4941 38.1387H41.8061V38.828H42.4941V38.1387Z" fill="#353535"/>
<path d="M43.1822 47.1006H42.4941V49.1687H43.1822V47.1006ZM43.1822 44.343H42.4941V46.4112H43.1822V44.343ZM43.1822 41.5855H42.4941V43.6537H43.1822V41.5855ZM43.1822 38.828H42.4941V40.8961H43.1822V38.828Z" fill="#F3F3F3"/>
<path d="M43.1822 46.4112H42.4941V47.1006H43.1822V46.4112Z" fill="#393939"/>
<path d="M43.1822 49.1687H42.4941V49.8582H43.1822V49.1687Z" fill="#393939"/>
<path d="M43.1822 43.6537H42.4941V44.343H43.1822V43.6537Z" fill="#393939"/>
<path d="M43.1822 40.8961H42.4941V41.5855H43.1822V40.8961Z" fill="#393939"/>
<path d="M43.1822 38.1387H42.4941V38.828H43.1822V38.1387Z" fill="#393939"/>
<path d="M40.4298 66.4033H39.7418V68.4715H40.4298V66.4033ZM40.4298 63.6458H39.7418V65.7139H40.4298V63.6458ZM40.4298 60.8883H39.7418V62.9564H40.4298V60.8883ZM40.4298 58.1307H39.7418V60.1989H40.4298V58.1307Z" fill="#CBCBCB"/>
<path d="M40.4298 60.1989H39.7418V60.8883H40.4298V60.1989Z" fill="#282828"/>
<path d="M40.4298 57.4414H39.7418V58.1307H40.4298V57.4414Z" fill="#282828"/>
<path d="M40.4298 62.9564H39.7418V63.6458H40.4298V62.9564Z" fill="#282828"/>
<path d="M40.4298 65.7139H39.7418V66.4033H40.4298V65.7139Z" fill="#282828"/>
<path d="M41.1181 66.4033H40.43V68.4715H41.1181V66.4033ZM41.1181 63.6458H40.43V65.7139H41.1181V63.6458ZM41.1181 60.8883H40.43V62.9564H41.1181V60.8883ZM41.1181 58.1307H40.43V60.1989H41.1181V58.1307Z" fill="#D5D5D5"/>
<path d="M41.1181 60.1989H40.43V60.8883H41.1181V60.1989Z" fill="#2C2C2C"/>
<path d="M41.1181 57.4414H40.43V58.1307H41.1181V57.4414Z" fill="#2C2C2C"/>
<path d="M41.1181 62.9564H40.43V63.6458H41.1181V62.9564Z" fill="#2C2C2C"/>
<path d="M41.1181 65.7139H40.43V66.4033H41.1181V65.7139Z" fill="#2C2C2C"/>
<path d="M41.8061 66.4033H41.1181V68.4715H41.8061V66.4033ZM41.8061 63.6458H41.1181V65.7139H41.8061V63.6458ZM41.8061 60.8883H41.1181V62.9564H41.8061V60.8883ZM41.8061 58.1307H41.1181V60.1989H41.8061V58.1307Z" fill="#DFDFDF"/>
<path d="M41.8061 60.1989H41.1181V60.8883H41.8061V60.1989Z" fill="#313131"/>
<path d="M41.8061 57.4414H41.1181V58.1307H41.8061V57.4414Z" fill="#313131"/>
<path d="M41.8061 62.9564H41.1181V63.6458H41.8061V62.9564Z" fill="#313131"/>
<path d="M41.8061 65.7139H41.1181V66.4033H41.8061V65.7139Z" fill="#313131"/>
<path d="M42.4941 66.4033H41.8061V68.4715H42.4941V66.4033ZM42.4941 63.6458H41.8061V65.7139H42.4941V63.6458ZM42.4941 60.8883H41.8061V62.9564H42.4941V60.8883ZM42.4941 58.1307H41.8061V60.1989H42.4941V58.1307Z" fill="#E9E9E9"/>
<path d="M42.4941 60.1989H41.8061V60.8883H42.4941V60.1989Z" fill="#353535"/>
<path d="M42.4941 57.4414H41.8061V58.1307H42.4941V57.4414Z" fill="#353535"/>
<path d="M42.4941 62.9564H41.8061V63.6458H42.4941V62.9564Z" fill="#353535"/>
<path d="M42.4941 65.7139H41.8061V66.4033H42.4941V65.7139Z" fill="#353535"/>
<path d="M43.1822 66.4033H42.4941V68.4715H43.1822V66.4033ZM43.1822 63.6458H42.4941V65.7139H43.1822V63.6458ZM43.1822 60.8883H42.4941V62.9564H43.1822V60.8883ZM43.1822 58.1307H42.4941V60.1989H43.1822V58.1307Z" fill="#F3F3F3"/>
<path d="M43.1822 60.1989H42.4941V60.8883H43.1822V60.1989Z" fill="#393939"/>
<path d="M43.1822 57.4414H42.4941V58.1307H43.1822V57.4414Z" fill="#393939"/>
<path d="M43.1822 62.9564H42.4941V63.6458H43.1822V62.9564Z" fill="#393939"/>
<path d="M43.1822 65.7139H42.4941V66.4033H43.1822V65.7139Z" fill="#393939"/>
<path d="M56.8642 41.4161C56.7355 41.6078 56.6021 41.7966 56.4631 41.9821C56.8663 42.3364 57.2516 42.7115 57.617 43.1051C57.7243 43.2202 57.8296 43.3381 57.9335 43.4567C58.078 43.2706 58.2183 43.0816 58.3539 42.8893C57.8895 42.3675 57.392 41.8752 56.8642 41.4161ZM54.6363 39.7898C54.5118 39.9822 54.3796 40.1703 54.242 40.3544C54.8338 40.7114 55.398 41.1086 55.9354 41.5394C56.0737 41.3533 56.2058 41.1652 56.3323 40.9736C55.7943 40.544 55.2274 40.149 54.6363 39.7898ZM52.1476 38.5579C52.0079 38.7516 51.8586 38.9399 51.699 39.1211C51.8814 39.1894 52.0616 39.2618 52.2405 39.3363C52.7201 39.5375 53.1879 39.7609 53.6421 40.0077C53.7825 39.8243 53.9153 39.6368 54.0412 39.4445C53.4322 39.1101 52.7999 38.8137 52.1476 38.5579ZM49.2165 37.7224C48.9681 37.9395 48.6963 38.1297 48.4039 38.2882C48.5394 38.3068 48.675 38.3277 48.8099 38.3497C48.8168 38.3505 48.8236 38.3518 48.8305 38.3532C48.8319 38.3532 48.8332 38.3539 48.8353 38.3539C49.5736 38.4772 50.294 38.6516 50.9931 38.8763C51.1651 38.6964 51.3267 38.5083 51.4761 38.3125C50.7446 38.0636 49.9905 37.8651 49.2165 37.7224ZM48.2546 37.5749C47.6876 37.9244 47.0237 38.1325 46.3122 38.1388C47.0257 38.1325 47.6938 37.9272 48.2615 37.5756C48.2587 37.5756 48.2567 37.5749 48.2546 37.5749Z" fill="#CBCBCB"/>
<path d="M58.3538 42.8899C58.2183 43.0822 58.0781 43.2711 57.9335 43.4573C57.8297 43.3387 57.7242 43.2208 57.6168 43.1056C57.8839 43.3931 58.1398 43.6916 58.3847 43.9991L58.3862 43.9998C58.5349 43.813 58.6676 43.6151 58.8065 43.4221C58.66 43.2415 58.5086 43.0643 58.3538 42.8899ZM52.2397 39.3368C52.5267 39.4574 52.8094 39.5863 53.0874 39.7242L53.1576 39.7601C53.3826 39.8724 53.6042 39.9896 53.823 40.113L53.9365 40.1785C54.1422 40.2964 54.3452 40.4185 54.5447 40.546L54.6541 40.6163C54.8598 40.7494 55.0628 40.8879 55.2617 41.0306L55.3326 41.0809C55.7233 41.3643 56.1011 41.6662 56.4637 41.984C56.6027 41.7979 56.7361 41.6097 56.8648 41.4181C56.6908 41.2671 56.5132 41.1188 56.333 40.9748C56.2064 41.1664 56.0743 41.3553 55.936 41.5407C55.3986 41.1099 54.8344 40.7128 54.2426 40.3557C54.381 40.1716 54.5123 39.9835 54.6369 39.7911C54.4408 39.6718 54.2426 39.5574 54.041 39.4464C53.9151 39.6388 53.7823 39.8263 53.642 40.0096C53.1879 39.7614 52.7193 39.5374 52.2397 39.3368ZM51.4761 38.3125C51.3267 38.5083 51.1651 38.6964 50.9931 38.8763C50.294 38.6516 49.5736 38.4772 48.8353 38.3539C48.9372 38.3711 49.0382 38.3896 49.1393 38.4089C49.3168 38.4419 49.4937 38.4792 49.6691 38.5185C49.7648 38.5399 49.8604 38.5612 49.956 38.5847C50.1446 38.6308 50.3311 38.6819 50.5168 38.7349C50.5952 38.7577 50.6744 38.7777 50.7522 38.8018C50.9805 38.8715 51.2062 38.9459 51.4306 39.0259L51.5283 39.0589C51.5854 39.0796 51.6425 39.1003 51.6989 39.1217C51.8586 38.9404 52.0078 38.7522 52.1475 38.5585C51.926 38.4716 51.7018 38.3897 51.4761 38.3125ZM48.2607 37.5754C47.6931 37.927 47.0258 38.1326 46.3122 38.1388C46.3074 38.1388 46.3026 38.1388 46.2978 38.1388L46.2942 38.1386C46.2894 38.1386 46.2839 38.1386 46.2791 38.1386C46.5674 38.1386 46.8536 38.1483 47.1385 38.1635C47.2293 38.1683 47.3195 38.178 47.4109 38.1842C47.6043 38.1986 47.7977 38.2138 47.9889 38.2351C48.0928 38.2469 48.1953 38.2614 48.2992 38.2751C48.4706 38.2972 48.6419 38.3221 48.8112 38.3496C48.6763 38.3275 48.5407 38.3068 48.4052 38.2883C48.6969 38.1297 48.9694 37.9394 49.2178 37.7223C48.9013 37.6644 48.5827 37.6147 48.2607 37.5754Z" fill="#282828"/>
<path d="M57.2355 40.8273C57.1172 41.0265 56.9933 41.2223 56.8639 41.4161C57.3917 41.8752 57.8893 42.3666 58.3538 42.8899C58.49 42.6962 58.622 42.4998 58.7486 42.2998C58.2758 41.7787 57.7701 41.2865 57.2355 40.8273ZM54.9917 39.199C54.8803 39.4003 54.7619 39.5968 54.636 39.7898C55.2271 40.149 55.7933 40.5439 56.3321 40.9735C56.4601 40.7798 56.5819 40.584 56.6975 40.3847C56.1546 39.9553 55.5855 39.5595 54.9917 39.199ZM52.5306 37.9671C52.413 38.169 52.285 38.3669 52.1474 38.5578C52.7996 38.8136 53.4326 39.11 54.0401 39.4451C54.1668 39.2521 54.2852 39.0549 54.3973 38.8543C53.7959 38.522 53.1732 38.2249 52.5306 37.9671ZM49.7804 37.1301C49.6105 37.3445 49.4213 37.5424 49.2156 37.7223C49.9896 37.865 50.7444 38.0636 51.4758 38.3124C51.621 38.1222 51.7559 37.925 51.8783 37.7217C51.1978 37.4804 50.4981 37.2825 49.7804 37.1301ZM48.9933 36.9819C48.7731 37.2094 48.524 37.4072 48.2536 37.5741C48.2557 37.5741 48.2584 37.5748 48.2605 37.5748C48.5302 37.408 48.7765 37.2087 48.9961 36.9819H48.9933Z" fill="#D5D5D5"/>
<path d="M58.7494 42.2997C58.6228 42.4996 58.4907 42.6961 58.3544 42.8898C58.5092 43.0636 58.6599 43.2414 58.8072 43.422C58.9469 43.229 59.0886 43.038 59.2186 42.8395C59.0659 42.6561 58.909 42.4762 58.7494 42.2997ZM56.6983 40.3839C56.5827 40.5831 56.4602 40.7796 56.3329 40.9726C56.5132 41.1167 56.6907 41.2643 56.8648 41.4159C56.9941 41.2222 57.118 41.0264 57.2364 40.8272C57.0595 40.6762 56.8806 40.528 56.6983 40.3839ZM54.3974 38.8541C54.286 39.0555 54.1669 39.2526 54.0403 39.445C54.2419 39.5559 54.4408 39.6704 54.6362 39.7897C54.7614 39.5966 54.8798 39.3995 54.9919 39.1988C54.7965 39.0796 54.5976 38.9644 54.3974 38.8541ZM51.8792 37.7215C51.7559 37.9249 51.6218 38.1227 51.4766 38.3123C51.7023 38.3895 51.9266 38.4715 52.1482 38.5577C52.2858 38.3668 52.4138 38.1696 52.5314 37.9669C52.3153 37.8807 52.098 37.7987 51.8792 37.7215ZM48.9961 36.9824C48.7774 37.2093 48.5304 37.4086 48.2607 37.5754C48.5819 37.6148 48.9005 37.6637 49.2156 37.7223C49.4213 37.5424 49.6106 37.3437 49.7806 37.13C49.5212 37.0748 49.2597 37.0252 48.9961 36.9824Z" fill="#2C2C2C"/>
<path d="M57.5762 40.2165C57.4682 40.4226 57.3546 40.6261 57.2355 40.8273C57.7701 41.2865 58.2752 41.778 58.7486 42.2998C58.8765 42.0986 58.9999 41.8945 59.1175 41.6876C58.6345 41.1672 58.1191 40.6756 57.5762 40.2165ZM55.3057 38.5861C55.208 38.7936 55.104 38.9982 54.9919 39.1988C55.5857 39.5593 56.1546 39.9559 56.6975 40.3847C56.8144 40.1834 56.9254 39.98 57.0299 39.7739C56.4809 39.3444 55.905 38.948 55.3057 38.5861ZM52.8487 37.3549C52.753 37.5637 52.6471 37.7685 52.5307 37.9677C53.1734 38.2255 53.796 38.5218 54.3974 38.8541C54.5082 38.6535 54.6121 38.4496 54.7078 38.2414C54.1085 37.9105 53.4879 37.6141 52.8487 37.3549ZM50.1907 36.5158C50.071 36.7316 49.9333 36.9371 49.7813 37.1294C50.4983 37.2818 51.1986 37.4803 51.8792 37.7209C51.9996 37.5223 52.1083 37.3176 52.2067 37.108C51.5517 36.8723 50.8787 36.6737 50.1907 36.5158ZM49.4744 36.3684C49.3348 36.589 49.1744 36.795 48.9935 36.9826L48.9961 36.9824C49.1771 36.7956 49.3389 36.5896 49.4786 36.369C49.4771 36.3684 49.4744 36.3684 49.4744 36.3684Z" fill="#DFDFDF"/>
<path d="M59.1184 41.6876C59.0007 41.8945 58.8776 42.0986 58.7495 42.2998C58.9099 42.4763 59.066 42.6562 59.2188 42.8397C59.351 42.6376 59.4713 42.4287 59.5938 42.2212C59.4383 42.0406 59.2801 41.8621 59.1184 41.6876ZM57.0308 39.7733C56.9262 39.9794 56.8154 40.1834 56.6984 40.384C56.8808 40.5281 57.0597 40.6757 57.2365 40.8273C57.3555 40.626 57.4691 40.4226 57.5771 40.2166C57.3975 40.0649 57.2159 39.9173 57.0308 39.7733ZM54.7079 38.2407C54.6123 38.449 54.5084 38.653 54.3976 38.8536C54.5985 38.9646 54.7967 39.0797 54.9921 39.1983C55.1035 38.9977 55.2082 38.7937 55.3059 38.5854C55.1091 38.4675 54.9095 38.3524 54.7079 38.2407ZM52.2061 37.1088C52.1085 37.3184 51.999 37.5231 51.8786 37.7217C52.0981 37.7995 52.3156 37.8809 52.5302 37.9677C52.6458 37.7685 52.7525 37.5645 52.8481 37.3549C52.6362 37.2687 52.4229 37.1867 52.2061 37.1088ZM49.4786 36.369C49.3389 36.5896 49.1773 36.7958 48.9964 36.9826C49.2599 37.0254 49.5214 37.075 49.7807 37.1301C49.9335 36.9378 50.0704 36.7324 50.1901 36.5166C49.9555 36.4621 49.7173 36.4132 49.4786 36.369Z" fill="#313131"/>
<path d="M57.8879 39.5781C57.7902 39.7932 57.6872 40.0063 57.5771 40.2166C58.12 40.6757 58.6345 41.1665 59.1182 41.6877C59.2379 41.4774 59.3528 41.2644 59.4622 41.0486C58.9661 40.5281 58.4411 40.0373 57.8879 39.5781ZM55.5795 37.9457C55.4956 38.1621 55.4041 38.3758 55.3057 38.5861C55.905 38.948 56.4808 39.3444 57.0306 39.7733C57.1373 39.563 57.2377 39.35 57.3313 39.1342C56.7712 38.7054 56.1871 38.3083 55.5795 37.9457ZM53.1066 36.7138C53.0309 36.9316 52.9449 37.1453 52.8487 37.3549C53.4878 37.6141 54.1091 37.9112 54.7078 38.2414C54.8048 38.0311 54.8942 37.8174 54.9754 37.601C54.372 37.2708 53.7486 36.9744 53.1066 36.7138ZM50.4831 35.8748C50.4019 36.0974 50.3042 36.3118 50.1907 36.5166C50.8787 36.6745 51.5517 36.873 52.2067 37.1088C52.3044 36.8999 52.3904 36.6855 52.4647 36.4669C51.82 36.2333 51.1587 36.0347 50.4831 35.8748ZM49.7998 35.7258C49.7118 35.9513 49.6024 36.1657 49.4744 36.3677C49.4744 36.3677 49.4771 36.3677 49.4785 36.3684C49.6065 36.1664 49.7152 35.952 49.8033 35.7266C49.8033 35.7266 49.8012 35.7266 49.7998 35.7258Z" fill="#E9E9E9"/>
<path d="M59.4622 41.0486C59.3528 41.2644 59.2381 41.4774 59.1184 41.6876C59.2801 41.862 59.4389 42.04 59.5937 42.2206C59.7176 42.0103 59.8394 41.7994 59.9528 41.5836C59.7926 41.4023 59.6287 41.2244 59.4622 41.0486ZM57.3313 39.1342C57.2377 39.3492 57.1375 39.563 57.0308 39.7733C57.2159 39.9173 57.3973 40.0648 57.5762 40.2165C57.6864 40.0062 57.7896 39.7933 57.8873 39.5782C57.705 39.4272 57.5191 39.2783 57.3313 39.1342ZM54.9755 37.6003C54.8942 37.8168 54.8049 38.0311 54.7079 38.2407C54.9095 38.3524 55.1091 38.4668 55.3059 38.5854C55.405 38.3752 55.4957 38.1615 55.5796 37.945C55.3807 37.8272 55.1792 37.712 54.9755 37.6003ZM52.4647 36.4669C52.3904 36.6848 52.3037 36.8992 52.2067 37.1088C52.4227 37.1867 52.6368 37.2688 52.8494 37.3549C52.9457 37.1453 53.0317 36.9316 53.1074 36.7138C52.8948 36.6276 52.6807 36.5449 52.4647 36.4669ZM49.8033 35.7266C49.7152 35.9521 49.6059 36.1664 49.4785 36.3684C49.7173 36.4125 49.9554 36.4621 50.1907 36.5158C50.3042 36.3111 50.4026 36.0968 50.4832 35.8741C50.2581 35.8211 50.0317 35.7721 49.8033 35.7266Z" fill="#353535"/>
<path d="M58.1666 38.9114C58.0799 39.1361 57.987 39.3582 57.8879 39.5781C58.4411 40.0373 58.9668 40.528 59.4629 41.0485C59.5744 40.8285 59.6803 40.6059 59.7808 40.3812C59.2709 39.8614 58.7322 39.3705 58.1666 38.9114ZM55.8107 37.279C55.7412 37.5037 55.6641 37.7257 55.5795 37.9457C56.1871 38.3083 56.7712 38.7061 57.3313 39.1342C57.427 38.9149 57.5157 38.6922 57.5976 38.4674C57.0265 38.0393 56.4299 37.6422 55.8107 37.279ZM53.3021 36.0477C53.2477 36.2731 53.1823 36.4952 53.1066 36.7138C53.7485 36.9743 54.3719 37.2714 54.9754 37.601C55.0579 37.3817 55.1316 37.1597 55.1969 36.935C54.5846 36.6047 53.9523 36.309 53.3021 36.0477ZM50.6675 35.2087C50.6227 35.4376 50.5608 35.6596 50.4824 35.8747C51.158 36.0346 51.8193 36.2331 52.464 36.4669C52.5383 36.249 52.6016 36.0263 52.6525 35.8009C52.0072 35.5686 51.3438 35.3701 50.6675 35.2087ZM49.9932 35.0605C49.9492 35.2908 49.8831 35.5128 49.7998 35.7258C49.7998 35.7258 49.8019 35.7259 49.8033 35.7266C49.8865 35.5129 49.9512 35.2908 49.9953 35.0605H49.9932Z" fill="#F3F3F3"/>
<path d="M59.7808 40.3812C59.6803 40.6059 59.5744 40.8285 59.4629 41.0485C59.6295 41.2236 59.7932 41.4021 59.9529 41.5842C60.0691 41.3642 60.1799 41.1416 60.2852 40.9169C60.12 40.7349 59.9521 40.5563 59.7808 40.3812ZM57.5976 38.4681C57.5157 38.6929 57.427 38.9149 57.3314 39.1348C57.5192 39.2788 57.705 39.4271 57.888 39.5787C57.9871 39.3595 58.08 39.1368 58.1667 38.9121C57.9796 38.7598 57.7903 38.6122 57.5976 38.4681ZM55.197 36.9343C55.1317 37.159 55.0574 37.3812 54.9755 37.6003C55.1792 37.7121 55.3806 37.827 55.5795 37.9457C55.6648 37.7264 55.7419 37.5037 55.8107 37.279C55.6091 37.1611 55.4041 37.046 55.197 36.9343ZM52.6533 35.8009C52.6024 36.027 52.539 36.249 52.4647 36.4669C52.6807 36.5448 52.8948 36.6275 53.1067 36.713C53.1824 36.4952 53.2478 36.2724 53.3021 36.0471C53.0874 35.9616 52.8714 35.8795 52.6533 35.8009ZM49.9953 35.0612C49.9513 35.2908 49.8866 35.5135 49.8033 35.7272C50.0318 35.772 50.2581 35.8217 50.4831 35.8748C50.5608 35.6597 50.6235 35.4376 50.6683 35.2088C50.4453 35.1556 50.221 35.1067 49.9953 35.0612Z" fill="#393939"/>
<path d="M73.6703 35.4018V36.822L75.7345 40.5446V39.1245L73.6703 35.4018ZM70.9181 30.4383V31.8584L72.9823 35.5811V34.1609L72.4421 33.1861L70.9181 30.4383ZM68.1659 25.4747V26.8948L70.2301 30.6175V29.1974L68.1659 25.4747ZM65.4136 20.5111V21.9313L67.4778 25.6539V24.2338L65.4136 20.5111Z" fill="#CBCBCB"/>
<path d="M74.8728 37.5713L75.7343 39.1245V40.5446L76.4223 41.7855V40.3654L74.8728 37.5713ZM72.982 34.1609V35.5811L73.6701 36.822V35.4018L72.982 34.1609ZM70.2298 29.1974V30.6175L70.9178 31.8584V30.4383L72.4421 33.1861L70.2298 29.1974ZM64.7254 19.2703V20.6904L65.4134 21.9313V20.5111L67.4776 24.2338V25.6539L68.1656 26.8948V25.4747L69.0057 26.9879L64.7254 19.2703Z" fill="#282828"/>
<path d="M73.6703 36.8288V38.2489L75.7345 41.9716V40.5514L73.6703 36.8288ZM70.9181 31.8652V33.2853L72.9823 37.008V35.5879L70.9181 31.8652ZM68.1659 26.9016V28.3218L70.2301 32.0444V30.6243L68.1659 26.9016ZM65.4136 21.9381V23.3582L67.4778 27.0809V25.6607L65.4136 21.9381Z" fill="#D5D5D5"/>
<path d="M75.7343 40.5514V41.9716L76.4223 43.2125V41.7923L75.7343 40.5514ZM72.982 35.5879V37.008L73.6701 38.2489V36.8288L72.982 35.5879ZM70.2298 30.6243V32.0444L70.9178 33.2853V31.8652L70.2298 30.6243ZM67.4776 25.6607V27.0809L68.1656 28.3218V26.9016L67.4776 25.6607ZM64.7254 20.6972V22.1173L65.4134 23.3582V21.9381L64.7254 20.6972Z" fill="#2C2C2C"/>
<path d="M73.6703 38.2559V39.676L75.7345 43.3987V41.9785L73.6703 38.2559ZM70.9181 33.2923V34.7131L72.9823 38.4358V37.0156L70.9181 33.2923ZM68.1659 28.3287V29.7489L70.2301 33.4715V32.0514L68.1659 28.3287ZM65.4136 23.3645V24.7846L67.4778 28.5073V27.0872L65.4136 23.3645Z" fill="#DFDFDF"/>
<path d="M75.7343 41.9785V43.3987L76.4223 44.6396V43.2194L75.7343 41.9785ZM72.982 37.015V38.4351L73.6701 39.676V38.2559L72.982 37.015ZM70.2298 32.0514V33.4715L70.9178 34.7124V33.2923L70.2298 32.0514ZM67.4776 27.0878V28.5087L68.1656 29.7495V28.3294L67.4776 27.0878ZM64.7254 22.1243V23.5444L65.4134 24.7853V23.3652L64.7254 22.1243Z" fill="#313131"/>
<path d="M73.6703 39.6828V41.103L75.7345 44.8256V43.4055L73.6703 39.6828ZM70.9181 34.7193V36.1394L72.9823 39.8621V38.442L70.9181 34.7193ZM68.1659 29.7557V31.1758L70.2301 34.8985V33.4784L68.1659 29.7557ZM65.4136 24.7922V26.2123L67.4778 29.935V28.5148L65.4136 24.7922Z" fill="#E9E9E9"/>
<path d="M75.7343 43.4056V44.8258L76.4223 46.0667V44.6465L75.7343 43.4056ZM72.982 38.4421V39.8622L73.6701 41.1031V39.683L72.982 38.4421ZM70.2298 33.4785V34.8987L70.9178 36.1395V34.7194L70.2298 33.4785ZM67.4776 28.515V29.9351L68.1656 31.176V29.7558L67.4776 28.515ZM64.7254 23.5507V24.9708L65.4134 26.2117V24.7923L64.7254 23.5507Z" fill="#353535"/>
<path d="M73.6703 41.1099V42.5307L75.7345 46.2534V44.8326L73.6703 41.1099ZM70.9181 36.1457V37.5665L72.9823 41.2891V39.869L70.9181 36.1457ZM68.1659 31.1821V32.6029L70.2301 36.3256V34.9055L68.1659 31.1821ZM65.4136 26.2185V27.6393L67.4778 31.362V29.9419L65.4136 26.2185Z" fill="#F3F3F3"/>
<path d="M75.7343 44.8326V46.2541L76.4223 47.4943V46.0735L75.7343 44.8326ZM72.982 39.869V41.2898L73.6701 42.5307V41.1099L72.982 39.869ZM70.2298 34.9054V36.3256L70.9178 37.5665V36.1457L70.2298 34.9054ZM67.4776 29.9412V31.3613L68.1656 32.6022V31.1814L67.4776 29.9412ZM64.7254 24.9776V26.3978L65.4134 27.6387V26.2178L64.7254 24.9776Z" fill="#393939"/>
<path d="M101.192 62.3423L101.192 63.7631L103.256 67.4857V66.0656L101.192 62.3423ZM98.4399 57.3794L98.4401 58.8002L100.504 62.5222L100.504 61.102L98.4399 57.3794ZM95.6878 52.4158V53.8359L97.7521 57.5586L97.7519 56.1378L95.6878 52.4158ZM92.9356 47.4522V48.873L94.9997 52.595V51.1749L92.9356 47.4522Z" fill="#CBCBCB"/>
<path d="M103.256 66.0663V67.4864L103.945 68.728V67.3072L103.256 66.0663ZM100.504 61.1027V62.5235L101.192 63.7644V62.3443L100.504 61.1027ZM97.7522 56.1378L97.7521 57.5586L98.4402 58.7995V57.3794L97.7522 56.1378ZM94.9999 51.1749L94.9999 52.5957L95.688 53.8359V52.4158L94.9999 51.1749ZM92.2477 46.2114V47.6315L92.9358 48.873V47.4522L92.2477 46.2114Z" fill="#282828"/>
<path d="M101.192 60.916V62.3375L103.256 66.0595V64.6379L101.192 60.916ZM98.4399 55.9524V57.3725L100.504 61.0938V59.6737L98.4399 55.9524ZM95.6878 50.9895V52.4097L97.7519 56.1317V54.7108L95.6878 50.9895ZM92.9356 46.0245V47.4447L94.9997 51.1667V49.7465L92.9356 46.0245Z" fill="#D5D5D5"/>
<path d="M103.256 64.6379V66.0595L103.945 67.3004V65.8796L103.256 64.6379ZM100.504 59.6751V61.0952L101.192 62.3375V60.916L100.504 59.6751ZM97.7522 54.7115V56.1317L98.4402 57.3732V55.9524L97.7522 54.7115ZM94.9999 49.748V51.1681L95.688 52.4097V50.9889L94.9999 49.748ZM92.2477 44.7844V46.2046L92.9358 47.4454V46.0246L92.2477 44.7844Z" fill="#2C2C2C"/>
<path d="M101.192 59.4889V60.9104L103.256 64.633V63.2115L101.192 59.4889ZM98.4399 54.5253V55.9468L100.504 59.6688V58.248L98.4399 54.5253ZM95.6878 49.5617V50.9819L97.7519 54.7045V53.2844L95.6878 49.5617ZM92.9356 44.5982V46.0183L94.9997 49.741V48.3209L92.9356 44.5982Z" fill="#DFDFDF"/>
<path d="M103.256 63.2115V64.633L103.945 65.8732V64.4524L103.256 63.2115ZM100.504 58.248V59.6688L101.192 60.9103V59.4889L100.504 58.248ZM97.7522 53.2844V54.7059L98.4402 55.9468V54.5253L97.7522 53.2844ZM94.9999 48.3209V49.7423L95.688 50.9832V49.5617L94.9999 48.3209ZM92.2477 43.3573V44.7774L92.9358 46.0183V44.5982L92.2477 43.3573Z" fill="#313131"/>
<path d="M101.192 58.0619V59.4821L103.256 63.204V61.7846L101.192 58.0619ZM98.4399 53.0984V54.5185L100.504 58.2412V56.8211L98.4399 53.0984ZM95.6878 48.1348V49.5556L97.7519 53.2776V51.8575L95.6878 48.1348ZM92.9356 43.1713V44.5914L94.9997 48.3141V46.8939L92.9356 43.1713Z" fill="#E9E9E9"/>
<path d="M103.256 61.7853V63.2061L103.945 64.447V63.0269L103.256 61.7853ZM100.504 56.8224V58.2425L101.192 59.4834V58.0619L100.504 56.8224ZM97.7522 51.8575V53.2776L98.4402 54.5185V53.0984L97.7522 51.8575ZM94.9999 46.8939V48.3141L95.688 49.5556V48.1348L94.9999 46.8939ZM92.2477 41.9304V43.3505L92.9358 44.5914V43.1713L92.2477 41.9304Z" fill="#353535"/>
<path d="M101.192 56.6356V58.0557L103.256 61.7784V60.3576L101.192 56.6356ZM98.4399 51.672V53.0929L100.504 56.8148V55.394L98.4399 51.672ZM95.6878 46.7092V48.1294L97.7519 51.8513V50.4305L95.6878 46.7092ZM92.9356 41.7436V43.1644L94.9997 46.8864V45.4662L92.9356 41.7436Z" fill="#F3F3F3"/>
<path d="M103.256 60.3576V61.7784L103.945 63.0191V61.599L103.256 60.3576ZM100.504 55.3939V56.8147L101.192 58.0556V56.6354L100.504 55.3939ZM97.7522 50.4303V51.8511L98.4402 53.0927V51.6719L97.7522 50.4303ZM94.9999 45.4667V46.8883L95.688 48.1292V46.7091L94.9999 45.4667ZM92.2477 40.5032V41.924L92.9358 43.1649V41.7441L92.2477 40.5032Z" fill="#393939"/>
<path d="M103.947 43.5547H103.055V44.4476H103.947V43.5547Z" fill="#282828"/>
<path d="M103.949 43.5547H103.057V44.4476H103.949V43.5547Z" fill="#2C2C2C"/>
<path d="M103.951 43.5547H103.059V44.4476H103.951V43.5547Z" fill="#313131"/>
<path d="M103.953 43.5547H103.061V44.4476H103.953V43.5547Z" fill="#353535"/>
<path d="M103.955 43.5547H103.062V44.4476H103.955V43.5547Z" fill="#393939"/>
</svg>
