<svg width="132" height="88" viewBox="0 0 132 88" fill="none" xmlns="http://www.w3.org/2000/svg">
<path fill-rule="evenodd" clip-rule="evenodd" d="M71.4791 73.8011C70.7266 69.8689 69.8636 65.3602 73.1625 62.3582C111.153 62.3582 108.851 27.7788 88.5843 13.4574C32.9158 -21.1432 -1.68915 77.0251 67.5204 81.9176C73.0326 81.9176 72.3257 78.224 71.4791 73.8011ZM75.0437 28.5075C78.783 28.5075 81.8142 25.4762 81.8142 21.737C81.8142 17.9977 78.783 14.9664 75.0437 14.9664C71.3044 14.9664 68.2731 17.9977 68.2731 21.737C68.2731 25.4762 71.3044 28.5075 75.0437 28.5075ZM86.328 45.81C90.0672 45.81 93.0985 42.7788 93.0985 39.0395C93.0985 35.3002 90.0672 32.2689 86.328 32.2689C82.5887 32.2689 79.5574 35.3002 79.5574 39.0395C79.5574 42.7788 82.5887 45.81 86.328 45.81ZM61.5026 23.2415C61.5026 26.9808 58.4713 30.0121 54.732 30.0121C50.9927 30.0121 47.9615 26.9808 47.9615 23.2415C47.9615 19.5022 50.9927 16.471 54.732 16.471C58.4713 16.471 61.5026 19.5022 61.5026 23.2415ZM44.2 45.81C47.9393 45.81 50.9706 42.7788 50.9706 39.0395C50.9706 35.3002 47.9393 32.2689 44.2 32.2689C40.4608 32.2689 37.4295 35.3002 37.4295 39.0395C37.4295 42.7788 40.4608 45.81 44.2 45.81Z" fill="#933EC5"/>
</svg>
