<svg width="132" height="88" viewBox="0 0 132 88" fill="none" xmlns="http://www.w3.org/2000/svg">
<mask id="mask0_2056_21449" style="mask-type:luminance" maskUnits="userSpaceOnUse" x="36" y="12" width="60" height="64">
<path d="M36.9238 12.0156H95.0781V75.9852H36.9238V12.0156Z" fill="white"/>
</mask>
<g mask="url(#mask0_2056_21449)">
<path d="M71.9041 29.53C67.4813 29.53 63.3874 30.8426 59.8668 33.0043C58.7336 21.2582 48.9403 12.0156 36.9238 12.0156V23.3978C43.4378 23.3978 48.7423 28.7138 48.7423 35.2431V52.7576C48.7423 65.5621 59.1403 75.9852 71.9151 75.9852C84.6911 75.9852 95.0894 65.5621 95.0894 52.7576C95.0894 39.9528 84.6801 29.53 71.9041 29.53ZM71.9041 64.6027C65.3905 64.6027 60.0868 59.2869 60.0868 52.7576C60.0868 46.2283 65.3905 40.9122 71.9041 40.9122C78.4192 40.9122 83.7225 46.2283 83.7225 52.7576C83.7225 59.2869 78.4192 64.6027 71.9041 64.6027Z" fill="#0EF275"/>
</g>
</svg>
