<svg width="132" height="88" viewBox="0 0 132 88" fill="none" xmlns="http://www.w3.org/2000/svg">
<path d="M38.0867 22.1379H34.0156V26.2087H38.0867V22.1379Z" fill="black"/>
<path d="M47.9709 22.1379H43.9009V26.2087H47.9709V22.1379Z" fill="black"/>
<path d="M58.0524 22.1379H53.9824V26.2087H58.0524V22.1379Z" fill="black"/>
<path d="M67.9395 22.1379H63.8684V26.2087H67.9395V22.1379Z" fill="black"/>
<path d="M78.0177 22.1379H73.9469V26.2087H78.0177V22.1379Z" fill="black"/>
<path d="M87.9042 22.1379H83.8342V26.2087H87.9042V22.1379Z" fill="black"/>
<path d="M97.9855 22.1379H93.9155V26.2087H97.9855V22.1379Z" fill="black"/>
<path d="M38.0867 62.0703H34.0156V66.1409H38.0867V62.0703Z" fill="black"/>
<path d="M58.0524 62.0703H53.9824V66.1409H58.0524V62.0703Z" fill="black"/>
<path d="M67.9395 62.0703H63.8684V66.1409H67.9395V62.0703Z" fill="black"/>
<path d="M78.0177 62.0703H73.9469V66.1409H78.0177V62.0703Z" fill="black"/>
<path d="M87.9042 62.0703H83.8342V66.1409H87.9042V62.0703Z" fill="black"/>
<path d="M48.0133 16.0847V12.0139H43.9422V16.0847H48.0133Z" fill="black"/>
<path d="M87.9482 16.0825V12.0117H83.8771V16.0825H87.9482Z" fill="black"/>
<path d="M48.0152 36.0523V31.9815H43.9441V36.0523H48.0152Z" fill="black"/>
<path d="M47.9179 46.0359V41.9654H43.8469V46.0359H47.9179Z" fill="black"/>
<path d="M48.0152 56.0198V51.949H43.9441V56.0198H48.0152Z" fill="black"/>
<path d="M47.9179 66.0031V61.9323H43.8469V66.0031H47.9179Z" fill="black"/>
<path d="M48.0163 75.9873V71.9162H43.9452V75.9873H48.0163Z" fill="black"/>
<path d="M87.9482 36.0501V31.9793H83.8771V36.0501H87.9482Z" fill="black"/>
<path d="M87.8509 46.0334V41.9626H83.7809V46.0334H87.8509Z" fill="black"/>
<path d="M87.9493 56.0176V51.9468H83.8782V56.0176H87.9493Z" fill="black"/>
<path d="M97.8378 66.0972V62.0269H93.7667V66.0972H97.8378Z" fill="black"/>
<path d="M87.9504 75.9856V71.9145H83.8793V75.9856H87.9504Z" fill="black"/>
</svg>
