<svg width="132" height="88" viewBox="0 0 132 88" fill="none" xmlns="http://www.w3.org/2000/svg">
<path d="M82.2838 12.0156H49.7172C41.0453 12.0156 34.0156 19.0455 34.0156 27.7172V60.2838C34.0156 68.9556 41.0453 75.9852 49.7172 75.9852H82.2838C90.9556 75.9852 97.9852 68.9556 97.9852 60.2838V27.7172C97.9852 19.0455 90.9556 12.0156 82.2838 12.0156Z" fill="#2EA1F2"/>
<path fill-rule="evenodd" clip-rule="evenodd" d="M57.2787 35.278C52.855 35.278 49.1997 31.9843 48.6318 27.7152C48.548 27.0783 49.0768 26.5547 49.7184 26.5547H57.2787V35.278ZM66.0017 35.278H57.2787H49.7184C49.0768 35.278 48.548 35.8016 48.6318 36.4382C49.1997 40.7073 52.855 44.001 57.2787 44.001H49.7184C49.0768 44.001 48.548 44.5246 48.6318 45.1615C49.1997 49.4306 52.855 52.7242 57.2787 52.7242C52.855 52.7242 49.1997 56.0179 48.6318 60.287C48.548 60.9239 49.0768 61.4475 49.7184 61.4475H66.0017C75.6371 61.4475 83.4485 53.6364 83.4485 44.001C83.4485 39.1835 79.5421 35.278 74.7244 35.278C77.1334 35.278 79.0864 33.3252 79.0864 30.9165V32.6319C79.0864 33.2743 79.6282 33.8166 80.2189 33.5639C80.8987 33.2729 81.4435 32.7279 81.7341 32.0484C81.9871 31.4577 81.4443 30.9165 80.8016 30.9165H79.0864C80.275 30.9165 81.2944 30.1968 81.7341 29.1697C81.9871 28.5792 81.4443 28.0378 80.8016 28.0378H80.2499C79.6073 28.0378 79.0864 28.5583 79.0864 29.2007V30.9165C79.0864 28.5075 77.1334 26.5547 74.7244 26.5547C72.3156 26.5547 70.3637 28.5075 70.3637 30.9165C70.3637 33.3252 72.3156 35.278 74.7244 35.278C69.9069 35.278 66.0017 39.1835 66.0017 44.001V35.278ZM66.0017 35.278H66.0028V27.7179C66.0028 27.0755 65.4819 26.5547 64.8392 26.5547H57.2787C57.2787 31.3721 61.185 35.2777 66.0017 35.278ZM66.0017 44.001C61.1839 44.001 57.2787 40.0957 57.2787 35.278V44.001C57.2787 48.4254 60.5723 52.0805 64.8412 52.6478C65.4778 52.7322 66.0017 52.2037 66.0017 51.561V44.001Z" fill="white"/>
<path d="M82.2841 12.5977H49.7175C41.3675 12.5977 34.5977 19.3671 34.5977 27.7178V60.2841C34.5977 68.6351 41.3675 75.4039 49.7175 75.4039H82.2841C90.6351 75.4039 97.4039 68.6351 97.4039 60.2841V27.7178C97.4039 19.3671 90.6351 12.5977 82.2841 12.5977Z" stroke="white" stroke-opacity="0.5" stroke-width="0.720002"/>
</svg>
