<svg width="132" height="88" viewBox="0 0 132 88" fill="none" xmlns="http://www.w3.org/2000/svg">
<path d="M96.1683 27.3503C96.1683 31.3822 94.7452 34.8686 91.8992 37.8095C89.0531 40.703 84.9027 42.7901 79.4477 44.0708C82.3886 44.8772 84.618 46.2053 86.1359 48.0553C87.6538 49.8578 88.4128 51.9449 88.4128 54.3166C88.4128 58.0639 87.2269 61.3131 84.8552 64.0643C82.5309 66.8155 79.1157 68.95 74.6094 70.4679C70.1032 71.9384 64.672 72.6736 58.3158 72.6736C55.9441 72.6736 54.0467 72.6024 52.6237 72.4601C52.5763 73.7883 52.0071 74.7844 50.9161 75.4485C49.8251 76.1126 48.4258 76.4446 46.7182 76.4446C45.0105 76.4446 43.8247 76.0651 43.1606 75.3062C42.544 74.5472 42.2831 73.4325 42.3779 71.9621C42.8049 65.3213 43.6349 58.3722 44.8682 51.1148C46.1015 43.8099 47.6669 36.7659 49.5642 29.9829C49.8963 28.797 50.5603 27.9669 51.5565 27.4926C52.5526 27.0182 53.857 26.781 55.4698 26.781C58.3633 26.781 59.81 27.5874 59.81 29.2002C59.81 29.8643 59.6677 30.6232 59.3831 31.477C58.1498 35.1769 56.9165 40.2049 55.6832 46.5611C54.4499 52.8698 53.5724 58.894 53.0506 64.6335C55.3275 64.8232 57.1774 64.9181 58.6004 64.9181C65.2412 64.9181 70.1032 63.9694 73.1864 62.0721C76.3171 60.1273 77.8824 57.6607 77.8824 54.6723C77.8824 52.5852 76.9812 50.8302 75.1787 49.4071C73.4236 47.9841 70.459 47.2015 66.2848 47.0591C65.3361 47.0117 64.672 46.7745 64.2925 46.3476C63.913 45.9207 63.7233 45.2329 63.7233 44.2842C63.7233 42.9087 64.0079 41.794 64.5771 40.9401C65.1463 40.0863 66.1899 39.6357 67.7078 39.5883C71.0756 39.4934 74.1114 38.9953 76.8151 38.0941C79.5663 37.1928 81.7246 35.9358 83.2899 34.3231C84.8552 32.6629 85.6379 30.7418 85.6379 28.5598C85.6379 25.8086 84.286 23.6504 81.5823 22.0851C78.8785 20.4723 74.728 19.6659 69.1308 19.6659C64.0553 19.6659 59.1459 20.33 54.4025 21.6582C49.6591 22.9389 45.6272 24.5754 42.3068 26.5676C40.7889 27.4688 39.5082 27.9195 38.4646 27.9195C37.6108 27.9195 36.9467 27.6349 36.4724 27.0657C36.0455 26.449 35.832 25.6901 35.832 24.7888C35.832 23.603 36.0692 22.5831 36.5435 21.7293C37.0653 20.8755 38.2749 19.9031 40.1723 18.8121C44.1567 16.5353 48.829 14.7565 54.189 13.4758C59.5491 12.195 65.0277 11.5547 70.625 11.5547C79.2106 11.5547 85.6142 13.0014 89.8358 15.8949C94.0574 18.7884 96.1683 22.6068 96.1683 27.3503Z" fill="#222222"/>
</svg>
