<svg width="132" height="88" viewBox="0 0 132 88" fill="none" xmlns="http://www.w3.org/2000/svg">
<path fill-rule="evenodd" clip-rule="evenodd" d="M32.3301 44.0009C32.3301 62.5342 47.5023 77.5527 66.0355 77.533C84.5269 77.5134 99.6495 62.528 99.6692 44.0366C99.689 25.5034 84.5329 10.4688 65.9997 10.4688C47.4803 10.4688 32.3301 25.4816 32.3301 44.0009Z" fill="#333333"/>
<path d="M54.8799 60.2453V28.0703H68.2629C70.6658 28.0703 72.6769 28.4107 74.2962 29.0915C75.926 29.7723 77.1483 30.7254 77.9632 31.9508C78.7885 33.1762 79.2012 34.5954 79.2012 36.2083C79.2012 37.4337 78.9452 38.5282 78.4333 39.4918C77.9214 40.4449 77.2162 41.2357 76.3177 41.8641C75.4193 42.4925 74.3798 42.9324 73.1992 43.1838V43.498C74.4947 43.5608 75.6909 43.9117 76.7879 44.5506C77.8953 45.1895 78.7833 46.0797 79.4519 47.2213C80.1206 48.3525 80.4549 49.6931 80.4549 51.2432C80.4549 52.9714 80.0161 54.5162 79.1385 55.8778C78.261 57.2289 76.9916 58.2972 75.3305 59.0827C73.6694 59.8578 71.653 60.2453 69.2815 60.2453H54.8799ZM62.637 53.9768H67.4323C69.1143 53.9768 70.3523 53.6574 71.1463 53.0185C71.9508 52.3796 72.353 51.4894 72.353 50.3477C72.353 49.5203 72.1597 48.8081 71.7732 48.2111C71.3866 47.6036 70.8381 47.1376 70.1277 46.8129C69.4173 46.4777 68.5659 46.3101 67.5734 46.3101H62.637V53.9768ZM62.637 41.2985H66.9308C67.7771 41.2985 68.5293 41.1571 69.1875 40.8743C69.8456 40.5915 70.3576 40.1831 70.7232 39.6489C71.0993 39.1148 71.2874 38.4706 71.2874 37.7165C71.2874 36.6377 70.906 35.7894 70.1434 35.1714C69.3807 34.5535 68.3517 34.2445 67.0562 34.2445H62.637V41.2985Z" fill="white"/>
</svg>
