<svg width="132" height="88" viewBox="0 0 132 88" fill="none" xmlns="http://www.w3.org/2000/svg">
<path fill-rule="evenodd" clip-rule="evenodd" d="M65.9994 8.01562C46.1268 8.01562 30.0166 24.1259 30.0166 43.9985C30.0166 63.8713 46.1268 79.9817 65.9994 79.9817C85.872 79.9817 101.983 63.8713 101.983 43.9985C101.983 24.1259 85.872 8.01562 65.9994 8.01562Z" fill="white"/>
<path fill-rule="evenodd" clip-rule="evenodd" d="M89.9533 55.1687L88.5071 57.6657C86.2221 61.6136 82.9378 64.8916 78.9847 67.1694C75.0304 69.4483 70.5466 70.6479 65.9816 70.6479C61.4179 70.6479 56.9341 69.4483 52.9798 67.1705C49.0267 64.8916 45.7424 61.6141 43.4564 57.6665L42.0111 55.1692L47.0057 52.2782L48.4511 54.7754C50.2293 57.8464 52.784 60.3967 55.8616 62.1699C58.9391 63.9431 62.4294 64.8765 65.9816 64.8765C69.5351 64.8765 73.0254 63.9431 76.1029 62.1696C79.1794 60.3962 81.7352 57.8458 83.5134 54.7749L84.9588 52.2776L89.9533 55.1687Z" fill="#4557F6"/>
</svg>
