<svg width="132" height="88" viewBox="0 0 132 88" fill="none" xmlns="http://www.w3.org/2000/svg">
<path d="M72.6599 28.6159C66.9184 28.6159 61.2413 31.0785 56.9233 35.9402V12.0156H48.3512V52.3005C48.3512 65.3823 58.9541 75.9852 72.0362 75.9852C85.1179 75.9852 95.7208 65.3823 95.7208 52.3005C95.7208 39.2188 85.7257 28.6159 72.6599 28.6159ZM72.0362 66.8535C63.9919 66.8535 57.4829 60.3286 57.4829 52.3005C57.4829 44.2725 64.0078 37.7475 72.0362 37.7475C80.0802 37.7475 86.5892 44.2725 86.5892 52.3005C86.5892 60.3286 80.0802 66.8535 72.0362 66.8535Z" fill="black"/>
<path d="M42.1306 75.9695C45.3631 75.9695 47.9838 73.3488 47.9838 70.1161C47.9838 66.8838 45.3631 64.263 42.1306 64.263C38.8981 64.263 36.2773 66.8838 36.2773 70.1161C36.2773 73.3488 38.8981 75.9695 42.1306 75.9695Z" fill="#0000FF"/>
</svg>
