<svg width="132" height="88" viewBox="0 0 132 88" fill="none" xmlns="http://www.w3.org/2000/svg">
<path d="M92.4326 41.5331C91.9997 41.4228 91.5509 41.3599 91.0862 41.356C91.0543 41.356 91.0191 41.356 90.9872 41.356H65.0805C61.7052 41.356 58.9714 44.227 58.9714 47.7718C58.9714 51.3162 61.7052 54.1875 65.0805 54.1875H77.5966C78.4711 53.1123 79.6525 52.4624 80.846 52.2259C82.5073 51.8913 84.3984 52.3285 85.5598 53.7778C85.6266 53.8605 85.6898 53.9433 85.7487 54.0338C85.7847 54.0811 85.8155 54.1364 85.8477 54.1875H90.9872C91.6879 54.1875 92.3616 54.0654 92.9883 53.833C93.405 53.6834 93.7988 53.4865 94.1656 53.25C94.5594 53.002 94.9213 52.7028 95.2491 52.3678C96.3865 51.2021 97.0952 49.5716 97.0952 47.7718C97.0952 44.7509 95.1072 42.2184 92.4326 41.537V41.5331ZM93.7839 48.4727C93.6618 49.0794 93.394 49.6266 93.0191 50.0757C92.9372 50.1742 92.8503 50.2646 92.7593 50.3513C92.5195 50.5798 92.2516 50.7767 91.9557 50.9263C91.6727 51.072 91.365 51.1823 91.0422 51.2414C90.8532 51.2731 90.6563 51.2926 90.4553 51.2926H65.6082C63.7292 51.2926 62.2048 49.6937 62.2048 47.7165C62.2048 45.7395 63.7292 44.1442 65.6082 44.1442H90.4553C90.6363 44.1442 90.8142 44.1602 90.9872 44.1877C91.1841 44.2193 91.3771 44.2705 91.5619 44.3373C91.9956 44.491 92.3894 44.7391 92.7243 45.0504C92.8143 45.137 92.9012 45.2275 92.9883 45.3221C93.5309 45.9601 93.8617 46.7991 93.8617 47.7165C93.8617 47.9766 93.8348 48.2285 93.7839 48.4727Z" fill="#0EF275"/>
<path d="M93.6164 56.4673C92.7887 56.7428 91.9032 56.8927 90.9896 56.8927H86.5976C86.6136 57.5662 86.5187 58.2473 86.3028 58.8735C85.9989 59.7675 85.4363 60.6145 84.5497 61.1934C83.6601 61.7684 82.5565 62.0047 81.2931 61.8669C80.6076 61.7921 80.1038 61.1698 80.1387 60.457C80.1387 60.4295 80.1387 60.4055 80.1428 60.378C80.2138 59.6336 80.8474 59.0943 81.556 59.1689C82.3676 59.2596 82.8755 59.0943 83.1873 58.8895C83.5061 58.6805 83.734 58.3656 83.8759 57.9561C83.995 57.6093 84.0338 57.243 84.0178 56.8927C83.995 56.3372 83.8289 55.8293 83.6012 55.5378C83.5971 55.5298 83.593 55.5259 83.5891 55.518C83.1752 55.0021 82.3247 54.6831 81.3322 54.8841C80.8394 54.9825 80.3675 55.199 79.9619 55.5378C79.5829 55.8568 79.2642 56.2781 79.0552 56.8176C79.0483 56.8415 79.0362 56.869 79.0203 56.8927C78.8074 57.369 78.3506 57.6566 77.8697 57.6608C77.7049 57.6608 77.535 57.6291 77.3741 57.5582C77.0672 57.4281 76.8302 57.1839 76.7004 56.8927H60.636C55.8342 56.8927 51.9432 52.8045 51.9432 47.7674C51.9432 42.7299 55.8342 38.6418 60.636 38.6418H89.1383C88.0551 34.6914 86.4409 31.6273 84.1127 29.347C83.7379 28.9766 83.3413 28.6263 82.9195 28.2993L82.0849 33.821C81.9859 34.4788 81.446 34.9631 80.8124 34.9631H72.0886C71.9305 34.9631 71.7776 34.9356 71.6398 34.8767C71.5408 34.8413 71.4509 34.794 71.3678 34.731C71.3249 34.6994 71.2848 34.6677 71.246 34.6325C71.2059 34.6009 71.1671 34.5616 71.1311 34.5181C71.0961 34.4788 71.0651 34.4356 71.0332 34.3881C71.0211 34.3765 71.0131 34.3606 71.0051 34.349C67.6655 29.4771 61.5495 28.4923 55.5113 31.0012C49.7061 33.4195 44.2787 39.0042 42.2507 46.8612C43.8259 47.4363 45.421 48.5627 46.9575 50.3114C47.4423 50.8589 47.4101 51.7175 46.8865 52.2254C46.7287 52.3791 46.5397 52.4855 46.3428 52.5367C45.8979 52.6626 45.3971 52.5287 45.0633 52.1467C44.0389 50.9849 43.0543 50.2168 42.1367 49.7443C42.0968 49.7245 42.0578 49.7047 42.0228 49.6893C41.9668 49.6616 41.9118 49.6341 41.8569 49.6104C41.66 49.5197 41.4711 49.4451 41.2822 49.3819C41.2272 49.3624 41.1712 49.3464 41.1202 49.3307C41.0652 49.3112 41.0143 49.2953 40.9593 49.2834C40.9043 49.2678 40.8483 49.2559 40.7974 49.2441C40.3366 49.13 39.8998 49.0945 39.494 49.1143C39.3091 49.1259 39.1272 49.1457 38.9543 49.1773C37.324 49.4765 35.9647 50.7448 35.311 52.4028C34.6613 54.0451 34.7523 55.9472 35.8587 57.4872C36.3235 58.1332 37.0052 58.7632 37.9577 59.2871C38.8523 58.6334 39.9388 58.2515 41.1082 58.2515C41.1992 58.2515 41.2901 58.2553 41.3761 58.2592C41.8958 58.2828 42.4006 58.3854 42.8734 58.5545C42.9633 58.5861 43.0503 58.6175 43.1373 58.6571C43.2272 58.6926 43.3182 58.7357 43.4091 58.7792C43.4162 58.7792 43.4281 58.7869 43.4361 58.7907C43.4951 58.8185 43.5541 58.8499 43.61 58.8815C43.653 58.9013 43.696 58.9247 43.74 58.9524C43.807 58.9918 43.8739 59.0311 43.9409 59.0707C44.0229 59.1218 44.1019 59.1768 44.1808 59.2321C44.2396 59.2753 44.3026 59.3187 44.3617 59.366C44.4365 59.421 44.5116 59.4802 44.5826 59.5431C44.6535 59.6023 44.7245 59.6652 44.7916 59.7321C45.4331 60.3349 45.9411 61.0908 46.2557 61.9497C46.3547 62.2172 46.4377 62.4931 46.4966 62.7766C49.0486 66.6519 52.4437 69.3304 56.201 71.1696C62.0533 74.0293 68.7842 74.848 74.4984 74.848C80.5996 74.848 85.4632 72.0911 88.8155 68.7358C90.4927 67.0575 91.7772 65.2464 92.6358 63.5878C93.5095 61.9024 93.8843 60.4883 93.8843 59.5904C93.8843 58.4836 93.7853 57.4479 93.6164 56.4673ZM43.736 56.5421C43.3062 56.9438 42.6875 56.987 42.2197 56.6955C42.1088 56.6248 42.0068 56.5341 41.9158 56.4279C41.4001 55.8213 41.0652 55.5614 40.7584 55.4195C40.6754 55.3802 40.5845 55.3488 40.4785 55.3211C40.1947 55.2424 39.8088 55.2069 39.2181 55.2226C38.5055 55.2463 37.9107 54.6594 37.8868 53.9111C37.8678 53.167 38.4265 52.5405 39.1392 52.5169C39.399 52.5089 39.6519 52.5089 39.8958 52.5169C40.3646 52.5367 40.8134 52.5997 41.2422 52.7297C41.4241 52.7847 41.601 52.8518 41.7779 52.9305C42.5935 53.3006 43.2232 53.8993 43.8459 54.6278C44.3188 55.1871 44.2707 56.046 43.736 56.5421ZM77.9368 66.172C75.7989 66.4668 73.7777 66.337 72.0886 65.6124C70.3553 64.8677 69.0361 63.513 68.3624 61.5361C68.1226 60.831 68.4732 60.0552 69.1428 59.803C69.8116 59.5511 70.5522 59.9174 70.7931 60.6222C71.2059 61.8391 71.9745 62.635 73.0651 63.1036C74.1995 63.592 75.7318 63.7416 77.6018 63.4855C78.3116 63.3871 78.9573 63.911 79.0522 64.6518C79.1421 65.3913 78.6465 66.073 77.9368 66.172Z" fill="#0EF275"/>
<path fill-rule="evenodd" clip-rule="evenodd" d="M58.8507 18.0411C58.6738 18.1198 58.4959 18.1986 58.3229 18.2813C57.6693 18.5846 56.9086 18.2734 56.6179 17.5921C56.4678 17.2336 56.4758 16.8438 56.6097 16.509H56.6138C56.7356 16.2058 56.9647 15.9498 57.2755 15.804C57.4685 15.7135 57.6654 15.6228 57.8582 15.5402C58.1571 15.4102 58.4728 15.4062 58.7517 15.5047C59.0987 15.6189 59.3946 15.8907 59.5475 16.2687C59.8192 16.962 59.5085 17.7536 58.8507 18.0411Z" fill="#0EF275"/>
<path fill-rule="evenodd" clip-rule="evenodd" d="M55.4002 19.9004C53.64 21.0425 52.0056 22.4289 50.5245 24.0437C50.0328 24.5832 49.213 24.5989 48.7012 24.0791C48.4724 23.8506 48.3424 23.5591 48.3116 23.2558C48.2714 22.8658 48.3905 22.4643 48.6652 22.1649C50.2927 20.3887 52.0958 18.8606 54.0417 17.5924C54.3407 17.3994 54.6836 17.3482 54.9993 17.423C55.3293 17.4979 55.629 17.7066 55.818 18.0335C56.1958 18.6715 56.0069 19.5065 55.4002 19.9004Z" fill="#0EF275"/>
<path fill-rule="evenodd" clip-rule="evenodd" d="M44.0477 64.0463C44.0477 65.7515 42.7322 67.1337 41.109 67.1337C39.4868 67.1337 38.1714 65.7515 38.1714 64.0463C38.1714 63.4831 38.3163 62.9553 38.5692 62.4986C38.7931 62.0891 39.1089 61.7423 39.4828 61.4783C39.9476 61.1516 40.5063 60.9627 41.109 60.9627C41.7117 60.9627 42.2755 61.1555 42.7432 61.4824C42.9681 61.6439 43.173 61.8331 43.3459 62.0456C43.6418 62.4117 43.8587 62.8489 43.9647 63.3296C43.9997 63.4792 44.0238 63.6329 44.0356 63.7902C44.0436 63.873 44.0477 63.9596 44.0477 64.0463Z" fill="#0EF275"/>
<path d="M73.2081 47.7135C73.2081 48.0443 73.0981 48.3435 72.9131 48.5838C72.8853 48.6232 72.8542 48.6586 72.8223 48.6941C72.5822 48.946 72.2555 49.0997 71.8887 49.0997H66.0724C65.3429 49.0997 64.7491 48.4774 64.7491 47.7135C64.7491 46.9492 65.3429 46.3269 66.0724 46.3269H71.8887C72.3105 46.3269 72.6843 46.5318 72.9213 46.8546C73.102 47.0911 73.2081 47.3903 73.2081 47.7135Z" fill="#0EF275"/>
<path fill-rule="evenodd" clip-rule="evenodd" d="M82.6063 13.1523L79.7116 32.2538H73.2326L73.2246 32.1947L72.3312 24.2705L72.1772 22.8843L72.0193 21.5019L71.0788 13.1523H82.6063Z" fill="#0EF275"/>
</svg>
