<svg width="132" height="88" viewBox="0 0 132 88" fill="none" xmlns="http://www.w3.org/2000/svg">
<path d="M65.9996 77.2766C84.3769 77.2766 99.2746 62.3788 99.2746 44.0016C99.2746 25.6243 84.3769 10.7266 65.9996 10.7266C47.6223 10.7266 32.7246 25.6243 32.7246 44.0016C32.7246 62.3788 47.6223 77.2766 65.9996 77.2766Z" fill="#222222"/>
<path fill-rule="evenodd" clip-rule="evenodd" d="M72.7477 46.0307C72.7477 50.2185 72.7562 54.3231 72.7442 58.4276C72.7381 60.514 70.5801 61.6713 68.7104 60.6099C67.7442 60.0614 67.5098 59.1876 67.5117 58.1825C67.5204 53.4748 67.5155 48.7669 67.5155 44.059C67.5155 39.2566 67.5084 34.4539 67.5196 29.6513C67.5236 27.9236 68.5194 26.9695 70.2309 26.9967C71.7305 27.0203 72.7385 27.9836 72.7437 29.4517C72.7562 32.9903 72.7477 36.5292 72.7477 40.0679C72.748 40.4119 72.7477 40.7559 72.7477 41.1709H78.4585C78.4754 40.8212 78.5076 40.458 78.5082 40.095C78.5122 36.5878 78.4984 33.0806 78.5167 29.5736C78.5252 27.9187 79.5335 26.9811 81.2085 26.9967C82.7291 27.0106 83.7323 27.9487 83.7381 29.4206C83.7522 32.8961 83.7428 36.3718 83.7428 39.8473C83.7428 45.9768 83.744 52.1065 83.7422 58.2362C83.7417 60.014 82.823 60.963 81.1221 60.9558C79.4463 60.9488 78.5161 59.9776 78.5127 58.1992C78.5059 54.534 78.5105 50.8689 78.5104 47.2038V46.0307H72.7477Z" fill="#F8F8F9"/>
<path fill-rule="evenodd" clip-rule="evenodd" d="M57.3462 40.8852C58.3581 40.7605 59.1047 40.1151 59.1565 39.1201C59.2611 37.1128 59.2645 35.0885 59.109 33.0872C59.0682 32.5623 58.3719 31.8234 57.8351 31.6618C56.8566 31.3671 55.7724 31.4303 54.7087 31.3422V41.0378C55.6232 40.9892 56.4913 40.9907 57.3462 40.8852ZM54.7138 55.8718C55.9147 55.7934 57.0695 55.8073 58.1912 55.6192C59.2722 55.4379 60.0294 54.6718 60.083 53.5571C60.1763 51.6121 60.1897 49.6546 60.0781 47.7116C60.0106 46.5389 59.2365 45.7256 58.0469 45.5622C56.9751 45.4151 55.8822 45.4249 54.7138 45.361V55.8718ZM61.7611 43.0462C64.4778 44.4175 65.2929 46.752 65.1842 49.5826C65.121 51.2216 65.2798 52.8929 65.0171 54.4959C64.4575 57.9108 61.7431 60.142 58.3003 60.2123C56.2365 60.2544 54.1709 60.2351 52.1064 60.2161C50.693 60.2032 49.7429 59.2657 49.7409 57.839C49.7291 48.3563 49.7304 38.8734 49.7398 29.3905C49.7409 28.1049 50.542 27.0475 51.7157 27.0318C54.2118 26.9984 56.7334 26.9169 59.2012 27.2174C62.291 27.5934 64.1586 29.93 64.255 33.0869C64.308 34.8238 64.3095 36.5648 64.2558 38.3017C64.1954 40.2499 63.2622 41.7828 61.7611 43.0462Z" fill="#F8F8F9"/>
</svg>
