<svg width="132" height="88" viewBox="0 0 132 88" fill="none" xmlns="http://www.w3.org/2000/svg">
<path d="M65.9996 77.2766C84.3769 77.2766 99.2746 62.3788 99.2746 44.0016C99.2746 25.6243 84.3769 10.7266 65.9996 10.7266C47.6223 10.7266 32.7246 25.6243 32.7246 44.0016C32.7246 62.3788 47.6223 77.2766 65.9996 77.2766Z" fill="#101010"/>
<path fill-rule="evenodd" clip-rule="evenodd" d="M83.1505 48.5166H78.9043L74.844 42.5967L70.9077 48.5166H66.7545L72.7984 40.0862L67.2505 32.4927H71.5276L74.875 37.4207L78.3774 32.4927H82.4686L77.0137 39.9002L83.1505 48.5166ZM62.5861 46.3935C62.0175 47.1685 61.2999 47.7882 60.432 48.2532C59.5641 48.7181 58.5413 48.9506 57.3636 48.9506C56.826 48.9506 56.2836 48.9142 55.7364 48.842C55.1887 48.7694 54.667 48.63 54.1712 48.4237C53.6752 48.2173 53.2258 47.9485 52.823 47.6178C52.42 47.2875 52.0839 46.8536 51.8156 46.316H51.7536V48.5166H48.4062V26.3867H51.9395V34.5692H52.0016C52.2495 34.177 52.5488 33.8253 52.9005 33.5154C53.2515 33.2054 53.6389 32.942 54.0627 32.7251C54.486 32.5081 54.9305 32.343 55.3954 32.2292C55.8604 32.1159 56.32 32.0587 56.7747 32.0587C58.0348 32.0587 59.1351 32.281 60.0755 32.7251C61.0156 33.1697 61.7957 33.7789 62.4156 34.5537C63.0355 35.3286 63.5004 36.2328 63.8104 37.2657C64.1203 38.2992 64.2753 39.4044 64.2753 40.5822C64.2753 41.6567 64.1359 42.7004 63.8569 43.7126C63.5779 44.7252 63.1542 45.6187 62.5861 46.3935ZM60.463 38.4125C60.277 37.7307 59.998 37.1263 59.6262 36.5994C59.2542 36.0725 58.7894 35.6492 58.2314 35.3286C57.6735 35.0085 57.0328 34.8482 56.3098 34.8482C54.8221 34.8482 53.701 35.3649 52.9469 36.3979C52.1924 37.4314 51.8156 38.8053 51.8156 40.5201C51.8156 41.326 51.9134 42.0751 52.11 42.7672C52.3061 43.4597 52.6006 44.0535 52.9933 44.5494C53.3856 45.0453 53.8558 45.438 54.4036 45.7272C54.9509 46.0168 55.5862 46.1611 56.3098 46.1611C57.1156 46.1611 57.7974 45.9959 58.3554 45.6651C58.9133 45.3349 59.3729 44.9058 59.7346 44.3789C60.0959 43.852 60.3545 43.253 60.5095 42.5813C60.6645 41.91 60.7419 41.2228 60.7419 40.5201C60.7419 39.7971 60.6489 39.0944 60.463 38.4125Z" fill="white"/>
<path fill-rule="evenodd" clip-rule="evenodd" d="M47.7305 57.4297H84.4406V61.3169H47.7305V57.4297Z" fill="#23B9D1"/>
</svg>
