<svg width="132" height="88" viewBox="0 0 132 88" fill="none" xmlns="http://www.w3.org/2000/svg">
<path d="M31.625 22.825C31.625 15.5348 37.5348 9.625 44.825 9.625H87.175C94.4652 9.625 100.375 15.5348 100.375 22.825V65.175C100.375 72.4652 94.4652 78.375 87.175 78.375H44.825C37.5348 78.375 31.625 72.4652 31.625 65.175V22.825Z" fill="url(#paint0_linear_2056_24248)"/>
<path d="M79.4956 59.5597C81.4891 57.691 82.6541 55.1808 82.7662 52.4899C82.841 50.6586 82.4361 48.846 81.5888 47.2265C80.7478 45.6008 79.4894 44.2367 77.9506 43.2525C79.1343 42.3182 80.0874 41.1285 80.7416 39.7706C81.3957 38.4127 81.7321 36.9178 81.7259 35.4104C81.6885 29.985 77.1781 25.575 71.6647 25.575H49.2499V27.4873C49.2499 27.9669 49.4368 28.4216 49.7732 28.7579C50.1096 29.0943 50.5644 29.2874 51.0379 29.2874H71.6959C72.5431 29.2936 73.3842 29.4618 74.1629 29.7919C74.9478 30.1221 75.6518 30.6079 76.2499 31.2121C77.4211 32.4081 78.0503 33.9591 78.0191 35.5848C77.9942 37.2105 77.3276 38.7553 76.1751 39.8952C75.0164 41.0288 73.4652 41.6704 71.8454 41.6704H51.0316C50.5582 41.6704 50.1034 41.8573 49.767 42.1936C49.4306 42.5237 49.2375 42.9785 49.2375 43.4581V45.3703H72.2815C74.0383 45.3703 75.7266 46.0431 77.0037 47.2515C78.2932 48.4723 79.0346 50.098 79.0844 51.8421C79.1094 52.7329 78.9536 53.6236 78.6359 54.4583C78.3119 55.2867 77.826 56.0466 77.203 56.6882C76.5863 57.3298 75.8387 57.8343 75.0226 58.1831C74.2003 58.5319 73.3219 58.7126 72.431 58.7126H51.0192C50.5457 58.7126 50.0847 58.9057 49.7483 59.242C49.4119 59.5784 49.225 60.0331 49.225 60.5127V62.425H72.2254C74.9229 62.4312 77.527 61.4034 79.4956 59.5597Z" fill="#FBFEFF"/>
<defs>
<linearGradient id="paint0_linear_2056_24248" x1="32.6536" y1="42.9064" x2="100.543" y2="42.9064" gradientUnits="userSpaceOnUse">
<stop stop-color="#9B4DD4"/>
<stop offset="1" stop-color="#4993E8"/>
</linearGradient>
</defs>
</svg>
