<svg width="132" height="88" viewBox="0 0 132 88" fill="none" xmlns="http://www.w3.org/2000/svg">
<path d="M29 23.7097C29 14.4812 36.4812 7 45.7097 7H71.9677C75.9228 7 79.129 10.2062 79.129 14.1613V49.9677C79.129 53.9228 75.9228 57.129 71.9677 57.129H36.1613C32.2062 57.129 29 53.9228 29 49.9677V23.7097Z" fill="#F59800"/>
<path d="M40.9355 28.4839C40.9355 23.2104 45.2104 18.9355 50.4839 18.9355H81.5161C86.7896 18.9355 91.0645 23.2104 91.0645 28.4839V59.5161C91.0645 64.7896 86.7896 69.0645 81.5161 69.0645H50.4839C45.2104 69.0645 40.9355 64.7896 40.9355 59.5161V28.4839Z" fill="#5BA1F7"/>
<path d="M52.871 40.4194C52.871 35.1459 57.1459 30.871 62.4194 30.871H93.4516C98.725 30.871 103 35.1459 103 40.4194V64.2903C103 73.5188 95.5188 81 86.2903 81H62.4194C57.1459 81 52.871 76.725 52.871 71.4516V40.4194Z" fill="#937AC5"/>
</svg>
