<svg width="132" height="88" viewBox="0 0 132 88" fill="none" xmlns="http://www.w3.org/2000/svg">
<path fill-rule="evenodd" clip-rule="evenodd" d="M20.9735 20.2052L21.0978 21.7111L69.5084 21.8131L117.919 21.9151V40.9889V60.0627H119.322H120.725V39.381V18.6992H70.7873H20.8489L20.9735 20.2052ZM16.0864 24.9222V26.3294L63.9958 26.3796C90.346 26.4073 112.131 26.4523 112.406 26.48C112.798 26.5193 112.93 30.681 113.012 45.5052L113.116 64.4802H114.719H116.323L116.219 44.0996L116.115 23.7191L66.1006 23.6171L16.0864 23.5151V24.9222ZM11.5428 28.6052C11.3957 28.7522 11.2754 37.9686 11.2754 49.0861V69.2992H61.3899H111.504V48.8183V28.3373H61.6573C34.2411 28.3373 11.6895 28.4578 11.5428 28.6052ZM14.7501 31.4163C14.603 31.5633 14.4827 39.5147 14.4827 49.0861V66.4881H61.3899H108.297V48.8183V31.1484H61.6573C36.0051 31.1484 14.8969 31.2689 14.7501 31.4163ZM23.9712 40.2512C23.8241 40.3982 23.7038 44.4643 23.7038 49.2869V58.0548H28.1267C34.7382 58.0548 36.5988 56.9347 36.6012 52.9538C36.602 51.2623 36.4349 50.88 35.2313 49.8222L33.8602 48.6175L34.8961 47.7533C35.7601 47.032 35.9317 46.5517 35.9317 44.851C35.9317 42.3969 34.7458 40.9379 32.2862 40.3665C30.4632 39.9428 24.3633 39.8581 23.9712 40.2512ZM39.5011 40.5428C39.374 40.8745 39.3307 44.1245 39.4048 47.7649C39.5592 55.3244 39.7701 55.9051 42.9714 57.5821C44.4151 58.3383 45.182 58.4789 47.0263 58.3254C49.8547 58.0905 51.6183 57.0902 52.6078 55.1593C53.2709 53.8658 53.3715 52.7663 53.3715 46.8264V39.9833H51.4006H49.4301L49.2958 46.7497C49.1455 54.3521 48.9811 54.8461 46.6073 54.8361C43.9805 54.8248 43.9713 54.7995 43.7496 47.1272L43.5491 40.1841L41.6408 40.0617C40.2303 39.9709 39.6719 40.0966 39.5011 40.5428ZM57.2472 40.2512C57.1001 40.3982 56.9798 44.4643 56.9798 49.2869V58.0548H58.9844H60.9889V54.6413V51.2278H62.1023C63.0998 51.2278 63.392 51.5836 64.9059 54.6413L66.5958 58.0548H68.8333H71.0704L69.0678 54.3554L67.0652 50.6563L68.5306 49.3873C69.9202 48.1846 69.9963 47.9906 69.9963 45.6582C69.9963 43.4398 69.8732 43.0752 68.7471 41.9471C67.9496 41.1484 66.8652 40.5737 65.747 40.3572C63.6418 39.9496 57.6229 39.8745 57.2472 40.2512ZM75.4468 40.717C73.5993 41.7098 72.5133 43.7547 72.763 45.7714C73.0782 48.3179 74.0929 49.295 77.6354 50.464C81.0768 51.5997 81.6922 52.1567 81.2881 53.7698C80.809 55.6822 77.4092 55.7232 76.5465 53.8269C76.1688 52.996 75.8152 52.8341 74.3791 52.8341C73.435 52.8341 72.5526 53.0128 72.4179 53.2313C71.9849 53.9333 73.4614 56.4103 74.8113 57.246C79.1015 59.9017 84.8499 57.8427 85.3414 53.4739C85.7275 50.0435 84.1647 48.1926 80.0324 47.1858C77.8094 46.6441 76.6247 45.8216 76.6247 44.8205C76.6247 42.9647 79.6857 42.5354 80.91 44.2193C81.5772 45.1369 81.833 45.214 83.3785 44.9666C84.9934 44.708 85.086 44.6237 84.8414 43.6418C84.6979 43.0655 84.2789 42.2523 83.9101 41.8355C82.2495 39.9572 77.9248 39.3858 75.4468 40.717ZM87.0485 41.7905V43.5976H89.2535H91.4585V50.8262V58.0548H93.4631H95.4677V50.8262V43.5976H97.6727H99.8778V41.7905V39.9833H93.4631H87.0485V41.7905ZM27.7923 45.3044L27.9134 47.4127L29.4096 47.3677C31.2622 47.3115 32.123 46.6352 32.123 45.2353C32.123 43.7201 31.4274 43.196 29.416 43.196H27.6708L27.7923 45.3044ZM61.1401 43.7828C61.0306 44.0683 60.997 45.1827 61.0651 46.259L61.1894 48.2159L63.0994 48.1902C64.1498 48.1761 65.223 47.9504 65.4848 47.6882C66.0661 47.1059 66.1134 44.5542 65.5534 43.9932C64.9023 43.341 61.3738 43.1724 61.1401 43.7828ZM27.9803 50.2909C27.8332 50.4379 27.7129 51.6125 27.7129 52.9012V55.2437H29.2272C31.3581 55.2437 32.5239 54.3204 32.5239 52.6333C32.5239 51.6832 32.2553 51.0848 31.6327 50.6483C30.7334 50.017 28.4739 49.7961 27.9803 50.2909Z" fill="black"/>
</svg>
