<svg width="132" height="88" viewBox="0 0 132 88" fill="none" xmlns="http://www.w3.org/2000/svg">
<path d="M27 44C27 22.4609 44.4609 5 66 5C87.5391 5 105 22.4609 105 44C105 65.5391 87.5391 83 66 83C44.4609 83 27 65.5391 27 44Z" fill="#01A5B7"/>
<path d="M48.7945 45.6175C51.2684 45.0687 52.7734 42.3677 52.156 39.5846C51.5386 36.8015 49.0327 34.9902 46.5588 35.5389C44.0849 36.0877 42.5799 38.7887 43.1973 41.5718C43.8147 44.355 46.3206 46.1662 48.7945 45.6175Z" fill="black"/>
<path d="M85.1892 37.5442C87.6631 36.9954 89.1681 34.2944 88.5507 31.5113C87.9334 28.7282 85.4274 26.9169 82.9535 27.4657C80.4797 28.0144 78.9747 30.7154 79.592 33.4986C80.2094 36.2817 82.7153 38.093 85.1892 37.5442Z" fill="black"/>
<path d="M59.5532 54.3929C62.0372 65.5913 84.434 60.6231 81.9499 49.4247L59.5532 54.3929Z" fill="black"/>
</svg>
