<svg width="132" height="88" viewBox="0 0 132 88" fill="none" xmlns="http://www.w3.org/2000/svg">
<path d="M120.862 27.4736C119.492 26.0372 117.84 24.8997 116.011 24.1326C114.181 23.3654 112.213 22.9852 110.229 23.0156C107.057 23.042 103.977 24.0918 101.448 26.0091C98.9191 27.9264 97.0751 30.6091 96.1901 33.6587V23.9456L87.2535 25.7761C86.291 24.8644 85.1555 24.1556 83.9142 23.6916C82.673 23.2275 81.3513 23.0178 80.0275 23.0747C76.8976 23.0393 73.8481 24.0664 71.3762 25.9885C68.9043 27.9106 67.1559 30.6143 66.4161 33.6587V23.9456L57.4794 26.086C56.4945 25.0433 55.2941 24.2284 53.9619 23.698C52.6298 23.1677 51.1981 22.9348 49.7668 23.0156C46.66 22.9971 43.6372 24.025 41.1844 25.9339C38.7317 27.8429 36.9916 30.5221 36.2439 33.5406C35.2945 30.4501 33.3672 27.7523 30.7524 25.8538C28.1377 23.9554 24.9773 22.9593 21.7477 23.0156C19.7986 23.0155 17.8688 23.4022 16.07 24.1533C14.2711 24.9043 12.6388 26.0049 11.2675 27.3913C9.8962 28.7777 8.81304 30.4224 8.08067 32.2305C7.3483 34.0385 6.98125 35.9739 7.00074 37.9248C6.98887 39.8942 7.36886 41.8462 8.11854 43.6671C8.86822 45.4879 9.97258 47.1411 11.3672 48.5303C12.7619 49.9194 14.4189 51.0167 16.2416 51.7581C18.0643 52.4996 20.0163 52.8703 21.9836 52.8487C25.1598 52.8673 28.26 51.8769 30.8383 50.0202C33.4167 48.1634 35.3402 45.5359 36.3324 42.5156C37.0426 45.5315 38.7628 48.2132 41.2069 50.1145C43.6511 52.0159 46.6718 53.0225 49.7668 52.9668C51.1771 53.0305 52.5852 52.8011 53.9025 52.293C55.2198 51.7849 56.4176 51.0091 57.4204 50.0145V52.9668H66.3718V42.3533C67.1328 45.3874 68.8958 48.0751 71.3746 49.9803C73.8534 51.8855 76.9026 52.8963 80.0275 52.8487C81.3657 52.9162 82.7022 52.6864 83.9413 52.176C85.1804 51.6656 86.2913 50.8871 87.1945 49.8964V50.3097C87.2439 51.1426 87.1163 51.9765 86.8203 52.7565C86.5243 53.5365 86.0665 54.2448 85.4771 54.8348C84.8877 55.4248 84.1801 55.883 83.4009 56.1794C82.6217 56.4757 81.7886 56.6033 80.9565 56.5539C80.2696 56.5599 79.5867 56.4501 78.9362 56.2291C78.4149 56.0502 77.9356 55.7668 77.5273 55.3963C77.1191 55.0257 76.7906 54.5758 76.5619 54.0739L76.4587 53.8377H66.4898V54.2806C67.0059 57.971 70.3535 64.9975 80.3077 64.9975C83.093 65.0461 85.8462 64.3962 88.3163 63.107C90.7865 61.8179 92.8951 59.9304 94.4499 57.6167C95.8509 55.181 96.1164 52.3911 96.1164 48.4203V42.3237C97.0516 45.3826 98.9467 48.0583 101.521 49.9541C104.095 51.85 107.21 52.865 110.406 52.8487C113.264 52.8677 116.056 51.9844 118.384 50.3245C120.916 48.5268 122.889 46.0503 124.077 43.1799L124.312 42.619H115.155L115.037 42.7961C114.55 43.5733 113.863 44.2052 113.048 44.6259C112.234 45.0466 111.321 45.2405 110.406 45.1875C109.122 45.2812 107.844 44.9326 106.784 44.1997C105.725 43.4668 104.948 42.3934 104.581 41.1576H124.755V40.8181C125.181 38.4439 125.051 36.0032 124.375 33.6878C123.7 31.3724 122.497 29.2454 120.862 27.4736ZM27.7349 40.8623L27.6464 41.0395C27.1604 42.0924 26.3753 42.9786 25.3892 43.5877C24.4031 44.1967 23.2597 44.5015 22.1016 44.4642C21.264 44.4746 20.4334 44.3107 19.6624 43.9829C18.8914 43.655 18.1969 43.1704 17.6229 42.5598C17.0489 41.9491 16.6079 41.2257 16.3279 40.4354C16.0479 39.6452 15.935 38.8053 15.9964 37.9691C15.9555 36.2345 16.548 34.5445 17.6628 33.2159C18.1778 32.6437 18.8081 32.1873 19.5122 31.8769C20.2164 31.5664 20.9783 31.409 21.7477 31.415H22.0868C23.2761 31.3643 24.4515 31.6871 25.4484 32.3382C26.4453 32.9894 27.2138 33.9362 27.6464 35.0463L27.7496 35.2677H35.9489C35.6425 37.12 35.6425 39.0101 35.9489 40.8623H27.7349ZM57.4794 38.3824C57.3981 39.5565 57.0284 40.6924 56.4029 41.689C55.8524 42.6094 55.0619 43.3623 54.1162 43.8668C53.1704 44.3714 52.1052 44.6085 51.035 44.5527C50.192 44.5489 49.3581 44.3784 48.5812 44.051C47.8042 43.7236 47.0995 43.2458 46.5075 42.645C45.9156 42.0442 45.448 41.3323 45.1317 40.5502C44.8154 39.768 44.6566 38.931 44.6644 38.0872C44.6224 37.2298 44.755 36.3729 45.054 35.5685C45.3531 34.764 45.8125 34.0288 46.4042 33.4075C46.9959 32.7862 47.7076 32.2919 48.496 31.9544C49.2845 31.6169 50.1333 31.4435 50.9908 31.4445C52.2178 31.3724 53.4379 31.6736 54.4907 32.3086C55.5435 32.9435 56.3798 33.8825 56.8896 35.002C57.3786 36.0576 57.582 37.2233 57.4794 38.3824ZM85.4986 42.8109C84.9167 43.386 84.2251 43.8379 83.465 44.1397C82.705 44.4415 81.892 44.587 81.0745 44.5675C80.2201 44.5714 79.374 44.3992 78.589 44.0615C77.804 43.7238 77.0968 43.2279 76.5116 42.6047C75.9264 41.9816 75.4757 41.2444 75.1875 40.4393C74.8993 39.6341 74.7799 38.7782 74.8366 37.9248C74.8149 37.0957 74.959 36.2706 75.2602 35.4979C75.5614 34.7252 76.0137 34.0205 76.5906 33.4252C77.1675 32.8298 77.8574 32.3558 78.6198 32.0309C79.3822 31.7059 80.2017 31.5367 81.0303 31.5331C81.8994 31.4887 82.7671 31.6438 83.5671 31.9867C84.3672 32.3295 85.0783 32.8509 85.646 33.5111C86.7511 34.8714 87.3273 36.5859 87.2682 38.3381C87.2144 39.98 86.5703 41.5473 85.4543 42.7518L85.4986 42.8109ZM104.729 34.2344C105.227 33.1767 106.016 32.2827 107.003 31.6566C107.99 31.0305 109.134 30.6981 110.303 30.6981C111.471 30.6981 112.616 31.0305 113.603 31.6566C114.59 32.2827 115.378 33.1767 115.877 34.2344H104.729Z" fill="#00BEEF"/>
</svg>
