<svg width="132" height="88" viewBox="0 0 132 88" fill="none" xmlns="http://www.w3.org/2000/svg">
<path fill-rule="evenodd" clip-rule="evenodd" d="M53.4608 9.75781C54.5263 9.75781 55.3899 10.6215 55.3899 11.6869V13.616H78.5392V11.6869C78.5392 10.6215 79.4028 9.75781 80.4683 9.75781C81.5337 9.75781 82.3974 10.6215 82.3974 11.6869V13.616H90.5961C94.8578 13.616 98.3125 17.0708 98.3125 21.3324V70.5246C98.3125 74.7863 94.8578 78.241 90.5961 78.241H41.4039C37.1423 78.241 33.6875 74.7863 33.6875 70.5246V21.3324C33.6875 17.0708 37.1423 13.616 41.4039 13.616H51.5317V11.6869C51.5317 10.6215 52.3954 9.75781 53.4608 9.75781ZM51.5317 17.4742H41.4039C39.2731 17.4742 37.5457 19.2016 37.5457 21.3324V70.5246C37.5457 72.6554 39.2731 74.3828 41.4039 74.3828H90.5961C92.7269 74.3828 94.4543 72.6554 94.4543 70.5246V21.3324C94.4543 19.2016 92.7269 17.4742 90.5961 17.4742H82.3974V22.7793C82.3974 23.8447 81.5337 24.7084 80.4683 24.7084C79.4028 24.7084 78.5392 23.8447 78.5392 22.7793V17.4742H55.3899V22.7793C55.3899 23.8447 54.5263 24.7084 53.4608 24.7084C52.3954 24.7084 51.5317 23.8447 51.5317 22.7793V17.4742Z" fill="#666A73"/>
<path d="M55.7843 47.4911C55.7148 44.227 56.8491 41.4375 59.1872 39.1226C61.5253 36.7845 64.3032 35.6386 67.5209 35.6849C69.4192 35.6849 71.1785 36.1016 72.799 36.935C74.1707 37.6208 75.3351 38.539 76.2921 39.6893C76.5857 40.0422 76.5103 40.562 76.151 40.8476C75.7636 41.1555 75.1999 41.0724 74.8827 40.6927C73.0209 38.4654 70.5787 37.3517 67.5557 37.3517C64.8009 37.3054 62.4512 38.2777 60.5067 40.2685C58.5853 42.2593 57.6478 44.6553 57.6941 47.4563C57.6478 50.2805 58.5853 52.6881 60.5067 54.6789C62.4512 56.6697 64.8009 57.642 67.5557 57.5957C70.5775 57.5957 73.0192 56.4923 74.8807 54.2856C75.1994 53.9076 75.7625 53.8257 76.1496 54.1334C76.5097 54.4196 76.5852 54.9404 76.2914 55.2944C75.3345 56.4474 74.1704 57.3765 72.799 58.0818C71.1785 58.8921 69.4192 59.2972 67.5209 59.2972C64.3032 59.3666 61.5253 58.2323 59.1872 55.8942C56.8491 53.533 55.7148 50.732 55.7843 47.4911Z" fill="#666A73"/>
</svg>
