<svg width="132" height="88" viewBox="0 0 132 88" fill="none" xmlns="http://www.w3.org/2000/svg">
<path fill-rule="evenodd" clip-rule="evenodd" d="M29.7773 79.9829L102.193 79.9528L102.224 8.01953H29.7773V79.9829ZM78.0346 27.0017C71.8472 28.7599 66.6829 30.2287 66.5585 30.2657L66.3322 30.3329V43.0741C66.3322 50.8758 66.354 55.8152 66.3883 55.8152C66.4191 55.8152 69.9275 54.8282 74.1849 53.622C78.4421 52.4158 82 51.4139 82.0913 51.3956L82.2572 51.3624L82.2567 53.4838L82.2562 55.6053L74.3093 57.8604L66.3624 60.1155L66.3468 63.5725C66.3383 65.4738 66.3519 67.0301 66.377 67.0309C66.4022 67.0318 71.587 65.5692 77.8989 63.7809L89.3751 60.5294V42.1605C89.3751 32.0576 89.3548 23.7945 89.3299 23.7983C89.305 23.802 84.2221 25.2436 78.0346 27.0017ZM42.5655 36.6766V49.433L52.5341 52.2643C58.0168 53.8215 62.5228 55.0955 62.5475 55.0955C62.5722 55.0955 62.5923 53.6444 62.5923 51.8709V48.6463L58.9579 47.7563C56.9591 47.2668 54.0545 46.5552 52.5035 46.1748L49.6835 45.4834V38.8888V32.2941L49.8494 32.335C50.0908 32.3943 62.3013 35.6621 62.4264 35.7008C62.5261 35.7316 62.532 35.5517 62.532 32.4953V29.2572L62.2153 29.1673C61.9775 29.0997 46.9142 25.0768 43.1235 24.0685L42.5655 23.9201V36.6766ZM78.1553 33.3906C75.949 34.0159 74.0014 34.5683 73.8272 34.6184L73.5105 34.7093V41.1008C73.5105 46.1891 73.5259 47.4864 73.5859 47.4638C73.6274 47.4482 75.5954 46.8865 77.9592 46.2156L82.2572 44.9958V38.6215C82.2572 35.1156 82.2368 32.2486 82.2119 32.2504C82.187 32.2522 80.3615 32.7652 78.1553 33.3906Z" fill="#66499E"/>
</svg>
