<svg width="132" height="88" viewBox="0 0 132 88" fill="none" xmlns="http://www.w3.org/2000/svg">
<mask id="mask0_2056_21402" style="mask-type:luminance" maskUnits="userSpaceOnUse" x="34" y="27" width="64" height="34">
<path d="M97.9852 27.0664H34.0156V60.9327H97.9852V27.0664Z" fill="white"/>
</mask>
<g mask="url(#mask0_2056_21402)">
<path d="M34.2794 58.0443L52.0239 27.9901C52.3619 27.4176 52.9776 27.0664 53.6423 27.0664H82.5494C84.0039 27.0664 84.9076 28.6474 84.1678 29.8995L66.4232 59.9539C66.0855 60.5265 65.4697 60.8777 64.8051 60.8777H35.8976C34.4433 60.8777 33.5398 59.2967 34.2794 58.0443Z" fill="#0EF275"/>
<path d="M75.8329 60.8759H96.0253C97.4419 60.8759 98.3494 59.3675 97.6847 58.1165L88.1502 40.1618C87.4624 38.8671 85.6224 38.8233 84.8738 40.0839L74.2167 58.0387C73.4742 59.291 74.3768 60.8759 75.8329 60.8759Z" fill="#0EF275"/>
</g>
</svg>
