<svg width="132" height="88" viewBox="0 0 132 88" fill="none" xmlns="http://www.w3.org/2000/svg">
<path d="M99.2746 44.0016C99.2746 62.3788 84.3769 77.2766 65.9996 77.2766C47.6223 77.2766 32.7246 62.3788 32.7246 44.0016C32.7246 25.6243 47.6223 10.7266 65.9996 10.7266C84.3769 10.7266 99.2746 25.6243 99.2746 44.0016Z" fill="url(#paint0_linear_2056_27143)"/>
<path fill-rule="evenodd" clip-rule="evenodd" d="M50.0693 32.6289L50.0623 55.3602L52.1815 57.5309C53.3471 58.7247 55.0348 60.4452 55.9321 61.3542L57.5636 63.0069H69.3814C79.7441 63.0069 81.2371 62.9873 81.5068 62.8476C81.8429 62.6736 82.001 62.2694 81.8568 61.9527C81.8064 61.842 80.3584 60.3104 78.6389 58.5491L75.5126 55.3468H57.7129V32.6813H75.479L77.5241 30.6089C81.56 26.5192 81.9224 26.1245 81.9224 25.8196C81.9224 25.6588 81.8112 25.425 81.6651 25.2788L81.4079 25.0212L57.5557 25.0147L50.0693 32.6289Z" fill="white"/>
<path d="M49.9876 32.7431H57.7434V55.26H49.9876V32.7431Z" fill="#D8EACE"/>
<defs>
<linearGradient id="paint0_linear_2056_27143" x1="65.9996" y1="10.7266" x2="65.9996" y2="77.2766" gradientUnits="userSpaceOnUse">
<stop stop-color="#90C53E"/>
<stop offset="1" stop-color="#419744"/>
</linearGradient>
</defs>
</svg>
