<svg width="132" height="88" viewBox="0 0 132 88" fill="none" xmlns="http://www.w3.org/2000/svg">
<path fill-rule="evenodd" clip-rule="evenodd" d="M46.0814 11.8242C39.3119 11.8242 33.8242 17.3119 33.8242 24.0814V63.9171C33.8242 70.6865 39.3119 76.1742 46.0814 76.1742H85.9171C92.6865 76.1742 98.1742 70.6865 98.1742 63.9171V24.0814C98.1742 17.3119 92.6865 11.8242 85.9171 11.8242H46.0814ZM93.4706 47.5037C93.5156 47.3745 93.6026 47.3127 93.6981 47.3127C93.9088 47.3127 94.0886 47.5683 94.0886 47.9896C94.0886 49.5823 92.4397 51.5233 90.5409 51.5233C89.3274 51.5233 88.6674 50.6581 88.4089 49.4643C87.6252 50.7873 86.6028 51.5401 85.3416 51.5401C84.1815 51.5401 82.8332 50.748 82.8332 47.925C82.8332 46.9447 83.0411 45.9644 83.395 45.0683C82.5636 45.6554 81.6984 45.6751 81.1226 45.602C79.6535 48.6441 77.2294 51.5176 75.8643 51.5176C74.7519 51.5176 74.0413 49.425 73.7126 46.8324C72.6621 49.6076 71.0863 51.5064 69.5357 51.5064C68.1369 51.5064 67.4599 50.4531 67.4599 48.8604C67.4599 48.0735 67.6863 47.049 67.8974 46.0934C68.082 45.2582 68.2549 44.4757 68.2549 43.9504C68.2549 43.6948 68.1931 43.4785 67.9684 43.4785C67.2099 43.4785 64.7325 46.8633 63.7297 51.0092C63.6342 51.4025 63.0977 51.5064 62.6482 51.5064C61.696 51.5064 61.446 50.4727 61.4601 49.3744C60.5135 50.7733 59.5191 51.5261 58.3309 51.5261C57.2944 51.5261 56.4967 50.8491 56.1961 49.4643C55.4153 50.7873 54.3928 51.5401 53.1288 51.5401C51.7075 51.5401 50.7749 50.4671 50.6288 48.4138C49.3423 50.8913 46.9576 53.0148 44.2273 53.0148C40.2246 53.0148 37.91 50.1862 37.91 45.4953C37.91 39.5994 42.511 34.9983 47.084 34.9983C49.8508 34.9983 51.4153 36.4084 51.4153 38.3353C51.4153 40.2623 49.9996 41.6752 48.7974 41.6752C48.4969 41.6752 48.3452 41.4954 48.3452 41.3128C48.3452 41.0856 48.4724 40.8392 48.6297 40.5344C48.8846 40.0403 49.2188 39.3928 49.2188 38.4252C49.2188 37.1331 48.5867 36.2904 47.2637 36.2904C44.4969 36.2904 40.7667 40.442 40.7667 45.5234C40.7667 49.043 42.1796 51.2705 44.8565 51.2705C47.8059 51.2705 49.9968 48.3295 51.0839 45.2846C51.8957 43.0038 53.7439 41.2538 55.3984 41.2538C56.4068 41.2538 57.1287 41.7201 57.3703 42.7875C58.0585 41.5768 58.7719 41.3269 59.4292 41.3269C60.0275 41.3269 60.2916 41.5459 60.2916 41.9729C60.2916 42.1246 60.2578 42.2987 60.1961 42.501C59.7129 44.0599 58.7523 47.4644 58.7523 49.0767C58.7523 49.6609 58.9152 50.0233 59.2494 50.0233C61.0893 50.0233 63.0303 44.3099 62.887 42.0796C62.8804 41.9738 62.9058 41.8685 62.9599 41.7773C63.014 41.6861 63.0943 41.6133 63.1904 41.5684C63.4764 41.4146 63.7953 41.3317 64.1201 41.3269C65.6173 41.3269 65.4094 43.3549 64.9038 45.4504C66.4403 42.7145 68.0639 41.2538 69.2914 41.2538C70.3335 41.2538 70.8868 42.0516 70.8868 43.3128C70.8868 44.1847 70.6541 45.1327 70.4251 46.0655C70.2034 46.9688 69.9852 47.8579 69.9852 48.6497C69.9852 49.161 70.0919 49.5514 70.4823 49.5514C71.325 49.5514 72.6171 47.8548 73.2435 45.6189C73.3926 45.0848 73.4793 44.5353 73.5019 43.9813C73.5722 42.5235 74.0356 41.2538 75.5356 41.2538C76.1789 41.2538 76.339 41.4224 76.339 41.6695C76.339 41.8284 76.3228 41.9386 76.3012 42.0861C76.2644 42.3376 76.2116 42.6979 76.1957 43.5937C76.1564 46.0711 76.3642 49.5345 77.0721 49.5345C77.6198 49.5345 79.0636 47.5121 80.0524 45.2762C78.8726 44.6863 78.3361 43.4701 78.3361 42.2875C78.3361 40.7566 79.2153 39.3016 80.7406 39.3016C81.7433 39.3016 82.3641 40.06 82.3641 41.3156C82.3641 42.1162 82.145 43.1948 81.5551 44.6386C82.3754 44.8352 83.4652 44.4363 84.3922 43.2201C85.3191 42.0038 86.4455 41.2538 87.6112 41.2538C88.6196 41.2538 89.3415 41.7201 89.5803 42.7875C90.2713 41.5768 90.9819 41.3184 91.642 41.3184C92.2544 41.3184 92.5015 41.5403 92.5015 41.9926C92.5015 42.1358 92.465 42.3044 92.4088 42.4926C91.9229 44.0487 90.9594 47.4616 90.9594 49.0711C90.9594 49.7143 91.1083 50.1244 91.4763 50.1244C92.1167 50.1244 92.8948 49.1469 93.4706 47.5037ZM53.2187 48.0514C53.2187 49.2031 53.5192 49.9755 54.2861 49.9755C55.6035 49.9755 56.904 46.397 56.904 44.3661C56.904 43.456 56.6652 42.7117 56.0332 42.7117C54.5866 42.7117 53.2187 46.0515 53.2187 48.0514ZM79.9288 42.06C79.9288 42.7201 80.0945 43.4616 80.5524 44.0066C80.7574 43.4083 81.0495 42.2145 81.0495 41.3971C81.0495 40.9083 80.94 40.5572 80.5833 40.5572C80.2265 40.5572 79.9288 41.2454 79.9288 42.06ZM85.4315 48.0514C85.4315 49.0879 85.732 49.9755 86.4989 49.9755C87.8359 49.9755 89.114 46.397 89.114 44.3661C89.114 43.4504 88.8893 42.7117 88.2572 42.7117C86.7994 42.7117 85.4315 46.1217 85.4315 48.0514Z" fill="url(#paint0_linear_2056_24903)"/>
<defs>
<linearGradient id="paint0_linear_2056_24903" x1="36.1575" y1="16.4294" x2="95.4111" y2="72.9199" gradientUnits="userSpaceOnUse">
<stop stop-color="#01C3CC"/>
<stop offset="0.359419" stop-color="#0AB5D0"/>
<stop offset="0.619783" stop-color="#3178E0"/>
<stop offset="0.822692" stop-color="#6F38E7"/>
<stop offset="1" stop-color="#7C2AE8"/>
</linearGradient>
</defs>
</svg>
