<svg width="132" height="88" viewBox="0 0 132 88" fill="none" xmlns="http://www.w3.org/2000/svg">
<rect x="33.5508" y="11.5508" width="64.9" height="64.9" rx="17.05" fill="#1F1F1F"/>
<path d="M51.7298 24.8616C52.7474 23.0709 54.6471 21.9648 56.7054 21.9648H75.6938C77.7907 21.9648 79.7198 23.1125 80.7219 24.9562L89.52 41.1424C90.448 42.8498 90.448 44.9116 89.52 46.619L80.7219 62.8052C79.7198 64.6489 77.7907 65.7966 75.6938 65.7966H56.7054C54.6472 65.7966 52.7474 64.6905 51.7298 62.8998L42.5318 46.7135C41.5337 44.9571 41.5337 42.8043 42.5318 41.0479L51.7298 24.8616Z" fill="url(#paint0_linear_2056_27145)"/>
<path d="M84.8247 33.36C84.7268 34.0126 84.5161 34.6521 84.1919 35.2484L74.4251 51.9189C73.4234 53.7626 71.4943 54.9103 69.3975 54.9103L49.9245 55.1524C49.034 55.1524 48.1726 54.9453 47.4 54.5651C47.5135 53.9361 47.7326 53.3216 48.058 52.7493L57.7401 36.3209C58.758 34.5302 60.6575 33.4241 62.7157 33.4241L82.6731 32.9398C83.4232 32.9398 84.1522 33.0867 84.8247 33.36Z" fill="#FFE100"/>
<defs>
<linearGradient id="paint0_linear_2056_27145" x1="55.0676" y1="23.254" x2="88.8677" y2="80.1152" gradientUnits="userSpaceOnUse">
<stop stop-color="#BDA913"/>
<stop offset="1" stop-color="#BDA913" stop-opacity="0"/>
</linearGradient>
</defs>
</svg>
