<svg width="132" height="88" viewBox="0 0 132 88" fill="none" xmlns="http://www.w3.org/2000/svg">
<path fill-rule="evenodd" clip-rule="evenodd" d="M59.8877 9.69759C53.4586 13.3586 48.0307 16.419 47.8252 16.4988C47.3999 16.6646 50.072 21.4003 50.5925 21.4028C50.7799 21.4032 55.8998 18.6099 61.97 15.1949L73.0072 8.98615L93.8986 20.673L94.1352 47.1433H99.8773L99.9766 33.0937C100.052 22.4111 99.952 18.8013 99.5574 18.0321C98.8048 16.5632 74.6018 2.94236 72.8472 3.00018C72.0068 3.02788 67.6231 5.29333 59.8877 9.69759Z" fill="#061F80"/>
<path d="M35.3741 38.0738C36.5623 37.4055 42.1379 34.271 47.7647 31.108C53.3911 27.9446 58.3954 25.3566 58.8855 25.3566C59.8727 25.3566 83.3403 38.3527 84.8041 39.7105L85.7269 40.5665V70.5985C85.7269 70.5985 72.1635 78.6394 65.6295 82.1664C65.6295 82.1664 63.5102 78.4918 63.0783 77.8949C64.9977 76.7032 75.2371 70.6675 77.2163 69.5751L79.9848 68.0464L79.9664 43.0714L58.9392 31.3116L57.4652 32.1216C56.6543 32.5671 52.5766 34.8371 48.4033 37.1665C44.23 39.4959 40.1249 41.7772 39.2808 42.2365L37.746 43.0714L37.7394 67.9641L48.5059 73.9916C54.4276 77.3069 59.4548 80.1889 59.6779 80.3958L57.0263 85C56.6826 84.8697 53.6327 83.2163 50.249 81.3259C35.9233 73.3225 33.0297 71.5649 32.5227 70.5598C32.1413 69.8032 32.008 65.8762 32.0035 55.2775C31.9965 39.1408 31.8136 40.0758 35.3741 38.0738Z" fill="url(#paint0_linear_2201_6037)"/>
<path d="M65.6323 82.2074L62.9663 77.9314L79.3723 68.3614L83.6789 71.8229L65.6323 82.2074Z" fill="url(#paint1_linear_2201_6037)"/>
<defs>
<linearGradient id="paint0_linear_2201_6037" x1="43.3333" y1="72.4441" x2="99.1689" y2="23.9059" gradientUnits="userSpaceOnUse">
<stop stop-color="#00AFBF"/>
<stop offset="0.954127" stop-color="#0283E3"/>
</linearGradient>
<linearGradient id="paint1_linear_2201_6037" x1="66.4184" y1="80.0843" x2="75.0476" y2="66.5492" gradientUnits="userSpaceOnUse">
<stop offset="0.160066" stop-color="white"/>
<stop offset="1" stop-color="white" stop-opacity="0"/>
</linearGradient>
</defs>
</svg>
