<svg width="132" height="88" viewBox="0 0 132 88" fill="none" xmlns="http://www.w3.org/2000/svg">
<rect x="31.0742" y="9.07422" width="69.85" height="69.85" rx="34.925" fill="#444881"/>
<path fill-rule="evenodd" clip-rule="evenodd" d="M45.5012 21.0244C45.4318 21.0935 45.375 28.4007 45.375 37.2621C45.375 52.4037 45.3949 53.3863 45.7062 53.5771C45.8884 53.6888 49.1455 55.0767 52.9443 56.6612L59.8513 59.5424L59.9459 66.0404C60.0307 71.8668 60.0727 72.5447 60.3509 72.5981C60.7171 72.6684 86.2453 60.4841 86.4692 60.1321C86.5532 60.0001 86.6232 52.7009 86.6249 43.9116C86.6272 31.3544 86.5771 27.8897 86.3912 27.7366C86.2194 27.5949 84.3672 28.3958 79.6262 30.661C73.9441 33.376 73.0363 33.7561 72.6245 33.5926C72.3643 33.4893 66.2977 30.5907 59.143 27.1516C51.9885 23.7124 46.0205 20.8984 45.881 20.8984C45.7415 20.8984 45.5705 20.9551 45.5012 21.0244ZM46.3212 37.4691V52.9382L53.0862 55.7705L59.8513 58.6028L59.9028 54.9179C59.9376 52.4146 59.8882 51.1923 59.7484 51.1062C59.635 51.0363 57.7944 50.2725 55.6575 49.4086C51.9857 47.9242 51.2477 47.492 51.8013 47.1506C51.9855 47.0369 56.208 48.6153 59.7139 50.1084C59.9051 50.1898 59.9442 49.5367 59.9032 46.9597L59.8513 43.7084L55.8144 42.0969C53.594 41.2107 51.7306 40.3638 51.6734 40.2152C51.4007 39.5064 52.0947 39.6655 55.8854 41.1817L59.8513 42.768L59.9459 41.4164L60.0405 40.0647L61.5928 39.3094C62.4465 38.894 63.1926 38.5035 63.2509 38.4415C63.3092 38.3796 60.7487 37.1496 57.5607 35.708C54.3726 34.2665 51.7204 32.973 51.6668 32.8338C51.3572 32.0287 52.1904 32.3093 58.2177 35.0409L64.4853 37.8813L68.1719 36.1405C70.1997 35.1831 71.8608 34.3515 71.8631 34.2926C71.8667 34.2102 47.2601 22.3502 46.49 22.063C46.3919 22.0263 46.3212 28.4889 46.3212 37.4691ZM73.1449 34.7201L60.8921 40.5967V56.0709C60.8921 70.5739 60.9123 71.5377 61.2147 71.4219C61.392 71.3539 66.9697 68.6937 73.6095 65.5104L85.6816 59.7224V44.2758C85.6816 35.7802 85.6178 28.8325 85.5397 28.8365C85.4615 28.8403 79.8841 31.488 73.1449 34.7201ZM73.0043 42.6774C68.4947 44.8625 66.2673 46.0382 66.2254 46.2555C66.1832 46.4734 66.2856 46.5794 66.538 46.5794C66.7443 46.5794 69.9471 45.1192 73.6553 43.3345C78.6297 40.9403 80.3825 40.0126 80.3407 39.796C80.3097 39.6346 80.1573 39.4846 80.0025 39.4627C79.8476 39.441 76.6983 40.8875 73.0043 42.6774ZM73.0041 50.0412C66.6875 53.1042 65.6704 53.7134 66.4179 53.9859C66.553 54.0352 69.7535 52.5844 73.53 50.7618C78.5555 48.3366 80.3812 47.3704 80.3401 47.1576C80.3093 46.9978 80.1573 46.8483 80.0025 46.8256C79.8476 46.8028 76.6983 48.2498 73.0041 50.0412ZM73.003 57.4177C66.6766 60.4852 65.7711 61.0272 66.3624 61.3918C66.4686 61.4573 69.67 60.0064 73.477 58.1675C78.6234 55.6818 80.3838 54.7484 80.3413 54.5278C80.3098 54.3649 80.1573 54.2153 80.0025 54.1959C79.8476 54.1762 76.6978 55.6261 73.003 57.4177Z" fill="white"/>
</svg>
