<svg width="132" height="88" viewBox="0 0 132 88" fill="none" xmlns="http://www.w3.org/2000/svg">
<path d="M66 80.5449C86.1837 80.5449 102.546 64.1828 102.546 43.999C102.546 23.8153 86.1837 7.45312 66 7.45312C45.8163 7.45312 29.4541 23.8153 29.4541 43.999C29.4541 64.1828 45.8163 80.5449 66 80.5449Z" fill="#157DED"/>
<path d="M66.1056 64.2171C54.9738 64.2171 45.9424 55.1857 45.9424 44.0539C45.9424 32.9221 54.9738 23.8906 66.1056 23.8906C77.2374 23.8906 86.2689 32.9221 86.2689 44.0539C86.2689 55.1857 77.1849 64.2171 66.1056 64.2171ZM66.1056 26.0435C56.1815 26.0435 48.0427 34.1298 48.0427 44.1064C48.0427 54.083 56.129 62.1693 66.1056 62.1693C76.0822 62.1693 84.1685 54.083 84.1685 44.1064C84.1685 34.1298 76.0297 26.0435 66.1056 26.0435Z" fill="white"/>
<path d="M67.157 24.9922H65.0566V63.1658H67.157V24.9922Z" fill="white"/>
<path d="M85.0604 43.0547H46.8867V45.155H85.0604V43.0547Z" fill="white"/>
<path d="M66.1063 64.2154C59.9628 64.2154 55.1846 55.394 55.1846 44.1047C55.1846 32.8153 59.9628 23.9414 66.1063 23.9414C72.2498 23.9414 77.0281 32.8153 77.0281 44.1047C77.0281 55.394 72.2498 64.2154 66.1063 64.2154ZM66.1063 26.0417C61.3281 26.0417 57.2849 34.2856 57.2849 44.1047C57.2849 53.9237 61.3281 62.1676 66.1063 62.1676C70.8846 62.1676 74.9278 53.9237 74.9278 44.1047C74.9278 34.2856 70.8846 26.0417 66.1063 26.0417Z" fill="white"/>
<path d="M66.0002 36.2296C60.9594 36.2296 56.3386 33.7092 53.5557 29.456L55.341 28.3008C57.7038 31.9239 61.6945 34.1292 66.0002 34.1292C70.3059 34.1292 74.2965 31.9764 76.6594 28.3008L78.4447 29.456C75.6617 33.6566 71.041 36.2296 66.0002 36.2296Z" fill="white"/>
<path d="M76.6594 59.8585C74.2965 56.2354 70.3059 54.03 66.0002 54.03C61.6945 54.03 57.7038 56.1829 55.341 59.8585L53.5557 58.7033C56.2861 54.4501 60.9594 51.9297 66.0002 51.9297C71.041 51.9297 75.6617 54.5026 78.3922 58.7033L76.6594 59.8585Z" fill="white"/>
<path d="M39.7453 37.1734C38.4326 36.7008 38.0651 35.7031 38.6427 34.1279C39.1677 32.6576 39.9554 32.08 41.058 32.3426L40.638 34.0754C40.1654 33.9178 39.8504 34.0754 39.6928 34.4429C39.5353 34.9155 39.7453 35.2305 40.3229 35.4406H40.3754C40.953 35.6506 41.3206 35.5456 41.4781 35.073C41.6356 34.7055 41.4781 34.3904 41.0055 34.1804L41.7932 32.5526C42.8433 33.0252 43.0534 33.9703 42.5808 35.4406C41.9507 37.0683 41.058 37.5934 39.7453 37.1734Z" fill="white"/>
<path d="M40.6387 29.7189L41.6888 27.9336L45.7845 28.7737L44.8393 30.2965L44.4193 30.1915L43.8417 31.1366L44.1042 31.4517L43.2116 32.9219L40.6387 29.7189ZM43.5791 29.9814L43.0016 29.7714C42.6865 29.6664 42.529 29.6139 42.2139 29.5088L42.1614 29.5614C42.424 29.7714 42.529 29.8764 42.7915 30.1389L43.2641 30.559L43.5791 29.9814Z" fill="white"/>
<path d="M44.9974 27.8825L46.1001 26.5172C46.3626 26.7273 46.5727 26.6223 46.8352 26.3072C47.0452 26.0447 47.0978 25.9397 46.9927 25.8346C46.8877 25.7296 46.7827 25.7821 46.2051 26.2547L45.6275 26.6748C45.1024 27.0948 44.4198 27.3049 43.8422 26.8323C43.2121 26.2547 43.4747 25.3095 44.3673 24.3119C45.3125 23.2617 46.2576 22.9992 46.7827 23.5243L45.8901 24.7845C45.68 24.6269 45.4175 24.6269 45.1024 24.9945C44.8924 25.257 44.8399 25.4146 44.9449 25.5196C45.0499 25.6246 45.1024 25.6246 45.6275 25.152L46.1526 24.732C46.6777 24.3119 47.3078 23.8393 47.9379 24.4169C48.6205 24.9945 48.358 25.9922 47.4128 27.0948C46.5727 28.0925 45.575 28.4601 44.9974 27.8825Z" fill="white"/>
<path d="M51.8745 21.7869L52.5046 22.5746L49.4066 24.9374L46.9912 21.7869L50.0367 19.4766L50.6668 20.2642L49.039 21.5244L49.3541 21.892L50.9293 20.6843L51.5069 21.4194L49.9317 22.6271L50.2467 22.9946L51.8745 21.7869Z" fill="white"/>
<path d="M53.3974 20.58L54.9727 19.7924C55.1302 20.0549 55.3402 20.1075 55.7078 19.9499C56.0228 19.8449 56.1278 19.6874 56.0753 19.5824C56.0228 19.4248 55.8653 19.4248 55.1827 19.6349L54.5001 19.7924C53.8175 19.9499 53.1349 19.8974 52.8198 19.2148C52.4522 18.4272 53.0823 17.6921 54.3426 17.167C55.6553 16.5894 56.6004 16.7469 56.863 17.482L55.4977 18.2172C55.3402 17.9546 55.1302 17.9021 54.7101 18.0596C54.3951 18.2172 54.29 18.3222 54.3426 18.4797C54.3951 18.5847 54.4476 18.6372 55.1302 18.4272L55.8128 18.2697C56.4954 18.1121 57.2305 17.9546 57.5981 18.7422C57.9656 19.5824 57.3355 20.37 56.0228 20.9476C54.7626 21.4727 53.7124 21.3677 53.3974 20.58Z" fill="white"/>
<path d="M59.0183 16.8517L57.8631 17.1142L57.6006 15.9591L61.5912 15.0664L61.8538 16.2216L60.6986 16.4841L61.3287 19.1621L59.5959 19.5296L59.0183 16.8517Z" fill="white"/>
<path d="M67.3659 14.6992L67.4709 17.2196C67.5234 18.2698 66.7883 18.7424 65.213 18.7949C63.6378 18.8474 62.9026 18.4273 62.8501 17.3772L62.7451 14.8567L64.4779 14.8042L64.5829 17.1671C64.5829 17.5872 64.7929 17.7447 65.1605 17.7447C65.5281 17.7447 65.6856 17.5347 65.6856 17.1671L65.5806 14.8042L67.3659 14.6992Z" fill="white"/>
<path d="M68.7295 14.8008L71.1449 15.2208C72.7201 15.4834 73.4027 16.271 73.1402 17.5837C72.9302 18.8964 72.0375 19.369 70.4623 19.1065L68.0469 18.6864L68.7295 14.8008ZM70.5148 18.0563C70.9873 18.1613 71.3024 17.8988 71.4074 17.3212V17.2687C71.5124 16.6911 71.3024 16.3235 70.8298 16.271L70.3047 16.166L69.9372 17.9513L70.5148 18.0563Z" fill="white"/>
<path d="M76.3972 19.6344L75.9246 20.7895L74.2969 20.1594L74.7695 19.0042L74.2969 15.9062L75.9771 16.5889L76.0297 17.2715C76.0297 17.534 76.0297 17.8491 76.0297 18.1641H76.0822C76.2922 17.9016 76.4497 17.6915 76.6598 17.4815L77.1848 17.0089L78.8126 17.639L76.3972 19.6344Z" fill="white"/>
<path d="M79.863 20.475C80.7031 19.3723 81.7533 19.2673 83.1185 20.3175C84.3787 21.2626 84.7462 22.1553 84.1161 23.1529L82.5409 22.2078C82.8034 21.7877 82.8034 21.4202 82.4359 21.2101C82.0158 20.9476 81.7008 21.0526 81.3332 21.5252L81.2807 21.5777C80.9131 22.1028 80.9131 22.4703 81.3332 22.7329C81.6482 22.9954 81.9633 22.8904 82.3309 22.5228L83.6961 23.7305C82.961 24.5707 81.9633 24.5707 80.7031 23.6255C79.2854 22.5754 79.0228 21.5777 79.863 20.475Z" fill="white"/>
<path d="M85.9526 22.6836L87.1603 23.9438L85.1125 25.8341L86.4777 27.2518L85.6376 28.0395L83.1172 25.309L85.9526 22.6836Z" fill="white"/>
<path d="M91.7278 30.2389L89.575 31.6041C88.6823 32.1817 87.8947 31.7617 87.1071 30.4489C86.267 29.1362 86.2145 28.2436 87.1596 27.666L89.3125 26.3008L90.2576 27.771L88.2623 29.0312C87.8947 29.2413 87.8947 29.5038 88.0522 29.8188C88.2623 30.1339 88.4723 30.1864 88.8399 29.9764L90.8352 28.7162L91.7278 30.2389Z" fill="white"/>
<path d="M92.3592 31.5039L93.4619 34.4444C93.7769 35.2845 93.6194 35.7571 92.9893 36.0196C92.5692 36.1772 92.2017 36.0721 91.9391 35.7046H91.8866C91.9391 36.2297 91.7816 36.5447 91.309 36.7548C90.6264 37.0173 90.1538 36.7548 89.8388 35.9146L88.6836 32.8691L92.3592 31.5039ZM90.4164 34.8119C90.4689 35.022 90.6264 35.0745 90.7839 35.022C90.9415 34.9695 90.994 34.8119 90.9415 34.6019L90.6789 33.9718L90.1538 34.1818L90.4164 34.8119ZM91.7816 34.2869C91.8341 34.4969 91.9916 34.5494 92.1492 34.4969C92.3067 34.4444 92.3592 34.3394 92.2542 34.1293L92.0441 33.4992L91.5716 33.6568L91.7816 34.2869Z" fill="white"/>
<path d="M91.0984 55.0278C90.1532 54.7128 89.8907 54.0302 90.3108 52.9275L90.6258 52.0873L89.6807 51.7723L90.2583 50.1445L93.9864 51.4572L93.0937 53.9251C92.6736 54.9753 92.0435 55.3429 91.0984 55.0278ZM91.676 53.3475C91.991 53.4526 92.2011 53.4001 92.3061 53.085L92.4636 52.7174L91.571 52.4024L91.4134 52.77C91.3084 53.0325 91.3609 53.2425 91.676 53.3475Z" fill="white"/>
<path d="M91.9392 56.6008L90.5215 58.9637C89.8914 59.9613 89.2613 60.2764 88.5787 59.8563C88.0536 59.5413 87.9486 59.1737 88.1586 58.6486L88.1061 58.5961C87.8961 58.8587 87.6861 58.9637 87.3185 58.8061L86.9509 58.7011C86.5834 58.5961 86.4259 58.5436 86.2683 58.6486L86.2158 58.5961L87.161 57.0209C87.266 57.0209 87.4235 57.0209 87.7386 57.1784L88.0536 57.2834C88.3687 57.3884 88.5262 57.3884 88.6837 57.1259L88.8938 56.8108L87.7386 56.1282L88.6312 54.6055L91.9392 56.6008ZM89.3138 57.756C89.1563 58.0185 89.1563 58.1235 89.4188 58.2811C89.6814 58.4386 89.7864 58.3336 89.9439 58.1235L90.2065 57.651L89.5764 57.2834L89.3138 57.756Z" fill="white"/>
<path d="M87.477 60.1198C88.5271 61.065 88.4221 62.1152 87.3195 63.3754C86.1643 64.6356 85.1141 64.7931 84.1164 63.8479C83.1188 62.9028 83.1713 61.8526 84.3265 60.5924C85.4291 59.3847 86.4268 59.2272 87.477 60.1198ZM85.2716 62.4827C85.7967 62.9553 86.1643 63.0078 86.4793 62.6402C86.7944 62.2727 86.7419 61.9051 86.2693 61.4851L86.2168 61.4326C85.7442 61.0125 85.3766 61.0125 85.0616 61.3275C84.7465 61.6951 84.799 62.0627 85.2716 62.4827Z" fill="white"/>
<path d="M78.8124 68.1021C78.2874 67.262 78.4449 66.5794 79.4951 65.9493L80.2302 65.4767L79.7051 64.6366L81.1753 63.6914L83.2757 66.9994L81.0703 68.4172C80.0726 69.0473 79.39 68.9423 78.8124 68.1021ZM80.3352 67.157C80.4927 67.4195 80.7027 67.472 80.9653 67.3145L81.2803 67.1045L80.7553 66.3168L80.4402 66.5269C80.1777 66.6844 80.1252 66.8944 80.3352 67.157Z" fill="white"/>
<path d="M78.5491 69.834L76.9213 70.5166L75.8711 67.9437L74.0334 68.6788L73.6133 67.6287L77.0788 66.2109L78.5491 69.834Z" fill="white"/>
<path d="M72.7212 71.8808L70.6734 72.3009L68.5205 68.7303L70.3058 68.3627L70.5158 68.7303L71.6185 68.5203L71.671 68.1002L73.3513 67.7852L72.7212 71.8808ZM70.8834 69.5704L71.1459 70.148C71.3035 70.4631 71.356 70.6206 71.461 70.9357H71.5135C71.5135 70.6206 71.5135 70.4106 71.5135 70.0955V69.4654L70.8834 69.5704Z" fill="white"/>
<path d="M65.5804 69.9924V68.7322L67.3131 68.6797V69.9399L68.9409 72.6178L67.1031 72.6703L66.7881 72.0402C66.683 71.7777 66.5255 71.5151 66.473 71.2001H66.4205C66.3155 71.5151 66.263 71.7777 66.1054 72.0402L65.8429 72.6703L64.0576 72.7228L65.5804 69.9924Z" fill="white"/>
<path d="M63.5837 70.7244C63.3212 72.0896 62.4285 72.6147 60.7482 72.2996C59.278 72.0371 58.5429 71.4595 58.5954 70.5143L60.3807 70.6193C60.3807 70.9869 60.5907 71.1969 60.9058 71.2494C61.3784 71.3545 61.6934 71.0919 61.7984 70.4618V70.4093C61.9034 69.7792 61.7459 69.4116 61.2733 69.3591C60.9058 69.3066 60.6957 69.4116 60.5382 69.7267L61.3258 69.8842L61.1683 70.6718L58.5954 70.1993L59.0155 67.9414L60.4332 68.2039C60.4332 68.414 60.3282 68.6765 60.1181 69.0441L60.1707 69.0966C60.5907 68.519 61.2208 68.309 62.1135 68.4665C63.3212 68.5715 63.7937 69.3591 63.5837 70.7244Z" fill="white"/>
<path d="M56.9676 71.3051L54.4472 70.2549C53.3445 69.7823 52.977 69.2047 53.292 68.4696C53.502 67.892 53.8696 67.7345 54.4472 67.8395V67.787C54.1847 67.577 54.0271 67.4195 54.0796 67.0519L54.1321 66.6843C54.1847 66.3168 54.1847 66.1593 54.1321 66.0017L54.1847 65.9492L55.9174 66.6843C55.9174 66.7894 55.9174 66.9469 55.8649 67.2619L55.8124 67.577C55.7599 67.892 55.7599 68.0496 56.075 68.1546L56.39 68.3121L56.9151 67.0519L58.5429 67.7345L56.9676 71.3051ZM55.4974 68.8372C55.2348 68.7322 55.0773 68.7322 54.9723 68.9947C54.8673 69.2572 54.9723 69.3623 55.2348 69.4673L55.7599 69.6773L56.0225 68.9947L55.4974 68.8372Z" fill="white"/>
<path d="M52.8202 67.366C52.0326 68.5212 50.9824 68.6262 49.5647 67.6285C48.1469 66.6834 47.8844 65.6332 48.672 64.478C49.4597 63.3228 50.5098 63.2703 51.9276 64.2155C53.2928 65.2131 53.6078 66.2633 52.8202 67.366ZM50.1423 65.5282L50.0898 65.5807C49.7222 66.1058 49.7747 66.4733 50.1423 66.7359C50.5623 66.9984 50.9299 66.8934 51.2449 66.3683L51.2975 66.3158C51.665 65.7907 51.6125 65.4232 51.2449 65.1606C50.8774 64.8981 50.5098 65.0031 50.1423 65.5282Z" fill="white"/>
<path d="M43.3164 61.9051L45.1542 60.1723C45.9418 59.4372 46.782 59.6997 47.8321 60.8024C48.9348 61.9576 49.0923 62.7977 48.3572 63.5328L46.5194 65.2656L45.3117 64.0054L47.0445 62.3777C47.3596 62.1151 47.3596 61.8526 47.0445 61.59C46.782 61.3275 46.5719 61.3275 46.2569 61.59L44.5241 63.2178L43.3164 61.9051Z" fill="white"/>
<path d="M42.4769 60.8041L41.5318 59.2814L42.1619 57.9686C42.2669 57.7586 42.3719 57.5486 42.5294 57.286L42.4769 57.2335C42.2669 57.4436 42.0568 57.5486 41.8468 57.6536L40.9017 58.2312L40.0615 56.8135L43.4221 54.7656L44.3672 56.2884L43.7371 57.5486C43.5796 57.8111 43.4746 58.0212 43.317 58.2837L43.3696 58.3362C43.6321 58.1262 43.7896 58.0212 43.9997 57.8636L44.9973 57.286L45.89 58.7038L42.4769 60.8041Z" fill="white"/>
<path d="M39.4301 55.5526L38.6424 53.2423C38.1173 51.7195 38.4324 50.7744 39.6926 50.3543C40.9528 49.9342 41.7929 50.4593 42.318 51.9821L43.1057 54.2924L39.4301 55.5526ZM41.4254 52.4021C41.2679 51.9295 40.9003 51.8245 40.3227 51.9821H40.2702C39.6926 52.1921 39.4826 52.5071 39.6926 52.9797L39.8501 53.5048L41.5829 52.8747L41.4254 52.4021Z" fill="white"/>
</svg>
