<svg width="132" height="88" viewBox="0 0 132 88" fill="none" xmlns="http://www.w3.org/2000/svg">
<mask id="mask0_2056_25485" style="mask-type:luminance" maskUnits="userSpaceOnUse" x="34" y="7" width="64" height="74">
<path d="M34.752 7.94922H97.2468V80.047H34.752V7.94922Z" fill="white"/>
</mask>
<g mask="url(#mask0_2056_25485)">
<path d="M65.8462 80.0441C65.6944 80.0441 65.5415 80.0441 65.5415 79.892L35.0568 62.21C34.9039 62.0577 34.752 61.9053 34.752 61.6004V26.2376C34.752 25.9326 34.9039 25.7802 35.0568 25.6279L65.5415 8.09868C65.6944 7.94627 65.9991 7.94627 66.3041 8.09868L96.7895 25.6279C96.9416 25.7802 97.0945 25.9326 97.0945 26.2376C97.0945 26.5423 96.9416 26.6949 96.7895 26.8472L82.1565 36.1453C82.0036 36.2976 81.6989 36.2976 81.3939 36.1453L65.8462 26.9996L51.6711 35.6879V52.455L65.8462 61.143L80.9371 52.3023C81.0889 52.15 81.3939 52.15 81.6989 52.3023L96.9416 61.2957C97.0945 61.448 97.2463 61.6004 97.2463 61.9053C97.2463 62.21 97.0945 62.3627 96.9416 62.515L66.3041 80.0441C66.1512 80.0441 65.9991 80.0441 65.8462 80.0441ZM36.1233 61.2957L65.8462 78.6727L95.1123 61.753L81.2421 53.6743L66.1512 62.515C65.9991 62.6674 65.6944 62.6674 65.3894 62.515L50.4514 53.3693C50.2985 53.217 50.1467 53.0646 50.1467 52.7597V35.0783C50.1467 34.7733 50.2985 34.6209 50.4514 34.4686L65.3894 25.4753C65.5415 25.3229 65.8462 25.3229 66.1512 25.4753L81.6989 34.6209L94.9604 26.2376L65.8462 9.47054L36.1233 26.5423V61.2957Z" fill="black"/>
<path d="M65.6934 26.6938C65.2366 26.6938 64.9316 26.3888 64.9316 25.9317V8.85979C64.9316 8.40252 65.2366 8.09766 65.6934 8.09766C66.151 8.09766 66.456 8.40252 66.456 8.85979V25.9317C66.456 26.3888 66.151 26.6938 65.6934 26.6938Z" fill="black"/>
<path d="M64.9329 26.3889C64.78 26.3889 64.6282 26.3889 64.6282 26.2366L51.3663 18.3105C51.0616 18.158 50.9095 17.7008 51.0616 17.3959C51.3663 17.0911 51.6713 16.9386 52.1289 17.0911L65.3897 25.0172C65.6946 25.1696 65.8475 25.6269 65.6946 25.9319C65.5426 26.2366 65.2379 26.3889 64.9329 26.3889Z" fill="black"/>
<path d="M50.6034 35.8425C50.4505 35.8425 50.2987 35.8425 50.2987 35.6901L36.1223 27.1541C35.8174 27.0018 35.6655 26.5444 35.8174 26.2397C35.9703 25.9348 36.4271 25.7824 36.7319 25.9348L50.9083 34.4705C51.213 34.6231 51.3651 35.0804 51.213 35.3851C51.0601 35.6901 50.9083 35.8425 50.6034 35.8425Z" fill="black"/>
<path d="M50.6034 53.8271C50.4505 53.8271 50.2987 53.8271 50.2987 53.6745L36.1223 45.1388C35.8174 44.9861 35.6655 44.5288 35.8174 44.2241C35.9703 43.9191 36.4271 43.7668 36.7319 43.9191L50.9083 52.4551C51.213 52.6075 51.3651 53.0648 51.213 53.3698C51.0601 53.6745 50.9083 53.8271 50.6034 53.8271Z" fill="black"/>
<path d="M80.4799 70.8971C80.3278 70.8971 80.1749 70.8971 80.1749 70.7453L65.9997 62.2091C65.6948 62.0565 65.5419 61.5994 65.6948 61.2944C65.8468 60.9895 66.3044 60.8371 66.6094 60.9894L80.7846 69.526C81.0895 69.6778 81.2424 70.1357 81.0895 70.4404C81.0895 70.7454 80.7846 70.8971 80.4799 70.8971Z" fill="black"/>
<path d="M66.1525 26.5418C65.8476 26.5418 65.6947 26.3892 65.5429 26.2369C65.3897 25.9322 65.3897 25.4748 65.8476 25.3222L80.023 16.7865C80.3277 16.6341 80.7856 16.6341 80.9374 17.0912C81.0903 17.3961 81.0903 17.8534 80.6327 18.0058L66.4572 26.5418C66.4572 26.5418 66.3043 26.5418 66.1525 26.5418Z" fill="black"/>
<path d="M35.9701 44.53C35.6652 44.53 35.5133 44.3777 35.3604 44.2251C35.2084 43.9204 35.2084 43.463 35.6652 43.3107L49.8416 34.7747C50.1463 34.6223 50.603 34.6223 50.7559 35.0797C50.908 35.3844 50.908 35.8417 50.4512 35.9943L36.2749 44.53C36.2749 44.53 36.123 44.53 35.9701 44.53Z" fill="black"/>
<path d="M35.9701 61.7524C35.6652 61.7524 35.5133 61.6001 35.3604 61.4475C35.2084 61.1428 35.3604 60.6854 35.6652 60.5331L50.2981 52.3021C50.6031 52.1494 51.061 52.3021 51.2128 52.6068C51.3657 52.9117 51.2128 53.3691 50.9081 53.5214L36.2749 61.7524C36.2749 61.7524 36.123 61.7524 35.9701 61.7524Z" fill="black"/>
<path d="M51.5188 70.8972C51.2141 70.8972 51.062 70.7452 50.9091 70.5923C50.7573 70.2876 50.7573 69.8305 51.2141 69.6776L65.3892 61.1419C65.6942 60.9895 66.1518 60.9895 66.3039 61.4466C66.4568 61.7516 66.4568 62.2089 65.9989 62.3612L51.8237 70.8972C51.8237 70.8972 51.6717 70.8972 51.5188 70.8972Z" fill="black"/>
<path d="M81.2422 35.385C80.7854 35.385 80.4805 35.0801 80.4805 34.623V17.7035C80.4805 17.2463 80.7854 16.9414 81.2422 16.9414C81.6998 16.9414 82.0048 17.3987 82.0048 17.7035V34.623C82.0048 35.0801 81.6998 35.385 81.2422 35.385Z" fill="black"/>
<path d="M50.906 70.593C50.4492 70.593 50.1445 70.2881 50.1445 69.8313V51.3873C50.1445 50.93 50.4492 50.625 50.906 50.625C51.3639 50.625 51.6686 50.93 51.6686 51.3873V69.8313C51.6686 70.2881 51.3639 70.593 50.906 70.593Z" fill="black"/>
<path d="M50.906 35.8421C50.4492 35.8421 50.1445 35.5374 50.1445 35.08V18.1606C50.1445 17.7033 50.4492 17.3984 50.906 17.3984C51.3639 17.3984 51.6686 17.7033 51.6686 18.1606V35.2324C51.6686 35.5374 51.3639 35.8421 50.906 35.8421Z" fill="black"/>
<path d="M65.6934 79.7403C65.2366 79.7403 64.9316 79.4356 64.9316 78.9777V62.2112C64.9316 61.7539 65.2366 61.4492 65.6934 61.4492C66.151 61.4492 66.456 61.7539 66.456 62.2112V78.9777C66.456 79.4356 66.151 79.7403 65.6934 79.7403Z" fill="black"/>
<path d="M81.2422 70.5918C80.7854 70.5918 80.4805 70.2869 80.4805 69.8301V53.2151C80.4805 52.7578 80.7854 52.4531 81.2422 52.4531C81.6998 52.4531 82.0048 52.7578 82.0048 53.2151V69.8301C82.0048 70.2869 81.6998 70.5918 81.2422 70.5918Z" fill="black"/>
</g>
</svg>
