<svg width="132" height="88" viewBox="0 0 132 88" fill="none" xmlns="http://www.w3.org/2000/svg">
<rect x="30.8008" y="8.80078" width="70.4" height="70.4" rx="35.2" fill="#35363B"/>
<path fill-rule="evenodd" clip-rule="evenodd" d="M77.8011 32.4199C75.3709 33.202 73.6673 34.9942 72.8156 37.6636C72.413 38.925 72.199 40.4988 72.0995 42.9296C71.871 48.5088 72.7199 51.8709 74.841 53.7871C76.5295 55.3125 77.5745 55.6577 80.5527 55.6736C83.6198 55.6901 84.8708 55.3211 86.3835 53.9546C88.4515 52.0862 89.3412 49.1789 89.3459 44.2751C89.3519 37.8214 87.9775 34.4246 84.7074 32.8112C83.6198 32.2747 79.0556 32.0162 77.8011 32.4199ZM79.4566 35.7485C78.2906 36.0328 77.1202 37.2822 76.6994 38.6918C76.2358 40.2442 76.0435 45.8099 76.3898 47.6563C77.0558 51.2082 78.2163 52.3417 81.0252 52.1839C84.3076 51.9993 85.0902 50.3972 85.0902 43.8626C85.0902 39.8102 85.0382 39.3474 84.4319 38.0054C83.5266 36.002 81.7402 35.1916 79.4566 35.7485ZM46.8812 38.0656C44.4092 38.9913 43.3455 40.6 42.8211 44.2047C42.3995 47.1016 42.8117 50.7926 43.7712 52.7174C45.0849 55.3524 47.9718 56.2519 52.8797 55.5551L55.2783 55.2146L55.1969 53.6777L55.1152 52.1404L52.3374 52.216C48.7184 52.3145 47.8046 51.9652 47.1419 50.2303C46.4431 48.4007 46.6342 43.5271 47.4474 42.4304C48.2328 41.3714 49.8726 40.9916 52.8465 41.18L55.2527 41.3324V39.8108C55.2527 37.9705 55.2898 37.9878 50.9902 37.7953C48.7234 37.6938 47.6935 37.7615 46.8812 38.0656ZM62.0628 37.9295C60.4213 38.466 59.4044 39.3532 58.6347 40.9207C57.8922 42.4329 57.8652 42.6372 57.8652 46.7699C57.8652 50.9873 57.8779 51.077 58.691 52.6665C59.3563 53.9672 59.7652 54.4086 60.7962 54.9391C62.4338 55.782 64.7067 55.9844 67.7231 55.5562L70.1027 55.2182L70.103 53.6656V52.1126H66.8256C63.7351 52.1126 63.5077 52.0747 62.8375 51.4455C61.9052 50.5704 61.581 49.3096 61.5794 46.5494C61.5761 41.9899 62.5028 41.0978 67.1465 41.1902L70.1027 41.249V39.7693C70.1027 38.471 70.0268 38.2672 69.484 38.1102C68.4321 37.8055 62.8578 37.6699 62.0628 37.9295Z" fill="white"/>
</svg>
