<svg width="132" height="88" viewBox="0 0 132 88" fill="none" xmlns="http://www.w3.org/2000/svg">
<path fill-rule="evenodd" clip-rule="evenodd" d="M59.7433 5.51122C57.9509 6.09627 55.9373 7.34175 54.7662 8.58973L53.9584 9.45035L55.5569 8.70318C57.0028 8.02747 57.3661 7.97074 59.3669 8.11033C62.8754 8.35476 66.7668 9.93419 70.1576 12.4897C74.5878 15.8284 80.4178 23.207 83.4173 29.2712L84.3648 31.1862L85.9766 29.5579C86.8631 28.6622 87.5884 27.7854 87.5884 27.6097C87.5884 27.2307 84.1949 21.4291 82.7593 19.3538C77.6352 11.9466 71.8898 6.89294 66.9079 5.41111C64.9401 4.82577 61.7045 4.8711 59.7433 5.51122ZM73.1535 6.14688C73.2284 6.22391 74.4067 7.2308 75.7714 8.38423C79.8181 11.8034 84.2891 17.3873 87.7834 23.3855L89.3582 26.0889L90.9245 24.5065C91.786 23.6364 92.4908 22.7596 92.4908 22.5586C92.4908 22.3575 92.1695 21.5403 91.7765 20.7425C88.6569 14.4083 83.1501 8.69539 78.4648 6.93243C77.0384 6.39576 72.7842 5.76648 73.1535 6.14688ZM87.1317 10.524C89.8637 13.4301 91.8612 16.1213 93.5021 19.1072L94.4703 20.869L96.0879 19.2462C98.3846 16.9416 98.4062 16.8729 97.2375 15.5523C95.2332 13.2872 91.2059 10.6572 86.7997 8.73544L84.5127 7.73828L87.1317 10.524ZM57.493 10.5479C53.6425 11.0865 50.4328 12.8523 47.1424 16.2419C45.2937 18.1467 41.2361 23.6019 41.6683 23.6019C41.7443 23.6019 42.5987 23.0363 43.5672 22.3453C48.3016 18.9662 56.3129 16.0181 65.119 14.4139C66.9166 14.0866 68.4148 13.7916 68.4483 13.7585C68.6474 13.5625 64.8322 11.5965 63.3487 11.1304C61.077 10.4172 59.5289 10.2631 57.493 10.5479ZM67.5702 16.2895C65.1433 16.6226 58.3188 18.1856 55.5544 19.0413C45.3394 22.2029 40.0255 26.4346 37.735 33.2317C37.4422 34.1007 37.2025 34.8593 37.2025 34.9174C37.2025 34.9755 37.9686 34.371 38.9047 33.574C46.8889 26.7777 59.5654 21.6674 71.429 20.4625L74.743 20.126L72.9681 18.11L71.1931 16.094L69.7902 16.1357C69.0186 16.1585 68.0196 16.2278 67.5702 16.2895ZM70.43 22.8077C63.839 23.4576 57.0295 25.4552 50.5602 28.6363C45.3661 31.1904 41.7016 33.6939 38.8345 36.6478C34.2254 41.3959 32.9464 46.1709 34.8502 51.5251C35.7228 53.9799 36.0728 54.3317 35.9085 52.589C35.4842 48.0787 38.6713 42.4898 44.0534 38.3068C50.1411 33.5757 56.762 30.4533 64.0296 28.8861C67.2053 28.2012 75.1137 27.8497 78.2602 28.2534C79.3464 28.3928 80.2348 28.4247 80.2348 28.3246C80.2348 28.0721 77.5475 23.563 77.0722 23.0182C76.6114 22.4902 74.3699 22.4193 70.43 22.8077ZM57.2681 33.2904C55.4964 34.0028 53.9432 34.7764 53.8162 35.01C53.689 35.2433 53.3614 36.4946 53.088 37.7907C52.683 39.7088 52.5917 41.3878 52.5966 46.8207C52.6032 53.9054 52.86 56.6861 53.9941 61.943C57.3201 77.3609 64.9284 85.1535 74.048 82.4826L75.0786 82.1809L73.1467 81.6801C70.3736 80.961 68.6708 79.9313 66.322 77.553C63.1651 74.3566 60.9215 70.0426 59.244 63.9451C58.1429 59.942 57.6742 56.955 57.3381 51.8001C56.9037 45.1353 57.6709 39.2597 59.6245 34.292C60.1325 33.0007 60.5347 31.9554 60.5184 31.9696C60.5023 31.9835 59.0395 32.5777 57.2681 33.2904ZM48.7294 37.477C46.5092 38.9427 46.2445 39.2088 46.0721 40.1468C45.5775 42.8388 45.9457 56.2409 46.6337 60.5852C47.4131 65.5087 50.2437 71.2033 53.3769 74.1519C54.5884 75.292 56.9856 76.9913 57.3827 76.9913C57.4881 76.9913 56.8571 75.5798 55.9804 73.8547C53.3957 68.7699 52.1075 64.221 50.9203 55.9856C50.3159 51.7954 50.3072 43.421 50.9023 39.0348C51.1305 37.3524 51.2899 35.9474 51.2561 35.9123C51.2226 35.8776 50.0855 36.5814 48.7294 37.477ZM42.4116 42.4128C39.8163 45.3856 38.1982 49.4504 38.2219 52.9383C38.2456 56.4458 39.3912 59.7913 41.9156 63.724C43.2695 65.8329 46.948 70.1928 47.1767 69.9592C47.2315 69.9036 46.9221 68.8664 46.489 67.6546C45.4955 64.8722 44.4058 59.8778 44.0068 56.2751C43.8341 54.7151 43.7377 50.717 43.787 47.168C43.8355 43.6885 43.8543 40.8417 43.8289 40.8419C43.8033 40.8422 43.1657 41.5488 42.4116 42.4128ZM84.8649 58.835C83.1185 60.3271 80.2917 61.7636 77.7836 62.4335C75.3749 63.077 70.6065 63.0809 68.2511 62.4413C66.3242 61.9182 62.9769 60.3905 61.6615 59.4343C60.876 58.8634 60.849 58.8609 61.1241 59.3856C61.4951 60.0936 63.1439 61.6138 64.8104 62.7844C70.5836 66.8395 81.1739 66.9024 88.6779 62.9254C90.9283 61.7328 90.9278 61.9285 88.6847 59.6208C87.565 58.4688 86.5845 57.5328 86.5058 57.5406C86.4271 57.5487 85.6887 58.1309 84.8649 58.835ZM61.3308 63.5511C61.7334 65.2865 63.3691 68.4173 64.5424 69.6978C65.9214 71.203 67.7628 72.2349 70.43 72.9968C71.8476 73.402 73.2042 73.5032 77.2389 73.5057C82.7361 73.5088 84.7241 73.2065 89.3538 71.6632C92.0823 70.7539 96.8485 68.5341 96.8485 68.1729C96.8485 67.9513 93.8349 64.8761 92.5903 63.8275C92.0278 63.3536 91.9655 63.3656 90.6955 64.1879C89.0224 65.2712 85.777 66.5501 82.7424 67.322C79.3047 68.1965 73.1391 68.1932 69.9463 67.315C67.2913 66.5848 64.5928 65.3335 62.9952 64.0919C61.1709 62.674 61.1238 62.6587 61.3308 63.5511ZM96.4547 70.9191C95.7136 71.3793 94.1086 72.1779 92.8877 72.694C83.8964 76.4941 73.0067 77.2213 67.366 74.398C66.355 73.8919 65.5276 73.5847 65.5276 73.7148C65.5276 73.8452 66.358 74.7996 67.3728 75.8356C70.5427 79.0721 73.6579 80.2464 78.3283 79.965C84.5168 79.5924 91.2783 76.5381 96.1173 71.9296C97.1936 70.9046 98.0129 70.0696 97.938 70.074C97.8631 70.0785 97.1955 70.4589 96.4547 70.9191Z" fill="black" fill-opacity="0.99"/>
</svg>
