<svg width="132" height="88" viewBox="0 0 132 88" fill="none" xmlns="http://www.w3.org/2000/svg">
<path d="M29.0003 7V43.8619H65.9078C65.9078 34.0853 62.0192 24.7095 55.0976 17.7966C48.1764 10.8834 38.7887 7 29.0003 7Z" fill="#FE5489"/>
<path d="M65.9083 7L65.9078 43.8619H102.816C102.816 34.0853 98.9274 24.7095 92.0056 17.7966C85.0844 10.8834 75.6967 7 65.9083 7Z" fill="#FE5489"/>
<path d="M66.092 62.4309C66.092 52.1754 57.7887 43.8617 47.5461 43.8617C37.3033 43.8617 29 52.1754 29 62.4309C29 72.6863 37.3033 81 47.5461 81C57.7887 81 66.092 72.6863 66.092 62.4309Z" fill="#FE5489"/>
<path d="M66.0924 43.8619V80.7236H103C103 70.9472 99.1115 61.5714 92.1897 54.6585C85.2686 47.7454 75.8808 43.8619 66.0924 43.8619Z" fill="#FE5489"/>
</svg>
