<svg width="132" height="88" viewBox="0 0 132 88" fill="none" xmlns="http://www.w3.org/2000/svg">
<path d="M68.5956 33.9511C70.6584 30.702 72.2438 27.1897 73.3121 23.5044C77.6481 32.8047 87.0778 39.2652 97.9846 39.2652V48.7373C97.9535 48.7373 97.9235 48.7373 97.8925 48.7373C82.8896 48.7373 70.6826 60.9619 70.6826 75.9874H61.2251V75.9813C61.2251 62.261 68.7763 50.2754 79.938 43.9741C75.5003 41.4504 71.636 38.0261 68.5956 33.9511Z" fill="#00E165"/>
<path d="M58.6409 64.3549C54.4529 55.4608 45.5993 49.1853 35.2601 48.7164C34.8453 48.7302 34.4305 48.7373 34.0137 48.7373V39.2163C34.4315 39.2163 34.8483 39.2234 35.2631 39.2372C42.0598 38.9314 48.4079 36.1335 53.2556 31.2853C58.3981 26.1409 61.2176 19.2913 61.2176 12.0156H70.6763C70.6763 21.825 66.8631 31.0425 59.9353 37.9807C57.5604 40.3589 54.9177 42.3705 52.0761 43.9875C56.497 46.5038 60.3473 49.9135 63.3808 53.9698C61.3447 57.1587 59.7384 60.6476 58.6409 64.3549Z" fill="#00E165"/>
</svg>
