<svg width="132" height="88" viewBox="0 0 132 88" fill="none" xmlns="http://www.w3.org/2000/svg">
<circle cx="66.0008" cy="44.0008" r="35.2" fill="#040404"/>
<path fill-rule="evenodd" clip-rule="evenodd" d="M53.6529 22.016C53.6529 22.1254 53.4169 22.1905 52.8186 22.2462C52.253 22.2987 51.9843 22.3695 51.9843 22.4659C51.9843 22.5463 51.791 22.6386 51.5393 22.6786C51.2514 22.7243 51.0943 22.8072 51.0943 22.9135C51.0943 23.0315 50.9691 23.0778 50.6493 23.0778C50.2785 23.0778 50.2043 23.1146 50.2043 23.2986C50.2043 23.4774 50.1301 23.5195 49.815 23.5195C49.4998 23.5195 49.4256 23.5615 49.4256 23.7403C49.4256 23.9023 49.3514 23.9611 49.1475 23.9611C48.9783 23.9611 48.8694 24.024 48.8694 24.1217C48.8694 24.2178 48.7131 24.3114 48.48 24.3548C48.1982 24.4073 48.0906 24.485 48.0906 24.6358C48.0906 24.7505 48.0213 24.8444 47.9368 24.8444C47.8521 24.8444 47.7567 24.9438 47.7246 25.0652C47.6927 25.1867 47.5867 25.286 47.4892 25.286C47.3917 25.286 47.3119 25.3606 47.3119 25.4517C47.3119 25.5436 47.213 25.6173 47.0894 25.6173C46.9411 25.6173 46.8669 25.6909 46.8669 25.8381C46.8669 25.9853 46.7927 26.0589 46.6444 26.0589C46.4643 26.0589 46.4219 26.1326 46.4219 26.4454C46.4219 26.7582 46.3796 26.8318 46.1995 26.8318C46.0363 26.8318 45.977 26.9054 45.977 27.1078C45.977 27.2758 45.9135 27.3839 45.8151 27.3839C45.7183 27.3839 45.624 27.539 45.5803 27.7703C45.5388 27.9897 45.441 28.1567 45.3541 28.1567C45.2613 28.1567 45.1728 28.3312 45.1297 28.5984C45.0868 28.8648 44.998 29.04 44.9059 29.04C44.8049 29.04 44.7533 29.1742 44.7533 29.4368C44.7533 29.7407 44.7012 29.8471 44.5308 29.8913C44.3522 29.9377 44.3083 30.0419 44.3083 30.4193C44.3083 31.11 44.1901 31.5795 44.0162 31.5795C43.8913 31.5795 43.8633 32.0044 43.8633 33.8981C43.8633 35.7919 43.8913 36.2168 44.0162 36.2168C44.1912 36.2168 44.3083 36.687 44.3083 37.3899C44.3083 37.7261 44.3548 37.8729 44.4612 37.8729C44.6137 37.8729 44.7533 38.3278 44.7533 38.8252C44.7533 38.9775 44.8191 39.0875 44.9103 39.0875C45.0069 39.0875 45.0964 39.2576 45.1426 39.5291C45.1853 39.7798 45.2803 39.9708 45.3625 39.9708C45.4421 39.9708 45.5401 40.1447 45.5803 40.3572C45.624 40.5885 45.7183 40.7436 45.8151 40.7436C45.9135 40.7436 45.977 40.8517 45.977 41.0197C45.977 41.2221 46.0363 41.2957 46.1995 41.2957C46.3477 41.2957 46.4219 41.3693 46.4219 41.5165C46.4219 41.6392 46.4961 41.7373 46.5888 41.7373C46.6806 41.7373 46.7557 41.8165 46.7557 41.9133C46.7557 42.0101 46.8558 42.1153 46.9782 42.147C47.1005 42.1788 47.2007 42.2735 47.2007 42.3575C47.2007 42.4414 47.3008 42.5102 47.4232 42.5102C47.5715 42.5102 47.6457 42.5839 47.6457 42.731C47.6457 42.8782 47.7199 42.9519 47.8681 42.9519C48.0164 42.9519 48.0906 43.0255 48.0906 43.1727C48.0906 43.3199 48.1648 43.3935 48.3131 43.3935C48.4355 43.3935 48.5356 43.4625 48.5356 43.5469C48.5356 43.6347 48.7019 43.7312 48.925 43.7727C49.158 43.8161 49.3143 43.9097 49.3143 44.0058C49.3143 44.0952 49.4176 44.1664 49.5473 44.1664C49.6866 44.1664 49.8035 44.2551 49.8383 44.3872C49.8825 44.5546 49.9901 44.608 50.2833 44.608C50.5765 44.608 50.6842 44.6615 50.7283 44.8289C50.7775 45.0152 50.88 45.0497 51.3854 45.0497C51.8194 45.0497 51.9843 45.0915 51.9843 45.2015C51.9843 45.3876 52.4673 45.4913 53.3331 45.4913C53.84 45.4913 53.9867 45.5285 53.9867 45.657C53.9867 45.7978 54.2772 45.8226 55.9335 45.8226C57.5898 45.8226 57.8803 45.7978 57.8803 45.657C57.8803 45.5324 58.0147 45.4913 58.4226 45.4913C59.1832 45.4913 59.6602 45.3796 59.6602 45.2015C59.6602 45.0911 59.8271 45.0497 60.2721 45.0497C60.8097 45.0497 60.884 45.023 60.884 44.8289C60.884 44.6326 60.9582 44.608 61.5514 44.608C62.0706 44.608 62.2189 44.5713 62.2189 44.4424C62.2189 44.3267 62.3364 44.2768 62.6083 44.2768C62.8802 44.2768 62.9976 44.3267 62.9976 44.4424C62.9976 44.5573 63.114 44.608 63.3772 44.608C63.7334 44.608 63.7614 44.6353 63.832 45.0497C63.9317 45.6355 63.8022 46.3746 63.5997 46.3746C63.4943 46.3746 63.4426 46.5018 63.4426 46.7611C63.4426 47.0739 63.4002 47.1475 63.2201 47.1475C63.0718 47.1475 62.9976 47.2212 62.9976 47.3683C62.9976 47.5646 62.9234 47.5892 62.3302 47.5892C61.811 47.5892 61.6627 47.6259 61.6627 47.7548C61.6627 47.8459 61.5876 47.9204 61.4958 47.9204C61.404 47.9204 61.3289 47.8459 61.3289 47.7548C61.3289 47.6191 61.1361 47.5892 60.2616 47.5892C59.288 47.5892 59.1893 47.5698 59.1363 47.3683C59.0819 47.162 58.9845 47.1475 57.6504 47.1475C56.445 47.1475 56.2068 47.1756 56.1209 47.3279C56.0552 47.4445 55.8174 47.5275 55.4479 47.5628C55.0749 47.5983 54.8767 47.6681 54.8767 47.7638C54.8767 47.8444 54.7014 47.943 54.4873 47.9829C54.2731 48.0227 54.0979 48.12 54.0979 48.199C54.0979 48.2806 53.9055 48.3748 53.6529 48.4172C53.3152 48.4739 53.208 48.5427 53.208 48.703C53.208 48.8191 53.1329 48.9141 53.0411 48.9141C52.9493 48.9141 52.8742 48.9886 52.8742 49.0797C52.8742 49.1717 52.7753 49.2453 52.6517 49.2453C52.5034 49.2453 52.4292 49.319 52.4292 49.4662C52.4292 49.609 52.355 49.687 52.2191 49.687C52.0671 49.687 51.9888 49.7937 51.936 50.0734C51.8958 50.286 51.7965 50.4599 51.7153 50.4599C51.6292 50.4599 51.538 50.6436 51.4966 50.9015C51.4544 51.1635 51.3644 51.3431 51.2754 51.3431C51.1749 51.3431 51.104 51.5493 51.0605 51.9676C51.0248 52.3111 50.9328 52.6307 50.856 52.6778C50.7753 52.7273 50.6964 53.0772 50.6687 53.5074C50.6284 54.1352 50.6527 54.2746 50.8246 54.3992C50.9749 54.5083 51.0401 54.7322 51.0736 55.254C51.1107 55.8325 51.1572 55.971 51.3291 56.0156C51.486 56.0563 51.5393 56.1708 51.5393 56.4669C51.5393 56.7405 51.5896 56.8637 51.7011 56.8637C51.7979 56.8637 51.8923 57.0188 51.936 57.2502C51.9805 57.4854 52.0736 57.6366 52.1739 57.6366C52.2646 57.6366 52.365 57.736 52.397 57.8574C52.429 57.9789 52.5245 58.0782 52.6091 58.0782C52.6937 58.0782 52.763 58.1776 52.763 58.2991C52.763 58.4462 52.8372 58.5199 52.9855 58.5199C53.1338 58.5199 53.208 58.5935 53.208 58.7407C53.208 58.8879 53.2822 58.9615 53.4305 58.9615C53.5787 58.9615 53.6529 59.0352 53.6529 59.1824C53.6529 59.3597 53.7271 59.4032 54.0293 59.4032C54.3122 59.4032 54.4202 59.4581 54.4639 59.624C54.5084 59.7932 54.6157 59.8448 54.9218 59.8448C55.1869 59.8448 55.3216 59.896 55.3216 59.9966C55.3216 60.2111 55.8278 60.2865 57.2684 60.2865C58.7091 60.2865 59.2153 60.2111 59.2153 59.9966C59.2153 59.896 59.35 59.8448 59.6151 59.8448C59.9212 59.8448 60.0285 59.7932 60.073 59.624C60.1167 59.4581 60.2247 59.4032 60.5076 59.4032C60.8097 59.4032 60.884 59.3597 60.884 59.1824C60.884 59.0352 60.9582 58.9615 61.1064 58.9615C61.23 58.9615 61.3289 58.8879 61.3289 58.7959C61.3289 58.7048 61.4087 58.6303 61.5063 58.6303C61.6037 58.6303 61.7097 58.5309 61.7417 58.4095C61.7737 58.288 61.8738 58.1887 61.9642 58.1887C62.0546 58.1887 62.1547 58.0893 62.1866 57.9678C62.2187 57.8464 62.3141 57.747 62.3988 57.747C62.4833 57.747 62.5526 57.6476 62.5526 57.5262C62.5526 57.379 62.6268 57.3054 62.7751 57.3054C62.9234 57.3054 62.9976 57.2317 62.9976 57.0845C62.9976 56.9631 63.0683 56.8637 63.1547 56.8637C63.2513 56.8637 63.3408 56.6936 63.387 56.4221C63.4287 56.1772 63.5253 55.9804 63.6038 55.9804C63.7479 55.9804 63.8847 55.2192 63.8866 54.4071C63.8873 54.113 63.936 53.993 64.0545 53.993C64.1925 53.993 64.2213 53.786 64.2213 52.7923C64.2213 51.4258 64.2988 50.9015 64.5003 50.9015C64.5773 50.9015 64.6665 50.8021 64.6986 50.6807C64.7305 50.5592 64.8365 50.4599 64.934 50.4599C65.0315 50.4599 65.1113 50.3853 65.1113 50.2942C65.1113 50.162 65.2767 50.1286 65.9326 50.1286C66.6605 50.1286 66.7606 50.1538 66.8123 50.3494C66.8442 50.4709 66.9443 50.5703 67.0347 50.5703C67.1251 50.5703 67.2252 50.6696 67.2572 50.7911C67.2892 50.9125 67.3952 51.0119 67.4926 51.0119C67.62 51.0119 67.67 51.1172 67.67 51.3854C67.67 51.6662 67.7253 51.7734 67.8925 51.8168C68.0497 51.8575 68.1145 51.9666 68.1134 52.1885C68.1111 52.671 67.9938 52.9993 67.8238 52.9993C67.7185 52.9993 67.67 53.1385 67.67 53.441C67.67 53.809 67.6329 53.8826 67.4475 53.8826C67.2992 53.8826 67.225 53.9562 67.225 54.1034C67.225 54.2506 67.1508 54.3243 67.0025 54.3243C66.8542 54.3243 66.78 54.3979 66.78 54.5451C66.78 54.6665 66.7107 54.7659 66.6261 54.7659C66.5415 54.7659 66.446 54.8653 66.414 54.9867C66.3821 55.1082 66.2816 55.2075 66.191 55.2075C66.0906 55.2075 65.9975 55.3587 65.953 55.594C65.9093 55.8253 65.8149 55.9804 65.7182 55.9804C65.6292 55.9804 65.5563 56.0741 65.5563 56.1883C65.5563 56.3035 65.4569 56.4221 65.3338 56.4541C65.1634 56.4983 65.1113 56.6047 65.1113 56.9085C65.1113 57.1728 65.0599 57.3054 64.9575 57.3054C64.7618 57.3054 64.6698 57.6474 64.6679 58.3819C64.6667 58.8229 64.6264 58.9615 64.4995 58.9615C64.366 58.9615 64.3326 59.1272 64.3326 59.7896C64.3326 60.4521 64.366 60.6177 64.4995 60.6177C64.6279 60.6177 64.6663 60.7599 64.6663 61.2354C64.6663 61.76 64.6998 61.8616 64.8888 61.9106C65.0631 61.9559 65.1113 62.0612 65.1113 62.3972C65.1113 62.7523 65.1495 62.8259 65.3338 62.8259C65.5139 62.8259 65.5563 62.8996 65.5563 63.2124C65.5563 63.5252 65.5987 63.5988 65.7788 63.5988C65.9271 63.5988 66.0013 63.6725 66.0013 63.8196C66.0013 63.9668 66.0755 64.0405 66.2238 64.0405C66.3721 64.0405 66.4463 64.1141 66.4463 64.2613C66.4463 64.4085 66.5205 64.4821 66.6688 64.4821C66.7911 64.4821 66.8912 64.5544 66.8912 64.6428C66.8912 64.7388 67.0475 64.8324 67.2806 64.8758C67.4948 64.9157 67.67 65.0118 67.67 65.0894C67.67 65.167 67.8452 65.2631 68.0593 65.3029C68.2924 65.3463 68.4487 65.4399 68.4487 65.536C68.4487 65.6393 68.5628 65.6966 68.7685 65.6966C69.321 65.6966 69.7836 65.8287 69.7836 65.9865C69.7836 66.1065 70.0516 66.1383 71.063 66.1383C72.0781 66.1383 72.3423 66.1067 72.3423 65.9856C72.3423 65.8116 72.676 65.7004 73.2045 65.6982C73.441 65.6972 73.566 65.6428 73.566 65.5407C73.566 65.4449 73.7374 65.356 74.011 65.3102C74.2998 65.2617 74.456 65.1773 74.456 65.0693C74.456 64.9779 74.5561 64.8771 74.6785 64.8454C74.8009 64.8136 74.901 64.7188 74.901 64.6348C74.901 64.5509 75.0011 64.4821 75.1235 64.4821C75.2718 64.4821 75.346 64.4085 75.346 64.2613C75.346 64.1141 75.4202 64.0405 75.5684 64.0405C75.7167 64.0405 75.7909 63.9668 75.7909 63.8196C75.7909 63.6982 75.8638 63.5988 75.9528 63.5988C76.0496 63.5988 76.1439 63.4437 76.1876 63.2124C76.2278 62.9998 76.3258 62.8259 76.4054 62.8259C76.4876 62.8259 76.5826 62.6349 76.6253 62.3843C76.6715 62.1128 76.761 61.9426 76.8576 61.9426C76.9739 61.9426 77.0146 61.7843 77.0146 61.332C77.0146 60.8909 77.061 60.7035 77.1815 60.6577C77.309 60.6091 77.3484 60.4015 77.3484 59.7778C77.3484 59.1258 77.3148 58.9615 77.1815 58.9615C77.048 58.9615 77.0146 58.7959 77.0146 58.1335C77.0146 57.379 76.9948 57.3054 76.7922 57.3054C76.6067 57.3054 76.5697 57.2317 76.5697 56.8637C76.5697 56.5613 76.5212 56.4221 76.4158 56.4221C76.3312 56.4221 76.2357 56.3227 76.2037 56.2013C76.1717 56.0798 76.0713 55.9804 75.9806 55.9804C75.8803 55.9804 75.7872 55.8293 75.7427 55.594C75.6989 55.3627 75.6046 55.2075 75.5078 55.2075C75.4188 55.2075 75.346 55.1082 75.346 54.9867C75.346 54.8395 75.2718 54.7659 75.1235 54.7659C74.9752 54.7659 74.901 54.6923 74.901 54.5451C74.901 54.3678 74.8268 54.3243 74.5246 54.3243C74.2417 54.3243 74.1337 54.2694 74.09 54.1034C74.0459 53.936 73.9382 53.8826 73.645 53.8826C73.3518 53.8826 73.2442 53.8292 73.2 53.6618C73.1576 53.501 73.0483 53.441 72.7978 53.441C72.5659 53.441 72.4536 53.3869 72.4536 53.2753C72.4536 53.1723 72.3485 53.1097 72.1754 53.1097C71.9715 53.1097 71.8973 53.0509 71.8973 52.8889C71.8973 52.7417 71.8231 52.6681 71.6748 52.6681C71.5265 52.6681 71.4523 52.5944 71.4523 52.4473C71.4523 52.3258 71.3836 52.2264 71.2996 52.2264C71.1232 52.2264 71.0258 51.4738 71.0961 50.6531C71.1265 50.2985 71.1915 50.1286 71.2967 50.1286C71.3823 50.1286 71.4523 50.0292 71.4523 49.9078C71.4523 49.7606 71.5265 49.687 71.6748 49.687C71.8231 49.687 71.8973 49.6133 71.8973 49.4662C71.8973 49.319 71.9715 49.2453 72.1198 49.2453C72.2422 49.2453 72.3423 49.177 72.3423 49.0935C72.3423 48.9189 72.8168 48.8037 73.5348 48.8037C73.9382 48.8037 74.0428 48.8452 74.09 49.0245C74.1337 49.1905 74.2417 49.2453 74.5246 49.2453C74.8268 49.2453 74.901 49.2888 74.901 49.4662C74.901 49.6133 74.9752 49.687 75.1235 49.687C75.3089 49.687 75.346 49.7606 75.346 50.1286C75.346 50.4353 75.3939 50.5703 75.503 50.5703C75.5996 50.5703 75.6892 50.7404 75.7353 51.0119C75.7802 51.2754 75.8718 51.4536 75.9626 51.4536C76.0483 51.4536 76.1465 51.6222 76.1876 51.84C76.2295 52.0614 76.3267 52.2264 76.4151 52.2264C76.5001 52.2264 76.5697 52.3258 76.5697 52.4473C76.5697 52.5944 76.6439 52.6681 76.7922 52.6681C76.9404 52.6681 77.0146 52.7417 77.0146 52.8889C77.0146 53.0361 77.0889 53.1097 77.2371 53.1097C77.3854 53.1097 77.4596 53.1834 77.4596 53.3306C77.4596 53.4777 77.5338 53.5514 77.6821 53.5514C77.8057 53.5514 77.9046 53.625 77.9046 53.717C77.9046 53.809 78.0035 53.8826 78.1271 53.8826C78.2754 53.8826 78.3496 53.9562 78.3496 54.1034C78.3496 54.2808 78.4238 54.3243 78.7259 54.3243C79.0089 54.3243 79.1169 54.3791 79.1606 54.5451C79.21 54.7327 79.3123 54.7659 79.841 54.7659C80.2966 54.7659 80.4633 54.8068 80.4633 54.9186C80.4633 55.1316 80.8185 55.2042 81.8678 55.206C82.9708 55.2079 83.4669 55.1184 83.4669 54.9177C83.4669 54.8073 83.6338 54.7659 84.0788 54.7659C84.6164 54.7659 84.6906 54.7392 84.6906 54.5451C84.6906 54.3678 84.7648 54.3243 85.067 54.3243C85.3499 54.3243 85.4579 54.2694 85.5016 54.1034C85.5336 53.982 85.6337 53.8826 85.7241 53.8826C85.8144 53.8826 85.9146 53.7832 85.9466 53.6618C85.9785 53.5403 86.0846 53.441 86.182 53.441C86.2796 53.441 86.3593 53.3664 86.3593 53.2753C86.3593 53.1834 86.4582 53.1097 86.5818 53.1097C86.7256 53.1097 86.8043 53.0361 86.8043 52.9018C86.8043 52.7867 86.9037 52.6681 87.0268 52.6361C87.1972 52.5919 87.2493 52.4855 87.2493 52.1816C87.2493 51.8584 87.2906 51.7848 87.4718 51.7848C87.6519 51.7848 87.6943 51.7111 87.6943 51.3984C87.6943 51.1465 87.7469 51.0119 87.8454 51.0119C88.0233 51.0119 88.1397 50.1169 88.1383 48.7598C88.1369 47.4713 88.0278 46.7059 87.8457 46.7059C87.7461 46.7059 87.6943 46.5702 87.6943 46.309C87.6943 46.0052 87.6422 45.8988 87.4718 45.8546C87.3046 45.8112 87.2493 45.704 87.2493 45.4232C87.2493 45.1233 87.2055 45.0497 87.0268 45.0497C86.8785 45.0497 86.8043 44.976 86.8043 44.8289C86.8043 44.6817 86.7301 44.608 86.5818 44.608C86.4335 44.608 86.3593 44.5344 86.3593 44.3872C86.3593 44.2646 86.2851 44.1664 86.1925 44.1664C86.1007 44.1664 86.0256 44.0872 86.0256 43.9904C86.0256 43.8937 85.9255 43.7885 85.8031 43.7568C85.6807 43.725 85.5806 43.6347 85.5806 43.5559C85.5806 43.4751 85.387 43.3805 85.1356 43.3383C84.8621 43.2925 84.6906 43.2036 84.6906 43.1078C84.6906 43.0024 84.561 42.9519 84.2908 42.9519C83.9847 42.9519 83.8774 42.9002 83.8329 42.731C83.7773 42.5201 83.6812 42.5102 81.674 42.5102C79.6475 42.5102 79.5733 42.5181 79.5733 42.731C79.5733 42.9084 79.4991 42.9519 79.197 42.9519C78.9141 42.9519 78.806 43.0067 78.7623 43.1727C78.7275 43.3049 78.6106 43.3935 78.4713 43.3935C78.3416 43.3935 78.2384 43.4647 78.2384 43.5542C78.2384 43.6495 78.0842 43.7434 77.8592 43.7854C77.6177 43.8303 77.46 43.9323 77.4247 44.0664C77.3942 44.1821 77.2894 44.2768 77.192 44.2768C77.0944 44.2768 77.0146 44.3513 77.0146 44.4424C77.0146 44.5344 76.9158 44.608 76.7922 44.608C76.6439 44.608 76.5697 44.6817 76.5697 44.8289C76.5697 44.976 76.4955 45.0497 76.3472 45.0497C76.2248 45.0497 76.1247 45.122 76.1247 45.2103C76.1247 45.3064 75.9684 45.4 75.7353 45.4434C75.5212 45.4833 75.346 45.5806 75.346 45.6595C75.346 45.8477 74.5792 45.9731 74.011 45.8778C73.7585 45.8354 73.566 45.7411 73.566 45.6595C73.566 45.5806 73.3945 45.4839 73.1847 45.445C72.8799 45.3881 72.7893 45.3102 72.7329 45.0554C72.6942 44.8802 72.5904 44.7095 72.5024 44.6759C72.3827 44.6304 72.3423 44.405 72.3423 43.7834C72.3423 43.0255 72.362 42.9519 72.5648 42.9519C72.7131 42.9519 72.7873 42.8782 72.7873 42.731C72.7873 42.5839 72.8615 42.5102 73.0098 42.5102C73.1322 42.5102 73.2323 42.4414 73.2323 42.3575C73.2323 42.1251 73.5991 42.0718 75.2069 42.0701C76.3947 42.0689 76.6809 42.0385 76.6809 41.9141C76.6809 41.804 76.904 41.7376 77.4596 41.6821C77.9878 41.6295 78.2384 41.5579 78.2384 41.4598C78.2384 41.3771 78.4288 41.2832 78.6833 41.2405C78.9569 41.1947 79.1283 41.1058 79.1283 41.01C79.1283 40.9242 79.2285 40.8541 79.3508 40.8541C79.4991 40.8541 79.5733 40.7804 79.5733 40.6332C79.5733 40.4861 79.6475 40.4124 79.7958 40.4124C79.9441 40.4124 80.0183 40.3388 80.0183 40.1916C80.0183 40.0444 80.0925 39.9708 80.2408 39.9708C80.3644 39.9708 80.4633 39.8971 80.4633 39.8051C80.4633 39.7141 80.543 39.6395 80.6406 39.6395C80.7381 39.6395 80.8441 39.5402 80.876 39.4187C80.908 39.2973 81.0035 39.1979 81.0882 39.1979C81.1727 39.1979 81.242 39.0939 81.242 38.9667C81.242 38.8284 81.3313 38.7124 81.4645 38.6778C81.6317 38.6345 81.687 38.5272 81.687 38.2465C81.687 37.9466 81.7308 37.8729 81.9095 37.8729C82.1051 37.8729 82.132 37.7993 82.132 37.2657C82.132 36.824 82.1737 36.6584 82.2849 36.6584C82.4816 36.6584 82.577 36.1719 82.577 35.1679C82.577 34.1638 82.4816 33.6773 82.2849 33.6773C82.1807 33.6773 82.132 33.5368 82.132 33.2357C82.132 32.9182 82.0854 32.794 81.9664 32.794C81.8593 32.794 81.7758 32.6381 81.7297 32.3524C81.6906 32.1091 81.5958 31.9107 81.5189 31.9107C81.442 31.9107 81.353 31.8114 81.321 31.6899C81.2891 31.5685 81.1889 31.4691 81.0985 31.4691C81.0082 31.4691 80.908 31.3697 80.876 31.2483C80.8441 31.1268 80.7381 31.0274 80.6406 31.0274C80.543 31.0274 80.4633 30.9529 80.4633 30.8618C80.4633 30.7698 80.3644 30.6962 80.2408 30.6962C80.0925 30.6962 80.0183 30.6226 80.0183 30.4754C80.0183 30.3282 79.9441 30.2546 79.7958 30.2546C79.6734 30.2546 79.5733 30.1822 79.5733 30.0939C79.5733 29.9978 79.417 29.9042 79.184 29.8608C78.9698 29.821 78.7946 29.7237 78.7946 29.6448C78.7946 29.5632 78.6021 29.4689 78.3496 29.4265C78.076 29.3806 77.9046 29.2918 77.9046 29.1959C77.9046 29.0863 77.7643 29.0397 77.4318 29.039C75.992 28.8405 75.8301 28.6947 74.456 28.9848C73.8462 29.0384 73.566 29.1077 73.566 29.2049C73.566 29.2828 73.3908 29.3793 73.1767 29.4192C72.9572 29.46 72.7873 29.5575 72.7873 29.6425C72.7873 29.7326 72.6077 29.8236 72.3423 29.8681C72.0688 29.9139 71.8973 30.0028 71.8973 30.0987C71.8973 30.1844 71.8222 30.2546 71.7305 30.2546C71.6378 30.2546 71.5636 30.3527 71.5636 30.4754C71.5636 30.6226 71.4894 30.6962 71.3411 30.6962C71.1928 30.6962 71.1186 30.7698 71.1186 30.917C71.1186 31.0599 71.0444 31.1378 70.9085 31.1378C70.7565 31.1378 70.6782 31.2446 70.6253 31.5243C70.5816 31.7556 70.4873 31.9107 70.3905 31.9107C70.292 31.9107 70.2286 32.0188 70.2286 32.1868C70.2286 32.3482 70.1648 32.4628 70.0748 32.4628C69.8995 32.4628 69.7874 32.794 69.7852 33.3185C69.7842 33.5497 69.7289 33.6773 69.6298 33.6773C69.3946 33.6773 69.3419 34.0419 69.3402 35.6785C69.3384 37.3619 69.4062 37.8729 69.6307 37.8729C69.7526 37.8729 69.7836 38.1621 69.7836 39.2954C69.7836 40.6251 69.7691 40.7217 69.5612 40.7757C69.4388 40.8074 69.3387 40.9103 69.3387 41.0043C69.3387 41.1123 69.1952 41.202 68.9493 41.2478C68.7352 41.2876 68.5599 41.3849 68.5599 41.4639C68.5599 41.5455 68.3675 41.6397 68.115 41.6821C67.5247 41.7811 66.78 41.6526 66.78 41.4516C66.78 41.3658 66.7049 41.2957 66.6131 41.2957C66.4833 41.2957 66.4463 41.1485 66.4463 40.6332C66.4463 40.1179 66.4833 39.9708 66.6131 39.9708C66.7228 39.9708 66.78 39.8619 66.78 39.6533C66.78 39.105 66.913 38.6458 67.072 38.6458C67.1818 38.6458 67.225 38.4871 67.225 38.0834C67.225 37.6139 67.2617 37.5115 67.4475 37.4633C67.6639 37.4071 67.67 37.3127 67.67 34.0508C67.67 31.2781 67.6434 30.6962 67.517 30.6962C67.358 30.6962 67.225 30.237 67.225 29.6887C67.225 29.4921 67.1665 29.3713 67.0711 29.3713C66.8958 29.3713 66.7838 29.04 66.7816 28.5156C66.7806 28.2844 66.7253 28.1567 66.6261 28.1567C66.5415 28.1567 66.446 28.0574 66.414 27.9359C66.3821 27.8145 66.2761 27.7151 66.1786 27.7151C66.0501 27.7151 66.0013 27.6087 66.0013 27.3286C66.0013 27.0159 65.9589 26.9422 65.7788 26.9422C65.6156 26.9422 65.5563 26.8686 65.5563 26.6662C65.5563 26.4982 65.4929 26.3902 65.3944 26.3902C65.2976 26.3902 65.2033 26.235 65.1596 26.0037C65.1067 25.724 65.0284 25.6173 64.8765 25.6173C64.7405 25.6173 64.6663 25.5393 64.6663 25.3964C64.6663 25.2493 64.5921 25.1756 64.4438 25.1756C64.3202 25.1756 64.2213 25.102 64.2213 25.01C64.2213 24.9189 64.1416 24.8444 64.044 24.8444C63.9466 24.8444 63.8418 24.7497 63.8113 24.6337C63.7808 24.5179 63.6603 24.3983 63.5436 24.3681C63.4268 24.3378 63.3314 24.2338 63.3314 24.1371C63.3314 24.0096 63.2241 23.9611 62.942 23.9611C62.6268 23.9611 62.5526 23.919 62.5526 23.7403C62.5526 23.5931 62.4784 23.5195 62.3302 23.5195C62.2078 23.5195 62.1077 23.4507 62.1077 23.3668C62.1077 23.1942 61.7747 23.0816 61.2585 23.0794C61.0042 23.0782 60.8942 23.0181 60.8517 22.857C60.8072 22.6878 60.6999 22.6362 60.3938 22.6362C60.1232 22.6362 59.994 22.5856 59.994 22.4799C59.994 22.3661 59.7679 22.3027 59.1596 22.2462C58.5614 22.1905 58.3253 22.1254 58.3253 22.016C58.3253 21.8909 57.9033 21.8633 55.9891 21.8633C54.0749 21.8633 53.6529 21.8909 53.6529 22.016ZM59.2153 25.4517C59.2153 25.5719 59.0904 25.6173 58.7598 25.6173C58.398 25.6173 58.2925 25.6627 58.2463 25.8381C58.2026 26.004 58.0946 26.0589 57.8117 26.0589C57.5095 26.0589 57.4353 26.1024 57.4353 26.2797C57.4353 26.4024 57.3611 26.5006 57.2684 26.5006C57.1767 26.5006 57.1016 26.5797 57.1016 26.6766C57.1016 26.7733 57.0015 26.8785 56.8791 26.9102C56.7395 26.9464 56.6566 27.0608 56.6566 27.2174C56.6566 27.7028 56.5155 28.1567 56.3646 28.1567C56.2455 28.1567 56.2116 28.3893 56.2116 29.2056C56.2116 30.022 56.2455 30.2546 56.3646 30.2546C56.5171 30.2546 56.6566 30.7094 56.6566 31.2069C56.6566 31.3591 56.7225 31.4691 56.8137 31.4691C56.9102 31.4691 56.9998 31.6392 57.046 31.9107C57.0921 32.1822 57.1817 32.3524 57.2782 32.3524C57.3647 32.3524 57.4353 32.4517 57.4353 32.5732C57.4353 32.7204 57.5095 32.794 57.6578 32.794C57.8061 32.794 57.8803 32.8677 57.8803 33.0148C57.8803 33.162 57.9545 33.2357 58.1028 33.2357C58.2511 33.2357 58.3253 33.3093 58.3253 33.4565C58.3253 33.6037 58.3995 33.6773 58.5478 33.6773C58.6702 33.6773 58.7703 33.7457 58.7703 33.8291C58.7703 33.9805 59.2286 34.119 59.7298 34.119C59.8794 34.119 59.994 34.1847 59.994 34.2703C59.994 34.3764 60.2209 34.4439 60.7546 34.496C61.7246 34.591 62.9976 34.4692 62.9976 34.2816C62.9976 34.2056 63.1673 34.1119 63.3748 34.0734C63.6202 34.0276 63.7719 33.927 63.8093 33.785C63.8409 33.6651 63.9442 33.5669 64.039 33.5669C64.1478 33.5669 64.2381 33.4245 64.2843 33.1805C64.3261 32.9591 64.4234 32.794 64.5118 32.794C64.6002 32.794 64.6663 32.682 64.6663 32.5318C64.6663 32.0344 64.8058 31.5795 64.9583 31.5795C65.0711 31.5795 65.1113 31.4055 65.1113 30.917C65.1113 30.4195 65.0721 30.2546 64.9539 30.2546C64.8392 30.2546 64.7753 30.0302 64.7184 29.4265C64.6659 28.8709 64.5937 28.5984 64.4988 28.5984C64.421 28.5984 64.3245 28.4245 64.2843 28.2119C64.2406 27.9806 64.1462 27.8255 64.0495 27.8255C63.9594 27.8255 63.8876 27.723 63.8876 27.5943C63.8876 27.4561 63.7983 27.34 63.6651 27.3055C63.5427 27.2737 63.4426 27.1743 63.4426 27.0846C63.4426 26.9949 63.3425 26.8955 63.2201 26.8638C63.0977 26.832 62.9976 26.7373 62.9976 26.6533C62.9976 26.5694 62.8975 26.5006 62.7751 26.5006C62.6268 26.5006 62.5526 26.4269 62.5526 26.2797C62.5526 26.1024 62.4784 26.0589 62.1763 26.0589C61.8934 26.0589 61.7854 26.004 61.7417 25.8381C61.6923 25.6505 61.5899 25.6173 61.0613 25.6173C60.5822 25.6173 60.439 25.5792 60.439 25.4517C60.439 25.3245 60.2968 25.286 59.8271 25.286C59.3574 25.286 59.2153 25.3245 59.2153 25.4517ZM59.2153 28.3776C59.2153 28.5247 59.1411 28.5984 58.9928 28.5984C58.8445 28.5984 58.7703 28.672 58.7703 28.8192C58.7703 28.9664 58.6961 29.04 58.5478 29.04C58.3995 29.04 58.3253 29.1137 58.3253 29.2608C58.3253 29.3823 58.256 29.4817 58.1714 29.4817C57.9533 29.4817 57.8835 29.8362 57.8819 30.955C57.8804 31.8392 57.9013 31.9369 58.1028 31.9891C58.27 32.0325 58.3253 32.1397 58.3253 32.4205C58.3253 32.7204 58.3691 32.794 58.5478 32.794C58.6961 32.794 58.7703 32.8677 58.7703 33.0148C58.7703 33.162 58.8445 33.2357 58.9928 33.2357C59.1955 33.2357 59.2153 33.162 59.2153 32.4076C59.2153 31.7451 59.2486 31.5795 59.3821 31.5795C59.4774 31.5795 59.549 31.4802 59.549 31.3483C59.549 31.2101 59.6383 31.094 59.7715 31.0595C59.8939 31.0277 59.994 30.9329 59.994 30.8489C59.994 30.765 60.0941 30.6962 60.2165 30.6962C60.3648 30.6962 60.439 30.6226 60.439 30.4754C60.439 30.27 60.5132 30.2546 61.4958 30.2546C62.4784 30.2546 62.5526 30.27 62.5526 30.4754C62.5526 30.6226 62.6268 30.6962 62.7751 30.6962C62.9234 30.6962 62.9976 30.7698 62.9976 30.917C62.9976 31.0385 63.0669 31.1378 63.1515 31.1378C63.3472 31.1378 63.4392 31.4799 63.4411 32.2144C63.4424 32.7199 63.4711 32.794 63.6651 32.794C63.8134 32.794 63.8876 32.7204 63.8876 32.5732C63.8876 32.4505 63.9618 32.3524 64.0545 32.3524C64.188 32.3524 64.2213 32.1868 64.2213 31.5243C64.2213 30.8618 64.188 30.6962 64.0545 30.6962C63.9371 30.6962 63.8876 30.5785 63.8876 30.2994C63.8876 30.002 63.8345 29.8889 63.6756 29.8476C63.5405 29.8126 63.4377 29.656 63.3924 29.4163C63.3502 29.1931 63.2555 29.04 63.1595 29.04C63.0705 29.04 62.9976 28.9407 62.9976 28.8192C62.9976 28.6393 62.9234 28.5984 62.5978 28.5984C62.2917 28.5984 62.1844 28.5467 62.1399 28.3776C62.0855 28.1712 61.9882 28.1567 60.6484 28.1567C59.2895 28.1567 59.2153 28.1681 59.2153 28.3776ZM51.0943 30.917C51.0943 31.1133 51.0201 31.1378 50.4268 31.1378C49.9169 31.1378 49.7593 31.1757 49.7593 31.2985C49.7593 31.3946 49.603 31.4882 49.37 31.5316C49.1469 31.5731 48.9806 31.6696 48.9806 31.7574C48.9806 31.8417 48.8805 31.9107 48.7581 31.9107C48.6098 31.9107 48.5356 31.9844 48.5356 32.1315C48.5356 32.2787 48.4614 32.3524 48.3131 32.3524C48.1648 32.3524 48.0906 32.426 48.0906 32.5732C48.0906 32.7204 48.0164 32.794 47.8681 32.794C47.7199 32.794 47.6457 32.8677 47.6457 33.0148C47.6457 33.1363 47.5768 33.2357 47.4927 33.2357C47.3402 33.2357 47.2007 33.6906 47.2007 34.188C47.2007 34.3474 47.1353 34.4502 47.0338 34.4502C46.8966 34.4502 46.8669 34.6465 46.8669 35.5543C46.8669 36.4621 46.8966 36.6584 47.0338 36.6584C47.1353 36.6584 47.2007 36.7612 47.2007 36.9206C47.2007 37.4181 47.3402 37.8729 47.4927 37.8729C47.5941 37.8729 47.6457 38.0067 47.6457 38.2698C47.6457 38.5671 47.6987 38.6803 47.8577 38.7216C47.9927 38.7566 48.0955 38.9131 48.1408 39.1528C48.1831 39.3761 48.2778 39.5291 48.3738 39.5291C48.4628 39.5291 48.5356 39.6285 48.5356 39.7499C48.5356 39.8971 48.6098 39.9708 48.7581 39.9708C48.8805 39.9708 48.9806 40.0431 48.9806 40.1314C48.9806 40.2275 49.1369 40.3211 49.37 40.3645C49.6518 40.4169 49.7593 40.4947 49.7593 40.6455C49.7593 40.7804 49.8379 40.8541 49.9818 40.8541C50.1042 40.8541 50.2043 40.9242 50.2043 41.01C50.2043 41.1058 50.3757 41.1947 50.6493 41.2405C50.8982 41.2822 51.0943 41.3775 51.0943 41.4568C51.0943 41.548 51.332 41.6251 51.7618 41.6733C52.236 41.7266 52.4292 41.7947 52.4292 41.9085C52.4292 42.0401 52.6861 42.0686 53.8754 42.0686C55.0284 42.0686 55.3216 42.0378 55.3216 41.9168C55.3216 41.7654 55.78 41.6269 56.2811 41.6269C56.4418 41.6269 56.5453 41.562 56.5453 41.4613C56.5453 41.3668 56.6454 41.2957 56.7783 41.2957C56.9176 41.2957 57.0345 41.207 57.0693 41.0749C57.1014 40.9534 57.2015 40.8541 57.2918 40.8541C57.3823 40.8541 57.4824 40.7547 57.5143 40.6332C57.5463 40.5118 57.6418 40.4124 57.7264 40.4124C57.811 40.4124 57.8803 40.313 57.8803 40.1916C57.8803 40.0444 57.9545 39.9708 58.1028 39.9708C58.2815 39.9708 58.3253 39.8971 58.3253 39.5972C58.3253 39.3165 58.3806 39.2093 58.5478 39.1659C58.7569 39.1117 58.7703 39.0153 58.7703 37.5659C58.7703 35.8441 58.7035 35.3335 58.4783 35.3335C58.3786 35.3335 58.3253 35.2033 58.3253 34.96C58.3253 34.6792 58.27 34.572 58.1028 34.5286C57.9696 34.494 57.8803 34.378 57.8803 34.2397C57.8803 34.111 57.8085 34.0085 57.7184 34.0085C57.6217 34.0085 57.5273 33.8534 57.4836 33.6221C57.4308 33.3424 57.3524 33.2357 57.2005 33.2357C57.0849 33.2357 56.9903 33.1633 56.9903 33.075C56.9903 32.979 56.834 32.8853 56.601 32.8419C56.3192 32.7895 56.2116 32.7118 56.2116 32.5609C56.2116 32.426 56.1331 32.3524 55.9891 32.3524C55.8408 32.3524 55.7666 32.2787 55.7666 32.1315C55.7666 31.9844 55.6924 31.9107 55.5441 31.9107C55.4205 31.9107 55.3216 31.8371 55.3216 31.7451C55.3216 31.6444 55.2181 31.5795 55.0574 31.5795C54.5563 31.5795 54.0979 31.441 54.0979 31.2897C54.0979 31.1816 53.9416 31.1378 53.5556 31.1378C52.795 31.1378 52.318 31.0261 52.318 30.848C52.318 30.7376 52.1511 30.6962 51.7061 30.6962C51.1685 30.6962 51.0943 30.7229 51.0943 30.917ZM60.8824 30.8342C60.8816 30.9102 60.8507 31.0841 60.8139 31.2207C60.7568 31.432 60.7903 31.4691 61.0378 31.4691C61.2963 31.4691 61.3289 31.4258 61.3289 31.0826C61.3289 30.7698 61.2865 30.6962 61.1064 30.6962C60.9841 30.6962 60.8833 30.7584 60.8824 30.8342ZM54.5429 33.3898C54.5429 33.5023 54.3027 33.565 53.6529 33.6221C52.8811 33.6899 52.763 33.7281 52.763 33.9096C52.763 34.0453 52.6848 34.119 52.5405 34.119C52.4169 34.119 52.318 34.1926 52.318 34.2846C52.318 34.3757 52.2429 34.4502 52.1511 34.4502C52.0585 34.4502 51.9843 34.5483 51.9843 34.671C51.9843 34.8128 51.9101 34.8918 51.7771 34.8918C51.6036 34.8918 51.5577 35.0104 51.4944 35.6241C51.4528 36.0269 51.4525 36.7681 51.4935 37.2712C51.5561 38.0357 51.6026 38.1948 51.7763 38.24C51.8959 38.271 51.9843 38.3922 51.9843 38.525C51.9843 38.657 52.0559 38.7562 52.1511 38.7562C52.2429 38.7562 52.318 38.8354 52.318 38.9322C52.318 39.029 52.4181 39.1342 52.5405 39.1659C52.6629 39.1977 52.763 39.2924 52.763 39.3764C52.763 39.4603 52.8631 39.5291 52.9855 39.5291C53.1338 39.5291 53.208 39.6028 53.208 39.7499C53.208 39.9252 53.2826 39.9711 53.5695 39.9723C54.0979 39.9745 54.4317 40.0857 54.4317 40.2597C54.4317 40.377 54.638 40.4124 55.3216 40.4124C56.0354 40.4124 56.2116 40.3798 56.2116 40.2481C56.2116 40.1418 56.3687 40.0589 56.6566 40.0132C56.992 39.9599 57.1016 39.8916 57.1016 39.7358C57.1016 39.6221 57.1767 39.5291 57.2684 39.5291C57.3602 39.5291 57.4353 39.4546 57.4353 39.3635C57.4353 39.2724 57.3602 39.1979 57.2684 39.1979C57.1767 39.1979 57.1016 39.2724 57.1016 39.3635C57.1016 39.4991 56.91 39.5291 56.0447 39.5291C55.1519 39.5291 54.9879 39.5018 54.9879 39.3531C54.9879 39.2564 54.8878 39.1512 54.7654 39.1195C54.643 39.0877 54.5429 38.9883 54.5429 38.8987C54.5429 38.8089 54.4476 38.7109 54.3311 38.6806C54.1761 38.6404 54.1074 38.5025 54.0746 38.1665C54.0008 37.4098 54.1068 36.548 54.2736 36.548C54.3549 36.548 54.4545 36.3741 54.4946 36.1616C54.5391 35.9263 54.6322 35.7751 54.7326 35.7751C54.8233 35.7751 54.9237 35.6758 54.9556 35.5543C54.9994 35.3884 55.1074 35.3335 55.3903 35.3335C55.6355 35.3335 55.7666 35.2806 55.7666 35.1817C55.7666 35.0005 56.2572 34.8868 56.6844 34.9691C56.8526 35.0015 56.9903 35.0968 56.9903 35.1808C56.9903 35.2647 57.0905 35.3335 57.2128 35.3335C57.3915 35.3335 57.4353 35.2598 57.4353 34.96C57.4353 34.6792 57.38 34.572 57.2128 34.5286C57.0905 34.4969 56.9903 34.3972 56.9903 34.3072C56.9903 34.2076 56.838 34.1152 56.601 34.071C56.3679 34.0276 56.2116 33.934 56.2116 33.838C56.2116 33.7346 56.0975 33.6773 55.8918 33.6773C55.3393 33.6773 54.8767 33.5453 54.8767 33.3875C54.8767 33.304 54.8016 33.2357 54.7098 33.2357C54.618 33.2357 54.5429 33.305 54.5429 33.3898ZM55.7666 35.9959C55.7666 36.2267 55.8771 36.2583 56.295 36.1472C56.7009 36.0392 56.6022 35.7751 56.156 35.7751C55.8408 35.7751 55.7666 35.8172 55.7666 35.9959Z" fill="white"/>
</svg>
