<svg width="132" height="88" viewBox="0 0 132 88" fill="none" xmlns="http://www.w3.org/2000/svg">
<path d="M66.0207 7.69922C58.8403 7.69518 51.8201 9.82069 45.8479 13.8069C39.8757 17.7932 35.2199 23.461 32.4693 30.0936C29.7187 36.7262 28.9969 44.0256 30.3952 51.0684C31.7935 58.1113 35.2492 64.5812 40.325 69.6599C45.4008 74.7386 51.8688 78.1979 58.9109 79.6002C65.9529 81.0025 73.2527 80.2848 79.8869 77.538C86.521 74.7911 92.1915 70.1385 96.1811 64.1685C100.171 58.1986 102.3 51.1795 102.3 43.9992C102.306 39.2324 101.371 34.5114 99.5499 30.1062C97.7289 25.701 95.0571 21.6981 91.6874 18.3265C88.3177 14.9549 84.3163 12.2809 79.9121 10.4573C75.5079 8.63377 70.7874 7.69653 66.0207 7.69922ZM73.7144 64.9935C69.5573 64.9935 65.4935 63.7604 62.0372 61.4504C58.5809 59.1404 55.8874 55.8571 54.2974 52.016C52.7075 48.1749 52.2925 43.9485 53.105 39.8715C53.9176 35.7944 55.9211 32.05 58.8621 29.1119C61.8031 26.1737 65.5494 24.1739 69.6272 23.3653C73.705 22.5568 77.931 22.9759 81.7706 24.5696C85.6102 26.1633 88.8908 28.86 91.1975 32.3185C93.5041 35.777 94.7332 39.842 94.7291 43.9992C94.7291 46.7579 94.1854 49.4896 93.1291 52.0381C92.0728 54.5866 90.5245 56.9019 88.5728 58.8516C86.6212 60.8014 84.3044 62.3474 81.7549 63.4012C79.2054 64.4551 76.4732 64.9961 73.7144 64.9935Z" fill="black"/>
</svg>
