<svg width="132" height="88" viewBox="0 0 132 88" fill="none" xmlns="http://www.w3.org/2000/svg">
<path d="M79.2736 69.0365C78.9178 68.4128 78.346 67.9401 77.6654 67.708C76.9856 67.4762 76.2439 67.5001 75.5804 67.7759C72.4459 69.0165 69.0953 69.6193 65.7249 69.5491C62.3545 69.4793 59.0322 68.7376 55.9517 67.3684C52.1454 65.6271 48.8201 62.9876 46.2612 59.6761C43.7024 56.3648 41.9873 52.4807 41.2626 48.359C40.5949 44.2249 40.9667 39.9902 42.3421 36.0354C43.7184 32.0804 46.0564 28.5299 49.146 25.7031C52.2353 22.8761 55.9786 20.862 60.0398 19.8414C64.1008 18.8208 68.3517 18.826 72.411 19.8565C73.1045 20.0441 73.8421 19.972 74.487 19.6537C75.1305 19.3354 75.6362 18.7929 75.9082 18.1279L76.5418 16.5394C76.6949 16.1524 76.7629 15.7374 76.7428 15.3219C76.7219 14.9065 76.613 14.5002 76.4241 14.13C76.234 13.7598 75.9681 13.434 75.6433 13.1745C75.3186 12.9149 74.9415 12.7276 74.5389 12.6246C66.2188 10.4461 57.377 11.6148 49.9086 15.8802L49.8945 15.8545C49.3058 16.1961 48.7371 16.565 48.1763 16.9426C42.522 20.6266 38.1471 25.9718 35.6543 32.2435C33.8981 36.7639 33.1555 41.6152 33.4803 46.4541C33.8051 51.2933 35.1885 56.0018 37.5334 60.247C41.1297 66.7037 46.8071 71.7511 53.6409 74.566H53.6488C61.6379 77.8844 70.6128 77.9201 78.6279 74.6669C79.0148 74.5129 79.3635 74.278 79.6523 73.978C79.9413 73.6794 80.1632 73.3216 80.3032 72.9297C80.4429 72.5378 80.4979 72.1209 80.4649 71.7062C80.4311 71.2915 80.3101 70.8887 80.1093 70.5248L79.2736 69.0365Z" fill="#FF6081"/>
<path d="M65.9609 76.8911C58.9055 76.882 52.0387 74.6122 46.3693 70.4129C40.699 66.2131 36.5249 60.3067 34.4599 53.5601C32.3949 46.8135 32.5478 39.5824 34.8957 32.929C37.2436 26.2757 41.6635 20.5505 47.5056 16.5944C53.348 12.6384 60.3047 10.6599 67.3543 10.9497C74.4039 11.2394 81.1747 13.782 86.6733 18.2041C92.1706 22.6262 96.1058 28.6946 97.8999 35.5182C99.694 42.342 99.2532 49.561 96.6415 56.1154C94.2166 62.2666 89.9895 67.5414 84.5151 71.2486C79.0407 74.9559 72.573 76.923 65.9609 76.8911ZM66.042 11.576C60.1669 11.5688 54.4015 13.1624 49.3638 16.1858C44.3272 19.2092 40.2082 23.548 37.4515 28.7358C34.6948 33.9237 33.4044 39.7647 33.7173 45.631C34.0311 51.4976 35.9372 57.1675 39.2307 62.0323C42.5251 66.8968 47.0818 70.7718 52.4124 73.2416C57.7428 75.7116 63.6451 76.681 69.4864 76.0485C75.3265 75.4146 80.8848 73.2028 85.5618 69.6484C90.2395 66.094 93.8607 61.3321 96.0357 55.8745C97.9887 50.9732 98.7125 45.6679 98.1438 40.422C97.5751 35.1763 95.731 30.1493 92.7734 25.7801C89.8146 21.411 85.8315 17.8321 81.1728 15.3562C76.5129 12.8803 71.3184 11.5825 66.042 11.576Z" fill="#FF6081"/>
</svg>
