<svg width="132" height="88" viewBox="0 0 132 88" fill="none" xmlns="http://www.w3.org/2000/svg">
<path fill-rule="evenodd" clip-rule="evenodd" d="M30.2253 13.9492H101.776C102.535 13.9492 103.263 14.2508 103.8 14.7875C104.337 15.3242 104.638 16.0522 104.638 16.8113V71.19C104.638 71.949 104.337 72.6771 103.8 73.2137C103.263 73.7503 102.535 74.052 101.776 74.052H30.2253C29.4663 74.052 28.7383 73.7503 28.2016 73.2137C27.6648 72.6771 27.3633 71.949 27.3633 71.19V16.8113C27.3633 16.0522 27.6648 15.3242 28.2016 14.7875C28.7383 14.2508 29.4663 13.9492 30.2253 13.9492ZM38.8114 25.3974V62.6038H61.7077V25.3974H38.8114ZM70.2938 25.3974V62.6038H93.1901V25.3974H70.2938Z" fill="#0260EE"/>
</svg>
