<svg width="132" height="88" viewBox="0 0 132 88" fill="none" xmlns="http://www.w3.org/2000/svg">
<path d="M67.3215 57.8501C67.1921 57.4618 66.028 55.1321 68.3562 50.9903C69.9083 47.7545 70.555 45.4248 69.6496 42.3184C69.1323 40.6358 68.7442 39.7298 66.2867 37.5295C65.252 36.6235 64.4759 35.9763 62.7945 35.0703C62.4064 35.0703 61.3717 35.1997 60.9837 35.3292C56.198 36.8823 50.6362 43.095 51.5416 52.2846C51.5416 52.8023 51.5416 53.4495 51.5416 53.9672C51.5416 54.4849 51.4123 54.8732 50.8949 55.1321C48.9548 56.6852 49.4722 56.1675 47.532 57.7207V57.8501C48.3081 59.6622 49.7308 61.0859 51.671 61.9919C52.7057 60.6976 53.2231 59.7916 54.2578 58.3679C54.5165 57.9796 55.0339 57.7207 55.5513 57.7207C58.1381 57.8501 60.9837 58.2384 62.9238 58.2384C66.1574 58.2384 67.3215 57.8501 67.3215 57.8501Z" fill="#505050"/>
<path d="M81.5492 7.11297C61.2423 -1.42947 37.8313 8.14842 29.1653 28.4691C20.4993 48.7897 30.2001 72.3461 50.5069 80.8886C70.8137 89.431 94.3541 79.8531 102.891 59.5325C111.427 39.2118 101.856 15.7848 81.5492 7.11297ZM52.5764 76.0996C49.3428 74.6759 46.3679 72.8639 43.781 70.6636C43.9104 70.5341 44.2984 70.1458 44.4278 70.0164C45.5918 68.8515 45.9799 68.4632 47.144 67.2983C47.7907 66.6512 47.532 66.91 48.0494 66.2629C48.1787 66.1335 48.1787 66.004 47.92 65.8746C46.2386 64.9686 44.8158 63.8037 43.9104 62.1211C43.781 61.8622 43.6517 61.7328 43.393 61.9917C41.5822 63.6743 40.9355 64.192 39.1247 65.8746C31.3641 56.1673 28.9066 42.577 34.0803 30.4105C41.4529 12.8079 61.889 4.39492 79.609 11.9019C97.329 19.4089 105.607 39.859 98.105 57.591C90.6031 75.3231 70.167 83.6066 52.5764 76.0996Z" fill="#505050"/>
<path d="M67.3215 57.8499C67.3215 57.8499 72.8832 55.779 76.1168 52.5433C79.3504 49.3075 83.748 41.2828 83.1013 37.2704C82.5839 38.4353 81.0318 40.6356 80.1264 41.2828C78.5743 42.4476 76.3755 43.2242 74.4353 43.8714C74.306 43.8714 74.1767 44.0008 74.0473 44.0008C79.9971 39.859 83.4893 30.7989 81.6785 23.8096C80.7731 24.9745 79.221 27.1748 78.1863 28.2103C75.2114 31.3166 71.7191 33.6463 67.5802 34.4229C67.5802 34.4229 67.4508 34.4229 67.3215 34.4229C66.8041 34.5524 66.0281 34.5524 65.1227 34.6818C64.2173 34.8112 63.3119 34.9407 62.4065 35.0701C64.0879 35.8467 65.252 36.7527 66.4161 37.6587C68.7443 39.859 69.1323 40.6356 69.6497 42.3182C70.5551 45.2951 69.9083 47.6249 68.3562 50.9901C65.7694 55.2613 67.3215 57.8499 67.3215 57.8499Z" fill="#01BBE4"/>
</svg>
