<svg width="132" height="88" viewBox="0 0 132 88" fill="none" xmlns="http://www.w3.org/2000/svg">
<path fill-rule="evenodd" clip-rule="evenodd" d="M67.932 55.4608C66.6833 55.4608 65.4345 55.3522 64.24 55.0265C63.0999 54.755 61.9597 54.3207 60.9281 53.7777C59.8965 53.2348 58.9735 52.5833 58.1591 51.7689C57.3447 51.0088 56.6389 50.0858 56.0417 49.1086C54.8472 47.0997 54.25 44.7651 54.3042 42.3763C54.25 40.0417 54.9015 37.7071 56.0417 35.6983C56.6389 34.721 57.3447 33.8523 58.1591 33.0922C58.9735 32.3321 59.8965 31.6263 60.9281 31.0834C61.9597 30.5405 63.0999 30.1061 64.24 29.8347C65.4888 29.5632 66.7376 29.4003 67.9863 29.4003C69.1808 29.4003 70.321 29.5089 71.4611 29.7804C72.547 29.9975 73.5786 30.4319 74.5016 30.9205C75.4246 31.4091 76.2933 32.0607 76.9991 32.8207C77.7049 33.5808 78.3565 34.4495 78.7908 35.3725C78.9537 35.6983 78.8451 36.024 78.5194 36.2412L74.1758 38.7929C73.8501 38.9558 73.47 38.8472 73.3071 38.5758C72.9814 38.0871 72.6556 37.6528 72.2213 37.2185C71.8412 36.8384 71.4068 36.5127 70.9182 36.2955C70.4296 36.024 69.9409 35.8611 69.4523 35.7526C68.9093 35.644 68.3664 35.5354 67.8234 35.5897C66.0317 35.5354 64.2943 36.1869 63.0456 37.4356L62.9913 37.4899C62.394 38.0871 61.9054 38.8472 61.6339 39.6073C61.3082 40.5303 61.1453 41.5076 61.1453 42.4848C61.0367 44.3308 61.7425 46.1768 62.9913 47.4798C63.5885 48.077 64.2943 48.5656 65.1087 48.8914C65.9774 49.2171 66.9004 49.38 67.7691 49.38C68.3121 49.38 68.855 49.3257 69.398 49.2171C69.8866 49.1086 70.4296 48.8914 70.8639 48.6742C71.3526 48.4028 71.7869 48.1313 72.167 47.7512C72.6013 47.3712 72.9271 46.8826 73.2528 46.3939C73.4157 46.0682 73.8501 46.0139 74.1215 46.1768L78.4108 48.6742C78.7365 48.8371 78.8451 49.2171 78.6822 49.5429C77.7049 51.4431 76.1847 52.9633 74.3387 53.9949C73.3614 54.5378 72.3298 54.9179 71.2983 55.1351C70.2667 55.3522 69.0722 55.4608 67.932 55.4608Z" fill="#2B5C97"/>
<path fill-rule="evenodd" clip-rule="evenodd" d="M72.4929 9.31207C76.6193 9.855 78.1395 13.6555 77.9223 16.0987C77.6509 19.0305 75.2076 22.3966 70.3212 25.8171C66.5206 21.2565 65.0004 17.3474 65.489 14.4699C65.9234 12.0267 68.3666 8.76914 72.4929 9.31207Z" fill="#2B5C97"/>
<path fill-rule="evenodd" clip-rule="evenodd" d="M50.0694 8.87769C54.7387 6.48881 59.0279 9.31203 60.5481 11.9724C62.3398 15.1756 62.2313 20.442 59.6794 27.4458C52.4583 25.437 48.1148 22.5052 46.5403 19.139C45.2372 16.3701 45.4544 11.2666 50.0694 8.87769Z" fill="#F2686A"/>
<path fill-rule="evenodd" clip-rule="evenodd" d="M37.3653 27.6086C39.2113 23.8624 43.2833 23.6452 45.5094 24.6768C48.1698 25.8712 50.613 29.2917 52.2418 34.9924C46.7039 37.1098 42.5232 37.2727 39.9171 35.9154C37.8539 34.7209 35.5736 31.3548 37.3653 27.6086Z" fill="#2B5C97"/>
<path fill-rule="evenodd" clip-rule="evenodd" d="M62.1777 79.9468C67.3356 80.6526 70.4303 76.5263 70.9733 73.4859C71.5705 69.8483 69.7245 64.962 64.8924 59.207C58.7571 63.4961 55.6624 67.7309 55.3366 71.4228C55.0651 74.4632 56.9654 79.241 62.1777 79.9468Z" fill="#F2686A"/>
<path fill-rule="evenodd" clip-rule="evenodd" d="M43.7714 66.3736C46.7576 69.3054 50.6667 68.1653 52.4584 66.4822C54.5759 64.4734 55.7161 60.4557 55.4446 54.5378C49.5266 54.3207 45.5088 55.5694 43.5542 57.7411C41.8711 59.5327 40.7852 63.4418 43.7714 66.3736Z" fill="#2B5C97"/>
<path fill-rule="evenodd" clip-rule="evenodd" d="M30.1435 48.9457C31.1751 54.0492 36.0616 55.678 39.102 55.1893C42.7397 54.5921 46.8118 51.226 50.6666 44.8737C44.64 40.476 39.5907 38.9015 36.0073 39.7159C33.0211 40.4217 29.1119 43.7879 30.1435 48.9457Z" fill="#F2686A"/>
<path fill-rule="evenodd" clip-rule="evenodd" d="M83.8948 71.9116C80.2571 73.9204 76.7823 71.8573 75.4792 69.7398C73.959 67.2424 73.9047 63.0618 75.6964 57.4154C81.5058 58.7727 85.035 60.9987 86.3923 63.6048C87.4782 65.7765 87.4782 69.8484 83.8948 71.9116Z" fill="#2B5C97"/>
<path fill-rule="evenodd" clip-rule="evenodd" d="M93.5242 15.5099C89.741 11.8772 84.8203 13.3453 82.5981 15.4549C79.9596 18.0063 78.5465 23.0808 78.9726 30.5227C86.4663 30.6791 91.4703 29.1227 93.9477 26.3528C95.9932 24.0766 97.2554 19.1268 93.5242 15.5099Z" fill="#F2686A"/>
<path fill-rule="evenodd" clip-rule="evenodd" d="M100.293 37.1061C99.6046 32.987 95.7677 31.6061 93.3388 31.9527C90.4471 32.3302 87.1221 34.9018 83.9202 39.8917C88.6134 43.5146 92.5699 44.8749 95.4566 44.3258C97.7764 43.7763 100.93 41.2097 100.293 37.1061Z" fill="#2B5C97"/>
<path fill-rule="evenodd" clip-rule="evenodd" d="M101.063 59.6191C98.6048 64.2092 93.4562 64.3613 90.6854 63.0176C87.374 61.3978 84.4442 57.0014 82.5826 49.808C89.6206 47.3327 94.9095 47.2794 98.1064 49.0915C100.763 50.6276 103.536 54.9771 101.063 59.6191Z" fill="#F2686A"/>
<path fill-rule="evenodd" clip-rule="evenodd" d="M42.9737 66.1283C45.8785 69.0998 49.8003 68.1251 51.6581 66.4728C53.8334 64.5191 55.0896 60.5314 55.0004 54.6082C49.0462 54.2345 45.0255 55.3496 42.9749 57.4542C41.3095 59.221 40.1365 63.1204 42.9737 66.1283Z" fill="#2B5C97"/>
</svg>
