<svg width="132" height="88" viewBox="0 0 132 88" fill="none" xmlns="http://www.w3.org/2000/svg">
<path d="M91.9777 6.87748L32.2227 20.6715C30.8175 20.9966 29.5989 21.8665 28.8351 23.09C28.0712 24.3135 27.8247 25.7903 28.1496 27.1956L29.444 32.7959C29.7686 34.201 30.638 35.4198 31.861 36.184C33.084 36.9483 34.5605 37.1955 35.9657 36.8714L95.716 23.0774C96.412 22.9167 97.0696 22.6204 97.6511 22.2056C98.2326 21.7907 98.7267 21.2653 99.1051 20.6595C99.4836 20.0537 99.739 19.3792 99.8568 18.6746C99.9745 17.9701 99.9524 17.2492 99.7915 16.5532L98.4995 10.953C98.1749 9.54781 97.3055 8.32908 96.0825 7.56481C94.8595 6.80054 93.383 6.55331 91.9777 6.87748Z" fill="url(#paint0_linear_2201_6007)"/>
<path d="M28 64.6367H104V75.823C104 77.2654 103.427 78.6488 102.407 79.6687C101.387 80.6887 100.004 81.2617 98.5613 81.2617H33.4387C30.4225 81.2617 28 78.8392 28 75.823V64.6367Z" fill="#5A4CDB"/>
<path d="M104 48.0117H54.125V64.6367H104V48.0117Z" fill="#885EDE"/>
<path d="M77.875 31.3867H28V48.0117H77.875V31.3867Z" fill="#C689E6"/>
<path d="M54.125 48.0117H28V64.6367H54.125V48.0117ZM77.875 31.3867H98.5613C99.2755 31.3867 99.9827 31.5274 100.643 31.8007C101.302 32.074 101.902 32.4747 102.407 32.9797C102.912 33.4847 103.313 34.0843 103.586 34.7442C103.859 35.404 104 36.1112 104 36.8255V48.0117H77.875V31.3867Z" fill="#AA72E1"/>
<path d="M28 59.1914V64.6302H33.4387C30.4225 64.6302 28 62.2077 28 59.1914Z" fill="#5A4CDB"/>
<path d="M28 42.5664V48.0052H33.4387C30.4225 48.0052 28 45.5827 28 42.5664Z" fill="#AA72E1"/>
<path d="M28 25.9414V31.3802H33.4387C30.4225 31.3802 28 28.9577 28 25.9414Z" fill="#C689E6"/>
<path style="mix-blend-mode:soft-light" d="M98.5613 31.3802H33.415C30.4225 31.3802 28 28.9577 28 25.9414V75.8164C28 78.8327 30.4225 81.2552 33.4387 81.2552H98.5613C100.004 81.2552 101.387 80.6821 102.407 79.6622C103.427 78.6422 104 77.2589 104 75.8164V36.8189C104 35.3765 103.427 33.9931 102.407 32.9731C101.387 31.9532 100.004 31.3802 98.5613 31.3802Z" fill="url(#paint1_linear_2201_6007)"/>
<defs>
<linearGradient id="paint0_linear_2201_6007" x1="26.9265" y1="21.8946" x2="69.1635" y2="58.5527" gradientUnits="userSpaceOnUse">
<stop stop-color="#5A4CDB"/>
<stop offset="1" stop-color="#AD58DB"/>
</linearGradient>
<linearGradient id="paint1_linear_2201_6007" x1="28" y1="25.9414" x2="112.144" y2="62.5235" gradientUnits="userSpaceOnUse">
<stop stop-color="#FCCEF5"/>
<stop offset="1" stop-color="#5A4CDB"/>
</linearGradient>
</defs>
</svg>
