<svg width="132" height="88" viewBox="0 0 132 88" fill="none" xmlns="http://www.w3.org/2000/svg">
<path fill-rule="evenodd" clip-rule="evenodd" d="M51.6602 11.8242C41.8096 11.8242 33.8242 19.9873 33.8242 30.057V35.062C33.8242 37.0362 35.3897 38.6367 37.3212 38.6367H39.7696C41.701 38.6367 43.2666 37.0362 43.2666 35.062V30.057C43.2666 25.9105 47.6042 22.192 51.6602 22.192H56.556C58.4884 22.192 60.054 20.5912 60.054 18.6169V15.3992C60.054 13.4249 58.4884 11.8242 56.556 11.8242H51.6602ZM80.3383 76.1742C90.1888 76.1742 98.1742 68.0117 98.1742 57.9414V52.9364C98.1742 50.9625 96.6086 49.362 94.6773 49.362H92.229C90.2974 49.362 88.7318 50.9625 88.7318 52.9364V57.9414C88.7318 62.0882 84.3953 65.8067 80.3383 65.8067H75.4416C73.5111 65.8067 71.9444 67.4083 71.9444 69.3823V72.5998C71.9444 74.5746 73.5111 76.1742 75.4416 76.1742H80.3383ZM80.3383 11.8242C90.1888 11.8242 98.1742 19.9873 98.1742 30.057V35.062C98.1742 37.0362 96.6086 38.6367 94.6773 38.6367H91.5299C89.5975 38.6367 88.0319 37.0362 88.0319 35.062V30.057C88.0319 25.9105 84.3953 21.4768 80.3383 21.4768H75.4416C73.5111 21.4768 71.9444 19.8762 71.9444 17.9018V15.3992C71.9444 13.4249 73.5111 11.8242 75.4416 11.8242H80.3383ZM33.8242 57.9414C33.8242 68.0117 41.8096 76.1742 51.6602 76.1742H56.556C58.4884 76.1742 60.054 74.5746 60.054 72.5998V70.097C60.054 68.1222 58.4884 66.5214 56.556 66.5214H51.6602C47.6042 66.5214 43.9664 62.0882 43.9664 57.9414V52.9364C43.9664 50.9625 42.4009 49.362 40.4693 49.362H37.3212C35.3897 49.362 33.8242 50.9625 33.8242 52.9364V57.9414Z" fill="black"/>
</svg>
