<svg width="132" height="88" viewBox="0 0 132 88" fill="none" xmlns="http://www.w3.org/2000/svg">
<mask id="mask0_2056_21331" style="mask-type:luminance" maskUnits="userSpaceOnUse" x="34" y="12" width="64" height="64">
<path d="M34.0156 12.0156H97.9852V75.9852H34.0156V12.0156Z" fill="white"/>
</mask>
<g mask="url(#mask0_2056_21331)">
<path d="M92.3397 33.8827C90.7042 32.115 88.7762 30.644 86.6392 29.5344C85.8387 24.8872 83.5146 20.6381 80.0345 17.4567C76.2051 13.9498 71.1996 12.0081 66.007 12.0156C60.8156 12.01 55.8109 13.9515 51.9818 17.4567C48.5014 20.6388 46.1773 24.8874 45.3749 29.5344C43.2399 30.6459 41.3108 32.1166 39.6746 33.8827C36.1212 37.725 34.1072 42.7424 34.0192 47.9756C33.8993 53.2146 35.7214 58.3129 39.1328 62.2905C41.0869 64.5708 43.5117 66.4028 46.2384 67.6604C48.9661 68.9177 51.9336 69.5703 54.9372 69.5763C57.3432 69.5763 59.6809 69.1635 61.89 68.385C61.89 68.385 61.8369 75.9855 61.89 75.9855L69.9822 72.4759L70.0501 68.355C72.274 69.1567 74.6409 69.5763 77.0689 69.5763C83.1261 69.5763 88.8851 66.9217 92.8674 62.2905C96.2788 58.3129 98.1009 53.2146 97.981 47.9756C97.9049 42.7432 95.8949 37.7239 92.3397 33.8843V33.8827ZM85.9377 56.1725C84.8891 57.4023 83.5966 58.4006 82.1413 59.1038C80.686 59.8067 79.1009 60.1996 77.4866 60.2568C75.8713 60.314 74.2623 60.0349 72.7608 59.4365C71.2595 58.8384 69.8991 57.9345 68.7667 56.7819C67.7063 55.7072 66.8595 54.4411 66.2719 53.0505C66.2499 52.9963 66.213 52.9501 66.1641 52.9179C66.1151 52.8855 66.0579 52.8684 66.0002 52.8692C65.941 52.8687 65.8841 52.886 65.8363 52.9185C65.787 52.9512 65.7502 52.9979 65.7282 53.0521C65.1424 54.4439 64.2949 55.7105 63.2334 56.7839C62.1499 57.8861 60.8574 58.7614 59.4312 59.3584C58.0059 59.9557 56.4755 60.2626 54.9292 60.2612C53.244 60.2601 51.5789 59.8944 50.0485 59.1885C48.5173 58.4825 47.158 57.4538 46.0624 56.1725C42.1344 51.6166 42.2783 44.6668 46.3723 40.2638C48.4425 38.0223 51.3099 36.6825 54.3575 36.532C54.4015 36.5298 54.4447 36.5177 54.4834 36.4968C54.5225 36.4757 54.5566 36.4462 54.5824 36.4105C54.6086 36.3745 54.6253 36.3332 54.6336 36.2898C54.6416 36.2463 54.6394 36.2015 54.6275 36.1589C53.579 32.0383 54.7483 27.4609 58.1357 24.3707C60.2826 22.4122 63.0865 21.3282 65.993 21.3321C68.8998 21.3282 71.7023 22.4122 73.8503 24.3707C75.4486 25.8334 76.619 27.7029 77.2358 29.7791C77.8535 31.8557 77.8956 34.0606 77.3566 36.1589C77.3456 36.2018 77.3436 36.2463 77.3516 36.2898C77.3607 36.3332 77.3777 36.3742 77.4036 36.4097C77.4297 36.4454 77.4635 36.4748 77.5026 36.496C77.5416 36.5172 77.5845 36.5296 77.6285 36.532C80.6761 36.6825 83.5427 38.0223 85.6137 40.2638C89.7239 44.6668 89.8658 51.6183 85.9377 56.1725Z" fill="#0EF275"/>
</g>
</svg>
