<svg width="132" height="88" viewBox="0 0 132 88" fill="none" xmlns="http://www.w3.org/2000/svg">
<path d="M59.5275 83.1489C58.0421 81.6814 49.5559 79.7665 48.6228 80.6882C47.3702 81.9257 46.1843 81.6675 46.7252 80.275C47.26 78.8982 38.2324 69.7488 36.3113 69.7206C35.6006 69.7101 35.3566 69.1803 35.6795 68.3488C35.969 67.6036 35.8033 65.5172 35.3113 63.7121C34.5325 60.8551 34.0961 60.4303 31.9399 60.4303C28.4954 60.4303 27.8744 58.9125 31.1862 58.5881C33.3439 58.3767 33.9519 57.8935 34.1712 56.2152C34.3225 55.056 34.6245 53.1259 34.8421 51.9261C35.1918 49.9982 34.8715 49.6553 32.0867 48.9755C30.3537 48.5525 29.0701 47.827 29.2343 47.3633C29.3986 46.8997 29.7898 46.5859 30.1036 46.666C35.4186 48.0237 34.929 48.4308 36.5054 41.3432C38.1324 34.0287 40.4283 30.4265 45.0207 27.9833C47.5982 26.612 48.0041 26.0193 47.6017 24.2143C46.4802 19.1828 47.1654 19.471 36.4152 19.5085C24.2546 19.5508 23.6021 18.8309 30.0383 12.4726C35.6744 6.90476 40.4106 4.63169 47.4101 4.1353C52.4023 3.78127 53.6549 4.01836 57.8353 6.10959C60.4486 7.41675 62.7741 8.96881 63.0032 9.55859C63.5318 10.9194 59.2132 13.9896 53.6931 16.1773C49.4686 17.8515 49.4265 17.905 49.716 21.2355C50.115 25.8246 50.3865 26.0791 54.4231 25.6458C59.5083 25.1 72.8017 27.3378 76.1833 29.3089C77.7723 30.235 79.1466 30.8825 79.2374 30.7478C81.177 27.8668 83.1241 23.7157 83.1241 22.4618C83.1241 21.479 83.8807 20.6578 85.0442 20.3774C87.1999 19.8579 104.227 21.1413 104.974 21.8795C105.239 22.1408 105.655 23.8244 105.898 25.6207C106.464 29.7875 104.616 31.7437 101.613 30.1561C100.549 29.5938 97.255 29.0624 94.2921 28.9752C89.328 28.8293 88.7654 28.9975 87.1309 31.131L85.3571 33.4453L87.4985 35.7676C91.4496 40.0523 92.4375 42.4654 92.9903 49.1815C93.2895 52.8182 93.9743 56.0632 94.512 56.3926C95.1929 56.8098 95.0412 57.3215 94.0118 58.0787C93.199 58.6765 92.2844 60.4206 91.9794 61.9544C91.5061 64.3333 91.6925 64.8123 93.2479 65.2141C94.2507 65.4732 95.0712 66.0275 95.0712 66.4459C95.0712 66.8644 94.1427 66.9764 93.0079 66.6951C90.4683 66.0654 88.3238 69.0312 89.9332 70.9471C90.5908 71.7298 90.6092 72.2524 89.9925 72.6289C89.5003 72.9295 89.0977 72.8971 89.0977 72.557C89.0977 71.5801 84.8344 75.7944 84.7997 76.8056C84.7826 77.3044 82.9585 78.8505 80.7462 80.2415C77.1431 82.5071 75.9921 82.7762 69.7003 82.8244C65.8374 82.8541 62.4133 83.1385 62.0912 83.4567C61.2739 84.2641 60.571 84.1798 59.5275 83.1489ZM73.4529 79.3358C73.7947 78.4556 74.6035 78.166 75.8534 78.4759C78.6314 79.1647 81.9085 75.5577 80.6372 73.2107C79.3611 70.8554 79.4772 69.7037 80.9907 69.7037C81.7189 69.7037 82.2708 70.4608 82.2708 71.46C82.2708 72.4916 82.7109 73.0704 83.3374 72.8627C83.9242 72.6682 84.407 71.8496 84.4107 71.0435C84.4142 70.2375 85.0862 69.2079 85.904 68.7559C86.7218 68.3037 87.391 67.0626 87.391 65.9976C87.391 64.9328 88.0164 62.8229 88.7808 61.309C89.9507 58.9925 89.9844 58.4276 88.9942 57.7431C88.0845 57.1142 88.0596 56.8329 88.8843 56.5022C89.8031 56.1339 90.507 50.3139 89.6328 50.3139C89.4578 50.3139 87.5491 51.0854 85.3911 52.0285C81.704 53.6398 80.734 53.6914 69.2793 52.8877C62.5757 52.4175 55.0203 51.4252 52.4897 50.6829C47.7762 49.3 41.3094 45.6085 41.3094 44.3007C41.3094 43.8986 40.9527 43.5697 40.5166 43.5697C39.5477 43.5697 37.0426 51.8034 37.0426 54.9875C37.0426 56.256 37.7146 57.7978 38.536 58.4138C39.448 59.0977 39.6141 59.5441 38.9627 59.5605C37.7702 59.5905 37.5447 62.7932 38.6173 64.4633C39.0005 65.0599 39.9519 65.3032 40.7376 65.0053C42.2693 64.4247 42.7331 65.8837 41.2958 66.7613C40.047 67.5238 42.5859 71.4276 45.7951 73.6795C47.8069 75.0912 48.7363 75.3194 49.5977 74.6132C50.2246 74.0992 50.8243 73.8275 50.9303 74.0094C51.0363 74.1914 51.5387 75.0831 52.0467 75.9908C53.3669 78.35 58.4172 79.5296 59.7113 77.7811C61.002 76.0374 61.4987 76.0994 62.0201 78.0687C62.6827 80.572 72.548 81.6654 73.4529 79.3358ZM62.6434 71.0384C62.6434 70.3043 63.2514 69.7037 63.9945 69.7037C64.7378 69.7037 65.1937 70.1541 65.008 70.7048C64.4805 72.2679 62.6434 72.5271 62.6434 71.0384ZM57.31 62.7955C58.3399 61.778 59.44 61.1998 59.7546 61.5105C60.5848 62.3307 58.4052 64.6454 56.8025 64.6454C55.7053 64.6454 55.8049 64.2823 57.31 62.7955ZM74.5905 62.0666C74.5905 60.562 74.946 59.7048 75.4438 60.0088C75.9132 60.2954 76.2973 61.4558 76.2973 62.5876C76.2973 63.7195 75.9132 64.6454 75.4438 64.6454C74.9745 64.6454 74.5905 63.485 74.5905 62.0666ZM44.3681 62.2313C43.7134 61.1849 46.9924 58.4673 48.0965 59.1415C48.603 59.4508 48.7978 60.0549 48.5294 60.484C47.7008 61.8084 44.8519 63.0047 44.3681 62.2313ZM40.4561 56.3505C40.4561 55.0862 44.9009 53.5248 45.845 54.4574C46.4261 55.0315 45.948 55.5947 44.3796 56.1839C41.5596 57.2429 40.4561 57.2898 40.4561 56.3505ZM64.3501 49.4501C64.3501 48.2405 61.3519 47.2807 55.5297 46.6265C49.991 46.0042 46.0562 44.3353 45.253 42.2674C44.0124 39.0737 44.717 35.2663 46.8562 33.6039C49.1669 31.8084 49.6636 30.0813 47.8693 30.0813C45.8971 30.0813 42.2278 34.6473 42.0184 37.3619C41.6012 42.7713 46.8813 46.772 57.5233 49.11C63.6196 50.4494 64.3501 50.4858 64.3501 49.4501ZM74.7843 41.5829L76.937 35.3809L72.4887 33.9955C67.0937 32.3156 55.1043 32.1276 52.9425 33.6891C51.7113 34.5785 51.6078 35.1803 52.3527 37.1161C52.8498 38.4076 53.2564 40.5354 53.2564 41.8446C53.2564 44.4427 53.6032 44.5753 63.4968 45.758C66.0783 46.0665 68.7663 46.6373 69.4703 47.0263C71.9745 48.4099 72.6574 47.7105 74.7843 41.5829ZM76.7239 47.1397C77.4552 46.609 79.089 43.0371 84.2324 30.7252C84.9075 29.1094 84.9268 28.1528 84.297 27.5306C83.2314 26.4779 78.8502 34.1317 76.2586 41.5728C74.0856 47.8125 74.1834 48.9836 76.7239 47.1397ZM87.8527 46.8858C88.7711 45.4177 87.7251 45.1068 86.5546 46.5C85.8816 47.3012 85.8168 47.7849 86.3827 47.7849C86.8818 47.7849 87.5433 47.3803 87.8527 46.8858ZM83.9775 43.5898C83.9775 41.888 82.6412 40.5693 82.0211 41.6591C81.8188 42.0145 81.3959 43.3683 81.0812 44.6677C80.5546 46.842 80.6473 46.9571 82.2432 46.1133C83.1971 45.609 83.9775 44.4735 83.9775 43.5898ZM86.1723 38.7595C84.9651 37.4735 83.9775 36.8915 83.9775 37.4663C83.9775 38.0412 84.2998 38.5115 84.6939 38.5115C85.0879 38.5115 85.9062 39.5547 86.5125 40.8298C87.1196 42.1069 87.7837 42.6877 87.9909 42.123C88.1978 41.5592 87.3795 40.0456 86.1723 38.7595ZM50.005 38.9331C49.6601 36.0141 48.6006 35.0277 47.9337 37.0044C47.3562 38.7158 48.2721 41.8837 49.3444 41.8837C49.9954 41.8837 50.2299 40.8361 50.005 38.9331ZM61.6039 30.0813C69.448 30.0813 70.6556 28.6565 63.0701 28.3512C54.2179 27.9949 51.5497 28.3187 51.5497 29.7499C51.5497 30.6389 52.0138 30.9287 52.8996 30.593C53.642 30.3116 57.5589 30.0813 61.6039 30.0813ZM72.6527 30.4149C72.3691 30.1348 71.6331 30.105 71.017 30.3484C70.3363 30.6176 70.5385 30.8173 71.5326 30.8577C72.4322 30.8943 72.9362 30.6951 72.6527 30.4149ZM98.8503 26.2274C100.948 24.1554 100.502 22.4955 97.8446 22.4825C96.5539 22.476 94.6338 22.2423 93.5778 21.9626C91.8939 21.5168 91.6577 21.7704 91.6577 24.0257C91.6577 26.1837 92.035 26.6536 94.0044 26.9483C95.2952 27.1414 96.6118 27.3563 96.9303 27.4258C97.2488 27.4953 98.1128 26.956 98.8503 26.2274ZM103.605 26.3373C103.605 26.1327 103.221 25.7311 102.751 25.4445C102.282 25.158 101.898 25.3253 101.898 25.8163C101.898 26.3073 102.282 26.7091 102.751 26.7091C103.221 26.7091 103.605 26.5418 103.605 26.3373ZM37.0426 16.9806C37.0426 16.2667 37.8374 14.1434 38.8088 12.2623C39.7804 10.3811 40.374 8.64336 40.1282 8.40056C39.6254 7.90386 34.0843 12.0698 31.5297 14.8652C30.1041 16.4251 30.0411 16.8107 31.103 17.4743C33.1697 18.7657 37.0426 18.4438 37.0426 16.9806ZM47.2829 16.2431C48.9257 15.6578 50.3941 14.5475 50.5461 13.7757C50.9206 11.8744 46.0809 7.18095 44.4022 7.81734C43.0875 8.3157 39.6027 14.5745 39.6027 16.4373C39.6027 17.7123 43.4318 17.6154 47.2829 16.2431ZM56.8766 12.2319C59.9552 10.7599 59.8394 9.60476 56.4531 8.00953C53.1009 6.43036 48.1363 5.27668 48.1363 6.07688C48.1363 6.39454 49.0963 7.78155 50.2697 9.15916C51.4431 10.5367 52.4031 12.2444 52.4031 12.9539C52.4031 14.2654 52.7361 14.2117 56.8766 12.2319Z" fill="#1C2541"/>
</svg>
