<svg width="132" height="88" viewBox="0 0 132 88" fill="none" xmlns="http://www.w3.org/2000/svg">
<path d="M81.6774 29.9606C85.07 29.9606 88.2288 31.2475 90.5684 33.3533C92.0893 34.6402 94.4291 33.5873 94.4291 31.4814V18.3786C94.4291 15.8048 92.3235 13.582 89.6326 13.582H42.2517C39.5609 13.582 37.4551 15.6879 37.4551 18.3786V69.7371C37.4551 72.3109 39.5609 74.4168 42.2517 74.4168H89.7497C92.3235 74.4168 94.5462 72.3109 94.5462 69.6202V56.5174C94.5462 54.5284 92.2064 53.3586 90.6855 54.6455C88.2288 56.7514 85.1871 58.0383 81.7943 58.0383C74.0731 58.0383 67.8725 51.7209 67.8725 43.9994C67.8725 36.2782 74.0731 29.9606 81.6774 29.9606Z" fill="#EE5A29"/>
</svg>
