<svg width="132" height="88" viewBox="0 0 132 88" fill="none" xmlns="http://www.w3.org/2000/svg">
<path fill-rule="evenodd" clip-rule="evenodd" d="M64.4797 14.7597C65.4018 14.1478 66.5997 14.1478 67.5219 14.7597L94.4669 32.6378C95.2374 33.149 95.7008 34.0133 95.7008 34.9393V53.0623C95.7008 53.9883 95.2374 54.8526 94.4669 55.3638L67.5219 73.2419C66.5997 73.8537 65.4018 73.8537 64.4797 73.2419L37.5347 55.3638C36.7641 54.8526 36.3008 53.9883 36.3008 53.0623V34.9393C36.3008 34.0133 36.7641 33.149 37.5347 32.6378L64.4797 14.7597ZM63.2458 22.1999L44.0221 34.9549L52.5283 40.6761L63.2458 33.4676V22.1999ZM66.0008 38.2639L57.4713 44.0008L66.0008 49.7376L74.5302 44.0008L66.0008 38.2639ZM79.4733 47.3254L68.7558 54.534V65.8017L87.9795 53.0467L79.4733 47.3254ZM90.1908 47.8846L84.4163 44.0008L90.1908 40.1169V47.8846ZM87.9795 34.9549L79.4733 40.6761L68.7558 33.4676V22.1999L87.9795 34.9549ZM63.2458 65.8017V54.534L52.5283 47.3254L44.0221 53.0467L63.2458 65.8017ZM41.8108 47.8846L47.5852 44.0008L41.8108 40.1169V47.8846Z" fill="#1C2039"/>
</svg>
