<svg width="132" height="88" viewBox="0 0 132 88" fill="none" xmlns="http://www.w3.org/2000/svg">
<path d="M66.0004 78.0984C84.8333 78.0984 100.1 62.8313 100.1 43.9984C100.1 25.1655 84.8333 9.89844 66.0004 9.89844C47.1675 9.89844 31.9004 25.1655 31.9004 43.9984C31.9004 62.8313 47.1675 78.0984 66.0004 78.0984Z" fill="#81C8E8"/>
<path fill-rule="evenodd" clip-rule="evenodd" d="M51.7012 36.2348C51.7012 30.6858 56.7993 26.1875 63.0881 26.1875H74.3297V31.6679H63.0881C60.2296 31.6679 57.9122 33.7126 57.9122 36.2348V51.7625C57.9122 54.2847 60.2296 56.3295 63.0881 56.3295H74.3297V61.8098H63.0881C56.7993 61.8098 51.7012 57.3115 51.7012 51.7625V36.2348Z" fill="white"/>
</svg>
