<svg width="132" height="88" viewBox="0 0 132 88" fill="none" xmlns="http://www.w3.org/2000/svg">
<path fill-rule="evenodd" clip-rule="evenodd" d="M63.0761 7.8747C52.0142 8.79814 42.0092 14.6775 35.8575 23.8691C27.6473 36.1367 27.6464 51.9151 35.855 64.2073C39.2038 69.2219 43.7564 73.3078 49.1944 76.179C59.5987 81.6726 72.4068 81.6726 82.8111 76.179C92.7179 70.9483 99.5431 61.756 101.654 50.8013C103.948 38.8902 100.039 26.5239 91.3051 18.0671C89.3943 16.2169 88.1913 15.2386 86.1951 13.9118C80.813 10.3345 75.1409 8.39162 68.508 7.8535C65.9276 7.64421 65.8317 7.64457 63.0761 7.8747ZM63.947 29.2782C61.2623 33.6822 60.4011 35.2017 57.3954 40.8395C55.0431 45.2518 54.2407 48.5527 54.7292 51.8067C55.4549 56.6392 58.4212 60.158 63.0761 61.7079C63.7959 61.9475 64.6287 62.0428 66.0028 62.0428C68.9733 62.0428 71.3457 61.0924 73.5658 59.0132C75.6432 57.0677 76.8334 54.756 77.2763 51.8067C77.7648 48.5527 76.9624 45.2518 74.6101 40.8395C73.0257 37.8675 71.4765 35.031 70.7224 33.7203C69.1337 30.9594 66.1297 26.1251 66.0028 26.1251C65.9292 26.1251 65.004 27.5441 63.947 29.2782Z" fill="#3045D6"/>
</svg>
