<svg width="132" height="88" viewBox="0 0 132 88" fill="none" xmlns="http://www.w3.org/2000/svg">
<rect width="69.85" height="69.85" transform="translate(31.0752 9.07422)" fill="#EB4C4C"/>
<path fill-rule="evenodd" clip-rule="evenodd" d="M51.657 31.4276C46.3379 31.9774 42.5705 35.2735 41.5321 40.2857C41.1577 42.0931 41.1556 45.655 41.528 47.6078C42.3542 51.9421 45.4333 55.2053 49.7249 56.2945C51.5446 56.7565 55.1009 56.767 56.8453 56.3154C61.2399 55.1782 64.4905 51.6875 64.788 47.7864L64.9 46.319H61.4668H58.0336L57.9007 47.0445C57.6034 48.6692 56.4165 50.109 54.9895 50.576C54.5941 50.7054 53.7106 50.7761 53.026 50.7327C51.297 50.6236 50.337 49.9494 49.468 48.2341C48.7048 46.7276 48.4444 44.8002 48.6933 42.4976C49.0614 39.0895 50.8226 37.2177 53.6491 37.2303C55.8438 37.2401 57.3402 38.6163 57.9044 41.1437L58.0232 41.6757H61.4334H64.8436V40.8458C64.8436 36.823 61.3731 32.8264 56.9429 31.7472C55.4066 31.373 53.3733 31.2502 51.657 31.4276Z" fill="black" fill-opacity="0.991"/>
<path fill-rule="evenodd" clip-rule="evenodd" d="M77.5075 31.4276C72.1885 31.9774 68.4211 35.2735 67.3827 40.2857C67.0083 42.0931 67.0062 45.655 67.3786 47.6078C68.2047 51.9421 71.2839 55.2053 75.5755 56.2945C77.3952 56.7565 80.9515 56.767 82.6959 56.3154C87.0905 55.1782 90.3411 51.6875 90.6386 47.7864L90.7506 46.319H87.3174H83.8841L83.7513 47.0445C83.454 48.6692 82.2671 50.109 80.8401 50.576C80.4447 50.7054 79.5612 50.7761 78.8766 50.7327C77.1476 50.6236 76.1876 49.9494 75.3186 48.2341C74.5554 46.7276 74.295 44.8002 74.5439 42.4976C74.912 39.0895 76.6732 37.2177 79.4997 37.2303C81.6944 37.2401 83.1908 38.6163 83.755 41.1437L83.8738 41.6757H87.284H90.6942V40.8458C90.6942 36.823 87.2237 32.8264 82.7934 31.7472C81.2572 31.373 79.2239 31.2502 77.5075 31.4276Z" fill="black" fill-opacity="0.991"/>
</svg>
