<svg width="132" height="88" viewBox="0 0 132 88" fill="none" xmlns="http://www.w3.org/2000/svg">
<rect x="29" y="7" width="74" height="74" rx="6.13109" fill="url(#paint0_linear_2201_6011)"/>
<path d="M59.3298 68.7014C45.6394 68.7014 36.7695 59.0168 36.7695 44.0318C36.7695 29.1778 45.9608 19.2969 59.7155 19.2969C70.8349 19.2969 79.1263 25.906 80.7332 36.1795H72.0562C70.4493 30.6174 65.7573 27.3456 59.5227 27.3456C50.8456 27.3456 45.3823 33.7583 45.3823 43.9664C45.3823 54.109 50.9099 60.6527 59.5227 60.6527C65.8858 60.6527 70.7707 57.25 72.3132 51.9496H80.8617C79.0621 62.0269 70.4493 68.7014 59.3298 68.7014Z" fill="black"/>
<path d="M90.0233 67.227C87.1952 67.227 84.8171 64.8712 84.8171 62.0575C84.8171 59.1783 87.1952 56.8226 90.0233 56.8226C92.8514 56.8226 95.2295 59.1783 95.2295 62.0575C95.2295 64.8712 92.8514 67.227 90.0233 67.227Z" fill="black"/>
<defs>
<linearGradient id="paint0_linear_2201_6011" x1="31.5227" y1="69.4375" x2="100.057" y2="14.358" gradientUnits="userSpaceOnUse">
<stop stop-color="#FEA4FF"/>
<stop offset="0.518887" stop-color="#D2CCFD"/>
<stop offset="1" stop-color="#5C9AEA"/>
</linearGradient>
</defs>
</svg>
