<svg width="132" height="88" viewBox="0 0 132 88" fill="none" xmlns="http://www.w3.org/2000/svg">
<path d="M66 77C84.2254 77 99 62.2254 99 44C99 25.7746 84.2254 11 66 11C47.7746 11 33 25.7746 33 44C33 62.2254 47.7746 77 66 77Z" fill="url(#paint0_linear_2056_22398)"/>
<path fill-rule="evenodd" clip-rule="evenodd" d="M47.5394 43.6893C47.5394 33.6654 55.6654 25.5394 65.6893 25.5394C70.5969 25.5394 75.047 27.4852 78.3153 30.6507C78.9081 31.225 79.8544 31.2099 80.4288 30.6168C81.0031 30.024 80.9879 29.0777 80.3951 28.5034C76.5917 24.8196 71.4041 22.55 65.6893 22.55C54.0144 22.55 44.55 32.0144 44.55 43.6893C44.55 55.3642 54.0144 64.8286 65.6893 64.8286C71.4041 64.8286 76.5917 62.559 80.3951 58.8752C80.9879 58.3009 81.0031 57.3546 80.4288 56.7618C79.8544 56.1688 78.9081 56.1536 78.3153 56.7279C75.047 59.8935 70.5969 61.8393 65.6893 61.8393C55.6654 61.8393 47.5394 53.7132 47.5394 43.6893ZM56.201 36.1477V45.5043C56.201 47.4886 56.8009 49.0807 58.0008 50.2806C59.216 51.4803 60.7697 52.0802 62.6617 52.0802C64.5384 52.0802 66.0843 51.4803 67.2995 50.2806C68.5148 49.0807 69.1225 47.4886 69.1225 45.5043V36.1477H66.0074V45.735C66.0074 46.8271 65.6999 47.6808 65.0844 48.2961C64.4846 48.896 63.677 49.196 62.6617 49.196C61.6618 49.196 60.8543 48.896 60.239 48.2961C59.6237 47.6808 59.316 46.8271 59.316 45.735V36.1477H56.201ZM71.6415 36.1477V51.8033H74.7565V36.1477H71.6415Z" fill="white"/>
<path d="M56.201 36.1477L56.2009 35.9002C56.0643 35.9002 55.9534 36.0109 55.9534 36.1477L56.201 36.1477ZM69.1225 36.1477L69.3699 36.1477C69.3699 36.0109 69.259 35.9002 69.1224 35.9002L69.1225 36.1477ZM66.0074 36.1477L66.0073 35.9002C65.8707 35.9002 65.7598 36.0109 65.7598 36.1477L66.0074 36.1477ZM60.239 48.2961L60.0639 48.4712L60.0662 48.4733L60.239 48.2961ZM59.316 36.1477L59.5634 36.1477C59.5634 36.0109 59.4527 35.9002 59.3159 35.9002L59.316 36.1477ZM71.6415 51.8033L71.3939 51.8034C71.3939 51.9402 71.5048 52.0509 71.6414 52.0509L71.6415 51.8033ZM71.6415 36.1477L71.6414 35.9002C71.5048 35.9002 71.3939 36.0109 71.3939 36.1477L71.6415 36.1477ZM74.7565 51.8033L74.7564 52.0509C74.8931 52.0509 75.0039 51.9402 75.0039 51.8034L74.7565 51.8033ZM74.7565 36.1477L75.0039 36.1477C75.0039 36.0109 74.8931 35.9002 74.7564 35.9002L74.7565 36.1477ZM65.6892 25.2919C55.5287 25.2919 47.2918 33.5288 47.2918 43.6893H47.7868C47.7868 33.802 55.8019 25.7869 65.6892 25.7869V25.2919ZM78.4873 30.473C75.1747 27.2645 70.6636 25.2919 65.6892 25.2919V25.7869C70.53 25.7869 74.919 27.7059 78.1429 30.8284L78.4873 30.473ZM80.2509 30.4448C79.7716 30.9395 78.9821 30.9522 78.4873 30.473L78.1429 30.8284C78.8341 31.498 79.9371 31.4803 80.6065 30.7891L80.2509 30.4448ZM80.2227 28.6811C80.7176 29.1604 80.7301 29.9499 80.2509 30.4448L80.6065 30.7891C81.2759 30.098 81.2583 28.9951 80.5671 28.3257L80.2227 28.6811ZM65.6892 22.7975C71.3372 22.7975 76.4637 25.0403 80.2227 28.6811L80.5671 28.3257C76.7194 24.5989 71.4708 22.3025 65.6892 22.3025V22.7975ZM44.7974 43.6893C44.7974 32.151 54.1509 22.7975 65.6892 22.7975V22.3025C53.8777 22.3025 44.3024 31.8778 44.3024 43.6893H44.7974ZM65.6892 64.5811C54.1509 64.5811 44.7974 55.2276 44.7974 43.6893H44.3024C44.3024 55.501 53.8777 65.0761 65.6892 65.0761V64.5811ZM80.2227 58.6976C76.4637 62.3383 71.3372 64.5811 65.6892 64.5811V65.0761C71.4708 65.0761 76.7194 62.7797 80.5671 59.0531L80.2227 58.6976ZM80.2509 56.9339C80.7301 57.4287 80.7176 58.2182 80.2227 58.6976L80.5671 59.0531C81.2583 58.3836 81.2759 57.2807 80.6065 56.5895L80.2509 56.9339ZM78.4873 56.9058C78.9821 56.4265 79.7716 56.4392 80.2509 56.9339L80.6065 56.5895C79.9371 55.8983 78.8341 55.8809 78.1429 56.5503L78.4873 56.9058ZM65.6892 62.0868C70.6636 62.0868 75.1747 60.1141 78.4873 56.9058L78.1429 56.5503C74.919 59.6727 70.53 61.5918 65.6892 61.5918V62.0868ZM47.2918 43.6893C47.2918 53.8499 55.5287 62.0868 65.6892 62.0868V61.5918C55.8019 61.5918 47.7868 53.5766 47.7868 43.6893H47.2918ZM56.4484 45.5043V36.1477H55.9534V45.5043H56.4484ZM58.1758 50.1055C57.0302 48.9599 56.4484 47.435 56.4484 45.5043H55.9534C55.9534 47.5422 56.5716 49.2015 57.8256 50.4555L58.1758 50.1055ZM62.6616 51.8327C60.827 51.8327 59.3395 51.2546 58.1758 50.1055L57.8256 50.4555C59.0923 51.7062 60.7121 52.3277 62.6616 52.3277V51.8327ZM67.1255 50.1044C65.9614 51.2538 64.4802 51.8327 62.6616 51.8327V52.3277C64.5964 52.3277 66.207 51.707 67.4733 50.4566L67.1255 50.1044ZM68.8749 45.5043C68.8749 47.434 68.286 48.9586 67.1255 50.1044L67.4733 50.4566C68.7433 49.2028 69.3699 47.5432 69.3699 45.5043H68.8749ZM68.8749 36.1477V45.5043H69.3699V36.1477H68.8749ZM66.0073 36.3952H69.1224V35.9002H66.0073V36.3952ZM66.2548 45.735V36.1477H65.7598V45.735H66.2548ZM65.2594 48.4712C65.9322 47.7983 66.2548 46.8752 66.2548 45.735H65.7598C65.7598 46.7791 65.4671 47.5634 64.9094 48.1212L65.2594 48.4712ZM62.6616 49.4435C63.7287 49.4435 64.6042 49.1264 65.2594 48.4712L64.9094 48.1212C64.3647 48.6657 63.625 48.9485 62.6616 48.9485V49.4435ZM60.0662 48.4733C60.7352 49.1258 61.6086 49.4435 62.6616 49.4435V48.9485C61.715 48.9485 60.9732 48.6666 60.4117 48.1189L60.0662 48.4733ZM59.0684 45.735C59.0684 46.8752 59.391 47.7983 60.0639 48.4712L60.4138 48.1212C59.8561 47.5634 59.5634 46.7791 59.5634 45.735H59.0684ZM59.0684 36.1477V45.735H59.5634V36.1477H59.0684ZM56.2009 36.3952H59.3159V35.9002H56.2009V36.3952ZM71.8889 51.8034V36.1477H71.3939V51.8034H71.8889ZM74.7564 51.5559H71.6414V52.0509H74.7564V51.5559ZM74.5089 36.1477V51.8034H75.0039V36.1477H74.5089ZM71.6414 36.3952H74.7564V35.9002H71.6414V36.3952Z" fill="white"/>
<defs>
<linearGradient id="paint0_linear_2056_22398" x1="321.337" y1="43.5664" x2="34.9071" y2="43.5664" gradientUnits="userSpaceOnUse">
<stop stop-color="#489EDF"/>
<stop offset="1" stop-color="#55B4E8"/>
</linearGradient>
</defs>
</svg>
