<svg width="132" height="88" viewBox="0 0 132 88" fill="none" xmlns="http://www.w3.org/2000/svg">
<path d="M90.6698 42.6495C90.3481 41.5761 89.3829 40.7176 88.3108 40.503L72.8705 37.2833L77.481 8.41271C77.6955 7.01745 76.9449 5.62218 75.6581 4.97837C74.3715 4.33435 72.7631 4.7637 71.9052 5.83706L41.8828 41.5763C41.2394 42.435 40.9178 43.5081 41.2394 44.4741C41.561 45.5472 42.3116 46.2987 43.2768 46.6206L58.2881 51.6647L52.2836 79.4623C51.962 80.8574 52.7125 82.3597 53.9991 83.0037C54.4281 83.2187 54.9641 83.3258 55.5002 83.3258C56.3581 83.3258 57.3231 82.8963 57.8592 82.2526L90.1333 45.6547C90.8842 44.9034 91.0985 43.7228 90.6698 42.6495Z" fill="url(#paint0_linear_2056_26851)"/>
<defs>
<linearGradient id="paint0_linear_2056_26851" x1="59.2698" y1="4.67578" x2="106.097" y2="21.1124" gradientUnits="userSpaceOnUse">
<stop stop-color="#FC00FF"/>
<stop offset="1" stop-color="#00DBDE"/>
</linearGradient>
</defs>
</svg>
