<svg width="132" height="88" viewBox="0 0 132 88" fill="none" xmlns="http://www.w3.org/2000/svg">
<path fill-rule="evenodd" clip-rule="evenodd" d="M32.7246 43.9998V76.4508L39.2613 75.8165C44.5913 75.3013 46.1782 74.0004 47.8617 68.7724C48.996 65.2473 51.486 60.6313 53.3928 58.5142C55.8807 55.7528 56.8602 51.1712 56.8602 42.2928C56.8602 22.922 62.1721 15.4698 73.8799 18.4212C79.423 19.8191 80.7968 22.8371 83.0756 38.6101C84.3809 47.6562 86.2373 52.0277 90.7889 56.7911C94.0854 60.2414 98.627 65.7907 99.0976 69.1239C99.5682 72.457 98.9327 60.8677 99.0976 43.3675V11.5508H65.9111H32.7246V43.9998ZM62.3169 22.9058C59.6821 25.5501 60.8426 38.8768 64.115 43.5675C67.1481 47.9168 67.0696 48.4986 62.8539 53.0054C57.2343 59.0132 58.8414 64.0837 66.3516 64.0433C76.6293 63.9867 77.2388 62.504 75.5251 41.6968C74.0086 23.3017 73.7854 22.6412 68.8536 22.0634C66.0459 21.7341 63.1033 22.1139 62.3169 22.9058Z" fill="#03AFFD"/>
</svg>
