<svg width="132" height="88" viewBox="0 0 132 88" fill="none" xmlns="http://www.w3.org/2000/svg">
<path d="M55.8002 65.7658C54.3044 65.7658 52.87 66.3613 51.8123 67.4212C50.7546 68.4812 50.1604 69.9188 50.1604 71.4178V76.3481C50.1604 77.8471 50.7546 79.2847 51.8123 80.3447C52.87 81.4045 54.3044 82 55.8002 82C57.296 82 58.7305 81.4045 59.7882 80.3447C60.8459 79.2847 61.4401 77.8471 61.4401 76.3481V71.4178C61.4401 69.9188 60.8459 68.4812 59.7882 67.4212C58.7305 66.3613 57.296 65.7658 55.8002 65.7658Z" fill="#3742FA"/>
<path d="M102 42.076C102.004 45.9004 101.4 49.701 100.212 53.3354L100.204 53.3619C100.084 53.3738 99.9636 53.3799 99.8436 53.3799C99.652 53.3802 99.4606 53.3654 99.2713 53.3354C98.2405 53.1754 97.3176 52.5898 96.6193 51.7251C95.7902 50.7018 95.2801 49.2912 95.2801 47.7279V38.228C95.2801 36.7289 94.686 35.2914 93.6283 34.2314C92.5706 33.1715 91.1361 32.576 89.6403 32.576C88.1446 32.576 86.7101 33.1715 85.6524 34.2314C84.5947 35.2914 84.0005 36.7289 84.0005 38.228V60.8356C84.0005 61.5778 83.8546 62.3128 83.5713 62.9984C83.2878 63.6842 82.8724 64.3072 82.3486 64.8321C81.825 65.3569 81.2032 65.7733 80.519 66.0572C79.8348 66.3413 79.1013 66.4874 78.3608 66.4874C77.6201 66.4874 76.8867 66.3413 76.2025 66.0572C75.5182 65.7733 74.8965 65.3569 74.3728 64.8321C73.8491 64.3072 73.4336 63.6842 73.1503 62.9984C72.8668 62.3128 72.721 61.5778 72.721 60.8356V22.3545C72.721 20.8554 72.1268 19.4179 71.0691 18.358C70.0114 17.298 68.5768 16.7026 67.0811 16.7026C65.5853 16.7026 64.1509 17.298 63.0932 18.358C62.0355 19.4179 61.4413 20.8554 61.4413 22.3545V51.8166C61.4413 53.3155 60.8471 54.7532 59.7894 55.8131C58.7318 56.873 57.2972 57.4684 55.8015 57.4684C54.3057 57.4684 52.8712 56.873 51.8135 55.8131C50.7558 54.7532 50.1617 53.3155 50.1617 51.8166V38.8292C50.1617 37.3302 49.5675 35.8926 48.5098 34.8326C47.4521 33.7728 46.0177 33.1773 44.5218 33.1773C43.0261 33.1773 41.5916 33.7728 40.5339 34.8326C39.4762 35.8926 38.882 37.3302 38.882 38.8292V45.9241C38.882 49.0508 36.7065 51.5761 34.0222 51.5761C33.4004 51.5765 32.7861 51.4407 32.2223 51.178C31.7491 50.9581 31.3156 50.6611 30.9395 50.299C29.4305 43.7913 29.7441 36.9925 31.8455 30.652C31.8971 30.498 31.9499 30.3441 32.0027 30.1913C36.7809 16.462 49.5989 6.51829 64.8012 6.02044C65.1996 6.00601 65.5992 6 66.0011 6C81.585 6 94.8566 15.9233 99.8652 29.8102C99.8772 29.8414 99.888 29.8715 99.8988 29.9027C101.293 33.809 102.004 37.9273 102 42.076Z" fill="#3742FA"/>
</svg>
