<svg width="132" height="88" viewBox="0 0 132 88" fill="none" xmlns="http://www.w3.org/2000/svg">
<path d="M65.9195 6.60156L55.1841 12.7807L65.9195 19.1224L76.8174 12.7807" fill="#7CB5D4"/>
<path d="M55.1841 12.7807L44.4488 19.1224V31.4807L55.1841 25.3016L65.9195 19.1224" fill="#55BFD8"/>
<path d="M33.5508 25.3016V37.8224L44.4488 31.4807V19.1224" fill="#11B094"/>
<path d="M33.5508 37.8224V50.1807L44.4488 56.5224V31.4807" fill="#13AD4D"/>
<path d="M33.5508 50.1807V62.7016L44.4488 68.8807V56.5224" fill="#73C53E"/>
<path d="M55.1841 62.7016L44.4488 56.5224V68.8807L55.1841 75.2224L65.9195 68.8807" fill="#FFCA0A"/>
<path d="M87.5528 19.1224V31.4807L98.4508 37.8224V25.3016" fill="#0B2647"/>
<path d="M98.4508 37.8224L87.5528 31.4807V56.5224L98.4508 50.1807" fill="#5F0B46"/>
<path d="M76.8174 12.7807L65.9195 19.1224L76.8174 25.3016L87.5528 31.4807V19.1224" fill="#203F6B"/>
<path d="M65.9195 68.8807L55.1841 75.2224L65.9195 81.4016L76.8174 75.2224" fill="#F69B16"/>
<path d="M76.8174 62.7016L65.9195 68.8807L76.8174 75.2224L87.5528 68.8807V56.5224" fill="#D82F3B"/>
<path d="M87.5528 56.5224V68.8807L98.4508 62.7016V50.1807" fill="#A22F72"/>
<path d="M65.9195 19.1224V6.60156L55.1841 12.7807" fill="#A8DEF8"/>
<path d="M65.9195 19.1224L76.8174 12.7807L65.9195 6.60156" fill="#7CB5D4"/>
<path d="M55.1841 25.3016L44.4488 19.1224V31.4807" fill="#16B1CB"/>
<path d="M55.1841 12.7807V25.3016L65.9195 19.1224" fill="#79D0F2"/>
<path d="M44.4488 31.4807V19.1224L33.5508 25.3016" fill="#11B0B2"/>
<path d="M55.1841 25.3016V12.7807L44.4488 19.1224" fill="#55BFD8"/>
<path d="M44.4488 31.4807L33.5508 37.8224L44.4488 44.0016" fill="#12AF64"/>
<path d="M44.4488 44.0016L33.5508 50.1807L44.4488 56.5224" fill="#43B945"/>
<path d="M33.5508 37.8224L44.4488 31.4807L33.5508 25.3016" fill="#11B094"/>
<path d="M44.4488 68.8807V56.5224L33.5508 62.7016" fill="#ABD033"/>
<path d="M33.5508 50.1807L44.4488 44.0016L33.5508 37.8224" fill="#13AD4D"/>
<path d="M33.5508 62.7016L44.4488 56.5224L33.5508 50.1807" fill="#73C53E"/>
<path d="M65.9195 68.8807L55.1841 62.7016V75.2224" fill="#FBB70F"/>
<path d="M65.9195 81.4016L76.8174 75.2224L65.9195 68.8807" fill="#EF7520"/>
<path d="M55.1841 62.7016L44.4488 56.5224V68.8807" fill="#D6CD1E"/>
<path d="M55.1841 75.2224V62.7016L44.4488 68.8807" fill="#FFCA0A"/>
<path d="M98.4508 50.1807L87.5528 44.0016V56.5224" fill="#801D5C"/>
<path d="M76.8174 75.2224L87.5528 68.8807L76.8174 62.7016" fill="#ED2E26"/>
<path d="M98.4508 37.8224V25.3016L87.5528 31.4807" fill="#2E2047"/>
<path d="M98.4508 25.3016L87.5528 19.1224V31.4807" fill="#0B2647"/>
<path d="M87.5528 31.4807V44.0016L98.4508 37.8224" fill="#4E1951"/>
<path d="M76.8174 12.7807V25.3016L87.5528 19.1224" fill="#0F4F7B"/>
<path d="M98.4508 50.1807V37.8224L87.5528 44.0016" fill="#5F0B46"/>
<path d="M76.8174 25.3016V12.7807L65.9195 19.1224" fill="#36749B"/>
<path d="M87.5528 31.4807V19.1224L76.8174 25.3016" fill="#203F6B"/>
<path d="M76.8174 62.7016L65.9195 68.8807L76.8174 75.2224" fill="#EE4B24"/>
<path d="M98.4508 62.7016L87.5528 56.5224V68.8807" fill="#C42F50"/>
<path d="M65.9195 81.4016V68.8807L55.1841 75.2224" fill="#F69B16"/>
<path d="M87.5528 68.8807V56.5224L76.8174 62.7016" fill="#D82F3B"/>
<path d="M98.4508 62.7016V50.1807L87.5528 56.5224" fill="#A22F72"/>
</svg>
