<svg width="132" height="88" viewBox="0 0 132 88" fill="none" xmlns="http://www.w3.org/2000/svg">
<path fill-rule="evenodd" clip-rule="evenodd" d="M54.1886 8.15545V10.1468H52.1972H50.2058V12.1382V14.1296H48.2144H46.223V22.0952V30.0607H50.2058H54.1886V28.0693V26.0779H62.1541H70.1197V28.0693V30.0607H72.1111H74.1024V28.0693V26.0779H82.068H90.0335V20.1038V14.1296H88.0422H86.0508V12.1382V10.1468H84.0594H82.068V8.15545V6.16406H68.1283H54.1886V8.15545ZM58.1713 34.0435V38.0263H62.1541H66.1369V34.0435V30.0607H62.1541H58.1713V34.0435ZM78.0852 34.0435V38.0263H82.068H86.0508V34.0435V30.0607H82.068H78.0852V34.0435ZM42.2402 40.0177V45.9918H44.2316H46.223V63.9143V81.8368H56.1799H66.1369V77.854V73.8713H74.1024H82.068V71.8799V69.8885H84.0594H86.0508V67.8971V65.9057H88.0422H90.0335V53.9574V42.009H82.068H74.1024V38.0263V34.0435H72.1111H70.1197V38.0263V42.009H62.1541H54.1886V38.0263V34.0435H48.2144H42.2402V40.0177Z" fill="#B48A5A"/>
<path fill-rule="evenodd" clip-rule="evenodd" d="M54.1886 8.15545V10.1468H52.1972H50.2058V12.1382V14.1296H48.2144H46.223V22.0952V30.0607H48.2144H50.2058V28.0693V26.0779H52.1972H54.1886V24.0866V22.0952H56.1799H58.1713V20.1038V18.1124H70.1197H82.068V20.1038V22.0952H84.0594H86.0508V24.0866V26.0779H88.0422H90.0335V20.1038V14.1296H88.0422H86.0508V12.1382V10.1468H84.0594H82.068V8.15545V6.16406H68.1283H54.1886V8.15545ZM42.2402 40.0177V45.9918H44.2316H46.223V63.9143V81.8368H48.2144H50.2058V61.9229V42.009H48.2144H46.223V38.0263V34.0435H44.2316H42.2402V40.0177ZM58.1713 36.0349V38.0263H60.1627H62.1541V36.0349V34.0435H60.1627H58.1713V36.0349ZM78.0852 36.0349V38.0263H80.0766H82.068V36.0349V34.0435H80.0766H78.0852V36.0349ZM86.0508 53.9574V65.9057H84.0594H82.068V67.8971V69.8885H72.1111H62.1541V75.8626V81.8368H64.1455H66.1369V77.854V73.8713H74.1024H82.068V71.8799V69.8885H84.0594H86.0508V67.8971V65.9057H88.0422H90.0335V53.9574V42.009H88.0422H86.0508V53.9574ZM70.1197 47.9832V49.9746H74.1024H78.0852V47.9832V45.9918H74.1024H70.1197V47.9832ZM62.1541 55.9488V57.9402H64.1455H66.1369V59.9315V61.9229H72.1111H78.0852V59.9315V57.9402H72.1111H66.1369V55.9488V53.9574H64.1455H62.1541V55.9488Z" fill="black"/>
<path fill-rule="evenodd" clip-rule="evenodd" d="M58.2072 10.2578H54.2244V14.2769H50.3867V26.0442H54.2247V22.1337H58.2072V18.1509H81.9227V22.1336H86.0503V14.1681H81.9228V10.2578H58.2072Z" fill="#845B26"/>
</svg>
