<svg width="132" height="88" viewBox="0 0 132 88" fill="none" xmlns="http://www.w3.org/2000/svg">
<path d="M66.0004 78.0984C84.8333 78.0984 100.1 62.8313 100.1 43.9984C100.1 25.1655 84.8333 9.89844 66.0004 9.89844C47.1675 9.89844 31.9004 25.1655 31.9004 43.9984C31.9004 62.8313 47.1675 78.0984 66.0004 78.0984Z" fill="#111111"/>
<path d="M80.5384 33.2251C82.8302 33.2251 84.688 31.3672 84.688 29.0754C84.688 26.7837 82.8302 24.9258 80.5384 24.9258C78.2465 24.9258 76.3887 26.7837 76.3887 29.0754C76.3887 31.3672 78.2465 33.2251 80.5384 33.2251Z" fill="#415896"/>
<path d="M51.0761 62.6834C53.3671 62.6834 55.2244 60.8261 55.2244 58.535C55.2244 56.244 53.3671 54.3867 51.0761 54.3867C48.785 54.3867 46.9277 56.244 46.9277 58.535C46.9277 60.8261 48.785 62.6834 51.0761 62.6834Z" fill="#72615E"/>
<path d="M54.01 26.1403C52.3897 24.5219 49.7648 24.52 48.1425 26.1403C46.5228 27.7613 46.5228 30.3875 48.1425 32.0084C49.7628 33.6288 52.3897 33.6288 54.01 32.0084C55.6316 30.3875 55.629 27.7613 54.01 26.1403Z" fill="#41777D"/>
<path d="M80.5396 62.6847C82.8311 62.6847 84.6887 60.8271 84.6887 58.5357C84.6887 56.2442 82.8311 54.3867 80.5396 54.3867C78.2482 54.3867 76.3906 56.2442 76.3906 58.5357C76.3906 60.8271 78.2482 62.6847 80.5396 62.6847Z" fill="#71487D"/>
<path d="M65.8081 47.2958C67.7375 47.2958 69.3017 45.7316 69.3017 43.8022C69.3017 41.8727 67.7375 40.3086 65.8081 40.3086C63.8786 40.3086 62.3145 41.8727 62.3145 43.8022C62.3145 45.7316 63.8786 47.2958 65.8081 47.2958Z" fill="white"/>
<path d="M78.0277 34.8601C79.8368 34.8601 81.3035 33.3935 81.3035 31.5843C81.3035 29.7752 79.8368 28.3086 78.0277 28.3086C76.2185 28.3086 74.752 29.7752 74.752 31.5843C74.752 33.3935 76.2185 34.8601 78.0277 34.8601Z" fill="#5EB1E2"/>
<path d="M53.5876 59.3002C55.3964 59.3002 56.8627 57.8339 56.8627 56.0251C56.8627 54.2163 55.3964 52.75 53.5876 52.75C51.7788 52.75 50.3125 54.2163 50.3125 56.0251C50.3125 57.8339 51.7788 59.3002 53.5876 59.3002Z" fill="#D1CF62"/>
<path d="M53.587 34.8614C55.3965 34.8614 56.8634 33.3945 56.8634 31.585C56.8634 29.7755 55.3965 28.3086 53.587 28.3086C51.7775 28.3086 50.3105 29.7755 50.3105 31.585C50.3105 33.3945 51.7775 34.8614 53.587 34.8614Z" fill="#75C373"/>
<path d="M78.0271 59.3042C79.8359 59.3042 81.3022 57.8378 81.3022 56.029C81.3022 54.2202 79.8359 52.7539 78.0271 52.7539C76.2183 52.7539 74.752 54.2202 74.752 56.029C74.752 57.8378 76.2183 59.3042 78.0271 59.3042Z" fill="#CB5876"/>
</svg>
