<svg width="132" height="88" viewBox="0 0 132 88" fill="none" xmlns="http://www.w3.org/2000/svg">
<path d="M99.4636 40.536C106.379 39.7941 106.132 34.1058 106.132 34.1058C97.4879 35.5897 92.7955 30.8907 92.7955 30.8907C92.7955 30.8907 98.2288 33.1166 102.427 30.8907C106.626 28.6649 106.132 23.9659 106.132 23.9659C96.253 27.181 92.7955 23.7186 92.7955 23.7186C92.7955 23.7186 96.747 24.4605 100.205 22.482C104.897 19.7615 102.674 15.5572 102.674 15.5572C95.2652 19.0196 91.8076 17.2884 91.8076 17.2884C91.8076 17.2884 95.5121 17.2884 97.7348 13.084C99.4636 9.86891 96.747 7.39575 96.747 7.39575C93.0425 12.8367 87.1153 12.0947 82.9168 14.5679C80.2002 16.0518 82.6699 19.0196 82.6699 19.0196C85.3865 18.0303 87.6092 20.9981 87.6092 25.4498C87.6092 31.6327 82.4229 35.0951 76.9896 35.0951C71.5564 35.0951 69.0867 32.6219 69.0867 26.9337C69.0867 24.4605 69.5806 23.7186 71.3094 23.7186C73.0382 23.7186 73.7791 24.9551 73.7791 24.9551C73.7791 24.9551 74.7669 23.4713 74.7669 21.2454C74.7669 18.5249 72.7912 17.783 70.5685 17.783C68.3458 17.783 62.1716 17.783 59.208 17.783C59.208 19.2669 59.702 20.9981 61.1838 21.4927C61.1838 21.4927 60.6898 25.6971 59.9489 30.6434C59.455 33.6112 57.2323 34.8478 54.5157 34.8478C49.3294 34.8478 43.8961 31.6327 43.8961 25.2025C43.8961 21.4927 45.8718 17.783 48.8354 18.7723C49.8233 17.783 50.5642 15.8045 48.8354 14.5679C46.3658 12.3421 38.9568 12.8367 35.4992 7.14844C35.4992 7.14844 32.7826 9.62159 34.5114 12.8367C36.7341 17.0411 40.4386 17.0411 40.4386 17.0411C40.4386 17.0411 36.7341 19.0196 29.3251 15.5572C29.3251 15.5572 27.3493 19.7615 31.7947 22.482C35.2523 24.4605 39.2037 23.7186 39.2037 23.7186C39.2037 23.7186 35.7462 27.181 25.8675 23.9659C25.8675 23.9659 25.3736 28.6649 29.572 30.8907C33.7705 33.1166 39.2037 30.8907 39.2037 30.8907C39.2037 30.8907 34.5114 35.5897 25.8675 34.1058C25.8675 34.1058 25.8675 39.5468 32.5356 40.536C37.9689 41.278 42.4143 37.3209 42.4143 37.3209C42.4143 37.3209 40.9325 42.5145 28.5842 44.2458C28.5842 44.2458 31.7947 49.6867 39.4507 47.7082C44.637 46.4716 47.6006 42.0199 47.6006 42.0199C47.6006 42.0199 45.6249 48.6974 34.7583 52.6545C34.7583 52.6545 38.2159 56.3642 45.1309 53.3964C51.0581 50.9233 53.7748 44.7404 53.7748 44.7404C53.7748 44.7404 53.0339 50.1813 47.8476 55.8696C47.8476 55.8696 49.5763 56.3642 50.8112 55.6223C55.7505 53.6437 58.9611 50.4286 59.702 45.235C59.702 45.235 61.1838 46.7189 60.6898 49.4394C60.1959 53.3964 53.7748 57.6008 53.7748 57.6008L54.7626 58.8374C53.2808 59.8266 50.8112 61.0632 49.8233 61.5578C47.8476 60.3213 45.6249 59.0847 45.1309 58.8374C43.4022 57.8481 40.1916 57.8481 39.9446 61.8051C41.4264 60.0739 42.9082 60.3213 44.39 61.3105C44.637 61.5578 46.1188 62.2998 47.3536 63.0417C46.6127 63.5364 45.8718 63.7837 45.8718 64.031C44.1431 65.0202 42.6613 67.988 46.1188 70.2139C45.3779 67.988 46.1188 66.9988 47.8476 66.0095C48.0945 66.0095 48.8354 65.5149 49.8233 64.7729C50.5642 65.2676 51.5521 65.7622 51.5521 66.0095C53.0339 67.2461 53.7748 68.2353 53.0339 70.4612C56.2444 68.2353 55.0096 65.5149 53.2808 64.2783C53.2808 64.2783 52.5399 63.7837 52.046 63.5364C52.7869 63.289 54.5157 62.0525 55.9975 61.3105L56.7384 62.5471L62.1716 59.332C62.1716 59.8266 62.4186 60.5686 62.1716 61.5578C61.6777 65.5149 59.455 69.2246 54.5157 72.687C54.5157 72.687 55.2566 75.4075 58.4671 75.4075C60.9368 75.4075 62.6656 72.4397 63.6534 70.2139C62.4186 74.6656 62.6656 78.128 65.8761 80.8484C69.0867 77.8806 69.3337 74.4182 68.0988 70.2139C69.0867 72.687 70.8155 75.4075 73.2851 75.4075C76.4957 75.4075 77.2366 72.687 77.2366 72.687C72.2973 69.2246 70.0746 65.5149 69.5806 61.5578C69.5806 60.8159 69.5806 60.0739 69.5806 59.332L75.0139 62.5471L75.7548 61.3105C76.9896 62.0525 78.9654 63.289 79.7063 63.5364C79.2123 63.7837 78.4714 64.2783 78.4714 64.2783C76.7427 65.2676 75.5078 68.2353 78.7184 70.4612C77.9775 68.2353 78.7184 67.2461 80.2002 66.0095C80.4472 65.7622 81.435 65.2676 81.929 64.7729C82.9168 65.5149 83.9047 66.0095 83.9047 66.0095C85.3865 66.9988 86.3744 68.2353 85.6335 70.2139C88.844 67.988 87.3622 65.0202 85.8804 64.031C85.8804 64.031 85.1395 63.5364 84.3986 63.0417C85.6335 62.2998 87.1153 61.3105 87.3622 61.3105C89.091 60.5686 90.3258 60.3213 91.8076 61.8051C91.3137 57.8481 88.1031 57.8481 86.6213 58.8374C86.1274 59.0847 83.9047 60.5686 81.929 61.5578C80.9411 61.0632 78.7184 59.5793 76.9896 58.59L77.9775 57.3535C77.9775 57.3535 71.5564 53.1491 71.0624 49.1921C70.5685 46.2243 72.0503 44.9877 72.0503 44.9877C72.5442 49.6867 76.0018 53.6437 80.9411 55.3749C82.4229 55.8696 83.9047 55.6223 83.9047 55.6223C78.7184 50.1813 77.9775 44.4931 77.9775 44.4931C77.9775 44.4931 80.4472 50.6759 86.6213 53.1491C93.7834 56.1169 96.9939 52.4072 96.9939 52.4072C86.3744 48.4501 84.1517 41.7726 84.1517 41.7726C84.1517 41.7726 87.3622 46.2243 92.3016 47.4608C99.9575 49.4394 103.168 43.9984 103.168 43.9984C90.5728 42.2672 89.338 37.0736 89.338 37.0736C89.338 37.0736 94.0303 41.0307 99.4636 40.536Z" fill="#020202"/>
</svg>
