<svg width="132" height="88" viewBox="0 0 132 88" fill="none" xmlns="http://www.w3.org/2000/svg">
<path d="M90.6184 34.3537L75.2866 18.4239L66.2759 27.7845L72.5641 34.3172C72.4222 34.4756 72.2921 34.6213 72.1461 34.7827C70.4939 36.6112 68.5169 38.6998 66.3461 40.8806C65.2763 41.988 64.1241 43.082 62.9696 44.2084C61.816 45.3403 60.6255 46.4672 59.4163 47.5766C57.0304 49.8272 54.5816 52.0137 52.2826 54.06C49.9558 56.0801 47.7728 57.9518 45.8586 59.5118C42.0564 62.6548 39.3617 64.5864 39.3617 64.5864C38.8909 64.926 38.4531 65.3674 38.1093 65.888C36.569 68.206 37.1308 71.3803 39.3617 72.9775C41.5897 74.578 44.6472 73.9961 46.1855 71.6773C46.1855 71.6773 48.0456 68.8786 51.0693 64.9238C52.5735 62.9381 54.3737 60.6693 56.3187 58.2526C58.2866 55.8653 60.3937 53.3202 62.5577 50.84C63.6271 49.5849 64.7117 48.346 65.7983 47.1489C66.8848 45.9461 67.9361 44.7493 69.0026 43.6383C71.1016 41.3836 73.1138 39.334 74.8719 37.615C75.0267 37.4629 75.1678 37.327 75.3177 37.1805L81.6077 43.7131L90.6184 34.3537Z" fill="black"/>
<path d="M64.6144 26.8795L74.4168 16.6975C74.9813 16.1094 74.9866 15.1521 74.4168 14.5632C73.847 13.9737 72.9285 13.9737 72.3606 14.5632L62.5604 24.7447C61.9925 25.3335 61.9925 26.2899 62.5604 26.8795C63.128 27.4699 64.0465 27.4683 64.6144 26.8795Z" fill="black"/>
<path d="M94.3336 35.256C93.766 34.6664 92.8453 34.6678 92.2797 35.256L82.4773 45.4379C81.9105 46.0283 81.9105 46.9834 82.4773 47.5722C83.0452 48.1618 83.9637 48.1618 84.5293 47.5722L94.3336 37.3908C94.8993 36.8015 94.9004 35.8442 94.3336 35.256Z" fill="black"/>
</svg>
