<svg width="132" height="88" viewBox="0 0 132 88" fill="none" xmlns="http://www.w3.org/2000/svg">
<g clip-path="url(#clip0_2056_25037)">
<path d="M65.9987 22.4844C43.0416 22.4844 24.3574 41.1686 24.3574 64.1257C24.3574 64.8912 24.9815 65.5136 25.7454 65.5136C26.5093 65.5136 27.1334 64.8895 27.1334 64.1257C27.1334 42.6947 44.5678 25.2604 65.9987 25.2604C87.4329 25.2604 104.866 42.6947 104.866 64.1257C104.866 64.8912 105.491 65.5136 106.254 65.5136C107.019 65.5136 107.642 64.8895 107.642 64.1257C107.642 41.1686 88.959 22.4844 65.9987 22.4844Z" fill="#4EB7D9"/>
<path d="M65.9985 30.9648C47.7043 30.9648 32.8379 45.8313 32.8379 64.1254C32.8379 64.8909 33.462 65.5134 34.2259 65.5134C34.9898 65.5134 35.6139 64.8893 35.6139 64.1254C35.6139 47.3704 49.2451 33.7408 65.9985 33.7408C82.7535 33.7408 96.3831 47.3704 96.3831 64.1254C96.3831 64.8909 97.0088 65.5134 97.7711 65.5134C98.5366 65.5134 99.1607 64.8893 99.1607 64.1254C99.1607 45.8313 84.2942 30.9648 65.9985 30.9648Z" fill="#FFE538"/>
<path d="M65.9995 39.4336C52.3829 39.4336 41.3066 50.5099 41.3066 64.1265C41.3066 64.892 41.9307 65.5145 42.6946 65.5145C43.4569 65.5145 44.0826 64.8903 44.0826 64.1265C44.0826 52.0376 53.9107 42.2096 65.9995 42.2096C78.09 42.2096 87.918 52.0376 87.918 64.1265C87.918 64.892 88.5421 65.5145 89.306 65.5145C90.0699 65.5145 90.694 64.8903 90.694 64.1265C90.6924 50.5099 79.6177 39.4336 65.9995 39.4336Z" fill="#FA5A5A"/>
<path d="M65.9993 47.9141C57.0602 47.9141 49.7871 55.1872 49.7871 64.1262C49.7871 64.8917 50.4112 65.5142 51.1751 65.5142C51.939 65.5142 52.5631 64.8901 52.5631 64.1262C52.5631 56.7133 58.588 50.69 65.9993 50.69C73.4122 50.69 79.4371 56.7133 79.4371 64.1262C79.4371 64.8917 80.0628 65.5142 80.8251 65.5142C81.5906 65.5142 82.2131 64.8901 82.2131 64.1262C82.2131 55.1872 74.9383 47.9141 65.9993 47.9141Z" fill="#FFE538"/>
<path d="M65.9984 56.3789C61.7239 56.3789 58.2539 59.8505 58.2539 64.125C58.2539 64.8905 58.878 65.513 59.6419 65.513C60.4058 65.513 61.0299 64.8889 61.0299 64.125C61.0299 61.3913 63.2646 59.1565 65.9984 59.1565C68.7337 59.1565 70.9685 61.3913 70.9685 64.125C70.9685 64.8905 71.5926 65.513 72.3565 65.513C73.1203 65.513 73.7444 64.8889 73.7444 64.125C73.7444 59.8505 70.2745 56.3789 65.9984 56.3789Z" fill="#4EB7D9"/>
</g>
<defs>
<clipPath id="clip0_2056_25037">
<rect width="83.2842" height="43.0309" fill="white" transform="translate(24.3574 22.4844)"/>
</clipPath>
</defs>
</svg>
