<svg width="132" height="88" viewBox="0 0 132 88" fill="none" xmlns="http://www.w3.org/2000/svg">
<path d="M33.8252 43.9992C33.8252 26.2295 48.2304 11.8242 66.0002 11.8242V11.8242C83.77 11.8242 98.1752 26.2295 98.1752 43.9992V43.9992C98.1752 61.769 83.77 76.1742 66.0002 76.1742V76.1742C48.2304 76.1742 33.8252 61.769 33.8252 43.9992V43.9992Z" fill="url(#paint0_linear_2243_7114)"/>
<path d="M79.6393 48.0268C79.9351 47.0364 78.8963 46.6434 78.4406 47.5732C75.3856 53.8067 72.5361 60.7578 64.2844 60.7578C57.9417 60.7578 54.5939 55.5651 54.5939 47.3602C54.5939 35.5146 63.4325 25.8364 69.9883 25.8364C73.123 25.8364 74.6205 27.8008 74.6205 30.813C74.6205 33.0687 73.8288 34.578 73.2247 35.7298C72.852 36.4404 72.5507 37.0148 72.5507 37.5445C72.5507 37.9701 72.9101 38.3892 73.6222 38.3892C76.4708 38.3892 79.8252 35.0955 79.8252 30.6035C79.8252 26.1114 76.118 22.8242 69.5623 22.8242C58.727 22.8242 47.8252 33.5501 47.8252 47.2948C47.8252 58.2302 53.3094 64.8242 62.7936 64.8242C72.6463 63.4798 77.2466 56.0392 79.6393 48.0268Z" fill="white"/>
<defs>
<linearGradient id="paint0_linear_2243_7114" x1="36.1585" y1="16.4294" x2="95.4121" y2="72.9199" gradientUnits="userSpaceOnUse">
<stop stop-color="#01C3CC"/>
<stop offset="0.359419" stop-color="#0AB5D0"/>
<stop offset="0.619783" stop-color="#3178E0"/>
<stop offset="0.822692" stop-color="#6F38E7"/>
<stop offset="1" stop-color="#7C2AE8"/>
</linearGradient>
</defs>
</svg>
