<svg width="132" height="88" viewBox="0 0 132 88" fill="none" xmlns="http://www.w3.org/2000/svg">
<path d="M33.6956 44.0015C33.5649 34.7165 36.964 26.7719 43.8931 20.1677C50.8222 13.4982 59.0913 10.2615 68.7005 10.4576C75.172 10.4576 80.9898 11.9942 86.1539 15.0675C91.3181 18.0753 95.3709 22.3255 98.3125 27.8181L85.4676 36.5473C81.284 29.4854 75.6623 25.9545 68.6024 25.9545C63.4383 25.9545 59.1894 27.6219 55.8556 30.9567C52.5871 34.2914 50.9529 38.6724 50.9529 44.0996C50.9529 49.396 52.5871 53.7443 55.8556 57.1444C59.2547 60.4138 63.5037 62.0485 68.6024 62.0485C75.6623 62.0485 81.284 58.5176 85.4676 51.4557L98.3125 60.185C95.3709 65.6775 91.3181 69.9604 86.1539 73.0337C80.9898 76.0415 75.1393 77.5454 68.6024 77.5454C59.0586 77.6762 50.7895 74.4395 43.795 67.8353C36.866 61.2312 33.4995 53.2866 33.6956 44.0015Z" fill="url(#paint0_linear_2056_27111)"/>
<defs>
<linearGradient id="paint0_linear_2056_27111" x1="66" y1="10.4492" x2="66" y2="77.5492" gradientUnits="userSpaceOnUse">
<stop stop-color="#0054D7"/>
<stop offset="1" stop-color="#009AE2"/>
</linearGradient>
</defs>
</svg>
