<svg width="132" height="88" viewBox="0 0 132 88" fill="none" xmlns="http://www.w3.org/2000/svg">
<path fill-rule="evenodd" clip-rule="evenodd" d="M66.0008 4.8125C56.4382 4.8125 48.6861 12.5849 48.6861 22.1727V35.4595C42.7955 40.4162 39.0508 47.853 39.0508 56.1666C39.0508 71.0899 51.1168 83.1875 66.0008 83.1875C80.8848 83.1875 92.9508 71.0899 92.9508 56.1666C92.9508 47.853 89.2061 40.4162 83.3154 35.4595V22.1727C83.3154 12.5849 75.5634 4.8125 66.0008 4.8125ZM77.8095 31.871V22.1727C77.8095 15.6337 72.5225 10.3329 66.0008 10.3329C59.4791 10.3329 54.192 15.6337 54.192 22.1727V31.871C57.758 30.1254 61.7654 29.1458 66.0008 29.1458C70.2362 29.1458 74.2435 30.1254 77.8095 31.871Z" fill="#D9D9D9"/>
<path d="M90.0529 56.1666C90.0529 59.3335 89.4308 62.4694 88.222 65.3952C87.0133 68.321 85.2416 70.9795 83.0082 73.2188L66.0007 56.1666H90.0529Z" fill="#3A8DD4"/>
<path d="M48.9933 73.2188C46.7599 70.9795 44.9882 68.321 43.7795 65.3952C42.5708 62.4694 41.9486 59.3335 41.9486 56.1666H66.0007L48.9933 73.2188Z" fill="#FF9B3A"/>
<path d="M66.0007 80.282C62.8422 80.282 59.7145 79.6583 56.7964 78.4464C53.8782 77.2345 51.2268 75.4581 48.9933 73.2188L66.0007 56.1666L66.0007 80.282Z" fill="#4DD989"/>
<path d="M83.0082 73.2188C80.7747 75.4581 78.1232 77.2345 75.2051 78.4464C72.287 79.6583 69.1593 80.282 66.0007 80.282L66.0007 56.1666L83.0082 73.2188Z" fill="#E96D63"/>
<path d="M41.9486 56.1666C41.9486 52.9998 42.5708 49.8639 43.7795 46.9381C44.9883 44.0123 46.7599 41.3538 48.9934 39.1145L66.0008 56.1666H41.9486Z" fill="#3A8DD4"/>
<path d="M83.0082 39.1145C85.2417 41.3538 87.0133 44.0123 88.2221 46.9381C89.4308 49.8639 90.0529 52.9998 90.0529 56.1666H66.0008L83.0082 39.1145Z" fill="#FF9B3A"/>
<path d="M66.0008 32.0513C69.1594 32.0513 72.2871 32.675 75.2052 33.8869C78.1233 35.0989 80.7748 36.8752 83.0082 39.1145L66.0008 56.1666L66.0008 32.0513Z" fill="#4DD989"/>
<path d="M48.9934 39.1145C51.2268 36.8752 53.8783 35.0988 56.7965 33.8869C59.7146 32.675 62.8423 32.0513 66.0008 32.0513L66.0008 56.1666L48.9934 39.1145Z" fill="#E96D63"/>
<path d="M68.6813 56.1666C68.6813 57.6509 67.4812 58.8542 66.0008 58.8542C64.5204 58.8542 63.3203 57.6509 63.3203 56.1666C63.3203 54.6824 64.5204 53.4791 66.0008 53.4791C67.4812 53.4791 68.6813 54.6824 68.6813 56.1666Z" fill="#D9D9D9"/>
</svg>
