<svg width="132" height="88" viewBox="0 0 132 88" fill="none" xmlns="http://www.w3.org/2000/svg">
<path fill-rule="evenodd" clip-rule="evenodd" d="M62.1576 9.23007C58.588 9.58291 54.3415 10.818 50.785 12.5377C47.0237 14.3565 43.9053 16.6157 40.9762 19.644C35.2784 25.535 32.0321 32.6397 31.2735 40.8788C31.0091 43.7513 31.0091 44.2071 31.2735 47.0796C32.0377 55.3797 35.2617 62.3993 41.0647 68.3975C43.89 71.318 47.1115 73.6445 50.8004 75.4281C65.6906 82.6281 83.3225 78.4459 93.5449 65.2892C97.0275 60.8068 99.4208 55.2546 100.284 49.6561C100.963 45.2454 101.074 43.2809 100.751 41.3696C100.661 40.8354 100.459 39.5338 100.303 38.477C98.0171 23.0479 85.1836 10.8355 69.5667 9.22832C67.5628 9.02221 64.2533 9.02291 62.1576 9.23007ZM63.2027 22.1623C53.4615 23.1785 46.7047 29.7452 45.0787 39.7764C44.7139 42.0267 44.8092 46.8227 45.2593 48.87C46.4553 54.3104 49.269 58.9829 53.0506 61.8087C55.7447 63.8218 58.4089 64.9771 61.7289 65.5718C63.7122 65.9271 68.0989 65.971 70.2314 65.6567C74.7735 64.9876 78.601 63.0398 81.7022 59.8194C84.4123 57.005 86.1554 53.4836 86.7256 49.6721L86.8463 48.8648L81.5644 48.9111L76.2827 48.9574L76.1423 49.6354C75.9014 50.7984 74.9595 52.327 73.848 53.3589C71.981 55.0922 69.3427 56.0316 66.3422 56.0316C63.1862 56.0316 60.8503 55.2127 58.9035 53.4239C57.9961 52.5902 57.5955 52.0428 56.9496 50.7537C55.8626 48.5848 55.5684 47.1413 55.5684 43.9792C55.5684 40.8204 55.8629 39.3731 56.9455 37.2126C58.2593 34.5911 60.231 32.9937 63.0433 32.2723C66.8237 31.3029 71.3511 32.4117 73.577 34.8522C74.5094 35.8746 75.3971 37.4931 75.5903 38.5233L75.6972 39.0934L80.8596 39.0473L86.022 39.001L85.9833 37.9458C85.9053 35.8138 84.6785 32.5041 83.1375 30.269C79.0632 24.3588 71.5265 21.294 63.2027 22.1623ZM31.13 43.9792C31.13 45.084 31.1584 45.5359 31.1929 44.9836C31.2274 44.4313 31.2274 43.5271 31.1929 42.9748C31.1584 42.4225 31.13 42.8744 31.13 43.9792Z" fill="url(#paint0_linear_2056_24101)"/>
<defs>
<linearGradient id="paint0_linear_2056_24101" x1="31.0752" y1="44.0087" x2="100.839" y2="44.0087" gradientUnits="userSpaceOnUse">
<stop stop-color="#5DCEF4"/>
<stop offset="1" stop-color="#2F6BF0"/>
</linearGradient>
</defs>
</svg>
