<svg width="132" height="88" viewBox="0 0 132 88" fill="none" xmlns="http://www.w3.org/2000/svg">
<path d="M33 25.6667C33 17.5665 39.5665 11 47.6666 11H84.3333C92.4334 11 98.9999 17.5665 98.9999 25.6667V27.6222H33V25.6667Z" fill="#76E7FC"/>
<path d="M33 62.3345C33 70.4346 39.5665 77.0011 47.6666 77.0011H84.3333C92.4334 77.0011 98.9999 70.4346 98.9999 62.3345V60.3789H33V62.3345Z" fill="#30005D"/>
<path d="M98.9999 44H33V60.3778H98.9999V44Z" fill="#F3166A"/>
<path d="M98.9999 27.6211H33V43.9989H98.9999V27.6211Z" fill="#FFCC00"/>
<path d="M65.9985 56.954C73.1537 56.954 78.954 51.1537 78.954 43.9985C78.954 36.8434 73.1537 31.043 65.9985 31.043C58.8434 31.043 53.043 36.8434 53.043 43.9985C53.043 51.1537 58.8434 56.954 65.9985 56.954Z" fill="white"/>
</svg>
