<svg width="132" height="88" viewBox="0 0 132 88" fill="none" xmlns="http://www.w3.org/2000/svg">
<circle cx="65.9992" cy="43.9992" r="33.55" fill="#171719"/>
<path fill-rule="evenodd" clip-rule="evenodd" d="M48.9405 32.6575L65.9317 22.8477L82.923 32.6575L65.9317 42.4673L48.9405 32.6575Z" fill="#DC3522"/>
<path fill-rule="evenodd" clip-rule="evenodd" d="M48.9405 32.6575L65.9317 22.8477L82.923 32.6575L65.9317 42.4673L48.9405 32.6575Z" fill="#E77164"/>
<path fill-rule="evenodd" clip-rule="evenodd" d="M48.9405 32.6575L65.9317 22.8477L82.923 32.6575L65.9317 42.4673L48.9405 32.6575Z" fill="#DC3522"/>
<path fill-rule="evenodd" clip-rule="evenodd" d="M67.8728 65.4495L67.8728 45.8297L84.864 36.0198L84.8639 55.6395L67.8728 65.4495Z" fill="#283593"/>
<path fill-rule="evenodd" clip-rule="evenodd" d="M67.8728 65.4495L67.8728 45.8297L84.864 36.0198L84.8639 55.6395L67.8728 65.4495Z" fill="#4D5DCF"/>
<path fill-rule="evenodd" clip-rule="evenodd" d="M67.8728 65.4495L67.8728 45.8297L84.864 36.0198L84.8639 55.6395L67.8728 65.4495Z" fill="#283593"/>
<path fill-rule="evenodd" clip-rule="evenodd" d="M46.9922 36.0239L63.9834 45.8338L63.9834 65.4536L46.9922 55.6437L46.9922 36.0239Z" fill="#F9A825"/>
<path fill-rule="evenodd" clip-rule="evenodd" d="M46.9922 36.0239L63.9834 45.8338L63.9834 65.4536L46.9922 55.6437L46.9922 36.0239Z" fill="#FBC266"/>
<path fill-rule="evenodd" clip-rule="evenodd" d="M46.9922 36.0239L63.9834 45.8338L63.9834 65.4536L46.9922 55.6437L46.9922 36.0239Z" fill="#F9A925"/>
</svg>
