<svg width="132" height="88" viewBox="0 0 132 88" fill="none" xmlns="http://www.w3.org/2000/svg">
<mask id="mask0_2056_26437" style="mask-type:luminance" maskUnits="userSpaceOnUse" x="32" y="10" width="68" height="68">
<path d="M99.9843 10.0156H32.0166V77.9833H99.9843V10.0156Z" fill="white"/>
</mask>
<g mask="url(#mask0_2056_26437)">
<path d="M88.5288 21.4712C89.3582 20.6417 89.3623 19.2913 88.4826 18.5153C85.6751 16.0383 82.4736 14.039 79.0053 12.6025C74.8822 10.8946 70.4632 10.0156 66.0003 10.0156C61.5376 10.0156 57.1175 10.8946 52.9944 12.6025C48.8713 14.3104 45.1253 16.8136 41.9697 19.9693L66.0003 43.9996L88.5288 21.4712Z" fill="#FF6060"/>
<path d="M41.9699 19.9688C38.8144 23.1246 36.3116 26.8709 34.6034 30.9937C32.8952 35.1171 32.0166 39.5363 32.0166 43.999C32.0166 48.462 32.8952 52.881 34.6034 57.004C36.3116 61.1274 38.8144 64.8734 41.9699 68.0291L66.0006 43.999L41.9699 19.9688Z" fill="#FFE240"/>
<path d="M41.9697 68.0306C45.1253 71.1862 48.8713 73.689 52.9944 75.397C57.1175 77.1053 61.5376 77.984 66.0003 77.984C70.4632 77.984 74.8822 77.1053 79.0053 75.397C82.4736 73.9607 85.6751 71.9617 88.4826 69.484C89.3623 68.7082 89.3582 67.3579 88.5288 66.5283L66.0003 44L41.9697 68.0306Z" fill="#489EFF"/>
</g>
</svg>
