<svg width="132" height="88" viewBox="0 0 132 88" fill="none" xmlns="http://www.w3.org/2000/svg">
<circle cx="65.9998" cy="44.0008" r="33.825" fill="#615D4C"/>
<path fill-rule="evenodd" clip-rule="evenodd" d="M57.5689 23.3589C44.2129 28.7094 39.8045 39.5465 46.623 50.2675C53.1214 60.4831 66.4662 69.2451 73.0283 67.603C77.2174 66.5554 78.5936 63.2186 76.4991 59.1823C74.0208 54.4019 74.3318 52.4942 78.6954 45.7403C80.8459 42.4136 82.9337 37.9411 83.3365 35.8025C85.4109 24.7758 71.1844 17.9058 57.5689 23.3589ZM62.7034 33.6806C61.9649 34.4169 61.3607 36.3246 61.3607 37.9199C61.3607 39.5152 61.9649 41.4229 62.7034 42.1592C65.8676 45.3142 72.5495 42.437 72.5495 37.9199C72.5495 33.4028 65.8676 30.5256 62.7034 33.6806Z" fill="#2B2B2B"/>
</svg>
