<svg width="132" height="88" viewBox="0 0 132 88" fill="none" xmlns="http://www.w3.org/2000/svg">
<path fill-rule="evenodd" clip-rule="evenodd" d="M66 6C45.0132 6 28 23.0132 28 44C28 64.9868 45.0132 82 66 82C86.9868 82 104 64.9868 104 44C104 23.0132 86.9868 6 66 6ZM44.1977 34.8516C42.772 32.1361 46.0032 28.7513 51.3665 27.3418C55.1824 26.339 58.8306 26.7928 60.7855 28.5134C62.0669 29.6411 62.4806 30.9676 62.2667 33.2627L62.096 35.0963L63.9185 33.3871C67.9091 29.6451 72.657 28.6244 74.7077 31.0675C75.7029 32.2531 75.9046 33.6343 75.3661 35.574C75.1214 36.4559 74.9561 37.2126 74.9993 37.2556C75.0423 37.2987 75.6765 36.8754 76.4088 36.315C77.1411 35.7543 78.5933 34.8958 79.6357 34.4067C83.6186 32.5383 86.547 33.6566 86.547 37.0457C86.547 38.4315 84.6769 43.0773 82.064 48.1822C80.2636 51.7006 79.1498 54.6436 79.1498 55.8837C79.1498 56.9709 80.1609 58.1491 81.091 58.1457C82.3024 58.1414 84.6124 56.9124 85.8295 55.625C87.1021 54.2785 87.841 54.1311 88.2962 55.1327C88.991 56.6609 87.5434 58.7569 84.8917 60.0623C83.5821 60.7069 82.897 60.8566 81.2836 60.8506C79.1162 60.8423 78.1227 60.4584 76.7567 59.102C73.9449 56.3089 74.6699 52.6041 79.8181 43.4603C82.1314 39.351 82.8492 37.8346 82.7875 37.1857C82.7141 36.4145 82.6137 36.3344 81.7704 36.3735C79.4422 36.481 75.2298 39.6511 72.7804 43.1386C71.6455 44.7546 69.8807 47.9096 66.0597 55.1539C65.2321 56.7225 64.3624 58.2304 64.1265 58.5051C63.5444 59.1833 62.0402 59.1371 61.1218 58.4129C59.5869 57.2028 60.1106 55.9228 66.775 44.6034C71.9585 35.7994 72.579 34.3131 71.7326 32.7279C71.0461 31.4417 67.7113 33.0842 64.5186 36.2814C60.7969 40.0085 57.5205 44.6842 52.5117 53.4167C48.8756 59.756 48.0972 60.7154 46.589 60.7154C45.7921 60.7154 45.3215 60.5026 44.6666 59.8461C43.9072 59.0849 43.8185 58.833 43.9536 57.8243C44.1414 56.4196 45.7992 53.5088 49.9417 47.3106C55.0822 39.6189 55.2686 39.3339 56.7034 36.9659C58.6514 33.751 59.3595 31.7608 58.9279 30.7161C58.5439 29.7866 57.6869 29.4806 56.2333 29.7541C54.423 30.0946 52.8821 30.9408 49.5223 33.4398C45.7073 36.2776 45.0393 36.4548 44.1977 34.8516Z" fill="#3ADBB9"/>
</svg>
