<svg width="132" height="88" viewBox="0 0 132 88" fill="none" xmlns="http://www.w3.org/2000/svg">
<path fill-rule="evenodd" clip-rule="evenodd" d="M68.7763 70.0966C77.8291 70.0966 85.1942 62.7315 85.1942 53.6786V53.2026H52.3584V53.6786C52.3584 62.7315 59.7235 70.0966 68.7763 70.0966Z" fill="#924992"/>
<path fill-rule="evenodd" clip-rule="evenodd" d="M85.1942 44.3396H52.3584V53.6793C52.3584 57.2603 53.5141 60.5743 55.4673 63.2757H82.0853C84.0387 60.5743 85.1942 57.2603 85.1942 53.6793V44.3396Z" fill="#FF6868"/>
<path fill-rule="evenodd" clip-rule="evenodd" d="M52.3584 30.1092V51.3895H85.1942V30.1092C81.5454 30.1092 70.6001 30.1092 52.3584 30.1092Z" fill="#FEED30"/>
<path fill-rule="evenodd" clip-rule="evenodd" d="M82.5755 53.6785C82.5755 62.7314 75.2104 70.0965 66.1575 70.0965C57.1047 70.0965 49.7396 62.7314 49.7396 53.6785V30.4309L82.5755 30.4732V53.6785ZM44.502 29.1523V53.6785C44.502 65.6193 54.2165 75.3341 66.1575 75.3341C78.0983 75.3341 87.8131 65.6193 87.8131 53.6785V29.2081L44.502 29.1523Z" fill="#111111"/>
<path fill-rule="evenodd" clip-rule="evenodd" d="M94.2273 23.8168C95.5677 23.2743 97.0947 23.922 97.637 25.263C98.1791 26.6036 97.5317 28.1302 96.191 28.6725C93.925 29.5888 91.6276 30.3975 89.3028 31.0995L87.5542 31.606L82.3165 32.8711C76.9834 33.9685 71.5305 34.5215 65.9993 34.5215C60.9584 34.5215 55.9827 34.0617 51.1035 33.1495L49.6936 32.8706L49.4807 32.8711L44.243 31.5502C41.3891 30.7506 38.5751 29.7915 35.8076 28.6725C34.4668 28.1302 33.8194 26.6036 34.3616 25.263C34.9039 23.922 36.4305 23.2743 37.7713 23.8168C46.742 27.4445 56.2392 29.2839 65.9993 29.2839C75.7594 29.2839 85.2567 27.4445 94.2273 23.8168Z" fill="#111111"/>
<path fill-rule="evenodd" clip-rule="evenodd" d="M48.1715 20.7219C50.3967 20.7219 52.2005 18.9182 52.2005 16.693C52.2005 14.4678 50.3967 12.6641 48.1715 12.6641C45.9463 12.6641 44.1426 14.4678 44.1426 16.693C44.1426 18.9182 45.9463 20.7219 48.1715 20.7219Z" fill="#111111"/>
<path fill-rule="evenodd" clip-rule="evenodd" d="M83.8278 20.7219C86.053 20.7219 87.8567 18.9182 87.8567 16.693C87.8567 14.4678 86.053 12.6641 83.8278 12.6641C81.6026 12.6641 79.7988 14.4678 79.7988 16.693C79.7988 18.9182 81.6026 20.7219 83.8278 20.7219Z" fill="#111111"/>
</svg>
