<svg width="132" height="88" viewBox="0 0 132 88" fill="none" xmlns="http://www.w3.org/2000/svg">
<path d="M88.8977 42.7481C88.5993 41.7528 87.7036 40.9567 86.7082 40.7577L72.3769 37.7721L76.6563 11.0004C76.8553 9.70658 76.1586 8.41275 74.9642 7.81575C73.7701 7.21855 72.2773 7.61668 71.481 8.61201L43.6147 41.753C43.0175 42.5493 42.719 43.5444 43.0175 44.4402C43.316 45.4353 44.0126 46.132 44.9085 46.4306L58.8417 51.1081L53.2685 76.8844C52.97 78.1784 53.6666 79.5716 54.8608 80.1688C55.2589 80.3679 55.7565 80.4673 56.2541 80.4673C57.0503 80.4673 57.946 80.0692 58.4436 79.4721L88.3999 45.5349C89.0967 44.8382 89.2956 43.7435 88.8977 42.7481Z" fill="url(#paint0_linear_2056_24112)"/>
<defs>
<linearGradient id="paint0_linear_2056_24112" x1="59.7529" y1="7.53515" x2="103.208" y2="22.8026" gradientUnits="userSpaceOnUse">
<stop stop-color="#FC00FF"/>
<stop offset="1" stop-color="#00DBDE"/>
</linearGradient>
</defs>
</svg>
