<svg width="132" height="88" viewBox="0 0 132 88" fill="none" xmlns="http://www.w3.org/2000/svg">
<circle cx="65.9996" cy="44.0016" r="34.65" fill="#0FFFA2"/>
<path fill-rule="evenodd" clip-rule="evenodd" d="M54.3534 30.7423C54.2152 31.0732 52.3782 36.2927 50.2711 42.3412C48.1642 48.3896 46.3631 53.5182 46.269 53.7382L46.0977 54.138H48.747H51.3966L52.1292 51.7835C52.5323 50.4885 52.9241 49.2292 53.0001 48.9849L53.1384 48.5407L57.4252 48.493L61.7122 48.4456L62.5301 51.0696C62.98 52.513 63.3807 53.7938 63.4203 53.9159C63.5058 54.1783 68.6569 54.2423 68.6569 53.9809C68.6569 53.8314 63.8425 39.9563 61.4977 33.348L60.3942 30.2384L57.4995 30.1895L54.6049 30.1406L54.3534 30.7423ZM55.9596 39.5228C55.1868 42.0393 54.5206 44.1984 54.479 44.3205C54.4206 44.4925 55.0935 44.5426 57.4623 44.5426C59.8327 44.5426 60.5035 44.4927 60.4426 44.3205C60.3996 44.1984 59.7313 42.0401 58.9576 39.5247C58.1841 37.0091 57.5092 34.95 57.4579 34.9492C57.4065 34.9481 56.7324 37.0063 55.9596 39.5228ZM76.0138 36.2774C73.2499 36.8787 71.1597 38.8216 70.8505 41.0771L70.7409 41.8772H72.9862C74.8399 41.8772 75.2316 41.8317 75.2316 41.6169C75.2316 41.1531 76.3055 40.1148 76.9786 39.9279C78.6845 39.4542 80.4578 39.9464 80.9756 41.0374C81.1393 41.3823 81.2731 42.06 81.2731 42.5439V43.4233L78.9187 43.545C74.6979 43.7632 73.0305 44.1993 71.5997 45.4586C70.3548 46.5544 69.9958 47.3631 69.9953 49.0737C69.995 50.1449 70.0868 50.6923 70.3674 51.2949C70.8763 52.3873 71.9037 53.386 73.0873 53.9382C73.9435 54.3377 74.3155 54.4001 75.8535 54.4022C77.4442 54.4043 77.737 54.3521 78.6479 53.905C79.2725 53.5983 79.9758 53.0505 80.4692 52.4865L81.2731 51.5675V52.8527V54.138H83.6719H86.0708V47.5061C86.0708 39.9551 86.0509 39.8209 84.7072 38.3266C82.9519 36.3742 79.408 35.5389 76.0138 36.2774ZM77.5211 46.6813C76.0768 46.8499 75.3264 47.2201 74.9492 47.9493C74.6071 48.6107 74.71 49.5702 75.1795 50.0976C76.2981 51.3542 79.0983 51.1751 80.4177 49.7625C81.0419 49.0942 81.2731 48.4488 81.2731 47.3741V46.4972L79.9848 46.5205C79.2762 46.5334 78.1676 46.6058 77.5211 46.6813Z" fill="black"/>
</svg>
