<svg width="132" height="88" viewBox="0 0 132 88" fill="none" xmlns="http://www.w3.org/2000/svg">
<path d="M65.0766 9.625C60.4586 9.625 56.5126 12.8985 54.3446 15.1553C52.1766 12.8985 48.2394 9.625 43.6236 9.625C35.6677 9.625 30.1133 15.14 30.1133 23.0345C30.1133 31.7331 37.0116 37.3554 43.6853 42.7937C46.8359 45.3639 50.0967 48.0195 52.5974 50.9643C53.0182 51.4573 53.6351 51.7421 54.2829 51.7421H54.4107C55.0606 51.7421 55.6754 51.4551 56.094 50.9643C58.5991 48.0195 61.8577 45.3617 65.0105 42.7937C71.6819 37.3576 78.5847 31.7353 78.5847 23.0345C78.5847 15.14 73.0303 9.625 65.0766 9.625Z" fill="#070707"/>
<path d="M91.0645 44.6194C87.3642 44.6194 84.2023 47.243 82.4651 49.0518C80.7279 47.243 77.5731 44.6194 73.8746 44.6194C67.4996 44.6194 63.049 49.0395 63.049 55.3667C63.049 62.3384 68.5765 66.8445 73.924 71.2031C76.4486 73.263 79.0614 75.3914 81.0651 77.7516C81.4023 78.1467 81.8966 78.375 82.4157 78.375H82.5181C83.0389 78.375 83.5314 78.145 83.8669 77.7516C85.8741 75.3914 88.4852 73.2613 91.0115 71.2031C96.3572 66.8462 101.888 62.3401 101.888 55.3667C101.888 49.0395 97.4377 44.6194 91.0645 44.6194Z" fill="#767676"/>
</svg>
