<svg width="132" height="88" viewBox="0 0 132 88" fill="none" xmlns="http://www.w3.org/2000/svg">
<circle cx="66" cy="44" r="34.375" fill="#348CE9"/>
<path d="M66.1537 32.0926C68.9304 32.0926 71.8515 32.7775 74.8368 34.1313C77.3405 35.2781 79.8764 36.8708 82.3963 38.8936C84.7075 40.7571 86.5853 42.6365 87.8372 44.0063C86.6013 45.3442 84.7877 47.1758 82.5086 49.0075C79.9727 51.0462 77.4208 52.6708 74.901 53.8335C71.8836 55.2191 68.9464 55.9199 66.1377 55.9199C63.3611 55.9199 60.44 55.2351 57.4547 53.8812C54.9509 52.7504 52.415 51.1417 49.8952 49.119C47.584 47.2555 45.7061 45.376 44.4542 44.0063C45.6901 42.6684 47.5037 40.8368 49.7828 39.0051C52.3187 36.9664 54.8706 35.3418 57.3905 34.1791C60.4079 32.7934 63.345 32.0926 66.1537 32.0926ZM66.1537 28.6523C51.6607 28.6523 39.9121 44.0063 39.9121 44.0063C39.9121 44.0063 51.6607 59.3443 66.1537 59.3443C80.6468 59.3443 92.3954 44.0063 92.3954 44.0063C92.3954 44.0063 80.6468 28.6523 66.1537 28.6523Z" fill="white"/>
<path d="M60.119 45.8698C60.119 42.1109 66.1538 35.1029 66.1538 35.1029C66.1538 35.1029 72.1886 42.1109 72.1886 45.8698C72.1886 49.6286 69.4922 52.6867 66.1538 52.6867C62.8154 52.6867 60.119 49.6286 60.119 45.8698Z" fill="white"/>
</svg>
