<svg width="132" height="88" viewBox="0 0 132 88" fill="none" xmlns="http://www.w3.org/2000/svg">
<mask id="mask0_2233_6836" style="mask-type:alpha" maskUnits="userSpaceOnUse" x="22" y="7" width="88" height="74">
<path d="M33.5403 80.9778H66.0018H98.4632C107.119 80.9778 112.395 71.4573 107.808 64.1176L75.3465 12.1793C71.0304 5.27356 60.9731 5.27356 56.657 12.1793L24.1956 64.1176C19.6083 71.4573 24.885 80.9778 33.5403 80.9778Z" fill="#C4C4C4"/>
</mask>
<g mask="url(#mask0_2233_6836)">
<path d="M59.3909 0.703125H66.0027L36.2249 80.9636H6.49609L59.3909 0.703125Z" fill="#692BE0"/>
<path d="M66.0027 0.703125L50.9375 80.9636H35.1211L66.0027 0.703125Z" fill="#814DE5"/>
<path d="M65.6559 0.703125V80.9647H50.9414L65.6559 0.703125Z" fill="#9D75EB"/>
<path d="M65.6572 0.703125L80.3717 80.9636H65.6572V0.703125Z" fill="#BA9DF1"/>
<path d="M65.4512 0.703125L96.1808 80.9636H80.3644L65.4512 0.703125Z" fill="#D6C5F7"/>
<path d="M65.4512 0.703125H72.063L121.101 80.9641H96.1828L65.4512 0.703125Z" fill="#F3EEFC"/>
</g>
<path fill-rule="evenodd" clip-rule="evenodd" d="M72.5401 13.9588C69.5189 9.12476 62.4788 9.12476 59.4575 13.9588L26.9961 65.8971C23.7849 71.0348 27.4787 77.6992 33.5374 77.6992H98.4602C104.519 77.6992 108.213 71.0348 105.002 65.8971L72.5401 13.9588ZM56.6541 12.2067C60.9702 5.3009 71.0274 5.3009 75.3436 12.2067L107.805 64.1449C112.392 71.4846 107.116 81.0052 98.4602 81.0052H33.5374C24.8821 81.0052 19.6053 71.4846 24.1926 64.1449L56.6541 12.2067Z" fill="url(#paint0_linear_2233_6836)"/>
<defs>
<linearGradient id="paint0_linear_2233_6836" x1="65.999" y1="5.54289" x2="65.999" y2="81.0052" gradientUnits="userSpaceOnUse">
<stop stop-color="white"/>
<stop offset="1" stop-color="white" stop-opacity="0"/>
</linearGradient>
</defs>
</svg>
