<svg width="360" height="360" viewBox="0 0 360 360" fill="none" xmlns="http://www.w3.org/2000/svg">
<path d="M64.9616 157.821C64.9616 157.821 68.745 217.863 124.681 218.086C180.617 218.306 184.283 157.821 184.283 157.821C184.283 157.821 192.223 108.476 124.681 50C82.2085 88.9837 62.3021 124.924 64.9616 157.821Z" fill="#F782A9"/>
<path d="M215.197 223.187C215.197 223.187 217.746 263.639 255.432 263.789C293.117 263.937 295.587 223.187 295.587 223.187C295.587 223.187 300.937 189.943 255.432 150.547C226.817 176.811 213.406 201.024 215.197 223.187Z" fill="#B48BD9"/>
<path d="M152.182 281.415C152.182 281.415 153.977 309.894 180.523 310C207.069 310.104 208.809 281.415 208.809 281.415C208.809 281.415 212.577 258.009 180.523 230.273C160.367 248.764 150.92 265.811 152.182 281.415Z" fill="#4ED9AB"/>
</svg>
