<svg width="132" height="88" viewBox="0 0 132 88" fill="none" xmlns="http://www.w3.org/2000/svg">
<path d="M81.9928 12.0156H50.0081C41.1753 12.0156 34.0156 19.1756 34.0156 28.0081V59.9928C34.0156 68.8256 41.1753 75.9852 50.0081 75.9852H81.9928C90.8258 75.9852 97.9854 68.8256 97.9854 59.9928V28.0081C97.9854 19.1756 90.8258 12.0156 81.9928 12.0156Z" fill="#030405"/>
<path d="M82.226 73.6114C61.513 67.4484 42.5869 49.8737 36.2549 27.8002C33.819 19.3104 41.1745 12.0156 50.0073 12.0156H81.9923C90.825 12.0156 97.9846 19.1756 97.9846 28.0081V59.9928C97.9846 68.8256 90.6922 76.1301 82.226 73.6114Z" fill="url(#paint0_radial_2056_26696)"/>
<defs>
<radialGradient id="paint0_radial_2056_26696" cx="0" cy="0" r="1" gradientUnits="userSpaceOnUse" gradientTransform="translate(94.4866 15.7638) rotate(127.081) scale(67.9682 67.9682)">
<stop stop-color="#00C4FF"/>
<stop offset="1" stop-color="#307CEF"/>
</radialGradient>
</defs>
</svg>
