<svg width="132" height="88" viewBox="0 0 132 88" fill="none" xmlns="http://www.w3.org/2000/svg">
<rect x="32.3125" y="10.3125" width="67.375" height="67.375" rx="15.3634" fill="#C11D8D"/>
<path d="M77.1727 58.2051C74.4565 60.6146 70.9831 61.8193 66.7524 61.8193C61.5176 61.8193 57.4022 60.1917 54.4061 56.9365C51.4101 53.6653 49.9121 49.1813 49.9121 43.4847C49.9121 37.3252 51.6159 32.578 55.0235 29.243C57.9866 26.3388 61.7563 24.8867 66.3326 24.8867C72.4564 24.8867 76.934 26.8335 79.7654 30.727C81.3292 32.9131 82.1688 35.1072 82.284 37.3093H74.6787C74.1849 35.6178 73.5511 34.3413 72.7774 33.4796C71.3946 31.9477 69.3451 31.1818 66.629 31.1818C63.8634 31.1818 61.6822 32.2669 60.0854 34.437C58.4886 36.5912 57.6903 39.647 57.6903 43.6043C57.6903 47.5617 58.5298 50.5297 60.2089 52.5084C61.9044 54.4711 64.0527 55.4525 66.6536 55.4525C69.3204 55.4525 71.3535 54.6067 72.7527 52.9153C73.5264 52.0057 74.1684 50.6414 74.6787 48.8223H82.2099C81.5515 52.668 79.8724 55.7955 77.1727 58.2051Z" fill="#F5F5F7"/>
</svg>
