<svg width="132" height="88" viewBox="0 0 132 88" fill="none" xmlns="http://www.w3.org/2000/svg">
<path d="M66.0004 78.0984C84.8333 78.0984 100.1 62.8313 100.1 43.9984C100.1 25.1655 84.8333 9.89844 66.0004 9.89844C47.1675 9.89844 31.9004 25.1655 31.9004 43.9984C31.9004 62.8313 47.1675 78.0984 66.0004 78.0984Z" fill="#3744B0"/>
<path fill-rule="evenodd" clip-rule="evenodd" d="M60.7316 42.9338C60.7951 42.6808 60.8662 42.4293 60.9449 42.1799C61.5484 40.2672 62.5829 38.5186 63.9684 37.0686C65.3542 35.6187 67.0543 34.5062 68.9377 33.8169C70.8211 33.1275 72.8376 32.8797 74.8319 33.0923C76.8261 33.3051 78.7451 33.9728 80.4407 35.0438C82.1363 36.115 83.5633 37.5611 84.6122 39.2707C85.4729 40.6739 86.0599 42.2238 86.3456 43.8386C86.4493 44.4237 86.0099 44.9493 85.4182 45.0046L77.5139 45.7425C76.9223 45.7978 76.4141 45.3468 76.1554 44.8116C76.1118 44.7212 76.0635 44.6329 76.0108 44.547C75.7697 44.1538 75.4414 43.8212 75.0515 43.5749C74.6615 43.3286 74.2203 43.1751 73.7615 43.1261C73.3029 43.0772 72.8392 43.1341 72.4062 43.2927C71.9729 43.4513 71.5818 43.7071 71.2633 44.0405C70.9446 44.3739 70.7067 44.7761 70.5679 45.216C70.4291 45.6559 70.3932 46.1217 70.4628 46.5776C70.478 46.6772 70.4982 46.776 70.5232 46.8732C70.5329 46.9113 70.5417 46.9499 70.5493 46.9888C71.9234 46.5858 73.366 46.4076 74.8221 46.4726C78.1669 46.6224 81.3276 48.0469 83.6553 50.4537C85.7329 52.6019 87.0062 55.3869 87.283 58.3409C87.3384 58.9325 86.8576 59.4207 86.2634 59.4274L78.82 59.512C78.2257 59.5187 77.7542 59.0313 77.5684 58.4669C77.4043 57.9684 77.1288 57.5087 76.7579 57.1248C76.1346 56.4805 75.2883 56.0991 74.3928 56.0589C73.4972 56.0189 72.6202 56.3231 71.9419 56.9092C71.538 57.2582 71.2228 57.6915 71.0146 58.1733C70.9454 58.3341 70.852 58.4857 70.7395 58.6184C70.545 59.2913 69.9245 59.7834 69.1889 59.7834H62.819C61.9277 59.7834 61.205 59.0608 61.205 58.1695V54.0153C61.1492 54.0297 61.093 54.0436 61.0369 54.0571C58.1789 54.7476 55.1715 54.4567 52.4988 53.2314C49.8259 52.0061 47.6429 49.9173 46.3006 47.3013C44.9583 44.6852 44.5349 41.6937 45.0984 38.8079C45.6618 35.922 47.1795 33.3097 49.4073 31.3906C51.635 29.4716 54.4434 28.3575 57.3807 28.2277C59.9588 28.1136 62.5047 28.7634 64.7038 30.0834C65.2133 30.3892 65.3216 31.0657 64.9751 31.5483L60.4581 37.8394C60.1116 38.3222 59.4387 38.4112 58.8686 38.2429C58.5303 38.143 58.1755 38.0988 57.8181 38.1147C57.0992 38.1464 56.4116 38.4191 55.8663 38.8887C55.3209 39.3586 54.9494 39.9981 54.8115 40.7044C54.6736 41.4108 54.7772 42.1433 55.1059 42.7834C55.4344 43.4239 55.9688 43.9351 56.6229 44.235C57.2772 44.5351 58.0135 44.6062 58.713 44.4372C59.4126 44.2682 60.035 43.8688 60.4803 43.3033C60.573 43.1855 60.6569 43.0622 60.7316 42.9338Z" fill="#FAFAFA"/>
</svg>
