<svg width="132" height="88" viewBox="0 0 132 88" fill="none" xmlns="http://www.w3.org/2000/svg">
<path d="M57.1905 60.8377L40.6327 44.4162C39.8971 43.6892 39.313 42.8235 38.9144 41.8691C38.5158 40.9147 38.3105 39.8908 38.3105 38.8565C38.3105 37.8222 38.5158 36.7983 38.9144 35.8439C39.313 34.8896 39.8971 34.0238 40.6327 33.2968L61.276 12.8221C64.3713 9.752 69.3917 9.752 72.4875 12.8221L89.0453 29.2436L57.1905 60.8377Z" fill="#26D07C"/>
<path d="M45.0488 60.8275L59.5138 75.1733C62.6096 78.2444 67.6291 78.2444 70.7249 75.1733L91.3686 54.6996C92.1042 53.9726 92.6882 53.1069 93.0867 52.1526C93.4853 51.1982 93.6905 50.1743 93.6905 49.1401C93.6905 48.1059 93.4853 47.082 93.0867 46.1277C92.6882 45.1734 92.1042 44.3076 91.3686 43.5806L76.9041 29.2344L45.0488 60.8275Z" fill="#00A3E0"/>
<path d="M89.0452 29.2383L82.9737 35.2598L76.9023 29.2383H89.0452Z" fill="#005587"/>
</svg>
