<svg width="132" height="88" viewBox="0 0 132 88" fill="none" xmlns="http://www.w3.org/2000/svg">
<path fill-rule="evenodd" clip-rule="evenodd" d="M74.3041 14.1061C74.3041 15.0362 73.5737 15.767 72.6428 15.767C71.7133 15.767 70.9826 15.0362 70.9826 14.1061C70.9826 13.176 71.7133 12.4453 72.6428 12.4453C73.5737 12.4453 74.3041 13.176 74.3041 14.1061ZM46.0698 20.7494C44.2422 20.7494 42.7473 22.2441 42.7473 24.0712C42.7473 25.898 44.2422 27.3927 46.0698 27.3927C47.8964 27.3927 49.3913 25.898 49.3913 24.0712C49.3913 22.2441 47.8964 20.7494 46.0698 20.7494ZM46.0698 34.0361C44.2422 34.0361 42.7473 35.531 42.7473 37.3581C42.7473 39.1847 44.2422 40.6796 46.0698 40.6796C47.8964 40.6796 49.3913 39.1847 49.3913 37.3581C49.3913 35.531 47.8964 34.0361 46.0698 34.0361ZM42.7473 50.6447C42.7473 48.8179 44.2422 47.323 46.0698 47.323C47.8964 47.323 49.3913 48.8179 49.3913 50.6447C49.3913 52.4716 47.8964 53.9665 46.0698 53.9665C44.2422 53.9665 42.7473 52.4716 42.7473 50.6447ZM42.7473 63.9314C42.7473 62.1045 44.2422 60.6096 46.0698 60.6096C47.8964 60.6096 49.3913 62.1045 49.3913 63.9314C49.3913 65.7582 47.8964 67.2528 46.0698 67.2528C44.2422 67.2528 42.7473 65.7582 42.7473 63.9314ZM34.4434 37.3578C34.4434 36.4278 35.1738 35.6971 36.1046 35.6971C37.0343 35.6971 37.7648 36.4278 37.7648 37.3578C37.7648 38.2879 37.0343 39.0188 36.1046 39.0188C35.1738 39.0188 34.4434 38.2879 34.4434 37.3578ZM97.5559 37.3578C97.5559 38.2879 96.8255 39.0188 95.8957 39.0188C94.9648 39.0188 94.2344 38.2879 94.2344 37.3578C94.2344 36.4278 94.9648 35.6971 95.8957 35.6971C96.8255 35.6971 97.5559 36.4278 97.5559 37.3578ZM72.6428 27.3927C74.4704 27.3927 75.9653 25.898 75.9653 24.0712C75.9653 22.2441 74.4704 20.7494 72.6428 20.7494C70.8162 20.7494 69.3216 22.2441 69.3216 24.0712C69.3216 25.898 70.8162 27.3927 72.6428 27.3927ZM36.1046 48.9837C35.1738 48.9837 34.4434 49.7147 34.4434 50.6447C34.4434 51.5748 35.1738 52.3057 36.1046 52.3057C37.0343 52.3057 37.7648 51.5748 37.7648 50.6447C37.7648 49.7147 37.0343 48.9837 36.1046 48.9837ZM57.6952 73.8965C57.6952 72.9668 58.4267 72.2355 59.3564 72.2355C60.2859 72.2355 61.0174 72.9668 61.0174 73.8965C61.0174 74.8263 60.2859 75.5578 59.3564 75.5578C58.4267 75.5578 57.6952 74.8263 57.6952 73.8965ZM59.3564 15.767C60.2859 15.767 61.0174 15.0362 61.0174 14.1061C61.0174 13.176 60.2859 12.4453 59.3564 12.4453C58.4267 12.4453 57.6952 13.176 57.6952 14.1061C57.6952 15.0362 58.4267 15.767 59.3564 15.767ZM62.6776 24.0712C62.6776 25.898 61.183 27.3927 59.3564 27.3927C57.5296 27.3927 56.035 25.898 56.035 24.0712C56.035 22.2441 57.5296 20.7494 59.3564 20.7494C61.183 20.7494 62.6776 22.2441 62.6776 24.0712ZM59.3564 45.662C56.599 45.662 54.3737 47.8876 54.3737 50.6447C54.3737 53.4016 56.599 55.6272 59.3564 55.6272C62.1136 55.6272 64.3389 53.4016 64.3389 50.6447C64.3389 47.8876 62.1136 45.662 59.3564 45.662ZM82.608 50.6447C82.608 48.8179 84.1029 47.323 85.9305 47.323C87.7571 47.323 89.252 48.8179 89.252 50.6447C89.252 52.4716 87.7571 53.9665 85.9305 53.9665C84.1029 53.9665 82.608 52.4716 82.608 50.6447ZM85.9305 60.6096C84.1029 60.6096 82.608 62.1045 82.608 63.9314C82.608 65.7582 84.1029 67.2528 85.9305 67.2528C87.7571 67.2528 89.252 65.7582 89.252 63.9314C89.252 62.1045 87.7571 60.6096 85.9305 60.6096ZM82.608 37.3581C82.608 35.531 84.1029 34.0361 85.9305 34.0361C87.7571 34.0361 89.252 35.531 89.252 37.3581C89.252 39.1847 87.7571 40.6796 85.9305 40.6796C84.1029 40.6796 82.608 39.1847 82.608 37.3581ZM85.9305 20.7494C84.1029 20.7494 82.608 22.2441 82.608 24.0712C82.608 25.898 84.1029 27.3927 85.9305 27.3927C87.7571 27.3927 89.252 25.898 89.252 24.0712C89.252 22.2441 87.7571 20.7494 85.9305 20.7494ZM94.2344 50.6447C94.2344 49.7147 94.9648 48.9837 95.8957 48.9837C96.8255 48.9837 97.5559 49.7147 97.5559 50.6447C97.5559 51.5748 96.8255 52.3057 95.8957 52.3057C94.9648 52.3057 94.2344 51.5748 94.2344 50.6447ZM72.6428 60.6096C70.8162 60.6096 69.3216 62.1045 69.3216 63.9314C69.3216 65.7582 70.8162 67.2528 72.6428 67.2528C74.4704 67.2528 75.9653 65.7582 75.9653 63.9314C75.9653 62.1045 74.4704 60.6096 72.6428 60.6096ZM70.9826 73.8965C70.9826 72.9668 71.7133 72.2355 72.6428 72.2355C73.5737 72.2355 74.3041 72.9668 74.3041 73.8965C74.3041 74.8263 73.5737 75.5578 72.6428 75.5578C71.7133 75.5578 70.9826 74.8263 70.9826 73.8965ZM59.3564 32.3754C56.599 32.3754 54.3737 34.601 54.3737 37.3581C54.3737 40.115 56.599 42.3406 59.3564 42.3406C62.1136 42.3406 64.3389 40.115 64.3389 37.3581C64.3389 34.601 62.1136 32.3754 59.3564 32.3754ZM56.035 63.9314C56.035 62.1045 57.5296 60.6096 59.3564 60.6096C61.183 60.6096 62.6776 62.1045 62.6776 63.9314C62.6776 65.7582 61.183 67.2528 59.3564 67.2528C57.5296 67.2528 56.035 65.7582 56.035 63.9314ZM72.6428 45.662C69.8865 45.662 67.6603 47.8876 67.6603 50.6447C67.6603 53.4016 69.8865 55.6272 72.6428 55.6272C75.4002 55.6272 77.6255 53.4016 77.6255 50.6447C77.6255 47.8876 75.4002 45.662 72.6428 45.662ZM67.6603 37.3581C67.6603 34.601 69.8865 32.3754 72.6428 32.3754C75.4002 32.3754 77.6255 34.601 77.6255 37.3581C77.6255 40.115 75.4002 42.3406 72.6428 42.3406C69.8865 42.3406 67.6603 40.115 67.6603 37.3581Z" fill="#0EF275"/>
</svg>
