<svg width="360" height="360" viewBox="0 0 360 360" fill="none" xmlns="http://www.w3.org/2000/svg">
<path fill-rule="evenodd" clip-rule="evenodd" d="M59 180C59 113.174 113.174 59 180 59C246.826 59 301 113.174 301 180C301 246.826 246.826 301 180 301C113.174 301 59 246.826 59 180Z" fill="#0B91E8"/>
<path d="M262.055 166.313C264.568 163.668 267.543 159.833 268.667 157.85C269.857 155.668 271.114 154.213 271.775 154.213C272.37 154.213 273.494 154.742 274.221 155.271C274.949 155.866 276.205 157.254 277.065 158.378C277.858 159.569 278.519 161.354 278.519 162.478C278.519 163.602 278.122 165.519 277.593 166.776C277.065 168.032 275.213 170.677 273.494 172.66C271.709 174.644 268.469 177.421 266.287 178.876C264.105 180.396 259.939 182.975 257.03 184.628C254.121 186.281 249.03 188.794 245.79 190.248C242.484 191.637 237.326 193.488 234.219 194.348C231.111 195.207 228.003 196.265 227.276 196.794C226.549 197.257 224.499 199.373 222.648 201.555C220.862 203.671 217.424 207.374 215.044 209.754C212.267 212.465 208.762 215.043 205.39 216.829C202.547 218.35 198.249 220.003 195.869 220.531C193.489 221.127 189.786 221.722 187.604 221.986C185.025 222.251 181.918 222.052 178.678 221.391C175.636 220.73 170.809 218.945 158.511 212.862L148.593 213.258C143.105 213.523 133.782 213.853 127.765 214.118C120.822 214.382 114.343 214.25 109.913 213.787C106.078 213.324 100.59 212.531 97.6804 211.936C94.7711 211.407 90.0104 210.217 87.1011 209.225C84.1918 208.299 80.8197 206.845 79.6296 205.985C78.5055 205.192 76.9186 203.472 76.1913 202.282C75.464 201.158 74.8689 199.307 74.8689 198.183C74.8689 197.059 75.464 195.207 76.1913 194.017C76.9186 192.893 77.7782 191.901 78.1749 191.901C78.5055 191.901 80.6875 192.893 82.9356 194.15C85.2498 195.34 89.1509 197.125 91.7296 198.051C94.2421 199.042 98.7383 200.365 101.648 201.092C104.557 201.819 109.45 202.943 112.557 203.539C116.591 204.266 123.599 204.663 137.353 204.927C149.717 205.125 159.106 204.993 163.801 204.464C167.768 204.068 174.644 203.142 179.008 202.415C183.372 201.687 190.645 200.166 195.208 199.109C199.77 198.051 206.713 196.133 210.746 194.811C214.713 193.554 221.854 190.91 226.615 188.926C231.309 186.942 237.855 183.769 241.161 181.917C244.401 180.066 249.426 176.826 252.336 174.776C255.179 172.727 259.543 168.892 262.055 166.313Z" fill="#61609A"/>
<path d="M246.781 155.006C246.847 154.411 248.104 152.692 249.625 151.171C251.145 149.716 252.997 148.394 253.724 148.328C254.451 148.262 257.757 148.923 260.997 149.716C264.237 150.576 267.741 151.766 268.733 152.427C269.791 153.022 270.585 153.75 270.585 154.014C270.585 154.345 269.659 156.13 268.601 157.981C267.477 159.899 264.568 163.668 262.055 166.246C259.543 168.891 255.179 172.726 252.335 174.776C249.426 176.826 244.401 180.066 241.161 181.917C237.921 183.768 231.309 186.942 226.615 188.926C221.92 190.909 214.713 193.554 210.746 194.81C206.713 196.133 199.77 198.05 195.208 199.108C190.645 200.166 183.372 201.687 179.008 202.414C174.644 203.141 167.768 204.067 163.8 204.464C159.106 204.993 149.717 205.125 137.352 204.927C123.599 204.662 116.591 204.266 112.557 203.538C109.45 202.943 104.557 201.819 101.647 201.092C98.7382 200.364 94.242 199.042 91.7294 198.05C89.1508 197.125 85.1174 195.273 82.6049 193.951C80.1584 192.628 78.1748 191.372 78.1748 191.041C78.1748 190.777 80.0262 188.926 82.2743 186.876C84.5885 184.892 88.159 182.049 90.2087 180.594C92.3245 179.206 94.242 178.016 94.5065 178.016C94.8371 178.082 95.2999 178.479 95.6967 179.008C96.0273 179.537 97.548 180.33 98.9366 180.793C100.325 181.256 101.846 182.115 102.176 182.644C102.639 183.372 102.441 184.165 101.383 185.62C100.259 187.206 99.9945 188.331 100.127 191.24C100.325 194.81 100.391 194.876 103.3 196.397C104.953 197.191 109.119 198.315 112.557 198.91C117.053 199.637 122.145 199.902 130.476 199.703C141.055 199.505 142.311 199.373 143.634 198.182C144.89 196.992 145.022 196.397 144.692 193.223C144.493 191.24 144.097 188.397 143.502 184.297L151.7 183.834C156.131 183.57 163.867 182.776 168.76 182.049C173.652 181.322 182.116 179.669 187.604 178.413C193.026 177.156 200.497 175.173 204.134 174.049C207.77 172.858 214.118 170.61 218.151 169.023C222.251 167.437 225.887 166.246 226.284 166.445C226.615 166.643 227.54 168.428 228.268 170.412C228.995 172.396 229.59 174.71 229.59 175.503C229.59 176.363 229.921 177.421 230.384 177.884C230.846 178.346 231.904 178.677 232.698 178.677C233.557 178.677 235.673 178.082 237.525 177.355C239.31 176.627 242.417 175.106 244.269 173.916C246.186 172.792 249.029 170.61 250.616 169.156C252.931 166.908 253.393 166.048 253.393 163.932C253.393 162.61 253.063 160.891 252.732 160.163C252.335 159.436 250.881 158.246 249.426 157.519C247.839 156.725 246.781 155.733 246.781 155.006Z" fill="#54BAD0"/>
<path d="M207.969 150.973C211.143 149.849 213.92 148.46 214.184 147.865C214.581 147.006 214.911 147.072 216.234 148.394C217.093 149.254 219.209 151.965 220.928 154.543C222.648 157.056 224.631 160.56 225.358 162.279C226.02 164.065 226.482 165.585 226.284 165.718C226.086 165.85 222.515 167.304 218.35 168.957C214.184 170.61 207.77 172.859 204.134 174.049C200.497 175.173 193.092 177.156 187.604 178.413C182.182 179.669 173.652 181.322 168.76 182.049C163.867 182.777 156.064 183.57 142.973 184.297V178.677C142.973 175.239 143.502 171.073 145.617 162.808H150.907C153.816 162.808 159.238 162.345 163.007 161.817C166.71 161.288 173.454 160.031 178.016 159.106C182.579 158.18 187.802 156.99 189.587 156.527C191.439 155.998 195.009 155.006 197.522 154.279C200.101 153.551 204.729 152.097 207.969 150.973Z" fill="#5FDDE0"/>
<path d="M231.64 149.386C231.177 148.923 230.979 148.196 231.177 147.733C231.486 147.204 233.337 146.939 236.731 146.939C239.508 146.939 244.137 147.138 246.98 147.402C250.352 147.733 252.071 148.196 252.071 148.725C252.071 149.188 250.881 150.576 249.426 151.7C247.972 152.89 246.781 154.279 246.781 154.676C246.781 155.204 245.922 155.535 244.798 155.535C243.74 155.535 240.5 154.345 237.723 152.89C234.88 151.37 232.169 149.849 231.64 149.386Z" fill="#5FDDE0"/>
<path d="M98.8705 175.57C100.722 174.644 104.821 172.726 107.929 171.338C111.037 169.949 114.21 168.759 115.07 168.759C115.996 168.759 116.525 169.156 116.525 169.883C116.525 170.544 114.078 173.454 111.103 176.429C108.061 179.338 105.086 182.182 104.425 182.71C103.433 183.504 103.168 183.504 102.11 182.512C101.515 181.917 99.7962 180.991 98.3415 180.529C96.7546 180 95.6306 179.206 95.5645 178.479C95.4322 177.685 96.424 176.826 98.8705 175.57Z" fill="#5FDDE0"/>
<path d="M167.768 140.262C169.95 139.27 173.851 138.014 176.363 137.485C178.876 136.89 183.174 136.427 185.752 136.427C188.397 136.361 192.761 136.824 195.34 137.353C197.985 137.948 202.283 139.403 204.795 140.659C207.308 141.849 210.614 143.833 212.002 145.089C213.589 146.411 214.449 147.602 214.184 148.064C213.92 148.527 211.143 149.85 207.969 150.974C204.729 152.098 200.034 153.552 197.522 154.28C195.009 155.007 191.373 155.999 189.587 156.528C187.802 156.991 182.579 158.181 178.016 159.106C173.454 160.032 166.71 161.288 163.007 161.817C159.238 162.346 153.949 162.809 151.238 162.809C148.527 162.809 146.279 162.611 146.279 162.28C146.279 162.016 147.337 160.032 148.659 157.85C149.981 155.668 152.031 152.693 153.155 151.238C154.345 149.783 157.255 147.139 159.569 145.353C161.883 143.568 165.586 141.32 167.768 140.262Z" fill="#CDECE4"/>
</svg>
