<svg width="132" height="88" viewBox="0 0 132 88" fill="none" xmlns="http://www.w3.org/2000/svg">
<path d="M66.0004 78.0984C84.8333 78.0984 100.1 62.8313 100.1 43.9984C100.1 25.1655 84.8333 9.89844 66.0004 9.89844C47.1675 9.89844 31.9004 25.1655 31.9004 43.9984C31.9004 62.8313 47.1675 78.0984 66.0004 78.0984Z" fill="#1B1B1B"/>
<path d="M65.9997 30.0424C68.9271 30.0424 71.3003 27.6693 71.3003 24.7419C71.3003 21.8145 68.9271 19.4414 65.9997 19.4414C63.0723 19.4414 60.6992 21.8145 60.6992 24.7419C60.6992 27.6693 63.0723 30.0424 65.9997 30.0424Z" fill="#CE372E"/>
<path d="M65.9997 68.7338C68.9271 68.7338 71.3003 66.3607 71.3003 63.4333C71.3003 60.5059 68.9271 58.1328 65.9997 58.1328C63.0723 58.1328 60.6992 60.5059 60.6992 63.4333C60.6992 66.3607 63.0723 68.7338 65.9997 68.7338Z" fill="#66DCDD"/>
<path d="M85.2595 49.476C88.1869 49.476 90.56 47.1029 90.56 44.1755C90.56 41.2481 88.1869 38.875 85.2595 38.875C82.3321 38.875 79.959 41.2481 79.959 44.1755C79.959 47.1029 82.3321 49.476 85.2595 49.476Z" fill="#96DC4B"/>
<path d="M46.5642 49.476C49.4916 49.476 51.8647 47.1029 51.8647 44.1755C51.8647 41.2481 49.4916 38.875 46.5642 38.875C43.6368 38.875 41.2637 41.2481 41.2637 44.1755C41.2637 47.1029 43.6368 49.476 46.5642 49.476Z" fill="#752FD7"/>
<path d="M51.865 63.4331C54.7924 63.4331 57.1655 61.0599 57.1655 58.1325C57.1655 55.2052 54.7924 52.832 51.865 52.832C48.9376 52.832 46.5645 55.2052 46.5645 58.1325C46.5645 61.0599 48.9376 63.4331 51.865 63.4331Z" fill="#2B52D7"/>
<path d="M51.865 35.3393C54.7924 35.3393 57.1655 32.9662 57.1655 30.0388C57.1655 27.1114 54.7924 24.7383 51.865 24.7383C48.9376 24.7383 46.5645 27.1114 46.5645 30.0388C46.5645 32.9662 48.9376 35.3393 51.865 35.3393Z" fill="#CE3AAA"/>
<path d="M79.9587 35.3393C82.8861 35.3393 85.2592 32.9662 85.2592 30.0388C85.2592 27.1114 82.8861 24.7383 79.9587 24.7383C77.0313 24.7383 74.6582 27.1114 74.6582 30.0388C74.6582 32.9662 77.0313 35.3393 79.9587 35.3393Z" fill="#D8B043"/>
<path d="M79.9587 63.6088C82.8861 63.6088 85.2592 61.2357 85.2592 58.3083C85.2592 55.3809 82.8861 53.0078 79.9587 53.0078C77.0313 53.0078 74.6582 55.3809 74.6582 58.3083C74.6582 61.2357 77.0313 63.6088 79.9587 63.6088Z" fill="#67DB64"/>
</svg>
