<svg width="132" height="88" viewBox="0 0 132 88" fill="none" xmlns="http://www.w3.org/2000/svg">
<path d="M100.008 26.9329H31.9941C32.3742 19.926 33.3803 15.6065 36.043 12.9438C40.3227 8.66406 48.8821 8.66406 66.0008 8.66406C83.1196 8.66406 91.679 8.66406 95.9586 12.9438C98.6214 15.6065 99.6274 19.926 100.008 26.9329Z" fill="#76E7FC"/>
<path d="M100.008 61.071H31.9941C32.3742 68.0779 33.3803 72.3974 36.043 75.0602C40.3227 79.3398 48.8821 79.3398 66.0008 79.3398C83.1196 79.3398 91.679 79.3398 95.9586 75.0602C98.6214 72.3974 99.6274 68.0779 100.008 61.071Z" fill="#30005D"/>
<path fill-rule="evenodd" clip-rule="evenodd" d="M99.9641 44.1375V26.8125H32.0391V44.1375H53.0466C53.0448 44.0461 53.0438 43.9544 53.0438 43.8625C53.0438 36.7242 58.784 30.9375 65.865 30.9375C72.9459 30.9375 78.6862 36.7242 78.6862 43.8625C78.6862 43.9544 78.6852 44.0461 78.6833 44.1375H99.9641Z" fill="#FFCC00"/>
<path fill-rule="evenodd" clip-rule="evenodd" d="M65.865 56.7883C72.9459 56.7883 78.6862 51.0016 78.6862 43.8633H99.9641V61.1883H32.0391V43.8633H53.0438C53.0438 51.0016 58.784 56.7883 65.865 56.7883Z" fill="#F4166A"/>
</svg>
