<svg width="132" height="88" viewBox="0 0 132 88" fill="none" xmlns="http://www.w3.org/2000/svg">
<path fill-rule="evenodd" clip-rule="evenodd" d="M95.0924 23.5468C91.9861 23.5468 89.0066 24.7841 86.8094 26.9867C84.6128 29.1895 83.3783 32.1773 83.3783 35.292V58.631C83.3783 60.1982 83.9994 61.7017 85.1051 62.8104C86.2103 63.9186 87.7096 64.5414 89.2734 64.5414H93.153C96.2596 64.5414 99.239 63.3039 101.435 61.1015C103.633 58.8987 104.867 55.911 104.867 52.7962V29.4572C104.867 27.8902 104.246 26.3869 103.141 25.2783C102.034 24.1693 100.535 23.5468 98.972 23.5468H95.0924ZM81.4295 21.5927C85.0534 17.9596 89.968 15.9184 95.0924 15.9184H98.972C102.554 15.9184 105.987 17.345 108.52 19.8834L108.52 19.8839C111.052 22.4227 112.475 25.8662 112.475 29.4572V52.7962C112.475 57.9346 110.439 62.8623 106.815 66.4955C103.192 70.1287 98.2772 72.1697 93.153 72.1697H89.2734C85.692 72.1697 82.2573 70.7434 79.725 68.2042C77.1931 65.6655 75.77 62.2219 75.77 58.631V35.292C75.77 30.1536 77.8066 25.2257 81.4295 21.5927Z" fill="#1F2AFF"/>
<path fill-rule="evenodd" clip-rule="evenodd" d="M19.5254 29.4116C19.5254 21.6723 25.7827 15.3984 33.5015 15.3984H58.2338C65.9526 15.3984 72.2099 21.6723 72.2099 29.4116V58.5853C72.2099 66.3245 65.9526 72.5984 58.2338 72.5984H33.5015C25.7827 72.5984 19.5254 66.3245 19.5254 58.5853V29.4116ZM33.5015 23.9755C30.5072 23.9755 28.0798 26.4093 28.0798 29.4116V58.5853C28.0798 61.5876 30.5072 64.0214 33.5015 64.0214H58.2338C61.2281 64.0214 63.6555 61.5876 63.6555 58.5853V29.4116C63.6555 26.4093 61.2281 23.9755 58.2338 23.9755H33.5015Z" fill="#1F2AFF"/>
</svg>
