<svg width="132" height="88" viewBox="0 0 132 88" fill="none" xmlns="http://www.w3.org/2000/svg">
<path d="M62.7657 7.55031C56.1863 8.1302 49.518 10.6613 44.256 14.5864C34.8668 21.6 29.4258 32.3826 29.4258 44.0016C29.4258 55.643 34.9112 66.4918 44.3112 73.4507C53.9347 80.5754 66.5903 82.5049 77.9634 78.5686C85.5345 75.9594 91.9901 70.9411 96.4957 64.1841C104.602 52.019 104.602 35.9842 96.4957 23.8191C91.3659 16.1252 83.7503 10.7394 74.8519 8.50932C71.0947 7.56149 66.6347 7.21589 62.7657 7.55031ZM70.1471 22.4253C78.6106 23.4176 84.6758 28.257 86.5048 35.5049C86.817 36.7424 87.0729 38.5937 87.0729 39.6419V40.545H80.0035H72.9344L72.8562 39.9094C72.4551 36.6869 70.7153 34.39 68.2173 33.7988C65.4193 33.1408 62.8101 34.4678 61.4724 37.2444C60.5021 39.2514 60.1228 41.6041 60.2343 44.9495C60.3676 48.7184 61.1819 51.2271 62.8101 52.8551C64.951 54.996 68.6859 55.0184 70.7931 52.8998C71.8415 51.8517 72.6558 50.023 72.8681 48.2054L72.9344 47.5698H80.0035H87.0729V48.328C87.0729 49.9115 86.65 52.32 86.0702 54.0595C85.2115 56.6129 83.9734 58.6089 82.0114 60.5602C78.242 64.318 73.3364 66.0799 66.6118 66.0799C60.7578 66.0799 56.376 64.7753 52.5179 61.8982C50.1763 60.1477 48.3255 57.9065 46.9878 55.2081C45.2707 51.7401 44.5898 48.6068 44.5898 44.1689C44.5898 40.9685 44.9465 38.5156 45.7715 36.0289C48.2921 28.3909 54.5363 23.451 62.9554 22.4253C64.6388 22.2246 68.4189 22.2246 70.1471 22.4253Z" fill="black"/>
</svg>
