<svg width="132" height="88" viewBox="0 0 132 88" fill="none" xmlns="http://www.w3.org/2000/svg">
<path d="M31.5716 40.3965C30.995 47.2029 31.5536 54.0542 33.2255 60.6788L33.2247 60.6655C33.895 63.6941 35.1825 66.5565 37.0095 69.0802C38.8365 71.6039 41.1652 73.7365 43.855 75.3492C46.5447 76.9618 49.5399 78.0213 52.6598 78.4635C55.7796 78.9059 58.9595 78.7221 62.0075 77.9229C74.9819 74.8597 86.696 67.9569 95.568 58.1466C98.4763 54.8381 100.235 50.7043 100.587 46.3485C101.019 40.5349 99.0929 34.7944 95.2302 30.3819C95.2302 30.3819 85.8837 18.8211 64.2698 10.8885C54.2962 7.02481 42.8457 10.3592 37.299 19.2958C36.7 20.2614 36.1822 21.2735 35.7511 22.322L35.7503 22.3085C33.4172 28.0913 32.0068 34.1922 31.569 40.3952" fill="url(#paint0_linear_2056_26868)"/>
<path d="M78.2952 47.1723H62.5026C61.9493 47.1723 61.5005 47.6211 61.5005 48.1745V63.9675C61.491 64.2646 61.6253 64.5482 61.8613 64.729C62.0766 64.9285 62.3757 65.0109 62.663 64.9494C71.2072 63.5789 77.9066 56.8792 79.2773 48.3348C79.3387 48.0475 79.2565 47.7485 79.0568 47.5332C78.876 47.2972 78.5923 47.1629 78.2952 47.1723Z" fill="black" fill-opacity="0.5"/>
<path d="M43.8349 47.2585L59.6272 47.3693C60.1806 47.3731 60.6261 47.8248 60.6222 48.3782L60.5123 64.1708C60.5198 64.4681 60.3836 64.7508 60.1462 64.9298C59.9296 65.128 59.6299 65.208 59.343 65.1448C50.8086 63.7143 44.1558 56.9677 42.8448 48.4141C42.7854 48.1264 42.8698 47.8279 43.0709 47.6139C43.2533 47.3791 43.5378 47.2469 43.8349 47.2585Z" fill="black" fill-opacity="0.5"/>
<path d="M61.3755 45.2989V29.5059C61.3658 29.2088 61.5003 28.9252 61.7363 28.7444C61.9516 28.5447 62.2507 28.4625 62.538 28.5238C71.082 29.8943 77.7816 36.5942 79.1521 45.1386C79.2137 45.4257 79.1313 45.7247 78.9318 45.9403C78.751 46.1762 78.4674 46.3105 78.1702 46.3009H62.3776C61.8241 46.3009 61.3755 45.8523 61.3755 45.2989Z" fill="black" fill-opacity="0.5"/>
<path d="M60.5056 45.2989V29.5059C60.5153 29.2088 60.381 28.9252 60.1448 28.7444C59.9295 28.5447 59.6304 28.4625 59.3431 28.5238C50.7991 29.8943 44.0994 36.5942 42.7289 45.1386C42.6675 45.4257 42.7498 45.7247 42.9494 45.9403C43.1302 46.1762 43.4138 46.3105 43.711 46.3009H59.5035C60.057 46.3009 60.5056 45.8523 60.5056 45.2989Z" fill="black" fill-opacity="0.5"/>
<path d="M78.6681 44.7153H62.8755C62.3221 44.7153 61.8735 45.1639 61.8735 45.7175V61.5103C61.8639 61.8074 61.9982 62.091 62.2341 62.2718C62.4497 62.4715 62.7487 62.5537 63.0358 62.4924C71.58 61.1219 78.2797 54.422 79.6502 45.8778C79.7115 45.5905 79.6293 45.2915 79.4296 45.0761C79.2488 44.84 78.9652 44.7057 78.6681 44.7153Z" fill="#14FF64"/>
<path d="M44.2119 44.8015L60.004 44.9121C60.5574 44.9159 61.0029 45.3678 60.9991 45.9212L60.8893 61.7138C60.8968 62.0109 60.7606 62.2936 60.5233 62.4728C60.3064 62.671 60.0067 62.751 59.72 62.6875C51.1857 61.2572 44.5328 54.5107 43.2218 45.9569C43.1624 45.6694 43.2467 45.3709 43.4478 45.1569C43.6303 44.9221 43.9148 44.7897 44.2119 44.8015Z" fill="#FE0BEA"/>
<path d="M61.7524 42.8458V27.0528C61.743 26.7557 61.8773 26.472 62.1132 26.2912C62.3286 26.0915 62.6276 26.0094 62.9149 26.0707C71.4591 27.4414 78.1586 34.141 79.5293 42.6854C79.5906 42.9725 79.5084 43.2718 79.3087 43.4871C79.1279 43.7231 78.8443 43.8574 78.5472 43.8479H62.7546C62.2012 43.8479 61.7524 43.3991 61.7524 42.8458Z" fill="#FFEA20"/>
<path d="M60.8826 42.8458V27.0528C60.8922 26.7557 60.7579 26.472 60.5217 26.2912C60.3064 26.0915 60.0074 26.0094 59.7203 26.0707C51.176 27.4414 44.4764 34.141 43.1059 42.6854C43.0445 42.9725 43.1267 43.2716 43.3264 43.4871C43.5072 43.7231 43.7907 43.8574 44.0879 43.8479H59.8806C60.434 43.8479 60.8826 43.3991 60.8826 42.8458Z" fill="#4EF2FF"/>
<defs>
<linearGradient id="paint0_linear_2056_26868" x1="63.8273" y1="8.7893" x2="67.8962" y2="78.0398" gradientUnits="userSpaceOnUse">
<stop stop-color="#0088EA"/>
<stop offset="1" stop-color="#0033EA"/>
</linearGradient>
</defs>
</svg>
