<svg width="132" height="88" viewBox="0 0 132 88" fill="none" xmlns="http://www.w3.org/2000/svg">
<path fill-rule="evenodd" clip-rule="evenodd" d="M46.475 6.875C36.7548 6.875 28.875 14.7548 28.875 24.475V63.525C28.875 73.2452 36.7548 81.125 46.475 81.125H85.525C95.2452 81.125 103.125 73.2452 103.125 63.525V24.475C103.125 14.7548 95.2452 6.875 85.525 6.875H46.475ZM41.451 53.2921C40.5623 52.6157 39.6142 50.804 39.0782 48.7577C38.8339 47.825 38.6281 46.3771 38.6211 45.5399C38.61 44.2092 38.7072 43.854 39.3956 42.7105C39.8288 41.9912 40.6321 40.8705 41.1809 40.2197C42.1749 39.041 45.1321 36.5044 45.5124 36.5044C45.6227 36.5044 46.3329 36.1241 47.0912 35.6591C47.8492 35.1943 49.4616 34.2943 50.674 33.6592C51.8863 33.0242 53.0948 32.3072 53.3595 32.0661C53.6243 31.8248 53.9045 31.6911 53.9823 31.7691C54.0602 31.8468 54.5881 31.9396 55.1557 31.9754C55.833 32.0181 56.3562 32.2093 56.6792 32.5322C56.9495 32.8026 57.2753 33.0239 57.4029 33.0239C57.5305 33.0239 57.6349 33.1353 57.6349 33.2715C57.6349 33.4077 58.0004 33.8639 58.447 34.285C58.9802 34.7881 59.2591 35.2633 59.2591 35.6691C59.2591 37.2789 57.7256 39.0683 55.9557 39.5238C53.9642 40.0364 52.8511 40.4693 51.633 41.2049C50.948 41.6186 49.8394 42.2704 49.169 42.6532C47.3487 43.6929 45.2099 45.7464 44.75 46.8959C44.4268 47.7036 44.4054 48.0008 44.631 48.5452C44.8804 49.1473 45.0876 49.2452 46.8596 49.597C47.9339 49.8105 50.4587 50.0455 52.4699 50.1195L56.1267 50.2541L56.8228 50.9769C58.6405 52.8644 58.7665 53.6912 57.4219 54.9061C55.7102 56.4526 55.6327 56.4769 52.382 56.496C48.2991 56.5201 44.417 55.6644 42.8515 54.3952C42.4413 54.0627 41.8111 53.5663 41.451 53.2921ZM61.3668 55.4588C60.9786 54.669 60.573 53.3963 60.4658 52.6306C60.2679 51.2198 60.3649 49.342 60.6573 48.9181C60.7452 48.7904 61.0083 48.164 61.2417 47.5259C61.952 45.5845 64.5774 39.7503 65.6276 37.7806C67.4398 34.3808 68.7201 32.5916 69.8559 31.8712C70.8859 31.218 70.9439 31.2083 71.6866 31.5624C72.1085 31.7635 72.5635 32.1691 72.6976 32.4636C72.853 32.8051 73.2199 33.0511 73.7106 33.1432C74.3334 33.2601 74.6557 33.559 75.4035 34.7143C76.3052 36.1067 76.3275 36.1909 76.333 38.237C76.3361 39.3897 76.4205 40.4633 76.5208 40.6229C76.818 41.0968 77.6765 40.9561 78.7868 40.2519C79.3601 39.8883 79.9495 39.5491 80.0964 39.4978C80.2432 39.4468 81.5226 38.3762 82.9392 37.119C84.6639 35.5886 85.7445 34.4265 86.2092 33.6033C86.9594 32.2738 87.5211 31.9744 88.6446 32.3056C89.7786 32.6399 90.5972 33.0842 90.5972 33.3655C90.5972 33.5126 90.9104 33.8643 91.2933 34.1474C91.6761 34.4305 91.9894 34.7994 91.9894 34.9672C91.9894 35.1349 92.1852 35.4496 92.4246 35.6663C92.6641 35.883 92.921 36.3951 92.9957 36.8044C93.0704 37.2137 93.1999 37.7833 93.2836 38.0706C93.3938 38.4493 93.3391 38.5927 93.0838 38.5927C92.7161 38.5927 92.6377 38.9686 92.2369 42.6532C91.6348 48.1918 91.1408 50.3573 89.7431 53.5861C89.1706 54.9082 89.0354 55.0481 87.7682 55.6298C86.9559 56.0027 86.2238 56.1957 85.951 56.1092C85.6997 56.0296 85.2131 55.4848 84.8697 54.8989C83.9959 53.4076 83.8829 50.9274 84.5432 47.7215C84.8101 46.4253 85.0284 45.1951 85.0284 44.9879C85.0284 44.7102 84.5871 44.909 83.3462 45.7457C82.4211 46.3699 81.1419 47.1428 80.5038 47.4632C75.9124 49.7705 72.392 49.5079 70.4599 46.7135C70.1137 46.2128 69.7666 45.7993 69.6886 45.7945C69.4461 45.7794 68.5542 48.3429 68.5542 49.0547C68.5542 49.4262 68.476 49.7309 68.3802 49.7318C68.0447 49.7348 67.162 51.2729 67.162 51.8549C67.162 52.1781 66.9592 52.6262 66.7112 52.8508C66.4631 53.0751 66.1919 53.5872 66.1084 53.9889C66.0248 54.3903 65.7077 55.1516 65.4035 55.6808C64.8048 56.7222 64.0561 57.0958 62.8191 56.9705C62.1597 56.9036 61.9901 56.7273 61.3668 55.4588Z" fill="#5A23C7"/>
</svg>
