<svg width="360" height="360" viewBox="0 0 360 360" fill="none" xmlns="http://www.w3.org/2000/svg">
<path d="M202.937 172.387C202.937 210.071 172.618 240.62 135.218 240.62C97.8185 240.62 67.5 210.071 67.5 172.387C67.5 134.703 137.514 44.0176 137.514 44.0176C137.514 44.0176 202.937 134.703 202.937 172.387Z" fill="#3E80D3"/>
<path d="M228.058 247.75C228.058 285.434 197.74 315.983 160.34 315.983C122.94 315.983 92.6211 285.434 92.6211 247.75C92.6211 210.067 162.635 119.381 162.635 119.381C162.635 119.381 228.058 210.067 228.058 247.75Z" fill="#EBC644"/>
<path d="M292.499 194.23C292.499 231.915 262.181 262.463 224.781 262.463C187.381 262.463 157.062 231.915 157.062 194.23C157.062 156.547 227.077 65.8613 227.077 65.8613C227.077 65.8613 292.499 156.547 292.499 194.23Z" fill="#D75643"/>
</svg>
