<svg width="132" height="88" viewBox="0 0 132 88" fill="none" xmlns="http://www.w3.org/2000/svg">
<path d="M89.1404 20.8584C93.3288 25.0467 96.3019 30.2934 97.7426 36.0387C99.1833 41.7841 99.0377 47.8127 97.3212 53.4818L78.047 47.646C78.7072 45.4655 78.7632 43.1467 78.2091 40.937C77.655 38.7272 76.5115 36.7092 74.9005 35.0983L89.1404 20.8584Z" fill="#FF0000"/>
<path d="M58.4272 12.1618C64.1897 10.791 70.2161 11.01 75.8639 12.7953C81.5117 14.5807 86.5691 17.8654 90.4966 22.2992L75.4221 35.6525C73.9115 33.9471 71.9663 32.6837 69.7941 31.997C67.6218 31.3104 65.3039 31.2262 63.0875 31.7534L58.4272 12.1618Z" fill="#9000FF"/>
<path d="M35.0056 33.4983C36.9061 27.8883 40.2937 22.8992 44.807 19.0632C49.3203 15.2272 54.7901 12.6881 60.6331 11.7166L63.936 31.5821C61.6886 31.9558 59.5848 32.9324 57.8489 34.4078C56.113 35.8832 54.8101 37.8021 54.0791 39.9599L35.0056 33.4983Z" fill="#0030FF"/>
<path d="M42.2032 66.4621C38.1372 62.1548 35.3166 56.8247 34.042 51.0402C32.7674 45.2557 33.0867 39.2338 34.9659 33.6165L54.0639 40.0053C53.3411 42.1658 53.2183 44.482 53.7085 46.7069C54.1987 48.9317 55.2836 50.9818 56.8475 52.6384L42.2032 66.4621Z" fill="#00FF0C"/>
<path d="M74.0099 75.7281C68.2668 77.1779 62.2379 77.0416 56.5662 75.334C50.8944 73.6264 45.7924 70.4114 41.8044 66.0319L56.6941 52.473C58.228 54.1574 60.1903 55.394 62.3718 56.0508C64.5533 56.7076 66.8722 56.76 69.0811 56.2024L74.0099 75.7281Z" fill="#FFF000"/>
<path d="M97.6104 52.4683C96.0773 58.1897 93.0202 63.3878 88.7649 67.5081C84.5096 71.6285 79.2158 74.5167 73.448 75.8647L68.8649 56.2549C71.0833 55.7364 73.1195 54.6256 74.7561 53.0408C76.3928 51.456 77.5687 49.4567 78.1583 47.2561L97.6104 52.4683Z" fill="#FF8A00"/>
</svg>
