<svg width="132" height="88" viewBox="0 0 132 88" fill="none" xmlns="http://www.w3.org/2000/svg">
<g clip-path="url(#clip0_2247_5790)">
<path d="M38.3027 44.535C38.1129 44.346 37.9624 44.1213 37.8598 43.8739C37.7572 43.6264 37.7045 43.3612 37.7049 43.0933C37.4089 32.1336 45.6763 26.5074 54.0545 26.7438C54.3223 26.7436 54.5876 26.7963 54.8351 26.8987C55.0826 27.0012 55.3075 27.1514 55.4969 27.3408C55.6863 27.5302 55.8365 27.7551 55.9389 28.0026C56.0414 28.2501 56.094 28.5154 56.0939 28.7832V43.0933C56.0939 43.6342 55.879 44.1529 55.4965 44.5354C55.1141 44.9179 54.5953 45.1327 54.0545 45.1327H39.7444C39.4765 45.1331 39.2112 45.0805 38.9638 44.9779C38.7164 44.8753 38.4917 44.7248 38.3027 44.535ZM32.5544 50.2833C33.4962 51.2307 34.6167 51.9818 35.8509 52.4932C37.0851 53.0045 38.4084 53.2658 39.7444 53.2621H54.0539C56.7499 53.259 59.3346 52.1867 61.2409 50.2804C63.1473 48.374 64.2196 45.7893 64.2226 43.0933V28.7838C64.2262 27.4479 63.9648 26.1245 63.4536 24.8903C62.9424 23.656 62.1915 22.5354 61.2445 21.5932C59.3073 19.7317 56.74 18.6683 54.0539 18.6151C50.7954 18.5231 47.5522 19.0931 44.5203 20.2904C41.4884 21.4878 38.7309 23.2876 36.4144 25.5812C31.8287 30.1612 29.3881 36.2545 29.5785 43.3132C29.6136 45.9379 30.683 48.4426 32.5544 50.2833Z" fill="#21C2FD"/>
<g filter="url(#filter0_d_2247_5790)">
<path d="M56.1041 41.8548C56.0688 41.8281 58.9726 43.426 59.1976 46.3207C59.4226 49.2153 58.2833 53.0828 54.197 53.2976C50.1182 53.3465 44.1152 53.3328 39.8301 53.2976C32.3787 53.347 29.1233 47.0747 29.421 41.4872C29.5051 34.2034 33.7351 27.4902 37.9828 24.1762C42.0491 20.7843 49.3675 21.9083 53.9106 26.7128C53.9106 26.6895 37.9606 26.2338 37.6947 42.7748C37.6947 42.7748 37.4889 45.0478 40.3239 44.9751C44.4551 44.9353 54.7659 45.062 54.8426 44.7796C56.0285 44.3392 56.12 43.2777 56.1041 41.8548Z" fill="url(#paint0_linear_2247_5790)"/>
</g>
<path d="M55.3314 72.2676C55.1424 72.4574 54.9177 72.6079 54.6703 72.7105C54.4229 72.8131 54.1576 72.8658 53.8898 72.8654C42.93 73.1615 37.3038 64.8946 37.5402 56.5159C37.5401 56.248 37.5927 55.9827 37.6952 55.7352C37.7976 55.4877 37.9478 55.2628 38.1372 55.0734C38.3266 54.884 38.5515 54.7338 38.799 54.6314C39.0465 54.529 39.3118 54.4763 39.5797 54.4764H53.8898C54.4306 54.4764 54.9494 54.6913 55.3318 55.0738C55.7143 55.4562 55.9292 55.975 55.9292 56.5159V70.826C55.9296 71.0938 55.8769 71.3591 55.7744 71.6065C55.6718 71.8539 55.5212 72.0786 55.3314 72.2676ZM61.0798 78.016C62.0272 77.0741 62.7783 75.9536 63.2896 74.7194C63.8009 73.4852 64.0623 72.1619 64.0585 70.826V56.5164C64.0555 53.8204 62.9832 51.2357 61.0768 49.3294C59.1705 47.423 56.5857 46.3507 53.8898 46.3477H39.5797C38.2437 46.3442 36.9204 46.6056 35.6862 47.1168C34.4519 47.6279 33.3313 48.3788 32.3891 49.3259C30.5277 51.2631 29.4646 53.8304 29.4115 56.5164C29.3084 59.7889 29.8671 63.0485 31.0539 66.0999C32.2408 69.1514 34.0314 71.9318 36.3185 74.2746C40.8985 78.8604 47.0509 81.1828 54.1097 80.9919C56.7343 80.9566 59.239 79.8872 61.0798 78.016Z" fill="#FEC92E"/>
<g filter="url(#filter1_d_2247_5790)">
<path d="M55.9139 57.6141C55.8787 57.6408 58.762 56.0287 58.9858 53.1074C59.2097 50.186 58.0533 46.6066 53.9932 46.3907C49.9331 46.1748 44.049 46.3163 39.7923 46.3521C32.0641 46.2657 29.124 52.3465 29.4195 57.9852C29.4972 61.2939 30.2587 64.5508 31.6559 67.5511C33.0532 70.5514 35.0561 73.2301 37.5386 75.4189C41.5765 78.842 49.2331 77.7084 53.7444 72.8618C53.7444 72.8851 38.0608 73.4579 37.5386 56.7004C37.5386 56.7004 37.4318 54.395 40.2463 54.4666C44.3479 54.507 54.5859 54.3785 54.6621 54.6638C55.8395 55.107 55.9895 56.3867 55.9139 57.6141Z" fill="url(#paint1_linear_2247_5790)"/>
</g>
<path d="M64.9039 71.3731C65.0929 71.5629 65.3176 71.7134 65.565 71.816C65.8124 71.9186 66.0777 71.9712 66.3455 71.9709C77.3052 72.2669 82.9314 63.9995 82.6951 55.6214C82.6952 55.3535 82.6426 55.0882 82.5401 54.8407C82.4377 54.5932 82.2875 54.3683 82.0981 54.1789C81.9087 53.9895 81.6837 53.8393 81.4362 53.7369C81.1887 53.6344 80.9235 53.5817 80.6556 53.5819H66.3438C66.076 53.5819 65.8108 53.6346 65.5634 53.7371C65.3159 53.8396 65.0911 53.9899 64.9017 54.1792C64.7124 54.3686 64.5621 54.5934 64.4596 54.8409C64.3571 55.0883 64.3044 55.3535 64.3044 55.6214V69.9314C64.3043 70.1994 64.3572 70.4647 64.4601 70.7122C64.563 70.9596 64.7138 71.1842 64.9039 71.3731ZM59.1555 77.1215C58.2081 76.1796 57.457 75.0591 56.9457 73.8249C56.4344 72.5907 56.1731 71.2673 56.1768 69.9314V55.6219C56.1798 52.9259 57.2521 50.3412 59.1585 48.4348C61.0648 46.5285 63.6495 45.4562 66.3455 45.4532H80.6556C81.9915 45.4496 83.3149 45.711 84.5491 46.2222C85.7834 46.7334 86.904 47.4843 87.8462 48.4313C89.7075 50.3685 90.7707 52.9359 90.8238 55.6219C90.9269 58.8944 90.3682 62.154 89.1814 65.2054C87.9945 68.2568 86.2039 71.0373 83.9168 73.3801C79.3367 77.9658 73.1849 80.2883 66.1256 80.0973C63.5004 80.0626 60.995 78.9932 59.1538 77.1215H59.1555Z" fill="#FC491E"/>
<g filter="url(#filter2_d_2247_5790)">
<path d="M64.3172 56.7196C64.3524 56.7463 61.4691 55.1342 61.2452 52.2128C61.0213 49.2915 62.1777 45.7121 66.2378 45.4962C70.2979 45.2802 76.1821 45.4217 80.4388 45.4575C88.1669 45.3712 91.107 51.4519 90.8116 57.0906C90.728 64.4414 86.6906 71.0388 82.6533 74.4619C78.6159 77.885 71.0042 76.8485 66.4947 72.0008C66.4947 72.0241 82.1714 72.5617 82.6931 55.8058C82.6931 55.8058 82.7999 53.5005 79.9854 53.5721C75.8838 53.6119 65.6457 53.484 65.5696 53.7693C64.3922 54.2125 64.2421 55.4922 64.3172 56.7196Z" fill="url(#paint2_linear_2247_5790)"/>
</g>
<path d="M93.699 32.9295C93.8888 32.7405 94.0393 32.5159 94.1419 32.2684C94.2445 32.021 94.2972 31.7557 94.2968 31.4879C94.5917 20.5282 86.3254 14.902 77.9472 15.1389C77.6794 15.1388 77.4141 15.1914 77.1666 15.2939C76.9191 15.3963 76.6942 15.5465 76.5048 15.7359C76.3154 15.9253 76.1652 16.1502 76.0628 16.3977C75.9603 16.6452 75.9077 16.9105 75.9078 17.1784V31.4885C75.9078 32.0293 76.1227 32.5481 76.5052 32.9305C76.8876 33.313 77.4064 33.5279 77.9472 33.5279H92.2573C92.5252 33.5282 92.7905 33.4756 93.0379 33.373C93.2853 33.2704 93.51 33.1193 93.699 32.9295ZM99.4468 38.6779C98.5049 39.6253 97.3844 40.3764 96.1502 40.8877C94.9161 41.399 93.5927 41.6604 92.2568 41.6566H77.9472C75.2514 41.6536 72.6667 40.5814 70.7604 38.6751C68.854 36.7689 67.7817 34.1844 67.7785 31.4885V17.1784C67.775 15.8424 68.0364 14.5191 68.5476 13.2848C69.0588 12.0506 69.8096 10.93 70.7567 9.98779C72.6938 8.12623 75.2612 7.06287 77.9472 7.00962C81.2058 6.91753 84.4491 7.48735 87.4811 8.6846C90.5131 9.88185 93.2707 11.6817 95.5873 13.9752C100.173 18.5558 102.614 24.6491 102.423 31.7078C102.388 34.3325 101.318 36.8373 99.4468 38.6779Z" fill="#25BB21"/>
<g filter="url(#filter3_d_2247_5790)">
<path d="M75.8989 30.256C75.9341 30.2293 73.0304 31.8272 72.8053 34.7218C72.5803 37.6165 73.7202 41.4845 77.8087 41.6987C81.887 41.7476 87.8905 41.734 92.1757 41.6987C99.6242 41.7482 102.88 35.4753 102.582 29.8878C102.498 22.6046 98.2678 15.8908 94.0202 12.5796C89.9538 9.18776 82.6354 10.3117 78.0923 15.1163C78.0923 15.093 94.0423 14.6372 94.3077 31.1782C94.3077 31.1782 94.5134 33.4512 91.6784 33.3785C87.5473 33.3387 77.2371 33.4654 77.1598 33.183C75.9744 32.7404 75.8829 31.6789 75.8989 30.256Z" fill="url(#paint3_linear_2247_5790)"/>
</g>
</g>
<defs>
<filter id="filter0_d_2247_5790" x="16.4023" y="10.2188" width="53.8223" height="55.1094" filterUnits="userSpaceOnUse" color-interpolation-filters="sRGB">
<feFlood flood-opacity="0" result="BackgroundImageFix"/>
<feColorMatrix in="SourceAlpha" type="matrix" values="0 0 0 0 0 0 0 0 0 0 0 0 0 0 0 0 0 0 127 0" result="hardAlpha"/>
<feOffset dx="-1"/>
<feGaussianBlur stdDeviation="6"/>
<feColorMatrix type="matrix" values="0 0 0 0 0 0 0 0 0 0 0 0 0 0 0 0 0 0 0.161 0"/>
<feBlend mode="normal" in2="BackgroundImageFix" result="effect1_dropShadow_2247_5790"/>
<feBlend mode="normal" in="SourceGraphic" in2="effect1_dropShadow_2247_5790" result="shape"/>
</filter>
<filter id="filter1_d_2247_5790" x="16.3994" y="34.2734" width="53.6133" height="55.1211" filterUnits="userSpaceOnUse" color-interpolation-filters="sRGB">
<feFlood flood-opacity="0" result="BackgroundImageFix"/>
<feColorMatrix in="SourceAlpha" type="matrix" values="0 0 0 0 0 0 0 0 0 0 0 0 0 0 0 0 0 0 127 0" result="hardAlpha"/>
<feOffset dx="-1"/>
<feGaussianBlur stdDeviation="6"/>
<feColorMatrix type="matrix" values="0 0 0 0 0 0 0 0 0 0 0 0 0 0 0 0 0 0 0.161 0"/>
<feBlend mode="normal" in2="BackgroundImageFix" result="effect1_dropShadow_2247_5790"/>
<feBlend mode="normal" in="SourceGraphic" in2="effect1_dropShadow_2247_5790" result="shape"/>
</filter>
<filter id="filter2_d_2247_5790" x="48.2188" y="33.3789" width="53.6133" height="55.0938" filterUnits="userSpaceOnUse" color-interpolation-filters="sRGB">
<feFlood flood-opacity="0" result="BackgroundImageFix"/>
<feColorMatrix in="SourceAlpha" type="matrix" values="0 0 0 0 0 0 0 0 0 0 0 0 0 0 0 0 0 0 127 0" result="hardAlpha"/>
<feOffset dx="-1"/>
<feGaussianBlur stdDeviation="6"/>
<feColorMatrix type="matrix" values="0 0 0 0 0 0 0 0 0 0 0 0 0 0 0 0 0 0 0.161 0"/>
<feBlend mode="normal" in2="BackgroundImageFix" result="effect1_dropShadow_2247_5790"/>
<feBlend mode="normal" in="SourceGraphic" in2="effect1_dropShadow_2247_5790" result="shape"/>
</filter>
<filter id="filter3_d_2247_5790" x="59.7783" y="-1.37891" width="53.8223" height="55.1094" filterUnits="userSpaceOnUse" color-interpolation-filters="sRGB">
<feFlood flood-opacity="0" result="BackgroundImageFix"/>
<feColorMatrix in="SourceAlpha" type="matrix" values="0 0 0 0 0 0 0 0 0 0 0 0 0 0 0 0 0 0 127 0" result="hardAlpha"/>
<feOffset dx="-1"/>
<feGaussianBlur stdDeviation="6"/>
<feColorMatrix type="matrix" values="0 0 0 0 0 0 0 0 0 0 0 0 0 0 0 0 0 0 0.161 0"/>
<feBlend mode="normal" in2="BackgroundImageFix" result="effect1_dropShadow_2247_5790"/>
<feBlend mode="normal" in="SourceGraphic" in2="effect1_dropShadow_2247_5790" result="shape"/>
</filter>
<linearGradient id="paint0_linear_2247_5790" x1="44.3135" y1="53.3293" x2="44.3135" y2="22.2188" gradientUnits="userSpaceOnUse">
<stop stop-color="#21C2FD"/>
<stop offset="1" stop-color="#1FD2FB"/>
</linearGradient>
<linearGradient id="paint1_linear_2247_5790" x1="44.2059" y1="46.2734" x2="44.2059" y2="77.3948" gradientUnits="userSpaceOnUse">
<stop stop-color="#FEB22A"/>
<stop offset="1" stop-color="#FEE07F"/>
</linearGradient>
<linearGradient id="paint2_linear_2247_5790" x1="76.0252" y1="45.3789" x2="76.0252" y2="76.4708" gradientUnits="userSpaceOnUse">
<stop stop-color="#FE9125"/>
<stop offset="1" stop-color="#FC491E"/>
</linearGradient>
<linearGradient id="paint3_linear_2247_5790" x1="87.6895" y1="41.7305" x2="87.6895" y2="10.6222" gradientUnits="userSpaceOnUse">
<stop stop-color="#2EBE21"/>
<stop offset="1" stop-color="#7BDB27"/>
</linearGradient>
<clipPath id="clip0_2247_5790">
<rect width="132" height="88" fill="white"/>
</clipPath>
</defs>
</svg>
