<svg width="132" height="88" viewBox="0 0 132 88" fill="none" xmlns="http://www.w3.org/2000/svg">
<path d="M34.0085 44C33.8054 34.353 37.225 26.0744 44.2675 19.1641C51.3099 12.2539 59.639 8.86715 69.2546 9.00399C75.3491 9.00399 80.9356 10.4066 86.0143 13.2117C91.093 16.0169 95.0882 19.8141 98 24.6034L89.8741 30.6584C84.9308 22.8587 78.0915 18.9589 69.3562 18.9589C62.4492 18.9589 56.6933 21.3535 52.0887 26.1428C47.484 30.8637 45.1817 36.8161 45.1817 44C45.1817 51.1839 47.484 57.1705 52.0887 61.9598C56.6933 66.6807 62.4492 69.0411 69.3562 69.0411C78.0915 69.0411 84.9308 65.1413 89.8741 57.3416L98 63.3966C95.0882 68.2543 91.093 72.0858 86.0143 74.8909C81.0033 77.6276 75.4168 78.996 69.2546 78.996C59.639 79.1328 51.3099 75.7461 44.2675 68.8359C37.225 61.9256 33.8054 53.647 34.0085 44Z" fill="#106CBD"/>
</svg>
