<svg width="132" height="88" viewBox="0 0 132 88" fill="none" xmlns="http://www.w3.org/2000/svg">
<path d="M25.0254 44.0637C25.0254 39.0028 25.7931 34.3999 27.3285 30.255C28.9077 26.0666 31.145 22.7725 34.0403 20.3729C36.9356 17.9733 40.3135 16.7734 44.1739 16.7734C48.1659 16.7734 51.456 18.0823 54.0442 20.7001C54.4829 21.1364 54.8776 21.3546 55.2286 21.3546C55.7113 21.3546 55.9965 20.9401 56.0842 20.1111L56.2814 17.4279H57.5975L58.5845 35.4252H57.2686C56.3912 29.8842 54.8997 25.7175 52.7939 22.9252C50.6883 20.1329 47.793 18.7368 44.1081 18.7368C40.7302 18.7368 37.791 19.8493 35.2906 22.0744C32.8339 24.2996 30.9476 27.3318 29.6316 31.1712C28.3155 35.0107 27.6575 39.2646 27.6575 43.9331C27.6575 48.645 28.3155 52.9207 29.6316 56.7601C30.9476 60.5994 32.8339 63.6536 35.2906 65.9224C37.7472 68.1475 40.5986 69.2599 43.8449 69.2599C48.0123 69.2599 51.3902 67.4276 53.9783 63.7627C56.6106 60.0543 58.2995 55.1458 59.0453 49.0375H60.6245C59.9224 55.8439 58.1239 61.254 55.2286 65.2678C52.3334 69.2381 48.4291 71.2234 43.5159 71.2234C39.6993 71.2234 36.3873 70.0236 33.5797 67.6238C30.816 65.2243 28.6884 61.9739 27.1969 57.8727C25.7492 53.7277 25.0254 49.1249 25.0254 44.0637Z" fill="#040404"/>
<path d="M64.678 44.0637C64.678 39.0028 65.4456 34.3999 66.9811 30.255C68.5602 26.0666 70.7975 22.7725 73.6928 20.3729C76.5881 17.9733 79.966 16.7734 83.8264 16.7734C87.8185 16.7734 91.1085 18.0823 93.6968 20.7001C94.1355 21.1364 94.5302 21.3546 94.8812 21.3546C95.3636 21.3546 95.6488 20.9401 95.7365 20.1111L95.934 17.4279H97.2501L98.237 35.4252H96.9209C96.0438 29.8842 94.5523 25.7175 92.4465 22.9252C90.3409 20.1329 87.4456 18.7368 83.7606 18.7368C80.3826 18.7368 77.4436 19.8493 74.943 22.0744C72.4865 24.2996 70.6002 27.3318 69.2841 31.1712C67.968 35.0107 67.31 39.2646 67.31 43.9331C67.31 48.645 67.968 52.9207 69.2841 56.7601C70.6002 60.5994 72.4865 63.6536 74.943 65.9224C77.3996 68.1475 80.2512 69.2599 83.4973 69.2599C87.665 69.2599 91.0427 67.4276 93.6309 63.7627C96.2632 60.0543 97.9519 55.1458 98.6976 49.0375H100.277C99.575 55.8439 97.7765 61.254 94.8812 65.2678C91.9859 69.2381 88.0815 71.2234 83.1684 71.2234C79.352 71.2234 76.0398 70.0236 73.2322 67.6238C70.4686 65.2243 68.3409 61.9739 66.8494 57.8727C65.4019 53.7277 64.678 49.1249 64.678 44.0637Z" fill="#040404"/>
<path d="M104.343 71.2234C103.641 71.2234 103.027 70.9616 102.501 70.4382C101.975 69.9145 101.711 69.3038 101.711 68.6056C101.711 67.8639 101.975 67.2532 102.501 66.773C103.027 66.2496 103.641 65.9878 104.343 65.9878C105.089 65.9878 105.703 66.2496 106.186 66.773C106.712 67.2532 106.975 67.8639 106.975 68.6056C106.975 69.3038 106.712 69.9145 106.186 70.4382C105.703 70.9616 105.089 71.2234 104.343 71.2234Z" fill="#040404"/>
</svg>
