<svg width="132" height="88" viewBox="0 0 132 88" fill="none" xmlns="http://www.w3.org/2000/svg">
<path d="M77.0156 35.5013L82.8734 30.9824C83.0593 30.8385 83.2834 30.7521 83.5178 30.734C83.7522 30.716 83.9869 30.7669 84.1927 30.8805C84.3986 30.9942 84.5667 31.1656 84.6763 31.3737C84.7858 31.5817 84.8321 31.8173 84.8094 32.0514L84.2558 37.8328L90.6644 36.2992C90.8664 36.2503 91.0775 36.2544 91.277 36.3111C91.477 36.3678 91.6589 36.4751 91.805 36.6227C91.9511 36.7703 92.0569 36.9531 92.1113 37.1536C92.1662 37.3539 92.1682 37.5651 92.1173 37.7665L90.3888 44.4771L95.2978 45.107C95.5145 45.1346 95.7195 45.2205 95.8908 45.3555C96.0621 45.4906 96.1941 45.6697 96.2717 45.8738C96.3493 46.0779 96.3699 46.2992 96.3311 46.5141C96.2928 46.729 96.1966 46.9294 96.053 47.0939L92.2896 51.4222L77.0156 35.5013Z" fill="#46B000" stroke="#45413C" stroke-width="0.963551" stroke-linecap="round" stroke-linejoin="round"/>
<path d="M93.5013 53.8949C93.3486 53.2529 93.1728 52.615 92.9728 51.9814C91.4861 47.7868 89.4286 43.817 86.8582 40.1841L86.5644 39.7421C80.9158 31.269 67.6229 34.5382 67.6229 34.5382L59.541 40.4439L63.5912 51.9913C70.2482 54.8439 78.926 53.6563 83.421 52.72L83.4803 52.7073C83.6495 52.6824 83.821 52.6762 83.9915 52.6889C87.5856 52.8457 88.831 54.5459 89.3847 58.1004C89.9863 61.9615 91.2856 67.4998 89.2008 70.2732C87.9781 71.7892 86.301 72.8723 84.4166 73.3645C83.6059 73.6537 82.7405 73.756 81.8848 73.6643C81.029 73.5726 80.205 73.289 79.474 72.835C78.9172 72.3917 78.5075 71.7902 78.2985 71.11C78.0896 70.4294 78.0913 69.7019 78.3032 69.0223C78.3837 68.7487 78.5197 68.4948 78.7026 68.2762C78.8856 68.0575 79.1116 67.8787 79.3666 67.7512C79.641 67.6177 79.937 67.5341 80.2407 67.5043C80.5192 67.4398 80.8082 67.4363 81.088 67.4943C81.3639 67.5401 81.629 67.6358 81.8704 67.7769C82.8589 68.3512 83.6173 70.1447 85.0168 69.3301C86.4586 68.4827 85.4561 66.1315 84.6934 65.1556C84.124 64.4407 83.386 63.878 82.5454 63.5188C81.7189 63.1631 80.8192 63.0104 79.9216 63.0739C79.0456 63.0996 78.1848 63.3097 77.3952 63.6901C76.5942 64.0911 75.8832 64.6513 75.3054 65.3365C74.7276 66.0211 74.2951 66.8161 74.0342 67.6736C73.5555 69.2475 73.5718 70.9302 74.0808 72.495C74.5808 74.0976 75.6023 75.4865 76.9829 76.4417C78.2658 77.2322 79.7121 77.7194 81.2118 77.8665C82.7114 78.0131 84.2248 77.8156 85.6364 77.2891C88.3217 76.4523 90.6462 74.7354 92.2357 72.4159C93.6418 70.048 94.3834 67.3456 94.3839 64.5924C94.6081 61.0023 94.3109 57.3993 93.5013 53.8949Z" fill="#86D34B" stroke="#45413C" stroke-width="0.963551" stroke-linecap="round" stroke-linejoin="round"/>
<path d="M59.0303 50.6409C58.7717 51.9624 58.6454 53.3064 58.6533 54.6529C58.2398 54.734 57.8437 54.8864 57.4826 55.1034C57.3032 55.2142 57.1536 55.3672 57.047 55.5492C56.9404 55.7311 56.88 55.9363 56.8711 56.147C56.8866 56.8178 57.5772 57.2683 58.2254 57.4462C59.2526 57.6687 60.3108 57.7089 61.3519 57.5649C62.6314 57.4603 63.9103 57.344 65.1888 57.216C65.5981 57.2327 66.0059 57.1587 66.3833 56.9996C66.7607 56.8404 67.0983 56.5999 67.372 56.2953C67.5303 55.9448 67.6148 55.5655 67.6204 55.1809C67.626 54.7964 67.5526 54.4148 67.4045 54.0598L67.1489 53.1207L66.272 49.8868L59.0303 50.6409ZM79.514 49.1172C78.9831 49.7736 78.5681 50.5157 78.2868 51.3117C77.8446 52.6843 77.5603 54.1028 77.4395 55.5398C77.0204 55.5828 76.6119 55.698 76.2321 55.8801C76.0421 55.974 75.8782 56.1133 75.755 56.2858C75.6318 56.4582 75.5532 56.6585 75.526 56.8686C75.478 57.538 76.1248 58.0506 76.7517 58.2893C77.7553 58.6072 78.8069 58.7463 79.8586 58.7002C81.1436 58.7162 82.4283 58.72 83.7124 58.7115C84.1183 58.7654 84.531 58.7295 84.9215 58.6063C85.3121 58.483 85.6703 58.2755 85.9721 57.9984C86.1615 57.6639 86.2804 57.294 86.3212 56.9116C86.362 56.5292 86.3242 56.1426 86.2094 55.7756L85.7529 53.1377C85.6623 52.7033 85.568 52.2698 85.4708 51.8371" fill="#86D34B"/>
<path d="M79.514 49.1172C78.9831 49.7736 78.5681 50.5157 78.2868 51.3117C77.8446 52.6843 77.5603 54.1028 77.4395 55.5398C77.0204 55.5828 76.6119 55.698 76.2321 55.8801C76.0421 55.974 75.8782 56.1133 75.755 56.2858C75.6318 56.4582 75.5532 56.6585 75.526 56.8686C75.478 57.538 76.1248 58.0506 76.7517 58.2893C77.7553 58.6072 78.8069 58.7463 79.8586 58.7002C81.1436 58.7162 82.4283 58.72 83.7124 58.7115C84.1183 58.7654 84.531 58.7295 84.9215 58.6063C85.3121 58.483 85.6703 58.2755 85.9721 57.9984C86.1615 57.6639 86.2804 57.294 86.3212 56.9116C86.362 56.5292 86.3242 56.1426 86.2094 55.7756L85.7529 53.1377C85.6623 52.7033 85.568 52.2698 85.4708 51.8371M59.0303 50.6409C58.7717 51.9624 58.6454 53.3064 58.6533 54.6529C58.2398 54.734 57.8437 54.8864 57.4826 55.1034C57.3032 55.2142 57.1536 55.3672 57.047 55.5492C56.9404 55.7311 56.88 55.9363 56.8711 56.147C56.8866 56.8178 57.5772 57.2683 58.2254 57.4462C59.2526 57.6687 60.3108 57.7089 61.3519 57.5649C62.6314 57.4603 63.9103 57.344 65.1888 57.216C65.5981 57.2327 66.0059 57.1587 66.3833 56.9996C66.7607 56.8404 67.0983 56.5999 67.372 56.2953C67.5303 55.9448 67.6148 55.5655 67.6204 55.1809C67.626 54.7964 67.5526 54.4148 67.4045 54.0598L67.1489 53.1207L66.272 49.8868L59.0303 50.6409Z" stroke="#45413C" stroke-width="0.963551" stroke-linecap="round" stroke-linejoin="round"/>
<path d="M72.3472 17.6962C71.4999 17.2358 71.0254 10.0859 63.9645 15.7346C63.0819 16.4408 62.5523 10.0859 59.728 10.0859C55.0297 10.0859 56.6791 15.5002 52.2208 17.12C49.3681 18.2216 46.8019 19.955 44.7149 22.1902C42.6279 24.4255 41.0743 27.1044 40.1707 30.0259C39.5991 31.7427 39.1308 33.4923 38.7684 35.2651C38.6455 35.83 38.5721 37.4243 38.0101 37.7845C37.4258 38.131 36.9214 38.5971 36.5298 39.1522C36.1383 39.7073 35.8685 40.3389 35.7381 41.0056C35.6077 41.6722 35.6197 42.3589 35.7732 43.0206C35.9267 43.6824 36.2183 44.3042 36.629 44.8453C38.4168 47.0752 42.1096 49.3643 49.6605 50.1608C49.6605 50.1608 67.9087 53.6573 75.2083 43.1691C80.4531 35.6337 81.0322 22.4439 72.3472 17.6962Z" fill="#9CEB60"/>
<path d="M73.0998 18.1797C77.0271 24.2408 75.8183 33.691 71.6876 39.6321C64.388 50.1204 46.1399 46.6238 46.1399 46.6238C42.5985 46.3923 39.1465 45.4123 36.0117 43.7486C36.1685 44.1396 36.3795 44.5067 36.6387 44.8388C38.4265 47.0686 42.1194 49.3578 49.6703 50.1543C49.6703 50.1543 67.9185 53.6508 75.2181 43.1625C80.2935 35.8644 80.9614 23.2706 73.0998 18.1797Z" fill="#6DD627"/>
<path d="M72.3472 17.6962C71.4999 17.2358 71.0254 10.0859 63.9645 15.7346C63.0819 16.4408 62.5523 10.0859 59.728 10.0859C55.0297 10.0859 56.6791 15.5002 52.2208 17.12C49.3681 18.2216 46.8019 19.955 44.7149 22.1902C42.6279 24.4255 41.0743 27.1044 40.1707 30.0259C39.5991 31.7427 39.1308 33.4923 38.7684 35.2651C38.6455 35.83 38.5721 37.4243 38.0101 37.7845C37.4258 38.131 36.9214 38.5971 36.5298 39.1522C36.1383 39.7073 35.8685 40.3389 35.7381 41.0056C35.6077 41.6722 35.6197 42.3589 35.7732 43.0207C35.9267 43.6824 36.2183 44.3042 36.629 44.8453C38.4168 47.0752 42.1096 49.3643 49.6605 50.1608C49.6605 50.1608 67.9087 53.6573 75.2083 43.1691C80.4531 35.6337 81.0322 22.4439 72.3472 17.6962Z" stroke="#45413C" stroke-width="0.963551" stroke-linecap="round" stroke-linejoin="round"/>
<path d="M44.4672 34.6179C49.22 34.6179 53.073 30.765 53.073 26.0121C53.073 21.2592 49.22 17.4062 44.4672 17.4062C39.7143 17.4062 35.8613 21.2592 35.8613 26.0121C35.8613 30.765 39.7143 34.6179 44.4672 34.6179Z" fill="#FFF48C"/>
<path d="M43.0557 20.232C44.3882 20.2288 45.7031 20.5359 46.8963 21.1288C48.0896 21.7217 49.1285 22.5843 49.9308 23.6481C50.7332 24.712 51.2768 25.948 51.5189 27.2583C51.7609 28.5686 51.6947 29.9173 51.3254 31.1975C52.0883 30.1898 52.6197 29.0263 52.8818 27.7899C53.1439 26.5534 53.1303 25.2743 52.8418 24.0438C52.5534 22.8132 51.9972 21.6613 51.213 20.6701C50.4287 19.6789 49.4356 18.8728 48.3044 18.309C47.1731 17.7453 45.9315 17.4379 44.6679 17.4086C43.4043 17.3793 42.1498 17.6289 40.9936 18.1396C39.8375 18.6503 38.8081 19.4095 37.9787 20.3633C37.1494 21.3171 36.5405 22.442 36.1953 23.6579C36.9949 22.594 38.0309 21.7307 39.2216 21.1361C40.4122 20.5414 41.7248 20.232 43.0557 20.232Z" fill="#FFFACF"/>
<path d="M44.4672 34.6179C49.22 34.6179 53.073 30.765 53.073 26.0121C53.073 21.2592 49.22 17.4062 44.4672 17.4062C39.7143 17.4062 35.8613 21.2592 35.8613 26.0121C35.8613 30.765 39.7143 34.6179 44.4672 34.6179Z" stroke="#45413C" stroke-width="0.963551" stroke-linecap="round" stroke-linejoin="round"/>
<path d="M43.2482 30.5628C44.808 30.5628 46.0726 29.2983 46.0726 27.7384C46.0726 26.1786 44.808 24.9141 43.2482 24.9141C41.6883 24.9141 40.4238 26.1786 40.4238 27.7384C40.4238 29.2983 41.6883 30.5628 43.2482 30.5628Z" fill="#45413C"/>
<path d="M65.6508 36.0281C70.4036 36.0281 74.2566 32.1751 74.2566 27.4222C74.2566 22.6694 70.4036 18.8164 65.6508 18.8164C60.8979 18.8164 57.0449 22.6694 57.0449 27.4222C57.0449 32.1751 60.8979 36.0281 65.6508 36.0281Z" fill="#FFF48C"/>
<path d="M58.4565 30.2483C58.4558 28.4451 59.0219 26.6874 60.0749 25.2236C61.1279 23.7598 62.6144 22.6641 64.3242 22.0914C66.034 21.5187 67.8806 21.498 69.6028 22.0323C71.325 22.5665 72.8357 23.6287 73.9213 25.0685C73.5769 23.8514 72.9685 22.7253 72.1392 21.7704C71.3099 20.8154 70.2802 20.0551 69.1235 19.5435C67.9668 19.032 66.7115 18.7818 65.4471 18.8109C64.1827 18.8399 62.9402 19.1474 61.8081 19.7115C60.6762 20.2756 59.6825 21.0824 58.8979 22.0744C58.1133 23.0665 57.5572 24.2193 57.2691 25.4508C56.981 26.6823 56.968 27.9622 57.2311 29.1994C57.4942 30.4365 58.0269 31.6003 58.7911 32.6081C58.5702 31.8409 58.4576 31.0467 58.4565 30.2483Z" fill="#FFFACF"/>
<path d="M65.6508 36.0281C70.4036 36.0281 74.2566 32.1751 74.2566 27.4222C74.2566 22.6694 70.4036 18.8164 65.6508 18.8164C60.8979 18.8164 57.0449 22.6694 57.0449 27.4222C57.0449 32.1751 60.8979 36.0281 65.6508 36.0281Z" stroke="#45413C" stroke-width="0.963551" stroke-linecap="round" stroke-linejoin="round"/>
<path d="M64.5432 31.4612C66.103 31.4612 67.3675 30.1967 67.3675 28.6369C67.3675 27.077 66.103 25.8125 64.5432 25.8125C62.9833 25.8125 61.7188 27.077 61.7188 28.6369C61.7188 30.1967 62.9833 31.4612 64.5432 31.4612Z" fill="#45413C"/>
<path d="M49.8478 41.1523V42.5645M47.0234 41.1523V42.5645" stroke="#45413C" stroke-width="0.963551" stroke-linecap="round" stroke-linejoin="round"/>
<path d="M53.4363 20.1327C53.3897 20.3642 53.4168 20.6045 53.5138 20.8199C53.6108 21.0351 53.7729 21.2146 53.9772 21.3331C54.1862 21.3999 54.4023 21.4426 54.6211 21.4602C54.9727 21.5223 55.2975 21.6876 55.6435 21.7751C55.96 21.8568 56.291 21.8651 56.6111 21.7992C56.9312 21.7334 57.2321 21.5952 57.4907 21.3953C57.7356 21.1846 57.9223 20.9145 58.0328 20.6109C58.1433 20.3074 58.1738 19.9804 58.1215 19.6616C58.0691 19.3428 57.9357 19.0429 57.7339 18.7905C57.5322 18.5382 57.269 18.3419 56.9696 18.2207C56.2475 18.0135 55.4731 18.0977 54.8125 18.4552C54.1519 18.8127 53.6578 19.415 53.4363 20.1327ZM82.1629 41.2067C82.0159 42.2008 81.5685 43.1262 80.8806 43.8588C80.1932 44.5877 79.3799 45.1866 78.4799 45.6268C78.3278 45.7314 78.1548 45.8016 77.9729 45.8326C77.791 45.8636 77.6045 45.8545 77.4264 45.8062C77.2409 45.6968 77.0996 45.5258 77.0271 45.323C76.9546 45.1202 76.9555 44.8984 77.0296 44.6962C77.1899 44.296 77.4302 43.9328 77.7357 43.6286C78.3123 42.9208 78.8465 42.1795 79.3357 41.4087C79.7138 40.9257 79.994 40.3736 80.1604 39.7833C80.2122 39.0146 80.1585 38.2425 80.0008 37.4884C79.9808 37.4123 79.9792 37.3325 79.9961 37.2556C80.0131 37.1788 80.0481 37.1071 80.0982 37.0464C80.1513 37.0079 80.2148 36.9864 80.2803 36.9846C80.3459 36.9828 80.4104 37.0009 80.4654 37.0365C81.0728 37.5357 81.5462 38.1783 81.8426 38.9065C82.139 39.6347 82.2491 40.4253 82.1629 41.2067ZM83.8928 43.3236C83.7581 43.6569 83.5821 43.9719 83.3689 44.2612C83.2513 44.4222 83.1637 44.603 83.1104 44.7951C83.0855 44.8922 83.0853 44.9941 83.11 45.0913C83.1347 45.1885 83.1834 45.2779 83.2516 45.3515C83.4251 45.4804 83.639 45.543 83.8546 45.528C84.0099 45.5457 84.1672 45.5332 84.3179 45.4913C84.4604 45.4323 84.5882 45.3426 84.6921 45.2286C85.0917 44.8239 85.3874 44.3281 85.5526 43.784C85.7184 43.2398 85.7491 42.6636 85.6423 42.1049C85.5491 41.6403 85.0155 40.5854 84.4054 41.0217C83.8363 41.4242 84.0933 42.7333 83.8928 43.3236ZM86.3063 47.0574C86.2937 47.1236 86.2967 47.1918 86.3159 47.2565C86.337 47.301 86.3673 47.3405 86.4046 47.3726C86.4413 47.4047 86.4852 47.4287 86.532 47.4429C86.6993 47.4877 86.8751 47.4864 87.0414 47.4391C87.2081 47.3918 87.3582 47.3005 87.4766 47.1746C87.6837 46.9577 87.8399 46.698 87.9346 46.4139C88.0293 46.1297 88.06 45.8282 88.0248 45.5308C87.9699 44.8162 87.5038 44.7188 87.0927 45.23C86.661 45.7511 86.3879 46.3855 86.3063 47.0574Z" fill="#FFF48C"/>
<path d="M61.5556 46.1776C56.4945 47.334 51.2556 47.4861 46.136 46.6252C42.5946 46.3937 39.1426 45.4137 36.0078 43.75" stroke="#45413C" stroke-width="0.963551" stroke-linecap="round" stroke-linejoin="round"/>
</svg>
