<svg width="132" height="88" viewBox="0 0 132 88" fill="none" xmlns="http://www.w3.org/2000/svg">
<path fill-rule="evenodd" clip-rule="evenodd" d="M66 11.4511C48.0238 11.4511 33.4511 26.0238 33.4511 44C33.4511 61.9762 48.0238 76.5489 66 76.5489C83.9762 76.5489 98.5489 61.9762 98.5489 44C98.5489 26.0238 83.9762 11.4511 66 11.4511ZM27 44C27 22.4609 44.4609 5 66 5C87.5391 5 105 22.4609 105 44C105 65.5391 87.5391 83 66 83C44.4609 83 27 65.5391 27 44Z" fill="#F7B54C"/>
<path d="M33.1579 56.3158H98.8421V59.8346H33.1579V56.3158Z" fill="#F7B54C"/>
<path d="M65.4191 25.1311C65.5058 24.4475 66.4961 24.4475 66.5828 25.1311C67.9357 31.0819 76.1271 62.1804 66.001 62.1804C55.7956 62.1804 64.0314 31.2351 65.4191 25.1311Z" fill="#F7B54C"/>
<path d="M86.4298 16.3032L81.14 11.1579L76.5564 21.1104L86.4298 16.3032Z" fill="#F7B54C"/>
<path d="M96.8928 29.8269L93.8377 23.1193L85.9417 30.7353L96.8928 29.8269Z" fill="#F7B54C"/>
<path d="M100.015 46.9323V39.5661L89.6663 43.2492L100.015 46.9323Z" fill="#F7B54C"/>
<path d="M44.9837 16.3032L50.2735 11.1579L54.8571 21.1104L44.9837 16.3032Z" fill="#F7B54C"/>
<path d="M34.5208 29.8269L37.5759 23.1193L45.4718 30.7353L34.5208 29.8269Z" fill="#F7B54C"/>
<path d="M31.3985 46.9323V39.5661L41.7472 43.2492L31.3985 46.9323Z" fill="#F7B54C"/>
</svg>
