<svg width="132" height="88" viewBox="0 0 132 88" fill="none" xmlns="http://www.w3.org/2000/svg">
<path fill-rule="evenodd" clip-rule="evenodd" d="M46.6187 73.9734C40.4645 73.9734 35.4746 68.9806 35.4746 62.8205C35.4746 56.6604 40.4645 51.667 46.6187 51.667C52.7742 51.667 57.763 56.6604 57.763 62.8205C57.763 68.9806 52.7742 73.9734 46.6187 73.9734ZM46.6187 67.2814C49.0817 67.2814 51.0765 65.2838 51.0765 62.8205C51.0765 60.3566 49.0817 58.359 46.6187 58.359C44.1571 58.359 42.1611 60.3566 42.1611 62.8205C42.1611 65.2838 44.1571 67.2814 46.6187 67.2814Z" fill="#37D5D3"/>
<path fill-rule="evenodd" clip-rule="evenodd" d="M93.6331 14.0234V36.3303H71.3448C71.3448 24.0105 81.3244 14.0234 93.6331 14.0234Z" fill="#FFAE00"/>
<path fill-rule="evenodd" clip-rule="evenodd" d="M85.657 51.4437L96.3321 69.6066C96.722 70.2701 96.501 71.125 95.8381 71.5149C95.6237 71.6414 95.3799 71.7076 95.1317 71.7076H73.7804C73.012 71.7076 72.3874 71.0837 72.3874 70.3135C72.3874 70.0651 72.4539 69.8212 72.58 69.6066L83.2553 51.4437C83.6458 50.7799 84.4992 50.5585 85.163 50.949C85.3666 51.0691 85.5364 51.2393 85.657 51.4437Z" fill="#1EA7FD"/>
<path fill-rule="evenodd" clip-rule="evenodd" d="M41.0467 14.0234H52.191C55.2687 14.0234 57.763 16.5202 57.763 19.6002V30.7537C57.763 33.8334 55.2687 36.3303 52.191 36.3303H41.0467C37.9701 36.3303 35.4746 33.8334 35.4746 30.7537V19.6002C35.4746 16.5202 37.9701 14.0234 41.0467 14.0234Z" fill="#FF4785"/>
</svg>
