<svg width="132" height="88" viewBox="0 0 132 88" fill="none" xmlns="http://www.w3.org/2000/svg">
<path d="M88.6897 52.7712C84.1922 55.2127 79.0813 56.8404 73.9024 56.5691C69.8819 56.2978 66.8835 52.9746 62.9311 52.6355C61.3638 52.4999 59.7965 52.9746 58.2973 53.1781C60.0009 52.2964 61.7045 51.2113 63.6126 51.3469C66.1339 51.4826 68.2464 53.1103 70.5633 53.9241C77.6503 56.4334 86.0321 53.9241 90.734 48.0916C87.7357 38.3933 83.647 28.8985 77.7185 20.6244C74.1068 16.0126 69.7456 11.3331 63.817 9.84101C60.7505 9.02717 57.2752 8.95935 54.4131 10.3836C52.3006 11.4687 51.8236 14.2493 52.7776 16.2839C55.776 23.812 57.9566 31.8826 57.8203 40.021C57.684 42.3269 57.4796 44.7684 56.1848 46.803C53.7998 49.5836 49.3704 50.0583 46.3039 48.1594C49.166 48.0237 52.6413 49.1089 54.8901 46.803C56.9344 44.158 56.9344 40.5635 56.4574 37.376C55.5034 29.441 53.5272 21.5739 49.9156 14.4528C48.3482 11.4687 46.5765 8.34897 43.51 6.65346C41.125 5.22924 38.2629 6.38218 36.0823 7.73859C32.5388 10.3836 30.4263 14.6562 29.5404 18.8611C28.1775 27.949 29.2678 37.7151 34.2424 45.65C39.0806 53.7885 47.4624 59.2141 56.1848 62.4694C65.3162 65.4535 75.7423 65.1822 84.1922 60.5026C93.3235 55.8231 100.138 47.2099 103 37.4438C99.3202 43.3442 94.8908 49.1767 88.6897 52.7712ZM66.5428 31.0687C67.4287 31.0687 68.1782 31.8147 68.1782 32.6964C68.1782 33.5781 67.4287 34.3241 66.5428 34.3241C65.6569 34.3241 64.9073 33.5781 64.9073 32.6964C64.9073 31.8147 65.5888 31.0687 66.5428 31.0687ZM82.4886 62.6051C84.601 66.403 85.5551 70.8113 85.078 75.084C85.078 75.3553 84.601 75.4231 84.5329 75.1518C83.9196 73.7276 83.7152 72.2355 83.1019 70.8791C82.0115 69.2514 79.8309 69.3193 78.1273 69.6584C74.8564 71.4217 74.4475 76.3726 76.9689 78.9497C81.262 84.1719 90.8022 82.3407 93.1872 76.1013C95.5723 69.5227 94.5501 62.3338 93.2554 55.6196C90.3252 58.875 86.4409 60.9774 82.4886 62.6051Z" fill="#40A1A2"/>
</svg>
