<svg width="132" height="88" viewBox="0 0 132 88" fill="none" xmlns="http://www.w3.org/2000/svg">
<path d="M89.8665 17.6367H49.041V69.9377H89.8665V17.6367Z" fill="#ECCB49"/>
<path d="M49.0414 31.5438C52.8818 31.5438 55.995 28.4306 55.995 24.5903C55.995 20.7499 52.8818 17.6367 49.0414 17.6367C45.2011 17.6367 42.0879 20.7499 42.0879 24.5903C42.0879 28.4306 45.2011 31.5438 49.0414 31.5438Z" fill="#3878BC"/>
<path d="M49.041 31.5438C52.8804 31.5438 55.9946 28.4297 55.9946 24.5903C55.9946 20.7509 52.8804 17.6367 49.041 17.6367V31.5438Z" fill="#1A3B5C"/>
<path d="M42.6426 35.8086H55.4832V69.9791H42.6426V35.8086Z" fill="#3878BC"/>
<path d="M49.041 35.8086V69.9791H55.44V44.6818L61.8816 40.6718V35.8086H49.041Z" fill="#1A3B5C"/>
<path d="M69.4766 6.11719L89.9106 17.6353V69.9363L69.4766 81.8811V6.11719Z" fill="#FE663B"/>
<path d="M89.9106 17.6367H69.4766V69.9377H89.9106V17.6367Z" fill="#EB4D00"/>
</svg>
