<svg width="132" height="88" viewBox="0 0 132 88" fill="none" xmlns="http://www.w3.org/2000/svg">
<mask id="mask0_2056_26293" style="mask-type:luminance" maskUnits="userSpaceOnUse" x="34" y="12" width="64" height="64">
<path d="M34.0156 12.0156H97.9852V75.9852H34.0156V12.0156Z" fill="white"/>
</mask>
<g mask="url(#mask0_2056_26293)">
<path d="M67.8507 41.8071H96.4771C96.7969 41.8071 97.0716 41.556 97.0716 41.2362V40.3452C97.0697 40.2126 97.0238 40.0842 96.9418 39.9808C96.8588 39.8774 96.7438 39.8045 96.6149 39.7737C90.0212 38.0759 83.9979 34.6513 79.1672 29.8528C74.3366 25.0544 70.8721 19.055 69.13 12.4725C69.0959 12.3479 69.0211 12.2379 68.918 12.1596C68.8151 12.0812 68.6892 12.0387 68.5594 12.0385H67.8735C67.7935 12.0354 67.7146 12.0485 67.6398 12.077C67.5647 12.1054 67.4968 12.1487 67.4387 12.2041C67.3818 12.2596 67.3359 12.3262 67.304 12.3997C67.2729 12.4733 67.257 12.5525 67.257 12.6324V41.2587C67.257 41.5788 67.5309 41.8302 67.8507 41.8302V41.8071ZM67.8507 75.0257H68.7191C68.993 75.0257 69.2218 74.8428 69.29 74.5689C70.9961 67.9742 74.4284 61.9525 79.2351 57.1254C84.043 52.2986 90.049 48.8405 96.6369 47.1077C96.8659 47.039 97.0716 46.7876 97.0716 46.5363V45.8281C97.0716 45.6706 97.0087 45.5196 96.8978 45.4082C96.7859 45.2968 96.6349 45.2341 96.4771 45.2341H67.8507C67.6937 45.2341 67.5427 45.2968 67.4308 45.4082C67.3199 45.5196 67.257 45.6706 67.257 45.8281V74.432C67.257 74.7749 67.5309 75.0257 67.8507 75.0257ZM62.5052 75.0257H63.2356C63.5557 75.0257 63.8076 74.7749 63.8076 74.432V45.8281C63.8076 45.6744 63.7474 45.5267 63.6415 45.4159C63.5346 45.3054 63.3896 45.2402 63.2356 45.2341H34.6094C34.4524 45.2341 34.3015 45.2968 34.1895 45.4082C34.0786 45.5196 34.0156 45.6706 34.0156 45.8281V46.6963C34.0156 46.9705 34.1985 47.199 34.4724 47.2675C41.0693 48.9675 47.0934 52.3954 51.9241 57.1983C56.755 62.0012 60.2183 68.005 61.9563 74.592C62.0254 74.8428 62.2533 75.0488 62.5052 75.0488V75.0257ZM34.6094 41.8071H63.2356C63.5557 41.8071 63.8076 41.556 63.8076 41.2362V12.6097C63.8076 12.4597 63.7515 12.3152 63.6495 12.2049C63.5475 12.0948 63.4086 12.0271 63.2587 12.0156H62.3683C62.2352 12.0171 62.1073 12.0629 62.0034 12.1458C61.9005 12.2285 61.8274 12.3436 61.7966 12.4725C60.0932 19.065 56.664 25.0843 51.8611 29.9111C47.0585 34.7377 41.0563 38.1974 34.4724 39.9338C34.3515 39.9676 34.2445 40.0388 34.1665 40.1373C34.0886 40.2357 34.0436 40.3565 34.0386 40.4821V41.2131C34.0386 41.5329 34.3125 41.7845 34.6323 41.7845L34.6094 41.8071Z" fill="#131313"/>
</g>
</svg>
