<svg width="132" height="88" viewBox="0 0 132 88" fill="none" xmlns="http://www.w3.org/2000/svg">
<path d="M64.9447 11.2744V12.33H52.8048C45.9431 12.33 40.1371 12.33 39.0814 12.8579C37.498 13.3857 36.4423 13.9135 35.3867 14.4413C34.8589 15.497 34.331 17.0804 33.8032 18.1361C33.2754 19.1917 33.2754 24.47 33.2754 30.8038L33.8032 41.3603L44.8875 33.9708C50.6935 29.7482 56.4996 26.0534 58.083 25.5256C59.1387 24.9978 60.1943 24.9978 60.7222 24.9978C60.7222 25.5256 57.5552 31.3317 53.8605 38.7212L47.5266 52.4446L46.471 50.8611C45.9431 49.8054 45.9431 47.1663 45.4153 45.055C45.4153 41.8881 45.4153 40.3046 46.471 38.1933C46.9988 36.6099 47.5266 35.0264 46.9988 35.0264C46.9988 35.0264 43.8318 37.1377 40.1371 39.7768L33.2754 43.9994L41.1927 49.2776C45.9431 52.4446 50.1657 55.0837 51.2214 56.1393L53.3326 57.195L54.3883 54.5558L55.4439 52.4446H60.1943H64.9447V48.7498V45.5829H61.7778H59.1387L59.6665 44.5272C59.6665 43.9994 60.7222 40.8325 62.3056 38.1933L64.9447 32.9151V22.8865V12.33H77.6125C88.6968 12.33 90.808 12.33 92.3915 13.3857C93.4472 13.9135 94.5028 14.9692 95.5585 16.0248L96.6141 17.6083V29.7482C96.6141 36.6099 96.6141 41.8881 96.6141 41.8881C96.0863 41.8881 91.3359 38.7212 85.5298 34.4986C79.7238 30.276 73.9177 26.5812 72.3343 26.0534C71.2786 25.5256 70.223 24.9978 69.6951 24.9978C69.6951 25.5256 72.3343 31.3317 76.029 38.1933C79.196 45.5829 82.3629 51.3889 82.8907 51.3889C82.8907 51.3889 83.4185 50.8611 83.9464 49.8054C83.9464 48.7498 84.4742 46.1107 84.4742 43.9994C84.4742 41.3603 83.9464 39.249 83.4185 37.6655C82.8907 36.0821 82.8907 35.0264 82.8907 35.0264C82.8907 35.0264 86.0576 37.1377 89.2246 39.249C92.9193 41.8881 95.5585 43.9994 95.5585 43.9994C95.5585 43.9994 91.3359 47.1663 86.0576 50.8611L77.0847 57.195L76.029 55.0837L74.9734 52.9724H69.6951H64.9447V58.2506V63.5288H63.3613C62.3056 63.5288 60.1943 63.001 58.6109 62.4732C57.5552 61.9454 51.2214 58.7784 44.8875 54.5558C38.5536 50.3333 33.8032 47.1663 33.2754 47.1663C33.2754 47.1663 33.2754 52.4446 33.2754 58.7784C33.2754 68.2792 33.8032 70.3905 34.331 71.974C34.8589 73.0296 35.9145 74.0853 36.9701 74.6131C38.5536 75.1409 40.6649 75.6687 51.7492 75.6687H64.9447V76.7244V77.78H78.1403C90.2802 77.78 91.8637 77.2522 93.4472 76.7244C94.5028 76.1966 96.0863 74.6131 97.1419 73.5575L98.7254 71.4462V43.9994V16.5526L97.1419 14.4413C96.0863 13.3857 94.5028 11.8022 93.4472 11.2744C91.8637 10.7466 90.2802 10.2188 78.1403 10.2188H64.9447V11.2744ZM95.5585 71.4462C95.0306 72.5018 93.975 73.5575 93.4472 74.0853L91.8637 75.1409L78.1403 75.6687H64.9447V69.8627V63.5288H67.5839C68.6395 63.5288 71.2786 62.4732 72.8621 61.9454C74.4455 60.8897 80.2516 57.195 86.0576 53.5002L96.6141 46.1107V58.2506C96.6141 68.8071 96.6141 70.3905 95.5585 71.4462Z" fill="black"/>
<path d="M64.9453 39.2492V45.0553H67.5844H70.7514L68.1122 39.777C67.0566 37.1379 65.4731 34.4988 65.4731 34.4988C64.9453 33.971 64.9453 36.0823 64.9453 39.2492Z" fill="black"/>
</svg>
