<svg width="132" height="88" viewBox="0 0 132 88" fill="none" xmlns="http://www.w3.org/2000/svg">
<path fill-rule="evenodd" clip-rule="evenodd" d="M47.0202 11.6541C43.5531 15.0747 42.3034 16.5784 42.3034 17.3284C42.3034 18.0672 43.5302 19.5941 46.7446 22.856C49.1874 25.335 51.5168 27.4681 51.9205 27.5961C53.1502 27.9865 54.8006 26.7992 59.0365 22.4768C61.7837 19.674 63.0899 18.0339 63.0899 17.3879C63.0899 15.9898 54.1496 7 52.7598 7C52.0157 7 50.4538 8.26673 47.0202 11.6541ZM73.8407 11.4412C71.3617 13.8841 69.2286 16.2134 69.1005 16.6171C68.9721 17.0212 69.1438 17.8755 69.4817 18.5157C69.8197 19.156 74.9357 24.4973 80.8503 30.3848C88.819 38.3174 91.858 41.0899 92.5851 41.0899C94.0269 41.0899 103 32.1704 103 30.737C103 29.2457 80.8407 7 79.3553 7C78.6332 7 77.0709 8.258 73.8407 11.4412ZM33.7169 24.9575C30.2497 28.3781 29 29.8818 29 30.6318C29 31.3705 30.2268 32.8975 33.4412 36.1593C35.8841 38.6383 38.2134 40.7714 38.6171 40.8995C39.0212 41.0279 39.8755 40.8592 40.5157 40.5245C41.9325 39.7841 49.7865 31.8424 49.7865 31.1498C49.7865 29.987 48.3614 28.1636 44.4768 24.3567C41.674 21.6096 40.0339 20.3034 39.3879 20.3034C38.731 20.3034 36.965 21.753 33.7169 24.9575ZM60.3037 25.0003C56.8855 28.418 55.6067 29.9733 55.6067 30.7112C55.6067 32.1675 91.1168 67.6966 92.5718 67.6966C94.0314 67.6966 103 58.7871 103 57.3375C103 55.8188 67.5424 20.3034 66.0262 20.3034C65.2733 20.3034 63.7509 21.5526 60.3037 25.0003ZM47.0202 38.2608C43.4998 41.7343 42.3034 43.1789 42.3034 43.9572C42.3034 45.4118 51.2478 54.3933 52.6966 54.3933C54.1109 54.3933 63.0899 45.4143 63.0899 44C63.0899 42.6019 54.1122 33.6067 52.717 33.6067C52.0273 33.6067 50.3411 34.9845 47.0202 38.2608ZM33.7169 51.5642C30.2455 54.989 29 56.4881 29 57.2402C29 58.7015 37.885 67.6966 39.3284 67.6966C40.0672 67.6966 41.5941 66.4698 44.856 63.2554C47.335 60.8125 49.4681 58.4832 49.5961 58.0795C49.9865 56.8498 48.7992 55.1994 44.4768 50.9635C41.674 48.2163 40.0339 46.9101 39.3879 46.9101C38.731 46.9101 36.965 48.3598 33.7169 51.5642ZM64.5449 47.6904C62.2393 49.1272 55.6067 56.2832 55.6067 57.3337C55.6067 58.7613 77.8271 81 79.2531 81C80.7293 81 89.6966 72.103 89.6966 70.6383C89.6966 69.8131 87.2355 67.1233 78.3597 58.2471C72.1241 52.012 66.7458 46.9109 66.4074 46.9118C66.069 46.9126 65.2309 47.2631 64.5449 47.6904ZM51.2416 60.9938C48.9725 62.4077 42.3034 69.5865 42.3034 70.6146C42.3034 72.0102 51.2453 81 52.6334 81C54.0877 81 63.0899 72.1154 63.0899 70.6803C63.0899 69.9482 61.7957 68.3626 58.4059 64.9412C55.8296 62.3408 53.4445 60.2143 53.1053 60.2151C52.7661 60.216 51.9275 60.5664 51.2416 60.9938Z" fill="black"/>
</svg>
