<svg width="132" height="88" viewBox="0 0 132 88" fill="none" xmlns="http://www.w3.org/2000/svg">
<path fill-rule="evenodd" clip-rule="evenodd" d="M67.6954 9H64.3046L64.2886 9.00004C55.0457 9.026 46.1887 12.7184 39.6529 19.2706C38.1458 20.7814 36.7904 22.416 35.5966 24.1506C31.8323 24.8627 28.3388 26.6969 25.595 29.4527C22.0255 33.0381 20.0144 37.8926 20 42.9582L20 42.9744V46.3741L20 46.3903C20.0144 51.4571 22.0272 56.3125 25.5993 59.8969C28.6097 62.9177 32.5214 64.8291 36.7022 65.3671C37.6085 66.5435 38.5932 67.667 39.6529 68.7294C46.1887 75.2816 55.0457 78.974 64.2886 79L64.3046 79H67.6954L67.7114 79C76.9543 78.974 85.8113 75.2816 92.3471 68.7294C93.4068 67.667 94.3915 66.5435 95.2978 65.3671C99.4754 64.8295 103.385 62.9205 106.394 59.9033C109.97 56.3184 111.986 51.4602 112 46.3904L112 46.3741V42.9743L112 42.9581C111.986 37.8894 109.972 33.0321 106.399 29.4463C103.656 26.6939 100.165 24.8621 96.4034 24.1506C95.2096 22.4161 93.8542 20.7815 92.3471 19.2706C85.8113 12.7184 76.9543 9.026 67.7114 9.00004L67.6954 9ZM60.425 21.8947H71.45C82.6131 21.8947 91.6625 30.9669 91.6625 42.1579V45.8421C91.6625 57.0331 82.6131 66.1053 71.45 66.1053H60.425C49.262 66.1053 40.2125 57.0331 40.2125 45.8421V42.1579C40.2125 30.9669 49.262 21.8947 60.425 21.8947Z" fill="url(#paint0_linear_2227_6447)"/>
<defs>
<linearGradient id="paint0_linear_2227_6447" x1="112" y1="44" x2="20" y2="44" gradientUnits="userSpaceOnUse">
<stop stop-color="#FFD35D"/>
<stop offset="0.34" stop-color="#F1938E"/>
<stop offset="0.79" stop-color="#E045CB"/>
<stop offset="1" stop-color="#D926E3"/>
</linearGradient>
</defs>
</svg>
