<svg width="132" height="88" viewBox="0 0 132 88" fill="none" xmlns="http://www.w3.org/2000/svg">
<rect x="27.5" y="5.5" width="77" height="77" rx="38.5" fill="#FF1668"/>
<path d="M53.526 25.8041C56.7131 23.1843 60.777 21.7073 65.4086 21.4855C70.7037 21.232 75.2163 22.3085 78.7145 24.6596C80.4642 25.8355 82.2846 27.6454 83.2531 29.1719C84.4968 31.132 85.3345 33.2004 85.8675 35.6266L86.0655 36.5283H81.4216H76.7776L76.6849 36.1668C76.2487 34.4671 75.4079 32.9402 74.2907 31.8193C72.9416 30.4657 71.2946 29.6598 69.1148 29.2865C68.2256 29.1343 67.8524 29.1164 66.35 29.1543C64.4824 29.2013 63.5195 29.3627 62.2649 29.8391C58.799 31.1549 56.324 34.0828 55.2086 38.1867C54.0958 42.2807 54.2908 47.7372 55.6789 51.3503C57.0307 54.8689 59.4999 57.3341 62.6645 58.3247C64.1551 58.7913 64.6372 58.8526 66.816 58.8526C68.985 58.8526 69.5302 58.7852 70.9251 58.344C73.7123 57.4625 75.6755 55.5076 76.5537 52.7393L76.7862 52.0065H81.4309H86.0758L85.9549 52.538C85.1653 56.0115 83.9522 58.4513 81.9228 60.6482C80.1748 62.5403 78.4588 63.7739 76.178 64.7779C73.5348 65.9415 70.3324 66.5492 66.8447 66.5492C63.0766 66.5492 59.9262 65.8689 56.988 64.4207C54.979 63.4304 53.6792 62.4982 52.0703 60.8937C48.0139 56.848 45.9247 51.1227 45.9258 44.0548C45.9266 37.9491 47.4546 32.9198 50.5378 28.8742C51.1309 28.0961 52.7042 26.4797 53.526 25.8041Z" fill="white"/>
</svg>
