<svg width="132" height="88" viewBox="0 0 132 88" fill="none" xmlns="http://www.w3.org/2000/svg">
<path fill-rule="evenodd" clip-rule="evenodd" d="M53.4024 13.8228C46.5655 20.6691 41.0229 26.269 41.0856 26.2669C41.1482 26.265 41.7126 26.185 42.3398 26.0892C43.9324 25.8461 47.979 25.7498 49.5741 25.917C53.5857 26.3377 56.6765 27.5472 59.6116 29.845C60.1235 30.2459 60.3621 30.3732 60.3983 30.2647C60.4268 30.1791 60.6825 29.6437 60.9666 29.0749C61.621 27.7644 63.0216 26.3044 64.1798 25.7252C65.6534 24.9882 67.3994 24.8508 68.942 25.3504L69.5971 25.5625L69.1363 25.574C68.8829 25.5802 68.3736 25.6642 68.0044 25.7604C65.6681 26.3698 63.5367 28.8759 62.7945 31.8864L62.5528 32.867L63.2841 33.7667L64.0154 34.6663L64.2012 33.7172C64.6335 31.5084 65.7501 30.2583 67.587 29.9268C67.9869 29.8546 68.5224 29.8308 68.7768 29.8738L69.2396 29.9522L68.6001 30.2126C67.3543 30.7202 66.3606 31.5947 65.8126 32.6658C65.5192 33.2395 65.4918 33.3976 65.4962 34.493C65.5003 35.521 65.5467 35.8143 65.8215 36.5486C67.0905 39.9383 67.2947 40.8264 67.2921 42.9438C67.2906 44.1493 67.2377 44.6797 67.0497 45.3762C66.7289 46.5649 66.0927 47.746 65.3274 48.5738C64.7271 49.223 63.6208 50.0735 63.5147 49.9673C63.487 49.9395 63.6741 49.5941 63.9306 49.1996C65.463 46.8429 65.8646 44.6839 65.2498 42.1093L64.9514 40.8592L64.5639 41.5851C64.0506 42.5471 63.2627 43.3302 62.3578 43.7774C61.702 44.1016 61.5103 44.1425 60.6471 44.1426C59.8261 44.1429 59.5715 44.0943 59.0094 43.8306C58.6433 43.6589 58.1372 43.3545 57.8846 43.1541C57.5096 42.8567 57.391 42.8144 57.2386 42.9231C56.4648 43.4749 55.6447 43.7826 54.8144 43.8326C53.7612 43.8961 53.2465 43.7452 52.6379 43.1948C52.0727 42.6834 51.8022 42.156 51.6368 41.2426C51.4897 40.4306 51.5704 39.5162 51.8644 38.6613L52.0608 38.0903L52.003 39.1459C51.9355 40.3789 52.1254 41.0474 52.6744 41.51C53.3709 42.0969 54.5649 42.1681 55.533 41.6806C56.3848 41.2517 56.4143 41.2023 56.23 40.515C56.0637 39.8949 56.0954 39.2607 56.3335 38.4446L56.4703 37.9761L56.5439 38.8899C56.5844 39.3925 56.7051 39.9731 56.8119 40.1801L57.0064 40.5565L57.4636 40.0086C58.3556 38.9397 59.1871 36.782 59.444 34.8697L59.5238 34.2759L58.687 33.7367C55.1277 31.4437 51.5384 30.4898 46.4734 30.4907C43.1214 30.4912 39.976 30.9217 36.3524 31.8759L35.0408 32.2212L29.2575 38.0058C26.0766 41.1873 23.4911 43.8073 23.5118 43.8281C23.5783 43.8947 25.4941 43.0133 29.2316 41.1967C35.4137 38.192 37.6672 37.4622 40.7629 37.4622C43.6622 37.4622 45.8604 38.3441 47.879 40.3172C48.9334 41.3477 49.925 42.7542 50.5159 44.0571C50.9081 44.9217 51.1921 45.6846 51.1219 45.6846C51.0964 45.6846 50.9093 45.4404 50.7063 45.1421C49.399 43.2207 47.6508 41.9281 45.5707 41.3447C43.5916 40.7897 41.2172 40.8322 38.6513 41.4683C37.0286 41.8706 35.8685 42.2976 33.7863 43.259C31.2657 44.4229 28.9326 45.2794 26.7226 45.8522C26.0993 46.0138 25.5752 46.1602 25.5578 46.1776C25.5405 46.1949 26.4639 47.147 27.61 48.2933L29.6938 50.3776L30.2574 50.255C31.7144 49.9382 34.2475 48.9607 35.7251 48.1452C37.5327 47.1477 41.4798 45.8975 44.0081 45.5221C45.5633 45.291 48.2821 45.2892 49.6928 45.5183C54.4919 46.2977 58.0124 49.5033 58.423 53.4679C58.6815 55.9632 57.2839 58.7814 55.1131 60.1422C54.8226 60.3242 54.8519 60.2654 55.3076 59.7518C55.9751 58.9992 56.409 58.1273 56.5004 57.3545L56.5705 56.762H55.6527C55.1479 56.762 54.1015 56.8424 53.3274 56.9407C48.476 57.5566 44.551 59.146 42.1415 61.4704L41.4428 62.1445L53.6666 74.3848L65.8904 86.625L82.4844 70.0091C91.611 60.8705 99.0782 53.3487 99.0782 53.2942C99.0782 53.1304 95.4521 53.2966 94.5163 53.5031C94.0459 53.607 93.0708 53.9012 92.3494 54.1569C91.6281 54.4127 90.0884 54.9447 88.928 55.3393L86.8181 56.0565L85.5066 57.5904C84.7853 58.4341 83.9374 59.3508 83.6227 59.6276C81.6665 61.3474 78.764 63.0842 75.5275 64.4714C73.1846 65.4755 71.1001 66.0935 67.2614 66.9218C65.2374 67.3585 63.1769 67.8506 62.6827 68.0154C60.3166 68.8046 57.4317 70.674 54.9545 73.0233C54.2373 73.7035 54.2793 73.5941 55.2131 72.3502C56.6295 70.4635 57.7476 69.1242 58.6555 68.2268C59.4253 67.466 59.8131 67.1884 60.8312 66.6694C62.3457 65.8971 63.8017 65.347 65.6049 64.8654C67.524 64.3527 70.8721 63.1937 73.0219 62.2979C76.6919 60.7685 80.93 58.3902 81.9519 57.2865L82.3318 56.8762L81.2106 56.8752C79.2858 56.8738 77.7435 56.5012 76.4017 55.7137C75.7365 55.3233 73.7598 53.4528 73.7598 53.2139C73.7598 53.1192 73.8224 53.1258 73.9726 53.2364C76.2414 54.9064 77.1401 55.2774 78.918 55.2774C80.23 55.2774 83.7634 54.3287 84.6721 53.7325C85.2648 53.3436 86.4008 50.4395 86.6554 48.6622C87.4213 43.3149 83.9813 37.665 77.2952 33.2891C74.9825 31.7754 74.1439 30.6245 74.0184 28.792C73.9243 27.417 74.0346 27.3178 74.5355 28.3264C75.0374 29.3371 75.4931 29.733 76.4353 29.9772C78.3148 30.4643 79.6277 29.9844 80.7961 28.3833L81.0461 28.0407L81.0498 28.4404C81.0517 28.6602 81.0071 29.0397 80.9506 29.2837L80.8478 29.7273L81.3239 29.2675C82.0299 28.5859 82.4558 28.4067 83.2363 28.4632C83.7223 28.4985 84.0476 28.6061 84.4786 28.8743C85.0412 29.2246 85.077 29.2318 85.4622 29.0705C86.5318 28.6231 86.9892 27.9595 86.9892 26.8555C86.9892 25.9145 86.9336 25.8138 86.4142 25.8138C84.66 25.8138 81.2418 24.5135 77.411 22.389C74.7872 20.934 72.4319 19.7666 71.41 19.4145L70.7805 19.1977L71.0906 19.5651C71.5092 20.061 71.8797 20.9274 72.1613 22.0685C72.5213 23.5274 72.5205 23.5174 72.241 23.1301C71.2147 21.7082 70.0871 21.1042 68.9034 21.3423C67.8375 21.5566 66.7486 22.2344 65.0352 23.7498C63.8031 24.8395 63.3521 25.0717 62.4691 25.0705C61.872 25.0695 61.5837 24.9994 60.9865 24.7097C60.5788 24.5119 60.0913 24.2162 59.9031 24.0527L59.5609 23.7554L59.9031 23.8393C60.4357 23.9699 61.2605 23.9138 61.625 23.7222C62.0288 23.5098 62.7385 22.7731 63.3504 21.931C64.6784 20.1034 66.2071 19.2652 68.1895 19.2777L68.9692 19.2826L68.7699 19.0293C68.2813 18.4084 67.1817 17.6143 65.7471 16.8468C64.6196 16.2436 64.7098 16.1598 66.3848 16.2551C69.219 16.4164 73.6005 18.3022 78.2051 21.3425C81.2538 23.3556 84.1691 24.5274 87.1005 24.9183L88.1059 25.0523L88.2318 25.6805C88.6338 27.6849 88.1231 29.54 86.7991 30.8847C86.2396 31.453 85.2054 32.209 84.9874 32.209C84.9197 32.209 84.7433 31.9165 84.5954 31.5592C83.7014 29.3994 81.7804 29.1162 80.1226 30.8998C79.8071 31.2392 79.2956 31.6433 78.9859 31.7979L78.4229 32.0788L79.6592 32.712C82.9827 34.4144 86.0868 36.9225 87.7423 39.2433C88.4228 40.1976 89.2171 41.7203 89.5612 42.7307C90.3868 45.1547 90.3806 48.1874 89.5447 50.8236C89.3953 51.2946 89.2724 51.7099 89.2716 51.7463C89.2708 51.7826 90.0784 51.541 91.0664 51.2092C93.5665 50.3696 94.4788 50.195 96.3411 50.1997C98.0683 50.204 99.0904 50.424 100.356 51.0637L101.052 51.4158L104.77 47.6936L108.487 43.9715L87.2173 22.6733C75.5191 10.9592 65.922 1.375 65.8904 1.375C65.8589 1.375 60.2393 6.97651 53.4024 13.8228ZM75.6415 24.2838C75.3906 24.3745 75.069 24.5384 74.9268 24.6479L74.6683 24.847L75.2926 25.4643C75.8113 25.9774 75.9803 26.0788 76.2924 26.0648C78.2125 25.9786 78.7672 25.9288 79.0578 25.817L79.3949 25.6874L78.887 25.3984C78.6076 25.2396 78.1657 24.9346 77.9052 24.7208C77.1128 24.0706 76.5378 23.9596 75.6415 24.2838ZM61.7257 36.7199C60.9017 38.6878 59.9594 40.304 59.0995 41.2246L58.5854 41.7749L59.0843 41.8498C59.6576 41.936 60.4771 41.7787 61.0819 41.4665C61.8744 41.0574 62.6165 40.0632 63.1108 38.7483L63.3891 38.0077L63.1081 37.6492C62.9536 37.4521 62.6224 37.0596 62.3721 36.777L61.9169 36.2631L61.7257 36.7199ZM43.9935 49.2298C41.5484 49.5325 39.2627 50.1311 36.1955 51.272C34.414 51.9345 32.501 52.5366 32.1769 52.5366C32.0899 52.5366 32.0186 52.5754 32.0186 52.6229C32.0186 52.6705 33.5003 54.1925 35.3114 56.005L38.6041 59.3007L39.2225 58.7964C41.3275 57.0797 43.9431 55.9662 47.2574 55.3761C48.5268 55.1501 49.114 55.1144 51.5777 55.1131C53.2886 55.1122 54.7893 55.1682 55.3304 55.2529C55.8262 55.3306 56.2608 55.3653 56.296 55.33C56.4144 55.2116 55.9515 54.0848 55.4892 53.3659C54.2789 51.4839 51.9264 50.0179 49.1827 49.4357C47.9782 49.1801 45.2645 49.0724 43.9935 49.2298Z" fill="#04A6E1"/>
</svg>
