<svg width="132" height="88" viewBox="0 0 132 88" fill="none" xmlns="http://www.w3.org/2000/svg">
<path d="M66.0004 78.0984C84.8333 78.0984 100.1 62.8313 100.1 43.9984C100.1 25.1656 84.8333 9.89844 66.0004 9.89844C47.1675 9.89844 31.9004 25.1656 31.9004 43.9984C31.9004 62.8313 47.1675 78.0984 66.0004 78.0984Z" fill="#FFBD12"/>
<path fill-rule="evenodd" clip-rule="evenodd" d="M48.3448 62.8541C52.9509 67.4603 58.7529 69.7634 65.7508 69.7634C70.0027 69.7634 73.9003 68.789 77.4435 66.8403C81.0309 64.8472 83.8434 62.1455 85.8807 58.7352L75.5832 52.756C74.6974 54.439 73.3688 55.7677 71.5972 56.7421C69.8698 57.6721 67.9211 58.1373 65.7508 58.1373C62.0304 58.1373 59.0187 56.9857 56.7156 54.6826C54.4568 52.3352 53.3274 49.2792 53.3274 45.5145C53.3274 41.7498 54.4568 38.716 56.7156 36.4128C59.0187 34.0655 62.0304 32.8918 65.7508 32.8918C67.9211 32.8918 69.8698 33.379 71.5972 34.3534C73.3688 35.2835 74.6974 36.5679 75.5832 38.2066L85.8807 32.2939C83.8434 28.9278 81.0309 26.2483 77.4435 24.2552C73.856 22.2621 69.9584 21.2656 65.7508 21.2656C58.7529 21.2656 52.9509 23.5909 48.3448 28.2413C43.7829 32.8475 41.502 38.6052 41.502 45.5145C41.502 52.4238 43.7829 58.2037 48.3448 62.8541ZM84.945 50.819C87.8746 50.819 90.2495 48.4441 90.2495 45.5145C90.2495 42.5849 87.8746 40.2101 84.945 40.2101C82.0155 40.2101 79.6406 42.5849 79.6406 45.5145C79.6406 48.4441 82.0155 50.819 84.945 50.819Z" fill="#18191F"/>
<path fill-rule="evenodd" clip-rule="evenodd" d="M72.3216 58.0733L72.3157 58.0765C70.3448 59.1378 68.1447 59.6528 65.7508 59.6528C61.6907 59.6528 58.2724 58.3827 55.6439 55.7542L55.6337 55.7439L55.6236 55.7335C53.0507 53.0597 51.8119 49.6053 51.8119 45.5145C51.8119 41.4243 53.0506 37.9852 55.6336 35.3517C58.2602 32.6746 61.6819 31.3763 65.7508 31.3763C68.1486 31.3763 70.3513 31.9153 72.3218 33.0222C73.8457 33.8256 75.1063 34.8765 76.0785 36.1747L83.7313 31.7805C81.9299 29.25 79.5953 27.1845 76.7074 25.5801C73.3509 23.7154 69.7077 22.7811 65.7508 22.7811C59.1265 22.7811 53.7221 24.966 49.4216 29.3079C45.1606 33.6103 43.0175 38.9756 43.0175 45.5145C43.0175 52.0509 45.1591 57.4398 49.4215 61.7876C53.7201 66.0836 59.1245 68.2478 65.7508 68.2478C69.7596 68.2478 73.403 67.3322 76.71 65.514C79.6021 63.9068 81.9407 61.8197 83.7445 59.2472L76.0909 54.8032C75.1198 56.1387 73.8579 57.2284 72.3275 58.07L72.3216 58.0733ZM75.1822 53.4466C74.314 54.8066 73.1191 55.9051 71.5972 56.7421C69.8698 57.6721 67.9211 58.1373 65.7508 58.1373C62.0304 58.1373 59.0187 56.9857 56.7156 54.6826C54.4568 52.3352 53.3274 49.2792 53.3274 45.5145C53.3274 41.7498 54.4568 38.716 56.7156 36.4128C59.0187 34.0655 62.0304 32.8918 65.7508 32.8918C67.9211 32.8918 69.8698 33.379 71.5972 34.3534C73.2176 35.2041 74.4675 36.3512 75.3468 37.7949C75.4289 37.9296 75.5076 38.0668 75.5832 38.2066L85.8807 32.2939C85.6173 31.8586 85.3408 31.4348 85.0514 31.0224C83.103 28.2462 80.5671 25.9905 77.4435 24.2552C73.856 22.2621 69.9584 21.2656 65.7508 21.2656C58.7529 21.2656 52.9509 23.5909 48.3448 28.2413C43.7829 32.8475 41.502 38.6052 41.502 45.5145C41.502 52.4238 43.7829 58.2037 48.3448 62.8541C52.9509 67.4603 58.7529 69.7634 65.7508 69.7634C70.0027 69.7634 73.9003 68.789 77.4435 66.8403C80.5714 65.1025 83.1101 62.826 85.0596 60.0108C85.3461 59.5972 85.6198 59.172 85.8807 58.7352L75.5832 52.756C75.4584 52.9932 75.3248 53.2235 75.1822 53.4466ZM84.945 49.3034C87.0375 49.3034 88.7339 47.6071 88.7339 45.5145C88.7339 43.422 87.0375 41.7256 84.945 41.7256C82.8524 41.7256 81.1562 43.422 81.1562 45.5145C81.1562 47.6071 82.8524 49.3034 84.945 49.3034ZM90.2495 45.5145C90.2495 48.4441 87.8746 50.819 84.945 50.819C82.0155 50.819 79.6406 48.4441 79.6406 45.5145C79.6406 42.5849 82.0155 40.2101 84.945 40.2101C87.8746 40.2101 90.2495 42.5849 90.2495 45.5145Z" fill="#18191F"/>
<path fill-rule="evenodd" clip-rule="evenodd" d="M48.3448 61.3385C52.9509 65.9447 58.7529 68.2478 65.7508 68.2478C70.0027 68.2478 73.9003 67.2734 77.4435 65.3247C81.0309 63.3315 83.8434 60.6299 85.8807 57.2195L75.5832 51.2403C74.6974 52.9234 73.3688 54.252 71.5972 55.2265C69.8698 56.1565 67.9211 56.6215 65.7508 56.6215C62.0304 56.6215 59.0187 55.4701 56.7156 53.167C54.4568 50.8195 53.3274 47.7636 53.3274 43.9989C53.3274 40.2342 54.4568 37.2003 56.7156 34.8972C59.0187 32.5499 62.0304 31.3762 65.7508 31.3762C67.9211 31.3762 69.8698 31.8634 71.5972 32.8377C73.3688 33.7678 74.6974 35.0523 75.5832 36.691L85.8807 30.7783C83.8434 27.4122 81.0309 24.7327 77.4435 22.7396C73.856 20.7465 69.9584 19.75 65.7508 19.75C58.7529 19.75 52.9509 22.0753 48.3448 26.7257C43.7829 31.3318 41.502 37.0896 41.502 43.9989C41.502 50.9082 43.7829 56.688 48.3448 61.3385ZM84.945 49.3033C87.8746 49.3033 90.2495 46.9285 90.2495 43.9989C90.2495 41.0693 87.8746 38.6945 84.945 38.6945C82.0155 38.6945 79.6406 41.0693 79.6406 43.9989C79.6406 46.9285 82.0155 49.3033 84.945 49.3033Z" fill="white"/>
<path fill-rule="evenodd" clip-rule="evenodd" d="M72.3216 56.5577L72.3157 56.5608C70.3448 57.6222 68.1447 58.1372 65.7508 58.1372C61.6907 58.1372 58.2724 56.8671 55.6439 54.2386L55.6337 54.2283L55.6236 54.2178C53.0507 51.5441 51.8119 48.0897 51.8119 43.9989C51.8119 39.9087 53.0506 36.4696 55.6336 33.836C58.2602 31.159 61.6819 29.8607 65.7508 29.8607C68.1486 29.8607 70.3513 30.3997 72.3218 31.5066C73.8457 32.31 75.1063 33.3609 76.0785 34.659L83.7313 30.2649C81.9299 27.7344 79.5953 25.6689 76.7074 24.0645C73.3509 22.1998 69.7077 21.2655 65.7508 21.2655C59.1265 21.2655 53.7221 23.4504 49.4216 27.7923C45.1606 32.0947 43.0175 37.46 43.0175 43.9989C43.0175 50.5353 45.1591 55.9242 49.4215 60.2719C53.7201 64.568 59.1245 66.7322 65.7508 66.7322C69.7596 66.7322 73.403 65.8165 76.71 63.9984C79.6021 62.3911 81.9407 60.3041 83.7445 57.7316L76.0909 53.2876C75.1198 54.6231 73.8579 55.7128 72.3275 56.5544L72.3216 56.5577ZM75.1822 51.931C74.314 53.291 73.1191 54.3895 71.5972 55.2265C69.8698 56.1565 67.9211 56.6215 65.7508 56.6215C62.0304 56.6215 59.0187 55.4701 56.7156 53.167C54.4568 50.8195 53.3274 47.7636 53.3274 43.9989C53.3274 40.2342 54.4568 37.2003 56.7156 34.8972C59.0187 32.5499 62.0304 31.3762 65.7508 31.3762C67.9211 31.3762 69.8698 31.8634 71.5972 32.8377C73.2176 33.6885 74.4675 34.8356 75.3468 36.2793C75.4289 36.4139 75.5076 36.5512 75.5832 36.691L85.8807 30.7783C85.6173 30.3429 85.3408 29.9192 85.0514 29.5068C83.103 26.7306 80.5671 24.4749 77.4435 22.7396C73.856 20.7465 69.9584 19.75 65.7508 19.75C58.7529 19.75 52.9509 22.0753 48.3448 26.7257C43.7829 31.3318 41.502 37.0896 41.502 43.9989C41.502 50.9082 43.7829 56.688 48.3448 61.3385C52.9509 65.9447 58.7529 68.2478 65.7508 68.2478C70.0027 68.2478 73.9003 67.2734 77.4435 65.3247C80.5714 63.5869 83.1101 61.3104 85.0596 58.4952C85.3461 58.0816 85.6198 57.6564 85.8807 57.2195L75.5832 51.2403C75.4584 51.4776 75.3248 51.7078 75.1822 51.931ZM84.945 47.7878C87.0375 47.7878 88.7339 46.0915 88.7339 43.9989C88.7339 41.9064 87.0375 40.21 84.945 40.21C82.8524 40.21 81.1562 41.9064 81.1562 43.9989C81.1562 46.0915 82.8524 47.7878 84.945 47.7878ZM90.2495 43.9989C90.2495 46.9285 87.8746 49.3033 84.945 49.3033C82.0155 49.3033 79.6406 46.9285 79.6406 43.9989C79.6406 41.0693 82.0155 38.6945 84.945 38.6945C87.8746 38.6945 90.2495 41.0693 90.2495 43.9989Z" fill="#18191F"/>
</svg>
