<svg width="132" height="88" viewBox="0 0 132 88" fill="none" xmlns="http://www.w3.org/2000/svg">
<path d="M66 80C46.1183 80 30 63.8816 30 44C30 24.1184 46.1183 8 66 8C85.8817 8 102 24.1184 102 44C102 63.8816 85.8841 80 66 80ZM88.1378 44.2664C88.2048 38.6192 84.951 32.588 80.6708 28.2656C73.2038 20.8544 62.5883 21.2504 54.5351 25.0664C61.4686 25.6472 65.4928 27.98 69.4691 32C73.5268 36.0152 74.802 39.08 74.8044 44.2664H67.8685L81.2044 59.1992L94.5378 44.2664H88.1378ZM43.867 43.736C43.7976 49.3832 47.0538 55.4144 51.3316 59.7368C58.801 67.148 69.4141 66.752 77.4673 62.936C70.5338 62.3552 66.512 60.0224 62.5333 56.0024C58.478 51.9872 57.2004 48.9224 57.2004 43.736H64.1338L50.8004 28.8008L37.467 43.7336H43.867V43.736Z" fill="#FF3333"/>
</svg>
