<svg width="132" height="88" viewBox="0 0 132 88" fill="none" xmlns="http://www.w3.org/2000/svg">
<path d="M30.5688 76.8769C21.0272 67.3253 28.6802 44.212 47.661 25.2524C49.547 23.3684 51.4742 21.5968 53.4241 19.9423H53.5491C50.2905 22.9408 47.2647 26.5758 44.6765 30.7547C34.253 47.5883 34.8901 66.8631 46.1022 73.8058C50.4514 76.4991 55.7516 76.9414 61.2207 75.491C48.5242 82.0527 36.7229 83.0376 30.5688 76.8769Z" fill="#242A4C"/>
<path fill-rule="evenodd" clip-rule="evenodd" d="M67.5754 39.9628H93.9474C91.7568 25.6914 79.4254 14.7617 64.5412 14.7617C48.1095 14.7617 34.7891 28.0822 34.7891 44.5138C34.7891 60.9455 48.1095 74.266 64.5412 74.266C67.0478 74.266 69.4821 73.956 71.8077 73.3722L77.2387 47.3864H66.4457L67.5754 39.9628ZM83.5133 47.3864H94.1564C93.188 57.4954 87.1609 66.1275 78.6362 70.7219L83.5133 47.3864ZM69.8016 36.4832H76.5327C76.5936 34.2533 76.2949 32.2712 75.6364 30.5368C74.9901 28.7894 74.0451 27.3159 72.8013 26.1162C71.5575 24.9034 70.0638 23.9841 68.32 23.3582C66.5885 22.7322 64.6619 22.4193 62.5401 22.4193C59.3331 22.4193 56.3395 23.2147 53.5593 24.8056C50.7913 26.3835 48.4439 28.6721 46.5173 31.6714C44.6028 34.6706 43.3103 38.3023 42.6396 42.5665C41.9689 46.9481 42.1519 50.7102 43.1883 53.8529C44.2248 56.9826 45.932 59.3885 48.3098 61.0707C50.6998 62.7399 53.5715 63.5745 56.9248 63.5745C59.1075 63.5745 61.1439 63.2159 63.034 62.4986C64.924 61.7814 66.6312 60.7904 68.1554 59.5255C69.6797 58.2475 70.9844 56.7739 72.0697 55.1048C73.1549 53.4226 73.978 51.6295 74.5389 49.7257H67.7164C67.3262 50.8862 66.7775 51.923 66.0703 52.8358C65.3752 53.7486 64.5643 54.5245 63.6376 55.1635C62.723 55.7894 61.7231 56.2654 60.6379 56.5914C59.5526 56.9043 58.4186 57.0608 57.2358 57.0608C55.2969 57.0608 53.6507 56.5523 52.2972 55.5351C50.9437 54.5049 49.9926 52.9792 49.4438 50.958C48.9073 48.9367 48.8646 46.4265 49.3158 43.4272C49.8035 40.3497 50.6754 37.7351 51.9314 35.5834C53.1874 33.4188 54.7177 31.7692 56.5224 30.6346C58.3271 29.5001 60.2781 28.9329 62.3755 28.9329C63.4729 28.9329 64.4729 29.1024 65.3752 29.4415C66.2776 29.7675 67.058 30.2565 67.7164 30.9085C68.3749 31.5605 68.8871 32.356 69.2529 33.2949C69.6187 34.2207 69.8016 35.2835 69.8016 36.4832Z" fill="#6DAAD8"/>
<path d="M101.431 11.1231C110.973 20.6747 103.32 43.788 84.339 62.7476C82.453 64.6316 80.5258 66.4032 78.5759 68.0577H78.4509C81.7095 65.0592 84.7353 61.4242 87.3235 57.2453C97.747 40.4117 97.1099 21.1369 85.8978 14.1942C81.5486 11.5009 76.2484 11.0586 70.7793 12.509C83.4758 5.94731 95.2771 4.96242 101.431 11.1231Z" fill="#242A4C"/>
</svg>
