<svg width="132" height="88" viewBox="0 0 132 88" fill="none" xmlns="http://www.w3.org/2000/svg">
<path fill-rule="evenodd" clip-rule="evenodd" d="M63.9087 8.21709C63.6343 8.25198 62.4368 8.4698 61.2476 8.70091C47.5551 11.3627 36.3859 22.2335 33.322 35.8802C31.4869 44.0547 32.4269 52.2859 36.0414 59.6918C37.8661 63.4306 39.7296 66.0861 42.6125 69.0556C47.6075 74.2005 53.8065 77.6551 60.6655 79.1166C63.2863 79.6748 65.349 79.8785 68.3841 79.8785C77.9713 79.8785 86.6257 76.2466 93.5128 69.3331C98.149 64.679 99.7493 61.6787 99.5377 58.0365C99.4258 56.1079 98.9528 54.6415 97.9481 53.1086C96.11 50.3038 93.5507 48.8457 90.1802 48.6832C88.8155 48.6174 88.2536 48.6692 87.1045 48.9668C84.645 49.6036 83.159 50.6746 81.2401 53.1927C78.9817 56.1566 76.3341 58.1448 73.2862 59.1663C70.7015 60.0324 66.8994 60.158 64.2772 59.4639C58.7566 58.0021 54.2869 53.5366 52.8284 48.0257C52.3984 46.4008 52.2419 43.3477 52.5023 41.665C52.7792 39.8756 53.676 37.3896 54.615 35.8082C55.7089 33.966 58.1279 31.528 59.9807 30.4003C62.7195 28.7336 65.88 27.9258 68.9813 28.1002C74.0399 28.3845 78.2066 30.671 81.3181 34.8695C83.4381 37.7302 85.5712 38.9907 89.0426 39.4337C90.7834 39.6557 93.4356 38.9347 95.2153 37.7556C99.3701 35.0031 100.807 29.3453 98.4839 24.8843C97.2091 22.4363 93.5085 18.2242 90.6082 15.9206C85.4834 11.8497 80.1317 9.47564 73.7213 8.42943C72.1208 8.16824 71.0009 8.1086 68.0666 8.12854C66.0542 8.14216 64.1831 8.18203 63.9087 8.21709Z" fill="black"/>
<path d="M45.6949 16.0365V71.8927C44.6237 71.0139 43.5948 70.0675 42.6125 69.0558C39.7296 66.0863 37.8661 63.4308 36.0414 59.692C32.4269 52.286 31.4869 44.0547 33.322 35.8802C35.0943 27.9861 39.5788 21.0212 45.6949 16.0365Z" fill="#2668F6"/>
<path d="M45.6949 71.8925V16.0363C49.6123 12.8436 54.1989 10.4634 59.1711 9.17198V30.9482C57.4741 32.2015 55.5551 34.2249 54.615 35.8082C53.676 37.3896 52.7792 39.8756 52.5023 41.665C52.2419 43.3477 52.3984 46.4008 52.8284 48.0257C53.7998 51.6963 56.1071 54.9031 59.1711 57.0674V78.7639C54.2353 77.4851 49.6727 75.1552 45.6949 71.8925Z" fill="#3583F6"/>
<path d="M72.6473 79.6328C71.2493 79.7962 69.8272 79.8785 68.3841 79.8785C65.349 79.8785 63.2863 79.6748 60.6655 79.1166C60.1638 79.0097 59.6656 78.892 59.1711 78.7639V57.0674C60.7073 58.1526 62.4337 58.9757 64.2772 59.4639C66.6907 60.1028 70.1039 60.0472 72.6473 59.3589V79.6328Z" fill="#439FF6"/>
<path d="M72.6473 8.27762V28.6991C71.4842 28.3723 70.2613 28.1722 68.9813 28.1002C65.88 27.9258 62.7195 28.7336 59.9807 30.4003C59.7202 30.5588 59.4486 30.7432 59.1711 30.9482V9.17198C59.8562 8.99403 60.5486 8.83679 61.2476 8.70091C62.4368 8.4698 63.6343 8.25198 63.9087 8.21709C64.1831 8.18203 66.0542 8.14216 68.0666 8.12854C70.3142 8.11326 71.4973 8.14469 72.6473 8.27762Z" fill="#439FF6"/>
<path d="M86.1235 75.1069C81.9935 77.5451 77.4627 79.07 72.6473 79.6328V59.3589C72.8672 59.2994 73.0805 59.2352 73.2862 59.1663C76.3341 58.1448 78.9817 56.1566 81.2401 53.1927C82.8899 51.0277 84.2198 49.9325 86.1235 49.2632V75.1069Z" fill="#50BAF6"/>
<path d="M86.1235 12.8282V38.749C84.2309 38.0398 82.7714 36.8306 81.3181 34.8695C78.9939 31.7333 76.081 29.664 72.6473 28.6991V8.27762C72.9986 8.31823 73.3468 8.36831 73.7213 8.42943C78.2933 9.1756 82.3268 10.5973 86.1235 12.8282Z" fill="#50BAF6"/>
<path d="M86.1235 75.1066C88.76 73.55 91.2332 71.6212 93.5128 69.3329C98.149 64.6788 99.7493 61.6786 99.5377 58.0363C99.4258 56.1077 98.9528 54.6413 97.9481 53.1084C96.11 50.3036 93.5507 48.8455 90.1802 48.683C88.8155 48.6172 88.2536 48.669 87.1045 48.9666C86.7596 49.0559 86.4339 49.1537 86.1235 49.2629V75.1066Z" fill="#5ED6F7"/>
<path d="M86.1235 38.7487V12.828C87.6501 13.725 89.1385 14.7529 90.6082 15.9204C93.5085 18.224 97.2091 22.4361 98.4839 24.8841C100.807 29.3451 99.3701 35.0029 95.2153 37.7554C93.4356 38.9346 90.7834 39.6555 89.0426 39.4335C87.9509 39.2942 86.9916 39.074 86.1235 38.7487Z" fill="#5ED6F7"/>
</svg>
