<svg width="132" height="88" viewBox="0 0 132 88" fill="none" xmlns="http://www.w3.org/2000/svg">
<path fill-rule="evenodd" clip-rule="evenodd" d="M51.9472 24.8214C55.0038 24.8214 57.8897 25.5719 60.4406 26.9002C58.3896 29.36 56.7996 32.1851 55.7482 35.2343C53.9027 34.3953 51.8408 34.1896 49.8712 34.6477C47.9006 35.1059 46.1287 36.2034 44.8178 37.7767C43.5071 39.35 42.728 41.3146 42.5968 43.3779C42.4667 45.4412 42.9904 47.4927 44.0915 49.226C45.1915 50.9599 46.8105 52.2829 48.7063 52.9979C50.6016 53.7132 52.6715 53.7822 54.6084 53.1948C56.5452 52.6074 58.2455 51.395 59.4539 49.7386C60.6622 48.082 61.3162 46.0699 61.3162 44.0021C61.3093 39.3288 62.9766 34.8149 66.0016 31.3142C68.519 28.3923 71.8459 26.3243 75.5408 25.3855C79.2346 24.4466 83.1201 24.6817 86.6808 26.0592C90.2412 27.4367 93.3069 29.8911 95.4714 33.0962C97.6359 36.3013 98.7945 40.1048 98.7945 44.001C98.7945 47.897 97.6359 51.7008 95.4714 54.9056C93.3069 58.1107 90.2412 60.5654 86.6808 61.9429C83.1201 63.3203 79.2346 63.5552 75.5408 62.6166C71.8459 61.6778 68.519 59.6098 66.0016 56.6879C63.9298 59.0919 61.3032 60.9265 58.3618 62.0237C55.4193 63.121 52.2552 63.4463 49.1587 62.9694C46.0622 62.4929 43.1315 61.2292 40.6352 59.2946C38.1379 57.3597 36.1554 54.8154 34.8665 51.8941C33.5786 48.9728 33.025 45.7674 33.2596 42.571C33.4931 39.3747 34.5057 36.2895 36.2041 33.5967C37.9024 30.9042 40.2337 28.6904 42.9834 27.1573C45.7341 25.6244 48.8158 24.8214 51.9472 24.8214ZM70.6862 44.0021C70.6862 46.5456 71.6729 48.9851 73.4299 50.7836C75.1869 52.5821 77.5709 53.5925 80.0555 53.5925C82.5407 53.5925 84.9238 52.5821 86.6808 50.7836C88.4378 48.9851 89.4256 46.5456 89.4256 44.0021C89.4256 41.4587 88.4378 39.0194 86.6808 37.2209C84.9238 35.4224 82.5407 34.4118 80.0555 34.4118C77.5709 34.4118 75.1869 35.4224 73.4299 37.2209C71.6729 39.0194 70.6862 41.4587 70.6862 44.0021Z" fill="#C5CEE0"/>
</svg>
