<svg width="132" height="88" viewBox="0 0 132 88" fill="none" xmlns="http://www.w3.org/2000/svg">
<path d="M92.1754 49.5824C88.0916 46.8127 82.5524 47.8867 79.7859 51.9858C79.7767 51.9981 79.7674 52.0166 79.7552 52.0289C79.7214 52.0781 79.6907 52.1243 79.6631 52.1735H79.6569C77.09 55.8879 72.8189 58.3221 67.9767 58.3221C60.1223 58.3221 53.754 51.9089 53.754 44C53.754 36.0911 60.1223 29.6779 67.9767 29.6779C72.8772 29.6779 77.1974 32.1705 79.7521 35.968C79.7644 35.9834 79.7767 36.0019 79.7889 36.0204C82.5524 40.1163 88.0916 41.1903 92.1754 38.4176C96.2653 35.6388 97.3431 30.0502 94.5796 25.9296C94.5612 25.8988 94.5397 25.8742 94.5213 25.8435C88.7456 17.2976 79.0121 11.6875 67.9767 11.6875C50.2537 11.6875 35.8867 26.1543 35.8867 44C35.8867 61.8457 50.2537 76.3125 67.9767 76.3125C78.9814 76.3125 88.6934 70.7363 94.4752 62.2366L94.4691 62.2304C94.5028 62.1812 94.5428 62.1289 94.5796 62.0673C97.34 57.9498 96.2623 52.3612 92.1754 49.5824Z" fill="#0066FF"/>
</svg>
