<svg width="132" height="88" viewBox="0 0 132 88" fill="none" xmlns="http://www.w3.org/2000/svg">
<path d="M87.1965 12.6641H44.8019C39.2029 12.6641 34.6641 17.2029 34.6641 22.8019V65.1965C34.6641 70.7955 39.2029 75.3343 44.8019 75.3343H87.1965C92.7955 75.3343 97.3343 70.7955 97.3343 65.1965V22.8019C97.3343 17.2029 92.7955 12.6641 87.1965 12.6641Z" stroke="#0D286A" stroke-width="2.75"/>
<path d="M75.2148 24.6445H56.7824C51.1834 24.6445 46.6445 29.1834 46.6445 34.7824V53.2148C46.6445 58.8138 51.1834 63.3526 56.7824 63.3526H75.2148C80.8138 63.3526 85.3526 58.8138 85.3526 53.2148V34.7824C85.3526 29.1834 80.8138 24.6445 75.2148 24.6445Z" stroke="#0D286A" stroke-width="2.75"/>
<path d="M65.9989 55.0564C72.1069 55.0564 77.0584 50.1049 77.0584 43.997C77.0584 37.889 72.1069 32.9375 65.9989 32.9375C59.8909 32.9375 54.9395 37.889 54.9395 43.997C54.9395 50.1049 59.8909 55.0564 65.9989 55.0564Z" fill="#DA697F"/>
</svg>
