<svg width="132" height="88" viewBox="0 0 132 88" fill="none" xmlns="http://www.w3.org/2000/svg">
<path d="M102 44C102 63.8823 85.8823 80 66 80C46.1177 80 30 63.8823 30 44C30 24.1177 46.1177 8 66 8C85.8823 8 102 24.1177 102 44Z" fill="#75D675"/>
<path fill-rule="evenodd" clip-rule="evenodd" d="M67.3123 28.2275C68.2912 27.2538 69.8741 27.2581 70.8478 28.237L84.7725 42.237C85.7425 43.2122 85.7425 44.7878 84.7725 45.763L70.8478 59.763C69.8741 60.7419 68.2912 60.7462 67.3123 59.7725C66.3333 58.7989 66.3291 57.2159 67.3027 56.237L76.9874 46.5H48C46.6193 46.5 45.5 45.3807 45.5 44C45.5 42.6193 46.6193 41.5 48 41.5H76.9874L67.3027 31.763C66.3291 30.7841 66.3333 29.2011 67.3123 28.2275Z" fill="black"/>
</svg>
