<svg width="132" height="88" viewBox="0 0 132 88" fill="none" xmlns="http://www.w3.org/2000/svg">
<path d="M67.3451 40.216C67.9308 39.971 68.3961 39.501 68.6398 38.909C68.8826 38.3169 68.8834 37.6514 68.6409 37.0593C68.3991 36.4667 67.9338 35.9959 67.3478 35.75C66.7621 35.5045 66.1048 35.5039 65.5191 35.7487C64.949 36.005 64.5016 36.4758 64.2708 37.0607C64.039 37.6459 64.0431 38.2987 64.2818 38.8809C64.5194 39.4631 64.9729 39.9284 65.5449 40.1778C66.1166 40.4272 66.7632 40.4407 67.3451 40.216ZM90.3848 44.3507C88.2118 42.1383 85.945 40.0216 83.5921 38.0061L95.994 17.0272C96.2278 16.634 96.3152 16.1699 96.2407 15.7176C96.167 15.2654 95.9363 14.8544 95.5903 14.558C95.2452 14.2616 94.8055 14.0991 94.352 14.0995C93.8996 14.0999 93.461 14.2631 93.1148 14.5601L74.1189 30.8512C69.7002 27.9425 65.166 25.5297 60.5322 23.63C61.5269 18.8524 64.064 14.8763 64.1006 14.8202C64.3115 14.4957 64.4221 14.1142 64.4149 13.7256C64.4092 13.3371 64.2868 12.9594 64.0649 12.6421C63.8432 12.3252 63.5319 12.0829 63.1719 11.9469C62.8117 11.8109 62.4198 11.7873 62.0461 11.8794C52.4904 14.2537 45.0591 19.9535 39.9599 28.8211C34.2413 38.7687 31.2686 57.766 36.6531 74.8281C36.8072 75.3168 37.1473 75.7229 37.5979 75.9583C38.0484 76.1935 38.5725 76.2388 39.0559 76.0829C39.5392 75.927 39.941 75.5843 40.1738 75.1287C40.4065 74.6722 40.4503 74.1425 40.2961 73.6538C35.3044 57.8345 38.1011 39.7499 43.2658 30.7643C47.0242 24.2292 52.1871 19.6219 58.6526 17.0214C57.0961 20.636 55.5137 26.0032 56.7639 31.1405C56.8225 31.3883 56.93 31.622 57.0782 31.828C57.2264 32.0342 57.4134 32.2086 57.629 32.3411C57.8441 32.4737 58.0836 32.562 58.3322 32.6007C58.5819 32.6395 58.8366 32.6282 59.0813 32.5675C59.3258 32.5064 59.5565 32.3972 59.7595 32.2457C59.9624 32.0945 60.1335 31.9039 60.2638 31.6855C60.3931 31.4669 60.4797 31.2246 60.5163 30.9725C60.5531 30.7203 60.5402 30.4634 60.4786 30.2162C60.2798 29.3761 60.1684 28.517 60.1475 27.6535C69.8173 31.8027 79.0667 38.324 87.6706 47.0759C94.3539 53.8747 95.5782 57.2168 93.3625 62.6255C93.0045 63.4995 91.4538 65.9126 88.6163 66.5621C85.5542 67.265 81.765 65.6612 77.6554 61.9267C75.2197 59.713 71.7896 59.8164 68.1585 59.9324C67.1927 59.9685 66.225 59.9852 65.2584 59.9828L65.2465 59.9817L65.2325 59.9828C60.7492 59.9421 56.3363 59.07 52.8861 53.5123C52.6155 53.0781 52.1871 52.7698 51.6926 52.6554C51.1973 52.5413 50.6781 52.6301 50.2486 52.9029C49.819 53.1754 49.5146 53.6096 49.4013 54.1096C49.2888 54.6093 49.3763 55.1342 49.6458 55.5685C53.5824 61.9094 58.7549 63.4629 63.4423 63.775C63.7923 66.7241 65.1192 72.4403 70.1506 75.8467C70.5722 76.1291 71.0864 76.2309 71.5828 76.1302C72.0781 76.0296 72.5145 75.735 72.795 75.3099C73.0766 74.8856 73.18 74.3655 73.0835 73.8639C72.9861 73.3621 72.6966 72.9199 72.278 72.6333C68.8009 70.2793 67.677 66.2101 67.314 63.8253L68.2748 63.7981C71.2435 63.7065 73.8034 63.6262 75.0976 64.8027C79.3384 68.6565 83.3652 70.5991 87.1077 70.5991C87.9054 70.5991 88.6911 70.5106 89.4608 70.3346C93.7156 69.3583 96.1373 65.9599 96.8952 64.1056C100.09 56.3159 97.072 51.1525 90.3848 44.3507ZM77.3969 33.1106L86.7944 25.052L80.5965 35.5372C79.5463 34.7059 78.4801 33.8971 77.3969 33.1106ZM89.6577 53.2725C89.229 52.9983 88.7098 52.9073 88.2156 53.0195C87.7204 53.1317 87.2897 53.438 87.0183 53.8709C85.2786 56.6454 86.7537 59.7746 86.9267 60.1227C87.0848 60.4404 87.3274 60.7071 87.6269 60.8933C87.9272 61.0795 88.2723 61.1779 88.6235 61.1774C88.9485 61.1776 89.2678 61.0943 89.5524 60.9351C89.8368 60.7761 90.0766 60.5465 90.2484 60.2682C90.4206 59.9899 90.5201 59.6715 90.538 59.3437C90.5548 59.0156 90.4891 58.6886 90.3469 58.3933C90.34 58.3779 89.6566 56.8852 90.2484 55.9408C90.5201 55.5077 90.6106 54.9833 90.4992 54.483C90.3887 53.9825 90.0854 53.5472 89.6577 53.2725Z" fill="#FF53E2"/>
</svg>
