<svg width="132" height="88" viewBox="0 0 132 88" fill="none" xmlns="http://www.w3.org/2000/svg">
<path d="M44.6795 82C41.621 82 38.8233 81.2535 36.2864 79.7605C33.7495 78.2438 31.7342 76.2177 30.2405 73.682C28.7468 71.1462 28 68.3617 28 65.3284C28 62.2476 28.7468 59.4512 30.2405 56.9392C31.7342 54.4035 33.7495 52.3773 36.2864 50.8606C38.8233 49.3439 41.6091 48.5856 44.6439 48.5856H51.6855V39.3433H44.6439C41.6091 39.3433 38.8233 38.5968 36.2864 37.1038C33.7495 35.6109 31.7342 33.6084 30.2405 31.0964C28.7468 28.5606 28 25.7524 28 22.6717C28 19.5909 28.7468 16.7945 30.2405 14.2825C31.7342 11.7705 33.7495 9.76801 36.2864 8.27503C38.8233 6.75834 41.6091 6 44.6439 6C47.7498 6 50.5594 6.75834 53.0725 8.27503C55.6094 9.76801 57.6247 11.7705 59.1184 14.2825C60.6358 16.7945 61.3945 19.5909 61.3945 22.6717V29.6034H70.6766V22.6717C70.6766 19.5909 71.4235 16.7945 72.9172 14.2825C74.4109 11.7705 76.4143 9.76801 78.9275 8.27503C81.4644 6.75834 84.262 6 87.3205 6C90.4027 6 93.2004 6.75834 95.7136 8.27503C98.2505 9.76801 100.266 11.7705 101.759 14.2825C103.253 16.7945 104 19.5909 104 22.6717C104 25.7524 103.253 28.5606 101.759 31.0964C100.266 33.6084 98.2505 35.6109 95.7136 37.1038C93.2004 38.5968 90.4027 39.3433 87.3205 39.3433H80.3856V48.5856H87.3205C90.4027 48.5856 93.2004 49.3439 95.7136 50.8606C98.2505 52.3773 100.266 54.4035 101.759 56.9392C103.253 59.4512 104 62.2476 104 65.3284C104 68.3854 103.253 71.1818 101.759 73.7175C100.266 76.2295 98.2505 78.2438 95.7136 79.7605C93.2004 81.2535 90.4027 82 87.3205 82C84.262 82 81.4644 81.2535 78.9275 79.7605C76.4143 78.2438 74.4109 76.2177 72.9172 73.682C71.4235 71.1462 70.6766 68.3617 70.6766 65.3284V58.3255H61.3945V65.3284C61.3945 68.3617 60.6358 71.1462 59.1184 73.682C57.6247 76.2177 55.6094 78.2438 53.0725 79.7605C50.5594 81.2535 47.7617 82 44.6795 82ZM44.6439 72.2601C45.9479 72.2601 47.1215 71.952 48.1647 71.3358C49.2316 70.7197 50.0852 69.8784 50.7253 68.812C51.3655 67.7456 51.6855 66.5844 51.6855 65.3284V58.3255H44.6795C43.3992 58.3255 42.2256 58.6455 41.1586 59.2853C40.1154 59.9015 39.2737 60.7428 38.6336 61.8092C38.0172 62.8756 37.7089 64.0487 37.7089 65.3284C37.7089 66.5844 38.0172 67.7456 38.6336 68.812C39.2737 69.8784 40.1154 70.7197 41.1586 71.3358C42.2256 71.952 43.3873 72.2601 44.6439 72.2601ZM44.6439 29.6034H51.6855V22.6717C51.6855 21.392 51.3655 20.2307 50.7253 19.188C50.0852 18.1216 49.2316 17.2803 48.1647 16.6642C47.1215 16.048 45.9479 15.7399 44.6439 15.7399C43.3873 15.7399 42.2256 16.048 41.1586 16.6642C40.1154 17.2803 39.2737 18.1216 38.6336 19.188C38.0172 20.2307 37.7089 21.392 37.7089 22.6717C37.7089 23.9514 38.0172 25.1244 38.6336 26.1908C39.2737 27.2336 40.1154 28.063 41.1586 28.6791C42.2256 29.2953 43.3873 29.6034 44.6439 29.6034ZM80.3856 29.6034H87.3205C88.6245 29.6034 89.7982 29.2953 90.8414 28.6791C91.8846 28.063 92.7144 27.2336 93.3308 26.1908C93.971 25.1244 94.2911 23.9514 94.2911 22.6717C94.2911 21.392 93.971 20.2307 93.3308 19.188C92.7144 18.1216 91.8846 17.2803 90.8414 16.6642C89.7982 16.048 88.6245 15.7399 87.3205 15.7399C86.0402 15.7399 84.8666 16.048 83.7997 16.6642C82.7565 17.2803 81.9267 18.1216 81.3102 19.188C80.6938 20.2307 80.3856 21.392 80.3856 22.6717V29.6034ZM87.3561 72.2601C88.6364 72.2601 89.7982 71.952 90.8414 71.3358C91.8846 70.7197 92.7144 69.8784 93.3308 68.812C93.971 67.7456 94.2911 66.5844 94.2911 65.3284C94.2911 64.0487 93.971 62.8756 93.3308 61.8092C92.7144 60.7428 91.8846 59.9015 90.8414 59.2853C89.7982 58.6455 88.6245 58.3255 87.3205 58.3255H80.3856V65.3284C80.3856 66.6081 80.6938 67.7811 81.3102 68.8475C81.9267 69.8902 82.7565 70.7197 83.7997 71.3358C84.8666 71.952 86.0521 72.2601 87.3561 72.2601ZM61.3945 48.5856H70.6766V39.3433H61.3945V48.5856Z" fill="#343D48"/>
</svg>
