<svg width="132" height="88" viewBox="0 0 132 88" fill="none" xmlns="http://www.w3.org/2000/svg">
<path d="M99.5697 13.0092C100.887 11.3024 98.6976 9.1129 96.9908 10.4305L73.0385 30.173C62.8507 37.7542 53.8671 46.8316 46.3924 57.0979L44.6279 59.5211L47.5534 62.4466L50.479 65.3721L52.9022 63.6076C63.1684 56.133 72.2458 47.1495 79.827 36.9618L99.5697 13.0092Z" fill="url(#paint0_linear_2056_23104)"/>
<path d="M52.7764 49.0508C50.5396 51.6456 48.4098 54.3307 46.3921 57.0992L44.6279 59.5224L47.5534 62.448L50.479 65.3735L52.9022 63.609C55.6708 61.5914 58.356 59.4617 60.9508 57.225L52.7764 49.0508Z" fill="url(#paint1_linear_2056_23104)"/>
<path d="M45.2941 68.8146L41.1847 64.7051C40.9156 64.4362 40.5508 64.2852 40.1704 64.2852C39.79 64.2852 39.4251 64.4362 39.1561 64.7051L32.4465 71.4153C32.1775 71.6844 32.0264 72.0492 32.0264 72.4296C32.0264 72.8101 32.1775 73.1749 32.4465 73.4439L34.483 75.4804C34.5505 75.5481 34.6389 75.5912 34.7339 75.6027C34.8289 75.6142 34.925 75.5934 35.0067 75.5438L35.5402 75.2198C35.6701 75.141 35.8185 75.2894 35.74 75.4195L35.559 75.7174C35.4802 75.8473 35.6286 75.9954 35.7585 75.9169L36.8502 75.2543C36.9802 75.1755 37.1285 75.3239 37.05 75.4541L36.4265 76.4814C36.3249 76.6487 36.2825 76.8453 36.3059 77.0397C36.3293 77.234 36.4172 77.4149 36.5556 77.5533C36.8246 77.8224 37.1895 77.9734 37.5699 77.9734C37.9504 77.9734 38.3152 77.8224 38.5842 77.5533L45.2946 70.8431C45.5634 70.574 45.7144 70.2092 45.7143 69.8288C45.7142 69.4484 45.563 69.0836 45.2941 68.8146Z" fill="url(#paint2_linear_2056_23104)"/>
<path d="M40.599 75.4556C40.2337 75.3527 39.901 75.1578 39.6327 74.8895C39.3644 74.6212 39.1695 74.2884 39.0667 73.9232L39.0661 73.9213C38.9633 73.5559 38.7683 73.2232 38.4999 72.9547C38.2315 72.6864 37.8986 72.4915 37.5332 72.3887C37.1677 72.286 36.8348 72.0911 36.5663 71.8226C36.2978 71.5542 36.1027 71.2212 35.9998 70.8558C35.8995 70.4999 35.7116 70.1742 35.4533 69.9095C35.1951 69.6448 34.8747 69.449 34.5213 69.3398L32.4465 71.4147C32.1775 71.6837 32.0264 72.0485 32.0264 72.4289C32.0264 72.8094 32.1775 73.1742 32.4465 73.4432L34.483 75.48C34.5506 75.5476 34.639 75.5905 34.734 75.602C34.8289 75.6134 34.925 75.5927 35.0067 75.5431L35.5402 75.2194C35.6701 75.1405 35.8188 75.2886 35.74 75.4188L35.559 75.7167C35.4802 75.8466 35.6286 75.995 35.7585 75.9163L36.8502 75.2539C36.9802 75.175 37.1285 75.3232 37.05 75.4533L36.4265 76.4807C36.3249 76.648 36.2825 76.8446 36.3059 77.039C36.3293 77.2333 36.4172 77.4142 36.5556 77.5527C36.8246 77.8217 37.1895 77.9727 37.5699 77.9727C37.9504 77.9727 38.3152 77.8217 38.5842 77.5527L40.6634 75.4738L40.599 75.4556Z" fill="url(#paint3_linear_2056_23104)"/>
<path d="M45.2932 68.8137L41.1839 64.7045C40.9439 64.4649 40.6268 64.318 40.2889 64.29C39.9509 64.2621 39.6139 64.3549 39.3379 64.5518V76.7977L45.2932 70.8423C45.5623 70.5733 45.7134 70.2085 45.7134 69.828C45.7134 69.4476 45.5623 69.0827 45.2932 68.8137Z" fill="url(#paint4_linear_2056_23104)"/>
<path d="M46.5685 69.8636L40.1367 63.4319L46.5685 57L53.0004 63.4319L46.5685 69.8636Z" fill="url(#paint5_linear_2056_23104)"/>
<path d="M45.6738 57.895V61.16L50.4734 65.9591L53.001 63.4319L46.5689 57L45.6738 57.895Z" fill="url(#paint6_linear_2056_23104)"/>
<path d="M42.459 61.1098V64.3747L47.2582 69.174L49.7858 66.6466L43.354 60.2148L42.459 61.1098Z" fill="url(#paint7_linear_2056_23104)"/>
<path d="M51.7821 64.054L45.9438 58.2156C45.8173 58.0892 45.7171 57.9391 45.6485 57.7739C45.5801 57.6086 45.5449 57.4314 45.5449 57.2526C45.5449 57.0737 45.5801 56.8966 45.6485 56.7314C45.7171 56.5661 45.8173 56.416 45.9438 56.2895C46.0703 56.163 46.2204 56.0628 46.3857 55.9942C46.5509 55.9258 46.728 55.8906 46.9069 55.8906C47.0857 55.8906 47.2628 55.9258 47.4281 55.9942C47.5934 56.0628 47.7435 56.163 47.8699 56.2895L53.7082 62.1278C53.8347 62.2543 53.935 62.4044 54.0035 62.5696C54.0719 62.7348 54.1071 62.912 54.1071 63.0908C54.1071 63.2697 54.0719 63.4468 54.0035 63.6121C53.935 63.7773 53.8347 63.9274 53.7082 64.054C53.5817 64.1804 53.4316 64.2808 53.2664 64.3492C53.1011 64.4177 52.924 64.4529 52.7451 64.4529C52.5663 64.4529 52.3891 64.4177 52.2239 64.3492C52.0586 64.2808 51.9085 64.1804 51.7821 64.054Z" fill="url(#paint8_linear_2056_23104)"/>
<path d="M48.5468 67.2897L42.7089 61.4515C42.4632 61.194 42.328 60.8508 42.3321 60.495C42.3363 60.1392 42.4794 59.7992 42.731 59.5476C42.9826 59.2959 43.3227 59.1527 43.6784 59.1485C44.0342 59.1443 44.3775 59.2794 44.6349 59.5251L50.473 65.3633C50.7233 65.6198 50.8623 65.9646 50.8602 66.323C50.8579 66.6813 50.7146 67.0243 50.4613 67.2778C50.2079 67.5312 49.8649 67.6746 49.5065 67.6768C49.1482 67.679 48.8033 67.54 48.5468 67.2897Z" fill="url(#paint9_linear_2056_23104)"/>
<path d="M45.3091 70.5305L39.4712 64.6922C39.3447 64.5658 39.2444 64.4156 39.1759 64.2504C39.1075 64.0851 39.0723 63.908 39.0723 63.7291C39.0723 63.5503 39.1075 63.3732 39.1759 63.208C39.2444 63.0427 39.3447 62.8925 39.4712 62.7661C39.5977 62.6396 39.7478 62.5393 39.913 62.4708C40.0783 62.4024 40.2554 62.3672 40.4343 62.3672C40.6131 62.3672 40.7902 62.4024 40.9555 62.4708C41.1207 62.5393 41.2709 62.6396 41.3973 62.7661L47.2353 68.6043C47.3617 68.7308 47.4621 68.8809 47.5306 69.0462C47.599 69.2114 47.6342 69.3885 47.6342 69.5674C47.6342 69.7462 47.599 69.9233 47.5306 70.0886C47.4621 70.2539 47.3617 70.404 47.2353 70.5305C47.1089 70.6569 46.9587 70.7573 46.7934 70.8257C46.6282 70.8941 46.4511 70.9294 46.2723 70.9294C46.0934 70.9294 45.9163 70.8941 45.751 70.8257C45.5858 70.7573 45.4356 70.6569 45.3091 70.5305Z" fill="url(#paint10_linear_2056_23104)"/>
<defs>
<linearGradient id="paint0_linear_2056_23104" x1="73.409" y1="36.4432" x2="76.9781" y2="40.0123" gradientUnits="userSpaceOnUse">
<stop stop-color="#FCC344"/>
<stop offset="1" stop-color="#D48000"/>
</linearGradient>
<linearGradient id="paint1_linear_2056_23104" x1="55.1422" y1="54.8594" x2="50.1982" y2="59.8032" gradientUnits="userSpaceOnUse">
<stop stop-color="#FCC344" stop-opacity="0"/>
<stop offset="1" stop-color="#D48000"/>
</linearGradient>
<linearGradient id="paint2_linear_2056_23104" x1="38.8702" y1="79.3376" x2="38.8702" y2="62.0982" gradientUnits="userSpaceOnUse">
<stop stop-color="#4D4D4D"/>
<stop offset="1" stop-color="#333333"/>
</linearGradient>
<linearGradient id="paint3_linear_2056_23104" x1="37.8784" y1="72.1205" x2="33.0064" y2="76.9925" gradientUnits="userSpaceOnUse">
<stop stop-color="#FE7695"/>
<stop offset="1" stop-color="#FE547B"/>
</linearGradient>
<linearGradient id="paint4_linear_2056_23104" x1="42.5254" y1="76.0247" x2="42.5254" y2="59.7967" gradientUnits="userSpaceOnUse">
<stop stop-color="#4D4D4D" stop-opacity="0"/>
<stop offset="1"/>
</linearGradient>
<linearGradient id="paint5_linear_2056_23104" x1="44.5117" y1="61.376" x2="51.7085" y2="68.5716" gradientUnits="userSpaceOnUse">
<stop stop-color="#E6E6E6"/>
<stop offset="1" stop-color="#999999"/>
</linearGradient>
<linearGradient id="paint6_linear_2056_23104" x1="49.337" y1="66.6169" x2="49.337" y2="54.1457" gradientUnits="userSpaceOnUse">
<stop stop-color="#E6E6E6" stop-opacity="0"/>
<stop offset="0.143" stop-color="#DCDCDC" stop-opacity="0.143"/>
<stop offset="0.384" stop-color="#C2C2C2" stop-opacity="0.384"/>
<stop offset="0.692" stop-color="#979797" stop-opacity="0.692"/>
<stop offset="1" stop-color="#666666"/>
</linearGradient>
<linearGradient id="paint7_linear_2056_23104" x1="46.1221" y1="69.832" x2="46.1221" y2="57.3608" gradientUnits="userSpaceOnUse">
<stop stop-color="#E6E6E6" stop-opacity="0"/>
<stop offset="0.143" stop-color="#DCDCDC" stop-opacity="0.143"/>
<stop offset="0.384" stop-color="#C2C2C2" stop-opacity="0.384"/>
<stop offset="0.692" stop-color="#979797" stop-opacity="0.692"/>
<stop offset="1" stop-color="#666666"/>
</linearGradient>
<linearGradient id="paint8_linear_2056_23104" x1="50.1511" y1="59.8464" x2="48.2113" y2="61.7875" gradientUnits="userSpaceOnUse">
<stop stop-color="#E6E6E6"/>
<stop offset="1" stop-color="#999999"/>
</linearGradient>
<linearGradient id="paint9_linear_2056_23104" x1="46.9161" y1="63.0821" x2="44.9764" y2="65.0219" gradientUnits="userSpaceOnUse">
<stop stop-color="#E6E6E6"/>
<stop offset="1" stop-color="#999999"/>
</linearGradient>
<linearGradient id="paint10_linear_2056_23104" x1="43.6782" y1="66.3232" x2="41.7387" y2="68.2629" gradientUnits="userSpaceOnUse">
<stop stop-color="#E6E6E6"/>
<stop offset="1" stop-color="#999999"/>
</linearGradient>
</defs>
</svg>
