<svg width="132" height="88" viewBox="0 0 132 88" fill="none" xmlns="http://www.w3.org/2000/svg">
<path fill-rule="evenodd" clip-rule="evenodd" d="M32.2441 44.0006V44.2513C32.2441 62.5373 46.3979 77.8189 65.8114 77.8189C85.3511 77.8189 99.7556 62.2876 99.7556 44.0006V43.7512C99.7556 25.4633 85.4765 10.1836 66.0621 10.1836C46.5233 10.1836 32.2441 25.714 32.2441 44.0006ZM89.8604 44.0006V44.2513C89.8604 57.9026 80.0906 69.1764 66.0621 69.1764C52.4107 69.1764 42.1394 57.9036 42.1394 44.0006V43.7512C42.1394 30.098 51.7838 18.7008 65.8114 18.7008C79.4637 18.7008 89.8604 30.098 89.8604 44.0006ZM58.2265 54.3913V36.0892C58.2265 34.5122 59.9631 33.5519 61.299 34.3903L75.8799 43.5412C77.1326 44.3276 77.1326 46.1529 75.8799 46.9393L61.299 56.0902C59.9631 56.9286 58.2265 55.9683 58.2265 54.3913Z" fill="#22252B"/>
</svg>
