<svg width="132" height="88" viewBox="0 0 132 88" fill="none" xmlns="http://www.w3.org/2000/svg">
<path fill-rule="evenodd" clip-rule="evenodd" d="M66.2782 56.5469H65.7216C63.7895 66.1392 58.8719 70.9349 50.9665 70.9349C45.4044 70.9349 41.1882 68.5372 38.3196 63.7412C35.4499 59.0035 34.0156 52.4235 34.0156 44.0008C34.0156 35.5198 35.4499 28.9105 38.3196 24.1731C41.1882 19.4353 45.4044 17.0665 50.9665 17.0665C54.8897 17.0665 58.0813 18.324 60.5401 20.839C63.058 23.3541 64.785 26.8634 65.7216 31.3671H66.2782C67.216 26.8634 68.943 23.3541 71.4609 20.8389C73.9197 18.3239 77.1113 17.0664 81.0334 17.0664C86.5966 17.0664 90.8126 19.4352 93.6814 24.1728C96.55 28.9105 97.9852 35.5198 97.9852 44.0008C97.9852 52.4233 96.55 59.0032 93.6814 63.7409C90.8126 68.5372 86.5966 70.9349 81.0334 70.9349C73.129 70.9349 68.2104 66.1392 66.2782 56.5469ZM86.7426 30.5775C88.265 33.2096 89.0265 37.6838 89.0265 44.0008C89.0265 50.3176 88.265 54.7921 86.7426 57.4241C85.2202 60.0562 82.7315 61.372 79.2772 61.372C75.9987 61.372 73.5979 60.0267 72.0755 57.3364C70.5534 54.7044 69.7916 50.2593 69.7916 44.0008C69.7916 37.7424 70.5534 33.2681 72.0755 30.5775C73.5979 27.9455 75.9987 26.6294 79.2772 26.6294C82.7315 26.6294 85.2202 27.9455 86.7426 30.5775ZM45.2572 30.5775C43.735 33.2096 42.9744 37.6841 42.9744 44.0008C42.9744 50.3179 43.735 54.7921 45.2572 57.4244C46.7805 60.0562 49.2684 61.3723 52.7227 61.3723C56.0023 61.3723 58.4031 60.027 59.9255 57.3364C61.4476 54.7044 62.2093 50.2593 62.2093 44.0008C62.2093 37.7424 61.4476 33.2681 59.9255 30.5775C58.4031 27.9455 56.0023 26.6296 52.7227 26.6296C49.2684 26.6296 46.7805 27.9455 45.2572 30.5775Z" fill="#0EF275"/>
</svg>
