<svg width="132" height="88" viewBox="0 0 132 88" fill="none" xmlns="http://www.w3.org/2000/svg">
<path fill-rule="evenodd" clip-rule="evenodd" d="M98.1752 43.9992C98.1752 61.7689 83.7699 76.1742 66.0002 76.1742C48.2305 76.1742 33.8252 61.7689 33.8252 43.9992C33.8252 26.2295 48.2305 11.8242 66.0002 11.8242C83.7699 11.8242 98.1752 26.2295 98.1752 43.9992ZM66.1501 48.5722C72.0802 40.1861 72.3417 35.1032 66.1501 26.1242C59.8396 35.2949 60.6531 40.1558 66.1501 48.5722ZM63.3338 59.4963C64.2768 49.2685 61.9624 44.7359 52.1108 40.0557C51.2308 51.1531 54.366 54.956 63.3338 59.4963ZM69.0046 59.4963C68.0613 49.2685 70.3771 44.7359 80.2287 40.0557C81.1073 51.1531 77.9734 54.956 69.0046 59.4963Z" fill="black"/>
</svg>
