<svg width="132" height="88" viewBox="0 0 132 88" fill="none" xmlns="http://www.w3.org/2000/svg">
<path d="M65.9493 7.69922C55.9903 7.69922 47.2266 11.3797 40.4543 18.2412C33.4834 25.3031 29.6992 34.4521 29.6992 43.9998C29.6992 53.646 33.3836 62.5968 40.3556 69.5591C47.3264 76.5202 56.3895 80.2992 65.9493 80.2992C75.5091 80.2992 84.7718 76.5202 91.9422 69.4594C98.7146 62.7961 102.299 53.9449 102.299 43.9998C102.299 34.1543 98.7146 25.2034 91.8424 18.3408C84.8716 11.3797 75.9083 7.69922 65.9493 7.69922ZM66.0491 14.264C74.2152 14.264 81.4854 17.3465 87.1623 23.0156C92.7383 28.5849 95.7264 35.9447 95.7264 43.9998C95.7264 52.1545 92.8381 59.315 87.261 64.7859C81.3845 70.5534 73.816 73.637 66.048 73.637C58.1801 73.637 50.8101 70.5545 45.1344 64.8855C39.4574 59.2153 36.2709 51.757 36.2709 43.9998C36.2709 36.1429 39.4574 28.6846 45.1344 22.9159C50.7115 17.248 57.883 14.264 66.0491 14.264ZM65.58 37.9676C63.5267 34.2288 60.0235 32.7408 55.9571 32.7408C50.0381 32.7408 45.3271 36.9218 45.3271 43.9998C45.3271 51.1969 49.756 55.2588 56.159 55.2588C60.2667 55.2588 63.7687 53.0068 65.7015 49.5898L61.1912 47.2977C60.1841 49.7101 58.655 50.434 56.7222 50.434C53.3796 50.434 51.8505 47.6596 51.8505 44.0009C51.8505 40.3422 53.1387 37.5667 56.7222 37.5667C57.688 37.5667 59.6209 38.0902 60.7484 40.5015L65.58 37.9676ZM76.928 32.7408C80.9945 32.7408 84.4965 34.2288 86.5509 37.9676L81.7194 40.5015C80.5907 38.0902 78.6578 37.5667 77.692 37.5667C74.1085 37.5667 72.8192 40.3422 72.8192 44.0009C72.8192 47.6596 74.3506 50.434 77.692 50.434C79.6248 50.434 81.155 49.7101 82.161 47.2977L86.6714 49.5898C84.7385 53.0068 81.2365 55.2588 77.1288 55.2588C70.7269 55.2588 66.2969 51.1969 66.2969 43.9998C66.2969 36.9218 71.0091 32.7408 76.928 32.7408Z" fill="black"/>
</svg>
