<svg width="132" height="88" viewBox="0 0 132 88" fill="none" xmlns="http://www.w3.org/2000/svg">
<path d="M65.9478 6C55.5224 6 46.3483 9.85282 39.2587 17.0356C31.9614 24.4283 28 34.0058 28 44.0006C28 54.0985 31.857 63.4686 39.1555 70.7569C46.4527 78.0441 55.9403 82 65.9478 82C75.9553 82 85.6517 78.044 93.158 70.6526C100.247 63.6772 104 54.4115 104 44.0006C104 33.694 100.247 24.324 93.0535 17.14C85.7562 9.85282 76.3731 6 65.9478 6ZM66.0522 12.8722C74.6007 12.8722 82.2114 16.0991 88.1542 22.0336C93.9913 27.8638 97.1194 35.5683 97.1194 44.0006C97.1194 52.5372 94.0958 60.033 88.2575 65.7601C82.1058 71.7978 74.1829 75.0258 66.051 75.0258C57.8147 75.0258 50.0996 71.799 44.158 65.8644C38.2152 59.9287 34.8794 52.1211 34.8794 44.0006C34.8794 35.7757 38.2152 27.9682 44.158 21.9293C49.9963 15.996 57.5037 12.8722 66.0522 12.8722ZM65.5611 37.686C63.4117 33.772 59.7444 32.2143 55.4876 32.2143C49.2914 32.2143 44.3597 36.5911 44.3597 44.0006C44.3597 51.5348 48.996 55.7869 55.6989 55.7869C59.999 55.7869 63.665 53.4294 65.6884 49.8524L60.9668 47.4529C59.9125 49.9783 58.3119 50.7361 56.2885 50.7361C52.7894 50.7361 51.1887 47.8318 51.1887 44.0018C51.1887 40.1718 52.5372 37.2663 56.2885 37.2663C57.2996 37.2663 59.3229 37.8143 60.5033 40.3384L65.5611 37.686ZM77.4406 32.2143C81.6975 32.2143 85.3635 33.772 87.5142 37.686L82.4564 40.3384C81.2748 37.8143 79.2515 37.2663 78.2404 37.2663C74.4891 37.2663 73.1394 40.1718 73.1394 44.0018C73.1394 47.8318 74.7424 50.7361 78.2404 50.7361C80.2637 50.7361 81.8656 49.9783 82.9187 47.4529L87.6403 49.8524C85.6169 53.4294 81.9509 55.7869 77.6508 55.7869C70.9491 55.7869 66.3116 51.5348 66.3116 44.0006C66.3116 36.5911 71.2445 32.2143 77.4406 32.2143Z" fill="black"/>
</svg>
