<svg width="132" height="88" viewBox="0 0 132 88" fill="none" xmlns="http://www.w3.org/2000/svg">
<path fill-rule="evenodd" clip-rule="evenodd" d="M66.6021 7.494C65.5511 7.85625 63.8738 8.84455 62.875 9.69018C61.8764 10.5362 53.9014 18.385 45.1526 27.1322C34.6316 37.652 29.1601 43.3823 28.9924 44.0582C28.853 44.6199 28.8351 45.4559 28.9529 45.9159C29.0707 46.3755 36.9342 54.4847 46.427 63.9356C64.9219 82.3489 64.3345 81.8677 66.762 80.5893C67.3155 80.2976 75.349 72.4815 84.6144 63.2197C98.0475 49.7922 101.635 46.0039 102.318 44.5226C103.073 42.8893 103.169 42.1484 103.111 38.3922C103.028 32.9613 101.96 16.6079 101.498 13.7162C101.128 11.3948 99.9264 9.6664 98.2242 9.00692C97.1038 8.57296 91.1683 8.05131 79.5682 7.36767C68.1511 6.69481 68.9439 6.68701 66.6021 7.494ZM86.835 18.3783C86.4571 18.5971 85.91 19.3443 85.6189 20.0387C84.4377 22.8569 87.2715 25.6743 90.1015 24.4958C93.5447 23.0616 92.6308 17.9391 88.9368 17.9685C88.1589 17.9748 87.213 18.1591 86.835 18.3783ZM65.4791 30.4973C65.2447 30.6503 64.1332 32.7217 63.0084 35.0999L60.9637 39.4243L57.2846 41.1776C55.2607 42.1421 53.2279 43.0762 52.7665 43.253C52.1955 43.4726 51.9279 43.8828 51.9279 44.5393C51.9279 45.4024 52.3699 45.7126 56.1571 47.5072C58.4832 48.6092 60.6077 49.7769 60.8783 50.102C61.1489 50.4268 62.2615 52.5349 63.3509 54.7868C65.9935 60.2488 66.2425 60.2254 69.1903 54.2417L71.358 49.8427L75.7128 47.7658C78.1083 46.6237 80.1936 45.5102 80.3472 45.2917C81.0065 44.3528 80.188 43.6536 75.9681 41.5503L71.4955 39.321L69.2592 34.8625C67.1385 30.6347 66.4631 29.8545 65.4791 30.4973Z" fill="#38B4AC"/>
</svg>
