<svg width="132" height="88" viewBox="0 0 132 88" fill="none" xmlns="http://www.w3.org/2000/svg">
<path fill-rule="evenodd" clip-rule="evenodd" d="M71.0302 40.0631H63.3668L62.938 40.0669C62.745 40.0691 62.5681 40.071 62.4232 40.0669C62.1672 40.0713 61.9125 40.0284 61.6716 39.9404C61.1728 39.7353 60.878 39.2689 60.5062 38.5935C59.4356 36.6168 57.7425 35.049 55.6893 34.1346C53.6562 33.2329 51.3795 33.0445 49.2254 33.6C47.0595 34.1646 45.1425 35.4351 43.778 37.2105C42.3937 39.0071 41.6281 41.2029 41.5931 43.4706V44.152C41.5561 45.4786 41.782 46.7975 42.2538 48.032C42.7225 49.2615 43.4312 50.3857 44.3387 51.3389C45.2434 52.2876 46.3247 53.0395 47.5193 53.5502C48.7098 54.0595 49.9921 54.3182 51.2866 54.31H51.2984C52.9126 54.3444 54.5978 54.1714 56.1651 53.4597C57.7254 52.7521 59.2008 51.4956 60.3811 49.3086V49.3064C60.7589 48.6147 61.081 48.1184 61.5795 47.839C62.0674 47.5695 62.657 47.5494 63.4168 47.5494H71.0621V47.7906C69.381 56.5917 62.0495 63.1958 51.7142 63.1958C40.8364 63.1958 32.0156 54.6056 32.0156 44.0052C32.0156 33.4127 40.1957 24.8047 51.7164 24.8047C61.8565 24.8047 68.8283 30.8418 70.8102 39.0497C70.8693 39.213 70.9202 39.3789 70.9653 39.5463H70.9612C70.9851 39.6489 71.0101 39.7515 71.0302 39.8538V40.0631ZM68.4284 35.2704C65.5357 29.6133 59.6795 25.7617 51.7142 25.7617C40.6845 25.7617 32.9462 33.9658 32.9462 44.0052C32.9462 54.0328 41.3052 62.2388 51.7142 62.2388C59.6795 62.2388 65.7207 58.1699 68.6113 52.2475C68.0385 52.9369 67.4417 53.5782 66.9151 54.1411L66.7262 54.3463C66.2754 54.8248 65.8286 55.2367 65.3789 55.6448L65.2038 55.8057C64.81 56.1616 64.4142 56.5193 64.0014 56.9296C60.785 60.124 56.4029 61.6236 51.6003 61.6074C42.1618 61.6074 34.2836 54.4326 33.7608 45.0144V43.8946C33.7608 34.0241 41.3532 26.3345 51.6322 26.3166C56.64 26.3166 61.0169 27.8583 64.2413 31.0708L64.2435 31.075C64.6711 31.5092 65.0649 31.865 65.4587 32.2228L65.4799 32.2429C65.8794 32.6029 66.2815 32.9667 66.7031 33.4048L66.7561 33.4611C67.269 33.9938 67.8556 34.6071 68.4284 35.2704ZM67.8757 51.2646C68.1124 51.0936 68.3583 50.9168 68.5992 50.7377C68.5722 50.7749 68.5464 50.8117 68.5194 50.8483C67.8017 51.8072 66.9712 52.6979 66.2394 53.4858L66.0546 53.6849H66.0524C65.6317 54.1332 65.2079 54.525 64.761 54.9312L64.5891 55.088C64.1945 55.4438 63.7845 55.8178 63.3547 56.2421C60.3492 59.2295 56.2181 60.6688 51.6023 60.6526C42.6196 60.6526 35.1901 53.8397 34.6913 44.9721V43.8946C34.6913 34.5829 41.836 27.2896 51.6344 27.2714C56.4511 27.2714 60.5741 28.7529 63.5898 31.7545C64.0356 32.2088 64.4483 32.5787 64.838 32.9345L64.8641 32.9565C65.264 33.3184 65.6438 33.6641 66.0406 34.0763L66.0805 34.1165C66.8521 34.9206 67.7527 35.8594 68.5194 36.8747L68.6792 37.0939C68.3883 36.8755 68.0935 36.6624 67.7945 36.4545C67.5209 36.2604 67.25 36.0626 66.9811 35.8616C66.4982 35.4997 66.1264 35.184 65.9097 34.9046L65.8456 34.8221L65.7527 34.7759C64.854 34.3125 64.0694 33.6569 63.4528 32.8561L63.4468 32.8482L63.4407 32.8399C60.3951 29.2275 56.0553 27.8203 51.4854 27.8203C42.4267 27.8624 35.463 34.6612 35.463 43.7863V44.7994C35.8508 53.5845 43.0724 59.9852 51.4854 60.0294C55.9882 60.0536 60.2304 58.7328 63.2997 55.1443L63.3057 55.1383L63.3118 55.1303C64.0136 54.2401 64.8782 53.493 65.8616 52.9289L65.9416 52.8847L65.9974 52.8123C66.2174 52.5329 66.5892 52.2153 67.071 51.8515C67.3089 51.6705 67.5619 51.4896 67.8275 51.2987L67.8757 51.2646ZM34.6913 44.9721V44.9864V44.96V44.9721ZM67.9296 50.0544L67.5217 50.2191C67.0589 50.402 66.6211 50.5791 66.2375 50.7498C65.9716 50.8706 65.7466 50.9811 65.5717 51.0856C65.4557 51.1472 65.3498 51.2264 65.2579 51.3207L65.1658 51.4354L65.025 51.4756C64.0314 51.7651 63.1798 52.4224 62.6331 53.3192L62.6201 53.3392L62.608 53.3533C59.6895 57.3397 55.5485 58.4834 51.4414 58.4394C44.0109 58.3709 37.494 52.7419 37.2321 44.5401V43.6856C37.2321 35.2965 43.5931 29.3922 51.4573 29.324C55.6483 29.2798 59.9084 30.6086 62.7909 34.6071L62.8041 34.623L62.814 34.6431C63.0508 35.0372 63.3648 35.3809 63.7347 35.6485C64.1043 35.9139 64.5242 36.1006 64.9689 36.1952L65.1339 36.2312L65.2379 36.366C65.2678 36.4064 65.3547 36.4826 65.5398 36.5912C65.7106 36.6938 65.9336 36.8043 66.1995 36.9228C66.5854 37.0939 67.0289 37.2685 67.4959 37.4517L67.6507 37.5119L67.2888 37.2526H67.285C66.9871 37.0394 66.6893 36.8285 66.4302 36.6335C65.9985 36.3272 65.6028 35.9746 65.2478 35.5819C64.2682 35.0603 63.4107 34.3359 62.7332 33.457L62.7389 33.4653L62.7252 33.449L62.731 33.457C59.9163 30.1202 55.8744 28.7751 51.4895 28.7751C42.9094 28.8153 36.3965 35.2222 36.3965 43.7863V44.7653V44.7551V44.7752V44.7653C36.7664 52.9914 43.5292 59.0323 51.4914 59.0724C55.8114 59.0986 59.7535 57.8341 62.5962 54.5231L62.5902 54.5292L62.6023 54.5151L62.5962 54.5231C63.3568 53.5603 64.2852 52.754 65.3349 52.1389C65.6358 51.7792 66.0684 51.4233 66.5202 51.0815C66.7682 50.8945 67.0311 50.7056 67.2949 50.5166L67.3408 50.4825C67.5377 50.3417 67.7368 50.199 67.9315 50.0544H67.9296ZM67.0941 49.3286L67.25 49.3025L67.2019 49.3226C66.7341 49.5093 66.2675 49.6944 65.8657 49.8753C65.6047 49.9892 65.3517 50.1173 65.105 50.2592C64.9431 50.3558 64.78 50.4685 64.6472 50.5969C63.4828 50.972 62.4911 51.7525 61.8526 52.7964C59.1727 56.441 55.3755 57.5267 51.4494 57.4862C44.4696 57.4222 38.4106 52.151 38.1607 44.5178V43.6856C38.1607 35.8655 44.0678 30.3432 51.4653 30.2769C55.4556 30.2365 59.3795 31.493 62.0314 35.1598C62.3333 35.6584 62.731 36.0907 63.1979 36.4284C63.6316 36.7419 64.1183 36.9671 64.6331 37.0958C64.7662 37.2193 64.9131 37.3271 65.0709 37.4176C65.2898 37.5482 65.5497 37.6747 65.8286 37.7993C66.1605 37.9461 66.5383 38.0968 66.925 38.2497C66.4003 38.165 65.8775 38.0723 65.3569 37.9722C65.1168 37.9263 64.8782 37.8699 64.643 37.8034C64.5842 37.7866 64.5261 37.7665 64.4703 37.7432L64.3933 37.6425L64.2063 37.6186C63.4828 37.5179 63.1759 37.4676 62.9279 37.329C62.701 37.1984 62.4862 36.9671 62.0773 36.3338C59.3196 31.9654 55.1627 30.7411 51.3644 30.8016C44.7165 30.8819 38.9673 35.8976 38.9673 43.5429V44.3187C38.9803 45.9728 39.3112 47.6088 39.9419 49.1375C40.5696 50.6558 41.4861 52.0374 42.6426 53.2045C43.7871 54.3611 45.1513 55.278 46.6547 55.9022C48.145 56.5213 49.7452 56.8337 51.3583 56.821C55.1077 56.9054 59.1348 55.9504 61.8985 51.5619L61.9175 51.5339L61.9293 51.5058C62.1304 51.0675 62.4463 50.6935 62.8401 50.4262C63.2359 50.1608 63.6946 50.0142 64.1665 49.9999L64.3873 49.9939L64.4822 49.8674C64.5382 49.844 64.5952 49.8239 64.6532 49.8069C64.8262 49.7546 65.069 49.6966 65.3668 49.6361C65.8577 49.5376 66.4644 49.4351 67.096 49.3286H67.0941ZM62.0314 35.1598L62.0195 35.1397L62.0435 35.176L62.0314 35.1598ZM61.8526 52.7964L61.8644 52.7802L61.8424 52.8145L61.8526 52.7942V52.7964ZM66.2454 48.5042C65.8635 48.5707 65.5019 48.637 65.1878 48.6994C64.9191 48.7511 64.6532 48.8149 64.3892 48.8903C64.2514 48.9313 64.1175 48.9852 63.9894 49.0512C63.3987 49.0954 62.8261 49.2923 62.3292 49.6281C61.7965 49.9881 61.3716 50.4864 61.1008 51.0694C58.5779 55.0558 54.9366 55.9465 51.3724 55.8662H51.3583C49.8643 55.8791 48.3828 55.5907 47.0026 55.0178C45.6141 54.4409 44.3538 53.5936 43.2953 52.525C42.2268 51.4461 41.3802 50.169 40.8004 48.7657C40.2167 47.353 39.9109 45.8414 39.8979 44.3129V43.5429C39.8979 36.4707 45.1854 31.8287 51.3765 31.7564C54.9658 31.7 58.7668 32.844 61.2976 36.8566L61.2999 36.8607C61.7096 37.4937 62.0313 37.912 62.4802 38.1653C62.886 38.3946 63.3607 38.4628 63.9616 38.5473C64.0004 38.5712 64.0405 38.5929 64.0823 38.6116C64.1725 38.6518 64.2753 38.6881 64.3831 38.7202C64.5993 38.7843 64.874 38.8467 65.1798 38.9092C65.5076 38.9735 65.8835 39.0417 66.2774 39.1102H63.3668L62.8979 39.1121C62.7472 39.1151 62.5962 39.1151 62.4463 39.1121C62.3003 39.1173 62.1554 39.097 62.0173 39.0519C61.8686 38.9914 61.7135 38.8448 61.3158 38.1271C60.1482 35.9683 58.3002 34.2559 56.0592 33.2563C53.8383 32.2712 51.3504 32.0658 48.9986 32.673C46.6327 33.2893 44.5386 34.6755 43.0484 36.6135C41.5341 38.5778 40.6965 40.9788 40.6595 43.4585V44.132C40.6215 45.5834 40.8694 47.0266 41.3832 48.3815C41.8999 49.7301 42.6786 50.9621 43.6751 52.0063C44.6615 53.0417 45.849 53.8659 47.1635 54.4288C48.4697 54.9876 49.8731 55.273 51.2885 55.2651C52.9707 55.2972 54.8068 55.1204 56.5451 54.3301C58.296 53.5361 59.9224 52.1328 61.1978 49.7689C61.5795 49.0652 61.7905 48.8078 62.0253 48.6772C62.2712 48.5424 62.6122 48.5023 63.4187 48.5023H66.2474L66.2454 48.5042Z" fill="#06263D"/>
<path fill-rule="evenodd" clip-rule="evenodd" d="M60.9701 40.0631H68.6333L69.0593 40.0669C69.254 40.0691 69.4291 40.071 69.576 40.0669C69.8317 40.0713 70.0867 40.0284 70.3276 39.9404C70.8264 39.7353 71.1223 39.2689 71.4941 38.5935C72.5636 36.617 74.2557 35.0495 76.3088 34.1346C78.3419 33.2323 80.6197 33.044 82.7738 33.6C84.9405 34.1646 86.8567 35.4351 88.221 37.2105C89.6045 39.0073 90.3701 41.2029 90.405 43.4706V44.152C90.4411 45.4759 90.2172 46.7942 89.7453 48.032C89.2767 49.2618 88.5669 50.386 87.6583 51.3389C86.7599 52.2835 85.6783 53.0359 84.4799 53.5502C83.2905 54.0595 82.0079 54.3182 80.7127 54.31H80.7006C79.0844 54.3444 77.4003 54.1714 75.832 53.4597C74.2738 52.7521 72.8004 51.4956 71.6179 49.3086V49.3064C71.24 48.6147 70.9183 48.1184 70.4205 47.839C69.9318 47.5695 69.3411 47.5494 68.5824 47.5494H60.938V47.7906C62.6182 56.5917 69.9497 63.1958 80.2828 63.1958C91.1627 63.1958 99.9836 54.6056 99.9836 44.0052C99.9836 33.4127 91.8015 24.8047 80.2828 24.8047C70.1405 24.8047 63.1709 30.8418 61.1868 39.0497C61.1288 39.213 61.0779 39.3789 61.0339 39.5463H61.038C61.0119 39.6489 60.9899 39.7515 60.9701 39.8538V40.0631ZM63.5708 35.2704C64.1425 34.6071 64.7313 33.9938 65.242 33.4611L65.2959 33.4048C65.7177 32.9667 66.1206 32.6029 66.5183 32.241L66.5383 32.2228C66.9341 31.865 67.3279 31.5092 67.7569 31.075L67.7588 31.0708C70.9832 27.8583 75.3573 26.3166 80.3648 26.3166C90.6459 26.3345 98.2392 34.0241 98.2392 43.8946V45.0144C97.7167 54.4326 89.8352 61.6074 80.3997 61.6074C75.5952 61.6236 71.2122 60.124 67.9956 56.9296C67.604 56.5452 67.2041 56.1698 66.7952 55.8038L66.6203 55.6448C66.1544 55.231 65.7048 54.7984 65.2739 54.3482V54.3463L65.083 54.1411C64.5583 53.5782 63.9585 52.935 63.3857 52.2456C66.2785 58.1699 72.3196 62.2407 80.2828 62.2407C90.6938 62.2407 99.051 54.0328 99.051 44.0052C99.051 33.9658 91.3136 25.7598 80.2828 25.7598C72.3196 25.7598 66.4644 29.6133 63.5708 35.2684V35.2704ZM63.4828 50.8502C63.4539 50.8128 63.4259 50.7754 63.3978 50.7377C63.6398 50.9168 63.8846 51.0936 64.1216 51.2646L64.1725 51.2987C64.4354 51.4877 64.6912 51.6727 64.9282 51.8515C65.4108 52.2134 65.7826 52.5329 66.0015 52.8123L66.0576 52.8847L66.1385 52.9289C67.115 53.4899 67.9818 54.2357 68.6875 55.1303L68.6932 55.1383L68.6993 55.1463C71.7708 58.7328 76.0129 60.0536 80.5158 60.0294C88.9266 59.9852 96.1462 53.5845 96.5361 44.7994V43.7863C96.5361 34.6593 89.5723 27.8643 80.5138 27.8203C75.945 27.8203 71.6038 29.2275 68.5585 32.8399L68.5505 32.8482L68.5445 32.8561C67.9257 33.6602 67.137 34.3156 66.2446 34.7759L66.1544 34.8221L66.0895 34.9027C65.8726 35.184 65.5008 35.4997 65.0181 35.8616C64.7511 36.0626 64.4813 36.2535 64.2044 36.4526C63.9627 36.6234 63.7177 36.7983 63.4589 36.9894L63.3178 37.0939L63.4787 36.8747C64.2465 35.8594 65.1471 34.9228 65.9188 34.1165L65.9597 34.0763C66.3554 33.6641 66.7352 33.3203 67.1351 32.9565L67.1612 32.9345C67.552 32.5806 67.9617 32.2088 68.4075 31.7545C71.4231 28.7529 75.546 27.2714 80.3648 27.2714C90.1611 27.2874 97.3078 34.5829 97.3078 43.8966V44.9721C96.8101 53.8397 89.3796 60.6526 80.3978 60.6526C75.7841 60.6688 71.6531 59.2295 68.6454 56.2421C68.2145 55.8178 67.8028 55.4438 67.4109 55.088L67.2379 54.9312C66.7902 54.5333 66.3596 54.1175 65.9457 53.6849L65.7606 53.4858C65.028 52.6999 64.1964 51.8072 63.4809 50.8483L63.4828 50.8502ZM97.3078 44.9721V44.96V44.9864V44.9721ZM68.4094 31.7545L68.4075 31.7564L68.4114 31.7523L68.4094 31.7545ZM64.0675 50.0544L64.7052 50.5166C64.97 50.7056 65.2321 50.8945 65.4788 51.0815C65.9336 51.4233 66.3654 51.7792 66.6654 52.1389C67.7167 52.7521 68.6454 53.5603 69.4049 54.5231L69.3989 54.5151L69.411 54.5314L69.4049 54.5231C72.2457 57.8363 76.1897 59.0986 80.5097 59.0746C88.471 59.0342 95.2357 52.9914 95.6055 44.7653V44.7771V44.757V44.7653V43.7863C95.6055 35.2222 89.0916 28.8172 80.5116 28.7751C76.1278 28.7751 72.0848 30.1221 69.268 33.457L69.274 33.449L69.2622 33.4653L69.268 33.457C68.5843 34.3417 67.7269 35.0655 66.7512 35.5819C66.4495 35.9438 66.0197 36.2956 65.5698 36.6335C65.308 36.8285 65.0121 37.0394 64.7132 37.2526L64.3493 37.5138L64.5022 37.4536C64.9681 37.2685 65.4128 37.092 65.7986 36.9228C66.0637 36.8043 66.2895 36.6938 66.4624 36.5912C66.5724 36.5326 66.6734 36.4567 66.7592 36.366L66.8661 36.2312L67.0311 36.1952C67.4728 36.1006 67.8957 35.9136 68.2656 35.6463C68.6355 35.3809 68.9482 35.0372 69.1841 34.6412L69.1962 34.623L69.208 34.6071C72.0909 30.6064 76.3506 29.2798 80.5416 29.324C88.4061 29.3922 94.7671 35.2946 94.7671 43.6856V44.5401C94.5061 52.7419 87.9861 58.3709 80.5578 58.4413C76.4488 58.4834 72.3098 57.3377 69.389 53.3552L69.3769 53.337L69.367 53.3192C68.8272 52.4282 67.9736 51.7715 66.9742 51.4775L66.8342 51.4373L66.7413 51.3207C66.6494 51.2264 66.5433 51.1472 66.4275 51.0856C66.2116 50.9616 65.9886 50.8494 65.7606 50.7498C65.3778 50.5791 64.9381 50.4039 64.4775 50.2191L64.0675 50.0544ZM64.7973 49.3226L64.7472 49.3025L64.9043 49.3286C65.5349 49.4351 66.1407 49.5376 66.6324 49.6361C66.9302 49.6966 67.1711 49.7546 67.346 49.8069C67.4268 49.8311 67.481 49.8511 67.5168 49.8674L67.6138 49.9939L67.8328 49.9999C68.3055 50.0142 68.7634 50.1608 69.1602 50.4262C69.554 50.6935 69.8697 51.0675 70.0688 51.5058L70.0828 51.5358L70.1007 51.5619C72.8622 55.9504 76.8915 56.9054 80.6387 56.821C82.2529 56.8339 83.8543 56.5215 85.3445 55.9022C86.8476 55.278 88.2122 54.3609 89.3575 53.2045C90.5131 52.0371 91.4286 50.6558 92.0553 49.1375C92.687 47.6091 93.0189 45.9728 93.0318 44.3187V43.5429C93.0318 35.8976 87.2824 30.88 80.6346 30.8016C76.8354 30.7411 72.6794 31.9654 69.9197 36.3338C69.5138 36.9671 69.298 37.1984 69.0692 37.329C68.8244 37.4676 68.5164 37.516 67.7907 37.6186L67.6059 37.6444L67.5289 37.7451C67.4731 37.7679 67.415 37.7872 67.357 37.8034C67.12 37.8699 66.8812 37.9263 66.6412 37.9722C66.1195 38.0723 65.5967 38.1647 65.0731 38.2497C65.4609 38.0968 65.8368 37.9461 66.1707 37.7973C66.4305 37.6854 66.6833 37.5586 66.9283 37.4176C67.0861 37.3271 67.233 37.2193 67.3669 37.0958C67.8787 36.9671 68.3654 36.7419 68.8002 36.4284C69.268 36.0907 69.664 35.6584 69.9657 35.1598C72.6194 31.493 76.5417 30.2387 80.5336 30.2788C87.9322 30.3432 93.8365 35.8635 93.8365 43.6856V44.5178C93.5876 52.151 87.5304 57.4222 80.5476 57.4843C76.6215 57.5267 72.8265 56.441 70.1447 52.7964C69.507 51.7517 68.5153 50.9704 67.3499 50.595C67.2121 50.466 67.0581 50.3533 66.8942 50.2592C66.6483 50.1182 66.3945 49.9906 66.1346 49.8773C65.7318 49.6966 65.264 49.5093 64.7973 49.3226ZM70.1447 52.7964L70.1568 52.8145L70.1348 52.7802L70.1447 52.7964ZM93.8365 44.5178V44.5098V44.5258V44.5178ZM69.9678 35.1598L69.9558 35.176L69.9778 35.1397L69.9678 35.1598ZM65.7527 48.5042C66.1346 48.5707 66.4963 48.637 66.8111 48.6994C67.1172 48.7616 67.395 48.8259 67.6097 48.8903C67.7478 48.9313 67.8817 48.9852 68.0096 49.0512C68.6003 49.0954 69.172 49.2923 69.6698 49.6281C70.1986 49.9859 70.6235 50.4845 70.8963 51.0694C73.4221 55.0558 77.0623 55.9465 80.6266 55.8662H80.6406C82.135 55.8791 83.6164 55.5907 84.9966 55.0178C86.3859 54.4409 87.6454 53.5936 88.7039 52.525C89.7692 51.4514 90.616 50.1729 91.1987 48.7657C91.7814 47.3563 92.0872 45.8427 92.0993 44.3129V43.5429C92.0993 36.4707 86.8127 31.8287 80.6208 31.7564C77.0323 31.7 73.2321 32.844 70.7013 36.8566L70.6974 36.8607C70.2896 37.4937 69.9657 37.912 69.518 38.1653C69.1132 38.3946 68.6393 38.4628 68.0376 38.5473C67.9997 38.5712 67.9587 38.5929 67.9177 38.6116C67.8267 38.6518 67.7228 38.6881 67.6158 38.7202C67.3529 38.7948 67.0881 38.8577 66.8202 38.9092C66.4924 38.9735 66.1165 39.0417 65.7219 39.1102H68.6314L69.1011 39.1121C69.274 39.114 69.417 39.1162 69.5521 39.1121C69.6978 39.1176 69.8427 39.0973 69.9816 39.0519C70.1306 38.9914 70.2836 38.8448 70.6834 38.1271C71.8508 35.9683 73.6991 34.2559 75.9408 33.2563C78.1609 32.2712 80.6486 32.0658 83.0007 32.673C85.3525 33.2783 87.4436 34.6632 88.9517 36.6135C90.4642 38.5775 91.3007 40.9777 91.3376 43.4563V44.1298C91.3755 45.5804 91.1297 47.0241 90.6118 48.3796C90.0973 49.7282 89.3196 50.961 88.3241 52.0063C87.3385 53.0414 86.1522 53.8656 84.8377 54.4288C83.5314 54.9876 82.1281 55.273 80.7127 55.2651C79.0305 55.2972 77.1954 55.1204 75.456 54.3301C73.7048 53.5361 72.0788 52.1328 70.8044 49.7689C70.4205 49.0652 70.2088 48.8078 69.9758 48.6772C69.7308 48.5424 69.3871 48.5023 68.5824 48.5023H65.7527V48.5042Z" fill="#F05251"/>
</svg>
