<svg width="132" height="88" viewBox="0 0 132 88" fill="none" xmlns="http://www.w3.org/2000/svg">
<path d="M37.3548 77.2756C28.7899 77.2756 28.5996 69.0521 28.5996 68.6697V14.9302C28.5996 6.51546 36.7838 6.51546 37.1645 6.32422H90.4571C98.8317 6.32422 98.8317 14.5477 98.8317 14.9302V71.3471L103.4 75.9369L97.4994 81.6742L93.1217 77.2756H37.3548Z" fill="#E94E1B"/>
<path d="M63.1624 55.2891V44.0566H54.8329V54.1468C54.8329 55.0987 54.4542 55.6699 53.3184 55.6699H52.3719C51.236 55.6699 50.8574 55.0987 50.8574 54.1468V28.826C50.8574 27.8741 51.236 27.4933 52.3719 27.4933H53.3184C54.2649 27.4933 54.8329 28.0645 54.8329 28.826V37.774H62.9731V28.0645C62.9731 22.7338 60.5121 20.2588 55.4008 20.2588H50.2895C45.1782 20.2588 42.5279 22.7338 42.5279 27.8741V55.4795C42.5279 60.6198 45.1782 63.0948 50.2895 63.0948H55.4008C60.5121 63.0948 63.1624 60.6198 63.1624 55.4795" fill="white"/>
<path d="M78.2943 54.1468C78.2943 55.0987 77.7211 55.6699 76.7658 55.6699H74.6642V44.8181H76.5748C77.7211 44.8181 78.2943 45.3892 78.2943 46.3411V54.1468ZM78.1033 36.2509C78.1033 37.2028 77.5301 37.774 76.3837 37.774H74.6642V27.6837H76.5748C77.7211 27.6837 78.1033 28.2549 78.1033 29.2068V36.2509ZM86.701 54.9083V46.3411C86.701 43.295 85.5546 41.5816 83.0708 40.8201C85.3635 40.2489 86.701 38.3451 86.701 34.5375V28.2549C86.701 22.9242 84.0261 20.2588 78.6764 20.2588H66.2575V63.0948L78.8675 63.0913C84.2172 63.0913 86.701 60.426 86.701 55.0953" fill="white"/>
</svg>
