<svg width="132" height="88" viewBox="0 0 132 88" fill="none" xmlns="http://www.w3.org/2000/svg">
<path fill-rule="evenodd" clip-rule="evenodd" d="M24.7946 20.7272C24.129 21.9717 23.9071 23.2974 24.0276 25.3079L24.1969 28.1374L26.0964 28.2953C28.1395 28.4651 31.3757 27.1239 30.8754 26.3147C30.4816 25.6788 27.2314 25.6773 26.0434 26.3131C25.1765 26.7766 25.1678 26.6763 25.8879 24.4904C26.4207 22.873 26.5118 21.6965 26.1906 20.577L25.7309 18.9766L24.7946 20.7272ZM105.913 22.3498C106.052 23.8355 106.332 25.4432 106.536 25.9232C106.862 26.6949 106.732 26.7303 105.406 26.2303C104.564 25.9124 103.249 25.8311 102.402 26.0446L100.896 26.4237L102.142 27.4336C103.052 28.1718 104.001 28.4023 105.668 28.2907L107.948 28.1374L108.142 25.6479C108.348 23.0052 107.296 19.6489 106.263 19.6489C105.845 19.6489 105.737 20.4803 105.913 22.3498ZM30.3205 20.8985C29.4418 21.2808 28.21 22.3138 27.583 23.1935L26.4433 24.7934H27.5588C29.222 24.7934 32.0104 23.3216 32.8907 21.9784C34.1246 20.0965 33.1275 19.6778 30.3205 20.8985ZM99.0428 20.7097C97.6982 21.5401 101.819 24.7934 104.216 24.7934C105.686 24.7934 105.539 24.2178 103.598 22.391C101.772 20.6706 100.103 20.0548 99.0428 20.7097ZM76.2735 21.5354C76.0846 21.7237 75.9301 26.6923 75.9301 32.576V43.2735L78.6326 43.3008C80.1187 43.3157 82.1052 43.3399 83.0467 43.3548C83.9882 43.3692 85.3152 43.0168 85.9957 42.5708C89.7756 40.0963 90.3068 31.7622 86.8868 28.5947C85.3343 27.1563 81.8787 26.9089 80.2752 28.1209C79.726 28.5366 79.1021 28.8838 78.89 28.8926C78.6779 28.9018 78.5039 27.1728 78.5039 25.0507C78.5039 21.6522 78.3912 21.1923 77.5604 21.1923C77.041 21.1923 76.4619 21.3466 76.2735 21.5354ZM37.8406 22.8643C37.8416 23.2182 38.9602 27.9059 40.3253 33.2819L42.8085 43.0564L44.3405 43.2102L45.8729 43.364L47.9412 34.7393L50.009 26.1146L51.6701 32.7849C54.5177 44.2201 54.1559 43.3136 55.8746 43.3136C56.7127 43.3136 57.3988 43.1984 57.3988 43.0579C57.3988 42.9175 58.557 38.3317 59.9726 32.8672C61.3882 27.4032 62.5464 22.7727 62.5464 22.5767C62.5464 22.3812 61.9761 22.2212 61.2796 22.2212C59.8789 22.2212 59.8692 22.2454 57.9136 30.7096C55.6219 40.6277 55.973 40.6066 53.5835 30.9668C51.5512 22.7696 51.4323 22.4728 50.1068 22.32C48.7391 22.1615 48.7282 22.1872 46.7897 30.4226C45.72 34.9662 44.7162 38.6831 44.5587 38.6826C44.4012 38.6826 43.3871 34.9785 42.3056 30.4514C40.4334 22.6194 40.278 22.2212 39.0884 22.2212C38.4007 22.2212 37.8391 22.5108 37.8406 22.8643ZM20.8453 24.8068C20.45 25.7616 20.3244 27.2705 20.5216 28.7069C20.7151 30.1185 20.606 31.4936 20.2477 32.166C19.7123 33.1707 19.7376 33.2124 20.502 32.5817C20.9689 32.1969 22.3711 31.8414 23.6178 31.792C25.8261 31.704 27.5429 30.8418 27.5429 29.8212C27.5429 29.2635 24.2613 29.5197 22.6969 30.1993C21.9294 30.5326 21.809 30.4699 22.1518 29.9158C23.1478 28.3046 22.9821 23.2501 21.933 23.2501C21.6895 23.2501 21.2005 23.9508 20.8453 24.8068ZM109.476 26.7468L109.647 30.2435L107.795 29.7481C106.777 29.476 105.519 29.4158 105.002 29.6144C103.263 30.2811 105.394 31.667 108.216 31.7051C109.747 31.7262 110.913 32.0302 111.303 32.5102C111.705 33.0041 111.936 33.0612 111.947 32.6692C111.956 32.3322 111.754 31.9268 111.497 31.7689C111.241 31.6104 111.154 30.1303 111.304 28.4795C111.469 26.6614 111.341 25.0394 110.98 24.3644C109.85 22.2546 109.299 23.1271 109.476 26.7468ZM16.8616 27.9573C15.9021 28.9162 16.0869 31.5168 17.2497 33.4228C18.4563 35.4009 18.4831 35.6344 17.6338 36.7909C17.067 37.5626 16.9836 37.4772 16.9332 36.0748C16.875 34.4476 15.0033 32.0096 14.329 32.683C13.5903 33.4218 14.083 36.7847 15.1398 38.2129C16.2295 39.6862 16.5975 41.7703 15.7678 41.7703C15.5202 41.7703 15.1804 41.0861 15.0131 40.2501C14.7207 38.7901 12.392 36.6772 11.765 37.3038C11.0994 37.9685 12.2381 41.3772 13.6696 43.0065C14.5051 43.9577 15.1851 45.284 15.1809 45.9538L15.1737 47.172L14.5375 45.9353C13.7118 44.3302 11.4294 42.649 10.3854 42.8774C9.65397 43.0374 9.66993 43.2864 10.5373 45.2125C11.2204 46.7301 12.1099 47.6756 13.5394 48.4046C14.6569 48.9746 15.7019 49.9403 15.862 50.5514L16.1528 51.6626L15.027 50.6389C13.4313 49.1876 11.8607 48.4581 10.3324 48.4581C8.7063 48.4581 8.661 48.9885 10.1698 50.3621C11.7794 51.8273 13.3551 52.5737 14.8381 52.5737C15.6159 52.5737 16.423 53.0671 16.943 53.8598C17.8973 55.3157 17.5159 55.5483 16.1698 54.3306C14.8412 53.1293 11.4448 52.7898 10.6248 53.7765C10.0596 54.4571 10.264 54.7241 12.0414 55.6306C14.2981 56.7814 15.794 56.9522 17.1679 56.2176C17.8618 55.8461 18.2412 56.0782 18.9454 57.3051C19.7999 58.7924 19.7988 58.8464 18.9304 58.4703C17.4031 57.8088 14.973 57.6585 14.1921 58.1776C12.2509 59.4679 17.6178 61.9835 19.8102 60.8111C20.8278 60.2663 21.1465 60.3517 22.2645 61.4691L23.5488 62.7526L21.479 62.2006C19.752 61.7402 19.1847 61.7952 18.0543 62.5355C17.3095 63.0232 16.8369 63.6437 17.0042 63.9143C17.4829 64.6885 22.4648 64.5023 23.3841 63.6755C24.0909 63.0407 24.3555 63.0742 25.4123 63.9328L26.6276 64.9205H25.0504C23.05 64.9205 20.851 65.9067 20.851 66.8039C20.851 67.7793 25.4581 67.7104 26.8824 66.7139C27.8991 66.0019 28.2501 66.0477 30.9485 67.2402C32.8896 68.0983 34.0762 68.3714 34.4097 68.0381C34.7433 67.7047 34.403 67.3451 33.4178 66.9886C32.5931 66.6902 31.0772 66.0806 30.0492 65.633L28.1801 64.8197L28.9229 62.9296C29.4907 61.485 29.535 60.6959 29.1103 59.5805C28.6347 58.3294 28.4401 58.2167 27.7477 58.7908C27.182 59.26 26.9931 60.1238 27.1166 61.6759C27.3128 64.1411 27.0873 64.349 25.7808 62.9064C24.9408 61.9789 24.9397 61.8426 25.7587 60.5935C26.6395 59.2492 26.4686 55.6604 25.5235 55.6604C24.5295 55.6604 23.8417 57.3103 24.0271 59.2518C24.1352 60.3892 24.06 61.3194 23.8587 61.3194C23.0995 61.3194 17.7707 54.0641 17.7645 53.0218C17.7635 52.8443 18.4553 52.4117 19.3021 52.0613C20.8772 51.409 23.3043 48.1659 22.682 47.5445C22.1106 46.9729 19.6619 48.6315 18.4723 50.3955L17.3568 52.0495L17.0196 50.7078C16.8343 49.9696 16.752 49.3281 16.8364 49.2823C16.9213 49.2365 17.8484 48.81 18.8975 48.3336C20.4829 47.6139 22.9172 44.6003 22.3047 44.1151C22.213 44.0426 21.4028 44.1815 20.504 44.4243C19.4395 44.7124 18.4533 45.5366 17.6729 46.7908C16.5862 48.5374 16.4601 48.6078 16.3103 47.5517C16.0262 45.5525 16.4297 44.7078 17.7624 44.5138C19.2969 44.2901 21.2319 42.9422 22.2779 41.3675C23.0068 40.2707 22.9733 40.2269 21.4054 40.2269C19.7927 40.2269 17.6991 41.7554 17.137 43.343C16.6614 44.6857 16.2434 43.5529 16.6516 42.0275C16.9867 40.7743 17.4567 40.4327 19.594 39.8889C21.0095 39.5293 22.5554 38.7289 23.0789 38.0848C23.9468 37.0168 23.954 36.8799 23.172 36.3084C22.3978 35.7425 22.4112 35.6612 23.3213 35.3726C23.8701 35.1987 24.7225 34.6102 25.2161 34.0649C26.0789 33.1121 26.0619 33.0601 24.7719 32.7365C23.9035 32.5189 22.7293 32.7468 21.4425 33.3827C20.3352 33.9306 19.4581 34.1256 19.4617 33.8236C19.4977 31.0641 19.1646 29.3623 18.4059 28.426C17.6852 27.5365 17.3764 27.4429 16.8616 27.9573ZM65.1696 28.0165C62.1861 29.549 60.579 33.9753 61.573 37.9222C62.6823 42.3249 67.0413 44.5442 71.8543 43.1578C73.7815 42.6027 74.1542 42.2786 74.2984 41.0367C74.443 39.7871 74.3292 39.6297 73.5262 39.9697C71.2227 40.9446 68.8121 41.3896 67.5483 41.0727C65.6571 40.5984 64.0907 38.7731 64.0907 37.043V35.5969H69.5657H75.0406L74.7102 33.1867C74.1347 28.9898 72.3356 27.3569 68.304 27.3734C67.2606 27.3775 65.8501 27.6666 65.1696 28.0165ZM113.28 28.8514C112.857 29.6684 112.446 31.2611 112.366 32.3908C112.229 34.3231 112.16 34.4028 111.205 33.7346C110.025 32.9089 106.301 32.7736 106.301 33.5566C106.301 33.8488 107.158 34.5937 108.205 35.2111C109.98 36.2574 110.03 36.3531 108.948 36.6088L107.786 36.883L108.895 38.0719C110.16 39.429 111.976 40.2269 113.798 40.2269C114.691 40.2269 115.052 40.5109 115.052 41.2136C115.052 41.7564 115.205 42.6248 115.393 43.1428C115.586 43.6758 114.904 43.2473 113.824 42.1561C111.987 40.3005 109.389 39.5021 109.389 40.7928C109.389 41.9282 112.876 44.857 114.228 44.857C115.415 44.857 115.567 45.0612 115.567 46.6576C115.567 48.8424 115.312 48.9098 114.317 46.9873C113.577 45.5566 111.016 44.0565 109.935 44.4197C108.963 44.7459 111.265 47.7394 113.189 48.6521C114.304 49.1809 115.052 49.9042 115.052 50.4542C115.052 52.066 114.397 52.1015 113.448 50.5422C112.419 48.8507 110.059 47.1031 109.525 47.6371C108.893 48.2688 111.059 51.514 112.554 52.1755C114.194 52.9009 114.353 53.4689 113.313 54.8898C112.647 55.8004 112.581 55.7592 112.244 54.2231C111.913 52.7157 109.548 50.1856 108.992 50.7418C108.426 51.3077 109.566 53.8691 110.965 55.1753L112.482 56.5916L110.409 59.2127C109.269 60.6542 108.24 61.8338 108.123 61.8338C108.006 61.8338 108.041 61.0282 108.201 60.043C108.51 58.1396 107.208 55.3569 106.278 55.9315C105.449 56.4434 105.704 60.6496 106.62 61.5642C107.078 62.0226 107.367 62.4465 107.263 62.5067C107.158 62.5669 106.542 63.0639 105.893 63.6107L104.712 64.6052L105.028 62.5767C105.251 61.1393 105.111 60.2478 104.545 59.5188C103.853 58.6273 103.675 58.5933 103.206 59.2616C102.644 60.0641 102.767 63.0037 103.425 64.493C103.733 65.1885 103.22 65.5646 100.715 66.4772C98.5512 67.2659 97.707 67.8184 97.9 68.32C98.1965 69.0927 98.9023 69.2748 99.1802 68.6503C99.505 67.9198 104.4 65.8872 104.707 66.3553C105.594 67.7099 108.753 68.4167 110.656 67.6862C111.422 67.3924 111.419 67.2844 110.619 66.4001C110.017 65.7359 109.041 65.435 107.488 65.435H105.231L108.008 63.175C110.54 61.1136 110.984 60.9346 113.047 61.145C114.76 61.3199 115.742 61.1048 117.09 60.2606L118.87 59.1458L117.409 58.3803C116.119 57.7048 115.719 57.7043 114.017 58.3726L112.086 59.1304L112.861 57.7815C113.558 56.5674 113.938 56.4321 116.646 56.4321C119.064 56.4321 119.88 56.2088 120.792 55.2967L121.928 54.1618L120.604 53.6587C119.124 53.0964 117.438 53.3953 115.673 54.5327C114.512 55.2808 114.503 55.2705 115.111 53.9339C115.597 52.87 116.096 52.5737 117.402 52.5737C118.554 52.5737 119.736 52.0202 121.209 50.7901C123.316 49.0302 123.328 49.0024 122.077 48.6886C120.7 48.3429 119.056 49.0168 117.239 50.6697L116.081 51.7244V50.6481C116.081 49.9212 116.697 49.2658 117.978 48.6289C119.973 47.6376 121.419 45.9399 122.015 43.8867C122.347 42.7462 122.268 42.6855 120.903 43.0276C118.992 43.5071 118.135 44.2504 117.31 46.1431L116.636 47.6865L116.616 46.0325C116.602 44.8698 116.915 44.2083 117.669 43.8049C119.428 42.864 121.198 37.1402 119.73 37.1402C118.908 37.1402 116.598 40.2635 116.561 41.4241L116.527 42.542L115.992 41.4379C115.57 40.566 115.679 40.0242 116.513 38.8657C117.773 37.115 118.363 34.1014 117.655 33.0246C117.208 32.3445 117.047 32.3533 116.304 33.0961C115.84 33.5602 115.296 34.7177 115.097 35.6684L114.734 37.3975L114.068 36.1746C113.662 35.4302 113.593 34.8262 113.892 34.6313C115.283 33.7227 116.028 30.1952 115.254 28.1796C114.789 26.9675 114.141 27.1882 113.28 28.8514ZM65.2098 30.6139C64.5941 31.2688 64.0907 32.1948 64.0907 32.6717C64.0907 33.4136 64.6919 33.5391 68.2433 33.5391C72.3114 33.5391 72.3891 33.5154 72.0432 32.3816C71.0914 29.2594 67.3846 28.301 65.2098 30.6139ZM79.6482 30.7389C78.6198 31.4581 78.5039 31.9782 78.5039 35.8654C78.5039 39.6153 78.6362 40.2614 79.4995 40.7234C81.2507 41.6602 83.6093 41.3448 84.9616 39.9929C86.0369 38.9187 86.2253 38.2453 86.2253 35.4775C86.2253 31.3064 85.3564 29.9379 82.7075 29.9379C81.6537 29.9379 80.2773 30.2986 79.6482 30.7389ZM18.1001 37.2462C17.7002 38.7757 17.7825 38.7813 19.5641 37.3537L21.1084 36.1165L19.753 36.1139C18.7868 36.1119 18.3117 36.4375 18.1001 37.2462ZM111.477 36.4972C111.51 36.9386 114.537 39.4192 114.537 39.0041C114.537 37.951 113.175 36.1113 112.395 36.1113C111.875 36.1113 111.461 36.2847 111.477 36.4972ZM90.6867 39.5412C90.4978 39.7295 90.3434 41.1025 90.3434 42.5919V45.2994L88.8212 44.8632C85.8655 44.0164 83.109 45.463 81.8936 48.4993C80.8564 51.0901 80.8615 53.0424 81.9137 55.6697C83.1929 58.8654 86.0421 60.0219 88.9278 58.5172C89.7061 58.1113 90.3434 57.9971 90.3434 58.263C90.3434 58.5295 90.9225 58.7471 91.6303 58.7471H92.9172V48.9726C92.9172 39.837 92.8554 39.198 91.9736 39.198C91.4542 39.198 90.8751 39.3524 90.6867 39.5412ZM32.8279 49.5014L29.6194 58.814L31.0036 58.652C32.1582 58.5167 32.5139 58.084 33.1445 56.0463L33.9006 53.6026H37.3722H40.8437L41.6987 56.1749C42.4194 58.3433 42.7545 58.7471 43.8339 58.7471C44.8192 58.7471 45.0477 58.5398 44.8269 57.8468C44.6694 57.3514 43.3032 53.2425 41.7909 48.7154C39.1213 40.7223 38.9983 40.48 37.5389 40.3365L36.0364 40.1889L32.8279 49.5014ZM36.1285 47.1411C35.3754 49.38 34.8473 51.2994 34.9549 51.407C35.0624 51.5145 36.2968 51.5315 37.6985 51.445L40.2466 51.2876L38.8727 47.1787L37.4983 43.0703L36.1285 47.1411ZM64.3481 44.7927C63.2913 45.017 62.7539 45.4707 62.6453 46.229C62.4944 47.2842 62.635 47.3238 65.5959 47.0552C67.7105 46.8638 68.9552 46.9806 69.4864 47.4215C70.9977 48.6752 70.327 49.3666 67.0506 49.9351C61.6924 50.8642 59.8002 54.5384 63.0215 57.7578C64.7079 59.4432 66.1945 59.634 68.4559 58.4559C69.4457 57.9399 70.0542 57.8499 70.1715 58.2018C70.2719 58.5017 70.9133 58.7471 71.5974 58.7471C72.8261 58.7471 72.8416 58.6859 72.8416 53.8434C72.8416 47.5419 72.1142 45.6461 69.4082 44.8956C67.276 44.3034 66.7026 44.2921 64.3481 44.7927ZM98.0648 44.6723C95.947 45.3848 94.9777 46.1704 94.4897 47.5692C93.6224 50.0565 94.7126 51.6313 98.0416 52.6993C101.374 53.7683 101.877 54.1932 101.438 55.573C100.976 57.0309 98.5944 57.4389 96.2533 56.4614C93.8201 55.4449 93.8437 55.4413 94.0393 56.8174C94.2442 58.2569 97.4331 59.4267 99.8937 58.9653C102.082 58.5552 103.898 56.6034 103.898 54.6629C103.898 52.5351 102.985 51.657 99.8088 50.7341C96.7706 49.8518 96.3053 49.432 96.7629 47.99C97.2005 46.6133 99.2775 46.2481 101.469 47.1633C103.802 48.1371 103.727 48.1448 103.727 46.9328C103.727 46.3772 103.322 45.7099 102.826 45.4501C101.557 44.7855 98.98 44.3647 98.0648 44.6723ZM44.3528 46.2717C44.5489 47.0501 45.32 50.1172 46.0654 53.0882C47.2231 57.7002 47.5824 58.5136 48.5244 58.6509C49.5055 58.7945 49.8108 58.227 51.2928 53.5064L52.9585 48.2009L54.5862 53.3454C55.9107 57.5304 56.4151 58.5197 57.2928 58.6504C58.4721 58.8263 58.295 59.2868 60.6614 49.8729L61.922 44.857H60.7309C59.8007 44.857 59.4641 45.2233 59.1953 46.5289C59.0059 47.4488 58.486 49.8214 58.0407 51.8021L57.2305 55.4032L55.624 50.2587C54.3257 46.1035 53.8285 45.1142 53.0357 45.1142C52.244 45.1142 51.7427 46.1071 50.4378 50.2587L48.8209 55.4032L47.62 50.1301C46.5143 45.2757 46.3223 44.857 45.2073 44.857C44.1418 44.857 44.0388 45.0278 44.3528 46.2717ZM74.3859 51.8021V58.7471H75.6728C76.9581 58.7471 76.9597 58.7415 76.9597 53.6855C76.9597 48.7601 76.9952 48.6073 78.2707 48.0265C78.9919 47.6978 80.1661 47.4292 80.8806 47.4292C81.9327 47.4292 82.1474 47.2096 82.0141 46.2717C81.8823 45.3478 81.5508 45.1353 80.3715 45.2197C79.5587 45.2778 78.4586 45.7187 77.9269 46.1997C77.0091 47.0295 76.9597 47.0177 76.9597 45.9656C76.9597 45.126 76.6472 44.857 75.6728 44.857H74.3859V51.8021ZM84.9652 47.9138C83.7632 49.2411 83.3715 53.4102 84.2852 55.146C85.0547 56.6086 87.5472 57.1199 89.3102 56.1769C90.2852 55.6553 90.3701 55.2154 90.2353 51.3874L90.086 47.172L88.0002 47.0187C86.425 46.9029 85.6822 47.1221 84.9652 47.9138ZM20.9787 51.6734C20.3841 52.3098 19.7304 53.5054 19.525 54.3301C19.2058 55.6162 19.2794 55.7808 20.0439 55.4876C20.5339 55.2998 21.0276 55.146 21.1398 55.146C21.3688 55.146 23.4248 51.2295 23.4248 50.7937C23.4248 50.0982 21.9572 50.626 20.9787 51.6734ZM66.7453 52.0567C64.4876 52.5902 63.9749 53.1689 64.1792 54.9546C64.3275 56.2505 64.5823 56.4516 66.2568 56.5905C69.1683 56.8318 70.2678 56.0082 70.2678 53.5846C70.2678 51.3617 70.0629 51.2727 66.7453 52.0567ZM22.4328 54.4438C21.374 55.789 20.9663 58.2327 21.8007 58.2327C22.6197 58.2327 23.9272 56.3652 24.2551 54.7262C24.6597 52.7039 23.8953 52.585 22.4328 54.4438ZM107.845 54.8599C107.845 55.5519 108.417 56.767 109.116 57.5608L110.387 59.0043L110.402 57.4471C110.419 55.8559 109.205 53.6026 108.331 53.6026C108.063 53.6026 107.845 54.1685 107.845 54.8599ZM79.3559 61.2314C78.1029 62.6148 78.2764 64.7477 79.7182 65.6922C80.9161 66.4762 82.622 66.2859 82.622 65.3681C82.622 65.1088 83.1687 65.2544 83.8363 65.6922C85.3116 66.6578 86.6598 66.2277 87.2816 64.5933C88.2401 62.0736 85.7162 59.3058 83.8626 60.8435C83.2799 61.3266 82.9484 61.3369 82.4974 60.8862C81.6259 60.0152 80.3277 60.1577 79.3559 61.2314ZM88.2854 63.2486C88.2849 64.7343 88.516 65.9494 88.7991 65.9494C89.0822 65.9494 89.3139 64.8907 89.3139 63.5968C89.3139 61.6337 89.4631 61.272 90.2147 61.4145C90.872 61.539 91.1582 62.1759 91.2735 63.7676C91.4867 66.699 92.4024 66.5606 92.4024 63.5968C92.4024 61.6337 92.5517 61.272 93.3032 61.4145C93.9606 61.539 94.2468 62.1759 94.3621 63.7676C94.4496 64.9673 94.7389 65.9494 95.0055 65.9494C95.77 65.9494 95.5718 62.1394 94.7502 61.0318C94.1248 60.1886 93.8478 60.1315 92.9722 60.666C92.3576 61.0411 91.814 61.1023 91.6375 60.8162C91.4733 60.5513 90.6522 60.3826 89.8127 60.4412C88.3281 60.5446 88.2864 60.6218 88.2854 63.2486ZM79.7476 62.0175C79.5849 62.4414 79.5283 63.3257 79.6215 63.9827C79.7471 64.8691 80.1228 65.1777 81.0777 65.1777C82.205 65.1777 82.3646 64.955 82.3646 63.3772C82.3646 61.9007 82.1556 61.5468 81.2044 61.412C80.5275 61.3158 79.92 61.5684 79.7476 62.0175ZM83.9949 61.6625C83.3138 62.3426 83.6536 64.9534 84.4638 65.2642C85.7157 65.7447 86.9321 64.2121 86.5398 62.6492C86.2227 61.3862 84.8164 60.8409 83.9949 61.6625ZM109.138 63.052C108.211 63.7296 108.219 63.7805 109.371 64.3963C110.492 64.9956 114.249 64.866 114.91 64.2044C115.069 64.046 114.906 63.5634 114.547 63.1323C113.735 62.1533 110.434 62.1044 109.138 63.052ZM76.7738 64.7631C76.1942 65.3424 76.4212 65.9494 77.217 65.9494C77.6417 65.9494 77.9892 65.7318 77.9892 65.4653C77.9892 64.8166 77.1851 64.3521 76.7738 64.7631Z" fill="#CB972E"/>
</svg>
