<svg width="132" height="88" viewBox="0 0 132 88" fill="none" xmlns="http://www.w3.org/2000/svg">
<path d="M96.7471 45.0789L83.611 40.7016L96.9375 34.1016C94.6448 25.3016 90.8294 18.6692 86.2284 16.0421C81.6274 13.4151 75.4241 12.1016 67.6183 12.1016C57.4009 12.1016 49.4207 14.9162 43.6774 20.5457C37.9341 26.1751 35.0625 34.0562 35.0625 44.1892C35.0625 51.0071 36.3476 56.7928 38.9178 61.5466C41.488 66.3003 44.9783 69.8812 49.3889 72.2894C53.7995 74.6975 58.7654 75.9016 64.2865 75.9016C72.4097 75.9016 75.923 73.0016 78.4074 70.8266L82.0875 74.9633H96.7471V45.0789Z" fill="url(#paint0_linear_2056_24798)"/>
<defs>
<linearGradient id="paint0_linear_2056_24798" x1="27178.1" y1="6392.1" x2="27178.1" y2="12.1016" gradientUnits="userSpaceOnUse">
<stop stop-color="#522DB8"/>
<stop offset="1" stop-color="#1C7CE0"/>
</linearGradient>
</defs>
</svg>
