<svg width="132" height="88" viewBox="0 0 132 88" fill="none" xmlns="http://www.w3.org/2000/svg">
<path fill-rule="evenodd" clip-rule="evenodd" d="M66.0004 80.1609C85.9724 80.1609 102.163 63.9704 102.163 43.9984C102.163 24.0264 85.9724 7.83594 66.0004 7.83594C46.0284 7.83594 29.8379 24.0264 29.8379 43.9984C29.8379 63.9704 46.0284 80.1609 66.0004 80.1609ZM57.207 61.3874C41.5802 53.7138 43.0227 31.1734 59.5174 25.2775C64.139 23.6253 69.971 24.0349 74.686 26.3414C80.4818 29.1772 80.5298 29.4855 75.9083 34.1071L71.9041 38.1113L69.4602 36.9515C66.1878 35.3984 62.8996 35.9764 60.3183 38.5584C58.6219 40.2547 58.3129 41.0661 58.3129 43.8256C58.3129 46.5852 58.6219 47.3965 60.3183 49.0929C62.8996 51.6749 66.1878 52.2528 69.4602 50.6998L71.9041 49.54L75.9083 53.5441C80.5482 58.1841 80.4989 58.4616 74.5183 61.3986C69.2215 63.9997 62.5183 63.9958 57.207 61.3874Z" fill="#681FED"/>
</svg>
