<svg width="132" height="88" viewBox="0 0 132 88" fill="none" xmlns="http://www.w3.org/2000/svg">
<path fill-rule="evenodd" clip-rule="evenodd" d="M74.4631 54.4671L75.7102 53.6666L85.1193 29.7804L91.9553 29.1484L99.9988 51.8975C100.266 52.6277 100.454 53.1051 100.561 53.3297C100.668 53.5544 100.87 53.8632 101.164 54.2565L101.888 55.2256L101.647 58.2165H90.3471L89.945 54.2144L92.8004 53.4562L91.5134 49.2012L83.3505 49.3277L82.4656 51.9817C82.3856 52.2344 82.3449 52.4451 82.3449 52.6136C82.3449 52.8103 82.3718 52.9645 82.4257 53.077C82.5063 53.1612 82.6262 53.2313 82.7876 53.2877L85.5624 54.5095L85.1603 58.2165H74.6248L74.4631 54.4671ZM33.4106 54.9305C35.6085 57.5425 38.7452 58.8484 42.8197 58.8484C44.6424 58.8484 46.533 58.5536 48.4896 57.9638C50.474 57.3458 52.1631 56.5596 53.5568 55.6045L52.3096 50.9705C50.9429 51.4482 49.5352 51.8412 48.0876 52.1503C46.6669 52.431 45.4874 52.5716 44.5486 52.5716C42.1902 52.5152 40.4612 51.743 39.3618 50.2544C38.2893 48.7378 37.7535 46.4206 37.7535 43.3032C37.7535 41.843 37.8872 40.3965 38.1556 38.9643C38.423 37.5318 38.7722 36.3804 39.2012 35.5097C40.1659 35.3131 41.1845 35.2149 42.257 35.2149C43.6777 35.2149 44.9776 35.3973 46.1579 35.7625L48.9326 40.0175L51.9884 39.8066C52.5241 36.7456 52.9133 33.951 53.1547 31.4232C49.8305 29.9349 46.5998 29.1905 43.4632 29.1905C40.7016 29.1905 38.3162 29.7804 36.3059 30.9599C34.2945 32.1113 32.7531 33.7965 31.6816 36.0152C30.6361 38.2058 30.1133 40.8178 30.1133 43.851C30.1133 48.6256 31.2117 52.3188 33.4106 54.9305ZM62.9587 53.077L59.4599 54.0882L59.6615 58.2165H73.4134L73.5751 54.8464L71.082 53.2877C70.7069 53.091 70.4783 52.8944 70.3975 52.6978C70.3177 52.5012 70.2779 52.0658 70.2779 51.3918V34.8357L73.5751 35.1305L76.591 38.8799L79.4865 38.6271C79.4865 36.296 79.3787 33.3612 79.1642 29.8225H53.9918C53.7773 33.3612 53.6695 36.296 53.6695 38.6271L56.6057 38.8799L59.5806 35.1305L62.9587 34.8357V53.077ZM87.6125 36.3521L84.9587 44.4406L90.1466 44.6934L87.6125 36.3521Z" fill="#0EF275"/>
</svg>
