<svg width="132" height="88" viewBox="0 0 132 88" fill="none" xmlns="http://www.w3.org/2000/svg">
<path d="M65.9996 9.35156C46.8435 9.35156 31.3496 24.8455 31.3496 44.0016C31.3496 63.1577 46.8435 78.6516 65.9996 78.6516C85.1557 78.6516 100.65 63.1577 100.65 44.0016C100.65 24.8455 85.1557 9.35156 65.9996 9.35156ZM65.9996 70.7638C51.3508 70.7638 39.2374 58.6503 39.2374 44.0016C39.2374 29.3528 51.3508 17.2394 65.9996 17.2394C80.6484 17.2394 92.7618 29.3528 92.7618 44.0016C92.7618 58.6503 80.9301 70.7638 65.9996 70.7638Z" fill="#C90526"/>
<path d="M70.5069 35.8321V51.6077C70.5069 53.8613 72.1971 54.7065 73.8874 53.5796L87.691 45.6918C89.663 44.565 89.663 42.8747 87.691 41.7479L73.8874 33.8601C71.9154 32.7333 70.5069 33.5784 70.5069 35.8321Z" fill="#C90526"/>
</svg>
