<svg width="132" height="88" viewBox="0 0 132 88" fill="none" xmlns="http://www.w3.org/2000/svg">
<path d="M89.845 77.4272C88.1522 71.5711 85.5292 66.935 82.4029 62.5581C79.9171 64.9982 76.3942 66.3097 72.6732 65.8522C67.2136 65.1659 63.0807 60.8653 62.4097 55.6497C62.2877 54.6889 62.2724 53.6824 62.4097 52.6759C62.4555 52.2946 62.5165 51.9286 62.608 51.5626C62.608 51.5474 62.608 51.5321 62.6232 51.5169C62.7147 51.1509 62.8062 50.7849 62.9282 50.4341C63.5992 48.3753 64.8193 46.591 66.39 45.2185C68.7386 43.5105 71.7124 42.6412 74.8082 43.0377C75.0827 43.0682 75.342 43.1139 75.6012 43.1597C75.6012 43.1292 75.6165 43.1139 75.6165 43.0834C75.6317 43.0834 75.647 43.0835 75.6622 43.0987C77.6295 36.0378 79.7493 26.7961 79.2308 14.5806C79.2308 15.0686 79.2156 15.5566 79.2003 16.0446C79.1393 13.7113 78.9716 11.2713 78.6818 8.70923C69.8671 8.61772 61.7692 11.3933 55.2878 16.0904L55.1048 16.1361C54.7388 16.4259 54.388 16.7309 54.0373 17.0359C53.9915 17.0664 53.961 17.0969 53.9153 17.1274V17.1427C44.7346 25.2101 39.8697 37.2121 41.654 49.2903C41.654 49.3056 41.654 49.3208 41.654 49.3361C41.6998 49.5953 41.7303 49.8546 41.776 50.0986C41.776 50.1291 41.7913 50.1596 41.7913 50.1901C41.837 50.4646 41.8828 50.7391 41.9438 50.9984C41.959 51.0441 41.959 51.0746 41.9743 51.1204C42.02 51.3339 42.0658 51.5474 42.1115 51.7609C42.142 51.8676 42.1573 51.9744 42.1878 52.0811C42.2183 52.2336 42.264 52.3709 42.2945 52.5234C42.325 52.6454 42.3555 52.7674 42.386 52.8894C42.4165 53.0267 42.4623 53.1639 42.4928 53.3012C42.5233 53.4079 42.5538 53.5147 42.5843 53.6214C45.6191 64.3271 53.473 72.4251 63.3552 76.4511C63.6297 76.5579 63.9042 76.6647 64.1635 76.7714C64.1635 76.7714 64.1787 76.7714 64.194 76.7867C64.4532 76.8934 64.7278 76.9849 65.0023 77.0764C65.0175 77.0764 65.0328 77.0917 65.048 77.0917C65.3073 77.1832 65.5818 77.2747 65.841 77.3662C65.8563 77.3662 65.8715 77.3814 65.902 77.3814C66.1613 77.4729 66.4205 77.5492 66.695 77.6254C66.7255 77.6254 66.7408 77.6407 66.7713 77.6407C67.0306 77.7169 67.2898 77.7932 67.5643 77.8694C67.5948 77.8694 67.6101 77.8847 67.6406 77.8847C67.8998 77.9609 68.1743 78.0219 68.4336 78.0982C68.4641 78.0982 68.4793 78.1134 68.5098 78.1134C68.7691 78.1744 69.0436 78.2507 69.3181 78.3117C69.3486 78.3117 69.3638 78.3269 69.3944 78.3269C69.6689 78.3879 69.9434 78.4489 70.2179 78.5099C70.2331 78.5099 70.2484 78.5252 70.2789 78.5252C70.5686 78.5862 70.8584 78.632 71.1329 78.6929H71.1481C72.6274 78.9522 74.1372 79.1352 75.6622 79.2267C75.708 79.2267 75.7385 79.2267 75.7842 79.2267C76.0435 79.242 76.3027 79.2572 76.562 79.2572C76.6535 79.2572 76.7298 79.2572 76.8213 79.2572C77.0348 79.2572 77.2483 79.2725 77.477 79.2725C77.5838 79.2725 77.6905 79.2725 77.7973 79.2725C77.9955 79.2725 78.1938 79.2725 78.3768 79.2725C78.4988 79.2725 78.6208 79.2725 78.7428 79.2725C78.9258 79.2725 79.1088 79.2725 79.2918 79.2572C79.4291 79.2572 79.5511 79.242 79.6883 79.242C79.8561 79.2267 80.0391 79.2267 80.2068 79.2115C80.3441 79.1962 80.4813 79.1962 80.6186 79.181C80.7863 79.1657 80.9541 79.1505 81.1218 79.1505C81.2591 79.1352 81.4116 79.12 81.5489 79.12C81.7166 79.1047 81.8844 79.0895 82.0369 79.0742C82.1741 79.059 82.3266 79.0437 82.4639 79.0285C82.6316 79.0132 82.7841 78.9827 82.9519 78.9675C83.1044 78.9522 83.2416 78.9217 83.3941 78.9065C83.5619 78.8912 83.7144 78.8607 83.8822 78.8302C84.0347 78.8149 84.1719 78.7844 84.3244 78.754C84.4922 78.7234 84.6447 78.6929 84.8124 78.6777C84.9649 78.6472 85.1022 78.632 85.2547 78.6014C85.4224 78.5709 85.5749 78.5404 85.7427 78.5099C85.8799 78.4794 86.0325 78.4489 86.1697 78.4184C86.246 78.4032 86.3222 78.3879 86.3985 78.3727C87.2067 78.2049 87.9997 78.0067 88.808 77.7779C89.0978 77.6712 89.479 77.5492 89.845 77.4272Z" fill="white"/>
<path d="M78.0269 83.041C77.9202 83.041 77.8287 83.041 77.7219 83.041H77.6152C77.5389 83.041 77.4474 83.041 77.3711 83.041C77.1271 83.041 76.8984 83.0257 76.6544 83.0257H76.5781C76.5171 83.0257 76.4561 83.0257 76.3799 83.0257C76.0901 83.0105 75.8156 82.9952 75.5259 82.98H75.3886C73.7416 82.8885 72.064 82.6902 70.4322 82.4005H70.4017C70.0815 82.3395 69.7765 82.2785 69.4715 82.2175L69.4105 82.2022C69.1055 82.1412 68.8005 82.0802 68.5107 82.004L68.4345 81.9887C68.1447 81.9277 67.8397 81.8514 67.5499 81.7752L67.4737 81.7599C67.1839 81.6837 66.8942 81.6074 66.6044 81.5312L66.5434 81.5159C66.2384 81.4244 65.9487 81.3482 65.6589 81.2567L65.5979 81.2414C65.2929 81.1499 65.0031 81.0584 64.7286 80.9669L64.6524 80.9364C64.3779 80.8449 64.0881 80.7534 63.7984 80.6467L63.7679 80.6314C63.4629 80.5247 63.1731 80.4179 62.8833 80.3112L62.8376 80.2959C62.5783 80.1892 62.2886 80.0824 62.0141 79.9757L61.8311 79.8994C50.5458 75.2481 42.2344 66.0674 39.0013 54.6754C38.9708 54.5991 38.9556 54.5076 38.9403 54.4314L38.9098 54.3399C38.8641 54.1874 38.8183 54.0349 38.7878 53.8671C38.7573 53.7451 38.7268 53.6383 38.6963 53.5163L38.6811 53.4706C38.6353 53.3028 38.6048 53.1503 38.5591 52.9826L38.5438 52.9368C38.5133 52.8301 38.4981 52.7233 38.4676 52.6166C38.4218 52.3878 38.3608 52.1591 38.3151 51.9151L38.2846 51.7778C38.2236 51.4728 38.1626 51.1678 38.1168 50.878L38.1016 50.7865C38.0558 50.4815 38.0101 50.207 37.9643 49.9173V49.8715C36.058 37.1222 40.7551 24.2357 50.5306 15.1465L50.5611 15.0093L51.6591 14.14C52.0251 13.8198 52.3911 13.5148 52.7571 13.225L53.3519 12.737L53.6416 12.6607C60.9466 7.52137 69.5935 4.86782 78.6979 4.95932L82.0225 4.98982L82.3885 8.29914C82.6173 10.3427 82.7698 12.3862 82.8613 14.4298H82.9528C83.4865 26.935 81.382 36.4512 79.2622 44.1069L78.3319 47.4315L78.2862 47.4162L78.2709 47.4925L74.8701 46.8367C74.6566 46.791 74.4736 46.7605 74.3211 46.7452C72.3385 46.5012 70.3407 46.9892 68.709 48.1482C67.7177 49.048 66.9704 50.1613 66.5282 51.4118L66.4672 51.5948C66.3909 51.8388 66.3147 52.0828 66.2689 52.3268L66.2537 52.3573C66.1927 52.6166 66.1469 52.8758 66.1164 53.1198C66.0249 53.8061 66.0249 54.4771 66.1164 55.1481C66.5892 58.793 69.4715 61.66 73.1163 62.1175C75.5716 62.4225 77.9964 61.599 79.7654 59.8757L82.8918 56.8104L85.4386 60.3637C89.3579 65.8386 91.8284 70.7797 93.4297 76.3766L94.4515 79.8994L90.9592 80.9974L91.0049 81.1804L87.1008 82.0344C87.0398 82.0497 86.9788 82.0649 86.9178 82.0802L86.8568 82.0955C86.7043 82.1259 86.5366 82.1564 86.3841 82.187C86.2011 82.2175 86.0333 82.2632 85.8503 82.2937C85.6978 82.3242 85.5301 82.3547 85.3776 82.3852C85.1946 82.4157 85.0268 82.4462 84.8438 82.4767C84.676 82.5072 84.5235 82.5225 84.3558 82.553C84.188 82.5835 84.005 82.5987 83.822 82.6292C83.6695 82.6445 83.5018 82.675 83.3493 82.6902C83.1663 82.7207 82.9833 82.736 82.8155 82.7512C82.663 82.7665 82.4953 82.7817 82.3428 82.797C82.1597 82.8122 81.992 82.8275 81.809 82.8427H81.7785C81.6412 82.858 81.4887 82.8732 81.3515 82.8732C81.1685 82.8885 80.9855 82.9037 80.7872 82.919H80.7415C80.6042 82.9342 80.467 82.9342 80.345 82.9495C80.162 82.9647 79.9942 82.9647 79.8265 82.98H79.6739C79.5672 82.98 79.4604 82.9952 79.3537 82.9952C79.1554 82.9952 78.9572 83.0105 78.7589 83.0105H78.6522C78.5607 83.0105 78.4539 83.0105 78.3624 83.0105C78.2404 83.041 78.1337 83.041 78.0269 83.041ZM64.8964 73.0368C65.0946 73.113 65.2929 73.1893 65.5064 73.2808C65.7656 73.3875 66.0097 73.4638 66.2537 73.5553L66.2842 73.5705C66.5282 73.662 66.7569 73.7383 67.0009 73.8145L67.0772 73.845C67.2907 73.9213 67.5347 73.9823 67.7634 74.0585L67.8092 74.0738C68.0532 74.15 68.2972 74.211 68.526 74.2873L68.587 74.3025C68.831 74.3635 69.075 74.4398 69.3037 74.5008L69.3647 74.516C69.624 74.577 69.8527 74.638 70.0967 74.699L70.1577 74.7143C70.4017 74.7753 70.6458 74.821 70.905 74.8668L70.9813 74.882C71.2253 74.9278 71.4845 74.9735 71.7438 75.0193H71.7743C73.1163 75.2633 74.4888 75.4158 75.8461 75.4921H75.9529C76.1816 75.5073 76.4256 75.5226 76.6544 75.5226H76.8831C77.0814 75.5226 77.2796 75.5378 77.4779 75.5378H77.7677C77.9507 75.5378 78.1184 75.5378 78.3014 75.5378H78.6369C78.8047 75.5378 78.9572 75.5378 79.1249 75.5226C79.2012 75.5226 79.2927 75.5226 79.3689 75.5073H79.5214C79.6587 75.5073 79.8112 75.4921 79.9484 75.4921C80.0552 75.4921 80.162 75.4768 80.2687 75.4768H80.3145C80.467 75.4616 80.6195 75.4616 80.772 75.4463C80.894 75.4311 81.0007 75.4311 81.1227 75.4158H81.1532C81.3057 75.4006 81.443 75.3853 81.5955 75.3701C81.7327 75.3548 81.8547 75.3396 81.992 75.3243C82.1445 75.3091 82.2817 75.2938 82.4343 75.2633C82.5563 75.2481 82.6935 75.2328 82.8308 75.2176C82.9833 75.2023 83.1205 75.1718 83.273 75.1566C83.4103 75.1413 83.5475 75.1108 83.6695 75.0956C83.822 75.065 83.9593 75.0498 84.1118 75.0193C84.2338 74.9888 84.371 74.9735 84.5083 74.943C84.6608 74.9126 84.7981 74.882 84.9506 74.8515C84.9811 74.8515 84.9963 74.8363 85.0268 74.8363C84.0965 72.503 82.9375 70.2459 81.4735 67.8974C78.6674 69.3919 75.4649 70.0019 72.2318 69.6054C65.1861 68.7209 59.6198 63.2003 58.7048 56.1547C58.537 54.8584 58.537 53.5316 58.7048 52.2353C58.7048 52.2048 58.7048 52.1896 58.72 52.1591L58.476 52.0066L59.3605 49.292C60.2298 46.6385 61.8158 44.2594 63.9204 42.4294L64.0424 42.3226L64.1796 42.2311C66.7264 40.3706 69.7155 39.3488 72.8113 39.242L72.9333 38.7998H72.9486C74.4888 32.6387 75.7851 25.2727 75.5411 16.1988H75.4496C75.4191 15.0245 75.3581 13.8198 75.2666 12.6302C68.8005 13.164 62.7308 15.3905 57.5305 19.1726L56.9967 19.5691L56.9357 19.5844C56.829 19.6759 56.7222 19.7674 56.6155 19.8589L56.4477 20.0114C47.9838 27.4535 43.8509 38.205 45.4217 48.7887V48.8192C45.4522 49.048 45.498 49.2768 45.5285 49.5208L45.5437 49.597C45.5895 49.8563 45.6352 50.085 45.681 50.329L45.7115 50.451C45.742 50.634 45.7877 50.817 45.8335 51C45.8487 51.0915 45.864 51.1678 45.8945 51.244L45.9097 51.2898C45.9402 51.4118 45.9707 51.5491 46.0012 51.6711L46.0165 51.7168C46.0317 51.8083 46.0622 51.8998 46.0775 51.9913C46.108 52.1133 46.1385 52.2353 46.1842 52.3573L46.2605 52.6318C48.853 61.8125 55.6089 69.2394 64.7896 72.991L64.8964 73.0368Z" fill="white"/>
<path d="M74.5941 43.0558C74.8534 43.0863 75.1126 43.1321 75.3719 43.1778C77.5984 35.2019 80.0232 24.3742 78.3914 9.47462C69.1802 9.38312 60.7163 12.4942 54.1892 17.7098C53.3199 21.0191 52.5879 23.8557 52.5879 23.8557L65.0017 46.3346C67.4265 43.9251 70.9188 42.5983 74.5941 43.0558Z" fill="#00DCEC"/>
<path d="M72.5188 65.3818C66.1746 64.5888 61.6758 58.8089 62.4688 52.4648C62.9263 48.7894 65.0766 45.7241 68.0352 43.9551C63.4143 37.1687 58.9307 28.7505 55.5147 16.6875L55.3317 16.7333C44.4734 25.5327 39.2121 39.7307 43.0704 53.4103C48.347 72.0309 68.5537 82.6146 88.2114 77.0483C88.5774 76.9415 88.9434 76.8195 89.3094 76.7128C87.6623 70.9786 85.085 66.4493 82.0197 62.1792C79.6102 64.543 76.1483 65.8393 72.5188 65.3818Z" fill="#9E22FF"/>
<path d="M72.5201 65.3967C66.176 64.6037 61.6771 58.8238 62.4702 52.4797C62.5617 51.7171 62.7294 50.9851 62.9582 50.2836C56.0193 43.3295 49.4464 35.8416 46.2896 27.4844C41.9585 35.2315 40.5402 44.4275 43.0717 53.4099C48.1349 71.2985 66.969 81.745 85.8642 77.6274C84.6594 73.4336 81.5788 69.2245 77.5985 64.8782C76.0124 65.4119 74.2892 65.6102 72.5201 65.3967Z" fill="#FF0064"/>
<path d="M72.2754 42.9364C73.0532 42.8754 73.8462 42.8906 74.6392 42.9974C74.8984 43.0279 75.1577 43.0737 75.417 43.1194C77.3385 36.211 79.4125 27.1676 78.9093 15.2266C78.772 27.3658 74.9747 36.4398 72.2754 42.9364Z" fill="#FFC53A"/>
</svg>
