<svg width="132" height="88" viewBox="0 0 132 88" fill="none" xmlns="http://www.w3.org/2000/svg">
<path d="M66.0008 13.4766C45.6258 13.4766 28.2255 26.1343 21.1758 44.0016C28.2255 61.8689 45.6258 74.5266 66.0008 74.5266C86.3758 74.5266 103.776 61.8689 110.826 44.0016C103.776 26.1343 86.3758 13.4766 66.0008 13.4766ZM66.0008 64.3516C54.7538 64.3516 45.6258 55.2348 45.6258 44.0016C45.6258 32.7684 54.7538 23.6516 66.0008 23.6516C77.2478 23.6516 86.3758 32.7684 86.3758 44.0016C86.3758 55.2348 77.2478 64.3516 66.0008 64.3516ZM66.0008 31.7916C59.2363 31.7916 53.7758 37.2454 53.7758 44.0016C53.7758 50.7578 59.2363 56.2116 66.0008 56.2116C72.7653 56.2116 78.2258 50.7578 78.2258 44.0016C78.2258 37.2454 72.7653 31.7916 66.0008 31.7916Z" fill="black"/>
</svg>
