<svg width="132" height="88" viewBox="0 0 132 88" fill="none" xmlns="http://www.w3.org/2000/svg">
<mask id="mask0_2056_21341" style="mask-type:luminance" maskUnits="userSpaceOnUse" x="34" y="18" width="64" height="52">
<path d="M34.0156 18.1094H97.9852V69.8944H34.0156V18.1094Z" fill="white"/>
</mask>
<g mask="url(#mask0_2056_21341)">
<path fill-rule="evenodd" clip-rule="evenodd" d="M66.0005 18.9727C50.4767 18.9727 37.466 29.73 34.0156 44.1966C37.466 58.6633 50.4767 69.4207 66.0005 69.4207C81.5242 69.4207 94.535 58.6633 97.9852 44.1966C94.535 29.73 81.5242 18.9727 66.0005 18.9727ZM65.7775 55.3041C71.6248 55.3041 76.3655 50.564 76.3655 44.7166C76.3655 38.8693 71.6248 34.1291 65.7775 34.1291C59.9304 34.1291 55.1905 38.8693 55.1905 44.7166C55.1905 50.564 59.9304 55.3041 65.7775 55.3041Z" fill="#0EF275"/>
</g>
</svg>
