<svg width="132" height="88" viewBox="0 0 132 88" fill="none" xmlns="http://www.w3.org/2000/svg">
<path d="M98.1742 42.4933C98.1693 42.9949 98.1341 43.4704 97.8525 44.2275C97.5156 45.1787 96.9978 46.0493 96.3281 46.7921C95.6574 47.5352 94.85 48.1338 93.9513 48.5499C93.0512 48.9687 92.081 49.2006 91.0938 49.2292C90.1063 49.2575 89.124 49.087 88.203 48.7226C87.282 48.3585 86.4413 47.8093 85.7296 47.1092C85.0166 46.409 84.4514 45.5689 84.0604 44.6416C83.8594 44.1612 83.7287 43.6148 83.6482 43.0565C83.1587 33.7489 75.4526 26.3508 66.0174 26.3508C56.581 26.3508 48.3593 34.2529 48.3593 43.9981C48.3593 53.7433 56.2634 61.6429 66.0143 61.6429C74.5487 61.6429 81.6673 55.5932 83.3124 47.5517C83.985 48.479 84.7754 49.3166 85.7225 49.9601C86.2854 50.341 86.897 50.7147 87.3766 50.9064C88.5819 51.3819 89.867 51.6068 91.157 51.5689C92.4482 51.5312 93.7189 51.2281 94.8935 50.6817C95.1104 50.58 95.3599 50.4309 95.6244 50.2511C96.472 49.6785 97.2552 49.002 97.93 48.2353C95.8565 64.0016 82.3581 76.1742 66.0143 76.1742C48.2367 76.1723 33.8242 61.7661 33.8242 43.9981C33.8242 26.2301 48.2367 11.8242 66.0174 11.8242C83.798 11.8242 97.388 25.4235 98.1742 42.4933Z" fill="#0EF275"/>
</svg>
