<svg width="132" height="88" viewBox="0 0 132 88" fill="none" xmlns="http://www.w3.org/2000/svg">
<path fill-rule="evenodd" clip-rule="evenodd" d="M52.0395 34.5021C57.259 34.5021 61.491 38.7541 61.491 43.9995C61.491 49.2451 57.259 53.4972 52.0395 53.4972C46.8189 53.4972 42.5869 49.2451 42.5869 43.9995C42.5869 38.7541 46.8189 34.5021 52.0395 34.5021ZM52.0395 26.0898C61.8826 26.0898 69.8628 34.1083 69.8628 43.9995C69.8628 53.891 61.8826 61.9094 52.0395 61.9094C42.1951 61.9094 34.2148 53.891 34.2148 43.9995C34.2148 34.1083 42.1951 26.0898 52.0395 26.0898Z" fill="#0EF275"/>
<path d="M61.5938 50.4961C61.5938 52.813 63.5058 54.6915 65.8637 54.6915C68.2216 54.6915 70.1337 52.813 70.1337 50.4961L69.587 37.504C69.587 35.1871 68.2216 33.3086 65.8637 33.3086C63.5058 33.3086 61.5938 35.1871 61.5938 37.504V50.4961Z" fill="#0EF275"/>
<path fill-rule="evenodd" clip-rule="evenodd" d="M79.6888 34.5021C74.4682 34.5021 70.2373 38.7541 70.2373 43.9995C70.2373 49.2451 74.4682 53.4972 79.6888 53.4972C84.9094 53.4972 89.1414 49.2451 89.1414 43.9995C89.1414 38.7541 84.9094 34.5021 79.6888 34.5021ZM79.6888 26.0898C69.8455 26.0898 61.8652 34.1083 61.8652 43.9995C61.8652 53.891 69.8455 61.9094 79.6888 61.9094C89.5333 61.9094 97.5135 53.891 97.5135 43.9995C97.5135 34.1083 89.5333 26.0898 79.6888 26.0898Z" fill="#0EF275"/>
<path d="M97.7851 50.453C97.7851 52.7553 95.8741 54.6215 93.5152 54.6215C91.1573 54.6215 89.2461 52.7553 89.2461 50.453L89.913 37.5437C89.913 35.2414 91.1573 33.375 93.5152 33.375C95.8741 33.375 97.7851 35.2414 97.7851 37.5437V50.453Z" fill="#0EF275"/>
</svg>
