<svg width="132" height="88" viewBox="0 0 132 88" fill="none" xmlns="http://www.w3.org/2000/svg">
<path d="M66 77C84.2254 77 99 62.2254 99 44C99 25.7746 84.2254 11 66 11C47.7746 11 33 25.7746 33 44C33 62.2254 47.7746 77 66 77Z" fill="black"/>
<path fill-rule="evenodd" clip-rule="evenodd" d="M63.8789 45.8758C68.1228 51.8453 76.018 53.9267 83.1348 51.5159C79.6567 58.0999 72.1355 62.0063 64.3204 60.6492C54.6747 58.974 48.234 49.9144 49.9349 40.4141C51.3129 32.717 57.6123 27.092 65.084 26.125C60.3494 31.8869 59.6348 39.9059 63.8789 45.8758Z" fill="#FAE8DA"/>
</svg>
