<svg width="132" height="88" viewBox="0 0 132 88" fill="none" xmlns="http://www.w3.org/2000/svg">
<path fill-rule="evenodd" clip-rule="evenodd" d="M99.6159 77.4778L32.3125 77.5492V10.4492H99.6875L99.6159 77.4778ZM48.8125 26.9492H58.7403V36.8492H48.8125V26.9492ZM60.8986 26.9492H70.8264V36.8492H60.8986V26.9492ZM82.9125 26.9492H72.9846V36.8492H82.9125V26.9492ZM48.8125 39.0492H58.7403V48.9492H48.8125V39.0492ZM70.8264 39.0492H60.8986V48.9492H70.8264V39.0492ZM72.9846 39.0492H82.9125V48.9492H72.9846V39.0492ZM58.7403 51.1492H48.8125V61.0492H58.7403V51.1492ZM60.8986 51.1492H70.8264V61.0492H60.8986V51.1492ZM82.9125 51.1492H72.9846V61.0492H82.9125V51.1492Z" fill="#0CA3EC"/>
</svg>
