<svg width="132" height="88" viewBox="0 0 132 88" fill="none" xmlns="http://www.w3.org/2000/svg">
<path d="M43.4682 35.6224V21.2319H49.1417C53.6525 21.2319 56.779 24.1018 56.779 28.416C56.779 32.7745 53.6525 35.6232 49.1645 35.6232L43.4682 35.6224ZM53.6525 28.4154C53.6525 25.8904 52.0982 23.9285 49.1637 23.9285H46.5328V32.9208H49.1417C51.9912 32.9208 53.6525 30.8739 53.6525 28.4154Z" fill="#2B3952"/>
<path d="M79.5446 35.6224L74.0022 21.2319H77.4744L81.4646 32.2775L85.4568 21.2319H88.9312L83.3896 35.6224H79.5446Z" fill="#2B3952"/>
<path d="M44.3421 66.77V52.3784H51.073C54.2025 52.3784 55.9067 54.4904 55.9067 57.0199C55.9067 59.5201 54.1805 61.633 51.073 61.633H47.4067V66.77H44.3421ZM52.778 57.0199C52.778 55.8065 51.8504 55.0759 50.644 55.0759H47.4078V58.9366H50.644C51.8496 58.9366 52.778 58.2065 52.778 57.0199Z" fill="#2B3952"/>
<path d="M66.9892 44.823H34.1967V12.0312H66.9892V44.823ZM35.8179 43.2003H65.367V13.6523H35.8179V43.2003Z" fill="#2B3952"/>
<path d="M97.8596 44.823H65.8787V43.2003H96.2382V13.6523H65.8787V12.0312H97.8596V44.823Z" fill="#2B3952"/>
<path d="M66.9301 75.9706H34.1387V43.9898H35.7609V74.3495H65.3078V43.9898H66.9301V75.9706Z" fill="#2B3952"/>
</svg>
