<svg width="132" height="88" viewBox="0 0 132 88" fill="none" xmlns="http://www.w3.org/2000/svg">
<path d="M36.5005 16.0567C36.6364 16.2316 40.6855 21.7078 45.5013 28.2229C54.9976 41.0494 55.1426 41.2339 56.4931 41.9041C57.9203 42.6032 57.5994 42.5836 64.4741 42.6128L70.6784 42.6516L70.3776 42.2341C70.2126 42.0009 65.7367 35.9616 60.4352 28.8056L50.7926 15.7946L43.5302 15.7655L36.2676 15.7461L36.5005 16.0567Z" fill="#0032C8"/>
<path d="M80.3408 16.8336C79.8939 17.4356 76.8934 21.4942 73.68 25.8441C70.4565 30.1941 67.7758 33.8059 67.7378 33.8642C67.6787 33.9321 68.7474 35.4664 70.7763 38.2142C74.3686 43.069 73.864 42.6419 75.2723 41.9621C76.0879 41.5642 76.6995 41.1077 77.2724 40.4571C77.4662 40.2437 81.5833 34.7382 86.4378 28.2229C91.2836 21.7078 95.3616 16.2316 95.4977 16.0568L95.7306 15.7461H81.1466L80.3408 16.8336Z" fill="#0032C8"/>
<path d="M58.7159 45.516C57.4534 45.778 56.492 46.2731 55.5894 47.1278C55.2396 47.4578 51.7532 52.0797 46.0249 59.8281C41.0633 66.5274 36.9752 72.0719 36.9272 72.1299C36.8683 72.2267 38.3256 72.2567 44.0829 72.2567H51.3074L61.2206 58.857C66.6772 51.4969 71.144 45.4382 71.144 45.409C71.144 45.3799 68.4933 45.3606 65.2499 45.3702C60.5889 45.3702 59.2106 45.409 58.7159 45.516Z" fill="#0032C8"/>
<path d="M72.8729 47.7102C72.1054 48.7395 70.6099 50.7492 69.5616 52.1765L67.6485 54.7593L80.6012 72.2567H95.1465L94.9136 71.9358C94.7775 71.7708 90.6217 66.1776 85.6799 59.5171C80.3975 52.4193 76.4944 47.2537 76.2224 47.0111C75.7368 46.5838 74.824 46.011 74.4753 45.9043C74.2804 45.846 74.0964 46.0497 72.8729 47.7102Z" fill="#0032C8"/>
</svg>
