<svg width="132" height="88" viewBox="0 0 132 88" fill="none" xmlns="http://www.w3.org/2000/svg">
<path fill-rule="evenodd" clip-rule="evenodd" d="M94.4187 5.91406H75.4733V24.9578H94.4187V5.91406ZM94.4187 53.5234C94.4187 69.2988 81.6948 82.0891 65.9982 82.0891C50.3016 82.0891 37.5801 69.2988 37.5801 53.5234C37.5801 37.7481 50.2992 24.9578 65.9958 24.9578C81.6924 24.9578 94.4139 37.7481 94.4139 53.5234H94.4187ZM75.1605 53.2484C75.1605 58.595 70.8716 62.7703 65.7806 62.7703C60.6872 62.7703 56.4031 58.595 56.4031 53.2484C56.4031 47.9019 60.6872 43.7266 65.7806 43.7266C70.8739 43.7266 75.1605 47.9019 75.1605 53.2484Z" fill="black"/>
</svg>
