<svg width="132" height="88" viewBox="0 0 132 88" fill="none" xmlns="http://www.w3.org/2000/svg">
<path d="M44.0766 74.1855C47.7698 74.1855 50.7632 71.1921 50.7632 67.4989C50.7632 63.8062 47.7698 60.8125 44.0766 60.8125C40.3842 60.8125 37.3896 63.8062 37.3896 67.4989C37.3896 71.1921 40.3842 74.1855 44.0766 74.1855Z" stroke="#403F33" stroke-width="3.54802"/>
<path d="M46.1309 61.6737C46.9424 53.1718 50.2858 46.8671 55.8741 42.9509C64.2803 36.9806 72.1126 44.3836 81.665 33.6372C84.9136 30.1505 87.1748 24.3375 88.9623 18.5625" stroke="#403F33" stroke-width="3.54802"/>
<path d="M79.4209 21.2684L89.8329 16.4922L94.6097 26.8088" stroke="#403F33" stroke-width="3.54802" stroke-linecap="round" stroke-linejoin="round"/>
<path d="M78.1797 70.7045L82.1917 63.0625L89.8331 67.1702" stroke="#403F33" stroke-width="1.77401" stroke-linecap="round" stroke-linejoin="round"/>
<path d="M86.4896 55.8984L82.1908 63.3493L74.7402 59.0508" stroke="#403F33" stroke-width="1.77401" stroke-linecap="round" stroke-linejoin="round"/>
<path d="M40.1611 24.515L48.3762 22.0312L50.86 30.2463" stroke="#403F33" stroke-width="1.77401" stroke-linecap="round" stroke-linejoin="round"/>
<path d="M56.4963 19.93L48.1853 22.1271L45.9883 13.8164" stroke="#403F33" stroke-width="1.77401" stroke-linecap="round" stroke-linejoin="round"/>
</svg>
