<svg width="132" height="88" viewBox="0 0 132 88" fill="none" xmlns="http://www.w3.org/2000/svg">
<path d="M82.3468 58.1394C82.3468 65.9492 76.0157 72.2803 68.2059 72.2803C60.3961 72.2803 54.065 65.9492 54.065 58.1394C54.065 50.3296 60.3961 43.9985 68.2059 43.9985C76.0157 43.9985 82.3468 50.3296 82.3468 58.1394Z" fill="#E1F3FF"/>
<path d="M38.7139 48.1515C38.7139 55.9613 32.3828 62.2924 24.573 62.2924C16.7632 62.2924 10.4321 55.9613 10.4321 48.1515C10.4321 40.3417 16.7632 34.0106 24.573 34.0106C32.3828 34.0106 38.7139 40.3417 38.7139 48.1515Z" fill="#E1F3FF"/>
<path d="M50.4769 14.675C49.0321 15.415 45.6844 17.2827 43.0768 18.8332C40.4691 20.4189 37.5443 22.1104 36.5576 22.6742C35.6062 23.2028 32.3642 25.0704 29.4042 26.7971C24.5765 29.6514 23.766 30.0038 21.6517 30.2505C20.3478 30.4267 18.6211 30.7791 17.7754 31.0962C14.2868 32.3648 10.9039 35.642 9.14193 39.4126C8.26096 41.3507 8.04953 42.2669 7.90858 45.2974C7.76762 48.2575 7.87334 49.2794 8.50763 51.3585C10.34 57.3843 14.9915 62.3177 20.8764 64.5377C23.026 65.313 27.6422 65.6654 30.1089 65.172C34.3376 64.3968 38.2843 61.6129 40.5043 57.8424C41.491 56.1157 43.0768 51.0766 43.0768 49.5965C43.0768 48.1165 44.9092 46.4603 46.5302 46.4603C48.1511 46.4603 49.9131 47.5175 50.794 48.9622C51.3931 49.9137 51.4636 50.7242 51.4283 54.5299C51.4283 58.3357 51.5341 59.2872 52.2388 61.2253C54.4236 67.3921 59.0047 71.9026 65.1009 74.0169C67.6029 74.8979 72.9944 74.8627 75.5668 73.9817C79.725 72.5369 82.7908 69.8235 84.6936 65.8768C85.6099 63.9739 85.8213 63.0225 85.9622 60.2386C86.068 58.23 86.3499 56.5386 86.6318 56.0452C86.9137 55.6223 88.7813 54.2128 90.7547 52.9442C94.6662 50.407 99.7053 47.0946 105.273 43.5002C109.678 40.6107 111.51 39.7649 113.307 39.7649C117.043 39.7649 119.545 43.8526 119.545 50.0194C119.545 52.4509 119.65 52.8385 120.32 53.2966C121.377 54.0366 122.822 54.0014 123.527 53.2261C124.408 52.2747 124.337 47.7289 123.386 44.3812C121.483 37.5801 116.549 33.9858 110.876 35.2192C108.339 35.7477 107.493 36.1706 103.687 38.6725C102.031 39.7649 100.41 40.7869 100.093 40.9983C99.7406 41.1745 97.6615 42.5488 95.4062 43.9936C87.4423 49.1737 85.5394 50.3365 84.9403 50.3365C84.5879 50.3365 83.8832 49.667 83.3193 48.7508C81.1698 45.2622 77.2583 42.0555 73.2411 40.3992C70.7039 39.3421 64.1495 39.2716 61.5771 40.2583C59.2513 41.1745 57.5951 42.2316 56.1503 43.7822C54.6703 45.2974 54.036 45.3679 52.5207 44.0641C50.6883 42.5136 48.7502 41.844 46.1778 41.8088C44.9092 41.8088 43.5701 41.985 43.1473 42.1964C42.0549 42.7955 41.4558 42.3726 40.1872 40.1526C38.7424 37.5801 36.029 34.7258 33.5271 33.1048C31.9061 32.0477 31.589 31.6953 31.9414 31.2724C32.2585 30.8496 36.5576 28.1362 36.91 28.1362C37.0157 28.1362 49.1026 21.0532 50.1245 20.3837C51.7455 19.3618 54.6351 18.1636 55.9389 18.0227C59.639 17.5998 62.1761 20.877 62.6695 26.6914C62.9161 29.6514 63.48 30.6029 64.9248 30.6029C66.8276 30.6029 67.2153 29.8981 67.1096 26.6562C66.9334 20.6656 64.3257 15.9084 60.1675 14.0759C58.9342 13.5121 57.7713 13.3359 55.7979 13.3359C53.4369 13.3712 52.8379 13.5121 50.4769 14.675ZM27.607 35.3249C30.8842 36.3116 33.1395 37.8973 35.1481 40.6107C40.6101 47.9403 38.0024 57.5957 29.8975 60.3443C25.3165 61.8596 20.1364 60.2386 16.2954 56.1157C14.4277 54.0718 13.9696 53.3318 13.0887 50.7594C11.1505 45.1565 13.3706 38.9897 18.2335 36.3116C20.9469 34.8315 24.6469 34.4439 27.607 35.3249ZM71.3382 44.6631C73.7697 45.5088 74.6154 45.9669 76.3773 47.5174C78.1745 49.068 79.725 51.147 80.606 53.1556C81.6631 55.4814 81.5926 61.1901 80.5355 63.3749C79.1964 66.194 76.3773 68.6607 73.523 69.5416C67.2857 71.4445 60.4847 68.1673 57.3837 61.7891C56.2208 59.3929 56.1151 58.9348 56.1151 55.9747C56.1151 53.2966 56.256 52.4509 56.9608 50.9356C59.5685 45.3679 65.6648 42.725 71.3382 44.6631Z" fill="black"/>
</svg>
