<svg width="132" height="88" viewBox="0 0 132 88" fill="none" xmlns="http://www.w3.org/2000/svg">
<path d="M66 77C84.2254 77 99 62.2254 99 44C99 25.7746 84.2254 11 66 11C47.7746 11 33 25.7746 33 44C33 62.2254 47.7746 77 66 77Z" fill="#1E00FE"/>
<path fill-rule="evenodd" clip-rule="evenodd" d="M63.9578 40.943C64.1016 39.4912 62.9368 37.7522 61.517 37.3056C60.2886 36.9227 59.6345 36.8748 58.5815 37.0983C57.3531 37.3695 56.3321 38.0873 55.8375 39.0285C55.4547 39.7465 55.4547 39.9061 55.4547 43.8147C55.4547 47.6754 55.4706 47.8829 55.8216 48.6007C56.0449 49.0315 56.5395 49.6058 57.034 49.9728L57.8796 50.5949H59.5866C61.2138 50.5949 61.3414 50.579 62.1391 50.0844C63.2719 49.3825 63.8622 48.3933 63.894 47.117L63.9101 46.1599H61.7403L61.6126 46.9096C61.4373 47.8988 60.8949 48.4412 59.9375 48.5529C58.9644 48.6486 58.1827 48.2657 57.8635 47.5C57.5285 46.7023 57.5285 41.1186 57.8476 40.3368C58.2147 39.4753 58.7251 39.1243 59.6186 39.1243C60.6714 39.1243 61.2458 39.5232 61.4852 40.4324C61.5967 40.8154 61.7085 41.2301 61.7403 41.3578C61.7882 41.5174 62.1073 41.5652 62.8571 41.5174L62.8615 41.5171C63.8942 41.4695 63.9101 41.4687 63.9578 40.943ZM51.6736 39.4434C51.3386 38.566 50.3335 37.6248 49.472 37.3854C49.1211 37.2897 47.6852 37.2098 46.2813 37.2098L43.7288 37.1939V50.5949H46.4409C48.4022 50.5949 48.9534 50.5949 49.4345 50.4112C49.6225 50.3393 49.7998 50.2393 50.0464 50.1004C50.5568 49.7972 51.1153 49.3027 51.3865 48.888L51.8492 48.2018L51.8969 44.1815C51.9448 40.7835 51.913 40.0497 51.6736 39.4434ZM85.0167 41.6451L83.2777 39.4274L81.5547 37.1939H79.2413V50.7784L81.4909 50.6827L81.5865 45.8248L81.6664 41.1345L82.9266 42.7299C84.2592 44.4089 84.7756 44.9749 84.9798 45.6371C85.1423 46.1641 85.1071 46.752 85.1282 48.0104L85.1762 50.6827L87.4416 50.7784V37.1939H85.1123L85.0167 41.6451ZM45.8985 43.9264C45.8985 41.4536 45.9463 39.3796 45.9942 39.3158C46.1537 39.1722 47.1907 39.1882 47.9884 39.3796C48.3553 39.4594 48.818 39.7306 49.0253 39.9699C49.3923 40.3847 49.4082 40.5123 49.4082 43.8626C49.4082 46.8937 49.3604 47.3882 49.1051 47.6914C48.6584 48.2657 48.1639 48.4253 46.9833 48.4253H45.8985V43.9264Z" fill="white"/>
<path d="M89.9543 50.6028H41.8781V51.7754H89.9543V50.6028Z" fill="#189FFB"/>
</svg>
