<svg width="132" height="88" viewBox="0 0 132 88" fill="none" xmlns="http://www.w3.org/2000/svg">
<path fill-rule="evenodd" clip-rule="evenodd" d="M15.9492 27.338V31.5745H19.908H23.8667V48.238V64.9016H28.9566H34.0464V55.1051C34.0464 49.7169 34.2121 42.229 34.4146 38.4648L34.7833 31.6209L38.7975 31.4565L42.8122 31.2921L42.9785 27.1968L43.1448 23.1016H29.547H15.9492V27.338ZM49.8814 23.4213C49.8814 23.7963 39.9212 62.1704 39.3715 63.913C39.0899 64.8067 39.5734 64.9016 44.4195 64.9016H49.7785L50.486 60.9475L51.1935 56.9935H55.051C59.3429 56.9935 59.0533 56.6929 59.9497 62.0772L60.3727 64.6191L65.8725 64.7807C70.0654 64.9038 71.369 64.77 71.3611 64.2158C71.3549 63.8165 68.9836 54.4657 66.0914 43.4367L60.8325 23.384L55.3569 23.2224C52.3455 23.1332 49.8814 23.223 49.8814 23.4213ZM72.5006 24.3725C75.2005 30.738 79.8549 43.0933 79.8549 43.8954C79.8549 44.4501 78.0734 49.3271 75.8961 54.734C73.7188 60.1409 71.9374 64.64 71.9374 64.7332C71.9374 64.8259 74.4749 64.9016 77.5769 64.9016H83.2164L84.0619 61.936C84.5268 60.3047 85.3966 57.1912 85.9943 55.0164C87.2645 50.4009 87.3403 50.4924 89.4599 59.158C90.1691 62.0575 91.0531 64.5457 91.4241 64.688C91.795 64.8304 94.3982 64.8728 97.2089 64.7829L102.319 64.6191L100.462 59.8178C99.4405 57.177 97.602 52.4502 96.3759 49.3136L94.1465 43.6112L98.2608 33.3561L102.375 23.1016H96.6151H90.8546L89.2326 29.3315C88.3408 32.7579 87.4461 35.663 87.2453 35.7873C87.044 35.9116 86.1368 33.1081 85.2292 29.5574L83.5789 23.1016H77.7703C71.9639 23.1016 71.9617 23.1021 72.5006 24.3725ZM105.87 44.0016V64.9016H110.959H116.049V44.0016V23.1016H110.959H105.87V44.0016ZM54.1987 41.1772C53.6564 44.1287 53.0818 46.9886 52.9223 47.532C52.6803 48.3589 53.0088 48.5205 54.9334 48.5205C57.6621 48.5205 57.6615 48.5239 56.1758 40.8948L55.1856 35.811L54.1987 41.1772Z" fill="url(#paint0_linear_2056_27615)"/>
<defs>
<linearGradient id="paint0_linear_2056_27615" x1="65.9992" y1="23.1016" x2="65.9992" y2="64.9016" gradientUnits="userSpaceOnUse">
<stop stop-color="#242021"/>
<stop offset="1" stop-color="#43413B"/>
</linearGradient>
</defs>
</svg>
