<svg width="132" height="88" viewBox="0 0 132 88" fill="none" xmlns="http://www.w3.org/2000/svg">
<path fill-rule="evenodd" clip-rule="evenodd" d="M67.5849 21.4696C66.6936 22.2672 66.0004 23.521 66.0004 25.4527V25.854L75.7105 22.3629C75.4847 22.0157 75.2245 21.7202 74.9445 21.47C74.005 20.6288 72.6784 20.1516 71.2643 20.1516C69.8514 20.1516 68.5248 20.6288 67.5849 21.4696ZM51.9536 30.9048L60.7365 27.7471V25.453C60.7365 22.0836 62.0171 19.3617 64.0864 17.5088C66.1087 15.6994 68.7295 14.8516 71.2652 14.8516C73.8 14.8516 76.4207 15.6995 78.4431 17.509C79.3851 18.3521 80.1634 19.3749 80.7322 20.5574L88.8036 17.6551L90.5746 22.6464L81.7939 25.8034V33.4017H102.849L102.85 33.4068V38.9514L81.7917 48.3739V62.5406V62.5511V73.1516H76.5278V62.5429C76.5256 60.6163 75.8337 59.365 74.9433 58.568C74.0038 57.7272 72.6759 57.2497 71.263 57.2497C69.8501 57.2497 68.5223 57.7272 67.5827 58.568C66.6924 59.3656 65.9991 60.6191 65.9991 62.5508V73.1516H60.7343V62.5514V62.5501V46.6518C60.7343 46.5696 60.7356 46.4878 60.7365 46.4066V33.3748L53.7237 35.8961L51.9536 30.9048ZM76.5291 33.4469V27.6962L66.0004 31.4821V36.2955C66.8835 35.717 67.813 35.2623 68.7389 34.9033C71.4104 33.8691 74.3033 33.5471 76.5291 33.4469ZM66.0004 46.6527H65.9991V53.2616C67.6357 52.3737 69.4712 51.95 71.263 51.95C73.0561 51.95 74.8916 52.374 76.5278 53.2619V44.9296L90.4458 38.7018H79.1606C77 38.7018 73.5294 38.7271 70.6284 39.8501C69.2224 40.3949 68.0961 41.146 67.3201 42.1505C66.5935 43.0912 66.036 44.43 66.0004 46.4476V46.6527ZM55.4729 41.9672V51.9506L55.4739 73.1503H50.2091V57.1205C49.7058 57.0671 49.0954 57.0639 48.4368 57.1391C46.736 57.3335 45.1836 57.985 44.2797 59.0101C42.0466 61.5424 38.4009 62.333 35.4529 61.782C33.9236 61.4963 32.3609 60.8153 31.1507 59.5915C29.8989 58.3247 29.1642 56.6076 29.17 54.5926L29.1504 41.3852V41.3485L34.4153 41.3457V41.3722C34.4222 43.1282 35.4011 44.7928 36.6275 45.561C37.2056 45.9221 37.7779 46.0526 38.3214 45.9879C38.8558 45.9237 39.5916 45.6431 40.4484 44.7789C43.1751 42.0295 45.7247 40.8088 48.217 40.6044C50.1687 40.4442 51.942 40.9734 53.0175 41.2948C53.2087 41.352 53.3782 41.4022 53.5221 41.4411L55.4729 41.9672ZM34.428 50.3943L34.4349 54.6062C34.4315 55.2403 34.633 55.6003 34.8829 55.8537C35.1777 56.1513 35.6855 56.4351 36.4144 56.5713C37.984 56.8645 39.6031 56.3302 40.3424 55.4916C42.4107 53.146 45.3886 52.1531 47.8425 51.8729C48.651 51.7809 49.45 51.7591 50.2091 51.8043V46.0239C49.6771 45.9007 49.2003 45.8413 48.644 45.8868C47.7124 45.9635 46.2683 46.411 44.1735 48.5234C42.6202 50.0897 40.834 51.0244 38.9421 51.2507C37.3035 51.4466 35.7592 51.0898 34.428 50.3943Z" fill="#10AB69"/>
</svg>
