<svg width="132" height="88" viewBox="0 0 132 88" fill="none" xmlns="http://www.w3.org/2000/svg">
<path d="M61.2947 13.7757C58.8362 15.2826 56.4834 16.763 56.0076 17.0802C55.5581 17.371 54.3685 18.1112 53.3904 18.7192C51.8307 19.6709 46.7815 22.8167 39.3002 27.5223L37.2911 28.7912V45.0227L37.2646 61.2542L50.3768 61.2278C57.5672 61.2014 63.621 61.1221 63.8325 61.0427C64.3348 60.8577 64.3083 59.9589 63.7532 59.7474C63.5152 59.6417 62.59 59.5623 61.6912 59.5623C60.0522 59.5623 60.0522 59.5623 60.0522 58.7429V57.9233L62.0613 57.844C63.8589 57.7911 64.0705 57.7119 64.0705 57.2096C64.0705 56.7337 63.8325 56.6545 62.1142 56.5222L60.1844 56.39V55.5441V54.7246L62.0613 54.6453C63.4624 54.566 63.9911 54.4338 64.1233 54.1166C64.3612 53.4557 63.7003 53.1914 61.7705 53.1914H60.0522V52.3454V51.5259H61.7969C63.0659 51.5259 63.6739 51.3938 63.9382 51.1029C64.6784 50.2041 63.8325 50.0983 56.1133 50.0455L48.5262 49.9927V42.67V35.3737L53.7869 32.0428C56.6949 30.2187 59.4971 28.474 60.0522 28.1832C60.5809 27.8924 61.6912 27.2051 62.5371 26.6763C63.3831 26.1477 64.5462 25.4603 65.1279 25.1431L66.1853 24.5615L69.4368 26.5706C79.2445 32.6243 82.972 35.0036 83.2892 35.4001C83.5535 35.7174 83.6329 39.0747 83.5535 50.8121L83.5006 65.8276L60.4487 65.9598C37.6612 66.092 37.4233 66.092 37.4233 66.6471C37.4233 67.1494 37.6612 67.2287 39.3531 67.3344C41.2829 67.4931 41.3093 67.4931 41.3093 68.3125C41.3093 69.1056 41.3093 69.1321 39.776 69.0528C38.0842 68.9734 37.0796 69.4493 37.3704 70.216C37.5026 70.5861 37.9255 70.6917 39.4852 70.6917L41.4415 70.6654V71.5113V72.3308L39.4324 72.4101C37.6347 72.4629 37.4233 72.5423 37.4233 73.0446C37.4233 73.5204 37.6612 73.5997 39.3531 73.7319C41.23 73.864 41.3093 73.8905 41.3886 74.6307L41.4679 75.3973H39.5381C37.7934 75.3973 37.5819 75.4502 37.3968 75.9789C37.3175 76.2961 37.344 76.6662 37.4761 76.8249C37.6083 76.957 49.5043 77.0363 66.2382 76.9834L94.7358 76.9306V52.927C94.7358 39.7356 94.6565 28.8441 94.5243 28.7383C94.3128 28.5004 78.2399 18.402 72.5299 14.886C70.6265 13.6964 68.4852 12.3482 67.7714 11.8724C67.0576 11.3965 66.3174 11 66.106 11C65.8945 11 63.7268 12.2425 61.2947 13.7757Z" fill="#EE4955"/>
</svg>
