<svg width="132" height="88" viewBox="0 0 132 88" fill="none" xmlns="http://www.w3.org/2000/svg">
<path fill-rule="evenodd" clip-rule="evenodd" d="M28.3242 28.2315C28.3242 16.1368 38.131 6.33203 50.2282 6.33203H81.77C93.8673 6.33203 103.674 16.1368 103.674 28.2315V59.7668C103.674 71.8616 93.8673 81.6662 81.77 81.6662H50.2282C38.131 81.6662 28.3242 71.8616 28.3242 59.7668V28.2315ZM90.6893 51.8933C91.9686 49.3 90.2228 46.1473 87.5109 46.1544L73.4965 46.1912C70.673 46.1985 69.06 49.5351 70.4682 52.0732L77.8771 65.4254C79.2839 67.9609 82.7524 67.9801 84.0836 65.2824L90.6893 51.8933ZM86.6257 50.6363L80.9141 62.2127L74.5085 50.6681L86.6257 50.6363ZM48.2422 46.5465C46.1333 46.5465 44.4713 48.2698 44.4713 50.3365V63.527C44.4713 65.5933 46.1331 67.317 48.2422 67.317H61.4751C63.5842 67.317 65.246 65.5935 65.246 63.527V50.3365C65.246 48.2698 63.584 46.5465 61.4751 46.5465H48.2422ZM48.9033 62.8858V50.9777H60.8141V62.8858H48.9033ZM60.8492 31.2626C60.8492 34.4623 58.2549 37.056 55.0546 37.056C51.8545 37.056 49.2602 34.4623 49.2602 31.2626C49.2602 28.0631 51.8545 25.4693 55.0546 25.4693C58.2549 25.4693 60.8492 28.0631 60.8492 31.2626ZM55.0546 20.6814C60.8997 20.6814 65.638 25.4188 65.638 31.2626C65.638 37.1067 60.8997 41.8439 55.0546 41.8439C49.2096 41.8439 44.4713 37.1067 44.4713 31.2626C44.4713 25.4188 49.2096 20.6814 55.0546 20.6814ZM75.3226 23.9686C74.4152 23.2037 74.4333 21.9785 75.3626 21.2319C76.2919 20.4853 77.7811 20.5 78.6887 21.2649L81.0608 23.2648C83.254 25.1134 83.2341 28.0655 81.0341 29.8986C80.632 30.2337 80.6348 30.7713 81.0307 31.1012C83.2389 32.9412 83.2389 35.9002 81.0307 37.7404C80.6318 38.0728 80.6318 38.6077 81.0307 38.9403L83.3825 40.9001C84.2954 41.6606 84.2858 42.8858 83.3615 43.6368C82.4375 44.3879 80.9485 44.3801 80.0356 43.6197L77.6838 41.6599C75.4756 39.8199 75.4756 36.8608 77.6838 35.0206C78.0832 34.6883 78.0832 34.1534 77.6838 33.821C75.4726 31.9783 75.4822 29.0164 77.6872 27.1789C78.0916 26.8421 78.0909 26.3021 77.6948 25.9685L75.3226 23.9686Z" fill="url(#paint0_linear_2056_27600)"/>
<defs>
<linearGradient id="paint0_linear_2056_27600" x1="65.9991" y1="6.33203" x2="65.9991" y2="81.6662" gradientUnits="userSpaceOnUse">
<stop stop-color="#2E2E36"/>
<stop offset="1" stop-color="#16161A"/>
</linearGradient>
</defs>
</svg>
