<svg width="132" height="88" viewBox="0 0 132 88" fill="none" xmlns="http://www.w3.org/2000/svg">
<mask id="mask0_2056_26259" style="mask-type:luminance" maskUnits="userSpaceOnUse" x="34" y="12" width="64" height="64">
<path d="M34.0156 12.0156H97.9852V75.9852H34.0156V12.0156Z" fill="white"/>
</mask>
<g mask="url(#mask0_2056_26259)">
<path fill-rule="evenodd" clip-rule="evenodd" d="M37.6185 67.8196V75.326H33.9902V55.9926H41.3298C45.069 55.9926 47.1469 58.2916 47.1469 61.9755C47.1469 64.8009 45.7617 66.878 43.3518 67.4046L47.4788 75.326H43.4907L39.8065 67.8196H37.6185ZM37.6185 64.9948H40.5821C42.5212 64.9948 43.3238 64.2193 43.3238 62.5016V61.4492C43.3238 59.7321 42.5212 58.9563 40.5821 58.9563H37.6185V64.9948ZM62.9066 75.326H50.6924V55.9926H62.9066V58.9841H54.3205V64.0254H62.6016V67.0168H54.3205V72.3345H62.9066V75.326ZM70.8557 75.326H67.2274V55.9926H74.5679C78.3071 55.9926 80.3842 58.2916 80.3842 61.9755C80.3842 65.6317 78.3071 67.9584 74.5679 67.9584H70.8557V75.326ZM70.8557 58.9563V64.9948H73.8202C75.7584 64.9948 76.562 64.2193 76.562 62.5016V61.4492C76.562 59.7321 75.7584 58.9563 73.8202 58.9563H70.8557ZM89.9407 75.6587C84.8991 75.6587 82.6282 71.9745 82.6282 65.6594C82.6282 59.3441 84.8991 55.6602 89.9407 55.6602C94.9815 55.6602 97.2521 59.3441 97.2521 65.6594C97.2521 71.9745 94.9815 75.6587 89.9407 75.6587ZM89.9407 72.6953C92.5164 72.6953 93.4021 70.6452 93.4021 67.2938V63.9973C93.4021 60.6737 92.5164 58.6241 89.9407 58.6241C87.364 58.6241 86.4785 60.6737 86.4785 63.9973V67.3218C86.4785 70.6452 87.364 72.6953 89.9407 72.6953Z" fill="white"/>
<path fill-rule="evenodd" clip-rule="evenodd" d="M34.0156 12.0156H97.3257V33.119H34.0156V12.0156Z" fill="#73FFE1"/>
<path fill-rule="evenodd" clip-rule="evenodd" d="M37.5918 28.5032V17.4555H41.6119C44.4927 17.4555 46.3767 19.3074 46.3767 22.9792C46.3767 26.6513 44.4927 28.5032 41.6119 28.5032H37.5918ZM39.6808 26.6513H41.6119C43.1632 26.6513 44.1607 25.7334 44.1607 23.8499V22.1089C44.1607 20.2253 43.1632 19.3074 41.6119 19.3074H39.6808V26.6513ZM55.7781 28.5032H48.4975V17.4555H55.7781V19.3074H50.5867V21.903H55.1764V23.7547H50.5867V26.6513H55.7781V28.5032ZM61.4286 28.6932C59.5445 28.6932 58.2471 27.949 57.3134 26.857L58.7217 25.496C59.4815 26.3821 60.4149 26.857 61.5545 26.857C62.8368 26.857 63.5015 26.2399 63.5015 25.306C63.5015 24.5621 63.1536 24.1032 61.9983 23.8972L60.9536 23.7391C58.7217 23.3909 57.6454 22.3305 57.6454 20.5261C57.6454 18.5476 59.1807 17.2656 61.6494 17.2656C63.3117 17.2656 64.5459 17.8354 65.4325 18.8959L64.0083 20.2411C63.4696 19.5606 62.7098 19.1016 61.5394 19.1016C60.3519 19.1016 59.7343 19.5765 59.7343 20.3994C59.7343 21.2384 60.2092 21.5865 61.2696 21.7764L62.2992 21.9664C64.53 22.3621 65.5756 23.359 65.5756 25.1795C65.5756 27.2687 64.0713 28.6932 61.4286 28.6932ZM72.2223 28.5032H67.2057V26.8254H68.6611V19.1333H67.2057V17.4555H72.2223V19.1333H70.751V26.8254H72.2223V28.5032ZM81.4032 28.5032V26.7938H81.3391C81.1491 27.8701 80.1046 28.6932 78.4425 28.6932C75.8468 28.6932 73.8847 26.7146 73.8847 23.0111C73.8847 19.3074 75.8627 17.2656 78.8072 17.2656C80.7693 17.2656 82.1938 18.1678 82.9853 19.7822L81.2921 20.7793C80.8964 19.8296 80.1206 19.1174 78.8072 19.1174C77.177 19.1174 76.1006 20.1462 76.1006 22.0929V23.8658C76.1006 25.7966 77.177 26.8413 78.8382 26.8413C80.1365 26.8413 81.1972 26.2083 81.1972 24.9579V24.2456H79.0283V22.4886H83.2072V28.5032H81.4032ZM92.118 28.5032L88.7946 22.8368L87.6542 20.5419H87.6072V28.5032H85.6291V17.4555H87.924L91.2473 23.1217L92.387 25.4168H92.4348V17.4555H94.4129V28.5032H92.118Z" fill="black"/>
<path fill-rule="evenodd" clip-rule="evenodd" d="M34.0156 33.1172H97.3257V54.2204H34.0156V33.1172Z" fill="#B973FF"/>
<path fill-rule="evenodd" clip-rule="evenodd" d="M40.1892 49.1047C38.6189 49.1047 37.5374 48.4849 36.7598 47.5749L37.9332 46.4405C38.5659 47.1792 39.3445 47.5749 40.2941 47.5749C41.3626 47.5749 41.9163 47.0604 41.9163 46.2821C41.9163 45.6623 41.6265 45.2798 40.6639 45.1084L39.7933 44.9764C37.9332 44.6863 37.0366 43.8027 37.0366 42.299C37.0366 40.6504 38.316 39.582 40.3731 39.582C41.7584 39.582 42.7869 40.0567 43.5256 40.9405L42.3381 42.0614C41.8904 41.4944 41.2566 41.1119 40.2811 41.1119C39.2916 41.1119 38.7778 41.5076 38.7778 42.1934C38.7778 42.8925 39.1726 43.1826 40.0572 43.341L40.9138 43.4991C42.7739 43.8291 43.6445 44.6599 43.6445 46.1768C43.6445 47.9178 42.3911 49.1047 40.1892 49.1047ZM49.3418 48.9466H47.5876V45.3326L44.4361 39.7402H46.3883L48.5113 43.6311H48.5382L50.6082 39.7402H52.5084L49.3418 45.3194V48.9466ZM56.5834 49.1047C55.0142 49.1047 53.9326 48.4849 53.1541 47.5749L54.3284 46.4405C54.9611 47.1792 55.7388 47.5749 56.6892 47.5749C57.7568 47.5749 58.3115 47.0604 58.3115 46.2821C58.3115 45.6623 58.0208 45.2798 57.0583 45.1084L56.1876 44.9764C54.3284 44.6863 53.4308 43.8027 53.4308 42.299C53.4308 40.6504 54.7103 39.582 56.7682 39.582C58.1525 39.582 59.1821 40.0567 59.9208 40.9405L58.7333 42.0614C58.2845 41.4944 57.6517 41.1119 56.6752 41.1119C55.6869 41.1119 55.1721 41.5076 55.1721 42.1934C55.1721 42.8925 55.5678 43.1826 56.4514 43.341L57.3091 43.4991C59.1681 43.8291 60.0387 44.6599 60.0387 46.1768C60.0387 47.9178 58.7864 49.1047 56.5834 49.1047ZM68.006 41.2835H65.3941V48.9466H63.6531V41.2835H61.0414V39.7402H68.006V41.2835ZM75.4973 48.9466H69.4303V39.7402H75.4973V41.2835H71.1716V43.4466H74.9957V44.9896H71.1716V47.4033H75.4973V48.9466ZM84.3083 48.9466V42.4044H84.2552L83.5565 43.8027L81.6436 47.2848L79.7573 43.8159L79.0316 42.3386H78.9928V48.9466H77.3437V39.7402H79.2698L81.6306 44.2378H81.6705L84.0174 39.7402H85.9564V48.9466H84.3083ZM90.982 49.1047C89.4129 49.1047 88.3313 48.4849 87.5528 47.5749L88.7262 46.4405C89.3598 47.1792 90.1375 47.5749 91.0871 47.5749C92.1554 47.5749 92.7104 47.0604 92.7104 46.2821C92.7104 45.6623 92.4194 45.2798 91.4569 45.1084L90.5863 44.9764C88.7262 44.6863 87.8297 43.8027 87.8297 42.299C87.8297 40.6504 89.109 39.582 91.1671 39.582C92.5514 39.582 93.5799 40.0567 94.3186 40.9405L93.132 42.0614C92.6832 41.4944 92.0507 41.1119 91.0741 41.1119C90.0855 41.1119 89.5707 41.5076 89.5707 42.1934C89.5707 42.8925 89.9664 43.1826 90.85 43.341L91.7077 43.4991C93.5667 43.8291 94.4374 44.6599 94.4374 46.1768C94.4374 47.9178 93.185 49.1047 90.982 49.1047Z" fill="black"/>
</g>
</svg>
