<svg width="132" height="88" viewBox="0 0 132 88" fill="none" xmlns="http://www.w3.org/2000/svg">
<path d="M64.0475 15.0117C64.0475 20.8212 63.857 20.0117 61.4761 20.0117C59.9523 20.0117 58.9999 20.5831 58.9999 21.5355C58.9999 22.7736 60.4285 23.0593 66.0475 23.0593C71.5713 23.0593 72.9999 22.7736 72.9999 21.5355C72.9999 20.5831 72.0475 20.0117 70.5237 20.0117C68.1427 20.0117 68.0475 20.8212 68.0475 15.0117C68.0475 11.6784 67.7618 11.0117 66.0475 11.0117C64.238 11.0117 64.0475 11.6784 64.0475 15.0117Z" fill="black"/>
<path d="M60.0474 26.5831C60.0474 27.345 60.9045 28.0117 62.0474 28.0117C64.5235 28.0117 64.5235 29.7259 61.8569 38.6783C60.3331 43.8212 59.1902 46.0116 57.8569 46.3926C56.8093 46.6783 56.0474 47.345 56.0474 48.0116C56.0474 49.6307 58.9997 50.4878 60.2378 49.1545C61.7616 47.7259 70.2378 47.7259 71.7616 49.1545C72.9997 50.4878 76.0473 49.6307 76.0473 48.0116C76.0473 47.345 75.1902 46.6783 74.1426 46.3926C72.8093 46.0116 71.6664 43.8212 70.1426 38.6783C67.4759 29.7259 67.4759 28.0117 70.0474 28.0117C71.095 28.0117 72.0473 27.345 72.0473 26.5831C72.0473 25.345 70.714 25.0593 66.0474 25.0593C61.3807 25.0593 60.0474 25.345 60.0474 26.5831ZM68.5235 39.1545C70.1426 44.3926 70.1426 45.345 68.9045 46.1069C67.095 47.2497 64.9045 47.2497 63.095 46.1069C61.8569 45.345 61.8569 44.3926 63.4759 39.1545C64.5235 35.8212 65.6664 33.0593 66.0474 33.0593C66.3331 33.0593 67.4759 35.8212 68.5235 39.1545Z" fill="black"/>
<path d="M55 27.6307C55 28.4878 52.7143 31.345 49.8571 33.9164C43.7619 39.345 41.0952 44.7735 41 51.4402C41 58.2973 42.8095 63.4402 46.8095 68.2021C56.8095 79.9163 75.1904 79.9163 85.1904 68.2021C89.1904 63.4402 91 58.2973 91 51.4402C90.9047 44.7735 88.238 39.345 82.1428 33.9164C79.2857 31.345 77 28.4878 77 27.6307C77 26.7735 76.3333 26.0116 75.4762 26.0116C74.4285 26.0116 74.0476 27.1545 74.0476 29.5354C74.0476 32.2973 74.5238 33.2497 76.7143 34.3926C83.7619 38.1069 87.3809 45.0592 86.8095 53.7259C86.0476 65.2497 77.6666 73.0592 65.9524 73.0592C54.3333 73.0592 45.9524 65.2497 45.1905 53.7259C44.619 45.0592 48.2381 38.1069 55.2857 34.3926C57.4762 33.2497 58.0476 32.2973 58.0476 29.5354C58.0476 27.1545 57.5714 26.0116 56.5238 26.0116C55.6667 26.0116 55 26.7735 55 27.6307Z" fill="black"/>
</svg>
