<svg width="132" height="88" viewBox="0 0 132 88" fill="none" xmlns="http://www.w3.org/2000/svg">
<path d="M66 77C84.2254 77 99 62.2254 99 44C99 25.7746 84.2254 11 66 11C47.7746 11 33 25.7746 33 44C33 62.2254 47.7746 77 66 77Z" fill="#C637A0"/>
<path d="M52.6441 43.1257C52.3458 40.8551 58.4448 30.0396 61.5317 24.9156C55.4326 32.8046 52.0295 41.3648 51.0904 44.6588L61.5524 43.2293L55.4202 55.4315L62.2567 53.5672C59.0415 61.1743 57.63 69.443 57.3261 72.6265C58.9006 63.7264 62.5675 55.0657 64.2041 51.8476L57.7405 53.3807L63.7483 41.5098L52.6441 43.1257Z" fill="#FF717C"/>
<path d="M60.9868 38.3546C60.6885 36.0841 66.7875 25.2685 69.8743 20.1446C63.7752 28.0335 60.3722 36.5937 59.433 39.8877L69.895 38.4582L63.7628 50.6604L70.5994 48.7961C67.3841 56.4032 65.9726 64.6719 65.6688 67.8554C67.2433 58.9553 70.9102 50.2946 72.5467 47.0764L66.0831 48.6095L72.0911 36.7387L60.9868 38.3546Z" fill="#1E0253"/>
<path d="M69.3294 33.5836C69.0311 31.313 75.1303 20.4974 78.2172 15.3735C72.1181 23.2624 68.7148 31.8226 67.7757 35.1166L78.2378 33.6872L72.1054 45.8894L78.942 44.0248C75.7267 51.6321 74.3152 59.9008 74.0114 63.0843C75.5859 54.1843 79.2529 45.5233 80.8894 42.3053L74.4257 43.8384L80.4337 31.9677L69.3294 33.5836Z" fill="#7338D2"/>
</svg>
