<svg width="132" height="88" viewBox="0 0 132 88" fill="none" xmlns="http://www.w3.org/2000/svg">
<path d="M66 77C84.2254 77 99 62.2254 99 44C99 25.7746 84.2254 11 66 11C47.7746 11 33 25.7746 33 44C33 62.2254 47.7746 77 66 77Z" fill="black"/>
<path d="M54.2142 60.4979V27.5021H65.2402C70.1619 27.4355 74.2846 28.9353 77.6084 32.0016C80.9322 35.0679 82.5622 39.034 82.498 43.9001C82.5622 48.7327 80.9162 52.7323 77.5605 55.8984C74.2367 59.0315 70.1299 60.5646 65.2402 60.4979H54.2142ZM62.4597 52.749H65.1921C67.8128 52.749 69.9382 51.949 71.568 50.3492C73.23 48.7494 74.0609 46.5997 74.0609 43.9001C74.0609 41.167 73.246 39.0507 71.6161 37.5509C70.0181 36.051 67.8767 35.3012 65.1921 35.3012H62.4597V52.749Z" fill="white"/>
</svg>
