<svg width="132" height="88" viewBox="0 0 132 88" fill="none" xmlns="http://www.w3.org/2000/svg">
<path d="M93.8794 60.0784L83.9853 54.369V38.2852C83.9853 35.4109 82.4361 32.7353 79.9449 31.2997L66.0025 23.257L65.9996 11.847L92.5396 27.1478C93.3684 27.6235 93.8794 28.5139 93.8794 29.4681V60.0784ZM78.5901 68.8654L68.6957 63.0674L68.6986 47.1023C68.6957 44.228 67.1495 41.5496 64.6581 40.1139L50.7131 32.0712V20.6568L77.2484 35.9649C78.0791 36.4406 78.5901 37.3281 78.5901 38.2852V68.8654ZM39.4612 60.8501C38.6351 60.3717 38.1226 59.4839 38.1197 58.5298L38.1226 31.0314L61.962 44.7791C62.7896 45.2577 63.3035 46.1452 63.3006 47.1023L63.3035 74.598L39.4612 60.8501ZM99.2718 29.471C99.2718 26.5939 97.7253 23.9168 95.2341 22.4811L70.0401 7.95176C67.5458 6.51608 64.4534 6.51608 61.962 7.95176L36.7651 22.4811C34.2737 23.9168 32.7275 26.5967 32.7246 29.4681L32.7275 58.527C32.7275 61.4056 34.2781 64.0809 36.7651 65.5167L61.962 80.0461C63.2077 80.7626 64.6029 81.1222 65.9996 81.125C67.3978 81.1222 68.7944 80.7626 70.0372 80.0461L95.2341 65.5125C97.7253 64.0809 99.2718 61.401 99.2746 58.527L99.2718 29.471Z" fill="black"/>
</svg>
