<svg width="132" height="88" viewBox="0 0 132 88" fill="none" xmlns="http://www.w3.org/2000/svg">
<path d="M93.9534 11.9805H38.0479C35.8409 11.9805 34.0508 13.7701 34.0508 15.9778V71.8822C34.0508 74.0899 35.8409 75.8802 38.0479 75.8802H93.9534C96.1602 75.8802 97.9505 74.0899 97.9505 71.8822V15.9778C97.9505 13.7701 96.1602 11.9805 93.9534 11.9805Z" fill="url(#paint0_linear_2056_26637)"/>
<path d="M47.4023 62.668H79.4302V76.0057H47.4023V62.668Z" fill="white"/>
<path d="M74.7676 65.3438H82.06V76.0047H74.7676V65.3438Z" fill="white"/>
<path d="M77.4434 68.0234H84.735V76.0075H77.4434V68.0234Z" fill="white"/>
<path d="M52.291 41.3477H60.7371V65.3453H52.291V41.3477Z" fill="white"/>
<path d="M68.7363 38.6719H76.7526V46.6559L68.7363 46.5776V38.6719Z" fill="white"/>
<path d="M63.416 46.6523H71.8618V52.006H63.416V46.6523Z" fill="white"/>
<path d="M66.0449 43.9766H74.4899V49.33H66.0449V43.9766Z" fill="white"/>
<path d="M50.0762 60.0391H58.5222V73.3768H50.0762V60.0391Z" fill="white"/>
<path d="M50.0762 41.3008H58.5222V49.3308H50.0762V41.3008Z" fill="white"/>
<path d="M60.7363 48.7773H68.7207V64.7449H60.7363V48.7773Z" fill="white"/>
<path d="M60.7363 59.4375H74.0741V68.529H60.7363V59.4375Z" fill="white"/>
<path d="M87.4126 68.0195H84.752V76.0218H87.4126V68.0195Z" fill="black"/>
<path d="M84.751 65.3555H82.0723V68.0172H84.751V65.3555Z" fill="black"/>
<path d="M82.0699 68.0195H79.4082V70.6813H82.0699V68.0195Z" fill="black"/>
<path d="M82.0699 62.6797H79.4082V65.3587H82.0699V62.6797Z" fill="black"/>
<path d="M79.4123 70.6797H76.7324V73.3582H79.4123V70.6797Z" fill="black"/>
<path d="M79.4108 60.0156H74.0703V62.6771H79.4108V60.0156Z" fill="black"/>
<path d="M79.4123 38.6719H76.7324V46.6738H79.4123V38.6719Z" fill="black"/>
<path d="M76.732 73.3594H74.0703V76.0211H76.732V73.3594Z" fill="black"/>
<path d="M76.732 46.6719H74.0703V49.3333H76.732V46.6719Z" fill="black"/>
<path d="M76.7336 35.9922H71.4102V38.6715H76.7336V35.9922Z" fill="black"/>
<path d="M74.0719 62.6797H71.4102V65.3587H74.0719V62.6797Z" fill="black"/>
<path d="M74.071 57.3398H68.7305V60.0189H74.071V57.3398Z" fill="black"/>
<path d="M74.0719 49.3359H71.4102V52.015H74.0719V49.3359Z" fill="black"/>
<path d="M71.4101 65.3555H68.7305V68.0172H71.4101V65.3555Z" fill="black"/>
<path d="M71.4101 52.0156H68.7305V54.6771H71.4101V52.0156Z" fill="black"/>
<path d="M71.4101 38.6719H68.7305V41.3333H71.4101V38.6719Z" fill="black"/>
<path d="M68.7301 68.0195H66.0684V70.6813H68.7301V68.0195Z" fill="black"/>
<path d="M68.7301 54.6758H66.0684V57.3375H68.7301V54.6758Z" fill="black"/>
<path d="M68.7301 41.332H66.0684V43.9935H68.7301V41.332Z" fill="black"/>
<path d="M66.0699 57.3398H63.4082V60.0189H66.0699V57.3398Z" fill="black"/>
<path d="M66.0699 43.9961H63.4082V46.6751H66.0699V43.9961Z" fill="black"/>
<path d="M63.4092 60.0156H60.7305V62.6771H63.4092V60.0156Z" fill="black"/>
<path d="M63.4092 46.6719H60.7305V49.3333H63.4092V46.6719Z" fill="black"/>
<path d="M60.7281 49.3359H58.0664V52.015H60.7281V49.3359Z" fill="black"/>
<path d="M60.7281 41.332H58.0664V46.6725H60.7281V41.332Z" fill="black"/>
<path d="M58.0674 52.0156H55.3887V54.6771H58.0674V52.0156Z" fill="black"/>
<path d="M58.0656 38.6719H50.0645V41.3333H58.0656V38.6719Z" fill="black"/>
<path d="M52.7251 49.3359H50.0645V60.0172H52.7251V57.3382H55.3868V54.6767H52.7251V49.3359Z" fill="black"/>
<path d="M50.0674 60.0156H47.3887V62.6771H50.0674V60.0156Z" fill="black"/>
<path d="M50.0674 41.332H47.3887V49.334H50.0674V41.332Z" fill="black"/>
<path d="M47.3863 62.6797H44.7246V76.0227H47.3863V62.6797Z" fill="black"/>
<path d="M58.0643 27.9883H55.3965V30.6563H58.0643V27.9883Z" fill="black"/>
<path d="M60.7303 30.6562H58.0625V33.3243H60.7303V30.6562Z" fill="black"/>
<path d="M63.4002 33.3242H60.7324V35.9923H63.4002V33.3242Z" fill="black"/>
<path d="M68.7372 33.3242H66.0684V35.9923H68.7372V33.3242Z" fill="black"/>
<path d="M71.4033 30.6562H68.7344V33.3243H71.4033V30.6562Z" fill="black"/>
<path d="M74.0732 27.9883H71.4043V30.6563H74.0732V27.9883Z" fill="black"/>
<path d="M66.069 27.9883H63.4004V30.6563H66.069V27.9883Z" fill="black"/>
<path d="M66.069 25.3203H63.4004V27.9884H66.069V25.3203Z" fill="black"/>
<path d="M66.069 19.9844H63.4004V22.6524H66.069V19.9844Z" fill="black"/>
<defs>
<linearGradient id="paint0_linear_2056_26637" x1="34.0508" y1="11.9805" x2="106.301" y2="23.4987" gradientUnits="userSpaceOnUse">
<stop stop-color="#FF4593"/>
<stop offset="0.286458" stop-color="#FFE713"/>
<stop offset="0.692708" stop-color="#17D7FF"/>
<stop offset="1" stop-color="#077BFF"/>
</linearGradient>
</defs>
</svg>
