<svg width="132" height="88" viewBox="0 0 132 88" fill="none" xmlns="http://www.w3.org/2000/svg">
<circle cx="66.0004" cy="43.9984" r="36.85" fill="#FFFB06"/>
<path fill-rule="evenodd" clip-rule="evenodd" d="M60.4258 23.0527C60.3149 23.1633 60.2243 26.0584 60.2243 29.4863C60.2243 33.9307 60.1204 35.8224 59.8619 36.081C59.6402 36.3027 58.5579 36.4434 57.0752 36.4434H54.6506L52.4538 38.6258L50.2567 40.8081V46.7207C50.2567 50.9167 50.3618 52.7384 50.6192 52.9957C50.8185 53.1951 51.6854 53.3582 52.5456 53.3582C53.4506 53.3582 54.245 53.5216 54.4313 53.7463C54.6086 53.9596 54.795 54.9452 54.846 55.9362L54.9385 57.7379L59.8323 57.821C64.6309 57.9022 64.733 57.8908 65.0876 57.2278C65.364 56.7116 65.3978 52.6212 65.2311 39.9385C65.1109 30.8012 64.9466 23.2188 64.8659 23.0883C64.6883 22.8008 60.7094 22.7688 60.4258 23.0527ZM67.1252 23.1403C67.0675 23.3128 67.0884 31.1676 67.1715 40.5957L67.3225 57.7379L72.1323 57.8213C75.2694 57.8757 77.0551 57.792 77.2671 57.5799C77.446 57.4014 77.6601 56.4122 77.7432 55.3822L77.8942 53.5092L79.5464 53.4156C80.455 53.3642 81.3726 53.1776 81.5852 53.0012C81.8755 52.7601 81.9719 51.1886 81.9719 46.6862V40.6921L79.782 38.5744L77.5921 36.4567L75.1371 36.4501C73.4725 36.4456 72.5751 36.3145 72.3495 36.0426C72.1368 35.7862 71.9873 33.3619 71.9351 29.322L71.8532 23.0023L69.5416 22.9147C68.1356 22.8612 67.189 22.9497 67.1252 23.1403ZM55.8951 41.4777C55.7842 41.5883 55.6936 43.9729 55.6936 46.7766V51.8745L57.8834 51.7857L60.0733 51.6969L60.1567 46.9046C60.2138 43.6271 60.1304 41.98 59.8933 41.6943C59.535 41.2629 56.2856 41.0868 55.8951 41.4777ZM72.3791 41.6263C71.8611 42.1443 71.8499 50.9687 72.3667 51.4855C72.8506 51.9694 76.0707 51.9576 76.4625 51.4704C76.6561 51.23 76.6969 49.3394 76.5751 46.26L76.384 41.4273L74.5689 41.3394C73.4178 41.2835 72.6171 41.3883 72.3791 41.6263ZM79.4639 54.7588C79.0103 55.2122 79.2465 58.4175 79.782 59.0763C80.2716 59.6783 80.5447 59.7197 83.4821 59.6381L86.6536 59.5502V57.1338V54.7174L83.1641 54.6329C81.2445 54.5863 79.5796 54.6428 79.4639 54.7588ZM45.5544 55.2663C45.4662 55.4958 45.4348 56.6215 45.4846 57.7678L45.5749 59.8523L48.5556 59.9393C52.6471 60.0583 53.0343 59.8009 52.9129 57.0426L52.8241 55.0195L49.2693 54.9343C46.4651 54.8672 45.6807 54.9373 45.5544 55.2663ZM53.7867 60.5485C53.1274 61.2365 52.9751 61.6784 52.9751 62.9045C52.9751 63.7342 53.1382 64.5763 53.3376 64.7757C53.5928 65.0309 55.3178 65.1381 59.1671 65.1381C63.0165 65.1381 64.7415 65.0309 64.9967 64.7757C65.2072 64.5651 65.3592 63.5563 65.3592 62.3698C65.3592 60.6587 65.264 60.2757 64.775 60.0139C64.4424 59.836 62.123 59.7012 59.3946 59.7012H54.5984L53.7867 60.5485ZM67.5354 59.9586C67.256 60.1359 67.1696 60.8889 67.2334 62.597L67.3225 64.9871L72.8711 65.0696C76.7077 65.1266 78.5481 65.0454 78.8366 64.8062C79.1018 64.586 79.2534 63.8336 79.2534 62.7374C79.2534 61.3272 79.1266 60.8955 78.5545 60.3579C77.8948 59.7384 77.5755 59.7015 72.8911 59.7058C70.1605 59.7085 67.7505 59.8221 67.5354 59.9586Z" fill="black"/>
</svg>
