<svg width="132" height="88" viewBox="0 0 132 88" fill="none" xmlns="http://www.w3.org/2000/svg">
<path fill-rule="evenodd" clip-rule="evenodd" d="M25.5742 44V77H48.288C70.8407 77 72.9389 76.9577 77.2057 76.4188C92.7703 74.4525 102.208 67.0717 105.362 54.3995C106.293 50.6562 106.426 49.3558 106.424 44C106.423 38.8699 106.353 38.0819 105.594 34.6531C104.747 30.8198 103.202 27.1261 101.238 24.2354C99.0689 21.0426 95.0587 17.5792 91.4232 15.7589C87.1309 13.6095 82.033 12.2022 75.9744 11.4939C72.5467 11.0932 67.4233 11.0061 47.1215 11.0031L25.5742 11V44ZM43.4688 44.011V62.6099L57.1359 62.5437C68.673 62.4879 71.059 62.4364 72.4448 62.2142C82.1431 60.6585 86.5742 56.8952 88.0716 48.9425C88.2793 47.8401 88.3566 46.5437 88.362 44.0819C88.3694 40.6523 88.236 39.3967 87.6162 37.0698C85.9054 30.6447 81.2051 27.1657 72.5298 25.9034C70.0865 25.5478 65.3469 25.4196 54.5092 25.4158L43.4688 25.4119V44.011Z" fill="#5122FF"/>
</svg>
