<svg width="132" height="88" viewBox="0 0 132 88" fill="none" xmlns="http://www.w3.org/2000/svg">
<path fill-rule="evenodd" clip-rule="evenodd" d="M85.0854 30.9323C85.0854 31.0275 84.3833 32.2341 83.5215 33.5994C82.6918 34.9647 82.0534 36.1394 82.1172 36.2029C82.2768 36.3299 98.4581 29.2812 98.4581 29.059C98.49 28.8367 82.2768 21.7564 82.1172 21.9151C82.0534 21.9787 82.6918 23.1216 83.5535 24.4869C84.305 25.7233 84.9517 26.8295 85.0671 27.1216C74.7262 27.0758 69.0652 26.985 69.0652 26.8406C69.0652 26.6818 69.4163 25.4117 69.8631 24.0148C70.8844 20.8079 72.1291 19.0934 73.342 19.2521C74.4909 19.3792 74.8739 20.6492 74.5866 23.4114L74.3951 25.507C76.3162 25.507 80.568 25.625 80.568 25.625C80.919 24.3232 80.5868 16.8391 80.0762 15.3468C79.8208 14.6166 78.9911 13.3783 78.225 12.5845C76.8846 11.2828 76.6612 11.1875 75.0335 11.1875C74.0122 11.1875 72.6398 11.4733 71.81 11.8225C68.5546 13.3148 65.0119 17.9821 62.4906 24.1417L61.214 27.158H53.6595L50.1807 20.1729C48.2468 20.1729 33.543 20.0786 33.543 20.3316C33.543 22.251 36.0042 25.3874 36.8941 27.158H33.543V30.6823C33.9225 30.6823 36.8941 30.6823 36.8941 30.6823C36.8941 33.0507 33.543 35.3089 33.543 37.6675C33.543 37.9205 48.0082 37.8263 49.9254 37.8263L53.7871 30.9363C54.5226 30.9363 60.2245 31.0316 60.2245 31.0316C59.7458 32.3016 58.6607 38.6835 58.3734 41.9538C58.2138 43.9541 57.9904 45.6369 57.9266 45.7004C57.8309 45.7957 56.7138 46.1131 55.4371 46.4624C51.9903 47.3515 49.7881 48.685 46.7561 51.6695C42.3837 55.9558 40.341 60.9407 40.6602 66.4971C40.8517 70.0214 41.8091 72.6566 43.5964 74.4664C45.4476 76.3715 46.9156 76.9112 49.82 76.7842C52.6605 76.6572 55.9797 75.1649 59.2033 72.5932L61.2459 70.9421L62.0118 72.4027C62.9374 74.1489 64.3417 75.3872 66.3524 76.2762C68.6015 77.2707 71.1246 76.9025 74.7184 74.9734L77.2032 65.2641L75.959 66.0842C71.5227 69.0371 69.5758 69.2276 68.5865 66.8463C67.4375 63.9252 68.1397 59.5754 70.7248 53.8285C75.3207 43.7001 79.1187 32.4921 79.1187 32.4921C79.1187 31.948 74.0428 32.3101 73.342 32.3334L72.3525 35.6672C71.2674 39.2868 66.7354 50.971 66.5119 50.7487C66.0651 50.3042 67.5971 32.7144 68.2354 30.9363C68.3665 30.5639 85.0854 30.9323 85.0854 30.9323ZM58.4373 57.0671L58.6287 62.941L57.6713 64.846C56.4266 67.3226 55.2776 68.6243 53.7776 69.3546C52.7562 69.8308 52.3413 69.8626 51.2562 69.5451C49.4689 69.0053 48.9583 68.1163 48.9583 65.608C48.9583 60.9089 51.8307 55.6066 56.0755 52.4315C57.001 51.733 57.8628 51.1615 57.9904 51.1615C58.1181 51.1615 58.3416 53.8285 58.4373 57.0671Z" fill="black"/>
</svg>
