<svg width="132" height="88" viewBox="0 0 132 88" fill="none" xmlns="http://www.w3.org/2000/svg">
<path d="M30 25.2913V8H48.2857V16.7874H39.1429V25.2913H30Z" fill="black"/>
<path d="M93.4286 25.2913V8H75.1429V16.7874H84.2857V25.2913H93.4286Z" fill="black"/>
<path d="M30 71.2126V53.9213H39.1429V62.4252H48.2857V71.2126H30Z" fill="black"/>
<path d="M93.4286 53.9213V62.4252H102V71.2126H93.1429V80H84.2857V71.2126H75.1429V62.4252H84.2857V53.9213H93.4286Z" fill="black"/>
<path d="M54.2857 8H69.1429V16.7874H54.2857V8Z" fill="black"/>
<path d="M38.8571 32.0945H30V45.9843H38.8571V32.0945Z" fill="black"/>
<path d="M84.2857 32.0945H93.1429V45.9843H84.2857V32.0945Z" fill="black"/>
<path d="M54.2857 62.4252H69.1429V71.2126H54.2857V62.4252Z" fill="black"/>
</svg>
