<svg width="132" height="88" viewBox="0 0 132 88" fill="none" xmlns="http://www.w3.org/2000/svg">
<path d="M78.6273 12.0156H38.1256C35.8577 12.0156 34.0195 13.8539 34.0195 16.1217V60.8682C34.0195 62.5308 35.0221 64.0271 36.5553 64.6596C38.0836 65.2935 39.8528 64.9415 41.0312 63.7686L60.8037 43.9958C62.4061 42.3931 62.4061 39.7927 60.8037 38.19C59.2007 36.5873 56.6009 36.5873 54.9976 38.19L42.2316 50.9563V20.2277H78.6325C84.7796 20.2277 89.7772 25.2298 89.7772 31.3728V56.6235C89.7772 62.7712 84.7744 67.7682 78.6325 67.7682H59.0487L71.8147 55.0024C73.418 53.3997 73.418 50.7993 71.8147 49.1966C70.2123 47.5939 67.6116 47.5939 66.0095 49.1966L46.2317 68.9735C45.0583 70.1472 44.7074 71.9163 45.3402 73.4494C45.9779 74.9828 47.4742 75.9852 49.1324 75.9852H78.6223C89.2965 75.9852 97.9801 67.3023 97.9801 56.6282V31.3774C97.9892 20.7035 89.3064 12.0156 78.6273 12.0156Z" fill="#0522ED"/>
<path d="M77.099 47.5622C79.3669 47.5622 81.2053 45.7238 81.2053 43.4559V32.4449C81.2053 30.1772 79.3669 28.3388 77.099 28.3388H66.0883C63.8204 28.3388 61.9823 30.1772 61.9823 32.4449C61.9823 34.7128 63.8204 36.5509 66.0883 36.5509H72.993V43.4559C72.993 45.7238 74.8311 47.5622 77.099 47.5622Z" fill="#FC852B"/>
</svg>
