<svg width="132" height="88" viewBox="0 0 132 88" fill="none" xmlns="http://www.w3.org/2000/svg">
<path d="M98.7995 73.9995C98.7995 75.5447 97.5458 76.7984 96.0297 76.7984H35.9991C34.4539 76.7984 33.2002 75.5447 33.2002 74.0287V13.9981C33.2002 12.4529 34.4539 11.1992 35.9699 11.1992H96.0006C97.5458 11.1992 98.7995 12.4529 98.7995 13.969V73.9995Z" fill="#F08705"/>
<path d="M98.8004 73.999C98.8004 75.5443 97.5467 76.798 96.0306 76.798H55.6798L42.6182 63.5323L50.7525 50.2667L74.8639 20.3242L98.8004 44.9604V73.999Z" fill="#DF6C0C"/>
<path d="M87.0215 47.8772H80.1117L72.8229 35.4279C74.4848 35.0781 75.6801 33.6203 75.651 31.9293V22.5705C75.651 20.5879 74.0766 18.9844 72.094 18.9844H72.0649H59.9071C57.9246 18.9844 56.321 20.5588 56.321 22.5413V22.5705V31.9293C56.321 33.6203 57.4872 35.0781 59.1491 35.4279L51.8603 47.8772H44.9796C42.9971 47.8772 41.3936 49.4516 41.3936 51.4342V51.4633V60.8222C41.3936 62.8047 42.9679 64.4083 44.9505 64.4083H44.9796H57.1374C59.1199 64.4083 60.7235 62.8339 60.7235 60.8513V60.8222V51.4633C60.7235 49.4808 59.1491 47.8772 57.1665 47.8772H57.1374H55.9712L63.2017 35.5154H68.8286L76.0883 47.8772H74.8929C72.9104 47.8772 71.3068 49.4516 71.3068 51.4342V51.4633V60.8222C71.3068 62.8047 72.8812 64.4083 74.8638 64.4083H74.8929H87.0507C89.0332 64.4083 90.6368 62.8339 90.6368 60.8513V60.8222V51.4633C90.6368 49.4808 89.0624 47.8772 87.0798 47.8772C87.0507 47.8772 87.0507 47.8772 87.0215 47.8772Z" fill="white"/>
</svg>
