<svg width="132" height="88" viewBox="0 0 132 88" fill="none" xmlns="http://www.w3.org/2000/svg">
<path d="M51.0794 46.1927C50.4866 45.3127 49.7119 44.5969 48.8208 43.9996C49.7119 43.4024 50.4866 42.6866 51.0794 41.8066C52.8068 39.2427 52.7555 37.3169 52.5529 34.4695C52.5152 33.9393 51.9054 30.7293 51.6202 29.5805C51.047 27.2717 50.8916 26.5155 50.8916 25.4475C50.8916 24.3795 51.0794 23.5679 51.9054 23.0974C52.6064 22.6981 54.208 22.6927 56.1622 22.686C56.3163 22.6855 56.4727 22.685 56.6309 22.6841C60.3682 22.6667 60.8091 20.0659 60.8091 18.6462C60.8091 17.2264 59.4996 15.3171 57.4062 15.1031C48.8917 14.2324 43.4157 18.3966 43.4157 24.8124C43.4157 26.0531 44.1582 29.55 44.5311 31.3054C44.642 31.828 44.7203 32.1962 44.7363 32.3047C45.1911 35.3691 44.4433 37.339 43.6384 38.3785C42.8335 39.4181 42.4942 39.7256 39.1755 39.9884C37.0752 40.1547 35.3652 41.6943 35.3652 43.7987C35.3652 43.8661 35.367 43.9331 35.3704 43.9996C35.367 44.0662 35.3652 44.1332 35.3652 44.2006C35.3652 46.305 37.0752 47.8447 39.1755 48.0109C42.4942 48.2737 42.8335 48.5813 43.6384 49.6209C44.4433 50.6604 45.1911 52.6302 44.7363 55.6946C44.7203 55.8032 44.642 56.1714 44.5311 56.694C44.1582 58.4495 43.4157 61.9462 43.4157 63.1868C43.4157 69.6027 48.8917 73.7668 57.4062 72.8961C59.4996 72.6821 60.8091 70.7729 60.8091 69.3532C60.8091 67.9334 60.3682 65.3326 56.6309 65.3152C56.4723 65.3144 56.3157 65.3139 56.1613 65.3133C54.2076 65.3066 52.6063 65.301 51.9054 64.9019C51.0794 64.4313 50.8916 63.6198 50.8916 62.5518C50.8916 61.4838 51.047 60.7275 51.6202 58.4187C51.9054 57.2701 52.5152 54.06 52.5529 53.5298C52.7555 50.6825 52.8068 48.7567 51.0794 46.1927Z" fill="#5623EE"/>
<path d="M68.6934 15.2227H68.0584C65.954 15.2227 64.248 16.9286 64.248 19.033C64.248 21.1373 65.954 22.8433 68.0584 22.8433H68.6934C70.7978 22.8433 72.5037 21.1373 72.5037 19.033C72.5037 16.9286 70.7978 15.2227 68.6934 15.2227Z" fill="#5623EE"/>
<path d="M70.5986 27.7656H68.0584C65.954 27.7656 64.248 29.4716 64.248 31.5759C64.248 33.6803 65.954 35.3862 68.0584 35.3862H70.5986C72.7029 35.3862 74.4089 33.6803 74.4089 31.5759C74.4089 29.4716 72.7029 27.7656 70.5986 27.7656Z" fill="#5623EE"/>
<path d="M81.3943 27.7656H89.65C91.7543 27.7656 93.4603 29.4716 93.4603 31.5759C93.4603 33.6803 91.7543 35.3862 89.65 35.3862H81.3943C79.2899 35.3862 77.584 33.6803 77.584 31.5759C77.584 29.4716 79.2899 27.7656 81.3943 27.7656Z" fill="#5623EE"/>
<path d="M79.4893 40.3047H68.0584C65.954 40.3047 64.248 42.0106 64.248 44.115C64.248 46.2194 65.954 47.9253 68.0584 47.9253H79.4893C81.5937 47.9253 83.2996 46.2194 83.2996 44.115C83.2996 42.0106 81.5937 40.3047 79.4893 40.3047Z" fill="#5623EE"/>
<path d="M90.2849 40.3047H92.8251C94.9295 40.3047 96.6354 42.0106 96.6354 44.115C96.6354 46.2194 94.9295 47.9253 92.8251 47.9253H90.2849C88.1805 47.9253 86.4746 46.2194 86.4746 44.115C86.4746 42.0106 88.1805 40.3047 90.2849 40.3047Z" fill="#5623EE"/>
<path d="M89.6519 52.8477H85.8416C83.7372 52.8477 82.0312 54.5536 82.0312 56.658C82.0312 58.7623 83.7372 60.4683 85.8416 60.4683H89.6519C91.7562 60.4683 93.4622 58.7623 93.4622 56.658C93.4622 54.5536 91.7562 52.8477 89.6519 52.8477Z" fill="#5623EE"/>
<path d="M68.0584 52.8477H75.0439C77.1483 52.8477 78.8542 54.5536 78.8542 56.658C78.8542 58.7623 77.1483 60.4683 75.0439 60.4683H68.0584C65.954 60.4683 64.248 58.7623 64.248 56.658C64.248 54.5536 65.954 52.8477 68.0584 52.8477Z" fill="#5623EE"/>
<path d="M71.2336 65.3906H68.0584C65.954 65.3906 64.248 67.0966 64.248 69.2009C64.248 71.3053 65.954 73.0112 68.0584 73.0112H71.2336C73.338 73.0112 75.0439 71.3053 75.0439 69.2009C75.0439 67.0966 73.338 65.3906 71.2336 65.3906Z" fill="#5623EE"/>
<path d="M82.031 62.8516C84.1354 62.8516 85.8413 64.5575 85.8413 66.6619C85.8413 68.7662 84.1354 70.4722 82.031 70.4722C79.9266 70.4722 78.2207 68.7662 78.2207 66.6619C78.2207 64.5575 79.9266 62.8516 82.031 62.8516Z" fill="#5623EE"/>
<path d="M80.125 17.7617H79.49C77.3856 17.7617 75.6797 19.4677 75.6797 21.572C75.6797 23.6764 77.3856 25.3823 79.49 25.3823H80.125C82.2294 25.3823 83.9354 23.6764 83.9354 21.572C83.9354 19.4677 82.2294 17.7617 80.125 17.7617Z" fill="#5623EE"/>
</svg>
