<svg width="132" height="88" viewBox="0 0 132 88" fill="none" xmlns="http://www.w3.org/2000/svg">
<path d="M63.58 35.1531C63.642 33.7486 64.8378 32.6406 66.2917 32.6406C67.7457 32.6406 68.9414 33.7486 69.0035 35.1531L70.7324 74.2762C70.8198 76.256 69.1838 77.9068 67.1347 77.9068H65.4487C63.3997 77.9068 61.7634 76.256 61.851 74.2762L63.58 35.1531Z" fill="#FCBB6A"/>
<path fill-rule="evenodd" clip-rule="evenodd" d="M74.9181 12.0138C75.2572 10.9578 74.6077 9.81549 73.5502 10.1545C70.3614 11.1769 66.6297 16.3074 64.4503 23.0957C62.2908 29.8221 62.9268 34.2169 65.1016 36.2282C65.9142 36.9795 67.0964 36.3773 67.4345 35.3243L74.9181 12.0138Z" fill="#83EBC5"/>
<path fill-rule="evenodd" clip-rule="evenodd" d="M62.9241 36.7254C61.8256 36.8903 60.7811 36.0892 61.1496 35.0431C62.6696 30.728 70.7489 26.4594 80.948 24.9288C91.11 23.4038 97.0275 25.5496 98.9463 29.326C99.4471 30.3122 98.6657 31.3616 97.5706 31.5259L62.9241 36.7254Z" fill="#83EBC5"/>
<path fill-rule="evenodd" clip-rule="evenodd" d="M40.1032 53.5711C40.2858 54.6274 41.3193 54.9538 42.1023 54.4145L66.8702 37.352C67.6553 36.811 67.9141 35.5659 67.146 34.9914C63.9769 32.6216 56.644 34.2687 49.3529 39.2917C42.0884 44.2962 39.404 49.5252 40.1032 53.5711Z" fill="#83EBC5"/>
<path fill-rule="evenodd" clip-rule="evenodd" d="M33.0533 29.3261C32.5524 30.3121 33.3338 31.3615 34.429 31.5258L69.0757 36.7253C70.174 36.8902 71.2186 36.0891 70.8501 35.043C69.3301 30.7279 61.2506 26.4594 51.0516 24.9288C40.8895 23.4039 34.9721 25.5497 33.0533 29.3261Z" fill="#83EBC5"/>
<path fill-rule="evenodd" clip-rule="evenodd" d="M89.3201 53.5406C89.1523 54.6171 88.2023 54.9497 87.4828 54.4001L64.7188 37.0145C63.997 36.4633 63.7592 35.1946 64.4654 34.6092C67.3778 32.1946 74.1174 33.8729 80.8187 38.9908C87.4955 44.0902 89.9627 49.418 89.3201 53.5406Z" fill="#83EBC5"/>
<path d="M66.3417 38.324C66.3417 40.4165 64.6426 42.1129 62.5467 42.1129C60.451 42.1129 58.752 40.4165 58.752 38.324C58.752 36.2315 60.451 34.5352 62.5467 34.5352C64.6426 34.5352 66.3417 36.2315 66.3417 38.324Z" fill="#FFF8C9"/>
<path d="M75.4292 41.9157C75.4292 44.9993 72.9253 47.4991 69.8367 47.4991C66.7481 47.4991 64.2441 44.9993 64.2441 41.9157C64.2441 38.8318 66.7481 36.332 69.8367 36.332C72.9253 36.332 75.4292 38.8318 75.4292 41.9157Z" fill="#FFF8C9"/>
</svg>
