<svg width="132" height="88" viewBox="0 0 132 88" fill="none" xmlns="http://www.w3.org/2000/svg">
<path d="M90.1472 71.1648L83.3611 65.5337C82.7216 65.003 82.61 64.0643 83.1071 63.3986L92.7883 50.4355C93.3072 49.7408 94.2929 49.6022 94.9835 50.1268L102.23 55.6347C102.921 56.1595 103.051 57.1475 102.519 57.8334L92.3774 70.9198C91.837 71.6174 90.8265 71.7282 90.1472 71.1648Z" fill="black"/>
<path fill-rule="evenodd" clip-rule="evenodd" d="M56.4628 15.0819C55.0885 14.9443 53.7379 15.0638 52.9382 15.2119C52.4083 15.31 51.8994 14.9601 51.8013 14.4304C51.7032 13.9006 52.0532 13.3917 52.5828 13.2936C53.5386 13.1166 55.0756 12.9823 56.6571 13.1407C58.2132 13.2965 59.9801 13.7518 61.2257 14.9016C63.3574 16.8694 63.8743 19.6836 63.8869 21.1641C78.9807 23.3337 89.6132 37.8069 91.0319 51.0726L81.355 63.9913C80.8559 64.6577 80.9675 65.5988 81.6094 66.1295L84.5178 68.5361C78.8555 73.0174 70.0603 74.9262 59.9788 74.9262C42.4205 74.9262 29.1543 69.1358 29.1543 54.0514C29.1543 40.401 39.3789 24.2966 54.9129 21.358C54.9186 21.3102 54.9279 21.2623 54.9409 21.2145C54.979 21.0744 54.9872 20.7868 54.8233 20.5101C54.6776 20.2643 54.3129 19.889 53.3495 19.6963C51.3686 19.3001 49.5008 20.2091 48.8586 20.6907C48.4276 21.014 47.8162 20.9266 47.4929 20.4956C47.1698 20.0647 47.257 19.4532 47.688 19.13C48.6065 18.4411 51.0307 17.243 53.732 17.7833C55.1097 18.0588 56.0133 18.6915 56.5016 19.5154C56.811 20.0375 56.9204 20.5817 56.9143 21.0567C57.9162 20.9441 58.938 20.8858 59.9788 20.8858C60.6364 20.8858 61.2871 20.9091 61.9303 20.9546C61.8729 19.782 61.4134 17.7298 59.9026 16.3352C59.1192 15.6121 57.8621 15.222 56.4628 15.0819Z" fill="#57C2B9"/>
<path fill-rule="evenodd" clip-rule="evenodd" d="M48.4686 53.2712C48.4686 56.2881 46.8964 58.7337 44.957 58.7337C43.0175 58.7337 41.4453 56.2881 41.4453 53.2712C41.4453 50.2543 43.0175 47.8086 44.957 47.8086C46.8964 47.8086 48.4686 50.2543 48.4686 53.2712ZM78.9029 53.2712C78.9029 56.2881 77.3309 58.7337 75.3913 58.7337C73.4517 58.7337 71.8796 56.2881 71.8796 53.2712C71.8796 50.2543 73.4517 47.8086 75.3913 47.8086C77.3309 47.8086 78.9029 50.2543 78.9029 53.2712ZM65.5749 62.1217C66.1532 61.8326 66.3875 61.1294 66.0984 60.5512C65.8093 59.9729 65.1062 59.7388 64.528 60.028C61.7026 61.4404 58.5924 61.5984 55.6495 60.0404C55.0781 59.7377 54.3697 59.9558 54.0672 60.527C53.7648 61.0986 53.9827 61.8068 54.5541 62.1092C58.2442 64.0628 62.1574 63.8307 65.5749 62.1217Z" fill="black"/>
</svg>
