<svg width="132" height="88" viewBox="0 0 132 88" fill="none" xmlns="http://www.w3.org/2000/svg">
<path d="M50.5229 30.4328C49.8522 30.4328 49.4905 30.4328 48.9746 30.4328C45.7761 30.4328 41.0305 30.4328 34.6335 30.4328C33.9108 30.4328 33.498 29.8652 33.498 29.2976V13.1506C33.498 12.5831 34.0658 12.0156 34.6335 12.0156H50.5229C51.2448 12.0156 51.6575 12.5831 51.6575 13.1506V27.4922V29.2462C51.6575 29.9683 51.1936 30.4328 50.5229 30.4328ZM70.0229 15.4205C88.801 15.4205 98.5002 29.3493 98.5002 45.7027C98.5002 62.2113 88.7498 75.9852 70.0229 75.9852H44.9506V33.0637H51.0897H51.9152L58.5191 38.2742V56.227C58.5191 56.9491 59.0858 57.6713 59.9636 57.6713H78.7415C79.4633 57.6713 80.186 57.104 80.186 56.227V37.2941C80.186 36.5716 79.6182 35.8495 78.7415 35.8495H61.2528L54.2373 30.1746C54.2373 30.02 54.2373 30.02 54.2373 29.8652V15.4205H70.0229Z" fill="#1890FF"/>
</svg>
