<svg width="132" height="88" viewBox="0 0 132 88" fill="none" xmlns="http://www.w3.org/2000/svg">
<path d="M97.9669 44.0005C97.973 42.3827 97.4131 40.8135 96.3826 39.5661C95.3522 38.3184 93.9178 37.4709 92.3275 37.1709C90.7383 36.8708 89.0932 37.137 87.6789 37.9233C86.2654 38.7098 85.1709 39.966 84.5873 41.4749C84.5362 41.605 84.4474 41.7166 84.3313 41.7955C84.2164 41.8742 84.0794 41.9165 83.9394 41.9171H68.7957C68.6118 41.9171 68.4349 41.8437 68.3049 41.7133C68.1751 41.5832 68.1022 41.4064 68.1022 41.2222V26.0785C68.1022 25.9388 68.144 25.8024 68.2229 25.6869C68.3018 25.5714 68.414 25.4823 68.5438 25.4311C70.0511 24.8423 71.3065 23.7454 72.0922 22.3291C72.8778 20.9132 73.1438 19.2674 72.8437 17.6763C72.544 16.085 71.6984 14.6485 70.4521 13.6149C69.2055 12.5814 67.6372 12.0156 66.018 12.0156C64.3988 12.0156 62.8304 12.5814 61.5841 13.6149C60.3378 14.6485 59.4922 16.085 59.1922 17.6763C58.8935 19.2674 59.1584 20.9132 59.944 22.3291C60.7294 23.7454 61.9851 24.8423 63.4924 25.4311C63.6222 25.4823 63.7341 25.5714 63.813 25.6869C63.8919 25.8024 63.934 25.9388 63.934 26.0785V41.2222C63.934 41.4064 63.8611 41.5832 63.7311 41.7133C63.6013 41.8437 63.4242 41.9171 63.2405 41.9171H48.0957C47.9565 41.9165 47.8196 41.8742 47.7046 41.7955C47.5888 41.7166 47.4997 41.605 47.4489 41.4749C46.8601 39.9668 45.7626 38.7114 44.3474 37.9263C42.931 37.1412 41.2848 36.8752 39.6935 37.175C38.1023 37.4745 36.666 38.3204 35.6325 39.5669C34.599 40.8132 34.0332 42.3813 34.0332 44.0005C34.0332 45.6197 34.599 47.1877 35.6325 48.434C36.666 49.6803 38.1023 50.5265 39.6935 50.826C41.2848 51.1255 42.931 50.8598 44.3474 50.0747C45.7626 49.2896 46.8601 48.0342 47.4489 46.5261C47.4997 46.3957 47.5888 46.2841 47.7046 46.2054C47.8196 46.1268 47.9565 46.0842 48.0957 46.0839H63.2405C63.4242 46.0839 63.6013 46.1573 63.7311 46.2877C63.8611 46.4177 63.934 46.5946 63.934 46.7785V61.9222C63.934 62.0622 63.8919 62.1986 63.813 62.3141C63.7341 62.4296 63.6222 62.5187 63.4924 62.5699C61.9851 63.1586 60.7294 64.2559 59.944 65.6721C59.1584 67.0876 58.8935 68.7337 59.1922 70.3249C59.4922 71.9163 60.3378 73.3526 61.5841 74.3861C62.8304 75.4195 64.3988 75.9852 66.018 75.9852C67.6372 75.9852 69.2055 75.4195 70.4521 74.3861C71.6984 73.3526 72.544 71.9163 72.8437 70.3249C73.1438 68.7337 72.8778 67.0876 72.0922 65.6721C71.3065 64.2559 70.0511 63.1586 68.5438 62.5699C68.414 62.5187 68.3018 62.4296 68.2229 62.3141C68.144 62.1986 68.1022 62.0622 68.1022 61.9222V46.7785C68.1022 46.5946 68.1751 46.4177 68.3049 46.2877C68.4349 46.1573 68.6118 46.0839 68.7957 46.0839H83.9394C84.0794 46.0842 84.2164 46.1268 84.3313 46.2054C84.4474 46.2841 84.5362 46.3957 84.5873 46.5261C85.1709 48.0347 86.2654 49.2912 87.6789 50.0777C89.0932 50.8639 90.7383 51.1301 92.3275 50.8301C93.9178 50.5298 95.3522 49.6825 96.3826 48.4349C97.4131 47.1875 97.973 45.6183 97.9669 44.0005Z" fill="url(#paint0_linear_2056_25473)"/>
<path fill-rule="evenodd" clip-rule="evenodd" d="M71.4916 35.583C71.2867 35.7739 71.1217 36.004 71.0078 36.2595C70.8948 36.515 70.8329 36.7911 70.8277 37.0708C70.8228 37.3504 70.8747 37.6285 70.9798 37.8878C71.0848 38.1474 71.2408 38.3831 71.4385 38.5808C71.6354 38.7788 71.8713 38.9347 72.1312 39.0395C72.39 39.1443 72.6691 39.1957 72.9488 39.191C73.2276 39.1858 73.5035 39.1245 73.7595 39.0109C74.0152 38.897 74.2451 38.7326 74.4363 38.528L80.1593 32.805C80.2583 32.7057 80.3864 32.6389 80.5242 32.6136C80.6631 32.5883 80.8061 32.6056 80.934 32.6633C81.8065 33.0585 82.7542 33.2639 83.7128 33.2661C85.0862 33.2664 86.4296 32.8591 87.5719 32.096C88.7143 31.3329 89.605 30.248 90.1308 28.9786C90.6563 27.7095 90.7933 26.3128 90.5254 24.9653C90.2576 23.6178 89.5959 22.3803 88.6243 21.4088C87.3021 20.1449 85.543 19.4396 83.7137 19.4396C81.8846 19.4396 80.1255 20.1449 78.803 21.4088C78.1554 22.0522 77.6425 22.8178 77.2927 23.6607C76.944 24.5038 76.765 25.408 76.7672 26.3207C76.7691 27.2788 76.9751 28.2259 77.3697 29.0988C77.4277 29.2272 77.4448 29.3699 77.4197 29.5085C77.3936 29.6469 77.3279 29.7745 77.2278 29.874L71.4916 35.583ZM48.3286 19.4416C50.1565 19.4416 51.9157 20.1461 53.2382 21.4088C53.8858 22.05 54.3998 22.8128 54.7504 23.6532C55.1013 24.4942 55.2822 25.3959 55.2833 26.3067C55.2811 27.2651 55.0754 28.2119 54.6805 29.085C54.6225 29.2132 54.6055 29.3562 54.6305 29.4945C54.6566 29.6328 54.7223 29.7604 54.8224 29.86L60.5587 35.583C60.9274 35.9782 61.1274 36.5007 61.1175 37.0402C61.1084 37.5801 60.8895 38.0951 60.5078 38.4768C60.1258 38.8585 59.6113 39.0774 59.0715 39.0871C58.5316 39.0964 58.0089 38.8962 57.6142 38.528L51.8909 32.805C51.7919 32.7057 51.6641 32.6389 51.526 32.6136C51.3871 32.5883 51.2441 32.6056 51.1163 32.6633C50.2437 33.0585 49.296 33.2639 48.3374 33.2661C46.9632 33.2681 45.6187 32.8619 44.4753 32.0996C43.3319 31.337 42.4403 30.2521 41.9135 28.9827C41.3868 27.7131 41.2479 26.3155 41.5157 24.9675C41.7836 23.6191 42.4453 22.3805 43.4178 21.4088C44.7412 20.1461 46.4993 19.4416 48.3286 19.4416ZM83.6397 68.4114C81.8516 68.4513 80.1175 67.7995 78.798 66.5931C78.1504 65.9526 77.6367 65.189 77.2858 64.3483C76.9349 63.5079 76.7531 62.6062 76.7531 61.6951C76.7551 60.737 76.961 59.7899 77.3557 58.917C77.4137 58.7886 77.4307 58.6459 77.4057 58.5073C77.3799 58.369 77.3139 58.2416 77.2138 58.1418L71.4905 52.4188C71.1228 52.0239 70.9229 51.5014 70.9317 50.9616C70.9418 50.4217 71.1596 49.9069 71.5424 49.525C71.9233 49.1433 72.4392 48.9246 72.9788 48.915C73.5186 48.9054 74.0414 49.1059 74.4363 49.4741L80.1895 55.2414C80.2863 55.3393 80.4104 55.4056 80.5462 55.4322C80.6812 55.4592 80.8212 55.4449 80.948 55.3915C82.2215 54.8506 83.6248 54.6941 84.9872 54.9411C86.3476 55.188 87.6079 55.8274 88.6103 56.7808C89.8167 58.1003 90.4685 59.8347 90.4286 61.6228C90.3885 63.4105 89.66 65.1139 88.3955 66.3783C87.1311 67.6428 85.428 68.3713 83.6397 68.4114ZM59.869 49.022C60.122 49.1268 60.3519 49.2802 60.5446 49.4741C60.9296 49.8629 61.1455 50.3879 61.1455 50.9346C61.1463 51.4816 60.9316 52.0068 60.5477 52.3965L54.8244 58.1195C54.7254 58.2194 54.6585 58.3467 54.6335 58.4853C54.6077 58.6236 54.6255 58.7663 54.6825 58.8948C55.0782 59.7679 55.2833 60.7147 55.2861 61.6728C55.2861 62.8152 55.0042 63.9396 54.4666 64.947C53.9279 65.9546 53.1502 66.8142 52.2006 67.4489C51.2502 68.0836 50.1587 68.4744 49.0221 68.5863C47.8858 68.6982 46.7394 68.5283 45.6836 68.0916C44.6282 67.6546 43.6967 66.9641 42.972 66.0813C42.2474 65.1989 41.7516 64.1503 41.5287 63.0302C41.3058 61.9104 41.3618 60.7521 41.6937 59.659C42.0255 58.5661 42.6212 57.5715 43.4288 56.7641C44.4313 55.8109 45.6908 55.1721 47.052 54.9254C48.4136 54.6785 49.8169 54.8347 51.0912 55.3748C51.218 55.4281 51.358 55.4424 51.493 55.4155C51.628 55.3888 51.7518 55.3225 51.8489 55.2246L57.6002 49.4741C57.793 49.2802 58.0229 49.1268 58.2759 49.022C58.5278 48.9172 58.7987 48.8633 59.0723 48.8633C59.3462 48.8633 59.6171 48.9172 59.869 49.022Z" fill="url(#paint1_linear_2056_25473)"/>
<defs>
<linearGradient id="paint0_linear_2056_25473" x1="66.0001" y1="12.0156" x2="66.0001" y2="75.9852" gradientUnits="userSpaceOnUse">
<stop stop-color="#FFAF56"/>
<stop offset="1" stop-color="#FB37C2"/>
</linearGradient>
<linearGradient id="paint1_linear_2056_25473" x1="66.021" y1="19.4396" x2="66.021" y2="68.6201" gradientUnits="userSpaceOnUse">
<stop stop-color="#33C2EF"/>
<stop offset="1" stop-color="#823CFC"/>
</linearGradient>
</defs>
</svg>
