<svg width="132" height="88" viewBox="0 0 132 88" fill="none" xmlns="http://www.w3.org/2000/svg">
<mask id="mask0_2056_25433" style="mask-type:luminance" maskUnits="userSpaceOnUse" x="34" y="12" width="64" height="64">
<path d="M34.0156 12.0156H97.9852V75.9852H34.0156V12.0156Z" fill="white"/>
</mask>
<g mask="url(#mask0_2056_25433)">
<mask id="mask1_2056_25433" style="mask-type:luminance" maskUnits="userSpaceOnUse" x="34" y="12" width="64" height="64">
<path d="M97.9852 12.0156H34.0156V75.9852H97.9852V12.0156Z" fill="white"/>
</mask>
<g mask="url(#mask1_2056_25433)">
<path fill-rule="evenodd" clip-rule="evenodd" d="M45.2102 12.0156H34.0156V75.9852H48.4087C49.6812 75.9852 50.9016 75.4795 51.8011 74.5799C52.7007 73.6804 53.2067 72.46 53.2067 71.1875V16.8134C53.2067 15.541 52.7007 14.3206 51.8011 13.4208C50.9016 12.5211 49.6812 12.0156 48.4087 12.0156H45.2102ZM45.2102 67.989H42.0118V20.0118H45.2102V67.989ZM89.989 12.0156H83.5922C82.3198 12.0156 81.0994 12.5211 80.1998 13.4208C79.3 14.3206 78.7943 15.541 78.7943 16.8134V42.4014C78.7943 43.6738 79.3 44.894 80.1998 45.7938C81.0994 46.6936 82.3198 47.199 83.5922 47.199H89.989V67.989H86.7905V50.3975H78.7943V71.1875C78.7943 72.46 79.3 73.6804 80.1998 74.5799C81.0994 75.4795 82.3198 75.9852 83.5922 75.9852H93.1875C94.46 75.9852 95.6804 75.4795 96.5799 74.5799C97.4795 73.6804 97.9852 72.46 97.9852 71.1875V44.0005C97.9852 42.7281 97.4795 41.5079 96.5799 40.6081C95.6804 39.708 94.46 39.2028 93.1875 39.2028H86.7905V20.0118H89.989V36.0043H97.9852V16.8134C97.9852 15.541 97.4795 14.3206 96.5799 13.4208C95.6804 12.5211 94.46 12.0156 93.1875 12.0156H89.989ZM61.2028 12.0156H67.5996H70.7981C72.0706 12.0156 73.291 12.5211 74.1905 13.4208C75.0901 14.3206 75.5961 15.541 75.5961 16.8134V42.4014H67.5996V20.0118H64.4011V67.989H67.5996V45.5996H75.5961V71.1875C75.5961 72.46 75.0901 73.6804 74.1905 74.5799C73.291 75.4795 72.0706 75.9852 70.7981 75.9852H61.2028C59.9304 75.9852 58.71 75.4795 57.8104 74.5799C56.9106 73.6804 56.4049 72.46 56.4049 71.1875V16.8134C56.4049 15.541 56.9106 14.3206 57.8104 13.4208C58.71 12.5211 59.9304 12.0156 61.2028 12.0156Z" fill="#283CFF"/>
</g>
</g>
</svg>
