<svg width="132" height="88" viewBox="0 0 132 88" fill="none" xmlns="http://www.w3.org/2000/svg">
<path fill-rule="evenodd" clip-rule="evenodd" d="M63.5496 8.09069C62.3279 8.1864 61.0332 8.35701 59.1918 8.66483C58.7246 8.74296 57.2695 9.07963 56.6851 9.24484C56.4518 9.31079 56.018 9.43111 55.721 9.51225C55.4241 9.59346 54.8861 9.76253 54.5255 9.8881C50.6563 11.235 47.3168 13.0141 44.2376 15.3691C43.8182 15.6899 43.3844 16.0204 43.2735 16.1037C42.8205 16.4439 41.0113 18.1163 40.2114 18.9343C36.0261 23.2137 32.922 28.5915 31.337 34.3089C29.8023 39.8447 29.5857 45.6061 30.7033 51.1615C30.8079 51.6811 31.3647 53.9664 31.4645 54.2852C31.6609 54.9129 32.1771 56.4631 32.235 56.5991C32.2711 56.6839 32.4399 57.1004 32.61 57.5247C33.3885 59.466 34.387 61.4256 35.5291 63.2532C36.2602 64.4232 37.9206 66.6787 38.6331 67.4699C40.238 69.2518 40.9351 69.9485 42.6477 71.4816C43.2987 72.0643 45.1794 73.4953 45.2238 73.4417C45.2368 73.426 45.3423 73.1529 45.4582 72.8347C46.0742 71.1435 46.6762 69.902 47.6085 68.3998C48.7122 66.6216 50.4909 64.605 52.1345 63.2686C52.3679 63.0788 52.5761 62.905 52.5973 62.8822C52.7189 62.7514 53.8575 61.9731 54.6485 61.4799C55.4417 60.9853 57.4183 59.9542 57.5732 59.9542C57.6022 59.9542 57.7353 59.9055 57.869 59.846C58.0026 59.7865 58.355 59.6518 58.6519 59.5467C59.9671 59.0813 59.8564 59.1536 60.2148 58.5253C60.5206 57.9893 60.5616 57.9489 60.8006 57.9489C61.1078 57.9489 61.1268 57.9686 61.9202 59.1058C62.796 60.361 62.7444 60.2873 64.0282 62.1138C64.6692 63.0259 65.3495 64.0064 65.5399 64.2927C65.9235 64.8695 66.0892 64.9364 66.3049 64.6012C66.38 64.4845 66.8322 63.8338 67.3098 63.1551C67.7873 62.4763 68.2123 61.8689 68.2543 61.8053C68.2962 61.7417 68.9152 60.8566 69.6296 59.8385C70.8816 58.0545 70.9387 57.9866 71.2045 57.9639C71.5094 57.9379 71.5427 57.9702 71.9802 58.7159C72.2225 59.1289 72.2386 59.1401 72.9593 59.3953C73.3623 59.5379 73.7788 59.6829 73.8848 59.7173C74.4284 59.8937 75.6057 60.4388 76.3915 60.8778C76.646 61.02 76.9758 61.2035 77.1242 61.2858C77.9146 61.7232 79.6863 63.0168 80.5139 63.7607C83.1514 66.1315 85.1824 69.0935 86.445 72.4105C86.5742 72.7499 86.7029 73.1229 86.731 73.2396C86.7591 73.3563 86.8061 73.4517 86.8354 73.4517C86.8647 73.4517 87.286 73.1518 87.7718 72.7852C91.4061 70.0423 94.5783 66.499 97.0151 62.4609C98.3856 60.1897 99.992 56.5015 100.613 54.1998C101.041 52.6126 101.208 51.9024 101.496 50.4288C101.566 50.0659 101.662 49.415 101.896 47.6907C102.053 46.5407 102.03 41.5464 101.863 40.1707C101.511 37.2862 101.11 35.456 100.243 32.7663C99.8566 31.5701 99.746 31.2774 99.0914 29.7197C98.0022 27.1279 96.1514 24.035 94.2913 21.6984C92.4549 19.3914 89.3905 16.4172 87.5366 15.1426C87.3882 15.0405 87.2493 14.938 87.2281 14.9147C87.1393 14.8174 84.6343 13.1371 84.578 13.1371C84.563 13.1371 84.2594 12.9699 83.9033 12.7655C81.3928 11.3242 78.63 10.1576 75.9331 9.39979C73.8496 8.81431 72.87 8.62272 69.797 8.19944C69.1848 8.11514 64.3185 8.03037 63.5496 8.09069ZM61.12 25.0178C60.8655 25.0494 60.2928 25.0796 59.8474 25.085C58.9829 25.0953 58.0857 25.2737 57.7318 25.5056C57.6186 25.5797 57.4323 25.7799 57.3177 25.9505C57.0122 26.4051 56.6802 26.7889 56.5923 26.7889C56.55 26.7889 56.0909 26.9919 55.5719 27.2401C54.2385 27.878 53.9272 28.1929 53.6025 29.2322C53.5451 29.416 53.2133 29.9192 52.8305 30.4031C51.6841 31.8523 51.544 32.2335 51.325 34.5017C51.1775 36.0283 51.1745 36.6529 51.3143 36.7066C51.3722 36.7288 51.8147 36.4836 52.2977 36.1618C54.4699 34.7144 56.4695 34.023 58.4977 34.0182C60.1088 34.0144 60.9537 34.289 62.1227 35.1964C63.4202 36.2036 63.5122 36.2469 65.3112 36.6995C66.5215 37.0039 66.8563 37.127 67.0263 37.3298C67.1924 37.5279 67.3289 37.8693 67.3289 38.0866C67.3289 38.3453 67.7267 39.8443 68.0868 40.942C68.2537 41.451 68.375 41.8935 68.3564 41.9254C68.3377 41.9572 67.686 41.9832 66.9082 41.9832H65.4939L65.2436 41.5933C64.7417 40.811 64.2635 40.5898 63.0722 40.5887C62.325 40.588 62.1578 40.5627 61.7458 40.3875C60.593 39.8975 59.6141 39.7477 58.287 39.8582C57.7143 39.906 57.5903 39.9422 57.4218 40.1107C57.1732 40.3592 57.1552 40.7805 57.3828 41.0227L57.5404 41.1906L57.2941 41.5869L57.0477 41.9832H56.3661H55.6844L55.4906 41.6762C55.2562 41.3049 55.2548 41.2891 55.4562 41.2891C55.8654 41.2891 56.1394 40.9911 56.1428 40.5423C56.1449 40.2652 56.1099 40.1946 55.8946 40.041C55.6567 39.8714 55.5787 39.8622 54.3713 39.8623C53.0221 39.8626 52.6117 39.9425 51.6718 40.3879C51.3605 40.5354 51.1894 40.5526 50.0135 40.5543C48.7703 40.5563 48.6828 40.5663 48.326 40.7485C47.9117 40.9601 47.4777 41.4166 47.308 41.8191C47.1228 42.2583 47.172 43.0873 47.4294 43.8655C47.7046 44.6973 47.95 45.0684 48.4219 45.3666C48.9648 45.7095 49.3347 45.7476 51.5561 45.6886C53.2347 45.6441 53.618 45.6125 53.9085 45.4947C54.4415 45.2785 55.0576 44.7826 55.3223 44.3569C55.4538 44.1454 55.574 44.0104 55.5895 44.0569C55.618 44.1423 55.2669 46.8236 55.1448 47.4526C55.1085 47.6398 55.1068 47.8668 55.1412 47.9571C55.2175 48.1579 56.3134 48.8477 56.5561 48.8477C56.7916 48.8477 56.9165 48.7081 56.9165 48.445C56.9165 48.2738 56.8408 48.1745 56.5604 47.9784C56.3646 47.8414 56.1569 47.6946 56.099 47.6522C56.0143 47.5902 56.0088 47.4765 56.0712 47.0737C56.4558 44.5906 56.5141 44.0272 56.405 43.8536C56.2723 43.6424 55.9511 43.6239 55.7343 43.815C55.5856 43.9461 55.5828 43.9444 55.638 43.7572C55.6693 43.6511 55.7115 43.4776 55.7319 43.3715C55.844 42.7878 55.7923 42.8316 56.3694 42.8316H56.899L56.9519 43.198C57.0826 44.1029 57.7143 44.944 58.5953 45.3861L59.1147 45.6468H61.4286C63.7109 45.6468 63.747 45.6444 64.083 45.4652C64.7557 45.1065 64.9994 44.7336 65.3643 43.505L65.5652 42.8285L67.1559 42.8494L68.7465 42.8702L69.4132 44.6013C69.7798 45.5534 70.1198 46.3458 70.1687 46.362C70.2956 46.4043 70.3766 46.1529 70.5607 45.1455C70.7687 44.0075 70.8464 43.6444 70.9731 43.2173C71.0726 42.8815 71.0876 42.8689 71.4304 42.8291C71.8328 42.7823 72.0338 42.65 72.0338 42.4315C72.0338 42.1541 71.8857 41.9832 71.6454 41.9832C71.365 41.9832 71.3619 41.921 71.6098 41.2885C71.8783 40.6035 72.3485 39.8358 72.7424 39.4398C73.6728 38.5044 75.1456 38.425 76.992 39.2107C77.2858 39.3357 77.539 39.438 77.5549 39.438C77.6382 39.438 77.8927 38.7882 78.0081 38.281C78.5235 36.0141 78.0046 33.4393 76.6012 31.3009C76.2527 30.7699 74.708 29.1552 74.051 28.6353C73.098 27.881 71.3128 26.8436 70.0284 26.2979C69.0662 25.8889 67.6335 25.4889 65.9791 25.1673C64.9001 24.9576 62.2604 24.8764 61.12 25.0178ZM75.7745 41.437C75.267 41.7312 74.7842 42.2077 74.4154 42.7783C74.097 43.271 74.0403 43.5931 74.2374 43.7903C74.4989 44.0517 74.7493 43.9185 75.0759 43.3444C75.3565 42.8513 75.7891 42.4272 76.3133 42.1314C76.7684 41.8745 76.8929 41.6546 76.7425 41.3734C76.6185 41.1418 76.2407 41.1667 75.7745 41.437ZM49.6243 41.437C48.7679 41.4866 48.5308 41.5863 48.277 42.0036C48.0186 42.4284 48.0188 42.6261 48.2779 43.4602C48.5544 44.3501 48.7619 44.6202 49.2755 44.7585C49.4924 44.8168 50.246 44.8385 51.5052 44.8226C53.3529 44.7991 53.4178 44.7929 53.7807 44.6076C54.4693 44.2559 54.9065 43.5726 54.9095 42.8433C54.9128 42.0447 54.4976 41.5919 53.6108 41.427C53.0683 41.3262 52.6231 41.4287 51.7959 41.8448C51.1958 42.1469 50.9009 42.1029 50.6281 41.6709C50.5223 41.5033 50.4275 41.372 50.4174 41.3791C50.4074 41.3862 50.0504 41.4122 49.6243 41.437ZM58.7867 41.5069C58.2953 41.6819 58.1251 41.8278 57.9211 42.2492C57.7243 42.6558 57.7241 42.9481 57.9204 43.4726C58.1041 43.9637 58.5171 44.4089 58.999 44.6354C59.3198 44.7861 59.4989 44.8002 61.3647 44.8223C63.2669 44.8448 63.401 44.8372 63.69 44.6897C64.0809 44.4904 64.2589 44.1958 64.5064 43.3387C64.6691 42.7751 64.6913 42.5985 64.6285 42.3653C64.4768 41.8023 64.1131 41.506 63.4561 41.4105C63.0678 41.354 62.7783 41.4491 62.7783 41.6333C62.7783 41.7858 62.4045 42.0603 62.1968 42.0603C62.1006 42.0603 61.7164 41.9138 61.343 41.7346C60.7128 41.4322 60.6117 41.4073 59.928 41.3858C59.3598 41.3679 59.0993 41.3955 58.7867 41.5069ZM53.321 42.0244C52.7408 42.3197 52.7718 43.2015 53.3711 43.4497C54.0038 43.7117 54.6592 43.1232 54.4478 42.4828C54.2857 41.9916 53.7853 41.7881 53.321 42.0244ZM59.3461 41.9956C58.8922 42.2452 58.7713 42.8781 59.1081 43.2415C59.6069 43.7797 60.4644 43.4708 60.4644 42.753C60.4644 42.3557 60.3673 42.1709 60.0803 42.0226C59.8167 41.8863 59.562 41.8769 59.3461 41.9956ZM65.3809 46.8878C65.2686 47.0001 65.8804 47.9993 66.0615 47.9993C66.2206 47.9993 66.1977 47.8078 65.9984 47.4742C65.9029 47.3144 65.7865 47.1154 65.7395 47.0322C65.6503 46.8742 65.468 46.8007 65.3809 46.8878ZM64.5523 47.1078C64.5523 47.2492 64.9765 48.0255 65.1179 48.1428C65.1734 48.1889 65.2576 48.1943 65.3201 48.1557C65.4059 48.1026 65.3672 47.9856 65.1241 47.5632C64.8358 47.0627 64.5523 46.8368 64.5523 47.1078ZM66.4034 47.1122C66.4034 47.2896 66.7713 47.8988 66.9109 47.9524C67.1207 48.0329 67.1089 47.795 66.8841 47.4123C66.6607 47.0321 66.4034 46.8714 66.4034 47.1122ZM63.7038 47.261C63.7038 47.3862 64.2249 48.287 64.3375 48.3567C64.3782 48.3817 64.446 48.3678 64.4881 48.3257C64.6229 48.1908 64.0264 47.1508 63.8143 47.1508C63.7535 47.1508 63.7038 47.2004 63.7038 47.261ZM62.9096 47.4081C62.8542 47.5523 63.4136 48.4946 63.5729 48.5253C63.7632 48.5619 63.7369 48.3545 63.498 47.9359C63.1575 47.3391 62.9927 47.1913 62.9096 47.4081ZM62.1613 47.7652C62.1613 47.9449 62.8341 49.0791 62.9407 49.0791C63.133 49.0791 63.0678 48.8076 62.7387 48.237C62.3924 47.6367 62.1613 47.4477 62.1613 47.7652ZM61.4363 48.0638C61.3641 48.1807 62.1023 49.4647 62.2418 49.4647C62.4388 49.4647 62.3755 49.2002 62.0406 48.6238C61.7071 48.05 61.5404 47.8954 61.4363 48.0638ZM60.7236 48.501C60.6683 48.645 61.3694 49.8503 61.5085 49.8503C61.7672 49.8503 61.7308 49.7316 61.1851 48.7968C60.9798 48.4451 60.7914 48.3243 60.7236 48.501ZM60.0055 48.9441C60.0077 48.9971 60.1596 49.3008 60.343 49.619C60.5697 50.012 60.7292 50.2053 60.8405 50.2221C61.0485 50.2533 61.0502 50.112 60.8456 49.8118C60.7589 49.6845 60.6023 49.4155 60.4978 49.214C60.368 48.9641 60.259 48.8477 60.1546 48.8477C60.0705 48.8477 60.0034 48.8911 60.0055 48.9441ZM64.9192 49.7252C64.2129 50.4969 63.4124 51.1159 62.5795 51.5341C61.7486 51.9515 61.0303 52.1847 59.7869 52.4407C59.3084 52.5392 59.4479 53.2447 59.9456 53.2433C60.2476 53.2425 61.5076 52.9276 62.1076 52.7031C63.397 52.2207 64.7125 51.2983 65.6279 50.2347C66.1216 49.661 66.1961 49.426 65.9538 49.2067C65.6969 48.9742 65.5299 49.0579 64.9192 49.7252ZM59.416 49.417C59.3715 49.533 59.8505 50.4125 60.0129 50.5129C60.0565 50.5399 60.1292 50.525 60.1743 50.4799C60.2322 50.4219 60.168 50.2456 59.9555 49.8789C59.6433 49.3404 59.4944 49.2129 59.416 49.417ZM67.2518 50.0513C67.2518 50.1926 68.5349 52.4463 68.6591 52.5231C68.7903 52.6041 68.9144 52.405 68.824 52.2587C68.7787 52.1855 68.6337 51.9308 68.5016 51.6928C67.7854 50.4011 67.5079 49.9655 67.3864 49.9421C67.2997 49.9254 67.2518 49.9643 67.2518 50.0513ZM58.8457 50.101C58.8474 50.2853 59.362 51.1231 59.4887 51.1479C59.6999 51.1893 59.6399 50.8829 59.347 50.4251C59.0987 50.0369 58.8435 49.8719 58.8457 50.101ZM58.3048 50.76C58.3048 50.9713 58.7887 51.7345 58.9413 51.7639C59.1521 51.8045 59.1057 51.5775 58.8006 51.0752C58.5301 50.6299 58.3048 50.4867 58.3048 50.76ZM66.8239 50.8735C66.8005 50.9342 67.0348 51.4146 67.3444 51.941C67.654 52.4674 67.9556 52.9914 68.0147 53.1055C68.1418 53.3515 68.3205 53.4398 68.3796 53.2857C68.4239 53.1703 68.1644 52.6631 67.4722 51.5123C67.0567 50.8215 66.9022 50.6692 66.8239 50.8735ZM57.7295 51.3106C57.682 51.3875 58.1895 52.3629 58.3185 52.4426C58.3608 52.4687 58.4356 52.45 58.4846 52.4009C58.5521 52.3334 58.5388 52.2516 58.4299 52.0645C58.3507 51.9284 58.2173 51.687 58.1334 51.5279C57.9861 51.2489 57.8222 51.1607 57.7295 51.3106ZM66.2781 51.5058C66.2219 51.6521 67.8204 54.4315 67.9797 54.4644C68.1964 54.5093 68.1115 54.2114 67.7066 53.5057C66.4691 51.3492 66.3839 51.2299 66.2781 51.5058ZM57.4026 52.2919C57.3463 52.4387 57.6651 53.0858 57.8238 53.1467C57.8819 53.1691 57.9653 53.1516 58.009 53.108C58.0634 53.0535 58.0015 52.8928 57.8119 52.5964C57.6599 52.3586 57.5166 52.1642 57.4935 52.1642C57.4705 52.1642 57.4296 52.2217 57.4026 52.2919ZM66.1239 52.8167C66.0493 53.011 67.3683 55.2711 67.58 55.3119C67.7978 55.3539 67.7401 55.1613 67.3162 54.4313C67.097 54.054 66.7964 53.53 66.6482 53.2668C66.3701 52.7733 66.1974 52.6251 66.1239 52.8167ZM65.9406 54.2121C65.9406 54.4077 67.0219 56.1749 67.1416 56.1749C67.322 56.1749 67.268 55.9326 66.9816 55.4576C66.8333 55.2116 66.7119 54.9953 66.7119 54.977C66.7119 54.9588 66.5893 54.7523 66.4395 54.5181C66.1773 54.1082 65.9406 53.9629 65.9406 54.2121ZM61.39 54.3648C61.39 54.4297 61.5331 54.7334 61.7081 55.0396C61.8831 55.3458 62.0953 55.7179 62.1796 55.8664C62.6501 56.6941 62.9749 57.2223 63.042 57.2689C63.1405 57.3373 63.2411 57.2735 63.2411 57.1427C63.2411 57.0487 62.5377 55.7832 61.8779 54.6902C61.6225 54.267 61.39 54.1119 61.39 54.3648ZM59.616 54.4798C59.616 54.6893 60.9389 56.9462 61.0617 56.9462C61.2738 56.9462 61.1292 56.5762 60.487 55.4752C59.8545 54.3907 59.616 54.1181 59.616 54.4798ZM60.5726 54.5086C60.525 54.6326 61.8424 56.9557 61.9877 57.004C62.2382 57.0875 62.1323 56.734 61.6544 55.8923C60.787 54.3643 60.6802 54.2279 60.5726 54.5086ZM65.2497 54.6074C65.2547 54.8271 66.2823 56.5188 66.4277 56.5468C66.6619 56.5919 66.5649 56.3138 66.0287 55.4037C65.54 54.5741 65.2419 54.2694 65.2497 54.6074ZM62.6363 54.8103C62.571 54.8891 62.6813 55.1375 63.1082 55.8732C63.4146 56.4013 63.7168 56.9323 63.7797 57.0533C63.9086 57.3011 64.0633 57.3888 64.1749 57.2773C64.2235 57.2287 64.0174 56.7934 63.5898 56.0412C62.8726 54.7797 62.7708 54.6483 62.6363 54.8103ZM64.5115 54.9443C64.4842 54.9887 64.5997 55.2577 64.7683 55.5421C64.9369 55.8265 65.1702 56.2327 65.2867 56.4449C65.5401 56.9063 65.628 57.0233 65.7211 57.0233C65.9252 57.0233 65.8192 56.7149 65.3133 55.8363C64.7872 54.9229 64.6317 54.7499 64.5115 54.9443ZM63.835 55.3524C63.802 55.4386 64.4252 56.6208 64.8278 57.2354C64.9557 57.4307 65.1693 57.4684 65.1693 57.2956C65.1693 57.1797 65.0779 57.003 64.5295 56.0592C64.0711 55.2702 63.9241 55.1206 63.835 55.3524ZM60.7561 59.3565C60.276 60.1025 59.3078 61.9043 59.3089 62.0495C59.3097 62.1485 59.3633 62.5245 59.428 62.8851C59.4927 63.2457 59.5987 63.8357 59.6637 64.1963C59.8861 65.4316 59.9196 65.6241 60.0068 66.1709C60.0548 66.4722 60.1213 66.7627 60.1545 66.8164C60.2129 66.9108 60.4571 66.8088 63.7424 65.3165C64.0394 65.1816 64.3967 65.0219 64.5365 64.9616C64.7148 64.8847 64.7804 64.8121 64.7563 64.7186C64.716 64.5628 60.9893 59.1939 60.9168 59.1873C60.8899 59.1849 60.8175 59.2611 60.7561 59.3565ZM70.168 60.5425C69.6458 61.2903 68.7883 62.5137 68.2625 63.2613C67.3202 64.6008 67.1522 64.8904 67.3178 64.8904C67.364 64.8904 67.585 64.9755 67.8089 65.0795C69.8326 66.0192 71.8421 66.8862 71.8864 66.8385C71.9161 66.8064 72.1054 65.8603 72.3069 64.7362C72.7869 62.0585 72.7931 62.0182 72.7445 61.8916C72.7216 61.8319 72.4222 61.2922 72.0791 60.6923C71.736 60.0923 71.406 59.5072 71.3458 59.3922C71.2857 59.2771 71.2096 59.1829 71.1769 59.1829C71.1443 59.1829 70.6902 59.7947 70.168 60.5425ZM66.9601 67.1012C66.1743 67.4885 66.1935 68.6924 66.9908 69.0255C67.7442 69.3403 68.4858 68.8466 68.4858 68.0303C68.4858 67.6189 68.226 67.249 67.817 67.0781C67.4904 66.9417 67.2718 66.9476 66.9601 67.1012ZM66.9601 71.1119C66.1698 71.5014 66.1889 72.7012 66.9908 73.0362C67.7256 73.3432 68.4858 72.8508 68.4858 72.0677C68.4858 71.2548 67.6863 70.7539 66.9601 71.1119ZM66.9738 75.1045C66.6098 75.263 66.3855 75.6303 66.3855 76.0683C66.3855 76.5211 66.5555 76.8018 66.952 77.0041C67.4584 77.2625 67.8858 77.1611 68.2838 76.688C68.4371 76.5059 68.4858 76.3631 68.4858 76.0966C68.4858 75.2781 67.7238 74.7781 66.9738 75.1045ZM66.8944 79.1529C66.6131 79.3245 66.4034 79.5981 66.4034 79.7935C66.4034 79.9181 66.4982 79.9306 67.4446 79.9306C68.588 79.9306 68.5993 79.9248 68.3296 79.4824C68.0534 79.0295 67.3585 78.87 66.8944 79.1529Z" fill="#74B9FF"/>
<path fill-rule="evenodd" clip-rule="evenodd" d="M57.5342 34.1055C57.3857 34.139 57.0481 34.206 56.7838 34.2545C56.0759 34.3842 55.4884 34.5806 54.5434 35.0035C54.3195 35.1036 54.1236 35.1856 54.1082 35.1856C54.0927 35.1856 53.8025 35.3417 53.4633 35.5324C52.9011 35.8486 52.8056 35.939 52.3843 36.5544C51.8124 37.3897 51.1105 38.7729 50.8153 39.6462C50.6928 40.0085 50.5926 40.3506 50.5926 40.4063C50.5926 40.5736 51.1933 40.5259 51.6261 40.3241C52.6308 39.8557 53.3584 39.7152 54.6044 39.7487C55.7089 39.7785 55.9517 39.8618 56.1816 40.2898C56.3175 40.5429 56.3218 40.5941 56.2235 40.7903C56.0441 41.148 55.9074 41.2731 55.6408 41.3231L55.3884 41.3704L55.5433 41.6331L55.6984 41.8958H56.3375C56.9496 41.8958 56.9824 41.8868 57.1152 41.6837C57.1916 41.567 57.3013 41.424 57.3592 41.366C57.448 41.2768 57.4444 41.2384 57.3359 41.1185C57.2652 41.0403 57.1908 40.8275 57.1705 40.6456C57.0908 39.9319 57.5801 39.7096 59.121 39.7595C60.4517 39.8026 60.7189 39.86 61.7591 40.3254C62.113 40.4837 62.2858 40.5075 63.0824 40.5075C63.9199 40.5075 64.0322 40.5248 64.3872 40.709C64.8097 40.9281 65.2829 41.3913 65.4005 41.7007L65.4746 41.8958H66.852C67.6096 41.8958 68.2502 41.8749 68.2756 41.8495C68.3011 41.824 68.2852 41.7113 68.2404 41.5988C68.1955 41.4864 68.1313 41.325 68.0977 41.2402C68.0343 41.0799 67.5917 39.6397 67.4815 39.2348C67.3901 38.899 67.2619 38.2821 67.2048 37.9038C67.135 37.4401 66.8459 37.185 66.1968 37.0138C65.9078 36.9376 65.5647 36.8422 65.4344 36.8017C65.3041 36.7612 65.1511 36.7281 65.0944 36.7281C65.0377 36.7281 64.6445 36.619 64.2207 36.4856C63.4401 36.2398 62.9213 35.9403 62.0566 35.2359C61.2681 34.5937 60.7954 34.3938 59.3987 34.1116C58.9332 34.0176 57.9382 34.0143 57.5342 34.1055ZM74.0368 38.7997C73.1423 38.9913 72.4531 39.6544 71.8608 40.8934C71.4859 41.6775 71.4342 41.8958 71.6232 41.8958C71.8845 41.8958 72.1115 42.1177 72.1115 42.3731C72.1115 42.7042 71.8647 42.8984 71.4441 42.8984C71.1401 42.8984 71.1089 42.916 71.1089 43.0867C71.1089 43.1903 71.0778 43.2942 71.0399 43.3176C71.002 43.3411 70.9542 43.4906 70.9338 43.65C70.9136 43.8093 70.8392 44.1826 70.7688 44.4796C70.6984 44.7765 70.6232 45.141 70.602 45.2894C70.512 45.9153 70.3795 46.3876 70.2838 46.4243C70.0924 46.4978 69.9738 46.2923 69.5288 45.1154C69.2843 44.4687 69.0405 43.8356 68.987 43.7083C68.9336 43.581 68.8442 43.3468 68.7884 43.1877L68.6869 42.8984H67.1212C65.7533 42.8984 65.5556 42.9136 65.5556 43.0189C65.5556 43.1371 65.3698 43.7895 65.2494 44.0939C64.9895 44.7512 64.8698 44.9511 64.5878 45.1993C63.9926 45.7227 63.7264 45.766 61.2749 45.7382L59.1153 45.7136L58.6027 45.4587C58.3208 45.3186 57.9458 45.0624 57.7694 44.8896C57.4001 44.5276 56.9961 43.8633 56.995 43.6164C56.9946 43.5235 56.9596 43.426 56.9172 43.3998C56.8747 43.3736 56.84 43.2501 56.84 43.1253C56.84 42.9005 56.8359 42.8984 56.396 42.8984H55.9521L55.8561 43.2057C55.7236 43.6304 55.7295 43.6475 55.9946 43.6086C56.1525 43.5854 56.2815 43.6213 56.3894 43.7184C56.5365 43.8506 56.5456 43.917 56.4996 44.5181C56.472 44.8787 56.4166 45.3126 56.3766 45.4823C56.3365 45.6519 56.303 45.9232 56.302 46.0851C56.301 46.2469 56.2701 46.4378 56.2333 46.5093C56.1966 46.5807 56.1483 46.8503 56.1261 47.1083L56.0857 47.5774L56.4857 47.8166C57.0058 48.1277 57.137 48.3571 56.9543 48.636C56.6941 49.033 56.2858 48.9511 55.4324 48.3308C55.1083 48.0953 55.0661 48.0313 55.0658 47.7761C55.0654 47.4312 55.2837 45.7484 55.3783 45.3666C55.5329 44.7427 55.4971 43.9336 55.3371 44.4375C55.2762 44.6296 54.5832 45.2554 54.2663 45.4046C53.6346 45.7019 53.2749 45.7505 51.7011 45.7514L50.1487 45.7522L50.2516 46.2728C50.5467 47.7653 50.8252 48.6084 51.4426 49.8786C52.3351 51.715 53.5844 53.2715 55.1238 54.4652C55.4526 54.7202 55.7564 54.9561 55.7988 54.9895C56.7251 55.7181 59.6972 57.013 60.4431 57.013C60.6726 57.013 60.7951 57.2048 60.7596 57.5089C60.7326 57.7406 60.7536 57.7819 60.92 57.8237C61.1403 57.879 61.2636 58.0089 61.6737 58.6181C61.8362 58.8595 61.9899 59.0743 62.0155 59.0955C62.0409 59.1167 62.1529 59.2797 62.2643 59.4576C62.4581 59.7669 64.1666 62.2064 64.3107 62.3795C64.3488 62.4253 64.4752 62.6134 64.5915 62.7977C64.7078 62.9819 64.8346 63.17 64.8732 63.2158C64.9119 63.2616 65.1608 63.6112 65.4264 63.9928C65.692 64.3743 65.9646 64.6971 66.0322 64.7101C66.1064 64.7244 66.2265 64.6174 66.335 64.4406C66.4338 64.2794 66.5421 64.1127 66.5755 64.0703C66.6089 64.0279 67.156 63.2469 67.7913 62.3349C68.4266 61.4228 68.9731 60.6417 69.0056 60.599C69.0383 60.5563 69.2193 60.296 69.4079 60.0206C69.5966 59.7451 69.7701 59.5023 69.7936 59.4811C69.817 59.4599 70.0098 59.1829 70.2219 58.8654C70.7361 58.0958 71.0168 57.7843 71.1962 57.7843C71.3382 57.7843 71.3444 57.7163 71.3362 56.261L71.3277 54.7377L71.7388 54.3943C72.4392 53.8096 73.5942 52.5889 74.0614 51.9397C75.1065 50.4875 75.8449 48.9075 76.2724 47.2092C76.4032 46.6893 76.5184 46.2616 76.5284 46.2588C76.5383 46.2559 76.8161 46.1196 77.1458 45.9559C78.4799 45.2934 79.2923 43.9826 79.2957 42.4871C79.2982 41.3787 78.9792 40.541 78.2605 39.7689C77.8905 39.3713 77.834 39.3371 77.6825 39.4182C77.5432 39.4927 77.4192 39.4695 76.9534 39.2816C76.6448 39.157 76.2136 39.0006 75.9953 38.9339C75.5295 38.7917 74.4271 38.7161 74.0368 38.7997ZM76.1311 41.1691C75.3364 41.5067 74.4192 42.4334 74.087 43.2343C73.9697 43.5172 73.9715 43.5427 74.1227 43.755C74.3668 44.0979 74.6717 44.0628 74.9648 43.6582C75.0923 43.4821 75.1967 43.2987 75.1967 43.2508C75.1967 43.0994 75.9019 42.4407 76.32 42.2015C76.5406 42.0752 76.7625 41.9221 76.8129 41.8614C76.9712 41.6706 76.8771 41.3376 76.6236 41.1915C76.4164 41.0722 76.3649 41.0698 76.1311 41.1691ZM50.1744 41.8765C50.148 42.078 50.1062 42.8097 50.0815 43.5027L50.0366 44.7626L51.7607 44.7341C53.4242 44.7066 53.4968 44.6989 53.8229 44.5154C54.2852 44.2554 54.6351 43.8239 54.7944 43.3174C54.9529 42.8133 54.9127 42.5098 54.6294 42.0729C54.3492 41.6408 54.0386 41.5101 53.291 41.5101C52.7356 41.5101 52.6172 41.539 52.0287 41.8186C51.6716 41.9883 51.2918 42.1272 51.1847 42.1272C50.9656 42.1272 50.5155 41.7854 50.5155 41.619C50.5155 41.5591 50.4495 41.5101 50.369 41.5101C50.2524 41.5101 50.2127 41.5849 50.1744 41.8765ZM58.4419 41.7077C58.0923 41.9366 57.8427 42.3986 57.8427 42.8167C57.8427 43.1428 58.036 43.7159 58.2033 43.8856C58.2576 43.9408 58.3462 44.048 58.4002 44.1239C58.4541 44.1998 58.6718 44.363 58.8839 44.4864L59.2696 44.7107L61.3521 44.7334C63.2726 44.7544 63.4555 44.7448 63.7045 44.6104C63.9828 44.4601 64.3043 43.9832 64.3153 43.7044C64.3187 43.6175 64.3535 43.5134 64.3927 43.4731C64.5148 43.3474 64.6144 42.5929 64.5483 42.2948C64.5079 42.113 64.3823 41.9216 64.1978 41.7608C63.9336 41.5305 63.8673 41.5101 63.3831 41.5101C62.9808 41.5101 62.8561 41.5359 62.8561 41.619C62.8561 41.7817 62.408 42.1272 62.197 42.1272C62.0956 42.1272 61.7285 41.9883 61.3812 41.8186L60.7499 41.5101L59.7398 41.5147C58.8025 41.5188 58.7089 41.5328 58.4419 41.7077ZM53.2839 41.9341C52.6713 42.2671 52.6804 43.1606 53.2997 43.4808C53.6366 43.6551 53.9206 43.6178 54.2358 43.358C54.5812 43.0733 54.6745 42.7199 54.4956 42.374C54.2428 41.8852 53.7218 41.6961 53.2839 41.9341ZM59.1799 42.0307C58.8289 42.3435 58.7346 42.6449 58.8795 42.9918C59.1417 43.6191 59.7934 43.7793 60.2668 43.3328C60.497 43.1157 60.5422 43.0203 60.5422 42.7517C60.5422 41.9751 59.7268 41.5435 59.1799 42.0307ZM65.3304 46.8204C65.2518 46.9672 65.2578 46.9819 65.7047 47.7454C65.8851 48.0533 66.1062 48.1589 66.2121 47.9874C66.2741 47.8871 66.1069 47.3719 66.0123 47.3719C65.9732 47.3719 65.9412 47.3367 65.9412 47.2937C65.9412 47.158 65.5984 46.6797 65.5004 46.6787C65.4489 46.6782 65.3724 46.7419 65.3304 46.8204ZM64.5628 46.9301C64.4282 47.0647 64.4546 47.1737 64.7528 47.7164C64.9751 48.1207 65.0666 48.2203 65.2156 48.2203C65.4733 48.2203 65.4574 48.0151 65.1566 47.4591C64.8841 46.9554 64.7008 46.7921 64.5628 46.9301ZM66.3524 47.0311C66.26 47.2719 66.7834 48.1146 66.9788 48.0396C67.1636 47.9687 67.1171 47.5995 66.88 47.2566C66.6453 46.917 66.4312 46.8255 66.3524 47.0311ZM63.6557 47.1779C63.5887 47.3524 64.1966 48.4085 64.3801 48.4365C64.5853 48.4678 64.658 48.2517 64.5271 47.999C64.2912 47.5438 64.1238 47.2578 64.0378 47.1634C63.9155 47.0289 63.7099 47.0368 63.6557 47.1779ZM62.8565 47.3328C62.7124 47.5065 63.3591 48.6223 63.5852 48.59C63.6929 48.5746 63.7508 48.5 63.7674 48.3553C63.7809 48.2386 63.7549 48.1432 63.7096 48.1432C63.6644 48.1432 63.6274 48.109 63.6274 48.0672C63.6274 47.9214 63.1506 47.2177 63.0518 47.2177C62.9969 47.2177 62.9091 47.2695 62.8565 47.3328ZM62.0878 47.6383C62.0139 47.7272 62.0239 47.8029 62.1362 48.0047C62.214 48.1445 62.299 48.2762 62.3251 48.2975C62.3512 48.3187 62.4441 48.4772 62.5316 48.6497C62.7563 49.0933 62.9062 49.206 63.0628 49.0493C63.1738 48.9383 63.1688 48.8944 63.0064 48.5546C62.9084 48.3495 62.8044 48.1644 62.7754 48.1432C62.7463 48.122 62.6983 48.0265 62.6684 47.9311C62.6386 47.8357 62.582 47.7576 62.5424 47.7576C62.5028 47.7576 62.4704 47.7055 62.4704 47.6419C62.4704 47.4939 62.2096 47.4915 62.0878 47.6383ZM61.4401 47.9769C61.3196 48.11 61.3261 48.1441 61.5465 48.5359C61.6756 48.7653 61.8015 49.0138 61.8263 49.088C61.8511 49.1622 61.9021 49.223 61.9396 49.223C61.977 49.223 62.0077 49.2714 62.0077 49.3304C62.0077 49.4607 62.1961 49.5432 62.3547 49.4823C62.5321 49.4142 62.4988 49.2901 62.1247 48.6249C61.6984 47.8668 61.6129 47.7859 61.4401 47.9769ZM60.6524 48.4769C60.6116 48.5831 60.9302 49.2321 61.2553 49.7051C61.3355 49.8217 61.4682 49.9172 61.5501 49.9172C61.7638 49.9172 61.7437 49.5991 61.5063 49.223C61.4003 49.055 61.3135 48.8822 61.3135 48.8389C61.3135 48.7956 61.287 48.7602 61.2547 48.7602C61.2223 48.7602 61.1616 48.6821 61.1197 48.5867C61.0308 48.3841 60.7163 48.3103 60.6524 48.4769ZM59.9593 48.8446C59.9155 48.9154 60.2174 49.6146 60.4053 49.8774C60.7259 50.326 60.8114 50.3882 60.9588 50.2798C61.0921 50.1819 61.0957 50.15 60.9978 49.929C60.9387 49.7952 60.864 49.6858 60.8319 49.6858C60.7998 49.6858 60.7736 49.6454 60.7736 49.5961C60.7736 49.5468 60.6659 49.3385 60.5342 49.1334C60.302 48.7714 60.075 48.6574 59.9593 48.8446ZM65.313 49.1967C65.0152 49.5329 64.0634 50.4838 63.8574 50.6509C63.3504 51.0621 61.9185 51.8454 61.6739 51.8454C61.6199 51.8454 61.5427 51.8743 61.5025 51.9096C61.4621 51.9449 61.1515 52.035 60.8122 52.1099C59.8144 52.3297 59.6071 52.4053 59.4838 52.5935C59.3877 52.7401 59.3835 52.8119 59.4603 52.9972C59.5116 53.1212 59.6104 53.2444 59.6798 53.271C59.8455 53.3346 60.7637 53.2349 60.8178 53.1475C60.8409 53.1101 60.9342 53.0794 61.025 53.0794C61.2593 53.0794 62.0848 52.8258 62.0848 52.7538C62.0848 52.7208 62.1465 52.6938 62.2219 52.6938C62.4109 52.6938 63.833 51.96 64.013 51.7696C64.0342 51.7472 64.1904 51.6263 64.3601 51.5011C65.1739 50.9004 66.1726 49.7933 66.1726 49.4919C66.1726 49.2645 65.8956 48.9916 65.6648 48.9916C65.5712 48.9916 65.4129 49.0839 65.313 49.1967ZM59.3082 49.4217C59.3082 49.4885 59.4497 49.7856 59.6228 50.0818C59.8766 50.5164 59.9695 50.6159 60.104 50.5966C60.3612 50.5598 60.3443 50.3581 60.045 49.8902C59.8943 49.6546 59.7709 49.4254 59.7709 49.381C59.7709 49.3365 59.6668 49.3001 59.5395 49.3001C59.3803 49.3001 59.3082 49.3381 59.3082 49.4217ZM67.2267 49.8915C67.1113 50.0068 67.1957 50.2364 67.5995 50.9062C67.8328 51.2932 68.0256 51.6368 68.0279 51.6698C68.0382 51.8178 68.6155 52.5671 68.7318 52.5833C69.0008 52.6209 68.9576 52.2532 68.6361 51.7682C68.5658 51.6622 68.3941 51.3672 68.2545 51.1127C67.6465 50.0045 67.403 49.7152 67.2267 49.8915ZM58.7683 50.1435C58.7683 50.2735 58.7968 50.3799 58.8317 50.3799C58.8666 50.3799 58.9703 50.5303 59.0621 50.7141C59.3016 51.1937 59.461 51.3231 59.6456 51.1876C59.8063 51.0697 59.8061 51.0688 59.4356 50.4185C59.2326 50.062 59.1257 49.9501 58.9702 49.9314C58.7909 49.9097 58.7683 49.9335 58.7683 50.1435ZM58.2427 50.6326C58.1841 50.7033 58.197 50.8066 58.2887 50.999C58.3589 51.1464 58.4435 51.2785 58.4766 51.2926C58.5098 51.3068 58.5369 51.3624 58.5369 51.4163C58.5369 51.4702 58.6249 51.6094 58.7325 51.7255C58.8917 51.8973 58.9493 51.9192 59.0411 51.843C59.1625 51.7422 59.1932 51.4931 59.0917 51.4304C59.0576 51.4093 58.932 51.199 58.8126 50.9631C58.5939 50.5309 58.4138 50.4264 58.2427 50.6326ZM66.759 50.8112C66.7146 50.9271 67.0911 51.7021 67.417 52.1658C67.4961 52.2784 67.5609 52.4061 67.5609 52.4495C67.5609 52.4929 67.6044 52.5744 67.6575 52.6305C67.7106 52.6865 67.8235 52.865 67.9082 53.0272C68.0971 53.3889 68.2176 53.4959 68.3698 53.4375C68.6235 53.3402 68.5688 53.2129 67.5131 51.4481C67.3697 51.2084 67.2524 50.989 67.2524 50.9606C67.2524 50.8666 67.0341 50.6884 66.9191 50.6884C66.857 50.6884 66.7849 50.7437 66.759 50.8112ZM57.7077 51.2023C57.6036 51.2443 57.5744 51.5076 57.6692 51.5497C57.7234 51.5738 57.913 51.8944 58.1055 52.2875C58.1518 52.3822 58.2332 52.4765 58.2862 52.4972C58.4244 52.5509 58.614 52.4633 58.614 52.3456C58.614 52.2027 58.241 51.5024 58.0634 51.3118C57.9097 51.1467 57.8733 51.1355 57.7077 51.2023ZM66.2122 51.4565C66.1721 51.5827 66.4038 52.1527 66.5583 52.3079C66.5795 52.3293 66.6346 52.4161 66.6809 52.501C67.4202 53.8574 67.799 54.4752 67.9202 54.5217C67.9837 54.546 68.0882 54.5135 68.1524 54.4493C68.2773 54.3243 68.2717 54.3081 67.88 53.6579C67.8033 53.5306 67.634 53.2356 67.5037 53.0023C67.157 52.3813 66.7382 51.6777 66.5971 51.479C66.4454 51.2653 66.276 51.2554 66.2122 51.4565ZM57.3441 52.2006C57.2391 52.3058 57.2399 52.3438 57.3523 52.5638C57.5775 53.0046 57.7733 53.2337 57.9251 53.2337C58.1457 53.2337 58.1169 52.8933 57.8622 52.4907C57.6153 52.1004 57.5057 52.0391 57.3441 52.2006ZM66.0558 52.6956C65.994 52.7956 66.0868 53.2337 66.1698 53.2337C66.2039 53.2337 66.2512 53.2945 66.275 53.3687C66.3175 53.5011 66.5992 54.0111 67.0098 54.6991C67.1237 54.89 67.2545 55.1156 67.3004 55.2005C67.4045 55.3929 67.6796 55.443 67.7419 55.2808C67.7831 55.1733 67.6681 54.8006 67.5625 54.6991C67.5404 54.6779 67.4845 54.5912 67.4382 54.5063C66.4914 52.7711 66.2249 52.422 66.0558 52.6956ZM65.9605 53.9832C65.809 54.0376 65.847 54.2894 66.0569 54.622C66.163 54.79 66.2497 54.9463 66.2497 54.9695C66.2497 54.9925 66.3886 55.2313 66.5583 55.5C66.7279 55.7686 66.8668 56.0132 66.8668 56.0434C66.8668 56.1638 67.0938 56.3157 67.2081 56.2718C67.3913 56.2015 67.3556 55.9718 67.0859 55.4855C66.9519 55.2439 66.8044 54.9781 66.7581 54.895C66.7118 54.8117 66.6306 54.6964 66.5775 54.6387C66.5246 54.5811 66.4811 54.4843 66.4811 54.4237C66.4811 54.3631 66.4464 54.3135 66.404 54.3135C66.3616 54.3135 66.3269 54.2627 66.3269 54.2005C66.3269 54.0682 66.0996 53.9334 65.9605 53.9832ZM61.3283 54.2843C61.2766 54.3767 61.3881 54.6323 61.7575 55.2677C62.0321 55.7398 62.3261 56.2475 62.411 56.396C62.9119 57.273 62.9494 57.3215 63.127 57.3215C63.3839 57.3215 63.3977 57.1771 63.1782 56.7816C63.0723 56.5907 62.9478 56.3651 62.9016 56.2803C62.8553 56.1954 62.8002 56.1087 62.7789 56.0874C62.7577 56.0662 62.6748 55.9273 62.5947 55.7789C61.7632 54.2391 61.5165 53.948 61.3283 54.2843ZM59.5833 54.2954C59.4528 54.426 59.6103 54.814 60.1303 55.6424C60.2296 55.8007 60.3108 55.9627 60.3108 56.0024C60.3108 56.0421 60.3368 56.0861 60.3687 56.1003C60.4005 56.1145 60.4918 56.2546 60.5718 56.4117C60.7847 56.8307 60.9729 57.007 61.1562 56.959C61.3026 56.9208 61.3885 56.6274 61.2533 56.6274C61.2202 56.6274 61.1526 56.5319 61.1032 56.4153C61.0537 56.2986 60.7598 55.7724 60.45 55.2459C59.9422 54.3831 59.7292 54.1495 59.5833 54.2954ZM60.4932 54.4286C60.4435 54.5581 60.6895 55.1594 60.7929 55.1611C60.8247 55.1615 60.8507 55.1915 60.8507 55.2275C60.8507 55.3159 61.6897 56.7849 61.8374 56.9552C61.9018 57.0294 62.0005 57.0901 62.0567 57.0901C62.1774 57.0901 62.2908 56.7103 62.1916 56.6384C62.1541 56.6111 62.0855 56.5194 62.0392 56.4345C61.7012 55.815 61.4287 55.3315 61.3438 55.2005C61.2889 55.1156 61.1616 54.89 61.0608 54.6991C60.8662 54.3302 60.5828 54.1951 60.4932 54.4286ZM65.2214 54.4421C65.1149 54.5484 65.1798 54.7345 65.517 55.2899C65.7079 55.6042 65.8641 55.8771 65.8641 55.8962C65.8641 56.0043 66.3549 56.7045 66.4306 56.7045C66.4804 56.7045 66.5623 56.6385 66.6126 56.558C66.6894 56.4352 66.662 56.3415 66.4431 55.978C66.2995 55.7396 66.1603 55.4758 66.1336 55.3918C66.1069 55.3078 66.0528 55.239 66.0132 55.239C65.9736 55.239 65.9412 55.2057 65.9412 55.1651C65.9412 55.1244 65.846 54.9335 65.7297 54.7409C65.5357 54.4196 65.3518 54.3116 65.2214 54.4421ZM62.5476 54.859C62.5476 54.9469 62.7422 55.3547 62.9802 55.7652C63.2181 56.1758 63.5003 56.6679 63.6072 56.8587C63.8956 57.3737 64.0154 57.4927 64.1404 57.3889C64.2954 57.2604 64.2667 57.0047 64.0634 56.7031C63.8888 56.4438 63.756 56.2138 63.1854 55.1812C62.9732 54.7971 62.8813 54.6991 62.7333 54.6991C62.5968 54.6991 62.5476 54.7416 62.5476 54.859ZM64.4855 54.9104C64.4037 55.0567 64.6627 55.588 65.2945 56.5695C65.623 57.0799 65.8232 57.2092 65.9149 56.9702C65.9644 56.8414 65.8194 56.5219 65.4206 55.8808C65.2827 55.6592 65.1699 55.4582 65.1699 55.434C65.1699 55.41 65.0827 55.2521 64.9761 55.0832C64.7679 54.7533 64.6054 54.6961 64.4855 54.9104ZM63.7955 55.2886C63.716 55.4308 63.7633 55.7018 63.8678 55.7018C63.9052 55.7018 63.9359 55.7315 63.9359 55.7679C63.9359 55.8262 64.4961 56.8328 64.7899 57.3022C64.9136 57.4998 65.153 57.5323 65.219 57.3606C65.2717 57.2232 64.9946 56.6695 64.3407 55.6054C64.0606 55.1496 63.9193 55.0674 63.7955 55.2886ZM60.7483 59.3847C60.7245 59.4589 60.5952 59.7106 60.4612 59.9439C59.2468 62.0564 59.2926 61.9247 59.4679 62.8065C59.5133 63.0349 59.5791 63.3954 59.614 63.6075C59.649 63.8196 59.7719 64.5138 59.8871 65.1501C60.0024 65.7864 60.114 66.4198 60.1351 66.5577C60.1562 66.6956 60.2005 66.8084 60.2335 66.8084C60.2892 66.8084 60.5728 66.6836 61.8344 66.1042C62.0996 65.9825 62.3313 65.8828 62.3493 65.8828C62.3673 65.8828 62.6535 65.7581 62.9854 65.6056C63.3173 65.4531 63.8082 65.2275 64.0763 65.1043C64.3444 64.981 64.5959 64.8801 64.6354 64.8801C64.7866 64.8801 64.6949 64.6233 64.3794 64.1629C64.1991 63.8999 64.0329 63.6673 64.01 63.6461C63.9872 63.6249 63.817 63.3819 63.6319 63.1062C63.2531 62.5419 61.5291 60.086 61.3037 59.7896C61.223 59.6836 61.1173 59.5187 61.0686 59.4233C60.963 59.216 60.8084 59.1974 60.7483 59.3847ZM70.3266 60.3874C69.8922 61.0131 69.0383 62.2326 68.4289 63.0975C67.8197 63.9622 67.3369 64.7084 67.3562 64.7557C67.3754 64.8029 67.8199 65.0301 68.3438 65.2606C68.8677 65.491 69.5393 65.7903 69.8362 65.9255C70.1332 66.0608 70.5497 66.2496 70.7618 66.3448C70.9739 66.4401 71.2841 66.5834 71.4511 66.6632C71.6182 66.743 71.7806 66.8084 71.812 66.8084C71.8435 66.8084 71.9068 66.6088 71.9527 66.3649C71.9987 66.1209 72.0693 65.7478 72.1096 65.5357C72.1499 65.3236 72.2382 64.8204 72.306 64.4174C72.3737 64.0144 72.4591 63.5458 72.4959 63.3761C72.5326 63.2064 72.6028 62.8176 72.652 62.512L72.7413 61.9564L72.2931 61.1623C72.0466 60.7254 71.7654 60.2293 71.6682 60.0596C71.571 59.8899 71.4336 59.6383 71.363 59.5004C71.2923 59.3625 71.208 59.2497 71.1755 59.2497C71.143 59.2497 70.761 59.7617 70.3266 60.3874ZM66.8163 67.1165C66.1191 67.5763 66.1956 68.684 66.9507 69.0607C67.3091 69.2395 67.5996 69.2309 67.9554 69.0309C68.2667 68.8559 68.5636 68.3792 68.5636 68.0541C68.5636 67.7951 68.3761 67.409 68.1483 67.1989C67.8593 66.9323 67.1611 66.8891 66.8163 67.1165ZM66.9096 71.0842C65.9035 71.6706 66.2953 73.1695 67.4501 73.152C67.8911 73.1453 68.2241 72.9372 68.411 72.551C68.604 72.1522 68.603 71.9518 68.4058 71.5444C68.2882 71.3015 68.1605 71.1772 67.9052 71.0572C67.4766 70.8558 67.293 70.8607 66.9096 71.0842ZM66.9384 75.0593C66.5974 75.2396 66.5114 75.3413 66.377 75.7234C66.2902 75.9701 66.2883 76.0845 66.3667 76.3493C66.5256 76.8858 66.8803 77.1436 67.4597 77.1436C67.8017 77.1436 67.906 77.1068 68.1358 76.905C68.7649 76.3526 68.6418 75.4219 67.888 75.0321C67.5742 74.8699 67.2808 74.8783 66.9384 75.0593ZM66.9452 79.0603C66.6606 79.213 66.4479 79.4653 66.3666 79.7467L66.3165 79.9202H67.4328H68.5492L68.5055 79.7467C68.4 79.3267 67.8863 78.927 67.444 78.9208C67.3161 78.919 67.0916 78.9818 66.9452 79.0603Z" fill="#FCD5BC"/>
<path fill-rule="evenodd" clip-rule="evenodd" d="M61.1207 25.02C60.8662 25.0516 60.2935 25.0818 59.8481 25.0872C58.9836 25.0975 58.0864 25.2758 57.7325 25.5077C57.6193 25.5819 57.433 25.7821 57.3184 25.9526C57.0129 26.4073 56.6809 26.791 56.593 26.791C56.5507 26.791 56.0916 26.9941 55.5726 27.2423C54.2392 27.8802 53.9279 28.1951 53.6031 29.2344C53.5458 29.4182 53.214 29.9214 52.8312 30.4053C51.6848 31.8544 51.5447 32.2357 51.3257 34.5039C51.1782 36.0305 51.1752 36.6551 51.315 36.7088C51.3729 36.731 51.8154 36.4858 52.2984 36.164C54.4706 34.7165 56.4702 34.0251 58.4984 34.0204C60.1095 34.0166 60.9544 34.2912 62.1234 35.1986C63.4209 36.2057 63.5129 36.2491 65.3119 36.7017C66.5222 37.0061 66.8569 37.1291 67.027 37.332C67.1931 37.5301 67.3296 37.8715 67.3296 38.0888C67.3296 38.3474 67.7274 39.8464 68.0875 40.9441C68.2544 41.4532 68.3757 41.8957 68.3571 41.9275C68.3384 41.9594 67.6867 41.9854 66.9089 41.9854H65.4945L65.2443 41.5954C64.7424 40.8132 64.2642 40.592 63.0729 40.5909C62.3257 40.5902 62.1585 40.5648 61.7465 40.3897C60.5937 39.8997 59.6148 39.7499 58.2877 39.8604C57.715 39.9081 57.591 39.9443 57.4225 40.1128C57.1739 40.3614 57.1559 40.7827 57.3835 41.0249L57.5411 41.1928L57.2948 41.5891L57.0484 41.9854H56.3667H55.6851L55.4913 41.6784C55.2569 41.307 55.2555 41.2912 55.4569 41.2912C55.8661 41.2912 56.1401 40.9933 56.1435 40.5445C56.1456 40.2673 56.1106 40.1968 55.8953 40.0431C55.6574 39.8735 55.5794 39.8643 54.372 39.8645C53.0228 39.8647 52.6123 39.9446 51.6725 40.39C51.3612 40.5375 51.1901 40.5547 50.0142 40.5565C48.771 40.5584 48.6835 40.5684 48.3267 40.7507C47.9124 40.9623 47.4784 41.4187 47.3087 41.8212C47.1235 42.2605 47.1727 43.0895 47.4301 43.8676C47.7053 44.6995 47.9507 45.0706 48.4226 45.3688C48.9655 45.7117 49.3354 45.7497 51.5568 45.6908C53.2354 45.6463 53.6186 45.6147 53.9092 45.4968C54.4422 45.2806 55.0583 44.7848 55.323 44.359C55.4545 44.1475 55.5747 44.0125 55.5902 44.0591C55.6187 44.1444 55.2676 46.8257 55.1455 47.4548C55.1092 47.6419 55.1075 47.869 55.1419 47.9592C55.2182 48.1601 56.3141 48.8498 56.5568 48.8498C56.7923 48.8498 56.9172 48.7102 56.9172 48.4471C56.9172 48.2759 56.8415 48.1767 56.5611 47.9805C56.3653 47.8435 56.1576 47.6968 56.0997 47.6543C56.015 47.5924 56.0095 47.4786 56.0719 47.0759C56.4564 44.5927 56.5148 44.0294 56.4057 43.8557C56.273 43.6446 55.9518 43.6261 55.735 43.8172C55.5863 43.9482 55.5835 43.9465 55.6387 43.7593C55.67 43.6533 55.7122 43.4797 55.7326 43.3737C55.8447 42.79 55.793 42.8338 56.3701 42.8338H56.8997L56.9526 43.2002C57.0833 44.105 57.715 44.9462 58.596 45.3883L59.1154 45.649H61.4292C63.7116 45.649 63.7477 45.6465 64.0837 45.4674C64.7564 45.1086 65.0001 44.7358 65.365 43.5071L65.5659 42.8307L67.1566 42.8515L68.7472 42.8724L69.4138 44.6034C69.7805 45.5556 70.1205 46.3479 70.1694 46.3642C70.2963 46.4065 70.3773 46.155 70.5614 45.1477C70.7694 44.0097 70.847 43.6466 70.9738 43.2194C71.0733 42.8837 71.0883 42.871 71.4311 42.8312C71.8335 42.7845 72.0344 42.6522 72.0344 42.4336C72.0344 42.1562 71.8864 41.9854 71.6461 41.9854C71.3657 41.9854 71.3626 41.9232 71.6105 41.2907C71.879 40.6056 72.3492 39.838 72.7431 39.442C73.6735 38.5066 75.1463 38.4271 76.9927 39.2129C77.2864 39.3379 77.5397 39.4401 77.5556 39.4401C77.6389 39.4401 77.8934 38.7904 78.0088 38.2832C78.5242 36.0162 78.0053 33.4414 76.6019 31.303C76.2534 30.7721 74.7087 29.1574 74.0517 28.6375C73.0987 27.8832 71.3134 26.8458 70.0291 26.3C69.0669 25.8911 67.6342 25.4911 65.9798 25.1695C64.9008 24.9597 62.2611 24.8785 61.1207 25.02ZM75.7752 41.4391C75.2677 41.7334 74.7849 42.2099 74.4161 42.7804C74.0977 43.2731 74.041 43.5953 74.2381 43.7924C74.4996 44.0538 74.75 43.9207 75.0766 43.3465C75.3572 42.8535 75.7898 42.4294 76.314 42.1335C76.7691 41.8767 76.8936 41.6567 76.7432 41.3755C76.6192 41.144 76.2414 41.1688 75.7752 41.4391ZM49.625 41.4391C48.7686 41.4887 48.5315 41.5885 48.2777 42.0057C48.0193 42.4306 48.0195 42.6282 48.2786 43.4624C48.5551 44.3522 48.7626 44.6223 49.2762 44.7606C49.4931 44.819 50.2467 44.8407 51.5059 44.8247C53.3536 44.8013 53.4185 44.7951 53.7814 44.6098C54.47 44.258 54.9072 43.5748 54.9102 42.8454C54.9135 42.0468 54.4983 41.5941 53.6115 41.4292C53.069 41.3283 52.6238 41.4308 51.7966 41.847C51.1965 42.149 50.9016 42.1051 50.6288 41.6731C50.523 41.5055 50.4282 41.3741 50.4181 41.3813C50.4081 41.3884 50.0511 41.4144 49.625 41.4391ZM58.7874 41.509C58.296 41.684 58.1258 41.83 57.9218 42.2513C57.725 42.6579 57.7248 42.9503 57.921 43.4748C58.1048 43.9659 58.5178 44.4111 58.9997 44.6375C59.3205 44.7882 59.4996 44.8023 61.3654 44.8245C63.2676 44.847 63.4017 44.8394 63.6907 44.6919C64.0816 44.4925 64.2596 44.198 64.5071 43.3408C64.6698 42.7773 64.6919 42.6007 64.6292 42.3675C64.4775 41.8045 64.1138 41.5082 63.4568 41.4126C63.0685 41.3562 62.779 41.4513 62.779 41.6354C62.779 41.788 62.4052 42.0625 62.1975 42.0625C62.1013 42.0625 61.7171 41.916 61.3437 41.7368C60.7135 41.4344 60.6124 41.4095 59.9287 41.3879C59.3605 41.37 59.1 41.3977 58.7874 41.509ZM53.3217 42.0266C52.7415 42.3219 52.7725 43.2036 53.3718 43.4518C54.0044 43.7139 54.6599 43.1253 54.4485 42.4849C54.2864 41.9938 53.786 41.7902 53.3217 42.0266ZM59.3468 41.9978C58.8929 42.2474 58.772 42.8802 59.1088 43.2437C59.6076 43.7819 60.4651 43.473 60.4651 42.7551C60.4651 42.3579 60.368 42.1731 60.081 42.0247C59.8174 41.8884 59.5627 41.879 59.3468 41.9978ZM65.3816 46.8899C65.2693 47.0022 65.8811 48.0014 66.0622 48.0014C66.2213 48.0014 66.1983 47.81 65.9991 47.4763C65.9036 47.3165 65.7872 47.1176 65.7402 47.0344C65.651 46.8763 65.4687 46.8028 65.3816 46.8899ZM64.553 47.11C64.553 47.2513 64.9772 48.0276 65.1185 48.145C65.1741 48.1911 65.2583 48.1965 65.3208 48.1578C65.4066 48.1048 65.3679 47.9878 65.1248 47.5654C64.8365 47.0648 64.553 46.8389 64.553 47.11ZM66.404 47.1144C66.404 47.2918 66.772 47.901 66.9116 47.9545C67.1214 48.035 67.1096 47.7972 66.8848 47.4145C66.6614 47.0342 66.404 46.8736 66.404 47.1144ZM63.7045 47.2631C63.7045 47.3883 64.2256 48.2892 64.3382 48.3588C64.3789 48.3839 64.4467 48.3699 64.4888 48.3278C64.6236 48.193 64.0271 47.153 63.815 47.153C63.7542 47.153 63.7045 47.2026 63.7045 47.2631ZM62.9103 47.4102C62.8549 47.5545 63.4143 48.4967 63.5736 48.5274C63.7639 48.5641 63.7376 48.3567 63.4987 47.938C63.1582 47.3413 62.9934 47.1935 62.9103 47.4102ZM62.162 47.7673C62.162 47.947 62.8348 49.0812 62.9414 49.0812C63.1337 49.0812 63.0685 48.8098 62.7394 48.2392C62.3931 47.6388 62.162 47.4499 62.162 47.7673ZM61.437 48.066C61.3648 48.1828 62.103 49.4669 62.2425 49.4669C62.4395 49.4669 62.3762 49.2024 62.0413 48.6259C61.7078 48.0522 61.5411 47.8976 61.437 48.066ZM60.7243 48.5031C60.669 48.6471 61.3701 49.8525 61.5092 49.8525C61.7679 49.8525 61.7315 49.7338 61.1858 48.799C60.9805 48.4473 60.7921 48.3264 60.7243 48.5031ZM60.0062 48.9462C60.0084 48.9993 60.1602 49.303 60.3437 49.6211C60.5704 50.0142 60.7299 50.2075 60.8412 50.2243C61.0492 50.2555 61.0509 50.1141 60.8463 49.8139C60.7596 49.6867 60.603 49.4177 60.4985 49.2162C60.3687 48.9662 60.2597 48.8498 60.1553 48.8498C60.0712 48.8498 60.0041 48.8933 60.0062 48.9462ZM64.9199 49.7274C64.2136 50.4991 63.4131 51.118 62.5802 51.5363C61.7493 51.9536 61.031 52.1869 59.7876 52.4429C59.3091 52.5414 59.4486 53.2469 59.9463 53.2455C60.2482 53.2446 61.5083 52.9298 62.1083 52.7053C63.3977 52.2229 64.7132 51.3004 65.6286 50.2368C66.1223 49.6632 66.1968 49.4281 65.9545 49.2089C65.6976 48.9764 65.5306 49.0601 64.9199 49.7274ZM59.4167 49.4192C59.3722 49.5352 59.8512 50.4147 60.0136 50.515C60.0572 50.542 60.1299 50.5272 60.175 50.482C60.2329 50.4241 60.1687 50.2477 59.9562 49.881C59.6439 49.3425 59.4951 49.215 59.4167 49.4192ZM67.2525 50.0534C67.2525 50.1948 68.5356 52.4484 68.6598 52.5252C68.791 52.6062 68.915 52.4072 68.8247 52.2608C68.7794 52.1877 68.6344 51.933 68.5023 51.695C67.7861 50.4033 67.5086 49.9677 67.3871 49.9443C67.3004 49.9276 67.2525 49.9664 67.2525 50.0534ZM58.8464 50.1032C58.8481 50.2874 59.3627 51.1253 59.4894 51.15C59.7006 51.1915 59.6405 50.885 59.3477 50.4273C59.0994 50.0391 58.8442 49.8741 58.8464 50.1032ZM58.3055 50.7622C58.3055 50.9735 58.7894 51.7367 58.942 51.7661C59.1528 51.8066 59.1064 51.5796 58.8013 51.0774C58.5307 50.632 58.3055 50.4889 58.3055 50.7622ZM66.8246 50.8757C66.8012 50.9364 67.0355 51.4168 67.3451 51.9432C67.6547 52.4696 67.9563 52.9936 68.0153 53.1076C68.1425 53.3537 68.3212 53.4419 68.3803 53.2878C68.4246 53.1725 68.1651 52.6653 67.4729 51.5145C67.0574 50.8236 66.9029 50.6714 66.8246 50.8757ZM57.7302 51.3128C57.6827 51.3897 58.1902 52.3651 58.3192 52.4447C58.3614 52.4709 58.4363 52.4521 58.4853 52.4031C58.5528 52.3356 58.5395 52.2538 58.4306 52.0666C58.3514 51.9306 58.218 51.6892 58.1341 51.5301C57.9868 51.2511 57.8229 51.1628 57.7302 51.3128ZM66.2788 51.5079C66.2226 51.6543 67.8211 54.4336 67.9804 54.4666C68.1971 54.5115 68.1122 54.2136 67.7073 53.5079C66.4698 51.3513 66.3846 51.2321 66.2788 51.5079ZM57.4033 52.294C57.347 52.4409 57.6657 53.088 57.8245 53.1489C57.8826 53.1713 57.966 53.1538 58.0097 53.1101C58.0641 53.0557 58.0022 52.8949 57.8126 52.5985C57.6606 52.3608 57.5173 52.1664 57.4942 52.1664C57.4711 52.1664 57.4303 52.2238 57.4033 52.294ZM66.1246 52.8189C66.05 53.0132 67.369 55.2733 67.5806 55.3141C67.7985 55.356 67.7408 55.1634 67.3169 54.4334C67.0977 54.0562 66.7971 53.5322 66.6489 53.2689C66.3708 52.7755 66.1981 52.6272 66.1246 52.8189ZM65.9413 54.2142C65.9413 54.4099 67.0225 56.1771 67.1422 56.1771C67.3227 56.1771 67.2687 55.9347 66.9823 55.4598C66.834 55.2137 66.7126 54.9975 66.7126 54.9792C66.7126 54.961 66.59 54.7544 66.4402 54.5203C66.178 54.1103 65.9413 53.9651 65.9413 54.2142ZM61.3907 54.3669C61.3907 54.4319 61.5338 54.7355 61.7088 55.0418C61.8838 55.348 62.0959 55.7201 62.1803 55.8685C62.6508 56.6963 62.9756 57.2245 63.0427 57.2711C63.1412 57.3395 63.2418 57.2757 63.2418 57.1449C63.2418 57.0509 62.5384 55.7854 61.8786 54.6923C61.6232 54.2692 61.3907 54.1141 61.3907 54.3669ZM59.6167 54.4819C59.6167 54.6915 60.9396 56.9483 61.0624 56.9483C61.2744 56.9483 61.1299 56.5784 60.4877 55.4773C59.8552 54.3928 59.6167 54.1203 59.6167 54.4819ZM60.5733 54.5108C60.5257 54.6347 61.8431 56.9578 61.9884 57.0062C62.2389 57.0896 62.133 56.7362 61.6551 55.8945C60.7877 54.3665 60.6809 54.23 60.5733 54.5108ZM65.2504 54.6096C65.2554 54.8292 66.283 56.521 66.4284 56.549C66.6626 56.5941 66.5656 56.316 66.0294 55.4058C65.5407 54.5763 65.2426 54.2715 65.2504 54.6096ZM62.637 54.8125C62.5717 54.8912 62.682 55.1397 63.1089 55.8754C63.4153 56.4034 63.7175 56.9345 63.7804 57.0555C63.9093 57.3033 64.064 57.391 64.1756 57.2795C64.2242 57.2309 64.0181 56.7956 63.5905 56.0434C62.8732 54.7819 62.7715 54.6505 62.637 54.8125ZM64.5122 54.9465C64.4849 54.9908 64.6004 55.2598 64.769 55.5442C64.9376 55.8287 65.1709 56.2349 65.2874 56.447C65.5408 56.9085 65.6287 57.0255 65.7218 57.0255C65.9258 57.0255 65.8199 56.717 65.314 55.8385C64.7879 54.925 64.6324 54.752 64.5122 54.9465ZM63.8357 55.3546C63.8027 55.4407 64.4259 56.6229 64.8285 57.2376C64.9564 57.4329 65.17 57.4705 65.17 57.2977C65.17 57.1818 65.0786 57.0051 64.5302 56.0614C64.0717 55.2723 63.9247 55.1227 63.8357 55.3546Z" fill="black"/>
</svg>
