<svg width="132" height="88" viewBox="0 0 132 88" fill="none" xmlns="http://www.w3.org/2000/svg">
<path d="M47.2083 38.7292V33.9167M47.2083 38.7292L51.446 35.8032C54.6667 33.5794 58.9462 33.6544 62.0869 35.9898C64.4047 37.7133 65.7708 40.4316 65.7708 43.32V45.3066C65.7708 48.3559 64.2468 51.2035 61.7096 52.895C58.739 54.8754 54.8859 54.9403 51.8503 53.0611L47.2083 50.1875M47.2083 38.7292V50.1875M47.2083 64.3958V50.1875M84.5625 49.5V54.3125M84.5625 49.5L80.3248 52.426C77.1041 54.6498 72.8247 54.5747 69.684 52.2394C67.3661 50.5158 66 47.7976 66 44.9092V42.9226C66 39.8733 67.524 37.0257 70.0612 35.3342C73.0318 33.3538 76.8849 33.2889 79.9206 35.1681L84.5625 38.0417M84.5625 49.5V38.0417M84.5625 23.8333V38.0417M103.125 44C103.125 64.5036 86.5036 81.125 66 81.125C45.4964 81.125 28.875 64.5036 28.875 44C28.875 23.4964 45.4964 6.875 66 6.875C86.5036 6.875 103.125 23.4964 103.125 44Z" stroke="#737373" stroke-width="3.66667" stroke-linecap="square" stroke-linejoin="round"/>
</svg>
