<svg width="132" height="88" viewBox="0 0 132 88" fill="none" xmlns="http://www.w3.org/2000/svg">
<path fill-rule="evenodd" clip-rule="evenodd" d="M30 67.4746C30 74.4011 35.6015 80.0127 42.503 80L89.4568 79.9136C96.3315 79.9009 101.901 74.3109 101.914 67.4113L102 20.5484C102.013 13.6219 96.4214 8 89.5198 8H42.4802C35.5876 8 30 13.6078 30 20.5254V67.4746ZM30.1264 44.141C30.1264 63.9468 30.1573 72.0878 30.195 62.2319C30.2327 52.3762 30.2327 36.1715 30.195 26.2213C30.1573 16.2715 30.1264 24.3352 30.1264 44.141ZM55.3938 36.8781C55.2984 36.9736 55.2204 37.4864 55.2204 38.0172C55.2204 39.9054 57.0087 41.2059 58.8451 40.6538C59.9941 40.3083 60.682 39.4103 60.869 38.0132C60.9395 37.4852 60.5585 37.0042 60.0301 36.9541L59.2143 36.8768C56.9177 36.6592 55.6114 36.6597 55.3938 36.8781ZM61.9805 38.0485C61.9805 39.7063 63.6053 41.072 65.2165 40.7686C66.2607 40.5721 67.3795 39.4244 67.5984 38.3256C67.6849 37.8917 67.3542 37.4869 66.9134 37.4869H65.6856C64.5415 37.4869 63.24 37.4136 62.793 37.3238C62.0104 37.1667 61.9805 37.1933 61.9805 38.0485Z" fill="#B4D8E7"/>
<path fill-rule="evenodd" clip-rule="evenodd" d="M34.1114 37.8825C33.1551 38.0735 31.839 38.4671 31.1864 38.7567L30 39.2836V65.8917L31.4456 66.4347C33.6416 67.2591 34.8649 67.4816 37.2427 67.4887C49.4028 67.5242 56.633 54.1734 49.856 44.1972C48.3152 41.9293 46.7677 40.5961 44.1702 39.2984C40.7644 37.5973 37.6987 37.1657 34.1114 37.8825ZM91.751 37.8713C87.6359 38.7778 84.5429 40.7989 82.2452 44.0829C79.8173 47.5524 78.9684 52.1873 80.0175 56.2448C81.344 61.3763 85.7737 65.7182 91.101 67.1088C93.4873 67.7319 97.6255 67.5299 99.9411 66.6777L101.631 66.0558L101.766 39.1173L100.268 38.5576C97.4107 37.4893 94.5364 37.2578 91.751 37.8713Z" fill="#FF1B96"/>
<path fill-rule="evenodd" clip-rule="evenodd" d="M44.1031 29.9184C42.7198 30.7646 42.1754 31.8846 42.2885 33.6515C42.3738 34.9818 42.4999 35.2798 43.3298 36.1127C44.1558 36.942 44.4627 37.0738 45.7822 37.1664C47.044 37.2551 47.4392 37.1719 48.2005 36.657C50.7144 34.9567 50.5116 31.0932 47.8414 29.8213C46.6417 29.2501 45.1311 29.2892 44.1031 29.9184ZM83.8169 29.8737C82.8008 30.4076 81.741 32.1964 81.741 33.3777C81.741 34.4635 82.6819 36.1273 83.6364 36.7288C84.2877 37.1395 84.7999 37.2337 85.9689 37.1586C87.2544 37.0756 87.5963 36.936 88.3789 36.1746C90.4779 34.1329 89.9605 31.0712 87.2832 29.6906C86.4338 29.2527 84.8389 29.337 83.8169 29.8737ZM71.4708 36.9866C70.6128 37.1067 69.4137 37.2757 68.8058 37.3621C67.9288 37.4866 67.7008 37.6262 67.7008 38.038C67.7008 38.8957 66.9603 40.0627 66.1493 40.4836C64.2269 41.4814 62.2248 40.422 61.8434 38.2047C61.6221 36.919 60.9407 36.8666 60.9407 38.1353C60.9407 39.5149 59.8258 40.6323 58.2743 40.8077C57.1436 40.9355 56.9878 40.8786 56.1376 40.0253C55.3776 39.2626 55.2206 38.9161 55.2206 38.0025C55.2206 36.9099 55.2133 36.9015 54.4187 37.061C52.4344 37.4592 51.2797 39.1582 51.1141 41.9232C51.0231 43.4445 51.1024 43.7934 51.885 45.3069C54.907 51.1513 65.4018 53.5982 73.8041 50.4175C77.0877 49.1744 79.4192 47.2629 80.4613 44.9598C81.4409 42.794 80.9329 39.2378 79.4548 37.919C78.1862 36.7867 75.3009 36.4499 71.4708 36.9866Z" fill="black"/>
<path d="M74.771 49.9622L74.1606 49.2344C73.9803 49.0194 73.6482 48.7401 73.2653 48.4699C72.9245 48.2294 72.5437 47.996 72.1953 47.8217C70.6155 47.0317 68.3704 46.9165 66.8637 47.5485C66.0085 47.9073 65.8095 47.9073 64.9167 47.5485C63.3465 46.9175 61.1502 47.0317 59.5643 47.8247C58.8219 48.1957 57.9921 48.7829 57.7209 49.1294C57.5091 49.3996 57.1755 49.6707 56.7804 49.8797C60.5073 51.6492 65.6302 52.3097 69.9716 51.4759C71.4376 51.1946 73.31 50.5861 74.771 49.9622Z" fill="#FF1B96"/>
</svg>
