<svg width="132" height="88" viewBox="0 0 132 88" fill="none" xmlns="http://www.w3.org/2000/svg">
<path fill-rule="evenodd" clip-rule="evenodd" d="M44.7265 27.9321C45.8303 24.5485 48.1581 18.9704 49.9019 15.5352C54.4695 6.52836 55.3942 9.42538 51.3642 20.1079C49.4732 25.1156 47.9277 29.5594 47.9277 29.9848C47.9277 30.407 53.7288 27.8612 60.8192 24.3261C72.89 18.3098 91.5778 11.2235 95.3838 11.2235C96.3149 11.2235 97.0748 11.8616 97.0748 12.6414C97.0748 13.4213 94.2607 14.504 90.8226 15.0486C82.1675 16.4214 48.5405 33.0429 46.4015 37.0066C42.5779 44.0896 44.1089 46.0296 59.3522 53.438C71.7851 57.1982 83.2106 65.8349 83.2106 65.8349C85.8807 67.9553 88.6165 69.689 89.2932 69.6955C89.9699 69.6987 90.5219 70.4495 90.5219 71.3615C90.5219 71.8062 89.8243 71.861 88.6948 71.5871C87.5126 71.3003 85.8583 70.659 84.0345 69.7374C70.2273 62.7548 81.2242 67.3158 59.405 56.7121C49.8171 52.0556 44.1041 50.1028 43.0642 51.134C42.1859 52.004 40.6181 58.3684 39.5814 65.271C38.5463 72.1768 37.052 77.8258 36.2601 77.8258C34.2059 77.8258 34.5371 70.543 37.148 58.333C39.0758 49.3133 39.071 47.3991 37.1128 45.2078C33.8652 41.5761 34.2491 39.5846 38.7719 36.6457C40.9428 35.2375 43.6242 31.3125 44.7265 27.9321ZM38.0983 42.6846C38.0983 41.7598 38.5895 40.5159 39.191 39.9229C39.5798 39.5362 40.0837 39.3558 40.5173 39.4009C40.7509 39.4267 40.9652 39.5169 41.1284 39.678C41.594 40.1421 41.1028 41.3827 40.0357 42.4397C38.8614 43.6062 38.0983 43.7029 38.0983 42.6846Z" fill="black" stroke="black" stroke-width="2.2"/>
</svg>
