<svg width="132" height="88" viewBox="0 0 132 88" fill="none" xmlns="http://www.w3.org/2000/svg">
<path fill-rule="evenodd" clip-rule="evenodd" d="M48.877 19.5431C48.877 15.3146 52.312 11.8242 56.6094 11.8242C60.8205 11.8242 64.2547 15.3152 64.2547 19.5431C64.2547 23.8577 60.8205 27.3271 56.6094 27.3271C55.5911 27.3293 54.5829 27.1293 53.6427 26.7386C52.7025 26.3481 51.8486 25.7744 51.1295 25.0509C50.4106 24.3274 49.8419 23.4683 49.4556 22.5228C49.0692 21.5776 48.8717 20.5649 48.877 19.5431ZM47.5812 19.5865C47.5842 20.5841 47.3911 21.5724 47.0116 22.4945C46.633 23.4168 46.0764 24.2545 45.3735 24.9601C44.6717 25.6658 43.8367 26.2249 42.9185 26.6055C42.0004 26.9861 41.0162 27.1808 40.022 27.178H35.6816V11.9973H40.022C41.0152 11.9965 41.9984 12.1923 42.9165 12.5734C43.8337 12.9545 44.6667 13.5135 45.3696 14.2184C46.0714 14.9232 46.628 15.7602 47.0075 16.6813C47.387 17.6025 47.5823 18.5896 47.5812 19.5865ZM78.2349 20.9754C78.5594 20.1841 78.7255 19.3363 78.7235 18.4806C78.7235 14.9245 75.808 11.9973 72.2445 11.9973H65.7655V27.178H72.2445V25.0072C73.0965 25.0063 73.9407 24.8364 74.7275 24.5078C75.5146 24.1791 76.2296 23.6982 76.8313 23.0921C77.433 22.4857 77.9095 21.7666 78.2349 20.9754ZM94.486 17.8406H82.2229C81.2095 17.8406 80.3887 18.6649 80.3887 19.6817C80.3887 20.6985 81.2095 21.5228 82.2229 21.5228H94.486C95.498 21.5228 96.3191 20.6985 96.3191 19.6817C96.3191 18.6649 95.498 17.8406 94.486 17.8406ZM82.2229 23.6709H94.486C95.498 23.6709 96.3191 24.4951 96.3191 25.5118C96.3191 26.5287 95.498 27.3529 94.486 27.3529H82.2229C81.2095 27.3529 80.3887 26.5287 80.3887 25.5118C80.3887 24.4951 81.2095 23.6709 82.2229 23.6709ZM94.486 12.01H82.2229C81.2095 12.01 80.3887 12.8343 80.3887 13.8511C80.3887 14.8679 81.2095 15.6921 82.2229 15.6921H94.486C95.498 15.6921 96.3191 14.8679 96.3191 13.8511C96.3191 12.8343 95.498 12.01 94.486 12.01ZM77.7602 32.2622H96.2672V75.6245H77.7602V32.2622ZM46.9324 32.2622L63.9555 47.9765L56.6985 48.4399L59.7854 55.5005L54.9704 57.6208L51.8846 50.5604L46.631 55.6056L46.6431 32.2622H35.8128V57.7795C35.8128 67.9374 44.1409 76.1742 54.3195 76.1742C64.4992 76.1742 72.8262 67.9424 72.8262 57.7795V32.2622H46.9324Z" fill="black"/>
</svg>
