<svg width="132" height="88" viewBox="0 0 132 88" fill="none" xmlns="http://www.w3.org/2000/svg">
<path d="M91.9603 45.4305H88.1653C86.5153 45.4305 85.1953 44.083 85.1953 42.4605V9.76297C85.1953 8.11297 86.5428 6.79297 88.1653 6.79297H91.9603C93.6103 6.79297 94.9303 8.14047 94.9303 9.76297V42.433C94.9303 44.083 93.6103 45.4305 91.9603 45.4305Z" fill="#3A30BA"/>
<path d="M65.8353 81.208C49.9678 81.208 37.0703 68.503 37.0703 52.9105C37.0703 37.2905 49.9678 24.5855 65.8353 24.5855H67.9528C69.6028 24.5855 70.9503 25.933 70.9503 27.583V30.9105C70.9503 32.5605 69.6028 33.908 67.9528 33.908H65.8353C55.1103 33.908 46.3653 42.433 46.3653 52.938C46.3653 63.443 55.1103 71.968 65.8353 71.968C75.6803 71.968 83.8478 64.7905 85.1403 55.523C85.3328 54.0655 86.5703 52.9655 88.0553 52.9655H91.4653C93.2528 52.9655 94.6553 54.533 94.4353 56.293C92.7578 70.2905 80.5753 81.208 65.8353 81.208Z" fill="#181C24"/>
</svg>
