<svg width="132" height="88" viewBox="0 0 132 88" fill="none" xmlns="http://www.w3.org/2000/svg">
<path d="M70.8491 10.7625L93.0292 23.209C96.124 24.9458 98.0379 28.2033 98.0379 31.7343V56.262C98.0379 59.7925 96.124 63.0505 93.0292 64.7869L70.8491 77.2332C67.8401 78.9223 64.1606 78.9223 61.1516 77.2332L38.9718 64.7869C35.8768 63.0505 33.9629 59.7925 33.9629 56.262V31.7343C33.9629 28.2033 35.8768 24.9458 38.9718 23.209L61.1516 10.7625C64.1606 9.07395 67.8401 9.07395 70.8491 10.7625ZM37.6595 31.8336V56.262C37.6595 58.454 38.8498 60.4796 40.7809 61.5634L62.6457 73.8333C62.9287 73.9427 63.2305 73.9994 63.536 73.9994C64.897 73.9994 66.0003 72.8963 66.0003 71.5355V51.7905C66.0003 48.5726 64.2092 45.6223 61.3543 44.1377L59.7267 43.2914C59.3429 43.128 58.9639 42.9489 58.5907 42.7542L37.6595 31.8336ZM60.5906 40.5693C64.5191 42.6189 67.4923 42.6189 71.4208 40.5693L92.6551 28.6483C92.1321 27.451 91.2252 26.4294 90.0389 25.7636L69.0401 13.9863C67.1547 12.9282 64.8461 12.9282 62.9606 13.9863L42.0016 25.7636C40.8152 26.4294 39.9083 27.451 39.3854 28.6483L60.5906 40.5693ZM66.0003 18.1216C70.6211 18.1216 74.3934 20.3925 74.6153 23.2461L74.6257 28.1333C74.6257 31.1107 70.7641 33.5243 66.0003 33.5243C61.2366 33.5243 57.3749 31.1107 57.3749 28.1333V23.2461C57.6074 20.3925 61.3795 18.1216 66.0003 18.1216ZM66.0013 26.7471C70.0029 26.7471 73.2467 25.1251 73.2467 23.1244C73.2467 21.1236 70.0029 19.5016 66.0013 19.5016C61.9998 19.5016 58.756 21.1236 58.756 23.1244C58.756 25.1251 61.9998 26.7471 66.0013 26.7471Z" fill="#5A45FF"/>
</svg>
