<svg width="132" height="88" viewBox="0 0 132 88" fill="none" xmlns="http://www.w3.org/2000/svg">
<path fill-rule="evenodd" clip-rule="evenodd" d="M78.2897 8.23469C75.9942 10.0377 75.5 12.8 75.4964 23.8468L75.4928 33.8046L73.7323 32.163C69.2869 28.0169 60.0428 27.4416 53.0558 30.8755C44.6676 34.9983 40.1504 43.5669 40.1504 55.3558C40.1504 66.5521 45.0151 75.3964 53.3289 79.3146C58.1583 81.5907 64.8416 81.5381 69.6368 79.1873C71.5231 78.2627 73.9995 76.4172 75.1406 75.086L77.2156 72.6664L77.6296 76.3185L78.0435 79.9713H84.9472H91.8504L91.4592 72.701C91.2436 68.7026 91.0675 52.2867 91.0675 36.2213V7.01172H85.4576C80.7127 7.01172 79.6075 7.20069 78.2897 8.23469ZM62.9139 41.1406C60.758 42.0455 58.7896 44.0363 57.3382 46.7807C55.4411 50.367 55.4866 58.8465 57.4239 62.7738C59.2437 66.463 61.6805 68.1656 65.5538 68.4544C69.5445 68.7523 72.3084 67.2662 74.2756 63.7653C75.6204 61.3708 75.7468 60.5299 75.6725 54.4492C75.5803 46.9164 74.75 44.3222 71.7483 42.1884C69.6961 40.7298 65.171 40.1928 62.9139 41.1406Z" fill="url(#paint0_linear_2056_24977)"/>
<defs>
<linearGradient id="paint0_linear_2056_24977" x1="66.0004" y1="7.01172" x2="66.0004" y2="80.9867" gradientUnits="userSpaceOnUse">
<stop stop-color="#1106CD"/>
<stop offset="1" stop-color="#682EE6"/>
</linearGradient>
</defs>
</svg>
