<svg width="132" height="88" viewBox="0 0 132 88" fill="none" xmlns="http://www.w3.org/2000/svg">
<path fill-rule="evenodd" clip-rule="evenodd" d="M93.7376 24.082C80.4093 4.42667 51.7862 7.92094 39.1134 22.5532C32.777 29.7601 30.3735 39.8062 31.2475 48.9786C32.1215 56.1856 34.7434 62.7374 38.4579 67.1052C48.2902 79.1168 65.333 80.4271 76.4763 72.7834C92.2081 61.8638 91.1156 44.174 82.5943 34.3464C67.2995 16.875 41.0799 34.128 50.9122 54.0017C53.3157 58.8063 58.7781 61.427 63.8035 61.427C70.7954 61.427 76.2578 53.1281 72.9804 48.1051C69.7029 42.8637 64.022 48.1051 66.4255 52.0361C68.392 55.0936 64.2405 56.8408 62.4925 56.404C57.9041 55.312 55.7191 48.9787 57.2486 43.7372C58.5596 39.151 63.3665 36.0935 67.955 36.3119C74.2914 36.7487 81.2833 41.7717 80.6278 52.6913C79.0983 70.3811 55.9376 73.657 46.7608 60.9902C32.34 40.6798 49.3827 13.3807 75.3839 21.6796C88.7122 26.0475 98.5445 41.7717 92.4266 58.5879C90.0231 64.9213 88.7122 67.3236 88.4937 69.5075C87.4012 77.588 112.965 52.4729 93.7376 24.082Z" fill="#50A901"/>
</svg>
