<svg width="132" height="88" viewBox="0 0 132 88" fill="none" xmlns="http://www.w3.org/2000/svg">
<path d="M101.75 24.2937V63.7098C101.746 67.9634 100.055 72.0417 97.047 75.0492C94.039 78.0566 89.9605 79.7473 85.7071 79.75H46.2929C42.0395 79.7473 37.961 78.0566 34.953 75.0492C31.9451 72.0417 30.2536 67.9634 30.25 63.7098V24.2937C30.2527 20.0395 31.9438 15.9603 34.9518 12.9521C37.9599 9.94389 42.0389 8.25271 46.2929 8.25H85.7071C89.9611 8.25271 94.0401 9.94389 97.0482 12.9521C100.056 15.9603 101.747 20.0395 101.75 24.2937Z" fill="#32BAEC"/>
<path d="M79.9122 22.584V35.6852H66.8116C66.8116 32.2105 68.1919 28.8782 70.6487 26.4212C73.1056 23.9643 76.4377 22.584 79.9122 22.584Z" fill="white"/>
<path d="M66.8116 65.5694V52.468H79.9122C79.9122 55.9426 78.532 59.2751 76.0752 61.7321C73.6183 64.189 70.2861 65.5694 66.8116 65.5694Z" fill="white"/>
<path d="M51.9395 52.468H65.0402V65.5694C61.5657 65.5694 58.2335 64.189 55.7767 61.7321C53.3198 59.2751 51.9395 55.9426 51.9395 52.468Z" fill="white"/>
<path d="M65.0402 37.4493V50.5506H51.9395C51.9395 47.0759 53.3198 43.7435 55.7767 41.2866C58.2335 38.8296 61.5657 37.4493 65.0402 37.4493Z" fill="white"/>
<path d="M66.8138 50.554H79.9145V37.4528H66.8138V50.554Z" fill="white"/>
</svg>
