<svg width="132" height="88" viewBox="0 0 132 88" fill="none" xmlns="http://www.w3.org/2000/svg">
<mask id="mask0_2056_25148" style="mask-type:luminance" maskUnits="userSpaceOnUse" x="18" y="28" width="96" height="32">
<path d="M113.978 28.4023H18.0234V59.5939H113.978V28.4023Z" fill="white"/>
</mask>
<g mask="url(#mask0_2056_25148)">
<path d="M58.986 28.4023C66.0007 28.4023 69.7589 32.6615 69.8837 38.2985H64.8732C64.8732 35.2922 62.8693 33.0372 58.986 33.0372C55.4787 33.0372 53.3488 34.5403 53.3488 37.171C53.3488 43.81 70.2597 38.6744 70.2597 50.5748C70.2597 55.9612 65.5 59.5939 58.3593 59.5939C50.3422 59.5939 47.3357 54.5832 47.0857 49.5724H52.0962C52.3462 52.8295 54.476 54.9591 58.4842 54.9591C62.6182 54.9591 64.9981 53.4557 64.9981 50.825C64.9981 43.5598 48.2132 49.3219 48.2132 37.2964C48.338 32.5361 52.3462 28.4023 58.986 28.4023ZM28.1696 29.1539C38.4418 29.1539 44.204 35.2922 44.204 44.186C44.204 52.9546 38.4418 59.218 28.1696 59.218H18.0234V29.1539H28.1696ZM79.6553 29.1539L89.0499 41.5553L98.5704 29.1539H103.205V59.0929H98.1944V37.171L89.1747 48.9462H89.0499L80.031 37.171V59.0929H75.0205V29.1539H79.6553ZM28.0447 33.9142H23.159V54.458H28.0447C35.4352 54.458 38.9435 50.4494 38.9435 44.186C38.9435 37.9226 35.4352 33.9142 28.0447 33.9142Z" fill="black"/>
<path d="M108.967 58.8428H113.978V53.832H108.967V58.8428Z" fill="#FF3366"/>
</g>
</svg>
