<svg width="132" height="88" viewBox="0 0 132 88" fill="none" xmlns="http://www.w3.org/2000/svg">
<path fill-rule="evenodd" clip-rule="evenodd" d="M44.9186 25.0557C44.7554 25.3741 44.2807 27.4964 43.8636 29.7716C42.8887 35.093 41.9671 39.3803 41.7523 39.5941C41.6596 39.6865 41.2182 39.1897 40.7718 38.4898C39.2502 36.1054 37.371 35.0666 34.5787 35.0666C30.6832 35.0666 26.836 37.7283 24.6682 41.9229C22.9621 45.2247 22.3891 47.0879 21.9191 50.8596C21.3026 55.8107 22.1551 59.5884 24.4282 61.9758C24.9155 62.4877 25.6833 63.046 26.1343 63.2168C27.3771 63.6871 31.3367 63.5881 32.6193 63.0546C33.8617 62.5377 36.3386 60.0123 37.3676 58.213L38.0188 57.0739L38.2006 58.9523C38.5183 62.2399 40.2763 63.3214 45.0003 63.1347L47.6341 63.0308L48.0535 61.0452C48.2842 59.9531 48.4823 58.6499 48.4943 58.1495C48.5139 57.3049 48.4201 57.2394 47.186 57.2394C46.4548 57.2394 45.8565 57.0988 45.8565 56.927C45.8565 56.5017 48.3882 43.5578 49.1936 39.8652C49.5512 38.227 50.2977 34.504 50.8528 31.5917C51.4079 28.6795 51.9437 25.8874 52.0434 25.3866L52.2245 24.4766H48.7199C45.7166 24.4766 45.1728 24.5593 44.9186 25.0557ZM95.1575 35.7066C88.6719 38.0311 84.8233 44.592 85.1464 52.7717C85.2979 56.6103 86.0258 58.6211 88.0015 60.6596C90.0818 62.8058 91.414 63.3111 95.3922 63.4624C99.2999 63.611 100.194 63.3714 103.237 61.3606C106.766 59.0281 109.005 55.1955 109.981 49.8151C111.233 42.9164 108.403 37.1839 102.95 35.5716C100.644 34.8895 97.2735 34.9481 95.1575 35.7066ZM58.0251 35.9998C57.9324 36.1491 57.0264 40.4016 56.0113 45.4494C53.8615 56.1427 53.7495 57.9569 55.08 60.5723C56.2536 62.8789 57.4681 63.5259 60.6253 63.5266C63.622 63.5272 65.3733 62.7022 67.0442 60.5031C67.7305 59.5997 68.5911 58.4874 68.9567 58.031L69.6214 57.2013L69.6387 59.0324C69.6689 62.2081 71.4628 63.324 76.2334 63.1347L78.8565 63.0308L79.2929 61.5558C79.5332 60.7444 79.7735 59.4785 79.8274 58.7429L79.9251 57.4049L78.5125 57.3033C77.7354 57.247 77.0999 57.1378 77.0999 57.06C77.0999 56.9823 77.5655 54.6452 78.1349 51.8666C78.7039 49.0881 79.6572 44.4321 80.2528 41.5199C80.8484 38.6076 81.2297 36.1077 81.1 35.9644C80.9704 35.8211 79.3205 35.7466 77.4336 35.7989L74.0025 35.8939L72.6118 42.8436C71.1218 50.2884 70.9878 50.8285 70.1928 52.6063C67.7934 57.9711 61.8106 59.4934 61.8106 54.7395C61.8106 53.9105 62.5584 49.5252 63.4725 44.9947C64.3865 40.4642 65.1343 36.5257 65.1343 36.2427C65.1343 35.8105 64.5813 35.7284 61.664 35.7284C59.7552 35.7284 58.1179 35.8506 58.0251 35.9998ZM35.0646 41.2607C32.1527 41.7082 30.4622 44.81 29.5678 51.3471C28.9416 55.9253 29.8337 57.5703 32.9421 57.5703C36.3057 57.5703 38.968 54.067 40.1998 48.0195C40.9756 44.2114 40.7998 42.8105 39.4344 41.9196C38.5752 41.3594 36.4799 41.0433 35.0646 41.2607ZM96.8417 41.4964C96.2743 41.7423 95.4726 42.4157 95.0598 42.9929C93.3215 45.4236 91.8045 54.0594 92.79 55.9157C93.4531 57.164 95.2739 57.9605 96.8763 57.703C99.7025 57.2493 100.795 55.7101 102.037 50.4323C102.891 46.8006 103.003 44.5079 102.397 43.0763C101.6 41.1952 99.1467 40.4976 96.8417 41.4964Z" fill="black"/>
</svg>
