<svg width="132" height="88" viewBox="0 0 132 88" fill="none" xmlns="http://www.w3.org/2000/svg">
<path d="M66.0004 78.0984C84.8333 78.0984 100.1 62.8313 100.1 43.9984C100.1 25.1655 84.8333 9.89844 66.0004 9.89844C47.1675 9.89844 31.9004 25.1655 31.9004 43.9984C31.9004 62.8313 47.1675 78.0984 66.0004 78.0984Z" fill="#232323"/>
<path fill-rule="evenodd" clip-rule="evenodd" d="M50.82 59.4169C42.7247 51.0651 42.8697 37.6906 51.1737 29.3866C59.4777 21.0826 72.8522 20.9376 81.204 29.0329L81.206 29.0309C81.2471 29.0721 81.288 29.1133 81.3286 29.1546C81.3673 29.1927 81.4059 29.231 81.4443 29.2694L81.4425 29.2712C89.5378 37.6231 89.3928 50.9974 81.0888 59.3015C72.7846 67.6055 59.4103 67.7506 51.0585 59.6552L51.0565 59.6572C51.0154 59.616 50.9745 59.5748 50.9337 59.5335C50.8952 59.4954 50.8566 59.4572 50.8182 59.4188L50.82 59.4169ZM79.234 57.4467C71.9401 64.7405 60.2269 64.8573 52.9134 57.8001L79.5873 31.1261C86.6446 38.4397 86.5277 50.1529 79.234 57.4467Z" fill="white"/>
</svg>
