<svg width="132" height="88" viewBox="0 0 132 88" fill="none" xmlns="http://www.w3.org/2000/svg">
<path fill-rule="evenodd" clip-rule="evenodd" d="M44.5377 10.7477C40.9556 11.5112 37.9725 12.9747 36.0628 14.9054C35.6379 15.335 35.2455 15.6866 35.1909 15.6866C35.071 15.6866 33.3553 17.7892 33.3553 17.9361C33.3553 17.993 33.1117 18.3709 32.8139 18.776C32.5162 19.181 32.2725 19.5803 32.2725 19.6632C32.2725 19.7462 31.9941 20.4158 31.6538 21.1514C31.3135 21.887 31.0351 22.6573 31.0351 22.8631C31.0351 23.069 30.9754 23.2741 30.9026 23.3193C30.7749 23.398 30.6843 23.9393 30.4087 26.2678C30.3383 26.8625 30.2119 27.7314 30.1279 28.1987C29.9288 29.3045 29.9211 58.5453 30.1196 59.7107C30.1992 60.1779 30.3336 61.1163 30.4186 61.796C30.7254 64.255 31.168 65.9462 31.8333 67.2025C31.9683 67.4574 32.1307 67.8338 32.1941 68.0389C32.3715 68.6122 34.1067 71.0777 34.9109 71.8995C38.2104 75.2705 41.8793 76.9406 47.0444 77.4222C48.8598 77.5915 83.2799 77.5915 85.0954 77.4222C89.0513 77.0534 92.048 76.0062 94.8915 73.9992C95.8227 73.3421 97.6606 71.5182 98.4476 70.4706C99.3647 69.2497 100.684 66.8016 100.881 65.9564C100.939 65.7072 101.145 65.0167 101.339 64.422C101.987 62.4366 102.033 61.0488 102.024 43.756C102.014 26.02 101.985 25.2905 101.194 22.7922C100.716 21.283 99.4807 18.7791 98.6024 17.5402C96.6782 14.8257 92.79 12.0783 89.7358 11.2747C86.3537 10.3851 87.8631 10.4369 65.9152 10.4579C47.3892 10.4756 45.707 10.4984 44.5377 10.7477Z" fill="#FF6C2D"/>
<path fill-rule="evenodd" clip-rule="evenodd" d="M47.5432 10.5369C43.8906 10.8329 41.1685 11.6206 38.7948 13.0684C38.3644 13.3308 37.8807 13.6205 37.7198 13.7119C37.5588 13.8035 37.302 14.0468 37.149 14.2526C36.8835 14.6097 36.8706 15.955 36.8694 43.7445C36.8686 59.7593 36.8685 72.9813 36.8691 73.1269C36.8699 73.2753 37.2607 73.6559 37.7597 73.9942C38.8756 74.7506 41.347 76.0283 41.6949 76.0286C41.8388 76.0287 41.9947 76.0907 42.0415 76.1664C42.0883 76.2419 42.3534 76.3401 42.6307 76.3846C42.9079 76.4291 43.8309 76.6065 44.6816 76.7787C45.5323 76.9509 47.2067 77.1655 48.4027 77.2555C51.2445 77.4693 81.3017 77.4757 84.0004 77.263C85.9252 77.1113 88.3673 76.7483 89.1518 76.4974C89.3645 76.4293 89.8517 76.2842 90.2345 76.1747C91.3159 75.8658 93.4166 74.8214 94.6273 73.991C96.6515 72.6023 98.8166 70.1879 99.6562 68.3826C99.8539 67.9578 100.144 67.4292 100.301 67.2078C100.459 66.9865 100.671 66.4652 100.773 66.0493C100.876 65.6335 101.095 64.8761 101.261 64.3664C101.927 62.3181 101.971 61.0652 101.981 44.0606C101.99 28.5292 101.907 25.0048 101.513 24.2479C101.375 23.983 101.149 23.1603 100.921 22.0947C100.797 21.5175 100.617 21.1276 99.626 19.2951C98.5249 17.2578 97.2435 15.8001 94.8345 13.844C94.6846 13.7223 94.5106 13.6213 94.4478 13.6194C94.3849 13.6175 94.1595 13.4774 93.9468 13.3083C93.1754 12.6946 90.6915 11.5937 89.3838 11.2858C85.7838 10.4387 87.2771 10.4949 67.3421 10.4548C57.2609 10.4345 48.3514 10.4714 47.5432 10.5369ZM45.455 58.342H50.8688L50.8941 57.8014C50.908 57.504 50.9254 54.568 50.9328 51.2767L50.9461 45.2927L63.5524 45.212L63.6373 40.1951L51.0234 40.1145V32.082L65.7953 32.0019V26.9073H45.3763L45.455 58.342ZM69.0027 27.0111C68.9622 27.0814 68.9645 34.1787 69.0079 42.7827L69.087 58.4262L74.5346 58.342L74.5484 57.2607C74.5558 56.666 74.5733 54.3612 74.5871 52.1386L74.612 48.0978L79.059 48.0271C84.2002 47.9451 85.0331 47.815 87.2489 46.7478C89.1526 45.8308 90.5351 44.4936 91.3914 42.7405C91.7233 42.0608 92.0497 41.1919 92.1167 40.8096C92.4144 39.1073 92.5601 37.4222 92.4772 36.6389C92.3391 35.3344 92.082 33.8153 91.9413 33.4723C91.2167 31.7073 90.2137 30.2852 89.0245 29.3371C88.341 28.7921 86.5004 27.8421 85.7488 27.6464C85.4511 27.5689 84.7898 27.3963 84.2794 27.2629C83.5222 27.0651 82.0366 27.0078 76.214 26.9519C72.2884 26.9141 69.0434 26.9408 69.0027 27.0111ZM74.6823 32.3534C74.6414 32.4602 74.626 34.9104 74.6485 37.7985L74.6893 43.0494L77.7829 43.1004C82.358 43.1758 84.3458 42.7858 85.6891 41.5492C86.62 40.6924 86.8828 39.8154 86.8825 37.5657C86.8822 35.3917 86.6992 34.7743 85.7697 33.8087C84.4585 32.4466 83.1484 32.1593 78.2486 32.1593C75.5881 32.1593 74.7391 32.2054 74.6823 32.3534Z" fill="black"/>
</svg>
