<svg width="132" height="88" viewBox="0 0 132 88" fill="none" xmlns="http://www.w3.org/2000/svg">
<path fill-rule="evenodd" clip-rule="evenodd" d="M44.5376 10.7477C40.9556 11.5112 37.9725 12.9747 36.0628 14.9054C35.6379 15.335 35.2455 15.6866 35.1909 15.6866C35.071 15.6866 33.3553 17.7892 33.3553 17.9361C33.3553 17.993 33.1117 18.3709 32.8139 18.776C32.5162 19.181 32.2725 19.5803 32.2725 19.6632C32.2725 19.7462 31.9941 20.4158 31.6538 21.1514C31.3135 21.887 31.0351 22.6574 31.0351 22.8631C31.0351 23.069 30.9754 23.2742 30.9026 23.3193C30.7749 23.398 30.6843 23.9393 30.4087 26.2678C30.3383 26.8625 30.2119 27.7314 30.1279 28.1987C29.9288 29.3045 29.9211 58.5453 30.1196 59.7107C30.1992 60.1779 30.3336 61.1163 30.4186 61.796C30.7254 64.255 31.168 65.9462 31.8333 67.2025C31.9683 67.4574 32.1307 67.8338 32.1941 68.0389C32.3715 68.6122 34.1067 71.0777 34.9109 71.8995C38.2104 75.2705 41.8793 76.9406 47.0444 77.4222C48.8598 77.5915 83.2799 77.5915 85.0954 77.4222C89.0513 77.0534 92.048 76.0062 94.8915 73.9992C95.8227 73.3421 97.6606 71.5182 98.4476 70.4706C99.3647 69.2497 100.684 66.8016 100.881 65.9564C100.939 65.7072 101.145 65.0167 101.339 64.422C101.987 62.4366 102.033 61.0488 102.024 43.756C102.014 26.02 101.985 25.2905 101.194 22.7922C100.716 21.283 99.4807 18.7791 98.6024 17.5402C96.6782 14.8257 92.79 12.0783 89.7357 11.2747C86.3537 10.3851 87.863 10.4369 65.9152 10.4579C47.3892 10.4757 45.707 10.4984 44.5376 10.7477Z" fill="#1883E1"/>
<path fill-rule="evenodd" clip-rule="evenodd" d="M47.5432 10.5369C43.8906 10.8329 41.1685 11.6206 38.7948 13.0684C38.3644 13.3308 37.8807 13.6205 37.7198 13.7119C37.5588 13.8035 37.302 14.0468 37.149 14.2526C37.149 14.2526 36.8124 59.7953 36.8691 73.1269C36.8698 73.2753 37.2607 73.6559 37.7597 73.9942C38.8756 74.7507 41.347 76.0283 41.6949 76.0286C41.8388 76.0287 41.9947 76.0907 42.0415 76.1664C42.0883 76.2419 42.3534 76.3401 42.6307 76.3846C42.9079 76.4291 43.8309 76.6065 44.6816 76.7787C45.5323 76.9509 47.2067 77.1655 48.4027 77.2555C51.2445 77.4693 81.3017 77.4757 84.0003 77.263C85.9252 77.1113 88.3672 76.7483 89.1518 76.4974C89.3644 76.4293 89.8517 76.2842 90.2345 76.1747C91.3159 75.8658 93.4166 74.8214 94.6272 73.991C96.6515 72.6023 98.8166 70.1879 99.6562 68.3826C99.8539 67.9578 100.144 67.4292 100.301 67.2079C100.459 66.9865 100.671 66.4652 100.773 66.0493C100.876 65.6335 101.095 64.8761 101.261 64.3664C101.927 62.3181 101.971 61.0652 101.981 44.0606C101.99 28.5292 101.907 25.0048 101.513 24.2479C101.375 23.983 101.149 23.1603 100.921 22.0947C100.797 21.5175 100.617 21.1276 99.626 19.2951C98.5248 17.2578 97.2435 15.8001 94.8345 13.844C94.6846 13.7223 94.5106 13.6213 94.4478 13.6194C94.3849 13.6175 94.1595 13.4774 93.9468 13.3083C93.1754 12.6946 90.6914 11.5937 89.3838 11.2858C85.7838 10.4387 87.2771 10.4949 67.342 10.4548C57.2609 10.4345 48.3514 10.4714 47.5432 10.5369ZM74.88 26.9073H80.2937L80.3191 27.4479C80.333 27.7453 80.3504 30.6813 80.3578 33.9726L80.4484 53.1673L95.2203 53.2474V58.342H74.8013L74.88 26.9073ZM47.8277 27.0111C47.7872 27.0814 47.7895 34.1787 47.8329 42.7827L47.912 58.4262L53.3596 58.342L53.3734 57.2607C53.3808 56.666 53.3983 54.3612 53.4121 52.1386L53.437 48.0978L57.884 48.0271C63.0252 47.9451 63.8581 47.815 66.0739 46.7478C67.9775 45.8308 69.3601 44.4936 70.2164 42.7405C70.5483 42.0608 70.8747 41.1919 70.9417 40.8096C71.2394 39.1074 71.3851 37.4222 71.3022 36.6389C71.1641 35.3344 70.907 33.8153 70.7663 33.4723C70.0417 31.7073 69.0386 30.2852 67.8495 29.3371C67.1659 28.7921 65.3254 27.8421 64.5738 27.6464C64.2761 27.5689 63.6148 27.3963 63.1044 27.2629C62.3472 27.0651 60.8615 27.0078 55.039 26.9519C51.1134 26.9141 47.8684 26.9408 47.8277 27.0111ZM53.5073 32.3534C53.4663 32.4602 53.451 34.9104 53.4735 37.7985L53.5143 43.0494L56.6079 43.1004C61.183 43.1758 63.1707 42.7858 64.5141 41.5492C65.445 40.6924 65.7078 39.8154 65.7075 37.5657C65.7072 35.3917 65.5242 34.7743 64.5947 33.8087C63.2835 32.4466 61.9734 32.1593 57.0736 32.1593C54.4131 32.1593 53.5641 32.2055 53.5073 32.3534Z" fill="black"/>
</svg>
