<svg width="132" height="88" viewBox="0 0 132 88" fill="none" xmlns="http://www.w3.org/2000/svg">
<path fill-rule="evenodd" clip-rule="evenodd" d="M44.5376 10.7477C40.9556 11.5112 37.9725 12.9747 36.0628 14.9054C35.6379 15.335 35.2455 15.6866 35.1909 15.6866C35.071 15.6866 33.3553 17.7892 33.3553 17.9361C33.3553 17.993 33.1117 18.3709 32.8139 18.776C32.5162 19.181 32.2725 19.5803 32.2725 19.6632C32.2725 19.7462 31.9941 20.4158 31.6538 21.1514C31.3135 21.887 31.0351 22.6573 31.0351 22.8631C31.0351 23.069 30.9754 23.2741 30.9026 23.3193C30.7749 23.398 30.6843 23.9393 30.4087 26.2678C30.3383 26.8625 30.2119 27.7314 30.1279 28.1987C29.9288 29.3045 29.9211 58.5453 30.1196 59.7107C30.1992 60.1779 30.3336 61.1163 30.4186 61.796C30.7254 64.255 31.168 65.9462 31.8333 67.2025C31.9683 67.4574 32.1307 67.8338 32.1941 68.0389C32.3715 68.6122 34.1067 71.0777 34.9109 71.8995C38.2104 75.2705 41.8793 76.9406 47.0444 77.4222C48.8598 77.5915 83.2799 77.5915 85.0954 77.4222C89.0513 77.0534 92.048 76.0062 94.8915 73.9992C95.8227 73.3421 97.6606 71.5182 98.4476 70.4706C99.3647 69.2497 100.684 66.8016 100.881 65.9564C100.939 65.7072 101.145 65.0167 101.339 64.422C101.987 62.4366 102.033 61.0488 102.024 43.756C102.014 26.02 101.985 25.2905 101.194 22.7922C100.716 21.283 99.4807 18.7791 98.6024 17.5402C96.6782 14.8257 92.79 12.0783 89.7357 11.2747C86.3537 10.3851 87.863 10.4369 65.9152 10.4579C47.3892 10.4756 45.707 10.4984 44.5376 10.7477Z" fill="#4E6E8B"/>
<path fill-rule="evenodd" clip-rule="evenodd" d="M47.5432 10.5369C43.8906 10.8329 41.1685 11.6206 38.7948 13.0684C38.3644 13.3308 37.8807 13.6205 37.7198 13.7119C37.5588 13.8035 37.302 14.0468 37.149 14.2526C37.149 14.2526 36.8064 58.3841 36.8691 73.1269C36.8699 73.2753 37.2607 73.6559 37.7597 73.9942C38.8756 74.7506 41.347 76.0283 41.6949 76.0286C41.8388 76.0287 41.9947 76.0907 42.0415 76.1664C42.0882 76.2419 42.3534 76.3401 42.6307 76.3846C42.9079 76.4291 43.8309 76.6065 44.6816 76.7787C45.5323 76.9509 47.2067 77.1655 48.4027 77.2555C51.2445 77.4693 81.3017 77.4757 84.0003 77.263C85.9252 77.1113 88.3672 76.7483 89.1518 76.4974C89.3645 76.4293 89.8517 76.2842 90.2345 76.1747C91.3159 75.8658 93.4166 74.8214 94.6273 73.991C96.6515 72.6023 98.8166 70.1879 99.6562 68.3826C99.8539 67.9578 100.144 67.4292 100.301 67.2079C100.459 66.9865 100.671 66.4652 100.773 66.0493C100.876 65.6335 101.095 64.8761 101.261 64.3664C101.927 62.3181 102.014 60.7606 102.024 43.756C102.032 28.2246 101.907 25.0048 101.513 24.2479C101.375 23.983 101.149 23.1603 100.921 22.0947C100.797 21.5175 100.617 21.1276 99.626 19.2951C98.5248 17.2578 97.2435 15.8001 94.8345 13.844C94.6846 13.7223 94.5106 13.6213 94.4478 13.6194C94.3849 13.6175 94.1595 13.4774 93.9468 13.3083C93.1754 12.6946 90.6914 11.5937 89.3838 11.2858C85.7838 10.4387 87.2771 10.4949 67.342 10.4548C57.2608 10.4345 48.3514 10.4714 47.5432 10.5369Z" fill="black"/>
<path fill-rule="evenodd" clip-rule="evenodd" d="M53.8798 28.3861L53.4141 59.8012L59.9618 59.717L59.9755 58.6357C59.983 58.041 60.0004 55.7362 60.0142 53.5136L60.0391 49.4728L64.4861 49.4021C69.6273 49.3201 70.4603 49.19 72.6761 48.1228C74.5797 47.2058 75.9622 45.8686 76.8185 44.1155C77.1505 43.4358 77.4768 42.5669 77.5438 42.1846C77.8416 40.4823 77.9873 38.7972 77.9044 38.0139C77.7662 36.7094 77.5092 35.1903 77.3684 34.8473C76.6439 33.0823 75.6408 31.6602 74.4516 30.7121C73.7681 30.1671 71.9276 29.2171 71.176 29.0214C70.8782 28.9439 70.217 28.7713 69.7065 28.6379L53.8798 28.3861ZM60.1095 33.7284C60.1095 33.7284 60.0931 41.4164 60.1164 44.4244L63.21 44.4754C67.7851 44.5508 69.7729 44.1608 71.1163 42.9242C72.0471 42.0674 72.3099 41.1904 72.3096 38.9407C72.3093 36.7667 72.1263 36.1493 71.1969 35.1837C69.8857 33.8216 68.5755 33.5343 63.6758 33.5343C61.0153 33.5343 60.1663 33.5804 60.1095 33.7284Z" fill="#4E6E8B"/>
<path d="M28.7715 28.3242L36.3831 59.8029H45.2964L52.908 28.3242H46.1416L40.8397 50.6886L35.5379 28.3242H28.7715Z" fill="#4E6E8B"/>
</svg>
