<svg width="132" height="88" viewBox="0 0 132 88" fill="none" xmlns="http://www.w3.org/2000/svg">
<path d="M29.1504 72.3258L64.5248 15.9209H86.6338V23.5233L56.1725 72.3258" fill="#FBBC04"/>
<path d="M86.6345 72.0806H64.5255V15.6758H86.6345V72.0806Z" fill="#1A73E8"/>
<path d="M102.85 56.14C102.85 64.9686 95.4807 72.0805 86.8828 72.0805V40.1995C95.4807 40.1995 102.85 47.5566 102.85 56.14Z" fill="#34A853"/>
<path d="M86.8789 72.0805C82.6441 72.0805 78.5826 70.401 75.5881 67.4116C72.5936 64.4222 70.9113 60.3677 70.9113 56.14C70.9113 51.9123 72.5936 47.8578 75.5881 44.8683C78.5826 41.8789 82.6441 40.1995 86.8789 40.1995V72.0805Z" fill="#0D652D"/>
<path d="M98.9194 27.9377C98.9194 31.1898 97.6253 34.3086 95.3219 36.6082C93.0184 38.9078 89.8942 40.1996 86.6366 40.1996L86.6345 15.6758C89.8921 15.6758 93.0184 16.9677 95.3219 19.2672C97.6253 21.5668 98.9194 24.6856 98.9194 27.9377Z" fill="#1A73E8"/>
<path d="M86.6366 40.1996C83.3791 40.1996 80.2537 38.9078 77.9502 36.6082C75.6468 34.3086 74.3527 31.1898 74.3527 27.9377C74.3527 24.6856 75.6468 21.5668 77.9502 19.2672C80.2537 16.9677 83.3769 15.6758 86.6345 15.6758L86.6366 40.1996Z" fill="#174EA6"/>
<path d="M30.1349 26.7115C30.1349 23.7847 31.2996 20.9777 33.3727 18.9081C35.4458 16.8385 38.2576 15.6758 41.1894 15.6758C44.1213 15.6758 46.933 16.8385 49.0061 18.9081C51.0793 20.9777 52.2439 23.7847 52.2439 26.7115C52.2439 29.6384 51.0793 32.4454 49.0061 34.515C46.933 36.5846 44.1213 37.7472 41.1894 37.7472C38.2576 37.7472 35.4458 36.5846 33.3727 34.515C31.2996 32.4454 30.1349 29.6384 30.1349 26.7115Z" fill="#EA4335"/>
</svg>
