<svg width="132" height="88" viewBox="0 0 132 88" fill="none" xmlns="http://www.w3.org/2000/svg">
<path d="M61.551 73.2791V53.4075C62.9722 54.1362 64.5575 54.5283 66.1854 54.5283C67.5896 54.5283 68.9619 54.2385 70.2254 53.6887V73.2791C70.2254 74.4297 69.7694 75.5335 68.9555 76.3474C68.1415 77.1614 67.0399 77.6174 65.8893 77.6174C64.7387 77.6174 63.6349 77.1614 62.8209 76.3474C62.007 75.5335 61.551 74.4297 61.551 73.2791Z" fill="#272727"/>
<path d="M70.2254 14.7211V35.1211L70.0613 35.053C68.8319 34.5416 67.5151 34.2816 66.1854 34.2816C64.8558 34.2816 63.5412 34.5416 62.3117 35.053L61.8664 35.249L61.551 35.4067V14.7211C61.551 13.5705 62.007 12.4667 62.8209 11.6528C63.6349 10.8388 64.7387 10.3828 65.8893 10.3828C66.1705 10.3828 66.4475 10.4126 66.7203 10.4638C66.9845 10.5149 67.2423 10.5916 67.4916 10.6896C67.6834 10.7664 67.8709 10.8558 68.0499 10.9581C68.378 11.1456 68.6827 11.38 68.9555 11.6528C69.7694 12.4667 70.2254 13.5705 70.2254 14.7211Z" fill="#272727"/>
<path d="M60.426 44.4071C60.4281 45.9327 61.0354 47.3987 62.1157 48.4769C63.1938 49.555 64.6598 50.1644 66.1854 50.1644C67.7132 50.1644 69.1771 49.555 70.2574 48.4769C70.9563 47.778 71.457 46.9171 71.7255 45.9838C71.8704 45.4767 71.9471 44.944 71.9471 44.4071C71.9471 43.657 71.8 42.924 71.523 42.2422C71.2354 41.5348 70.8071 40.887 70.2574 40.333C69.1771 39.2549 67.7132 38.6454 66.1854 38.6454C65.5334 38.6454 64.8921 38.7563 64.2869 38.9693C63.4772 39.2506 62.7336 39.7151 62.1157 40.333C61.0354 41.4155 60.4281 42.8772 60.426 44.4071Z" fill="#272727"/>
<path d="M28.9629 36.2419C31.4644 36.2419 33.201 35.7391 34.1705 34.7419C34.9184 33.9705 35.3787 32.8327 35.5491 31.3284C35.5981 30.8852 35.6237 30.4121 35.6237 29.905V25.1107C35.6237 22.4345 35.9923 20.2952 36.7296 18.6886C37.4817 17.0692 38.5237 15.8461 39.8533 15.0236C41.1999 14.1969 42.7895 13.6472 44.6262 13.3744C45.6469 13.221 46.7229 13.1102 47.8522 13.042C48.7536 12.9866 49.689 12.9611 50.6585 12.9611V19.8605C48.9517 19.8605 47.6498 20.0864 46.7528 20.5338C45.8706 20.9685 45.2697 21.6461 44.9522 22.5709C44.6348 23.4828 44.475 24.642 44.475 26.044V32.3767C44.475 33.0671 44.394 33.7404 44.2342 34.3924C44.1404 34.776 44.019 35.1552 43.8677 35.526C43.4628 36.5061 42.7107 37.384 41.6112 38.1511C40.5117 38.9011 38.9435 39.502 36.9043 39.9495L36.7509 39.9836V40.8487L36.9043 40.8828C38.9435 41.3174 40.5117 41.9183 41.6112 42.6854C41.9457 42.9155 42.2483 43.1542 42.5189 43.4056C43.1347 43.9767 43.5864 44.6116 43.8677 45.3105C44.2725 46.2907 44.475 47.339 44.475 48.4556V54.7882C44.475 56.1775 44.6348 57.3281 44.9522 58.2401C45.2697 59.1648 45.8706 59.8424 46.7528 60.2771C47.2897 60.5456 47.9694 60.7331 48.7962 60.8439C49.3523 60.9163 49.9724 60.9504 50.6585 60.9504V67.8712C49.4375 67.8712 48.2699 67.8286 47.1576 67.7434C46.8422 67.7178 46.529 67.6922 46.2201 67.6581C45.6746 67.6027 45.144 67.5388 44.6262 67.4578C43.8102 67.3385 43.0431 67.1638 42.325 66.9337C41.4258 66.6439 40.6012 66.2689 39.8533 65.8086C38.5237 64.9861 37.4817 63.7631 36.7296 62.1437C35.9923 60.5371 35.6237 58.3978 35.6237 55.7215V50.9059C35.6237 48.6772 35.1379 47.0663 34.1705 46.0691C33.201 45.0719 31.4644 44.569 28.9629 44.569V36.2419Z" fill="#272727"/>
<path d="M103.037 50.2795C100.536 50.2795 98.7991 50.7824 97.8296 51.7796C96.8623 52.7768 96.3764 54.3876 96.3764 56.6164V61.4107C96.3764 64.0869 96.0078 66.2262 95.2706 67.8328C94.5184 69.4522 93.4764 70.6753 92.1468 71.4978C90.8002 72.3245 89.2106 72.8743 87.3739 73.147C85.5372 73.424 83.5257 73.5604 81.3417 73.5604V66.6609C82.3048 66.6609 83.1379 66.5885 83.8432 66.4478C84.3887 66.337 84.8553 66.1836 85.2474 65.9876C85.7716 65.7276 86.1956 65.3867 86.5195 64.9563C86.7411 64.6622 86.9179 64.3256 87.0479 63.9506C87.1502 63.6608 87.2375 63.3412 87.3057 63.0002L87.3675 62.6508C87.4719 62.0073 87.5252 61.2828 87.5252 60.4774V54.1447C87.5252 53.0452 87.7276 51.9969 88.1325 50.9954C88.5373 50.0153 89.2895 49.1374 90.389 48.3703C91.4884 47.6203 93.0567 47.0194 95.0958 46.5719L95.2493 46.5378V45.6728L95.0958 45.6387C93.0567 45.204 91.4884 44.6031 90.389 43.836C89.2895 43.086 88.5373 42.2124 88.1325 41.2109C87.7276 40.2307 87.5252 39.1824 87.5252 38.0659V31.7332C87.5252 30.3439 87.3654 29.1933 87.0479 28.2813C86.7304 27.3566 86.1295 26.679 85.2474 26.2443C84.3503 25.7969 83.0484 25.571 81.3417 25.571V18.6502C82.6393 18.6502 83.8752 18.6971 85.0514 18.7951C85.8547 18.8633 86.6281 18.9528 87.3739 19.0636C88.4926 19.2298 89.5196 19.4983 90.455 19.869C91.0559 20.1077 91.6205 20.3889 92.1468 20.7128C93.4764 21.5353 94.5184 22.7584 95.2706 24.3778C95.4389 24.7443 95.5859 25.1363 95.7159 25.5582C95.8267 25.9162 95.9226 26.2912 96.0036 26.6875C96.2529 27.8765 96.3764 29.2487 96.3764 30.7999V35.6155C96.3764 37.8443 96.8623 39.4551 97.8296 40.4523C98.7991 41.4496 100.536 41.9524 103.037 41.9524V50.2795Z" fill="#272727"/>
</svg>
