<svg width="132" height="88" viewBox="0 0 132 88" fill="none" xmlns="http://www.w3.org/2000/svg">
<path d="M116.093 29.7461H15.9076C8.03355 29.7461 1.65039 36.1282 1.65039 44.0008C1.65039 51.8735 8.03355 58.2556 15.9076 58.2556H116.093C123.967 58.2556 130.35 51.8735 130.35 44.0008C130.35 36.1282 123.967 29.7461 116.093 29.7461Z" fill="black"/>
<path d="M70.863 41.1601H66.8941L64.7285 51.3202H69.0442C72.523 51.3202 74.5583 48.9239 75.0492 46.2402C75.5254 43.5564 74.428 41.1601 70.863 41.1601ZM69.4488 49.2421H67.5869L68.8716 43.2382H70.5308C72.2918 43.2382 72.8836 44.7099 72.6239 46.2402C72.3496 47.7697 71.2098 49.2421 69.4488 49.2421ZM84.1175 43.2382L84.5653 41.1601H76.9435L74.7794 51.3202H82.4013L82.8336 49.2421H77.637L78.0702 47.2218H82.3427L82.7612 45.2593H78.4886L78.9217 43.2382H84.1175ZM88.9303 44.8694C87.3859 44.696 87.2849 44.263 87.3566 43.8731C87.429 43.4408 87.9053 42.8922 89.1615 42.8922C90.4169 42.8922 90.7059 43.6134 90.5903 44.2776H92.9285C93.1597 42.5601 92.2934 40.9297 89.536 40.9297C86.895 40.9297 85.2203 42.2573 84.9175 43.9602C84.6146 45.7493 85.3213 46.8034 88.3816 47.2072C89.8682 47.409 90.2581 47.7697 90.1425 48.3761C90.0562 48.9385 89.4212 49.5881 87.9631 49.5881C86.4333 49.5881 86.1444 48.6357 86.3177 47.7411H83.9218C83.5465 49.733 84.6146 51.5514 87.6163 51.5514C90.561 51.5514 92.2788 50.0211 92.5963 48.232C93.0009 45.9227 91.485 45.1576 88.9303 44.8694ZM95.2181 51.3202L97.3836 41.1601H94.9584L92.7936 51.3202H95.2181ZM97.107 46.2402C96.5729 49.2275 97.8869 51.5514 100.875 51.5514C102.462 51.5514 103.343 50.4403 103.805 49.7183C103.877 49.6174 104.007 49.5026 104.137 49.5742C104.266 49.6459 104.18 49.8054 104.036 50.0365C103.775 50.4542 103.631 50.8441 103.588 51.0606L103.53 51.3202H105.956L107.139 45.7786H102.404L101.986 47.7411H104.296C104.064 48.3907 103.112 49.4733 101.611 49.4733C99.7634 49.4733 99.2001 48.0301 99.5322 46.2402C99.8497 44.451 101.077 43.0078 102.91 43.0078C104.209 43.0078 104.8 43.7005 104.916 44.6244H107.327C107.428 42.7335 106.259 40.9297 103.271 40.9297C99.9507 40.9297 97.6272 43.3106 97.107 46.2402ZM107.227 51.3202H109.653L111.053 44.7399C111.139 44.3354 111.053 43.9602 110.966 43.5996C110.908 43.383 110.923 43.195 111.154 43.1519C111.255 43.1372 111.327 43.2382 111.356 43.3253L113.001 51.3202H116.696L118.861 41.1601H116.437L115.036 47.7411C114.95 48.1449 115.022 48.5201 115.123 48.8815C115.18 49.0973 115.167 49.2999 114.921 49.3284C114.82 49.3431 114.748 49.2421 114.733 49.1558L113.088 41.1601H109.393L107.227 51.3202Z" fill="white"/>
<path d="M21.6631 39.3866L22.11 37.3085H14.4898L12.3242 47.4687H19.946L20.3784 45.3906H15.1834L15.6157 43.3702H19.8882L20.3075 41.4077H16.0349L16.4681 39.3866H21.6631ZM21.6137 42.3886C21.0943 45.3181 22.4368 47.6998 25.8 47.6998C28.9905 47.6998 30.8085 45.5493 31.314 43.6299H28.9034C28.5998 44.5099 27.7343 45.6217 26.2038 45.6217C24.486 45.6217 23.7068 44.1785 24.0382 42.3886C24.3565 40.5994 25.6266 39.1562 27.3444 39.1562C28.8741 39.1562 29.365 40.2673 29.3504 41.1473H31.761C31.9198 39.2287 30.8809 37.0781 27.6904 37.0781C24.3272 37.0781 22.1339 39.4591 21.6137 42.3886ZM38.1367 37.0781C34.7304 37.0781 32.5224 39.4591 32.0022 42.3886C31.4828 45.3181 32.8399 47.6998 36.2462 47.6998C39.6525 47.6998 41.8759 45.3189 42.3953 42.3886C42.9147 39.4591 41.5437 37.0781 38.1367 37.0781ZM36.6215 45.6217C34.8459 45.6217 34.0953 44.1785 34.4275 42.3886C34.745 40.5994 35.9865 39.1562 37.7621 39.1562C39.537 39.1562 40.2876 40.5994 39.9701 42.3886C39.6387 44.1785 38.3971 45.6217 36.6215 45.6217ZM42.1233 47.4687H44.5478L45.9481 40.9022C46.0344 40.4839 46.0205 39.9352 45.9481 39.5022C45.9188 39.271 45.9334 39.0984 46.1353 39.0553C46.3234 39.0121 46.338 39.1555 46.3519 39.3003L46.7989 47.4687H49.6865L53.5984 39.3003C53.6701 39.1562 53.7425 39.0121 53.9298 39.0553C54.1032 39.0984 54.06 39.271 53.9159 39.5022C53.6701 39.9352 53.425 40.4839 53.3379 40.9022L51.9392 47.4687H54.3637L56.5292 37.3085H52.6605L49.2973 44.4089C49.1267 44.7553 48.9914 45.118 48.8935 45.4915C48.8642 45.6502 48.7926 45.7805 48.6045 45.7805C48.4172 45.7805 48.4026 45.6502 48.4311 45.4915C48.5036 45.1016 48.5182 44.7703 48.4889 44.4089L48.1575 37.3085H44.2888L42.1233 47.4687ZM55.7539 47.4687H58.1784L59.5787 40.9022C59.665 40.4839 59.6511 39.9352 59.5787 39.5022C59.5494 39.271 59.5641 39.0984 59.766 39.0553C59.954 39.0121 59.9687 39.1555 59.9825 39.3003L60.4303 47.4687H63.3172L67.229 39.3003C67.3007 39.1562 67.3731 39.0121 67.5604 39.0553C67.7338 39.0984 67.6907 39.271 67.5465 39.5022C67.3007 39.9352 67.0556 40.4839 66.9685 40.9022L65.569 47.4687H67.9935L70.1591 37.3085H66.2904L62.9272 44.4089C62.7565 44.7553 62.6212 45.118 62.5234 45.4915C62.4941 45.6502 62.4224 45.7805 62.2344 45.7805C62.0471 45.7805 62.0325 45.6502 62.061 45.4915C62.1334 45.1016 62.1481 44.7703 62.1188 44.4089L61.7874 37.3085H57.9187L55.7539 47.4687ZM69.6874 44.929L69.1526 47.4687H71.6927L72.2268 44.929H69.6874Z" fill="white"/>
</svg>
