<svg width="132" height="88" viewBox="0 0 132 88" fill="none" xmlns="http://www.w3.org/2000/svg">
<path d="M66 77C84.2254 77 99 62.2254 99 44C99 25.7746 84.2254 11 66 11C47.7746 11 33 25.7746 33 44C33 62.2254 47.7746 77 66 77Z" fill="#4515FB"/>
<path fill-rule="evenodd" clip-rule="evenodd" d="M63.9115 23.5316H67.6709V27.4064C69.2218 27.6124 70.6605 28.0944 71.9871 28.8524C73.8411 29.8932 75.2721 31.2919 76.2805 33.0483L72.6701 35.8294C71.3073 33.8103 69.6409 32.5746 67.6709 32.1221V41.414L69.1085 42.0745C71.8082 43.3105 73.7598 44.6278 74.9634 46.0264C76.1995 47.4251 76.8173 49.1652 76.8173 51.247C76.8173 54.0115 75.7926 56.2559 73.7435 57.9799C72.0907 59.3928 70.0666 60.2268 67.6709 60.4818V63.6329H63.9115V60.4213C62.1343 60.1724 60.4839 59.6025 58.9602 58.7117C56.846 57.4757 55.1546 55.768 53.886 53.5888L57.5453 50.8078C59.3784 53.4812 61.5004 55.1083 63.9115 55.6891V45.2594L63.2537 44.9531C60.7492 43.8147 58.8626 42.5624 57.5941 41.1962C56.3581 39.7976 55.7401 38.0737 55.7401 36.0245C55.7401 33.4549 56.7158 31.3569 58.6674 29.7306C60.152 28.4935 61.9 27.7269 63.9115 27.4309V23.5316ZM63.9115 32.1898C63.3363 32.3605 62.8243 32.6142 62.3755 32.9508C61.4647 33.6338 61.0094 34.5934 61.0094 35.8294C61.0419 36.4148 61.1069 36.9027 61.2045 37.2931C61.3346 37.6508 61.6436 38.0412 62.1315 38.464C62.6194 38.8543 62.961 39.0983 63.1561 39.1959C63.2668 39.2512 63.5185 39.3797 63.9115 39.5814V32.1898ZM67.6709 47.0303V55.7687C68.5741 55.5802 69.3461 55.2277 69.9867 54.7112C71.0275 53.8979 71.548 52.8081 71.548 51.4421C71.548 50.3362 71.2064 49.4743 70.5234 48.8563C69.9552 48.3151 69.0044 47.7065 67.6709 47.0303Z" fill="white"/>
</svg>
