<svg width="132" height="88" viewBox="0 0 132 88" fill="none" xmlns="http://www.w3.org/2000/svg">
<path d="M58.9737 60.3356H68.8408V72.0665C68.8408 74.7911 66.6319 77 63.9073 77C61.1826 77 58.9737 74.7911 58.9737 72.0665V60.3356Z" fill="#F3C18A"/>
<path fill-rule="evenodd" clip-rule="evenodd" d="M46.914 27.9934C46.914 18.6082 54.5222 11 63.9074 11C73.2925 11 80.9007 18.6082 80.9007 27.9934V45.1474C83.0252 44.0469 85.0462 42.8848 86.9137 41.6685L86.6289 41.3278L83.1853 40.6224C83.4146 39.2524 84.7949 36.7301 88.4808 37.6024C88.4808 37.6024 92.2685 32.7099 99.1082 33.6711C98.4115 40.991 93.3618 43.049 93.3618 43.049C93.6808 44.7177 93.3423 48.0727 89.4351 48.1435L89.5671 44.8407L89.0435 44.2147C86.2526 45.6759 83.5361 47.0178 80.9007 48.2464V61.2126H46.914V59.1033C29.7739 61.1993 26.7207 53.5579 46.914 43.7641V27.9934ZM46.914 56.2258V45.3522C28.2776 55.37 33.8987 58.1828 46.914 56.2258Z" fill="#EE6663"/>
<path d="M94.2761 39.2857C95.1238 39.2857 95.811 38.5985 95.811 37.7508C95.811 36.9031 95.1238 36.2159 94.2761 36.2159C93.4285 36.2159 92.7413 36.9031 92.7413 37.7508C92.7413 38.5985 93.4285 39.2857 94.2761 39.2857Z" fill="#F7EDED"/>
<path d="M91.645 40.8206C92.1294 40.8206 92.5221 40.4279 92.5221 39.9435C92.5221 39.4591 92.1294 39.0665 91.645 39.0665C91.1606 39.0665 90.7679 39.4591 90.7679 39.9435C90.7679 40.4279 91.1606 40.8206 91.645 40.8206Z" fill="#F7EDED"/>
<path d="M55.6847 36.216C56.8957 36.216 57.8774 35.2343 57.8774 34.0233C57.8774 32.8123 56.8957 31.8306 55.6847 31.8306C54.4737 31.8306 53.492 32.8123 53.492 34.0233C53.492 35.2343 54.4737 36.216 55.6847 36.216Z" fill="#F7EDED"/>
<path d="M73.2264 53.7575C74.1952 53.7575 74.9806 52.9721 74.9806 52.0034C74.9806 51.0346 74.1952 50.2492 73.2264 50.2492C72.2576 50.2492 71.4723 51.0346 71.4723 52.0034C71.4723 52.9721 72.2576 53.7575 73.2264 53.7575Z" fill="#F7EDED"/>
<path d="M55.1365 51.784C56.0448 51.784 56.781 51.0478 56.781 50.1395C56.781 49.2313 56.0448 48.495 55.1365 48.495C54.2283 48.495 53.492 49.2313 53.492 50.1395C53.492 51.0478 54.2283 51.784 55.1365 51.784Z" fill="#F7EDED"/>
<path d="M71.5817 24.3754C72.49 24.3754 73.2262 23.6391 73.2262 22.7309C73.2262 21.8227 72.49 21.0864 71.5817 21.0864C70.6735 21.0864 69.9372 21.8227 69.9372 22.7309C69.9372 23.6391 70.6735 24.3754 71.5817 24.3754Z" fill="#F7EDED"/>
<path d="M66.429 39.9435C67.1556 39.9435 67.7447 39.3545 67.7447 38.6279C67.7447 37.9013 67.1556 37.3123 66.429 37.3123C65.7024 37.3123 65.1134 37.9013 65.1134 38.6279C65.1134 39.3545 65.7024 39.9435 66.429 39.9435Z" fill="#F7EDED"/>
</svg>
