<svg width="132" height="88" viewBox="0 0 132 88" fill="none" xmlns="http://www.w3.org/2000/svg">
<path d="M100.339 44.0007C100.339 62.9599 84.9697 78.3295 66.0104 78.3295C47.0511 78.3295 31.6816 62.9599 31.6816 44.0007C31.6816 25.0414 47.0511 9.67188 66.0104 9.67188C84.9697 9.67188 100.339 25.0414 100.339 44.0007Z" fill="white"/>
<path d="M100.339 44.0007C100.339 62.9599 84.9697 78.3295 66.0104 78.3295C47.0511 78.3295 31.6816 62.9599 31.6816 44.0007C31.6816 25.5612 47.0511 9.67188 66.0104 9.67188C84.9697 9.67188 100.339 25.0414 100.339 44.0007Z" fill="white"/>
<path fill-rule="evenodd" clip-rule="evenodd" d="M66.0013 9.67188C43.0585 9.67188 27.9283 31.1926 32.4653 51.455C32.9511 53.6244 34.2735 57.2419 34.3292 57.2419C34.3849 57.2419 35.7467 56.4168 37.5656 55.3689C43.0039 52.2348 43.8255 51.7634 44.6829 51.2832L45.5027 50.8239L45.2823 50.0721C43.0246 42.368 45.2911 33.9036 51.0578 28.5048C61.5898 18.6447 78.5176 21.4895 85.0915 34.2236C85.6349 35.2762 86.408 37.121 86.3344 37.1902C86.2875 37.2347 83.8982 38.6093 66.0015 48.8916C61.7319 51.345 58.0721 53.4525 57.8688 53.5757L57.4984 53.8L58.0414 54.208C61.9638 57.1566 67.1807 56.9594 71.6983 55.3689C76.1544 53.8 100.142 39.2927 100.142 39.2927C100.142 39.2927 99.2338 34.7363 98.6251 32.9542C94.4717 20.7913 82.3893 9.67188 66.0013 9.67188ZM64.4502 31.1926C58.3076 31.8357 53.3643 37.0405 53.0433 43.2016C52.9664 44.6785 53.0788 46.2876 53.2586 46.2876C53.3235 46.2876 55.4537 45.0927 57.9926 43.6324C60.5314 42.1725 63.8765 40.2497 65.4265 39.3602C69.7841 36.8588 72.7686 35.1425 73.6221 34.6476L74.4004 34.1966L73.6795 33.6578C71.13 31.752 67.7444 30.8474 64.4502 31.1926ZM100.142 48.8916C100.142 48.8916 81.4084 61.6512 75.0292 63.4029C66.7941 66.8539 56.5542 65.3791 50.3862 58.8405L49.7785 58.1964L48.5461 58.9215C47.8681 59.3203 45.735 60.5485 43.8057 61.6512C41.8764 62.7541 39.8744 63.9028 39.3569 64.2045L38.4162 64.7528L38.9222 65.3915C47.9031 76.7258 63.3793 81.1984 77.2142 76.458C88.6699 72.5333 98.2393 62.3288 100.142 48.8916Z" fill="url(#paint0_linear_2056_27932)"/>
<defs>
<linearGradient id="paint0_linear_2056_27932" x1="31.6611" y1="9.67187" x2="102.886" y2="75.3539" gradientUnits="userSpaceOnUse">
<stop stop-color="#FB4040"/>
<stop offset="1" stop-color="#FF5F03"/>
</linearGradient>
</defs>
</svg>
