<svg width="132" height="88" viewBox="0 0 132 88" fill="none" xmlns="http://www.w3.org/2000/svg">
<path d="M46.181 12.0156C39.9261 12.0156 34.8555 17.223 34.8555 23.6464V64.3549C34.8555 70.7778 39.9261 75.9852 46.181 75.9852H51.8436C54.9709 75.9852 57.5066 73.3815 57.5066 70.17V17.8311C57.5066 14.6193 54.9709 12.0156 51.8436 12.0156H46.181ZM72.5337 15.0026C71.4522 13.9071 72.2068 12.0156 73.7261 12.0156H85.8204C92.0752 12.0156 97.146 17.223 97.146 23.6464V35.7524C97.146 37.3007 95.3279 38.0817 94.2543 36.9946L72.5337 15.0026ZM68.8322 33.7114C68.8322 32.1516 70.6725 31.3755 71.739 32.4854L81.6343 42.7745C82.288 43.4541 82.288 44.5466 81.6343 45.2262L71.739 55.5156C70.6725 56.6252 68.8322 55.8491 68.8322 54.2899V33.7114ZM73.7261 75.9852C72.2068 75.9852 71.4522 74.0943 72.5337 72.9979L94.2543 51.0061C95.3279 49.919 97.146 50.7 97.146 52.2486V64.3549C97.146 70.7778 92.0752 75.9852 85.8204 75.9852H73.7261Z" fill="url(#paint0_linear_2056_25063)"/>
<defs>
<linearGradient id="paint0_linear_2056_25063" x1="97.2898" y1="30.5508" x2="34.8555" y2="76.401" gradientUnits="userSpaceOnUse">
<stop stop-color="#59E0FF"/>
<stop offset="1" stop-color="#B721FF"/>
</linearGradient>
</defs>
</svg>
