<svg width="132" height="88" viewBox="0 0 132 88" fill="none" xmlns="http://www.w3.org/2000/svg">
<path fill-rule="evenodd" clip-rule="evenodd" d="M66 11C47.7745 11 33 25.7745 33 44C33 62.2255 47.7745 77 66 77C84.2255 77 99 62.2255 99 44C99 25.7745 84.2255 11 66 11ZM46.8601 48.95C49.0601 57.64 56.98 63.8 66 63.8C75.02 63.8 82.9399 57.64 85.1399 48.95C85.47 47.96 84.8101 46.86 83.82 46.64C82.83 46.31 81.73 46.97 81.5101 47.96C79.6399 55 73.2601 59.95 66 59.95C58.7399 59.95 52.3601 55 50.4899 47.96C50.27 46.97 49.17 46.42 48.18 46.64C47.1899 46.86 46.6399 47.96 46.8601 48.95Z" fill="black"/>
</svg>
