<svg width="132" height="88" viewBox="0 0 132 88" fill="none" xmlns="http://www.w3.org/2000/svg">
<path d="M74.7732 60.4593C72.1116 59.0388 69.1268 58.3337 66.1107 58.4133V53.9583C69.7775 53.8837 73.4037 54.7349 76.6542 56.4333C79.316 57.8537 82.3009 58.5586 85.3167 58.4793C86.2317 58.4773 87.1459 58.4276 88.0557 58.3308L91.9662 54.6018C92.9727 53.6448 93.9132 52.6383 94.8042 51.6153C91.8349 52.9909 88.5882 53.6629 85.3167 53.5788C81.6546 53.667 78.0288 52.833 74.7732 51.1533C72.1143 49.7255 69.1274 49.0201 66.1107 49.1073V44.5533C69.7816 44.4953 73.4077 45.3636 76.6542 47.0778C79.3132 48.5053 82.3 49.2109 85.3167 49.1238C88.339 49.213 91.3316 48.5075 93.9957 47.0778C95.6832 46.2239 97.4668 45.5758 99.3087 45.1473C100.24 43.4717 101.019 41.7156 101.635 39.9003C99.6285 40.1877 97.6861 40.8185 95.8932 41.7648C92.6297 43.458 88.9926 44.3033 85.3167 44.2233C81.6461 44.3041 78.0143 43.4586 74.7567 41.7648C72.0978 40.337 69.1109 39.6316 66.0942 39.7188V35.2638C69.7673 35.1785 73.4016 36.0303 76.6542 37.7388C79.316 39.1592 82.3009 39.8641 85.3167 39.7848C88.338 39.8656 91.3287 39.1606 93.9957 37.7388C96.7304 36.3069 99.7409 35.4796 102.823 35.3133C104.341 26.4032 101.173 17.9882 92.0652 13.7147C75.9777 6.10821 66.9852 20.8757 66.0777 22.4432C66.0739 22.4871 66.0739 22.5313 66.0777 22.5752C66.0777 22.5752 66.0777 22.5752 65.9952 22.4432C65.0877 20.8757 56.0952 6.10821 39.9913 13.7147C24.1183 21.1727 26.0818 41.2533 40.0243 54.6018C52.8282 66.8448 63.0252 75.4083 65.9952 76.4478C68.2392 75.6558 74.7732 70.5738 83.2047 62.8518C80.2606 62.6364 77.3916 61.8223 74.7732 60.4593Z" fill="#EB3656"/>
</svg>
