<svg width="360" height="360" viewBox="0 0 360 360" fill="none" xmlns="http://www.w3.org/2000/svg">
<path d="M268.122 60.1746C231.761 17.637 114.087 100.113 115.042 206.24C115.022 207.544 114.494 208.788 113.571 209.709C112.647 210.632 111.401 211.159 110.095 211.179C109.238 211.169 108.398 210.941 107.654 210.517C106.91 210.092 106.286 209.485 105.843 208.753C98.964 193.9 95.4103 177.728 95.4295 161.363C95.4219 149.053 97.4148 136.823 101.33 125.15C101.672 124.145 101.653 123.053 101.278 122.059C100.904 121.066 100.196 120.233 99.2752 119.702C98.3545 119.171 97.278 118.975 96.2288 119.147C95.1795 119.319 94.2224 119.848 93.5203 120.645C34.2669 185.205 67.2433 289.6 152.878 308.547C160.94 310.332 169.175 311.233 177.437 311.241C337.633 308.035 300.578 98.1205 268.122 60.1746Z" fill="#8BB252"/>
</svg>
