<svg width="132" height="88" viewBox="0 0 132 88" fill="none" xmlns="http://www.w3.org/2000/svg">
<path d="M90.2338 11.0492C80.2347 -0.648597 47.8744 22.0323 48.1369 51.2173C48.1313 51.5758 47.9862 51.9179 47.7323 52.1713C47.4784 52.425 47.1356 52.5699 46.7766 52.5754C46.5409 52.5728 46.3098 52.51 46.1052 52.3934C45.9005 52.2765 45.7291 52.1096 45.6072 51.9082C43.7155 47.8236 42.7382 43.3763 42.7435 38.8762C42.7414 35.4909 43.2895 32.1277 44.3663 28.9176C44.4601 28.6411 44.455 28.3407 44.352 28.0675C44.2489 27.7943 44.0542 27.5652 43.8011 27.4192C43.5479 27.2732 43.2518 27.2192 42.9633 27.2665C42.6748 27.3138 42.4116 27.4595 42.2185 27.6787C25.9238 45.4327 34.9923 74.1412 58.5418 79.3517C60.7588 79.8426 63.0236 80.0902 65.2956 80.0926C109.349 79.211 99.1593 21.4843 90.2338 11.0492Z" fill="#8BB252"/>
</svg>
