<svg width="132" height="88" viewBox="0 0 132 88" fill="none" xmlns="http://www.w3.org/2000/svg">
<path fill-rule="evenodd" clip-rule="evenodd" d="M32.1675 61.5787C44.7127 61.5154 57.3627 62.4694 70.0055 64.4992L71.2309 64.6991L71.223 72.8421C66.9291 70.2285 62.3132 67.9974 57.3987 66.2163C49.2353 63.2564 40.8944 61.7643 32.6673 61.604L32.0156 61.5941V61.58L32.1675 61.5787ZM86.128 31.0757C90.2389 31.9029 94.3461 32.8299 98.446 33.8576L99.9833 34.2478L99.9574 71.3618C90.8368 68.6291 81.6642 66.4852 72.4814 64.91L71.2309 64.6991L71.2331 56.8894C75.7918 55.8749 80.3128 54.7004 84.7766 53.3718L86.1131 52.9684L86.128 31.0757ZM32.0486 25.8325C44.5757 25.929 57.3036 28.1219 69.7448 32.6335L70.4994 32.9102L71.251 33.1921L71.2331 56.8894C58.4872 59.7293 45.4024 61.316 32.1675 61.5787L32.0906 61.5781L32.0156 61.58L32.0486 25.8325ZM86.139 15.1562L86.128 31.0757C81.1752 30.0796 76.2098 29.226 71.254 28.516C58.5881 26.7012 45.9252 25.8138 33.349 25.8138L32.0486 25.8168C50.42 25.3815 68.4243 21.8178 85.3225 15.4658L86.139 15.1562Z" fill="black"/>
</svg>
