<svg width="360" height="360" viewBox="0 0 360 360" fill="none" xmlns="http://www.w3.org/2000/svg">
<path fill-rule="evenodd" clip-rule="evenodd" d="M189.203 271.218L95.2731 177.115C75.6223 157.428 74.7667 125.821 93.3236 105.1C110.829 85.5522 140.867 83.8971 160.415 101.403C160.916 101.851 161.407 102.31 161.888 102.78L189.203 129.414L209.23 106.324C227.546 85.2073 259.467 82.821 280.719 100.98C300.886 118.212 303.265 148.531 286.033 168.698C285.511 169.309 284.973 169.907 284.421 170.491L189.203 271.218Z" fill="#FFA8B4" stroke="#FFA8B4" stroke-width="6" stroke-linejoin="round"/>
<path fill-rule="evenodd" clip-rule="evenodd" d="M171.703 271.218L77.7731 177.115C58.1223 157.428 57.2667 125.821 75.8236 105.1C93.3295 85.5522 123.367 83.8971 142.915 101.403C143.416 101.851 143.907 102.31 144.388 102.78L171.703 129.414L191.73 106.324C210.046 85.2073 241.967 82.821 263.219 100.98C283.386 118.212 285.765 148.531 268.533 168.698C268.011 169.309 267.473 169.907 266.921 170.491L171.703 271.218Z" stroke="#FF3E71" stroke-width="9" stroke-linejoin="round"/>
</svg>
