<svg width="132" height="88" viewBox="0 0 132 88" fill="none" xmlns="http://www.w3.org/2000/svg">
<path d="M56.5621 64.6874C53.0766 64.6841 49.7347 63.298 47.2701 60.8334C44.8054 58.3687 43.4193 55.0269 43.416 51.5413V23.3145H75.4379C78.9234 23.3178 82.2653 24.7038 84.7299 27.1685C87.1946 29.6331 88.5807 32.975 88.584 36.4605V52.7195H97.625V36.4605C97.625 30.5762 95.2874 24.9328 91.1265 20.7719C86.9657 16.611 81.3223 14.2734 75.4379 14.2734L34.375 14.2734V51.5413C34.375 57.4257 36.7126 63.0691 40.8735 67.23C45.0343 71.3909 50.6777 73.7284 56.5621 73.7284H88.584V64.6874H56.5621Z" fill="#3366FF"/>
<path d="M75.6872 34.6016H70.5156V38.0369H74.8563V40.2445H70.5156V52.7208H79.5567V38.4834C79.5567 37.456 79.1494 36.4705 78.4241 35.7429C77.6988 35.0153 76.7146 34.6048 75.6872 34.6016Z" fill="#3366FF"/>
<path d="M57.6045 34.6016H52.4453V38.0369H57.2449V40.2445H52.4453V52.7208H61.4863V38.4834C61.4863 37.4539 61.0774 36.4665 60.3494 35.7385C59.6214 35.0105 58.634 34.6016 57.6045 34.6016Z" fill="#3366FF"/>
</svg>
