<svg width="132" height="88" viewBox="0 0 132 88" fill="none" xmlns="http://www.w3.org/2000/svg">
<path fill-rule="evenodd" clip-rule="evenodd" d="M68.5306 69.0841L42.6999 43.2058C37.2959 37.7919 37.0606 29.1 42.1637 23.4017C46.9779 18.0261 55.2383 17.5709 60.6139 22.385C60.7516 22.5083 60.8866 22.6346 61.019 22.7636L68.5306 30.0881L74.038 23.7384C79.0748 17.9312 87.8532 17.275 93.6974 22.2687C99.2434 27.0076 99.8977 35.3452 95.1588 40.8912C95.0152 41.0592 94.8674 41.2237 94.7155 41.3843L68.5306 69.0841Z" fill="#FFA8B4" stroke="#FFA8B4" stroke-width="1.65" stroke-linejoin="round"/>
<path fill-rule="evenodd" clip-rule="evenodd" d="M63.7181 69.0841L37.8874 43.2058C32.4834 37.7919 32.2481 29.1 37.3512 23.4017C42.1654 18.0261 50.4258 17.5709 55.8014 22.385C55.9391 22.5083 56.0741 22.6346 56.2065 22.7636L63.7181 30.0881L69.2255 23.7384C74.2623 17.9312 83.0407 17.275 88.8849 22.2687C94.4309 27.0076 95.0852 35.3452 90.3463 40.8912C90.2027 41.0592 90.0549 41.2237 89.903 41.3843L63.7181 69.0841Z" stroke="#FF3E71" stroke-width="2.475" stroke-linejoin="round"/>
</svg>
