<svg width="132" height="88" viewBox="0 0 132 88" fill="none" xmlns="http://www.w3.org/2000/svg">
<path fill-rule="evenodd" clip-rule="evenodd" d="M54.4526 9.07013C53.6831 9.51286 51.2849 10.8043 49.1235 11.9402C46.9617 13.076 44.2861 14.5105 43.1777 15.1274C42.069 15.7446 40.6645 16.4783 40.0562 16.758C37.6181 17.8788 37.4905 18.2153 37.4845 23.535C37.4814 26.1798 37.3635 28.5165 37.2222 28.7284C36.9498 29.1365 34.8506 30.4094 32.2436 31.7467C31.3779 32.1908 30.2371 32.8448 29.7079 33.1994L28.7461 33.8442V43.9542V54.0641L29.533 54.4201C29.966 54.616 30.6365 54.966 31.0233 55.1982C31.4101 55.4304 33.0235 56.3722 34.6082 57.2909L37.4898 58.9614V64.0493C37.4898 70.1173 37.0614 69.4844 43.4355 72.831C45.84 74.0935 49.0664 75.8053 50.6053 76.6348C52.1442 77.4643 54.1116 78.4746 54.9772 78.8802L56.5511 79.6174L61.1544 77.2775C66.1712 74.7275 66.4706 74.6862 68.9087 76.206C69.6141 76.6456 71.4157 77.623 72.9119 78.3777L75.633 79.7499L76.7591 79.0963C77.3789 78.7372 79.853 77.4083 82.2575 76.1434C84.662 74.8785 87.5737 73.3371 88.7279 72.7174C89.882 72.0974 91.6528 71.158 92.6625 70.6296L94.4987 69.669V64.3717V59.074L95.4605 58.3729C95.9897 57.9868 96.6584 57.5636 96.9469 57.4318C97.2355 57.3 98.4159 56.6397 99.57 55.9648C100.724 55.2895 102.025 54.5849 102.461 54.3985L103.253 54.0599L103.16 43.8853L103.068 33.7103L101.319 32.6941C100.357 32.1349 99.2553 31.5149 98.8706 31.3159C96.7154 30.2021 95.0202 29.1474 94.7813 28.7714C94.6316 28.5361 94.5071 26.1116 94.504 23.3839L94.4987 18.4244L93.5369 17.7491C92.6926 17.156 90.2678 15.839 82.957 12.0024C81.899 11.4471 79.9317 10.384 78.5852 9.63945C77.2386 8.89493 75.882 8.27421 75.5703 8.26057C75.0517 8.23749 70.9775 10.2193 68.4425 11.7279C66.0943 13.125 66.231 13.1571 59.5302 9.61777C58.0913 8.85751 56.6749 8.24203 56.3825 8.25008C56.0904 8.25812 55.222 8.62706 54.4526 9.07013ZM54.8023 13.3169C54.0329 13.7625 52.3803 14.6658 51.13 15.3242C49.8796 15.9824 47.2827 17.3494 45.3591 18.3621C43.4355 19.3745 41.5906 20.4422 41.2594 20.7342C40.7578 21.1762 40.641 22.0309 40.5599 25.8406L40.4626 30.4161L39.0637 31.3425C38.2942 31.852 36.7203 32.7801 35.5662 33.4047C34.412 34.0292 33.2711 34.7891 33.0305 35.0934C32.7098 35.499 32.5947 37.7455 32.5982 43.5349C32.6007 47.874 32.6881 51.7407 32.792 52.1278C32.9878 52.8559 33.2169 53.0143 37.3149 55.2475C38.6614 55.9812 39.9601 56.7387 40.2003 56.9307C40.5092 57.1772 40.6375 58.5918 40.6375 61.7444C40.6375 65.4816 40.7372 66.3293 41.2496 66.9476C41.5864 67.354 43.6716 68.6108 45.8837 69.7407C52.8703 73.3091 55.4917 74.7075 55.8341 75.0481C56.2653 75.4769 58.5866 75.4765 59.0168 75.0471C59.3305 74.7341 60.7316 73.9452 64.4721 71.976L66.0978 71.1199L67.7948 72.0722C72.1816 74.5344 73.8825 75.379 74.4606 75.3832C75.0359 75.387 78.9339 73.5025 84.1811 70.6828C85.3353 70.0628 87.1453 69.1081 88.2032 68.5615C91.4667 66.8756 91.351 67.113 91.351 62.1024C91.351 59.0775 91.4891 57.5101 91.7882 57.1489C92.2813 56.553 93.0588 56.055 96.0726 54.4058C99.6708 52.437 99.3952 53.2955 99.3952 44.0546C99.3952 39.5801 99.2951 35.6582 99.1727 35.3392C99.0503 35.0203 98.6173 34.6129 98.2109 34.4342C97.8042 34.2555 96.5272 33.5564 95.3731 32.8812C94.2189 32.2059 92.9339 31.4795 92.5174 31.2669C91.4944 30.7455 91.3615 30.0625 91.3559 25.3073C91.3503 20.5146 91.8133 21.1129 85.5801 17.846C83.4642 16.7371 80.2794 15.0651 78.5026 14.1307C75.414 12.5063 73.6922 12.073 72.9717 12.7389C72.3068 13.3533 66.5839 16.2786 66.0467 16.2786C65.7431 16.2786 64.8198 15.9051 63.9954 15.4484C57.9063 12.0751 57.2201 11.916 54.8023 13.3169ZM71.3573 16.0779C70.2671 16.6692 68.7279 17.5071 67.9364 17.9397C66.1334 18.9255 65.9355 18.921 63.9479 17.8523C63.0536 17.3714 61.5902 16.5846 60.6959 16.1037C58.9066 15.1417 57.6528 15.013 56.4843 15.6719C55.7089 16.109 53.795 17.1242 47.4576 20.4604C42.4723 23.0845 42.736 22.7111 42.736 27.145C42.736 31.3603 42.608 31.9282 41.5518 32.3968C41.145 32.5773 40.3402 33.0357 39.7632 33.4155C39.1861 33.7953 38.4778 34.2118 38.1893 34.3415C37.9007 34.4709 37.232 34.8769 36.7029 35.2434L35.7411 35.9096L35.7463 43.6667C35.7494 47.9331 35.8673 51.5893 36.0086 51.7918C36.28 52.1799 39.5015 54.3964 39.795 54.3964C40.0555 54.3964 42.1761 55.9218 42.4685 56.3197C42.6098 56.5121 42.7276 58.4155 42.7308 60.5494C42.7364 64.7696 42.7972 64.9148 45.0094 65.9985C45.9149 66.4423 52.6381 69.9547 56.3709 71.9344C57.0414 72.29 57.8895 72.581 58.2557 72.581C58.6219 72.581 60.4032 71.7942 62.2142 70.8325C64.0252 69.8708 65.7389 69.0839 66.0222 69.0839C66.4587 69.0839 68.3502 70.0187 72.204 72.1386C73.2627 72.7212 74.1825 72.6866 75.4374 72.0169C76.0145 71.7088 77.6671 70.8332 79.1098 70.0708C80.5525 69.3085 83.0693 67.9775 84.7026 67.1137C89.0643 64.8064 88.9027 65.0498 88.9027 60.7886C88.9027 58.7862 89.0542 56.8653 89.2392 56.5194C89.4242 56.1736 90.7228 55.2175 92.1246 54.3946C96.2614 51.967 95.8977 52.9773 95.8977 43.9119C95.8977 36.0771 95.8883 35.975 95.0884 35.2235C94.6432 34.8052 94.1822 34.4632 94.064 34.4632C93.5156 34.4632 89.5365 31.846 89.2385 31.2896C89.0538 30.9448 88.8978 29.039 88.8915 27.0551C88.8846 24.7631 88.7251 23.251 88.4544 22.9086C88.22 22.6124 87.2243 21.9539 86.2419 21.4451C85.2591 20.9363 83.5278 20.0148 82.3946 19.3976C73.6852 14.6525 73.8776 14.7105 71.3573 16.0779ZM53.0294 27.231C52.9266 27.4989 52.8902 28.7239 52.9483 29.9538L53.0536 32.1901L54.8023 32.365L56.5511 32.5398L56.7392 47.4023C56.8427 55.5766 56.9606 62.3102 57.0015 62.3658C57.0424 62.4214 58.453 62.4214 60.136 62.3658L63.1963 62.2647L63.3711 55.7952L63.546 49.3257L70.1912 49.1508L76.8364 48.9759L76.9407 46.584C77.0043 45.1215 76.8857 44.0004 76.6353 43.6989C76.3111 43.3083 74.9282 43.2058 69.9803 43.2058C62.5964 43.2058 63.2949 43.8598 63.4453 37.086L63.546 32.5398L68.4156 32.4423C73.6572 32.337 73.8482 32.3975 73.8583 34.1723C73.8692 36.0768 74.0776 36.2117 77.0113 36.2117C79.1717 36.2117 79.7782 36.0974 79.9467 35.6585C80.0636 35.3543 80.159 33.6509 80.159 31.873C80.159 28.8505 80.1003 28.585 79.257 27.7923L78.3547 26.9446L65.7854 26.8446C55.3042 26.761 53.1851 26.8253 53.0294 27.231Z" fill="#A1076A"/>
</svg>
