<svg width="132" height="88" viewBox="0 0 132 88" fill="none" xmlns="http://www.w3.org/2000/svg">
<mask id="mask0_2056_26524" style="mask-type:luminance" maskUnits="userSpaceOnUse" x="40" y="12" width="52" height="64">
<path d="M91.9073 12.0156H40.0918V75.9852H91.9073V12.0156Z" fill="white"/>
</mask>
<g mask="url(#mask0_2056_26524)">
<path d="M86.4868 12.0156H45.2555C43.887 12.0172 42.5746 12.5618 41.6061 13.5299C40.6376 14.4979 40.0938 15.8105 40.0918 17.1796V70.8177C40.0928 72.188 40.6376 73.5014 41.6061 74.4699C42.5746 75.4385 43.888 75.9833 45.2574 75.9852H61.4785C62.848 75.9833 64.1614 75.4385 65.13 74.471C66.0985 73.5025 66.6433 72.1891 66.6441 70.8199V63.4699H73.9836C75.3531 63.4686 76.6654 62.9238 77.634 61.9558C78.6017 60.9878 79.1462 59.6752 79.1484 58.306V51.0718H86.4868C87.8563 51.0702 89.1686 50.526 90.1371 49.5577C91.1057 48.5897 91.6493 47.2768 91.6513 45.9079V17.1796C91.6493 15.8103 91.1057 14.4977 90.1371 13.5296C89.1686 12.5615 87.8563 12.017 86.4868 12.0156ZM87.7523 45.9079C87.7512 46.2431 87.6184 46.5649 87.3813 46.8019C87.1435 47.0392 86.8225 47.1723 86.4868 47.1723H79.1484V31.6621C79.1462 30.2928 78.6017 28.9803 77.634 28.0123C76.6654 27.044 75.3531 26.4995 73.9836 26.4981H45.2555C44.8295 26.4978 44.4049 26.5506 43.991 26.6551V17.1796C43.991 16.8441 44.1238 16.5225 44.3617 16.2853C44.5988 16.0481 44.9205 15.9149 45.2555 15.9149H86.4868C86.8225 15.9149 87.1435 16.0481 87.3813 16.2853C87.6184 16.5225 87.7512 16.8441 87.7523 17.1796V45.9079ZM73.9836 59.571H66.6441V46.1755C66.6433 44.806 66.0985 43.4931 65.13 42.5248C64.1614 41.5566 62.848 41.0118 61.4785 41.0101H45.2574C44.8306 41.0101 44.4049 41.0629 43.991 41.168V31.6621C43.991 31.3266 44.1238 31.0048 44.3617 30.7678C44.5988 30.5304 44.9205 30.3971 45.2555 30.3971H73.9836C74.3197 30.3971 74.6414 30.5304 74.8782 30.7678C75.1152 31.0048 75.2481 31.3266 75.2481 31.6621V58.3054C75.2492 58.4715 75.2162 58.636 75.1521 58.7894C75.0891 58.9432 74.9962 59.0826 74.8782 59.2003C74.7613 59.3177 74.6213 59.4109 74.4684 59.4745C74.3147 59.5383 74.1497 59.571 73.9836 59.571ZM61.4777 72.0862H45.2574C44.9216 72.0862 44.5996 71.9523 44.3617 71.7153C44.1249 71.4774 43.991 71.1556 43.991 70.8199V46.1755C43.991 45.8394 44.1249 45.5174 44.3617 45.2798C44.5996 45.0422 44.9216 44.9088 45.2574 44.9088H61.4785C61.6455 44.9088 61.8096 44.9415 61.9634 45.0051C62.1174 45.0689 62.2573 45.1621 62.3742 45.2798C62.4922 45.3972 62.5851 45.5369 62.6492 45.6906C62.713 45.8444 62.7452 46.0091 62.7452 46.1755V70.8188C62.7452 70.9857 62.713 71.1496 62.6492 71.3036C62.5851 71.4576 62.4922 71.5973 62.3742 71.7153C62.2573 71.8321 62.1174 71.9262 61.9634 71.9892C61.8096 72.0532 61.6455 72.0862 61.4785 72.0862H61.4777Z" fill="black"/>
</g>
</svg>
