<svg width="132" height="88" viewBox="0 0 132 88" fill="none" xmlns="http://www.w3.org/2000/svg">
<path d="M71.3874 33.3398C65.4311 33.3398 60.6035 38.113 60.6035 44.0008C60.6035 49.8882 65.4311 54.6617 71.3874 54.6617C77.3425 54.6617 82.1712 49.8882 82.1712 44.0008V33.3398H71.3874Z" fill="#FE2EFF"/>
<path d="M71.3864 48.1947C73.7283 48.1947 75.6275 46.3176 75.6275 44.0015C75.6275 41.686 73.7283 39.8086 71.3864 39.8086C69.0434 39.8086 67.1445 41.686 67.1445 44.0015C67.1445 46.3176 69.0434 48.1947 71.3864 48.1947Z" fill="#FF1E3B"/>
<path d="M82.1731 12.0156H60.6035V33.3398H82.1731V12.0156Z" fill="#055AFF"/>
<path d="M39.0312 33.3398C39.0312 21.562 48.6876 12.0156 60.6011 12.0156L39.0312 33.3398Z" fill="#FF1E3B"/>
<path d="M46.2208 33.3398H39.0312V54.6639H46.2208V33.3398Z" fill="#121212"/>
<path d="M60.6028 33.3398H53.4121V54.6639H60.6028V33.3398Z" fill="#121212"/>
<path d="M53.412 33.3398H46.2227V54.6639H53.412V33.3398Z" fill="white"/>
<path d="M39.0312 33.3398L60.6011 12.0156V33.3398H39.0312Z" fill="#FE2EFF"/>
<path d="M82.1695 33.3398C70.259 33.3398 60.5996 23.7932 60.5996 12.0156H82.1695V33.3398Z" fill="#191919"/>
<path d="M82.1836 33.3398C88.1398 33.3398 92.9674 28.5664 92.9674 22.6789C92.9674 16.7912 88.1398 12.0156 82.1836 12.0156V33.3398Z" fill="#FF1E3B"/>
<path d="M60.6011 54.6602C60.6011 66.4183 50.9255 75.9839 39.0312 75.9839V63.6216V61.7681C43.0024 61.7681 46.2208 58.5858 46.2208 54.6602H60.6011Z" fill="#FF1E3B"/>
<path d="M39.0312 61.7681C43.0024 61.7681 46.2208 58.5858 46.2208 54.6602H39.0312V61.7681Z" fill="#FE2EFF"/>
<path d="M49.7031 33.3389V22.6758H60.5871L49.7031 33.3389Z" fill="#FF1E3B"/>
</svg>
