<svg width="132" height="88" viewBox="0 0 132 88" fill="none" xmlns="http://www.w3.org/2000/svg">
<path fill-rule="evenodd" clip-rule="evenodd" d="M35 7C31.6863 7 29 9.68629 29 13V75C29 78.3137 31.6863 81 35 81H97C100.314 81 103 78.3137 103 75V13C103 9.68629 100.314 7 97 7H35ZM46.5218 46.4367C45.3769 45.7295 43.8755 46.0844 43.1684 47.2293C42.4612 48.3742 42.8161 49.8756 43.961 50.5828L55.9461 57.9853L43.961 65.3879C42.8161 66.095 42.4612 67.5964 43.1684 68.7413C43.8755 69.8862 45.3769 70.2411 46.5218 69.534L61.8633 60.0584C62.582 59.6145 63.0195 58.83 63.0195 57.9853C63.0195 57.1406 62.582 56.3562 61.8633 55.9123L46.5218 46.4367Z" fill="#5560FF"/>
</svg>
