<svg width="132" height="88" viewBox="0 0 132 88" fill="none" xmlns="http://www.w3.org/2000/svg">
<path d="M66 77C84.2254 77 99 62.2254 99 44C99 25.7746 84.2254 11 66 11C47.7746 11 33 25.7746 33 44C33 62.2254 47.7746 77 66 77Z" fill="#1B193B"/>
<path d="M82.4932 33.6656H46.3612C46.2483 33.6656 46.1568 33.7572 46.1568 33.8702V60.4903C46.1568 60.6033 46.2483 60.6949 46.3612 60.6949H82.4932C82.6062 60.6949 82.6978 60.6033 82.6978 60.4903V33.8702C82.6978 33.7572 82.6062 33.6656 82.4932 33.6656Z" fill="white"/>
<path fill-rule="evenodd" clip-rule="evenodd" d="M48.2278 33.2657L73.2362 26.8539C73.3916 26.814 73.5177 26.9402 73.5177 27.136V53.0351C73.5177 53.259 73.3827 53.4738 73.2161 53.5148L46.4497 60.1008C46.2866 60.1409 46.1665 59.9907 46.1817 59.7655L47.9277 33.6933C47.9409 33.4962 48.0752 33.3048 48.2278 33.2657Z" fill="#D5171C"/>
<path fill-rule="evenodd" clip-rule="evenodd" d="M46.1456 33.258L64.6709 19.2399C64.7751 19.1611 64.8607 19.2525 64.8622 19.4444L65.0562 45.1147C65.0576 45.3081 64.9739 45.5307 64.8693 45.6114L46.266 60.0142C46.1588 60.0972 46.0712 60.0055 46.0702 59.8096L45.9537 33.7565C45.9529 33.5619 46.0387 33.3389 46.1456 33.258Z" fill="#E84A4A"/>
<path fill-rule="evenodd" clip-rule="evenodd" d="M62.1991 57.8302L73.8746 67.4646L74.0529 55.9569L62.1991 57.8302Z" fill="white"/>
</svg>
