<svg width="132" height="88" viewBox="0 0 132 88" fill="none" xmlns="http://www.w3.org/2000/svg">
<path fill-rule="evenodd" clip-rule="evenodd" d="M78.85 20.537C72.6756 21.9367 66.8547 26.4662 64.1659 31.9641C62.1562 36.0725 61.4795 39.0937 61.4795 43.9538C61.4795 51.3906 63.7085 57.4252 68.059 61.7674C72.3211 66.0213 77.3359 67.9242 84.2835 67.9242C88.7974 67.9242 92.0188 67.2648 95.0761 65.7146C97.2982 64.588 100.924 61.5377 100.924 60.7946C100.924 60.054 96.9235 55.7106 95.9599 55.4055C95.3818 55.2226 94.4734 55.5912 92.9884 56.612C90.3473 58.4279 88.7514 58.902 85.284 58.902C81.5224 58.902 78.9552 57.9292 76.6526 55.631C73.6416 52.6258 72.7895 50.0032 72.7849 43.7282C72.7812 38.9296 72.8577 38.4367 73.9769 36.015C77.1588 29.1294 85.3752 26.8513 91.921 31.0393C93.7556 32.2134 95.3448 32.5435 96.2184 31.9317C97.2468 31.2107 100.569 26.4195 100.38 25.9286C99.9952 24.928 95.1131 22.008 92.3573 21.13C88.8451 20.0117 82.4144 19.7291 78.85 20.537ZM31.0742 43.9333V67.5141H36.6211H42.168V58.2868V49.0596H49.9748H57.7816V44.9585V40.8575H49.9748H42.168V34.9111V28.9646H51.6183H61.0686V24.6585V20.3525H46.0714H31.0742V43.9333Z" fill="#18A0DE"/>
</svg>
