<svg width="132" height="88" viewBox="0 0 132 88" fill="none" xmlns="http://www.w3.org/2000/svg">
<path fill-rule="evenodd" clip-rule="evenodd" d="M46.3697 11.7391C46.3697 11.8952 46.3128 11.99 46.2191 11.99C46.1363 11.99 46.0685 12.0577 46.0685 12.1405C46.0685 12.2323 45.9748 12.291 45.8282 12.291C45.6961 12.291 45.5619 12.3587 45.5301 12.4415C45.4923 12.5401 45.3357 12.592 45.076 12.592C44.848 12.592 44.6618 12.6453 44.6377 12.7174C44.6045 12.8167 42.234 12.8428 33.233 12.8428H21.8701V13.9967H22.6734C23.1152 13.9967 23.4766 14.0359 23.4766 14.0838C23.4766 14.1317 23.6639 14.196 23.8927 14.2267C24.1216 14.2573 24.3362 14.325 24.3697 14.3768C24.4031 14.4288 24.5322 14.503 24.6564 14.5418C24.7807 14.5805 24.8824 14.6543 24.8824 14.7057C24.8824 14.7572 24.9501 14.7994 25.033 14.7994C25.1158 14.7994 25.1836 14.8671 25.1836 14.9499C25.1836 15.0326 25.2514 15.1004 25.3342 15.1004C25.4279 15.1004 25.4848 15.1951 25.4848 15.3512C25.4848 15.5073 25.5417 15.602 25.6354 15.602C25.7348 15.602 25.786 15.7015 25.786 15.8947C25.786 16.0557 25.8426 16.2062 25.9115 16.2291C26.0112 16.2623 26.0425 19.6212 26.0631 32.4838C26.0861 46.8274 26.0716 48.7141 25.9376 48.8481C25.8521 48.9335 25.786 49.1776 25.786 49.4081C25.786 49.7043 25.7447 49.8165 25.6354 49.8165C25.5417 49.8165 25.4848 49.9113 25.4848 50.0674C25.4848 50.2235 25.4279 50.3182 25.3342 50.3182C25.2514 50.3182 25.1836 50.3859 25.1836 50.4687C25.1836 50.5623 25.0888 50.6192 24.9326 50.6192C24.7763 50.6192 24.6815 50.6761 24.6815 50.7697C24.6815 50.8701 24.5811 50.9202 24.3803 50.9202C24.1795 50.9202 24.0791 50.9704 24.0791 51.0707C24.0791 51.1927 23.9173 51.2212 23.2256 51.2212C22.7236 51.2212 22.3722 51.2626 22.3722 51.3216C22.3722 51.3768 22.2592 51.4219 22.1211 51.4219C21.8838 51.4219 21.8701 51.452 21.8701 51.9738V52.5256H36.2526L36.2092 51.9257C36.1669 51.3422 36.0461 51.0426 35.9554 51.2965C35.9044 51.439 35.626 51.4692 35.626 51.3322C35.626 51.2828 35.2568 51.2258 34.8055 51.2053C34.2723 51.1811 33.9705 51.1246 33.9437 51.0441C33.921 50.976 33.7932 50.9202 33.6597 50.9202C33.5109 50.9202 33.4171 50.862 33.4171 50.7697C33.4171 50.687 33.3719 50.6192 33.3167 50.6192C33.2614 50.6192 33.1259 50.5289 33.0154 50.4186C32.905 50.3082 32.8146 50.1727 32.8146 50.1175C32.8146 50.0624 32.7468 50.0172 32.664 50.0172C32.5721 50.0172 32.5134 49.9236 32.5134 49.7771C32.5134 49.6451 32.4456 49.511 32.3628 49.4792C32.2569 49.4387 32.2122 49.2737 32.2122 48.9251C32.2122 48.617 32.1645 48.4127 32.0867 48.3868C31.9882 48.354 31.9545 46.7506 31.9304 40.9285C31.9134 36.8494 31.9268 33.3653 31.96 33.1859L32.0205 32.8598H34.9779C36.6045 32.8598 37.9354 32.8984 37.9354 32.9457C37.9354 32.9929 38.3016 33.0622 38.749 33.0994C39.2512 33.1412 39.6192 33.2236 39.7101 33.3145C39.7912 33.3955 39.9221 33.4618 40.0009 33.4618C40.0798 33.4618 40.1444 33.507 40.1444 33.5621C40.1444 33.6173 40.2122 33.6625 40.295 33.6625C40.3779 33.6625 40.4456 33.7302 40.4456 33.813C40.4456 33.8958 40.5134 33.9635 40.5963 33.9635C40.6791 33.9635 40.7469 34.0312 40.7469 34.114C40.7469 34.1968 40.7911 34.2645 40.8454 34.2645C40.8995 34.2645 40.9722 34.3774 41.0068 34.5153C41.0415 34.6533 41.1051 34.7662 41.1482 34.7662C41.1913 34.7662 41.2562 34.9242 41.2925 35.1174C41.3287 35.3105 41.4015 35.4685 41.4542 35.4685C41.507 35.4685 41.5501 35.762 41.5501 36.1207C41.5501 36.6335 41.5824 36.7729 41.7007 36.7729C41.7836 36.7729 41.8514 36.8406 41.8514 36.9234C41.8514 37.0321 41.9629 37.0739 42.253 37.0739H42.6546V26.639H41.5501V27.241C41.5501 27.5721 41.5054 27.843 41.4509 27.843C41.3963 27.843 41.3228 28.0236 41.2875 28.2444C41.2521 28.4651 41.1888 28.6457 41.1466 28.6457C41.1044 28.6457 41.0415 28.7586 41.0068 28.8965C40.9722 29.0345 40.8995 29.1474 40.8454 29.1474C40.7911 29.1474 40.7469 29.2151 40.7469 29.2979C40.7469 29.3807 40.6791 29.4484 40.5963 29.4484C40.5134 29.4484 40.4456 29.5161 40.4456 29.5989C40.4456 29.6817 40.3779 29.7494 40.295 29.7494C40.2122 29.7494 40.1444 29.8171 40.1444 29.8999C40.1444 29.9946 40.0488 30.0504 39.8863 30.0504C39.7442 30.0504 39.5602 30.1181 39.4774 30.2009C39.3888 30.2894 39.1435 30.3514 38.8822 30.3514C38.6376 30.3514 38.4375 30.3966 38.4375 30.4517C38.4375 30.5166 37.3031 30.5521 35.2352 30.5521C32.4077 30.5521 32.0257 30.5335 31.9719 30.3933C31.9384 30.3061 31.9109 26.8971 31.9109 22.818C31.9109 15.8223 31.9209 15.4013 32.0867 15.3991C35.1227 15.3595 42.4037 15.4193 42.4461 15.4843C42.4779 15.5331 42.6735 15.6043 42.8805 15.6423C43.0877 15.6803 43.2571 15.7546 43.2571 15.8072C43.2571 15.8599 43.3714 15.9031 43.5112 15.9031C43.6511 15.9031 43.7914 15.9708 43.8232 16.0536C43.855 16.1363 43.944 16.2041 44.0209 16.2041C44.0978 16.2041 44.1607 16.2553 44.1607 16.3179C44.1607 16.3807 44.2737 16.5365 44.4118 16.6644C44.5498 16.7922 44.6628 16.9441 44.6628 17.0019C44.6628 17.0598 44.7306 17.1071 44.8134 17.1071C44.9053 17.1071 44.964 17.2007 44.964 17.3472C44.964 17.4792 45.0318 17.6133 45.1146 17.6451C45.214 17.6832 45.2652 17.8403 45.2652 18.1073C45.2652 18.3298 45.3057 18.5118 45.3552 18.5118C45.4047 18.5118 45.4772 18.873 45.5163 19.3145L45.5873 20.1172H46.6709V19.6238C46.6709 19.3525 46.7153 19.1155 46.7696 19.097C46.824 19.0787 46.8986 18.5332 46.9355 17.8847C46.9726 17.2362 47.0342 16.7057 47.0727 16.7057C47.1112 16.7057 47.1691 16.112 47.2014 15.3863C47.2337 14.6606 47.3039 14.0398 47.3573 14.0067C47.4109 13.9736 47.4703 13.4536 47.4895 12.851C47.5138 12.0899 47.5627 11.7429 47.6499 11.7139C47.9895 11.6011 47.7009 11.4883 47.0726 11.4883C46.3898 11.4883 46.3697 11.4954 46.3697 11.7391ZM81.3788 11.7559C81.3419 11.7926 81.3118 12.0409 81.3118 12.3077C81.3118 12.5744 81.2734 12.7926 81.2266 12.7926C81.1798 12.7926 81.1145 13.3642 81.0815 14.0627C81.0484 14.7611 80.9779 15.3595 80.9248 15.3923C80.8717 15.4252 80.8128 15.9899 80.7939 16.6475C80.7697 17.4895 80.7224 17.8555 80.634 17.8848C80.5449 17.9144 80.5085 18.2146 80.5085 18.9215C80.5085 19.9159 80.5086 19.9165 80.7595 19.9165C80.8976 19.9165 81.0106 19.9616 81.0106 20.0168C81.0106 20.1658 81.3051 20.1382 81.4695 19.9738C81.5485 19.895 81.613 19.6693 81.613 19.4721C81.613 19.2205 81.6579 19.1138 81.7636 19.1138C81.8752 19.1138 81.9142 18.9967 81.9142 18.6623C81.9142 18.414 81.9558 18.2108 82.0067 18.2108C82.0575 18.2108 82.1289 18.0753 82.1653 17.9098C82.2016 17.7442 82.2681 17.6088 82.313 17.6088C82.3578 17.6088 82.4229 17.4959 82.4575 17.3579C82.4922 17.22 82.5649 17.1071 82.619 17.1071C82.6732 17.1071 82.7175 17.0494 82.7175 16.9789C82.7175 16.9083 82.7965 16.7761 82.8932 16.685C83.1649 16.4287 83.3199 16.2219 83.3199 16.116C83.3199 16.0628 83.4555 15.9895 83.6212 15.9532C83.7868 15.9169 83.9224 15.8476 83.9224 15.7993C83.9224 15.7509 84.0919 15.6803 84.2989 15.6423C84.5061 15.6043 84.7077 15.5232 84.7471 15.4622C84.7973 15.3844 85.9381 15.3512 88.5626 15.3512H92.3065L92.3319 31.6877C92.3543 46.1124 92.3396 48.0419 92.2064 48.175C92.1175 48.2638 92.0555 48.5086 92.0555 48.7701C92.0555 49.0146 92.0139 49.2145 91.963 49.2145C91.9122 49.2145 91.8408 49.35 91.8044 49.5155C91.7681 49.6811 91.7016 49.8165 91.6567 49.8165C91.6119 49.8165 91.5468 49.9294 91.5122 50.0674C91.4775 50.2053 91.4048 50.3182 91.3507 50.3182C91.2965 50.3182 91.2522 50.3859 91.2522 50.4687C91.2522 50.5523 91.1629 50.6192 91.0514 50.6192C90.9409 50.6192 90.8506 50.6614 90.8506 50.7128C90.8506 50.7643 90.7488 50.8381 90.6246 50.8768C90.5004 50.9156 90.3665 50.9976 90.3271 51.0592C90.2862 51.1232 89.8679 51.186 89.3482 51.2061C88.8491 51.2255 88.4408 51.2818 88.4408 51.3315C88.4408 51.3813 88.373 51.4219 88.2902 51.4219C88.1745 51.4219 88.1395 51.5501 88.1395 51.9738V52.5256H102.498V51.8734C102.498 51.3777 102.464 51.2212 102.356 51.2212C102.277 51.2212 102.19 51.2776 102.162 51.3467C102.125 51.4385 102.089 51.4416 102.029 51.3583C101.983 51.2958 101.593 51.2271 101.162 51.2056C100.732 51.1842 100.348 51.1182 100.309 51.0589C100.27 50.9996 100.115 50.9207 99.9626 50.8836C99.8107 50.8465 99.6865 50.7717 99.6865 50.7177C99.6865 50.6635 99.6187 50.6192 99.5359 50.6192C99.453 50.6192 99.3853 50.5515 99.3853 50.4687C99.3853 50.3859 99.3175 50.3182 99.2346 50.3182C99.1518 50.3182 99.084 50.2505 99.084 50.1677C99.084 50.0849 99.0425 50.0172 98.9916 50.0172C98.9408 50.0172 98.8694 49.8818 98.833 49.7162C98.7967 49.5506 98.7311 49.4152 98.6875 49.4152C98.6438 49.4152 98.5841 49.2022 98.5547 48.9419C98.5254 48.6815 98.4517 48.4521 98.391 48.4318C98.3115 48.4053 98.2808 43.7918 98.2808 31.8983C98.2808 16.2576 98.2899 15.4009 98.4565 15.3914C98.5532 15.386 100.189 15.3811 102.093 15.3806C104.535 15.38 105.564 15.4124 105.59 15.4909C105.611 15.5521 105.756 15.602 105.913 15.602C106.07 15.602 106.266 15.6698 106.349 15.7526C106.432 15.8353 106.538 15.9031 106.585 15.9031C106.696 15.9031 107.016 16.277 107.016 16.4058C107.016 16.4604 107.084 16.5051 107.167 16.5051C107.25 16.5051 107.318 16.5728 107.318 16.6556C107.318 16.7383 107.385 16.8061 107.468 16.8061C107.56 16.8061 107.619 16.8997 107.619 17.0462C107.619 17.1782 107.687 17.3123 107.769 17.3441C107.864 17.3803 107.92 17.5337 107.92 17.7562C107.92 17.951 107.965 18.1104 108.02 18.1104C108.08 18.1104 108.121 18.4784 108.121 19.0135V19.9165H108.422C108.588 19.9165 108.723 19.9616 108.723 20.0168C108.723 20.1691 109.22 20.1367 109.383 19.9738C109.493 19.8636 109.526 19.5147 109.526 18.4656C109.526 17.345 109.553 17.0904 109.677 17.0431C109.799 16.9961 109.828 16.7593 109.828 15.7849C109.828 14.8515 109.861 14.5508 109.978 14.4338C110.097 14.3156 110.129 14.0054 110.129 12.9862V11.689H109.724C109.457 11.689 109.3 11.7401 109.262 11.8395C109.23 11.9222 109.141 11.99 109.064 11.99C108.987 11.99 108.924 12.0577 108.924 12.1405C108.924 12.2341 108.829 12.291 108.673 12.291C108.517 12.291 108.422 12.3479 108.422 12.4415C108.422 12.5408 108.322 12.592 108.129 12.592C107.968 12.592 107.817 12.6485 107.794 12.7174C107.733 12.9016 83.4065 12.9016 83.3451 12.7174C83.3221 12.6485 83.1714 12.592 83.0104 12.592C82.817 12.592 82.7175 12.5408 82.7175 12.4415C82.7175 12.3587 82.6497 12.291 82.5669 12.291C82.4841 12.291 82.4163 12.2463 82.4163 12.1917C82.4163 11.9637 82.0566 11.689 81.758 11.689C81.5862 11.689 81.4155 11.7191 81.3788 11.7559ZM68.3591 12.1405C68.1658 12.2148 67.7898 12.2791 67.5236 12.2833C67.2362 12.2879 66.9783 12.3522 66.8889 12.4415C66.806 12.5242 66.5833 12.592 66.394 12.592C66.2047 12.592 66.0497 12.6313 66.0497 12.6795C66.0497 12.7276 65.869 12.7959 65.6481 12.8312C65.4272 12.8665 65.2465 12.9399 65.2465 12.9945C65.2465 13.049 65.1321 13.0937 64.9923 13.0937C64.8525 13.0937 64.7121 13.1614 64.6804 13.2442C64.6485 13.3269 64.5144 13.3947 64.3823 13.3947C64.2357 13.3947 64.142 13.4534 64.142 13.5452C64.142 13.6455 64.0416 13.6957 63.8408 13.6957C63.6399 13.6957 63.5395 13.7458 63.5395 13.8462C63.5395 13.9398 63.4447 13.9967 63.2885 13.9967C63.1323 13.9967 63.0375 14.0536 63.0375 14.1472C63.0375 14.23 62.9902 14.2977 62.9323 14.2977C62.8744 14.2977 62.7224 14.4106 62.5945 14.5485C62.4665 14.6865 62.3105 14.7994 62.2478 14.7994C62.1851 14.7994 62.1338 14.8671 62.1338 14.9499C62.1338 15.0326 62.066 15.1004 61.9832 15.1004C61.9004 15.1004 61.8326 15.1516 61.8326 15.2142C61.8326 15.277 61.7196 15.4328 61.5816 15.5607C61.4435 15.6885 61.3305 15.8404 61.3305 15.8982C61.3305 15.9561 61.2628 16.0034 61.1799 16.0034C61.0863 16.0034 61.0293 16.0981 61.0293 16.2542C61.0293 16.4104 60.9724 16.5051 60.8787 16.5051C60.7959 16.5051 60.7281 16.5728 60.7281 16.6556C60.7281 16.7383 60.6865 16.8061 60.6356 16.8061C60.5848 16.8061 60.5134 16.9415 60.4771 17.1071C60.4407 17.2726 60.3693 17.4081 60.3185 17.4081C60.2676 17.4081 60.2261 17.5178 60.2261 17.6518C60.2261 17.7858 60.1583 17.9631 60.0754 18.0459C59.9909 18.1304 59.9248 18.3756 59.9248 18.605C59.9248 18.9012 59.8835 19.0135 59.7742 19.0135C59.6447 19.0135 59.6236 19.3367 59.6236 21.3212C59.6236 23.3056 59.6447 23.6289 59.7742 23.6289C59.8883 23.6289 59.9248 23.7523 59.9248 24.1377C59.9248 24.4563 59.9812 24.7029 60.0754 24.7971C60.1583 24.8799 60.2261 25.0799 60.2261 25.2414C60.2261 25.403 60.2676 25.5353 60.3185 25.5353C60.3693 25.5353 60.4407 25.6707 60.4771 25.8363C60.5134 26.0018 60.5848 26.1373 60.6356 26.1373C60.6865 26.1373 60.7281 26.2502 60.7281 26.3881C60.7281 26.5443 60.785 26.639 60.8787 26.639C60.9724 26.639 61.0293 26.7337 61.0293 26.8898C61.0293 27.0459 61.0863 27.1407 61.1799 27.1407C61.2636 27.1407 61.3305 27.2299 61.3305 27.3413C61.3305 27.4528 61.3975 27.542 61.4812 27.542C61.564 27.542 61.6318 27.6097 61.6318 27.6925C61.6318 27.7753 61.676 27.843 61.7303 27.843C61.7844 27.843 61.8571 27.9559 61.8917 28.0938C61.9264 28.2318 62.0176 28.3447 62.0945 28.3447C62.1714 28.3447 62.2342 28.3901 62.2342 28.4456C62.2342 28.5725 63.1164 29.4484 63.2442 29.4484C63.2961 29.4484 63.3387 29.5161 63.3387 29.5989C63.3387 29.6817 63.4065 29.7494 63.4893 29.7494C63.5722 29.7494 63.6399 29.8171 63.6399 29.8999C63.6399 29.9827 63.687 30.0504 63.7446 30.0504C63.858 30.0504 64.0603 30.1998 64.322 30.4768C64.4132 30.5733 64.5291 30.6524 64.5796 30.6524C64.63 30.6524 64.7759 30.7653 64.9039 30.9032C65.0318 31.0412 65.229 31.1541 65.3421 31.1541C65.4579 31.1541 65.5477 31.2198 65.5477 31.3046C65.5477 31.3874 65.6155 31.4551 65.6983 31.4551C65.7811 31.4551 65.8489 31.5228 65.8489 31.6056C65.8489 31.6884 65.9167 31.7561 65.9995 31.7561C66.0824 31.7561 66.1501 31.8004 66.1501 31.8545C66.1501 31.9086 66.2631 31.9813 66.4012 32.0159C66.5392 32.0505 66.6522 32.1191 66.6522 32.1683C66.6522 32.2175 66.72 32.2578 66.8028 32.2578C66.8856 32.2578 66.9534 32.3255 66.9534 32.4083C66.9534 32.5019 67.0482 32.5588 67.2044 32.5588C67.3607 32.5588 67.4554 32.6157 67.4554 32.7093C67.4554 32.7929 67.5447 32.8598 67.6563 32.8598C67.7667 32.8598 67.8571 32.9019 67.8571 32.9534C67.8571 33.0049 67.9588 33.0788 68.083 33.1179C68.2072 33.1568 68.4084 33.2953 68.53 33.4256C68.6516 33.5559 68.8437 33.6625 68.9568 33.6625C69.0726 33.6625 69.1624 33.7282 69.1624 33.813C69.1624 33.8966 69.2517 33.9635 69.3632 33.9635C69.4748 33.9635 69.564 34.0304 69.564 34.114C69.564 34.2076 69.6588 34.2645 69.815 34.2645C69.9713 34.2645 70.0661 34.3214 70.0661 34.415C70.0661 34.4978 70.1338 34.5655 70.2167 34.5655C70.2995 34.5655 70.3673 34.6057 70.3673 34.655C70.3673 34.7042 70.4802 34.7728 70.6183 34.8074C70.7564 34.842 70.8693 34.9147 70.8693 34.9688C70.8693 35.0229 70.9371 35.0672 71.0199 35.0672C71.1028 35.0672 71.1706 35.1349 71.1706 35.2177C71.1706 35.3005 71.2383 35.3682 71.3212 35.3682C71.404 35.3682 71.4718 35.4359 71.4718 35.5187C71.4718 35.6066 71.5657 35.671 71.6977 35.6734C71.8219 35.6758 72.0345 35.8113 72.1699 35.9744C72.3054 36.1377 72.4555 36.2712 72.5035 36.2712C72.6208 36.2712 72.8775 36.5342 72.8775 36.6545C72.8775 36.7077 72.9905 36.7795 73.1285 36.8141C73.2666 36.8487 73.3795 36.9214 73.3795 36.9755C73.3795 37.0297 73.4473 37.0739 73.5301 37.0739C73.613 37.0739 73.6808 37.1416 73.6808 37.2244C73.6808 37.3072 73.7485 37.3749 73.8314 37.3749C73.9142 37.3749 73.982 37.4426 73.982 37.5254C73.982 37.6082 74.0498 37.6759 74.1326 37.6759C74.2154 37.6759 74.2832 37.7436 74.2832 37.8264C74.2832 37.9092 74.351 37.9769 74.4338 37.9769C74.5275 37.9769 74.5844 38.0716 74.5844 38.2278C74.5844 38.3839 74.6414 38.4786 74.735 38.4786C74.8179 38.4786 74.8857 38.5463 74.8857 38.6291C74.8857 38.7119 74.9534 38.7796 75.0363 38.7796C75.1191 38.7796 75.1869 38.8473 75.1869 38.9301C75.1869 39.0129 75.2271 39.0806 75.2764 39.0806C75.3256 39.0806 75.3943 39.1935 75.429 39.3315C75.4636 39.4694 75.5363 39.5823 75.5904 39.5823C75.6446 39.5823 75.6889 39.7177 75.6889 39.8833C75.6889 40.084 75.7391 40.1843 75.8395 40.1843C75.9488 40.1843 75.9901 40.2966 75.9901 40.5928C75.9901 40.8221 76.0562 41.0674 76.1408 41.1518C76.2635 41.2745 76.2914 41.6364 76.2914 43.1044C76.2914 44.6136 76.2669 44.9157 76.1408 44.9641C76.0326 45.0056 75.9901 45.1746 75.9901 45.563C75.9901 45.9771 75.9548 46.1041 75.8395 46.1041C75.7391 46.1041 75.6889 46.2045 75.6889 46.4051C75.6889 46.5707 75.6446 46.7061 75.5904 46.7061C75.5363 46.7061 75.4636 46.819 75.429 46.957C75.3943 47.0949 75.3256 47.2078 75.2764 47.2078C75.2271 47.2078 75.1869 47.2769 75.1869 47.3614C75.1869 47.446 75.1191 47.5411 75.0363 47.5728C74.9534 47.6046 74.8857 47.7387 74.8857 47.8707C74.8857 48.0172 74.8269 48.1108 74.735 48.1108C74.6522 48.1108 74.5844 48.1786 74.5844 48.2613C74.5844 48.3441 74.5167 48.4118 74.4338 48.4118C74.351 48.4118 74.2832 48.4602 74.2832 48.5193C74.2832 48.6583 74.0278 48.9135 73.8887 48.9135C73.8296 48.9135 73.7812 48.9812 73.7812 49.064C73.7812 49.1468 73.7134 49.2145 73.6306 49.2145C73.5477 49.2145 73.4799 49.2822 73.4799 49.365C73.4799 49.4478 73.4122 49.5155 73.3293 49.5155C73.2465 49.5155 73.1787 49.5833 73.1787 49.666C73.1787 49.7488 73.1109 49.8165 73.0281 49.8165C72.9453 49.8165 72.8775 49.8568 72.8775 49.906C72.8775 49.9552 72.7645 50.0238 72.6265 50.0584C72.4884 50.0931 72.3755 50.1621 72.3755 50.2119C72.3755 50.2615 72.2399 50.3321 72.0742 50.3684C71.9086 50.4047 71.773 50.476 71.773 50.5268C71.773 50.5777 71.6375 50.6192 71.4718 50.6192C71.271 50.6192 71.1706 50.6694 71.1706 50.7697C71.1706 50.8779 71.0599 50.9202 70.7773 50.9202C70.552 50.9202 70.3661 50.9738 70.3421 51.0457C70.3102 51.1409 69.7724 51.1711 68.1079 51.1711C66.4434 51.1711 65.9057 51.1409 65.874 51.0457C65.8491 50.971 65.6557 50.9202 65.3959 50.9202C65.1419 50.9202 64.8966 50.8573 64.809 50.7697C64.7261 50.687 64.5422 50.6192 64.4001 50.6192C64.2582 50.6192 64.142 50.5746 64.142 50.5201C64.142 50.4655 63.9612 50.3921 63.7403 50.3567C63.5194 50.3214 63.3387 50.2568 63.3387 50.2131C63.3387 50.1693 63.2032 50.1037 63.0375 50.0674C62.8718 50.0311 62.7363 49.9597 62.7363 49.909C62.7363 49.8581 62.6685 49.8165 62.5857 49.8165C62.5028 49.8165 62.435 49.7537 62.435 49.6769C62.435 49.6001 62.3221 49.5089 62.184 49.4743C62.046 49.4397 61.933 49.367 61.933 49.313C61.933 49.2588 61.8652 49.2145 61.7824 49.2145C61.6996 49.2145 61.6318 49.1468 61.6318 49.064C61.6318 48.9812 61.564 48.9135 61.4812 48.9135C61.3983 48.9135 61.3305 48.8684 61.3305 48.8132C61.3305 48.758 61.2628 48.7128 61.1799 48.7128C61.0963 48.7128 61.0293 48.6236 61.0293 48.5122C61.0293 48.4007 60.9624 48.3115 60.8787 48.3115C60.7959 48.3115 60.7281 48.2438 60.7281 48.161C60.7281 48.0782 60.6838 48.0105 60.6296 48.0105C60.5755 48.0105 60.5028 47.8976 60.4681 47.7597C60.4335 47.6217 60.3422 47.5088 60.2654 47.5088C60.1885 47.5088 60.1257 47.4411 60.1257 47.3583C60.1257 47.2755 60.0805 47.2078 60.0252 47.2078C59.97 47.2078 59.9248 47.0949 59.9248 46.957C59.9248 46.8008 59.8679 46.7061 59.7742 46.7061C59.6738 46.7061 59.6236 46.6058 59.6236 46.4051C59.6236 46.2045 59.5734 46.1041 59.473 46.1041C59.3648 46.1041 59.3224 45.9935 59.3224 45.7111C59.3224 45.495 59.2704 45.3008 59.2068 45.2797C59.1433 45.2585 59.0699 44.9838 59.0437 44.6693L58.9963 44.0974H58.4649C58.1305 44.0974 57.9168 44.0508 57.8886 43.972C57.7914 43.6999 57.6953 44.0195 57.6424 44.792C57.6117 45.2377 57.5521 45.6024 57.5098 45.6024C57.4675 45.6024 57.4175 46.084 57.3987 46.6728C57.375 47.4144 57.3259 47.7559 57.2389 47.7848C57.1474 47.8152 57.1134 48.1655 57.1134 49.0756C57.1134 50.0932 57.0855 50.3352 56.9628 50.3822C56.8417 50.4287 56.8122 50.654 56.8122 51.533V52.6259H57.0632C57.2013 52.6259 57.3142 52.6711 57.3142 52.7263C57.3142 52.7815 57.4498 52.8266 57.6154 52.8266C57.7811 52.8266 57.9167 52.7815 57.9167 52.7263C57.9167 52.6711 57.9844 52.6259 58.0673 52.6259C58.1501 52.6259 58.2179 52.5563 58.2179 52.4712C58.2179 52.3113 58.3409 52.1306 58.6446 51.844C58.7412 51.7529 58.8203 51.6207 58.8203 51.5501C58.8203 51.3674 59.5726 51.3853 59.7599 51.5724C59.8427 51.6552 60.0266 51.7229 60.1687 51.7229C60.3313 51.7229 60.4269 51.7787 60.4269 51.8734C60.4269 51.9728 60.5264 52.0239 60.7198 52.0239C60.8808 52.0239 61.028 52.0702 61.0469 52.1267C61.0657 52.1832 61.2615 52.2578 61.482 52.2926C61.7025 52.3274 61.9111 52.3991 61.9456 52.4518C61.9803 52.5043 62.2174 52.571 62.4728 52.5998C62.7281 52.6286 62.9371 52.6868 62.9371 52.7295C62.9371 52.772 63.2082 52.8383 63.5395 52.8768C63.8709 52.9152 64.142 52.9874 64.142 53.0371C64.142 53.0869 64.4099 53.1276 64.7373 53.1276C65.1325 53.1276 65.3831 53.1782 65.4831 53.2781C65.6101 53.4049 66.091 53.4286 68.5444 53.4286C70.7064 53.4286 71.4652 53.3979 71.4949 53.3091C71.5184 53.2388 71.8106 53.1722 72.2062 53.147C72.5754 53.1235 72.8775 53.0676 72.8775 53.0228C72.8775 52.978 73.126 52.9104 73.4297 52.8725C73.7335 52.8345 73.982 52.7693 73.982 52.7276C73.982 52.6857 74.1627 52.6227 74.3836 52.5874C74.6045 52.5521 74.7852 52.4786 74.7852 52.4241C74.7852 52.3696 74.9208 52.3249 75.0865 52.3249C75.2873 52.3249 75.3877 52.2748 75.3877 52.1744C75.3877 52.0741 75.4881 52.0239 75.6889 52.0239C75.8897 52.0239 75.9901 51.9738 75.9901 51.8734C75.9901 51.7731 76.0906 51.7229 76.2914 51.7229C76.4922 51.7229 76.5926 51.6727 76.5926 51.5724C76.5926 51.4876 76.6824 51.4219 76.7982 51.4219C76.9113 51.4219 77.1034 51.3154 77.225 51.185C77.3466 51.0547 77.5478 50.9162 77.672 50.8773C77.7962 50.8383 77.8979 50.7643 77.8979 50.7128C77.8979 50.6614 77.9657 50.6192 78.0485 50.6192C78.1314 50.6192 78.1991 50.5515 78.1991 50.4687C78.1991 50.3859 78.2669 50.3182 78.3497 50.3182C78.4326 50.3182 78.5004 50.2505 78.5004 50.1677C78.5004 50.0849 78.5681 50.0172 78.651 50.0172C78.7338 50.0172 78.8016 49.9495 78.8016 49.8667C78.8016 49.7839 78.85 49.7162 78.9091 49.7162C79.0482 49.7162 79.3036 49.4609 79.3036 49.322C79.3036 49.2629 79.3714 49.2145 79.4542 49.2145C79.5371 49.2145 79.6048 49.1468 79.6048 49.064C79.6048 48.9812 79.6726 48.9135 79.7555 48.9135C79.8491 48.9135 79.9061 48.8188 79.9061 48.6627C79.9061 48.5066 79.963 48.4118 80.0567 48.4118C80.1395 48.4118 80.2073 48.3489 80.2073 48.2721C80.2073 48.1952 80.2751 48.1063 80.3579 48.0745C80.4407 48.0428 80.5085 47.9025 80.5085 47.7628C80.5085 47.6039 80.5649 47.5088 80.6591 47.5088C80.7595 47.5088 80.8097 47.4085 80.8097 47.2078C80.8097 47.0423 80.8549 46.9068 80.9102 46.9068C80.9654 46.9068 81.0106 46.8423 81.0106 46.7634C81.0106 46.6847 81.0706 46.56 81.1441 46.4867C81.2175 46.4132 81.3069 46.1733 81.3425 45.9535C81.3783 45.7337 81.4537 45.5384 81.5102 45.5197C81.5667 45.5008 81.613 45.262 81.613 44.9889C81.613 44.6402 81.6578 44.4753 81.7636 44.4347C81.892 44.3855 81.9142 44.0013 81.9142 41.8291C81.9142 39.6313 81.8936 39.2813 81.7636 39.2813C81.6496 39.2813 81.613 39.1579 81.613 38.7725C81.613 38.4539 81.5567 38.2073 81.4624 38.1131C81.3796 38.0303 81.3118 37.8303 81.3118 37.6688C81.3118 37.5071 81.2702 37.3749 81.2193 37.3749C81.1685 37.3749 81.0971 37.2395 81.0608 37.0739C81.0244 36.9083 80.953 36.7729 80.9022 36.7729C80.8513 36.7729 80.8097 36.66 80.8097 36.5221C80.8097 36.3659 80.7528 36.2712 80.6591 36.2712C80.5587 36.2712 80.5085 36.1709 80.5085 35.9702C80.5085 35.7695 80.4583 35.6692 80.3579 35.6692C80.2751 35.6692 80.2073 35.6015 80.2073 35.5187C80.2073 35.4359 80.1395 35.3682 80.0567 35.3682C79.9738 35.3682 79.9061 35.3005 79.9061 35.2177C79.9061 35.1349 79.8618 35.0672 79.8076 35.0672C79.7535 35.0672 79.6808 34.9543 79.6461 34.8163C79.6115 34.6784 79.5202 34.5655 79.4434 34.5655C79.3665 34.5655 79.3036 34.4978 79.3036 34.415C79.3036 34.3322 79.2584 34.2645 79.2032 34.2645C79.148 34.2645 79.1028 34.1968 79.1028 34.114C79.1028 34.0312 79.035 33.9635 78.9522 33.9635C78.8694 33.9635 78.8016 33.8958 78.8016 33.813C78.8016 33.7302 78.7506 33.6625 78.6883 33.6625C78.626 33.6625 78.2973 33.3753 77.958 33.0242C77.6186 32.6733 77.2403 32.3541 77.1173 32.3152C76.9944 32.2761 76.8938 32.2022 76.8938 32.1507C76.8938 32.0993 76.826 32.0571 76.7432 32.0571C76.6604 32.0571 76.5926 31.9894 76.5926 31.9066C76.5926 31.8238 76.5248 31.7561 76.442 31.7561C76.3591 31.7561 76.2914 31.6884 76.2914 31.6056C76.2914 31.5228 76.2236 31.4551 76.1408 31.4551C76.0579 31.4551 75.9901 31.4109 75.9901 31.3567C75.9901 31.3026 75.8805 31.2307 75.7464 31.1971C75.6123 31.1635 75.4782 31.0723 75.4483 30.9946C75.4184 30.9167 75.3248 30.8531 75.2402 30.8531C75.1557 30.8531 75.0865 30.8088 75.0865 30.7547C75.0865 30.7006 74.9735 30.6279 74.8355 30.5933C74.6974 30.5587 74.5844 30.4901 74.5844 30.4409C74.5844 30.3916 74.5167 30.3514 74.4338 30.3514C74.351 30.3514 74.2832 30.2837 74.2832 30.2009C74.2832 30.1181 74.2154 30.0504 74.1326 30.0504C74.0498 30.0504 73.982 29.9827 73.982 29.8999C73.982 29.8151 73.8922 29.7494 73.7763 29.7494C73.6633 29.7494 73.4661 29.6365 73.3382 29.4986C73.2101 29.3606 73.0542 29.2477 72.9915 29.2477C72.9288 29.2477 72.8775 29.18 72.8775 29.0972C72.8775 29.0031 72.7823 28.9467 72.6234 28.9467C72.4835 28.9467 72.3431 28.879 72.3114 28.7962C72.2796 28.7134 72.1906 28.6457 72.1137 28.6457C72.0368 28.6457 71.9738 28.578 71.9738 28.4952C71.9738 28.4016 71.879 28.3447 71.7228 28.3447C71.5666 28.3447 71.4718 28.2878 71.4718 28.1942C71.4718 28.1114 71.404 28.0437 71.3212 28.0437C71.2383 28.0437 71.1706 28.0034 71.1706 27.9542C71.1706 27.905 71.0576 27.8364 70.9195 27.8018C70.7815 27.7672 70.6685 27.6945 70.6685 27.6404C70.6685 27.5862 70.5993 27.542 70.5148 27.542C70.4301 27.542 70.335 27.4743 70.3032 27.3915C70.2714 27.3087 70.1372 27.241 70.0051 27.241C69.8585 27.241 69.7648 27.1823 69.7648 27.0905C69.7648 27.0077 69.6971 26.94 69.6142 26.94C69.5314 26.94 69.4636 26.8957 69.4636 26.8416C69.4636 26.7875 69.3507 26.7148 69.2126 26.6802C69.0745 26.6456 68.9616 26.577 68.9616 26.5278C68.9616 26.4785 68.8938 26.4383 68.811 26.4383C68.7281 26.4383 68.6603 26.3706 68.6603 26.2878C68.6603 26.205 68.5926 26.1373 68.5097 26.1373C68.4269 26.1373 68.3591 26.0696 68.3591 25.9868C68.3591 25.8932 68.2643 25.8363 68.1081 25.8363C67.9519 25.8363 67.8571 25.7794 67.8571 25.6858C67.8571 25.603 67.8098 25.5353 67.7519 25.5353C67.694 25.5353 67.542 25.4224 67.4141 25.2844C67.2861 25.1465 67.1301 25.0336 67.0674 25.0336C67.0047 25.0336 66.9534 24.9659 66.9534 24.8831C66.9534 24.8003 66.8856 24.7326 66.8028 24.7326C66.72 24.7326 66.6522 24.6649 66.6522 24.5821C66.6522 24.4993 66.5844 24.4316 66.5016 24.4316C66.4187 24.4316 66.351 24.3639 66.351 24.2811C66.351 24.1983 66.3058 24.1306 66.2505 24.1306C66.1953 24.1306 66.1501 24.0629 66.1501 23.9801C66.1501 23.8973 66.0824 23.8296 65.9995 23.8296C65.9058 23.8296 65.8489 23.7349 65.8489 23.5787C65.8489 23.4226 65.792 23.3279 65.6983 23.3279C65.6147 23.3279 65.5477 23.2387 65.5477 23.1272C65.5477 23.0158 65.4807 22.9266 65.3971 22.9266C65.3116 22.9266 65.2465 22.8366 65.2465 22.7188C65.2465 22.6044 65.1787 22.4431 65.0959 22.3604C65.013 22.2776 64.9452 22.1228 64.9452 22.0164C64.9452 21.91 64.9028 21.8229 64.851 21.8229C64.799 21.8229 64.7255 21.5068 64.6873 21.1205C64.6492 20.7342 64.5788 20.4182 64.5307 20.4182C64.4826 20.4182 64.4432 20.2376 64.4432 20.0168C64.4432 19.7961 64.4831 19.6155 64.5318 19.6155C64.5805 19.6155 64.6522 19.2317 64.6913 18.7626C64.7305 18.2936 64.8036 17.9098 64.8539 17.9098C64.9041 17.9098 64.9452 17.8453 64.9452 17.7664C64.9452 17.6876 65.0054 17.563 65.0789 17.4896C65.1525 17.416 65.2437 17.2322 65.2816 17.081C65.3197 16.9298 65.3951 16.8061 65.4492 16.8061C65.5034 16.8061 65.5477 16.7383 65.5477 16.6556C65.5477 16.5728 65.6155 16.5051 65.6983 16.5051C65.7811 16.5051 65.8489 16.4373 65.8489 16.3546C65.8489 16.2718 65.8941 16.2041 65.9493 16.2041C66.0046 16.2041 66.0497 16.1363 66.0497 16.0536C66.0497 15.9708 66.097 15.9031 66.155 15.9031C66.2128 15.9031 66.3648 15.7902 66.4927 15.6522C66.6208 15.5143 66.7767 15.4014 66.8394 15.4014C66.9021 15.4014 66.9534 15.3336 66.9534 15.2509C66.9534 15.1505 67.0538 15.1004 67.2546 15.1004C67.4554 15.1004 67.5559 15.0502 67.5559 14.9499C67.5559 14.8551 67.6515 14.7994 67.814 14.7994C67.9561 14.7994 68.14 14.7316 68.2229 14.6489C68.3057 14.5661 68.5472 14.4984 68.7596 14.4984C68.9791 14.4984 69.1637 14.4443 69.1875 14.3729C69.219 14.2783 69.7068 14.2475 71.1706 14.2475C72.6343 14.2475 73.1221 14.2783 73.1536 14.3729C73.1766 14.442 73.324 14.4984 73.4811 14.4984C73.6383 14.4984 73.8346 14.5661 73.9174 14.6489C74.0003 14.7316 74.1842 14.7994 74.3263 14.7994C74.4888 14.7994 74.5844 14.8551 74.5844 14.9499C74.5844 15.0447 74.6801 15.1004 74.8432 15.1004C74.9968 15.1004 75.2243 15.2227 75.4032 15.4014C75.5688 15.5669 75.7687 15.7024 75.8473 15.7024C75.9259 15.7024 75.9901 15.7701 75.9901 15.8529C75.9901 15.9357 76.0344 16.0034 76.0886 16.0034C76.1428 16.0034 76.2155 16.1163 76.2501 16.2542C76.2847 16.3922 76.376 16.5051 76.4528 16.5051C76.5297 16.5051 76.5926 16.5728 76.5926 16.6556C76.5926 16.7383 76.6373 16.8061 76.6918 16.8061C76.7464 16.8061 76.8199 16.9867 76.8553 17.2074C76.8906 17.4282 76.953 17.6088 76.9938 17.6088C77.0347 17.6088 77.0938 17.7997 77.1252 18.033C77.1565 18.2664 77.2302 18.4734 77.2889 18.4929C77.3508 18.5135 77.3959 18.821 77.3959 19.2225V19.9165H78.5004V19.3216C78.5004 18.9267 78.551 18.6762 78.651 18.5763C78.77 18.4574 78.8016 18.1418 78.8016 17.0748C78.8016 15.9666 78.8286 15.7135 78.9522 15.6661C79.0758 15.6187 79.1028 15.365 79.1028 14.2506C79.1028 13.4124 79.1413 12.893 79.2032 12.893C79.2584 12.893 79.3036 12.6898 79.3036 12.4415V11.99H78.8239C78.3577 11.99 77.9983 12.2088 77.9983 12.4927C77.9983 12.5473 77.9305 12.592 77.8477 12.592C77.7649 12.592 77.6971 12.6597 77.6971 12.7425C77.6971 12.8253 77.6293 12.893 77.5465 12.893C77.4528 12.893 77.3959 12.9877 77.3959 13.1438C77.3959 13.3415 77.345 13.3947 77.1556 13.3947C77.0235 13.3947 76.8893 13.3269 76.8575 13.2442C76.8257 13.1614 76.6854 13.0937 76.5455 13.0937C76.4057 13.0937 76.2914 13.049 76.2914 12.9945C76.2914 12.9399 76.1106 12.8665 75.8897 12.8312C75.6688 12.7959 75.4881 12.7276 75.4881 12.6795C75.4881 12.6313 75.2834 12.592 75.0332 12.592C74.7213 12.592 74.5599 12.5446 74.5204 12.4415C74.4803 12.3373 74.3176 12.291 73.9923 12.291C73.7338 12.291 73.262 12.2232 72.9439 12.1405C72.1757 11.9405 68.8787 11.9405 68.3591 12.1405ZM49.1812 19.6656C49.1812 20.1874 49.1948 20.2175 49.4322 20.2175C49.5702 20.2175 49.6832 20.2626 49.6832 20.3178C49.6832 20.373 49.7703 20.4182 49.8769 20.4182C49.9833 20.4182 50.1382 20.4859 50.2211 20.5687C50.3039 20.6514 50.4201 20.7192 50.4793 20.7192C50.5385 20.7192 50.5869 20.7869 50.5869 20.8697C50.5869 20.9525 50.6546 21.0202 50.7375 21.0202C50.857 21.0202 50.8881 21.1651 50.8881 21.7225C50.8881 22.28 50.857 22.4249 50.7375 22.4249C50.6282 22.4249 50.5869 22.5372 50.5869 22.8333C50.5869 23.0627 50.5208 23.3079 50.4363 23.3924C50.3534 23.4752 50.2856 23.6752 50.2856 23.8367C50.2856 23.9983 50.2463 24.1306 50.1981 24.1306C50.1499 24.1306 50.0816 24.3112 50.0463 24.5319C50.0109 24.7527 49.9434 24.9333 49.8961 24.9333C49.8488 24.9333 49.7844 25.1242 49.7531 25.3575C49.7218 25.5909 49.6481 25.7979 49.5893 25.8174C49.5305 25.837 49.4824 25.9815 49.4824 26.1385C49.4824 26.2955 49.4146 26.4917 49.3318 26.5745C49.2489 26.6572 49.1812 26.8411 49.1812 26.983C49.1812 27.1249 49.1411 27.241 49.0922 27.241C49.0432 27.241 48.9726 27.4442 48.9354 27.6925C48.8981 27.9408 48.831 28.144 48.7862 28.144C48.7415 28.144 48.6759 28.3246 48.6406 28.5454C48.6052 28.7661 48.5317 28.9467 48.4771 28.9467C48.4226 28.9467 48.3779 29.1287 48.3779 29.3512C48.3779 29.6181 48.3267 29.7753 48.2273 29.8134C48.1291 29.8511 48.0767 30.0071 48.0767 30.2618C48.0767 30.5421 48.0341 30.6524 47.9261 30.6524C47.8178 30.6524 47.7754 30.763 47.7754 31.0454C47.7754 31.2615 47.7273 31.4544 47.6685 31.474C47.6098 31.4935 47.5361 31.7005 47.5047 31.9339C47.4734 32.1672 47.4143 32.3581 47.3734 32.3581C47.3325 32.3581 47.2702 32.5387 47.2348 32.7595C47.1995 32.9802 47.126 33.1608 47.0714 33.1608C47.0169 33.1608 46.9722 33.3428 46.9722 33.5653C46.9722 33.8323 46.921 33.9894 46.8216 34.0275C46.7241 34.0649 46.6709 34.2205 46.6709 34.4688C46.6709 34.6796 46.6032 34.9199 46.5203 35.0027C46.4358 35.0872 46.3697 35.3324 46.3697 35.5617C46.3697 35.8579 46.3284 35.9702 46.2191 35.9702C46.1109 35.9702 46.0685 36.0808 46.0685 36.3632C46.0685 36.5793 46.0204 36.7722 45.9616 36.7918C45.9028 36.8113 45.8291 37.0183 45.7978 37.2517C45.7665 37.485 45.7021 37.6759 45.6548 37.6759C45.6075 37.6759 45.5399 37.8565 45.5046 38.0773C45.4693 38.298 45.401 38.4786 45.3528 38.4786C45.3046 38.4786 45.2652 38.6141 45.2652 38.7796C45.2652 38.9803 45.215 39.0806 45.1146 39.0806C45.015 39.0806 44.964 39.1801 44.964 39.3745C44.964 39.536 44.8962 39.736 44.8134 39.8188C44.7306 39.9016 44.6628 40.0176 44.6628 40.0768C44.6628 40.1359 44.6176 40.1843 44.5624 40.1843C44.5071 40.1843 44.462 40.2485 44.462 40.3271C44.462 40.5124 43.8866 41.0873 43.7012 41.0873C43.6226 41.0873 43.5583 41.132 43.5583 41.1865C43.5583 41.241 43.3776 41.3145 43.1567 41.3498C42.9358 41.3851 42.755 41.4534 42.755 41.5015C42.755 41.5497 42.5517 41.589 42.3032 41.589H41.8514V42.6927H49.1812V42.1409C49.1812 41.5946 49.1781 41.589 48.8799 41.589C48.7143 41.589 48.5787 41.5497 48.5787 41.5015C48.5787 41.4534 48.398 41.3851 48.1771 41.3498C47.9562 41.3145 47.7754 41.241 47.7754 41.1865C47.7754 41.132 47.7077 41.0873 47.6248 41.0873C47.542 41.0873 47.4742 41.0196 47.4742 40.9368C47.4742 40.854 47.4064 40.7863 47.3236 40.7863C47.2242 40.7863 47.173 40.6869 47.173 40.4936C47.173 40.3327 47.1166 40.1781 47.0475 40.1501C46.9573 40.1136 46.9534 40.0759 47.0335 40.0163C47.0949 39.9708 47.1682 39.687 47.1965 39.3858C47.2248 39.0847 47.2988 38.8213 47.3611 38.8006C47.4233 38.7798 47.4742 38.6344 47.4742 38.4774C47.4742 38.3204 47.542 38.1242 47.6248 38.0414C47.7077 37.9587 47.7754 37.7748 47.7754 37.6329C47.7754 37.491 47.8174 37.3749 47.8686 37.3749C47.9198 37.3749 47.9928 37.1266 48.0308 36.8231C48.0687 36.5195 48.1362 36.2712 48.1807 36.2712C48.2252 36.2712 48.2914 36.1353 48.328 35.969L48.3944 35.6668L55.9587 35.7194L55.9904 35.9953C56.0079 36.147 56.0644 36.2712 56.1159 36.2712C56.1676 36.2712 56.2097 36.4518 56.2097 36.6726C56.2097 36.9624 56.2516 37.0739 56.3603 37.0739C56.4716 37.0739 56.511 37.1902 56.511 37.5183C56.511 37.7795 56.573 38.0246 56.6616 38.1131C56.7461 38.1976 56.8122 38.4428 56.8122 38.6721C56.8122 38.9683 56.8535 39.0806 56.9628 39.0806C57.0849 39.0806 57.1134 39.2423 57.1134 39.9335C57.1134 40.6247 57.0849 40.7863 56.9628 40.7863C56.88 40.7863 56.8122 40.854 56.8122 40.9368C56.8122 41.0196 56.7444 41.0873 56.6616 41.0873C56.5787 41.0873 56.511 41.132 56.511 41.1865C56.511 41.241 56.3302 41.3145 56.1093 41.3498C55.8884 41.3851 55.7077 41.4507 55.7077 41.4957C55.7077 41.5406 55.5194 41.5913 55.2894 41.6084L54.8711 41.6392L54.835 42.6927H64.9452V41.589H64.5867C64.3894 41.589 64.1603 41.5213 64.0774 41.4385C63.9946 41.3557 63.8396 41.288 63.7332 41.288C63.6267 41.288 63.5395 41.2428 63.5395 41.1877C63.5395 41.1325 63.4784 41.0873 63.4036 41.0873C63.1877 41.0873 62.7363 40.6154 62.7363 40.3898C62.7363 40.274 62.6705 40.1843 62.5857 40.1843C62.492 40.1843 62.435 40.0896 62.435 39.9335C62.435 39.7773 62.3781 39.6826 62.2844 39.6826C62.184 39.6826 62.1338 39.5823 62.1338 39.3816C62.1338 39.1809 62.0836 39.0806 61.9832 39.0806C61.8828 39.0806 61.8326 38.9803 61.8326 38.7796C61.8326 38.6141 61.7879 38.4786 61.7334 38.4786C61.6788 38.4786 61.6053 38.298 61.5699 38.0773C61.5346 37.8565 61.4663 37.6759 61.4181 37.6759C61.3699 37.6759 61.3305 37.5437 61.3305 37.382C61.3305 37.2205 61.2628 37.0205 61.1799 36.9377C61.0971 36.855 61.0293 36.6749 61.0293 36.5376C61.0293 36.4002 60.983 36.2725 60.9265 36.2537C60.87 36.2349 60.7946 36.0396 60.7588 35.8198C60.7232 35.6 60.6338 35.3601 60.5604 35.2866C60.4869 35.2133 60.4269 35.0209 60.4269 34.8594C60.4269 34.6977 60.3875 34.5655 60.3393 34.5655C60.2911 34.5655 60.2228 34.3849 60.1875 34.1642C60.1522 33.9434 60.0846 33.7628 60.0373 33.7628C59.99 33.7628 59.9256 33.5719 59.8943 33.3386C59.863 33.1052 59.7893 32.8982 59.7305 32.8787C59.6717 32.8591 59.6236 32.6711 59.6236 32.4609C59.6236 32.2136 59.5704 32.0582 59.473 32.0208C59.3736 31.9827 59.3224 31.8255 59.3224 31.5585C59.3224 31.266 59.2807 31.1541 59.1718 31.1541C59.0635 31.1541 59.0212 31.0435 59.0212 30.7611C59.0212 30.545 58.9731 30.3521 58.9142 30.3325C58.8555 30.313 58.7818 30.106 58.7505 29.8726C58.7191 29.6393 58.6543 29.4484 58.6063 29.4484C58.5584 29.4484 58.5191 29.3161 58.5191 29.1545C58.5191 28.993 58.4513 28.793 58.3685 28.7102C58.284 28.6257 58.2179 28.3805 58.2179 28.1511C58.2179 27.8549 58.1765 27.7427 58.0673 27.7427C57.9616 27.7427 57.9167 27.636 57.9167 27.3844C57.9167 27.1872 57.8489 26.9582 57.7661 26.8755C57.6832 26.7927 57.6154 26.5965 57.6154 26.4395C57.6154 26.2825 57.5673 26.138 57.5085 26.1184C57.4498 26.0989 57.3761 25.8919 57.3447 25.6585C57.3134 25.4252 57.2543 25.2343 57.2134 25.2343C57.1725 25.2343 57.1102 25.0537 57.0748 24.8329C57.0395 24.6122 56.966 24.4316 56.9114 24.4316C56.8569 24.4316 56.8122 24.3048 56.8122 24.1498C56.8122 23.9947 56.7458 23.7803 56.6648 23.6732C56.5836 23.5661 56.5159 23.3091 56.5142 23.1021C56.5119 22.836 56.4669 22.7259 56.3603 22.7259C56.2599 22.7259 56.2097 22.6255 56.2097 22.4249C56.2097 22.2593 56.1697 22.1239 56.1208 22.1239C56.0718 22.1239 56.0012 21.9207 55.9639 21.6724C55.9267 21.424 55.8596 21.2208 55.8148 21.2208C55.77 21.2208 55.7045 21.0402 55.6691 20.8195C55.6338 20.5988 55.5603 20.4182 55.5057 20.4182C55.4511 20.4182 55.4065 20.2376 55.4065 20.0168C55.4065 19.727 55.3646 19.6155 55.2559 19.6155C55.1622 19.6155 55.1052 19.5208 55.1052 19.3646V19.1138H49.1812V19.6656ZM51.8671 24.6215C51.7656 24.7244 51.6914 24.9514 51.6914 25.1591C51.6914 25.3568 51.6433 25.5346 51.5844 25.5541C51.5257 25.5737 51.452 25.7807 51.4207 26.0141C51.3893 26.2474 51.3245 26.4383 51.2765 26.4383C51.2286 26.4383 51.1893 26.5977 51.1893 26.7926C51.1893 27.015 51.1332 27.1685 51.0387 27.2047C50.9402 27.2425 50.8881 27.3988 50.8881 27.6562C50.8881 27.9136 50.836 28.07 50.7375 28.1077C50.632 28.1482 50.5869 28.3126 50.5869 28.6564C50.5869 29.026 50.5496 29.1474 50.4363 29.1474C50.3247 29.1474 50.2856 29.2645 50.2856 29.5989C50.2856 29.9333 50.2466 30.0504 50.135 30.0504C50.0263 30.0504 49.9844 30.1619 49.9844 30.4517C49.9844 30.6725 49.942 30.8531 49.8901 30.8531C49.8383 30.8531 49.7654 31.0563 49.7282 31.3046C49.6909 31.5529 49.6261 31.7561 49.5842 31.7561C49.5422 31.7561 49.4853 31.9912 49.4577 32.2787C49.4301 32.566 49.3566 32.8181 49.2943 32.8388C49.2321 32.8596 49.1812 33.0759 49.1812 33.3196V33.7628L52.0679 33.7614C53.6556 33.7607 55.0563 33.7328 55.1805 33.6996C55.4341 33.6317 55.4879 33.4618 55.2559 33.4618C55.1447 33.4618 55.1052 33.3457 55.1052 33.0186C55.1052 32.7749 55.0589 32.5601 55.0024 32.5412C54.9459 32.5225 54.8705 32.3272 54.8347 32.1074C54.7991 31.8875 54.7097 31.6476 54.6363 31.5742C54.5628 31.5009 54.5028 31.2634 54.5028 31.0466C54.5028 30.8298 54.4626 30.6524 54.4135 30.6524C54.3645 30.6524 54.2946 30.4944 54.2584 30.3012C54.2221 30.1081 54.1494 29.9501 54.0966 29.9501C54.0439 29.9501 54.0007 29.7906 54.0007 29.5958C54.0007 29.3733 53.9446 29.2199 53.8501 29.1837C53.7519 29.146 53.6995 28.9899 53.6995 28.7353C53.6995 28.5205 53.6595 28.3447 53.6106 28.3447C53.5616 28.3447 53.491 28.1415 53.4537 27.8932C53.4165 27.6448 53.3494 27.4417 53.3046 27.4417C53.2598 27.4417 53.1943 27.2611 53.1589 27.0403C53.1236 26.8196 53.0501 26.639 52.9955 26.639C52.9409 26.639 52.8963 26.4584 52.8963 26.2376C52.8963 25.9478 52.8544 25.8363 52.7456 25.8363C52.6341 25.8363 52.595 25.7192 52.595 25.3848C52.595 25.0504 52.556 24.9333 52.4444 24.9333C52.3507 24.9333 52.2938 24.8386 52.2938 24.6824C52.2938 24.3918 52.1185 24.3668 51.8671 24.6215ZM30.9069 57.8434C30.9069 57.9025 30.553 57.9437 30.0463 57.9437C29.4151 57.9437 29.1454 57.9839 29.0349 58.0942C28.9464 58.1827 28.7011 58.2447 28.4397 58.2447C28.1114 58.2447 27.995 58.2841 27.995 58.3952C27.995 58.4956 27.8946 58.5457 27.6938 58.5457C27.5281 58.5457 27.3926 58.59 27.3926 58.6442C27.3926 58.6983 27.2796 58.7709 27.1415 58.8055C27.0035 58.8401 26.8905 58.9088 26.8905 58.9579C26.8905 59.0072 26.7762 59.0474 26.6364 59.0474C26.4965 59.0474 26.3562 59.1152 26.3244 59.1979C26.2926 59.2807 26.1585 59.3484 26.0263 59.3484C25.8797 59.3484 25.786 59.4071 25.786 59.4989C25.786 59.5817 25.7183 59.6494 25.6354 59.6494C25.5526 59.6494 25.4848 59.7172 25.4848 59.7999C25.4848 59.8835 25.3956 59.9505 25.284 59.9505C25.0748 59.9505 24.6815 60.2779 24.6815 60.4521C24.6815 60.5073 24.6364 60.5525 24.5811 60.5525C24.4068 60.5525 24.0791 60.9455 24.0791 61.1545C24.0791 61.266 24.0121 61.3551 23.9285 61.3551C23.8456 61.3551 23.7779 61.4064 23.7779 61.469C23.7779 61.5317 23.6649 61.6876 23.5269 61.8155C23.3888 61.9433 23.2758 62.1404 23.2758 62.2534C23.2758 62.3691 23.2101 62.4588 23.1252 62.4588C23.0248 62.4588 22.9746 62.5592 22.9746 62.7598C22.9746 62.9605 22.9244 63.0609 22.824 63.0609C22.7153 63.0609 22.6734 63.1723 22.6734 63.4622C22.6734 63.7521 22.6315 63.8635 22.5228 63.8635C22.4116 63.8635 22.3722 63.9796 22.3722 64.3067C22.3722 64.5687 22.3216 64.7667 22.2484 64.791C22.0722 64.8497 22.0749 69.4001 22.2512 69.4588C22.3207 69.4819 22.3722 69.6841 22.3722 69.9351C22.3722 70.1888 22.4351 70.4339 22.5228 70.5215C22.6056 70.6043 22.6734 70.7881 22.6734 70.9301C22.6734 71.072 22.715 71.1881 22.7659 71.1881C22.8167 71.1881 22.8881 71.3235 22.9244 71.4891C22.9608 71.6546 23.0313 71.7901 23.081 71.7901C23.1308 71.7901 23.1999 71.9029 23.2346 72.0409C23.2692 72.1789 23.3343 72.2917 23.3792 72.2917C23.424 72.2917 23.4905 72.4272 23.5269 72.5928C23.5632 72.7583 23.6346 72.8938 23.6854 72.8938C23.7363 72.8938 23.7779 72.9615 23.7779 73.0443C23.7779 73.127 23.8456 73.1948 23.9285 73.1948C24.0113 73.1948 24.0791 73.2625 24.0791 73.3453C24.0791 73.4281 24.1278 73.4958 24.1872 73.4958C24.3277 73.4958 24.8824 74.05 24.8824 74.1904C24.8824 74.2498 24.9501 74.2985 25.033 74.2985C25.1158 74.2985 25.1836 74.3662 25.1836 74.449C25.1836 74.5317 25.2514 74.5995 25.3342 74.5995C25.417 74.5995 25.4848 74.641 25.4848 74.6919C25.4848 74.7427 25.6204 74.814 25.786 74.8503C25.9517 74.8866 26.0873 74.9531 26.0873 74.9979C26.0873 75.0428 26.2002 75.1078 26.3383 75.1424C26.4763 75.177 26.5893 75.2496 26.5893 75.3037C26.5893 75.3579 26.6585 75.4022 26.743 75.4022C26.8277 75.4022 26.9229 75.4699 26.9546 75.5527C26.9923 75.6508 27.1485 75.7032 27.4033 75.7032C27.6839 75.7032 27.7942 75.7457 27.7942 75.8537C27.7942 75.9623 27.9058 76.0042 28.1958 76.0042C28.4167 76.0042 28.5975 76.0435 28.5975 76.0916C28.5975 76.1396 28.9589 76.2105 29.4007 76.249C29.8425 76.2874 30.204 76.3611 30.204 76.4124C30.204 76.5567 33.2906 76.5335 33.3389 76.3889C33.3651 76.3104 33.8376 76.2563 34.774 76.2245C35.646 76.195 36.2141 76.1331 36.2876 76.0598C36.3523 75.9951 36.4371 75.753 36.4763 75.5218C36.5154 75.2904 36.5886 75.1012 36.639 75.1012C36.6894 75.1012 36.7305 74.9205 36.7305 74.6998C36.7305 74.4099 36.7724 74.2985 36.8811 74.2985C36.9899 74.2985 37.0318 74.187 37.0318 73.8971C37.0318 73.6073 37.0736 73.4958 37.1824 73.4958C37.2828 73.4958 37.333 73.3954 37.333 73.1948C37.333 73.0292 37.3782 72.8938 37.4334 72.8938C37.607 72.8938 37.5424 72.7093 37.3471 72.6474C37.0706 72.5597 36.8371 72.684 36.769 72.955C36.7359 73.0869 36.6685 73.1948 36.6193 73.1948C36.57 73.1948 36.5297 73.2625 36.5297 73.3453C36.5297 73.4281 36.4619 73.4958 36.3791 73.4958C36.2963 73.4958 36.2285 73.5635 36.2285 73.6463C36.2285 73.7291 36.1607 73.7968 36.0779 73.7968C35.995 73.7968 35.9273 73.8451 35.9273 73.9042C35.9273 74.0432 35.6718 74.2985 35.5328 74.2985C35.4736 74.2985 35.4252 74.3662 35.4252 74.449C35.4252 74.5317 35.3623 74.5995 35.2854 74.5995C35.2084 74.5995 35.1195 74.6672 35.0877 74.75C35.0559 74.8328 34.9156 74.9005 34.7757 74.9005C34.6359 74.9005 34.5216 74.9436 34.5216 74.9963C34.5216 75.049 34.3522 75.1232 34.145 75.1613C33.938 75.1993 33.739 75.2759 33.703 75.3314C33.6183 75.4621 30.4028 75.4586 30.3169 75.3279C30.2824 75.2754 30.0771 75.2046 29.8607 75.1704C29.6442 75.1363 29.4409 75.068 29.4089 75.0189C29.3767 74.9697 29.1811 74.8983 28.974 74.8602C28.767 74.8222 28.5975 74.748 28.5975 74.6953C28.5975 74.6426 28.5297 74.5995 28.4469 74.5995C28.364 74.5995 28.2962 74.5317 28.2962 74.449C28.2962 74.3653 28.207 74.2985 28.0953 74.2985C27.9848 74.2985 27.719 74.1179 27.5046 73.8971C27.2903 73.6764 27.0643 73.4958 27.0027 73.4958C26.941 73.4958 26.8905 73.4281 26.8905 73.3453C26.8905 73.2625 26.8228 73.1948 26.7399 73.1948C26.6571 73.1948 26.5893 73.127 26.5893 73.0443C26.5893 72.9615 26.5477 72.8938 26.4968 72.8938C26.446 72.8938 26.3746 72.7583 26.3383 72.5928C26.3019 72.4272 26.2313 72.2917 26.1816 72.2917C26.1318 72.2917 26.0628 72.1789 26.0281 72.0409C25.9935 71.9029 25.9284 71.7901 25.8835 71.7901C25.8387 71.7901 25.7722 71.6546 25.7358 71.4891C25.6995 71.3235 25.6281 71.1881 25.5773 71.1881C25.5264 71.1881 25.4848 71.072 25.4848 70.9301C25.4848 70.7881 25.417 70.6043 25.3342 70.5215C25.2506 70.4379 25.1836 70.1926 25.1836 69.9697C25.1836 69.7409 25.1166 69.5014 25.0279 69.4128C24.8943 69.2793 24.8765 68.9225 24.9023 66.8947C24.9251 65.1157 24.9636 64.5219 25.0581 64.4905C25.1333 64.4656 25.1836 64.2711 25.1836 64.0057C25.1836 63.6786 25.223 63.5625 25.3342 63.5625C25.4429 63.5625 25.4848 63.4511 25.4848 63.1612C25.4848 62.8713 25.5267 62.7598 25.6354 62.7598C25.7183 62.7598 25.786 62.6921 25.786 62.6093C25.786 62.5266 25.8276 62.4588 25.8785 62.4588C25.9293 62.4588 26.0007 62.3234 26.0371 62.1578C26.0734 61.9923 26.144 61.8568 26.1937 61.8568C26.2435 61.8568 26.3126 61.7439 26.3472 61.606C26.3819 61.468 26.4505 61.3551 26.4997 61.3551C26.549 61.3551 26.5893 61.2874 26.5893 61.2046C26.5893 61.1219 26.6571 61.0541 26.7399 61.0541C26.8228 61.0541 26.8905 60.9864 26.8905 60.9036C26.8905 60.8209 26.9583 60.7531 27.0411 60.7531C27.124 60.7531 27.1918 60.6854 27.1918 60.6026C27.1918 60.5199 27.2431 60.4521 27.3057 60.4521C27.3685 60.4521 27.5196 60.3446 27.6415 60.213C27.7635 60.0815 27.9607 59.943 28.0798 59.9053C28.1988 59.8675 28.2962 59.7993 28.2962 59.7539C28.2962 59.7084 28.4092 59.6428 28.5473 59.6082C28.6853 59.5736 28.7983 59.5009 28.7983 59.4469C28.7983 59.3927 28.9338 59.3484 29.0995 59.3484C29.3003 59.3484 29.4007 59.2983 29.4007 59.1979C29.4007 59.0888 29.5131 59.0474 29.8095 59.0474C30.0467 59.0474 30.2843 58.9814 30.3755 58.8903C30.5082 58.7578 30.7912 58.7382 32.1926 58.7649C33.4081 58.7882 33.8636 58.8302 33.8941 58.922C33.9171 58.991 34.0644 59.0474 34.2215 59.0474C34.3787 59.0474 34.575 59.1152 34.6578 59.1979C34.7406 59.2807 34.8794 59.3484 34.9663 59.3484C35.053 59.3484 35.124 59.4162 35.124 59.4989C35.124 59.5817 35.1727 59.6494 35.2321 59.6494C35.4449 59.6494 35.9273 60.2359 35.9273 60.4946C35.9273 60.6575 35.983 60.7531 36.0779 60.7531C36.1866 60.7531 36.2285 60.8646 36.2285 61.1545C36.2285 61.3752 36.27 61.5558 36.3207 61.5558C36.3714 61.5558 36.4843 61.5832 36.5717 61.6167C36.7049 61.6678 36.7305 61.5865 36.7305 61.1119C36.7305 60.7016 36.7719 60.5303 36.8811 60.4884C37.0038 60.4414 37.0318 60.2 37.0318 59.1872V57.9437H36.7887C36.5983 57.9437 36.5308 58.0115 36.477 58.2562C36.4121 58.5512 36.388 58.5653 36.043 58.5093C35.8422 58.4768 35.6624 58.404 35.6436 58.3475C35.6247 58.291 35.4324 58.2447 35.2161 58.2447C34.9334 58.2447 34.8228 58.2024 34.8228 58.0942C34.8228 57.9717 34.6564 57.9437 33.9274 57.9437C33.3094 57.9437 33.014 57.9049 32.9736 57.8183C32.9268 57.718 32.9033 57.718 32.8565 57.8183C32.7841 57.9733 31.1077 57.9974 31.1077 57.8434C31.1077 57.7882 31.0625 57.7431 31.0073 57.7431C30.952 57.7431 30.9069 57.7882 30.9069 57.8434ZM38.4375 58.3369C38.4375 58.653 38.578 58.7464 39.0538 58.7464C39.4007 58.7464 39.5656 58.7914 39.606 58.8969C39.6379 58.9797 39.7268 59.0474 39.8037 59.0474C39.8806 59.0474 39.9436 59.1152 39.9436 59.1979C39.9436 59.2807 39.9888 59.3484 40.044 59.3484C40.0992 59.3484 40.1444 59.4162 40.1444 59.4989C40.1444 59.5817 40.2122 59.6494 40.295 59.6494C40.3954 59.6494 40.4456 59.7498 40.4456 59.9505C40.4456 60.116 40.4908 60.2515 40.546 60.2515C40.6013 60.2515 40.6465 60.3643 40.6465 60.5023C40.6465 60.6403 40.6013 60.7531 40.546 60.7531C40.4813 60.7531 40.4456 61.854 40.4456 63.8552C40.4456 66.0382 40.4126 66.9682 40.3342 66.9943C40.2572 67.02 40.2068 68.021 40.1706 70.2386C40.142 72.0024 40.0857 73.4682 40.0455 73.4958C40.0054 73.5234 39.9479 73.7702 39.9178 74.0443C39.8876 74.3184 39.8133 74.5592 39.7526 74.5795C39.692 74.5997 39.6424 74.6801 39.6424 74.7583C39.6424 74.8365 39.5746 74.9005 39.4918 74.9005C39.4089 74.9005 39.3411 74.9682 39.3411 75.051C39.3411 75.1338 39.2734 75.2015 39.1905 75.2015C39.1077 75.2015 39.0399 75.243 39.0399 75.2939C39.0399 75.3447 38.9044 75.416 38.7387 75.4523C38.573 75.4886 38.4375 75.56 38.4375 75.6108C38.4375 75.6616 38.3019 75.7032 38.1362 75.7032C37.9354 75.7032 37.835 75.7533 37.835 75.8537C37.835 75.9836 38.1967 76.0042 40.4876 76.0042C41.9465 76.0042 43.2117 75.9768 43.299 75.9433C43.574 75.8379 43.4719 75.7032 43.1172 75.7032C42.9069 75.7032 42.7544 75.6456 42.7187 75.5527C42.687 75.4699 42.5466 75.4022 42.4067 75.4022C42.2669 75.4022 42.1526 75.357 42.1526 75.3018C42.1526 75.2466 42.0848 75.2015 42.002 75.2015C41.9191 75.2015 41.8514 75.1386 41.8514 75.0617C41.8514 74.9849 41.7836 74.896 41.7007 74.8642C41.6055 74.8276 41.5501 74.6737 41.5501 74.445C41.5501 74.2461 41.478 74.0114 41.3899 73.9233C41.2621 73.7956 41.2368 73.5908 41.2648 72.9103C41.288 72.3449 41.342 72.0433 41.4249 72.0157C41.5224 71.9832 41.5501 70.9756 41.5501 67.4606V62.9472L41.8263 62.979C42.0334 63.0028 42.1112 63.0734 42.1376 63.2615C42.157 63.3995 42.2168 63.5398 42.2708 63.5732C42.3246 63.6066 42.3938 63.8211 42.4244 64.0498C42.4551 64.2784 42.519 64.4656 42.5663 64.4656C42.6136 64.4656 42.6811 64.6462 42.7165 64.8669C42.7518 65.0876 42.8201 65.2682 42.8683 65.2682C42.9165 65.2682 42.9558 65.4005 42.9558 65.5621C42.9558 65.7237 43.0236 65.9236 43.1065 66.0064C43.191 66.0909 43.2571 66.3361 43.2571 66.5655C43.2571 66.8617 43.2984 66.974 43.4077 66.974C43.5025 66.974 43.5583 67.0695 43.5583 67.2319C43.5583 67.3739 43.6261 67.5577 43.7089 67.6405C43.7917 67.7233 43.8595 67.9039 43.8595 68.0418C43.8595 68.1798 43.9273 68.3604 44.0101 68.4432C44.093 68.5259 44.1607 68.7259 44.1607 68.8875C44.1607 69.0491 44.2023 69.1813 44.2532 69.1813C44.304 69.1813 44.3754 69.3168 44.4118 69.4823C44.4481 69.6479 44.5195 69.7834 44.5703 69.7834C44.6212 69.7834 44.6628 69.9591 44.6628 70.174C44.6628 70.4286 44.7152 70.5846 44.8134 70.6224C44.8962 70.6541 44.964 70.7975 44.964 70.9412C44.964 71.0849 45.0318 71.2701 45.1146 71.3529C45.1975 71.4357 45.2652 71.6357 45.2652 71.7972C45.2652 71.9588 45.3099 72.0911 45.3644 72.0911C45.4191 72.0911 45.4926 72.2717 45.5279 72.4924C45.5632 72.7132 45.6258 72.8938 45.6669 72.8938C45.7079 72.8938 45.7705 73.0744 45.8058 73.2951C45.8412 73.5158 45.9147 73.6964 45.9693 73.6964C46.0238 73.6964 46.0685 73.8785 46.0685 74.1009C46.0685 74.3679 46.1197 74.525 46.2191 74.5631C46.305 74.5961 46.3697 74.7458 46.3697 74.9112C46.3697 75.1819 46.3962 75.2015 46.7631 75.2015C47.3312 75.2015 47.4742 75.12 47.4742 74.7965C47.4742 74.6409 47.542 74.4458 47.6248 74.363C47.7094 74.2785 47.7754 74.0333 47.7754 73.8039C47.7754 73.5793 47.8148 73.3954 47.863 73.3954C47.9112 73.3954 47.9795 73.2148 48.0148 72.9941C48.0502 72.7734 48.1237 72.5928 48.1783 72.5928C48.2328 72.5928 48.2775 72.4605 48.2775 72.2989C48.2775 72.1373 48.3375 71.945 48.411 71.8716C48.4844 71.7982 48.5738 71.5583 48.6094 71.3385C48.6452 71.1186 48.7206 70.9234 48.7771 70.9046C48.8336 70.8857 48.8799 70.7419 48.8799 70.5848C48.8799 70.4278 48.9477 70.2317 49.0305 70.1489C49.1134 70.0661 49.1812 69.8823 49.1812 69.7403C49.1812 69.5779 49.237 69.4823 49.3318 69.4823C49.4405 69.4823 49.4824 69.3709 49.4824 69.081C49.4824 68.8603 49.5224 68.6797 49.5713 68.6797C49.6203 68.6797 49.6909 68.4765 49.7282 68.2282C49.7654 67.9798 49.8325 67.7766 49.8773 67.7766C49.9221 67.7766 49.9876 67.596 50.023 67.3753C50.0583 67.1546 50.1318 66.974 50.1864 66.974C50.241 66.974 50.2856 66.8385 50.2856 66.6729C50.2856 66.4723 50.3358 66.3719 50.4363 66.3719C50.545 66.3719 50.5869 66.2605 50.5869 65.9706C50.5869 65.6807 50.6287 65.5693 50.7375 65.5693C50.8455 65.5693 50.8881 65.459 50.8881 65.1786C50.8881 64.924 50.9405 64.768 51.0387 64.7302C51.1381 64.6921 51.1893 64.535 51.1893 64.268C51.1893 64.0456 51.2287 63.8635 51.2769 63.8635C51.3251 63.8635 51.3933 63.6829 51.4287 63.4622C51.483 63.1227 51.5302 63.0609 51.7349 63.0609H51.977L52.01 64.4323C52.0334 65.416 52.0782 65.8155 52.1683 65.8454C52.2662 65.8778 52.2938 66.8774 52.2938 70.3937C52.2938 74.3329 52.2748 74.9005 52.1432 74.9005C52.0604 74.9005 51.9926 74.9488 51.9926 75.0079C51.9926 75.1768 51.7649 75.362 51.4644 75.4373C51.3131 75.4753 51.1893 75.5507 51.1893 75.6047C51.1893 75.6589 51.0538 75.7032 50.8881 75.7032C50.6861 75.7032 50.5869 75.7531 50.5869 75.8551C50.5869 75.9881 50.9879 76.0037 53.8167 75.9805C56.2922 75.9602 57.0563 75.9247 57.0883 75.8286C57.1157 75.7463 57.0235 75.7032 56.8205 75.7032C56.6503 75.7032 56.511 75.66 56.511 75.6073C56.511 75.5547 56.3466 75.4808 56.1458 75.4431C55.7232 75.3639 55.4065 75.0884 55.4065 74.8001C55.4065 74.6887 55.3395 74.5995 55.2559 74.5995C55.128 74.5995 55.1052 74.3478 55.1052 72.9368C55.1052 71.5926 55.0764 71.2452 54.9546 71.1235C54.826 70.995 54.804 70.4118 54.804 67.1257C54.804 65.0096 54.7648 63.2632 54.7168 63.2448C54.6689 63.2264 54.5974 62.4621 54.5579 61.5462C54.4957 60.0979 54.507 59.8602 54.6452 59.7222C54.7325 59.6349 54.804 59.4474 54.804 59.3054C54.804 59.1498 54.8604 59.0474 54.9463 59.0474C55.0245 59.0474 55.105 58.9979 55.1252 58.9373C55.1455 58.8767 55.3818 58.8023 55.6504 58.772C56.0675 58.7251 56.511 58.4791 56.511 58.2949C56.511 58.2673 55.5621 58.2447 54.4024 58.2447H52.2938V58.6461C52.2938 58.936 52.2519 59.0474 52.1432 59.0474C52.0428 59.0474 51.9926 59.1478 51.9926 59.3484C51.9926 59.514 51.9532 59.6494 51.905 59.6494C51.8568 59.6494 51.7886 59.83 51.7532 60.0508C51.7179 60.2715 51.6444 60.4521 51.5897 60.4521C51.5352 60.4521 51.4905 60.5844 51.4905 60.746C51.4905 60.9076 51.4228 61.1075 51.3399 61.1903C51.2571 61.2731 51.1893 61.4795 51.1893 61.649C51.1893 61.856 51.1399 61.9572 51.0387 61.9572C50.9333 61.9572 50.8881 62.0634 50.8881 62.3115C50.8881 62.5339 50.832 62.6873 50.7375 62.7235C50.6546 62.7553 50.5869 62.8926 50.5869 63.0285C50.5869 63.1646 50.5191 63.3436 50.4363 63.4264C50.3534 63.5092 50.2856 63.7091 50.2856 63.8707C50.2856 64.0323 50.241 64.1646 50.1864 64.1646C50.1318 64.1646 50.0583 64.3452 50.023 64.5659C49.9876 64.7866 49.9194 64.9672 49.8712 64.9672C49.823 64.9672 49.7836 65.0815 49.7836 65.2212C49.7836 65.361 49.7158 65.5012 49.633 65.5329C49.5483 65.5654 49.4824 65.7147 49.4824 65.8739C49.4824 66.0295 49.4146 66.2246 49.3318 66.3074C49.2489 66.3902 49.1812 66.574 49.1812 66.716C49.1812 66.8579 49.1396 66.974 49.0887 66.974C49.0379 66.974 48.9665 67.1094 48.9301 67.275C48.8938 67.4405 48.8281 67.576 48.7843 67.576C48.7406 67.576 48.6759 67.7566 48.6406 67.9773C48.6052 68.198 48.5317 68.3787 48.4771 68.3787C48.4226 68.3787 48.3779 68.5141 48.3779 68.6797C48.3779 68.8803 48.3277 68.9807 48.2273 68.9807C48.1185 68.9807 48.0767 69.0921 48.0767 69.382C48.0767 69.6719 48.0348 69.7834 47.9261 69.7834C47.8256 69.7834 47.7754 69.8837 47.7754 70.0844C47.7754 70.3994 47.6099 70.4935 47.5106 70.2349C47.4787 70.1521 47.3898 70.0844 47.3129 70.0844C47.2244 70.0844 47.173 69.9738 47.173 69.7834C47.173 69.6178 47.1336 69.4823 47.0854 69.4823C47.0372 69.4823 46.969 69.3017 46.9336 69.081C46.8983 68.8603 46.8248 68.6797 46.7701 68.6797C46.7156 68.6797 46.6709 68.5474 46.6709 68.3858C46.6709 68.2242 46.6032 68.0243 46.5203 67.9415C46.4375 67.8587 46.3697 67.6717 46.3697 67.5258C46.3697 67.3799 46.3019 67.1929 46.2191 67.1101C46.1363 67.0273 46.0685 66.8274 46.0685 66.6658C46.0685 66.4715 46.0175 66.3719 45.9179 66.3719C45.8098 66.3719 45.7673 66.2617 45.7673 65.9813C45.7673 65.7267 45.7149 65.5707 45.6167 65.5329C45.5222 65.4967 45.466 65.3433 45.466 65.1209C45.466 64.926 45.4209 64.7666 45.3656 64.7666C45.3104 64.7666 45.2652 64.6311 45.2652 64.4656C45.2652 64.2649 45.215 64.1646 45.1146 64.1646C45.0066 64.1646 44.964 64.0543 44.964 63.7739C44.964 63.5193 44.9116 63.3633 44.8134 63.3255C44.714 63.2874 44.6628 63.1303 44.6628 62.8633C44.6628 62.5707 44.6211 62.4588 44.5122 62.4588C44.4174 62.4588 44.3616 62.3633 44.3616 62.2009C44.3616 62.0589 44.2938 61.8751 44.2109 61.7923C44.1281 61.7095 44.0603 61.5096 44.0603 61.348C44.0603 61.1864 44.0188 61.0541 43.9679 61.0541C43.917 61.0541 43.8457 60.9187 43.8093 60.7531C43.773 60.5876 43.7016 60.4521 43.6508 60.4521C43.5999 60.4521 43.5583 60.2715 43.5583 60.0508C43.5583 59.7609 43.5164 59.6494 43.4077 59.6494C43.3129 59.6494 43.2571 59.5539 43.2571 59.3915C43.2571 59.2495 43.1893 59.0657 43.1065 58.9829C43.0236 58.9001 42.9558 58.7002 42.9558 58.5386V58.2447H40.6967C39.3917 58.2447 38.4375 58.2837 38.4375 58.3369ZM57.9167 58.4956C57.9167 58.7329 57.9466 58.7464 58.472 58.7464C58.8732 58.7464 59.0435 58.7883 59.0852 58.8969C59.117 58.9797 59.206 59.0474 59.2829 59.0474C59.3598 59.0474 59.4228 59.1152 59.4228 59.1979C59.4228 59.2807 59.468 59.3484 59.5232 59.3484C59.5784 59.3484 59.6236 59.4839 59.6236 59.6494C59.6236 59.8501 59.6738 59.9505 59.7742 59.9505C59.9067 59.9505 59.9248 60.7977 59.9248 66.974C59.9248 73.1502 59.9067 73.9975 59.7742 73.9975C59.665 73.9975 59.6236 74.1098 59.6236 74.4065C59.6236 74.8747 59.2665 75.3189 58.7949 75.4372C58.6432 75.4752 58.5191 75.5507 58.5191 75.6047C58.5191 75.6589 58.3836 75.7032 58.2179 75.7032C58.0171 75.7032 57.9167 75.7533 57.9167 75.8537C57.9167 75.9844 58.3462 76.0042 61.1799 76.0042C64.0137 76.0042 64.4432 75.9844 64.4432 75.8537C64.4432 75.7457 64.3329 75.7032 64.0523 75.7032C63.7975 75.7032 63.6413 75.6508 63.6036 75.5527C63.5719 75.4699 63.4315 75.4022 63.2916 75.4022C63.1519 75.4022 63.0375 75.357 63.0375 75.3018C63.0375 75.2466 62.9697 75.2015 62.8869 75.2015C62.804 75.2015 62.7363 75.1306 62.7363 75.0439C62.7363 74.9571 62.6685 74.8184 62.5857 74.7356C62.4593 74.6094 62.435 74.1567 62.435 71.9334C62.435 69.8806 62.4634 69.281 62.5605 69.2787C64.7196 69.2265 65.7967 69.166 65.8422 69.0944C65.8735 69.0452 66.1363 68.9726 66.4263 68.9332C66.7162 68.8938 66.9534 68.8206 66.9534 68.7706C66.9534 68.7206 67.0664 68.6797 67.2044 68.6797C67.3607 68.6797 67.4554 68.6228 67.4554 68.5292C67.4554 68.4288 67.5559 68.3787 67.7567 68.3787C67.9575 68.3787 68.0579 68.3285 68.0579 68.2282C68.0579 68.1454 68.1257 68.0776 68.2085 68.0776C68.2913 68.0776 68.3591 68.0099 68.3591 67.9271C68.3591 67.8444 68.4269 67.7766 68.5097 67.7766C68.5926 67.7766 68.6603 67.7315 68.6603 67.6763C68.6603 67.6211 68.7281 67.576 68.811 67.576C68.8938 67.576 68.9616 67.5287 68.9616 67.4708C68.9616 67.413 69.0745 67.2611 69.2126 67.1333C69.3507 67.0054 69.4636 66.8495 69.4636 66.7868C69.4636 66.7242 69.5314 66.6729 69.6142 66.6729C69.7084 66.6729 69.7648 66.5778 69.7648 66.419C69.7648 66.2792 69.8326 66.139 69.9155 66.1073C69.9983 66.0754 70.0661 65.9452 70.0661 65.8177C70.0661 65.6903 70.1226 65.5671 70.1916 65.5442C70.2766 65.5159 70.3286 65.1974 70.3528 64.5576C70.3738 64.0036 70.4361 63.5784 70.5034 63.5298C70.5883 63.4686 70.5855 63.4336 70.4928 63.3961C70.4063 63.361 70.3673 63.0816 70.3673 62.4975C70.3673 61.8366 70.3342 61.6371 70.2167 61.5921C70.1338 61.5603 70.0661 61.4457 70.0661 61.3373C70.0661 61.2288 69.9983 61.0724 69.9155 60.9896C69.8326 60.9068 69.7648 60.752 69.7648 60.6457C69.7648 60.5392 69.6971 60.4521 69.6142 60.4521C69.5314 60.4521 69.4636 60.4038 69.4636 60.3447C69.4636 60.2057 69.2082 59.9505 69.0691 59.9505C69.01 59.9505 68.9616 59.8827 68.9616 59.7999C68.9616 59.7172 68.8938 59.6494 68.811 59.6494C68.7281 59.6494 68.6603 59.5817 68.6603 59.4989C68.6603 59.4071 68.5667 59.3484 68.4201 59.3484C68.2879 59.3484 68.1538 59.2807 68.122 59.1979C68.0902 59.1152 67.9499 59.0474 67.81 59.0474C67.6702 59.0474 67.5559 59.0023 67.5559 58.9471C67.5559 58.8919 67.4203 58.8468 67.2546 58.8468C67.0651 58.8468 66.9534 58.7953 66.9534 58.7079C66.9534 58.6079 66.7661 58.5572 66.2821 58.5264C65.8866 58.5012 65.5943 58.4346 65.5708 58.3642C65.541 58.2746 64.5793 58.2447 61.7238 58.2447H57.9167V58.4956ZM72.8775 58.4956C72.8775 58.7074 72.9244 58.7464 73.1787 58.7464C73.3795 58.7464 73.4799 58.7966 73.4799 58.8969C73.4799 58.9797 73.5477 59.0474 73.6306 59.0474C73.7134 59.0474 73.7812 59.1152 73.7812 59.1979C73.7812 59.2807 73.8264 59.3484 73.8816 59.3484C73.9368 59.3484 73.982 59.4839 73.982 59.6494C73.982 59.815 73.9368 59.9505 73.8816 59.9505C73.8264 59.9505 73.7812 60.0827 73.7812 60.2443C73.7812 60.4059 73.7134 60.6058 73.6306 60.6886C73.5477 60.7714 73.4799 61.0018 73.4799 61.2006C73.4799 61.4294 73.4246 61.5833 73.3293 61.6198C73.2311 61.6576 73.1787 61.8136 73.1787 62.0682C73.1787 62.3486 73.1361 62.4588 73.0281 62.4588C72.9189 62.4588 72.8775 62.5711 72.8775 62.8673C72.8775 63.0967 72.8114 63.3419 72.7269 63.4264C72.644 63.5092 72.5763 63.7543 72.5763 63.971C72.5763 64.1878 72.5339 64.3652 72.482 64.3652C72.4302 64.3652 72.3573 64.5684 72.32 64.8167C72.2828 65.0651 72.2122 65.2682 72.1632 65.2682C72.1143 65.2682 72.0742 65.4503 72.0742 65.6727C72.0742 65.9397 72.023 66.0968 71.9236 66.1349C71.8254 66.1727 71.773 66.3287 71.773 66.5833C71.773 66.8637 71.7304 66.974 71.6224 66.974C71.5131 66.974 71.4718 67.0862 71.4718 67.3824C71.4718 67.6118 71.4057 67.857 71.3212 67.9415C71.2383 68.0243 71.1706 68.2694 71.1706 68.4861C71.1706 68.7029 71.1274 68.8803 71.0747 68.8803C71.022 68.8803 70.9491 69.0384 70.9129 69.2315C70.8767 69.4247 70.8068 69.5827 70.7578 69.5827C70.7087 69.5827 70.6685 69.7421 70.6685 69.937C70.6685 70.1594 70.6124 70.3128 70.5179 70.349C70.4194 70.3869 70.3673 70.5432 70.3673 70.8006C70.3673 71.058 70.3152 71.2143 70.2167 71.2521C70.1111 71.2926 70.0661 71.457 70.0661 71.8008C70.0661 72.1703 70.0288 72.2917 69.9155 72.2917C69.8067 72.2917 69.7648 72.4032 69.7648 72.6931C69.7648 72.9138 69.7256 73.0944 69.6777 73.0944C69.6297 73.0944 69.5648 73.2854 69.5335 73.5187C69.5022 73.752 69.4285 73.959 69.3697 73.9786C69.3109 73.9982 69.2628 74.1459 69.2628 74.3068C69.2628 74.5 69.2116 74.5995 69.1122 74.5995C69.0185 74.5995 68.9616 74.6942 68.9616 74.8503C68.9616 75.0064 68.9046 75.1012 68.811 75.1012C68.7281 75.1012 68.6603 75.1689 68.6603 75.2517C68.6603 75.3512 68.5607 75.4022 68.3663 75.4022C68.2046 75.4022 68.0045 75.4699 67.9216 75.5527C67.8388 75.6354 67.6549 75.7032 67.5128 75.7032C67.3502 75.7032 67.2546 75.7589 67.2546 75.8537C67.2546 75.9832 67.5838 76.0042 69.6142 76.0042C71.6447 76.0042 71.9738 75.9832 71.9738 75.8537C71.9738 75.7601 71.879 75.7032 71.7228 75.7032C71.5847 75.7032 71.4718 75.6616 71.4718 75.6108C71.4718 75.56 71.3362 75.4886 71.1706 75.4523C71.0049 75.416 70.8693 75.3258 70.8693 75.2521C70.8693 75.1782 70.8129 75.099 70.7438 75.0761C70.6665 75.0503 70.6183 74.8481 70.6183 74.5493C70.6183 74.2505 70.6665 74.0483 70.7438 74.0225C70.8236 73.996 70.8693 73.7828 70.8693 73.4373C70.8693 73.0211 70.9046 72.8938 71.0199 72.8938C71.1312 72.8938 71.1706 72.7775 71.1706 72.4494C71.1706 72.1882 71.2326 71.9431 71.3212 71.8546C71.4057 71.7701 71.4718 71.5249 71.4718 71.2955C71.4718 70.9993 71.5131 70.887 71.6224 70.887C71.7052 70.887 71.773 70.8193 71.773 70.7365C71.773 70.6062 72.169 70.586 74.735 70.586H77.6971V70.887C77.6971 71.0877 77.7473 71.1881 77.8477 71.1881C77.9559 71.1881 77.9983 71.2986 77.9983 71.5811C77.9983 71.7972 78.0464 71.99 78.1052 72.0096C78.164 72.0292 78.2377 72.2362 78.269 72.4695C78.3003 72.7028 78.3595 72.8938 78.4003 72.8938C78.4413 72.8938 78.4974 73.1288 78.5251 73.4163C78.5527 73.7037 78.6262 73.9557 78.6884 73.9765C78.7519 73.9977 78.8016 74.2308 78.8016 74.5075C78.8016 75.0506 78.5636 75.4022 78.196 75.4022C78.0838 75.4022 77.966 75.4699 77.9343 75.5527C77.9024 75.6354 77.7683 75.7032 77.6361 75.7032C77.4895 75.7032 77.3959 75.7619 77.3959 75.8537C77.3959 75.9855 78.0262 76.0042 82.4665 76.0042C86.9067 76.0042 87.5371 75.9855 87.5371 75.8537C87.5371 75.745 87.4255 75.7032 87.1355 75.7032C86.9146 75.7032 86.7338 75.6629 86.7338 75.6137C86.7338 75.5645 86.6202 75.4958 86.4813 75.461C86.2075 75.3922 85.8302 75.1086 85.8302 74.9713C85.8302 74.9245 85.7624 74.8184 85.6795 74.7356C85.591 74.6471 85.5289 74.402 85.5289 74.1408C85.5289 73.8964 85.4837 73.6964 85.4285 73.6964C85.3629 73.6964 85.3281 71.8068 85.3281 68.2282V62.7598H85.5791C85.7172 62.7598 85.8302 62.805 85.8302 62.8602C85.8302 62.9154 85.8979 62.9605 85.9808 62.9605C86.0812 62.9605 86.1314 63.0609 86.1314 63.2615C86.1314 63.4622 86.1816 63.5625 86.282 63.5625C86.3739 63.5625 86.4326 63.6562 86.4326 63.8026C86.4326 63.9347 86.5004 64.0687 86.5832 64.1005C86.6661 64.1322 86.7338 64.2274 86.7338 64.3119C86.7338 64.3964 86.7781 64.4656 86.8323 64.4656C86.8864 64.4656 86.9591 64.5784 86.9938 64.7164C87.0284 64.8544 87.0971 64.9672 87.1463 64.9672C87.1956 64.9672 87.2359 65.0364 87.2359 65.1209C87.2359 65.2054 87.3036 65.3006 87.3865 65.3323C87.4693 65.3641 87.5371 65.4981 87.5371 65.6302C87.5371 65.7766 87.5958 65.8703 87.6877 65.8703C87.7814 65.8703 87.8383 65.965 87.8383 66.1211C87.8383 66.2772 87.8952 66.3719 87.9889 66.3719C88.0726 66.3719 88.1395 66.4611 88.1395 66.5726C88.1395 66.683 88.1817 66.7733 88.2332 66.7733C88.2847 66.7733 88.3584 66.8728 88.3971 66.9943C88.4356 67.1159 88.529 67.2772 88.6046 67.3527C88.6801 67.4282 88.742 67.5545 88.742 67.6333C88.742 67.7121 88.7872 67.7766 88.8424 67.7766C88.8976 67.7766 88.9428 67.8444 88.9428 67.9271C88.9428 68.0099 89.0106 68.0776 89.0934 68.0776C89.1938 68.0776 89.244 68.178 89.244 68.3787C89.244 68.5793 89.2942 68.6797 89.3946 68.6797C89.4883 68.6797 89.5453 68.7744 89.5453 68.9305C89.5453 69.0866 89.6022 69.1813 89.6959 69.1813C89.7787 69.1813 89.8465 69.2491 89.8465 69.3318C89.8465 69.4146 89.8881 69.4823 89.939 69.4823C89.9898 69.4823 90.0612 69.6178 90.0975 69.7834C90.1339 69.9489 90.2003 70.0844 90.2452 70.0844C90.2901 70.0844 90.3551 70.1972 90.3898 70.3352C90.4244 70.4732 90.4971 70.586 90.5512 70.586C90.6055 70.586 90.6497 70.6538 90.6497 70.7365C90.6497 70.8193 90.7175 70.887 90.8004 70.887C90.9008 70.887 90.951 70.9874 90.951 71.1881C90.951 71.3887 91.0012 71.4891 91.1016 71.4891C91.1935 71.4891 91.2522 71.5827 91.2522 71.7292C91.2522 71.8612 91.32 71.9953 91.4028 72.0271C91.4856 72.0588 91.5534 72.1539 91.5534 72.2385C91.5534 72.323 91.5986 72.3921 91.6538 72.3921C91.7091 72.3921 91.7542 72.505 91.7542 72.6429C91.7542 72.7903 91.8119 72.8938 91.894 72.8938C91.9708 72.8938 92.0621 73.0066 92.0967 73.1446C92.1314 73.2826 92.2041 73.3954 92.2582 73.3954C92.3124 73.3954 92.3567 73.4857 92.3567 73.5961C92.3567 73.7076 92.4237 73.7968 92.5073 73.7968C92.601 73.7968 92.6579 73.8915 92.6579 74.0476C92.6579 74.2037 92.7148 74.2985 92.8085 74.2985C92.8914 74.2985 92.9591 74.3662 92.9591 74.449C92.9591 74.5317 92.9994 74.5995 93.0487 74.5995C93.0979 74.5995 93.1666 74.7123 93.2012 74.8503C93.2359 74.9883 93.3086 75.1012 93.3627 75.1012C93.4169 75.1012 93.4612 75.2366 93.4612 75.4022C93.4612 75.6028 93.5114 75.7032 93.6118 75.7032C93.6946 75.7032 93.7624 75.7709 93.7624 75.8537C93.7624 75.9364 93.8067 76.0042 93.8609 76.0042C93.915 76.0042 93.9877 76.1171 94.0224 76.255C94.0799 76.4838 94.133 76.5059 94.6267 76.5059H95.1681V75.8118C95.1681 75.3459 95.1269 75.1042 95.0426 75.0761C94.9437 75.0432 94.9171 73.4635 94.9171 67.6261C94.9171 61.7888 94.9437 60.2091 95.0426 60.1762C95.1145 60.1522 95.1681 59.9666 95.1681 59.7414C95.1681 59.459 95.2105 59.3484 95.3187 59.3484C95.4016 59.3484 95.4693 59.3038 95.4693 59.2492C95.4693 59.1947 95.5472 59.0593 95.6423 58.9482C95.8567 58.6979 96.5738 58.6584 96.5738 58.8969C96.5738 58.9797 96.6416 59.0474 96.7244 59.0474C96.8073 59.0474 96.8751 59.0958 96.8751 59.1549C96.8751 59.2141 96.9428 59.3302 97.0257 59.413C97.1085 59.4957 97.1763 59.6505 97.1763 59.7569C97.1763 59.8634 97.2441 59.9505 97.3269 59.9505C97.4206 59.9505 97.4775 60.0452 97.4775 60.2013C97.4775 60.3392 97.5191 60.4521 97.57 60.4521C97.6208 60.4521 97.6922 60.5876 97.7285 60.7531C97.7649 60.9187 97.8363 61.0541 97.8871 61.0541C97.938 61.0541 97.9795 61.1622 97.9795 61.2942C97.9795 61.4263 98.0473 61.5603 98.1302 61.5921C98.213 61.6239 98.2808 61.7641 98.2808 61.9039C98.2808 62.0627 98.3372 62.1578 98.4314 62.1578C98.5318 62.1578 98.582 62.2582 98.582 62.4588C98.582 62.6244 98.6263 62.7598 98.6805 62.7598C98.7346 62.7598 98.8073 62.8727 98.8419 63.0107C98.8766 63.1487 98.9417 63.2615 98.9865 63.2615C99.0314 63.2615 99.0979 63.397 99.1342 63.5625C99.1706 63.7281 99.242 63.8635 99.2928 63.8635C99.3437 63.8635 99.3853 63.999 99.3853 64.1646C99.3853 64.3652 99.4355 64.4656 99.5359 64.4656C99.6446 64.4656 99.6865 64.577 99.6865 64.8669C99.6865 65.1568 99.7284 65.2682 99.8371 65.2682C99.929 65.2682 99.9877 65.3619 99.9877 65.5084C99.9877 65.6404 100.055 65.7744 100.138 65.8062C100.221 65.838 100.289 65.9782 100.289 66.118C100.289 66.2577 100.331 66.3719 100.381 66.3719C100.432 66.3719 100.504 66.5074 100.54 66.6729C100.576 66.8385 100.643 66.974 100.688 66.974C100.733 66.974 100.798 67.0868 100.832 67.2248C100.867 67.3628 100.94 67.4756 100.994 67.4756C101.048 67.4756 101.092 67.6111 101.092 67.7766C101.092 67.9773 101.142 68.0776 101.243 68.0776C101.343 68.0776 101.393 68.178 101.393 68.3787C101.393 68.5863 101.443 68.6797 101.552 68.6797C101.694 68.6797 101.708 68.9771 101.678 71.4557C101.652 73.5632 101.614 74.2418 101.519 74.2735C101.45 74.2964 101.393 74.4469 101.393 74.6078C101.393 74.801 101.342 74.9005 101.243 74.9005C101.16 74.9005 101.092 74.9488 101.092 75.0079C101.092 75.1885 100.846 75.3741 100.509 75.4481C100.333 75.4867 100.189 75.56 100.189 75.6108C100.189 75.6616 100.076 75.7032 99.9375 75.7032C99.7813 75.7032 99.6865 75.7601 99.6865 75.8537C99.6865 75.9843 100.11 76.0042 102.9 76.0042C105.689 76.0042 106.113 75.9843 106.113 75.8537C106.113 75.7494 106.008 75.7032 105.772 75.7032C105.562 75.7032 105.409 75.6456 105.373 75.5527C105.342 75.4699 105.224 75.4022 105.112 75.4022C104.874 75.4022 104.555 75.1125 104.459 74.8101C104.422 74.6942 104.35 74.5995 104.299 74.5995C104.242 74.5995 104.205 73.2311 104.205 71.1881C104.205 69.0248 104.241 67.7766 104.303 67.7766C104.357 67.7766 104.43 67.6638 104.465 67.5258C104.499 67.3878 104.565 67.275 104.609 67.275C104.654 67.275 104.721 67.1395 104.757 66.974C104.793 66.8084 104.865 66.6729 104.916 66.6729C104.967 66.6729 105.008 66.5587 105.008 66.419C105.008 66.2792 105.076 66.139 105.159 66.1073C105.242 66.0754 105.309 65.9414 105.309 65.8094C105.309 65.6629 105.368 65.5693 105.46 65.5693C105.56 65.5693 105.611 65.4689 105.611 65.2682C105.611 65.0676 105.661 64.9672 105.761 64.9672C105.862 64.9672 105.912 64.8669 105.912 64.6662C105.912 64.5007 105.956 64.3652 106.01 64.3652C106.064 64.3652 106.137 64.2523 106.172 64.1144C106.206 63.9764 106.275 63.8635 106.324 63.8635C106.374 63.8635 106.414 63.7281 106.414 63.5625C106.414 63.3619 106.464 63.2615 106.564 63.2615C106.659 63.2615 106.715 63.1664 106.715 63.0076C106.715 62.8678 106.783 62.7275 106.866 62.6958C106.949 62.664 107.016 62.5494 107.016 62.441C107.016 62.3325 107.084 62.1761 107.167 62.0933C107.25 62.0105 107.318 61.8106 107.318 61.649C107.318 61.4874 107.358 61.3551 107.407 61.3551C107.456 61.3551 107.527 61.2332 107.565 61.0843C107.602 60.9353 107.742 60.7117 107.877 60.5874C108.011 60.4631 108.121 60.2689 108.121 60.1559C108.121 60.0401 108.187 59.9505 108.271 59.9505C108.354 59.9505 108.422 59.865 108.422 59.7605C108.422 59.6561 108.49 59.5446 108.573 59.5128C108.655 59.4811 108.723 59.3868 108.723 59.3033C108.723 59.2199 108.833 59.1241 108.967 59.0905C109.101 59.0569 109.235 58.9657 109.265 58.8879C109.299 58.7985 109.468 58.7464 109.724 58.7464C110.089 58.7464 110.129 58.7216 110.129 58.4956V58.2447H105.611V58.4956C105.611 58.7235 105.649 58.7465 106.037 58.7479C106.536 58.7497 106.663 58.8155 106.759 59.1227C106.797 59.2468 106.871 59.3484 106.923 59.3484C107.05 59.3484 107.042 59.6242 106.913 59.667C106.857 59.6858 106.782 59.881 106.746 60.1009C106.71 60.3207 106.621 60.5606 106.547 60.634C106.474 60.7074 106.414 60.8772 106.414 61.0111C106.414 61.1451 106.369 61.2548 106.313 61.2548C106.258 61.2548 106.213 61.3419 106.213 61.4484C106.213 61.5547 106.145 61.7095 106.062 61.7923C105.98 61.8751 105.912 62.0138 105.912 62.1005C105.912 62.1872 105.844 62.2582 105.761 62.2582C105.657 62.2582 105.611 62.3629 105.611 62.5986C105.611 62.8087 105.553 62.9611 105.46 62.9968C105.377 63.0286 105.309 63.1688 105.309 63.3086C105.309 63.4483 105.268 63.5625 105.217 63.5625C105.166 63.5625 105.095 63.698 105.058 63.8635C105.022 64.0291 104.954 64.1646 104.908 64.1646C104.861 64.1646 104.793 64.3 104.757 64.4656C104.721 64.6311 104.649 64.7666 104.599 64.7666C104.548 64.7666 104.506 64.8794 104.506 65.0174C104.506 65.1735 104.449 65.2682 104.355 65.2682C104.255 65.2682 104.205 65.3686 104.205 65.5693C104.205 65.7699 104.155 65.8703 104.054 65.8703C103.946 65.8703 103.904 65.9804 103.904 66.2599C103.904 66.5652 103.86 66.6609 103.703 66.702C103.314 66.8035 103.126 66.675 103.06 66.2629C103.026 66.047 102.953 65.8703 102.898 65.8703C102.844 65.8703 102.799 65.756 102.799 65.6163C102.799 65.4765 102.731 65.3363 102.649 65.3046C102.566 65.2728 102.498 65.1435 102.498 65.0174C102.498 64.8913 102.43 64.7621 102.347 64.7302C102.264 64.6985 102.197 64.5583 102.197 64.4185C102.197 64.2788 102.155 64.1646 102.104 64.1646C102.053 64.1646 101.982 64.0291 101.946 63.8635C101.909 63.698 101.838 63.5625 101.788 63.5625C101.738 63.5625 101.668 63.3819 101.633 63.1612C101.597 62.9405 101.529 62.7598 101.481 62.7598C101.433 62.7598 101.393 62.6456 101.393 62.5059C101.393 62.3661 101.326 62.2259 101.243 62.1942C101.16 62.1624 101.092 62.0331 101.092 61.907C101.092 61.7809 101.024 61.6516 100.942 61.6198C100.859 61.5881 100.791 61.4672 100.791 61.3511C100.791 61.2351 100.723 61.0724 100.64 60.9896C100.558 60.9068 100.49 60.7107 100.49 60.5537C100.49 60.3966 100.439 60.2513 100.377 60.2305C100.314 60.2097 100.241 59.9585 100.213 59.672C100.173 59.253 100.195 59.1389 100.326 59.0886C100.416 59.0541 100.49 58.963 100.49 58.8862C100.49 58.7875 100.622 58.7464 100.942 58.7464C101.357 58.7464 101.393 58.726 101.393 58.4956V58.2447H96.5631C92.1997 58.2447 91.7387 58.2601 91.7937 58.4035C91.8272 58.4908 91.8546 58.6036 91.8546 58.6543C91.8546 58.705 92.0999 58.7464 92.3998 58.7464C92.7504 58.7464 92.9985 58.8001 93.0954 58.8969C93.1782 58.9797 93.2944 59.0474 93.3536 59.0474C93.4128 59.0474 93.4612 59.1829 93.4612 59.3484C93.4612 59.5491 93.5114 59.6494 93.6118 59.6494C93.7437 59.6494 93.7624 60.296 93.7624 64.8669V70.0844H93.4612C93.2104 70.0844 93.16 70.0441 93.16 69.8443C93.16 69.7122 93.0922 69.5782 93.0093 69.5464C92.9265 69.5147 92.8587 69.4195 92.8587 69.335C92.8587 69.2505 92.8135 69.1813 92.7583 69.1813C92.7031 69.1813 92.6579 69.0685 92.6579 68.9305C92.6579 68.7744 92.601 68.6797 92.5073 68.6797C92.4154 68.6797 92.3567 68.586 92.3567 68.4396C92.3567 68.3075 92.2889 68.1735 92.2061 68.1417C92.1232 68.11 92.0555 68.0148 92.0555 67.9303C92.0555 67.8458 92.0112 67.7766 91.957 67.7766C91.9028 67.7766 91.8309 67.6671 91.7973 67.533C91.7637 67.3991 91.6724 67.265 91.5946 67.2352C91.5167 67.2053 91.453 67.0667 91.453 66.9269C91.453 66.7681 91.3966 66.6729 91.3024 66.6729C91.2196 66.6729 91.1518 66.6052 91.1518 66.5224C91.1518 66.4397 91.1066 66.3719 91.0514 66.3719C90.9962 66.3719 90.951 66.2591 90.951 66.1211C90.951 65.965 90.894 65.8703 90.8004 65.8703C90.7085 65.8703 90.6497 65.7766 90.6497 65.6302C90.6497 65.4981 90.582 65.3641 90.4991 65.3323C90.4163 65.3006 90.3485 65.2054 90.3485 65.1209C90.3485 65.0364 90.3042 64.9672 90.25 64.9672C90.1959 64.9672 90.1232 64.8544 90.0886 64.7164C90.0539 64.5784 89.9889 64.4656 89.944 64.4656C89.8991 64.4656 89.8326 64.3301 89.7963 64.1646C89.7599 63.999 89.6885 63.8635 89.6377 63.8635C89.5868 63.8635 89.5453 63.7958 89.5453 63.713C89.5453 63.6303 89.4775 63.5625 89.3946 63.5625C89.301 63.5625 89.244 63.4678 89.244 63.3117C89.244 63.1556 89.1871 63.0609 89.0934 63.0609C88.993 63.0609 88.9428 62.9605 88.9428 62.7598C88.9428 62.5592 88.8926 62.4588 88.7922 62.4588C88.7094 62.4588 88.6416 62.3911 88.6416 62.3083C88.6416 62.2256 88.6013 62.1578 88.552 62.1578C88.5028 62.1578 88.4341 62.045 88.3995 61.907C88.3649 61.769 88.2958 61.6562 88.246 61.6562C88.1963 61.6562 88.1257 61.5207 88.0893 61.3551C88.053 61.1896 87.9816 61.0541 87.9308 61.0541C87.8799 61.0541 87.8383 61.0058 87.8383 60.9467C87.8383 60.8875 87.7705 60.7714 87.6877 60.6886C87.6049 60.6058 87.5371 60.451 87.5371 60.3447C87.5371 60.2382 87.4693 60.1511 87.3865 60.1511C87.2928 60.1511 87.2359 60.0564 87.2359 59.9003C87.2359 59.7442 87.1789 59.6494 87.0853 59.6494C87.0024 59.6494 86.9346 59.5817 86.9346 59.4989C86.9346 59.4162 86.8944 59.3484 86.8451 59.3484C86.7959 59.3484 86.7272 59.2356 86.6926 59.0976C86.6579 58.9596 86.5852 58.8468 86.5311 58.8468C86.4769 58.8468 86.4326 58.7113 86.4326 58.5457V58.2447H81.9142V58.4956C81.9142 58.7328 81.9444 58.7464 82.4665 58.7464C82.8904 58.7464 83.0187 58.7813 83.0187 58.8969C83.0187 58.9797 83.0865 59.0474 83.1693 59.0474C83.2522 59.0474 83.3199 59.1152 83.3199 59.1979C83.3199 59.2807 83.3877 59.3484 83.4706 59.3484C83.5534 59.3484 83.6212 59.4162 83.6212 59.4989C83.6212 59.5817 83.6889 59.6494 83.7718 59.6494C83.8637 59.6494 83.9224 59.7431 83.9224 59.8895C83.9224 60.0216 83.9911 60.1559 84.075 60.1881C84.2099 60.2399 84.2244 61.0754 84.2005 67.3896C84.1792 72.9955 84.1464 74.5416 84.0479 74.5744C83.9789 74.5974 83.9224 74.7253 83.9224 74.8586C83.9224 75.0073 83.8642 75.1012 83.7718 75.1012C83.6889 75.1012 83.6212 75.1653 83.6212 75.2437C83.6212 75.3221 83.4856 75.416 83.3199 75.4523C83.1543 75.4886 83.0187 75.56 83.0187 75.6108C83.0187 75.8094 82.7829 75.684 82.3581 75.2596C82.1139 75.0156 81.9142 74.7721 81.9142 74.7185C81.9142 74.6648 81.8465 74.595 81.7636 74.5631C81.6808 74.5314 81.613 74.3949 81.613 74.2598C81.613 74.1247 81.5667 73.9988 81.5102 73.9799C81.4537 73.9611 81.3783 73.7659 81.3425 73.546C81.3069 73.3262 81.2175 73.0863 81.1441 73.0129C81.0706 72.9395 81.0106 72.7472 81.0106 72.5856C81.0106 72.424 80.9711 72.2917 80.9229 72.2917C80.8747 72.2917 80.8127 72.0567 80.785 71.7692C80.7574 71.4818 80.6839 71.2298 80.6217 71.209C80.5594 71.1883 80.5085 70.9945 80.5085 70.7784C80.5085 70.4959 80.4661 70.3854 80.3579 70.3854C80.2464 70.3854 80.2073 70.2683 80.2073 69.9339C80.2073 69.5994 80.1682 69.4823 80.0567 69.4823C79.941 69.4823 79.9061 69.3541 79.9061 68.9305C79.9061 68.5069 79.8711 68.3787 79.7555 68.3787C79.6472 68.3787 79.6048 68.2681 79.6048 67.9856C79.6048 67.7695 79.5568 67.5767 79.4979 67.5571C79.4392 67.5375 79.3655 67.3305 79.3341 67.0972C79.3028 66.8639 79.238 66.6729 79.19 66.6729C79.1421 66.6729 79.1028 66.4923 79.1028 66.2716C79.1028 65.9817 79.0609 65.8703 78.9522 65.8703C78.8406 65.8703 78.8016 65.7532 78.8016 65.4188C78.8016 65.0843 78.7625 64.9672 78.651 64.9672C78.5353 64.9672 78.5004 64.839 78.5004 64.4154C78.5004 63.9918 78.4654 63.8635 78.3497 63.8635C78.2493 63.8635 78.1991 63.7632 78.1991 63.5625C78.1991 63.397 78.1598 63.2615 78.1116 63.2615C78.0634 63.2615 77.9951 63.0809 77.9598 62.8602C77.9244 62.6395 77.8509 62.4588 77.7963 62.4588C77.7418 62.4588 77.6971 62.2768 77.6971 62.0544C77.6971 61.7874 77.6459 61.6303 77.5465 61.5921C77.4491 61.5547 77.3959 61.3993 77.3959 61.1521C77.3959 60.9419 77.345 60.7529 77.2827 60.7322C77.2205 60.7114 77.1469 60.4594 77.1193 60.172C77.0855 59.8203 77.0241 59.6494 76.9313 59.6494C76.8374 59.6494 76.7934 59.5214 76.7934 59.2481C76.7934 59.0274 76.7482 58.8468 76.693 58.8468C76.6378 58.8468 76.5926 58.7113 76.5926 58.5457V58.2447H72.8775V58.4956ZM62.435 68.3787H63.4391C63.9914 68.3787 64.4432 68.3367 64.4432 68.2855C64.4432 68.2344 64.6917 68.1614 64.9954 68.1235C65.2992 68.0856 65.5477 68.0195 65.5477 67.9766C65.5477 67.9338 65.6607 67.8703 65.7987 67.8357C65.9368 67.8011 66.0497 67.7285 66.0497 67.6744C66.0497 67.6202 66.1075 67.576 66.1781 67.576C66.322 67.576 66.6522 67.2258 66.6522 67.0732C66.6522 67.0186 66.72 66.974 66.8028 66.974C66.8856 66.974 66.9534 66.9062 66.9534 66.8235C66.9534 66.7407 67.0212 66.6729 67.104 66.6729C67.1959 66.6729 67.2546 66.5793 67.2546 66.4328C67.2546 66.3008 67.3224 66.1668 67.4052 66.1349C67.5039 66.0971 67.5559 65.9407 67.5559 65.6811C67.5559 65.4534 67.6092 65.2672 67.6814 65.2432C67.7749 65.212 67.8069 64.7844 67.8069 63.5625C67.8069 62.3406 67.7749 61.9131 67.6814 61.8819C67.6124 61.8589 67.5559 61.7116 67.5559 61.5546C67.5559 61.3976 67.4881 61.2014 67.4052 61.1187C67.3224 61.0359 67.2546 60.9198 67.2546 60.8606C67.2546 60.8015 67.1869 60.7531 67.104 60.7531C67.0212 60.7531 66.9534 60.7045 66.9534 60.6451C66.9534 60.5052 66.4529 60.0084 66.2254 59.9227C66.1288 59.8862 66.0497 59.8099 66.0497 59.7529C66.0497 59.696 65.8902 59.6494 65.6952 59.6494C65.4726 59.6494 65.3191 59.5934 65.2828 59.4989C65.2352 59.3751 64.9774 59.3484 63.83 59.3484H62.435V68.3787ZM31.7101 61.7451C31.7101 61.794 31.5068 61.8646 31.2583 61.9018C31.0098 61.939 30.8064 62.0118 30.8064 62.0636C30.8064 62.1155 30.6935 62.1578 30.5554 62.1578C30.3992 62.1578 30.3044 62.2147 30.3044 62.3083C30.3044 62.3911 30.2366 62.4588 30.1538 62.4588C30.071 62.4588 30.0032 62.5266 30.0032 62.6093C30.0032 62.703 29.9084 62.7598 29.7522 62.7598C29.5959 62.7598 29.5011 62.8167 29.5011 62.9104C29.5011 62.9931 29.4383 63.0609 29.3614 63.0609C29.2846 63.0609 29.1933 63.1737 29.1586 63.3117C29.124 63.4497 29.0513 63.5625 28.9972 63.5625C28.943 63.5625 28.8987 63.6303 28.8987 63.713C28.8987 63.7958 28.8309 63.8635 28.7481 63.8635C28.6562 63.8635 28.5975 63.9572 28.5975 64.1036C28.5975 64.2357 28.5297 64.3697 28.4469 64.4015C28.364 64.4333 28.2962 64.5698 28.2962 64.7049C28.2962 64.84 28.2481 64.9665 28.1893 64.9861C28.1306 65.0057 28.0569 65.2127 28.0255 65.446C27.9942 65.6793 27.9293 65.8703 27.8814 65.8703C27.8335 65.8703 27.7942 66.3895 27.7942 67.0241C27.7942 67.6587 27.8337 68.178 27.8819 68.178C27.9301 68.178 27.9921 68.4131 28.0197 68.7005C28.0473 68.9879 28.1208 69.2399 28.1831 69.2607C28.2453 69.2815 28.2962 69.4043 28.2962 69.5337C28.2962 69.6632 28.364 69.8367 28.4469 69.9195C28.5297 70.0023 28.5975 70.141 28.5975 70.2277C28.5975 70.3144 28.6417 70.3854 28.696 70.3854C28.7501 70.3854 28.8228 70.4982 28.8574 70.6362C28.8921 70.7742 28.9833 70.887 29.0601 70.887C29.1371 70.887 29.1999 70.9548 29.1999 71.0375C29.1999 71.1203 29.2677 71.1881 29.3505 71.1881C29.4334 71.1881 29.5011 71.2558 29.5011 71.3386C29.5011 71.4213 29.5689 71.4891 29.6518 71.4891C29.7346 71.4891 29.8024 71.5333 29.8024 71.5875C29.8024 71.6416 29.9153 71.7142 30.0534 71.7488C30.1914 71.7834 30.3044 71.8472 30.3044 71.8904C30.3044 71.9337 30.4174 71.9974 30.5554 72.032C30.6935 72.0666 30.8064 72.1392 30.8064 72.1933C30.8064 72.2475 30.9388 72.2917 31.1005 72.2917C31.2622 72.2917 31.4623 72.3595 31.5452 72.4422C31.6661 72.5632 32.0034 72.5928 33.2593 72.5928C34.5821 72.5928 34.8228 72.5696 34.8228 72.4422C34.8228 72.3336 34.9343 72.2917 35.2244 72.2917C35.5145 72.2917 35.626 72.2499 35.626 72.1412C35.626 72.0476 35.7208 71.9907 35.8771 71.9907C36.0151 71.9907 36.1281 71.9456 36.1281 71.8904C36.1281 71.8352 36.1858 71.7901 36.2564 71.7901C36.4004 71.7901 36.7305 71.4399 36.7305 71.2873C36.7305 71.2327 36.7757 71.1881 36.8309 71.1881C36.8862 71.1881 37.0217 71.0978 37.1322 70.9874C37.2426 70.877 37.333 70.7416 37.333 70.6864C37.333 70.6312 37.4008 70.586 37.4836 70.586C37.5664 70.586 37.6342 70.5183 37.6342 70.4355C37.6342 70.3528 37.6785 70.285 37.7327 70.285C37.7868 70.285 37.8595 70.1722 37.8942 70.0342C37.9288 69.8962 37.997 69.7834 38.0456 69.7834C38.0941 69.7834 38.1628 69.6027 38.1981 69.382C38.2334 69.1613 38.2961 68.9807 38.3375 68.9807C38.3788 68.9807 38.434 68.7233 38.4601 68.4088C38.4862 68.0943 38.5596 67.8196 38.6231 67.7984C38.7817 67.7456 38.7797 66.4023 38.621 66.3495C38.5543 66.3273 38.4832 66.0316 38.4569 65.6682C38.4312 65.315 38.3487 64.9645 38.2733 64.8892C38.1979 64.8138 38.1362 64.6651 38.1362 64.5588C38.1362 64.4523 38.092 64.3652 38.0377 64.3652C37.9836 64.3652 37.9109 64.2523 37.8763 64.1144C37.8417 63.9764 37.773 63.8635 37.7238 63.8635C37.6745 63.8635 37.6342 63.7958 37.6342 63.713C37.6342 63.6303 37.5664 63.5625 37.4836 63.5625C37.3899 63.5625 37.333 63.4678 37.333 63.3117C37.333 63.1556 37.2761 63.0609 37.1824 63.0609C37.0995 63.0609 37.0318 62.998 37.0318 62.9212C37.0318 62.8444 36.9188 62.7532 36.7807 62.7186C36.6427 62.684 36.5297 62.6114 36.5297 62.5573C36.5297 62.5031 36.4668 62.4588 36.3898 62.4588C36.3129 62.4588 36.224 62.3911 36.1921 62.3083C36.1604 62.2256 36.02 62.1578 35.8802 62.1578C35.7404 62.1578 35.626 62.1163 35.626 62.0654C35.626 62.0147 35.4905 61.9433 35.3248 61.907C35.1591 61.8707 35.0236 61.7993 35.0236 61.7486C35.0236 61.696 34.3091 61.6562 33.3669 61.6562C32.4557 61.6562 31.7101 61.6962 31.7101 61.7451ZM74.4087 61.9233C74.3322 61.9542 74.2832 62.1665 74.2832 62.4672C74.2832 62.8388 74.2461 62.9605 74.1326 62.9605C74.0233 62.9605 73.982 63.0728 73.982 63.369C73.982 63.5984 73.9159 63.8436 73.8314 63.9281C73.7485 64.0108 73.6808 64.1657 73.6808 64.272C73.6808 64.3785 73.6415 64.4656 73.5936 64.4656C73.5456 64.4656 73.4807 64.6565 73.4494 64.8898C73.4181 65.1232 73.3444 65.3302 73.2856 65.3497C73.2268 65.3693 73.1787 65.5589 73.1787 65.7711C73.1787 65.9833 73.1109 66.2246 73.0281 66.3074C72.9436 66.3919 72.8775 66.6371 72.8775 66.8665C72.8775 67.1627 72.8361 67.275 72.7269 67.275C72.6186 67.275 72.5763 67.3855 72.5763 67.668C72.5763 67.8841 72.5282 68.0769 72.4693 68.0965C72.4106 68.1161 72.3369 68.3231 72.3056 68.5564C72.2742 68.7897 72.2094 68.9807 72.1614 68.9807C72.1135 68.9807 72.0742 69.0926 72.0742 69.2296C72.0742 69.405 72.1418 69.4955 72.3031 69.5359C72.646 69.6219 77.2665 69.5451 77.3597 69.4518C77.404 69.4074 77.3835 69.3361 77.3141 69.2932C77.2448 69.2504 77.1599 69.0384 77.1258 68.822C77.0915 68.6058 77.0219 68.4014 76.9711 68.368C76.9202 68.3346 76.8535 68.1201 76.8228 67.8914C76.7921 67.6628 76.7277 67.4756 76.6798 67.4756C76.6319 67.4756 76.5926 67.295 76.5926 67.0743C76.5926 66.801 76.5486 66.6729 76.4547 66.6729C76.362 66.6729 76.3005 66.5021 76.2667 66.1504C76.2391 65.863 76.1656 65.611 76.1033 65.5902C76.041 65.5695 75.9901 65.4402 75.9901 65.3029C75.9901 65.1656 75.9224 64.9855 75.8395 64.9027C75.7567 64.8199 75.6889 64.5974 75.6889 64.4083C75.6889 64.219 75.6496 64.0642 75.6014 64.0642C75.5532 64.0642 75.4849 63.8836 75.4495 63.6629C75.4142 63.4421 75.3464 63.2615 75.2989 63.2615C75.2514 63.2615 75.1837 63.0809 75.1483 62.8602C75.113 62.6395 75.0395 62.4588 74.9849 62.4588C74.9303 62.4588 74.8857 62.3234 74.8857 62.1578C74.8857 61.8583 74.7434 61.7883 74.4087 61.9233ZM32.8899 62.2297C32.738 62.2527 32.6138 62.3137 32.6138 62.3651C32.6138 62.4167 32.4831 62.4588 32.3233 62.4588C32.1577 62.4588 32.0079 62.5236 31.975 62.6093C31.9433 62.6921 31.8675 62.7598 31.8065 62.7598C31.6649 62.7598 31.4089 63.0137 31.4089 63.1541C31.4089 63.2132 31.3411 63.2615 31.2583 63.2615C31.1754 63.2615 31.1077 63.3293 31.1077 63.412C31.1077 63.4948 31.0399 63.5625 30.9571 63.5625C30.8742 63.5625 30.8064 63.6303 30.8064 63.713C30.8064 63.7958 30.7618 63.8635 30.7072 63.8635C30.6526 63.8635 30.5791 64.0442 30.5438 64.2649C30.5084 64.4856 30.4446 64.6662 30.4018 64.6662C30.3591 64.6662 30.2927 64.9371 30.2542 65.2682C30.2157 65.5993 30.1436 65.8703 30.0937 65.8703C30.0439 65.8703 30.0032 66.4346 30.0032 67.1245C30.0032 67.8289 30.044 68.3787 30.0964 68.3787C30.1476 68.3787 30.2206 68.627 30.2585 68.9305C30.2965 69.234 30.3676 69.4823 30.4164 69.4823C30.4653 69.4823 30.5052 69.5966 30.5052 69.7363C30.5052 69.8761 30.573 70.0163 30.6558 70.048C30.7387 70.0798 30.8064 70.198 30.8064 70.3108C30.8064 70.4845 31.7164 71.4891 31.8738 71.4891C31.9021 71.4891 31.9969 71.5606 32.0843 71.648C32.2148 71.7783 32.4427 71.8009 33.3492 71.7734C34.1195 71.75 34.4675 71.7019 34.4965 71.6145C34.5195 71.5456 34.6023 71.4891 34.6805 71.4891C34.7587 71.4891 34.8228 71.4213 34.8228 71.3386C34.8228 71.2558 34.8715 71.1881 34.9309 71.1881C35.1115 71.1881 35.6115 70.6289 35.682 70.348C35.7184 70.2031 35.7885 70.0844 35.8377 70.0844C35.887 70.0844 35.9273 69.9683 35.9273 69.8264C35.9273 69.6844 35.995 69.5006 36.0779 69.4178C36.1774 69.3184 36.2285 69.0684 36.2285 68.6809C36.2285 68.3396 36.2752 68.0789 36.3401 68.0572C36.4969 68.005 36.5004 65.9441 36.3439 65.8919C36.2804 65.8709 36.2285 65.6573 36.2285 65.4175C36.2285 65.1638 36.1655 64.9187 36.0779 64.8311C35.995 64.7483 35.9273 64.5645 35.9273 64.4225C35.9273 64.2806 35.887 64.1646 35.8377 64.1646C35.7885 64.1646 35.7176 64.0426 35.6802 63.8937C35.6428 63.7448 35.5023 63.5211 35.3681 63.3968C35.2339 63.2725 35.124 63.1235 35.124 63.0657C35.124 63.0078 35.0562 62.9605 34.9734 62.9605C34.8906 62.9605 34.8228 62.9154 34.8228 62.8602C34.8228 62.805 34.755 62.7598 34.6722 62.7598C34.5893 62.7598 34.5216 62.6921 34.5216 62.6093C34.5216 62.5014 34.4112 62.4588 34.1307 62.4588C33.8758 62.4588 33.7197 62.4065 33.6819 62.3083C33.6256 62.1615 33.4532 62.1444 32.8899 62.2297Z" fill="black"/>
</svg>
