<svg width="132" height="88" viewBox="0 0 132 88" fill="none" xmlns="http://www.w3.org/2000/svg">
<path fill-rule="evenodd" clip-rule="evenodd" d="M93.7535 49.3302C88.4301 49.168 83.6175 45.5603 82.168 40.1535C80.7883 35.0071 82.8627 29.7494 86.9714 26.8394C84.7181 24.7078 82.06 23.0339 79.1439 21.9228C75.3538 20.4784 71.2552 20.0333 67.2432 20.6304C63.2304 21.2275 59.4395 22.8466 56.2344 25.3321C53.0304 27.8178 50.5191 31.0859 48.9436 34.8223C48.2627 36.436 49.7923 37.9543 51.4849 37.5014L52.7876 37.1521C53.2853 37.0188 53.8161 37.0886 54.263 37.3463C54.7098 37.604 55.0357 38.0286 55.1699 38.5266C55.3027 39.0249 55.2337 39.5554 54.9757 40.002C54.7178 40.4486 54.2929 40.7744 53.7941 40.9081L49.3006 42.1115C49.1975 42.139 49.0976 42.1717 48.9986 42.2094L38.6456 44.9822C38.5396 44.9993 38.4356 45.0218 38.3327 45.0496L32.2234 46.6861C31.7246 46.8195 31.1937 46.7496 30.7469 46.492C30.3 46.2343 29.9741 45.8094 29.8411 45.3114C29.7072 44.8134 29.7771 44.2826 30.0351 43.836C30.293 43.3894 30.7179 43.0638 31.2157 42.9302L40.57 40.4246C41.7696 40.1034 42.6484 39.0945 42.9163 37.8817C43.8021 33.8585 45.5515 30.0756 48.0427 26.794C50.5342 23.5127 53.7083 20.811 57.3471 18.8758C62.9796 15.8791 69.4567 14.8607 75.7377 15.9838C81.8991 17.0853 87.5215 20.1842 91.7391 24.7964C98.0853 23.5394 104.405 27.4056 106.104 33.7427C107.736 39.8315 104.532 46.077 98.8451 48.4049C98.8451 48.4508 98.841 48.4973 98.8341 48.544C97.8155 54.841 94.7102 60.6132 90.0176 64.9351C85.3239 69.257 79.3149 71.8772 72.9536 72.3769C68.7739 72.7047 64.5741 72.106 60.6531 70.624C56.7325 69.1421 53.1874 66.8128 50.2713 63.8035C49.4304 62.9367 48.1998 62.536 47.0332 62.8484L46.8633 62.8941C46.6163 62.9609 46.3584 62.9782 46.1054 62.9455C45.8515 62.9125 45.6065 62.8297 45.3846 62.7021C45.1627 62.5745 44.9688 62.4046 44.8129 62.2019C44.6569 61.9989 44.5428 61.7674 44.4768 61.5204C44.41 61.2732 44.394 61.0158 44.4268 60.7623C44.4609 60.5087 44.5439 60.2642 44.6718 60.0429C44.8008 59.8215 44.9707 59.6276 45.1748 59.4725C45.3777 59.3171 45.6095 59.2036 45.8565 59.1381C45.8735 59.1337 45.8895 59.1282 45.9054 59.1222L53.3962 57.116C53.4382 57.1067 53.4792 57.0965 53.5202 57.0855L69.4047 52.831C69.6517 52.7642 69.9096 52.7466 70.1623 52.7796C70.4165 52.8126 70.6612 52.8951 70.8831 53.0227C71.1051 53.1503 71.2992 53.3202 71.4551 53.5232C71.6111 53.7258 71.7249 53.9574 71.7909 54.2046C71.858 54.4516 71.874 54.7092 71.841 54.9628C71.8069 55.2163 71.7241 55.4608 71.5959 55.6819C71.4669 55.9033 71.297 56.0972 71.0932 56.2523C70.8903 56.4076 70.6582 56.5212 70.4112 56.5869L58.0659 59.8933C56.3714 60.3467 55.8486 62.448 57.2921 63.4443C60.5643 65.7024 64.3533 67.0994 68.3089 67.5061C72.2647 67.912 76.2586 67.3144 79.9216 65.7675C83.5846 64.2206 86.7985 61.7754 89.2649 58.6577C91.4363 55.9137 92.9667 52.727 93.7535 49.3302ZM64.988 47.3315C66.0255 47.0538 66.6415 45.9876 66.3635 44.9506C66.0858 43.9133 65.019 43.2978 63.9812 43.5756L58.4218 45.0647C57.3842 45.3425 56.7682 46.4086 57.0473 47.4457C57.3251 48.483 58.3907 49.0984 59.4286 48.8204L64.988 47.3315ZM53.7182 48.3471C53.9962 49.3844 53.3802 50.4503 52.3426 50.7283L27.9207 57.2695C26.884 57.5475 25.8173 56.9318 25.5394 55.8948C25.2615 54.8575 25.8773 53.7916 26.914 53.5135L51.3359 46.9724C52.3737 46.6944 53.4402 47.3101 53.7182 48.3471ZM79.3256 43.6163C80.3624 43.3385 80.9784 42.2724 80.7004 41.2353C80.4223 40.198 79.3559 39.5826 78.3191 39.8606L70.8482 41.8612C69.8115 42.1393 69.1957 43.2052 69.4738 44.2425C69.7515 45.2795 70.8182 45.8949 71.855 45.6172L79.3256 43.6163ZM103.087 36.9412C103.087 41.773 99.0811 45.6895 94.1404 45.6895C89.1998 45.6895 85.1941 41.773 85.1941 36.9412C85.1941 32.1097 89.1998 28.1932 94.1404 28.1932C99.0811 28.1932 103.087 32.1097 103.087 36.9412Z" fill="#E1477E"/>
</svg>
