<svg width="132" height="88" viewBox="0 0 132 88" fill="none" xmlns="http://www.w3.org/2000/svg">
<path d="M42.4219 61.3368C39.3663 59.2217 36.9785 56.2776 35.5391 52.8514C34.0988 49.4249 33.668 45.659 34.2968 41.9963C34.9255 38.3333 36.5867 34.926 39.0855 32.1752C41.5843 29.4247 44.8166 27.4447 48.4032 26.469C49.9344 26.0507 51.5616 26.1508 53.0298 26.7541C54.4983 27.3572 55.7256 28.4294 56.5212 29.8033C57.3168 31.1772 57.6358 32.7758 57.4279 34.3497C57.2189 35.9235 56.4962 37.3843 55.3709 38.5044L49.8335 44.0423C49.0736 44.804 48.3672 45.6161 47.7173 46.473C44.403 50.8639 42.7627 56.293 43.0936 61.7845C42.8697 61.6382 42.6458 61.4919 42.4219 61.3368Z" fill="#4F46E5"/>
<path d="M74.5916 47.3245C72.4766 50.382 69.5321 52.7709 66.1048 54.2114C62.6783 55.6515 58.9111 56.0833 55.2478 55.4546C51.5834 54.826 48.1762 53.1647 45.4245 50.6639C42.6737 48.1641 40.6937 44.9307 39.7183 41.3436C39.3025 39.8124 39.4042 38.1863 40.009 36.7186C40.6129 35.2512 41.6854 34.0247 43.0587 33.2297C44.4321 32.4347 46.0301 32.1162 47.6034 32.3233C49.1766 32.5306 50.638 33.252 51.7586 34.3756L57.2968 39.9133C58.0556 40.6761 58.8671 41.3832 59.7278 42.0289C64.1157 45.3454 69.544 46.9857 75.0343 46.653C74.8924 46.8768 74.7426 47.1056 74.5916 47.3245Z" fill="#4F46E5"/>
<path d="M57.4536 40.6793C59.5686 37.6236 62.5122 35.2356 65.9385 33.7962C69.365 32.3569 73.1311 31.926 76.7944 32.5543C80.4565 33.1826 83.8641 34.844 86.6146 37.3429C89.3654 39.8419 91.3454 43.0745 92.3211 46.6605C92.7328 48.1904 92.6269 49.8131 92.0211 51.277C91.4164 52.7411 90.345 53.9643 88.9736 54.7571C87.6021 55.5502 86.0071 55.8684 84.4369 55.6627C82.8655 55.457 81.4072 54.7387 80.2858 53.6194L74.7484 48.0815C72.4364 45.7673 69.6598 43.9702 66.6023 42.8086C63.5446 41.6467 60.2751 41.1468 57.0098 41.3417C57.1517 41.1224 57.3026 40.8985 57.4536 40.6793Z" fill="#4F46E5"/>
<path d="M89.5718 26.6664C92.6296 28.7801 95.0193 31.7237 96.4597 35.1499C97.901 38.5764 98.3328 42.3431 97.7049 46.0067C97.0774 49.6702 95.415 53.0783 92.9164 55.8291C90.4155 58.5799 87.1821 60.5596 83.5958 61.5342C82.0665 61.9426 80.4451 61.8345 78.9838 61.2282C77.5216 60.6213 76.3 59.5504 75.5094 58.1795C74.718 56.8092 74.4001 55.2159 74.606 53.6467C74.8109 52.0773 75.5287 50.6195 76.646 49.4991L82.1834 43.9568C84.5044 41.649 86.3054 38.8737 87.4689 35.8149C88.6313 32.7563 89.1291 29.4847 88.9272 26.2188C89.1291 26.3648 89.3529 26.5111 89.5718 26.6664Z" fill="#4F46E5"/>
</svg>
