<svg width="132" height="88" viewBox="0 0 132 88" fill="none" xmlns="http://www.w3.org/2000/svg">
<path d="M82.171 77.3551C77.6655 77.9119 80.338 74.5778 83.1987 69.7824C85.7879 65.4437 87.2511 61.1772 87.1889 56.8533C87.144 53.7032 86.289 50.5248 84.4696 47.2689C80.8652 40.8215 74.8361 38.4802 74.8361 24.6832C81.9551 24.8944 87.1866 24.9672 88.6208 16.5407L65.1659 11.6428C63.0868 8.44843 59.9451 6.83318 56.2726 6.35156C56.4288 8.4786 57.1778 10.1962 57.9671 12.0043C54.9094 12.4463 52.5995 13.2297 51.3795 14.1639C53.797 18.5168 60.0853 18.3949 60.0853 18.3949C64.2329 32.7251 58.2742 38.8909 54.3929 45.3211C50.489 51.7868 51.4369 55.6256 47.5331 55.6256C42.9056 55.6256 43.2175 48.4984 45.2699 44.3295C47.2432 40.3191 50.5949 37.8525 50.1926 32.9635C50.0015 30.6312 47.949 27.9569 45.4664 28.5213C48.7454 38.2016 40.6366 36.4218 37.5682 46.6103C35.6429 53.0068 38.0309 63.6468 47.0396 67.6376C53.532 70.5143 57.3766 70.3486 58.0724 75.0387C58.3742 77.0753 57.7594 77.5947 55.7277 77.3468C40.6348 75.5008 43.082 81.6488 43.082 81.6488H65.6931C65.6931 81.6488 65.3304 80.0052 65.3304 76.6493C68.1473 77.2119 70.4471 77.2374 72.6446 76.6493C72.6446 80.1868 72.2819 81.6488 72.2819 81.6488H94.8936C94.8936 81.6488 97.4464 75.4801 82.171 77.3551ZM77.5424 67.4938C75.3911 66.5329 72.3576 65.9306 68.9857 65.9306C65.6073 65.9306 62.5685 66.5347 60.4166 67.4991C59.9261 67.0708 59.4658 66.6081 59.0439 66.1117C58.4227 65.381 57.5109 64.9609 56.5518 64.9632C51.7877 64.9751 46.8976 62.7421 45.3457 58.6892C48.2602 60.395 51.7309 60.5121 54.4378 58.8815C55.3182 58.3514 55.9004 57.4325 56.001 56.4089C56.0685 55.7279 56.1939 55.0315 56.3939 54.2848C58.1843 55.5664 59.9811 56.2409 62.1727 56.7556C63.2684 57.013 64.4145 56.6071 65.1032 55.7173C65.5901 55.0889 65.9025 54.3174 65.9493 53.5222C64.0009 52.0383 62.333 50.9981 61.0231 49.9041C60.632 49.5775 60.4107 49.0906 60.4219 48.5812C60.4332 48.0718 60.6758 47.5955 61.0805 47.286C63.2738 45.6098 66.012 44.6117 68.9857 44.6117C73.3203 44.6117 77.1572 46.7251 79.5298 49.9763C79.8327 50.3905 79.9458 50.9123 79.8434 51.4153C79.741 51.9176 79.4328 52.3548 78.9926 52.6175C77.4608 53.5305 75.5443 54.276 73.2244 55.4546C73.1274 56.245 73.296 57.0598 73.6611 57.7656C74.1788 58.7644 75.2331 59.3702 76.3567 59.314C78.4281 59.2111 80.1931 58.9105 82.0142 58.133C81.8811 61.87 80.1724 65.197 77.5424 67.4938Z" fill="#00C5E8"/>
</svg>
