<svg width="132" height="88" viewBox="0 0 132 88" fill="none" xmlns="http://www.w3.org/2000/svg">
<mask id="mask0_2056_26187" style="mask-type:luminance" maskUnits="userSpaceOnUse" x="30" y="20" width="72" height="48">
<path d="M30.0176 20.0117H101.983V67.9889H30.0176V20.0117Z" fill="white"/>
</mask>
<g mask="url(#mask0_2056_26187)">
<path d="M77.9947 67.9889C64.7457 67.9889 54.0059 57.2488 54.0059 44.0004C54.0059 30.7517 64.7457 20.0117 77.9947 20.0117C91.2433 20.0117 101.983 30.7517 101.983 44.0004C101.983 57.2488 91.2433 67.9889 77.9947 67.9889Z" fill="#B8D2FF"/>
<path d="M77.9958 67.9905C64.8679 67.9905 54.1621 57.3544 54.1621 44.2344H101.984C101.984 57.3552 91.2794 67.9905 77.9958 67.9905Z" fill="#005DFF"/>
<path d="M54.0062 44.0004C54.0062 57.2485 43.3513 67.9889 30.0176 67.9889V20.0117C43.3513 20.0117 54.0062 30.7514 54.0062 44.0004Z" fill="#FF6A00"/>
</g>
</svg>
