<svg width="132" height="88" viewBox="0 0 132 88" fill="none" xmlns="http://www.w3.org/2000/svg">
<mask id="mask0_2056_23056" style="mask-type:alpha" maskUnits="userSpaceOnUse" x="32" y="10" width="68" height="68">
<path d="M99.9622 44.0018C99.9622 62.6143 84.7568 77.7027 65.9997 77.7027C47.2427 77.7027 32.0371 62.6143 32.0371 44.0018C32.0371 25.3892 47.2427 10.3008 65.9997 10.3008C84.7568 10.3008 99.9622 25.3892 99.9622 44.0018Z" fill="#1ABCFE"/>
</mask>
<g mask="url(#mask0_2056_23056)">
<path d="M99.9603 44.0018C99.9603 62.6143 84.7548 77.7027 65.9978 77.7027C47.2408 77.7027 32.0352 62.6143 32.0352 44.0018C32.0352 25.3892 47.2408 10.3008 65.9978 10.3008C84.7548 10.3008 99.9603 25.3892 99.9603 44.0018Z" fill="#A259FF"/>
<path d="M50.9961 41.3047H81.0452L66.1393 57.4708L50.9961 41.3047Z" fill="white"/>
<path d="M101.433 19.0547L123.896 39.4153L72.7305 94.9975L50.2676 74.637L101.433 19.0547Z" fill="#1ABCFE"/>
<path d="M30.9708 19.3438L8.50781 39.7043L73.5897 110.404L96.0526 90.0437L30.9708 19.3438Z" fill="#6D00FF"/>
<path d="M86.665 79.8542L72.7228 94.9999L50.2598 74.6393L66.0622 57.4727L86.665 79.8542Z" fill="#0ACF83"/>
</g>
</svg>
