<svg width="132" height="88" viewBox="0 0 132 88" fill="none" xmlns="http://www.w3.org/2000/svg">
<path d="M36.3008 57.8606V30.1365C36.3008 28.3537 37.65 26.0077 39.1885 25.1164L63.1136 11.2544C64.6046 10.3896 67.3048 10.337 68.8888 11.2544L76.0482 15.4028C75.386 15.5662 74.6971 15.832 74.1457 16.1513L50.2227 30.0133C47.2637 31.7268 46.0432 35.3563 46.0432 37.2774V51.1396C46.0432 53.6196 47.7196 56.5338 49.8599 57.7735C49.8638 57.7759 49.8687 57.7779 49.8729 57.7803C49.8797 57.7842 49.8855 57.7891 49.8927 57.793C52.014 59.0211 55.3368 59.0222 57.4593 57.7924L69.454 50.8421C71.7975 49.4844 73.6334 46.2939 73.6334 43.578V33.7239L75.8012 32.468C77.1427 31.6903 79.4939 31.6889 80.8412 32.4636C82.1606 33.244 83.3373 35.2543 83.3423 36.7849V50.7236C83.3481 52.5047 82.0259 54.8486 80.4883 55.7393L56.5642 69.6007C55.0255 70.493 52.3184 70.487 50.7886 69.6018L39.1885 62.8805C37.65 61.9889 36.3008 59.6432 36.3008 57.8606ZM95.7008 57.8606C95.7008 59.6432 94.3516 61.9889 92.813 62.8805L68.8888 76.7427C67.3505 77.6342 64.6511 77.6331 63.1136 76.7427L55.9534 72.5943C57.046 72.3245 57.7684 71.8958 57.8558 71.846L81.7789 57.9836C84.7379 56.27 85.9584 52.6403 85.9584 50.7194V36.8572C85.9584 34.3773 84.282 31.4631 82.1416 30.2234C82.1367 30.2201 82.1309 30.2171 82.1249 30.2141C82.1199 30.211 82.115 30.2069 82.1089 30.2039C79.9876 28.9755 76.6647 28.9752 74.5423 30.2044L62.5476 37.1548C60.2041 38.5122 58.3682 41.7033 58.3682 44.4189V54.273L56.2003 55.5289C54.8581 56.3066 52.5065 56.3077 51.1604 55.5333C49.841 54.7529 48.6642 52.7426 48.6593 51.2122V37.2733C48.6543 35.4921 49.9768 33.1483 51.5132 32.2573L75.4374 18.3959C76.9799 17.5022 79.6873 17.5114 81.213 18.3952L92.813 25.1164C94.3516 26.0077 95.7008 28.3537 95.7008 30.1365V57.8606Z" fill="url(#paint0_linear_2056_25955)"/>
<defs>
<linearGradient id="paint0_linear_2056_25955" x1="53.5348" y1="10.5859" x2="79.3512" y2="65.3434" gradientUnits="userSpaceOnUse">
<stop stop-color="#DA622C"/>
<stop offset="1" stop-color="#EC964E"/>
</linearGradient>
</defs>
</svg>
