<svg width="132" height="88" viewBox="0 0 132 88" fill="none" xmlns="http://www.w3.org/2000/svg">
<path fill-rule="evenodd" clip-rule="evenodd" d="M96.4055 31.6274C96.4055 31.6274 91.9745 39.9066 81.3166 36.5249C81.3166 36.5249 79.6344 33.9251 82.416 32.4365C85.1979 30.9479 96.4055 31.6274 96.4055 31.6274Z" fill="#C45444"/>
<path fill-rule="evenodd" clip-rule="evenodd" d="M83.7089 25.8731C85.0133 27.5756 90.2427 27.5756 95.2053 26.3571C100.168 25.1388 98.8117 29.2446 95.6522 32.2652C92.4927 35.2861 84.0068 35.3028 82.5014 33.1831C80.9961 31.0637 82.4046 24.1708 83.7089 25.8731Z" fill="#F57163"/>
<path fill-rule="evenodd" clip-rule="evenodd" d="M34.243 37.7052C35.6403 36.0316 37.4805 34.2086 44.3842 41.9642C51.2889 49.72 60.1887 43.2569 62.8545 41.1026C64.3497 39.8871 64.1998 37.5892 62.4046 34.2086C61.5059 31.7669 61.0563 29.8556 61.0563 28.4746C61.0563 21.5144 66.5976 16.0117 73.4233 16.0117C80.2491 16.0117 85.7906 21.5144 85.7906 28.4746C85.7906 30.872 84.5182 33.9102 81.9714 37.5892C81.9714 37.5892 79.4706 40.2905 80.0074 41.9642C80.787 44.4004 89.0249 48.9409 85.7747 60.3259C82.5242 71.7112 60.8773 75.5406 46.4132 68.299C31.9661 61.0734 32.8457 39.3957 34.243 37.7052Z" fill="#FFCF51"/>
<path d="M79.5934 28.7354C77.7135 28.7257 76.1989 27.0558 76.2094 25.0054C76.22 22.955 77.7517 21.3008 79.6316 21.3105C81.5115 21.3202 83.0261 22.9901 83.0156 25.0404C83.005 27.0908 81.4733 28.7451 79.5934 28.7354Z" fill="#EFF3F5"/>
<path d="M80.5414 27.4969C79.1741 27.4969 78.0664 26.3889 78.0664 25.0219C78.0664 23.6548 79.1741 22.5469 80.5414 22.5469C81.9087 22.5469 83.0164 23.6548 83.0164 25.0219C83.0164 26.3889 81.9087 27.4969 80.5414 27.4969Z" fill="url(#paint0_linear_2056_25672)"/>
<path d="M81.7785 26.2602C81.0954 26.2602 80.541 25.706 80.541 25.0227C80.541 24.3393 81.0954 23.7852 81.7785 23.7852C82.4616 23.7852 83.016 24.3393 83.016 25.0227C83.016 25.706 82.4616 26.2602 81.7785 26.2602Z" fill="#404F59"/>
<defs>
<linearGradient id="paint0_linear_2056_25672" x1="80.5414" y1="22.5469" x2="80.5414" y2="27.4969" gradientUnits="userSpaceOnUse">
<stop stop-color="#60E0FC"/>
<stop offset="1" stop-color="#32BDF7"/>
</linearGradient>
</defs>
</svg>
