<svg width="132" height="88" viewBox="0 0 132 88" fill="none" xmlns="http://www.w3.org/2000/svg">
<path d="M42.4005 14.2276C42.4005 11.9596 44.2387 10.1211 46.5066 10.1211H85.517C87.7849 10.1211 89.6241 11.9596 89.6241 14.2276C89.6241 16.4954 87.7849 18.3339 85.517 18.3339H46.5066C44.2387 18.3339 42.4005 16.4954 42.4005 14.2276Z" fill="#4544AB"/>
<path d="M51.3463 22.4401C45.2724 22.4401 40.3477 27.3648 40.3477 33.4396V66.8776C40.3477 72.9518 45.2724 77.8765 51.3463 77.8765H80.6787C86.5067 77.8765 91.2766 73.3437 91.6534 67.6102H68.6524C66.6273 67.6102 64.9861 65.969 64.9861 63.9439V36.3724C64.9861 34.3476 66.6273 32.7064 68.6524 32.7064H91.6534C91.2766 26.9735 86.5067 22.4401 80.6787 22.4401H51.3463Z" fill="#FFC434"/>
</svg>
