<svg width="132" height="88" viewBox="0 0 132 88" fill="none" xmlns="http://www.w3.org/2000/svg">
<path d="M52.391 84.8289C59.9036 84.8289 66.0008 78.7318 66.0008 71.2192V57.6094H52.391C44.8784 57.6094 38.7812 63.7066 38.7812 71.2192C38.7812 78.7318 44.8784 84.8289 52.391 84.8289Z" fill="#0ACF83"/>
<path d="M38.7812 44.0004C38.7812 36.4878 44.8784 30.3906 52.391 30.3906H66.0008V57.6102H52.391C44.8784 57.6102 38.7812 51.513 38.7812 44.0004Z" fill="#A259FF"/>
<path d="M38.7812 16.7817C38.7812 9.26906 44.8784 3.17188 52.391 3.17188H66.0008V30.3914H52.391C44.8784 30.3914 38.7812 24.2943 38.7812 16.7817Z" fill="#F24E1E"/>
<path d="M66 3.17188H79.6098C87.1224 3.17188 93.2196 9.26906 93.2196 16.7817C93.2196 24.2943 87.1224 30.3914 79.6098 30.3914H66V3.17188Z" fill="#FF7262"/>
<path d="M93.2196 44.0004C93.2196 51.513 87.1224 57.6102 79.6098 57.6102C72.0972 57.6102 66 51.513 66 44.0004C66 36.4878 72.0972 30.3906 79.6098 30.3906C87.1224 30.3906 93.2196 36.4878 93.2196 44.0004Z" fill="#1ABCFE"/>
</svg>
