<svg width="132" height="88" viewBox="0 0 132 88" fill="none" xmlns="http://www.w3.org/2000/svg">
<path fill-rule="evenodd" clip-rule="evenodd" d="M36.8645 12.0156C35.1683 12.0156 33.793 13.3907 33.793 15.087V72.9137C33.793 74.6099 35.1683 75.9852 36.8645 75.9852C38.5607 75.9852 39.9361 74.6099 39.9361 72.9137V15.087C39.9361 13.3907 38.5607 12.0156 36.8645 12.0156ZM50.799 20.3142C47.2405 20.3142 44.3569 23.1981 44.3569 26.7558C44.3569 30.3132 47.2405 33.1971 50.799 33.1971H91.7666C95.3237 33.1971 98.2074 30.3132 98.2074 26.7558C98.2074 23.1981 95.3237 20.3142 91.7666 20.3142H50.799ZM50.799 37.5765C47.2405 37.5765 44.3569 40.4607 44.3569 44.0181C44.3569 47.5758 47.2405 50.4597 50.799 50.4597H69.0923C72.6494 50.4597 75.5342 47.5758 75.5342 44.0181C75.5342 40.4607 72.6494 37.5765 69.0923 37.5765H50.799ZM44.3569 61.2826C44.3569 57.7252 47.2405 54.8413 50.799 54.8413C54.3561 54.8413 57.2398 57.7252 57.2398 61.2826C57.2398 64.8405 54.3561 67.7242 50.799 67.7242C47.2405 67.7242 44.3569 64.8405 44.3569 61.2826Z" fill="#222222"/>
</svg>
