<svg width="132" height="88" viewBox="0 0 132 88" fill="none" xmlns="http://www.w3.org/2000/svg">
<path d="M68.9502 11.8242L108.076 54.2468L68.4851 76.1742L68.9502 11.8242ZM43.9405 32.3315L62.6109 17.9066L62.6549 11.9722L43.9405 32.3315ZM32.7615 44.4934L23.9258 54.1068L26.3691 55.5132L62.5427 27.5658L62.5867 21.4544L32.7615 44.4934ZM29.0028 57.0279L33.5129 59.6222L62.4695 37.2493L62.5146 31.1383L29.0028 57.0279ZM36.1255 61.1251L40.6356 63.7195L62.4005 46.904L62.4445 40.7927L36.1255 61.1251ZM43.2482 65.2226L47.7584 67.8167L62.3304 56.5585L62.3744 50.4471L43.2482 65.2226ZM50.3258 69.2937L54.8358 71.8878L62.2622 66.1516L62.3062 60.0372L50.3258 69.2937ZM57.4024 73.3648L62.1909 76.1179L62.238 69.6295L57.4024 73.3648Z" fill="black"/>
</svg>
