<svg width="132" height="88" viewBox="0 0 132 88" fill="none" xmlns="http://www.w3.org/2000/svg">
<path d="M85.5882 8.25H46.411C37.3334 8.25 29.9746 15.5527 29.9746 24.5609V63.4391C29.9746 72.4473 37.3334 79.75 46.411 79.75H85.5882C94.6658 79.75 102.025 72.4473 102.025 63.4391V24.5609C102.025 15.5527 94.6658 8.25 85.5882 8.25Z" fill="url(#paint0_linear_2056_24025)"/>
<path d="M57.7969 40.5835L48.0201 30.8708L60.1102 18.8632L72.1959 30.8658L58.3374 44.6378L58.2722 44.5731C59.0463 43.3235 58.8881 41.6659 57.7969 40.5835Z" fill="white"/>
<path d="M85.7008 44.0932L60.0965 69.5222L48.0064 57.5151L73.6107 32.0868L85.7008 44.0932Z" fill="#55E5C5"/>
<defs>
<linearGradient id="paint0_linear_2056_24025" x1="65.9996" y1="8.25" x2="65.9996" y2="79.75" gradientUnits="userSpaceOnUse">
<stop stop-color="#203D51"/>
<stop offset="1" stop-color="#143247"/>
</linearGradient>
</defs>
</svg>
