<svg width="132" height="88" viewBox="0 0 132 88" fill="none" xmlns="http://www.w3.org/2000/svg">
<path d="M76.8826 14.7029C77.1469 14.7029 77.3611 14.4888 77.3611 14.2246C77.3611 13.9604 77.1469 13.7461 76.8826 13.7461C76.6184 13.7461 76.4043 13.9604 76.4043 14.2246C76.4043 14.4888 76.6184 14.7029 76.8826 14.7029Z" fill="white"/>
<path d="M67.2851 27.8592C67.5493 27.8592 67.7635 27.6449 67.7635 27.3807C67.7635 27.1165 67.5493 26.9023 67.2851 26.9023C67.0208 26.9023 66.8066 27.1165 66.8066 27.3807C66.8066 27.6449 67.0208 27.8592 67.2851 27.8592Z" fill="white"/>
<path d="M59.5956 60.9999C59.8598 60.9999 60.074 60.7857 60.074 60.5215C60.074 60.2572 59.8598 60.043 59.5956 60.043C59.3314 60.043 59.1172 60.2572 59.1172 60.5215C59.1172 60.7857 59.3314 60.9999 59.5956 60.9999Z" fill="white"/>
<path d="M75.0781 56.8982C75.3423 56.8982 75.5566 56.6841 75.5566 56.4199C75.5566 56.1557 75.3423 55.9414 75.0781 55.9414C74.8139 55.9414 74.5996 56.1557 74.5996 56.4199C74.5996 56.6841 74.8139 56.8982 75.0781 56.8982Z" fill="white"/>
<path d="M51.0956 43.2889C51.3598 43.2889 51.574 43.0747 51.574 42.8105C51.574 42.5463 51.3598 42.332 51.0956 42.332C50.8314 42.332 50.6172 42.5463 50.6172 42.8105C50.6172 43.0747 50.8314 43.2889 51.0956 43.2889Z" fill="white"/>
<path d="M34.9043 51.2851C35.1685 51.2851 35.3827 51.0708 35.3827 50.8066C35.3827 50.5424 35.1685 50.3281 34.9043 50.3281C34.64 50.3281 34.4258 50.5424 34.4258 50.8066C34.4258 51.0708 34.64 51.2851 34.9043 51.2851Z" fill="white"/>
<path d="M94.8105 32.41C95.0747 32.41 95.289 32.1958 95.289 31.9316C95.289 31.6674 95.0747 31.4531 94.8105 31.4531C94.5463 31.4531 94.332 31.6674 94.332 31.9316C94.332 32.1958 94.5463 32.41 94.8105 32.41Z" fill="white"/>
<path d="M78.7957 16.5989C78.9481 16.5989 79.0717 16.4753 79.0717 16.3229C79.0717 16.1704 78.9481 16.0469 78.7957 16.0469C78.6432 16.0469 78.5195 16.1704 78.5195 16.3229C78.5195 16.4753 78.6432 16.5989 78.7957 16.5989Z" fill="white"/>
<path d="M35.7331 42.6145C35.8856 42.6145 36.0091 42.491 36.0091 42.3385C36.0091 42.1861 35.8856 42.0625 35.7331 42.0625C35.5807 42.0625 35.457 42.1861 35.457 42.3385C35.457 42.491 35.5807 42.6145 35.7331 42.6145Z" fill="white"/>
<path d="M35.8757 38.7514C36.0281 38.7514 36.1517 38.6278 36.1517 38.4754C36.1517 38.3229 36.0281 38.1992 35.8757 38.1992C35.7232 38.1992 35.5996 38.3229 35.5996 38.4754C35.5996 38.6278 35.7232 38.7514 35.8757 38.7514Z" fill="white"/>
<path d="M72.5827 59.9309C72.7351 59.9309 72.8587 59.8074 72.8587 59.6549C72.8587 59.5025 72.7351 59.3789 72.5827 59.3789C72.4302 59.3789 72.3066 59.5025 72.3066 59.6549C72.3066 59.8074 72.4302 59.9309 72.5827 59.9309Z" fill="white"/>
<path d="M92.9752 58.9973C93.1277 58.9973 93.2512 58.8738 93.2512 58.7213C93.2512 58.5689 93.1277 58.4453 92.9752 58.4453C92.8228 58.4453 92.6992 58.5689 92.6992 58.7213C92.6992 58.8738 92.8228 58.9973 92.9752 58.9973Z" fill="white"/>
<path d="M78.0202 26.513C78.1726 26.513 78.2962 26.3894 78.2962 26.237C78.2962 26.0845 78.1726 25.9609 78.0202 25.9609C77.8677 25.9609 77.7441 26.0845 77.7441 26.237C77.7441 26.3894 77.8677 26.513 78.0202 26.513Z" fill="white"/>
<path d="M52.0476 32.8841C52.2 32.8841 52.3236 32.7605 52.3236 32.608C52.3236 32.4556 52.2 32.332 52.0476 32.332C51.8951 32.332 51.7715 32.4556 51.7715 32.608C51.7715 32.7605 51.8951 32.8841 52.0476 32.8841Z" fill="white"/>
<path d="M54.2643 12.6341C54.4168 12.6341 54.5404 12.5105 54.5404 12.358C54.5404 12.2056 54.4168 12.082 54.2643 12.082C54.1118 12.082 53.9883 12.2056 53.9883 12.358C53.9883 12.5105 54.1118 12.6341 54.2643 12.6341Z" fill="white"/>
<path d="M83.628 33.4747C83.7245 33.4747 83.8028 33.3964 83.8028 33.2998C83.8028 33.2033 83.7245 33.125 83.628 33.125C83.5314 33.125 83.4531 33.2033 83.4531 33.2998C83.4531 33.3964 83.5314 33.4747 83.628 33.4747Z" fill="white"/>
<path d="M52.0049 43.9981C52.1015 43.9981 52.1798 43.9199 52.1798 43.8233C52.1798 43.7267 52.1015 43.6484 52.0049 43.6484C51.9084 43.6484 51.8301 43.7267 51.8301 43.8233C51.8301 43.9199 51.9084 43.9981 52.0049 43.9981Z" fill="white"/>
<path d="M38.1416 54.2169C38.2382 54.2169 38.3166 54.1386 38.3166 54.042C38.3166 53.9455 38.2382 53.8672 38.1416 53.8672C38.0451 53.8672 37.9668 53.9455 37.9668 54.042C37.9668 54.1386 38.0451 54.2169 38.1416 54.2169Z" fill="white"/>
<path d="M62.6319 49.2598C62.7284 49.2598 62.8067 49.1816 62.8067 49.085C62.8067 48.9884 62.7284 48.9102 62.6319 48.9102C62.5353 48.9102 62.457 48.9884 62.457 49.085C62.457 49.1816 62.5353 49.2598 62.6319 49.2598Z" fill="white"/>
<path d="M59.5948 51.4864C59.6913 51.4864 59.7696 51.4081 59.7696 51.3116C59.7696 51.215 59.6913 51.1367 59.5948 51.1367C59.4982 51.1367 59.4199 51.215 59.4199 51.3116C59.4199 51.4081 59.4982 51.4864 59.5948 51.4864Z" fill="white"/>
<path d="M68.0948 13.2364C68.1913 13.2364 68.2696 13.1581 68.2696 13.0616C68.2696 12.965 68.1913 12.8867 68.0948 12.8867C67.9982 12.8867 67.9199 12.965 67.9199 13.0616C67.9199 13.1581 67.9982 13.2364 68.0948 13.2364Z" fill="white"/>
<path d="M41.7862 25.8848C41.8827 25.8848 41.961 25.8066 41.961 25.71C41.961 25.6134 41.8827 25.5352 41.7862 25.5352C41.6896 25.5352 41.6113 25.6134 41.6113 25.71C41.6113 25.8066 41.6896 25.8848 41.7862 25.8848Z" fill="white"/>
<path d="M76.1905 31.5528C76.287 31.5528 76.3653 31.4745 76.3653 31.378C76.3653 31.2814 76.287 31.2031 76.1905 31.2031C76.0939 31.2031 76.0156 31.2814 76.0156 31.378C76.0156 31.4745 76.0939 31.5528 76.1905 31.5528Z" fill="white"/>
<path d="M97.8467 38.4317C97.9433 38.4317 98.0216 38.3534 98.0216 38.2569C98.0216 38.1603 97.9433 38.082 97.8467 38.082C97.7502 38.082 97.6719 38.1603 97.6719 38.2569C97.6719 38.3534 97.7502 38.4317 97.8467 38.4317Z" fill="white"/>
<path d="M49.6788 56.545C49.7753 56.545 49.8537 56.4667 49.8537 56.3702C49.8537 56.2736 49.7753 56.1953 49.6788 56.1953C49.5822 56.1953 49.5039 56.2736 49.5039 56.3702C49.5039 56.4667 49.5822 56.545 49.6788 56.545Z" fill="white"/>
<path d="M77.5069 42.9864C77.6034 42.9864 77.6817 42.9081 77.6817 42.8116C77.6817 42.715 77.6034 42.6367 77.5069 42.6367C77.4103 42.6367 77.332 42.715 77.332 42.8116C77.332 42.9081 77.4103 42.9864 77.5069 42.9864Z" fill="white"/>
<path d="M80.4405 43.9981C80.537 43.9981 80.6153 43.9199 80.6153 43.8233C80.6153 43.7267 80.537 43.6484 80.4405 43.6484C80.3439 43.6484 80.2656 43.7267 80.2656 43.8233C80.2656 43.9199 80.3439 43.9981 80.4405 43.9981Z" fill="white"/>
<path d="M65.9997 78.7768C85.2055 78.7768 100.775 63.2075 100.775 44.0017C100.775 24.7959 85.2055 9.22656 65.9997 9.22656C46.794 9.22656 31.2246 24.7959 31.2246 44.0017C31.2246 63.2075 46.794 78.7768 65.9997 78.7768Z" fill="url(#paint0_radial_2056_27799)"/>
<path d="M76.3473 15.2455C76.6103 15.2455 76.8236 15.0323 76.8236 14.7693C76.8236 14.5063 76.6103 14.293 76.3473 14.293C76.0842 14.293 75.8711 14.5063 75.8711 14.7693C75.8711 15.0323 76.0842 15.2455 76.3473 15.2455Z" fill="white"/>
<path d="M66.7946 28.3392C67.0577 28.3392 67.2709 28.1259 67.2709 27.8629C67.2709 27.5999 67.0577 27.3867 66.7946 27.3867C66.5316 27.3867 66.3184 27.5999 66.3184 27.8629C66.3184 28.1259 66.5316 28.3392 66.7946 28.3392Z" fill="white"/>
<path d="M59.1384 61.3276C59.4014 61.3276 59.6146 61.1144 59.6146 60.8513C59.6146 60.5883 59.4014 60.375 59.1384 60.375C58.8753 60.375 58.6621 60.5883 58.6621 60.8513C58.6621 61.1144 58.8753 61.3276 59.1384 61.3276Z" fill="white"/>
<path d="M74.5505 57.2494C74.8136 57.2494 75.0269 57.0362 75.0269 56.7732C75.0269 56.5102 74.8136 56.2969 74.5505 56.2969C74.2875 56.2969 74.0742 56.5102 74.0742 56.7732C74.0742 57.0362 74.2875 57.2494 74.5505 57.2494Z" fill="white"/>
<path d="M50.6774 43.6986C50.9405 43.6986 51.1537 43.4855 51.1537 43.2224C51.1537 42.9594 50.9405 42.7461 50.6774 42.7461C50.4144 42.7461 50.2012 42.9594 50.2012 43.2224C50.2012 43.4855 50.4144 43.6986 50.6774 43.6986Z" fill="white"/>
<path d="M34.5603 51.6597C34.8233 51.6597 35.0366 51.4464 35.0366 51.1834C35.0366 50.9203 34.8233 50.707 34.5603 50.707C34.2973 50.707 34.084 50.9203 34.084 51.1834C34.084 51.4464 34.2973 51.6597 34.5603 51.6597Z" fill="white"/>
<path d="M94.1951 32.8705C94.4581 32.8705 94.6714 32.6573 94.6714 32.3943C94.6714 32.1313 94.4581 31.918 94.1951 31.918C93.932 31.918 93.7188 32.1313 93.7188 32.3943C93.7188 32.6573 93.932 32.8705 94.1951 32.8705Z" fill="white"/>
<path d="M78.2534 17.1316C78.4052 17.1316 78.5282 17.0086 78.5282 16.8568C78.5282 16.705 78.4052 16.582 78.2534 16.582C78.1016 16.582 77.9785 16.705 77.9785 16.8568C77.9785 17.0086 78.1016 17.1316 78.2534 17.1316Z" fill="white"/>
<path d="M35.3842 43.0261C35.536 43.0261 35.659 42.9031 35.659 42.7513C35.659 42.5996 35.536 42.4766 35.3842 42.4766C35.2324 42.4766 35.1094 42.5996 35.1094 42.7513C35.1094 42.9031 35.2324 43.0261 35.3842 43.0261Z" fill="white"/>
<path d="M35.5268 39.1825C35.6786 39.1825 35.8016 39.0595 35.8016 38.9077C35.8016 38.7559 35.6786 38.6328 35.5268 38.6328C35.375 38.6328 35.252 38.7559 35.252 38.9077C35.252 39.0595 35.375 39.1825 35.5268 39.1825Z" fill="white"/>
<path d="M72.0677 60.2644C72.2195 60.2644 72.3425 60.1414 72.3425 59.9896C72.3425 59.8378 72.2195 59.7148 72.0677 59.7148C71.916 59.7148 71.793 59.8378 71.793 59.9896C71.793 60.1414 71.916 60.2644 72.0677 60.2644Z" fill="white"/>
<path d="M92.3685 59.3386C92.5203 59.3386 92.6433 59.2156 92.6433 59.0638C92.6433 58.9121 92.5203 58.7891 92.3685 58.7891C92.2167 58.7891 92.0938 58.9121 92.0938 59.0638C92.0938 59.2156 92.2167 59.3386 92.3685 59.3386Z" fill="white"/>
<path d="M77.4798 27.0027C77.6316 27.0027 77.7546 26.8797 77.7546 26.7279C77.7546 26.5761 77.6316 26.4531 77.4798 26.4531C77.3281 26.4531 77.2051 26.5761 77.2051 26.7279C77.2051 26.8797 77.3281 27.0027 77.4798 27.0027Z" fill="white"/>
<path d="M51.6244 33.3386C51.7762 33.3386 51.8992 33.2156 51.8992 33.0638C51.8992 32.9121 51.7762 32.7891 51.6244 32.7891C51.4727 32.7891 51.3496 32.9121 51.3496 33.0638C51.3496 33.2156 51.4727 33.3386 51.6244 33.3386Z" fill="white"/>
<path d="M53.8334 13.1823C53.9851 13.1823 54.1082 13.0593 54.1082 12.9076C54.1082 12.7558 53.9851 12.6328 53.8334 12.6328C53.6816 12.6328 53.5586 12.7558 53.5586 12.9076C53.5586 13.0593 53.6816 13.1823 53.8334 13.1823Z" fill="white"/>
<path d="M83.0627 33.9301C83.1589 33.9301 83.2368 33.8522 83.2368 33.7561C83.2368 33.66 83.1589 33.582 83.0627 33.582C82.9666 33.582 82.8887 33.66 82.8887 33.7561C82.8887 33.8522 82.9666 33.9301 83.0627 33.9301Z" fill="white"/>
<path d="M51.5842 44.4067C51.6803 44.4067 51.7583 44.3288 51.7583 44.2326C51.7583 44.1365 51.6803 44.0586 51.5842 44.0586C51.4881 44.0586 51.4102 44.1365 51.4102 44.2326C51.4102 44.3288 51.4881 44.4067 51.5842 44.4067Z" fill="white"/>
<path d="M37.7834 54.5786C37.8796 54.5786 37.9575 54.5007 37.9575 54.4045C37.9575 54.3084 37.8796 54.2305 37.7834 54.2305C37.6873 54.2305 37.6094 54.3084 37.6094 54.4045C37.6094 54.5007 37.6873 54.5786 37.7834 54.5786Z" fill="white"/>
<path d="M62.1604 49.645C62.2565 49.645 62.3344 49.5671 62.3344 49.4709C62.3344 49.3748 62.2565 49.2969 62.1604 49.2969C62.0643 49.2969 61.9863 49.3748 61.9863 49.4709C61.9863 49.5671 62.0643 49.645 62.1604 49.645Z" fill="white"/>
<path d="M59.1389 51.8598C59.235 51.8598 59.313 51.7819 59.313 51.6858C59.313 51.5896 59.235 51.5117 59.1389 51.5117C59.0428 51.5117 58.9648 51.5896 58.9648 51.6858C58.9648 51.7819 59.0428 51.8598 59.1389 51.8598Z" fill="white"/>
<path d="M67.5998 13.7817C67.696 13.7817 67.7739 13.7038 67.7739 13.6076C67.7739 13.5115 67.696 13.4336 67.5998 13.4336C67.5037 13.4336 67.4258 13.5115 67.4258 13.6076C67.4258 13.7038 67.5037 13.7817 67.5998 13.7817Z" fill="white"/>
<path d="M41.4084 26.3715C41.5046 26.3715 41.5825 26.2936 41.5825 26.1975C41.5825 26.1014 41.5046 26.0234 41.4084 26.0234C41.3123 26.0234 41.2344 26.1014 41.2344 26.1975C41.2344 26.2936 41.3123 26.3715 41.4084 26.3715Z" fill="white"/>
<path d="M75.6584 32.0161C75.7546 32.0161 75.8325 31.9382 75.8325 31.842C75.8325 31.7459 75.7546 31.668 75.6584 31.668C75.5623 31.668 75.4844 31.7459 75.4844 31.842C75.4844 31.9382 75.5623 32.0161 75.6584 32.0161Z" fill="white"/>
<path d="M97.217 38.8637C97.3132 38.8637 97.3911 38.7858 97.3911 38.6897C97.3911 38.5935 97.3132 38.5156 97.217 38.5156C97.1209 38.5156 97.043 38.5935 97.043 38.6897C97.043 38.7858 97.1209 38.8637 97.217 38.8637Z" fill="white"/>
<path d="M49.2659 56.895C49.362 56.895 49.44 56.8171 49.44 56.7209C49.44 56.6248 49.362 56.5469 49.2659 56.5469C49.1697 56.5469 49.0918 56.6248 49.0918 56.7209C49.0918 56.8171 49.1697 56.895 49.2659 56.895Z" fill="white"/>
<path d="M76.969 43.3989C77.0651 43.3989 77.143 43.321 77.143 43.2248C77.143 43.1287 77.0651 43.0508 76.969 43.0508C76.8728 43.0508 76.7949 43.1287 76.7949 43.2248C76.7949 43.321 76.8728 43.3989 76.969 43.3989Z" fill="white"/>
<path d="M79.8909 44.4067C79.987 44.4067 80.0649 44.3288 80.0649 44.2326C80.0649 44.1365 79.987 44.0586 79.8909 44.0586C79.7947 44.0586 79.7168 44.1365 79.7168 44.2326C79.7168 44.3288 79.7947 44.4067 79.8909 44.4067Z" fill="white"/>
<path d="M76.3473 15.2455C76.6103 15.2455 76.8236 15.0323 76.8236 14.7693C76.8236 14.5063 76.6103 14.293 76.3473 14.293C76.0842 14.293 75.8711 14.5063 75.8711 14.7693C75.8711 15.0323 76.0842 15.2455 76.3473 15.2455Z" fill="white"/>
<path d="M66.7946 28.3392C67.0577 28.3392 67.2709 28.1259 67.2709 27.8629C67.2709 27.5999 67.0577 27.3867 66.7946 27.3867C66.5316 27.3867 66.3184 27.5999 66.3184 27.8629C66.3184 28.1259 66.5316 28.3392 66.7946 28.3392Z" fill="white"/>
<path d="M59.1384 61.3276C59.4014 61.3276 59.6146 61.1144 59.6146 60.8513C59.6146 60.5883 59.4014 60.375 59.1384 60.375C58.8753 60.375 58.6621 60.5883 58.6621 60.8513C58.6621 61.1144 58.8753 61.3276 59.1384 61.3276Z" fill="white"/>
<path d="M74.5505 57.2494C74.8136 57.2494 75.0269 57.0362 75.0269 56.7732C75.0269 56.5102 74.8136 56.2969 74.5505 56.2969C74.2875 56.2969 74.0742 56.5102 74.0742 56.7732C74.0742 57.0362 74.2875 57.2494 74.5505 57.2494Z" fill="white"/>
<path d="M50.6774 43.6986C50.9405 43.6986 51.1537 43.4855 51.1537 43.2224C51.1537 42.9594 50.9405 42.7461 50.6774 42.7461C50.4144 42.7461 50.2012 42.9594 50.2012 43.2224C50.2012 43.4855 50.4144 43.6986 50.6774 43.6986Z" fill="white"/>
<path d="M34.5603 51.6597C34.8233 51.6597 35.0366 51.4464 35.0366 51.1834C35.0366 50.9203 34.8233 50.707 34.5603 50.707C34.2973 50.707 34.084 50.9203 34.084 51.1834C34.084 51.4464 34.2973 51.6597 34.5603 51.6597Z" fill="white"/>
<path d="M94.1951 32.8705C94.4581 32.8705 94.6714 32.6573 94.6714 32.3943C94.6714 32.1313 94.4581 31.918 94.1951 31.918C93.932 31.918 93.7188 32.1313 93.7188 32.3943C93.7188 32.6573 93.932 32.8705 94.1951 32.8705Z" fill="white"/>
<path d="M78.2534 17.1316C78.4052 17.1316 78.5282 17.0086 78.5282 16.8568C78.5282 16.705 78.4052 16.582 78.2534 16.582C78.1016 16.582 77.9785 16.705 77.9785 16.8568C77.9785 17.0086 78.1016 17.1316 78.2534 17.1316Z" fill="white"/>
<path d="M35.3842 43.0261C35.536 43.0261 35.659 42.9031 35.659 42.7513C35.659 42.5996 35.536 42.4766 35.3842 42.4766C35.2324 42.4766 35.1094 42.5996 35.1094 42.7513C35.1094 42.9031 35.2324 43.0261 35.3842 43.0261Z" fill="white"/>
<path d="M35.5268 39.1825C35.6786 39.1825 35.8016 39.0595 35.8016 38.9077C35.8016 38.7559 35.6786 38.6328 35.5268 38.6328C35.375 38.6328 35.252 38.7559 35.252 38.9077C35.252 39.0595 35.375 39.1825 35.5268 39.1825Z" fill="white"/>
<path d="M72.0677 60.2644C72.2195 60.2644 72.3425 60.1414 72.3425 59.9896C72.3425 59.8378 72.2195 59.7148 72.0677 59.7148C71.916 59.7148 71.793 59.8378 71.793 59.9896C71.793 60.1414 71.916 60.2644 72.0677 60.2644Z" fill="white"/>
<path d="M92.3685 59.3386C92.5203 59.3386 92.6433 59.2156 92.6433 59.0638C92.6433 58.9121 92.5203 58.7891 92.3685 58.7891C92.2167 58.7891 92.0938 58.9121 92.0938 59.0638C92.0938 59.2156 92.2167 59.3386 92.3685 59.3386Z" fill="white"/>
<path d="M77.4798 27.0027C77.6316 27.0027 77.7546 26.8797 77.7546 26.7279C77.7546 26.5761 77.6316 26.4531 77.4798 26.4531C77.3281 26.4531 77.2051 26.5761 77.2051 26.7279C77.2051 26.8797 77.3281 27.0027 77.4798 27.0027Z" fill="white"/>
<path d="M51.6244 33.3386C51.7762 33.3386 51.8992 33.2156 51.8992 33.0638C51.8992 32.9121 51.7762 32.7891 51.6244 32.7891C51.4727 32.7891 51.3496 32.9121 51.3496 33.0638C51.3496 33.2156 51.4727 33.3386 51.6244 33.3386Z" fill="white"/>
<path d="M53.8334 13.1823C53.9851 13.1823 54.1082 13.0593 54.1082 12.9076C54.1082 12.7558 53.9851 12.6328 53.8334 12.6328C53.6816 12.6328 53.5586 12.7558 53.5586 12.9076C53.5586 13.0593 53.6816 13.1823 53.8334 13.1823Z" fill="white"/>
<path d="M83.0627 33.9301C83.1589 33.9301 83.2368 33.8522 83.2368 33.7561C83.2368 33.66 83.1589 33.582 83.0627 33.582C82.9666 33.582 82.8887 33.66 82.8887 33.7561C82.8887 33.8522 82.9666 33.9301 83.0627 33.9301Z" fill="white"/>
<path d="M51.5842 44.4067C51.6803 44.4067 51.7583 44.3288 51.7583 44.2326C51.7583 44.1365 51.6803 44.0586 51.5842 44.0586C51.4881 44.0586 51.4102 44.1365 51.4102 44.2326C51.4102 44.3288 51.4881 44.4067 51.5842 44.4067Z" fill="white"/>
<path d="M37.7834 54.5786C37.8796 54.5786 37.9575 54.5007 37.9575 54.4045C37.9575 54.3084 37.8796 54.2305 37.7834 54.2305C37.6873 54.2305 37.6094 54.3084 37.6094 54.4045C37.6094 54.5007 37.6873 54.5786 37.7834 54.5786Z" fill="white"/>
<path d="M62.1604 49.645C62.2565 49.645 62.3344 49.5671 62.3344 49.4709C62.3344 49.3748 62.2565 49.2969 62.1604 49.2969C62.0643 49.2969 61.9863 49.3748 61.9863 49.4709C61.9863 49.5671 62.0643 49.645 62.1604 49.645Z" fill="white"/>
<path d="M59.1389 51.8598C59.235 51.8598 59.313 51.7819 59.313 51.6858C59.313 51.5896 59.235 51.5117 59.1389 51.5117C59.0428 51.5117 58.9648 51.5896 58.9648 51.6858C58.9648 51.7819 59.0428 51.8598 59.1389 51.8598Z" fill="white"/>
<path d="M67.5998 13.7817C67.696 13.7817 67.7739 13.7038 67.7739 13.6076C67.7739 13.5115 67.696 13.4336 67.5998 13.4336C67.5037 13.4336 67.4258 13.5115 67.4258 13.6076C67.4258 13.7038 67.5037 13.7817 67.5998 13.7817Z" fill="white"/>
<path d="M41.4084 26.3715C41.5046 26.3715 41.5825 26.2936 41.5825 26.1975C41.5825 26.1014 41.5046 26.0234 41.4084 26.0234C41.3123 26.0234 41.2344 26.1014 41.2344 26.1975C41.2344 26.2936 41.3123 26.3715 41.4084 26.3715Z" fill="white"/>
<path d="M75.6584 32.0161C75.7546 32.0161 75.8325 31.9382 75.8325 31.842C75.8325 31.7459 75.7546 31.668 75.6584 31.668C75.5623 31.668 75.4844 31.7459 75.4844 31.842C75.4844 31.9382 75.5623 32.0161 75.6584 32.0161Z" fill="white"/>
<path d="M97.217 38.8637C97.3132 38.8637 97.3911 38.7858 97.3911 38.6897C97.3911 38.5935 97.3132 38.5156 97.217 38.5156C97.1209 38.5156 97.043 38.5935 97.043 38.6897C97.043 38.7858 97.1209 38.8637 97.217 38.8637Z" fill="white"/>
<path d="M49.2659 56.895C49.362 56.895 49.44 56.8171 49.44 56.7209C49.44 56.6248 49.362 56.5469 49.2659 56.5469C49.1697 56.5469 49.0918 56.6248 49.0918 56.7209C49.0918 56.8171 49.1697 56.895 49.2659 56.895Z" fill="white"/>
<path d="M76.969 43.3989C77.0651 43.3989 77.143 43.321 77.143 43.2248C77.143 43.1287 77.0651 43.0508 76.969 43.0508C76.8728 43.0508 76.7949 43.1287 76.7949 43.2248C76.7949 43.321 76.8728 43.3989 76.969 43.3989Z" fill="white"/>
<path d="M79.8909 44.4067C79.987 44.4067 80.0649 44.3288 80.0649 44.2326C80.0649 44.1365 79.987 44.0586 79.8909 44.0586C79.7947 44.0586 79.7168 44.1365 79.7168 44.2326C79.7168 44.3288 79.7947 44.4067 79.8909 44.4067Z" fill="white"/>
<g filter="url(#filter0_f_2056_27799)">
<path d="M63.8945 16.7704C58.0686 17.2143 52.6823 19.5074 48.3833 23.1043C42.9884 27.6181 39.3126 34.1794 38.6422 41.7189C37.3014 56.7978 48.4923 70.173 63.5712 71.5138C78.6501 72.8546 92.0128 61.6743 93.3535 46.5954C94.6943 31.5165 83.5035 18.1413 68.4246 16.8004C66.8932 16.6642 65.3796 16.6573 63.8945 16.7704ZM71.3888 22.3933C81.9739 24.9872 89.3326 34.9488 88.3367 46.1493C87.2373 58.514 76.3821 67.5963 64.0173 66.4969C63.2365 66.4274 62.4689 66.3189 61.716 66.1737L71.3888 22.3933Z" fill="#F9EFE7"/>
</g>
<defs>
<filter id="filter0_f_2056_27799" x="38.2197" y="16.3779" width="55.5567" height="55.5567" filterUnits="userSpaceOnUse" color-interpolation-filters="sRGB">
<feFlood flood-opacity="0" result="BackgroundImageFix"/>
<feBlend mode="normal" in="SourceGraphic" in2="BackgroundImageFix" result="shape"/>
<feGaussianBlur stdDeviation="0.156763" result="effect1_foregroundBlur_2056_27799"/>
</filter>
<radialGradient id="paint0_radial_2056_27799" cx="0" cy="0" r="1" gradientUnits="userSpaceOnUse" gradientTransform="translate(67.6357 76.7105) rotate(-46.4329) scale(44.5874 46.5223)">
<stop stop-color="#F4964D"/>
<stop offset="1" stop-color="#332255"/>
</radialGradient>
</defs>
</svg>
