<svg width="132" height="88" viewBox="0 0 132 88" fill="none" xmlns="http://www.w3.org/2000/svg">
<path d="M87.0287 9.24066C86.6171 9.59182 84.53 11.1268 83.979 11.478C83.7573 11.6185 83.3962 11.8492 83.1758 11.9897C81.9425 12.7823 79.9453 13.7756 78.2597 14.4277C75.5511 15.4812 73.8546 15.8725 71.2868 16.0331C70.4737 16.0832 66.7821 16.0832 65.3676 16.0331C63.6711 15.9728 61.7956 15.8926 60.4514 15.8224C57.9723 15.712 57.0494 15.6919 54.7318 15.6919C52.4043 15.6919 52.0028 15.702 50.5179 15.8324C45.3614 16.2639 39.1304 19.0831 35.0065 22.8457C34.9264 22.9257 34.9461 23.1364 35.0767 23.608C35.5288 25.3036 35.7692 26.2166 35.9097 26.7384C35.9996 27.0596 36.1401 27.5813 36.2312 27.8923C36.3113 28.2132 36.4912 28.8754 36.6218 29.3772C36.7524 29.8687 36.9434 30.5912 37.0531 30.9825C37.1541 31.3638 37.5557 32.8486 37.9365 34.2635C38.3074 35.6879 38.6487 36.8518 38.6794 36.8518C38.7189 36.8518 38.8297 36.7715 38.9395 36.6713C40.3749 35.347 42.632 33.8018 44.558 32.8085C47.3178 31.404 50.6891 30.2603 52.9254 29.9692C53.1769 29.939 53.4478 29.8989 53.5281 29.8786C54.5618 29.6181 61.1033 29.6181 65.8691 29.8786C69.8415 30.0997 75.7619 30.0997 76.4137 29.8889C76.494 29.8587 76.8352 29.8186 77.1863 29.7784C78.9015 29.6181 82.3428 28.424 84.9315 27.0895C86.7575 26.1466 89.6569 24.22 90.8311 23.1567C91.2021 22.8255 91.2021 22.8858 90.851 21.6015C90.7311 21.19 90.6203 20.7787 90.6007 20.6984C90.5808 20.6181 90.47 20.1867 90.3495 19.7453C90.2296 19.3039 90.0892 18.8022 90.0488 18.6417C90.008 18.4711 89.8785 17.9996 89.7677 17.5882C89.6569 17.1769 89.4166 16.2939 89.2354 15.6318C89.0654 14.9695 88.8043 14.0165 88.6735 13.5248C88.3224 12.2105 87.922 10.7356 87.9012 10.6151C87.8813 10.555 87.8209 10.3142 87.7509 10.0634C87.6805 9.8125 87.6005 9.50152 87.5709 9.36104C87.5006 8.94964 87.3798 8.92956 87.0287 9.24066Z" fill="#2B3545"/>
<path d="M93.0381 30.9124C93.0281 30.9526 92.7178 31.2134 92.3567 31.4843C91.9956 31.7654 91.684 32.0162 91.6544 32.0461C91.5237 32.1868 89.5968 33.4812 88.6947 34.0129C85.734 35.7888 81.8516 37.2935 79.3638 37.6148C79.1431 37.645 78.8511 37.6951 78.7107 37.715C77.3874 37.9457 72.7312 37.9457 67.7754 37.705C62.3578 37.4542 57.9726 37.4442 55.7351 37.705C54.7925 37.8153 53.4381 38.0963 52.4747 38.3771C51.9227 38.5378 51.4312 38.6881 51.3708 38.6984C51.3204 38.7183 51.1405 38.7784 50.9901 38.8388C50.8286 38.9091 50.6686 38.9592 50.629 38.9592C50.4774 38.9592 48.4911 39.7717 47.6288 40.1733C45.3913 41.2466 43.4753 42.4709 41.5087 44.1161C40.6758 44.8084 40.7054 44.668 41.1268 46.183C41.2672 46.7147 41.7896 48.631 42.4007 50.9186C42.7727 52.3132 43.1634 53.7781 43.6957 55.7144C43.9261 56.5673 44.1776 57.5304 44.2576 57.8616C44.4783 58.7544 44.4879 58.7647 44.9994 58.303C45.7017 57.6811 47.5684 56.2965 48.4615 55.7446C51.7724 53.6776 56.0663 52.1025 59.3971 51.7112C61.9254 51.4102 66.0898 51.3902 70.8348 51.6511C73.5838 51.8015 74.8283 51.8317 77.7077 51.8416C82.3531 51.8516 83.6873 51.681 86.4363 50.7481C90.2399 49.4438 93.6504 47.5374 96.5301 45.1094L97.0413 44.6779L96.8109 43.8452C96.6901 43.3939 96.4202 42.4105 96.2194 41.6681C96.0187 40.9256 95.6971 39.7216 95.5072 39.0094C95.3164 38.2869 95.1452 37.6347 95.1253 37.5544C95.1057 37.4741 94.8049 36.3606 94.4638 35.0964C94.1123 33.822 93.7207 32.3472 93.5804 31.8055C93.43 31.2035 93.2893 30.8324 93.2093 30.8324C93.1293 30.8324 93.0589 30.8623 93.0381 30.9124Z" fill="#2B3545"/>
<path d="M56.8389 60.6701C53.698 61.7537 50.6882 63.3089 48.6218 64.9142C48.3308 65.1349 47.0162 66.2387 46.7859 66.4495C46.6047 66.6198 46.5947 66.5998 48.1203 72.2186C48.2804 72.8197 48.4307 73.3928 48.4516 73.4728C48.4715 73.5528 48.6819 74.3254 48.9126 75.178C49.143 76.0306 49.3537 76.8033 49.3745 76.8836C49.5853 77.7471 49.9056 78.92 49.956 78.9608C49.9856 78.9904 50.2075 78.9608 50.4379 78.9004C50.6782 78.84 50.959 78.76 51.0698 78.7401C51.1797 78.7193 51.6121 78.6097 52.0224 78.4889C52.9466 78.2386 58.0527 76.8736 60.5009 76.2218C61.494 75.9606 62.327 75.7302 62.3466 75.7203C62.397 75.6698 62.0459 74.3154 60.3506 68.0047C59.8491 66.1687 59.116 63.4091 58.6145 61.5433C58.4346 60.8506 58.2435 60.2788 58.1831 60.2589C58.1327 60.2486 57.5312 60.4295 56.8389 60.6701Z" fill="#2B3545"/>
</svg>
