<svg width="132" height="88" viewBox="0 0 132 88" fill="none" xmlns="http://www.w3.org/2000/svg">
<path fill-rule="evenodd" clip-rule="evenodd" d="M52.6586 34.1278H69.0036L60.8311 48.2823L73.7218 70.6936L72.795 72.2944C72.0954 73.4823 71.0979 74.4672 69.9009 75.1512C68.704 75.8357 67.3492 76.1955 65.9706 76.1955C64.5919 76.1955 63.2371 75.8357 62.0401 75.1512C60.8432 74.4672 59.8456 73.4823 59.1461 72.2944L31.0899 23.6804C30.3864 22.4793 30.0156 21.1125 30.0156 19.7206C30.0156 18.3286 30.3864 16.9618 31.0899 15.7607C31.7755 14.556 32.7684 13.5547 33.9673 12.8591C35.1663 12.1634 36.5282 11.7982 37.9144 11.8008H81.8943L74.1431 25.2812H47.5192L52.6586 34.1278ZM98.0578 12.8591C99.257 13.5547 100.25 14.556 100.935 15.7607C101.623 16.9518 101.985 18.303 101.985 19.6784C101.985 21.0538 101.623 22.4051 100.935 23.5962L78.861 61.7625L71.1098 48.2823L92.1732 11.8008H94.1109C95.4969 11.7982 96.8591 12.1634 98.0578 12.8591Z" fill="#4AD295"/>
</svg>
