<svg width="132" height="88" viewBox="0 0 132 88" fill="none" xmlns="http://www.w3.org/2000/svg">
<mask id="mask0_2056_25272" style="mask-type:luminance" maskUnits="userSpaceOnUse" x="39" y="12" width="54" height="64">
<path d="M39.7012 12.0156H92.2984V75.9852H39.7012V12.0156Z" fill="white"/>
</mask>
<g mask="url(#mask0_2056_25272)">
<path d="M92.2982 28.0535V15.1445C92.3012 14.3166 91.9803 13.5204 91.4028 12.9269C91.1198 12.6361 90.781 12.4054 90.4062 12.2489C90.0314 12.0923 89.6296 12.013 89.2237 12.0157H65.6867C65.2811 12.0135 64.8793 12.0934 64.5045 12.2505C64.1305 12.4075 63.7917 12.6386 63.509 12.9298C63.2219 13.2221 62.9942 13.5684 62.8413 13.9487C62.6873 14.3289 62.6103 14.7358 62.6133 15.1459V27.0828C62.6122 27.9116 62.2875 28.7075 61.7078 29.3004C61.4229 29.5889 61.083 29.8182 60.7081 29.9744C60.3333 30.1309 59.9315 30.2115 59.5259 30.2115H42.7887C41.9701 30.2115 41.1835 30.5428 40.6057 31.1327C40.025 31.7259 39.7002 32.5231 39.7012 33.3531V44.8536C39.7012 45.6865 40.027 46.4854 40.6057 47.0753C41.1835 47.6654 41.9701 47.9965 42.7887 47.9965H59.5278C59.9337 47.9941 60.3363 48.0733 60.7112 48.2295C61.086 48.3857 61.4259 48.6158 61.7097 48.9062C62.2886 49.4991 62.6144 50.295 62.6153 51.1238V60.1023C62.6122 60.9306 62.2864 61.7251 61.7058 62.3158C61.4209 62.6051 61.0821 62.835 60.7081 62.992C60.3344 63.1493 59.9326 63.2304 59.5278 63.2313H42.7887C41.9701 63.2313 41.1835 63.5624 40.6057 64.1509C40.024 64.7457 39.6992 65.5443 39.7012 66.3759V72.8439C39.7012 73.6785 40.027 74.4771 40.6057 75.0656C41.1835 75.6555 41.9701 75.9863 42.7887 75.9863H60.4824C61.3019 75.9863 62.0867 75.6555 62.6653 75.0656C63.245 74.4771 63.5709 73.6785 63.5709 72.8439V67.4033C63.5679 66.5747 63.8896 65.778 64.4666 65.1835C64.7484 64.8914 65.0872 64.6588 65.461 64.5007C65.8358 64.3428 66.2376 64.2608 66.6435 64.262H88.9198C89.3257 64.2639 89.7286 64.1839 90.1034 64.0268C90.4783 63.8706 90.8179 63.6399 91.1017 63.3492C91.3888 63.0591 91.6165 62.7137 91.7724 62.3328C91.9275 61.952 92.0075 61.5439 92.0075 61.133V50.2097C92.0064 49.3809 91.6817 48.585 91.1017 47.9921C90.8179 47.7017 90.4783 47.4713 90.1034 47.3148C89.7286 47.1583 89.3257 47.0788 88.9198 47.0811H66.6435C66.2376 47.0816 65.8347 47.0002 65.4599 46.8421C65.0861 46.6839 64.7473 46.4519 64.4644 46.1598C63.8838 45.5672 63.5618 44.768 63.569 43.9381V34.3554C63.5668 33.5263 63.8877 32.7291 64.4644 32.1334C64.7473 31.8414 65.085 31.6096 65.4599 31.4512C65.8339 31.293 66.2356 31.2116 66.6424 31.2122H89.2248C89.6326 31.2144 90.0374 31.1338 90.4131 30.9751C90.789 30.8167 91.1289 30.5835 91.4116 30.2896C91.6995 29.9942 91.9264 29.6444 92.0793 29.2605C92.2314 28.8766 92.3062 28.4663 92.2982 28.0535Z" fill="#56F09F"/>
</g>
</svg>
