<svg width="132" height="88" viewBox="0 0 132 88" fill="none" xmlns="http://www.w3.org/2000/svg">
<path fill-rule="evenodd" clip-rule="evenodd" d="M59.6425 12.0156H72.3585C81.2693 12.0156 84.5008 12.9435 87.7582 14.6857C91.0167 16.4279 93.5734 18.9846 95.3155 22.2422C97.0576 25.5001 97.9852 28.7314 97.9852 37.6425V50.3585C97.9852 59.2696 97.0576 62.5008 95.3155 65.7582C93.5734 69.0167 91.0167 71.5734 87.7582 73.3155C84.5008 75.0579 81.2693 75.9852 72.3585 75.9852H59.6425C50.7317 75.9852 47.5001 75.0579 44.2428 73.3155C40.9843 71.5734 38.4275 69.0167 36.6854 65.7582C34.9432 62.5008 34.0156 59.2696 34.0156 50.3585V37.6425C34.0156 28.7314 34.9432 25.5001 36.6854 22.2422C38.4275 18.9846 40.9843 16.4279 44.2428 14.6857C47.5001 12.9435 50.7317 12.0156 59.6425 12.0156Z" fill="url(#paint0_linear_2056_25230)"/>
<path d="M53.1418 46.7769L60.0267 55.012C57.4359 55.5997 54.6721 54.7128 52.913 52.6072C51.4667 50.8769 51.5946 48.3535 53.1418 46.7769ZM76.324 41.3918C77.8643 43.2346 77.6181 45.9766 75.7762 47.5166C75.4982 47.7487 75.1924 47.9454 74.8665 48.1018L70.2369 50.3178L63.0602 41.7339L67.6909 39.5163C70.6584 38.0943 74.2139 38.8665 76.324 41.3918Z" fill="white"/>
<path d="M53.1418 46.7769L60.0267 55.012C57.4359 55.5997 54.6721 54.7128 52.913 52.6072C51.4667 50.8769 51.5946 48.3535 53.1418 46.7769ZM76.324 41.3918C77.8643 43.2346 77.6181 45.9766 75.7762 47.5166C75.4982 47.7487 75.1924 47.9454 74.8665 48.1018L70.2369 50.3178L63.0602 41.7339L67.6909 39.5163C70.6584 38.0943 74.2139 38.8665 76.324 41.3918Z" fill="url(#paint1_linear_2056_25230)"/>
<path d="M49.2764 36.2367C49.4425 36.6462 49.6743 37.0375 49.9732 37.395C52.083 39.9203 55.6374 40.6925 58.606 39.2705L61.7105 37.7819L79.4373 58.9902C80.9775 60.833 80.7317 63.575 78.8895 65.1155C78.6117 65.3474 78.3056 65.5432 77.9798 65.7002C75.0114 67.1217 71.457 66.35 69.3459 63.8244L49.9732 40.6433C48.9455 39.4149 48.7126 37.7866 49.2175 36.3813L49.2764 36.2367Z" fill="white"/>
<path d="M49.2764 36.2367C49.4425 36.6462 49.6743 37.0375 49.9732 37.395C52.083 39.9203 55.6374 40.6925 58.606 39.2705L61.7105 37.7819L79.4373 58.9902C80.9775 60.833 80.7317 63.575 78.8895 65.1155C78.6117 65.3474 78.3056 65.5432 77.9798 65.7002C75.0114 67.1217 71.457 66.35 69.3459 63.8244L49.9732 40.6433C48.9455 39.4149 48.7126 37.7866 49.2175 36.3813L49.2764 36.2367Z" fill="url(#paint2_linear_2056_25230)"/>
<path fill-rule="evenodd" clip-rule="evenodd" d="M51.4302 28.6852L64.7509 22.3038C67.7187 20.8821 71.2728 21.6543 73.384 24.1799C74.9242 26.0224 74.6784 28.7647 72.8362 30.3047C72.5581 30.5368 72.2523 30.7331 71.9256 30.8896L58.606 37.2707C55.6374 38.6927 52.083 37.9202 49.9729 35.3949C48.4327 33.5524 48.6777 30.8101 50.5207 29.2701C50.7985 29.038 51.1035 28.8414 51.4302 28.6852Z" fill="white"/>
<defs>
<linearGradient id="paint0_linear_2056_25230" x1="18.401" y1="-3.22015" x2="97.9852" y2="75.9852" gradientUnits="userSpaceOnUse">
<stop stop-color="#00A3FF"/>
<stop offset="1" stop-color="#CE00FF"/>
</linearGradient>
<linearGradient id="paint1_linear_2056_25230" x1="34.0172" y1="51.0092" x2="170.658" y2="15.8431" gradientUnits="userSpaceOnUse">
<stop stop-color="white"/>
<stop offset="1" stop-color="#CE00FF"/>
</linearGradient>
<linearGradient id="paint2_linear_2056_25230" x1="-9.53156" y1="-41.4423" x2="95.8793" y2="65.2923" gradientUnits="userSpaceOnUse">
<stop stop-color="#00A3FF"/>
<stop offset="1" stop-color="white"/>
</linearGradient>
</defs>
</svg>
