<svg width="132" height="88" viewBox="0 0 132 88" fill="none" xmlns="http://www.w3.org/2000/svg">
<path fill-rule="evenodd" clip-rule="evenodd" d="M104.284 33.2997C105.684 31.3117 105.805 30.0114 105.577 29.239C105.35 28.4665 104.543 27.4392 102.288 26.5278C100.069 25.6309 96.8837 25.0426 92.8532 24.8924C84.8232 24.5933 74.0928 26.0546 62.6235 29.4329C51.1541 32.8113 41.3449 37.3998 34.7593 42.0037C31.4538 44.3145 29.0959 46.5355 27.7172 48.4922C26.3164 50.4802 26.1956 51.7806 26.4231 52.553C26.6507 53.3254 27.4572 54.3526 29.7119 55.2638C31.9312 56.1607 35.1167 56.749 39.1472 56.8991C47.1772 57.1981 57.9077 55.7369 69.377 52.3588C80.8467 48.9805 90.656 44.392 97.2416 39.7881C100.547 37.4773 102.905 35.2563 104.284 33.2997ZM100.502 44.4517C93.2893 49.4943 82.8811 54.3134 70.985 57.8173C59.0892 61.321 47.7305 62.9131 38.9354 62.5855C34.5533 62.4223 30.6422 61.7774 27.5795 60.5396C24.5523 59.3162 21.8912 57.3073 20.9642 54.1608C20.0374 51.0142 21.1845 47.8836 23.0651 45.2147C24.9678 42.5144 27.9046 39.8525 31.4985 37.34C38.7116 32.2975 49.1196 27.4784 61.0154 23.9745C72.9112 20.4705 84.2699 18.8784 93.0651 19.206C97.4472 19.3692 101.358 20.0143 104.421 21.2521C107.448 22.4756 110.109 24.4845 111.036 27.631C111.963 30.7776 110.816 33.9081 108.936 36.577C107.033 39.2773 104.096 41.9393 100.502 44.4517Z" fill="#FA8F8F"/>
<path fill-rule="evenodd" clip-rule="evenodd" d="M96.3659 43.9994C96.3659 59.5558 83.7539 72.1668 68.1963 72.1668C52.6388 72.1668 40.0268 59.5558 40.0268 43.9994C40.0268 28.4431 52.6388 15.832 68.1963 15.832C83.7539 15.832 96.3659 28.4431 96.3659 43.9994Z" fill="#3D1369"/>
<path fill-rule="evenodd" clip-rule="evenodd" d="M70.8223 54.0328C68.1786 57.9508 64.9553 62.7281 59.0055 64.6135C58.9179 64.6412 58.8285 64.6696 58.7373 64.6988C57.1194 65.2152 54.8952 65.9249 52.0214 65.7798C48.974 65.6258 45.0334 64.9517 40.6471 62.3038L43.492 57.5623C47.3181 59.8719 50.4475 60.0026 52.3086 60.0966C54.134 60.1888 55.4951 59.7571 57.1581 59.2296C57.2006 59.2162 57.2433 59.2027 57.2861 59.189C61.1993 57.9489 63.425 54.8175 66.2934 50.5708C66.345 50.4943 66.397 50.4173 66.4491 50.3401C69.1194 46.3838 72.4013 41.5215 78.4753 39.3772C85.9064 36.7539 94.2655 39.4383 98.8363 41.744L96.2734 46.8246C92.1748 44.7573 85.5949 42.8984 80.37 44.7429C76.2041 46.2136 73.858 49.538 71.0094 53.7555C70.9473 53.8475 70.8849 53.9398 70.8223 54.0328Z" fill="#FA8F8F"/>
</svg>
