<svg width="361" height="360" viewBox="0 0 361 360" fill="none" xmlns="http://www.w3.org/2000/svg">
<path fill-rule="evenodd" clip-rule="evenodd" d="M319.79 141.091C324.884 133.862 325.323 129.134 324.495 126.325C323.668 123.516 320.735 119.78 312.536 116.466C304.465 113.204 292.882 111.065 278.226 110.519C249.026 109.431 210.006 114.745 168.299 127.03C126.592 139.315 90.9226 156 66.9749 172.742C54.955 181.145 46.3808 189.221 41.3673 196.336C36.2735 203.566 35.8343 208.294 36.6616 211.103C37.4893 213.912 40.422 217.647 48.6209 220.961C56.6911 224.222 68.2748 226.361 82.931 226.907C112.131 227.994 151.151 222.681 192.858 210.397C234.565 198.112 270.236 181.427 294.183 164.685C306.203 156.282 314.777 148.206 319.79 141.091ZM306.041 181.644C279.811 199.981 241.963 217.504 198.705 230.246C155.447 242.987 114.143 248.776 82.1608 247.585C66.2258 246.992 52.0038 244.646 40.8665 240.145C29.8585 235.696 20.1818 228.392 16.8109 216.949C13.4409 205.507 17.6122 194.123 24.4506 184.418C31.3694 174.599 42.0488 164.919 55.1176 155.783C81.347 137.447 119.194 119.923 162.452 107.181C205.709 94.4394 247.014 88.6499 278.996 89.8412C294.931 90.4347 309.153 92.7804 320.29 97.2816C331.298 101.731 340.975 109.036 344.346 120.478C347.717 131.92 343.546 143.303 336.707 153.009C329.789 162.828 319.109 172.508 306.041 181.644Z" fill="#FA8F8F"/>
<path fill-rule="evenodd" clip-rule="evenodd" d="M290.999 179.999C290.999 236.568 245.137 282.426 188.564 282.426C131.991 282.426 86.1295 236.568 86.1295 179.999C86.1295 123.431 131.991 77.5723 188.564 77.5723C245.137 77.5723 290.999 123.431 290.999 179.999Z" fill="#3D1369"/>
<path fill-rule="evenodd" clip-rule="evenodd" d="M198.113 216.484C188.5 230.731 176.779 248.103 155.143 254.959C154.824 255.06 154.499 255.164 154.168 255.27C148.284 257.147 140.197 259.728 129.746 259.201C118.665 258.641 104.335 256.189 88.3853 246.56L98.7302 229.319C112.643 237.717 124.023 238.192 130.791 238.535C137.428 238.87 142.378 237.3 148.425 235.382C148.58 235.333 148.735 235.284 148.891 235.234C163.121 230.725 171.214 219.338 181.644 203.895C181.832 203.617 182.021 203.337 182.211 203.056C191.921 188.67 203.855 170.989 225.942 163.191C252.964 153.652 283.361 163.413 299.982 171.798L290.662 190.272C275.759 182.755 251.832 175.995 232.832 182.703C217.683 188.051 209.152 200.139 198.793 215.476C198.568 215.81 198.341 216.146 198.113 216.484Z" fill="#FA8F8F"/>
</svg>
