<svg width="132" height="88" viewBox="0 0 132 88" fill="none" xmlns="http://www.w3.org/2000/svg">
<path d="M84.4612 13.1689C82.913 11.6208 80.4028 11.6208 78.8547 13.1689L51.9824 40.0411L83.3022 40.0409L76.0537 32.7923L81.6601 27.1859L95.6762 41.2021C96.4198 41.9456 96.8373 42.9539 96.8373 44.0053C96.8373 45.0567 96.4198 46.065 95.6762 46.8084L81.6601 60.8247L76.0537 55.2182L83.3022 47.9697H51.9845L78.8547 74.8399C80.4028 76.388 82.913 76.3882 84.4612 74.8399L112.493 46.8077C114.041 45.2595 114.041 42.7493 112.493 41.2012L84.4612 13.1689Z" fill="#589AFE"/>
<g opacity="0.2">
<path d="M45.221 13.1611C46.7692 11.613 49.2792 11.613 50.8275 13.1611L56.434 18.7677L35.1653 40.0364H18.3457L45.221 13.1611Z" fill="#589AFE"/>
<path d="M18.3535 47.9609L45.2205 74.828C46.7687 76.3761 49.2787 76.3761 50.827 74.828L56.4316 69.2234L35.1691 47.9609H18.3535Z" fill="#589AFE"/>
</g>
<g opacity="0.5">
<path d="M67.6467 13.1689C66.0984 11.6208 63.5884 11.6208 62.0403 13.1689L35.168 40.0412L83.3055 40.0409L76.0569 32.7923L81.6634 27.1859L95.6795 41.2021C96.2253 41.7479 96.5955 42.4363 96.7538 43.1799C96.6003 42.4548 96.2426 41.7652 95.6795 41.2021L67.6467 13.1689Z" fill="#589AFE"/>
<path d="M96.6266 45.2891C96.5468 45.5218 96.4457 45.7467 96.3242 45.9609C96.4469 45.7449 96.5475 45.5199 96.6266 45.2891Z" fill="#589AFE"/>
<path d="M81.6643 60.823L76.0586 55.2173L83.3071 47.9688L35.1719 47.9689L62.0419 74.8389C63.5901 76.3872 66.1001 76.3872 67.6484 74.8389L81.6643 60.823Z" fill="#589AFE"/>
</g>
</svg>
