<svg width="132" height="88" viewBox="0 0 132 88" fill="none" xmlns="http://www.w3.org/2000/svg">
<mask id="mask0_2056_21839" style="mask-type:luminance" maskUnits="userSpaceOnUse" x="28" y="14" width="76" height="60">
<path d="M103.4 14.3633H28.5996V73.6389H103.4V14.3633Z" fill="white"/>
</mask>
<g mask="url(#mask0_2056_21839)">
<path d="M28.5996 64.3592V23.1272C28.5996 21.6504 29.798 20.4531 31.2762 20.4531H72.5477C74.9324 20.4531 76.1265 23.3335 74.4404 25.0181L33.1689 66.2501C31.4827 67.9347 28.5996 66.7415 28.5996 64.3592Z" fill="#FD0178"/>
<path d="M55.3672 64.3592V23.1272C55.3672 21.6504 56.5655 20.4531 58.0439 20.4531H99.3154C101.7 20.4531 102.894 23.3335 101.208 25.0181L59.9365 66.2501C58.2504 67.9347 55.3672 66.7415 55.3672 64.3592Z" fill="#0000FF"/>
<path fill-rule="evenodd" clip-rule="evenodd" d="M72.5489 20.4531H58.0439C56.5655 20.4531 55.3672 21.6504 55.3672 23.1272V44.0742L74.4416 25.0181C76.1279 23.3335 74.9336 20.4531 72.5489 20.4531Z" fill="#FC2DFC"/>
</g>
</svg>
