<svg width="132" height="88" viewBox="0 0 132 88" fill="none" xmlns="http://www.w3.org/2000/svg">
<mask id="mask0_2056_25126" style="mask-type:luminance" maskUnits="userSpaceOnUse" x="32" y="10" width="68" height="68">
<path d="M99.9834 77.9834H32.0156V10.0156H99.9834V77.9834Z" fill="white"/>
</mask>
<g mask="url(#mask0_2056_25126)">
<mask id="mask1_2056_25126" style="mask-type:luminance" maskUnits="userSpaceOnUse" x="32" y="10" width="68" height="68">
<path d="M32.0176 77.9833H99.9852V10.0156H32.0176V77.9833Z" fill="white"/>
</mask>
<g mask="url(#mask1_2056_25126)">
<path d="M66 -17.9727C31.7741 -17.9727 4.0293 9.77251 4.0293 43.998C4.0293 78.2236 31.7741 105.969 66 105.969C100.226 105.969 127.97 78.2236 127.97 43.998C127.97 9.77251 100.226 -17.9727 66 -17.9727Z" fill="#D5B5DF"/>
<path d="M75.0664 12.4648H70.9285C63.2981 12.4648 58.771 15.9567 58.771 23.9106V35.9383C58.771 38.3308 57.6067 39.8829 53.4688 40.0121V48.4186C57.6067 48.5478 58.771 50.0999 58.771 52.4924V64.5201C58.771 72.4742 63.2981 75.9656 70.9285 75.9656H75.0664V67.7536H72.2218C68.9232 67.7536 68.0828 66.4602 68.0828 63.5502V50.2938C68.0828 46.8668 66.3365 44.474 61.1641 44.2798V44.1506C66.3365 43.9567 68.0828 41.6288 68.0828 38.2015V24.8159C68.0828 21.9705 68.9232 20.6773 72.2218 20.6773H75.0664V12.4648Z" fill="black"/>
</g>
</g>
</svg>
