<svg width="132" height="88" viewBox="0 0 132 88" fill="none" xmlns="http://www.w3.org/2000/svg">
<path fill-rule="evenodd" clip-rule="evenodd" d="M30.8542 22.5234C28.6975 22.5234 26.9492 24.2718 26.9492 26.4284V30.3334V61.5734C26.9492 63.7302 28.6975 65.4784 30.8542 65.4784H32.8067C34.9634 65.4784 36.7117 63.7302 36.7117 61.5734V32.2859H54.2842C56.441 32.2859 58.1892 30.5377 58.1892 28.3809V26.4284C58.1892 24.2718 56.441 22.5234 54.2842 22.5234H34.7592H30.8542ZM69.9042 22.5234H67.9517C65.795 22.5234 64.0467 24.2718 64.0467 26.4284V61.5734C64.0467 63.7302 65.795 65.4784 67.9517 65.4784H69.9042C72.061 65.4784 73.8092 63.7302 73.8092 61.5734V26.4284C73.8092 24.2718 72.061 22.5234 69.9042 22.5234ZM101.144 22.5234H99.1917C97.035 22.5234 95.2867 24.2718 95.2867 26.4284V61.5734C95.2867 63.7302 97.035 65.4784 99.1917 65.4784H101.144C103.301 65.4784 105.049 63.7302 105.049 61.5734V26.4284C105.049 24.2718 103.301 22.5234 101.144 22.5234ZM83.5717 30.3334H85.5242C87.681 30.3334 89.4292 32.0817 89.4292 34.2384V55.7159C89.4292 57.8727 87.681 59.6209 85.5242 59.6209H83.5717C81.415 59.6209 79.6667 57.8727 79.6667 55.7159V34.2384C79.6667 32.0817 81.415 30.3334 83.5717 30.3334ZM48.4267 42.0484H44.5217C42.365 42.0484 40.6167 43.7967 40.6167 45.9534V47.9059C40.6167 50.0627 42.365 51.8109 44.5217 51.8109H48.4267C50.5835 51.8109 52.3317 50.0627 52.3317 47.9059V45.9534C52.3317 43.7967 50.5835 42.0484 48.4267 42.0484Z" fill="#0D87FF"/>
</svg>
