<svg width="132" height="88" viewBox="0 0 132 88" fill="none" xmlns="http://www.w3.org/2000/svg">
<path d="M60.0781 82H71.9219C78.4553 82 83.1081 81.8825 85.8815 81.6476C88.7014 81.4126 91.0986 80.8014 93.0725 79.8144C94.9054 78.8745 96.5738 77.6291 98.0778 76.078C99.6289 74.5739 100.875 72.9053 101.815 71.0725C102.802 69.0984 103.413 66.725 103.648 63.9516C103.883 61.1317 104 56.4552 104 49.922V38.1484C104 31.5683 103.883 26.8917 103.648 24.1187C103.413 21.3458 102.802 18.9723 101.815 16.9982C100.875 15.1181 99.6289 13.4261 98.0778 11.9221C96.5738 10.4181 94.9054 9.19604 93.0725 8.25602C91.0986 7.222 88.7014 6.5875 85.8815 6.35251C83.1081 6.11751 78.4553 6 71.9219 6H60.0781C53.5448 6 48.8918 6.11751 46.1187 6.35251C43.2987 6.5875 40.9016 7.222 38.9276 8.25602C37.0946 9.19604 35.4261 10.4181 33.9221 11.9221C32.371 13.4261 31.1255 15.1181 30.1855 16.9982C29.1985 18.9723 28.5875 21.3458 28.3525 24.1187C28.1175 26.8917 28 31.5683 28 38.1484V49.922C28 56.4552 28.1175 61.1317 28.3525 63.9516C28.5875 66.725 29.1985 69.0984 30.1855 71.0725C31.1255 72.9053 32.371 74.5739 33.9221 76.078C35.4261 77.6291 37.0946 78.8745 38.9276 79.8144C40.9016 80.8014 43.2987 81.4126 46.1187 81.6476C48.8918 81.8825 53.5448 82 60.0781 82Z" fill="#0080FF"/>
<path d="M28.0286 48.569L50.6318 25.966C51.3838 25.2137 52.3473 24.8378 53.5223 24.8378C54.5564 24.8378 55.4493 25.1668 56.2014 25.8247C56.9534 26.4829 57.3294 27.3994 57.3294 28.5746V51.5577L82.9213 25.966C83.7201 25.1668 84.6836 24.7673 85.8118 24.7673C86.8459 24.7673 87.7388 25.1199 88.4908 25.8247C89.29 26.5298 89.6895 27.4463 89.6895 28.5746V63.6135H81.6522V37.669L55.7784 63.2611C55.0264 63.9656 54.0863 64.3184 52.9583 64.3184C51.9713 64.3184 51.1018 64.0128 50.3498 63.402C49.6448 62.744 49.2923 61.8978 49.2923 60.8639V37.669L28.4994 58.8816C28.4406 58.4484 28.392 58.0047 28.3535 57.5503C28.1843 55.5195 28.076 52.5258 28.0286 48.569Z" fill="white"/>
</svg>
