<svg width="132" height="88" viewBox="0 0 132 88" fill="none" xmlns="http://www.w3.org/2000/svg">
<path fill-rule="evenodd" clip-rule="evenodd" d="M34.4665 11.3799C32.0083 12.2614 30.4006 13.7524 29.2563 16.2115L28.5996 17.6226V44.0112V70.3998L29.2647 71.8338C30.1823 73.8114 32.2077 75.7413 34.1189 76.459C35.6578 77.0367 35.941 77.0412 66.5123 76.9664L97.3533 76.8911L98.5406 76.2544C100.425 75.244 101.62 74.0242 102.543 72.1716L103.4 70.4508L103.397 44.0366L103.394 17.6226L102.708 16.1446C101.788 14.1608 99.8264 12.2963 97.8969 11.5719C96.3668 10.9972 95.975 10.9905 65.9158 11.0026C41.7702 11.0125 35.2739 11.0904 34.4665 11.3799ZM36.4683 18.4112C34.9901 19.1616 34.8237 21.547 36.198 22.2853C37.5243 22.9977 39.274 22.2848 39.6393 20.8835C39.8494 20.0769 39.0862 18.6296 38.2906 18.3259C37.371 17.9751 37.3226 17.9774 36.4683 18.4112ZM43.318 18.3259C42.5323 18.644 41.8115 19.6939 41.8115 20.5206C41.8115 21.5213 43.0129 22.5616 44.1687 22.5616C46.396 22.5616 47.1438 19.4853 45.166 18.4589C44.2689 17.9932 44.1589 17.9853 43.318 18.3259ZM49.7446 18.3352C49.0213 18.6333 48.2847 20.1215 48.4833 20.8835C48.8885 22.4383 50.9462 23.0866 52.2118 22.0581C53.0363 21.3879 53.1083 19.6581 52.3431 18.9039C51.6544 18.2252 50.5812 17.9904 49.7446 18.3352ZM33.0936 48.2588C33.0936 71.7341 32.9833 70.3464 34.9696 71.8668L36.0026 72.6576H65.8343C95.421 72.6576 95.6741 72.6528 96.6494 72.0779C97.1902 71.759 97.9177 71.0734 98.2664 70.5544L98.9 69.6106V48.344V27.0773H65.9968H33.0936V48.2588ZM57.7364 39.9098C56.1489 40.4779 54.7833 41.7008 53.813 43.4244C52.6297 45.527 52.5965 47.7231 53.7138 50.0075C54.4416 51.4957 54.9793 52.0009 60.2534 56.1505L65.9999 60.6721L71.7506 56.1355C77.0045 51.991 77.5695 51.4601 78.2871 49.9922C80.4964 45.476 77.6774 40.17 72.758 39.5855C70.648 39.3346 68.9699 39.7072 67.3832 40.7788L65.9504 41.7466L64.9897 41.0114C63.0659 39.5384 60.0534 39.0809 57.7364 39.9098Z" fill="#E10087"/>
</svg>
