<svg width="132" height="88" viewBox="0 0 132 88" fill="none" xmlns="http://www.w3.org/2000/svg">
<path fill-rule="evenodd" clip-rule="evenodd" d="M95.0454 8.21484C97.1988 8.21484 99.1921 9.3801 100.202 11.2744C101.17 13.0888 101.128 15.2269 100.095 17.0016L100.059 17.0613L90.9985 32.2187C89.9738 33.9327 88.1241 35.0025 86.147 35.0253L86.0824 35.0257L75.7355 35.0256L80.036 44.8712L80.0532 44.9L80.0796 44.9465C81.0924 46.7771 81.0677 48.9534 80.0174 50.7567L79.982 50.8167L70.9211 65.9741C69.8964 67.6881 68.0467 68.7579 66.0697 68.7807L66.0052 68.7811L53.3055 68.781L44.176 78.4102L44.1587 78.4281C43.2996 79.3014 42.1388 79.7886 40.9286 79.7886C40.626 79.7886 40.3233 79.758 40.0238 79.697C38.5476 79.3956 37.321 78.3826 36.7306 76.9855L36.714 76.9456L31.9095 65.9166L31.8842 65.8743L31.858 65.8288C31.8536 65.821 31.8492 65.8131 31.8446 65.8047C30.8318 63.9743 30.8563 61.7979 31.9065 59.9946L31.9419 59.9346L40.7301 45.2335L34.2545 30.4086L34.3731 30.3481L34.3713 30.3392C34.0973 28.9755 34.3179 27.5534 35.0216 26.3079L35.0604 26.2401L35.0964 26.1792L44.1574 11.0217C45.1822 9.30782 47.032 8.23802 49.0089 8.21484H49.0734H95.0454ZM47.4681 68.6658L37.8407 68.6656L40.6683 75.2067L40.6753 75.2241C40.7222 75.3412 40.798 75.4054 40.9108 75.4286C41.0115 75.4493 41.0929 75.428 41.17 75.3578L41.1834 75.3447L47.4681 68.6658ZM74.9896 46.178H45.8884C45.8563 46.178 45.8242 46.1791 45.7921 46.1812L45.7833 46.1819L53.7626 64.4341H66.0037C66.5069 64.4341 66.9916 64.1647 67.2672 63.732L67.2891 63.6966L76.3632 48.5299C76.6339 48.0774 76.6638 47.5525 76.4493 47.0801C76.202 46.5354 75.628 46.178 74.9896 46.178ZM42.8634 49.9259L35.6615 62.0645C35.375 62.5477 35.3584 63.1135 35.615 63.6114L35.6422 63.6621L35.6567 63.6868L35.6858 63.7344L35.7434 63.82L35.8077 63.9037L35.8692 63.974L35.8798 63.9853L35.9214 64.0275L35.9576 64.0619C36.1841 64.2675 36.4642 64.393 36.773 64.4252L36.8424 64.4311L36.8826 64.4332L36.9335 64.4341H49.1528L42.8634 49.9259ZM40.9696 35.055L44.1326 42.3091L44.1942 42.2881C44.7404 42.1053 45.3115 42.0062 45.8888 41.9972L45.9755 41.9965L74.184 41.9964L71.1574 35.0551L40.9696 35.055ZM94.965 12.4464H65.76L73.7417 30.7025H85.9785C86.4825 30.7025 86.9677 30.433 87.2435 30.0001L87.2653 29.9646L96.34 14.7981C96.6106 14.3458 96.6405 13.8213 96.4263 13.3494C96.184 12.8158 95.6285 12.4617 95.0057 12.4469L94.965 12.4464ZM61.2892 12.4464H49.1202C48.6197 12.4464 48.1371 12.7153 47.8625 13.1476L47.8407 13.183L38.7899 28.3497C38.5197 28.8024 38.4899 29.3281 38.7041 29.8011C38.9455 30.3341 39.498 30.6873 40.117 30.7021L40.1574 30.7025H69.2499L61.2892 12.4464Z" fill="#4B39EF"/>
</svg>
