<svg width="132" height="88" viewBox="0 0 132 88" fill="none" xmlns="http://www.w3.org/2000/svg">
<path d="M66.0004 78.0984C84.8333 78.0984 100.1 62.8313 100.1 43.9984C100.1 25.1655 84.8333 9.89844 66.0004 9.89844C47.1675 9.89844 31.9004 25.1655 31.9004 43.9984C31.9004 62.8313 47.1675 78.0984 66.0004 78.0984Z" fill="#367D5D"/>
<path d="M83.139 51.9452C83.139 52.4961 82.6669 52.7321 82.116 52.9682C79.9127 53.9125 77.5519 54.7781 75.0337 54.7781C71.4926 54.7781 69.84 52.5748 65.5907 52.5748C62.5217 52.5748 59.2953 53.6764 56.6984 54.8568C56.541 54.9355 56.3837 54.9355 56.2263 55.0142V60.9948C56.2263 62.6398 54.9873 63.6704 53.6294 63.6704C52.1343 63.6704 50.9539 62.49 50.9539 60.9948V32.1934C49.9309 31.4065 49.2227 30.1474 49.2227 28.731C49.2227 26.2915 51.19 24.3242 53.6294 24.3242C56.0689 24.3242 58.0362 26.2915 58.0362 28.731C58.0362 30.1474 57.4067 31.4065 56.305 32.1934V34.6329C56.6218 34.5273 60.8211 32.4295 65.1185 32.4295C70.1343 32.4295 72.6247 34.5542 74.8764 34.5542C77.8667 34.5542 81.1717 32.4295 81.9587 32.4295C82.5882 32.4295 83.139 32.9017 83.139 33.4525V51.9452Z" fill="white"/>
</svg>
