<svg width="132" height="88" viewBox="0 0 132 88" fill="none" xmlns="http://www.w3.org/2000/svg">
<path fill-rule="evenodd" clip-rule="evenodd" d="M66 78.375C84.9848 78.375 100.375 62.9848 100.375 44C100.375 25.0152 84.9848 9.625 66 9.625C47.0152 9.625 31.625 25.0152 31.625 44C31.625 62.9848 47.0152 78.375 66 78.375ZM80.9477 28.0864C78.9783 24.0154 74.8184 21.0511 69.7246 20.0891C65.0802 19.212 59.6291 20.1638 54.4326 22.759C48.2234 25.8602 44.3653 29.9795 42.7155 35.2689C42.0411 37.4312 41.976 41.9391 42.5936 43.7086C43.1426 45.2809 44.0723 46.4803 45.3029 47.2032C46.2901 47.7832 46.493 47.8179 48.862 47.8102C51.1999 47.8026 51.5108 47.7493 53.3404 47.0406C55.7532 46.1063 58.3507 44.5809 60.2154 43.0034C60.9888 42.349 61.6863 41.8138 61.7656 41.8138C62.0096 41.8138 63.0047 44.2591 63.2585 45.4818C64.0113 49.11 62.8998 55.5576 61.079 58.1244C60.1752 59.3987 59.784 60.6356 59.7896 62.2021C59.796 63.9427 60.312 65.0504 61.6889 66.2775L61.5405 66.6364C61.3016 67.2143 61.6492 67.8533 62.2706 67.9243C65.4064 68.2823 72.3712 68.6018 73.8351 67.184C73.5725 67.0408 73.1852 66.9236 72.9742 66.9236C72.7629 66.9236 73.1669 66.5766 73.8714 66.1524C75.088 65.4202 75.1867 65.3971 75.8248 65.6914C76.8839 66.1803 77.3471 66.2733 77.6795 66.0648C77.9319 65.9065 77.8818 65.7441 77.4065 65.1796C76.7489 64.3984 76.7186 64.2783 77.0867 63.9104C77.4901 63.5071 77.5845 63.5702 78.3039 64.7268C79.0034 65.8517 80.2779 66.7052 81.2577 66.7052C82.0491 66.7052 82.1068 66.4875 81.5047 65.7724C80.7631 64.8912 80.1014 63.5589 80.1014 62.9464C80.1014 62.5023 80.3854 62.3497 82.6007 61.602C86.7042 60.2171 87.3786 59.4651 85.9621 57.8528C85.2126 56.9995 83.2865 55.7934 82.6682 55.7899C82.365 55.7884 82.2853 55.596 82.2827 54.86C82.2759 53.0219 81.4285 52.8826 80.8909 54.6311C80.6302 55.479 80.5658 55.5615 80.5536 55.0639C80.5324 54.2132 80.1643 53.594 79.7695 53.7455C79.5908 53.8141 79.2939 54.3877 79.11 55.02C78.7972 56.0954 78.7229 56.1786 77.9638 56.3041C76.4339 56.5567 74.364 56.4427 72.7 56.0139C71.7845 55.7779 70.5626 55.5078 69.9846 55.4135L68.9338 55.2421L71.2405 53.4154C76.0426 49.6123 80.2003 44.6132 81.6188 40.9367C83.2083 36.8174 82.9706 32.2684 80.9477 28.0864ZM82.3738 58.364C82.9518 58.281 83.1041 57.5386 82.6162 57.1821C82.1822 56.8648 81.7195 56.9882 81.5344 57.4701C81.3544 57.9389 81.8274 58.4424 82.3738 58.364Z" fill="#3D2D43"/>
</svg>
