<svg width="132" height="88" viewBox="0 0 132 88" fill="none" xmlns="http://www.w3.org/2000/svg">
<path fill-rule="evenodd" clip-rule="evenodd" d="M61.9143 6.5702C60.9416 7.1183 59.706 8.4181 59.1693 9.45807C57.3453 12.9871 57.8517 14.4304 62.6584 19.3995C65.1153 21.9384 69.0636 26.1086 71.4334 28.6655C74.7739 32.2702 76.2014 33.3593 77.7857 33.5131C79.6045 33.6896 79.8526 33.9604 80.0412 35.9737C80.3751 39.5338 83.3249 41.9705 84.2814 39.4756C84.4971 38.9133 84.6735 34.8323 84.6735 30.4061C84.6735 19.1494 83.2189 16.3126 77.0223 15.4807C74.6247 15.1588 74.4704 15.0011 74.139 12.5289C73.6249 8.69151 70.8308 6.13392 66.8101 5.8185C64.7821 5.6595 63.0601 5.92386 61.9143 6.5702ZM63.9153 11.37L62.3903 12.62L65.5868 15.886L68.784 19.152L70.2695 17.7552C71.0872 16.9867 71.7557 16.1904 71.7557 15.9855C71.7557 15.3036 66.7481 10.1199 66.0887 10.1199C65.7322 10.1199 64.7536 10.6823 63.9153 11.37ZM47.8579 19.8151C46.8122 21.7703 48.0988 23.6932 50.4517 23.6932C51.945 23.6932 52.4424 23.3442 52.7621 22.0689C52.9952 21.1375 52.8293 20.0349 52.372 19.4835C51.2281 18.1042 48.6723 18.2917 47.8579 19.8151ZM37.5237 25.6322V32.0957H39.7843H42.0449V25.6322V19.1688H39.7843H37.5237V25.6322ZM89.8406 25.6322V32.0957H92.1012H94.3618V25.6322V19.1688H92.1012H89.8406V25.6322ZM72.7194 23.2084C76.098 27.0658 77.5267 28.2176 78.9322 28.2176C79.9133 28.2176 80.1523 27.7387 80.1523 25.7763C80.1523 24.4332 79.6995 22.6881 79.1466 21.8983C78.296 20.6825 77.5396 20.4615 74.2275 20.4615H70.3134L72.7194 23.2084ZM56.5773 26.2786C54.9245 28.0049 54.3019 28.2176 50.9019 28.2176H47.0834L47.3095 34.003C47.5769 40.8633 48.3287 42.1412 50.756 39.8596C51.6486 39.0206 52.3791 38.0272 52.3791 37.6529C52.3791 37.2781 54.61 34.7263 57.3363 31.9819L62.2934 26.9921L60.7272 25.6872C58.7101 24.0073 58.7585 24.0002 56.5773 26.2786ZM64.3596 32.0608C63.2707 33.2649 63.2784 33.3968 64.5353 35.1309C65.2581 36.1276 68.2828 39.3509 71.2564 42.2937L76.6632 47.6441L78.2159 45.9908L79.7679 44.3374L73.0281 37.5702C69.3214 33.8486 66.1106 30.803 65.893 30.803C65.6753 30.803 64.9849 31.3692 64.3596 32.0608ZM32.4024 37.1061C25.9209 40.4128 26.083 48.6337 32.6911 51.7717C35.8889 53.29 38.3271 52.3528 42.6959 47.926L46.1966 44.3782L42.9904 41.0728C40.2054 38.201 36.7641 35.9718 35.1222 35.975C34.8445 35.975 33.6205 36.4844 32.4024 37.1061ZM93.393 37.1934C92.3272 37.8617 90.159 39.7516 88.5746 41.3933L85.6933 44.3788L88.8575 47.5931C94.5388 53.3656 98.6343 53.9492 102.36 49.5192C105.685 45.5642 104.792 40.4704 100.241 37.4364C97.5718 35.6577 95.9352 35.5995 93.393 37.1934ZM57.6489 38.7731L56.2344 40.2797L57.5358 41.4586C58.7249 42.5354 59.3669 45.0226 58.4556 45.0226C58.245 45.0226 57.3421 44.4473 56.4488 43.7441C55.2074 42.7675 54.5363 42.6201 53.6017 43.1204C52.9294 43.4804 52.3791 43.9942 52.3791 44.2618C52.3791 44.5294 53.8485 46.1912 55.6447 47.9557L58.9096 51.1628L61.5326 48.3603C63.8597 45.8738 64.1136 45.2966 63.7816 43.2496C63.4528 41.2208 60.607 37.2664 59.4754 37.2664C59.2487 37.2664 58.4265 37.9444 57.6489 38.7731ZM32.9701 42.4973C31.1139 45.9688 34.4499 48.9013 37.2556 46.2636C39.1481 44.4848 39.1571 44.3407 37.4985 42.5594C35.8359 40.7729 33.9067 40.747 32.9701 42.4973ZM94.4212 42.5219C92.7251 44.3439 92.7329 44.4803 94.6298 46.2636C96.561 48.0791 98.7002 47.5931 99.2996 45.2029C100.166 41.7456 96.8439 39.9197 94.4212 42.5219ZM81.2212 48.7901C80.6334 49.4403 80.1523 50.1384 80.1523 50.3413C80.1523 50.5449 77.9724 52.9791 75.3081 55.7513C72.6438 58.5228 70.4639 60.9789 70.4639 61.209C70.4639 61.4391 71.0523 62.1604 71.7719 62.8119C73.0533 63.9721 73.134 63.9443 75.633 61.5024C77.9666 59.2221 78.3173 59.0786 79.7182 59.829C80.5617 60.2808 81.9485 60.5517 82.801 60.4308C84.2775 60.222 84.3596 59.9564 84.5391 54.8166C84.7729 48.1341 83.653 46.1007 81.2212 48.7901ZM66.0771 51.0258C63.002 54.1612 62.8515 54.7042 64.6161 56.3019C65.82 57.3923 65.955 57.3826 67.7945 56.0712C68.8518 55.3182 70.4775 53.7967 71.4082 52.6895C73.0107 50.7847 73.0423 50.6128 72.005 49.4655C70.3535 47.6396 69.0662 47.9783 66.0771 51.0258ZM47.7332 57.6418C47.624 62.0938 47.761 66.6008 48.0368 67.6569C48.6768 70.1046 51.1428 71.7173 54.9071 72.151C57.6366 72.4657 57.884 72.6441 58.0564 74.4313C58.411 78.0928 59.5329 79.8334 62.4498 81.2463C68.1116 83.9894 73.6934 80.6969 73.6934 74.6142C73.6934 72.8872 72.4165 71.3062 64.8421 63.6567C57.6689 56.4118 55.6486 54.7178 54.185 54.7178C52.6374 54.7178 52.3791 54.4586 52.3791 52.908C52.3791 50.7227 51.3301 49.547 49.3802 49.547C47.967 49.547 47.927 49.7448 47.7332 57.6418ZM37.5237 60.858V65.0593H39.7843H42.0449V60.858V56.6568H39.7843H37.5237V60.858ZM89.8406 64.0898V71.5227H92.1012H94.3618V64.0898V56.6568H92.1012H89.8406V64.0898ZM52.4172 61.5044C52.3926 66.7527 52.7104 67.1088 57.2077 66.8723L60.9481 66.6751L56.6917 62.1507L52.4346 57.6263L52.4172 61.5044ZM79.6355 65.1885C78.4064 66.4185 78.7294 68.1753 80.3841 69.2605C82.2688 70.4957 83.9139 69.9379 84.428 67.8883C85.1295 65.0929 81.6753 63.1474 79.6355 65.1885ZM60.8996 69.7744C60.1213 70.6043 59.4838 71.4697 59.4838 71.6985C59.4838 71.9273 60.6012 73.2905 61.9673 74.7273C64.6122 77.5092 66.4962 77.9862 68.1807 76.3005C69.1353 75.3452 68.9907 74.9942 66.3981 71.9739C64.8466 70.166 63.2933 68.5922 62.9464 68.4765C62.5996 68.3608 61.6786 68.9451 60.8996 69.7744Z" fill="#794BAB"/>
</svg>
