<svg width="360" height="360" viewBox="0 0 360 360" fill="none" xmlns="http://www.w3.org/2000/svg">
<path d="M304.848 202.507L280.058 177.282L230.042 127.701L213.515 111.174C195.248 92.907 165.239 92.907 146.537 111.174L130.01 127.701L79.9942 177.282L55.2037 202.072C41.2863 215.989 41.2863 238.17 55.2037 252.088C69.1212 266.005 91.3021 266.005 105.22 252.088L130.01 227.297L154.801 252.088C168.718 266.005 190.899 266.005 204.816 252.088C218.734 238.17 218.734 215.989 204.816 202.072L229.607 226.863L254.397 251.653C268.315 265.57 290.496 265.57 304.413 251.653C318.766 238.605 318.766 215.989 304.848 202.507Z" fill="#3713A0"/>
</svg>
