<svg width="132" height="88" viewBox="0 0 132 88" fill="none" xmlns="http://www.w3.org/2000/svg">
<path d="M65.9996 77.2766C84.3769 77.2766 99.2746 62.3788 99.2746 44.0016C99.2746 25.6243 84.3769 10.7266 65.9996 10.7266C47.6223 10.7266 32.7246 25.6243 32.7246 44.0016C32.7246 62.3788 47.6223 77.2766 65.9996 77.2766Z" fill="#111111"/>
<path d="M48.5703 26.5703H83.4298V28.1548H81.7699V29.7394H80.1099V31.3239H53.5503V40.831H68.49V42.4156H66.83V44.0001H65.1701V45.5846H53.5503V58.2608H51.8902V59.8453H50.2303V61.4298H48.5703V26.5703Z" fill="white"/>
<path d="M83.4298 61.4298H48.5703V59.8453H50.2303V58.2608H51.8902V56.6763H78.4498V47.1691H63.5102V45.5846H65.1701V44.0001H66.83V42.4156H78.4498V29.7394H80.1099V28.1548H81.7699V26.5703H83.4298V61.4298Z" fill="#0124E3"/>
</svg>
