<svg width="132" height="88" viewBox="0 0 132 88" fill="none" xmlns="http://www.w3.org/2000/svg">
<path fill-rule="evenodd" clip-rule="evenodd" d="M32.7246 43.9981V77.2424L65.9842 77.2269L99.2437 77.2115L99.2592 43.9827L99.2746 10.7539H65.9996H32.7246V43.9981ZM32.7551 44.0289C32.7551 62.3131 32.7622 69.7839 32.7708 60.6305C32.7794 51.4771 32.7794 36.5172 32.7708 27.3863C32.7622 18.2555 32.7551 25.7446 32.7551 44.0289ZM79.6974 28.3225C78.9796 28.5312 78.4534 28.9763 78.1382 29.6415C77.954 30.0305 77.9428 30.0944 77.9428 30.762C77.9428 31.4296 77.954 31.4935 78.1382 31.8825C78.4963 32.6382 79.1098 33.0865 79.9898 33.2356C81.4453 33.482 82.6712 32.6066 82.9052 31.1539C83.0908 30.0011 82.4515 28.8101 81.4364 28.4176C81.0027 28.2499 80.1143 28.2014 79.6974 28.3225ZM45.7452 28.4252C45.0472 28.517 44.3356 28.8759 43.9807 29.3152C43.5215 29.8837 43.37 30.3732 43.3284 31.4238L43.296 32.2395H42.4736H41.6513V33.3168V34.3942H42.4824H43.3135V38.0277V41.6612L44.5909 41.6445L45.8684 41.6279L45.8842 38.011L45.9001 34.3942H47.0693H48.2386V33.3168V32.2395H47.0381H45.8376V31.6784C45.8376 31.223 45.8618 31.0742 45.9665 30.8879C46.1899 30.4905 46.3652 30.4295 47.3613 30.4026L48.2386 30.3789V29.37V28.361L47.1766 28.3688C46.5925 28.3731 45.9484 28.3985 45.7452 28.4252ZM79.9436 28.8124C79.5091 28.9131 79.2903 29.0331 79.0078 29.3256C78.5115 29.8396 78.3454 30.6502 78.579 31.4192C78.831 32.249 79.3969 32.6729 80.313 32.718C81.0268 32.7532 81.4215 32.6066 81.8369 32.1521C82.2023 31.7522 82.3446 31.3527 82.3446 30.7264C82.3446 29.3677 81.2643 28.5065 79.9436 28.8124ZM71.9957 31.5952L70.1243 33.5981L70.1057 33.9038L70.087 34.2095H70.983H71.8788L71.8799 36.5027C71.8811 39.0418 71.9115 39.3294 72.2493 39.9985C72.6164 40.7259 73.2433 41.2384 74.0951 41.5077C74.3608 41.5917 74.7352 41.6209 75.8343 41.6433L77.2348 41.6718V40.5332V39.3945L76.3576 39.3683C75.1979 39.3336 74.8835 39.2008 74.5663 38.6113C74.4393 38.3754 74.4329 38.2776 74.4146 36.2873L74.3955 34.2095H75.8152H77.2348V33.1629V32.1164H75.7881H74.3414V30.8543V29.5923H74.1042C73.8723 29.5923 73.826 29.6362 71.9957 31.5952ZM79.5742 30.7927V31.9932H79.8205H80.0668V31.5623C80.0668 31.1458 80.0718 31.1313 80.218 31.1313C80.3401 31.1313 80.4174 31.214 80.6208 31.5623L80.8725 31.9932H81.1798C81.5305 31.9932 81.5325 32.0197 81.136 31.3999L80.9312 31.0796L81.1453 30.8654C81.3272 30.6835 81.3596 30.6088 81.3596 30.3709C81.3596 29.7482 81.1266 29.5923 80.196 29.5923H79.5742V30.7927ZM80.0913 30.1097C80.073 30.1572 80.0669 30.2889 80.0778 30.4021C80.0959 30.591 80.1164 30.6097 80.3258 30.627C80.6449 30.6535 80.8055 30.5531 80.8055 30.3273C80.8055 30.1864 80.7685 30.1292 80.6476 30.0832C80.4182 29.996 80.1296 30.0097 80.0913 30.1097ZM52.8153 31.9612C50.8231 32.3227 49.3543 33.6439 48.8443 35.5331C48.7375 35.9287 48.7115 36.1954 48.7123 36.8875C48.7131 37.6417 48.7336 37.8171 48.8768 38.2916C49.1611 39.2339 49.5975 39.9487 50.2669 40.5684C52.1189 42.283 55.2526 42.3469 57.2366 40.7105C57.7328 40.3012 58.1582 39.7449 58.4653 39.1038C58.8102 38.3836 58.9006 37.9855 58.9339 37.0414C58.9672 36.0933 58.855 35.4627 58.5225 34.7294C57.588 32.6685 55.2275 31.5234 52.8153 31.9612ZM64.8914 32.0226C64.0937 32.1977 63.363 32.6021 62.93 33.108C62.7107 33.3642 62.7094 33.3647 62.6534 33.218C62.6225 33.137 62.507 32.8559 62.3968 32.5935L62.1964 32.1164H61.343H60.4896V36.8875V41.6587H61.7517H63.0137L63.0142 39.0576C63.0145 37.5353 63.0415 36.2906 63.0794 36.0564C63.2132 35.2296 63.642 34.6083 64.2758 34.3232C64.5093 34.2182 64.7025 34.184 65.0761 34.1817C65.6886 34.178 66.0652 34.3124 66.3615 34.6404C66.7858 35.11 66.793 35.1725 66.8162 38.5959L66.837 41.6587H68.0988H69.3605L69.34 38.2573C69.3216 35.2331 69.3073 34.8152 69.2112 34.4887C68.8312 33.1975 67.9434 32.3046 66.7627 32.0263C66.2856 31.9138 65.3946 31.9121 64.8914 32.0226ZM53.0405 34.3869C52.5473 34.5461 52.3504 34.663 52.0211 34.9923C51.114 35.8995 51.0413 37.6543 51.8719 38.5979C52.4132 39.2129 53.0875 39.476 53.9998 39.4283C54.6727 39.3931 55.1924 39.1834 55.6047 38.7806C56.5946 37.8134 56.6288 36.0687 55.678 35.0372C55.0538 34.36 53.9598 34.0903 53.0405 34.3869ZM45.3303 43.7862C44.6585 43.949 44.1845 44.2587 43.8386 44.761C43.4964 45.2578 43.3689 45.7416 43.3297 46.6915L43.296 47.5072H42.4736H41.6513V48.5538V49.6003H42.4824H43.3135V53.2326V56.8648H44.6063H45.8991V53.2326V49.6003H47.0688H48.2386V48.5538V47.5072H47.0381H45.8376L45.8377 46.9377C45.8378 45.8721 46.0258 45.7221 47.3613 45.722L48.2386 45.7218V44.706V43.6903L46.9611 43.6954C46.0968 43.6989 45.5694 43.7282 45.3303 43.7862ZM78.5892 44.9215V46.0912H79.8513H81.1133V44.9215V43.7518H79.8513H78.5892V44.9215ZM60.4896 50.4007V56.8648H61.4292H62.3689L62.4849 56.4492C62.6576 55.831 62.6362 55.8424 63.0392 56.1553C63.5349 56.5402 64.2749 56.8972 64.8358 57.022C65.4803 57.1654 66.6293 57.1191 67.2 56.9268C68.7105 56.4178 69.7819 55.2515 70.2261 53.6327C70.3404 53.2159 70.3613 52.9794 70.3618 52.0936C70.3623 51.1265 70.3495 51.005 70.1931 50.493C69.7222 48.9516 68.6804 47.8146 67.3232 47.361C65.9052 46.8871 64.428 47.0895 63.3611 47.9038C63.2033 48.0243 63.0606 48.1228 63.044 48.1228C63.0273 48.1228 63.0137 47.1809 63.0137 46.0297V43.9365H61.7517H60.4896V50.4007ZM52.7825 47.1376C51.6255 47.2806 50.5049 47.8784 49.8014 48.7283C49.3876 49.2282 48.959 50.0768 48.7858 50.7393C48.6017 51.4433 48.5996 52.6864 48.7813 53.4301C49.202 55.1523 50.3194 56.3908 51.9221 56.9113C52.5725 57.1225 53.7646 57.1752 54.4108 57.0212C54.9978 56.8815 55.6341 56.5738 56.1228 56.1934C56.3655 56.0046 56.5288 55.914 56.5447 55.9595C56.5589 56.0003 56.616 56.2138 56.6717 56.4339L56.7728 56.834L57.7078 56.851L58.6427 56.868V52.1244V47.3808L57.7043 47.3978L56.7659 47.4148L56.6254 47.815C56.5482 48.0351 56.4719 48.252 56.4558 48.297C56.4361 48.3524 56.3223 48.2868 56.1033 48.0938C55.7339 47.7681 54.9558 47.3643 54.4523 47.237C53.9836 47.1185 53.2773 47.0765 52.7825 47.1376ZM87.0542 47.1163C85.2492 47.2888 83.7545 48.3112 83.0176 49.8774C82.6964 50.56 82.5916 50.9943 82.5501 51.8166C82.431 54.1731 83.7354 56.1324 85.9153 56.871C86.4352 57.0472 86.5961 57.0723 87.3654 57.0975C88.1033 57.1216 88.3074 57.1067 88.7506 56.9962C89.9219 56.7041 90.9293 56.0083 91.5716 55.048C91.8903 54.5716 92.2247 53.7903 92.2932 53.3623L92.3336 53.1094H91.0451H89.7567L89.6193 53.3923C89.4276 53.7869 88.9128 54.3108 88.5353 54.4955C87.371 55.0652 86.0035 54.5833 85.4266 53.3999C85.0383 52.6034 85.0323 51.6776 85.4101 50.8701C85.6678 50.3194 85.9707 50.0099 86.5153 49.7408C86.9404 49.5306 87.0198 49.5124 87.5083 49.5125C87.9742 49.5125 88.0896 49.5361 88.4504 49.7051C88.9407 49.9347 89.3261 50.2751 89.5783 50.7015L89.763 51.0138L91.0096 51.0151L92.2563 51.0163V50.872C92.2563 50.6606 92.0482 50.0912 91.7945 49.6083C91.0212 48.1367 89.5608 47.2226 87.8237 47.1228C87.5359 47.1063 87.1896 47.1034 87.0542 47.1163ZM75.6556 47.4099C75.1613 47.5298 74.6847 47.792 74.3002 48.1556C74.1065 48.3388 73.939 48.4797 73.928 48.4687C73.917 48.4578 73.8299 48.2161 73.7344 47.9318L73.5608 47.4148L72.7198 47.3977L71.8788 47.3806V52.1227V56.8648H73.137H74.3952L74.4167 54.0175C74.4413 50.7768 74.4487 50.7221 74.9291 50.241C75.2627 49.9069 75.6137 49.7966 76.5032 49.7464L77.2348 49.705V48.5137V47.3225L76.6038 47.3277C76.2567 47.3306 75.8301 47.3675 75.6556 47.4099ZM78.5892 52.1244V56.8648H79.8513H81.1133V52.1244V47.3841H79.8513H78.5892V52.1244ZM53.1887 49.5407C52.0073 49.7749 51.1922 50.8147 51.1943 52.0847C51.1961 53.1626 51.7147 54.0454 52.5783 54.4407C53.5593 54.8899 54.6187 54.7231 55.3767 54.0001C56.626 52.8085 56.3429 50.5918 54.8404 49.7999C54.2886 49.509 53.7637 49.4267 53.1887 49.5407ZM64.8715 49.5396C63.249 49.88 62.3673 51.6871 63.0748 53.2222C63.9375 55.0939 66.5872 55.1861 67.4967 53.3761C67.9179 52.538 67.9127 51.6297 67.4819 50.7797C67.2746 50.3705 66.6716 49.8265 66.251 49.6692C65.8501 49.5191 65.2415 49.462 64.8715 49.5396Z" fill="black"/>
</svg>
