<svg width="132" height="88" viewBox="0 0 132 88" fill="none" xmlns="http://www.w3.org/2000/svg">
<mask id="mask0_2056_24118" style="mask-type:luminance" maskUnits="userSpaceOnUse" x="41" y="14" width="50" height="60">
<path d="M90.7293 14.0234H41.2705V73.9734H90.7293V14.0234Z" fill="white"/>
</mask>
<g mask="url(#mask0_2056_24118)">
<path d="M77.5418 32.7578C77.5418 32.0401 77.8156 31.3493 78.3072 30.8264L90.0216 18.3698C91.525 16.7212 90.4726 14.0234 88.3679 14.0234H64.6142C62.5095 14.0234 61.4571 16.7212 62.9605 18.3698L74.6747 30.8264C75.1664 31.3493 75.4403 32.0401 75.4403 32.7578C75.4403 33.4756 75.1664 34.1663 74.6747 34.6893L62.9605 47.1458C61.4571 48.7944 62.5095 51.4922 64.6142 51.4922H88.3679C90.4726 51.4922 91.525 48.7944 90.0216 47.1458L78.3072 34.6893C77.8156 34.1663 77.5418 33.4756 77.5418 32.7578Z" fill="black"/>
<path d="M41.2705 17.0209C41.2705 15.3655 42.6125 14.0234 44.268 14.0234H60.7543V70.9759C60.7543 72.6315 59.4123 73.9734 57.7568 73.9734H44.268C42.6125 73.9734 41.2705 72.6315 41.2705 70.9759V17.0209Z" fill="black"/>
</g>
</svg>
