<svg width="132" height="88" viewBox="0 0 132 88" fill="none" xmlns="http://www.w3.org/2000/svg">
<path fill-rule="evenodd" clip-rule="evenodd" d="M103.898 22.9765C104.46 26.4214 102.632 29.6131 102.632 29.6131L101.566 31.4805C97.7613 36.6641 90.3296 39.3581 85.3194 39.1275C78.8981 39.4847 72.979 36.16 73.7143 32.0704C74.7347 26.389 88.8569 28.0008 99.7284 29.2539C99.7284 29.2539 102.068 26.9316 101.672 23.8704C101.066 19.2337 94.5687 18.5686 90.1263 19.0992C82.9676 19.9542 72.7039 23.8624 62.8009 28.0725C63.5262 28.6644 64.176 29.4337 64.0785 30.2294C63.9009 31.7386 63.2473 33.8511 62.5458 36.1186C61.6371 39.0571 60.6485 42.2555 60.511 44.7356C61.6371 44.4846 63.4566 43.5867 63.6199 43.5867C64.4591 43.5683 65.3717 46.054 65.3917 46.8372C65.3958 47.0087 65.3399 47.1791 65.2721 47.3205C65.1746 47.5244 65.053 47.6682 65.053 47.6682C62.3067 52.6886 59.664 66.6637 60.9834 71.674C61.081 72.0516 60.6326 72.5659 60.1681 72.5718C58.831 72.5963 54.9008 72.2455 54.0958 70.6471C52.4076 67.3053 53.4439 55.1677 53.7149 52.0039L53.727 51.8584C53.7588 51.4757 53.7788 51.2576 53.7729 51.2455C53.7729 51.2455 47.8438 54.8455 45.9046 54.8863C41.534 54.9679 40.6691 50.009 40.6392 48.7231C40.6312 48.3654 40.8126 48.2313 41.0179 48.1999C41.259 48.1631 41.536 48.2701 41.5739 48.3209C42.0602 48.9392 42.678 49.3433 43.3596 49.3274C47.6205 49.2437 54.2911 46.7191 54.2911 46.7191C55.7937 38.3986 56.2082 33.8765 55.991 30.9947C46.5344 35.0723 38.1839 38.6153 34.2039 38.6153C27.0512 38.6153 27.954 29.8029 28.1234 29.6968C28.1992 29.6459 28.3407 29.624 28.4841 29.629C28.6376 29.634 28.7931 29.6699 28.8708 29.7336C28.8708 29.7336 30.1861 31.1726 31.8283 31.1726C37.1615 31.1726 46.4527 27.936 56.6108 24.3975C68.8535 20.1326 82.3537 15.4297 91.6928 15.4297L91.9359 15.4337C91.952 15.4297 91.9697 15.4297 91.9897 15.4297C98.3195 15.4297 103.13 18.1645 103.898 22.9765ZM62.8787 47.4744C62.6016 48.295 62.3126 49.1854 62.0177 50.1231C61.8503 50.6582 61.6789 51.2088 61.5075 51.7702C61.2206 52.718 60.9316 53.6986 60.6485 54.692C60.0985 56.6267 59.5704 58.6112 59.1159 60.5013C58.7771 61.9164 58.4781 63.278 58.243 64.5272C58.2192 63.7454 58.2949 62.3399 58.4343 60.6638C58.6216 58.3755 58.9265 55.5822 59.2455 53.1843C59.3689 52.2431 59.4965 51.3633 59.6202 50.598C59.7636 49.7086 59.9032 48.9752 60.0267 48.4823C60.0267 48.4823 62.8646 46.9009 62.8787 47.4744ZM79.6475 32.2129C80.4287 28.8333 94.0962 30.6295 97.9389 31.0764C95.1007 33.5048 90.9634 35.2801 86.5968 35.2801C82.3419 35.2801 79.2069 34.1212 79.6475 32.2129Z" fill="#F75454"/>
</svg>
