<svg width="132" height="88" viewBox="0 0 132 88" fill="none" xmlns="http://www.w3.org/2000/svg">
<path d="M100.333 50.1889L93.5159 43.2519L79.7615 29.6171L75.2166 25.0722C70.1932 20.0489 61.9406 20.0489 56.7977 25.0722L52.2528 29.6171L38.4984 43.2519L31.681 50.0692C27.8537 53.8965 27.8537 59.9963 31.681 63.8236C35.5083 67.6509 41.6081 67.6509 45.4354 63.8236L52.2528 57.0062L59.0701 63.8236C62.8974 67.6509 68.9972 67.6509 72.8245 63.8236C76.6518 59.9963 76.6518 53.8965 72.8245 50.0692L79.6419 56.8866L86.4593 63.704C90.2866 67.5313 96.3863 67.5313 100.214 63.704C104.161 60.1159 104.161 53.8965 100.333 50.1889Z" fill="#3713A0"/>
</svg>
