<svg width="132" height="88" viewBox="0 0 132 88" fill="none" xmlns="http://www.w3.org/2000/svg">
<path fill-rule="evenodd" clip-rule="evenodd" d="M35.2529 31.0753V32.6935H36.2048H37.1567V32.1224V31.5512H37.8231H38.4894V30.5041V29.457H36.8712H35.2529V31.0753ZM43.0967 30.5045V31.5519L45.1052 31.5421L47.1137 31.5322L47.1238 30.4946L47.134 29.457H45.1153H43.0967V30.5045ZM35.2529 38.7286V40.9561H36.2048H37.1567V38.7286V36.5012H36.2048H35.2529V38.7286ZM35.2529 47.7337V49.9421H36.2048H37.1567V47.7337V45.5252H36.2048H35.2529V47.7337ZM35.2529 56.7578V58.9662H36.2048H37.1567V56.7578V54.5493H36.2048H35.2529V56.7578ZM88.8648 57.4527C88.8651 58.6307 88.8759 59.6587 88.8889 59.7372L88.9125 59.88H89.8594H90.8063V57.5954V55.3109H89.8354H88.8644L88.8648 57.4527ZM35.2529 65.839V68.1426H36.2048H37.1567V65.839V63.5354H36.2048H35.2529V65.839ZM88.8898 64.3223C88.8578 64.3543 88.8569 68.568 88.8889 68.7613L88.9125 68.9041H89.8594H90.8063V66.6005V64.2969H89.8608C89.3407 64.2969 88.9038 64.3083 88.8898 64.3223ZM35.2529 74.844V77.1286H36.2048H37.1567V74.844V72.5594H36.2048H35.2529V74.844ZM88.8644 75.4479C88.8644 76.6178 88.8753 77.6544 88.8886 77.7515L88.9128 77.9282H89.8596H90.8063V75.6246V73.321H89.8354H88.8644V75.4479ZM35.2529 83.2779V85.0104H36.8712H38.4894V84.0395V83.0685H37.9183H37.3471V82.9733C37.3471 82.8972 37.3281 82.8781 37.2519 82.8781H37.1567V82.2118V81.5455H36.2048H35.2529V83.2779ZM88.8898 81.5709C88.8758 81.5848 88.8644 81.8847 88.8644 82.2372C88.8644 82.8527 88.8614 82.8781 88.7883 82.8781C88.7324 82.8781 88.7121 82.9035 88.7121 82.9733V83.0685H88.0458H87.3794V84.0395V85.0104H89.0929H90.8063V83.2779V81.5455H89.8608C89.3407 81.5455 88.9038 81.5569 88.8898 81.5709ZM42.4398 83.0956L42.3351 83.1117V84.061V85.0104H44.6394H46.9437L46.9335 84.049L46.9233 83.0876L44.7339 83.0836C43.5298 83.0814 42.4974 83.0868 42.4398 83.0956ZM51.4449 83.0954L51.3592 83.1119V84.0612V85.0104H53.6438H55.9284V84.0395V83.0685L53.7295 83.0737C52.5201 83.0766 51.492 83.0863 51.4449 83.0954ZM60.5356 84.0392V85.0104H62.7447H64.9538L64.9436 84.049L64.9334 83.0876L62.7345 83.0777L60.5356 83.0679V84.0392ZM69.5473 83.0936C69.5332 83.1077 69.5216 83.5448 69.5216 84.0649V85.0104H71.7497H73.9779L73.9677 84.049L73.9575 83.0876L71.7653 83.0777C70.5595 83.0723 69.5615 83.0795 69.5473 83.0936ZM78.5457 84.0395V85.0104H80.7542H82.9626V84.0395V83.0685H80.7542H78.5457V84.0395Z" fill="#CCCCCC"/>
<path fill-rule="evenodd" clip-rule="evenodd" d="M82.7725 3.08738C82.7725 3.17621 82.7598 3.18257 82.5821 3.18257C82.4044 3.18257 82.3917 3.18893 82.3917 3.27776C82.3917 3.37082 82.3853 3.37295 82.1061 3.37295C81.8269 3.37295 81.8206 3.37508 81.8206 3.46814C81.8206 3.55815 81.8091 3.56333 81.6111 3.56333C81.4131 3.56333 81.4017 3.56851 81.4017 3.65852C81.4017 3.7509 81.3939 3.75371 81.1378 3.75371C80.8932 3.75371 80.8731 3.75996 80.8618 3.83939C80.8506 3.91801 80.8269 3.92597 80.5736 3.93625C80.3088 3.94699 80.2975 3.95125 80.2975 4.04096C80.2975 4.12892 80.2851 4.13448 80.0881 4.13448C79.8901 4.13448 79.8787 4.13966 79.8787 4.22967C79.8787 4.32273 79.8723 4.32486 79.5931 4.32486C79.3139 4.32486 79.3075 4.32699 79.3075 4.42005C79.3075 4.51254 79.2999 4.51524 79.041 4.51524C78.7821 4.51524 78.7744 4.51794 78.7744 4.61043C78.7744 4.70044 78.763 4.70562 78.565 4.70562C78.367 4.70562 78.3556 4.7108 78.3556 4.80081C78.3556 4.88534 78.3396 4.89604 78.2128 4.89642C77.9346 4.89722 77.7845 4.93888 77.7845 5.01522C77.7845 5.07523 77.7546 5.08639 77.5941 5.08639C77.4164 5.08639 77.4037 5.09274 77.4037 5.18158C77.4037 5.27464 77.3973 5.27677 77.1181 5.27677C76.8389 5.27677 76.8326 5.2789 76.8326 5.37196C76.8326 5.45649 76.8166 5.46719 76.6898 5.46757C76.4148 5.46837 76.2614 5.51021 76.2614 5.58439C76.2614 5.64097 76.2251 5.65563 76.0615 5.66507C75.8873 5.67508 75.86 5.68761 75.8494 5.76224C75.8393 5.83394 75.8136 5.84791 75.6924 5.84791C75.44 5.84791 75.3095 5.88846 75.3095 5.9669C75.3095 6.02394 75.2808 6.03837 75.1667 6.03871C74.8958 6.03951 74.7384 6.08155 74.7384 6.15313C74.7384 6.20553 74.6932 6.22555 74.5289 6.24608C72.9756 6.43994 60.7263 11.0077 60.7263 11.5263C60.7263 11.583 60.6974 11.5975 60.5835 11.5979C60.3052 11.5987 60.1551 11.6403 60.1551 11.7167C60.1551 11.7767 60.1253 11.7878 59.9647 11.7878C59.787 11.7878 59.7743 11.7942 59.7743 11.883C59.7743 11.9675 59.7584 11.9782 59.6316 11.9786C59.3617 11.9794 59.2032 12.0215 59.2032 12.0924C59.2032 12.1633 59.0447 12.2054 58.7748 12.2062C58.6599 12.2066 58.6321 12.2208 58.6321 12.2792C58.6321 12.3375 58.5944 12.357 58.4417 12.378C58.289 12.399 58.2513 12.4186 58.2513 12.4768C58.2513 12.5352 58.2234 12.5494 58.1085 12.5498C57.8348 12.5506 57.6802 12.5925 57.6802 12.6658C57.6802 12.7202 57.6372 12.7396 57.4707 12.7604C57.3064 12.7809 57.2613 12.801 57.2613 12.8533C57.2613 12.9249 57.1039 12.967 56.833 12.9678C56.719 12.9681 56.6902 12.9826 56.6902 13.0394C56.6902 13.1139 56.5408 13.1573 56.2808 13.1582C56.1842 13.1585 56.1571 13.1746 56.1571 13.232C56.1571 13.2924 56.12 13.31 55.9477 13.3316C55.7834 13.3521 55.7383 13.3721 55.7383 13.4245C55.7383 13.4961 55.5808 13.5381 55.3099 13.5389C55.1831 13.5393 55.1671 13.55 55.1671 13.6345C55.1671 13.7234 55.1544 13.7297 54.9767 13.7297C54.8162 13.7297 54.7863 13.7409 54.7863 13.8009C54.7863 13.877 54.6364 13.9188 54.3607 13.9197C54.2444 13.92 54.2184 13.9348 54.2083 14.0058C54.1972 14.0844 54.1734 14.0924 53.9201 14.1026C53.6554 14.1134 53.6441 14.1176 53.6441 14.2073C53.6441 14.2953 53.6316 14.3009 53.4346 14.3009C53.2553 14.3009 53.2252 14.3111 53.2252 14.3723C53.2252 14.4507 53.0947 14.4912 52.8424 14.4912C52.7211 14.4912 52.6955 14.5052 52.6853 14.5769C52.6741 14.6555 52.6504 14.6635 52.3971 14.6738C52.1324 14.6845 52.121 14.6888 52.121 14.7785C52.121 14.8664 52.1086 14.872 51.9116 14.872C51.7136 14.872 51.7022 14.8772 51.7022 14.9672C51.7022 15.0596 51.6944 15.0624 51.4383 15.0624C51.1936 15.0624 51.1735 15.0686 51.1622 15.1481C51.1516 15.2227 51.1243 15.2352 50.9502 15.2452C50.7666 15.2558 50.7503 15.2643 50.7503 15.3499C50.7503 15.4406 50.7423 15.4431 50.4647 15.4431C50.1855 15.4431 50.1791 15.4453 50.1791 15.5383C50.1791 15.6308 50.1715 15.6335 49.9126 15.6335C49.6537 15.6335 49.646 15.6362 49.646 15.7287C49.646 15.8187 49.6346 15.8239 49.4366 15.8239C49.2386 15.8239 49.2272 15.8291 49.2272 15.9191C49.2272 16.0122 49.2208 16.0143 48.9416 16.0143C48.6624 16.0143 48.6561 16.0164 48.6561 16.1095C48.6561 16.2025 48.6497 16.2047 48.3705 16.2047C48.0913 16.2047 48.0849 16.2068 48.0849 16.2999C48.0849 16.376 48.0659 16.3951 47.9897 16.3951C47.8967 16.3951 47.8945 16.4014 47.8945 16.6806C47.8945 16.9598 47.8967 16.9662 47.9897 16.9662C48.0786 16.9662 48.0849 16.9789 48.0849 17.1566C48.0849 17.3343 48.0913 17.347 48.1801 17.347C48.2732 17.347 48.2753 17.3533 48.2753 17.6325C48.2753 17.9118 48.2774 17.9181 48.3705 17.9181C48.4605 17.9181 48.4657 17.9295 48.4657 18.1275C48.4657 18.3255 48.4709 18.337 48.5609 18.337C48.6534 18.337 48.6561 18.3446 48.6561 18.6035C48.6561 18.8624 48.6588 18.87 48.7512 18.87C48.8413 18.87 48.8464 18.8814 48.8464 19.0794C48.8464 19.2774 48.8516 19.2889 48.9416 19.2889C49.0347 19.2889 49.0368 19.2952 49.0368 19.5744C49.0368 19.8536 49.039 19.86 49.132 19.86C49.2245 19.86 49.2272 19.8676 49.2272 20.1265C49.2272 20.3855 49.2299 20.3931 49.3224 20.3931C49.4124 20.3931 49.4176 20.4045 49.4176 20.6025C49.4176 20.8005 49.4228 20.8119 49.5128 20.8119C49.5973 20.8119 49.608 20.8279 49.6084 20.9547C49.6092 21.233 49.6508 21.3831 49.7272 21.3831C49.7872 21.3831 49.7983 21.4129 49.7983 21.5734C49.7983 21.7511 49.8047 21.7638 49.8935 21.7638C49.9866 21.7638 49.9887 21.7702 49.9887 22.0494C49.9887 22.3286 49.9909 22.335 50.0839 22.335C50.1685 22.335 50.1791 22.351 50.1795 22.4778C50.1803 22.756 50.222 22.9061 50.2983 22.9061C50.3583 22.9061 50.3695 22.9359 50.3695 23.0965C50.3695 23.2742 50.3759 23.2869 50.4647 23.2869C50.5492 23.2869 50.5599 23.3029 50.5603 23.4297C50.5611 23.7046 50.6029 23.858 50.6771 23.858C50.7337 23.858 50.7484 23.8943 50.7578 24.0579C50.7678 24.2321 50.7803 24.2594 50.855 24.27C50.9232 24.2797 50.9407 24.3068 50.9411 24.4033C50.9419 24.6522 50.986 24.8099 51.0547 24.8099C51.1212 24.8099 51.1691 25.0035 51.1691 25.2722C51.1691 25.3535 51.1873 25.3811 51.2409 25.3811C51.2993 25.3811 51.3175 25.42 51.3388 25.5905C51.3596 25.757 51.379 25.7999 51.4334 25.7999C51.5068 25.7999 51.5486 25.9545 51.5494 26.2283C51.5498 26.3432 51.564 26.3711 51.6224 26.3711C51.6807 26.3711 51.7002 26.4087 51.7212 26.5614C51.7414 26.7086 51.7627 26.7518 51.815 26.7518C51.8874 26.7518 51.9294 26.9079 51.9302 27.1802C51.9305 27.2941 51.945 27.323 52.0018 27.323C52.0781 27.323 52.1198 27.4731 52.1206 27.7513C52.121 27.8781 52.1317 27.8941 52.2162 27.8941C52.305 27.8941 52.3114 27.9068 52.3114 28.0845C52.3114 28.2451 52.3225 28.2749 52.3826 28.2749C52.4589 28.2749 52.5006 28.425 52.5014 28.7032C52.5017 28.83 52.5124 28.846 52.597 28.846C52.687 28.846 52.6922 28.8574 52.6922 29.0554C52.6922 29.2348 52.7024 29.2649 52.7635 29.2649C52.842 29.2649 52.8825 29.3954 52.8825 29.6477C52.8825 29.769 52.8965 29.7946 52.9682 29.8048C53.0428 29.8154 53.0554 29.8427 53.0654 30.0169C53.0748 30.1807 53.0894 30.2168 53.1463 30.2168C53.2246 30.2168 53.2633 30.3507 53.2633 30.6213C53.2633 30.7736 53.2714 30.7879 53.3585 30.7879C53.4509 30.7879 53.4537 30.7957 53.4537 31.0518C53.4537 31.2965 53.4599 31.3166 53.5393 31.3278C53.614 31.3385 53.6265 31.3658 53.6365 31.5399C53.6471 31.7235 53.6556 31.7398 53.7412 31.7398C53.8319 31.7398 53.8344 31.7478 53.8344 32.0254C53.8344 32.3046 53.8366 32.311 53.9296 32.311C54.0185 32.311 54.0248 32.3236 54.0248 32.5013C54.0248 32.6791 54.0312 32.6917 54.12 32.6917C54.2131 32.6917 54.2152 32.6981 54.2152 32.9773C54.2152 33.2565 54.2173 33.2629 54.3104 33.2629C54.4035 33.2629 54.4056 33.2692 54.4056 33.5484C54.4056 33.8277 54.4077 33.834 54.5008 33.834C54.5896 33.834 54.596 33.8467 54.596 34.0244C54.596 34.2021 54.6023 34.2148 54.6912 34.2148C54.7842 34.2148 54.7863 34.2211 54.7863 34.5004C54.7863 34.7796 54.7885 34.7859 54.8815 34.7859C54.9716 34.7859 54.9767 34.7974 54.9767 34.9953C54.9767 35.1933 54.9819 35.2048 55.0719 35.2048C55.1644 35.2048 55.1671 35.2124 55.1671 35.4713C55.1671 35.7302 55.1698 35.7378 55.2623 35.7378C55.3493 35.7378 55.3575 35.7521 55.3575 35.9044C55.3575 36.1779 55.396 36.309 55.4765 36.309C55.5376 36.309 55.5479 36.339 55.5479 36.5184C55.5479 36.7164 55.5531 36.7278 55.6431 36.7278C55.7282 36.7278 55.7383 36.7434 55.7383 36.8754C55.7383 37.1275 55.7787 37.2609 55.8553 37.2609C55.9122 37.2609 55.9267 37.297 55.9362 37.4608C55.9462 37.635 55.9587 37.6623 56.0333 37.6729C56.1044 37.6829 56.1191 37.709 56.1194 37.8252C56.1203 38.1009 56.1621 38.2509 56.2382 38.2509C56.295 38.2509 56.3095 38.2797 56.3098 38.3937C56.3106 38.6719 56.3523 38.822 56.4286 38.822C56.4886 38.822 56.4998 38.8518 56.4998 39.0124C56.4998 39.1901 56.5061 39.2028 56.595 39.2028C56.6795 39.2028 56.6902 39.2188 56.6906 39.3456C56.6914 39.6179 56.7333 39.7739 56.8058 39.7739C56.858 39.7739 56.8794 39.8172 56.8996 39.9643C56.9206 40.117 56.9401 40.1547 56.9984 40.1547C57.0568 40.1547 57.071 40.1826 57.0713 40.2975C57.0721 40.5674 57.1143 40.7258 57.1852 40.7258C57.2558 40.7258 57.2982 40.8842 57.299 41.1515C57.2993 41.2677 57.314 41.2938 57.3851 41.3038C57.4597 41.3145 57.4722 41.3418 57.4822 41.5159C57.4917 41.6795 57.5063 41.7158 57.5629 41.7158C57.6353 41.7158 57.6789 41.8684 57.6797 42.1251C57.6801 42.2218 57.6962 42.2489 57.7536 42.2489C57.814 42.2489 57.8316 42.2859 57.8531 42.4583C57.8737 42.6229 57.8936 42.6677 57.9463 42.6677C58.0199 42.6677 58.0609 42.8046 58.0609 43.0506C58.0609 43.1719 58.0749 43.1975 58.1466 43.2077C58.2212 43.2183 58.2337 43.2456 58.2438 43.4197C58.2532 43.5833 58.2679 43.6196 58.3244 43.6196C58.3986 43.6196 58.4405 43.773 58.4413 44.048C58.4416 44.1748 58.4523 44.1908 58.5369 44.1908C58.6299 44.1908 58.6321 44.1971 58.6321 44.4764C58.6321 44.7556 58.6342 44.7619 58.7273 44.7619C58.8161 44.7619 58.8224 44.7746 58.8224 44.9523C58.8224 45.1129 58.8336 45.1427 58.8936 45.1427C58.9699 45.1427 59.0116 45.2928 59.0124 45.5711C59.0128 45.6978 59.0235 45.7138 59.108 45.7138C59.198 45.7138 59.2032 45.7253 59.2032 45.9233C59.2032 46.1026 59.2134 46.1327 59.2746 46.1327C59.3533 46.1327 59.3936 46.2633 59.3936 46.5182C59.3936 46.6502 59.4036 46.6657 59.4888 46.6657C59.5818 46.6657 59.584 46.6721 59.584 46.9513C59.584 47.2305 59.5861 47.2369 59.6792 47.2369C59.7692 47.2369 59.7743 47.2483 59.7743 47.4463C59.7743 47.6443 59.7795 47.6557 59.8695 47.6557C59.962 47.6557 59.9647 47.6633 59.9647 47.9223C59.9647 48.1812 59.9674 48.1888 60.0599 48.1888C60.1499 48.1888 60.1551 48.2002 60.1551 48.3982C60.1551 48.5962 60.1603 48.6076 60.2503 48.6076C60.3434 48.6076 60.3455 48.614 60.3455 48.8932C60.3455 49.1724 60.3476 49.1788 60.4407 49.1788C60.5332 49.1788 60.5359 49.1864 60.5359 49.4453C60.5359 49.7042 60.5386 49.7119 60.6311 49.7119C60.7211 49.7119 60.7263 49.7233 60.7263 49.9213C60.7263 50.1193 60.7314 50.1307 60.8214 50.1307C60.906 50.1307 60.9167 50.1467 60.9171 50.2735C60.9179 50.5517 60.9595 50.7018 61.0359 50.7018C61.0959 50.7018 61.107 50.7317 61.107 50.8922C61.107 51.0699 61.1134 51.0826 61.2022 51.0826C61.2953 51.0826 61.2974 51.089 61.2974 51.3682C61.2974 51.6474 61.2995 51.6537 61.3926 51.6537C61.4796 51.6537 61.4878 51.668 61.4878 51.8203C61.4878 52.0866 61.5268 52.2249 61.6019 52.2249C61.6529 52.2249 61.6742 52.2691 61.6936 52.4153C61.7142 52.5706 61.7327 52.6057 61.7937 52.6057C61.8547 52.6057 61.8686 52.632 61.869 52.7484C61.8698 53.0234 61.9116 53.1768 61.9858 53.1768C62.0424 53.1768 62.057 53.2131 62.0665 53.3767C62.0765 53.5509 62.089 53.5782 62.1636 53.5888C62.2353 53.5989 62.2493 53.6246 62.2493 53.7458C62.2493 53.9907 62.2903 54.1287 62.3631 54.1287C62.4299 54.1287 62.4778 54.3218 62.4778 54.591C62.4778 54.6722 62.496 54.6999 62.5495 54.6999C62.608 54.6999 62.6262 54.7388 62.6475 54.9093C62.669 55.0816 62.6866 55.1187 62.747 55.1187C62.8044 55.1187 62.8205 55.1458 62.8209 55.2424C62.8217 55.4952 62.8655 55.6518 62.9353 55.6518C62.9877 55.6518 63.0077 55.6969 63.0282 55.8612C63.049 56.0277 63.0684 56.0706 63.1228 56.0706C63.1962 56.0706 63.2381 56.2252 63.2389 56.499C63.2392 56.6139 63.2535 56.6417 63.3119 56.6417C63.3701 56.6417 63.3896 56.6794 63.4106 56.8321C63.4309 56.9793 63.4522 57.0225 63.5044 57.0225C63.5766 57.0225 63.6188 57.1784 63.6196 57.4482C63.62 57.5644 63.6347 57.5905 63.7057 57.6005C63.7842 57.6117 63.7923 57.6355 63.8026 57.8863C63.8127 58.1355 63.8212 58.161 63.8977 58.1719C63.969 58.182 63.9836 58.2115 63.9934 58.3647C64.0027 58.5097 64.0187 58.5456 64.0741 58.5456C64.1479 58.5456 64.19 58.699 64.1908 58.9713C64.1911 59.0875 64.2059 59.1135 64.2769 59.1236C64.3515 59.1342 64.364 59.1615 64.374 59.3356C64.3835 59.4995 64.3981 59.5355 64.455 59.5355C64.5332 59.5355 64.572 59.6695 64.572 59.9401C64.572 60.0924 64.5801 60.1067 64.6672 60.1067C64.7595 60.1067 64.7624 60.1145 64.7624 60.3706C64.7624 60.6152 64.7686 60.6353 64.848 60.6466C64.9227 60.6572 64.9352 60.6845 64.9452 60.8587C64.9558 61.0423 64.9643 61.0586 65.0499 61.0586C65.1405 61.0586 65.1431 61.0666 65.1431 61.3442C65.1431 61.6234 65.1452 61.6297 65.2383 61.6297C65.3271 61.6297 65.3335 61.6424 65.3335 61.8201C65.3335 61.9978 65.3399 62.0105 65.4287 62.0105C65.5217 62.0105 65.5239 62.0169 65.5239 62.2961C65.5239 62.5753 65.526 62.5817 65.6191 62.5817C65.7121 62.5817 65.7143 62.588 65.7143 62.8672C65.7143 63.1464 65.7164 63.1528 65.8095 63.1528C65.8983 63.1528 65.9046 63.1655 65.9046 63.3432C65.9046 63.5209 65.911 63.5336 65.9998 63.5336C66.0929 63.5336 66.095 63.5399 66.095 63.8191C66.095 64.0984 66.0972 64.1047 66.1902 64.1047C66.2802 64.1047 66.2854 64.1161 66.2854 64.3141C66.2854 64.5121 66.2906 64.5235 66.3806 64.5235C66.4731 64.5235 66.4758 64.5312 66.4758 64.7901C66.4758 65.049 66.4785 65.0566 66.571 65.0566C66.658 65.0566 66.6662 65.0709 66.6662 65.2232C66.6662 65.4967 66.7047 65.6278 66.7852 65.6278C66.8463 65.6278 66.8565 65.6578 66.8565 65.8372C66.8565 66.0352 66.8617 66.0466 66.9517 66.0466C67.0369 66.0466 67.0469 66.0621 67.0469 66.1941C67.0469 66.4491 67.0873 66.5797 67.1659 66.5797C67.2271 66.5797 67.2373 66.6097 67.2373 66.7891C67.2373 66.9871 67.2425 66.9985 67.3325 66.9985C67.417 66.9985 67.4277 67.0145 67.4281 67.1413C67.4289 67.4196 67.4706 67.5697 67.5469 67.5697C67.6069 67.5697 67.6181 67.5995 67.6181 67.76C67.6181 67.9377 67.6244 67.9504 67.7133 67.9504C67.8003 67.9504 67.8085 67.9647 67.8085 68.117C67.8085 68.3905 67.847 68.5216 67.9274 68.5216C67.9877 68.5216 67.9988 68.5512 67.9988 68.7119V68.9023H68.3796H68.7604V68.8071C68.7604 68.7171 68.7718 68.7119 68.9698 68.7119C69.1678 68.7119 69.1792 68.7068 69.1792 68.6168C69.1792 68.5244 69.187 68.5216 69.4431 68.5216C69.6878 68.5216 69.7079 68.5153 69.7191 68.4359C69.7303 68.3573 69.754 68.3493 70.0074 68.339C70.2721 68.3283 70.2834 68.324 70.2834 68.2343C70.2834 68.1464 70.2958 68.1408 70.4928 68.1408C70.6908 68.1408 70.7023 68.1356 70.7023 68.0456C70.7023 67.9526 70.7086 67.9504 70.9878 67.9504C71.267 67.9504 71.2734 67.9483 71.2734 67.8552C71.2734 67.7664 71.2861 67.76 71.4638 67.76C71.6415 67.76 71.6542 67.7537 71.6542 67.6648C71.6542 67.5718 71.6605 67.5697 71.9397 67.5697C72.219 67.5697 72.2253 67.5675 72.2253 67.4745C72.2253 67.3899 72.2413 67.3792 72.3681 67.3789C72.6431 67.3781 72.7965 67.3362 72.7965 67.262C72.7965 67.2055 72.8328 67.1908 72.9964 67.1814C73.1705 67.1713 73.1978 67.1588 73.2084 67.0842C73.2197 67.0048 73.2398 66.9985 73.4845 66.9985C73.7406 66.9985 73.7484 66.9957 73.7484 66.9033C73.7484 66.8163 73.7626 66.8081 73.915 66.8081C74.1856 66.8081 74.3195 66.7694 74.3195 66.6911C74.3195 66.6342 74.3556 66.6197 74.5194 66.6102C74.6936 66.6002 74.7209 66.5877 74.7315 66.513C74.7417 66.4413 74.7673 66.4274 74.8886 66.4274C75.1381 66.4274 75.2714 66.3866 75.2714 66.3104C75.2714 66.2535 75.3075 66.2389 75.4713 66.2294C75.6455 66.2194 75.6728 66.2069 75.6834 66.1323C75.6935 66.0613 75.7195 66.0465 75.8357 66.0462C76.1114 66.0453 76.2614 66.0035 76.2614 65.9274C76.2614 65.8726 76.2898 65.8561 76.3852 65.8558C76.6379 65.855 76.7945 65.8112 76.7945 65.7414C76.7945 65.689 76.8396 65.669 77.0039 65.6484C77.1763 65.6269 77.2133 65.6093 77.2133 65.5489C77.2133 65.4895 77.2406 65.4754 77.3561 65.475C77.626 65.4742 77.7845 65.4321 77.7845 65.3612C77.7845 65.2906 77.9428 65.2482 78.2102 65.2474C78.3264 65.2471 78.3524 65.2323 78.3625 65.1613C78.3729 65.0882 78.4012 65.0739 78.5555 65.064C78.7005 65.0547 78.7364 65.0388 78.7364 64.9834C78.7364 64.9093 78.8899 64.8675 79.1647 64.8667C79.2802 64.8663 79.3075 64.8522 79.3075 64.7928C79.3075 64.7324 79.3446 64.7148 79.5169 64.6933C79.6815 64.6727 79.7264 64.6527 79.7264 64.6001C79.7264 64.5264 79.8632 64.4855 80.1092 64.4855C80.2305 64.4855 80.2561 64.4715 80.2663 64.3998C80.2774 64.3213 80.3013 64.3132 80.5521 64.303C80.8013 64.2928 80.8268 64.2844 80.8377 64.2078C80.848 64.1351 80.8766 64.1222 81.0495 64.1122C81.2133 64.1028 81.2494 64.0882 81.2494 64.0313C81.2494 63.9531 81.3834 63.9143 81.654 63.9143C81.8063 63.9143 81.8206 63.9062 81.8206 63.8191C81.8206 63.7268 81.8284 63.7239 82.0844 63.7239C82.3291 63.7239 82.3492 63.7177 82.3605 63.6383C82.3711 63.5636 82.3984 63.5511 82.5726 63.5411C82.7561 63.5305 82.7725 63.522 82.7725 63.4364C82.7725 63.3458 82.7804 63.3432 83.058 63.3432C83.3372 63.3432 83.3436 63.341 83.3436 63.248C83.3436 63.1592 83.3563 63.1528 83.534 63.1528C83.7117 63.1528 83.7244 63.1464 83.7244 63.0576C83.7244 62.9688 83.737 62.9624 83.9147 62.9624H84.1051V62.6768C84.1051 62.3976 84.103 62.3913 84.0099 62.3913C83.9211 62.3913 83.9147 62.3786 83.9147 62.2009C83.9147 62.0232 83.9084 62.0105 83.8196 62.0105C83.7265 62.0105 83.7244 62.0042 83.7244 61.7249C83.7244 61.4457 83.7222 61.4394 83.6292 61.4394C83.5361 61.4394 83.534 61.433 83.534 61.1538C83.534 60.8746 83.5319 60.8682 83.4388 60.8682C83.35 60.8682 83.3436 60.8555 83.3436 60.6778C83.3436 60.5001 83.3372 60.4875 83.2484 60.4875C83.1614 60.4875 83.1532 60.4732 83.1532 60.3209C83.1532 60.0474 83.1147 59.9163 83.0342 59.9163C82.9731 59.9163 82.9628 59.8863 82.9628 59.7069C82.9628 59.5089 82.9577 59.4975 82.8676 59.4975C82.7752 59.4975 82.7725 59.4899 82.7725 59.2309C82.7725 58.972 82.7698 58.9644 82.6773 58.9644C82.5902 58.9644 82.5821 58.9501 82.5821 58.7978C82.5821 58.5272 82.5434 58.3933 82.4651 58.3933C82.4082 58.3933 82.3936 58.3572 82.3842 58.1934C82.3741 58.0192 82.3616 57.9919 82.287 57.9813C82.2153 57.9711 82.2013 57.9455 82.2013 57.8242C82.2013 57.5719 82.1608 57.4413 82.0823 57.4413C82.0212 57.4413 82.0109 57.4113 82.0109 57.2319C82.0109 57.0339 82.0058 57.0225 81.9157 57.0225C81.8312 57.0225 81.8205 57.0065 81.8201 56.8797C81.8193 56.6015 81.7777 56.4514 81.7013 56.4514C81.6446 56.4514 81.6301 56.4225 81.6297 56.3086C81.629 56.0363 81.587 55.8802 81.5145 55.8802C81.4623 55.8802 81.441 55.837 81.4207 55.6898C81.3997 55.5371 81.3802 55.4995 81.322 55.4995C81.2636 55.4995 81.2493 55.4716 81.249 55.3567C81.2482 55.0868 81.2061 54.9283 81.1352 54.9283C81.0645 54.9283 81.0222 54.77 81.0214 54.5026C81.021 54.3864 81.0063 54.3604 80.9353 54.3503C80.8622 54.3399 80.8479 54.3116 80.838 54.1573C80.8287 54.0124 80.8127 53.9764 80.7575 53.9764C80.7044 53.9764 80.6831 53.9359 80.6644 53.7997C80.6511 53.7026 80.6402 53.5741 80.6402 53.5142C80.6402 53.432 80.6222 53.4053 80.5668 53.4053C80.5063 53.4053 80.4887 53.3682 80.4672 53.1958C80.4466 53.0312 80.4267 52.9864 80.374 52.9864C80.2984 52.9864 80.2594 52.8489 80.2594 52.5819C80.2594 52.4296 80.2513 52.4153 80.1642 52.4153C80.0719 52.4153 80.069 52.4075 80.069 52.1514C80.069 51.9067 80.0628 51.8866 79.9834 51.8753C79.9087 51.8647 79.8962 51.8374 79.8862 51.6633C79.8768 51.4997 79.8621 51.4634 79.8055 51.4634C79.7313 51.4634 79.6895 51.31 79.6887 51.035C79.6883 50.9082 79.6776 50.8922 79.5931 50.8922C79.5 50.8922 79.4979 50.8859 79.4979 50.6066C79.4979 50.3274 79.4958 50.3211 79.4027 50.3211C79.314 50.3211 79.3075 50.3082 79.3075 50.1334C79.3075 49.9676 79.2975 49.9442 79.2218 49.9335C79.1432 49.9223 79.1353 49.8985 79.125 49.6452C79.1142 49.3805 79.11 49.3692 79.0203 49.3692C78.9323 49.3692 78.9268 49.3568 78.9268 49.1597C78.9268 48.9618 78.9216 48.9503 78.8316 48.9503C78.7391 48.9503 78.7364 48.9427 78.7364 48.6838C78.7364 48.4249 78.7337 48.4173 78.6412 48.4173C78.5481 48.4173 78.546 48.4109 78.546 48.1317C78.546 47.8525 78.5439 47.8461 78.4508 47.8461C78.3608 47.8461 78.3556 47.8347 78.3556 47.6367C78.3556 47.4387 78.3504 47.4273 78.2604 47.4273C78.1716 47.4273 78.1652 47.4146 78.1652 47.2369C78.1652 47.0592 78.1716 47.0465 78.2604 47.0465C78.328 47.0465 78.3556 47.0259 78.3556 46.9753C78.3556 46.8992 78.5056 46.8574 78.7813 46.8565C78.8975 46.8562 78.9236 46.8415 78.9336 46.7705C78.9448 46.6918 78.9685 46.6839 79.2218 46.6736C79.4865 46.6629 79.4979 46.6586 79.4979 46.5689C79.4979 46.4822 79.5116 46.4754 79.6856 46.4754C79.8513 46.4754 79.8748 46.4653 79.8855 46.3897C79.8967 46.3112 79.9205 46.3031 80.1713 46.2929C80.4205 46.2827 80.446 46.2742 80.4569 46.1977C80.4672 46.125 80.4958 46.1121 80.6687 46.1021C80.8326 46.0927 80.8686 46.0781 80.8686 46.0212C80.8686 45.945 81.002 45.9042 81.2515 45.9042C81.3728 45.9042 81.3984 45.8902 81.4086 45.8185C81.4198 45.7399 81.4435 45.732 81.6968 45.7217C81.9615 45.7109 81.9729 45.7067 81.9729 45.617C81.9729 45.529 81.9853 45.5235 82.1823 45.5235C82.3803 45.5235 82.3917 45.5183 82.3917 45.4283C82.3917 45.3352 82.3981 45.3331 82.6773 45.3331C82.9565 45.3331 82.9628 45.3309 82.9628 45.2379C82.9628 45.1491 82.9755 45.1427 83.1532 45.1427C83.3309 45.1427 83.3436 45.1363 83.3436 45.0475C83.3436 44.9544 83.35 44.9523 83.6292 44.9523C83.9084 44.9523 83.9147 44.9502 83.9147 44.8571C83.9147 44.7641 83.9211 44.7619 84.2003 44.7619C84.4795 44.7619 84.4859 44.7598 84.4859 44.6667C84.4859 44.5767 84.4973 44.5715 84.6953 44.5715C84.8933 44.5715 84.9047 44.5664 84.9047 44.4764C84.9047 44.3839 84.9123 44.3812 85.1713 44.3812C85.4302 44.3812 85.4378 44.3785 85.4378 44.286C85.4378 44.1989 85.4521 44.1908 85.6044 44.1908C85.875 44.1908 86.0089 44.1521 86.0089 44.0738C86.0089 44.0169 86.045 44.0023 86.2089 43.9929C86.383 43.9828 86.4103 43.9703 86.4209 43.8957C86.4311 43.824 86.4567 43.81 86.578 43.81C86.8275 43.81 86.9609 43.7693 86.9609 43.693C86.9609 43.6361 86.9969 43.6215 87.1608 43.6121C87.3349 43.6021 87.3622 43.5896 87.3728 43.5149C87.3829 43.4439 87.4089 43.4292 87.5251 43.4288C87.8009 43.428 87.9508 43.3862 87.9508 43.31C87.9508 43.2528 87.9797 43.2389 88.0984 43.2389C88.3505 43.2389 88.4839 43.1984 88.4839 43.1219C88.4839 43.065 88.52 43.0504 88.6838 43.041C88.858 43.0309 88.8853 43.0184 88.8959 42.9438C88.9059 42.8728 88.932 42.858 89.0482 42.8577C89.3155 42.8569 89.4739 42.8146 89.4739 42.7439C89.4739 42.673 89.6324 42.6309 89.9023 42.6301C90.0172 42.6297 90.045 42.6155 90.045 42.5571C90.045 42.4989 90.0827 42.4793 90.2354 42.4583C90.3881 42.4373 90.4258 42.4178 90.4258 42.3595C90.4258 42.3011 90.4537 42.2869 90.5686 42.2865C90.8423 42.2858 90.9969 42.2439 90.9969 42.1705C90.9969 42.1161 91.0399 42.0967 91.2064 42.0759C91.3707 42.0554 91.4158 42.0354 91.4158 41.983C91.4158 41.9131 91.5723 41.8694 91.8251 41.8685C91.9205 41.8682 91.9489 41.8518 91.9489 41.797C91.9489 41.7206 92.099 41.679 92.3772 41.6782C92.4927 41.6778 92.52 41.6637 92.52 41.6043C92.52 41.5439 92.5571 41.5263 92.7294 41.5048C92.894 41.4842 92.9388 41.4643 92.9388 41.4116C92.9388 41.3359 93.0764 41.297 93.3434 41.297C93.4957 41.297 93.51 41.2888 93.51 41.2018C93.51 41.1094 93.5178 41.1066 93.7739 41.1066C94.0185 41.1066 94.0386 41.1004 94.0499 41.0209C94.0605 40.9463 94.0878 40.9338 94.262 40.9238C94.4456 40.9132 94.4619 40.9046 94.4619 40.819C94.4619 40.7284 94.4699 40.7258 94.7475 40.7258C95.0267 40.7258 95.033 40.7237 95.033 40.6306C95.033 40.5418 95.0457 40.5355 95.2234 40.5355C95.384 40.5355 95.4138 40.5243 95.4138 40.4643C95.4138 40.3879 95.5639 40.3463 95.8422 40.3455C95.969 40.3451 95.985 40.3344 95.985 40.2499C95.985 40.1568 95.9913 40.1547 96.2705 40.1547C96.5497 40.1547 96.5561 40.1526 96.5561 40.0595C96.5561 39.9833 96.5751 39.9643 96.6513 39.9643C96.7274 39.9643 96.7465 39.9453 96.7465 39.8691C96.7465 39.793 96.7274 39.7739 96.6513 39.7739C96.5582 39.7739 96.5561 39.7676 96.5561 39.4884C96.5561 39.2091 96.554 39.2028 96.4609 39.2028C96.3721 39.2028 96.3657 39.1901 96.3657 39.0124C96.3657 38.8347 96.3594 38.822 96.2705 38.822C96.1775 38.822 96.1753 38.8157 96.1753 38.5364C96.1753 38.2572 96.1732 38.2509 96.0801 38.2509C95.9901 38.2509 95.985 38.2395 95.985 38.0415C95.985 37.8435 95.9798 37.832 95.8898 37.832C95.7973 37.832 95.7946 37.8244 95.7946 37.5655C95.7946 37.3066 95.7919 37.299 95.6994 37.299C95.6063 37.299 95.6042 37.2926 95.6042 37.0134C95.6042 36.7342 95.6021 36.7278 95.509 36.7278C95.419 36.7278 95.4138 36.7164 95.4138 36.5184C95.4138 36.3204 95.4086 36.309 95.3186 36.309C95.2261 36.309 95.2234 36.3014 95.2234 36.0424C95.2234 35.7835 95.2207 35.7759 95.1282 35.7759C95.0352 35.7759 95.033 35.7696 95.033 35.4903C95.033 35.2111 95.0309 35.2048 94.9379 35.2048C94.8478 35.2048 94.8427 35.1933 94.8427 34.9953C94.8427 34.7974 94.8375 34.7859 94.7475 34.7859C94.6629 34.7859 94.6522 34.7699 94.6519 34.6431C94.6511 34.3649 94.6094 34.2148 94.5331 34.2148C94.473 34.2148 94.4619 34.185 94.4619 34.0244C94.4619 33.8467 94.4555 33.834 94.3667 33.834C94.2736 33.834 94.2715 33.8277 94.2715 33.5484C94.2715 33.2692 94.2694 33.2629 94.1763 33.2629C94.0918 33.2629 94.0811 33.2469 94.0807 33.1201C94.0799 32.8418 94.0383 32.6917 93.9619 32.6917C93.9019 32.6917 93.8908 32.6619 93.8908 32.5013C93.8908 32.3236 93.8844 32.311 93.7956 32.311C93.711 32.311 93.7003 32.295 93.7 32.1682C93.6992 31.8932 93.6573 31.7398 93.5831 31.7398C93.5265 31.7398 93.5119 31.7035 93.5024 31.5399C93.4924 31.3658 93.4799 31.3385 93.4053 31.3278C93.337 31.3182 93.3195 31.291 93.3192 31.1946C93.3183 30.9371 93.2747 30.7879 93.2004 30.7879C93.1436 30.7879 93.1292 30.7591 93.1288 30.6451C93.128 30.3742 93.086 30.2168 93.0144 30.2168C92.962 30.2168 92.942 30.1716 92.9214 30.0073C92.8999 29.835 92.8823 29.7979 92.8219 29.7979C92.7645 29.7979 92.7484 29.7709 92.748 29.6742C92.7472 29.4227 92.7034 29.2649 92.6344 29.2649C92.5682 29.2649 92.52 29.0714 92.52 28.8053C92.52 28.7241 92.4998 28.6962 92.4343 28.6869C92.3597 28.6762 92.3472 28.6489 92.3372 28.4748C92.3277 28.3112 92.3131 28.2749 92.2565 28.2749C92.1823 28.2749 92.1405 28.1215 92.1397 27.8465C92.1393 27.7316 92.1251 27.7037 92.0667 27.7037C92.0084 27.7037 91.9889 27.6661 91.9679 27.5133C91.9477 27.3662 91.9264 27.323 91.8741 27.323C91.8017 27.323 91.7597 27.1669 91.7589 26.8946L91.7585 26.7518H91.4729C91.1937 26.7518 91.1873 26.754 91.1873 26.847C91.1873 26.9401 91.181 26.9422 90.9018 26.9422C90.6225 26.9422 90.6162 26.9443 90.6162 27.0374C90.6162 27.1299 90.6086 27.1326 90.3497 27.1326C90.0907 27.1326 90.0831 27.1353 90.0831 27.2278C90.0831 27.3178 90.0717 27.323 89.8737 27.323C89.6757 27.323 89.6643 27.3281 89.6643 27.4182C89.6643 27.5112 89.6579 27.5133 89.3787 27.5133C89.0995 27.5133 89.0931 27.5155 89.0931 27.6085C89.0931 27.6974 89.0805 27.7037 88.9028 27.7037C88.725 27.7037 88.7124 27.7101 88.7124 27.7989C88.7124 27.892 88.706 27.8941 88.4268 27.8941C88.1476 27.8941 88.1412 27.8962 88.1412 27.9893C88.1412 28.0763 88.1269 28.0845 87.9746 28.0845C87.704 28.0845 87.5701 28.1232 87.5701 28.2015C87.5701 28.2584 87.534 28.273 87.3702 28.2824C87.196 28.2924 87.1687 28.305 87.1581 28.3796C87.1468 28.459 87.1267 28.4653 86.882 28.4653C86.626 28.4653 86.6182 28.4681 86.6182 28.5604C86.6182 28.645 86.6022 28.6557 86.4754 28.6561C86.2004 28.6569 86.047 28.6987 86.047 28.7729C86.047 28.8295 86.0107 28.8441 85.8471 28.8536C85.673 28.8636 85.6457 28.8761 85.635 28.9507C85.6249 29.0224 85.5993 29.0364 85.478 29.0364C85.232 29.0364 85.0951 29.0774 85.0951 29.151C85.0951 29.2037 85.0503 29.2236 84.8857 29.2442C84.7133 29.2657 84.6763 29.2833 84.6763 29.3438C84.6763 29.4031 84.649 29.4172 84.5335 29.4176C84.2552 29.4184 84.1051 29.46 84.1051 29.5364C84.1051 29.5932 84.0763 29.6076 83.9623 29.608C83.69 29.6088 83.534 29.6507 83.534 29.7232C83.534 29.7754 83.4907 29.7967 83.3436 29.817C83.1965 29.8372 83.1532 29.8585 83.1532 29.9107C83.1532 29.9832 82.9972 30.0252 82.7249 30.026C82.6109 30.0263 82.5821 30.0408 82.5821 30.0976C82.5821 30.1737 82.4321 30.2155 82.1564 30.2164C82.0402 30.2167 82.0141 30.2314 82.0041 30.3024C81.9937 30.3755 81.9654 30.3898 81.811 30.3997C81.6662 30.409 81.6302 30.425 81.6302 30.4802C81.6302 30.5333 81.5897 30.5547 81.4535 30.5733C81.3564 30.5866 81.229 30.5975 81.1706 30.5975C81.0894 30.5975 81.0615 30.6177 81.0522 30.6832C81.0415 30.7578 81.0142 30.7704 80.8401 30.7804C80.6762 30.7898 80.6402 30.8044 80.6402 30.8613C80.6402 30.9396 80.5062 30.9783 80.2356 30.9783C80.0833 30.9783 80.069 30.9864 80.069 31.0735C80.069 31.1659 80.0612 31.1687 79.8052 31.1687C79.5605 31.1687 79.5404 31.1749 79.5291 31.2543C79.5185 31.329 79.4912 31.3415 79.317 31.3515C79.1532 31.361 79.1171 31.3755 79.1171 31.4324C79.1171 31.5107 78.9832 31.5494 78.7126 31.5494C78.5603 31.5494 78.546 31.5576 78.546 31.6446C78.546 31.7377 78.5396 31.7398 78.2604 31.7398C77.9812 31.7398 77.9748 31.742 77.9748 31.835C77.9748 31.9238 77.9622 31.9302 77.7845 31.9302C77.6068 31.9302 77.5941 31.9366 77.5941 32.0254C77.5941 32.1185 77.5877 32.1206 77.3085 32.1206C77.0293 32.1206 77.0229 32.1227 77.0229 32.2158C77.0229 32.3058 77.0115 32.311 76.8135 32.311C76.6155 32.311 76.6041 32.3161 76.6041 32.4062C76.6041 32.4986 76.5965 32.5013 76.3376 32.5013C76.0786 32.5013 76.071 32.5041 76.071 32.5965C76.071 32.6896 76.0647 32.6917 75.7855 32.6917C75.5062 32.6917 75.4999 32.6939 75.4999 32.7869C75.4999 32.8769 75.4885 32.8821 75.2905 32.8821C75.0925 32.8821 75.081 32.8873 75.081 32.9773C75.081 33.0698 75.0734 33.0725 74.8145 33.0725C74.5556 33.0725 74.548 33.0752 74.548 33.1677C74.548 33.2607 74.5416 33.2629 74.2624 33.2629C73.9832 33.2629 73.9768 33.265 73.9768 33.3581C73.9768 33.4481 73.9654 33.4533 73.7674 33.4533C73.5694 33.4533 73.558 33.4584 73.558 33.5484C73.558 33.6415 73.5516 33.6436 73.2724 33.6436H72.9868V33.4533C72.9868 33.2756 72.9805 33.2629 72.8916 33.2629C72.8028 33.2629 72.7965 33.2502 72.7965 33.0725C72.7965 32.8948 72.7901 32.8821 72.7013 32.8821C72.6082 32.8821 72.6061 32.8758 72.6061 32.5965C72.6061 32.3173 72.6039 32.311 72.5109 32.311C72.4209 32.311 72.4157 32.2995 72.4157 32.1015C72.4157 31.9036 72.4105 31.8921 72.3205 31.8921C72.228 31.8921 72.2253 31.8845 72.2253 31.6256C72.2253 31.3667 72.2226 31.3591 72.1301 31.3591C72.0371 31.3591 72.0349 31.3527 72.0349 31.0735C72.0349 30.7943 72.0328 30.7879 71.9397 30.7879C71.8497 30.7879 71.8445 30.7765 71.8445 30.5785C71.8445 30.3805 71.8394 30.3691 71.7494 30.3691C71.6642 30.3691 71.6542 30.3535 71.6542 30.2215C71.6542 29.9666 71.6138 29.836 71.5352 29.836C71.4762 29.836 71.4638 29.8069 71.4638 29.6694C71.4638 29.3959 71.4253 29.2649 71.3448 29.2649C71.2836 29.2649 71.2734 29.2348 71.2734 29.0554C71.2734 28.8574 71.2682 28.846 71.1782 28.846C71.093 28.846 71.083 28.8305 71.083 28.6985C71.083 28.4464 71.0425 28.313 70.966 28.313C70.9091 28.313 70.8945 28.2769 70.8851 28.1131C70.8751 27.9389 70.8626 27.9116 70.7879 27.901C70.7169 27.8909 70.7022 27.8649 70.7018 27.7487C70.701 27.4729 70.6592 27.323 70.583 27.323C70.5263 27.323 70.5118 27.2941 70.5115 27.1802C70.5107 26.9019 70.469 26.7518 70.3927 26.7518C70.3327 26.7518 70.3215 26.722 70.3215 26.5614C70.3215 26.3837 70.3151 26.3711 70.2263 26.3711C70.1418 26.3711 70.1311 26.3551 70.1307 26.2283C70.1299 25.9587 70.0878 25.7999 70.0171 25.7999C69.9675 25.7999 69.9451 25.7563 69.9271 25.6246C69.8995 25.4238 69.9157 25.3811 70.0191 25.3811C70.0662 25.3811 70.093 25.355 70.093 25.3093C70.093 25.2509 70.132 25.2327 70.3025 25.2114C70.4748 25.1899 70.5119 25.1722 70.5119 25.1118C70.5119 25.0524 70.5392 25.0383 70.6547 25.038C70.9245 25.0372 71.083 24.9951 71.083 24.9242C71.083 24.855 71.2406 24.8112 71.4923 24.8103C71.588 24.81 71.6161 24.7937 71.6161 24.7382C71.6161 24.6797 71.655 24.6615 71.8255 24.6402C71.992 24.6194 72.0349 24.6 72.0349 24.5456C72.0349 24.4723 72.1896 24.4304 72.4633 24.4296C72.5782 24.4292 72.6061 24.415 72.6061 24.3566C72.6061 24.2984 72.6437 24.2788 72.7965 24.2578C72.9436 24.2376 72.9868 24.2163 72.9868 24.164C72.9868 24.0918 73.1428 24.0496 73.4125 24.0488C73.5287 24.0485 73.5548 24.0337 73.5648 23.9627C73.576 23.8842 73.5998 23.8761 73.8506 23.8659C74.0998 23.8558 74.1253 23.8473 74.1362 23.7707C74.1466 23.698 74.1751 23.6851 74.3481 23.6752C74.5119 23.6657 74.548 23.6512 74.548 23.5943C74.548 23.518 74.6813 23.4773 74.9308 23.4773C75.0521 23.4773 75.0777 23.4633 75.0879 23.3916C75.0991 23.313 75.1228 23.305 75.3761 23.2947C75.6408 23.284 75.6522 23.2797 75.6522 23.19C75.6522 23.1021 75.6646 23.0965 75.8616 23.0965C76.0596 23.0965 76.071 23.0913 76.071 23.0013C76.071 22.9089 76.0788 22.9061 76.3349 22.9061C76.5796 22.9061 76.5997 22.8999 76.6109 22.8204C76.6216 22.7458 76.6489 22.7333 76.823 22.7233C77.0066 22.7127 77.0229 22.7042 77.0229 22.6186C77.0229 22.5279 77.0309 22.5253 77.3085 22.5253C77.5877 22.5253 77.5941 22.5232 77.5941 22.4302C77.5941 22.3371 77.6004 22.335 77.8797 22.335C78.1589 22.335 78.1652 22.3328 78.1652 22.2398C78.1652 22.1509 78.1779 22.1446 78.3556 22.1446C78.5333 22.1446 78.546 22.1382 78.546 22.0494C78.546 21.9563 78.5523 21.9542 78.8316 21.9542C79.1108 21.9542 79.1171 21.9521 79.1171 21.859C79.1171 21.766 79.1235 21.7638 79.4027 21.7638C79.6819 21.7638 79.6883 21.7617 79.6883 21.6686C79.6883 21.5798 79.701 21.5734 79.8787 21.5734C80.0564 21.5734 80.069 21.5671 80.069 21.4782C80.069 21.3852 80.0754 21.3831 80.3546 21.3831C80.6338 21.3831 80.6402 21.3809 80.6402 21.2879C80.6402 21.1979 80.6516 21.1927 80.8496 21.1927C81.0466 21.1927 81.059 21.1871 81.059 21.0992C81.059 21.0095 81.0704 21.0052 81.3351 20.9945C81.5884 20.9842 81.6121 20.9762 81.6233 20.8976C81.6335 20.8259 81.6591 20.8119 81.7804 20.8119C82.0327 20.8119 82.1632 20.7714 82.1632 20.6929C82.1632 20.6318 82.1933 20.6215 82.3727 20.6215C82.5707 20.6215 82.5821 20.6164 82.5821 20.5263C82.5821 20.4418 82.5981 20.4311 82.7249 20.4307C83.0031 20.4299 83.1532 20.3883 83.1532 20.3119C83.1532 20.2552 83.1821 20.2407 83.296 20.2404C83.5743 20.2395 83.7244 20.1979 83.7244 20.1216C83.7244 20.0615 83.7542 20.0504 83.9147 20.0504C84.0925 20.0504 84.1051 20.044 84.1051 19.9552C84.1051 19.8707 84.1211 19.86 84.2479 19.8596C84.5216 19.8588 84.6763 19.8169 84.6763 19.7435C84.6763 19.6892 84.7192 19.6697 84.8857 19.6489C85.0562 19.6276 85.0951 19.6094 85.0951 19.551C85.0951 19.4955 85.1232 19.4792 85.2189 19.4788C85.4789 19.4779 85.6282 19.4346 85.6282 19.36C85.6282 19.3033 85.657 19.2888 85.771 19.2884C86.0447 19.2876 86.1993 19.2458 86.1993 19.1724C86.1993 19.118 86.2423 19.0986 86.4087 19.0778C86.5731 19.0573 86.6182 19.0373 86.6182 18.9849C86.6182 18.915 86.7747 18.8713 87.0275 18.8704C87.1228 18.8701 87.1512 18.8537 87.1512 18.7989C87.1512 18.7227 87.3012 18.6809 87.5769 18.6801C87.6931 18.6797 87.7192 18.665 87.7292 18.594C87.7399 18.5193 87.7672 18.5068 87.9413 18.4968C88.1049 18.4874 88.1412 18.4727 88.1412 18.4161C88.1412 18.3419 88.2946 18.3001 88.5696 18.2993C88.6964 18.2989 88.7124 18.2882 88.7124 18.2037C88.7124 18.1149 88.725 18.1085 88.9028 18.1085H89.0931V17.8229C89.0931 17.5437 89.091 17.5373 88.9979 17.5373C88.9128 17.5373 88.9028 17.5218 88.9028 17.3898C88.9028 17.1349 88.8624 17.0043 88.7838 17.0043C88.7226 17.0043 88.7124 16.9742 88.7124 16.7949C88.7124 16.5969 88.7072 16.5854 88.6172 16.5854C88.5326 16.5854 88.5219 16.5694 88.5216 16.4427C88.5208 16.1644 88.4791 16.0143 88.4028 16.0143C88.3428 16.0143 88.3316 15.9845 88.3316 15.8239C88.3316 15.6462 88.3252 15.6335 88.2364 15.6335C88.1519 15.6335 88.1412 15.6175 88.1408 15.4907C88.14 15.2125 88.0984 15.0624 88.022 15.0624C87.962 15.0624 87.9508 15.0326 87.9508 14.872C87.9508 14.6943 87.9445 14.6816 87.8557 14.6816C87.7711 14.6816 87.7604 14.6656 87.76 14.5388C87.7592 14.2651 87.7174 14.1105 87.644 14.1105C87.5896 14.1105 87.5702 14.0675 87.5494 13.9011C87.5281 13.7306 87.5099 13.6916 87.4515 13.6916C87.396 13.6916 87.3796 13.6636 87.3793 13.5679C87.3784 13.3151 87.3347 13.1586 87.2649 13.1586C87.2125 13.1586 87.1924 13.1134 87.1719 12.9492C87.1504 12.7768 87.1328 12.7397 87.0723 12.7397C87.015 12.7397 86.9989 12.7127 86.9985 12.616C86.9976 12.3604 86.954 12.2067 86.8825 12.2067C86.8281 12.2067 86.8087 12.1637 86.7879 11.9972C86.7674 11.8329 86.7473 11.7878 86.6949 11.7878C86.6233 11.7878 86.5813 11.6304 86.5805 11.3595C86.5802 11.2445 86.5659 11.2167 86.5075 11.2167C86.4493 11.2167 86.4298 11.179 86.4087 11.0263C86.3885 10.8792 86.3672 10.8359 86.315 10.8359C86.2425 10.8359 86.2006 10.6799 86.1997 10.4076C86.1994 10.2808 86.1887 10.2648 86.1041 10.2648C86.0153 10.2648 86.0089 10.2521 86.0089 10.0744C86.0089 9.91382 85.9978 9.884 85.9378 9.884C85.8617 9.884 85.8198 9.73402 85.819 9.45831C85.8186 9.3421 85.8039 9.31606 85.7329 9.30601C85.6543 9.29481 85.6463 9.27109 85.636 9.01777C85.6253 8.75306 85.621 8.74171 85.5313 8.74171C85.4445 8.74171 85.4378 8.72812 85.4378 8.55133C85.4378 8.37363 85.4314 8.36095 85.3426 8.36095C85.2496 8.36095 85.2474 8.35459 85.2474 8.07538C85.2474 7.79616 85.2453 7.78981 85.1522 7.78981C85.0622 7.78981 85.057 7.77838 85.057 7.58039C85.057 7.38239 85.0519 7.37097 84.9618 7.37097C84.8694 7.37097 84.8667 7.36335 84.8667 7.10443C84.8667 6.84551 84.864 6.8379 84.7715 6.8379C84.6815 6.8379 84.6763 6.82647 84.6763 6.62848C84.6763 6.43048 84.6711 6.41906 84.5811 6.41906C84.4886 6.41906 84.4859 6.41144 84.4859 6.15252C84.4859 5.8936 84.4832 5.88599 84.3907 5.88599C84.3007 5.88599 84.2955 5.87457 84.2955 5.67657C84.2955 5.47857 84.2903 5.46715 84.2003 5.46715C84.1073 5.46715 84.1051 5.46079 84.1051 5.18158C84.1051 4.90236 84.103 4.896 84.0099 4.896C83.9211 4.896 83.9147 4.88332 83.9147 4.70562C83.9147 4.52792 83.9084 4.51524 83.8196 4.51524C83.7265 4.51524 83.7244 4.50888 83.7244 4.22967C83.7244 3.95045 83.7222 3.9441 83.6292 3.9441C83.5403 3.9441 83.534 3.93142 83.534 3.75371C83.534 3.57601 83.5276 3.56333 83.4388 3.56333C83.3457 3.56333 83.3436 3.55697 83.3436 3.27776V2.99219H83.058C82.7788 2.99219 82.7725 2.99432 82.7725 3.08738ZM80.0024 12.5754C79.9514 12.5857 79.9167 12.6207 79.9167 12.6618C79.9167 12.7171 79.8746 12.7362 79.7073 12.7571C79.5349 12.7786 79.4979 12.7963 79.4979 12.8567C79.4979 12.9161 79.4706 12.9302 79.3551 12.9305C79.0768 12.9313 78.9268 12.973 78.9268 13.0493C78.9268 13.1066 78.8979 13.1205 78.7792 13.1205C78.5306 13.1205 78.3937 13.1612 78.3937 13.2351C78.3937 13.2878 78.3489 13.3077 78.1843 13.3283C78.0178 13.3491 77.9748 13.3685 77.9748 13.4229C77.9748 13.4962 77.8202 13.5381 77.5465 13.5389C77.4326 13.5393 77.4037 13.5537 77.4037 13.6105C77.4037 13.6866 77.2537 13.7285 76.978 13.7293C76.8618 13.7296 76.8357 13.7444 76.8257 13.8154C76.8153 13.8885 76.787 13.9028 76.6327 13.9127C76.4876 13.922 76.4518 13.938 76.4518 13.9934C76.4518 14.0672 76.2984 14.1093 76.0261 14.1101C75.9099 14.1104 75.8838 14.1251 75.8738 14.1961C75.8632 14.2708 75.8359 14.2833 75.6617 14.2933C75.4979 14.3028 75.4618 14.3173 75.4618 14.3742C75.4618 14.4505 75.3285 14.4912 75.0789 14.4912C74.9577 14.4912 74.932 14.5052 74.9219 14.5769C74.9107 14.6555 74.887 14.6635 74.6336 14.6738C74.3689 14.6845 74.3576 14.6888 74.3576 14.7785C74.3576 14.8664 74.3452 14.872 74.1482 14.872C73.9502 14.872 73.9387 14.8772 73.9387 14.9672C73.9387 15.0603 73.9324 15.0624 73.6532 15.0624C73.374 15.0624 73.3676 15.0645 73.3676 15.1576C73.3676 15.25 73.3598 15.2528 73.1037 15.2528C72.8591 15.2528 72.8389 15.259 72.8277 15.3384C72.8171 15.4131 72.7898 15.4256 72.6156 15.4356C72.432 15.4462 72.4157 15.4547 72.4157 15.5403C72.4157 15.6309 72.4077 15.6335 72.1301 15.6335C71.8509 15.6335 71.8445 15.6357 71.8445 15.7287C71.8445 15.8176 71.8319 15.8239 71.6542 15.8239C71.4765 15.8239 71.4638 15.8303 71.4638 15.9191C71.4638 16.0122 71.4574 16.0143 71.1782 16.0143C70.899 16.0143 70.8926 16.0164 70.8926 16.1095C70.8926 16.2025 70.8863 16.2047 70.6071 16.2047C70.3295 16.2047 70.3215 16.2073 70.3215 16.2979C70.3215 16.3835 70.3052 16.392 70.1216 16.4026C69.9474 16.4126 69.9201 16.4251 69.9095 16.4998C69.8982 16.5792 69.8781 16.5854 69.6335 16.5854C69.3774 16.5854 69.3696 16.5883 69.3696 16.6806C69.3696 16.7677 69.3553 16.7758 69.203 16.7758C68.9295 16.7758 68.7984 16.8144 68.7984 16.8948C68.7984 16.956 68.7684 16.9662 68.589 16.9662C68.391 16.9662 68.3796 16.9714 68.3796 17.0614C68.3796 17.1466 68.3641 17.1566 68.2321 17.1566C67.9771 17.1566 67.8465 17.1969 67.8465 17.2756C67.8465 17.3367 67.8165 17.347 67.6371 17.347C67.4401 17.347 67.4277 17.3525 67.4277 17.4405C67.4277 17.5302 67.4163 17.5345 67.1516 17.5452C66.8983 17.5555 66.8746 17.5634 66.8634 17.6421C66.8534 17.7131 66.8273 17.7278 66.7111 17.7281C66.4354 17.729 66.2854 17.7708 66.2854 17.8469C66.2854 17.907 66.2556 17.9181 66.095 17.9181C65.9173 17.9181 65.9046 17.9245 65.9046 18.0133C65.9046 18.0978 65.8886 18.1085 65.7619 18.1089C65.4836 18.1097 65.3335 18.1514 65.3335 18.2277C65.3335 18.2845 65.3046 18.299 65.1907 18.2993C64.9184 18.3001 64.7624 18.3421 64.7624 18.4145C64.7624 18.4668 64.7191 18.4881 64.572 18.5083C64.4192 18.5293 64.3816 18.5488 64.3816 18.6071C64.3816 18.6655 64.3537 18.6797 64.2388 18.6801C63.9679 18.6809 63.8104 18.7229 63.8104 18.7945C63.8104 18.8469 63.7653 18.8669 63.601 18.8874C63.4287 18.9089 63.3916 18.9266 63.3916 18.987C63.3916 19.0464 63.3643 19.0605 63.2488 19.0608C62.9789 19.0616 62.8205 19.1037 62.8205 19.1746C62.8205 19.2438 62.6629 19.2876 62.4111 19.2884C62.3145 19.2888 62.2874 19.3049 62.2874 19.3623C62.2874 19.4227 62.2503 19.4403 62.078 19.4618C61.9137 19.4824 61.8685 19.5024 61.8685 19.5548C61.8685 19.6264 61.7111 19.6684 61.4402 19.6692C61.3263 19.6695 61.2974 19.684 61.2974 19.7408C61.2974 19.8171 61.1473 19.8588 60.869 19.8596C60.7423 19.86 60.7263 19.8707 60.7263 19.9552C60.7263 20.044 60.7136 20.0504 60.5359 20.0504C60.3753 20.0504 60.3455 20.0615 60.3455 20.1216C60.3455 20.1979 60.1954 20.2395 59.9171 20.2404C59.7903 20.2407 59.7743 20.2514 59.7743 20.336C59.7743 20.426 59.7629 20.4312 59.5649 20.4312C59.3856 20.4312 59.3555 20.4414 59.3555 20.5025C59.3555 20.5812 59.2249 20.6215 58.97 20.6215C58.838 20.6215 58.8224 20.6315 58.8224 20.7167C58.8224 20.8067 58.811 20.8119 58.613 20.8119C58.415 20.8119 58.4036 20.8171 58.4036 20.9071C58.4036 20.9769 58.3833 21.0023 58.3274 21.0023C58.2716 21.0023 58.2513 21.0277 58.2513 21.0975C58.2513 21.1651 58.2719 21.1927 58.3225 21.1927C58.3988 21.1927 58.4405 21.3428 58.4413 21.621C58.4416 21.735 58.4561 21.7638 58.5128 21.7638C58.5892 21.7638 58.6308 21.9139 58.6316 22.1922C58.632 22.319 58.6427 22.335 58.7273 22.335C58.8161 22.335 58.8224 22.3476 58.8224 22.5253C58.8224 22.6859 58.8336 22.7157 58.8936 22.7157C58.9699 22.7157 59.0116 22.8658 59.0124 23.1441C59.0128 23.2709 59.0235 23.2869 59.108 23.2869C59.198 23.2869 59.2032 23.2983 59.2032 23.4963C59.2032 23.6757 59.2134 23.7057 59.2746 23.7057C59.353 23.7057 59.3936 23.8362 59.3936 24.0886C59.3936 24.2098 59.4076 24.2355 59.4793 24.2456C59.5579 24.2568 59.5658 24.2806 59.5761 24.5339C59.5869 24.7986 59.5911 24.8099 59.6808 24.8099C59.7688 24.8099 59.7743 24.8223 59.7743 25.0193C59.7743 25.2173 59.7795 25.2288 59.8695 25.2288C59.9619 25.2288 59.9647 25.2366 59.9647 25.4926C59.9647 25.7373 59.971 25.7574 60.0504 25.7687C60.125 25.7793 60.1376 25.8066 60.1476 25.9808C60.1582 26.1643 60.1667 26.1807 60.2523 26.1807C60.3429 26.1807 60.3455 26.1886 60.3455 26.4662C60.3455 26.7455 60.3476 26.7518 60.4407 26.7518C60.5337 26.7518 60.5359 26.7582 60.5359 27.0374C60.5359 27.3166 60.538 27.323 60.6311 27.323C60.7199 27.323 60.7263 27.3356 60.7263 27.5133C60.7263 27.6911 60.7326 27.7037 60.8214 27.7037C60.9145 27.7037 60.9166 27.7101 60.9166 27.9893C60.9166 28.2685 60.9188 28.2749 61.0118 28.2749C61.0989 28.2749 61.107 28.2892 61.107 28.4415C61.107 28.715 61.1456 28.846 61.226 28.846C61.2863 28.846 61.2974 28.8756 61.2974 29.0364C61.2974 29.2141 61.3038 29.2268 61.3926 29.2268C61.4857 29.2268 61.4878 29.2331 61.4878 29.5124C61.4878 29.7916 61.4899 29.7979 61.583 29.7979C61.673 29.7979 61.6782 29.8094 61.6782 30.0073C61.6782 30.2044 61.6837 30.2168 61.7717 30.2168C61.8614 30.2168 61.8657 30.2281 61.8764 30.4928C61.8867 30.7461 61.8946 30.7699 61.9733 30.7811C62.045 30.7912 62.0589 30.8169 62.0589 30.9381C62.0589 31.1905 62.0995 31.321 62.1779 31.321C62.2391 31.321 62.2493 31.351 62.2493 31.5304C62.2493 31.7284 62.2545 31.7398 62.3445 31.7398C62.429 31.7398 62.4397 31.7558 62.4401 31.8826C62.4409 32.1609 62.4826 32.311 62.5589 32.311C62.6157 32.311 62.6302 32.3398 62.6305 32.4538C62.6313 32.7261 62.6733 32.8821 62.7457 32.8821C62.798 32.8821 62.8193 32.9254 62.8395 33.0725C62.8605 33.2252 62.88 33.2629 62.9383 33.2629C62.9967 33.2629 63.0109 33.2907 63.0113 33.4057C63.0121 33.678 63.054 33.834 63.1265 33.834C63.1787 33.834 63.2 33.8773 63.2203 34.0244C63.2413 34.1771 63.2608 34.2148 63.319 34.2148C63.3774 34.2148 63.3917 34.2427 63.392 34.3576C63.3928 34.6358 63.4345 34.7859 63.5108 34.7859C63.5676 34.7859 63.5821 34.8148 63.5824 34.9287C63.5832 35.2024 63.6251 35.3571 63.6985 35.3571C63.7528 35.3571 63.7723 35.4 63.793 35.5665C63.8136 35.7308 63.8336 35.7759 63.886 35.7759C63.9558 35.7759 63.9996 35.9324 64.0004 36.1852C64.0007 36.2809 64.0171 36.309 64.0726 36.309C64.131 36.309 64.1492 36.3479 64.1705 36.5184C64.1913 36.6849 64.2107 36.7278 64.2651 36.7278C64.3385 36.7278 64.3804 36.8825 64.3812 37.1562C64.3815 37.2703 64.3959 37.299 64.453 37.299C64.5314 37.299 64.572 37.4295 64.572 37.6818C64.572 37.8031 64.5859 37.8287 64.6576 37.8389C64.7323 37.8495 64.7448 37.8768 64.7548 38.051C64.7643 38.2146 64.7789 38.2509 64.8355 38.2509C64.9097 38.2509 64.9515 38.4042 64.9523 38.6792C64.9527 38.806 64.9634 38.822 65.0479 38.822C65.141 38.822 65.1431 38.8284 65.1431 39.1076C65.1431 39.3868 65.1452 39.3932 65.2383 39.3932C65.3271 39.3932 65.3335 39.4058 65.3335 39.5835C65.3335 39.7612 65.3399 39.7739 65.4287 39.7739C65.5217 39.7739 65.5239 39.7803 65.5239 40.0595C65.5239 40.3387 65.526 40.3451 65.6191 40.3451C65.7091 40.3451 65.7143 40.3565 65.7143 40.5545C65.7143 40.7339 65.7245 40.7639 65.7857 40.7639C65.8643 40.7639 65.9046 40.8945 65.9046 41.1494C65.9046 41.2814 65.9147 41.297 65.9998 41.297C66.0929 41.297 66.095 41.3033 66.095 41.5826C66.095 41.8618 66.0972 41.8681 66.1902 41.8681C66.2802 41.8681 66.2854 41.8796 66.2854 42.0775C66.2854 42.2755 66.2906 42.287 66.3806 42.287C66.4731 42.287 66.4758 42.2946 66.4758 42.5535C66.4758 42.8124 66.4785 42.82 66.571 42.82C66.658 42.82 66.6662 42.8343 66.6662 42.9866C66.6662 43.2601 66.7047 43.3912 66.7852 43.3912C66.8463 43.3912 66.8565 43.4212 66.8565 43.6006C66.8565 43.7976 66.8621 43.81 66.9501 43.81C67.0398 43.81 67.044 43.8214 67.0548 44.0861C67.0651 44.3394 67.073 44.3631 67.1516 44.3743C67.2273 44.385 67.2373 44.4085 67.2373 44.5742C67.2373 44.7491 67.2438 44.7619 67.3325 44.7619C67.4256 44.7619 67.4277 44.7683 67.4277 45.0475C67.4277 45.3267 67.4298 45.3331 67.5229 45.3331C67.6074 45.3331 67.6181 45.3491 67.6185 45.4759C67.6193 45.7541 67.6609 45.9042 67.7373 45.9042C67.7973 45.9042 67.8085 45.934 67.8085 46.0946C67.8085 46.2723 67.8148 46.285 67.9036 46.285C67.9907 46.285 67.9988 46.2993 67.9988 46.4516C67.9988 46.7222 68.0376 46.8561 68.1158 46.8561C68.1727 46.8561 68.1873 46.8922 68.1968 47.056C68.2068 47.2302 68.2193 47.2575 68.2939 47.2681C68.3649 47.2782 68.3797 47.3042 68.38 47.4204C68.3809 47.6961 68.4227 47.8461 68.4988 47.8461C68.5561 47.8461 68.57 47.8749 68.57 47.9937C68.57 48.2458 68.6105 48.3792 68.687 48.3792C68.7439 48.3792 68.7585 48.4152 68.7679 48.5791C68.7779 48.7532 68.7904 48.7805 68.8651 48.7912C68.9361 48.8012 68.9508 48.8273 68.9512 48.9435C68.952 49.2192 68.9938 49.3692 69.07 49.3692C69.1248 49.3692 69.1412 49.3976 69.1415 49.4929C69.1424 49.7457 69.1861 49.9022 69.256 49.9022C69.3084 49.9022 69.3284 49.9474 69.3489 50.1117C69.3697 50.2781 69.3891 50.3211 69.4435 50.3211C69.5169 50.3211 69.5588 50.4757 69.5596 50.7494C69.5599 50.8643 69.5741 50.8922 69.6325 50.8922C69.6908 50.8922 69.7103 50.9299 69.7313 51.0826C69.7515 51.2297 69.7729 51.273 69.8251 51.273C69.8976 51.273 69.9395 51.429 69.9403 51.7013C69.9407 51.8153 69.9551 51.8441 70.0119 51.8441C70.088 51.8441 70.1299 51.9941 70.1307 52.2698C70.131 52.386 70.1458 52.4121 70.2168 52.4221C70.2914 52.4328 70.3039 52.4601 70.314 52.6342C70.3234 52.7981 70.338 52.8341 70.3949 52.8341C70.4711 52.8341 70.5119 52.9675 70.5119 53.217C70.5119 53.3382 70.5259 53.3639 70.5975 53.374C70.6761 53.3852 70.6841 53.409 70.6944 53.6598C70.7045 53.909 70.713 53.9345 70.7896 53.9454C70.8623 53.9558 70.8752 53.9843 70.8851 54.1573C70.8957 54.3408 70.9042 54.3572 70.9898 54.3572C71.0797 54.3572 71.083 54.3665 71.083 54.621C71.083 54.8657 71.0893 54.8858 71.1687 54.8971C71.2433 54.9077 71.2559 54.935 71.2659 55.1092C71.2753 55.273 71.2899 55.3091 71.3468 55.3091C71.4251 55.3091 71.4638 55.443 71.4638 55.7136C71.4638 55.8659 71.4719 55.8802 71.559 55.8802C71.652 55.8802 71.6542 55.8866 71.6542 56.1658C71.6542 56.445 71.6563 56.4514 71.7494 56.4514C71.8382 56.4514 71.8445 56.464 71.8445 56.6417C71.8445 56.8195 71.8509 56.8321 71.9397 56.8321C72.0328 56.8321 72.0349 56.8385 72.0349 57.1177C72.0349 57.3969 72.0371 57.4033 72.1301 57.4033C72.2201 57.4033 72.2253 57.4147 72.2253 57.6127C72.2253 57.8107 72.2305 57.8221 72.3205 57.8221C72.413 57.8221 72.4157 57.8297 72.4157 58.0886C72.4157 58.3476 72.4184 58.3552 72.5109 58.3552C72.5979 58.3552 72.6061 58.3695 72.6061 58.5218C72.6061 58.7953 72.6446 58.9263 72.7251 58.9263C72.7862 58.9263 72.7965 58.9564 72.7965 59.1357C72.7965 59.3337 72.8016 59.3452 72.8916 59.3452C72.9841 59.3452 72.9868 59.3528 72.9868 59.6117C72.9868 59.8706 72.9895 59.8782 73.082 59.8782C73.1691 59.8782 73.1772 59.8925 73.1772 60.0448C73.1772 60.3183 73.2158 60.4494 73.2962 60.4494C73.3502 60.4494 73.3676 60.4773 73.3676 60.5636V60.6778L73.6056 60.6774C73.9674 60.6768 74.1291 60.6416 74.1291 60.5635C74.1291 60.5128 74.1736 60.4914 74.3195 60.472L74.5099 60.4468V60.2767C74.5099 60.136 74.4976 60.1067 74.4387 60.1067C74.3626 60.1067 74.3208 59.9567 74.3199 59.681C74.3196 59.5648 74.3049 59.5387 74.2338 59.5287C74.1592 59.5181 74.1467 59.4908 74.1367 59.3166C74.1272 59.153 74.1126 59.1167 74.056 59.1167C73.9838 59.1167 73.94 58.9643 73.9392 58.7101C73.9388 58.6136 73.9213 58.5865 73.8531 58.5768C73.7784 58.5662 73.7659 58.5389 73.7559 58.3647C73.7465 58.2011 73.7318 58.1648 73.6752 58.1648C73.601 58.1648 73.5592 58.0114 73.5584 57.7364C73.558 57.6096 73.5473 57.5937 73.4628 57.5937C73.3704 57.5937 73.3676 57.5858 73.3676 57.3298C73.3676 57.0851 73.3614 57.065 73.2819 57.0537C73.2073 57.0431 73.1948 57.0158 73.1848 56.8416C73.1742 56.6581 73.1656 56.6417 73.0801 56.6417C72.9894 56.6417 72.9868 56.6338 72.9868 56.3562C72.9868 56.077 72.9847 56.0706 72.8916 56.0706C72.7986 56.0706 72.7965 56.0642 72.7965 55.785C72.7965 55.5058 72.7943 55.4995 72.7013 55.4995C72.6124 55.4995 72.6061 55.4868 72.6061 55.3091C72.6061 55.1314 72.5997 55.1187 72.5109 55.1187C72.4178 55.1187 72.4157 55.1123 72.4157 54.8331C72.4157 54.5539 72.4136 54.5476 72.3205 54.5476C72.2305 54.5476 72.2253 54.5361 72.2253 54.3381C72.2253 54.1401 72.2201 54.1287 72.1301 54.1287C72.0376 54.1287 72.0349 54.1211 72.0349 53.8622C72.0349 53.6033 72.0322 53.5956 71.9397 53.5956C71.8467 53.5956 71.8445 53.5893 71.8445 53.3101C71.8445 53.0309 71.8424 53.0245 71.7494 53.0245C71.6593 53.0245 71.6542 53.0131 71.6542 52.8151C71.6542 52.6171 71.649 52.6057 71.559 52.6057C71.4665 52.6057 71.4638 52.598 71.4638 52.3391C71.4638 52.0802 71.4611 52.0726 71.3686 52.0726C71.2786 52.0726 71.2734 52.0612 71.2734 51.8632C71.2734 51.6652 71.2682 51.6537 71.1782 51.6537C71.0852 51.6537 71.083 51.6474 71.083 51.3682C71.083 51.089 71.0809 51.0826 70.9878 51.0826C70.9033 51.0826 70.8926 51.0666 70.8922 50.9398C70.8914 50.6616 70.8498 50.5115 70.7734 50.5115C70.7134 50.5115 70.7023 50.4816 70.7023 50.3211C70.7023 50.1434 70.6959 50.1307 70.6071 50.1307C70.514 50.1307 70.5119 50.1243 70.5119 49.8451C70.5119 49.5659 70.5097 49.5595 70.4167 49.5595C70.3322 49.5595 70.3215 49.5436 70.3211 49.4168C70.3203 49.1385 70.2786 48.9884 70.2023 48.9884C70.1423 48.9884 70.1311 48.9586 70.1311 48.798C70.1311 48.6203 70.1248 48.6076 70.0359 48.6076C69.9514 48.6076 69.9407 48.5916 69.9403 48.4649C69.9395 48.1899 69.8977 48.0365 69.8235 48.0365C69.7669 48.0365 69.7523 48.0002 69.7428 47.8366C69.7328 47.6624 69.7203 47.6351 69.6456 47.6245C69.5746 47.6145 69.5599 47.5884 69.5596 47.4722C69.5587 47.1965 69.5169 47.0465 69.4408 47.0465C69.3859 47.0465 69.3695 47.0181 69.3692 46.9228C69.3683 46.67 69.3246 46.5134 69.2547 46.5134C69.2024 46.5134 69.1823 46.4683 69.1618 46.304C69.1403 46.1316 69.1227 46.0946 69.0622 46.0946C69.0029 46.0946 68.9887 46.0673 68.9884 45.9518C68.9876 45.6819 68.9455 45.5235 68.8746 45.5235C68.8037 45.5235 68.7616 45.365 68.7608 45.0951C68.7604 44.9683 68.7497 44.9523 68.6652 44.9523C68.5763 44.9523 68.57 44.9396 68.57 44.7619C68.57 44.6014 68.5588 44.5715 68.4988 44.5715C68.4225 44.5715 68.3808 44.4215 68.38 44.1432C68.3797 44.0293 68.3652 44.0004 68.3084 44.0004C68.2558 44.0004 68.2311 43.9633 68.2137 43.8576C68.1767 43.6337 68.1785 43.6309 68.3796 43.6042C68.5329 43.5838 68.57 43.5648 68.57 43.5061C68.57 43.4451 68.6024 43.4314 68.7699 43.4217C68.944 43.4117 68.9713 43.3992 68.982 43.3245C68.9932 43.2451 69.0133 43.2389 69.258 43.2389C69.5141 43.2389 69.5219 43.2361 69.5219 43.1437C69.5219 43.0566 69.5362 43.0485 69.6885 43.0485C69.9591 43.0485 70.093 43.0098 70.093 42.9315C70.093 42.8746 70.1291 42.86 70.2929 42.8506C70.4671 42.8406 70.4944 42.828 70.505 42.7534C70.5151 42.6824 70.5411 42.6677 70.6573 42.6673C70.933 42.6665 71.083 42.6246 71.083 42.5485C71.083 42.4885 71.1128 42.4773 71.2734 42.4773C71.4511 42.4773 71.4638 42.471 71.4638 42.3822C71.4638 42.2976 71.4798 42.2869 71.6066 42.2865C71.8848 42.2858 72.0349 42.2441 72.0349 42.1678C72.0349 42.111 72.0638 42.0965 72.1777 42.0962C72.45 42.0954 72.6061 42.0534 72.6061 41.9809C72.6061 41.9287 72.6493 41.9074 72.7965 41.8872C72.9492 41.8661 72.9868 41.8466 72.9868 41.7884C72.9868 41.73 73.0147 41.7157 73.1296 41.7154C73.4079 41.7146 73.558 41.673 73.558 41.5966C73.558 41.5398 73.5868 41.5254 73.7008 41.525C73.9858 41.5242 74.1243 41.4835 74.1366 41.397C74.1463 41.3294 74.178 41.3141 74.329 41.3044C74.4739 41.2951 74.5099 41.2791 74.5099 41.2239C74.5099 41.1708 74.5504 41.1495 74.6866 41.1308C74.7837 41.1175 74.9122 41.1066 74.9721 41.1066C75.0543 41.1066 75.081 41.0886 75.081 41.0332C75.081 40.9728 75.1181 40.9551 75.2905 40.9336C75.4548 40.9131 75.4999 40.8931 75.4999 40.8407C75.4999 40.7691 75.6573 40.7271 75.9282 40.7263C76.055 40.7259 76.071 40.7152 76.071 40.6306C76.071 40.5383 76.0788 40.5355 76.3349 40.5355C76.5796 40.5355 76.5997 40.5292 76.6109 40.4498C76.6216 40.3752 76.6489 40.3626 76.823 40.3526C76.9866 40.3432 77.0229 40.3285 77.0229 40.2719C77.0229 40.1978 77.1763 40.1559 77.4513 40.1551C77.5781 40.1547 77.5941 40.144 77.5941 40.0595C77.5941 39.9664 77.6004 39.9643 77.8797 39.9643C78.1589 39.9643 78.1652 39.9622 78.1652 39.8691C78.1652 39.7803 78.1779 39.7739 78.3556 39.7739C78.5333 39.7739 78.546 39.7676 78.546 39.6787C78.546 39.5857 78.5523 39.5835 78.8316 39.5835C79.1108 39.5835 79.1171 39.5814 79.1171 39.4884C79.1171 39.3983 79.1286 39.3932 79.3266 39.3932C79.5245 39.3932 79.536 39.388 79.536 39.298C79.536 39.2055 79.5436 39.2028 79.8025 39.2028C80.0614 39.2028 80.069 39.2001 80.069 39.1076C80.069 39.0145 80.0754 39.0124 80.3546 39.0124C80.6338 39.0124 80.6402 39.0103 80.6402 38.9172C80.6402 38.8272 80.6516 38.822 80.8496 38.822C81.0476 38.822 81.059 38.8168 81.059 38.7268C81.059 38.6343 81.0666 38.6316 81.3256 38.6316C81.5845 38.6316 81.5921 38.6289 81.5921 38.5364C81.5921 38.4494 81.6064 38.4413 81.7587 38.4413C82.0322 38.4413 82.1632 38.4027 82.1632 38.3223C82.1632 38.2611 82.1933 38.2509 82.3727 38.2509C82.5697 38.2509 82.5821 38.2453 82.5821 38.1574C82.5821 38.0676 82.5934 38.0634 82.8581 38.0526C83.1115 38.0424 83.1352 38.0344 83.1464 37.9558C83.1571 37.8802 83.1806 37.8701 83.3463 37.8701C83.5211 37.8701 83.534 37.8636 83.534 37.7749C83.534 37.6819 83.5403 37.6797 83.8196 37.6797C84.0988 37.6797 84.1051 37.6776 84.1051 37.5845C84.1051 37.5 84.1211 37.4893 84.2479 37.4889C84.5262 37.4881 84.6763 37.4465 84.6763 37.3701C84.6763 37.3101 84.7061 37.299 84.8667 37.299C85.0444 37.299 85.057 37.2926 85.057 37.2038C85.057 37.1167 85.0713 37.1086 85.2236 37.1086C85.4971 37.1086 85.6282 37.0701 85.6282 36.9896C85.6282 36.9326 85.6569 36.9181 85.771 36.9178C86.046 36.917 86.1993 36.8751 86.1993 36.801C86.1993 36.7444 86.2357 36.7297 86.3992 36.7203C86.5734 36.7103 86.6007 36.6977 86.6113 36.6231C86.6215 36.5514 86.6471 36.5374 86.7684 36.5374C87.0144 36.5374 87.1512 36.4965 87.1512 36.4228C87.1512 36.3702 87.1961 36.3502 87.3607 36.3297C87.533 36.3081 87.5701 36.2905 87.5701 36.2301C87.5701 36.1707 87.5974 36.1566 87.7129 36.1563C87.9911 36.1555 88.1412 36.1138 88.1412 36.0375C88.1412 35.9826 88.1696 35.9662 88.265 35.9659C88.5178 35.965 88.6743 35.9213 88.6743 35.8515C88.6743 35.7991 88.7194 35.779 88.8837 35.7585L89.0931 35.7324V35.5638C89.0931 35.4093 89.0851 35.3951 88.9979 35.3951C88.9079 35.3951 88.9028 35.3837 88.9028 35.1857C88.9028 34.9877 88.8976 34.9763 88.8076 34.9763C88.7184 34.9763 88.7124 34.9639 88.7124 34.7809V34.5856L88.5696 34.6092C88.4911 34.6222 88.4054 34.633 88.3792 34.6332C88.353 34.6334 88.3316 34.667 88.3316 34.7078C88.3316 34.7704 88.3005 34.7838 88.1317 34.7935C87.9575 34.8035 87.9302 34.816 87.9196 34.8906C87.9084 34.9701 87.8882 34.9763 87.6436 34.9763C87.3875 34.9763 87.3797 34.9791 87.3797 35.0715C87.3797 35.156 87.3637 35.1667 87.2369 35.1671C86.9619 35.1679 86.8086 35.2098 86.8086 35.2839C86.8086 35.3405 86.7722 35.3552 86.6087 35.3646C86.4345 35.3746 86.4072 35.3872 86.3966 35.4618C86.3864 35.5335 86.3608 35.5475 86.2395 35.5475C85.9872 35.5475 85.8566 35.588 85.8566 35.6664C85.8566 35.7235 85.8279 35.7379 85.7139 35.7383C85.4429 35.7391 85.2855 35.7811 85.2855 35.8527C85.2855 35.9051 85.2404 35.9251 85.0761 35.9456C84.9037 35.9671 84.8667 35.9848 84.8667 36.0452C84.8667 36.1046 84.8394 36.1187 84.7239 36.119C84.4515 36.1198 84.2955 36.1618 84.2955 36.2342C84.2955 36.2865 84.2523 36.3078 84.1051 36.328C83.958 36.3482 83.9147 36.3696 83.9147 36.4218C83.9147 36.4943 83.7587 36.5362 83.4864 36.537C83.3725 36.5374 83.3436 36.5518 83.3436 36.6086C83.3436 36.6849 83.1935 36.7266 82.9152 36.7274C82.8003 36.7277 82.7725 36.742 82.7725 36.8004C82.7725 36.8586 82.7348 36.8781 82.5821 36.8992C82.4352 36.9194 82.3917 36.9407 82.3917 36.9928C82.3917 37.0441 82.3495 37.0659 82.215 37.0844C82.1179 37.0977 81.9906 37.1086 81.9321 37.1086C81.8509 37.1086 81.823 37.1288 81.8137 37.1943C81.8025 37.2729 81.7788 37.2808 81.5255 37.2911C81.2608 37.3019 81.2494 37.3061 81.2494 37.3958C81.2494 37.4838 81.237 37.4893 81.04 37.4893C80.8606 37.4893 80.8306 37.4996 80.8306 37.5607C80.8306 37.6392 80.7 37.6797 80.4477 37.6797C80.3264 37.6797 80.3008 37.6937 80.2906 37.7654C80.28 37.84 80.2527 37.8526 80.0786 37.8626C79.9147 37.872 79.8787 37.8866 79.8787 37.9435C79.8787 38.0218 79.7447 38.0605 79.4741 38.0605C79.3218 38.0605 79.3075 38.0686 79.3075 38.1557C79.3075 38.2481 79.2997 38.2509 79.0436 38.2509C78.799 38.2509 78.7789 38.2571 78.7676 38.3365C78.757 38.4112 78.7297 38.4237 78.5555 38.4337C78.3719 38.4443 78.3556 38.4528 78.3556 38.5384C78.3556 38.6291 78.3476 38.6316 78.07 38.6316C77.7908 38.6316 77.7845 38.6338 77.7845 38.7268C77.7845 38.8199 77.7781 38.822 77.4989 38.822C77.2197 38.822 77.2133 38.8242 77.2133 38.9172C77.2133 39.006 77.2006 39.0124 77.0229 39.0124C76.8452 39.0124 76.8326 39.0188 76.8326 39.1076C76.8326 39.2007 76.8262 39.2028 76.547 39.2028C76.2678 39.2028 76.2614 39.2049 76.2614 39.298C76.2614 39.388 76.25 39.3932 76.052 39.3932C75.854 39.3932 75.8426 39.3983 75.8426 39.4884C75.8426 39.5808 75.8349 39.5835 75.576 39.5835C75.3171 39.5835 75.3095 39.5863 75.3095 39.6787C75.3095 39.7658 75.2952 39.7739 75.1429 39.7739C74.8694 39.7739 74.7384 39.8125 74.7384 39.8929C74.7384 39.9541 74.7083 39.9643 74.5289 39.9643C74.3319 39.9643 74.3195 39.9699 74.3195 40.0578C74.3195 40.1475 74.3082 40.1518 74.0435 40.1625C73.7901 40.1728 73.7664 40.1808 73.7552 40.2594C73.7451 40.3311 73.7194 40.3451 73.5982 40.3451C73.3458 40.3451 73.2153 40.3856 73.2153 40.4641C73.2153 40.5252 73.1853 40.5355 73.0059 40.5355C72.8079 40.5355 72.7965 40.5406 72.7965 40.6306C72.7965 40.7152 72.7805 40.7259 72.6537 40.7263C72.3754 40.7271 72.2253 40.7687 72.2253 40.8451C72.2253 40.9051 72.1955 40.9162 72.0349 40.9162C71.8572 40.9162 71.8445 40.9226 71.8445 41.0114C71.8445 41.0959 71.8286 41.1066 71.7018 41.107C71.4235 41.1078 71.2734 41.1495 71.2734 41.2258C71.2734 41.2826 71.2445 41.2971 71.1306 41.2974C70.8524 41.2982 70.7023 41.3399 70.7023 41.4162C70.7023 41.4762 70.6724 41.4874 70.5119 41.4874C70.3342 41.4874 70.3215 41.4937 70.3215 41.5826C70.3215 41.6671 70.3055 41.6778 70.1787 41.6782C69.9092 41.679 69.7504 41.7211 69.7504 41.7918C69.7504 41.8583 69.5568 41.9062 69.2881 41.9062C69.2068 41.9062 69.1792 41.9244 69.1792 41.978C69.1792 42.0364 69.1403 42.0546 68.9698 42.0759C68.8033 42.0967 68.7604 42.1161 68.7604 42.1705C68.7604 42.2421 68.6066 42.2857 68.351 42.2865C68.2545 42.2869 68.2273 42.3031 68.2273 42.3601C68.2273 42.422 68.1893 42.4373 67.9805 42.4596C67.6433 42.4957 67.6181 42.4812 67.6181 42.2501C67.6181 42.0881 67.607 42.0585 67.5467 42.0585C67.4682 42.0585 67.4277 41.928 67.4277 41.6757C67.4277 41.5544 67.4137 41.5288 67.342 41.5186C67.2674 41.508 67.2549 41.4807 67.2449 41.3065C67.2354 41.1427 67.2208 41.1066 67.1639 41.1066C67.0857 41.1066 67.0469 40.9726 67.0469 40.702C67.0469 40.5497 67.0388 40.5355 66.9517 40.5355C66.8594 40.5355 66.8565 40.5276 66.8565 40.2716C66.8565 40.0269 66.8503 40.0068 66.7709 39.9955C66.6962 39.9849 66.6837 39.9576 66.6737 39.7834C66.6631 39.5999 66.6546 39.5835 66.569 39.5835C66.4784 39.5835 66.4758 39.5756 66.4758 39.298C66.4758 39.0188 66.4737 39.0124 66.3806 39.0124C66.2875 39.0124 66.2854 39.006 66.2854 38.7268C66.2854 38.4476 66.2833 38.4413 66.1902 38.4413C66.1014 38.4413 66.095 38.4286 66.095 38.2509C66.095 38.0732 66.0887 38.0605 65.9998 38.0605C65.9068 38.0605 65.9046 38.0541 65.9046 37.7749C65.9046 37.4957 65.9025 37.4893 65.8095 37.4893C65.7194 37.4893 65.7143 37.4779 65.7143 37.2799C65.7143 37.0819 65.7091 37.0705 65.6191 37.0705C65.5266 37.0705 65.5239 37.0629 65.5239 36.804C65.5239 36.5451 65.5212 36.5374 65.4287 36.5374C65.3416 36.5374 65.3335 36.5232 65.3335 36.3709C65.3335 36.1002 65.2948 35.9663 65.2165 35.9663C65.1596 35.9663 65.145 35.9302 65.1356 35.7664C65.1256 35.5922 65.113 35.5649 65.0384 35.5543C64.9667 35.5441 64.9527 35.5185 64.9527 35.3972C64.9527 35.1449 64.9122 35.0144 64.8337 35.0144C64.7748 35.0144 64.7624 34.9853 64.7624 34.8478C64.7624 34.5743 64.7238 34.4432 64.6434 34.4432C64.5822 34.4432 64.572 34.4132 64.572 34.2338C64.572 34.0358 64.5668 34.0244 64.4768 34.0244C64.3922 34.0244 64.3815 34.0084 64.3812 33.8816C64.3804 33.6034 64.3387 33.4533 64.2624 33.4533C64.2024 33.4533 64.1912 33.4234 64.1912 33.2629C64.1912 33.0852 64.1848 33.0725 64.096 33.0725C64.0115 33.0725 64.0008 33.0565 64.0004 32.9297C63.9996 32.6514 63.958 32.5013 63.8816 32.5013C63.8248 32.5013 63.8104 32.4725 63.81 32.3586C63.8092 32.0862 63.7673 31.9302 63.6948 31.9302C63.6426 31.9302 63.6212 31.8869 63.601 31.7398C63.58 31.5871 63.5605 31.5494 63.5023 31.5494C63.4438 31.5494 63.4296 31.5216 63.4293 31.4067C63.4285 31.1357 63.3864 30.9783 63.3148 30.9783C63.2624 30.9783 63.2424 30.9332 63.2219 30.7689C63.2011 30.6024 63.1817 30.5595 63.1273 30.5595C63.0557 30.5595 63.0121 30.4057 63.0113 30.1501C63.011 30.0549 62.9945 30.0264 62.9399 30.0264C62.8843 30.0264 62.8636 29.988 62.8447 29.8497C62.8313 29.7526 62.8205 29.6241 62.8205 29.5641C62.8205 29.482 62.8024 29.4552 62.747 29.4552C62.6866 29.4552 62.669 29.4182 62.6475 29.2458C62.627 29.0815 62.6069 29.0364 62.5545 29.0364C62.4829 29.0364 62.4409 28.879 62.4401 28.608C62.4397 28.4812 62.429 28.4653 62.3445 28.4653C62.2521 28.4653 62.2493 28.4575 62.2493 28.2014C62.2493 27.9567 62.2431 27.9366 62.1636 27.9253C62.089 27.9147 62.0765 27.8874 62.0665 27.7132C62.057 27.5497 62.0424 27.5133 61.9858 27.5133C61.9116 27.5133 61.8698 27.36 61.869 27.085C61.8686 26.9582 61.8579 26.9422 61.7734 26.9422C61.6845 26.9422 61.6782 26.9295 61.6782 26.7518C61.6782 26.5913 61.667 26.5614 61.607 26.5614C61.5307 26.5614 61.489 26.4113 61.4882 26.1331C61.4878 26.0063 61.4771 25.9903 61.3926 25.9903C61.2995 25.9903 61.2974 25.9839 61.2974 25.7047C61.2974 25.4255 61.2953 25.4191 61.2022 25.4191C61.1122 25.4191 61.107 25.4077 61.107 25.2097C61.107 25.0117 61.1018 25.0003 61.0118 25.0003C60.9193 25.0003 60.9166 24.9927 60.9166 24.7338C60.9166 24.4749 60.9139 24.4672 60.8214 24.4672C60.7284 24.4672 60.7263 24.4609 60.7263 24.1817C60.7263 23.9025 60.7241 23.8961 60.6311 23.8961C60.5411 23.8961 60.5359 23.8847 60.5359 23.6867C60.5359 23.4887 60.5307 23.4773 60.4407 23.4773C60.3482 23.4773 60.3455 23.4696 60.3455 23.2107C60.3455 22.9518 60.3428 22.9442 60.2503 22.9442C60.1603 22.9442 60.1551 22.9328 60.1551 22.7348C60.1551 22.5368 60.1499 22.5253 60.0599 22.5253C59.9669 22.5253 59.9647 22.519 59.9647 22.2398C59.9647 21.9606 59.9626 21.9542 59.8695 21.9542C59.7807 21.9542 59.7743 21.9415 59.7743 21.7638V21.5734H59.9457C60.1031 21.5734 60.117 21.5657 60.117 21.4782C60.117 21.3882 60.1285 21.3831 60.3265 21.3831C60.5245 21.3831 60.5359 21.3779 60.5359 21.2879C60.5359 21.1948 60.5422 21.1927 60.8214 21.1927C61.1007 21.1927 61.107 21.1905 61.107 21.0975C61.107 21.0104 61.1213 21.0023 61.2736 21.0023C61.5471 21.0023 61.6782 20.9638 61.6782 20.8833C61.6782 20.823 61.7078 20.8119 61.8685 20.8119C62.0463 20.8119 62.0589 20.8056 62.0589 20.7167C62.0589 20.6237 62.0653 20.6215 62.3445 20.6215C62.6221 20.6215 62.6301 20.6189 62.6301 20.5283C62.6301 20.4427 62.6464 20.4342 62.83 20.4236C63.0041 20.4136 63.0314 20.4011 63.0421 20.3264C63.0533 20.247 63.0734 20.2408 63.3181 20.2408C63.5742 20.2408 63.582 20.238 63.582 20.1456C63.582 20.0585 63.5963 20.0504 63.7486 20.0504C64.0192 20.0504 64.1531 20.0117 64.1531 19.9334C64.1531 19.8765 64.1892 19.8619 64.353 19.8525C64.5272 19.8425 64.5545 19.8299 64.5651 19.7553C64.5752 19.6843 64.6012 19.6695 64.7174 19.6692C64.9931 19.6684 65.1431 19.6265 65.1431 19.5504C65.1431 19.4931 65.1719 19.4792 65.2907 19.4792C65.5456 19.4792 65.6762 19.4389 65.6762 19.3603C65.6762 19.2991 65.7062 19.2889 65.8856 19.2889C66.0836 19.2889 66.095 19.2837 66.095 19.1937C66.095 19.1091 66.111 19.0984 66.2378 19.0981C66.5101 19.0973 66.6662 19.0553 66.6662 18.9828C66.6662 18.9306 66.7094 18.9093 66.8565 18.8891C67.0093 18.868 67.0469 18.8485 67.0469 18.7903C67.0469 18.7319 67.0748 18.7176 67.1897 18.7173C67.468 18.7165 67.6181 18.6748 67.6181 18.5985C67.6181 18.5417 67.6469 18.5273 67.7609 18.5269C68.0346 18.5261 68.1892 18.4842 68.1892 18.4109C68.1892 18.3565 68.2322 18.3371 68.3986 18.3163C68.5629 18.2958 68.6081 18.2757 68.6081 18.2233C68.6081 18.1535 68.7646 18.1097 69.0174 18.1089C69.1127 18.1086 69.1411 18.0922 69.1411 18.0373C69.1411 17.9612 69.2911 17.9194 69.5668 17.9185C69.683 17.9182 69.7091 17.9035 69.7191 17.8324C69.7298 17.7578 69.7571 17.7453 69.9312 17.7353C70.0951 17.7258 70.1311 17.7112 70.1311 17.6544C70.1311 17.5781 70.2645 17.5373 70.514 17.5373C70.6352 17.5373 70.6609 17.5234 70.671 17.4517C70.6817 17.377 70.709 17.3645 70.8831 17.3545C71.0467 17.3451 71.083 17.3304 71.083 17.2738C71.083 17.1996 71.2364 17.1578 71.5114 17.157C71.6382 17.1566 71.6542 17.1459 71.6542 17.0614C71.6542 16.9683 71.6605 16.9662 71.9397 16.9662C72.219 16.9662 72.2253 16.9641 72.2253 16.871C72.2253 16.7823 72.2382 16.7758 72.413 16.7758C72.5787 16.7758 72.6022 16.7658 72.6129 16.6902C72.6241 16.6115 72.6478 16.6036 72.9012 16.5933C73.1659 16.5825 73.1772 16.5783 73.1772 16.4886C73.1772 16.3976 73.1849 16.3951 73.4628 16.3951C73.742 16.3951 73.7484 16.3929 73.7484 16.2999C73.7484 16.211 73.761 16.2047 73.9387 16.2047C74.1165 16.2047 74.1291 16.1983 74.1291 16.1095C74.1291 16.0164 74.1355 16.0143 74.4147 16.0143C74.6939 16.0143 74.7003 16.0122 74.7003 15.9191C74.7003 15.8291 74.7117 15.8239 74.9097 15.8239C75.1077 15.8239 75.1191 15.8187 75.1191 15.7287C75.1191 15.6357 75.1255 15.6335 75.4047 15.6335C75.6839 15.6335 75.6903 15.6314 75.6903 15.5383C75.6903 15.4532 75.7058 15.4431 75.8378 15.4431C76.0927 15.4431 76.2233 15.4028 76.2233 15.3242C76.2233 15.263 76.2534 15.2528 76.4327 15.2528C76.6307 15.2528 76.6422 15.2476 76.6422 15.1576C76.6422 15.0645 76.6485 15.0624 76.9277 15.0624C77.207 15.0624 77.2133 15.0603 77.2133 14.9672C77.2133 14.8827 77.2293 14.872 77.3561 14.8716C77.6344 14.8708 77.7845 14.8291 77.7845 14.7528C77.7845 14.6928 77.8143 14.6816 77.9748 14.6816C78.1525 14.6816 78.1652 14.6753 78.1652 14.5864C78.1652 14.5019 78.1812 14.4912 78.308 14.4908C78.583 14.49 78.7364 14.4482 78.7364 14.374C78.7364 14.3174 78.7727 14.3028 78.9363 14.2933C79.1104 14.2833 79.1377 14.2708 79.1484 14.1961C79.1596 14.1167 79.1797 14.1105 79.4244 14.1105C79.6805 14.1105 79.6883 14.1077 79.6883 14.0153C79.6883 13.9308 79.7043 13.9201 79.8311 13.9197C80.106 13.9189 80.2594 13.877 80.2594 13.8029C80.2594 13.7463 80.2957 13.7316 80.4593 13.7222C80.6335 13.7122 80.6608 13.6996 80.6714 13.625C80.6792 13.5699 80.7098 13.5393 80.7571 13.5393C80.8101 13.5393 80.8306 13.5128 80.8306 13.4441C80.8306 13.3743 80.8103 13.349 80.7544 13.349C80.6919 13.349 80.6782 13.3234 80.6778 13.2062C80.677 12.9321 80.6352 12.7778 80.5616 12.7778C80.515 12.7778 80.4891 12.7441 80.4809 12.6731C80.4696 12.5752 80.4564 12.568 80.2785 12.5632C80.1737 12.5604 80.0495 12.5658 80.0024 12.5754Z" fill="#870087"/>
</svg>
