<svg width="132" height="88" viewBox="0 0 132 88" fill="none" xmlns="http://www.w3.org/2000/svg">
<path fill-rule="evenodd" clip-rule="evenodd" d="M39.3574 17.3245C36.2362 18.7314 34.7333 22.7966 35.1645 28.6639C35.3173 30.7448 35.7916 34.2352 36.2186 36.4208L36.9943 40.3943L36.0775 41.484L35.1607 42.5732L33.7345 41.3827C31.9814 39.9188 29.6329 39.7815 27.8668 41.039C27.2125 41.5049 26.148 42.965 25.5016 44.2833C24.4731 46.3805 24.3082 47.2558 24.1822 51.285C23.8975 60.3819 26.989 67.7412 32.215 70.4073C34.352 71.4974 38.2635 71.3337 39.6311 70.0971C41.0306 68.8312 42.0407 66.5 42.5468 63.3675C43.0973 59.9612 42.9265 58.1482 41.1796 48.8755C40.1552 43.4389 39.9706 41.749 40.3583 41.3613C40.7455 40.9741 40.8581 41.2152 40.8581 42.4342C40.8581 46.8494 43.2509 50.6571 46.0259 50.6571C47.8268 50.6571 48.983 49.5247 49.8512 46.9113C50.5365 44.8475 51.7421 43.9856 51.7421 45.5592C51.7421 46.9101 53.0795 50.2962 53.7087 50.5374C54.6879 50.9133 55.3572 49.8186 56.1312 46.5756C56.8236 43.6746 57.6027 42.5406 57.6027 44.434C57.6027 44.9254 57.8229 46.0624 58.092 46.9611C59.1792 50.5897 62.0174 51.7894 63.9849 49.4515C64.9217 48.338 65.0347 48.3028 65.4659 48.9935C66.2337 50.2226 68.6784 50.8316 70.0661 50.1393C70.9925 49.6771 71.4781 49.6591 72.4371 50.0509C73.9839 50.6835 74.9928 50.4051 76.0569 49.0521L76.9088 47.9692L77.9607 49.3129C79.3803 51.1268 81.0928 51.1427 82.761 49.3569C83.4287 48.6419 83.9762 47.7473 83.9771 47.3684C83.9779 46.977 84.3546 47.3119 84.8507 48.1454C86.5741 51.0409 88.3474 51.4428 90.2789 49.3753L91.4761 48.0935L92.6445 49.3426C94.2457 51.0543 95.319 51.2837 96.6879 50.2071C97.8315 49.3075 99.0455 46.9561 99.0455 45.6404C99.0455 45.0895 99.627 44.7952 101.43 44.4331C105.274 43.6612 107.836 41.304 107.836 38.5386C107.836 37.5553 106.175 35.7975 104.941 35.4748C104.26 35.2969 104.189 35.4664 104.371 36.8261C104.713 39.3746 103.119 41.6711 100.459 42.4619C99.6416 42.7051 99.5541 42.5385 99.3775 40.4094C99.2389 38.7354 98.9132 37.8027 98.2053 37.0488C96.3078 35.0289 93.1849 36.106 93.1849 38.7806C93.1849 39.5035 93.0007 39.6467 92.305 39.4646C91.0742 39.1427 90.687 39.974 90.6795 42.9525C90.6745 44.9509 90.4949 45.6651 89.8515 46.2474C88.707 47.283 87.9543 46.8435 87.1167 44.65C86.4247 42.8374 86.4297 42.6678 87.2519 40.1189C88.6526 35.7757 89.1105 32.9656 88.9322 29.8088C88.73 26.2318 87.7517 24.5657 85.7344 24.3639C84.582 24.2492 84.3287 24.4363 83.4735 26.0384C82.5847 27.7028 82.5132 28.329 82.5496 34.1218C82.5713 37.5754 82.7945 41.2353 83.0452 42.2546C83.525 44.2041 83.0975 45.7074 81.745 46.8297C80.9187 47.5158 79.9734 46.5555 79.3166 44.362C78.8892 42.9366 78.9512 42.263 79.7679 39.4621C80.8207 35.8498 81.3046 30.8235 80.8751 27.9602C80.3121 24.2048 77.5107 23.093 75.8329 25.9588C75.0597 27.2795 74.9768 28.1046 74.994 34.3311C75.0053 38.3783 75.2184 41.9256 75.5085 42.8985C75.9288 44.3067 75.8944 44.7793 75.2803 46.0092C74.554 47.4651 73.3355 48.5288 72.8968 48.0901C72.7674 47.9612 72.9771 47.1198 73.3623 46.2214C74.3577 43.9002 74.3502 39.4759 73.3489 37.989C71.4023 35.0993 68.5 36.6615 68.1585 40.7836C68.0325 42.3003 68.2091 43.8483 68.6683 45.2523C69.0547 46.4337 69.295 47.4764 69.2021 47.5694C69.1091 47.6623 68.5461 47.3555 67.9504 46.887C66.3986 45.6664 65.81 42.3974 66.1763 37.0282L66.4673 32.7563L68.5607 32.5549C71.4559 32.2766 72.8122 30.9106 72.8122 28.2725C72.8122 25.8927 72.1989 25.1254 71.4362 26.5507C71.134 27.1159 70.3934 27.7614 69.791 27.9849C67.307 28.9084 67.1655 28.918 67.397 28.154C67.7742 26.9095 68.4657 23.6841 68.4766 23.1202C68.4938 22.2181 67.3652 22.0883 65.8326 22.8154C64.4755 23.4597 64.3562 23.6765 64.0878 25.9885C63.7525 28.8753 63.9108 28.8247 59.1377 27.5768C56.8856 26.9882 54.3973 26.6763 51.8467 26.6633L47.9745 26.6437V24.5498C47.9745 19.3514 43.389 15.5069 39.3574 17.3245ZM40.7262 21.6002C38.9433 23.3827 38.6357 25.0609 38.8529 31.8186C38.9613 35.1976 39.1715 38.1589 39.3201 38.3992C39.5009 38.6918 40.2105 38.6135 41.4672 38.1614C43.9466 37.2698 44.562 37.7746 43.8587 40.1222C42.8528 43.4799 43.6741 48.564 45.2226 48.564C45.9141 48.564 46.8744 47.268 47.3428 45.7011C47.5622 44.9681 47.4148 44.5671 46.7564 44.1058C44.6922 42.6603 43.9265 38.8609 45.426 37.5042C47.4391 35.6824 50.472 38.1388 50.5 41.6142L50.5143 43.3313L51.2979 42.392C51.7287 41.8754 52.2118 40.5048 52.3712 39.3461C52.7103 36.8788 53.4295 36.0056 55.1207 36.0056C56.5398 36.0056 56.6512 36.5602 55.7528 39.1452C55.4326 40.0661 55.0504 41.7615 54.9034 42.9127L54.6368 45.0058L55.4246 42.9127C57.2167 38.1526 57.9426 36.8784 59.0134 36.6096C60.6619 36.196 60.8566 36.5807 60.4283 39.4089C59.9193 42.7721 60.3396 46.1055 61.4188 47.2638C61.8801 47.759 62.4816 48.0361 62.7558 47.88C64.1293 47.098 64.1808 46.9013 63.5918 44.6914C63.1991 43.2196 63.0413 40.7167 63.1133 37.1107L63.2205 31.7273L59.7686 30.3346C54.2579 28.1118 51.323 27.7157 47.8699 28.7305C47.4672 28.8485 47.1373 29.2215 47.1373 29.5593C47.1373 30.6176 45.0832 34.2809 44.2351 34.7347C43.1345 35.3236 42.7059 35.2822 41.9343 34.5107C40.6994 33.2758 41.1344 31.8027 43.3698 29.6481C45.3385 27.7505 45.4628 27.5052 45.4628 25.518C45.4628 21.1674 43.1073 19.2191 40.7262 21.6002ZM85.9353 28.7434C85.7784 28.9004 85.6666 31.3991 85.6871 34.2964C85.7248 39.5466 85.7265 39.5571 86.3071 37.4707C87.2582 34.0532 86.9869 27.6915 85.9353 28.7434ZM77.8871 31.1936C77.7288 32.4616 77.7477 34.769 77.9298 36.3216L78.26 39.1452L78.7754 37.0521C79.3342 34.7799 79.5238 30.613 79.1165 29.5514C78.6318 28.2884 78.1734 28.9008 77.8871 31.1936ZM43.4707 31.3949C42.6472 32.7136 42.8946 33.3859 43.8022 32.2962C44.2551 31.7529 44.6256 31.1404 44.6256 30.9357C44.6256 30.2877 44.009 30.5326 43.4707 31.3949ZM95.9825 38.7894C95.3977 39.3742 95.7255 40.9247 96.5966 41.6966L97.497 42.4941L97.24 40.8556C96.97 39.1368 96.4652 38.3067 95.9825 38.7894ZM71.013 39.7455C70.2658 41.1416 70.5835 46.0523 71.4211 46.0523C71.846 46.0523 72.2324 45.0188 72.6627 42.731C73.2057 39.8455 72.0645 37.7805 71.013 39.7455ZM46.725 40.2717C46.7287 40.5731 46.9142 41.1022 47.1373 41.4476C47.4672 41.9578 47.5442 41.9038 47.5496 41.1583C47.553 40.6539 47.3675 40.1247 47.1373 39.9824C46.9071 39.8401 46.7216 39.9703 46.725 40.2717ZM93.1866 41.7343C93.1857 42.4677 93.0041 43.5436 92.7826 44.1254C92.2995 45.3964 92.9296 47.5392 93.8953 47.9097C94.6902 48.2149 95.5534 47.5434 96.3521 45.9987C97.1663 44.4239 97.1186 44.1694 95.9051 43.6164C95.3286 43.3539 94.4818 42.523 94.0226 41.7699L93.1878 40.401L93.1866 41.7343ZM30.5388 43.7365C28.6672 45.0476 28.2616 49.8567 29.512 55.9153C30.4266 60.3459 31.4422 62.5235 33.7035 64.9004C35.0682 66.335 35.5689 66.6004 36.6983 66.4891C40.1632 66.1467 40.928 60.7135 38.9936 50.1845C38.3857 46.8774 37.739 44.0216 37.5556 43.8383C37.3723 43.6549 37.0135 43.7571 36.7578 44.0652C36.4141 44.4792 36.4467 45.0564 36.8829 46.2805C38.5704 51.0188 36.6062 55.1538 33.7617 52.8506C32.4971 51.8263 32.2041 49.1576 33.0765 46.6087C33.7534 44.6328 33.7488 44.5708 32.8718 43.8546C31.7829 42.9659 31.649 42.9588 30.5388 43.7365ZM35.0038 48.4347C35.0075 49.0814 35.193 49.8931 35.4161 50.2385C35.7188 50.7065 35.8234 50.4729 35.8284 49.3213C35.8318 48.4715 35.6463 47.6598 35.4161 47.5175C35.1746 47.368 35 47.7561 35.0038 48.4347ZM61.9981 53.1809C54.6983 53.9152 49.8457 55.1329 46.8539 56.9823C45.6177 57.7459 45.4394 58.046 45.6667 58.9787C45.8136 59.5819 46.2553 60.4037 46.6479 60.8043C47.3253 61.4958 47.5337 61.4586 50.7412 60.0717C60.4974 55.8538 76.6216 55.1597 90.3852 58.365C94.0636 59.2219 94.4408 59.2035 94.4408 58.1691C94.4408 56.6851 88.6735 54.6205 81.673 53.5978C77.4132 52.9758 66.3655 52.7414 61.9981 53.1809Z" fill="black"/>
</svg>
