<svg width="132" height="88" viewBox="0 0 132 88" fill="none" xmlns="http://www.w3.org/2000/svg">
<path fill-rule="evenodd" clip-rule="evenodd" d="M32.8945 43.9991V77.0217L65.958 76.9799L99.0214 76.9383L99.063 43.9575L99.1048 10.9766H65.9996H32.8945V43.9991ZM32.9754 44.0813C32.9754 62.2435 32.9948 69.649 33.0184 60.5379C33.042 51.4269 33.042 36.5669 33.0184 27.5157C32.9948 18.4647 32.9754 25.9191 32.9754 44.0813ZM50.0661 44.6592V67.9398H56.4228H62.7796V59.3676C62.7796 54.6528 62.8247 50.6778 62.8798 50.5341C62.9696 50.3002 63.9529 50.2729 72.2911 50.2729H81.6022V45.1545V40.0361H72.2911C63.9529 40.0361 62.9696 40.0088 62.8798 39.7749C62.749 39.4342 62.749 32.2172 62.8798 31.8766C62.9696 31.6425 64.0039 31.6154 72.869 31.6154H82.758V26.497V21.3785H66.412H50.0661V44.6592Z" fill="#017EBE"/>
</svg>
