<svg width="132" height="88" viewBox="0 0 132 88" fill="none" xmlns="http://www.w3.org/2000/svg">
<circle cx="65.9996" cy="44.0016" r="37.4" fill="#88AA43"/>
<path fill-rule="evenodd" clip-rule="evenodd" d="M61.7149 6.81564C47.0934 8.58941 35.1153 18.2433 30.5767 31.9122C26.2519 44.9368 29.1438 59.2376 38.0629 68.9335L39.8448 70.8705L39.86 54.3982C39.8791 34.3058 40.0801 35.1754 35.1239 33.9127C33.3485 33.4604 33.0408 33.2426 32.9352 32.3641L32.8129 31.3419L52.9987 31.2374C64.1011 31.1802 73.2251 31.1439 73.2746 31.1576C73.3623 31.1817 71.2531 42.7411 70.8444 44.4763C70.6808 45.1701 70.3652 45.3528 69.3316 45.3528H68.0257L67.8485 42.2903C67.6225 38.3879 66.825 36.9211 64.218 35.6132C62.4056 34.704 61.817 34.6303 55.3499 34.5037C50.2989 34.4051 48.268 34.4971 47.8504 34.8438C47.37 35.2424 47.2777 37.1805 47.2781 46.8613L47.2785 58.4039L54.9724 58.3552L62.6662 58.3065L63.0083 55.9526C63.2865 54.0386 63.505 53.5575 64.1771 53.3771C66.4518 52.7666 66.3673 52.4892 66.3673 60.5466V67.9487H64.4194H62.4715V64.8234V61.6986L54.972 61.8041L47.4725 61.9101L47.3665 69.2023L47.2606 76.4949L48.8988 77.3306C58.0699 82.0095 69.4169 82.6402 79.116 79.0105C95.7329 72.7924 105.826 55.2112 102.787 37.7809C100.484 24.5752 91.4557 13.5858 79.116 8.96808C73.9007 7.01627 67.0483 6.16893 61.7149 6.81564ZM76.3044 14.9626C75.6246 15.7133 75.6437 15.8988 76.8892 20.6264C77.5974 23.3141 78.3166 25.5998 78.4872 25.7054C78.6579 25.8109 78.991 25.1467 79.2274 24.2296C79.4639 23.3125 79.998 21.289 80.4145 19.7334C81.3698 16.1629 81.3705 15.0993 80.418 14.5894C79.1647 13.9189 77.0773 14.1082 76.3044 14.9626ZM66.6291 20.4362C65.4062 21.3985 64.8315 23.7446 65.6356 24.4926C66.16 24.9804 74.5657 27.4332 75.7099 27.4324C76.0274 27.432 74.5404 25.6789 72.4058 23.5362C70.2713 21.3935 68.3257 19.6403 68.083 19.6403C67.8399 19.6403 67.1858 19.9984 66.6291 20.4362ZM84.8815 23.3196C82.7434 25.3411 81.1146 27.1157 81.2615 27.2625C81.667 27.6677 91.0365 25.0567 91.5842 24.3858C92.273 23.5428 91.7934 21.9509 90.4778 20.7117C89.8522 20.1222 89.2117 19.6411 89.0543 19.6423C88.8969 19.6431 87.0191 21.298 84.8815 23.3196ZM84.6777 34.2497C87.0144 36.5962 88.6651 37.9507 89.1871 37.9507C90.1985 37.9507 91.1467 36.9503 91.735 35.2622C92.3622 33.4635 91.7814 33.028 86.9634 31.682C80.4616 29.8653 80.3907 29.9448 84.6777 34.2497ZM78.1237 32.5398C77.9356 33.0517 77.2967 35.4442 76.7041 37.8561C75.5225 42.6659 75.6 43.1283 77.6547 43.5393C78.2823 43.6648 79.3303 43.581 79.9836 43.3531C80.9089 43.0305 81.1695 42.7111 81.1629 41.9058C81.1535 40.7799 79.0393 32.1826 78.6847 31.8277C78.5644 31.7077 78.3123 32.0283 78.1237 32.5398Z" fill="#333333"/>
</svg>
