<svg width="132" height="88" viewBox="0 0 132 88" fill="none" xmlns="http://www.w3.org/2000/svg">
<path fill-rule="evenodd" clip-rule="evenodd" d="M61.4242 9.74883C47.1965 11.8428 36.1933 21.6269 32.4029 35.5543C31.7335 38.0131 31.6217 39.2261 31.6251 43.9991C31.6291 50.0955 31.9601 51.9642 33.9239 56.9756L34.9714 59.6492L35.4012 57.3273C35.6377 56.0501 36.4389 53.7423 37.1818 52.1982L38.5324 49.3915L39.4769 49.8199C40.7493 50.3971 50.889 55.5295 51.051 55.6782C51.1214 55.743 50.7867 56.752 50.3071 57.9201C49.0882 60.8896 48.9706 61.4429 49.3914 62.2269C49.6377 62.686 50.1011 62.9153 50.782 62.9153C53.8823 62.9153 56.502 59.4161 58.8909 52.0837C59.6321 49.8084 60.2385 47.7425 60.2385 47.4928C60.2385 47.1824 59.7717 47.0392 58.7608 47.0392C57.3367 47.0392 57.1622 47.1618 53.9545 50.4171C52.1242 52.2749 50.5025 53.795 50.3511 53.795C50.1997 53.795 48.8646 52.5874 47.3842 51.1112C42.9166 46.6565 40.9854 41.6977 41.3539 35.6273C41.7638 28.8772 45.4994 23.3027 51.6784 20.2196C57.0016 17.5636 65.3761 17.7474 72.214 20.6699L73.8435 21.3664L76.272 20.2105C79.3961 18.7239 82.0432 18.2294 86.0893 18.3773L89.3414 18.4959L88.4251 17.7274C84.4717 14.4117 79.8053 12.0272 74.2971 10.5082C71.9701 9.86638 63.8707 9.38874 61.4242 9.74883ZM56.6514 21.5306C44.3472 24.2002 40.0389 38.5789 48.6143 48.3539L50.1756 50.1333L52.8356 47.4962C54.2987 46.0461 55.4958 44.7571 55.4958 44.6321C55.4958 44.5071 54.9647 43.6177 54.3156 42.656C53.0961 40.8492 52.1082 38.1242 52.1082 36.5677C52.1082 34.7227 53.1703 32.1119 54.5101 30.6624C56.3309 28.6928 58.7087 27.7108 62.1159 27.5213C64.8077 27.3717 69.8424 28.1699 70.2384 28.809C70.3339 28.9627 69.9789 29.8213 69.4497 30.7172C68.9203 31.6126 67.9755 33.5941 67.3501 35.1202L66.2125 37.8952L60.0962 38.0877L59.3225 40.6212C58.8967 42.0145 58.5477 43.3448 58.5467 43.5768C58.5454 43.8818 59.3499 43.9991 61.4469 43.9991C64.0546 43.9991 64.3307 44.0592 64.1668 44.5902C64.0665 44.9151 63.289 47.5144 62.4391 50.3657C59.4041 60.5471 56.1635 65.1508 51.6001 65.7653C47.5753 66.3071 45.3971 63.0329 46.8818 58.6727C47.1745 57.8127 47.3653 57.0648 47.3053 57.0107C46.9899 56.727 40.2157 53.4572 39.9433 53.4572C39.7672 53.4572 39.2878 54.3314 38.8786 55.3995C37.8451 58.0974 37.8247 62.4286 38.8349 64.6918C42.1182 72.0461 53.0639 74.5069 60.2656 69.5097C65.0807 66.1682 67.7146 61.3858 71.2919 49.4898L72.942 44.0021L80.056 43.9977L81.8386 37.9188H78.3219C76.3879 37.9188 74.8052 37.8273 74.8052 37.7152C74.8052 37.1524 77.5173 31.8386 77.8046 31.8386C77.9882 31.8386 79.0939 32.0828 80.2623 32.3811C83.5009 33.2087 88.7195 32.9334 90.7137 31.8302C92.8107 30.6702 93.7761 29.1387 93.7745 26.9751C93.7721 23.837 92.0817 22.2363 87.8502 21.3654C84.1286 20.5993 79.5689 21.4286 76.122 23.4982L74.2208 24.64L71.3793 23.4668C66.1065 21.2904 60.9086 20.6068 56.6514 21.5306ZM83.2698 26.4894C81.2586 27.4916 81.1759 27.5774 81.9456 27.8672C83.281 28.3705 87.4257 28.5604 88.4403 28.1648C89.7073 27.671 89.7449 26.2208 88.503 25.7499C86.9881 25.1757 85.4782 25.3892 83.2698 26.4894ZM96.4967 28.8965C96.4788 29.9068 95.224 32.0382 94.0841 32.9945C92.3605 34.4406 90.5427 35.2138 87.8671 35.6381L85.3688 36.0346L83.9382 40.9458C83.1516 43.6467 82.3731 46.1177 82.2081 46.4362C81.9598 46.9152 81.3125 47.0324 78.4689 47.1118L75.0295 47.2081L74.4427 49.0659C70.925 60.2005 69.5686 63.4436 67.0259 66.7999C62.8734 72.2816 59.3997 74.1948 51.7695 75.2038C51.136 75.2876 55.3058 76.8826 58.0366 77.6007C61.2494 78.4459 67.9514 78.6361 71.669 77.9875C85.8759 75.5088 96.7322 65.1082 99.9182 50.9238C100.648 47.6769 100.472 39.0261 99.614 35.8921C98.7393 32.6996 97.6485 29.7963 97.0045 28.9471C96.5452 28.3415 96.5066 28.3378 96.4967 28.8965ZM60.1257 30.6141C57.0663 31.4714 55.4633 33.2279 55.235 35.9725C55.1324 37.2061 55.2679 38.1904 55.6673 39.1112C56.3079 40.5884 56.2432 40.6597 57.3675 37.2433L58.0901 35.0476L64.367 34.7098L65.2024 32.7314C65.6617 31.643 65.9781 30.6935 65.9053 30.6209C65.5011 30.2179 61.5566 30.2132 60.1257 30.6141Z" fill="#0193FF"/>
<path fill-rule="evenodd" clip-rule="evenodd" d="M56.6518 21.5306C44.3476 24.2002 40.0393 38.5789 48.6147 48.3539L50.176 50.1333L52.836 47.4962C54.2991 46.0461 55.4962 44.7571 55.4962 44.6321C55.4962 44.5071 54.9651 43.6177 54.316 42.656C53.0965 40.8492 52.1086 38.1242 52.1086 36.5677C52.1086 34.7227 53.1706 32.1119 54.5104 30.6624C56.3313 28.6928 58.709 27.7108 62.1163 27.5213C64.8081 27.3717 69.8428 28.1699 70.2388 28.809C70.3343 28.9627 69.9793 29.8213 69.4501 30.7172C68.9207 31.6126 67.9758 33.5941 67.3505 35.1202L66.2129 37.8952L60.0966 38.0877L59.3229 40.6212C58.8971 42.0145 58.5481 43.3448 58.5471 43.5768C58.5458 43.8818 59.3503 43.9991 61.4472 43.9991C64.055 43.9991 64.3311 44.0592 64.1672 44.5902C64.0669 44.9151 63.2894 47.5144 62.4395 50.3657C59.4045 60.5471 56.1639 65.1508 51.6005 65.7653C47.5757 66.3071 45.3974 63.0329 46.8822 58.6727C47.1749 57.8127 47.3656 57.0648 47.3057 57.0107C46.9903 56.727 40.2161 53.4572 39.9437 53.4572C39.7676 53.4572 39.2882 54.3314 38.879 55.3995C37.8454 58.0974 37.8251 62.4286 38.8353 64.6918C42.1186 72.0461 53.0643 74.5069 60.266 69.5097C65.0811 66.1682 67.715 61.3858 71.2923 49.4898L72.9424 44.0021L80.0564 43.9977L81.8389 37.9188H78.3223C76.3883 37.9188 74.8056 37.8273 74.8056 37.7152C74.8056 37.1524 77.5177 31.8386 77.805 31.8386C77.9886 31.8386 79.0943 32.0828 80.2627 32.3811C83.5012 33.2087 88.7199 32.9334 90.7141 31.8302C92.8111 30.6702 93.7765 29.1387 93.7748 26.9751C93.7725 23.837 92.0821 22.2363 87.8506 21.3654C84.129 20.5993 79.5693 21.4286 76.1224 23.4982L74.2212 24.64L71.3797 23.4668C66.1069 21.2904 60.909 20.6068 56.6518 21.5306ZM83.2702 26.4894C81.259 27.4916 81.1763 27.5774 81.946 27.8672C83.2814 28.3705 87.4261 28.5604 88.4407 28.1648C89.7077 27.671 89.7453 26.2208 88.5034 25.7499C86.9884 25.1757 85.4786 25.3892 83.2702 26.4894Z" fill="#4A5B6D"/>
</svg>
