<svg width="132" height="88" viewBox="0 0 132 88" fill="none" xmlns="http://www.w3.org/2000/svg">
<path d="M66.0004 78.0984C59.2561 78.0984 52.6632 76.0985 47.0554 72.3516C41.4477 68.6046 37.0771 63.2789 34.4961 57.0479C31.9152 50.817 31.2399 43.9607 32.5556 37.3459C33.8714 30.7312 37.1191 24.6551 41.8881 19.8861C46.657 15.1171 52.7331 11.8694 59.3479 10.5537C65.9626 9.23792 72.819 9.91321 79.0499 12.4942C85.2809 15.0751 90.6065 19.4458 94.3535 25.0535C98.1005 30.6612 100.1 37.2541 100.1 43.9984C100.09 53.0392 96.4942 61.7067 90.1015 68.0996C83.7087 74.4923 75.0411 78.0883 66.0004 78.0984Z" fill="#E76F5C"/>
<path d="M73.8182 60.0154L72.3594 38.7734C74.1208 39.4761 76.0016 39.8316 77.8979 39.8213C79.6979 39.844 81.4902 39.5825 83.2087 39.0466L83.9834 38.7738L82.4336 60.0154H73.8182Z" fill="white"/>
<path d="M50.6629 60.014L47.9277 32.3906L68.8958 32.3909L70.3092 38.0441L61.6939 38.5897L61.238 42.784H68.3032V47.023L60.645 48.9374L59.5511 60.014H50.6629Z" fill="white"/>
<path d="M74.2974 29.3163C75.3611 28.4058 76.7269 27.9261 78.1263 27.9717C79.5362 27.9293 80.9107 28.4172 81.9782 29.3392C82.4833 29.7804 82.8841 30.3282 83.1522 30.943C83.4201 31.5579 83.5485 32.2244 83.528 32.8948C83.5485 33.5651 83.4202 34.2316 83.1524 34.8464C82.8846 35.4612 82.4837 36.009 81.9788 36.4504C80.8988 37.3347 79.5459 37.818 78.15 37.818C76.7541 37.818 75.4011 37.3347 74.321 36.4504C73.8142 36.0055 73.4124 35.4537 73.1442 34.8349C72.8762 34.2161 72.7485 33.5456 72.7705 32.8716C72.7464 32.2029 72.8709 31.5373 73.1349 30.9225C73.3989 30.3077 73.796 29.7592 74.2974 29.3163Z" fill="white"/>
</svg>
