<svg width="132" height="88" viewBox="0 0 132 88" fill="none" xmlns="http://www.w3.org/2000/svg">
<path d="M97.2974 72.3422C97.8695 73.1507 98.1279 74.1397 98.0249 75.1245C97.9217 76.1093 97.4637 77.0232 96.7365 77.6954C95.9819 78.3909 94.9933 78.7769 93.9671 78.7769C93.0118 78.7772 92.0868 78.4417 91.3545 77.8286L72.6934 62.2232C68.8196 58.9836 63.1821 58.9836 59.3084 62.2228L40.6472 77.8286C39.9145 78.4417 38.9895 78.7772 38.0342 78.7769C37.0076 78.7779 36.0184 78.3916 35.2641 77.6954C34.5377 77.0225 34.0805 76.109 33.9773 75.1242C33.8741 74.1397 34.132 73.1511 34.703 72.3422L49.3924 51.6096C52.0991 47.7893 51.9291 42.6333 48.9766 38.9997L34.8667 21.6346C34.2477 20.8743 33.9234 19.9165 33.953 18.9366C33.9827 17.9568 34.3644 17.0204 35.0282 16.299C35.4109 15.8837 35.8756 15.5521 36.3929 15.3255C36.9102 15.0989 37.4689 14.982 38.0336 14.9822C38.8545 14.9828 39.656 15.2313 40.3332 15.6952L60.116 29.2103C63.6647 31.6345 68.337 31.6345 71.8856 29.2103L91.6685 15.6952C92.3438 15.2312 93.1436 14.9827 93.9629 14.9822C94.528 14.9814 95.0868 15.098 95.6043 15.3247C96.1217 15.5514 96.5867 15.8832 96.9692 16.299C97.6337 17.0198 98.0162 17.9558 98.0468 18.9357C98.0774 19.9156 97.7537 20.8738 97.1354 21.6346L83.026 39.0001C80.0736 42.6337 79.9036 47.789 82.6101 51.6093L97.2974 72.3422Z" fill="url(#paint0_linear_2227_6379)"/>
<path d="M72.9998 16.4498C73.0294 18.336 72.3081 20.1566 70.9954 21.5113C69.6827 22.866 67.8859 23.6441 65.9997 23.6743C64.1137 23.6438 62.317 22.8657 61.0046 21.511C59.6921 20.1563 58.9713 18.3358 59.0005 16.4498C58.9716 14.5637 59.6925 12.7432 61.0048 11.3881C62.3171 10.033 64.1136 9.2542 65.9997 9.22266C67.886 9.25392 69.6827 10.0326 70.9954 11.3877C72.3078 12.7428 73.029 14.5635 72.9998 16.4498Z" fill="url(#paint1_linear_2227_6379)"/>
<defs>
<linearGradient id="paint0_linear_2227_6379" x1="33.9512" y1="43.9999" x2="98.0486" y2="43.9999" gradientUnits="userSpaceOnUse">
<stop stop-color="#1B4ADC"/>
<stop offset="0.5" stop-color="#7000FF"/>
<stop offset="1" stop-color="#E700B7"/>
</linearGradient>
<linearGradient id="paint1_linear_2227_6379" x1="58.9997" y1="16.4485" x2="73.0009" y2="16.4485" gradientUnits="userSpaceOnUse">
<stop stop-color="#1B4ADC"/>
<stop offset="0.5" stop-color="#7000FF"/>
<stop offset="1" stop-color="#E700B7"/>
</linearGradient>
</defs>
</svg>
