<svg width="132" height="88" viewBox="0 0 132 88" fill="none" xmlns="http://www.w3.org/2000/svg">
<rect x="66.3887" y="10.0625" width="33.2596" height="67.8761" fill="#FFDF02"/>
<path d="M75.4245 43.2889C75.4245 40.3109 75.476 38.4965 75.5652 38.3301C75.7356 38.0125 76.0106 37.9941 76.2981 38.2809C76.4647 38.4473 76.5116 38.8027 76.5116 39.9V41.3059L76.8661 41.2802C77.607 41.2269 77.651 42.0376 76.921 42.2915L76.5116 42.434V45.2097C76.5116 48.0765 76.4403 48.51 75.9681 48.51C75.8239 48.51 75.6426 48.392 75.5652 48.2477C75.476 48.0813 75.4245 46.267 75.4245 43.2889Z" fill="black" fill-opacity="0.99"/>
<path d="M69.3097 39.5791C69.3097 39.444 69.3531 39.2902 69.4061 39.2374C69.5671 39.0767 70.0203 39.206 70.1784 39.4579C70.3728 39.7673 70.1496 40.1359 69.7045 40.2404C69.3891 40.3144 69.3763 40.3653 69.3389 41.6975L69.3004 43.0779L69.7806 43.2782C70.0447 43.3883 70.2609 43.5682 70.2609 43.6777C70.2609 44.4545 69.5564 44.5617 69.2505 43.8314C69.1412 43.5703 68.9613 43.3567 68.8507 43.3567C68.3837 43.3567 68.2227 42.9613 68.2227 41.8135C68.2227 40.6305 68.2952 40.4515 68.936 40.0555C69.1415 39.9284 69.3097 39.714 69.3097 39.5791Z" fill="black" fill-opacity="0.99"/>
<path d="M71.9187 40.0749C71.7396 39.8962 71.6995 39.3895 71.8525 39.237C71.9057 39.1838 72.1009 39.1583 72.2863 39.1804C72.5321 39.2097 72.6517 39.3312 72.7287 39.63C72.8022 39.9154 72.9619 40.0874 73.2559 40.1982C73.6092 40.3314 73.6705 40.419 73.6338 40.7381C73.5996 41.0357 73.5111 41.1282 73.2294 41.1608C72.9223 41.1963 72.8453 41.1309 72.7094 40.72C72.6087 40.4156 72.4636 40.2376 72.3158 40.2376C72.1871 40.2376 72.0084 40.1644 71.9187 40.0749Z" fill="black" fill-opacity="0.99"/>
<path d="M79.2972 42.2511C78.9754 42.1921 78.8604 41.6705 79.1044 41.3771C79.1967 41.2661 79.363 41.1932 79.474 41.215C79.6572 41.2511 79.7677 41.4024 80.0449 41.9975C80.0962 42.1077 80.2854 42.2325 80.4651 42.2748L80.792 42.3518V45.3144C80.792 47.9318 80.7656 48.2937 80.5656 48.4196C80.4013 48.523 80.2801 48.5131 80.1239 48.3839C79.9402 48.2317 79.9087 47.7936 79.9087 45.3909C79.9087 42.4469 79.8919 42.3603 79.2972 42.2511Z" fill="black" fill-opacity="0.99"/>
<path d="M83.8886 41.752C83.9761 41.5531 84.11 41.3447 84.1863 41.2888C84.5377 41.0315 85.0555 41.4953 84.8918 41.9207C84.8436 42.0463 84.6185 42.2137 84.3917 42.2926L83.9793 42.4361L84.0162 44.8907L84.0532 47.3452L84.38 47.4221C85.0712 47.5849 85.1002 48.3833 84.4184 48.4848C84.2017 48.5171 84.0843 48.4133 83.9354 48.0575C83.8248 47.7936 83.5693 47.5065 83.3523 47.4027L82.9661 47.218V44.8485V42.4789L83.3478 42.2964C83.5577 42.1959 83.8011 41.951 83.8886 41.752Z" fill="black" fill-opacity="0.99"/>
<path d="M86.7709 42.2511C86.4491 42.1921 86.334 41.6705 86.578 41.3771C86.6703 41.2661 86.8366 41.1932 86.9476 41.215C87.1308 41.2511 87.2413 41.4024 87.5185 41.9975C87.5699 42.1077 87.759 42.2325 87.9388 42.2748L88.2656 42.3517L88.3025 44.8174L88.3396 47.2833L87.8609 47.4829C87.548 47.6135 87.3823 47.773 87.3823 47.9441C87.3823 48.305 87.046 48.5508 86.7017 48.4418C86.3101 48.3177 86.3655 47.5195 86.7709 47.4456C87.3541 47.3391 87.3823 47.2191 87.3823 44.8485C87.3823 42.478 87.3542 42.3582 86.7709 42.2511Z" fill="black" fill-opacity="0.99"/>
<path d="M91.2264 41.752C91.3139 41.5531 91.4477 41.3447 91.5241 41.2888C91.8755 41.0315 92.3932 41.4953 92.2296 41.9207C92.1814 42.0463 91.9576 42.2133 91.7324 42.2915L91.323 42.434V44.8485V47.2629L91.7324 47.4054C92.4624 47.6593 92.4183 48.47 91.6775 48.4167L91.323 48.3911V49.797C91.323 51.2373 91.1912 51.6291 90.7066 51.6291C90.2794 51.6291 90.232 51.1063 90.268 46.788L90.3039 42.4788L90.6855 42.2962C90.8955 42.1959 91.1389 41.951 91.2264 41.752Z" fill="black" fill-opacity="0.99"/>
<path d="M94.1086 42.2511C93.7868 42.1921 93.6717 41.6705 93.9158 41.3771C94.0081 41.2661 94.1744 41.1932 94.2854 41.215C94.4686 41.2511 94.579 41.4024 94.8562 41.9975C94.9076 42.1077 95.0968 42.2325 95.2765 42.2748L95.6033 42.3517L95.6403 44.8174L95.6774 47.2833L95.1987 47.4829C94.8857 47.6135 94.7201 47.773 94.7201 47.9441C94.7201 48.305 94.3838 48.5508 94.0394 48.4418C93.6478 48.3177 93.7033 47.5195 94.1086 47.4456C94.6918 47.3391 94.7201 47.2191 94.7201 44.8485C94.7201 42.478 94.692 42.3582 94.1086 42.2511Z" fill="black" fill-opacity="0.99"/>
<path d="M71.7556 43.8363C71.7556 43.6545 71.8611 43.4469 71.9899 43.3749C72.2996 43.202 72.6756 43.4092 72.7313 43.7834C72.774 44.0694 72.9463 44.2137 73.4202 44.3597C73.627 44.4236 73.658 44.6198 73.658 45.8684V47.3036L73.2603 47.4421C73.0074 47.5299 72.8117 47.7256 72.7231 47.9792C72.5587 48.4498 72.2425 48.6089 71.9512 48.3675C71.6411 48.1108 71.7695 47.6788 72.2312 47.4247C72.6358 47.202 72.6392 47.1904 72.6779 45.884L72.7168 44.5676L72.2363 44.3672C71.8725 44.2154 71.7556 44.0865 71.7556 43.8363Z" fill="black" fill-opacity="0.99"/>
<path d="M68.355 47.1472C68.1822 46.825 68.1852 46.8039 68.4361 46.5533C68.7795 46.2107 69.0744 46.3327 69.2937 46.9083C69.369 47.1059 69.602 47.3493 69.8117 47.4492C70.2472 47.6569 70.373 48.1127 70.0654 48.3675C69.7719 48.6106 69.4574 48.4488 69.2898 47.9685C69.2003 47.7127 69.0229 47.528 68.817 47.4765C68.6356 47.4311 68.4277 47.2828 68.355 47.1472Z" fill="black" fill-opacity="0.99"/>
<path fill-rule="evenodd" clip-rule="evenodd" d="M32.3496 44.0354V77.9387H49.3351H66.3207V44.0354V10.0625H49.3351H32.3496V44.0354ZM39.778 39.2438C39.7281 39.2934 39.6874 41.3304 39.6874 43.7702C39.6874 47.5479 39.7177 48.2313 39.8912 48.375C40.0538 48.5097 40.1362 48.5097 40.2988 48.375C40.4722 48.2314 40.5027 47.5616 40.5027 43.8942C40.5027 41.5228 40.4656 39.4859 40.4202 39.3679C40.337 39.1517 39.9459 39.0762 39.778 39.2438ZM40.9554 39.3674C40.9102 39.4849 40.9732 39.6812 41.0955 39.8032C41.2957 40.0028 41.3389 40.0042 41.5268 39.8168C41.6449 39.6988 41.6976 39.5096 41.6482 39.3809C41.5376 39.0931 41.0644 39.0839 40.9554 39.3674ZM42.2107 39.3809C42.1613 39.5096 42.214 39.6988 42.3321 39.8168C42.52 40.0042 42.5632 40.0028 42.7634 39.8032C42.8857 39.6812 42.9487 39.4849 42.9035 39.3674C42.7945 39.0839 42.3213 39.0931 42.2107 39.3809ZM43.4337 39.3809C43.3842 39.5096 43.437 39.6988 43.555 39.8168C43.743 40.0042 43.7862 40.0028 43.9863 39.8032C44.1086 39.6812 44.1717 39.4849 44.1264 39.3674C44.0174 39.0839 43.5443 39.0931 43.4337 39.3809ZM61.3882 39.2391C61.3359 39.2914 61.293 41.1275 61.293 43.3193V47.3042L61.7071 47.4484C62.0077 47.5529 62.1435 47.7028 62.202 47.9953C62.2993 48.4809 62.5945 48.6259 62.8885 48.3326C63.0661 48.1552 63.0733 48.0805 62.9293 47.9071C62.8331 47.7916 62.6737 47.6969 62.5749 47.6969C62.4762 47.6969 62.3003 47.5613 62.184 47.3955C62.0131 47.1522 61.9724 46.6616 61.9724 44.8491C61.9724 43.0366 62.0131 42.546 62.184 42.3027C62.3003 42.1368 62.4762 42.0012 62.5749 42.0012C62.6737 42.0012 62.8331 41.9066 62.9293 41.791C63.0737 41.6173 63.0645 41.5412 62.8757 41.3529C62.6874 41.1649 62.6006 41.1542 62.3796 41.292C62.2325 41.3836 62.083 41.4588 62.0477 41.4588C62.0123 41.4588 61.9656 40.9559 61.9438 40.3415C61.9129 39.4613 61.8597 39.2156 61.694 39.184C61.5782 39.162 61.4407 39.1867 61.3882 39.2391ZM47.0564 41.3571C46.9805 41.4504 46.8966 41.6421 46.8699 41.7833C46.8217 42.0378 46.6335 42.1851 46.1758 42.3262C45.9609 42.3925 45.938 42.6343 45.938 44.843V47.2864L46.4026 47.4802C46.7016 47.6049 46.8834 47.782 46.9122 47.9767C46.9742 48.394 47.3954 48.6481 47.5723 48.375C47.7666 48.0753 47.6711 47.7748 47.3633 47.7178C46.7756 47.6089 46.7533 47.5044 46.7533 44.8597C46.7533 42.235 46.8004 42.0012 47.3283 42.0012C47.6473 42.0012 47.7843 41.6503 47.5672 41.3892C47.3625 41.1432 47.2368 41.1352 47.0564 41.3571ZM48.2557 41.4445C48.0915 41.7506 48.3926 42.0789 48.7219 41.9528C48.9927 41.8492 48.9862 41.3747 48.7125 41.2699C48.4137 41.1554 48.41 41.1568 48.2557 41.4445ZM49.5617 41.278C49.3841 41.4551 49.475 41.8755 49.7088 41.9582C50.3988 42.2025 50.4224 42.2978 50.4202 44.8362C50.419 46.1485 50.3719 47.2947 50.3154 47.3833C50.259 47.472 50.0417 47.6093 49.8325 47.6887C49.5469 47.797 49.463 47.9089 49.4956 48.138C49.5515 48.5308 50.0574 48.5577 50.1292 48.1716C50.1971 47.8068 50.415 47.5574 50.7903 47.415C51.0989 47.2978 51.1016 47.2758 51.1016 44.8482C51.1016 42.6386 51.0784 42.3914 50.8638 42.3154C50.4817 42.1801 50.1504 41.8423 50.1504 41.5879C50.1504 41.4582 50.0537 41.3152 49.9355 41.2699C49.6694 41.1679 49.6719 41.1679 49.5617 41.278ZM54.3941 41.3571C54.3183 41.4504 54.2343 41.6421 54.2077 41.7833C54.1594 42.0378 53.9712 42.1851 53.5136 42.3262C53.2968 42.393 53.2758 42.6561 53.2758 45.3028C53.2758 47.7181 53.31 48.2345 53.4796 48.375C53.6423 48.5097 53.7246 48.5097 53.8873 48.375C54.057 48.2344 54.0911 47.7142 54.0911 45.2665C54.0911 42.2171 54.1291 42.0012 54.666 42.0012C54.9851 42.0012 55.122 41.6503 54.9049 41.3892C54.7003 41.1432 54.5746 41.1352 54.3941 41.3571ZM55.5934 41.4445C55.4293 41.7506 55.7304 42.0789 56.0596 41.9528C56.3305 41.8492 56.3239 41.3747 56.0503 41.2699C55.7515 41.1554 55.7478 41.1568 55.5934 41.4445ZM56.8994 41.278C56.7012 41.4757 56.826 41.8789 57.1201 41.9905C57.7265 42.2205 57.7528 42.3565 57.7912 45.4699C57.8267 48.3402 57.8373 48.4428 58.0997 48.4428C58.3622 48.4428 58.3727 48.3403 58.408 45.4222C58.4417 42.6363 58.4259 42.3949 58.2042 42.3164C57.8196 42.1801 57.4882 41.843 57.4882 41.5879C57.4882 41.4582 57.3914 41.3152 57.2732 41.2699C57.0072 41.1679 57.0096 41.1679 56.8994 41.278ZM60.123 41.3809C59.9993 41.7025 60.1742 42.0271 60.4433 41.9755C60.7664 41.9134 60.7664 41.2754 60.4433 41.2133C60.3123 41.1881 60.1681 41.2635 60.123 41.3809ZM63.6045 41.3892C63.3838 41.6546 63.5262 42.0012 63.856 42.0012C64.1774 42.0012 64.3423 41.6265 64.1323 41.3737C63.9339 41.1353 63.8127 41.1389 63.6045 41.3892ZM40.9596 43.696C40.9126 43.8182 40.937 43.9806 41.0137 44.0573C41.2352 44.2783 41.6577 44.1293 41.6577 43.8301C41.6577 43.4852 41.0832 43.3747 40.9596 43.696ZM42.2136 43.6087C42.0617 43.854 42.2966 44.1864 42.5922 44.1443C42.9876 44.088 42.9839 43.5754 42.5877 43.5191C42.4267 43.4962 42.2583 43.5365 42.2136 43.6087ZM43.4365 43.6087C43.2846 43.854 43.5196 44.1864 43.8151 44.1443C44.2105 44.088 44.2069 43.5754 43.8106 43.5191C43.6496 43.4962 43.4812 43.5365 43.4365 43.6087ZM48.2718 47.8718C48.1546 48.0128 48.1612 48.1188 48.2986 48.3065C48.5444 48.6419 48.9613 48.4801 48.903 48.0719C48.8522 47.7165 48.4951 47.6032 48.2718 47.8718ZM63.5122 47.9109C63.467 48.0285 63.53 48.2248 63.6523 48.3468C63.8583 48.5523 63.8915 48.552 64.1009 48.343C64.2877 48.1567 64.2965 48.0809 64.1522 47.9071C63.9268 47.6362 63.6171 47.638 63.5122 47.9109Z" fill="black" fill-opacity="0.99"/>
</svg>
