<svg width="132" height="88" viewBox="0 0 132 88" fill="none" xmlns="http://www.w3.org/2000/svg">
<path fill-rule="evenodd" clip-rule="evenodd" d="M31.2305 43.9984V78.6493L65.9402 78.5886L100.65 78.5282L100.71 43.9379L100.771 9.34766H66.0007H31.2305V43.9984ZM31.3468 44.1171C31.3468 63.1746 31.375 70.9355 31.4097 61.3638C31.4443 51.7918 31.4443 36.1993 31.4097 26.7138C31.375 17.228 31.3468 25.0596 31.3468 44.1171ZM42.9398 35.5144V37.5456H47.2412H51.5425V46.9847V56.4239H53.8127H56.0829V46.9847V37.5456H60.3843H64.6856V35.5144V33.4832H53.8127H42.9398V35.5144ZM67.0753 44.9535V56.4239H69.3421H71.6087L71.672 49.0989L71.7351 41.7741L77.9482 49.0926L84.1613 56.4112L85.6549 56.4176L87.1484 56.4239V44.9535V33.4832H84.8816H82.615L82.5517 40.7898L82.4886 48.0964L76.3044 40.7898L70.1202 33.4832H68.5977H67.0753V44.9535Z" fill="black"/>
</svg>
