<svg width="132" height="88" viewBox="0 0 132 88" fill="none" xmlns="http://www.w3.org/2000/svg">
<path fill-rule="evenodd" clip-rule="evenodd" d="M63.1056 7.47492C62.1867 7.65019 60.4538 8.25461 59.2547 8.81823C57.3118 9.73172 55.7499 11.1576 44.8976 21.9259C38.2003 28.5712 32.2384 34.7609 31.6487 35.6807C29.7855 38.5885 29.2942 40.3281 29.2872 44.043C29.2802 47.7575 29.762 49.463 31.6507 52.4052C32.2411 53.3251 38.203 59.5252 44.8993 66.1832C55.6485 76.8708 57.3235 78.4057 59.2001 79.2871C63.7318 81.4158 68.4886 81.367 72.9205 79.1456C74.8972 78.1549 76.6191 76.5547 87.7326 65.3821C98.4956 54.562 100.445 52.4504 101.263 50.7328C103.198 46.6647 103.195 41.4273 101.256 37.3328C100.45 35.6306 98.4902 33.5193 87.5689 22.5851C73.8076 8.80753 73.4268 8.49946 69.0063 7.56356C66.5035 7.03373 65.5012 7.01867 63.1056 7.47492ZM54.8103 31.7542L42.5037 44.0507L49.5446 51.0596L74.3162 26.3224L70.8919 22.8902C69.0083 21.0023 67.3885 19.458 67.2924 19.458C67.196 19.458 61.5793 24.9915 54.8103 31.7542ZM50.2099 51.7413L67.2888 68.7908L74.3233 61.7639L65.9479 53.418L75.4863 43.8731L66.7818 35.178L50.2099 51.7413Z" fill="#FF001D"/>
</svg>
