<svg width="132" height="88" viewBox="0 0 132 88" fill="none" xmlns="http://www.w3.org/2000/svg">
<path fill-rule="evenodd" clip-rule="evenodd" d="M31.9004 9.89844H36.4471V14.4451H31.9004V9.89844ZM40.9937 14.4451V18.9918H36.4471V14.4451H40.9937ZM45.5404 14.4451V9.89844H40.9937V14.4451H45.5404ZM50.0871 14.4451V18.9918H45.5404V14.4451H50.0871ZM54.6337 14.4451H50.0871V9.89844H54.6337V14.4451ZM59.1804 14.4451V18.9918H54.6337V14.4451H59.1804ZM63.7271 14.4451V9.89844H59.1804V14.4451H63.7271ZM68.2737 14.4451V18.9918H63.7271V14.4451H68.2737ZM72.8204 14.4451H68.2737V9.89844H72.8204V14.4451ZM77.3671 14.4451V18.9918H72.8204V14.4451H77.3671ZM81.9137 14.4451V9.89844H77.3671V14.4451H81.9137ZM86.4604 14.4451V18.9918H81.9137V14.4451H86.4604ZM91.0071 14.4451H86.4604V9.89844H91.0071V14.4451ZM95.5537 14.4451V18.9918H91.0071V14.4451H95.5537ZM95.5537 14.4451H100.1V9.89844H95.5537V14.4451Z" fill="#ECECEF"/>
<path fill-rule="evenodd" clip-rule="evenodd" d="M31.9004 18.9922H36.4471V23.5389H31.9004V18.9922ZM40.9937 23.5389V28.0855H36.4471V23.5389H40.9937ZM45.5404 23.5389V18.9922H40.9937V23.5389H45.5404ZM50.0871 23.5389V28.0855H45.5404V23.5389H50.0871ZM54.6337 23.5389H50.0871V18.9922H54.6337V23.5389ZM59.1804 23.5389V28.0855H54.6337V23.5389H59.1804ZM63.7271 23.5389V18.9922H59.1804V23.5389H63.7271ZM68.2737 23.5389V28.0855H63.7271V23.5389H68.2737ZM72.8204 23.5389H68.2737V18.9922H72.8204V23.5389ZM77.3671 23.5389V28.0855H72.8204V23.5389H77.3671ZM81.9137 23.5389V18.9922H77.3671V23.5389H81.9137ZM86.4604 23.5389V28.0855H81.9137V23.5389H86.4604ZM91.0071 23.5389H86.4604V18.9922H91.0071V23.5389ZM95.5537 23.5389V28.0855H91.0071V23.5389H95.5537ZM95.5537 23.5389H100.1V18.9922H95.5537V23.5389Z" fill="#ECECEF"/>
<path fill-rule="evenodd" clip-rule="evenodd" d="M31.9004 28.0859H36.4471V32.6326H31.9004V28.0859ZM40.9937 32.6326V37.1793H36.4471V32.6326H40.9937ZM45.5404 32.6326V28.0859H40.9937V32.6326H45.5404ZM50.0871 32.6326V37.1793H45.5404V32.6326H50.0871ZM54.6337 32.6326H50.0871V28.0859H54.6337V32.6326ZM59.1804 32.6326V37.1793H54.6337V32.6326H59.1804ZM63.7271 32.6326V28.0859H59.1804V32.6326H63.7271ZM68.2737 32.6326V37.1793H63.7271V32.6326H68.2737ZM72.8204 32.6326H68.2737V28.0859H72.8204V32.6326ZM77.3671 32.6326V37.1793H72.8204V32.6326H77.3671ZM81.9137 32.6326V28.0859H77.3671V32.6326H81.9137ZM86.4604 32.6326V37.1793H81.9137V32.6326H86.4604ZM91.0071 32.6326H86.4604V28.0859H91.0071V32.6326ZM95.5537 32.6326V37.1793H91.0071V32.6326H95.5537ZM95.5537 32.6326H100.1V28.0859H95.5537V32.6326Z" fill="#ECECEF"/>
<path fill-rule="evenodd" clip-rule="evenodd" d="M31.9004 37.1797H36.4471V41.7264H31.9004V37.1797ZM40.9937 41.7264V46.273H36.4471V41.7264H40.9937ZM45.5404 41.7264V37.1797H40.9937V41.7264H45.5404ZM50.0871 41.7264V46.273H45.5404V41.7264H50.0871ZM54.6337 41.7264H50.0871V37.1797H54.6337V41.7264ZM59.1804 41.7264V46.273H54.6337V41.7264H59.1804ZM63.7271 41.7264V37.1797H59.1804V41.7264H63.7271ZM68.2737 41.7264V46.273H63.7271V41.7264H68.2737ZM72.8204 41.7264H68.2737V37.1797H72.8204V41.7264ZM77.3671 41.7264V46.273H72.8204V41.7264H77.3671ZM81.9137 41.7264V37.1797H77.3671V41.7264H81.9137ZM86.4604 41.7264V46.273H81.9137V41.7264H86.4604ZM91.0071 41.7264H86.4604V37.1797H91.0071V41.7264ZM95.5537 41.7264V46.273H91.0071V41.7264H95.5537ZM95.5537 41.7264H100.1V37.1797H95.5537V41.7264Z" fill="#ECECEF"/>
<path fill-rule="evenodd" clip-rule="evenodd" d="M31.9004 46.2734H36.4471V50.8201H31.9004V46.2734ZM40.9937 50.8201V55.3668H36.4471V50.8201H40.9937ZM45.5404 50.8201V46.2734H40.9937V50.8201H45.5404ZM50.0871 50.8201V55.3668H45.5404V50.8201H50.0871ZM54.6337 50.8201H50.0871V46.2734H54.6337V50.8201ZM59.1804 50.8201V55.3668H54.6337V50.8201H59.1804ZM63.7271 50.8201V46.2734H59.1804V50.8201H63.7271ZM68.2737 50.8201V55.3668H63.7271V50.8201H68.2737ZM72.8204 50.8201H68.2737V46.2734H72.8204V50.8201ZM77.3671 50.8201V55.3668H72.8204V50.8201H77.3671ZM81.9137 50.8201V46.2734H77.3671V50.8201H81.9137ZM86.4604 50.8201V55.3668H81.9137V50.8201H86.4604ZM91.0071 50.8201H86.4604V46.2734H91.0071V50.8201ZM95.5537 50.8201V55.3668H91.0071V50.8201H95.5537ZM95.5537 50.8201H100.1V46.2734H95.5537V50.8201Z" fill="#ECECEF"/>
<path fill-rule="evenodd" clip-rule="evenodd" d="M31.9004 55.3672H36.4471V59.9139H31.9004V55.3672ZM40.9937 59.9139V64.4605H36.4471V59.9139H40.9937ZM45.5404 59.9139V55.3672H40.9937V59.9139H45.5404ZM50.0871 59.9139V64.4605H45.5404V59.9139H50.0871ZM54.6337 59.9139H50.0871V55.3672H54.6337V59.9139ZM59.1804 59.9139V64.4605H54.6337V59.9139H59.1804ZM63.7271 59.9139V55.3672H59.1804V59.9139H63.7271ZM68.2737 59.9139V64.4605H63.7271V59.9139H68.2737ZM72.8204 59.9139H68.2737V55.3672H72.8204V59.9139ZM77.3671 59.9139V64.4605H72.8204V59.9139H77.3671ZM81.9137 59.9139V55.3672H77.3671V59.9139H81.9137ZM86.4604 59.9139V64.4605H81.9137V59.9139H86.4604ZM91.0071 59.9139H86.4604V55.3672H91.0071V59.9139ZM95.5537 59.9139V64.4605H91.0071V59.9139H95.5537ZM95.5537 59.9139H100.1V55.3672H95.5537V59.9139Z" fill="#ECECEF"/>
<path fill-rule="evenodd" clip-rule="evenodd" d="M31.9004 64.457H36.4471V69.0037H31.9004V64.457ZM40.9937 69.0037V73.5504H36.4471V69.0037H40.9937ZM45.5404 69.0037V64.457H40.9937V69.0037H45.5404ZM50.0871 69.0037V73.5504H45.5404V69.0037H50.0871ZM54.6337 69.0037H50.0871V64.457H54.6337V69.0037ZM59.1804 69.0037V73.5504H54.6337V69.0037H59.1804ZM63.7271 69.0037V64.457H59.1804V69.0037H63.7271ZM68.2737 69.0037V73.5504H63.7271V69.0037H68.2737ZM72.8204 69.0037H68.2737V64.457H72.8204V69.0037ZM77.3671 69.0037V73.5504H72.8204V69.0037H77.3671ZM81.9137 69.0037V64.457H77.3671V69.0037H81.9137ZM86.4604 69.0037V73.5504H81.9137V69.0037H86.4604ZM91.0071 69.0037H86.4604V64.457H91.0071V69.0037ZM95.5537 69.0037V73.5504H91.0071V69.0037H95.5537ZM95.5537 69.0037H100.1V64.457H95.5537V69.0037Z" fill="#ECECEF"/>
<path fill-rule="evenodd" clip-rule="evenodd" d="M36.4471 73.5508H31.9004V78.0974H36.4471V73.5508ZM45.5404 73.5508H40.9937V78.0974H45.5404V73.5508ZM50.0871 73.5508H54.6337V78.0974H50.0871V73.5508ZM63.7271 73.5508H59.1804V78.0974H63.7271V73.5508ZM68.2737 73.5508H72.8204V78.0974H68.2737V73.5508ZM81.9137 73.5508H77.3671V78.0974H81.9137V73.5508ZM86.4604 73.5508H91.0071V78.0974H86.4604V73.5508ZM100.1 73.5508H95.5537V78.0974H100.1V73.5508Z" fill="#ECECEF"/>
<path d="M93 25.5059C90.588 20.5967 83.6401 16.58 75.5582 18.9186C71.6962 20.025 68.3267 22.3976 66.0003 25.6488C63.6737 22.3976 60.3043 20.025 56.4423 18.9186C48.3424 16.6157 41.4124 20.5967 39.0004 25.5059C35.6165 32.3789 37.0204 40.1088 43.1764 48.4812C48.0004 55.0329 54.8943 61.6738 64.9022 69.3857C65.2185 69.6304 65.6081 69.7633 66.0092 69.7633C66.4104 69.7633 66.7999 69.6304 67.1162 69.3857C77.1062 61.6916 84.0181 55.1043 88.8421 48.4812C94.98 40.1088 96.384 32.3789 93 25.5059Z" fill="#ED4C64"/>
</svg>
