<svg width="132" height="88" viewBox="0 0 132 88" fill="none" xmlns="http://www.w3.org/2000/svg">
<path d="M90.0398 42.6859C89.7266 41.6409 88.7859 40.805 87.7409 40.596L72.6942 37.4614L77.1872 9.3531C77.3962 7.99468 76.6648 6.63625 75.4108 6.00944C74.157 5.38243 72.5896 5.80044 71.7536 6.84546L42.4961 41.6411C41.869 42.4771 41.5556 43.5219 41.869 44.4623C42.1824 45.5071 42.9139 46.2387 43.8545 46.5521L58.4833 51.4632L52.6318 78.5265C52.3184 79.885 53.0498 81.3478 54.3037 81.975C54.7216 82.1839 55.2441 82.2881 55.7665 82.2881C56.6025 82.2881 57.5429 81.8703 58.0653 81.2431L89.5173 45.6117C90.2487 44.8803 90.4576 43.7309 90.0398 42.6859Z" fill="#4DCFE0"/>
</svg>
