<svg width="132" height="88" viewBox="0 0 132 88" fill="none" xmlns="http://www.w3.org/2000/svg">
<path fill-rule="evenodd" clip-rule="evenodd" d="M46.987 12.9273C44.7913 13.648 43.3383 15.4068 42.356 18.5331C40.7979 23.4908 41.0718 32.0224 42.9197 36.1015C44.256 39.0518 45.9168 40.2677 48.8419 40.4378C50.4949 40.534 50.8224 40.4785 51.9975 39.9004C55.3688 38.2418 56.8594 34.1797 56.8573 26.6579C56.8551 19.2621 55.4372 15.1385 52.3071 13.4256C50.8494 12.6278 48.5547 12.413 46.987 12.9273ZM94.9233 13.0311C93.4041 13.5773 92.5936 14.1543 91.8938 15.1881C90.3924 17.4064 90.5884 21.4501 92.3397 24.3772C92.6234 24.8516 93.8824 26.6224 95.1372 28.3124C97.8149 31.9184 98.1795 32.5804 98.1795 33.8381C98.1795 34.572 98.0438 34.8854 97.5601 35.2679C96.6376 35.9975 95.1638 35.8985 92.0489 34.8977C91.7621 34.8055 91.5073 35.2527 90.93 36.8636C90.2429 38.7798 90.214 38.9722 90.5741 39.2381C91.2419 39.7316 93.5136 40.2934 95.3587 40.4215C100.387 40.7706 103.409 38.3772 103.4 34.0508C103.394 31.1783 102.366 29.0355 98.6649 24.1761C97.7241 22.9411 96.754 21.5359 96.5091 21.0537C95.9557 19.9638 95.9245 18.4412 96.4461 18.0058C96.8774 17.6461 98.25 17.5867 99.8303 17.8597L100.894 18.0434L101.627 15.8053L102.36 13.5669L101.269 13.1786C99.529 12.5595 96.4348 12.4877 94.9233 13.0311ZM28.5996 26.5397V40.2488H31.1853H33.7711V35.2851V30.3215H36.3651H38.959L38.892 27.8988L38.825 25.4761L36.2981 25.4089L33.7711 25.3418V21.568V17.7943H36.9445H40.1179V15.3124V12.8306H34.3588H28.5996V26.5397ZM59.1583 26.5283V40.2488H61.509H63.8597L63.8667 33.3351L63.874 26.4215L64.6873 27.8397C65.1347 28.6197 66.8504 31.7302 68.5001 34.7521L71.4993 40.2464L72.6159 40.2476L73.7325 40.2488V26.5397V12.8306H71.4993H69.2662V18.9761C69.2662 22.3561 69.1868 25.1168 69.0899 25.1111C68.9931 25.1054 67.3678 22.3667 65.4783 19.0248L62.0428 12.9488L60.6007 12.8784L59.1583 12.8082V26.5283ZM75.8382 12.9488C75.8328 13.0138 75.8239 14.1042 75.8182 15.3715L75.8079 17.6761L77.9435 17.7442L80.0793 17.812V29.0305V40.2488H82.7826H85.4858V29.0215V17.7943H87.6014H89.717V15.3124V12.8306H82.7826C78.9686 12.8306 75.8436 12.8838 75.8382 12.9488ZM48.2884 18.1219C45.992 19.875 45.8549 33.1148 48.1121 35.1686C48.8015 35.7959 49.7601 35.6903 50.3713 34.9195C51.0551 34.0572 51.3682 32.7461 51.6815 29.4321C51.9742 26.3407 51.6618 21.6692 51.0452 19.9121C50.3957 18.0611 49.3001 17.3497 48.2884 18.1219ZM80.2681 47.434C78.6781 47.8644 77.3817 48.8174 76.625 50.1117C76.015 51.155 75.9656 51.4266 75.9656 53.7337C75.9656 56.1347 75.9981 56.2933 76.8351 57.9883C77.3133 58.9564 78.6698 61.0251 79.8496 62.5851C83.114 66.902 83.7985 68.6544 82.665 69.7941C81.9375 70.5257 79.0659 70.3567 76.9983 69.4606C76.6922 69.3278 76.4778 69.7081 75.8655 71.4714C75.2628 73.2072 75.173 73.6868 75.4205 73.8482C76.9816 74.8663 82.0118 75.3191 84.1718 74.6358C85.8758 74.0971 87.1684 72.9576 87.8297 71.4123C88.2808 70.3579 88.3452 69.8665 88.2617 68.1141C88.1769 66.3281 88.0497 65.8242 87.305 64.3197C86.8325 63.3658 85.33 61.096 83.9661 59.276C81.3261 55.753 80.6688 54.3681 81.0765 53.1882C81.213 52.7933 81.5318 52.4787 81.8867 52.3891C82.4187 52.2548 84.6584 52.3713 85.4604 52.5749C85.8967 52.6855 87.3426 48.403 86.9891 48.0476C86.6515 47.7081 83.6965 47.1092 82.43 47.1234C81.8482 47.1298 80.8752 47.2697 80.2681 47.434ZM28.8347 61.1669V75.0102L31.3616 74.9431L33.8886 74.8759V61.1669V47.4578L31.3616 47.3907L28.8347 47.3236V61.1669ZM37.2971 61.1551V74.9941H39.5267H41.7563L41.8186 67.9623L41.8809 60.9305L45.7282 67.9741L49.5756 75.0178L50.6646 74.9469L51.7537 74.8759V61.1669V47.4578L49.4656 47.3902L47.1777 47.3226L47.1149 53.6002L47.0524 59.8778L43.4996 53.6678L39.9468 47.4578L38.6219 47.3869L37.2971 47.316V61.1551ZM59.2249 58.2714C59.329 70.1109 59.3692 70.5184 60.6425 72.6638C61.2142 73.6272 61.7034 74.1002 62.6857 74.6396C63.8771 75.2936 64.1594 75.3487 66.3279 75.3484C68.3697 75.3482 68.8304 75.2704 69.8341 74.7575C71.2147 74.0518 72.3524 72.5809 72.9396 70.7427C73.3077 69.5899 73.3653 68.1644 73.4394 58.3896L73.523 47.3396H71.0551H68.5871L68.5152 58.1953C68.4451 68.8106 68.4324 69.0659 67.948 69.718C67.5392 70.2685 67.2764 70.3851 66.4454 70.3851C65.6144 70.3851 65.3516 70.2685 64.9429 69.718C64.4581 69.0657 64.4457 68.8121 64.3775 58.1953L64.3077 47.3396H61.7182H59.1287L59.2249 58.2714ZM90.4222 61.1669V74.9941H96.3072H102.192L102.125 72.5714L102.058 70.1487L98.8259 70.083L95.5937 70.0173V66.7148V63.4123H97.9444H100.295V60.9305V58.4487H97.9444H95.5937V55.376V52.3033H98.7671H101.941V49.8215V47.3396H96.1814H90.4222V61.1669Z" fill="black"/>
</svg>
