<svg width="132" height="88" viewBox="0 0 132 88" fill="none" xmlns="http://www.w3.org/2000/svg">
<circle cx="66" cy="44" r="34.375" fill="black"/>
<path d="M65.4476 60.9616C74.8139 60.9616 82.4069 53.3686 82.4069 44.0023C82.4069 34.6359 74.8139 27.043 65.4476 27.043C56.0812 27.043 48.4883 34.6359 48.4883 44.0023C48.4883 53.3686 56.0812 60.9616 65.4476 60.9616Z" fill="url(#paint0_linear_2056_24750)"/>
<path d="M93.969 35.0328C93.1693 32.9954 87.5649 33.1238 79.7011 34.9861C79.7231 35.016 79.7417 35.0484 79.7566 35.0824C80.3113 36.5185 73.8428 40.3656 65.3079 43.6787C56.7699 46.9888 49.3966 48.5095 48.8392 47.0705L48.8333 47.0419C41.5769 51.1051 37.2188 54.9172 38.0303 56.9926C39.3116 60.2502 52.8702 57.9763 68.3173 51.9137C83.7643 45.8475 95.2475 38.2932 93.969 35.0328Z" fill="url(#paint1_linear_2056_24750)"/>
<defs>
<linearGradient id="paint0_linear_2056_24750" x1="73.5893" y1="27.7534" x2="64.0242" y2="46.8496" gradientUnits="userSpaceOnUse">
<stop stop-color="#23DBF9"/>
<stop offset="1" stop-color="#FF64BD"/>
</linearGradient>
<linearGradient id="paint1_linear_2056_24750" x1="63.4742" y1="38.658" x2="67.2351" y2="49.5784" gradientUnits="userSpaceOnUse">
<stop stop-color="#23DBF9"/>
<stop offset="1" stop-color="white"/>
</linearGradient>
</defs>
</svg>
