<svg width="132" height="88" viewBox="0 0 132 88" fill="none" xmlns="http://www.w3.org/2000/svg">
<path fill-rule="evenodd" clip-rule="evenodd" d="M38.0879 10.5859H69.8004V20.1011H46.9455V61.1148H38.0879V10.5859ZM58.9197 34.2645H78.9861C86.7468 34.2645 93.0381 40.5567 93.0381 48.3185V53.2402C93.0381 57.2246 91.3795 60.8178 88.7236 63.3719L93.9129 77.4109H85.55L80.6755 67.1933C80.121 67.2599 79.5572 67.2942 78.9861 67.2942H67.7774V77.4109H58.9197V34.2645ZM67.7774 58.4353H78.9861C79.8678 58.4353 80.686 58.2191 81.4033 57.8407C83.0642 56.9644 84.1804 55.2291 84.1804 53.2402V48.3185C84.1804 45.4494 81.8549 43.1235 78.9861 43.1235H67.7774V58.4353Z" fill="#FF0000"/>
<path d="M47.1642 34.2645H67.8321V44.3812H47.1642V34.2645Z" fill="#87CB28"/>
</svg>
