<svg width="132" height="88" viewBox="0 0 132 88" fill="none" xmlns="http://www.w3.org/2000/svg">
<path fill-rule="evenodd" clip-rule="evenodd" d="M79.0075 28.8193C77.9655 30.7999 76.2013 31.7723 75.1386 31.8741C74.0761 31.9757 72.1215 31.2403 71.985 29.9677C71.8598 28.7974 76.5227 25.0003 79.3634 24.8807C79.7565 24.8642 80.0707 25.2102 80.0277 25.5983C79.9501 26.2916 79.7147 27.475 79.0075 28.8193ZM70.7464 30.1192C70.2607 31.49 66.3314 31.7591 65.2279 31.5099C64.1243 31.2609 62.0358 29.691 61.1164 27.5637C60.441 26.0002 60.515 24.6998 60.6312 24.0284C60.6827 23.7305 60.9966 23.5094 61.3462 23.5257C65.4729 23.7181 71.2318 28.7481 70.7464 30.1192ZM100.628 28.947C99.5698 28.3038 99.0916 29.6922 98.2722 29.6922C98.0473 27.6473 100.163 26.2094 100.508 25.9985C100.854 25.7872 101.121 24.4678 99.5906 24.4813C98.473 24.4813 97.4482 26.0776 97.4482 26.0776C97.2487 24.9957 98.3665 23.9929 98.6726 23.7291C99.5505 23.0694 98.0072 22.0535 96.9297 22.779C95.6389 23.8216 95.2264 25.22 95.2264 25.22C94.9338 24.5337 95.5591 23.1485 95.7457 22.7395C95.9317 22.3305 95.2001 21.6313 94.0689 22.7C92.7385 23.9402 92.3127 26.2621 92.3127 26.2621C89.424 25.4349 83.1088 25.4527 80.8649 26.3745C80.8649 26.3745 82.4974 15.8208 71.2548 10.7075C67.8562 9.16193 63.5323 9.4339 60.7409 11.8174C61.0422 10.7185 61.1618 7.93798 60.1982 6.58008C60.1982 6.58008 56.6369 4.81124 54.2186 5.01659C58.7382 9.54005 58.5633 12.166 58.477 14.074C57.1502 9.21633 52.5252 5.31539 47.3702 5.49079C48.2159 8.14549 47.4569 11.7316 47.4569 11.7316C51.4272 11.1251 55.2272 13.1161 56.7114 18.8922C56.3472 19.6312 56.2008 21.3852 56.5495 22.0132L54.8155 20.7639C49.8863 17.1093 39.3157 13.2749 36.4687 13.0176C33.6215 12.7602 31.3866 16.2083 31.0386 18.6509C30.6912 21.0936 32.7671 22.2873 34.0835 22.8849C35.3999 23.4825 38.4989 24.6411 39.2531 22.4225C45.5501 24.0547 51.5239 31.8835 50.8488 42.6398C47.2752 47.7623 40.8097 63.2556 48.1173 73.1131C46.5931 77.5934 46.3845 82.3026 48.4655 82.9812C50.323 83.5215 55.8712 72.2694 56.2614 70.3343C55.3693 63.2843 59.4677 58.5936 66.0192 56.5756C68.0268 58.5383 68.4122 64.283 68.6076 66.4393C68.8026 68.5959 70.0338 68.2053 70.5079 67.8183C75.6098 63.8925 80.935 60.8791 81.5483 60.6579C84.1969 59.1373 84.3641 57.4233 81.7991 57.3126C79.2341 57.2022 76.9294 57.6445 76.9294 57.6445C80.9162 51.1478 87.4587 42.5854 77.6449 43.7935C79.389 37.4461 85.911 31.351 96.3256 32.21C100.554 32.3049 101.687 29.5903 100.628 28.947Z" fill="#06D6A0"/>
</svg>
