<svg width="132" height="88" viewBox="0 0 132 88" fill="none" xmlns="http://www.w3.org/2000/svg">
<path fill-rule="evenodd" clip-rule="evenodd" d="M61.3962 11.0708C53.8478 12.1612 47.5344 15.3155 42.1713 20.6761C37.3707 25.4742 34.5014 30.7839 33.0051 37.6397C32.4071 40.3797 32.4071 47.5555 33.0051 50.2955C34.5012 57.1501 37.3662 62.449 42.1751 67.2553C44.9219 70.0007 47.653 72.0037 50.8239 73.5978C52.0746 74.2265 52.6204 74.4028 52.6875 74.1997C52.7397 74.0415 53.6543 68.2677 54.7199 61.3692C55.7857 54.4707 56.7147 48.5469 56.7848 48.205L56.9123 47.5835H53.9562C51.6931 47.5835 51.0005 47.5153 51.0005 47.292C51.0005 46.9835 51.9806 41.2862 52.379 39.2782L52.6145 38.0917H55.4822H58.3498L59.0956 33.6534C59.9051 28.8365 60.5876 26.3635 61.7373 24.08C63.8734 19.8381 66.7548 17.3957 71.232 16.0321C73.1243 15.4558 73.5428 15.4135 77.4419 15.4072C79.8732 15.4031 82.0459 15.5087 82.6337 15.6594C83.1896 15.802 83.6782 15.8852 83.7194 15.8441C83.8918 15.6714 78.7495 13.2273 76.8769 12.592C72.1672 10.994 66.0728 10.3953 61.3962 11.0708ZM83.7897 20.8596C82.9797 25.8195 82.9047 26.1646 82.6683 26.0186C82.5776 25.9625 81.616 25.7987 80.5313 25.6543C79.0392 25.4556 78.1947 25.4552 77.0631 25.6523C73.0373 26.3533 71.7296 28.3192 70.7052 35.2103L70.2767 38.0917H74.8764H79.4759L79.4632 38.6002C79.4564 38.88 79.1258 40.9901 78.7287 43.2896L78.0069 47.4705L73.4337 47.5318C68.9101 47.5921 68.8591 47.5984 68.7499 48.0968C68.6172 48.7022 64.1082 76.8788 64.1082 77.1023C64.1082 77.4079 70.1771 76.9783 72.4908 76.5089C84.7088 74.0306 94.4297 65.3603 97.9822 53.7728C99.1092 50.0964 99.4432 47.8552 99.4432 43.9676C99.4432 33.2812 94.6876 23.9024 85.9079 17.2737C85.2686 16.791 84.6945 16.3962 84.6319 16.3962C84.5696 16.3962 84.1903 18.4048 83.7897 20.8596Z" fill="#D53C27"/>
</svg>
