<svg width="132" height="88" viewBox="0 0 132 88" fill="none" xmlns="http://www.w3.org/2000/svg">
<path d="M80.9063 41.3281C80.7941 41.0581 80.6896 40.8068 80.4538 40.6139C79.761 40.1122 78.1443 40.1903 76.7579 40.2573C76.3164 40.2787 75.8982 40.2989 75.5407 40.2989H62.3133L62.8172 35.5119C63.0117 34.3598 63.1138 33.2149 63.2146 32.0839C63.3261 30.8341 63.4361 29.6011 63.6675 28.3942L64.4864 22.5049C64.7405 22.2507 66.3785 22.1785 67.8177 22.1152C68.6967 22.0765 69.5016 22.0411 69.8718 21.9694H74.7219L76.6115 22.0325L79.6664 22.1269L87.6974 22.7568C90.8153 23.2607 93.2088 23.3866 94.1221 20.8986C94.3111 20.4578 94.563 19.7334 94.4371 19.009C94.0358 16.7521 92.4964 16.6118 90.4548 16.4256C89.9324 16.3779 89.3772 16.3273 88.7997 16.2375L78.7216 15.4502L72.4228 15.0723H70.6277C69.3679 14.8833 67.5728 14.9148 66.376 15.1038C65.2599 15.2873 64.1661 15.3222 63.0946 15.3565C61.9588 15.3929 60.848 15.4285 59.7623 15.6392C53.0541 16.8989 47.0388 18.4107 43.5429 22.7883C41.8284 24.8299 40.7065 27.3026 40.2991 29.9374C40.1416 30.7877 39.9211 32.5514 40.2991 33.3703C41.0234 34.7244 45.905 35.0394 47.4482 34.0946C48.2261 33.6315 48.4485 32.4932 48.6726 31.3457C48.8296 30.542 48.9875 29.7338 49.3378 29.15C50.818 26.662 55.3217 23.6701 58.723 23.1662V23.1977L57.3373 31.6066L55.6366 40.7713L48.7709 42.1256C48.5317 42.1825 48.2987 42.2271 48.0758 42.2698C47.066 42.463 46.2631 42.6167 46.0309 43.7003C45.4127 46.5442 51.2269 46.4753 54.0328 46.4421L54.1879 46.4402L53.0541 51.4163L53.0363 51.4855C51.9009 55.9011 50.0466 63.1128 47.0702 65.4625C46.2514 66.1239 44.8657 66.4073 43.354 66.0924L38.3779 64.5807C38.2404 64.5405 38.0904 64.491 37.9303 64.4382C37.2105 64.2008 36.2877 63.8964 35.386 64.0768C32.772 64.5807 31.2918 69.0213 33.6224 70.848C36.9922 73.525 44.4248 73.6824 48.7394 71.7928C54.9122 69.1473 57.4317 63.2265 59.4473 56.3922L60.3922 51.6052L61.4315 46.3772L77.2099 45.8733C78.2097 45.8733 80.9063 44.8039 80.9063 41.3281Z" fill="#EE1D40"/>
<path fill-rule="evenodd" clip-rule="evenodd" d="M70.7578 67.3409V72.9939L78.6126 73.0534H87.0921C89.3533 73.0534 91.6145 73.1427 93.3402 72.6072C95.2444 72.0121 96.851 71.0005 97.8924 69.5724C100.778 65.6152 99.6478 59.8432 96.256 57.3737C95.4599 56.7074 94.4891 56.284 93.4592 56.1538V56.0943C99.7073 54.6662 100.63 45.7701 95.7502 42.17C93.0724 40.2063 89.6806 40.2658 85.0392 40.2658H70.7876L70.7578 42.6163M79.2671 47.4363H85.426C86.6161 47.4363 88.0442 47.3172 88.8475 47.7338C89.2128 47.9166 89.5313 48.1806 89.7789 48.5055C90.0264 48.8303 90.1963 49.2075 90.2757 49.6082C90.5732 51.2446 89.5021 52.286 88.4905 52.6728C87.7764 52.9703 86.5863 52.8215 85.6045 52.8215H79.2671V47.4363ZM89.2046 65.645C88.3417 66.002 86.9433 65.883 85.7532 65.883H79.2671V60.0515H85.8127C86.8541 60.0515 88.193 59.9027 88.9963 60.2002C89.4864 60.3732 89.9214 60.674 90.2562 61.0716C90.591 61.4692 90.8134 61.949 90.9005 62.4614C91.2278 64.1276 90.1864 65.2284 89.2046 65.645Z" fill="#020202"/>
</svg>
