<svg width="132" height="88" viewBox="0 0 132 88" fill="none" xmlns="http://www.w3.org/2000/svg">
<rect x="32.4502" y="10.4492" width="67.1" height="67.1" fill="black"/>
<path d="M65.4597 40.0018H59.8779V19.0234H72.2755V23.5721H65.4597V27.5755H71.7446V32.1241H65.4597V40.0018Z" fill="white"/>
<path d="M56.0186 68.866H48.8584V42.3633H56.0186V46.0079H53.407V65.2213H56.0186V68.866Z" fill="#0077DD"/>
<path d="M66.2351 42.9516C68.8945 42.9516 70.8842 43.5303 72.2043 44.6878C73.534 45.8453 74.1988 47.4907 74.1988 49.6239C74.1988 50.5805 74.0601 51.4988 73.7827 52.3789C73.5149 53.259 73.07 54.0434 72.4482 54.7322C71.836 55.4209 71.0181 55.9662 69.9946 56.368C68.9806 56.7697 67.7274 56.9706 66.2351 56.9706H64.6424V63.9299H58.9745V42.9516H66.2351ZM66.106 47.5289H64.6424V52.3502H65.7616C66.2495 52.3502 66.7038 52.2689 67.1247 52.1063C67.5456 51.9341 67.8805 51.6615 68.1292 51.2884C68.3875 50.9058 68.5166 50.3988 68.5166 49.7674C68.5166 49.1073 68.3205 48.5716 67.9283 48.1603C67.5361 47.7394 66.9286 47.5289 66.106 47.5289Z" fill="#0077DD"/>
<path d="M75.9494 65.2213H78.5609V46.0079H75.9494V42.3633H83.1239V68.866H75.9494V65.2213Z" fill="#0077DD"/>
</svg>
