<svg width="132" height="88" viewBox="0 0 132 88" fill="none" xmlns="http://www.w3.org/2000/svg">
<path d="M66.0002 10.0117C47.2138 10.0117 31.9844 25.2287 31.9844 43.9997V44.0599C31.9844 44.0811 31.9854 44.1021 31.9854 44.1232C31.9868 44.4978 31.9941 44.8724 32.0075 45.2467C32.0087 45.2819 32.0098 45.3171 32.0112 45.3523C32.655 62.5523 46.0881 76.484 63.0863 77.9249L63.0802 77.8638C64.0515 77.9463 65.0257 77.9878 66.0003 77.9878C66.9646 77.9878 67.9285 77.9472 68.8892 77.8662L68.8831 77.9276C85.8974 76.501 99.3473 62.5609 99.9897 45.3486C99.9911 45.3166 99.9921 45.2848 99.9932 45.2528C100.007 44.8764 100.014 44.4999 100.015 44.1233C100.015 44.1021 100.016 44.0811 100.016 44.0599V43.9997C100.016 25.2287 84.787 10.0117 66.0007 10.0117H66.0002ZM58.3522 24.1682C58.1706 32.6263 57.7623 43.5065 58.6262 52.7383C58.9629 56.3379 63.2469 56.3876 63.3933 52.7383C63.7694 43.3492 64.0955 33.5495 64.5845 24.2061H67.4226C67.9116 33.5496 68.0201 43.3209 68.5761 52.5613C68.8095 56.4401 72.9729 56.4953 73.343 52.5613C74.2219 43.225 73.8201 32.5738 73.693 24.1682H76.6006C78.095 35.5379 78.9659 47.4623 77.8414 55.7554C76.7168 64.0483 71.3873 62.7049 69.786 71.3156C69.5459 72.6067 69.3433 73.9331 69.1734 75.2805C67.0526 75.4925 64.916 75.4915 62.7954 75.2774C62.6255 73.9313 62.4233 72.6057 62.1832 71.3156C60.5819 62.6926 55.2522 64.0485 54.1277 55.7554C53.0031 47.4746 53.8714 35.3015 55.4447 24.1682H58.3522Z" fill="#1825D7"/>
</svg>
