<svg width="361" height="360" viewBox="0 0 361 360" fill="none" xmlns="http://www.w3.org/2000/svg">
<path fill-rule="evenodd" clip-rule="evenodd" d="M256.656 105.985L285.355 93.2075L275.08 86.8096C256.384 75.168 238.279 71.4951 221.158 76.0635C208.39 69.8647 193.952 66.375 178.654 66.375C164.089 66.375 150.287 69.5815 137.977 75.3062C121.809 71.9834 104.796 75.8926 87.2627 86.8096L76.9873 93.2075L102.2 104.433C91.2451 119.281 84.8252 137.465 84.9043 157.125C84.7012 161.24 85.0059 165.425 85.6543 169.875C77.5664 180.905 71.3818 193.533 67.5625 207.211L68.7549 208.582L67.3516 208.549L67.4453 208.868L67.125 208.869C80.5693 254.701 121.315 289.091 170.88 293.211C171.656 293.275 172.435 293.333 173.215 293.382C173.683 293.412 174.15 293.438 174.619 293.463C176.701 293.571 178.797 293.625 180.905 293.625C234.439 293.625 279.815 257.6 294.032 208.549L293.288 208.55L293.714 207.974C289.47 192.307 282.145 177.887 272.404 165.375C272.714 163.398 272.871 161.265 273.016 159.14L273.045 158.708L273.154 157.125C273.079 138.145 267.004 120.54 256.656 105.985ZM118.347 87.5562C113.735 88.2705 109.017 89.6699 104.169 91.7607L169.113 120.676C165.971 111.375 161.348 104.001 155.23 98.4556C151.842 95.3833 147.995 92.8726 143.688 90.9058L143.47 90.8071C142.077 90.2031 140.678 89.6704 139.27 89.2095C132.51 86.9966 125.561 86.4385 118.347 87.5562ZM156.063 82.3613C167.499 89.2153 175.871 99.543 181.172 113.156C186.281 100.035 194.243 89.9653 205.053 83.1172C196.993 80.5288 188.37 79.125 179.404 79.125C171.281 79.125 163.447 80.2568 156.063 82.3613ZM238.636 87.0371C232.488 86.7749 226.526 87.769 220.699 90.0054C220.044 90.2568 219.391 90.5244 218.738 90.8071L218.521 90.9058C214.619 92.6875 211.095 94.9155 207.947 97.6025C201.347 103.237 196.4 110.89 193.095 120.676L258.038 91.7607C251.345 88.8735 244.895 87.3042 238.636 87.0371ZM238.95 113.869L215.647 124.244C218.637 125.752 220.687 128.851 220.687 132.428C220.687 137.487 216.585 141.589 211.525 141.589C206.466 141.589 202.364 137.487 202.364 132.428C202.364 131.593 202.477 130.784 202.686 130.015L190.696 135.353C190.669 135.857 190.654 136.364 190.654 136.875C190.654 151.941 204.168 164.625 220.654 164.625C237.891 164.625 251.404 151.941 251.404 136.875C251.404 127.396 246.551 119.042 238.95 113.869ZM169.547 134.418L159.521 129.955C159.741 130.741 159.859 131.571 159.859 132.428C159.859 137.487 155.758 141.589 150.698 141.589C145.639 141.589 141.537 137.487 141.537 132.428C141.537 128.828 143.613 125.714 146.633 124.216L122.075 113.282C114.144 118.396 108.906 127.028 108.906 136.875C108.906 151.941 122.42 164.625 138.906 164.625C156.143 164.625 169.656 151.941 169.656 136.875C169.656 136.047 169.619 135.228 169.547 134.418ZM280.703 208.568C278.739 201.934 276.147 195.554 272.967 189.507C246.47 202.752 228.469 217.822 218.715 234.375C219.998 234.32 221.229 234.084 222.465 233.625L239.715 231.375L228.465 244.874C219.282 255.608 212.349 266.456 207.691 277.396C242.067 268.289 269.621 242.12 280.672 208.568H280.703ZM192.457 280.239C195.593 271.121 200.082 262.104 205.965 253.125L196.215 257.625L200.715 243.375C208.476 218.031 230.413 196.317 266.124 178.288L265.908 177.982C265.648 177.615 265.387 177.249 265.122 176.885L264.674 176.271C264.016 175.379 263.343 174.497 262.655 173.625L259.655 169.125V163.875C259.969 162.042 260.112 160.167 260.264 158.181V158.171L260.281 157.933C260.32 157.421 260.36 156.902 260.404 156.375C260.399 155.418 260.376 154.466 260.335 153.518C253.565 167.56 238.552 177.375 221.398 177.375C215.724 177.375 210.31 176.366 205.349 174.531L180.607 199.272L155.707 174.372C150.733 176.307 145.309 177.375 139.65 177.375C120.65 177.375 104.577 166.058 98.624 150.342C98.5273 151.589 98.4619 152.844 98.4287 154.105C98.4092 154.859 98.4014 155.616 98.4043 156.375C98.2217 160.178 98.4775 163.739 99.1543 167.625L99.9043 172.125L96.9043 176.625C96.7383 176.855 96.5723 177.085 96.4082 177.316C96.085 177.769 95.7656 178.224 95.4502 178.682C130.702 196.633 152.378 218.215 160.083 243.375L164.583 257.625L154.833 253.125C160.695 262.073 165.175 271.058 168.309 280.144C172.425 280.627 176.615 280.876 180.865 280.876C184.782 280.876 188.649 280.66 192.457 280.239ZM153.022 277.198C148.366 266.325 141.46 255.543 132.333 244.874L121.083 231.375L138.333 233.625C139.569 234.084 140.8 234.32 142.083 234.375C132.433 217.999 114.711 203.074 88.6738 189.931C85.3838 196.244 82.7432 202.867 80.7852 209.732C92.0215 242.486 119.094 268.022 153.022 277.198ZM191.182 169.762L180.045 158.625L168.908 169.762L180.045 180.899L191.182 169.762Z" fill="#00B283"/>
</svg>
