<svg width="132" height="88" viewBox="0 0 132 88" fill="none" xmlns="http://www.w3.org/2000/svg">
<path fill-rule="evenodd" clip-rule="evenodd" d="M86.9219 23.6468L94.8142 20.1328L91.9884 18.3734C86.847 15.172 81.8682 14.1619 77.1599 15.4182C73.6486 13.7136 69.6782 12.7539 65.4713 12.7539C61.4658 12.7539 57.6704 13.6357 54.285 15.21C49.8388 14.2962 45.1603 15.3712 40.3386 18.3734L37.5129 20.1328L44.4465 23.2199C41.4338 27.303 39.6683 32.3036 39.6901 37.7102C39.6342 38.8418 39.718 39.9927 39.8963 41.2164C37.6722 44.2496 35.9714 47.7224 34.9211 51.4838L35.249 51.8607L34.8631 51.8518L34.8889 51.9395L34.8008 51.9397C38.498 64.5436 49.7031 74.0009 63.3334 75.1338C63.5469 75.1515 63.7609 75.1672 63.9755 75.1808C64.1041 75.189 64.2328 75.1964 64.3617 75.2031C64.9342 75.2328 65.5105 75.2478 66.0904 75.2478C80.8123 75.2478 93.2906 65.3407 97.2003 51.8518L96.9956 51.8521L97.1127 51.6935C95.9456 47.3851 93.9312 43.4198 91.2526 39.9789C91.3377 39.4354 91.381 38.8486 91.4207 38.2642L91.4288 38.1456L91.4588 37.7102C91.4382 32.4907 89.7675 27.6493 86.9219 23.6468ZM48.8867 18.5787C47.6186 18.7752 46.321 19.16 44.9879 19.735L62.8476 27.6866C61.9834 25.1288 60.712 23.1011 59.0298 21.5761C58.0979 20.7312 57.0401 20.0407 55.8555 19.4999L55.7956 19.4727C55.4126 19.3066 55.0278 19.1601 54.6405 19.0334C52.7816 18.4248 50.8706 18.2714 48.8867 18.5787ZM59.2589 17.1501C62.4036 19.035 64.706 21.8751 66.1637 25.6186C67.5688 22.0103 69.7583 19.2412 72.7309 17.358C70.5145 16.6462 68.1432 16.2602 65.6776 16.2602C63.4438 16.2602 61.2894 16.5714 59.2589 17.1501ZM81.9662 18.436C80.2757 18.3639 78.6362 18.6373 77.0337 19.2523C76.8535 19.3214 76.6738 19.395 76.4944 19.4727L76.4345 19.4999C75.3617 19.9898 74.3925 20.6026 73.5269 21.3415C71.7117 22.8909 70.3515 24.9954 69.4425 27.6866L87.3019 19.735C85.4612 18.941 83.6874 18.5094 81.9662 18.436ZM82.0527 25.8147L75.6445 28.6679C76.4665 29.0827 77.0302 29.9347 77.0302 30.9184C77.0302 32.3098 75.9023 33.4377 74.5109 33.4377C73.1195 33.4377 71.9916 32.3098 71.9916 30.9184C71.9916 30.6888 72.0225 30.4663 72.0799 30.2549L68.7829 31.7229C68.7754 31.8614 68.7713 32.001 68.7713 32.1414C68.7713 36.2847 72.4876 39.7727 77.0213 39.7727C81.7613 39.7727 85.4776 36.2847 85.4776 32.1414C85.4776 29.5345 84.1429 27.2372 82.0527 25.8147ZM62.9668 31.4657L60.2098 30.2383C60.2702 30.4546 60.3027 30.6828 60.3027 30.9184C60.3027 32.3098 59.1748 33.4377 57.7834 33.4377C56.392 33.4377 55.2641 32.3098 55.2641 30.9184C55.2641 29.9285 55.8351 29.0721 56.6654 28.6601L49.9121 25.6534C47.7309 27.0597 46.2906 29.4336 46.2906 32.1414C46.2906 36.2847 50.0069 39.7727 54.5406 39.7727C59.2806 39.7727 62.9969 36.2847 62.9969 32.1414C62.9969 31.9137 62.9867 31.6884 62.9668 31.4657ZM93.5348 51.8571C92.9947 50.0327 92.282 48.2782 91.4073 46.6152C84.1206 50.2577 79.1703 54.4019 76.488 58.9539C76.8409 58.9389 77.1792 58.8739 77.5192 58.7477L82.263 58.1289L79.1692 61.8411C76.644 64.7931 74.7373 67.7762 73.4565 70.7847C82.9099 68.2803 90.4872 61.0838 93.5262 51.8571H93.5348ZM69.2671 71.5664C70.1294 69.0591 71.364 66.5794 72.9817 64.11L70.3005 65.3478L71.538 61.4289C73.6722 54.4594 79.705 48.4881 89.5255 43.53L89.4662 43.4458C89.3947 43.3448 89.3228 43.2443 89.25 43.1441L89.1267 42.9754C88.9457 42.73 88.7607 42.4873 88.5716 42.2477L87.7466 41.0102V39.5664C87.8328 39.0625 87.8723 38.5468 87.9139 38.0006V37.9978L87.9188 37.9324C87.9295 37.7917 87.9405 37.6489 87.9526 37.5039C87.9512 37.2409 87.9448 36.9789 87.9335 36.7181C86.0719 40.5797 81.9431 43.2789 77.226 43.2789C75.6654 43.2789 74.1765 43.0014 72.8123 42.4967L66.0084 49.3006L59.1608 42.453C57.7931 42.9852 56.3013 43.2789 54.7453 43.2789C49.5203 43.2789 45.1001 40.1666 43.463 35.8449C43.4364 36.1877 43.4184 36.5328 43.4093 36.8798C43.4039 37.0871 43.4018 37.2952 43.4026 37.5039C43.3524 38.5497 43.4227 39.5289 43.6088 40.5977L43.8151 41.8352L42.9901 43.0727C42.9444 43.1359 42.8988 43.1993 42.8537 43.2628C42.7648 43.3873 42.677 43.5124 42.5902 43.6382C52.2845 48.5749 58.2453 54.51 60.3642 61.4289L61.6017 65.3478L58.9205 64.11C60.5326 66.5708 61.7645 69.0418 62.6263 71.5403C63.7582 71.6732 64.9106 71.7417 66.0793 71.7417C67.1565 71.7417 68.22 71.6822 69.2671 71.5664ZM58.4226 70.7302C57.1421 67.7401 55.2429 64.7751 52.733 61.8411L49.6392 58.1289L54.383 58.7477C54.723 58.8739 55.0614 58.9389 55.4142 58.9539C52.7604 54.4504 47.8869 50.3461 40.7267 46.7317C39.8219 48.4679 39.0958 50.2891 38.5573 52.1771C41.6473 61.1844 49.0922 68.207 58.4226 70.7302ZM68.9164 41.1853L65.8538 38.1227L62.7912 41.1853L65.8538 44.248L68.9164 41.1853Z" fill="#00B283"/>
</svg>
