<svg width="132" height="88" viewBox="0 0 132 88" fill="none" xmlns="http://www.w3.org/2000/svg">
<path fill-rule="evenodd" clip-rule="evenodd" d="M69.6287 16.6462C69.0053 12.4289 68.3961 8.55896 68.2742 8.04585C68.0607 7.14437 68.1532 7.11328 71.0516 7.11328H74.0495L73.8261 8.25308C73.703 8.87977 73.0862 12.8935 72.4554 17.1717C71.8246 21.4503 71.1855 24.8076 71.035 24.6322C70.885 24.4573 70.2521 20.8634 69.6287 16.6462ZM74.4204 24.3048C74.3367 24.2215 76.8372 21.5316 79.9769 18.3273C83.1165 15.123 85.8118 12.5014 85.9668 12.5014C86.1214 12.5014 86.7436 13.4116 87.3491 14.5237L88.4495 16.5459L81.5108 20.5012C77.6944 22.6768 74.5037 24.3881 74.4204 24.3048ZM55.1449 18.278C54.9489 18.1051 55.3049 17.0142 55.9361 15.8541C56.5674 14.694 57.1037 13.7449 57.1273 13.7449C57.1514 13.7449 59.7796 16.3743 62.9677 19.5885L68.7649 25.4322L62.1334 22.0124C58.486 20.1315 55.3414 18.4512 55.1449 18.278ZM41.7098 30.1132C42.9126 29.9632 53.3154 28.6667 64.8274 27.2322C76.3394 25.7977 86.3357 24.6007 87.0411 24.5726C87.7959 24.5423 88.5875 24.8196 88.9643 25.2465C89.4318 25.7762 90.1393 30.3673 91.5858 42.2581C93.2964 56.3192 93.4866 58.624 92.9785 59.1251C92.6266 59.4716 90.3047 59.9649 87.209 60.3507C84.3595 60.7055 81.4217 61.0972 80.681 61.2216L79.334 61.447V64.6828V67.919L83.1679 68.1598C87.6023 68.438 89.649 69.0588 91.3131 70.6297C92.7878 72.0215 93.1758 73.9239 92.4766 76.3395L91.9394 78.1955L82.7356 78.307L73.5314 78.4185V70.2712V62.1239L70.7337 62.4053C69.1947 62.5599 67.2368 62.7961 66.3817 62.93L64.8274 63.1733V72.0314V80.8896H55.5424H46.2574L45.8023 79.5844C44.6687 76.3324 45.5412 73.7619 48.3115 72.191C49.8459 71.321 50.7755 71.1457 54.5692 71.0098L59.0248 70.8506V67.3263V63.8021L57.2633 64.0425C56.2943 64.1747 52.8359 64.6008 49.5773 64.9891C44.2281 65.6266 43.5906 65.6328 43.0108 65.0534C42.5346 64.5767 41.8548 60.2571 40.3743 48.2999C38.7116 34.8665 38.2252 31.5946 39.4914 30.6347C39.9701 30.2718 40.6991 30.2393 41.7098 30.1132ZM75.056 56.6838C68.5243 56.2324 63.7786 51.2592 63.7193 44.8037C63.6724 39.6367 66.9853 34.7923 71.9076 33.0911C76.1651 31.6193 80.4031 32.503 83.82 35.5751C86.6446 38.1146 87.5843 40.1053 87.8197 44.0494C87.9975 47.0274 87.9133 47.4684 86.696 49.9407C84.411 54.5828 80.1735 57.0378 75.056 56.6838ZM45.4058 35.3198C45.5148 35.2108 47.6145 34.892 50.0719 34.6123C52.5289 34.3321 55.308 34.078 56.2467 34.0473C57.9109 33.993 57.9606 34.0312 58.2109 35.5461C58.7527 38.8221 58.5765 39.709 57.3372 39.9528C54.8628 40.4402 46.4341 41.1527 46.1779 40.8965C45.8298 40.5484 45.1422 35.583 45.4058 35.3198ZM70.9583 48.1508C68.9121 45.2772 69.9081 40.9141 72.9768 39.3076C74.6318 38.4413 76.9156 38.3476 78.2539 39.0916L79.1728 39.6018L77.5083 42.2342C76.5931 43.6819 75.9038 44.9257 75.9764 44.9983C76.0493 45.0712 77.2534 44.4031 78.6522 43.5136C81.493 41.7074 81.6895 41.7973 81.6845 44.9063C81.6758 50.4602 74.2107 52.7183 70.9583 48.1508Z" fill="#22BFFE"/>
</svg>
