<svg width="132" height="88" viewBox="0 0 132 88" fill="none" xmlns="http://www.w3.org/2000/svg">
<path d="M94.5753 9.09766H37.4239C33.9289 9.09766 31.0957 11.9309 31.0957 15.4258V72.5773C31.0957 76.0723 33.9289 78.9055 37.4239 78.9055H94.5753C98.0703 78.9055 100.904 76.0723 100.904 72.5773V15.4258C100.904 11.9309 98.0703 9.09766 94.5753 9.09766Z" fill="#DC395F"/>
<path d="M54.4262 31.0636C56.7467 31.0636 58.6907 29.2447 58.6907 26.8609C58.6907 24.4786 56.7467 22.6602 54.4262 22.6602C52.1055 22.6602 50.1622 24.4786 50.1622 26.8609C50.1622 29.2444 52.1055 31.0636 54.4262 31.0636ZM45.584 53.5658C45.3334 54.6319 45.2077 55.7832 45.2077 56.7223C45.2077 60.423 47.2144 62.8796 51.4789 62.8796C55.0157 62.8796 57.883 60.7794 59.9475 57.388L58.6868 62.4471H65.7099L69.7239 46.348C70.7273 42.2718 72.6714 40.156 75.619 40.156C77.9394 40.156 79.3816 41.5991 79.3816 43.9813C79.3816 44.6715 79.3189 45.4232 79.068 46.2389L76.9983 53.6388C76.6847 54.705 76.5599 55.7718 76.5599 56.7744C76.5599 60.2875 78.6287 62.857 82.956 62.857C86.6561 62.857 89.6032 60.475 91.2339 54.768L88.4749 53.7029C87.0951 57.5262 85.9034 58.2174 84.9627 58.2174C84.0219 58.2174 83.5202 57.5909 83.5202 56.3374C83.5202 55.7728 83.6462 55.1465 83.8337 54.3922L85.8411 47.183C86.3424 45.49 86.5309 43.9889 86.5309 42.6097C86.5309 37.2164 83.2695 34.4017 79.3189 34.4017C75.619 34.4017 71.856 37.7392 69.975 41.2517L71.3542 34.9471H60.6311L59.1259 40.5001H64.1431L61.0535 52.8693C58.6274 58.2625 54.1709 58.35 53.6116 58.2249C52.6933 58.0176 52.1059 57.6689 52.1059 56.4755C52.1059 55.787 52.2313 54.798 52.5449 53.6055L57.2487 34.9471H45.3334L43.8281 40.5001H48.7821L45.584 53.5658Z" fill="white"/>
</svg>
