<svg width="132" height="88" viewBox="0 0 132 88" fill="none" xmlns="http://www.w3.org/2000/svg">
<path fill-rule="evenodd" clip-rule="evenodd" d="M54.4883 9.59982C36.3056 16.1503 26.1508 36.2644 31.8226 54.4982C39.8803 80.4039 72.3895 88.6699 91.1145 69.5747C104.846 55.5719 105.344 33.576 92.2438 19.675C84.3004 11.2459 76.6843 7.92628 65.4025 7.97714C61.0346 7.99651 57.4662 8.52772 54.4883 9.59982ZM60.1192 12.071C53.8335 13.1383 47.8592 16.428 43.1679 21.4059C30.9595 34.3616 30.9852 54.1931 43.2267 66.6756L46.8465 70.3666L47.2487 58.735C47.6251 47.846 47.7933 46.8595 49.8807 43.2952C52.4226 38.9559 55.7022 36.1949 61.2316 33.7407C64.5369 32.2731 67.1883 31.9719 80.292 31.5747C88.6634 31.3204 95.5129 30.9797 95.5129 30.8167C95.5129 29.885 90.874 23.2352 88.3811 20.5937C81.9467 13.7752 70.4678 10.3143 60.1192 12.071ZM65.199 42.7446C62.6836 43.4752 57.7059 47.7386 57.7059 49.1627C57.7059 49.5607 63.4068 49.987 70.3753 50.1097L83.0447 50.3317V54.3682V58.4048L69.945 58.6268L56.846 58.8488L57.0745 67.1003L57.3037 75.3518L62.0393 76.0138C79.5825 78.4664 96.7566 64.6735 97.7846 47.3043L98.108 41.855L82.9345 41.9276C74.5888 41.968 66.6083 42.3353 65.199 42.7446Z" fill="black"/>
</svg>
