<svg width="132" height="88" viewBox="0 0 132 88" fill="none" xmlns="http://www.w3.org/2000/svg">
<path d="M55.643 17.1839C53.4479 18.1689 52.3503 19.8013 51.1964 23.6006C50.127 27.2311 49.3389 27.6532 43.5133 27.6532C33.7758 27.6532 33.2129 28.7509 33.2129 47.6068C33.2129 67.2227 33.4662 67.6167 45.9336 67.6167C52.5192 67.6167 52.9132 67.6729 56.4874 69.446C62.0035 72.1759 70.362 72.1759 75.4278 69.4742C78.6924 67.7292 79.0583 67.6729 86.4881 67.5041C98.5898 67.2509 98.7867 66.9131 98.7867 47.8039C98.7867 29.2855 97.9143 27.6532 88.1204 27.6532C82.1541 27.6532 81.4505 27.2029 79.9308 22.5593C78.1577 16.9869 77.5104 16.7055 66.5346 16.5366C59.6394 16.4241 56.9658 16.5929 55.643 17.1839ZM75.2871 20.4767C75.7937 20.8707 76.6098 22.6156 77.1164 24.3886C78.5235 29.3418 80.1841 30.4675 86.2067 30.4675C95.3252 30.4675 95.4095 30.6364 95.4095 47.8039C95.4095 64.8023 95.6628 64.2395 87.7827 64.2395C84.8558 64.2395 82.4636 64.0988 82.4636 63.9581C82.4636 63.7892 83.0828 62.7197 83.8427 61.5659C94.6215 45.2146 75.3997 23.3474 57.585 31.7058C45.3708 37.419 40.9523 53.9672 49.1138 63.2545C49.93 64.1832 49.6767 64.2395 44.6109 64.2395C36.1961 64.2395 36.6182 65.0275 36.4212 48.6763C36.1961 30.5238 36.2242 30.4675 45.3708 30.4675C51.4779 30.4675 52.6037 29.7077 54.3203 24.5574C54.9957 22.5593 55.9527 20.6456 56.4874 20.3641C57.9227 19.5198 74.1614 19.6042 75.2871 20.4767ZM73.2045 34.661C88.9084 41.6967 86.3192 64.4646 69.377 68.4047C67.8292 68.7705 67.8292 68.7705 67.8292 65.0838C67.8292 61.4252 67.8292 61.4252 71.2063 61.4252C73.0638 61.4252 74.5835 61.3126 74.5835 61.2001C74.5835 61.0593 73.4578 59.033 72.0507 56.6971C69.5459 52.4474 69.5459 52.4192 70.9249 52.4192C72.7542 52.4192 72.7542 52.5038 69.8272 47.2972C68.1106 44.2015 67.5759 42.8506 68.1387 42.8506C69.2363 42.8506 69.1799 42.4847 67.5195 39.6703C65.7746 36.6872 65.9999 36.6872 64.2268 39.7267C62.51 42.6254 62.51 42.7098 63.5795 42.9631C64.1706 43.0758 63.7484 44.2296 61.8909 47.5506C58.9358 52.757 59.0484 52.3067 60.7371 52.5319C62.0878 52.7007 62.0878 52.7007 59.6394 56.9222C57.1628 61.1437 57.1628 61.1437 60.54 61.3126C63.8891 61.4815 63.8891 61.4815 63.8891 65.1119C63.8891 69.3334 63.6077 69.3896 57.8663 66.688C37.3499 57.0067 52.5192 25.3736 73.2045 34.661Z" fill="black"/>
<path d="M87.277 34.7189C85.0255 36.9985 87.6991 40.9104 90.6259 39.5877C91.3859 39.2218 92.1739 38.2931 92.3709 37.5051C93.0745 34.6627 89.3877 32.6363 87.277 34.7189Z" fill="black"/>
</svg>
