<svg width="132" height="88" viewBox="0 0 132 88" fill="none" xmlns="http://www.w3.org/2000/svg">
<path fill-rule="evenodd" clip-rule="evenodd" d="M37.4004 79.75H51.7004V65.45V51.15H66.0004H80.3004V36.85H66.0004H51.7004V22.55H94.6004V8.25H37.4004V79.75Z" fill="#FCFF4C"/>
<path d="M51.7004 22.55H66.0004V36.85H51.7004V22.55Z" fill="#FF3622"/>
<path d="M51.7004 51.15H66.0004V65.45H51.7004V51.15Z" fill="#DE372F"/>
<path d="M51.7004 65.45H66.0004V79.75H51.7004V65.45Z" fill="#FE6845"/>
<path d="M66.0004 22.55H80.3004V36.85H66.0004V22.55Z" fill="#FF9339"/>
<path d="M66.0004 51.15H80.3004V65.45H66.0004V51.15Z" fill="#FF3622"/>
<path d="M80.3004 22.55H94.6004V36.85H80.3004V22.55Z" fill="#FF3622"/>
<path d="M80.3004 36.85H94.6004V51.15H80.3004V36.85Z" fill="#BB2C1B"/>
<path d="M80.3004 51.15H94.6004V65.45H80.3004V51.15Z" fill="#FF3622"/>
</svg>
