<svg width="132" height="88" viewBox="0 0 132 88" fill="none" xmlns="http://www.w3.org/2000/svg">
<path fill-rule="evenodd" clip-rule="evenodd" d="M32.0371 77.8258L99.9077 77.7715L99.9621 10.1758H32.0371V77.8258ZM43.0067 25.6519C42.967 25.6914 42.9346 25.833 42.9346 25.9665C42.9346 26.2284 43.0226 26.2604 44.1169 26.3953C45.9679 26.6236 47.4366 27.6797 48.0032 29.1899C48.1258 29.5167 48.2748 30.2075 48.3342 30.7252C48.4001 31.2982 48.4428 36.3701 48.4434 43.6902C48.4443 56.5811 48.4392 56.715 47.8965 58.1614C47.3096 59.7256 45.8335 60.6859 43.6908 60.8974C43.025 60.9632 42.9869 60.9822 42.9545 61.263L42.9202 61.5593H51.3539H59.7875V61.2361C59.7875 60.9348 59.7601 60.9128 59.3824 60.9111C58.7246 60.908 57.5121 60.6121 56.9071 60.3068C56.1672 59.9335 55.3728 59.1459 55.0049 58.4209C54.373 57.1755 54.3559 56.9589 54.307 49.5752L54.2622 42.8156L54.7832 42.8166C55.7938 42.8183 57.7993 43.0387 58.6622 43.2428C60.0287 43.566 60.9132 44.0369 61.7969 44.9113C62.9392 46.0415 63.4946 47.3401 63.8262 49.656L63.9496 50.5178L64.2993 50.5515L64.649 50.5853L64.6506 47.1044C64.6515 45.1899 64.6824 41.5998 64.7193 39.1261L64.7863 34.6287H64.4476C64.1409 34.6287 64.1088 34.6603 64.1088 34.9619C64.1088 35.6655 63.6524 37.5067 63.2923 38.2554C62.1205 40.692 59.4997 41.9521 55.6013 41.9534L54.2779 41.9538V34.1807V26.4075L57.7944 26.4819C62.5439 26.5823 63.665 26.7359 65.3649 27.5191C67.7533 28.6195 69.3452 30.4974 70.3225 33.3676C70.5996 34.1814 70.6747 34.3056 70.8898 34.3056C71.0261 34.3056 71.1682 34.2264 71.2054 34.1296C71.2427 34.0328 71.2158 33.2935 71.1458 32.4868C70.6533 26.8105 70.5414 25.7335 70.4371 25.6625C70.2918 25.5638 43.1055 25.5533 43.0067 25.6519ZM77.3443 33.2872C76.4345 36.2613 74.6584 38.5008 72.387 39.5378C71.9551 39.7349 71.7791 39.8753 71.7791 40.0227C71.7791 40.217 71.869 40.2303 73.1835 40.2303H74.5879L74.5916 48.6057C74.5936 53.2121 74.64 57.476 74.6947 58.0807C74.8153 59.4152 75.0863 60.1015 75.7238 60.6874C76.3376 61.2515 76.8241 61.4855 77.9847 61.7742C78.8429 61.9877 79.1443 62.0087 80.6855 61.9631C82.1107 61.9209 82.5757 61.865 83.2914 61.6497C84.689 61.2294 85.7221 60.5122 86.4213 59.4771C86.7661 58.9665 86.7786 58.9183 86.6131 58.736C86.4448 58.5506 86.3994 58.5805 85.6945 59.3435C84.663 60.4596 84.0516 60.7515 82.7443 60.7511C81.6036 60.7509 81.0649 60.6096 80.35 60.1231C79.3871 59.4677 78.8718 58.407 78.7193 56.7656C78.6752 56.2917 78.6516 52.378 78.6669 48.0686L78.6946 40.2334L82.0159 40.2049L85.3371 40.1764V39.6917V39.2069L82.007 39.1531L78.6769 39.0992L78.6839 35.7329L78.6907 32.3666H78.1583H77.6259L77.3443 33.2872Z" fill="#343434"/>
</svg>
