<svg width="360" height="360" viewBox="0 0 360 360" fill="none" xmlns="http://www.w3.org/2000/svg">
<path d="M180 304C248.483 304 304 248.483 304 180C304 111.517 248.483 56 180 56C111.517 56 56 111.517 56 180C56 248.483 111.517 304 180 304Z" fill="#565D64"/>
<path d="M183.663 165.004C190.253 165.004 195.504 167.826 199.421 173.468C199.616 173.468 203.756 171.004 211.849 166.085L211.457 165.499C203.11 156.906 193.974 152.605 184.055 152.605C176.162 152.605 169.176 155.299 163.114 160.676C156.328 167.239 152.936 174.911 152.936 183.705C152.936 190.53 155.058 196.892 159.298 202.8C165.952 210.866 174.14 214.902 183.859 214.902H184.155C191.2 214.902 197.626 212.579 203.428 207.921C206.821 204.834 208.811 202.672 209.399 201.417L199.516 194.039C195.34 199.686 190.157 202.512 183.959 202.512C180.894 202.512 177.856 201.715 174.855 200.144C168.461 195.944 165.264 190.502 165.264 183.811C165.264 180.591 166.147 177.316 167.91 173.968C172.15 167.991 177.401 165.004 183.663 165.004Z" fill="#CCCCCC"/>
<path d="M182.387 112.053C144.19 112.053 113.23 143.19 113.23 181.604C113.23 220.01 144.19 251.151 182.387 251.151C220.578 251.151 251.538 220.01 251.538 181.604C251.538 143.19 220.583 112.053 182.387 112.053ZM182.387 240.382C150.106 240.382 123.937 214.064 123.937 181.604C123.937 149.139 150.106 122.821 182.387 122.821C214.662 122.821 240.831 149.139 240.831 181.604C240.836 214.064 214.667 240.382 182.387 240.382Z" fill="#CCCCCC"/>
<path d="M235.244 104.549C237.307 106.029 237.79 108.914 236.315 110.994L134.605 254.369C133.134 256.444 130.264 256.93 128.197 255.45C126.134 253.962 125.651 251.076 127.127 249.01L228.841 105.63C230.312 103.551 233.182 103.07 235.244 104.549Z" fill="#CCCCCC"/>
</svg>
