<svg width="132" height="88" viewBox="0 0 132 88" fill="none" xmlns="http://www.w3.org/2000/svg">
<path fill-rule="evenodd" clip-rule="evenodd" d="M69.4254 68.6214V72.8717C69.4254 74.2675 68.2494 75.4121 66.83 75.4121H64.4035C62.9743 75.4121 61.8102 74.2675 61.8102 72.8717V67.0547C61.8102 66.8152 61.8435 66.5836 61.9083 66.3617C61.4902 63.5936 59.2109 61.4145 56.3466 61.0965H55.6791C53.1858 61.0965 51.8332 59.9303 51.8332 57.335V53.5735H55.6811C58.1881 53.5735 59.3287 54.7651 59.5034 56.7637H59.5368C59.5305 56.8565 59.5252 56.9494 59.5211 57.0425C59.525 57.1367 59.527 57.2348 59.527 57.335V57.6216C59.7056 60.6096 62.0438 63.0302 65.0435 63.4091C65.2713 63.3836 65.5127 63.3718 65.766 63.3718H66.673C69.553 62.8947 71.7655 60.5252 71.9402 57.6196V57.335C71.9402 57.2113 71.9442 57.0935 71.9501 56.9757C71.9485 56.905 71.9451 56.8344 71.9402 56.7637H71.9638C72.1405 54.7651 73.2791 53.5735 75.7881 53.5735H79.634V57.335C79.634 59.9303 78.2814 61.0965 75.7861 61.0965H75.1206C72.3505 61.4047 70.1262 63.4523 69.6138 66.0928V67.1333C69.6138 67.6967 69.5491 68.1914 69.4254 68.6214ZM65.0494 22.4254C65.2752 22.4019 65.5147 22.3901 65.766 22.3901H66.6651C69.5491 21.915 71.7655 19.5454 71.9402 16.638V16.3533C71.9402 16.2316 71.9442 16.1118 71.9501 15.994C71.9497 15.9232 71.9465 15.8525 71.9402 15.782H71.9658C72.1385 13.7815 73.2811 12.5898 75.7881 12.5898H79.634V16.3513C79.634 18.9467 78.2814 20.1128 75.7861 20.1128H75.1108C72.3447 20.4269 70.1243 22.4726 69.6138 25.1091V26.1496C69.6138 28.745 68.2592 29.9091 65.766 29.9091C62.6406 29.9091 61.9201 28.4878 61.9201 26.1496C61.9201 25.969 61.9279 25.7963 61.9397 25.6255C61.6256 22.7415 59.3012 20.4446 56.3564 20.1128H55.6791C53.1858 20.1128 51.8332 18.9467 51.8332 16.3513V12.5898H55.6811C58.1881 12.5898 59.3287 13.7815 59.5014 15.78H59.5368L59.5211 16.0588C59.525 16.155 59.527 16.2512 59.527 16.3513V16.638C59.7076 19.6279 62.0477 22.0485 65.0494 22.4235V22.4254ZM65.0494 42.6169C65.2752 42.5933 65.5147 42.5816 65.766 42.5816H66.6651C69.5491 42.1065 71.7655 39.7369 71.9402 36.8294V36.5447C71.9402 36.423 71.9442 36.3033 71.9501 36.1855C71.9497 36.1146 71.9465 36.0439 71.9402 35.9735H71.9658C72.1385 33.9749 73.2811 32.7833 75.7881 32.7833H79.634V36.5447C79.634 39.1401 78.2814 40.3062 75.7861 40.3062H75.1206C72.3505 40.6144 70.1262 42.6621 69.6138 45.3045V46.343C69.6138 48.9384 68.2592 50.1026 65.766 50.1026C62.6406 50.1026 61.9201 48.6832 61.9201 46.343C61.9201 46.1624 61.9279 45.9897 61.9397 45.8189C61.6256 42.933 59.2953 40.6341 56.3466 40.3062H55.6791C53.1858 40.3062 51.8332 39.1401 51.8332 36.5447V32.7833H55.6811C58.1861 32.7833 59.3287 33.9749 59.5014 35.9735H59.5368L59.5211 36.2522C59.525 36.3484 59.527 36.4466 59.527 36.5467V36.8314C59.7076 39.8213 62.0477 42.2419 65.0494 42.6169ZM44.1061 52.8667C44.3299 52.8432 44.5674 52.8314 44.8167 52.8314H45.7178C48.5488 52.3661 50.7495 50.0692 50.991 47.2304V46.7946C50.991 46.6572 50.9949 46.5256 51.0028 46.3961L50.991 46.2213H51.0145C51.1912 44.2248 52.3417 43.0331 54.8487 43.0331H58.6965V46.7946C58.6965 49.3899 57.3321 50.5541 54.8487 50.5541H54.1753C51.4091 50.8623 49.177 52.9099 48.6626 55.5524V56.5909C48.6626 59.1863 47.312 60.3504 44.8167 60.3504C41.6913 60.3504 40.9708 58.931 40.9708 56.5909C40.9708 56.4103 40.9767 56.2375 40.9905 56.0667C40.6764 53.1809 38.3441 50.882 35.4032 50.5541H34.7298C32.2366 50.5541 30.882 49.3899 30.882 46.7946V43.0331H34.7298C37.2368 43.0331 38.3775 44.2248 38.5522 46.2213H38.5875C38.5816 46.3156 38.5738 46.4078 38.5699 46.5021C38.5738 46.5983 38.5757 46.6945 38.5757 46.7946V47.0792C38.7564 50.0692 41.1083 52.4918 44.1061 52.8667ZM86.7467 52.8667C86.9724 52.8432 87.208 52.8314 87.4593 52.8314H88.3604C91.2404 52.3602 93.4686 49.9867 93.6453 47.0792V46.7946C93.6453 46.6964 93.6453 46.5983 93.6512 46.5021L93.6316 46.2213H93.6689C93.8436 44.2248 94.9842 43.0331 97.4912 43.0331H101.337V46.7946C101.337 49.3899 99.9747 50.5541 97.4893 50.5541H96.8159C94.0517 50.8623 91.8195 52.9119 91.3052 55.5544V56.5909C91.3052 59.1863 89.9525 60.3504 87.4593 60.3504C84.3339 60.3504 83.6114 58.931 83.6114 56.5909C83.6114 56.4103 83.6193 56.2375 83.6311 56.0667C83.317 53.1809 80.9866 50.882 78.0458 50.5541H77.3724C74.8791 50.5541 73.5245 49.3899 73.5245 46.7946V43.0331H77.3724C79.8794 43.0331 81.02 44.2248 81.1947 46.2213H81.2301C81.2242 46.3156 81.2163 46.4078 81.2124 46.5021C81.2163 46.5983 81.2183 46.6945 81.2183 46.7946V47.0792C81.3989 50.0692 83.7489 52.4918 86.7467 52.8667ZM86.7467 32.5634C86.9724 32.5398 87.208 32.528 87.4593 32.528H88.3604C91.2404 32.0569 93.4686 29.6834 93.6453 26.7759V26.4893C93.6453 26.3911 93.6453 26.2929 93.6512 26.1967L93.6316 25.918H93.6689C93.8416 23.9194 94.9842 22.7278 97.4912 22.7278H101.337V26.4893C101.337 29.0846 99.9747 30.2488 97.4893 30.2488H96.8159C94.0517 30.557 91.8195 32.6066 91.3052 35.249V36.2856C91.3052 38.8809 89.9525 40.0471 87.4593 40.0471C84.3339 40.0471 83.6114 38.6277 83.6114 36.2856C83.6114 36.105 83.6193 35.9322 83.6311 35.7614C83.317 32.8755 80.9866 30.5786 78.0458 30.2488H77.3724C74.8791 30.2488 73.5245 29.0846 73.5245 26.4893V22.7297H77.3724C79.8794 22.7297 81.02 23.9214 81.1947 25.9199H81.2301L81.2124 26.1987C81.2163 26.2949 81.2183 26.3911 81.2183 26.4912V26.7739C81.3989 29.7658 83.7508 32.1884 86.7486 32.5653L86.7467 32.5634ZM43.8842 32.5634C44.108 32.5398 44.3456 32.528 44.5949 32.528H45.496C48.378 32.0569 50.6082 29.6814 50.7809 26.77V26.4912C50.7809 26.3931 50.7809 26.2949 50.7868 26.2007C50.7821 26.107 50.7762 26.0134 50.7691 25.9199H50.8045C50.9792 23.9214 52.1198 22.7297 54.6268 22.7297H58.4747V26.4912C58.4747 29.0866 57.1103 30.2507 54.6268 30.2507H53.9534C51.1873 30.559 48.9552 32.6066 48.4408 35.249V36.2876C48.4408 38.8829 47.0901 40.049 44.5949 40.049C41.4813 40.049 40.749 38.6297 40.749 36.2876C40.749 36.107 40.7549 35.9342 40.7686 35.7654C40.4545 32.8795 38.1242 30.5786 35.1833 30.2507H34.508C32.0167 30.2507 30.6621 29.0866 30.6621 26.4912V22.7297H34.51C37.015 22.7297 38.1576 23.9214 38.3303 25.9199H38.3657L38.348 26.1987C38.3519 26.2949 38.3539 26.3911 38.3539 26.4912V26.7739C38.5345 29.7658 40.8864 32.1904 43.8842 32.5653V32.5634ZM44.5949 30.2507C42.1115 30.2507 40.749 28.8314 40.749 26.4912C40.749 24.1491 41.868 22.7297 44.5969 22.7297C47.3336 22.7297 48.4408 24.9815 48.4408 26.4912C48.4408 29.0866 47.0901 30.2507 44.5949 30.2507ZM87.4593 30.2507C84.9758 30.2507 83.6114 28.8314 83.6114 26.4912C83.6114 24.1491 84.7206 22.7297 87.4593 22.7297C90.1979 22.7297 91.3072 24.9815 91.3072 26.4912C91.3072 29.0866 89.9525 30.2507 87.4593 30.2507ZM87.4593 50.5541C84.9758 50.5541 83.6114 49.1347 83.6114 46.7946C83.6114 44.4525 84.7206 43.0331 87.4593 43.0331C90.1979 43.0331 91.3072 45.2849 91.3072 46.7946C91.3072 49.3899 89.9525 50.5541 87.4593 50.5541ZM44.8187 50.5541C42.3235 50.5541 40.9708 49.1347 40.9708 46.7946C40.9708 44.4525 42.08 43.0331 44.8187 43.0331C47.5554 43.0331 48.6626 45.2849 48.6626 46.7946C48.6626 49.3899 47.3139 50.5541 44.8187 50.5541ZM65.766 40.3043C63.2727 40.3043 61.9201 38.8829 61.9201 36.5428C61.9201 34.2027 63.0293 32.7813 65.768 32.7813C68.5046 32.7813 69.6138 35.0331 69.6138 36.5428C69.6138 39.1381 68.2592 40.3043 65.766 40.3043ZM65.766 61.0965C63.2727 61.0965 61.9201 59.6751 61.9201 57.335C61.9201 54.9948 63.0293 53.5735 65.768 53.5735C68.5046 53.5735 69.6138 55.8272 69.6138 57.335C69.6138 59.9303 68.2592 61.0965 65.766 61.0965ZM65.766 20.1128C63.2727 20.1128 61.9201 18.6915 61.9201 16.3513C61.9201 14.0112 63.0293 12.5898 65.768 12.5898C68.5046 12.5898 69.6138 14.8416 69.6138 16.3513C69.6138 18.9467 68.2592 20.1128 65.766 20.1128Z" fill="#2D81F8"/>
</svg>
