<svg width="132" height="88" viewBox="0 0 132 88" fill="none" xmlns="http://www.w3.org/2000/svg">
<rect width="70.4" height="70.4" transform="translate(30.8008 8.80078)" fill="#C62A19"/>
<path fill-rule="evenodd" clip-rule="evenodd" d="M64.3413 24.0804C63.9039 24.9215 63.2107 26.5007 62.8011 27.5894C62.391 28.6781 61.905 29.8928 61.7212 30.2887C59.6498 34.7504 59.7961 36.7878 62.3633 39.225C64.4952 41.2491 68.3638 41.3085 70.371 39.3481C71.7124 38.0381 72.1639 37.0203 72.1639 35.3053C72.1639 34.1213 71.0556 30.2494 70.3433 28.9441C70.1556 28.6004 70.0021 28.139 70.0021 27.9187C70.0021 27.5059 69.298 25.7723 68.2971 23.7205C67.8111 22.7235 67.5354 22.5508 66.4318 22.5508C65.2731 22.5508 65.0529 22.712 64.3413 24.0804ZM65.6849 29.9586C65.4749 30.5359 65.1607 31.3324 64.9867 31.7283C64.0971 33.7513 63.8337 34.804 64.0481 35.4785C64.9618 38.3552 68.9168 37.6692 68.4603 34.7137C68.2323 33.2384 67.2544 30.6029 66.577 29.6362C66.0795 28.9268 66.0571 28.9351 65.6849 29.9586ZM39.1961 35.3241C38.998 35.3903 38.3934 35.5418 37.8522 35.6609C37.3114 35.7797 36.3789 36.3555 35.7804 36.9397C33.7668 38.9064 34.8655 40.686 35.8435 42.494C37.2379 45.0702 40.1877 49.5096 41.1659 50.5044C42.8356 52.2024 44.9714 52.7825 49.5527 52.7825C54.0277 52.7825 54.8693 52.4989 54.8693 50.991C54.8693 49.2116 53.8489 48.8254 49.1142 48.8118C44.4205 48.7981 44.2937 48.7426 42.3394 45.8364C41.7054 44.8935 38.4137 40.5093 38.8722 39.7674C38.9745 39.6015 42.4133 39.4716 46.5135 39.4781C53.0217 39.4885 54.0619 39.5687 54.7039 40.1079C55.7802 41.0123 63.5166 52.8117 63.5166 53.5488C63.5166 53.8939 62.6198 55.5146 61.5238 57.15C59.0708 60.8105 58.8582 61.549 59.7936 63.16C60.9026 65.07 62.9783 65.7055 66.9856 65.3618C70.6034 65.0516 71.3655 64.822 72.2421 63.7772C73.3125 62.501 72.8676 59.4256 71.4325 58.1811C71.3186 58.0821 70.8369 57.3533 70.3624 56.5615C69.8879 55.7697 69.3492 55.019 69.1655 54.893C68.3933 54.364 68.9586 52.7491 70.9792 49.7126C72.1607 47.9368 73.7132 45.5622 74.4295 44.4353C75.1458 43.3085 76.3261 41.7292 77.0525 40.9263L78.373 39.4662H85.876C90.0029 39.4662 93.4521 39.5878 93.5407 39.7361C94.0262 40.5483 90.0724 45.7134 89.3349 46.6642L87.7989 48.6437L83.0977 48.8236C78.0984 49.0151 77.2081 49.3124 77.2081 50.7912C77.2081 52.4284 78.1813 52.7825 82.6775 52.7825C88.57 52.7825 90.4334 51.9659 92.8118 48.3414C97.5646 41.098 97.4291 41.3672 97.3134 39.4043C97.1918 37.3368 95.9241 36.528 94.4353 35.3273L86.6322 35.3385C80.0336 35.3478 78.6231 35.445 77.4917 35.9676C75.3883 36.9393 73.759 38.5801 71.5644 41.9365C67.1582 48.6753 66.301 49.8853 66.0449 49.727C65.7955 49.5733 61.7504 43.6745 61.3534 42.886C60.5499 41.2902 58.2591 38.263 57.1861 37.3798C55.0333 35.6073 52.607 35.1434 45.6578 35.1758C42.3019 35.1913 39.3943 35.2582 39.1961 35.3241ZM64.7222 59.1697C64.1007 60.1105 63.6658 61.002 63.7559 61.1503C64.0509 61.6369 68.5619 61.4673 68.549 60.9703C68.5338 60.402 66.7017 57.7395 66.2156 57.579C66.016 57.5131 65.3437 58.2289 64.7222 59.1697Z" fill="white"/>
</svg>
