<svg width="360" height="360" viewBox="0 0 360 360" fill="none" xmlns="http://www.w3.org/2000/svg">
<path fill-rule="evenodd" clip-rule="evenodd" d="M154.154 72.7639C157.589 72.793 160.45 75.4019 160.797 78.8189L171.636 185.709L179.645 150.032C180.373 146.793 183.35 144.567 186.663 144.788C189.975 145.008 192.633 147.608 192.925 150.915L199.49 225.212L216.863 114.716C217.383 111.406 220.258 108.982 223.608 109.028C226.959 109.074 229.766 111.576 230.194 114.899L240.088 191.479L249.694 158.926C250.549 156.028 253.231 154.054 256.252 154.098C259.275 154.143 261.897 156.195 262.666 159.118L268.976 183.097L277.327 169.267C278.545 167.247 280.732 166.013 283.092 166.013H316.247C319.966 166.013 322.981 169.028 322.981 172.747C322.981 176.467 319.966 179.482 316.247 179.482H286.892L272.279 203.685C270.881 206.001 268.233 207.256 265.555 206.87C262.877 206.485 260.69 204.534 260.001 201.918L255.782 185.885L243.962 225.941C243.061 228.994 240.144 231 236.971 230.748C233.796 230.496 231.232 228.056 230.824 224.897L222.863 163.273L204.266 281.548C203.738 284.909 200.786 287.348 197.385 287.232C193.985 287.117 191.204 284.484 190.904 281.095L183.314 195.181L175.691 229.136C174.968 232.358 172.014 234.581 168.717 234.383C165.421 234.186 162.754 231.626 162.42 228.34L153.575 141.106L136.955 281.295C136.557 284.644 133.743 287.184 130.371 287.236C126.998 287.287 124.107 284.837 123.607 281.501L109.857 189.835L103.113 215.879C102.397 218.647 100.011 220.66 97.1635 220.902C94.3154 221.144 91.6249 219.562 90.4519 216.955L73.589 179.482H43.7522C40.0328 179.482 37.0176 176.467 37.0176 172.747C37.0176 169.028 40.0328 166.013 43.7522 166.013H77.9436C80.5937 166.013 82.9975 167.567 84.0851 169.984L94.8748 193.962L105.097 154.482C105.9 151.383 108.772 149.277 111.969 149.444C115.165 149.611 117.802 152.005 118.277 155.171L129.485 229.891L147.409 78.7054C147.813 75.2948 150.719 72.7348 154.154 72.7639Z" fill="#272727"/>
</svg>
