<svg width="132" height="88" viewBox="0 0 132 88" fill="none" xmlns="http://www.w3.org/2000/svg">
<path d="M39.9426 25.3757H46.4924V40.7876H39.9426V25.3757Z" fill="black"/>
<path d="M51.3335 4.39844H57.8832V40.7876H51.3335V4.39844Z" fill="black"/>
<path d="M62.7243 18.0979H69.2741V40.7876H62.7243V18.0979Z" fill="black"/>
<path d="M74.1152 11.1055H80.665V40.7876H74.1152V11.1055Z" fill="black"/>
<path d="M85.5061 25.3757H92.0558V40.7876H85.5061V25.3757Z" fill="black"/>
<path d="M39.9426 62.6211H46.4924V47.2092H39.9426V62.6211Z" fill="black"/>
<path d="M51.3335 83.5984H57.8832V47.2092H51.3335V83.5984Z" fill="black"/>
<path d="M62.7243 69.899H69.2741V47.2092H62.7243V69.899Z" fill="black"/>
<path d="M74.1152 76.8914H80.665V47.2092H74.1152V76.8914Z" fill="black"/>
<path d="M85.5061 62.6211H92.0558V47.2092H85.5061V62.6211Z" fill="black"/>
<path d="M37.9492 43.0709H94.0492V45.2114H37.9492V43.0709Z" fill="black"/>
</svg>
