<svg width="132" height="88" viewBox="0 0 132 88" fill="none" xmlns="http://www.w3.org/2000/svg">
<path d="M43.0952 28.8679C41.0962 30.942 39.3712 33.264 37.9622 35.7765L35.794 34.6433C35.6434 33.9623 35.2479 33.3616 34.6825 32.9531C34.1171 32.5446 33.4213 32.3574 32.7273 32.4282C31.194 32.5929 30.083 34.0481 30.2956 35.6142C30.3319 35.9844 30.4421 36.343 30.6198 36.6698C30.7975 36.9967 31.039 37.2846 31.33 37.5164C31.621 37.7482 31.9556 37.9193 32.314 38.0194C32.6723 38.1194 33.0471 38.1473 33.4162 38.0998C33.7131 38.0663 34.0003 37.9728 34.2607 37.8264L36.378 38.9595C35.2076 41.5978 34.3725 44.3717 33.8923 47.2176L37.3812 47.8639C38.4384 41.6594 41.3493 35.9922 45.6858 31.4047L43.0952 28.8679Z" fill="#2E83EC"/>
<path d="M68.5928 17.9677C67.7992 17.9677 67.0056 18.0218 66.2119 18.0218L65.8945 15.0508C66.7421 14.3501 67.2722 13.2186 67.1134 11.9759C67.0704 11.5357 66.9396 11.1089 66.729 10.7199C66.5183 10.331 66.2319 9.98761 65.8867 9.71107C65.5415 9.43453 65.1444 9.23086 64.7189 9.11013C64.2933 8.9894 63.8479 8.95521 63.4089 9.00925C61.5582 9.22485 60.2884 10.895 60.501 12.7845C60.6597 13.9733 61.3994 15.0012 62.4056 15.4324L62.7231 18.3991C59.3899 18.9381 56.2154 19.9647 53.1488 21.4739L54.6822 24.714C59.0164 22.6081 63.7739 21.5185 68.5928 21.528C70.9198 21.528 73.1957 21.7973 75.4688 22.2854L76.2085 18.7763C73.7062 18.2352 71.153 17.9641 68.5928 17.9677Z" fill="#2E83EC"/>
<path d="M99.271 30.0142C100.016 29.9137 100.691 29.5222 101.147 28.9249C101.604 28.3276 101.805 27.5734 101.706 26.8282C101.493 25.2651 100.119 24.1329 98.5852 24.3455C97.1567 24.5072 96.0996 25.804 96.0996 27.2084L94.1411 28.9337C92.1779 26.8799 89.9761 25.0676 87.5825 23.537L85.7317 26.5621C90.9658 29.9257 95.1025 34.7454 97.6329 40.429L100.858 38.9741C99.6977 36.3588 98.2234 33.8938 96.4679 31.6342L98.3187 29.9572C98.6264 30.0553 98.9538 30.075 99.271 30.0142Z" fill="#2E83EC"/>
<path d="M66.0561 66.3335C64.2592 66.4413 62.4594 66.4958 60.6596 66.4958C56.5867 66.4958 52.6216 66.2261 49.1297 65.6332C47.3329 65.3637 45.2156 64.8764 43.2061 64.2266C48.0726 73.0273 57.485 79.019 68.2243 79.019C81.5001 79.019 92.6616 69.9482 95.884 57.6441C92.7095 59.7492 88.9062 61.5314 84.462 62.9867C79.0654 64.8223 72.6655 65.9562 66.0561 66.3335Z" fill="#2E83EC"/>
<path d="M80.6107 51.7093C77.1188 51.7093 74.3157 48.7926 74.3157 45.2861C74.3157 41.7227 77.1727 38.863 80.6107 38.863C84.1026 38.863 86.9056 41.7766 86.9056 45.2861C86.9056 48.8495 84.1026 51.7093 80.6107 51.7093ZM58.6081 56.027C53.8464 56.027 50.0401 52.0865 50.0401 47.2834C50.0401 42.4264 53.9033 38.5399 58.6081 38.5399C63.3698 38.5399 67.1762 42.4803 67.1762 47.2834C67.1762 52.0865 63.3129 56.027 58.6081 56.027ZM68.6046 25.1541C53.0558 25.1541 40.361 37.7852 40.361 53.3264C40.3599 55.3405 40.5727 57.349 40.9959 59.3182C44.1165 61.585 53.5829 63.5278 65.8524 62.7732C79.236 61.9647 90.4485 58.2402 96.8483 52.5178C96.8483 51.6015 96.7434 50.6825 96.6386 49.7632C94.8927 35.7342 82.8328 25.1541 68.6046 25.1541Z" fill="#2E83EC"/>
</svg>
