<svg width="132" height="88" viewBox="0 0 132 88" fill="none" xmlns="http://www.w3.org/2000/svg">
<path d="M66.0004 78.0984C84.8333 78.0984 100.1 62.8313 100.1 43.9984C100.1 25.1655 84.8333 9.89844 66.0004 9.89844C47.1675 9.89844 31.9004 25.1655 31.9004 43.9984C31.9004 62.8313 47.1675 78.0984 66.0004 78.0984Z" fill="#565D64"/>
<path d="M67.0076 39.8745C68.8199 39.8745 70.2639 40.6504 71.3411 42.2022C71.3948 42.2022 72.5334 41.5245 74.7589 40.1718L74.6511 40.0106C72.3555 37.6476 69.8431 36.4648 67.1154 36.4648C64.9449 36.4648 63.0237 37.2055 61.3567 38.6842C59.4906 40.4892 58.5576 42.5989 58.5576 45.0173C58.5576 46.8941 59.1413 48.6437 60.3072 50.2684C62.1371 52.4866 64.3888 53.5963 67.0615 53.5963H67.143C69.0804 53.5963 70.8475 52.9576 72.4431 51.6766C73.3762 50.8278 73.9235 50.2332 74.0851 49.888L71.3673 47.859C70.2189 49.412 68.7937 50.189 67.089 50.189C66.2462 50.189 65.4108 49.9699 64.5854 49.5379C62.8271 48.3829 61.9479 46.8865 61.9479 45.0462C61.9479 44.1608 62.1908 43.2602 62.6756 42.3395C63.8415 40.6957 65.2855 39.8745 67.0076 39.8745Z" fill="#CCCCCC"/>
<path d="M66.6566 25.3125C56.1527 25.3125 47.6387 33.8751 47.6387 44.4391C47.6387 55.0006 56.1527 63.5644 66.6566 63.5644C77.1593 63.5644 85.6733 55.0006 85.6733 44.4391C85.6733 33.8751 77.1606 25.3125 66.6566 25.3125ZM66.6566 60.6031C57.7795 60.6031 50.5831 53.3657 50.5831 44.4391C50.5831 35.5113 57.7795 28.2738 66.6566 28.2738C75.5325 28.2738 82.7289 35.5113 82.7289 44.4391C82.7301 53.3657 75.5338 60.6031 66.6566 60.6031Z" fill="#CCCCCC"/>
<path d="M81.1921 23.2477C81.7595 23.6545 81.8922 24.448 81.4864 25.0198L53.5163 64.4481C53.1117 65.0187 52.3227 65.1522 51.7541 64.7454C51.1868 64.3361 51.054 63.5424 51.4598 62.9744L79.4313 23.5449C79.8359 22.9731 80.6249 22.8408 81.1921 23.2477Z" fill="#CCCCCC"/>
</svg>
