<svg width="132" height="88" viewBox="0 0 132 88" fill="none" xmlns="http://www.w3.org/2000/svg">
<path d="M66 77C84.2254 77 99 62.2254 99 44C99 25.7746 84.2254 11 66 11C47.7746 11 33 25.7746 33 44C33 62.2254 47.7746 77 66 77Z" fill="#1CDF85"/>
<path fill-rule="evenodd" clip-rule="evenodd" d="M45.158 29.6711H63.0957V34.0229H49.5231V40.2106H62.6865C68.186 40.2106 72.6443 44.6554 72.6443 50.1382C72.6443 55.6212 68.186 60.0658 62.6865 60.0658C57.1869 60.0658 52.7287 55.6212 52.7287 50.1382C52.7287 49.0485 52.9056 47.9961 53.2336 47.0103C53.2336 47.0103 56.9915 47.0315 57.9596 47.1563C57.7641 47.4634 57.5982 47.7903 57.4656 48.1331C57.2261 48.7525 57.0937 49.4274 57.0937 50.1382C57.0937 53.2176 59.5977 55.7141 62.6865 55.7141C65.7753 55.7141 68.2792 53.2176 68.2792 50.1382C68.2792 47.0588 65.7753 44.5624 62.6865 44.5624H49.5231V59.8617H45.158V29.6711ZM75.8499 34.0229H66.7105V29.6711H89.0133V34.0229H80.2149V59.8617H75.8499V34.0229Z" fill="white"/>
</svg>
