<svg width="132" height="88" viewBox="0 0 132 88" fill="none" xmlns="http://www.w3.org/2000/svg">
<rect x="28.875" y="6.875" width="74.25" height="74.25" rx="37.125" fill="#9684FF"/>
<path d="M55.2618 67.074C54.672 67.074 54.156 66.8717 53.7133 66.4662C53.3079 66.0235 53.1055 65.5075 53.1055 64.9178V26.0508C53.1055 25.4242 53.3079 24.9081 53.7133 24.5027C54.1189 24.0973 54.6349 23.8945 55.2618 23.8945H81.1917C81.8178 23.8945 82.3341 24.0973 82.7395 24.5027C83.1449 24.8713 83.3479 25.3688 83.3479 25.9955C83.3479 26.5483 83.1449 27.0275 82.7395 27.433C82.3341 27.8384 81.8178 28.0411 81.1917 28.0411H57.418V43.3004H74.7229C75.3497 43.3004 75.8658 43.5031 76.2706 43.9085C76.676 44.3141 76.8791 44.8116 76.8791 45.4013C76.8791 45.9911 76.676 46.4887 76.2706 46.8941C75.8658 47.2995 75.3497 47.5022 74.7229 47.5022H57.418V64.9178C57.418 65.5075 57.2149 66.0235 56.8095 66.4662C56.4039 66.8717 55.8884 67.074 55.2618 67.074Z" fill="white"/>
</svg>
