<svg width="132" height="88" viewBox="0 0 132 88" fill="none" xmlns="http://www.w3.org/2000/svg">
<path d="M102.475 56.3659L93.9938 51.4733C93.6188 51.2575 93.3074 50.9473 93.0909 50.5739C92.8743 50.2006 92.7602 49.7771 92.76 49.3459V39.5581C92.7582 38.5585 92.4937 37.5767 91.9926 36.7104C91.4915 35.8442 90.7713 35.1235 89.9036 34.6202L81.4229 29.7251C81.0497 29.5073 80.7401 29.1962 80.525 28.8226C80.3099 28.449 80.1967 28.0258 80.1966 27.5952V17.8049C80.1952 16.8039 79.9308 15.8206 79.4298 14.9527C78.9287 14.0848 78.2084 13.3623 77.3403 12.857L66.0008 6.32422L54.6613 12.8545C53.7931 13.3593 53.0734 14.0823 52.5743 14.9511C52.0752 15.8199 51.8142 16.8041 51.8175 17.8049V27.5952C51.8162 28.0259 51.7022 28.4488 51.4867 28.8223C51.2713 29.1957 50.9618 29.5069 50.5887 29.7251L42.0979 34.6202C41.2299 35.1226 40.5096 35.8432 40.0092 36.7098C39.5088 37.5764 39.2458 38.5586 39.2467 39.5581V49.3459C39.2467 49.7762 39.1335 50.199 38.9183 50.5723C38.7032 50.9455 38.3936 51.2561 38.0204 51.4733L29.5321 56.3659C28.663 56.8695 27.9418 57.5912 27.4406 58.459C26.9394 59.3268 26.6757 60.3103 26.6758 61.3113V74.3768L38.0153 80.907C38.8819 81.4074 39.866 81.671 40.8679 81.671C41.8697 81.671 42.8538 81.4074 43.7204 80.907L52.2036 76.0144C52.5773 75.7999 53.0011 75.687 53.4324 75.687C53.8638 75.687 54.2876 75.7999 54.6613 76.0144L63.1445 80.9095C64.0125 81.4099 64.9977 81.6733 66.0008 81.6733C67.0038 81.6733 67.9891 81.4099 68.8571 80.9095L77.3403 76.0119C77.714 75.7974 78.1378 75.6845 78.5691 75.6845C79.0005 75.6845 79.4243 75.7974 79.798 76.0119L88.2812 80.9095C89.1481 81.4104 90.1326 81.6742 91.135 81.6742C92.1373 81.6742 93.1219 81.4104 93.9888 80.9095L105.326 74.3768V61.3113C105.324 60.3113 105.06 59.329 104.56 58.4616C104.06 57.5942 103.341 56.8718 102.475 56.3659ZM76.9568 17.8049V27.5952C76.96 28.5945 77.2252 29.5757 77.7262 30.4417C78.2271 31.3077 78.9465 32.0286 79.8131 32.5331L88.2963 37.4282C88.671 37.6448 88.982 37.9555 89.1981 38.3293C89.4142 38.7031 89.5279 39.1268 89.5277 39.5581V49.3459C89.5289 50.3454 89.7927 51.3271 90.2929 52.1937C90.7931 53.0604 91.5122 53.7817 92.3789 54.2863L100.862 59.1814C101.237 59.398 101.548 59.7087 101.764 60.0825C101.98 60.4563 102.094 60.88 102.093 61.3113V70.642L67.6258 50.765V11.0134L75.7153 15.68C76.0919 15.8941 76.405 16.2033 76.623 16.5764C76.8409 16.9495 76.9561 17.3733 76.9568 17.8049ZM31.1571 59.1814L39.6378 54.2863C40.5066 53.7847 41.2278 53.0648 41.7295 52.1987C42.2312 51.3327 42.4957 50.3507 42.4966 49.3509V39.5556C42.4969 39.125 42.6102 38.702 42.8253 38.3284C43.0404 37.9548 43.3498 37.6436 43.7229 37.4257L52.2061 32.5306C53.0746 32.0282 53.7955 31.3078 54.2967 30.4413C54.798 29.5748 55.062 28.5926 55.0625 27.5927V17.8049C55.0641 17.3752 55.1781 16.9534 55.3931 16.5809C55.6081 16.2084 55.9167 15.8979 56.2888 15.68L64.3884 11.0134V50.765L29.9308 70.642V61.3113C29.9311 60.8804 30.0447 60.4571 30.2602 60.0835C30.4758 59.7098 30.7834 59.3989 31.1571 59.1814ZM92.3638 78.1242C91.9897 78.3388 91.5655 78.4518 91.1337 78.4518C90.7019 78.4518 90.2777 78.3388 89.9036 78.1242L81.4229 73.2315C80.556 72.7306 79.5715 72.4668 78.5691 72.4668C77.5668 72.4668 76.5822 72.7306 75.7153 73.2315L67.2321 78.1242C66.8584 78.3386 66.4347 78.4515 66.0033 78.4515C65.5719 78.4515 65.1482 78.3386 64.7745 78.1242L56.2913 73.2315C55.4234 72.7307 54.4381 72.4669 53.4349 72.4669C52.4318 72.4669 51.4465 72.7307 50.5786 73.2315L42.0979 78.1242C41.7239 78.3391 41.2997 78.4522 40.8679 78.4522C40.436 78.4522 40.0118 78.3391 39.6378 78.1242L31.5532 73.4576L66.0008 53.5579L100.448 73.4375L92.3638 78.1242Z" fill="#2D3232"/>
</svg>
