<svg width="132" height="88" viewBox="0 0 132 88" fill="none" xmlns="http://www.w3.org/2000/svg">
<path d="M63.7986 63.6099H55.7033L46.5962 49.7642H41.3237V63.6099H34.1338V24.3906H47.3418C51.0343 24.3906 54.0701 25.5593 56.449 27.8966C58.8278 30.2339 60.0173 33.2842 60.0173 37.0477C60.0173 39.5039 59.4669 41.7223 58.3662 43.7032C57.3011 45.6443 55.7921 47.1496 53.8393 48.2192L63.7986 63.6099ZM41.3237 31.4619V42.6929H47.3418C49.0105 42.6929 50.3065 42.1779 51.2296 41.1479C52.1883 40.1179 52.6677 38.7512 52.6677 37.0477C52.6677 35.3839 52.1705 34.037 51.1764 33.007C50.2178 31.9769 48.9395 31.4619 47.3418 31.4619H41.3237Z" fill="#525152"/>
<path d="M97.865 63.6099H89.7697L80.6626 49.7642H75.3901V63.6099H68.2002V24.3906H81.4082C85.1007 24.3906 88.1365 25.5593 90.5154 27.8966C92.8942 30.2339 94.0837 33.2842 94.0837 37.0477C94.0837 39.5039 93.5333 41.7223 92.4326 43.7032C91.3675 45.6443 89.8585 47.1496 87.9057 48.2192L97.865 63.6099ZM75.3901 31.4619V42.6929H81.4082C83.077 42.6929 84.3729 42.1779 85.296 41.1479C86.2547 40.1179 86.7341 38.7512 86.7341 37.0477C86.7341 35.3839 86.237 34.037 85.2428 33.007C84.2842 31.9769 83.0059 31.4619 81.4082 31.4619H75.3901Z" fill="#525152"/>
</svg>
