<svg width="132" height="88" viewBox="0 0 132 88" fill="none" xmlns="http://www.w3.org/2000/svg">
<path d="M104.901 51.2249L100.207 30.5663C99.5058 27.4955 97.4355 24.9043 94.5784 23.5542L72.7658 13.1884C68.4789 11.1559 63.4992 11.1559 59.2132 13.1884L37.4078 23.5469C34.5494 24.9043 32.4789 27.4882 31.7796 30.559L27.0842 51.2249C26.3043 54.6656 27.9308 58.2006 31.0584 59.863L58.5933 74.4894C63.222 76.95 68.7776 76.95 73.4064 74.4894L100.943 59.863C104.07 58.2006 105.695 54.6656 104.916 51.2249H104.901ZM57.5214 18.9593L67.4652 23.6776L64.9142 24.8897L57.2223 21.2386L55.8156 21.9063L53.5632 20.8392L57.5214 18.9593ZM55.2254 29.5428L45.3837 25.0422C45.2815 24.9913 45.2296 24.9479 45.2226 24.8897C45.2226 24.8387 45.2514 24.7954 45.3182 24.759L51.0327 22.0006C51.135 21.95 51.2444 21.9281 51.3615 21.9354C51.4777 21.9354 51.5872 21.9642 51.6894 22.0152L52.9363 22.5741C53.0157 22.6105 53.0676 22.6611 53.0895 22.7193C53.1113 22.7772 53.0676 22.8355 52.9581 22.8864L49.3785 24.672L51.2375 25.485L54.2557 24.0115C54.343 23.9678 54.4373 23.946 54.5468 23.946C54.656 23.946 54.7652 23.9678 54.8757 24.0188L56.1216 24.5995C56.202 24.6356 56.2526 24.6865 56.2745 24.7444C56.2963 24.8027 56.2605 24.8536 56.1732 24.897L53.2056 26.4141L57.6236 28.3886C57.8274 28.4829 57.8274 28.5845 57.6236 28.6861L55.7868 29.5719C55.5969 29.6371 55.414 29.6298 55.2393 29.5428H55.2254ZM70.2432 39.567C67.5459 40.8086 64.4401 40.8086 61.7428 39.567L57.2878 37.5419C60.2623 38.3622 63.7397 38.5075 65.993 38.5075C68.3912 38.5075 71.7224 38.3622 74.6969 37.5419L70.2432 39.567ZM69.0033 22.9298L68.42 22.6538C67.5459 18.7558 67.3193 18.1753 66.5038 17.7833C65.9851 17.5366 65.3145 17.5293 64.8486 17.747C64.3379 17.9865 64.3894 18.3132 64.9648 18.5818L65.1477 18.6689L62.7413 19.8157L62.5662 19.7287C60.6339 18.8141 60.5614 17.6309 62.5596 16.6872C64.4907 15.7726 67.0719 15.729 68.8653 16.5784C70.0685 17.1518 70.5711 17.7905 70.9863 19.8375L73.5159 18.6326L75.784 19.7068L69.0112 22.9225L69.0033 22.9298Z" fill="#E76731"/>
</svg>
