<svg width="132" height="88" viewBox="0 0 132 88" fill="none" xmlns="http://www.w3.org/2000/svg">
<path fill-rule="evenodd" clip-rule="evenodd" d="M45.8 66.8208C51.4614 72.5661 58.9409 76.2915 66.0004 76.2915C73.0602 76.2915 80.5396 72.5661 86.2008 66.8208C88.7828 64.2012 91.0356 61.1127 92.7268 57.6804H80.7924C79.5191 57.6804 78.4865 56.6475 78.4865 55.374V48.0601C76.5205 47.3654 74.9621 45.807 74.2666 43.841H63.6934V71.5137C58.7638 70.8221 53.4304 67.9923 49.0854 63.5833C44.0829 58.5068 40.6275 51.5677 40.6275 43.9994C40.6275 30.2263 42.9684 23.6805 46.7595 20.3627C50.2968 17.2678 55.6304 16.4517 63.6934 16.3356V39.2276H74.2666C75.217 36.54 77.7798 34.6145 80.7924 34.6145C84.6146 34.6145 87.7122 37.7126 87.7122 41.5343C87.7122 44.5472 85.7869 47.1102 83.0994 48.0601V53.0673H94.5798C95.4815 50.199 95.9861 47.157 95.9861 43.9994C95.9861 30.0932 93.7132 21.6461 88.279 16.8909C82.9165 12.1988 75.0842 11.707 66.0004 11.707C56.9169 11.707 49.0843 12.1988 43.722 16.8909C38.2876 21.6461 36.0146 30.0932 36.0146 43.9994C36.0146 52.9919 40.1087 61.0456 45.8 66.8208ZM56.7519 41.5379C56.7519 42.8117 55.7184 43.8446 54.4449 43.8446C53.1706 43.8446 52.1379 42.8117 52.1379 41.5379C52.1379 40.2641 53.1706 39.2312 54.4449 39.2312C55.7184 39.2312 56.7519 40.2641 56.7519 41.5379ZM83.2033 41.5379C83.2033 42.8117 82.1707 43.8446 80.8963 43.8446C79.6231 43.8446 78.5905 42.8117 78.5905 41.5379C78.5905 40.2641 79.6231 39.2312 80.8963 39.2312C82.1707 39.2312 83.2033 40.2641 83.2033 41.5379Z" fill="url(#paint0_linear_2056_26447)"/>
<defs>
<linearGradient id="paint0_linear_2056_26447" x1="37.4004" y1="41.2491" x2="95.1504" y2="41.1116" gradientUnits="userSpaceOnUse">
<stop stop-color="#883EE6"/>
<stop offset="1" stop-color="#3F4DD1"/>
</linearGradient>
</defs>
</svg>
