<svg width="361" height="360" viewBox="0 0 361 360" fill="none" xmlns="http://www.w3.org/2000/svg">
<g clip-path="url(#clip0_930_14067)">
<path d="M338.639 172.385H316.892V149.989C316.892 147.003 315.197 144.415 312.802 143.021C311.705 142.424 310.408 142.026 309.012 142.026H236.092C234.197 142.026 232.401 142.723 231.005 143.818C230.007 144.514 229.109 145.41 228.411 146.505L203.672 192.293L181.328 148.596C180.929 146.903 179.931 145.311 178.534 144.216C176.24 142.126 172.749 141.528 169.756 142.922C167.262 144.116 165.666 146.505 165.367 149.093L142.025 192.293L118.782 146.704C117.984 144.913 116.488 143.619 114.892 142.922C113.795 142.424 112.597 142.026 111.301 142.026H52.3467C50.9501 142.026 49.6533 142.325 48.556 143.021C46.0622 144.315 44.4661 147.003 44.4661 149.989V172.385H22.6202C18.231 172.385 14.7396 175.869 14.7396 180.249C14.7396 184.629 18.231 188.113 22.6202 188.113H44.3664V209.812C44.3664 214.192 47.8578 217.676 52.2469 217.676C56.636 217.676 60.1274 214.192 60.1274 209.812V188.113H97.7344C102.123 188.113 105.615 184.629 105.615 180.249C105.615 175.869 102.123 172.385 97.7344 172.385H60.1274V157.853H106.612L134.443 212.301C134.643 212.798 134.842 213.296 135.142 213.694C137.237 217.178 141.626 218.671 145.416 216.78C147.711 215.685 149.307 213.495 149.706 211.206L173.248 167.707L195.991 212.301C196.191 212.798 196.39 213.296 196.69 213.694C198.784 217.178 203.174 218.671 206.964 216.78C209.258 215.685 210.855 213.495 211.254 211.206L240.082 157.753H300.832V172.286H248.162C243.873 172.286 240.481 175.67 240.282 179.851V209.314C240.282 213.694 243.773 217.178 248.162 217.178H306.319C307.117 217.477 308.014 217.178 308.912 217.178C313.301 217.178 316.793 213.694 316.793 209.314V188.013H338.539C342.928 188.013 346.419 184.529 346.419 180.149C346.519 175.969 342.928 172.385 338.639 172.385ZM301.032 201.55H255.943V188.212H301.032V201.55Z" fill="white"/>
<path d="M308.912 142.125C310.308 142.125 311.605 142.424 312.702 143.121C315.196 144.415 316.792 147.102 316.792 150.088V172.485H338.539C342.928 172.485 346.419 175.969 346.419 180.348C346.419 184.728 342.928 188.212 338.539 188.212H316.792V209.513C316.792 213.893 313.301 217.377 308.912 217.377C308.014 217.377 248.362 217.377 248.362 217.377C243.972 217.377 240.481 213.893 240.481 209.513V179.95C240.681 175.77 244.172 172.385 248.362 172.385H301.031V157.853H240.282L211.453 211.305C210.954 213.694 209.458 215.784 207.163 216.879C206.066 217.377 204.869 217.676 203.772 217.676C201.078 217.676 198.385 216.282 196.989 213.794C196.689 213.395 196.49 212.898 196.29 212.4L173.546 167.806L150.503 211.405C149.506 213.694 148.01 215.784 145.715 216.979C144.618 217.476 143.421 217.775 142.324 217.775C139.63 217.775 136.937 216.382 135.54 213.893C135.241 213.495 135.042 212.997 134.842 212.5L107.011 158.052H60.5259V172.584H98.133C102.522 172.584 106.013 176.068 106.013 180.448C106.013 184.828 102.522 188.312 98.133 188.312H60.5259V210.011C60.5259 214.391 57.0346 217.875 52.6454 217.875C48.2563 217.875 44.7649 214.391 44.7649 210.011V188.312H22.6197C18.2305 188.312 14.7391 184.828 14.7391 180.448C14.7391 176.068 18.2305 172.584 22.6197 172.584H44.3659V150.188C44.3659 147.202 46.0617 144.614 48.4558 143.22C49.5531 142.623 50.8499 142.225 52.2464 142.225H111.201C112.497 142.225 113.694 142.524 114.792 143.121C116.488 143.818 117.884 145.112 118.682 146.903L142.024 192.592L165.367 148.994C166.564 146.605 167.162 144.415 169.756 143.22C170.853 142.723 172.05 142.424 173.147 142.424C175.143 142.424 177.038 143.121 178.434 144.514C179.831 145.609 180.529 146.406 181.527 148.297L203.572 192.592L228.311 146.804C228.91 145.709 229.807 144.813 230.905 144.116C232.301 143.021 233.997 142.324 235.992 142.324H308.912V142.125ZM255.943 201.55H301.032V188.212H255.943V201.55ZM308.912 126H235.992C230.705 126 225.518 127.792 221.328 130.977C218.436 132.968 216.041 135.655 214.346 138.641L214.146 139.04L204.071 157.753C204.071 157.753 192.4 134.859 188.909 132.072C184.519 128.289 178.933 126.199 173.147 126.199C169.556 126.199 165.965 126.995 162.673 128.588C156.389 131.574 152.898 137.148 150.005 143.618L142.423 157.753L133.146 139.637C130.752 134.759 126.662 130.778 121.675 128.488C118.383 126.896 114.792 126.1 111.201 126.1H52.2464C48.2563 126.1 44.2661 127.095 40.7748 128.986C32.994 133.167 28.2059 141.329 28.2059 150.088V156.359H22.6197C9.35247 156.359 -1.4209 167.11 -1.4209 180.348C-1.4209 193.587 9.35247 204.337 22.6197 204.337H28.2059V209.912C28.2059 223.15 38.9792 233.9 52.2464 233.9C65.5136 233.9 76.287 223.15 76.287 209.912V204.337H97.6342C102.223 204.337 106.612 203.043 110.303 200.754L119.779 219.268C120.278 220.363 120.777 221.359 121.375 222.354C125.765 229.521 133.545 233.9 141.925 233.9C145.516 233.9 149.107 233.104 152.399 231.512C158.284 228.724 163.372 223.947 165.965 217.875L172.848 202.645L181.427 219.368C181.926 220.463 182.425 221.458 183.023 222.453C187.412 229.62 195.193 234 203.572 234C207.163 234 210.755 233.204 214.046 231.611C219.533 228.924 223.822 224.245 226.017 218.671C229.608 227.43 238.286 233.602 248.362 233.602H308.912C322.179 233.602 332.952 223.25 332.952 210.011V204.437H338.539C351.806 204.437 362.579 193.687 362.579 180.448C362.579 167.209 351.806 156.459 338.539 156.459H332.952V150.188C332.952 141.329 328.164 133.266 320.383 129.086C316.892 126.995 312.902 126 308.912 126Z" fill="black"/>
</g>
<defs>
<clipPath id="clip0_930_14067">
<rect width="360" height="360" fill="white" transform="translate(0.579102)"/>
</clipPath>
</defs>
</svg>
