<svg width="132" height="88" viewBox="0 0 132 88" fill="none" xmlns="http://www.w3.org/2000/svg">
<path d="M73.2777 6L69.5842 9.66216L74.869 14.9093L78.5622 11.2399L73.2777 6ZM91.9784 8.05543L88.2412 11.761L93.5256 17.0009L97.2628 13.2953L91.9784 8.05543ZM65.7667 13.4545L38.1026 40.8843C28.6325 50.2742 28.6325 65.5536 38.1026 74.9435C42.6881 79.4976 48.7935 82 55.285 82C61.7765 82 67.8707 79.4902 72.46 74.9435L93.5331 54.0564L88.2483 48.8164L67.1681 69.7035C63.9952 72.8532 59.7771 74.5889 55.285 74.5889C50.7929 74.5889 46.5676 72.8532 43.3872 69.7035C40.2106 66.5538 38.4675 62.3717 38.4675 57.9139C38.4675 53.4561 40.2143 49.2741 43.3872 46.1243L71.0515 18.6872L65.7667 13.4545ZM84.5331 15.4376L65.8179 33.9943L71.1023 39.2342L89.8179 20.6775L84.5331 15.4376ZM95.7156 22.8776L91.9784 26.5832L97.2628 31.8231L101 28.1175L95.7156 22.8776ZM88.2412 30.2887L69.5551 48.8164L74.8395 54.0564L93.5256 35.5286L88.2412 30.2887ZM95.7156 41.4053L91.9784 45.1109L97.2628 50.3509L101 46.6453L95.7156 41.4053ZM55.3726 48.65C52.8946 48.65 50.5182 49.6261 48.7661 51.3632C47.0139 53.1008 46.0295 55.4571 46.0295 57.9139C46.0295 60.3707 47.0139 62.7271 48.7661 64.4646C50.5182 66.2018 52.8946 67.1778 55.3726 67.1778C56.5995 67.1778 57.8143 66.938 58.9481 66.4726C60.0816 66.0072 61.1116 65.3247 61.979 64.4646C62.8468 63.6042 63.5348 62.5829 64.0046 61.459C64.474 60.3351 64.7158 59.1305 64.7158 57.9139C64.7158 56.6974 64.474 55.4927 64.0046 54.3688C63.5348 53.2449 62.8468 52.2237 61.979 51.3632C61.1116 50.5032 60.0816 49.8206 58.9481 49.3552C57.8143 48.8898 56.5995 48.65 55.3726 48.65Z" fill="#8A61F2"/>
</svg>
