<svg width="132" height="88" viewBox="0 0 132 88" fill="none" xmlns="http://www.w3.org/2000/svg">
<mask id="mask0_2056_21469" style="mask-type:luminance" maskUnits="userSpaceOnUse" x="34" y="10" width="64" height="68">
<path d="M34.0156 10.4141H97.9852V77.5823H34.0156V10.4141Z" fill="white"/>
</mask>
<g mask="url(#mask0_2056_21469)">
<path d="M73.3232 11.9766L70.1627 15.1376L74.6856 19.6666L77.8462 16.4994L73.3232 11.9766ZM89.3285 13.7507L86.1303 16.9492L90.6529 21.4721L93.8514 18.2736L89.3285 13.7507ZM66.8954 18.411L43.2195 42.0874C35.1143 50.1922 35.1143 63.3809 43.2195 71.486C47.1435 75.4171 52.3691 77.577 57.9246 77.577C63.4799 77.577 68.6964 75.4102 72.6236 71.486L90.659 53.457L86.1361 48.9341L68.0947 66.9631C65.379 69.6817 61.7686 71.1802 57.9246 71.1802C54.0804 71.1802 50.4641 69.6817 47.7422 66.9631C45.0235 64.2441 43.5313 60.6342 43.5313 56.7864C43.5313 52.9389 45.0266 49.329 47.7422 46.6103L71.418 22.9276L66.8954 18.411ZM82.9568 20.1227L66.9391 36.1402L71.462 40.6629L87.4794 24.6455L82.9568 20.1227ZM92.527 26.5447L89.3285 29.7432L93.8514 34.2661L97.05 31.0676L92.527 26.5447ZM86.1303 32.9417L70.1376 48.9341L74.6606 53.457L90.6529 37.4644L86.1303 32.9417ZM92.527 42.537L89.3285 45.7355L93.8514 50.2585L97.05 47.0599L92.527 42.537ZM57.9994 48.7902C55.8786 48.7902 53.8455 49.6328 52.3451 51.1324C50.8458 52.632 50.0032 54.6659 50.0032 56.7864C50.0032 58.9072 50.8458 60.9411 52.3451 62.441C53.8455 63.9403 55.8786 64.7829 57.9994 64.7829C59.0499 64.7829 60.0894 64.5758 61.0599 64.174C62.0295 63.7722 62.9112 63.1832 63.6537 62.441C64.3965 61.6982 64.9852 60.8165 65.387 59.8466C65.7888 58.8764 65.9956 57.8366 65.9956 56.7864C65.9956 55.7365 65.7888 54.6967 65.387 53.7265C64.9852 52.7566 64.3965 51.8749 63.6537 51.1324C62.9112 50.3899 62.0295 49.8009 61.0599 49.3991C60.0894 48.9973 59.0499 48.7902 57.9994 48.7902Z" fill="#0EF275"/>
</g>
</svg>
