<svg width="132" height="88" viewBox="0 0 132 88" fill="none" xmlns="http://www.w3.org/2000/svg">
<rect x="29.9746" y="7.97656" width="72.05" height="72.05" rx="36.025" fill="#262626"/>
<path d="M74.8751 42.8983C73.7809 42.4438 73.1451 41.4663 73.3674 40.5789C73.7415 39.0849 76.5368 40.2516 76.5368 41.9016C76.5368 42.9364 75.8945 43.3216 74.8751 42.8983Z" fill="#09DAB4"/>
<path d="M73.7401 46.4618C73.1153 45.6882 73.112 44.3888 73.7341 44.0256C74.4541 43.6053 74.6077 43.6552 75.4841 44.596C76.0851 45.2408 76.2705 45.6791 76.2089 46.3093C76.1332 47.0881 76.0504 47.1523 75.1756 47.109C74.5681 47.0788 74.0496 46.845 73.7401 46.4618Z" fill="#09DAB4"/>
<path fill-rule="evenodd" clip-rule="evenodd" d="M66.7355 44.6728C65.8589 45.5514 65.8578 46.7252 66.7328 47.5492C67.5006 48.2727 68.3192 48.1891 69.2826 47.2894C70.1329 46.4949 70.0837 45.2871 69.1718 44.5681C68.2257 43.8219 67.5553 43.8507 66.7355 44.6728ZM56.6319 52.0445L55.2809 53.2364L56.4342 54.5503C57.0689 55.2729 57.5879 55.9843 57.5879 56.1309C57.5879 56.2776 57.0651 56.8675 56.4258 57.4413L55.2637 58.4851L56.6204 59.8772C57.3669 60.6431 58.1052 61.2645 58.2611 61.2582C58.4172 61.2522 58.9709 60.8821 59.4915 60.4359C60.0121 59.9898 60.5612 59.6247 60.7116 59.6247C60.862 59.6247 61.5084 60.1395 62.1479 60.7689L63.3108 61.9131L64.6597 60.7004C65.4018 60.0334 66.0211 59.384 66.0364 59.2571C66.0517 59.1302 65.6317 58.5197 65.1029 57.9004L64.1412 56.7743L65.4447 55.445L66.7479 54.1158L65.3807 52.9058C64.6288 52.2405 63.8905 51.6963 63.7401 51.6966C63.5897 51.6969 63.0407 52.0623 62.5201 52.5086C61.9994 52.9546 61.4405 53.3197 61.2781 53.3197C61.1157 53.3197 60.4395 52.7646 59.7753 52.0861C59.1112 51.4077 58.4361 50.8525 58.2753 50.8525C58.1145 50.8525 57.3751 51.389 56.6319 52.0445Z" fill="white"/>
<path d="M78.5759 42.5083C77.8463 41.7772 77.7162 41.0127 78.2327 40.4948C79.0519 39.6735 81.1858 40.7736 81.1858 42.0176C81.1858 43.2838 79.6392 43.5747 78.5759 42.5083Z" fill="#D9CF03"/>
<path d="M79.1602 47.0287C77.936 46.5622 77.2568 45.0369 77.9593 44.3326C78.5075 43.783 79.1867 43.9601 79.931 44.8472C81.1527 46.3025 80.69 47.6118 79.1602 47.0287Z" fill="#D9CF03"/>
<path fill-rule="evenodd" clip-rule="evenodd" d="M63.0995 21.2189C62.4462 22.0876 61.4889 23.1367 60.9722 23.5501C59.4013 24.807 56.6817 25.914 53.7111 26.5064C49.5804 27.3298 47.808 28.3715 46.5633 30.7074C45.6779 32.3697 45.7187 35.9762 46.6437 37.7917C47.3984 39.2731 48.5916 40.436 50.2022 41.2598C51.4919 41.9193 54.0783 41.9974 55.2008 41.4103C55.941 41.0232 55.973 41.0388 56.6478 42.1104C57.0276 42.7132 57.5173 43.2754 57.7366 43.3599C58.3923 43.6121 58.2077 43.827 56.6194 44.659C54.5276 45.7547 51.6352 48.7257 50.5554 50.8875C47.4194 57.1664 49.874 64.4051 56.1502 67.3857C57.8643 68.1996 58.2064 68.2632 60.8693 68.2632C64.1065 68.2632 65.9156 67.7868 67.9786 66.3909C70.2178 64.8761 71.3714 63.3884 72.2149 60.927C73.3303 57.6739 74.1057 56.0011 74.7759 55.4043C75.2295 55.0003 76.017 54.8303 78.2406 54.6562C81.3955 54.4092 81.7356 54.2881 83.3349 52.8396C87.5942 48.9815 86.76 40.862 81.7069 36.9937C78.9433 34.8783 74.4475 34.3843 71.2598 35.8462C70.4327 36.2254 68.6964 37.4028 67.4014 38.4628L65.0471 40.3897L63.5055 39.9346C62.6579 39.6843 61.9639 39.3902 61.9636 39.2811C61.9634 39.1717 62.3418 38.8861 62.805 38.6459C64.4188 37.8093 65.2087 34.6118 64.2843 32.6584C63.7839 31.6013 61.8671 30.2962 60.8147 30.2962C59.6903 30.2962 59.8735 29.9782 61.4851 29.1303C64.5334 27.5275 66.6115 25.097 66.6115 23.1354C66.6115 22.6526 66.2762 21.6915 65.8666 20.9999L65.1215 19.7422L64.9452 21.1328C64.7089 22.9978 64.0926 24.2165 62.7074 25.5595C61.4695 26.7594 60.2022 27.3575 56.4211 28.5261C53.6244 29.3907 51.9133 30.5753 50.8611 32.3752C49.8193 34.1573 49.8415 35.5403 50.9287 36.6305C51.5507 37.2539 52.1107 37.5209 53.0111 37.6226C54.1653 37.7531 54.3132 37.6914 55.3575 36.6445C55.9702 36.0302 56.7175 35.0444 57.018 34.4539C58.2326 32.0671 60.3318 31.2677 61.8794 32.6027C63.0404 33.6041 62.9294 35.261 61.583 37.0288C60.1313 38.9349 60.2612 39.7973 62.1389 40.7159C62.9122 41.0942 64.0196 41.802 64.5998 42.2886C65.1798 42.7754 65.7387 43.1751 65.8415 43.1768C65.9443 43.1787 66.5956 42.4566 67.2887 41.5717C69.6471 38.5623 72.893 36.6012 75.5153 36.6012C78.6187 36.6012 82.1466 39.3469 83.2447 42.6167C84.9783 47.7797 82.819 51.9204 78.1659 52.3552C74.5213 52.6959 74.1815 52.7968 73.1301 53.8506C72.1233 54.8602 71.9962 55.1858 70.8472 59.7043C70.235 62.112 69.5298 63.1244 67.6959 64.2299C65.6301 65.475 63.5837 66.0269 61.0061 66.0337C59.226 66.0387 58.5323 65.9079 57.2819 65.3325C55.2128 64.3804 53.756 63.0008 52.6387 60.9352C51.7495 59.2915 51.7093 59.0922 51.7093 56.3386C51.7093 53.7154 51.7785 53.3231 52.4911 51.9138C53.9107 49.1045 57.5116 46.3191 61.4162 45.0096C64.3168 44.0367 64.2856 44.0584 63.7087 43.4194C63.0237 42.6606 62.1241 42.2274 60.3772 41.8157C57.587 41.1583 57.5463 39.8653 60.221 36.86C61.7547 35.1368 61.9792 34.4633 61.2601 33.7423C60.1852 32.6647 58.9332 33.3813 57.0714 36.1398C55.4537 38.5368 55.0373 38.9192 53.5733 39.3535C52.5334 39.6616 52.3098 39.6328 51.1138 39.0377C47.7757 37.3764 47.1889 33.1252 49.8948 30.2033C50.9079 29.1089 51.6582 28.772 54.8306 27.985C56.3626 27.6051 58.1539 27.0557 58.8109 26.764C60.402 26.0584 62.3079 24.6047 63.0456 23.5337C63.6318 22.6822 64.5025 20.2353 64.3595 19.8395C64.3198 19.7293 63.7527 20.3499 63.0995 21.2189ZM55.2825 31.5528C53.8763 32.2768 53.4883 32.6493 52.773 33.9624C52.3817 34.6809 52.3825 34.7895 52.7836 35.1913C53.3887 35.7983 53.9553 35.3947 54.9976 33.6145C55.4562 32.8322 56.1955 31.893 56.6412 31.5279C57.7161 30.6474 57.0167 30.66 55.2825 31.5528Z" fill="#AA86E7"/>
<path fill-rule="evenodd" clip-rule="evenodd" d="M71.8392 47.9636C71.0862 48.0162 70.7142 49.2274 71.1818 50.1047C71.7663 51.2011 72.6838 50.6828 72.7106 49.2411C72.7271 48.3625 72.4269 47.9225 71.8392 47.9636ZM69.9792 49.6694C69.2262 49.722 68.8542 50.9333 69.3218 51.8106C69.9063 52.907 70.8238 52.3887 70.8506 50.9469C70.8671 50.0683 70.5668 49.6284 69.9792 49.6694Z" fill="#D33406"/>
</svg>
