<svg width="132" height="88" viewBox="0 0 132 88" fill="none" xmlns="http://www.w3.org/2000/svg">
<path d="M66.0004 78.0984C84.8333 78.0984 100.1 62.8313 100.1 43.9984C100.1 25.1655 84.8333 9.89844 66.0004 9.89844C47.1675 9.89844 31.9004 25.1655 31.9004 43.9984C31.9004 62.8313 47.1675 78.0984 66.0004 78.0984Z" fill="#ECD2C9"/>
<path d="M52.7393 49.1406H79.5321V53.0648C79.5321 60.4634 73.5343 66.4613 66.1357 66.4613C58.737 66.4613 52.7393 60.4634 52.7393 53.0648V49.1406Z" fill="#161616"/>
<path d="M57.0696 30.8712C57.0696 29.0029 55.555 27.4883 53.6866 27.4883C51.8183 27.4883 50.3037 29.0029 50.3037 30.8712V38.7196C50.3037 40.588 51.8183 42.1026 53.6866 42.1026C55.555 42.1026 57.0696 40.588 57.0696 38.7196V30.8712Z" fill="#161616"/>
<path d="M81.1555 30.8712C81.1555 29.0029 79.6409 27.4883 77.7726 27.4883C75.9042 27.4883 74.3896 29.0029 74.3896 30.8712V38.7196C74.3896 40.588 75.9042 42.1026 77.7726 42.1026C79.6409 42.1026 81.1555 40.588 81.1555 38.7196V30.8712Z" fill="#161616"/>
<path fill-rule="evenodd" clip-rule="evenodd" d="M75.4644 62.6779C73.0525 65.0189 69.7621 66.46 66.1356 66.46C62.4231 66.46 59.0631 64.9496 56.6367 62.5101C58.256 59.8909 61.8396 58.0703 66.0003 58.0703C70.2495 58.0703 73.8966 59.9691 75.4644 62.6779Z" fill="#ED635E"/>
</svg>
