<svg width="132" height="88" viewBox="0 0 132 88" fill="none" xmlns="http://www.w3.org/2000/svg">
<path d="M70.875 9.875C70.875 12.5674 68.6926 14.75 66 14.75C63.3076 14.75 61.125 12.5674 61.125 9.875C61.125 7.18264 63.3076 5 66 5C68.6926 5 70.875 7.18264 70.875 9.875Z" fill="#1B0A2E"/>
<path fill-rule="evenodd" clip-rule="evenodd" d="M66 63.5C76.7695 63.5 85.5 54.7694 85.5 44C85.5 33.2305 76.7695 24.5 66 24.5C55.2305 24.5 46.5 33.2305 46.5 44C46.5 54.7694 55.2305 63.5 66 63.5ZM66 53.75C71.3847 53.75 75.75 49.3847 75.75 44C75.75 38.6152 71.3847 34.25 66 34.25C60.6152 34.25 56.25 38.6152 56.25 44C56.25 49.3847 60.6152 53.75 66 53.75Z" fill="#1B0A2E"/>
<path d="M90.375 24.5C93.0676 24.5 95.25 22.3174 95.25 19.625C95.25 16.9326 93.0676 14.75 90.375 14.75C87.6824 14.75 85.5 16.9326 85.5 19.625C85.5 22.3174 87.6824 24.5 90.375 24.5Z" fill="#1B0A2E"/>
<path d="M46.5 19.625C46.5 22.3174 44.3174 24.5 41.625 24.5C38.9326 24.5 36.75 22.3174 36.75 19.625C36.75 16.9326 38.9326 14.75 41.625 14.75C44.3174 14.75 46.5 16.9326 46.5 19.625Z" fill="#1B0A2E"/>
<path d="M66 73.25C68.6926 73.25 70.875 75.4328 70.875 78.125C70.875 80.8176 68.6926 83 66 83C63.3076 83 61.125 80.8176 61.125 78.125C61.125 75.4328 63.3076 73.25 66 73.25Z" fill="#1B0A2E"/>
<path d="M95.25 68.375C95.25 65.6828 93.0676 63.5 90.375 63.5C87.6824 63.5 85.5 65.6828 85.5 68.375C85.5 71.0676 87.6824 73.25 90.375 73.25C93.0676 73.25 95.25 71.0676 95.25 68.375Z" fill="#1B0A2E"/>
<path d="M41.625 63.5C44.3174 63.5 46.5 65.6828 46.5 68.375C46.5 71.0676 44.3174 73.25 41.625 73.25C38.9326 73.25 36.75 71.0676 36.75 68.375C36.75 65.6828 38.9326 63.5 41.625 63.5Z" fill="#1B0A2E"/>
<path d="M36.75 44C36.75 46.6926 34.5674 48.875 31.875 48.875C29.1826 48.875 27 46.6926 27 44C27 41.3078 29.1826 39.125 31.875 39.125C34.5674 39.125 36.75 41.3078 36.75 44Z" fill="#1B0A2E"/>
<path d="M100.125 48.875C102.818 48.875 105 46.6926 105 44C105 41.3078 102.818 39.125 100.125 39.125C97.4324 39.125 95.25 41.3078 95.25 44C95.25 46.6926 97.4324 48.875 100.125 48.875Z" fill="#1B0A2E"/>
</svg>
