<svg width="132" height="88" viewBox="0 0 132 88" fill="none" xmlns="http://www.w3.org/2000/svg">
<path fill-rule="evenodd" clip-rule="evenodd" d="M66.0005 60.333C75.0213 60.333 82.3327 53.0208 82.3327 44.0005C82.3327 43.7725 82.3286 43.5456 82.3198 43.3201H66.6811V27.6817C66.4553 27.6724 66.2285 27.6677 66.0005 27.6677C56.9797 27.6677 49.6682 34.9802 49.6682 44.0005C49.6682 53.0208 56.9797 60.333 66.0005 60.333ZM66.6811 27.668H82.3327V43.3199H97.9783C97.9833 43.5462 97.9852 43.7731 97.9852 44.0005C97.9852 61.6651 83.6651 75.9852 66.0005 75.9852C48.3359 75.9852 34.0156 61.6651 34.0156 44.0005C34.0156 26.3359 48.3359 12.0156 66.0005 12.0156C66.2274 12.0156 66.4542 12.018 66.6811 12.0227V27.668Z" fill="#0EF275"/>
</svg>
