<svg width="132" height="88" viewBox="0 0 132 88" fill="none" xmlns="http://www.w3.org/2000/svg">
<mask id="mask0_2056_26035" style="mask-type:luminance" maskUnits="userSpaceOnUse" x="30" y="8" width="72" height="72">
<path d="M30.0176 8.01562H101.983V79.9817H30.0176V8.01562Z" fill="white"/>
</mask>
<g mask="url(#mask0_2056_26035)">
<path d="M101.983 43.9989C101.982 34.4558 98.1912 25.3041 91.4425 18.5568C84.6937 11.8094 75.542 8.01904 65.9986 8.01953C56.4561 8.02003 47.3033 11.8112 40.5566 18.5593C33.8088 25.3074 30.0176 34.4594 30.0176 44.0025C30.0176 53.5455 33.8088 62.6975 40.5566 69.4455C47.3033 76.1934 56.4561 79.9846 65.9986 79.9857C75.542 79.9857 84.6937 76.1953 91.4425 69.4485C98.1912 62.7008 101.982 53.5491 101.983 44.006V43.9989Z" fill="#0E448D"/>
<path d="M54.0062 43.9969C54.0062 40.816 52.7417 37.7654 50.4928 35.5162C48.243 33.267 45.1924 32.0036 42.0109 32.0039C38.8304 32.0039 35.7798 33.2678 33.5309 35.517C31.281 37.7663 30.0176 40.8171 30.0176 43.998C30.0176 47.1792 31.281 50.2298 33.5309 52.479C35.7798 54.7285 38.8304 55.9922 42.0109 55.9924C45.1924 55.9924 48.243 54.7291 50.4928 52.4801C52.7417 50.2309 54.0062 47.1803 54.0062 43.9994V43.9969Z" fill="#F71411"/>
</g>
</svg>
