<svg width="132" height="88" viewBox="0 0 132 88" fill="none" xmlns="http://www.w3.org/2000/svg">
<path d="M66.1055 9.28516C46.9257 9.28516 31.2832 24.7355 31.2832 43.9087C31.2832 63.0818 46.7396 78.718 65.92 78.718C75.7889 78.718 85.0998 74.4364 91.8041 67.1773C98.3211 59.7312 101.488 49.8654 100.556 39.9996C98.5075 22.5016 83.7965 9.28516 66.1055 9.28516ZM40.9667 30.5062C41.5257 29.5753 42.0836 28.4583 42.8287 27.5277C42.8287 27.1553 43.2014 26.9692 43.573 26.9692C43.9457 26.9692 44.3184 27.1553 44.5048 27.3416L56.2367 39.069C57.9124 40.3717 59.9609 40.7441 61.8231 39.9996C62.0094 39.9996 62.1958 39.8135 62.1958 39.6271C62.94 37.7656 62.94 35.718 62.0094 34.0429L61.637 33.6704L49.7184 21.9431C49.5321 21.571 49.346 21.3849 49.5321 21.0125C49.5321 20.6404 49.7184 20.454 49.9048 20.2679C50.8366 19.5233 51.7669 18.9648 52.8839 18.4064C53.2566 18.2203 53.8154 18.2203 54.1882 18.5926L55.4915 19.8955L65.5476 29.9477C66.4779 31.0644 67.7825 31.6229 69.2719 31.6229C70.7613 31.4368 71.134 32.3674 71.3204 34.0429C71.6919 37.2074 72.6234 40.1856 73.7404 43.1641L74.1131 44.0947C75.0446 46.5148 75.4161 47.0732 74.1131 48.1899C72.8098 49.3069 71.5067 50.6099 70.2025 52.099C69.8298 52.4715 69.4582 52.8436 69.0855 52.8436C68.8991 52.8436 68.7128 52.8436 68.5264 52.6575C64.2434 51.3545 59.7746 50.0514 55.3051 48.7484C54.3745 48.5623 54.0018 48.0039 54.1882 47.2593C54.3745 45.5838 53.6291 43.9087 52.326 42.9778L42.2699 32.9259L41.3393 31.9953C40.7804 31.4368 40.594 30.8783 40.9667 30.5062ZM94.4105 47.0732C92.9211 60.2897 82.4935 70.7143 69.2719 72.3888C61.0779 73.3201 53.0703 70.7143 46.926 65.3155C41.153 59.7312 37.615 51.913 37.615 43.7223V42.0472C37.615 41.675 37.9866 41.3026 38.3592 41.1165H38.7319C39.1045 41.1165 39.2908 41.3026 39.4772 41.4887L40.2214 42.2332C42.6427 44.6532 45.2499 47.2593 47.67 49.8654C49.1597 51.3545 51.2082 52.4715 53.2566 53.0299C58.6567 54.519 64.8022 56.1942 72.251 58.2421L79.3268 60.1036C79.5131 60.1036 79.8859 60.2897 80.0722 60.2897C81.0038 60.4757 82.1207 59.9173 82.3071 58.8003V57.8697C79.8859 48.5623 77.2795 38.8826 74.4858 29.2028C74.1131 28.0862 73.554 26.9692 72.8098 26.2246C70.0161 23.4325 67.2234 20.6404 64.4294 17.6618L63.4991 16.7311C63.1264 16.3589 63.1264 15.9865 63.3128 15.6142C63.4991 15.242 63.8716 14.8696 64.2434 14.8696H65.92C81.748 15.0558 94.5969 27.8998 94.4105 43.7223C94.5969 45.0257 94.5969 46.1423 94.4105 47.0732Z" fill="black"/>
</svg>
