<svg width="132" height="88" viewBox="0 0 132 88" fill="none" xmlns="http://www.w3.org/2000/svg">
<path d="M59.3257 55.1465C59.3257 57.1707 61.156 58.0819 66.7533 58.0819C71.0591 58.0819 72.5119 56.057 72.5119 55.1465C72.5119 53.9303 70.5218 52.1072 64.0623 52.1072C60.4018 52.1072 59.3257 54.0327 59.3257 55.1465ZM65.3005 30.4359C62.4481 30.4359 60.4559 32.3592 60.4559 34.79C60.4559 37.2209 62.4481 39.1449 65.3005 39.1449C67.8294 39.1449 69.875 37.2216 69.875 34.79C69.875 32.3585 67.8294 30.4359 65.3005 30.4359Z" fill="black"/>
<path d="M65.9996 9.35156C46.8629 9.35156 31.3496 24.8648 31.3496 44.0016C31.3496 63.1383 46.8629 78.6516 65.9996 78.6516C85.1364 78.6516 100.65 63.1383 100.65 44.0016C100.65 24.8648 85.1364 9.35156 65.9996 9.35156ZM78.8091 30.0307C77.2482 30.0307 75.5261 30.0307 74.504 30.6384C75.364 31.7522 76.0108 33.2718 76.0108 35.2968C76.0108 40.2579 72.4577 43.8033 65.4608 43.8033C62.5552 43.8033 60.241 43.9049 60.241 45.4238C60.241 49.6778 78.6485 43.9049 78.6485 54.4364C78.6485 58.1842 74.6113 62.2342 65.6769 62.2342C58.1413 62.2342 53.1901 60.109 53.1901 55.9567C53.1901 52.6644 55.8271 51.095 58.2494 51.095V50.9934C56.9572 50.2343 54.1049 49.5761 54.1049 46.7402C54.1049 44.2084 57.2273 42.2851 58.4647 41.9304C56.1505 40.1577 54.321 38.1327 54.321 34.9421C54.321 30.3342 58.088 25.7774 65.3542 25.7774C67.7225 25.7774 70.5215 26.6886 72.243 28.1066C73.5345 26.4861 75.6334 25.6758 78.8091 25.7774V30.0307Z" fill="black"/>
</svg>
