<svg width="132" height="88" viewBox="0 0 132 88" fill="none" xmlns="http://www.w3.org/2000/svg">
<path fill-rule="evenodd" clip-rule="evenodd" d="M47.5212 27.6841C51.9668 22.2386 58.5956 18.7834 66 18.7834C73.6673 18.7834 79.364 22.0575 83.3649 27.6841H47.5212ZM50.3822 63.2866C45.1122 58.6607 41.7645 51.738 41.7645 44.0019C41.7645 37.7789 43.9307 32.0823 47.5212 27.6841H37.1969C42.7579 17.0782 53.5714 9.88281 66 9.88281C78.4352 9.88281 89.2463 17.0865 94.802 27.6841H83.3649C84.3259 29.036 85.1894 30.5237 85.9588 32.1344L96.6552 31.8717C96.2757 30.8342 95.8495 29.8211 95.3785 28.8353C95.1934 28.4473 95.0011 28.0635 94.802 27.6841H113.693V63.2866H93.0529C96.6716 57.8006 98.7892 51.1586 98.7892 44.0019H63.0192V52.9025H88.683C87.2086 56.9686 84.7533 60.5342 81.6178 63.2866H50.3822ZM50.3822 63.2866C54.6004 66.989 60.0497 69.2204 66 69.2204C71.9503 69.2204 77.3996 66.989 81.6178 63.2866H93.0529C87.1437 72.2451 77.2312 78.121 66 78.121C54.7688 78.121 44.8564 72.2451 38.9471 63.2866H50.3822ZM38.9471 63.2866H18.3066V27.6841H37.1969C34.6553 32.5314 33.2108 38.091 33.2108 44.0019C33.2108 51.1586 35.3284 57.8006 38.9471 63.2866Z" fill="#010101"/>
</svg>
