<svg width="132" height="88" viewBox="0 0 132 88" fill="none" xmlns="http://www.w3.org/2000/svg">
<path d="M85.4764 18.9791C85.5869 17.6955 85.8979 16.5054 86.4093 15.4087C86.9206 14.3121 87.6325 13.3089 88.5474 12.4017C88.6947 12.2532 88.7857 12.058 88.8048 11.8497C88.85 11.3547 88.4854 10.9167 87.9904 10.8714L87.99 10.8751C86.7064 10.7646 85.5163 10.4537 84.4196 9.94227C83.323 9.43089 82.3198 8.71906 81.4126 7.80418C81.2641 7.65683 81.0689 7.56581 80.8606 7.54676C80.3656 7.50151 79.9276 7.86613 79.8823 8.36116L79.886 8.36149C79.7755 9.6451 79.4646 10.8352 78.9532 11.9319C78.4418 13.0286 77.73 14.0318 76.8151 14.9389C76.6677 15.0874 76.5767 15.2826 76.5577 15.4909C76.5124 15.986 76.877 16.424 77.3721 16.4692L77.3724 16.4655C78.656 16.576 79.8461 16.887 80.9428 17.3984C82.0395 17.9098 83.0427 18.6216 83.9498 19.5365C84.0983 19.6838 84.2935 19.7748 84.5018 19.7939C84.9969 19.8391 85.4348 19.4745 85.4801 18.9795L85.4764 18.9791Z" fill="#20202E"/>
<path fill-rule="evenodd" clip-rule="evenodd" d="M48.84 72.4259C40.7971 74.1122 34.6943 73.3563 32.6331 69.7862C30.2504 65.6592 33.8249 58.7352 41.2358 51.5383L40.9804 50.8365L40.8463 50.8853L36.6371 39.3205L36.917 39.2187C36.8298 37.6742 37.7527 36.1904 39.2812 35.634L77.1201 21.8618C78.6486 21.3054 80.3094 21.849 81.2354 23.0881L81.244 23.0849L81.2547 23.1142C81.4085 23.324 81.5414 23.5533 81.6493 23.8003L81.5147 23.8286L82.8118 27.3922L82.9558 27.3671L83.3933 28.569C91.3213 26.9457 97.3266 27.7212 99.3679 31.2568C101.731 35.3497 98.2347 42.1937 90.9479 49.3265L95.5075 61.8542C96.1876 63.7227 95.2242 65.7887 93.3557 66.4688L55.5168 80.241C53.6483 80.9211 51.5823 79.9577 50.9023 78.0892L48.84 72.4259ZM42.6359 55.3854L44.6861 61.0192C50.6157 59.8763 58.9916 56.5089 67.6921 51.4857C75.7823 46.8148 82.4922 41.6712 86.5732 37.3034L84.6904 32.1319C88.4832 31.5106 91.143 31.8911 92.0388 33.4428C94.3379 37.425 84.1474 47.6128 69.2777 56.1978C54.408 64.7829 40.4898 68.5142 38.1907 64.532C37.0884 62.6227 38.8571 59.287 42.6359 55.3854Z" fill="#20202E"/>
</svg>
