<svg width="132" height="88" viewBox="0 0 132 88" fill="none" xmlns="http://www.w3.org/2000/svg">
<mask id="mask0_2056_21384" style="mask-type:luminance" maskUnits="userSpaceOnUse" x="41" y="1" width="50" height="86">
<path d="M41.0117 1.45312H90.9881V86.548H41.0117V1.45312Z" fill="#C4C4C4"/>
</mask>
<g mask="url(#mask0_2056_21384)">
<path d="M118.889 48.9238C115.958 54.5226 113.344 59.175 110.334 59.175C108.433 59.175 107.165 57.1254 107.165 54.1288C107.165 46.3218 112.711 38.3572 118.176 38.3572C120.288 38.3572 121.958 39.4242 123.118 40.5691C121.572 43.6892 120.348 46.1298 118.889 48.9238ZM94.3334 15.7261C94.3334 11.3889 94.887 8.07771 96.1545 6.02657C97.1052 4.44961 98.5313 3.73986 100.116 3.73986C102.966 3.73986 106.215 6.57902 106.215 14.7009C106.215 22.9806 101.779 30.7081 95.9166 38.1999C95.376 38.8949 94.8491 39.5642 94.3323 40.2165V15.7261H94.3334ZM78.3301 65.247C78.3301 69.9787 77.8552 75.2612 75.9541 78.7317C74.6069 81.1764 72.7855 82.8325 70.013 82.8325C67.794 82.8325 66.4487 81.3334 66.4487 79.0462C66.4487 74.9463 70.7255 70.8463 77.1415 63.4337C77.5403 62.973 77.9363 62.5193 78.3301 62.0694V65.247ZM171.251 40.4076C169.19 37.4902 168.239 36.1495 167.764 35.6768C167.448 35.3606 167.289 35.2822 166.893 35.2822C166.417 35.2822 166.259 35.5979 165.942 36.0703C165.547 36.7012 162.616 42.6162 159.289 48.6873C157.388 51.8413 155.487 54.4442 153.347 56.2581C152.612 56.8774 151.817 57.4224 150.975 57.8858C152.712 56.3015 153.426 54.1593 153.426 51.9205C153.426 47.9776 151.051 44.1133 148.437 40.3287C146.377 37.411 145.425 36.1495 144.95 35.6768C144.635 35.3606 144.476 35.2822 144.079 35.2822C143.603 35.2822 143.445 35.5979 143.128 36.0703C142.574 36.9382 137.98 46.4007 132.91 54.9169C131.643 57.0465 130.454 58.8596 129.266 58.8596C128.552 58.8596 128.156 58.7017 127.841 58.229C127.365 57.5198 127.365 56.1786 127.365 54.7596V36.7012C127.365 36.1495 126.969 35.6768 126.493 35.5979C125.938 35.5187 125.385 35.7552 125.227 36.3068L124.085 38.6146C122.865 37.4786 120.855 36.1495 118.176 36.1495C114.215 36.1495 110.338 39.2353 107.815 43.6202L107.798 43.6405C106.373 46.0853 103.124 51.6051 100.748 54.6807C99.3219 56.4946 97.4998 58.7017 96.1537 58.7017C95.6787 58.7017 95.203 58.5442 94.8073 57.9925C94.4104 57.3611 94.3315 56.4148 94.3315 54.7596V43.7439C94.9981 42.9258 95.6578 42.103 96.3123 41.2755C102.966 32.8374 108.591 24.6367 108.591 14.3071C108.592 5.08112 103.997 1.45312 100.116 1.45312C98.0556 1.45312 95.7588 2.63628 94.2534 5.00145C92.827 7.28887 92.0344 10.5217 92.0344 15.7261V43.0705C87.7986 48.2605 84.2393 52.1972 80.548 56.2793V37.8056C80.548 37.2537 80.1522 36.8599 79.6773 36.7012C79.1237 36.6231 78.6477 36.8593 78.4098 37.332C78.4098 37.411 74.6077 46.0069 69.7759 51.684C65.7359 56.4946 62.0916 59.4115 56.7841 59.4115C48.9419 59.4115 43.6344 52.0778 43.4755 40.4076C43.3176 28.7375 47.5155 18.4072 54.2483 11.3889C58.3684 7.0518 63.3591 4.686 68.4276 4.686C74.8447 4.686 78.409 8.94478 78.409 16.6722C78.409 25.1886 73.1815 34.1781 68.8244 39.3824C68.4287 39.8557 68.5866 40.6447 69.0623 41.0385C69.5372 41.4334 70.3298 41.3539 70.7255 40.8804C75.3205 35.4403 80.8648 25.6619 80.8648 16.5142C80.8648 8.4714 76.6669 2.32094 68.3498 2.32094C62.6455 2.32094 57.0212 4.9231 52.4262 9.73291C45.2987 17.224 40.7828 28.185 41.0207 40.4076C41.3375 56.2581 49.7337 61.8565 56.7052 61.8565C63.518 61.8565 68.1119 57.5203 71.5981 53.1044C74.2909 49.7139 76.7466 45.6126 78.2509 42.6162C78.3081 45.6145 78.324 52.6281 78.3301 58.7408C77.3745 59.8012 76.4249 60.866 75.4794 61.9355C69.3791 68.8751 64.0727 73.843 64.0727 79.2044C64.0727 82.7535 66.5276 85.1974 70.013 85.1974C72.9445 85.1974 76.033 83.7782 78.2509 79.6001C79.8352 76.6034 80.548 72.1077 80.548 65.2489V59.56C84.3531 55.2876 88.0475 51.2701 92.0344 46.5236V54.7588C92.0344 57.0457 92.2723 58.7009 93.0651 59.7261C93.7777 60.5932 94.7283 61.067 95.9955 61.067C98.4516 61.067 100.116 59.4904 102.571 56.0205C103.419 54.802 104.241 53.565 105.035 52.3107C104.979 52.9138 104.947 53.5205 104.947 54.1274C104.947 58.4652 107.085 61.4608 110.334 61.4608C114.691 61.4608 117.621 56.3354 120.87 49.949C122.533 46.7153 123.959 43.7189 125.148 41.1963V54.7596C125.148 56.7297 125.148 58.3863 125.939 59.4904C126.732 60.6721 127.762 61.067 129.029 61.067C131.405 61.067 133.307 58.7807 134.891 56.0989C138.851 49.4755 142.733 41.6691 144.397 38.4362C144.95 39.2238 145.823 40.249 146.695 41.5901C149.151 45.1385 151.052 48.3708 151.052 51.6835C151.052 56.1778 147.486 58.938 142.891 58.938C139.961 58.938 138.06 57.519 137.743 57.203C137.267 56.7303 136.634 56.6513 136.158 57.1246C135.605 57.6765 135.683 58.1498 136.08 58.7009C136.317 59.0172 138.851 61.1459 143.842 61.1459C147.962 61.1459 151.605 60.1213 154.537 57.992C157.151 56.0205 159.132 53.2603 161.191 49.7909C163.488 45.4539 166.022 40.7222 167.132 38.5145C167.764 39.2238 168.557 40.3279 169.429 41.6685C171.885 45.2966 173.707 48.2132 173.707 51.5259C173.707 56.0205 170.3 58.938 165.706 58.938C162.775 58.938 160.874 57.519 160.557 57.203C160.082 56.7303 159.448 56.6513 158.973 57.1246C158.418 57.6765 158.497 58.1498 158.894 58.7009C159.132 59.0172 161.27 61.1459 165.785 61.1459C171.885 61.1459 176.083 57.1246 176.083 51.6835C176.083 47.7405 173.866 44.193 171.251 40.4076Z" fill="#0EF275"/>
</g>
</svg>
