<svg width="132" height="88" viewBox="0 0 132 88" fill="none" xmlns="http://www.w3.org/2000/svg">
<path fill-rule="evenodd" clip-rule="evenodd" d="M84.1684 22.6922C83.9838 21.1142 82.5538 19.9835 80.974 20.1677L45.938 24.2512C44.3581 24.4354 43.2276 25.8635 43.412 27.442L47.8322 65.3084C48.0156 66.8858 49.4447 68.0166 51.0245 67.8323L86.0604 63.7486C87.6413 63.5643 88.7719 62.1354 88.5884 60.5589L84.1684 22.6922ZM44.9363 15.6777L79.9721 11.5942C86.2916 10.8578 92.0108 15.3793 92.7478 21.692L97.1679 59.5584C97.9057 65.8721 93.3795 71.5858 87.0622 72.3223L52.0253 76.4057C45.7079 77.1422 39.9876 72.6215 39.2517 66.3083L34.8316 28.4422C34.0947 22.1287 38.619 16.4143 44.9363 15.6777Z" fill="url(#paint0_linear_2056_25832)"/>
<path d="M54.5293 65.0258L83.7946 61.6075C84.1771 61.5627 84.5258 61.3691 84.765 61.0685C85.0035 60.7682 85.1137 60.3854 85.0697 60.0046L81.0017 24.2493C80.8636 23.0316 79.3671 22.5245 78.5135 23.4034L61.868 40.5216C61.7319 40.6611 61.6257 40.8266 61.5556 41.0078L53.0039 63.0628C52.6093 64.0812 53.4425 65.1526 54.5293 65.0258Z" fill="url(#paint1_linear_2056_25832)"/>
<defs>
<linearGradient id="paint0_linear_2056_25832" x1="62.4552" y1="13.636" x2="69.532" y2="74.3658" gradientUnits="userSpaceOnUse">
<stop stop-color="#5EBB79"/>
<stop offset="1" stop-color="#00AB82"/>
</linearGradient>
<linearGradient id="paint1_linear_2056_25832" x1="83.1313" y1="41.4993" x2="49.9929" y2="44.9934" gradientUnits="userSpaceOnUse">
<stop stop-color="#5BBB7A"/>
<stop offset="1" stop-color="#06AC82"/>
</linearGradient>
</defs>
</svg>
