<svg width="132" height="88" viewBox="0 0 132 88" fill="none" xmlns="http://www.w3.org/2000/svg">
<path fill-rule="evenodd" clip-rule="evenodd" d="M47.0465 28.4912C36.183 38.0715 28.8851 44.7101 28.5707 45.2984C28.0956 46.1871 28.0508 47.1496 28.0508 56.4531C28.0508 66.7949 28.1019 67.3226 29.1051 67.3226C29.3083 67.3226 30.9838 65.9973 32.8288 64.3777C42.4639 55.9188 64.2685 37.0065 65.0737 36.4096L66.0011 35.7224L66.9284 36.4053C67.4383 36.7812 70.7449 39.6132 74.2759 42.6992C95.0222 60.8302 102.569 67.3226 102.897 67.3226C103.9 67.3226 103.951 66.7952 103.951 56.4577C103.95 47.3403 103.899 46.1759 103.451 45.2813C103.121 44.6194 96.9043 38.947 85.0179 28.4614C68.265 13.6831 67.0143 12.6407 66.0427 12.6485C65.0788 12.6559 63.6844 13.8189 47.0465 28.4912ZM61.9181 63.4579C56.7055 64.8956 52.5689 69.2207 52.1064 73.7164L51.9395 75.3388H65.9611C81.9211 75.3388 80.3317 75.6586 79.5399 72.6076C78.4094 68.2513 74.6626 64.7365 69.8121 63.4816C67.7197 62.9405 63.8368 62.9285 61.9181 63.4579Z" fill="#504BCB"/>
</svg>
