<svg width="132" height="88" viewBox="0 0 132 88" fill="none" xmlns="http://www.w3.org/2000/svg">
<path fill-rule="evenodd" clip-rule="evenodd" d="M59.7298 17.9963C52.9505 18.6048 45.0802 20.0108 39.6269 21.5879C37.1023 22.318 33.2531 23.6676 32.8979 23.9468C32.7562 24.0586 32.1987 24.2886 31.6593 24.458C31.12 24.6274 30.5132 24.8943 30.311 25.0512C30.1087 25.2081 29.523 25.5264 29.0094 25.7585C27.9374 26.2434 25.7613 27.8122 25.0401 28.6202L24.5498 29.1696L26.3885 28.9993C28.6775 28.7869 31.8302 29.1998 33.9175 29.9855L35.4828 30.5749L37.0293 29.9926C43.3813 27.6019 52.0795 25.8313 60.5112 25.2133C73.7788 24.2405 88.9367 26.5541 99.008 31.089C102.33 32.5847 103.165 33.2407 104.132 35.1142L104.961 36.7195L108.595 36.6567L112.229 36.5942L112.083 35.8588C111.824 34.5575 110.454 31.2552 109.749 30.2324C108.207 27.9941 106.669 26.7507 103.553 25.2214C97.199 22.1027 89.5054 19.9708 79.9553 18.6823C75.7374 18.1133 74.0586 18.0123 67.9426 17.9591C64.0324 17.925 60.3366 17.9417 59.7298 17.9963ZM24.3046 32.6222C18.9634 34.1427 15.6072 38.5148 15.6094 43.9489C15.6101 45.7871 16.1666 48.4677 16.833 49.8442C18.0666 52.3927 20.8825 54.5496 23.9072 55.2632C25.8479 55.7209 29.613 55.5956 31.2744 55.0178C32.2352 54.6839 32.3914 54.6824 32.6275 55.0053C32.8354 55.2897 33.3536 55.3544 34.9736 55.2983L37.0528 55.2262L37.1185 49.3731C37.1648 45.261 37.1011 43.4194 36.9047 43.1828C36.686 42.9193 35.6434 42.8457 32.1244 42.8457C26.9303 42.8457 27.2811 42.6442 27.4174 45.5501L27.4917 47.136L30.0045 47.2059L32.5174 47.2757V48.7101C32.5174 50.1252 32.5051 50.1505 31.598 50.5888C30.4483 51.1443 26.3585 51.3711 25.0825 50.9499C22.2781 50.0244 20.273 46.6116 20.5753 43.2784C20.9241 39.43 24.0139 36.4716 27.6846 36.4716C28.7893 36.4716 31.3262 37.0858 32.298 37.5881C33.0888 37.9973 33.1305 37.9583 34.2377 35.7717C35.0226 34.2214 35.0241 34.2115 34.5434 33.7305C33.866 33.0534 30.8202 32.2829 28.3497 32.1642C26.6991 32.0848 25.8582 32.1799 24.3046 32.6222ZM46.7299 32.4623C45.7534 33.1125 45.5107 33.5577 45.5107 34.6987C45.5107 37.1981 48.6308 38.1956 49.9209 36.1083C50.6902 34.8634 50.571 33.8585 49.5384 32.8845C48.5575 31.9595 47.6826 31.8279 46.7299 32.4623ZM39.2489 32.8556C39.1842 33.0242 39.1602 38.1265 39.1952 44.1941L39.2592 55.2262H41.343H43.4269L43.4906 43.8877L43.5544 32.5491H41.4605C40.0114 32.5491 39.3303 32.6435 39.2489 32.8556ZM62.3449 32.7127C62.255 32.8024 62.1812 34.4297 62.1812 36.3287L62.1809 39.7813H59.7909C57.6673 39.7813 57.2444 39.858 55.9976 40.4704C53.3428 41.7742 51.8848 44.2985 51.8848 47.5917C51.8848 48.6158 52.0591 49.8894 52.2935 50.5773C52.8664 52.2588 54.5281 53.8369 56.5433 54.6133C58.0159 55.1806 58.4437 55.2262 62.3028 55.2262H66.4717L66.5354 43.8877L66.5992 32.5491H64.5538C63.4288 32.5491 62.4347 32.6227 62.3449 32.7127ZM78.7705 32.7127C78.6805 32.8024 78.6067 34.4297 78.6065 36.3287L78.6057 39.7813L76.0936 39.794C73.9953 39.8048 73.3917 39.8989 72.4314 40.3657C67.8612 42.5871 66.6624 49.3162 70.1914 52.9386C70.6734 53.4334 71.7438 54.1453 72.5697 54.5206C74.0304 55.1843 74.1927 55.2031 78.4844 55.2147L82.8972 55.2262L82.961 43.8877L83.0247 32.5491H80.9793C79.8543 32.5491 78.8602 32.6227 78.7705 32.7127ZM89.6241 39.9933C87.6226 40.5329 86.1078 41.9303 85.0698 44.1941C83.7472 47.0789 84.3076 50.7852 86.4324 53.2051C88.146 55.1568 91.6574 56.0323 95.0749 55.36C96.7408 55.0323 98.4169 54.2875 98.6079 53.7903C98.7253 53.4841 97.6348 51.3032 97.2431 51.061C97.132 50.9926 96.4515 51.211 95.7305 51.5466C94.2458 52.238 92.5177 52.3468 91.2745 51.8273C90.3265 51.4311 89.1487 50.112 89.1487 49.4461C89.1487 48.996 89.3804 48.9747 94.2806 48.9747C100.217 48.9747 99.8253 49.1755 99.4662 46.3145C99.0526 43.02 97.55 40.932 94.9626 40.0558C93.5934 39.5923 91.2147 39.5643 89.6241 39.9933ZM107.998 39.9806C107.51 40.1637 106.779 40.5503 106.372 40.8396L105.634 41.3657L105.486 40.6249L105.337 39.884L103.311 39.9551L101.284 40.0264V47.6263V55.2262H103.368H105.452L105.574 50.9359C105.681 47.1855 105.765 46.4978 106.239 45.4716C106.678 44.5194 106.991 44.2046 107.893 43.8055C109.414 43.1326 110.704 43.4094 111.747 44.6327C111.772 44.6611 111.854 47.0563 111.931 49.9553L112.071 55.2262L114.232 55.2973L116.392 55.3684L116.316 49.2723L116.239 43.1762L115.57 42.1664C114.547 40.6214 113.075 39.8791 110.784 39.7526C109.541 39.6839 108.577 39.7629 107.998 39.9806ZM45.8137 47.565L45.8785 55.2262H47.9623H50.0461L50.1148 48.1166C50.1525 44.2064 50.1229 40.759 50.0488 40.4555C49.9223 39.9372 49.788 39.9039 47.8316 39.9039H45.749L45.8137 47.565ZM90.7305 43.4356C89.8896 43.8019 89.1487 44.7847 89.1487 45.5339C89.1487 46.009 89.2946 46.0328 92.2132 46.0328C95.5743 46.0328 95.6498 45.9923 94.9207 44.5827C94.2556 43.2966 92.287 42.7577 90.7305 43.4356ZM58.5004 43.8877C57.0187 44.6386 56.4509 45.6861 56.4509 47.669C56.4509 48.8384 56.5727 49.3917 56.9417 49.8965C57.6284 50.8362 59.1143 51.5079 60.7718 51.628L62.1814 51.7302V47.6864V43.6425L61.4153 43.4893C60.1579 43.2377 59.6438 43.3081 58.5004 43.8877ZM74.782 43.9463C73.7323 44.4694 73.4976 44.7232 73.1392 45.7236C72.6023 47.2216 72.6185 48.3525 73.1951 49.6224C73.5913 50.4951 73.8499 50.7101 75.0375 51.1546C75.7972 51.4388 76.9112 51.6714 77.5131 51.6714H78.607V47.6584V43.6454L77.6876 43.4934C76.2841 43.2613 76.0983 43.2905 74.782 43.9463ZM27.3078 57.9766C25.7233 58.0229 24.4272 58.1561 24.4272 58.272C24.4272 58.388 25.0683 59.0742 25.8518 59.7964C28.8405 62.552 35.1263 65.1727 44.0398 67.3794C45.3595 67.7062 50.1312 68.6304 51.6397 68.8515C55.0351 69.3492 63.9657 70.0582 66.8401 70.0582C71.1505 70.0582 80.9899 69.155 84.4907 68.438C94.4848 66.3909 101.566 63.9911 106.189 61.0845C107.169 60.4689 109.497 58.2904 109.497 57.9896C109.497 57.9531 106.436 57.9567 102.694 57.9982C96.3507 58.0685 95.7663 58.1127 94.0519 58.6508C89.7501 60.0014 86.6121 60.7724 82.4069 61.5118C79.0144 62.1082 73.9343 62.5049 68.1878 62.6221C62.7627 62.7329 61.1017 62.6753 57.0331 62.236C54.4038 61.9523 51.7009 61.6196 51.0268 61.4973C46.9111 60.7493 41.9314 59.4914 38.575 58.3517C37.0979 57.8501 34.5343 57.7648 27.3078 57.9766Z" fill="#D4202B"/>
<path fill-rule="evenodd" clip-rule="evenodd" d="M24.3046 32.7122C18.9634 34.2326 15.6072 38.6048 15.6094 44.0389C15.6101 45.8771 16.1666 48.5577 16.833 49.9342C18.0666 52.4826 20.8825 54.6395 23.9072 55.3532C25.8479 55.8109 29.613 55.6856 31.2744 55.1078C32.2352 54.7739 32.3914 54.7724 32.6275 55.0953C32.8354 55.3797 33.3536 55.4444 34.9736 55.3882L37.0528 55.3162L37.1185 49.463C37.1648 45.351 37.1011 43.5094 36.9047 43.2728C36.686 43.0093 35.6434 42.9357 32.1244 42.9357C26.9303 42.9357 27.2811 42.7342 27.4174 45.6401L27.4917 47.226L30.0045 47.2958L32.5174 47.3657V48.8001C32.5174 50.2152 32.5051 50.2404 31.598 50.6788C30.4483 51.2343 26.3585 51.4611 25.0825 51.0399C22.2781 50.1144 20.273 46.7016 20.5753 43.3684C20.9241 39.5199 24.0139 36.5616 27.6846 36.5616C28.7893 36.5616 31.3262 37.1757 32.298 37.6781C33.0888 38.0872 33.1305 38.0483 34.2377 35.8617C35.0226 34.3113 35.0241 34.3015 34.5434 33.8205C33.866 33.1434 30.8202 32.3729 28.3497 32.2542C26.6991 32.1748 25.8582 32.2699 24.3046 32.7122ZM46.7299 32.5523C45.7534 33.2025 45.5107 33.6477 45.5107 34.7887C45.5107 37.288 48.6308 38.2856 49.9209 36.1983C50.6902 34.9534 50.571 33.9485 49.5384 32.9745C48.5575 32.0495 47.6826 31.9179 46.7299 32.5523ZM39.2489 32.9456C39.1842 33.1142 39.1602 38.2164 39.1952 44.2841L39.2592 55.3162H41.343H43.4269L43.4906 43.9776L43.5544 32.6391H41.4605C40.0114 32.6391 39.3303 32.7335 39.2489 32.9456ZM62.3449 32.8026C62.255 32.8924 62.1812 34.5197 62.1812 36.4187L62.1809 39.8713H59.7909C57.6673 39.8713 57.2444 39.948 55.9976 40.5604C53.3428 41.8641 51.8848 44.3885 51.8848 47.6817C51.8848 48.7057 52.0591 49.9793 52.2935 50.6672C52.8664 52.3488 54.5281 53.9269 56.5433 54.7033C58.0159 55.2706 58.4437 55.3162 62.3028 55.3162H66.4717L66.5354 43.9776L66.5992 32.6391H64.5538C63.4288 32.6391 62.4347 32.7127 62.3449 32.8026ZM78.7705 32.8026C78.6805 32.8924 78.6067 34.5197 78.6065 36.4187L78.6057 39.8713L76.0936 39.884C73.9953 39.8948 73.3917 39.9889 72.4314 40.4557C67.8612 42.6771 66.6624 49.4062 70.1914 53.0286C70.6734 53.5233 71.7438 54.2353 72.5697 54.6106C74.0304 55.2742 74.1927 55.2931 78.4844 55.3046L82.8972 55.3162L82.961 43.9776L83.0247 32.6391H80.9793C79.8543 32.6391 78.8602 32.7127 78.7705 32.8026ZM89.6241 40.0833C87.6226 40.6229 86.1078 42.0203 85.0698 44.2841C83.7472 47.1689 84.3076 50.8751 86.4324 53.2951C88.146 55.2468 91.6574 56.1222 95.0749 55.45C96.7408 55.1222 98.4169 54.3775 98.6079 53.8803C98.7253 53.5741 97.6348 51.3932 97.2431 51.1509C97.132 51.0825 96.4515 51.301 95.7305 51.6366C94.2458 52.3279 92.5177 52.4368 91.2745 51.9173C90.3265 51.5211 89.1487 50.2019 89.1487 49.5361C89.1487 49.086 89.3804 49.0647 94.2806 49.0647C100.217 49.0647 99.8253 49.2654 99.4662 46.4045C99.0526 43.11 97.55 41.022 94.9626 40.1458C93.5934 39.6822 91.2147 39.6543 89.6241 40.0833ZM107.998 40.0706C107.51 40.2537 106.779 40.6403 106.372 40.9296L105.634 41.4557L105.486 40.7148L105.337 39.974L103.311 40.0451L101.284 40.1164V47.7163V55.3162H103.368H105.452L105.574 51.0259C105.681 47.2755 105.765 46.5878 106.239 45.5616C106.678 44.6094 106.991 44.2946 107.893 43.8955C109.414 43.2226 110.704 43.4993 111.747 44.7227C111.772 44.7511 111.854 47.1463 111.931 50.0453L112.071 55.3162L114.232 55.3873L116.392 55.4584L116.316 49.3623L116.239 43.2662L115.57 42.2564C114.547 40.7114 113.075 39.9691 110.784 39.8426C109.541 39.7739 108.577 39.8529 107.998 40.0706ZM45.8137 47.655L45.8785 55.3162H47.9623H50.0461L50.1148 48.2066C50.1525 44.2963 50.1229 40.8489 50.0488 40.5454C49.9223 40.0272 49.788 39.9938 47.8316 39.9938H45.749L45.8137 47.655ZM90.7305 43.5256C89.8896 43.8918 89.1487 44.8747 89.1487 45.6239C89.1487 46.099 89.2946 46.1228 92.2132 46.1228C95.5743 46.1228 95.6498 46.0823 94.9207 44.6727C94.2556 43.3866 92.287 42.8477 90.7305 43.5256ZM58.5004 43.9776C57.0187 44.7286 56.4509 45.7761 56.4509 47.7589C56.4509 48.9283 56.5727 49.4817 56.9417 49.9864C57.6284 50.9261 59.1143 51.5979 60.7718 51.718L62.1814 51.8202V47.7764V43.7325L61.4153 43.5793C60.1579 43.3277 59.6438 43.3981 58.5004 43.9776ZM74.782 44.0362C73.7323 44.5594 73.4976 44.8131 73.1392 45.8136C72.6023 47.3115 72.6185 48.4424 73.1951 49.7124C73.5913 50.5851 73.8499 50.8001 75.0375 51.2446C75.7972 51.5287 76.9112 51.7614 77.5131 51.7614H78.607V47.7484V43.7354L77.6876 43.5834C76.2841 43.3513 76.0983 43.3804 74.782 44.0362Z" fill="#050608"/>
</svg>
