<svg width="132" height="88" viewBox="0 0 132 88" fill="none" xmlns="http://www.w3.org/2000/svg">
<path d="M80.214 32.9942C79.7892 31.5147 79.1905 30.2073 78.4208 29.0721C77.6502 27.9168 76.7078 26.9439 75.5932 26.1535C74.4987 25.3428 73.2414 24.7246 71.823 24.2989C70.4238 23.8732 68.8733 23.6604 67.1711 23.6604C63.9888 23.6604 61.1909 24.4507 58.7792 26.0317C56.3872 27.613 54.5222 29.9133 53.1848 32.9334C51.8464 35.9334 51.1776 39.6021 51.1776 43.9397C51.1776 48.2773 51.8365 51.9664 53.1538 55.0065C54.4721 58.0472 56.3363 60.3679 58.7492 61.9693C61.1609 63.5502 64.0086 64.3406 67.2921 64.3406C70.2717 64.3406 72.8154 63.8137 74.9244 62.7596C77.0524 61.6855 78.6738 60.1754 79.7892 58.2295C80.9235 56.2836 81.4914 53.9833 81.4914 51.3279L84.1672 51.723H68.1138V41.8115H94.1703V49.6556C94.1703 55.1284 93.015 59.8309 90.7039 63.7631C88.3931 67.675 85.2105 70.6947 81.1565 72.8235C77.1035 74.9317 72.4618 75.9852 67.231 75.9852C61.3939 75.9852 56.2654 74.6987 51.8464 72.1239C47.4274 69.5293 43.9822 65.8509 41.5093 61.0873C39.0565 56.304 37.8301 50.6285 37.8301 44.0613C37.8301 39.0142 38.5597 34.5144 40.019 30.5621C41.4993 26.5891 43.5664 23.2245 46.2221 20.4679C48.877 17.7113 51.9685 15.6134 55.4957 14.1743C59.022 12.7352 62.8431 12.0156 66.9582 12.0156C70.4845 12.0156 73.7691 12.5325 76.8087 13.5663C79.8491 14.5797 82.5458 16.0188 84.8967 17.8837C87.2686 19.7484 89.2038 21.9678 90.7039 24.542C92.2043 27.096 93.1668 29.9133 93.5925 32.9942H80.214Z" fill="#00A3FF"/>
</svg>
