<svg width="132" height="88" viewBox="0 0 132 88" fill="none" xmlns="http://www.w3.org/2000/svg">
<path fill-rule="evenodd" clip-rule="evenodd" d="M97.9852 43.8666V43.9901C97.9852 50.2645 96.141 56.4002 92.6818 61.6343C89.2223 66.8687 84.3017 70.9697 78.5314 73.4274C72.7614 75.8854 66.3954 76.5921 60.2263 75.4597C54.0572 74.3272 48.3579 71.4045 43.8359 67.0565C39.3141 62.7085 36.1696 57.1265 34.7942 51.005C33.4189 44.8832 33.8727 38.4923 36.0996 32.6268C38.3266 26.7613 42.2287 21.6802 47.3192 18.0156C52.4108 14.351 58.4669 12.2647 64.733 12.0162C64.898 12.011 65.0608 12.0389 65.2148 12.0981C65.3677 12.1573 65.5077 12.2466 65.6257 12.3609C65.7436 12.475 65.8385 12.6118 65.9026 12.763C65.9664 12.9142 66.0005 13.0767 66.0005 13.2412C66.0005 15.8956 66.0005 22.0896 66.0005 24.69C66.0005 25.0032 65.8806 25.3049 65.6655 25.5321C65.4497 25.7595 65.1549 25.895 64.8419 25.911C61.3167 26.1379 57.9342 27.391 55.1127 29.5162C52.2898 31.6417 50.1509 34.5463 48.9576 37.8724C47.7641 41.1988 47.5703 44.8016 48.3977 48.2369C49.2255 51.6724 51.0397 54.7907 53.6164 57.2079C56.1932 59.6252 59.4206 61.2359 62.901 61.8414C66.3814 62.4469 69.9627 62.021 73.2041 60.6163C76.4455 59.2116 79.2052 56.8892 81.1442 53.9352C83.0824 50.9811 84.1158 47.5241 84.1147 43.9901V43.8666H67.2248C66.9 43.8655 66.5893 43.7362 66.3602 43.5066C66.1314 43.2772 66.0013 42.9662 66.0005 42.6417V33.6811C66.0005 33.3561 66.1295 33.0439 66.3594 32.8138C66.5882 32.5836 66.9 32.4538 67.2248 32.4527H97.9852V43.8666ZM77.507 13.3995C77.2161 13.3995 76.9383 13.5146 76.7324 13.7195C76.5264 13.9245 76.4106 14.2026 76.4095 14.4931V23.2449C76.4106 23.5353 76.5264 23.8133 76.7324 24.0182C76.9383 24.223 77.2161 24.3383 77.507 24.3383H86.4786C86.7685 24.3383 87.0473 24.223 87.2525 24.0179C87.4574 23.813 87.5723 23.5347 87.5723 23.2449V14.4776C87.5682 14.1902 87.4513 13.916 87.2464 13.7143C87.0424 13.5125 86.7666 13.3995 86.4786 13.3995H77.507Z" fill="url(#paint0_linear_2056_25551)"/>
<defs>
<linearGradient id="paint0_linear_2056_25551" x1="43.6061" y1="66.3888" x2="92.0012" y2="18.0122" gradientUnits="userSpaceOnUse">
<stop stop-color="#04A5E5"/>
<stop offset="0.71" stop-color="#01EAF2"/>
</linearGradient>
</defs>
</svg>
