<svg width="132" height="88" viewBox="0 0 132 88" fill="none" xmlns="http://www.w3.org/2000/svg">
<path d="M65.785 12.4132C65.5508 12.4132 65.2401 12.4132 64.8101 12.4132C64.2653 12.4537 63.7205 12.4919 63.2905 12.5301C62.5904 12.5706 61.9262 12.6853 61.2644 12.764C56.3926 13.5037 51.6378 15.4508 47.5472 18.3692C42.4796 22.0273 38.6208 27.0097 36.4393 32.8082C34.2173 38.5686 33.7896 44.8753 35.1539 50.9459C36.5564 57.0187 39.6362 62.507 44.078 66.7879C48.5603 71.0688 54.1705 73.949 60.2895 75.1159C66.4086 76.2063 72.6829 75.5453 78.4125 73.1306C84.142 70.6011 88.9733 66.5159 92.3637 61.3783C95.5988 56.4724 97.625 49.3495 97.625 42.8517V33.3928H67.3046V43.0833L85.9723 43.1238V43.9804C85.9723 47.8723 84.8422 51.6474 82.7372 54.9165C80.5557 58.1856 77.5547 60.715 74.0089 62.2732C70.5014 63.829 66.5639 64.2585 62.6286 63.5952C58.8105 62.9342 55.2624 61.1827 52.3785 58.4981C49.5734 55.89 47.5855 52.4635 46.6107 48.6098C45.7147 44.7966 45.9105 40.8664 47.2343 37.206C48.5986 33.5097 50.9377 30.317 54.0152 28.0214C54.2876 27.7876 58.9253 24.0508 66.1744 23.9744V12.375C66.1744 12.375 66.1744 12.375 66.1362 12.375C66.0574 12.4132 65.9403 12.4132 65.785 12.4132Z" fill="#111111"/>
<path d="M87.9603 12.8427H77.0483V23.4663H87.9603V12.8427Z" fill="#111111"/>
</svg>
