<svg width="132" height="88" viewBox="0 0 132 88" fill="none" xmlns="http://www.w3.org/2000/svg">
<path fill-rule="evenodd" clip-rule="evenodd" d="M59.7224 11.848C47.3609 12.0979 42.5578 13.3288 38.8866 17.1868C36.0712 20.1456 34.8331 23.6316 34.2386 30.2736C34.1553 31.2037 34.044 36.2519 33.9913 41.492C33.8676 53.7706 34.1383 59.6478 34.9954 63.2908C36.6344 70.258 40.7319 74.1125 47.9128 75.4423C51.5431 76.1146 52.9808 76.1727 66.0366 76.1742C79.3271 76.1758 80.8052 76.1117 84.5467 75.3728C90.0548 74.285 93.5491 71.8333 95.6838 67.5589C96.7562 65.4118 97.2316 63.6316 97.7271 59.9086C98.0133 57.7581 98.0379 56.5081 98.0379 44.1247C98.0379 31.6637 98.0147 30.5047 97.7226 28.3408C97.3264 25.4058 97.1559 24.5535 96.6432 22.9453C95.8797 20.5501 94.941 18.9604 93.2329 17.1689C90.1357 13.921 86.0988 12.5402 78.3607 12.0823C75.4811 11.9121 63.8103 11.7652 59.7224 11.848ZM63.9803 19.0139C58.9171 19.6671 55.0293 21.4918 51.8493 24.7072C49.3079 27.2767 47.8569 30.0294 46.9198 34.0585C46.4601 36.035 46.4145 40.34 46.838 41.7893C47.701 44.7424 49.2544 46.9349 51.8493 48.8625C57.6447 53.1674 67.3969 54.2377 75.3882 51.4457C76.9776 50.8905 78.9682 49.8868 79.9665 49.1372C80.4088 48.8053 80.8675 48.4756 80.9856 48.4047C81.1635 48.2981 81.189 49.0079 81.1343 52.5219C81.0616 57.1872 81.0411 57.2996 79.9416 59.0575C78.8311 60.8327 76.9254 62.2518 74.1831 63.3456C71.3988 64.456 67.5351 64.9246 63.8481 64.599C62.6395 64.4924 61.3613 64.3308 61.0078 64.24C58.2132 63.5228 56.676 62.9098 55.1183 61.8916C53.7982 61.0288 52.3283 59.4621 51.8276 58.3843C51.236 57.111 51.2794 57.0095 52.4162 57.0095H53.3847L53.3401 54.7949L53.2954 52.5804H49.9212H46.5471L46.4985 53.9494C46.3221 58.9174 48.3304 62.7994 52.5222 65.5927C53.1294 65.9975 54.1303 66.5557 54.7463 66.8332C55.3622 67.1107 56.0108 67.404 56.1876 67.485C57.0751 67.8915 59.2957 68.4944 61.2488 68.8592C62.4092 69.076 63.5844 69.143 66.1494 69.1389C69.499 69.1335 71.0971 68.9469 73.5404 68.276C79.7388 66.5739 83.9327 62.9565 85.2951 58.1369C85.5692 57.1675 85.591 56.2973 85.591 46.3796C85.591 36.5449 85.5665 35.5513 85.2911 34.229C84.4657 30.2663 82.9499 27.3777 80.2944 24.7062C77.1012 21.4937 73.4056 19.7195 68.5915 19.0873C66.5463 18.8187 65.6086 18.8038 63.9803 19.0139ZM62.7855 23.759C58.1192 24.7766 54.5432 27.4032 52.649 31.2042C52.3082 31.8882 51.9751 32.5928 51.9091 32.77C51.2025 34.6636 50.8294 38.0677 51.1249 39.928C51.7624 43.9429 55.4194 46.8228 61.4898 48.0905C63.5296 48.5165 68.5815 48.5196 70.6483 48.0963C72.3845 47.7405 74.589 47.0272 75.7476 46.4462C77.9943 45.3196 79.8635 43.4143 80.7146 41.3833C81.0473 40.5893 81.0832 40.259 81.0726 38.085C81.0642 36.3528 80.9831 35.3727 80.7861 34.6222C79.2576 28.8007 75.5463 25.2013 69.6518 23.8236C68.0646 23.4527 64.3503 23.4177 62.7855 23.759Z" fill="#00A5F8"/>
</svg>
