<svg width="132" height="88" viewBox="0 0 132 88" fill="none" xmlns="http://www.w3.org/2000/svg">
<mask id="mask0_2056_22320" style="mask-type:luminance" maskUnits="userSpaceOnUse" x="32" y="10" width="68" height="68">
<path d="M32.7246 10.7266H99.2746V77.2766H32.7246V10.7266Z" fill="white"/>
</mask>
<g mask="url(#mask0_2056_22320)">
<g filter="url(#filter0_dd_2056_22320)">
<path d="M78.8273 11.5233L44.8773 16.3249C38.5345 17.222 34.1198 23.0911 35.0169 29.434L39.9686 64.4458C40.8657 70.7887 46.7348 75.2034 53.0777 74.3063L87.0277 69.5047C93.3705 68.6077 97.7852 62.7385 96.8881 56.3957L91.9364 21.3838C91.0393 15.041 85.1702 10.6263 78.8273 11.5233Z" fill="#1F1F1F"/>
<path d="M79.0773 13.289L45.1274 18.0905C39.7607 18.8495 36.0255 23.8154 36.7845 29.1821L41.7362 64.1939C42.4952 69.5606 47.4611 73.2959 52.8278 72.5369L86.7777 67.7353C92.1444 66.9763 95.8797 62.0104 95.1207 56.6437L90.169 21.6319C89.4099 16.2652 84.4441 12.5299 79.0773 13.289Z" stroke="#D9D9D9" stroke-width="1.47528"/>
</g>
<path d="M79.0754 13.2929L45.1255 18.0944C39.7588 18.8534 36.0235 23.8193 36.7825 29.186L41.4359 62.0882C42.1949 67.4549 47.1608 71.1902 52.5275 70.4312L86.4774 65.6296C91.8441 64.8706 95.5794 59.9047 94.8204 54.538L90.167 21.6358C89.408 16.2691 84.4421 12.5338 79.0754 13.2929Z" fill="#1F1F1F" stroke="white" stroke-width="1.47528"/>
<path d="M45.6615 35.0261C45.2316 35.5982 45.7077 36.4045 46.4162 36.3043L48.4774 36.0128C48.9168 35.9506 49.3233 36.2564 49.3854 36.6957L50.0441 41.3532C50.1063 41.7926 50.5128 42.0984 50.9521 42.0362L59.014 40.896C59.4533 40.8339 59.759 40.4274 59.697 39.988L59.0382 35.3305C58.9761 34.8912 59.2819 34.4847 59.7212 34.4226L61.7886 34.1302C62.4972 34.0299 62.731 33.1229 62.159 32.6927L53.3825 26.091C53.0278 25.8243 52.524 25.8957 52.2573 26.2504L45.6615 35.0261Z" fill="#FF624D"/>
<path d="M57.6885 61.5345C61.5843 60.9835 64.2887 57.3881 63.7263 53.5075C63.1639 49.6269 59.5951 46.9186 55.6992 47.4696C51.8301 48.0168 49.1256 51.6123 49.6614 55.4967C50.1972 59.3811 53.8193 62.0817 57.6885 61.5345Z" fill="#FF624D"/>
<path d="M78.1752 58.5926C78.3879 58.7525 78.6901 58.7098 78.8501 58.4971L84.4381 51.0681C85.8446 49.1982 85.4489 46.4963 83.5979 45.1278C81.7014 43.7251 79.0994 44.1066 77.6577 45.968L77.1631 46.6054C77.0033 46.8113 76.7089 46.853 76.4983 46.6995L75.8463 46.2242C73.945 44.8357 71.3392 45.1906 69.9061 47.0643C68.5072 48.8924 68.8763 51.598 70.7462 53.0046L78.1752 58.5926Z" fill="#FF624D"/>
<path d="M68.6705 35.7354C68.8448 36.9681 69.9855 37.826 71.2182 37.6518L79.9151 36.4217C81.1478 36.2473 82.0057 35.1067 81.8314 33.874L80.6014 25.1771C80.427 23.9444 79.2864 23.0864 78.0537 23.2608L69.3568 24.4908C68.1241 24.6651 67.2661 25.8058 67.4405 27.0385L68.6705 35.7354Z" fill="#FF624D"/>
</g>
<defs>
<filter id="filter0_dd_2056_22320" x="34.0584" y="11.0863" width="63.7876" height="64.6997" filterUnits="userSpaceOnUse" color-interpolation-filters="sRGB">
<feFlood flood-opacity="0" result="BackgroundImageFix"/>
<feColorMatrix in="SourceAlpha" type="matrix" values="0 0 0 0 0 0 0 0 0 0 0 0 0 0 0 0 0 0 127 0" result="hardAlpha"/>
<feOffset dy="0.522077"/>
<feGaussianBlur stdDeviation="0.421019"/>
<feColorMatrix type="matrix" values="0 0 0 0 0 0 0 0 0 0 0 0 0 0 0 0 0 0 0.2 0"/>
<feBlend mode="normal" in2="BackgroundImageFix" result="effect1_dropShadow_2056_22320"/>
<feColorMatrix in="SourceAlpha" type="matrix" values="0 0 0 0 0 0 0 0 0 0 0 0 0 0 0 0 0 0 127 0" result="hardAlpha"/>
<feOffset dy="0.261039"/>
<feGaussianBlur stdDeviation="0.140339"/>
<feColorMatrix type="matrix" values="0 0 0 0 0 0 0 0 0 0 0 0 0 0 0 0 0 0 0.1 0"/>
<feBlend mode="normal" in2="effect1_dropShadow_2056_22320" result="effect2_dropShadow_2056_22320"/>
<feBlend mode="normal" in="SourceGraphic" in2="effect2_dropShadow_2056_22320" result="shape"/>
</filter>
</defs>
</svg>
