<svg width="132" height="88" viewBox="0 0 132 88" fill="none" xmlns="http://www.w3.org/2000/svg">
<path fill-rule="evenodd" clip-rule="evenodd" d="M73.4051 5.05147C75.7787 6.40779 76.6034 9.43147 75.247 11.805L60.7369 37.1971C60.2655 38.0222 60.8612 39.0485 61.8114 39.0485H80.8493C82.6138 39.0485 84.2447 39.988 85.1305 41.5139C86.0162 43.0401 86.0225 44.9221 85.147 46.4543L65.347 81.1037C63.9907 83.4771 60.9669 84.3017 58.5933 82.9454C56.2197 81.5891 55.3951 78.5653 56.7514 76.192L71.2615 50.7998C71.7329 49.9748 71.1372 48.9485 70.187 48.9485H51.1492C49.3847 48.9485 47.7536 48.009 46.8679 46.483C45.9822 44.9568 45.976 43.0748 46.8514 41.5426L66.6514 6.89334C68.0078 4.51978 71.0315 3.69515 73.4051 5.05147Z" fill="black"/>
</svg>
