<svg width="132" height="88" viewBox="0 0 132 88" fill="none" xmlns="http://www.w3.org/2000/svg">
<path fill-rule="evenodd" clip-rule="evenodd" d="M72.2483 11.1345C73.2095 11.6848 73.9132 12.5949 74.2039 13.6645C74.4959 14.7342 74.3504 15.8759 73.8021 16.8387L61.5574 38.2949C61.467 38.4542 61.4197 38.6343 61.4208 38.8174C61.4208 39.0006 61.47 39.1804 61.5613 39.3388C61.6537 39.4972 61.7854 39.6287 61.9446 39.72C62.1028 39.8113 62.2826 39.8591 62.4655 39.8591H78.5299C79.2611 39.8591 79.9805 40.0516 80.6133 40.4174C81.2472 40.7829 81.7738 41.3087 82.1415 41.9423C82.5089 42.5756 82.7025 43.2944 82.7055 44.0268C82.7074 44.7591 82.5188 45.4793 82.1552 46.1151L65.4479 75.3891C64.8849 76.3239 63.9777 77.0009 62.9223 77.2762C61.8668 77.5512 60.7456 77.4019 59.7994 76.8593C58.852 76.3178 58.1543 75.4265 57.8554 74.3771C57.5556 73.3266 57.6786 72.2013 58.1964 71.2402L70.4383 49.7869C70.5285 49.6282 70.5758 49.4481 70.5758 49.2652C70.5747 49.0821 70.5266 48.9028 70.4342 48.7444C70.3429 48.586 70.2111 48.4545 70.053 48.363C69.8946 48.2714 69.7159 48.2233 69.533 48.223H53.4686C52.7374 48.2227 52.018 48.0302 51.3852 47.6645C50.7513 47.299 50.2247 46.7732 49.857 46.1396C49.4896 45.5063 49.296 44.7874 49.293 44.0551C49.2911 43.3228 49.4797 42.6025 49.8433 41.9667L66.5506 12.693C67.0998 11.7308 68.0078 11.0262 69.0762 10.7339C70.1435 10.4418 71.2834 10.5857 72.2453 11.1345H72.2483Z" fill="black"/>
</svg>
