<svg width="132" height="88" viewBox="0 0 132 88" fill="none" xmlns="http://www.w3.org/2000/svg">
<path d="M29.706 51.9898L29.0934 52.0968V74.4778L29.9191 74.6382C31.2508 74.9056 36.1517 74.8254 37.59 74.5046C40.5732 73.8628 42.2778 71.991 42.5708 68.9962C42.8638 66.3222 41.8783 64.1296 39.9606 63.1402L39.1615 62.7124L39.9073 62.2311C41.7451 61.108 42.411 59.7978 42.411 57.3912C42.411 54.4499 40.9194 52.7653 37.6699 52.0968C36.3382 51.8294 30.9578 51.7492 29.706 51.9898ZM37.9629 53.4338C38.5223 53.5942 39.4279 54.1023 39.9606 54.5836C40.8395 55.4125 40.9194 55.6264 40.9994 57.1773C41.1325 59.4234 40.5732 60.5465 38.9484 61.3487C37.9097 61.9102 37.3769 61.9637 34.1008 61.9637H30.4251V53.1664L31.97 53.0594C33.8877 52.9257 36.6578 53.1129 37.9629 53.4338ZM37.6167 63.5948C38.4424 63.782 39.348 64.2098 39.8807 64.6911C41.5321 66.1351 41.7451 69.531 40.2802 71.6167C39.2148 73.0874 36.1517 73.8628 32.5027 73.5687L30.4251 73.3815V63.3007H33.355C34.9531 63.3007 36.8709 63.4344 37.6167 63.5948Z" fill="black"/>
<path d="M66.5158 54.2893C66.4359 54.4497 66.4093 58.9954 66.4359 64.3701L66.5158 74.13L68.1139 74.4776C68.9929 74.6648 70.7508 74.7718 72.0293 74.7183C73.8938 74.6648 74.4798 74.5311 75.2256 74.0231C77.3564 72.5524 77.9424 70.6539 77.7825 65.6536C77.676 61.6961 77.3031 60.5463 75.705 59.2094C74.6396 58.3002 73.5742 58.113 70.3513 58.2735L67.7144 58.4072V56.161C67.7144 54.1021 67.6611 53.9417 67.1817 53.9417C66.8887 53.9417 66.5691 54.1021 66.5158 54.2893ZM74.5597 59.9848C76.1578 61.1881 76.3709 61.9635 76.3709 66.3756C76.3709 70.9748 76.0779 71.9374 74.4265 72.9802C73.6008 73.4883 73.0947 73.5685 71.3901 73.5418C70.2448 73.515 68.9396 73.4348 68.5135 73.3278L67.7144 73.1407L67.7677 66.429L67.8476 59.6907L68.7798 59.5035C69.2859 59.4233 70.6443 59.3431 71.763 59.3698C73.3611 59.4233 73.9737 59.557 74.5597 59.9848Z" fill="black"/>
<path d="M45.4742 58.5664C44.4887 59.3151 45.2611 59.5558 48.2176 59.3686C52.6391 59.128 53.7312 59.8499 53.9176 63.1924L53.9975 64.77L50.8013 64.9037C47.1789 65.0642 45.9004 65.5187 44.8882 67.0429C44.0892 68.2194 44.0359 71.2677 44.7817 72.6582C46.0602 75.0647 49.2564 75.4391 53.3583 73.6208C53.6779 73.4871 53.8377 73.5941 53.9442 73.9952C54.0508 74.423 54.2639 74.5567 54.7167 74.4765L55.3293 74.3963V67.9788C55.3293 62.0961 55.276 61.4811 54.7966 60.4917C54.5036 59.9034 53.8643 59.1547 53.3583 58.8338C52.5326 58.2723 52.133 58.2188 49.2031 58.2188C46.9125 58.2188 45.8205 58.3258 45.4742 58.5664ZM54.0774 68.8879C54.1307 70.6527 54.0508 71.7758 53.8377 72.0164C53.3583 72.6047 50.6681 73.4871 49.1765 73.5406C46.7261 73.6208 45.6074 72.4175 45.6074 69.6366C45.6074 68.4601 45.7406 67.9788 46.22 67.444C47.0457 66.4813 48.9634 66 51.7335 66.0535L53.9975 66.107L54.0774 68.8879Z" fill="black"/>
<path d="M58.1247 66.3751V74.5306H59.4564V60.5993L60.6817 60.0378C61.3742 59.7437 62.4662 59.4228 63.1587 59.3158C64.0111 59.2089 64.4106 59.0217 64.4639 58.6741C64.5438 58.2997 64.3573 58.2195 63.1854 58.2195C62.3597 58.2195 61.3742 58.4334 60.7349 58.7543C60.1223 59.0484 59.5896 59.2891 59.563 59.2891C59.5363 59.2891 59.4564 59.0484 59.3765 58.7543C59.2966 58.4334 59.0036 58.2195 58.684 58.2195C58.1247 58.2195 58.1247 58.273 58.1247 66.3751Z" fill="black"/>
<path d="M83.4561 58.7813C81.1122 59.9846 80.0734 62.7922 80.2865 67.4449C80.4197 70.5734 80.979 72.0976 82.444 73.3811C83.829 74.5844 85.1874 74.9052 88.357 74.6913C91.6065 74.5041 92.2191 74.3437 92.2191 73.702C92.2191 73.1137 91.9261 73.0869 89.0229 73.4613C84.9477 73.9961 82.4972 72.7393 81.858 69.7712C81.6982 68.9958 81.565 68.0064 81.565 67.5786V66.7764L86.972 66.7229L92.3523 66.6427L92.299 64.557C92.2458 62.0168 91.5532 60.4124 90.0084 59.1824C89.0762 58.4337 88.7565 58.3535 86.8122 58.2732C84.9743 58.193 84.4416 58.3 83.4561 58.7813ZM88.3037 59.6637C89.9285 60.3589 90.6743 61.5355 91.0205 64.0222L91.207 65.4394H81.5117L81.6715 64.1559C81.7781 63.4607 82.1243 62.3644 82.444 61.6959C83.4295 59.6637 86.1196 58.7278 88.3037 59.6637Z" fill="black"/>
<path d="M95.8681 58.4067C95.7616 58.4869 95.6817 62.177 95.6817 66.5622V74.5306H97.0134V60.6795L98.2386 60.0645C98.9312 59.7436 100.076 59.4228 100.769 59.3426C101.834 59.2356 102.074 59.1286 102.074 58.7275C102.074 58.2997 101.861 58.2195 100.742 58.2195C99.9167 58.2195 98.9844 58.4334 98.3452 58.7543C97.7592 59.0484 97.2531 59.2891 97.1999 59.2891C97.12 59.2891 97.0134 59.0484 96.9335 58.7543C96.8003 58.2462 96.2144 58.0323 95.8681 58.4067Z" fill="black"/>
<path d="M34.984 13.8565C32.4296 14.7329 29.6564 17.5446 28.7441 20.1737C28.1603 21.89 28.0508 23.2411 28.0508 29.1201V36.0581L29.255 38.5412C30.7146 41.4624 32.831 43.2517 35.8597 44.1646C37.4653 44.6028 38.7425 44.6758 42.0996 44.4932C44.3985 44.3837 46.8068 44.1281 47.3907 43.982L48.4854 43.6899L48.7043 39.8557C48.8138 37.7743 48.9233 36.3502 48.9598 36.7154C49.2152 39.1254 52.3534 42.4118 55.0902 43.1787C57.462 43.836 61.3665 43.4708 63.3005 42.4118C65.4169 41.2433 67.132 38.9063 67.6793 36.4233L68.1172 34.4149L68.8835 35.1087C69.3214 35.5104 70.3796 36.1676 71.2919 36.5693C73.3718 37.5187 77.9331 37.6283 79.9766 36.7519C81.5457 36.0946 83.5162 34.3419 84.3554 32.7717C84.9758 31.6762 84.9758 31.6762 85.1947 35.1817C85.3407 38.103 85.5596 38.9794 86.3989 40.4035C88.4424 43.909 92.0184 45.0775 98.3313 44.3472C100.375 44.0916 102.455 43.6899 103.002 43.4343L103.951 42.9961V13.4183L98.6597 13.1992V21.1597L95.9959 20.9771C91.3251 20.685 87.8585 22.2186 86.2529 25.2494L85.5596 26.564L85.5231 24.6652C85.4866 19.8086 83.8811 16.7047 80.451 14.952C77.0939 13.2723 72.2771 13.6739 69.3214 15.9379C67.8983 16.9969 66.5846 19.5164 66.2927 21.6344L66.0738 23.0585L64.9426 22.2186C62.5707 20.4293 61.3665 20.0277 58.3378 20.0277C53.4481 20.0277 50.4559 22.0726 49.1057 26.3814L48.4854 28.3898H43.0118L42.7929 39.5271H40.2021C37.0274 39.5271 35.6043 38.7603 34.5826 36.5328C33.9987 35.2182 33.8892 34.1228 33.8892 28.7549C33.8892 23.2776 33.9622 22.3647 34.6191 21.1231C36.0057 18.3479 36.626 18.1654 43.0483 18.2749L48.7043 18.3845L48.5949 16.3031C48.4854 14.2947 48.4124 14.1851 47.3907 13.893C46.8068 13.7104 44.1795 13.4913 41.5522 13.4183C37.6842 13.2723 36.4801 13.3453 34.984 13.8565ZM78.1886 19.2974C79.5387 20.2468 80.0496 21.9995 80.0496 25.7241C80.0496 29.8504 79.4292 31.3476 77.3493 32.37C76.0356 32.9908 75.7802 33.0273 74.4301 32.5526C72.4596 31.8588 71.6568 30.3981 71.4014 27.0022C71 21.6344 72.5326 18.7131 75.8167 18.7131C76.656 18.7131 77.7142 18.9687 78.1886 19.2974ZM60.7827 25.5416C62.1693 26.8196 62.5342 28.0246 62.5342 31.6762C62.5342 36.9345 61.4395 38.7968 58.3378 38.7968C55.1996 38.7968 53.9954 36.8614 53.9954 31.8588C53.9954 27.6595 54.6158 25.9067 56.4038 25.1034C57.8634 24.4461 59.7974 24.6287 60.7827 25.5416ZM97.3095 25.505L98.6597 25.7606V39.8557L96.6892 40.0748C94.4998 40.367 92.5293 39.8923 91.617 38.8698C89.829 36.898 89.8655 28.6089 91.6535 26.6005C92.7847 25.359 94.4268 25.0303 97.3095 25.505Z" fill="black"/>
<path d="M75.3054 27.1107C73.8823 28.5349 74.904 31.1275 76.8745 31.1275C77.9327 31.1275 79.3193 29.7034 79.3193 28.6444C79.3193 27.5854 78.0787 26.3804 76.9475 26.3804C76.4366 26.3804 75.7068 26.7091 75.3054 27.1107Z" fill="black"/>
<path d="M57.9721 33.1375C57.4612 33.6122 57.0598 34.3425 57.0598 34.7807C57.0598 35.8396 58.337 36.9716 59.5412 36.9716C61.6211 36.9716 62.5699 34.452 61.0738 32.9549C60.0885 31.969 59.0303 32.042 57.9721 33.1375Z" fill="black"/>
<path d="M57.4982 47.5974C53.4112 47.926 49.9446 48.3277 49.8352 48.4373C49.3243 48.9485 50.7109 49.3502 57.5346 50.6647C65.4166 52.1619 66.2194 52.1254 66.9127 50.2996C67.3506 49.1676 66.8762 47.7435 65.8545 47.2322C65.4531 47.0131 65.0882 46.8671 65.0152 46.8671C64.9422 46.9036 61.5486 47.2322 57.4982 47.5974Z" fill="black"/>
<path d="M69.8322 47.4512C68.6645 48.2546 68.9199 50.8107 70.2336 51.541C71.1093 52.0157 71.8756 51.9427 79.3197 50.2629C83.808 49.277 87.53 48.2911 87.603 48.072C87.7125 47.7433 85.8515 47.5608 81.2537 47.4147C77.6776 47.3052 73.8096 47.1226 72.6784 47.0495C71.2553 46.94 70.3795 47.0861 69.8322 47.4512Z" fill="black"/>
</svg>
