<svg width="132" height="88" viewBox="0 0 132 88" fill="none" xmlns="http://www.w3.org/2000/svg">
<mask id="mask0_2056_25298" style="mask-type:luminance" maskUnits="userSpaceOnUse" x="34" y="19" width="64" height="50">
<path d="M34.0156 19.0898H97.9852V68.907H34.0156V19.0898Z" fill="white"/>
</mask>
<g mask="url(#mask0_2056_25298)">
<path fill-rule="evenodd" clip-rule="evenodd" d="M63.561 40.6227C69.4 39.0571 72.8653 33.0519 71.3011 27.2095C69.7358 21.3673 63.7337 17.9003 57.8946 19.4657C52.0544 21.0311 48.5889 27.0363 50.1533 32.8787C51.7184 38.721 57.7205 42.188 63.561 40.6227ZM63.5549 28.8763C64.3994 28.65 64.7173 27.0971 64.2644 25.4077C63.8129 23.7184 62.7613 22.5323 61.9167 22.7587C61.0719 22.985 60.7551 24.5379 61.207 26.2272C61.6596 27.9166 62.7112 29.1026 63.5549 28.8763ZM57.6947 30.4471C58.5392 30.2211 58.8571 28.6679 58.4042 26.9785C57.9515 25.2892 56.901 24.1031 56.0565 24.3297C55.2117 24.5558 54.8949 26.109 55.3467 27.7983C55.7996 29.4876 56.851 30.6737 57.6947 30.4471ZM62.6304 36.6374C60.5681 37.1901 58.3503 36.5494 56.5691 34.8691C56.2512 34.5691 56.2834 34.0656 56.6101 33.7754L57.7945 32.7249C58.0126 32.5316 58.3442 32.5539 58.5551 32.7546C59.7206 33.8599 60.946 34.0837 61.8788 33.8335C62.8121 33.5832 63.7617 32.7766 64.2177 31.2366C64.3004 30.9572 64.5763 30.7719 64.8623 30.8305L66.4124 31.1478C66.8412 31.2355 67.1211 31.6555 66.9952 32.0743C66.2925 34.4203 64.6923 36.0846 62.6304 36.6374ZM82.1251 28.9627C81.5363 27.8154 79.8971 27.8154 79.3083 28.9627L63.6248 59.5372C63.0841 60.5907 63.8486 61.8433 65.033 61.8433H96.4012C97.5848 61.8433 98.3493 60.5907 97.8086 59.5372L82.1251 28.9627ZM77.4562 48.3848C78.3298 48.3848 79.0385 46.9669 79.0385 45.2179C79.0385 43.4692 78.3298 42.0513 77.4562 42.0513C76.5817 42.0513 75.873 43.4692 75.873 45.2179C75.873 46.9669 76.5817 48.3848 77.4562 48.3848ZM83.5224 48.3848C84.3969 48.3848 85.1056 46.9669 85.1056 45.2179C85.1056 43.4692 84.3969 42.0513 83.5224 42.0513C82.6487 42.0513 81.94 43.4692 81.94 45.2179C81.94 46.9669 82.6487 48.3848 83.5224 48.3848ZM80.6217 55.6418C78.4869 55.6418 76.5107 54.4486 75.2243 52.3643C74.9944 51.9925 75.1563 51.5143 75.5471 51.3188L76.9636 50.6107C77.2235 50.4803 77.5381 50.5878 77.6902 50.8362C78.5298 52.2057 79.6553 52.7392 80.6217 52.7392C81.5872 52.7392 82.7128 52.2057 83.5524 50.8362C83.7044 50.5878 84.019 50.4803 84.28 50.6107L85.6954 51.3188C86.0862 51.5143 86.2482 51.9925 86.0183 52.3643C84.7318 54.4486 82.7568 55.6418 80.6217 55.6418ZM39.3953 41.7034C39.6212 40.8589 40.4898 40.3576 41.3334 40.5839L61.207 45.9115C62.0515 46.1378 62.5523 47.006 62.3265 47.8505L57.0008 67.7333C56.7751 68.5778 55.9074 69.0786 55.0629 68.8528L35.1893 63.5249C34.3447 63.2989 33.8439 62.4304 34.0698 61.5859L39.3953 41.7034ZM44.2579 53.1157C44.9616 53.3043 45.8372 52.3159 46.2151 50.9082C46.5918 49.5002 46.327 48.2063 45.6233 48.0177C44.9198 47.829 44.0442 48.8174 43.6673 50.2251C43.2895 51.6329 43.5543 52.927 44.2579 53.1157ZM48.3339 54.2085C49.0377 54.3971 49.9144 53.4085 50.2911 52.0008C50.6679 50.5931 50.403 49.2989 49.7004 49.1103C48.9967 48.9219 48.1203 49.9102 47.7432 51.318C47.3665 52.7257 47.6313 54.0198 48.3339 54.2085ZM54.3683 53.0937C53.9904 54.5016 53.1148 55.49 52.4111 55.3013C51.7074 55.1127 51.4425 53.8186 51.8204 52.4108C52.1971 51.0028 53.0727 50.0147 53.7765 50.2031C54.4802 50.3918 54.745 51.6859 54.3683 53.0937ZM42.2849 56.7949C42.9726 58.994 44.5139 60.561 46.4909 61.0909C48.4681 61.6208 50.5859 61.0351 52.2813 59.4745C52.5841 59.1959 52.5491 58.7245 52.2343 58.4512L51.0947 57.4612C50.8848 57.2789 50.568 57.2976 50.3662 57.484C49.2588 58.5106 48.0873 58.7124 47.1927 58.4726C46.2981 58.2326 45.3846 57.4722 44.9377 56.0287C44.8568 55.7669 44.5917 55.5917 44.3189 55.6445L42.8367 55.9319C42.4279 56.0111 42.162 56.4024 42.2849 56.7949Z" fill="#00050C"/>
</g>
</svg>
