<svg width="132" height="88" viewBox="0 0 132 88" fill="none" xmlns="http://www.w3.org/2000/svg">
<path d="M97.7138 12.6484H77.945L69.97 24.0248L65.2225 35.2977L77.945 36.7386L91.1602 35.3496L100.97 18.3037C102.41 15.7892 100.604 12.6484 97.7138 12.6484Z" fill="#0060D9"/>
<path d="M31.0424 18.3131L39.2568 32.4537C40.2654 34.1865 42.109 35.2553 44.1075 35.2553L65.218 35.2977L77.9451 12.6484H34.2841C31.3849 12.6484 29.5835 15.8033 31.0424 18.3131Z" fill="#4285F4"/>
<path d="M69.4121 73.4577C67.9812 75.9535 64.4018 75.9863 62.9334 73.5096L54.7521 59.7223C53.7198 57.98 53.6918 55.8187 54.6862 54.0529L65.2227 35.2931L91.1558 35.3447L69.4121 73.4577Z" fill="#4285F4"/>
</svg>
