<svg width="132" height="88" viewBox="0 0 132 88" fill="none" xmlns="http://www.w3.org/2000/svg">
<g clip-path="url(#clip0_2056_24569)">
<path d="M65.7031 17.4461L64.2293 15.6758L27.0527 72.3258H52.7223L64.2603 54.7421L65.7031 51.6175V17.4461Z" fill="#FBBC04"/>
<path d="M64.2305 15.6758H87.2445V72.3258H64.2305V15.6758Z" fill="#1A73E8"/>
<path d="M39.4461 36.9195C45.3124 36.9195 50.068 32.164 50.068 26.2977C50.068 20.4314 45.3124 15.6758 39.4461 15.6758C33.5798 15.6758 28.8242 20.4314 28.8242 26.2977C28.8242 32.164 33.5798 36.9195 39.4461 36.9195Z" fill="#EA4335"/>
<path d="M89.0137 56.3938L87.2434 72.3266C78.4449 72.3266 71.3105 65.1922 71.3105 56.3938C71.3105 47.5953 78.4449 40.4609 87.2434 40.4609L89.0137 56.3938Z" fill="#0D652D"/>
<path d="M74.8516 28.068C74.8516 21.2257 80.4015 15.6758 87.2437 15.6758L89.4566 28.068L87.2437 40.4602C80.4015 40.4602 74.8516 34.9102 74.8516 28.068Z" fill="#174EA6"/>
<path d="M87.2441 15.6758C94.0864 15.6758 99.6363 21.2257 99.6363 28.068C99.6363 34.9102 94.0864 40.4602 87.2441 40.4602" fill="#1A73E8"/>
<path d="M87.2441 40.4609C96.0426 40.4609 103.177 47.5953 103.177 56.3938C103.177 65.1922 96.0426 72.3266 87.2441 72.3266" fill="#34A853"/>
</g>
<defs>
<clipPath id="clip0_2056_24569">
<rect width="84.975" height="84.975" fill="white" transform="translate(23.5117 1.51172)"/>
</clipPath>
</defs>
</svg>
