<svg width="132" height="88" viewBox="0 0 132 88" fill="none" xmlns="http://www.w3.org/2000/svg">
<mask id="mask0_2056_25218" style="mask-type:luminance" maskUnits="userSpaceOnUse" x="34" y="12" width="64" height="64">
<path d="M34.0156 12.0156H97.9852V75.9852H34.0156V12.0156Z" fill="white"/>
</mask>
<g mask="url(#mask0_2056_25218)">
<mask id="mask1_2056_25218" style="mask-type:luminance" maskUnits="userSpaceOnUse" x="34" y="12" width="64" height="64">
<path d="M34.0156 12.0156H97.9852V75.9852H34.0156V12.0156Z" fill="white"/>
</mask>
<g mask="url(#mask1_2056_25218)">
<path d="M34.0156 48.6914C34.0156 58.2452 34.0156 63.0222 35.8747 66.6707C37.51 69.8813 40.1197 72.491 43.3302 74.1262C46.9785 75.9852 51.7552 75.9852 61.3098 75.9852H70.6912C80.2447 75.9852 85.0225 75.9852 88.6707 74.1262C91.8813 72.491 94.491 69.8813 96.1262 66.6707C97.9852 63.0222 97.9852 58.2452 97.9852 48.6914V39.3093C97.9852 29.7555 97.9852 24.9787 96.1262 21.3298C94.491 18.12 91.8813 15.5104 88.6707 13.875C85.0225 12.0156 80.2447 12.0156 70.6912 12.0156H61.3098C51.7552 12.0156 46.9785 12.0156 43.3302 13.875C40.1197 15.5104 37.51 18.12 35.8747 21.3298C34.0156 24.9787 34.0156 29.7555 34.0156 39.3093V48.6914Z" fill="#160034"/>
<path fill-rule="evenodd" clip-rule="evenodd" d="M66.0004 25.3424C55.6961 25.3424 47.3422 33.6958 47.3422 44.0004C47.3422 54.3049 55.6961 62.6583 66.0004 62.6583C75.294 62.6583 83.0003 55.8633 84.4226 46.9704C84.4485 46.8103 84.3247 46.6657 84.1617 46.6657H80.6604C79.9236 46.6657 79.3272 46.0689 79.3272 45.333V42.6677C79.3272 41.9318 79.9236 41.3348 80.6604 41.3348H87.3233C88.7957 41.3348 89.9889 42.5283 89.9889 44.0004C89.9889 57.249 79.2491 67.9889 66.0004 67.9889C52.7517 67.9889 42.0117 57.249 42.0117 44.0004C42.0117 30.752 52.7517 20.0117 66.0004 20.0117C74.5584 20.0117 82.0667 24.4943 86.3097 31.2291C86.7027 31.8517 86.4675 32.6654 85.824 33.0226L83.4931 34.316C82.8494 34.6729 82.0417 34.4375 81.6399 33.8212C78.3075 28.712 72.5462 25.3424 66.0004 25.3424Z" fill="url(#paint0_radial_2056_25218)"/>
<path d="M64.9663 53.191C65.2363 54.2674 66.7664 54.2674 67.0354 53.191L67.3093 52.0968C68.145 48.7544 70.7537 46.1447 74.096 45.3092L75.1905 45.0353C76.2671 44.7661 76.2671 43.236 75.1905 42.9668L74.096 42.6932C70.7537 41.8577 68.145 39.248 67.3093 35.9053L67.0354 34.8114C66.7664 33.7348 65.2363 33.7348 64.9663 34.8114L64.6935 35.9053C63.858 39.248 61.2483 41.8577 57.9057 42.6932L56.8112 42.9668C55.7348 43.236 55.7348 44.7661 56.8112 45.0353L57.9057 45.3092C61.2483 46.1447 63.858 48.7544 64.6935 52.0968L64.9663 53.191Z" fill="white"/>
</g>
</g>
<defs>
<radialGradient id="paint0_radial_2056_25218" cx="0" cy="0" r="1" gradientUnits="userSpaceOnUse" gradientTransform="translate(66.0004 44.0004) rotate(-9.46232) scale(24.3196 24.3196)">
<stop stop-color="#FFE108"/>
<stop offset="0.206166" stop-color="#FF713F"/>
<stop offset="0.312456" stop-color="#FF524E"/>
<stop offset="0.444108" stop-color="#FF61D7"/>
<stop offset="0.560542" stop-color="#DB6EF9"/>
<stop offset="0.663911" stop-color="#A67AFE"/>
<stop offset="0.808167" stop-color="#454CFE"/>
<stop offset="0.903128" stop-color="#0A2EFF"/>
<stop offset="0.974673" stop-color="#0B159B" stop-opacity="0"/>
<stop offset="1" stop-color="#D9D9D9" stop-opacity="0"/>
</radialGradient>
</defs>
</svg>
