<svg width="132" height="88" viewBox="0 0 132 88" fill="none" xmlns="http://www.w3.org/2000/svg">
<path d="M46.2275 49.3209L46.4818 49.0857C45.1512 31.6102 68.7282 28.5358 68.7282 28.5358L69.0751 28.215C69.0751 28.215 49.4565 21.4268 41.0241 30.579C32.9504 40.6414 46.2275 49.3209 46.2275 49.3209Z" fill="url(#paint0_linear_2056_23252)"/>
<path d="M93.1789 36.0944L92.8796 35.9209C79.3625 7.97198 57.729 6.7911 57.729 6.7911L57.3203 6.5535C57.3203 6.5535 73.9785 1.0008 85.9417 9.63993C97.0067 17.9108 93.1789 36.0944 93.1789 36.0944Z" fill="url(#paint1_linear_2056_23252)"/>
<path d="M65.6748 46.4294C64.6959 47.3941 63.6481 49.1357 62.7024 49.6157C61.8062 50.0849 60.8107 50.3325 59.799 50.338C58.5968 50.338 57.5038 50.098 56.5201 49.6157C55.5365 49.1333 54.7191 47.3941 53.9065 46.4294L54.2249 46.332C54.9092 47.0163 55.641 47.8123 56.589 48.1449C57.5371 48.4776 58.6063 48.6439 59.799 48.6439C61.8043 48.6439 63.7122 47.6792 65.3564 46.332L65.6748 46.4294ZM70.4126 46.4294C71.3915 47.3941 72.4393 49.1357 73.3849 49.6157C74.333 50.098 75.3 50.338 76.2884 50.338C77.4907 50.338 78.5836 50.098 79.5673 49.6157C80.551 49.1333 81.3683 47.3941 82.1809 46.4294L81.8625 46.332C81.1782 47.0163 80.4464 47.8123 79.4984 48.1449C78.384 48.5346 77.2982 48.6439 76.2884 48.6439C74.2831 48.6439 72.3751 47.6792 70.7309 46.332L70.4126 46.4294ZM83.0458 57.896C85.1248 59.7374 85.0463 60.4811 85.0725 61.308C85.1248 64.1615 80.4417 62.0279 79.2061 61.2034C75.7871 58.8844 72.052 55.2325 68.1055 58.5114C64.2112 55.6578 60.2124 58.7514 56.9502 60.8042C55.6885 61.5764 50.927 63.5509 51.0839 60.6973C51.1361 59.8705 51.0839 59.1244 53.2151 57.3638C45.4812 57.4992 45.5074 75.7065 68.0009 65.2284C90.1215 76.4763 90.782 58.2952 83.0458 57.896Z" fill="#636565"/>
<path d="M77.093 72.6507C73.7429 74.8437 69.6419 73.7032 70.1076 69.8898C69.7868 69.9301 68.8911 69.9492 67.9858 69.9492C67.0806 69.9492 66.1824 69.9278 65.8641 69.8898C66.3297 73.7032 62.2288 74.8413 58.8786 72.6507C56.1082 70.8378 55.8088 63.111 55.5142 61.6878C55.2196 60.2646 53.5968 71.3771 55.9609 74.157C55.9348 73.5726 55.892 73.9337 55.8825 73.5084C56.505 75.7704 58.0589 77.5333 60.2139 78.9304C60.2805 78.6786 60.0286 78.4885 60.1189 78.258C61.1453 79.8072 62.1575 80.4226 63.93 81.3349C63.747 80.9096 63.93 81.3349 63.8088 80.9096C64.657 82.3424 66.9214 83.231 67.6389 83.2072C67.7563 83.2015 67.8732 83.1863 67.9882 83.1621C68.1308 83.1882 68.2496 83.2025 68.3351 83.2072C69.0526 83.231 71.3193 82.3424 72.1652 80.9096C72.044 81.3349 72.227 80.912 72.044 81.3349C73.8189 80.4226 74.8287 79.8072 75.8551 78.258C75.9454 78.4909 75.6936 78.6786 75.7601 78.9304C77.9127 77.5333 79.469 75.7727 80.0915 73.5084C80.082 73.9313 80.0416 73.5726 80.0131 74.157C82.3773 71.3771 81.0586 64.0377 80.7141 62.3531C80.3648 60.6685 79.8634 70.8354 77.093 72.6507Z" fill="#636565"/>
<path d="M92.336 45.3081L91.9986 45.1347C77.17 16.2234 52.4453 15.4964 52.4453 15.4964L51.9844 15.2588C51.9844 15.2588 71.173 9.05979 84.6616 17.813C97.1308 26.205 92.336 45.3081 92.336 45.3081Z" fill="#9A4723"/>
<path d="M38.0251 32.743L38.4219 32.7882C53.7566 18.2852 73.2444 36.787 73.2444 36.787L73.7886 36.8512C73.7886 36.8512 66.2756 14.3291 51.8083 13.8516C36.7444 14.3814 38.0251 32.743 38.0251 32.743Z" fill="#9A4723"/>
<path d="M39.5279 27.0041C39.5113 27.1823 39.8606 26.8806 40.0269 26.8212C62.4301 18.8497 90.3053 39.6113 88.5732 48.823C88.5637 48.9965 88.452 49.398 88.5685 49.3077C90.8447 47.5495 105.319 31.4283 74.935 15.6088C37.1353 -1.90704 39.7655 24.4571 39.5279 27.0041Z" fill="url(#paint2_linear_2056_23252)"/>
<defs>
<linearGradient id="paint0_linear_2056_23252" x1="38.42" y1="37.5573" x2="69.0751" y2="37.5573" gradientUnits="userSpaceOnUse">
<stop stop-color="#FBAD18"/>
<stop offset="1" stop-color="#F36D24"/>
</linearGradient>
<linearGradient id="paint1_linear_2056_23252" x1="92.9437" y1="25.4213" x2="63.555" y2="3.46708" gradientUnits="userSpaceOnUse">
<stop stop-color="#F47A22"/>
<stop offset="1" stop-color="#FBAD18"/>
</linearGradient>
<linearGradient id="paint2_linear_2056_23252" x1="39.5279" y1="29.48" x2="94.0024" y2="29.48" gradientUnits="userSpaceOnUse">
<stop stop-color="#FBAD18"/>
<stop offset="1" stop-color="#F47624"/>
</linearGradient>
</defs>
</svg>
