<svg width="132" height="88" viewBox="0 0 132 88" fill="none" xmlns="http://www.w3.org/2000/svg">
<path d="M81.3005 32.5086C80.2124 28.9708 78.2762 26.2648 75.496 24.3901C74.2753 23.5451 72.941 22.8874 71.493 22.4175C69.6789 21.8277 67.6879 21.5331 65.518 21.5331C59.6504 21.5331 55.0245 23.5282 51.6381 27.5196C48.2518 31.4805 46.5597 36.8173 46.5597 43.5299C46.5597 50.2121 48.2665 55.5036 51.6844 59.404C55.1002 63.2744 59.682 65.209 65.4254 65.209C69.4179 65.209 72.9705 64.2419 76.0853 62.3068C79.0423 60.4579 81.1721 58.0744 82.4707 55.1553H65.518V42.2246H100V79.9392H87.0693V71.9459C86.1138 72.6825 85.0994 73.3697 84.0218 74.0079C78.5793 77.2432 72.3496 78.8611 65.3349 78.8611C58.7433 78.8611 52.924 77.4095 47.8751 74.5072C42.824 71.6044 38.9094 67.492 36.1271 62.1705C33.3764 56.849 32 50.6956 32 43.7115C32 41.8415 32.1031 40.0247 32.3094 38.2616C32.684 35.0641 33.3975 32.043 34.4498 29.1975C36.0829 24.7531 38.3496 20.9885 41.2519 17.9042C44.1857 14.7899 47.7236 12.3712 51.8654 10.6475C56.0389 8.92434 60.589 8.0625 65.518 8.0625C72.7747 8.0625 79.0318 9.89193 84.2933 13.5503C89.4643 17.1486 92.8969 21.9714 94.589 28.0184L81.3005 32.5086Z" fill="url(#paint0_linear_2247_5806)"/>
<path fill-rule="evenodd" clip-rule="evenodd" d="M75.496 24.3901C78.2762 26.2648 80.2124 28.9708 81.3005 32.5086L94.589 28.0184C92.8969 21.9714 89.4643 17.1486 84.2933 13.5503C79.0317 9.89193 72.7747 8.0625 65.518 8.0625C60.589 8.0625 56.0389 8.92434 51.8654 10.6475C47.7235 12.3712 44.1857 14.7899 41.2519 17.9042C38.3496 20.9885 36.0829 24.7531 34.4498 29.1975C33.3974 32.043 32.684 35.0641 32.3094 38.2616C32.2274 38.9624 32.1617 39.6716 32.1123 40.3893H46.6917C47.1496 35.1316 48.798 30.8417 51.6381 27.5196C55.0244 23.5282 59.6504 21.5331 65.518 21.5331C67.6879 21.5331 69.6788 21.8277 71.493 22.4175C72.941 22.8874 74.2753 23.5451 75.496 24.3901Z" fill="url(#paint1_linear_2247_5806)"/>
<defs>
<linearGradient id="paint0_linear_2247_5806" x1="100" y1="44.3797" x2="31.0361" y2="44.3797" gradientUnits="userSpaceOnUse">
<stop stop-color="#F102B9"/>
<stop offset="0.699767" stop-color="#0085FC"/>
</linearGradient>
<linearGradient id="paint1_linear_2247_5806" x1="99.9999" y1="44.3797" x2="31.0369" y2="44.3797" gradientUnits="userSpaceOnUse">
<stop stop-color="#55FF53"/>
<stop offset="0.875" stop-color="#0085FC"/>
</linearGradient>
</defs>
</svg>
