<svg width="132" height="88" viewBox="0 0 132 88" fill="none" xmlns="http://www.w3.org/2000/svg">
<path fill-rule="evenodd" clip-rule="evenodd" d="M62.0505 8.82313L36.8728 23.4071C34.4758 24.7956 33 27.3559 33 30.126V58.6787C33 61.516 34.5476 64.1274 37.0364 65.4898L62.2137 79.2717C64.5326 80.5411 67.338 80.5434 69.659 79.2779L94.9523 65.4872C97.4474 64.1268 99 61.5119 99 58.67V30.1349C99 27.36 97.5192 24.796 95.1156 23.4093L69.8227 8.81646C67.4172 7.42859 64.4536 7.43114 62.0505 8.82313ZM65.8383 21.4555C66.8657 21.4555 67.6986 22.2884 67.6986 23.3158V30.4388C67.6986 31.4662 66.8657 32.2991 65.8383 32.2991C64.8109 32.2991 63.978 31.4662 63.978 30.4388V23.3158C63.978 22.2884 64.8109 21.4555 65.8383 21.4555ZM48.132 26.4197C48.7764 25.6194 49.9474 25.493 50.7477 26.1374L56.5939 30.8447C57.3942 31.4891 57.5205 32.6602 56.8762 33.4604C56.2318 34.2606 55.0608 34.387 54.2605 33.7427L48.4143 29.0353C47.614 28.391 47.4877 27.2199 48.132 26.4197ZM83.4658 26.328C84.1608 27.0847 84.1107 28.2615 83.354 28.9565L78.2286 33.6638C77.4719 34.3588 76.2951 34.3088 75.6001 33.5521C74.9051 32.7954 74.9552 31.6186 75.7119 30.9236L80.8373 26.2162C81.594 25.5213 82.7708 25.5713 83.4658 26.328ZM68.103 56.4775H68.5094L68.463 60.5216H57.0625C50.8311 60.5216 45.7794 55.47 45.7794 49.2386C45.7794 43.0071 50.8311 37.6319 57.0625 37.6319H63.0883V41.1099H60.0956C59.6936 41.1099 59.3677 41.4358 59.3677 41.8378C59.3677 42.2399 59.6936 42.5658 60.0956 42.5658H68.4265C69.4092 42.5658 70.2059 43.3624 70.2059 44.3452V45.0731C70.2059 45.5198 69.8438 45.8819 69.3971 45.8819H68.103C67.7009 45.8819 67.375 46.2079 67.375 46.6099C67.375 47.0119 67.7009 47.3378 68.103 47.3378H69.3971C69.8438 47.3378 70.2059 47.6999 70.2059 48.1466V49.7643C70.2059 50.211 69.8438 50.5731 69.3971 50.5731H68.103C67.7009 50.5731 67.375 50.899 67.375 51.3011C67.375 51.7031 67.7009 52.029 68.103 52.029H69.3971C69.8438 52.029 70.2059 52.3911 70.2059 52.8378V53.7275C70.2059 54.4423 69.6265 55.0216 68.9118 55.0216H68.103C67.7009 55.0216 67.375 55.3476 67.375 55.7496C67.375 56.1516 67.7009 56.4775 68.103 56.4775ZM75.7868 60.5216H69.8691L69.9672 56.4775C70.9031 56.4775 71.6618 55.7188 71.6618 54.7829V44.3452C71.6618 42.5584 70.2133 41.1099 68.4265 41.1099H64.5441V37.6319H75.7868C81.5046 37.6319 86.1397 43.359 86.1397 49.0768C86.1397 54.7946 81.5046 60.5216 75.7868 60.5216Z" fill="#0713C6"/>
</svg>
