<svg width="132" height="88" viewBox="0 0 132 88" fill="none" xmlns="http://www.w3.org/2000/svg">
<path d="M41.463 12.4404C45.7509 10.2624 49.9991 9.66117 51.5872 9.63281L59.4994 16.8644L52.8634 37.9636H34.0612L33.5508 21.6287C34.4016 19.4734 37.1751 14.6184 41.463 12.4404Z" fill="#E6F4FE"/>
<path fill-rule="evenodd" clip-rule="evenodd" d="M51.4169 9.52775L51.5889 11.7044C51.5491 11.6646 52.4353 11.5058 51.5889 11.7044C51.7867 11.9021 52.0412 17.0105 51.9689 19.3307C51.8794 22.2099 51.616 23.2701 50.6328 24.711C49.6274 26.1847 47.5947 27.6229 45.8015 28.1296C44.0625 28.621 43.6208 28.6892 42.1743 28.6892C38.7865 28.6892 35.846 27.2331 34.5654 24.9212C34.1019 24.0843 34.0611 23.875 34.0645 22.3557C34.0671 21.2798 34.1414 20.6283 34.2772 20.4925C34.5898 20.18 34.5294 19.9339 34.2061 20.2023C33.6805 20.6384 32.5988 23.3003 31.9674 25.7115C31.2622 28.4039 31.0832 31.0716 31.082 38.9076C31.0812 45.1545 31.1663 47.0459 31.6063 50.5542C32.2646 55.8034 33.659 60.6307 35.5631 64.2516C37.1642 67.2964 40.1324 70.9756 42.2282 72.5133C42.6025 72.788 42.9471 73.0607 42.9939 73.1196C43.3599 73.5795 46.6417 75.3869 48.609 76.212C49.3948 76.5414 51.7193 77.2707 52.7353 77.5064C55.3458 78.1119 55.5602 78.1448 58.9885 78.4628C63.796 78.9088 66.9955 78.7429 72.2606 77.7747C72.5881 77.7145 73.0475 77.6039 73.2815 77.5292C73.5155 77.4543 74.0514 77.2988 74.4726 77.1834C75.3388 76.9462 76.0991 76.7027 76.5995 76.5023C76.7867 76.4272 77.3992 76.1907 77.9608 75.9765C79.3145 75.4604 82.5138 73.8225 83.7654 73.0046C88.6941 69.7844 92.892 65.4999 95.7011 60.823C98.1211 56.7941 99.6444 52.6952 100.53 47.8317C100.837 46.1412 100.904 45.1165 100.917 41.8763C100.931 38.0467 100.857 37.1902 100.238 34.0491C99.9358 32.5147 99.3654 30.5431 99.1663 30.344C99.0727 30.2504 98.7503 30.4184 98.3548 30.7665C97.9939 31.0842 96.4353 32.3731 94.8912 33.6307C93.347 34.8883 91.9339 36.0534 91.751 36.2194C91.2944 36.6341 91.0698 36.5116 91.0235 35.8226C90.9553 34.8068 90.6288 32.3746 90.4598 31.6244C89.8471 28.903 89.4515 27.5912 88.5485 25.2861C86.7899 20.7969 84.2418 16.9053 80.7212 13.3317C78.786 11.3676 76.5347 9.46173 76.1496 9.46173C76.0695 9.46173 76.0041 10.3613 76.0041 11.4611C76.0047 14.57 75.3957 20.5814 74.7977 23.3719C74.2284 26.0285 74.0889 26.546 73.2497 29.1146C71.6288 34.076 68.8699 38.3108 65.6626 40.7605C64.7554 41.4534 62.7249 42.5002 61.711 42.7975C61.2898 42.921 60.7232 43.0896 60.452 43.1723C60.1806 43.2548 59.3383 43.3214 58.5803 43.32C56.3257 43.3161 54.786 42.6161 53.5823 41.0479C53.1539 40.4897 53.2175 40.2598 53.8004 40.2598C54.7378 40.2598 57.3305 39.4173 58.6482 38.6847C60.8161 37.4789 62.4453 35.797 63.715 33.4536C64.827 31.4013 65.7947 27.6758 65.7947 25.4478C65.7947 24.4391 66.016 24.2822 66.8682 24.6865C67.6471 25.0563 68.1568 25.6213 68.4302 26.4185C68.7552 27.3661 69.0759 27.3258 69.5891 26.2724C70.6073 24.1822 70.8993 22.9644 70.8993 20.8078C70.8993 15.484 67.4511 10.7995 62.5959 9.52775C61.4493 9.22743 54.2877 9.22283 51.4169 9.52775Z" fill="#6470F3"/>
<path d="M40.7832 20.3854C40.7822 18.9874 41.3403 18.162 42.6005 17.6977C44.8232 16.8785 47.0813 19.2365 46.1678 21.423C45.6711 22.6117 44.2134 23.4266 43.0435 23.1697C41.6432 22.8622 40.7842 21.804 40.7832 20.3854Z" fill="#3A4774"/>
<path d="M52.0127 40.3681C52.5593 40.3681 53.5173 40.084 54.0851 40.0128C55.354 39.8536 57.0097 39.3121 58.3084 38.6314C62.5304 36.4183 65.1405 31.865 65.5334 26.0285C65.659 24.1689 65.5732 23.9313 64.9092 24.3035C64.2293 24.6844 63.645 25.4329 62.9724 26.7836C61.1539 30.436 57.9169 31.7583 54.8608 30.0967C53.066 29.1213 51.6073 26.1142 51.7149 24.0966C51.7807 22.8813 51.8166 22.0547 51.7149 22.0547C51.7003 22.0547 51.7282 22.0582 51.7149 22.0647C51.6445 22.0986 51.7149 22.215 51.7149 22.3525L52.0127 40.3681Z" fill="#4E5B90"/>
</svg>
