<svg width="360" height="360" viewBox="0 0 360 360" fill="none" xmlns="http://www.w3.org/2000/svg">
<path d="M65.9658 119.05L180 50.2363L294.034 119.05V246.846L180 309.762L65.9658 246.846V119.05Z" fill="url(#paint0_linear_933_111414)"/>
<path d="M237.017 201.626C237.017 184.252 222.933 170.168 205.56 170.168H178.034V233.083H205.56C222.933 233.083 237.017 218.999 237.017 201.626Z" fill="white"/>
<path fill-rule="evenodd" clip-rule="evenodd" d="M150.508 170.168C133.135 170.168 119.051 184.252 119.051 201.626C119.051 218.999 133.135 233.083 150.508 233.083H172.136H174.102H187.864C191.122 233.083 193.763 230.442 193.763 227.185C193.763 223.927 191.122 221.287 187.864 221.287H191.797C195.054 221.287 197.695 218.646 197.695 215.388C197.695 212.131 195.054 209.49 191.797 209.49C195.054 209.49 197.695 206.849 197.695 203.592C197.695 200.334 195.054 197.693 191.797 197.693C195.054 197.693 197.695 195.053 197.695 191.795C197.695 188.538 195.054 185.897 191.797 185.897H174.102C178.445 185.897 181.966 182.376 181.966 178.032C181.966 173.689 178.445 170.168 174.102 170.168H158.373H150.508Z" fill="white"/>
<mask id="mask0_933_111414" style="mask-type:luminance" maskUnits="userSpaceOnUse" x="115" y="166" width="87" height="72">
<path d="M201.627 166.236H115.118V237.016H201.627V166.236Z" fill="white"/>
<path fill-rule="evenodd" clip-rule="evenodd" d="M150.508 170.168C133.135 170.168 119.051 184.252 119.051 201.626C119.051 218.999 133.135 233.083 150.508 233.083H172.136H174.102H187.864C191.122 233.083 193.763 230.442 193.763 227.185C193.763 223.927 191.122 221.287 187.864 221.287H191.797C195.054 221.287 197.695 218.646 197.695 215.388C197.695 212.131 195.054 209.49 191.797 209.49C195.054 209.49 197.695 206.849 197.695 203.592C197.695 200.334 195.054 197.693 191.797 197.693C195.054 197.693 197.695 195.053 197.695 191.795C197.695 188.538 195.054 185.897 191.797 185.897H174.102C178.445 185.897 181.966 182.376 181.966 178.032C181.966 173.689 178.445 170.168 174.102 170.168H158.373H150.508Z" fill="#0713C6"/>
</mask>
<g mask="url(#mask0_933_111414)">
<path d="M122.983 201.626C122.983 186.424 135.306 174.101 150.508 174.101V166.236C130.963 166.236 115.118 182.081 115.118 201.626H122.983ZM150.508 229.152C135.306 229.152 122.983 216.828 122.983 201.626H115.118C115.118 221.172 130.963 237.016 150.508 237.016V229.152ZM172.135 229.152H150.508V237.016H172.135V229.152ZM174.101 229.152H172.135V237.016H174.101V229.152ZM187.864 229.152H174.101V237.016H187.864V229.152ZM189.83 227.185C189.83 228.271 188.95 229.152 187.864 229.152V237.016C193.293 237.016 197.694 232.615 197.694 227.185H189.83ZM187.864 225.219C188.95 225.219 189.83 226.1 189.83 227.185H197.694C197.694 221.756 193.293 217.355 187.864 217.355V225.219ZM191.796 217.355H187.864V225.219H191.796V217.355ZM193.762 215.389C193.762 216.475 192.882 217.355 191.796 217.355V225.219C197.225 225.219 201.627 220.818 201.627 215.389H193.762ZM191.796 213.423C192.882 213.423 193.762 214.303 193.762 215.389H201.627C201.627 209.96 197.225 205.558 191.796 205.558V213.423ZM193.762 203.592C193.762 204.678 192.882 205.558 191.796 205.558V213.423C197.225 213.423 201.627 209.021 201.627 203.592H193.762ZM191.796 201.626C192.882 201.626 193.762 202.507 193.762 203.592H201.627C201.627 198.163 197.225 193.762 191.796 193.762V201.626ZM193.762 191.796C193.762 192.881 192.882 193.762 191.796 193.762V201.626C197.225 201.626 201.627 197.225 201.627 191.796H193.762ZM191.796 189.83C192.882 189.83 193.762 190.71 193.762 191.796H201.627C201.627 186.366 197.225 181.965 191.796 181.965V189.83ZM174.101 189.83H191.796V181.965H174.101V189.83ZM178.033 178.033C178.033 180.205 176.273 181.965 174.101 181.965V189.83C180.616 189.83 185.898 184.548 185.898 178.033H178.033ZM174.101 174.101C176.273 174.101 178.033 175.861 178.033 178.033H185.898C185.898 171.518 180.616 166.236 174.101 166.236V174.101ZM158.372 174.101H174.101V166.236H158.372V174.101ZM150.508 174.101H158.372V166.236H150.508V174.101Z" fill="#0713C6"/>
</g>
<path d="M185.898 132.812C185.898 129.555 183.257 126.914 180 126.914C176.742 126.914 174.102 129.555 174.102 132.812V148.541C174.102 151.799 176.742 154.439 180 154.439C183.257 154.439 185.898 151.799 185.898 148.541V132.812Z" fill="white"/>
<path d="M138.448 138.968C135.952 136.874 132.232 137.199 130.138 139.695C128.044 142.19 128.37 145.91 130.865 148.004L142.914 158.115C145.409 160.208 149.13 159.883 151.224 157.388C153.318 154.892 152.992 151.172 150.497 149.078L138.448 138.968Z" fill="white"/>
<path d="M216.524 155.751C214.029 157.845 210.308 157.52 208.214 155.024C206.12 152.529 206.446 148.808 208.941 146.714L220.99 136.604C223.486 134.51 227.206 134.836 229.3 137.331C231.394 139.827 231.068 143.547 228.573 145.641L216.524 155.751Z" fill="white"/>
<defs>
<linearGradient id="paint0_linear_933_111414" x1="115.118" y1="87.5923" x2="250.779" y2="274.372" gradientUnits="userSpaceOnUse">
<stop stop-color="#0310E1"/>
<stop offset="1" stop-color="#0C189C"/>
</linearGradient>
</defs>
</svg>
