<svg width="132" height="88" viewBox="0 0 132 88" fill="none" xmlns="http://www.w3.org/2000/svg">
<path d="M58.073 77.8258C54.0307 77.8258 50.1569 77.546 46.4515 76.9865C42.8022 76.4269 39.967 75.7834 37.9459 75.056V61.291C43.897 62.3541 49.2305 62.8857 53.9465 62.8857C57.1466 62.8857 59.4485 62.3821 60.852 61.3749C62.3117 60.4237 63.0416 58.6051 63.0416 55.9193V52.3102C61.638 54.1007 59.8134 55.6954 57.5677 57.0943C55.3781 58.4932 52.8517 59.1927 49.9884 59.1927C44.2619 59.1927 39.9389 57.0664 37.0195 52.8137C34.1562 48.5611 32.7246 42.518 32.7246 34.6842C32.7246 26.8505 34.1562 20.8073 37.0195 16.5547C39.9389 12.3021 44.2619 10.1758 49.9884 10.1758C52.8517 10.1758 55.3781 10.8752 57.5677 12.2741C59.8134 13.673 61.638 15.2677 63.0416 17.0583V11.3508H86.1162V25.1159H82.4108V54.6603C82.4108 62.7738 80.3897 68.6491 76.3474 72.2862C72.3051 75.9793 66.2137 77.8258 58.073 77.8258ZM58.1572 44.2526C59.7853 44.2526 60.9924 43.8329 61.7784 42.9936C62.6205 42.0983 63.0416 40.7274 63.0416 38.8809V30.4876C63.0416 28.641 62.6205 27.2981 61.7784 26.4588C60.9924 25.5635 59.7853 25.1159 58.1572 25.1159C56.5291 25.1159 55.2939 25.5635 54.4518 26.4588C53.6658 27.2981 53.2728 28.641 53.2728 30.4876V38.8809C53.2728 40.7274 53.6658 42.0983 54.4518 42.9936C55.2939 43.8329 56.5291 44.2526 58.1572 44.2526Z" fill="black"/>
<path d="M86.1372 58.0177V44.2527H99.2746V58.0177H86.1372Z" fill="#FFBD27"/>
</svg>
