<svg width="132" height="88" viewBox="0 0 132 88" fill="none" xmlns="http://www.w3.org/2000/svg">
<path fill-rule="evenodd" clip-rule="evenodd" d="M47.6669 18.6294C49.4432 15.5613 53.3693 14.514 56.4359 16.2916C59.5032 18.0683 60.5488 21.9966 58.7725 25.0654L45.9856 47.2252C44.2105 50.2939 40.2844 51.3405 37.2169 49.5629C34.1503 47.7862 33.1048 43.8578 34.8809 40.7891L47.6669 18.6294ZM73.2417 18.6546C75.0039 15.5859 78.919 14.5279 81.9847 16.2916C85.0521 18.0545 86.1086 21.9712 84.3464 25.0398L58.7736 69.3591C57.0106 72.4278 53.0963 73.4852 50.0297 71.723C46.9643 69.9589 45.9067 66.0418 47.668 62.9744L73.2417 18.6546ZM94.7706 38.4516C91.7052 36.6877 87.79 37.7467 86.0278 40.8146L73.2417 62.9744C71.4797 66.0429 72.5371 69.9589 75.6036 71.723C78.6693 73.4852 82.5842 72.4278 84.3464 69.3591L97.1326 47.1999C98.8948 44.1311 97.8371 40.2143 94.7706 38.4516Z" fill="#0EF275"/>
</svg>
