<svg width="132" height="88" viewBox="0 0 132 88" fill="none" xmlns="http://www.w3.org/2000/svg">
<path d="M65.9996 77.2766C84.3769 77.2766 99.2746 62.3788 99.2746 44.0016C99.2746 25.6243 84.3769 10.7266 65.9996 10.7266C47.6223 10.7266 32.7246 25.6243 32.7246 44.0016C32.7246 62.3788 47.6223 77.2766 65.9996 77.2766Z" fill="#0A1117"/>
<path d="M73.7662 22.8672L58.666 28.0312V33.6019L66.8026 35.7488L58.666 38.5318V44.1024L66.8049 46.2494L58.666 49.0335V54.6042L66.806 56.751L58.666 59.5353V65.1062L66.2051 62.6065L73.7662 59.9454V54.3713L73.0714 54.609L73.7662 54.3701L68.5869 52.8L66.2444 52.0916H66.2421L73.7662 49.4438V43.8695L68.5869 42.2983L66.2444 41.5898H66.2421L73.7662 38.9433V33.3677H73.765L68.5869 31.7989L66.2444 31.0893H66.2433L73.7662 28.4427V22.8672Z" fill="white"/>
<path d="M68.5869 31.8008L58.666 33.6037L66.8142 35.7543L73.7662 33.3708L68.5869 31.8008Z" fill="#E6E6E6"/>
<path d="M68.5869 42.2969L58.666 44.1011L66.8142 46.2504L73.7662 43.8682L68.5869 42.2969Z" fill="#E6E6E6"/>
<path d="M68.5869 52.8008L58.666 54.605L66.8142 56.7545L73.7662 54.3708L68.5869 52.8008Z" fill="#E6E6E6"/>
<path d="M68.5869 31.7995L66.2444 31.0898L58.666 33.6025L68.5869 31.7995Z" fill="#808080"/>
<path d="M68.5869 42.2982L66.2444 41.5898L58.666 44.1025L68.5869 42.2982Z" fill="#808080"/>
<path d="M68.5869 52.7982L66.2444 52.0898L58.666 54.6025L68.5869 52.7982Z" fill="#808080"/>
</svg>
