<svg width="132" height="88" viewBox="0 0 132 88" fill="none" xmlns="http://www.w3.org/2000/svg">
<path d="M87.1484 11.8242H44.8492C41.9253 11.8242 39.121 12.9857 37.0538 15.0534C34.9855 17.1209 33.8242 19.9252 33.8242 22.8492V65.1492C33.8242 68.0733 34.9855 70.8774 37.0538 72.9446C39.121 75.0129 41.9253 76.1742 44.8492 76.1742H87.1492C90.0733 76.1742 92.8774 75.0129 94.9446 72.9446C97.0129 70.8774 98.1742 68.0733 98.1742 65.1492V22.8492C98.1742 21.4013 97.8888 19.9675 97.3346 18.6298C96.7805 17.2922 95.9682 16.0767 94.9446 15.053C93.9211 14.0292 92.7056 13.2171 91.3671 12.6631C90.0298 12.1092 88.5962 11.8241 87.1484 11.8242ZM65.1195 62.3544C65.1195 62.5634 65.0752 62.7702 64.9908 62.9616C64.9064 63.1527 64.7826 63.3243 64.6278 63.4651C64.4779 63.6037 64.3011 63.709 64.108 63.7742C63.9139 63.8394 63.7087 63.8627 63.5058 63.8432C58.5698 63.3716 53.9858 61.0773 50.6506 57.4079C47.3146 53.7386 45.4666 48.9575 45.4666 43.9987C45.4666 39.0399 47.3146 34.2587 50.6506 30.5894C53.9858 26.9201 58.5698 24.6257 63.5058 24.1541C63.5528 24.1541 63.6001 24.1472 63.6463 24.1472C64.0115 24.1481 64.3624 24.2856 64.6308 24.5322C64.7845 24.673 64.9083 24.8446 64.9927 25.0358C65.0771 25.2272 65.1214 25.434 65.1214 25.643L65.1195 62.3544ZM86.534 62.3959C86.5359 62.6002 86.4928 62.8023 86.4092 62.9888C86.3258 63.1752 86.2032 63.3413 86.0492 63.4764C85.8924 63.6152 85.7085 63.7195 85.5083 63.7824C85.3083 63.8451 85.098 63.8652 84.8901 63.841C76.4913 62.867 69.8159 55.519 69.0176 46.37C68.9964 46.1662 69.0176 45.9605 69.082 45.7658C69.1452 45.5711 69.2489 45.3921 69.3867 45.2403C69.5244 45.0912 69.6922 44.973 69.8792 44.893C70.0665 44.8132 70.2675 44.7736 70.4704 44.7766H85.079C85.4662 44.7766 85.8372 44.9304 86.1105 45.204C86.3841 45.4776 86.5379 45.8486 86.5379 46.2355L86.534 62.3959Z" fill="black"/>
</svg>
