<svg width="132" height="88" viewBox="0 0 132 88" fill="none" xmlns="http://www.w3.org/2000/svg">
<mask id="mask0_2056_26577" style="mask-type:luminance" maskUnits="userSpaceOnUse" x="30" y="8" width="72" height="72">
<path d="M30.0176 8.01562H101.983V79.9817H30.0176V8.01562Z" fill="white"/>
</mask>
<g mask="url(#mask0_2056_26577)">
<path d="M94.7506 26.3203H37.252V61.6735H94.7506V26.3203Z" fill="white"/>
<path d="M30.0176 8.01562V79.9817H101.983V8.01562H30.0176ZM53.4534 55.0634C52.8597 55.3925 51.4294 56.0817 49.1087 56.0817C46.7877 56.0817 43.2233 54.9734 43.2233 50.3856C43.2233 45.7978 46.6417 44.6032 49.1285 44.6032C51.6145 44.6032 52.9887 45.3858 53.2485 45.5495L52.3699 47.8883C51.3194 47.2803 50.3588 46.9781 49.2165 46.9781C46.4307 46.9781 45.9899 49.2988 45.9899 50.3243C45.9899 51.4218 46.296 53.811 49.1805 53.811C49.7813 53.8256 50.3789 53.712 50.9328 53.4783V51.8591H48.2339V49.6461H53.4515L53.4534 55.0634ZM53.4534 42.3793C52.8597 42.7032 51.4294 43.394 49.1087 43.394C46.7877 43.394 43.2233 42.2822 43.2233 37.7015C43.2233 33.1208 46.6417 31.9191 49.1285 31.9191C51.6145 31.9191 52.9887 32.7017 53.2485 32.8654L52.3699 35.2042C51.3156 34.5855 50.3478 34.2833 49.2146 34.2833C46.4299 34.2833 45.9891 36.604 45.9891 37.6295C45.9891 38.727 46.2949 41.1165 49.1785 41.1165C49.7791 41.1308 50.377 41.0172 50.9306 40.7834V39.1642H48.232V36.964H53.4496L53.4534 42.3793ZM64.2623 51.3498C64.2623 52.1451 64.2444 56.0817 59.4267 56.0817C54.6079 56.0817 54.59 52.1451 54.59 51.3498V44.873H57.3647V51.339C57.3647 52.1918 57.5696 53.7392 59.4336 53.7392C61.2978 53.7392 61.5027 52.1847 61.5027 51.3319V44.8658H64.2733L64.2623 51.3498ZM64.2623 38.6624C64.2623 39.4577 64.2444 43.394 59.4267 43.394C54.6079 43.394 54.59 39.4577 54.59 38.6624V32.1853H57.3647V38.6516C57.3647 39.5044 57.5696 41.0516 59.4336 41.0516C61.2978 41.0516 61.5027 39.5008 61.5027 38.6442V32.1781H64.2733L64.2623 38.6624ZM68.2025 55.8191H65.4247V44.8658H68.2135L68.2025 55.8191ZM68.2025 43.1314H65.4247V32.1781H68.2135L68.2025 43.1314ZM73.3909 55.8191H69.4689V44.8658H73.5889C76.6475 44.8658 79.634 46.3951 79.634 50.2632C79.634 54.1314 76.8224 55.8191 73.3909 55.8191ZM73.3909 43.1314H69.4689V32.1781H73.5889C76.6475 32.1781 79.634 33.7074 79.634 37.5756C79.634 41.4437 76.8224 43.1314 73.3909 43.1314ZM88.6837 47.1076H83.4163V49.1946H87.6574V51.438H83.4163V53.5753H88.6919V55.8191H80.7037V44.8658H88.6919L88.6837 47.1076ZM88.6837 34.4235H83.4163V36.5069H87.6574V38.7504H83.4163V40.8879H88.6919V43.1333H80.7037V32.1781H88.6919L88.6837 34.4235ZM73.4041 47.1076H72.2475V53.5753H73.557C74.5734 53.5753 76.8314 53.3111 76.8314 50.3675C76.8314 47.2371 74.5555 47.1112 73.4129 47.1112L73.4041 47.1076ZM73.4041 34.4235H72.2475V40.8879H73.557C74.5734 40.8879 76.8314 40.6253 76.8314 37.6817C76.8314 34.5585 74.5555 34.4254 73.4129 34.4254L73.4041 34.4235Z" fill="black"/>
</g>
</svg>
