<svg width="132" height="88" viewBox="0 0 132 88" fill="none" xmlns="http://www.w3.org/2000/svg">
<g clip-path="url(#clip0_2056_27367)">
<rect x="62.2031" y="0.0703125" width="19.9878" height="42.7565" rx="9.99389" transform="rotate(30 62.2031 0.0703125)" fill="url(#paint0_linear_2056_27367)"/>
<g filter="url(#filter0_d_2056_27367)">
<path d="M87.3697 62.7556C91.0365 58.1171 93.2254 52.2569 93.2254 45.8852C93.2254 30.8493 81.0364 18.6602 66.0004 18.6602C50.9644 18.6602 38.7754 30.8493 38.7754 45.8852C38.7754 58.4496 47.2866 69.0261 58.8581 72.1636L58.4093 72.9409C55.6496 77.7208 57.2873 83.833 62.0673 86.5929C66.8473 89.3525 72.9595 87.715 75.7192 82.9347L87.3697 62.7556Z" fill="url(#paint1_linear_2056_27367)"/>
</g>
<g filter="url(#filter1_d_2056_27367)">
<circle cx="65.9999" cy="45.8866" r="10.246" fill="white"/>
</g>
</g>
<defs>
<filter id="filter0_d_2056_27367" x="37.4581" y="17.0501" width="57.0839" height="71.9081" filterUnits="userSpaceOnUse" color-interpolation-filters="sRGB">
<feFlood flood-opacity="0" result="BackgroundImageFix"/>
<feColorMatrix in="SourceAlpha" type="matrix" values="0 0 0 0 0 0 0 0 0 0 0 0 0 0 0 0 0 0 127 0" result="hardAlpha"/>
<feOffset dy="-0.292742"/>
<feGaussianBlur stdDeviation="0.658669"/>
<feComposite in2="hardAlpha" operator="out"/>
<feColorMatrix type="matrix" values="0 0 0 0 0 0 0 0 0 0 0 0 0 0 0 0 0 0 0.15 0"/>
<feBlend mode="normal" in2="BackgroundImageFix" result="effect1_dropShadow_2056_27367"/>
<feBlend mode="normal" in="SourceGraphic" in2="effect1_dropShadow_2056_27367" result="shape"/>
</filter>
<filter id="filter1_d_2056_27367" x="52.8265" y="33.2987" width="26.347" height="26.347" filterUnits="userSpaceOnUse" color-interpolation-filters="sRGB">
<feFlood flood-opacity="0" result="BackgroundImageFix"/>
<feColorMatrix in="SourceAlpha" type="matrix" values="0 0 0 0 0 0 0 0 0 0 0 0 0 0 0 0 0 0 127 0" result="hardAlpha"/>
<feOffset dy="0.585484"/>
<feGaussianBlur stdDeviation="1.46371"/>
<feComposite in2="hardAlpha" operator="out"/>
<feColorMatrix type="matrix" values="0 0 0 0 0 0 0 0 0 0 0 0 0 0 0 0 0 0 0.35 0"/>
<feBlend mode="normal" in2="BackgroundImageFix" result="effect1_dropShadow_2056_27367"/>
<feBlend mode="normal" in="SourceGraphic" in2="effect1_dropShadow_2056_27367" result="shape"/>
</filter>
<linearGradient id="paint0_linear_2056_27367" x1="72.197" y1="0.0703125" x2="72.197" y2="42.8268" gradientUnits="userSpaceOnUse">
<stop stop-color="#FFB837"/>
<stop offset="1" stop-color="#FF842A"/>
</linearGradient>
<linearGradient id="paint1_linear_2056_27367" x1="66.0004" y1="18.6602" x2="66.0004" y2="87.9334" gradientUnits="userSpaceOnUse">
<stop stop-color="#FFB837"/>
<stop offset="1" stop-color="#FF842A"/>
</linearGradient>
<clipPath id="clip0_2056_27367">
<rect width="132" height="88" fill="white"/>
</clipPath>
</defs>
</svg>
