<svg width="132" height="88" viewBox="0 0 132 88" fill="none" xmlns="http://www.w3.org/2000/svg">
<path fill-rule="evenodd" clip-rule="evenodd" d="M65.9996 77.2766C47.6221 77.2766 32.7246 62.3792 32.7246 44.0016C32.7246 25.6241 47.6221 10.7266 65.9996 10.7266C84.3772 10.7266 99.2746 25.6241 99.2746 44.0016C99.2746 62.3792 84.3772 77.2766 65.9996 77.2766ZM65.9996 60.6391C75.1883 60.6391 82.6371 53.1903 82.6371 44.0016C82.6371 34.8129 75.1883 27.3641 65.9996 27.3641C56.8109 27.3641 49.3621 34.8129 49.3621 44.0016C49.3621 53.1903 56.8109 60.6391 65.9996 60.6391Z" fill="url(#paint0_linear_2056_22106)"/>
<path fill-rule="evenodd" clip-rule="evenodd" d="M71.6203 62.889C57.8374 62.889 46.6641 51.7156 46.6641 37.9328C46.6641 24.15 57.8374 12.9766 71.6203 12.9766C85.403 12.9766 96.5766 24.15 96.5766 37.9328C96.5766 51.7156 85.403 62.889 71.6203 62.889ZM65.9996 60.6409C75.1883 60.6409 82.6371 53.1921 82.6371 44.0034C82.6371 34.8147 75.1883 27.3659 65.9996 27.3659C56.8109 27.3659 49.3621 34.8147 49.3621 44.0034C49.3621 53.1921 56.8109 60.6409 65.9996 60.6409Z" fill="url(#paint1_linear_2056_22106)"/>
<defs>
<linearGradient id="paint0_linear_2056_22106" x1="69.3271" y1="30.6916" x2="85.9646" y2="70.6216" gradientUnits="userSpaceOnUse">
<stop stop-color="#2BE8B6"/>
<stop offset="1" stop-color="#1AC6A8"/>
</linearGradient>
<linearGradient id="paint1_linear_2056_22106" x1="79.1072" y1="42.924" x2="54.1509" y2="22.9591" gradientUnits="userSpaceOnUse">
<stop stop-color="#2BE8B6"/>
<stop offset="1" stop-color="#1AC6A8"/>
</linearGradient>
</defs>
</svg>
