<svg width="132" height="88" viewBox="0 0 132 88" fill="none" xmlns="http://www.w3.org/2000/svg">
<path d="M47.1525 21.1606L81.2435 18.1717C82.2219 18.0872 83.2075 18.196 84.1431 18.4921C85.0797 18.7883 85.9482 19.266 86.6989 19.8978C87.4505 20.5297 88.0703 21.3033 88.523 22.1746C88.9748 23.0461 89.2517 23.9979 89.3356 24.976L92.3463 59.4346C92.5212 61.4108 91.9044 63.3754 90.6311 64.8972C89.3576 66.4174 87.5316 67.3709 85.5555 67.5469L51.4645 70.5356C50.4861 70.6205 49.5005 70.5114 48.5638 70.2157C47.6275 69.9187 46.7587 69.4411 46.0072 68.8094C45.2545 68.1777 44.6349 67.403 44.1831 66.5313C43.7303 65.6598 43.4544 64.7072 43.3694 63.729L40.3639 29.2724C40.189 27.2962 40.8056 25.3316 42.08 23.8103C43.3534 22.2893 45.1786 21.3361 47.1547 21.1606H47.1525ZM47.5895 26.1327C47.2636 26.1613 46.9457 26.254 46.6548 26.4055C46.3649 26.5567 46.1073 26.7641 45.8963 27.0154C45.6862 27.2665 45.5273 27.5566 45.4294 27.8693C45.3304 28.182 45.2955 28.5109 45.3246 28.8373L48.3312 63.2937C48.359 63.6199 48.4511 63.9375 48.6021 64.2284C48.7528 64.5183 48.9598 64.7773 49.2095 64.9872C49.4606 65.1981 49.7505 65.3579 50.0623 65.4569C50.3742 65.5548 50.7031 65.5919 51.0289 65.5627L85.1188 62.5724C85.4446 62.5438 85.7623 62.4511 86.0521 62.2996C86.3431 62.1483 86.601 61.9413 86.8108 61.6905C87.0207 61.4394 87.1796 61.1495 87.2786 60.8371C87.3765 60.5247 87.4125 60.1961 87.3837 59.8697L84.3749 25.4111C84.318 24.7527 84.0012 24.1439 83.4954 23.7187C82.9897 23.2936 82.3349 23.0868 81.6763 23.1437L47.5895 26.1327ZM54.704 37.9175C54.2203 37.9582 53.7336 37.9027 53.2707 37.755C52.809 37.6071 52.3803 37.3692 52.0093 37.0557C51.6386 36.7419 51.3336 36.3583 51.1117 35.9265C50.889 35.4948 50.7539 35.0234 50.7141 34.5397C50.6701 34.0557 50.7209 33.5679 50.8648 33.1039C51.0089 32.6397 51.2426 32.2088 51.5536 31.8351C51.8644 31.4616 52.2453 31.1528 52.6751 30.9265C53.1057 30.7004 53.5757 30.561 54.0594 30.5165C54.5432 30.476 55.031 30.5313 55.4936 30.6795C55.9564 30.8275 56.3854 31.0654 56.755 31.3794C57.126 31.6932 57.4307 32.0771 57.6537 32.5091C57.8756 32.9411 58.0106 33.4128 58.0494 33.8968C58.1393 34.8736 57.8366 35.8457 57.2098 36.5997C56.5823 37.3538 55.6817 37.8279 54.704 37.9175ZM76.7117 35.987C76.2269 36.0277 75.7402 35.9727 75.2773 35.8251C74.8145 35.6771 74.3858 35.4395 74.0148 35.1257C73.6441 34.812 73.3383 34.4283 73.1164 33.9963C72.8934 33.5646 72.7586 33.0929 72.7185 32.6089C72.6745 32.1252 72.7256 31.6374 72.8694 31.1732C73.0133 30.7092 73.2473 30.278 73.558 29.9046C73.8691 29.5309 74.2499 29.222 74.6795 28.996C75.1104 28.7697 75.5801 28.6302 76.0638 28.586C76.5478 28.5453 77.0354 28.6008 77.4982 28.7488C77.9611 28.897 78.3898 29.1346 78.7597 29.4486C79.1304 29.7627 79.4353 30.1466 79.6584 30.5786C79.88 31.0106 80.015 31.482 80.0541 31.9663C80.0989 32.45 80.048 32.9378 79.9042 33.4018C79.7601 33.866 79.5253 34.2969 79.2153 34.6706C78.9046 35.0443 78.5229 35.3529 78.0931 35.5792C77.6632 35.8055 77.1935 35.9447 76.7087 35.9892L76.7117 35.987ZM56.6422 60.1191C56.1585 60.1595 55.6707 60.104 55.2089 59.9563C54.7461 59.8084 54.3171 59.5708 53.9464 59.257C53.5757 58.9432 53.2707 58.5596 53.0488 58.1278C52.8261 57.6961 52.691 57.225 52.6512 56.741C52.6072 56.2573 52.658 55.7692 52.8019 55.3052C52.946 54.8413 53.1797 54.4101 53.4907 54.0364C53.8015 53.6629 54.1824 53.3541 54.613 53.1281C55.0428 52.9017 55.5128 52.7623 55.9965 52.7178C56.4803 52.6773 56.9681 52.7326 57.4298 52.8806C57.8927 53.0285 58.3214 53.2661 58.6921 53.5799C59.0631 53.8937 59.3678 54.2773 59.5897 54.709C59.8116 55.1408 59.9466 55.6121 59.9865 56.0959C60.0316 56.5799 59.9805 57.0677 59.8366 57.5316C59.6928 57.9958 59.4588 58.4268 59.148 58.8002C58.837 59.1739 58.4564 59.4828 58.0255 59.7088C57.5957 59.9351 57.126 60.0746 56.6422 60.1191ZM78.6488 58.1883C78.1648 58.2288 77.6773 58.1735 77.2153 58.0255C76.7527 57.8776 76.3237 57.64 75.953 57.3262C75.5831 57.0127 75.2773 56.6288 75.0554 56.1971C74.8335 55.7656 74.6985 55.2942 74.6586 54.8102C74.6138 54.3265 74.6646 53.8387 74.8085 53.3747C74.9526 52.9105 75.1874 52.4793 75.4973 52.1059C75.8081 51.7322 76.1898 51.4236 76.6196 51.1973C77.0494 50.971 77.5191 50.8318 78.0031 50.7873C78.4877 50.7468 78.9744 50.8021 79.4373 50.9503C79.9001 51.0983 80.3288 51.3362 80.6998 51.6499C81.0705 51.964 81.3755 52.3479 81.5974 52.7799C81.8193 53.2119 81.9541 53.6833 81.9942 54.1676C82.0382 54.6513 81.9871 55.1391 81.8432 55.6031C81.6991 56.0673 81.4654 56.4985 81.1546 56.8719C80.8436 57.2454 80.4627 57.5542 80.0332 57.7805C79.6023 58.0068 79.1326 58.146 78.6488 58.1905V58.1883ZM66.6753 48.054C66.1916 48.0945 65.7038 48.0392 65.2409 47.8912C64.7792 47.743 64.3505 47.5051 63.9798 47.1914C63.6088 46.8773 63.3041 46.4934 63.0822 46.0614C62.8592 45.6294 62.7252 45.158 62.6854 44.6737C62.5954 43.6972 62.8982 42.7248 63.5249 41.9708C64.1525 41.2167 65.0542 40.7429 66.0307 40.653C66.5145 40.6125 67.0012 40.6678 67.464 40.8158C67.9269 40.9637 68.3556 41.2013 68.7255 41.5151C69.0962 41.8289 69.4011 42.2125 69.6239 42.6442C69.8458 43.076 69.9808 43.5471 70.0207 44.0311C70.0647 44.5148 70.0138 45.0026 69.8697 45.4668C69.7259 45.9308 69.4922 46.362 69.1811 46.7354C68.8704 47.1091 68.4895 47.418 68.0597 47.644C67.6299 47.8703 67.1591 48.0098 66.6753 48.054ZM94.8241 23.933L94.7911 23.9374C94.5293 23.9635 94.2644 23.9371 94.0125 23.8606C93.7595 23.7836 93.5258 23.658 93.3217 23.4905C93.1188 23.3227 92.9499 23.1165 92.827 22.8838C92.703 22.6509 92.6271 22.396 92.6021 22.1336C92.0235 16.5713 87.0858 12.5351 81.5713 13.1232H81.5564C81.2943 13.1491 81.0295 13.1231 80.7776 13.0465C80.5249 12.97 80.2909 12.8444 80.0871 12.677C79.8841 12.5097 79.7153 12.3038 79.5913 12.0712C79.4672 11.8386 79.3913 11.5838 79.3655 11.3215C79.3064 10.7924 79.4593 10.2615 79.7901 9.84444C80.1209 9.42746 80.6038 9.15826 81.1326 9.0957H81.1365L81.1516 9.0935C82.9897 8.89861 84.8479 9.07043 86.6189 9.59887C88.3891 10.1273 90.0374 11.0019 91.4677 12.172C94.3711 14.5495 96.2153 17.9789 96.5992 21.7116C96.6572 22.2414 96.5032 22.7725 96.1705 23.1888C95.8374 23.6049 95.3537 23.8725 94.8241 23.933ZM49.7045 78.9814H49.6864C47.8384 79.0135 46.0022 78.6786 44.284 77.9969C42.5658 77.3143 40.9995 76.2976 39.6772 75.0062C36.9914 72.3836 35.4512 68.8053 35.3912 65.0521C35.3782 64.5194 35.5771 64.0035 35.9439 63.6174C36.3108 63.2313 36.8156 63.0063 37.3483 62.992H37.3833C38.4827 62.9744 39.3883 63.8665 39.4083 64.9822C39.5043 70.5765 44.0742 75.0282 49.6185 74.9303H49.6314C49.8954 74.9273 50.1572 74.9774 50.4022 75.0753C50.647 75.1743 50.87 75.3203 51.0578 75.5051C51.2456 75.6902 51.3955 75.9099 51.4995 76.1527C51.6026 76.3958 51.6565 76.6557 51.6584 76.9194C51.6724 77.4521 51.4747 77.968 51.1079 78.3549C50.741 78.7416 50.2361 78.9665 49.7045 78.9814Z" fill="#0EF275"/>
</svg>
