<svg width="132" height="88" viewBox="0 0 132 88" fill="none" xmlns="http://www.w3.org/2000/svg">
<path d="M65.9991 13.1992C83.0094 13.1992 96.7992 26.9888 96.7992 43.9991C96.7992 61.0094 83.0094 74.7992 65.9991 74.7992C48.9888 74.7992 35.1992 61.0094 35.1992 43.9991C35.1992 26.9888 48.9888 13.1992 65.9991 13.1992Z" fill="#F25A4E" stroke="#1F1235" stroke-width="4.85501"/>
<path d="M50.3723 47.0805C52.8949 47.0805 54.9399 45.0355 54.9399 42.5129C54.9399 39.9903 52.8949 37.9453 50.3723 37.9453C47.8497 37.9453 45.8047 39.9903 45.8047 42.5129C45.8047 45.0355 47.8497 47.0805 50.3723 47.0805Z" fill="#1F1235"/>
<path d="M83.3645 47.0805C85.8871 47.0805 87.932 45.0355 87.932 42.5129C87.932 39.9903 85.8871 37.9453 83.3645 37.9453C80.8419 37.9453 78.7969 39.9903 78.7969 42.5129C78.7969 45.0355 80.8419 47.0805 83.3645 47.0805Z" fill="#1F1235"/>
<path d="M71.7265 49.7266C71.0513 50.546 69.0887 53.2615 65.8349 53.2615C62.5811 53.2615 60.4123 50.546 59.9434 49.7266" stroke="#1F1235" stroke-width="3.13665" stroke-linecap="round"/>
</svg>
