<svg width="132" height="88" viewBox="0 0 132 88" fill="none" xmlns="http://www.w3.org/2000/svg">
<path fill-rule="evenodd" clip-rule="evenodd" d="M94.5975 2.13444C92.4466 4.30013 94.6965 12.8878 97.4151 12.8878C100.196 12.8878 102.432 4.34857 100.231 2.13374C98.7291 0.621618 96.1005 0.622321 94.5975 2.13444ZM64.1468 10.8386C47.331 12.6308 31.7992 24.0378 24.4991 39.9558C22.0581 45.2784 20.5259 51.3093 20.2295 56.7632L20 60.9752L40.9495 61.3613L41.7739 64.8524C44.1068 74.7367 54.2482 81.6711 68.0894 82.8456C83.1017 84.119 98.1481 73.5468 103.446 58.0029C106.591 48.7744 105.208 36.6367 99.9873 27.6713C95.4016 19.7948 86.0225 13.0296 77.0291 11.111C71.8674 10.0103 71.9135 10.011 64.1468 10.8386ZM102.367 13.2233C97.8559 14.8415 97.5692 16.8829 101.584 18.8008C102.86 19.4094 104.984 19.9078 106.305 19.9078C110.407 19.9078 112.517 15.8776 109.739 13.3476C108.206 11.9506 106.018 11.9134 102.367 13.2233ZM56.8196 18.8605C45.5881 21.3175 35.3149 29.3884 30.2313 39.7494C26.5112 47.3324 25.8431 50.1047 28.976 44.9576C33.994 36.7146 39.8601 31.274 48.3855 26.956C53.057 24.5902 55.5475 23.8173 63.4152 22.2912C64.6239 22.0567 64.9845 21.5063 64.9845 19.8945C64.9845 18.0658 64.7425 17.8088 63.0665 17.8573C62.0113 17.8882 59.2006 18.3396 56.8196 18.8605ZM69.8665 72.7177L73.1793 72.2361C81.4355 71.0364 89.154 65.2069 92.6342 57.5424C95.2419 51.8014 95.41 43.1695 93.0178 37.8652C89.1296 29.2424 81.8756 23.8061 72.4819 22.473L69.8665 22.1023V72.7177Z" fill="#FFBE00"/>
<path d="M41.3918 48.8271C41.267 47.9369 41.5404 46.7526 42.0007 46.1945C42.4603 45.6364 43.3879 45.1801 44.0609 45.1801C45.7515 45.1801 47.0027 46.8895 46.73 48.8271C46.5417 50.1644 46.0786 50.4452 44.0609 50.4452C42.0432 50.4452 41.5802 50.1644 41.3918 48.8271Z" fill="#212B36"/>
<path d="M75.7051 51.0405C74.4316 47.9721 75.3661 44.4929 78.031 42.3834C79.8395 40.9513 84.0729 40.4859 85.7182 41.5375C86.3528 41.9432 86.2168 42.3939 85.1951 43.275C83.5282 44.7113 83.471 45.4357 84.9105 46.8854C86.221 48.2044 87.4206 48.2901 88.5574 47.1458C90.324 45.3676 89.4452 50.6278 87.6089 52.8243C84.0938 57.0294 77.7995 56.0859 75.7051 51.0405Z" fill="#212B36"/>
<path fill-rule="evenodd" clip-rule="evenodd" d="M94.9288 2.40333C93.8066 3.53286 93.5932 4.34718 93.9621 6.08886C94.776 9.93165 96.2539 12.8878 97.3614 12.8878C98.6349 12.8878 100.254 9.94217 100.908 6.43565C101.289 4.3879 101.098 3.60727 99.9217 2.42368C98.0805 0.570386 96.7546 0.565473 94.9288 2.40333ZM69.8665 21.8328L73.528 22.3024C81.264 23.2929 89.0145 29.1182 92.7298 36.7329C94.4085 40.1727 94.6254 41.4202 94.6254 47.6371C94.6254 54.3013 94.504 54.8825 92.2332 59.0981C88.3289 66.347 80.9494 71.6036 73.6068 72.366L69.8665 72.7549V83L72.4819 82.6511C83.9902 81.1165 92.8748 75.702 98.9383 66.5281C105.969 55.8913 106.653 41.7017 100.71 29.7928C95.6011 19.5562 82.6198 10.7818 72.583 10.7818H69.8665V21.8328ZM103.135 13.3188C97.6983 15.0008 97.9612 17.5905 103.735 19.2178C108.034 20.4295 110.318 19.4221 110.318 16.315C110.318 14.2048 108.764 12.1963 107.179 12.2567C106.796 12.2714 104.976 12.7495 103.135 13.3188Z" fill="#9F07A9"/>
</svg>
