<svg width="132" height="88" viewBox="0 0 132 88" fill="none" xmlns="http://www.w3.org/2000/svg">
<path d="M35.5849 26.8272C42.4452 16.8075 53.7993 8.93131 64.6751 6.64797C66.6347 6.2363 68.9618 6.01575 71.4964 6.00087C77.3226 5.9667 81.3854 6.93086 86.0716 9.45943C88.3171 10.671 88.4705 10.7081 89.8326 10.365C93.7115 9.38792 97.8695 11.251 99.2641 14.5909C99.8142 15.9086 99.9202 19.4266 99.447 20.6714C99.1923 21.3416 99.309 21.7713 100.119 23.1443C101.395 25.3049 102.775 28.7685 103.445 31.4942C104.11 34.1943 104.198 41.6598 103.597 44.4244C100.2 60.0689 88.2561 73.8984 73.1476 79.6805C63.915 83.214 53.6727 82.685 45.775 78.2667L43.8129 77.169L41.655 77.5364C39.8166 77.8496 39.2285 77.8253 37.6799 77.3728C34.1757 76.3482 32.3304 73.7899 32.3063 69.9225C32.299 68.7571 32.4471 67.5154 32.6356 67.1632C32.9197 66.6323 32.6821 65.9314 31.247 63.0677C29.1213 58.8254 28.2673 55.6193 28.0408 51.0308C27.6397 42.9021 30.1978 34.6955 35.5849 26.8272Z" fill="url(#paint0_linear_2201_6051)"/>
<path fill-rule="evenodd" clip-rule="evenodd" d="M67.4187 6.26032C60.5088 7.15803 53.38 10.2388 46.9506 15.1058C44.1332 17.2388 39.5343 21.6697 37.5987 24.116C33.2212 29.6494 29.9955 36.2741 28.5632 42.672C27.7563 46.2774 27.8262 52.8088 28.7103 56.3727C29.3575 58.9826 31.5676 64.1619 32.6073 65.5058C33.0046 66.0193 34.0446 64.079 42.99 46.1363C48.4575 35.1692 52.9653 26.2304 53.0071 26.2722C53.0488 26.3139 52.9362 26.9851 52.7565 27.7635C51.8468 31.7056 52.7113 37.7199 54.8309 42.1958C60.5837 54.3435 70.7751 61.0761 83.3381 61.0283C91.6477 60.9967 98.1698 57.4568 101.209 51.3288C102.719 48.2829 103.73 43.1815 103.749 38.5135C103.772 32.783 102.792 28.753 100.217 23.9835C98.9312 21.6017 98.9246 21.5726 99.3 19.8879C100.169 15.9914 98.4279 12.2253 95.1196 10.8428C93.7775 10.2818 90.6725 10.1942 89.2852 10.678C88.4596 10.9659 88.0889 10.8552 86.154 9.7423C80.8234 6.67579 73.9926 5.40628 67.4187 6.26032Z" fill="url(#paint1_linear_2201_6051)"/>
<path fill-rule="evenodd" clip-rule="evenodd" d="M62.189 18.702C46.3667 22.7682 51.6984 41.6963 60.291 50.5966L72.1654 38.8022C78.5912 32.4787 83.8484 27.1983 83.8484 27.068C83.8484 26.4171 77.9078 21.9692 75.2347 20.6191C71.2961 18.6292 65.683 17.8045 62.189 18.702Z" fill="url(#paint2_linear_2201_6051)"/>
<defs>
<linearGradient id="paint0_linear_2201_6051" x1="65.9578" y1="85.107" x2="65.2267" y2="25.7569" gradientUnits="userSpaceOnUse">
<stop offset="0.0633381" stop-color="#92E05B"/>
<stop offset="0.54987" stop-color="#EFFAE7"/>
</linearGradient>
<linearGradient id="paint1_linear_2201_6051" x1="40.6667" y1="87.9543" x2="105.969" y2="34.1927" gradientUnits="userSpaceOnUse">
<stop stop-color="#3CAB24"/>
<stop offset="1" stop-color="#80D12C"/>
</linearGradient>
<linearGradient id="paint2_linear_2201_6051" x1="48.7851" y1="45.7653" x2="84.3152" y2="34.5171" gradientUnits="userSpaceOnUse">
<stop offset="0.169148" stop-color="#92E05B"/>
<stop offset="0.68181" stop-color="#EFFAE7"/>
</linearGradient>
</defs>
</svg>
