<svg width="132" height="88" viewBox="0 0 132 88" fill="none" xmlns="http://www.w3.org/2000/svg">
<mask id="mask0_2056_21320" style="mask-type:luminance" maskUnits="userSpaceOnUse" x="34" y="12" width="64" height="64">
<path d="M34.0156 12.0156H97.9852V75.9852H34.0156V12.0156Z" fill="white"/>
</mask>
<g mask="url(#mask0_2056_21320)">
<path d="M68.6831 45.6758C68.7981 45.5927 68.9551 45.708 68.9001 45.8413C66.9899 50.6184 63.9385 54.0424 59.3647 55.3354C57.0957 55.9798 54.6787 55.8692 52.4199 55.1883C52.176 55.1146 51.9271 55.0362 51.6881 54.9581C49.4463 54.2401 47.4583 53.4071 45.7 52.4455C43.4222 51.2027 41.5351 49.7485 39.9938 48.0688C36.8823 44.6817 35.1611 40.3694 34.4344 34.9802C34.2825 33.8343 34.1726 32.6468 34.1026 31.3997C34.0436 30.3184 34.0156 29.1953 34.0156 28.0356V12.5725C34.0156 12.2641 34.2645 12.0156 34.5724 12.0156H39.2991C39.6809 12.0156 39.9988 12.3286 39.9988 12.7152V32.8217C39.9988 37.852 42.2078 42.362 45.7052 45.4547C47.4262 46.9735 49.4554 48.1469 51.6922 48.865C53.3266 49.3943 55.0747 49.6795 56.8837 49.6795C61.0488 49.6795 65.2778 48.1747 68.6831 45.6758Z" fill="#0EF275"/>
<path d="M74.5336 46.7668C74.5745 46.5963 74.8234 46.6331 74.8143 46.808C74.5514 51.4885 73.9118 55.9573 72.3886 58.9806C69.6548 64.397 64.0035 67.6467 57.9755 67.5777C55.9364 67.5546 53.9853 67.3846 52.1301 67.081C52.0432 67.067 51.9643 67.1308 51.9643 67.2188V75.2909C51.9643 75.6729 51.6514 75.9908 51.2647 75.9908H46.6818C46.2949 75.9908 45.9822 75.6767 45.9822 75.2909V65.5707C45.9822 65.5116 45.9451 65.4607 45.8901 65.4376C43.971 64.6921 42.2269 63.767 40.6806 62.6808C40.5837 62.6164 40.4597 62.6808 40.4597 62.796V75.2909C40.4597 75.6729 40.1459 75.9908 39.7601 75.9908H35.1762C34.7894 75.9908 34.4766 75.6767 34.4766 75.2909V49.261C34.4766 49.1092 34.6795 49.063 34.7484 49.1967C36.0318 51.7278 37.9469 53.9965 40.3948 55.8652C42.047 57.1307 43.9381 58.2123 46.0422 59.0728C47.8643 59.8183 49.8432 60.4029 51.9643 60.7893C53.8604 61.1391 55.8715 61.3324 57.9755 61.3555C63.9997 61.4199 69.6548 58.1754 72.3886 52.7541C73.2952 50.9592 73.9998 48.9481 74.5336 46.7668Z" fill="#0EF275"/>
<path d="M51.9639 12.7152V42.606C51.9639 42.7212 51.8349 42.7902 51.7381 42.7256C49.2812 41.069 47.3571 38.547 45.9906 35.3853C45.9807 35.3669 45.9766 35.3484 45.9766 35.3256V12.5725C45.9766 12.2641 46.2296 12.0156 46.5334 12.0156H51.2601C51.6421 12.0156 51.9589 12.3286 51.9589 12.7152H51.9639Z" fill="#0EF275"/>
<path d="M63.3182 42.3263C63.2032 42.409 63.0462 42.2941 63.1012 42.1607C65.0113 37.3837 68.063 33.9597 72.6368 32.6663C74.9056 32.022 77.3225 32.1326 79.5814 32.8137C79.8253 32.8874 80.0742 32.9655 80.3132 33.0436C82.555 33.7617 84.5432 34.5946 86.3013 35.5566C88.5791 36.799 90.4662 38.2532 92.0075 39.9332C95.123 43.3204 96.8442 47.6324 97.5719 53.0216C97.7239 54.1675 97.8337 55.3549 97.9027 56.6021C97.9626 57.6836 97.9907 58.8065 97.9907 59.9661V75.4297C97.9907 75.7335 97.7418 75.9863 97.4341 75.9863H92.7022C92.3205 75.9863 92.0026 75.6736 92.0026 75.2867V55.18C92.0026 50.15 89.7935 45.6397 86.2963 42.5471C84.5751 41.0285 82.5462 39.8548 80.309 39.1368C78.675 38.6077 76.9268 38.3225 75.1176 38.3225C70.9524 38.3225 66.7235 39.8273 63.3182 42.3263Z" fill="#0EF275"/>
<path d="M57.9295 41.2345C57.8874 41.4048 57.6396 41.3679 57.6487 41.1933C57.9105 36.5128 58.5501 32.044 60.0734 29.0204C62.8071 23.6037 68.4584 20.3547 74.4878 20.4238C76.5266 20.4467 78.4777 20.617 80.3318 20.9208C80.4198 20.9346 80.4979 20.8701 80.4979 20.7827V12.7152C80.4979 12.3332 80.8106 12.0156 81.1975 12.0156H85.7812C86.1681 12.0156 86.4811 12.3286 86.4811 12.7152V22.435C86.4811 22.4947 86.5179 22.5453 86.5729 22.5684C88.4921 23.3139 90.2362 24.239 91.7825 25.325C91.8793 25.3893 92.0033 25.325 92.0033 25.21V12.7152C92.0033 12.3332 92.3163 12.0156 92.7029 12.0156H97.2908C97.6777 12.0156 97.9906 12.3286 97.9906 12.7152V38.7403C97.9906 38.8921 97.7885 38.9383 97.7198 38.8046C96.4352 36.2735 94.5212 34.0045 92.0724 32.1362C90.4202 30.8706 88.529 29.789 86.4261 28.9286C84.6028 28.183 82.6239 27.5984 80.5028 27.212C78.6067 26.8622 76.5956 26.6689 74.4927 26.6458C68.4686 26.5814 62.8121 29.8259 60.0786 35.2472C59.1719 37.0422 58.4674 39.0532 57.9336 41.2345H57.9295Z" fill="#0EF275"/>
<path d="M80.498 75.285V45.3944C80.498 45.2795 80.627 45.2102 80.7238 45.2748C83.1807 46.9314 85.1048 49.4534 86.471 52.6151C86.4812 52.6335 86.4851 52.652 86.4851 52.6751V75.428C86.4851 75.7357 86.2323 75.9846 85.9285 75.9846H81.2018C80.8198 75.9846 80.503 75.6719 80.503 75.285H80.498Z" fill="#0EF275"/>
</g>
</svg>
