<svg width="132" height="88" viewBox="0 0 132 88" fill="none" xmlns="http://www.w3.org/2000/svg">
<path d="M66.1386 33.0724C66.1386 33.0724 73.6762 42.9612 73.6762 47.2486C73.6762 51.4669 70.2186 54.9245 66.0003 54.9245C61.7821 54.9245 58.3245 51.4669 58.3245 47.2486C58.3245 42.9612 66.1386 33.0724 66.1386 33.0724Z" fill="#01A9E9"/>
<path d="M66.0004 8.52344C46.4304 8.52344 30.5254 24.4284 30.5254 43.9984C30.5254 63.5685 46.4304 79.4734 66.0004 79.4734C85.5704 79.4734 101.475 63.5685 101.475 43.9984C101.475 24.4284 85.5704 8.52344 66.0004 8.52344ZM77.9637 15.0237C85.6396 18.2047 91.7941 24.3593 94.9751 32.0351L87.7833 35.0087C85.363 29.1999 80.7989 24.5667 74.9902 22.2155L77.9637 15.0237ZM54.0371 15.0237L57.0106 22.2155C51.2019 24.6359 46.5687 29.1999 44.2175 35.0087L37.0257 32.0351C40.2067 24.2901 46.2921 18.2047 54.0371 15.0237ZM54.0371 72.9731C46.3612 69.7921 40.2067 63.6376 37.0257 55.9617L44.2175 52.9882C46.6378 58.797 51.2019 63.4302 57.0106 65.7813L54.0371 72.9731ZM46.5687 43.9984C46.5687 33.2799 55.2818 24.5667 66.0004 24.5667C76.719 24.5667 85.4321 33.2799 85.4321 43.9984C85.4321 54.717 76.719 63.4302 66.0004 63.4302C55.2818 63.4302 46.5687 54.717 46.5687 43.9984ZM77.9637 72.9731L74.9902 65.7813C80.7989 63.361 85.4321 58.797 87.7833 52.9882L94.9751 55.9617C91.7941 63.7068 85.7087 69.7921 77.9637 72.9731Z" fill="#01A9E9"/>
</svg>
