<svg width="132" height="88" viewBox="0 0 132 88" fill="none" xmlns="http://www.w3.org/2000/svg">
<path fill-rule="evenodd" clip-rule="evenodd" d="M71.8074 33.3522V40.1271H60.1933V9.15625H52.4505V40.1271H44.7078V40.2626C38.142 41.2034 33.0938 46.8516 33.0938 53.6769C33.0938 60.5021 38.142 66.1504 44.7078 67.0912V67.2266H60.1933V47.8698H71.8074V78.8406H79.5501V47.8698H85.3571C92.8404 47.8698 98.9069 41.8034 98.9069 34.32C98.9069 26.8367 92.8404 20.7703 85.3571 20.7703H71.8074V33.3522ZM40.8365 53.6769C40.8365 50.4694 43.4438 47.8698 46.6435 47.8698H52.4505V59.4839H46.6435C43.4361 59.4839 40.8365 56.8765 40.8365 53.6769ZM91.1642 34.32C91.1642 37.5275 88.5568 40.1271 85.3571 40.1271H79.5501V28.513H85.3571C88.5646 28.513 91.1642 31.1204 91.1642 34.32Z" fill="#9179BA"/>
</svg>
