<svg width="132" height="88" viewBox="0 0 132 88" fill="none" xmlns="http://www.w3.org/2000/svg">
<path d="M66.0004 78.0984C84.8333 78.0984 100.1 62.8313 100.1 43.9984C100.1 25.1655 84.8333 9.89844 66.0004 9.89844C47.1675 9.89844 31.9004 25.1655 31.9004 43.9984C31.9004 62.8313 47.1675 78.0984 66.0004 78.0984Z" fill="#6C3BD3"/>
<path d="M65.5867 27.1797C60.2123 31.814 56.1534 33.4081 47.1836 34.5547V41.0943C47.1836 51.9986 54.4983 61.5471 65.0265 64.3863L65.5867 64.5372L66.7697 64.2333C77.4322 61.4912 84.886 51.8786 84.886 40.8692V34.5547C76.2481 33.5572 72.031 31.9582 65.5867 27.1797Z" stroke="#A896F3" stroke-width="3.20171" stroke-linejoin="round"/>
</svg>
