<svg width="132" height="88" viewBox="0 0 132 88" fill="none" xmlns="http://www.w3.org/2000/svg">
<path d="M37.125 24.5253C37.125 17.6164 42.8133 12.0156 49.83 12.0156C56.8466 12.0156 62.535 17.6164 62.535 24.5253V75.9852H50.1188C42.9422 75.9852 37.125 70.2569 37.125 63.1914V24.5253Z" fill="#07D68B"/>
<path d="M69.4639 47.5546H81.8799C89.0565 47.5546 94.8736 53.2826 94.8736 60.3484V63.476C94.8736 70.3851 89.1855 75.9855 82.1689 75.9855C75.152 75.9855 69.4639 70.3851 69.4639 63.476V47.5546Z" fill="#2EA2F6"/>
<path d="M69.4639 24.5253C69.4639 17.6164 75.152 12.0156 82.1689 12.0156C89.1855 12.0156 94.8736 17.6164 94.8736 24.5253V40.4467H82.4577C75.281 40.4467 69.4639 34.7184 69.4639 27.6526V24.5253Z" fill="#FAC600"/>
</svg>
