<svg width="132" height="88" viewBox="0 0 132 88" fill="none" xmlns="http://www.w3.org/2000/svg">
<path fill-rule="evenodd" clip-rule="evenodd" d="M74.5649 11.9609H33.9629V52.5629H74.5649V11.9609ZM84.0808 34.7999H98.0377V76.0363H56.8013V62.7138H84.0808V34.7999Z" fill="url(#paint0_linear_2056_26921)"/>
<mask id="path-2-inside-1_2056_26921" fill="white">
<path fill-rule="evenodd" clip-rule="evenodd" d="M74.5649 11.9609H33.9629V52.5629H74.5649V11.9609ZM84.0808 34.7999H98.0377V76.0363H56.8013V62.7138H84.0808V34.7999Z"/>
</mask>
<path d="M33.9629 11.9609V10.0577H32.0597V11.9609H33.9629ZM74.5649 11.9609H76.4681V10.0577H74.5649V11.9609ZM33.9629 52.5629H32.0597V54.4661H33.9629V52.5629ZM74.5649 52.5629V54.4661H76.4681V52.5629H74.5649ZM98.0377 34.7999H99.9409V32.8967H98.0377V34.7999ZM84.0808 34.7999V32.8967H82.1776V34.7999H84.0808ZM98.0377 76.0363V77.9395H99.9409V76.0363H98.0377ZM56.8013 76.0363H54.8981V77.9395H56.8013V76.0363ZM56.8013 62.7138V60.8105H54.8981V62.7138H56.8013ZM84.0808 62.7138V64.617H85.984V62.7138H84.0808ZM33.9629 13.8642H74.5649V10.0577H33.9629V13.8642ZM35.8661 52.5629V11.9609H32.0597V52.5629H35.8661ZM74.5649 50.6597H33.9629V54.4661H74.5649V50.6597ZM72.6617 11.9609V52.5629H76.4681V11.9609H72.6617ZM98.0377 32.8967H84.0808V36.7031H98.0377V32.8967ZM99.9409 76.0363V34.7999H96.1345V76.0363H99.9409ZM56.8013 77.9395H98.0377V74.1331H56.8013V77.9395ZM54.8981 62.7138V76.0363H58.7045V62.7138H54.8981ZM84.0808 60.8105H56.8013V64.617H84.0808V60.8105ZM82.1776 34.7999V62.7138H85.984V34.7999H82.1776Z" fill="url(#paint1_linear_2056_26921)" mask="url(#path-2-inside-1_2056_26921)"/>
<defs>
<linearGradient id="paint0_linear_2056_26921" x1="33.9629" y1="13.8642" x2="98.0382" y2="76.0358" gradientUnits="userSpaceOnUse">
<stop stop-color="#0A00F0"/>
<stop offset="1" stop-color="#F60064"/>
</linearGradient>
<linearGradient id="paint1_linear_2056_26921" x1="33.9629" y1="13.8642" x2="98.0382" y2="76.0358" gradientUnits="userSpaceOnUse">
<stop stop-color="#31169E"/>
<stop offset="1" stop-color="#B10565"/>
</linearGradient>
</defs>
</svg>
