<svg width="132" height="88" viewBox="0 0 132 88" fill="none" xmlns="http://www.w3.org/2000/svg">
<path d="M80.9511 69.5507C80.5515 69.5708 80.1517 69.5708 79.7518 69.5408C78.3125 69.4209 77.3728 69.1709 76.3234 69.9308C75.134 70.7901 74.2645 72.0397 73.055 72.8592C70.926 74.3085 67.9972 74.1985 65.6584 73.1092C63.3195 72.0197 61.1805 70.3903 59.6114 68.3413C57.7122 65.8627 56.4129 62.8539 55.1734 59.9953C54.6336 58.7658 54.0641 57.1367 53.2242 56.5968C52.6047 56.197 51.2753 56.2371 50.4157 56.1071C45.1183 55.2576 40.4204 51.3793 38.5713 46.3517C38.3014 45.6221 38.0915 44.8623 38.1715 44.0929C38.2515 43.3231 38.7912 42.2237 39.6408 41.9039C40.4304 41.614 41.0601 41.9239 41.7398 42.4335C42.4095 42.9434 42.8893 43.8929 43.399 44.5626C46.3077 48.3807 50.6555 51.0696 55.3734 51.959C56.3328 52.1391 57.6424 52.039 57.8723 51.0894C57.4524 50.9794 57.0225 50.8595 56.6727 50.4896C51.4752 46.7615 46.8374 41.9737 44.2986 36.0667C43.449 34.0776 42.8193 32.0385 42.9192 29.8795C42.9592 29.0399 43.2291 28.0103 43.6389 27.2607C43.9887 26.621 44.7083 25.9313 45.4082 25.7515C46.2676 25.5216 47.1973 25.5614 47.887 26.1213C48.5765 26.6911 48.9065 27.9105 49.3561 28.67C51.0055 31.4687 52.3948 34.4173 54.2538 37.0861C56.1131 39.7547 58.5119 42.1637 61.5504 43.3132C62.1802 43.553 62.8597 43.7629 63.2796 44.2826C63.7094 44.8125 63.7595 45.5421 63.6693 46.2117C63.5895 46.7716 63.2796 47.4311 62.7098 47.4413C62.31 47.4512 61.9703 47.0915 61.8502 46.7015C61.7303 46.3118 61.7704 45.9018 61.7803 45.5022C61.8202 43.473 61.7303 45.5022 61.6304 45.4822C61.8903 44.6126 61.8004 43.643 61.3904 42.8334C58.2919 38.1457 56.1131 32.8481 55.0236 27.3407C54.6438 25.4217 54.3938 23.4327 54.7136 21.5035C55.0835 19.3145 56.263 17.1755 58.3018 16.196C58.8117 15.9461 59.4016 15.8462 59.9612 15.9661C61.3004 16.256 61.5603 17.4354 61.7303 18.4949C62.5698 23.5226 62.9697 28.65 64.4189 33.5378C65.6584 37.7057 67.6474 41.614 69.6266 45.4921C69.7966 45.8119 69.9665 46.1518 70.2762 46.3517C70.5861 46.5516 71.0459 46.5516 71.2557 46.2519C70.676 44.7424 70.0963 43.2233 69.5067 41.7138C69.3967 41.784 69.2867 41.8439 69.2969 42.0238C69.097 42.3235 69.4267 42.7635 69.7864 42.7533C70.1464 42.7434 70.4263 42.4035 70.5162 42.0537C70.5963 41.7039 70.3763 41.3341 70.3061 40.9843C69.2367 35.6567 68.7469 30.2194 68.8569 24.792C68.9069 22.5329 69.2067 20.2541 70.0864 18.1251C70.4863 17.1755 71.036 16.286 71.7356 15.5263C72.2952 14.9266 73.0149 14.4968 73.7846 14.1869C74.5942 13.8571 76.2434 14.2169 76.6531 14.8666C77.3129 15.9061 77.3728 16.8357 77.2631 18.0651C76.5533 26.3411 75.244 34.6573 76.5734 42.8633C76.8333 44.4726 77.1831 46.1017 78.0826 47.5513C78.5924 49.2802 80.0917 50.5298 81.6909 51.3595C83.29 52.179 85.0393 52.6786 86.6387 53.5083C88.2279 54.338 89.7272 55.6272 90.1969 57.3564C90.6666 59.0757 90.8066 60.9647 90.5167 62.594C90.1169 64.873 88.0879 66.952 86.1288 68.1716C84.5195 69.191 82.8703 69.4509 80.9511 69.5507Z" fill="#F0B22A"/>
<path d="M63.299 69.9522C64.7983 71.1817 66.4576 71.9913 68.2468 72.491C70.0359 72.9909 72.2648 72.9208 73.744 71.7914C75.823 70.2021 75.573 69.2025 77.0325 68.6228C78.0021 68.2331 79.6213 68.333 80.9306 68.303C82.8696 68.2529 84.6288 68.1231 86.658 67.1235C89.5364 65.3245 90.3862 63.4853 91.1358 61.0565C91.8855 58.6274 91.9655 56.0586 92.1253 53.5198C92.2853 50.981 92.5452 48.4023 93.6045 46.0934C94.3742 44.4242 95.5336 42.965 96.3234 41.3156C96.7731 40.3762 97.0929 39.2366 96.5632 38.3371C95.9835 37.3575 94.6341 37.1378 93.5047 37.3176C91.2258 37.6974 89.2867 39.2567 87.9472 41.1459C86.608 43.025 85.7984 45.2239 84.9987 47.3928C84.8287 47.6326 84.4888 47.7027 84.2289 47.6128C83.9691 47.5229 83.7694 47.3029 83.5893 47.103C80.1411 43.1047 78.6016 37.7774 77.9521 32.5398C77.3022 27.3024 77.3622 22.6645 77.3622 17.1771C77.3622 16.6074 77.0723 15.418 76.7126 14.9882C76.2528 14.4184 75.1633 14.4184 74.4937 14.5984C73.824 14.7783 73.2542 15.2381 72.7845 15.7478C71.5151 17.1472 70.8353 19.0063 70.5656 20.8754C70.2958 22.7446 70.3857 24.6536 70.4855 26.5426C70.6756 30.1509 70.8653 33.7594 71.0454 37.3776C71.0652 37.7175 71.0754 38.0571 70.9552 38.3772C70.8353 38.697 70.5257 38.9569 70.1957 38.9269C69.8258 38.897 69.586 38.537 69.396 38.2271C65.9978 32.44 63.5789 26.0828 62.2694 19.516C62.0095 18.2266 61.6198 16.7074 60.3804 16.2576C59.4608 15.9277 58.4012 16.3775 57.7418 17.1072C57.082 17.8368 56.752 18.7864 56.4322 19.7159C55.6427 22.9844 56.2724 26.5327 57.3518 29.8211C58.4414 33.1096 59.9706 36.238 61.11 39.5165C61.2598 39.9365 61.3998 40.3762 61.33 40.8159C61.2598 41.2556 60.91 41.6756 60.4703 41.6756C60.1505 41.6756 59.8807 41.4657 59.6307 41.2658C55.6325 37.9672 52.3441 33.7993 50.0852 29.1314C49.7054 28.3419 49.3457 27.5323 48.7759 26.8726C48.2061 26.203 47.3866 25.6931 46.5168 25.733C45.3376 25.783 44.388 26.8225 44.058 27.952C43.7283 29.0814 43.8782 30.2908 44.0281 31.4604C44.6677 34.5088 46.1472 37.4276 48.0563 39.9862C49.9653 42.5451 52.2742 44.774 54.703 46.853C55.063 47.1629 55.4227 47.4728 55.6625 47.8826C55.8924 48.2923 55.9724 48.8223 55.7227 49.2218C55.4928 49.5917 53.7735 49.3219 53.3437 49.2119C49.0958 48.1925 45.3976 45.7736 42.199 42.7951C41.6592 42.2852 41.0395 41.7256 40.2999 41.7655C39.5102 41.8054 38.9005 42.5751 38.7906 43.3547C38.6807 44.1442 38.9505 44.9239 39.2704 45.6537C40.5198 48.4524 42.5988 50.8713 45.1677 52.5304C47.7463 54.1894 50.8049 55.0791 53.8934 55.0491C55.063 56.0487 55.5726 57.5879 56.1424 59.0173C57.7816 63.1055 59.9305 67.1936 63.299 69.9522Z" fill="#F3CF28"/>
<path d="M96.8331 38.8239C96.8331 38.8239 96.6032 35.9652 92.5453 36.4349C90.4361 36.675 87.9275 38.374 86.2682 40.693C84.839 42.692 83.9593 44.801 83.4494 46.6003C83.3496 46.96 82.9198 46.8 80.9508 46.8C78.5418 46.8 75.1835 47.9794 73.5142 50.1286C72.3947 51.5679 71.8851 52.6773 71.6651 54.4865C71.5752 55.2961 71.5851 57.495 72.9045 59.494C72.9846 59.6141 72.5547 57.685 72.4846 56.7253C72.3449 54.6762 73.4042 52.5673 73.5541 52.3374C74.9137 50.2584 76.1031 49.5189 77.6024 48.9991C79.0315 48.4992 79.8213 48.4494 80.9406 48.5094C81.6105 48.5393 82.7297 48.6194 83.1497 48.5792C83.9892 48.4992 84.7389 47.9695 85.0488 47.18C85.0488 47.1698 85.0287 47.2199 85.0287 47.21C85.3686 46.3003 85.7883 45.3408 86.308 44.1314C86.8179 42.9618 87.7075 41.3726 88.5771 40.3531C89.2668 39.5435 90.5961 38.3341 91.5058 37.9144C93.0051 37.2247 93.9745 37.0947 94.9441 37.3545C96.4833 37.7745 96.6733 38.9737 96.8331 38.8239Z" fill="#EFB22D"/>
<path d="M83.3281 29.5502C83.398 25.2522 84.9572 21.0042 87.666 17.6758" stroke="#4A4A4A" stroke-width="1.2375" stroke-miterlimit="10" stroke-linecap="round"/>
<path d="M87.4785 29.3902C88.0681 27.5012 89.3675 25.8418 91.0568 24.8125" stroke="#4A4A4A" stroke-width="1.2375" stroke-miterlimit="10" stroke-linecap="round"/>
<path d="M44.118 59.3551C42.2687 59.6549 40.3097 59.2853 38.6904 58.3357C37.0712 57.3861 35.8018 55.8568 35.1621 54.0977" stroke="#4A4A4A" stroke-width="1.2375" stroke-miterlimit="10" stroke-linecap="round"/>
<path d="M37.4707 65.1921C39.6197 66.1816 42.3084 65.8618 44.1676 64.4023" stroke="#4A4A4A" stroke-width="1.2375" stroke-miterlimit="10" stroke-linecap="round"/>
</svg>
