<svg width="132" height="88" viewBox="0 0 132 88" fill="none" xmlns="http://www.w3.org/2000/svg">
<path fill-rule="evenodd" clip-rule="evenodd" d="M81.6654 17.1101C80.8555 16.6444 79.8199 16.9208 79.3527 17.7273C78.8846 18.5339 79.1621 19.5651 79.972 20.0308C80.7818 20.4964 81.8175 20.2201 82.2847 19.4136C82.7528 18.607 82.4753 17.5758 81.6654 17.1101ZM42.538 30.6397C48.994 19.5031 62.218 14.6845 74.0476 18.3617C73.975 20.7632 75.1966 23.1264 77.4326 24.4118C79.6678 25.6971 82.3323 25.5693 84.3846 24.3065C93.494 32.6717 95.9151 46.4847 89.46 57.62C81.9795 70.5243 65.4113 74.9463 52.4535 67.496C39.4969 60.0452 35.0574 43.5441 42.538 30.6397ZM84.2048 12.729C86.8811 14.2676 88.1034 17.3503 87.3939 20.1946C98.5716 30.0842 101.627 46.7495 93.8589 60.1494C84.975 75.4732 65.301 80.7238 49.9142 71.8768C34.5277 63.0292 29.2564 43.4344 38.1393 28.1103C45.908 14.7089 61.9298 9.01183 76.1198 13.7107C78.2378 11.677 81.5293 11.1905 84.2048 12.729ZM67.9971 35.7726C67.9971 34.3756 66.8602 33.2431 65.458 33.2431C64.0547 33.2431 62.9176 34.3756 62.9176 35.7726V52.6353C62.9176 54.0323 64.0547 55.1648 65.458 55.1648C66.8602 55.1648 67.9971 54.0323 67.9971 52.6353V35.7726Z" fill="#333333"/>
</svg>
