<svg width="132" height="88" viewBox="0 0 132 88" fill="none" xmlns="http://www.w3.org/2000/svg">
<mask id="mask0_2056_25908" style="mask-type:luminance" maskUnits="userSpaceOnUse" x="37" y="12" width="58" height="64">
<path d="M37.2139 12.0156H94.7867V75.9852H37.2139V12.0156Z" fill="white"/>
</mask>
<g mask="url(#mask0_2056_25908)">
<path fill-rule="evenodd" clip-rule="evenodd" d="M41.2537 23.6933C41.1728 23.6807 41.0888 23.6664 40.9989 23.6496L40.8939 23.6334C40.8829 23.6306 40.8689 23.6279 40.8539 23.6246C40.8269 23.6188 40.7939 23.6114 40.757 23.6009L40.676 23.5767L40.5471 23.536C40.5271 23.5272 40.5141 23.5225 40.5001 23.5176C40.4751 23.5091 40.4471 23.4992 40.3701 23.4629C40.3382 23.445 40.3162 23.4334 40.2972 23.4233C40.2372 23.3925 40.2062 23.3765 40.0233 23.2352C39.9893 23.1931 39.9493 23.1554 39.9073 23.1153C39.7205 22.9387 39.4826 22.7143 39.4436 21.8538C39.4716 21.2617 39.8474 20.8763 40.0043 20.7359L39.7254 20.6998C39.6925 20.6937 39.6635 20.6891 39.6335 20.6843C39.5435 20.6703 39.4446 20.655 39.2337 20.5942C39.2027 20.5815 39.1797 20.5743 39.1577 20.5673C39.0948 20.5475 39.0368 20.5293 38.7989 20.3911C38.3801 21.0005 37.5745 17.5387 38.7669 17.6444C39.0338 17.4851 39.1277 17.4598 39.2017 17.4395C39.2267 17.4329 39.2487 17.4269 39.2747 17.4169C39.3366 17.3883 39.3746 17.3798 39.4116 17.3717C39.4276 17.3682 39.4426 17.3648 39.4596 17.36C39.6285 17.3274 39.7414 17.3112 39.8464 17.303C39.9823 17.2873 40.1043 17.2784 40.2242 17.2696C40.2892 17.2648 40.3532 17.2601 40.4181 17.2544C40.5551 17.2451 40.689 17.2371 40.8209 17.2302C40.8319 16.9049 40.9559 16.55 41.2727 16.1898C41.5925 15.8959 41.8085 15.8213 41.8764 15.7977C41.8834 15.7951 41.8894 15.7932 41.8934 15.7917C41.9764 15.762 42.0083 15.7534 42.0384 15.7457C42.0563 15.7407 42.0743 15.7362 42.1023 15.7266L42.2313 15.6941L42.3362 15.6697C42.4411 15.6499 42.5301 15.6354 42.6111 15.6263C42.5601 15.6183 42.5071 15.6084 42.4491 15.5966C42.4162 15.5884 42.3852 15.5822 42.3532 15.5758C42.2592 15.5568 42.1513 15.5352 41.9414 15.4503C41.8604 15.4178 41.7645 15.3772 41.5626 15.2309C41.3936 15.2797 40.725 14.1339 41.1997 13.4594C41.4536 13.072 41.5986 12.9873 41.6995 12.9281C41.7295 12.9104 41.7555 12.8949 41.7805 12.8743C41.8764 12.8256 41.9414 12.7931 41.9973 12.7687C42.1573 12.7067 42.2562 12.6826 42.3472 12.6602C42.3762 12.6533 42.4042 12.6464 42.4332 12.6387C42.5921 12.6042 42.728 12.5819 42.859 12.5603C42.9129 12.5513 42.9669 12.5425 43.0209 12.533C43.3787 12.4869 43.7076 12.4555 44.0284 12.4247C44.0474 12.4229 44.0653 12.4211 44.0845 12.4193C45.4628 12.2973 46.8001 12.2161 48.1694 12.1755C50.2844 12.1248 52.3604 12.1087 54.4435 12.0925C55.0342 12.0879 55.626 12.0833 56.2186 12.0779C62.8984 12.0292 71.9142 11.9805 79.2067 12.0373C82.848 12.0617 86.0635 12.1267 88.3353 12.2161C90.6074 12.3217 91.9208 12.4355 91.8248 12.6874C91.7277 12.9474 90.6962 13.2319 88.8353 13.4594C88.0284 13.5619 87.067 13.6583 85.9585 13.7485C87.3129 13.781 88.6653 13.8179 90.0277 13.8739C90.3225 13.8845 90.6142 13.8986 90.9121 13.9161C91.0402 13.9034 91.1651 13.8893 91.2841 13.8739L91.4618 13.8495L91.486 13.8413C91.4948 13.8728 91.494 13.8532 91.4929 13.838C91.4909 13.8163 91.4898 13.8036 91.522 13.9588L91.7519 13.9794L91.9606 14.0038L92.0176 14.012L92.1146 14.0282L92.2106 14.0526C92.2065 14.0515 92.2076 14.0518 92.2125 14.0534C92.2466 14.0631 92.4474 14.122 92.5654 14.1989C92.5494 14.1745 93.065 14.3939 93.1451 15.2634C93.0111 16.049 92.6253 16.2238 92.5654 16.2509C92.5604 16.253 92.5585 16.2543 92.5574 16.2549C92.4254 16.33 92.3995 16.3393 92.3696 16.3502C92.3575 16.3546 92.3445 16.3592 92.3236 16.3686C92.2895 16.3834 92.2585 16.3922 92.2356 16.3986C92.2205 16.4028 92.2095 16.406 92.2026 16.4092C92.1097 16.4387 92.0456 16.451 91.9898 16.4618C91.9686 16.4659 91.9488 16.4697 91.9287 16.4743C91.8058 16.4938 91.7087 16.5081 91.6089 16.5214C91.6009 16.5804 91.5968 16.6247 91.5987 16.6449H91.5828L91.4128 16.6287C91.266 16.6122 91.1081 16.5998 90.9473 16.5896C90.6563 16.6154 90.3703 16.6362 90.0887 16.6543C90.0975 16.6906 90.1077 16.7311 90.1187 16.7744L90.1245 16.7749L90.3016 16.7912C90.3274 16.7941 90.3475 16.796 90.3676 16.7979C90.4044 16.8014 90.4443 16.8051 90.5273 16.8156C90.5334 16.8167 90.5403 16.8178 90.5474 16.819C90.5914 16.8261 90.6393 16.8341 90.6882 16.8481L90.7693 16.8643C90.8032 16.8643 90.8562 16.8824 90.9011 16.8978C90.9082 16.9003 90.9151 16.9026 90.9222 16.9049C90.9222 16.9049 91.0592 16.9455 91.2599 17.0999C91.3411 16.7586 91.9527 18.4245 91.5099 18.587C91.2641 18.9179 91.1222 18.9797 91.06 19.0066C91.0432 19.014 91.0322 19.0188 91.0262 19.0258C90.9401 19.0693 90.8862 19.087 90.8582 19.096C90.8551 19.0971 90.8521 19.0981 90.8491 19.099L90.7443 19.1315L90.6723 19.1478L90.5513 19.1722L90.3414 19.2128C90.2804 19.2216 90.2204 19.2299 90.1605 19.2379C90.1495 19.307 90.1346 19.395 90.1165 19.5053C90.1487 19.5134 90.0994 19.5053 90.0675 19.4972L89.8577 19.4736C90.1016 20.0313 90.1385 21.7217 89.5118 21.7157C89.495 21.7246 89.4799 21.7329 89.4647 21.7404C89.7128 21.7521 89.9617 21.7652 90.2125 21.7806C90.2985 21.7869 90.3835 21.7927 90.4693 21.7985C90.6343 21.8096 90.8012 21.8209 90.9701 21.8362C91.0221 21.8314 91.0732 21.8264 91.123 21.8213L91.2929 21.7969C91.2929 21.7895 91.2929 21.7822 91.31 21.8709C91.459 21.8869 91.6139 21.9095 91.8077 21.9431C91.8328 21.9486 91.8528 21.9532 91.8737 21.9576C91.9147 21.9666 91.9557 21.9757 92.0255 21.9919C92.0577 22.0001 92.0885 22.0103 92.1185 22.0205C92.1485 22.0304 92.1787 22.0408 92.2106 22.0488C92.1867 22.0326 92.5013 22.1464 92.7342 22.3901C93.0972 22.0243 93.186 24.6979 92.5813 24.3891C92.3624 24.5425 92.2994 24.5609 92.2436 24.5774C92.2197 24.5846 92.1966 24.5915 92.1625 24.6085C92.1476 24.614 92.1325 24.619 92.1196 24.6234C92.5214 25.2476 92.0976 27.9863 91.7357 27.006C91.5657 27.0777 91.53 27.0857 91.494 27.0937C91.4769 27.0973 91.4599 27.1011 91.4291 27.1116C91.3331 27.1358 91.2759 27.144 91.2201 27.152L90.9462 27.1844C90.8851 27.1908 90.8263 27.1965 90.7671 27.2018C90.7163 27.383 90.7014 27.4267 90.7204 27.339H90.5755C90.5254 27.339 90.4803 27.334 90.4253 27.328C90.4094 27.3263 90.3923 27.3247 90.3733 27.3228L90.0277 27.3065L89.5558 27.29C89.5907 27.3052 89.6317 27.3239 89.6809 27.347C90.4594 27.7174 90.2826 28.6312 89.9716 29.308C90.0387 29.3099 90.1055 29.3118 90.1726 29.3138C90.7693 29.33 91.2839 29.3707 91.9287 29.4518L92.1947 29.4925C92.2205 29.4983 92.2455 29.5035 92.2717 29.5085C92.3525 29.5247 92.4435 29.5428 92.5893 29.5981C92.6382 29.6143 92.6943 29.6388 92.7914 29.6875C92.8142 29.7029 92.8373 29.7142 92.8624 29.7271C92.9421 29.7672 93.0483 29.8203 93.2751 30.0612C93.6689 30.1751 93.694 31.7192 93.315 31.8652C93.1022 32.1174 92.9872 32.1837 92.9042 32.2312C92.8802 32.245 92.8593 32.2571 92.8393 32.2717C92.6822 32.3544 92.6063 32.3786 92.5425 32.399C92.5315 32.4026 92.5205 32.4061 92.5095 32.4097C92.4364 32.4342 92.3806 32.4504 92.3236 32.4666C92.1237 32.5161 91.9546 32.5467 91.7978 32.5703C91.8916 32.6413 92.0057 32.7325 92.1465 32.8486C92.4105 35.6019 91.6779 35.3588 91.4098 35.2697C91.318 35.2392 91.2811 35.2268 91.357 35.3596C91.2591 35.3885 91.1981 35.4028 91.153 35.4108C91.2311 35.5689 91.3411 35.8486 91.5099 36.3428C91.4439 36.5534 91.3809 36.7371 91.3199 36.8972L91.8157 36.9359C92.0737 36.9687 92.3646 37.0173 92.6382 37.066L93.0491 37.1392C93.0733 37.1392 93.1371 37.1554 93.2991 37.2123C93.307 37.2164 93.3169 37.2206 93.331 37.2258C93.4011 37.2533 93.549 37.3116 93.7979 37.5294C94.8624 38.1795 93.686 40.146 93.5809 39.8127C93.364 39.9332 93.2611 39.9739 93.197 39.9915C93.2562 40.0239 93.3112 40.0605 93.3631 40.0973C93.3829 40.1119 93.3939 40.1193 93.4041 40.1257C93.4269 40.1405 93.4429 40.1504 93.532 40.2354C93.686 40.3817 93.8229 40.6011 93.8947 40.8286C93.9679 41.064 93.9758 41.2512 93.9437 41.4869C93.9159 41.6412 93.8587 41.8067 93.7798 41.9533C94.3735 42.0353 94.5355 42.1392 94.2816 42.2712C94.7464 42.4621 93.9758 42.6887 92.0376 42.9345C91.9458 42.9568 91.8586 42.9741 91.7838 42.9821C91.5239 43.0277 91.296 43.0473 91.0782 43.066C91.0251 43.0704 90.9731 43.0748 90.9222 43.0794C90.8623 43.0838 90.8032 43.0882 90.7451 43.0924C90.9913 43.1061 91.239 43.121 91.486 43.1372L91.503 43.1386C91.8927 43.1707 92.2906 43.2032 92.7194 43.2835C92.9363 43.3242 93.1701 43.3729 93.3799 43.4378L93.6698 43.5192C93.6728 43.5203 93.6769 43.5216 93.683 43.523C93.7217 43.5357 93.8229 43.5676 93.9357 43.6248C94.0088 43.1696 95.1682 44.9981 94.1617 45.7051C93.9269 45.877 93.7927 45.9163 93.7308 45.9342C93.7228 45.937 93.716 45.9389 93.7099 45.9408C93.6838 45.9482 93.661 45.954 93.642 45.959C93.5969 45.9708 93.5688 45.9782 93.5411 45.9895C93.4099 46.0208 93.318 46.0329 93.2311 46.0442C93.205 46.0475 93.18 46.0508 93.1541 46.0547L92.9231 46.0783C92.9042 46.141 92.9102 46.1179 92.9201 46.0788L92.8404 46.0871L92.4576 46.1187C92.5084 46.1289 92.5695 46.1421 92.6465 46.16C92.6674 46.1685 92.6844 46.1726 92.7042 46.1773C92.7592 46.1905 92.8343 46.2084 93.0741 46.347C94.0966 46.4771 93.1222 49.3945 92.9042 48.5899C92.7653 48.6531 92.7042 48.668 92.6484 48.6812C92.6393 48.6834 92.6314 48.6853 92.6223 48.6875L92.5335 48.7037L91.8806 48.8093C91.8347 48.8157 91.7877 48.8214 91.7417 48.8272C91.8039 49.4765 91.6639 50.4692 91.437 50.8273L91.519 50.841L91.6397 50.8652C91.6807 50.8823 91.6988 50.8848 91.7159 50.8872C91.7569 50.8925 91.7937 50.8974 92.1146 51.0847C93.1451 52.1236 92.3165 53.1329 91.9208 53.4293C92.0247 53.4447 92.1317 53.4621 92.2436 53.4819C92.3806 53.5063 92.5175 53.5308 92.7034 53.5795C92.7243 53.5866 92.7463 53.5924 92.7702 53.5987C92.8002 53.6062 92.8324 53.6147 92.8723 53.6282L92.9933 53.6768C93.0331 53.6933 93.0901 53.7175 93.1781 53.7662C93.1921 53.7758 93.2091 53.7852 93.227 53.7956C93.3021 53.8388 93.414 53.9034 93.5889 54.0995C93.8147 54.2213 94.1375 55.2941 93.686 55.7734C93.4729 56.0696 93.301 56.1702 93.2111 56.2225C93.202 56.2277 93.194 56.2324 93.186 56.2365C93.0961 56.2858 93.054 56.3045 92.9971 56.3295C92.9883 56.3336 92.9792 56.3377 92.9693 56.3424C92.8082 56.4007 92.7293 56.4175 92.6503 56.4345C92.6314 56.4389 92.6113 56.4431 92.5904 56.448L92.3484 56.4887C92.2035 56.5129 92.0745 56.5291 91.9458 56.5374C91.9007 56.5415 91.8567 56.5456 91.8138 56.55C91.6048 56.5698 91.406 56.5888 91.2121 56.6023C91.0911 56.6083 90.9682 56.6141 90.8452 56.6191C91.3411 57.6962 90.8631 58.2878 90.6802 58.4794C90.6624 58.4979 90.6442 58.5152 90.6274 58.5317C90.6904 58.5388 90.7572 58.5479 90.8331 58.5608C90.8623 58.5647 90.8862 58.5691 90.9162 58.574C90.9462 58.579 90.983 58.585 91.035 58.5933C91.0441 58.5955 91.0551 58.598 91.0691 58.6013C91.107 58.6106 91.1631 58.6241 91.2291 58.642C91.2679 58.7283 91.2971 58.719 91.3419 58.7041C91.4538 58.6678 91.6617 58.5999 92.3566 59.8852C92.1947 60.4608 92.0577 60.8659 91.9406 61.1486C91.9447 61.1502 91.9488 61.1519 91.9527 61.1533C92.0107 61.1753 92.0506 61.1907 92.2846 61.34C92.3085 61.2017 93.5089 62.5101 92.6875 63.5909C92.5335 63.8103 92.3005 64.0215 92.0506 64.1516C91.9166 64.2184 91.8916 64.2264 91.8677 64.2344C91.8537 64.2385 91.8407 64.2423 91.8088 64.2575L91.6397 64.3064C91.6177 64.3114 91.6029 64.3155 91.5919 64.3185C91.5699 64.3235 91.5608 64.3254 91.5349 64.3303C91.4219 64.3543 91.3089 64.3793 91.2371 64.3873C91.142 64.4013 91.0551 64.4134 90.9712 64.4233C91.0782 64.6042 91.195 64.866 91.3169 65.2488C91.2899 65.8057 91.1829 66.1365 91.0562 66.3414C91.1271 66.3554 91.211 66.3733 91.3169 66.4025C91.3468 66.4123 91.3669 66.4184 91.3859 66.4234C91.428 66.4344 91.464 66.4443 91.5908 66.5004C91.5748 66.5254 91.5979 66.5303 91.6458 66.5424C91.8168 66.5842 92.3195 66.7083 92.5904 68.0926C92.4235 68.5763 92.2796 68.8923 92.1545 69.0961C92.2827 69.1131 92.4254 69.1371 92.6223 69.1821L92.7832 69.222C92.8263 69.2399 92.8522 69.2482 92.8764 69.2561C92.9322 69.2729 92.9803 69.2891 93.186 69.4011C93.219 68.9622 94.7255 71.1561 93.428 71.9767C93.2031 72.2047 92.6465 72.3755 92.7194 72.3345L92.5414 72.3755L92.4295 72.3917L92.2675 72.4126C92.2686 72.4134 92.2706 72.4145 92.2717 72.4145C92.3335 72.4464 92.3775 72.4684 92.5095 72.5704C92.5324 72.5985 92.5634 72.6243 92.5995 72.6535C92.7312 72.7613 92.9311 72.9263 93.0571 73.481C93.1541 74.1797 92.7513 74.6585 92.6223 74.7564C92.4834 74.8824 92.3924 74.9363 92.3184 74.9794C92.3066 74.9863 92.2956 74.9932 92.2846 75.0003C92.2035 75.0413 92.1556 75.0652 92.0907 75.0892C91.9197 75.1582 91.8127 75.1862 91.7098 75.2132C91.6917 75.2181 91.6738 75.2231 91.6559 75.2272C91.4219 75.2841 91.2291 75.3171 91.035 75.349C89.5879 75.56 88.2583 75.659 86.891 75.7599L86.7241 75.772C86.5473 75.7838 86.3713 75.797 86.1944 75.8099C85.6656 75.8479 85.1368 75.8858 84.5813 75.9098C83.8564 75.9348 83.1469 75.9507 82.4382 75.959L78.2082 75.9917C71.9423 75.9989 63.7451 75.9549 56.6165 75.9158C55.733 75.9109 54.8653 75.907 54.0197 75.9018C52.1065 75.89 50.3064 75.8798 48.6872 75.871C47.0729 75.8619 45.6377 75.8528 44.4472 75.8449C43.2798 75.8369 42.3452 75.8369 41.7245 75.8369C41.4266 75.8369 41.2008 75.8369 41.1198 75.8209C41.1148 75.8168 41.1118 75.816 41.1088 75.8149C41.0988 75.811 41.0948 75.8099 41.0318 75.7071C40.9589 75.61 40.9349 75.577 40.8949 75.5531C40.8849 75.5432 40.8749 75.538 40.8689 75.536H40.8699C40.8739 75.538 40.8769 75.5391 40.8789 75.5402C40.8849 75.5432 40.8879 75.544 40.9189 75.569C40.9349 75.577 40.9509 75.593 40.9669 75.618C40.9828 75.6339 40.9669 75.61 40.9669 75.61C40.9589 75.577 40.9989 75.5201 41.0558 75.4711C41.1688 75.3661 41.3697 75.2682 41.6275 75.1711C42.1433 74.9753 42.9009 74.7974 43.8755 74.6426C45.8255 74.3258 48.6451 74.0738 52.2146 73.8868C52.8122 73.8558 53.4309 73.8258 54.0706 73.7978L51.7798 73.765L48.9839 73.7078C48.0415 73.6839 47.0991 73.6429 46.1553 73.578C45.2128 73.5131 44.2784 73.448 43.3037 73.3182C43.0539 73.2852 42.812 73.2533 42.5221 73.1881C42.5061 73.1842 42.4901 73.1812 42.4741 73.1771C42.4142 73.1642 42.3492 73.1501 42.2802 73.1312C42.2662 73.1273 42.2532 73.1232 42.2403 73.1193C42.1513 73.0921 42.0643 73.0663 41.8614 72.9604C41.8355 72.9414 41.8144 72.9282 41.7925 72.9153C41.7405 72.8842 41.6865 72.8512 41.5556 72.7244C41.4746 72.6595 41.0718 72.1478 41.2567 71.5549C41.4026 71.1212 41.5946 70.9801 41.7075 70.8973C41.7195 70.8882 41.7305 70.8792 41.7405 70.8723C41.8374 70.8074 41.9254 70.7584 41.9664 70.7422C42.1173 70.6773 42.2023 70.6553 42.2762 70.6353C42.3052 70.6284 42.3322 70.6215 42.3612 70.6124C42.6211 70.5555 42.819 70.5335 43.0139 70.5115C43.0729 70.5044 43.1308 70.4975 43.1908 70.4903C43.4407 70.4656 43.6826 70.4494 43.9245 70.4334C44.4071 70.4004 44.874 70.3924 45.3418 70.3845L46.744 70.3594L49.4869 70.3044C48.4114 70.2635 47.3369 70.2206 46.2603 70.1735C46.1115 70.1656 45.9636 70.1576 45.8145 70.1507C45.6165 70.1405 45.4196 70.1306 45.2219 70.1196C44.6961 70.1177 44.1775 70.1196 43.6746 70.1326C43.5606 70.1326 43.4567 70.1397 43.3557 70.1477C43.3057 70.1507 43.2568 70.1545 43.2068 70.1565L43.0938 70.1647L42.9329 70.1815H42.8929C42.9089 70.1815 42.9249 70.1815 42.9409 70.1735C42.9449 70.1477 42.9289 70.0547 42.9059 69.9516C42.841 69.9447 42.775 69.9376 42.707 69.9296C42.5701 69.9128 42.4491 69.8966 42.2562 69.8477L42.1673 69.8237C42.1353 69.8158 42.1113 69.8078 42.0384 69.7828C42.0124 69.7698 41.9984 69.7649 41.9834 69.7607C41.9534 69.7509 41.9214 69.7407 41.7805 69.653C41.8114 69.7778 41.1608 69.178 41.2917 68.4694C41.0388 68.4603 40.7859 68.4523 40.5321 68.4424C40.4291 68.4375 40.3291 68.4325 40.2272 68.4276L39.9513 68.4663L39.7584 68.4914C39.7424 68.4914 39.7104 68.4993 39.7104 68.4993L39.6845 68.3915C39.6065 68.3855 39.5266 68.3775 39.4446 68.3695C39.4086 68.3635 39.3736 68.3594 39.3366 68.3544C39.2647 68.3445 39.1827 68.3335 39.0657 68.3126C39.0618 68.3115 39.0578 68.3104 39.0537 68.3096C39.0148 68.3024 38.9678 68.2925 38.8798 68.2634C38.8399 68.2285 38.8189 68.2295 38.7919 68.2315C38.7249 68.2364 38.625 68.2444 38.1392 67.7189C37.5105 66.1665 38.9118 65.6388 38.7029 65.7928C38.8159 65.7447 38.9118 65.7117 38.9528 65.7037C39.1407 65.6547 39.2327 65.6418 39.3276 65.6289C39.3416 65.6267 39.3566 65.6248 39.3716 65.6228L39.6395 65.5857C39.6415 65.5769 39.6425 65.5667 39.6445 65.5588C39.6615 65.4669 39.6655 65.44 39.6615 65.4928L39.8144 65.5087L40.1942 65.5348C40.5721 65.5048 40.9379 65.484 41.3017 65.462C41.1837 65.4457 41.0548 65.4218 40.8779 65.3789C40.8639 65.374 40.8499 65.3698 40.8339 65.366C40.762 65.3459 40.668 65.3198 40.4751 65.2321C40.4751 65.2059 40.4401 65.19 40.3851 65.1661C40.1842 65.075 39.7244 64.8682 39.8064 63.6233C40.1333 62.9699 40.3422 62.8902 40.4671 62.8426C40.5081 62.8269 40.5401 62.8145 40.564 62.7865C40.645 62.7538 40.725 62.7213 40.782 62.7054L40.9189 62.6726L41.1118 62.6319C41.2837 62.6036 41.4376 62.5827 41.5836 62.5659C41.5876 62.5461 41.5916 62.5274 41.5955 62.5104C41.5996 62.5107 41.6136 62.5126 41.6196 62.5184C41.6635 62.5272 41.7175 62.536 41.7775 62.5448C41.8934 62.5332 42.0054 62.5233 42.1183 62.5134C42.1613 62.5096 42.2043 62.506 42.2483 62.5019L42.707 62.4733C42.699 62.4722 42.691 62.4708 42.683 62.4697C42.646 62.4623 42.6091 62.4557 42.5721 62.4488C42.4412 62.4249 42.3072 62.4001 42.1433 62.3558C42.1223 62.3498 42.1023 62.3443 42.0813 62.3388C41.9904 62.3143 41.8904 62.2876 41.7005 62.2013C41.6275 62.1688 41.5386 62.1281 41.3856 62.0063C41.2897 62.0143 40.564 61.2099 41.0068 60.3079C41.0408 60.2551 41.0728 60.2075 41.1038 60.1644C40.9169 60.1531 40.728 60.1402 40.5341 60.1239L40.4591 60.1374L40.4111 60.1454H40.3951C40.3931 60.1369 40.3911 60.1256 40.3881 60.1115C40.3341 60.1069 40.2802 60.1019 40.2252 60.0967L39.9513 60.064L39.7744 60.0315C39.7624 60.0291 39.7514 60.0266 39.7394 60.0241C39.6785 60.0112 39.6085 59.9966 39.4606 59.9422C39.4206 59.902 39.3936 59.899 39.3596 59.8951C39.2777 59.8855 39.1547 59.8712 38.7029 59.3003C38.4421 58.4137 38.6579 57.9413 38.9008 57.691C38.8479 57.6836 38.7839 57.6737 38.679 57.6506L38.4451 57.5937L38.3321 57.5612C38.3241 57.5695 38.1792 57.5043 38.0742 57.4394C38.0602 57.3877 38.0083 57.3602 37.9403 57.3236C37.7394 57.2169 37.3956 57.0338 37.4135 55.9442C37.6254 55.2694 37.9573 55.0835 38.0772 55.0161C38.1042 55.0015 38.1202 54.9924 38.1222 54.9853C38.2421 54.9223 38.2781 54.9102 38.3121 54.8987C38.3311 54.8921 38.3491 54.886 38.3801 54.8714C38.4041 54.8643 38.422 54.8585 38.4371 54.8538C38.473 54.8423 38.491 54.8368 38.526 54.8307C38.7439 54.7713 38.8798 54.751 39.0098 54.7317C39.0578 54.7246 39.1047 54.7177 39.1537 54.7089C39.8304 54.6198 40.4351 54.5791 41.0558 54.5381C41.3367 54.5205 41.6175 54.5038 41.8974 54.4881C41.8294 54.4259 41.7515 54.3451 41.6845 54.2538C41.5146 54.0426 41.3377 53.7013 41.3617 53.1813C41.3877 52.8219 41.5386 52.5309 41.6595 52.3629C41.5326 52.3494 41.4037 52.3354 41.2727 52.32C41.1198 52.3035 40.9588 52.2793 40.7739 52.2468C40.7639 52.2449 40.7539 52.2433 40.744 52.2413C40.663 52.2268 40.575 52.2108 40.4671 52.1817C40.4501 52.1767 40.4321 52.1718 40.4111 52.1665C40.3651 52.1542 40.3092 52.1393 40.2422 52.1168C40.2222 52.1091 40.2052 52.1038 40.1902 52.0989C40.1552 52.0876 40.1233 52.0772 40.0563 52.0436C40.0333 52.0334 40.0133 52.0252 39.9953 52.0178C39.9103 51.9828 39.8544 51.9597 39.6295 51.7997C39.6295 51.7997 38.526 50.8815 39.2027 49.6789C39.5115 49.1883 39.8144 49.0445 39.9503 48.9798C39.9633 48.9741 39.9743 48.9686 39.9843 48.9639C40.2102 48.8685 40.2892 48.8525 40.3591 48.8385C40.3791 48.8346 40.3981 48.8308 40.4191 48.8256C40.58 48.7931 40.669 48.7769 40.766 48.7686C40.8199 48.7615 40.8719 48.7552 40.9219 48.7494C40.693 47.8812 41.3706 46.903 41.5306 47.0136C41.6035 46.9616 41.6875 46.9165 41.7565 46.8835C41.7545 46.8808 41.7515 46.878 41.7485 46.8753C41.5876 46.8266 41.1518 45.7863 41.5796 45.2987C41.6285 45.2181 41.6785 45.1496 41.7275 45.0919L41.6275 45.0875C41.4786 45.0754 41.3297 45.0611 41.1808 45.0468C41.0318 45.0325 40.8819 45.0185 40.733 45.0064C40.716 45.0064 40.669 44.9976 40.625 44.9899C40.609 44.9868 40.593 44.9841 40.58 44.9819L40.4191 44.9412L40.3382 44.917C40.2822 44.9005 40.2342 44.8763 40.1852 44.8518C40.2012 44.868 39.9923 44.7545 39.9114 44.6813C39.8064 44.5917 39.7104 44.4943 39.6295 44.3805C39.4606 44.2424 39.2587 43.3811 39.5485 42.9747C39.6944 42.7255 39.7314 42.6933 39.7834 42.6471C39.8064 42.6273 39.8324 42.6045 39.8714 42.5602C39.9673 42.4709 40.0803 42.3977 40.1932 42.349L40.2662 42.3166C40.3052 42.2968 40.3492 42.2825 40.3901 42.269C40.4001 42.266 40.4091 42.2627 40.4191 42.2597C40.5131 42.2302 40.594 42.214 40.639 42.2055C40.644 42.2044 40.649 42.2036 40.653 42.2027C40.8699 42.1703 40.9989 42.1538 41.1438 42.1458C41.3457 42.1307 41.5426 42.1175 41.7365 42.1059C41.7475 42.06 41.7625 42.0135 41.7805 41.9662C41.9844 41.5708 42.0413 41.535 42.0873 41.5056C42.1073 41.4932 42.1243 41.482 42.1503 41.4462C42.2303 41.3819 42.3102 41.3332 42.3982 41.2848C42.3742 41.2768 42.3472 41.2669 42.3042 41.2512C42.3002 41.2496 42.2972 41.2479 42.2932 41.2463C42.2332 41.2207 42.1173 41.1712 41.9734 41.064C41.7645 41.1049 41.1198 39.9428 41.7075 39.2765C41.8614 39.093 41.9674 39.0034 42.0464 38.9522C42.0074 38.939 41.9614 38.9228 41.9094 38.9027C41.8934 38.8299 41.8484 38.8246 41.7855 38.8169C41.6235 38.798 41.3427 38.7644 41.1278 37.5294C41.2117 37.2967 41.2887 37.1213 41.3587 36.9885C41.3407 36.9871 41.3227 36.9857 41.3047 36.9843L41.2317 37.0011C41.2277 36.9912 41.2257 36.9901 41.2247 36.9923C41.2237 36.9885 41.2227 36.9835 41.2217 36.978C41.1877 36.975 41.1538 36.972 41.1198 36.9687C41.0228 36.9621 40.9219 36.9505 40.8119 36.9379C40.7829 36.9346 40.754 36.9313 40.725 36.928C40.694 36.9236 40.645 36.9145 40.59 36.9043C40.5441 36.8958 40.4951 36.8867 40.4511 36.8793L40.3621 36.8548C40.2812 36.8306 40.2012 36.8061 40.1283 36.7654C40.0973 36.7478 40.0643 36.7319 40.0323 36.7162C39.9893 36.6953 39.9473 36.675 39.9103 36.6516C39.8624 36.5974 39.8124 36.5606 39.7624 36.5237C39.6025 36.4055 39.4376 36.2845 39.3146 35.5791C39.2747 34.9207 39.7904 34.4901 39.8224 34.4821C39.9473 34.3872 40.0243 34.3463 40.0713 34.3215C40.0843 34.3144 40.0953 34.3086 40.1042 34.3031C40.1223 34.2951 40.1393 34.2874 40.1542 34.2805C40.2002 34.2596 40.2332 34.2442 40.2572 34.2382L40.3621 34.2057C40.4551 34.1766 40.5361 34.1606 40.609 34.1461C40.618 34.1441 40.627 34.1425 40.636 34.1406C40.73 34.1208 40.8119 34.1067 40.8909 34.0935C40.9409 34.085 40.9888 34.077 41.0388 34.0674C41.0678 34.0636 41.0958 34.0597 41.1248 34.0559C41.1278 34.0394 41.1308 34.0281 41.1318 34.0207C41.1418 34.0231 41.1648 34.0267 41.1758 34.0267C41.2017 34.0306 41.2307 34.0341 41.2607 34.0374C41.4246 34.0157 41.5836 33.9951 41.7395 33.9783C41.8864 33.9626 42.0323 33.9478 42.1763 33.9338C42.1463 33.9145 42.1113 33.8895 42.0703 33.8562C42.0054 33.8075 41.9414 33.7506 41.8204 33.5961C41.7395 33.5067 41.5946 33.263 41.5466 32.9704C41.4816 32.7185 41.5706 32.2717 41.6675 32.1336C41.7725 31.9221 41.9014 31.7758 41.9654 31.7272C41.9724 31.7175 41.9784 31.7085 41.9844 31.6997C41.2837 31.6601 40.577 31.6125 39.8544 31.5484C39.7494 31.5338 39.6395 31.5209 39.5245 31.5072C39.3836 31.4907 39.2357 31.4731 39.0808 31.4511C39.0468 31.4453 39.0138 31.4398 38.9788 31.4346C38.8678 31.417 38.7519 31.3988 38.597 31.3614C38.557 31.3534 38.485 31.3372 38.4121 31.3127C38.4061 31.3105 38.3971 31.3078 38.3871 31.3045C38.3581 31.2954 38.3141 31.2819 38.2671 31.2641C38.2551 31.2597 38.2451 31.2558 38.2361 31.2525C38.1922 31.2368 38.1592 31.225 38.0333 31.1582C37.9873 31.1351 37.9453 31.1073 37.9013 31.0787C37.8843 31.0674 37.8663 31.0562 37.8483 31.0446C37.8483 31.0446 37.7194 30.947 37.6384 30.8576C37.5505 30.7682 37.4775 30.6626 37.4135 30.5488C37.3995 30.5216 37.3866 30.4987 37.3756 30.4767C37.3306 30.3945 37.2946 30.3285 37.2436 30.1102C37.1877 29.8745 37.2036 29.5819 37.2756 29.338C37.3556 29.1045 37.4235 28.997 37.4635 28.9345C37.4725 28.9211 37.4795 28.9095 37.4855 28.8991C37.5415 28.8179 37.6065 28.7448 37.6704 28.6799C37.7354 28.6147 37.8164 28.5498 37.8883 28.5011C37.9193 28.4789 37.9333 28.4712 37.9453 28.4648C37.9543 28.4596 37.9623 28.4552 37.9773 28.4442C38.0252 28.4118 38.0742 28.3873 38.1302 28.3628L38.2111 28.3304C38.2352 28.3224 38.2352 28.3224 38.2431 28.3141L38.2911 28.2979C38.3741 28.2712 38.465 28.2459 38.553 28.2245C38.472 28.0749 38.3841 27.8818 38.2911 27.6316C38.3681 26.2316 38.8869 26.0193 39.1017 25.9315C39.1587 25.9082 39.1937 25.8936 39.1937 25.8683C39.3886 25.7795 39.4856 25.755 39.5565 25.7368C39.5765 25.7319 39.5945 25.7272 39.6125 25.722C39.8074 25.6769 39.9254 25.6631 40.0303 25.6508C40.0773 25.6453 40.1213 25.64 40.1682 25.6326L40.58 25.5919C40.597 25.5905 40.615 25.5892 40.632 25.5878C40.5501 25.3329 40.5191 25.0141 40.604 24.625C40.7999 24.0519 41.0488 23.858 41.1827 23.753C41.2127 23.7299 41.2367 23.7109 41.2537 23.6933ZM91.7888 23.3248C91.7907 23.3251 91.7907 23.3251 91.7918 23.3245C91.7937 23.3232 91.7929 23.3234 91.7888 23.3248ZM39.2816 30.9852L39.2767 30.9858C39.2797 30.9902 39.2836 30.9943 39.2816 30.9852ZM39.2737 30.9863L39.2587 30.9877H39.2747C39.2736 30.9871 39.2737 30.9866 39.2737 30.9863ZM91.6488 29.7725C91.648 29.7683 91.6469 29.7672 91.6507 29.7826C91.6518 29.784 91.6499 29.7766 91.6488 29.7725ZM40.666 35.5288C40.66 35.5257 40.658 35.526 40.66 35.5304C40.66 35.5318 40.662 35.5312 40.666 35.5288ZM42.723 40.0239C42.718 40.0212 42.718 40.0212 42.723 40.0239V40.0239ZM42.9179 53.2965C42.9109 53.294 42.9049 53.2935 42.9009 53.2951C42.9029 53.2998 42.9089 53.3001 42.9179 53.2965ZM43.5036 54.3748C43.5017 54.3734 43.5026 54.3759 43.5036 54.3778C43.5036 54.3795 43.5047 54.3803 43.5036 54.3748ZM39.3026 54.8354C39.3026 54.8277 39.2986 54.831 39.2956 54.8343L39.3026 54.8354ZM39.2907 54.8338C39.2907 54.8329 39.2907 54.8318 39.2907 54.8307C39.2887 54.8307 39.2857 54.8299 39.2827 54.8291C39.2777 54.8272 39.2726 54.8255 39.2667 54.8307L39.2907 54.8338ZM38.9068 55.9071C38.9048 55.9063 38.8809 55.9593 38.9038 55.9118L38.9068 55.9071ZM92.5744 55.026C92.5725 55.0254 92.5695 55.0257 92.5673 55.0268C92.5703 55.0287 92.5733 55.0285 92.5744 55.026ZM90.5964 66.8922C90.5944 66.8843 90.5944 66.8763 90.5922 66.8691C90.5854 66.8301 90.5804 66.8092 90.5964 66.8922ZM90.5933 66.8922C90.5933 66.8922 90.5922 66.8931 90.5903 66.8931C90.5865 66.8702 90.5834 66.8502 90.5812 66.8381C90.5763 66.8103 90.5782 66.8152 90.5933 66.8922ZM92.0077 71.7738C92.0046 71.7897 92.0066 71.787 92.0096 71.7738H92.0077ZM92.0827 69.7509C92.0756 69.7239 92.0748 69.7247 92.0805 69.7539C92.0877 69.7517 92.0907 69.7509 92.0827 69.7509ZM91.1392 74.8133C91.1351 74.8254 91.1362 74.8243 91.1392 74.8133V74.8133ZM42.835 16.3139C42.835 16.3114 42.833 16.312 42.832 16.3135L42.835 16.3139ZM90.1434 19.2402C90.1366 19.2771 90.1297 19.314 90.1245 19.3509C90.1256 19.349 90.1366 19.2997 90.1487 19.2395C90.1465 19.2398 90.1456 19.24 90.1434 19.2402Z" fill="#4633FF"/>
<path d="M41.1279 34.0194L41.1289 34.0166C41.1316 34.0089 41.1353 33.9999 41.1316 34.0202C41.1298 34.0197 41.1279 34.0194 41.1279 34.0194Z" fill="#4633FF"/>
<path d="M41.1287 34.0198C41.1269 34.0239 41.1269 34.0267 41.1287 34.0198C41.1259 34.0192 41.1269 34.0198 41.1287 34.0198Z" fill="#4633FF"/>
<path d="M41.2258 36.9922C41.2248 36.9955 41.2278 37.0059 41.2288 37.0106C41.2298 37.015 41.2308 37.0134 41.2258 36.9922Z" fill="#4633FF"/>
<path d="M40.3965 60.1445C40.4025 60.1723 40.4025 60.1729 40.3965 60.1445V60.1445Z" fill="#4633FF"/>
<path d="M58.2992 39.8313C62.3362 40.5056 66.0264 40.8471 69.3941 40.8471C72.7543 40.8471 74.9053 40.8227 75.8318 40.7657C75.7279 36.8002 75.6789 32.997 75.6789 29.3403C75.6789 25.6916 75.6789 23.213 75.6789 21.9048C75.6789 20.6046 75.7279 19.7838 75.8318 19.4425C75.9369 19.1013 76.2677 18.7762 76.8394 18.4674C77.4111 18.1505 78.2337 17.9961 79.3213 17.9961C80.8764 17.9961 81.6503 18.9387 81.6503 20.8159V48.51C81.6503 54.2471 81.5213 60.5613 81.2633 67.4443C81.2144 68.9554 79.942 69.7111 77.4601 69.7111C76.2187 69.7111 75.5989 68.9554 75.5989 67.4443L75.9129 46.7143C74.2607 46.8199 71.9967 46.8685 69.129 46.8685C66.2604 46.8685 62.6502 46.5515 58.3072 45.9258C58.3072 52.8088 58.622 60.0089 59.2416 67.5172C59.2908 68.3548 58.9278 68.9884 58.1543 69.4353C57.3807 69.8742 56.4061 70.1011 55.2456 70.1011C54.0851 70.1011 53.4485 69.5002 53.3445 68.3059C52.676 60.9026 52.3369 53.597 52.3369 46.3972L52.8047 21.986C52.8047 20.9459 53.1916 20.1739 53.9644 19.6782C54.7379 19.1825 55.5684 18.9387 56.446 18.9387C57.8963 18.9387 58.622 19.6457 58.622 21.0515L58.2992 39.8313Z" fill="#FFFBF9"/>
</g>
</svg>
