<svg width="132" height="88" viewBox="0 0 132 88" fill="none" xmlns="http://www.w3.org/2000/svg">
<path fill-rule="evenodd" clip-rule="evenodd" d="M69.6967 42.0741C69.1419 42.8165 68.5267 44.3768 68.3293 45.5417C68.1324 46.7061 67.65 49.2604 67.2578 51.2182L66.5451 54.7774L64.7183 54.5211C63.7139 54.3804 62.4257 54.1856 61.8558 54.0877C61.1765 53.9715 60.6405 54.3143 60.2998 55.0827C60.0138 55.7271 59.4617 56.2549 59.0731 56.2549C58.5261 56.2549 58.4459 55.6761 58.7183 53.6954C58.9387 52.0923 58.8465 50.7175 58.4704 50.0152C58.0125 49.1598 58.0213 48.7133 58.5063 48.1288C59.3221 47.1457 58.3281 45.1385 56.3163 43.7058C55.026 42.7873 53.2549 42.8024 53.2549 43.7324C53.2549 43.947 52.4204 45.2161 51.4004 46.5518C49.1636 49.4818 46.6184 54.4732 45.4432 58.2351C44.7988 60.2992 44.6821 61.7464 44.9827 63.9657C46.1303 72.4508 54.7551 70.1882 57.7744 60.6097C58.4136 58.5815 58.9131 57.8178 59.6013 57.8178C60.1217 57.8178 60.5478 58.0272 60.5478 58.283C60.5478 59.2838 62.1783 59.3135 63.0222 58.3278C63.5077 57.761 64.3401 57.2968 64.8725 57.2968C65.6919 57.2968 65.7836 57.5557 65.4731 58.99C65.2715 59.9215 64.6761 61.7818 64.15 63.1254C63.2331 65.4651 63.2321 65.6151 64.1166 66.7081C64.7678 67.512 65.359 67.7474 66.1196 67.5062C67.126 67.1864 67.189 66.8285 67.0536 62.2012L66.9082 57.239L70.1848 57.5573L70.2588 64.7248C70.2999 68.6664 70.1234 72.0215 69.8671 72.1798C69.5998 72.345 69.6316 72.8998 69.941 73.4786C70.3135 74.1741 70.314 74.4888 69.9426 74.4888C68.8976 74.4888 69.4019 77.4609 70.6807 78.841C72.1414 80.4169 72.6654 80.5294 73.5552 79.4567C74.0558 78.8535 74.0141 78.171 73.3567 76.1908C72.7462 74.3528 72.518 71.5604 72.4982 65.6943C72.4831 61.2984 72.6008 57.5719 72.7597 57.4135C72.9186 57.2546 75.2169 56.9764 77.8674 56.7946C82.2077 56.4977 82.4541 56.4278 80.3428 56.0965C79.0535 55.8944 76.8516 55.6714 75.4498 55.6011L72.9014 55.4734L72.766 51.5662C72.5696 45.8918 72.2513 43.6287 71.4324 42.0892L70.7057 40.7238L69.6967 42.0741ZM30.4646 42.9655C28.8237 43.6787 28.1007 45.3145 29.4259 45.3145C30.3709 45.3145 31.5039 48.1939 31.7409 51.1984C31.9102 53.3458 31.7424 54.0079 30.7668 55.0468C29.8239 56.0507 29.7051 56.4794 30.1729 57.19C30.4948 57.6787 31.0147 58.0199 31.3278 57.948C31.6429 57.8761 31.918 58.5742 31.9435 59.5109C32.0571 63.6558 32.006 65.1275 31.7065 66.3205C31.333 67.8089 32.4769 69.0467 33.7678 68.5513C34.345 68.3299 34.483 67.9428 34.2059 67.3213C33.984 66.8222 33.7584 64.9795 33.7042 63.2265C33.6506 61.4734 33.4719 59.8209 33.3073 59.5547C33.1427 59.2885 33.2088 58.7451 33.4547 58.3476C33.8256 57.7469 34.0418 57.7407 34.7294 58.3117C35.1847 58.6894 35.4998 59.2603 35.4295 59.5802C35.1477 60.8613 41.4909 68.3492 45.2176 71.1348C46.3433 71.9762 47.9269 73.3093 48.737 74.0975C50.2877 75.6068 52.4428 75.9985 52.883 74.8514C53.0304 74.4674 52.3193 73.6261 51.2457 72.9155C50.2018 72.2241 48.5671 70.9962 47.6123 70.1866C46.573 69.3051 45.5187 68.8285 44.9842 68.9983C44.3961 69.1848 43.3986 68.5711 42.0561 67.1963C39.4937 64.5716 40.2762 64.4346 42.9448 67.0405C44.0315 68.1017 44.9202 68.7118 44.9202 68.3971C44.9202 68.0819 44.1581 67.153 43.2272 66.333C40.5778 64.0001 37.1782 57.9548 37.0272 55.3078C36.9563 54.071 37.1293 52.8988 37.4111 52.7029C38.8186 51.7271 40.2319 49.1707 40.2319 47.6006C40.2319 45.6193 39.2135 44.7509 35.6738 43.7141C34.4559 43.3578 33.4599 42.8686 33.4599 42.6274C33.4599 41.9996 32.4144 42.1179 30.4646 42.9655ZM78.7847 44.2325C76.1874 44.4633 75.3649 44.7352 75.2378 45.4057C74.9382 46.9837 76.1395 50.3091 77.4558 51.5458L78.7482 52.7597L79.2488 51.4427C79.6854 50.2945 81.0887 49.0145 83.3381 47.7136C84.7852 46.8764 83.8486 48.5305 81.6451 50.7029C79.2369 53.0775 78.5112 54.9967 80.2125 54.4914C80.7137 54.3424 81.7102 54.0819 82.4265 53.9121L83.7288 53.6037V60.121C83.7288 65.5599 83.8751 66.7847 84.6143 67.5229C85.2999 68.2085 85.6635 68.2721 86.2261 67.8053C86.8407 67.2952 86.8475 66.6586 86.2714 63.6823C85.4494 59.4328 85.3639 56.2549 86.0729 56.2549C86.3594 56.2549 86.5938 56.5034 86.5938 56.8071C86.5938 57.9668 92.201 63.2176 95.5906 65.2317C98.9777 67.2437 103.263 68.3325 103.263 67.1806C103.263 66.9019 103.002 66.6743 102.682 66.6743C101.741 66.6743 94.8759 61.948 92.1901 59.451C89.3177 56.7811 87.5028 54.0746 87.9024 53.0577C88.0555 52.667 90.1085 51.6443 92.4641 50.7847C95.9438 49.5146 96.883 48.9358 97.4738 47.6954C98.1583 46.258 98.1187 46.0976 96.7961 44.9603C95.4724 43.8209 95.0109 43.7568 88.7786 43.8418C85.1415 43.8913 80.6444 44.0668 78.7847 44.2325ZM34.3328 8.16011C34.1354 8.35704 33.9744 13.1677 33.9744 18.8509C33.9744 28.8358 34.0093 29.1833 35.0163 29.1833C35.9852 29.1833 36.0581 28.8358 36.0581 24.2341V19.2849H49.0534L48.8883 24.2341C48.7367 28.7748 48.8033 29.1833 49.6941 29.1833C50.6146 29.1833 50.6578 28.63 50.5244 18.6337C50.4046 9.66623 50.2661 8.08405 49.6019 8.08405C48.9565 8.08405 48.8377 8.92333 48.9185 12.903L49.0164 17.722H36.0972L35.9477 12.9452C35.8096 8.55188 35.3382 7.15464 34.3328 8.16011ZM57.7741 8.16011C57.5767 8.35704 57.4157 13.1677 57.4157 18.8509C57.4157 28.8712 57.4475 29.1833 58.4685 29.1833C59.4942 29.1833 59.5176 28.9186 59.3801 18.6769C59.2473 8.77902 58.9701 6.96397 57.7741 8.16011ZM68.5186 8.83945C66.4917 10.0752 65.7504 11.3729 65.7504 13.6829C65.7504 15.9684 67.7221 17.8663 71.2982 19.0233C72.7735 19.5011 74.4733 20.3503 75.0749 20.9108C76.5397 22.2758 76.471 24.6066 74.9119 26.419C73.8565 27.6459 73.2496 27.8809 71.1352 27.8809C69.3505 27.8809 68.1326 27.536 66.959 26.6993C65.8953 25.9402 65.1805 25.7157 64.9607 26.071C63.9897 27.6423 69.2182 30.0491 72.3328 29.4651C75.2354 28.9202 77.7316 26.1971 77.7316 23.5751C77.7316 20.6378 76.2887 19.0999 71.9911 17.4573C69.9829 16.6899 68.1086 15.6303 67.8263 15.1031C65.8025 11.3208 70.5627 7.85639 74.6061 10.1679C77.4248 11.7793 78.2843 10.5467 75.5177 8.85977C73.3699 7.55006 70.6461 7.54224 68.5186 8.83945ZM85.5454 8.16272C85.1157 8.33411 84.1197 9.07545 83.3315 9.8095C82.1923 10.8712 81.899 11.6089 81.899 13.4151C81.899 16.2976 83.2768 17.7652 87.1405 18.9978C89.9988 19.9095 92.3174 21.8126 92.3174 23.2468C92.3174 24.7879 90.7729 26.9655 89.2252 27.6068C87.291 28.4076 84.5583 27.9626 82.7694 26.5555C80.8931 25.0796 80.2388 26.3607 82.0662 27.933C85.173 30.6055 90.7708 29.8496 92.8248 26.4795C95.1246 22.7076 93.6614 19.5318 88.7892 17.7204C84.2666 16.0392 83.4617 15.374 83.4617 13.3198C83.4617 9.99079 87.2926 8.37736 90.8406 10.2122C91.8965 10.7582 92.6122 10.8629 92.954 10.5211C94.225 9.24998 87.8818 7.23018 85.5454 8.16272ZM90.1736 46.0757C90.0616 46.1877 88.9718 46.3794 87.7513 46.5013C85.1373 46.7628 84.4247 47.2781 85.6947 47.9887C86.1979 48.2705 87.0689 48.9936 87.6294 49.5959L88.6494 50.6904L91.5285 48.7785C93.1121 47.7271 94.4076 46.7795 94.4076 46.6722C94.4076 46.5654 93.8289 46.3674 93.121 46.232C92.3797 46.0903 91.965 46.1971 92.1422 46.4836C92.3114 46.7576 91.9833 46.7316 91.4134 46.4268C90.8435 46.1215 90.2856 45.9637 90.1736 46.0757ZM34.4096 48.6451C34.2533 49.9814 34.4523 50.568 35.2258 51.0509C36.0796 51.5844 36.3625 51.5344 36.9381 50.7472C38.0263 49.2583 37.7955 47.5651 36.4552 47.2057C34.6684 46.7269 34.6299 46.754 34.4096 48.6451ZM52.9033 52.2174C51.7802 53.7219 50.4607 55.8438 49.97 56.9337C49.4793 58.0236 48.9021 58.8066 48.6875 58.6737C48.1665 58.3518 48.2139 65.1911 48.7385 66.023C48.9641 66.3815 49.8199 66.6743 50.6404 66.6743C52.5173 66.6743 55.4521 63.4146 56.595 60.0606C57.3384 57.8793 57.3254 57.6704 56.3888 56.6649C55.1495 55.3343 54.6275 53.0968 55.0781 51.0452C55.2667 50.1856 55.3141 49.4823 55.1828 49.4823C55.0516 49.4823 54.0259 50.7128 52.9033 52.2174ZM56.6768 51.8194C56.3794 53.4036 56.9894 55.7339 57.701 55.7339C57.8343 55.7339 57.9432 54.4445 57.9432 52.8686C57.9432 49.6584 57.1977 49.041 56.6768 51.8194ZM68.3762 52.83C67.6193 54.8217 67.7 55.2129 68.8695 55.2129C69.7488 55.2129 69.8514 54.967 69.5759 53.5198C69.1456 51.2572 69.0049 51.1765 68.3762 52.83ZM82.9375 52.3596C82.3869 53.0228 82.4192 53.0994 83.1344 52.8248C83.6043 52.644 83.9892 52.2872 83.9892 52.0314C83.9892 51.3614 83.6876 51.4557 82.9375 52.3596ZM54.2584 35.6459C53.6552 37.0103 53.3301 38.2825 53.5364 38.4737C53.7432 38.6649 54.0167 38.5284 54.1443 38.17C54.4194 37.3995 56.8948 37.2823 56.8948 38.0397C56.8948 38.3263 57.1271 38.5607 57.4115 38.5607C57.9283 38.5607 56.6078 34.5701 55.7863 33.649C55.5414 33.375 54.8809 34.2382 54.2584 35.6459ZM58.4789 35.8256C58.4669 37.3302 58.6862 38.5607 58.9654 38.5607C59.2504 38.5607 59.3462 37.8178 59.1842 36.8676L58.8951 35.1744L60.3693 36.8723C61.1799 37.8058 62.0196 38.568 62.2342 38.5654C62.4488 38.5628 62.6249 37.3885 62.6249 35.9559C62.6249 34.5232 62.3905 33.351 62.104 33.351C61.8175 33.351 61.5831 34.1043 61.5831 35.0244V36.6977L58.4997 33.0905L58.4789 35.8256ZM63.6668 35.9559C63.6668 38.4914 63.7074 38.5607 65.1998 38.5607C66.9256 38.5607 68.4566 36.8795 67.9826 35.5052C67.5523 34.258 66.2417 33.351 64.8696 33.351C63.7735 33.351 63.6668 33.5823 63.6668 35.9559ZM70.9279 35.7694C70.358 37.0989 70.047 38.3299 70.2366 38.5044C70.4262 38.6784 70.6862 38.5284 70.8138 38.17C70.9419 37.8121 71.5936 37.5188 72.2619 37.5188C72.9303 37.5188 73.582 37.8121 73.7101 38.17C73.8377 38.5284 74.0977 38.6784 74.2873 38.5044C74.6556 38.1658 72.7631 33.351 72.2619 33.351C72.0984 33.351 71.4983 34.4393 70.9279 35.7694ZM64.7086 36.2164C64.7086 38.2018 65.2243 38.4914 66.4948 37.2213C67.4773 36.2388 67.5117 35.8418 66.6881 35.0181C65.5098 33.8397 64.7086 34.3242 64.7086 36.2164ZM55.1434 35.6954C54.9627 36.1669 55.1408 36.4768 55.5925 36.4768C56.0441 36.4768 56.2223 36.1669 56.0415 35.6954C55.8764 35.2656 55.6743 34.9139 55.5925 34.9139C55.5107 34.9139 55.3086 35.2656 55.1434 35.6954ZM71.8129 35.6954C71.6322 36.1669 71.8103 36.4768 72.2619 36.4768C72.7136 36.4768 72.8917 36.1669 72.711 35.6954C72.5458 35.2656 72.3437 34.9139 72.2619 34.9139C72.1802 34.9139 71.978 35.2656 71.8129 35.6954ZM36.8938 60.6831C37.3632 61.3994 37.8325 61.9855 37.9367 61.9855C38.0409 61.9855 37.8591 61.3994 37.5325 60.6831C37.2064 59.9668 36.737 59.3807 36.4896 59.3807C36.2427 59.3807 36.4245 59.9668 36.8938 60.6831ZM38.6691 63.2244C38.6691 63.3322 39.0791 63.7428 39.5807 64.1361C40.4069 64.7837 40.4251 64.7654 39.7776 63.9392C39.0968 63.0712 38.6691 62.7956 38.6691 63.2244Z" fill="black" fill-opacity="0.541"/>
<path fill-rule="evenodd" clip-rule="evenodd" d="M69.504 42.5795C69.2529 43.0811 68.5023 46.1439 67.8355 49.3864C66.7191 54.818 66.5384 55.2624 65.5392 55.0337C61.2557 54.0522 61.1661 54.059 60.2618 55.4396C59.2075 57.0488 58.7813 57.0931 57.4223 55.7339C56.295 54.6065 56.0059 51.3791 56.9092 50.0033C57.3655 49.3088 57.4837 49.3088 57.9776 50.0033C58.4198 50.6258 58.4683 50.5555 58.2167 49.6563C58.0427 49.0358 58.1344 48.3836 58.4203 48.207C59.5528 47.5073 56.4737 43.2223 54.8505 43.239C53.7373 43.251 49.1469 49.9277 46.9778 54.692C45.6328 57.6459 45.1718 59.4099 45.0895 61.9199C44.966 65.6938 45.6896 67.2442 48.1488 68.4711C49.485 69.1379 49.9481 69.1483 51.3525 68.5445C52.2558 68.1564 53.5482 67.3083 54.2254 66.6607C55.6819 65.2661 57.9307 60.6409 57.938 59.0249C57.9447 57.5583 59.9716 56.8066 60.6499 58.0189C61.2823 59.1489 62.2132 59.078 63.292 57.8178C64.1557 56.8092 65.284 56.4768 65.8669 57.0592C66.2159 57.4083 64.7719 62.5789 64.1348 63.2619C63.318 64.1377 63.6228 66.6107 64.6131 67.1405C66.3217 68.0548 66.7509 67.0869 66.9082 61.9678L67.0593 57.0363L70.4969 56.706L70.4224 65.4672C70.3807 70.2856 70.5114 74.6383 70.7125 75.14C70.9287 75.6792 70.8422 76.0517 70.501 76.0517C69.5264 76.0517 69.8619 77.6985 71.0459 78.7258C72.3164 79.8277 72.5019 79.8647 73.5229 79.2181C74.1501 78.8212 74.1397 78.5002 73.4541 77.0118C71.7919 73.4026 71.2808 70.9686 71.2543 66.5268C71.2329 63.0051 71.4069 61.8371 72.008 61.4552C72.6644 61.0389 72.6347 60.9582 71.8221 60.9514C71.1553 60.9462 70.9532 60.6873 71.1709 60.1194C71.3449 59.6662 71.4871 59.0665 71.4871 58.7863C71.4871 58.5065 71.695 58.4054 71.9487 58.5628C72.2029 58.7196 72.5326 58.382 72.6816 57.812C72.8967 56.9879 73.3947 56.7758 75.1153 56.7758C76.4249 56.7758 77.1516 56.5701 76.9568 56.2549C76.7797 55.9683 75.6946 55.7339 74.5454 55.7339H72.4555L72.5597 52.2174C72.6581 48.8894 71.9127 43.2989 71.222 42.1814C70.738 41.3984 70.0119 41.5667 69.504 42.5795ZM31.4044 42.7785C28.8357 43.7746 28.6628 44.2736 30.3412 45.8423C31.781 47.1869 31.8972 47.5672 31.8972 50.9301C31.8972 54.1147 31.7529 54.6607 30.7324 55.3385C29.7452 55.9939 29.6713 56.2377 30.2495 56.9337C30.6245 57.3859 31.2663 57.6271 31.6758 57.4703C32.2998 57.2306 32.3858 58.071 32.2076 62.6737C32.0326 67.19 32.1321 68.2158 32.7697 68.4606C33.9991 68.9321 34.0798 68.842 33.7871 67.3255C33.1567 64.059 32.9327 58.4039 33.4219 58.1017C33.7042 57.9272 33.8032 57.4401 33.6417 57.0197C33.4807 56.5992 33.5568 56.2549 33.811 56.2549C34.0652 56.2549 34.5189 56.905 34.819 57.7C35.4378 59.3401 37.8877 60.0355 37.42 58.4388C36.3588 54.8154 36.4693 53.7334 38.1086 51.6938C39.0317 50.5445 39.8417 48.8332 39.9824 47.7339C40.223 45.8558 40.159 45.7673 37.844 44.7748C36.5313 44.2122 35.0925 43.7516 34.646 43.7516C34.2001 43.7516 33.575 43.4213 33.2568 43.0181C32.8301 42.4763 32.3446 42.4138 31.4044 42.7785ZM79.8219 44.4518L75.394 45.0541L75.5769 46.8748C75.9165 50.2585 78.3398 53.3057 78.9217 51.0806C79.2228 49.9298 83.1714 47.1765 85.2915 46.6394C86.151 46.4211 87.8222 46.1606 89.0052 46.06C90.1882 45.9595 91.3602 45.8402 91.6098 45.7949C91.8593 45.7495 92.7006 45.7396 93.4799 45.774C95.5542 45.8642 94.8437 47.0452 91.429 49.1812L88.5567 50.978L86.7256 49.1999C84.9675 47.4922 84.0054 47.2828 83.9746 48.6013C83.9668 48.9426 83.1615 49.8079 82.1848 50.5242C80.684 51.625 79.3009 53.5193 79.3009 54.4742C79.3009 54.6143 79.8281 54.4461 80.473 54.1012C81.1179 53.7563 81.7039 53.5135 81.7753 53.562C81.8467 53.6104 81.9222 53.4745 81.9425 53.2593C81.9628 53.0441 82.3462 52.4638 82.7937 51.9694C83.7553 50.9066 84.6742 51.2708 84.2674 52.5529C83.8387 53.9032 83.7756 65.2056 84.1893 66.4961C84.6508 67.9345 86.0125 68.4794 86.4297 67.3921C86.6048 66.9368 86.4787 65.3989 86.1495 63.9746C85.4134 60.7857 85.3665 55.7339 86.0729 55.7339C86.3594 55.7339 86.5938 56.059 86.5938 56.456C86.5938 57.7782 92.537 63.3427 96.0204 65.2822C99.9997 67.4979 101.11 67.7631 98.575 65.8928C96.4069 64.2934 96.995 64.1871 99.5554 65.7157C102.426 67.4297 100.882 66.1429 96.1584 62.8842C93.8268 61.2754 91.7812 60.097 91.6129 60.2658C91.4446 60.4341 91.1394 60.1278 90.9347 59.5854C90.7299 59.0431 89.9037 57.6849 89.0989 56.5675C86.6053 53.1051 87.0053 52.3539 92.276 50.6034C97.4243 48.8941 98.7547 47.1041 96.4382 45.0046C95.5198 44.1726 94.4477 43.9991 89.7964 43.9308C86.7459 43.886 82.2572 44.1205 79.8219 44.4518ZM34.4953 18.7639C34.4953 25.102 34.6923 29.1833 34.9975 29.1833C35.2752 29.1833 35.5664 26.9124 35.6487 24.1038L35.7976 19.0244H48.8205L48.9695 24.1038C49.0518 26.9124 49.343 29.1833 49.6207 29.1833C49.9259 29.1833 50.1228 25.102 50.1228 18.7639C50.1228 12.1648 49.9316 8.34453 49.6019 8.34453C49.2909 8.34453 49.081 10.3466 49.081 13.3094V18.2742L35.7976 17.9824L35.6476 13.1635C35.5653 10.5133 35.2726 8.34453 34.9965 8.34453C34.6923 8.34453 34.4953 12.4357 34.4953 18.7639ZM57.9366 18.7639C57.9366 25.363 58.1278 29.1833 58.4575 29.1833C58.7873 29.1833 58.9785 25.363 58.9785 18.7639C58.9785 12.1648 58.7873 8.34453 58.4575 8.34453C58.1278 8.34453 57.9366 12.1648 57.9366 18.7639ZM68.267 9.14161C66.6761 10.0054 65.4967 12.9525 66.0349 14.7181C66.623 16.6482 67.8023 17.6292 70.6304 18.5409C74.1524 19.6766 75.588 20.6222 76.1886 22.2023C76.8023 23.8163 75.6933 26.7597 74.1633 27.5787C72.4062 28.519 68.6483 28.2617 67.171 27.0994C65.6874 25.9324 65.2295 25.811 65.2295 26.5862C65.2295 27.6485 68.6124 29.1796 70.9596 29.1796C74.2284 29.1796 76.4663 27.7048 77.2701 25.0223C77.8087 23.2239 77.7769 22.6222 77.0643 21.1275C76.3783 19.6891 75.6287 19.1437 73.035 18.1981C71.2826 17.5589 69.2781 16.5873 68.5811 16.0387C66.1172 14.1002 67.4856 9.48076 70.569 9.32864C72.8475 9.21663 74.2873 9.49483 75.4818 10.2773C77.0393 11.2984 77.0867 10.2445 75.5318 9.15568C74.0852 8.14239 70.121 8.13458 68.267 9.14161ZM83.7191 9.51775C82.8231 10.2883 82.26 11.4052 82.0777 12.7738C81.6823 15.7392 83.1002 17.3432 87.3749 18.766C92.5164 20.4774 93.8572 23.5558 90.7947 26.6185C88.871 28.542 85.4147 28.7477 83.2768 27.0655C82.5246 26.4737 81.6646 26.1408 81.3656 26.3258C80.1648 27.0676 83.6144 28.8676 86.6602 29.0879C89.5591 29.2974 89.7743 29.226 91.5261 27.474C93.0811 25.9189 93.3592 25.2843 93.3592 23.2906C93.3592 21.3401 93.104 20.7253 91.8569 19.6761C91.0312 18.9811 89.2752 18.1101 87.9547 17.7402C85.5256 17.0598 82.9408 15.0171 82.9408 13.7777C82.9408 12.3664 83.9754 10.469 85.0625 9.88712C86.6904 9.01554 89.5242 9.14318 91.0724 10.1575C92.8144 11.2989 93.4634 10.6342 91.8689 9.34166C90.0457 7.86316 85.5288 7.9611 83.7191 9.51775ZM34.2715 46.7602C34.1116 46.9202 33.9808 47.8246 33.9808 48.7691C33.9808 50.0022 34.3017 50.6597 35.118 51.0962C36.0864 51.6146 36.3958 51.5313 37.2017 50.5357C38.3107 49.1661 38.4014 48.245 37.497 47.5375C36.6469 46.8722 34.6424 46.3893 34.2715 46.7602ZM54.0337 50.394C53.2924 51.1817 52.2089 52.5883 51.626 53.5198C51.0425 54.4513 50.356 55.2129 50.1002 55.2129C48.7276 55.2129 47.1356 62.0704 47.8483 64.9144C48.0004 65.5224 48.6911 66.3226 49.3834 66.693C51.2197 67.6761 52.8673 66.7258 55.0302 63.4375C57.5291 59.6375 57.7853 58.2669 56.3585 56.3367C55.3959 55.0348 55.2432 54.2872 55.4438 51.8673C55.5761 50.2689 55.6162 48.9613 55.5329 48.9613C55.449 48.9613 54.7744 49.6063 54.0337 50.394ZM68.1887 52.8186C67.7032 53.9366 67.3677 54.904 67.4432 54.9676C67.5187 55.0316 68.109 55.2458 68.7549 55.4448C70.0911 55.8553 70.9235 54.6034 70.0384 53.513C69.7509 53.1588 69.4154 52.3997 69.293 51.8266C69.1148 50.9905 68.8966 51.1864 68.1887 52.8186ZM55.1638 34.2544C54.5621 35.2526 53.328 38.5607 53.5567 38.5607C53.6974 38.5607 54.224 37.5901 54.7283 36.4034L55.6441 34.2466L56.3056 36.4544C56.6692 37.6688 57.0912 38.5378 57.2433 38.3857C57.5975 38.0314 56.4405 34.4956 55.8509 34.1314C55.605 33.9793 55.2961 34.0345 55.1638 34.2544ZM58.5451 36.3466C58.6279 38.6857 58.644 38.7118 58.8399 36.8202L59.0472 34.8196L62.3645 38.655L62.4259 36.133C62.4624 34.6482 62.3952 34.308 62.2629 35.3047C61.9847 37.4 61.6096 37.4245 60.2808 35.4349C59.7078 34.5769 59.0629 33.8741 58.8482 33.8736C58.6336 33.8725 58.4971 34.9858 58.5451 36.3466ZM63.6668 36.2163C63.6668 38.4367 63.7439 38.5607 65.1253 38.5607C66.8605 38.5607 67.8341 37.7183 67.8341 36.2163C67.8341 35.0629 66.9371 33.872 66.0677 33.872C65.7838 33.872 65.9822 34.1872 66.5089 34.5722C67.9675 35.6391 67.2174 38.0397 65.4254 38.0397C64.1679 38.0397 64.0913 37.9012 64.2768 35.9559C64.3862 34.8097 64.2934 33.872 64.071 33.872C63.8486 33.872 63.6668 34.927 63.6668 36.2163ZM71.8556 34.2174C71.2383 35.2406 69.9928 38.5607 70.2262 38.5607C70.3668 38.5607 70.9039 37.5662 71.4201 36.3508L72.3583 34.1408L72.9996 36.083C73.3517 37.1515 73.8492 38.1544 74.1044 38.3122C74.6186 38.63 73.1913 34.9113 72.5328 34.2174C72.3052 33.9772 72.0004 33.9772 71.8556 34.2174ZM91.803 60.6195C91.803 60.7274 92.2135 61.1379 92.7146 61.5312C93.5408 62.1788 93.5591 62.1606 92.9115 61.3343C92.2307 60.4664 91.803 60.1908 91.803 60.6195ZM36.5854 61.2385C36.5854 61.7407 38.754 64.5789 41.0372 67.0645C42.0239 68.1392 42.8328 68.7618 42.8339 68.4481C42.8354 68.1345 42.3338 67.4312 41.7191 66.8852C41.1044 66.3393 39.6979 64.7581 38.5936 63.3713C37.4892 61.9845 36.5854 61.0249 36.5854 61.2385ZM43.8783 69.476C43.8783 69.5839 44.2883 69.9944 44.7899 70.3877C45.6161 71.0353 45.6344 71.017 44.9868 70.1908C44.306 69.3228 43.8783 69.0473 43.8783 69.476ZM48.4775 72.0371C48.8333 72.4659 49.0573 73.1233 48.9755 73.4984C48.8938 73.874 49.1006 74.1918 49.435 74.2048C49.7689 74.2179 50.2184 74.4044 50.4331 74.619C51.0472 75.2332 52.8428 75.0754 52.6261 74.4263C52.5194 74.1053 51.3968 73.2608 50.1315 72.5502C48.8661 71.8397 48.1223 71.6089 48.4775 72.0371Z" fill="black" fill-opacity="0.598"/>
</svg>
