<svg width="132" height="88" viewBox="0 0 132 88" fill="none" xmlns="http://www.w3.org/2000/svg">
<path d="M55.0566 69.5797C50.8296 69.5797 47.1305 68.8831 43.9599 67.4897C40.7894 66.0484 38.3396 63.8627 36.6094 60.9323C34.8802 57.954 34.0156 54.183 34.0156 49.6191V20.2194C34.0156 19.691 34.1835 19.2587 34.5204 18.9223C34.8562 18.5861 35.289 18.418 35.8168 18.418H43.6711C44.1999 18.418 44.6327 18.5861 44.9685 18.9223C45.3043 19.2587 45.4731 19.691 45.4731 20.2194V49.547C45.4731 53.1019 46.3138 55.7441 47.9949 57.4736C49.6762 59.2031 52.0302 60.0677 55.0566 60.0677C58.0351 60.0677 60.3652 59.2031 62.0463 57.4736C63.7276 55.7441 64.568 53.1019 64.568 49.547V20.2194C64.568 19.691 64.736 19.2587 65.0729 18.9223C65.4568 18.5861 65.8894 18.418 66.3693 18.418H74.2964C74.7763 18.418 75.1852 18.5861 75.521 18.9223C75.8579 19.2587 76.0256 19.691 76.0256 20.2194V49.6191C76.0256 54.183 75.161 57.954 73.4318 60.9323C71.7018 63.8627 69.276 66.0484 66.1534 67.4897C63.0308 68.8831 59.3317 69.5797 55.0566 69.5797Z" fill="url(#paint0_linear_2056_25757)"/>
<path d="M88.0412 68.8592C87.5135 68.8592 87.0806 68.69 86.7448 68.3543C86.408 68.0185 86.2402 67.5856 86.2402 67.0568V20.2194C86.2402 19.691 86.408 19.2587 86.7448 18.9223C87.0806 18.5861 87.5135 18.418 88.0412 18.418H96.1845C96.7122 18.418 97.1451 18.5861 97.4808 18.9223C97.8177 19.2587 97.9855 19.691 97.9855 20.2194V67.0568C97.9855 67.5856 97.8177 68.0185 97.4808 68.3543C97.1451 68.69 96.7122 68.8592 96.1845 68.8592H88.0412Z" fill="url(#paint1_linear_2056_25757)"/>
<defs>
<linearGradient id="paint0_linear_2056_25757" x1="8.1415" y1="43.4063" x2="152.732" y2="43.4063" gradientUnits="userSpaceOnUse">
<stop stop-color="#FA6C9F"/>
<stop offset="1" stop-color="#FFE140"/>
</linearGradient>
<linearGradient id="paint1_linear_2056_25757" x1="17.0241" y1="43.4063" x2="111.979" y2="43.4063" gradientUnits="userSpaceOnUse">
<stop stop-color="#FA6C9F"/>
<stop offset="1" stop-color="#FFE140"/>
</linearGradient>
</defs>
</svg>
