<svg width="132" height="88" viewBox="0 0 132 88" fill="none" xmlns="http://www.w3.org/2000/svg">
<path d="M85.3643 8.52344H46.6352C37.6614 8.52344 30.3867 15.7699 30.3867 24.7089V63.288C30.3867 72.227 37.6614 79.4734 46.6352 79.4734H85.3643C94.3381 79.4734 101.613 72.227 101.613 63.288V24.7089C101.613 15.7699 94.3381 8.52344 85.3643 8.52344Z" fill="url(#paint0_linear_2056_24027)"/>
<path d="M43.3613 30.1953H61.7287V35.2812H49.327V41.7475H59.518V46.6001H49.327V57.7984H43.3613V30.1953ZM62.9986 57.8023H69.6385L75.6785 48.3381L81.5226 57.8023H88.6368L79.5747 43.6061L88.1978 30.1992H81.5344L75.9294 38.9518L70.5242 30.1992H63.4689L72.0921 43.6839L62.9986 57.8023Z" fill="white"/>
<defs>
<linearGradient id="paint0_linear_2056_24027" x1="37.2497" y1="90.5854" x2="120.046" y2="39.4956" gradientUnits="userSpaceOnUse">
<stop stop-color="#E50093"/>
<stop offset="0.796875" stop-color="#F73400"/>
<stop offset="1" stop-color="#ED8000"/>
</linearGradient>
</defs>
</svg>
