<svg width="132" height="88" viewBox="0 0 132 88" fill="none" xmlns="http://www.w3.org/2000/svg">
<path d="M72.3667 71.2728C71.7649 68.3777 69.1447 66.1986 66.0006 66.1986C62.8565 66.1986 60.2364 68.3777 59.6345 71.2728H47.1644C43.9502 71.2728 41.3197 68.1339 41.3197 64.2971C41.3197 60.4603 43.9502 57.3214 47.1644 57.3214H84.8369C88.051 57.3214 90.6815 60.4603 90.6815 64.2971C90.6815 68.1339 88.051 71.2728 84.8369 71.2728H72.3667ZM84.8369 30.6819H47.1644C43.9502 30.6819 41.3197 27.543 41.3197 23.7062C41.3197 19.8694 43.9502 16.7305 47.1644 16.7305H84.8369C88.051 16.7305 90.6815 19.8694 90.6815 23.7062C90.6815 27.543 88.051 30.6819 84.8369 30.6819ZM34.9433 50.9787C31.3036 50.9787 28.3281 47.8397 28.3281 44.0029C28.3281 40.1636 31.3062 37.0272 34.9433 37.0272H97.058C100.698 37.0272 103.673 40.1662 103.673 44.0029C103.673 47.8397 100.695 50.9787 97.058 50.9787H34.9433Z" fill="url(#paint0_linear_2056_21906)"/>
<defs>
<linearGradient id="paint0_linear_2056_21906" x1="28.2943" y1="43.9438" x2="103.639" y2="43.9438" gradientUnits="userSpaceOnUse">
<stop stop-color="#FBC67A"/>
<stop offset="1" stop-color="#FFA561"/>
</linearGradient>
</defs>
</svg>
