<svg width="132" height="88" viewBox="0 0 132 88" fill="none" xmlns="http://www.w3.org/2000/svg">
<path d="M8.52539 59.8512H16.2993V49.7677H25.0663V59.8512H32.8059V33.9758H25.0663V44.0252H16.2993V33.9758H8.52539V59.8512Z" fill="black"/>
<path d="M44.6458 60.4992C51.3238 60.4992 55.1251 56.8076 55.1251 51.3044C55.1251 45.7669 51.3238 42.0753 44.6458 42.0753C37.9678 42.0753 34.1664 45.7669 34.1664 51.3044C34.1664 56.8076 37.9678 60.4992 44.6458 60.4992ZM40.9129 51.3044C40.9129 48.5015 42.2828 46.9291 44.6458 46.9291C46.9745 46.9291 48.3786 48.5015 48.3786 51.3044C48.3786 54.0731 46.9745 55.6112 44.6458 55.6112C42.2828 55.6112 40.9129 54.0731 40.9129 51.3044Z" fill="black"/>
<path d="M56.1544 59.8506H63.2433V33.189H56.1544V59.8506Z" fill="black"/>
<path d="M65.2444 59.8506H72.3334V33.189H65.2444V59.8506Z" fill="black"/>
<path d="M83.7177 60.5C90.156 60.5 93.3752 56.9109 93.9916 53.2535H87.6218C87.2451 54.5866 86.0122 55.7146 83.8205 55.7146C81.663 55.7146 79.9849 54.4499 79.7794 51.6812H94.1286C94.1286 45.6994 90.2587 42.042 83.7862 42.042C77.9644 42.042 73.3754 45.3234 73.3754 51.3052C73.3754 57.2869 77.8616 60.5 83.7177 60.5ZM80.1904 48.8099C80.8068 47.2376 82.1082 46.4856 83.7862 46.4856C85.6013 46.4856 86.8684 47.2717 87.4506 48.8099H80.1904Z" fill="black"/>
<path d="M95.1292 59.8513H102.252V52.8782C102.287 50.0411 103.588 48.6055 109.102 48.6055V42.5212C105.026 42.5212 102.698 45.6659 102.287 48.4346H102.252V42.7263H95.1292V59.8513Z" fill="black"/>
<path fill-rule="evenodd" clip-rule="evenodd" d="M110.342 27.5285C111.34 27.7053 112.005 28.6558 111.828 29.6516L110.605 36.5271C110.428 37.5229 109.475 38.1868 108.478 38.01C107.48 37.8331 106.815 36.8826 106.992 35.8869L108.215 29.0113C108.392 28.0156 109.345 27.3517 110.342 27.5285Z" fill="#C06E6E"/>
<path fill-rule="evenodd" clip-rule="evenodd" d="M121.286 34.9631C121.885 35.7788 121.708 36.9247 120.89 37.5225L114.775 41.9959C113.958 42.5937 112.81 42.417 112.211 41.6013C111.612 40.7856 111.789 39.6397 112.606 39.0419L118.721 34.5685C119.539 33.9707 120.687 34.1474 121.286 34.9631Z" fill="#C06E6E"/>
<path fill-rule="evenodd" clip-rule="evenodd" d="M123.38 50.0563C123.057 51.0151 122.017 51.5316 121.057 51.2099L114.33 48.9572C113.369 48.6356 112.852 47.5975 113.174 46.6388C113.496 45.68 114.536 45.1635 115.497 45.4851L122.224 47.7378C123.185 48.0595 123.702 49.0975 123.38 50.0563Z" fill="#C06E6E"/>
</svg>
