<svg width="132" height="88" viewBox="0 0 132 88" fill="none" xmlns="http://www.w3.org/2000/svg">
<path fill-rule="evenodd" clip-rule="evenodd" d="M62.8902 7.36911C60.1124 8.17143 59.6697 15.9855 62.3022 17.7138C63.7598 18.6711 65.5485 18.1318 66.4418 16.4654C67.1492 15.1461 67.0726 10.0525 66.3258 8.78608C65.5407 7.45339 64.3275 6.95335 62.8902 7.36911ZM81.625 11.6886C79.1953 12.8875 77.2353 17.8037 78.382 19.8229C80.2564 23.1243 84.6787 20.3825 85.5055 15.4046C86.0361 12.2201 84.1685 10.4323 81.625 11.6886ZM43.7296 12.0369C40.8921 13.1763 42.3204 21.6658 45.4485 22.2512C47.8163 22.6939 49.2412 21.0084 49.0734 17.9632C48.8289 13.5393 46.4781 10.9323 43.7296 12.0369ZM61.0406 23.2044C45.0081 24.972 34.6517 36.0335 34.6641 51.3775C34.6787 68.4564 47.0841 79.9539 65.4956 79.9483C83.8316 79.9438 96.2303 68.3979 96.2393 51.319C96.246 40.4564 91.0453 31.5242 81.9494 26.7755C78.6354 25.045 75.8836 24.1708 71.2719 23.3831C69.7941 23.1303 62.817 23.0089 61.0406 23.2044ZM69.4685 39.3911C74.9227 41.1205 77.5394 45.0062 77.5462 51.3887C77.5563 61.3389 68.644 67.1237 59.8635 62.8671C50.5569 58.3567 51.1674 42.924 60.7804 39.6743C63.1301 38.8798 67.4162 38.7405 69.4685 39.3911ZM63.5379 43.6915C59.4298 44.7949 56.9573 50.1156 58.612 54.2923C61.6905 62.0637 72.9053 60.3198 73.304 52.0079C73.4122 49.7436 73.2747 49.4751 72.5775 50.5931C71.7924 51.8505 70.8169 52.4382 69.3131 52.5585C64.8321 52.918 62.5567 46.9883 66.1309 44.2679C67.1819 43.469 65.642 43.1262 63.5379 43.6915Z" fill="#0D2D54"/>
<path fill-rule="evenodd" clip-rule="evenodd" d="M97.6374 65.9029C89.7614 68.4773 91.4004 80.6805 99.6346 80.776C103.084 80.8165 105.992 78.5062 106.983 74.9374C108.563 69.2571 103.209 64.0826 97.6374 65.9029Z" fill="#E4185F"/>
</svg>
