<svg width="132" height="88" viewBox="0 0 132 88" fill="none" xmlns="http://www.w3.org/2000/svg">
<path d="M100.1 43.9984C100.1 39.5204 99.2184 35.0861 97.5047 30.9489C95.791 26.8117 93.2792 23.0526 90.1127 19.8861L74.3061 35.6928C75.3968 36.7835 76.262 38.0783 76.8523 39.5034C77.4426 40.9285 77.7464 42.4559 77.7464 43.9984H100.1Z" fill="#C30835"/>
<path d="M90.1127 68.1108C93.2792 64.9443 95.791 61.1851 97.5047 57.0479C99.2184 52.9107 100.1 48.4765 100.1 43.9984H77.7464C77.7464 45.5409 77.4426 47.0683 76.8523 48.4934C76.262 49.9185 75.3968 51.2134 74.3061 52.3041L90.1127 68.1108Z" fill="#8E0F3E"/>
<path d="M66.0004 78.0984C75.0443 78.0984 83.7177 74.5058 90.1127 68.1108L74.3061 52.3041C72.1033 54.5069 69.1156 55.7444 66.0004 55.7444V78.0984Z" fill="#571A43"/>
<path d="M90.1127 19.8861C86.1474 15.9208 81.2654 12.9946 75.8991 11.3668C70.5328 9.73892 64.8478 9.45964 59.3478 10.5537C53.8478 11.6477 48.7025 14.0812 44.3676 17.6388C40.0327 21.1963 36.6421 25.768 34.4961 30.9489C32.3501 36.1298 31.5149 41.76 32.0646 47.3408C32.6143 52.9216 34.5318 58.2807 37.6473 62.9434C40.7628 67.6061 44.9802 71.4285 49.9258 74.072C54.8714 76.7154 60.3926 78.0984 66.0004 78.0984V55.7444C64.0688 55.7444 62.1669 55.2681 60.4634 54.3575C58.7598 53.4469 57.3071 52.1303 56.234 50.5242C55.1608 48.9181 54.5003 47.0721 54.311 45.1497C54.1216 43.2274 54.4093 41.288 55.1485 39.5034C55.8877 37.7188 57.0556 36.1441 58.5488 34.9187C60.042 33.6932 61.8143 32.855 63.7089 32.4781C65.6034 32.1013 67.5616 32.1975 69.4101 32.7582C71.2585 33.3189 72.9402 34.3269 74.3061 35.6928L90.1127 19.8861Z" fill="#FF582D"/>
</svg>
