<svg width="132" height="88" viewBox="0 0 132 88" fill="none" xmlns="http://www.w3.org/2000/svg">
<path d="M89.0992 73.7008H42.8992C39.3984 73.7008 36.0409 72.3101 33.5654 69.8346C31.0899 67.3591 29.6992 64.0016 29.6992 60.5008C29.6992 56.9999 31.0899 53.6424 33.5654 51.167C36.0409 48.6915 39.3984 47.3008 42.8992 47.3008H89.0992C92.6001 47.3008 95.9575 48.6915 98.433 51.167C100.909 53.6424 102.299 56.9999 102.299 60.5008C102.299 64.0016 100.909 67.3591 98.433 69.8346C95.9575 72.3101 92.6001 73.7008 89.0992 73.7008Z" fill="url(#paint0_linear_2056_24516)"/>
<path d="M89.0992 73.7008C96.3894 73.7008 102.299 67.7909 102.299 60.5008C102.299 53.2106 96.3894 47.3008 89.0992 47.3008C81.8091 47.3008 75.8994 53.2106 75.8994 60.5008C75.8994 67.7909 81.8091 73.7008 89.0992 73.7008Z" fill="#FF5C35"/>
<path d="M89.0992 40.7008H75.8992C72.3984 40.7008 69.0409 39.3101 66.5654 36.8346C64.0899 34.3591 62.6992 31.0016 62.6992 27.5008C62.6992 23.9999 64.0899 20.6425 66.5654 18.167C69.0409 15.6915 72.3984 14.3008 75.8992 14.3008H89.0992C92.6001 14.3008 95.9575 15.6915 98.433 18.167C100.909 20.6425 102.299 23.9999 102.299 27.5008C102.299 31.0016 100.909 34.3591 98.433 36.8346C95.9575 39.3101 92.6001 40.7008 89.0992 40.7008ZM42.8992 14.3008C35.6091 14.3008 29.6992 20.2107 29.6992 27.5008C29.6992 34.7909 35.6091 40.7008 42.8992 40.7008C50.1893 40.7008 56.0992 34.7909 56.0992 27.5008C56.0992 20.2107 50.1893 14.3008 42.8992 14.3008Z" fill="url(#paint1_linear_2056_24516)"/>
<defs>
<linearGradient id="paint0_linear_2056_24516" x1="29.6992" y1="44.0008" x2="102.299" y2="44.0008" gradientUnits="userSpaceOnUse">
<stop offset="0.01" stop-color="#FF5C35"/>
<stop offset="0.64" stop-color="#FFA766"/>
</linearGradient>
<linearGradient id="paint1_linear_2056_24516" x1="29.6992" y1="27.5008" x2="102.299" y2="27.5008" gradientUnits="userSpaceOnUse">
<stop stop-color="#FF5C35"/>
<stop offset="1" stop-color="#FFA766"/>
</linearGradient>
</defs>
</svg>
