<svg width="132" height="88" viewBox="0 0 132 88" fill="none" xmlns="http://www.w3.org/2000/svg">
<path d="M50.3096 15.5445L81.5955 15.5391L81.8045 15.5607L81.9935 15.6095L82.1153 15.6557C82.1692 15.6792 82.2223 15.7065 82.2723 15.737L82.0644 15.6339C82.1642 15.6746 82.2542 15.7234 82.3402 15.783L82.497 15.9104L82.66 16.0948L82.7409 16.2194L98.2943 43.3022C98.3785 43.4433 98.4354 43.6003 98.4654 43.7576L98.4844 43.9336L98.4704 44.2075L98.4165 44.4435L98.3084 44.6764L82.687 71.8654L82.5789 72.0056L82.47 72.1143L82.3672 72.2009L82.1862 72.3125L81.9772 72.3989L81.8964 72.4234L81.6904 72.4591L81.5667 72.4641L50.3176 72.4591L50.0797 72.4184L49.8768 72.3453L49.7568 72.282L49.6567 72.2171L49.497 72.087L49.4159 72.0004L49.313 71.8703L33.6316 44.5573L33.5426 44.2834L33.5156 44.1044L33.5206 43.8525L33.5566 43.6655L33.6266 43.4568L33.6945 43.3267L49.2781 16.1869L49.4049 16.0135L49.5919 15.8346L49.7709 15.7126L49.9249 15.6394L50.1636 15.5662L50.3126 15.5445H50.3096ZM75.0277 65.8558L60.6325 69.7531H78.5279L75.0277 65.8577V65.8558ZM49.9848 50.5994L51.642 69.3769L72.05 63.8522L49.9848 50.5966V50.5994ZM91.4317 51.2148L77.3696 64.4132L81.3227 68.8126L91.4317 51.2148ZM37.7366 46.2786L48.5493 65.1075L47.1501 49.1058L37.7366 46.2786ZM74.3749 33.9938L51.0293 48.0622L74.1422 61.9519L74.3749 33.9938ZM77.0828 33.9258L76.8578 61.1767L94.8811 44.259L77.0828 33.9258ZM48.7014 22.6222L36.886 43.1936L47.1611 46.2813L48.7014 22.625V22.6222ZM51.6359 19.1606L49.9037 45.5765L73.0785 31.6081L51.6359 19.1606ZM81.7883 20.0009L77.4296 30.9982L93.4409 40.2904L81.7883 20.0036V20.0009ZM79.5765 18.2498H55.4669L75.0657 29.624L79.5765 18.2498Z" fill="url(#paint0_linear_2056_25528)"/>
<defs>
<linearGradient id="paint0_linear_2056_25528" x1="66" y1="15.5391" x2="66" y2="72.4641" gradientUnits="userSpaceOnUse">
<stop stop-color="#7188D9"/>
<stop offset="1" stop-color="#CF6AA8"/>
</linearGradient>
</defs>
</svg>
