<svg width="132" height="88" viewBox="0 0 132 88" fill="none" xmlns="http://www.w3.org/2000/svg">
<path fill-rule="evenodd" clip-rule="evenodd" d="M88.1258 24.5919C90.5889 25.0166 93.5617 26.8002 95.94 30.2826C98.3182 33.85 99.3374 40.2202 99.3374 44.1273C99.3374 61.2845 84.1338 76.8279 65.5326 76.8279C57.4118 76.8115 49.5925 73.7504 43.6189 68.2493C41.7044 66.432 39.9954 64.4097 38.5228 62.2188C41.0709 64.4272 44.3834 65.0217 47.611 65.0217C49.8193 67.2301 56.3595 71.5619 65.3627 71.5619C80.1417 71.5619 93.3919 59.7557 93.3919 44.1273C93.3919 35.209 90.5889 31.5567 86.2572 31.2169C85.5731 31.1398 84.8805 31.1975 84.2187 31.3868H83.794C82.948 31.7158 82.1914 32.2396 81.5857 32.9157C81.5182 33.0938 81.4329 33.2645 81.3308 33.4253C80.282 35.1036 80.1542 37.1275 80.1417 39.7812V41.5792V55.254C80.1417 61.1147 73.2619 63.5778 73.2619 63.5778V45.826H58.7378V46.9302C58.8135 49.9192 58.4122 52.9011 57.5486 55.7636C56.6072 58.4206 54.777 60.6709 52.3675 62.1339C52.1653 62.2458 51.9598 62.3509 51.7512 62.4492C51.5127 62.5766 51.2652 62.698 51.0084 62.8134C50.1455 63.202 49.2294 63.4597 48.2905 63.5778H47.611C46.5368 63.6628 45.4576 63.6628 44.3834 63.5778C44.3834 63.4929 44.0436 63.4929 43.8738 63.4929C41.4106 62.9833 38.4378 61.3695 36.0596 57.8021C33.6813 54.2348 32.6621 47.8645 32.6621 43.9574C32.6621 26.8002 47.8658 11.2568 66.4669 11.1719C74.5701 11.1977 82.3766 14.2235 88.3806 19.6655C88.4496 19.7518 88.638 19.9504 88.9072 20.2343C89.9621 21.3466 92.2587 23.7681 93.4768 25.8659C90.9287 23.6576 87.6162 23.063 84.3886 23.063C82.1802 20.8547 75.6401 16.5229 66.6368 16.5229C51.7729 16.5229 38.6077 28.3291 38.6077 43.9574C38.6077 52.8758 41.4106 56.5281 45.6574 56.8678C46.3696 56.9063 47.0839 56.8491 47.7808 56.6979H48.2055C49.0515 56.3689 49.8081 55.8452 50.4139 55.1691C50.4139 55.1266 50.435 55.1054 50.4564 55.0842C50.4776 55.0629 50.4988 55.0417 50.4988 54.9992C50.4988 54.9143 50.5838 54.8293 50.6687 54.7444C50.9178 54.3154 51.1172 53.8595 51.2632 53.3854C51.2632 53.3005 51.2632 53.3005 51.3482 53.2155C51.3354 53.0959 51.3656 52.9754 51.4331 52.8758C51.5314 52.4577 51.5883 52.0309 51.603 51.6017C51.7476 50.4337 51.8325 49.2594 51.8578 48.0833V46.5905V32.6609C51.8578 26.8002 58.7378 24.3371 58.7378 24.3371V39.7106H73.2619C73.176 36.3587 73.9047 33.0361 75.3853 30.0278C76.3547 28.2556 77.795 26.7859 79.5473 25.781C80.4777 25.2476 81.4783 24.8473 82.52 24.5919C84.1194 24.3108 85.7531 24.2822 87.3614 24.5069L87.786 24.5919H88.1258Z" fill="#0069E5"/>
</svg>
