<svg width="132" height="88" viewBox="0 0 132 88" fill="none" xmlns="http://www.w3.org/2000/svg">
<mask id="mask0_2056_23237" style="mask-type:alpha" maskUnits="userSpaceOnUse" x="31" y="9" width="70" height="70">
<path d="M66.0004 78.0984C84.8333 78.0984 100.1 62.8313 100.1 43.9984C100.1 25.1655 84.8333 9.89844 66.0004 9.89844C47.1675 9.89844 31.9004 25.1655 31.9004 43.9984C31.9004 62.8313 47.1675 78.0984 66.0004 78.0984Z" fill="#C4C4C4"/>
</mask>
<g mask="url(#mask0_2056_23237)">
<path d="M66.0004 78.0984C84.8333 78.0984 100.1 62.8313 100.1 43.9984C100.1 25.1655 84.8333 9.89844 66.0004 9.89844C47.1675 9.89844 31.9004 25.1655 31.9004 43.9984C31.9004 62.8313 47.1675 78.0984 66.0004 78.0984Z" fill="#ABEBD2"/>
<path fill-rule="evenodd" clip-rule="evenodd" d="M63.9395 75.5914L70.4626 45.3867H75.1674L79.465 75.5914H63.9395Z" fill="#B28B67"/>
<path fill-rule="evenodd" clip-rule="evenodd" d="M87.0742 60.339C82.2294 61.5797 63.6532 52.0889 64.6246 38.3359C65.596 24.5827 84.8671 27.6083 88.6158 34.5497C92.3644 41.491 91.919 59.0984 87.0742 60.339Z" fill="#B28B67"/>
<path fill-rule="evenodd" clip-rule="evenodd" d="M90.08 37.6669C89.9262 36.7672 89.5504 35.768 89.2471 34.9168C88.8561 33.8194 88.2645 32.83 87.6133 31.8975C86.3874 30.1419 84.9168 28.5566 83.2931 27.2407C80.3272 24.8374 76.5518 23.4511 72.8391 23.9013C70.9646 24.1286 69.145 24.8389 67.5961 26.0212C66.1968 27.0895 64.8508 28.662 63.0388 28.775C61.0673 28.8978 59.26 27.1691 57.6788 26.1014C55.896 24.8977 53.9994 24.0206 51.9158 23.6797C48.4252 23.1087 45.146 24.2803 42.7403 27.1253C40.1803 30.153 38.3195 34.5929 40.0006 38.6044C40.3131 39.3501 40.7151 39.9788 41.2921 40.4998C41.8212 40.9777 42.6293 41.486 42.8439 42.2494C43.0717 43.0609 42.391 44.1078 42.1271 44.84C41.7489 45.8891 41.4384 46.9903 41.5488 48.1306C41.7302 50.0032 42.9148 51.7909 44.1656 53.0218C45.4386 54.2743 47.0052 54.9925 48.6785 55.3235C49.7958 55.5446 50.9377 55.6666 52.0733 55.5836C52.637 55.5424 53.1345 55.3868 53.6806 55.2631C54.2117 55.1428 54.5086 55.2829 54.9593 55.5723C57.0526 56.9168 59.3035 57.437 61.7207 57.237C63.7608 57.0682 66.1121 56.577 67.7762 55.1884C69.6245 53.6462 69.5876 51.5196 69.1527 49.2474C69.6135 49.4744 70.8882 49.6148 70.1265 48.7106C69.8248 48.3525 69.2546 48.2067 68.8674 47.996C68.4166 47.7508 67.9588 47.4339 67.6087 47.0338C66.1952 45.4184 67.6229 42.1311 69.3995 41.5893C72.0392 40.7845 72.6302 44.4931 74.5145 45.4524C75.598 46.004 76.7314 45.25 77.5431 44.4803C78.6305 43.449 79.3715 42.0829 80.0113 40.6926C80.5384 39.5478 81.0288 38.3868 81.5659 37.2476C81.8168 36.7156 82.6852 35.2117 82.2491 34.6102C84.1397 34.2357 86.2456 35.0162 87.8739 36.0398C88.5469 36.4629 89.06 36.9294 89.419 37.6764C89.4958 37.8365 89.6633 38.3123 89.8735 38.3318C90.2649 38.3682 90.1186 37.893 90.08 37.6669Z" fill="#191847"/>
<path fill-rule="evenodd" clip-rule="evenodd" d="M75.7793 65.3346L82.6742 62.5039C93.9236 85.7832 109.823 107.956 135.05 125.861L129.863 136.465C108.03 125.564 87.5098 117.345 78.1579 99.3502C75.0191 93.3111 76.0795 72.7973 75.7793 65.3346Z" fill="#69A1AC"/>
<path fill-rule="evenodd" clip-rule="evenodd" d="M67.6655 61.1876C39.5022 78.4954 20.0922 106.967 9.43555 146.603L21.6118 150.189C34.1992 116.972 49.2794 98.7958 66.8525 95.6606L71.148 61.1875L67.6655 61.1876Z" fill="#89C5CC"/>
<path fill-rule="evenodd" clip-rule="evenodd" d="M51.5605 134.718C71.829 136.948 87.7824 136.948 99.4209 134.718C100.863 134.442 100.799 128.218 100.131 126.518C89.7175 100.048 82.8676 80.6706 82.8676 62.2852C80.9569 63.2845 77.6129 63.4343 72.8357 62.7345C59.9973 81.6813 54.0959 103.421 51.5605 134.718Z" fill="#191847"/>
<path fill-rule="evenodd" clip-rule="evenodd" d="M24.4082 207.077C51.0016 196.441 73.1639 209.754 92.3004 205.475C102.654 152.178 72.8365 89.772 74.9952 61.1875H68.6663C65.1113 69.7116 55.6461 82.5298 51.0016 95.406C47.1753 106.013 52.1333 116.883 50.331 128.054C46.3269 152.871 25.5439 182.444 24.4082 207.077Z" fill="#89C5CC"/>
<path fill-rule="evenodd" clip-rule="evenodd" d="M70.3245 61.832L66.9984 72.0736L73.6965 79.751L67.6431 85.7846L82.288 110.892L64.3789 85.8351L70.3245 79.751L64.3789 72.9664L70.3245 61.832Z" fill="black" fill-opacity="0.1"/>
</g>
</svg>
