<svg width="132" height="88" viewBox="0 0 132 88" fill="none" xmlns="http://www.w3.org/2000/svg">
<path d="M84.904 8.89056C82.5683 9.20432 80.9297 10.0062 79.1518 11.7493C76.6765 14.1199 75.9443 15.8631 75.9443 19.3145C75.9443 22.6961 76.7462 24.753 78.9077 26.9145C81.1041 29.1108 83.1609 29.9127 86.5426 29.9127C89.994 29.9127 91.7371 29.1457 94.1078 26.7053C96.1647 24.5787 97.0013 22.4869 97.0362 19.4191C97.0362 12.8649 91.4582 8.01899 84.904 8.89056ZM89.5059 12.8649C94.4913 15.1309 95.0839 22.208 90.517 25.3457C86.5077 28.0998 80.9297 26.1475 79.5701 21.5108C77.8269 15.5144 83.8233 10.2851 89.5059 12.8649Z" fill="#57C2D8"/>
<path d="M63.6843 29.9428C61.4531 30.64 54.376 32.8015 47.9264 34.7189C41.4769 36.6712 35.9337 38.4841 35.5851 38.7978C34.853 39.4603 34.7484 40.785 35.3759 41.9355C35.8989 42.9116 39.664 47.9318 41.7209 50.407C42.5925 51.4181 43.8126 53.3007 44.4402 54.5906C46.7063 59.0878 50.6108 62.1906 55.0035 63.0273C57.1999 63.4457 60.0586 63.132 64.9742 61.9466C66.6824 61.5631 68.1815 61.2145 68.2861 61.2145C68.4256 61.2145 67.9026 64.3172 67.1008 68.0824C65.4274 76.1356 65.3228 78.0182 66.4733 78.7503C67.4494 79.343 72.4348 79.3778 75.0146 78.7852C79.3725 77.809 84.288 74.8806 87.4954 71.3595C89.9706 68.6053 92.5853 63.5153 93.3174 59.9245C95.1651 51.1391 92.3064 40.2969 86.5889 34.5447C82.4752 30.4309 77.8385 28.618 71.3889 28.6528C68.2513 28.6877 67.1008 28.8621 63.6843 29.9428ZM73.8293 33.5685C82.1963 35.3465 87.9138 42.1446 89.622 52.3245C89.7266 52.987 89.7266 53.5098 89.5522 53.5098C89.4129 53.5098 88.6459 52.4291 87.844 51.1044C86.1706 48.3502 82.6495 44.829 80.4881 43.7135C77.6642 42.2841 74.9449 41.7264 71.7724 41.9006C69.4715 42.0401 66.8568 42.7025 60.1981 44.7245C48.4145 48.3502 46.253 48.4548 42.8365 45.4566C41.6163 44.3758 39.8383 41.9006 40.1172 41.6566C40.3961 41.4125 60.6164 35.1722 63.8586 34.3354C69.5064 32.8712 70.3082 32.8015 73.8293 33.5685ZM78.3265 47.4089C79.3376 47.9318 80.7321 48.8731 81.3944 49.5704C82.51 50.7209 83.8349 52.7429 83.5559 52.9521C83.4862 53.0217 81.3944 53.3356 78.8844 53.7191C76.1999 54.0677 71.9816 55.0438 68.8091 55.9851C65.7761 56.8915 62.3247 57.8328 61.1044 58.0768C56.3283 59.0878 51.0989 57.1704 49.3558 53.7887C48.9375 52.987 48.9026 52.7429 49.2861 52.6035C52.4934 51.4181 67.8329 47.13 71.1797 46.4328C73.2366 46.0493 76.5137 46.4676 78.3265 47.4089ZM82.7541 59.1924C84.567 60.2732 85.4733 61.9466 85.4733 64.3172C85.4733 66.6879 84.7412 68.0824 82.4752 70.2439C80.1742 72.4054 78.2916 73.4512 75.3283 74.2182C73.0623 74.8108 70.099 74.9503 70.099 74.4622C70.099 73.4163 72.0164 64.3521 72.6788 62.4346C73.5155 59.8897 74.1431 59.2971 76.7578 58.4255C78.71 57.798 80.8018 58.0768 82.7541 59.1924Z" fill="#57C2D8"/>
</svg>
