<svg width="132" height="88" viewBox="0 0 132 88" fill="none" xmlns="http://www.w3.org/2000/svg">
<path fill-rule="evenodd" clip-rule="evenodd" d="M62.9001 7.25309C62.5986 7.29676 61.4638 7.44314 60.3783 7.57833C55.878 8.13883 50.472 10.2009 45.796 13.1405C42.5543 15.1784 38.3163 19.2327 36.0581 22.4561C28.5316 33.2002 27.066 46.5036 32.1024 58.3579C34.1273 63.1233 36.3243 66.3588 40.0797 70.1049C52.61 82.604 71.9937 84.3981 86.8019 74.4292C95.4147 68.6311 101.263 58.9737 102.579 48.3782C103.442 41.424 102.241 34.3726 99.0817 27.8531C93.5416 16.4193 82.7485 8.80248 70.0178 7.34307C68.1644 7.13063 64.1031 7.07928 62.9001 7.25309ZM54.198 13.2503C46.0898 18.7367 40.3771 27.5805 38.5277 37.5093C37.8998 40.8789 37.8389 46.713 38.3981 49.9088C39.926 58.6417 44.1198 66.1729 50.6906 71.984C52.4776 73.5641 55.9771 76.0244 56.4378 76.0244C56.8954 76.0244 59.8534 73.9828 61.9133 72.2451C68.2166 66.9278 72.4847 59.6299 74.335 51.0061C74.7578 49.0351 74.8299 48.035 74.8343 44.0931C74.8387 40.1288 74.7694 39.1487 74.3387 37.0822C72.725 29.3401 69.2777 22.8872 63.8985 17.5385C61.312 14.9671 57.2439 11.9423 56.3716 11.9423C56.2394 11.9423 55.2611 12.5309 54.198 13.2503ZM54.5673 35.7168C53.904 35.8697 52.9666 36.1833 52.4841 36.4138C51.282 36.9881 49.2887 39.0341 48.6373 40.3623C48.1608 41.334 48.0991 41.7486 48.0987 43.9834C48.0985 46.4362 48.1193 46.5455 48.8418 47.8792C51.6327 53.0297 58.4583 54.0146 62.4065 49.8368C63.7283 48.4379 64.2941 47.3832 64.651 45.6523C65.2578 42.7109 64.3173 39.8898 62.0205 37.7619C59.9744 35.8658 57.2114 35.1078 54.5673 35.7168Z" fill="#A3A3A3"/>
</svg>
