<svg width="132" height="88" viewBox="0 0 132 88" fill="none" xmlns="http://www.w3.org/2000/svg">
<mask id="mask0_2056_25072" style="mask-type:luminance" maskUnits="userSpaceOnUse" x="34" y="12" width="64" height="64">
<path d="M34.0156 12.0156H97.9852V75.9852H34.0156V12.0156Z" fill="white"/>
</mask>
<g mask="url(#mask0_2056_25072)">
<path d="M76.7681 38.0044L69.0148 45.7578V17.0142C69.0148 16.9107 69.0087 16.8084 68.9988 16.7077C68.8448 15.1956 67.5685 14.0156 66.0162 14.0156C64.3601 14.0156 63.0176 15.3582 63.0176 17.0142V45.7578L55.2634 38.0042C54.0919 36.8332 52.1938 36.8332 51.0223 38.0042C49.8519 39.1754 49.8519 41.0737 51.0223 42.245L63.8951 55.1174C64.458 55.6798 65.2206 55.9958 66.0162 55.9958C66.8109 55.9958 67.5735 55.6798 68.1361 55.1174L81.0092 42.245C81.1549 42.0987 81.2831 41.9408 81.3931 41.7744C82.1617 40.6106 82.0335 39.0291 81.0092 38.0044C79.8377 36.8332 77.9385 36.8332 76.7681 38.0044Z" fill="black"/>
<path d="M39.0293 67.9908C39.0293 66.3345 40.3717 64.9922 42.0279 64.9922H90.0051C91.6614 64.9922 93.0037 66.3345 93.0037 67.9908C93.0037 69.6471 91.6614 70.9894 90.0051 70.9894H42.0279C40.3717 70.9894 39.0293 69.6471 39.0293 67.9908Z" fill="black"/>
</g>
</svg>
