<svg width="132" height="88" viewBox="0 0 132 88" fill="none" xmlns="http://www.w3.org/2000/svg">
<path fill-rule="evenodd" clip-rule="evenodd" d="M35.7323 16.0231C35.7323 14.4245 37.0442 13.1289 38.6624 13.1289C43.6317 13.1289 47.4459 15.6034 50.0791 18.3897C51.9969 20.421 53.4019 22.7286 54.3142 24.7054H74.1961L78.1008 18.917H73.8101C72.1933 18.917 70.8814 17.6213 70.8814 16.0231C70.8814 14.4245 72.1933 13.1289 73.8101 13.1289H91.3841C93.0023 13.1289 94.3139 14.4245 94.3139 16.0231C94.3139 17.6213 93.0023 18.917 91.3841 18.917H85.1418L79.2288 27.6808L86.4211 39.5272C88.5592 38.678 90.8928 38.2108 93.3368 38.2108C103.582 38.2108 111.888 46.4173 111.888 56.5402C111.888 66.663 103.582 74.8695 93.3368 74.8695C83.0916 74.8695 74.7872 66.663 74.7872 56.5402C74.7872 56.2168 74.7954 55.895 74.8117 55.5753H65.9996C64.9228 55.5753 63.932 54.9909 63.4206 54.0535L52.5179 34.0469L49.0627 41.3612C53.9808 44.6574 57.2121 50.2259 57.2121 56.5402C57.2121 66.663 48.9077 74.8695 38.6624 74.8695C28.4171 74.8695 20.1113 66.663 20.1113 56.5402C20.1113 46.4173 28.4171 38.2108 38.6624 38.2108C40.429 38.2108 42.1377 38.4552 43.7559 38.9105L49.1532 27.4835C48.4905 25.9498 47.3621 23.9975 45.7954 22.3388C43.872 20.3016 41.5021 18.917 38.6624 18.917C37.0442 18.917 35.7323 17.6213 35.7323 16.0231ZM76.0869 49.7873C77.2275 46.9427 79.0697 44.4472 81.4007 42.5089L74.1042 30.4934H57.2351L67.7488 49.7873H76.0869ZM84.4725 47.5657C82.1104 49.8433 80.6446 53.0226 80.6446 56.5402C80.6446 63.4662 86.3281 69.0811 93.3368 69.0811C100.347 69.0811 106.031 63.4662 106.031 56.5402C106.031 49.6141 100.347 43.9992 93.3368 43.9992C91.9967 43.9992 90.7063 44.2043 89.493 44.5847L95.8487 55.0513C96.6812 56.4219 96.2318 58.1996 94.8446 59.022C93.457 59.8441 91.6578 59.3999 90.8253 58.0294L84.4725 47.5657ZM36.0076 55.3165L41.2307 44.2562C40.4019 44.0878 39.5424 43.9992 38.6624 43.9992C31.6522 43.9992 25.9688 49.6141 25.9688 56.5402C25.9688 63.4662 31.6522 69.0811 38.6624 69.0811C45.6723 69.0811 51.3547 63.4662 51.3547 56.5402C51.3547 52.5547 49.4732 49.003 46.5389 46.7058L41.3156 57.7642C40.6315 59.2126 38.889 59.8386 37.4232 59.1626C35.9576 58.4869 35.3233 56.7649 36.0076 55.3165Z" fill="#1E5AF6"/>
</svg>
