<svg width="132" height="88" viewBox="0 0 132 88" fill="none" xmlns="http://www.w3.org/2000/svg">
<path d="M66.0004 78.0984C84.8333 78.0984 100.1 62.8313 100.1 43.9984C100.1 25.1655 84.8333 9.89844 66.0004 9.89844C47.1675 9.89844 31.9004 25.1655 31.9004 43.9984C31.9004 62.8313 47.1675 78.0984 66.0004 78.0984Z" fill="#181C20"/>
<path d="M54.9516 42.88C54.8379 43.4456 54.7754 44.028 54.7754 44.6198C54.7754 50.1909 59.9946 54.7033 66.4337 54.7033C72.8722 54.7033 78.092 50.1902 78.092 44.6198C78.092 44.028 78.0289 43.4456 77.9152 42.88C75.4949 40.3991 71.2593 38.75 66.4337 38.75C61.6075 38.75 57.3713 40.3991 54.9516 42.88ZM71.956 45.4997C71.956 48.5504 69.4839 51.0213 66.4337 51.0213C63.3842 51.0213 60.9114 48.5504 60.9114 45.4997C60.9114 44.736 61.0664 44.0086 61.3476 43.3462C61.6613 44.2442 62.5149 44.886 63.5192 44.886C64.7908 44.886 65.8201 43.8574 65.8201 42.5851C65.8201 41.5808 65.177 40.7272 64.2803 40.4129C64.9421 40.1329 65.6701 39.9767 66.4337 39.9767C69.4832 39.9773 71.956 42.4507 71.956 45.4997Z" fill="white"/>
<path d="M66.2901 21.9648C52.9933 26.8267 43.4722 41.9926 45.928 57.3103C45.928 57.3103 53.8744 64.4587 66.2895 64.4587C78.7045 64.4587 86.6509 57.3103 86.6509 57.3103C89.1072 41.9926 79.5863 26.8267 66.2901 21.9648ZM83.8263 55.605C83.8263 55.605 80.9118 58.0777 76.5149 59.4513C76.3474 59.5044 76.1518 59.5082 75.9769 59.4057C75.72 59.2563 75.6513 58.9551 75.8037 58.6914C75.8288 58.6489 75.8999 58.5633 75.9681 58.507C77.0236 57.6391 77.9065 56.558 78.6302 55.3044C79.9256 53.0597 80.3999 50.5688 80.1462 48.1742L80.1443 48.1692C79.3919 52.0398 77.0298 55.5756 73.3472 57.7028C65.5183 62.2215 55.6516 61.0342 48.7551 55.6062C48.7551 55.6062 48.0703 51.8449 49.0788 47.3506C49.117 47.18 49.2113 47.0081 49.3882 46.9087C49.6463 46.76 49.9406 46.85 50.0924 47.115C50.1181 47.1575 50.1562 47.2624 50.1706 47.3493C50.3937 48.6966 50.888 50.0014 51.6122 51.2562C52.9083 53.5003 54.8293 55.1563 57.0283 56.1343C55.8791 55.135 54.8724 53.9308 54.0681 52.5367C52.7121 50.1883 52.1091 47.6136 52.1815 45.0884C52.3509 36.2115 58.2575 28.4433 66.2895 25.2319C66.2895 25.2319 69.8883 26.5204 73.2772 29.64C73.4066 29.7593 73.5065 29.9275 73.506 30.1299C73.5041 30.4274 73.2797 30.6373 72.9742 30.6373C72.9242 30.6373 72.8148 30.618 72.7317 30.5879C71.4525 30.1068 70.0758 29.8818 68.6273 29.8818C66.0358 29.8818 63.6405 30.7179 61.6951 32.1346L61.6926 32.1371C65.7658 30.728 70.2008 31.2935 73.7503 33.4982C81.3086 38.095 85.0582 47.0687 83.8263 55.605Z" fill="white"/>
</svg>
