<svg width="132" height="88" viewBox="0 0 132 88" fill="none" xmlns="http://www.w3.org/2000/svg">
<path fill-rule="evenodd" clip-rule="evenodd" d="M77.737 8.21813C77.7161 8.28117 77.4798 8.32542 77.0624 8.34437C76.709 8.3604 76.42 8.403 76.42 8.439C76.42 8.475 76.2519 8.52915 76.0466 8.55949C75.8413 8.58975 75.6518 8.6476 75.6256 8.68816C75.5994 8.72864 75.4314 8.78146 75.2522 8.80543C75.0731 8.82948 74.9265 8.87538 74.9265 8.90737C74.9265 8.93936 74.785 8.98817 74.6121 9.01584C74.4391 9.04351 74.2976 9.09829 74.2976 9.13751C74.2976 9.17681 74.1915 9.2323 74.0618 9.26076C73.9321 9.28921 73.826 9.34509 73.826 9.38486C73.826 9.42471 73.7199 9.45725 73.5902 9.45725C73.433 9.45725 73.3544 9.49655 73.3544 9.57515C73.3544 9.64888 73.2799 9.69305 73.1554 9.69305C73.0459 9.69305 72.936 9.74611 72.9112 9.81095C72.8863 9.8758 72.7813 9.92885 72.6778 9.92885C72.5631 9.92885 72.4897 9.97483 72.4897 10.0468C72.4897 10.1122 72.4198 10.1646 72.3325 10.1646C72.2452 10.1646 72.1753 10.2171 72.1753 10.2825C72.1753 10.3559 72.1011 10.4004 71.9788 10.4004C71.8565 10.4004 71.7823 10.445 71.7823 10.5183C71.7823 10.5832 71.7292 10.6362 71.6644 10.6362C71.5995 10.6362 71.5464 10.6893 71.5464 10.7541C71.5464 10.8327 71.4678 10.872 71.3106 10.872C71.1534 10.872 71.0748 10.9113 71.0748 10.9899C71.0748 11.0548 71.0218 11.1078 70.9569 11.1078C70.8921 11.1078 70.839 11.1609 70.839 11.2257C70.839 11.2906 70.7859 11.3436 70.7211 11.3436C70.6562 11.3436 70.6032 11.3967 70.6032 11.4615C70.6032 11.5264 70.5501 11.5794 70.4853 11.5794C70.4204 11.5794 70.3674 11.6325 70.3674 11.6973C70.3674 11.7622 70.3143 11.8152 70.2494 11.8152C70.1846 11.8152 70.1315 11.8683 70.1315 11.9331C70.1315 11.998 70.0933 12.051 70.0467 12.051C69.9363 12.051 69.2669 12.7204 69.2669 12.8308C69.2669 12.8774 69.2138 12.9156 69.149 12.9156C69.0841 12.9156 69.0311 12.9608 69.0311 13.0161C69.0311 13.0713 68.9603 13.1771 68.8738 13.2511C68.7874 13.3251 68.7166 13.4391 68.7166 13.5043C68.7166 13.5697 68.6813 13.623 68.638 13.623C68.5948 13.623 68.5594 13.6761 68.5594 13.7409C68.5594 13.8058 68.5092 13.8588 68.4477 13.8588C68.3863 13.8588 68.3128 13.9649 68.2843 14.0946C68.2558 14.2243 68.2 14.3304 68.1602 14.3304C68.1203 14.3304 68.0878 14.3835 68.0878 14.4483C68.0878 14.5132 68.0347 14.5662 67.9699 14.5662C67.8961 14.5662 67.852 14.6407 67.852 14.7652C67.852 14.8746 67.7989 14.9845 67.7341 15.0094C67.6692 15.0343 67.6162 15.1393 67.6162 15.2427C67.6162 15.3575 67.5702 15.4308 67.4982 15.4308C67.4196 15.4308 67.3803 15.5094 67.3803 15.6666C67.3803 15.8238 67.341 15.9024 67.2624 15.9024C67.1848 15.9024 67.1445 15.9801 67.1445 16.1298C67.1445 16.2594 67.0938 16.3767 67.0266 16.4025C66.9488 16.4323 66.9087 16.5554 66.9087 16.7646C66.9087 16.9938 66.8761 17.0814 66.7908 17.0814C66.7061 17.0814 66.6729 17.168 66.6729 17.3893C66.6729 17.5586 66.6352 17.7096 66.5892 17.725C66.5432 17.7403 66.4849 17.9113 66.4595 18.1049C66.4342 18.2985 66.3811 18.4781 66.3415 18.5041C66.3019 18.5299 66.2489 18.8306 66.2237 19.1721C66.1985 19.5137 66.1466 19.8136 66.1083 19.8387C66.0701 19.8637 66.0388 20.639 66.0388 21.5616C66.0388 22.4841 66.0701 23.2595 66.1083 23.2845C66.1466 23.3095 66.1985 23.6095 66.2237 23.951C66.2489 24.2926 66.3019 24.5932 66.3415 24.6191C66.3811 24.645 66.4342 24.8246 66.4595 25.0182C66.4849 25.2119 66.5432 25.3828 66.5892 25.3982C66.6352 25.4135 66.6729 25.5657 66.6729 25.7364C66.6729 25.9397 66.7135 26.0623 66.7908 26.0919C66.8677 26.1214 66.9087 26.2437 66.9087 26.4431C66.9087 26.6628 66.942 26.7491 67.0266 26.7491C67.1052 26.7491 67.1445 26.8277 67.1445 26.9849C67.1445 27.1421 67.1838 27.2207 67.2624 27.2207C67.341 27.2207 67.3803 27.2993 67.3803 27.4565C67.3803 27.6137 67.4196 27.6923 67.4982 27.6923C67.5769 27.6923 67.6162 27.7709 67.6162 27.9281C67.6162 28.0853 67.6555 28.1639 67.7341 28.1639C67.8074 28.1639 67.852 28.2381 67.852 28.3604C67.852 28.4827 67.8965 28.5569 67.9699 28.5569C68.0354 28.5569 68.0878 28.6268 68.0878 28.7141C68.0878 28.8006 68.1225 28.8713 68.1649 28.8713C68.2073 28.8713 68.2642 28.9597 68.2913 29.0678C68.3184 29.1759 68.3899 29.2643 68.45 29.2643C68.5102 29.2643 68.5594 29.3174 68.5594 29.3822C68.5594 29.4471 68.5948 29.5001 68.638 29.5001C68.6813 29.5001 68.7166 29.5535 68.7166 29.6188C68.7166 29.684 68.7874 29.798 68.8738 29.872C68.9603 29.9461 69.0311 30.0518 69.0311 30.1071C69.0311 30.1623 69.0841 30.2075 69.149 30.2075C69.2138 30.2075 69.2669 30.2606 69.2669 30.3254C69.2669 30.3903 69.3022 30.4433 69.3455 30.4433C69.3887 30.4433 69.4241 30.4964 69.4241 30.5612C69.4241 30.6261 69.4587 30.6791 69.501 30.6791C69.5433 30.6791 69.7695 30.8736 70.0035 31.1114C70.2375 31.3492 70.4681 31.5437 70.5161 31.5437C70.564 31.5437 70.6032 31.5968 70.6032 31.6616C70.6032 31.7264 70.6562 31.7795 70.7211 31.7795C70.7859 31.7795 70.839 31.8326 70.839 31.8974C70.839 31.9622 70.8921 32.0153 70.9569 32.0153C71.0218 32.0153 71.0748 32.0655 71.0748 32.127C71.0748 32.1884 71.1809 32.2619 71.3106 32.2904C71.4403 32.3188 71.5464 32.3747 71.5464 32.4145C71.5464 32.4544 71.5995 32.4869 71.6644 32.4869C71.7292 32.4869 71.7823 32.5399 71.7823 32.6048C71.7823 32.6781 71.8565 32.7227 71.9788 32.7227C72.1011 32.7227 72.1753 32.7673 72.1753 32.8406C72.1753 32.9061 72.2452 32.9585 72.3325 32.9585C72.4198 32.9585 72.4897 33.0109 72.4897 33.0764C72.4897 33.1497 72.5639 33.1943 72.6862 33.1943C72.8085 33.1943 72.8827 33.2389 72.8827 33.3122C72.8827 33.3908 72.9613 33.4301 73.1186 33.4301C73.2758 33.4301 73.3544 33.4694 73.3544 33.548C73.3544 33.6266 73.433 33.6659 73.5902 33.6659C73.7474 33.6659 73.826 33.7052 73.826 33.7838C73.826 33.8624 73.9046 33.9017 74.0618 33.9017C74.1915 33.9017 74.2976 33.9367 74.2976 33.9793C74.2976 34.0221 74.4391 34.0796 74.6121 34.1073C74.785 34.135 74.9265 34.1863 74.9265 34.2213C74.9265 34.2564 75.0857 34.3089 75.2802 34.3381C75.4748 34.3672 75.6339 34.4212 75.6339 34.4581C75.6339 34.495 75.8108 34.5486 76.027 34.5772C76.2431 34.6059 76.42 34.6549 76.42 34.6862C76.42 34.7174 76.7117 34.7655 77.0682 34.7929C77.4247 34.8204 77.7283 34.8788 77.7429 34.9225C77.7597 34.973 78.3974 35.0021 79.4856 35.0021C80.5738 35.0021 81.2116 34.973 81.2284 34.9225C81.2429 34.8788 81.5466 34.8204 81.9031 34.7929C82.2596 34.7655 82.5513 34.7175 82.5513 34.6863C82.5513 34.6552 82.6979 34.6101 82.877 34.586C83.0561 34.5621 83.2242 34.5098 83.2504 34.47C83.2766 34.4302 83.4367 34.3757 83.6061 34.3489C83.7755 34.3222 83.9347 34.2691 83.9598 34.231C83.9849 34.193 84.1466 34.1394 84.3193 34.1122C84.4919 34.0849 84.6452 34.0264 84.6599 33.9822C84.6746 33.9379 84.7733 33.9017 84.8792 33.9017C84.985 33.9017 85.092 33.8486 85.1168 33.7838C85.1417 33.7189 85.2478 33.6659 85.3526 33.6659C85.4575 33.6659 85.5636 33.6128 85.5884 33.548C85.6133 33.4831 85.7184 33.4301 85.8218 33.4301C85.9366 33.4301 86.0099 33.3841 86.0099 33.3122C86.0099 33.2336 86.0885 33.1943 86.2457 33.1943C86.4029 33.1943 86.4815 33.155 86.4815 33.0764C86.4815 33.0115 86.5346 32.9585 86.5995 32.9585C86.6643 32.9585 86.7174 32.9054 86.7174 32.8406C86.7174 32.762 86.796 32.7227 86.9532 32.7227C87.1104 32.7227 87.189 32.6834 87.189 32.6048C87.189 32.5399 87.2421 32.4869 87.3069 32.4869C87.3718 32.4869 87.4248 32.4539 87.4248 32.4136C87.4248 32.3732 87.5029 32.3155 87.5983 32.2852C87.6937 32.2549 87.8608 32.1288 87.9696 32.0048C88.0783 31.8809 88.2124 31.7795 88.2677 31.7795C88.3229 31.7795 88.3681 31.7416 88.3681 31.6953C88.3681 31.5865 88.5681 31.3865 88.6769 31.3865C88.7232 31.3865 88.7611 31.3334 88.7611 31.2686C88.7611 31.2038 88.8142 31.1507 88.879 31.1507C88.9439 31.1507 88.9969 31.0976 88.9969 31.0328C88.9969 30.968 89.05 30.9149 89.1148 30.9149C89.1797 30.9149 89.2327 30.8618 89.2327 30.797C89.2327 30.7322 89.2858 30.6791 89.3507 30.6791C89.4155 30.6791 89.4686 30.6261 89.4686 30.5612C89.4686 30.4964 89.5216 30.4433 89.5865 30.4433C89.6513 30.4433 89.7044 30.3903 89.7044 30.3254C89.7044 30.2606 89.7574 30.2075 89.8223 30.2075C89.8878 30.2075 89.9402 30.1376 89.9402 30.0503C89.9402 29.9639 89.9749 29.8931 90.0173 29.8931C90.0597 29.8931 90.1166 29.8047 90.1437 29.6966C90.1708 29.5885 90.2423 29.5001 90.3024 29.5001C90.3626 29.5001 90.4118 29.4471 90.4118 29.3822C90.4118 29.3174 90.4649 29.2643 90.5297 29.2643C90.6017 29.2643 90.6477 29.191 90.6477 29.0762C90.6477 28.9728 90.7007 28.8678 90.7656 28.8429C90.8304 28.818 90.8835 28.7435 90.8835 28.6773C90.8835 28.6111 90.9181 28.5569 90.9606 28.5569C91.003 28.5569 91.0599 28.4685 91.087 28.3604C91.1141 28.2523 91.165 28.1639 91.2002 28.1639C91.2353 28.1639 91.2873 28.0578 91.3158 27.9281C91.3443 27.7984 91.3973 27.6923 91.4337 27.6923C91.4701 27.6923 91.5232 27.5862 91.5516 27.4565C91.5801 27.3268 91.6331 27.2207 91.6695 27.2207C91.7059 27.2207 91.759 27.1146 91.7874 26.9849C91.8159 26.8552 91.8718 26.7491 91.9116 26.7491C91.9514 26.7491 91.984 26.6455 91.984 26.5189C91.984 26.3924 92.037 26.2357 92.1019 26.1709C92.1667 26.106 92.2198 25.9469 92.2198 25.8172C92.2198 25.6875 92.2728 25.5283 92.3377 25.4635C92.4034 25.3978 92.4556 25.2057 92.4556 25.0295C92.4556 24.8424 92.5002 24.6877 92.5647 24.6505C92.6387 24.6078 92.6836 24.3871 92.7045 23.9647C92.724 23.5677 92.77 23.3301 92.8312 23.3097C92.9029 23.2858 92.9272 22.8491 92.9272 21.5887C92.9272 20.1922 92.9068 19.8793 92.8093 19.7818C92.7257 19.6982 92.6914 19.4942 92.6914 19.0801C92.6914 18.6135 92.6677 18.4962 92.5735 18.4962C92.4859 18.4962 92.4556 18.4038 92.4556 18.1369C92.4556 17.9223 92.4081 17.7301 92.3377 17.6597C92.2728 17.5948 92.2198 17.4411 92.2198 17.3181C92.2198 17.1951 92.1835 17.0824 92.1393 17.0676C92.095 17.0529 92.036 16.9 92.008 16.7278C91.9801 16.5556 91.9101 16.3676 91.8527 16.3101C91.7951 16.2526 91.7481 16.1373 91.7481 16.054C91.7481 15.9706 91.7156 15.9024 91.6757 15.9024C91.636 15.9024 91.5801 15.7963 91.5516 15.6666C91.5232 15.5369 91.4711 15.4308 91.436 15.4308C91.4009 15.4308 91.3499 15.3424 91.3228 15.2343C91.2957 15.1262 91.2388 15.0378 91.1964 15.0378C91.154 15.0378 91.1193 14.9696 91.1193 14.8862C91.1193 14.8029 91.0662 14.6816 91.0014 14.6168C90.9365 14.5519 90.8835 14.4599 90.8835 14.4122C90.8835 14.3645 90.8304 14.3051 90.7656 14.2803C90.7007 14.2554 90.6477 14.1503 90.6477 14.0469C90.6477 13.9322 90.6017 13.8588 90.5297 13.8588C90.4649 13.8588 90.4118 13.8058 90.4118 13.7409C90.4118 13.6761 90.3626 13.623 90.3024 13.623C90.2423 13.623 90.1708 13.5346 90.1437 13.4265C90.1166 13.3185 90.0597 13.23 90.0173 13.23C89.9749 13.23 89.9402 13.1593 89.9402 13.0728C89.9402 12.9855 89.8878 12.9156 89.8223 12.9156C89.7574 12.9156 89.7044 12.8626 89.7044 12.7977C89.7044 12.7329 89.6513 12.6798 89.5865 12.6798C89.5216 12.6798 89.4686 12.6268 89.4686 12.5619C89.4686 12.4971 89.4155 12.444 89.3507 12.444C89.2858 12.444 89.2327 12.391 89.2327 12.3261C89.2327 12.2613 89.1797 12.2082 89.1148 12.2082C89.05 12.2082 88.9969 12.1552 88.9969 12.0903C88.9969 12.0255 88.9588 11.9724 88.9123 11.9724C88.8023 11.9724 88.3681 11.5383 88.3681 11.4283C88.3681 11.3818 88.3139 11.3436 88.2477 11.3436C88.1815 11.3436 88.107 11.2906 88.0821 11.2257C88.0572 11.1609 87.9876 11.1078 87.9273 11.1078C87.8671 11.1078 87.8178 11.0548 87.8178 10.9899C87.8178 10.9166 87.7436 10.872 87.6213 10.872C87.499 10.872 87.4248 10.8275 87.4248 10.7541C87.4248 10.6893 87.3718 10.6362 87.3069 10.6362C87.2421 10.6362 87.189 10.5832 87.189 10.5183C87.189 10.4397 87.1104 10.4004 86.9532 10.4004C86.796 10.4004 86.7174 10.3611 86.7174 10.2825C86.7174 10.2177 86.6643 10.1646 86.5995 10.1646C86.5346 10.1646 86.4815 10.1116 86.4815 10.0468C86.4815 9.96815 86.4029 9.92885 86.2457 9.92885C86.0885 9.92885 86.0099 9.88955 86.0099 9.81095C86.0099 9.73903 85.9366 9.69305 85.8218 9.69305C85.7184 9.69305 85.6133 9.64 85.5884 9.57515C85.5636 9.51031 85.4537 9.45725 85.3442 9.45725C85.2348 9.45725 85.1452 9.42471 85.1452 9.38486C85.1452 9.34509 85.0391 9.28921 84.9094 9.26076C84.7797 9.2323 84.6736 9.17854 84.6736 9.14144C84.6736 9.10426 84.5144 9.05003 84.3199 9.02087C84.1253 8.99171 83.9662 8.93645 83.9662 8.8981C83.9662 8.85982 83.8626 8.82846 83.7359 8.82846C83.6094 8.82846 83.4585 8.78114 83.4007 8.72337C83.3429 8.6656 83.1407 8.59753 82.9514 8.57215C82.7621 8.54676 82.5858 8.49205 82.5596 8.45055C82.5334 8.40905 82.2316 8.36119 81.8889 8.34413C81.4922 8.3244 81.2543 8.27826 81.2339 8.21711C81.1875 8.07799 77.7834 8.07901 77.737 8.21813ZM42.7767 11.6619C42.4957 11.9585 42.2216 12.2028 42.1675 12.2047C42.1135 12.2067 42.0693 12.2613 42.0693 12.3261C42.0693 12.391 42.0162 12.444 41.9514 12.444C41.8865 12.444 41.8334 12.4971 41.8334 12.5619C41.8334 12.6268 41.7804 12.6798 41.7155 12.6798C41.6507 12.6798 41.5976 12.7329 41.5976 12.7977C41.5976 12.8626 41.5446 12.9156 41.4797 12.9156C41.4149 12.9156 41.3618 12.9687 41.3618 13.0335C41.3618 13.0984 41.3088 13.1514 41.2439 13.1514C41.1791 13.1514 41.126 13.2045 41.126 13.2693C41.126 13.3342 41.0729 13.3872 41.0081 13.3872C40.9432 13.3872 40.8902 13.4403 40.8902 13.5051C40.8902 13.57 40.8371 13.623 40.7723 13.623C40.7074 13.623 40.6544 13.6761 40.6544 13.7409C40.6544 13.8058 40.6013 13.8588 40.5365 13.8588C40.4716 13.8588 40.4185 13.8978 40.4185 13.9455C40.4185 13.9932 40.1709 14.2774 39.8683 14.577C39.5657 14.8766 39.3181 15.1559 39.3181 15.1977C39.3181 15.2394 39.265 15.2736 39.2002 15.2736C39.1353 15.2736 39.0822 15.309 39.0822 15.3522C39.0822 15.3954 39.1353 15.4308 39.2002 15.4308C39.265 15.4308 39.3181 15.4839 39.3181 15.5487C39.3181 15.6136 39.3711 15.6666 39.436 15.6666C39.5008 15.6666 39.5539 15.702 39.5539 15.7452C39.5539 15.7884 39.6246 15.8945 39.7111 15.981C39.7976 16.0675 39.9037 16.1382 39.9469 16.1382C39.9901 16.1382 40.0255 16.1913 40.0255 16.2561C40.0255 16.321 40.0786 16.374 40.1434 16.374C40.2083 16.374 40.2613 16.4094 40.2613 16.4526C40.2613 16.5545 40.5524 16.8456 40.6544 16.8456C40.6976 16.8456 40.733 16.8848 40.733 16.9327C40.733 16.9806 40.9275 17.2112 41.1653 17.4452C41.4031 17.6792 41.5976 17.9054 41.5976 17.9476C41.5976 17.99 41.6347 18.0246 41.68 18.0246C41.7253 18.0246 41.8443 18.113 41.9444 18.2211C42.0447 18.3292 42.1667 18.4176 42.2159 18.4176C42.2649 18.4176 42.3051 18.453 42.3051 18.4962C42.3051 18.5394 42.3758 18.6455 42.4623 18.732C42.5488 18.8184 42.6549 18.8892 42.6981 18.8892C42.7413 18.8892 42.7767 18.9246 42.7767 18.9678C42.7767 19.011 42.8475 19.1171 42.9339 19.2036C43.0204 19.29 43.1265 19.3608 43.1697 19.3608C43.213 19.3608 43.2484 19.4138 43.2484 19.4787C43.2484 19.5435 43.3014 19.5966 43.3663 19.5966C43.4311 19.5966 43.4842 19.632 43.4842 19.6752C43.4842 19.7771 43.7752 20.0682 43.8772 20.0682C43.9204 20.0682 43.9558 20.1072 43.9558 20.1549C43.9558 20.2026 44.2034 20.4867 44.506 20.7863C44.8087 21.086 45.0563 21.3653 45.0563 21.407C45.0563 21.4488 45.1093 21.483 45.1742 21.483C45.239 21.483 45.2921 21.536 45.2921 21.6009C45.2921 21.6657 45.239 21.7188 45.1742 21.7188C45.1093 21.7188 45.0563 21.7718 45.0563 21.8367C45.0563 21.9015 45.0181 21.9546 44.9714 21.9546C44.8607 21.9546 43.9558 22.8594 43.9558 22.9701C43.9558 23.0168 43.9027 23.055 43.8379 23.055C43.773 23.055 43.72 23.108 43.72 23.1729C43.72 23.2377 43.6669 23.2908 43.6021 23.2908C43.5372 23.2908 43.4842 23.3438 43.4842 23.4087C43.4842 23.4735 43.4311 23.5266 43.3663 23.5266C43.3014 23.5266 43.2484 23.5796 43.2484 23.6445C43.2484 23.7093 43.1953 23.7624 43.1304 23.7624C43.0656 23.7624 43.0125 23.8154 43.0125 23.8803C43.0125 23.9451 42.9595 23.9982 42.8946 23.9982C42.8298 23.9982 42.7767 24.0512 42.7767 24.1161C42.7767 24.1809 42.7237 24.2339 42.6588 24.2339C42.594 24.2339 42.5409 24.287 42.5409 24.3518C42.5409 24.4167 42.4878 24.4697 42.423 24.4697C42.3581 24.4697 42.3051 24.5228 42.3051 24.5876C42.3051 24.6525 42.252 24.7055 42.1872 24.7055C42.1223 24.7055 42.0693 24.7586 42.0693 24.8234C42.0693 24.8883 42.0162 24.9413 41.9514 24.9413C41.8865 24.9413 41.8334 24.9944 41.8334 25.0592C41.8334 25.1241 41.7952 25.1771 41.7486 25.1771C41.6379 25.1771 40.733 26.082 40.733 26.1926C40.733 26.2393 40.6799 26.2775 40.6151 26.2775C40.5502 26.2775 40.4971 26.3306 40.4971 26.3954C40.4971 26.4603 40.4441 26.5133 40.3792 26.5133C40.3144 26.5133 40.2613 26.5664 40.2613 26.6312C40.2613 26.6961 40.2083 26.7491 40.1434 26.7491C40.0786 26.7491 40.0255 26.8022 40.0255 26.867C40.0255 26.9319 39.9725 26.9849 39.9076 26.9849C39.8428 26.9849 39.7897 27.038 39.7897 27.1028C39.7897 27.1677 39.7366 27.2207 39.6718 27.2207C39.6069 27.2207 39.5539 27.2738 39.5539 27.3386C39.5539 27.4035 39.5008 27.4565 39.436 27.4565C39.3711 27.4565 39.3181 27.5096 39.3181 27.5744C39.3181 27.6393 39.265 27.6923 39.2002 27.6923C39.1353 27.6923 39.0822 27.7454 39.0822 27.8102C39.0822 27.8751 39.1353 27.9281 39.2002 27.9281C39.265 27.9281 39.3181 27.9812 39.3181 28.046C39.3181 28.1109 39.3563 28.1639 39.403 28.1639C39.5136 28.1639 40.4185 29.0688 40.4185 29.1794C40.4185 29.2261 40.4716 29.2643 40.5365 29.2643C40.6013 29.2643 40.6544 29.3174 40.6544 29.3822C40.6544 29.4471 40.7074 29.5001 40.7723 29.5001C40.8371 29.5001 40.8902 29.5532 40.8902 29.618C40.8902 29.6829 40.9432 29.7359 41.0081 29.7359C41.0729 29.7359 41.126 29.789 41.126 29.8538C41.126 29.9187 41.1791 29.9717 41.2439 29.9717C41.3088 29.9717 41.3618 30.0248 41.3618 30.0896C41.3618 30.1545 41.4149 30.2075 41.4797 30.2075C41.5446 30.2075 41.5976 30.2606 41.5976 30.3254C41.5976 30.3903 41.6507 30.4433 41.7155 30.4433C41.7804 30.4433 41.8334 30.4964 41.8334 30.5612C41.8334 30.6261 41.8865 30.6791 41.9514 30.6791C42.0162 30.6791 42.0693 30.7322 42.0693 30.797C42.0693 30.8618 42.1223 30.9149 42.1872 30.9149C42.252 30.9149 42.3051 30.968 42.3051 31.0328C42.3051 31.0976 42.3581 31.1507 42.423 31.1507C42.4878 31.1507 42.5409 31.2038 42.5409 31.2686C42.5409 31.3334 42.5804 31.3865 42.6287 31.3865C42.677 31.3865 42.8533 31.5274 43.0204 31.6996L43.3242 32.0126L43.8677 31.4638C44.1666 31.1619 44.4502 30.9149 44.4979 30.9149C44.5457 30.9149 44.5847 30.8618 44.5847 30.797C44.5847 30.7322 44.6377 30.6791 44.7026 30.6791C44.7674 30.6791 44.8205 30.6261 44.8205 30.5612C44.8205 30.4964 44.8735 30.4433 44.9384 30.4433C45.0032 30.4433 45.0563 30.3903 45.0563 30.3254C45.0563 30.2606 45.1093 30.2075 45.1742 30.2075C45.239 30.2075 45.2921 30.1545 45.2921 30.0896C45.2921 30.0248 45.3452 29.9717 45.41 29.9717C45.4749 29.9717 45.5279 29.9187 45.5279 29.8538C45.5279 29.789 45.581 29.7359 45.6458 29.7359C45.7107 29.7359 45.7637 29.6829 45.7637 29.618C45.7637 29.5532 45.8168 29.5001 45.8816 29.5001C45.9465 29.5001 45.9996 29.4471 45.9996 29.3822C45.9996 29.3174 46.0526 29.2643 46.1175 29.2643C46.1823 29.2643 46.2354 29.2113 46.2354 29.1464C46.2354 29.0816 46.2884 29.0285 46.3533 29.0285C46.4181 29.0285 46.4712 28.9755 46.4712 28.9106C46.4712 28.8458 46.5243 28.7927 46.5891 28.7927C46.6539 28.7927 46.707 28.7545 46.707 28.7079C46.707 28.5975 47.3764 27.9281 47.4869 27.9281C47.5335 27.9281 47.5717 27.8751 47.5717 27.8102C47.5717 27.7454 47.6247 27.6923 47.6896 27.6923C47.7544 27.6923 47.8075 27.6393 47.8075 27.5744C47.8075 27.5096 47.8605 27.4565 47.9254 27.4565C47.9902 27.4565 48.0433 27.4035 48.0433 27.3386C48.0433 27.2738 48.0964 27.2207 48.1612 27.2207C48.2261 27.2207 48.2791 27.1677 48.2791 27.1028C48.2791 27.038 48.3322 26.9849 48.397 26.9849C48.4619 26.9849 48.5149 26.9319 48.5149 26.867C48.5149 26.8022 48.568 26.7491 48.6329 26.7491C48.6977 26.7491 48.7508 26.6961 48.7508 26.6312C48.7508 26.5664 48.8038 26.5133 48.8687 26.5133C48.9335 26.5133 48.9866 26.4603 48.9866 26.3954C48.9866 26.3306 49.0396 26.2775 49.1045 26.2775C49.1693 26.2775 49.2224 26.2245 49.2224 26.1596C49.2224 26.0948 49.2755 26.0417 49.3403 26.0417C49.4052 26.0417 49.4582 25.9887 49.4582 25.9238C49.4582 25.859 49.4947 25.8059 49.5393 25.8059C49.5839 25.8059 49.6407 25.859 49.6656 25.9238C49.6905 25.9887 49.7601 26.0417 49.8203 26.0417C49.8806 26.0417 49.9298 26.0788 49.9298 26.1241C49.9298 26.1694 50.0183 26.2884 50.1264 26.3885C50.2344 26.4887 50.3229 26.6108 50.3229 26.6599C50.3229 26.709 50.3555 26.7491 50.3954 26.7491C50.4354 26.7491 50.8237 27.1028 51.2584 27.5351C51.6932 27.9674 52.0851 28.3211 52.1292 28.3211C52.1733 28.3211 52.2094 28.3565 52.2094 28.3997C52.2094 28.5017 52.5005 28.7927 52.6024 28.7927C52.6457 28.7927 52.681 28.8458 52.681 28.9106C52.681 28.9755 52.7341 29.0285 52.799 29.0285C52.8638 29.0285 52.9169 29.0626 52.9169 29.1041C52.9169 29.2113 54.7662 31.0721 54.8727 31.0721C54.9211 31.0721 54.9606 31.1075 54.9606 31.1507C54.9606 31.2526 55.2517 31.5437 55.3536 31.5437C55.3969 31.5437 55.4323 31.5968 55.4323 31.6616C55.4323 31.7264 55.4853 31.7795 55.5502 31.7795C55.615 31.7795 55.6681 31.8326 55.6681 31.8974C55.6681 31.9622 55.7211 32.0153 55.786 32.0153C55.8508 32.0153 55.9039 31.9622 55.9039 31.8974C55.9039 31.8326 55.9569 31.7795 56.0218 31.7795C56.0866 31.7795 56.1397 31.7264 56.1397 31.6616C56.1397 31.5968 56.1778 31.5437 56.2244 31.5437C56.3343 31.5437 56.7686 31.1095 56.7686 30.9996C56.7686 30.953 56.8216 30.9149 56.8865 30.9149C56.9513 30.9149 57.0044 30.8618 57.0044 30.797C57.0044 30.7322 57.0574 30.6791 57.1223 30.6791C57.1871 30.6791 57.2402 30.6261 57.2402 30.5612C57.2402 30.4964 57.2932 30.4433 57.3581 30.4433C57.4229 30.4433 57.476 30.3903 57.476 30.3254C57.476 30.2606 57.5291 30.2075 57.5939 30.2075C57.6588 30.2075 57.7118 30.1545 57.7118 30.0896C57.7118 30.0248 57.7649 29.9717 57.8297 29.9717C57.8946 29.9717 57.9476 29.9187 57.9476 29.8538C57.9476 29.789 58.0007 29.7359 58.0655 29.7359C58.1304 29.7359 58.1835 29.6829 58.1835 29.618C58.1835 29.5532 58.2365 29.5001 58.3014 29.5001C58.3662 29.5001 58.4193 29.4471 58.4193 29.3822C58.4193 29.3174 58.4723 29.2643 58.5372 29.2643C58.602 29.2643 58.6551 29.2113 58.6551 29.1464C58.6551 29.0816 58.7082 29.0285 58.773 29.0285C58.8379 29.0285 58.8909 28.9755 58.8909 28.9106C58.8909 28.8458 58.944 28.7927 59.0088 28.7927C59.0737 28.7927 59.1267 28.7397 59.1267 28.6748C59.1267 28.61 59.1798 28.5569 59.2446 28.5569C59.3095 28.5569 59.3625 28.5039 59.3625 28.439C59.3625 28.3742 59.4007 28.3211 59.4472 28.3211C59.5345 28.3211 59.9914 27.8972 59.9914 27.8162C59.9914 27.7912 59.8499 27.6335 59.677 27.4656C59.504 27.2978 59.3625 27.121 59.3625 27.0727C59.3625 27.0245 59.3095 26.9849 59.2446 26.9849C59.1798 26.9849 59.1267 26.9319 59.1267 26.867C59.1267 26.8022 59.0737 26.7491 59.0088 26.7491C58.944 26.7491 58.8909 26.6961 58.8909 26.6312C58.8909 26.5664 58.8379 26.5133 58.773 26.5133C58.7082 26.5133 58.6551 26.4603 58.6551 26.3954C58.6551 26.3306 58.602 26.2775 58.5372 26.2775C58.4723 26.2775 58.4193 26.2245 58.4193 26.1596C58.4193 26.0948 58.3662 26.0417 58.3014 26.0417C58.2365 26.0417 58.1835 25.9887 58.1835 25.9238C58.1835 25.859 58.1304 25.8059 58.0655 25.8059C58.0007 25.8059 57.9476 25.7529 57.9476 25.688C57.9476 25.6232 57.8946 25.5701 57.8297 25.5701C57.7649 25.5701 57.7118 25.5171 57.7118 25.4522C57.7118 25.3874 57.6736 25.3343 57.6269 25.3343C57.5801 25.3343 57.2264 25.0188 56.8408 24.6333C56.4552 24.2478 56.1397 23.8941 56.1397 23.8473C56.1397 23.8006 56.0866 23.7624 56.0218 23.7624C55.9569 23.7624 55.9039 23.7093 55.9039 23.6445C55.9039 23.5796 55.8508 23.5266 55.786 23.5266C55.7211 23.5266 55.6681 23.4735 55.6681 23.4087C55.6681 23.3438 55.615 23.2908 55.5502 23.2908C55.4853 23.2908 55.4323 23.2377 55.4323 23.1729C55.4323 23.108 55.3792 23.055 55.3143 23.055C55.2495 23.055 55.1964 23.0019 55.1964 22.9371C55.1964 22.8722 55.1434 22.8192 55.0785 22.8192C55.0137 22.8192 54.9606 22.7661 54.9606 22.7013C54.9606 22.6364 54.9076 22.5834 54.8427 22.5834C54.7779 22.5834 54.7248 22.5303 54.7248 22.4655C54.7248 22.4006 54.6717 22.3476 54.6069 22.3476C54.542 22.3476 54.489 22.2945 54.489 22.2297C54.489 22.1648 54.4519 22.1118 54.4064 22.1118C54.3167 22.1118 53.7815 21.617 53.7815 21.534C53.7815 21.5059 53.8346 21.483 53.8994 21.483C53.9643 21.483 54.0173 21.4299 54.0173 21.3651C54.0173 21.3002 54.0704 21.2472 54.1353 21.2472C54.2001 21.2472 54.2532 21.1941 54.2532 21.1293C54.2532 21.0644 54.3062 21.0114 54.3711 21.0114C54.4359 21.0114 54.489 20.9583 54.489 20.8935C54.489 20.8286 54.542 20.7756 54.6069 20.7756C54.6717 20.7756 54.7248 20.7225 54.7248 20.6577C54.7248 20.5928 54.7779 20.5398 54.8427 20.5398C54.9076 20.5398 54.9606 20.4867 54.9606 20.4219C54.9606 20.357 55.0137 20.304 55.0785 20.304C55.1434 20.304 55.1964 20.2509 55.1964 20.1861C55.1964 20.1212 55.2495 20.0682 55.3143 20.0682C55.3792 20.0682 55.4323 20.0151 55.4323 19.9503C55.4323 19.8854 55.4853 19.8324 55.5502 19.8324C55.615 19.8324 55.6681 19.7793 55.6681 19.7145C55.6681 19.6496 55.7211 19.5966 55.786 19.5966C55.8508 19.5966 55.9039 19.5435 55.9039 19.4787C55.9039 19.4138 55.9569 19.3608 56.0218 19.3608C56.0866 19.3608 56.1397 19.3226 56.1397 19.2759C56.1397 19.1652 57.0446 18.2604 57.1553 18.2604C57.202 18.2604 57.2402 18.2073 57.2402 18.1425C57.2402 18.0776 57.2932 18.0246 57.3581 18.0246C57.4229 18.0246 57.476 17.9715 57.476 17.9067C57.476 17.8419 57.5291 17.7888 57.5939 17.7888C57.6588 17.7888 57.7118 17.7357 57.7118 17.6709C57.7118 17.6061 57.7649 17.553 57.8297 17.553C57.8946 17.553 57.9476 17.4999 57.9476 17.4351C57.9476 17.3703 58.0007 17.3172 58.0655 17.3172C58.1304 17.3172 58.1835 17.2641 58.1835 17.1993C58.1835 17.1345 58.2365 17.0814 58.3014 17.0814C58.3662 17.0814 58.4193 17.0283 58.4193 16.9635C58.4193 16.8987 58.4723 16.8456 58.5372 16.8456C58.602 16.8456 58.6551 16.7925 58.6551 16.7277C58.6551 16.6629 58.7082 16.6098 58.773 16.6098C58.8379 16.6098 58.8909 16.5567 58.8909 16.4919C58.8909 16.4271 58.944 16.374 59.0088 16.374C59.0737 16.374 59.1267 16.321 59.1267 16.2561C59.1267 16.1913 59.1798 16.1382 59.2446 16.1382C59.3095 16.1382 59.3625 16.0987 59.3625 16.0504C59.3625 16.0022 59.5109 15.8187 59.6921 15.6428C59.8799 15.4606 59.9813 15.3095 59.928 15.2918C59.8764 15.2746 59.8342 15.2104 59.8342 15.1492C59.8342 15.0879 59.7811 15.0378 59.7163 15.0378C59.6514 15.0378 59.5984 14.9848 59.5984 14.9199C59.5984 14.8551 59.5453 14.802 59.4805 14.802C59.4156 14.802 59.3625 14.749 59.3625 14.6841C59.3625 14.6193 59.3095 14.5662 59.2446 14.5662C59.1798 14.5662 59.1267 14.5132 59.1267 14.4483C59.1267 14.3835 59.0737 14.3304 59.0088 14.3304C58.944 14.3304 58.8909 14.2774 58.8909 14.2125C58.8909 14.1477 58.8379 14.0946 58.773 14.0946C58.7082 14.0946 58.6551 14.0416 58.6551 13.9767C58.6551 13.9119 58.602 13.8588 58.5372 13.8588C58.4723 13.8588 58.4193 13.8058 58.4193 13.7409C58.4193 13.6761 58.3662 13.623 58.3014 13.623C58.2365 13.623 58.1835 13.57 58.1835 13.5051C58.1835 13.4403 58.1304 13.3872 58.0655 13.3872C58.0007 13.3872 57.9476 13.3342 57.9476 13.2693C57.9476 13.2045 57.8946 13.1514 57.8297 13.1514C57.7649 13.1514 57.7118 13.0984 57.7118 13.0335C57.7118 12.9687 57.6588 12.9156 57.5939 12.9156C57.5291 12.9156 57.476 12.8626 57.476 12.7977C57.476 12.7329 57.4229 12.6798 57.3581 12.6798C57.2932 12.6798 57.2402 12.6268 57.2402 12.5619C57.2402 12.4971 57.1871 12.444 57.1223 12.444C57.0574 12.444 57.0044 12.391 57.0044 12.3261C57.0044 12.2613 56.9665 12.2082 56.9202 12.2082C56.8113 12.2082 56.6113 12.0083 56.6113 11.8994C56.6113 11.8531 56.5583 11.8152 56.4934 11.8152C56.4286 11.8152 56.3755 11.7622 56.3755 11.6973C56.3755 11.6325 56.3225 11.5794 56.2576 11.5794C56.1928 11.5794 56.1397 11.5264 56.1397 11.4615C56.1397 11.3967 56.0866 11.3436 56.0218 11.3436C55.9569 11.3436 55.9039 11.2906 55.9039 11.2257C55.9039 11.1609 55.8508 11.1078 55.786 11.1078C55.7211 11.1078 55.6681 11.1609 55.6681 11.2257C55.6681 11.2906 55.615 11.3436 55.5502 11.3436C55.4853 11.3436 55.4323 11.3967 55.4323 11.4615C55.4323 11.5264 55.3792 11.5794 55.3143 11.5794C55.2495 11.5794 55.1964 11.6325 55.1964 11.6973C55.1964 11.7622 55.1434 11.8152 55.0785 11.8152C55.0137 11.8152 54.9606 11.8683 54.9606 11.9331C54.9606 11.998 54.9076 12.051 54.8427 12.051C54.7779 12.051 54.7248 12.1041 54.7248 12.1689C54.7248 12.2338 54.6866 12.2868 54.6398 12.2868C54.5291 12.2868 53.3885 13.4273 53.3885 13.5381C53.3885 13.5848 53.3354 13.623 53.2706 13.623C53.2057 13.623 53.1527 13.6761 53.1527 13.7409C53.1527 13.8058 53.0996 13.8588 53.0348 13.8588C52.9699 13.8588 52.9169 13.9119 52.9169 13.9767C52.9169 14.0416 52.8638 14.0946 52.799 14.0946C52.7341 14.0946 52.681 14.1477 52.681 14.2125C52.681 14.2774 52.628 14.3304 52.5631 14.3304C52.4983 14.3304 52.4452 14.3835 52.4452 14.4483C52.4452 14.5132 52.3922 14.5662 52.3273 14.5662C52.2625 14.5662 52.2094 14.6193 52.2094 14.6841C52.2094 14.749 52.1564 14.802 52.0915 14.802C52.0267 14.802 51.9736 14.8551 51.9736 14.9199C51.9736 14.9848 51.9205 15.0378 51.8557 15.0378C51.7908 15.0378 51.7378 15.0909 51.7378 15.1557C51.7378 15.2206 51.6847 15.2736 51.6199 15.2736C51.555 15.2736 51.502 15.3267 51.502 15.3915C51.502 15.4564 51.4638 15.5094 51.417 15.5094C51.3062 15.5094 50.1657 16.6499 50.1657 16.7606C50.1657 16.8074 50.1126 16.8456 50.0478 16.8456C49.9829 16.8456 49.9298 16.8987 49.9298 16.9635C49.9298 17.0283 49.8768 17.0814 49.8119 17.0814C49.7471 17.0814 49.694 17.1345 49.694 17.1993C49.694 17.2641 49.641 17.3172 49.5761 17.3172C49.5113 17.3172 49.4582 17.2641 49.4582 17.1993C49.4582 17.1345 49.4052 17.0814 49.3403 17.0814C49.2755 17.0814 49.2224 17.0283 49.2224 16.9635C49.2224 16.8987 49.1693 16.8456 49.1045 16.8456C49.0396 16.8456 48.9866 16.7925 48.9866 16.7277C48.9866 16.6629 48.9335 16.6098 48.8687 16.6098C48.8038 16.6098 48.7508 16.5567 48.7508 16.4919C48.7508 16.4271 48.6977 16.374 48.6329 16.374C48.568 16.374 48.5149 16.321 48.5149 16.2561C48.5149 16.1913 48.4619 16.1382 48.397 16.1382C48.3322 16.1382 48.2791 16.0852 48.2791 16.0203C48.2791 15.9555 48.2261 15.9024 48.1612 15.9024C48.0964 15.9024 48.0433 15.8494 48.0433 15.7845C48.0433 15.7197 48.0051 15.6666 47.9583 15.6666C47.8476 15.6666 46.707 14.5261 46.707 14.4154C46.707 14.3686 46.6539 14.3304 46.5891 14.3304C46.5243 14.3304 46.4712 14.2774 46.4712 14.2125C46.4712 14.1477 46.4181 14.0946 46.3533 14.0946C46.2884 14.0946 46.2354 14.0416 46.2354 13.9767C46.2354 13.9119 46.1823 13.8588 46.1175 13.8588C46.0526 13.8588 45.9996 13.8058 45.9996 13.7409C45.9996 13.6761 45.9465 13.623 45.8816 13.623C45.8168 13.623 45.7637 13.57 45.7637 13.5051C45.7637 13.4403 45.7107 13.3872 45.6458 13.3872C45.581 13.3872 45.5279 13.3342 45.5279 13.2693C45.5279 13.2045 45.4749 13.1514 45.41 13.1514C45.3452 13.1514 45.2921 13.0984 45.2921 13.0335C45.2921 12.9687 45.239 12.9156 45.1742 12.9156C45.1093 12.9156 45.0563 12.8626 45.0563 12.7977C45.0563 12.7329 45.0032 12.6798 44.9384 12.6798C44.8735 12.6798 44.8205 12.6268 44.8205 12.5619C44.8205 12.4971 44.7816 12.444 44.734 12.444C44.6864 12.444 44.3489 12.1434 43.9839 11.7759C43.6189 11.4085 43.3129 11.1111 43.3039 11.1152C43.295 11.1193 43.0577 11.3653 42.7767 11.6619ZM78.1778 16.4919C78.1482 16.5688 78.026 16.6098 77.8265 16.6098C77.6069 16.6098 77.5205 16.6431 77.5205 16.7277C77.5205 16.8063 77.4419 16.8456 77.2847 16.8456C77.1275 16.8456 77.0489 16.8849 77.0489 16.9635C77.0489 17.0421 76.9702 17.0814 76.813 17.0814C76.6558 17.0814 76.5772 17.1207 76.5772 17.1993C76.5772 17.2641 76.5242 17.3172 76.4593 17.3172C76.3945 17.3172 76.3414 17.3703 76.3414 17.4351C76.3414 17.5084 76.2672 17.553 76.1449 17.553C76.0226 17.553 75.9484 17.5976 75.9484 17.6709C75.9484 17.7357 75.8953 17.7888 75.8305 17.7888C75.7656 17.7888 75.7126 17.8419 75.7126 17.9067C75.7126 17.9715 75.6633 18.0246 75.6031 18.0246C75.543 18.0246 75.4715 18.113 75.4444 18.2211C75.4173 18.3292 75.3604 18.4176 75.318 18.4176C75.2756 18.4176 75.2409 18.4717 75.2409 18.5379C75.2409 18.6042 75.1911 18.6774 75.1301 18.7009C75.0692 18.7242 74.9977 18.8292 74.9714 18.9341C74.945 19.0392 74.8888 19.125 74.8464 19.125C74.8039 19.125 74.7693 19.1932 74.7693 19.2766C74.7693 19.3599 74.7162 19.4812 74.6514 19.546C74.5852 19.6122 74.5335 19.8043 74.5335 19.984C74.5335 20.216 74.5011 20.304 74.4156 20.304C74.3157 20.304 74.2976 20.4952 74.2976 21.5532C74.2976 22.5911 74.3176 22.81 74.4156 22.8476C74.4934 22.8775 74.5335 23.0006 74.5335 23.2097C74.5335 23.384 74.566 23.5266 74.6059 23.5266C74.6456 23.5266 74.7015 23.6327 74.73 23.7624C74.7584 23.892 74.8115 23.9982 74.8479 23.9982C74.8843 23.9982 74.9373 24.1043 74.9658 24.2339C74.9943 24.3636 75.0678 24.4697 75.1292 24.4697C75.1907 24.4697 75.2409 24.5228 75.2409 24.5876C75.2409 24.6525 75.2739 24.7055 75.3143 24.7055C75.3546 24.7055 75.4105 24.778 75.4387 24.8667C75.5047 25.0747 75.9722 25.5422 76.1803 25.6082C76.2689 25.6363 76.3414 25.6923 76.3414 25.7326C76.3414 25.7729 76.3945 25.8059 76.4593 25.8059C76.5242 25.8059 76.5772 25.859 76.5772 25.9238C76.5772 26.0024 76.6558 26.0417 76.813 26.0417C76.9702 26.0417 77.0489 26.081 77.0489 26.1596C77.0489 26.2334 77.1234 26.2775 77.2478 26.2775C77.3573 26.2775 77.4672 26.3306 77.492 26.3954C77.5216 26.4723 77.6438 26.5133 77.8433 26.5133C78.0629 26.5133 78.1493 26.5467 78.1493 26.6312C78.1493 26.7313 78.3458 26.7491 79.4463 26.7491C80.5468 26.7491 80.7433 26.7313 80.7433 26.6312C80.7433 26.5439 80.8351 26.5133 81.097 26.5133C81.359 26.5133 81.4508 26.4828 81.4508 26.3954C81.4508 26.3168 81.5294 26.2775 81.6866 26.2775C81.8438 26.2775 81.9224 26.2382 81.9224 26.1596C81.9224 26.0877 81.9958 26.0417 82.1105 26.0417C82.214 26.0417 82.319 25.9887 82.3439 25.9238C82.3687 25.859 82.4433 25.8059 82.5095 25.8059C82.5757 25.8059 82.6299 25.7713 82.6299 25.7288C82.6299 25.6865 82.7183 25.6296 82.8264 25.6024C82.9345 25.5753 83.0229 25.5039 83.0229 25.4438C83.0229 25.3835 83.076 25.3343 83.1408 25.3343C83.2057 25.3343 83.2587 25.2813 83.2587 25.2164C83.2587 25.1516 83.3118 25.0985 83.3766 25.0985C83.45 25.0985 83.4945 25.0243 83.4945 24.902C83.4945 24.7797 83.5391 24.7055 83.6124 24.7055C83.6773 24.7055 83.7303 24.6563 83.7303 24.5961C83.7303 24.5359 83.7834 24.4662 83.8483 24.4413C83.9131 24.4165 83.9662 24.3066 83.9662 24.1971C83.9662 24.0727 84.0103 23.9982 84.0841 23.9982C84.1627 23.9982 84.202 23.9196 84.202 23.7624C84.202 23.6052 84.2413 23.5266 84.3199 23.5266C84.4069 23.5266 84.4378 23.4356 84.4378 23.1794C84.4378 22.9716 84.4773 22.8191 84.5361 22.7995C84.609 22.7752 84.6343 22.4559 84.6343 21.5616C84.6343 20.6673 84.609 20.3479 84.5361 20.3236C84.4773 20.3041 84.4378 20.1516 84.4378 19.9438C84.4378 19.6875 84.4069 19.5966 84.3199 19.5966C84.2413 19.5966 84.202 19.518 84.202 19.3608C84.202 19.2036 84.1627 19.125 84.0841 19.125C84.0107 19.125 83.9662 19.0508 83.9662 18.9285C83.9662 18.8062 83.9216 18.732 83.8483 18.732C83.7828 18.732 83.7303 18.6621 83.7303 18.5748C83.7303 18.4875 83.6779 18.4176 83.6124 18.4176C83.5391 18.4176 83.4945 18.3434 83.4945 18.2211C83.4945 18.0988 83.45 18.0246 83.3766 18.0246C83.3118 18.0246 83.2587 17.9715 83.2587 17.9067C83.2587 17.8419 83.2057 17.7888 83.1408 17.7888C83.076 17.7888 83.0229 17.7357 83.0229 17.6709C83.0229 17.5976 82.9487 17.553 82.8264 17.553C82.7041 17.553 82.6299 17.5084 82.6299 17.4351C82.6299 17.3696 82.56 17.3172 82.4727 17.3172C82.3853 17.3172 82.3154 17.2648 82.3154 17.1993C82.3154 17.126 82.2412 17.0814 82.1189 17.0814C81.9966 17.0814 81.9224 17.0368 81.9224 16.9635C81.9224 16.8849 81.8438 16.8456 81.6866 16.8456C81.5294 16.8456 81.4508 16.8063 81.4508 16.7277C81.4508 16.6408 81.36 16.6098 81.1055 16.6098C80.8711 16.6098 80.7456 16.5719 80.7149 16.4919C80.6774 16.3941 80.4612 16.374 79.4463 16.374C78.4314 16.374 78.2153 16.3941 78.1778 16.4919ZM44.0934 41.0329C43.6286 41.0476 43.2484 41.0885 43.2484 41.1238C43.2484 41.1592 42.9392 41.2099 42.5614 41.2366C42.1836 41.2632 41.8622 41.3216 41.8474 41.3661C41.8325 41.4108 41.6666 41.4472 41.4788 41.4472C41.28 41.4472 41.088 41.4965 41.0193 41.5651C40.9531 41.6313 40.761 41.683 40.5813 41.683C40.3493 41.683 40.2613 41.7154 40.2613 41.8009C40.2613 41.8883 40.1696 41.9188 39.9076 41.9188C39.6456 41.9188 39.5539 41.9494 39.5539 42.0367C39.5539 42.1153 39.4753 42.1546 39.3181 42.1546C39.1609 42.1546 39.0822 42.1939 39.0822 42.2725C39.0822 42.3511 39.0036 42.3904 38.8464 42.3904C38.6892 42.3904 38.6106 42.4297 38.6106 42.5083C38.6106 42.5869 38.532 42.6262 38.3748 42.6262C38.2176 42.6262 38.139 42.6655 38.139 42.7441C38.139 42.8227 38.0604 42.862 37.9032 42.862C37.7459 42.862 37.6673 42.9013 37.6673 42.9799C37.6673 43.0518 37.594 43.0978 37.4792 43.0978C37.3758 43.0978 37.2708 43.1509 37.2459 43.2157C37.221 43.2806 37.1465 43.3336 37.0802 43.3336C37.014 43.3336 36.9599 43.3666 36.9599 43.4069C36.9599 43.4473 36.8836 43.5044 36.7904 43.534C36.6972 43.5636 36.5469 43.6672 36.4563 43.7642C36.3658 43.8612 36.2033 43.9681 36.0952 44.0017C35.9871 44.0354 35.8208 44.1463 35.7256 44.2484C35.6304 44.3505 35.5154 44.434 35.4702 44.434C35.4248 44.434 35.3878 44.4871 35.3878 44.5519C35.3878 44.6168 35.3347 44.6698 35.2699 44.6698C35.205 44.6698 35.152 44.7229 35.152 44.7877C35.152 44.8526 35.0989 44.9056 35.034 44.9056C34.9692 44.9056 34.9161 44.9587 34.9161 45.0235C34.9161 45.0883 34.8631 45.1414 34.7982 45.1414C34.7334 45.1414 34.6803 45.1945 34.6803 45.2593C34.6803 45.3241 34.6273 45.3772 34.5624 45.3772C34.4976 45.3772 34.4445 45.4303 34.4445 45.4951C34.4445 45.5599 34.3914 45.613 34.3266 45.613C34.2617 45.613 34.2087 45.6661 34.2087 45.7309C34.2087 45.7957 34.1556 45.8488 34.0908 45.8488C34.0259 45.8488 33.9729 45.889 33.9729 45.938C33.9729 45.9871 33.8844 46.1092 33.7764 46.2094C33.6683 46.3096 33.5798 46.4286 33.5798 46.4738C33.5798 46.5192 33.5268 46.5562 33.4619 46.5562C33.3971 46.5562 33.344 46.6092 33.344 46.6741C33.344 46.7389 33.291 46.792 33.2261 46.792C33.1528 46.792 33.1082 46.8662 33.1082 46.9885C33.1082 47.1108 33.0636 47.185 32.9903 47.185C32.9254 47.185 32.8724 47.238 32.8724 47.3029C32.8724 47.3677 32.8193 47.4208 32.7545 47.4208C32.6759 47.4208 32.6366 47.4994 32.6366 47.6566C32.6366 47.8138 32.5973 47.8924 32.5187 47.8924C32.4538 47.8924 32.4008 47.9417 32.4008 48.0019C32.4008 48.0621 32.3477 48.1317 32.2828 48.1566C32.218 48.1815 32.1649 48.2914 32.1649 48.4008C32.1649 48.5253 32.1208 48.5998 32.047 48.5998C31.9684 48.5998 31.9291 48.6784 31.9291 48.8356C31.9291 48.9928 31.8898 49.0714 31.8112 49.0714C31.7393 49.0714 31.6933 49.1447 31.6933 49.2595C31.6933 49.3629 31.6402 49.4679 31.5754 49.4928C31.5105 49.5177 31.4575 49.6275 31.4575 49.737C31.4575 49.8464 31.4237 49.936 31.3824 49.936C31.3411 49.936 31.2842 50.0598 31.2558 50.2111C31.2274 50.3624 31.1773 50.4862 31.1444 50.4862C31.1115 50.4862 31.0619 50.6276 31.0343 50.8006C31.0066 50.9735 30.9537 51.115 30.9167 51.115C30.8796 51.115 30.8297 51.2615 30.8056 51.4407C30.7816 51.6198 30.7288 51.7878 30.6883 51.814C30.6478 51.8402 30.5969 52.0511 30.5752 52.2827C30.5534 52.5143 30.4996 52.7265 30.4555 52.7543C30.4114 52.7821 30.3613 53.0852 30.3443 53.4278C30.3245 53.8245 30.2784 54.0624 30.2172 54.0828C30.0779 54.1292 30.079 57.7687 30.2183 57.8152C30.2817 57.8363 30.3256 58.0769 30.345 58.5094C30.3613 58.8735 30.4099 59.1936 30.453 59.2206C30.4961 59.2477 30.5503 59.4423 30.5734 59.6529C30.5966 59.8636 30.6485 60.0575 30.6887 60.0836C30.729 60.1098 30.7816 60.2778 30.8056 60.457C30.8297 60.6361 30.8779 60.7827 30.9127 60.7827C30.9476 60.7827 31.0001 60.9419 31.0292 61.1364C31.0584 61.3309 31.1108 61.4901 31.1457 61.4901C31.1806 61.4901 31.2325 61.5962 31.261 61.7259C31.2894 61.8556 31.3453 61.9617 31.3851 61.9617C31.4249 61.9617 31.4575 62.0512 31.4575 62.1606C31.4575 62.2701 31.5105 62.38 31.5754 62.4048C31.6402 62.4297 31.6933 62.5359 31.6933 62.6406C31.6933 62.7455 31.7464 62.8516 31.8112 62.8764C31.8761 62.9013 31.9291 63.0063 31.9291 63.1098C31.9291 63.2245 31.9751 63.2979 32.047 63.2979C32.1256 63.2979 32.1649 63.3765 32.1649 63.5337C32.1649 63.6909 32.2042 63.7695 32.2828 63.7695C32.3483 63.7695 32.4008 63.8393 32.4008 63.9267C32.4008 64.014 32.4532 64.0839 32.5187 64.0839C32.592 64.0839 32.6366 64.1581 32.6366 64.2804C32.6366 64.4027 32.6811 64.4769 32.7545 64.4769C32.8193 64.4769 32.8724 64.5299 32.8724 64.5948C32.8724 64.6596 32.9254 64.7127 32.9903 64.7127C33.0689 64.7127 33.1082 64.7913 33.1082 64.9485C33.1082 65.1057 33.1475 65.1843 33.2261 65.1843C33.291 65.1843 33.344 65.2373 33.344 65.3022C33.344 65.367 33.3971 65.4201 33.4619 65.4201C33.5268 65.4201 33.5798 65.4731 33.5798 65.538C33.5798 65.6028 33.6329 65.6559 33.6977 65.6559C33.7626 65.6559 33.8157 65.6941 33.8157 65.7408C33.8157 65.8516 34.9562 66.992 35.067 66.992C35.1138 66.992 35.152 67.0451 35.152 67.1099C35.152 67.1748 35.205 67.2278 35.2699 67.2278C35.3347 67.2278 35.3878 67.2809 35.3878 67.3457C35.3878 67.4106 35.4408 67.4636 35.5057 67.4636C35.5705 67.4636 35.6236 67.5167 35.6236 67.5815C35.6236 67.6464 35.6766 67.6994 35.7415 67.6994C35.8063 67.6994 35.8594 67.7525 35.8594 67.8173C35.8594 67.8959 35.938 67.9352 36.0952 67.9352C36.2524 67.9352 36.331 67.9745 36.331 68.0531C36.331 68.118 36.3841 68.171 36.449 68.171C36.5138 68.171 36.5669 68.2241 36.5669 68.2889C36.5669 68.3609 36.6402 68.4068 36.755 68.4068C36.8584 68.4068 36.9634 68.4599 36.9883 68.5247C37.0132 68.5896 37.0877 68.6426 37.154 68.6426C37.2202 68.6426 37.2743 68.6773 37.2743 68.7197C37.2743 68.7621 37.3601 68.8184 37.4652 68.8447C37.5701 68.871 37.6751 68.9425 37.6985 69.0034C37.7219 69.0644 37.8305 69.1142 37.94 69.1142C38.0494 69.1142 38.139 69.1468 38.139 69.1866C38.139 69.2264 38.2451 69.2823 38.3748 69.3107C38.5045 69.3392 38.6106 69.3922 38.6106 69.4286C38.6106 69.465 38.7167 69.5181 38.8464 69.5465C38.9761 69.575 39.0822 69.628 39.0822 69.6644C39.0822 69.7008 39.1884 69.7539 39.3181 69.7823C39.4478 69.8108 39.5539 69.862 39.5539 69.8961C39.5539 69.9303 39.7035 69.9782 39.8862 70.0027C40.0691 70.0272 40.2312 70.0849 40.2466 70.1309C40.2619 70.177 40.4141 70.2146 40.5848 70.2146C40.7881 70.2146 40.9107 70.2553 40.9403 70.3325C40.9729 70.4172 41.1052 70.4504 41.4095 70.4504C41.7201 70.4504 41.8334 70.4798 41.8334 70.5602C41.8334 70.6437 41.9971 70.6768 42.5148 70.6981C42.9678 70.7166 43.2071 70.7588 43.2288 70.824C43.2546 70.9016 45.3507 70.922 53.2863 70.922H63.3111L63.2638 70.7452C63.2377 70.6479 63.2159 70.5418 63.2153 70.5094C63.2147 70.4769 63.1612 70.4504 63.0963 70.4504C63.0315 70.4504 62.9784 70.3974 62.9784 70.3325C62.9784 70.2677 62.9254 70.2146 62.8605 70.2146C62.7957 70.2146 62.7426 70.1745 62.7426 70.1254C62.7426 70.0763 62.6583 69.958 62.5553 69.8626C62.4522 69.7671 62.3437 69.6127 62.3142 69.5195C62.2846 69.4263 62.2274 69.35 62.1871 69.35C62.1468 69.35 62.1137 69.297 62.1137 69.2321C62.1137 69.1673 62.0607 69.1142 61.9958 69.1142C61.931 69.1142 61.8779 69.0612 61.8779 68.9963C61.8779 68.9315 61.8249 68.8784 61.76 68.8784C61.6952 68.8784 61.6421 68.8254 61.6421 68.7605C61.6421 68.6957 61.5891 68.6426 61.5242 68.6426C61.4594 68.6426 61.4063 68.5896 61.4063 68.5247C61.4063 68.4599 61.3532 68.4068 61.2884 68.4068C61.2098 68.4068 61.1705 68.3282 61.1705 68.171C61.1705 68.0138 61.1312 67.9352 61.0526 67.9352C60.9877 67.9352 60.9347 67.8822 60.9347 67.8173C60.9347 67.7525 60.8816 67.6994 60.8168 67.6994C60.7519 67.6994 60.6988 67.6464 60.6988 67.5815C60.6988 67.5167 60.6458 67.4636 60.5809 67.4636C60.5161 67.4636 60.463 67.4106 60.463 67.3457C60.463 67.2809 60.43 67.2278 60.3897 67.2278C60.3494 67.2278 60.2928 67.1537 60.2641 67.0631C60.2354 66.9725 60.0738 66.7644 59.9051 66.6007C59.7364 66.437 59.5984 66.2715 59.5984 66.2328C59.5984 66.1941 59.497 66.0735 59.373 65.9648C59.249 65.856 59.1229 65.6889 59.0926 65.5935C59.0623 65.4981 59.0046 65.4201 58.9642 65.4201C58.9239 65.4201 58.8909 65.367 58.8909 65.3022C58.8909 65.2373 58.8379 65.1843 58.773 65.1843C58.7082 65.1843 58.6551 65.1312 58.6551 65.0664C58.6551 65.0015 58.602 64.9485 58.5372 64.9485C58.4723 64.9485 58.4193 64.8954 58.4193 64.8306C58.4193 64.7657 58.3662 64.7127 58.3014 64.7127C58.228 64.7127 58.1835 64.6385 58.1835 64.5162C58.1835 64.3939 58.1389 64.3197 58.0655 64.3197C58.0001 64.3197 57.9476 64.2498 57.9476 64.1625C57.9476 64.0751 57.8952 64.0053 57.8297 64.0053C57.7649 64.0053 57.7118 63.9522 57.7118 63.8874C57.7118 63.8225 57.6588 63.7695 57.5939 63.7695C57.5291 63.7695 57.476 63.7164 57.476 63.6516C57.476 63.5867 57.4229 63.5337 57.3581 63.5337C57.2932 63.5337 57.2402 63.4806 57.2402 63.4158C57.2402 63.3509 57.2072 63.2979 57.1668 63.2979C57.1265 63.2979 57.07 63.2238 57.0412 63.1331C57.0125 63.0425 56.8509 62.8344 56.6822 62.6707C56.5136 62.507 56.3755 62.3335 56.3755 62.2853C56.3755 62.237 56.3225 62.1975 56.2576 62.1975C56.1928 62.1975 56.1397 62.1433 56.1397 62.0771C56.1397 62.0109 56.0866 61.9364 56.0218 61.9115C55.9569 61.8866 55.9039 61.7816 55.9039 61.6782C55.9039 61.5634 55.8579 61.4901 55.786 61.4901C55.7211 61.4901 55.6681 61.437 55.6681 61.3722C55.6681 61.3073 55.615 61.2543 55.5502 61.2543C55.4853 61.2543 55.4323 61.2012 55.4323 61.1364C55.4323 61.0715 55.3792 61.0185 55.3143 61.0185C55.2495 61.0185 55.1964 60.9654 55.1964 60.9006C55.1964 60.8357 55.1434 60.7827 55.0785 60.7827C55.0052 60.7827 54.9606 60.7085 54.9606 60.5862C54.9606 60.4639 54.916 60.3897 54.8427 60.3897C54.7779 60.3897 54.7248 60.3404 54.7248 60.2802C54.7248 60.22 54.6717 60.1504 54.6069 60.1254C54.542 60.1006 54.489 60.0261 54.489 59.9598C54.489 59.8937 54.4359 59.8395 54.3711 59.8395C54.3062 59.8395 54.2532 59.7864 54.2532 59.7216C54.2532 59.6568 54.2001 59.6037 54.1353 59.6037C54.0704 59.6037 54.0173 59.5506 54.0173 59.4858C54.0173 59.421 53.9827 59.3679 53.9402 59.3679C53.8979 59.3679 53.8411 59.2803 53.8142 59.1732L53.7654 58.9784L49.0047 58.9571C45.2813 58.9402 44.2368 58.9142 44.2113 58.8374C44.1933 58.7834 44.0743 58.7391 43.9468 58.7391C43.8133 58.7391 43.6959 58.6891 43.6698 58.6212C43.6449 58.5564 43.5399 58.5033 43.4365 58.5033C43.3217 58.5033 43.2484 58.4573 43.2484 58.3854C43.2484 58.3206 43.1953 58.2675 43.1304 58.2675C43.0656 58.2675 43.0125 58.2145 43.0125 58.1496C43.0125 58.0848 42.9595 58.0317 42.8946 58.0317C42.8298 58.0317 42.7767 57.9787 42.7767 57.9138C42.7767 57.849 42.7237 57.7959 42.6588 57.7959C42.5802 57.7959 42.5409 57.7173 42.5409 57.5601C42.5409 57.4029 42.5016 57.3243 42.423 57.3243C42.3379 57.3243 42.3051 57.237 42.3051 57.0099C42.3051 56.7828 42.2723 56.6955 42.1872 56.6955C42.0911 56.6955 42.0693 56.5645 42.0693 55.9881C42.0693 55.4118 42.0911 55.2807 42.1872 55.2807C42.2745 55.2807 42.3051 55.189 42.3051 54.927C42.3051 54.6651 42.3357 54.5733 42.423 54.5733C42.4949 54.5733 42.5409 54.5 42.5409 54.3852C42.5409 54.2818 42.594 54.1768 42.6588 54.1519C42.7237 54.127 42.7767 54.0525 42.7767 53.9863C42.7767 53.9201 42.8169 53.8659 42.8659 53.8659C42.9151 53.8659 43.0358 53.7789 43.1344 53.6726C43.2329 53.5663 43.405 53.4564 43.5168 53.4283C43.6286 53.4002 43.72 53.3458 43.72 53.3073C43.72 53.2687 43.8095 53.2371 43.9189 53.2371C44.0284 53.2371 44.1383 53.1841 44.1632 53.1192C44.2033 53.0149 46.6287 53.0013 65.3385 53.0013C81.2051 53.0013 86.476 53.0239 86.4986 53.0918C86.5152 53.1416 86.7304 53.199 86.9768 53.2195C87.2232 53.2399 87.4248 53.2848 87.4248 53.3192C87.4248 53.3537 87.5309 53.4052 87.6606 53.4336C87.7903 53.4621 87.8965 53.5152 87.8965 53.5515C87.8965 53.5879 88.0026 53.641 88.1323 53.6694C88.262 53.6979 88.3681 53.7499 88.3681 53.7851C88.3681 53.8202 88.4565 53.8711 88.5646 53.8982C88.6727 53.9254 88.7611 53.9823 88.7611 54.0246C88.7611 54.0671 88.8142 54.1017 88.879 54.1017C88.9439 54.1017 88.9969 54.152 88.9969 54.2134C88.9969 54.2748 89.1031 54.3484 89.2327 54.3768C89.3624 54.4053 89.4686 54.4612 89.4686 54.5009C89.4686 54.5408 89.5216 54.5733 89.5865 54.5733C89.6513 54.5733 89.7044 54.6264 89.7044 54.6912C89.7044 54.7561 89.7574 54.8091 89.8223 54.8091C89.8871 54.8091 89.9402 54.8622 89.9402 54.927C89.9402 54.9919 89.9933 55.0449 90.0581 55.0449C90.123 55.0449 90.176 55.098 90.176 55.1628C90.176 55.2277 90.2107 55.2807 90.2531 55.2807C90.2955 55.2807 90.3518 55.3666 90.3781 55.4716C90.4044 55.5765 90.4759 55.6815 90.5368 55.7049C90.5978 55.7283 90.6477 55.8015 90.6477 55.8678C90.6477 55.934 90.7007 55.9881 90.7656 55.9881C90.8304 55.9881 90.8835 56.0283 90.8835 56.0773C90.8835 56.1265 90.9719 56.2485 91.08 56.3487C91.1881 56.4489 91.2765 56.5651 91.2765 56.6071C91.2765 56.6491 91.3826 56.7895 91.5123 56.9192C91.642 57.0489 91.7481 57.1931 91.7481 57.2397C91.7481 57.2862 91.8012 57.3243 91.866 57.3243C91.9309 57.3243 91.984 57.3785 91.984 57.4447C91.984 57.5109 92.037 57.5854 92.1019 57.6103C92.1667 57.6352 92.2198 57.7402 92.2198 57.8436C92.2198 57.9584 92.2658 58.0317 92.3377 58.0317C92.4025 58.0317 92.4556 58.0848 92.4556 58.1496C92.4556 58.2145 92.5086 58.2675 92.5735 58.2675C92.6383 58.2675 92.6914 58.3206 92.6914 58.3854C92.6914 58.4503 92.7445 58.5033 92.8093 58.5033C92.8827 58.5033 92.9272 58.5775 92.9272 58.6998C92.9272 58.8221 92.9718 58.8963 93.0451 58.8963C93.1106 58.8963 93.163 58.9662 93.163 59.0535C93.163 59.1408 93.2155 59.2107 93.2809 59.2107C93.3458 59.2107 93.3989 59.2638 93.3989 59.3286C93.3989 59.3934 93.4519 59.4465 93.5168 59.4465C93.5816 59.4465 93.6347 59.4996 93.6347 59.5644C93.6347 59.6292 93.6693 59.6823 93.7118 59.6823C93.7542 59.6823 93.8111 59.7707 93.8382 59.8788C93.8653 59.9869 93.9368 60.0753 93.9969 60.0753C94.0571 60.0753 94.1063 60.1123 94.1063 60.1577C94.1063 60.2029 94.1947 60.3219 94.3028 60.4221C94.4109 60.5223 94.4993 60.6365 94.4993 60.676C94.4993 60.7155 94.5701 60.8083 94.6566 60.8824C94.743 60.9564 94.8138 61.0704 94.8138 61.1356C94.8138 61.2009 94.8491 61.2543 94.8924 61.2543C94.9356 61.2543 94.971 61.3073 94.971 61.3722C94.971 61.437 95.024 61.4901 95.0889 61.4901C95.1537 61.4901 95.2068 61.5431 95.2068 61.608C95.2068 61.6728 95.2598 61.7259 95.3247 61.7259C95.3895 61.7259 95.4426 61.7789 95.4426 61.8438C95.4426 61.9086 95.4957 61.9617 95.5605 61.9617C95.6343 61.9617 95.6784 62.0362 95.6784 62.1606C95.6784 62.2701 95.7315 62.38 95.7963 62.4048C95.8612 62.4297 95.9142 62.4994 95.9142 62.5596C95.9142 62.6198 95.9673 62.6691 96.0322 62.6691C96.097 62.6691 96.1501 62.7221 96.1501 62.787C96.1501 62.8518 96.2031 62.9049 96.268 62.9049C96.3413 62.9049 96.3859 62.9791 96.3859 63.1014C96.3859 63.2237 96.4305 63.2979 96.5038 63.2979C96.5686 63.2979 96.6232 63.3421 96.625 63.3961C96.6269 63.4502 96.733 63.5811 96.8608 63.6872C96.9887 63.7932 97.0933 63.9259 97.0933 63.9819C97.0933 64.038 97.128 64.0839 97.1704 64.0839C97.2128 64.0839 97.2697 64.1723 97.2968 64.2804C97.324 64.3884 97.3954 64.4769 97.4555 64.4769C97.5158 64.4769 97.565 64.517 97.565 64.5661C97.565 64.6152 97.6492 64.7335 97.7523 64.8289C97.8553 64.9244 97.9633 65.077 97.9921 65.168C98.0702 65.4142 98.3344 65.4675 98.5151 65.2736C98.5978 65.1849 98.6655 65.0754 98.6655 65.0304C98.6655 64.9853 98.7185 64.9485 98.7834 64.9485C98.8482 64.9485 98.9013 64.8954 98.9013 64.8306C98.9013 64.7657 98.9543 64.7127 99.0192 64.7127C99.0925 64.7127 99.1371 64.6385 99.1371 64.5162C99.1371 64.3939 99.1817 64.3197 99.255 64.3197C99.3205 64.3197 99.3729 64.2498 99.3729 64.1625C99.3729 64.0751 99.4253 64.0053 99.4908 64.0053C99.5641 64.0053 99.6087 63.9311 99.6087 63.8088C99.6087 63.6865 99.6533 63.6123 99.7266 63.6123C99.7915 63.6123 99.8445 63.5567 99.8445 63.4888C99.8445 63.4208 99.8976 63.3122 99.9624 63.2473C100.027 63.1825 100.08 63.0612 100.08 62.9779C100.08 62.8945 100.133 62.8263 100.198 62.8263C100.272 62.8263 100.316 62.7521 100.316 62.6298C100.316 62.5217 100.349 62.4333 100.389 62.4333C100.428 62.4333 100.484 62.3272 100.513 62.1975C100.541 62.0678 100.595 61.9617 100.632 61.9617C100.669 61.9617 100.723 61.8025 100.753 61.608C100.782 61.4135 100.834 61.2543 100.869 61.2543C100.904 61.2543 100.956 61.1482 100.984 61.0185C101.013 60.8888 101.064 60.7827 101.098 60.7827C101.132 60.7827 101.18 60.6361 101.204 60.457C101.228 60.2778 101.28 60.1098 101.32 60.0836C101.36 60.0575 101.415 59.8441 101.442 59.6096C101.469 59.3751 101.523 59.1629 101.563 59.138C101.602 59.1132 101.648 58.8124 101.665 58.4698C101.685 58.0731 101.731 57.8352 101.792 57.8149C101.864 57.7908 101.888 57.3235 101.888 55.9488C101.888 54.5742 101.864 54.1068 101.792 54.0828C101.731 54.0624 101.685 53.8245 101.665 53.4278C101.648 53.0852 101.598 52.7821 101.554 52.7543C101.51 52.7265 101.456 52.5143 101.434 52.2827C101.413 52.0511 101.362 51.8402 101.321 51.814C101.281 51.7878 101.228 51.6198 101.204 51.4407C101.18 51.2615 101.13 51.115 101.093 51.115C101.056 51.115 101.003 50.9735 100.975 50.8006C100.948 50.6276 100.898 50.4862 100.865 50.4862C100.832 50.4862 100.782 50.3624 100.754 50.2111C100.725 50.0598 100.668 49.936 100.627 49.936C100.586 49.936 100.552 49.8464 100.552 49.737C100.552 49.6275 100.499 49.5177 100.434 49.4928C100.369 49.4679 100.316 49.3629 100.316 49.2595C100.316 49.1447 100.27 49.0714 100.198 49.0714C100.12 49.0714 100.08 48.9928 100.08 48.8356C100.08 48.6784 100.041 48.5998 99.9624 48.5998C99.8838 48.5998 99.8445 48.5212 99.8445 48.364C99.8445 48.2068 99.8052 48.1282 99.7266 48.1282C99.6618 48.1282 99.6087 48.0751 99.6087 48.0103C99.6087 47.9454 99.5557 47.8924 99.4908 47.8924C99.4122 47.8924 99.3729 47.8138 99.3729 47.6566C99.3729 47.4994 99.3336 47.4208 99.255 47.4208C99.1901 47.4208 99.1371 47.3677 99.1371 47.3029C99.1371 47.238 99.084 47.185 99.0192 47.185C98.9458 47.185 98.9013 47.1108 98.9013 46.9885C98.9013 46.8662 98.8567 46.792 98.7834 46.792C98.7185 46.792 98.6655 46.7389 98.6655 46.6741C98.6655 46.6092 98.6124 46.5562 98.5475 46.5562C98.4827 46.5562 98.4296 46.5192 98.4296 46.4738C98.4296 46.4286 98.3412 46.3096 98.2331 46.2094C98.125 46.1092 98.0366 45.9871 98.0366 45.938C98.0366 45.889 97.9835 45.8488 97.9187 45.8488C97.8538 45.8488 97.8008 45.7957 97.8008 45.7309C97.8008 45.6661 97.7477 45.613 97.6829 45.613C97.618 45.613 97.565 45.5599 97.565 45.4951C97.565 45.4303 97.5119 45.3772 97.4471 45.3772C97.3822 45.3772 97.3291 45.3241 97.3291 45.2593C97.3291 45.1945 97.2761 45.1414 97.2112 45.1414C97.1464 45.1414 97.0933 45.0883 97.0933 45.0235C97.0933 44.9587 97.0403 44.9056 96.9754 44.9056C96.9106 44.9056 96.8575 44.8526 96.8575 44.7877C96.8575 44.7229 96.8045 44.6698 96.7396 44.6698C96.6748 44.6698 96.6217 44.6168 96.6217 44.5519C96.6217 44.4871 96.5847 44.434 96.5393 44.434C96.494 44.434 96.379 44.3505 96.2839 44.2484C96.1887 44.1463 96.0223 44.0354 95.9142 44.0017C95.8062 43.9681 95.6437 43.8612 95.5531 43.7642C95.4626 43.6672 95.3123 43.5636 95.2191 43.534C95.1258 43.5044 95.0496 43.4473 95.0496 43.4069C95.0496 43.3666 94.9954 43.3336 94.9292 43.3336C94.863 43.3336 94.7885 43.2806 94.7636 43.2157C94.7387 43.1509 94.6337 43.0978 94.5302 43.0978C94.4155 43.0978 94.3421 43.0518 94.3421 42.9799C94.3421 42.9013 94.2635 42.862 94.1063 42.862C93.9491 42.862 93.8705 42.8227 93.8705 42.7441C93.8705 42.6655 93.7919 42.6262 93.6347 42.6262C93.4775 42.6262 93.3989 42.5869 93.3989 42.5083C93.3989 42.4297 93.3203 42.3904 93.163 42.3904C93.0058 42.3904 92.9272 42.3511 92.9272 42.2725C92.9272 42.1939 92.8486 42.1546 92.6914 42.1546C92.5342 42.1546 92.4556 42.1153 92.4556 42.0367C92.4556 41.9494 92.3639 41.9188 92.1019 41.9188C91.8399 41.9188 91.7481 41.8883 91.7481 41.8009C91.7481 41.7154 91.6602 41.683 91.4281 41.683C91.2484 41.683 91.0563 41.6313 90.9901 41.5651C90.9215 41.4965 90.7295 41.4472 90.5307 41.4472C90.3428 41.4472 90.1772 41.4114 90.1626 41.3677C90.148 41.3239 89.8356 41.2655 89.4683 41.2378C89.1009 41.2102 88.7752 41.1487 88.7444 41.1012C88.7038 41.0389 82.6094 41.0138 66.8134 41.0106C54.7821 41.0082 44.5582 41.0182 44.0934 41.0329ZM63.057 59.0535C63.057 59.0967 63.0924 59.1321 63.1356 59.1321C63.1789 59.1321 63.2142 59.1863 63.2142 59.2524C63.2142 59.3187 63.2673 59.3932 63.3321 59.418C63.397 59.443 63.45 59.5126 63.45 59.5728C63.45 59.633 63.5031 59.6823 63.568 59.6823C63.6328 59.6823 63.6859 59.7354 63.6859 59.8002C63.6859 59.865 63.7389 59.9181 63.8038 59.9181C63.8771 59.9181 63.9217 59.9923 63.9217 60.1146C63.9217 60.2369 63.9663 60.3111 64.0396 60.3111C64.1044 60.3111 64.1575 60.3641 64.1575 60.429C64.1575 60.4938 64.2106 60.5469 64.2754 60.5469C64.3403 60.5469 64.3933 60.5999 64.3933 60.6648C64.3933 60.7296 64.4464 60.7827 64.5112 60.7827C64.5761 60.7827 64.6291 60.8357 64.6291 60.9006C64.6291 60.9654 64.6822 61.0185 64.747 61.0185C64.8256 61.0185 64.865 61.0971 64.865 61.2543C64.865 61.4115 64.9043 61.4901 64.9829 61.4901C65.0477 61.4901 65.1008 61.5431 65.1008 61.608C65.1008 61.6728 65.1538 61.7259 65.2187 61.7259C65.2835 61.7259 65.3366 61.7789 65.3366 61.8438C65.3366 61.9086 65.3896 61.9617 65.4545 61.9617C65.5193 61.9617 65.5724 62.0018 65.5724 62.0509C65.5724 62.1 65.6608 62.2221 65.7689 62.3223C65.877 62.4224 65.9654 62.5387 65.9654 62.5807C65.9654 62.6226 66.0715 62.7631 66.2012 62.8928C66.3309 63.0225 66.4371 63.1667 66.4371 63.2132C66.4371 63.2598 66.4901 63.2979 66.555 63.2979C66.6198 63.2979 66.6729 63.3438 66.6729 63.3998C66.6729 63.4559 66.7775 63.5885 66.9054 63.6946C67.0332 63.8006 67.1393 63.967 67.1412 64.0642C67.1431 64.1676 67.1936 64.2411 67.2624 64.2411C67.3273 64.2411 67.3803 64.2941 67.3803 64.359C67.3803 64.4238 67.4334 64.4769 67.4982 64.4769C67.5631 64.4769 67.6162 64.5299 67.6162 64.5948C67.6162 64.6596 67.6692 64.7127 67.7341 64.7127C67.7989 64.7127 67.852 64.7657 67.852 64.8306C67.852 64.8954 67.905 64.9485 67.9699 64.9485C68.0418 64.9485 68.0878 65.0218 68.0878 65.1366C68.0878 65.24 68.1408 65.345 68.2057 65.3699C68.2705 65.3947 68.3236 65.4693 68.3236 65.5355C68.3236 65.6017 68.3767 65.6559 68.4415 65.6559C68.5064 65.6559 68.5594 65.7089 68.5594 65.7738C68.5594 65.8386 68.6125 65.8917 68.6773 65.8917C68.7422 65.8917 68.7952 65.9447 68.7952 66.0096C68.7952 66.0744 68.8283 66.1275 68.8686 66.1275C68.9089 66.1275 68.966 66.2037 68.9957 66.2969C69.0252 66.3901 69.1337 66.5445 69.2368 66.64C69.3398 66.7354 69.4241 66.8537 69.4241 66.9028C69.4241 66.9519 69.4771 66.992 69.542 66.992C69.6068 66.992 69.6599 67.0451 69.6599 67.1099C69.6599 67.1748 69.713 67.2278 69.7778 67.2278C69.8427 67.2278 69.8957 67.273 69.8957 67.3283C69.8957 67.3836 69.9665 67.4893 70.0529 67.5633C70.1394 67.6373 70.2101 67.7513 70.2101 67.8166C70.2101 67.8819 70.2455 67.9352 70.2887 67.9352C70.332 67.9352 70.3674 67.9883 70.3674 68.0531C70.3674 68.118 70.4204 68.171 70.4853 68.171C70.5501 68.171 70.6032 68.2241 70.6032 68.2889C70.6032 68.3538 70.6562 68.4068 70.7211 68.4068C70.7859 68.4068 70.839 68.4599 70.839 68.5247C70.839 68.5896 70.8921 68.6426 70.9569 68.6426C71.0302 68.6426 71.0748 68.7168 71.0748 68.8391C71.0748 68.9614 71.1194 69.0356 71.1927 69.0356C71.2576 69.0356 71.3106 69.0849 71.3106 69.1451C71.3106 69.2053 71.3637 69.275 71.4285 69.2999C71.4934 69.3247 71.5464 69.3992 71.5464 69.4655C71.5464 69.5317 71.5995 69.5858 71.6644 69.5858C71.7292 69.5858 71.7823 69.6389 71.7823 69.7037C71.7823 69.7686 71.8169 69.8216 71.8594 69.8216C71.9017 69.8216 71.9587 69.9101 71.9858 70.0181C72.0129 70.1262 72.0843 70.2146 72.1445 70.2146C72.2047 70.2146 72.2539 70.2516 72.2539 70.297C72.2539 70.3423 72.3423 70.4613 72.4504 70.5614C72.5585 70.6616 72.6469 70.7837 72.6469 70.8328C72.6469 70.8819 72.6961 70.922 72.7563 70.922C72.8165 70.922 72.8879 71.0104 72.9151 71.1185C72.9422 71.2266 72.9991 71.315 73.0414 71.315C73.0839 71.315 73.1186 71.3692 73.1186 71.4354C73.1186 71.5016 73.1716 71.5761 73.2365 71.601C73.3013 71.6259 73.3544 71.6955 73.3544 71.7557C73.3544 71.8159 73.4074 71.8652 73.4723 71.8652C73.5371 71.8652 73.5902 71.9183 73.5902 71.9831C73.5902 72.048 73.6433 72.101 73.7081 72.101C73.773 72.101 73.826 72.1541 73.826 72.2189C73.826 72.2838 73.8791 72.3368 73.9439 72.3368C74.0173 72.3368 74.0618 72.411 74.0618 72.5333C74.0618 72.6556 74.1064 72.7298 74.1797 72.7298C74.2446 72.7298 74.2976 72.7829 74.2976 72.8477C74.2976 72.9126 74.3507 72.9656 74.4156 72.9656C74.4804 72.9656 74.5335 73.0149 74.5335 73.0751C74.5335 73.1353 74.5865 73.2049 74.6514 73.2299C74.7162 73.2547 74.7693 73.3292 74.7693 73.3955C74.7693 73.4616 74.8039 73.5158 74.8464 73.5158C74.8888 73.5158 74.9457 73.6042 74.9728 73.7123C74.9999 73.8204 75.0714 73.9088 75.1315 73.9088C75.1917 73.9088 75.2409 73.9619 75.2409 74.0267C75.2409 74.0915 75.294 74.1446 75.3588 74.1446C75.4237 74.1446 75.4767 74.1977 75.4767 74.2625C75.4767 74.3273 75.5121 74.3804 75.5553 74.3804C75.5986 74.3804 75.6339 74.4334 75.6339 74.4983C75.6339 74.5631 75.687 74.6162 75.7519 74.6162C75.8167 74.6162 75.8698 74.6693 75.8698 74.7341C75.8698 74.7989 75.919 74.852 75.9792 74.852C76.0393 74.852 76.1108 74.9404 76.1379 75.0485C76.165 75.1566 76.2219 75.245 76.2643 75.245C76.3067 75.245 76.3414 75.298 76.3414 75.3629C76.3414 75.4277 76.3945 75.4808 76.4593 75.4808C76.5242 75.4808 76.5772 75.5338 76.5772 75.5987C76.5772 75.6635 76.6303 75.7166 76.6951 75.7166C76.76 75.7166 76.813 75.7696 76.813 75.8345C76.813 75.8993 76.8661 75.9524 76.9309 75.9524C76.9958 75.9524 77.0489 76.0054 77.0489 76.0703C77.0489 76.1351 77.1019 76.1882 77.1668 76.1882C77.2316 76.1882 77.2847 76.2412 77.2847 76.3061C77.2847 76.3709 77.3377 76.424 77.4026 76.424C77.4674 76.424 77.5205 76.477 77.5205 76.5419C77.5205 76.6067 77.5735 76.6598 77.6384 76.6598C77.7032 76.6598 77.7563 76.7128 77.7563 76.7777C77.7563 76.8425 77.8094 76.8956 77.8742 76.8956C77.9391 76.8956 77.9921 76.9486 77.9921 77.0135C77.9921 77.0783 78.0452 77.1314 78.11 77.1314C78.1749 77.1314 78.2279 77.1844 78.2279 77.2493C78.2279 77.3141 78.281 77.3672 78.3458 77.3672C78.4107 77.3672 78.4638 77.4018 78.4638 77.4443C78.4638 77.4866 78.5522 77.5435 78.6603 77.5707C78.7684 77.5978 78.8568 77.6692 78.8568 77.7294C78.8568 77.7896 78.9061 77.8388 78.9663 77.8388C79.0265 77.8388 79.0961 77.8918 79.1211 77.9567C79.1459 78.0215 79.2204 78.0746 79.2867 78.0746C79.3529 78.0746 79.407 78.1092 79.407 78.1517C79.407 78.194 79.4929 78.2503 79.5979 78.2766C79.7028 78.303 79.8078 78.3744 79.8312 78.4353C79.8546 78.4963 79.9632 78.5462 80.0727 78.5462C80.1822 78.5462 80.2717 78.5808 80.2717 78.6233C80.2717 78.6656 80.3601 78.7225 80.4682 78.7497C80.5763 78.7768 80.6647 78.8277 80.6647 78.8628C80.6647 78.898 80.7708 78.95 80.9005 78.9785C81.0302 79.0069 81.1364 79.0589 81.1364 79.0938C81.1364 79.1288 81.2602 79.1807 81.4115 79.2091C81.5628 79.2374 81.6866 79.2904 81.6866 79.3267C81.6866 79.363 81.8811 79.417 82.1189 79.4467C82.3567 79.4764 82.5513 79.5295 82.5513 79.5647C82.5513 79.5999 82.8052 79.6432 83.1157 79.6607C83.4614 79.6803 83.6925 79.7294 83.7118 79.7875C83.7553 79.9177 86.6905 79.9238 86.7338 79.7938C86.7501 79.745 86.9564 79.6871 87.1923 79.6649C87.4283 79.6428 87.6418 79.5929 87.667 79.5542C87.6921 79.5154 87.851 79.4614 88.02 79.434C88.1891 79.4065 88.3745 79.337 88.432 79.2795C88.4895 79.222 88.6401 79.175 88.7667 79.175C88.8933 79.175 88.9969 79.1396 88.9969 79.0964C88.9969 79.0531 89.0421 79.0178 89.0974 79.0178C89.1527 79.0178 89.2584 78.947 89.3324 78.8606C89.4065 78.7741 89.5204 78.7034 89.5857 78.7034C89.651 78.7034 89.7044 78.6719 89.7044 78.6333C89.7044 78.5947 89.7928 78.541 89.9009 78.5139C90.009 78.4867 90.0974 78.4298 90.0974 78.3875C90.0974 78.345 90.1516 78.3104 90.2178 78.3104C90.284 78.3104 90.3585 78.2573 90.3834 78.1925C90.4083 78.1276 90.4779 78.0746 90.5382 78.0746C90.5984 78.0746 90.6477 78.0215 90.6477 77.9567C90.6477 77.8918 90.7007 77.8388 90.7656 77.8388C90.8304 77.8388 90.8835 77.7857 90.8835 77.7209C90.8835 77.656 90.9365 77.603 91.0014 77.603C91.0662 77.603 91.1193 77.5499 91.1193 77.4851C91.1193 77.4202 91.1547 77.3672 91.1979 77.3672C91.2411 77.3672 91.2765 77.3141 91.2765 77.2493C91.2765 77.1844 91.3296 77.1314 91.3944 77.1314C91.4593 77.1314 91.5123 77.0783 91.5123 77.0135C91.5123 76.9486 91.5625 76.8956 91.624 76.8956C91.6854 76.8956 91.759 76.7895 91.7874 76.6598C91.8159 76.5301 91.8679 76.424 91.9031 76.424C91.9382 76.424 91.9891 76.3356 92.0163 76.2275C92.0434 76.1194 92.1003 76.031 92.1427 76.031C92.1851 76.031 92.2198 75.9628 92.2198 75.8794C92.2198 75.7961 92.2728 75.6748 92.3377 75.6099C92.4025 75.5451 92.4556 75.4011 92.4556 75.2899C92.4556 75.1626 92.4993 75.0878 92.5735 75.0878C92.6623 75.0878 92.6914 74.9924 92.6914 74.7004C92.6914 74.4609 92.7364 74.268 92.8093 74.1951C92.904 74.1004 92.9272 73.8364 92.9272 72.8533C92.9272 71.8178 92.9091 71.6294 92.8093 71.6294C92.7191 71.6294 92.6914 71.5299 92.6914 71.2055C92.6914 70.9013 92.6582 70.7689 92.5735 70.7364C92.5046 70.71 92.4556 70.5921 92.4556 70.4529C92.4556 70.3218 92.4206 70.2146 92.3779 70.2146C92.3352 70.2146 92.2776 70.0731 92.25 69.9002C92.2196 69.7106 92.1569 69.5858 92.0918 69.5858C92.0244 69.5858 91.984 69.4975 91.984 69.35C91.984 69.1928 91.9447 69.1142 91.866 69.1142C91.8006 69.1142 91.7481 69.0444 91.7481 68.957C91.7481 68.8706 91.7151 68.7998 91.6748 68.7998C91.6345 68.7998 91.5773 68.7236 91.5477 68.6304C91.5181 68.5372 91.4097 68.3828 91.3066 68.2873C91.2036 68.1919 91.1193 68.0736 91.1193 68.0245C91.1193 67.9754 91.0691 67.9352 91.0076 67.9352C90.9462 67.9352 90.8726 67.8291 90.8442 67.6994C90.8157 67.5698 90.7598 67.4636 90.7201 67.4636C90.6802 67.4636 90.6477 67.4106 90.6477 67.3457C90.6477 67.2809 90.5946 67.2278 90.5297 67.2278C90.4649 67.2278 90.4118 67.1748 90.4118 67.1099C90.4118 67.0451 90.3626 66.992 90.3024 66.992C90.2423 66.992 90.1708 66.9036 90.1437 66.7955C90.1166 66.6875 90.0597 66.599 90.0173 66.599C89.9749 66.599 89.9402 66.546 89.9402 66.4812C89.9402 66.4163 89.8871 66.3633 89.8223 66.3633C89.7568 66.3633 89.7044 66.2934 89.7044 66.2061C89.7044 66.1187 89.652 66.0489 89.5865 66.0489C89.5216 66.0489 89.4686 65.9958 89.4686 65.931C89.4686 65.8661 89.4155 65.8131 89.3507 65.8131C89.2773 65.8131 89.2327 65.7389 89.2327 65.6166C89.2327 65.4943 89.1882 65.4201 89.1148 65.4201C89.05 65.4201 88.9969 65.367 88.9969 65.3022C88.9969 65.2373 88.9439 65.1843 88.879 65.1843C88.8142 65.1843 88.7611 65.1312 88.7611 65.0664C88.7611 65.0015 88.7286 64.9485 88.6887 64.9485C88.6489 64.9485 88.5931 64.8424 88.5646 64.7127C88.5361 64.583 88.4626 64.4769 88.4012 64.4769C88.3397 64.4769 88.2895 64.4238 88.2895 64.359C88.2895 64.2941 88.2364 64.2411 88.1716 64.2411C88.1067 64.2411 88.0537 64.188 88.0537 64.1232C88.0537 64.0583 88.0183 64.0053 87.9751 64.0053C87.9318 64.0053 87.8965 63.9522 87.8965 63.8874C87.8965 63.8225 87.8472 63.7695 87.787 63.7695C87.7269 63.7695 87.6554 63.681 87.6283 63.573C87.6012 63.4649 87.5443 63.3765 87.5019 63.3765C87.4595 63.3765 87.4248 63.3234 87.4248 63.2586C87.4248 63.1937 87.3718 63.1407 87.3069 63.1407C87.2421 63.1407 87.189 63.0865 87.189 63.0203C87.189 62.9541 87.1359 62.8796 87.0711 62.8547C87.0062 62.8298 86.9532 62.7602 86.9532 62.7C86.9532 62.6398 86.9001 62.5905 86.8353 62.5905C86.7619 62.5905 86.7174 62.5163 86.7174 62.394C86.7174 62.2717 86.6728 62.1975 86.5995 62.1975C86.5346 62.1975 86.4815 62.1444 86.4815 62.0796C86.4815 62.0147 86.4285 61.9617 86.3636 61.9617C86.2988 61.9617 86.2457 61.9247 86.2457 61.8793C86.2457 61.834 86.1597 61.7173 86.0546 61.6199C85.9495 61.5225 85.8396 61.3473 85.8103 61.2306C85.781 61.114 85.7078 61.0185 85.6477 61.0185C85.5875 61.0185 85.5383 60.9654 85.5383 60.9006C85.5383 60.8357 85.4852 60.7827 85.4204 60.7827C85.3555 60.7827 85.3025 60.7425 85.3025 60.6935C85.3025 60.6444 85.214 60.5223 85.1059 60.4221C84.9979 60.3219 84.9094 60.2057 84.9094 60.1637C84.9094 60.1217 84.8033 59.9813 84.6736 59.8516C84.5439 59.7219 84.4378 59.5777 84.4378 59.5312C84.4378 59.4846 84.3847 59.4465 84.3199 59.4465C84.255 59.4465 84.202 59.3934 84.202 59.3286C84.202 59.2638 84.1489 59.2107 84.0841 59.2107C84.0192 59.2107 83.9662 59.1576 83.9662 59.0928C83.9662 58.9886 82.7522 58.9749 73.5116 58.9749C66.5943 58.9749 63.057 59.0015 63.057 59.0535Z" fill="black"/>
</svg>
