<svg width="132" height="88" viewBox="0 0 132 88" fill="none" xmlns="http://www.w3.org/2000/svg">
<path d="M31.3379 43.9983C31.3379 63.1418 46.8568 78.6606 66.0002 78.6606C85.1437 78.6606 100.663 63.1418 100.663 43.9983C100.663 24.8548 85.1437 9.33594 66.0002 9.33594C46.8568 9.33594 31.3379 24.8548 31.3379 43.9983ZM56.7497 33.9245C58.8295 34.3578 60.4543 35.311 62.5123 37.3041L64.3321 39.0589L62.6857 40.7054L61.0392 42.3302L59.3277 40.727C56.923 38.474 55.4282 37.9974 53.0235 38.7123C50.8788 39.3405 49.1023 41.7452 49.1023 43.9983C49.1023 46.2513 50.8788 48.656 53.0235 49.2843C54.475 49.7176 55.0599 49.7176 56.4898 49.2626C57.573 48.9377 58.1146 48.4611 64.2455 42.3302C71.0263 35.5493 71.9145 34.8128 74.2326 34.0979C75.9223 33.5779 78.7387 33.6429 80.3418 34.2062C84.6746 35.766 87.2743 39.4489 87.2743 43.9983C87.2743 47.6378 85.7145 50.6058 82.7898 52.5556C80.97 53.7471 79.4102 54.2237 77.2655 54.2453C73.7993 54.267 71.8928 53.3355 68.4049 49.8476C67.0834 48.5477 65.9353 47.4645 65.8486 47.4645C65.7619 47.4645 64.5704 48.5911 63.2056 49.9559C60.3893 52.8155 58.7861 53.7687 56.1215 54.202C51.897 54.8736 47.3909 52.4689 45.5278 48.5261C42.6465 42.3952 46.0477 35.3544 52.5902 33.9462C54.3884 33.5346 54.9733 33.5346 56.7497 33.9245Z" fill="#252A30"/>
<path d="M75.5107 38.669C74.1892 39.1456 73.3443 39.7739 71.1996 41.9186L69.1415 43.9984L71.2863 46.1431C73.6476 48.5261 74.9691 49.371 76.5723 49.566C79.6269 49.9126 82.6815 47.1396 82.6815 43.9984C82.6815 40.3805 78.782 37.4992 75.5107 38.669Z" fill="#252A30"/>
</svg>
