<svg width="132" height="88" viewBox="0 0 132 88" fill="none" xmlns="http://www.w3.org/2000/svg">
<path d="M30 21.4301C30 14.0128 36.0128 8 43.4301 8H88.5699C95.9872 8 102 14.0128 102 21.4301V66.5699C102 73.9872 95.9872 80 88.5699 80H43.4301C36.0128 80 30 73.9872 30 66.5699V21.4301Z" fill="#3E3C3D"/>
<path d="M78.0435 29.8127C77.1174 29.9608 76.432 30.4239 75.9875 31.2018C75.58 31.9427 75.3763 33.1282 75.3763 34.7581V37.2586H81.0441C81.822 37.2586 82.4333 37.4994 82.8778 37.981C83.3594 38.4255 83.6002 39.0183 83.6002 39.7591V41.1483C83.6002 41.8892 83.3594 42.5004 82.8778 42.982C82.4333 43.4266 81.822 43.6488 81.0441 43.6488H75.3763V58.5408H77.4322C78.2102 58.5408 78.8029 58.726 79.2104 59.0964C79.6179 59.4669 79.8216 60.004 79.8216 60.7079V62.875C79.8216 63.5788 79.6179 64.116 79.2104 64.4864C78.8029 64.8569 78.2102 65.0421 77.4322 65.0421H66.6523C65.9484 65.0421 65.3742 64.8754 64.9297 64.542C64.4851 64.1715 64.2629 63.6159 64.2629 62.875V60.7079C64.2629 59.967 64.4851 59.4298 64.9297 59.0964C65.3742 58.726 65.9484 58.5408 66.6523 58.5408H67.708V43.6488H65.3187C64.5407 43.6488 63.911 43.4266 63.4294 42.982C62.9848 42.5004 62.7626 41.8892 62.7626 41.1483V39.7591C62.7626 39.0183 62.9848 38.4255 63.4294 37.981C63.911 37.4994 64.5407 37.2586 65.3187 37.2586H67.708V34.8137C67.708 31.2574 68.6527 28.4605 70.5419 26.4231C72.4312 24.3856 75.0243 23.3669 78.3213 23.3669C80.8033 23.3669 82.7667 23.8855 84.2114 24.9228C85.6561 25.96 86.3785 27.3677 86.3785 29.1459C86.3785 30.3683 85.9895 31.35 85.2116 32.0909C84.4337 32.8318 83.4149 33.2022 82.1554 33.2022C81.1182 33.2022 80.2106 32.8874 79.4327 32.2576C78.6547 31.6279 78.1917 30.8129 78.0435 29.8127Z" fill="white"/>
<path d="M51.7611 32.8132C50.3534 32.8132 49.168 32.3501 48.2048 31.424C47.2787 30.4609 46.8157 29.2754 46.8157 27.8677C46.8157 26.46 47.2787 25.2931 48.2048 24.367C49.168 23.4039 50.3534 22.9223 51.7611 22.9223C53.1688 22.9223 54.3357 23.4039 55.2618 24.367C56.225 25.2931 56.7066 26.46 56.7066 27.8677C56.7066 29.2754 56.225 30.4609 55.2618 31.424C54.3357 32.3501 53.1688 32.8132 51.7611 32.8132ZM47.8714 65.042C47.1676 65.042 46.5934 64.8753 46.1489 64.5419C45.7043 64.1715 45.482 63.6158 45.482 62.8749V60.7078C45.482 59.9669 45.7043 59.4298 46.1489 59.0963C46.5934 58.7259 47.1676 58.5407 47.8714 58.5407H48.9272V43.7599H47.8714C47.1676 43.7599 46.5934 43.5932 46.1489 43.2598C45.7043 42.8893 45.482 42.3337 45.482 41.5928V39.4257C45.482 37.9809 46.2785 37.2585 47.8714 37.2585H54.0394C54.7802 37.2585 55.3915 37.4993 55.8731 37.9809C56.3546 38.4625 56.5954 39.0737 56.5954 39.8146V58.5407H57.5956C58.3365 58.5407 58.9292 58.7259 59.3738 59.0963C59.8183 59.4298 60.0406 59.9669 60.0406 60.7078V62.8749C60.0406 63.6158 59.8183 64.1715 59.3738 64.5419C58.9292 64.8753 58.3365 65.042 57.5956 65.042H47.8714Z" fill="white"/>
</svg>
