<svg width="132" height="88" viewBox="0 0 132 88" fill="none" xmlns="http://www.w3.org/2000/svg">
<path d="M80.1429 11H51.8571C41.4426 11 33 19.4426 33 29.8571V58.1429C33 68.5574 41.4426 77 51.8571 77H80.1429C90.5574 77 99 68.5574 99 58.1429V29.8571C99 19.4426 90.5574 11 80.1429 11Z" fill="#4D24E1"/>
<path fill-rule="evenodd" clip-rule="evenodd" d="M75.8655 53.5155C79.899 49.482 81.3656 44.7884 80.2655 40.3881L73.7386 41.6348C74.2888 44.165 73.4819 46.5117 71.4652 48.5285C68.7151 51.2786 64.6082 51.0587 61.4181 47.8685C58.2644 44.7151 58.0813 40.6448 60.8314 37.8947C62.7381 35.9145 65.0483 35.218 67.4316 35.4747L68.4952 28.9109C64.0948 28.0308 59.5847 29.5342 55.8078 33.3111C49.7575 39.3614 49.7575 47.5017 55.8078 53.5521C61.7846 59.5291 69.8885 59.4925 75.8655 53.5155Z" fill="white"/>
<path fill-rule="evenodd" clip-rule="evenodd" d="M75.4286 36.9286C77.3813 36.9286 78.9643 35.3455 78.9643 33.3929C78.9643 31.4402 77.3813 29.8572 75.4286 29.8572C73.476 29.8572 71.8929 31.4402 71.8929 33.3929C71.8929 35.3455 73.476 36.9286 75.4286 36.9286Z" fill="white"/>
</svg>
