<svg width="132" height="88" viewBox="0 0 132 88" fill="none" xmlns="http://www.w3.org/2000/svg">
<mask id="mask0_2056_23230" style="mask-type:luminance" maskUnits="userSpaceOnUse" x="31" y="9" width="70" height="70">
<path d="M100.1 9.89844H31.9004V78.0984H100.1V9.89844Z" fill="white"/>
</mask>
<g mask="url(#mask0_2056_23230)">
<path d="M92.144 30.9225L69.4107 12.7358C67.4215 11.0308 64.2957 11.0308 62.3065 12.7358L39.5732 30.9225C38.4365 32.0591 37.584 33.7641 37.584 35.4691V72.4106C37.584 75.5365 40.1415 78.094 43.2673 78.094H88.734C91.8598 78.094 94.4173 75.5365 94.4173 72.4106V35.4691C94.4173 33.7641 93.5648 32.0591 92.144 30.9225Z" fill="#A9C056"/>
<path d="M65.9997 38.312C69.1386 38.312 71.6831 35.7675 71.6831 32.6286C71.6831 29.4898 69.1386 26.9453 65.9997 26.9453C62.8609 26.9453 60.3164 29.4898 60.3164 32.6286C60.3164 35.7675 62.8609 38.312 65.9997 38.312Z" fill="white"/>
</g>
</svg>
