<svg width="132" height="88" viewBox="0 0 132 88" fill="none" xmlns="http://www.w3.org/2000/svg">
<path d="M64.7327 52.5613L60.3565 81.3008C60.3063 81.6265 60.366 81.9603 60.5256 82.2478C60.6847 82.5356 60.9351 82.761 61.2357 82.8874C61.5363 83.0137 61.87 83.0344 62.1837 82.9462C62.4969 82.8573 62.7722 82.6647 62.9652 82.3991L92.194 42.1257C92.6486 41.4997 92.9222 40.7591 92.9857 39.9854C93.0492 39.2108 92.9 38.4343 92.5541 37.7413C92.2083 37.0487 91.6794 36.4664 91.0266 36.0596C90.3739 35.6525 89.6226 35.4372 88.8563 35.4372H67.2673L71.644 6.69916C71.6941 6.37296 71.6345 6.03943 71.4749 5.75173C71.3158 5.4645 71.0653 5.23908 70.7647 5.11264C70.4641 4.9862 70.1305 4.96557 69.8168 5.05398C69.5035 5.14243 69.2283 5.33529 69.0352 5.601L39.8054 45.8744C39.3516 46.4999 39.0776 47.2405 39.0143 48.0147C38.9506 48.7888 39.1002 49.5653 39.446 50.258C39.7923 50.9506 40.3207 51.5329 40.9735 51.9397C41.6262 52.346 42.3775 52.5613 43.1437 52.5613H64.7327Z" fill="url(#paint0_linear_2243_7139)"/>
<defs>
<linearGradient id="paint0_linear_2243_7139" x1="39" y1="44" x2="93" y2="44" gradientUnits="userSpaceOnUse">
<stop stop-color="#1B4ADC"/>
<stop offset="0.5" stop-color="#7000FF"/>
<stop offset="1" stop-color="#E700B7"/>
</linearGradient>
</defs>
</svg>
