<svg width="132" height="88" viewBox="0 0 132 88" fill="none" xmlns="http://www.w3.org/2000/svg">
<path fill-rule="evenodd" clip-rule="evenodd" d="M64.6661 9.17614C65.4991 8.70364 66.5199 8.70715 67.3496 9.18538L102.064 29.1964C102.917 29.6877 103.435 30.6036 103.417 31.5877C103.399 32.5714 102.847 33.4676 101.977 33.9274L67.2626 52.2709C66.4664 52.6914 65.5131 52.6882 64.7202 52.2617L30.0051 33.6012C29.1384 33.1352 28.5934 32.2352 28.5822 31.2515C28.571 30.2674 29.0953 29.3553 29.9511 28.8699L64.6661 9.17614ZM36.8744 31.1569L66.0107 46.8188L80.5678 39.1267L95.1246 31.435L65.9891 14.6402L36.8744 31.1569Z" fill="black"/>
<path d="M28.9047 42.5641C29.6114 41.2493 31.2501 40.7566 32.5649 41.4633L66.0112 59.442L99.4529 41.7714C100.773 41.0742 102.408 41.5787 103.105 42.8985C103.802 44.2182 103.298 45.8533 101.978 46.5506L67.2629 64.8941C66.4669 65.3146 65.5137 65.3114 64.7207 64.8852L30.0056 46.2244C28.6909 45.5176 28.198 43.879 28.9047 42.5641Z" fill="black"/>
<path d="M32.5629 55.432C31.2482 54.7253 29.6095 55.2182 28.9027 56.5331C28.196 57.8477 28.6889 59.4866 30.0036 60.1933L64.7187 78.8538C65.5117 79.2801 66.4649 79.2836 67.2611 78.863L101.976 60.5195C103.296 59.8222 103.8 58.1871 103.103 56.8674C102.406 55.5477 100.771 55.0431 99.4509 55.7404L66.0092 73.4109L32.5629 55.432Z" fill="black"/>
</svg>
