<svg width="132" height="88" viewBox="0 0 132 88" fill="none" xmlns="http://www.w3.org/2000/svg">
<path fill-rule="evenodd" clip-rule="evenodd" d="M88.3779 61.2757C86.1859 51.7773 78.7093 44.3008 69.2109 42.1073C71.1235 35.802 76.9823 31.2109 83.9123 31.2109C92.3968 31.2109 99.2756 38.0897 99.2742 46.5726C99.2756 53.5044 94.6843 59.3631 88.3779 61.2757Z" fill="#0087FF"/>
<path fill-rule="evenodd" clip-rule="evenodd" d="M78.7911 61.9138C78.7911 70.3971 71.9137 77.2759 63.4292 77.2759C56.4985 77.2759 50.6403 72.6846 48.7275 66.3782C58.2259 64.1859 65.7025 56.7096 67.8945 47.2109C74.2012 49.1235 78.7911 54.9823 78.7911 61.9138Z" fill="#FF8100"/>
<path fill-rule="evenodd" clip-rule="evenodd" d="M32.7256 41.4319C32.7256 34.5007 37.3163 28.643 43.6227 26.7305C45.8149 36.2289 53.2914 43.7055 62.7903 45.8975C60.8773 52.2039 55.019 56.7953 48.0875 56.7953C39.6037 56.7953 32.7256 49.9165 32.7256 41.4319Z" fill="#00C8FF"/>
<path fill-rule="evenodd" clip-rule="evenodd" d="M53.208 26.0886C53.208 17.6039 60.0859 10.7266 68.5698 10.7266C75.5013 10.7266 81.3589 15.3176 83.2714 21.624C73.7739 23.8151 66.2965 31.2927 64.1047 40.7913C57.7985 38.8787 53.208 33.0198 53.208 26.0886Z" fill="#FFBB00"/>
</svg>
