<svg width="132" height="88" viewBox="0 0 132 88" fill="none" xmlns="http://www.w3.org/2000/svg">
<path d="M65.9987 55.4904C59.6456 55.4904 54.4943 50.3457 54.4943 43.9992C54.4943 37.6528 59.6456 32.5081 65.9987 32.5081C72.3528 32.5081 77.5041 37.6528 77.5041 43.9992C77.5041 50.3457 72.3528 55.4904 65.9987 55.4904ZM101.608 40.1784C102.412 41.3851 102.815 42.5915 102.815 43.9992C102.815 45.4069 102.412 46.8147 101.608 47.8201L90.5424 67.9294C89.5367 69.9402 86.7202 69.9402 85.5132 68.1305L79.6794 59.0813C79.0755 58.0759 79.2768 56.6682 80.082 55.6625C83.3006 51.8419 84.9101 46.8144 84.1047 41.1838C82.8977 33.5423 76.6615 27.1073 69.0168 25.9009C56.1413 23.6888 45.2782 35.1511 48.094 48.2221C49.3009 53.8527 53.7273 58.8803 59.1594 61.0921C63.3834 62.9022 67.4069 62.9022 71.029 61.8965C72.0346 61.4944 73.4432 62.0975 74.046 63.1032L79.4781 71.75C80.685 73.5601 79.2768 76.1742 77.0641 76.1742H49.9051C47.2896 76.1742 45.0769 74.7665 43.87 72.5547L30.3906 47.8201C29.5863 46.8147 29.1836 45.4069 29.1836 43.9992C29.1836 42.5915 29.5863 41.3851 30.3906 40.1784L43.87 15.4439C45.0769 13.2319 47.2896 11.8242 49.9051 11.8242H82.0933C84.7088 11.8242 86.9215 13.2319 88.1285 15.4439L101.608 40.1784Z" fill="#6666FF"/>
</svg>
