<svg width="132" height="88" viewBox="0 0 132 88" fill="none" xmlns="http://www.w3.org/2000/svg">
<path d="M29.9746 24.0453C29.9746 15.1708 37.1688 7.97656 46.0433 7.97656H85.9559C94.8304 7.97656 102.025 15.1708 102.025 24.0453V63.9579C102.025 72.8324 94.8304 80.0266 85.9559 80.0266H46.0433C37.1688 80.0266 29.9746 72.8324 29.9746 63.9579V24.0453Z" fill="#0085FE"/>
<path fill-rule="evenodd" clip-rule="evenodd" d="M61.5737 25.3855C59.6602 25.5669 58.4973 26.5307 57.8123 28.5031C57.0747 30.6272 57.1229 36.9368 57.8898 38.6108C58.9193 40.8578 60.7166 41.8872 63.0191 41.5482C66.0644 41.0999 67.2102 38.9513 67.2797 33.56C67.3217 30.3084 67.0982 29.0813 66.1201 27.1896C65.3804 25.7592 63.8861 25.1662 61.5737 25.3855ZM41.0327 25.5658C40.9376 25.6607 40.8599 29.2762 40.8599 33.6002V41.4617H42.9332V25.393H42.0694C41.5941 25.393 41.1276 25.4707 41.0327 25.5658ZM47.9109 25.9484C46.1527 27.0742 45.3394 30.268 45.6209 34.943C45.8645 38.9887 46.881 40.8498 49.1863 41.4705C50.336 41.7802 51.995 41.604 53.0602 41.0592C54.1085 40.523 55.0851 38.8205 55.2761 37.1962L55.4448 35.7599H54.5237C53.6252 35.7599 53.5953 35.7928 53.318 37.0858C53.1615 37.8149 52.794 38.7479 52.5014 39.1592C52.0367 39.8118 51.805 39.9066 50.6784 39.9066C49.6264 39.9066 49.2742 39.7841 48.7724 39.2424C48.0234 38.4343 47.8293 37.3823 47.7601 33.7552C47.6598 28.5051 48.3043 26.948 50.5783 26.948C51.4966 26.948 51.9141 27.0934 52.4047 27.5843C52.7546 27.9342 53.041 28.4494 53.041 28.7293C53.041 29.78 53.3243 30.0581 54.3949 30.0581C55.3461 30.0581 55.4207 30.0086 55.2776 29.4749C55.1919 29.1541 55.1198 28.6313 55.118 28.3133C55.1159 27.9873 54.6243 27.2233 53.9924 26.5639L52.8707 25.393L50.8175 25.3974C49.1767 25.4008 48.5933 25.5114 47.9109 25.9484ZM69.628 41.4617H71.7014V35.0601C71.7014 31.5393 71.7999 28.7695 71.9204 28.9048C72.0407 29.0401 72.4095 29.9091 72.7402 30.8356C73.0706 31.7621 73.4156 32.6369 73.5071 32.7794C73.5983 32.9219 74.4232 34.9339 75.3397 37.2501L77.0064 41.4617H79.7358V25.393H77.6624L77.6564 31.9371C77.6512 37.671 77.6069 38.385 77.2975 37.7037C76.6464 36.2702 76.1763 35.1213 75.7069 33.8161C75.4503 33.1034 75.1642 32.4036 75.0707 32.2611C74.9771 32.1185 74.691 31.4187 74.4344 30.706C73.9909 29.4734 73.6434 28.6189 72.8368 26.7793C72.6401 26.3301 72.4789 25.8344 72.4789 25.6778C72.4789 25.5055 71.9165 25.393 71.0535 25.393H69.628V41.4617ZM83.7418 25.8758C82.6468 26.5434 82.0673 27.5286 81.8903 29.0219C81.6516 31.0391 83.0164 33.1482 84.8435 33.5849C85.2416 33.68 85.6838 33.8425 85.8263 33.9457C85.9689 34.0488 86.3872 34.2051 86.7562 34.293C87.6732 34.5114 88.7353 35.3882 89.2212 36.3277C89.5579 36.979 89.5716 37.2447 89.3036 37.9248C88.6873 39.4881 88.0907 39.9066 86.4779 39.9066C84.6054 39.9066 84.0033 39.3943 83.755 37.5886C83.5785 36.306 83.556 36.2782 82.6919 36.2782C81.8172 36.2782 81.8091 36.2891 81.8091 37.4549C81.8091 38.9576 82.5574 40.4141 83.6635 41.0641C84.3112 41.4448 84.9895 41.5703 86.3457 41.5602C89.6346 41.5353 91.1026 40.3322 91.3319 37.4735C91.4273 36.2857 91.3503 35.6407 91.0416 35.0441C90.4855 33.9682 89.1665 32.9953 87.9616 32.7719C87.4254 32.6724 86.9229 32.4876 86.8449 32.3614C86.7669 32.2349 86.4784 32.1315 86.2039 32.1315C85.9295 32.1315 85.324 31.7909 84.8586 31.3749C84.0997 30.6967 84.0142 30.4779 84.0318 29.2627C84.0577 27.4881 84.6606 26.948 86.615 26.948C87.8414 26.948 88.0534 27.0315 88.53 27.7007C88.8247 28.1148 89.066 28.7563 89.066 29.1261C89.066 29.7201 89.1704 29.7989 89.9578 29.7989C90.4484 29.7989 90.9258 29.6758 91.0188 29.5252C91.3519 28.9864 90.5005 26.8964 89.64 26.1407C88.8491 25.4461 88.6376 25.393 86.6596 25.394C85.0431 25.3948 84.3405 25.5106 83.7418 25.8758ZM60.6345 27.3376C59.9728 27.801 59.6722 28.7016 59.2497 31.4835C58.983 33.2394 58.9994 33.9296 59.3555 35.9905C59.9212 39.2634 60.4181 39.9066 62.3805 39.9066C64.5915 39.9066 65.2221 38.4685 65.2221 33.4273C65.2221 29.7764 64.9595 28.4927 63.9897 27.4016C63.4797 26.8275 61.4187 26.7881 60.6345 27.3376ZM45.7841 62.4547H47.8303L47.7279 54.954L53.4297 54.8091L53.5116 54.0964C53.6042 53.2927 53.8397 53.344 50.1253 53.3577C48.5246 53.3637 47.851 53.2735 47.8352 53.0508C47.8142 52.7528 47.8223 49.6305 47.8464 48.6537C47.8562 48.2486 48.1766 48.2002 50.838 48.2002H53.8185V46.386H45.7841V62.4547ZM55.5399 46.5653C55.4412 46.6638 55.3717 50.2793 55.3852 54.5997L55.4098 62.4547H64.2183L64.0558 60.77L57.4469 60.6249V54.9387H60.3997C63.4786 54.9387 63.722 54.848 63.5624 53.7597C63.5035 53.3598 63.156 53.2963 60.7949 53.2553C59.3098 53.2294 57.9492 53.1893 57.7709 53.1662C57.5374 53.1361 57.4469 52.4369 57.4469 50.6623V48.2002H63.9262V46.386H59.8228C57.5656 46.386 55.6384 46.4666 55.5399 46.5653ZM65.9996 62.4547H74.5523V60.6405H68.073V54.9558L73.8787 54.8091L73.9163 54.0964C73.937 53.7045 73.8844 53.3751 73.7997 53.3644C73.7147 53.3538 72.4789 53.3118 71.0535 53.2711C69.628 53.2305 68.3742 53.1807 68.2674 53.1607C68.1606 53.1408 68.073 52.0165 68.073 50.6623V48.2002H74.034V46.386H65.9996V62.4547ZM76.578 47.0987C76.5329 47.4906 76.5288 51.1182 76.5687 55.16L76.6415 62.5088L79.6787 62.3948C83.021 62.2696 83.9901 61.9454 84.9182 60.6418C85.9971 59.1266 86.2654 57.8398 86.2693 54.1611C86.2724 51.2258 86.1897 50.4744 85.7569 49.496C84.715 47.1415 83.1231 46.386 79.2021 46.386H76.6602L76.578 47.0987ZM78.57 48.2352C78.493 48.4358 78.4614 51.338 78.4998 54.6849L78.5695 60.77L79.6062 60.8553C81.2001 60.9865 82.4778 60.4894 83.2926 59.4213C84.0113 58.479 84.0121 58.4725 84.0121 54.2506V50.0229L83.0734 49.0845C82.2308 48.2419 81.9597 48.1318 80.4223 48.0084C79.0953 47.9019 78.6783 47.9529 78.57 48.2352Z" fill="white"/>
</svg>
