<svg width="360" height="360" viewBox="0 0 360 360" fill="none" xmlns="http://www.w3.org/2000/svg">
<mask id="mask0_933_111520" style="mask-type:alpha" maskUnits="userSpaceOnUse" x="56" y="56" width="248" height="248">
<path d="M180 304C248.483 304 304 248.483 304 180C304 111.517 248.483 56 180 56C111.517 56 56 111.517 56 180C56 248.483 111.517 304 180 304Z" fill="#19191A"/>
</mask>
<g mask="url(#mask0_933_111520)">
<path d="M179.999 328.542C262.036 328.542 328.54 262.038 328.54 180.001C328.54 97.9634 262.036 31.459 179.999 31.459C97.9614 31.459 31.457 97.9634 31.457 180.001C31.457 262.038 97.9614 328.542 179.999 328.542Z" fill="#19191A"/>
<path d="M204.688 174.884L275.637 107.668L224.291 199.155L204.688 174.884Z" fill="#E4E4E3"/>
<path d="M59.9876 257.971L3.04102 304.647H45.0508L129.07 216.894L166.412 157.146L107.599 179.552L124.403 181.419L83.3264 211.292H101.064L43.1837 256.103L59.9876 257.971Z" fill="#DCDCDC"/>
<path fill-rule="evenodd" clip-rule="evenodd" d="M258.566 138.086L246.408 159.748L227.469 153.3L251.607 130.432L258.566 138.086Z" fill="white"/>
<path d="M151.475 304.647L192.551 226.229L168.279 154.346L35.7148 304.647H151.475Z" fill="white"/>
<path d="M131.871 195.421L186.017 238.365L194.42 224.362L141.207 185.152L131.871 195.421Z" fill="#C8C7C2" fill-opacity="0.57"/>
<path d="M191.618 161.812L196.286 115.135L173.881 145.942L191.618 161.812Z" fill="white"/>
<path d="M219.625 255.168L258.833 228.096L181.349 136.607L136.365 190.754L219.625 255.168Z" fill="#C4C4C4"/>
<path d="M219.625 255.168L258.833 228.096L181.349 136.607L136.365 190.754L219.625 255.168Z" fill="#C4C4C4"/>
<path d="M187.884 206.624C196.133 206.624 202.821 199.936 202.821 191.687C202.821 183.437 196.133 176.75 187.884 176.75C179.635 176.75 172.947 183.437 172.947 191.687C172.947 199.936 179.635 206.624 187.884 206.624Z" fill="white"/>
<path d="M187.884 201.023C193.04 201.023 197.22 196.843 197.22 191.687C197.22 186.531 193.04 182.352 187.884 182.352C182.728 182.352 178.549 186.531 178.549 191.687C178.549 196.843 182.728 201.023 187.884 201.023Z" fill="#D2C3CA"/>
<path d="M187.885 195.422C189.947 195.422 191.619 193.75 191.619 191.687C191.619 189.625 189.947 187.953 187.885 187.953C185.822 187.953 184.15 189.625 184.15 191.687C184.15 193.75 185.822 195.422 187.885 195.422Z" fill="#030000"/>
</g>
</svg>
