<svg width="132" height="88" viewBox="0 0 132 88" fill="none" xmlns="http://www.w3.org/2000/svg">
<mask id="mask0_2056_23282" style="mask-type:alpha" maskUnits="userSpaceOnUse" x="31" y="9" width="70" height="70">
<path d="M66.0004 78.0984C84.8333 78.0984 100.1 62.8313 100.1 43.9984C100.1 25.1655 84.8333 9.89844 66.0004 9.89844C47.1675 9.89844 31.9004 25.1655 31.9004 43.9984C31.9004 62.8313 47.1675 78.0984 66.0004 78.0984Z" fill="#19191A"/>
</mask>
<g mask="url(#mask0_2056_23282)">
<path d="M66.0013 84.8425C88.5616 84.8425 106.85 66.5538 106.85 43.9935C106.85 21.4332 88.5616 3.14453 66.0013 3.14453C43.441 3.14453 25.1523 21.4332 25.1523 43.9935C25.1523 66.5538 43.441 84.8425 66.0013 84.8425Z" fill="#19191A"/>
<path d="M72.791 42.5859L92.3023 24.1016L78.182 49.2606L72.791 42.5859Z" fill="#E4E4E3"/>
<path d="M32.9982 65.4336L17.3379 78.2698H28.8906L51.996 54.1377L62.265 37.707L46.0913 43.8684L50.7123 44.3819L39.4164 52.5971H44.2942L28.3771 64.92L32.9982 65.4336Z" fill="#DCDCDC"/>
<path fill-rule="evenodd" clip-rule="evenodd" d="M87.6063 32.4681L84.2631 38.4252L79.0547 36.6521L85.6928 30.3633L87.6063 32.4681Z" fill="white"/>
<path d="M58.1564 78.2704L69.4523 56.7054L62.7774 36.9375L26.3223 78.2704H58.1564Z" fill="white"/>
<path d="M52.7656 48.234L67.6559 60.0436L69.9665 56.1928L55.3329 45.4102L52.7656 48.234Z" fill="#C8C7C2" fill-opacity="0.57"/>
<path d="M69.1961 38.9926L70.4798 26.1562L64.3184 34.6282L69.1961 38.9926Z" fill="white"/>
<path d="M76.8983 64.6627L87.6806 57.2179L66.3724 32.0586L54.002 46.9488L76.8983 64.6627Z" fill="#C4C4C4"/>
<path d="M76.8983 64.6627L87.6806 57.2179L66.3724 32.0586L54.002 46.9488L76.8983 64.6627Z" fill="#C4C4C4"/>
<path d="M68.1701 51.3129C70.4387 51.3129 72.2778 49.4739 72.2778 47.2053C72.2778 44.9367 70.4387 43.0977 68.1701 43.0977C65.9015 43.0977 64.0625 44.9367 64.0625 47.2053C64.0625 49.4739 65.9015 51.3129 68.1701 51.3129Z" fill="white"/>
<path d="M68.1688 49.7752C69.5867 49.7752 70.7361 48.6257 70.7361 47.2079C70.7361 45.79 69.5867 44.6406 68.1688 44.6406C66.751 44.6406 65.6016 45.79 65.6016 47.2079C65.6016 48.6257 66.751 49.7752 68.1688 49.7752Z" fill="#D2C3CA"/>
<path d="M68.1695 48.2335C68.7366 48.2335 69.1964 47.7737 69.1964 47.2066C69.1964 46.6394 68.7366 46.1797 68.1695 46.1797C67.6023 46.1797 67.1426 46.6394 67.1426 47.2066C67.1426 47.7737 67.6023 48.2335 68.1695 48.2335Z" fill="#030000"/>
</g>
</svg>
