<svg width="132" height="88" viewBox="0 0 132 88" fill="none" xmlns="http://www.w3.org/2000/svg">
<path fill-rule="evenodd" clip-rule="evenodd" d="M66.0002 7.75391C45.9819 7.75391 29.7539 23.9819 29.7539 44.0002C29.7539 64.0185 45.9819 80.2465 66.0002 80.2465C86.0185 80.2465 102.246 64.0185 102.246 44.0002C102.246 23.9819 86.0185 7.75391 66.0002 7.75391ZM47.8768 55.3273C47.8768 51.5668 50.9124 48.5311 54.673 48.5311C58.4335 48.5311 61.4691 51.5668 61.4691 55.3273C61.4691 60.3338 57.4141 64.3889 52.4076 64.3889C48.9868 64.3889 45.4302 62.6219 43.346 59.8581C45.2489 59.8581 47.8768 58.295 47.8768 55.3273ZM82.6959 24.2688L85.7315 27.3044C86.615 28.1879 86.615 29.6151 85.7315 30.4986L65.4336 50.7965L59.2037 44.5667L79.5017 24.2688C80.3852 23.3853 81.8124 23.3853 82.6959 24.2688Z" fill="#2196F3"/>
</svg>
