<svg width="132" height="88" viewBox="0 0 132 88" fill="none" xmlns="http://www.w3.org/2000/svg">
<path d="M34.0726 73.4925C32.8247 73.4925 32.1758 72.9956 32.1758 71.9893V71.6291C32.4086 70.5235 32.9593 69.5092 33.7606 68.7096C34.7217 67.6232 35.2809 66.2424 35.3455 64.7963V49.789C35.301 48.3163 34.7403 46.9055 33.7606 45.8011C33.0091 45.0771 32.4625 44.1687 32.1758 43.1674V42.8444C32.1758 42.2108 32.7748 41.6021 33.9978 41.0306L45.9529 35.1917C46.347 34.963 46.7898 34.8304 47.2452 34.8045C47.7007 34.7786 48.1558 34.8602 48.5735 35.0426C48.8878 35.2246 49.1437 35.4917 49.3116 35.8128C49.4794 36.1338 49.5524 36.4957 49.5219 36.8564V64.7963C49.6002 66.2852 50.237 67.6906 51.3065 68.7344C52.2019 69.489 52.8423 70.4996 53.1409 71.6291V71.9396C53.1409 72.9459 52.4795 73.4428 51.1567 73.4428L34.0726 73.4925ZM42.546 30.9926C40.1519 31.0909 37.8084 30.2881 35.982 28.744C35.1811 28.0365 34.54 27.168 34.101 26.1958C33.662 25.2236 33.435 24.1698 33.435 23.1038C33.435 22.0379 33.662 20.9841 34.101 20.0119C34.54 19.0397 35.1811 18.1712 35.982 17.4637C37.8053 15.9142 40.151 15.1106 42.546 15.2151C44.9209 15.1191 47.2442 15.9225 49.0477 17.4637C49.845 18.1734 50.4829 19.0426 50.9196 20.0145C51.3564 20.9864 51.5821 22.0391 51.5821 23.1038C51.5821 24.1686 51.3564 25.2213 50.9196 26.1932C50.4829 27.1651 49.845 28.0343 49.0477 28.744C47.2337 30.2618 44.9134 31.0465 42.546 30.9429V30.9926Z" fill="#130D2D"/>
<path d="M96.6561 64.7963C96.7039 66.2423 97.2655 67.6246 98.2409 68.6972C99.0389 69.4845 99.5896 70.4859 99.8258 71.5794V71.8899C99.8258 72.8962 99.2143 73.3932 98.0038 73.3932H86.6727C85.2999 73.3932 84.6136 72.7347 84.6136 71.4179V70.7594C81.9785 73.138 78.5085 74.3877 74.9546 74.2379C72.5157 74.2771 70.0934 73.8326 67.8288 72.9304C65.5641 72.0282 63.5025 70.6863 61.7641 68.9829C58.0952 65.4961 56.2607 60.6759 56.2607 54.5222C56.1715 51.9109 56.6167 49.3088 57.5692 46.8742C58.5217 44.4395 59.9617 42.2231 61.8015 40.3597C63.5056 38.58 65.5594 37.1684 67.8352 36.2131C70.1109 35.2577 72.5599 34.7789 75.0295 34.8065C77.9094 34.7131 80.7515 35.4789 83.1909 37.0055V26.5202C83.2034 25.5156 82.8334 24.5436 82.1552 23.7995C81.5166 23.0843 80.815 22.4273 80.0587 21.8367C79.7561 21.644 79.5019 21.3848 79.3159 21.0789C79.1298 20.7731 79.0167 20.4288 78.9854 20.0726V19.8241C78.9854 18.8178 79.5969 18.1345 80.8074 17.7743L93.1743 14.0473C95.4955 13.3102 96.6561 13.9438 96.6561 15.9481V64.7963ZM78.0994 70.3743C78.7959 70.4006 79.4881 70.2556 80.115 69.9523C80.7418 69.6489 81.284 69.1965 81.6934 68.635C82.7415 67.2238 83.2623 65.4928 83.166 63.7403V48.5218C83.1922 46.0739 82.4265 43.6826 80.9821 41.7014C80.4715 40.8206 79.7468 40.0815 78.8747 39.5519C78.0026 39.0223 77.0108 38.7191 75.9904 38.6702C72.0719 38.6702 69.9921 41.9044 69.7508 48.3727C69.6755 51.2497 69.9013 54.1267 70.4247 56.9572C70.9655 60.1025 71.9398 63.1585 73.3199 66.0386C74.6676 68.8711 76.2608 70.3163 78.0994 70.3743Z" fill="#130D2D"/>
</svg>
