<svg width="132" height="88" viewBox="0 0 132 88" fill="none" xmlns="http://www.w3.org/2000/svg">
<path d="M30.5075 76.8459C29.1199 76.8459 28.3984 76.2921 28.3984 75.1715V74.7703C28.6578 73.5381 29.2697 72.4094 30.1597 71.5182C31.229 70.3082 31.8503 68.7703 31.9222 67.1605V50.446C31.8727 48.8059 31.2491 47.2346 30.1597 46.0046C29.3251 45.1981 28.7168 44.1865 28.3984 43.0714V42.7117C28.3984 42.0061 29.0645 41.328 30.4238 40.6917L43.7137 34.1886C44.1522 33.934 44.6439 33.7862 45.1506 33.7574C45.6566 33.7286 46.1622 33.8195 46.6267 34.0227C46.9757 34.2252 47.2608 34.5228 47.4473 34.8803C47.6335 35.2377 47.7149 35.6408 47.6805 36.0426V67.1605C47.7678 68.8185 48.4765 70.3836 49.6646 71.5463C50.6597 72.3871 51.3717 73.5122 51.7041 74.7703V75.1162C51.7041 76.2368 50.9685 76.7906 49.4985 76.7906L30.5075 76.8459ZM39.927 29.512C37.265 29.6214 34.6596 28.7272 32.6295 27.0075C31.7395 26.2197 31.0262 25.2524 30.5382 24.1697C30.0501 23.0869 29.7978 21.9132 29.7978 20.726C29.7978 19.5387 30.0501 18.365 30.5382 17.2824C31.0262 16.1996 31.7395 15.2324 32.6295 14.4444C34.6561 12.7186 37.2638 11.8237 39.927 11.94C42.5665 11.8331 45.1496 12.7279 47.1538 14.4444C48.0403 15.2348 48.7499 16.2028 49.2345 17.2853C49.7201 18.3676 49.9715 19.54 49.9715 20.726C49.9715 21.9119 49.7201 23.0843 49.2345 24.1668C48.7499 25.2492 48.0403 26.2171 47.1538 27.0075C45.1376 28.6981 42.5584 29.5722 39.927 29.4567V29.512Z" fill="#130D2D"/>
<path d="M100.077 67.1609C100.13 68.7706 100.755 70.3108 101.839 71.5055C102.726 72.3816 103.338 73.4973 103.601 74.7153V75.0612C103.601 76.1818 102.921 76.7356 101.575 76.7356H88.9789C87.4534 76.7356 86.6905 76.0019 86.6905 74.5355V73.8018C83.761 76.4509 79.9035 77.8433 75.9531 77.6764C73.2416 77.7197 70.5488 77.2248 68.0318 76.2193C65.5138 75.2152 63.2219 73.7209 61.2898 71.8229C57.2107 67.9405 55.1725 62.5716 55.1725 55.7179C55.0735 52.8095 55.5672 49.9116 56.6259 47.2C57.6859 44.4884 59.2856 42.02 61.331 39.9447C63.2255 37.9626 65.509 36.3904 68.0389 35.3264C70.5689 34.2624 73.2912 33.7292 76.0368 33.76C79.2376 33.6558 82.3971 34.5086 85.1084 36.2089V24.5313C85.1226 23.4123 84.711 22.3299 83.9579 21.5011C83.2482 20.7046 82.4678 19.9728 81.6271 19.3152C81.2901 19.1003 81.0082 18.8118 80.8006 18.4711C80.5943 18.1305 80.4682 17.747 80.4341 17.3503V17.0736C80.4341 15.9528 81.113 15.1918 82.4594 14.7906L96.2068 10.6397C98.7873 9.81874 100.077 10.5245 100.077 12.7566V67.1609ZM79.4484 73.3728C80.2229 73.4022 80.993 73.2411 81.6897 72.9024C82.3864 72.565 82.9887 72.0616 83.4438 71.436C84.6098 69.8641 85.1885 67.9357 85.0814 65.9843V49.0349C85.111 46.3087 84.2595 43.6456 82.654 41.439C82.0857 40.4581 81.2807 39.6348 80.3102 39.0451C79.3413 38.455 78.2389 38.1176 77.1049 38.0629C72.7489 38.0629 70.4369 41.6651 70.168 48.8689C70.0843 52.0732 70.3357 55.2776 70.9166 58.4298C71.5179 61.9327 72.6013 65.3363 74.1351 68.5435C75.6337 71.6983 77.4056 73.3081 79.4484 73.3728Z" fill="#130D2D"/>
</svg>
