<svg width="132" height="88" viewBox="0 0 132 88" fill="none" xmlns="http://www.w3.org/2000/svg">
<path d="M22.498 71.1872L28.4509 71.1299L34.3752 71.0441L34.4611 43.7695L34.5183 16.5235H22.498V71.1872Z" fill="#151F29"/>
<path d="M67.66 22.877L67.5741 29.2592L59.8468 29.4023C51.3181 29.574 50.3737 29.7457 46.8248 31.7777C44.7642 32.9512 41.1295 36.4428 39.6985 38.6751C36.3786 43.7694 35.3769 50.495 37.0941 56.5338C38.6682 62.1719 42.6464 66.98 47.8265 69.4699C50.6313 70.815 52.7205 71.273 56.2121 71.2443C60.5337 71.2443 63.5101 70.2427 66.458 67.8672L68.0034 66.6079V71.1871H79.4513V55.389C79.4513 46.7172 79.5372 39.7054 79.6517 39.7913C79.7375 39.9057 83.5153 47.0321 88.0086 55.6466L96.2225 71.3302L102.862 71.4161L109.502 71.4733V16.5234H96.337L96.2797 31.3771L96.1939 46.2307L80.7392 16.6665L74.2425 16.5807L67.7172 16.5234L67.66 22.877ZM68.1465 53.0422L67.2307 54.9025C66.1145 57.1634 64.3115 58.9092 62.0505 59.9682C60.6768 60.6264 60.0185 60.7409 57.8434 60.7409C55.6683 60.7409 55.0101 60.6264 53.6363 59.9682C51.3754 58.9092 49.5723 57.1634 48.4562 54.9025C47.5976 53.1567 47.5403 52.8132 47.5403 50.1516C47.5403 47.6045 47.6262 47.1179 48.3417 45.6583C49.4292 43.4546 51.3181 41.5657 53.4932 40.564L55.2676 39.7054H68.3182L68.1465 53.0422Z" fill="#151F29"/>
</svg>
