<svg width="132" height="88" viewBox="0 0 132 88" fill="none" xmlns="http://www.w3.org/2000/svg">
<path d="M52.6465 25.4375C56.2559 29.5625 55.7402 33.6875 52.6465 37.2969M69.1465 56.375V65.6562M40.2715 27.5C52.1309 29.5625 61.4121 20.7969 61.4121 6.875M67.5996 18.2188L84.6152 11M68.6309 24.9219L90.8027 20.7969C93.8965 29.5625 88.7402 35.75 82.5527 36.7812M64.5059 33.6875H72.7559C71.209 39.875 68.6309 42.9688 62.4434 44M74.3027 46.5781L69.6621 41.4219M45.4277 42.9688C47.3697 49.0471 47.1033 52.287 45.4277 57.9219M47.4902 50.7031C61.4121 58.9531 82.5527 56.8906 90.8027 48.125M83.584 54.3125V66.6875C83.584 74.6611 77.1201 81.125 69.1465 81.125C61.1729 81.125 54.709 74.6611 54.709 66.6875V54.3125" stroke="#D6394E" stroke-width="3.3" stroke-linecap="round" stroke-linejoin="round"/>
</svg>
