<svg width="132" height="88" viewBox="0 0 132 88" fill="none" xmlns="http://www.w3.org/2000/svg">
<path d="M56.4842 29.0014C57.23 29.0014 57.8337 28.3975 57.8337 27.6523C57.8337 26.907 57.23 26.3029 56.4842 26.3029C55.7387 26.3029 55.1348 26.907 55.1348 27.6523C55.1348 28.3975 55.7387 29.0014 56.4842 29.0014Z" fill="#2F2E41"/>
<path d="M70.2642 75.0857C63.6395 75.0857 55.9111 72.3461 50.1048 67.9291L51.2501 66.4169C56.6888 70.5878 63.9673 73.1637 70.2232 73.1637C80.5685 73.1637 90.2597 67.6843 95.6162 58.8519C99.7054 52.105 100.973 44.0904 99.0518 36.4028C97.1705 28.7154 92.3858 22.2139 85.5979 18.0839C78.8511 14.0357 70.8769 12.7681 63.1486 14.6899C55.4612 16.5709 49.0012 21.3551 44.8713 28.1429L43.317 27.2024C47.6521 19.9648 54.5617 14.8944 62.7809 12.9316C70.9589 10.928 79.4649 12.2364 86.6204 16.6118C93.8991 20.9462 98.9695 27.8566 100.932 36.0758C102.936 44.2538 101.627 52.7593 97.2524 59.915C91.5682 69.2796 81.2639 75.0857 70.2642 75.0857Z" fill="#0071F2"/>
<path d="M50.9226 70.956H37.0611V75.9855H50.9226V70.956Z" fill="#0071F2"/>
<path d="M55.2168 26.6705H31.3771V27.0388H55.2168V26.6705Z" fill="#2F2E41"/>
<path d="M31.4998 28.2658C32.2454 28.2658 32.8491 27.6616 32.8491 26.9164C32.8491 26.1711 32.2454 25.567 31.4998 25.567C30.7541 25.567 30.1504 26.1711 30.1504 26.9164C30.1504 27.6616 30.7541 28.2658 31.4998 28.2658Z" fill="#2F2E41"/>
<path d="M45.6894 24.9944H41.8451V28.8381H45.6894V24.9944Z" fill="#2F2E41"/>
<path d="M54.8488 58.1971L50.7997 69.6055H37.1833L32.8084 58.279C32.2766 57.0113 32.2356 55.6212 32.7264 54.3534L41.5592 30.9231H43.4403L43.4813 51.2866C42.2129 51.5729 41.3543 52.7997 41.6412 54.0671C41.927 55.3349 43.1535 56.1934 44.4208 55.9074C45.6894 55.6212 46.5479 54.3944 46.2611 53.1266C46.0571 52.1861 45.3613 51.4912 44.4208 51.2866V30.8412H46.3431L54.8488 54.3534C55.3796 55.6212 55.3796 56.9703 54.8488 58.1971Z" fill="#2F2E41"/>
</svg>
