<svg width="132" height="88" viewBox="0 0 132 88" fill="none" xmlns="http://www.w3.org/2000/svg">
<g clip-path="url(#clip0_2056_23922)">
<path d="M84.2617 9.625H47.7383C38.8392 9.625 31.625 16.8392 31.625 25.7383V62.2617C31.625 71.1608 38.8392 78.375 47.7383 78.375H84.2617C93.1608 78.375 100.375 71.1608 100.375 62.2617V25.7383C100.375 16.8392 93.1608 9.625 84.2617 9.625Z" fill="#330000"/>
<path d="M64.8537 50.5338H54.1974L52.0202 57.2656C51.963 57.5234 51.7339 57.6953 51.4761 57.6666H46.0905C45.7755 57.6666 45.6896 57.4947 45.7755 57.151L54.9996 30.5963C55.0855 30.31 55.1714 29.9947 55.2859 29.651C55.4005 29.0494 55.4577 28.4194 55.4577 27.7891C55.4293 27.6459 55.5437 27.5025 55.6871 27.474H63.1062C63.3355 27.474 63.4499 27.56 63.4787 27.7031L73.9343 57.2084C74.0202 57.5234 73.9343 57.6666 73.648 57.6666H67.6609C67.4605 57.6953 67.2599 57.5522 67.2027 57.3516L64.8537 50.5338ZM55.8589 44.7188H63.1349C62.963 44.1172 62.7339 43.401 62.4761 42.6563C62.2183 41.8828 61.9605 41.0522 61.7027 40.1928C61.4161 39.3047 61.1583 38.4453 60.8718 37.5572C60.5855 36.6694 60.3277 35.8385 60.0984 35.0078C59.8693 34.2059 59.6687 33.4609 59.4683 32.7734H59.4109C59.153 34.0053 58.838 35.2372 58.4371 36.4688C58.0074 37.8438 57.5777 39.276 57.1193 40.7084C56.7493 42.0604 56.3289 43.3982 55.8589 44.7188ZM80.3224 32.4869C79.3771 32.5156 78.4605 32.1431 77.773 31.4844C77.1142 30.7681 76.7705 29.8228 76.799 28.849C76.7705 27.875 77.1427 26.9584 77.8302 26.2994C78.5177 25.6406 79.4346 25.2969 80.3799 25.2969C81.4971 25.2969 82.3564 25.6406 82.9865 26.2994C83.6213 26.9939 83.9604 27.9085 83.9318 28.849C83.9605 29.8228 83.6168 30.7681 82.9293 31.4844C82.2705 32.1719 81.2964 32.5444 80.3224 32.4869ZM77.1142 57.3516V35.2944C77.1142 35.0078 77.2286 34.8931 77.4865 34.8931H83.1583C83.4161 34.8931 83.5308 35.0365 83.5308 35.2944V57.3516C83.5308 57.6666 83.4161 57.81 83.1583 57.81H77.5439C77.2574 57.81 77.1142 57.6381 77.1142 57.3516Z" fill="#FF9A00"/>
</g>
<defs>
<clipPath id="clip0_2056_23922">
<rect width="68.75" height="68.75" fill="white" transform="translate(31.625 9.625)"/>
</clipPath>
</defs>
</svg>
