<svg width="132" height="88" viewBox="0 0 132 88" fill="none" xmlns="http://www.w3.org/2000/svg">
<path d="M35.3911 35.1442V37.4498C34.6225 38.6026 33.0852 41.7154 33.0852 44.9433C33.0852 48.1713 38.8494 51.284 41.7311 52.4368C39.6181 53.5899 34.9293 56.2414 33.0852 57.6247C30.7793 59.3542 32.5085 62.2361 35.3911 61.6597C37.697 61.1986 42.4997 57.6247 44.6137 55.8955L45.7662 57.6247C42.6926 59.5464 36.8894 63.9654 38.2727 66.271C40.0019 69.1538 49.8013 66.8479 57.8714 64.5418C65.9416 62.2362 90.1512 59.3541 90.7279 53.5899C91.1885 48.9784 77.4701 50.8998 70.5533 52.4368C92.4571 46.0961 98.2214 42.0613 97.6455 39.179C97.1838 36.8734 90.1512 37.0654 86.6928 37.4498C93.6104 33.9914 100.527 29.9561 99.9506 27.6505C99.4897 25.8058 96.3002 25.3449 94.763 25.3449C95.3396 24.1921 95.9155 21.6557 93.6104 20.7334C90.7279 19.5806 77.4701 21.3099 61.3298 25.3449C48.418 28.5728 38.6576 33.2228 35.3911 35.1442Z" fill="#FFE100"/>
</svg>
