<svg width="360" height="360" viewBox="0 0 360 360" fill="none" xmlns="http://www.w3.org/2000/svg">
<path d="M131.443 112.5C144.568 127.5 142.693 142.5 131.443 155.625M191.443 225V258.75M86.4434 120C129.568 127.5 163.318 95.625 163.318 45M185.818 86.25L247.693 60M189.568 110.625L270.193 95.625C281.443 127.5 262.693 150 240.193 153.75M174.568 142.5H204.568C198.943 165 189.568 176.25 167.068 180M210.193 189.375L193.318 170.625M105.193 176.25C112.255 198.353 111.286 210.135 105.193 230.625M112.693 204.375C163.318 234.375 240.193 226.875 270.193 195M243.943 217.5V262.5C243.943 291.495 220.438 315 191.443 315C162.448 315 138.943 291.495 138.943 262.5V217.5" stroke="#D6394E" stroke-width="12" stroke-linecap="round" stroke-linejoin="round"/>
</svg>
