<svg width="132" height="88" viewBox="0 0 132 88" fill="none" xmlns="http://www.w3.org/2000/svg">
<path d="M34 26C34 18.268 40.268 12 48 12H84C91.732 12 98 18.268 98 26V62C98 69.732 91.732 76 84 76H48C40.268 76 34 69.732 34 62V26Z" fill="#E5E7EF"/>
<path d="M34 50.2117V62C34 69.732 40.268 76 48 76H84C91.732 76 98 69.732 98 62V33.137L34 50.2117Z" fill="#6F00ED"/>
<path d="M48 49.1326V25.1174H58.6027V47.9089C58.6027 57.105 73.3973 57.105 73.3973 47.9089V25.1174H84V49.1326C84 70.4045 48 70.4868 48 49.1326Z" fill="#6F00ED"/>
<path d="M48 46.4766V49.1326C48 70.4868 84 70.4045 84 49.1326V36.8721L73.3973 39.7008V47.9089C73.3973 57.105 58.6027 57.105 58.6027 47.9089V43.6479L48 46.4766Z" fill="#E5E7EF"/>
</svg>
