<svg width="132" height="88" viewBox="0 0 132 88" fill="none" xmlns="http://www.w3.org/2000/svg">
<path fill-rule="evenodd" clip-rule="evenodd" d="M46.9036 11.3557L91.6663 38.6913H91.646C93.4702 39.8059 94.5879 41.7854 94.6003 43.924C94.6125 46.0624 93.5179 48.0549 91.7067 49.1904L66.577 64.952C64.7068 66.2215 62.2928 66.3669 60.2838 65.3312C58.2748 64.2953 56.9923 62.2439 56.9404 59.9833C56.8883 57.7229 58.0754 55.6147 60.0345 54.4877L65.0633 51.3375L76.7183 44.0291L71.8773 41.0726L71.7994 41.0235L57.1577 32.082L49.8614 27.6259V48.1963C49.9098 50.434 48.7443 52.5227 46.815 53.6557C44.8857 54.7889 42.4947 54.7889 40.5654 53.6557C38.6361 52.5227 37.4706 50.434 37.519 48.1963V16.624C37.5173 14.3909 38.7217 12.3311 40.6682 11.2384C42.6148 10.1456 44.9995 10.1905 46.9036 11.3557ZM37.893 68.5951C38.8948 66.1746 41.2553 64.5966 43.8736 64.5966C47.4461 64.5997 50.3419 67.4955 50.3467 71.0699C50.3478 73.6895 48.7715 76.0519 46.3528 77.0553C43.934 78.0585 41.1494 77.5051 39.2975 75.6533C37.4456 73.8013 36.8913 71.0155 37.893 68.5951Z" fill="url(#paint0_linear_2056_24625)"/>
<defs>
<linearGradient id="paint0_linear_2056_24625" x1="37.4035" y1="77.5575" x2="94.6212" y2="77.5575" gradientUnits="userSpaceOnUse">
<stop stop-color="#FF3176"/>
<stop offset="1" stop-color="#FF7369"/>
</linearGradient>
</defs>
</svg>
