<svg width="132" height="88" viewBox="0 0 132 88" fill="none" xmlns="http://www.w3.org/2000/svg">
<rect x="28.875" y="6.875" width="74.25" height="74.25" rx="37.125" fill="#D50237"/>
<path fill-rule="evenodd" clip-rule="evenodd" d="M82.2324 20.1977C81.505 20.3294 80.7992 20.6206 80.1597 21.0527C79.9214 21.2137 78.9718 22.1329 76.5815 24.5162L73.3276 27.7605L72.3428 26.7876C71.2632 25.721 71.0922 25.5999 70.4837 25.471C70.1171 25.3933 69.9198 25.3928 69.5629 25.4685C68.3548 25.7246 67.5655 26.8936 67.7993 28.0803C67.9296 28.7418 68.0409 28.9031 69.1274 30.0044L70.0997 30.9899L60.4951 40.601C50.2571 50.846 50.6848 50.4017 50.2778 51.2159C50.016 51.7397 49.8329 52.4084 49.7768 53.0452C49.6874 54.0602 49.459 55.624 49.3756 55.7916C49.3401 55.863 48.9445 56.2912 48.4966 56.7432C47.5929 57.655 47.5066 57.7832 47.5066 58.2137C47.5066 58.6542 47.5833 58.764 48.6202 59.8062C49.1366 60.3253 49.637 60.7919 49.7321 60.8433C49.9623 60.9675 50.4813 60.975 50.7053 60.8574C50.7885 60.8137 51.2265 60.4125 51.6784 59.9659C52.1304 59.5192 52.5641 59.1215 52.6422 59.082C52.7963 59.0041 54.1367 58.7982 55.1881 58.691C55.5483 58.6542 56.0349 58.5756 56.2694 58.5163C56.8178 58.3775 57.6173 57.9837 58.1013 57.6138C58.3391 57.4322 61.8212 53.9797 67.9613 47.8377L77.4537 38.3423L78.4283 39.3048C79.4508 40.3146 79.6342 40.4527 80.1568 40.6062C80.2919 40.6459 80.5503 40.6752 80.7652 40.6752C81.7981 40.6752 82.6522 40.0324 82.9454 39.0345C82.9851 38.8994 83.0143 38.641 83.0143 38.4261C83.0143 38.2111 82.9851 37.9528 82.9454 37.8176C82.7706 37.2226 82.2216 36.6322 80.7652 35.0135L81.1292 34.6029C81.2052 34.632 86.9832 28.8171 87.2811 28.4117C87.9724 27.471 88.3051 26.4494 88.3017 25.2775C88.2999 24.6334 88.235 24.2417 88.0257 23.6124C87.4421 21.8575 85.86 20.5174 83.9926 20.1966C83.5253 20.1163 82.679 20.1168 82.2324 20.1977ZM71.8121 33.4055C71.7289 33.4224 71.5926 33.4689 71.5094 33.5089C71.4198 33.5519 63.486 40.8469 58.1013 46.2317L64.6107 46.902C65.1184 46.9031 64.8654 47.1341 70.1111 41.8799C73.6574 38.3278 74.9388 37.0182 74.993 36.8906C75.0831 36.6787 75.0944 36.2586 75.0162 36.0256C74.9395 35.7971 72.8441 33.6696 72.5474 33.5191C72.3244 33.406 72.0319 33.3607 71.8121 33.4055Z" fill="white"/>
<path d="M50.5638 64.4317C50.5638 66.3273 49.0271 67.864 47.1315 67.864C45.2359 67.864 43.6992 66.3273 43.6992 64.4317C43.6992 62.5361 47.1315 59.1689 47.1315 59.1689C47.1315 59.1689 50.5638 62.5361 50.5638 64.4317Z" fill="white"/>
</svg>
