<svg width="132" height="88" viewBox="0 0 132 88" fill="none" xmlns="http://www.w3.org/2000/svg">
<rect width="69.85" height="69.85" transform="translate(31.0752 9.07422)" fill="#F0C40A"/>
<path d="M48.4004 31.8984H56.3754V56.0984H48.4004V31.8984Z" fill="black" fill-opacity="0.991"/>
<path fill-rule="evenodd" clip-rule="evenodd" d="M70.3572 31.4276C65.0381 31.9774 61.2707 35.2735 60.2323 40.2857C59.8579 42.0931 59.8558 45.655 60.2282 47.6078C61.0544 51.9421 64.1335 55.2053 68.4251 56.2945C70.2448 56.7565 73.8011 56.767 75.5455 56.3154C79.9401 55.1782 83.1907 51.6875 83.4882 47.7864L83.6002 46.319H80.167H76.7338L76.6009 47.0445C76.3036 48.6692 75.1167 50.109 73.6897 50.576C73.2943 50.7054 72.4108 50.7761 71.7262 50.7327C69.9972 50.6236 69.0372 49.9494 68.1682 48.2341C67.405 46.7276 67.1446 44.8002 67.3935 42.4976C67.7616 39.0895 69.5228 37.2177 72.3493 37.2303C74.544 37.2401 76.0404 38.6163 76.6046 41.1437L76.7234 41.6757H80.1336H83.5438V40.8458C83.5438 36.823 80.0733 32.8264 75.6431 31.7472C74.1068 31.373 72.0735 31.2502 70.3572 31.4276Z" fill="black" fill-opacity="0.991"/>
</svg>
