<svg width="132" height="88" viewBox="0 0 132 88" fill="none" xmlns="http://www.w3.org/2000/svg">
<path d="M90.0636 67.6245C86.9036 70.7273 83.152 73.1883 79.0232 74.8675C74.8943 76.5466 70.469 77.4109 66 77.4109C61.531 77.4109 57.1057 76.5466 52.9768 74.8675C48.848 73.1883 45.0964 70.7273 41.9363 67.6245C38.7762 64.522 36.2694 60.8386 34.5592 56.7848C32.849 52.7311 31.9688 48.3863 31.9688 43.9984C31.9688 39.6105 32.849 35.2658 34.5592 31.212C36.2694 27.1583 38.7762 23.4749 41.9363 20.3722L66 43.9984L90.0636 67.6245Z" fill="#52BABA"/>
<path d="M41.9363 20.3722C48.3183 14.1062 56.9742 10.5859 66 10.5859C75.0258 10.5859 83.6817 14.1062 90.0636 20.3722L66 43.9984L41.9363 20.3722Z" fill="#208080"/>
<path d="M90.0636 67.6245C96.4458 61.3586 100.031 52.86 100.031 43.9984C100.031 35.1368 96.4458 26.6382 90.0636 20.3722L66 43.9984L90.0636 67.6245Z" fill="#03A8A8"/>
</svg>
