<svg width="132" height="88" viewBox="0 0 132 88" fill="none" xmlns="http://www.w3.org/2000/svg">
<path fill-rule="evenodd" clip-rule="evenodd" d="M58.1295 10.8633C43.9467 10.8633 32.4492 22.3607 32.4492 36.5435V52.283C32.4492 66.0083 43.5758 77.1349 57.3011 77.1349H74.6974C88.4227 77.1349 99.5492 66.0083 99.5492 52.283V10.8633H58.1295ZM64.7566 26.6028C58.809 26.6028 53.9875 31.4243 53.9875 37.3719V51.4546C53.9875 57.8598 59.18 63.0522 65.585 63.0522H67.2418C73.6469 63.0522 78.8393 57.8598 78.8393 51.4546V26.6028H64.7566Z" fill="url(#paint0_linear_2056_21816)"/>
<path d="M95.4077 10.8633C86.2575 10.8633 78.8398 18.281 78.8398 27.4312V76.7913C90.5936 74.8194 99.5497 64.5971 99.5497 52.283V10.8633H95.4077Z" fill="#FF476A"/>
<defs>
<linearGradient id="paint0_linear_2056_21816" x1="65.9992" y1="10.8633" x2="65.9992" y2="77.1349" gradientUnits="userSpaceOnUse">
<stop stop-color="#FFC9D3"/>
<stop offset="0.526042" stop-color="#FF5776"/>
<stop offset="1" stop-color="#FF4366"/>
</linearGradient>
</defs>
</svg>
