<svg width="132" height="88" viewBox="0 0 132 88" fill="none" xmlns="http://www.w3.org/2000/svg">
<path fill-rule="evenodd" clip-rule="evenodd" d="M46.913 14.3008L47.113 14.3161C47.196 14.3226 47.2793 14.3319 47.3605 14.3441C47.6415 14.3241 47.9248 14.314 48.2099 14.314C51.7264 14.314 54.8985 15.8731 57.0982 18.2919C59.312 15.8608 62.5493 14.314 66.0033 14.314C69.5158 14.314 72.686 15.87 74.8858 18.2846C77.0687 15.8623 80.2527 14.314 83.798 14.314C84.0504 14.314 84.3007 14.3217 84.5504 14.337C84.7552 14.3121 84.9651 14.307 85.1768 14.3234L85.2304 14.3274L85.2838 14.3346C87.9906 14.6996 90.4092 15.9461 92.2328 17.7809C94.0681 19.6036 95.3147 22.0217 95.6799 24.728L95.687 24.7816L95.6909 24.8355C95.7077 25.0472 95.7019 25.2571 95.6771 25.4619C95.6928 25.7108 95.7008 25.9616 95.7008 26.2143C95.7008 29.758 94.1514 32.9414 91.729 35.1241C94.1435 37.3235 95.7008 40.4923 95.7008 44.0041C95.7008 47.4578 94.1534 50.6948 91.7218 52.9075C94.1404 55.1075 95.7008 58.2788 95.7008 61.7944C95.7008 62.0972 95.689 62.398 95.6661 62.6961C95.6741 62.7561 95.6799 62.8166 95.6848 62.8776L95.7008 63.0773L95.673 63.2761C95.3603 65.5707 94.3929 67.6651 92.9753 69.3616C91.0923 71.654 88.3707 73.2534 85.2868 73.673L85.0877 73.7008L84.8878 73.6848C84.8047 73.6791 84.7225 73.6692 84.6403 73.6573C84.3601 73.6771 84.0771 73.687 83.7919 73.687C80.2755 73.687 77.1034 72.1281 74.9025 69.71C72.6899 72.141 69.4515 73.687 65.9975 73.687C62.4849 73.687 59.3158 72.1311 57.1161 69.7169C54.932 72.1388 51.7481 73.687 48.2039 73.687C47.9514 73.687 47.7001 73.6799 47.4515 73.6642C47.2466 73.689 47.0368 73.6939 46.8248 73.678L46.7703 73.6741L46.717 73.6672C44.0101 73.3018 41.5916 72.0546 39.768 70.2207C37.9335 68.3974 36.6871 65.9793 36.3218 63.2733L36.3148 63.2197L36.3099 63.1658C36.294 62.9541 36.299 62.7442 36.3237 62.5394C36.3089 62.2905 36.301 62.0397 36.301 61.787C36.301 58.2433 37.8494 55.0599 40.2729 52.8772C37.8573 50.6775 36.301 47.509 36.301 43.9972C36.301 40.5435 37.8484 37.3065 40.2798 35.0938C37.8603 32.8938 36.301 29.7225 36.301 26.2072C36.301 25.9041 36.3129 25.6033 36.3346 25.3052C36.3277 25.2452 36.3208 25.1847 36.3158 25.1237L36.301 24.924L36.3277 24.7252C36.6406 22.4303 37.6078 20.3357 39.0255 18.6396C40.9095 16.3477 43.631 14.7483 46.715 14.3279L46.913 14.3008ZM47.8662 20.5025C47.7644 20.5289 47.6613 20.5505 47.5585 20.5677L47.5307 20.5723L47.5029 20.576C46.4645 20.7177 45.4951 21.1438 44.6864 21.7835C43.5518 22.7086 42.7786 24.0413 42.5777 25.5136L42.5737 25.5411L42.5697 25.5686C42.548 25.6957 42.5202 25.8225 42.4846 25.9487C42.4767 26.0708 42.4727 26.1943 42.4727 26.3188C42.4727 29.2729 44.6052 31.6648 47.4683 32.0573C49.0523 32.2261 50.1949 33.5538 50.1949 35.1021V35.3817C50.1949 36.1044 49.9573 36.8318 49.4345 37.4148C48.9186 37.9896 48.2385 38.3003 47.5585 38.4136L47.5029 38.4227L47.4476 38.4287C44.7279 38.7172 42.4727 41.1402 42.4727 44.1089C42.4727 47.0629 44.6052 49.4551 47.4683 49.8473C49.0534 50.0161 50.1949 51.3438 50.1949 52.8921V53.1159C50.1949 53.8384 49.9573 54.5657 49.4345 55.1487C48.9186 55.7235 48.2385 56.0342 47.5585 56.1475L47.5029 56.1569L47.4476 56.1629C44.7359 56.4503 42.4727 58.9215 42.4727 61.8431C42.4727 63.4064 43.0905 64.8331 44.1083 65.8814C45.1566 66.8989 46.5841 67.5166 48.1475 67.5166C51.0699 67.5166 53.5422 65.2539 53.8293 62.5435L53.8351 62.4877L53.8441 62.4324C53.958 61.7523 54.2687 61.0722 54.844 60.5569C55.427 60.0344 56.1536 59.7962 56.8774 59.7962H57.1012C58.6495 59.7962 59.9772 60.9383 60.1463 62.5223C60.5385 65.3845 62.9312 67.5166 65.8856 67.5166C68.8556 67.5166 71.2791 65.2627 71.5673 62.5435L71.5731 62.4877L71.5822 62.4324C71.696 61.7523 72.0068 61.0722 72.581 60.5572C73.164 60.0344 73.8919 59.7962 74.6146 59.7962H74.8946C76.4431 59.7962 77.7716 60.9383 77.9399 62.5223C78.3321 65.3845 80.7248 67.5166 83.6792 67.5166C83.8334 67.5166 83.985 67.5105 84.1346 67.4987C84.2363 67.472 84.3394 67.4511 84.4423 67.4333L84.4701 67.4294L84.4978 67.4256C85.5373 67.2839 86.5064 66.8574 87.3144 66.2178C88.449 65.2924 89.2232 63.9603 89.4242 62.4877L89.4269 62.4602L89.4319 62.4327C89.4528 62.3056 89.4814 62.1788 89.516 62.0526C89.524 61.9305 89.5281 61.807 89.5281 61.6825C89.5281 58.7284 87.3955 56.3365 84.5325 55.944C82.9485 55.7752 81.8059 54.4475 81.8059 52.8992V52.6196C81.8059 51.8969 82.0446 51.1695 82.5673 50.5865C83.0821 50.0117 83.7622 49.701 84.4434 49.5877L84.4978 49.5783L84.5542 49.5726C87.2737 49.2841 89.5281 46.8611 89.5281 43.8924C89.5281 40.9384 87.3955 38.5464 84.5325 38.154C82.9485 37.9852 81.8059 36.6575 81.8059 35.1092V34.8854C81.8059 34.1629 82.0446 33.4353 82.5673 32.8526C83.083 32.2778 83.7622 31.9671 84.4434 31.8538L84.4978 31.8444L84.5542 31.8386C87.2649 31.551 89.5281 29.0798 89.5281 26.1582C89.5281 24.5946 88.9102 23.1682 87.8924 22.1196C86.8441 21.1025 85.4174 20.4848 83.8532 20.4848C80.9308 20.4848 78.4597 22.7471 78.1717 25.4578L78.1657 25.5136L78.1569 25.5689C78.0439 26.2493 77.7331 26.9291 77.1578 27.4444C76.5748 27.9669 75.8472 28.2048 75.1245 28.2048H74.9006C73.3521 28.2048 72.0236 27.063 71.8553 25.479C71.4623 22.6165 69.0703 20.4848 66.1152 20.4848C63.1463 20.4848 60.7227 22.7386 60.4345 25.4578L60.4285 25.5136L60.4186 25.5686C60.3058 26.249 59.9951 26.9291 59.4198 27.4444C58.8368 27.9669 58.1091 28.2048 57.3864 28.2048H57.107C55.5577 28.2048 54.2302 27.063 54.0608 25.479C53.6687 22.6165 51.2759 20.4848 48.3216 20.4848C48.1681 20.4848 48.0169 20.4907 47.8662 20.5025ZM60.2503 40.9838C60.2503 39.7108 59.2179 38.6787 57.9447 38.6787C56.6714 38.6787 55.6388 39.7108 55.6388 40.9838C55.6388 46.7203 60.2879 51.3683 66.0261 51.3683C71.7631 51.3683 76.4123 46.7203 76.4123 40.9838C76.4123 39.7108 75.3808 38.6787 74.1067 38.6787C72.8334 38.6787 71.8019 39.7108 71.8019 40.9838C71.8019 44.174 69.2169 46.7582 66.0261 46.7582C62.8344 46.7582 60.2503 44.174 60.2503 40.9838Z" fill="black"/>
</svg>
