<svg width="132" height="88" viewBox="0 0 132 88" fill="none" xmlns="http://www.w3.org/2000/svg">
<path fill-rule="evenodd" clip-rule="evenodd" d="M30.4214 39.3324C27.8439 41.9098 27.8439 46.0887 30.4214 48.6662L61.3324 79.5772C63.9098 82.1546 68.0887 82.1546 70.6662 79.5772L101.577 48.6662C104.155 46.0887 104.155 41.9098 101.577 39.3324L70.6662 8.42138C68.0887 5.84392 63.9098 5.84392 61.3324 8.42138L30.4214 39.3324ZM59.8947 20.7211L65.0472 15.5712L65.5136 16.0395L70.1997 20.7211L69.7311 21.1873L65.0472 25.8689L60.3633 21.1873L59.8947 20.7211ZM65.7904 72.212L37.5714 43.5125L54.9165 25.8711L55.3807 26.3416L60.0058 31.0472L47.7457 43.5147L65.7882 61.862L84.0617 43.2794L77.5841 36.6938L66.4813 47.985L61.3942 42.8089L77.5841 26.3416L94.2404 43.2772L65.7904 72.212Z" fill="#01D9CB"/>
</svg>
