<svg width="132" height="88" viewBox="0 0 132 88" fill="none" xmlns="http://www.w3.org/2000/svg">
<path fill-rule="evenodd" clip-rule="evenodd" d="M30.9375 43.9991V78.9242L65.9558 78.88L100.974 78.836L101.018 43.9551L101.062 9.07422H65.9999H30.9375V43.9991ZM31.0232 44.0861C31.0232 63.2946 31.0436 71.1268 31.0687 61.4907C31.0937 51.8549 31.0937 36.1388 31.0687 26.5662C31.0436 16.9937 31.0232 24.8776 31.0232 44.0861ZM41.6048 43.9115V59.8895L48.9057 59.8868C57.0616 59.884 57.539 59.8325 59.6391 58.7305C60.44 58.3103 61.2268 57.6908 62.0243 56.8522C64.6202 54.1234 65.9088 49.8509 65.9111 43.964C65.9137 37.6684 64.6413 33.2848 62.0691 30.7274C60.7154 29.3816 59.6015 28.7477 57.7657 28.2789C56.5227 27.9614 55.8134 27.9335 49.0089 27.9335H41.6048V43.9115ZM73.8689 28.0865C72.0724 28.5799 70.91 29.5348 70.1776 31.1183L69.6719 32.2117V44.0861V55.9604L70.1236 56.9219C71.027 58.8449 72.6157 59.8577 74.9714 60.0119C76.1674 60.0903 84.7706 59.7218 88.6019 59.4281L90.0446 59.3176V57.246V55.1746H83.219C75.8766 55.1746 75.4602 55.1291 74.9798 54.2727C74.8188 53.9855 74.7318 52.7945 74.6859 50.2415L74.6205 46.6181L75.3813 46.601C75.7998 46.5916 78.8178 46.4933 82.0879 46.3827L88.0336 46.1816L88.0825 44.069L88.1313 41.9564L84.5851 41.8413C82.6345 41.7779 79.5949 41.6754 77.8304 41.6134L74.6224 41.5006L74.6827 37.6895L74.7432 33.8783L75.228 33.3943L75.7127 32.9102L82.8787 32.861L90.0446 32.8117V30.7297V28.6479L89.4763 28.5553C87.5481 28.2419 74.7074 27.8559 73.8689 28.0865ZM46.851 43.8034V55.1746L51.0042 55.1736C55.4953 55.1725 56.0916 55.0884 57.3785 54.2731C59.9397 52.6505 61.2526 47.4315 60.6783 41.1563C60.2403 36.3678 59.169 34.1097 56.8187 33.0213C55.8823 32.5875 55.7385 32.5739 51.3539 32.5041L46.851 32.4323V43.8034Z" fill="#458AC6"/>
</svg>
