<svg width="132" height="88" viewBox="0 0 132 88" fill="none" xmlns="http://www.w3.org/2000/svg">
<path d="M100.1 53.2459V68.851C100.1 71.3036 99.1261 73.6557 97.3919 75.3899C95.6576 77.1241 93.3055 78.0984 90.8529 78.0984H75.2478C72.7953 78.0984 70.4431 77.1241 68.7089 75.3899C66.9747 73.6557 66.0004 71.3036 66.0004 68.851V61.6677C66.0004 56.1456 67.3677 49.9168 62.2973 46.0717C58.9616 43.5443 54.6227 43.9984 50.6802 43.9984H41.1478C38.6953 43.9984 36.3431 43.0242 34.6089 41.2899C32.8747 39.5557 31.9004 37.2036 31.9004 34.751V19.1459C31.9004 16.6933 32.8747 14.3412 34.6089 12.607C36.3431 10.8727 38.6953 9.89844 41.1478 9.89844H56.7529C59.2055 9.89844 61.5576 10.8727 63.2919 12.607C65.0261 14.3412 66.0004 16.6933 66.0004 19.1459V26.0088C66.0004 30.2668 65.0278 34.9954 67.4271 38.8265C70.8718 44.3287 76.7431 43.9984 82.4444 43.9984H90.8529C93.3055 43.9984 95.6576 44.9727 97.3919 46.707C99.1261 48.4412 100.1 50.7933 100.1 53.2459Z" fill="#0280FF"/>
<path d="M52.4702 50.9336H45.4305C41.7884 50.9336 38.8359 53.8861 38.8359 57.5282V64.5678C38.8359 68.2099 41.7884 71.1624 45.4305 71.1624H52.4702C56.1123 71.1624 59.0648 68.2099 59.0648 64.5678V57.5282C59.0648 53.8861 56.1123 50.9336 52.4702 50.9336Z" fill="#1EC0FF"/>
<path d="M86.5698 16.832H79.5301C75.888 16.832 72.9355 19.7845 72.9355 23.4266V30.4663C72.9355 34.1083 75.888 37.0608 79.5301 37.0608H86.5698C90.2119 37.0608 93.1644 34.1083 93.1644 30.4663V23.4266C93.1644 19.7845 90.2119 16.832 86.5698 16.832Z" fill="#1EC0FF"/>
</svg>
