<svg width="132" height="88" viewBox="0 0 132 88" fill="none" xmlns="http://www.w3.org/2000/svg">
<path fill-rule="evenodd" clip-rule="evenodd" d="M36.8835 35.0856C36.8835 22.9435 46.7267 13.1003 58.8688 13.1003C71.0109 13.1003 80.8541 22.9435 80.8541 35.0856C80.8541 37.1187 80.5786 39.0847 80.0639 40.9495L79.7869 41.9529L80.5248 42.6873L93.2632 55.3635C93.961 56.0579 95.0897 56.0551 95.7842 55.3573C96.4786 54.6595 96.4758 53.5308 95.778 52.8363L83.7598 40.8767C84.1914 39.0145 84.4193 37.0757 84.4193 35.0856C84.4193 20.9745 72.9799 9.53516 58.8688 9.53516C44.7577 9.53516 33.3184 20.9745 33.3184 35.0856C33.3184 49.1967 44.7577 60.6361 58.8688 60.6361C61.6861 60.6361 64.3999 60.1794 66.9383 59.3351L84.9208 77.9189C85.6054 78.6264 86.7339 78.645 87.4414 77.9604C88.1489 77.2758 88.1674 76.1473 87.4829 75.4398L68.7006 56.0294L67.8796 55.1809L66.778 55.6057C64.3261 56.5515 61.6602 57.0709 58.8688 57.0709C46.7267 57.0709 36.8835 47.2277 36.8835 35.0856ZM81.5025 49.6528C80.7966 48.9664 79.6681 48.9824 78.9818 49.6883C78.2955 50.3941 78.3114 51.5227 79.0173 52.2089L93.278 66.0735C93.9838 66.7598 95.1124 66.7439 95.7987 66.038C96.485 65.3322 96.4691 64.2036 95.7632 63.5174L81.5025 49.6528ZM79.1565 56.0215C78.4675 55.3182 77.339 55.3066 76.6357 55.9955C75.9324 56.6845 75.9207 57.8131 76.6097 58.5164L95.624 77.9268C96.3129 78.6301 97.4415 78.6417 98.1448 77.9528C98.8481 77.2638 98.8597 76.1352 98.1708 75.4319L79.1565 56.0215ZM44.8062 35.0856C44.8062 27.319 51.1022 21.023 58.8688 21.023C66.6354 21.023 72.9315 27.319 72.9315 35.0856C72.9315 42.8522 66.6354 49.1483 58.8688 49.1483C51.1022 49.1483 44.8062 42.8522 44.8062 35.0856ZM58.8688 17.4578C49.1333 17.4578 41.241 25.3501 41.241 35.0856C41.241 44.8212 49.1333 52.7134 58.8688 52.7134C68.6044 52.7134 76.4966 44.8212 76.4966 35.0856C76.4966 25.3501 68.6044 17.4578 58.8688 17.4578Z" fill="#404040"/>
</svg>
