<svg width="132" height="88" viewBox="0 0 132 88" fill="none" xmlns="http://www.w3.org/2000/svg">
<path fill-rule="evenodd" clip-rule="evenodd" d="M84.0968 40.8065C92.3275 40.8065 99 34.1341 99 25.9032C99 17.6724 92.3275 11 84.0968 11C75.866 11 69.1936 17.6724 69.1936 25.9032C69.1936 34.1341 75.866 40.8065 84.0968 40.8065ZM33 48.6129H99V77H33V48.6129ZM50.7774 25.9032L62.3239 37.4426L59.3078 40.4587L47.7685 28.9123L36.2291 40.4587L33.2129 37.4426L44.7594 25.9032L33.2129 14.3639L36.2291 11.3477L47.7685 22.8942L59.3078 11.3477L62.3239 14.3639L50.7774 25.9032Z" fill="black"/>
</svg>
