<svg width="132" height="88" viewBox="0 0 132 88" fill="none" xmlns="http://www.w3.org/2000/svg">
<path d="M91.9584 47.5656C91.9584 48.1982 91.7098 48.8047 91.2673 49.2519C90.8247 49.6991 90.2245 49.9505 89.5985 49.9505C88.9725 49.9505 88.3723 49.6991 87.9297 49.2519C87.4872 48.8047 87.2386 48.1982 87.2386 47.5656V26.2611C87.2386 25.6286 87.4872 25.022 87.9297 24.5748C88.3723 24.1276 88.9725 23.8764 89.5985 23.8764C90.2245 23.8764 90.8247 24.1276 91.2673 24.5748C91.7098 25.022 91.9584 25.6286 91.9584 26.2611V47.5656ZM91.1391 62.3273C90.8272 62.6425 82.051 70.0331 65.9614 70.0331C49.8719 70.0331 41.1543 62.682 40.7837 62.3665C40.5502 62.1676 40.3579 61.924 40.2177 61.6498C40.0775 61.3754 39.9923 61.076 39.967 60.7682C39.9416 60.4608 39.9766 60.1512 40.0699 59.8571C40.1632 59.5633 40.313 59.2907 40.5107 59.0555C40.918 58.5794 41.4951 58.2853 42.1162 58.2371C42.7372 58.1891 43.3519 58.3914 43.8261 58.7994C43.9626 58.898 51.8026 65.3227 65.9419 65.3227C80.0812 65.3227 87.9797 58.8585 88.0579 58.7994C88.5374 58.3948 89.1541 58.1954 89.7766 58.2433C90.3995 58.2912 90.9793 58.5825 91.3927 59.0555C91.7905 59.5247 91.9892 60.1337 91.9454 60.7499C91.9016 61.366 91.6189 61.9402 91.1586 62.3469L91.1391 62.3273ZM39.9451 26.2611C39.9804 25.6266 40.2628 25.032 40.7305 24.6074C41.1983 24.1827 41.8134 23.9624 42.4414 23.9946C43.0236 24.028 43.573 24.2781 43.9835 24.6966C44.3941 25.1151 44.6367 25.6725 44.6647 26.2611V47.5264C44.6647 48.1587 44.4161 48.7652 43.9736 49.2124C43.531 49.6599 42.9308 49.911 42.3049 49.911C41.6791 49.911 41.0788 49.6599 40.6363 49.2124C40.1937 48.7652 39.9451 48.1587 39.9451 47.5264V26.2611ZM51.7831 21.5311C51.8184 20.8966 52.1008 20.3021 52.5686 19.8774C53.0363 19.4527 53.6514 19.2324 54.2795 19.2646C54.8617 19.2981 55.411 19.5481 55.8215 19.9666C56.2321 20.3851 56.4748 20.9424 56.5027 21.5311V53.0642C56.5027 53.6969 56.2541 54.3034 55.8116 54.7505C55.369 55.1977 54.7688 55.4488 54.1429 55.4488C53.5171 55.4488 52.9169 55.1977 52.4743 54.7505C52.0318 54.3034 51.7831 53.6969 51.7831 53.0642V21.5311ZM63.6797 20.3486C63.6797 19.7161 63.9283 19.1096 64.3709 18.6624C64.8134 18.2151 65.4137 17.9639 66.0393 17.9639C66.6653 17.9639 67.2655 18.2151 67.7081 18.6624C68.1507 19.1096 68.3993 19.7161 68.3993 20.3486V54.641C68.3993 55.2733 68.1507 55.8798 67.7081 56.3273C67.2655 56.7745 66.6653 57.0256 66.0393 57.0256C65.4137 57.0256 64.8134 56.7745 64.3709 56.3273C63.9283 55.8798 63.6797 55.2733 63.6797 54.641V20.3486ZM75.3813 21.5311C75.3813 20.8986 75.6299 20.2921 76.0724 19.8448C76.515 19.3976 77.1152 19.1464 77.7409 19.1464C78.3668 19.1464 78.9671 19.3976 79.4096 19.8448C79.8522 20.2921 80.1008 20.8986 80.1008 21.5311V53.0642C80.1008 53.6969 79.8522 54.3034 79.4096 54.7505C78.9671 55.1977 78.3668 55.4488 77.7409 55.4488C77.1152 55.4488 76.515 55.1977 76.0724 54.7505C75.6299 54.3034 75.3813 53.6969 75.3813 53.0642V21.5311ZM92.6018 8.52363H39.399C38.2398 8.51585 37.0904 8.73921 36.0167 9.18093C34.9429 9.62266 33.966 10.2741 33.1417 11.0979C32.3175 11.9217 31.6621 12.9017 31.2132 13.9818C30.7642 15.0619 30.5305 16.2208 30.5254 17.3924V70.6048C30.5305 71.7761 30.7642 72.9352 31.2132 74.0154C31.6621 75.0952 32.3175 76.0754 33.1417 76.8991C33.966 77.7228 34.9429 78.3744 36.0167 78.816C37.0904 79.2579 38.2398 79.481 39.399 79.4732H92.6018C93.7594 79.481 94.9074 79.2585 95.9797 78.8179C97.0522 78.3776 98.0283 77.7278 98.8523 76.906C99.6763 76.0844 100.332 75.1067 100.782 74.0288C101.232 72.9511 101.468 71.7941 101.475 70.6244V17.3924C101.47 16.2225 101.237 15.0652 100.79 13.9863C100.342 12.9075 99.6884 11.9284 98.8659 11.1049C98.0438 10.2813 97.0693 9.62951 95.9977 9.18662C94.9263 8.74373 93.779 8.51845 92.6213 8.52363" fill="black"/>
</svg>
