<svg width="132" height="88" viewBox="0 0 132 88" fill="none" xmlns="http://www.w3.org/2000/svg">
<path d="M65.9927 12.0156C40.4048 12.0156 34.0078 18.4126 34.0078 44.0005C34.0078 69.5884 40.4048 75.9852 65.9927 75.9852C91.5806 75.9852 97.9774 69.5884 97.9774 44.0005C97.9774 18.4126 91.5806 12.0156 65.9927 12.0156ZM69.3991 57.8979C67.4059 59.9156 64.7742 61.1781 61.9535 61.4699C59.1328 61.7616 56.2984 61.0642 53.9345 59.497C51.9273 58.1421 50.3589 56.2297 49.4245 53.9956C48.5049 51.7585 48.2662 49.2997 48.7367 46.927C49.2006 44.5508 50.365 42.3675 52.0793 40.6581C53.3537 39.3728 54.897 38.3858 56.5981 37.7673C58.2993 37.1489 60.1154 36.9146 61.9177 37.0812C63.7206 37.2479 65.463 37.8113 67.0223 38.7309C68.5815 39.6508 69.9169 40.9043 70.9344 42.4014C72.5006 44.7622 73.1971 47.5942 72.9053 50.4124C72.6136 53.2306 71.3511 55.8596 69.335 57.85L69.3991 57.8979ZM82.9926 61.0004H76.9954V33.0137H49.0087V27.0165H82.9926V61.0004Z" fill="black"/>
<path d="M91.6911 37.7424C90.7745 37.7432 89.87 37.9456 89.0415 38.3355C88.2118 38.7258 87.4792 39.2934 86.8945 39.9987C86.3096 40.7041 85.888 41.5297 85.6581 42.4168C85.4282 43.3037 85.3972 44.2304 85.566 45.1308C85.791 46.3587 86.3778 47.4911 87.2512 48.3827C88.1249 49.2742 89.2444 49.8839 90.4679 50.1333C91.6911 50.3827 92.9605 50.2604 94.113 49.7821C95.2664 49.3039 96.2489 48.4916 96.9367 47.4499C97.6245 46.423 97.9922 45.2152 97.9922 43.9794C97.9732 42.3258 97.3135 40.7437 96.153 39.5656C95.5675 38.9815 94.8706 38.5198 94.105 38.2068C93.3394 37.8939 92.5188 37.736 91.6911 37.7424Z" fill="black"/>
</svg>
