<svg width="132" height="88" viewBox="0 0 132 88" fill="none" xmlns="http://www.w3.org/2000/svg">
<path fill-rule="evenodd" clip-rule="evenodd" d="M38.1562 15.5391H46.7979V18.4836H85.2033V15.5391H93.8438V24.3723H90.9628V63.6313H93.8438V72.4641H85.2033V69.5191H66V66.5755H85.2033V63.6313H88.083V24.3723H85.2033V21.428H46.7979V24.3723H43.9169V44.0018H41.0371V24.3723H38.1562V15.5391ZM82.8058 41.1938L68.7228 26.7978L68.7217 26.7984L68.494 26.5655L41.0371 54.6328V69.5191L55.8957 69.5202L58.7766 66.5763L83.2015 41.6077L82.8008 41.1982L82.8058 41.1938ZM54.7024 66.5763L72.4947 48.3889L61.8563 37.5146L43.9169 55.8524V66.5763H54.7024Z" fill="#0EF275"/>
</svg>
