<svg width="132" height="88" viewBox="0 0 132 88" fill="none" xmlns="http://www.w3.org/2000/svg">
<path d="M66.0004 78.0984C84.8333 78.0984 100.1 62.8313 100.1 43.9984C100.1 25.1655 84.8333 9.89844 66.0004 9.89844C47.1675 9.89844 31.9004 25.1655 31.9004 43.9984C31.9004 62.8313 47.1675 78.0984 66.0004 78.0984Z" fill="#EBEEF4"/>
<path d="M66.0002 67.2153C78.8226 67.2153 89.2172 56.8207 89.2172 43.9983C89.2172 31.1759 78.8226 20.7812 66.0002 20.7812C53.1778 20.7812 42.7832 31.1759 42.7832 43.9983C42.7832 56.8207 53.1778 67.2153 66.0002 67.2153Z" fill="#B6C1D6"/>
<path d="M66.001 57.0566C73.2136 57.0566 79.0606 51.2097 79.0606 43.9971C79.0606 36.7845 73.2136 30.9375 66.001 30.9375C58.7884 30.9375 52.9414 36.7845 52.9414 43.9971C52.9414 51.2097 58.7884 57.0566 66.001 57.0566Z" fill="#67799E"/>
<path d="M82.6872 33.1165C85.0914 33.1165 87.0404 31.1675 87.0404 28.7633C87.0404 26.3591 85.0914 24.4102 82.6872 24.4102C80.283 24.4102 78.334 26.3591 78.334 28.7633C78.334 31.1675 80.283 33.1165 82.6872 33.1165Z" fill="#67799E"/>
</svg>
