<svg width="132" height="88" viewBox="0 0 132 88" fill="none" xmlns="http://www.w3.org/2000/svg">
<path d="M57.3652 15.1354C50.5607 16.6347 47.072 24.5638 49.7534 32.4062C52.8961 41.5174 66.1015 41.6615 69.4749 32.6081C73.1655 22.7761 66.4475 13.0883 57.3652 15.1354ZM63.3048 19.0278C68.2928 22.1706 68.1198 32.6657 63.0164 35.3472C59.0375 37.452 54.2801 35.3472 52.9538 30.907C50.4166 22.5166 56.9616 15.0201 63.3048 19.0278Z" fill="black"/>
<path d="M81.5847 15.0202C73.2232 16.4906 72.5601 25.6306 80.6332 27.8796C87.3224 29.7537 88.3603 30.388 88.3603 32.5216C88.3603 36.9619 79.8547 37.5673 78.0382 33.2424C77.6346 32.2621 74.982 31.7143 74.4918 32.5216C73.598 33.9633 76.7696 37.9422 79.4799 38.7495C85.8519 40.6525 91.878 37.5385 91.878 32.3486C91.878 28.5427 90.2633 27.0722 84.1796 25.3135C79.278 23.9006 78.5573 23.3817 78.5573 21.421C78.5573 17.4998 86.1691 16.7213 87.8125 20.4695C88.4469 21.9112 91.5608 22.4013 91.5608 21.0462C91.5608 17.3556 86.2844 14.1552 81.5847 15.0202Z" fill="black"/>
<path d="M40.5557 15.6832C40.4692 15.8851 40.4115 21.1615 40.4692 27.4181L40.5557 38.7494L41.3918 38.7206C41.8531 38.6917 42.5451 38.6629 42.9776 38.6629L43.7273 38.6053L43.6408 27.0433L43.5831 15.4526L42.1415 15.3661C41.1611 15.3084 40.6422 15.3949 40.5557 15.6832Z" fill="black"/>
<path d="M40.2097 42.3823C40.1232 42.613 40.0944 43.2474 40.1521 43.824L40.2386 44.8331L65.8996 44.8908L91.5607 44.9773V41.9498H65.9573C44.2751 41.9498 40.3539 42.0075 40.2097 42.3823Z" fill="black"/>
<path d="M78.9897 49.3022C75.9911 50.5133 74.5495 52.2721 74.3765 54.9534C74.0593 59.336 75.4721 60.5759 83.4588 62.8536C85.9673 63.5745 87.1782 64.4106 87.4954 65.6792C88.7063 70.4944 79.3934 71.8495 77.1733 67.1786C76.4524 65.6504 73.4827 65.7081 73.6557 67.2362C74.4918 74.848 89.6002 75.2226 90.8688 67.6398C91.6473 62.9402 89.9173 61.0372 83.1416 59.1631C78.4131 57.8368 77.2886 56.9141 77.7787 54.7228C78.5572 51.2052 85.5347 50.9169 86.9764 54.348C87.6396 55.9338 90.667 56.3086 90.667 54.8093C90.667 50.7727 83.5453 47.4281 78.9897 49.3022Z" fill="black"/>
<path d="M40.5558 72.6855H43.5833L43.6409 60.9506L43.7274 49.2156H40.3828L40.5558 72.6855Z" fill="black"/>
<path d="M49.9263 49.5905C49.8398 49.7923 49.811 55.0687 49.8398 61.3253L49.9263 72.6855H52.9537L53.1267 64.0068L53.2708 55.3281L59.3257 64.0068L65.4094 72.6855H68.408V49.3598H65.3806L65.2076 66.8613L60.825 60.5469C58.4031 57.0581 55.6351 53.0792 54.626 51.7241L52.8384 49.2156H51.4544C50.6182 49.2156 50.0128 49.3598 49.9263 49.5905Z" fill="black"/>
</svg>
