<svg width="132" height="88" viewBox="0 0 132 88" fill="none" xmlns="http://www.w3.org/2000/svg">
<path d="M98.7287 7.69922H33.2697C31.2978 7.69922 29.6992 9.29778 29.6992 11.2697V76.7287C29.6992 78.7007 31.2978 80.2992 33.2697 80.2992H98.7287C100.701 80.2992 102.299 78.7007 102.299 76.7287V11.2697C102.299 9.29778 100.701 7.69922 98.7287 7.69922Z" fill="#32CB8F"/>
<path d="M48.0311 56.9405V31.0579H51.5063V56.9405H48.0311Z" fill="white"/>
<path d="M64.2238 40.191V36.6787C64.2238 34.6075 63.2254 33.7945 61.4506 33.7945C59.6758 33.7945 58.678 34.6075 58.678 36.6787V38.4534C58.678 40.0062 59.233 40.5606 60.7114 41.4114L64.0762 43.26C66.295 44.517 67.7001 45.774 67.7001 48.2514V51.8382C67.7001 55.7201 65.4442 57.2357 61.525 57.2357H61.4506C57.5314 57.2357 55.276 55.7573 55.276 51.8382V47.4378H58.678V51.2466C58.678 53.2805 59.6758 54.2045 61.4878 54.2045C63.2998 54.2045 64.2982 53.2805 64.2982 51.2466V49.2126C64.2982 47.6598 63.7438 46.9944 62.227 46.1442L58.8994 44.295C56.5331 42.927 55.276 41.8176 55.276 39.3403V36.087C55.276 32.3521 57.8644 30.7627 61.4146 30.7627H61.4878C65.0374 30.7627 67.6258 32.3521 67.6258 36.087V40.191L64.2238 40.191Z" fill="white"/>
<path d="M77.3853 30.7627H77.6817C81.6009 30.7627 83.9672 32.4266 83.9672 36.2347V51.7638C83.9672 55.5725 81.6008 57.2357 77.6817 57.2357H77.3853C73.4661 57.2357 71.0998 55.5725 71.0998 51.7638V36.2347C71.0998 32.3893 73.4661 30.7627 77.3853 30.7627ZM77.5341 54.1673C79.4565 54.1673 80.4921 53.3909 80.4921 51.0989V36.9001C80.4921 34.6075 79.4565 33.8311 77.5341 33.8311C75.6105 33.8311 74.5761 34.6075 74.5761 36.9001V51.0989C74.5761 53.3909 75.6105 54.1673 77.5341 54.1673Z" fill="white"/>
</svg>
