<svg width="132" height="88" viewBox="0 0 132 88" fill="none" xmlns="http://www.w3.org/2000/svg">
<path d="M87.0142 7.97656H44.985C36.695 7.97656 29.9746 14.697 29.9746 22.987V65.0162C29.9746 73.3062 36.695 80.0266 44.985 80.0266H87.0142C95.3042 80.0266 102.025 73.3062 102.025 65.0162V22.987C102.025 14.697 95.3042 7.97656 87.0142 7.97656Z" fill="black"/>
<path fill-rule="evenodd" clip-rule="evenodd" d="M54.005 65.6961H46.1892V36.5192H54.005V65.6961ZM61.5079 54.4463C63.9162 57.0905 67.5832 59.0782 71.4317 59.0782C75.041 59.0782 77.568 56.8499 77.568 53.7831C77.568 48.3717 69.7507 47.7094 64.096 44.4029C60.7886 42.4756 58.138 39.5888 58.138 34.8333C58.138 27.3163 65.0609 22.987 72.0353 22.987C76.3044 22.987 80.2748 24.0104 84.2469 26.9574L80.0372 32.9708C78.3482 31.4071 75.5227 30.2078 72.7546 30.2078C69.6913 30.2078 66.2603 31.5268 66.2603 34.7747C66.2603 41.5739 85.6903 39.4653 85.6903 53.6651C85.6903 61.1203 79.0097 66.2934 71.4317 66.2934C65.7787 66.2934 60.5462 63.9525 56.2145 59.9773L61.5079 54.4463ZM44.985 28.0998C44.985 25.2748 47.276 22.987 50.0986 22.987C52.9229 22.987 55.2107 25.2748 55.2107 28.0998C55.2107 30.92 52.9229 33.2125 50.0986 33.2125C47.276 33.2125 44.985 30.92 44.985 28.0998Z" fill="white"/>
</svg>
