<svg width="132" height="88" viewBox="0 0 132 88" fill="none" xmlns="http://www.w3.org/2000/svg">
<path d="M95.1893 57.3708C99.5472 61.63 99.5472 68.5363 95.1893 72.7964C90.8284 77.0553 83.7609 77.0553 79.4029 72.7964L50.9883 45.0271L66.7067 29.6016L95.1893 57.3708Z" fill="black"/>
<path d="M52.5593 72.8114C48.2116 77.0533 41.1549 77.0533 36.8069 72.8114C32.455 68.5695 32.455 61.6926 36.8069 57.451L55.1152 39.6016L70.8677 54.9625L52.5593 72.8114Z" fill="black"/>
<path d="M69.1393 31.6557L51.6595 14.9738C47.7883 11.2827 41.6143 11.0022 37.3953 14.3261C32.6356 18.0772 32.2228 24.8993 36.4998 29.148L50.4052 42.9629C54.982 46.7351 57.8816 52.3143 57.8816 58.5395C57.8816 63.616 56.7742 68.2621 53.5776 71.8506L52.2353 73.1928L69.1393 56.8705C76.3118 50.0268 76.3118 38.4999 69.1393 31.6557Z" fill="url(#paint0_linear_2056_25690)"/>
<path d="M98.4566 22.8054C98.4566 28.7685 93.3699 33.6027 87.096 33.6027H76.1172C75.9063 33.6027 75.7363 33.4347 75.7363 33.2271V22.8054C75.7363 16.842 80.823 12.0078 87.096 12.0078C93.3699 12.0078 98.4566 16.842 98.4566 22.8054Z" fill="black"/>
<defs>
<linearGradient id="paint0_linear_2056_25690" x1="33.5421" y1="12.0079" x2="54.3033" y2="70.7849" gradientUnits="userSpaceOnUse">
<stop/>
<stop offset="1" stop-color="#8999BD"/>
</linearGradient>
</defs>
</svg>
