<svg width="132" height="88" viewBox="0 0 132 88" fill="none" xmlns="http://www.w3.org/2000/svg">
<path fill-rule="evenodd" clip-rule="evenodd" d="M40.5818 25.0217C36.7603 26.7724 34.4301 25.0217 32.1642 22.627C31.1641 21.5705 31.0453 20.011 31.2264 18.5963C31.5243 16.266 32.8725 14.1611 34.9492 13.0584C35.4523 12.7927 35.9856 12.5895 36.5028 12.5251C38.5755 12.2655 41.0345 12.2011 43.6264 15.6321C46.2163 19.0652 44.4012 23.2729 40.5818 25.0217ZM45.027 14.6924C41.7912 10.4061 38.7183 10.4866 36.1305 10.8086C35.4825 10.8891 34.8225 11.1446 34.1906 11.4767C31.5947 12.8531 29.9124 15.4812 29.5421 18.3951C29.3147 20.1619 29.4616 22.1078 30.7093 23.4259C33.5406 26.4202 36.4545 28.6056 41.2257 26.4202C45.9969 24.2368 48.2628 18.9786 45.027 14.6924Z" fill="#1A1A1A"/>
<path fill-rule="evenodd" clip-rule="evenodd" d="M45.374 16.0445L49.5456 12.541L48.3221 11.2592L44.1767 14.7687L45.374 16.0445ZM42.6252 12.9918L45.1406 8.71155L43.3094 7.85028L41.12 11.8347L42.6252 12.9918ZM38.4174 11.4765L38.4114 6.9568H36.4152L36.6969 11.4765H38.4174ZM34.1211 12.4163C34.0205 11.9393 31.1549 8.02535 31.1549 8.02535L29.6336 9.06975L32.9097 13.2554L34.1211 12.4163ZM30.8511 15.147L26.6534 12.9938L25.9551 15.147L30.2413 16.7609L30.8511 15.147ZM38.9024 18.0508C38.9507 19.9484 37.3932 21.1437 35.5056 21.1498C33.614 21.1498 32.2959 19.9383 32.0605 18.0628C31.7687 15.7567 33.5858 14.6399 35.4754 14.6358C37.365 14.6338 38.842 15.5977 38.9024 18.0508ZM60.3981 15.4508C60.38 14.5393 60.9454 13.7806 61.6638 13.7585C66.2117 13.6136 81.8857 14.5131 83.3849 14.7345C85.1558 14.9961 88.5304 16.1572 89.5829 18.4613C90.6394 20.7654 89.7238 24.3977 84.9183 24.5586C80.1109 24.7196 61.5914 26.2289 61.5914 26.2289C61.5914 26.2289 60.6194 26.7118 60.5369 22.9609L60.3981 15.4508Z" fill="#1A1A1A"/>
<path fill-rule="evenodd" clip-rule="evenodd" d="M30.2202 54.9593C30.2202 54.9593 29.8479 42.8209 30.0994 41.2573C30.6971 37.5245 31.6771 35.7838 37.2633 35.7738C42.8475 35.7637 44.7451 36.7759 45.0249 41.5552C45.3066 46.3324 45.0691 54.0799 45.0691 54.0799C45.0691 54.0799 43.4955 66.8703 46.8601 66.8099C50.0074 66.7535 88.2899 68.1119 89.447 65.2604C90.6061 62.4049 92.3468 52.9973 85.1326 51.651C80.0374 50.6992 74.3727 51.9629 68.6697 51.4719C64.6692 51.1258 61.4092 50.4577 60.3608 46.582C59.4432 43.1892 60.1797 38.5729 62.6267 37.4098C67.9211 34.8944 91.2018 35.3129 96.4881 38.432C101.775 41.5552 104.594 47.3869 104.238 59.4267C103.883 71.4644 108.908 81.029 77.5743 81.0833C46.2383 81.1377 41.0304 83.0655 35.8788 77.9481C30.7232 72.8288 30.2202 54.9593 30.2202 54.9593Z" fill="#1A1A1A"/>
<path fill-rule="evenodd" clip-rule="evenodd" d="M70.7476 50.3731C70.7476 50.3731 68.2081 50.8963 66.4493 54.9994C65.417 57.4042 64.6241 60.473 65.7309 60.7346C66.8377 60.9941 66.6304 58.3882 67.6225 56.237C69.0311 53.1742 70.0312 52.1983 72.1824 51.0251C74.3316 49.8519 70.7476 50.3731 70.7476 50.3731ZM76.6779 50.363C76.6779 50.363 74.1384 50.8842 72.3776 54.9873C71.3473 57.3941 70.5544 60.4609 71.6612 60.7225C72.768 60.9841 72.5587 58.3781 73.5528 56.2269C74.9614 53.1642 75.9616 52.1882 78.1127 51.015C80.2619 49.8418 76.6779 50.363 76.6779 50.363ZM82.3467 50.353C82.3467 50.353 79.8051 50.8762 78.0463 54.9793C77.016 57.384 76.2211 60.4528 77.3299 60.7124C78.4367 60.974 78.2274 58.3681 79.2195 56.2169C80.6302 53.1541 81.6283 52.1781 83.7795 51.0049C85.9306 49.8318 82.3467 50.353 82.3467 50.353Z" fill="#1A1A1A"/>
<path fill-rule="evenodd" clip-rule="evenodd" d="M63.7963 25.8449C63.7963 25.8449 79.9553 23.738 84.5575 25.6698C89.1577 27.6016 96.6858 30.2056 96.8528 28.9418C97.0178 27.6761 90.4154 25.7724 92.0333 24.8226C93.9832 23.6776 102.787 28.2134 103.62 24.9735C104.029 23.3939 93.2729 22.0013 93.3554 21.1582C93.4359 20.315 106.043 22.6513 106.043 19.3269C106.043 17.4273 93.6391 18.7997 93.5345 17.3589C93.3695 15.0648 104.469 15.1896 103.359 12.2536C102.558 10.1326 91.0714 15.5961 89.4494 13.7447C88.729 12.9237 91.4517 7.38578 89.3066 6.5406C88.0227 6.03752 86.5799 13.294 84.4609 13.946C83.4507 14.2619 64.4543 16.407 64.4543 16.407L63.7963 25.8449Z" fill="#1A1A1A"/>
</svg>
