<svg width="132" height="88" viewBox="0 0 132 88" fill="none" xmlns="http://www.w3.org/2000/svg">
<path d="M32.7246 24.3143C32.7246 16.8273 38.7941 10.7578 46.2811 10.7578H85.7181C93.2051 10.7578 99.2746 16.8273 99.2746 24.3143V35.406H32.7246V24.3143Z" fill="url(#paint0_linear_2056_21895)"/>
<path fill-rule="evenodd" clip-rule="evenodd" d="M46.2803 14.7567C41.0022 14.7567 36.7235 19.0354 36.7235 24.3135V63.7505C36.7235 69.0286 41.0022 73.3073 46.2803 73.3073H85.7173C90.9954 73.3073 95.2741 69.0286 95.2741 63.7505V24.3135C95.2741 19.0354 90.9954 14.7567 85.7173 14.7567H46.2803ZM32.791 24.3135C32.791 16.8636 38.8304 10.8242 46.2803 10.8242H85.7173C93.1672 10.8242 99.2066 16.8636 99.2066 24.3135V63.7505C99.2066 71.2004 93.1672 77.2398 85.7173 77.2398H46.2803C38.8304 77.2398 32.791 71.2004 32.791 63.7505V24.3135Z" fill="#4B4B4B"/>
<path fill-rule="evenodd" clip-rule="evenodd" d="M54.9081 48.9628C54.9081 51.0048 53.5287 52.6601 51.8271 52.6601C50.1255 52.6601 48.7461 51.0048 48.7461 48.9628C48.7461 46.9209 50.1255 45.2656 51.8271 45.2656C53.5287 45.2656 54.9081 46.9209 54.9081 48.9628ZM83.2535 48.9628C83.2535 51.0048 81.8741 52.6601 80.1725 52.6601C78.4709 52.6601 77.0915 51.0048 77.0915 48.9628C77.0915 46.9209 78.4709 45.2656 80.1725 45.2656C81.8741 45.2656 83.2535 46.9209 83.2535 48.9628ZM58.1946 57.4522C57.7783 56.9137 57.0042 56.8146 56.4658 57.2309C55.9273 57.6473 55.8282 58.4213 56.2446 58.9598C58.4964 61.8724 62.029 63.7517 65.9998 63.7517C69.9706 63.7517 73.5032 61.8724 75.755 58.9598C76.1713 58.4213 76.0723 57.6473 75.5338 57.2309C74.9954 56.8146 74.2213 56.9137 73.805 57.4522C71.9998 59.7871 69.1752 61.2869 65.9998 61.2869C62.8244 61.2869 59.9998 59.7871 58.1946 57.4522Z" fill="#222222"/>
<defs>
<linearGradient id="paint0_linear_2056_21895" x1="65.9996" y1="10.7578" x2="65.9996" y2="35.406" gradientUnits="userSpaceOnUse">
<stop stop-color="#AEC9FE"/>
<stop offset="1" stop-color="#82ACFF"/>
</linearGradient>
</defs>
</svg>
