<svg width="132" height="88" viewBox="0 0 132 88" fill="none" xmlns="http://www.w3.org/2000/svg">
<path d="M73.4278 69.8453C71.3332 68.2612 69.1756 66.6215 63.5682 65.1232C57.9605 63.6251 55.252 63.9647 52.6616 64.2972C51.9196 64.3889 51.1594 64.4758 50.3499 64.5302C47.8168 66.3086 46.0823 69.2281 45.7105 72.4153C45.4936 74.2325 46.6774 75.9601 48.4683 76.4385C48.6492 76.4868 48.835 76.5173 49.0387 76.5523C50.9383 76.7699 52.5106 76.4747 53.7536 76.0335C54.0335 78.022 54.9426 80.4108 57.4216 82.3685C57.8206 82.6877 58.2668 82.9036 58.7732 83.0389C59.2796 83.1742 59.7742 83.2096 60.2798 83.1321C63.4035 82.6908 65.3935 81.0572 66.633 79.4745C67.4883 80.4763 68.7066 81.4979 70.456 82.2745C70.6274 82.3589 70.8083 82.4073 71.0073 82.4605C72.7981 82.9388 74.6894 82.0329 75.4127 80.351C76.671 77.4009 76.6509 74.0124 75.3489 71.2094C74.6389 70.749 74.0423 70.2998 73.4278 69.8453Z" fill="#73E5BF"/>
<path d="M78.1265 72.2977C74.5268 71.3359 72.6742 69.9323 70.8664 68.5792C68.7716 66.9951 66.6143 65.3554 61.0066 63.8571C55.3992 62.359 52.6904 62.6986 50.1001 63.0311C47.8741 63.3062 45.5662 63.5982 41.9483 62.6317C37.8422 61.5346 34.9673 59.6065 33.3915 56.885C31.8157 54.1636 31.5785 50.7171 32.6788 46.6226C35.5434 35.9628 42.2834 24.7338 50.7059 16.6222C59.6781 7.98087 69.0823 4.15259 76.517 6.13895C83.9517 8.12531 90.1762 16.1293 93.6132 28.086C96.8351 39.3281 97.0461 52.3949 94.1815 63.0548C93.0814 67.1493 91.1477 70.0156 88.4184 71.5869C85.689 73.1582 82.2326 73.3947 78.1265 72.2977Z" fill="#FF4070"/>
<path d="M59.4099 38.2658C58.5054 38.0242 56.6965 37.541 55.4847 42.0501C54.2731 46.5594 56.0819 47.0428 56.9865 47.2844C57.8908 47.526 59.6998 48.0093 60.9114 43.5C62.1232 38.9907 60.3144 38.5076 59.4099 38.2658Z" fill="#1E2624"/>
<path d="M75.6892 42.616C74.7847 42.3742 72.9759 41.891 71.7641 46.4003C70.5525 50.9094 72.3613 51.3928 73.2658 51.6344C74.1701 51.8759 75.9792 52.3593 77.1908 47.85C78.4026 43.3409 76.5938 42.8576 75.6892 42.616Z" fill="#1E2624"/>
<path d="M71.4278 26.0115C70.5235 25.7699 68.7144 25.2865 67.5028 29.7958C66.291 34.3051 68.1 34.7883 69.0043 35.0301C69.9089 35.2717 71.7177 35.7551 72.9295 31.2458C74.1411 26.7365 72.3323 26.2533 71.4278 26.0115Z" fill="#1E2624"/>
<path d="M99.9842 45.6112C99.8554 39.5258 98.9327 33.3638 97.341 27.8156C95.6892 22.0579 93.3127 16.9766 90.4573 13.1012C87.126 8.61545 83.2449 5.74203 78.9217 4.58695C74.5984 3.43185 69.7965 3.98544 64.6803 6.21424C60.2641 8.14676 55.658 11.3625 51.3404 15.5252C47.1799 19.5365 43.2909 24.4131 40.1276 29.6188C36.8062 35.053 34.2779 40.8536 32.79 46.391C31.5587 50.9724 31.8606 54.9001 33.706 58.061C35.5287 61.235 38.789 63.4593 43.3836 64.6871C44.1434 64.8899 44.8404 65.0375 45.5062 65.1575C44.2773 66.917 43.4654 69.0004 43.2106 71.1749C42.8828 73.9097 44.6651 76.5126 47.3423 77.2278C47.6136 77.3003 47.9079 77.3595 48.1936 77.3781C49.4952 77.5131 50.6907 77.4652 51.7247 77.2968C52.4242 79.4556 53.7417 81.3348 55.6158 82.802C56.2256 83.2743 56.8922 83.607 57.6338 83.8053C58.3756 84.0035 59.1379 84.0525 59.8847 83.9426C62.2434 83.6062 64.3267 82.6357 66.0151 81.1149C66.8443 81.781 67.8375 82.4137 69.0322 82.9456C69.2939 83.0542 69.5786 83.1495 69.8499 83.222C72.5271 83.9372 75.3756 82.5719 76.4631 80.0399C77.3329 78.0299 77.6745 75.8205 77.4925 73.6842C78.1291 73.9122 78.8068 74.1319 79.5666 74.335C84.1612 75.5625 88.1002 75.2617 91.2702 73.4216C94.4485 71.6222 96.6795 68.3711 97.9106 63.7897C99.3985 58.2524 100.118 51.9684 99.9842 45.6112ZM73.0172 78.5781C72.6482 79.446 71.7008 79.8694 70.8144 79.6326C70.7239 79.6084 70.6335 79.5842 70.5479 79.5421C66.5933 77.8089 65.9299 74.5772 65.9299 74.5772C65.9299 74.5772 64.6068 79.5013 59.3427 80.26C59.0833 80.2875 58.8337 80.2788 58.5984 80.2158C58.3633 80.1531 58.1246 80.0314 57.9317 79.8831C53.7534 76.6016 55.0765 71.6775 55.0765 71.6775C55.0765 71.6775 52.8817 74.1455 48.5878 73.6748C48.4926 73.6688 48.402 73.6446 48.3116 73.6204C47.4253 73.3836 46.817 72.5444 46.9327 71.6089C47.2592 68.9508 48.6553 66.714 50.3868 65.3207C51.0419 65.2638 51.6609 65.1973 52.2435 65.121C54.7749 64.7919 57.1782 64.5061 62.4422 65.9125C67.7059 67.3189 69.621 68.778 71.6713 70.3115C72.1558 70.673 72.6354 71.0526 73.1791 71.4105C73.9799 73.4803 74.0853 76.1182 73.0172 78.5781ZM80.5312 70.7455C73.2956 68.8124 74.265 65.2051 63.4115 62.3052C52.5581 59.4055 51.5887 63.0128 44.353 61.0795C37.1174 59.1464 34.4689 54.5725 36.4077 47.3575C42.2241 25.7132 63.481 4.32793 77.9523 8.19432C92.4236 12.0607 100.109 41.1788 94.2927 62.8232C92.354 70.0381 87.7667 72.6789 80.5312 70.7455Z" fill="#1E2624"/>
</svg>
