<svg width="132" height="88" viewBox="0 0 132 88" fill="none" xmlns="http://www.w3.org/2000/svg">
<path fill-rule="evenodd" clip-rule="evenodd" d="M54.3212 16.315C50.7585 32.1028 45.1233 44.2533 34.3768 59.3182C31.8437 62.8692 26.4341 69.9483 23.3106 73.7993L22.2754 75.0758H66.0004C90.0491 75.0758 109.725 75.0369 109.725 74.9892C109.725 74.9416 108.513 73.3768 107.032 71.5119C97.2405 59.1855 92.3289 51.9347 86.9049 41.8C83.0505 34.598 79.1189 23.2767 77.4432 14.5544L77.1304 12.9258H66.1082H55.086L54.3212 16.315ZM58.8213 17.6437C58.7724 17.7231 58.4104 19.0698 58.0167 20.6364C56.707 25.8503 54.4088 32.8634 52.9288 36.1618C52.7345 36.5952 52.605 36.9796 52.6414 37.016C52.694 37.0685 55.2598 35.0801 56.6068 33.9429C56.8374 33.7481 57.2174 33.9867 59.1953 35.5676L61.5136 37.4205L63.8043 35.5501L66.095 33.6797L67.5486 34.8848C68.3481 35.5477 69.3754 36.3917 69.8315 36.7604L70.661 37.4308L72.9548 35.5542L75.2487 33.6775L77.1389 35.2107C78.1785 36.054 79.1733 36.869 79.3495 37.022C79.6377 37.2719 79.6313 37.2027 79.2864 36.3368C76.9086 30.3707 75.4239 25.8326 74.0173 20.2324L73.3541 17.5914L66.1323 17.5455C62.1603 17.5201 58.8704 17.5645 58.8213 17.6437Z" fill="black"/>
</svg>
