<svg width="132" height="88" viewBox="0 0 132 88" fill="none" xmlns="http://www.w3.org/2000/svg">
<path d="M47.5613 66.7905C47.2247 64.8724 45.4334 63.5598 43.5073 63.8428C41.5453 64.1318 40.1869 65.968 40.4738 67.9442L44.0262 67.4222C40.4738 67.945 40.4738 67.9469 40.4748 67.9499V67.953L40.4768 67.9631L40.4798 67.984L40.4868 68.03C40.4928 68.0641 40.4998 68.102 40.5068 68.1441C40.5228 68.228 40.5437 68.33 40.5717 68.4477C40.6267 68.6828 40.7097 68.9826 40.8296 69.3304C41.0715 70.027 41.4713 70.9265 42.126 71.8962C43.4683 73.8811 45.7653 75.9772 49.5306 77.2416C53.5376 78.5869 56.875 77.8994 59.2128 76.7739C60.3505 76.228 61.2269 75.5925 61.8308 75.0826C62.1344 74.8258 62.3753 74.5948 62.5513 74.4149C62.6404 74.325 62.7144 74.248 62.7713 74.1842C62.8002 74.1531 62.8241 74.1242 62.8453 74.1011L62.8741 74.0681L62.8862 74.0533L62.8912 74.0472L62.8942 74.0442C62.895 74.0431 62.8961 74.0412 60.1624 71.6963L62.8961 74.0412C64.1815 72.521 63.9997 70.2379 62.4902 68.9427C60.9962 67.6612 58.7612 67.827 57.4687 69.3065C57.4646 69.3104 57.4588 69.3153 57.4509 69.3244C57.4126 69.3623 57.3348 69.4404 57.2168 69.5392C56.9779 69.7413 56.6072 70.0122 56.1204 70.2459C55.2118 70.6829 53.8013 71.0495 51.8015 70.3779C49.5595 69.6252 48.537 68.5288 48.0613 67.824C47.8063 67.4483 47.6724 67.1285 47.6075 66.9415C47.5814 66.8664 47.5674 66.8145 47.5613 66.7905Z" fill="#00AAFF"/>
<path d="M47.5613 66.7905C47.2247 64.8724 45.4334 63.5598 43.5073 63.8428C41.5453 64.1318 40.1869 65.968 40.4738 67.9442L44.0262 67.4222C40.4738 67.945 40.4738 67.9469 40.4748 67.9499V67.953L40.4768 67.9631L40.4798 67.984L40.4868 68.03C40.4928 68.0641 40.4998 68.102 40.5068 68.1441C40.5228 68.228 40.5437 68.33 40.5717 68.4477C40.6267 68.6828 40.7097 68.9826 40.8296 69.3304C41.0715 70.027 41.4713 70.9265 42.126 71.8962C43.4683 73.8811 45.7653 75.9772 49.5306 77.2416C53.5376 78.5869 56.875 77.8994 59.2128 76.7739C60.3505 76.228 61.2269 75.5925 61.8308 75.0826C62.1344 74.8258 62.3753 74.5948 62.5513 74.4149C62.6404 74.325 62.7144 74.248 62.7713 74.1842C62.8002 74.1531 62.8241 74.1242 62.8453 74.1011L62.8741 74.0681L62.8862 74.0533L62.8912 74.0472L62.8942 74.0442C62.895 74.0431 62.8961 74.0412 60.1624 71.6963L62.8961 74.0412C64.1815 72.521 63.9997 70.2379 62.4902 68.9427C60.9962 67.6612 58.7612 67.827 57.4687 69.3065C57.4646 69.3104 57.4588 69.3153 57.4509 69.3244C57.4126 69.3623 57.3348 69.4404 57.2168 69.5392C56.9779 69.7413 56.6072 70.0122 56.1204 70.2459C55.2118 70.6829 53.8013 71.0495 51.8015 70.3779C49.5595 69.6252 48.537 68.5288 48.0613 67.824C47.8063 67.4483 47.6724 67.1285 47.6075 66.9415C47.5814 66.8664 47.5674 66.8145 47.5613 66.7905Z" fill="#007CFF"/>
<path d="M72.7835 22.8054C74.7814 22.8054 76.4006 24.4243 76.4006 26.4225V43.3366C76.4006 46.943 74.9934 50.7462 72.6003 53.6758C70.1737 56.648 66.5025 58.9759 61.9325 58.9759C57.9225 58.9759 55.1846 57.303 53.4936 55.4795C52.6818 54.6047 52.1423 53.7324 51.7993 53.0683C51.6264 52.7328 51.4996 52.4424 51.4105 52.2175C51.3654 52.1044 51.3296 52.0071 51.3027 51.9287C51.2887 51.8894 51.2766 51.8539 51.2667 51.8248L51.2535 51.783L51.2477 51.7648L51.2455 51.756L51.2436 51.753C51.2436 51.7505 51.2425 51.7489 54.6978 50.6805L51.2425 51.7489C50.6518 49.8398 51.7212 47.8147 53.6295 47.224C55.5135 46.6416 57.5116 47.6761 58.1312 49.539L58.1323 49.5445C58.1452 49.5761 58.1763 49.6501 58.2294 49.7543C58.3391 49.9666 58.5231 50.2641 58.7959 50.5589C59.2758 51.0757 60.1544 51.7417 61.9325 51.7417C63.8727 51.7417 65.6269 50.7798 66.9972 49.1001C68.4036 47.3794 69.1661 45.1714 69.1661 43.3366V26.4225C69.1661 24.4243 70.7853 22.8054 72.7835 22.8054Z" fill="#FFF14A"/>
<path d="M72.7835 22.8054C74.7814 22.8054 76.4006 24.4243 76.4006 26.4225V43.3366C76.4006 46.943 74.9934 50.7462 72.6003 53.6758C70.1737 56.648 66.5025 58.9759 61.9325 58.9759C57.9225 58.9759 55.1846 57.303 53.4936 55.4795C52.6818 54.6047 52.1423 53.7324 51.7993 53.0683C51.6264 52.7328 51.4996 52.4424 51.4105 52.2175C51.3654 52.1044 51.3296 52.0071 51.3027 51.9287C51.2887 51.8894 51.2766 51.8539 51.2667 51.8248L51.2535 51.783L51.2477 51.7648L51.2455 51.756L51.2436 51.753C51.2436 51.7505 51.2425 51.7489 54.6978 50.6805L51.2425 51.7489C50.6518 49.8398 51.7212 47.8147 53.6295 47.224C55.5135 46.6416 57.5116 47.6761 58.1312 49.539L58.1323 49.5445C58.1452 49.5761 58.1763 49.6501 58.2294 49.7543C58.3391 49.9666 58.5231 50.2641 58.7959 50.5589C59.2758 51.0757 60.1544 51.7417 61.9325 51.7417C63.8727 51.7417 65.6269 50.7798 66.9972 49.1001C68.4036 47.3794 69.1661 45.1714 69.1661 43.3366V26.4225C69.1661 24.4243 70.7853 22.8054 72.7835 22.8054Z" fill="#F1B505"/>
<path d="M72.7835 22.8054C74.7814 22.8054 76.4006 24.4243 76.4006 26.4225V43.3366C76.4006 46.943 74.9934 50.7462 72.6003 53.6758C70.1737 56.648 66.5025 58.9759 61.9325 58.9759C57.9225 58.9759 55.1846 57.303 53.4936 55.4795C52.6818 54.6047 52.1423 53.7324 51.7993 53.0683C51.6264 52.7328 51.4996 52.4424 51.4105 52.2175C51.3654 52.1044 51.3296 52.0071 51.3027 51.9287C51.2887 51.8894 51.2766 51.8539 51.2667 51.8248L51.2535 51.783L51.2477 51.7648L51.2455 51.756L51.2436 51.753C51.2436 51.7505 51.2425 51.7489 54.6978 50.6805L51.2425 51.7489C50.6518 49.8398 51.7212 47.8147 53.6295 47.224C55.5135 46.6416 57.5116 47.6761 58.1312 49.539L58.1323 49.5445C58.1452 49.5761 58.1763 49.6501 58.2294 49.7543C58.3391 49.9666 58.5231 50.2641 58.7959 50.5589C59.2758 51.0757 60.1544 51.7417 61.9325 51.7417C63.8727 51.7417 65.6269 50.7798 66.9972 49.1001C68.4036 47.3794 69.1661 45.1714 69.1661 43.3366V26.4225C69.1661 24.4243 70.7853 22.8054 72.7835 22.8054Z" fill="#007CFF"/>
<path d="M86.5021 20.1425C89.2989 20.1425 91.566 17.8754 91.566 15.0785C91.566 12.2821 89.2989 10.0156 86.5021 10.0156C83.7057 10.0156 81.4377 12.2821 81.4377 15.0785C81.4377 17.8754 83.7057 20.1425 86.5021 20.1425Z" fill="#00AAFF"/>
<path d="M86.5021 20.1425C89.2989 20.1425 91.566 17.8754 91.566 15.0785C91.566 12.2821 89.2989 10.0156 86.5021 10.0156C83.7057 10.0156 81.4377 12.2821 81.4377 15.0785C81.4377 17.8754 83.7057 20.1425 86.5021 20.1425Z" fill="#007CFF"/>
</svg>
