<svg width="132" height="88" viewBox="0 0 132 88" fill="none" xmlns="http://www.w3.org/2000/svg">
<path d="M66.065 13.479C66.065 11.4256 66.8004 9.66362 68.271 8.19296C69.7417 6.69453 71.5037 5.94531 73.5571 5.94531C75.6104 5.94531 77.3586 6.68068 78.8015 8.15133C80.2722 9.62198 81.0075 11.3979 81.0075 13.479C81.0075 15.5601 80.2722 17.336 78.8015 18.8067C77.3586 20.2773 75.6104 21.0127 73.5571 21.0127C71.5037 21.0127 69.7417 20.2773 68.271 18.8067C66.8004 17.3083 66.065 15.5324 66.065 13.479ZM80.6745 27.922V61.8863C80.6745 67.8796 80.2444 72.1531 79.3842 74.7061C78.524 77.2861 76.429 79.5202 73.0992 81.4069C69.7971 83.3213 65.8014 84.2789 61.1119 84.2789C58.0318 84.2789 55.5207 83.7376 53.5783 82.6557C51.6081 81.5731 50.623 80.075 50.623 78.1606C50.623 76.7456 51.1364 75.5657 52.1631 74.6223C53.162 73.6789 54.3829 73.2073 55.8258 73.2073C58.2677 73.2073 59.9326 74.4696 60.8206 76.9949C61.4311 78.6877 62.3606 79.5337 63.6093 79.5337C64.9412 79.5337 65.8708 78.8262 66.398 77.4112C66.9529 76.0238 67.2304 73.0822 67.2304 68.5871V41.0748C67.2304 39.0213 66.8975 37.5923 66.2315 36.7876C65.5933 35.9829 64.1226 35.5806 61.8195 35.5806H60.5292V31.1269L80.6745 27.922Z" fill="black"/>
<path d="M81.3768 13.4185C81.3768 18.7754 77.0138 23.1182 71.6318 23.1182C66.2497 23.1182 61.8867 18.7754 61.8867 13.4185C61.8867 8.06145 66.2497 3.71875 71.6318 3.71875C77.0138 3.71875 81.3768 8.06145 81.3768 13.4185Z" fill="#F44711"/>
</svg>
