<svg width="132" height="88" viewBox="0 0 132 88" fill="none" xmlns="http://www.w3.org/2000/svg">
<path d="M35.2913 61.7633C34.6609 62.2066 34.6514 62.3132 34.6514 69.0253C34.6514 78.9537 34.3437 78.6506 44.423 78.6506H51.0849L51.7913 77.9412C53.2547 76.4722 53.2717 76.4947 43.9768 67.5068C37.1626 60.9176 36.818 60.6896 35.2913 61.7633Z" fill="#0A1551"/>
<path d="M60.8455 9.91556C59.4276 10.4695 58.0661 11.7284 47.7965 21.9819C35.3517 34.4071 34.9775 34.8677 34.7216 38.0681C34.4957 40.8918 35.2107 42.8503 37.1937 44.8409C39.7486 47.4056 43.0082 48.1589 46.505 46.993C47.861 46.5408 49.0501 45.4572 59.383 35.2578C65.6439 29.0771 71.1239 23.4868 71.5603 22.8343C72.5545 21.3485 72.9313 20.0075 72.9334 17.9499C72.9368 14.6833 71.1404 11.749 68.221 10.2525C66.1543 9.19289 63.0579 9.05159 60.8455 9.91556Z" fill="#0099FF"/>
<path d="M85.3134 17.4399C83.8908 18.0013 82.2219 19.5645 68.7622 32.945C60.5292 41.1296 53.5166 48.2312 53.1787 48.7261C49.4732 54.1561 53.002 61.583 59.6639 62.3751C61.2399 62.5623 63.9378 61.8833 65.3008 60.9563C65.7792 60.6309 72.8179 53.7192 80.9427 45.5968C91.8688 34.6738 95.9053 30.4577 96.4467 29.4025C98.5802 25.2439 96.7919 19.8471 92.5971 17.7857C90.3441 16.6785 87.5756 16.547 85.3134 17.4399Z" fill="#FF6100"/>
<path d="M86.1743 49.1413C84.2737 49.7669 82.9418 50.8962 76.2948 57.5175C71.2756 62.5172 68.9311 65.0612 68.4188 66.063C66.8425 69.1461 67.3206 72.8383 69.6297 75.4166C71.5151 77.5216 73.3599 78.3622 76.0859 78.3587C79.7516 78.3541 80.3471 77.9458 88.3692 69.9361C96.1517 62.1656 96.8255 61.249 97.0478 58.1301C97.4015 53.1685 93.886 49.222 88.9106 48.9954C87.8024 48.9452 86.571 49.0107 86.1743 49.1413Z" fill="#FFB629"/>
</svg>
