<svg width="132" height="88" viewBox="0 0 132 88" fill="none" xmlns="http://www.w3.org/2000/svg">
<path fill-rule="evenodd" clip-rule="evenodd" d="M89.7173 39.4621L89.7203 39.4624V39.4453C89.7192 39.4511 89.7181 39.4569 89.7173 39.4621ZM83.631 39.4033C85.6231 39.3609 87.6652 39.3865 89.7173 39.4621C89.5822 40.1485 89.4643 40.8432 89.3793 41.5463C87.0544 41.6811 84.8825 41.8582 82.7963 42.1029C80.7864 48.6075 78.0947 56.1329 73.3509 62.8734L73.121 63.1941C68.6162 69.4795 60.7639 75.8655 51.7532 75.8655C51.1485 75.8655 50.5438 75.8405 49.9311 75.7816C46.6085 75.4607 43.603 73.9254 41.8908 71.6726C38.4755 67.1755 40.1197 60.9839 42.5555 57.044C49.0786 46.5065 61.9475 42.255 71.5887 40.5506C73.462 40.2302 75.412 39.9684 77.3799 39.7745L84.2357 16.8358H65.3888V12.1367H92.0542L91.8411 12.8201C91.8411 12.8201 85.854 32.1985 83.631 39.4033ZM65.014 64.7297C68.735 60.3761 71.7928 55.1036 74.6112 48.1183C75.31 46.3718 75.9067 44.7185 76.4174 43.0899C64.0003 45.4016 55.1855 49.6957 49.4792 56.2003C48.014 57.8621 46.1658 60.5282 45.6551 63.7677C45.2553 66.3071 45.8339 69.7663 48.7896 71.1748C51.3443 72.398 54.9897 72.0012 58.532 70.1293C60.8148 68.9229 62.9358 67.1596 65.014 64.7297Z" fill="#0EF275"/>
</svg>
