<svg width="132" height="88" viewBox="0 0 132 88" fill="none" xmlns="http://www.w3.org/2000/svg">
<path fill-rule="evenodd" clip-rule="evenodd" d="M66.0004 18.4234C80.1024 18.4234 91.5754 29.8964 91.5754 43.9984C91.5754 58.1005 80.1024 69.5734 66.0004 69.5734C51.8984 69.5734 40.4254 58.1005 40.4254 43.9984C40.4254 29.8964 51.8984 18.4234 66.0004 18.4234ZM66.0004 9.89844C47.1678 9.89844 31.9004 25.1651 31.9004 43.9984C31.9004 62.8318 47.1678 78.0984 66.0004 78.0984C84.8338 78.0984 100.1 62.8318 100.1 43.9984C100.1 25.1651 84.8338 9.89844 66.0004 9.89844Z" fill="#02D6B4"/>
<path fill-rule="evenodd" clip-rule="evenodd" d="M72.821 47.4098C71.6753 47.4098 71.116 46.8506 71.116 45.7048V42.2948C71.116 41.1508 71.6753 40.5898 72.821 40.5898H83.9035C85.0493 40.5898 85.6085 41.1491 85.6085 42.2948V43.9998C85.6085 54.8286 76.8298 63.6073 66.001 63.6073C60.736 63.6073 55.7901 61.5155 52.1373 57.8673C51.3269 57.0551 51.3269 56.2622 52.136 55.4532L55.753 51.836C56.5621 51.0279 57.3541 51.0262 58.1648 51.836C60.2341 53.9043 63.0202 55.0823 66.001 55.0823C70.9319 55.0823 75.1107 51.8619 76.5489 47.4098H72.821Z" fill="#02D6B4"/>
</svg>
