<svg width="132" height="88" viewBox="0 0 132 88" fill="none" xmlns="http://www.w3.org/2000/svg">
<path d="M60.5247 72.9465C60.7044 71.3236 60.9739 69.7607 61.1236 69.4902C61.3631 69.0093 61.932 68.9492 66.0342 68.9492C69.4477 68.9492 70.7352 69.0394 70.8849 69.3399C71.0047 69.5203 71.2143 70.8427 71.364 72.2553C71.5137 73.6679 71.6635 75.2307 71.7233 76.6133L65.9743 76.7034C61.0038 76.7635 60.1953 76.7034 60.1953 76.3127C60.1953 76.0723 60.3451 74.5395 60.5247 72.9465Z" fill="#2E3439"/>
<path d="M60.5544 70.993C60.5544 70.5421 60.6742 69.8509 60.8239 69.4301L61.0934 68.6487H65.7345C68.2797 68.6487 70.5853 68.7088 70.8248 68.7989C71.0644 68.8891 71.274 69.2498 71.244 70.3017L70.9446 69.6104C70.6751 68.9793 70.5556 68.9492 66.0342 68.9492C62.6207 68.9492 61.3329 69.0394 61.1832 69.3099C61.0634 69.5202 60.8838 70.1815 60.764 70.7525C60.6143 71.5941 60.5544 71.6542 60.5544 70.993Z" fill="#B3B1B1"/>
<path d="M89.6891 49.9844C89.8887 49.7841 89.8388 49.5937 89.5394 49.4134C89.2399 49.213 89.22 49.1128 89.4795 49.1128C89.6591 49.1128 89.9286 49.2932 90.0783 49.5336C90.1981 49.774 91.0365 50.3751 91.9348 50.9161C92.8331 51.4571 94.2104 52.1484 95.0189 52.4489C95.7974 52.7796 96.7855 53.2905 97.2347 53.6512C97.7138 53.9818 98.4025 54.3124 98.8217 54.3424C99.2409 54.3725 100.019 54.7031 100.558 55.0637C101.067 55.4244 101.517 55.7851 101.517 55.8752C101.517 55.9654 101.007 56.8671 100.379 57.8889C99.7499 58.9408 98.4923 60.9545 95.9771 65.012L89.3896 68.1978C84.0898 70.7525 82.7124 71.2935 82.413 70.993C82.2034 70.7826 82.0237 70.4219 82.0536 70.2115C82.0536 70.0312 81.1254 68.318 79.9876 66.4847C78.8498 64.6213 77.3227 62.277 76.634 61.2852C75.9153 60.2933 75.077 59.001 74.7775 58.4299C74.4481 57.8589 74.1487 57.3179 74.0589 57.2277C73.999 57.1375 72.4719 56.9873 67.5313 56.7468L71.1844 56.6867C73.2205 56.6567 74.8674 56.5364 74.8674 56.4162C74.8674 56.2659 75.047 56.1758 75.2267 56.1457C75.4363 56.1157 78.73 54.7932 82.5028 53.2003C86.2756 51.6074 89.5094 50.1648 89.6891 49.9844Z" fill="#CACBCA"/>
<path d="M36.5407 52.7495C39.0859 51.367 41.5711 49.9243 42.0203 49.5336C42.4993 49.1429 42.9485 48.8123 43.0383 48.8123C43.1281 48.8123 42.9784 49.0527 42.7089 49.3533C42.4694 49.6238 42.2299 49.9544 42.2299 50.1046C42.2299 50.2249 42.7389 50.4653 43.3377 50.6456C43.9665 50.856 44.5953 51.0965 44.775 51.2467C44.9247 51.367 45.3439 51.5172 45.7032 51.5773C46.0326 51.6375 46.5416 51.8478 46.8111 52.0582C47.0806 52.2386 47.4399 52.3588 47.6196 52.2686C47.7693 52.1785 47.9489 52.2686 47.9789 52.4189C48.0388 52.5992 48.3681 52.7796 48.7574 52.8096C49.1167 52.8397 49.4161 52.9298 49.4161 53.02C49.4161 53.1102 49.7755 53.3205 50.2246 53.5309C50.7037 53.7413 52.4703 54.5228 57.351 56.6567L66.9327 56.7468L58.0996 56.9272L55.0155 61.6759C53.3087 64.2606 51.3025 67.3563 50.5839 68.5585C49.7755 69.8809 49.0568 70.7225 48.7275 70.7525C48.458 70.7525 46.2422 69.7907 43.7869 68.6186C41.3615 67.4464 38.6667 66.1541 37.7983 65.7634C36.5407 65.1923 36.0317 64.7114 35.1334 63.3289C34.5345 62.3671 33.4865 60.7141 32.7679 59.6321C32.0792 58.5501 31.3306 57.2878 31.121 56.837C30.7318 56.0556 30.7617 55.9353 31.3007 55.6348C31.6301 55.4244 33.9656 54.132 36.5407 52.7495Z" fill="#CACBCA"/>
<path d="M75.8854 46.7084C76.1549 45.4762 76.5142 44.1537 76.6639 43.7931C76.8137 43.4024 77.0233 43.1018 77.1131 43.1018C77.2029 43.1018 79.3588 44.2138 81.9339 45.5964C84.479 46.9489 87.2338 48.3915 88.0722 48.8123C88.8806 49.2331 89.5094 49.6839 89.4795 49.8041C89.4196 49.9544 86.2157 51.397 82.3531 53.0501C78.4905 54.7031 74.9871 56.1157 74.5679 56.2359C73.8493 56.4463 73.8194 56.4162 74.029 55.2441C74.1487 54.6129 74.3883 53.4708 74.5679 52.7194C74.7476 51.9681 75.0171 50.826 75.1668 50.1648C75.2866 49.5035 75.6159 47.9407 75.8854 46.7084Z" fill="#2E3439"/>
<path d="M48.5176 46.3478C50.404 45.3259 52.5 44.1838 53.1588 43.8231C53.8175 43.4324 54.5361 43.1319 54.7158 43.1018C54.9254 43.1018 55.1949 43.3423 55.2847 43.6428C55.3745 43.9133 55.5841 44.7548 55.7039 45.5062C55.8536 46.2576 56.183 47.8205 56.4225 48.9626C56.692 50.1347 57.0813 51.8178 57.3508 52.7194C57.5903 53.6211 57.7999 54.8233 57.7999 55.3643C57.7999 55.8752 57.7101 56.3261 57.5604 56.3261C57.4406 56.3261 56.0033 55.7851 54.3565 55.0938C52.7096 54.4025 50.7633 53.591 50.0148 53.2604C49.2662 52.9298 48.0984 52.3888 47.3798 52.0883C46.6911 51.7577 46.0623 51.5172 45.9725 51.5172C45.8826 51.5172 45.0742 51.1866 44.1759 50.7659C43.2776 50.3451 42.529 49.9243 42.529 49.8041C42.529 49.6538 43.098 49.2631 43.8166 48.8724C44.5053 48.4817 46.6312 47.3396 48.5176 46.3478Z" fill="#2E3439"/>
<path d="M37.5887 32.823C37.0796 32.823 36.1514 32.6727 35.4927 32.4322C34.8339 32.2219 34.4147 32.0415 34.5944 32.0115C34.774 32.0115 35.7023 32.1918 36.6904 32.4022C37.8282 32.6727 38.1576 32.823 37.5887 32.823Z" fill="#CACBCA"/>
<path d="M47.5295 19.1479C48.0685 18.6069 48.817 18.0358 49.2063 17.8856H49.1764C49.5656 17.7052 56.722 17.585 66.0342 17.585C80.7661 17.555 82.2632 17.585 82.9519 18.0659C83.3711 18.3364 83.7604 18.6369 83.8502 18.7572C83.94 18.8473 86.0959 20.8009 88.6411 23.1151C91.1862 25.3993 94.0008 27.9841 94.8991 28.8256C95.7675 29.6371 96.7556 30.5087 97.055 30.689C97.3545 30.8994 97.6239 31.2 97.6239 31.3803C97.6239 31.5306 96.7855 31.8612 95.7375 32.1016C94.7195 32.3421 92.8031 32.7628 91.4856 33.0333C90.1682 33.3038 88.5512 33.6645 87.8925 33.7847C87.2338 33.935 86.0959 34.1754 85.3474 34.3558C84.5988 34.5361 83.1915 34.8366 82.2034 35.017C81.2152 35.1973 80.0475 35.4077 79.5684 35.4678C79.1192 35.5279 78.6402 35.8285 78.4904 36.099C78.3707 36.3995 77.9515 37.8422 77.5922 39.3449C77.2029 40.8176 76.9634 42.2603 76.9933 42.5007C77.0232 42.7411 76.9035 43.2821 76.7238 43.7029C76.5142 44.1237 76.1549 45.4762 75.8854 46.7084C75.6159 47.9407 75.2866 49.5035 75.1668 50.1648C75.0171 50.826 74.7476 52.0282 74.538 52.8697C74.3284 53.6812 74.1487 54.8834 74.1188 56.6266H57.6502L57.74 55.6348C57.7999 55.1238 57.6203 53.8014 57.3508 52.7194C57.0513 51.6375 56.6321 49.8943 56.3926 48.8123C56.183 47.7303 55.8836 46.2576 55.7339 45.5062C55.6141 44.7548 55.3745 43.9433 55.2548 43.7029C55.105 43.4625 54.9553 42.7712 54.8955 42.2001C54.8056 41.6291 54.5062 40.0662 54.1768 38.7438C53.8774 37.4214 53.4282 36.1891 53.2186 36.0088C53.039 35.8285 51.7215 35.4377 50.3142 35.1672C48.9069 34.8667 47.2301 34.506 46.5713 34.3858C45.9126 34.2355 44.3556 33.9049 43.1279 33.6344C41.9002 33.3639 39.924 32.9432 38.7862 32.7027C37.6184 32.4623 36.1213 32.0716 35.4026 31.8912C34.7139 31.6809 34.145 31.4705 34.145 31.3803C34.145 31.2901 35.193 30.2683 36.4506 29.1262C37.7082 27.954 39.2952 26.5715 39.9839 26.0004C40.6426 25.4594 42.3793 23.8966 43.8765 22.5441C45.3437 21.2217 47.0205 19.6588 47.5295 19.1479Z" fill="#DE544E"/>
<path d="M30.4319 22.0632C30.1923 19.5085 29.8929 16.0823 29.7731 14.4893V14.4593C29.6534 12.8363 29.6833 11.5439 29.833 11.5439C29.9827 11.5439 31.8392 12.0849 33.9951 12.7461C36.121 13.4074 40.2831 14.7598 43.1875 15.7517C46.1219 16.7435 48.8168 17.555 49.8648 17.585L49.1764 17.8856C48.817 18.0358 48.0685 18.6069 47.5295 19.1479C47.0205 19.6588 45.3437 21.2217 43.8765 22.5441C42.4093 23.8966 40.6426 25.4594 39.9839 26.0004C39.2952 26.5715 37.7082 27.954 36.4506 29.1262C35.193 30.2983 34.1448 31.3202 34.1448 31.4404C34.1448 31.5907 34.3843 31.6809 34.6538 31.7109C34.9532 31.7109 35.0131 31.771 34.8035 31.8612C34.6239 31.9213 34.1747 31.8612 33.8454 31.6809C33.516 31.5005 33.1567 31.0798 33.0668 30.689C32.9471 30.3284 32.7674 29.9677 32.6476 29.8776C32.5578 29.7874 32.1087 29.036 31.6595 28.2245C31.0008 26.9622 30.8211 25.9403 30.4319 22.0632Z" fill="#B3B1B1"/>
<path d="M90.6473 15.1205C94.7495 13.7981 98.9415 12.3855 100.019 12.0248C101.097 11.6341 102.056 11.3035 102.205 11.2734C102.325 11.2734 102.325 12.686 102.235 14.4593C102.145 16.2626 101.936 18.4566 101.786 19.3583C101.636 20.2599 101.517 21.8829 101.517 22.9649C101.517 24.0469 101.367 25.4595 101.187 26.1207C101.008 26.7819 100.259 28.3748 98.2228 31.9814L96.5161 32.312C95.5579 32.4623 94.7495 32.5825 94.7195 32.5224C94.6896 32.4623 95.3184 32.2519 96.1268 32.0415C96.9652 31.8612 97.6239 31.5306 97.6239 31.3803C97.6239 31.2 97.3545 30.8994 97.055 30.689C96.7556 30.5087 95.7675 29.6371 94.8991 28.8256C94.0008 27.9841 91.1862 25.3993 88.6411 23.1151C86.0959 20.8009 83.94 18.8473 83.8502 18.7572C83.7604 18.6369 83.3711 18.3364 82.9519 18.0659C82.3531 17.6752 82.3232 17.555 82.7424 17.555C83.0119 17.555 86.5751 16.473 90.6473 15.1205Z" fill="#B3B1B1"/>
</svg>
