<svg width="132" height="88" viewBox="0 0 132 88" fill="none" xmlns="http://www.w3.org/2000/svg">
<path fill-rule="evenodd" clip-rule="evenodd" d="M56.316 6.92824C37.504 12.3832 25.2934 31.1555 28.5149 49.6711C32.1827 70.7491 51.5246 84.9568 71.8112 81.4753C82.4789 79.6441 91.0361 74.4259 96.9719 66.1305C111.365 46.015 102.702 17.0711 79.6361 8.21928C73.6266 5.9127 62.0331 5.27078 56.316 6.92824ZM57.6574 10.9859C48.2689 13.4005 39.7746 20.6354 35.3458 29.9869C32.8871 35.178 32.5731 36.7599 32.5731 43.9443C32.5731 50.8631 32.9276 52.8033 34.9985 57.2265C44.4086 77.3213 69.3759 83.88 86.475 70.7491C102.625 58.3465 104.163 34.4758 89.7425 20.043C83.3533 13.6499 76.7654 10.8041 67.6585 10.5025C63.7001 10.3719 59.1993 10.5889 57.6574 10.9859ZM57.1842 16.8352C52.4755 18.5188 47.8137 21.397 48.1897 22.3874C48.3678 22.8546 50.392 23.7757 52.6878 24.4338C57.8031 25.9004 59.4845 27.3976 58.7207 29.8059C57.8562 32.532 56.3916 32.6923 49.6003 30.8079C46.1943 29.8626 42.926 29.0893 42.3376 29.0893C40.3 29.0893 37.97 37.3135 37.9934 44.4214C38.0221 52.887 41.0251 59.6789 47.1102 65.0393C55.5729 72.4948 68.5428 74.4043 78.3703 69.6435C80.6949 68.5172 82.4267 67.4269 82.2198 67.219C82.0129 67.0119 77.4833 65.6722 72.1539 64.2408C61.649 61.421 58.9537 59.7842 60.5685 57.2067C62.0799 54.7948 64.0843 54.9343 76.6547 58.3321L88.3499 61.493L89.9242 59.5961C92.2236 56.8258 91.8647 55.4961 88.6404 54.8515C81.8312 53.4884 73.65 50.5705 73.1768 49.3353C72.4976 47.5653 73.3207 45.5585 74.9877 44.9184C75.7263 44.6348 79.924 45.4136 84.3159 46.6488C88.7079 47.8849 92.7796 48.896 93.3644 48.896C95.2473 48.896 93.914 35.5615 91.5777 31.0132C88.6305 25.2774 82.3629 19.6 76.5945 17.4402C70.8962 15.3065 62.2176 15.0364 57.1842 16.8352Z" fill="#3237B0"/>
</svg>
