<svg width="132" height="88" viewBox="0 0 132 88" fill="none" xmlns="http://www.w3.org/2000/svg">
<path fill-rule="evenodd" clip-rule="evenodd" d="M63.7255 48.4664C63.7255 55.7655 57.6634 61.6824 50.1862 61.6824C42.7086 61.6824 36.6465 55.7655 36.6465 48.4664C36.6465 41.1677 42.7086 35.2508 50.1862 35.2508C57.6634 35.2508 63.7255 41.1677 63.7255 48.4664Z" fill="#FF6575"/>
<path fill-rule="evenodd" clip-rule="evenodd" d="M63.7255 64.7679C63.7255 72.0664 57.6634 77.9836 50.1862 77.9836C42.7086 77.9836 36.6465 72.0664 36.6465 64.7679C36.6465 57.4688 42.7086 51.5519 50.1862 51.5519C57.6634 51.5519 63.7255 57.4688 63.7255 64.7679Z" fill="#0099FF"/>
<path fill-rule="evenodd" clip-rule="evenodd" d="M50.1862 51.5519C45.8593 51.5519 42.0069 53.5333 39.5281 56.6169C42.0069 59.7007 45.8591 61.6821 50.1859 61.6821C54.5139 61.6821 58.3661 59.7007 60.8449 56.6169C58.3661 53.5333 54.5141 51.5519 50.1862 51.5519Z" fill="#0066B8"/>
<path d="M68.7572 35.9198V77.9495C83.2954 77.9495 95.1077 66.5859 95.3456 52.4806H95.3516V10.0156C80.6636 10.0156 68.7572 21.613 68.7572 35.9198Z" fill="url(#paint0_linear_2056_25419)"/>
<defs>
<linearGradient id="paint0_linear_2056_25419" x1="76.1196" y1="19.9614" x2="99.9055" y2="34.9076" gradientUnits="userSpaceOnUse">
<stop stop-color="#C13ED1"/>
<stop offset="1" stop-color="#9835FF"/>
</linearGradient>
</defs>
</svg>
