<svg width="132" height="88" viewBox="0 0 132 88" fill="none" xmlns="http://www.w3.org/2000/svg">
<path d="M93.2254 74.9921V75.3414C93.2254 76.3894 92.4205 77 91.138 77H72.0883C70.8192 77 70.0008 76.3014 70.0008 75.2561V74.9894C70.0008 72.5469 73.36 71.8482 71.9085 69.6697L63.921 58.2462L59.384 62.246V67.4778C59.384 71.4776 63.4676 72.4482 63.4676 74.9761V75.3254C63.4676 76.3734 62.5607 76.984 61.2889 76.984H41.6811C40.4094 76.984 39.5025 76.3734 39.5025 75.3254V74.9761C39.5025 72.4482 43.1327 71.4883 43.1327 67.4778V27.6422C43.1327 23.5464 38.7754 22.4105 38.7754 20.2292V19.8799C38.7754 18.92 39.5937 18.4853 40.7743 17.8747L55.2923 11.411C57.8332 10.2804 59.3759 11.6776 59.3759 13.2402V54.673L71.6268 44.5588C74.4413 42.2922 69.3596 39.5884 69.3596 37.2338V36.8845C69.3596 35.8365 70.1645 35.1379 71.447 35.1379H85.7826C87.0544 35.1379 87.87 35.7485 87.87 36.7965V37.1458C87.87 39.5884 82.9707 41.2443 79.3406 44.4708L73.5344 49.6172L88.1437 69.6723C89.504 71.5896 93.2254 72.5495 93.2254 74.9921Z" fill="black"/>
</svg>
