<svg width="132" height="88" viewBox="0 0 132 88" fill="none" xmlns="http://www.w3.org/2000/svg">
<path fill-rule="evenodd" clip-rule="evenodd" d="M59.6405 13.1498C59.6405 13.2732 61.0943 15.5542 62.8711 18.2185L66.1017 23.0627V49.069C66.1017 74.7879 66.1112 75.0758 66.9632 75.0758C67.8153 75.0758 67.8247 74.7879 67.8247 48.9404V22.805L69.4779 20.3471C70.3872 18.9953 71.8384 16.7722 72.7029 15.4075L74.2752 12.9258H66.9581C62.9332 12.9258 59.6405 13.0268 59.6405 13.1498Z" fill="#F38577"/>
<path d="M55.3331 24.0036C55.3331 23.212 55.4623 22.4352 55.6204 22.2772C55.778 22.1188 56.7472 21.9893 57.7741 21.9893H59.6405V25.4421H55.3331V24.0036Z" fill="#83B9F5"/>
<path d="M51.4563 31.0529V27.6001H59.6405V31.0529H51.4563Z" fill="#83B9F5"/>
<path d="M41.5491 36.6636V33.2109H59.6405V36.6636H41.5491Z" fill="#83B9F5"/>
<path d="M31.642 42.2744V38.8216H59.6405V42.2744H31.642Z" fill="#83B9F5"/>
<path d="M24.75 47.8852V44.4324H59.6405V47.8852H24.75Z" fill="#83B9F5"/>
<path d="M35.9494 53.0643V50.0431H59.6405V53.0643H35.9494Z" fill="#83B9F5"/>
<path d="M45.8566 58.6751V55.6539H59.6405V58.6751H45.8566Z" fill="#83B9F5"/>
<path d="M41.9799 64.2859V61.2647H59.6405V64.2859H41.9799Z" fill="#83B9F5"/>
<path d="M51.4563 69.465V66.4438H59.6405V69.465H51.4563Z" fill="#83B9F5"/>
<path d="M73.4244 45.9766C73.4244 28.7011 73.5524 22.8969 73.9413 22.5072C74.2256 22.2224 74.662 21.9897 74.9105 21.9906C75.1595 21.9915 77.495 23.5525 80.101 25.4593C82.7071 27.3666 86.5838 30.1819 88.716 31.7162C100.194 39.9735 106.805 44.9214 107.124 45.4911C107.588 46.3228 107.048 46.8225 100.745 51.4022C97.9198 53.4553 91.1587 58.3807 85.721 62.3471C80.2828 66.3139 75.5799 69.657 75.2698 69.7762C74.9596 69.8957 74.4173 69.7533 74.065 69.4602C73.5127 69.001 73.4244 65.7636 73.4244 45.9766Z" fill="#527EB2"/>
</svg>
