<svg width="132" height="88" viewBox="0 0 132 88" fill="none" xmlns="http://www.w3.org/2000/svg">
<path d="M39.3986 47.2824C38.1829 45.9668 33.8242 40.9612 33.8242 33.9523C33.8242 24.5613 42.9921 19.3667 56.7741 17.1966L74.8605 14.3008L68.3109 35.0787C75.163 33.6421 83.3778 26.7539 84.5854 16.864L98.1742 14.6712C98.1742 23.6236 92.0882 33.3245 80.2808 38.209C80.8077 48.6585 86.8929 61.5579 91.7241 67.191L77.7874 73.7008C73.8469 67.0466 72.561 54.541 72.3679 40.5834C70.3739 40.9202 68.3631 41.1501 66.3441 41.2711L59.5923 62.6846H47.1568L59.8788 21.7485C49.9761 23.4951 45.9421 28.6291 45.9421 32.8858C45.9421 35.8652 48.3723 39.8345 48.884 40.4019L39.3986 47.2824Z" fill="#2D2D2D"/>
</svg>
