<svg width="132" height="88" viewBox="0 0 132 88" fill="none" xmlns="http://www.w3.org/2000/svg">
<path fill-rule="evenodd" clip-rule="evenodd" d="M80.0673 29.9949H94.0502V15.9492H80.0673V29.9949ZM37.9502 72.0492H51.9331L51.9458 51.9869C51.9528 39.8657 51.9864 32.2338 52.03 32.7055C52.4681 37.4409 53.0911 40.4388 54.4051 44.1224C59.7683 59.1559 73.4071 70.0024 89.1563 71.7584C90.5727 71.9162 92.4666 72.0461 93.3723 72.0481L94.0502 72.0492V58.0856L93.3723 58.0826C92.5496 58.0783 92.0328 58.0382 90.6372 57.8712C78.4218 56.4095 68.446 46.9379 66.3807 34.841C66.142 33.4437 66.0002 32.1042 65.9987 31.233C65.9987 30.8909 65.9751 30.4724 65.9469 30.3027L65.8963 29.9949H51.9331V16.0314H37.9502V72.0492Z" fill="black"/>
</svg>
