<svg width="132" height="88" viewBox="0 0 132 88" fill="none" xmlns="http://www.w3.org/2000/svg">
<path fill-rule="evenodd" clip-rule="evenodd" d="M25.0254 4.40219C25.028 4.46938 26.0655 13.4042 27.3322 24.2576C28.8537 37.2994 29.8682 44.2156 30.3242 44.6546C31.9114 46.1821 39.866 52.6176 40.0005 52.4827C40.0812 52.4025 38.6269 49.7225 36.7693 46.528C34.9117 43.3334 33.4647 40.7195 33.5538 40.7195C33.6429 40.7195 39.9062 45.7655 47.4716 51.9328L61.2274 63.1461L62.616 72.5397C64.1892 83.1801 64.8952 84.8503 66.9899 82.8833C67.9461 81.9859 68.3895 80.261 69.6323 72.6126C70.9964 64.2189 71.2481 63.3112 72.5284 62.1712C75.2723 59.7276 99.2771 40.3549 99.4219 40.4669C99.5032 40.5294 98.434 42.4282 97.0464 44.6864C92.1301 52.6838 91.9357 53.0473 93.055 52.1484C97.6696 48.444 103.997 42.4131 104.141 41.583C104.438 39.8701 107.133 4.78446 106.968 4.78446C106.884 4.78446 101.162 8.55555 94.2534 13.1646L81.693 21.5442L73.8498 22.8103L66.0061 24.0764L59.0753 23.0197L52.1446 21.9624L43.6636 16.416C30.0923 7.54 25.0212 4.27147 25.0254 4.40219ZM27.8022 9.27998C27.9585 9.81484 28.3436 11.2491 28.6583 12.4662C29.059 14.0161 29.5056 14.6796 30.1486 14.6796C31.3997 14.6796 32.3168 15.6941 32.3168 17.0784C32.3168 17.833 33.5741 19.3907 35.9768 21.6146C39.421 24.8018 39.7816 25.0003 42.0994 24.9836C44.007 24.9701 44.885 24.6649 45.9949 23.6311C46.7827 22.8973 47.4278 22.1255 47.4278 21.9166C47.4278 21.5765 29.1705 8.97011 27.9955 8.49879C27.7329 8.39306 27.6459 8.7446 27.8022 9.27998ZM96.6519 21.988L89.9119 28.7396L94.0721 32.5961C96.3601 34.7173 98.3798 36.2995 98.5596 36.1125C98.9467 35.7099 103.786 15.6301 103.552 15.3962C103.464 15.3082 100.359 18.2747 96.6519 21.988ZM30.7535 20.0735C30.7535 21.3354 33.9524 34.1278 34.3911 34.622C34.5928 34.8491 35.8027 33.7944 37.0799 32.2784C38.8864 30.1343 39.3382 29.2333 39.1162 28.2203C38.7598 26.5975 30.7535 18.7981 30.7535 20.0735ZM47.6696 24.9294L45.6041 26.7095L48.7305 26.3601C53.0184 25.8804 53.4212 25.5638 51.4156 24.2498L49.7357 23.1493L47.6696 24.9294ZM61.8876 26.2632C59.647 26.647 58.8914 26.9944 58.8914 27.6423C58.8914 28.1188 60.5328 30.1369 62.5389 32.1263L66.1864 35.7438V30.6801C66.1864 26.9407 66.016 25.6341 65.5351 25.683C65.1771 25.72 63.5352 25.9809 61.8876 26.2632ZM48.2386 28.3219C44.2587 28.9599 43.5276 29.8494 44.8517 32.444C45.9996 34.6928 47.8218 35.3527 49.9087 34.2741C51.5849 33.4075 53.0043 31.9269 53.2149 30.8243C53.4431 29.6291 52.6443 27.6917 51.9523 27.7626C51.6131 27.7969 49.942 28.0485 48.2386 28.3219ZM55.8952 30.6483C55.5373 30.7931 55.2439 31.3316 55.2439 31.8456C55.2439 32.3596 55.5373 33.0169 55.8952 33.3065C56.5664 33.8491 63.9594 37.0739 64.5325 37.0739C64.7092 37.0739 63.3429 35.5506 61.4968 33.6887C58.3302 30.4952 57.4538 30.0197 55.8952 30.6483ZM37.8484 34.2517C35.2264 37.1822 34.8877 37.7832 35.5088 38.4045C36.1305 39.0253 36.7631 38.9743 39.8775 38.052C41.881 37.4588 43.7381 36.7661 44.0044 36.513C44.5885 35.9584 42.3073 30.8243 41.4767 30.8249C41.1677 30.8249 39.5346 32.3669 37.8484 34.2517ZM49.6424 36.4203C47.803 37.3354 47.6305 37.889 48.5539 39.9138C49.4485 41.8767 50.4401 41.5283 51.0811 39.0269C51.3927 37.8093 51.746 36.5208 51.8663 36.1625C52.1451 35.3318 51.7355 35.3792 49.6424 36.4203ZM54.3706 35.9172C54.0335 36.1313 53.4764 37.4239 53.132 38.7899C52.5864 40.9559 52.6193 41.3971 53.3873 42.246C54.2461 43.1938 54.3768 43.1855 58.497 41.921C66.2078 39.5539 66.0562 39.8841 60.502 37.5598C55.1684 35.3277 55.259 35.3522 54.3706 35.9172ZM41.0447 39.5019C37.2341 40.6679 37.6171 41.2741 43.1264 42.8011C47.581 44.0354 48.3705 43.587 46.8807 40.6685C45.7166 38.3879 45.0934 38.2634 41.0447 39.5019ZM59.673 43.5422C53.9334 45.4249 53.8771 45.278 60.8793 46.7102C66.398 47.8388 66.1864 47.9221 66.1864 44.6255C66.1864 42.6621 65.9816 41.7725 65.5351 41.797C65.1771 41.8168 62.5389 42.6022 59.673 43.5422ZM49.2516 50.7089C54.1236 54.2722 58.4615 57.397 58.8914 57.6532C59.3213 57.9095 58.1166 56.2544 56.2141 53.9759C53.3514 50.548 52.4306 49.7803 50.8747 49.5251C48.8493 49.1929 46.9068 47.7685 46.9068 46.6149C46.9068 45.8134 45.3816 45.1286 42.4031 44.5921C40.6456 44.2755 41.5048 45.0432 49.2516 50.7089ZM40.4001 49.8579C57.3767 70.4315 60.7355 74.45 60.8579 74.3344C60.9788 74.2198 60.4932 71.9252 58.6262 63.7898C58.4157 62.8716 48.1631 54.4331 38.5764 47.2862C38.1496 46.9685 38.9703 48.1258 40.4001 49.8579ZM54.048 47.8169C53.6833 48.182 61.3827 57.385 62.0528 57.385C62.6984 57.385 63.0574 56.609 64.1011 52.9614C65.2042 49.1064 65.6554 49.5658 59.5089 48.2846C55.2804 47.4029 54.5269 47.3383 54.048 47.8169ZM84.6845 54.1082C72.8118 63.356 73.8759 62.1185 72.5013 68.2733C71.8447 71.2106 71.4086 73.7146 71.5311 73.837C71.654 73.9599 76.6219 68.1843 82.572 61.0025C88.5216 53.8207 93.3066 47.87 93.2056 47.7794C93.1045 47.6888 89.2699 50.5365 84.6845 54.1082ZM65.2995 55.6924C64.6664 58.5693 64.8045 61.4202 65.6174 62.2326C66.0285 62.6435 66.1864 61.4738 66.1864 58.01C66.1864 55.3747 66.1093 53.2186 66.0155 53.2186C65.9212 53.2186 65.5992 54.3321 65.2995 55.6924ZM63.8848 65.4574C64.0578 66.8896 64.619 71.2252 65.1318 75.0921L66.064 82.1229L66.1255 73.9495C66.1854 65.9167 66.164 65.7506 64.878 64.3148L63.5701 62.8534L63.8848 65.4574Z" fill="black"/>
</svg>
