<svg width="132" height="88" viewBox="0 0 132 88" fill="none" xmlns="http://www.w3.org/2000/svg">
<path d="M31.9004 18.8427C31.9004 13.9029 35.9049 9.89844 40.8447 9.89844H91.1561C96.0959 9.89844 100.1 13.9029 100.1 18.8427V69.1542C100.1 74.0939 96.0959 78.0984 91.1561 78.0984H40.8447C35.9049 78.0984 31.9004 74.0939 31.9004 69.1542V18.8427Z" fill="#1D99F3"/>
<path fill-rule="evenodd" clip-rule="evenodd" d="M65.9472 19.506C63.9788 19.7074 62.2072 19.8757 62.0104 19.88L61.6525 19.8878V54.0144L62.1405 53.9476C62.409 53.9109 64.2391 53.6374 66.2075 53.3398L69.7864 52.7987L69.9165 38.3321L73.8745 44.1326C76.0513 47.3229 78.5034 50.9157 79.3234 52.1165C80.1436 53.3174 80.8777 54.2998 80.9551 54.2998C81.0677 54.2998 85.3782 52.9572 88.7634 51.8678C89.14 51.7466 89.3664 51.604 89.3307 51.5104C89.2979 51.4247 86.8228 47.9847 83.8307 43.8658C80.8385 39.7469 78.3872 36.2777 78.3831 36.1566C78.379 36.0354 80.8843 32.702 83.9505 28.7488C87.0166 24.7957 89.5044 21.5403 89.4789 21.5149C89.405 21.4409 80.7665 19.469 80.73 19.5177C80.7118 19.5421 78.3645 22.7001 75.5136 26.5356C72.6629 30.3711 70.216 33.6265 70.0761 33.7699C69.8237 34.0287 69.8224 33.974 69.9104 26.5681C69.9954 19.4071 69.9894 19.1063 69.7626 19.1228C69.6325 19.1321 67.9156 19.3047 65.9472 19.506ZM49.3198 29.1768C48.3723 30.1277 47.5972 30.9773 47.5972 31.0648C47.5972 31.1523 48.4464 32.6256 49.4843 34.3388C50.5222 36.0519 51.3713 37.5357 51.3713 37.6358C51.3713 37.7359 51.2742 37.9567 51.1556 38.1264C51.0369 38.2961 50.6908 39.0468 50.3865 39.7946C50.0823 40.5426 49.8094 41.1783 49.7802 41.2075C49.7511 41.2368 48.1843 41.585 46.2985 41.9814C44.4128 42.3776 42.7916 42.7671 42.6958 42.8467C42.5617 42.9582 42.5217 43.5556 42.5217 45.4475C42.5217 47.6544 42.5449 47.9156 42.7494 48.0225C42.8748 48.0878 44.4706 48.5034 46.2958 48.9458L49.6144 49.75L49.9191 50.7541C50.0867 51.3062 50.4588 52.2661 50.746 52.8871L51.2684 54.0163L49.3026 57.0164C48.2215 58.6665 47.3369 60.0933 47.3369 60.187C47.3369 60.4299 50.7405 63.8153 50.9845 63.8153C51.096 63.8153 52.5608 62.974 54.2399 61.9457L57.2928 60.0762L58.0736 60.4678C58.5031 60.6831 59.3815 61.0485 60.0257 61.2796L61.197 61.6999L61.9314 65.1811C62.3352 67.0958 62.7202 68.7169 62.7867 68.7835C62.8554 68.8523 63.9991 68.8894 65.436 68.8692L67.9644 68.8337L68.8341 65.3295C69.3124 63.4023 69.7516 61.7838 69.8102 61.733C69.8686 61.6821 70.385 61.4787 70.9576 61.2809C71.5303 61.0832 72.3913 60.7162 72.8709 60.4655L73.7431 60.0095L76.767 61.9911C78.4302 63.0809 79.8704 64.0031 79.9674 64.0404C80.1803 64.1221 83.6465 60.7265 83.6465 60.4363C83.6465 60.3273 83.1444 59.3982 82.5306 58.3713C81.5315 56.6994 81.3852 56.5137 81.1316 56.5947C80.9758 56.6444 80.7629 56.6911 80.6585 56.6982C80.5513 56.7055 79.7701 55.6905 78.8631 54.365C77.9801 53.0746 77.2186 52.0481 77.171 52.0839C77.1234 52.1198 76.7474 52.6538 76.3354 53.2706C75.9033 53.9176 75.0989 54.8552 74.4342 55.4865C68.8704 60.771 60.0125 60.138 55.1949 54.1116C54.2311 52.9059 53.1993 50.8973 52.8142 49.4769C51.5242 44.7187 52.9462 39.6681 56.5167 36.3258C57.4055 35.4939 58.7027 34.5802 59.6106 34.1465L60.0908 33.9172V32.2468C60.0908 30.9953 60.0501 30.5774 59.9281 30.5803C59.8387 30.5824 59.2972 30.8059 58.7249 31.0768L57.6841 31.5695L54.55 29.5088C52.8263 28.3753 51.3319 27.448 51.2292 27.448C51.1264 27.448 50.2672 28.2261 49.3198 29.1768Z" fill="white"/>
</svg>
