<svg width="132" height="88" viewBox="0 0 132 88" fill="none" xmlns="http://www.w3.org/2000/svg">
<path d="M66.9039 22.5927L66.3008 10.5312L91.0267 35.2571L100.073 52.1431H86.8052L66.9039 22.5927Z" fill="#2670B7"/>
<path d="M76.5527 26.2098L63.8882 14.1484L63.2852 20.1791L71.7281 29.8283L76.5527 26.2098Z" fill="#3C8AD5"/>
<path d="M91.0265 35.2588L76.5528 20.7852L55.4453 58.7786L81.9804 77.4738L91.0265 35.2588Z" fill="#67B2FB"/>
<path d="M80.1712 44.3032C82.1696 44.3032 83.7896 42.6832 83.7896 40.6848C83.7896 38.6864 82.1696 37.0664 80.1712 37.0664C78.1728 37.0664 76.5527 38.6864 76.5527 40.6848C76.5527 42.6832 78.1728 44.3032 80.1712 44.3032Z" fill="white" fill-opacity="0.996078"/>
<path d="M72.3315 58.7773H31.9258L40.9718 77.4725H81.9806L72.3315 58.7773Z" fill="#3C8AD5"/>
</svg>
