<svg width="132" height="88" viewBox="0 0 132 88" fill="none" xmlns="http://www.w3.org/2000/svg">
<path fill-rule="evenodd" clip-rule="evenodd" d="M59.4415 71.4253C68.0796 71.4253 75.7859 67.4312 80.8126 61.189C81.4303 61.2555 82.0578 61.2899 82.6936 61.2899C92.2422 61.2899 99.9834 53.5489 99.9834 43.9998C99.9834 34.4507 92.2422 26.7098 82.6936 26.7098C82.0578 26.7098 81.4303 26.7441 80.8134 26.811C75.7859 20.5684 68.0804 16.5742 59.4415 16.5742C44.2948 16.5742 32.0156 28.8531 32.0156 43.9998C32.0156 59.1466 44.2948 71.4253 59.4415 71.4253ZM86.8667 43.9998C86.8667 50.5077 84.5996 56.4862 80.8126 61.189C72.1487 60.2518 65.4027 52.9137 65.4027 43.9998C65.4027 35.0863 72.1496 27.7479 80.8134 26.811C84.6007 31.5135 86.8667 37.492 86.8667 43.9998Z" fill="#896FF2"/>
</svg>
