<svg width="132" height="88" viewBox="0 0 132 88" fill="none" xmlns="http://www.w3.org/2000/svg">
<path fill-rule="evenodd" clip-rule="evenodd" d="M94.5254 44.0715C94.5204 45.9949 94.3257 47.8735 93.9577 49.6895C88.487 50.0048 84.0068 50.6313 79.5931 51.8415C75.8074 52.8795 72.1263 54.3317 67.9576 56.3265V51.2408C72.8205 48.8093 76.7731 47.1866 80.7763 46.089C84.8781 44.9643 89.1112 44.3695 94.5254 44.0715ZM63.4831 51.8336C53.4217 47.0958 47.3001 45.2331 37.4754 44.2195C37.4899 46.1483 37.6959 48.0316 38.0753 49.8512C47.7396 50.8612 54.1283 52.6965 63.4831 56.9687V51.8336ZM63.4831 61.9014C54.1213 57.493 48.1705 55.5739 39.4738 54.5118C40.1352 56.1791 40.9491 57.7693 41.8985 59.2651C49.6023 60.3391 55.5195 62.1699 63.4831 65.6953V61.9014ZM46.2157 64.5495C51.3444 69.4883 58.3175 72.5254 66 72.5254C73.9134 72.5254 81.0742 69.3032 86.2419 64.099C80.2042 65.1598 74.9912 67.076 67.9576 70.5527L65.759 72.2458L63.4831 70.6019C56.7579 67.5307 51.7532 65.7136 46.2157 64.5495ZM90.25 59.0284C91.1829 57.5262 91.9805 55.931 92.6248 54.2599C88.0969 54.5877 84.3856 55.1672 80.7763 56.1568C76.7731 57.2544 72.8205 58.8771 67.9576 61.3086V65.5798C75.9955 61.7606 82.1077 59.888 90.25 59.0284ZM94.1893 39.6087C88.6131 39.9195 84.069 40.5465 79.5931 41.7737C74.9723 43.0407 70.5072 44.9248 65.1213 47.6595C54.7538 42.7968 48.1714 40.8143 37.7885 39.7538C39.8391 26.0135 51.6888 15.4746 66 15.4746C80.2608 15.4746 92.0773 25.9394 94.1893 39.6087ZM99 44C99 62.2254 84.2254 77 66 77C47.7746 77 33 62.2254 33 44C33 25.7746 47.7746 11 66 11C84.2254 11 99 25.7746 99 44Z" fill="#2EA94E"/>
</svg>
