<svg width="361" height="360" viewBox="0 0 361 360" fill="none" xmlns="http://www.w3.org/2000/svg">
<path fill-rule="evenodd" clip-rule="evenodd" d="M284.308 180.26C284.29 187.254 283.582 194.085 282.244 200.689C262.35 201.836 246.058 204.114 230.009 208.515C216.243 212.289 202.856 217.57 187.698 224.824V206.33C205.381 197.488 219.754 191.588 234.311 187.596C249.227 183.507 264.62 181.344 284.308 180.26ZM171.427 208.486C134.84 191.257 112.58 184.484 76.8533 180.798C76.9062 187.812 77.6551 194.66 79.0346 201.277C114.178 204.95 137.409 211.624 171.427 227.159V208.486ZM171.427 245.096C137.384 229.066 115.745 222.087 84.1203 218.225C86.5251 224.288 89.4849 230.07 92.9372 235.51C120.951 239.415 142.468 246.072 171.427 258.892V245.096ZM108.636 254.725C127.286 272.685 152.643 283.729 180.579 283.729C209.355 283.729 235.394 272.012 254.186 253.087C232.231 256.945 213.274 263.913 187.698 276.555L179.703 282.712L171.427 276.734C146.971 265.566 128.773 258.959 108.636 254.725ZM268.761 234.649C272.153 229.186 275.054 223.385 277.397 217.309C260.931 218.501 247.436 220.608 234.311 224.207C219.754 228.198 205.381 234.098 187.698 242.94V258.472C216.926 244.584 239.153 237.775 268.761 234.649ZM283.086 164.031C262.808 165.162 246.284 167.442 230.009 171.904C213.206 176.511 196.969 183.363 177.384 193.307C139.684 175.625 115.748 168.416 77.9917 164.559C85.4484 114.595 128.538 76.2712 180.579 76.2712C232.437 76.2712 275.406 114.325 283.086 164.031ZM300.579 180C300.579 246.274 246.853 300 180.579 300C114.305 300 60.5791 246.274 60.5791 180C60.5791 113.726 114.305 60 180.579 60C246.853 60 300.579 113.726 300.579 180Z" fill="#2EA94E"/>
</svg>
