<svg width="132" height="88" viewBox="0 0 132 88" fill="none" xmlns="http://www.w3.org/2000/svg">
<path fill-rule="evenodd" clip-rule="evenodd" d="M59.944 57.8598C59.0454 60.139 56.8263 68.9339 54.9853 76.2802C58.4407 77.4589 62.1459 78.0984 66.0004 78.0984C84.8333 78.0984 100.1 62.8314 100.1 43.9984C100.1 25.1655 84.8333 9.89844 66.0004 9.89844C47.1675 9.89844 31.9004 25.1655 31.9004 43.9984C31.9004 45.1571 31.9582 46.302 32.071 47.431C39.1613 38.9555 44.4054 32.7858 47.8033 28.9214C54.2632 21.5747 58.4885 19.464 63.2303 18.1537C61.7467 20.3764 61.1714 22.9681 61.4362 25.476C67.1802 21.1735 73.0671 21.5747 73.0671 21.5747C69.5105 24.9491 67.4755 29.7926 66.7173 31.8863C67.63 33.3138 68.266 35.0549 68.4681 37.1804C68.4698 37.1983 71.9124 37.2254 78.7961 37.2612C79.6242 37.2612 80.4299 37.2392 81.2028 37.218C85.8345 37.0913 89.2841 36.997 89.2841 41.8722C89.2841 46.1966 86.5679 53.1805 82.7222 56.2828C80.1484 56.2216 72.8333 55.6634 69.3938 51.3535C68.9948 50.8516 68.2564 50.7658 67.7451 51.1577C67.2338 51.5495 67.1465 52.2742 67.5456 52.7762C69.8476 55.6608 73.4192 57.1228 76.6269 57.8598H59.944ZM94.0581 33.9259C95.0055 34.5473 95.0629 36.0946 94.1843 37.3832C93.3055 38.6697 91.8269 39.2085 90.8797 38.5849C89.9324 37.9633 89.8772 36.414 90.7537 35.1276C91.6323 33.8411 93.1109 33.3021 94.0581 33.9259ZM61.6773 35.0713V36.8111C61.6773 37.3569 61.2266 37.7985 60.6744 37.7985C60.1198 37.7985 59.6714 37.3569 59.6714 36.8111V35.0713C59.6714 34.5253 60.1198 34.0839 60.6744 34.0839C61.2287 34.0839 61.6773 34.5253 61.6773 35.0713Z" fill="#3E40C8"/>
</svg>
