<svg width="132" height="88" viewBox="0 0 132 88" fill="none" xmlns="http://www.w3.org/2000/svg">
<path fill-rule="evenodd" clip-rule="evenodd" d="M98.8873 21.2861C97.449 22.2923 96.5408 22.8225 95.1579 23.1452C95.2807 21.2774 95.8108 18.9391 97.0547 16.2814L98.2887 13.6421L95.8369 15.2078C95.0721 15.6957 93.4307 16.3542 91.8393 16.9909C91.0452 17.3093 90.2565 17.6309 89.5059 17.9536C83.9722 11.2984 75.3794 7.55078 64.4946 7.55078C49.9358 7.55078 39.0346 15.0122 34.647 27.0069C34.1962 27.1471 33.942 27.2275 33.9246 27.2361C33.6791 27.3176 33.4836 27.4958 33.3695 27.7251C29.3252 35.9754 31.8335 40.8867 31.9432 41.0899C32.0833 41.3529 32.3299 41.5104 32.5971 41.5658C33.3902 63.5221 46.868 80.453 63.9807 80.453C82.2406 80.453 95.209 65.1183 96.3627 42.7795C96.3877 42.7795 96.4094 42.8013 96.4344 42.8013C96.5788 42.8013 96.7277 42.7665 96.8635 42.6991C97.1481 42.5589 97.3425 42.2916 97.3892 41.9776C97.9454 38.1442 97.563 35.2116 96.9775 33.0721C98.7048 30.3861 99.3674 26.6505 99.7998 24.159C99.9443 23.3278 100.071 22.6095 100.19 22.2238L100.924 19.8594L98.8873 21.2861Z" fill="url(#paint0_linear_2056_27292)"/>
<path fill-rule="evenodd" clip-rule="evenodd" d="M90.6814 51.2057C86.1146 68.8331 77.7304 58.6889 65.4583 58.6889C53.1863 58.6889 42.5567 70.4368 38.5547 51.2057C35.7162 37.5681 52.3454 40.1618 64.6175 40.1618C76.8853 40.1618 94.0588 38.1538 90.6814 51.2057Z" fill="white"/>
<path fill-rule="evenodd" clip-rule="evenodd" d="M53.326 52.2931C53.326 54.0838 51.8747 52.5354 50.0834 52.5354C48.2931 52.5354 46.8418 54.0838 46.8418 52.2931C46.8418 50.5013 48.2931 49.0508 50.0834 49.0508C51.8747 49.0508 53.326 50.5013 53.326 52.2931Z" fill="#6C60C9"/>
<path fill-rule="evenodd" clip-rule="evenodd" d="M82.1522 52.2931C82.1522 54.0838 80.7009 52.5354 78.9106 52.5354C77.1193 52.5354 75.668 54.0838 75.668 52.2931C75.668 50.5013 77.1193 49.0508 78.9106 49.0508C80.7009 49.0508 82.1522 50.5013 82.1522 52.2931Z" fill="#6C60C9"/>
<path fill-rule="evenodd" clip-rule="evenodd" d="M87.1507 20.1156C88.8693 18.8204 94.4703 17.0852 96.2866 15.9258C94.945 18.7911 94.3856 21.3076 94.2878 23.3242C94.2454 23.3286 94.2194 23.3405 94.177 23.3449C93.9315 23.3796 93.6806 23.4253 93.435 23.472V23.4937C93.3286 23.5155 93.2221 23.5491 93.1168 23.5698C93.1124 23.5622 93.1081 23.5535 93.1037 23.5405C91.194 23.9566 89.2886 24.7248 87.6721 25.7983C86.4283 25.3865 85.1302 25.0551 83.832 24.7205C84.2774 22.9841 85.4952 21.3586 87.1507 20.1156Z" fill="white"/>
<path fill-rule="evenodd" clip-rule="evenodd" d="M96.6399 31.9682C96.0207 30.2112 95.3244 29.2094 95.1843 29.0182C95.1799 29.0138 95.1799 29.0095 95.1756 29.0095C95.1712 29.0051 95.1669 28.9964 95.1636 28.9932C95.1506 28.9758 95.1332 28.9715 95.1202 28.9584C95.1202 28.9541 95.1169 28.9465 95.1169 28.9465C95.0354 28.8563 94.942 28.7802 94.8366 28.7291C92.8932 27.7578 90.852 26.9091 88.7305 26.1616C90.4566 25.1435 92.4391 24.4513 94.2978 24.184C96.5128 23.8613 97.5394 23.2626 99.3763 21.9805C98.9016 23.5093 98.5453 28.4879 96.6399 31.9682Z" fill="white"/>
<path fill-rule="evenodd" clip-rule="evenodd" d="M96.4297 41.8422C96.4297 41.8422 68.016 26.0652 32.788 40.6404C32.788 40.6404 30.3557 36.0529 34.235 28.1449C34.235 28.1449 68.4788 16.6131 94.4059 29.5879C94.4059 29.5879 97.6181 33.6712 96.4297 41.8422Z" fill="white"/>
<defs>
<linearGradient id="paint0_linear_2056_27292" x1="3523.57" y1="35.5923" x2="3523.57" y2="9559.21" gradientUnits="userSpaceOnUse">
<stop stop-color="#617BE0"/>
<stop offset="1" stop-color="#734CB9"/>
</linearGradient>
</defs>
</svg>
