<svg width="132" height="88" viewBox="0 0 132 88" fill="none" xmlns="http://www.w3.org/2000/svg">
<path fill-rule="evenodd" clip-rule="evenodd" d="M95.2893 23.7764C94.0084 24.6722 93.1996 25.1444 91.9681 25.4317C92.0775 23.7686 92.5496 21.6867 93.6574 19.3203L94.7563 16.9704L92.5728 18.3645C91.8918 18.7989 90.43 19.3851 89.0126 19.9521C88.3053 20.2355 87.603 20.5219 86.9345 20.8092C82.0062 14.8836 74.3538 11.5469 64.66 11.5469C51.6942 11.5469 41.9859 18.1903 38.0783 28.87C37.6768 28.9948 37.4505 29.0664 37.435 29.0741C37.2163 29.1467 37.0422 29.3054 36.9406 29.5094C33.3388 36.8554 35.5727 41.2281 35.6704 41.409C35.7952 41.6432 36.0148 41.7834 36.2528 41.8328C36.959 61.382 48.9621 76.4568 64.2023 76.4568C80.4641 76.4568 92.0136 62.8032 93.0411 42.9135C93.0634 42.9135 93.0826 42.9329 93.1049 42.9329C93.2335 42.9329 93.3661 42.9019 93.487 42.8419C93.7405 42.7171 93.9137 42.4791 93.9552 42.1994C94.4506 38.7863 94.1101 36.1752 93.5885 34.2703C95.1268 31.8788 95.7169 28.5527 96.102 26.3343C96.2306 25.5942 96.3439 24.9547 96.4493 24.6113L97.1033 22.5061L95.2893 23.7764Z" fill="url(#paint0_linear_2056_22630)"/>
<path fill-rule="evenodd" clip-rule="evenodd" d="M87.9812 50.4152C83.9142 66.11 76.4475 57.078 65.5182 57.078C54.5888 57.078 45.1224 67.5381 41.5583 50.4152C39.0304 38.2726 53.8401 40.5821 64.7694 40.5821C75.6947 40.5821 90.989 38.7942 87.9812 50.4152Z" fill="white"/>
<path fill-rule="evenodd" clip-rule="evenodd" d="M54.7136 51.3825C54.7136 52.9769 53.4212 51.5984 51.8258 51.5984C50.2315 51.5984 48.9389 52.9769 48.9389 51.3825C48.9389 49.7873 50.2315 48.4956 51.8258 48.4956C53.4212 48.4956 54.7136 49.7873 54.7136 51.3825Z" fill="#6C60C9"/>
<path fill-rule="evenodd" clip-rule="evenodd" d="M80.3847 51.3825C80.3847 52.9769 79.0922 51.5984 77.4979 51.5984C75.9026 51.5984 74.6101 52.9769 74.6101 51.3825C74.6101 49.7873 75.9026 48.4956 77.4979 48.4956C79.0922 48.4956 80.3847 49.7873 80.3847 51.3825Z" fill="#6C60C9"/>
<path fill-rule="evenodd" clip-rule="evenodd" d="M84.837 22.7334C86.3675 21.5802 91.3557 20.0352 92.9732 19.003C91.7784 21.5541 91.2802 23.7947 91.1932 25.5903C91.1554 25.5942 91.1322 25.6048 91.0945 25.6087C90.8758 25.6397 90.6523 25.6803 90.4336 25.7219V25.7412C90.3389 25.7606 90.244 25.7906 90.1502 25.809C90.1463 25.8022 90.1425 25.7944 90.1386 25.7828C88.4378 26.1534 86.7409 26.8374 85.3013 27.7932C84.1936 27.4265 83.0375 27.1315 81.8815 26.8335C82.2782 25.2875 83.3625 23.8402 84.837 22.7334Z" fill="white"/>
<path fill-rule="evenodd" clip-rule="evenodd" d="M93.2865 33.2883C92.7351 31.724 92.1149 30.8319 91.9902 30.6617C91.9863 30.6578 91.9863 30.6539 91.9824 30.6539C91.9786 30.65 91.9747 30.6423 91.9719 30.6394C91.9601 30.6239 91.9447 30.62 91.9332 30.6084C91.9332 30.6046 91.9301 30.5979 91.9301 30.5979C91.8577 30.5174 91.7744 30.4498 91.6806 30.4043C89.9498 29.5394 88.1319 28.7838 86.2425 28.1182C87.7798 27.2117 89.5454 26.5954 91.2007 26.3575C93.1734 26.0701 94.0876 25.5371 95.7235 24.3955C95.3008 25.7567 94.9834 30.1896 93.2865 33.2883Z" fill="white"/>
<path fill-rule="evenodd" clip-rule="evenodd" d="M93.101 42.0787C93.101 42.0787 67.7964 28.0313 36.4231 41.0088C36.4231 41.0088 34.257 36.9241 37.7117 29.8831C37.7117 29.8831 68.2086 19.6155 91.2986 31.1678C91.2986 31.1678 94.1595 34.8035 93.101 42.0787Z" fill="white"/>
<defs>
<linearGradient id="paint0_linear_2056_22630" x1="66" y1="11.7965" x2="66" y2="96.592" gradientUnits="userSpaceOnUse">
<stop stop-color="#617BE0"/>
<stop offset="1" stop-color="#734CB9"/>
</linearGradient>
</defs>
</svg>
