<svg width="132" height="88" viewBox="0 0 132 88" fill="none" xmlns="http://www.w3.org/2000/svg">
<rect x="36.6016" y="34.9375" width="59.3612" height="18.4654" fill="#DED9D7"/>
<path fill-rule="evenodd" clip-rule="evenodd" d="M31.957 77.9868L65.9708 77.9584L99.9845 77.9298L100.013 43.9727L100.041 10.0156H65.9993H31.957V77.9868ZM48.8365 43.3191C48.8365 47.0298 48.8852 47.3144 49.595 47.7532C50.0774 48.0513 51.2825 48.163 51.9801 47.9743L52.4616 47.844V46.904V45.9639L51.9801 45.9738L51.4986 45.9835L51.4653 45.1622L51.432 44.3409H51.9468H52.4616V43.3046V42.2684L51.4923 42.3429C50.9591 42.3838 50.3395 42.494 50.1154 42.5876C49.8914 42.6813 49.6818 42.7317 49.6498 42.6997C49.6179 42.6678 49.651 42.6416 49.7235 42.6416C49.7961 42.6416 50.0674 42.4505 50.3266 42.2168C50.838 41.7559 51.3259 40.8448 51.3276 40.3476L51.3287 40.0361H50.0826H48.8365V43.3191ZM53.028 44.001V47.966H54.2741H55.5203V45.1317V42.2975L55.2654 42.3497C55.1251 42.3784 54.6791 42.4314 54.2741 42.4674L53.5378 42.5329L53.9909 42.3179C54.7816 41.9427 55.5203 40.9519 55.5203 40.2663C55.5203 40.0488 55.4513 40.0361 54.2741 40.0361H53.028V44.001ZM69.6104 40.2013C69.5739 40.2963 69.5627 41.7892 69.5856 43.5187C69.6234 46.3808 69.6473 46.7037 69.8523 47.1132C69.9761 47.3607 70.2472 47.6609 70.4547 47.7803C70.9236 48.0503 72.1676 48.152 72.8245 47.9743L73.306 47.844V46.8993V45.9548L72.8018 46.0115C72.3404 46.0635 72.292 46.0449 72.2284 45.7919C72.1902 45.6398 72.1749 45.2638 72.1944 44.9565L72.2298 44.3975L72.7722 44.3629L73.3146 44.3281L73.282 43.3433L73.2493 42.3584L72.3366 42.3761C71.7963 42.3865 71.2475 42.4674 70.9917 42.5743C70.3941 42.824 70.3889 42.8067 70.9349 42.3867C71.4905 41.9594 72.0376 41.0552 72.0842 40.4874L72.1165 40.0927L70.8966 40.0606C69.8873 40.0339 69.6652 40.0582 69.6104 40.2013ZM39.2073 44.0577V47.966H40.51H41.8128V44.0577V40.1494H40.51H39.2073V44.0577ZM44.2731 42.3122C43.3987 42.518 42.7617 43.0335 42.445 43.7916L42.2723 44.2051L43.2604 44.3384C43.8038 44.4118 44.3376 44.4968 44.4467 44.5273C44.5748 44.5631 44.6449 44.5199 44.6449 44.4051C44.6449 44.0978 45.08 43.7536 45.3587 43.8406C45.7122 43.9509 45.774 44.0905 45.7761 44.7833C45.7777 45.3591 45.766 45.3849 45.5795 45.2166C45.0498 44.7384 43.5995 44.6948 42.8864 45.1355C41.8157 45.7972 41.9637 47.4227 43.1403 47.924C43.8084 48.2087 44.9386 48.0612 45.5795 47.6055L45.8911 47.3842V47.6751V47.966H47.1372H48.3833L48.3808 46.0119C48.378 43.8233 48.2754 43.4054 47.6011 42.838C46.9261 42.2701 45.4455 42.0361 44.2731 42.3122ZM60.0517 42.3032C59.3118 42.4301 58.8464 42.9389 58.6541 43.8311C58.6272 43.9557 58.5993 43.6626 58.5921 43.1797L58.579 42.3018H57.3328H56.0867V45.1339V47.966H57.3895H58.6922V46.2194C58.6922 45.2587 58.7237 44.3906 58.7622 44.2904C58.8732 44.0012 59.2234 43.8609 59.4852 44.001C59.6981 44.115 59.7118 44.2383 59.7118 46.0441V47.966H61.0146H62.3174L62.3149 45.8419C62.3127 44.0026 62.2836 43.6545 62.0978 43.2452C61.7597 42.5005 60.9841 42.1434 60.0517 42.3032ZM65.376 42.3148C64.6213 42.4042 64.2358 42.5493 63.7313 42.9342C62.5906 43.8042 62.4212 45.9686 63.4083 47.0611C63.9432 47.6531 64.6298 47.9641 65.578 48.0436C68.0605 48.2517 69.7036 46.4891 69.0673 44.3002C68.6392 42.8278 67.2689 42.0907 65.376 42.3148ZM84.1475 42.308C83.6003 42.401 83.0173 42.9566 82.8094 43.583L82.652 44.0577L82.6189 43.1797L82.5858 42.3018H81.3444H80.103V46.0402V49.7786H81.4058H82.7086V48.4104V47.0424L83.0148 47.4063C84.0639 48.653 86.0918 48.0733 86.5584 46.3934C86.7087 45.8525 86.7039 44.2849 86.5503 43.7318C86.4832 43.4902 86.2414 43.0948 86.0129 42.8529C85.551 42.3642 84.9131 42.1778 84.1475 42.308ZM89.7085 42.3225C88.5994 42.4654 87.6824 43.1144 87.3024 44.0257C87.0584 44.6106 87.0769 45.8634 87.3381 46.4367C88.3061 48.5622 92.0846 48.6381 93.0328 46.551C93.381 45.7845 93.3832 45.7862 91.8719 45.6432L91.1229 45.5723L91.0531 45.9215C90.9173 46.6004 90.0291 46.6107 89.681 45.9374C89.3217 45.2426 89.31 45.2472 91.4472 45.2472H93.3889L93.3204 44.6692C93.1229 43.0013 91.6859 42.0677 89.7085 42.3225ZM73.4193 42.4263C73.4193 42.6711 74.8925 47.2071 75.0231 47.3646C75.2934 47.6903 75.6541 47.7914 76.7612 47.8519C77.8649 47.9123 77.8823 47.9175 77.4409 48.0527C77.1916 48.1289 76.4143 48.1916 75.7133 48.1919L74.4388 48.1926V49.0422V49.8919H75.2662C75.9322 49.8919 76.21 49.8339 76.6906 49.5944C77.5888 49.1468 77.8937 48.5864 79.0191 45.314C79.5531 43.762 79.9898 42.4476 79.9898 42.3932C79.9898 42.3388 79.4184 42.3088 78.7201 42.3264L77.4503 42.3584L77.1383 44.0577C76.9667 44.9923 76.8236 45.9099 76.8203 46.0968C76.8082 46.7911 76.6254 46.7387 76.5503 46.0194C76.4858 45.4009 76.1347 43.3287 75.9636 42.5567C75.9092 42.3113 75.861 42.3018 74.6632 42.3018C73.835 42.3018 73.4193 42.3434 73.4193 42.4263ZM83.1964 44.0478C82.8982 44.3042 82.876 44.3854 82.8386 45.3573C82.794 46.5202 82.9346 46.8332 83.5016 46.8332C84.0729 46.8332 84.2379 46.4854 84.2379 45.282C84.2379 44.2896 84.2175 44.191 83.9705 43.9911C83.6291 43.7146 83.5796 43.7182 83.1964 44.0478ZM89.9084 44.0294C89.749 44.1696 89.5861 44.4542 89.5461 44.6617L89.4736 45.0393L90.0278 44.961C90.9949 44.8244 91.3631 44.3951 90.8844 43.962C90.5987 43.7034 90.2515 43.7274 89.9084 44.0294ZM65.4748 44.0751C65.3723 44.1986 65.3194 44.564 65.3194 45.1482C65.3194 45.9131 65.3538 46.0683 65.5718 46.2863C65.9434 46.6578 66.4009 46.4719 66.6026 45.8676C66.7829 45.3269 66.6893 44.3762 66.4271 44.0866C66.2001 43.8357 65.6788 43.8294 65.4748 44.0751ZM44.9488 45.7043C44.3994 46.1365 44.6107 47.2863 45.2393 47.2863C45.7097 47.2863 45.7778 47.1702 45.7778 46.3679C45.7778 45.9384 45.731 45.587 45.6738 45.587C45.6166 45.587 45.4984 45.5596 45.4112 45.5262C45.3239 45.4927 45.1158 45.5729 44.9488 45.7043Z" fill="#E84F36"/>
</svg>
