<svg width="132" height="88" viewBox="0 0 132 88" fill="none" xmlns="http://www.w3.org/2000/svg">
<path fill-rule="evenodd" clip-rule="evenodd" d="M66.0003 8.06804C59.3729 8.06804 47.373 8.06804 30.0006 8.06804C30.0006 25.4082 30.0006 37.3858 30.0006 44.0008C30.0006 63.8459 46.1182 79.9336 66.0003 79.9336C85.8824 79.9336 102 63.8459 102 44.0008C102 24.1557 85.8824 8.06804 66.0003 8.06804Z" fill="#00264D"/>
<path fill-rule="evenodd" clip-rule="evenodd" d="M42.8879 35.4704H41.6973V22.2578H42.8879V35.4704ZM55.0991 30.7516C55.0641 29.9827 54.816 29.3448 54.3549 28.8379C53.8939 28.3311 53.2373 28.0777 52.3851 28.0777C51.9882 28.0777 51.6205 28.1505 51.282 28.2961C50.9435 28.4418 50.6458 28.6398 50.389 28.8903C50.1322 29.1409 49.9279 29.4263 49.7762 29.7467C49.6244 30.0671 49.5369 30.4021 49.5135 30.7516H55.0991ZM56.3073 31.1361V31.3983C56.3073 31.4915 56.3014 31.5905 56.2898 31.6954H49.496C49.5077 32.1032 49.5894 32.4877 49.7412 32.8489C49.8929 33.2101 50.103 33.5247 50.3715 33.7927C50.64 34.0606 50.9552 34.2733 51.317 34.4306C51.6789 34.5879 52.0699 34.6665 52.4902 34.6665C53.1088 34.6665 53.6429 34.5238 54.0923 34.2383C54.5417 33.9529 54.8831 33.6237 55.1166 33.2509L56.0096 33.9499C55.5193 34.5675 54.9795 35.0102 54.39 35.2782C53.8005 35.5462 53.1672 35.6802 52.4902 35.6802C51.8832 35.6802 51.32 35.5724 50.8005 35.3568C50.281 35.1413 49.8346 34.8413 49.461 34.4568C49.0875 34.0723 48.7927 33.6179 48.5768 33.0936C48.3608 32.5693 48.2529 31.9983 48.2529 31.3808C48.2529 30.7633 48.3579 30.1924 48.568 29.6681C48.7781 29.1438 49.07 28.6894 49.4435 28.3049C49.817 27.9204 50.2548 27.6203 50.7567 27.4048C51.2587 27.1892 51.8015 27.0815 52.3851 27.0815C53.0271 27.0815 53.5933 27.1892 54.0835 27.4048C54.5738 27.6203 54.9824 27.9116 55.3092 28.2786C55.6361 28.6457 55.8841 29.0739 56.0534 29.5632C56.2226 30.0526 56.3073 30.5769 56.3073 31.1361ZM66.6974 30.1924C66.6974 29.4816 66.5107 28.9515 66.1371 28.602C65.7636 28.2524 65.2208 28.0777 64.5087 28.0777C64.0185 28.0777 63.5632 28.165 63.143 28.3398C62.7228 28.5146 62.3667 28.7476 62.0749 29.0389L61.4096 28.2524C61.7481 27.9145 62.1946 27.6349 62.749 27.4135C63.3035 27.1922 63.9309 27.0815 64.6313 27.0815C65.0749 27.0815 65.4893 27.1426 65.8745 27.265C66.2597 27.3873 66.5982 27.5708 66.8901 27.8155C67.1819 28.0602 67.4095 28.3689 67.5729 28.7418C67.7363 29.1146 67.8181 29.5516 67.8181 30.0526V33.6354C67.8181 33.9499 67.8297 34.2762 67.8531 34.6141C67.8764 34.952 67.9114 35.2374 67.9581 35.4704H66.8901C66.855 35.2724 66.8258 35.0568 66.8025 34.8238C66.7792 34.5908 66.7675 34.3636 66.7675 34.1422H66.7325C66.3589 34.6898 65.9358 35.083 65.463 35.3219C64.9903 35.5607 64.4212 35.6802 63.7558 35.6802C63.4407 35.6802 63.1167 35.6365 62.7841 35.5491C62.4514 35.4617 62.1479 35.319 61.8736 35.1209C61.5992 34.9228 61.3716 34.6665 61.1907 34.3519C61.0097 34.0373 60.9193 33.6528 60.9193 33.1984C60.9193 32.5693 61.0798 32.0712 61.4008 31.7041C61.7218 31.3371 62.1508 31.0633 62.6878 30.8827C63.2247 30.7021 63.8405 30.5856 64.535 30.5332C65.2296 30.4808 65.9504 30.4545 66.6974 30.4545V30.1924ZM66.3473 31.3808C65.857 31.3808 65.3638 31.4012 64.8677 31.442C64.3716 31.4828 63.9222 31.5643 63.5195 31.6867C63.1167 31.809 62.787 31.9867 62.5302 32.2197C62.2734 32.4527 62.145 32.7615 62.145 33.146C62.145 33.4373 62.2004 33.682 62.3113 33.88C62.4222 34.0781 62.571 34.2383 62.7578 34.3607C62.9446 34.483 63.1518 34.5704 63.3794 34.6228C63.607 34.6752 63.8375 34.7015 64.071 34.7015C64.4912 34.7015 64.8648 34.6286 65.1916 34.483C65.5185 34.3374 65.7928 34.1393 66.0146 33.8888C66.2364 33.6383 66.4056 33.3499 66.5223 33.0237C66.6391 32.6974 66.6974 32.3537 66.6974 31.9925V31.3808H66.3473ZM73.6558 29.0913C73.6558 28.87 73.6499 28.5845 73.6382 28.235C73.6266 27.8854 73.6091 27.5708 73.5857 27.2912H74.7238C74.7472 27.5126 74.7647 27.7573 74.7764 28.0252C74.788 28.2932 74.7939 28.5146 74.7939 28.6894H74.8289C75.0624 28.2117 75.4125 27.8242 75.8795 27.5271C76.3464 27.23 76.8717 27.0815 77.4553 27.0815C77.6071 27.0815 77.7442 27.0873 77.8668 27.0989C77.9894 27.1106 78.1149 27.1339 78.2433 27.1689L78.0857 28.2874C78.0156 28.2641 77.8989 28.2408 77.7355 28.2175C77.5721 28.1942 77.4086 28.1825 77.2452 28.1825C76.93 28.1825 76.6265 28.2408 76.3347 28.3573C76.0429 28.4738 75.789 28.6573 75.5731 28.9078C75.3571 29.1583 75.182 29.4787 75.0478 29.8691C74.9135 30.2594 74.8464 30.7283 74.8464 31.276V35.4704H73.6558V29.0913ZM83.8008 27.2912C83.8241 27.5126 83.8417 27.7573 83.8533 28.0252C83.865 28.2932 83.8708 28.5146 83.8708 28.6894H83.9059C84.1393 28.2117 84.5187 27.8242 85.044 27.5271C85.5693 27.23 86.1237 27.0815 86.7074 27.0815C87.7463 27.0815 88.5255 27.3902 89.0449 28.0078C89.5644 28.6253 89.8241 29.4409 89.8241 30.4545V35.4704H88.6334V30.9439C88.6334 30.5128 88.5984 30.1225 88.5284 29.7729C88.4584 29.4234 88.3387 29.1234 88.1694 28.8729C88.0002 28.6224 87.7726 28.4272 87.4866 28.2874C87.2006 28.1476 86.8416 28.0777 86.4097 28.0777C86.0946 28.0777 85.7881 28.1417 85.4905 28.2699C85.1928 28.3981 84.9273 28.5932 84.6938 28.8554C84.4603 29.1175 84.2736 29.4496 84.1335 29.8516C83.9934 30.2536 83.9234 30.7283 83.9234 31.276V35.4704H82.7327V29.0913C82.7327 28.87 82.7269 28.5845 82.7152 28.235C82.7035 27.8854 82.686 27.5708 82.6627 27.2912H83.8008Z" fill="white"/>
<path d="M63.1208 53.9544C63.1208 55.4722 62.8654 56.8537 62.3545 58.0989C61.8436 59.344 61.113 60.4113 60.1625 61.3007C59.2121 62.1901 58.0656 62.8838 56.7231 63.3818C55.3806 63.8799 53.8896 64.1289 52.2501 64.1289C50.5868 64.1289 49.0899 63.8799 47.7593 63.3818C46.4286 62.8838 45.3 62.1901 44.3733 61.3007C43.4466 60.4113 42.7338 59.344 42.2348 58.0989C41.7358 56.8537 41.4863 55.4722 41.4863 53.9544V38.2656H47.5454V53.4563C47.5454 54.1441 47.6345 54.7963 47.8127 55.4129C47.9909 56.0296 48.2642 56.581 48.6325 57.0672C49.0008 57.5534 49.4879 57.9388 50.0938 58.2234C50.6997 58.508 51.4303 58.6503 52.2857 58.6503C53.1411 58.6503 53.8718 58.508 54.4777 58.2234C55.0836 57.9388 55.5766 57.5534 55.9568 57.0672C56.337 56.581 56.6102 56.0296 56.7766 55.4129C56.9429 54.7963 57.0261 54.1441 57.0261 53.4563V38.2656H63.1208V53.9544ZM83.2583 63.453L77.7338 54.5591L72.4232 63.453H65.1524L73.9915 50.1478L65.8652 38.2656H73.2074L77.912 46.0922L82.5455 38.2656H89.6381L81.6544 50.1478L90.7787 63.453H83.2583Z" fill="white"/>
<mask id="mask0_2247_5845" style="mask-type:luminance" maskUnits="userSpaceOnUse" x="41" y="38" width="50" height="27">
<path d="M63.1188 53.9504C63.1188 55.4683 62.8634 56.8498 62.3525 58.095C61.8417 59.3401 61.111 60.4074 60.1606 61.2968C59.2101 62.1861 58.0637 62.8799 56.7212 63.3779C55.3787 63.876 53.8877 64.125 52.2481 64.125C50.5849 64.125 49.0879 63.876 47.7573 63.3779C46.4267 62.8799 45.298 62.1861 44.3713 61.2968C43.4447 60.4074 42.7318 59.3401 42.2328 58.095C41.7339 56.8498 41.4844 55.4683 41.4844 53.9504V38.2617H47.5434V53.4524C47.5434 54.1402 47.6326 54.7924 47.8108 55.409C47.989 56.0257 48.2622 56.5771 48.6305 57.0633C48.9988 57.5495 49.4859 57.9349 50.0918 58.2195C50.6977 58.5041 51.4284 58.6464 52.2838 58.6464C53.1392 58.6464 53.8698 58.5041 54.4757 58.2195C55.0817 57.9349 55.5747 57.5495 55.9549 57.0633C56.335 56.5771 56.6083 56.0257 56.7746 55.409C56.941 54.7924 57.0241 54.1402 57.0241 53.4524V38.2617H63.1188V53.9504ZM83.2563 63.4491L77.7319 54.5552L72.4213 63.4491H65.1504L73.9895 50.1439L65.8632 38.2617H73.2054L77.9101 46.0883L82.5435 38.2617H89.6362L81.6525 50.1439L90.7767 63.4491H83.2563Z" fill="white"/>
</mask>
<g mask="url(#mask0_2247_5845)">
<path d="M47.2284 51.1287C53.0306 51.1287 57.7342 46.4338 57.7342 40.6425C57.7342 34.8511 53.0306 30.1562 47.2284 30.1562C41.4262 30.1562 36.7227 34.8511 36.7227 40.6425C36.7227 46.4338 41.4262 51.1287 47.2284 51.1287Z" fill="#FFD663"/>
<path fill-rule="evenodd" clip-rule="evenodd" d="M55.9136 66.5086C63.4177 66.5086 69.501 60.4366 69.501 52.9465C69.501 45.4563 63.4177 34.9102 55.9136 34.9102C48.4095 34.9102 42.3262 45.4563 42.3262 52.9465C42.3262 60.4366 48.4095 66.5086 55.9136 66.5086Z" fill="#FF66A9"/>
<path d="M44.1483 65.949C49.9505 65.949 54.6541 61.2542 54.6541 55.4628C54.6541 49.6714 49.9505 44.9766 44.1483 44.9766C38.3462 44.9766 33.6426 49.6714 33.6426 55.4628C33.6426 61.2542 38.3462 65.949 44.1483 65.949Z" fill="#00DFFF"/>
<path d="M44.1483 47.7732C49.9505 47.7732 54.6541 43.0784 54.6541 37.287C54.6541 31.4956 49.9505 26.8008 44.1483 26.8008C38.3462 26.8008 33.6426 31.4956 33.6426 37.287C33.6426 43.0784 38.3462 47.7732 44.1483 47.7732Z" fill="#EAF326"/>
<path d="M75.5235 69.3092C82.4087 69.3092 87.9903 63.738 87.9903 56.8655C87.9903 49.9931 82.4087 44.4219 75.5235 44.4219C68.6382 44.4219 63.0566 49.9931 63.0566 56.8655C63.0566 63.738 68.6382 69.3092 75.5235 69.3092Z" fill="#1BF684"/>
<path d="M88.2714 75.7385C94.6151 75.7385 99.7577 70.6054 99.7577 64.2735C99.7577 57.9416 94.6151 52.8086 88.2714 52.8086C81.9277 52.8086 76.7852 57.9416 76.7852 64.2735C76.7852 70.6054 81.9277 75.7385 88.2714 75.7385Z" fill="#FFD663"/>
<path d="M77.4848 48.8946C85.1436 48.8946 91.3524 42.6974 91.3524 35.0527C91.3524 27.4081 85.1436 21.2109 77.4848 21.2109C69.8259 21.2109 63.6172 27.4081 63.6172 35.0527C63.6172 42.6974 69.8259 48.8946 77.4848 48.8946Z" fill="#4A90E2"/>
</g>
</svg>
