<svg width="132" height="88" viewBox="0 0 132 88" fill="none" xmlns="http://www.w3.org/2000/svg">
<mask id="mask0_2056_25095" style="mask-type:luminance" maskUnits="userSpaceOnUse" x="34" y="12" width="64" height="64">
<path d="M34.0156 12.0156H97.9852V75.9852H34.0156V12.0156Z" fill="white"/>
</mask>
<g mask="url(#mask0_2056_25095)">
<path d="M66.0527 31.3398V56.661C73.0355 56.661 78.7129 50.9839 78.7129 44.0006C78.7129 37.0172 73.0625 31.3398 66.0527 31.3398Z" fill="black"/>
<path d="M66.0528 56.661V31.3398C59.07 31.3398 53.3926 37.0172 53.3926 44.0006C53.3926 50.9839 59.07 56.661 66.0528 56.661Z" fill="white"/>
<path d="M81.0067 32.9925L92.734 26.2223C90.0423 22.1974 86.4701 18.8124 82.3121 16.3603C77.994 13.8281 73.1164 12.3355 68.1328 12.0156V25.556C73.3834 26.1423 77.994 28.9409 81.0067 32.9925Z" fill="black"/>
<path d="M94.789 58.2062C96.9739 53.8082 98.1204 48.9305 98.1204 43.9997C98.1204 39.042 96.9739 34.1908 94.789 29.793L83.0605 36.5632C84.0739 38.8553 84.6338 41.3608 84.6338 43.9997C84.6338 46.6384 84.0739 49.1706 83.0605 51.436L94.789 58.2062Z" fill="black"/>
<path d="M68.1328 75.9848C73.1433 75.665 78.021 74.1726 82.339 71.6398C86.524 69.1879 90.0954 65.8027 92.761 61.778L89.1629 59.699L81.0328 55.0078C78.021 59.0594 73.4103 61.8581 68.1587 62.4444V75.9848H68.1328Z" fill="black"/>
<path d="M51.126 55.0078L41.9572 60.312L39.3984 61.8047C42.0902 65.8291 45.6615 69.2146 49.8195 71.6662C54.1375 74.1992 59.0152 75.6914 64.0268 76.0112V62.471C58.7493 61.8581 54.1114 59.0594 51.126 55.0078Z" fill="black"/>
<path d="M37.347 29.793C35.1621 34.1908 34.0156 39.042 34.0156 43.9995C34.0156 48.9572 35.1621 53.8082 37.347 58.2062L49.0756 51.436C48.062 49.1439 47.5023 46.6384 47.5023 43.9995C47.5023 41.3608 48.062 38.8286 49.0756 36.5632L37.347 29.793Z" fill="black"/>
<path d="M63.9998 12.0156C58.9891 12.3355 54.1375 13.8281 49.8195 16.3603C45.6356 18.8124 42.0902 22.1974 39.3984 26.2223L40.278 26.7286L51.1529 32.9925C54.1645 28.9409 58.7754 26.1423 64.0268 25.556V12.0156H63.9998Z" fill="black"/>
<mask id="mask1_2056_25095" style="mask-type:luminance" maskUnits="userSpaceOnUse" x="34" y="12" width="64" height="64">
<path d="M34.0156 12.0156H97.9852V75.9852H34.0156V12.0156Z" fill="white"/>
</mask>
<g mask="url(#mask1_2056_25095)">
<path d="M66.0527 31.3398V56.661C73.0355 56.661 78.7129 50.9839 78.7129 44.0006C78.7129 37.0172 73.0625 31.3398 66.0527 31.3398Z" fill="black"/>
<path d="M66.0508 56.661V31.3398C59.068 31.3398 53.3906 37.0172 53.3906 44.0006C53.3906 50.9839 59.068 56.661 66.0508 56.661Z" fill="white"/>
<path d="M81.0067 32.9925L92.734 26.2223C90.0423 22.1974 86.4701 18.8124 82.3121 16.3603C77.994 13.8281 73.1164 12.3355 68.1328 12.0156V25.556C73.3834 26.1423 77.994 28.9409 81.0067 32.9925Z" fill="#7EC1F3"/>
<path d="M94.789 58.2062C96.9739 53.8082 98.1204 48.9305 98.1204 43.9997C98.1204 39.042 96.9739 34.1908 94.789 29.793L83.0605 36.5632C84.0739 38.8553 84.6338 41.3608 84.6338 43.9997C84.6338 46.6384 84.0739 49.1706 83.0605 51.436L94.789 58.2062Z" fill="#6CACF1"/>
<path d="M68.1328 75.9848C73.1433 75.665 78.021 74.1726 82.339 71.6398C86.524 69.1879 90.0954 65.8027 92.761 61.778L89.1629 59.699L81.0328 55.0078C78.021 59.0594 73.4103 61.8581 68.1587 62.4444V75.9848H68.1328Z" fill="#5F94EE"/>
<path d="M51.126 55.0078L41.9572 60.312L39.3984 61.8047C42.0902 65.8291 45.6615 69.2146 49.8195 71.6662C54.1375 74.1992 59.0152 75.6914 64.0268 76.0112V62.471C58.7493 61.8581 54.1114 59.0594 51.126 55.0078Z" fill="#587CE9"/>
<path d="M37.347 29.793C35.1621 34.1908 34.0156 39.042 34.0156 43.9995C34.0156 48.9572 35.1621 53.8082 37.347 58.2062L49.0756 51.436C48.062 49.1439 47.5023 46.6384 47.5023 43.9995C47.5023 41.3608 48.062 38.8286 49.0756 36.5632L37.347 29.793Z" fill="#5563E6"/>
<path d="M63.9998 12.0156C58.9891 12.3355 54.1375 13.8281 49.8195 16.3603C45.6356 18.8124 42.0902 22.1974 39.3984 26.2223L40.278 26.7286L51.1529 32.9925C54.1645 28.9409 58.7754 26.1423 64.0268 25.556V12.0156H63.9998Z" fill="#5545E3"/>
</g>
</g>
</svg>
