<svg width="132" height="88" viewBox="0 0 132 88" fill="none" xmlns="http://www.w3.org/2000/svg">
<path fill-rule="evenodd" clip-rule="evenodd" d="M16.5 62.9734L65.3479 62.9605L115.473 62.9475L115.487 43.7787L115.5 25.0234H65.3613H16.5V62.9734ZM21.3435 43.7916V58.6303H66.1064H110.869V43.7916V28.9529H66.1064H21.3435V43.7916ZM22.0355 43.7916V58.0099H66.133H110.23V43.7916V29.5733H66.133H22.0355V43.7916ZM31.0972 34.2122L30.9242 34.2331V37.9266V41.6201H33.1597H35.3951V40.9996V40.3792H33.958H32.5209V37.277V34.1749L31.8955 34.1831C31.5516 34.1877 31.1923 34.2008 31.0972 34.2122ZM38.2693 37.8961V41.6201H39.0681H39.8668L39.8532 37.9104L39.8395 34.2007L39.0544 34.1864L38.2693 34.1721V37.8961ZM43.3613 34.2093C43.3417 34.2283 43.3258 34.2981 43.3258 34.3645C43.3258 34.4587 43.2966 34.4851 43.1927 34.4851H43.0596V38.0526V41.6201H45.265H47.4703L47.4872 41.4779C47.5031 41.3433 47.5203 41.3349 47.81 41.3202C48.1099 41.305 48.1161 41.3016 48.1161 41.1522C48.1161 41.0172 48.1344 40.9996 48.2758 40.9996C48.4177 40.9996 48.4354 40.9824 48.4354 40.8445C48.4354 40.7076 48.4536 40.6894 48.5909 40.6894C48.7424 40.6894 48.7472 40.6814 48.7803 40.3663C48.799 40.1886 48.8069 39.7058 48.7979 39.2934L48.7814 38.5438L48.635 38.5274C48.5125 38.5137 48.4887 38.4864 48.4887 38.3594C48.4887 38.226 48.4698 38.2077 48.3325 38.2077C48.2018 38.2077 48.1736 38.1846 48.1595 38.0655C48.1463 37.9538 48.1113 37.9198 47.9963 37.907C47.8826 37.8943 47.85 37.8633 47.85 37.7682C47.85 37.6731 47.8826 37.6422 47.9963 37.6294C48.1104 37.6167 48.1464 37.5824 48.1592 37.4741C48.172 37.3666 48.2083 37.3314 48.3189 37.319C48.4373 37.3057 48.4649 37.2738 48.4787 37.1348C48.4925 36.9957 48.5177 36.9668 48.6251 36.9668H48.7548V36.3464V35.7259H48.6244C48.503 35.7259 48.4929 35.7055 48.478 35.4287C48.463 35.1489 48.4536 35.1304 48.3189 35.1153C48.2083 35.1029 48.172 35.0677 48.1592 34.9602C48.1456 34.8452 48.1128 34.8183 47.9697 34.805C47.8294 34.7918 47.7967 34.7662 47.7967 34.6695C47.7967 34.5719 47.7605 34.5445 47.5971 34.5183C47.4874 34.5006 47.2837 34.486 47.1447 34.4856C46.9147 34.4851 46.8919 34.4741 46.8919 34.363C46.8919 34.2544 46.8612 34.2374 46.6125 34.2084C46.2385 34.1647 43.4063 34.1655 43.3613 34.2093ZM51.9483 34.3558C51.9483 34.523 51.936 34.5368 51.7863 34.5368H51.6242L51.6284 37.3158C51.6307 38.8443 51.6473 40.438 51.6653 40.8575L51.698 41.6201H52.6215H53.5451V40.253C53.5451 39.4282 53.5655 38.8737 53.5966 38.855C53.6249 38.838 53.7686 38.8396 53.9159 38.8586C54.1672 38.891 54.1838 38.9024 54.1838 39.0416C54.1838 39.172 54.2031 39.19 54.3435 39.19C54.5016 39.19 54.5032 39.1929 54.5032 39.4744C54.5032 39.7559 54.5048 39.7588 54.6628 39.7588C54.8048 39.7588 54.8225 39.776 54.8225 39.9139C54.8225 40.0518 54.8402 40.069 54.9822 40.069H55.1419V40.3792V40.6894H55.3016C55.4435 40.6894 55.4612 40.7066 55.4612 40.8445C55.4612 40.9824 55.479 40.9996 55.6209 40.9996H55.7806V41.3099V41.6201H56.7386H57.6967V41.3099V40.9996H57.537C57.3951 40.9996 57.3774 40.9824 57.3774 40.8445C57.3774 40.7066 57.3596 40.6894 57.2177 40.6894H57.058V40.3792V40.069H56.8983C56.7564 40.069 56.7386 40.0518 56.7386 39.9139C56.7386 39.776 56.7209 39.7588 56.579 39.7588H56.4193V39.4486V39.1383H56.2596C56.1177 39.1383 56.0999 39.1211 56.0999 38.9832C56.0999 38.8453 56.0822 38.8281 55.9403 38.8281C55.7983 38.8281 55.7806 38.8109 55.7806 38.673C55.7806 38.5351 55.7983 38.5179 55.9403 38.5179C56.0822 38.5179 56.0999 38.5007 56.0999 38.3628C56.0999 38.2249 56.1177 38.2077 56.2596 38.2077C56.3933 38.2077 56.4193 38.1872 56.4193 38.0818C56.4193 37.983 56.4507 37.9525 56.5657 37.9397C56.6876 37.9261 56.7148 37.8953 56.7287 37.7553C56.7434 37.6075 56.7642 37.5872 56.9017 37.5872H57.058V36.5015V35.4157H56.9044C56.7585 35.4157 56.7491 35.4019 56.7147 35.1347L56.6786 34.8536L56.3893 34.8185C56.1354 34.7877 56.0999 34.7691 56.0999 34.6671C56.0999 34.568 56.0635 34.546 55.853 34.518C55.7172 34.4999 55.5016 34.4851 55.3739 34.4851C55.1655 34.4851 55.1419 34.4727 55.1419 34.3628C55.1419 34.2566 55.1095 34.2363 54.8949 34.2077C54.7591 34.1896 54.0406 34.1749 53.2981 34.1749H51.9483V34.3558ZM60.5562 34.2064C60.535 34.227 60.5177 34.2981 60.5177 34.3645C60.5177 34.4587 60.4885 34.4851 60.3846 34.4851H60.2515V38.0526V41.6201H62.8081H65.3646L65.3496 41.0126L65.3346 40.4051L63.7511 40.3914L62.1677 40.3777V39.4478V38.5179H63.4526H64.7376L64.7097 37.9466C64.6944 37.6324 64.6651 37.3591 64.6446 37.3391C64.6241 37.3192 64.0584 37.2952 63.3875 37.2857L62.1677 37.2686V36.4972V35.7259H63.7336H65.2995L65.3374 35.382C65.377 35.0235 65.3408 34.293 65.2807 34.2345C65.2326 34.1877 60.6038 34.1602 60.5562 34.2064ZM69.4951 34.2093C69.4756 34.2283 69.4596 34.2981 69.4596 34.3645C69.4596 34.4774 69.4393 34.4851 69.1402 34.4851H68.8209V34.6402C68.8209 34.7781 68.8032 34.7953 68.6612 34.7953C68.5193 34.7953 68.5015 34.8125 68.5015 34.9504C68.5015 35.0883 68.4838 35.1055 68.3419 35.1055C68.2007 35.1055 68.1822 35.1231 68.1822 35.2572C68.1822 35.3842 68.1584 35.4115 68.0358 35.4252L67.8894 35.4416V36.3722V37.3029L68.0358 37.3192C68.1752 37.3348 68.1822 37.3488 68.1822 37.6133C68.1822 37.8887 68.1836 37.8911 68.3552 37.9071C68.4984 37.9205 68.531 37.9473 68.5448 38.063C68.5603 38.1944 68.5793 38.2037 68.8641 38.2181C69.1502 38.2327 69.1678 38.2413 69.1837 38.3757L69.2005 38.5179H69.6494H70.0983V38.673V38.8281H70.4177H70.737V38.9832C70.737 39.1211 70.7547 39.1383 70.8967 39.1383H71.0564V39.6037V40.069H70.8967C70.7547 40.069 70.737 40.0862 70.737 40.2241V40.3792H70.0983H69.4596V40.2241V40.069H69.1402H68.8209V39.9139V39.7588H68.3737H67.9265L67.8894 40.069C67.8536 40.3686 67.8471 40.3792 67.6979 40.3792C67.5446 40.3792 67.5435 40.3815 67.5435 40.6894V40.9996H67.7031C67.8451 40.9996 67.8628 41.0169 67.8628 41.1548V41.3099H68.1822H68.5015V41.465V41.6201H68.8933C69.1088 41.6201 69.3962 41.6349 69.532 41.653C69.7466 41.6816 69.7789 41.7019 69.7789 41.8081C69.7789 41.923 69.7981 41.9303 70.0983 41.9303H70.4177V41.7752V41.6201H70.9233H71.4289V41.465C71.4289 41.3114 71.4319 41.3099 71.7217 41.3099C72.0114 41.3099 72.0144 41.3083 72.0144 41.1548C72.0144 41.0183 72.0328 40.9996 72.168 40.9996C72.3142 40.9996 72.3232 40.986 72.3581 40.7153C72.3907 40.4618 72.4082 40.4309 72.5191 40.4309C72.6406 40.4309 72.6439 40.4181 72.6616 39.8751C72.6716 39.5694 72.6711 39.0692 72.6605 38.7635L72.6414 38.2077H72.4876C72.3522 38.2077 72.3338 38.1891 72.3338 38.0526C72.3338 37.9147 72.3161 37.8975 72.1741 37.8975C72.0322 37.8975 72.0144 37.8802 72.0144 37.7424V37.5872H71.6951H71.3757V37.4321V37.277H70.9268H70.478L70.4611 37.1348C70.445 36.9986 70.4304 36.992 70.1116 36.9773C69.7822 36.9621 69.7789 36.9604 69.7789 36.8092C69.7789 36.6726 69.7614 36.6566 69.6117 36.6566H69.4444L69.4739 36.239C69.49 36.0093 69.5173 35.8077 69.5345 35.791C69.5868 35.7402 70.6509 35.7105 71.0246 35.7494C71.3438 35.7826 71.3757 35.7966 71.3757 35.904C71.3757 36.0048 71.4108 36.0268 71.6152 36.054C71.747 36.0715 71.9625 36.0715 72.0943 36.054L72.3338 36.0221V35.7448C72.3338 35.4711 72.3359 35.4674 72.4935 35.4674H72.6531V35.1314V34.7953H72.3338H72.0144V34.6402C72.0144 34.4866 72.0114 34.4851 71.7217 34.4851C71.4495 34.4851 71.4289 34.4765 71.4289 34.363C71.4289 34.2544 71.3982 34.2374 71.1495 34.2084C70.7777 34.165 69.54 34.1657 69.4951 34.2093ZM75.7003 34.2122L75.5273 34.2331V37.9266V41.6201H76.3257H77.1241V40.0682V38.5164L78.7076 38.5301L80.291 38.5438L80.3051 40.0819L80.3192 41.6201H81.1171H81.9151L81.9015 37.9104L81.8878 34.2007L81.4354 34.1843C81.1866 34.1753 80.8333 34.183 80.6503 34.2014L80.3176 34.2348V35.7559V37.277H78.7209H77.1241V35.7259V34.1749L76.4987 34.1831C76.1547 34.1877 75.7954 34.2008 75.7003 34.2122ZM87.4632 34.2122C87.3224 34.2292 87.2902 34.256 87.2902 34.3565C87.2902 34.4705 87.2668 34.4811 86.9842 34.4954C86.6977 34.5099 86.677 34.5197 86.6618 34.6475C86.6471 34.7714 86.6185 34.7874 86.3558 34.8193C86.0968 34.8507 86.066 34.8674 86.066 34.9767C86.066 35.0769 86.0347 35.1019 85.893 35.1152C85.75 35.1286 85.7172 35.1554 85.7035 35.2704C85.6907 35.3779 85.6545 35.4131 85.5438 35.4255C85.4092 35.4406 85.3997 35.4592 85.3847 35.7389C85.3691 36.0301 85.3656 36.0362 85.2117 36.0362C85.0678 36.0362 85.0547 36.0512 85.0547 36.2171C85.0547 36.373 85.0373 36.3981 84.9286 36.3981C84.7522 36.3981 84.7367 36.5366 84.736 38.1172L84.7354 39.4486H84.8951H85.0547V39.7588C85.0547 40.0675 85.0555 40.069 85.2111 40.069C85.3485 40.069 85.3693 40.0893 85.384 40.237C85.3978 40.376 85.4254 40.4079 85.5438 40.4211C85.6545 40.4335 85.6907 40.4688 85.7035 40.5762C85.7164 40.6846 85.7524 40.7189 85.8664 40.7316C85.9814 40.7445 86.0128 40.775 86.0128 40.8738C86.0128 40.9792 86.0388 40.9996 86.1725 40.9996C86.3144 40.9996 86.3321 41.0169 86.3321 41.1548C86.3321 41.2976 86.3469 41.3099 86.5184 41.3099C86.6899 41.3099 86.7047 41.3222 86.7047 41.465V41.6201H87.2295C87.5182 41.6201 87.8655 41.6349 88.0013 41.653C88.2159 41.6816 88.2483 41.7019 88.2483 41.8081C88.2483 41.923 88.2674 41.9303 88.5676 41.9303C88.8679 41.9303 88.887 41.923 88.887 41.8081C88.887 41.7019 88.9193 41.6816 89.1339 41.653C89.2697 41.6349 89.5572 41.6201 89.7727 41.6201H90.1644V41.465V41.3099H90.4838H90.8031V41.1548C90.8031 41.0176 90.8213 40.9996 90.9593 40.9996C91.09 40.9996 91.1181 40.9765 91.1323 40.8575C91.1455 40.7458 91.1805 40.7118 91.2954 40.6989C91.418 40.6852 91.4418 40.6579 91.4418 40.5309C91.4418 40.3982 91.461 40.3792 91.5954 40.3792C91.7416 40.3792 91.7506 40.3656 91.7855 40.0948C91.818 39.8424 91.8359 39.8105 91.9451 39.8105C92.0572 39.8105 92.0714 39.7807 92.1052 39.4744C92.1395 39.1633 92.1518 39.1383 92.2711 39.1383H92.3999V38.0526V36.9668H92.2741C92.1647 36.9668 92.1438 36.9354 92.1144 36.7269C92.0957 36.595 92.0805 36.3856 92.0805 36.2616C92.0805 36.0456 92.0739 36.0362 91.9208 36.0362C91.7789 36.0362 91.7612 36.0189 91.7612 35.8811C91.7612 35.7513 91.74 35.7259 91.6319 35.7259C91.5154 35.7259 91.4991 35.6983 91.4665 35.4446L91.4303 35.1633L91.1463 35.1288C90.8896 35.0976 90.8608 35.0812 90.846 34.9577C90.8326 34.8454 90.799 34.8182 90.6567 34.805C90.5146 34.7916 90.4838 34.7668 90.4838 34.6653C90.4838 34.5529 90.4554 34.5388 90.1644 34.5068C89.8801 34.4756 89.845 34.459 89.845 34.3562C89.845 34.2579 89.8081 34.2357 89.5981 34.2077C89.3385 34.1732 87.7597 34.1765 87.4632 34.2122ZM94.316 34.33C94.316 34.4683 94.2985 34.4851 94.1543 34.4851H93.9927L94.0079 34.9633L94.0233 35.4416L94.1696 35.4579C94.2846 35.4708 94.316 35.5013 94.316 35.6001V35.7259H95.2741H96.2321V38.673V41.6201H97.1902H98.1483V38.673V35.7259H99.1063H100.064V35.6001C100.064 35.5013 100.096 35.4708 100.211 35.4579L100.357 35.4416V34.9763V34.5109L100.211 34.4946C100.088 34.4809 100.064 34.4535 100.064 34.3266V34.1749H97.1902H94.316V34.33ZM45.2951 35.5934C45.2951 35.6978 45.2654 35.7222 45.1221 35.7356L44.9491 35.7518L44.9344 36.5144L44.9197 37.277H45.7461H46.5725V37.1478C46.5725 37.0463 46.5996 37.0185 46.6987 37.0185C46.8097 37.0185 46.8282 36.989 46.8532 36.7733C46.8689 36.6384 46.8688 36.362 46.853 36.159L46.8242 35.7898L46.5845 35.7578C46.4527 35.7403 46.1685 35.7259 45.953 35.7259C45.5706 35.7259 45.5612 35.7228 45.5612 35.5967C45.5612 35.4933 45.5346 35.4674 45.4282 35.4674C45.3226 35.4674 45.2951 35.4935 45.2951 35.5934ZM53.5451 36.6566V37.5872H54.3435H55.1419V37.4321C55.1419 37.2942 55.1596 37.277 55.3016 37.277H55.4612V36.6566V36.0362H55.3016C55.1692 36.0362 55.1419 36.0153 55.1419 35.9139C55.1419 35.8077 55.1095 35.7874 54.8949 35.7588C54.7591 35.7407 54.3999 35.7259 54.0965 35.7259H53.5451V36.6566ZM87.9422 35.7642C87.6344 35.7812 87.6096 35.7916 87.6096 35.9034C87.6096 36.0109 87.5777 36.0281 87.32 36.0594C87.0562 36.0914 87.029 36.1068 87.014 36.2334C87.0012 36.3408 86.9649 36.3759 86.8537 36.3884C86.7184 36.4035 86.7089 36.422 86.694 36.6986C86.679 36.9765 86.6701 36.9935 86.5317 37.009L86.3854 37.0254V37.9267V38.8281H86.5132C86.6298 38.8281 86.6443 38.8553 86.6781 39.1383C86.7119 39.4214 86.7264 39.4486 86.843 39.4486C86.9496 39.4486 86.9709 39.4744 86.9709 39.6037C86.9709 39.7416 86.9886 39.7588 87.1305 39.7588C87.2725 39.7588 87.2902 39.776 87.2902 39.9139V40.069H87.6096H87.9289V40.2241V40.3792H88.5676H89.2063V40.2241V40.069H89.5257H89.845V39.9139C89.845 39.776 89.8628 39.7588 90.0047 39.7588C90.1467 39.7588 90.1644 39.7416 90.1644 39.6037C90.1644 39.4658 90.1821 39.4486 90.3241 39.4486H90.4838V38.8281V38.2077H90.6434C90.7854 38.2077 90.8031 38.1905 90.8031 38.0526C90.8031 37.9239 90.7817 37.8975 90.677 37.8975C90.5244 37.8975 90.4852 37.7318 90.4843 37.0831L90.4838 36.6566H90.3241C90.1664 36.6566 90.1644 36.6532 90.1644 36.3773V36.098L89.845 36.062C89.5602 36.0299 89.5257 36.0134 89.5257 35.9095C89.5257 35.8007 89.4966 35.7908 89.0866 35.7598C88.8451 35.7415 88.5636 35.7309 88.4612 35.7362C88.3587 35.7415 88.1252 35.7541 87.9422 35.7642ZM44.9594 38.551C44.9391 38.5707 44.9225 38.9901 44.9225 39.483V40.3792H45.8806H46.8387V40.2241C46.8387 40.0862 46.8564 40.069 46.9983 40.069H47.158V39.4781V38.8873L46.8683 38.8521C46.6055 38.8202 46.577 38.8042 46.5622 38.6804L46.5459 38.5438L45.7711 38.5295C45.3449 38.5217 44.9796 38.5313 44.9594 38.551ZM80.81 47.8079C80.3338 47.8276 80.3176 47.8323 80.3176 47.9505C80.3176 48.0612 80.288 48.0761 80.0038 48.1082L79.6901 48.1435L79.6541 48.4235C79.6218 48.674 79.6047 48.7034 79.4914 48.7034C79.3731 48.7034 79.3636 48.7249 79.3488 49.0265C79.3336 49.3362 79.3269 49.3503 79.1866 49.366L79.0402 49.3824V49.9701V50.5578L79.1866 50.5742C79.3269 50.5899 79.3336 50.604 79.3488 50.9137C79.3636 51.2153 79.3731 51.2368 79.4914 51.2368C79.6049 51.2368 79.6218 51.2661 79.6544 51.5193L79.6907 51.8017L80.0042 51.8362C80.3061 51.8694 80.3176 51.8761 80.3176 52.02V52.1693L81.5817 52.1555L82.8459 52.1416L82.8627 51.9994C82.8768 51.8801 82.9048 51.8573 83.0369 51.8573H83.1942L83.1797 50.9137L83.1652 49.9701L82.3801 49.9558L81.5951 49.9415V50.2789V50.6164H82.0475H82.4999V50.9008C82.4999 51.1696 82.4927 51.1851 82.3668 51.1851C82.2545 51.1851 82.2338 51.2093 82.2338 51.3402V51.4953H81.4389H80.6441L80.6272 51.3532C80.614 51.2415 80.579 51.2075 80.464 51.1946C80.3414 51.1809 80.3176 51.1536 80.3176 51.0266C80.3176 50.8925 80.2991 50.8749 80.158 50.8749H79.9983V50.0994V49.3238H80.1275C80.244 49.3238 80.2603 49.2962 80.2926 49.0447L80.3285 48.7657L80.6158 48.7308C80.8746 48.6994 80.9031 48.6835 80.9031 48.5704V48.4449H81.5383H82.1735L82.1903 48.587L82.2072 48.7292L82.6475 48.7237C82.8897 48.7207 83.0977 48.7087 83.1098 48.697C83.1218 48.6852 83.1481 48.5556 83.1681 48.4089L83.2045 48.1421L83.0252 48.1254C82.8742 48.1114 82.8432 48.0863 82.829 47.9666C82.813 47.8315 82.7982 47.8244 82.5311 47.8244C82.3766 47.8244 82.0369 47.8161 81.7762 47.8059C81.5156 47.7957 81.0808 47.7966 80.81 47.8079ZM91.9641 47.8087C91.5066 47.8282 91.5015 47.8299 91.4851 47.9686C91.4723 48.0763 91.4361 48.1125 91.3286 48.1246C91.1538 48.1442 91.1238 48.287 91.123 49.1041L91.1225 49.6857H91.2821C91.4241 49.6857 91.4418 49.703 91.4418 49.8408C91.4418 49.9836 91.4566 49.996 91.6281 49.996C91.7886 49.996 91.8144 50.0129 91.8144 50.1184C91.8144 50.2198 91.8488 50.2465 92.014 50.273C92.1238 50.2906 92.3274 50.3053 92.4664 50.3056C92.7117 50.3062 92.7192 50.3108 92.7192 50.4613C92.7192 50.5992 92.737 50.6164 92.8789 50.6164H93.0386V51.0559V51.4953H92.3999H91.7612V51.3328V51.1703L91.3313 51.199C91.0948 51.2147 90.8939 51.2355 90.8849 51.2451C90.8758 51.2548 90.8518 51.3823 90.8315 51.5286L90.7947 51.7944L91.1183 51.8309C91.4312 51.8662 91.4418 51.8723 91.4418 52.0174V52.1675H92.3999H93.3579V52.0124C93.3579 51.8752 93.376 51.8573 93.5143 51.8573C93.6517 51.8573 93.6726 51.837 93.6872 51.6892C93.7011 51.5492 93.7283 51.5184 93.8503 51.5049L93.9967 51.4885V50.9008V50.313L93.8503 50.2967C93.7283 50.2831 93.7011 50.2523 93.6872 50.1123C93.6726 49.9645 93.6517 49.9442 93.5143 49.9442C93.383 49.9442 93.3579 49.9235 93.3579 49.815C93.3579 49.6915 93.3437 49.6857 93.0386 49.6857H92.7192V49.5306V49.3755H92.3999H92.0805V49.2204C92.0805 49.0894 92.0598 49.0653 91.9475 49.0653C91.8351 49.0653 91.8144 49.0412 91.8144 48.9102C91.8144 48.7792 91.8351 48.7551 91.9475 48.7551C92.0598 48.7551 92.0805 48.7309 92.0805 48.6V48.4449H92.5596H93.0386V48.6C93.0386 48.7547 93.0394 48.7551 93.3505 48.7551H93.6624L93.6928 48.5064C93.7094 48.3696 93.7097 48.1602 93.6932 48.0411L93.6633 47.8244H93.2785C93.0669 47.8244 92.7886 47.8165 92.6602 47.8067C92.5316 47.797 92.2184 47.7979 91.9641 47.8087ZM36.6726 48.4449V49.0653H36.8056C36.918 49.0653 36.9387 49.0894 36.9387 49.2204C36.9387 49.3514 36.918 49.3755 36.8056 49.3755H36.6726V50.7386V52.1017L36.9195 52.1346C37.0553 52.1527 37.2709 52.1675 37.3986 52.1675H37.6306V51.2368V50.3062H38.5887H39.5467V49.996V49.6857H38.5887H37.6306V49.0653V48.4449H38.7484H39.8661V48.1346V47.8244H38.2693H36.6726V48.4449ZM42.3804 49.983L42.3943 52.1416L42.727 52.157L43.0596 52.1724V51.4011V50.6297L43.3275 50.5952C43.6415 50.5548 43.6983 50.5783 43.6983 50.7487C43.6983 50.848 43.726 50.8749 43.8281 50.8749C43.9355 50.8749 43.9606 50.9038 43.9744 51.0429C43.9883 51.1829 44.0155 51.2137 44.1375 51.2273C44.26 51.241 44.2838 51.2684 44.2838 51.3953C44.2838 51.5283 44.3029 51.547 44.4383 51.547C44.5874 51.547 44.594 51.5576 44.6298 51.8573L44.6668 52.1675L45.0741 52.1669C45.7095 52.166 45.8806 52.1263 45.8806 51.9797C45.8806 51.8836 45.852 51.8573 45.7475 51.8573C45.6352 51.8573 45.6145 51.8331 45.6145 51.7021C45.6145 51.565 45.5964 51.547 45.4581 51.547C45.3207 51.547 45.2999 51.5268 45.2852 51.379C45.2715 51.2409 45.2435 51.2082 45.1279 51.1951C45.0004 51.1808 44.9839 51.1531 44.9511 50.8979C44.9184 50.644 44.9022 50.6164 44.7856 50.6164C44.6734 50.6164 44.6564 50.5926 44.6564 50.4354C44.6564 50.2769 44.6729 50.2545 44.7895 50.2545C44.8959 50.2545 44.9225 50.2286 44.9225 50.1252C44.9225 50.0174 44.9479 49.996 45.075 49.996C45.216 49.996 45.23 49.978 45.2613 49.7561C45.304 49.4537 45.3043 48.5831 45.2619 48.3338C45.2304 48.1496 45.2229 48.1443 44.9431 48.1103C44.6849 48.079 44.6564 48.063 44.6564 47.95V47.8244H43.5115H42.3665L42.3804 49.983ZM48.1161 49.996V52.1675H49.5532H50.9903V51.8314V51.4953H49.8991H48.808V50.9008V50.3062H49.7395H50.6709V49.996V49.6857H49.9864C49.6099 49.6857 49.1908 49.6709 49.055 49.6529L48.808 49.62V49.0324V48.4449H49.8991H50.9903V48.1346V47.8244H49.5532H48.1161V49.996ZM53.5451 49.996V52.1675H54.9822H56.4193V51.8314V51.4953H55.4612H54.5032V50.9008V50.3062H55.3016H56.0999V49.996V49.6857H55.3016H54.5032V49.0653V48.4449H55.4612H56.4193V48.1346V47.8244H54.9822H53.5451V49.996ZM62.1272 49.983L62.1411 52.1416H62.6201H63.0991L63.113 49.983L63.1269 47.8244H62.6201H62.1133L62.1272 49.983ZM65.9467 49.996V52.1675H66.2927H66.6386V50.7715V49.3755H66.769C66.8904 49.3755 66.9006 49.396 66.9154 49.6728C66.9304 49.9511 66.9404 49.9711 67.072 49.9859C67.1995 50.0002 67.216 50.028 67.2488 50.2832C67.2814 50.5371 67.2977 50.5647 67.4142 50.5647C67.5264 50.5647 67.5435 50.5885 67.5435 50.7456C67.5435 50.9116 67.5565 50.9266 67.7005 50.9266C67.8543 50.9266 67.8578 50.9327 67.8735 51.2239L67.8894 51.5212L68.0757 51.5384C68.1782 51.5479 68.3862 51.5406 68.538 51.5222L68.8141 51.4887L68.8502 51.2077C68.8821 50.9596 68.9007 50.9266 69.0081 50.9266C69.1172 50.9266 69.1336 50.8946 69.1669 50.6164C69.2002 50.3375 69.2162 50.3062 69.3265 50.3062C69.4368 50.3062 69.4529 50.2749 69.4862 49.996C69.52 49.7129 69.5345 49.6857 69.6511 49.6857H69.7789V50.8937V52.1017L70.0259 52.1346C70.1617 52.1527 70.3773 52.1675 70.5049 52.1675H70.737V49.996V47.8244H70.258H69.7789V47.9795C69.7789 48.1174 69.7612 48.1346 69.6193 48.1346H69.4596V48.4449V48.7551H69.2999H69.1402V49.0653V49.3755H68.9806C68.8227 49.3755 68.8209 49.3788 68.8209 49.6565C68.8209 49.9245 68.8142 49.9381 68.6745 49.9538C68.536 49.9692 68.5273 49.986 68.5122 50.2674C68.4975 50.54 68.4859 50.5647 68.3719 50.5647C68.2612 50.5647 68.2436 50.5337 68.2111 50.2803C68.1786 50.0272 68.1609 49.996 68.0505 49.996C67.9386 49.996 67.9229 49.9658 67.8894 49.6857C67.8559 49.4053 67.8404 49.3755 67.7279 49.3755C67.6264 49.3755 67.6004 49.3445 67.5867 49.2075C67.5731 49.0693 67.5451 49.0367 67.4295 49.0236C67.302 49.0093 67.2855 48.9815 67.2526 48.7263C67.2205 48.4761 67.2027 48.4449 67.0924 48.4449C66.9805 48.4449 66.9649 48.4147 66.9314 48.1346L66.8943 47.8244H66.4205H65.9467V49.996ZM74.5693 48.1054C74.5693 48.3734 74.5626 48.3871 74.4229 48.4027C74.2826 48.4183 74.2759 48.4325 74.2607 48.7422C74.245 49.0621 74.2433 49.0653 74.0877 49.0653H73.9306V49.5048V49.9442H73.7709H73.6112V50.2803V50.6164H73.4515H73.2918V51.0559V51.4953H73.1322H72.9725V51.8314V52.1675L73.2519 52.1669C73.4056 52.1666 73.6212 52.1519 73.731 52.1343L73.9306 52.1022V51.6766V51.2509L74.1775 51.218C74.3133 51.1999 74.7052 51.1851 75.0483 51.1851C75.3914 51.1851 75.7833 51.1999 75.9191 51.218L76.166 51.2509V51.6763V52.1017L76.413 52.1346C76.5488 52.1527 76.7643 52.1675 76.892 52.1675H77.1241L77.1235 51.896C77.1232 51.7467 77.1081 51.5374 77.0899 51.4307C77.0626 51.2702 77.0352 51.2368 76.9308 51.2368C76.8122 51.2368 76.8047 51.2185 76.8047 50.9266V50.6164H76.6451H76.4854V50.1511V49.6857H76.3257H76.166V49.3755V49.0653H76.0064H75.8467V48.6V48.1346H75.687C75.5451 48.1346 75.5273 48.1174 75.5273 47.9795V47.8244H75.0483H74.5693V48.1054ZM85.7062 49.983L85.7201 52.1416H87.1571H88.5942V51.8314V51.5212L87.6495 51.5071L86.7047 51.493V50.901V50.3089L87.4898 50.2946L88.2749 50.2803L88.2909 49.983L88.3068 49.6857H87.5133H86.7197L86.6936 49.2592C86.6791 49.0246 86.6783 48.7459 86.6917 48.6399L86.7161 48.4472L87.6552 48.4331L88.5942 48.419L88.6102 48.1217L88.6262 47.8244H87.1592H85.6923L85.7062 49.983ZM43.0596 49.0653V49.6857H43.6717H44.2838V49.5306C44.2838 49.3927 44.3016 49.3755 44.4435 49.3755H44.6032V49.0653V48.7551H44.4435C44.3016 48.7551 44.2838 48.7379 44.2838 48.6V48.4449H43.6717H43.0596V49.0653ZM74.8886 49.3755V49.6857H74.7289H74.5693V49.996V50.3062H75.0483H75.5273V49.996V49.6857H75.3676H75.208V49.3755V49.0653H75.0483H74.8886V49.3755Z" fill="#22282F"/>
</svg>
