<svg width="132" height="88" viewBox="0 0 132 88" fill="none" xmlns="http://www.w3.org/2000/svg">
<path fill-rule="evenodd" clip-rule="evenodd" d="M44.9923 8.25C36.8503 8.25 30.25 14.8503 30.25 22.9923V65.0077C30.25 73.1497 36.8503 79.75 44.9923 79.75H87.0077C95.1497 79.75 101.75 73.1497 101.75 65.0077V22.9923C101.75 14.8503 95.1497 8.25 87.0077 8.25H44.9923ZM78.3643 21.9646C78.4648 18.8554 78.5801 18.2603 79.1641 17.8342C79.949 17.2612 86.9207 17.1256 87.776 17.6666C88.3093 18.0038 88.7719 20.7762 88.8226 23.9385C88.8468 25.4683 88.6988 25.952 87.9891 26.6609C87.183 27.4668 86.8849 27.5233 83.4447 27.5233C79.8499 27.5233 79.7451 27.5005 79.0052 26.5601C78.3186 25.6882 78.2578 25.2533 78.3643 21.9646ZM43.7093 40.3959C45.48 33.5374 50.777 28.0668 57.9167 25.7223C59.4463 25.22 60.7315 25.1097 64.0687 25.1943C67.7461 25.2878 68.6218 25.4325 70.8952 26.3244C72.3295 26.8872 73.5563 27.5082 73.6213 27.7043C73.6864 27.9003 72.2535 29.5394 70.4371 31.3467L67.1348 34.633L63.844 34.6991C61.2679 34.7507 60.2478 34.9257 59.1471 35.5046C56.8249 36.726 54.8517 38.6683 53.8459 40.7229C53.0437 42.361 52.8897 43.1517 52.8578 45.8008L52.8194 48.9381L49.5171 52.2518C47.7007 54.0743 46.0267 55.4931 45.7964 55.4049C45.2895 55.2107 44.0138 52.178 43.5251 50.0057C42.9897 47.6261 43.0818 42.8271 43.7093 40.3959ZM67.4083 55.4766C69.3322 54.4751 71.5877 52.5121 72.5316 51.0184L73.3932 49.6544H78.114C80.7101 49.6544 82.9262 49.8026 83.038 49.9835C83.4201 50.6011 81.7317 54.7428 80.2366 56.8558C76.5982 61.9982 71.8637 64.9346 65.8263 65.7935C62.7244 66.2347 60.2218 65.9843 56.8252 64.8925C54.6399 64.1902 53.5006 63.8518 53.3498 63.261C53.1848 62.6144 54.2037 61.6655 56.3313 59.6067L59.8428 56.2083L63.0105 56.1627C65.3215 56.1296 66.5104 55.9442 67.4083 55.4766Z" fill="#4D90FD"/>
</svg>
