<svg width="132" height="88" viewBox="0 0 132 88" fill="none" xmlns="http://www.w3.org/2000/svg">
<rect x="26.6758" y="4.67578" width="78.65" height="78.65" rx="39.325" fill="#19C4A4"/>
<path d="M47.8516 25.8516V62.1516H84.0402V58.789H51.2034V25.8516H47.8516Z" fill="white"/>
<path d="M66.7841 56.2183C63.2147 56.2183 60.3109 53.3054 60.3109 49.7257C60.3109 46.1457 63.2149 43.233 66.7841 43.233C70.3533 43.233 73.2569 46.1457 73.2569 49.7257C73.2567 53.3054 70.3531 56.2183 66.7841 56.2183ZM66.7841 46.5951C65.0626 46.5951 63.6627 47.9996 63.6627 49.7257C63.6627 51.4518 65.0628 52.8562 66.7841 52.8562C68.5047 52.8562 69.9051 51.4518 69.9051 49.7257C69.9051 47.9996 68.5047 46.5951 66.7841 46.5951Z" fill="white"/>
<path d="M55.2954 25.9309V40.2069H80.7998V53.4294H84.1516V25.9309H55.2954ZM58.6472 29.293H80.7998V36.8445H58.6472V29.293Z" fill="white"/>
</svg>
