<svg width="132" height="88" viewBox="0 0 132 88" fill="none" xmlns="http://www.w3.org/2000/svg">
<rect x="30.25" y="8.25" width="71.5" height="71.5" rx="11" fill="#861AB8"/>
<path d="M57.7611 20.9211L57.7204 20.8984L57.6798 20.9211L45.1403 27.8472L45.0996 27.8696V27.9143V60.0825V60.1273L45.1403 60.1496L57.6798 67.0757L57.7204 67.0984L57.7611 67.0759L86.859 51.0687L86.8996 51.0464V51.0016V37.1492V37.1044L86.8593 37.0821L57.7611 20.9211ZM84.8078 47.3253L78.7818 43.9228L84.8078 40.6685V47.3253ZM57.8017 23.4317L84.5659 38.2266L76.3688 42.7543L57.8017 32.4871V23.4317ZM57.9624 34.822L74.2781 43.9216L57.9624 53.0208V34.822ZM49.684 27.9128L55.71 24.5107V31.1675L49.684 27.9128ZM55.71 54.1887L47.5129 58.7164V29.1264L55.71 33.6541V54.1887ZM55.71 63.3321L49.684 59.9301L55.71 56.6754V63.3321ZM76.3688 45.0886L84.5659 49.6164L57.8017 64.4112V55.3558L76.3688 45.0886Z" fill="white" stroke="white" stroke-width="0.123751"/>
</svg>
