<svg width="132" height="88" viewBox="0 0 132 88" fill="none" xmlns="http://www.w3.org/2000/svg">
<path d="M84.2617 9.625H47.7383C38.8392 9.625 31.625 16.8392 31.625 25.7383V62.2617C31.625 71.1608 38.8392 78.375 47.7383 78.375H84.2617C93.1608 78.375 100.375 71.1608 100.375 62.2617V25.7383C100.375 16.8392 93.1608 9.625 84.2617 9.625Z" fill="#001E36"/>
<path d="M66.0267 59.2199H47.8554C47.5477 59.2199 47.3941 59.0507 47.3943 58.7123V29.4267C47.3863 29.3703 47.3914 29.3128 47.4094 29.2588C47.4274 29.2047 47.4577 29.1556 47.498 29.1153C47.5382 29.0751 47.5873 29.0447 47.6414 29.0267C47.6954 29.0086 47.7529 29.0034 47.8092 29.0115H53.436C53.4799 29.0053 53.5246 29.0094 53.5666 29.0235C53.6086 29.0375 53.6467 29.0611 53.678 29.0925C53.7093 29.1238 53.7329 29.162 53.747 29.204C53.761 29.246 53.765 29.2907 53.7588 29.3346V53.4091H66.9951C67.2717 53.4091 67.3794 53.5474 67.3181 53.8241L66.4878 58.8049C66.4858 58.8729 66.4681 58.9395 66.4361 58.9996C66.4041 59.0596 66.3586 59.1113 66.3033 59.1508C66.2178 59.1953 66.123 59.219 66.0267 59.2201V59.2199ZM70.5921 36.2982H75.6192C75.8995 36.3009 76.1445 36.4889 76.2186 36.7596C76.3284 36.9616 76.4063 37.1793 76.4495 37.4052C76.5137 37.7019 76.5596 38.0022 76.5876 38.3046C76.6179 38.6274 76.6332 38.9733 76.6338 39.3422C77.4959 38.3384 78.5355 37.5019 79.7007 36.8748C81.0096 36.1671 82.4792 35.8096 83.9669 35.8371C84.0233 35.829 84.0808 35.8342 84.1348 35.8523C84.1888 35.8703 84.2379 35.9006 84.2782 35.9409C84.3184 35.9812 84.3488 36.0303 84.3668 36.0844C84.3847 36.1384 84.3899 36.1959 84.3818 36.2523V41.8328C84.3818 42.0482 84.2282 42.1556 83.9207 42.1556C82.0629 42.0406 80.2046 42.3727 78.5016 43.124C77.9228 43.3744 77.3981 43.7346 76.9566 44.1848V58.8049C76.9566 59.0816 76.8336 59.2199 76.5876 59.2199H71.007C70.9444 59.2288 70.8805 59.2231 70.8204 59.2031C70.7604 59.1831 70.7058 59.1494 70.6611 59.1047C70.6163 59.0599 70.5826 59.0054 70.5626 58.9453C70.5426 58.8853 70.5369 58.8214 70.5459 58.7588V42.8933C70.5459 42.5072 70.5435 42.1081 70.5384 41.6964L70.529 41.0696C70.5271 40.9635 70.5252 40.8566 70.5228 40.7489C70.5111 40.1882 70.4951 39.6275 70.475 39.067L70.4535 38.5121C70.4332 37.8785 70.3716 37.2469 70.2693 36.6213C70.2585 36.5794 70.258 36.5356 70.268 36.4936C70.278 36.4516 70.2981 36.4127 70.3265 36.3802C70.355 36.3477 70.3909 36.3227 70.4313 36.3072C70.4716 36.2918 70.5151 36.2865 70.558 36.2917L70.5921 36.2982Z" fill="#31A8FF"/>
</svg>
