<svg width="132" height="88" viewBox="0 0 132 88" fill="none" xmlns="http://www.w3.org/2000/svg">
<path d="M31.207 44C31.207 63.1962 46.8041 78.7578 66.0003 78.7578C85.1965 78.7578 100.794 63.1962 100.794 44C100.794 24.8038 85.1965 9.24219 66.0003 9.24219C46.8041 9.24219 31.207 24.8038 31.207 44ZM82.0301 26.7919C82.75 27.4576 83.9497 29.9387 84.6696 32.3594C85.4495 34.78 86.2293 37.0192 86.4093 37.2612C86.6492 37.5033 87.4891 37.4428 88.3889 37.1402C89.7686 36.5955 89.9486 36.7166 90.4885 38.29C91.0884 39.8634 90.9684 40.045 89.2887 40.6501C87.849 41.1948 87.5491 41.4974 87.969 42.3446C88.8088 44.2811 88.9888 60.6205 88.2089 61.5887C87.1291 62.8596 81.0103 62.8596 81.0103 61.5887C81.0103 60.802 79.0307 60.681 66.6131 60.681C54.1955 60.681 52.2159 60.802 52.2159 61.5887C52.2159 62.8596 46.0971 62.8596 45.0173 61.5887C44.2374 60.6205 44.4174 44.2811 45.2572 42.3446C45.6771 41.4974 45.3772 41.1948 43.9375 40.6501C42.2578 40.045 42.1378 39.8634 42.7377 38.29C43.2776 36.7166 43.4576 36.5955 44.8373 37.1402C45.7371 37.4428 46.577 37.5033 46.8169 37.2612C46.9969 37.0192 47.7767 34.78 48.5566 32.3594C50.7162 25.3395 49.9963 25.5816 66.6131 25.5816C79.9305 25.5816 80.8903 25.6421 82.0301 26.7919Z" fill="black"/>
<path d="M52.9357 30.8465C52.5758 31.8148 51.9159 33.8118 51.376 35.3853L50.4762 38.2901H82.75L81.8502 35.3853C81.3103 33.8118 80.6504 31.8148 80.2905 30.8465L79.6906 29.2126H53.5356L52.9357 30.8465Z" fill="black"/>
<path d="M48.6165 45.0678C48.2566 46.8228 48.0166 50.1512 48.1366 52.5113L48.3166 56.7475H84.9095L85.0895 52.5113C85.2094 50.1512 84.9695 46.8228 84.6096 45.0678L83.9497 41.921H49.2764L48.6165 45.0678ZM54.9153 45.1889C56.355 47.3675 55.2152 49.304 52.6957 49.0619C50.4162 48.8198 49.5163 46.8833 50.7761 45.0073C51.9759 43.3129 53.7755 43.3734 54.9153 45.1889ZM82.21 44.9468C83.8897 46.6413 82.9899 48.8198 80.5304 49.0619C78.0108 49.304 76.8711 47.3675 78.3108 45.1889C79.4506 43.4339 80.5903 43.3129 82.21 44.9468ZM75.0114 51.9667C75.6713 53.4796 76.2112 54.8715 76.2112 54.9925C76.2112 55.6582 72.6719 55.1135 72.012 54.3268C71.4721 53.6612 70.0324 53.4191 66.613 53.4191C63.1937 53.4191 61.754 53.6612 61.2141 54.3268C60.5542 55.1135 57.0149 55.6582 57.0149 54.9925C57.0149 54.8715 57.5548 53.4796 58.2147 51.9667L59.3544 49.1829H73.8716L75.0114 51.9667Z" fill="black"/>
</svg>
