<svg width="132" height="88" viewBox="0 0 132 88" fill="none" xmlns="http://www.w3.org/2000/svg">
<path d="M92.1316 69.9507C94.6228 67.4767 94.6228 63.4802 92.1316 61.0063L48.8751 18.0492C46.3839 15.5753 42.3596 15.5753 39.8684 18.0492C37.3772 20.5232 37.3772 24.5196 39.8684 26.9936L83.1248 69.9507C85.616 72.4247 89.6404 72.4247 92.1316 69.9507Z" fill="#6566FF"/>
<path d="M90.9821 38.2386C93.4733 35.7647 93.4733 31.7683 90.9821 29.2943L73.4218 11.8555C70.9306 9.38151 66.9062 9.38151 64.415 11.8555C61.9238 14.3295 61.9238 18.3258 64.415 20.7998L81.9755 38.2386C84.4667 40.6954 88.4909 40.6954 90.9821 38.2386Z" fill="#6566FF"/>
<path d="M67.5856 76.1445C70.0768 73.6706 70.0768 69.6741 67.5856 67.2001L50.0251 49.7611C47.5339 47.2872 43.5096 47.2872 41.0184 49.7611C38.5272 52.2351 38.5272 56.2316 41.0184 58.7056L58.5788 76.1445C61.07 78.6185 65.0944 78.6185 67.5856 76.1445Z" fill="#6566FF"/>
</svg>
