<svg width="132" height="88" viewBox="0 0 132 88" fill="none" xmlns="http://www.w3.org/2000/svg">
<path d="M34.7891 9.07807V11.4256L37.9392 11.566C41.1695 11.7266 42.875 12.0677 43.8581 12.7699C44.5604 13.2715 45.6439 15.3181 46.0251 16.8831C46.7474 19.7523 46.8076 23.0228 46.7474 47.3006L46.6872 71.2173L46.1856 72.5817C45.4834 74.548 44.9416 75.2502 43.6374 75.9124C42.5138 76.4541 42.3132 76.4742 38.6213 76.5544L34.7891 76.6146V78.9421V81.2695L36.0932 81.1291C44.0187 80.3666 81.4788 80.3466 90.7084 81.1291L92.1931 81.2495L93.2365 77.0761C93.8183 74.7687 94.9419 70.9966 95.7244 68.6892C96.5069 66.3617 97.1691 64.275 97.2092 64.0543C97.2293 63.7132 96.848 63.4925 94.8215 62.7702L92.3938 61.8874L92.2734 62.8505C92.0125 64.7365 91.0093 68.0672 90.1466 69.8329C88.2404 73.7855 85.5318 75.2703 78.7099 76.0929C73.3126 76.735 64.2836 75.6114 60.5517 73.8257C58.7057 72.9428 57.6825 71.8995 56.8197 70.0335C55.2948 66.7229 55.355 67.8666 55.2747 42.9065C55.1945 18.5685 55.1945 18.5284 56.3382 16.0203C56.92 14.7362 58.164 13.2916 59.087 12.79C60.4915 12.0275 61.4546 11.867 65.2668 11.7667L69.1191 11.6463V9.35897C69.1191 8.09492 69.0389 7.07164 68.9586 7.07164C68.8784 7.07164 66.1897 7.21209 63.0196 7.39267C59.8293 7.55318 55.3149 7.7137 53.0075 7.73376C48.3325 7.75383 40.0058 7.3726 36.8356 6.97132L34.7891 6.73055L34.7891 9.07807Z" fill="black"/>
</svg>
