<svg width="132" height="88" viewBox="0 0 132 88" fill="none" xmlns="http://www.w3.org/2000/svg">
<path fill-rule="evenodd" clip-rule="evenodd" d="M53.9761 19.8966C55.5065 19.8966 55.6705 19.6779 55.6705 18.1475V16.4531H59.114H62.5575V18.1475C62.5575 19.6779 62.7761 19.8966 64.3065 19.8966H66.0009V25.0345V30.227H74.637H83.2183V31.9215V33.6705H86.6618H90.1052V35.3649C90.1052 36.8953 90.3239 37.114 91.8543 37.114H93.5487V47.4444V57.7748H91.8543H90.1052V61.2183V64.6618H88.4108H86.6618V68.1052V71.5487H83.2183H79.7748V69.7994C79.7748 68.3239 79.6108 68.1052 78.0804 68.1052C76.55 68.1052 76.3313 68.3239 76.3313 69.7994V71.5487H66.0009H55.6705V68.1052V64.6618H53.9761C52.4456 64.6618 52.227 64.4432 52.227 62.9127C52.227 61.4369 52.0084 61.2183 50.5326 61.2183C49.0022 61.2183 48.7836 60.9997 48.7836 59.4692C48.7836 57.9935 48.5649 57.7748 47.0891 57.7748H45.3401V54.3313V50.8879H43.6457C42.1152 50.8879 41.8966 50.6692 41.8966 49.1388C41.8966 47.6084 41.678 47.4444 40.2022 47.4444H38.4531V44.0009V40.5575H40.2022C41.678 40.5575 41.8966 40.3388 41.8966 38.8084V37.114H45.3401H48.7836V38.8084C48.7836 40.3388 49.0022 40.5575 50.5326 40.5575H52.227V30.227V19.8966H53.9761ZM86.6618 64.6618V61.2183V57.7748H88.4108H90.1052V47.4444V37.114H88.4108C86.8804 37.114 86.6618 37.278 86.6618 38.8084C86.6618 40.3388 86.4978 40.5575 84.9673 40.5575H83.2183V37.114V33.6705H81.5239H79.7748V37.114V40.5575H78.0804H76.3313V37.114V33.6705H71.1935H66.0009V37.114V40.5575H64.3065H62.5575V30.227V19.8966H59.114H55.6705V35.3649V50.8879H53.9761H52.227V47.4444V44.0009H50.5326C49.0022 44.0009 48.7836 43.7823 48.7836 42.2518V40.5575H45.3401H41.8966V44.0009V47.4444H43.6457C45.1761 47.4444 45.3401 47.6084 45.3401 49.1388C45.3401 50.6692 45.5587 50.8879 47.0891 50.8879H48.7836V54.3313V57.7748H50.5326C52.0084 57.7748 52.227 57.9935 52.227 59.4692C52.227 60.9997 52.4456 61.2183 53.9761 61.2183C55.5065 61.2183 55.6705 61.4369 55.6705 62.9127C55.6705 64.4432 55.8891 64.6618 57.4196 64.6618C58.95 64.6618 59.114 64.8257 59.114 66.3562V68.1052H67.75H76.3313V66.3562C76.3313 64.8257 76.55 64.6618 78.0804 64.6618C79.6108 64.6618 79.7748 64.8257 79.7748 66.3562C79.7748 67.8866 79.9935 68.1052 81.5239 68.1052C83.0543 68.1052 83.2183 67.8866 83.2183 66.3562C83.2183 64.8257 83.4369 64.6618 84.9673 64.6618H86.6618ZM66.0009 61.2183V54.3313V47.4444H67.75H69.4444V54.3313V61.2183H67.75H66.0009ZM72.8879 54.3313V61.2183H74.637H76.3314V54.3313V47.4444H74.637H72.8879V54.3313ZM79.7749 61.2183V54.3313V47.4444H81.5239H83.2183V54.3313V61.2183H81.5239H79.7749Z" fill="black"/>
</svg>
