<svg width="132" height="88" viewBox="0 0 132 88" fill="none" xmlns="http://www.w3.org/2000/svg">
<path d="M66.1504 76.1461C59.7462 76.1461 53.7083 74.3171 48.4027 70.6577C43.0962 66.9985 39.0711 62.0584 36.5103 56.2037C33.9485 50.3487 33.3998 43.945 34.6802 37.7242C35.9605 31.5035 38.8881 25.8316 43.462 21.2574C48.0369 16.6834 53.7083 13.7559 59.9293 12.4752C66.1504 11.1944 72.5543 11.9262 78.4085 14.3048C84.2638 16.6834 89.2033 20.8915 92.6796 26.0145C96.1559 31.1374 97.9863 37.5411 97.9863 43.7619C97.9863 52.1785 94.6926 60.4117 88.6544 66.4496C82.7994 72.8536 74.5662 76.1461 66.1504 76.1461ZM66.1504 18.33C61.0266 18.33 56.087 19.7937 51.879 22.7211C47.6709 25.6484 44.3775 29.6736 42.3645 34.4308C40.3525 39.1881 39.9866 44.311 40.9012 49.434C41.8158 54.5567 44.3775 59.1311 48.0369 62.6073C51.6961 66.0839 56.2699 68.6447 61.2097 69.743C66.1504 70.8406 71.4557 70.2919 76.2134 68.2789C80.9701 66.2668 84.9953 62.9731 87.7401 58.765C90.4837 54.557 92.131 49.434 92.131 44.311C92.131 37.3582 89.3862 30.9546 84.4467 26.0145C79.506 21.0745 72.92 18.33 66.1504 18.33Z" fill="#231F20"/>
<path d="M66.1501 61.6927C62.6735 61.6927 59.1973 60.5949 56.4525 58.7653C53.5251 56.9357 51.3301 54.1912 50.0486 50.8978C48.7682 47.6044 48.4024 44.1282 49.1342 40.835C49.8657 37.3585 51.5129 34.2482 53.8909 31.8698C56.2696 29.491 59.3801 27.8446 62.8567 27.1125C66.333 26.3808 69.8092 26.7468 72.9198 28.2103C76.0303 29.6742 78.774 31.8698 80.787 34.614C82.6163 37.5414 83.7146 40.8348 83.7146 44.311C83.7146 48.8854 81.8845 53.4592 78.5911 56.7526C75.1148 59.8631 70.7239 61.6927 66.1501 61.6927ZM66.1501 32.7844C63.9539 32.7844 61.7592 33.5162 59.7459 34.7971C57.7329 36.0778 56.4525 37.9074 55.5381 39.9201C54.6235 41.9326 54.4406 44.311 54.9892 46.5066C55.3552 48.7022 56.4525 50.715 58.0997 52.3617C59.7459 54.0084 61.7592 55.1062 63.9539 55.4719C66.1501 55.8379 68.5277 55.6548 70.541 54.7401C72.554 53.8252 74.383 52.3617 75.6634 50.5318C76.9449 48.7022 77.4936 46.5066 77.4936 44.1282C77.4936 41.2008 76.2132 38.2734 74.2002 36.0778C72.1872 33.8822 69.0775 32.7844 66.1501 32.7844Z" fill="#231F20"/>
<path d="M52.2458 18.5126L47.3052 22.1719L55.905 33.8817L60.8448 30.2222L52.2458 18.5126ZM74.933 16.3171L69.2606 29.6733L74.933 32.0518L80.6044 18.6957L74.933 16.3171ZM91.2163 29.1244L77.8607 34.6134L80.2383 40.2853L93.778 34.7963L91.2163 29.1244ZM95.0584 40.8342L80.6044 41.0171V47.2379L95.0584 47.055V40.8342ZM80.2383 48.5188L77.1289 53.8247L88.8384 60.4115L91.9489 55.1053L80.2383 48.5188ZM76.5792 54.3736L71.4568 57.8498L79.6897 69.7428L84.8132 66.2665L76.5792 54.3736ZM63.0407 58.5819V73.0364H69.2606V58.5819H63.0407ZM56.8196 56.5692L51.1472 69.377L56.8196 71.9378L62.4909 59.1305L56.8196 56.5692ZM51.8798 47.421L38.3403 52.7269L40.5353 58.3987L54.0748 53.0929L51.8798 47.421ZM51.6969 41.0171H37.2428V47.2379H51.6969V41.0171ZM43.0971 26.3802L39.8036 31.5032L51.3301 38.8218L54.6237 33.6988L43.0971 26.3802Z" fill="#231F20"/>
</svg>
