<svg width="132" height="88" viewBox="0 0 132 88" fill="none" xmlns="http://www.w3.org/2000/svg">
<path d="M65.9995 77.9833C84.7685 77.9833 99.9835 62.7684 99.9835 43.9996C99.9835 25.2306 84.7685 10.0156 65.9995 10.0156C47.2305 10.0156 32.0156 25.2306 32.0156 43.9996C32.0156 62.7684 47.2305 77.9833 65.9995 77.9833Z" fill="#457EFF"/>
<path fill-rule="evenodd" clip-rule="evenodd" d="M58.473 25.6934C57.9571 28.4228 55.0207 43.7978 54.4179 46.9328C53.8143 50.068 56.3998 52.8783 58.9386 52.8783H62.8549C63.8974 52.8783 65.4487 53.61 64.864 56.2756C64.2802 58.9415 63.6766 61.6835 63.0829 64.2732C62.4891 66.8639 65.4635 67.9084 66.7541 65.8885C68.0433 63.8697 77.673 48.4579 78.7804 46.3852C79.8889 44.3126 78.0737 41.1074 75.3421 41.1074C72.6102 41.1074 71.4797 41.1074 70.0464 41.1074C68.6131 41.1074 68.4124 40.0844 68.9321 37.9768C69.4527 35.8692 70.0775 33.1124 71.0449 29.0721C72.0116 25.0318 68.1154 22.837 66.0614 22.837C64.0082 22.837 61.8014 22.837 61.1928 22.837C60.5839 22.837 58.9878 22.964 58.473 25.6934Z" fill="white"/>
</svg>
