<svg width="132" height="88" viewBox="0 0 132 88" fill="none" xmlns="http://www.w3.org/2000/svg">
<path fill-rule="evenodd" clip-rule="evenodd" d="M34.7022 33.2596C38.3463 21.8497 48.0253 13.5143 60.1184 11.3963C62.7374 10.9408 68.6587 10.9408 71.4828 11.3963C76.0832 12.125 80.8202 13.9469 84.7603 16.5431C87.1287 18.1147 91.7974 22.7378 93.3233 25.061C95.8512 28.8871 97.5593 33.1685 98.4247 37.6777C99.017 40.889 99.017 47.2886 98.4247 50.3175C96.3978 60.5432 90.3627 68.6736 81.3668 73.2513C73.8969 77.0546 65.5388 77.9428 57.2261 75.8248C52.8763 74.7088 47.8431 72.2491 46.0666 70.3817C45.338 69.6301 45.0192 68.3548 45.2923 67.2845C45.4745 66.5556 51.3275 60.4748 52.3978 59.9054C53.3773 59.4044 53.901 59.4728 57.0212 60.5659C59.4352 61.4086 60.1868 61.5681 61.8038 61.5908C64.8783 61.6135 65.4931 61.2036 75.1721 52.8683C79.7725 48.9056 83.7808 45.3299 84.0769 44.92C84.3732 44.5329 84.6919 43.7129 84.783 43.1435C85.0791 41.0712 84.8285 40.7295 76.4477 32.3714C69.6152 25.562 68.6133 24.6509 67.6795 24.4003C66.4042 24.0815 65.4477 24.241 64.2862 24.9469C63.8079 25.243 60.2095 29.2058 56.315 33.7378C48.0937 43.3258 47.6836 43.9635 47.7063 47.0153C47.7293 48.6093 47.8886 49.4066 48.7312 51.8433C49.8016 54.9635 49.9154 55.8744 49.3917 56.8766C49.1868 57.241 47.5471 59.0173 45.7251 60.8165C42.4455 64.0505 42.3773 64.0959 41.3297 64.0959C39.8265 64.0959 38.9154 63.4584 37.754 61.4997C34.5656 56.125 33.1309 50.6592 33.1309 43.8951C33.1309 39.4086 33.4496 37.1768 34.7022 33.2596ZM59.2757 37.655C62.4413 34.2618 65.2654 31.3238 65.5615 31.1643C66.222 30.8001 66.2901 30.8001 67.0417 31.1416C67.8844 31.529 68.2716 32.5536 67.8617 33.328C67.2012 34.5348 56.1785 46.1272 55.5407 46.2864C54.6069 46.5143 53.6961 45.7627 53.605 44.6924C53.5366 43.9181 53.8326 43.5307 59.2757 37.655ZM70.4125 36.3341C70.0026 36.5847 67.0874 39.4315 63.8991 42.6426C57.6133 48.9738 57.4767 49.156 58.6836 50.3631C59.8907 51.593 60.073 51.4789 66.6548 44.92C69.9797 41.5949 72.8265 38.6115 72.9403 38.2928C73.2593 37.5185 72.8265 36.5163 72.0522 36.1518C71.2779 35.8104 71.2552 35.8104 70.4125 36.3341ZM63.6484 52.2989C65.1743 50.7273 75.1949 41.4584 75.6731 41.2078C76.2654 40.8433 76.3566 40.8433 77.0852 41.1851C77.8141 41.5265 78.2696 42.5515 77.9963 43.2574C77.9052 43.5534 76.4704 45.0339 74.8307 46.5825C72.7404 48.5307 70.6527 50.4817 68.5676 52.4354C65.7664 55.0546 65.1743 55.4872 64.5139 55.4872C62.7603 55.4872 62.2821 53.711 63.6484 52.2989Z" fill="#C4994F"/>
</svg>
