<svg width="132" height="88" viewBox="0 0 132 88" fill="none" xmlns="http://www.w3.org/2000/svg">
<path d="M44.5356 19.5863C38.7488 23.0783 37.2522 25.5726 36.8531 32.5568C36.2544 42.5341 39.3474 49.7177 48.0276 58.398C52.1184 62.3889 57.3066 66.2801 60.4993 67.7767L65.9869 70.3708L71.4743 67.7767C78.4585 64.584 88.9347 54.2075 92.2272 47.4229C93.8236 44.0307 94.9211 39.7404 95.1206 35.3504C95.4199 29.5635 95.1206 28.067 93.0254 24.8743C87.039 15.9944 75.6648 15.1962 68.1818 23.1781L65.6875 25.8719L63.6921 23.2779C59.2023 17.5908 50.4222 15.8947 44.5356 19.5863Z" fill="#C3161C"/>
</svg>
