<svg width="132" height="88" viewBox="0 0 132 88" fill="none" xmlns="http://www.w3.org/2000/svg">
<path d="M57.602 11.4203C33.6498 14.2957 19.0716 26.8038 19.1291 44.4875C19.1578 59.9284 31.4071 71.3438 52.4838 75.5419C77.2123 80.5163 95.0397 72.2063 87.88 59.0657C86.9312 57.3118 87.0174 57.3118 84.832 58.922C72.8704 67.7207 53.9503 67.347 43.3112 58.1169C34.8863 50.7846 31.0908 43.3661 30.2857 32.6983C30.0844 29.7367 29.9694 29.7942 34.57 29.7942L38.5093 29.8228L39.0269 27.7813C39.8032 24.7334 41.6722 20.0178 42.3336 19.3564C42.8224 18.8676 50.0397 22.2031 52.9726 24.2733C55.3592 25.9123 55.0428 26.0561 57.2282 22.7494C58.8672 20.3053 62.8352 15.9634 64.0429 15.3021C65.1068 14.6983 72.2378 22.3756 73.388 25.3948C73.5605 25.826 73.9343 25.6536 76.0046 24.2158C80.2027 21.3404 86.2698 18.8101 87.0461 19.6152C87.6788 20.2765 89.289 24.3021 90.0366 27.1201L90.7266 29.6791L93.027 29.5928C94.2634 29.5066 96.1324 29.5641 97.1388 29.6791L98.9791 29.9091L98.9504 31.7494C98.9216 39.6568 95.4711 48.3118 89.8641 54.4364L88.3688 56.0754L90.4104 56.7367C103.695 60.9923 115.455 50.9572 112.379 37.989C108.439 21.2829 82.1005 8.48738 57.602 11.4203Z" fill="#3CAE2A"/>
<path d="M60.7359 32.2671C58.8955 33.2159 56.7103 35.6888 56.7103 36.7815C56.7103 37.0978 57.6016 38.1903 58.6942 39.2542C61.8285 42.2734 63.4387 44.43 65.5953 48.6281C67.1768 51.676 67.0329 51.6472 69.5633 49.2607C73.5601 45.4651 75.9755 38.7654 74.6528 35.0562C74.164 33.6472 67.4068 35.8037 65.9978 37.8166C65.739 38.1903 65.3364 37.1839 63.9275 32.6408C63.4674 31.0594 63.1224 31.0306 60.7359 32.2671Z" fill="#ECDB05"/>
</svg>
