<svg width="132" height="88" viewBox="0 0 132 88" fill="none" xmlns="http://www.w3.org/2000/svg">
<path fill-rule="evenodd" clip-rule="evenodd" d="M33.679 70.5885V17.5056C33.6636 15.9262 34.2701 14.4042 35.3673 13.2681C36.4646 12.1321 37.9646 11.4731 39.5436 11.4336H92.5133C94.0856 11.478 95.5768 12.1404 96.6641 13.277C97.7512 14.4136 98.3467 15.9329 98.3213 17.5056V70.5885C98.3364 72.1525 97.7322 73.6588 96.6405 74.7789C95.5487 75.8988 94.0583 76.5413 92.4944 76.5662H39.5247C37.9576 76.5464 36.4623 75.906 35.3665 74.7853C34.2707 73.6648 33.6639 72.1557 33.679 70.5885Z" fill="#CB6639"/>
<path fill-rule="evenodd" clip-rule="evenodd" d="M44.7855 66.7603V70.5317C44.7957 70.6854 44.7755 70.8395 44.726 70.9852C44.6765 71.131 44.5988 71.2656 44.4971 71.3812C44.3955 71.4968 44.2721 71.5913 44.1339 71.6592C43.9957 71.7269 43.8454 71.7669 43.6918 71.7763H39.5432C39.3896 71.7669 39.2393 71.7269 39.1011 71.6592C38.9629 71.5913 38.8394 71.4968 38.7378 71.3812C38.6362 71.2656 38.5584 71.131 38.5089 70.9852C38.4595 70.8395 38.4392 70.6854 38.4495 70.5317V66.7603C38.4325 66.4382 38.5375 66.1214 38.7438 65.8733C38.95 65.6251 39.2422 65.4639 39.5621 65.4214H43.7106C44.0274 65.4641 44.3158 65.6266 44.5159 65.8759C44.716 66.1252 44.8125 66.4418 44.7855 66.7603ZM44.7855 58.5763V62.3477C44.7957 62.5014 44.7755 62.6555 44.726 62.8012C44.6765 62.947 44.5988 63.0816 44.4971 63.1972C44.3955 63.3128 44.2721 63.4073 44.1339 63.4752C43.9957 63.5429 43.8454 63.5829 43.6918 63.5923H39.5432C39.3896 63.5829 39.2393 63.5429 39.1011 63.4752C38.9629 63.4073 38.8394 63.3128 38.7378 63.1972C38.6362 63.0816 38.5584 62.947 38.5089 62.8012C38.4595 62.6555 38.4392 62.5014 38.4495 62.3477V58.5763C38.4325 58.2542 38.5375 57.9374 38.7438 57.6893C38.95 57.4411 39.2422 57.2799 39.5621 57.2374H43.7106C44.0274 57.2801 44.3158 57.4426 44.5159 57.6919C44.716 57.9412 44.8125 58.2578 44.7855 58.5763ZM44.7855 50.3357V54.1072C44.7957 54.2608 44.7755 54.4149 44.726 54.5607C44.6765 54.7064 44.5988 54.8411 44.4971 54.9567C44.3955 55.0723 44.2721 55.1667 44.1339 55.2346C43.9957 55.3023 43.8454 55.3423 43.6918 55.3517H39.5432C39.3896 55.3423 39.2393 55.3023 39.1011 55.2346C38.9629 55.1667 38.8394 55.0723 38.7378 54.9567C38.6362 54.8411 38.5584 54.7064 38.5089 54.5607C38.4595 54.4149 38.4392 54.2608 38.4495 54.1072V50.3357C38.4325 50.0136 38.5375 49.6968 38.7438 49.4487C38.95 49.2005 39.2422 49.0393 39.5621 48.9969H43.7106C44.0274 49.0395 44.3158 49.202 44.5159 49.4513C44.716 49.7006 44.8125 50.0172 44.7855 50.3357ZM44.7855 42.114V45.8854C44.7957 46.0391 44.7755 46.1932 44.726 46.339C44.6765 46.4847 44.5988 46.6194 44.4971 46.7349C44.3955 46.8505 44.2721 46.945 44.1339 47.0129C43.9957 47.0806 43.8454 47.1206 43.6918 47.13H39.5432C39.3896 47.1206 39.2393 47.0806 39.1011 47.0129C38.9629 46.945 38.8394 46.8505 38.7378 46.7349C38.6362 46.6194 38.5584 46.4847 38.5089 46.339C38.4595 46.1932 38.4392 46.0391 38.4495 45.8854V42.114C38.4373 41.7951 38.5446 41.4829 38.7504 41.2388C38.9561 40.9946 39.2456 40.8361 39.5621 40.794H43.7106C44.0259 40.8321 44.3141 40.9909 44.5146 41.2372C44.7151 41.4832 44.8122 41.7978 44.7855 42.114ZM52.8752 66.7603V70.5317C52.8854 70.6854 52.8652 70.8395 52.8158 70.9852C52.7662 71.131 52.6885 71.2656 52.5869 71.3812C52.4852 71.4968 52.3618 71.5913 52.2236 71.6592C52.0854 71.7269 51.9351 71.7669 51.7815 71.7763H47.6329C47.4793 71.7669 47.329 71.7269 47.1908 71.6592C47.0526 71.5913 46.9291 71.4968 46.8275 71.3812C46.7259 71.2656 46.6481 71.131 46.5987 70.9852C46.5492 70.8395 46.529 70.6854 46.5392 70.5317V66.7603C46.5226 66.4352 46.6303 66.1161 46.8404 65.8674C47.0505 65.6189 47.3473 65.4593 47.6706 65.4214H51.8192C52.1346 65.4639 52.4211 65.6274 52.6182 65.8772C52.8152 66.1271 52.9074 66.4439 52.8752 66.7603ZM52.8752 58.5763V62.3477C52.8854 62.5014 52.8652 62.6555 52.8158 62.8012C52.7662 62.947 52.6885 63.0816 52.5869 63.1972C52.4852 63.3128 52.3618 63.4073 52.2236 63.4752C52.0854 63.5429 51.9351 63.5829 51.7815 63.5923H47.6329C47.4793 63.5829 47.329 63.5429 47.1908 63.4752C47.0526 63.4073 46.9291 63.3128 46.8275 63.1972C46.7259 63.0816 46.6481 62.947 46.5987 62.8012C46.5492 62.6555 46.529 62.5014 46.5392 62.3477V58.5763C46.5226 58.2512 46.6303 57.9321 46.8404 57.6834C47.0505 57.4349 47.3473 57.2753 47.6706 57.2374H51.8192C52.1346 57.2799 52.4211 57.4434 52.6182 57.6932C52.8152 57.9431 52.9074 58.2599 52.8752 58.5763ZM52.8752 50.3357V54.1072C52.8909 54.4162 52.7854 54.7193 52.581 54.9516C52.3768 55.1841 52.09 55.3276 51.7815 55.3517H47.6329C47.4793 55.3423 47.329 55.3023 47.1908 55.2346C47.0526 55.1667 46.9291 55.0723 46.8275 54.9567C46.7259 54.8411 46.6481 54.7064 46.5987 54.5607C46.5492 54.4149 46.529 54.2608 46.5392 54.1072V50.3357C46.5226 50.0106 46.6303 49.6916 46.8404 49.4428C47.0505 49.1943 47.3473 49.0348 47.6706 48.9969H51.8192C52.1346 49.0393 52.4211 49.2028 52.6182 49.4526C52.8152 49.7025 52.9074 50.0193 52.8752 50.3357Z" fill="#664A3B"/>
<path fill-rule="evenodd" clip-rule="evenodd" d="M52.8752 42.1141V45.8856C52.9049 46.0494 52.8993 46.2176 52.8587 46.3791C52.8182 46.5405 52.7437 46.6913 52.6402 46.8216C52.5367 46.9519 52.4065 47.0587 52.2584 47.1347C52.1103 47.2107 51.9477 47.254 51.7814 47.2621H47.6329C47.4792 47.2525 47.329 47.2127 47.1908 47.1448C47.0526 47.0771 46.9291 46.9827 46.8275 46.8671C46.7259 46.7515 46.6481 46.6168 46.5986 46.4711C46.5491 46.3253 46.5289 46.1712 46.5392 46.0176V42.2461C46.5275 41.9242 46.6374 41.6097 46.847 41.3651C47.0567 41.1206 47.3507 40.9639 47.6706 40.9261H51.8192C52.1076 40.9665 52.3723 41.1081 52.5659 41.3257C52.7594 41.5435 52.8689 41.823 52.8752 42.1141ZM60.946 66.7604V70.5318C60.9562 70.6855 60.936 70.8396 60.8866 70.9854C60.837 71.1311 60.7593 71.2658 60.6577 71.3814C60.556 71.497 60.4325 71.5914 60.2943 71.6591C60.1563 71.727 60.006 71.7668 59.8523 71.7764H55.7037C55.55 71.7668 55.3999 71.727 55.2617 71.6591C55.1235 71.5914 55 71.497 54.8983 71.3814C54.7967 71.2658 54.719 71.1311 54.6694 70.9854C54.62 70.8396 54.5998 70.6855 54.61 70.5318V66.7604C54.593 66.4382 54.6981 66.1215 54.9044 65.8734C55.1105 65.6252 55.4028 65.4638 55.7226 65.4216H59.8712C60.19 65.4595 60.4812 65.6211 60.6822 65.8713C60.8832 66.1217 60.9779 66.441 60.946 66.7604Z" fill="white"/>
<path fill-rule="evenodd" clip-rule="evenodd" d="M60.9461 58.5765V62.3479C60.9562 62.5016 60.9361 62.6556 60.8867 62.8014C60.8371 62.9472 60.7594 63.0818 60.6577 63.1974C60.5561 63.313 60.4326 63.4075 60.2943 63.4754C60.1563 63.5431 60.006 63.583 59.8523 63.5925H55.7038C55.3968 63.5683 55.1118 63.4243 54.9106 63.1912C54.7092 62.9581 54.6082 62.6551 54.6289 62.3479V58.5765C54.6119 58.2544 54.717 57.9376 54.9233 57.6894C55.1294 57.4413 55.4217 57.2799 55.7415 57.2376H59.8901C60.2053 57.28 60.492 57.4435 60.689 57.6934C60.8861 57.9432 60.9783 58.26 60.9461 58.5765Z" fill="#664A3B"/>
<path fill-rule="evenodd" clip-rule="evenodd" d="M60.9461 50.3358V54.1073C60.9617 54.4161 60.8563 54.7192 60.6519 54.9515C60.4477 55.184 60.1608 55.3275 59.8523 55.3518H55.7038C55.5501 55.3422 55.3998 55.3022 55.2618 55.2345C55.1235 55.1667 55 55.0722 54.8984 54.9566C54.7967 54.841 54.7191 54.7063 54.6695 54.5606C54.6201 54.4148 54.5999 54.2607 54.6101 54.1073V50.3358C54.5931 50.0136 54.6981 49.6968 54.9044 49.4486C55.1105 49.2004 55.4028 49.0392 55.7226 48.997H59.8712C60.1901 49.0349 60.4812 49.1963 60.6822 49.4467C60.8833 49.6969 60.9779 50.0162 60.9461 50.3358ZM60.9461 42.1141V45.8855C60.9562 46.039 60.9361 46.1931 60.8867 46.3389C60.8371 46.4846 60.7594 46.6193 60.6577 46.7349C60.5561 46.8506 60.4326 46.9449 60.2944 47.0128C60.1561 47.0805 60.006 47.1205 59.8523 47.1301H55.7038C55.5501 47.1205 55.3998 47.0805 55.2618 47.0128C55.1235 46.9449 55 46.8506 54.8984 46.7349C54.7967 46.6193 54.7191 46.4846 54.6695 46.3389C54.6201 46.1931 54.5999 46.039 54.6101 45.8855V42.1141C54.5978 41.795 54.7051 41.483 54.911 41.2388C55.1168 40.9946 55.4062 40.836 55.7226 40.7941H59.8712C60.1865 40.832 60.4746 40.9908 60.6751 41.2371C60.8757 41.4832 60.9728 41.7977 60.9461 42.1141ZM69.0358 66.7604V70.5318C69.046 70.6853 69.0258 70.8394 68.9764 70.9852C68.9268 71.1309 68.8491 71.2656 68.7474 71.3812C68.6458 71.4969 68.5223 71.5912 68.3841 71.6591C68.2458 71.7268 68.0957 71.7668 67.9421 71.7764H63.8501C63.6964 71.7668 63.5461 71.7268 63.408 71.6591C63.2698 71.5912 63.1463 71.4969 63.0447 71.3812C62.943 71.2656 62.8653 71.1309 62.8157 70.9852C62.7663 70.8394 62.7462 70.6853 62.7563 70.5318V66.7604C62.7388 66.441 62.8412 66.1266 63.0437 65.8788C63.2461 65.6312 63.5336 65.4679 63.8501 65.4215H67.9986C68.3105 65.4683 68.5924 65.6335 68.7855 65.883C68.9788 66.1323 69.0684 66.4466 69.0358 66.7604ZM69.0358 58.5764V62.3478C69.046 62.5013 69.0258 62.6554 68.9764 62.8012C68.9268 62.9469 68.8491 63.0816 68.7474 63.1972C68.6458 63.3129 68.5223 63.4072 68.3841 63.4751C68.2458 63.5428 68.0957 63.5828 67.9421 63.5924H63.8501C63.6915 63.5901 63.5351 63.5556 63.3903 63.4911C63.2457 63.4266 63.1154 63.3333 63.0079 63.2168C62.9002 63.1004 62.8174 62.9633 62.7645 62.814C62.7115 62.6646 62.6896 62.5059 62.6998 62.3478V58.5764C62.6734 58.2421 62.7792 57.9107 62.9941 57.6533C63.2091 57.3961 63.5165 57.2332 63.8501 57.1998H67.9986C68.3179 57.2464 68.6058 57.4173 68.8001 57.675C68.9941 57.9326 69.079 58.2566 69.0358 58.5764ZM69.0358 50.3358V54.1073C69.046 54.2607 69.0258 54.4148 68.9764 54.5606C68.9268 54.7063 68.8491 54.841 68.7474 54.9566C68.6458 55.0722 68.5223 55.1667 68.3841 55.2345C68.2458 55.3022 68.0957 55.3422 67.9421 55.3518H63.8501C63.6964 55.3422 63.5461 55.3022 63.408 55.2345C63.2698 55.1667 63.1463 55.0722 63.0447 54.9566C62.943 54.841 62.8653 54.7063 62.8157 54.5606C62.7663 54.4148 62.7462 54.2607 62.7563 54.1073V50.3358C62.7388 50.0164 62.8412 49.702 63.0437 49.4543C63.2461 49.2067 63.5336 49.0434 63.8501 48.997H67.9986C68.3105 49.0437 68.5924 49.2089 68.7855 49.4584C68.9788 49.7077 69.0684 50.022 69.0358 50.3358ZM69.0358 42.1141V45.8855C69.046 46.039 69.0258 46.1931 68.9764 46.3389C68.9268 46.4846 68.8491 46.6193 68.7474 46.7349C68.6458 46.8506 68.5223 46.9449 68.3841 47.0128C68.2458 47.0805 68.0957 47.1205 67.9421 47.1301H63.8501C63.6964 47.1205 63.5461 47.0805 63.408 47.0128C63.2698 46.9449 63.1463 46.8506 63.0447 46.7349C62.943 46.6193 62.8653 46.4846 62.8157 46.3389C62.7663 46.1931 62.7462 46.039 62.7563 45.8855V42.1141C62.7441 41.795 62.8514 41.483 63.0573 41.2388C63.263 40.9946 63.5525 40.836 63.8689 40.7941H67.9986C68.3069 40.8409 68.586 41.0034 68.7786 41.2486C68.9713 41.4939 69.0633 41.8033 69.0358 42.1141ZM44.7855 33.8735V37.645C44.7957 37.7985 44.7755 37.9525 44.726 38.0983C44.6765 38.2441 44.5988 38.3787 44.4971 38.4943C44.3955 38.6099 44.2721 38.7044 44.1339 38.7722C43.9957 38.8399 43.8454 38.8799 43.6918 38.8895H39.5432C39.3896 38.8799 39.2393 38.8399 39.1011 38.7722C38.9629 38.7044 38.8394 38.6099 38.7378 38.4943C38.6362 38.3787 38.5584 38.2441 38.5089 38.0983C38.4595 37.9525 38.4392 37.7985 38.4495 37.645V33.8735C38.4373 33.5545 38.5446 33.2424 38.7504 32.9982C38.9561 32.754 39.2456 32.5954 39.5621 32.5535H43.7106C44.0239 32.5958 44.3094 32.7559 44.509 33.001C44.7086 33.2462 44.8075 33.5581 44.7855 33.8735Z" fill="white"/>
<path fill-rule="evenodd" clip-rule="evenodd" d="M52.8752 33.8735V37.645C52.8853 37.7985 52.8652 37.9525 52.8158 38.0983C52.7662 38.2441 52.6885 38.3787 52.5868 38.4943C52.4852 38.6099 52.3617 38.7044 52.2235 38.7722C52.0853 38.8399 51.9351 38.8799 51.7814 38.8895H47.6329C47.4792 38.8799 47.329 38.8399 47.1908 38.7722C47.0526 38.7044 46.9291 38.6099 46.8275 38.4943C46.7259 38.3787 46.6481 38.2441 46.5986 38.0983C46.5491 37.9525 46.5289 37.7985 46.5392 37.645V33.8735C46.5275 33.5515 46.6374 33.2369 46.847 32.9923C47.0567 32.7478 47.3507 32.5911 47.6706 32.5535H51.8192C52.131 32.5958 52.4145 32.7566 52.6112 33.0023C52.8076 33.248 52.9023 33.5599 52.8752 33.8735Z" fill="#664A3B"/>
<path fill-rule="evenodd" clip-rule="evenodd" d="M60.946 33.8735V37.645C60.9562 37.7985 60.936 37.9525 60.8866 38.0983C60.837 38.2441 60.7593 38.3787 60.6577 38.4943C60.556 38.6099 60.4325 38.7044 60.2943 38.7722C60.1563 38.8399 60.006 38.8799 59.8523 38.8895H55.7037C55.55 38.8799 55.3999 38.8399 55.2617 38.7722C55.1235 38.7044 55 38.6099 54.8983 38.4943C54.7967 38.3787 54.719 38.2441 54.6694 38.0983C54.62 37.9525 54.5998 37.7985 54.61 37.645V33.8735C54.5979 33.5545 54.7051 33.2424 54.911 32.9982C55.1167 32.754 55.4062 32.5954 55.7226 32.5535H59.8712C60.1864 32.5914 60.4746 32.7502 60.675 32.9965C60.8757 33.2426 60.9728 33.5571 60.946 33.8735ZM69.0357 33.8735V37.645C69.0459 37.7985 69.0257 37.9525 68.9763 38.0983C68.9267 38.2441 68.849 38.3787 68.7474 38.4943C68.6458 38.6099 68.5222 38.7044 68.384 38.7722C68.246 38.8399 68.0957 38.8799 67.942 38.8895H63.85C63.6963 38.8799 63.5462 38.8399 63.408 38.7722C63.2698 38.7044 63.1463 38.6099 63.0446 38.4943C62.943 38.3787 62.8653 38.2441 62.8157 38.0983C62.7663 37.9525 62.7461 37.7985 62.7563 37.645V33.8735C62.7437 33.5573 62.8483 33.2475 63.0501 33.0039C63.2521 32.7602 63.537 32.5997 63.85 32.5535H67.9986C68.3069 32.6003 68.586 32.7629 68.7785 33.008C68.9712 33.2533 69.0633 33.5628 69.0357 33.8735ZM77.1632 66.7604V70.5318C77.1733 70.6853 77.1532 70.8394 77.1038 70.9852C77.0542 71.1309 76.9765 71.2656 76.8748 71.3812C76.7732 71.4969 76.6497 71.5912 76.5115 71.6591C76.3734 71.7268 76.2231 71.7668 76.0694 71.7764H71.9209C71.7672 71.7668 71.6171 71.7268 71.4789 71.6591C71.3406 71.5912 71.2171 71.4969 71.1155 71.3812C71.0138 71.2656 70.9361 71.1309 70.8866 70.9852C70.8372 70.8394 70.817 70.6853 70.8272 70.5318V66.7604C70.8102 66.4381 70.9152 66.1213 71.1215 65.8732C71.3276 65.625 71.6199 65.4638 71.9397 65.4215H76.0883C76.4051 65.464 76.6934 65.6265 76.8935 65.8758C77.0938 66.1251 77.1901 66.4419 77.1632 66.7604Z" fill="white"/>
<path fill-rule="evenodd" clip-rule="evenodd" d="M77.1632 58.5765V62.3479C77.1734 62.5016 77.1532 62.6556 77.1038 62.8014C77.0542 62.9472 76.9765 63.0818 76.8749 63.1974C76.7733 63.313 76.6497 63.4075 76.5115 63.4754C76.3733 63.5431 76.2232 63.583 76.0695 63.5925H71.9209C71.7673 63.583 71.617 63.5431 71.4789 63.4754C71.3407 63.4075 71.2172 63.313 71.1156 63.1974C71.0139 63.0818 70.9362 62.9472 70.8866 62.8014C70.8372 62.6556 70.817 62.5016 70.8272 62.3479V58.5765C70.8103 58.2544 70.9153 57.9376 71.1216 57.6894C71.3277 57.4413 71.62 57.2799 71.9398 57.2376H76.0884C76.4052 57.28 76.6935 57.4428 76.8936 57.6921C77.0936 57.9414 77.1902 58.258 77.1632 58.5765Z" fill="#664A3B"/>
<path fill-rule="evenodd" clip-rule="evenodd" d="M77.1632 50.3358V54.1073C77.1734 54.2607 77.1532 54.4148 77.1038 54.5606C77.0542 54.7063 76.9765 54.841 76.8749 54.9566C76.7733 55.0722 76.6497 55.1667 76.5115 55.2345C76.3733 55.3022 76.2232 55.3422 76.0695 55.3518H71.9209C71.6124 55.3275 71.3256 55.184 71.1214 54.9515C70.917 54.7192 70.8116 54.4161 70.8272 54.1073V50.3358C70.8103 50.0136 70.9153 49.6968 71.1216 49.4486C71.3277 49.2004 71.62 49.0392 71.9398 48.997H76.0884C76.4052 49.0394 76.6935 49.2019 76.8936 49.4512C77.0936 49.7005 77.1902 50.0173 77.1632 50.3358ZM77.1632 42.1141V45.8855C77.1734 46.039 77.1532 46.1931 77.1038 46.3389C77.0542 46.4846 76.9765 46.6193 76.8749 46.7349C76.7733 46.8506 76.6497 46.9449 76.5115 47.0128C76.3733 47.0805 76.2232 47.1205 76.0695 47.1301H71.9209C71.7673 47.1205 71.617 47.0805 71.4789 47.0128C71.3407 46.9449 71.2172 46.8506 71.1156 46.7349C71.0139 46.6193 70.9362 46.4846 70.8866 46.3389C70.8372 46.1931 70.817 46.039 70.8272 45.8855V42.1141C70.815 41.795 70.9223 41.483 71.1282 41.2388C71.3339 40.9946 71.6234 40.836 71.9398 40.7941H76.0884C76.4037 40.832 76.6918 40.9908 76.8922 41.2371C77.0929 41.4832 77.19 41.7977 77.1632 42.1141ZM77.1632 33.8735V37.645C77.1734 37.7985 77.1532 37.9525 77.1038 38.0983C77.0542 38.2441 76.9765 38.3787 76.8749 38.4943C76.7733 38.6099 76.6497 38.7044 76.5115 38.7722C76.3733 38.8399 76.2232 38.8799 76.0695 38.8895H71.9209C71.7673 38.8799 71.617 38.8399 71.4789 38.7722C71.3407 38.7044 71.2172 38.6099 71.1156 38.4943C71.0139 38.3787 70.9362 38.2441 70.8866 38.0983C70.8372 37.9525 70.817 37.7985 70.8272 37.645V33.8735C70.815 33.5545 70.9223 33.2424 71.1282 32.9982C71.3339 32.754 71.6234 32.5954 71.9398 32.5535H76.0884C76.4016 32.5958 76.6871 32.7559 76.8868 33.001C77.0863 33.2462 77.1853 33.5581 77.1632 33.8735Z" fill="white"/>
<path fill-rule="evenodd" clip-rule="evenodd" d="M85.3284 66.7603V70.5318C85.3491 70.8389 85.2481 71.142 85.0467 71.375C84.8455 71.6081 84.5605 71.7522 84.2535 71.7763H80.0861C79.9309 71.7741 79.7778 71.7407 79.6356 71.6785C79.4934 71.6162 79.3652 71.5263 79.2581 71.4141C79.151 71.3017 79.0672 71.1691 79.012 71.0241C78.9567 70.8793 78.9307 70.7247 78.9358 70.5695V66.798C78.9192 66.4729 79.0269 66.1539 79.237 65.9052C79.4472 65.6566 79.744 65.4971 80.0672 65.4592H84.2158C84.5343 65.488 84.829 65.6404 85.0369 65.8835C85.2449 66.1265 85.3493 66.4413 85.3284 66.7603ZM85.3284 58.5763V62.3478C85.3491 62.6549 85.2481 62.958 85.0467 63.191C84.8455 63.4241 84.5605 63.5682 84.2535 63.5923H80.0861C79.9275 63.5902 79.7712 63.5557 79.6264 63.4912C79.4817 63.4266 79.3514 63.3334 79.2439 63.2169C79.1363 63.1005 79.0535 62.9634 79.0005 62.8141C78.9477 62.6646 78.9256 62.506 78.9358 62.3478V58.5763C78.9192 58.2512 79.0269 57.9322 79.237 57.6834C79.4472 57.4349 79.744 57.2754 80.0672 57.2375H84.2158C84.5394 57.271 84.8372 57.4298 85.0452 57.68C85.2531 57.9303 85.3548 58.2522 85.3284 58.5763ZM85.3284 50.3358V54.1072C85.3491 54.4144 85.2481 54.7174 85.0467 54.9505C84.8455 55.1835 84.5605 55.3276 84.2535 55.3518H80.0861C79.9309 55.3495 79.7778 55.3161 79.6356 55.2539C79.4934 55.1917 79.3652 55.1017 79.2581 54.9895C79.151 54.8771 79.0672 54.7446 79.012 54.5995C78.9567 54.4547 78.9307 54.3001 78.9358 54.1449V50.3735C78.9192 50.0484 79.0269 49.7293 79.237 49.4806C79.4472 49.232 79.744 49.0725 80.0672 49.0346H84.2158C84.5324 49.068 84.8243 49.2215 85.0314 49.4636C85.2383 49.7055 85.3446 50.0178 85.3284 50.3358Z" fill="#664A3B"/>
<path fill-rule="evenodd" clip-rule="evenodd" d="M85.3284 42.1142V45.8856C85.3492 46.1928 85.2481 46.4956 85.0469 46.7287C84.8455 46.9618 84.5606 47.106 84.2536 47.1302H80.0861C79.9309 47.1277 79.7778 47.0943 79.6356 47.0321C79.4935 46.9699 79.3652 46.8801 79.2581 46.7677C79.151 46.6553 79.0675 46.523 79.012 46.3779C78.9568 46.2329 78.9308 46.0783 78.9359 45.9233V42.1519C78.9242 41.83 79.0341 41.5154 79.2438 41.2709C79.4533 41.0263 79.7475 40.8696 80.0673 40.8319H84.2159C84.531 40.8605 84.8227 41.0101 85.0301 41.2492C85.2375 41.4881 85.3443 41.7981 85.3284 42.1142Z" fill="white"/>
<path fill-rule="evenodd" clip-rule="evenodd" d="M85.3284 33.8736V37.6451C85.3492 37.9522 85.2481 38.2553 85.0469 38.4882C84.8455 38.7212 84.5606 38.8655 84.2536 38.8896H80.0861C79.9326 38.8872 79.781 38.8544 79.6402 38.7935C79.4993 38.7324 79.3718 38.6441 79.2649 38.5338C79.1582 38.4235 79.0741 38.2932 79.0177 38.1504C78.9611 38.0077 78.9334 37.8551 78.9359 37.7016V33.9302C78.9242 33.6083 79.0341 33.2938 79.2438 33.0492C79.4533 32.8046 79.7475 32.6479 80.0673 32.6102H84.2159C84.5259 32.6432 84.8121 32.7912 85.0182 33.0253C85.2241 33.2593 85.3348 33.5619 85.3284 33.8736Z" fill="#664A3B"/>
<path fill-rule="evenodd" clip-rule="evenodd" d="M44.7854 25.7084V29.4798C44.7957 29.6334 44.7755 29.7875 44.726 29.9333C44.6765 30.0791 44.5987 30.2137 44.4971 30.3293C44.3955 30.4449 44.272 30.5394 44.1338 30.6071C43.9956 30.675 43.8454 30.7148 43.6917 30.7244H39.5432C39.2431 30.705 38.962 30.5707 38.7583 30.3495C38.5546 30.1283 38.444 29.8371 38.4494 29.5364V25.765C38.4373 25.4459 38.5446 25.1338 38.7503 24.8897C38.9561 24.6456 39.2455 24.487 39.562 24.445H43.7106C44.0137 24.4866 44.2909 24.6384 44.4892 24.8715C44.6875 25.1046 44.7929 25.4025 44.7854 25.7084ZM52.8752 25.7084V29.4798C52.8853 29.6334 52.8652 29.7875 52.8158 29.9333C52.7662 30.0791 52.6885 30.2137 52.5868 30.3293C52.4852 30.4449 52.3618 30.5394 52.2235 30.6071C52.0853 30.675 51.9351 30.7148 51.7815 30.7244H47.6329C47.3328 30.705 47.0517 30.5707 46.848 30.3495C46.6443 30.1283 46.5337 29.8371 46.5392 29.5364V25.765C46.5275 25.443 46.6374 25.1285 46.847 24.884C47.0567 24.6394 47.3507 24.4827 47.6706 24.445H51.8192C52.1206 24.4869 52.3957 24.6394 52.591 24.873C52.7862 25.1065 52.8874 25.4043 52.8752 25.7084ZM60.946 25.7084V29.4798C60.9562 29.6334 60.936 29.7875 60.8866 29.9333C60.837 30.0791 60.7593 30.2137 60.6577 30.3293C60.556 30.4449 60.4325 30.5394 60.2943 30.6071C60.1563 30.675 60.006 30.7148 59.8523 30.7244H55.7037C55.55 30.7148 55.3999 30.675 55.2617 30.6071C55.1235 30.5394 55 30.4449 54.8983 30.3293C54.7967 30.2137 54.719 30.0791 54.6694 29.9333C54.62 29.7875 54.5998 29.6334 54.61 29.4798V25.7084C54.5979 25.3894 54.7051 25.0773 54.911 24.8331C55.1167 24.589 55.4062 24.4304 55.7226 24.3884H59.8712C60.1865 24.4263 60.4746 24.5852 60.675 24.8314C60.8757 25.0776 60.9728 25.392 60.946 25.7084ZM69.0357 25.7084V29.4798C69.0459 29.6334 69.0257 29.7875 68.9763 29.9333C68.9267 30.0791 68.849 30.2137 68.7474 30.3293C68.6458 30.4449 68.5222 30.5394 68.384 30.6071C68.246 30.675 68.0957 30.7148 67.942 30.7244H63.85C63.6963 30.7148 63.5462 30.675 63.408 30.6071C63.2698 30.5394 63.1463 30.4449 63.0446 30.3293C62.943 30.2137 62.8653 30.0791 62.8157 29.9333C62.7663 29.7875 62.7461 29.6334 62.7563 29.4798V25.7084C62.7437 25.3922 62.8483 25.0825 63.0501 24.8388C63.2521 24.5951 63.537 24.4347 63.85 24.3884H67.9986C68.3069 24.4352 68.586 24.5977 68.7785 24.843C68.9712 25.0882 69.0633 25.3977 69.0357 25.7084ZM77.1632 25.7084V29.4798C77.1733 29.6334 77.1532 29.7875 77.1038 29.9333C77.0542 30.0791 76.9765 30.2137 76.8748 30.3293C76.7732 30.4449 76.6497 30.5394 76.5115 30.6071C76.3734 30.675 76.2231 30.7148 76.0694 30.7244H71.9209C71.6224 30.7006 71.344 30.5651 71.1411 30.3448C70.9384 30.1245 70.8262 29.8358 70.8272 29.5364V25.765C70.8151 25.4459 70.9222 25.1338 71.1281 24.8897C71.3338 24.6456 71.6233 24.487 71.9397 24.445H76.0883C76.3915 24.4866 76.6687 24.6384 76.8669 24.8715C77.0651 25.1046 77.1707 25.4025 77.1632 25.7084ZM85.3283 25.7084V29.4798C85.349 29.787 85.248 30.09 85.0468 30.3229C84.8454 30.556 84.5604 30.7003 84.2534 30.7244H80.086C79.9325 30.722 79.7809 30.6893 79.64 30.6282C79.4992 30.5671 79.3717 30.4791 79.2648 30.3688C79.1581 30.2583 79.0739 30.1281 79.0176 29.9853C78.961 29.8425 78.9333 29.6899 78.9357 29.5364V25.765C78.924 25.443 79.034 25.1285 79.2437 24.884C79.4532 24.6394 79.7473 24.4827 80.0672 24.445H84.2157C84.5274 24.4737 84.8163 24.6205 85.0232 24.8555C85.2301 25.0904 85.3392 25.3956 85.3283 25.7084Z" fill="white"/>
<path fill-rule="evenodd" clip-rule="evenodd" d="M93.5502 66.7603V70.5317C93.5604 70.6854 93.5402 70.8395 93.4908 70.9852C93.4412 71.131 93.3635 71.2656 93.2619 71.3812C93.1603 71.4968 93.0368 71.5913 92.8985 71.6592C92.7603 71.7269 92.6102 71.7669 92.4565 71.7763H88.3645C88.2108 71.7669 88.0605 71.7269 87.9225 71.6592C87.7843 71.5913 87.6608 71.4968 87.5591 71.3812C87.4575 71.2656 87.3798 71.131 87.3302 70.9852C87.2808 70.8395 87.2606 70.6854 87.2708 70.5317V66.7603C87.2533 66.441 87.3557 66.1267 87.5582 65.8789C87.7605 65.6311 88.0481 65.468 88.3645 65.4214H92.5131C92.825 65.4684 93.1069 65.6336 93.3 65.8831C93.4933 66.1324 93.5829 66.4467 93.5502 66.7603ZM93.5502 58.5763V62.3477C93.5604 62.5014 93.5402 62.6555 93.4908 62.8012C93.4412 62.947 93.3635 63.0816 93.2619 63.1972C93.1603 63.3128 93.0368 63.4073 92.8985 63.4752C92.7603 63.5429 92.6102 63.5829 92.4565 63.5923H88.3645C88.2059 63.5902 88.0496 63.5557 87.9048 63.4912C87.7602 63.4265 87.6298 63.3334 87.5224 63.2168C87.4147 63.1005 87.3319 62.9634 87.2789 62.8141C87.2259 62.6645 87.2041 62.5059 87.2142 62.3477V58.5763C87.1878 58.2421 87.2936 57.9108 87.5086 57.6534C87.7236 57.3962 88.0309 57.2333 88.3645 57.1997H92.5131C92.8303 57.251 93.1152 57.423 93.3085 57.6794C93.5018 57.9361 93.5883 58.2574 93.5502 58.5763ZM93.5502 50.3357V54.1072C93.5604 54.2608 93.5402 54.4149 93.4908 54.5607C93.4412 54.7064 93.3635 54.8411 93.2619 54.9567C93.1603 55.0723 93.0368 55.1667 92.8985 55.2346C92.7603 55.3023 92.6102 55.3423 92.4565 55.3517H88.3645C88.2108 55.3423 88.0605 55.3023 87.9225 55.2346C87.7843 55.1667 87.6608 55.0723 87.5591 54.9567C87.4575 54.8411 87.3798 54.7064 87.3302 54.5607C87.2808 54.4149 87.2606 54.2608 87.2708 54.1072V50.3357C87.2533 50.0165 87.3557 49.7021 87.5582 49.4543C87.7605 49.2066 88.0481 49.0434 88.3645 48.9969H92.5131C92.825 49.0438 93.1069 49.209 93.3 49.4585C93.4933 49.7078 93.5829 50.0221 93.5502 50.3357ZM93.5502 42.114V45.8854C93.5604 46.0391 93.5402 46.1932 93.4908 46.339C93.4412 46.4847 93.3635 46.6194 93.2619 46.7349C93.1603 46.8505 93.0368 46.945 92.8985 47.0129C92.7603 47.0806 92.6102 47.1206 92.4565 47.13H88.3645C88.2108 47.1206 88.0605 47.0806 87.9225 47.0129C87.7843 46.945 87.6608 46.8505 87.5591 46.7349C87.4575 46.6194 87.3798 46.4847 87.3302 46.339C87.2808 46.1932 87.2606 46.0391 87.2708 45.8854V42.114C87.2585 41.7951 87.3658 41.4829 87.5718 41.2388C87.7775 40.9946 88.067 40.8361 88.3834 40.794H92.5319C92.8369 40.8451 93.1112 41.0095 93.3 41.2543C93.4889 41.4991 93.5783 41.8063 93.5502 42.114Z" fill="#664A3B"/>
<path fill-rule="evenodd" clip-rule="evenodd" d="M93.5503 33.8735V37.645C93.5604 37.7987 93.5403 37.9527 93.4909 38.0985C93.4413 38.2443 93.3636 38.3787 93.2619 38.4945C93.1603 38.6101 93.0368 38.7046 92.8986 38.7723C92.7603 38.8401 92.6102 38.8799 92.4565 38.8895H88.3645C88.2109 38.8799 88.0606 38.8401 87.9225 38.7723C87.7843 38.7046 87.6608 38.6101 87.5592 38.4945C87.4575 38.3787 87.3798 38.2443 87.3302 38.0985C87.2808 37.9527 87.2606 37.7987 87.2708 37.645V33.8735C87.2582 33.5573 87.3629 33.2477 87.5646 33.0039C87.7666 32.7602 88.0515 32.5997 88.3645 32.5535H92.5131C92.8195 32.6045 93.0958 32.7681 93.2878 33.0123C93.4797 33.2565 93.5733 33.5637 93.5503 33.8735ZM93.5503 25.7084V29.4798C93.5604 29.6334 93.5403 29.7875 93.4909 29.9333C93.4413 30.0791 93.3636 30.2137 93.2619 30.3293C93.1603 30.4449 93.0368 30.5394 92.8986 30.6071C92.7603 30.675 92.6102 30.7148 92.4565 30.7244H88.3645C88.2109 30.7148 88.0606 30.675 87.9225 30.6071C87.7843 30.5394 87.6608 30.4449 87.5592 30.3293C87.4575 30.2137 87.3798 30.0791 87.3302 29.9333C87.2808 29.7875 87.2606 29.6334 87.2708 29.4798V25.7084C87.2582 25.3922 87.3629 25.0825 87.5646 24.8388C87.7666 24.5951 88.0515 24.4347 88.3645 24.3884H92.5131C92.8214 24.4352 93.1003 24.5977 93.293 24.843C93.4858 25.0882 93.5778 25.3977 93.5503 25.7084Z" fill="white"/>
<path fill-rule="evenodd" clip-rule="evenodd" d="M44.7855 17.5434V21.3148C44.7957 21.4684 44.7755 21.6225 44.726 21.7683C44.6765 21.9141 44.5988 22.0487 44.4971 22.1643C44.3955 22.2799 44.2721 22.3744 44.1339 22.4422C43.9957 22.51 43.8454 22.5498 43.6918 22.5594H39.5432C39.3896 22.5498 39.2393 22.51 39.1011 22.4422C38.9629 22.3744 38.8394 22.2799 38.7378 22.1643C38.6362 22.0487 38.5584 21.9141 38.5089 21.7683C38.4595 21.6225 38.4392 21.4684 38.4495 21.3148V17.5434C38.4373 17.2244 38.5446 16.9123 38.7504 16.6681C38.9561 16.424 39.2456 16.2654 39.5621 16.2234H43.7106C44.0259 16.2614 44.3141 16.4202 44.5146 16.6664C44.7151 16.9126 44.8122 17.227 44.7855 17.5434ZM52.8752 17.5434V21.3148C52.8854 21.4684 52.8652 21.6225 52.8158 21.7683C52.7662 21.9141 52.6885 22.0487 52.5869 22.1643C52.4852 22.2799 52.3618 22.3744 52.2236 22.4422C52.0854 22.51 51.9351 22.5498 51.7815 22.5594H47.6329C47.4793 22.5498 47.329 22.51 47.1908 22.4422C47.0526 22.3744 46.9291 22.2799 46.8275 22.1643C46.7259 22.0487 46.6481 21.9141 46.5987 21.7683C46.5492 21.6225 46.529 21.4684 46.5392 21.3148V17.5434C46.5275 17.2215 46.6374 16.907 46.847 16.6624C47.0567 16.4178 47.3507 16.2611 47.6706 16.2234H51.8192C52.131 16.2658 52.4146 16.4265 52.6112 16.6722C52.8077 16.918 52.9024 17.2299 52.8752 17.5434Z" fill="#664A3B"/>
<path fill-rule="evenodd" clip-rule="evenodd" d="M60.946 17.5433V21.3148C60.9562 21.4684 60.936 21.6225 60.8866 21.7682C60.837 21.914 60.7593 22.0486 60.6577 22.1642C60.556 22.2799 60.4325 22.3743 60.2943 22.4421C60.1563 22.5099 60.006 22.5497 59.8523 22.5593H55.7037C55.55 22.5497 55.3999 22.5099 55.2617 22.4421C55.1235 22.3743 55 22.2799 54.8983 22.1642C54.7967 22.0486 54.719 21.914 54.6694 21.7682C54.62 21.6225 54.5998 21.4684 54.61 21.3148V17.5433C54.5979 17.2243 54.7051 16.9122 54.911 16.6681C55.1167 16.4239 55.4062 16.2654 55.7226 16.2233H59.8712C60.1864 16.2613 60.4746 16.4201 60.675 16.6663C60.8757 16.9125 60.9728 17.2269 60.946 17.5433ZM69.0357 17.5433V21.3148C69.0459 21.4684 69.0257 21.6225 68.9763 21.7682C68.9267 21.914 68.849 22.0486 68.7474 22.1642C68.6458 22.2799 68.5222 22.3743 68.384 22.4421C68.246 22.5099 68.0957 22.5497 67.942 22.5593H63.85C63.6963 22.5497 63.5462 22.5099 63.408 22.4421C63.2698 22.3743 63.1463 22.2799 63.0446 22.1642C62.943 22.0486 62.8653 21.914 62.8157 21.7682C62.7663 21.6225 62.7461 21.4684 62.7563 21.3148V17.5433C62.7388 17.224 62.8413 16.9096 63.0437 16.6619C63.246 16.4142 63.5336 16.251 63.85 16.2045H67.9986C68.3105 16.2513 68.5924 16.4166 68.7855 16.666C68.9788 16.9153 69.0684 17.2296 69.0357 17.5433ZM77.1632 17.5433V21.3148C77.1733 21.4684 77.1532 21.6225 77.1038 21.7682C77.0542 21.914 76.9765 22.0486 76.8748 22.1642C76.7732 22.2799 76.6497 22.3743 76.5115 22.4421C76.3734 22.5099 76.2231 22.5497 76.0694 22.5593H71.9209C71.7672 22.5497 71.6171 22.5099 71.4789 22.4421C71.3406 22.3743 71.2171 22.2799 71.1155 22.1642C71.0138 22.0486 70.9361 21.914 70.8866 21.7682C70.8372 21.6225 70.817 21.4684 70.8272 21.3148V17.5433C70.8151 17.2243 70.9222 16.9122 71.1281 16.6681C71.3338 16.4239 71.6233 16.2654 71.9397 16.2233H76.0883C76.4036 16.2613 76.6917 16.4201 76.8922 16.6663C77.0928 16.9125 77.1899 17.2269 77.1632 17.5433Z" fill="white"/>
<path fill-rule="evenodd" clip-rule="evenodd" d="M85.3284 17.5433V21.3148C85.3492 21.6219 85.2481 21.9249 85.0469 22.158C84.8455 22.391 84.5606 22.5352 84.2536 22.5593H80.0861C79.9309 22.5569 79.7778 22.5236 79.6356 22.4614C79.4935 22.3992 79.3652 22.3093 79.2581 22.197C79.151 22.0846 79.0675 21.9521 79.012 21.8071C78.9568 21.6621 78.9308 21.5076 78.9359 21.3525V17.581C78.9242 17.2591 79.0341 16.9446 79.2438 16.7C79.4533 16.4554 79.7475 16.2987 80.0673 16.261H84.2159C84.531 16.2899 84.8227 16.4394 85.0301 16.6784C85.2375 16.9174 85.3443 17.2273 85.3284 17.5433ZM93.5501 17.5433V21.3148C93.5603 21.4684 93.5401 21.6225 93.4907 21.7682C93.4411 21.914 93.3635 22.0486 93.2618 22.1642C93.1602 22.2799 93.0367 22.3743 92.8984 22.4421C92.7604 22.5099 92.6101 22.5497 92.4564 22.5593H88.3644C88.2107 22.5497 88.0606 22.5099 87.9224 22.4421C87.7842 22.3743 87.6607 22.2799 87.559 22.1642C87.4574 22.0486 87.3797 21.914 87.3301 21.7682C87.2807 21.6225 87.2605 21.4684 87.2707 21.3148V17.5433C87.2532 17.224 87.3558 16.9096 87.5581 16.6619C87.7604 16.4142 88.048 16.251 88.3644 16.2045H92.513C92.8249 16.2513 93.1068 16.4166 93.2999 16.666C93.4932 16.9153 93.5828 17.2296 93.5501 17.5433Z" fill="#664A3B"/>
</svg>
