<svg width="132" height="88" viewBox="0 0 132 88" fill="none" xmlns="http://www.w3.org/2000/svg">
<path d="M102.048 44.0007C102.048 63.9092 85.9092 80.0482 66.0007 80.0482C46.0922 80.0482 29.9531 63.9092 29.9531 44.0007C29.9531 24.0922 46.0922 7.95312 66.0007 7.95312C85.9092 7.95312 102.048 24.0922 102.048 44.0007Z" fill="#764ABC"/>
<path fill-rule="evenodd" clip-rule="evenodd" d="M60.3735 24.2236C61.8054 21.9347 63.7046 19.9738 65.9455 18.4684C68.1577 19.9386 70.0324 21.8623 71.4462 24.1107C75.1787 29.2867 77.0607 35.5666 76.7915 41.9424C77.9518 42.8782 79.1473 43.7766 80.2886 44.7305C81.9248 46.189 82.686 48.3905 82.3017 50.5474C81.7503 53.2057 81.2222 55.8692 80.6399 58.5211C80.2535 59.6804 78.9983 60.3075 77.8379 59.9199C77.6357 59.8518 77.4451 59.7559 77.2695 59.6335C75.3968 58.1294 73.5722 56.573 71.706 55.0675C70.2655 56.4164 68.4025 57.2255 66.4341 57.3564C64.1623 57.4671 61.9406 56.6666 60.2617 55.1315C58.9204 56.1183 57.6737 57.3043 56.3622 58.3635C55.7873 58.9278 55.1475 59.4206 54.4545 59.8326C53.3143 60.2744 52.0315 59.7091 51.5886 58.5689C51.5673 58.5136 51.5482 58.4582 51.5311 58.4019C50.9318 55.8085 50.3047 53.2237 49.7245 50.6273C49.2732 48.3725 50.0865 46.0496 51.8473 44.5698C52.8661 43.7479 53.8977 42.941 54.9367 42.1426C55.2252 41.9956 55.0804 41.6656 55.0953 41.4112C54.9569 35.2642 56.8125 29.2367 60.3831 24.2321M62.2205 32.259C60.8643 34.0059 61.0272 36.4928 62.6028 38.0471C64.4157 39.8165 67.2901 39.8761 69.1744 38.1823C70.5147 36.9741 70.9756 35.0663 70.3337 33.379C69.6832 31.7555 68.1747 30.6334 66.432 30.478C64.816 30.3098 63.2266 30.9815 62.2195 32.2568" fill="white"/>
<path d="M59.7256 60.5654C59.7692 59.9585 60.2962 59.5018 60.903 59.5444C61.0627 59.5561 61.2181 59.6018 61.3586 59.6796C64.2553 61.0806 67.6343 61.0806 70.5321 59.6796C71.0708 59.3847 71.7468 59.5828 72.0416 60.1225C72.1066 60.2396 72.1492 60.3673 72.1673 60.5004C72.1759 62.1238 72.1759 63.7473 72.1673 65.3708C72.1066 65.9745 71.568 66.4152 70.9643 66.3534C70.7801 66.3354 70.6045 66.2704 70.4523 66.1661C69.9657 65.7531 69.5272 65.2888 69.0598 64.8545C68.3168 66.2437 67.6204 67.6522 66.8731 69.0372C66.5336 69.5494 65.8426 69.6877 65.3306 69.3481C65.2113 69.2683 65.1081 69.1671 65.0272 69.0489C64.2777 67.6607 63.5847 66.2437 62.8278 64.8567C62.3668 65.2932 61.9271 65.7562 61.4396 66.1682C60.9371 66.5099 60.2526 66.379 59.9108 65.8765C59.8075 65.7242 59.7437 65.5475 59.7256 65.3633C59.7128 63.7622 59.7256 62.16 59.7256 60.5589" fill="white"/>
<path d="M65.9095 37.1783C67.1392 37.2071 68.1579 36.233 68.1866 35.0044V34.9906C68.1664 33.762 67.154 32.7816 65.9255 32.8008L65.9095 32.8018C64.681 32.7742 63.6622 33.7483 63.6356 34.9767L63.6345 34.9906C63.6558 36.2202 64.6693 37.1996 65.8978 37.1783H65.9095Z" fill="white"/>
</svg>
