<svg width="132" height="88" viewBox="0 0 132 88" fill="none" xmlns="http://www.w3.org/2000/svg">
<path opacity="0.3" d="M66.0006 78.3665C80.8825 78.3665 92.9466 77.7624 92.9466 77.0173C92.9466 76.2721 80.8825 75.668 66.0006 75.668C51.1188 75.668 39.0547 76.2721 39.0547 77.0173C39.0547 77.7624 51.1188 78.3665 66.0006 78.3665Z" fill="#363942"/>
<path d="M66.2772 75.8278C84.2274 75.8278 98.779 61.2763 98.779 43.326C98.779 25.3758 84.2274 10.8242 66.2772 10.8242C48.3269 10.8242 33.7754 25.3758 33.7754 43.326C33.7754 61.2763 48.3269 75.8278 66.2772 75.8278Z" fill="white"/>
<path d="M98.5016 43.3242C98.5016 61.2617 83.9373 75.826 65.9998 75.826C48.0623 75.826 33.498 61.2617 33.498 43.3242C33.498 52.7692 48.0623 68.6431 65.9998 68.6431C83.9373 68.6431 98.5016 53.166 98.5016 43.3242Z" fill="#FDE2D7"/>
<path d="M66.0009 77.0175C47.4285 77.0175 32.3086 61.8976 32.3086 43.3252C32.3086 24.7527 47.4285 9.63281 66.0009 9.63281C84.5734 9.63281 99.6933 24.7527 99.6933 43.3252C99.6933 61.8976 84.5734 77.0175 66.0009 77.0175ZM66.0009 12.0139C48.7381 12.0139 34.6897 26.0623 34.6897 43.3252C34.6897 60.588 48.7381 74.6364 66.0009 74.6364C83.2638 74.6364 97.3122 60.588 97.3122 43.3252C97.3122 26.0623 83.2638 12.0139 66.0009 12.0139Z" fill="#363942"/>
<path d="M65.7604 63.96C58.26 63.96 54.2121 56.7374 53.7756 55.7056C53.22 54.396 53.5375 52.8482 54.6487 51.9355C55.7201 50.9831 57.3075 50.864 58.5378 51.6577C58.5378 51.6577 61.3951 53.3642 64.7683 53.3642C68.578 53.3642 73.3799 51.4196 73.4592 51.3799C74.6895 50.864 76.1181 51.1815 77.0309 52.0942C77.9436 53.0467 78.2214 54.4753 77.7055 55.6659C77.269 56.7374 73.3005 63.96 65.7604 63.96Z" fill="#363942"/>
<path d="M81.9928 42.2943C82.1516 42.5324 82.469 42.5721 82.7072 42.4134C83.0643 42.1753 83.5405 42.0562 84.0168 42.0562C84.493 42.0562 84.9295 42.1753 85.3263 42.4134C85.5645 42.5721 85.8819 42.5324 86.0407 42.2943C86.3978 41.7784 86.5963 41.1038 86.4375 40.3894C86.2391 39.4767 85.4851 38.7227 84.5723 38.5243C82.9849 38.2068 81.6357 39.3973 81.6357 40.9054C81.5563 41.4213 81.715 41.8975 81.9928 42.2943Z" fill="#363942"/>
<path d="M45.3639 42.2943C45.5227 42.5324 45.8401 42.5721 46.0782 42.4134C46.4354 42.1753 46.9116 42.0562 47.3878 42.0562C47.8641 42.0562 48.3006 42.1753 48.6974 42.4134C48.9355 42.5721 49.253 42.5324 49.4118 42.2943C49.7689 41.7784 49.9674 41.1038 49.8086 40.3894C49.6102 39.4767 48.8562 38.7227 47.9434 38.5243C46.356 38.2068 45.0068 39.3973 45.0068 40.9054C44.9274 41.4213 45.0861 41.8975 45.3639 42.2943Z" fill="#363942"/>
<path d="M81.9141 23.9961C83.3427 25.147 84.4142 26.1391 85.2079 28.282" stroke="#FDE2D8" stroke-width="1.925" stroke-miterlimit="10" stroke-linecap="round" stroke-linejoin="round"/>
<path d="M75.8027 20.3867C75.8027 20.3867 76.9536 20.8233 78.2235 21.4185" stroke="#FDE2D8" stroke-width="1.925" stroke-miterlimit="10" stroke-linecap="round" stroke-linejoin="round"/>
<path d="M40.7194 36.4208C40.5606 36.7779 40.6797 37.2541 41.0369 37.4526C41.4337 37.6907 41.9099 37.5716 42.148 37.1748C43.2195 35.4287 44.5291 34.4365 46.0768 34.2381C47.188 34.0794 48.0214 34.4365 48.0214 34.4365C48.4182 34.5953 48.8944 34.4365 49.0532 34.0397C49.0532 34.0397 49.0532 34.0397 49.0532 34C49.2119 33.6032 49.0532 33.1269 48.6166 32.9285C48.577 32.9285 43.9338 31.0236 40.7194 36.3017C40.7591 36.3811 40.7591 36.4208 40.7194 36.4208Z" fill="#363942"/>
<path d="M43.8961 68.447C43.8564 70.8677 41.7135 72.7726 39.2133 72.4551C36.8719 72.1773 35.2448 69.8359 35.6417 67.4945C35.9592 65.6294 37.3878 63.8832 39.5308 60.7481C39.6895 60.51 40.0467 60.51 40.2054 60.7878C42.3484 64.4388 43.9755 66.2643 43.8961 68.447Z" fill="#FEEE7D"/>
<path d="M44.4908 62.8478C44.2527 65.2686 41.951 66.975 39.5302 66.4988C37.1888 66.0226 35.7602 63.5622 36.3952 61.2604C36.8714 59.4349 38.4191 57.8079 40.8398 54.8712C41.0383 54.6331 41.3954 54.6728 41.5145 54.9506C43.2606 58.7206 44.729 60.6652 44.4908 62.8478Z" fill="#60C5BA"/>
<path d="M45.2433 57.7666C44.4893 60.0683 41.9098 61.2985 39.6081 60.3064C37.4254 59.354 36.5524 56.6554 37.5842 54.5521C38.4175 52.8457 40.2827 51.5757 43.2194 49.1947C43.4575 48.9962 43.775 49.1153 43.8543 49.4328C44.8862 53.4806 45.918 55.6633 45.2433 57.7666Z" fill="#EF5285"/>
<path d="M46.5539 51.9775C45.7999 54.2792 43.2203 55.5094 40.9186 54.5173C38.736 53.5649 37.8629 50.8663 38.8947 48.763C39.7281 47.0566 41.5933 45.7867 44.5299 43.4056C44.768 43.2072 45.0855 43.3262 45.1649 43.6437C46.157 47.6916 47.2285 49.9139 46.5539 51.9775Z" fill="#A5DFF9"/>
<path d="M87.5086 68.447C87.5483 70.8677 89.6913 72.7726 92.1914 72.4551C94.5328 72.1773 96.1599 69.8359 95.7631 67.4945C95.4456 65.6294 94.0169 63.8832 91.874 60.7481C91.7152 60.51 91.3581 60.51 91.1993 60.7878C89.0563 64.4388 87.4293 66.2643 87.5086 68.447Z" fill="#FEEE7D"/>
<path d="M86.9141 62.8478C87.1522 65.2686 89.4539 66.975 91.8747 66.4988C94.2161 66.0226 95.6447 63.5622 95.0098 61.2604C94.5336 59.4349 92.9859 57.8079 90.5651 54.8712C90.3667 54.6331 90.0095 54.6728 89.8905 54.9506C88.1443 58.7206 86.676 60.6652 86.9141 62.8478Z" fill="#60C5BA"/>
<path d="M86.159 57.7666C86.913 60.0683 89.4926 61.2985 91.7943 60.3064C93.9769 59.354 94.85 56.6554 93.8182 54.5521C92.9848 52.8457 91.1196 51.5757 88.183 49.1947C87.9449 48.9962 87.6274 49.1153 87.548 49.4328C86.5162 53.4806 85.4844 55.6633 86.159 57.7666Z" fill="#EF5285"/>
<path d="M84.8499 51.9775C85.6039 54.2792 88.1834 55.5094 90.4851 54.5173C92.6677 53.5649 93.5408 50.8663 92.509 48.763C91.6756 47.0566 89.8104 45.7867 86.8738 43.4056C86.6357 43.2072 86.3182 43.3262 86.2388 43.6437C85.2467 47.6916 84.1752 49.9139 84.8499 51.9775Z" fill="#A5DFF9"/>
<path d="M90.6049 36.4208C90.7636 36.7779 90.6446 37.2541 90.2874 37.4526C89.8906 37.6907 89.4144 37.5716 89.1762 37.1748C88.1048 35.4287 86.7952 34.4365 85.2475 34.2381C84.1363 34.0794 83.3029 34.4365 83.3029 34.4365C82.9061 34.5953 82.4298 34.4365 82.2711 34.0397C82.2711 34.0397 82.2711 34.0397 82.2711 34C82.1124 33.6032 82.2711 33.1269 82.7076 32.9285C82.7473 32.9285 87.3904 31.0236 90.6049 36.3017C90.5652 36.3811 90.6049 36.4208 90.6049 36.4208Z" fill="#363942"/>
</svg>
