<svg width="132" height="88" viewBox="0 0 132 88" fill="none" xmlns="http://www.w3.org/2000/svg">
<path d="M91.7736 69.7723C106.008 69.7723 117.546 58.2334 117.546 43.9994C117.546 29.7655 106.008 18.2266 91.7736 18.2266C77.5397 18.2266 66.0008 29.7655 66.0008 43.9994C66.0008 58.2334 77.5397 69.7723 91.7736 69.7723Z" fill="#B2B5D6"/>
<path d="M91.7736 43.9994C91.7736 58.2334 80.2347 69.7723 66.0008 69.7723C51.7668 69.7723 40.2279 58.2334 40.2279 43.9994C40.2279 29.7655 51.7668 18.2266 66.0008 18.2266C80.2347 18.2266 91.7736 29.7655 91.7736 43.9994Z" fill="#474969"/>
<path d="M40.2279 69.7723C54.4619 69.7723 66.0008 58.2334 66.0008 43.9994C66.0008 29.7655 54.4619 18.2266 40.2279 18.2266C25.994 18.2266 14.4551 29.7655 14.4551 43.9994C14.4551 58.2334 25.994 69.7723 40.2279 69.7723Z" fill="#0F101B"/>
</svg>
