<svg width="132" height="88" viewBox="0 0 132 88" fill="none" xmlns="http://www.w3.org/2000/svg">
<path d="M91.2437 69.2459C105.187 69.2459 116.488 57.944 116.488 44.0019C116.488 30.0598 105.187 18.7578 91.2437 18.7578C77.3012 18.7578 65.9997 30.0598 65.9997 44.0019C65.9997 57.944 77.3012 69.2459 91.2437 69.2459Z" fill="#B2B5D6"/>
<path d="M66.0005 69.2459C79.9431 69.2459 91.2446 57.944 91.2446 44.0019C91.2446 30.0598 79.9431 18.7578 66.0005 18.7578C52.058 18.7578 40.7565 30.0598 40.7565 44.0019C40.7565 57.944 52.058 69.2459 66.0005 69.2459Z" fill="#474969"/>
<path d="M40.756 69.2459C54.6986 69.2459 66.0001 57.944 66.0001 44.0019C66.0001 30.0598 54.6986 18.7578 40.756 18.7578C26.8132 18.7578 15.5117 30.0598 15.5117 44.0019C15.5117 57.944 26.8132 69.2459 40.756 69.2459Z" fill="#0F101B"/>
</svg>
