<svg width="132" height="88" viewBox="0 0 132 88" fill="none" xmlns="http://www.w3.org/2000/svg">
<path fill-rule="evenodd" clip-rule="evenodd" d="M64.8876 7.34973C64.7026 7.45726 64.5514 7.65603 64.5514 7.79174C64.5514 7.92725 65.07 8.76373 65.7039 9.65043C66.3377 10.5371 66.8563 11.3071 66.8563 11.3617C66.8563 11.4164 64.7604 11.4309 62.1985 11.3939C51.3479 11.2371 44.8925 13.0188 41.8786 17.0024C41.047 18.1017 39.9646 20.3478 39.5822 21.7675C39.3903 22.4804 39.2005 22.7552 38.7378 22.99C37.7675 23.4827 36.1756 24.9254 35.0516 26.331C33.655 28.0777 31.4892 32.1336 30.8388 34.2204C30.5507 35.1447 30.2391 35.9476 30.1466 36.0048C29.8681 36.1765 29.9474 38.9255 30.2443 39.3992C30.3909 39.6326 30.6955 40.8348 30.9214 42.0708C31.7416 46.5589 32.8625 49.0816 35.0656 51.3963C36.3986 52.7967 38.1826 54.1769 39.2937 54.6676C39.6106 54.8076 40.475 54.9486 41.2144 54.9812C41.9539 55.0136 42.6079 55.0452 42.6677 55.0512C42.7274 55.0571 42.9813 55.4261 43.232 55.871C43.9215 57.0956 45.7274 59.4147 47.0975 60.8356C49.2587 63.0767 51.9907 65.1426 54.5814 66.4945C55.1792 66.8064 55.5681 67.1508 55.6384 67.4303C55.7673 67.9428 58.0336 69.7628 61.3912 72.0505C65.7242 75.0025 69.2597 76.8319 74.8274 79.0023C76.5176 79.6611 78.0302 80.2802 78.1887 80.3781C78.8 80.7559 79.3494 80.9234 79.6275 80.8169C80.2212 80.5895 79.9227 79.6398 78.5728 77.4614C77.8333 76.2678 77.2283 75.2335 77.2283 75.1626C77.2283 75.0918 77.8452 74.8469 78.5995 74.6182C80.4528 74.0566 83.701 72.353 85.411 71.0459C87.1366 69.727 89.8986 66.8898 91.0818 65.221C92.5097 63.2069 93.8755 60.662 94.631 58.6081C95.3076 56.7686 95.4029 56.6256 96.9904 55.0621C99.4286 52.6606 100.571 50.5435 101.542 46.6283C102.182 44.0476 102.185 42.4875 101.553 40.0148C100.37 35.3858 98.2569 32.1043 95.3737 30.4181L94.5716 29.9491L94.4562 28.2734C94.1029 23.1434 91.8015 19.9023 86.5852 17.1893L85.0793 16.4061L86.39 14.8892C88.8276 12.0681 90.8655 9.40758 90.8655 9.04646C90.8655 8.96327 90.7382 8.76814 90.5824 8.61269C90.3331 8.36389 90.1216 8.38766 88.8057 8.8128C85.4477 9.89789 81.4845 10.5841 78.5438 10.5895C76.7836 10.5927 72.9166 10.0595 71.4661 9.61344C69.9426 9.14498 67.4567 8.20308 66.3901 7.69015C65.764 7.38902 65.2454 7.1454 65.2377 7.14847C65.23 7.15172 65.0725 7.2422 64.8876 7.34973ZM55.2712 14.5104C54.2344 14.8687 52.9035 15.4491 52.314 15.8004C51.1095 16.5181 49.6607 17.8999 49.1018 18.8642C48.6767 19.5975 48.6166 19.6274 50.338 18.2489C51.7574 17.1121 53.4257 16.0484 55.247 15.1196C58.1573 13.635 58.1623 13.512 55.2712 14.5104ZM81.8379 19.6033C81.0456 20.3213 80.4407 20.9447 80.4936 20.9885C80.5464 21.0324 81.259 21.3809 82.0772 21.7627C83.8414 22.5862 85.9185 23.899 86.9999 24.8738C87.4278 25.2597 87.8523 25.5294 87.9431 25.4734C88.2165 25.3049 87.8663 23.134 87.4165 22.2063C86.8983 21.1382 84.863 19.1283 83.6626 18.499C83.3318 18.3258 83.0771 18.4799 81.8379 19.6033ZM66.1049 22.0096C63.3923 22.5753 62.4926 22.8662 59.9416 24.0019C58.0576 24.8407 55.0101 26.6041 54.4107 27.2023C54.2651 27.3476 53.8295 27.7022 53.4424 27.9905C52.0614 29.0195 52.0924 28.8009 52.848 32.1936C53.0785 33.2281 53.0796 37.0193 52.8499 38.0617C52.7523 38.5037 52.5698 39.5123 52.444 40.3029C52.1634 42.0683 51.3924 45.1181 51.0215 45.9308C50.8704 46.2618 50.4931 47.1021 50.1829 47.7983C49.7158 48.847 48.5595 50.688 47.3068 52.3775C46.7414 53.1404 49.1755 58.1188 51.3813 60.7103C53.4351 63.1237 55.7502 64.9513 58.5247 66.3496L60.4689 67.3295L62.3662 67.3293C66.1007 67.3289 68.9465 66.4349 72.3304 64.1992C73.2812 63.5711 74.3741 62.8109 74.759 62.5097C75.5302 61.9067 76.406 61.7906 76.5893 62.2673C76.6536 62.4348 76.4318 63.6105 76.096 64.8798C75.7603 66.1491 75.5104 67.212 75.5407 67.2417C75.602 67.3019 77.1632 66.8894 77.6124 66.6943C77.7709 66.6254 78.2463 66.4464 78.6688 66.2965C81.7835 65.1917 85.1548 62.7737 87.4451 60.0022C87.9001 59.4513 88.3799 58.8853 88.5111 58.7444C89.1421 58.0663 90.966 54.7108 91.5714 53.1143C92.9791 49.4021 93.2417 47.9428 93.2551 43.7531C93.2692 39.3643 93.1435 38.6357 91.7285 34.8965C90.7173 32.2245 89.2122 29.8602 86.9914 27.4552C86.1991 26.5972 84.2782 25.0481 82.7984 24.0738C81.5405 23.2456 79.3478 22.0936 79.029 22.0936C78.9687 22.0936 78.2415 22.5703 77.4131 23.153C75.8632 24.2428 69.2747 27.6522 68.7183 27.6522C68.0184 27.6522 67.9897 26.993 68.6046 25.0333C69.4954 22.193 69.5453 22.0196 69.5453 21.7595C69.5453 21.4145 68.6443 21.48 66.1049 22.0096ZM58.6569 28.897C58.1052 29.2826 57.8842 30.578 58.2698 31.1653C58.431 31.4108 59.8556 32.2536 61.553 33.1074C63.2021 33.9369 64.5514 34.6826 64.5514 34.7646C64.5514 34.8465 64.4706 34.9632 64.3716 35.0241C64.0791 35.2045 63.2359 37.0714 63.0264 38.0028C62.71 39.408 62.7828 40.6744 63.2332 41.6029C63.7169 42.6002 64.6215 43.2377 65.3197 43.0734C66.5843 42.776 68.1269 40.3273 68.3385 38.2813C68.3981 37.7065 68.5103 37.2361 68.5879 37.2361C68.6656 37.2361 69.1938 37.4402 69.7616 37.6896C71.8815 38.621 73.8574 38.9911 73.483 38.3865C73.417 38.28 72.8713 37.859 72.2705 37.4512C71.6697 37.0435 70.2433 35.9701 69.1011 35.0659C65.9764 32.5925 61.9794 29.9111 60.1762 29.0787C58.9765 28.5247 59.1584 28.5466 58.6569 28.897ZM87.5042 36.1639C86.0253 36.8351 84.3569 37.6198 83.7966 37.9075C83.2366 38.1951 82.3302 38.4853 81.7826 38.5522C81.0171 38.6455 80.7707 38.7571 80.7173 39.034C80.6159 39.5602 81.0125 39.7218 82.4143 39.7248L83.6628 39.7275L83.5998 41.6924C83.542 43.4974 83.5738 43.7117 83.9906 44.3268C84.5231 45.1121 84.9453 45.2423 85.5904 44.8204C86.6319 44.1396 87.4174 41.4948 87.0319 39.9671C86.9109 39.4879 86.8814 39.0402 86.9661 38.9719C87.1923 38.7896 88.3096 38.4496 89.5794 38.1767C90.4528 37.989 90.7833 37.8121 91.1064 37.3595C91.8326 36.3415 91.5388 34.9314 90.602 34.9396C90.3771 34.9415 88.9832 35.4924 87.5042 36.1639ZM64.8785 35.8514C64.4926 36.2768 64.2812 37.6189 64.5393 38.0028C65.0303 38.7331 65.9117 37.1301 65.6316 36.0165C65.4826 35.4238 65.3022 35.3843 64.8785 35.8514ZM57.626 38.3225C56.724 38.9221 55.4892 40.2132 55.1018 40.9617C54.7737 41.5958 54.7263 41.9631 54.805 43.2619C54.9153 45.0817 55.2904 46.3092 55.764 46.4002C56.0577 46.4566 56.1002 46.299 56.1002 45.1516V43.8384L57.6948 45.4048C61.1321 48.7816 66.0469 51.1866 71.764 52.2893C74.1144 52.7428 78.8313 52.7499 81.1416 52.3033C85.1417 51.5305 88.8468 49.8619 90.5292 48.0758C91.5952 46.9442 91.785 46.5052 91.382 46.1033C91.1218 45.8436 90.9629 45.9386 89.8883 46.9979C88.5414 48.3252 86.4486 49.4439 84.335 49.9656C75.6193 52.1176 65.3497 49.7787 59.4755 44.3042C58.6682 43.5517 57.7781 42.5456 57.4979 42.0683L56.9881 41.2004L57.8903 40.4162C58.8801 39.5558 59.0583 38.8803 58.4423 38.3239C58.1216 38.0344 58.0597 38.0342 57.626 38.3225ZM84.5044 40.255C84.4583 41.3186 84.6247 41.72 84.9187 41.2558C85.2157 40.7871 85.1439 39.7279 84.8152 39.7279C84.6345 39.7279 84.5187 39.9244 84.5044 40.255Z" fill="#65669A"/>
<path fill-rule="evenodd" clip-rule="evenodd" d="M64.9355 7.827C64.9355 8.09017 65.956 9.75738 66.2765 10.0179C66.527 10.2214 67.2404 11.3328 67.2404 11.5195C67.2404 11.6513 65.7353 11.6822 62.6786 11.613C59.164 11.5335 57.4817 11.5814 55.3495 11.8223C46.0041 12.8777 42.056 15.2501 40.1685 20.9441C39.6251 22.5833 39.4934 22.807 38.8528 23.1779C37.7167 23.8359 35.8432 25.6365 34.7872 27.0854C33.2773 29.1569 31.3965 33.0288 30.8264 35.2394C30.3245 37.1847 30.3111 37.906 30.7417 39.7279C30.8539 40.2023 31.0275 41.1511 31.1274 41.8364C31.7061 45.806 33.353 49.4645 35.4946 51.5381C37.9051 53.8718 39.4625 54.6786 41.5578 54.6789L42.7509 54.6791L44.0955 56.7169C46.7478 60.7367 50.8286 64.3188 55.4267 66.6634C55.6385 66.7715 55.8396 67.0517 55.8734 67.2863C56.0117 68.2472 63.8216 73.6522 68.4164 75.9669C69.9763 76.7527 74.3079 78.5852 76.7528 79.4937C77.8065 79.8853 78.7508 80.2844 78.8512 80.3804C79.1837 80.699 79.7252 80.575 79.7252 80.1805C79.7252 79.9743 79.1201 78.8238 78.3807 77.6239C77.6412 76.424 77.0361 75.3104 77.0361 75.149C77.0361 74.9519 77.5492 74.6864 78.5994 74.3401C85.8927 71.9345 91.7336 65.879 94.7444 57.6018C95.0607 56.732 95.3907 56.0205 95.4779 56.0205C95.8166 56.0205 97.85 53.9801 98.579 52.9088C100.165 50.5786 100.905 48.593 101.522 45.0105C101.803 43.3838 101.797 43.1842 101.414 41.0811C100.905 38.2826 100.384 36.7506 99.3271 34.936C98.413 33.3671 96.1277 30.9807 95.0513 30.471L94.3939 30.1597L94.1557 28.1161C94.0249 26.9921 93.7026 25.3927 93.4396 24.5622C92.5693 21.8128 90.2312 19.374 86.7626 17.5978C85.5804 16.9924 84.9112 16.538 84.9112 16.3407C84.9112 16.1707 85.1791 15.7782 85.5068 15.4686C86.6587 14.3799 90.4813 9.46488 90.4813 9.07252C90.4813 8.57588 90.4377 8.57742 88.6186 9.13769C84.659 10.3575 82.0397 10.784 78.5068 10.7844C76.4203 10.7846 75.1552 10.6828 73.7884 10.4047C71.4792 9.93526 68.2048 8.8772 66.6743 8.10627C65.3842 7.45629 64.9355 7.38422 64.9355 7.827ZM67.4324 9.78805C67.4324 9.8952 67.8214 10.4593 68.2968 11.0416C69.1407 12.0755 69.4027 12.8645 68.921 12.9214C68.7891 12.9369 67.8166 12.968 66.7602 12.9904C61.4357 13.1035 54.038 16.4515 49.09 20.9878L47.9381 22.0437L48.7123 22.8833C49.7321 23.9887 50.5561 25.2164 51.1092 26.4542C51.3564 27.0076 51.6301 27.4605 51.7172 27.4605C51.8044 27.4605 52.5625 26.9215 53.402 26.2625C57.2462 23.2454 62.4902 21.052 67.7083 20.2788C71.5728 19.7062 71.5964 19.7269 70.6314 22.8403C70.2454 24.0861 69.9294 25.2482 69.9294 25.4228C69.9294 25.6833 70.1791 25.6151 71.3219 25.0427C73.2214 24.091 75.8622 22.5246 77.6971 21.2611C80.335 19.4444 84.3447 15.5119 87.1089 12.0305C88.2308 10.6174 88.3927 10.2768 87.8403 10.49C86.9683 10.8266 82.9336 11.5601 80.7827 11.7729C78.8658 11.9626 77.9446 11.9617 76.1701 11.7673C73.3059 11.4537 70.1196 10.6809 67.7686 9.72959C67.5796 9.65311 67.4324 9.6788 67.4324 9.78805ZM56.7723 13.7504C53.5386 14.6624 51.5668 15.7134 50.0123 17.3536C49.1727 18.2395 48.4171 19.3453 48.4171 19.688C48.4171 19.9717 48.9071 19.7116 49.9084 18.8966C52.0402 17.1611 54.6666 15.5832 57.4986 14.3364C58.6147 13.8449 59.102 13.5411 58.9391 13.438C58.6191 13.2354 58.5773 13.2415 56.7723 13.7504ZM81.5941 19.4657C80.7731 20.2257 80.1032 20.9082 80.1055 20.9822C80.1076 21.0562 80.8559 21.4658 81.7683 21.8925C83.5899 22.7443 86.2125 24.4313 87.1742 25.3695C88.1109 26.2834 88.4453 26.0369 88.3236 24.5217C88.2006 22.9954 87.6684 21.7919 86.6089 20.6447C85.6193 19.5732 83.7009 18.0653 83.3412 18.076C83.2011 18.08 82.4148 18.7055 81.5941 19.4657ZM68.2968 21.2672C65.3569 21.6473 61.42 22.8754 58.597 24.2929C55.2913 25.9526 51.7487 28.6407 51.9473 29.3384C52.6535 31.8204 52.7753 37.2357 52.1918 40.2071C51.285 44.8238 49.5701 49.0331 47.6327 51.3972L46.6306 52.6201L46.9674 53.6015C47.5455 55.2854 49.1414 58.2817 50.2791 59.8186C52.4622 62.7679 55.1897 65.0466 58.6489 66.8108L60.2297 67.617L62.7266 67.588C64.5629 67.5668 65.6302 67.4533 66.7602 67.1593C68.887 66.6059 71.8012 65.1167 73.9336 63.4938C75.6038 62.2224 76.2742 61.9594 76.2636 62.5795C76.2613 62.7145 76.0072 63.812 75.6989 65.0182C75.3906 66.2244 75.1815 67.2812 75.2343 67.3663C75.3956 67.627 75.987 67.5426 77.6504 67.022C87.4187 63.9648 94.1972 53.5992 93.682 42.5072C93.5055 38.7082 92.8596 36.1753 91.2377 32.9233C89.049 28.5349 85.4878 24.9906 80.8467 22.5814L79.0408 21.6441L77.3181 22.7961C74.384 24.7583 69.5449 27.2689 68.6967 27.2689C68.262 27.2689 68.3027 26.9995 69.1734 24.1112C69.6029 22.687 69.9002 21.435 69.8343 21.3286C69.7154 21.1365 69.4029 21.1241 68.2968 21.2672ZM40.2528 23.1472C39.7239 23.4027 38.7831 24.0638 38.1619 24.6162C37.0227 25.6296 35.5482 27.3499 35.5482 27.666C35.5482 27.7601 35.9748 27.8274 36.4963 27.8157C38.1792 27.7778 39.5399 29.0043 40.2653 31.213C40.7807 32.7823 40.7887 37.1094 40.2799 39.057C39.8293 40.7821 38.6271 43.2714 37.8154 44.1608C36.5462 45.5513 35.0188 46.0324 33.7317 45.4472C33.4623 45.3245 33.1884 45.2775 33.1232 45.3425C32.8586 45.6067 34.8267 49.1853 35.7353 50.0917C36.8558 51.2102 37.5682 51.3942 39.0791 50.9558C41.9435 50.1249 44.8536 46.5583 46.379 42.0091C48.0395 37.0574 47.8964 30.1011 46.0546 26.2305C44.537 23.0418 42.6007 22.0127 40.2528 23.1472ZM58.6339 29.237C58.4176 29.4973 58.2496 31.0254 58.4215 31.1706C58.4653 31.2076 59.7543 31.8553 61.2861 32.6098C62.8179 33.3642 64.283 34.1449 64.5419 34.3448L65.0127 34.7082L64.5018 35.4451C63.6722 36.6415 63.3511 37.7582 63.3259 39.5362C63.2998 41.3838 63.6951 42.366 64.5915 42.6807C66.1256 43.2189 68.0087 40.4659 68.0087 37.6848C68.0087 37.2395 68.0851 36.8282 68.1786 36.7705C68.2722 36.7128 69.0163 36.9735 69.8322 37.3498C71.4128 38.0785 73.0229 38.6213 73.1697 38.4749C73.2187 38.426 73.2227 38.361 73.1787 38.3302C73.1347 38.2995 72.7097 38.0264 72.2343 37.7231C71.7589 37.4199 70.5488 36.5131 69.5453 35.7077C65.9187 32.7976 60.5604 29.2995 59.3628 29.0605C59.0567 28.9995 58.7749 29.0677 58.6339 29.237ZM96.0515 32.3299C96.0515 32.3742 96.3991 33.0121 96.824 33.7476C98.4243 36.5177 99.178 39.6221 99.1834 43.4656C99.1871 45.9929 99.0169 47.207 98.3277 49.5698C98.1172 50.2914 97.9887 50.9255 98.0421 50.9788C98.2081 51.1444 99.246 48.9119 99.7975 47.2033C100.556 44.8524 100.687 41.4398 100.107 39.1458C99.64 37.2999 98.5692 35.0667 97.4716 33.65C96.8171 32.8049 96.0515 32.0932 96.0515 32.3299ZM64.4455 35.9841C64.0425 36.9465 64.0804 38.1347 64.5216 38.3702C65.3675 38.822 66.3584 37.0088 65.8868 35.8725C65.5465 35.0527 64.8116 35.1096 64.4455 35.9841ZM89.0408 35.8039C88.3013 36.058 86.659 36.7818 85.3914 37.4124C83.5029 38.3518 82.594 38.6946 81.3098 38.9516C81.2835 38.9568 81.158 38.9612 81.0313 38.9612C80.8571 38.9612 80.8596 39.0198 81.0409 39.2008C81.2016 39.3612 81.929 39.4404 83.2401 39.4404H85.1993L85.2615 40.0898C85.4 41.5373 84.7435 42.162 84.0803 41.2134C83.7923 40.8013 83.7785 40.8356 83.7687 41.9862C83.751 44.1037 84.5731 45.2787 85.5406 44.5193C86.3627 43.8739 86.7121 42.7248 86.7245 40.625C86.7374 38.4795 86.661 38.5842 88.5606 38.1086C89.2472 37.9365 90.043 37.7042 90.329 37.592C90.9769 37.3379 91.3802 36.3043 91.0625 35.7121C90.8025 35.2271 90.7066 35.2313 89.0408 35.8039ZM56.8841 39.2709C56.3419 39.7574 55.6731 40.5389 55.3979 41.0075C54.9571 41.7583 54.9086 42.0114 54.9901 43.1417C55.0408 43.8469 55.253 44.8121 55.4614 45.2865L55.8406 46.1491L55.7555 44.9567C55.6157 42.9949 55.7426 42.9531 57.1688 44.4903C62.6529 50.4017 71.843 53.3715 80.6318 52.0727C84.5754 51.4898 88.0892 49.9871 90.0491 48.045C91.1545 46.9497 91.4878 46.4366 91.0942 46.4366C91.0087 46.4366 90.5113 46.8462 89.9888 47.3471C86.3385 50.846 78.0827 52.0401 70.4096 50.1789C67.287 49.4216 63.7235 47.8615 61.4945 46.276C59.1677 44.6207 56.6763 41.9991 56.6763 41.2057C56.6763 41.0453 57.1085 40.6041 57.6367 40.2253C58.5776 39.5508 58.7154 39.3001 58.4805 38.6894C58.2922 38.1998 57.9315 38.3313 56.8841 39.2709ZM94.9063 42.1239C94.8838 42.4401 94.8351 43.1733 94.798 43.7531C94.7607 44.333 94.6785 45.5836 94.6149 46.5325C94.2258 52.3411 90.6736 59.4849 86.2897 63.2749C83.2305 65.9195 79.307 67.952 76.0185 68.5957C73.6549 69.0582 73.5947 68.9865 74.223 66.4506C74.4819 65.4054 74.6611 64.5164 74.6212 64.475C74.5812 64.4336 73.8863 64.8568 73.0769 65.4152C71.4846 66.5137 68.9819 67.6929 67.1443 68.2104C66.3511 68.4339 64.8844 68.5712 62.4385 68.6511L58.8852 68.7671L61.3821 70.4902C64.6024 72.7125 66.4383 73.8105 69.1429 75.1313C71.4702 76.268 77.656 78.8504 77.7727 78.7341C77.8108 78.696 77.3121 77.8215 76.6645 76.7907C76.0168 75.7598 75.5118 74.7865 75.5426 74.6278C75.6157 74.2488 76.207 73.9709 78.1886 73.3834C80.1883 72.7908 83.2082 71.1193 85.3689 69.4096C91.9059 64.2368 95.892 54.7974 95.394 45.6699C95.252 43.0694 94.9797 41.0888 94.9063 42.1239ZM44.9243 53.9257C44.5349 54.1271 44.1612 54.3811 44.0935 54.4903C43.836 54.9063 46.1948 58.0542 48.4546 60.3104C50.7184 62.5705 51.6903 63.1933 50.1988 61.4281C48.91 59.9029 47.5657 57.7075 46.6956 55.7075C46.243 54.6673 45.8186 53.7585 45.7525 53.688C45.6862 53.6174 45.3136 53.7244 44.9243 53.9257Z" fill="black" fill-opacity="0.981"/>
</svg>
