<svg width="132" height="88" viewBox="0 0 132 88" fill="none" xmlns="http://www.w3.org/2000/svg">
<path d="M34.1463 26.9882C28.5154 29.9573 25.4439 34.8715 24.932 41.6288C24.3178 48.7954 25.0344 51.7644 28.5154 55.9621C32.5082 60.6715 37.1154 62.7192 43.4629 62.7192C50.0154 62.7192 54.7248 60.5692 61.1748 54.324L65.9868 49.7168L72.0272 55.4501C75.4058 58.624 79.501 61.593 81.2416 62.0025C82.982 62.3096 84.9272 62.8215 85.7462 63.1287C88.2034 63.8454 96.9058 61.3882 100.182 59.0334C109.089 52.6859 109.703 37.7382 101.411 30.0597C92.8106 21.9716 80.832 23.2002 70.5939 33.1311L65.4748 38.1478L59.8439 32.6192C56.7725 29.6501 52.882 26.5787 51.2439 25.9644C46.5344 24.224 38.5487 24.7359 34.1463 26.9882ZM54.1106 37.943L60.151 43.574L55.1344 48.693C47.0463 56.8834 40.6987 57.7025 35.5796 51.1501C29.7439 43.6763 34.7606 32.3121 43.8725 32.3121C47.4558 32.3121 48.9915 33.1311 54.1106 37.943ZM94.8581 34.974C100.796 40.5025 99.1581 51.4573 91.8891 54.4263C86.7701 56.5763 83.9035 55.6549 77.1462 49.5121L71.4129 44.2906L77.5558 38.3525C82.7772 33.1311 84.1081 32.3121 87.8962 32.3121C90.8653 32.3121 92.9129 33.1311 94.8581 34.974Z" fill="black"/>
</svg>
