<svg width="132" height="88" viewBox="0 0 132 88" fill="none" xmlns="http://www.w3.org/2000/svg">
<path fill-rule="evenodd" clip-rule="evenodd" d="M80.2972 29.6748L80.4644 29.9595L80.7048 29.7659L93.4377 16.7207C96.0984 13.9967 100.65 15.9197 100.65 19.7704V42.7926L100.64 42.7915V69.86C100.64 74.7198 96.7042 78.6516 91.8506 78.6516H40.1342C35.2807 78.6516 31.3496 74.7198 31.3496 69.86V19.7704C31.3496 15.9197 35.9996 13.9967 38.7182 16.7207L51.7272 29.7652L62.2441 11.5438C63.9313 8.62081 68.1427 8.62081 69.8299 11.5438L80.2972 29.6748ZM55.0825 54.6023C57.3544 54.6023 59.1962 52.7605 59.1962 50.4886C59.1962 48.2166 57.3544 46.3749 55.0825 46.3749C52.8106 46.3749 50.9688 48.2166 50.9688 50.4886C50.9688 52.7605 52.8106 54.6023 55.0825 54.6023ZM76.9167 54.6023C79.1887 54.6023 81.0304 52.7605 81.0304 50.4886C81.0304 48.2166 79.1887 46.3749 76.9167 46.3749C74.6448 46.3749 72.803 48.2166 72.803 50.4886C72.803 52.7605 74.6448 54.6023 76.9167 54.6023Z" fill="#08C18A"/>
</svg>
