<svg width="132" height="88" viewBox="0 0 132 88" fill="none" xmlns="http://www.w3.org/2000/svg">
<path fill-rule="evenodd" clip-rule="evenodd" d="M62.0278 15.3341C59.9828 15.8914 58.2852 16.37 58.2551 16.3977C58.225 16.4255 58.3983 17.0727 58.6401 17.8356C58.8818 18.5987 59.0584 19.2429 59.0327 19.267C59.0068 19.2911 57.959 19.5916 56.7042 19.9347C55.4493 20.2778 54.4106 20.5699 54.3961 20.5837C54.3814 20.5976 54.6596 21.5189 55.0142 22.6313C55.3687 23.7436 55.6378 24.6754 55.6117 24.7022C55.5859 24.7288 54.8553 24.94 53.988 25.1714C53.1206 25.4028 52.3887 25.6146 52.3612 25.6421C52.3336 25.6694 52.4548 26.1029 52.6302 26.6053L52.9493 27.5187L52.0056 28.4834C51.4866 29.014 51.0957 29.4785 51.1367 29.5157C51.2537 29.6214 58.9166 31.3531 58.9708 31.2862C58.9974 31.2533 58.4615 29.4822 57.7795 27.3502C55.9748 21.706 55.9291 21.5324 56.2065 21.3615C56.4926 21.1852 59.403 20.4594 59.476 20.546C59.5051 20.5805 60.3506 23.2253 61.355 26.4233C62.3593 29.6212 63.2027 32.2652 63.229 32.2989C63.3243 32.4202 65.3135 32.7811 65.4019 32.6931C65.4516 32.6435 65.4923 29.2383 65.4923 25.1259C65.4923 18.6072 65.5251 17.6364 65.748 17.5511C65.8886 17.4972 66.1168 17.5469 66.255 17.6613C66.4705 17.8397 66.5063 18.9215 66.5063 25.2361C66.5063 29.2878 66.5459 32.6422 66.594 32.6904C66.7306 32.8264 68.4264 32.4686 68.645 32.2576C68.7524 32.1539 69.6548 29.4906 70.6506 26.339C71.6462 23.1874 72.4871 20.5802 72.5193 20.5451C72.5512 20.5101 72.9416 20.5716 73.3867 20.6818C75.2049 21.1323 75.9703 21.4015 75.9679 21.5899C75.9666 21.6991 75.2911 23.9121 74.467 26.5075C73.6428 29.103 72.9925 31.2531 73.0219 31.2857C73.0969 31.3689 80.0838 29.7727 80.2371 29.6372C80.3064 29.5759 80.0312 29.2009 79.6256 28.804L78.8883 28.0822L79.2746 26.8736L79.6611 25.6649L78.703 25.3821C78.1761 25.2265 77.4154 25.0133 77.0125 24.9083C76.4349 24.7576 76.303 24.658 76.3884 24.4363C76.7756 23.4299 77.5386 20.684 77.4545 20.6001C77.3983 20.5441 76.3783 20.2347 75.1876 19.9125C73.997 19.5902 72.9936 19.2976 72.9581 19.2621C72.9227 19.2267 73.0993 18.5814 73.3509 17.828C73.6026 17.0747 73.7815 16.4341 73.7486 16.4044C73.662 16.3262 65.9951 14.2858 65.8597 14.3048C65.797 14.3138 64.0727 14.7769 62.0278 15.3341ZM25.0772 25.2287L24.6782 25.5508L24.634 46.301L24.5898 67.0515L25.0066 67.4671C25.2358 67.6956 25.5979 67.883 25.8114 67.8834C26.0247 67.8839 34.9156 65.8741 45.569 63.4172C56.2222 60.9605 65.063 58.9504 65.2155 58.9504C65.4695 58.9504 65.4923 57.9205 65.4923 46.4736C65.4923 36.6386 65.4475 33.9832 65.281 33.9325C64.5712 33.7169 25.9787 24.9019 25.7533 24.9039C25.6008 24.9053 25.2966 25.0514 25.0772 25.2287ZM86.4486 29.3831C75.8986 31.8278 67.0958 33.8305 66.8866 33.8334L66.5063 33.8388V46.3946C66.5063 57.8655 66.53 58.9504 66.7806 58.9504C66.9315 58.9504 75.7676 60.9601 86.4165 63.4165C97.0655 65.8729 105.958 67.8827 106.177 67.8827C106.396 67.8827 106.763 67.6956 106.992 67.4671L107.409 67.0515L107.365 46.301L107.32 25.5508L106.921 25.2287C106.702 25.0514 106.322 24.9135 106.076 24.9223C105.831 24.9309 96.9986 26.9383 86.4486 29.3831ZM28.9878 46.3946C28.9878 57.7027 29.0415 62.4896 29.1685 62.4896C29.3265 62.4896 31.5429 61.9547 33.4241 61.4627C34.0489 61.2992 34.0579 61.2851 34.0579 60.4606C34.0579 60.0009 33.9847 59.6245 33.8955 59.6245C33.806 59.6245 33.0807 59.7762 32.2833 59.9616C31.486 60.147 30.7606 60.2987 30.6712 60.2987C30.5686 60.2987 30.5088 54.8472 30.5088 45.4756V30.6525L29.8751 30.477C29.5266 30.3805 29.1843 30.3011 29.1145 30.3006C29.0447 30.3001 28.9878 37.5423 28.9878 46.3946ZM100.053 30.9494L97.3492 31.573V46.3956V61.2183L100.053 61.8478C101.541 62.1942 102.852 62.4802 102.969 62.4835C103.112 62.4876 103.18 62.2031 103.18 61.6023V60.7149L100.983 60.2272L98.7858 59.7396V53.5305V47.3215H100.391H101.997V46.5631V45.8047H100.391H98.7858V39.3473V32.8899L100.941 32.3779L103.095 31.8661L103.147 31.0827C103.184 30.52 103.136 30.3033 102.978 30.3127C102.857 30.32 101.541 30.6066 100.053 30.9494ZM37.3024 33.0986L36.4239 33.8649V46.5744V59.2841L37.3543 59.9001L38.2846 60.5161L39.9238 60.0748C41.5063 59.649 41.5937 59.5999 42.4502 58.66L43.3374 57.6864L43.3452 46.5055C43.354 33.9377 43.4988 35.3767 42.0655 33.7946C41.5261 33.1992 41.2677 33.0649 40.158 32.8033C39.4521 32.637 38.7184 32.463 38.5276 32.4165C38.2841 32.3574 37.9191 32.5606 37.3024 33.0986ZM90.2511 33.1741C89.1357 33.4387 88.0521 33.6979 87.8429 33.7501L87.4626 33.8452V46.3865C87.4626 58.1876 87.48 58.9323 87.7584 59.0077C87.9209 59.0517 88.2633 59.1341 88.5189 59.1907L88.9836 59.2938V53.3077V47.3215H90.8913H92.7989L93.5954 46.5153L94.3917 45.7088V39.9744V34.2401L93.4735 33.4496C92.9684 33.0148 92.4931 32.6668 92.4173 32.6762C92.3414 32.6855 91.3666 32.9096 90.2511 33.1741ZM38.3252 34.458L37.9449 34.7226V46.3047C37.9449 57.3114 37.9603 57.9007 38.254 58.1659C38.6314 58.5065 38.9446 58.5113 40.1419 58.1957C40.7647 58.0314 41.1967 57.7957 41.4509 57.4814L41.8303 57.0122L41.8311 46.3583L41.832 35.7045L41.3349 35.1399C40.977 34.7334 40.5952 34.5195 39.9701 34.3756C38.8901 34.127 38.7942 34.1319 38.3252 34.458ZM84.3357 34.5822C83.9637 34.6831 83.5771 34.8193 83.4765 34.8849C83.376 34.9503 82.8083 36.8267 82.2153 39.0547C81.6222 41.2828 81.085 43.0114 81.0213 42.8961C80.9575 42.781 80.4461 41.181 79.8847 39.3402C79.3231 37.4997 78.8305 35.9606 78.7897 35.9198C78.749 35.8792 78.362 35.9348 77.9299 36.0434C77.2527 36.2134 77.1592 36.2878 77.253 36.5827C77.313 36.7709 78.0159 39.0935 78.8153 41.744L80.2687 46.5631L80.3255 51.8719C80.3567 54.7918 80.4353 57.2285 80.5002 57.2868C80.5649 57.3449 80.9033 57.4432 81.2518 57.505L81.8855 57.6174V52.1935V46.7696L83.5044 40.6265C84.3949 37.2479 85.0984 34.4644 85.0677 34.4411C85.0371 34.4177 84.7077 34.4812 84.3357 34.5822ZM90.2511 34.8411L89.0681 35.1304L89.0235 40.4676L88.9789 45.8047H90.4795C91.7418 45.8047 92.0508 45.7493 92.4254 45.4553L92.8707 45.1061V40.176V35.2459L92.4796 34.8793C92.026 34.4544 91.8443 34.4512 90.2511 34.8411ZM47.4942 35.4759L46.564 36.2395V40.8173V45.3948L47.4565 46.2739L48.3492 47.153L49.6958 47.159L51.0426 47.1653L51.5074 47.7761L51.9721 48.387V51.4946V54.6022L51.4229 55.1427C51.0323 55.5271 50.5887 55.7459 49.887 55.8997C48.9433 56.1067 48.8824 56.0995 48.4927 55.7342C48.1996 55.4597 48.0851 55.1712 48.0851 54.7077C48.0851 53.9813 48.1065 53.9924 47.2174 54.258L46.564 54.4534V55.5091V56.5648L47.4668 57.334L48.3695 58.1032L50.009 57.732C51.5041 57.3936 51.7294 57.2888 52.5707 56.541L53.4931 55.7213V51.5578V47.3943L52.6006 46.5153L51.708 45.6362H50.3485C49.1459 45.6362 48.9466 45.5912 48.6215 45.2462C48.2656 44.8683 48.2541 44.7306 48.2541 40.8702C48.2541 36.9723 48.262 36.88 48.615 36.6916C49.1263 36.4187 50.8537 36.8065 51.4845 37.3359C51.864 37.6542 51.9721 37.8866 51.9721 38.3831C51.9721 38.9629 52.0203 39.0308 52.5002 39.1265C53.4852 39.3231 53.4931 39.3153 53.4931 38.1499V37.0679L52.552 36.2315C51.9305 35.679 51.3997 35.3585 50.9887 35.2873C50.6466 35.2282 49.9295 35.0745 49.3955 34.9459L48.4244 34.7121L47.4942 35.4759ZM56.0282 37.299C56.0282 37.7599 56.112 38.0907 56.2394 38.1334C56.3557 38.1723 56.7738 38.2866 57.1689 38.3874L57.8872 38.5707V47.2551C57.8872 55.4469 57.9039 55.9345 58.1829 55.8519C58.3457 55.8037 58.6871 55.7147 58.9419 55.654L59.405 55.544L59.4489 47.2615C59.4775 41.8588 59.5515 38.9883 59.6617 39.0059C59.7547 39.0205 60.1919 39.0859 60.6335 39.1513L61.4362 39.2701V38.4959C61.4362 37.8314 61.3823 37.709 61.056 37.633C59.9698 37.38 56.1519 36.5353 56.0946 36.5353C56.0581 36.5353 56.0282 36.879 56.0282 37.299ZM72.8439 37.1953C71.7285 37.4495 70.6067 37.7097 70.3511 37.7737C69.9203 37.8816 69.8864 37.9527 69.8864 38.7475C69.8864 39.4614 69.9313 39.5878 70.1546 39.5024C70.3023 39.4459 70.7206 39.3522 71.0841 39.2942L71.7454 39.1887V47.2057C71.7454 51.6151 71.8096 55.2623 71.8882 55.3107C71.9668 55.3593 72.347 55.4492 72.7332 55.5108L73.4354 55.6228V47.1867V38.7504L74.3649 38.5431L75.2944 38.3356V37.5197C75.2944 36.9715 75.2251 36.7087 75.0832 36.7185C74.9671 36.7266 73.9593 36.9412 72.8439 37.1953ZM65.1543 60.0691C64.1413 60.2543 46.9558 64.2027 46.6735 64.315C46.4422 64.407 48.7998 65.6434 55.7152 69.0567C64.9919 73.6356 65.0789 73.674 66.1683 73.6855L67.2668 73.6971L76.6826 69.1491C81.8612 66.6475 86.044 64.5558 85.9778 64.5009C85.7709 64.3291 67.3138 60.1429 66.4218 60.0652C65.9571 60.0248 65.3867 60.0266 65.1543 60.0691ZM59.4638 64.4202C57.9124 65.0945 58.4104 67.3771 60.1089 67.3771C60.6893 67.3771 60.7602 67.3316 60.7602 66.96C60.7602 66.5917 60.7041 66.554 60.2809 66.6384C59.4462 66.8049 58.9512 65.9804 59.4652 65.2795C59.6286 65.0567 59.8393 64.993 60.2257 65.0495C60.695 65.1182 60.7602 65.08 60.7602 64.7357C60.7602 64.5199 60.6904 64.3435 60.6051 64.3435C60.5197 64.3435 60.3485 64.3083 60.2248 64.2653C60.101 64.2225 59.7586 64.2921 59.4638 64.4202ZM62.5158 64.3337C62.3196 64.4163 61.9963 64.6901 61.7976 64.9421C60.6178 66.4378 62.7869 68.2319 64.2538 66.9736C65.2155 66.1486 64.6775 64.4827 63.3798 64.2676C63.1009 64.2213 62.7122 64.2511 62.5158 64.3337ZM68.2808 64.328C67.1972 64.7906 66.9014 66.2503 67.7448 66.9736C68.7757 67.8579 70.5624 67.1617 70.5624 65.876C70.5624 64.854 69.2053 63.9331 68.2808 64.328ZM71.274 65.8181C71.3187 67.1642 71.3523 67.2928 71.6609 67.2928C71.9039 67.2928 72.0139 67.1627 72.0523 66.8294C72.093 66.4775 72.197 66.3659 72.4848 66.3659C73.3854 66.3659 73.8916 65.304 73.2811 64.6952C73.0168 64.4316 72.7148 64.3435 72.0768 64.3435H71.2252L71.274 65.8181ZM72.0834 65.2704C72.0834 65.5793 72.1735 65.6917 72.4214 65.6917C72.8324 65.6917 72.8887 65.1031 72.492 64.9514C72.0978 64.8005 72.0834 64.8117 72.0834 65.2704ZM62.4917 65.2123C62.1511 65.5519 62.2348 66.3293 62.635 66.5428C63.4322 66.9682 64.3191 66.1144 63.8523 65.3707C63.6409 65.0338 62.7722 64.9325 62.4917 65.2123ZM68.2301 65.2199C67.9457 65.5035 67.9777 66.1239 68.2928 66.4382C68.608 66.7525 69.2301 66.7844 69.5146 66.5007C69.6261 66.3895 69.7174 66.1013 69.7174 65.8603C69.7174 65.6193 69.6261 65.3311 69.5146 65.2199C69.403 65.1086 69.114 65.0176 68.8723 65.0176C68.6307 65.0176 68.3417 65.1086 68.2301 65.2199ZM65.4923 66.0288C65.4923 66.2911 65.605 66.3659 65.9993 66.3659C66.3936 66.3659 66.5063 66.2911 66.5063 66.0288C66.5063 65.7666 66.3936 65.6917 65.9993 65.6917C65.605 65.6917 65.4923 65.7666 65.4923 66.0288Z" fill="#515151"/>
</svg>
