<svg width="132" height="88" viewBox="0 0 132 88" fill="none" xmlns="http://www.w3.org/2000/svg">
<path d="M74.8665 65.5062C63.32 77.0529 32.8134 75.9603 32.8134 75.9603C32.8134 75.9603 31.7709 45.5167 43.3305 33.97C54.8891 22.4236 65.9457 25.4516 74.7405 34.1584C83.5353 42.8657 86.4129 53.9471 74.8665 65.5062Z" fill="#4F88F7"/>
<path d="M78.3713 52.3329C71.3858 59.3187 52.9666 58.6779 52.9666 58.6779C52.9666 58.6779 52.3258 40.2587 59.3114 33.2729C66.2972 26.2873 72.994 28.1216 78.2586 33.3862C83.5229 38.6505 85.3572 45.3473 78.3713 52.3329Z" fill="#F58127"/>
<path d="M73.0531 22.9613C82.3956 13.6186 93.3734 9.45113 97.5734 13.6513C101.774 17.8515 97.6064 28.829 88.2639 38.1718C78.9205 47.5144 67.9436 51.682 63.7435 47.4817C59.5426 43.2816 63.7105 32.3042 73.0531 22.9613Z" fill="#B7CDE5"/>
<path d="M77.2066 46.4519C78.0704 38.6655 81.6126 32.6689 85.115 33.0569C88.6183 33.4452 90.7572 40.073 89.8945 47.859C89.031 55.6451 85.4899 61.642 81.9864 61.2537C78.484 60.8654 76.3442 54.2377 77.2066 46.4519Z" fill="#B7CDE5"/>
<path d="M63.4497 21.41C71.236 20.5469 77.8627 22.6866 78.2516 26.1893C78.6396 29.6923 72.6424 33.2343 64.8569 34.0975C57.0708 34.9604 50.4427 32.8209 50.055 29.318C49.6661 25.815 55.6633 22.273 63.4497 21.41Z" fill="#B7CDE5"/>
<path d="M87.3308 19.7656C89.8366 19.7656 91.8666 21.7961 91.8666 24.3012C91.8666 26.8067 89.8366 28.837 87.3308 28.837C84.8261 28.837 82.7949 26.8067 82.7949 24.3012C82.7949 21.7961 84.8261 19.7656 87.3308 19.7656Z" fill="#F0F5FC"/>
</svg>
