<svg width="132" height="88" viewBox="0 0 132 88" fill="none" xmlns="http://www.w3.org/2000/svg">
<path d="M66.0004 78.0984C84.8333 78.0984 100.1 62.8313 100.1 43.9984C100.1 25.1655 84.8333 9.89844 66.0004 9.89844C47.1675 9.89844 31.9004 25.1655 31.9004 43.9984C31.9004 62.8313 47.1675 78.0984 66.0004 78.0984Z" fill="#5CCEC1"/>
<path d="M65.0068 20.1045C65.0726 19.177 64.3801 18.3714 63.4602 18.3051C62.5403 18.2388 61.7413 18.9369 61.6755 19.8644L65.0068 20.1045ZM61.6755 19.8644C61.3351 24.6657 60.927 32.4777 59.7763 39.6084C59.2009 43.1735 58.4513 46.4897 57.4638 49.127C56.4497 51.8357 55.3019 53.504 54.1387 54.2003L55.8437 57.0957C58.0287 55.7877 59.5144 53.1845 60.5884 50.316C61.689 47.3764 62.4819 43.8102 63.0727 40.1491C64.2543 32.8273 64.6731 24.8118 65.0068 20.1045L61.6755 19.8644Z" fill="white"/>
<path d="M57.7926 48.54L58.9079 47.2786L58.8259 47.2072L58.7354 47.1469L57.7926 48.54ZM87.7295 62.4674C88.6309 62.2257 89.1649 61.3045 88.9214 60.4099C88.6783 59.5148 87.7502 58.9852 86.8484 59.2265L87.7295 62.4674ZM52.0323 55.0664C49.7479 55.0664 48.5315 54.2262 47.9438 53.3517C47.3214 52.4253 47.2202 51.1983 47.653 50.1138C48.0733 49.0606 48.9779 48.1917 50.3572 47.9306C51.7662 47.664 53.9342 47.9896 56.8498 49.9333L58.7354 47.1469C55.3574 44.895 52.2881 44.1483 49.724 44.6335C47.1302 45.1242 45.3258 46.8308 44.5089 48.8775C43.7046 50.8932 43.8382 53.2909 45.1303 55.2137C46.4571 57.1884 48.835 58.4229 52.0323 58.4229V55.0664ZM56.6774 49.8013C65.7084 57.6669 74.8736 65.9103 87.7295 62.4674L86.8484 59.2265C76.0328 62.1235 68.2895 55.4494 58.9079 47.2786L56.6774 49.8013ZM55.0387 55.6258C54.2095 54.1632 54.2096 54.1632 54.2098 54.1632C54.2098 54.1632 54.2099 54.1632 54.21 54.1628C54.2099 54.1628 54.2101 54.1628 54.21 54.1628C54.2101 54.1628 54.2106 54.1628 54.2105 54.1628C54.2104 54.1628 54.2098 54.1632 54.2088 54.1635C54.2067 54.1647 54.2028 54.1669 54.1971 54.1699C54.1859 54.1762 54.1677 54.1863 54.1434 54.1993C54.0948 54.2254 54.022 54.2642 53.9307 54.3112C53.7466 54.4063 53.4943 54.5313 53.2177 54.6547C52.9372 54.78 52.6553 54.893 52.4079 54.9721C52.1311 55.0605 52.0176 55.0664 52.0323 55.0664V58.4229C52.5485 58.4229 53.0616 58.289 53.4425 58.1674C53.8529 58.0369 54.2599 57.8702 54.6055 57.7158C54.9552 57.5595 55.2664 57.4047 55.4893 57.2899C55.6015 57.2321 55.693 57.1836 55.7578 57.1485C55.7902 57.131 55.8161 57.1168 55.8347 57.1068C55.844 57.1015 55.8515 57.0974 55.857 57.0945C55.8598 57.093 55.8621 57.0915 55.8639 57.0907C55.8648 57.09 55.8656 57.0896 55.8663 57.0892C55.8666 57.0892 55.8669 57.0889 55.8672 57.0889C55.8673 57.0889 55.8675 57.0885 55.8675 57.0885C55.8677 57.0885 55.8679 57.0885 55.0387 55.6258Z" fill="#327885"/>
</svg>
