<svg width="132" height="88" viewBox="0 0 132 88" fill="none" xmlns="http://www.w3.org/2000/svg">
<path d="M92.7817 56.9701L90.1074 55.3699C89.8571 55.2858 89.6058 55.2016 89.4386 55.2016C89.0208 55.2016 88.6864 55.4543 88.352 55.8754L88.1018 56.3805C80.8316 68.425 74.1464 69.0151 68.2141 69.0151H64.955C60.6095 68.8463 59.1888 65.477 59.1888 61.0132V16.9621H64.286C65.0381 16.9621 66.6259 16.4567 66.6259 15.6987V13.1719C66.6259 12.3296 65.8741 11.8242 65.0381 11.8242H39.7184C38.8824 11.8242 38.4648 12.3296 38.4648 13.1719V15.6987C38.4648 16.4567 38.8824 16.9621 39.7184 16.9621H39.8015C44.3982 16.9621 45.9022 20.3312 45.9022 24.9637V61.9397C45.9022 66.572 44.3982 69.9413 39.8015 69.9413H39.7184C38.8824 69.9413 38.4648 70.4471 38.4648 71.2052V73.7319C38.4648 74.5734 38.8824 74.9947 39.7184 74.9947H81.5837C82.2525 74.9947 82.7541 74.9947 83.2546 75.416L83.6732 75.8373C83.9237 76.0898 84.1748 76.1742 84.4253 76.1742C84.8428 76.1742 85.2602 75.9218 85.4274 75.416L93.2833 58.7392C93.4505 58.4865 93.5336 58.2338 93.5336 58.0652C93.5336 57.6442 93.2833 57.2229 92.7817 56.9701Z" fill="#0EF275"/>
</svg>
