<svg width="132" height="88" viewBox="0 0 132 88" fill="none" xmlns="http://www.w3.org/2000/svg">
<path fill-rule="evenodd" clip-rule="evenodd" d="M26.125 29.645C26.125 56.7599 65.9998 79.0897 65.9998 79.0897C65.9998 79.0897 105.875 56.7599 105.875 29.645C105.875 24.8517 104.214 20.2063 101.175 16.4994C98.1359 12.7925 93.9063 10.2529 89.2062 9.31286C84.5058 8.37277 79.6248 9.09026 75.3939 11.3432C71.1631 13.5962 67.8432 17.2454 65.9998 21.6701C64.1563 17.2454 60.8365 13.5962 56.6056 11.3432C52.3747 9.09026 47.4937 8.37277 42.7934 9.31286C38.0931 10.2529 33.8637 12.7925 30.8247 16.4994C27.7858 20.2063 26.125 24.8517 26.125 29.645ZM74.4611 54.8969H84.8914V52.8356H81.8406V33.2531H74.4611V35.3144H77.5119V52.8356H74.4611V54.8969ZM77.4294 24.678C76.8797 25.1452 76.6049 25.7774 76.6049 26.5744C76.6049 27.3715 76.8797 28.0036 77.4294 28.4708C78.0066 28.9381 78.7349 29.1717 79.6144 29.1717C80.5489 29.1717 81.2772 28.9381 81.7994 28.4708C82.3491 28.0036 82.6239 27.3715 82.6239 26.5744C82.6239 25.7774 82.3491 25.1452 81.7994 24.678C81.2772 24.2108 80.5489 23.9771 79.6144 23.9771C78.7349 23.9771 78.0066 24.2108 77.4294 24.678ZM49.6239 40.7563C49.5414 42.6527 49.5002 44.5079 49.5002 46.3218C49.5002 48.1083 49.6651 49.5787 49.9949 50.733C50.3247 51.8874 50.8057 52.8081 51.4379 53.4952C52.07 54.1823 52.8533 54.6495 53.7878 54.8969C54.7222 55.1717 55.8078 55.3091 57.0446 55.3091C57.9791 55.3091 58.8448 55.158 59.6419 54.8557C60.4389 54.5258 61.1398 54.1136 61.7444 53.6189C62.3491 53.1242 62.8438 52.5745 63.2286 51.9698C63.6408 51.3652 63.9157 50.7743 64.0531 50.1971H64.2592L64.5478 54.8969H71.4326V52.8356H68.3819V33.2531H61.0436V35.3144H64.0531V47.6823C63.5584 49.1664 62.8438 50.3482 61.9093 51.2277C60.9749 52.1072 59.8205 52.547 58.4463 52.547C57.5119 52.547 56.7423 52.3958 56.1376 52.0935C55.533 51.7912 55.052 51.3377 54.6947 50.733C54.3649 50.1284 54.1313 49.4 53.9939 48.548C53.8839 47.6685 53.829 46.6654 53.829 45.5385C53.829 43.4222 53.8427 41.3884 53.8702 39.437C53.9252 37.4582 53.9801 35.3968 54.0351 33.2531H46.6968V35.3144H49.7476C49.7476 37.0459 49.7063 38.8598 49.6239 40.7563Z" fill="black"/>
</svg>
