<svg width="132" height="88" viewBox="0 0 132 88" fill="none" xmlns="http://www.w3.org/2000/svg">
<path fill-rule="evenodd" clip-rule="evenodd" d="M98.1752 43.9992C98.1752 61.769 83.77 76.1742 66.0002 76.1742C48.2304 76.1742 33.8252 61.769 33.8252 43.9992C33.8252 26.2295 48.2304 11.8242 66.0002 11.8242C83.77 11.8242 98.1752 26.2295 98.1752 43.9992ZM67.1191 41.2002C67.4451 41.7067 67.7806 42.1893 68.2525 42.8416C68.2169 42.7923 68.8647 43.6837 69.0346 43.9216C70.3505 45.7629 70.902 46.8892 71.0474 48.2468C71.0725 48.5237 71.077 48.7961 71.0601 49.064C71.0243 49.6269 70.8938 50.179 70.6594 50.7285C70.567 50.9454 70.4541 51.1537 70.3218 51.3532C69.9232 51.9533 69.3529 52.4619 68.66 52.8326C68.3898 52.9769 68.1041 53.0988 67.8072 53.1957C65.3374 53.8967 62.5487 53.1046 60.8834 51.2298L57.9069 54.2075C60.6309 57.2734 64.997 58.5057 68.9093 57.3761C69.4957 57.1886 70.0103 56.9709 70.5007 56.7088C71.7782 56.0256 72.8694 55.0526 73.6656 53.8532C73.9449 53.4327 74.1862 52.9866 74.3857 52.519C74.8224 51.4958 75.0727 50.4357 75.1414 49.3549C75.1738 48.8396 75.165 48.3225 75.1165 47.8049C74.979 46.4943 74.6167 45.3025 74.0425 44.1273C73.5991 43.2195 73.076 42.3933 72.2939 41.2989C72.1122 41.0445 71.4524 40.1365 71.4975 40.1987C71.0627 39.5977 70.7649 39.1693 70.4872 38.7371C70.2521 38.3869 70.2008 38.1389 70.2694 37.6762C70.2915 37.5853 70.3241 37.4928 70.3673 37.3989C70.4196 37.2858 70.4887 37.1693 70.5719 37.0565C70.6854 36.9025 70.8228 36.7571 70.9788 36.6271C72.1094 35.741 73.6954 35.9293 76.9063 37.1211L78.2568 33.0239C76.3156 32.3033 75.1903 31.9648 73.8447 31.8079C71.8321 31.5733 70.0341 31.9559 68.5146 33.1623C68.0605 33.5351 67.6763 33.9388 67.3486 34.3839C67.0936 34.7303 66.8733 35.1011 66.6931 35.4909C66.5026 35.9051 66.3595 36.3339 66.2669 36.7764L66.2478 36.8783C65.9891 38.4664 66.2454 39.8914 67.1191 41.2002ZM63.8904 44.6515V33.9722H59.7999V48.9922H66.3928V44.6515H63.8904ZM57.7328 43.5895C57.7328 45.208 56.4968 46.5198 54.9718 46.5198C53.4465 46.5198 52.2104 45.208 52.2104 43.5895C52.2104 41.9714 53.4465 40.6597 54.9718 40.6597C56.4968 40.6597 57.7328 41.9714 57.7328 43.5895Z" fill="black"/>
</svg>
