<svg width="132" height="88" viewBox="0 0 132 88" fill="none" xmlns="http://www.w3.org/2000/svg">
<mask id="mask0_2056_26046" style="mask-type:luminance" maskUnits="userSpaceOnUse" x="31" y="9" width="70" height="70">
<path d="M31.0176 9.01562H100.984V78.9825H31.0176V9.01562Z" fill="white"/>
</mask>
<g mask="url(#mask0_2056_26046)">
<path d="M71.8317 44C71.8317 40.9074 70.6033 37.9412 68.4162 35.7544C66.2291 33.5673 63.2638 32.3389 60.1711 32.3389C57.0777 32.3389 54.1121 33.5673 51.925 35.7544C49.7382 37.9412 48.5098 40.9074 48.5098 44C48.5098 50.1856 50.9666 56.1176 55.3405 60.4915C59.7144 64.8651 65.6464 67.3219 71.8317 67.3219C78.0175 67.3219 83.9498 64.8651 88.3229 60.4915C92.6968 56.1176 95.1544 50.1856 95.1544 44C95.1597 39.0772 94.1229 34.2089 92.114 29.7151C90.1041 25.2211 87.1662 21.2035 83.4931 17.9258" stroke="black" stroke-width="3.60938" stroke-linecap="round" stroke-linejoin="round"/>
<path fill-rule="evenodd" clip-rule="evenodd" d="M41.6179 25.4464C46.5386 20.526 53.2126 17.7617 60.1712 17.7617C67.1298 17.7617 73.8037 20.526 78.7243 25.4464C83.6441 30.3669 86.4086 37.0406 86.4086 43.9992C86.4086 47.8652 84.8733 51.5728 82.1398 54.3065C79.406 57.04 75.6977 58.5756 71.8325 58.5756C67.9666 58.5756 64.2593 57.04 61.5255 54.3065C58.7918 51.5728 57.2556 47.8652 57.2556 43.9992C57.2556 42.3891 58.561 41.084 60.1712 41.084C61.7813 41.084 63.0867 42.3891 63.0867 43.9992C63.0867 46.3189 64.0082 48.5434 65.6475 50.1834C67.2879 51.8238 69.5126 52.7451 71.8325 52.7451C74.1516 52.7451 76.3764 51.8238 78.0167 50.1834C79.6568 48.5434 80.5784 46.3189 80.5784 43.9992C80.5784 38.587 78.4284 33.3963 74.6012 29.5694C70.7741 25.7423 65.5837 23.5923 60.1712 23.5923C54.7586 23.5923 49.5683 25.7423 45.7411 29.5694C41.9138 33.3963 39.7638 38.587 39.7638 43.9992C39.7638 53.5767 43.9588 62.1704 50.6226 68.051C51.8301 69.1164 51.9451 70.9586 50.8795 72.1659C49.8141 73.3734 47.9719 73.4883 46.7646 72.4227C38.8992 65.482 33.9336 55.3188 33.9336 43.9992C33.9336 37.0406 36.6983 30.3669 41.6179 25.4464Z" fill="#F56565"/>
</g>
</svg>
