<svg width="132" height="88" viewBox="0 0 132 88" fill="none" xmlns="http://www.w3.org/2000/svg">
<path d="M55.6798 81.8826L55.6367 79.8518C55.6367 79.8264 55.7483 79.7604 55.8904 79.7579C56.0325 79.7554 56.1441 79.8163 56.1441 79.8417L56.0705 81.2048L56.0223 81.6059C56.0223 81.6313 56.0756 81.9258 55.9335 81.9283C55.7915 81.9308 55.6798 81.908 55.6798 81.8826Z" fill="#3E3127"/>
<path d="M56.4966 79.7059L55.0429 81.7748C55.0252 81.8002 54.8857 81.8002 54.769 81.719C54.6523 81.6377 54.6091 81.5057 54.6269 81.4803L55.6848 80.1578L56.0171 79.7821C56.0349 79.7567 56.2074 79.4318 56.3215 79.513C56.4357 79.5942 56.5144 79.6805 56.4966 79.7059Z" fill="#3E3127"/>
<path d="M83.9867 78.9512L82.2971 76.1436C82.2951 76.0923 82.3074 76.0415 82.3325 75.9967C82.3575 75.9519 82.3944 75.9149 82.4391 75.8897C82.4828 75.8622 82.5334 75.8477 82.585 75.8477C82.6366 75.8477 82.6872 75.8622 82.7309 75.8897L83.7736 77.819L84.0577 78.4003C84.078 78.4359 84.3621 78.8166 84.2429 78.8902C84.1236 78.9639 84.0069 78.9969 83.9867 78.9512Z" fill="#3E3127"/>
<path d="M83.0796 75.2954L82.7574 79.4205C82.7365 79.4734 82.6993 79.5182 82.6511 79.5485C82.6029 79.5787 82.5464 79.5927 82.4897 79.5884C82.433 79.5842 82.3791 79.5619 82.336 79.5248C82.2929 79.4877 82.2627 79.4378 82.25 79.3824L82.5697 76.6307L82.6889 75.8234C82.6889 75.7726 82.6889 75.1736 82.836 75.1837C82.9832 75.1939 83.0846 75.2446 83.0796 75.2954Z" fill="#3E3127"/>
<path d="M91.4166 19.7088L91.2593 22.9809C91.2593 23.0215 91.1401 23.123 91.0056 23.1154C90.9529 23.1153 90.9013 23.1006 90.8565 23.0728C90.8117 23.045 90.7755 23.0052 90.752 22.958L90.96 20.7749L91.0437 20.1327C91.0437 20.0921 91.0234 19.625 91.1629 19.625C91.3025 19.625 91.4166 19.6682 91.4166 19.7088Z" fill="#3E3127"/>
<path d="M90.1348 23.2481L92.6996 20.0014C92.7456 19.9699 92.7999 19.9531 92.8556 19.9531C92.9113 19.9531 92.9657 19.9699 93.0116 20.0014C93.0541 20.0377 93.0849 20.0857 93.1002 20.1394C93.1156 20.1931 93.1148 20.2502 93.0979 20.3035L91.2967 22.4231L90.7487 23.0273C90.7183 23.0679 90.3834 23.5654 90.2743 23.4791C90.1652 23.3928 90.1043 23.2887 90.1348 23.2481Z" fill="#3E3127"/>
<path d="M49.4395 79.3898L49.6931 77.359C49.6931 77.3336 49.8175 77.2828 49.9468 77.3006C49.9934 77.3026 50.0389 77.3144 50.0805 77.3355C50.122 77.3565 50.1586 77.3861 50.1878 77.4224L49.9088 78.7602L49.8022 79.1511C49.8022 79.174 49.8022 79.4735 49.6703 79.4532C49.5384 79.4329 49.4395 79.4151 49.4395 79.3898Z" fill="#3E3127"/>
<path d="M50.5746 77.3575L48.8267 79.1877C48.7798 79.1934 48.7321 79.1876 48.6879 79.1708C48.6438 79.154 48.6043 79.1267 48.573 79.0912C48.4715 78.9948 48.4436 78.8577 48.4664 78.8374L49.7095 77.6875L50.0926 77.3651C50.1154 77.3448 50.3336 77.0478 50.4351 77.1442C50.5366 77.2407 50.5975 77.3346 50.5746 77.3575Z" fill="#3E3127"/>
<path d="M89.7743 69.8844L87.8894 69.1228C87.864 69.1228 87.8463 68.9832 87.8894 68.8537C87.9325 68.7243 88.0441 68.643 88.0695 68.6532L89.2898 69.2599L89.6399 69.463C89.6652 69.463 89.9544 69.5391 89.8935 69.6686C89.8327 69.7981 89.7743 69.8945 89.7743 69.8844Z" fill="#3E3127"/>
<path d="M88.0836 68.2748L89.4104 70.4274C89.4256 70.4528 89.3723 70.5823 89.2531 70.6559C89.2136 70.6843 89.1677 70.7025 89.1195 70.7092C89.0714 70.7158 89.0223 70.7106 88.9766 70.694L88.18 69.1988L87.9669 68.747C87.9491 68.719 87.7132 68.4322 87.84 68.3586C87.9669 68.2849 88.0684 68.2469 88.0836 68.2748Z" fill="#3E3127"/>
<path d="M41.2591 62.6187L42.2612 60.8418C42.2739 60.8189 42.4058 60.8189 42.5276 60.8875C42.6493 60.956 42.7153 61.0703 42.7026 61.0906L41.9415 62.2253L41.6879 62.5451C41.6752 62.568 41.5712 62.8472 41.4494 62.7761C41.3276 62.705 41.2464 62.639 41.2591 62.6187Z" fill="#3E3127"/>
<path d="M43.0766 61.1638L40.768 62.1995C40.7401 62.2122 40.6209 62.1411 40.5625 62.0142C40.5394 61.9713 40.5273 61.9233 40.5273 61.8746C40.5273 61.8259 40.5394 61.7779 40.5625 61.735L42.1481 61.1384L42.625 60.9861C42.6529 60.9861 42.9675 60.7805 43.0259 60.91C43.0842 61.0394 43.0969 61.1511 43.0766 61.1638Z" fill="#3E3127"/>
<path d="M42.822 45.7609C42.822 45.7609 37.8903 36.0385 45.8206 24.6914H50.0928V45.7609H42.822Z" fill="#D59254"/>
<path d="M50.68 26.2742V28.5969C49.8936 28.4218 49.1122 28.2238 48.3435 27.9978C47.1416 27.6514 45.9786 27.1819 44.873 26.5966C45.2637 25.8858 45.7068 25.1674 46.2024 24.4414C47.4603 25.1697 48.8032 25.7401 50.2006 26.1397L50.68 26.2742Z" fill="#B55C4E"/>
<path d="M50.708 46.3937H42.4123L42.2372 46.0459C42.184 45.9418 40.9409 43.4541 40.6948 39.5194C40.469 35.9071 41.0804 30.3402 45.2815 24.3341L45.4718 24.0625H50.708V46.3937ZM43.2139 45.1244H49.4395V25.3241H46.1415C39.5836 34.9425 42.4782 43.3424 43.2216 45.1244H43.2139Z" fill="#3E3127"/>
<path d="M44.3793 46.4648H42.3776C39.7744 46.4648 37.6641 48.5765 37.6641 51.1814V51.1839C37.6641 53.7888 39.7744 55.9004 42.3776 55.9004H44.3793C46.9825 55.9004 49.0928 53.7888 49.0928 51.1839V51.1814C49.0928 48.5765 46.9825 46.4648 44.3793 46.4648Z" fill="white"/>
<path d="M44.6463 47.3242H43.1292C41.155 47.3242 39.5547 48.9256 39.5547 50.901C39.5547 52.8763 41.155 54.4777 43.1292 54.4777H44.6463C46.6204 54.4777 48.2208 52.8763 48.2208 50.901C48.2208 48.9256 46.6204 47.3242 44.6463 47.3242Z" fill="#FDD2BF"/>
<path d="M44.38 56.2608H42.3809C41.6686 56.2763 40.9605 56.1494 40.2979 55.8873C39.6354 55.6253 39.0318 55.2336 38.5226 54.735C38.0133 54.2364 37.6088 53.6411 37.3326 52.984C37.0563 52.3269 36.9141 51.6212 36.9141 50.9084C36.9141 50.1955 37.0563 49.4898 37.3326 48.8327C37.6088 48.1756 38.0133 47.5803 38.5226 47.0818C39.0318 46.5832 39.6354 46.1914 40.2979 45.9294C40.9605 45.6674 41.6686 45.5404 42.3809 45.556H44.38C45.7785 45.5864 47.1094 46.1637 48.0877 47.1642C49.066 48.1646 49.6138 49.5087 49.6138 50.9084C49.6138 52.3081 49.066 53.6521 48.0877 54.6526C47.1094 55.653 45.7785 56.2303 44.38 56.2608ZM42.3809 46.8252C41.8365 46.8116 41.2948 46.9072 40.7879 47.1063C40.2809 47.3054 39.8189 47.604 39.429 47.9845C39.0391 48.365 38.7293 48.8197 38.5178 49.3218C38.3062 49.824 38.1973 50.3634 38.1973 50.9084C38.1973 51.4533 38.3062 51.9928 38.5178 52.4949C38.7293 52.9971 39.0391 53.4518 39.429 53.8323C39.8189 54.2128 40.2809 54.5114 40.7879 54.7105C41.2948 54.9096 41.8365 55.0051 42.3809 54.9915H44.38C45.4446 54.965 46.4567 54.5231 47.2003 53.7603C47.9439 52.9974 48.3601 51.974 48.3601 50.9084C48.3601 49.8427 47.9439 48.8193 47.2003 48.0565C46.4567 47.2936 45.4446 46.8518 44.38 46.8252H42.3809Z" fill="#3E3127"/>
<path d="M89.6214 46.4648H87.6198C85.0166 46.4648 82.9062 48.5765 82.9062 51.1814V51.1839C82.9062 53.7888 85.0166 55.9004 87.6198 55.9004H89.6214C92.2247 55.9004 94.335 53.7888 94.335 51.1839V51.1814C94.335 48.5765 92.2247 46.4648 89.6214 46.4648Z" fill="#DDA38C"/>
<path d="M89.2598 47.8828H87.9787C86.3142 47.8828 84.9648 49.233 84.9648 50.8985V50.9011C84.9648 52.5666 86.3142 53.9168 87.9787 53.9168H89.2598C90.9243 53.9168 92.2737 52.5666 92.2737 50.9011V50.8985C92.2737 49.233 90.9243 47.8828 89.2598 47.8828Z" fill="#FDD2BF"/>
<path d="M89.6177 56.2608H87.6186C86.2201 56.2303 84.8892 55.653 83.9109 54.6526C82.9326 53.6521 82.3848 52.3081 82.3848 50.9084C82.3848 49.5087 82.9326 48.1646 83.9109 47.1642C84.8892 46.1637 86.2201 45.5864 87.6186 45.556H89.6177C90.3299 45.5404 91.0381 45.6674 91.7007 45.9294C92.3632 46.1914 92.9668 46.5832 93.476 47.0818C93.9852 47.5803 94.3898 48.1756 94.666 48.8327C94.9422 49.4898 95.0845 50.1955 95.0845 50.9084C95.0845 51.6212 94.9422 52.3269 94.666 52.984C94.3898 53.6411 93.9852 54.2364 93.476 54.735C92.9668 55.2336 92.3632 55.6253 91.7007 55.8873C91.0381 56.1494 90.3299 56.2763 89.6177 56.2608ZM87.6186 46.8252C86.554 46.8518 85.5419 47.2936 84.7983 48.0565C84.0547 48.8193 83.6385 49.8427 83.6385 50.9084C83.6385 51.974 84.0547 52.9974 84.7983 53.7603C85.5419 54.5231 86.554 54.965 87.6186 54.9915H89.6177C90.1621 55.0051 90.7038 54.9096 91.2107 54.7105C91.7177 54.5114 92.1797 54.2128 92.5696 53.8323C92.9594 53.4518 93.2693 52.9971 93.4808 52.4949C93.6923 51.9928 93.8013 51.4533 93.8013 50.9084C93.8013 50.3634 93.6923 49.824 93.4808 49.3218C93.2693 48.8197 92.9594 48.365 92.5696 47.9845C92.1797 47.604 91.7177 47.3054 91.2107 47.1063C90.7038 46.9072 90.1621 46.8116 89.6177 46.8252H87.6186Z" fill="#3E3127"/>
<path d="M89.1213 43.2156C89.1213 30.5838 78.8877 20.3438 66.2638 20.3438C53.6399 20.3438 43.4062 30.5838 43.4062 43.2156V57.8856C43.4062 70.5173 53.6399 80.7574 66.2638 80.7574C78.8877 80.7574 89.1213 70.5173 89.1213 57.8856V43.2156Z" fill="#FDD2BF"/>
<path d="M66.8257 81.1146C66.534 81.1273 66.2397 81.1324 65.9454 81.1324C59.8832 81.1324 54.0693 78.7227 49.7827 74.4334C45.4961 70.1441 43.0879 64.3266 43.0879 58.2606V43.5906C43.0879 37.5246 45.4961 31.7071 49.7827 27.4178C54.0693 23.1285 59.8832 20.7188 65.9454 20.7188C66.2397 20.7188 64.5045 20.7187 64.7962 20.7365C52.5785 21.196 45.607 31.2535 45.607 43.583V58.253C45.607 70.5977 54.608 80.6552 66.8257 81.1146Z" fill="white"/>
<path d="M41.5104 49.1073C41.1862 49.3093 40.9178 49.5896 40.7299 49.9223C40.542 50.255 40.4405 50.6296 40.4346 51.0117C40.4288 51.3938 40.5189 51.7713 40.6967 52.1096C40.8744 52.4479 41.1341 52.7362 41.452 52.948C41.4874 53.1783 41.4408 53.4138 41.3201 53.6131C41.1578 53.9228 40.8127 54.0573 40.7442 54.0015C40.1222 53.5294 39.6758 52.8629 39.4758 52.1078C39.2851 51.3806 39.3422 50.6106 39.6381 49.9196C39.8229 49.5382 40.0816 49.1973 40.3992 48.9169C40.5052 48.7776 40.6308 48.6545 40.7721 48.5513C40.9675 48.4142 41.1958 48.3559 41.2795 48.5082C41.452 48.8102 41.556 49.0793 41.5104 49.1073Z" fill="#3E3127"/>
<path d="M91.2138 47.9834C91.7157 48.2983 92.1309 48.7337 92.4216 49.2501C92.7124 49.7665 92.8695 50.3474 92.8785 50.9401C92.8876 51.5327 92.7484 52.1182 92.4736 52.6433C92.1988 53.1683 91.7971 53.6163 91.3051 53.9464C91.2316 54.0022 90.8916 53.8677 90.7293 53.558C90.6075 53.36 90.559 53.1255 90.5923 52.8954C91.0503 52.6363 91.4078 52.2303 91.607 51.743C91.8185 51.227 91.8515 50.6552 91.7009 50.1183C91.6276 49.781 91.4879 49.4617 91.2899 49.1791L90.9576 48.8871C90.8104 48.7526 90.6734 48.6054 90.7572 48.4505C90.9373 48.1459 91.1377 47.9352 91.2138 47.9834Z" fill="#3E3127"/>
<path d="M87.4466 47.7758C87.4865 47.8308 87.5054 47.8984 87.4998 47.9662C87.4998 48.0068 87.4998 48.05 87.4998 48.0931C87.4998 48.1363 87.4998 48.1591 87.4998 48.1921C87.491 48.2867 87.491 48.3819 87.4998 48.4764C87.5201 48.6516 87.4998 49.5528 87.4998 49.6441C87.4998 49.7812 87.4998 50.2001 87.4998 50.2711C87.4998 50.3422 87.4998 50.6875 87.5125 50.7788C87.5163 50.8168 87.5163 50.8551 87.5125 50.8931C87.5125 51.0555 87.5506 51.2155 87.5455 51.3779C87.5455 51.4769 87.5455 51.5759 87.5455 51.6775C87.5468 51.7012 87.5468 51.7249 87.5455 51.7486C87.5303 52.0024 87.5455 52.2563 87.5455 52.5101C87.5455 52.5634 87.5455 52.6167 87.5455 52.6675C87.543 52.7013 87.543 52.7352 87.5455 52.769C87.5595 52.949 87.5595 53.1298 87.5455 53.3097C87.543 53.3334 87.543 53.3572 87.5455 53.3808C87.5531 53.5135 87.5531 53.6466 87.5455 53.7793C87.548 53.8225 87.548 53.8657 87.5455 53.9088C87.5455 53.9418 87.5455 53.9748 87.5455 54.0078C87.5455 54.155 87.5455 54.3023 87.5455 54.4495C87.5442 54.4588 87.5442 54.4682 87.5455 54.4774C87.5587 54.6341 87.5527 54.7918 87.5278 54.9471C87.5125 55.0412 87.5125 55.1372 87.5278 55.2314C87.5315 55.2498 87.5315 55.2688 87.5278 55.2872C87.5168 55.3816 87.5109 55.4765 87.51 55.5715C87.51 55.5715 87.51 55.5715 87.51 55.5868C87.51 55.602 87.4313 55.6172 87.4136 55.6172C87.3373 55.5994 87.2632 55.573 87.1929 55.5385C87.186 55.526 87.1817 55.5122 87.1802 55.4979C87.1778 55.4557 87.1597 55.4158 87.1295 55.3862C87.1223 55.3769 87.117 55.3663 87.114 55.355C87.1109 55.3437 87.1102 55.3318 87.1117 55.3202C87.1345 55.1298 87.1117 54.9394 87.1269 54.7491C87.1269 54.6704 87.1269 54.5891 87.1269 54.5079V53.2945C87.1231 53.2235 87.1231 53.1523 87.1269 53.0813C87.1308 53.0145 87.1308 52.9475 87.1269 52.8807V52.5406V51.2409C87.1282 51.2316 87.1282 51.2222 87.1269 51.2129C87.1047 50.9801 87.0971 50.7461 87.1041 50.5123C87.1041 50.3625 87.1041 50.2178 87.1041 50.0681C87.1041 49.9183 87.1041 49.7761 87.1041 49.6289C87.1041 49.4817 87.1041 49.3751 87.1041 49.2431C87.1028 49.2236 87.1028 49.2041 87.1041 49.1847C87.1041 48.9765 87.1244 48.121 87.1244 48.017C87.1242 47.993 87.1322 47.9697 87.1472 47.951C87.1472 47.9332 87.165 47.9103 87.1777 47.89C87.1903 47.8697 87.2132 47.8596 87.2233 47.8418C87.2312 47.8202 87.238 47.7981 87.2436 47.7758C87.2471 47.7651 87.2546 47.7562 87.2646 47.751C87.2745 47.7458 87.2861 47.7447 87.2969 47.7479L87.4466 47.7758Z" fill="#E8AF94"/>
<path d="M50.6697 30.1571C50.0931 30.9882 49.5841 31.8643 49.1475 32.7768C48.9243 33.2312 48.7061 33.6932 48.4879 34.1552C48.2662 34.5964 48.0902 35.0591 47.9628 35.5361C47.945 35.6021 47.7979 35.7646 47.6609 35.7443C47.5239 35.724 47.4478 35.4904 47.4681 35.4194C47.6782 34.7505 47.9562 34.1049 48.2977 33.4927C48.6046 32.8809 48.9192 32.2716 49.2591 31.6725C49.4672 31.3248 49.6828 30.9821 49.9137 30.6572C49.9441 30.5886 50.4084 29.822 50.5276 29.8956C50.6468 29.9692 50.7077 30.0961 50.6697 30.1571Z" fill="white"/>
<path opacity="0.8" d="M46.8516 37.7015L47.1408 36.2698C47.2233 36.2434 47.312 36.2434 47.3945 36.2698C47.5315 36.2977 47.633 36.3663 47.6279 36.3841L47.3336 37.3208L47.222 37.5924C47.222 37.6076 47.222 37.8234 47.085 37.7955C46.948 37.7675 46.8491 37.7193 46.8516 37.7015Z" fill="white"/>
<path d="M66.3803 58.7674C66.2121 58.7674 66.0508 58.7005 65.9319 58.5815C65.8129 58.4625 65.7461 58.3011 65.7461 58.1328V51.619C65.7461 51.4507 65.8129 51.2893 65.9319 51.1703C66.0508 51.0512 66.2121 50.9844 66.3803 50.9844C66.5485 50.9844 66.7098 51.0512 66.8288 51.1703C66.9477 51.2893 67.0145 51.4507 67.0145 51.619V58.1328C67.0145 58.3011 66.9477 58.4625 66.8288 58.5815C66.7098 58.7005 66.5485 58.7674 66.3803 58.7674Z" fill="#3E3127"/>
<path d="M66.1031 82.0439C59.8748 82.0371 53.9034 79.5584 49.4993 75.1515C45.0952 70.7447 42.618 64.7696 42.6113 58.5374V43.8776C42.6113 37.6433 45.0863 31.6643 49.4919 27.256C53.8975 22.8477 59.8727 20.3711 66.1031 20.3711C72.3335 20.3711 78.3087 22.8477 82.7143 27.256C87.1198 31.6643 89.5949 37.6433 89.5949 43.8776V58.5475C89.5855 64.778 87.1071 70.7505 82.7033 75.1551C78.2995 79.5598 72.3297 82.0371 66.1031 82.0439ZM66.1031 21.6276C60.2112 21.6344 54.5625 23.9794 50.3963 28.1482C46.23 32.317 43.8865 37.9693 43.8798 43.8649V58.5348C43.8798 64.4325 46.2212 70.0886 50.3888 74.2589C54.5565 78.4292 60.2091 80.7721 66.1031 80.7721C71.9971 80.7721 77.6497 78.4292 81.8173 74.2589C85.985 70.0886 88.3264 64.4325 88.3264 58.5348V43.8776C88.3197 37.9819 85.9762 32.3297 81.8099 28.1609C77.6437 23.9921 71.995 21.6471 66.1031 21.6403V21.6276Z" fill="#3E3127"/>
<path d="M88.9811 45.6332C84.785 40.414 82.4003 32.598 81.9335 25.9141C75.4669 27.2849 68.9293 28.6633 62.3232 28.4856C58.0815 28.3714 53.6977 27.8916 49.6159 26.7087C44.6537 25.2592 41.0259 22.1826 39.2145 17.2883L37.9258 13.5974C37.9258 13.5974 47.3732 17.4406 61.7169 9.02807C76.0606 0.615498 90.2115 13.0262 90.2115 24.3707L93.9153 22.4136C93.9153 22.4136 96.4522 37.741 89.6736 45.4377" fill="#D59254"/>
<path d="M82.2326 28.9911C75.6544 29.6461 68.5866 30.6158 62.0388 29.7121C57.8377 29.1333 54.5473 28.6967 50.6227 27.0517C50.6227 27.0517 50.8764 27.0517 50.8587 27.0517C50.9728 26.9324 49.8211 26.8156 49.9403 26.7014C53.9131 27.8183 58.1599 28.2702 62.2722 28.3844C68.6145 28.5545 74.8807 27.2929 81.0885 25.9805C81.3895 26.2479 81.6829 26.5237 81.9688 26.808" fill="#DDA18A"/>
<path d="M81.4882 25.3637C75.0242 26.737 68.4866 28.1128 61.8779 27.9352C57.6387 27.8209 53.2524 27.3411 49.1705 26.1582C44.2084 24.7087 40.5831 21.6321 38.7692 16.7404L37.4805 13.0469C38.4146 13.3786 39.383 13.6043 40.3675 13.7196L44.3733 13.7424C44.3377 13.7424 44.9872 16.4383 45.0506 16.6972C45.2891 17.639 45.9411 18.5224 46.5372 19.2941C46.5372 19.2941 51.2863 27.5417 81.5745 25.4728" fill="#F9B47A"/>
<path d="M89.4324 45.3646L89.0138 45.8216C88.865 45.6354 88.7179 45.445 88.5724 45.2504C90.2617 41.119 90.9108 36.6357 90.4628 32.1945C90.0148 27.7533 88.4833 23.4902 86.003 19.78C83.5228 16.0697 80.1696 13.026 76.2383 10.9163C72.307 8.80654 67.918 7.69545 63.457 7.68066C77.0904 1.43088 89.9728 13.2222 89.9728 24.0438L93.6767 22.0866C93.6767 22.0866 96.2237 37.6679 89.4324 45.3646Z" fill="#B55C4E"/>
<path d="M47.0235 23.933L46.1914 23.3745C46.2067 23.2886 46.2424 23.2077 46.2954 23.1384C46.3385 23.0621 46.4005 22.9983 46.4755 22.9531L46.9829 23.4126L47.1148 23.57C47.1148 23.57 47.2721 23.6207 47.1935 23.735C47.1492 23.8107 47.0916 23.8778 47.0235 23.933Z" fill="#3E3127"/>
<path d="M52.2021 25.3929C50.809 25.3157 49.438 25.0113 48.143 24.4917C48.1011 24.4545 48.0716 24.4054 48.0584 24.3509C48.0453 24.2965 48.0491 24.2393 48.0694 24.1871C48.0918 24.1382 48.1274 24.0965 48.1723 24.0669C48.2171 24.0373 48.2694 24.0209 48.3231 24.0195C49.1438 24.3865 50.0022 24.6623 50.8829 24.842C51.1366 24.9029 51.3903 24.9588 51.6642 25.0019C51.715 25.0019 52.301 25.0019 52.2934 25.1441C52.2858 25.2862 52.2528 25.3954 52.2021 25.3929Z" fill="#3E3127"/>
<path d="M63.057 10.0135C62.0729 10.7789 60.9711 11.379 59.7945 11.7905C59.7409 11.7863 59.6898 11.7662 59.6478 11.7327C59.6057 11.6993 59.5747 11.6539 59.5586 11.6026C59.5411 11.5525 59.5382 11.4984 59.5504 11.4467C59.5625 11.395 59.5891 11.3478 59.6271 11.3107C60.3937 11.0816 61.133 10.7692 61.8317 10.3791C62.0422 10.2725 62.2502 10.1582 62.4532 10.0364C62.4938 10.0135 62.8819 9.66321 62.9606 9.78252C63.0392 9.90183 63.095 9.9856 63.057 10.0135Z" fill="#3E3127"/>
<path d="M64.6249 9.18956L63.5822 9.74295C63.5696 9.74295 63.4833 9.6668 63.4174 9.54241C63.3684 9.46689 63.3428 9.37858 63.3438 9.28856L64.0896 9.01187L64.323 8.95094C64.3357 8.95094 64.4651 8.82402 64.531 8.95094C64.5781 9.02336 64.61 9.10452 64.6249 9.18956Z" fill="#3E3127"/>
<path d="M45.3307 28.4445C45.1285 28.9736 45.0178 29.5333 45.0035 30.0996C44.9312 30.1552 44.8406 30.1815 44.7498 30.1732C44.7038 30.1777 44.6574 30.1724 44.6136 30.1575C44.5699 30.1426 44.5298 30.1186 44.4961 30.0869C44.5404 29.6749 44.6323 29.2694 44.7701 28.8786C44.8183 28.7669 44.869 28.6552 44.9248 28.5486C44.9248 28.5283 44.9781 28.2643 45.11 28.3151C45.2419 28.3658 45.3383 28.4242 45.3307 28.4445Z" fill="#3E3127"/>
<path d="M46.141 28.2811L45.6996 29.4793C45.6122 29.4863 45.5242 29.4743 45.4419 29.4441C45.3596 29.4139 45.2848 29.3661 45.2227 29.3041L45.6159 28.5426L45.7554 28.3268C45.7554 28.3116 45.7833 28.1237 45.9127 28.172C46.0421 28.2202 46.1537 28.2659 46.141 28.2811Z" fill="#3E3127"/>
<path d="M91.1458 32.1931C91.3335 36.6773 90.7219 41.1592 89.3395 45.4288C89.2888 45.5862 89.0452 45.9594 88.9133 45.9137C88.7814 45.868 88.8067 45.4263 88.8575 45.2714C89.8018 42.4655 90.409 39.5571 90.6663 36.6075C90.75 35.7394 90.8109 34.8687 90.8312 33.9954C90.8312 33.9142 90.8312 33.3913 90.816 32.8912C90.8008 32.3911 90.816 31.9088 90.8819 31.9062C90.9182 31.9072 90.954 31.9155 90.9871 31.9305C91.0202 31.9456 91.0499 31.9671 91.0745 31.9938C91.0991 32.0206 91.1181 32.052 91.1303 32.0862C91.1426 32.1205 91.1478 32.1568 91.1458 32.1931Z" fill="#3E3127"/>
<path d="M92.5961 35.505C91.9193 38.8957 90.9387 42.2185 89.666 45.4331C89.6203 45.5524 89.3894 45.8189 89.2601 45.7656C89.1307 45.7123 89.1484 45.362 89.1941 45.2452C90.0702 43.1268 90.8183 40.9575 91.4342 38.7492C91.6219 38.0994 91.8021 37.447 91.967 36.792C92.0025 36.6702 92.2587 35.2029 92.3931 35.2309C92.455 35.2432 92.51 35.2781 92.5475 35.3287C92.585 35.3794 92.6024 35.4423 92.5961 35.505Z" fill="#3E3127"/>
<path d="M80.9697 78.3674C77.8696 80.3423 74.186 81.9949 70.2386 81.9949L62.6761 82.2487C58.7286 82.2487 55.0451 80.3423 51.945 78.3674C45.4124 74.2093 41.9927 66.5405 42.9973 58.859L43.4184 55.625C43.4184 55.625 49.852 63.8675 57.1938 64.6062C59.6064 64.8474 57.3257 59.4962 66.4129 59.5165H66.5017C74.1632 59.5165 73.3083 64.8474 75.7209 64.6062C83.0627 63.8675 89.4963 55.625 89.4963 55.625L89.9174 58.859C90.922 66.5405 87.4921 74.2093 80.9697 78.3674Z" fill="#D59254"/>
<path d="M67.0473 81.9369C66.7556 81.9496 65.9539 82.2085 65.6596 82.2085C62.9984 82.2085 60.7507 81.9547 58.0616 81.8379C55.7879 81.3359 53.6199 80.4389 51.6559 79.1877C45.1233 75.0296 41.7036 67.3608 42.7082 59.6794L43.1293 56.4453C43.1293 56.4453 43.657 57.0469 45.3441 58.664C41.3763 72.2678 54.9234 81.48 67.0473 81.9369Z" fill="white"/>
<path d="M80.4214 78.9701C77.2151 81.0133 73.4915 82.0958 69.6903 82.0899H66.5293C70.3306 82.0958 74.0541 81.0133 77.2604 78.9701C83.793 74.8121 87.2127 67.1433 86.2081 59.4618L86.1751 59.2079C87.1639 58.2749 88.0902 57.2776 88.948 56.2227L89.3691 59.4542C90.3737 67.1433 86.9539 74.8121 80.4214 78.9701Z" fill="#B55C4E"/>
<path d="M80.8358 16.1334C78.9688 13.6148 76.3688 11.7359 73.3925 10.7543C73.2834 10.7188 73.0322 10.5182 73.0703 10.3837C73.1083 10.2492 73.4356 10.2339 73.5498 10.272C75.5808 10.9765 77.4446 12.0931 79.0244 13.5517C79.481 13.9835 79.9105 14.443 80.3106 14.9276C80.3512 14.9682 80.6024 15.2475 80.818 15.5318C81.0336 15.8161 81.2163 16.1131 81.1605 16.1537C81.1126 16.1889 81.0538 16.2062 80.9945 16.2025C80.9351 16.1988 80.8789 16.1743 80.8358 16.1334Z" fill="#B55C4E"/>
<path d="M85.879 22.5847C86.962 22.5847 87.84 21.7061 87.84 20.6224C87.84 19.5387 86.962 18.6602 85.879 18.6602C84.796 18.6602 83.918 19.5387 83.918 20.6224C83.918 21.7061 84.796 22.5847 85.879 22.5847Z" fill="#B55C4E"/>
<path d="M46.2286 20.1472C47.3117 20.1472 48.1896 19.2686 48.1896 18.1849C48.1896 17.1012 47.3117 16.2227 46.2286 16.2227C45.1456 16.2227 44.2676 17.1012 44.2676 18.1849C44.2676 19.2686 45.1456 20.1472 46.2286 20.1472Z" fill="#F9B47A"/>
<path opacity="0.65" d="M83.5392 24.0837C83.9707 24.0837 84.3205 23.828 84.3205 23.5126C84.3205 23.1971 83.9707 22.9414 83.5392 22.9414C83.1076 22.9414 82.7578 23.1971 82.7578 23.5126C82.7578 23.828 83.1076 24.0837 83.5392 24.0837Z" fill="#B55C4E"/>
<path opacity="0.65" d="M82.8497 20.0882C83.0654 20.0882 83.2403 19.9609 83.2403 19.8038C83.2403 19.6468 83.0654 19.5195 82.8497 19.5195C82.6339 19.5195 82.459 19.6468 82.459 19.8038C82.459 19.9609 82.6339 20.0882 82.8497 20.0882Z" fill="#B55C4E"/>
<path opacity="0.65" d="M49.8881 19.7397C50.0403 19.4828 50.0113 19.1842 49.8233 19.0726C49.6353 18.9611 49.3595 19.0789 49.2073 19.3357C49.055 19.5926 49.084 19.8912 49.272 20.0028C49.46 20.1143 49.7358 19.9965 49.8881 19.7397Z" fill="#F9B47A"/>
<path opacity="0.65" d="M49.8248 17.5204C50.0159 17.1954 49.9781 16.8183 49.7402 16.6782C49.5023 16.5382 49.1545 16.6881 48.9633 17.0131C48.7722 17.3381 48.81 17.7151 49.0479 17.8552C49.2858 17.9953 49.6336 17.8454 49.8248 17.5204Z" fill="#F9B47A"/>
<path d="M46.8262 43.0633C50.0633 39.2556 55.3197 36.9557 60.6219 37.0496C62.0476 37.0776 63.6915 37.3974 64.3638 38.5727C64.5877 38.9964 64.7085 39.4669 64.7164 39.9461C64.7545 40.6238 64.6632 41.3676 64.1406 41.8398C63.6687 42.2663 62.9558 42.3678 62.2912 42.383C59.772 42.4439 57.3112 41.5529 54.7895 41.5149C52.075 41.4768 49.4899 42.4287 46.9885 43.3629" fill="#E8AF94"/>
<path d="M46.8281 41.5968C50.1667 37.327 54.8295 34.7429 60.2433 34.8139C61.6995 34.8317 63.3764 35.1744 64.0487 36.464C64.2754 36.9398 64.3941 37.4599 64.3962 37.987C64.4317 38.7486 64.3302 39.566 63.7924 40.094C63.3079 40.5712 62.5798 40.6905 61.8999 40.7134C59.3275 40.7997 56.8261 39.8275 54.246 39.8072C51.4732 39.7868 50.0145 40.8987 47.4522 41.9573" fill="#D59254"/>
<path d="M46.5488 41.5977L46.7112 41.9201C49.276 40.8615 51.922 39.7826 54.6948 39.808C57.2698 39.8258 59.7687 40.7955 62.3487 40.7117C63.0286 40.6889 63.7592 40.5696 64.2412 40.0898C64.7232 39.61 64.8653 38.8383 64.8475 38.125C64.1169 38.6632 63.1225 39.2115 62.2041 39.2089C60.9655 39.2342 59.7282 39.1133 58.518 38.8485C55.746 38.1829 52.8593 38.1552 50.0751 38.7672C48.1953 39.8791 47.8959 39.874 46.5488 41.5977Z" fill="#B55C4E"/>
<path d="M46.2285 41.4031C46.3639 41.0758 46.5573 40.7756 46.7993 40.5171C46.9617 40.3496 47.1088 40.1643 47.2661 39.9866C47.3824 39.844 47.5096 39.7108 47.6466 39.588C47.8471 39.4129 48.0323 39.2276 48.2251 39.0473C48.4179 38.8671 48.6157 38.697 48.8085 38.5168C48.9402 38.395 49.0791 38.2815 49.2246 38.1766C49.4098 38.0396 49.6229 37.8619 49.8791 37.6893C50.1353 37.5166 50.4144 37.3313 50.7112 37.146C51.008 36.9607 51.3252 36.783 51.6423 36.618C51.9594 36.453 52.279 36.2905 52.5835 36.1535L53.4333 35.7854C53.9559 35.595 54.3365 35.4528 54.4481 35.4148L55.2092 35.1761C55.5263 35.0797 55.8916 35.0035 56.2392 34.9096C56.9444 34.7548 57.6116 34.638 57.807 34.605C57.9084 34.5821 58.1012 34.5517 58.3448 34.5187C58.5883 34.4857 58.8801 34.4704 59.1769 34.4476C59.4737 34.4247 59.7731 34.4222 60.0318 34.4146C60.2906 34.407 60.5062 34.3968 60.6432 34.3994C60.8595 34.3949 61.0757 34.4068 61.2901 34.4349C61.7594 34.4789 62.2249 34.557 62.6829 34.6684C63.1747 34.7854 63.6353 35.008 64.0325 35.3208C64.5471 35.74 64.9142 36.3128 65.0803 36.9556C65.1202 37.099 65.1507 37.2449 65.1716 37.3922C65.2172 37.7712 65.2325 38.1532 65.2173 38.5346C65.2065 38.9439 65.1285 39.3487 64.9864 39.7327C64.825 40.1595 64.5418 40.5294 64.1721 40.7964C63.8169 41.0352 63.4131 41.1922 62.9899 41.2558C62.6829 41.3048 62.3722 41.3269 62.0614 41.3218H61.4956C60.4998 41.2942 59.5098 41.1598 58.5427 40.9208C58.4182 40.8881 58.292 40.8626 58.1647 40.8446C57.4518 40.7659 56.7643 40.5908 56.0692 40.507L55.4045 40.4283C55.232 40.4156 55.0595 40.3851 54.8971 40.3877C54.1327 40.373 53.3685 40.4273 52.6139 40.5501C52.5645 40.5561 52.5154 40.5646 52.4668 40.5755C51.6727 40.771 50.8736 40.9284 50.0745 41.1441C49.5855 41.2666 49.1097 41.4367 48.6538 41.6518C48.5657 41.7004 48.4731 41.7404 48.3773 41.7712C47.8953 41.9209 47.4234 42.1189 46.9465 42.3042C46.9232 42.3125 46.8995 42.3193 46.8754 42.3245C46.7968 42.3474 46.6446 42.2052 46.6217 42.1646C46.6451 41.9315 46.7077 41.7041 46.8069 41.4919C46.8665 41.4512 46.9283 41.4139 46.9921 41.3802C47.1872 41.3015 47.3648 41.1851 47.5147 41.0375C47.6052 40.9545 47.7138 40.8936 47.8318 40.8598C48.8136 40.5349 49.7878 40.1414 50.8127 39.8851C51.2465 39.781 51.6829 39.6566 52.1268 39.5779C53.2477 39.3589 54.3938 39.2991 55.5314 39.4002C56.6603 39.5017 57.7486 39.7251 58.8141 39.9079C59.1896 39.9764 59.56 40.045 59.9278 40.1211C60.2695 40.1907 60.6152 40.239 60.9629 40.2658C61.2597 40.2912 61.554 40.3014 61.8483 40.2988C62.1332 40.3017 62.418 40.2847 62.7007 40.2481C63.0499 40.2123 63.3835 40.0844 63.6672 39.8774C63.9183 39.6617 64.0891 39.3674 64.1518 39.0423C64.2175 38.7244 64.2405 38.3991 64.2203 38.0751C64.213 37.7487 64.1645 37.4246 64.0757 37.1105C63.984 36.8212 63.8316 36.5548 63.6285 36.3293C63.4255 36.1038 63.1766 35.9244 62.8985 35.8031C62.8592 35.782 62.8185 35.7633 62.7768 35.7473C62.5083 35.6592 62.2347 35.588 61.9573 35.5341C61.5864 35.4636 61.2108 35.4203 60.8335 35.4046C60.0724 35.3894 59.3469 35.4046 59.2631 35.4275C58.8775 35.4605 58.5021 35.4884 58.1114 35.5544C57.9186 35.5823 57.7283 35.6051 57.538 35.6381L56.9698 35.7498C56.2158 35.9103 55.4713 36.1129 54.7398 36.3565C54.4227 36.4708 54.1082 36.5901 53.7936 36.7119L52.8752 37.1333C52.7864 37.179 52.7002 37.2298 52.6215 37.2729C51.6372 37.7439 50.7024 38.3119 49.8309 38.9687C49.0655 39.5396 48.3523 40.1776 47.6999 40.8751C47.6201 40.9609 47.5267 41.0329 47.4234 41.0883C47.3295 41.134 47.2407 41.2279 47.1519 41.2812C47.0632 41.3345 46.987 41.3472 46.8983 41.4081C46.8095 41.4691 46.7232 41.5732 46.6319 41.662C46.5406 41.7508 46.4594 41.7508 46.4315 41.6899C46.4036 41.629 46.2539 41.464 46.2285 41.4031Z" fill="#3E3127"/>
<path d="M84.498 43.0477C81.2583 39.24 76.0044 36.9401 70.7023 37.034C69.2765 37.0619 67.6326 37.3818 66.9578 38.5571C66.7339 38.9808 66.6131 39.4513 66.6052 39.9304C66.5671 40.6082 66.661 41.352 67.1836 41.8242C67.6554 42.2506 68.3658 42.3522 69.033 42.3674C71.5496 42.4283 74.0129 41.5373 76.5321 41.5018C79.2466 41.4612 81.8317 42.4131 84.3331 43.3473" fill="#E8AF94"/>
<path d="M84.7482 41.5851C81.4121 37.3153 76.7493 34.7311 71.333 34.8022C69.8768 34.82 68.1999 35.1627 67.5276 36.4522C67.3013 36.9283 67.1818 37.4482 67.1776 37.9753C67.1446 38.7369 67.2435 39.5543 67.7813 40.0823C68.2659 40.5595 68.994 40.6788 69.6739 40.7017C72.2463 40.788 74.7477 39.8157 77.3303 39.7954C80.1006 39.7751 81.5618 40.887 84.1241 41.9455" fill="#D59254"/>
<path d="M84.7725 41.582L84.6101 41.9044C82.0453 40.8459 79.3993 39.767 76.629 39.7924C74.0541 39.8102 71.5552 40.7799 68.9726 40.6961C68.2927 40.6733 67.5646 40.5539 67.0801 40.0742C66.5955 39.5944 66.4586 38.8227 66.4738 38.1094C67.2044 38.6475 68.1989 39.1959 69.1198 39.1933C70.3584 39.2185 71.5956 39.0975 72.8059 38.8328C75.577 38.1673 78.4628 38.1395 81.2462 38.7516C83.1286 39.8635 83.433 39.8584 84.7725 41.582Z" fill="#B55C4E"/>
<path d="M84.6247 41.7552C84.342 41.571 84.0903 41.343 83.8789 41.0799C83.7267 40.9149 83.5592 40.7652 83.4019 40.6078C83.2446 40.4504 83.1482 40.3717 83.0214 40.2498C82.8413 40.0721 82.6662 39.8945 82.4734 39.7421C82.2806 39.5898 82.0802 39.435 81.8823 39.2878C81.7935 39.2141 81.6515 39.1151 81.4739 38.9857C81.2963 38.8562 81.0933 38.6963 80.8523 38.5338C80.6113 38.3714 80.345 38.1911 80.0684 38.0261C79.7919 37.8611 79.4926 37.6733 79.1957 37.5184C78.8989 37.3636 78.5996 37.196 78.3154 37.059L77.5163 36.6934C77.0267 36.5005 76.6715 36.3533 76.5574 36.3152L75.8293 36.074C75.5324 35.975 75.1849 35.8963 74.8551 35.8049C74.3648 35.6801 73.8664 35.5902 73.3634 35.5359C73.2645 35.5359 73.0818 35.5079 72.856 35.4775C72.6302 35.447 72.3486 35.4369 72.0696 35.4115C71.7905 35.3861 71.5064 35.3835 71.2628 35.3785C71.0193 35.3734 70.8087 35.3785 70.6895 35.3785L70.1111 35.4165C69.3395 35.4705 68.5998 35.7455 67.9801 36.2086C67.6425 36.4667 67.4042 36.8334 67.3053 37.2468C67.2773 37.3509 67.2647 37.4575 67.2418 37.5667C67.1158 38.1569 67.1482 38.77 67.3357 39.3436C67.4212 39.5697 67.5723 39.765 67.7695 39.9046C67.9958 40.0477 68.2486 40.1435 68.5128 40.1864C68.7636 40.2358 69.0183 40.2621 69.2739 40.2651C69.4429 40.2739 69.6123 40.2739 69.7813 40.2651C70.7098 40.1991 71.6484 40.0823 72.6049 39.9376C72.7319 39.9231 72.858 39.9019 72.9829 39.8741C73.6911 39.7128 74.4076 39.5899 75.1291 39.5061C75.3625 39.4705 75.6009 39.4553 75.8394 39.435L76.4001 39.4096C77.23 39.3657 78.0622 39.4151 78.8812 39.5568L79.0385 39.5822C79.8981 39.7093 80.739 39.9412 81.5424 40.2727C82.022 40.4674 82.5114 40.6369 83.0087 40.7804C83.1082 40.8074 83.2057 40.8413 83.3005 40.8819C83.7647 41.1028 84.2467 41.2932 84.7161 41.4988C84.738 41.5091 84.7592 41.521 84.7795 41.5343C84.853 41.5724 84.8607 41.7882 84.8429 41.8212C84.6625 41.97 84.4584 42.0876 84.2391 42.1689C84.1687 42.1568 84.0992 42.1399 84.0311 42.1182C83.8381 42.0387 83.6309 41.9999 83.4222 42.0039C83.3012 42.001 83.1823 41.9706 83.0747 41.9151C82.1531 41.511 81.2046 41.1717 80.2359 40.8997C79.8291 40.7853 79.4168 40.6921 79.0004 40.6205C77.9741 40.4188 76.9244 40.3632 75.8825 40.4555C74.8323 40.5494 73.7769 40.7626 72.6937 40.9632C72.3131 41.0317 71.9326 41.0901 71.5343 41.1282C71.136 41.1662 70.8037 41.1992 70.4333 41.2272C70.1162 41.2526 69.7965 41.2703 69.4743 41.2729C69.1437 41.282 68.8129 41.2651 68.4849 41.2221C67.961 41.1637 67.4628 40.9636 67.044 40.6433C66.6305 40.2842 66.3507 39.7957 66.2499 39.2573C66.1673 38.8568 66.1392 38.4469 66.1662 38.0388C66.1786 37.6328 66.2434 37.23 66.359 36.8406C66.488 36.4229 66.7091 36.0395 67.0059 35.7186C67.2954 35.4121 67.6395 35.1624 68.0207 34.9825L68.178 34.9088C68.487 34.7529 68.8142 34.6361 69.1521 34.5611C69.575 34.4667 70.0054 34.4098 70.4383 34.391C71.001 34.3726 71.5642 34.3853 72.1254 34.4291C72.5338 34.457 72.9423 34.4824 73.3482 34.5458C73.5511 34.5738 73.7541 34.5966 73.957 34.6321L74.5583 34.7515C75.3599 34.9111 76.1491 35.1274 76.9201 35.3988L77.9146 35.7846L78.8913 36.2136C78.9852 36.2619 79.0841 36.305 79.1754 36.3558C80.1956 36.8938 81.1675 37.5189 82.0802 38.2241C82.8752 38.8392 83.6184 39.5184 84.3025 40.2549C84.388 40.3425 84.4583 40.4437 84.5106 40.5545C84.5588 40.6484 84.6298 40.7652 84.6704 40.8642C84.711 40.9632 84.711 41.0444 84.7566 41.1409C84.8023 41.2373 84.8911 41.349 84.9545 41.4556C85.0179 41.5622 85.0103 41.6384 84.9418 41.6536C84.8733 41.6689 84.7008 41.745 84.6247 41.7552Z" fill="#3E3127"/>
<path d="M50.1563 73.107C48.4147 71.2904 47.043 69.1522 46.1175 66.8115C46.082 66.7252 46.0998 66.4586 46.2317 66.4104C46.3636 66.3622 46.5564 66.5424 46.5894 66.6262C47.1582 68.1641 47.9258 69.6209 48.8726 70.9594C49.1466 71.3605 49.4307 71.7514 49.7352 72.1296C49.7631 72.1652 49.9635 72.3835 50.1487 72.584C50.3339 72.7846 50.5013 73.0003 50.4506 73.0486C50.3542 73.1577 50.2197 73.173 50.1563 73.107Z" fill="#FAC69A"/>
<path d="M54.0048 75.0088C52.2363 74.0036 50.7246 72.6021 49.5881 70.9142C49.5673 70.8867 49.5524 70.8551 49.5443 70.8216C49.5361 70.788 49.5349 70.7532 49.5407 70.7192C49.5465 70.6851 49.5591 70.6526 49.5779 70.6236C49.5966 70.5947 49.6211 70.5698 49.6498 70.5506C49.6785 70.5315 49.7108 70.5183 49.7447 70.512C49.7786 70.5058 49.8134 70.5065 49.8471 70.5141C49.8807 70.5218 49.9125 70.5362 49.9403 70.5566C49.9682 70.5769 49.9916 70.6028 50.0092 70.6325C50.7126 71.7381 51.583 72.728 52.5892 73.567C52.881 73.8208 53.1803 74.0747 53.4974 74.293C53.5279 74.3133 53.7283 74.4275 53.916 74.5468C54.1038 74.6661 54.2788 74.8007 54.2458 74.8515C54.1875 74.9758 54.0809 75.0469 54.0048 75.0088Z" fill="#FAC69A"/>
<path d="M78.5478 66.9768L77.4671 65.2531C77.4519 65.2328 77.5153 65.1161 77.632 65.0424C77.7487 64.9688 77.8857 64.9612 77.8857 64.9841L78.5199 66.1924L78.6873 66.5605C78.7 66.5833 78.8954 66.8143 78.7761 66.8803C78.6569 66.9463 78.5605 66.9996 78.5478 66.9768Z" fill="#3E3127"/>
<path d="M78.1281 64.6896L77.9429 67.2104C77.9429 67.2434 77.8212 67.3144 77.6892 67.3043C77.5573 67.2941 77.4355 67.2053 77.4355 67.1748L77.6639 65.4943L77.7577 65.0019C77.7577 64.9714 77.74 64.6033 77.8795 64.6135C78.019 64.6236 78.1307 64.6566 78.1281 64.6896Z" fill="#3E3127"/>
<path d="M74.2998 78.6487L73.2165 76.925C73.2038 76.9047 73.2647 76.7879 73.3839 76.7143C73.5032 76.6407 73.6376 76.6331 73.6376 76.6559L74.2718 77.8643L74.4367 78.2323C74.452 78.2527 74.6448 78.4862 74.5281 78.5522C74.4114 78.6182 74.3175 78.6715 74.2998 78.6487Z" fill="#3E3127"/>
<path d="M73.8865 76.3629L73.6988 78.8861C73.6988 78.9166 73.577 78.9902 73.4451 78.9801C73.3132 78.9699 73.1914 78.8785 73.1914 78.8481L73.4197 77.1701L73.5111 76.6777C73.5111 76.6472 73.4958 76.2791 73.6354 76.2893C73.7749 76.2994 73.8891 76.3324 73.8865 76.3629Z" fill="#3E3127"/>
<path d="M47.1554 63.0211L47.3914 60.9903C47.3914 60.9649 47.5157 60.9116 47.6451 60.9293C47.7744 60.9471 47.8988 61.0233 47.8988 61.0486L47.6451 62.389L47.5436 62.7799C47.5436 62.8053 47.5436 63.1023 47.4117 63.0871C47.2798 63.0718 47.1402 63.0464 47.1554 63.0211Z" fill="#3E3127"/>
<path d="M48.248 60.9745L46.5255 62.8251C46.5052 62.8479 46.3657 62.8251 46.2718 62.7337C46.1779 62.6423 46.1399 62.5001 46.1627 62.4798L47.3906 61.3121L47.7711 60.9872C47.7914 60.9643 48.007 60.6648 48.1085 60.7613C48.21 60.8577 48.2709 60.9517 48.248 60.9745Z" fill="#3E3127"/>
<path d="M56.0663 76.2622C56.2862 76.2622 56.4646 76.0077 56.4646 75.6936C56.4646 75.3796 56.2862 75.125 56.0663 75.125C55.8463 75.125 55.668 75.3796 55.668 75.6936C55.668 76.0077 55.8463 76.2622 56.0663 76.2622Z" fill="white"/>
<path d="M59.0881 78.7393C59.3277 78.7393 59.5219 78.5449 59.5219 78.3052C59.5219 78.0654 59.3277 77.8711 59.0881 77.8711C58.8485 77.8711 58.6543 78.0654 58.6543 78.3052C58.6543 78.5449 58.8485 78.7393 59.0881 78.7393Z" fill="white"/>
<path d="M54.875 78.9984C55.0284 78.5827 55.3406 78.245 55.7428 78.0595C56.1451 77.8741 56.6045 77.8562 57.02 78.0097C57.4354 78.1632 57.7729 78.4756 57.9583 78.8781C58.1436 79.2806 58.1615 79.7403 58.0081 80.156" fill="white"/>
<path d="M48.3201 58.8672C48.3976 58.8758 48.4704 58.9087 48.5281 58.9611C48.5661 58.9916 48.6118 59.017 48.6524 59.0449C48.6861 59.0645 48.7183 59.0866 48.7488 59.1109C48.8329 59.1833 48.9229 59.2487 49.0177 59.3063C49.1902 59.4206 50.0173 60.0679 50.101 60.1364C50.2304 60.2329 50.6084 60.5274 50.6971 60.5604C50.7859 60.5934 51.0954 60.8396 51.2045 60.8878C51.2436 60.9085 51.2809 60.9323 51.3162 60.9589C51.4684 61.0706 51.6536 61.129 51.8083 61.2331C51.9047 61.2965 52.0062 61.3549 52.1051 61.4108C52.1305 61.426 52.1559 61.4361 52.1787 61.4514C52.4324 61.6164 52.7013 61.7357 52.9626 61.8753L53.1224 61.9565C53.1554 61.9743 53.1909 61.9946 53.2264 62.0098C53.4192 62.0885 53.607 62.1748 53.7922 62.2637C53.8164 62.2773 53.8419 62.2883 53.8683 62.2967C54.0146 62.3407 54.1586 62.3924 54.2996 62.4515L54.4391 62.4998C54.4746 62.4998 54.5101 62.5277 54.5482 62.5379C54.7131 62.5759 54.8704 62.6394 55.0378 62.6724H55.0682C55.2449 62.7071 55.4194 62.752 55.5908 62.8069C55.6939 62.8419 55.8017 62.8607 55.9105 62.8628C55.9316 62.8603 55.9529 62.8603 55.9739 62.8628C56.0682 62.8878 56.1658 62.8972 56.2631 62.8907H56.2758C56.291 62.8907 56.3164 62.9669 56.3215 62.9821C56.3137 63.0635 56.2886 63.1422 56.2479 63.2131C56.2317 63.2197 56.2146 63.224 56.1972 63.2258C56.1438 63.2282 56.0917 63.243 56.045 63.2689C56.031 63.2753 56.0159 63.2786 56.0006 63.2786C55.9852 63.2786 55.9701 63.2753 55.9562 63.2689C55.7253 63.2156 55.5071 63.1826 55.2813 63.1319L54.9997 63.0633C54.5295 62.9461 54.0682 62.7951 53.6197 62.6115C53.541 62.5785 53.4649 62.5429 53.3888 62.5023C53.3127 62.4617 53.2467 62.4312 53.1757 62.3982L52.8053 62.2282C52.6303 62.1469 52.4654 62.0505 52.2979 61.9616C52.0163 61.8042 51.7373 61.6443 51.4658 61.4717L51.4379 61.4539C51.1919 61.3254 50.9554 61.1795 50.7301 61.0173C50.5855 60.9208 50.4409 60.8244 50.2989 60.7228C50.1568 60.6213 50.0122 60.5248 49.8752 60.4207C49.7382 60.3167 49.6215 60.2405 49.5099 60.1491C49.4921 60.1364 49.4718 60.1263 49.4541 60.111L48.3809 59.2556C48.3587 59.2389 48.3419 59.2159 48.3328 59.1896C48.3328 59.1667 48.3048 59.1439 48.2947 59.121C48.2912 59.0968 48.2852 59.073 48.2769 59.05C48.2625 59.0276 48.2464 59.0064 48.2287 58.9865C48.2244 58.9825 48.2209 58.9775 48.2185 58.9721C48.2161 58.9666 48.2148 58.9607 48.2148 58.9548C48.2148 58.9488 48.2161 58.9429 48.2185 58.9374C48.2209 58.932 48.2244 58.9271 48.2287 58.923C48.244 58.9459 48.3023 58.8799 48.3201 58.8672Z" fill="white"/>
<path opacity="0.5" d="M50.6125 59.3979C50.6349 59.3909 50.6585 59.389 50.6817 59.392C50.7049 59.3951 50.7272 59.4031 50.747 59.4156C50.7717 59.4305 50.7981 59.4424 50.8256 59.4512C50.8463 59.4587 50.8659 59.469 50.884 59.4816C50.9357 59.517 50.9921 59.5452 51.0514 59.5654C51.163 59.6086 51.6603 59.9411 51.7085 59.9741C51.7567 60.0071 52.018 60.1721 52.0636 60.1873C52.1093 60.2026 52.2996 60.3269 52.3605 60.3498C52.383 60.36 52.4043 60.3728 52.4239 60.3879C52.5127 60.4488 52.6268 60.4615 52.7156 60.5199C52.8044 60.5783 52.8298 60.5859 52.8856 60.6189L52.9262 60.6417C53.0657 60.7382 53.223 60.8016 53.3676 60.8956L53.4564 60.9489C53.4753 60.96 53.4948 60.9702 53.5148 60.9793C53.6231 61.026 53.7268 61.0829 53.8243 61.1494C53.8363 61.1594 53.8501 61.1672 53.8649 61.1723C53.9458 61.2035 54.0246 61.2399 54.1008 61.2814C54.1261 61.2926 54.1506 61.3053 54.1744 61.3195C54.1933 61.3306 54.2127 61.3408 54.2327 61.35C54.324 61.3804 54.4103 61.4287 54.4991 61.4642H54.5168C54.6148 61.494 54.7073 61.5394 54.7908 61.5987C54.8414 61.6358 54.901 61.6586 54.9633 61.6647C54.975 61.6622 54.9871 61.6622 54.9988 61.6647C55.0524 61.6956 55.1084 61.7219 55.1663 61.7434C55.1677 61.7761 55.1634 61.8087 55.1536 61.8399C55.116 61.9058 55.0745 61.9694 55.0293 62.0303C55.0193 62.0328 55.0088 62.0328 54.9988 62.0303C54.9835 62.0271 54.9676 62.0272 54.9522 62.0307C54.9369 62.0342 54.9225 62.041 54.9101 62.0506C54.9029 62.0554 54.8945 62.058 54.886 62.058C54.8774 62.058 54.869 62.0554 54.8619 62.0506C54.7502 61.982 54.6259 61.949 54.5118 61.8932C54.4636 61.8678 54.4103 61.8526 54.3595 61.8297C54.1059 61.7231 53.8648 61.6064 53.6213 61.487C53.5787 61.465 53.538 61.4395 53.4995 61.4109C53.4633 61.3851 53.4252 61.3622 53.3854 61.3423L53.1824 61.2383L52.8983 61.0834L52.429 60.8143C52.429 60.8143 52.429 60.8143 52.4137 60.8143C52.2691 60.7542 52.1306 60.6803 52.0002 60.5935C51.9165 60.5453 51.8302 60.4996 51.7465 60.4488C51.6628 60.398 51.5766 60.3523 51.4928 60.299C51.4091 60.2457 51.3482 60.2102 51.2747 60.167L51.2417 60.1493C51.1275 60.068 50.6506 59.7685 50.5897 59.7329C50.5826 59.7286 50.5766 59.7227 50.5722 59.7156C50.5678 59.7086 50.5651 59.7006 50.5643 59.6923C50.5573 59.6767 50.5514 59.6606 50.5466 59.6441C50.5466 59.6263 50.5466 59.606 50.5466 59.5882C50.5466 59.5705 50.5263 59.5629 50.5187 59.5502C50.5129 59.542 50.5098 59.5323 50.5098 59.5222C50.5098 59.5122 50.5129 59.5025 50.5187 59.4943L50.6125 59.3979Z" fill="white"/>
<path d="M45.7767 30.75C44.8569 31.9293 44.2128 33.2998 43.8918 34.7608C43.8625 34.8108 43.8193 34.8511 43.7675 34.8768C43.7157 34.9025 43.6575 34.9125 43.6 34.9055C43.5438 34.8895 43.494 34.8565 43.4572 34.8111C43.4204 34.7656 43.3985 34.71 43.3945 34.6517C43.6569 33.639 44.0691 32.6713 44.6173 31.7806C44.7848 31.5268 44.9598 31.2729 45.1475 31.0368C45.1729 30.9861 45.5408 30.4225 45.6549 30.5139C45.7691 30.6053 45.8097 30.7068 45.7767 30.75Z" fill="#FAC69A"/>
<path d="M76.2118 59.4948C80.4516 59.4948 83.8885 56.2045 83.8885 52.1458C83.8885 48.0871 80.4516 44.7969 76.2118 44.7969C71.9721 44.7969 68.5352 48.0871 68.5352 52.1458C68.5352 56.2045 71.9721 59.4948 76.2118 59.4948Z" fill="#E8AF94"/>
<path d="M76.2294 57.9372C80.4691 57.9372 83.9061 54.4981 83.9061 50.2557C83.9061 46.0133 80.4691 42.5742 76.2294 42.5742C71.9897 42.5742 68.5527 46.0133 68.5527 50.2557C68.5527 54.4981 71.9897 57.9372 76.2294 57.9372Z" fill="white"/>
<path d="M78.0363 47.611C78.0363 46.7277 77.3208 46.0117 76.4381 46.0117C75.5554 46.0117 74.8398 46.7277 74.8398 47.611V52.4062C74.8398 53.2894 75.5554 54.0054 76.4381 54.0054C77.3208 54.0054 78.0363 53.2894 78.0363 52.4062V47.611Z" fill="#3E3127"/>
<path d="M77.9153 50.1099C78.7434 50.1099 79.4146 49.4382 79.4146 48.6096C79.4146 47.7811 78.7434 47.1094 77.9153 47.1094C77.0873 47.1094 76.416 47.7811 76.416 48.6096C76.416 49.4382 77.0873 50.1099 77.9153 50.1099Z" fill="white"/>
<path d="M83.904 50.4221C83.9226 51.4428 83.7377 52.4569 83.3602 53.4053C82.9826 54.3536 82.42 55.2172 81.7052 55.9456C80.9904 56.674 80.1378 57.2525 79.197 57.6474C78.2563 58.0424 77.2463 58.2458 76.2261 58.2458C75.2059 58.2458 74.1959 58.0424 73.2552 57.6474C72.3144 57.2525 71.4618 56.674 70.7469 55.9456C70.0321 55.2172 69.4695 54.3536 69.092 53.4053C68.7145 52.4569 68.5296 51.4428 68.5481 50.4221C68.5472 50.1898 68.5591 49.9576 68.5837 49.7266C68.7608 51.6325 69.6427 53.4035 71.0565 54.6928C72.4704 55.9821 74.3144 56.6968 76.2274 56.6968C78.1403 56.6968 79.9843 55.9821 81.3982 54.6928C82.8121 53.4035 83.6939 51.6325 83.8711 49.7266C83.8939 49.955 83.904 50.1886 83.904 50.4221Z" fill="#C2D9DD"/>
<path d="M69.1663 50.9219C69.2756 52.7019 70.0445 54.3771 71.3226 55.6199C72.6008 56.8628 74.2962 57.5839 76.0775 57.6423C77.8588 57.7007 79.5978 57.0921 80.9545 55.9357C82.3112 54.7792 83.188 53.158 83.4135 51.389C83.4317 51.3027 83.4563 51.2178 83.4871 51.1351C83.5191 51.0292 83.5607 50.9264 83.6114 50.828C83.7129 50.6274 83.8499 50.4497 83.9894 50.4472C84.1289 50.4447 84.2431 50.6325 84.3268 50.8635C84.3664 50.9803 84.397 51.1 84.4182 51.2214C84.4325 51.3191 84.4325 51.4183 84.4182 51.5159C84.2274 52.8447 83.7104 54.1055 82.9135 55.1855C82.1166 56.2655 81.0647 57.1311 79.8517 57.7048C79.6995 57.7708 79.5524 57.8469 79.4002 57.9078L78.9308 58.0728L78.6949 58.1566L78.4539 58.215L77.9719 58.3318C77.812 58.3648 77.6472 58.38 77.4823 58.4054C77.3202 58.4329 77.1567 58.4515 76.9926 58.4612C76.6631 58.4815 76.3327 58.4815 76.0032 58.4612C74.6854 58.4024 73.4037 58.0121 72.2765 57.3265C70.9654 56.5165 69.9189 55.3415 69.2652 53.9453C68.9648 53.377 68.7453 52.7695 68.6132 52.1404C68.4356 51.2798 68.4914 50.437 68.6132 50.4421C68.7495 50.435 68.8833 50.481 68.9864 50.5705C69.0895 50.6599 69.154 50.7859 69.1663 50.9219Z" fill="#3E3127"/>
<path d="M56.5936 59.2201C60.8824 59.2201 64.3591 55.8856 64.3591 51.7722C64.3591 47.6588 60.8824 44.3242 56.5936 44.3242C52.3049 44.3242 48.8281 47.6588 48.8281 51.7722C48.8281 55.8856 52.3049 59.2201 56.5936 59.2201Z" fill="#E8AF94"/>
<path d="M56.5741 57.6149C60.8628 57.6149 64.3395 54.136 64.3395 49.8446C64.3395 45.5531 60.8628 42.0742 56.5741 42.0742C52.2853 42.0742 48.8086 45.5531 48.8086 49.8446C48.8086 54.136 52.2853 57.6149 56.5741 57.6149Z" fill="white"/>
<path d="M48.8086 50.0182C48.8086 52.079 49.6267 54.0554 51.0831 55.5127C52.5394 56.9699 54.5145 57.7885 56.5741 57.7885C58.6336 57.7885 60.6088 56.9699 62.0651 55.5127C63.5214 54.0554 64.3395 52.079 64.3395 50.0182C64.3395 49.7796 64.3395 49.5435 64.3066 49.3125C64.1316 51.2433 63.2414 53.0389 61.8109 54.3464C60.3803 55.6539 58.5129 56.3789 56.5753 56.3789C54.6378 56.3789 52.7703 55.6539 51.3398 54.3464C49.9093 53.0389 49.0191 51.2433 48.8441 49.3125C48.8213 49.5537 48.8086 49.7796 48.8086 50.0182Z" fill="#C2D9DD"/>
<path d="M64.4825 50.5837C64.3646 52.3716 63.6699 54.073 62.5029 55.432C61.3359 56.7911 59.7595 57.7344 58.0108 58.1202C56.2621 58.506 54.4355 58.3134 52.8055 57.5714C51.1755 56.8295 49.8302 55.5781 48.9719 54.0056C48.4845 53.1118 48.1687 52.1345 48.0408 51.1244C48.0255 51.026 48.0255 50.9258 48.0408 50.8274C48.0617 50.7042 48.0922 50.5828 48.1322 50.4644C48.2108 50.2308 48.33 50.043 48.4696 50.043C48.6091 50.043 48.7461 50.2257 48.8476 50.4288C48.8972 50.5285 48.9388 50.6321 48.9719 50.7385C49.0026 50.8212 49.0271 50.9061 49.0454 50.9924C49.1851 52.1894 49.6184 53.3332 50.3067 54.3222C50.9949 55.3111 51.9168 56.1145 52.9903 56.6608C53.1273 56.7268 53.2592 56.8004 53.3988 56.8614L53.8224 57.0238L54.033 57.1051L54.2537 57.1635L54.6901 57.2828C54.8397 57.3183 54.9894 57.3361 55.1391 57.3615C55.2872 57.3927 55.4372 57.4139 55.5881 57.4249C55.8907 57.4553 56.1949 57.4655 56.4989 57.4554C57.8425 57.4203 59.1526 57.0288 60.2955 56.321C61.4383 55.6132 62.3728 54.6144 63.0035 53.4268C63.2695 52.8695 63.4737 52.2847 63.6124 51.6828C63.8026 50.8654 63.8432 50.0531 63.9904 50.0506C64.0585 50.0504 64.1261 50.0643 64.1886 50.0916C64.2511 50.1188 64.3073 50.1588 64.3535 50.2089C64.3998 50.259 64.4352 50.3182 64.4574 50.3827C64.4796 50.4472 64.4881 50.5157 64.4825 50.5837Z" fill="#3E3127"/>
<path d="M65.2163 68.2725H63.816C63.6814 68.2725 63.5524 68.219 63.4572 68.1238C63.362 68.0286 63.3086 67.8994 63.3086 67.7648C63.3086 67.6301 63.362 67.501 63.4572 67.4058C63.5524 67.3106 63.6814 67.2571 63.816 67.2571H65.2163C67.1765 67.2592 69.0904 66.6613 70.7011 65.5436C70.7559 65.5056 70.8177 65.4788 70.8829 65.4646C70.948 65.4505 71.0153 65.4494 71.0809 65.4613C71.1465 65.4732 71.2092 65.4979 71.2652 65.534C71.3213 65.5701 71.3697 65.617 71.4077 65.6718C71.4456 65.7266 71.4725 65.7884 71.4866 65.8536C71.5007 65.9188 71.5018 65.9862 71.4899 66.0518C71.478 66.1175 71.4533 66.1801 71.4172 66.2362C71.3811 66.2923 71.3344 66.3408 71.2796 66.3788C69.499 67.6145 67.3832 68.2753 65.2163 68.2725Z" fill="#3E3127"/>
<path opacity="0.8" d="M49.9471 61.9542C50.1066 61.993 50.2528 62.0736 50.3708 62.1877C50.4494 62.2588 50.5382 62.3172 50.6245 62.3807C50.6927 62.4254 50.758 62.4746 50.8198 62.5279C50.9957 62.6842 51.186 62.8236 51.3881 62.9442C51.5707 63.0559 52.1009 63.4519 52.6413 63.7794C53.0238 64.0156 53.4194 64.23 53.826 64.4216C53.9783 64.4927 54.2878 64.6298 54.5871 64.7338C54.8056 64.8175 55.0304 64.8837 55.2594 64.9318C55.662 65.0285 56.0693 65.1048 56.4796 65.1603C56.5684 65.1603 56.6572 65.1755 56.7333 65.1832C57.0599 65.2086 57.3867 65.1361 57.672 64.975C57.8353 64.886 57.9739 64.7578 58.0754 64.6018L58.1515 64.4775C58.4635 64.0231 58.5701 63.3453 58.9455 62.7005C59.0242 62.5761 59.1003 62.4467 59.1992 62.34L59.3641 62.1192C59.6518 61.7181 60.0114 61.3738 60.4245 61.1038C60.4778 61.0657 60.5387 61.0353 60.5844 60.9946C60.8679 60.7757 61.1815 60.5987 61.5154 60.4692C61.6226 60.4187 61.7338 60.3771 61.8477 60.3448C61.934 60.3143 62.0279 60.2991 62.1014 60.2686C62.4642 60.1468 62.8118 60.0706 63.1745 59.9615L63.2456 59.9437C63.6267 59.8102 64.023 59.7249 64.4252 59.6898C64.6731 59.6683 64.9185 59.6241 65.1584 59.5578C65.2061 59.543 65.2556 59.5345 65.3055 59.5325C65.5592 59.5325 65.8129 59.5122 66.0666 59.5325C66.0793 59.5325 66.0894 59.5325 66.1021 59.5325C66.1148 59.5325 66.1833 59.6924 66.1808 59.7254C66.1276 59.8789 66.0596 60.0268 65.9778 60.1671C65.9474 60.1671 65.9169 60.1899 65.884 60.195C65.7887 60.2002 65.6985 60.2399 65.6303 60.3067C65.5873 60.3412 65.533 60.3584 65.4781 60.3549C65.0196 60.3813 64.5649 60.4536 64.1208 60.5707C63.9255 60.6113 63.7327 60.6748 63.5373 60.7281L62.7991 60.9312L62.4262 61.0302C62.3095 61.0657 62.2029 61.0886 62.0938 61.1317C61.6546 61.2895 61.2435 61.5166 60.8761 61.8044L60.4829 62.109C60.359 62.2038 60.2458 62.3119 60.1455 62.4314C59.9725 62.6314 59.8187 62.8473 59.6863 63.0762C59.4998 63.4162 59.342 63.7711 59.2144 64.1373C59.0897 64.4914 58.9191 64.8277 58.707 65.1375C58.4556 65.4807 58.0994 65.7328 57.6923 65.8559L57.6086 65.8812C57.4451 65.9395 57.2743 65.9745 57.1012 65.9853C56.8906 65.9993 56.6792 65.9942 56.4695 65.9701C56.2051 65.9393 55.9426 65.8944 55.683 65.8356C55.3017 65.766 54.9254 65.671 54.5567 65.5512C54.1888 65.4376 53.8286 65.3003 53.4785 65.14C53.1766 64.9928 52.8696 64.8557 52.5753 64.6958L52.4434 64.6247C52.2126 64.4825 51.624 64.117 51.1039 63.7184C50.5839 63.3199 50.112 62.9214 50.0131 62.8325C49.9677 62.795 49.9335 62.7459 49.9141 62.6904C49.8964 62.6421 49.8558 62.5914 49.838 62.5406C49.8297 62.4901 49.8187 62.4401 49.805 62.3908C49.7753 62.3405 49.7422 62.2921 49.7061 62.2461C49.6981 62.2369 49.6921 62.226 49.6888 62.2142C49.6854 62.2024 49.6847 62.19 49.6866 62.1779C49.6885 62.1658 49.6931 62.1543 49.7 62.1441C49.7069 62.134 49.7159 62.1255 49.7264 62.1192C49.7746 62.0862 49.8989 61.9923 49.9471 61.9542Z" fill="#B55C4E"/>
<path opacity="0.5" d="M48.228 63.5116L51.4423 65.1388C51.476 65.1803 51.4969 65.2308 51.5023 65.284C51.5077 65.3372 51.4974 65.3909 51.4727 65.4383C51.4503 65.4862 51.4143 65.5265 51.3692 65.554C51.3241 65.5815 51.2718 65.5952 51.219 65.5932L49.1134 64.4128L48.5045 64.0193C48.464 63.999 47.9794 63.8035 48.0428 63.6792C48.1062 63.5548 48.19 63.4786 48.228 63.5116Z" fill="#B55C4E"/>
<path opacity="0.5" d="M68.5207 62.1902C67.0073 62.0822 65.4869 62.1256 63.9822 62.3197C63.9251 62.3097 63.8724 62.2829 63.8308 62.2426C63.7892 62.2023 63.7606 62.1505 63.7488 62.0937C63.7446 62.0353 63.7587 61.977 63.7891 61.9269C63.8196 61.8769 63.8649 61.8376 63.9187 61.8145C64.9482 61.7173 65.983 61.6885 67.0163 61.7282C67.3207 61.7485 67.6226 61.7739 67.9245 61.8069C67.9803 61.8069 68.6501 61.8069 68.6399 61.944C68.6298 62.0811 68.574 62.1953 68.5207 62.1902Z" fill="#B55C4E"/>
<path d="M46.7973 15.0286C50.8814 14.6282 54.865 13.522 58.5711 11.759C58.7081 11.6956 59.114 11.627 59.1749 11.759C59.2358 11.891 58.9212 12.1601 58.7893 12.2261C56.2664 13.3842 53.618 14.2462 50.897 14.7951C50.0979 14.9474 49.2911 15.0794 48.4844 15.1733C48.4083 15.1733 47.9288 15.2621 47.4696 15.3129C47.0104 15.3637 46.5563 15.3764 46.5513 15.3129C46.547 15.2428 46.5704 15.1737 46.6164 15.1206C46.6624 15.0675 46.7273 15.0344 46.7973 15.0286Z" fill="#3E3127"/>
<path d="M79.121 24.5139C73.0976 26.185 66.8438 26.8707 60.6016 26.5447C60.3707 26.532 59.7771 26.3873 59.7872 26.2451C59.7974 26.103 60.4012 26.0268 60.627 26.0395C64.7621 26.2895 68.9121 26.0912 73.0045 25.4481C74.2096 25.2653 75.412 25.0546 76.6044 24.7931C76.7186 24.7728 77.4238 24.59 78.1037 24.4225C78.7836 24.255 79.4356 24.09 79.4559 24.1687C79.4889 24.2956 79.3392 24.4555 79.121 24.5139Z" fill="#3E3127"/>
<path d="M76.4871 23.9264C72.0874 25.141 67.5205 25.6365 62.9629 25.3937C62.7954 25.3937 62.3616 25.2744 62.3692 25.1728C62.3769 25.0713 62.8183 25.0129 62.9832 25.0231C66.0008 25.2098 69.0297 25.0693 72.0171 24.6042C72.8974 24.4722 73.7752 24.3199 74.6479 24.1295C74.7291 24.1143 75.244 23.9797 75.7413 23.8604C76.2385 23.7411 76.7129 23.6066 76.7281 23.6675C76.7586 23.7665 76.6495 23.8833 76.4871 23.9264Z" fill="#3E3127"/>
<path d="M54.7918 52.4086C54.7918 53.2918 55.5073 54.0078 56.39 54.0078C57.2727 54.0078 57.9883 53.2918 57.9883 52.4086V47.6133C57.9883 46.7301 57.2727 46.0141 56.39 46.0141C55.5073 46.0141 54.7918 46.7301 54.7918 47.6133V52.4086Z" fill="#3E3127"/>
<path d="M54.9114 50.1099C55.7395 50.1099 56.4107 49.4382 56.4107 48.6096C56.4107 47.7811 55.7395 47.1094 54.9114 47.1094C54.0834 47.1094 53.4121 47.7811 53.4121 48.6096C53.4121 49.4382 54.0834 50.1099 54.9114 50.1099Z" fill="white"/>
<path d="M83.8495 70.356C84.0694 70.356 84.2478 70.1014 84.2478 69.7874C84.2478 69.4733 84.0694 69.2188 83.8495 69.2188C83.6295 69.2188 83.4512 69.4733 83.4512 69.7874C83.4512 70.1014 83.6295 70.356 83.8495 70.356Z" fill="#B55C4E"/>
<path d="M80.7089 70.8826C80.8869 70.8826 81.0311 70.6667 81.0311 70.4003C81.0311 70.1339 80.8869 69.918 80.7089 69.918C80.531 69.918 80.3867 70.1339 80.3867 70.4003C80.3867 70.6667 80.531 70.8826 80.7089 70.8826Z" fill="#B55C4E"/>
<path d="M82.0761 73.5561C82.6045 72.9108 82.6462 72.0708 82.1693 71.6799C81.6925 71.2889 80.8776 71.495 80.3493 72.1403C79.8209 72.7855 79.7791 73.6255 80.256 74.0165C80.7329 74.4075 81.5477 74.2013 82.0761 73.5561Z" fill="#B55C4E"/>
<path d="M88.8284 45.889C88.7335 45.8893 88.6398 45.8683 88.5541 45.8274C88.4685 45.7865 88.3932 45.7269 88.3337 45.6529C84.5512 40.949 81.8494 33.5925 81.2025 26.307C75.0124 27.6169 68.6219 28.914 62.1503 28.7414C57.2058 28.6069 52.9971 28.0154 49.2831 26.9315C43.9404 25.3703 40.2974 22.0728 38.4581 17.1253L37.1643 13.4191C37.1241 13.3038 37.118 13.1795 37.1467 13.0609C37.1754 12.9423 37.2376 12.8344 37.3259 12.7503C37.4143 12.6662 37.525 12.6094 37.6448 12.5866C37.7646 12.5638 37.8884 12.5761 38.0015 12.622C38.0928 12.66 47.3652 16.2241 61.2319 8.09329C67.5742 4.37947 74.4238 4.26523 80.5479 7.77343C86.2737 11.0582 90.2262 17.0593 90.6474 22.9511L93.4583 21.4661C93.547 21.4193 93.6457 21.3943 93.746 21.3931C93.8463 21.3919 93.9455 21.4145 94.0354 21.4591C94.1253 21.5037 94.2033 21.569 94.2631 21.6497C94.3228 21.7303 94.3626 21.824 94.3792 21.923C94.799 24.8221 94.9434 27.7545 94.8104 30.6808C94.5238 37.1921 92.9001 42.1675 89.9903 45.4701C89.9092 45.5626 89.8029 45.6295 89.6843 45.6624C89.5658 45.6953 89.4403 45.6929 89.3231 45.6554C89.2951 45.6898 89.2636 45.7213 89.2292 45.7493C89.1158 45.8409 88.9741 45.8903 88.8284 45.889ZM81.7783 24.9007C81.9385 24.9021 82.0924 24.9637 82.2094 25.0732C82.3263 25.1828 82.398 25.3323 82.41 25.4921C82.9174 32.6177 85.4543 39.8829 89.0922 44.5664C94.6252 38.2024 93.6587 26.3298 93.2477 23.012L90.3455 24.5351C90.2488 24.5863 90.1406 24.6117 90.0312 24.6087C89.9219 24.6057 89.8152 24.5744 89.7215 24.518C89.6278 24.4615 89.5503 24.3817 89.4965 24.2865C89.4427 24.1912 89.4144 24.0836 89.4144 23.9741C89.4144 18.194 85.6091 12.1219 79.9163 8.86499C76.6183 6.96873 69.8701 4.48862 61.8738 9.17976C50.2547 15.9931 41.8322 14.932 38.7879 14.173L39.6631 16.6836C41.3502 21.2224 44.7141 24.261 49.6509 25.7028C53.261 26.7563 57.3631 27.33 62.1959 27.462C68.7716 27.6422 75.3194 26.2486 81.6591 24.9057C81.6986 24.8999 81.7385 24.8982 81.7783 24.9007Z" fill="#3E3127"/>
<path d="M62.3596 82.7707C58.0798 82.7707 54.2085 80.6511 51.3113 78.8056C44.6849 74.5866 41.0724 66.7198 42.115 58.7515L42.729 54.0299L43.6625 55.223C44.8843 56.7157 46.2386 58.0946 47.7089 59.343C49.9312 61.2341 53.3358 63.5619 56.9432 63.9249C57.2654 63.9579 57.3618 63.8869 57.7804 62.9958C58.5085 61.4448 59.7237 58.8556 66.0102 58.8556H66.0305C66.0794 58.8505 66.1287 58.8505 66.1776 58.8556C71.3199 58.8556 72.9004 61.2088 73.9456 62.7623C74.5494 63.6609 74.8031 63.9732 75.2673 63.9249C82.2261 63.2269 88.4846 55.2941 88.548 55.223L89.4791 54.0273L90.0956 58.7515C91.1357 66.7097 87.5257 74.5765 80.8967 78.8056C76.9772 81.3035 73.3697 82.5194 69.8688 82.5194L62.3596 82.7733V82.7707ZM43.6042 57.1294L43.3683 58.9266C42.3916 66.3974 45.7758 73.7794 51.9937 77.7369C54.7463 79.4885 58.4096 81.5015 62.3393 81.5015L69.8485 81.2476C73.1211 81.2476 76.5053 80.0977 80.2143 77.7344C86.4297 73.7768 89.814 66.3949 88.8398 58.9241L88.6064 57.1268C86.5287 59.447 81.3052 64.6027 75.3942 65.1967C74.1409 65.3237 73.5042 64.3844 72.8953 63.4782C71.8806 61.9881 70.6426 60.1324 66.1522 60.1324H66.0102C60.533 60.1324 59.607 62.1023 58.9297 63.5416C58.539 64.3768 58.1001 65.3186 56.8189 65.1967C50.9054 64.6053 45.6819 59.4521 43.6042 57.1294Z" fill="#3E3127"/>
</svg>
