<svg width="132" height="88" viewBox="0 0 132 88" fill="none" xmlns="http://www.w3.org/2000/svg">
<path d="M34.0156 37.6034C34.0156 28.647 34.0156 24.1686 35.7588 20.7476C37.2921 17.7385 39.7389 15.292 42.7475 13.7587C46.1689 12.0156 50.6467 12.0156 59.6034 12.0156H72.3975C81.3543 12.0156 85.8321 12.0156 89.2534 13.7587C92.2622 15.292 94.7088 17.7385 96.2422 20.7476C97.9852 24.1686 97.9852 28.647 97.9852 37.6034V50.3975C97.9852 59.354 97.9852 63.8324 96.2422 67.2534C94.7088 70.2619 92.2622 72.7088 89.2534 74.2422C85.8321 75.9852 81.3543 75.9852 72.3975 75.9852H59.6034C50.6467 75.9852 46.1689 75.9852 42.7475 74.2422C39.7389 72.7088 37.2921 70.2619 35.7588 67.2534C34.0156 63.8324 34.0156 59.354 34.0156 50.3975V37.6034Z" fill="#179DE3"/>
<path d="M83.579 34.1596C80.6495 33.0725 78.3395 30.7623 77.2521 27.8324C76.1634 30.7606 73.8537 33.0725 70.9249 34.1596C73.8537 35.2486 76.1634 37.5583 77.2521 40.4871C78.3395 37.5583 80.6514 35.2478 83.579 34.1596Z" fill="white"/>
<path d="M66.0786 28.0081H50.0862V59.9928L82.0641 59.9937V44.0013L66.0786 59.9868V28.0081Z" fill="white"/>
</svg>
