<svg width="132" height="88" viewBox="0 0 132 88" fill="none" xmlns="http://www.w3.org/2000/svg">
<path d="M99.1066 18.1342C99.4591 17.0349 100.156 16.1188 101.199 15.3859L101.201 15.3843V14.5742H87.4801L79.2837 39.2258L71.3642 19.2046C71.2724 18.7803 71.2257 18.356 71.2257 17.9317C71.2257 17.1972 71.3947 16.609 71.7328 16.1654C72.0708 15.7218 72.6229 15.5 73.3907 15.5V14.5742H51.7038C48.4201 14.5742 45.6644 15.2589 43.4382 16.6282C41.2137 17.9992 39.5718 19.7929 38.5127 22.0108C37.4505 24.2427 36.9074 26.6855 36.9239 29.1565C36.9239 31.7409 37.4229 33.9509 38.4209 35.7831C39.4189 37.6153 40.7082 38.9847 42.2889 39.8912C43.8696 40.7976 45.5195 41.2509 47.2386 41.2509C49.4487 41.2509 51.3352 40.518 52.9014 39.0506C54.4676 37.5864 55.2499 35.5613 55.2499 32.9753C55.2499 31.8567 54.9279 30.9213 54.2841 30.1691C53.6386 29.4169 52.7485 29.0408 51.612 29.0408C50.7831 29.0408 50.0459 29.3976 49.402 30.1112C48.7565 30.8248 48.4346 31.5481 48.4346 32.281C49.1718 32.3967 49.7014 32.7728 50.0249 33.4092C50.3469 34.0473 50.5078 34.7127 50.5078 35.407C50.5078 36.7185 50.2615 37.7696 49.7706 38.5604C49.2797 39.3511 48.697 39.7465 48.0209 39.7465C47.1613 39.7465 46.4161 39.0908 45.7883 37.7793C45.1589 36.4662 44.8434 34.5198 44.8434 31.9338C44.8434 28.6165 45.4116 25.7235 46.5481 23.2548C47.6829 20.7861 49.0865 18.9057 50.7605 17.6135C52.4346 16.3197 54.0217 15.6736 55.5251 15.6736C56.5698 15.6736 57.4277 16.0111 58.1038 16.6861C58.7799 17.3611 59.1179 18.3174 59.1179 19.5518C59.1179 19.9761 59.0712 20.4197 58.9795 20.8826H59.0712C58.7026 28.6744 57.5211 36.1881 55.5267 43.4222C53.5308 50.6547 50.9988 56.1996 47.9292 60.057C46.4853 61.8699 44.9368 63.2585 43.2788 64.2229C41.6209 65.1872 40.0402 65.6694 38.5368 65.6694C36.7871 65.6694 35.3593 65.0136 34.2551 63.7021C33.1493 62.3907 32.5972 60.5006 32.5972 58.0319C32.5972 56.5275 32.9947 55.3221 33.7931 54.4156C34.5931 53.5091 35.5122 53.0559 36.5569 53.0559C37.5082 53.0559 38.3211 53.4609 38.9956 54.271C39.6716 55.081 40.0096 56.2189 40.0096 57.6847C40.7774 57.6847 41.468 57.0868 42.0813 55.891C42.6945 54.6953 43.0036 53.3645 43.0036 51.8987C43.0036 49.7386 42.5577 48.0783 41.6676 46.9211C40.7774 45.7639 39.6571 45.1853 38.305 45.1853C37.109 45.1853 35.934 45.6675 34.7831 46.6318C33.6338 47.5962 32.6809 49.0234 31.9275 50.9151C31.1774 52.8052 30.8008 55.0617 30.8008 57.6847C30.8008 60.9265 31.3384 63.7407 32.412 66.1339C33.4873 68.5254 34.9376 70.3384 36.763 71.5727C38.5883 72.807 40.5778 73.4242 42.7251 73.4242C45.365 73.4242 47.868 72.3345 50.231 70.1551C52.5939 67.9757 54.6656 64.2807 56.4459 59.0733C58.2277 53.8643 59.4237 47.0176 60.0386 38.5315L61.2362 22.1555L73.7609 55.1983H75.3722L87.5283 17.8176V47.9064C87.5283 49.2564 87.3513 50.4924 86.9972 51.611C86.6446 52.7296 85.9461 53.6554 84.903 54.3883V55.1983H101.199V54.3883C100.156 53.6554 99.4591 52.7393 99.1066 51.6399C98.7525 50.5406 98.5754 49.295 98.5754 47.9064V21.8678C98.5754 20.4791 98.7525 19.2352 99.1066 18.1342Z" fill="black"/>
</svg>
