<svg width="132" height="88" viewBox="0 0 132 88" fill="none" xmlns="http://www.w3.org/2000/svg">
<mask id="mask0_2056_25739" style="mask-type:luminance" maskUnits="userSpaceOnUse" x="34" y="12" width="64" height="64">
<path d="M34.0156 12.0156H97.9852V75.9852H34.0156V12.0156Z" fill="white"/>
</mask>
<g mask="url(#mask0_2056_25739)">
<path d="M66 12.0156H87.9326C93.4841 12.0156 97.985 16.5162 97.985 22.0679V65.9331C97.985 71.4845 93.4841 75.9852 87.9326 75.9852H66V12.0156Z" fill="#00962A"/>
<path d="M34.0156 22.0679C34.0156 16.5162 38.5165 12.0156 44.0679 12.0156H66.0005V44.0005H34.0156V22.0679Z" fill="#FFD600"/>
<path d="M34.0156 54.0524C34.0156 48.5007 38.5165 44 44.0679 44H66.0005V75.985H34.0156V54.0524Z" fill="#FF00E5"/>
<path d="M68.7979 46.9106C72.9798 46.9106 76.1962 47.5687 78.4482 48.8846C80.7002 50.1713 81.8257 51.9844 81.8257 54.3238C81.8257 57.0144 80.3644 59.0758 77.4398 60.5088C74.5151 61.9418 70.4361 62.6582 65.2014 62.6582C60.7266 62.6582 57.2614 62.1319 54.8053 61.0789C52.3776 60.0556 51.1641 58.652 51.1641 56.8681C51.1641 55.7568 51.6318 54.8501 52.5685 54.1483C53.5329 53.4465 54.8345 53.0665 56.4716 53.0079V52.8762C54.8345 52.467 53.548 51.8383 52.6114 50.9902C51.7058 50.1421 51.2521 49.1186 51.2521 47.9196C51.2521 46.3405 51.9827 45.1707 53.4452 44.4103C54.9074 43.6208 56.8964 43.3576 59.4113 43.6208V43.4453C54.9362 42.2463 52.6994 40.2432 52.6994 37.4358C52.6994 35.1549 53.9278 33.3418 56.3847 31.9965C58.8404 30.6515 62.1599 29.9789 66.3419 29.9789C69.4125 29.9789 72.0443 30.3589 74.2371 31.1193C74.5 29.1016 75.2026 27.5954 76.3433 26.601C77.5126 25.5778 78.9459 25.1391 80.6413 25.2852L80.993 30.5052C78.6531 30.242 77.1177 30.7538 76.3873 32.0405C78.7551 33.3564 79.9395 35.1403 79.9395 37.392C79.9395 39.6437 78.7551 41.4422 76.3873 42.7873C74.0182 44.1326 70.8887 44.8052 66.9997 44.8052C65.8301 44.8052 64.4259 44.7175 62.7886 44.542C61.1804 44.3372 60.084 44.2349 59.4993 44.2349C57.686 44.2349 56.7796 44.6298 56.7796 45.4193C56.7796 46.4137 58.0949 46.9106 60.7266 46.9106H68.7979ZM66.2541 33.2687C64.7337 33.2687 63.4764 33.6633 62.4817 34.4531C61.4873 35.2135 60.9904 36.193 60.9904 37.392C60.9904 38.6202 61.4873 39.6292 62.4817 40.4187C63.5052 41.1791 64.8068 41.5591 66.3859 41.5591C67.9063 41.5591 69.1636 41.1791 70.158 40.4187C71.1527 39.6583 71.6494 38.6642 71.6494 37.4358C71.6494 36.237 71.1376 35.2426 70.1143 34.4531C69.1196 33.6633 67.8332 33.2687 66.2541 33.2687ZM66.1661 59.6753C68.447 59.6753 70.2601 59.3535 71.6054 58.7103C72.9798 58.0671 73.6676 57.2041 73.6676 56.1223C73.6676 55.2742 73.2576 54.6018 72.4392 54.1046C71.6205 53.6074 70.5089 53.3588 69.1056 53.3588H60.9466H60.3757C59.5282 53.9729 59.1044 54.8064 59.1044 55.8591C59.1044 57.0581 59.7031 57.9939 60.9026 58.6666C62.1011 59.339 63.8561 59.6753 66.1661 59.6753Z" fill="white"/>
</g>
</svg>
