<svg width="132" height="88" viewBox="0 0 132 88" fill="none" xmlns="http://www.w3.org/2000/svg">
<path d="M65.9999 74.2016C67.9678 74.2016 69.5801 72.7534 69.8529 70.7033C72.5587 52.4463 75.0466 49.9048 92.5932 47.9097C94.6153 47.6635 96.1726 45.9693 96.1726 44.0014C96.1726 42.006 94.6423 40.3664 92.6202 40.0656C75.1824 37.6332 73.0234 35.5014 69.8529 17.2717C69.4982 15.2493 67.94 13.8008 65.9999 13.8008C64.0048 13.8008 62.4197 15.2493 62.0916 17.2991C59.4401 35.5289 56.9532 38.0704 39.4345 40.0656C37.3575 40.3392 35.8262 41.9787 35.8262 44.0014C35.8262 45.9693 37.3025 47.6091 39.3795 47.9097C56.8443 50.3968 58.9761 52.5011 62.0916 70.7314C62.5016 72.7804 64.0867 74.2016 65.9999 74.2016Z" fill="#0EF275"/>
</svg>
