<svg width="132" height="88" viewBox="0 0 132 88" fill="none" xmlns="http://www.w3.org/2000/svg">
<path d="M50.0082 28.0078H18.0234V59.9925H50.0082V28.0078Z" fill="#E3E9FF"/>
<path d="M66.0003 44.0002C66.0003 35.1677 58.8401 28.0078 50.0082 28.0078V59.9925C58.8401 59.9925 66.0003 52.8326 66.0003 44.0002Z" fill="#6D8DEB"/>
<path d="M81.9932 44.0002C81.9932 35.1677 74.8325 28.0078 66.0009 28.0078V59.9925C74.8325 59.9925 81.9932 52.8326 81.9932 44.0002Z" fill="#103BB9"/>
<path d="M97.9858 59.9925C106.819 59.9925 113.978 52.8326 113.978 44.0002C113.978 35.1677 106.819 28.0078 97.9858 28.0078C89.1528 28.0078 81.9932 35.1677 81.9932 44.0002C81.9932 52.8326 89.1528 59.9925 97.9858 59.9925Z" fill="#011341"/>
</svg>
