<svg width="132" height="88" viewBox="0 0 132 88" fill="none" xmlns="http://www.w3.org/2000/svg">
<path d="M72.5591 17.951L68.2546 23.8198C67.9897 24.1609 67.6495 24.437 67.2601 24.6271C66.8708 24.8171 66.4426 24.916 66.0087 24.916C65.5748 24.916 65.1467 24.8171 64.7573 24.6271C64.368 24.437 64.0278 24.1609 63.7629 23.8198L59.449 17.9677C58.8077 17.114 58.4594 16.0786 58.4553 15.0138C58.4513 13.949 58.7917 12.911 59.4266 12.0525L63.7311 6.10947C63.9952 5.76463 64.3361 5.48506 64.7272 5.2926C65.1182 5.10014 65.5488 5 65.9853 5C66.4218 5 66.8524 5.10014 67.2435 5.2926C67.6345 5.48506 67.9754 5.76463 68.2396 6.10947L72.5628 12.0525C73.2009 12.9086 73.5453 13.9453 73.5453 15.0101C73.5453 16.075 73.2009 17.1117 72.5628 17.9677L72.5591 17.951Z" fill="#E84244"/>
<path d="M55.7557 27.0517L63.137 36.0146C63.4154 36.3883 63.7783 36.6919 64.1965 36.9012C64.6146 37.1104 65.0764 37.2194 65.5447 37.2194C66.013 37.2194 66.4748 37.1104 66.893 36.9012C67.3111 36.6919 67.674 36.3883 67.9525 36.0146L77.1099 23.7366C77.3532 23.3039 77.7107 22.9452 78.1441 22.699C78.5774 22.4529 79.0702 22.3285 79.5694 22.3394C80.0686 22.3503 80.5553 22.496 80.9774 22.7608C81.3994 23.0256 81.7407 23.3996 81.9646 23.8424C85.5205 29.1615 93.2163 37.8049 93.9761 51.6003C94.3748 60.8306 89.8063 66.783 78.3395 68.2687C67.5108 69.6783 67.2188 74.6018 71.703 78.1769C73.554 79.7463 72.6856 83.314 68.7853 82.9778C47.33 81.3323 38.1202 69.0005 38.021 57.6901C37.5064 45.3285 46.5683 33.1266 51.0544 27.0053C51.3065 26.6107 51.6559 26.2865 52.0695 26.0634C52.4831 25.8403 52.9473 25.7257 53.418 25.7303C53.8888 25.735 54.3506 25.8588 54.7597 26.09C55.1687 26.3212 55.5115 26.6522 55.7557 27.0517Z" fill="#E84244"/>
</svg>
