<svg width="132" height="88" viewBox="0 0 132 88" fill="none" xmlns="http://www.w3.org/2000/svg">
<path d="M66.0004 6.63672C86.6355 6.63672 103.364 23.3653 103.364 44.0004C103.364 64.6355 86.6355 81.3641 66.0004 81.3641C45.3653 81.3641 28.6367 64.6355 28.6367 44.0004C28.6367 23.3653 45.3653 6.63672 66.0004 6.63672ZM66.0004 46.9355L75.5198 56.4549H56.481L66.0004 46.9355ZM78.4549 34.481V53.5198L68.9355 44.0004L78.4549 34.481ZM53.5458 53.5198V34.481L63.0653 44.0004L53.5458 53.5198ZM81.3112 60.4529C81.5684 60.3489 81.8019 60.194 81.9979 59.9979C82.194 59.8019 82.3489 59.5684 82.4529 59.3112L82.4425 59.3382C82.5506 59.0826 82.6065 58.8082 82.6065 58.5307V29.4701C82.6065 27.6226 80.3709 26.6948 79.0631 28.0025L66.0004 41.0653L52.9376 28.0025C51.6299 26.6948 49.3943 27.6206 49.3943 29.4701V58.5307C49.3943 59.0812 49.6131 59.6093 50.0023 59.9985C50.3915 60.3877 50.9196 60.6065 51.4701 60.6065H80.5307C80.8172 60.6065 81.0912 60.5483 81.3402 60.4425L81.3112 60.4529Z" fill="#31303A"/>
</svg>
