<svg width="132" height="88" viewBox="0 0 132 88" fill="none" xmlns="http://www.w3.org/2000/svg">
<rect x="28.3242" y="6.32422" width="75.35" height="75.35" rx="37.675" fill="#FBE00D"/>
<path d="M53.1384 53.92C53.1724 53.9612 53.1932 54.0117 53.1979 54.0649C53.2027 54.1182 53.1912 54.1716 53.165 54.2181C53.0378 54.4248 52.8554 54.5918 52.6384 54.7002C52.4214 54.8087 52.1785 54.8544 51.937 54.8321C51.5065 54.7857 51.1097 54.5775 50.8268 54.2495C50.5439 53.9216 50.3959 53.4984 50.4127 53.0655C50.4055 52.4755 50.5131 51.8898 50.7296 51.341C50.8663 50.9971 50.8806 50.6166 50.77 50.2635C50.6595 49.9103 50.4308 49.606 50.1225 49.4017C49.94 49.2808 49.7352 49.1978 49.5201 49.1575C49.3051 49.1172 49.0841 49.1205 48.8703 49.167C48.6608 49.2111 48.4623 49.2967 48.2864 49.4187C48.1104 49.5407 47.9606 49.6967 47.8458 49.8775C47.6834 50.1558 47.5572 50.4536 47.4701 50.7638C47.4533 50.8185 47.4397 50.8613 47.4295 50.889C47.2868 51.2742 47.0593 51.3865 46.9052 51.3658C46.8323 51.3557 46.7322 51.307 46.6679 51.1307C46.5873 50.6211 46.6239 50.0998 46.7749 49.6065C46.9259 49.1132 47.1873 48.6608 47.5392 48.2838C47.8348 47.9662 48.2017 47.7235 48.6095 47.5759C49.0174 47.4283 49.4545 47.38 49.8847 47.435C50.3405 47.4977 50.7736 47.6725 51.1453 47.9438C51.517 48.2151 51.8156 48.5744 52.0145 48.9896C52.2159 49.4998 52.2971 50.0497 52.252 50.5964C52.2068 51.1432 52.0365 51.6722 51.7541 52.1424C51.7184 52.2223 51.6857 52.2957 51.6581 52.3621C51.5566 52.5457 51.5008 52.7512 51.4956 52.961C51.4903 53.1709 51.5357 53.3789 51.628 53.5674C51.706 53.6798 51.8106 53.7711 51.9325 53.8331C52.0544 53.8951 52.1897 53.9259 52.3264 53.9227C52.4553 53.9209 52.5834 53.9028 52.7078 53.8688C52.8696 53.8309 53.0368 53.792 53.1384 53.92ZM93.0308 54.9167C92.9403 56.7757 92.5479 58.6075 91.8688 60.3402C88.481 68.4891 80.3963 73.0256 70.765 72.7384C61.7865 72.4707 54.1288 67.7148 50.7773 59.9621C48.6615 59.9029 46.6374 59.0848 45.0739 57.657C43.4588 56.279 42.4211 54.3433 42.1672 52.2346C42.0033 50.7839 42.1826 49.3149 42.6906 47.9463L40.8084 46.3457C32.196 39.0462 59.1332 8.99102 67.7488 16.5344C67.7923 16.5723 70.6795 19.4162 70.6868 19.4232C70.6983 19.4174 72.2799 18.7441 72.2879 18.7409C79.8445 15.5998 85.9763 17.1164 85.984 22.1281C85.988 24.7345 84.3335 27.7725 81.6832 30.5301C82.7424 31.6089 83.4924 32.9529 83.8545 34.4213C84.1467 35.4457 84.3047 36.5038 84.3244 37.5689C84.3704 38.6311 84.4213 41.1055 84.4264 41.1496C84.4937 41.17 85.2587 41.3807 85.4906 41.4461C87.0324 41.7845 88.467 42.4978 89.6679 43.523C90.3018 44.1432 90.7169 44.953 90.8507 45.83C91.0141 46.968 90.7303 48.1251 90.059 49.0581C90.2337 49.4568 90.3853 49.8652 90.513 50.2813C90.736 50.999 90.8983 51.5947 90.9233 51.683C91.7431 51.683 93.0308 52.6304 93.0308 54.9167ZM54.9706 50.4451C54.385 46.6399 51.8206 45.2988 50.0807 45.2032C49.6439 45.18 49.2059 45.2112 48.7769 45.2962C45.6713 45.9252 43.9173 48.577 44.2624 52.0229C44.5138 53.5685 45.2786 54.9842 46.4333 56.0411C47.5879 57.0981 49.065 57.7345 50.6257 57.8475C50.9244 57.8555 51.2231 57.8344 51.5178 57.7847C54.6654 57.2458 55.4895 53.815 54.9706 50.4451ZM60.2789 26.2898C62.9096 24.1254 65.7159 22.184 68.6686 20.4858C68.6686 20.4858 66.3241 17.757 65.616 17.5559C61.2613 16.3742 51.854 22.8866 45.8478 31.4904C43.4175 34.9717 39.9385 41.1366 41.6019 44.3073C42.1928 45.0189 42.8594 45.6641 43.5899 46.2313C44.702 44.6626 46.38 43.5881 48.2692 43.2349C50.6328 36.5854 54.7895 30.7206 60.2789 26.2898ZM69.7436 56.4019C69.859 56.9076 70.1087 57.3728 70.4665 57.7482C70.8242 58.1235 71.2766 58.3953 71.7759 58.5346C72.2953 58.7283 72.8312 58.8744 73.377 58.9711C80.2655 60.1605 86.7054 56.2069 88.1554 55.2111C88.2642 55.1363 88.3361 55.2092 88.2488 55.3412C88.2051 55.4115 88.1577 55.4793 88.1068 55.5444C86.3323 57.8421 81.5616 60.5029 75.3548 60.502C72.6478 60.5015 69.9422 59.5442 68.9488 58.0733C67.4075 55.7908 68.8724 52.4594 71.4405 52.8065C71.4436 52.807 72.3193 52.9066 72.5654 52.934C76.5575 53.3182 80.5813 52.6719 84.2527 51.0567C87.7565 49.424 89.0801 47.6272 88.8815 46.1728C88.8152 45.7211 88.603 45.3035 88.2774 44.9836C87.3193 44.1943 86.1816 43.6534 84.9649 43.4086C84.4084 43.2518 84.0308 43.1517 83.624 43.0171C82.9008 42.778 82.5433 42.5856 82.4622 41.2204C82.427 40.6233 82.3233 38.5434 82.2857 37.6838C82.2196 36.1777 82.0393 34.1191 80.7666 33.2692C80.4426 33.0558 80.0664 32.9351 79.6789 32.9201C79.4615 32.9069 79.2435 32.9283 79.0329 32.9837C78.3882 33.1329 77.8008 33.4663 77.3417 33.9433C76.747 34.4813 76.0476 34.8905 75.2873 35.1452C74.5271 35.4 73.7225 35.4947 72.9239 35.4236C72.0335 35.3864 71.0898 35.2471 70.0082 35.1827C69.7978 35.1702 69.5864 35.1571 69.3756 35.1463C67.9828 35.1829 66.6495 35.7188 65.6183 36.6564C64.5872 37.5941 63.9268 38.8711 63.7574 40.255C63.1381 44.5323 66.2239 46.7426 67.1148 48.0396C67.2524 48.2048 67.3378 48.4072 67.36 48.6211C67.3365 48.8584 67.223 49.0776 67.0429 49.2337V49.2351C65.8106 50.6089 64.9445 52.2717 64.5248 54.0694C64.1051 55.8671 64.1452 57.7417 64.6415 59.5198C64.7593 59.9468 64.9102 60.3639 65.0929 60.7673C67.3446 66.0491 74.3295 68.5085 81.1535 66.2713C82.047 65.9785 82.9143 65.6109 83.7461 65.1724C85.2405 64.431 86.5861 63.4215 87.7163 62.194C89.4737 60.4263 90.6302 58.1496 91.0215 55.687C91.227 54.3255 90.9263 53.799 90.5162 53.5456C90.2263 53.384 89.8913 53.3225 89.563 53.3708C89.3892 52.3017 89.0843 51.2581 88.6553 50.2637C86.7063 51.7354 84.5031 52.8353 82.1561 53.5084C79.3321 54.3069 76.3944 54.6257 73.465 54.4517C71.5805 54.2988 70.3337 53.7466 69.8648 55.2764C72.7155 56.2304 75.7421 56.5394 78.7265 56.1812C78.7475 56.179 78.7688 56.1811 78.789 56.1871C78.8092 56.1932 78.828 56.2032 78.8444 56.2166C78.8607 56.23 78.8742 56.2464 78.8842 56.2651C78.8941 56.2837 78.9003 56.3041 78.9024 56.3251C78.9055 56.3604 78.8977 56.3959 78.8799 56.4265C78.862 56.4572 78.8352 56.4816 78.8029 56.4963C78.8029 56.4963 75.3026 58.1277 69.7436 56.4019ZM59.4921 31.5983C61.8073 29.9716 64.4179 28.8134 67.1769 28.1888C70.2894 27.4669 73.5246 27.4582 76.6409 28.1632C76.75 28.1883 76.8196 27.9987 76.722 27.9438C75.1048 27.1012 73.3197 26.6315 71.4976 26.5692C71.48 26.5689 71.4629 26.5638 71.4481 26.5543C71.4333 26.5449 71.4213 26.5316 71.4136 26.5158C71.4059 26.5 71.4027 26.4824 71.4043 26.4649C71.4059 26.4474 71.4123 26.4307 71.4229 26.4166C71.7059 26.0448 72.0365 25.7119 72.4062 25.4263C72.4228 25.4133 72.4348 25.3954 72.4405 25.3752C72.4462 25.355 72.4453 25.3334 72.4379 25.3137C72.4305 25.294 72.4171 25.2772 72.3995 25.2657C72.3819 25.2542 72.3611 25.2486 72.3401 25.2498C70.1088 25.4705 67.9644 26.2305 66.0915 27.4643C66.0755 27.4751 66.0566 27.4809 66.0373 27.4809C66.018 27.4808 65.9991 27.4749 65.9831 27.464C65.9672 27.4531 65.9549 27.4376 65.9479 27.4196C65.9408 27.4016 65.9394 27.3819 65.9437 27.363C66.0945 26.7972 66.3167 26.2529 66.6048 25.7432C66.6143 25.7258 66.6181 25.7058 66.6154 25.6861C66.6127 25.6664 66.6038 25.648 66.5899 25.6338C66.5761 25.6195 66.558 25.6101 66.5384 25.6069C66.5188 25.6037 66.4987 25.6069 66.481 25.616C63.7724 27.1121 61.3599 29.0912 59.3625 31.4556C59.3469 31.4735 59.3383 31.4966 59.3386 31.5204C59.3388 31.5442 59.3478 31.5671 59.3638 31.5847C59.3798 31.6023 59.4017 31.6134 59.4254 31.6159C59.449 31.6184 59.4728 31.6122 59.4921 31.5983ZM77.6321 46.1174C77.8206 46.2368 78.0465 46.2826 78.2666 46.246C78.4868 46.2094 78.6857 46.0929 78.8255 45.9189C78.9992 45.5823 78.747 45.1259 78.2618 44.8991C78.0732 44.7797 77.8473 44.734 77.6271 44.7707C77.407 44.8074 77.2081 44.9239 77.0684 45.0981C76.8944 45.4344 77.1469 45.8909 77.6321 46.1174ZM79.1203 40.6598C79.2367 41.2658 79.4878 41.8378 79.8551 42.3334C80.2345 42.2867 80.6183 42.2867 80.9977 42.3334C81.2196 41.6683 81.239 40.9522 81.0536 40.276C80.7793 39.0284 80.4082 38.2733 79.6412 38.3907C78.8745 38.5083 78.8463 39.4122 79.1203 40.6598ZM80.7518 43.5259C80.5584 43.4703 80.3524 43.4768 80.1629 43.5444C79.9734 43.6121 79.8098 43.7374 79.6951 43.9029C79.5804 44.0683 79.5204 44.2656 79.5236 44.4669C79.5267 44.6683 79.5927 44.8636 79.7125 45.0254C79.8322 45.1872 79.9996 45.3074 80.1912 45.3691C80.3827 45.4309 80.5887 45.431 80.7803 45.3695C80.9719 45.308 81.1394 45.1879 81.2594 45.0262C81.3793 44.8645 81.4455 44.6693 81.4489 44.468C81.4767 44.2512 81.4197 44.0321 81.2897 43.8566C81.1598 43.681 80.967 43.5625 80.7518 43.5259Z" fill="black"/>
<path d="M72.2494 44.7977C72.4646 44.0311 72.4769 43.2216 72.2852 42.4488C72.0077 41.1993 71.5881 40.4852 70.8104 40.6028C70.0328 40.7205 70.0127 41.7274 70.2633 42.9822C70.3786 43.5572 70.6031 44.1048 70.9246 44.5951C71.5433 45.4593 71.9641 45.2356 72.2494 44.7977Z" fill="black"/>
</svg>
