<svg width="132" height="88" viewBox="0 0 132 88" fill="none" xmlns="http://www.w3.org/2000/svg">
<path fill-rule="evenodd" clip-rule="evenodd" d="M30.2702 5.33254C26.5266 6.88665 26 9.08743 26 23.1733C26 37.7057 26.4334 39.6507 30.0338 41.2861C32.2321 42.2848 34.2177 42.4324 45.0747 42.403C53.4325 42.3805 58.3087 42.1091 59.7715 41.5856C63.457 40.2667 63.8122 38.8145 64.028 24.1846C64.3257 4.00419 64.6084 4.29438 44.6894 4.34754C35.3072 4.37193 32.0476 4.59519 30.2702 5.33254Z" fill="#FF55FF"/>
<path fill-rule="evenodd" clip-rule="evenodd" d="M30.2702 46.5825C26.5266 48.1367 26 50.3374 26 64.4233C26 78.9557 26.4334 80.9007 30.0338 82.5361C32.2321 83.5348 34.2177 83.6824 45.0747 83.653C53.4325 83.6305 58.3087 83.3591 59.7715 82.8356C63.457 81.5167 63.8122 80.0645 64.028 65.4346C64.3257 45.2542 64.6084 45.5444 44.6894 45.5975C35.3072 45.6219 32.0476 45.8452 30.2702 46.5825Z" fill="#AA55FF"/>
<path fill-rule="evenodd" clip-rule="evenodd" d="M72.1726 5.33254C68.4289 6.88665 67.9023 9.08743 67.9023 23.1733C67.9023 37.7057 68.3357 39.6507 71.9362 41.2861C74.1344 42.2848 76.1201 42.4324 86.977 42.403C95.3348 42.3805 100.211 42.1091 101.674 41.5856C105.359 40.2667 105.715 38.8145 105.93 24.1846C106.228 4.00419 106.511 4.29438 86.5918 4.34754C77.2095 4.37193 73.9499 4.59519 72.1726 5.33254Z" fill="#AAFFFF"/>
<path fill-rule="evenodd" clip-rule="evenodd" d="M72.1726 46.5825C68.4289 48.1367 67.9023 50.3374 67.9023 64.4233C67.9023 78.9557 68.3357 80.9007 71.9362 82.5361C74.1344 83.5348 76.1201 83.6824 86.977 83.653C95.3348 83.6305 100.211 83.3591 101.674 82.8356C105.359 81.5167 105.715 80.0645 105.93 65.4346C106.228 45.2542 106.511 45.5444 86.5918 45.5975C77.2095 45.6219 73.9499 45.8452 72.1726 46.5825Z" fill="#FFFF77"/>
<path fill-rule="evenodd" clip-rule="evenodd" d="M51.9536 4.73903C46.1424 5.23246 38.8177 6.3094 38.5181 6.71466C38.3405 6.95481 36.7877 7.51329 35.0678 7.95608C31.176 8.95796 30.6412 9.49268 29.6394 13.3845C29.1966 15.1044 28.6594 16.6522 28.4455 16.8242C27.8826 17.2764 27.3654 20.5847 26.6456 28.3416C25.8169 37.2666 26.4423 39.6563 30.0334 41.2873C32.2316 42.2861 34.2173 42.4337 45.0742 42.4043C53.432 42.3818 58.3082 42.1103 59.7711 41.5869C63.4565 40.2679 63.8118 38.8157 64.0275 24.1858C64.1995 12.529 64.0982 10.9492 63.0238 8.52081C62.0375 6.29001 61.3921 5.68838 59.3208 5.06798C57.9405 4.6546 56.2813 4.36379 55.6334 4.42132C54.9855 4.47948 53.3295 4.62208 51.9536 4.73903Z" fill="#FF00FF"/>
<path fill-rule="evenodd" clip-rule="evenodd" d="M51.9536 45.989C46.1424 46.4825 38.8177 47.5594 38.5181 47.9647C38.3405 48.2048 36.7877 48.7633 35.0678 49.2061C31.176 50.208 30.6412 50.7427 29.6394 54.6345C29.1966 56.3544 28.6594 57.9022 28.4455 58.0742C27.8826 58.5264 27.3654 61.8347 26.6456 69.5916C25.8169 78.5166 26.4423 80.9063 30.0334 82.5373C32.2316 83.5361 34.2173 83.6837 45.0742 83.6543C53.432 83.6318 58.3082 83.3603 59.7711 82.8369C63.4565 81.5179 63.8118 80.0657 64.0275 65.4358C64.1995 53.779 64.0982 52.1992 63.0238 49.7708C62.0375 47.54 61.3921 46.9384 59.3208 46.318C57.9405 45.9046 56.2813 45.6138 55.6334 45.6713C54.9855 45.7295 53.3295 45.8721 51.9536 45.989Z" fill="#AA00FF"/>
<path fill-rule="evenodd" clip-rule="evenodd" d="M93.8559 4.73903C88.0447 5.23246 80.72 6.3094 80.4205 6.71466C80.2429 6.95481 78.69 7.51329 76.9702 7.95608C73.0783 8.95796 72.5436 9.49268 71.5417 13.3845C71.0989 15.1044 70.5617 16.6522 70.3478 16.8242C69.785 17.2764 69.2677 20.5847 68.5479 28.3416C67.7193 37.2666 68.3447 39.6563 71.9357 41.2873C74.134 42.2861 76.1196 42.4337 86.9765 42.4043C95.3344 42.3818 100.211 42.1103 101.673 41.5869C105.359 40.2679 105.714 38.8157 105.93 24.1858C106.102 12.529 106.001 10.9492 104.926 8.52081C103.94 6.29001 103.294 5.68838 101.223 5.06798C99.8429 4.6546 98.1837 4.36379 97.5358 4.42132C96.8878 4.47948 95.2318 4.62208 93.8559 4.73903Z" fill="#00FFFF"/>
<path fill-rule="evenodd" clip-rule="evenodd" d="M93.8559 45.989C88.0447 46.4825 80.72 47.5594 80.4205 47.9647C80.2429 48.2048 78.69 48.7633 76.9702 49.2061C73.0783 50.208 72.5436 50.7427 71.5417 54.6345C71.0989 56.3544 70.5617 57.9022 70.3478 58.0742C69.785 58.5264 69.2677 61.8347 68.5479 69.5916C67.7193 78.5166 68.3447 80.9063 71.9357 82.5373C74.134 83.5361 76.1196 83.6837 86.9765 83.6543C95.3344 83.6318 100.211 83.3603 101.673 82.8369C105.359 81.5179 105.714 80.0657 105.93 65.4358C106.102 53.779 106.001 52.1992 104.926 49.7708C103.94 47.54 103.294 46.9384 101.223 46.318C99.8429 45.9046 98.1837 45.6138 97.5358 45.6713C96.8878 45.7295 95.2318 45.8721 93.8559 45.989Z" fill="#FFFF00"/>
</svg>
