<svg width="132" height="88" viewBox="0 0 132 88" fill="none" xmlns="http://www.w3.org/2000/svg">
<path d="M84.5706 48.1086C95.3789 48.1086 104.141 39.3469 104.141 28.5387C104.141 17.7304 95.3789 8.96875 84.5706 8.96875C73.7621 8.96875 65 17.7304 65 28.5387C65 39.3469 73.7621 48.1086 84.5706 48.1086Z" fill="#FF6392"/>
<path d="M67.153 79.0312L96.8115 49.3828H37.4932L67.153 79.0312Z" fill="#5AA9E6"/>
<path fill-rule="evenodd" clip-rule="evenodd" d="M29.3473 37.3597C30.3309 39.7341 31.773 41.8914 33.5902 43.7086L37.9216 47.6511L65.8356 19.704L60.986 15.6196L60.9143 15.6891C59.1724 14.0333 57.1403 12.7111 54.9167 11.7903C52.5429 10.8069 49.9975 10.3008 47.4273 10.3008C44.8572 10.3008 42.3132 10.8069 39.9384 11.7903C37.5646 12.7738 35.4075 14.2153 33.5902 16.0325C31.773 17.85 30.3309 20.0072 29.3473 22.3817C28.3638 24.7558 27.8584 27.3005 27.8584 29.8707C27.8584 32.4405 28.3638 34.9852 29.3473 37.3597Z" fill="#FFE45E"/>
</svg>
