<svg width="360" height="360" viewBox="0 0 360 360" fill="none" xmlns="http://www.w3.org/2000/svg">
<mask id="mask0_931_110507" style="mask-type:alpha" maskUnits="userSpaceOnUse" x="59" y="59" width="242" height="242">
<path d="M180 301C246.826 301 301 246.826 301 180C301 113.174 246.826 59 180 59C113.174 59 59 113.174 59 180C59 246.826 113.174 301 180 301Z" fill="#C4C4C4"/>
</mask>
<g mask="url(#mask0_931_110507)">
<path d="M174.69 210.277H189.694C223.625 210.277 251.132 237.784 251.132 271.715V318.799H113.252V271.715C113.252 237.784 140.758 210.277 174.69 210.277Z" fill="#7BDED2"/>
<path d="M251.134 320.755H113.254C112.173 320.755 111.297 319.878 111.297 318.797V271.714C111.297 236.758 139.736 208.319 174.691 208.319H189.696C224.652 208.319 253.091 236.758 253.091 271.714V318.797C253.091 319.878 252.215 320.755 251.134 320.755ZM115.211 316.841H249.177V271.714C249.177 238.916 222.494 212.233 189.696 212.233H174.691C141.894 212.233 115.211 238.916 115.211 271.714V316.841Z" fill="#33475B"/>
<path d="M147.775 320.755C146.694 320.755 145.818 319.878 145.818 318.799V286.085C145.818 285.004 146.694 284.128 147.775 284.128C148.856 284.128 149.732 285.004 149.732 286.085V318.799C149.732 319.878 148.856 320.755 147.775 320.755Z" fill="#33475B"/>
<path d="M216.611 320.755C215.53 320.755 214.654 319.879 214.654 318.797V286.084C214.654 285.003 215.53 284.127 216.611 284.127C217.692 284.127 218.568 285.003 218.568 286.084V318.797C218.568 319.879 217.692 320.755 216.611 320.755Z" fill="#33475B"/>
<path d="M231.162 178.504C229.821 179.14 228.324 179.502 226.739 179.502C226.23 179.502 225.731 179.463 225.242 179.394C225.731 179.258 226.23 179.13 226.739 179.032C228.168 178.729 229.645 178.543 231.162 178.504Z" fill="#F4A9AD"/>
<path d="M226.739 181.46C226.165 181.46 225.571 181.417 224.971 181.333C224.053 181.204 223.352 180.45 223.29 179.525C223.228 178.601 223.823 177.76 224.715 177.51C225.347 177.333 225.873 177.206 226.37 177.111C227.923 176.781 229.53 176.589 231.111 176.548C232.057 176.527 232.851 177.151 233.065 178.05C233.28 178.949 232.836 179.877 232 180.273C230.34 181.06 228.57 181.46 226.739 181.46Z" fill="#33475B"/>
<path d="M226.911 179.504C232.563 179.504 237.146 174.922 237.146 169.269C237.146 163.616 232.563 159.034 226.911 159.034C221.258 159.034 216.676 163.616 216.676 169.269C216.676 174.922 221.258 179.504 226.911 179.504Z" fill="#E8CBC0"/>
<path d="M226.915 181.462C220.192 181.462 214.723 175.993 214.723 169.27C214.723 162.547 220.192 157.078 226.915 157.078C233.637 157.078 239.107 162.547 239.107 169.27C239.107 175.993 233.637 181.462 226.915 181.462ZM226.915 160.992C222.35 160.992 218.637 164.706 218.637 169.27C218.637 173.834 222.35 177.548 226.915 177.548C231.479 177.548 235.193 173.834 235.193 169.27C235.193 164.706 231.479 160.992 226.915 160.992Z" fill="#33475B"/>
<path d="M227.022 157.906V180.637C227.022 205.305 207.021 225.305 182.354 225.305C157.676 225.305 137.676 205.305 137.676 180.637V157.906C137.676 133.239 157.676 113.229 182.354 113.229C194.692 113.229 205.857 118.229 213.939 126.321C222.022 134.403 227.022 145.568 227.022 157.906Z" fill="#F0DCD5"/>
<path d="M182.356 227.262C156.641 227.262 135.721 206.346 135.721 180.637V157.906C135.721 132.192 156.641 111.271 182.356 111.271C194.815 111.271 206.524 116.125 215.326 124.938C224.131 133.742 228.981 145.451 228.981 157.906V180.637C228.981 206.346 208.065 227.262 182.356 227.262ZM182.356 115.185C158.799 115.185 139.635 134.35 139.635 157.906V180.637C139.635 204.188 158.799 223.348 182.356 223.348C205.907 223.348 225.067 204.188 225.067 180.637V157.906C225.067 146.497 220.624 135.771 212.557 127.704C204.494 119.631 193.768 115.185 182.356 115.185Z" fill="#33475B"/>
<path d="M166.2 169.258C166.2 172.284 163.727 174.757 160.701 174.757C157.676 174.757 155.225 172.284 155.225 169.258C155.225 166.233 157.676 163.781 160.701 163.781C161.209 163.781 161.717 163.848 162.203 164.002C161.585 164.466 161.209 165.217 161.209 166.056C161.209 167.558 162.424 168.75 163.903 168.75C164.765 168.75 165.516 168.375 166.001 167.756C166.134 168.22 166.2 168.728 166.2 169.258Z" fill="#33475B"/>
<path d="M209.477 169.258C209.477 172.284 207.004 174.757 203.979 174.757C200.953 174.757 198.502 172.284 198.502 169.258C198.502 166.233 200.953 163.781 203.979 163.781C204.487 163.781 204.994 163.848 205.48 164.002C204.862 164.466 204.487 165.217 204.487 166.056C204.487 167.558 205.701 168.75 207.181 168.75C208.042 168.75 208.793 168.375 209.279 167.756C209.411 168.22 209.477 168.728 209.477 169.258Z" fill="#33475B"/>
<path d="M179.247 169.271L175.72 180.806C175.015 183.11 176.739 185.44 179.149 185.44H184.002" fill="#F0DCD5"/>
<path d="M184.006 187.397H179.153C177.377 187.397 175.753 186.579 174.697 185.152C173.641 183.724 173.333 181.932 173.852 180.234L177.38 168.699C177.696 167.666 178.79 167.085 179.824 167.4C180.857 167.716 181.439 168.81 181.123 169.844L177.595 181.378C177.443 181.877 177.533 182.404 177.844 182.823C178.154 183.243 178.631 183.483 179.153 183.483H184.006C185.086 183.483 185.963 184.36 185.963 185.44C185.963 186.521 185.086 187.397 184.006 187.397Z" fill="#33475B"/>
<path d="M152.71 182.58C153.811 182.58 154.704 181.688 154.704 180.587C154.704 179.486 153.811 178.594 152.71 178.594C151.609 178.594 150.717 179.486 150.717 180.587C150.717 181.688 151.609 182.58 152.71 182.58Z" fill="#E0BAAB"/>
<path d="M152.37 188.662C153.471 188.662 154.364 187.77 154.364 186.669C154.364 185.568 153.471 184.676 152.37 184.676C151.269 184.676 150.377 185.568 150.377 186.669C150.377 187.77 151.269 188.662 152.37 188.662Z" fill="#E0BAAB"/>
<path d="M157.837 186.027C158.938 186.027 159.83 185.134 159.83 184.033C159.83 182.932 158.938 182.04 157.837 182.04C156.736 182.04 155.844 182.932 155.844 184.033C155.844 185.134 156.736 186.027 157.837 186.027Z" fill="#E0BAAB"/>
<path d="M212.835 190.422C213.936 190.422 214.828 189.53 214.828 188.429C214.828 187.328 213.936 186.436 212.835 186.436C211.734 186.436 210.842 187.328 210.842 188.429C210.842 189.53 211.734 190.422 212.835 190.422Z" fill="#D19781"/>
<path d="M143.734 147.975C143.685 147.984 143.636 147.984 143.587 147.984C143.333 147.994 143.088 147.994 142.844 147.994C143.147 147.994 143.441 147.984 143.734 147.975Z" fill="#E0BAAB"/>
<path d="M142.844 149.951C141.763 149.951 140.887 149.075 140.887 147.994C140.887 146.914 141.763 146.037 142.844 146.037C143.125 146.037 143.397 146.028 143.669 146.019C144.677 145.979 145.561 146.738 145.678 147.75C145.795 148.762 145.117 149.694 144.118 149.894C143.908 149.936 143.729 149.941 143.626 149.942C143.359 149.951 143.101 149.951 142.844 149.951Z" fill="#33475B"/>
<path d="M127.248 142.485C129.958 144.658 133.129 146.272 136.553 147.182C133.099 146.292 129.939 144.677 127.248 142.485Z" fill="#F4A9AD"/>
<path d="M136.555 149.141C136.393 149.141 136.229 149.12 136.065 149.078C132.354 148.121 128.972 146.414 126.012 144.004C125.176 143.323 125.049 142.095 125.726 141.257C126.403 140.418 127.631 140.285 128.472 140.959C130.977 142.967 133.946 144.465 137.056 145.292C138.098 145.569 138.72 146.636 138.447 147.679C138.217 148.558 137.424 149.141 136.555 149.141Z" fill="#33475B"/>
<path d="M137.352 147.379C138.066 147.536 138.78 147.673 139.514 147.77C139.201 147.731 138.888 147.682 138.585 147.633C138.174 147.565 137.753 147.477 137.352 147.379Z" fill="#F4A9AD"/>
<path d="M139.519 149.727C139.438 149.727 139.356 149.722 139.273 149.711C138.937 149.669 138.601 149.617 138.275 149.564C137.817 149.488 137.354 149.393 136.89 149.279C135.848 149.025 135.205 147.98 135.447 146.936C135.689 145.892 136.724 145.237 137.773 145.467C138.536 145.634 139.172 145.749 139.775 145.83C140.843 145.973 141.595 146.952 141.457 148.02C141.33 149.007 140.488 149.727 139.519 149.727Z" fill="#33475B"/>
<path d="M147.609 147.526V147.536C147.315 147.585 147.032 147.634 146.738 147.683C147.032 147.634 147.315 147.585 147.609 147.526Z" fill="#F4A9AD"/>
<path d="M146.734 149.639C145.795 149.639 144.966 148.961 144.806 148.004C144.788 147.894 144.779 147.786 144.779 147.678C144.78 146.739 145.457 145.911 146.414 145.751L146.62 145.717C146.821 145.682 147.021 145.646 147.224 145.606C147.799 145.492 148.395 145.64 148.849 146.012C149.301 146.384 149.564 146.939 149.564 147.525V147.535C149.564 148.492 148.872 149.309 147.928 149.465L147.265 149.577C147.197 149.588 147.128 149.6 147.059 149.612C146.95 149.63 146.841 149.639 146.734 149.639Z" fill="#33475B"/>
<path d="M226.738 158.602V159.032C222.502 158.993 218.637 157.379 215.603 154.776C212.863 152.398 210.809 149.218 209.84 145.646C211.904 153.073 218.685 158.533 226.738 158.602Z" fill="#F4A9AD"/>
<path d="M226.741 160.99C226.735 160.99 226.729 160.99 226.723 160.99C222.237 160.948 217.836 159.269 214.331 156.261C211.216 153.559 209.014 150.068 207.953 146.159C207.671 145.118 208.284 144.045 209.324 143.76C210.365 143.475 211.44 144.084 211.727 145.123C213.597 151.848 219.778 156.586 226.758 156.645C227.832 156.654 228.698 157.528 228.698 158.602V159.033C228.698 159.555 228.489 160.055 228.118 160.423C227.752 160.786 227.256 160.99 226.741 160.99Z" fill="#33475B"/>
<path d="M257.034 206.245C255.88 218.172 246.183 227.771 234.245 228.828C223.775 229.748 214.46 224.268 209.842 215.844C209.812 215.795 209.783 215.736 209.754 215.687C207.826 212.125 206.73 208.045 206.73 203.71C206.73 195.814 210.351 188.778 216.026 184.15C218.697 181.968 221.828 180.324 225.243 179.395C225.732 179.258 226.231 179.13 226.74 179.033C226.838 179.013 226.926 178.993 227.024 178.974C227.65 178.847 228.277 178.749 228.922 178.671C231.232 178.387 233.424 177.359 234.852 175.51C236.183 173.788 236.975 171.616 236.975 169.267C236.975 166.449 235.83 163.895 233.991 162.046C232.191 160.246 229.744 159.111 227.024 159.042C226.926 159.032 226.838 159.032 226.74 159.032C222.503 158.993 218.638 157.379 215.605 154.776C212.865 152.398 210.81 149.218 209.842 145.647C209.773 145.412 209.705 145.167 209.656 144.932C209.597 144.678 209.548 144.423 209.499 144.169C209.45 143.895 209.402 143.621 209.362 143.337C209.313 143.014 209.284 142.691 209.255 142.359C204.851 144.179 200.028 145.177 194.959 145.177C183.364 145.177 173.002 139.932 166.103 131.674C164.596 135.823 162.013 139.453 158.696 142.222C155.565 144.854 151.768 146.713 147.61 147.525C147.316 147.584 147.032 147.633 146.739 147.682C146.25 147.76 145.761 147.829 145.261 147.868C145.046 147.897 144.831 147.917 144.606 147.927C144.322 147.956 144.028 147.966 143.735 147.975C143.441 147.985 143.148 147.995 142.844 147.995H142.805C142.179 147.995 141.563 147.966 140.956 147.917C140.858 147.917 140.77 147.907 140.672 147.897C140.496 147.887 140.33 147.868 140.163 147.848C139.948 147.828 139.733 147.799 139.518 147.77C139.293 147.741 139.077 147.711 138.862 147.662C138.089 150.95 137.678 154.384 137.678 157.907V180.638C137.678 197.477 146.993 212.135 160.761 219.748C156.69 224.699 150.878 228.241 144.058 229.366C129.097 231.832 114.958 221.705 112.492 206.744C110.858 196.88 114.713 187.37 121.817 181.332C119.556 178.083 117.971 174.297 117.277 170.138C115.525 159.473 120.153 149.238 128.373 143.337C127.991 143.063 127.609 142.78 127.248 142.486C127.238 142.486 127.238 142.486 127.238 142.486C126.817 142.143 126.416 141.801 126.024 141.439C125.016 140.519 124.087 139.521 123.245 138.445C120.633 135.089 118.862 131.038 118.255 126.625C118.245 126.605 118.235 126.586 118.245 126.566C118.206 126.263 118.167 125.959 118.138 125.646C118.128 125.578 118.118 125.509 118.118 125.441C118.089 125.079 118.059 124.717 118.05 124.355C118.03 123.973 118.02 123.591 118.02 123.21C118.02 121.928 118.118 120.666 118.304 119.433C118.431 118.621 118.597 117.809 118.803 117.016C119.654 113.669 121.2 110.607 123.265 107.965C123.646 107.476 124.048 107.006 124.459 106.546C128.989 101.556 135.535 98.4247 142.805 98.4247C143.226 98.4247 143.647 98.4343 144.068 98.4637C144.332 98.4736 144.596 98.4834 144.86 98.5126C145.946 98.6007 147.003 98.7573 148.04 98.9823C148.304 99.041 148.569 99.0998 148.843 99.1682C149.156 99.2465 149.479 99.3346 149.802 99.4324C150.115 99.5206 150.428 99.6184 150.741 99.726C151.025 99.8238 151.299 99.9216 151.582 100.029C151.974 100.166 152.356 100.333 152.737 100.499C152.962 100.597 153.177 100.695 153.403 100.802C153.608 100.9 153.813 100.998 154.019 101.106C154.303 101.243 154.577 101.389 154.851 101.546C155.085 101.673 155.33 101.81 155.555 101.957C155.643 102.006 155.731 102.065 155.819 102.113C159.068 98.1017 164.029 95.5283 169.597 95.5283C176.446 95.5283 182.385 99.4129 185.311 105.108C187.434 104.795 189.597 104.628 191.808 104.628C216.779 104.628 236.907 125.323 235.997 150.5C243.698 153.25 249.216 160.617 249.216 169.267C249.216 174.072 247.514 178.485 244.676 181.929C252.827 186.694 258.042 195.922 257.034 206.245Z" fill="#F4A9AD"/>
<path d="M139.572 231.692C125.435 231.692 112.93 221.451 110.559 207.062C108.976 197.504 112.295 187.677 119.262 181.001C117.293 177.786 115.977 174.248 115.344 170.461C113.656 160.177 117.41 150.01 125.205 143.336C125.028 143.18 124.858 143.028 124.694 142.876C123.608 141.885 122.599 140.797 121.702 139.65C118.843 135.978 116.99 131.619 116.334 127.032C116.307 126.916 116.291 126.799 116.285 126.681C116.25 126.409 116.218 126.145 116.192 125.876C116.18 125.793 116.166 125.679 116.161 125.545C116.131 125.165 116.102 124.786 116.091 124.407C116.072 124.04 116.061 123.625 116.061 123.21C116.061 121.855 116.164 120.486 116.367 119.141C116.508 118.241 116.689 117.365 116.907 116.525C117.808 112.981 119.429 109.693 121.721 106.76C122.088 106.289 122.506 105.792 122.997 105.242C128.064 99.6615 135.279 96.4676 142.803 96.4676C143.308 96.4676 143.755 96.4812 144.17 96.5091C144.435 96.5192 144.732 96.5309 145.044 96.5644C146.197 96.6593 147.344 96.8292 148.453 97.0699C148.744 97.1344 149.024 97.1968 149.315 97.2694C149.659 97.3556 150.013 97.4522 150.367 97.5593C150.679 97.6468 151.027 97.7557 151.376 97.8757C151.672 97.9782 151.957 98.0797 152.252 98.191C152.7 98.3488 153.111 98.5283 153.509 98.7017C153.762 98.8111 153.998 98.9187 154.246 99.0373C154.46 99.139 154.678 99.2435 154.896 99.3571C155.065 99.439 155.235 99.526 155.409 99.6196C159.115 95.7567 164.198 93.5713 169.595 93.5713C176.519 93.5713 182.825 97.148 186.368 102.993C188.18 102.78 190.003 102.671 191.806 102.671C204.456 102.671 216.259 107.686 225.042 116.792C233.503 125.564 238.067 137.019 237.98 149.18C245.926 152.619 251.171 160.519 251.171 169.267C251.171 173.596 249.877 177.834 247.492 181.412C255.477 186.993 259.942 196.585 258.98 206.435C257.725 219.391 247.395 229.628 234.416 230.777C223.634 231.724 213.32 226.241 208.136 216.807C208.116 216.773 208.097 216.737 208.077 216.701C208.062 216.675 208.045 216.645 208.031 216.618C205.899 212.678 204.772 208.215 204.772 203.71C204.772 195.506 208.422 187.824 214.787 182.633C217.737 180.224 221.081 178.499 224.727 177.507C225.346 177.333 225.872 177.206 226.369 177.111L226.638 177.055C227.287 176.923 227.958 176.816 228.684 176.728C230.644 176.487 232.285 175.63 233.301 174.314C234.423 172.862 235.016 171.117 235.016 169.267C235.016 167.066 234.159 164.992 232.602 163.426C231.091 161.915 229.09 161.052 226.973 160.998C226.924 160.997 226.876 160.994 226.827 160.99C226.804 160.989 226.772 160.99 226.738 160.99C222.235 160.948 217.834 159.269 214.329 156.261C211.214 153.558 209.011 150.067 207.951 146.159C207.883 145.925 207.801 145.635 207.738 145.334C207.717 145.242 207.696 145.144 207.675 145.044C203.603 146.431 199.335 147.134 194.957 147.134C184.248 147.134 174.11 142.834 166.688 135.24C165.051 138.485 162.758 141.379 159.948 143.724C156.519 146.607 152.379 148.587 147.983 149.446C147.677 149.507 147.373 149.56 147.059 149.612C146.625 149.682 146.067 149.765 145.467 149.814C145.227 149.846 144.99 149.867 144.747 149.879C144.416 149.911 144.103 149.921 143.798 149.931C142.839 149.964 141.876 149.953 140.859 149.872C140.742 149.869 140.631 149.86 140.514 149.848C140.474 149.846 140.435 149.843 140.397 149.84C139.89 152.488 139.633 155.194 139.633 157.907V180.637C139.633 196.177 148.091 210.507 161.706 218.036C162.215 218.316 162.572 218.81 162.681 219.38C162.79 219.952 162.64 220.542 162.271 220.991C157.76 226.477 151.405 230.137 144.375 231.297C142.761 231.563 141.156 231.692 139.572 231.692ZM128.361 140.879C128.401 140.906 128.44 140.935 128.479 140.966C128.766 141.199 129.094 141.448 129.512 141.748C130.024 142.115 130.328 142.707 130.328 143.338C130.328 143.968 130.024 144.56 129.512 144.927C121.57 150.629 117.62 160.167 119.206 169.821C119.838 173.605 121.257 177.104 123.421 180.214C123.997 181.041 123.85 182.17 123.082 182.823C116.285 188.6 112.966 197.643 114.421 206.424C116.707 220.297 129.861 229.724 143.738 227.435C149.066 226.556 153.947 224.021 157.701 220.22C144.081 211.731 135.719 196.783 135.719 180.637V157.907C135.719 154.3 136.135 150.702 136.955 147.214C137.201 146.167 138.246 145.514 139.294 145.754C139.45 145.789 139.606 145.808 139.769 145.829C139.967 145.857 140.153 145.882 140.339 145.899C140.356 145.901 140.374 145.903 140.391 145.905C140.518 145.92 140.645 145.936 140.779 145.943C140.808 145.945 140.837 145.947 140.866 145.95L140.972 145.96C141.025 145.96 141.059 145.962 141.112 145.966C142.069 146.043 142.938 146.044 143.667 146.02C143.915 146.011 144.163 146.005 144.402 145.98C144.441 145.976 144.48 145.973 144.519 145.971C144.682 145.964 144.838 145.95 144.995 145.929C145.032 145.924 145.069 145.92 145.106 145.917C145.482 145.887 145.89 145.836 146.428 145.749C146.688 145.706 146.952 145.661 147.225 145.606C150.979 144.873 154.507 143.185 157.435 140.724C160.532 138.138 162.891 134.779 164.262 131.005C164.501 130.347 165.073 129.867 165.763 129.746C166.451 129.625 167.155 129.881 167.603 130.419C174.399 138.554 184.368 143.22 194.957 143.22C199.661 143.22 204.22 142.322 208.505 140.55C209.081 140.312 209.735 140.362 210.269 140.686C210.802 141.01 211.148 141.567 211.202 142.188C211.228 142.479 211.252 142.761 211.295 143.043C211.335 143.327 211.379 143.575 211.424 143.823C211.464 144.031 211.508 144.261 211.561 144.492C211.609 144.718 211.664 144.913 211.719 145.1C212.572 148.245 214.404 151.144 216.886 153.298C219.724 155.733 223.141 157.042 226.756 157.076C226.758 157.076 226.76 157.076 226.762 157.076C226.882 157.076 227.002 157.078 227.132 157.088C230.236 157.181 233.16 158.449 235.373 160.662C237.668 162.97 238.93 166.025 238.93 169.267C238.93 171.953 238.031 174.594 236.398 176.707C234.738 178.856 232.167 180.243 229.159 180.613C228.533 180.689 227.962 180.78 227.411 180.892L227.122 180.952C226.72 181.029 226.294 181.132 225.769 181.279C222.643 182.13 219.785 183.605 217.262 185.666C211.811 190.111 208.685 196.688 208.685 203.71C208.685 207.556 209.644 211.365 211.458 214.728C211.478 214.762 211.497 214.797 211.516 214.833C211.529 214.854 211.544 214.881 211.556 214.903C215.99 222.99 224.828 227.69 234.073 226.879C244.996 225.912 254.029 216.959 255.084 206.056C255.084 206.056 255.084 206.055 255.084 206.056C255.983 196.853 251.616 188.254 243.686 183.619C243.191 183.329 242.848 182.837 242.748 182.272C242.647 181.708 242.799 181.127 243.164 180.685C245.804 177.48 247.257 173.426 247.257 169.267C247.257 161.69 242.467 154.889 235.337 152.343C234.533 152.056 234.008 151.282 234.039 150.429C234.459 138.824 230.263 127.843 222.225 119.509C214.186 111.175 203.383 106.585 191.806 106.585C189.747 106.585 187.657 106.74 185.595 107.044C184.763 107.166 183.951 106.747 183.569 106.002C180.87 100.749 175.515 97.4853 169.595 97.4853C164.821 97.4853 160.354 99.621 157.338 103.345C156.74 104.084 155.697 104.286 154.867 103.824C154.8 103.787 154.733 103.747 154.666 103.705L154.602 103.667C154.566 103.647 154.52 103.619 154.485 103.597C154.307 103.48 154.088 103.359 153.917 103.267C153.624 103.1 153.391 102.977 153.165 102.868C153.147 102.859 153.128 102.849 153.11 102.839C152.927 102.744 152.743 102.657 152.56 102.57C152.353 102.471 152.159 102.383 151.956 102.295C151.59 102.135 151.254 101.988 150.935 101.877C150.918 101.871 150.902 101.865 150.886 101.859C150.621 101.759 150.365 101.667 150.1 101.576C149.825 101.481 149.547 101.395 149.27 101.316C148.941 101.217 148.649 101.138 148.366 101.067C148.11 101.003 147.862 100.948 147.614 100.893C146.674 100.689 145.69 100.544 144.7 100.463C144.681 100.462 144.661 100.46 144.642 100.458C144.426 100.434 144.21 100.427 143.993 100.419C143.972 100.419 143.951 100.417 143.929 100.416C143.598 100.393 143.229 100.382 142.803 100.382C136.381 100.382 130.221 103.108 125.906 107.862C125.477 108.341 125.125 108.76 124.806 109.168C122.849 111.673 121.467 114.476 120.698 117.498C120.51 118.223 120.355 118.973 120.235 119.736C120.063 120.878 119.975 122.05 119.975 123.21C119.975 123.558 119.984 123.906 120.002 124.254C120.013 124.628 120.04 124.955 120.067 125.281C120.069 125.307 120.07 125.332 120.071 125.357C120.076 125.392 120.082 125.439 120.084 125.463C120.111 125.742 120.145 126.013 120.18 126.283C120.185 126.308 120.188 126.333 120.192 126.358C120.736 130.315 122.325 134.079 124.788 137.243C125.548 138.215 126.408 139.141 127.342 139.994C127.653 140.281 127.985 140.569 128.361 140.879ZM120.192 126.715C120.173 126.957 120.111 127.197 120.007 127.414C120.113 127.192 120.175 126.954 120.192 126.715Z" fill="#33475B"/>
<path d="M118.254 126.625C118.86 131.038 120.632 135.089 123.244 138.445C120.759 135.294 119.027 131.527 118.352 127.359C118.313 127.114 118.274 126.869 118.254 126.625Z" fill="#F4A9AD"/>
<path d="M123.243 140.402C122.665 140.402 122.092 140.147 121.706 139.657C118.951 136.165 117.123 132.02 116.418 127.672C116.374 127.396 116.327 127.099 116.301 126.781C116.217 125.725 116.987 124.794 118.041 124.679C119.097 124.566 120.047 125.309 120.191 126.359C120.735 130.315 122.324 134.079 124.787 137.243C125.449 138.094 125.298 139.32 124.449 139.985C124.091 140.266 123.666 140.402 123.243 140.402Z" fill="#33475B"/>
<path d="M143.734 147.975C143.685 147.984 143.636 147.984 143.587 147.984C143.333 147.994 143.088 147.994 142.844 147.994C143.147 147.994 143.441 147.984 143.734 147.975Z" fill="#F4A9AD"/>
<path d="M142.844 149.951C141.763 149.951 140.887 149.075 140.887 147.994C140.887 146.914 141.763 146.037 142.844 146.037C143.125 146.037 143.397 146.028 143.669 146.019C144.677 145.979 145.561 146.738 145.678 147.75C145.795 148.762 145.117 149.694 144.118 149.894C143.908 149.936 143.729 149.941 143.626 149.942C143.359 149.951 143.101 149.951 142.844 149.951Z" fill="#33475B"/>
<path d="M142.844 149.948C141.763 149.948 140.887 149.072 140.887 147.991C140.887 146.911 141.763 146.034 142.844 146.034C155.43 146.034 165.67 135.794 165.67 123.208C165.67 122.127 166.547 121.251 167.627 121.251C168.708 121.251 169.584 122.127 169.584 123.208C169.584 137.953 157.588 149.948 142.844 149.948Z" fill="#33475B"/>
<path d="M137.677 159.032V179.502C132.021 179.502 127.441 174.923 127.441 169.267C127.441 163.621 132.021 159.032 137.677 159.032Z" fill="#E8CBC0"/>
<path d="M137.678 181.46C130.956 181.46 125.486 175.991 125.486 169.268C125.486 162.546 130.956 157.076 137.678 157.076C138.759 157.076 139.635 157.952 139.635 159.033V179.503C139.635 180.584 138.759 181.46 137.678 181.46ZM135.721 161.224C132.098 162.105 129.4 165.378 129.4 169.268C129.4 173.159 132.098 176.431 135.721 177.313V161.224Z" fill="#33475B"/>
<path d="M155.816 102.114C158.502 104.04 161.753 105.508 165.178 106.395C167.729 107.055 170.376 107.393 172.958 107.357" fill="#F4A9AD"/>
<path d="M172.577 109.315C169.975 109.315 167.324 108.97 164.69 108.289C160.986 107.33 157.524 105.744 154.678 103.704C153.8 103.074 153.598 101.852 154.228 100.973C154.858 100.095 156.081 99.8933 156.959 100.523C159.417 102.285 162.429 103.66 165.671 104.5C168.105 105.13 170.548 105.433 172.933 105.399C172.942 105.399 172.951 105.399 172.96 105.399C174.028 105.399 174.902 106.257 174.917 107.329C174.932 108.409 174.068 109.298 172.987 109.313C172.851 109.314 172.714 109.315 172.577 109.315Z" fill="#33475B"/>
<path d="M126.984 125.165C125.903 125.165 125.027 124.289 125.027 123.208C125.027 113.385 133.019 105.393 142.843 105.393C143.923 105.393 144.8 106.269 144.8 107.35C144.8 108.43 143.923 109.307 142.843 109.307C135.178 109.307 128.941 115.543 128.941 123.208C128.941 124.289 128.065 125.165 126.984 125.165Z" fill="white"/>
<path d="M214.973 205.675C213.892 205.675 213.016 204.799 213.016 203.718C213.016 193.281 221.507 184.79 231.944 184.79C233.025 184.79 233.901 185.666 233.901 186.747C233.901 187.828 233.025 188.704 231.944 188.704C223.665 188.704 216.93 195.439 216.93 203.718C216.93 204.799 216.053 205.675 214.973 205.675Z" fill="white"/>
<path d="M121.217 206.068C120.136 201.233 121.236 196.42 123.863 192.653L121.217 206.068Z" fill="#F4A9AD"/>
<path d="M121.214 208.025C120.318 208.025 119.51 207.405 119.306 206.494C118.152 201.329 119.228 195.875 122.258 191.533C122.876 190.646 124.097 190.429 124.983 191.048C125.869 191.666 126.086 192.886 125.468 193.772C123.064 197.217 122.211 201.543 123.126 205.641C123.362 206.696 122.698 207.741 121.643 207.977C121.5 208.009 121.356 208.025 121.214 208.025Z" fill="white"/>
<path d="M153.37 162.77C152.914 162.77 152.456 162.611 152.085 162.288C151.271 161.578 151.186 160.342 151.896 159.527C156.055 154.754 162.827 153.061 168.745 155.314C169.755 155.698 170.262 156.828 169.878 157.838C169.493 158.849 168.363 159.356 167.353 158.972C162.959 157.3 157.933 158.556 154.846 162.098C154.459 162.543 153.916 162.77 153.37 162.77Z" fill="#33475B"/>
<path d="M211.328 162.769C210.782 162.769 210.238 162.542 209.851 162.098C206.764 158.557 201.739 157.3 197.345 158.971C196.333 159.356 195.204 158.848 194.82 157.839C194.435 156.828 194.943 155.698 195.953 155.314C201.872 153.061 208.643 154.755 212.802 159.527C213.512 160.342 213.428 161.578 212.612 162.288C212.242 162.611 211.784 162.769 211.328 162.769Z" fill="#33475B"/>
<path d="M182.358 200.962C178.757 200.962 175.189 200.032 172.04 198.273C171.096 197.746 170.759 196.554 171.286 195.61C171.813 194.667 173.006 194.33 173.949 194.856C176.516 196.29 179.424 197.048 182.358 197.048C185.333 197.048 188.237 196.292 190.756 194.863C191.696 194.33 192.891 194.659 193.424 195.599C193.958 196.538 193.628 197.733 192.688 198.266C189.581 200.03 186.01 200.962 182.358 200.962Z" fill="#33475B"/>
</g>
</svg>
