<svg width="132" height="88" viewBox="0 0 132 88" fill="none" xmlns="http://www.w3.org/2000/svg">
<mask id="mask0_2056_22517" style="mask-type:alpha" maskUnits="userSpaceOnUse" x="32" y="10" width="68" height="68">
<path d="M65.9996 77.2766C84.3769 77.2766 99.2746 62.3788 99.2746 44.0016C99.2746 25.6243 84.3769 10.7266 65.9996 10.7266C47.6223 10.7266 32.7246 25.6243 32.7246 44.0016C32.7246 62.3788 47.6223 77.2766 65.9996 77.2766Z" fill="#C4C4C4"/>
</mask>
<g mask="url(#mask0_2056_22517)">
<path d="M64.5389 52.332H68.6652C77.9963 52.332 85.5606 59.8963 85.5606 69.2274V82.1755H47.6436V69.2274C47.6436 59.8963 55.2078 52.332 64.5389 52.332Z" fill="#7BDED2"/>
<path d="M85.5606 82.7127H47.6436C47.3465 82.7127 47.1055 82.4716 47.1055 82.1742V69.2264C47.1055 59.6136 54.9261 51.793 64.539 51.793H68.6654C78.2782 51.793 86.0988 59.6136 86.0988 69.2264V82.1742C86.0988 82.4716 85.8579 82.7127 85.5606 82.7127ZM48.1818 81.6364H85.0225V69.2264C85.0225 60.2071 77.6847 52.8693 68.6654 52.8693H64.539C55.5196 52.8693 48.1818 60.2071 48.1818 69.2264V81.6364Z" fill="#33475B"/>
<path d="M57.1378 82.7131C56.8405 82.7131 56.5996 82.472 56.5996 82.1753V73.1788C56.5996 72.8816 56.8405 72.6406 57.1378 72.6406C57.435 72.6406 57.676 72.8816 57.676 73.1788V82.1753C57.676 82.472 57.435 82.7131 57.1378 82.7131Z" fill="#33475B"/>
<path d="M76.0675 82.7134C75.7702 82.7134 75.5293 82.4724 75.5293 82.1749V73.1788C75.5293 72.8816 75.7702 72.6406 76.0675 72.6406C76.3647 72.6406 76.6056 72.8816 76.6056 73.1788V82.1749C76.6056 82.4724 76.3647 82.7134 76.0675 82.7134Z" fill="#33475B"/>
<path d="M80.0683 43.5938C79.6997 43.7687 79.288 43.8682 78.8521 43.8682C78.7121 43.8682 78.575 43.8575 78.4404 43.8386C78.575 43.801 78.7121 43.766 78.8521 43.7391C79.245 43.6557 79.6513 43.6045 80.0683 43.5938Z" fill="#F4A9AD"/>
<path d="M78.8522 44.4094C78.6944 44.4094 78.5308 44.3976 78.3659 44.3745C78.1135 44.3391 77.9206 44.1317 77.9036 43.8774C77.8866 43.6233 78.0502 43.3919 78.2955 43.3232C78.4694 43.2746 78.6141 43.2397 78.7508 43.2135C79.1776 43.1227 79.6197 43.0699 80.0545 43.0587C80.3147 43.0528 80.5329 43.2244 80.5919 43.4718C80.6509 43.719 80.5288 43.974 80.299 44.0829C79.8425 44.2995 79.3556 44.4094 78.8522 44.4094Z" fill="#33475B"/>
<path d="M78.8996 43.8714C80.454 43.8714 81.7142 42.6113 81.7142 41.0568C81.7142 39.5023 80.454 38.2422 78.8996 38.2422C77.3451 38.2422 76.085 39.5023 76.085 41.0568C76.085 42.6113 77.3451 43.8714 78.8996 43.8714Z" fill="#E8CBC0"/>
<path d="M78.9007 44.4086C77.0519 44.4086 75.5479 42.9046 75.5479 41.0559C75.5479 39.2072 77.0519 37.7031 78.9007 37.7031C80.7494 37.7031 82.2534 39.2072 82.2534 41.0559C82.2534 42.9046 80.7494 44.4086 78.9007 44.4086ZM78.9007 38.7795C77.6453 38.7795 76.6242 39.8007 76.6242 41.0559C76.6242 42.3111 77.6453 43.3324 78.9007 43.3324C80.156 43.3324 81.1771 42.3111 81.1771 41.0559C81.1771 39.8007 80.156 38.7795 78.9007 38.7795Z" fill="#33475B"/>
<path d="M78.9305 37.931V44.1818C78.9305 50.9655 73.4304 56.4655 66.6468 56.4655C59.8604 56.4655 54.3604 50.9655 54.3604 44.1818V37.931C54.3604 31.1473 59.8604 25.6445 66.6468 25.6445C70.0399 25.6445 73.1102 27.0196 75.3328 29.245C77.5555 31.4676 78.9305 34.5379 78.9305 37.931Z" fill="#F0DCD5"/>
<path d="M66.6469 57.0027C59.5754 57.0027 53.8223 51.2509 53.8223 44.1809V37.93C53.8223 30.8585 59.5754 25.1055 66.6469 25.1055C70.0732 25.1055 73.2932 26.4401 75.7136 28.8636C78.135 31.285 79.4687 34.5049 79.4687 37.93V44.1809C79.4687 51.2509 73.7169 57.0027 66.6469 57.0027ZM66.6469 26.1818C60.1688 26.1818 54.8986 31.452 54.8986 37.93V44.1809C54.8986 50.6574 60.1688 55.9264 66.6469 55.9264C73.1235 55.9264 78.3924 50.6574 78.3924 44.1809V37.93C78.3924 34.7924 77.1707 31.8428 74.9524 29.6245C72.7349 27.4044 69.7854 26.1818 66.6469 26.1818Z" fill="#33475B"/>
<path d="M62.2038 41.053C62.2038 41.885 61.5236 42.5651 60.6917 42.5651C59.8597 42.5651 59.1855 41.885 59.1855 41.053C59.1855 40.221 59.8597 39.5469 60.6917 39.5469C60.8313 39.5469 60.971 39.5651 61.1046 39.6077C60.9345 39.7352 60.8313 39.9416 60.8313 40.1724C60.8313 40.5854 61.1653 40.9133 61.5722 40.9133C61.809 40.9133 62.0155 40.8101 62.1491 40.64C62.1856 40.7675 62.2038 40.9072 62.2038 41.053Z" fill="#33475B"/>
<path d="M74.1052 41.053C74.1052 41.885 73.425 42.5651 72.593 42.5651C71.761 42.5651 71.0869 41.885 71.0869 41.053C71.0869 40.221 71.761 39.5469 72.593 39.5469C72.7327 39.5469 72.8724 39.5651 73.0059 39.6077C72.8359 39.7352 72.7327 39.9416 72.7327 40.1724C72.7327 40.5854 73.0667 40.9133 73.4735 40.9133C73.7104 40.9133 73.9169 40.8101 74.0505 40.64C74.0869 40.7675 74.1052 40.9072 74.1052 41.053Z" fill="#33475B"/>
<path d="M65.7922 41.0547L64.8221 44.2266C64.6283 44.8604 65.1023 45.5011 65.7651 45.5011H67.0997" fill="#F0DCD5"/>
<path d="M67.1003 46.0385H65.7658C65.2775 46.0385 64.8309 45.8133 64.5405 45.4208C64.2501 45.0283 64.1654 44.5354 64.3081 44.0684L65.2782 40.8965C65.3652 40.6122 65.6659 40.4525 65.9502 40.5392C66.2344 40.6262 66.3944 40.927 66.3075 41.2113L65.3375 44.3832C65.2954 44.5204 65.3204 44.6652 65.4057 44.7806C65.491 44.896 65.6223 44.9621 65.7658 44.9621H67.1003C67.3975 44.9621 67.6385 45.2031 67.6385 45.5003C67.6385 45.7975 67.3975 46.0385 67.1003 46.0385Z" fill="#33475B"/>
<path d="M58.4944 44.7174C58.7972 44.7174 59.0427 44.472 59.0427 44.1692C59.0427 43.8665 58.7972 43.6211 58.4944 43.6211C58.1917 43.6211 57.9463 43.8665 57.9463 44.1692C57.9463 44.472 58.1917 44.7174 58.4944 44.7174Z" fill="#E0BAAB"/>
<path d="M58.4007 46.3893C58.7035 46.3893 58.9489 46.1439 58.9489 45.8411C58.9489 45.5384 58.7035 45.293 58.4007 45.293C58.098 45.293 57.8525 45.5384 57.8525 45.8411C57.8525 46.1439 58.098 46.3893 58.4007 46.3893Z" fill="#E0BAAB"/>
<path d="M59.9046 45.6627C60.2073 45.6627 60.4528 45.4173 60.4528 45.1146C60.4528 44.8118 60.2073 44.5664 59.9046 44.5664C59.6019 44.5664 59.3564 44.8118 59.3564 45.1146C59.3564 45.4173 59.6019 45.6627 59.9046 45.6627Z" fill="#E0BAAB"/>
<path d="M75.0286 46.8737C75.3314 46.8737 75.5768 46.6282 75.5768 46.3255C75.5768 46.0228 75.3314 45.7773 75.0286 45.7773C74.7259 45.7773 74.4805 46.0228 74.4805 46.3255C74.4805 46.6282 74.7259 46.8737 75.0286 46.8737Z" fill="#D19781"/>
<path d="M56.0261 35.1992C56.0126 35.2019 55.9992 35.2019 55.9857 35.2019C55.9158 35.2046 55.8485 35.2047 55.7812 35.2047C55.8646 35.2047 55.9454 35.2019 56.0261 35.1992Z" fill="#E0BAAB"/>
<path d="M55.7813 35.742C55.4842 35.742 55.2432 35.501 55.2432 35.2038C55.2432 34.9066 55.4842 34.6656 55.7813 34.6656C55.8586 34.6656 55.9335 34.6631 56.0083 34.6606C56.2855 34.6494 56.5286 34.8582 56.5609 35.1365C56.593 35.4148 56.4064 35.6712 56.1317 35.7261C56.0739 35.7377 56.0249 35.7391 55.9963 35.7393C55.923 35.7418 55.8522 35.742 55.7813 35.742Z" fill="#33475B"/>
<path d="M51.4922 33.6914C52.2375 34.2888 53.1094 34.7328 54.0512 34.983C53.1013 34.7381 52.2322 34.2942 51.4922 33.6914Z" fill="#F4A9AD"/>
<path d="M54.0516 35.5205C54.0072 35.5205 53.962 35.5149 53.9169 35.5033C52.8964 35.2402 51.9662 34.7707 51.1524 34.1078C50.9226 33.9206 50.8875 33.5829 51.0737 33.3523C51.2599 33.1218 51.5975 33.0852 51.8288 33.2706C52.5179 33.8228 53.3341 34.2347 54.1895 34.462C54.476 34.5382 54.647 34.8317 54.5719 35.1184C54.5087 35.3603 54.2905 35.5205 54.0516 35.5205Z" fill="#33475B"/>
<path d="M54.2705 35.0352C54.4669 35.0783 54.6634 35.1159 54.8652 35.1428C54.7791 35.1321 54.693 35.1186 54.6096 35.1052C54.4966 35.0863 54.3808 35.0621 54.2705 35.0352Z" fill="#F4A9AD"/>
<path d="M54.867 35.6802C54.8447 35.6802 54.8222 35.6789 54.7995 35.676C54.707 35.6644 54.6146 35.6501 54.525 35.6355C54.399 35.6146 54.2718 35.5883 54.1441 35.5571C53.8577 35.4872 53.6809 35.2 53.7474 34.9128C53.8139 34.6257 54.0986 34.4456 54.387 34.5087C54.5968 34.5547 54.7717 34.5864 54.9376 34.6086C55.2313 34.6478 55.4381 34.9171 55.4 35.211C55.3651 35.4822 55.1336 35.6802 54.867 35.6802Z" fill="#33475B"/>
<path d="M57.092 35.0781V35.0808C57.0112 35.0943 56.9332 35.1077 56.8525 35.1212C56.9332 35.1077 57.0112 35.0943 57.092 35.0781Z" fill="#F4A9AD"/>
<path d="M56.851 35.6584C56.5928 35.6584 56.3649 35.4719 56.3209 35.2088C56.3159 35.1787 56.3135 35.1488 56.3135 35.1193C56.3135 34.8611 56.5 34.6332 56.7631 34.5893L56.8196 34.5798C56.875 34.5704 56.9298 34.5605 56.9859 34.5493C57.1439 34.5181 57.3079 34.5588 57.4325 34.6611C57.5571 34.7633 57.6293 34.916 57.6293 35.0771V35.0798C57.6293 35.3431 57.439 35.5676 57.1792 35.6107L56.9972 35.6414C56.9783 35.6446 56.9594 35.6478 56.9403 35.651C56.9103 35.656 56.8805 35.6584 56.851 35.6584Z" fill="#33475B"/>
<path d="M78.8522 38.1213V38.2397C77.6871 38.2289 76.6242 37.7849 75.79 37.0692C75.0365 36.4153 74.4715 35.5407 74.2051 34.5586C74.7729 36.6009 76.6376 38.1024 78.8522 38.1213Z" fill="#F4A9AD"/>
<path d="M78.8534 38.7771C78.8517 38.7771 78.8501 38.7771 78.8484 38.7771C77.6149 38.7657 76.4047 38.3039 75.4408 37.4768C74.5841 36.7335 73.9785 35.7735 73.6869 34.6987C73.6092 34.4125 73.7778 34.1174 74.0637 34.0388C74.3501 33.9604 74.6455 34.128 74.7247 34.4137C75.2388 36.263 76.9385 37.566 78.858 37.5823C79.1533 37.5848 79.3916 37.825 79.3916 38.1205V38.2389C79.3916 38.3826 79.3341 38.5201 79.2322 38.6212C79.1314 38.7212 78.9952 38.7771 78.8534 38.7771Z" fill="#33475B"/>
<path d="M87.1837 51.2243C86.8662 54.5044 84.1996 57.1441 80.9167 57.4348C78.0375 57.6877 75.4758 56.1809 74.2057 53.864C74.1976 53.8506 74.1896 53.8344 74.1815 53.821C73.6514 52.8415 73.3501 51.7194 73.3501 50.5274C73.3501 48.3559 74.3457 46.4211 75.9064 45.1484C76.641 44.5483 77.502 44.0963 78.4411 43.8406C78.5757 43.8029 78.7129 43.7679 78.8529 43.741C78.8798 43.7357 78.9039 43.7302 78.9309 43.7249C79.1031 43.6899 79.2753 43.663 79.4529 43.6415C80.088 43.5635 80.6907 43.2809 81.0836 42.7723C81.4495 42.2987 81.6675 41.7013 81.6675 41.0556C81.6675 40.2806 81.3526 39.5783 80.8468 39.0697C80.3517 38.5746 79.679 38.2625 78.9309 38.2437C78.9039 38.2409 78.8798 38.2409 78.8529 38.2409C77.6877 38.2302 76.6248 37.7862 75.7907 37.0704C75.0372 36.4165 74.4721 35.542 74.2057 34.5598C74.1869 34.4953 74.1681 34.428 74.1546 34.3634C74.1385 34.2934 74.125 34.2235 74.1116 34.1536C74.0981 34.0782 74.0847 34.0029 74.0739 33.9248C74.0605 33.836 74.0524 33.7472 74.0443 33.6557C72.8334 34.1562 71.5068 34.4307 70.113 34.4307C66.9243 34.4307 64.0747 32.9884 62.1777 30.7173C61.7632 31.8583 61.0529 32.8566 60.1406 33.6181C59.2796 34.3419 58.2355 34.8531 57.092 35.0765C57.0112 35.0927 56.9332 35.1061 56.8525 35.1195C56.7179 35.1411 56.5834 35.16 56.4462 35.1707C56.3869 35.1788 56.3277 35.1841 56.2659 35.1868C56.1878 35.1949 56.1071 35.1976 56.0264 35.2003C55.9456 35.203 55.8649 35.2057 55.7815 35.2057H55.7708C55.5985 35.2057 55.429 35.1976 55.2622 35.1841C55.2352 35.1841 55.2111 35.1815 55.1842 35.1788C55.1357 35.176 55.09 35.1707 55.0442 35.1653C54.9851 35.1599 54.9258 35.1519 54.8666 35.1438C54.8048 35.1357 54.7455 35.1276 54.6863 35.1142C54.4738 36.0183 54.3607 36.9628 54.3607 37.9315V44.1824C54.3607 48.8133 56.9224 52.8442 60.7085 54.9377C59.5891 56.2992 57.9907 57.2733 56.1152 57.5828C52.0008 58.2609 48.1126 55.4758 47.4345 51.3616C46.9851 48.6492 48.0453 46.0337 49.9989 44.3734C49.3773 43.48 48.9414 42.4387 48.7503 41.295C48.2687 38.362 49.5415 35.5474 51.8017 33.9248C51.6968 33.8495 51.5918 33.7714 51.4923 33.6907C51.4896 33.6907 51.4896 33.6907 51.4896 33.6907C51.3739 33.5965 51.2636 33.5024 51.156 33.4028C50.8788 33.1499 50.6232 32.8754 50.3917 32.5794C49.6733 31.6564 49.1862 30.5424 49.0194 29.3289C49.0167 29.3235 49.014 29.3181 49.0167 29.3127C49.0059 29.2293 48.9952 29.1459 48.9871 29.0598C48.9844 29.041 48.9817 29.0221 48.9817 29.0033C48.9736 28.9037 48.9655 28.8042 48.9629 28.7046C48.9575 28.5996 48.9548 28.4947 48.9548 28.3898C48.9548 28.0373 48.9817 27.6901 49.0328 27.3511C49.0679 27.1277 49.1136 26.9044 49.1701 26.6864C49.4042 25.7661 49.8293 24.924 50.3971 24.1974C50.502 24.0629 50.6124 23.9337 50.7254 23.8072C51.9713 22.4349 53.7715 21.5738 55.7708 21.5738C55.8865 21.5738 56.0022 21.5765 56.1179 21.5846C56.1905 21.5873 56.2632 21.59 56.3358 21.598C56.6345 21.6223 56.9251 21.6653 57.2103 21.7272C57.283 21.7433 57.3557 21.7595 57.431 21.7783C57.5171 21.7998 57.6059 21.8241 57.6947 21.851C57.7808 21.8752 57.8669 21.9021 57.953 21.9317C58.0311 21.9586 58.1064 21.9855 58.1844 22.0151C58.2921 22.0528 58.397 22.0986 58.502 22.1443C58.5639 22.1712 58.623 22.1981 58.685 22.2277C58.7415 22.2546 58.798 22.2815 58.8545 22.3111C58.9325 22.3488 59.0079 22.3891 59.0832 22.4322C59.1478 22.4672 59.2151 22.5049 59.2769 22.5452C59.3012 22.5586 59.3253 22.5748 59.3496 22.5883C60.243 21.485 61.6072 20.7773 63.1383 20.7773C65.0219 20.7773 66.6553 21.8456 67.4598 23.4117C68.0437 23.3256 68.6384 23.2798 69.2465 23.2798C76.1136 23.2798 81.6487 28.9709 81.3984 35.8945C83.5161 36.6507 85.0337 38.6768 85.0337 41.0556C85.0337 42.3768 84.5655 43.5903 83.7852 44.5375C86.0267 45.848 87.4608 48.3855 87.1837 51.2243Z" fill="#F4A9AD"/>
<path d="M54.8815 58.2214C50.9938 58.2216 47.555 55.4053 46.9029 51.4482C46.4674 48.8198 47.3802 46.1173 49.2962 44.2815C48.7548 43.3974 48.3929 42.4244 48.2189 41.3828C47.7544 38.5549 48.7868 35.7589 50.9306 33.9235C50.8818 33.8808 50.835 33.8388 50.7899 33.797C50.4915 33.5247 50.2138 33.2254 49.9672 32.91C49.1811 31.9002 48.6714 30.7014 48.491 29.44C48.4837 29.4081 48.4792 29.3758 48.4776 29.3435C48.468 29.2686 48.4591 29.1962 48.4519 29.1222C48.4487 29.0991 48.4449 29.0678 48.4435 29.031C48.4351 28.9265 48.4271 28.8224 48.4243 28.7182C48.419 28.6171 48.416 28.503 48.416 28.3889C48.416 28.0164 48.4443 27.6399 48.5001 27.27C48.5388 27.0224 48.5887 26.7814 48.6485 26.5505C48.8965 25.5761 49.3421 24.6718 49.9725 23.8651C50.0734 23.7357 50.1883 23.599 50.3235 23.4478C51.7167 21.9131 53.701 21.0348 55.7701 21.0348C55.9089 21.0348 56.0319 21.0385 56.1458 21.0462C56.2187 21.049 56.3003 21.0522 56.3862 21.0614C56.7034 21.0875 57.0188 21.1342 57.3239 21.2004C57.4037 21.2181 57.4808 21.2353 57.5607 21.2553C57.6554 21.279 57.7527 21.3055 57.85 21.335C57.9358 21.359 58.0316 21.389 58.1275 21.422C58.2091 21.4502 58.2875 21.4781 58.3684 21.5087C58.4916 21.5521 58.6047 21.6015 58.7141 21.6491C58.7836 21.6792 58.8487 21.7088 58.9168 21.7414C58.9756 21.7694 59.0355 21.7981 59.0956 21.8294C59.1421 21.8519 59.1889 21.8758 59.2368 21.9016C60.2559 20.8393 61.6535 20.2383 63.1377 20.2383C65.042 20.2383 66.7761 21.2219 67.7503 22.8293C68.2486 22.7706 68.7501 22.7408 69.246 22.7408C72.7245 22.7408 75.9703 24.1199 78.3856 26.624C80.7124 29.0364 81.9677 32.1865 81.9438 35.5308C84.1289 36.4765 85.5713 38.6489 85.5713 41.0547C85.5713 42.2452 85.2154 43.4105 84.5594 44.3944C86.7553 45.9292 87.9832 48.567 87.7187 51.2757C87.3736 54.8386 84.5328 57.654 80.9636 57.97C77.9986 58.2303 75.1622 56.7226 73.7365 54.128C73.7311 54.1187 73.7258 54.1088 73.7204 54.099C73.7162 54.0919 73.7115 54.0834 73.7077 54.0762C73.1213 52.9927 72.8113 51.7653 72.8113 50.5265C72.8113 48.2704 73.8152 46.1579 75.5656 44.7304C76.3768 44.0679 77.2965 43.5935 78.2992 43.3205C78.4694 43.2728 78.6141 43.2379 78.7507 43.2117L78.8247 43.1963C79.003 43.1601 79.1875 43.1306 79.3874 43.1064C79.9263 43.0401 80.3775 42.8043 80.657 42.4425C80.9655 42.0433 81.1287 41.5634 81.1287 41.0547C81.1287 40.4494 80.8928 39.879 80.4646 39.4483C80.0491 39.0328 79.499 38.7954 78.9167 38.7807C78.9033 38.7805 78.89 38.7797 78.8766 38.7783C78.8703 38.7782 78.8615 38.7783 78.8522 38.7783C77.6137 38.7668 76.4035 38.3051 75.4396 37.478C74.5829 36.7345 73.9772 35.7745 73.6857 34.6999C73.6669 34.6356 73.6446 34.5559 73.6272 34.4729C73.6213 34.4477 73.6155 34.4209 73.6099 34.3932C72.4899 34.7748 71.3163 34.968 70.1123 34.968C67.1673 34.968 64.3793 33.7856 62.3385 31.6971C61.8882 32.5895 61.2576 33.3854 60.485 34.0304C59.5419 34.8232 58.4035 35.3677 57.1944 35.6039C57.1103 35.6206 57.0268 35.6351 56.9404 35.6495C56.8211 35.6686 56.6677 35.6915 56.5027 35.7051C56.4365 35.7137 56.3714 35.7196 56.3045 35.7229C56.2137 35.7316 56.1274 35.7345 56.0437 35.7373C55.78 35.7463 55.5152 35.7432 55.2354 35.7211C55.2034 35.7201 55.1728 35.7176 55.1405 35.7144C55.1296 35.7137 55.1189 35.713 55.1082 35.7121C54.9688 36.4405 54.8983 37.1846 54.8983 37.9306V44.1815C54.8983 48.4547 57.2242 52.3955 60.9683 54.466C61.1082 54.5432 61.2065 54.6788 61.2365 54.8358C61.2665 54.9929 61.225 55.1551 61.1236 55.2786C59.8832 56.7873 58.1355 57.7939 56.2022 58.1129C55.7586 58.1861 55.3171 58.2214 54.8815 58.2214ZM51.7985 33.2478C51.8095 33.2554 51.8203 33.2634 51.8308 33.2719C51.9097 33.3359 52.0001 33.4042 52.1151 33.4868C52.2559 33.5879 52.3393 33.7507 52.3393 33.924C52.3393 34.0973 52.2558 34.2601 52.115 34.3611C49.9308 35.9291 48.8448 38.5522 49.2807 41.207C49.4547 42.2475 49.8447 43.2096 50.44 44.0651C50.5983 44.2926 50.558 44.6031 50.3468 44.7825C48.4775 46.3712 47.5648 48.8581 47.9648 51.2728C48.5936 55.0879 52.211 57.6804 56.0271 57.0509C57.4923 56.8091 58.8345 56.1119 59.8669 55.0667C56.1215 52.7321 53.822 48.6214 53.822 44.1815V37.9306C53.822 36.9386 53.9363 35.9492 54.1618 34.9901C54.2295 34.7022 54.5169 34.5226 54.8051 34.5886C54.8479 34.5983 54.8908 34.6034 54.9357 34.6093C54.99 34.6167 55.0412 34.6238 55.0923 34.6285C55.0971 34.6289 55.1019 34.6294 55.1066 34.6299C55.1415 34.6341 55.1765 34.6385 55.2134 34.6406C55.2214 34.641 55.2294 34.6416 55.2372 34.6424L55.2666 34.6452C55.281 34.6452 55.2905 34.6457 55.3049 34.6469C55.568 34.6681 55.8071 34.6683 56.0076 34.6616C56.0758 34.6593 56.144 34.6574 56.2098 34.6507C56.2205 34.6495 56.2311 34.6488 56.2419 34.6483C56.2868 34.6464 56.3297 34.6425 56.3727 34.6366C56.3829 34.6352 56.3932 34.6341 56.4034 34.6333C56.5068 34.6252 56.6188 34.611 56.7667 34.5873C56.8384 34.5753 56.911 34.5628 56.986 34.5479C58.0185 34.3463 58.9886 33.8821 59.7937 33.2052C60.6456 32.4942 61.2942 31.5705 61.6712 30.5327C61.737 30.3517 61.8943 30.2196 62.084 30.1864C62.2731 30.153 62.4667 30.2236 62.5901 30.3714C64.4588 32.6086 67.2005 33.8916 70.1123 33.8916C71.406 33.8916 72.6596 33.6446 73.8381 33.1575C73.9965 33.0921 74.1764 33.1059 74.323 33.1949C74.4696 33.2838 74.5649 33.4372 74.5798 33.6079C74.5869 33.6878 74.5934 33.7653 74.6053 33.8429C74.6162 33.9211 74.6284 33.9893 74.6406 34.0575C74.6516 34.1148 74.6637 34.1781 74.6783 34.2414C74.6915 34.3036 74.7069 34.3571 74.7219 34.4086C74.9565 35.2734 75.4602 36.0707 76.1428 36.6631C76.9234 37.3329 77.8628 37.6927 78.8572 37.702C78.8575 37.702 78.8581 37.702 78.8586 37.702C78.8916 37.702 78.9248 37.7025 78.9606 37.7053C79.814 37.7309 80.6181 38.0797 81.2266 38.6882C81.858 39.3229 82.2049 40.163 82.2049 41.0547C82.2049 41.7931 81.9577 42.5196 81.5087 43.1006C81.0521 43.6916 80.3451 44.073 79.5179 44.1748C79.3458 44.1957 79.1888 44.2207 79.0372 44.2514L78.9577 44.2679C78.8471 44.2892 78.7301 44.3176 78.5856 44.358C77.7259 44.5921 76.9401 44.9976 76.2462 45.5643C74.7472 46.7867 73.8876 48.5953 73.8876 50.5265C73.8876 51.5841 74.1514 52.6316 74.6502 53.5565C74.6556 53.5658 74.6609 53.5755 74.6661 53.5853C74.6696 53.5909 74.6737 53.5985 74.677 53.6044C75.8963 55.8285 78.3269 57.121 80.8691 56.8978C83.873 56.6319 86.3571 54.17 86.6474 51.1715C86.6474 51.1713 86.6474 51.1716 86.6474 51.1715C86.8945 48.6407 85.6935 46.2761 83.5129 45.0013C83.3767 44.9216 83.2824 44.7863 83.2548 44.6311C83.227 44.4758 83.2688 44.3162 83.3692 44.1945C84.0952 43.3132 84.4949 42.1982 84.4949 41.0547C84.4949 38.971 83.1775 37.1006 81.2168 36.4005C80.9958 36.3216 80.8514 36.1086 80.8599 35.8742C80.9753 32.6829 79.8214 29.6631 77.6109 27.3713C75.4003 25.0793 72.4296 23.8171 69.246 23.8171C68.6797 23.8171 68.105 23.8596 67.5377 23.9432C67.309 23.9768 67.0857 23.8616 66.9805 23.6567C66.2383 22.2121 64.7658 21.3146 63.1377 21.3146C61.825 21.3146 60.5965 21.902 59.7672 22.926C59.6027 23.1293 59.3158 23.1847 59.0876 23.0578C59.0692 23.0476 59.0506 23.0365 59.0322 23.0252L59.0148 23.0147C59.0047 23.009 58.9922 23.0015 58.9824 22.9952C58.9335 22.9633 58.8733 22.93 58.8265 22.9047C58.7459 22.8587 58.6818 22.8248 58.6197 22.7948C58.6145 22.7923 58.6094 22.7897 58.6043 22.787C58.554 22.7607 58.5036 22.7368 58.4532 22.7129C58.3962 22.6856 58.343 22.6614 58.2871 22.6372C58.1864 22.5932 58.0941 22.553 58.0062 22.5223C58.0017 22.5207 57.9972 22.519 57.9928 22.5174C57.9199 22.4898 57.8495 22.4647 57.7767 22.4395C57.701 22.4135 57.6246 22.3897 57.5483 22.3682C57.4579 22.3409 57.3776 22.3191 57.2997 22.2995C57.2293 22.282 57.1611 22.2668 57.0929 22.2517C56.8346 22.1957 56.564 22.1557 56.2917 22.1336C56.2864 22.1332 56.2811 22.1326 56.2758 22.132C56.2163 22.1254 56.1568 22.1237 56.0974 22.1215C56.0915 22.1213 56.0856 22.121 56.0797 22.1206C55.9886 22.1142 55.8873 22.1111 55.7701 22.1111C54.0038 22.1111 52.3101 22.8609 51.1232 24.1681C51.0054 24.3 50.9084 24.4152 50.8209 24.5274C50.2825 25.2164 49.9026 25.987 49.691 26.8182C49.6394 27.0176 49.5968 27.2239 49.5639 27.4336C49.5166 27.7475 49.4923 28.0699 49.4923 28.3889C49.4923 28.4846 49.4948 28.5804 49.4997 28.6761C49.5027 28.779 49.5102 28.8687 49.5175 28.9586C49.518 28.9655 49.5185 28.9725 49.5188 28.9795C49.5201 28.9891 49.5218 29.002 49.5223 29.0086C49.5296 29.0854 49.5391 29.1598 49.5486 29.234C49.5499 29.2409 49.551 29.2478 49.552 29.2547C49.7015 30.3428 50.1386 31.3779 50.8158 32.248C51.0248 32.5152 51.2614 32.7701 51.5182 33.0045C51.6037 33.0835 51.6949 33.1628 51.7985 33.2478ZM49.552 29.3527C49.5468 29.4193 49.5298 29.4854 49.501 29.5451C49.5304 29.484 49.5474 29.4186 49.552 29.3527Z" fill="#33475B"/>
<path d="M49.0186 29.3281C49.1853 30.5416 49.6724 31.6557 50.3908 32.5786C49.7074 31.7122 49.2312 30.6762 49.0454 29.5299C49.0347 29.4627 49.024 29.3954 49.0186 29.3281Z" fill="#F4A9AD"/>
<path d="M50.3913 33.116C50.2322 33.116 50.0746 33.0457 49.9684 32.911C49.2109 31.9507 48.7081 30.8109 48.5143 29.6151C48.5022 29.5392 48.4893 29.4576 48.4822 29.3702C48.459 29.0798 48.6709 28.8236 48.9606 28.7922C49.251 28.761 49.5122 28.9654 49.5518 29.254C49.7014 30.3421 50.1384 31.3771 50.8157 32.2472C50.9978 32.4812 50.9563 32.8185 50.7229 33.0014C50.6244 33.0786 50.5074 33.116 50.3913 33.116Z" fill="#33475B"/>
<path d="M56.0261 35.1992C56.0126 35.2019 55.9992 35.2019 55.9857 35.2019C55.9158 35.2046 55.8485 35.2047 55.7812 35.2047C55.8646 35.2047 55.9454 35.2019 56.0261 35.1992Z" fill="#F4A9AD"/>
<path d="M55.7813 35.742C55.4842 35.742 55.2432 35.501 55.2432 35.2038C55.2432 34.9066 55.4842 34.6656 55.7813 34.6656C55.8586 34.6656 55.9335 34.6631 56.0083 34.6606C56.2855 34.6494 56.5286 34.8582 56.5609 35.1365C56.593 35.4148 56.4064 35.6712 56.1317 35.7261C56.0739 35.7377 56.0249 35.7391 55.9963 35.7393C55.923 35.7418 55.8522 35.742 55.7813 35.742Z" fill="#33475B"/>
<path d="M55.7813 35.7434C55.4842 35.7434 55.2432 35.5024 55.2432 35.2052C55.2432 34.908 55.4842 34.667 55.7813 34.667C59.2427 34.667 62.0587 31.851 62.0587 28.3897C62.0587 28.0925 62.2996 27.8516 62.5969 27.8516C62.894 27.8516 63.135 28.0925 63.135 28.3897C63.135 32.4445 59.8361 35.7434 55.7813 35.7434Z" fill="#33475B"/>
<path d="M54.3606 38.2383V43.8675C52.8053 43.8675 51.5459 42.6082 51.5459 41.0529C51.5459 39.5003 52.8053 38.2383 54.3606 38.2383Z" fill="#E8CBC0"/>
<path d="M54.3606 44.4087C52.5119 44.4087 51.0078 42.9046 51.0078 41.0559C51.0078 39.2072 52.5119 37.7031 54.3606 37.7031C54.6578 37.7031 54.8988 37.9441 54.8988 38.2413V43.8705C54.8988 44.1677 54.6578 44.4087 54.3606 44.4087ZM53.8225 38.8437C52.8261 39.0861 52.0842 39.986 52.0842 41.0559C52.0842 42.1258 52.8261 43.0257 53.8225 43.2681V38.8437Z" fill="#33475B"/>
<path d="M59.3486 22.5859C60.0873 23.1154 60.9813 23.5192 61.9232 23.7631C62.6246 23.9446 63.3526 24.0375 64.0626 24.0276" fill="#F4A9AD"/>
<path d="M63.9575 24.5696C63.2418 24.5696 62.5127 24.4747 61.7884 24.2872C60.7698 24.0234 59.8177 23.5875 59.0352 23.0264C58.7936 22.8532 58.7382 22.517 58.9114 22.2755C59.0846 22.0338 59.4209 21.9785 59.6623 22.1516C60.3383 22.6362 61.1667 23.0144 62.0582 23.2452C62.7276 23.4184 63.3994 23.5018 64.0552 23.4926C64.0577 23.4925 64.0602 23.4925 64.0628 23.4925C64.3565 23.4925 64.5967 23.7286 64.6008 24.0232C64.6049 24.3203 64.3674 24.5647 64.0701 24.5688C64.0327 24.5693 63.9951 24.5696 63.9575 24.5696Z" fill="#33475B"/>
<path d="M51.42 28.9257C51.1228 28.9257 50.8818 28.6848 50.8818 28.3875C50.8818 25.6861 53.0796 23.4883 55.7811 23.4883C56.0782 23.4883 56.3192 23.7293 56.3192 24.0265C56.3192 24.3237 56.0782 24.5646 55.7811 24.5646C53.6731 24.5646 51.9582 26.2796 51.9582 28.3875C51.9582 28.6848 51.7172 28.9257 51.42 28.9257Z" fill="white"/>
<path d="M75.6163 51.0676C75.3191 51.0676 75.0781 50.8266 75.0781 50.5294C75.0781 47.6593 77.4132 45.3242 80.2834 45.3242C80.5806 45.3242 80.8215 45.5652 80.8215 45.8624C80.8215 46.1596 80.5806 46.4006 80.2834 46.4006C78.0067 46.4006 76.1545 48.2528 76.1545 50.5294C76.1545 50.8266 75.9135 51.0676 75.6163 51.0676Z" fill="white"/>
<path d="M49.834 51.1735C49.5369 49.8439 49.8393 48.5201 50.5619 47.4844L49.834 51.1735Z" fill="#F4A9AD"/>
<path d="M49.8328 51.7148C49.5864 51.7148 49.3641 51.5444 49.3082 51.2939C48.9908 49.8734 49.2866 48.3737 50.1199 47.1795C50.2899 46.9358 50.6254 46.876 50.8691 47.0461C51.1129 47.2161 51.1726 47.5516 51.0025 47.7953C50.3415 48.7428 50.1068 49.9324 50.3586 51.0592C50.4233 51.3493 50.2408 51.6369 49.9507 51.7017C49.9112 51.7106 49.8717 51.7148 49.8328 51.7148Z" fill="white"/>
<path d="M58.6756 39.2668C58.5502 39.2668 58.4243 39.2232 58.3223 39.1343C58.0982 38.939 58.0749 38.599 58.2702 38.375C59.4141 37.0625 61.2761 36.5969 62.9037 37.2163C63.1815 37.322 63.3209 37.6329 63.2152 37.9106C63.1094 38.1884 62.7987 38.328 62.5209 38.2223C61.3125 37.7625 59.9305 38.108 59.0816 39.0821C58.9752 39.2043 58.8258 39.2668 58.6756 39.2668Z" fill="#33475B"/>
<path d="M74.614 39.2667C74.4639 39.2667 74.3145 39.2042 74.2081 39.0821C73.3592 38.1082 71.9772 37.7626 70.7688 38.2222C70.4904 38.3279 70.18 38.1884 70.0744 37.9107C69.9686 37.6329 70.1082 37.322 70.3859 37.2163C72.0138 36.5969 73.8758 37.0626 75.0195 38.375C75.2147 38.599 75.1915 38.9389 74.9674 39.1342C74.8654 39.2231 74.7394 39.2667 74.614 39.2667Z" fill="#33475B"/>
<path d="M66.6475 49.771C65.6572 49.771 64.676 49.5153 63.81 49.0315C63.5505 48.8866 63.4577 48.5587 63.6026 48.2992C63.7476 48.0397 64.0755 47.947 64.3348 48.0918C65.0408 48.4861 65.8406 48.6946 66.6475 48.6946C67.4657 48.6946 68.2643 48.4868 68.9569 48.0936C69.2153 47.947 69.544 48.0376 69.6906 48.296C69.8374 48.5544 69.7467 48.8829 69.4883 49.0297C68.6338 49.5146 67.6516 49.771 66.6475 49.771Z" fill="#33475B"/>
</g>
</svg>
