<svg width="132" height="88" viewBox="0 0 132 88" fill="none" xmlns="http://www.w3.org/2000/svg">
<path fill-rule="evenodd" clip-rule="evenodd" d="M56.6413 37.9084H62.1944L57.1501 56.5037C57.0615 56.8546 57.1143 57.2272 57.2972 57.539C57.4809 57.8509 57.779 58.0772 58.1288 58.171C58.2481 58.201 58.3705 58.2139 58.4926 58.2081H61.0328C61.3884 58.2128 61.7393 58.1248 62.0514 57.9532C62.3632 57.7816 62.6248 57.5324 62.8115 57.2294L80.2677 28.8112C80.4049 28.5807 80.4954 28.3244 80.533 28.0588C80.5707 27.7931 80.5559 27.5239 80.4882 27.264C80.4208 27.0044 80.3026 26.7591 80.1395 26.5454C79.9775 26.332 79.7738 26.1544 79.5414 26.0199C79.2213 25.8354 78.8586 25.7353 78.489 25.7295H72.1378L82.0455 11.3028C82.1965 11.0816 82.301 10.8319 82.3557 10.57C82.4094 10.3081 82.4113 10.0379 82.3607 9.77525C82.3098 9.51268 82.2086 9.26395 82.0604 9.04076C81.9133 8.81757 81.7235 8.62416 81.501 8.47442C81.1463 8.26738 80.7498 8.14486 80.3392 8.11335H64.3358C63.7267 8.10917 63.1335 8.30554 62.6476 8.67261C62.1617 9.03966 61.8119 9.55525 61.6499 10.1417L54.6817 35.3705C54.5486 35.8897 54.6258 36.4413 54.8984 36.9033C55.1695 37.3653 55.6147 37.7005 56.1334 37.8361C56.3003 37.8754 56.4703 37.8999 56.6413 37.9084ZM63.6821 66.3638H54.7182C54.1091 66.3599 53.5159 66.5563 53.03 66.9231C52.5449 67.29 52.1943 67.8073 52.0323 68.3944L49.6731 77.3465C49.6024 77.6058 49.5856 77.8778 49.6225 78.1451C49.6602 78.4113 49.7506 78.6665 49.8898 78.8966C50.0289 79.1268 50.2137 79.3273 50.4324 79.4849C50.651 79.6422 50.8985 79.753 51.1617 79.8118C51.3236 79.8734 51.4966 79.8985 51.6696 79.8844H60.6332C61.2313 79.8836 61.8127 79.6881 62.2906 79.3292C62.7678 78.9695 63.1165 78.4649 63.2826 77.8918L65.6784 68.8998C65.749 68.6408 65.7658 68.3705 65.7292 68.1034C65.6924 67.8372 65.6008 67.582 65.4619 67.3519C65.3228 67.1214 65.1388 66.9212 64.9202 66.7636C64.7016 66.6072 64.4532 66.4955 64.1898 66.4367C64.0289 66.3748 63.8548 66.3498 63.6821 66.3638Z" fill="#F02EA6"/>
</svg>
