<svg width="132" height="88" viewBox="0 0 132 88" fill="none" xmlns="http://www.w3.org/2000/svg">
<path opacity="0.2" d="M66 7V80.5912M84.5 11.9296L47.5 75.6614M98.0201 25.7841L33.9342 62.5797M103 43.7956L29 43.7956M98.043 62.1934L33.9571 25.3978M84.4751 76.0478L47.4751 12.316M103 44.2044C103 64.5261 86.4345 81 66 81C45.5655 81 29 64.5261 29 44.2044C29 23.8828 45.5655 7.40884 66 7.40884C86.4345 7.40884 103 23.8828 103 44.2044ZM87.3778 44.2044C87.3778 55.9458 77.8066 65.4641 66 65.4641C54.1934 65.4641 44.6222 55.9458 44.6222 44.2044C44.6222 32.463 54.1934 22.9448 66 22.9448C77.8066 22.9448 87.3778 32.463 87.3778 44.2044Z" stroke="#39274E"/>
</svg>
