<svg width="132" height="88" viewBox="0 0 132 88" fill="none" xmlns="http://www.w3.org/2000/svg">
<path fill-rule="evenodd" clip-rule="evenodd" d="M61.181 7.07861C60.8348 7.42473 60.5867 10.5406 60.6278 14.0027C60.6932 19.4576 60.8105 19.9282 61.5078 17.5319C62.4113 14.4235 62.1515 6.10583 61.181 7.07861ZM87.9371 15.3905C84.7909 19.2518 82.3395 22.752 82.4895 23.1686C82.7435 23.8742 94.9143 9.71726 94.9143 8.71625C94.9143 7.32845 93.0646 9.09806 87.9371 15.3905ZM31.5124 22.234C33.528 24.4402 40.4381 29.2369 40.4381 28.4302C40.4381 27.6657 31.6942 20.7118 30.733 20.7118C30.3969 20.7118 30.7472 21.3965 31.5124 22.234ZM60.1333 23.9356C56.1901 24.9615 51.1246 27.8093 48.659 30.3882C37.3564 42.2086 43.767 64.1511 59.3975 67.145C62.107 67.6638 65.1108 68.2522 66.0729 68.4523C68.3601 68.9287 73.9619 74.1836 73.9619 75.8528C73.9619 76.5683 74.3483 77.1534 74.821 77.1534C75.2928 77.1534 76.0211 78.0424 76.4376 79.128C77.1425 80.9632 77.6018 81.0935 82.9119 80.9632C90.6953 80.7723 94.1558 78.6981 94.5288 73.9993C94.6268 72.7667 94.9637 71.1532 95.278 70.4128C95.6166 69.6135 95.2705 68.4946 94.424 67.6563C93.6412 66.8802 92.5232 64.8716 91.9399 63.1916C91.3566 61.5124 90.3735 60.1379 89.7541 60.1379C87.6757 60.1379 87.0814 57.7458 86.9784 48.9567C86.8912 41.5811 86.5727 39.6347 84.9376 36.4822C82.4795 31.7436 78.5957 27.6466 74.6525 25.6338C71.1199 23.8302 63.8218 22.9769 60.1333 23.9356ZM61.4659 28.8933C60.6437 29.4469 62.045 29.7831 66.0754 29.9989C71.953 30.3135 72.9386 30.2114 72.0946 29.3764C71.1995 28.4899 62.6434 28.1015 61.4659 28.8933ZM100.99 34.0735C96.7262 36.3785 93.2381 38.6229 93.2381 39.0619C93.2381 39.5201 94.0418 39.4438 95.1238 38.8827C99.8146 36.4482 110 30.4928 110 30.184C110 29.3863 108.325 30.1093 100.99 34.0735ZM75.6255 32.2939C76.7712 33.1654 77.9018 33.6867 78.1381 33.4526C78.6728 32.9231 75.6414 30.6654 74.4304 30.6903C73.9418 30.7003 74.4798 31.4224 75.6255 32.2939ZM68.4573 41.0175C67.2178 42.8908 67.2161 43.2843 68.438 45.7096C70.157 49.1227 70.1226 49.5178 68.0156 50.635C66.549 51.4119 66.0511 51.2716 64.9976 49.7817C61.9914 45.532 56.3619 46.0607 56.3619 50.5926C56.3619 53.7152 58.8242 55.0955 63.1664 54.4083L66.3956 53.897L71.1534 60.3371C73.77 63.8797 76.0379 66.9333 76.1938 67.1242C76.3488 67.3143 76.6891 67.2587 76.9497 67.0014C77.2095 66.7433 75.1503 63.4605 72.3737 59.7063L67.3242 52.8802L69.1764 51.3347C71.2951 49.5667 70.4696 48.8513 77.7518 58.7659C79.8797 61.6635 81.8249 63.8324 82.0738 63.5867C82.3227 63.3402 80.2518 60.0516 77.4727 56.2783L72.419 49.4182L74.029 47.1796C75.9817 44.4637 76.0848 42.0235 74.3214 40.2763C72.4022 38.3763 70.0044 38.6785 68.4573 41.0175ZM69.2158 41.9305C68.6266 43.4519 70.1955 47.2725 71.4107 47.2725C71.8709 47.2725 72.8657 46.3371 73.6225 45.1933C74.7313 43.5175 74.7967 42.8734 73.9586 41.8732C72.5983 40.2497 69.8544 40.2829 69.2158 41.9305ZM22 44.7825C22 45.2714 24.9501 45.6125 29.1733 45.6125C33.7417 45.6125 36.1588 45.3112 35.8286 44.7825C35.5436 44.326 32.3161 43.9524 28.6553 43.9524C24.7774 43.9524 22 44.2986 22 44.7825ZM57.7062 49.4223C56.6946 52.0327 59.8358 54.141 62.9845 52.9649L64.9976 52.2128L63.0482 50.1577C60.8222 47.8121 58.4563 47.4859 57.7062 49.4223ZM32.4762 61.5041C27.4652 64.5893 27.4694 64.586 28.0334 65.1446C28.5816 65.6875 37.8844 60.3836 37.907 59.5154C37.9364 58.4314 36.7806 58.8539 32.4762 61.5041ZM84.019 63.5917C76.8114 67.7824 71.1819 73.0033 73.8706 73.0033C74.8939 73.0033 89.5496 63.4232 90.2553 62.2927C91.2878 60.6376 87.8785 61.3473 84.019 63.5917ZM82.3429 69.3346C75.2827 73.8939 73.1657 76.3234 76.2524 76.3234C78.5102 76.3234 91.0909 67.887 91.4136 66.1556C91.8569 63.7792 89.8597 64.4798 82.3429 69.3346ZM85.3717 72.6597C81.7369 75.0966 78.3694 77.2198 77.8875 77.3792C77.4065 77.5377 77.2606 78.308 77.5632 79.0899C78.0644 80.3822 78.3795 80.4021 81.0229 79.3082C86.3473 77.1045 94.0762 71.3872 94.0762 69.6525C94.0762 67.2662 92.7134 67.7376 85.3717 72.6597ZM44.5565 71.9807C39.0821 77.834 37.6389 79.6377 38.0797 80.0751C38.3236 80.3158 40.6971 78.0598 43.3547 75.0618C48.4746 69.2865 49.4744 66.7225 44.5565 71.9807ZM87.8776 76.7193C84.8278 78.8666 84.1146 79.7323 85.091 80.1033C87.2952 80.9408 93.2381 77.1816 93.2381 74.9497C93.2381 73.2706 92.3656 73.5586 87.8776 76.7193Z" fill="#4843DD"/>
</svg>
