<svg width="360" height="360" viewBox="0 0 360 360" fill="none" xmlns="http://www.w3.org/2000/svg">
<path fill-rule="evenodd" clip-rule="evenodd" d="M180 39.1816C239.923 39.1816 288.5 85.9585 288.5 143.66C288.5 201.362 239.923 248.139 180 248.139V320.82H71.5V141.389C72.7801 84.7357 120.865 39.1816 180 39.1816ZM92.8665 206.638L92.8695 296.251H158.624L158.622 247.961C130.564 244.352 106.601 228.656 92.8665 206.638ZM94.5342 141.563C95.6779 96.5892 133.492 60.4489 180.006 60.4489C227.24 60.4489 265.504 97.7185 265.504 143.66C265.504 189.602 227.24 226.872 180.006 226.872V141.563H94.5342Z" fill="#404A4D"/>
</svg>
