<svg width="132" height="88" viewBox="0 0 132 88" fill="none" xmlns="http://www.w3.org/2000/svg">
<path d="M66 32.8239C63.0398 32.8239 60.2009 34.0012 58.1077 36.0968C56.0145 38.1925 54.8386 41.0348 54.8386 43.9984V73.7973C54.8383 76.1821 55.6 78.5045 57.0125 80.4249C58.4249 82.3452 60.4139 83.7628 62.6887 84.4703C64.9634 85.1778 67.4046 85.1382 69.6553 84.3572C71.9059 83.5762 73.848 82.0948 75.1974 80.1296L95.66 50.3307C96.8109 48.6553 97.4833 46.6973 97.605 44.6676C97.7266 42.6379 97.2928 40.6134 96.3502 38.8123C95.4076 37.0112 93.9921 35.5017 92.2561 34.4464C90.52 33.3912 88.5293 32.8302 86.4983 32.8239H66Z" fill="#FF5C35"/>
<path d="M66 55.173C68.9602 55.173 71.7991 53.9957 73.8923 51.9001C75.9854 49.8044 77.1613 46.9621 77.1613 43.9984V14.1996C77.1617 11.8147 76.3999 9.49235 74.9875 7.572C73.5751 5.65165 71.5861 4.23407 69.3113 3.52655C67.0365 2.81902 64.5954 2.85866 62.3447 3.63967C60.0941 4.42068 58.152 5.9021 56.8025 7.86729L36.34 37.6662C35.1874 39.3441 34.5147 41.3054 34.3945 43.3382C34.2743 45.371 34.7113 47.3981 35.6581 49.2004C36.605 51.0027 38.0257 52.5117 39.7669 53.5643C41.5081 54.6169 43.5035 55.1732 45.5374 55.173H66Z" fill="url(#paint0_linear_2056_24195)"/>
<path d="M66 25.3741C72.1643 25.3741 77.1613 20.3711 77.1613 14.1996C77.1613 8.02801 72.1643 3.02497 66 3.02497C59.8357 3.02497 54.8386 8.028 54.8386 14.1996C54.8386 20.3711 59.8357 25.3741 66 25.3741Z" fill="#FF5C35"/>
<path d="M86.4625 55.173H45.5374C42.5773 55.173 39.7383 53.9957 37.6452 51.9001C35.552 49.8044 34.3761 46.9621 34.3761 43.9984C34.3761 41.0348 35.552 38.1925 37.6452 36.0968C39.7383 34.0012 42.5773 32.8239 45.5375 32.8239H86.4625C89.4227 32.8239 92.2617 34.0012 94.3548 36.0968C96.448 38.1925 97.6239 41.0348 97.6239 43.9984C97.6239 46.9621 96.448 49.8044 94.3548 51.9001C92.2617 53.9957 89.4227 55.173 86.4625 55.173Z" fill="url(#paint1_linear_2056_24195)"/>
<defs>
<linearGradient id="paint0_linear_2056_24195" x1="34.3766" y1="43.9996" x2="97.625" y2="43.9996" gradientUnits="userSpaceOnUse">
<stop offset="0.27" stop-color="#FF824E"/>
<stop offset="0.74" stop-color="#FFA766"/>
</linearGradient>
<linearGradient id="paint1_linear_2056_24195" x1="43.7657" y1="27.5783" x2="88.2715" y2="60.3683" gradientUnits="userSpaceOnUse">
<stop offset="0.18" stop-color="#FF824E"/>
<stop offset="0.82" stop-color="#FF5C35"/>
</linearGradient>
</defs>
</svg>
