<svg width="132" height="88" viewBox="0 0 132 88" fill="none" xmlns="http://www.w3.org/2000/svg">
<path d="M97.996 66.9957C94.9839 66.9957 92.5098 64.5216 92.5098 61.5096C92.5098 58.4976 94.9839 56.0234 97.996 56.0234C101.008 56.0234 103.482 58.4976 103.482 61.5096C103.428 64.5216 101.008 66.9957 97.996 66.9957Z" fill="#1B00FA"/>
<path d="M93.4243 54.3003C90.7888 55.8062 87.454 54.8919 85.948 52.3102L73.0393 29.236C71.4796 26.6005 72.3939 23.2119 75.0294 21.7059C77.6111 20.1999 80.9997 21.1142 82.5057 23.7498L95.4144 46.824C96.9203 49.4057 96.006 52.7943 93.4243 54.3003Z" fill="#FF9A9A"/>
<path d="M31.2477 66.2934C28.6122 64.7875 27.7516 61.399 29.2576 58.8172L49.4811 23.7487C50.9872 21.1132 54.3757 20.2526 56.9574 21.7586C59.593 23.2646 60.4536 26.6531 58.9476 29.2349L38.724 64.3034C37.218 66.8851 33.8294 67.7995 31.2477 66.2934Z" fill="#FF9A9A"/>
<path d="M54.86 66.2934C52.2245 64.7875 51.3639 61.399 52.87 58.8172L73.0397 23.7487C74.5457 21.1132 77.9343 20.2526 80.516 21.7586C83.1515 23.2646 84.0121 26.6531 82.506 29.2349L62.3363 64.3034C60.8303 66.8851 57.4417 67.7995 54.86 66.2934Z" fill="#FF0000"/>
<path d="M77.181 66.2934C74.5455 67.7995 71.2107 66.8851 69.7048 64.3033L49.4812 29.2348C47.9752 26.5993 48.8896 23.2646 51.4713 21.7586C54.1068 20.2525 57.4415 21.1669 58.9476 23.7486L79.1711 58.7634C80.6771 61.3988 79.8165 64.7874 77.181 66.2934Z" fill="#1B00FA"/>
</svg>
