<svg width="132" height="88" viewBox="0 0 132 88" fill="none" xmlns="http://www.w3.org/2000/svg">
<path fill-rule="evenodd" clip-rule="evenodd" d="M65.9996 5.27344C82.4784 5.27344 95.8371 18.1371 95.8371 34.005C95.8371 49.873 82.4784 62.7368 65.9996 62.7368V82.724H36.1621V33.3805C36.5141 17.8008 49.7375 5.27344 65.9996 5.27344ZM42.0379 51.324L42.0387 75.9675H60.1212L60.1207 62.6878C52.4048 61.6954 45.8149 57.3789 42.0379 51.324ZM42.4965 33.4282C42.811 21.0605 53.21 11.1219 66.0011 11.1219C78.9906 11.1219 89.5131 21.3711 89.5131 34.005C89.5131 46.639 78.9906 56.8882 66.0011 56.8882V33.4282H42.4965Z" fill="#404A4D"/>
</svg>
