<svg width="132" height="88" viewBox="0 0 132 88" fill="none" xmlns="http://www.w3.org/2000/svg">
<rect x="28.875" y="6.875" width="74.25" height="74.25" rx="37.125" fill="#634B9F"/>
<path d="M78.2206 32.1758C73.2497 32.1758 71.5928 35.0218 70.9193 37.7646C70.1948 34.5559 67.8126 32.1758 63.1007 32.1758C58.0982 32.1758 56.486 35.3068 55.8593 38.0929C54.5887 35.3219 51.0455 32.5344 45.6504 32.5344V55.8258H56.1107V43.9233C56.1107 40.1454 56.6795 36.3158 58.8027 36.3158C60.4597 36.3158 60.7703 37.9718 60.7703 41.3361V55.8258H71.2305V43.6129C71.2305 39.835 71.6444 36.3158 73.9226 36.3158C75.5802 36.3158 75.8908 37.9718 75.8908 41.3361V55.8258H86.3504V40.5074C86.3504 36.0054 84.1232 32.1758 78.2206 32.1758Z" fill="white"/>
</svg>
