<svg width="132" height="88" viewBox="0 0 132 88" fill="none" xmlns="http://www.w3.org/2000/svg">
<path d="M72.6437 33.6004L75.9669 30.2776C76.9277 29.3164 77.8441 28.4719 78.7109 27.7496C79.5778 27.027 80.4446 26.2826 81.3117 25.5105C83.2366 23.8746 84.8258 22.7187 86.0785 22.0438C87.3285 21.371 88.5339 21.0327 89.6897 21.0327C91.3256 21.0327 92.7954 21.6357 94.0952 22.8383C95.3953 24.0434 96.045 25.4164 96.045 26.9554C96.045 28.111 95.7317 29.2914 95.1062 30.4947C94.4789 31.7001 93.3483 33.3611 91.7115 35.4779C84.2003 45.3008 80.4446 51.6568 80.4446 54.5457C80.4446 55.7984 81.07 56.4239 82.3221 56.4239C83.284 56.4239 84.3449 56.0149 85.5007 55.1954C86.6557 54.3787 88.1479 52.9565 89.9785 50.9345C90.9397 49.8758 92.1205 48.4308 93.5171 46.6009C94.9125 44.7723 96.14 43.0869 97.2009 41.5451C98.2599 40.0055 99.151 38.9446 99.8733 38.3674C100.596 37.7894 101.438 37.5006 102.401 37.5006C103.363 37.5006 104.182 37.8389 104.857 38.511C105.53 39.186 105.868 40.0055 105.868 40.9673C105.868 42.7978 105.024 45.2289 103.34 48.262C101.654 51.2954 99.4622 54.4011 96.7673 57.5791C93.3956 61.6236 89.9535 64.7545 86.4395 66.9681C82.923 69.183 79.7223 70.2913 76.8337 70.2913C74.136 70.2913 71.9221 69.3992 70.1884 67.6188C68.4548 65.8378 67.5885 63.5513 67.5885 60.7574C67.5885 59.3125 67.7081 57.9404 67.9495 56.6403C68.1891 55.3399 68.5497 53.9928 69.0325 52.5955C69.5134 51.2005 70.1884 49.7069 71.0552 48.1175C71.9221 46.5284 73.0278 44.7723 74.3774 42.8452C74.4724 42.6533 74.7141 42.2674 75.1 41.6896C72.5942 43.6173 70.1165 46.0474 67.6605 48.9846C65.2051 51.9228 62.7246 55.7015 60.2213 60.3238C58.3904 63.4068 56.9938 65.4519 56.032 66.4629C55.0683 67.4743 53.8657 67.9795 52.421 67.9795C50.8793 67.9795 49.6041 67.4269 48.5927 66.3187C47.5814 65.2124 47.0762 63.84 47.0762 62.2014C47.0762 61.1433 47.1955 60.107 47.4369 59.0957C47.6764 58.0849 48.1825 56.7126 48.9544 54.9792C49.4343 53.6315 50.0598 52.1623 50.8319 50.5728C51.6016 48.9846 52.2765 47.7562 52.8543 46.89L55.5987 42.1229C55.7906 41.931 56.0796 41.4501 56.4655 40.6783C54.5378 42.2201 52.6603 43.978 50.8319 45.9506C48.9975 47.9297 47.2388 49.9778 45.5596 52.0903C43.8733 54.2093 42.3817 56.3513 41.0816 58.5182C39.7812 60.6848 38.6979 62.7791 37.8313 64.8019C36.6755 67.4986 35.6417 69.3023 34.7253 70.2187C33.8118 71.1329 32.6307 71.5907 31.1861 71.5907C29.7421 71.5907 28.5389 71.0129 27.5748 69.8577C26.614 68.7021 26.1309 67.2099 26.1309 65.3796C26.1309 61.7211 27.9134 55.4125 31.4751 46.4564C33.4978 41.3532 35.6893 36.6335 38.0475 32.3003C40.4066 27.9667 42.7426 24.2605 45.0535 21.1769C46.4012 19.4439 47.5571 18.2158 48.5208 17.4941C49.482 16.7715 50.5429 16.4102 51.6987 16.4102C52.9493 16.4102 54.0326 16.8437 54.949 17.7102C55.8631 18.5771 56.321 19.638 56.321 20.8882C56.321 21.8519 56.1048 22.8633 55.6713 23.922C55.238 24.9828 54.2014 26.8109 52.5653 29.4107C52.1254 30.1532 51.692 30.8995 51.2652 31.6496C50.6874 32.6609 49.9651 33.9389 49.0989 35.4779L47.5094 38.6556C50.3983 35.1889 52.9263 32.2526 55.0932 29.8443C57.2598 27.4382 59.1604 25.5105 60.7991 24.0665C62.4358 22.6219 63.9051 21.5629 65.2051 20.8882C66.5046 20.216 67.6829 19.8775 68.7438 19.8775C70.0915 19.8775 71.2474 20.3353 72.2111 21.2495C73.1723 22.1659 73.6551 23.2968 73.6551 24.6436C73.6551 25.5105 73.4611 26.4745 73.0773 27.5332C72.6914 28.594 71.8719 30.2302 70.622 32.4445L67.5885 37.9339L66.433 40.1005L68.1657 38.2229C69.8994 36.3943 71.3919 34.8525 72.6437 33.6004Z" fill="#1991EB"/>
</svg>
