<svg width="132" height="88" viewBox="0 0 132 88" fill="none" xmlns="http://www.w3.org/2000/svg">
<rect x="31.7617" y="9.76172" width="68.475" height="68.475" rx="20.4785" fill="#EF8F84"/>
<path fill-rule="evenodd" clip-rule="evenodd" d="M93.766 15.3019C90.1033 11.866 85.1765 9.76172 79.7582 9.76172H52.2402C40.9303 9.76172 31.7617 18.9303 31.7617 30.2402V57.7582C31.7617 69.0682 40.9303 78.2367 52.2402 78.2367H57.9495L93.766 15.3019Z" fill="#D9D9D9"/>
<path fill-rule="evenodd" clip-rule="evenodd" d="M93.766 15.3019C90.1033 11.866 85.1765 9.76172 79.7582 9.76172H52.2402C40.9303 9.76172 31.7617 18.9303 31.7617 30.2402V57.7582C31.7617 69.0682 40.9303 78.2367 52.2402 78.2367H57.9495L93.766 15.3019Z" fill="#F5BA87"/>
<path fill-rule="evenodd" clip-rule="evenodd" d="M40.2655 13.6289C35.1142 17.3482 31.7617 23.4042 31.7617 30.2433V57.7613C31.7617 69.0712 40.9303 78.2398 52.2402 78.2398H77.0359L40.2655 13.6289Z" fill="#715754"/>
<path fill-rule="evenodd" clip-rule="evenodd" d="M57.9473 78.2391L67.4914 61.4688L77.0354 78.2391H57.9473Z" fill="#543E3A"/>
<path d="M85.9408 28.6275C87.5165 27.0617 90.2107 28.1707 90.2107 30.3851V57.4066C90.2107 58.7794 89.0908 59.8922 87.7094 59.8922H54.4787L85.9408 28.6275Z" fill="white"/>
<path d="M50.7345 59.8922L73.7739 37.1064V30.385C73.7739 28.1707 71.0798 27.0617 69.5041 28.6275L42.3118 55.6491C40.7361 57.2149 41.8521 59.8922 44.0805 59.8922H50.7345Z" fill="white"/>
</svg>
