<svg width="132" height="88" viewBox="0 0 132 88" fill="none" xmlns="http://www.w3.org/2000/svg">
<path d="M34.0156 68.5203L64.934 19.4766H84.1249V26.3001L57.4716 68.5203" fill="#FBBC04"/>
<path d="M84.1252 68.5203H64.9343V19.4766H84.1249L84.1252 68.5203Z" fill="#1A73E8"/>
<path d="M97.9852 54.6598C97.9852 62.3149 91.7801 68.5203 84.1257 68.5203V40.7998C91.7801 40.7998 97.9852 47.0049 97.9852 54.6598Z" fill="#34A853"/>
<path d="M84.1252 68.5203C76.4708 68.5203 70.2657 62.3149 70.2657 54.6598C70.2657 47.0049 76.4708 40.7998 84.1252 40.7998V68.5203Z" fill="#0D652D"/>
<path d="M94.7867 30.1383C94.7867 36.0255 90.0149 40.7998 84.1257 40.7998V19.4766C90.0149 19.4766 94.7867 24.2508 94.7867 30.1383Z" fill="#1A73E8"/>
<path d="M84.1263 40.7998C78.2369 40.7998 73.4654 36.0255 73.4654 30.1383C73.4654 24.2508 78.2369 19.4766 84.1263 19.4766V40.7998Z" fill="#174EA6"/>
<path d="M35.082 29.0721C35.082 23.7731 39.379 19.4766 44.6775 19.4766C49.9771 19.4766 54.2728 23.7731 54.2728 29.0721C54.2728 34.3708 49.9771 38.6674 44.6775 38.6674C39.379 38.6674 35.082 34.3708 35.082 29.0721Z" fill="#EA4335"/>
</svg>
