<svg width="132" height="88" viewBox="0 0 132 88" fill="none" xmlns="http://www.w3.org/2000/svg">
<path d="M28.5 44C28.5 64.7107 45.2893 81.5 66 81.5C86.7107 81.5 103.5 64.7107 103.5 44C103.5 23.2893 86.7107 6.5 66 6.5C45.2893 6.5 28.5 23.2893 28.5 44Z" fill="url(#paint0_linear_2201_6058)"/>
<path d="M51.54 56.2386C51.1282 56.4112 50.6869 56.5002 50.2411 56.5H45.5V34.5051C45.5 34.0869 45.5814 33.6727 45.7396 33.2862C45.8979 32.8998 46.1298 32.5487 46.4221 32.253C46.7145 31.9572 47.0616 31.7227 47.4435 31.5626C47.8255 31.4026 48.2349 31.3202 48.6484 31.3202H53.4737V35.0263H53.5815C54.9823 32.2467 57.6761 30.5026 61.3397 30.5026C65.165 30.5026 67.8588 32.3557 69.1518 35.4078H69.2595C70.0692 33.8909 71.2777 32.63 72.7514 31.7644C74.2251 30.8987 75.9068 30.462 77.6104 30.5026C82.7825 30.5026 86.5 33.9907 86.5 40.0949V53.0664C86.5 53.5174 86.4123 53.9639 86.2416 54.3804C86.0711 54.797 85.8211 55.1755 85.5059 55.4944C85.1908 55.8132 84.8165 56.0661 84.4047 56.2386C83.9929 56.4112 83.5515 56.5002 83.1058 56.5H78.3646V42.8201C78.3646 39.6591 77.1795 37.7514 74.3239 37.7514C71.8456 37.7514 69.906 39.2775 69.906 44.019V53.0664C69.906 53.5174 69.8183 53.9639 69.6476 54.3804C69.4771 54.797 69.2271 55.1755 68.912 55.4944C68.5968 55.8132 68.2225 56.0661 67.8107 56.2386C67.3989 56.4112 66.9575 56.5002 66.5119 56.5H62.094V42.8201C62.094 39.6591 60.9087 37.7514 58.0532 37.7514C55.5749 37.7514 53.6354 39.2775 53.6354 44.019V53.0664C53.6354 53.5174 53.5476 53.9639 53.377 54.3804C53.2064 54.797 52.9564 55.1755 52.6412 55.4944C52.326 55.8132 51.9518 56.0661 51.54 56.2386Z" fill="white"/>
<defs>
<linearGradient id="paint0_linear_2201_6058" x1="91" y1="70" x2="39.5" y2="16" gradientUnits="userSpaceOnUse">
<stop stop-color="#E35784"/>
<stop offset="0.418393" stop-color="#C15AB2"/>
<stop offset="1" stop-color="#705CD6"/>
</linearGradient>
</defs>
</svg>
