<svg width="132" height="88" viewBox="0 0 132 88" fill="none" xmlns="http://www.w3.org/2000/svg">
<path fill-rule="evenodd" clip-rule="evenodd" d="M31.1125 58.5884C26.2958 53.814 26.2958 46.073 31.1127 41.2985L44.1955 28.3309C48.2674 24.2948 54.4781 23.6706 59.2115 26.4583C60.6758 27.3205 60.663 29.2985 59.4586 30.4922C58.2546 31.6858 56.2887 31.583 54.6542 31.1092C52.561 30.5024 50.2072 31.0171 48.5566 32.6534L35.4736 45.621C33.0652 48.0083 33.0651 51.8787 35.4735 54.266C37.882 56.6534 41.7869 56.6534 44.1953 54.266L70.3607 28.331C75.1778 23.5566 82.9873 23.5565 87.8044 28.331L100.887 41.2985C105.704 46.0729 105.704 53.814 100.887 58.5884C96.0704 63.3629 88.2607 63.3629 83.4436 58.5884L79.0829 54.266L73.6318 59.6692C69.5597 63.7052 63.3491 64.3294 58.6154 61.5417C57.1513 60.6795 57.1643 58.7016 58.3684 57.508C59.5726 56.3142 61.5383 56.4169 63.173 56.8907C65.2661 57.4977 67.6201 56.9828 69.2707 55.3466L74.8777 49.7892C77.2001 47.4872 80.9655 47.4872 83.288 49.7892L87.8047 54.266C90.2131 56.6533 94.1179 56.6533 96.5262 54.266C98.9348 51.8787 98.9348 48.0083 96.5262 45.621L83.4433 32.6535C81.035 30.2663 77.1302 30.2663 74.7218 32.6536L48.5563 58.5886C43.7393 63.3631 35.9294 63.3631 31.1125 58.5884Z" fill="black"/>
</svg>
