<svg width="132" height="88" viewBox="0 0 132 88" fill="none" xmlns="http://www.w3.org/2000/svg">
<mask id="mask0_2056_25056" style="mask-type:alpha" maskUnits="userSpaceOnUse" x="30" y="8" width="72" height="72">
<path d="M30.0176 43.9985C30.0176 63.8713 46.1276 79.9817 66.0005 79.9817C85.8734 79.9817 101.983 63.8713 101.983 43.9985C101.983 24.1259 85.8734 8.01562 66.0005 8.01562C46.1276 8.01562 30.0176 24.1259 30.0176 43.9985Z" fill="#0833B4"/>
</mask>
<g mask="url(#mask0_2056_25056)">
<path d="M66.0005 8.01562C46.1276 8.01562 30.0176 24.1258 30.0176 43.9987C30.0176 63.8713 46.1276 79.9816 66.0005 79.9816C85.8734 79.9816 101.983 63.8713 101.983 43.9987C101.983 24.1258 85.8734 8.01562 66.0005 8.01562Z" fill="#0833B4"/>
<path d="M36.0664 73.9342L66.0004 103.868L125.868 44.0002L95.9341 14.0664L36.0664 73.9342Z" fill="#D75034"/>
</g>
</svg>
