<svg width="132" height="88" viewBox="0 0 132 88" fill="none" xmlns="http://www.w3.org/2000/svg">
<path d="M15.6133 13.918H116.388V74.082H15.6133V13.918Z" fill="#BC271A"/>
<path fill-rule="evenodd" clip-rule="evenodd" d="M32.824 23.3694C32.9977 23.5427 34.6831 27.0261 36.5769 31.1334C43.3704 45.7949 45.4901 50.1968 46.5152 51.6699C47.0539 52.4325 47.1581 52.2592 50.1639 46.0549C50.9305 44.48 51.937 42.3981 52.9236 40.357C53.8153 38.5125 54.6908 36.7012 55.359 35.3273C58.0694 29.7296 60.1369 25.2237 60.5019 24.0626C60.8667 22.9707 61.4575 22.7974 64.637 22.9534C67.5038 23.1094 67.8513 23.2308 67.4864 24.0279C67.3301 24.3745 67.0521 24.5132 66.2355 24.6865C63.4208 25.2584 63.2296 27.1301 63.9594 45.327C64.3938 56.5224 64.5849 57.1463 67.4864 57.6142C68.1467 57.7182 68.8243 57.8395 68.9633 57.9089C69.5367 58.1168 69.5019 59.0527 68.9286 59.0873C66.722 59.226 57.3049 59.122 57.0791 58.966C56.5752 58.5848 56.9922 58.0649 58.1736 57.5969C59.1987 57.1983 59.3551 57.0597 59.7721 56.2451L60.2413 55.344L60.2238 49.6076C60.2065 46.4535 60.1022 42.4502 59.998 40.6824C59.9606 40.0542 59.9164 39.3499 59.8728 38.6539C59.7949 37.411 59.7186 36.1944 59.6852 35.4833C59.6031 34.0672 59.5962 33.0581 59.3128 32.9738C58.7569 32.8084 57.1368 36.2013 51.7971 47.0601C46.4063 58.0133 46.4009 58.0167 46.0897 58.2104C46.0759 58.2189 46.0616 58.2278 46.0461 58.2382C45.5075 58.5674 45.1426 58.1341 44.1523 55.9332C42.6754 52.6404 33.5885 34.3915 33.3626 34.2529C32.824 33.9236 32.685 36.1072 32.2854 49.469C32.1116 55.6732 32.7545 57.181 35.8472 57.7009C36.8375 57.8742 37.3067 58.8447 36.5422 59.122C35.8819 59.3473 25.822 59.018 25.7177 58.7407C25.5266 58.2901 25.9263 57.9089 26.8645 57.6836C29.4011 57.0424 29.6618 55.9158 30.2352 43.7846C30.8954 29.1231 30.2699 26.0036 26.3606 24.7732C24.6057 24.2185 23.9976 23.56 24.849 23.0921C25.3877 22.7801 32.4765 23.0401 32.824 23.3694ZM92.0735 23.5388C103.436 26.4156 108.666 39.3268 103.054 50.7128C100.865 55.1494 97.8066 57.697 93.0636 59.0315C89.8491 59.9326 89.8844 60.0019 95.5138 62.4802C104.166 66.3102 108.11 66.9688 110.89 65.0971C112.766 63.832 113.444 65.4264 111.707 67.0034C108.006 70.3309 101.873 70.2096 94.228 66.6741C94.0412 66.5915 93.441 66.3117 92.6701 65.9524L92.6693 65.9522C92.1478 65.7088 91.5468 65.4289 90.9436 65.149C89.4673 64.4558 86.4439 63.0174 84.2547 61.9603C78.6774 59.2567 77.3569 58.8408 75.7237 59.326C73.8994 59.8806 72.8569 61.527 72.631 64.2132C72.4747 66.2236 72.3704 66.5355 71.8665 66.6914C70.6677 67.0728 70.0943 64.2652 70.8936 61.8736C71.5364 59.9673 72.4747 58.6675 74.3338 57.0904C74.9071 56.6052 74.8897 56.5532 73.4998 55.5134C69.0345 52.1166 67.2797 48.3385 67.2797 42.117C67.2797 32.0653 72.1098 25.3931 80.745 23.5215C84.2374 22.7762 89.0675 22.7762 92.0735 23.5388ZM82.6736 25.0813C77.8609 25.9825 74.1601 29.1193 72.6485 33.5559C70.0249 41.3372 72.9264 51.1289 79.0771 55.2882C89.3283 62.203 101.386 56.1027 101.351 44.0234C101.317 32.2907 92.4207 23.279 82.6736 25.0813Z" fill="white"/>
</svg>
