<svg width="132" height="88" viewBox="0 0 132 88" fill="none" xmlns="http://www.w3.org/2000/svg">
<path d="M28 17.0323C28 10.9393 32.9393 6 39.0323 6H92.9677C99.0607 6 104 10.9393 104 17.0323V70.9677C104 77.0607 99.0607 82 92.9677 82H39.0323C32.9393 82 28 77.0607 28 70.9677V17.0323Z" fill="#721C41"/>
<path d="M55.5579 43.5393C55.5579 39.2214 58.1528 31.3098 60.4427 28.6478C62.3975 26.3749 63.9471 25.6129 66.615 25.6129C70.6112 25.6129 74.3536 28.5477 74.3536 31.6817C74.3536 34.9903 76.1184 34.9719 77.5249 31.65C79.2625 27.5476 82.7741 25.3953 87.071 25.7978C92.8789 26.3433 94.1904 30.4007 94.1915 47.8306L94.1936 62.3871H79.5747L79.559 56.0027C79.5298 44.3299 76.2395 43.7426 75.5722 55.2917L75.1619 62.3871H60.779V56.7014C60.779 50.7869 59.3035 46.5732 57.5941 47.6069C57.048 47.9369 56.6022 51.3967 56.6022 55.2968V62.3871H37.8065V27.6559H47.2043C57.7111 27.6559 57.4772 27.4373 55.442 35.3448C54.0512 40.7475 52.7793 41.9028 46.3627 43.5924L41.4612 44.8836L48.5096 44.9531C54.0052 45.0062 55.5579 44.6946 55.5579 43.5393Z" fill="#FFFF63"/>
</svg>
