<svg width="132" height="88" viewBox="0 0 132 88" fill="none" xmlns="http://www.w3.org/2000/svg">
<path d="M98.7884 35.7344L109.419 59.6345C111.57 64.471 109.397 70.1374 104.566 72.2907C99.7338 74.444 94.073 72.2689 91.9218 67.4325L83.3283 48.112L79.541 57.043V35.7344H98.7884V35.7344Z" fill="#2AA8FF"/>
<path d="M99.9388 38.3281L102.138 43.2731C100.81 42.8111 99.3825 42.5601 97.8966 42.5601C91.759 42.5601 86.622 46.8432 85.3135 52.5827L83.3265 48.1155L81.2207 53.0814L81.2207 38.3281H99.9388Z" fill="#393939" fill-opacity="0.2"/>
<path d="M67.9459 35.317V52.2418H50.2359L48.4001 48.1143L46.6498 52.2418H27.0605V49.3699L39.3382 20.4171C40.891 16.7553 44.4513 14.5612 48.1909 14.5743C51.8698 14.5615 55.3855 16.6833 56.978 20.2636L65.8607 40.2342L67.9459 35.317Z" fill="#017ACE"/>
<path d="M65.85 40.2053L65.8629 40.2342L74.2665 20.4171C75.8193 16.7553 79.3795 14.5612 83.1192 14.5743C86.7981 14.5615 90.3138 16.6833 91.9062 20.2636L102.131 43.2518C100.069 41.4694 97.3826 40.3914 94.4446 40.3914C89.3397 40.3914 84.994 43.6457 83.3643 48.1952L83.3284 48.1143L75.0732 67.5813C73.0067 72.4546 67.3847 74.7283 62.5162 72.6597C62.0399 72.4573 61.5884 72.2209 61.1634 71.9544C59.378 70.9826 57.8863 69.4367 56.9958 67.4347L48.4355 48.1891C49.7242 48.5585 51.0852 48.7563 52.4923 48.7563C58.4134 48.7563 63.5174 45.2538 65.85 40.2053Z" fill="#AEDEFF"/>
<path d="M48.3469 48.2375L42.1823 62.7746C40.6789 63.4654 39.0037 63.8501 37.2375 63.8501C31.0424 63.8501 25.9651 59.116 25.502 53.043L29.7325 43.0667C31.7697 41.3782 34.3851 40.3633 37.2375 40.3633C42.3719 40.3633 46.7383 43.6516 48.3469 48.2375Z" fill="black"/>
<path d="M46.5388 52.5036L40.1462 67.5786C38.0796 72.4519 32.4576 74.7256 27.5891 72.657C22.7206 70.5884 20.4491 64.9608 22.5157 60.0875L29.6142 43.3481C31.1168 42.6822 32.7787 42.3125 34.5266 42.3125C40.561 42.3125 45.5706 46.7194 46.5388 52.5036Z" fill="#393939"/>
</svg>
