<svg width="132" height="88" viewBox="0 0 132 88" fill="none" xmlns="http://www.w3.org/2000/svg">
<path d="M51.5099 26.2362V33.3861H67.2292V48.6964H80.948V26.2789C80.948 25.6066 80.3922 25.0611 79.7062 25.0603L52.7559 25.0176C52.0678 25.0163 51.5099 25.5623 51.5099 26.2362Z" fill="#FFE7E6"/>
<path d="M48.3662 23.1382V16.7175C48.3662 16.179 48.812 15.7426 49.3614 15.7426H84.2722C84.8216 15.7426 85.267 16.179 85.267 16.7175V23.1382C85.267 23.6767 84.8216 24.1131 84.2722 24.1131H49.3614C48.8116 24.1131 48.3662 23.6767 48.3662 23.1382Z" fill="#FFE7E6"/>
<path d="M80.9323 36.3502H68.7853V32.2217L68.8022 25.0366L63.0009 25.0155V34.157H67.2931V42.6752H68.7853V42.0136H80.9323V36.3502Z" fill="#FF564F"/>
<path d="M64.7611 64.0066H39.3923V44.1637C39.3923 43.6252 39.8381 43.1888 40.3875 43.1888H64.7615L64.7611 64.0066Z" fill="#FF9B19"/>
<path d="M67.288 42.0373H38.1096C37.4227 42.0373 36.8657 41.4914 36.8657 40.8182V33.5469C36.8657 32.8742 37.4227 32.3283 38.1096 32.3283H66.0445C66.7314 32.3283 67.2884 32.8742 67.2884 33.5469L67.288 42.0373Z" fill="#FF9B19"/>
<path d="M54.9667 32.3283H49.1873V42.0377H54.9667V32.3283Z" fill="#2568EF"/>
<path d="M64.7522 50.7817H54.9666V43.1888H49.1872V50.7817H39.3745V56.4448H49.1872V57.2854H54.9666V56.4448H64.7522V50.7817Z" fill="#2568EF"/>
<path d="M94.8575 74.2213C94.3474 74.0787 93.8411 73.9697 93.3446 73.8922C93.6055 72.6342 93.7417 71.9519 93.7417 70.3635C93.7417 63.9971 91.558 55.6965 87.8871 48.1558C70.4958 53.3032 49.5186 57.0988 38.731 58.8795C37.5848 62.9865 36.9575 66.9529 36.9575 70.3635C36.9575 72.0621 37.1128 72.829 37.4105 74.1509C37.3213 74.1737 37.2325 74.1965 37.1432 74.2213C33.1437 75.3413 30.438 78.0883 31.0995 80.3573C31.7615 82.6263 35.5398 83.5577 39.5389 82.4377C40.5747 82.1476 55.888 84 65.3492 84C75.2118 84 91.1359 82.0663 92.461 82.4377C96.4605 83.5573 100.239 82.6259 100.9 80.3573C101.562 78.0883 98.8566 75.3413 94.8575 74.2213Z" fill="#FF564F"/>
<path d="M95.0655 45.8341C94.2817 42.5885 90.9615 40.5798 87.6493 41.3475C87.5105 41.3798 87.3722 41.4117 87.2331 41.4441C87.8003 39.5104 87.3663 37.3429 85.8881 35.7413C83.6134 33.2758 79.7306 33.0843 77.2144 35.3135C76.1261 36.2776 74.7029 37.282 73.217 38.235C71.7172 39.1904 70.1235 40.1114 68.4976 41.008C66.8713 41.9067 65.1989 42.773 63.5071 43.6202C61.8165 44.47 60.1006 45.2957 58.3711 46.1052C54.9134 47.7272 51.3973 49.2799 47.855 50.7871C44.3161 52.2893 40.7251 53.7587 37.1583 55.1427L37.1304 55.1535C35.8835 55.6356 35.1543 56.955 35.472 58.271C35.8213 59.7152 37.2987 60.6089 38.7728 60.2669C42.4847 59.4056 46.1319 58.4899 49.7943 57.5233C50.342 57.4371 50.891 57.3533 51.4413 57.2729C53.529 56.9529 85.3001 53.6012 89.5526 53.2443L89.6287 53.2389C89.9138 53.2132 90.1997 53.1676 90.4865 53.1009C93.7991 52.3332 95.8488 49.0797 95.0655 45.8341Z" fill="#FFE7E6"/>
<path d="M74.0591 66.6826C72.7251 66.1467 71.3915 65.8739 70.0579 65.67C69.7255 65.6219 69.393 65.5796 69.061 65.5436C69.1117 65.4843 69.1642 65.4263 69.215 65.3666C70.0634 64.3597 70.878 63.3193 71.581 62.1695C71.6377 62.0762 71.6419 61.956 71.581 61.8561C71.4926 61.7119 71.3014 61.665 71.1542 61.7513C69.9809 62.4402 68.9193 63.2385 67.8919 64.0704C67.7866 64.1562 67.6838 64.2445 67.5798 64.3312C67.532 63.7977 67.4723 63.2642 67.392 62.7307C67.183 61.4238 66.9052 60.1168 66.3579 58.8099C66.3058 58.686 66.2043 58.5803 66.0677 58.5251C65.7957 58.4161 65.4853 58.5434 65.3736 58.8099C64.8267 60.1168 64.5484 61.4238 64.3399 62.7307C64.2646 63.2315 64.2079 63.7322 64.1614 64.2325C64.0963 64.1786 64.0324 64.1239 63.9668 64.07C62.9395 63.2381 61.8778 62.4402 60.7041 61.7513C60.609 61.6957 60.4863 61.6916 60.3848 61.7513C60.2372 61.8379 60.1894 62.0248 60.2778 62.1691C60.9803 63.3189 61.7949 64.3593 62.6438 65.3662C62.6925 65.4234 62.7428 65.4793 62.7919 65.5361C62.5461 65.5622 62.3004 65.5875 62.0551 65.6198C60.7211 65.8072 59.3875 66.0601 58.0539 66.5736C57.8931 66.6362 57.7557 66.7622 57.6876 66.9322C57.5565 67.2588 57.7206 67.6277 58.0539 67.7558C59.3875 68.2694 60.7211 68.5222 62.0551 68.7096C62.3406 68.7469 62.6265 68.778 62.912 68.8066C62.6857 69.0565 62.462 69.3086 62.2407 69.5639C61.3843 70.5633 60.5612 71.595 59.8485 72.7353C59.7766 72.851 59.7711 73.0014 59.8485 73.1249C59.958 73.3003 60.1923 73.3554 60.3713 73.2481C61.5348 72.5492 62.588 71.7426 63.6078 70.9036C63.8285 70.72 64.0459 70.5339 64.2625 70.3469C64.2722 70.4219 64.2786 70.497 64.2891 70.572C64.4803 71.8794 64.7383 73.1863 65.2624 74.4928C65.3263 74.6503 65.4553 74.7846 65.6287 74.8518C65.962 74.9799 66.338 74.8195 66.4691 74.4928C66.9936 73.1859 67.2511 71.8789 67.4427 70.572C67.4571 70.4642 67.4677 70.356 67.4808 70.2483C67.735 70.4692 67.9913 70.688 68.251 70.9036C69.2712 71.7426 70.324 72.5492 71.4875 73.2481C71.6055 73.3185 71.7591 73.3235 71.8851 73.2481C72.064 73.1403 72.1203 72.9106 72.0107 72.7353C71.2976 71.595 70.4745 70.5633 69.618 69.5639C69.3943 69.3057 69.1676 69.0503 68.9383 68.7975C69.3114 68.7585 69.6849 68.7138 70.0579 68.6603C71.3915 68.4555 72.7251 68.1832 74.0591 67.6468C74.1856 67.5958 74.2934 67.4963 74.3493 67.3624C74.4609 67.0967 74.3311 66.7921 74.0591 66.6826Z" fill="#FFE7E6"/>
<path d="M79.9904 10.9948C79.7848 10.0928 79.4435 9.31352 79.0717 8.57528C78.7008 7.84658 78.2786 7.12948 77.747 6.44264C77.486 6.0986 77.187 5.76617 76.8533 5.45156C76.5208 5.13736 76.141 4.84139 75.7058 4.59642C75.2727 4.35144 74.7799 4.16036 74.2597 4.06792C73.7403 3.97383 73.2023 3.98004 72.7036 4.07082C71.7003 4.25859 70.8722 4.71455 70.1641 5.21694C68.7557 6.24741 67.7338 7.51082 66.7898 8.78958C66.5114 9.17425 66.2492 9.56637 65.9937 9.96181C65.9514 9.96016 65.9096 9.95642 65.8673 9.95601C65.6131 9.56264 65.3517 9.17217 65.0746 8.78958C64.131 7.51082 63.1091 6.24741 61.7007 5.21694C60.9922 4.71455 60.1641 4.25859 59.1608 4.07082C58.6626 3.98004 58.1246 3.97383 57.6047 4.06792C57.0845 4.16077 56.5917 4.35144 56.1586 4.59642C55.7234 4.84139 55.3436 5.13736 55.0111 5.45156C54.6774 5.76617 54.378 6.0986 54.117 6.44264C53.5858 7.12948 53.1636 7.84658 52.7927 8.57528C52.4209 9.31352 52.08 10.0928 51.874 10.9948C51.77 11.4429 51.7108 11.934 51.7357 12.4634C51.7611 12.9906 51.8884 13.5734 52.1794 14.1139C52.4717 14.6541 52.9158 15.1113 53.3861 15.4313C53.8586 15.7562 54.3492 15.9627 54.8204 16.1094C55.7678 16.3991 56.6598 16.4766 57.5223 16.5011C58.3826 16.5169 59.2171 16.4729 60.0355 16.3884C57.9055 18.8178 55.2273 22.5736 53.8222 27.2887L57.0198 25.4043L58.5978 28.6549C59.5859 25.3384 61.3864 22.5513 63.0013 20.5401V24.1156H68.7811V21.3795C69.9235 22.5194 71.1175 24.0282 71.8082 25.8271L73.0568 22.5728L76.465 24.1107C75.0421 20.4045 72.243 17.7015 70.3354 16.1898C71.6301 16.3946 72.9531 16.5268 74.3426 16.5011C75.205 16.4766 76.097 16.3995 77.0444 16.1094C77.5156 15.9627 78.0062 15.7562 78.4787 15.4313C78.949 15.1113 79.3931 14.6541 79.6854 14.1139C79.9764 13.5734 80.1037 12.9906 80.1291 12.4634C80.1532 11.934 80.094 11.4429 79.9904 10.9948ZM67.6323 15.711C67.6547 15.6986 67.6776 15.687 67.7 15.6737C67.7376 15.6829 67.7753 15.6916 67.8129 15.6999L67.8061 15.711H67.6323ZM57.5265 13.5407C56.8459 13.5589 56.1794 13.5195 55.6392 13.3848C55.3694 13.3189 55.1385 13.2281 54.9705 13.1274C54.8001 13.025 54.6922 12.9243 54.6064 12.802C54.526 12.6764 54.4642 12.5069 54.4376 12.2798C54.4126 12.0534 54.4186 11.7832 54.471 11.4897C54.567 10.9036 54.7929 10.2603 55.072 9.6269C55.3592 8.98607 55.6883 8.37052 56.0669 7.83125C56.4424 7.2928 56.8734 6.8215 57.3374 6.54212C57.8014 6.2586 58.2633 6.15082 58.7899 6.22253C59.3173 6.29383 59.8942 6.56201 60.4381 6.93839C61.5332 7.7015 62.5174 8.80202 63.3731 9.97632C63.5156 10.1707 63.651 10.3718 63.788 10.5716C63.033 11.0814 62.5157 11.864 62.4193 12.7606C62.2082 12.8132 61.9972 12.8679 61.7857 12.9164C60.3514 13.2422 58.8994 13.5009 57.5265 13.5407ZM77.4264 12.2798C77.3997 12.5069 77.3384 12.6764 77.258 12.802C77.1722 12.9243 77.0639 13.025 76.8939 13.1274C76.726 13.2281 76.495 13.3189 76.2252 13.3848C75.685 13.5195 75.0185 13.5589 74.3383 13.5407C72.965 13.5009 71.513 13.2422 70.0791 12.9168C69.7983 12.8522 69.5178 12.7813 69.2378 12.7096C69.1342 11.8884 68.6804 11.1635 68.0121 10.6636C68.169 10.4323 68.3268 10.2006 68.4913 9.97591C69.347 8.8016 70.3308 7.70109 71.4258 6.93798C71.9698 6.56202 72.5467 6.29383 73.0741 6.22253C73.6011 6.15082 74.063 6.25818 74.5266 6.5417C74.9905 6.82108 75.422 7.29239 75.7975 7.83125C76.1761 8.37011 76.5052 8.98565 76.7923 9.6269C77.0711 10.2599 77.2974 10.9036 77.3934 11.4893C77.4458 11.7832 77.4518 12.0534 77.4264 12.2798Z" fill="#FF564F"/>
<path d="M70.1768 55.2203C70.51 55.2336 84.6716 55.6282 91.9597 58.8489C91.9597 58.8489 91.0228 55.0744 90.0703 53.1838L70.1768 55.2203Z" fill="#2568EF"/>
</svg>
