<svg width="132" height="88" viewBox="0 0 132 88" fill="none" xmlns="http://www.w3.org/2000/svg">
<path d="M83.7881 3.02344L71.7155 10.0844L71.8221 36.5093L81.0102 20.3548C79.6214 19.0708 79.301 17.0384 80.2624 15.3265C81.4376 13.4008 83.8946 12.6517 85.8177 13.8286C87.8478 14.8985 88.4888 17.4661 87.4204 19.3921C86.4587 21.1037 84.3218 21.8525 82.5055 21.2106L73.3177 37.3651V37.4723L89.2367 27.9507L95.9672 23.9924L95.8604 9.97717L83.7881 3.02344Z" fill="#F01616"/>
<path d="M104.087 41.2168L91.9077 34.2628L69.1514 47.5289L87.7407 47.4217C88.1684 45.6029 89.7708 44.3194 91.6939 44.3194C93.9376 44.3194 95.8604 46.1381 95.8604 48.3847C95.8604 50.6315 94.0441 52.4502 91.8007 52.5569C89.7706 52.5569 88.0614 51.059 87.7404 49.1335L69.1511 49.2402L85.2837 58.4407L92.0143 62.2924L104.087 55.2315L104.087 41.2168Z" fill="#515151"/>
<path d="M91.1597 77.9125V63.8976L68.4034 50.6317L77.6983 66.7865C79.5146 66.2516 81.4376 67.0004 82.3993 68.605C83.5745 70.6377 82.8265 73.0986 80.9034 74.2752C78.9806 75.4521 76.416 74.7033 75.241 72.7773C74.2793 71.0657 74.7068 68.8189 76.2021 67.6423L66.9075 51.4875V70.1027L67.0143 77.9125L79.0869 84.8665L91.1597 77.9125Z" fill="#515151"/>
<path d="M53.019 84.9734L65.1983 77.9125L65.3054 51.5945L55.9037 67.6421C57.2925 68.9261 57.6129 71.0657 56.6515 72.6703C55.4762 74.5958 53.019 75.3452 50.9891 74.1683C49.0661 72.9914 48.425 70.5308 49.4935 68.605C50.5617 66.7865 52.5915 66.1444 54.4078 66.7865L63.8095 50.6317L47.7837 59.9389L40.9464 63.8976V77.9125L53.019 84.9734Z" fill="#515151"/>
<path d="M27.9121 55.2318L39.985 62.2927L62.9546 49.2405H44.365C43.9379 50.9523 42.2284 52.3431 40.3053 52.3431C38.0616 52.3431 36.2454 50.4176 36.2454 48.1711C36.2454 45.924 38.1687 44.1053 40.4121 44.1053C42.3352 44.1053 44.0447 45.6032 44.365 47.422L62.9546 47.5289L46.9291 38.2215L40.1985 34.3701L28.0189 41.3238L27.9121 55.2318Z" fill="#515151"/>
<path d="M41.1598 18.75L41.053 32.7649L63.7026 46.1382L54.5144 29.9834C52.8052 30.4114 50.7751 29.6626 49.9205 28.058C48.7453 26.025 49.4931 23.5644 51.4161 22.3875C53.3392 21.3178 55.9035 21.9598 56.9717 23.9924C58.0402 25.704 57.6128 27.8438 56.1171 29.1274L65.3053 45.2821V18.9641L53.3392 11.7962L41.1598 18.75Z" fill="#515151"/>
</svg>
