<svg width="132" height="88" viewBox="0 0 132 88" fill="none" xmlns="http://www.w3.org/2000/svg">
<path d="M36.7517 43.5001C35.9759 43.5001 35.2313 43.8084 34.6829 44.3573C34.1345 44.9059 33.8256 45.65 33.8256 46.4261V50.6803C33.8135 51.0722 33.88 51.4624 34.0218 51.8282C34.1627 52.1937 34.376 52.5272 34.6487 52.8088C34.9214 53.0904 35.2484 53.3143 35.6096 53.4672C35.9709 53.6201 36.3583 53.6987 36.7507 53.6987C37.1421 53.6987 37.5306 53.6201 37.8918 53.4672C38.252 53.3143 38.579 53.0904 38.8517 52.8088C39.1244 52.5272 39.3377 52.1937 39.4796 51.8282C39.6205 51.4624 39.6869 51.0722 39.6748 50.6803V46.4261C39.6748 45.6506 39.3669 44.9067 38.8185 44.3581C38.2712 43.8095 37.5276 43.5009 36.7517 43.5001ZM47.9248 70.3233H43.6676C42.9079 70.3475 42.1884 70.6665 41.6591 71.2118C41.1299 71.7583 40.835 72.4889 40.835 73.2485C40.835 74.0083 41.1299 74.739 41.6591 75.2843C42.1884 75.8296 42.9079 76.1486 43.6676 76.1728H47.9248C48.3164 76.1849 48.7067 76.1184 49.073 75.9776C49.4384 75.8357 49.7715 75.6223 50.0531 75.3498C50.3349 75.077 50.5582 74.75 50.7111 74.3897C50.864 74.0284 50.9435 73.6401 50.9435 73.2485C50.9435 72.8561 50.864 72.4686 50.7111 72.1075C50.5582 71.7462 50.3349 71.4192 50.0531 71.1464C49.7715 70.8739 49.4384 70.6605 49.073 70.5197C48.7067 70.3778 48.3164 70.3112 47.9248 70.3233ZM36.7517 59.1066C35.9769 59.1066 35.2323 59.4143 34.6839 59.9624C34.1355 60.5105 33.8266 61.2541 33.8256 62.0296V66.286C33.8135 66.6785 33.88 67.069 34.0218 67.4342C34.1627 67.8005 34.376 68.1338 34.6487 68.4154C34.9214 68.6972 35.2484 68.9205 35.6096 69.0734C35.9709 69.2263 36.3583 69.305 36.7507 69.305C37.1421 69.305 37.5306 69.2263 37.8918 69.0734C38.252 68.9205 38.579 68.6972 38.8517 68.4154C39.1244 68.1338 39.3377 67.8005 39.4796 67.4342C39.6205 67.069 39.6869 66.6785 39.6748 66.286V62.0296C39.6738 61.2546 39.3659 60.5116 38.8175 59.9635C38.2701 59.4154 37.5265 59.1072 36.7517 59.1066ZM40.349 29.084C40.0693 28.8206 39.7392 28.6149 39.38 28.479C39.0198 28.3429 38.6364 28.2794 38.252 28.2915C37.8676 28.3039 37.4893 28.3919 37.1391 28.5505C36.788 28.7092 36.473 28.9353 36.2094 29.216C34.7161 30.8022 33.8669 32.887 33.8256 35.0653C33.8075 35.8408 34.0973 36.5921 34.6316 37.1539C35.1669 37.716 35.9035 38.0424 36.6783 38.0614H36.7517C37.5145 38.0617 38.248 37.7641 38.7944 37.2315C39.3408 36.6993 39.6577 35.9744 39.6779 35.2119C39.698 34.4977 39.9787 33.8157 40.4668 33.2943C40.7415 33.0135 40.9578 32.6802 41.1007 32.3145C41.2446 31.9484 41.313 31.5574 41.3019 31.1644C41.2908 30.7714 41.2013 30.3848 41.0373 30.0273C40.8733 29.6698 40.6398 29.3491 40.349 29.084ZM63.5275 70.3233H59.2702C58.8789 70.3112 58.4884 70.3778 58.1232 70.5197C57.7569 70.6605 57.4239 70.8739 57.142 71.1464C56.8604 71.4192 56.6368 71.7462 56.4839 72.1075C56.331 72.4686 56.2527 72.8561 56.2527 73.2485C56.2527 73.6401 56.331 74.0284 56.4839 74.3897C56.6368 74.75 56.8604 75.077 57.142 75.3498C57.4239 75.6223 57.7569 75.8357 58.1232 75.9776C58.4884 76.1184 58.8789 76.1849 59.2702 76.1728H63.5275C63.9191 76.1849 64.3093 76.1184 64.6756 75.9776C65.0408 75.8357 65.3741 75.6223 65.6557 75.3498C65.9376 75.077 66.1609 74.75 66.3138 74.3897C66.4667 74.0284 66.5462 73.6401 66.5462 73.2485C66.5462 72.8561 66.4667 72.4686 66.3138 72.1075C66.1609 71.7462 65.9376 71.4192 65.6557 71.1464C65.3741 70.8739 65.0408 70.6605 64.6756 70.5197C64.3093 70.3778 63.9191 70.3112 63.5275 70.3233ZM76.7586 69.5495C76.2171 70.0486 75.5068 70.3252 74.7703 70.3233C73.9954 70.3233 73.251 70.6321 72.7023 71.1808C72.154 71.7291 71.8463 72.4727 71.8463 73.2485C71.8463 74.0245 72.154 74.7681 72.7023 75.3165C73.251 75.8648 73.9954 76.1728 74.7703 76.1728C76.9437 76.1445 79.0287 75.3104 80.6226 73.8331C80.9856 73.6068 81.2947 73.304 81.529 72.9446C81.7625 72.5855 81.9146 72.1798 81.974 71.7563C82.0334 71.3317 82.0001 70.9 81.8741 70.4902C81.7496 70.0808 81.5362 69.7046 81.2493 69.3864C80.9625 69.0685 80.6094 68.8169 80.2151 68.6499C79.8204 68.4827 79.395 68.4044 78.9671 68.4203C78.5395 68.4354 78.1201 68.5452 77.7387 68.7404C77.3573 68.9357 77.0242 69.2115 76.7616 69.5495H76.7586ZM89.3937 11.8242H57.2275C56.0745 11.8242 54.9335 12.0513 53.8687 12.4925C52.8042 12.9337 51.8362 13.5803 51.0211 14.3955C50.2071 15.2105 49.56 16.1783 49.1194 17.2432C48.6786 18.3083 48.4523 19.4496 48.4523 20.6022V52.7736C48.4523 55.101 49.3768 57.3329 51.0222 58.9785C51.8373 59.7933 52.8042 60.4398 53.8687 60.8809C54.9335 61.3217 56.0745 61.5486 57.2275 61.5486H89.3998C91.7274 61.5486 93.959 60.6241 95.6043 58.9785C97.2505 57.3329 98.1742 55.101 98.1742 52.7736V20.6022C98.1753 19.4491 97.9479 18.3073 97.5071 17.2419C97.0654 16.1766 96.4194 15.2085 95.6032 14.3934C94.7881 13.5782 93.8201 12.9316 92.7545 12.4908C91.6892 12.0499 90.5471 11.8234 89.3937 11.8242ZM92.32 52.7736C92.32 53.5491 92.012 54.293 91.4637 54.8416C90.9161 55.3903 90.1725 55.6988 89.3968 55.6996H57.2245C56.4487 55.6988 55.7051 55.3903 55.1568 54.8416C54.6093 54.293 54.3015 53.5491 54.3015 52.7736V20.6022C54.3015 19.8268 54.6093 19.0829 55.1568 18.5343C55.7051 17.9857 56.4487 17.677 57.2245 17.6762H89.3968C90.1725 17.677 90.9161 17.9857 91.4637 18.5343C92.012 19.0829 92.32 19.8268 92.32 20.6022V52.7736Z" fill="#1E1E1E"/>
</svg>
