<svg width="132" height="88" viewBox="0 0 132 88" fill="none" xmlns="http://www.w3.org/2000/svg">
<path d="M66.0008 8.11328C85.8206 8.11328 101.888 24.181 101.888 44.0008C101.888 63.8206 85.8206 79.8883 66.0008 79.8883C46.181 79.8883 30.1133 63.8206 30.1133 44.0008C30.1133 24.181 46.181 8.11328 66.0008 8.11328ZM66.0008 46.8201L75.144 55.9633H56.8576L66.0008 46.8201ZM77.9633 34.8576V53.144L68.8201 44.0008L77.9633 34.8576ZM54.0383 53.144V34.8576L63.1815 44.0008L54.0383 53.144ZM80.7067 59.8031C80.9539 59.7033 81.1783 59.5548 81.3667 59.3664C81.5551 59.178 81.7036 58.9536 81.8034 58.7067L81.7932 58.7325C81.8969 58.4872 81.9508 58.2235 81.9508 57.957V30.0445C81.9508 28.2702 79.8036 27.379 78.5474 28.6349L66.0008 41.1815L53.4542 28.6349C52.198 27.379 50.0508 28.268 50.0508 30.0445V57.957C50.0508 58.4859 50.2612 58.993 50.6349 59.3667C51.0089 59.7407 51.5163 59.9508 52.0445 59.9508H79.957C80.2323 59.9508 80.4952 59.895 80.7345 59.7932L80.7067 59.8053V59.8031Z" fill="#31303A"/>
</svg>
