<svg width="132" height="88" viewBox="0 0 132 88" fill="none" xmlns="http://www.w3.org/2000/svg">
<path d="M104.775 69.2992V39.3626C104.775 25.587 99.0488 18.6992 87.5971 18.6992C80.6323 18.6992 75.3753 21.7231 71.8259 27.7709C69.482 21.7231 64.5598 18.6992 57.0593 18.6992C54.1796 18.6992 51.5343 19.4384 49.1234 20.9167C46.7795 22.3951 44.8709 24.3102 43.3976 26.6622L43.1967 26.763L43.2971 19.6064H27.2246V69.2992H43.2971V43.7976C43.2971 40.1017 43.9668 37.2122 45.3062 35.1291C46.7126 32.9788 48.7216 31.9036 51.3334 31.9036C55.7534 31.9036 57.9633 35.3643 57.9633 42.2857V69.2992H74.0359V43.7976C74.0359 40.1017 74.7056 37.2122 76.0449 35.1291C77.4513 32.9788 79.4604 31.9036 82.0722 31.9036C86.4251 31.9036 88.6016 35.3643 88.6016 42.2857V69.2992H104.775Z" fill="black"/>
</svg>
