<svg width="132" height="88" viewBox="0 0 132 88" fill="none" xmlns="http://www.w3.org/2000/svg">
<path fill-rule="evenodd" clip-rule="evenodd" d="M66.001 11.1055C47.8638 11.1055 33.1055 25.862 33.1055 44.001C33.1055 62.1363 47.8638 76.8946 66.001 76.8946C84.14 76.8946 98.8946 62.1381 98.8946 44.001C98.8946 25.862 84.14 11.1055 66.001 11.1055ZM66.001 73.8421C49.5468 73.8421 36.1598 60.4551 36.1598 44.001C36.1598 27.545 49.5468 14.158 66.001 14.158C82.4551 14.158 95.8421 27.545 95.8421 44.001C95.8421 60.4551 82.4551 73.8421 66.001 73.8421ZM66.0596 44.9048L56.1266 33.4446H55.9763V54.2126H58.9976V41.0145L65.9111 49.303H66.0596L73.0025 41.0163V54.2126H76.0256V33.4446H75.8753L66.0596 44.9048Z" fill="black"/>
</svg>
