<svg width="132" height="88" viewBox="0 0 132 88" fill="none" xmlns="http://www.w3.org/2000/svg">
<path fill-rule="evenodd" clip-rule="evenodd" d="M74.3139 12.9197C98.4348 19.3939 102.724 31.0417 97.029 52.3299C91.3345 73.618 81.8063 81.5574 57.6853 75.0834C33.5644 68.6092 29.2757 56.9614 34.9702 35.6732C40.6647 14.3851 50.193 6.44564 74.3139 12.9197Z" fill="#F7578C"/>
<path fill-rule="evenodd" clip-rule="evenodd" d="M49.3821 44.3564C46.3213 37.9478 46.1823 31.6627 49.9215 27.9235C53.6607 24.1843 59.9458 24.3233 66.3545 27.384C72.7631 24.3233 79.0482 24.1843 82.7874 27.9235C86.5266 31.6627 86.3876 37.9478 83.3269 44.3564C86.3876 50.7651 86.5266 57.0501 82.7874 60.7893C79.0482 64.5285 72.7631 64.3896 66.3545 61.3287C59.9458 64.3896 53.6607 64.5285 49.9215 60.7893C46.1823 57.0501 46.3213 50.7651 49.3821 44.3564ZM52.386 39.3182C53.577 37.6609 54.9523 36.039 56.4947 34.4966C58.0372 32.9542 59.6591 31.5788 61.3164 30.3879C57.8363 29.333 54.8544 29.5637 53.2082 31.21C51.5619 32.8564 51.331 35.8381 52.386 39.3182ZM80.323 49.3945C79.1321 51.0518 77.7566 52.6737 76.2143 54.2161C74.6718 55.7586 73.05 57.134 71.3926 58.3249C74.8727 59.3799 77.8545 59.149 79.5008 57.5028C81.1471 55.8565 81.3779 52.8746 80.323 49.3945ZM52.386 49.3945C51.331 52.8746 51.5619 55.8565 53.2082 57.5028C54.8544 59.149 57.8363 59.3799 61.3164 58.3249C59.6591 57.134 58.0372 55.7586 56.4947 54.2161C54.9523 52.6737 53.577 51.0518 52.386 49.3945ZM54.6458 44.3564C55.9436 46.565 57.6643 48.8125 59.7813 50.9296C61.8984 53.0466 64.1459 54.7673 66.3545 56.0652C68.5631 54.7673 70.8107 53.0466 72.9276 50.9296C75.0447 48.8125 76.7653 46.565 78.0632 44.3564C76.7653 42.1478 75.0447 39.9002 72.9276 37.7832C70.8107 35.6661 68.5631 33.9456 66.3545 32.6476C64.1459 33.9456 61.8984 35.6661 59.7813 37.7832C57.6643 39.9002 55.9436 42.1478 54.6458 44.3564ZM71.3926 30.3879C73.05 31.5788 74.6718 32.9542 76.2143 34.4966C77.7566 36.039 79.1321 37.6609 80.323 39.3182C81.3779 35.8381 81.1471 32.8564 79.5008 31.21C77.8545 29.5637 74.8727 29.333 71.3926 30.3879Z" fill="white"/>
</svg>
