<svg width="132" height="88" viewBox="0 0 132 88" fill="none" xmlns="http://www.w3.org/2000/svg">
<path fill-rule="evenodd" clip-rule="evenodd" d="M49.8424 17.5022C49.8424 15.4116 51.5367 13.7169 53.6278 13.7169H78.3704C80.4609 13.7169 82.156 15.4116 82.156 17.5022V25.9499H49.8424V17.5022ZM47.9501 25.9499V17.5022C47.9501 14.3663 50.492 11.8242 53.6278 11.8242H78.3704C81.5065 11.8242 84.0483 14.3663 84.0483 17.5022V25.9499H92.4963C95.6313 25.9499 98.1742 28.492 98.1742 31.6275V56.3706C98.1742 59.5065 95.6313 62.0486 92.4963 62.0486H84.0483V70.4963C84.0483 73.6324 81.5065 76.1742 78.3704 76.1742H53.6278C50.492 76.1742 47.9501 73.6324 47.9501 70.4963V62.0486H39.5021C36.366 62.0486 33.8242 59.5065 33.8242 56.3706V31.6275C33.8242 28.492 36.366 25.9499 39.5021 25.9499H47.9501ZM47.9501 60.156H39.5021C37.4117 60.156 35.7165 58.4612 35.7165 56.3706V31.6275C35.7165 29.537 37.4117 27.8424 39.5021 27.8424H47.9501V60.156ZM49.8424 60.156V27.8424H82.156V60.156H49.8424ZM49.8424 62.0486V70.4963C49.8424 72.5866 51.5367 74.2819 53.6278 74.2819H78.3704C80.4609 74.2819 82.156 72.5866 82.156 70.4963V62.0486H49.8424ZM84.0483 60.156H92.4963C94.5866 60.156 96.2808 58.4612 96.2808 56.3706V31.6275C96.2808 29.537 94.5866 27.8424 92.4963 27.8424H84.0483V60.156Z" fill="#00E165"/>
</svg>
