<svg width="132" height="88" viewBox="0 0 132 88" fill="none" xmlns="http://www.w3.org/2000/svg">
<path d="M66 77C84.2254 77 99 62.2254 99 44C99 25.7746 84.2254 11 66 11C47.7746 11 33 25.7746 33 44C33 62.2254 47.7746 77 66 77Z" fill="black"/>
<path fill-rule="evenodd" clip-rule="evenodd" d="M60.7501 26C57.9887 26 55.7501 28.2386 55.7501 31V33.75H53.0001C50.2387 33.75 48.0001 35.9886 48.0001 38.75V49.25C48.0001 52.0114 50.2387 54.25 53.0001 54.25H55.7501V57C55.7501 59.7614 57.9887 62 60.7501 62H71.2501C74.0115 62 76.2501 59.7614 76.2501 57V54.25H79.0001C81.7616 54.25 84.0001 52.0114 84.0001 49.25V38.75C84.0001 35.9886 81.7616 33.75 79.0001 33.75H76.2501V31C76.2501 28.2386 74.0115 26 71.2501 26H60.7501ZM74.2501 33.75V31C74.2501 29.3431 72.907 28 71.2501 28H60.7501C59.0933 28 57.7501 29.3431 57.7501 31V33.75H74.2501ZM57.7501 35.75H74.2501V52.25H57.7501V35.75ZM55.7501 35.75H53.0001C51.3433 35.75 50.0001 37.0931 50.0001 38.75V49.25C50.0001 50.9068 51.3433 52.25 53.0001 52.25H55.7501V35.75ZM57.7501 54.25V57C57.7501 58.6568 59.0933 60 60.7501 60H71.2501C72.907 60 74.2501 58.6568 74.2501 57V54.25H57.7501ZM76.2501 52.25V35.75H79.0001C80.657 35.75 82.0001 37.0931 82.0001 38.75V49.25C82.0001 50.9068 80.657 52.25 79.0001 52.25H76.2501Z" fill="white"/>
</svg>
