<svg width="132" height="88" viewBox="0 0 132 88" fill="none" xmlns="http://www.w3.org/2000/svg">
<path d="M56.4221 20.4883C58.1183 32.7019 67.7197 42.3032 79.9338 43.9994C67.7197 45.6956 58.1183 55.297 56.4221 67.5111C54.7259 55.297 45.1235 45.6956 32.9102 43.9994C45.1235 42.3032 54.7259 32.7019 56.4221 20.4883Z" fill="url(#paint0_linear_2056_25827)" stroke="#1D1B1E" stroke-width="0.86625"/>
<path d="M85.1578 30.0664C86.1623 37.3041 91.8526 42.9939 99.0904 43.999C91.8526 45.0042 86.1623 50.6939 85.1578 57.9316C84.1524 50.6939 78.4621 45.0042 71.2246 43.999C78.4621 42.9939 84.1524 37.3041 85.1578 30.0664Z" fill="url(#paint1_linear_2056_25827)" stroke="#1D1B1E" stroke-width="0.804375"/>
<defs>
<linearGradient id="paint0_linear_2056_25827" x1="56.4221" y1="20.4883" x2="56.4221" y2="67.5111" gradientUnits="userSpaceOnUse">
<stop stop-color="#7CAEF9"/>
<stop offset="1" stop-color="#4561DF"/>
</linearGradient>
<linearGradient id="paint1_linear_2056_25827" x1="85.1578" y1="30.0664" x2="85.1578" y2="57.9316" gradientUnits="userSpaceOnUse">
<stop stop-color="#7CAEF9"/>
<stop offset="1" stop-color="#4561DF"/>
</linearGradient>
</defs>
</svg>
