<svg width="132" height="88" viewBox="0 0 132 88" fill="none" xmlns="http://www.w3.org/2000/svg">
<path fill-rule="evenodd" clip-rule="evenodd" d="M43.7158 11.5249C44.1901 11.2447 44.7799 11.2471 45.2519 11.5311L65.5829 23.7627L86.5367 11.5212C87.0023 11.2492 87.578 11.2481 88.0447 11.5181L99.3057 18.0346C99.7691 18.3028 100.054 18.7976 100.054 19.3329V68.4927C100.054 69.022 99.7754 69.5121 99.3203 69.7824L88.0593 76.4702C87.5776 76.7563 86.9765 76.75 86.5008 76.454L75.7543 69.7662C75.3164 69.4937 75.0493 69.0154 75.0469 68.4996L74.9444 46.3697L66.3129 51.2761C65.8352 51.5476 65.2473 51.5362 64.7805 51.2464L57.1825 46.5299V68.4927C57.1825 69.0208 56.9048 69.51 56.4513 69.7807L45.2475 76.4685C44.7707 76.753 44.1758 76.751 43.7011 76.4632L32.6687 69.7754C32.2202 69.5035 31.9463 69.0172 31.9463 68.4927V19.3329C31.9463 18.8023 32.2266 18.3112 32.6834 18.0414L43.7158 11.5249ZM54.1825 44.7013L45.9786 39.988V72.5382L54.1825 67.6412V44.7013ZM42.9786 72.5171V37.3963C42.9786 36.861 43.2639 36.3662 43.7273 36.0981C44.1906 35.8299 44.7617 35.829 45.2259 36.0957L56.4298 42.5326C56.4445 42.5411 56.4592 42.5498 56.4736 42.5588L65.6054 48.2275L75.7017 42.4885L86.5626 36.4293C87.0271 36.1701 87.5942 36.1764 88.0529 36.4458C88.5116 36.7151 88.7934 37.2073 88.7934 37.7393V72.545L97.0544 67.6389V21.8955L66.3061 39.1615C65.8447 39.4206 65.2809 39.4174 64.8225 39.1531L34.9463 21.9291V67.6479L42.9786 72.5171ZM36.4223 19.3172L65.5814 36.1278L95.5257 19.3133L87.297 14.5515L66.3283 26.8017C65.8549 27.0782 65.2682 27.0745 64.7984 26.7918L44.4716 14.5627L36.4223 19.3172ZM85.7934 72.4802V40.2937L77.9366 44.677L78.043 67.657L85.7934 72.4802Z" fill="black"/>
</svg>
