<svg width="132" height="88" viewBox="0 0 132 88" fill="none" xmlns="http://www.w3.org/2000/svg">
<path fill-rule="evenodd" clip-rule="evenodd" d="M30.25 44.0046C30.25 63.7357 46.2506 79.7418 65.9817 79.7316C85.7216 79.7215 101.722 63.7216 101.732 43.9816C101.742 24.2506 85.7311 8.25 66 8.25C46.2609 8.25 30.25 24.2655 30.25 44.0046ZM48.8323 36.1999C48.8121 36.2525 48.805 36.6884 48.8164 37.1685C48.8279 37.6546 49.2242 38.0431 49.7103 38.045L49.7682 38.0453C50.2819 38.0472 50.6994 37.6314 50.6994 37.1177V37.0766V37.0194C50.6994 36.514 50.2897 36.1042 49.7842 36.1042C49.0977 36.1042 48.8598 36.1281 48.8323 36.1999ZM56.469 37.075V37.119C56.469 37.6325 56.8868 38.0479 57.4002 38.045C57.9154 38.0421 58.3314 37.6236 58.3314 37.1085V37.0902V37.0722C58.3314 36.5545 57.9178 36.1317 57.4002 36.1203C56.8893 36.1091 56.469 36.5202 56.469 37.0313V37.075ZM67.132 37.0455V37.754C67.132 37.8894 67.2275 38.0059 67.3602 38.0325C67.4857 38.0576 67.913 38.0782 68.3096 38.0782C68.7079 38.0782 69.0308 37.7553 69.0308 37.357V37.0912V37.0537C69.0308 36.5293 68.6057 36.1042 68.0814 36.1042C67.5615 36.1042 67.132 36.5257 67.132 37.0455ZM70.7267 37.0725L70.7275 37.1098C70.7384 37.6274 71.1605 38.0417 71.6783 38.0428C72.1922 38.044 72.6095 37.6277 72.6095 37.1137V37.0746V37.0558C72.6095 36.5303 72.1834 36.1042 71.6579 36.1042C71.1357 36.1042 70.7154 36.5334 70.7264 37.0556L70.7267 37.0725ZM77.8679 37.0912V37.1287C77.8679 37.6531 78.293 38.0782 78.8173 38.0782C79.3417 38.0782 79.7668 37.6531 79.7668 37.1287V37.0912V37.0537C79.7668 36.5293 79.3417 36.1042 78.8173 36.1042C78.293 36.1042 77.8679 36.5293 77.8679 37.0537V37.0912ZM81.4465 37.0769V37.1001C81.4465 37.6263 81.8698 38.0545 82.396 38.0607C82.9185 38.0668 83.3454 37.6449 83.3454 37.1223V37.0881V37.0537C83.3454 36.5293 82.9203 36.1042 82.396 36.1042C81.8716 36.1042 81.4465 36.5293 81.4465 37.0537V37.0769ZM88.3443 36.1977C88.3237 36.2515 88.3161 36.6884 88.3275 37.1685C88.339 37.654 88.7359 38.0416 89.2215 38.0416H89.2976C89.822 38.0416 90.2471 37.6156 90.2471 37.0912V37.0737C90.2471 36.5552 89.8328 36.1317 89.3144 36.1203C88.5884 36.1044 88.3735 36.1215 88.3443 36.1977ZM91.939 36.153C91.9122 36.1798 91.8903 36.6033 91.8903 37.0943V37.754C91.8903 37.8894 91.9858 38.0059 92.1186 38.0325C92.2441 38.0576 92.6713 38.0782 93.068 38.0782C93.4663 38.0782 93.7892 37.7553 93.7892 37.357V37.0912V37.005C93.7892 36.5075 93.3859 36.1042 92.8885 36.1042C92.393 36.1042 91.9658 36.1262 91.939 36.153ZM40.2556 40.6369C40.2556 41.1613 40.6807 41.5874 41.205 41.5874C41.7294 41.5874 42.1545 41.1613 42.1545 40.6369C42.1545 40.1126 41.7294 39.6865 41.205 39.6865C40.6807 39.6865 40.2556 40.1126 40.2556 40.6369ZM56.469 40.6348C56.469 41.1603 56.8951 41.5874 57.4207 41.5874H57.44C57.9515 41.5874 58.3631 41.1667 58.3519 40.6552C58.3404 40.1345 57.921 39.7141 57.4002 39.7026C56.8893 39.6914 56.469 40.1025 56.469 40.6136V40.6348ZM60.0374 39.7026C60.0318 39.7139 60.0198 40.1426 60.0107 40.6552C60.0018 41.1674 60.4144 41.5874 60.9267 41.5874H60.9727H61.0186C61.5302 41.5874 61.9417 41.1667 61.9305 40.6552C61.9191 40.1345 61.4996 39.7141 60.9789 39.7026C60.4668 39.6914 60.0431 39.6914 60.0374 39.7026ZM63.6041 39.7332C63.5762 39.7612 63.5533 40.1897 63.5533 40.6857C63.5533 41.1837 63.957 41.5874 64.4549 41.5874H64.5321H64.5787C65.0917 41.5874 65.5059 41.1682 65.4998 40.6552L65.4996 40.6402C65.4935 40.1287 65.0831 39.7141 64.5718 39.7028C64.0675 39.6915 63.632 39.7053 63.6041 39.7332ZM67.1807 39.7353C67.1539 39.7621 67.132 40.1897 67.132 40.6857C67.132 41.1837 67.5356 41.5874 68.0336 41.5874H68.0814C68.6057 41.5874 69.0308 41.1613 69.0308 40.6369V40.5873C69.0308 40.0898 68.6276 39.6865 68.1301 39.6865C67.6346 39.6865 67.2074 39.7085 67.1807 39.7353ZM70.7106 40.6369C70.7106 41.1613 71.1357 41.5874 71.66 41.5874C72.1844 41.5874 72.6095 41.1613 72.6095 40.6369C72.6095 40.1126 72.1844 39.6865 71.66 39.6865C71.1357 39.6865 70.7106 40.1126 70.7106 40.6369ZM88.3639 39.7393C88.3463 39.7705 88.3308 40.1992 88.3296 40.6918C88.3284 41.186 88.7288 41.5874 89.223 41.5874H89.2984H89.3371C89.8501 41.5874 90.2643 41.1682 90.2582 40.6552C90.252 40.139 89.8377 39.7141 89.3215 39.7027C88.8125 39.6914 88.3816 39.7079 88.3639 39.7393ZM91.939 39.7353C91.9122 39.7621 91.8903 40.1897 91.8903 40.6857C91.8903 41.1837 92.294 41.5874 92.792 41.5874H92.8398C93.3641 41.5874 93.7892 41.1613 93.7892 40.6369V40.5873C93.7892 40.0898 93.3859 39.6865 92.8885 39.6865C92.393 39.6865 91.9658 39.7085 91.939 39.7353ZM48.1244 43.3216C48.1078 43.3528 48.0877 43.7815 48.0798 44.2741C48.0718 44.7663 48.4687 45.1697 48.961 45.1697H49.0558H49.1141C49.6257 45.1697 50.0373 44.749 50.026 44.2375C50.0147 43.7199 49.5976 43.2964 49.08 43.285C48.571 43.2737 48.141 43.2902 48.1244 43.3216ZM53.1095 44.2192C53.1095 44.7436 53.5346 45.1697 54.0589 45.1697C54.5833 45.1697 55.0084 44.7436 55.0084 44.2192C55.0084 43.6949 54.5833 43.2688 54.0589 43.2688C53.5346 43.2688 53.1095 43.6949 53.1095 44.2192ZM56.469 44.2192C56.469 44.7436 56.8941 45.1697 57.4185 45.1697C57.9428 45.1697 58.3679 44.7436 58.3679 44.2192C58.3679 43.6949 57.9428 43.2688 57.4185 43.2688C56.8941 43.2688 56.469 43.6949 56.469 44.2192ZM61.4353 44.2192C61.4353 44.7436 61.8604 45.1697 62.3848 45.1697C62.9091 45.1697 63.3342 44.7436 63.3342 44.2192C63.3342 43.6949 62.9091 43.2688 62.3848 43.2688C61.8604 43.2688 61.4353 43.6949 61.4353 44.2192ZM70.7106 44.2192C70.7106 44.7436 71.1357 45.1697 71.66 45.1697C72.1844 45.1697 72.6095 44.7436 72.6095 44.2192C72.6095 43.6949 72.1844 43.2688 71.66 43.2688C71.1357 43.2688 70.7106 43.6949 70.7106 44.2192ZM77.8679 44.2192C77.8679 44.7436 78.293 45.1697 78.8173 45.1697C79.3417 45.1697 79.7668 44.7436 79.7668 44.2192C79.7668 43.6949 79.3417 43.2688 78.8173 43.2688C78.293 43.2688 77.8679 43.6949 77.8679 44.2192ZM81.4465 44.2192C81.4465 44.7436 81.8716 45.1697 82.396 45.1697C82.9203 45.1697 83.3454 44.7436 83.3454 44.2192C83.3454 43.6949 82.9203 43.2688 82.396 43.2688C81.8716 43.2688 81.4465 43.6949 81.4465 44.2192ZM84.7858 43.5064C84.756 43.6993 84.7638 44.6853 84.7981 45.0783C84.804 45.1463 85.0489 45.1697 85.7555 45.1697C86.2799 45.1697 86.7049 44.7436 86.7049 44.2192C86.7049 43.6994 86.2835 43.2688 85.7636 43.2688H85.0628C84.9244 43.2688 84.8068 43.3697 84.7858 43.5064ZM88.3624 43.3155C88.3345 43.3435 88.3117 43.772 88.3117 44.268C88.3117 44.766 88.7154 45.1697 89.2133 45.1697H89.2998H89.3556C89.8672 45.1697 90.2787 44.749 90.2675 44.2375L90.2672 44.2223C90.2559 43.7095 89.843 43.2964 89.3301 43.2851C88.8258 43.2738 88.3903 43.2876 88.3624 43.3155ZM91.939 43.3176C91.9122 43.3444 91.8903 43.772 91.8903 44.268C91.8903 44.766 92.294 45.1697 92.792 45.1697H92.8398C93.3641 45.1697 93.7892 44.7436 93.7892 44.2192V44.1696C93.7892 43.6721 93.3859 43.2688 92.8885 43.2688C92.393 43.2688 91.9658 43.2908 91.939 43.3176ZM38.1376 47.5822C38.1376 48.1066 38.5627 48.5326 39.0871 48.5326C39.6114 48.5326 40.0365 48.1066 40.0365 47.5822C40.0365 47.0579 39.6114 46.6318 39.0871 46.6318C38.5627 46.6318 38.1376 47.0579 38.1376 47.5822ZM53.1095 47.5822C53.1095 48.1066 53.5346 48.5326 54.0589 48.5326C54.5833 48.5326 55.0084 48.1066 55.0084 47.5822C55.0084 47.0579 54.5833 46.6318 54.0589 46.6318C53.5346 46.6318 53.1095 47.0579 53.1095 47.5822ZM67.132 47.5822C67.132 48.1066 67.557 48.5326 68.0814 48.5326C68.6057 48.5326 69.0308 48.1066 69.0308 47.5822C69.0308 47.0579 68.6057 46.6318 68.0814 46.6318C67.557 46.6318 67.132 47.0579 67.132 47.5822ZM70.7106 47.5822C70.7106 48.1066 71.1357 48.5326 71.66 48.5326C72.1844 48.5326 72.6095 48.1066 72.6095 47.5822C72.6095 47.0579 72.1844 46.6318 71.66 46.6318C71.1357 46.6318 70.7106 47.0579 70.7106 47.5822ZM77.8679 47.5822C77.8679 48.1066 78.293 48.5326 78.8173 48.5326C79.3417 48.5326 79.7668 48.1066 79.7668 47.5822C79.7668 47.0579 79.3417 46.6318 78.8173 46.6318C78.293 46.6318 77.8679 47.0579 77.8679 47.5822ZM81.4465 47.5822C81.4465 48.1066 81.8716 48.5326 82.396 48.5326C82.9203 48.5326 83.3454 48.1066 83.3454 47.5822C83.3454 47.0579 82.9203 46.6318 82.396 46.6318C81.8716 46.6318 81.4465 47.0579 81.4465 47.5822ZM45.2219 51.1667C45.2219 51.6894 45.6515 52.1101 46.1742 52.0991L46.1896 52.0988L46.2251 52.098C46.7463 52.087 47.1663 51.6674 47.1777 51.1463C47.1889 50.6348 46.7774 50.2141 46.2658 50.2141H46.21H46.1744C45.6483 50.2141 45.2219 50.6406 45.2219 51.1667ZM53.1095 51.1645C53.1095 51.6889 53.5346 52.1149 54.0589 52.1149C54.5833 52.1149 55.0084 51.6889 55.0084 51.1645C55.0084 50.6402 54.5833 50.2141 54.0589 50.2141C53.5346 50.2141 53.1095 50.6402 53.1095 51.1645ZM56.469 51.1645C56.469 51.6889 56.8941 52.1149 57.4185 52.1149C57.9428 52.1149 58.3679 51.6889 58.3679 51.1645C58.3679 50.6402 57.9428 50.2141 57.4185 50.2141C56.8941 50.2141 56.469 50.6402 56.469 51.1645ZM67.132 51.1645C67.132 51.6889 67.557 52.1149 68.0814 52.1149C68.6057 52.1149 69.0308 51.6889 69.0308 51.1645C69.0308 50.6402 68.6057 50.2141 68.0814 50.2141C67.557 50.2141 67.132 50.6402 67.132 51.1645ZM70.7106 51.1645C70.7106 51.6889 71.1357 52.1149 71.66 52.1149C72.1844 52.1149 72.6095 51.6889 72.6095 51.1645C72.6095 50.6402 72.1844 50.2141 71.66 50.2141C71.1357 50.2141 70.7106 50.6402 70.7106 51.1645ZM77.8679 51.1645C77.8679 51.6889 78.293 52.1149 78.8173 52.1149C79.3417 52.1149 79.7668 51.6889 79.7668 51.1645C79.7668 50.6402 79.3417 50.2141 78.8173 50.2141C78.293 50.2141 77.8679 50.6402 77.8679 51.1645ZM81.4465 51.1645C81.4465 51.6889 81.8716 52.1149 82.396 52.1149C82.9203 52.1149 83.3454 51.6889 83.3454 51.1645C83.3454 50.6402 82.9203 50.2141 82.396 50.2141C81.8716 50.2141 81.4465 50.6402 81.4465 51.1645Z" fill="black"/>
</svg>
