<svg width="361" height="360" viewBox="0 0 361 360" fill="none" xmlns="http://www.w3.org/2000/svg">
<path d="M180.579 300C246.853 300 300.579 246.274 300.579 180C300.579 113.726 246.853 60 180.579 60C114.305 60 60.5791 113.726 60.5791 180C60.5791 246.274 114.305 300 180.579 300Z" fill="black"/>
<path fill-rule="evenodd" clip-rule="evenodd" d="M207.245 131.111H218.868V142.733H207.245V131.111ZM229.468 131.111H241.091V142.733H229.468V131.111ZM241.091 197.778H229.468V209.4H241.091V197.778ZM207.245 197.778H218.868V209.4H207.245V197.778ZM241.091 220H229.468V231.622H241.091V220ZM207.245 220H218.868V231.622H207.245V220ZM241.091 153.333H229.468V164.956H241.091V153.333ZM207.245 153.333H218.868V164.956H207.245V153.333ZM196.646 153.333H185.023V164.956H196.646V153.333ZM162.801 153.333H174.424V164.956H162.801V153.333ZM152.202 153.333H140.579V164.956H152.202V153.333ZM140.579 131.111H152.202V142.733H140.579V131.111ZM152.202 220H140.579V231.622H152.202V220ZM171.69 175.556H183.313V187.178H171.69V175.556ZM152.202 175.556H140.579V187.178H152.202V175.556ZM229.468 175.556H241.091V187.178H229.468V175.556ZM129.98 220H118.356V231.622H129.98V220ZM118.356 175.556H129.98V187.178H118.356V175.556ZM129.98 197.778H118.356V209.4H129.98V197.778Z" fill="white"/>
</svg>
