<svg width="132" height="88" viewBox="0 0 132 88" fill="none" xmlns="http://www.w3.org/2000/svg">
<path d="M66 79.1172C85.3947 79.1172 101.117 63.3947 101.117 44C101.117 24.6053 85.3947 8.88281 66 8.88281C46.6053 8.88281 30.8828 24.6053 30.8828 44C30.8828 63.3947 46.6053 79.1172 66 79.1172Z" fill="black"/>
<path fill-rule="evenodd" clip-rule="evenodd" d="M73.8037 29.693H77.2051V33.0942H73.8037V29.693ZM80.3069 29.693H83.7083V33.0942H80.3069V29.693ZM83.7083 49.2025H80.3069V52.6037H83.7083V49.2025ZM73.8037 49.2025H77.2051V52.6037H73.8037V49.2025ZM83.7083 55.7057H80.3069V59.1069H83.7083V55.7057ZM73.8037 55.7057H77.2051V59.1069H73.8037V55.7057ZM83.7083 36.1962H80.3069V39.5973H83.7083V36.1962ZM73.8037 36.1962H77.2051V39.5973H73.8037V36.1962ZM70.7019 36.1962H67.3005V39.5973H70.7019V36.1962ZM60.7973 36.1962H64.1988V39.5973H60.7973V36.1962ZM57.6956 36.1962H54.2941V39.5973H57.6956V36.1962ZM54.2941 29.693H57.6956V33.0942H54.2941V29.693ZM57.6956 55.7057H54.2941V59.1069H57.6956V55.7057ZM63.3986 42.6994H66.8V46.1005H63.3986V42.6994ZM57.6956 42.6994H54.2941V46.1005H57.6956V42.6994ZM80.3069 42.6994H83.7083V46.1005H80.3069V42.6994ZM51.1924 55.7057H47.791V59.1069H51.1924V55.7057ZM47.791 42.6994H51.1924V46.1005H47.791V42.6994ZM51.1924 49.2025H47.791V52.6037H51.1924V49.2025Z" fill="white"/>
</svg>
