<svg width="132" height="88" viewBox="0 0 132 88" fill="none" xmlns="http://www.w3.org/2000/svg">
<path d="M66.0004 78.0984C84.8333 78.0984 100.1 62.8313 100.1 43.9984C100.1 25.1655 84.8333 9.89844 66.0004 9.89844C47.1675 9.89844 31.9004 25.1655 31.9004 43.9984C31.9004 62.8313 47.1675 78.0984 66.0004 78.0984Z" fill="#66A25B"/>
<path fill-rule="evenodd" clip-rule="evenodd" d="M35.0101 40.6436C35.0101 40.6436 36.3455 45.4143 41.0193 45.4143C45.6931 45.4143 51.0953 39.5904 53.0984 37.3599C55.1014 35.1295 59.9574 28.5 65.3595 28.5C70.7618 28.5 74.516 34.5852 76.5889 37.0501C76.8274 37.3338 76.9991 37.65 77.2565 37.7162C78.3639 38.0014 79.4538 38.4363 80.1701 38.4751C81.0229 38.5213 81.111 37.933 81.7483 37.5457C82.3588 37.1748 83.2051 36.7403 83.2051 36.7403C83.2051 36.7403 82.9623 35.9348 81.7483 35.8109C80.5342 35.687 79.806 34.324 79.5025 33.8903C79.1989 33.4566 79.2596 32.837 79.8666 33.3327C80.4736 33.8283 81.3234 33.5185 81.8696 33.8903C82.416 34.262 83.2658 35.0675 83.9942 36.0587C84.7226 37.0501 84.3583 35.8729 84.9046 35.9968C85.451 36.1207 85.5723 36.2446 86.6042 37.0501C87.636 37.8555 89.4571 38.723 90.1854 39.4045C90.9138 40.0859 90.7925 40.2099 90.7925 40.5816C90.7925 40.9534 90.2461 41.1392 89.6998 41.1392C89.1536 41.1392 89.4571 40.7055 89.0322 40.8294C88.6073 40.9534 87.8182 41.0773 87.3933 41.0153C86.9684 40.9534 86.5435 41.7588 85.7544 41.5729C84.9653 41.3871 84.844 40.7675 84.4191 41.511C83.9942 42.2545 82.2339 44.0513 81.5055 44.361C80.7771 44.6708 80.4129 46.5295 79.988 46.7154C79.5631 46.9013 77.7422 47.3969 77.1959 47.8307C76.6495 48.2644 75.1017 50.6652 74.6769 51.3467C74.252 52.0282 73.4548 53.2329 73.1593 53.3757C72.5827 53.6546 72.0285 53.4734 71.8088 53.3293C71.3302 53.0152 70.9164 51.7411 71.4586 51.3309C71.5319 51.2663 71.664 51.2925 71.6657 51.4125C71.6553 51.8071 71.6328 52.8165 72.4007 52.8492C73.1283 52.8801 73.0077 50.3709 73.1897 49.5034C73.3718 48.6361 74.0395 47.5828 73.9788 47.0872C73.9181 46.5915 72.2185 46.0958 71.915 46.0958C71.6115 46.0958 70.8225 46.4676 70.519 47.273C70.2155 48.0785 69.4871 48.6361 69.4871 49.5654C69.4871 50.4948 69.7299 56.9384 70.2155 57.8057C70.701 58.6731 71.9758 58.7351 72.5221 58.9209C73.0683 59.1068 81.202 61.771 81.6876 61.833C82.1732 61.8949 82.3525 61.7547 82.6588 61.7091C82.963 61.6636 84.4322 62.4398 84.9917 62.7872C85.129 62.8379 85.0714 63.0484 84.6772 62.9117C84.3135 62.8281 84.0408 62.9317 83.8727 62.9481C83.4062 62.9938 83.7817 63.6894 83.2658 63.6297C82.7197 63.5665 80.6557 62.6383 80.0487 62.5764C79.4417 62.5144 73.4932 61.5232 72.6434 61.2754C71.7937 61.0275 69.305 60.8416 68.9408 60.6558C68.5766 60.4699 68.2124 59.9742 67.7268 58.1774C67.2412 56.3807 65.9059 51.9818 65.5416 51.5481C65.1775 51.1144 64.0242 48.5742 64.0242 48.1404C64.0242 47.7067 63.4779 47.8926 62.9923 47.6448C62.5067 47.3969 59.5325 45.6002 58.8647 44.8566C58.1971 44.1131 55.9512 41.6969 55.9512 41.6969C55.9512 41.6969 48.7888 45.9719 46.9071 46.6534C45.0254 47.335 42.294 48.1404 39.866 47.2111C37.8238 46.3284 34.8031 43.4902 35.0101 40.6436Z" fill="white"/>
</svg>
