<svg width="132" height="88" viewBox="0 0 132 88" fill="none" xmlns="http://www.w3.org/2000/svg">
<path d="M30 19.8681C30 13.3135 35.3135 8 41.8681 8H90.1319C96.6865 8 102 13.3135 102 19.8681V68.1319C102 74.6865 96.6865 80 90.1319 80H41.8681C35.3135 80 30 74.6865 30 68.1319V19.8681Z" fill="#AAFF01"/>
<path d="M59.2835 65.754V33.7483L75.5038 65.754H91.7143L69.2611 21.4505H53.0507L59.2835 33.7483H55.4486C51.1938 33.8186 47.1362 35.5363 44.1508 38.5292C41.1668 41.5236 39.4945 45.5545 39.4945 49.754C39.4945 53.9534 41.1668 57.9843 44.1508 60.9773C47.1362 63.9717 51.1938 65.688 55.4486 65.7582L59.2835 65.754Z" fill="black"/>
</svg>
