<svg width="132" height="88" viewBox="0 0 132 88" fill="none" xmlns="http://www.w3.org/2000/svg">
<path d="M65.9882 65.913C80.8712 65.913 92.9366 53.8477 92.9366 38.9644C92.9366 24.0811 80.8712 12.0156 65.9882 12.0156C51.1044 12.0156 39.0391 24.0811 39.0391 38.9644C39.0391 53.8477 51.1044 65.913 65.9882 65.913Z" fill="#61D3DE"/>
<path fill-rule="evenodd" clip-rule="evenodd" d="M39.2958 62.0677V56.062C39.2958 53.9054 40.1534 51.8347 41.6777 50.3098L59.982 32.0061C61.5074 30.4804 63.5762 29.6232 65.7341 29.6232C67.8923 29.6232 69.9623 30.4804 71.4874 32.0061L90.5554 51.074C92.0808 52.5995 92.9374 54.6677 92.9374 56.8243V57.0369H92.9624V63.4452C92.9624 65.0916 92.6374 66.7229 92.0079 68.2442C91.3782 69.7663 90.4536 71.1488 89.289 72.3131C88.1246 73.4777 86.7422 74.4012 85.2209 75.032C83.6988 75.6615 82.0686 75.9855 80.4213 75.9855H51.8609C50.2137 75.9855 48.5835 75.6607 47.0622 75.0298C45.5409 74.4001 44.1585 73.4755 42.9941 72.3112C41.8296 71.1468 40.9071 69.7633 40.2763 68.242C39.6466 66.721 39.3228 65.0897 39.3238 63.4433V62.7387C39.3048 62.5149 39.2978 62.2913 39.2978 62.0658L39.2958 62.0677Z" fill="#EA4256"/>
<path fill-rule="evenodd" clip-rule="evenodd" d="M41.5817 50.405L41.6747 50.3098L59.9811 32.0061C61.5063 30.4804 63.5754 29.6232 65.7333 29.6232C67.8912 29.6232 69.9612 30.4804 71.4866 32.0061L90.2306 50.7479C85.8578 59.7266 76.6461 65.9133 65.9882 65.9133C55.1964 65.9133 45.8857 59.568 41.5817 50.405Z" fill="#0A2143"/>
</svg>
