<svg width="132" height="88" viewBox="0 0 132 88" fill="none" xmlns="http://www.w3.org/2000/svg">
<path d="M37.4426 23.2215C39.2095 19.9159 41.9169 17.2085 45.2225 15.4416C54.363 10.5559 77.6379 10.5559 86.7784 15.4416C90.084 17.2085 92.7914 19.9159 94.5583 23.2215C99.444 32.362 99.444 55.6369 94.5583 64.7774C92.7914 68.083 90.084 70.7905 86.7784 72.5573C77.6379 77.443 54.363 77.443 45.2225 72.5573C41.9169 70.7905 39.2095 68.083 37.4426 64.7774C32.5569 55.6369 32.5569 32.362 37.4426 23.2215Z" fill="#7DDAE1"/>
<path fill-rule="evenodd" clip-rule="evenodd" d="M50.5117 44.0912V57.6668H53.5434H56.5751L56.5909 47.3065L56.6067 36.9462L60.0544 47.3065L63.5019 57.6668L65.8227 57.6655L68.1434 57.6642L69.7617 52.9418C70.6519 50.3445 72.004 46.3975 72.7664 44.1706C73.5289 41.9437 74.3941 39.4429 74.689 38.6133L75.2249 37.1049L75.2345 47.3858L75.2439 57.6668H78.2756H81.3073V44.0912V30.5156H76.7598C74.2586 30.5156 72.2122 30.5429 72.2122 30.5763C72.2122 30.6919 66.1251 47.7342 66.0119 47.9352C65.9475 48.0499 65.3011 46.4403 64.5156 44.2088C63.7549 42.0482 62.5498 38.6371 61.8373 36.6286C61.1249 34.6201 60.3518 32.4229 60.1193 31.7462L59.6968 30.5156H55.1042H50.5117V44.0912Z" fill="#1A777E"/>
</svg>
