<svg width="132" height="88" viewBox="0 0 132 88" fill="none" xmlns="http://www.w3.org/2000/svg">
<path d="M34.1035 18.7269C34.1035 12.8744 41.1796 9.94337 45.318 14.0818L95.881 64.6449C100.019 68.7832 97.0886 75.8593 91.2358 75.8593H40.6729C37.0447 75.8593 34.1036 72.9181 34.1036 69.29L34.1035 18.7269Z" fill="#4F46E5"/>
<path d="M40.764 75.8593C34.9115 75.8593 31.9805 68.7832 36.1189 64.6448L86.682 14.0818C90.8203 9.94339 97.8964 12.8744 97.8964 18.727V69.29C97.8964 72.9182 94.9552 75.8593 91.3271 75.8593H40.764Z" fill="#4338CA"/>
<path d="M44.1016 28.8516V65.3475H66.1868H87.8967V28.8516" stroke="white" stroke-width="2.91968" stroke-linecap="square"/>
<path d="M44.1016 28.4141L65.9991 48.4868L87.8967 28.4141" stroke="white" stroke-width="2.91968" stroke-linecap="round" stroke-linejoin="round" stroke-dasharray="1.46 6.57"/>
<path d="M91.5453 28.4152C91.5453 30.4308 89.9113 32.0648 87.8957 32.0648C85.8801 32.0648 84.2461 30.4308 84.2461 28.4152C84.2461 26.3996 85.8801 24.7656 87.8957 24.7656C89.9113 24.7656 91.5453 26.3996 91.5453 28.4152Z" fill="white"/>
<path d="M91.5453 28.4152C91.5453 30.4308 89.9113 32.0648 87.8957 32.0648C85.8801 32.0648 84.2461 30.4308 84.2461 28.4152C84.2461 26.3996 85.8801 24.7656 87.8957 24.7656C89.9113 24.7656 91.5453 26.3996 91.5453 28.4152Z" fill="white"/>
<path d="M91.5453 28.4152C91.5453 30.4308 89.9113 32.0648 87.8957 32.0648C85.8801 32.0648 84.2461 30.4308 84.2461 28.4152C84.2461 26.3996 85.8801 24.7656 87.8957 24.7656C89.9113 24.7656 91.5453 26.3996 91.5453 28.4152Z" fill="white"/>
<path d="M47.7523 28.4152C47.7523 30.4308 46.1183 32.0648 44.1027 32.0648C42.0871 32.0648 40.4531 30.4308 40.4531 28.4152C40.4531 26.3996 42.0871 24.7656 44.1027 24.7656C46.1183 24.7656 47.7523 26.3996 47.7523 28.4152Z" fill="white"/>
<path d="M47.7523 28.4152C47.7523 30.4308 46.1183 32.0648 44.1027 32.0648C42.0871 32.0648 40.4531 30.4308 40.4531 28.4152C40.4531 26.3996 42.0871 24.7656 44.1027 24.7656C46.1183 24.7656 47.7523 26.3996 47.7523 28.4152Z" fill="white"/>
<path d="M47.7523 28.4152C47.7523 30.4308 46.1183 32.0648 44.1027 32.0648C42.0871 32.0648 40.4531 30.4308 40.4531 28.4152C40.4531 26.3996 42.0871 24.7656 44.1027 24.7656C46.1183 24.7656 47.7523 26.3996 47.7523 28.4152Z" fill="white"/>
</svg>
