<svg width="132" height="88" viewBox="0 0 132 88" fill="none" xmlns="http://www.w3.org/2000/svg">
<path fill-rule="evenodd" clip-rule="evenodd" d="M103.153 35.4261C106.192 35.4261 108.657 32.9619 108.657 29.9221C108.657 26.8822 106.192 24.418 103.153 24.418C100.113 24.418 97.6486 26.8822 97.6486 29.9221C97.6486 32.9619 100.113 35.4261 103.153 35.4261ZM63.5626 32.1642C62.762 30.3782 60.9696 29.2452 59.0128 29.2882C57.0559 29.3311 55.315 30.5416 54.5935 32.3611L49.1941 45.977L43.2681 32.2287C42.4986 30.4434 40.7409 29.287 38.7968 29.287C36.8527 29.287 35.095 30.4434 34.3255 32.2287L23.7407 56.7854C22.6763 59.2548 23.8153 62.1196 26.2847 63.184C28.7542 64.2484 31.6189 63.1094 32.6833 60.6399L38.7968 46.4567L44.9103 60.6399C45.6901 62.4492 47.4834 63.6101 49.4533 63.5811C51.4232 63.5521 53.1815 62.3389 53.9077 60.5075L59.3943 46.6717L65.6847 60.7044C66.48 62.4785 68.2545 63.6094 70.1986 63.5811C72.1425 63.5529 73.8834 62.3708 74.6268 60.5743L80.2892 46.8903L85.9515 60.5743C86.7015 62.3868 88.4659 63.5722 90.4274 63.5816C92.3888 63.591 94.1644 62.4224 94.9316 60.6171L102.129 43.6815C103.181 41.2066 102.028 38.3477 99.5526 37.2959C97.0778 36.2441 94.2189 37.3977 93.1671 39.8725L90.5105 46.1233L84.7882 32.2943C84.035 30.474 82.2591 29.287 80.2892 29.287C78.3192 29.287 76.5433 30.474 75.7901 32.2943L69.9489 46.4106L63.5626 32.1642Z" fill="url(#paint0_linear_2056_23383)"/>
<defs>
<linearGradient id="paint0_linear_2056_23383" x1="28.674" y1="43.6823" x2="108.657" y2="43.6823" gradientUnits="userSpaceOnUse">
<stop stop-color="#5C8BE1"/>
<stop offset="1" stop-color="#66C5BB"/>
</linearGradient>
</defs>
</svg>
