<svg width="132" height="88" viewBox="0 0 132 88" fill="none" xmlns="http://www.w3.org/2000/svg">
<path d="M93.4877 10.7266H38.5116C35.3155 10.7266 32.7246 13.3175 32.7246 16.5135V71.4896C32.7246 74.6857 35.3155 77.2766 38.5116 77.2766H93.4877C96.6837 77.2766 99.2746 74.6857 99.2746 71.4896V16.5135C99.2746 13.3175 96.6837 10.7266 93.4877 10.7266Z" fill="#5FBC93"/>
<path fill-rule="evenodd" clip-rule="evenodd" d="M83.4724 31.7826C82.235 31.7826 81.2326 30.7926 81.2326 29.574C81.2326 28.3531 82.235 27.3633 83.4724 27.3633C84.7118 27.3633 85.7185 28.3531 85.7185 29.574C85.7185 30.7926 84.7118 31.7826 83.4724 31.7826ZM83.5971 41.3825V55.8653H77.1355V41.3284C77.1355 39.5129 76.8445 38.2504 76.2517 37.5392C75.661 36.832 74.7855 36.4786 73.6208 36.4786C72.7058 36.4786 71.9156 36.6803 71.2417 37.0858C70.5699 37.4913 70.0355 38.057 69.6362 38.7808C69.6362 39.0594 69.6445 39.3008 69.6571 39.4982C69.6737 39.6979 69.6819 39.9017 69.6819 40.1076V55.8633H63.2474V41.3263C63.2474 39.5544 62.9521 38.3024 62.3635 37.5703C61.7729 36.8425 60.8869 36.4744 59.7099 36.4744C58.8365 36.4744 58.0752 36.6408 57.4223 36.9735C56.763 37.3063 56.2222 37.7763 55.7938 38.3815V55.8653H49.3613V31.9428H55.355L55.617 35.1039C56.3865 33.9538 57.3431 33.0657 58.5036 32.4419C59.6599 31.8137 60.9993 31.4998 62.5174 31.4998C64.0502 31.4998 65.3624 31.8367 66.4543 32.5147C67.5461 33.1926 68.3718 34.22 68.9291 35.5884C69.6675 34.3053 70.6261 33.3008 71.8073 32.5812C72.9886 31.8596 74.3737 31.4998 75.9667 31.4998C78.3252 31.4998 80.1886 32.3108 81.5507 33.9413C82.915 35.5698 83.5971 38.0488 83.5971 41.3803V41.3825Z" fill="white"/>
</svg>
