<svg width="132" height="88" viewBox="0 0 132 88" fill="none" xmlns="http://www.w3.org/2000/svg">
<path fill-rule="evenodd" clip-rule="evenodd" d="M30.5254 12.4202C30.5254 12.5452 31.1823 20.7044 31.9853 30.5517C32.7882 40.3991 33.4451 48.5487 33.4451 48.6623C33.4451 48.8275 33.6203 48.8505 34.3211 48.7772C35.1475 48.6908 35.197 48.7033 35.197 48.9985C35.197 49.1705 35.136 49.3112 35.0614 49.3112C34.7609 49.3112 34.4901 49.7803 34.3963 50.4633C34.3186 51.0279 34.3847 51.4945 34.6996 52.6041L35.1022 54.0231L42.3832 64.9156C47.797 73.0148 49.7279 75.7966 49.9124 75.763C50.1882 75.7131 97.794 63.5302 100.052 62.9318L101.475 62.5545V61.936V61.3174L92.7209 53.5345C84.2475 46.0017 83.9634 45.7322 83.8757 45.1467C83.7627 44.3934 83.7531 44.3803 82.8469 43.7385L82.1018 43.2109L60.2188 46.0351C48.183 47.5884 38.0894 48.896 37.7883 48.941C37.244 49.0221 37.2408 49.0197 37.2408 48.51C37.2408 48.197 37.3119 47.9973 37.4233 47.9975C37.6778 47.9977 80.7505 42.4597 81.1116 42.3803C81.3768 42.322 82.0151 41.4813 81.8895 41.3556C81.8609 41.327 71.2284 42.639 58.2617 44.271C45.2951 45.9031 34.6668 47.2201 34.6431 47.1977C34.6008 47.1577 32.0057 13.7865 32.0412 13.7381C32.0805 13.6844 79.4488 14.3889 79.5038 14.4439C79.5361 14.4762 80.0421 19.7519 80.6281 26.1677C81.2141 32.5834 81.7119 37.7381 81.7341 37.6226C81.8154 37.2007 80.5978 13.0468 80.4907 12.9546C80.43 12.9022 70.4603 12.75 58.336 12.6163C46.2118 12.4827 34.9944 12.3328 33.4086 12.2832C30.8575 12.2033 30.5254 12.2191 30.5254 12.4202ZM71.9494 23.1354C71.5345 23.2008 71.4704 23.3862 71.6419 24.0262C71.72 24.318 71.8108 24.3564 72.3333 24.3181C72.9304 24.2745 72.9348 24.27 72.9348 23.6903C72.9348 23.0622 72.8208 22.998 71.9494 23.1354ZM56.5391 24.0171C55.7667 24.0708 55.764 24.0727 55.8091 24.5319C55.8437 24.8855 55.9392 25.0125 56.2192 25.0774C56.5773 25.1606 56.5902 25.2128 56.9004 27.8571C57.3041 31.2984 57.303 31.2197 56.9492 31.3123C56.7297 31.3697 56.6572 31.5114 56.6572 31.8827C56.6572 32.4433 56.6792 32.4482 58.4175 32.284L59.3749 32.1936L59.3106 31.7554C59.2724 31.4951 59.1412 31.2897 58.9871 31.2494C58.8447 31.2122 58.6899 31.0399 58.6435 30.8667C58.3384 29.7292 58.8795 29.5381 59.5688 30.5399C59.8334 30.9244 59.9467 31.207 59.8495 31.2395C59.7434 31.2748 59.7236 31.4634 59.7928 31.7789C59.8947 32.2427 59.9226 32.2601 60.4315 32.1758C60.7244 32.1274 61.2429 32.0871 61.5843 32.0862C62.1771 32.0846 62.2047 32.0649 62.2047 31.643C62.2047 31.313 62.1174 31.1682 61.8596 31.0703C61.6697 30.998 61.1869 30.4886 60.7866 29.9383L60.0587 28.9375L60.4273 28.1846C60.6613 27.707 60.9134 27.4023 61.1172 27.3511C61.3889 27.283 61.4244 27.2013 61.3472 26.8233C61.2968 26.5773 61.2064 26.3795 61.1463 26.3836C61.086 26.3877 60.5441 26.391 59.9419 26.391H58.847V26.902C58.847 27.2588 58.913 27.413 59.066 27.413C59.3476 27.413 59.3431 27.4568 58.9901 28.1487C58.4721 29.1639 58.4101 29.0188 58.1133 26.0991C57.9052 24.0527 57.8677 23.9041 57.5668 23.9362C57.4278 23.9511 56.9654 23.9875 56.5391 24.0171ZM43.6643 25.3691L42.4234 25.4421L41.8847 28.1429C41.5883 29.6283 41.3256 30.9345 41.3007 31.0454C41.2758 31.1565 40.7299 29.991 40.0876 28.4555L38.9197 25.6636L38.1897 25.664C36.9705 25.6646 36.3649 25.8113 36.3649 26.1062C36.3649 26.5889 36.5399 26.829 36.8915 26.829C37.0941 26.829 37.2408 26.9151 37.2408 27.0341C37.2408 27.2913 37.644 31.0926 37.7492 31.826C37.8192 32.3147 37.7897 32.3798 37.461 32.4623C37.2116 32.5249 37.0956 32.6539 37.097 32.8668C37.1017 33.5194 37.2545 33.5767 38.6884 33.4646L40.0302 33.3596L39.9858 32.9103C39.9525 32.5713 39.8536 32.4405 39.5832 32.3773C39.2435 32.2979 39.2112 32.1952 38.9617 30.4008C38.8171 29.3597 38.7154 28.4245 38.7362 28.3225C38.7568 28.2206 39.2668 29.2717 39.8696 30.6583L40.9654 33.1795L41.4759 33.2227L41.9864 33.2658L42.5698 30.3853L43.1533 27.5048L43.2422 28.5172C43.5545 32.0728 43.5545 32.0533 43.233 32.1555C43.01 32.2262 42.9343 32.3748 42.9343 32.7418V33.2335L44.2847 33.1516C45.0275 33.1065 45.6793 33.0287 45.7334 32.9786C45.9353 32.7915 45.6777 32.0846 45.4077 32.0846C45.2612 32.0846 45.0948 32.0094 45.038 31.9174C44.9498 31.7746 44.4078 27.3362 44.3977 26.6747C44.3958 26.5497 44.544 26.3855 44.7269 26.3097C44.9986 26.1973 45.0455 26.0915 44.9824 25.7341L44.9052 25.2961L43.6643 25.3691ZM75.8546 25.5005C75.4499 25.6789 74.955 26.2391 74.7694 26.729C74.5707 27.2534 74.5702 28.6375 74.7684 29.3512C75.054 30.3796 76.2042 31.3561 77.1273 31.3538C77.6611 31.3524 78.5048 31.0774 78.862 30.7881C79.1647 30.5431 79.1764 30.4825 79.002 30.0618C78.7873 29.5437 78.7409 29.5269 78.345 29.8264C78.0225 30.0704 77.0619 30.1111 76.6632 29.8978C76.5163 29.8193 76.3299 29.5648 76.249 29.3326L76.1017 28.9102L76.8541 28.8198C77.2679 28.7701 77.9588 28.7287 78.3895 28.7282L79.1724 28.7269L79.075 28.0334C78.919 26.9229 78.7288 26.475 78.1923 25.955C77.7727 25.5482 77.5603 25.459 76.9176 25.4193C76.4935 25.3932 76.0151 25.4297 75.8546 25.5005ZM69.9753 25.811C69.7929 25.8853 69.6051 26.0462 69.5583 26.1686C69.4485 26.4547 69.2121 26.4572 69.2121 26.1721C69.2121 25.9983 69.0013 25.9531 68.1902 25.9531H67.1683V26.3986C67.1683 26.7582 67.2493 26.8725 67.5883 26.9906C67.9708 27.1239 68.0165 27.2146 68.0993 28.0049C68.1493 28.4823 68.232 29.2708 68.2831 29.7572C68.369 30.5765 68.3528 30.6476 68.0641 30.7232C67.8385 30.7822 67.7522 30.9187 67.7522 31.2171C67.7522 31.4438 67.8173 31.6695 67.8968 31.7187C67.9763 31.7679 68.6039 31.7624 69.2914 31.7066L70.5415 31.6052L70.4972 31.1514C70.4645 30.8162 70.3713 30.686 70.1399 30.653C69.8083 30.6057 69.7717 30.4683 69.5657 28.502C69.4622 27.514 69.5727 27.3262 70.307 27.2433C70.7285 27.1959 70.745 27.1665 70.745 26.4661C70.745 25.6807 70.5997 25.557 69.9753 25.811ZM71.11 26.1118C71.11 26.475 71.1921 26.5934 71.5333 26.7221C71.9494 26.8792 71.9597 26.9103 72.1335 28.5222C72.313 30.1897 72.2792 30.4787 71.9043 30.4787C71.6574 30.4787 71.6084 31.2846 71.8463 31.4316C71.9301 31.4834 72.5577 31.4792 73.2411 31.4222L74.4834 31.3187L74.4391 30.8622C74.4064 30.5253 74.3132 30.394 74.0836 30.3613C73.7284 30.3107 73.7063 30.2133 73.4277 27.4495L73.2474 25.6611H72.1786H71.11V26.1118ZM63.5916 26.2304C63.1869 26.4088 62.692 26.969 62.5065 27.4589C62.3078 27.9833 62.3072 29.3674 62.5054 30.0812C62.791 31.1095 63.9412 32.086 64.8643 32.0837C65.3982 32.0824 66.2419 31.8074 66.5991 31.518C66.9017 31.273 66.9134 31.2124 66.7391 30.7917C66.5243 30.2736 66.4779 30.2568 66.082 30.5564C65.7595 30.8003 64.7989 30.8411 64.4002 30.6278C64.2534 30.5492 64.0669 30.2948 63.986 30.0625L63.8387 29.6402L64.5912 29.5498C65.0049 29.5 65.6959 29.4587 66.1265 29.4581L66.9095 29.4568L66.8121 28.7633C66.656 27.6528 66.4658 27.2049 65.9293 26.6849C65.5097 26.2782 65.2973 26.189 64.6547 26.1493C64.2306 26.1231 63.7522 26.1596 63.5916 26.2304ZM76.3029 26.7664C76.0969 26.9725 76.0113 27.3724 76.11 27.6684C76.142 27.7645 77.5413 27.7363 77.647 27.6373C77.7299 27.5598 77.3629 26.7579 77.1957 26.6518C76.9153 26.4734 76.549 26.5204 76.3029 26.7664ZM52.4086 27.0144C51.7205 27.4741 51.4019 28.1781 51.4026 29.2378C51.4035 30.447 51.6243 31.1311 52.2302 31.8019C53.4787 33.1839 55.6592 32.7643 55.8824 31.0992L55.9656 30.4787H55.3704C54.8649 30.4787 54.7465 30.5392 54.5839 30.8802C54.3387 31.3941 53.6259 31.504 53.2479 31.0863C52.8605 30.6583 52.627 29.0216 52.8799 28.506C53.1411 27.9733 53.4596 27.7862 53.9119 27.8997C54.1576 27.9614 54.3206 28.1397 54.409 28.4432C54.4812 28.6915 54.5897 28.8899 54.6498 28.8838C54.71 28.8778 54.9779 28.8728 55.245 28.8728C55.7071 28.8728 55.728 28.8498 55.6751 28.3984C55.6445 28.1375 55.5884 27.7741 55.5504 27.5909C55.3694 26.7173 53.3955 26.3551 52.4086 27.0144ZM47.022 27.2934C46.2842 27.7906 45.9999 28.4553 46.0036 29.6758C46.0071 30.904 46.315 31.672 47.069 32.3341C48.0419 33.1884 49.3743 33.1141 50.213 32.1589C50.7308 31.5691 50.8879 30.9086 50.7734 29.8009C50.6694 28.7914 50.1912 27.7985 49.6104 27.3848C48.9192 26.8928 47.6816 26.849 47.022 27.2934ZM64.0399 27.4963C63.8339 27.7024 63.7484 28.1023 63.8471 28.3984C63.879 28.4944 65.2783 28.4663 65.384 28.3673C65.4669 28.2898 65.0999 27.4878 64.9328 27.3817C64.6523 27.2033 64.2861 27.2503 64.0399 27.4963ZM47.6951 28.3666C47.3616 28.7001 47.2648 29.4861 47.4506 30.3529C47.6565 31.3127 47.9459 31.6466 48.5724 31.6466C49.1982 31.6466 49.3924 31.2887 49.3765 30.1641C49.3645 29.3061 49.2273 28.8819 48.8055 28.3984C48.5305 28.0832 47.9938 28.0679 47.6951 28.3666ZM79.7841 48.941C80.3656 49.4661 80.7374 49.5474 81.4751 49.3112C81.7996 49.2073 81.7789 49.1927 81.2878 49.1798C80.984 49.1718 80.3927 48.9986 79.9739 48.795L79.2123 48.4249L79.7841 48.941ZM77.7666 49.2795C78.3334 49.8335 78.3968 49.8582 78.9768 49.7522C79.8151 49.5989 79.8997 49.4572 79.1531 49.4572C78.7578 49.4572 78.2877 49.3195 77.8514 49.076L77.1684 48.695L77.7666 49.2795ZM75.6356 49.5972C76.1763 50.0934 76.3668 50.186 76.7122 50.1206C76.943 50.0769 77.2715 50.0365 77.4422 50.0309C77.7449 50.0209 77.7454 50.0176 77.4604 49.8952C77.2998 49.8261 76.983 49.7651 76.7565 49.7594C76.5299 49.7538 76.0372 49.5794 75.6616 49.3718L74.9786 48.9943L75.6356 49.5972ZM73.3659 49.8791C73.9699 50.5071 74.4537 50.6181 75.3436 50.3331C75.6492 50.2353 75.6035 50.2139 75.0634 50.2017C74.6341 50.192 74.1458 50.0353 73.6036 49.7331L72.7888 49.2791L73.3659 49.8791ZM71.1957 50.3416C71.7758 50.9218 71.8037 50.932 72.5412 50.8342C73.4063 50.7194 73.4179 50.4791 72.5583 50.4791C72.193 50.4791 71.7672 50.3447 71.4019 50.1141C70.5771 49.5934 70.5155 49.6614 71.1957 50.3416ZM81.4751 50.4609C82.0516 50.978 82.1947 51.0396 82.643 50.9648C83.4882 50.8239 83.671 50.6346 82.9666 50.6295C82.5963 50.6269 82.0307 50.4715 81.5798 50.2485L80.8181 49.8717L81.4751 50.4609ZM68.9201 50.6698L69.5771 51.3327L70.453 51.1658L71.3289 50.999L70.526 50.9215C70.0223 50.873 69.451 50.688 68.9931 50.4254L68.2632 50.0067L68.9201 50.6698ZM79.2123 50.6172C79.8429 51.2955 80.0651 51.3785 80.9275 51.2581L81.6941 51.151L80.899 51.0311C80.4616 50.9651 79.8047 50.7391 79.4391 50.5286L78.7743 50.1461L79.2123 50.6172ZM66.5322 51.0596L67.1372 51.6845L67.9921 51.5708L68.8471 51.4569L67.9712 51.2851C67.4895 51.1905 66.8325 50.9604 66.5113 50.7737L65.9274 50.4344L66.5322 51.0596ZM77.3114 51.1902C77.8687 51.7762 77.919 51.7971 78.5523 51.7069C79.4723 51.5759 79.6416 51.355 78.8219 51.355C78.3752 51.355 77.9185 51.2267 77.4423 50.9673L76.7305 50.5796L77.3114 51.1902ZM63.9716 51.42L64.6437 52.1114L65.4829 52.0064C66.4232 51.8891 66.3261 51.653 65.3361 51.6492C65.0109 51.648 64.6824 51.5918 64.6062 51.5244C64.53 51.4569 64.2047 51.2504 63.8836 51.0653L63.2996 50.7288L63.9716 51.42ZM75.215 51.6072C75.8383 52.1702 76.1173 52.2212 77.049 51.9416C77.4084 51.8337 77.3682 51.8159 76.7305 51.801C76.2328 51.7894 75.8147 51.6695 75.4166 51.4242C74.5875 50.9136 74.5176 50.9771 75.215 51.6072ZM61.3937 51.8454L61.9697 52.5495L62.7806 52.4508C63.8942 52.3152 64.0738 52.085 63.066 52.085C62.6244 52.085 62.2006 52.0298 62.1244 51.9624C62.0482 51.8949 61.7229 51.6826 61.4018 51.4905L60.8178 51.1415L61.3937 51.8454ZM72.8618 51.9332C73.5459 52.5343 73.7192 52.5783 74.6867 52.3962L75.2706 52.2863L74.4634 52.1791C74.0195 52.1203 73.3723 51.9107 73.0252 51.7136C72.1419 51.2118 72.1021 51.2654 72.8618 51.9332ZM58.5064 52.0162C59.1321 52.8943 59.3307 52.9945 60.2241 52.8828C61.2927 52.7494 61.4145 52.523 60.4177 52.523C59.9874 52.523 59.5728 52.4678 59.4966 52.4003C59.4204 52.3329 59.0968 52.1213 58.7776 51.9301L58.1972 51.5825L58.5064 52.0162ZM70.6143 52.3682L71.2136 52.9872L72.0742 52.8795C72.7112 52.7997 72.8589 52.7421 72.6428 52.6577C72.4822 52.5948 72.1326 52.5389 71.8659 52.5332C71.5992 52.5276 71.0736 52.3488 70.698 52.1361L70.015 51.7491L70.6143 52.3682ZM55.7326 52.4542C56.3694 53.3476 56.5573 53.4392 57.5249 53.3268C58.6149 53.2003 58.687 52.9609 57.6353 52.9609C57.2097 52.9609 56.7991 52.9057 56.7229 52.8383C56.6467 52.7708 56.323 52.5593 56.0039 52.3681L55.4234 52.0205L55.7326 52.4542ZM81.5339 52.6978L82.2497 53.3434L83.6507 53.0764C85.5648 52.7116 85.581 52.6784 83.7992 52.7738C82.3104 52.8533 82.2287 52.8418 81.5364 52.4542L80.8181 52.0523L81.5339 52.6978ZM68.1347 52.8281C68.7298 53.4231 68.7346 53.4249 69.5559 53.3222C70.5584 53.197 70.6435 52.9612 69.6866 52.9602C69.206 52.9596 68.8139 52.8491 68.4092 52.5997C67.5534 52.0726 67.4582 52.1517 68.1347 52.8281ZM53.16 53.2608C53.4998 53.6666 53.857 53.9682 53.9536 53.931C54.0504 53.8939 54.5177 53.8132 54.9919 53.7516C55.6875 53.6614 55.7837 53.6193 55.4893 53.5339C55.2885 53.4757 54.8909 53.4215 54.6055 53.4135C54.3001 53.4049 53.8024 53.2187 53.396 52.9609C53.0161 52.72 52.6686 52.523 52.6238 52.523C52.579 52.523 52.8203 52.8549 53.16 53.2608ZM65.1245 52.6406C65.1245 52.704 65.381 53.0062 65.6944 53.3122C66.2629 53.8672 66.2668 53.8685 67.1541 53.7655C68.1722 53.6474 68.2117 53.3989 67.2124 53.3989C66.7254 53.3989 66.3509 53.2803 65.8341 52.9622C65.4437 52.7221 65.1245 52.5774 65.1245 52.6406ZM79.3791 53.1037L79.9841 53.7284L80.839 53.6119L81.6941 53.4954L80.9164 53.3738C80.4888 53.3068 79.8318 53.0781 79.4565 52.8656L78.7743 52.479L79.3791 53.1037ZM49.7857 53.2138C49.8676 53.3557 50.1207 53.6922 50.3482 53.9615L50.7618 54.451L51.9212 54.2561L53.0805 54.0612L52.1181 53.9757C51.3885 53.9109 50.9718 53.7771 50.3961 53.4228C49.8626 53.0945 49.681 53.0323 49.7857 53.2138ZM62.9073 53.5103C63.6144 54.4031 63.6288 54.4088 64.6865 54.2131C65.5797 54.0478 65.6065 54.0316 65.1427 53.9371C64.8718 53.882 64.4849 53.8368 64.283 53.8368C64.0811 53.8368 63.5868 53.6344 63.1844 53.3868L62.453 52.9367L62.9073 53.5103ZM77.1992 53.5485C77.8328 54.1465 78.1152 54.2136 79.0663 53.9925C79.4644 53.8998 79.4315 53.8798 78.7064 53.7726C78.2676 53.7078 77.6611 53.4987 77.3588 53.3079C76.5572 52.8018 76.4998 52.8884 77.1992 53.5485ZM47.0191 54.1809C47.3668 54.6415 47.7295 54.9885 47.8248 54.9521C47.9201 54.9154 48.3706 54.8389 48.8258 54.7821C49.9369 54.6433 50.02 54.4208 48.961 54.4208C48.4922 54.4208 47.9792 54.3341 47.821 54.2279C47.6626 54.122 47.275 53.8795 46.9598 53.6893L46.3867 53.3433L47.0191 54.1809ZM60.2952 54.0695C60.6502 54.4634 60.9534 54.8043 60.9691 54.8269C60.9847 54.8496 61.4825 54.7858 62.0755 54.685L63.1536 54.5021L62.1527 54.3875C61.5813 54.322 60.9863 54.1569 60.7659 54.0025C59.7923 53.3209 59.6401 53.3425 60.2952 54.0695ZM75.0202 54.0059L75.6458 54.6612L76.4801 54.5078L77.3144 54.3544L76.4385 54.191C75.9567 54.1012 75.2998 53.8754 74.9786 53.6893L74.3947 53.3507L75.0202 54.0059ZM85.4167 53.9811C86.0122 54.5081 86.1283 54.5545 86.6576 54.4766C87.5087 54.3515 87.6433 54.1291 86.8693 54.1271C86.4474 54.1259 85.997 53.998 85.5843 53.7621C84.6967 53.2546 84.6562 53.3079 85.4167 53.9811ZM57.5243 54.5538L58.1724 55.3305L58.9341 55.241C59.353 55.1916 59.8496 55.0897 60.0378 55.0144C60.3096 54.9055 60.1983 54.8754 59.4961 54.868C58.7895 54.8607 58.4819 54.7767 57.9632 54.4496C57.6062 54.2246 57.2156 53.9812 57.0951 53.9088C56.9747 53.8364 57.1678 54.1268 57.5243 54.5538ZM72.7158 54.4627L73.3728 55.1323L74.2487 54.9499L75.1246 54.7674L74.2942 54.6786C73.7955 54.6252 73.1834 54.4307 72.7614 54.1915L72.0589 53.7931L72.7158 54.4627ZM83.3729 54.419C83.9693 54.9469 84.0837 54.9925 84.6138 54.9132C85.567 54.7707 85.7319 54.5764 84.9058 54.5694C84.4043 54.5652 83.977 54.4496 83.5405 54.2001C82.6529 53.6926 82.6123 53.7459 83.3729 54.419ZM43.5925 54.3573C43.7525 54.6033 43.9957 54.9592 44.133 55.1481L44.3828 55.4915L45.6659 55.2893L46.949 55.0871L45.9083 55.0014C45.3128 54.9522 44.704 54.8097 44.4849 54.6683C44.2745 54.5322 43.9221 54.3058 43.7019 54.1653L43.3018 53.9098L43.5925 54.3573ZM70.2524 54.9285L70.9279 55.6218L71.8583 55.4033L72.7888 55.1849L72.0037 55.1678C71.4171 55.1551 71.0108 55.035 70.3978 54.6931L69.5771 54.2352L70.2524 54.9285ZM81.2561 54.8458C81.8171 55.4379 81.8659 55.4585 82.497 55.3675C83.419 55.2345 83.5878 55.0048 82.7636 55.0048C82.3168 55.0048 81.8602 54.8764 81.384 54.617L80.6721 54.2293L81.2561 54.8458ZM54.4345 54.7958C54.6087 55.0312 54.8755 55.3813 55.0277 55.5738L55.304 55.9238L56.3821 55.709L57.4601 55.4944L56.5163 55.3776C55.9767 55.3107 55.3515 55.1234 55.0564 54.9399C54.7726 54.7636 54.4453 54.5627 54.3291 54.4936C54.2131 54.4246 54.2605 54.5607 54.4345 54.7958ZM67.3089 54.9485C67.4239 55.0999 67.7023 55.4242 67.9276 55.6691C68.3331 56.1102 68.3461 56.1132 69.2127 55.9699C70.2857 55.7924 70.3526 55.5887 69.3378 55.5887C68.7524 55.5887 68.4239 55.4881 67.8436 55.131C67.3283 54.8139 67.1641 54.7579 67.3089 54.9485ZM79.111 55.3234L79.7396 55.9814L80.4584 55.8394C81.2958 55.6737 81.2816 55.4427 80.434 55.4427C80.0679 55.4427 79.592 55.2969 79.1653 55.0541L78.4823 54.6653L79.111 55.3234ZM51.5497 55.4967C51.8218 55.8757 52.1135 56.2414 52.1975 56.3093C52.3618 56.4417 54.2281 56.1724 54.4079 55.9902C54.4674 55.9299 54.1063 55.8807 53.6056 55.8807C52.8472 55.8807 52.5932 55.8116 52.0848 55.4675C51.0694 54.7801 51.0364 54.782 51.5497 55.4967ZM64.5405 55.2724C64.5405 55.3326 64.8258 55.6618 65.1745 56.0042L65.8084 56.6264L66.8169 56.4365L67.8252 56.2465L66.9135 56.1588C66.2516 56.0953 65.8017 55.9468 65.2712 55.617C64.8693 55.3672 64.5405 55.2121 64.5405 55.2724ZM76.8119 55.7937L77.4775 56.4778L78.3448 56.281L79.2123 56.084L78.3933 55.9835C77.9428 55.9281 77.253 55.7089 76.8604 55.4962L76.1465 55.1096L76.8119 55.7937ZM48.117 55.6026C48.182 55.7154 48.4519 56.0779 48.7169 56.4083L49.1987 57.0087L50.3204 56.8137C50.9375 56.7064 51.477 56.5839 51.5193 56.5416C51.5616 56.4992 51.1711 56.4646 50.6515 56.4646C49.8685 56.4646 49.5959 56.3947 49.0579 56.0554C47.9676 55.368 47.9873 55.3775 48.117 55.6026ZM74.4677 56.2321C75.1032 56.899 75.1455 56.9185 75.7643 56.8273C76.9274 56.6557 77.1096 56.4841 76.1392 56.4738C75.6535 56.4689 75.1935 56.4095 75.1173 56.342C75.0411 56.2746 74.7159 56.0671 74.3947 55.881L73.8107 55.5426L74.4677 56.2321ZM85.3402 56.1851L85.9873 56.7813L87.4904 56.4182C89.0349 56.0451 88.8936 55.9524 87.0956 56.1592C86.1681 56.2659 86.0185 56.2451 85.4769 55.9328C84.6312 55.4452 84.6001 55.5027 85.3402 56.1851ZM62.3568 56.4254C62.7148 56.8054 63.0113 57.132 63.0158 57.1514C63.0203 57.1708 63.4676 57.1048 64.01 57.0047C65.1224 56.7994 65.1453 56.6106 64.0579 56.6106C63.5068 56.6106 63.1605 56.5051 62.6202 56.1727C62.2287 55.9318 61.8628 55.7347 61.8072 55.7347C61.7516 55.7347 61.9989 56.0455 62.3568 56.4254ZM83.0809 56.5346C83.7087 57.1882 83.7659 57.2149 84.3688 57.1349C85.4146 56.9963 85.6203 56.7662 84.703 56.761C84.0855 56.7576 83.7556 56.6591 83.1701 56.3036L82.424 55.8505L83.0809 56.5346ZM44.9233 56.1919C45.6344 57.333 45.9072 57.6254 46.2008 57.5616C46.3715 57.5247 46.8995 57.4271 47.3743 57.3449C48.5468 57.1422 48.5676 57.0486 47.4398 57.0486C46.6567 57.0486 46.3842 56.9787 45.8462 56.6394C44.763 55.9565 44.7824 55.9659 44.9233 56.1919ZM71.9738 56.7422C72.6634 57.5658 72.6126 57.5502 73.7377 57.2848L74.5407 57.0953L73.6647 56.9861C73.0933 56.9149 72.5389 56.7241 72.0697 56.4373L71.3505 55.9978L71.9738 56.7422ZM59.0927 56.3648C59.1584 56.4752 59.4439 56.8335 59.7274 57.161L60.2428 57.7563L61.2517 57.5448C61.8066 57.4285 62.2919 57.3022 62.33 57.2639C62.3681 57.2258 61.9911 57.1946 61.4921 57.1946C60.7032 57.1946 60.4797 57.1273 59.7791 56.6792C59.3361 56.3957 59.0271 56.2543 59.0927 56.3648ZM69.4948 57.3118C69.851 57.7347 70.2203 58.0509 70.3156 58.0145C70.4108 57.978 70.7935 57.9023 71.166 57.8464C72.1516 57.6987 72.1408 57.4866 71.1478 57.4866C70.6774 57.4866 70.2299 57.4314 70.1537 57.3639C70.0775 57.2965 69.7523 57.0841 69.4311 56.8921L68.8471 56.5427L69.4948 57.3118ZM56.3294 57.1216C56.5078 57.3625 56.8023 57.7349 56.9839 57.949L57.3141 58.3385L58.482 58.095L59.6499 57.8515L58.6206 57.7785C57.9975 57.7343 57.4357 57.6047 57.1972 57.4501C56.9805 57.3096 56.6236 57.0795 56.404 56.9391L56.0051 56.6836L56.3294 57.1216ZM78.6359 57.6184L79.3733 58.3279L81.0418 57.9451C82.9249 57.5131 82.8644 57.3968 80.8724 57.6191L79.5225 57.7699L78.8177 57.3362C78.4301 57.0978 78.0647 56.9041 78.0057 56.9058C77.9467 56.9074 78.2302 57.2282 78.6359 57.6184ZM66.8033 57.7911C67.2048 58.2225 67.5333 58.5873 67.5333 58.6021C67.5333 58.6166 67.9931 58.5202 68.5552 58.3876L69.5771 58.1464L68.6282 58.0696C67.9553 58.0152 67.5093 57.8844 67.0953 57.62C66.0823 56.973 66.056 56.9883 66.8033 57.7911ZM53.6176 58.1437C54.3129 59.034 54.2012 59.0134 55.9796 58.5784L56.7302 58.3947L55.7064 58.3787C54.7916 58.3642 54.6015 58.308 53.9237 57.8515C53.5065 57.5705 53.1257 57.3406 53.0777 57.3406C53.0297 57.3406 53.2726 57.7019 53.6176 58.1437ZM63.7331 57.9359C63.8912 58.1304 64.2075 58.494 64.436 58.7441L64.8513 59.1989L65.8188 58.9961C66.3509 58.8845 66.8175 58.7621 66.8556 58.7238C66.8937 58.6857 66.5327 58.6545 66.0532 58.6545C65.3502 58.6545 65.0561 58.5753 64.5326 58.2453C63.464 57.5717 63.4244 57.5563 63.7331 57.9359ZM49.9417 58.0085C49.9417 58.0861 50.5978 58.9918 50.9761 59.4365C51.0958 59.5773 53.15 59.2622 53.3652 59.0702C53.4427 59.001 53.0738 58.9464 52.5285 58.9464C51.6618 58.9464 51.4637 58.8891 50.7475 58.431C50.3044 58.1474 49.9417 57.9574 49.9417 58.0085ZM60.7514 58.3215C60.7549 58.3842 61.0386 58.7485 61.3815 59.131L62.005 59.8265L63.0903 59.5689L64.1755 59.3114L63.2547 59.2678C62.496 59.2317 62.1942 59.1346 61.5393 58.7158C61.1024 58.4362 60.7478 58.2588 60.7514 58.3215ZM47.1605 59.3568C47.6664 60.078 47.8524 60.2416 48.1001 60.1834C48.2699 60.1434 48.8359 60.0249 49.3578 59.9197L50.3067 59.7286L49.2214 59.618C48.3994 59.5342 47.9921 59.41 47.5426 59.1057C46.5305 58.421 46.5124 58.4329 47.1605 59.3568ZM58.3425 59.6034C58.7197 60.045 59.0752 60.4063 59.1324 60.4063C59.4677 60.4063 60.9863 60.0529 61.1025 59.9478C61.1813 59.8765 60.8337 59.8224 60.2977 59.8224C59.4612 59.8224 59.268 59.7644 58.5953 59.3114C58.1781 59.0304 57.796 58.8004 57.7465 58.8004C57.6971 58.8004 57.9652 59.1618 58.3425 59.6034ZM75.4623 59.1921C75.5675 59.2343 75.6935 59.2291 75.742 59.1806C75.7905 59.1321 75.7043 59.0977 75.5505 59.104C75.3804 59.111 75.3458 59.1456 75.4623 59.1921ZM67.906 60.6266L61.1253 61.9812L60.3956 61.4898C59.9943 61.2196 59.6388 61.0256 59.6057 61.0589C59.5109 61.1536 60.7715 62.596 60.9502 62.5972C61.1101 62.5982 74.85 59.4171 75.1246 59.3155C75.6934 59.105 73.812 59.4467 67.906 60.6266ZM55.258 60.2262C55.7321 60.8317 56.0525 61.1185 56.2061 61.0739C56.3338 61.0371 56.8652 60.9233 57.3871 60.8209L58.336 60.6348L57.322 60.5181C56.3721 60.4088 56.0291 60.273 54.9665 59.5859C54.6012 59.3497 54.642 59.439 55.258 60.2262ZM51.5476 60.1612C51.5476 60.1964 51.8267 60.583 52.1681 61.0202L52.7885 61.8151L53.929 61.564C54.5561 61.4259 55.109 61.2732 55.1576 61.2246C55.2062 61.176 54.788 61.1363 54.2282 61.1363C53.3652 61.1363 53.112 61.0741 52.5616 60.7271C51.5984 60.1199 51.5476 60.0914 51.5476 60.1612ZM48.3998 61.0814C48.5365 61.3123 48.8336 61.7282 49.0601 62.0056L49.4721 62.51L50.4734 62.3134C52.0483 62.004 52.1884 61.8858 50.9921 61.8754C49.9901 61.8668 49.8723 61.8299 49.0387 61.2639C48.174 60.6765 48.1579 60.672 48.3998 61.0814ZM54.6134 62.0947C54.6134 62.3211 55.878 63.7632 56.0713 63.7573C56.1928 63.7535 57.0477 63.5584 57.9711 63.3236L59.6499 62.8967L57.9302 62.9832L56.2105 63.0697L55.4119 62.5395C54.9728 62.2478 54.6134 62.0477 54.6134 62.0947ZM50.4695 63.9686C50.9288 64.6068 51.2416 64.9128 51.3924 64.8711C51.518 64.8363 52.3939 64.6292 53.339 64.4108C54.2841 64.1922 55.0395 63.9956 55.0176 63.9737C54.9957 63.9516 54.225 63.9943 53.305 64.0681L51.6323 64.2026L50.8235 63.6549C50.3787 63.3535 49.9607 63.0836 49.8947 63.055C49.8288 63.0262 50.0874 63.4373 50.4695 63.9686ZM64.231 65.5159C64.6548 66.1181 65.3084 67.0521 65.6834 67.5916C66.0585 68.131 66.4311 68.5774 66.5113 68.5836C66.7147 68.5993 78.292 65.1585 78.1553 65.1231C78.0943 65.1071 75.5151 65.7082 72.4238 66.4586L66.8033 67.823L65.1319 66.1221L63.4605 64.421L64.231 65.5159Z" fill="#2B2A29"/>
</svg>
