<svg width="132" height="88" viewBox="0 0 132 88" fill="none" xmlns="http://www.w3.org/2000/svg">
<path d="M96.6376 59.701C96.2315 59.8993 95.8623 60.1059 95.8172 60.1598C95.6651 60.3417 94.2201 60.4619 93.3813 60.3624C92.4984 60.2577 91.9152 59.8507 91.3035 58.9131C91.017 58.4737 90.9851 58.1519 91.0074 55.9277C91.0211 54.5566 91.1108 53.1902 91.2067 52.8912C91.3024 52.5923 91.425 51.9784 91.4787 51.527C91.5326 51.0756 91.6372 50.4848 91.7113 50.2139C91.7854 49.9432 91.9714 49.0937 92.1246 48.3264C92.2778 47.5591 92.5021 46.5619 92.623 46.1106C92.7439 45.6592 92.9293 44.773 93.0349 44.1409C93.1404 43.5091 93.2984 42.8558 93.3857 42.6894C93.4731 42.5232 93.5791 42.08 93.6212 41.7046C93.6634 41.3293 93.8523 40.3208 94.041 39.4631C94.1179 39.1138 94.1985 38.7413 94.2719 38.3982C94.3786 37.8987 94.4698 37.4613 94.5111 37.2473C94.581 36.8862 94.8076 35.7783 95.015 34.7853C95.3365 33.2449 95.3931 32.476 95.3996 29.5467C95.4057 26.9405 95.3581 26.0972 95.2026 26.0451C95.09 26.0076 94.9955 25.7428 94.9925 25.457C94.9897 25.1712 94.8791 24.7937 94.7467 24.6187C94.6144 24.4433 94.5061 24.1992 94.5061 24.0761C94.5061 23.3633 91.9697 20.4235 91.3548 20.4235C91.195 20.4235 91.0644 20.3308 91.0644 20.2175C91.0644 20.0297 90.3313 19.7025 89.5075 19.5228C87.7088 19.1303 87.2055 19.0828 85.738 19.1672C84.0577 19.2635 82.3783 19.5828 82.3783 19.8059C82.3783 19.8747 82.2347 19.9311 82.0594 19.9311C81.7273 19.9311 79.8303 20.8705 78.6854 21.6019C77.7702 22.1865 76.0246 23.9035 75.0223 25.2055C74.5611 25.8042 74.1838 26.3447 74.1838 26.4064C74.1838 26.4679 74.0113 26.7536 73.8003 27.041C73.5894 27.3284 73.3223 27.8035 73.2069 28.0968C72.8486 29.0069 72.5951 28.7543 72.465 27.3582C72.3997 26.6587 72.2976 26.0493 72.238 26.0041C72.1379 25.9283 71.8428 25.0087 71.6082 24.041C71.4099 23.2236 69.0785 20.4583 68.5641 20.4305C68.4928 20.4267 68.2297 20.2719 67.9795 20.0866C67.3261 19.6028 65.2845 19.1165 63.8929 19.1133C62.6498 19.1103 60.2862 19.5167 60.0156 19.7798C59.9299 19.863 59.6916 19.9311 59.486 19.9311C59.2801 19.9311 58.6298 20.2265 58.0408 20.5876C57.4517 20.9488 56.9086 21.2442 56.8337 21.2442C56.759 21.2442 56.5438 21.3782 56.3553 21.5417C56.2922 21.5965 56.2096 21.6641 56.1182 21.7362C55.9368 21.8794 55.7205 22.0408 55.5518 22.157C54.8593 22.6345 52.4817 25.1068 52.2127 25.629C52.0832 25.8805 51.9403 26.1232 51.8953 26.1682C51.6653 26.3977 51.0603 27.3522 50.6658 28.1078C50.4216 28.5757 50.1557 28.9585 50.0749 28.9585C49.9943 28.9585 49.9229 28.3861 49.9163 27.6864C49.9053 26.5186 49.7929 25.5671 49.5139 24.2807C49.3786 23.6567 48.429 21.7366 48.2558 21.7366C48.1842 21.7366 48.1255 21.6604 48.1255 21.5675C48.1255 21.316 47.0268 20.391 46.2581 19.9952C44.8459 19.2681 43.9822 19.0848 42.281 19.1502C40.7533 19.209 38.7981 19.5355 38.6199 19.762C38.5749 19.819 38.1692 20.004 37.7185 20.173C36.8594 20.4947 35.2992 21.3851 35.2056 21.6071C35.1755 21.6784 35.0525 21.7366 34.9324 21.7366C34.8933 21.7366 34.8538 21.7427 34.8174 21.7534C34.742 21.7754 34.6795 21.8167 34.6592 21.8638C34.6292 21.9337 34.3565 22.1461 34.0531 22.3356C33.4881 22.6885 31.714 24.3954 30.8352 25.4317C30.5648 25.7503 30.1591 26.2185 29.9338 26.4718C29.7084 26.725 29.3766 27.2085 29.1963 27.5462C29.016 27.8838 28.7384 28.3007 28.5794 28.4728C28.4205 28.6448 28.0932 29.385 27.8521 30.1177C27.4478 31.3466 27.4289 31.5217 27.6085 32.3789C27.7156 32.8899 27.8768 33.3327 27.9671 33.3627C28.0573 33.393 28.131 33.5108 28.131 33.6249C28.131 33.921 28.704 34.5428 29.2348 34.8229C29.9507 35.2007 30.4063 35.2285 31.2561 34.9457C32.0611 34.678 32.1214 34.6199 33.9432 32.3511C35.2366 30.7407 36.7894 29.3031 37.8119 28.7692C38.1671 28.5837 38.4985 28.3659 38.5485 28.285C38.5984 28.204 38.8192 28.1378 39.0393 28.1378C39.2594 28.1378 39.4394 28.0596 39.4394 27.9639C39.4394 27.8631 39.6978 27.8113 40.0528 27.8408C40.8657 27.9083 41.1148 28.4318 41.1212 30.0874C41.1263 31.4059 40.7549 35.307 40.3226 38.4783C40.1811 39.5165 40.0058 40.809 39.933 41.3507C39.8604 41.8923 39.7213 42.6309 39.6241 42.992C39.5267 43.3531 39.4454 43.9614 39.4433 44.3439C39.4412 44.7262 39.3648 45.354 39.2738 45.739C39.0827 46.5464 37.9926 53.2689 37.7761 54.9738C37.6958 55.6059 37.582 56.2335 37.523 56.369C37.4642 56.5044 37.359 57.1323 37.2891 57.7641C37.2193 58.3961 37.0798 59.504 36.9792 60.2261C36.7439 61.9138 36.8303 65.9676 37.1072 66.2449C37.2182 66.3562 37.3088 66.5727 37.3088 66.7266C37.3088 67.0704 38.2715 68.1867 38.5681 68.1867C38.6868 68.1867 38.7838 68.2532 38.7838 68.3345C38.7838 68.5709 40.3927 68.8918 41.5612 68.8883C42.9404 68.8841 43.9252 68.6092 44.5493 68.054C45.0863 67.5763 45.7894 66.3174 46.0336 65.3964C46.2116 64.7249 46.631 62.1336 46.7906 60.7185C46.8517 60.1769 46.9494 59.6589 47.0076 59.5675C47.0658 59.4762 47.1585 58.9591 47.2134 58.4186C47.2683 57.8781 47.3816 57.0666 47.4648 56.6152C47.5483 56.1638 47.7379 55.1298 47.8865 54.3173C48.035 53.5048 48.221 52.6186 48.2995 52.3477C48.3264 52.2552 48.3564 52.1382 48.3862 52.0116C48.4434 51.7678 48.4999 51.4887 48.5324 51.2808C48.6822 50.3236 49.2268 48.0662 49.9581 45.372C49.9978 45.2258 50.046 45.0366 50.0932 44.8443C50.1481 44.6207 50.2015 44.3928 50.2382 44.223C50.3067 43.9071 50.4493 43.4873 50.5551 43.2901C50.661 43.0928 50.7477 42.7482 50.7477 42.5241C50.7477 42.3 50.8031 42.0921 50.8706 42.0619C50.9798 42.0133 51.204 41.451 51.9067 39.4631C52.0185 39.1472 52.2012 38.6671 52.3128 38.3962C52.4246 38.1255 52.5887 37.7192 52.6775 37.4935C53.069 36.4997 54.1479 34.3903 54.6378 33.661C54.9319 33.2231 55.1727 32.7983 55.1727 32.7172C55.1727 32.636 55.2381 32.5695 55.3179 32.5695C55.3977 32.5695 55.5821 32.3183 55.7276 32.0113C56.1051 31.2147 58.2253 29.2911 59.413 28.6676C60.2818 28.2114 60.5881 28.1378 61.6181 28.1378C62.711 28.1378 62.8517 28.1771 63.2488 28.5922C63.8223 29.1916 64.2523 31.1221 64.0358 32.1248C63.9539 32.5049 63.839 33.5543 63.7803 34.457C63.7218 35.3597 63.6102 36.3569 63.5324 36.6728C63.4547 36.9887 63.3524 37.6536 63.3051 38.15C63.2578 38.6466 63.1451 39.4221 63.0546 39.8734C63.0067 40.1121 62.9533 40.4002 62.907 40.6653C62.8658 40.9015 62.8302 41.1197 62.8093 41.2686C62.7907 41.4007 62.7534 41.6323 62.706 41.9133C62.6399 42.3045 62.5541 42.7915 62.4718 43.2382C62.3306 44.0055 62.1495 45.0765 62.0696 45.6182C61.9897 46.1598 61.8818 46.7137 61.8297 46.8492C61.7776 46.9846 61.5401 48.2033 61.3018 49.5574C61.0635 50.9115 60.8069 52.3518 60.7313 52.758C60.3344 54.891 60.0738 56.4042 59.9257 57.4359C59.835 58.0679 59.679 59.028 59.579 59.5696C59.4789 60.1112 59.3937 61.7912 59.3892 63.3029C59.3807 66.2623 59.4676 66.6437 60.3942 67.718C61.2443 68.7034 63.1939 69.1274 65.1544 68.7533C66.3354 68.5279 67.6176 67.8292 67.6248 67.407C67.6266 67.2943 67.6927 67.2019 67.7714 67.2019C67.9867 67.2019 68.9004 64.7639 69.0017 63.9192C69.0504 63.513 69.2005 62.479 69.335 61.6213C69.4697 60.7637 69.6259 59.6188 69.6825 59.0772C69.7388 58.5356 69.8893 57.5755 70.0168 56.9435C70.1445 56.3116 70.2761 55.536 70.3097 55.22C70.3431 54.9041 70.4082 54.5348 70.4541 54.3994C70.5001 54.2639 70.6653 53.4146 70.8212 52.5118C70.9772 51.6091 71.2093 50.5012 71.3371 50.0498C71.4648 49.5984 71.5919 49.0076 71.6193 48.7367C71.6468 48.466 71.7104 48.1336 71.7607 47.9981C71.8109 47.8627 72.0898 46.8287 72.3804 45.7002C72.671 44.5718 72.9668 43.5009 73.0376 43.3203C73.1086 43.1398 73.3196 42.5119 73.5066 41.9251C73.9954 40.3917 74.2709 39.6497 74.3994 39.521C74.4611 39.4591 74.5116 39.2789 74.5116 39.1207C74.5116 38.9627 74.6157 38.6242 74.7429 38.3685C75.5793 36.6885 76.3144 35.0733 76.3144 34.9157C76.3144 34.8138 76.3696 34.7061 76.4373 34.6758C76.505 34.6458 76.7076 34.3257 76.8877 33.9646C77.2781 33.1821 78.149 31.8533 78.322 31.7762C78.3897 31.7461 78.4449 31.6169 78.4449 31.489C78.4449 31.3612 78.5556 31.2564 78.6908 31.2564C78.826 31.2564 78.9366 31.1889 78.9366 31.1063C78.9366 30.7582 80.9249 29.0133 81.9938 28.4233C82.3198 28.2434 82.8665 28.1378 83.4732 28.1378C84.3097 28.1378 84.5049 28.2011 84.964 28.6211C85.3021 28.9303 85.4922 29.259 85.4922 29.5346C85.4922 29.7713 85.5663 30.1036 85.6569 30.2732C85.9603 30.8409 85.4992 33.9237 84.3194 39.2169C84.0377 40.4808 83.7735 41.8657 83.7325 42.2944C83.6914 42.7234 83.5911 43.0741 83.5096 43.0741C83.4283 43.0741 83.3616 43.2432 83.3616 43.4499C83.3616 43.6566 83.2461 44.2661 83.105 44.8041C82.9639 45.3421 82.8226 45.9669 82.7913 46.1926C82.7598 46.4183 82.6913 46.7137 82.639 46.8492C82.5868 46.9846 82.4783 47.5386 82.3981 48.0802C82.3178 48.6218 82.0956 49.9144 81.9043 50.9525C81.7131 51.9907 81.4766 53.2833 81.3789 53.8249C81.0988 55.376 81.0264 57.9784 81.2257 59.3234C81.5184 61.3004 81.5874 61.6213 81.7198 61.6213C81.7884 61.6213 81.8919 61.9167 81.9496 62.2778C82.0072 62.639 82.1272 62.9344 82.2164 62.9344C82.3054 62.9344 82.3783 63.0709 82.3783 63.2381C82.3783 63.5388 83.2877 64.9354 83.5522 65.0407C83.6276 65.071 83.6925 65.1818 83.6963 65.2869C83.7002 65.3924 83.9302 65.6631 84.2075 65.8888C84.4847 66.1145 84.9058 66.4838 85.1429 66.7095C85.5636 67.1099 87.2117 67.9783 88.1963 68.3184C89.7617 68.8594 92.049 69.0322 93.9177 68.751C94.7858 68.6206 95.6236 68.4494 95.7795 68.3705C95.8453 68.3373 95.9816 68.2832 96.1561 68.2195C96.3951 68.1325 96.7058 68.0275 97.0054 67.9342C97.5238 67.773 97.9477 67.579 97.9477 67.5035C97.9477 67.4279 98.04 67.3662 98.1526 67.3663C98.246 67.3663 98.5485 67.1752 98.9311 66.9587C109.666 60.8827 102.619 54.3994 96.6376 59.701Z" fill="#E53E3E"/>
</svg>
