<svg width="132" height="88" viewBox="0 0 132 88" fill="none" xmlns="http://www.w3.org/2000/svg">
<path d="M66.1598 11.8244H89.0824C89.5714 11.8191 90.0502 11.9605 90.4577 12.2304C90.8642 12.5002 91.1815 12.8861 91.3682 13.3384C91.555 13.7906 91.6012 14.2883 91.5016 14.7674C91.4034 15.2464 91.1634 15.6846 90.813 16.0258L62.4998 44.3853C61.6185 45.2601 60.4269 45.7507 59.1864 45.7507H36.2938C35.806 45.7559 35.3271 45.6146 34.9196 45.3448C34.512 45.075 34.1948 44.6889 34.0091 44.2368C33.8224 43.7844 33.7762 43.2867 33.8746 42.8076C33.974 42.3286 34.2139 41.8905 34.5642 41.5492L62.8774 13.1899C63.7497 12.3208 64.9292 11.8304 66.1598 11.8244ZM64.2928 50.7502V73.7108C64.2898 74.1994 64.4323 74.6771 64.7023 75.0833C64.9735 75.4895 65.3587 75.8063 65.8095 75.9913C66.2602 76.1761 66.7563 76.2226 67.234 76.1231C67.7108 76.0235 68.1475 75.7832 68.4877 75.4331L96.8009 47.074C97.2367 46.6387 97.5819 46.1214 97.8178 45.5516C98.0538 44.9821 98.1753 44.3716 98.1742 43.755V20.8259C98.1753 20.3391 98.0307 19.8631 97.7606 19.4585C97.4895 19.0538 97.1061 18.7387 96.6565 18.5529C96.2077 18.3674 95.7127 18.3196 95.2361 18.4156C94.7601 18.5117 94.3226 18.7474 93.9802 19.0928L65.667 47.4521C64.7917 48.3266 64.2978 49.5124 64.2928 50.7502Z" fill="#4546DE"/>
</svg>
