<svg width="132" height="88" viewBox="0 0 132 88" fill="none" xmlns="http://www.w3.org/2000/svg">
<path fill-rule="evenodd" clip-rule="evenodd" d="M105.867 72C110.931 71.9172 115.64 69.8741 119.117 66.2536C125.936 59.1284 125.565 47.5354 118.307 40.3937L98.9803 21.3771C91.7391 14.252 79.9578 14.252 72.6999 21.3605C70.8936 23.121 70.8936 26.0108 72.6999 27.7713C74.5058 29.5485 77.4259 29.5485 79.215 27.7713C82.8777 24.1839 88.8193 24.1839 92.4652 27.7713L111.791 46.7883C115.555 50.492 115.825 56.4213 112.399 60.0088C110.644 61.8354 108.281 62.8653 105.732 62.9153C103.183 62.8984 100.786 62.0018 98.9803 60.2245L59.4497 21.3438C52.2086 14.2187 40.4272 14.2187 33.1861 21.3438L13.4377 40.7761C9.85938 44.2969 7.91825 48.997 8.00264 53.9797C8.08704 58.9624 10.1632 63.5962 13.8428 67.0176C21.067 73.7273 32.8654 73.3622 40.1233 66.2204L49.212 57.2772C50.248 57.6292 51.3605 57.8204 52.5183 57.8204C58.1113 57.8204 62.6456 53.3588 62.6456 47.855C62.6456 42.3515 58.1113 37.8899 52.5183 37.8899C46.9249 37.8899 42.3908 42.3515 42.3908 47.855C42.3908 48.8593 42.5417 49.8287 42.8224 50.7425L33.6081 59.8093C29.8441 63.513 23.8183 63.7788 20.1724 60.4074C18.3157 58.6801 17.2692 56.3547 17.2186 53.8468C17.1848 51.3389 18.1469 48.9808 19.953 47.2034L39.7014 27.7713C41.4737 26.0275 43.8199 25.0808 46.3177 25.0808C48.816 25.0808 51.162 26.0441 52.9346 27.7713L92.4652 66.6522C95.9759 70.1067 100.634 72 105.597 72H105.867ZM52.5183 51.177C54.3827 51.177 55.894 49.69 55.894 47.8554C55.894 46.0207 54.3827 44.5337 52.5183 44.5337C50.6542 44.5337 49.1425 46.0207 49.1425 47.8554C49.1425 49.69 50.6542 51.177 52.5183 51.177Z" fill="url(#paint0_linear_2201_6017)"/>
<defs>
<linearGradient id="paint0_linear_2201_6017" x1="24.4604" y1="49.6323" x2="93.5552" y2="49.6323" gradientUnits="userSpaceOnUse">
<stop stop-color="#FE2B7C"/>
<stop offset="1" stop-color="#FB0BF1"/>
</linearGradient>
</defs>
</svg>
