<svg width="132" height="88" viewBox="0 0 132 88" fill="none" xmlns="http://www.w3.org/2000/svg">
<mask id="mask0_2056_26019" style="mask-type:luminance" maskUnits="userSpaceOnUse" x="34" y="12" width="64" height="64">
<path d="M85.4342 12.0156H46.5668C39.635 12.0156 34.0156 17.635 34.0156 24.5668V63.4342C34.0156 70.3658 39.635 75.9852 46.5668 75.9852H85.4342C92.3658 75.9852 97.9852 70.3658 97.9852 63.4342V24.5668C97.9852 17.635 92.3658 12.0156 85.4342 12.0156Z" fill="white"/>
</mask>
<g mask="url(#mask0_2056_26019)">
<path d="M34.0156 75.9852V12.0156H44.6764V75.9852H34.0156Z" fill="#E767AC"/>
<path d="M44.6797 75.9852V12.0156H55.3436V75.9852H44.6797Z" fill="#FF9E68"/>
<path d="M55.3379 75.9852V12.0156H65.9988V75.9852H55.3379Z" fill="#FBFF4B"/>
<path d="M66 75.9882V12.0156H76.6639V75.9852L66 75.9882Z" fill="#B5EBC4"/>
<path d="M76.666 75.9852V12.0156H87.3269V75.9852H76.666Z" fill="#5ECDF0"/>
<path d="M87.3242 75.9852V12.0156H97.9852V75.9852H87.3242Z" fill="#8B58F8"/>
<path d="M87.3242 75.9852V12.0156H97.9852V75.9852H87.3242Z" fill="#8B58F8"/>
<path d="M82.938 18.2852H49.069C44.2202 18.2852 40.2891 22.2157 40.2891 27.0642V60.9338C40.2891 65.7818 44.2202 69.7129 49.069 69.7129H82.938C87.7865 69.7129 91.7168 65.7818 91.7168 60.9338V27.0642C91.7168 22.2157 87.7865 18.2852 82.938 18.2852Z" fill="white"/>
<path d="M54.8405 55.4051C54.079 55.4051 53.6992 54.9962 53.6992 54.1811V33.2307C53.6992 32.4154 54.079 32.0078 54.8405 32.0078H59.5724C60.2041 32.0078 60.6537 32.4431 60.9276 33.3124L65.3485 47.6212C65.5446 48.2424 65.6804 48.7528 65.7563 49.1563C65.8333 49.547 65.8982 50.0159 65.9524 50.5593H66.0492C66.1042 50.0145 66.1702 49.547 66.2461 49.1563C66.322 48.7542 66.4581 48.2411 66.6539 47.6212L71.0767 33.3124C71.3468 32.4431 71.7975 32.0078 72.4303 32.0078H77.1619C77.9237 32.0078 78.3035 32.4154 78.3035 33.2307V54.1811C78.3035 54.9962 77.9237 55.4051 77.1619 55.4051H74.6801C73.9205 55.4051 73.5388 54.9962 73.5388 54.1811V40.7039C73.5388 40.0524 73.5666 39.3993 73.6208 38.7461H73.5077L68.792 54.0826C68.5201 54.9643 68.0512 55.4051 67.3887 55.4051H64.6159C63.9501 55.4051 63.4823 54.9643 63.2106 54.0826L58.4969 38.7461H58.3819C58.4369 39.3979 58.4639 40.051 58.4639 40.7039V54.1811C58.4639 54.9962 58.0819 55.4051 57.3215 55.4051H54.8405Z" fill="black"/>
</g>
</svg>
