<svg width="132" height="88" viewBox="0 0 132 88" fill="none" xmlns="http://www.w3.org/2000/svg">
<mask id="mask0_2056_21441" style="mask-type:luminance" maskUnits="userSpaceOnUse" x="34" y="12" width="64" height="64">
<path d="M34.0156 12.0156H97.9852V75.9852H34.0156V12.0156Z" fill="white"/>
</mask>
<g mask="url(#mask0_2056_21441)">
<path fill-rule="evenodd" clip-rule="evenodd" d="M34.0156 46.6683C34.0156 29.0048 48.337 14.6836 66.0005 14.6836C83.664 14.6836 97.9852 29.0048 97.9852 46.6683V69.7425C97.9852 70.2732 97.7745 70.7809 97.3997 71.1568C97.0249 71.5316 96.5161 71.7415 95.9862 71.7415C95.4566 71.7415 94.9478 71.5316 94.573 71.1568C94.1982 70.7809 93.9872 70.2732 93.9872 69.7425V46.6683C93.9872 31.2117 81.4571 18.6817 66.0005 18.6817C50.5438 18.6817 38.0137 31.2117 38.0137 46.6683V69.7425C38.0137 70.2732 37.8028 70.7809 37.428 71.1568C37.0532 71.5316 36.5444 71.7415 36.0147 71.7415C35.4849 71.7415 34.9762 71.5316 34.6013 71.1568C34.2265 70.7809 34.0156 70.2732 34.0156 69.7425V46.6683ZM55.3376 64.6599C55.3376 64.1303 55.5483 63.6215 55.9231 63.2467C56.2979 62.8716 56.8067 62.6609 57.3366 62.6609H74.6624C75.1921 62.6609 75.7008 62.8716 76.0757 63.2467C76.4505 63.6215 76.6614 64.1303 76.6614 64.6599C76.6614 65.1907 76.4505 65.6983 76.0757 66.0732C75.7008 66.448 75.1921 66.6589 74.6624 66.6589H57.3366C56.8067 66.6589 56.2979 66.448 55.9231 66.0732C55.5483 65.6983 55.3376 65.1907 55.3376 64.6599ZM44.7094 38.7068C45.5842 37.832 46.7706 37.3406 48.0081 37.3406H83.991C85.2282 37.3406 86.4148 37.832 87.2893 38.7068C88.1638 39.5816 88.6558 40.7679 88.6558 42.0051V51.334C88.6558 52.5712 88.1638 53.7575 87.2893 54.6323C86.4148 55.5071 85.2282 55.9985 83.991 55.9985H48.0081C45.4332 55.9985 43.3432 53.9088 43.3432 51.334V42.0051C43.3432 40.7679 43.835 39.5816 44.7094 38.7068ZM50.007 40.6741C49.4774 40.6741 48.9695 40.8845 48.5946 41.2588C48.2198 41.6336 48.01 42.1418 48.01 42.6715C48.01 43.2014 48.2198 43.7093 48.5946 44.0842L56.5908 52.0803C56.9656 52.4546 57.4736 52.665 58.0032 52.665C58.5329 52.665 59.0408 52.4546 59.4156 52.0803L65.9994 45.4968L72.5834 52.0803C72.9583 52.4546 73.4659 52.665 73.9956 52.665C74.5255 52.665 75.0331 52.4546 75.408 52.0803L83.4041 44.0842C83.601 43.9013 83.7581 43.6804 83.8681 43.4352C83.977 43.1898 84.0358 42.9253 84.041 42.6569C84.0449 42.3885 83.9959 42.1217 83.895 41.8729C83.7949 41.624 83.645 41.3979 83.4553 41.2082C83.2653 41.0182 83.0395 40.8686 82.7906 40.7679C82.5417 40.6675 82.2747 40.618 82.0069 40.623C81.7379 40.6277 81.4731 40.6862 81.2283 40.7957C80.9833 40.9049 80.7625 41.0624 80.5796 41.2588L73.9956 47.8423L67.4118 41.2588C67.037 40.8845 66.5293 40.6741 65.9994 40.6741C65.4697 40.6741 64.9621 40.8845 64.5873 41.2588L58.0032 47.8423L51.4194 41.2588C51.0446 40.8845 50.5367 40.6741 50.007 40.6741Z" fill="#0EF275"/>
</g>
</svg>
