<svg width="132" height="88" viewBox="0 0 132 88" fill="none" xmlns="http://www.w3.org/2000/svg">
<path d="M93.5526 56.7458C94.8769 54.4271 96.8251 52.9132 99.603 52.0437C102.221 51.2242 103.101 51.228 105.934 52.0699C108.668 52.8823 111.563 55.4241 112.609 57.9299C112.989 58.8393 113.299 60.7102 113.299 62.0875C113.299 71.7348 100.964 75.9828 94.5902 68.5304C91.5983 65.032 91.2269 60.8177 93.5526 56.7458Z" fill="#00CA72"/>
<path d="M42.6206 20.1906C43.4503 19.0841 45.1318 17.7354 46.6287 16.9758C52.4518 14.0203 59.4071 16.2629 62.496 22.0919C63.827 24.6038 63.8902 29.4624 62.623 31.8482C61.0961 34.7232 40.4342 67.0447 39.1365 68.5881C37.3462 70.7178 33.6629 72.2931 30.4917 72.2859C22.8455 72.2693 17.156 65.1719 19.0742 58.0432C19.582 56.1547 38.7176 25.3929 42.6206 20.1906Z" fill="#F62B54"/>
<path d="M79.7105 20.1906C80.5403 19.0841 82.2217 17.7354 83.7186 16.9758C89.5417 14.0203 96.497 16.2629 99.586 22.0919C100.917 24.6038 100.98 29.4624 99.7129 31.8482C98.1861 34.7232 77.5241 67.0447 76.2264 68.5881C74.4361 70.7178 70.7528 72.2931 67.5816 72.2859C59.9354 72.2693 54.2459 65.1719 56.1641 58.0432C56.672 56.1547 75.8075 25.3929 79.7105 20.1906Z" fill="#FFCC00"/>
</svg>
