<svg width="132" height="88" viewBox="0 0 132 88" fill="none" xmlns="http://www.w3.org/2000/svg">
<path fill-rule="evenodd" clip-rule="evenodd" d="M66.0004 13.1461C48.9611 13.1461 35.148 26.9592 35.148 43.9984C35.148 61.0377 48.9611 74.8508 66.0004 74.8508C83.0397 74.8508 96.8528 61.0377 96.8528 43.9984C96.8528 26.9592 83.0397 13.1461 66.0004 13.1461ZM31.9004 43.9984C31.9004 25.1655 47.1675 9.89844 66.0004 9.89844C84.8333 9.89844 100.1 25.1655 100.1 43.9984C100.1 62.8314 84.8333 78.0984 66.0004 78.0984C47.1675 78.0984 31.9004 62.8314 31.9004 43.9984ZM49.6147 31.2048C49.6147 29.221 51.2229 27.6127 53.2067 27.6127H61.0798C63.0636 27.6127 64.6718 29.221 64.6718 31.2048V39.0778C64.6718 41.0616 63.0636 42.6698 61.0798 42.6698H53.2067C51.2229 42.6698 49.6147 41.0616 49.6147 39.0778V31.2048ZM53.2067 30.8604C53.0166 30.8604 52.8623 31.0146 52.8623 31.2048V39.0778C52.8623 39.268 53.0166 39.4222 53.2067 39.4222H61.0798C61.2699 39.4222 61.4242 39.268 61.4242 39.0778V31.2048C61.4242 31.0146 61.2699 30.8604 61.0798 30.8604H53.2067ZM68.5592 31.2048C68.5592 29.221 70.1674 27.6127 72.1512 27.6127H80.0243C82.0081 27.6127 83.6163 29.221 83.6163 31.2048V39.0778C83.6163 41.0616 82.0081 42.6698 80.0243 42.6698H72.1512C70.1674 42.6698 68.5592 41.0616 68.5592 39.0778V31.2048ZM72.1512 30.8604C71.9609 30.8604 71.8068 31.0146 71.8068 31.2048V39.0778C71.8068 39.268 71.9609 39.4222 72.1512 39.4222H80.0243C80.2144 39.4222 80.3687 39.268 80.3687 39.0778V31.2048C80.3687 31.0146 80.2144 30.8604 80.0243 30.8604H72.1512ZM49.6147 49.9033C49.6147 47.9193 51.2229 46.3111 53.2067 46.3111H61.0798C63.0636 46.3111 64.6718 47.9193 64.6718 49.9033V57.7761C64.6718 59.7601 63.0636 61.3683 61.0798 61.3683H53.2067C51.2229 61.3683 49.6147 59.7601 49.6147 57.7761V49.9033ZM53.2067 49.5587C53.0166 49.5587 52.8623 49.7129 52.8623 49.9033V57.7761C52.8623 57.9664 53.0166 58.1207 53.2067 58.1207H61.0798C61.2699 58.1207 61.4242 57.9664 61.4242 57.7761V49.9033C61.4242 49.7129 61.2699 49.5587 61.0798 49.5587H53.2067ZM68.5592 49.9033C68.5592 47.9193 70.1674 46.3111 72.1512 46.3111H80.0243C82.0081 46.3111 83.6163 47.9193 83.6163 49.9033V57.7761C83.6163 59.7601 82.0081 61.3683 80.0243 61.3683H72.1512C70.1674 61.3683 68.5592 59.7601 68.5592 57.7761V49.9033ZM72.1512 49.5587C71.9609 49.5587 71.8068 49.7129 71.8068 49.9033V57.7761C71.8068 57.9664 71.9609 58.1207 72.1512 58.1207H80.0243C80.2144 58.1207 80.3687 57.9664 80.3687 57.7761V49.9033C80.3687 49.7129 80.2144 49.5587 80.0243 49.5587H72.1512Z" fill="black"/>
</svg>
