<svg width="132" height="88" viewBox="0 0 132 88" fill="none" xmlns="http://www.w3.org/2000/svg">
<path d="M95.7079 10.0742H56.6805C55.5582 10.0778 54.4829 10.5251 53.6893 11.3187C52.8958 12.1123 52.4483 13.1876 52.4448 14.3099V30.4258H36.2923C35.1701 30.4294 34.0947 30.8768 33.3012 31.6704C32.5076 32.4639 32.0602 33.5393 32.0566 34.6615V73.6902C32.0599 74.8127 32.5071 75.8883 33.3007 76.6822C34.0943 77.476 35.1698 77.9236 36.2923 77.9271H75.3198C76.4424 77.924 77.518 77.4764 78.3118 76.6825C79.1055 75.8887 79.5526 74.8128 79.5555 73.6902V57.5743H95.7079C96.8306 57.5714 97.9063 57.1243 98.7002 56.3306C99.4941 55.5368 99.9417 54.4612 99.9449 53.3386V14.3099C99.9413 13.1874 99.4938 12.1119 98.7 11.3183C97.9061 10.5247 96.8304 10.0774 95.7079 10.0742ZM59.864 50.7933C59.6879 50.7927 59.5191 50.7224 59.3945 50.5978C59.2699 50.4732 59.1996 50.3044 59.199 50.1283V37.8815C59.199 37.7052 59.269 37.536 59.3938 37.4113C59.5185 37.2866 59.6876 37.2166 59.864 37.2166H72.1059C72.282 37.2172 72.4508 37.2875 72.5754 37.4121C72.6999 37.5367 72.7702 37.7054 72.7708 37.8815V50.1283C72.7702 50.3044 72.6999 50.4732 72.5754 50.5978C72.4508 50.7224 72.282 50.7927 72.1059 50.7933H59.864ZM59.2295 29.7645V17.5251C59.2295 17.3487 59.2995 17.1796 59.4242 17.0549C59.5489 16.9302 59.7181 16.8601 59.8944 16.8601H72.1363C72.3124 16.8608 72.4812 16.931 72.6058 17.0556C72.7304 17.1801 72.8007 17.3489 72.8013 17.5251V29.7645C72.8004 29.9306 72.7375 30.0904 72.6248 30.2126C72.5121 30.3347 72.3578 30.4104 72.1923 30.4246H59.8421C59.6758 30.4112 59.5208 30.336 59.4073 30.2138C59.2939 30.0915 59.2304 29.9313 59.2295 29.7645ZM52.4095 70.4787C52.4089 70.6548 52.3386 70.8236 52.214 70.9482C52.0894 71.0728 51.9206 71.1431 51.7445 71.1437H39.5075C39.3313 71.1431 39.1626 71.0728 39.038 70.9482C38.9134 70.8236 38.8432 70.6548 38.8425 70.4787V37.8767C38.8425 37.7003 38.9126 37.5312 39.0373 37.4065C39.162 37.2818 39.3311 37.2117 39.5075 37.2117H51.7482C51.9243 37.2123 52.0931 37.2826 52.2177 37.4072C52.3422 37.5318 52.4125 37.7006 52.4131 37.8767L52.4095 70.4787ZM72.7708 58.2344V70.4751C72.7702 70.6512 72.6999 70.82 72.5754 70.9445C72.4508 71.0691 72.282 71.1394 72.1059 71.14H59.864C59.6879 71.1394 59.5191 71.0691 59.3945 70.9445C59.2699 70.82 59.1996 70.6512 59.199 70.4751V58.2344C59.1994 58.068 59.2621 57.908 59.3749 57.7857C59.4877 57.6634 59.6422 57.5881 59.808 57.5743H72.1582C72.3245 57.5877 72.4795 57.663 72.593 57.7851C72.7064 57.9074 72.7698 58.0677 72.7708 58.2344ZM93.159 50.1234C93.1584 50.2995 93.0881 50.4683 92.9635 50.5929C92.8389 50.7175 92.6701 50.7878 92.494 50.7884H80.2521C80.076 50.7878 79.9072 50.7175 79.7826 50.5929C79.658 50.4683 79.5878 50.2995 79.5872 50.1234V17.5251C79.5872 17.4377 79.6043 17.3513 79.6378 17.2706C79.6712 17.1899 79.7202 17.1166 79.7819 17.0549C79.8437 16.9931 79.917 16.9442 79.9977 16.9107C80.0783 16.8773 80.1648 16.8601 80.2521 16.8601H92.4928C92.6689 16.8608 92.8377 16.931 92.9623 17.0556C93.0869 17.1801 93.1571 17.3489 93.1578 17.5251L93.159 50.1234Z" fill="#FF254D"/>
</svg>
