<svg width="132" height="88" viewBox="0 0 132 88" fill="none" xmlns="http://www.w3.org/2000/svg">
<mask id="mask0_2056_25840" style="mask-type:luminance" maskUnits="userSpaceOnUse" x="32" y="10" width="68" height="68">
<path d="M32.0156 10.0156H99.9834V77.9833H32.0156V10.0156Z" fill="white"/>
</mask>
<g mask="url(#mask0_2056_25840)">
<path d="M91.4873 52.4959C96.1791 52.4959 99.9832 48.6921 99.9832 44C99.9832 39.3077 96.1791 35.5039 91.4873 35.5039C86.7956 35.5039 82.9912 39.3077 82.9912 44C82.9912 48.6921 86.7956 52.4959 91.4873 52.4959Z" fill="#1FA7F3"/>
<path d="M40.5116 52.4959C45.2033 52.4959 49.0076 48.6921 49.0076 44C49.0076 39.3077 45.2033 35.5039 40.5116 35.5039C35.8198 35.5039 32.0156 39.3077 32.0156 44C32.0156 48.6921 35.8198 52.4959 40.5116 52.4959Z" fill="#FF4752"/>
<path d="M65.9991 52.4959C70.6908 52.4959 74.4949 48.6921 74.4949 44C74.4949 39.3077 70.6908 35.5039 65.9991 35.5039C61.3073 35.5039 57.5029 39.3077 57.5029 44C57.5029 48.6921 61.3073 52.4959 65.9991 52.4959Z" fill="#FDD500"/>
</g>
</svg>
