<svg width="132" height="88" viewBox="0 0 132 88" fill="none" xmlns="http://www.w3.org/2000/svg">
<mask id="mask0_2056_21372" style="mask-type:luminance" maskUnits="userSpaceOnUse" x="36" y="20" width="60" height="48">
<path d="M36.0137 20.2617H95.9851V67.7392H36.0137V20.2617Z" fill="white"/>
</mask>
<g mask="url(#mask0_2056_21372)">
<path d="M94.4837 48.7487C94.4837 44.5533 91.0825 41.1523 86.8873 41.1523C82.6914 41.1523 79.291 44.5533 79.291 48.7487V60.1433C79.291 64.3392 82.6914 67.7396 86.8873 67.7396C91.0825 67.7396 94.4837 64.3392 94.4837 60.1433V48.7487Z" fill="#0EF275"/>
<path d="M73.5953 27.8581C73.5953 23.6627 70.1946 20.2617 65.9987 20.2617C61.8038 20.2617 58.4023 23.6627 58.4023 27.8581V60.1428C58.4023 64.338 61.8038 67.7392 65.9987 67.7392C70.1946 67.7392 73.5953 64.338 73.5953 60.1428V27.8581Z" fill="#0EF275"/>
<path d="M52.7046 27.8581C52.7046 23.6627 49.3031 20.2617 45.108 20.2617C40.9131 20.2617 37.5117 23.6627 37.5117 27.8581V60.1428C37.5117 64.338 40.9131 67.7392 45.108 67.7392C49.3031 67.7392 52.7046 64.338 52.7046 60.1428V27.8581Z" fill="#0EF275"/>
</g>
</svg>
