<svg width="132" height="88" viewBox="0 0 132 88" fill="none" xmlns="http://www.w3.org/2000/svg">
<g clip-path="url(#clip0_2233_6816)">
<path d="M85.3593 58.9881C85.3593 58.9881 88.1932 55.5674 92.1146 59.8883C96.036 64.1928 102.577 59.3482 102.923 67.2861C103.269 75.2241 92.8561 72.6872 91.9004 71.3942C90.9283 70.0849 82.9372 62.4088 85.3593 58.9881Z" fill="#425356"/>
<path d="M85.459 59.3807C85.459 59.3807 89.5452 59.6917 91.2917 62.4577C93.0546 65.2237 100.584 65.5347 101.062 64.4708C101.524 63.3906 99.8759 62.7196 98.3271 62.6214C96.7783 62.5232 93.8785 62.3595 92.0825 60.6246C90.2536 58.8733 88.4577 56.9257 85.459 59.3807Z" fill="#627377"/>
<path d="M55.5857 61.2316C55.5857 61.2316 47.3969 60.004 43.9368 63.6866C43.9368 63.6866 39.933 66.4199 41.1028 73.474C41.1028 73.474 47.5781 76.0764 54.1193 75.6017C54.1193 75.6017 54.3994 72.3938 53.4273 70.3316C53.4273 70.3316 58.1725 70.6098 60.3803 70.0533C62.6211 69.5132 55.5857 61.2316 55.5857 61.2316Z" fill="#DCDCDB"/>
<path d="M56.1131 64.2924C56.1131 64.2924 52.5213 63.9814 51.1702 66.3382C51.1702 66.3382 53.1474 74.5544 45.9307 73.4742C39.1588 72.3449 41.5974 67.0093 41.5974 67.0093C41.5974 67.0093 42.5859 63.7195 44.2336 63.3595C44.2336 63.3595 46.4085 59.9551 55.6024 61.2318L56.1131 64.2924Z" fill="#F2F2F2"/>
<path d="M74.0566 71.1648C74.0566 71.1648 84.5851 80.5431 89.0008 78.4972C93.4165 76.4514 92.3126 76.1731 93.2023 74.1927C94.092 72.2123 94.1744 61.2629 85.4254 59.8226C76.6764 58.3659 74.0566 71.1648 74.0566 71.1648Z" fill="#DCDCDB"/>
<path d="M82.6562 65.3529C82.6562 65.3529 89.6093 69.8047 90.0872 74.0437C90.0872 74.0437 92.1632 67.5788 84.6664 62.6523L82.6562 65.3529Z" fill="#C7C7C7"/>
<path d="M41.2179 31.0154C41.531 29.9515 42.6679 26.7763 41.4651 24.7468C40.2623 22.7173 37.1647 23.7157 38.4004 25.1887C38.4004 25.1887 38.4664 25.6306 38.4004 25.9416C38.4004 25.9416 38.3016 25.6797 38.1368 25.2706C37.9885 25.0087 37.8073 24.7632 37.6755 24.5013C37.4942 24.174 37.3459 23.8303 37.1318 23.5357C36.6869 22.9137 36.1102 22.4227 35.5994 21.8499C35.1711 21.3589 35.0392 20.7042 34.5449 20.2623C34.1495 19.9022 33.6717 19.6731 33.1939 19.4439C32.782 19.3294 32.3206 19.2803 31.8263 19.3457C29.569 19.6076 29.0088 22.2918 30.9696 22.3572C30.9696 22.3572 32.5348 23.6175 32.6666 25.647C31.5462 24.845 28.8935 22.4227 26.6362 23.0447C26.8504 23.3556 26.9493 23.8303 27.0317 24.1576C27.1305 24.6159 27.3777 25.0414 27.526 25.4833C27.5424 25.5161 27.5589 25.5488 27.5589 25.5815C27.5754 25.5652 27.6084 25.5488 27.6413 25.5652C28.4981 25.6961 28.7123 26.4981 28.7617 27.251C28.7617 27.3164 28.7123 27.3655 28.6464 27.3655C28.6299 27.3655 28.6134 27.3655 28.5969 27.3655C28.5969 27.3819 28.5805 27.3819 28.5805 27.3983C28.5805 27.3983 25.7959 27.6765 24.8238 29.1332C23.8517 30.6062 24.7579 31.0808 24.7579 31.0808C24.7579 31.0808 24 31.6864 24 32.5375C24 33.3886 24.6591 33.6832 25.6476 34.256C26.7021 34.8779 28.3827 35.1889 28.8276 34.4688C28.877 34.8616 28.9924 35.058 28.9924 35.058C28.9924 35.058 29.8162 37.7585 32.5019 37.7258C35.1875 37.6931 41.5639 33.454 41.5639 33.454C41.5639 33.454 40.9049 32.0792 41.2179 31.0154Z" fill="#627377"/>
<path d="M32.5681 40.2494L31.8926 38.6291C31.8926 38.6291 34.4464 33.0316 42.2563 33.3917L43.0636 34.4882L32.5681 40.2494Z" fill="#A9B3B5"/>
<path d="M32.5682 40.0199C32.5682 40.0199 34.5289 33.5877 42.9649 34.4224C42.9649 34.4224 43.7557 35.208 42.6189 35.6827C41.482 36.1573 32.4199 42.2294 32.5682 40.0199Z" fill="#8D9699"/>
<path d="M33.2109 39.8731C33.2109 39.8731 35.1716 34.3084 42.4378 34.8812L47.875 42.1972C47.875 42.1972 53.4111 44.2758 55.0258 44.2758C55.0258 44.2758 58.387 47.6802 56.2615 53.916C56.2615 53.916 48.8966 54.8489 43.9536 52.5411C43.9536 52.5411 36.0943 46.2071 33.2109 39.8731Z" fill="#DCDCDB"/>
<path d="M56.8051 49.708C56.8051 49.7244 56.8216 49.708 56.8381 49.6917C56.904 49.6589 56.9863 49.6426 57.0522 49.6098C57.0028 49.2825 56.9369 49.0042 56.8545 48.8078C56.6898 48.415 56.5744 47.9568 56.4426 47.4821C56.1955 46.5819 55.833 45.2399 55.3222 45.2235C53.5098 45.1417 48.5174 43.374 47.9572 43.1776C47.8254 43.1285 47.7101 43.0467 47.5947 42.9485C45.7329 41.2136 43.0143 37.1873 42.1245 35.8125C41.9927 35.8125 41.7621 35.8125 41.7621 35.8125H41.7126C38.7139 35.8125 36.7862 36.9746 35.6328 38.1039C36.2919 39.1186 40.9053 46.14 45.4528 49.0697C45.4528 49.0697 52.0763 50.0845 56.7062 49.5935C56.7227 49.5607 56.7392 49.5771 56.8051 49.708Z" fill="#F2F2F2"/>
<path d="M55.7024 53.9323C55.1916 52.623 53.2145 46.6981 58.3881 44.0958L57.7949 43.9648C57.7949 43.9648 52.2753 45.9452 55.2246 53.9323H55.7024Z" fill="#DCDCDB"/>
<path d="M83.7778 33.4057C83.7778 33.4057 87.0072 38.0539 87.2873 50.1C87.4686 58.1034 83.6295 70.8369 69.3609 72.2608C55.1087 73.6847 53.7247 59.7237 56.7729 51.5239C56.7729 51.5239 56.4928 48.2341 55.1252 44.6825C53.8071 41.2618 81.7842 30.1814 83.7778 33.4057Z" fill="#048CB9"/>
<path d="M53.0332 43.7656C53.0332 43.7656 47.3982 45.9752 50.5617 54.0113H51.0395C51.0395 54.0113 47.7937 46.8426 53.6264 43.8966L53.0332 43.7656Z" fill="#DCDCDB"/>
<path d="M82.0482 48.253L79.8074 39.6768L78.8353 37.1562L78.4398 37.4509C78.4398 37.4509 80.3676 39.9386 81.4385 47.3856C82.5095 54.7507 81.8175 59.0388 78.0609 63.9653C74.9798 67.9916 71.4868 69.2027 69.6084 69.5628C69.2295 69.6773 68.8505 69.8083 68.4551 69.8901L68.8176 70.152C73.2662 69.6937 76.7592 66.8459 78.4893 64.2435C80.2193 61.6575 81.9987 58.777 82.3118 54.9798C82.6249 51.1663 82.0482 48.253 82.0482 48.253Z" fill="#1DACE3"/>
<path d="M79.5758 36.7461C79.5758 36.7461 76.4452 40.0849 78.3565 43.7839C80.2678 47.4828 80.9598 47.6792 82.8216 47.9247C84.6835 48.2029 79.5758 36.7461 79.5758 36.7461Z" fill="#0C6788"/>
<path d="M52.0938 43.0456L53.1977 44.7478C53.1977 44.7478 60.299 47.1537 70.0202 42.44C78.5385 38.3319 84.3877 32.6526 84.3877 32.6526L84.0581 30.4922L52.0938 43.0456Z" fill="#626D70"/>
<path d="M78.8346 37.1559C78.8346 37.1559 82.7725 45.9777 82.3606 53.3755C81.9487 60.757 79.5431 68.1712 73.4633 71.281L73.002 71.5756C73.002 71.5756 88.4075 69.006 87.353 47.2707C86.3479 35.7647 83.86 33.1133 83.86 33.1133C83.86 33.1133 81.2072 35.421 78.8346 37.1559Z" fill="#017499"/>
<path d="M52.5541 41.7689C52.5541 41.7689 51.0053 43.3074 53.2791 43.6674C55.5529 44.0275 62.5224 45.0095 70.1675 40.9505C77.8126 36.8915 84.0737 31.8669 84.0737 30.6885C84.0737 29.51 82.4754 29.4609 82.4754 29.4609L52.5541 41.7689Z" fill="#8D9699"/>
<g opacity="0.2">
<path d="M82.1616 30.5438C80.9258 27.3686 78.6521 21.7711 72.2592 11.3945C65.8663 1.01785 61.3188 -1.02802 49.7358 5.73153C38.1529 12.4911 40.9539 18.3504 45.1719 26.0593C49.4063 33.7517 53.6408 42.1316 53.6408 42.1316C53.6408 42.1316 61.0222 44.1283 70.1667 39.1037C79.3111 34.0791 82.1616 30.5438 82.1616 30.5438Z" stroke="white" stroke-width="3" stroke-miterlimit="10"/>
<path d="M60.5449 1.81835C65.1089 1.81835 68.3218 5.059 72.2432 11.393C78.6361 21.7696 80.9098 27.3508 82.1456 30.5423C82.1456 30.5423 79.2951 34.0776 70.1507 39.1022C65.0759 41.901 60.5284 42.5229 57.4968 42.5229C55.0912 42.5229 53.6413 42.1301 53.6413 42.1301C53.6413 42.1301 49.4068 33.7666 45.1723 26.0578C40.9379 18.3489 38.1534 12.506 49.7363 5.73004C54.2179 3.11133 57.6615 1.81835 60.5449 1.81835ZM60.5449 1C57.5462 1 54.0861 2.24389 49.3079 5.04263C43.6895 8.33239 40.9544 11.6549 40.6907 15.5011C40.4601 18.9218 42.1736 22.3425 44.4474 26.4506C48.6324 34.0448 52.8504 42.4083 52.8998 42.4902L53.0646 42.8175L53.4271 42.9157C53.493 42.9321 55.0088 43.3413 57.5132 43.3413C60.5449 43.3413 65.2901 42.7357 70.5791 39.8224C79.7565 34.7813 82.6893 31.197 82.8211 31.0497L83.1177 30.6732L82.9529 30.2313C81.882 27.4981 79.6741 21.786 72.9847 10.9511C70.7933 7.41584 69.0138 5.14083 67.2179 3.58598C65.1418 1.85108 62.967 1 60.5449 1Z" fill="white"/>
</g>
<path d="M74.7162 36.0889L67.8125 40.0825L60.8594 42.2756L57.9102 37.9057L73.052 30.5078L74.7162 36.0889Z" fill="#676767"/>
<path d="M50.1652 28.151C50.1652 28.151 47.5784 30.115 44.1348 27.9219C44.1348 27.9219 47.1994 33.9285 51.8787 31.1953C51.8952 31.1953 50.9231 28.9039 50.1652 28.151Z" fill="#425356"/>
<path opacity="0.5" d="M63.2475 2.8321C63.2475 2.8321 63.6429 5.79451 63.5606 7.61124L52.5543 34.1911L51.0219 35.6478L47.1335 28.1681C47.1335 28.1681 43.7064 21.9487 43.1297 19.7555C42.553 17.5623 41.3667 13.6997 46.0955 9.32977C49.918 5.89272 54.4985 3.96142 56.1626 3.33948C57.8432 2.7339 61.122 1.89918 63.2475 2.8321Z" fill="#718587"/>
<path d="M48.5999 31.2475C49.7038 31.2639 50.5935 30.8056 51.4338 30.2164C51.0878 29.4963 50.5936 28.5797 50.1652 28.1705C50.1652 28.1705 47.5784 30.1346 44.1348 27.9414C44.1348 27.9414 44.7938 29.1689 45.9142 30.3637C47.5948 31.9022 47.5619 31.2312 48.5999 31.2475Z" fill="#627377"/>
<path d="M48.7985 28.6761C47.8594 28.938 48.1395 30.0345 48.502 30.6729C48.848 31.2784 49.4082 31.7203 50.0508 31.8513C50.6274 31.7858 51.2371 31.573 51.8961 31.1966C51.8961 31.1966 50.9405 28.9052 50.1826 28.1523C50.1826 28.1523 49.6883 28.496 48.848 28.6761C48.815 28.6761 48.815 28.6761 48.7985 28.6761Z" fill="#717272"/>
<path d="M48.7985 28.6761C47.8594 28.938 48.1395 30.0345 48.502 30.6729C48.6173 30.8693 48.7656 31.0657 48.9304 31.2293C49.886 31.1639 50.6933 30.7383 51.4513 30.1982C51.1052 29.4781 50.6109 28.5615 50.1826 28.1523C50.1826 28.1523 49.6883 28.496 48.848 28.6761C48.815 28.6761 48.815 28.6761 48.7985 28.6761Z" fill="#909A9D"/>
<path d="M75.3242 17.8281C75.4231 17.9918 75.5219 18.1718 75.6208 18.3355C75.5055 18.1718 75.4066 17.9918 75.3242 17.8281Z" fill="#E8F6FD"/>
<path d="M74.8965 17.1055C75.0118 17.2855 75.1272 17.4819 75.2425 17.6783C75.1107 17.4819 75.0118 17.2855 74.8965 17.1055Z" fill="#E8F6FD"/>
<path d="M62.0117 41.8207C59.6885 40.4786 62.2259 39.0056 60.8253 37.3034C60.8253 37.3034 69.8215 36.3869 71.3703 32.4261C71.3703 32.4261 71.6669 32.4915 72.4083 33.0317C72.4578 32.9335 72.8697 32.9007 72.9356 32.8025C74.715 29.48 73.7759 25.5683 73.1827 22.0658C73.1662 21.984 73.7594 21.7876 73.1827 21.9021C73.3145 20.691 73.1827 19.6271 73.7923 18.5633C74.1054 18.0395 74.4844 17.5485 74.8963 17.1066C67.0205 5.81345 65.274 5.87891 65.274 5.87891C65.6859 7.10643 65.62 9.16867 65.62 9.16867C63.2804 5.81345 60.5947 6.15715 60.5947 6.15715C60.9407 6.91003 60.9407 8.00662 60.9407 8.00662C58.5351 5.81345 53.6416 6.43539 53.6416 6.43539C55.4375 9.1032 55.8495 13.2113 55.8495 13.2113C52.686 10.4126 47.5783 11.4273 47.5783 11.4273L47.8584 12.4584C46.6885 12.2457 46.0295 12.5239 46.0295 12.5239C48.5009 14.5043 49.0282 19.0216 49.0282 19.0216C45.8647 18.2032 42.9648 19.4307 42.9648 19.4307C42.9648 19.4307 45.4363 22.4423 48.0561 27.0905C52.2411 33.8991 55.0092 41.1497 55.2728 42.3281C56.6733 42.4426 59.4743 42.2299 62.0117 41.8207Z" fill="#F3FAFD"/>
<path d="M75.6055 18.3359C75.6714 18.4505 75.7208 18.5487 75.7867 18.6633C75.7208 18.5651 75.6714 18.4505 75.6055 18.3359Z" fill="#D2ECF9"/>
<path d="M75.2266 17.6797C75.2595 17.7288 75.276 17.7779 75.3089 17.827C75.2925 17.7779 75.2595 17.7288 75.2266 17.6797Z" fill="#D2ECF9"/>
<path d="M72.7048 21.9828C72.7707 21.9501 72.8531 21.9501 72.8695 22.0483C73.4627 25.5672 74.3524 29.4298 72.573 32.7523C72.5235 32.8505 72.4576 32.9487 72.4082 33.0469C73.1661 33.587 74.4842 35.4528 73.4462 36.9586C76.3296 35.1418 79.8391 32.7195 81.2726 31.3774C81.4373 31.181 81.5032 31.0665 81.5032 31.0665C81.5032 31.0665 81.3055 29.4298 76.412 19.8387C76.2802 19.5605 76.1319 19.2986 76.0001 19.0531C75.9342 18.9222 75.8518 18.7913 75.7859 18.6603C75.72 18.5458 75.6705 18.4312 75.6046 18.333C75.5058 18.153 75.4069 17.9893 75.3081 17.8256C75.2751 17.7765 75.2586 17.7274 75.2257 17.6783C75.1103 17.4819 74.995 17.2855 74.8797 17.1055C74.4678 17.5474 74.0888 18.0384 73.7757 18.5621C73.1826 19.626 72.8531 20.7717 72.7048 21.9828Z" fill="#DDEAF0"/>
<path d="M70.1357 12.096C70.9925 13.3726 71.4044 14.9438 71.668 16.4659C72.393 16.155 73.085 15.7458 73.7441 15.3202C70.8607 11.0976 67.0216 6.84218 65.8848 6.1875C67.0711 7.12042 69.3283 10.8684 70.1357 12.096Z" fill="#DDEAF0"/>
<path d="M70.4323 16.154C70.4323 16.154 69.2624 20.0494 74.0077 23.2082L73.5298 20.8186C73.5298 20.8186 80.4829 17.0542 75.4576 7.41409C75.4576 7.39773 75.1775 14.0918 70.4323 16.154Z" fill="#425356"/>
<path d="M72.9696 22.2769C72.7059 21.7859 72.3764 21.164 72.4423 20.5748C72.5082 19.9692 72.9696 19.6582 73.4144 19.2654C74.1888 18.5944 74.8149 17.8578 75.4081 17.0231C77.3852 14.2735 76.891 10.3454 75.4575 7.46484C75.4081 8.25046 74.8644 14.2244 70.4322 16.1393C70.4322 16.1393 69.4106 19.5436 73.1508 22.5552C73.0849 22.4733 73.0355 22.3751 72.9696 22.2769Z" fill="#627377"/>
<path d="M75.4576 19.1188C74.6008 19.217 73.7605 19.037 73.2003 18.2514C72.4094 17.1548 72.047 15.78 72.6401 14.6016C72.0305 15.2399 71.3055 15.78 70.4323 16.1564C70.4323 16.1564 69.2624 20.0518 74.0077 23.2106L73.5298 20.821C73.5298 20.8046 74.502 20.2809 75.4576 19.1188Z" fill="#717272"/>
<path d="M73.4144 19.2669C73.5792 19.1359 73.7275 18.9886 73.8758 18.8413C73.6286 18.694 73.3979 18.514 73.2167 18.2358C72.4258 17.1228 72.0634 15.7644 72.6565 14.5859C72.0469 15.2242 71.3219 15.7644 70.4322 16.1408C70.4322 16.1408 69.4106 19.5451 73.1508 22.5566C73.1014 22.4584 73.0355 22.3602 72.986 22.262C72.7224 21.771 72.3929 21.1491 72.4588 20.5599C72.5082 19.9707 72.9696 19.6597 73.4144 19.2669Z" fill="#909A9D"/>
<path d="M53.0828 34.701C53.3794 36.0922 54.4998 37.0251 55.6037 36.796C56.7076 36.5668 57.6303 35.1756 57.3502 33.7844C57.0536 32.3933 55.6531 31.5585 54.5492 31.7877C53.4453 32.0004 52.7862 33.3098 53.0828 34.701Z" fill="#DDEAF0"/>
<path d="M60.8088 31.0169C61.0889 32.3753 62.3576 33.2919 63.445 33.0628C64.5324 32.8336 65.4057 31.4588 65.1256 30.084C64.8455 28.7255 63.4944 27.8744 62.407 28.1036C61.3195 28.3327 60.5287 29.6421 60.8088 31.0169Z" fill="#DDEAF0"/>
<path d="M60.5946 30.5762C60.8747 31.9183 62.1929 32.7367 63.2638 32.5075C64.3348 32.2784 65.1421 30.9527 64.862 29.6106C64.5819 28.2685 63.3133 27.4174 62.2423 27.6466C61.1713 27.8593 60.3145 29.2178 60.5946 30.5762Z" fill="white"/>
<path d="M52.9335 34.2083C53.2136 35.5667 54.5482 36.4342 55.6356 36.2214C56.7231 35.9923 57.5799 34.6502 57.2998 33.2754C57.0197 31.9169 55.6851 31.0658 54.5976 31.2786C53.5102 31.5241 52.6369 32.8498 52.9335 34.2083Z" fill="white"/>
<path d="M60.8748 28.3983C60.8913 28.4802 60.9078 28.562 60.9243 28.6438C61.1055 28.6766 61.1055 28.4474 61.3856 28.3165C61.6327 28.2019 61.7975 28.2674 61.9623 28.3329C62.2094 28.5293 62.4236 28.8239 62.5719 29.2167C62.852 30.0187 62.6543 30.8697 62.1435 31.0989C61.6327 31.328 60.9902 30.8697 60.7101 30.0678C60.4959 29.4294 60.5783 28.7584 60.8748 28.3983Z" fill="#425356"/>
<path opacity="0.6" d="M62.0955 28.9878C62.2273 29.3806 62.079 29.8225 61.7495 29.9862C61.42 30.1499 61.041 29.9699 60.8927 29.577C60.7444 29.1842 60.9092 28.7423 61.2387 28.5787C61.5683 28.4314 61.9472 28.6114 62.0955 28.9878Z" fill="white"/>
<path d="M55.3059 27.4499C55.3059 27.4499 51.6317 26.9426 50.4948 28.8411C50.4948 28.8411 49.8193 26.7298 51.8459 25.9605C53.856 25.1913 55.3059 27.4499 55.3059 27.4499Z" fill="#BDDAE3"/>
<path d="M58.3056 24.3247C58.3056 24.3247 59.0306 21.2968 61.5186 20.4293C64.0065 19.5619 64.8303 20.2329 64.8303 20.2329C64.8303 20.2329 63.7923 18.4326 61.1066 18.8417C58.4045 19.2509 57.4653 22.8844 58.3056 24.3247Z" fill="#BDDAE3"/>
<path d="M53.8397 31.4756C53.8562 31.5575 53.8726 31.6393 53.8891 31.7211C54.0374 32.163 54.2022 31.6557 54.4823 31.5247C54.7294 31.4102 55.0095 31.7866 54.9271 31.4102C55.1743 31.6066 55.3885 31.9012 55.5368 32.294C55.8169 33.096 55.6191 33.947 55.1084 34.1762C54.5976 34.4053 53.955 33.947 53.6749 33.1451C53.4607 32.5067 53.5431 31.8357 53.8397 31.4756Z" fill="#425356"/>
<path opacity="0.6" d="M55.0432 32.2444C55.175 32.6209 55.0103 33.0464 54.6807 33.2101C54.3512 33.3737 53.9722 33.2101 53.8404 32.8336C53.7086 32.4572 53.8734 32.0317 54.2029 31.868C54.5324 31.7043 54.9114 31.868 55.0432 32.2444Z" fill="white"/>
<path d="M67.894 26.499C60.3972 26.7117 59.0461 28.4957 59.0461 28.4957C58.2553 29.1013 58.3376 29.6742 57.9093 29.8378C57.2172 30.0833 56.5088 29.756 54.6634 30.5252C50.6267 32.1947 50.3301 34.3224 50.3301 34.3224C50.4289 34.7643 50.8408 35.4517 51.3681 35.6972C51.8953 35.9427 52.3237 37.3012 52.9828 37.8576C53.6418 38.3977 54.7458 38.2668 56.5911 37.5794C58.453 36.892 58.7331 36.0082 58.8319 35.3208C58.9308 34.6333 58.3541 32.3747 58.3541 32.3747C58.7331 32.0637 59.2768 32.0637 59.2768 32.0637C59.2768 32.0637 59.7546 32.702 60.2819 33.4222C60.7926 34.1423 61.2869 35.0425 62.0449 34.977C62.8028 34.9116 64.3516 34.6006 66.9713 33.4713C69.5911 32.342 69.1792 30.9344 69.1792 30.9344L68.4213 27.6119C69.2121 27.481 71.9307 27.5465 71.9307 27.5465L71.9637 26.5808C71.2223 26.368 69.6735 26.3517 67.894 26.499ZM55.9486 36.9411C54.268 37.4812 53.3617 37.4812 52.851 36.5319C52.3402 35.5663 51.6811 34.2405 51.6811 34.2405C51.6811 34.2405 53.7078 31.1963 57.2667 31.229C57.2667 31.229 57.9916 33.6513 58.0246 34.6824C58.0575 35.7136 57.6456 36.401 55.9486 36.9411ZM65.2578 33.2585C62.259 34.2896 62.1602 34.306 61.6165 33.7168C61.0892 33.1276 59.7382 31.4091 59.3921 30.4925C59.0461 29.576 61.1881 28.5776 62.7698 28.1684C64.3516 27.7592 66.3123 27.5956 67.3503 27.7592L68.24 31.2781C68.24 31.2781 68.24 32.2274 65.2578 33.2585Z" fill="#717272"/>
<path d="M58.0075 34.9141C57.9746 35.8142 57.5132 36.4362 55.948 36.9436C54.6134 37.3855 53.7731 37.4673 53.2129 37.009C53.3447 37.2054 53.493 37.3855 53.7237 37.5C53.9379 37.5982 54.1685 37.6637 54.3992 37.6801C54.877 37.6801 55.3713 37.5164 55.8162 37.3527C56.3929 37.1236 57.4144 36.7799 57.7604 36.2234C57.9746 35.8961 58.0405 35.4051 58.0075 34.9141Z" fill="#737F82"/>
<path d="M61.8965 33.9807C62.0118 34.128 62.1272 34.2262 62.259 34.308C63.643 34.1771 64.9776 33.8334 66.2463 33.2278C67.0372 32.835 68.0257 32.3276 68.5859 31.5748C68.4377 31.0019 68.2564 30.4291 68.0587 29.8726C67.9104 29.4471 67.7621 28.9888 67.5809 28.5469L68.2729 31.2965C68.2729 31.2965 68.2729 32.2622 65.2742 33.2769C62.8192 34.0953 62.2919 34.2589 61.8965 33.9807Z" fill="#737F82"/>
<path d="M53.4277 41.7206C53.4277 41.7206 58.5519 43.7174 67.7293 39.822C76.8902 35.9267 81.965 30.1328 81.965 30.1328L82.1792 30.542C82.1792 30.542 77.1209 36.3359 67.9435 40.2312C58.7826 44.1265 53.6419 42.1298 53.6419 42.1298L53.4277 41.7206Z" fill="#425356"/>
<path d="M56.7396 51.3282C56.7396 51.3282 61.699 44.6505 72.9524 46.5C72.9524 46.5 66.4937 42.4083 56.5254 49.5933L56.7396 51.3282Z" fill="#017499"/>
<path d="M58.1564 53.2266C58.1564 53.2266 62.2755 48.6111 68.2894 49.0366C70.7115 49.2167 72.0296 49.0857 72.8204 49.0039C72.9523 49.3476 73.0511 49.7077 73.0511 49.7077L72.1943 51.6717C72.1943 51.6717 65.9003 48.8402 59.5239 53.8158C59.5239 53.8158 59.0296 55.1579 59.1614 55.8453C60.0512 55.3215 67.3008 53.0793 70.4973 55.2724C73.8585 57.5638 74.3857 61.9502 69.8382 64.0779C65.3072 66.2056 60.4631 65.469 58.2388 64.1924C58.2388 64.1924 57.9422 63.816 57.8927 63.6523C57.7445 63.2595 57.7445 62.7685 57.7445 62.2611C57.7445 62.2611 61.4846 64.0288 64.7305 63.4723C67.9764 62.9322 70.8597 61.8683 70.7938 59.626C70.7279 57.3838 67.3832 54.405 57.4149 58.464C57.4149 58.464 57.2007 58.2185 57.0689 57.9239C57.0524 57.0564 57.3985 55.1579 58.1564 53.2266Z" fill="#017499"/>
<path d="M57.7946 52.6708C57.7946 52.6708 61.3205 48.7264 67.8123 48.5955C71.19 48.5627 72.8211 49.0047 72.8211 49.0047L72.0467 51.0505C72.0467 51.0505 65.7198 48.6773 59.1786 53.2764C59.1786 53.2764 58.6843 54.6185 58.8161 55.3059C59.7058 54.7822 66.9555 52.5399 70.1519 54.7331C73.5131 57.0245 74.0404 61.4108 69.4929 63.5385C64.9618 65.6662 60.1178 64.9297 57.8934 63.6531C57.8934 63.6531 57.3991 62.4419 57.3991 61.7054C57.3991 61.7054 61.1393 63.473 64.3852 62.9165C67.631 62.3764 70.5144 61.3126 70.4485 59.0703C70.3991 56.8281 67.0379 53.8493 57.0696 57.9083C57.0861 57.9246 56.7895 55.2568 57.7946 52.6708Z" fill="#F2F2F2"/>
<path d="M66.1473 44.0273L64.0878 44.5838L64.2855 46.8916C64.2855 46.8916 58.0903 51.3597 60.1499 60.3288C60.7925 63.1439 61.6657 65.3044 62.6708 66.9738C63.4287 66.9738 64.1866 66.941 64.9445 66.8919C64.994 66.7774 65.0763 66.6792 65.1422 66.581C63.9065 64.8624 62.8355 62.6365 62.2753 59.7232C60.6277 50.5905 66.6251 46.5315 66.6251 46.5315L66.1473 44.0273Z" fill="#627377"/>
<path d="M65.1927 70.1663C65.1927 70.1663 59.0469 71.1974 56.7402 65.8945C56.7402 65.8945 58.981 73.1123 68.8175 72.3267L65.1927 70.1663Z" fill="#017499"/>
<path d="M66.1473 44.0273L64.0878 44.5838L64.2855 46.8916C64.2855 46.8916 58.0903 51.3597 60.1499 60.3288C60.8089 63.193 61.6987 65.3698 62.7202 67.0556C62.7861 67.0556 62.8685 67.0556 62.9344 67.0556C63.4781 67.072 64.0219 67.072 64.5491 67.0393C64.648 67.0393 64.7633 67.0229 64.8621 67.0229C64.8951 66.9738 64.9445 66.9247 64.9775 66.8592C64.9775 66.8592 64.9775 66.8592 64.9775 66.8429C65.0269 66.7446 65.0928 66.6628 65.1422 66.5646C63.89 64.8461 62.8191 62.6202 62.2589 59.6905C60.6112 50.5577 66.6087 46.4988 66.6087 46.4988L66.1473 44.0273Z" fill="#8D9699"/>
<path d="M65.1592 66.6145C63.907 64.8959 62.836 62.6537 62.2593 59.724C60.6117 50.5912 66.6091 46.5322 66.6091 46.5322L66.1478 44.0117L65.5546 44.1099L65.9995 46.3358C65.9995 46.3358 60.002 50.4276 61.7485 59.5439C62.3747 62.7846 63.5445 65.2069 64.8626 67.0073C64.9779 66.8927 65.0603 66.7454 65.1592 66.6145Z" fill="#626D70"/>
<path d="M62.836 54.1758L61.7156 54.3722C61.7156 54.3722 61.5179 56.0416 61.5838 56.4017L62.9019 56.1562L62.836 54.1758Z" fill="#F2F2F2"/>
<path d="M63.5279 51.115L62.5723 51.4424C62.5723 51.4424 63.0995 49.8384 63.7586 49.2001C63.7586 49.2001 64.7472 48.9546 64.9284 48.9219C65.0932 48.9546 63.5279 51.115 63.5279 51.115Z" fill="#F2F2F2"/>
<path d="M82.1465 47.0078C82.1465 47.0078 84.7333 48.5136 87.4025 48.6281C87.4025 48.6281 87.386 46.615 87.1389 45.2238C86.9082 43.7999 82.1465 47.0078 82.1465 47.0078Z" fill="#0C6788"/>
<path d="M63.9062 63.0156C63.9062 63.0156 63.1977 63.0484 63 63.032C63 63.032 63.4284 64.2759 63.8568 64.9142C63.8568 64.9142 64.9772 64.8324 65.2243 64.7669C65.3891 64.7178 63.9062 63.0156 63.9062 63.0156Z" fill="#F2F2F2"/>
<path d="M102.857 33.3246C102.495 29.8548 99.0346 30.264 99.0346 30.264C96.0688 29.4784 92.9877 29.8712 90.3844 30.5913C86.8585 32.228 83.4643 34.1266 80.4326 36.5489C78.4225 39.1021 78.4719 41.4753 79.4605 43.9631C80.0702 45.4852 80.9929 46.4345 82.0968 46.9255C82.7723 47.1219 83.5302 46.9255 84.2552 46.68C84.354 46.6473 84.4364 46.6146 84.5353 46.5818C84.7165 46.5 84.8813 46.4018 85.0955 46.2872C85.8369 45.8944 86.5949 45.5016 87.3198 45.0924C88.7038 44.3232 90.0549 43.3248 91.6696 43.112C91.8014 42.9811 91.8673 42.8993 91.8673 42.8993C92.2463 44.5687 93.515 45.9762 93.515 45.9762L105.329 42.752C105.79 36.5325 102.857 33.3246 102.857 33.3246Z" fill="#DCDCDB"/>
<path d="M89.1327 32.0636C89.1327 32.0636 90.2201 32.4236 90.3519 33.3402C90.4837 34.2567 90.0718 35.4188 88.9844 36.4663C88.9844 36.4663 93.087 33.9785 96.267 34.7969C96.267 34.7969 94.8006 39.0523 98.4913 41.9819C98.4913 41.9819 102.034 41.0163 104.324 41.7037C104.324 41.7037 104.736 38.0048 101.853 33.6512C101.853 33.6512 102.182 31.4253 98.8044 31.3598C98.8044 31.3762 94.85 29.9359 89.1327 32.0636Z" fill="#F2F2F2"/>
<path d="M95.7724 35.043C95.7724 35.043 90.6811 36.4833 91.0766 43.2428C91.2743 43.1937 91.472 43.161 91.6697 43.1282L91.8675 42.9318C91.851 42.9318 90.9118 37.7108 95.7724 35.043Z" fill="#C7C7C7"/>
<path d="M89.1152 32.0661C89.1152 32.0661 94.7831 29.7748 98.8034 31.2478C98.8034 31.2478 102.165 31.0186 101.819 33.6046C101.819 33.6046 104.603 36.6489 104.323 41.4444C104.323 41.4444 104.076 37.2708 101.258 33.7519C101.258 33.7519 102.148 31.8697 98.5068 31.5588C98.5233 31.5588 95.4916 30.233 89.1152 32.0661Z" fill="white"/>
<path d="M61.5664 56.4036L61.9124 56.9928L62.209 56.2891L61.5664 56.4036Z" fill="#118EA3"/>
<path d="M63.4941 51.1484C63.4941 51.1484 62.8021 51.3612 62.5879 51.4594L62.7691 51.9177L63.4941 51.1484Z" fill="#118EA3"/>
<path d="M64.846 64.832C64.846 64.832 63.9563 64.8975 63.8574 64.9139L64.4176 65.4212L64.846 64.832Z" fill="#118EA3"/>
<path d="M107.635 46.1726L107.124 44.3886C107.124 44.3886 106.811 41.5407 101.093 42.1954C95.3761 42.8501 93.0364 45.1742 93.4483 47.0237C93.8602 48.8731 107.635 46.1726 107.635 46.1726Z" fill="#626D70"/>
<path d="M93.7614 46.2051C93.7614 46.2051 97.6499 40.8695 105.196 43.3409C108.557 44.4211 110.106 52.6373 102.758 53.2429C95.4256 53.8485 92.8717 47.629 93.7614 46.2051Z" fill="#425356"/>
<path d="M93.7617 46.2041C93.7617 46.2041 92.2294 48.2499 92.2788 49.6411C92.3282 51.0323 90.417 51.998 92.6907 54.3057C94.9645 56.6134 96.0519 56.417 96.7769 57.9064C97.5019 59.3958 98.7376 59.5431 102.198 58.1192C105.658 56.6789 105.757 55.5496 106.432 53.0945C107.108 50.6395 107.833 45.5003 104.06 44.1091C100.286 42.7179 97.0076 42.3578 93.7617 46.2041Z" fill="#627377"/>
<path d="M100.914 49.7734C100.914 49.7734 104.16 52.163 104.967 55.0436C104.951 55.0272 105.643 50.9191 100.914 49.7734Z" fill="#57666A"/>
<path d="M82.0316 56.7294C82.0316 56.7294 78.9011 69.3811 68.5703 69.9867C68.5703 69.9867 70.3992 71.2633 72.1951 71.8361C72.1951 71.8361 74.7984 71.2796 75.6882 70.6577C76.5614 70.0358 83.0367 61.2631 82.9378 57.9079C82.8554 54.5526 82.0316 56.7294 82.0316 56.7294Z" fill="#017499"/>
<path d="M56.6742 51.3274C56.6742 51.3274 59.1456 48.0049 64.1215 46.7773V46.8919L63.8744 47.1865C63.8744 47.1865 60.1507 47.9885 56.5918 51.802L56.6742 51.3274Z" fill="#1DACE3"/>
<path d="M66.5604 46.3198C66.5604 46.3198 70.35 45.7961 72.9697 46.4835C72.9697 46.4835 68.2575 46.1398 66.4121 46.6799L66.6263 46.5326L66.5604 46.3198Z" fill="#1DACE3"/>
<path d="M65.505 70.4106C65.505 70.4106 61.8472 70.6725 59.8865 69.3795C57.9258 68.1029 57.2832 67.0391 57.2832 67.0391C57.2832 67.0391 59.7712 69.4614 61.666 69.8542C63.4784 70.2306 63.6761 70.1815 65.2249 70.1815L65.505 70.4106Z" fill="#1DACE3"/>
<path d="M30.9542 20.0676C30.9542 20.0676 29.9821 20.5587 30.0974 21.1806C30.1963 21.8025 30.5093 21.9989 31.1025 22.048C31.6956 22.0971 32.9314 21.4097 33.3268 21.0169C33.7222 20.6241 34.0353 20.084 33.0632 19.8549C32.0746 19.6257 31.4979 19.7076 30.9542 20.0676Z" fill="#7B898D"/>
<path d="M26.7198 25.3197C26.7198 25.3197 27.6425 25.5161 28.4169 26.4163C29.5537 29.8043 31.7616 26.6618 32.5525 25.5652C31.6957 24.174 30.9048 23.683 30.5423 23.4703C30.0316 23.1756 29.702 22.6683 29.1418 22.4391C28.697 22.2591 28.2191 22.21 27.7413 22.1445C27.3624 22.1773 26.934 22.2755 26.5385 22.4719C24.6767 23.4048 25.0392 25.8598 26.7198 25.3197Z" fill="#627377"/>
<path d="M26.0103 23.3568C26.0103 23.3568 25.3348 24.077 25.6149 24.568C25.895 25.059 26.2245 25.1408 26.7353 25.0099C27.2625 24.8789 28.1028 23.8969 28.317 23.455C28.5312 23.0131 28.6301 22.4403 27.7239 22.5385C26.8342 22.653 26.3728 22.8822 26.0103 23.3568Z" fill="#7B898D"/>
<path d="M32.6016 23.7026C32.6016 23.7026 33.0794 24.9629 33.1288 25.5193C33.1288 25.5193 35.8145 24.7501 36.9184 24.7828C36.9184 24.7828 36.1934 22.8515 35.2378 22.426C35.2543 22.4096 34.3975 23.3425 32.6016 23.7026Z" fill="#7B898D"/>
<path d="M31.0031 24.5703C31.0031 24.5703 31.8269 25.2577 32.0247 25.8797C32.0247 25.8797 30.7395 26.4198 29.2072 27.189C29.2072 27.189 28.9436 26.4525 28.7129 26.2397C28.7129 26.2397 30.1134 25.5851 31.0031 24.5703Z" fill="#7B898D"/>
<path d="M37.5281 25.5001C33.1618 25.4837 29.4381 27.7587 29.4381 27.7587C29.4381 27.7587 29.158 29.1008 30.5091 30.2301C31.3329 30.9175 31.1517 31.5886 30.8716 31.9978C30.9704 33.1925 32.5687 32.8816 33.4749 32.4888C34.4305 28.1515 37.7917 28.0042 37.7917 28.0042C38.4343 26.1875 37.5281 25.5001 37.5281 25.5001Z" fill="#7B898D"/>
<path d="M29.4375 27.7599C29.4375 27.7599 33.3095 25.3703 37.5275 25.5013C37.5275 25.5013 33.6225 26.0905 29.4375 27.7599Z" fill="#95A5A7"/>
<path d="M42.1256 35.8111C42.1256 35.8111 38.5173 35.271 35.6504 38.0861C35.6504 38.0861 41.1865 46.7933 45.4704 49.0519C45.4704 49.0519 41.2194 46.3841 36.7378 38.2006C36.7378 38.2006 37.9571 36.253 42.1256 35.8111Z" fill="white"/>
<path d="M41.2852 70.1025C41.2852 70.1025 41.6476 72.9667 45.0912 73.3759C48.5348 73.7851 50.5944 73.9324 51.4676 69.6442C52.0608 67.2874 51.1875 66.3381 51.1875 66.3381C51.1875 66.3381 52.621 64.1449 55.7186 64.2759C55.7186 64.2759 52.3079 63.6703 50.6438 66.1581C50.6438 66.1581 51.4017 67.4183 50.9569 69.366C50.4955 71.3791 50.3637 73.605 45.1736 72.8521C41.6971 72.1975 41.2852 70.1025 41.2852 70.1025Z" fill="white"/>
<path d="M100.37 45.2553C100.37 43.684 98.871 43.684 97.0916 44.2078C95.6911 44.6169 94.5872 45.5499 94.1917 45.9427C93.6974 46.3191 93.3679 46.7774 93.3679 46.7774C91.9674 48.6759 92.2805 50.018 92.2805 50.018C92.4946 49.5107 93.4668 47.8576 95.0155 47.3993C93.8128 48.1686 92.8736 50.0835 92.577 50.7218C92.3958 51.0655 92.2475 51.3765 92.231 51.6056C92.1322 52.424 93.681 53.1441 96.3666 51.7038C97.6518 51.0164 98.4921 50.4763 98.904 49.9035C98.937 49.8707 98.9699 49.838 99.0029 49.8053C99.3324 49.4452 99.7113 48.7578 99.9585 48.0049C100.272 47.3011 100.37 46.3355 100.37 45.2553Z" fill="#7B898D"/>
<path d="M97.2716 47.5141C97.2716 47.5141 96.4972 47.6614 96.1018 47.465C96.0688 47.4487 96.0358 47.4323 96.0029 47.4159C94.9978 46.9085 93.828 48.087 93.828 48.087C93.828 48.087 92.1804 50.9675 93.136 49.6255C94.0916 48.2997 95.0473 47.5469 95.7228 47.7269C96.3983 47.9069 95.7228 49.1181 95.7228 49.1181C95.7228 49.1181 95.9535 48.9053 96.1512 48.6107C96.25 48.4961 96.8432 47.8578 97.2716 47.5141Z" fill="#627377"/>
<path d="M28.6645 27.7422C28.6645 27.7422 26.2095 27.9713 25.4351 29.0188C24.6608 30.0663 26.1107 30.1972 27.4782 30.5082C28.8458 30.8192 30.3122 31.4084 30.5264 30.9501C30.7406 30.4918 28.3021 29.2316 27.0169 29.1988C27.0169 29.1988 28.2526 29.117 28.6151 29.2316C28.9776 29.3298 29.0765 28.4623 28.6645 27.7422Z" fill="#7B898D"/>
<path d="M25.1049 31.4414C25.1049 31.4414 24.8413 31.6705 24.6765 31.9979C24.5118 32.2925 24.4953 32.4234 24.693 32.7508C24.8907 33.0781 25.3026 33.34 25.6486 33.4873C26.5219 33.8964 26.9173 34.011 27.6752 33.7819C27.9883 33.5691 28.2354 33.1763 28.3343 32.8981C28.3673 32.8981 26.2583 32.5544 25.1049 31.4414Z" fill="#7B898D"/>
<path d="M28.6647 27.7422C28.6647 27.7422 26.8358 27.8568 25.7978 28.6424C24.7597 29.428 25.1552 29.9681 25.8801 30.1645C26.6051 30.3609 30.1311 31.3756 30.4771 31.0319C30.6254 30.901 30.4936 30.7373 30.4936 30.7373C30.4936 30.7373 30.3288 30.9828 29.2413 30.721C28.1539 30.4591 26.8358 30.0499 26.2426 29.8699C25.6495 29.6735 25.2376 29.4607 25.9955 28.8879C26.7699 28.3478 27.6102 27.9877 28.6647 27.7422Z" fill="#95A5A7"/>
<path d="M38.5165 27.8582C38.5165 27.8745 38.5165 27.9073 38.5 27.9236C39.2909 27.8254 40.0817 27.9073 40.8726 28.0218C40.922 27.6945 40.9715 27.3672 40.988 27.0726C41.1527 26.2051 41.2351 25.2395 40.955 24.8139C40.5266 24.1756 39.9005 23.9465 39.2414 24.0938C38.5824 24.2411 38.467 24.4702 38.6153 24.7812C38.6153 24.7812 38.9943 25.2722 38.7471 26.2378C38.5824 26.958 38.533 27.5636 38.5165 27.8582Z" fill="#7B898D"/>
<path d="M38.6972 26.4852C38.6972 26.4852 38.8949 25.6342 38.7796 25.225C38.6643 24.8158 38.2029 24.3739 39.0762 24.1448C39.9494 23.9156 41.1028 24.1611 41.1852 25.6505C41.1852 26.7635 40.9215 27.9255 40.9215 27.9255C40.9215 27.9255 41.0863 25.7487 40.8227 25.1104C40.559 24.4885 40.0153 24.3084 39.5375 24.3575C39.0762 24.4066 38.7961 24.4394 38.9444 24.8649C39.1091 25.2905 38.6972 26.4852 38.6972 26.4852Z" fill="#95A5A7"/>
<path d="M30.1624 21.507C30.1624 21.507 29.6022 20.5905 31.085 19.9358C32.5844 19.2975 33.5071 19.9686 33.573 20.0831C33.573 20.0831 32.535 19.5594 31.1674 20.1977C29.8164 20.8524 30.1624 21.507 30.1624 21.507Z" fill="#95A5A7"/>
<path d="M25.7972 24.8471C25.7972 24.8471 24.9899 24.1106 26.2092 23.0959C27.4284 22.0811 28.3346 22.523 28.4335 22.7194C28.4335 22.7194 27.692 22.4739 26.4728 23.3577C25.2535 24.2415 25.7972 24.8471 25.7972 24.8471Z" fill="#95A5A7"/>
<path d="M99.0688 43.9124C99.7937 43.9943 100.354 44.3216 100.222 46.1383C100.14 47.3331 99.6619 48.4133 99.4807 48.7734C98.8875 49.5754 97.8001 50.672 95.9712 51.3921C93.8457 52.2268 91.7202 52.6687 93.0054 50.4101C94.2906 48.1515 94.4224 48.2006 95.1474 47.7096C95.1474 47.7096 93.6645 48.2497 92.5935 50.3774C91.5225 52.5051 92.6923 53.4216 96.2018 51.8177C97.4046 51.2775 98.2284 50.6229 98.8051 50.0009C99.4312 49.4444 100.123 48.6425 100.436 46.2365C100.799 43.536 99.0688 43.9124 99.0688 43.9124Z" fill="#95A5A7"/>
<path d="M37.3961 86.4021C37.3961 86.4021 33.2605 84.3399 35.1223 78.9388C36.9842 73.5377 41.7459 70.8044 47.7928 72.9976L54.2021 74.3724C54.2021 74.3724 57.2338 77.1057 57.0855 82.1794L37.3961 86.4021Z" fill="#425356"/>
<path d="M37.7427 86.5506C37.7427 86.5506 35.057 85.0448 36.7047 81.6241C38.3523 78.2034 39.9506 76.0757 46.8377 77.4506C53.7249 78.8254 57.2344 79.4473 57.1026 82.1806C56.9708 84.9139 54.4169 87.5817 45.8656 84.8484C45.8656 84.832 41.5982 88.1873 37.7427 86.5506Z" fill="#122B2A"/>
<path d="M75.6374 19.3325C74.3852 19.5616 73.0012 18.7105 72.4574 17.5812C71.9631 16.5501 71.8808 14.9789 72.6716 14.0623L72.6222 13.9805C72.5233 14.0296 72.408 14.095 72.3091 14.1441C72.0949 14.2914 71.8807 14.406 71.6501 14.5206C71.4524 14.8479 70.8592 16.1573 71.9137 17.974C73.133 20.1017 74.9454 19.8071 74.9454 19.8071L75.6539 19.3488L75.6374 19.3325Z" fill="#95A5A7"/>
<path d="M35.0729 83.8833C35.0729 83.8833 33.1122 80.2335 36.2098 76.3872C39.3074 72.541 41.0539 71.3953 46.0792 72.4428C50.9398 73.4412 51.5988 73.834 51.5988 73.834C51.5988 73.834 44.1185 72.6556 41.8942 73.1629C39.6204 73.6703 37.6597 75.5198 36.1604 77.9912C34.661 80.4462 34.6116 82.3448 35.0729 83.8833Z" fill="#627377"/>
<path d="M72.9853 14.2255L72.6393 14.6019C72.6393 14.6019 72.0132 15.9113 72.6722 17.2861C73.3972 18.6118 74.4682 19.2665 75.2426 19.0865C75.5556 18.9883 75.6215 18.9064 75.6215 18.9064L75.8357 18.6118C75.8357 18.6118 76.1158 18.8573 75.7863 19.2829C75.4568 19.7084 74.221 19.5611 73.5784 19.0865C72.9359 18.6282 72.2933 18.039 71.9802 16.6314C71.6507 15.1584 72.2109 14.2091 72.6393 13.98C73.0018 13.7509 73.2489 13.8982 73.2489 13.8982L72.9853 14.2255Z" fill="#425356"/>
<path d="M48.4352 28.5117C48.4352 28.5117 47.5784 29.1173 48.221 30.6885C48.8636 32.2597 49.638 32.0142 49.638 32.0142L49.0778 32.1615C49.0778 32.1615 48.2704 32.1779 47.7597 30.5412C47.3478 28.9864 47.8915 28.659 47.8915 28.659L48.4352 28.5117Z" fill="#7B898D"/>
<path d="M48.55 30.4435C48.0557 29.1832 48.6159 28.7741 48.7807 28.6922C48.8301 28.6759 48.8466 28.6595 48.8796 28.6595C48.9125 28.6595 48.9125 28.6595 48.929 28.6595L48.9619 28.6431C48.929 28.594 48.9125 28.5613 48.8796 28.4958C48.7478 28.4467 48.6159 28.4631 48.4347 28.4958C47.9734 28.8068 47.7097 29.3633 48.1546 30.5417C48.8137 32.3421 49.7858 32.0147 49.7858 32.0147L50.0329 31.9329C50.0659 31.9002 50.0988 31.8674 50.1318 31.8347C49.7528 31.8183 49.0279 31.6383 48.55 30.4435Z" fill="#717272"/>
<path opacity="0.1" d="M56.0148 39.5944C56.5699 39.5944 57.0199 39.1474 57.0199 38.596C57.0199 38.0446 56.5699 37.5977 56.0148 37.5977C55.4598 37.5977 55.0098 38.0446 55.0098 38.596C55.0098 39.1474 55.4598 39.5944 56.0148 39.5944Z" fill="white"/>
<path d="M56.0152 38.7741C56.1153 38.7741 56.1965 38.6935 56.1965 38.5941C56.1965 38.4947 56.1153 38.4141 56.0152 38.4141C55.9151 38.4141 55.834 38.4947 55.834 38.5941C55.834 38.6935 55.9151 38.7741 56.0152 38.7741Z" fill="white"/>
<path d="M78.9826 37.5165C78.9826 37.5165 76.7913 40.0534 78.8014 44.5543C80.3502 47.4349 81.7342 47.795 81.7342 47.795L81.5859 48.1223C81.5859 48.1223 79.8559 47.4512 78.5213 44.7016C77.335 42.2629 77.1043 39.677 78.8344 37.2383L78.9826 37.5165Z" fill="#1DACE3"/>
<path d="M50.3301 34.3051C50.3301 34.3051 50.5607 32.5211 52.9663 31.2773C55.3719 30.017 56.4758 29.7715 57.2008 29.837L58.2058 29.3951C58.2058 29.3951 58.9802 26.9891 65.7191 26.4981C68.9815 26.1871 71.5188 26.3999 71.9472 26.5799C71.9472 26.5799 64.6481 26.3999 61.0892 27.9548C58.6342 29.035 58.3541 30.1316 58.3541 30.1316L57.6292 30.4589C57.6292 30.4589 56.311 29.7388 53.164 31.6701C50.017 33.585 50.6102 34.9107 50.6102 34.9107C50.6102 34.9107 50.4619 34.6816 50.4125 34.567C50.363 34.4524 50.3301 34.3051 50.3301 34.3051Z" fill="#909A9D"/>
<path d="M92.9064 74.9965C92.9064 74.9965 94.3069 67.3531 90.2207 62.1484C90.2207 62.1484 93.0382 64.1616 93.5984 69.088C94.1586 74.0145 92.9064 74.9965 92.9064 74.9965Z" fill="#C7C7C7"/>
<path d="M90.1051 74.0463C90.1051 74.0463 90.1051 70.2983 82.6742 65.3555L82.3282 65.7974C82.3117 65.781 88.7869 69.9055 90.1051 74.0463Z" fill="#F2F2F2"/>
<path d="M65.3574 70.5905C65.3574 70.5905 65.4892 70.3777 65.9176 70.2959C66.346 70.2141 68.6033 69.7885 69.4601 70.1322C70.3168 70.4759 72.3435 71.8016 72.3435 71.8016C72.3435 71.8016 70.7617 72.2599 68.5868 72.3581C66.379 72.4563 65.3574 70.5905 65.3574 70.5905Z" fill="#017499"/>
<path d="M63.8086 70.1515C63.8086 70.1515 65.9835 70.3315 69.8884 69.4805L70.0861 69.7914C70.0861 69.7914 66.9226 70.5771 63.8251 70.397V70.1515H63.8086Z" fill="#1DACE3"/>
<path d="M48.6992 42.7188C48.6992 42.7188 43.0643 44.9119 46.2277 52.9481H46.7056C46.7056 52.9481 43.4597 45.7957 49.2924 42.8497L48.6992 42.7188Z" fill="#DCDCDB"/>
<path d="M46.887 41.5908C46.887 41.5253 46.887 41.4435 46.887 41.378C46.8705 41.2961 46.8705 41.2143 46.854 41.1325C45.3217 41.0179 41.252 41.378 39.5879 48.2521L39.9833 48.5303C39.9833 48.5303 41.2355 41.5908 46.887 41.5908Z" fill="#DCDCDB"/>
<path d="M44.7616 38.9077C44.7781 38.8423 44.7781 38.7604 44.8111 38.695C44.8111 38.6131 44.8275 38.5313 44.8275 38.4495C43.3447 38.0239 39.2914 37.582 36.2598 43.9815L36.5893 44.3252C36.6058 44.3252 39.2255 37.7948 44.7616 38.9077Z" fill="#DCDCDB"/>
<path d="M96.9258 40.8221C96.9258 40.8221 100.682 38.5635 104.423 39.8074V39.3655C104.423 39.3655 101.358 37.8597 96.5469 40.3966L96.9258 40.8221Z" fill="#DCDCDB"/>
<path d="M96.0038 38.613C96.0038 38.613 100.008 35.5687 103.731 37.0417L103.962 36.6489C103.962 36.6489 100.815 34.6849 95.8555 38.1711L96.0038 38.613Z" fill="#DCDCDB"/>
<path d="M95.8553 36.5153C99.8097 33.1273 103.187 34.9604 102.726 34.7477L102.693 34.3549C102.693 34.3549 100.057 32.6854 95.707 36.0243L95.8553 36.5153Z" fill="#DCDCDB"/>
<path d="M96.2666 34.814C96.2666 34.814 97.4859 31.5407 99.3148 31.0824L98.6887 30.9023C98.6887 30.9023 96.9092 31.4261 95.7559 34.8795L96.2666 34.814Z" fill="#DCDCDB"/>
<path d="M94.9646 30.7234C94.9646 30.7234 93.4158 31.7872 94.3055 34.766L93.9431 34.9952C93.9431 34.9952 92.905 32.2619 94.3879 30.707L94.9646 30.7234Z" fill="#DCDCDB"/>
<path d="M92.0657 35.4705C92.0657 35.4705 90.7311 34.112 91.1759 31.6406H90.7475C90.7475 31.6406 90.2532 33.752 91.6702 35.6833L92.0657 35.4705Z" fill="#DCDCDB"/>
<path d="M41.1695 70.6725C41.1695 70.6725 44.9262 67.9065 51.9122 71.3599L51.7804 70.8198C51.7804 70.8198 46.8869 67.4645 40.9883 69.7887L41.1695 70.6725Z" fill="#DCDCDB"/>
<path d="M41.8281 66.3361C41.8281 66.3361 48.4517 64.0284 51.8294 67.6782L52.2083 67.1381C52.2083 67.1381 49.3908 63.6029 42.1247 65.6324L41.8281 66.3361Z" fill="#DCDCDB"/>
<path d="M44.2344 63.3738C44.2344 63.3738 50.2483 61.7207 52.0607 65.7961L52.4561 65.6324C52.4561 65.6324 51.3028 61.3934 44.6298 62.9482C44.6133 62.9319 44.4321 63.0955 44.2344 63.3738Z" fill="#DCDCDB"/>
<path d="M48.8633 61.1636C48.8633 61.1636 53.4437 60.738 54.3664 64.6825L54.7948 64.5515C54.7948 64.5515 54.1852 60.869 49.9837 61.0326C49.9672 61.0326 49.5223 61.049 48.8633 61.1636Z" fill="#DCDCDB"/>
</g>
<defs>
<clipPath id="clip0_2233_6816">
<rect width="84" height="86" fill="white" transform="translate(24 1)"/>
</clipPath>
</defs>
</svg>
