<svg width="132" height="88" viewBox="0 0 132 88" fill="none" xmlns="http://www.w3.org/2000/svg">
<path d="M82.5535 64.6323C82.8664 64.6323 83.877 64.6323 86.9329 61.6245C91.7654 57.1032 105.227 44.8005 96.7985 56.9805C91.9139 62.8036 85.6817 68.3139 82.6017 68.3139C80.4842 68.3139 78.8479 67.568 77.8373 66.052C76.3454 63.8383 76.3454 60.1567 77.7892 56.4511C79.5676 52.0951 81.6584 47.873 84.0454 43.8183L84.0935 43.698V43.5777C84.0079 43.6349 83.9275 43.6992 83.8529 43.7702C78.4389 49.9061 72.2307 56.788 65.6376 63.2127V63.2367C64.2761 64.4605 62.8964 65.6637 61.4989 66.8461L60.7289 67.4477C60.007 68.0011 59.1648 68.3139 58.4429 68.3139C57.5788 68.3146 56.7429 68.0076 56.0848 67.4477C55.1704 66.7498 54.9779 65.2339 55.2667 64.103V64.0789C55.3126 63.8248 55.4021 63.5806 55.5314 63.357L55.6035 63.2367C58.6835 57.4858 61.8598 51.7589 65.1323 45.9839C65.1323 45.9598 65.4932 45.1898 65.6857 44.853L65.6376 44.9011L65.6135 44.9252L65.3489 45.0214L61.5951 49.3527L58.9964 52.3605C57.6633 53.958 56.2912 55.5223 54.8817 57.0527L53.847 58.2077L53.2695 58.8092C50.021 62.2261 45.8101 65.9317 42.2007 66.8942C33.3217 69.2523 24.0576 62.7555 30.9154 54.3336C32.7729 52.0606 34.9923 50.1097 37.4845 48.5586C37.4845 48.5586 43.9092 44.2514 49.1067 44.3717C52.5957 44.3477 54.5689 47.4758 53.1251 47.7405C49.3714 48.4623 46.2673 49.7377 43.837 50.9408C40.7329 52.6252 37.8935 54.9833 36.137 57.3173C32.5998 62.2983 34.8376 66.7498 42.2489 62.0577C45.8582 59.7717 49.9007 55.6089 53.2695 52.0717V52.0236C57.3611 47.2712 61.4197 42.4907 65.4451 37.6823C69.5709 32.5388 73.8728 27.5389 78.3426 22.6914L78.896 22.1139L78.9442 22.0658L78.9682 22.0417C79.6901 21.392 80.4601 21.0552 81.1339 21.0792C82.0865 21.1368 82.9778 21.5694 83.6123 22.2823C84.0935 22.8598 84.3101 23.5336 84.2139 24.2073C84.1657 24.8811 83.9973 25.4105 83.7326 25.8917V25.9398C81.3023 30.3192 79.4254 33.8564 77.6207 37.2733C75.6717 40.8827 73.6985 44.6364 71.0757 49.3045L71.196 49.5452C71.2923 49.473 71.581 49.3045 72.1826 48.8233C79.39 41.4217 86.2859 33.723 92.8523 25.7473C94.1625 24.2589 95.478 22.775 96.7985 21.2958C96.8707 21.2236 97.4242 20.622 97.6167 20.4777C98.2664 19.9483 99.0604 19.6836 99.9026 19.6836C101.876 19.6836 103.464 21.1995 103.464 23.0523L103.416 23.4855V23.5336L103.368 23.7742V23.8464C103.124 24.5113 102.826 25.1552 102.477 25.7714C100.288 29.5973 98.0498 33.3511 95.812 36.9845C92.9245 41.7248 89.9407 46.6336 87.1495 51.7348L86.0185 53.7561C84.0454 57.1489 80.797 62.8277 81.6392 64.2955C81.7835 64.512 82.0242 64.6323 82.361 64.6323H82.5535Z" fill="#7DC5D5"/>
</svg>
