<svg width="132" height="88" viewBox="0 0 132 88" fill="none" xmlns="http://www.w3.org/2000/svg">
<path fill-rule="evenodd" clip-rule="evenodd" d="M37.2168 62.4885V75.4264H43.5157H49.8146V65.9947V56.5629L50.8334 57.5502C51.3936 58.0934 51.9328 58.4569 52.0318 58.3583C52.1304 58.2597 52.1903 58.3776 52.1651 58.6207C52.1396 58.8637 54.8844 62.2817 58.2643 66.2165C61.6442 70.1513 64.7619 73.7835 65.1927 74.288L65.9759 75.2055L69.645 70.784C71.6628 68.352 73.4639 66.2239 73.6477 66.0549C73.8314 65.8859 75.1711 64.2958 76.6244 62.5214C78.0781 60.7469 79.8246 58.6729 80.5055 57.9124L81.7437 56.5298L81.7566 65.9781L81.7698 75.4264H87.9151H94.0603V62.675C94.0603 55.6617 94.0155 48.08 93.9605 48.08C93.9055 48.08 92.8718 48.4165 91.6631 48.8273C84.7912 51.165 74.9883 52.2468 63.1805 51.9712C51.506 51.6987 44.1886 50.5342 37.7545 47.9252C37.2475 47.7193 37.2168 50.2883 37.2168 62.4885Z" fill="#1C8A7D"/>
<path d="M39.4205 25.3825C42.719 18.8205 50.4802 14.0884 60.1088 12.7684C61.2918 12.6062 64.4028 12.5275 67.0222 12.5939C73.1484 12.749 76.8018 13.5919 81.6172 15.9605C86.7792 18.5001 89.9594 21.561 92.0586 26.012C93.7132 29.5207 94.1145 31.4324 94.2875 36.6359C94.3732 39.2129 94.5471 41.3217 94.6737 41.3217C95.2427 41.3217 97.5611 38.8737 98.3074 37.4846C99.7177 34.8603 101.699 34.5481 102.847 36.769C104.003 39.004 103.298 41.9964 100.924 44.9231C98.6494 47.729 95.0072 49.5361 91.6641 50.6723C84.7922 53.0099 74.9893 54.0918 63.1815 53.8162C48.0606 53.4632 39.7108 50.8762 35.2974 48.3362C30.1363 45.3659 27.511 40.5624 29.044 36.894C29.5592 35.6607 29.9513 35.3845 31.138 35.4183C32.2957 35.4511 32.6872 35.7968 33.7983 37.7654C34.3004 38.6546 35.1714 39.7703 35.734 40.2447L36.7569 41.1069L36.9419 36.3747C37.1551 30.9187 37.5763 29.0509 39.4205 25.3825Z" fill="#26B9A7"/>
<path d="M36.9102 41.2159V38.1959V35.1758H65.6392H94.1759C94.1759 36.7121 94.7479 41.4746 94.6754 41.321C94.6754 41.4747 93.9258 41.9088 92.5627 42.3519C90.7659 42.9363 86.8842 43.6301 82.5386 44.1442C77.0672 44.7916 53.6136 44.6773 48.1252 43.9767C42.829 43.3007 40.2661 42.7507 38.3697 41.8836L36.9102 41.2159Z" fill="#0F5F5A"/>
</svg>
