<svg width="132" height="88" viewBox="0 0 132 88" fill="none" xmlns="http://www.w3.org/2000/svg">
<path fill-rule="evenodd" clip-rule="evenodd" d="M44.1901 14.2337C40.7137 14.6504 35.3225 15.9977 34.5182 16.6506C34.1378 16.9593 34.1486 24.2909 34.5295 24.2909C34.6644 24.2909 35.5456 24.0241 36.4875 23.698C39.6951 22.5872 41.9583 22.2327 46.6766 22.1016C52.2606 21.9465 55.3014 22.3199 66.2297 24.5027C77.943 26.8422 82.7748 27.347 88.1563 26.7939C90.8275 26.5192 94.9689 25.5884 96.8186 24.8469L97.7633 24.4683V20.6427C97.7633 18.3974 97.6751 16.8173 97.5501 16.8173C97.4328 16.8173 96.4411 17.1165 95.3462 17.482C91.6116 18.729 89.8089 18.967 84.0874 18.9677C78.0544 18.9686 77.2943 18.871 66.2674 16.68C62.1852 15.869 57.5061 15.0046 55.8693 14.7589C53.0459 14.3349 45.9914 14.0178 44.1901 14.2337ZM43.5915 29.9414C40.3294 30.3197 35.4149 31.5809 34.5437 32.263C34.1877 32.5418 34.1764 39.9176 34.5318 39.9176C34.6656 39.9176 35.5239 39.6588 36.4391 39.3421C40.2092 38.0386 42.0598 37.7833 47.8068 37.7743C54.0089 37.7648 54.6307 37.8447 66.2297 40.1421C75.046 41.8884 78.1514 42.3499 82.4875 42.5576C87.2901 42.7879 92.4873 42.0494 96.4635 40.5719L97.7633 40.0888V36.2664C97.7633 34.1641 97.7113 32.444 97.6478 32.444C97.5843 32.444 96.3744 32.7955 94.9596 33.2253C90.9394 34.446 88.05 34.7841 82.8442 34.6428C77.7552 34.5047 76.317 34.302 66.3269 32.3144C62.2775 31.5089 57.5983 30.6467 55.9287 30.3985C52.5348 29.8939 46.0674 29.6543 43.5915 29.9414ZM44.1901 45.4891C40.6113 45.9271 35.358 47.2243 34.5634 47.8664C34.2494 48.1201 34.2135 55.5443 34.5263 55.5443C34.6452 55.5443 35.6385 55.2436 36.7335 54.876C40.494 53.6138 42.1877 53.3924 48.0329 53.3983C54.2101 53.4048 54.8166 53.4836 66.3427 55.7812C74.9635 57.4995 78.0671 57.9644 82.3435 58.1782C87.1757 58.4199 92.4916 57.6745 96.4635 56.1986L97.7633 55.7155V51.8666V48.0179L97.2547 48.1429C96.9748 48.2115 95.7519 48.5771 94.5371 48.9548C90.9432 50.0725 87.9562 50.4083 82.8442 50.2695C77.754 50.1314 76.332 49.9307 66.2674 47.9325C62.1852 47.122 57.5061 46.258 55.8693 46.0123C53.0373 45.5869 45.9747 45.2708 44.1901 45.4891ZM44.1901 61.1138C40.763 61.5246 35.2185 62.9006 34.5921 63.4958C34.317 63.7569 34.2101 71.171 34.4813 71.171C34.5917 71.171 35.4737 70.9099 36.4409 70.5906C39.9879 69.4201 42.0071 69.1019 46.6766 68.9772C52.2606 68.8279 55.315 69.2036 66.2297 71.3828C70.5811 72.2515 75.362 73.1244 76.8539 73.3227C84.4007 74.3253 90.7585 73.8694 96.1244 71.9406L97.7633 71.3515V67.4981V63.6446L97.2547 63.7696C96.9748 63.8382 95.7519 64.2038 94.5371 64.5815C90.9272 65.7042 87.9542 66.0378 82.8442 65.8935C77.7242 65.749 76.2404 65.54 66.3269 63.5678C56.4371 61.6005 53.6739 61.2091 48.9371 61.1054C46.7614 61.0578 44.6252 61.0617 44.1901 61.1138Z" fill="#ED1B24"/>
</svg>
