<svg width="132" height="88" viewBox="0 0 132 88" fill="none" xmlns="http://www.w3.org/2000/svg">
<path d="M66 77C84.2254 77 99 62.2254 99 44C99 25.7746 84.2254 11 66 11C47.7746 11 33 25.7746 33 44C33 62.2254 47.7746 77 66 77Z" fill="#18191A"/>
<path d="M80.2836 41.7038V53.3582H75.1419V42.4251C75.1419 41.3115 74.8372 40.4257 74.2279 39.7677C73.6185 39.1097 72.806 38.7807 71.7903 38.7807C70.7747 38.7807 69.9368 39.1097 69.2767 39.7677C68.6419 40.4257 68.3245 41.2735 68.3245 42.3112V53.3582H63.1829V42.4251C63.1829 41.3115 62.8782 40.4257 62.2688 39.7677C61.6594 39.1097 60.8469 38.7807 59.8313 38.7807C58.7903 38.7807 57.9524 39.1097 57.3176 39.7677C56.6828 40.4257 56.3655 41.3115 56.3655 42.4251V53.3582H51.2239V34.5669H55.9465V36.2372C57.2668 34.8452 59.0442 34.1493 61.2786 34.1493C63.7415 34.1493 65.6077 35.0477 66.8772 36.8446C68.4768 35.0477 70.5716 34.1493 73.1615 34.1493C75.3451 34.1493 77.0716 34.8326 78.3412 36.1993C79.6361 37.5659 80.2836 39.4008 80.2836 41.7038Z" fill="white"/>
</svg>
