<svg width="132" height="88" viewBox="0 0 132 88" fill="none" xmlns="http://www.w3.org/2000/svg">
<path d="M97.8363 13.233C97.8363 12.1552 96.9785 11.2734 95.9299 11.2734H36.0705C35.0219 11.2734 34.1641 12.1552 34.1641 13.233V74.7638C34.1641 75.8417 35.0219 76.7234 36.0705 76.7234H80.6792L97.8363 59.0871V13.233Z" fill="#FF0065"/>
<path d="M79.3025 32.3904V55.4923C79.3025 55.9518 78.9665 56.2969 78.5187 56.2969H72.6955C72.2477 56.2969 71.9117 55.9518 71.9117 55.4923C71.9117 52.734 71.9117 44.3437 71.9117 43.9989C69.5602 47.3319 67.0963 50.6651 64.7447 54.228C64.2969 53.5385 57.6898 44.1137 57.3538 43.5391V55.6072C57.3538 56.0669 57.0179 56.4118 56.5698 56.4118H50.7468C50.2988 56.4118 49.9629 56.0669 49.9629 55.6072V32.3904C49.9629 31.9308 50.2988 31.5859 50.7468 31.5859H55.8979C56.122 31.5859 56.346 31.7009 56.5698 31.9308L64.521 43.1943L72.5835 31.9308C72.6955 31.7009 73.0315 31.5859 73.2554 31.5859H78.5187C78.8548 31.5859 79.3025 31.9308 79.3025 32.3904Z" fill="white"/>
<path d="M64.665 76.7202L81.1551 59.6719H97.2637L80.6784 76.7202H64.665Z" fill="#B0044B"/>
<path d="M97.8368 59.0898H82.5861C81.5375 59.0898 80.6797 59.9716 80.6797 61.0495V76.7261L97.8368 59.0898Z" fill="#FF5BA0"/>
</svg>
