<svg width="132" height="88" viewBox="0 0 132 88" fill="none" xmlns="http://www.w3.org/2000/svg">
<path fill-rule="evenodd" clip-rule="evenodd" d="M73.6364 11.2844C68.3061 13.402 61.5928 16.134 59.9157 16.8681C59.042 17.2508 57.6771 17.8226 56.8828 18.1395C56.0884 18.4561 53.0337 19.7299 50.0946 20.9698C47.1555 22.2098 44.202 23.4401 43.5315 23.7036C42.4365 24.1338 42.3195 24.2735 42.3833 25.0757C42.4348 25.7194 42.6742 26.0756 43.2418 26.3517C43.6745 26.5627 44.0287 26.8599 44.0287 27.0125C44.0287 27.1651 44.2727 27.2898 44.5711 27.2898C45.9155 27.2898 46.0362 29.2821 44.7286 29.8874C43.9174 30.263 43.8536 30.5911 44.4706 31.2178C44.7635 31.5153 44.8487 31.9241 44.7236 32.4302C44.5708 33.0487 44.6517 33.2251 45.1483 33.3571C45.4856 33.4466 45.7618 33.7116 45.7618 33.9454C45.7618 34.1796 46.0821 34.7975 46.4735 35.3189L47.1853 36.2667L43.7427 50.2989C40.4125 63.8733 40.2701 64.3584 39.3683 65.1758C38.8558 65.6409 38.3388 66.0212 38.2195 66.0212C38.1005 66.0212 37.9612 66.3049 37.9107 66.6514C37.8142 67.3084 37.5519 67.5085 36.0487 68.0713C35.4037 68.3131 35.0187 68.7388 34.7001 69.5628C34.449 70.2118 34.0588 70.7159 33.8075 70.7159C33.1766 70.7159 31.4149 72.3549 31.2017 73.1398C31.0876 73.5603 30.4787 74.0609 29.5105 74.5303C28.0746 75.2263 27.0439 76.5221 27 77.6858C26.989 77.9792 33.7304 78.0388 60.2661 77.9792L93.5458 77.9047L93.8168 76.9449C94.1914 75.618 93.707 74.6404 92.547 74.3816C91.7529 74.2044 91.6524 74.0782 91.7772 73.4153C91.9828 72.3227 91.5565 71.4104 90.6287 70.9585C89.9085 70.6082 89.8332 70.4354 89.9126 69.318C89.9975 68.1247 89.9608 68.0613 89.0847 67.8832C88.2603 67.7157 88.1846 67.6136 88.3311 66.8686C88.4293 66.3698 88.3542 65.9487 88.1425 65.8105C87.1104 65.1377 87.059 64.3807 87.8152 60.9732C88.2196 59.1502 88.7263 57.0645 88.9412 56.3383C89.1561 55.6121 90.3499 50.7437 91.594 45.5194C93.1755 38.8793 93.9866 35.9738 94.2896 35.8647C94.5279 35.7787 95.2001 35.2007 95.7836 34.5801C96.3668 33.9595 97.0234 33.4516 97.2423 33.4516C97.7871 33.4516 98.3336 32.8513 98.3336 32.253C98.3336 31.981 98.6586 31.5423 99.0557 31.278C99.8946 30.7196 99.968 30.2833 99.3059 29.7915C98.8908 29.4831 98.8821 29.3408 99.2337 28.6125C99.4535 28.1569 99.8611 27.6727 100.139 27.5369C100.417 27.401 100.872 27.1569 101.15 26.9946C101.714 26.6651 101.874 26.6014 103.07 26.2294C103.53 26.0865 104.05 25.7053 104.225 25.3826C104.4 25.0598 104.67 24.7039 104.825 24.5915C104.979 24.4794 105.044 24.3368 104.969 24.2746C104.086 23.5411 77.614 9.96661 77.1319 10.0001C76.9571 10.0121 75.384 10.5898 73.6364 11.2844Z" fill="#3BB371"/>
</svg>
