<svg width="132" height="88" viewBox="0 0 132 88" fill="none" xmlns="http://www.w3.org/2000/svg">
<path fill-rule="evenodd" clip-rule="evenodd" d="M27.6426 44.0003C27.6426 65.1846 44.8158 82.3834 66.0001 82.3834C87.1844 82.3834 104.358 65.1846 104.358 44.0003C104.358 22.816 87.1844 5.61719 66.0001 5.61719C44.8158 5.61719 27.6426 22.816 27.6426 44.0003ZM76.3124 26.4986C74.4917 26.7515 73.0525 27.5157 71.9395 28.8207C71.6627 29.1453 71.4505 29.5381 71.4505 29.7261C71.4505 30.3167 72.264 30.8878 72.7461 30.6357C72.8076 30.6036 73.0425 30.401 73.2681 30.1855C73.7994 29.678 74.0714 29.5418 74.5467 29.5452C74.8992 29.5477 75.3168 29.6896 75.5468 29.8851C76.0188 30.2862 76.2373 31.1935 76.1114 32.2295C76.0789 32.4969 75.9368 33.1532 75.7956 33.688C75.5495 34.6201 74.5086 38.4959 74.0294 40.2643C73.4915 42.2493 73.1096 43.9736 72.8391 45.638C72.5813 47.2242 72.5536 47.5164 72.5523 48.6574C72.5511 49.7211 72.5556 49.7714 72.6899 50.1672C72.8645 50.6821 73.1381 51.1036 73.5555 51.5011C74.3951 52.3006 75.359 52.7355 76.5567 52.855C78.0067 52.9998 79.879 52.5352 81.3481 51.6662C82.5576 50.9507 83.3818 50.1319 84.3984 48.6357C84.5251 48.4494 84.7683 48.0959 84.9388 47.8502C85.1094 47.6046 85.6621 46.799 86.167 46.06C87.0063 44.832 87.9296 43.4903 88.1435 43.1882C88.1909 43.1211 88.2837 43.1052 88.3507 43.1526L88.3738 43.1689C88.5674 43.3056 89.0541 43.5454 89.4813 43.7146C90.1672 43.9863 91.5284 44.1969 92.1607 44.1292C92.5531 44.0871 92.7299 43.9597 92.7732 43.6874C92.8182 43.4049 92.6319 43.2439 91.7695 42.8197C91.3622 42.6194 90.8599 42.3387 90.6533 42.1958C90.2444 41.9131 89.6339 41.2903 89.5885 41.1094C89.5686 41.0299 89.6422 40.8607 89.8359 40.5407C90.107 40.093 90.1679 39.9856 90.7319 38.9593C91.9443 36.7534 92.618 34.8041 92.7381 33.1546C92.8809 31.1943 92.2585 29.7086 90.9164 28.8059C90.2291 28.3437 89.5417 28.1287 88.7266 28.1212C87.1767 28.1069 85.9075 28.9753 85.1778 30.5493C84.9889 30.9568 84.6651 31.981 84.5567 32.5141C84.2568 33.9884 84.2855 35.688 84.635 37.1425C84.894 38.2204 85.4968 39.737 85.942 40.4308C86.0382 40.5806 86.0339 40.7738 85.9312 40.9193C84.5767 42.8379 81.1486 46.7575 79.9716 47.7334C79.5059 48.1195 79.2081 48.2607 78.8537 48.2633C78.0792 48.2689 77.7266 47.6817 77.8497 46.5915C77.9023 46.1257 78.1075 45.2476 79.1728 40.9296C79.4818 39.6771 79.8757 38.0765 80.048 37.3728C81.516 31.3784 81.5328 31.3011 81.5316 30.5313C81.5293 29.0385 80.9379 27.8748 79.8111 27.1459C79.096 26.6833 78.4403 26.5012 77.3871 26.4726C76.979 26.4615 76.4953 26.4732 76.3124 26.4986ZM65.1813 28.6816C64.0397 28.8247 62.6965 29.3048 61.7714 29.9005C60.8552 30.4905 59.9211 31.4646 59.5143 32.2545C59.3683 32.5381 59.3734 32.9291 59.5264 33.1767C59.7627 33.5591 60.3926 33.8407 60.7897 33.7415C60.8787 33.7193 61.1578 33.4762 61.5221 33.1037C62.1943 32.4162 62.3968 32.3095 63.0097 32.3203C64.064 32.3389 64.7014 33.0606 64.8513 34.4058C64.9353 35.1588 64.8535 35.7299 64.2831 38.3708C64.0004 39.6796 63.644 41.3378 63.4912 42.0555C63.3383 42.7733 63.1096 43.8416 62.9829 44.4295C62.8563 45.0173 62.6724 45.9731 62.5743 46.5533C61.9037 50.5214 61.0658 53.356 60.0595 55.0607C59.8944 55.3403 59.5076 55.7577 59.1813 56.0083C58.1936 56.7669 57.7861 57.5745 58.0902 58.1707C58.1449 58.2778 58.2487 58.4042 58.3208 58.4514C58.5618 58.6094 58.712 58.6035 59.2532 58.4151C60.7471 57.8951 62.7469 57.3298 63.9018 57.1008C65.4248 56.7989 66.2626 56.1925 66.8181 54.9902C67.0504 54.4874 67.2246 53.8736 67.3303 53.1851C67.44 52.4705 67.8487 50.2133 68.1501 48.6574C68.2783 47.996 68.4753 46.9711 68.5878 46.38C68.7931 45.3029 69.1121 43.6537 69.3007 42.6953C69.5023 41.6705 70.2205 37.9033 70.4518 36.6563C70.5824 35.9526 70.7364 35.1351 70.794 34.8395C70.9444 34.068 70.978 32.838 70.8639 32.2751C70.4781 30.3709 69.1719 29.0907 67.2412 28.7244C66.8655 28.6532 65.6156 28.6272 65.1813 28.6816ZM53.1687 31.4669C50.3323 31.6551 47.5484 32.5964 45.372 34.1032C43.8895 35.1296 42.5403 36.4894 41.589 37.916C40.1353 40.0957 39.4018 42.386 39.3264 44.981C39.2255 48.4555 40.2071 50.685 42.1002 51.2813C42.6385 51.4508 43.5176 51.4356 44.1473 51.2459C45.8953 50.7193 47.4412 49.1668 47.8331 47.5441C48.0209 46.7667 47.8527 45.8606 47.4783 45.6323C47.1505 45.4324 46.9189 45.5283 46.2968 46.1216C45.725 46.6669 45.3284 46.8812 44.8416 46.908C43.7769 46.9667 43.0038 46.0605 42.7646 44.4738C42.5755 43.2194 42.7535 42.1816 43.3768 40.9041C43.886 39.8603 44.4173 39.1394 45.3965 38.1636C46.6851 36.8795 48.0664 36.0245 49.5721 35.5792C50.4718 35.3131 51.0569 35.421 51.5801 35.9495C51.8901 36.2626 52.0675 36.5953 52.2165 37.1429C52.3212 37.5278 52.3345 37.6888 52.3323 38.5499C52.3307 39.1957 52.2506 39.839 52.0937 40.4655L52.0095 40.8017C51.8333 41.5054 51.5394 42.6914 51.3566 43.4373C51.1738 44.1833 50.8774 45.3923 50.6979 46.1242C49.8537 49.5667 49.6548 50.4065 49.577 50.8581C49.531 51.1255 49.4713 51.4364 49.4444 51.549C49.4175 51.6616 49.3244 52.0876 49.2376 52.4958C48.643 55.2903 47.7899 58.0046 47.0261 59.5327C46.4965 60.5919 46.1035 61.1015 45.424 61.61C44.8582 62.0334 44.3851 62.5269 44.2203 62.8657C44.0665 63.1819 44.0247 63.723 44.1374 63.9389C44.1801 64.0206 44.2835 64.1526 44.3673 64.2323C44.5995 64.453 44.8395 64.4626 45.4366 64.2754C47.4319 63.6495 48.941 63.2636 50.4677 62.9887C51.8923 62.7323 52.5062 62.465 53.1674 61.8133C53.8644 61.1263 54.2598 60.2549 54.5621 58.7394C54.9809 56.6403 55.4022 54.6948 56.4128 50.1928C56.5233 49.7002 56.6572 49.1014 56.7104 48.8621C56.7635 48.6229 57.1207 47.0223 57.504 45.3053C59.1357 37.9963 59.1765 37.7933 59.2063 36.827C59.2324 35.9822 59.1912 35.5987 59.0064 34.9675C58.884 34.5491 58.542 33.8379 58.305 33.5089C57.4649 32.3427 56.07 31.5883 54.5676 31.4877C54.3252 31.4714 54.0463 31.4511 53.9478 31.4426C53.8493 31.434 53.4987 31.445 53.1687 31.4669ZM88.1078 31.9937C87.8914 32.088 87.6306 32.4021 87.467 32.7653C87.0629 33.6623 87.0101 35.0418 87.3211 36.5796C87.4521 37.2275 87.7213 38.0883 87.7752 38.032C87.8823 37.9202 88.5379 36.743 88.8549 36.0934C89.373 35.0316 89.5776 34.3823 89.6073 33.7064C89.6267 33.266 89.6136 33.1141 89.5393 32.9131C89.4007 32.5379 89.1505 32.2594 88.7912 32.0798C88.445 31.9068 88.3383 31.8933 88.1078 31.9937Z" fill="black" fill-opacity="0.907"/>
<path d="M53.1687 31.4669C50.3323 31.6551 47.5484 32.5964 45.372 34.1032C43.8895 35.1296 42.5403 36.4894 41.589 37.916C40.1353 40.0957 39.4018 42.386 39.3264 44.981C39.2255 48.4555 40.2071 50.685 42.1002 51.2813C42.6385 51.4508 43.5176 51.4356 44.1473 51.2459C45.8953 50.7193 47.4412 49.1668 47.8331 47.5441C48.0209 46.7667 47.8527 45.8606 47.4783 45.6323C47.1505 45.4324 46.9189 45.5283 46.2968 46.1216C45.725 46.6669 45.3284 46.8812 44.8416 46.908C43.7769 46.9667 43.0038 46.0605 42.7646 44.4738C42.5755 43.2194 42.7535 42.1816 43.3768 40.9041C43.886 39.8603 44.4173 39.1394 45.3965 38.1636C46.6851 36.8795 48.0664 36.0245 49.5721 35.5792C50.4718 35.3131 51.0569 35.421 51.5801 35.9495C51.8901 36.2626 52.0675 36.5953 52.2165 37.1429C52.3212 37.5278 52.3345 37.6888 52.3323 38.5499C52.3307 39.1957 52.2506 39.839 52.0937 40.4655L52.0095 40.8017C51.8333 41.5054 51.5394 42.6914 51.3566 43.4373C51.1738 44.1833 50.8774 45.3923 50.6979 46.1242C49.8537 49.5667 49.6548 50.4065 49.577 50.8581C49.531 51.1255 49.4713 51.4364 49.4444 51.549C49.4175 51.6616 49.3244 52.0876 49.2376 52.4958C48.643 55.2903 47.7899 58.0046 47.0261 59.5327C46.4965 60.5919 46.1035 61.1015 45.424 61.61C44.8582 62.0334 44.3851 62.5269 44.2203 62.8657C44.0665 63.1819 44.0247 63.723 44.1374 63.9389C44.1801 64.0206 44.2835 64.1526 44.3673 64.2323C44.5995 64.453 44.8395 64.4626 45.4366 64.2754C47.4319 63.6495 48.941 63.2636 50.4677 62.9887C51.8923 62.7323 52.5062 62.465 53.1674 61.8133C53.8644 61.1263 54.2598 60.2549 54.5621 58.7394C54.9809 56.6403 55.4022 54.6948 56.4128 50.1928C56.5233 49.7002 56.6572 49.1014 56.7104 48.8621C56.7635 48.6229 57.1207 47.0223 57.504 45.3053C59.1357 37.9963 59.1765 37.7933 59.2063 36.827C59.2324 35.9822 59.1912 35.5987 59.0064 34.9675C58.884 34.5491 58.542 33.8379 58.305 33.5089C57.4649 32.3427 56.07 31.5883 54.5676 31.4877C54.3252 31.4714 54.0463 31.4511 53.9478 31.4426C53.8493 31.434 53.4987 31.445 53.1687 31.4669Z" fill="#FF5F6F"/>
<path d="M65.1813 28.6816C64.0397 28.8247 62.6965 29.3048 61.7714 29.9005C60.8552 30.4905 59.9211 31.4646 59.5143 32.2545C59.3683 32.5381 59.3734 32.9291 59.5264 33.1767C59.7627 33.5591 60.3926 33.8407 60.7897 33.7415C60.8787 33.7193 61.1578 33.4762 61.5221 33.1037C62.1943 32.4162 62.3968 32.3095 63.0097 32.3203C64.064 32.3389 64.7014 33.0606 64.8513 34.4058C64.9353 35.1588 64.8535 35.7299 64.2831 38.3708C64.0004 39.6796 63.644 41.3378 63.4912 42.0555C63.3383 42.7733 63.1096 43.8416 62.9829 44.4295C62.8563 45.0173 62.6724 45.9731 62.5743 46.5533C61.9037 50.5214 61.0658 53.356 60.0595 55.0607C59.8944 55.3403 59.5076 55.7577 59.1813 56.0083C58.1936 56.7669 57.7861 57.5745 58.0902 58.1707C58.1449 58.2778 58.2487 58.4042 58.3208 58.4514C58.5618 58.6094 58.712 58.6035 59.2532 58.4151C60.7471 57.8951 62.7469 57.3298 63.9018 57.1008C65.4248 56.7989 66.2626 56.1925 66.8181 54.9902C67.0504 54.4874 67.2246 53.8736 67.3303 53.1851C67.44 52.4705 67.8487 50.2133 68.1501 48.6574C68.2783 47.996 68.4753 46.9711 68.5878 46.38C68.7931 45.3029 69.1121 43.6537 69.3007 42.6953C69.5023 41.6705 70.2205 37.9033 70.4518 36.6563C70.5824 35.9526 70.7364 35.1351 70.794 34.8395C70.9444 34.068 70.978 32.838 70.8639 32.2751C70.4781 30.3709 69.1719 29.0907 67.2412 28.7244C66.8655 28.6532 65.6156 28.6272 65.1813 28.6816Z" fill="#FF5F6F"/>
<path fill-rule="evenodd" clip-rule="evenodd" d="M76.3124 26.4986C74.4917 26.7515 73.0525 27.5157 71.9395 28.8207C71.6627 29.1453 71.4505 29.5381 71.4505 29.7261C71.4505 30.3167 72.264 30.8878 72.7461 30.6357C72.8076 30.6036 73.0425 30.401 73.2681 30.1855C73.7994 29.678 74.0714 29.5418 74.5467 29.5452C74.8992 29.5477 75.3168 29.6896 75.5468 29.8851C76.0188 30.2862 76.2373 31.1935 76.1114 32.2295C76.0789 32.4969 75.9368 33.1532 75.7956 33.688C75.5495 34.6201 74.5086 38.4959 74.0294 40.2643C73.4915 42.2493 73.1096 43.9736 72.8391 45.638C72.5813 47.2242 72.5536 47.5164 72.5523 48.6574C72.5511 49.7211 72.5556 49.7714 72.6899 50.1672C72.8645 50.6821 73.1381 51.1036 73.5555 51.5011C74.3951 52.3006 75.359 52.7355 76.5567 52.855C78.0067 52.9998 79.879 52.5352 81.3481 51.6662C82.5576 50.9507 83.3818 50.1319 84.3984 48.6357C84.5251 48.4494 84.7683 48.0959 84.9388 47.8502C85.1094 47.6046 85.6621 46.799 86.167 46.06C87.0063 44.832 87.9296 43.4903 88.1435 43.1882C88.1909 43.1211 88.2837 43.1052 88.3507 43.1526L88.3738 43.1689C88.5674 43.3056 89.0541 43.5454 89.4813 43.7146C90.1672 43.9863 91.5284 44.1969 92.1607 44.1292C92.5531 44.0871 92.7299 43.9597 92.7732 43.6874C92.8182 43.4049 92.6319 43.2439 91.7695 42.8197C91.3622 42.6194 90.8599 42.3387 90.6533 42.1958C90.2444 41.9131 89.6339 41.2903 89.5885 41.1094C89.5686 41.0299 89.6422 40.8607 89.8359 40.5407C90.107 40.093 90.1679 39.9856 90.7319 38.9593C91.9443 36.7534 92.618 34.8041 92.7381 33.1546C92.8809 31.1943 92.2585 29.7086 90.9164 28.8059C90.2291 28.3437 89.5417 28.1287 88.7266 28.1212C87.1767 28.1069 85.9075 28.9753 85.1778 30.5493C84.9889 30.9568 84.6651 31.981 84.5567 32.5141C84.2568 33.9884 84.2855 35.688 84.635 37.1425C84.894 38.2204 85.4968 39.737 85.942 40.4308C86.0382 40.5806 86.0339 40.7738 85.9312 40.9193C84.5767 42.8379 81.1486 46.7575 79.9716 47.7334C79.5059 48.1195 79.2081 48.2607 78.8537 48.2633C78.0792 48.2689 77.7266 47.6817 77.8497 46.5915C77.9023 46.1257 78.1075 45.2476 79.1728 40.9296C79.4818 39.6771 79.8757 38.0765 80.048 37.3728C81.516 31.3784 81.5328 31.3011 81.5316 30.5313C81.5293 29.0385 80.9379 27.8748 79.8111 27.1459C79.096 26.6833 78.4403 26.5012 77.3871 26.4726C76.979 26.4615 76.4953 26.4732 76.3124 26.4986ZM87.467 32.7653C87.6306 32.4021 87.8914 32.088 88.1078 31.9937C88.3383 31.8933 88.445 31.9068 88.7912 32.0798C89.1505 32.2594 89.4007 32.5379 89.5393 32.9131C89.6136 33.1141 89.6267 33.266 89.6073 33.7064C89.5776 34.3823 89.373 35.0316 88.8549 36.0934C88.5379 36.743 87.8823 37.9202 87.7752 38.032C87.7213 38.0883 87.4521 37.2275 87.3211 36.5796C87.0101 35.0418 87.0629 33.6623 87.467 32.7653Z" fill="#FF5F6F"/>
</svg>
