<svg width="132" height="88" viewBox="0 0 132 88" fill="none" xmlns="http://www.w3.org/2000/svg">
<path d="M66.0004 78.0984C84.8333 78.0984 100.1 62.8313 100.1 43.9984C100.1 25.1655 84.8333 9.89844 66.0004 9.89844C47.1675 9.89844 31.9004 25.1655 31.9004 43.9984C31.9004 62.8313 47.1675 78.0984 66.0004 78.0984Z" fill="#41474C"/>
<path d="M55.1504 62.5984V25.3984H60.8257V62.5984H55.1504ZM65.7772 62.5984V25.3984H67.194V62.5984H65.7772ZM72.6967 39.5079C72.6967 38.4465 73.6264 37.5886 74.7735 37.5886C75.9207 37.5886 76.8504 38.4482 76.8504 39.5079C76.8504 40.5692 75.9207 41.429 74.7735 41.429C73.6264 41.429 72.6967 40.5692 72.6967 39.5079ZM72.6967 48.4872C72.6967 47.4258 73.6264 46.5697 74.7735 46.5697C75.9207 46.5697 76.8504 47.4258 76.8504 48.4872C76.8504 49.5487 75.9207 50.4066 74.7735 50.4066C73.6264 50.4066 72.6967 49.5487 72.6967 48.4872Z" fill="white"/>
</svg>
