<svg width="132" height="88" viewBox="0 0 132 88" fill="none" xmlns="http://www.w3.org/2000/svg">
<rect x="29.9746" y="7.97656" width="72.05" height="72.05" rx="36.025" fill="#FF1677"/>
<path fill-rule="evenodd" clip-rule="evenodd" d="M53.0451 29.6112C48.3501 30.8412 45.5216 33.7949 46.7696 36.1645C47.5063 37.5635 48.0911 37.4089 51.4307 34.9325C54.3719 32.7518 55.7207 32.0134 57.3055 31.7162C58.5779 31.4776 59.3281 31.7446 59.6643 32.5557C60.0421 33.4674 59.4222 35.2041 57.7169 38.0095C56.4609 40.076 56.2978 40.3246 51.7978 47.0367C48.1716 52.4454 46.7203 54.9856 46.5559 56.2113C46.4376 57.0916 46.5153 57.3114 47.1801 57.9756C47.7534 58.5486 48.1653 58.7342 48.863 58.7342C50.1832 58.7342 50.8646 57.897 54.0476 52.3651C58.4322 44.7448 61.3004 40.6646 64.5583 37.4122C67.3532 34.6222 70.2724 33.1889 70.8734 34.3113C71.6143 35.6946 71.0711 36.9916 66.5336 44.6743C60.6996 54.552 60.2411 55.669 61.5848 56.725C62.3887 57.3569 63.7055 57.3972 64.2151 56.8054C64.4216 56.5657 65.1829 55.2499 65.9074 53.881C69.2523 47.5594 70.7972 44.8062 71.7907 43.3961C73.9348 40.3527 77.6223 37.5864 79.6604 37.4926C80.3986 37.4585 80.4865 37.5284 80.5507 38.2014C80.6048 38.7676 79.9764 40.0909 77.9513 43.6768C73.4446 51.656 72.81 54.889 75.2715 57.3263C76.4672 58.51 77.3369 58.845 79.2342 58.8522C80.6466 58.8574 81.2464 58.7268 82.3928 58.1643C84.714 57.0251 85.9812 55.1961 85.373 53.8626C84.9745 52.9885 84.3277 53.1172 83.2137 54.2922C82.1482 55.4156 80.1261 56.4881 79.0656 56.4918C78.2514 56.4948 77.3663 55.4666 77.3663 54.5179C77.3663 53.4358 78.3413 50.8675 79.9174 47.7973C82.2047 43.3426 83.8418 39.2885 83.8418 38.0792C83.8418 35.1217 81.2782 34.1458 77.7917 35.7763C76.8791 36.2031 75.6079 36.9522 74.9669 37.4415C74.3258 37.9306 73.7707 38.2999 73.733 38.2624C73.6952 38.2248 73.8399 37.5645 74.0541 36.7949C74.5255 35.1023 74.349 33.8969 73.4778 32.8623C71.6826 30.7304 67.5263 31.6212 64.033 34.8865L62.4376 36.3781L62.587 34.778C62.7743 32.7752 62.4122 31.6177 61.2904 30.6336C59.5791 29.1321 56.3855 28.7361 53.0451 29.6112Z" fill="white"/>
</svg>
