<svg width="132" height="88" viewBox="0 0 132 88" fill="none" xmlns="http://www.w3.org/2000/svg">
<path d="M99.9624 31.5981C99.643 30.7263 99.2171 30.0357 98.6877 29.5264C98.1554 29.0171 97.5281 28.761 96.8088 28.761C96.0894 28.761 95.5341 29.0171 95.1514 29.5264C94.7687 30.0357 94.2364 30.9507 93.5573 32.2657L90.6252 38.1931C91.3475 34.6251 91.8683 31.9578 92.1877 30.194C92.5071 28.4301 92.6653 27.1036 92.6653 26.2116C92.6653 25.5757 92.5387 24.937 92.2826 24.3011C92.0265 23.6652 91.687 23.081 91.264 22.5487C90.8382 22.0193 90.3404 21.5301 89.7649 21.2107C89.1923 20.8942 88.5881 20.6698 87.9521 20.6698H87.9493C87.6529 20.6698 87.3767 20.7763 87.1235 20.8597C86.8674 20.946 86.5911 21.1676 86.2948 21.4639C85.9984 21.7603 85.6675 22.2351 85.3078 22.8509C84.9453 23.4666 84.5108 24.2924 84.0015 25.3139L80.0508 33.221C80.3472 30.6284 80.6148 28.4646 80.8479 26.7209C81.0809 24.9801 81.2708 23.5127 81.4205 22.3243C81.5701 21.1359 81.6766 20.1576 81.7399 19.3922C81.8032 18.6268 81.8348 17.9276 81.8348 17.2889C81.8348 16.2271 81.665 15.2488 81.3255 14.3568C80.986 13.4648 80.54 12.6994 79.9875 12.0635C79.4351 11.4247 78.8394 10.9269 78.2035 10.5644C77.5676 10.2047 76.972 10.0234 76.4196 10.0234C75.9505 10.0234 75.5592 10.0982 75.2398 10.2479C74.9204 10.3975 74.6039 10.6737 74.2845 11.0766C73.9651 11.4823 73.6486 12.075 73.3292 12.8605C73.0098 13.6461 72.6387 14.6762 72.2128 15.9509L66.7314 33.1605L67.304 20.031C67.3471 18.8426 67.209 17.7262 66.8896 16.6846C66.5702 15.643 66.1444 14.751 65.615 14.0086C65.0826 13.2663 64.4784 12.6821 63.7993 12.2563C63.1203 11.8333 62.4383 11.6204 61.7592 11.6204C61.1233 11.6204 60.5047 11.8448 59.912 12.2908C59.3163 12.7368 58.7006 13.6518 58.0647 15.033C57.4288 16.4141 56.7468 18.411 56.0246 21.0237C55.3024 23.6364 54.4938 27.1094 53.6018 31.4456C52.9659 34.5906 52.4336 37.2234 52.0078 39.3498C51.5819 41.4762 51.1244 43.1739 50.6381 44.4486C50.149 45.7232 49.5649 46.6354 48.8858 47.1878C48.2067 47.7403 47.2917 48.0165 46.1436 48.0165C45.1653 48.0165 44.1582 47.8784 43.1166 47.6022C42.075 47.3259 41.0881 46.9749 40.1529 46.549C39.2178 46.1232 38.3891 45.6369 37.6668 45.0845C36.9446 44.532 36.3922 43.9795 36.0095 43.4271C37.0712 43.0444 38.3028 42.8545 39.7069 42.8545C40.8118 42.8545 41.8851 42.9293 42.9267 43.0789C43.9683 43.2285 44.7654 43.3005 45.3178 43.3005C46.1235 43.3005 46.5292 42.9178 46.5292 42.1524C46.5292 41.6863 46.3393 41.1654 45.9566 40.59C45.5739 40.0174 45.01 39.4735 44.2676 38.9642C43.5223 38.4549 42.6102 38.0291 41.5254 37.6896C40.4407 37.35 39.1976 37.1803 37.7963 37.1803C35.6297 37.1803 33.9723 37.7011 32.8242 38.7427C31.6761 39.7843 31.1035 41.0475 31.1035 42.5351C31.1035 43.8961 31.4862 45.1391 32.2516 46.2642C33.017 47.3892 34.0471 48.3676 35.3419 49.1963C36.6367 50.0249 38.1474 50.6724 39.8681 51.1414C41.5887 51.6075 43.4044 51.8434 45.3178 51.8434C46.932 51.8434 48.3132 51.5672 49.4613 51.0148C50.6094 50.4623 51.5646 49.7286 52.33 48.8164C53.0954 47.9014 53.7227 46.8512 54.209 45.6628C54.6981 44.4744 55.0895 43.24 55.3887 41.9654L57.3655 32.2772C57.7884 30.3666 58.1711 28.6776 58.5136 27.2101C58.8531 25.7455 59.161 24.4593 59.4372 23.3544C59.7134 22.2495 59.9666 21.2827 60.2026 20.454C60.4356 19.6253 60.6572 18.9146 60.873 18.319C61.1291 18.6585 61.2557 19.7433 61.2557 21.5704C61.2557 23.3976 61.1809 25.5959 61.0341 27.9122C60.8845 30.2285 60.8097 32.5966 60.8097 35.0193C60.8097 36.1243 60.9363 37.1544 61.1924 38.1097C61.4485 39.065 61.7765 39.8936 62.1793 40.5957C62.5822 41.2978 63.0713 41.8503 63.6439 42.2531C64.2165 42.6588 64.8237 42.8574 65.4596 42.8574C66.3084 42.8574 66.9472 42.4977 67.373 41.7726C67.796 41.0504 68.3082 39.839 68.9038 38.1384L75.5966 17.6802C75.7232 18.0197 75.7865 18.552 75.7865 19.2743C75.7865 20.2526 75.6916 21.5042 75.4988 23.035C75.3089 24.5658 75.1046 26.2865 74.8945 28.197C74.6816 29.8976 74.5118 31.2989 74.3852 32.4038C74.2586 33.5087 74.1608 34.4237 74.0975 35.1459C74.0342 35.8682 73.991 36.4321 73.9709 36.835C73.9479 37.2407 73.9392 37.5889 73.9392 37.8852C73.9392 39.4994 74.2586 40.9036 74.8945 42.092C75.5304 43.2832 76.2958 43.8759 77.1878 43.8759C77.7403 43.8759 78.2294 43.6515 78.6524 43.2055C79.0754 42.7595 79.5444 42.0488 80.0537 41.0705L86.9997 27.1123C86.9997 27.6216 86.9048 28.4503 86.712 29.5983C86.5221 30.7464 86.3092 32.0412 86.0761 33.4857C85.843 34.9301 85.6186 36.3976 85.4057 37.8823C85.1927 39.37 85.0863 40.7079 85.0863 41.8992C85.0863 42.7509 85.2042 43.5048 85.4373 44.1608C85.6704 44.8197 85.9581 45.3607 86.2976 45.7865C86.6372 46.2095 87.0199 46.5289 87.4457 46.7418C87.8687 46.9548 88.2514 47.0612 88.5938 47.0612C89.1894 47.0612 89.7102 46.7217 90.1562 46.0426C90.6022 45.3636 91.1863 44.3219 91.9086 42.9207L96.1786 34.3173C96.052 37.2493 95.7729 40.2562 95.3499 43.335C94.9241 46.4167 94.3198 49.4121 93.5343 52.3211C92.7488 55.2301 91.7704 57.9924 90.6022 60.608C89.434 63.2207 88.0413 65.5053 86.4271 67.4591C84.8129 69.4128 82.9541 70.9637 80.8507 72.1118C78.7474 73.2599 76.3994 73.8325 73.8069 73.8325C73.1278 73.8325 72.5006 73.8095 71.928 73.7692C71.3554 73.726 70.7712 73.6426 70.1756 73.5131C69.58 73.3865 68.9441 73.2052 68.2622 72.9721C67.5831 72.7391 66.8378 72.4513 66.0322 72.1118C65.6495 71.942 65.2898 71.9104 64.9474 72.0168C64.6079 72.1233 64.4381 72.4715 64.4381 73.0671C64.4381 74.5979 65.2898 75.7977 66.9875 76.6696C68.688 77.5386 70.8748 77.9759 73.5508 77.9759C76.739 77.9759 79.6278 77.4033 82.2204 76.2552C84.8129 75.1072 87.1177 73.5678 89.1348 71.6342C91.1518 69.7005 92.9041 67.4274 94.3918 64.8147C95.8794 62.2021 97.0994 59.4167 98.0575 56.4645C99.0128 53.5095 99.7236 50.4824 100.193 47.3806C100.659 44.2788 100.895 41.2403 100.895 38.265C100.895 36.9904 100.82 35.779 100.67 34.6309C100.521 33.4828 100.288 32.4757 99.9681 31.6039L99.9624 31.5981Z" fill="#00A9FF"/>
</svg>
