<svg width="132" height="88" viewBox="0 0 132 88" fill="none" xmlns="http://www.w3.org/2000/svg">
<path fill-rule="evenodd" clip-rule="evenodd" d="M61.1983 8.11328C62.0813 8.11328 62.9643 8.11328 63.7368 8.22273C75.4367 9.75443 86.4741 20.6958 91.2195 35.5759C94.0891 44.7667 94.3096 54.2858 91.7711 62.3821C89.2329 70.8067 83.9347 76.6056 77.0919 78.9035C74.9945 79.5602 72.8984 79.8883 70.801 79.8883C70.0277 79.8883 69.1458 79.8883 68.2627 79.7786C56.5626 78.356 45.5255 67.3057 40.7799 52.4257C37.9093 43.2349 37.6888 33.7158 40.2272 25.6195C42.8763 17.304 48.0637 11.3957 54.9074 9.098C57.0037 8.44155 59.1011 8.11328 61.1983 8.11328ZM77.3254 56.5834L65.4049 26.057L84.0585 53.9574L77.3254 56.5834ZM60.7393 42.0046C62.8117 42.0046 64.4911 40.3392 64.4911 38.2846C64.4911 36.2298 62.8117 34.5644 60.7393 34.5644C58.6661 34.5644 56.9866 36.2298 56.9866 38.2846C56.9866 40.3392 58.6661 42.0046 60.7393 42.0046Z" fill="#FF5924"/>
</svg>
