<svg width="132" height="88" viewBox="0 0 132 88" fill="none" xmlns="http://www.w3.org/2000/svg">
<mask id="mask0_2056_25368" style="mask-type:luminance" maskUnits="userSpaceOnUse" x="26" y="4" width="80" height="80">
<path d="M26.0195 4.01953H105.982V83.9818H26.0195V4.01953Z" fill="white"/>
</mask>
<g mask="url(#mask0_2056_25368)">
<path d="M65.7324 65.2308V29.6183L54.6226 36.0371V28.9085L82.9523 12.5216V19.6503L71.8426 26.0691V61.6822L82.9523 55.2631V62.392L54.5918 78.7784V71.6498L65.7324 65.2308ZM65.7324 65.2308L54.6226 71.6498L48.4197 68.1015L59.5295 61.6822L65.7324 65.2308ZM54.6226 71.6498V78.7784L48.4197 75.2301V68.1015L54.6226 71.6498ZM82.9523 55.2631L71.8426 61.6822L65.7324 58.133L76.8421 51.7143L82.9523 55.2631ZM65.7324 29.6183V65.2308L59.5295 61.6822V26.0691L65.7324 29.6183ZM82.9523 12.5216L54.5918 28.9085L48.3887 25.3594L76.8113 8.97266L82.9523 12.5216ZM54.6226 28.9085V36.0371L48.4197 32.4882V25.3594L54.6226 28.9085Z" fill="#FFD114"/>
<path d="M65.7328 65.2322L54.6231 71.6512L48.4199 68.1029L59.5296 61.6836L65.7328 65.2322Z" fill="url(#paint0_linear_2056_25368)"/>
<path d="M54.6231 71.6507V78.7795L48.4199 75.2312V68.1016L54.6231 71.6507Z" fill="url(#paint1_linear_2056_25368)"/>
<path d="M82.9535 55.2637L71.8437 61.6828L65.7324 58.1336L76.8421 51.7148L82.9535 55.2637Z" fill="url(#paint2_linear_2056_25368)"/>
<path d="M65.7322 29.6192V65.232L59.5293 61.6831V26.0703L65.7322 29.6192Z" fill="url(#paint3_linear_2056_25368)"/>
<path d="M82.9523 12.5216L54.5918 28.9085L48.3887 25.3594L76.8113 8.97266L82.9523 12.5216Z" fill="url(#paint4_linear_2056_25368)"/>
<path d="M54.6231 28.9083V36.0371L48.4199 32.4879V25.3594L54.6231 28.9083Z" fill="url(#paint5_linear_2056_25368)"/>
<path d="M65.7323 65.2329V29.6201L54.6226 36.0389V28.9104L82.9523 12.5234V19.6522L71.8425 26.0713V61.684L82.9523 55.265V62.3938L54.5918 78.7805V71.652L65.7323 65.2329Z" fill="url(#paint6_linear_2056_25368)"/>
<path d="M65.7327 36.749C65.5776 41.4088 65.4857 45.3897 65.4546 48.7535C65.3928 52.0865 65.3928 55.0491 65.3928 57.6105V65.017C63.9735 65.8195 62.4613 66.7141 60.8558 67.6397C59.2517 68.5962 57.1837 69.9236 54.6229 71.6209C57.5544 70.1087 59.8683 68.9053 61.5356 67.9796C63.2018 67.085 64.7141 66.2204 66.1025 65.4177C66.1025 63.042 66.1025 60.573 66.1025 57.9809C66.1025 55.3885 66.0715 52.3951 66.0096 49.0005C65.8867 45.6367 65.8245 41.5323 65.7327 36.749ZM82.9523 55.265C81.4401 55.944 80.2678 56.4995 79.434 56.9315C78.6005 57.3943 77.8599 57.7955 77.1812 58.166C76.4714 58.598 75.6998 59.03 74.8973 59.5239C74.0957 59.9867 73.0771 60.6965 71.8426 61.6532C73.447 60.9435 74.6814 60.3569 75.546 59.8941C76.4095 59.4312 77.1812 58.9992 77.891 58.5672C78.6005 58.1968 79.341 57.7647 80.1127 57.2708C80.8843 56.8699 81.81 56.1601 82.9523 55.265ZM82.9523 12.5234C78.1068 15.1774 74.0027 17.4611 70.6084 19.3744C67.2138 21.2878 64.2204 22.9541 61.6585 24.4356C59.0966 25.9167 56.628 27.3365 54.252 28.6942C54.252 29.5893 54.252 30.5769 54.283 31.626C54.3141 32.6754 54.406 34.1565 54.5919 36.0389C54.7769 34.3727 54.8999 33.0455 54.8999 32.0272C54.9307 31.0089 54.9307 30.0522 54.9307 29.1573C57.3075 27.7686 59.7764 26.349 62.3062 24.8984C64.837 23.4172 67.7688 21.7198 71.071 19.7447C74.3734 17.7697 78.3535 15.3317 82.9523 12.5234Z" fill="white"/>
</g>
<defs>
<linearGradient id="paint0_linear_2056_25368" x1="54.2802" y1="71.5022" x2="61.3897" y2="59.2449" gradientUnits="userSpaceOnUse">
<stop stop-color="#FFEA6E"/>
<stop offset="1" stop-color="#FF9023"/>
</linearGradient>
<linearGradient id="paint1_linear_2056_25368" x1="49.9723" y1="76.1247" x2="53.0638" y2="70.7963" gradientUnits="userSpaceOnUse">
<stop stop-color="#FF552D"/>
<stop offset="1" stop-color="#FF9023"/>
</linearGradient>
<linearGradient id="paint2_linear_2056_25368" x1="71.5308" y1="61.5607" x2="77.094" y2="51.9681" gradientUnits="userSpaceOnUse">
<stop stop-color="#FF9023"/>
<stop offset="1" stop-color="#FFEA6E"/>
</linearGradient>
<linearGradient id="paint3_linear_2056_25368" x1="54.8925" y1="59.0073" x2="70.3701" y2="32.3224" gradientUnits="userSpaceOnUse">
<stop stop-color="#FF9023"/>
<stop offset="1" stop-color="#FF552D"/>
</linearGradient>
<linearGradient id="paint4_linear_2056_25368" x1="58.534" y1="31.2576" x2="72.7531" y2="6.7432" gradientUnits="userSpaceOnUse">
<stop stop-color="#FFF9BD"/>
<stop offset="1" stop-color="#FFF9BD"/>
</linearGradient>
<linearGradient id="paint5_linear_2056_25368" x1="49.9682" y1="33.3899" x2="53.0589" y2="28.0604" gradientUnits="userSpaceOnUse">
<stop stop-color="#FF9023"/>
<stop offset="1" stop-color="#FF9023"/>
</linearGradient>
<linearGradient id="paint6_linear_2056_25368" x1="78.8042" y1="63.122" x2="60.3429" y2="30.9998" gradientUnits="userSpaceOnUse">
<stop stop-color="#FFD114"/>
<stop offset="1" stop-color="#FFEA6E"/>
</linearGradient>
</defs>
</svg>
