<svg width="132" height="88" viewBox="0 0 132 88" fill="none" xmlns="http://www.w3.org/2000/svg">
<mask id="mask0_2056_23452" style="mask-type:luminance" maskUnits="userSpaceOnUse" x="32" y="9" width="68" height="70">
<path d="M99.5292 9.34766H32.4727V78.6496H99.5292V9.34766Z" fill="white"/>
</mask>
<g mask="url(#mask0_2056_23452)">
<path d="M89.5993 78.6496H42.4323C36.9545 78.6496 32.4727 74.1678 32.4727 68.69V19.3073C32.4727 13.8295 36.9545 9.34766 42.4323 9.34766H89.5993C95.0771 9.34766 99.5589 13.8295 99.5589 19.3073V68.69C99.5589 74.1678 95.0771 78.6496 89.5993 78.6496Z" fill="#B9E1EF"/>
<path d="M90.6416 43.9994C90.6416 55.8599 82.2597 65.7596 71.0957 68.1005C69.4557 68.4445 67.7565 68.626 66.015 68.626C52.4153 68.626 41.3906 57.6014 41.3906 43.9994C41.3906 30.3997 52.4153 19.375 66.015 19.375C67.041 19.375 68.0541 19.4383 69.0462 19.5607C81.2191 21.0531 90.6416 31.4254 90.6416 43.9994Z" fill="#F8A47C"/>
<path d="M87.9651 48.2404C87.9713 48.538 87.9609 48.8167 87.9313 49.0847C87.7054 51.1132 86.439 52.4809 84.2627 54.7606C84.2627 54.7606 84.2627 54.7627 84.2607 54.7627C83.8913 55.1489 83.4965 55.5626 83.0744 56.0101C81.8459 57.3147 80.3979 58.9083 78.7494 60.9831C77.6454 62.3721 75.6381 63.8012 73.3056 64.8776C72.6132 65.1964 71.8915 65.4855 71.1548 65.7325C71.1527 65.7346 71.1527 65.7346 71.1506 65.7325H71.1483C67.7586 66.8723 64.09 67.1297 61.6161 65.4981C61.2488 65.2555 60.9069 64.9704 60.5966 64.6411C60.5818 64.6264 60.5671 64.6095 60.5523 64.5947C57.0061 60.8755 49.1392 59.6893 46.3804 55.6007C46.1736 55.301 45.9984 54.9864 45.857 54.653C45.5319 53.9057 45.3652 53.0678 45.3989 52.1179C45.439 50.9865 45.4475 49.9648 45.4411 49.0362C45.439 48.7384 45.4348 48.4494 45.4306 48.1686C45.3673 44.3924 45.095 42.2711 45.8021 40.4558C45.9076 40.1815 46.0364 39.9155 46.1926 39.6516C46.3952 39.3032 46.6443 38.9592 46.9482 38.6088C48.8374 36.4305 49.8041 34.003 50.9271 31.6707L51.3344 30.8453C52.4003 28.7536 53.6964 26.7757 56.0267 25.1652H56.0288C56.4235 24.8908 56.8435 24.6291 57.3016 24.38C58.2452 23.8608 59.3323 23.3943 60.5966 22.989C64.4403 21.7542 67.3449 23.1347 70.262 24.8381C70.264 24.8381 70.264 24.8381 70.264 24.8381C70.7494 25.1209 71.237 25.4143 71.729 25.7056C74.1183 27.122 76.6175 28.5003 79.7351 28.6164C81.962 28.6987 83.391 29.6 84.3451 30.9995C84.5118 31.2443 84.6638 31.504 84.803 31.7783C85.7888 33.7098 86.1349 36.3166 86.4496 38.9994C86.4812 39.278 86.5129 39.5588 86.5445 39.8373C86.7682 41.7434 87.0067 43.6578 87.4754 45.3634C87.7857 46.4906 87.9461 47.4256 87.9651 48.2404Z" fill="#73CFEE"/>
<path d="M72.789 44.4621C72.789 48.7518 69.7869 52.3161 65.8395 53.0187C65.3746 53.1034 64.894 53.1469 64.4053 53.1469C59.7756 53.1469 56.0215 49.258 56.0215 44.4621C56.0215 39.6662 59.7756 35.7773 64.4053 35.7773C64.894 35.7773 65.3746 35.8208 65.8395 35.9055C69.7869 36.6081 72.789 40.1724 72.789 44.4621Z" fill="#61C0D1"/>
<path d="M74.1128 44.5262C74.1128 48.5252 71.2135 51.8481 67.4014 52.5031C66.9525 52.582 66.4882 52.6225 66.0162 52.6225C61.5452 52.6225 57.9199 48.9972 57.9199 44.5262C57.9199 40.055 61.5452 36.4297 66.0162 36.4297C66.4882 36.4297 66.9525 36.47 67.4014 36.5491C71.2135 37.2041 74.1128 40.527 74.1128 44.5262Z" fill="#B9E1EF"/>
<path opacity="0.28" d="M90.6423 43.9972C90.6423 55.8578 82.2604 65.7575 71.0964 68.0983C72.5781 66.6988 73.9059 65.3163 75.09 63.9506C79.4298 58.9501 81.8487 54.2008 82.8999 49.7767C82.9548 49.5424 83.0077 49.3081 83.0562 49.0758C83.5692 46.5914 83.6556 44.2105 83.415 41.9498C83.3854 41.6649 83.3496 41.3842 83.3094 41.1034C83.0098 39.039 82.4418 37.076 81.6841 35.229C81.5807 34.9758 81.4752 34.7267 81.3634 34.4798C80.3796 32.2634 79.128 30.2202 77.7539 28.3669C74.9465 24.5802 71.6327 21.5871 69.0469 19.5586C81.2198 21.0509 90.6423 31.4233 90.6423 43.9972Z" fill="#F8A47C"/>
<path opacity="0.22" d="M52.0049 40.3046C53.9815 43.172 58.4545 34.8076 62.6578 34.3605C66.8613 33.9134 69.8491 30.7071 67.339 27.4049C64.829 24.1027 47.3148 33.5009 52.0049 40.3046Z" fill="white"/>
<path opacity="0.22" d="M64.4041 58.2579C63.8751 61.9519 71.1974 59.6715 75.3482 56.8408C79.499 54.0103 80.2321 50.4008 78.5388 48.9409C76.8454 47.4811 74.3679 53.3087 71.8072 53.9119C69.2464 54.5153 64.7236 56.0257 64.4041 58.2579Z" fill="white"/>
<path d="M48.7863 47.6974C49.5236 47.6974 50.1214 47.0998 50.1214 46.3624C50.1214 45.625 49.5236 45.0273 48.7863 45.0273C48.0489 45.0273 47.4512 45.625 47.4512 46.3624C47.4512 47.0998 48.0489 47.6974 48.7863 47.6974Z" fill="#E7678E"/>
<path d="M53.927 51.8421C54.6642 51.8421 55.2621 51.2443 55.2621 50.5071C55.2621 49.7697 54.6642 49.1719 53.927 49.1719C53.1896 49.1719 52.5918 49.7697 52.5918 50.5071C52.5918 51.2443 53.1896 51.8421 53.927 51.8421Z" fill="#F8E37E"/>
<path d="M57.9192 59.1271C58.6564 59.1271 59.2543 58.5295 59.2543 57.7921C59.2543 57.0547 58.6564 56.457 57.9192 56.457C57.1818 56.457 56.584 57.0547 56.584 57.7921C56.584 58.5295 57.1818 59.1271 57.9192 59.1271Z" fill="#E7678E"/>
<path d="M63.1436 62.7054C63.881 62.7054 64.4787 62.1076 64.4787 61.3704C64.4787 60.633 63.881 60.0352 63.1436 60.0352C62.4062 60.0352 61.8086 60.633 61.8086 61.3704C61.8086 62.1076 62.4062 62.7054 63.1436 62.7054Z" fill="#F8E37E"/>
<path d="M67.7766 57.7875C68.514 57.7875 69.1117 57.1898 69.1117 56.4524C69.1117 55.715 68.514 55.1172 67.7766 55.1172C67.0392 55.1172 66.4414 55.715 66.4414 56.4524C66.4414 57.1898 67.0392 57.7875 67.7766 57.7875Z" fill="#AAD26D"/>
<path d="M52.0245 57.3888C52.7619 57.3888 53.3597 56.7912 53.3597 56.0538C53.3597 55.3164 52.7619 54.7188 52.0245 54.7188C51.2873 54.7188 50.6895 55.3164 50.6895 56.0538C50.6895 56.7912 51.2873 57.3888 52.0245 57.3888Z" fill="white"/>
<path d="M77.5481 32.4865C78.2853 32.4865 78.8832 31.8889 78.8832 31.1515C78.8832 30.414 78.2853 29.8164 77.5481 29.8164C76.8107 29.8164 76.2129 30.414 76.2129 31.1515C76.2129 31.8889 76.8107 32.4865 77.5481 32.4865Z" fill="white"/>
<path d="M84.6515 47.9281C85.3889 47.9281 85.9867 47.3303 85.9867 46.593C85.9867 45.8556 85.3889 45.2578 84.6515 45.2578C83.9142 45.2578 83.3164 45.8556 83.3164 46.593C83.3164 47.3303 83.9142 47.9281 84.6515 47.9281Z" fill="white"/>
<path d="M54.2999 43.6117C55.0373 43.6117 55.6349 43.0139 55.6349 42.2765C55.6349 41.5392 55.0373 40.9414 54.2999 40.9414C53.5625 40.9414 52.9648 41.5392 52.9648 42.2765C52.9648 43.0139 53.5625 43.6117 54.2999 43.6117Z" fill="white"/>
<path d="M75.5872 55.9671C76.3244 55.9671 76.9222 55.3693 76.9222 54.6321C76.9222 53.8947 76.3244 53.2969 75.5872 53.2969C74.8498 53.2969 74.252 53.8947 74.252 54.6321C74.252 55.3693 74.8498 55.9671 75.5872 55.9671Z" fill="white"/>
<path d="M70.5479 62.5881C71.2853 62.5881 71.883 61.9904 71.883 61.253C71.883 60.5156 71.2853 59.918 70.5479 59.918C69.8105 59.918 69.2129 60.5156 69.2129 61.253C69.2129 61.9904 69.8105 62.5881 70.5479 62.5881Z" fill="#8F6C56"/>
<path d="M81.1788 53.4396C81.9162 53.4396 82.514 52.842 82.514 52.1046C82.514 51.3672 81.9162 50.7695 81.1788 50.7695C80.4416 50.7695 79.8438 51.3672 79.8438 52.1046C79.8438 52.842 80.4416 53.4396 81.1788 53.4396Z" fill="#E7678E"/>
<path d="M77.5481 47.4398C78.2853 47.4398 78.8832 46.842 78.8832 46.1048C78.8832 45.3673 78.2853 44.7695 77.5481 44.7695C76.8107 44.7695 76.2129 45.3673 76.2129 46.1048C76.2129 46.842 76.8107 47.4398 77.5481 47.4398Z" fill="#F8E37E"/>
<path d="M83.3155 41.4904C84.0529 41.4904 84.6506 40.8928 84.6506 40.1554C84.6506 39.418 84.0529 38.8203 83.3155 38.8203C82.5781 38.8203 81.9805 39.418 81.9805 40.1554C81.9805 40.8928 82.5781 41.4904 83.3155 41.4904Z" fill="#AAD26D"/>
<path d="M75.5872 38.0529C76.3244 38.0529 76.9222 37.4553 76.9222 36.7179C76.9222 35.9805 76.3244 35.3828 75.5872 35.3828C74.8498 35.3828 74.252 35.9805 74.252 36.7179C74.252 37.4553 74.8498 38.0529 75.5872 38.0529Z" fill="#E7678E"/>
<path d="M81.9798 33.8226C82.7172 33.8226 83.3148 33.2248 83.3148 32.4874C83.3148 31.7502 82.7172 31.1523 81.9798 31.1523C81.2423 31.1523 80.6445 31.7502 80.6445 32.4874C80.6445 33.2248 81.2423 33.8226 81.9798 33.8226Z" fill="#8F6C56"/>
<path d="M71.8821 30.381C72.6193 30.381 73.2171 29.7834 73.2171 29.046C73.2171 28.3086 72.6193 27.7109 71.8821 27.7109C71.1447 27.7109 70.5469 28.3086 70.5469 29.046C70.5469 29.7834 71.1447 30.381 71.8821 30.381Z" fill="#E7678E"/>
<path d="M64.4776 34.6037C65.215 34.6037 65.8128 34.006 65.8128 33.2686C65.8128 32.5312 65.215 31.9336 64.4776 31.9336C63.7404 31.9336 63.1426 32.5312 63.1426 33.2686C63.1426 34.006 63.7404 34.6037 64.4776 34.6037Z" fill="#F8E37E"/>
<path d="M64.4054 27.1936C65.1428 27.1936 65.7406 26.5959 65.7406 25.8585C65.7406 25.1212 65.1428 24.5234 64.4054 24.5234C63.6681 24.5234 63.0703 25.1212 63.0703 25.8585C63.0703 26.5959 63.6681 27.1936 64.4054 27.1936Z" fill="white"/>
<path d="M57.2883 29.5218C58.0256 29.5218 58.6234 28.924 58.6234 28.1868C58.6234 27.4494 58.0256 26.8516 57.2883 26.8516C56.5509 26.8516 55.9531 27.4494 55.9531 28.1868C55.9531 28.924 56.5509 29.5218 57.2883 29.5218Z" fill="#E7678E"/>
<path d="M57.2883 35.7756C58.0256 35.7756 58.6234 35.1779 58.6234 34.4405C58.6234 33.7031 58.0256 33.1055 57.2883 33.1055C56.5509 33.1055 55.9531 33.7031 55.9531 34.4405C55.9531 35.1779 56.5509 35.7756 57.2883 35.7756Z" fill="#AAD26D"/>
<path d="M51.2122 39.7717C51.9494 39.7717 52.5472 39.174 52.5472 38.4366C52.5472 37.6992 51.9494 37.1016 51.2122 37.1016C50.4748 37.1016 49.877 37.6992 49.877 38.4366C49.877 39.174 50.4748 39.7717 51.2122 39.7717Z" fill="#8F6C56"/>
</g>
</svg>
