<svg width="132" height="88" viewBox="0 0 132 88" fill="none" xmlns="http://www.w3.org/2000/svg">
<path d="M72.82 64.4346C72.82 67.5229 71.5162 67.8317 67.8064 68.1408V72.4641H98.7945V68.1408C95.084 67.8317 93.4791 67.5229 93.4791 64.4346V32.421C93.4791 21.0978 87.6625 15.5391 77.9347 15.5391C68.508 15.5391 62.7921 21.0978 59.1816 25.9357L59.5823 15.5391H55.5714L33.207 21.7153V24.9064L38.5226 28.4063V64.4346C38.5226 67.5229 36.9177 67.8317 33.207 68.1408V72.4641H64.1951V68.1408C60.4854 67.8317 59.1816 67.5229 59.1816 64.4346V29.2299C61.488 28.4063 63.7947 27.8918 66.603 27.8918C71.6166 27.8918 72.82 30.465 72.82 34.274V64.4346Z" fill="#0EF275"/>
</svg>
