<svg width="132" height="88" viewBox="0 0 132 88" fill="none" xmlns="http://www.w3.org/2000/svg">
<path d="M64.691 7.13483C62.8152 7.53163 61.0477 8.30719 57.0256 10.4896C52.8412 12.7621 40.7208 19.8684 35.7428 22.9887C35.1476 23.3494 32.4422 25.0268 29.7367 26.6861C27.0493 28.3455 24.8309 29.7523 24.8309 29.8244C24.8309 29.9146 38.0695 37.9047 38.5745 38.1031C38.6467 38.1391 38.7188 34.6401 38.7188 30.3114C38.7188 22.6821 38.7368 22.4296 39.0795 22.0869C39.4403 21.7262 39.6747 21.7262 65.7371 21.7262C89.2383 21.7262 92.07 21.7622 92.4307 22.0147L92.8275 22.2853V29.8605C92.8275 34.0088 92.8636 37.4177 92.9177 37.4177C92.9538 37.4177 94.6492 36.4978 96.6512 35.3796C98.6713 34.2433 101.449 32.6922 102.838 31.9166C104.226 31.1411 105.633 30.3655 105.958 30.1671L106.553 29.8064L102.982 27.624C101.016 26.4336 97.7875 24.4677 95.8035 23.2592C85.3605 16.8744 70.679 8.05468 69.3444 7.35126C68.1359 6.72 66.9095 6.66589 64.691 7.13483Z" fill="#EFB054"/>
<path d="M24.5785 30.5461C24.4343 31.502 23.9653 37.454 23.6587 42.3779C22.7388 57.1856 22.9733 68.7469 24.308 73.9233C24.9753 76.5205 25.6246 77.3321 27.5726 77.9814C32.8211 79.7129 43.4445 80.7049 60.2723 81.0837C82.006 81.5526 99.8077 80.236 104.389 77.783C105.507 77.2059 106.048 76.4303 106.716 74.4644C107.545 72.0836 108.321 66.6727 108.7 60.7749C109.078 54.7868 108.88 42.7566 108.321 37.3277C107.96 33.7746 107.185 30.2215 106.716 29.9329C106.625 29.8788 106.175 30.0772 105.688 30.3657C104.714 30.9609 94.5772 36.6063 92.3768 37.7967C91.5832 38.2115 89.2746 39.4921 87.2365 40.6284C85.1984 41.7646 82.3667 43.3518 80.9238 44.1454C79.4809 44.939 77.4247 46.0933 76.3245 46.7066C74.4488 47.7707 69.3986 50.5844 66.2242 52.3519C65.4306 52.7848 64.6912 53.2357 64.5649 53.3259C64.4206 53.4521 61.0298 51.5223 53.4726 47.0132C47.4846 43.4601 40.3242 39.2035 37.5466 37.5622C34.769 35.9209 30.7289 33.5221 28.5826 32.2415L24.6687 29.8968L24.5785 30.5461Z" fill="#F4DB73"/>
<path d="M48.278 33.2695H83.4487V32.0069H48.278V33.2695Z" fill="#6B96EC"/>
<path d="M48.278 38.3196H83.4487V37.0571H48.278V38.3196Z" fill="#6B96EC"/>
<path d="M48.278 43.3698H65.1419C81.7172 43.3698 82.0238 43.3698 82.7272 43.0091C83.124 42.8107 83.4487 42.5221 83.4487 42.3778C83.4487 42.1433 81.2663 42.1072 65.8634 42.1072H48.278V43.3698Z" fill="#6B96EC"/>
<path d="M39.2238 22.1052C38.9172 22.2675 38.8992 22.8627 38.8992 30.2576V38.2476L51.5786 45.7868L64.2401 53.344L65.0517 52.8931C65.5026 52.6586 68.3884 51.0534 71.4546 49.3399C74.5388 47.6084 78.1641 45.5884 79.5348 44.8309L82.0238 43.4601L65.0517 43.406L48.0976 43.3699V42.1074H65.7551C80.2743 42.1074 83.4307 42.1435 83.4848 42.3419C83.5208 42.5042 85.09 41.7106 88.1381 40.0332L92.7374 37.4721L92.7915 29.969C92.8275 23.3317 92.7915 22.4479 92.539 22.1954C92.2865 21.9429 89.7073 21.9068 65.8994 21.9068C48.3141 21.9248 39.4222 21.9789 39.2238 22.1052ZM83.4487 33.2695L48.0976 33.2696V32.0071L83.4487 32.0069V33.2695ZM83.4487 38.3196L48.0976 38.3198V37.0572L83.4487 37.0571V38.3196Z" fill="white"/>
</svg>
