<svg width="132" height="88" viewBox="0 0 132 88" fill="none" xmlns="http://www.w3.org/2000/svg">
<mask id="mask0_2056_25208" style="mask-type:luminance" maskUnits="userSpaceOnUse" x="34" y="12" width="64" height="64">
<path d="M34.0156 12.0156H97.9852V75.9852H34.0156V12.0156Z" fill="white"/>
</mask>
<g mask="url(#mask0_2056_25208)">
<path d="M81.621 75.9852H50.3799C48.23 75.9913 46.1009 75.5705 44.1149 74.748C42.1279 73.9252 40.3247 72.7168 38.8094 71.1925C37.2852 69.6761 36.0757 67.8733 35.2531 65.8872C34.4305 63.9006 34.0097 61.7707 34.0157 59.621V28.3799C34.0097 26.2303 34.4305 24.1004 35.2531 22.1143C36.0757 20.1282 37.2852 18.3249 38.8094 16.8089C40.3247 15.2846 42.1279 14.076 44.1149 13.2533C46.1009 12.4305 48.23 12.0099 50.3799 12.0157H81.621C83.771 12.0097 85.9011 12.4303 87.8872 13.2531C89.8744 14.0758 91.6772 15.2844 93.1936 16.8089C94.7179 18.325 95.9263 20.1282 96.7491 22.1146C97.5716 24.1007 97.9912 26.2303 97.9855 28.3799V59.621C97.9912 61.7707 97.5705 63.9006 96.748 65.8872C95.9254 67.8733 94.7168 69.6761 93.1928 71.1925C91.6764 72.7168 89.8733 73.9252 87.8872 74.748C85.9001 75.5705 83.771 75.9913 81.621 75.9852ZM50.8477 30.3036V48.2047C50.8197 49.9336 51.2677 51.6367 52.1411 53.1288C53.0098 54.5753 54.255 55.7584 55.7444 56.5504C57.3935 57.4103 59.2328 57.8412 61.0929 57.8047C62.9541 57.8434 64.796 57.4142 66.4482 56.5564C67.9376 55.7661 69.182 54.5825 70.0457 53.1349C70.9183 51.6395 71.3649 49.9342 71.338 48.203V30.3019H68.8701V48.032C68.8921 49.3721 68.5624 50.6945 67.9137 51.8674C67.2771 52.9875 66.3363 53.9046 65.2 54.5137C63.9355 55.1776 62.5231 55.5092 61.0959 55.4779C59.6694 55.5101 58.2581 55.1781 56.9959 54.5137C55.8623 53.9019 54.9227 52.9853 54.2841 51.8674C53.6305 50.6962 53.2977 49.3732 53.3194 48.032V30.3019L50.8477 30.3036ZM78.5177 30.3036V57.3419H80.9874V30.3036H78.5177Z" fill="black"/>
</g>
</svg>
