<svg width="132" height="88" viewBox="0 0 132 88" fill="none" xmlns="http://www.w3.org/2000/svg">
<mask id="mask0_2056_25155" style="mask-type:luminance" maskUnits="userSpaceOnUse" x="34" y="12" width="64" height="64">
<path d="M34.0156 12.0156H97.9852V75.9852H34.0156V12.0156Z" fill="white"/>
</mask>
<g mask="url(#mask0_2056_25155)">
<path d="M97.6206 27.652C99.5316 19.7053 93.7154 12.0156 85.7943 12.0156C80.1969 12.0156 75.3192 15.9582 73.9687 21.5741L63.2148 63.4199H78.5576C84.298 63.4199 89.3005 59.3766 90.6849 53.6172L97.6206 27.652Z" fill="#F87534"/>
<path d="M34.3815 60.3503C32.4704 68.2975 38.2867 75.9867 46.2079 75.9867C51.8053 75.9867 56.6829 72.0446 58.0335 66.4283L68.7873 23.25H53.4445C47.7042 23.25 42.7016 27.2933 41.3172 33.0524L34.3815 60.3503Z" fill="#F87534"/>
</g>
</svg>
