<svg width="132" height="88" viewBox="0 0 132 88" fill="none" xmlns="http://www.w3.org/2000/svg">
<path fill-rule="evenodd" clip-rule="evenodd" d="M56.7292 10.0157C57.9526 10.0157 59.1492 10.3784 60.1656 11.0582C61.1831 11.7379 61.9756 12.704 62.4445 13.8343C62.9123 14.9646 63.0352 16.2085 62.7962 17.4084C62.5575 18.6083 61.9687 19.7106 61.103 20.5757C60.2384 21.4408 59.136 22.0301 57.9356 22.2686C56.7363 22.5073 55.4917 22.3846 54.3614 21.9166C53.232 21.4485 52.2654 20.6556 51.5856 19.6383C50.906 18.621 50.543 17.4251 50.543 16.2016C50.5392 15.3881 50.697 14.5821 51.007 13.8299C51.3158 13.0777 51.7715 12.3944 52.3462 11.8191C52.9221 11.244 53.6057 10.7885 54.3573 10.479C55.11 10.1694 55.9154 10.0119 56.7292 10.0157ZM62.2256 27.1977V61.5614H51.2297V27.2081L62.2256 27.1977ZM75.2834 65.6113C76.5058 65.6132 77.7004 65.9782 78.7157 66.6577C79.7313 67.3383 80.523 68.3049 80.9897 69.4344C81.4563 70.5638 81.5784 71.8062 81.3395 73.0058C81.1008 74.2042 80.512 75.3056 79.6482 76.1702C78.7836 77.0348 77.6833 77.6247 76.4849 77.8634C75.2853 78.1032 74.0429 77.9825 72.9126 77.5155C71.7829 77.0488 70.8166 76.2582 70.136 75.2437C69.4542 74.2282 69.0893 73.0338 69.0874 71.8112C69.0813 70.9958 69.2373 70.1881 69.5472 69.4335C69.856 68.6787 70.3128 67.9931 70.8895 67.4164C71.4653 66.8397 72.1509 66.383 72.9055 66.073C73.6593 65.7631 74.4678 65.6064 75.2834 65.6113ZM69.7911 27.2081H80.7867V61.5721H69.7911V27.2081Z" fill="black"/>
</svg>
