<svg width="132" height="88" viewBox="0 0 132 88" fill="none" xmlns="http://www.w3.org/2000/svg">
<path d="M33.3229 11.8365L32.834 76.6491H99.1652V11.3477L33.3229 11.8365ZM66.3402 31.6715C68.226 33.5572 68.3656 34.0461 68.4355 39.9127C68.4355 44.2429 68.645 45.8492 69.1339 45.081C69.553 44.5223 71.5784 41.1 73.6738 37.608C75.6992 34.0461 77.7944 31.1826 78.2828 31.1826C78.7022 31.1826 79.8198 31.9508 80.658 32.8587L82.1944 34.4651L79.1914 39.2143C77.5847 41.8683 74.7914 47.0365 72.9749 50.8079C69.7625 57.5826 68.0165 59.1889 65.153 58.0714C64.1752 57.7222 63.2673 51.5762 63.2673 45.3603C63.2673 43.6143 62.9879 42.1476 62.6387 42.1476C62.2894 42.1476 60.2641 45.8492 58.099 50.2492L54.1879 58.3508L52.0927 56.3952C50.9752 55.2778 50.0673 53.881 50.0673 53.3223C50.0673 51.1572 62.5688 29.7159 63.826 29.7159C64.1053 29.7159 65.153 30.6238 66.3402 31.6715Z" fill="#4046CC"/>
</svg>
