<svg width="132" height="88" viewBox="0 0 132 88" fill="none" xmlns="http://www.w3.org/2000/svg">
<path d="M102.576 29.6669C102.576 23.0994 98.5516 17.4732 92.8374 15.1224L92.295 14.9069L94.0157 11.9241C94.5122 11.0634 93.8916 9.98852 92.8985 9.98852H77.7143C76.7221 9.98852 76.1016 11.0646 76.597 11.9241L84.1892 25.0856C84.6858 25.9462 85.9269 25.9462 86.4224 25.0856L88.3346 21.7705L90.1385 22.5589C92.8588 23.7855 94.7519 26.5095 94.7519 29.6741C94.7519 30.879 94.4774 32.019 93.9882 33.0385L76.1617 71.2599H76.1629C76.003 71.5935 75.7673 71.9007 75.457 72.1547C74.5069 72.9332 73.1095 72.932 72.1594 72.1523C72.0223 72.0402 71.9009 71.9172 71.7926 71.7862L57.027 53.6666L52.9033 60.9419L65.984 77.0272C67.8973 79.2036 70.7007 80.5758 73.825 80.5758C78.1232 80.5758 81.8152 77.9771 83.417 74.262L101.094 36.3451C102.044 34.3181 102.576 32.0551 102.576 29.6669Z" fill="#F5BC41"/>
<path d="M39.7658 62.2781C39.7466 62.2781 39.7274 62.2768 39.7081 62.2768C35.3763 62.2768 31.8647 65.7917 31.8647 70.1276C31.8647 74.4633 35.3763 77.9783 39.7081 77.9783C44.0399 77.9783 47.5515 74.4633 47.5515 70.1276C47.5515 68.7058 47.1739 67.3721 46.5137 66.2226L63.6654 34.5841L63.6677 34.5853C63.693 34.5408 63.717 34.495 63.7411 34.4505L63.7543 34.4288C65.1614 31.8372 65.9611 28.8676 65.9611 25.7103C65.9611 15.6123 57.7821 7.42578 47.6935 7.42578C37.6047 7.42578 29.4258 15.6123 29.4258 25.7103C29.4258 30.2483 31.077 34.3999 33.8117 37.597L43.1328 49.0251L47.2818 41.8028L39.7093 32.5305C38.2025 30.7189 37.2283 28.2537 37.2283 25.7114C37.2283 19.9396 41.9029 15.2608 47.6694 15.2608C53.4359 15.2608 58.1104 19.9396 58.1104 25.7114C58.1104 27.5796 57.621 29.3334 56.7624 30.8514L56.7575 30.8598L39.7658 62.2781Z" fill="#F5BC41"/>
</svg>
