<svg width="132" height="88" viewBox="0 0 132 88" fill="none" xmlns="http://www.w3.org/2000/svg">
<path d="M76.152 25.5366C74.204 25.7266 72.5699 26.2586 71.425 27.0853C70.9261 27.4416 70.736 27.5271 70.3182 27.5793C70.0613 27.6126 70.0284 27.6363 69.3964 28.2207C68.3323 29.2088 67.1826 30.3585 66.9356 30.6768C66.8073 30.8431 66.6173 31.0758 66.5128 31.1993C66.1137 31.6554 65.3346 32.8716 63.9712 35.1662C63.6291 35.7457 63.1208 36.5629 62.8405 36.9904C62.3844 37.6935 62.3132 37.836 62.0899 38.4964C61.9521 38.8954 61.6623 39.7125 61.4438 40.3111C60.5032 42.9097 60.4082 43.3468 60.4889 44.5107C60.5412 45.2328 60.5364 45.3278 60.4461 45.7411C59.6813 49.1853 59.9901 52.2781 61.5911 57.1237L61.8904 58.0264L62.5697 58.7342C64.5555 60.8055 66.5222 62.0501 68.3607 62.3969C69.8429 62.6772 71.9096 62.4302 73.6958 61.7556C74.5128 61.4468 75.6813 60.834 76.5271 60.2687C77.7007 59.4848 79.1303 58.1974 79.4442 57.6463C80.437 55.8933 81.0927 54.9669 82.014 54.0025L82.4749 53.5227L83.126 51.5512C84.518 47.3374 84.9265 45.8314 85.1542 44.0024C85.2066 43.5939 85.2826 43.2423 85.3633 43.0427C85.4871 42.734 85.4871 42.7197 85.4301 42.1164C85.4013 41.7791 85.354 40.2446 85.3299 38.7102C85.3016 37.1709 85.2636 35.7362 85.2353 35.5177C85.0925 34.311 84.9645 33.4797 84.8078 32.7243C84.5036 31.2469 84.0807 29.7504 83.8243 29.2326C83.0592 27.7029 80.7361 25.9926 78.8692 25.5841C78.399 25.4795 76.9973 25.4558 76.152 25.5366ZM76.7265 27.4843C77.4582 27.6411 78.0666 27.9879 78.6601 28.5912C79.8147 29.7694 80.4653 31.5366 80.6934 34.1448C80.7602 34.8573 80.7268 36.5581 80.6461 37.0142C80.6174 37.1519 80.5937 38.5771 80.5937 40.1781C80.5891 42.7055 80.5747 43.2185 80.494 43.9976C80.1425 47.2756 79.3682 50.0832 78.0758 52.7769C77.4582 54.0643 76.8503 55.0714 75.9475 56.2971C75.6484 56.7009 75.5487 56.8767 75.5246 57.043C75.4819 57.328 75.1968 57.9219 74.9737 58.1784C74.8787 58.2876 74.6839 58.4634 74.5415 58.5679C74.3987 58.6724 73.9712 59.005 73.5863 59.3043L72.8977 59.8459L72.1424 59.7888C70.1661 59.6321 68.7551 59.0382 67.5959 57.8696C66.9308 57.195 66.4938 56.4681 66.2562 55.632C66.1422 55.2377 66.0282 54.4349 66.0282 54.0548C66.0282 53.803 65.9712 53.5702 65.7526 52.9336C65.2729 51.5084 65.2681 51.4799 65.2918 48.5868C65.3156 45.7744 65.2918 45.9834 65.7526 44.1544C65.9047 43.5511 66.052 42.886 66.0804 42.6674C66.1375 42.2019 66.394 41.342 66.8406 40.1259C67.0163 39.6413 67.2443 38.9192 67.3441 38.5201C67.6957 37.1044 68.0947 36.0023 68.7408 34.6673C69.6148 32.8526 70.6219 31.3799 71.7765 30.2112C72.4558 29.5271 72.9311 29.1518 73.7811 28.634C74.1377 28.4202 74.6649 28.0924 74.9547 27.9119C75.2445 27.7266 75.5677 27.5413 75.6767 27.4986C75.9285 27.394 76.2753 27.3893 76.7265 27.4843Z" fill="#444444"/>
<path d="M98.3005 25.8658C97.6114 25.9466 97.0462 26.1223 96.2245 26.5214C94.59 27.31 93.1409 28.6354 92.2195 30.1699C91.2217 31.8374 90.7561 33.5999 90.8322 35.4146C90.9082 37.0916 91.3265 38.5406 92.1528 40.0085C92.7658 41.0869 93.8202 42.1083 94.7754 42.5406C95.1079 42.6926 95.0555 42.6499 96.78 44.2461C98.728 46.0561 99.2599 46.5597 99.6021 46.935C99.7732 47.1203 100.072 47.4005 100.267 47.5573C101.612 48.6262 102.676 50.3602 103.013 52.023C103.122 52.574 103.198 53.4244 103.16 53.6952C103.079 54.2368 102.757 54.8971 102.015 56.0183C101.54 56.7404 100.728 57.7332 100.438 57.9518C100.153 58.1655 99.8965 58.2701 99.0507 58.5123C98.5949 58.6407 97.8015 58.8924 97.2789 59.0682L96.3381 59.3912L95.9676 59.339C94.7421 59.168 93.887 58.7546 93.1979 58.0088C92.9939 57.7903 92.7945 57.643 92.4616 57.4672C91.9868 57.2107 91.7443 56.9874 91.4354 56.5123C91.1127 56.0088 90.7659 55.2392 90.4761 54.3888L90.1862 53.5242L90.1529 52.6025C90.1148 51.5811 90.0105 50.5408 89.8964 50.0894C89.8014 49.7284 89.4735 49.0918 89.2454 48.821C88.9987 48.536 88.6185 48.3602 88.1673 48.3269C87.1031 48.2509 86.7897 48.707 86.5518 50.6738C86.3478 52.384 86.2383 53.2106 86.0482 54.3745C85.6921 56.5931 85.7728 57.4957 86.376 57.9138C86.6802 58.1228 86.875 58.1276 87.4449 57.9185C87.7157 57.8187 88.0106 57.738 88.0959 57.738C88.286 57.738 88.7516 57.8948 88.9556 58.0231C89.2264 58.1941 90.0485 58.8069 90.4283 59.1204C90.8558 59.4767 92.1528 60.3034 92.6944 60.5599C92.8845 60.6549 93.2601 60.7737 93.5211 60.8307C94.2102 60.9732 96.3335 61.263 97.4023 61.3627C98.8657 61.5005 99.5733 61.377 100.818 60.7642C101.189 60.5836 101.593 60.4221 101.759 60.3889C102.034 60.3366 102.087 60.3034 102.576 59.8521C103.198 59.2772 104.262 58.156 104.661 57.6667C105.436 56.7024 106.244 54.3365 106.666 51.8044C106.733 51.4101 106.752 50.9826 106.752 50.0562C106.756 48.973 106.742 48.7782 106.642 48.3317C106.143 46.0846 104.757 44.0846 102.4 42.2366C101.612 41.619 100.771 40.9112 100.372 40.5263C100.077 40.2461 99.9063 40.1225 99.7208 40.0655C99.2932 39.923 99.0939 39.7758 98.856 39.4337C97.4023 37.3196 96.4763 35.7614 96.0627 34.721C95.4404 33.1771 95.6542 31.5381 96.6377 30.2459C96.9038 29.8991 97.6638 29.1913 98.0153 28.968C98.9608 28.3599 100.115 28.0464 101.079 28.1319C101.902 28.2031 102.823 28.588 103.64 29.196C104.086 29.5286 104.937 30.3837 105.383 30.949C106.044 31.7851 106.219 32.1889 106.481 33.5049C106.937 35.79 107.194 36.246 107.93 36.0845C108.367 35.9942 108.69 35.6474 108.98 34.9491C109.194 34.4407 109.255 34.208 109.398 33.3243C109.792 30.9395 109.574 29.386 108.718 28.4787C108.225 27.9561 107.821 27.8896 106.794 28.1556C106.462 28.2412 106.13 28.3076 106.063 28.3076C105.84 28.3076 105.488 28.1604 104.139 27.5C101.911 26.4074 101.498 26.2411 100.485 26.0226C100.091 25.937 98.856 25.7993 98.6802 25.823C98.6473 25.8278 98.4808 25.8468 98.3005 25.8658Z" fill="#444444"/>
<path d="M62.0003 27.066C59.9195 27.18 58.6605 28.0209 57.1831 30.3012C56.6938 31.0661 56.347 31.7074 56.2994 31.9449C56.1617 32.6765 55.4633 35.6362 54.7698 38.4343C54.4039 39.9165 54.271 40.5626 54.1759 41.2752C53.9004 43.356 53.4395 45.8453 53.1355 46.9095C52.8267 47.9784 52.5037 48.6245 52.2376 48.6863C51.9431 48.7623 51.4966 48.3109 51.0927 47.5223C50.7602 46.8715 50.5369 46.3252 49.8386 44.4676C48.974 42.1731 48.5084 41.128 47.9525 40.2063C47.5487 39.5317 47.525 39.4795 46.5464 36.8238L45.6817 34.4912L44.8124 33.0566L43.943 31.6266L43.582 30.6005C43.3824 30.0399 43.1259 29.3938 43.0118 29.161C42.7363 28.6052 42.3325 28.1634 41.8954 27.9496C41.5249 27.7643 41.4014 27.7548 40.361 27.8308C39.9524 27.8594 39.6579 27.8499 39.2066 27.7881C38.3515 27.6788 35.0165 27.6741 34.7029 27.7833C34.1946 27.9638 33.2682 28.648 33.0117 29.0375C32.7884 29.3748 32.8122 29.4888 33.1542 29.6931C33.7386 30.0446 34.6982 30.2964 35.6151 30.3392L36.2089 30.3677L36.5272 30.667C36.8883 31.0043 37.1543 31.4366 37.2683 31.8736C37.5011 32.762 37.178 35.7502 36.7267 36.9046C36.6317 37.1469 36.5082 37.9118 36.1471 40.4534C35.3396 46.2064 34.9928 48.0544 34.4749 49.3323C34.3799 49.5699 34.0758 50.539 33.8003 51.4939C32.8692 54.7101 32.4321 56.0403 31.8811 57.3705C31.4772 58.3396 31.349 58.5819 30.9214 59.1805C30.1993 60.1971 29.6482 60.5582 28.9784 60.4584C28.7504 60.4251 28.6933 60.3776 27.8192 59.513C26.7551 58.4678 26.1233 57.9595 25.5247 57.6697C25.1446 57.4892 25.0591 57.4655 24.7503 57.4655C24.071 57.475 23.4249 57.8123 22.9166 58.4251C22.4177 59.0237 22.2942 59.5985 22.5222 60.2494C22.7503 60.8907 23.3726 61.5416 24.0995 61.8836C24.7646 62.2019 24.9688 62.2352 26.2325 62.2636C27.8857 62.3016 29.5817 62.1639 30.4606 61.9263C30.9167 61.8028 31.748 61.4132 32.2041 61.1092C33.0545 60.5439 33.8906 59.3277 34.4749 57.8218C34.6934 57.2612 34.6982 57.2137 34.6982 56.7149C34.7029 56.1923 34.7029 56.1875 34.9215 55.7505C35.9761 53.6507 36.5937 51.2849 36.798 48.5342C36.8597 47.6743 37.045 46.8763 37.5438 45.3465C38.1424 43.4985 38.2279 43.1232 38.4227 41.603C38.7078 39.3417 39.007 37.7217 39.2873 36.9806C39.4299 36.6006 39.7482 36.173 39.9572 36.0732C40.5225 35.8024 41.0689 36.2395 41.6959 37.4699C41.962 37.983 42.4845 39.2514 42.5605 39.546C42.5795 39.622 42.8884 40.2301 43.2447 40.8904C44.3895 43.0235 44.4751 43.2515 44.6033 44.4724L44.6841 45.2943L45.0499 46.0924C45.753 47.6269 46.5179 49.3513 47.468 51.5509C47.9953 52.7718 48.5939 54.1115 48.7934 54.5201C49.0927 55.1282 49.3208 55.7362 49.9906 57.7125C50.4467 59.0569 50.9264 60.3871 51.0595 60.6627C51.3255 61.2232 51.6343 61.6033 51.8623 61.6556C52.1474 61.7173 52.5892 61.361 52.8505 60.8575C52.9312 60.6959 52.9835 60.3729 53.1023 59.2327C53.3921 56.4868 53.5916 54.045 53.7246 51.6269L53.7959 50.3822L54.0429 49.6554C54.1807 49.2611 54.3707 48.7385 54.4705 48.501C54.5892 48.2207 54.6747 47.8929 54.727 47.5699C54.8695 46.5912 55.3731 44.691 55.9812 42.8002C56.271 41.8976 56.4373 41.2514 56.7508 39.7787C57.5394 36.116 58.214 33.3131 58.5703 32.1967C58.9741 30.9615 59.6914 30.2299 60.6843 30.0494C61.0121 29.9924 61.0216 29.9924 61.3399 30.1539C61.7437 30.3582 62.1855 30.6432 62.7366 31.0518C63.5205 31.6361 64.1856 31.8689 64.7129 31.7502C64.9362 31.7026 65.0407 31.6456 65.226 31.4603C65.5252 31.1563 65.6345 30.8048 65.6298 30.1064C65.6298 29.2893 65.4255 28.648 64.9694 28.0304C64.5751 27.5031 64.1333 27.2085 63.5395 27.085C63.1832 27.009 63.0786 27.0042 62.0003 27.066Z" fill="#444444"/>
</svg>
