<svg width="132" height="88" viewBox="0 0 132 88" fill="none" xmlns="http://www.w3.org/2000/svg">
<path d="M91.9182 16.1562H55.2739H50.8055H40.0802C38.4212 16.1562 36.8296 16.8187 35.6562 17.9977C34.4838 19.1768 33.8242 20.7761 33.8242 22.4436V65.5567C33.8242 67.224 34.4838 68.8234 35.6562 70.0026C36.8296 71.1818 38.4212 71.8438 40.0802 71.8438H50.8055H55.2739H76.7245C82.4134 71.8438 87.8691 69.5723 91.8921 65.5303C95.914 61.4875 98.1742 56.0046 98.1742 50.2873V22.4436C98.1742 20.7761 97.5145 19.1768 96.3422 17.9977C95.1687 16.8187 93.5773 16.1562 91.9182 16.1562ZM91.9182 20.6471C92.3918 20.6471 92.8464 20.8364 93.1821 21.1733C93.5168 21.5102 93.706 21.9671 93.706 22.4436V28.9735H55.2739V20.6471H91.9182ZM93.706 50.4221H83.1103C81.6552 50.4309 80.2277 50.8175 78.9646 51.5446C77.7029 52.2717 76.6491 53.3145 75.9061 54.5718H55.2739V46.2457H93.706V50.2873V50.413V50.4221ZM50.8055 46.2457V54.5628H38.2925V46.2457H50.8055ZM38.2925 41.7546V33.4642H50.8055V41.7546H38.2925ZM55.2739 41.7546V33.4642H93.706V41.7546H55.2739ZM40.0802 20.6471H50.8055V28.9735H38.2925V22.4436C38.2925 21.9671 38.4815 21.5102 38.8164 21.1733C39.1522 20.8364 39.6067 20.6471 40.0802 20.6471ZM40.0802 67.3533C39.6067 67.3533 39.1522 67.1632 38.8164 66.8269C38.4815 66.4903 38.2925 66.0325 38.2925 65.5567V59.0538H50.8055V67.3533H40.0802ZM55.2739 59.0626H74.624V59.1839V67.3533H55.2739V59.0626ZM79.0975 67.1866V59.1748C79.0694 58.0734 79.4775 57.0056 80.2307 56.2051C80.9848 55.4048 82.0235 54.937 83.1193 54.904H93.0845C92.1836 58.0916 90.3818 60.9482 87.8975 63.1268C85.4128 65.3051 82.3532 66.7125 79.0884 67.1776L79.0975 67.1866Z" fill="#3B2651"/>
</svg>
