<svg width="132" height="88" viewBox="0 0 132 88" fill="none" xmlns="http://www.w3.org/2000/svg">
<path d="M45.6429 23.1598C47.6581 24.7817 48.414 24.6579 52.1979 24.4078L87.8714 22.2856C88.6281 22.2856 87.9987 21.5378 87.7466 21.4135L81.8219 17.1701C80.6867 16.297 79.1743 15.297 76.2756 15.5472L41.7329 18.0433C40.4732 18.167 40.2215 18.791 40.7233 19.2913L45.6429 23.1598ZM47.7847 31.3964V68.5834C47.7847 70.5821 48.7928 71.3296 51.0617 71.206L90.2667 68.9585C92.5368 68.8348 92.7895 67.4602 92.7895 65.8367V28.8992C92.7895 27.2783 92.1602 26.4041 90.7706 26.5289L49.8008 28.8992C48.2889 29.025 47.7847 29.7744 47.7847 31.3964ZM86.4879 33.3911C86.7392 34.5154 86.4879 35.6387 85.351 35.765L83.462 36.1379V63.5918C81.8219 64.4651 80.3095 64.9644 79.0492 64.9644C77.0315 64.9644 76.5262 64.34 75.0148 62.4691L62.6587 43.2512V61.8451L66.5686 62.7193C66.5686 62.7193 66.5686 64.9644 63.4141 64.9644L54.7179 65.4642C54.4652 64.9644 54.7179 63.7176 55.5999 63.4676L57.8693 62.8445V38.2601L54.7184 38.01C54.4657 36.8857 55.0951 35.2648 56.8612 35.1389L66.1904 34.5159L79.0492 53.9839V36.7619L75.7708 36.3891C75.5191 35.0146 76.5262 34.0167 77.787 33.8929L86.4879 33.3911ZM38.8326 14.674L74.7626 12.0526C79.1749 11.6777 80.3101 11.9289 83.0833 13.9247L94.5525 21.9112C96.4449 23.2845 97.0758 23.6584 97.0758 25.1556V68.9585C97.0758 71.7037 96.0664 73.3273 92.5373 73.5756L50.812 76.0719C48.1629 76.1971 46.9021 75.8231 45.5147 74.0748L37.0686 63.2179C35.5551 61.2195 34.9258 59.7244 34.9258 57.9751V19.0402C34.9258 16.7952 35.9354 14.9226 38.8326 14.674Z" fill="black"/>
</svg>
