<svg width="132" height="88" viewBox="0 0 132 88" fill="none" xmlns="http://www.w3.org/2000/svg">
<path d="M29.9746 20.617C29.9746 17.2646 31.3064 14.0494 33.6769 11.6789C36.0475 9.30832 39.2626 7.97656 42.6151 7.97656L81.8002 7.97656C85.1526 7.97656 88.3678 9.30832 90.7383 11.6789C93.1089 14.0494 94.4406 17.2646 94.4406 20.617V59.8021C94.4406 63.1546 93.1089 66.3697 90.7383 68.7403C88.3678 71.1108 85.1526 72.4426 81.8002 72.4426H42.6151C39.2626 72.4426 36.0475 71.1108 33.6769 68.7403C31.3064 66.3697 29.9746 63.1546 29.9746 59.8021V20.617Z" fill="#2F3437"/>
<path d="M89.3828 10.5039L97.8775 18.2133C99.1832 19.3981 100.226 20.843 100.94 22.4551C101.654 24.0672 102.023 25.8109 102.023 27.574V67.3859C102.023 70.7384 100.692 73.9535 98.321 76.3241C95.9504 78.6946 92.7353 80.0264 89.3828 80.0264V10.5039Z" fill="#2F3437"/>
<path d="M48.9063 80.0257C47.0453 80.0259 45.2072 79.6151 43.5233 78.8227C41.8394 78.0303 40.3513 76.8759 39.1651 75.4419L32.502 67.3867H102.024C102.024 70.7389 100.692 73.9537 98.3216 76.3239C95.9511 78.6942 92.7362 80.0257 89.384 80.0257H48.9063Z" fill="#2F3437"/>
<path d="M45.1426 29.4648C45.1426 27.7885 45.8085 26.181 46.9937 24.9957C48.179 23.8104 49.7866 23.1445 51.4628 23.1445H89.3842C91.0604 23.1445 92.668 23.8104 93.8532 24.9957C95.0385 26.181 95.7044 27.7885 95.7044 29.4648V67.3861C95.7044 69.0623 95.0385 70.6699 93.8532 71.8552C92.668 73.0405 91.0604 73.7063 89.3842 73.7063H51.4628C49.7866 73.7063 48.179 73.0405 46.9937 71.8552C45.8085 70.6699 45.1426 69.0623 45.1426 67.3861V29.4648Z" fill="white"/>
<path d="M77.768 51.5056C77.768 52.02 77.9885 52.4855 78.428 52.9019C78.8689 53.2939 79.4511 53.4899 80.1759 53.4899C80.8762 53.4899 81.5751 53.3429 82.274 53.0489C83.0003 52.7549 83.6862 52.314 84.3346 51.7261V49.0069H80.5246C79.6442 49.0069 78.9583 49.2634 78.4654 49.7778C78 50.2923 77.768 50.8687 77.768 51.5056ZM80.2537 57.2739C77.9481 57.2739 76.2391 56.748 75.1252 55.6946C74.0127 54.6167 73.4551 53.2204 73.4551 51.5056C73.4551 49.6683 74.1165 48.259 75.4365 47.2791C76.7579 46.2993 78.4798 45.8093 80.6039 45.8093H84.2943C84.2683 44.9029 83.9845 44.2055 83.4398 43.7156C82.921 43.2011 82.1962 42.9446 81.2639 42.9446C80.3848 42.9446 79.4251 43.0671 78.3891 43.3121C77.353 43.5311 76.4869 43.802 75.7866 44.119L74.4263 40.152C75.1526 39.6865 76.2521 39.3061 77.7291 39.0121C79.2306 38.6937 80.3834 38.5352 81.1875 38.5352C83.4398 38.5352 85.3693 39.1591 86.976 40.4085C88.5813 41.6333 89.3839 43.2011 89.3839 45.1119V56.833H86.7814L85.5379 55.3271C84.7681 55.8802 83.9332 56.3365 83.0521 56.686C82.1683 57.0679 81.2165 57.2679 80.2537 57.2739Z" fill="#0084F4"/>
<path d="M55.6187 40.9222C56.4732 40.1138 57.5353 39.4768 58.8033 39.0114C60.1002 38.5459 61.253 38.3125 62.2617 38.3125C64.8267 38.3125 66.6395 39.0244 67.7015 40.4452C68.7895 41.8646 69.3327 43.6039 69.3327 45.6616V56.8322H64.2835V45.8821C64.2835 44.7552 63.9996 43.8978 63.429 43.3099C62.8598 42.6989 62.0312 42.392 60.9432 42.392C60.2184 42.392 59.4532 42.5764 58.6506 42.9439C57.8981 43.2726 57.1819 43.6787 56.5136 44.1558V56.8322H51.4629V39.0114H54.1057L55.6187 40.9222Z" fill="#2F3437"/>
</svg>
