<svg width="132" height="88" viewBox="0 0 132 88" fill="none" xmlns="http://www.w3.org/2000/svg">
<path fill-rule="evenodd" clip-rule="evenodd" d="M38.0776 43.9998C38.0776 52.6894 31.0332 59.7339 22.3435 59.7339C13.6538 59.7339 6.60938 52.6894 6.60938 43.9998C6.60938 35.31 13.6538 28.2656 22.3435 28.2656C31.0332 28.2656 38.0776 35.31 38.0776 43.9998ZM94.3659 28.2656H125.391V59.7339H94.3659V28.2656ZM49.6012 34.1382L55.363 28.4872L65.2245 38.238L75.1969 28.4872L81.1803 34.1382L71.2079 43.8889L81.1803 53.8613L75.1969 59.4015L65.2245 49.8723L55.363 59.4015L49.6012 53.8613L59.4627 43.8889L49.6012 34.1382Z" fill="#040707"/>
</svg>
