<svg width="132" height="88" viewBox="0 0 132 88" fill="none" xmlns="http://www.w3.org/2000/svg">
<path fill-rule="evenodd" clip-rule="evenodd" d="M81.5095 33.8508L75.4641 27.9648L64.9219 38.2117L54.2805 27.9648L48.3363 33.8508L58.8678 43.9989L48.3363 54.1552L54.2805 60.033L64.9219 49.7862L75.4641 60.033L81.5095 54.1552L70.9765 43.9989L81.5095 33.8508ZM39.7714 53.1624C44.9642 45.9181 43.0995 35.9751 35.6061 30.9543C28.1107 25.9335 17.8263 27.7365 12.6316 34.9809C7.43863 42.2258 9.30327 52.1687 16.7968 57.189C24.2922 62.2099 34.5781 60.4073 39.7714 53.1624ZM122.309 27.9648H89.1361V60.033H122.309V27.9648Z" fill="black"/>
</svg>
