<svg width="132" height="88" viewBox="0 0 132 88" fill="none" xmlns="http://www.w3.org/2000/svg">
<path d="M75.3015 53.2725C72.3429 56.2743 69.1978 59.0864 65.8848 61.6918C62.6063 59.0455 59.4634 56.2355 56.4681 53.2725C53.4668 50.3139 50.6553 47.1688 48.0505 43.8558C50.6553 40.5428 53.4668 37.3977 56.4681 34.4391C59.463 31.4762 62.6059 28.6667 65.8848 26.0215C69.1637 28.6667 72.3066 31.4762 75.3015 34.4391C78.3033 37.3972 81.1147 40.5424 83.7191 43.8558C81.1559 47.2035 78.3419 50.3514 75.3015 53.2725ZM78.1557 31.723C75.3028 28.8577 72.3025 26.143 69.1669 23.5902C77.5845 17.4522 85.4326 13.7455 90.8545 13.7455C91.5726 13.6807 92.2964 13.7611 92.9827 13.9819C93.669 14.2028 94.3038 14.5596 94.8493 15.0311C97.9882 18.17 95.562 27.1587 88.1436 38.0008H92.8511C94.3132 35.7477 95.6469 33.4138 96.8459 31.0103C100.841 22.4495 101.127 15.887 97.6984 12.3201C95.7446 10.6844 93.2583 9.82288 90.7113 9.89901C81.5793 9.89901 67.022 18.4598 53.7571 31.723C50.8918 34.5759 48.1772 37.5762 45.6243 40.7118C36.7787 28.5892 33.7831 18.3166 37.0635 15.0362C38.1779 14.1057 39.6103 13.6447 41.0583 13.7506C45.9107 13.7506 52.758 16.748 60.0349 21.7419V17.176C52.9012 12.4667 46.1955 9.89901 41.0583 9.89901C39.8352 9.83565 38.6118 10.0177 37.4602 10.4343C36.3085 10.851 35.2519 11.4939 34.3525 12.3252C30.7857 15.8921 31.217 22.4546 35.2101 31.0154C38.9185 39.0051 45.6243 47.8506 53.7571 56.1267C56.61 58.992 59.6103 61.7067 62.7459 64.2595C54.4715 70.3975 46.4802 74.1042 41.0583 74.1042C40.3399 74.1679 39.616 74.0865 38.9297 73.8648C38.2434 73.6431 37.6088 73.2855 37.0635 72.8135C33.9246 69.6746 36.3508 60.6859 43.7692 49.8421H39.205C37.7432 52.0954 36.4095 54.4292 35.2101 56.8326C31.217 65.4002 30.9289 71.961 34.3525 75.5313C35.2523 76.3619 36.309 77.0043 37.4606 77.4207C38.6122 77.8371 39.8354 78.019 41.0583 77.9558C50.1903 77.9558 64.7442 69.395 78.0125 56.1318C80.8782 53.2793 83.5929 50.279 86.1453 47.143C94.984 59.2656 97.9882 69.5382 94.7061 72.8135C94.1604 73.2845 93.5255 73.6409 92.8392 73.8614C92.1529 74.082 91.4292 74.1622 90.7113 74.0974C85.8606 74.0974 79.0116 71.1017 71.7347 66.1077V70.8153C79.0116 75.3881 85.7174 78.099 90.7113 78.099C91.9344 78.1624 93.1578 77.9804 94.3094 77.5637C95.4611 77.147 96.5177 76.5041 97.4171 75.6728C100.984 72.1059 100.556 65.5434 96.5646 56.9826C92.9943 48.8497 86.2885 40.0042 78.1557 31.723Z" fill="#111111"/>
<path d="M65.9998 49.1128C68.8247 49.1128 71.1148 46.8227 71.1148 43.9978C71.1148 41.1729 68.8247 38.8828 65.9998 38.8828C63.1748 38.8828 60.8848 41.1729 60.8848 43.9978C60.8848 46.8227 63.1748 49.1128 65.9998 49.1128Z" fill="#111111"/>
</svg>
