<svg width="132" height="88" viewBox="0 0 132 88" fill="none" xmlns="http://www.w3.org/2000/svg">
<path d="M71.8031 44.0003C71.764 45.5141 71.1352 46.9527 70.0507 48.0096C68.9662 49.0664 67.5118 49.6579 65.9976 49.6579C64.4833 49.6579 63.0289 49.0664 61.9444 48.0096C60.8599 46.9527 60.2311 45.5141 60.192 44.0003C60.2311 42.4865 60.8599 41.0479 61.9444 39.9911C63.0289 38.9342 64.4833 38.3427 65.9976 38.3427C67.5118 38.3427 68.9662 38.9342 70.0507 39.9911C71.1352 41.0479 71.764 42.4865 71.8031 44.0003Z" fill="#C7CBD2"/>
<path d="M91.1626 13.682C92.045 14.1915 92.7777 14.9244 93.2869 15.8069C93.7962 16.6895 94.064 17.6906 94.0634 18.7096V56.8442C94.0637 57.8635 93.7956 58.865 93.2861 59.7479C92.7765 60.6308 92.0435 61.364 91.1606 61.8737L83.4103 66.3478L65.9976 56.2946L76.641 50.1485V5.29688L91.1626 13.682ZM55.3599 82.7039V37.8543L66.0034 31.7082L48.5906 21.6549L40.8403 26.129C39.9572 26.6384 39.2239 27.3715 38.7143 28.2545C38.2047 29.1375 37.9368 30.1391 37.9375 31.1586V69.2931C37.9373 70.312 38.2053 71.313 38.7145 72.1955C39.2237 73.078 39.9562 73.811 40.8383 74.3207L55.3599 82.7039Z" fill="black"/>
</svg>
