<svg width="132" height="88" viewBox="0 0 132 88" fill="none" xmlns="http://www.w3.org/2000/svg">
<path d="M86.3646 79.3827C85.8647 83.1562 82.1719 86.0911 78.5113 85.0752C73.2865 83.64 67.2392 81.3985 61.8048 80.9792L53.4677 80.3342C52.1231 80.2406 50.8602 79.655 49.92 78.6893L35.5679 63.9018C34.798 63.1142 34.2832 62.113 34.0904 61.0286C33.8977 59.9442 34.0361 58.827 34.4874 57.8223C34.4874 57.8223 43.3567 38.3099 43.6953 37.294C44.0179 36.2781 45.2434 27.4249 45.953 22.6839C46.1465 21.4099 46.7593 20.265 47.7268 19.4103L64.7075 4.12289C65.2674 3.61996 65.9245 3.23732 66.6383 2.99866C67.3521 2.75999 68.1072 2.67039 68.857 2.73539C69.6068 2.8004 70.3353 3.01862 70.9974 3.37656C71.6594 3.7345 72.2409 4.22453 72.7059 4.81631L86.9613 22.9419C87.7541 23.9794 88.1846 25.2484 88.1869 26.5541C88.1869 29.9889 88.4771 37.036 90.38 41.5835C92.2345 45.9859 95.6209 50.7753 97.3948 53.1136C97.7324 53.5509 97.9325 54.0786 97.9698 54.6298C98.0072 55.181 97.88 55.7309 97.6044 56.2097C95.303 60.0714 92.8939 63.8678 90.38 67.5947C87.9611 71.1907 86.8484 75.6415 86.3485 79.3827H86.3646Z" fill="#6C31E3"/>
<path d="M51.4673 79.818C58.1434 66.2722 57.9499 56.5644 55.1118 49.6625C52.4994 43.2766 47.6454 39.2612 43.8236 36.7617C43.7268 37.1326 43.614 37.4713 43.4688 37.8099L34.4867 57.8383C34.0333 58.8414 33.8923 59.9578 34.0821 61.0421C34.272 62.1264 34.7838 63.1284 35.551 63.9178L49.9192 78.7053C50.365 79.1695 50.889 79.5516 51.4673 79.8341V79.818Z" fill="url(#paint0_radial_2201_6067)"/>
<path d="M69.6073 52.3242C71.4134 52.5177 73.1873 52.9047 74.8966 53.5497C80.3794 55.5977 85.3785 60.1936 89.4906 69.079C89.7809 68.5791 90.0711 68.0792 90.3936 67.5955C92.9047 63.8667 95.3137 60.0704 97.6181 56.2105C97.9001 55.7337 98.031 55.1826 97.9935 54.6299C97.9561 54.0772 97.7521 53.5488 97.4084 53.1144C95.6346 50.76 92.2481 45.9867 90.3936 41.5843C88.4908 37.0368 88.2166 29.9736 88.2005 26.5549C88.2005 25.2487 87.7812 23.9747 86.9749 22.9427L72.7035 4.81711C72.6259 4.72307 72.5452 4.63163 72.4616 4.54297C73.4007 7.35488 73.5126 10.3773 72.7841 13.251C72.0932 15.5713 71.141 17.8056 69.9459 19.911L68.7849 22.2009C66.9233 25.745 65.8558 29.652 65.6564 33.6503C65.4629 38.3914 66.4305 44.358 69.6073 52.3242Z" fill="url(#paint1_radial_2201_6067)"/>
<path d="M69.6082 52.3237C66.4314 44.3575 65.4477 38.3909 65.6573 33.6337C65.8567 29.6354 66.9242 25.7285 68.7857 22.1843C69.1566 21.4103 69.5598 20.6524 69.9468 19.9106C71.0918 17.6691 72.2045 15.5566 72.785 13.2344C73.5135 10.3607 73.4015 7.33831 72.4625 4.5264C71.4842 3.44824 70.1182 2.80205 68.6642 2.7295C67.2101 2.65694 65.7867 3.16396 64.7059 4.13937L47.7091 19.4268C46.7611 20.281 46.1397 21.4383 45.9514 22.7004L43.8873 36.4074L43.8066 36.7783C47.6446 39.2778 52.5147 43.2932 55.1109 49.6791C55.6475 50.9724 56.0684 52.3107 56.3688 53.6783C60.884 52.5818 65.3509 51.9045 69.6082 52.3399V52.3237Z" fill="url(#paint2_radial_2201_6067)"/>
<path d="M78.51 85.0909C82.1706 86.0908 85.8635 83.1558 86.3634 79.3824C86.7795 75.7876 87.8392 72.2972 89.4918 69.0779C85.3636 60.2086 80.3806 55.5966 74.9139 53.5486C69.1086 51.3877 62.7872 52.0972 56.3691 53.6615C57.8043 60.1763 56.9496 68.707 51.4668 79.8178C52.1118 80.108 52.773 80.3015 53.4825 80.3499C53.4825 80.3499 57.4173 80.6724 62.1261 81.0111C66.8026 81.3336 73.8012 83.7686 78.51 85.0748V85.0909Z" fill="url(#paint3_radial_2201_6067)"/>
<path fill-rule="evenodd" clip-rule="evenodd" d="M65.6899 33.3287C65.4803 38.0374 66.077 43.4558 69.2538 51.4059L68.254 51.3252C65.3997 43.0204 64.7869 38.747 64.9965 33.9737C65.2416 29.9113 66.3639 25.9502 68.2862 22.363C68.6732 21.5728 69.5763 20.0893 69.9794 19.3313C71.1244 17.1221 71.8984 15.9449 72.5596 13.913C73.4788 11.091 73.2853 9.73639 73.1724 8.41406C73.9142 13.2357 71.1244 17.4446 69.028 21.7019C67.1001 25.2898 65.9619 29.2486 65.6899 33.3125V33.3287Z" fill="url(#paint4_radial_2201_6067)"/>
<path fill-rule="evenodd" clip-rule="evenodd" d="M56.0477 50.0001C56.4347 50.8709 56.7895 51.5805 57.0153 52.6609L56.1606 52.8383C55.8219 51.5805 55.5478 50.6774 55.064 49.6131C52.1936 42.8402 47.5977 39.357 43.8242 36.793C48.3717 39.2441 53.0483 43.0821 56.0316 50.0001H56.0477Z" fill="url(#paint5_radial_2201_6067)"/>
<path fill-rule="evenodd" clip-rule="evenodd" d="M57.0629 53.5C58.6432 60.9179 56.8693 70.3032 51.6445 79.4467C56.0147 70.3839 58.1272 61.692 56.3694 53.6451L57.0629 53.5Z" fill="url(#paint6_radial_2201_6067)"/>
<path fill-rule="evenodd" clip-rule="evenodd" d="M75.1072 52.8422C83.67 56.0513 86.9759 63.0983 89.4431 68.9682C86.3792 62.8242 82.1542 56.019 74.8008 53.4873C69.1889 51.5844 64.464 51.8102 56.3688 53.6485L56.1914 52.8422C64.7704 50.891 69.2534 50.6652 75.1072 52.8422Z" fill="url(#paint7_radial_2201_6067)"/>
<defs>
<radialGradient id="paint0_radial_2201_6067" cx="0" cy="0" r="1" gradientUnits="userSpaceOnUse" gradientTransform="translate(50.7416 78.4796) rotate(-104.693) scale(37.5101 24.9931)">
<stop stop-color="white" stop-opacity="0.4"/>
<stop offset="1" stop-opacity="0.1"/>
</radialGradient>
<radialGradient id="paint1_radial_2201_6067" cx="0" cy="0" r="1" gradientUnits="userSpaceOnUse" gradientTransform="translate(82.7661 63.0318) rotate(-82.4846) scale(61.6469 45.5452)">
<stop stop-color="white" stop-opacity="0.6"/>
<stop offset="1" stop-color="white" stop-opacity="0.1"/>
</radialGradient>
<radialGradient id="paint2_radial_2201_6067" cx="0" cy="0" r="1" gradientUnits="userSpaceOnUse" gradientTransform="translate(52.9984 52.1947) rotate(-77.7949) scale(52.6314 35.9623)">
<stop stop-color="white" stop-opacity="0.8"/>
<stop offset="1" stop-color="white" stop-opacity="0.4"/>
</radialGradient>
<radialGradient id="paint3_radial_2201_6067" cx="0" cy="0" r="1" gradientUnits="userSpaceOnUse" gradientTransform="translate(78.7842 85.2845) rotate(-120.496) scale(30.5054 35.0677)">
<stop stop-color="white" stop-opacity="0.3"/>
<stop offset="1" stop-opacity="0.3"/>
</radialGradient>
<radialGradient id="paint4_radial_2201_6067" cx="0" cy="0" r="1" gradientUnits="userSpaceOnUse" gradientTransform="translate(74.7043 23.3628) rotate(102.236) scale(27.3914 18.471)">
<stop stop-color="white" stop-opacity="0"/>
<stop offset="1" stop-color="white" stop-opacity="0.2"/>
</radialGradient>
<radialGradient id="paint5_radial_2201_6067" cx="0" cy="0" r="1" gradientUnits="userSpaceOnUse" gradientTransform="translate(42.6148 38.1959) rotate(45.3237) scale(20.1832 42.9897)">
<stop stop-color="white" stop-opacity="0.2"/>
<stop offset="1" stop-color="white" stop-opacity="0.4"/>
</radialGradient>
<radialGradient id="paint6_radial_2201_6067" cx="0" cy="0" r="1" gradientUnits="userSpaceOnUse" gradientTransform="translate(59.385 48.4848) rotate(86.0397) scale(21.0139 44.6241)">
<stop stop-color="white" stop-opacity="0.2"/>
<stop offset="1" stop-color="white" stop-opacity="0.3"/>
</radialGradient>
<radialGradient id="paint7_radial_2201_6067" cx="0" cy="0" r="1" gradientUnits="userSpaceOnUse" gradientTransform="translate(89.2174 67.0653) rotate(-152.289) scale(36.0659 113.463)">
<stop stop-color="white" stop-opacity="0.2"/>
<stop offset="0.5" stop-color="white" stop-opacity="0.2"/>
<stop offset="1" stop-color="white" stop-opacity="0.3"/>
</radialGradient>
</defs>
</svg>
