<svg width="132" height="88" viewBox="0 0 132 88" fill="none" xmlns="http://www.w3.org/2000/svg">
<path d="M71.7452 37.6618L85.7005 13.4807C93.2572 18.3674 98.731 25.8868 101.061 34.5813C103.391 43.2757 102.411 52.5259 98.3107 60.5386L74.1384 46.5946C73.3949 46.1653 72.7432 45.5937 72.2205 44.9125C71.6978 44.2312 71.3144 43.4536 71.0922 42.6241C70.8699 41.7946 70.8132 40.9294 70.9252 40.078C71.0373 39.2266 71.3159 38.4055 71.7452 37.6618Z" fill="#F8B228"/>
<path d="M72.3643 49.74L96.5366 63.7006C91.6503 71.2586 84.1331 76.7327 75.442 79.0619C66.7509 81.3911 57.5049 80.4094 49.4961 76.3071L63.4514 52.1342C64.318 50.6365 65.7427 49.5435 67.4133 49.0947C69.084 48.6459 70.8644 48.878 72.3643 49.74Z" fill="#2D1D2F"/>
<path d="M46.2936 74.4908L65.3738 41.4677C65.5589 41.2121 65.6417 40.8965 65.6058 40.5829C65.5699 40.2694 65.4179 39.9806 65.1799 39.7735C64.9418 39.5664 64.6348 39.456 64.3194 39.4639C64.004 39.4719 63.703 39.5977 63.4757 39.8166C54.1905 47.4817 43.5542 53.3422 32.1154 57.0959C34.8735 64.2542 39.8397 70.3472 46.2936 74.4908Z" fill="#6AB3E3"/>
<path d="M30.9935 53.6367C52.7518 46.4711 71.1084 31.5376 82.5565 11.6892C76.286 8.47829 69.2173 7.16129 62.2117 7.89864C55.2061 8.63599 48.5661 11.3959 43.1009 15.8419C37.6357 20.288 33.5812 26.2283 31.4314 32.939C29.2817 39.6497 29.1296 46.8411 30.9935 53.6367Z" fill="#E41E26"/>
</svg>
