<svg width="132" height="88" viewBox="0 0 132 88" fill="none" xmlns="http://www.w3.org/2000/svg">
<path d="M87.1975 44.0312C87.1975 44.0644 87.1975 44.114 87.1975 44.1472L87.1311 48.7893C87.1145 49.7012 87.8441 50.4637 88.7558 50.4803L91.2427 50.5135C92.1546 50.5301 92.9172 49.8007 92.9337 48.8888L93.0001 44.2467C93.0001 44.1804 93.0001 44.0974 92.9835 44.0312H87.1975Z" fill="white" stroke="#5B5A59" stroke-width="0.0857527" stroke-miterlimit="10"/>
<path d="M71.6624 37.4799C71.6955 39.4859 72.4085 41.1935 73.1711 43.0173C73.884 44.758 74.6632 46.4822 75.9232 47.9246C77.1997 49.3835 78.9903 50.0964 80.8968 49.8311C82.8696 49.5493 84.627 48.2064 86.3016 47.2116C86.7657 46.9298 86.3512 46.217 85.887 46.4988C84.4281 47.3609 83.0189 48.3556 81.3942 48.8696C79.4378 49.4831 77.6474 48.654 76.3542 47.162C75.2103 45.8688 74.5305 44.1612 73.884 42.5695C73.1877 40.8951 72.5245 39.3202 72.5079 37.4799C72.4747 36.9494 71.6458 36.9494 71.6624 37.4799Z" fill="#333333"/>
<path d="M59.0639 67.3049C69.5203 67.3049 77.9969 58.0636 77.9969 46.6642C77.9969 35.2647 69.5203 26.0234 59.0639 26.0234C48.6075 26.0234 40.1309 35.2647 40.1309 46.6642C40.1309 58.0636 48.6075 67.3049 59.0639 67.3049Z" fill="white" stroke="#5B5A59" stroke-width="0.0857527" stroke-miterlimit="10"/>
<path d="M59.3779 59.4486C64.3184 60.5594 69.0766 60.8412 73.1716 60.4268C73.5362 59.9957 73.8844 59.5315 74.1994 59.0674C69.8889 59.6973 64.7164 59.4984 59.3283 58.2715C50.4917 56.282 43.3628 52.0877 40.1465 47.5781C40.1631 48.0922 40.2128 48.6227 40.2625 49.12C43.7109 53.5134 50.7569 57.5089 59.3779 59.4486Z" fill="#754C29" stroke="#5B5A59" stroke-width="0.0857527" stroke-miterlimit="10"/>
<path opacity="0.1" d="M62.6265 29.4404L65.1133 31.7615L63.787 35.8233C63.787 35.8233 64.533 45.0245 64.2016 48.0916C63.87 51.1587 62.2949 58.1217 62.2949 58.1217L64.2016 60.4428L66.1081 59.5311C66.1081 59.5311 67.8489 52.7337 68.0975 48.7548C68.3462 44.7759 67.7659 34.9942 67.7659 34.9942L65.6108 31.7615L67.1027 28.0312L62.6265 29.4404Z" fill="#333333"/>
<path d="M63.6226 29.4404L66.1095 31.7615L64.7831 35.8233C64.7831 35.8233 65.5293 45.0245 65.1977 48.0916C64.8661 51.1587 63.291 58.1217 63.291 58.1217L65.1977 60.4428L67.1042 59.5311C67.1042 59.5311 68.845 52.7337 69.0936 48.7548C69.3424 44.7759 68.7622 34.9942 68.7622 34.9942L66.6069 31.7615L68.099 28.0312L63.6226 29.4404Z" fill="#E2D969" stroke="#5B5A59" stroke-width="0.0857527" stroke-miterlimit="10"/>
<path opacity="0.1" d="M65.5628 27.2516C62.6614 26.8702 58.8153 26.3895 56.4942 26.207C47.2432 27.5832 40.1309 36.2042 40.1309 46.6655C40.1309 51.291 41.5235 55.5517 43.8777 59.0001C46.1158 57.4914 49.5642 56.6293 48.8845 55.1537C47.8898 52.9986 44.1927 46.0354 44.574 40.3985C44.9056 35.425 49.2161 30.617 50.7082 29.9538C52.2003 29.2908 55.6819 31.7776 59.3292 31.6118C61.8989 31.4957 66.6239 30.4513 68.0165 28.4619C67.2208 27.9976 66.4084 27.5998 65.5628 27.2516Z" fill="#333333"/>
<path d="M78.3604 15.2647C79.3053 22.0455 72.3753 28.6107 62.8757 29.9535C53.376 31.2965 44.8711 26.8699 43.9261 20.0891C42.9811 13.3084 49.911 6.74316 59.4107 5.40026C68.9104 4.05738 77.3988 8.48394 78.3604 15.2647Z" fill="#E5DFBE" stroke="#5B5A59" stroke-width="0.0857527" stroke-miterlimit="10"/>
<path d="M71.2647 20.4394C71.3643 16.1952 69.7894 12.7634 67.4351 12.4816C64.8157 12.1832 62.2294 15.9134 61.6657 20.8373C61.4998 22.2631 61.533 23.6225 61.6989 24.8494L71.2647 20.4394Z" fill="#333333"/>
<path d="M51.4369 14.5703C51.4369 15.0345 51.4534 15.449 51.2711 15.8966C51.5198 15.8635 51.7684 15.8303 52.0337 15.7971C51.4203 14.4377 51.8016 12.8958 51.6358 11.4701C51.5861 11.0722 51.0887 10.8732 50.8566 11.2545C50.21 12.3487 50.1106 13.5258 49.9448 14.7527C49.779 16.0127 49.1656 17.14 49.1656 18.4331C49.4474 18.4331 49.7127 18.4331 49.9945 18.4331C50.0111 16.0292 50.1934 13.5922 49.4806 11.2545C49.3811 10.9064 48.9169 10.8401 48.7179 11.1551C48.0713 12.2493 47.9056 13.4761 47.8392 14.7195C47.8061 15.3827 47.7895 16.0458 47.7564 16.7255C47.7232 17.3058 47.7895 18.0849 47.5574 18.599C47.8061 18.6322 48.0548 18.6652 48.32 18.6984C48.0216 17.455 48.1874 16.1121 48.1708 14.8356C48.1543 13.6253 48.1211 12.4151 47.9553 11.2048C47.889 10.7903 47.2424 10.8235 47.1595 11.2048C47.0269 11.8348 46.7782 12.415 46.6124 13.0285C46.3969 13.8408 46.1979 14.6698 45.9824 15.4987C45.5845 16.9411 44.7887 18.4331 44.8219 19.9584C44.8385 20.406 45.5679 20.5387 45.6343 20.0746C45.8166 18.8145 45.8166 17.5711 45.7835 16.2945C45.7669 15.6811 45.7503 15.0677 45.7503 14.4708C45.7503 13.9403 45.8001 13.4761 45.6177 12.9787C45.5182 12.6969 45.1535 12.5477 44.9214 12.7964C44.5401 13.2108 44.3577 13.675 44.2085 14.2221C44.0095 14.9516 43.7774 15.6479 43.5288 16.3608C43.2469 17.2063 42.5838 18.2342 42.8822 19.1461C42.9982 19.5109 43.5951 19.5771 43.678 19.1461C43.9764 17.7866 43.7443 16.394 43.7277 15.0179C43.7277 14.4874 42.8987 14.4874 42.8987 15.0179C42.9153 16.3111 43.1474 17.654 42.8656 18.9306C43.1309 18.9306 43.3961 18.9306 43.6614 18.9306C43.4293 18.2342 44.0924 17.2395 44.308 16.5764C44.4903 16.0292 44.6727 15.4821 44.8385 14.935C45.0043 14.3879 45.054 13.8077 45.4685 13.3766C45.2364 13.3103 45.0043 13.2606 44.7722 13.1943C44.938 13.6087 44.8882 14.0398 44.8716 14.4708C44.8551 15.0842 44.8882 15.6977 44.9048 16.2945C44.938 17.4882 44.9545 18.6652 44.7887 19.8589C45.054 19.8921 45.3358 19.9253 45.6011 19.975C45.5679 18.5658 46.3472 17.0903 46.7285 15.7474C46.9274 15.0345 47.1098 14.305 47.2921 13.5922C47.4745 12.8627 47.7564 12.183 47.9222 11.4535C47.6569 11.4535 47.3916 11.4535 47.1264 11.4535C47.3087 12.7798 47.3087 14.1227 47.3087 15.449C47.3253 16.6095 47.2092 17.8032 47.4745 18.947C47.5574 19.2786 48.0879 19.3782 48.2371 19.0466C48.6516 18.1015 48.5687 16.7919 48.6019 15.764C48.6516 14.3382 48.6682 12.8627 49.4142 11.6027C49.1656 11.5695 48.9169 11.5364 48.6516 11.5032C49.3479 13.7579 49.1324 16.1287 49.1324 18.4497C49.1324 18.9802 49.9613 18.9802 49.9613 18.4497C49.9613 17.2561 50.5084 16.1619 50.7074 15.0014C50.9063 13.8408 50.9229 12.7301 51.5363 11.6856C51.2711 11.6193 51.0224 11.5529 50.7571 11.4701C50.9395 13.0782 50.5748 14.6864 51.2545 16.2116C51.4203 16.5764 51.9011 16.394 52.0171 16.1121C52.2326 15.6148 52.2161 15.1008 52.2161 14.5703C52.2658 14.0398 51.4369 14.0398 51.4369 14.5703Z" fill="#333333"/>
<path d="M55.2669 8.22168C55.3166 7.29328 55.5819 6.34827 55.9632 5.50276C56.1621 5.08828 56.4108 4.67381 56.7922 4.39197C57.5879 3.79514 58.5495 4.72354 58.9143 5.40328C59.0469 5.63538 59.395 5.43644 59.2791 5.18775C58.5993 3.92776 57.1238 3.28119 56.1125 4.49145C55.3 5.4696 54.9354 6.97826 54.8691 8.22168C54.8359 8.48694 55.2503 8.48694 55.2669 8.22168Z" fill="#333333"/>
<path d="M60.9537 7.39106C60.738 6.4958 60.8873 5.50107 61.2023 4.65556C61.3847 4.12503 61.766 3.5945 62.3629 3.52819C63.2416 3.41214 63.8714 4.58924 64.1533 5.25239C64.2528 5.50107 64.6507 5.38501 64.5512 5.13634C64.0539 3.94265 62.7773 2.38425 61.451 3.52819C60.4562 4.3737 60.2905 6.34659 60.5723 7.52368C60.6221 7.75579 61.0199 7.65632 60.9537 7.39106Z" fill="#333333"/>
<path d="M73.237 60.3447C69.1255 60.8089 64.3176 60.5602 59.3273 59.4329C50.5737 57.4599 43.478 53.3318 40.2285 48.8555C40.5269 51.9723 41.4719 54.8902 42.8977 57.4268C43.4282 59.3997 45.7659 67.9211 46.5948 70.1594C47.5398 72.6959 50.955 80.6039 51.2369 80.8196C51.5187 81.0351 47.7056 82.6597 47.2082 83.0909C46.7108 83.5218 45.7161 85.3621 47.4901 84.7487C49.264 84.1353 54.3371 81.9303 54.3371 81.9303C54.3371 81.9303 51.9 75.9122 51.9663 73.5912C52.0161 71.8338 54.0221 68.4848 55.7298 66.9763C56.8073 67.1917 57.9181 67.2911 59.062 67.2911C59.8745 67.2911 60.6869 67.2415 61.466 67.1254C61.4992 67.1586 61.549 67.2083 61.6317 67.2415C63.24 67.9543 63.5052 70.8888 62.9581 74.1549C62.4111 77.4208 60.3055 81.5656 61.1344 81.3998C61.9633 81.234 64.2346 81.4496 67.8157 81.6817C71.4134 81.8972 68.7608 80.0734 68.7608 80.0734C68.7608 80.0734 63.9528 79.7916 64.4005 79.3606C64.8481 78.9129 67.1029 74.0056 68.4955 71.6845C69.8715 69.3635 68.8271 64.7214 68.8271 64.7214C68.8271 64.7214 68.4955 64.7878 67.965 64.9039C69.9544 63.7268 71.7448 62.1849 73.237 60.3447Z" fill="black" stroke="#5B5A59" stroke-width="0.0285843" stroke-miterlimit="10"/>
<path d="M87.2463 44.9438C86.0692 44.8941 84.3119 45.6069 84.4777 47.0327C84.66 48.6077 86.5665 49.2709 87.8764 48.7072C88.3571 48.4916 87.9427 47.7788 87.4618 47.9943C86.6495 48.3425 85.406 47.8617 85.3067 46.9167C85.2071 46.0546 86.6661 45.7562 87.2629 45.7894C87.7768 45.8059 87.7768 44.977 87.2463 44.9438Z" fill="#5B5A59"/>
<path d="M48.419 33.121C46.7279 34.5966 44.5064 35.4752 42.6329 36.6689C41.1077 37.6306 39.0685 39.0232 39.0022 41.0292C38.9193 42.9357 41.2237 44.3119 42.6164 45.1408C44.5395 46.3013 46.7942 47.1302 48.5184 48.5892C48.5019 48.4233 48.4687 48.2576 48.4521 48.0917C47.8884 49.2522 46.4627 49.8159 45.3519 50.3134C44.8711 50.5289 45.2856 51.2418 45.7664 51.0262C47.0098 50.4625 48.535 49.8159 49.165 48.5062C49.2479 48.3405 49.2479 48.1249 49.0987 48.0089C47.5734 46.7157 45.6337 45.9199 43.8929 44.9417C42.5169 44.1626 39.8643 42.8859 39.8145 41.0292C39.7814 40.1339 40.544 39.3548 41.1409 38.8077C41.9698 38.045 42.9479 37.4315 43.9095 36.8513C45.6006 35.84 47.5071 35.0277 48.9992 33.7179C49.4137 33.3697 48.8169 32.7728 48.419 33.121Z" fill="#333333"/>
<path d="M88.258 42.2382C88.4404 41.6081 88.3078 41.144 87.9762 40.5803C87.4953 39.7512 87.2964 38.9057 87.7937 38.0602C88.7554 36.3858 89.3688 34.6948 88.4072 32.8876C88.3408 32.7717 88.1585 32.871 88.2249 32.9872C88.8051 34.0813 88.8217 35.1257 88.4238 36.2863C88.1585 37.049 87.6612 37.679 87.3628 38.4084C86.8157 39.7678 88.4238 40.8787 88.0424 42.1884C88.0094 42.3045 88.2083 42.3707 88.258 42.2382Z" fill="#ADACAC"/>
<path d="M91.3744 41.6428C90.5621 40.8471 90.9766 40.1839 91.2917 39.2886C91.4906 38.7415 91.391 38.2773 91.043 37.8296C90.9601 37.7303 90.8108 37.8794 90.8937 37.9789C91.5071 38.7747 90.9269 39.4876 90.6948 40.2834C90.5289 40.8802 90.8108 41.3776 91.2253 41.7921C91.3248 41.8749 91.474 41.7257 91.3744 41.6428Z" fill="#ADACAC"/>
<path d="M91.0589 36.1201C91.5066 35.5067 91.4734 34.8103 91.0589 34.1969C90.9927 34.0809 90.8102 34.1969 90.8766 34.2964C91.2414 34.8601 91.2745 35.4569 90.8766 36.0206C90.7937 36.1367 90.9761 36.2361 91.0589 36.1201Z" fill="#ADACAC"/>
<path opacity="0.1" d="M56.9571 5.88281C48.7506 7.92202 43.064 13.9236 43.9261 20.0909C44.5561 24.5672 48.4522 27.999 53.774 29.4414C51.8343 28.0156 49.4137 25.8271 47.5569 23.4729C45.0701 20.3229 56.8411 20.6545 53.8569 20.1572C50.8727 19.6599 47.8885 15.1835 50.0437 12.0336C51.3203 10.1602 54.5532 7.6236 56.9571 5.88281Z" fill="#333333"/>
<path opacity="0.17" d="M70.9159 61.2709C70.9159 61.2709 64.218 61.4533 59.6423 60.3922C54.9504 59.2814 50.6897 57.6236 50.0265 57.292C49.3633 56.9604 51.1373 61.1549 53.0604 63.9235C55.3484 67.1896 59.8577 66.5761 61.2835 66.2445C62.7093 65.9129 68.8103 63.708 70.9159 61.2709Z" fill="white"/>
<path opacity="0.17" d="M68.0982 65.418C68.0982 65.418 66.3574 66.4128 65.943 66.4955C65.5285 66.5785 66.5233 69.5627 66.3574 70.889C66.1917 72.2154 63.5391 79.2613 63.5391 79.2613L63.8707 79.3442C63.8707 79.3442 68.0982 72.0495 68.4298 70.3087C68.7614 68.5679 68.6785 66.8272 68.0982 65.418Z" fill="white"/>
<path opacity="0.1" d="M87.1975 44.0312C87.1975 44.0644 87.1975 44.114 87.1975 44.1472L87.1311 48.7893C87.1145 49.7012 87.8441 50.4637 88.7558 50.4803L90.8282 50.5135C90.2479 50.0991 89.6345 49.552 89.0376 48.9552C88.2751 48.1924 88.6398 45.3409 88.8553 44.0312H87.1975Z" fill="#333333"/>
<path d="M54.0723 20.1218C54.0723 20.1218 55.1831 18.5966 56.7082 18.4141C58.2335 18.2318 59.7423 19.6908 60.3557 19.9726C60.9691 20.271 55.697 17.9831 54.0723 20.1218Z" fill="#B7B197"/>
<path d="M76.8174 18.3315C76.8174 18.3315 75.9387 17.1876 74.7616 17.0881C73.601 16.9887 72.4737 18.1326 72.0096 18.3647C71.5618 18.6133 75.5407 16.74 76.8174 18.3315Z" fill="#B7B197"/>
<path d="M56.9069 18.7159C58.262 18.7159 59.3604 17.6174 59.3604 16.2623C59.3604 14.9071 58.262 13.8086 56.9069 13.8086C55.5517 13.8086 54.4531 14.9071 54.4531 16.2623C54.4531 17.6174 55.5517 18.7159 56.9069 18.7159Z" fill="white" stroke="#5B5A59" stroke-width="0.0857527" stroke-miterlimit="10"/>
<path d="M74.3991 17.2397C75.2873 17.2397 76.0073 16.5197 76.0073 15.6316C76.0073 14.7434 75.2873 14.0234 74.3991 14.0234C73.511 14.0234 72.791 14.7434 72.791 15.6316C72.791 16.5197 73.511 17.2397 74.3991 17.2397Z" fill="white" stroke="#5B5A59" stroke-width="0.0857527" stroke-miterlimit="10"/>
<path d="M57.2564 57.359C57.273 56.0494 57.588 54.7727 57.6544 53.4631C57.7206 51.9544 57.7372 50.4623 57.7206 48.9535C57.704 46.1684 57.8035 43.3666 57.4387 40.5978C57.1071 38.1276 56.2616 35.8398 55.2006 33.5849C54.7199 32.5737 54.1396 31.6287 53.3438 30.8329C52.3988 29.921 51.2217 29.1419 50.1441 28.3958C49.6965 28.0973 49.282 28.8103 49.7296 29.1087C50.7741 29.8215 51.8185 30.5677 52.7636 31.4132C53.6091 32.1757 54.1396 33.2037 54.6038 34.215C55.698 36.5526 56.4441 38.9566 56.7259 41.5097C57.0078 44.0628 56.8917 46.6823 56.8917 49.2354C56.8917 50.628 56.8751 52.0207 56.8253 53.4133C56.7757 54.723 56.4441 55.9996 56.4275 57.3093C56.4109 57.8895 57.2398 57.8895 57.2564 57.359Z" fill="#5B5A59"/>
<path d="M72.3423 59.2824C72.6573 58.669 72.79 57.956 72.9392 57.293C73.221 56.0661 73.4199 54.8226 73.619 53.5792C74.0002 51.1256 74.3484 48.6222 74.4479 46.1353C74.5474 43.5656 74.2656 40.9461 73.8676 38.4096C73.4531 35.7072 72.8562 32.6734 71.1818 30.4351C70.9497 30.1202 70.4026 30.4351 70.6513 30.7501C72.2594 32.8888 72.8232 35.757 73.2376 38.3433C73.6521 40.8632 73.8842 43.4661 73.8344 46.0028C73.7847 48.4066 73.4199 50.8272 73.0553 53.2146C72.8728 54.4247 72.6573 55.635 72.4087 56.8287C72.2594 57.5251 72.1434 58.3374 71.8118 58.9674C71.6295 59.3322 72.16 59.6305 72.3423 59.2824Z" fill="#5B5A59"/>
</svg>
