<svg width="132" height="88" viewBox="0 0 132 88" fill="none" xmlns="http://www.w3.org/2000/svg">
<path fill-rule="evenodd" clip-rule="evenodd" d="M102.26 43.9991C102.26 64.0253 86.0253 80.2599 65.9991 80.2599C45.9728 80.2599 29.7383 64.0253 29.7383 43.9991C29.7383 23.9728 45.9728 7.73828 65.9991 7.73828C86.0253 7.73828 102.26 23.9728 102.26 43.9991ZM66.1684 49.1528C72.8515 39.7015 73.1467 33.9736 66.1684 23.8542C59.0568 34.1895 59.9736 39.6678 66.1684 49.1528ZM62.9945 61.4638C64.057 49.9371 61.4483 44.829 50.3454 39.5546C49.3543 52.0609 52.8874 56.3469 62.9945 61.4638ZM69.385 61.4638C68.3228 49.9371 70.9312 44.829 82.0344 39.5546C83.0254 52.0609 79.4924 56.3469 69.385 61.4638Z" fill="black"/>
</svg>
