<svg width="132" height="88" viewBox="0 0 132 88" fill="none" xmlns="http://www.w3.org/2000/svg">
<path fill-rule="evenodd" clip-rule="evenodd" d="M94.2914 45.4781C94.2914 56.9057 85.0269 66.1683 73.6001 66.1683C72.8277 66.1683 72.067 66.1273 71.3174 66.0434C67.2804 65.6018 63.5929 63.9969 60.5973 61.5739C59.587 60.7563 58.6533 59.8441 57.8118 58.8538C55.5918 56.2342 54.0094 53.0533 53.3117 49.5539C53.048 48.2366 52.91 46.8751 52.91 45.4811V45.4781C52.91 42.4143 53.5746 39.5065 54.7701 36.8913C58.0327 29.7498 65.2363 24.7874 73.6001 24.7874C85.0269 24.7874 94.2914 34.0508 94.2914 45.4781Z" fill="#FCCA75"/>
<path fill-rule="evenodd" clip-rule="evenodd" d="M71.9111 65.7484C67.84 65.3056 64.1217 63.6977 61.1011 61.2711L59.7478 57.3694C59.3271 57.7335 58.8392 58.1347 58.2925 58.5464C56.0524 55.9223 54.4582 52.7362 53.7537 49.2313H55.5568L56.4363 48.6926C57.6108 47.9724 58.955 47.5909 60.3256 47.5909C61.1751 47.5909 62.0166 47.7361 62.8234 48.023C64.9563 48.7792 66.6025 50.4328 67.34 52.5591L71.9111 65.7484Z" fill="#FFAA00"/>
<path fill-rule="evenodd" clip-rule="evenodd" d="M75.6866 44.819C75.4195 47.6028 73.1467 49.7002 70.4011 49.7002C70.2281 49.7002 70.0521 49.6925 69.8783 49.6743C68.5107 49.5379 67.2735 48.8834 66.3778 47.8277L57.2442 46.9186C56.5746 46.8504 55.9267 46.6106 55.369 46.2234L53.3329 44.8033V44.8002C53.3329 41.7277 53.9888 38.8113 55.1661 36.1881L59.0524 38.8957L67.5152 39.7392C68.346 39.1955 69.3335 38.8817 70.3931 38.8817C70.5669 38.8817 70.7429 38.8913 70.9156 38.9084C73.8333 39.1985 75.9734 41.8495 75.6866 44.819Z" fill="#FFAA00"/>
<path fill-rule="evenodd" clip-rule="evenodd" d="M73.6004 62.7905C63.8211 62.7905 55.8657 54.9296 55.8657 45.2672C55.8657 35.6042 63.8211 27.7431 73.6004 27.7431C83.3797 27.7431 91.3349 35.6042 91.3349 45.2672C91.3349 54.9296 83.3797 62.7905 73.6004 62.7905Z" fill="#F3B141"/>
<path fill-rule="evenodd" clip-rule="evenodd" d="M89.2251 44.6347C89.2251 53.4971 82.1353 60.6801 73.3895 60.6801C71.9873 60.6801 70.6288 60.4956 69.3343 60.1488C63.3971 58.5604 58.8255 53.5639 57.7819 47.35C57.753 47.1886 57.728 47.0253 57.709 46.8619C57.607 46.1345 57.555 45.3901 57.555 44.6347C57.555 42.5392 57.9507 40.5383 58.6715 38.7038C60.9994 32.7778 66.7106 28.5884 73.3895 28.5884C82.1353 28.5884 89.2251 35.772 89.2251 44.6347Z" fill="#B69FD4"/>
<path fill-rule="evenodd" clip-rule="evenodd" d="M70.2229 61.1017C64.3629 59.5603 59.8518 54.7115 58.8214 48.6816C59.4272 48.5188 60.0539 48.4341 60.6875 48.4341C61.515 48.4341 62.3359 48.576 63.1213 48.8565C65.2003 49.596 66.8057 51.213 67.5254 53.292L70.2229 61.1017ZM76.1081 44.7472C75.8403 47.5722 73.5575 49.7007 70.7987 49.7007C70.6249 49.7007 70.4478 49.6928 70.274 49.6746C68.9007 49.536 67.6582 48.8716 66.7587 47.8005L58.5516 46.9744C58.4515 46.241 58.3995 45.4902 58.3995 44.7282C58.3995 42.6151 58.7925 40.5971 59.5091 38.7472L67.9002 39.5923C68.7346 39.0404 69.7273 38.7222 70.7918 38.7222C70.9656 38.7222 71.1425 38.7318 71.3165 38.7489C74.2469 39.0437 76.3972 41.7337 76.1081 44.7472Z" fill="#9E7FC6"/>
<path fill-rule="evenodd" clip-rule="evenodd" d="M40.5412 12.3225C40.1464 12.1288 39.7936 11.8225 39.5317 11.4074C39.064 10.665 38.994 9.75664 39.2698 8.97683C38.94 8.84829 38.6431 8.61209 38.4302 8.27516C37.8945 7.42517 38.0984 6.26711 38.884 5.68838C39.6707 5.10906 40.7431 5.32914 41.2789 6.17914C41.4918 6.51558 41.5858 6.90121 41.5757 7.27942C42.3484 7.28863 43.105 7.69024 43.5738 8.43318C43.8357 8.84829 43.9696 9.31505 43.9926 9.78252C44.7972 9.91848 45.551 10.3993 46.0457 11.1848C46.9953 12.6916 46.6353 14.7445 45.241 15.7709C43.8467 16.7967 41.9466 16.4075 40.996 14.9007C40.5013 14.1153 40.3633 13.1817 40.5412 12.3225Z" fill="#B69FD4"/>
<path fill-rule="evenodd" clip-rule="evenodd" d="M55.8657 27.5324C55.8657 30.9144 53.3128 33.6556 50.1655 33.6556C47.017 33.6556 44.465 30.9144 44.465 27.5324C44.465 24.1513 47.017 21.41 50.1655 21.41C53.3128 21.41 55.8657 24.1513 55.8657 27.5324Z" fill="#F4A58C"/>
<path fill-rule="evenodd" clip-rule="evenodd" d="M45.9426 82.6364C47.226 82.6364 48.2655 81.5149 48.2655 80.1317V55.5835C48.2655 54.2006 47.226 53.0786 45.9426 53.0786C44.6602 53.0786 43.6208 54.2006 43.6208 55.5835V80.1317C43.6208 81.5149 44.6602 82.6364 45.9426 82.6364Z" fill="#4159A5"/>
<path fill-rule="evenodd" clip-rule="evenodd" d="M42.7761 37.763V53.3123C42.7761 57.1486 45.7327 60.2574 49.3781 60.2574C52.2626 60.2574 54.5996 57.7981 54.5996 54.7638V37.763C54.5996 34.3271 51.9538 31.5436 48.6884 31.5436C47.0552 31.5436 45.5779 32.2396 44.5084 33.3646C43.4378 34.4897 42.7761 36.0442 42.7761 37.763Z" fill="#FF4E61"/>
<path fill-rule="evenodd" clip-rule="evenodd" d="M70.9315 70.0543L65.2124 53.4025C64.6676 51.8182 63.4532 50.5865 61.8799 50.023C60.3047 49.4598 58.5865 49.6416 57.165 50.5219L54.5765 52.1246V51.3337H42.3532V53.6231C42.3532 57.4016 45.4096 60.4631 49.179 60.4631C54.5765 60.4631 59.769 54.7481 59.769 54.7481C59.9428 54.6403 60.1067 54.6628 60.2126 54.7013C60.3196 54.739 60.4595 54.8254 60.5266 55.019L66.2458 71.6716C66.5997 72.7012 67.5603 73.3469 68.5888 73.3477C68.8556 73.3477 69.1275 73.3037 69.3954 73.2119C70.6887 72.765 71.3773 71.3518 70.9315 70.0543Z" fill="#5C73BC"/>
<path fill-rule="evenodd" clip-rule="evenodd" d="M53.3321 21.4311L45.043 24.7888L42.5453 18.7422C42.0095 17.4475 42.6362 15.9689 43.9436 15.4388L47.4949 13.9994C48.8034 13.4694 50.2975 14.0893 50.8323 15.3845L53.3321 21.4311Z" fill="#FF4E61"/>
<path fill-rule="evenodd" clip-rule="evenodd" d="M53.755 21.167L45.2141 24.365L43.6208 20.7995L52.1647 17.6089L53.755 21.167Z" fill="#5C73BC"/>
<path fill-rule="evenodd" clip-rule="evenodd" d="M53.1492 41.2563L40.9249 51.7341C40.76 51.8754 40.665 52.0778 40.665 52.2907V54.442C40.665 55.0888 41.4657 55.4298 41.9694 54.9983L55.4441 43.4483L53.1492 41.2563Z" fill="#F5F6E3"/>
<path fill-rule="evenodd" clip-rule="evenodd" d="M69.9212 46.7349L57.0075 45.4894C56.6384 45.4536 56.2856 45.3269 55.9798 45.1212L47.9556 39.7158C46.9532 39.0406 46.6972 37.6937 47.3838 36.7078C48.0697 35.7222 49.4378 35.4695 50.4405 36.1452L57.9988 41.2368L70.3499 42.4281C71.5585 42.5447 72.4421 43.6032 72.3241 44.7925C72.2051 45.9816 71.1295 46.8509 69.9212 46.7349Z" fill="#FF4E61"/>
<path fill-rule="evenodd" clip-rule="evenodd" d="M73.6012 45.056C73.6012 46.9219 72.0882 48.4338 70.2229 48.4338C68.357 48.4338 66.8445 46.9219 66.8445 45.056C66.8445 43.1898 68.357 41.6779 70.2229 41.6779C72.0882 41.6779 73.6012 43.1898 73.6012 45.056Z" fill="#F4A58C"/>
<path fill-rule="evenodd" clip-rule="evenodd" d="M62.9961 19.7206C62.6843 19.7206 62.3724 19.6018 62.1346 19.3637C61.6588 18.8876 61.6588 18.1154 62.1346 17.64L63.4969 16.2774C63.9727 15.8011 64.7443 15.8011 65.2212 16.2774C65.6969 16.7536 65.6969 17.5256 65.2212 18.0012L63.8588 19.3637C63.6209 19.6018 63.3091 19.7206 62.9961 19.7206ZM37.6612 35.3441C37.3493 35.3441 37.0375 35.2253 36.7986 34.9874C36.3228 34.5111 36.3228 33.7389 36.7986 33.2632L38.1609 31.9005C38.6377 31.4248 39.4094 31.4248 39.8861 31.9005C40.3609 32.3768 40.3609 33.149 39.8851 33.6251L38.5228 34.9874C38.2849 35.2253 37.973 35.3441 37.6612 35.3441Z" fill="#FF4E61"/>
<path fill-rule="evenodd" clip-rule="evenodd" d="M35.1266 67.0147C34.8158 67.0147 34.5029 66.896 34.265 66.6581C33.7893 66.1812 33.7893 65.4096 34.265 64.9338L35.6274 63.5715C36.1042 63.0952 36.8758 63.0952 37.3516 63.5715C37.8274 64.0475 37.8274 64.8189 37.3516 65.2957L35.9892 66.6581C35.7513 66.896 35.4385 67.0147 35.1266 67.0147Z" fill="#5C73BC"/>
<path fill-rule="evenodd" clip-rule="evenodd" d="M60.4631 12.5426C60.1513 12.5426 59.8383 12.4239 59.6004 12.1859C59.1247 11.7096 59.1247 10.9375 59.6004 10.462L60.962 9.09942C61.4385 8.62323 62.2102 8.62323 62.687 9.09942C63.1628 9.57558 63.1628 10.3477 62.687 10.8233L61.3236 12.1859C61.0868 12.4239 60.7739 12.5426 60.4631 12.5426Z" fill="#95D6A4"/>
<path d="M94.5496 48.6648C94.6486 48.0334 94.2158 47.4419 93.5841 47.3437C92.9513 47.245 92.3587 47.6767 92.2586 48.3076C90.7615 57.8779 82.6174 64.8238 72.895 64.8238C71.7224 64.8238 70.5509 64.719 69.4056 64.5142L68.4541 61.7576C69.8934 62.1431 71.3795 62.3384 72.895 62.3384C82.3306 62.3384 90.0058 54.6785 90.0058 45.2628C90.0058 41.3465 88.6435 37.5204 86.1696 34.4888C83.7317 31.5015 80.3225 29.4044 76.5712 28.5846C75.9445 28.4471 75.3288 28.8428 75.1918 29.4665C75.0549 30.0905 75.4506 30.7076 76.0754 30.8437C82.8041 32.3147 87.6878 38.379 87.6878 45.2628C87.6878 53.4031 81.0521 60.0251 72.895 60.0251C71.0338 60.0251 69.2227 59.6852 67.5083 59.0161L65.3974 52.8971C64.7339 50.9715 63.2505 49.4739 61.3283 48.7897C60.3878 48.4539 59.4063 48.337 58.4449 48.4294C58.3327 47.9196 58.2488 47.4028 58.1919 46.8823L65.7703 47.6239C65.8011 47.6635 65.8311 47.704 65.8641 47.7425C66.6638 48.7143 67.7943 49.3166 69.0486 49.4389C69.2037 49.4541 69.3585 49.462 69.5114 49.462C71.9072 49.462 73.9634 47.6413 74.2013 45.2141C74.2362 44.8616 74.2293 44.5145 74.1873 44.1768L81.6986 40.9164C82.2855 40.6615 82.5552 39.9803 82.2995 39.3946C82.0446 38.8091 81.362 38.5404 80.7752 38.7951L73.3416 42.0205C72.578 40.9549 71.3746 40.2091 69.9682 40.0711C68.7887 39.9553 67.6673 40.288 66.7708 40.9271L59.0095 40.1687C60.9166 35.0196 65.6623 31.2375 71.1757 30.6009C71.8104 30.5272 72.2661 29.9533 72.1932 29.3188C72.1193 28.6839 71.5445 28.2285 70.909 28.3024C67.4954 28.6965 64.3131 30.0941 61.7061 32.3444C59.4783 34.2678 57.805 36.6963 56.8117 39.4259L54.7255 38.0006C54.7255 37.9717 54.7236 37.9439 54.7236 37.9156C54.7236 37.9131 54.7255 37.9096 54.7255 37.9096C57.7431 30.4937 64.8747 25.7023 72.895 25.7023C83.0271 25.7023 91.4122 33.2799 92.4008 43.3279C92.4596 43.9255 92.9634 44.3718 93.553 44.3718C93.5902 44.3718 93.6292 44.3696 93.6672 44.366C94.3049 44.3039 94.7705 43.7376 94.7075 43.1021C94.1789 37.7248 91.6751 32.7503 87.659 29.0953C83.6148 25.4158 78.3714 23.389 72.895 23.389C68.4469 23.389 64.1652 24.711 60.5099 27.2126C57.7161 29.1255 55.4301 31.6266 53.79 34.5367C53.524 34.0642 53.2083 33.6237 52.8475 33.2244C54.9725 31.9679 56.3458 29.6598 56.3458 27.1037C56.3458 24.6326 55.0904 22.3993 53.0604 21.1106C53.0472 21.0257 53.0244 20.9419 52.9903 20.8595L50.5136 14.8188C49.8929 13.3055 48.3716 12.4248 46.8204 12.5386C46.7222 11.8952 46.4835 11.2741 46.1087 10.7247C45.5889 9.96314 44.8382 9.38781 43.9816 9.07396C43.8727 8.70284 43.7057 8.35049 43.4868 8.02876C42.9871 7.2968 42.2474 6.77443 41.4118 6.53716C41.3259 6.28529 41.2059 6.04489 41.053 5.82079C40.1264 4.46295 38.2643 4.11051 36.9029 5.03588C36.2433 5.48405 35.7985 6.16124 35.6505 6.94378C35.5016 7.72629 35.6665 8.51911 36.1163 9.1776C36.2693 9.40109 36.4492 9.6005 36.6521 9.77223C36.5681 10.6355 36.784 11.5132 37.2838 12.2451C37.5037 12.5663 37.7715 12.8507 38.0774 13.088C38.0554 13.9989 38.3173 14.9062 38.837 15.667C39.1469 16.1213 39.5337 16.5044 39.9765 16.8093C39.7996 17.5526 39.8585 18.3298 40.1544 19.0509L42.4943 24.7577C42.2304 25.5096 42.0945 26.2963 42.0945 27.1043C42.0945 28.8255 42.7192 30.4598 43.8157 31.7339C43.24 32.0576 42.7032 32.4599 42.2234 32.9395C40.8381 34.3192 40.0755 36.1553 40.0755 38.1095V49.5817L39.3908 50.1944C38.983 50.5596 38.7491 51.0832 38.7491 51.6301V53.8505C38.7491 54.6219 39.1879 55.2964 39.8935 55.611C40.0595 55.6845 40.2294 55.7315 40.4013 55.7579C40.4133 55.8003 40.4273 55.8418 40.4413 55.8833C40.4213 55.9688 40.4093 56.0574 40.4093 56.1495V62.648C40.4093 63.2866 40.927 63.8047 41.5677 63.8047C42.2084 63.8047 42.7272 63.2866 42.7272 62.648V59.4346C43.5038 60.1353 44.4133 60.687 45.4099 61.0472V79.8297C45.4099 80.5684 44.8082 81.1693 44.0684 81.1693C43.3289 81.1693 42.7272 80.5684 42.7272 79.8297V67.9184C42.7272 67.2798 42.2074 66.762 41.5677 66.762C40.927 66.762 40.4093 67.2798 40.4093 67.9184V79.8297C40.4093 81.8438 42.0505 83.482 44.0684 83.482C46.0867 83.482 47.7279 81.8438 47.7279 79.8297V61.5142C47.8588 61.5208 47.9908 61.5244 48.1217 61.5244C50.9113 61.5244 53.5961 60.2082 55.6732 58.7961C57.2874 60.8413 59.2295 62.5644 61.4622 63.9281L64.249 72.0054C64.7578 73.4789 66.1482 74.4683 67.7094 74.4695C68.1142 74.4695 68.5151 74.4015 68.8998 74.2695C69.8244 73.9516 70.5699 73.2938 70.9978 72.4174C71.4265 71.5407 71.4876 70.5493 71.1686 69.6275L70.255 66.9779C71.1298 67.083 72.0123 67.1379 72.895 67.1379C78.1533 67.1379 83.2381 65.2506 87.2132 61.8263C91.1462 58.4364 93.7521 53.7619 94.5496 48.6648ZM41.067 52.9862V51.8017L50.5304 43.329L51.2822 43.8424L41.067 52.9862ZM52.4097 45.9401V50.039H47.8307L52.4097 45.9401ZM54.7285 46.1912C55.0693 46.4035 55.4471 46.5528 55.8401 46.6328C55.905 47.4479 56.029 48.2559 56.2089 49.0498C55.9919 49.1535 55.779 49.2679 55.5722 49.3963L54.7285 49.9161V46.1912ZM56.4118 44.3839C56.2328 44.3666 56.0609 44.3039 55.9119 44.2027L47.7809 38.6457C47.5439 38.4849 47.386 38.242 47.333 37.9613C47.281 37.6813 47.3401 37.3975 47.5018 37.1618C47.663 36.927 47.9066 36.7686 48.1877 36.7161C48.4684 36.6638 48.7533 36.7232 48.9893 36.8849L56.6486 42.1182C56.8095 42.2285 56.9965 42.2958 57.1903 42.3151L65.0985 43.0886C64.9547 43.469 64.8557 43.8729 64.8147 44.2967C64.7847 44.6025 64.7847 44.9064 64.8128 45.2056L56.4118 44.3839ZM69.5065 42.3626C69.5835 42.3626 69.6624 42.3665 69.7413 42.3742C70.3791 42.4363 70.9538 42.743 71.3605 43.2363C71.7664 43.7302 71.9565 44.3526 71.8943 44.9889C71.8313 45.625 71.5244 46.1983 71.0297 46.6045C70.535 47.0099 69.9113 47.1999 69.2747 47.1372C68.6369 47.0745 68.0611 46.7684 67.6555 46.2745C67.2485 45.7803 67.0595 45.158 67.1217 44.5225C67.2427 43.288 68.288 42.3626 69.5065 42.3626ZM44.3374 23.144L43.6818 21.5462L49.753 19.0738L50.4066 20.6655L44.3374 23.144ZM48.3675 15.6959L48.8752 16.9327L42.8041 19.4052L42.2994 18.1743C42.1595 17.8346 42.1615 17.4611 42.3034 17.1225C42.4453 16.784 42.7112 16.5207 43.052 16.3821L46.5715 14.9441C46.7423 14.8748 46.9183 14.8417 47.0912 14.8417C47.6338 14.8417 48.1497 15.164 48.3675 15.6959ZM39.1999 10.9428C38.937 10.5571 38.879 10.0644 39.047 9.62519C39.1579 9.33482 39.1469 9.01249 39.017 8.73062C38.888 8.44806 38.6501 8.22995 38.3573 8.12452C38.2643 8.09144 38.1314 8.02035 38.0324 7.87452C37.8245 7.57086 37.9035 7.15457 38.2083 6.94735C38.5132 6.74017 38.93 6.81962 39.1379 7.12327C39.2368 7.2691 39.2538 7.41785 39.2518 7.51669C39.2418 7.82755 39.3588 8.12809 39.5747 8.3523C39.7906 8.5764 40.0864 8.70403 40.3983 8.70713C40.8691 8.71192 41.3069 8.94561 41.5707 9.33124C41.7187 9.54874 41.8006 9.79451 41.8146 10.0608C41.8426 10.6077 42.2514 11.0602 42.7932 11.1452C43.3689 11.2349 43.8656 11.5482 44.1925 12.0265C44.4433 12.3952 44.5673 12.8314 44.5513 13.2694L42.1744 14.2405C41.8126 14.388 41.4838 14.5899 41.1929 14.8338C41.025 14.7025 40.8771 14.5453 40.7531 14.3645C40.4263 13.8857 40.3163 13.3098 40.4433 12.7422C40.5632 12.2079 40.2903 11.6626 39.7916 11.4367C39.5467 11.3265 39.3478 11.1602 39.1999 10.9428ZM44.4133 27.1037C44.4133 26.5507 44.5062 26.0125 44.6894 25.4999L51.3251 22.7895C52.9773 23.5903 54.0267 25.2475 54.0267 27.1037C54.0267 29.1569 52.7164 30.9713 50.7982 31.6352C49.7829 31.1019 48.6285 30.7992 47.4031 30.7992C47.0181 30.7992 46.6372 30.8291 46.2646 30.8869C45.1 29.9797 44.4133 28.5893 44.4133 27.1037ZM42.3933 38.1089C42.3933 36.7741 42.9151 35.519 43.8617 34.5752C44.8063 33.6317 46.0647 33.1125 47.4031 33.1125C49.4639 33.1125 51.2371 34.3618 52.0047 36.1413L50.2986 34.9756C49.5519 34.4655 48.6505 34.2763 47.7609 34.4426C46.8723 34.6082 46.1007 35.1101 45.5889 35.8553C45.078 36.6006 44.8882 37.4998 45.054 38.3872C45.221 39.2747 45.7237 40.0447 46.4703 40.5548L48.5625 41.984L42.3933 47.5065V38.1089ZM57.5242 57.4027C58.0379 56.9772 58.4749 56.5826 58.8167 56.2587L60.1518 60.1274C59.1923 59.3081 58.3137 58.399 57.5242 57.4027ZM68.9147 71.4029C68.7579 71.7247 68.484 71.9656 68.1452 72.0816C68.0033 72.1306 67.8562 72.1553 67.7094 72.1553C67.1365 72.1553 66.627 71.7915 66.4411 71.2519L60.6696 54.5218C60.5019 54.038 60.129 53.6616 59.6472 53.4897C59.1643 53.3175 58.6366 53.3723 58.1988 53.6423C58.108 53.6987 58.025 53.7674 57.9521 53.8469C57.9031 53.9005 53.0004 59.2111 48.1217 59.2111C45.45 59.2111 43.128 57.3345 42.5393 54.7767L45.2471 52.3526H50.7234L50.1028 52.7257C49.555 53.056 49.3781 53.7669 49.709 54.3139C49.9268 54.6741 50.3096 54.8735 50.7025 54.8735C50.9063 54.8735 51.1123 54.8199 51.3001 54.7068L54.1678 52.9807C54.1697 52.9796 54.1717 52.9785 54.1739 52.9771L54.1777 52.9741L56.7905 51.3645C57.924 50.6654 59.2944 50.5211 60.5486 50.9685C61.8043 51.4156 62.7717 52.3933 63.2054 53.6506L68.9768 70.3813C69.0937 70.7182 69.0717 71.082 68.9147 71.4029Z" fill="black"/>
<path d="M92.6244 26.5339C92.3804 26.777 92.0617 26.8986 91.7416 26.8986C91.4209 26.8986 91.0989 26.7751 90.8553 26.5287C90.3674 26.0375 90.3705 25.2433 90.8602 24.7552L92.1574 23.4627C92.6472 22.9749 93.44 22.9768 93.9268 23.4679C94.4143 23.9591 94.4124 24.7533 93.9218 25.2414L92.6244 26.5339Z" fill="black"/>
<path d="M88.5992 24.365C88.5062 24.365 88.4133 24.3521 88.3203 24.3259C87.7538 24.1648 87.4189 23.5526 87.5729 22.9589L87.9785 21.3871C88.1325 20.7935 88.7172 20.4425 89.2839 20.6038C89.8496 20.7645 90.1857 21.3767 90.0317 21.9703L89.6249 23.5422C89.496 24.0383 89.068 24.365 88.5992 24.365Z" fill="black"/>
<path d="M94.5595 29.8545C94.0667 29.8545 93.6171 29.5383 93.484 29.0603C93.3262 28.4908 93.6809 27.9067 94.2757 27.7555L95.8479 27.3567C96.4427 27.206 97.0524 27.5451 97.2092 28.1146C97.3673 28.6841 97.0134 29.2682 96.4185 29.4192L94.8455 29.8182C94.7496 29.8427 94.6544 29.8545 94.5595 29.8545Z" fill="black"/>
<path d="M92.1274 62.3103C92.6191 61.8227 93.4128 61.8252 93.9006 62.3155L95.1929 63.6127C95.6818 64.103 95.6788 64.8951 95.1879 65.3826C94.9432 65.6257 94.6233 65.7464 94.3043 65.7464C93.9815 65.7464 93.6597 65.6235 93.4147 65.3777L92.1225 64.0802C91.6335 63.5899 91.6366 62.7973 92.1274 62.3103Z" fill="black"/>
<path d="M95.6969 59.0279L97.268 59.4344C97.8628 59.5878 98.2137 60.1719 98.0526 60.7384C97.9178 61.2122 97.469 61.5241 96.9782 61.5241C96.8814 61.5241 96.7832 61.512 96.6864 61.4864L95.1142 61.08C94.5205 60.926 94.1696 60.3424 94.3305 59.7759C94.4913 59.2089 95.1032 58.8739 95.6969 59.0279Z" fill="black"/>
<path d="M88.751 65.3617C89.3197 65.205 89.9046 65.5586 90.0553 66.1534L90.4552 67.7256C90.6061 68.3193 90.2662 68.9301 89.6967 69.0871C89.6057 69.1119 89.5138 69.1251 89.4228 69.1251C88.9509 69.1251 88.5192 68.7951 88.3921 68.2965L87.9934 66.7232C87.8424 66.1284 88.1815 65.5198 88.751 65.3617Z" fill="black"/>
</svg>
