<svg width="132" height="88" viewBox="0 0 132 88" fill="none" xmlns="http://www.w3.org/2000/svg">
<path d="M102.939 36.0558L77.1993 12.7742C72.6572 14.7873 68.856 18.1673 66.3258 22.4432C66.322 22.4871 66.322 22.5313 66.3258 22.5752C66.3258 22.5752 66.3258 22.5752 66.2433 22.4432C65.3358 20.8757 56.3433 6.10821 40.2393 13.7147C24.3663 21.1727 26.3298 41.2533 40.2723 54.6018C53.0763 66.8448 63.2568 75.4083 66.2268 76.4478C69.1968 75.4083 79.4268 66.8448 92.1978 54.6018C97.5769 49.6552 101.318 43.1851 102.923 36.0558H102.939Z" fill="#D9475A"/>
<path d="M102.45 35.6136L102.939 36.0558H102.923C102.56 37.6698 102.087 39.25 101.51 40.7863C100.612 40.8976 99.7056 40.9545 98.7974 40.9561C86.3894 40.9561 76.8029 32.2606 76.8029 18.4337H81.2414C81.2457 23.09 83.0964 27.5546 86.3873 30.8487C89.6782 34.1428 94.1411 35.9975 98.7974 36.0061C100.027 36.0015 101.251 35.8697 102.45 35.6136Z" fill="#842D40"/>
<path d="M77.199 12.7742C76.9023 14.1629 76.7475 15.5782 76.737 16.9982C76.7261 20.1614 77.4663 23.282 78.8968 26.1032C80.3272 28.9245 82.407 31.3658 84.9652 33.2265C87.5234 35.087 90.4868 36.3138 93.6114 36.8057C96.7361 37.2975 99.933 37.0405 102.939 36.0558L77.199 12.7742Z" fill="#E9A19C"/>
</svg>
