<svg width="132" height="88" viewBox="0 0 132 88" fill="none" xmlns="http://www.w3.org/2000/svg">
<mask id="mask0_2056_26011" style="mask-type:luminance" maskUnits="userSpaceOnUse" x="39" y="8" width="54" height="72">
<path d="M39.0137 8.01562H92.9881V79.9817H39.0137V8.01562Z" fill="white"/>
</mask>
<g mask="url(#mask0_2056_26011)">
<path d="M87.1551 38.9041C87.1551 38.9041 96.7083 47.571 91.3629 61.8006C86.4662 74.8139 78.632 79.7556 66.9335 79.9715C51.8476 80.2685 44.9929 73.8965 40.4401 64.258C36.1791 55.2391 42.822 39.8493 42.822 39.8493C42.822 39.8493 43.6166 44.0609 46.4743 44.3848C51.7948 45.033 49.0951 35.6368 49.0681 30.7234C49.042 24.5125 54.5734 19.1937 59.2583 14.7115C63.9429 10.2298 67.9931 8.01562 67.9931 8.01562C67.9931 8.01562 65.1873 20.9215 67.3834 24.6211C69.8183 28.725 72.9948 23.8649 72.9948 23.8649C72.9948 23.8649 78.0493 30.3719 78.3941 35.7177C78.7379 41.0642 78.0762 46.653 82.3643 47.2743C86.5993 47.9219 87.1551 38.9041 87.1551 38.9041Z" fill="#E62C8B"/>
<path d="M67.9124 78.9708C69.206 78.8869 70.4314 78.3531 71.3799 77.4586C73.9066 75.0366 75.8847 72.0892 77.1753 68.8186C79.7688 62.1499 76.6992 55.1836 76.6992 55.1836C76.6992 55.1836 75.0853 57.7757 73.7617 55.0219C72.4642 52.2672 72.2783 42.6826 69.0501 38.0384C65.8216 33.4212 62.0362 31.5586 62.0362 31.5586C62.0362 31.5586 65.3978 43.6547 61.1628 50.7825C56.9017 57.9105 54.8637 56.8575 54.3879 63.9316C53.8852 71.4374 61.8773 77.4316 63.7836 78.4579C64.8151 79.0247 66.5622 79.0789 67.9124 78.9708Z" fill="#FFEC00"/>
<path d="M66.034 52.5664C66.034 52.5664 63.916 56.0496 61.4283 61.1797C58.9404 66.3106 60.5027 74.383 65.6903 75.6793C70.8768 77.0015 72.9148 68.6316 72.4652 66.2298C72.1861 64.7335 71.8233 63.2554 71.3795 61.8009L69.8453 64.8784C69.8453 64.8784 69.4476 65.5002 68.9716 60.6399C68.4689 55.7528 66.034 52.5664 66.034 52.5664Z" fill="white"/>
</g>
</svg>
