<svg width="132" height="88" viewBox="0 0 132 88" fill="none" xmlns="http://www.w3.org/2000/svg">
<path d="M49.7892 47.1211C49.7892 47.1211 44.8008 48.3682 44.8008 50.8624L47.295 53.3566C47.9248 55.8103 48.3421 58.3137 48.5421 60.8391C48.5421 63.3333 47.295 74.5572 47.295 74.5572H84.7078C84.7078 74.5572 82.2136 55.8507 83.4607 54.6037L87.202 50.8624C87.202 48.3682 82.2136 47.1211 82.2136 47.1211" fill="#92D3F5"/>
<path d="M52.2832 37.1419C52.2832 48.3658 58.4395 54.6012 66.0012 54.6012C73.4046 54.6012 79.7985 48.3658 79.7985 37.1419C79.8291 34.9985 79.404 32.8731 78.5514 30.9064C74.8101 27.1652 69.8217 20.9297 69.8217 20.9297C64.8333 24.671 61.092 28.4123 53.6095 29.6593C53.6095 29.6593 52.2832 30.9064 52.2832 37.1419Z" fill="#FCEA2B"/>
<path d="M38.5245 74.5574L42.1879 59.2114L41.0187 57.6526L36.0303 53.9113L31.042 46.4287C30.7112 46.098 30.5254 45.6494 30.5254 45.1816C30.5254 44.7139 30.7112 44.2653 31.042 43.9345C31.3727 43.6038 31.8213 43.418 32.289 43.418C32.7568 43.418 33.2054 43.6038 33.5361 43.9345L38.5245 48.9229C39.7716 50.17 41.0187 50.17 44.76 51.4171C48.5013 52.6642 48.6644 55.4543 48.5013 57.6526C47.6707 68.8424 47.2542 74.5578 47.2542 74.5578" fill="#FCEA2B"/>
<path d="M46.0351 51.9725C46.0351 51.9725 44.7589 48.3684 43.3948 44.6271C42.8565 43.1536 41.0176 43.3411 41.0176 44.4201V49.0219" fill="#FCEA2B"/>
<path d="M93.4762 74.5574L89.8129 59.2114L90.982 57.6526L95.9704 53.9113L100.959 46.4287C101.29 46.098 101.475 45.6494 101.475 45.1816C101.475 44.7139 101.29 44.2653 100.959 43.9345C100.628 43.6038 100.179 43.418 99.7117 43.418C99.2439 43.418 98.7953 43.6038 98.4646 43.9345L93.4762 48.9229C92.2291 50.17 90.982 50.17 87.2407 51.4171C83.4995 52.6642 83.3363 55.4543 83.4995 57.6526C84.3313 68.8424 84.7465 74.5578 84.7465 74.5578" fill="#FCEA2B"/>
<path d="M85.9668 51.9725C85.9668 51.9725 87.2418 48.3684 88.6059 44.6271C89.1429 43.1536 90.9831 43.3411 90.9831 44.4201V49.0219" fill="#FCEA2B"/>
<path d="M78.7269 31.0191C75.4079 29.9522 69.5402 21.1211 69.5402 21.1211C66.221 25.1514 53.6559 29.8337 53.6559 29.8337C49.9219 33.5677 53.5997 47.1168 53.5997 47.1168C48.6113 47.1168 48.6113 39.6343 48.6113 30.9046C48.6113 22.175 53.5997 13.4453 66.0706 13.4453C78.5416 13.4453 83.53 22.175 83.53 30.9046C83.53 39.6343 83.53 47.1168 78.5416 47.1168C80.1935 44.308 78.7269 31.0191 78.7269 31.0191Z" fill="#F1B31C"/>
<path d="M78.4732 47.1208C83.4616 47.1208 83.4616 39.6382 83.4616 30.9085C83.4616 22.1789 78.4732 13.4492 66.0023 13.4492C53.5313 13.4492 48.543 22.1789 48.543 30.9085C48.543 39.6382 48.543 47.1208 53.5313 47.1208" stroke="black" stroke-width="1.76659" stroke-linecap="round" stroke-linejoin="round"/>
<path d="M73.3263 35.8965C73.3263 36.3898 73.18 36.8721 72.9059 37.2822C72.6319 37.6924 72.2423 38.0121 71.7866 38.2009C71.3308 38.3896 70.8293 38.439 70.3455 38.3428C69.8617 38.2466 69.4172 38.009 69.0684 37.6602C68.7196 37.3114 68.4821 36.8669 68.3858 36.3831C68.2896 35.8993 68.339 35.3978 68.5278 34.942C68.7165 34.4863 69.0362 34.0968 69.4464 33.8227C69.8565 33.5486 70.3388 33.4023 70.8321 33.4023C71.4936 33.4023 72.128 33.6651 72.5957 34.1329C73.0635 34.6006 73.3263 35.235 73.3263 35.8965Z" fill="black"/>
<path d="M63.3497 35.8965C63.3497 36.3898 63.2034 36.8721 62.9294 37.2822C62.6553 37.6924 62.2658 38.0121 61.81 38.2009C61.3542 38.3896 60.8527 38.439 60.3689 38.3428C59.8851 38.2466 59.4407 38.009 59.0919 37.6602C58.743 37.3114 58.5055 36.8669 58.4093 36.3831C58.313 35.8993 58.3624 35.3978 58.5512 34.942C58.74 34.4863 59.0597 34.0968 59.4698 33.8227C59.88 33.5486 60.3622 33.4023 60.8555 33.4023C61.517 33.4023 62.1514 33.6651 62.6192 34.1329C63.0869 34.6006 63.3497 35.235 63.3497 35.8965Z" fill="black"/>
<path d="M52.2031 37.1419C52.2031 48.3658 58.3594 54.6012 65.9212 54.6012C73.3245 54.6012 79.7184 48.3658 79.7184 37.1419C79.749 34.9985 79.324 32.8731 78.4713 30.9064C74.73 27.1652 69.7416 20.9297 69.7416 20.9297C64.7533 24.671 61.012 28.4123 53.5294 29.6593C53.5294 29.6593 52.2031 30.9064 52.2031 37.1419Z" stroke="black" stroke-width="1.76659" stroke-linejoin="round"/>
<path d="M63.6133 45.875C65.2375 46.1572 66.8982 46.1572 68.5225 45.875" stroke="black" stroke-width="1.76659" stroke-linecap="round" stroke-linejoin="round"/>
<path d="M38.5245 73.3103L42.1879 59.2114L41.0187 57.6526L36.0303 53.9113L31.042 46.4287C30.7112 46.098 30.5254 45.6494 30.5254 45.1816C30.5254 44.7139 30.7112 44.2653 31.042 43.9345C31.3727 43.6038 31.8213 43.418 32.289 43.418C32.7568 43.418 33.2054 43.6038 33.5361 43.9345L38.5245 48.9229C39.7716 50.17 41.0187 50.17 44.76 51.4171C48.5013 52.6642 48.6644 55.4543 48.5013 57.6526C47.6707 68.8424 47.2542 73.3107 47.2542 73.3107" stroke="black" stroke-width="1.76659" stroke-linecap="round" stroke-linejoin="round"/>
<path d="M46.0351 51.9725C46.0351 51.9725 44.7589 48.3684 43.3948 44.6271C42.8565 43.1536 41.0176 43.3411 41.0176 44.4201V49.0219" stroke="black" stroke-width="1.76659" stroke-linecap="round" stroke-linejoin="round"/>
<path d="M93.4762 73.3103L89.8129 59.2114L90.982 57.6526L95.9704 53.9113L100.959 46.4287C101.29 46.098 101.475 45.6494 101.475 45.1816C101.475 44.7139 101.29 44.2653 100.959 43.9345C100.628 43.6038 100.179 43.418 99.7117 43.418C99.2439 43.418 98.7953 43.6038 98.4646 43.9345L93.4762 48.9229C92.2291 50.17 90.982 50.17 87.2407 51.4171C83.4995 52.6642 83.3363 55.4543 83.4995 57.6526C84.3313 68.8424 84.7465 73.3107 84.7465 73.3107" stroke="black" stroke-width="1.76659" stroke-linecap="round" stroke-linejoin="round"/>
<path d="M85.9668 51.9725C85.9668 51.9725 87.2418 48.3684 88.6059 44.6271C89.1429 43.1536 90.9831 43.3411 90.9831 44.4201V49.0219" stroke="black" stroke-width="1.76659" stroke-linecap="round" stroke-linejoin="round"/>
<path d="M49.7891 48.3682L53.5303 47.1211" stroke="black" stroke-width="1.76659" stroke-linecap="round" stroke-linejoin="round"/>
<path d="M78.4727 47.1211L82.768 48.3682" stroke="black" stroke-width="1.76659" stroke-linecap="round" stroke-linejoin="round"/>
</svg>
