<svg width="132" height="88" viewBox="0 0 132 88" fill="none" xmlns="http://www.w3.org/2000/svg">
<path d="M47.3354 63.2154C58.9247 63.2154 65.7983 55.9612 65.7983 43.9321C65.7983 31.9413 58.9266 24.7236 47.5955 24.7236H34.4434V63.2154H47.3354ZM41.3371 57.1819V30.7571H47.205C54.9314 30.7571 58.9624 35.1167 58.9624 43.9321C58.9624 52.7841 54.9314 57.1819 47.0007 57.1819H41.3351H41.3371ZM90.4031 35.3054H97.035C96.9055 28.8022 91.428 24.1992 83.3271 24.1992C75.3408 24.1992 69.3403 28.7474 69.3593 35.5518C69.3593 41.076 73.242 44.253 79.5002 45.8887L83.8292 47.0168C87.9328 48.0687 90.6451 49.3653 90.6641 52.354C90.6451 55.6438 87.5624 57.8416 83.0672 57.8416C78.7582 57.8416 75.4145 55.8866 75.1365 51.8463H68.3564C68.6341 59.4957 74.2631 63.7992 83.123 63.7992C92.244 63.7992 97.5361 59.1946 97.5559 52.4104C97.5361 45.7383 92.0944 42.6935 86.3741 41.3207L82.8071 40.4193C79.6855 39.6669 76.3069 38.3337 76.3426 35.1184C76.3616 32.224 78.9254 30.1004 83.2336 30.1004C87.3402 30.1004 90.0495 32.0356 90.405 35.307L90.4031 35.3054Z" fill="black"/>
</svg>
