<svg width="132" height="88" viewBox="0 0 132 88" fill="none" xmlns="http://www.w3.org/2000/svg">
<mask id="mask0_2056_25665" style="mask-type:luminance" maskUnits="userSpaceOnUse" x="22" y="18" width="88" height="52">
<path d="M22.918 18.1484H109.084V69.8481H22.918V18.1484Z" fill="white"/>
</mask>
<g mask="url(#mask0_2056_25665)">
<path d="M23.6074 44.002C23.6074 29.7265 35.1823 18.1523 49.457 18.1523C63.7331 18.1523 75.307 29.7265 75.307 44.002C75.307 58.2774 63.7331 69.8513 49.457 69.8513C35.1823 69.8513 23.6074 58.2774 23.6074 44.002ZM49.457 54.2061C50.7974 54.2061 52.1247 53.9424 53.362 53.4294C54.6007 52.9167 55.7258 52.165 56.6724 51.2174C57.62 50.2698 58.3718 49.1451 58.8851 47.907C59.3974 46.669 59.6618 45.3421 59.6618 44.002C59.6618 42.6619 59.3974 41.335 58.8851 40.0969C58.3718 38.8589 57.62 37.7342 56.6724 36.7866C55.7258 35.8389 54.6007 35.0872 53.362 34.5746C52.1247 34.0619 50.7974 33.7979 49.457 33.7979C46.7515 33.7979 44.1556 34.8729 42.2419 36.7866C40.3282 38.7002 39.2537 41.2958 39.2537 44.002C39.2537 46.7085 40.3282 49.3038 42.2419 51.2174C44.1556 53.1311 46.7515 54.2061 49.457 54.2061Z" fill="#3265F6"/>
<path d="M107.619 44.002C107.619 58.2774 95.6309 69.8513 80.8438 69.8513V18.1523C95.6309 18.1523 107.619 29.7265 107.619 44.002Z" fill="#18327B"/>
</g>
</svg>
