<svg width="132" height="88" viewBox="0 0 132 88" fill="none" xmlns="http://www.w3.org/2000/svg">
<path d="M91.5188 54.769C91.279 59.2933 91.1651 61.5497 90.6754 62.769C90.1397 64.0909 89.3988 64.9797 87.7925 66.1422C87.017 66.7122 86.0254 67.339 84.7612 68.1136C84.3394 68.3754 83.8834 68.6493 83.3936 68.9452C82.7551 69.333 82.0604 69.7548 81.2968 70.2215C80.9318 70.4495 80.601 70.6434 80.2713 70.8482C78.904 71.6919 77.6725 72.4435 74.7438 74.2448C74.1512 74.6094 73.1147 75.2471 71.7133 76.0339C71.1545 76.3526 70.6529 76.6265 70.5278 76.6835C67.0174 78.5405 58.8694 76.6034 57.8789 76.3636C56.9554 76.1478 56.0548 75.908 55.2001 75.669C54.6765 75.521 54.1636 75.372 53.6617 75.2361C53.343 75.1443 53.126 75.0764 52.4993 74.8822C52.0326 74.7455 51.3369 74.5294 50.2094 74.1876C49.377 73.9368 48.3064 73.6059 46.916 73.1841C41.8904 71.6688 41.8564 71.6688 41.6395 71.5099C38.9388 69.572 41.1038 60.0567 41.1837 50.6553C41.2067 48.3532 41.0928 46.5641 40.9559 45.1055C40.8759 44.2736 40.8079 43.5556 40.739 42.906C40.5231 40.6268 40.5111 39.2593 41.6505 37.3791C42.1983 36.4787 44.2372 34.7352 48.2264 31.419C48.6482 31.0772 49.0811 30.7125 49.5367 30.3251C50.2204 29.7553 50.8812 29.2083 51.5539 28.6954C52.9102 27.6356 54.2885 26.6442 55.9759 25.6187C58.0378 24.365 59.0754 23.7383 59.918 23.499C63.2573 22.5417 65.2403 24.2283 72.0092 26.1541C72.112 26.1885 72.2141 26.2113 72.3279 26.2454C73.5134 26.5757 74.6189 26.8837 75.7693 27.1799C77.1377 27.533 78.5732 27.8523 80.2713 28.1484C80.2713 28.1484 87.8946 29.4932 90.1166 31.8978C90.3674 32.1711 90.5612 32.4789 90.5612 32.4789C90.7213 32.7297 90.8582 33.0487 90.9721 33.4246C91.1541 34.0059 91.279 34.7468 91.3818 35.6469C91.4159 35.9433 91.439 36.251 91.4729 36.57C91.6777 39.2023 91.7008 43.0202 91.7129 48.3532C91.7008 48.6497 91.7129 51.2707 91.5188 54.769Z" fill="#FF8FF0"/>
<path d="M91.4618 36.5935C86.0605 40.958 76.4531 46.5647 71.6332 47.6815C64.6705 49.2996 50.7442 44.3196 45.8905 43.4423C43.7815 43.0549 42.1293 43.032 40.7509 42.9295C40.534 40.6503 40.5231 39.2827 41.6625 37.4025C42.2093 36.5022 44.2493 34.7587 48.2373 31.4424C48.6592 31.1006 49.092 30.736 49.5477 30.3485C50.2313 29.7787 50.8933 29.2317 51.5648 28.7191C52.9211 27.659 54.3005 26.6676 55.9868 25.6421C58.0499 24.3887 59.0863 23.7617 59.9298 23.5224C63.2683 22.5652 65.2513 24.2517 72.0201 26.1778C72.123 26.2119 72.2261 26.2348 72.34 26.2689C73.5244 26.5994 74.6299 26.9071 75.7813 27.2033C77.1486 27.5564 78.5841 27.8757 80.2822 28.1719C80.2822 28.1719 87.9066 29.5166 90.1286 31.9212C90.3794 32.1946 90.5733 32.5023 90.5733 32.5023C90.7322 32.7531 90.8692 33.0721 90.983 33.4483C91.1651 34.0294 91.291 34.7702 91.3931 35.6703C91.4049 35.9552 91.428 36.2629 91.4618 36.5935Z" fill="#00FF9D"/>
<path d="M85.2967 46.6096C85.0118 42.7921 84.7271 33.7553 82.1861 33.1968C81.3537 33.0147 77.3885 32.4105 72.397 31.6812C75.7814 28.7866 80.9437 24.3651 82.6759 22.7355C85.3308 20.24 87.0179 13.1974 80.9547 10.8726C74.9036 8.54789 69.7762 18.1317 68.2489 23.6017C67.6791 25.6186 67.3372 27.3852 67.1203 28.821C66.8475 28.9692 66.5846 29.1171 66.3118 29.2654C64.6365 25.0147 60.5794 15.6019 56.9332 13.5734C52.2034 10.9296 46.4942 16.354 48.728 20.8097C50.2204 23.7953 57.1152 27.8068 61.48 30.1088C57.7188 29.5731 54.1636 29.0718 51.5657 28.7068C50.8931 29.2313 50.2322 29.7667 49.5486 30.3365C49.0929 30.724 48.6592 31.0773 48.2382 31.4304C50.7682 31.932 54.8591 32.7411 58.8472 33.5389C55.611 35.4988 53.0581 37.231 52.5002 38.1314C50.7792 40.9575 51.8275 57.7548 51.4059 62.1306C51.1549 64.6947 50.6192 70.1304 50.2094 74.1874C51.3377 74.5293 52.0324 74.7462 52.5002 74.8821C53.1269 75.076 53.3428 75.145 53.6629 75.236C54.1634 75.373 54.6762 75.5209 55.2009 75.6689C55.7366 69.4008 56.5792 58.6777 56.4885 55.3502C56.3515 50.5526 56.6254 42.2223 57.7538 39.5328C58.1176 38.6668 60.6704 36.741 63.9528 34.5531C66.5397 35.0659 68.6817 35.4988 69.7531 35.7268C73.8443 36.5699 79.6333 36.1483 80.2031 40.2508C80.647 43.4532 80.397 62.6435 80.26 70.8481C80.59 70.6432 80.9209 70.4494 81.2855 70.2214C82.0492 69.7544 82.7438 69.3329 83.3827 68.9448C83.8724 68.6492 84.3281 68.3643 84.75 68.1132C85.0349 61.5611 85.5015 49.3673 85.2967 46.6096ZM75.4965 14.5876C77.8103 12.5706 82.3682 12.6275 82.8239 14.8611C83.1429 16.4565 76.7728 22.9181 73.0924 26.4733C72.8416 26.4051 72.5787 26.3253 72.3169 26.2569C72.2149 26.2228 72.1011 26.1999 71.9979 26.1658C71.3605 26.5077 70.6647 26.8723 69.9349 27.2711C70.8017 24.6044 73.5594 16.2856 75.4965 14.5876ZM53.4569 19.8524C52.2155 18.2685 51.8047 15.2942 54.7673 15.7842C57.7309 16.2628 63.5992 27.9322 63.5992 27.9322L63.3261 28.6158C63.3261 28.6158 54.6993 21.4365 53.4569 19.8524Z" fill="#BB54F7"/>
</svg>
