<svg width="132" height="88" viewBox="0 0 132 88" fill="none" xmlns="http://www.w3.org/2000/svg">
<mask id="mask0_2056_25505" style="mask-type:luminance" maskUnits="userSpaceOnUse" x="31" y="12" width="70" height="64">
<path d="M31.4355 12.0156H100.564V75.9852H31.4355V12.0156Z" fill="white"/>
</mask>
<g mask="url(#mask0_2056_25505)">
<path d="M86.2053 40.7215C93.8657 40.7215 100.076 34.4702 100.076 26.7592C100.076 19.048 93.8657 12.7969 86.2053 12.7969C78.5449 12.7969 72.3359 19.048 72.3359 26.7592C72.3359 34.4702 78.5449 40.7215 86.2053 40.7215Z" fill="black"/>
<path d="M31.8887 26.7592C31.8887 34.4424 38.0878 40.7215 45.7592 40.7215V12.7969C38.0878 12.7969 31.8887 19.037 31.8887 26.7592Z" fill="black"/>
<path d="M52.1113 26.7592C52.1113 34.4424 58.3104 40.7215 65.9818 40.7215V12.7969C58.3494 12.7969 52.1113 19.037 52.1113 26.7592Z" fill="black"/>
<path d="M86.2053 75.0806C93.8657 75.0806 100.076 68.8295 100.076 61.1185C100.076 53.4075 93.8657 47.1562 86.2053 47.1562C78.5449 47.1562 72.3359 53.4075 72.3359 61.1185C72.3359 68.8295 78.5449 75.0806 86.2053 75.0806Z" fill="black"/>
<path d="M52.1113 61.1186C52.1113 68.8015 58.3104 75.0806 65.9818 75.0806V47.1953C58.3494 47.1953 52.1113 53.4353 52.1113 61.1186Z" fill="black"/>
<path d="M31.8887 61.2358C31.8887 68.9578 38.0878 75.1978 45.7592 75.1978V47.3125C38.0878 47.3125 31.8887 53.5525 31.8887 61.2358Z" fill="black"/>
</g>
</svg>
