<svg width="132" height="88" viewBox="0 0 132 88" fill="none" xmlns="http://www.w3.org/2000/svg">
<path fill-rule="evenodd" clip-rule="evenodd" d="M64.8199 7.82837C64.4686 7.88985 64.0042 7.94317 63.7879 7.94674C63.2884 7.95499 61.5188 8.28705 59.9473 8.6674C56.326 9.54402 52.9538 10.9455 49.5311 12.9964C47.7179 14.0829 45.6114 15.6173 44.3951 16.7375C43.979 17.1209 43.2516 17.7888 42.7788 18.2218C41.3506 19.5298 38.863 22.5037 37.6095 24.4016C36.2547 26.4529 34.8896 29.0205 34.2611 30.6998C33.4485 32.8704 32.7728 34.9087 32.5415 35.8868C32.0981 37.7615 31.7156 40.1614 31.5994 41.7967C31.5613 42.3345 31.4887 42.9807 31.4381 43.2326C31.3055 43.8943 31.3255 45.8019 31.4741 46.6436C31.5442 47.0412 31.6016 47.623 31.6017 47.9368C31.6018 48.5643 31.9446 50.6636 32.2083 51.6526C32.4621 52.6038 33.0963 54.2181 33.6648 55.3596C34.9674 57.9752 36.175 59.5915 38.2165 61.4519C42.0208 64.9189 45.9555 66.9079 51.0032 67.9155L51.5385 68.0223L55.351 64.2191L54.613 63.9723C53.2784 63.5262 52.2866 62.8806 51.249 61.7823C50.3801 60.8629 49.9859 60.2831 49.2698 58.8716C48.2502 56.8621 47.8235 55.3913 47.3256 52.1708C47.1333 50.9267 47.1268 45.2528 47.3165 44.1776C47.3866 43.7801 47.4441 43.1918 47.4442 42.8702C47.4442 42.5486 47.4995 41.9363 47.5669 41.5096C47.6344 41.0829 47.7519 40.2937 47.8279 39.7559C48.246 36.8005 48.4738 35.6262 49.0978 33.2083C49.813 30.4369 49.9778 29.9121 51.06 26.9583C51.4118 25.9982 52.9489 22.7602 53.603 21.6011C54.2032 20.5375 55.5446 18.6819 56.759 17.2352C58.5959 15.0469 61.0236 13.2459 63.3731 12.3285C64.3893 11.9318 66.0972 11.5272 66.7625 11.5256C66.9643 11.5251 67.3949 11.4808 67.7194 11.4273C68.8452 11.2417 71.345 11.7263 72.792 12.4106C74.1543 13.0548 75.1443 13.805 76.0265 14.8616L76.3633 15.2649L81.6346 10.0002L81.1698 9.79597C80.1957 9.36783 78.0314 8.68849 76.7018 8.39351C75.9347 8.22336 75.0288 8.07183 73.3214 7.82803C72.1172 7.6561 65.8017 7.65635 64.8199 7.82837Z" fill="#2A2E2A"/>
<path d="M77.0227 50.3678C77.9109 46.5615 80.8528 43.8916 85.1569 42.9856C85.7453 42.8617 86.2993 42.8278 87.8103 42.8231C90.1772 42.8157 90.6246 42.8824 92.6294 43.542C93.0041 43.6653 93.5339 43.8971 93.8066 44.057C94.0794 44.2168 94.3236 44.3477 94.3495 44.3477C94.4382 44.3477 95.5256 45.1447 95.9512 45.5217C96.1854 45.7292 96.5795 46.1321 96.827 46.417C97.3673 47.039 98.3786 48.5225 98.3786 48.6931C98.3786 48.76 98.1583 48.9457 97.8889 49.1057C97.6195 49.2657 96.8929 49.7242 96.2741 50.1247C94.0312 51.5761 93.1615 52.131 92.9099 52.2714L92.6534 52.4145L92.2155 51.7656C91.4254 50.5949 90.4916 49.8024 89.5205 49.4785C89.1517 49.3554 88.7888 49.3222 87.8152 49.3222C86.5793 49.3222 86.5779 49.3224 85.9868 49.613C85.2951 49.9529 84.6937 50.5201 84.4313 51.08C83.836 52.3497 84.1073 54.0758 85.0499 55.0168C85.7128 55.6787 87.413 56.632 89.2224 57.3564C91.2511 58.1686 93.5753 59.2905 94.9844 60.1376C97.4748 61.6347 99.0163 63.2973 99.9366 65.4786C100.765 67.4427 100.893 71.0146 100.207 73.0469C99.6695 74.6415 98.9713 75.8004 97.9289 76.8286C97.3111 77.4379 96.117 78.3613 95.9466 78.3613C95.9127 78.3613 95.6891 78.4815 95.4497 78.6285C95.2105 78.7756 94.7654 78.9896 94.4609 79.1043C92.4099 79.8764 90.9905 80.1446 88.6261 80.2068C87.1249 80.2464 86.9147 80.2307 84.4339 79.8953C83.574 79.779 81.4722 79.0547 80.4042 78.5066C79.9108 78.2534 79.1634 77.8046 78.7433 77.5092C77.3202 76.5087 75.5731 74.5778 74.7708 73.1185C74.6382 72.8774 74.5298 72.6605 74.5298 72.6365C74.5298 72.5941 75.6693 71.9208 77.0313 71.1585C77.4001 70.9521 77.8025 70.714 77.9257 70.6294C78.0489 70.5448 78.533 70.2613 79.0014 69.9994C79.4699 69.7375 80.0095 69.428 80.2007 69.3116L80.5483 69.1001L81.0774 69.8625C82.901 72.4896 84.9786 73.6217 87.9873 73.6274C89.7164 73.6308 90.8659 73.3052 91.9734 72.4984C92.7852 71.9071 93.3396 70.6138 93.2396 69.5448C93.1781 68.887 92.7724 67.949 92.3336 67.4501C91.7003 66.73 89.3149 65.4276 87.0078 64.5424C86.7268 64.4346 86.2566 64.228 85.9631 64.0834C85.6696 63.9388 85.391 63.8205 85.344 63.8205C85.2215 63.8205 83.6767 63.0378 82.6465 62.454C80.6738 61.3359 78.874 59.6402 78.0645 58.1372C77.1363 56.4135 76.8034 55.0157 76.7956 52.8086C76.7911 51.5236 76.8163 51.2525 77.0227 50.3678Z" fill="#2A2E2A"/>
<path d="M62.0738 72.2142C62.8079 71.0438 62.7723 71.8399 62.7741 56.5288L62.7757 43.2423H70.271V56.5109C70.271 65.1791 70.2401 70.0659 70.1818 70.6052C70.0428 71.8904 69.7237 73.4547 69.5101 73.897C69.4648 73.9905 69.3155 74.3377 69.1782 74.6686C68.8866 75.3711 68.1551 76.5246 67.6218 77.1227C66.9704 77.8534 65.4231 78.9693 64.687 79.2393C64.5024 79.3071 64.0358 79.481 63.6501 79.6258C62.914 79.9022 62.5856 79.9727 60.987 80.1976C59.7449 80.3723 57.6252 80.3163 56.2172 80.0716C53.1021 79.53 50.4759 77.811 48.7013 75.1521C48.2217 74.4335 47.7361 73.5228 47.8052 73.4714C47.886 73.4112 51.1354 71.4534 51.5991 71.1854C51.9139 71.0036 52.5315 70.6297 52.9715 70.3543C53.4114 70.0791 53.7799 69.8643 53.7901 69.8771C53.9427 70.0676 54.5137 70.9581 54.5137 71.0058C54.5137 71.1482 55.4064 72.2597 55.8159 72.6273C56.691 73.4128 57.8328 73.7626 59.181 73.6582C60.7034 73.5403 61.4876 73.1488 62.0738 72.2142Z" fill="#2A2E2A"/>
<path d="M51.5616 67.9992C53.4715 68.3367 53.848 68.3578 57.236 68.3861C60.4627 68.413 60.8576 68.396 61.9419 68.1827L62.1762 68.1366V66.0968C62.1762 64.1936 62.1662 64.0601 62.0271 64.1023C61.9453 64.1273 61.3798 64.2481 60.7708 64.3709C59.7562 64.5754 59.5351 64.5909 58.1304 64.5563C56.7642 64.5225 56.4883 64.4899 55.5964 64.2568L55.351 64.2191L51.5616 67.9992Z" fill="#01761D"/>
<path d="M77.1689 16.5404C77.7611 17.5482 78.6764 20.143 78.9519 21.5941C79.3585 23.739 79.3961 24.3549 79.3618 28.3543C79.3415 30.691 79.2886 32.4473 79.223 32.9461C79.1648 33.3904 79.0607 34.2131 78.9915 34.7743C77.9325 43.3706 75.5363 50.6427 72.0384 55.8768L70.9491 57.5066V61.8505C70.9491 64.2396 70.9794 66.1943 71.016 66.1943C71.0529 66.1943 71.6122 65.9823 72.259 65.7232C73.6514 65.1653 75.9295 64.04 77.2717 63.2471C78.1381 62.7352 79.7225 61.7118 79.7221 61.6641C79.7221 61.6595 79.6636 61.595 79.5667 61.4918C79.4426 61.3599 79.2557 61.1646 79.0477 60.9501C77.7345 59.5965 76.7716 57.8496 76.4549 56.2454C76.0746 54.3201 76.047 51.5043 76.3933 49.9252C76.9576 47.3501 78.5104 45.199 80.7905 43.8342C81.2949 43.5323 81.9027 43.2143 82.1413 43.1276C84.1356 42.4034 85.3047 42.2175 87.8563 42.219C88.8401 42.2196 89.9131 42.2559 90.2412 42.2996C90.5692 42.3435 91.1358 42.418 91.5008 42.4654C91.8655 42.5128 92.4511 42.6533 92.8017 42.7776C93.1527 42.902 93.4575 42.9863 93.4788 42.965C93.5394 42.9047 93.9885 41.36 94.3156 40.0889C94.4779 39.4576 94.6922 38.4053 94.792 37.7505L94.8539 37.3438C94.9431 36.7616 95.0439 36.1097 95.0998 35.7522C95.1697 35.3079 95.2259 34.7468 95.2252 34.5054C95.2246 34.264 95.2814 33.7666 95.3516 33.4C95.523 32.5063 95.525 29.946 95.3553 28.8645C94.9454 26.2509 94.8503 25.6878 94.7005 24.9954C94.1665 22.5268 92.7106 19.465 91.035 17.287C90.1507 16.1375 87.8713 13.8984 86.7064 13.0352C85.0532 11.8099 83.365 10.808 81.6163 10.0183L76.3634 15.2649C76.3634 15.2649 76.3061 15.0721 77.1689 16.5404Z" fill="#01761D"/>
<path d="M86.042 50.6551C86.4067 50.409 87.2378 50.075 87.6434 50.0115C87.7638 49.9926 87.8307 49.9843 87.9574 50.0007C88.0782 50.0163 88.2529 50.0542 88.5803 50.1263C89.1838 50.2593 89.9431 50.6127 89.9431 50.7604C89.9431 51.0636 86.9393 55.2265 86.7221 55.2244C86.6419 55.2236 86.2719 54.9705 85.9745 54.713C85.4441 54.2537 85.1753 53.8552 84.9943 53.2603C84.8156 52.6727 84.8146 52.6442 84.9577 52.1724C85.1407 51.5695 85.5629 50.9784 86.042 50.6551Z" fill="#01761D"/>
</svg>
