<svg width="132" height="88" viewBox="0 0 132 88" fill="none" xmlns="http://www.w3.org/2000/svg">
<path d="M87.3122 79.7361L64.7736 47.7332C64.7736 47.7332 60.2011 39.6561 58.2002 38.3892C56.1994 37.1224 53.4993 37.3078 48.8295 37.2767C44.1597 37.2456 35.8743 34.7519 32.4993 29.3809C29.1243 24.01 30.8416 15.7087 34.8226 12.0743C38.8036 8.43994 42.1728 7.66929 47.7131 8.79445C53.2534 9.9196 57.2029 15.6055 58.3267 20.3469C59.4505 25.0883 59.0896 28.7318 60.3801 31.8467C61.6706 34.9615 67.8383 37.7407 70.2501 39.7311C72.662 41.7215 73.4689 42.4796 76.6343 46.3043C79.7997 50.1289 87.2671 62.2087 89.6876 67.2232C92.1081 72.2377 90.8532 76.1951 87.3122 79.7361ZM53.1045 24.6562C53.2448 19.7076 51.0634 15.431 45.8698 14.6873C40.6763 13.9436 36.3171 17.5337 36.786 22.8605C37.2549 28.1872 40.1257 30.1745 45.5102 31.342C50.8947 32.5094 52.9642 29.6047 53.1045 24.6562Z" fill="#0F7F12"/>
<path d="M44.6883 79.6853L67.227 47.6824C67.227 47.6824 71.7995 39.6053 73.8003 38.3385C75.8012 37.0716 78.5013 37.257 83.1711 37.2259C87.8409 37.1948 96.1262 34.7011 99.5012 29.3302C102.876 23.9593 101.159 15.6579 97.178 12.0235C93.197 8.38916 89.8278 7.61851 84.2875 8.74367C78.7472 9.86882 74.7977 15.5547 73.6739 20.2961C72.5501 25.0375 72.9109 28.681 71.6205 31.7959C70.33 34.9107 64.1623 37.69 61.7504 39.6804C59.3386 41.6708 58.5316 42.4288 55.3662 46.2535C52.2009 50.0781 44.7334 62.1579 42.313 67.1724C39.8925 72.1869 41.1473 76.1443 44.6883 79.6853ZM78.896 24.6054C78.7557 19.6569 80.9372 15.3802 86.1307 14.6365C91.3243 13.8928 95.6834 17.4829 95.2145 22.8097C94.7456 28.1365 91.8749 30.1237 86.4904 31.2912C81.1059 32.4587 79.0363 29.554 78.896 24.6054Z" fill="#0F7F12"/>
</svg>
