<svg width="132" height="88" viewBox="0 0 132 88" fill="none" xmlns="http://www.w3.org/2000/svg">
<path d="M66.0004 78.0984C84.8333 78.0984 100.1 62.8313 100.1 43.9984C100.1 25.1655 84.8333 9.89844 66.0004 9.89844C47.1675 9.89844 31.9004 25.1655 31.9004 43.9984C31.9004 62.8313 47.1675 78.0984 66.0004 78.0984Z" fill="#FFCF77"/>
<mask id="mask0_2056_23507" style="mask-type:alpha" maskUnits="userSpaceOnUse" x="31" y="9" width="70" height="70">
<path d="M66.0004 78.1023C84.8333 78.1023 100.1 62.8353 100.1 44.0023C100.1 25.1694 84.8333 9.90234 66.0004 9.90234C47.1675 9.90234 31.9004 25.1694 31.9004 44.0023C31.9004 62.8353 47.1675 78.1023 66.0004 78.1023Z" fill="#EC7495"/>
</mask>
<g mask="url(#mask0_2056_23507)">
<path fill-rule="evenodd" clip-rule="evenodd" d="M85.8328 77.906C85.112 77.6489 84.4172 77.3521 83.7842 76.9153C81.9594 75.5566 80.7697 73.5118 79.6456 71.5743C78.0619 68.7568 76.9339 65.7542 76.1541 62.6221C75.819 61.2764 75.7051 59.7161 74.9437 58.5229C73.2179 56.0248 68.1572 56.3486 65.4698 56.7871C63.6702 57.1056 63.2984 59.1201 62.8898 60.6111C62.5494 61.8496 62.3267 63.1024 62.1396 64.3718C61.6945 64.6645 61.1924 64.902 60.7136 65.109C55.4959 66.7096 54.5789 69.6769 52.5861 74.2605C49.2201 80.9225 40.0866 83.531 38.707 91.4152C37.8181 96.6203 40.3458 101.517 42.9519 105.845C45.379 110.571 48.7674 112.84 54.1635 111.723C59.2247 110.587 64.0889 108.687 69.061 107.219C71.4693 106.627 73.8735 105.086 76.407 105.623C81.6267 106.796 86.9896 107.348 92.3391 107.195C99.8497 107.499 99.8485 100.288 99.0776 94.7033C98.5376 86.0123 94.1559 80.432 85.8328 77.906Z" fill="#D08B5B"/>
<path fill-rule="evenodd" clip-rule="evenodd" d="M86.335 90.4827C86.9624 90.8979 87.4902 91.5274 87.914 92.1898C86.1452 92.0057 84.3791 91.7934 82.6172 91.552C82.8479 91.4043 83.0807 91.2602 83.3188 91.1241C84.1876 90.6343 85.3648 89.8411 86.335 90.4827ZM56.9436 95.714C56.6195 95.5868 56.4941 95.0925 56.3678 94.809C55.9716 93.9203 55.6102 93.0165 55.2341 92.1189C56.6621 91.7118 58.0508 91.2599 59.5301 91.0429C61.1207 90.8098 62.7348 90.7535 64.3402 90.8056C67.5919 90.9118 70.8133 91.4435 74.0101 92.0134C77.2033 92.583 80.3963 93.1301 83.6117 93.5591C86.762 93.9799 89.9223 94.2877 93.0883 94.5578C93.7036 94.6103 94.7292 94.8318 95.2238 94.3476C95.6155 93.9639 95.6283 93.2564 95.1381 92.9447C94.833 92.7502 94.3906 92.7476 94.0419 92.7028C93.6025 92.6462 93.1615 92.6085 92.7197 92.5791C92.5394 92.5673 92.3594 92.5563 92.1794 92.5453C93.625 92 95.1349 91.7026 96.7023 91.7856C96.7909 92.3241 97.1904 92.8783 97.4089 93.3228C97.7905 94.0982 98.0879 94.8831 98.2833 95.7264C98.6917 97.4892 98.7094 99.3188 98.5941 101.117C98.4879 102.616 98.2605 104.274 97.0851 105.335C96.1952 106.139 94.9398 106.437 93.775 106.53C92.4211 106.639 91.0464 106.523 89.7041 106.341C87.8212 106.087 85.9294 105.75 84.0835 105.298C80.5083 104.424 77.0817 103.033 73.9199 101.147C72.3783 100.228 70.907 99.1931 69.344 98.3082C67.7514 97.4068 66.0568 96.7073 64.2773 96.2729C62.2859 95.7869 60.2042 95.5796 58.1574 95.6994C57.8022 95.7202 57.2891 95.8492 56.9436 95.714ZM54.6358 94.8114C54.8451 95.4907 55.0052 96.2664 55.4519 96.8372C55.8943 97.403 56.5617 97.6025 57.2532 97.6529C58.0869 97.7134 58.9304 97.6746 59.7659 97.7057C61.4795 97.7695 63.1698 98.0479 64.8078 98.5585C66.3346 99.0347 67.7517 99.7772 69.1169 100.601C70.3792 101.363 71.6044 102.181 72.8673 102.94C72.531 103.094 72.1989 103.261 71.8647 103.406C71.1641 103.71 70.4589 104.004 69.7508 104.291C68.3542 104.855 66.9517 105.406 65.5349 105.918C62.6782 106.95 59.7742 107.852 56.8354 108.62C55.4338 108.986 54.0122 109.414 52.5561 109.475C51.2648 109.529 50.0688 109.164 49.0274 108.396C46.8675 106.803 45.149 104.503 43.7598 102.236C42.9345 100.888 42.2143 99.4724 41.6185 98.0085C41.3172 97.268 41.044 96.5164 40.798 95.7561C40.6827 95.3991 40.5733 95.04 40.4697 94.6791C40.4241 94.5205 40.3804 94.3615 40.3372 94.2023C42.5459 93.528 44.7808 92.9193 47.0682 92.5815C48.2894 92.4009 49.527 92.3096 50.7616 92.3229C51.3744 92.3295 51.9869 92.3627 52.5965 92.4258C52.9246 92.4599 53.2514 92.5038 53.5768 92.5581C53.7113 92.5803 53.8494 92.6135 53.9881 92.6379C54.1998 93.3637 54.4133 94.0887 54.6358 94.8114ZM100.293 91.9256C100.411 91.6848 100.462 91.4476 100.505 91.1855C100.537 90.9853 100.623 90.7039 100.548 90.4442C100.463 90.1533 100.232 89.893 100.067 89.6451C99.884 89.3708 99.7013 89.0965 99.5186 88.8219C99.1539 88.2731 98.7898 87.7236 98.426 87.1736C96.9413 84.9283 95.4667 82.6762 93.99 80.4259C92.6794 78.4285 91.3907 76.4137 90.04 74.4433C88.8854 72.7584 87.6263 71.1015 86.0456 69.7911C84.047 68.1342 81.6672 67.3537 79.1811 66.745C78.9098 66.463 78.5471 66.3091 78.1593 66.3402C77.6116 65.7187 77.1763 65.2849 76.9791 64.4947C76.8845 64.116 76.9142 63.0527 76.5456 62.8288C76.108 62.5625 75.8796 62.9148 75.7587 63.3116C75.3551 64.6394 75.8186 66.4244 76.8851 67.7546C76.4356 69.3084 75.8399 71.5163 74.7769 72.7611C73.6388 74.094 72.0649 74.5088 70.3664 74.5361C67.1278 74.5883 63.8925 73.3841 61.4222 71.2972C60.6714 70.6629 59.974 69.9545 59.3431 69.2014C58.8699 68.6359 58.3101 67.7638 57.9399 67.1044C57.9399 66.8476 57.6367 66.5786 60.7239 66.3711C63.8112 66.1635 64.0452 61.9348 64.114 61.3593C64.1697 60.8919 64.4069 60.1663 64.0778 59.7853C63.9381 59.6234 63.6514 59.5973 63.4741 59.7073C63.1402 59.9149 63.0305 60.4454 62.9255 60.8059C62.7784 61.3106 62.2975 64.4434 61.3864 64.806C60.9598 64.9759 60.4706 64.9789 60.0193 65.0103C59.4621 65.0495 58.9038 65.0779 58.3488 65.1426C58.1441 65.1666 57.9208 65.233 57.7189 65.2348C57.5874 65.236 57.4519 65.1722 57.3249 65.1275C56.8963 64.9759 56.468 65.0895 56.0264 65.1488C52.1221 65.6736 48.1021 66.8716 44.772 69.0273C41.8367 70.9271 39.7688 73.6596 38.4043 76.8543C37.012 80.1143 36.214 83.6399 35.5453 87.1107C35.3212 88.2733 35.1256 89.4416 34.9575 90.6138C34.7951 91.7465 34.5919 92.9047 34.5432 94.049C34.524 94.5015 34.6321 94.9223 34.7986 95.3356C34.986 95.8011 35.429 95.9847 35.8539 96.202C36.7866 96.6791 37.7705 97.0495 38.7843 97.3116C39.4036 98.4387 39.9248 99.6097 40.3436 100.825C40.1882 101.133 40.185 101.593 40.1551 101.893C40.081 102.638 40.0493 103.387 40.0426 104.136C40.0293 105.637 40.1195 107.136 40.1903 108.635C40.262 110.155 40.5004 116.152 40.5392 116.884C40.5694 117.453 40.5287 118.249 40.8283 118.754C41.2887 119.53 42.4248 119.504 42.9511 118.874C56.0264 121.687 80.6044 120.839 90.5029 119.425C91.791 119.241 91.3865 119.445 91.7142 119.119C91.9597 118.875 92.1691 118.456 92.237 118.12C92.3277 117.671 92.1812 117.264 91.9241 116.901C91.654 116.519 91.6048 115.9 91.5046 115.446C91.267 114.372 91.1493 109.657 91.0384 109.134C91.0037 108.971 90.9702 108.799 90.9299 108.627C92.7458 108.799 94.6376 108.799 96.3651 108.192C97.3446 107.847 98.2581 107.306 98.9615 106.533C99.8128 105.598 100.287 104.42 100.53 103.19C100.844 101.605 100.911 99.9631 100.849 98.3515C100.764 96.447 100.448 94.5157 99.6642 92.7668C99.9222 92.5273 100.138 92.2384 100.293 91.9256Z" fill="black"/>
<path fill-rule="evenodd" clip-rule="evenodd" d="M59.707 23.8945C64.9264 23.6089 69.5507 22.1387 73.2249 25.429C73.2249 25.429 79.1684 20.9793 80.1602 22.674C80.8247 23.8097 79.9032 25.3341 80.1502 26.7354C81.7615 29.489 81.6704 34.1497 81.7615 35.242C81.991 37.995 83.4374 48.3544 83.4374 50.8144C83.4374 52.0701 82.4046 55.3589 81.7615 57.189C80.3298 61.2626 77.5974 63.3386 73.1164 63.3386C68.635 63.3386 61.3209 59.5837 58.9752 56.2502C58.7696 55.9578 57.4401 56.8103 56.0496 55.3319C54.5432 53.7301 53.7075 50.675 53.7075 48.8538C53.7075 46.5427 52.2177 44.94 52.391 41.9819C52.778 35.3755 54.1219 24.2002 59.707 23.8945Z" fill="#D08B5B"/>
<path fill-rule="evenodd" clip-rule="evenodd" d="M80.1643 22.6588C80.8288 23.7945 79.9072 25.3189 80.1542 26.7202C80.776 27.7828 81.1443 29.1294 81.3673 30.4453L80.1488 31.0936L79.6981 31.1598C72.3886 32.2402 67.7231 33.2125 65.7023 34.0768C63.6608 34.9498 61.1831 38.0162 58.2695 43.2757L58.181 43.4359L57.6037 47.3612L54.9568 48.1752L53.7109 48.767C53.6808 46.4942 52.2234 44.8942 52.3949 41.9666C52.7819 35.3604 54.1258 24.185 59.7109 23.8793C64.9305 23.5937 69.5547 22.1235 73.2286 25.4139C77.191 22.4473 79.503 21.529 80.1643 22.6588Z" fill="#9FD8E5"/>
<path fill-rule="evenodd" clip-rule="evenodd" d="M59.1233 16.2128C59.1912 16.2086 59.26 16.2119 59.3287 16.2187C59.4041 16.222 59.4794 16.2294 59.5548 16.2444C59.9383 16.3182 60.2804 16.5217 60.5455 16.8082C60.5529 16.8156 60.5587 16.824 60.5653 16.8314C60.6896 16.9252 60.8047 17.0316 60.9083 17.1444C60.9265 17.127 60.9439 17.1097 60.9629 17.0922C61.0176 17.044 61.0748 16.9983 61.1344 16.9552C61.384 16.7407 61.6766 16.5847 61.9916 16.496L62.0348 16.4843C62.0431 16.4818 62.0514 16.4801 62.0598 16.4785C62.2833 16.4038 62.5185 16.3657 62.7554 16.3664C63.0386 16.3573 63.3226 16.4038 63.5877 16.5134C63.9017 16.6438 64.1751 16.8497 64.4046 17.0972C64.5553 17.2201 64.6869 17.3554 64.826 17.5041C65.1136 17.8121 65.3405 18.1724 65.4837 18.5695C65.5036 18.6251 65.521 18.6823 65.5368 18.7396C65.8873 18.699 66.2392 18.6699 66.5912 18.6557C66.9865 18.6317 67.3814 18.6233 67.7773 18.6367C68.8682 18.6724 69.9351 18.8651 70.9679 19.218C71.1751 19.2794 71.3765 19.3574 71.5701 19.4537C71.874 19.575 72.1617 19.7294 72.4324 19.9163L72.6631 20.0534C72.779 20.1225 72.895 20.1924 73.0073 20.2642C73.2748 20.4362 73.5283 20.6287 73.7685 20.8363C74.022 21.0415 74.2613 21.2649 74.4891 21.4989C74.551 21.5623 74.6106 21.6265 74.6696 21.6911C75.1948 21.9752 75.6609 22.3389 76.0962 22.7727C76.4411 22.5737 76.7984 22.3933 77.1669 22.233C77.5471 22.0678 78.0301 21.8975 78.4283 21.7855C78.7862 21.685 79.14 21.6161 79.4988 21.5654C79.6619 21.5371 79.8259 21.5147 79.9907 21.4956L79.9839 21.4982C80.1001 21.4857 80.2152 21.4749 80.332 21.4649L80.3288 21.4641C80.3783 21.46 80.429 21.4558 80.4785 21.4525L80.5995 21.4425C80.636 21.4392 80.689 21.5247 80.6923 21.5546L80.6964 21.5853C80.7237 21.6161 80.7486 21.6501 80.7658 21.6709C80.7875 21.6692 80.8091 21.6676 80.8305 21.6667C80.8951 21.661 80.9698 21.7763 81.0078 21.8203L81.0422 21.8609C81.0816 21.9082 81.1208 21.9627 81.127 22.0221C81.1694 22.3668 81.2091 22.7121 81.2456 23.0576C81.2595 23.3191 81.2456 23.5782 81.2026 23.8348C81.1703 24.0839 81.1371 24.333 81.1039 24.5813C81.0508 24.7558 80.9986 24.9301 80.9464 25.1044C80.9259 25.171 80.9025 25.2365 80.8803 25.3021C80.7477 25.7402 80.5924 26.1667 80.4076 26.5799C80.5425 26.7296 80.6683 26.8847 80.7854 27.0449C80.8133 27.0737 80.8414 27.1023 80.8678 27.1322C80.8752 27.1207 80.8859 27.1099 80.8978 27.104C80.9375 27.0865 80.9663 27.1073 80.9912 27.1414C81.2521 27.3913 81.4419 27.6828 81.5593 28.0158L81.6329 28.1894C81.645 28.2184 81.6569 28.2475 81.6687 28.2765C81.7624 28.529 81.8345 28.7881 81.8941 29.0504C81.9475 29.2568 81.9857 29.4661 82.0103 29.6776C82.1894 30.2798 82.3309 30.896 82.4643 31.5038C82.4854 31.5995 82.4753 31.6849 82.4447 31.7576L82.5227 31.8338L82.6562 31.9669C82.88 32.1908 83.1086 32.4261 83.275 32.6924C83.4473 32.9689 83.5739 33.2645 83.7147 33.5578L83.745 33.62L83.807 33.7449C83.874 33.8813 83.9063 33.9567 83.9656 34.1215C84.0643 34.3965 84.1171 34.6729 84.142 34.9644C84.1785 35.3886 84.1735 35.8512 83.9881 36.2456C83.9872 36.2489 83.9855 36.2515 83.984 36.2539C83.8995 36.6351 83.6907 36.9888 83.3734 37.2147C83.3055 37.2787 83.2326 37.336 83.1549 37.3816C82.9678 37.4916 82.7964 37.5014 82.5924 37.4505L82.5666 37.4438C82.5411 37.4372 82.5177 37.4314 82.4954 37.4264C82.5286 37.4538 82.5453 37.4863 82.4954 37.5094C82.4474 37.5327 82.4044 37.546 82.3638 37.551C82.3813 37.5734 82.3828 37.5975 82.3463 37.6174C82.2668 37.6597 82.2022 37.6731 82.1361 37.6614L82.15 37.7768C82.2585 38.6504 82.3558 38.8232 82.4409 39.7615C82.4972 40.7222 82.5865 41.6805 82.7101 42.6348L82.7525 42.9814C82.8886 44.0803 83.0419 45.1872 83.2765 46.2683C83.3951 46.7407 83.4968 47.2166 83.5831 47.6958C83.7047 48.0602 83.7901 48.4329 83.8372 48.8134C83.906 49.2003 83.9531 49.5906 83.9807 49.9843C84.0759 50.2358 84.1222 50.4917 84.1198 50.7523C84.1322 51.1028 84.1207 51.4524 84.0833 51.8002C84.0626 52.1623 84.013 52.5211 83.9342 52.8763C83.8639 53.3638 83.7355 53.8347 83.5516 54.2913C83.404 54.8013 83.2234 55.3013 83.0182 55.7902C82.6991 56.5475 82.314 57.2509 81.876 57.9442C81.465 58.5944 81.0244 59.2204 80.5209 59.8028C79.8697 60.5547 79.1275 61.2442 78.3142 61.8253C77.8504 62.1693 77.3609 62.478 76.8488 62.7422C76.2228 63.066 75.5865 63.3575 74.9083 63.5544C74.4849 63.6771 74.0544 63.7619 73.6185 63.8266C72.763 63.9538 71.8767 63.9345 71.0159 63.7859C70.4611 63.7112 69.9152 63.5816 69.3993 63.3963C68.9752 63.2436 68.5708 63.0684 68.1666 62.8709C67.9588 62.7704 67.7583 62.6541 67.5662 62.5236C67.2432 62.3137 66.9408 62.0762 66.6591 61.8138C66.5672 61.7349 66.4776 61.6542 66.3899 61.5697C66.3478 61.5324 66.3709 61.4766 66.4198 61.4633L66.4346 61.4618C66.4157 61.4443 66.3958 61.4268 66.3768 61.4084C66.3727 61.4052 66.3694 61.401 66.3658 61.3969C66.3569 61.3886 66.3469 61.3803 66.3386 61.372C66.3062 61.3438 66.3386 61.2806 66.3667 61.2658C66.3774 61.2599 66.3916 61.2593 66.4074 61.2608C66.4041 61.2575 66.4014 61.2548 66.3982 61.2525C66.3949 61.2498 66.394 61.2433 66.3949 61.2367L66.3824 61.2267C66.3403 61.1893 66.3617 61.1344 66.4115 61.1205C66.4358 61.1131 66.4759 61.1166 66.5177 61.1258L66.5334 61.1294L66.5052 61.103C66.4554 61.0597 66.4711 61.0117 66.5325 60.9969C66.5782 60.9995 66.6232 61.0058 66.668 61.0167L66.7015 61.0256C66.7181 61.0298 66.7338 61.0348 66.7501 61.0398C66.7223 61.0141 66.6941 60.9891 66.6665 60.9633C66.6392 60.9393 66.6683 60.8705 66.6932 60.8563C66.727 60.8373 66.7934 60.8637 66.824 60.8863C66.8993 60.8946 66.9986 60.9278 67.0351 60.9592C67.1353 61.0556 67.2391 61.1478 67.3441 61.2373C67.4078 61.2575 67.4683 61.2839 67.5149 61.3239C67.6341 61.4384 67.7583 61.5463 67.8849 61.651L67.9813 61.7174C67.9976 61.7284 68.0136 61.7393 68.0299 61.7497C68.2123 61.8571 68.3943 61.9632 68.5758 62.0703C69.2409 62.2962 69.906 62.5222 70.5705 62.7472L70.6583 62.7736L71.3035 62.8534C71.7275 62.8982 72.1525 62.8958 72.5765 62.8469C72.8947 62.851 73.2102 62.8193 73.5209 62.7546C74.0484 62.6648 74.5662 62.5328 75.0696 62.3484C75.6496 62.1367 76.2021 61.858 76.7411 61.5573C76.9351 61.4485 77.1254 61.3328 77.3128 61.2109C77.3733 61.1677 77.4338 61.1238 77.4943 61.079C77.8925 60.7792 78.2736 60.4593 78.6407 60.1215C78.8129 59.9629 78.9784 59.7977 79.1382 59.6266C79.1616 59.6017 79.1839 59.5777 79.2061 59.5525C79.3594 59.385 79.5077 59.2115 79.6494 59.0321L79.7843 58.8794C80.3293 58.1992 80.8139 57.4677 81.2497 56.7145C81.6821 55.9678 82.0382 55.1824 82.3214 54.3693C82.4127 54.0796 82.4922 53.7857 82.5583 53.4883C82.6811 53.1313 82.7614 52.7651 82.7985 52.3915C82.8109 52.3183 82.821 52.2453 82.8308 52.1724L82.8367 52.057C82.8373 52.0378 82.8382 52.0185 82.8382 51.9995C82.8548 51.8833 82.8691 51.767 82.8797 51.6508C82.8866 51.5337 82.8904 51.4165 82.8913 51.2994L82.8824 50.5812C82.8797 50.5587 82.8774 50.5356 82.8756 50.5124L82.8575 50.3538C82.8178 50.0264 82.7869 49.6985 82.7472 49.3714C82.7472 49.3696 82.7472 49.3673 82.7463 49.3646C82.7315 49.2427 82.7158 49.1197 82.6977 48.9969C82.6885 48.9237 82.6769 48.8507 82.6659 48.7778L82.6455 48.65C82.6069 48.4276 82.5604 48.207 82.5037 47.9884L82.4788 47.895L82.3347 47.1683L82.1725 46.4534C82.0673 45.9742 81.9795 45.4917 81.9098 45.0051C81.7841 44.2297 81.6761 43.4531 81.5827 42.6736C81.5777 42.6362 81.5727 42.598 81.5685 42.5606C81.4733 41.8374 81.4045 41.1115 81.3598 40.3833C81.2993 39.666 81.2646 38.9468 81.2554 38.227C81.2548 38.1945 81.2761 38.168 81.3019 38.153L81.2996 38.0146C81.2966 37.8921 81.2942 38.039 81.2933 37.8994L81.2916 37.5155C81.2919 37.4835 81.2922 37.4612 81.2927 37.4596C80.85 37.4903 80.5526 37.4652 80.1253 37.4426L80.0527 37.4389C79.661 37.4207 79.2717 37.3775 78.885 37.3126C78.8832 37.3326 78.8699 37.3467 78.8476 37.3509C78.8079 37.3525 78.7705 37.3525 78.7326 37.3534L78.7465 37.4073C78.7474 37.4348 78.7349 37.4521 78.7086 37.4596L78.598 37.4646C78.4506 37.4708 78.3023 37.4737 78.1558 37.4538C78.0242 37.4365 77.8958 37.4056 77.7683 37.3691C77.6897 37.3558 77.6094 37.3376 77.5272 37.3143C77.317 37.2537 77.1082 37.1723 76.8971 37.1076C76.6815 37.0619 76.463 37.047 76.2344 37.1017C75.9924 37.159 75.7878 37.2628 75.5343 37.1997C75.4839 37.1874 75.435 37.1683 75.386 37.1482L75.341 37.1451C75.3333 37.1444 75.3255 37.1436 75.3175 37.1424C75.053 37.1043 74.8179 36.9366 74.5662 36.8468C74.4781 36.8253 74.3909 36.8308 74.3058 36.8664L74.2845 36.8759L74.2008 36.9382C74.167 36.978 74.1338 37.0182 74.1009 37.0586L74.0517 37.1192C73.9615 37.2313 73.8655 37.3318 73.7486 37.4048C73.6078 37.5352 73.4406 37.6116 73.2407 37.6166C73.1274 37.6199 73.0147 37.5958 72.9053 37.561C72.4929 37.6889 72.0513 37.7146 71.6398 37.5901C71.4767 37.5651 71.3166 37.5211 71.1636 37.4521C71.0915 37.4198 71.0195 37.3816 70.9498 37.3392C70.6589 37.4622 70.384 37.6257 70.1032 37.7669L70.04 37.7988C69.753 37.9421 69.4357 38.0818 69.111 38.0609C68.7018 38.0342 68.3001 37.9795 67.8992 37.9105C67.8959 37.9105 67.8917 37.9097 67.8885 37.9088L67.833 37.8997L67.6326 37.8644L67.471 37.8342L67.3882 37.8659C66.7243 38.1178 65.997 38.3142 65.3298 38.138C65.0389 38.1024 64.7664 38.0044 64.5206 37.8374C64.5123 37.8316 64.504 37.8258 64.4957 37.8192C64.4568 37.7993 64.4204 37.7769 64.388 37.7528L64.3809 37.7474L64.3747 37.742L64.3714 37.7403C64.0079 37.5726 63.7991 37.2155 63.8356 36.8153C63.8131 36.6882 63.814 36.5636 63.8389 36.4309C63.7203 36.5711 63.5993 36.7099 63.4768 36.8476C63.0285 37.3889 62.5893 37.941 62.1828 38.5158L62.0894 38.6488C61.8658 38.9651 61.658 39.2924 61.4657 39.6295C61.2711 39.9625 61.0714 40.2922 60.8652 40.6175C60.597 40.9146 60.3378 41.2189 60.0879 41.5305L59.9814 41.6645L59.6219 42.1387C59.3676 42.4411 59.1564 42.7717 58.9899 43.1302C58.8533 43.3852 58.7274 43.6453 58.6139 43.9119C58.5774 43.9922 58.5426 44.0735 58.5087 44.155C58.3919 44.4729 58.2933 44.797 58.2163 45.1315C58.1544 45.3737 58.11 45.6192 58.0836 45.868L58.0755 45.951C58.0655 46.0489 58.0581 46.147 58.054 46.2449C58.078 46.2591 58.0978 46.2734 58.1128 46.2873L58.1732 46.309L58.2221 46.3235C58.2983 46.3472 58.4299 46.3964 58.3985 46.4566L58.2387 46.7623C58.2552 46.7798 58.2627 46.7979 58.2519 46.8181C58.1451 47.023 58.0374 47.2282 57.9297 47.4334C57.9264 47.4408 57.9206 47.4467 57.9148 47.4509C58.0067 47.493 58.0962 47.5395 58.1815 47.5902C58.348 47.6899 58.4706 47.8052 58.5841 47.9398C58.7033 48.0113 58.816 48.0893 58.922 48.1788C59.0529 48.3167 59.1672 48.4679 59.2641 48.6316C59.3535 48.7861 59.4264 48.9471 59.4828 49.1155C59.5076 49.2045 59.5192 49.2967 59.5184 49.3904C59.4182 50.0997 58.6089 49.614 58.5932 49.5517C58.4822 49.1232 58.3546 48.8525 58.068 48.5338L58.0606 48.5284C57.8949 48.4555 57.7309 48.3831 57.5594 48.3268C57.5338 48.3318 57.5073 48.3351 57.4808 48.3392C57.5106 48.3816 57.4957 48.4232 57.4352 48.4306C57.1743 48.4822 56.9109 48.4961 56.6458 48.4739L56.2433 48.4166C56.0763 48.4807 55.9167 48.5631 55.7663 48.6613L55.7165 48.6948L55.7074 48.7013C55.3189 49.0144 55.0191 49.4304 54.8136 49.8838C54.7954 49.9241 54.7779 49.9648 54.7612 50.006L54.7366 50.068L54.735 50.0715C54.4666 51.1286 54.706 52.2892 55.1963 53.2484C55.4639 53.6778 55.743 54.0986 56.0346 54.5113L56.3178 54.8826C56.4851 55.0403 56.6491 55.2022 56.809 55.3683C56.8339 55.3935 56.8604 55.4181 56.8869 55.4421C56.9714 55.4979 57.0575 55.5471 57.1453 55.5886C57.1793 55.6002 57.2141 55.6108 57.2488 55.62C57.4178 55.7013 57.5951 55.7446 57.7814 55.7496C58.0276 55.7659 58.2665 55.7369 58.4974 55.6636L58.5435 55.6482L58.5774 55.6357C58.7033 55.5551 58.8201 55.4549 58.9311 55.3369C58.956 55.3111 59.0023 55.3111 59.0554 55.3253C59.0844 55.2953 59.1133 55.2636 59.1407 55.2298C59.1597 55.209 59.1895 55.2082 59.2127 55.2239C59.2914 55.2147 59.5043 55.336 59.4488 55.4C59.4397 55.4148 59.4281 55.4282 59.4182 55.4421C59.4554 55.4614 59.4927 55.483 59.5258 55.5056C59.6998 55.5539 59.9567 55.728 59.9358 55.7802L59.9334 55.7843C59.8931 55.8608 59.8408 55.9249 59.7764 55.9756L59.7544 55.9919L59.7056 56.026C59.7743 56.0693 59.8323 56.1191 59.8033 56.1538C59.7901 56.1796 59.776 56.2048 59.7594 56.227C59.9002 56.4014 60.0402 56.5775 60.1794 56.7533C60.3185 57.0558 60.4908 57.3381 60.6962 57.5996C60.8677 57.8837 61.0739 58.1387 61.315 58.3661C61.3348 58.386 61.3555 58.4053 61.3754 58.4242C61.553 58.5556 61.7389 58.6789 61.9322 58.7973L62.0156 58.8477C62.0598 58.8744 62.1333 58.9076 62.0986 58.9713C62.0944 58.9796 62.0894 58.9864 62.0838 58.9912C62.2053 59.0709 62.3314 59.1466 62.4612 59.2165L62.4737 59.224C62.5229 59.2554 62.5893 59.3126 62.5194 59.3592C62.4598 59.3989 62.3014 59.291 62.227 59.2411C62.2128 59.2411 62.1962 59.2373 62.1798 59.2323C62.2045 59.2453 62.2291 59.2598 62.254 59.2738L62.2916 59.2945C62.3204 59.3117 62.463 59.4066 62.3637 59.4463C62.3148 59.4505 62.27 59.438 62.2285 59.4099C62.1798 59.3859 62.1318 59.3601 62.0844 59.3334C62.101 59.3592 62.101 59.385 62.0598 59.4016C62.0455 59.4025 62.0316 59.4016 62.0174 59.3998C62.1152 59.4621 62.2154 59.5202 62.3189 59.575L62.3355 59.5854C62.3794 59.6139 62.4491 59.6681 62.3984 59.7147C62.3412 59.766 62.184 59.6563 62.1434 59.6317L62.0224 59.5593C62.0132 59.5635 62.0034 59.5649 61.9924 59.5661C62.0289 59.5884 62.063 59.6124 62.1001 59.634L62.1508 59.6616C62.2145 59.6969 62.3041 59.7547 62.2718 59.8125C62.2391 59.8698 62.1425 59.8226 62.0802 59.7856L62.0129 59.7438C62.0102 59.742 62.0073 59.7402 62.004 59.7387L62.0016 59.7485C62.001 59.7503 62.0002 59.7521 61.9993 59.7535C61.9681 59.8078 61.8898 59.7722 61.8362 59.7411L61.7929 59.7147C61.7193 59.6702 61.6467 59.6263 61.5746 59.5821L61.4665 59.5154H61.4649C61.0913 59.2904 60.7459 59.0662 60.4204 58.7771C60.2258 58.6042 60.0444 58.4216 59.8721 58.2265C59.5258 57.8353 59.2682 57.3879 59.0198 56.9312C59.0156 56.9235 59.0214 56.9046 59.0313 56.8838C59.004 56.8275 58.9775 56.7699 58.951 56.7109C58.6959 56.7827 58.4109 56.8034 58.1484 56.7859C58.0076 56.7768 57.8684 56.7519 57.7301 56.7145C57.2886 56.6528 56.8629 56.4512 56.4951 56.2095C56.4719 56.1947 56.4512 56.1781 56.4296 56.1633C56.2781 56.0776 56.1339 55.9779 55.9973 55.8641C55.7306 55.6432 55.4763 55.3973 55.2452 55.1408C55.0779 54.9416 54.9197 54.7349 54.7714 54.5205C54.6206 54.3088 54.4682 54.0971 54.3158 53.8854C53.8926 53.2209 53.6217 52.4561 53.5165 51.6748C53.4652 51.3869 53.4387 51.0951 53.4445 50.8045C53.4486 50.5946 53.4718 50.382 53.5124 50.1703C53.4883 50.1468 53.4643 50.1237 53.4403 50.0997C53.4271 50.1228 53.4138 50.1394 53.4055 50.1311L53.2157 49.9407C53.081 49.8046 52.9907 49.7044 52.8356 49.4844C52.5888 49.133 52.4049 48.747 52.2683 48.3401C52.1697 48.0495 52.1043 47.7189 52.0786 47.3993C52.0703 47.3462 52.062 47.2922 52.0554 47.2374C52.0024 46.8047 52.0513 46.3902 52.1167 45.9635C52.1208 45.9353 52.1349 45.9178 52.154 45.9086C52.1588 45.8748 52.1645 45.8402 52.1701 45.8055C51.6214 45.2234 51.2266 44.5215 51.2588 43.6741C51.2689 43.4069 51.3236 43.1439 51.428 42.8981L51.4406 42.8702C50.9826 42.7996 50.6194 42.4773 50.3464 42.0773C50.3223 42.0583 50.2988 42.039 50.2763 42.0198C49.7883 41.6017 49.4499 41.0101 49.2182 40.3853C49.0523 40.0224 48.9424 39.6345 48.8958 39.2323C48.8924 39.2036 48.8905 39.1751 48.8879 39.1465C48.7746 38.5105 48.7457 37.8682 48.7981 37.2353C48.6844 36.8437 48.5919 36.4451 48.5285 36.0372C48.4987 35.843 48.478 35.6486 48.4622 35.4543L48.4606 35.4435L48.4581 35.4086L48.4511 35.3214C48.45 35.307 48.449 35.2926 48.4481 35.2782C48.3082 33.4996 48.7049 31.7491 49.3609 30.1017C49.4181 29.9535 49.4771 29.8057 49.538 29.6591L49.6025 29.506C50.261 28.4414 51.2499 27.5804 52.0874 26.671C52.3764 26.3573 51.909 25.8863 51.6189 26.2013C51.0624 26.8055 50.4655 27.3842 49.9265 28.0052C49.8313 28.0122 49.736 28.0147 49.6409 28.01C49.4752 28.0016 49.3145 27.9751 49.1588 27.9327C48.7704 27.8754 48.4167 27.7185 48.0953 27.4876C47.6654 27.2868 47.2985 26.908 47.262 26.4139C47.2579 26.3641 47.2587 26.3151 47.262 26.2662C47.2222 26.0245 47.2579 25.7713 47.3589 25.5379C47.3763 25.474 47.3987 25.4108 47.4269 25.3486C47.5088 25.1634 47.6439 24.9858 47.8087 24.8653C47.8128 24.8628 47.8162 24.8612 47.8195 24.8587C47.8369 24.8405 47.8534 24.8221 47.8725 24.8056C47.9006 24.7798 47.9305 24.7558 47.9619 24.7333C47.8501 24.5489 47.7491 24.3597 47.6629 24.1578C47.5693 23.9386 47.5213 23.7161 47.4948 23.481C47.484 23.3881 47.4799 23.2959 47.4782 23.2038C47.4732 23.1614 47.4699 23.1182 47.4666 23.075C47.4459 22.7462 47.484 22.405 47.6066 22.0977C47.6157 22.0745 47.6273 22.0512 47.6381 22.0271C47.6613 21.9573 47.6869 21.8877 47.7184 21.8195C47.841 21.5579 48.0149 21.3362 48.2295 21.1543C48.3454 21.0373 48.4755 20.9335 48.6171 20.8454C48.7008 20.7931 48.796 20.7466 48.8963 20.7084C49.0752 20.6138 49.3046 20.5274 49.491 20.5208C49.5133 20.5199 49.5332 20.5225 49.5547 20.5225C49.5722 20.0458 49.6334 19.5268 49.8215 19.095C49.9308 18.782 50.0948 18.5039 50.3416 18.3037C50.4848 18.1539 50.6612 18.0322 50.8813 17.9527L50.9206 17.9391L50.9355 17.935C51.1335 17.8387 51.3472 17.8005 51.5667 17.8014C51.8226 17.788 52.0835 17.8363 52.3064 17.9541C52.3528 17.979 52.4025 18.0097 52.4497 18.0429C52.4853 17.9715 52.525 17.8993 52.5706 17.8271C52.7305 17.5704 52.9234 17.3471 53.1471 17.1436C53.1736 17.1195 53.2026 17.0979 53.2308 17.0748C53.3393 16.976 53.4544 16.8846 53.5737 16.8016C53.8313 16.6221 54.1137 16.4885 54.4103 16.4021C54.7526 16.2753 55.1138 16.2164 55.4752 16.2288L55.55 16.232C55.5666 16.2335 55.5831 16.2344 55.5989 16.2352C55.9575 16.2585 56.3112 16.3465 56.6492 16.4793C56.9995 16.6181 57.296 16.8281 57.5719 17.0689C57.6365 16.9793 57.7102 16.8945 57.8005 16.8148C57.8262 16.7925 57.8535 16.7725 57.8792 16.7517C57.899 16.7317 57.9198 16.7126 57.9413 16.6935C58.0399 16.6064 58.1442 16.5308 58.2585 16.4635C58.3869 16.3881 58.5252 16.3357 58.6686 16.3034C58.8143 16.2534 58.9676 16.2227 59.1233 16.2128ZM57.4212 50.4451C57.4358 50.4442 58.203 50.7328 58.5852 50.9193L58.604 50.9285C59.0446 51.1476 59.2567 51.3053 59.6526 51.587C59.6791 51.606 59.7064 51.6351 59.7064 51.6632C59.7064 52.0733 59.6071 52.5747 59.2633 52.3527C59.2136 52.3203 59.1635 52.2892 59.1131 52.2581L59.0372 52.2121L59.0347 52.213C59.0355 52.213 59.0364 52.2121 59.0372 52.2115C58.2884 51.754 57.4974 51.3952 56.6624 51.1384C56.6053 51.1176 57.0285 50.4766 57.1453 50.5124C57.0782 50.4858 57.41 50.4457 57.4212 50.4451ZM65.2889 32.3357C64.791 32.3891 64.2929 32.4417 63.795 32.4931C63.4777 32.5296 63.1598 32.562 62.8417 32.5894C62.3637 32.6252 61.886 32.6309 61.4096 32.5653C61.2406 32.5422 61.0749 32.5089 60.9109 32.4681C60.7991 32.5504 60.6832 32.6276 60.5647 32.7016L59.2494 33.7104C58.3672 34.4055 57.5041 35.142 56.7272 35.9549C55.3703 37.3752 54.2651 39.0368 53.5702 40.8773C53.5072 40.9146 53.4585 40.9796 53.4422 41.0792C53.3195 41.8338 52.9605 42.5218 52.8308 43.2732C52.7031 44.0133 52.8729 44.6422 53.3366 45.2287C53.4356 45.3542 53.6384 45.3473 53.7628 45.2628C53.7917 45.3198 53.9169 45.3174 53.9609 45.0659C54.1671 44.8421 54.3434 44.6075 54.4629 44.3169C54.5508 44.1031 54.403 43.9549 54.2236 43.9255C54.2981 43.6566 54.3822 43.39 54.4767 43.1261C54.7567 42.3421 55.1128 41.5934 55.5609 40.8906C55.9552 40.273 56.4116 39.7348 56.902 39.195C56.9078 39.1876 56.9177 39.1852 56.9285 39.1835L57.0304 39.0705C57.0444 39.0547 57.0734 39.0564 57.1057 39.0647C57.1364 39.0323 57.1662 38.9991 57.1977 38.9667C57.2283 38.9335 57.2623 38.9434 57.2813 38.97C57.3335 38.9584 57.4288 39.0148 57.4578 39.0332C57.5075 39.0663 57.5232 39.1037 57.481 39.151C57.4735 39.1594 57.466 39.1677 57.4586 39.1751C57.5157 39.1993 57.5721 39.2316 57.616 39.2632C57.7692 39.2972 57.9846 39.44 57.9473 39.4824C57.8686 39.5646 57.7924 39.6485 57.717 39.7339C57.7833 39.7804 57.8264 39.8261 57.809 39.8463C57.4859 40.1873 57.1878 40.5487 56.9144 40.9312C56.7065 41.2171 56.5185 41.5142 56.3503 41.8241C56.1002 42.2623 55.8881 42.7133 55.7001 43.1768C55.6736 43.2474 55.6479 43.3179 55.6231 43.3885C55.3481 44.1598 55.1427 44.9604 55.0557 45.7758L55.0521 45.8307C55.0359 46.1245 55.0295 46.9109 54.9994 47.0986C55.1824 47.189 55.3729 47.2664 55.5709 47.3296C55.6082 47.3403 55.6463 47.3503 55.6844 47.3595C55.7059 47.3503 55.7283 47.3426 55.7506 47.3361C55.9329 47.2623 56.1234 47.2089 56.318 47.1834C56.4492 47.1659 56.5798 47.16 56.7102 47.1635L56.7661 47.1659C56.8241 47.1674 56.8813 47.1715 56.9392 47.1775C56.9359 47.1443 56.9343 47.1119 56.9318 47.0787C56.9152 47.0678 56.9028 47.0529 56.902 47.0331C56.863 46.6594 56.8622 46.2855 56.8995 45.9119C56.9244 45.7168 56.9533 45.5226 56.9848 45.3284C57.0171 45.1688 57.0544 45.012 57.095 44.8548C57.2026 44.4148 57.3459 43.9854 57.5199 43.5655C58.0152 42.367 58.7251 41.2868 59.4391 40.2122C59.9601 39.4276 60.4529 38.6254 60.9921 37.854C61.451 37.1972 61.9331 36.5503 62.4473 35.9358C62.9609 35.3223 63.5035 34.7318 64.0891 34.1855C64.1834 34.0982 64.2789 34.0135 64.3756 33.9297C64.9307 33.4315 65.5338 33.022 66.1615 32.6202C66.1856 32.6044 66.2286 32.6219 66.2641 32.6517L66.3655 32.5892C66.3824 32.5789 66.3996 32.5686 66.4165 32.5587C66.4323 32.5488 66.4498 32.5653 66.4589 32.5794C66.5019 32.557 66.5449 32.5355 66.5882 32.5138C66.6197 32.4884 66.652 32.4644 66.6834 32.4393C66.2179 32.4158 65.7529 32.3809 65.2889 32.3357ZM71.1283 26.8003C70.752 26.7248 70.3745 26.714 69.995 26.7704C69.836 26.7938 69.678 26.8218 69.5211 26.8558C69.8773 27.1672 70.1637 27.5657 70.3496 28.0243C70.5507 28.52 69.7492 28.7337 69.5511 28.2451C69.3598 27.7738 68.9981 27.4122 68.5613 27.1955C68.467 27.2484 68.3754 27.3057 68.2879 27.3691C68.1737 27.4621 68.0661 27.5626 67.965 27.673C67.7447 27.9131 67.5424 28.2335 67.4099 28.5507C67.3586 28.7235 67.3203 28.9012 67.2963 29.0839C67.2916 29.1254 67.2865 29.1677 67.2824 29.2101C67.2008 30.0694 67.4458 30.9055 67.8674 31.6454L67.884 31.6457C68.2603 31.4411 68.6544 31.2687 69.06 31.1283C69.3847 30.9091 69.7219 30.7064 70.0688 30.5229C70.8065 30.1327 71.5858 29.8319 72.3888 29.6262L72.4816 29.6028C72.6708 29.5544 72.8617 29.5117 73.0533 29.4744L73.1683 29.4526H73.1698L73.1577 29.3288C73.093 28.8431 72.9033 28.3922 72.658 27.9754C72.4742 27.6607 72.1966 27.3385 71.8886 27.0811L71.8868 27.0802C71.7471 27.0004 71.6 26.9345 71.4485 26.88L71.3916 26.8601L71.1283 26.8003ZM61.0308 26.0622C60.2489 25.9882 59.467 25.9957 58.6851 26.0596C58.174 26.1104 57.6662 26.1808 57.161 26.2705C56.8189 26.3295 56.4835 26.4125 56.1538 26.5156L56.3423 26.8979C56.6575 27.5345 56.9803 28.167 57.3606 28.7683C57.5569 29.078 57.7698 29.3729 58.0017 29.656C58.1583 29.8586 58.3305 30.0463 58.5194 30.219C58.5691 30.2797 58.6221 30.337 58.676 30.3925C58.8482 30.5403 59.0338 30.6699 59.2367 30.777C59.3994 30.8958 59.5694 30.9996 59.7465 31.0906L59.8132 31.1242L60.4344 31.3632C60.4676 31.3726 60.5011 31.382 60.5347 31.391L60.5852 31.404L60.6796 31.4239L60.7505 31.3853C60.7624 31.3789 60.7743 31.3726 60.7865 31.3666C60.8064 31.3558 60.8204 31.3766 60.8246 31.3915C60.8262 31.3974 60.8237 31.4056 60.8196 31.4139L60.9101 31.3648C61.0658 31.4282 61.2309 31.4788 61.4081 31.5122C61.4883 31.5272 61.5687 31.5388 61.6491 31.5487L61.6597 31.5559C61.6615 31.5571 61.6633 31.5585 61.6654 31.5601H61.7531C62.3726 31.62 63.0006 31.5409 63.6189 31.4295C64.4936 31.3413 65.3683 31.2441 66.2425 31.1532C66.2591 31.1516 66.2656 31.159 66.2656 31.1707L66.3196 31.1657C66.3973 31.1573 66.4886 31.2877 66.4296 31.3351C66.477 31.3632 66.5224 31.404 66.5565 31.4356L66.5764 31.4338C66.4563 31.198 66.3635 30.9514 66.297 30.6949L66.2125 30.2646C66.1894 30.1044 66.1764 29.9334 66.1737 29.7648C66.1681 29.6875 66.1639 29.6154 66.1639 29.5522C66.1639 29.4924 66.1645 29.4326 66.1672 29.3729C66.0023 29.3047 65.8351 29.245 65.6643 29.1943C65.1798 29.1346 64.6961 29.0747 64.2116 29.0157C63.9207 29.0266 63.6301 29.0473 63.3401 29.0797C63.0113 29.1088 62.6833 29.1461 62.356 29.191C62.3254 29.1943 62.2709 29.1528 62.2377 29.1046L62.0977 29.1238C62.0248 29.1329 61.9486 28.9867 62.0446 28.9568C62.0793 28.9429 62.1143 28.9299 62.149 28.9172L62.2012 28.8987L62.1712 28.902C62.1615 28.9029 62.149 28.9003 62.1351 28.8954C62.058 28.9053 61.9809 28.9153 61.9047 28.9244C61.808 28.9365 61.8299 28.8088 61.8979 28.7787L61.9305 28.7666C61.8732 28.7308 61.8228 28.6329 61.8934 28.6009L61.9029 28.5973C61.9361 28.584 61.9684 28.5732 62.0016 28.5607C61.999 28.55 61.999 28.5399 62.0025 28.5309L61.8658 28.5482C61.8534 28.5499 61.9127 28.4625 61.9411 28.4452L61.9462 28.4428L62.0114 28.4229C62.0215 28.3946 62.0746 28.3324 62.0927 28.3266C62.3328 28.251 62.5564 28.183 62.7901 28.1306C62.8017 28.1165 62.815 28.1057 62.8298 28.1023C62.9757 28.0675 63.1231 28.0401 63.2705 28.0169C63.2805 28.0019 63.2903 27.9911 63.3019 27.9903C63.6672 27.9437 64.0334 27.9329 64.4011 27.9579C64.4717 27.9645 64.5419 27.972 64.6125 27.9811C64.7474 27.9961 64.8823 28.0152 65.0167 28.041C65.3526 28.0988 65.6809 28.1867 66.0008 28.3053L66.0744 28.3332C66.1547 28.3632 66.2342 28.3946 66.3128 28.4288C66.3525 28.2868 66.4023 28.1472 66.461 28.0103C66.4702 27.9836 66.4803 27.9579 66.491 27.9322L66.4106 27.884C66.3931 27.9172 66.3575 27.9429 66.3344 27.9289C65.7589 27.5394 65.1498 27.2147 64.5081 26.9556C64.1485 26.7962 63.7808 26.6609 63.4039 26.5479C63.2159 26.4873 63.0261 26.4325 62.8358 26.3802C62.7406 26.3602 62.6451 26.3403 62.5481 26.3237C62.0506 26.1891 61.5444 26.1021 61.0308 26.0622ZM79.9999 27.3801C79.9299 27.5011 79.8573 27.6211 79.7802 27.7393C79.4057 28.3138 78.9567 28.853 78.4476 29.3231C78.5805 29.3227 78.713 29.3278 78.8438 29.3401C79.0691 29.3614 79.29 29.399 79.5056 29.4515C79.5231 29.4375 79.5424 29.4304 79.5581 29.4415L79.6144 29.4805C80.0764 29.6055 80.5099 29.8019 80.9028 30.0652L80.8957 30.0132C80.8945 30.0045 80.8933 29.9959 80.8918 29.9872C80.8984 29.8851 80.9002 29.7828 80.8966 29.6815C80.8156 29.0828 80.6125 28.5315 80.3806 27.9735C80.3762 27.9627 80.3795 27.9487 80.3863 27.9344C80.2692 27.7428 80.1411 27.5574 79.9999 27.3801ZM80.1067 22.6731C79.9335 22.7046 79.7621 22.7453 79.5913 22.7959C79.2708 22.8442 78.9603 22.9289 78.6602 23.0492C78.2472 23.1962 77.8463 23.3672 77.4469 23.5483C76.6715 23.9003 75.9444 24.3455 75.2825 24.8819C75.2404 24.9142 75.1998 24.9475 75.1592 24.9807C75.0109 25.1094 74.8668 25.2439 74.7301 25.3859C74.5869 25.542 74.4425 25.6982 74.2993 25.8551C74.1237 26.0395 73.9215 26.2063 73.7626 26.4056C73.7303 26.4463 73.7021 26.4911 73.6766 26.5361L73.77 26.5683C73.8489 26.5949 73.8355 26.7427 73.7575 26.7211C73.7311 26.7137 73.7062 26.7045 73.6813 26.6946C73.6923 26.7087 73.6997 26.7229 73.7012 26.7353C73.7062 26.7751 73.6757 26.83 73.6268 26.8159C73.6045 26.81 73.582 26.8017 73.5598 26.7925C73.5529 26.8183 73.5482 26.844 73.5482 26.8689C73.5523 26.8706 73.5565 26.8722 73.5612 26.8732C73.6161 26.8923 73.7187 26.9777 73.7335 27.0359C73.7451 27.0808 73.7071 27.1289 73.6582 27.1155C73.6217 27.1056 73.5861 27.0906 73.5515 27.074C73.5746 27.0965 73.5927 27.1206 73.5944 27.1414C73.5977 27.1796 73.5645 27.2335 73.5191 27.2211C73.4346 27.1978 73.3667 27.1621 73.3104 27.1173C73.2956 27.1372 73.2739 27.1529 73.2564 27.148L73.2241 27.1381C73.233 27.1463 73.2413 27.155 73.249 27.1636L73.2606 27.1762C73.4892 27.4236 73.689 27.6976 73.8489 27.9925C73.8563 27.9841 73.8652 27.9766 73.877 27.9675C73.9515 27.9044 74.0286 27.843 74.1057 27.7833L74.1288 27.7628L74.1528 27.7425L73.9796 27.7998L73.9835 27.7953C73.9956 27.7796 74.0339 27.7272 74.0514 27.7098L74.0558 27.7059C74.2936 27.4926 74.5528 27.3115 74.8327 27.1638C75.0142 27.0458 75.2046 26.9462 75.4044 26.8639C75.8806 26.6422 76.366 26.4738 76.8645 26.3176C76.9392 26.2936 77.0136 26.2678 77.0884 26.2445C77.1097 26.237 77.1139 26.2461 77.1106 26.2611L77.1495 26.2495C77.2191 26.227 77.3374 26.35 77.2903 26.4072C77.3188 26.4305 77.3469 26.4564 77.3712 26.4807L77.389 26.4986L77.4089 26.4928C77.4679 26.4745 77.5678 26.567 77.6313 26.6325L77.6779 26.6821C77.7137 26.7203 77.7831 26.7992 77.698 26.83L77.591 26.8664C77.5942 26.888 77.5853 26.9063 77.5521 26.9188C77.5148 26.9312 77.4783 26.9445 77.4418 26.9579C77.4641 26.9772 77.4857 26.9973 77.5071 27.0176L77.5388 27.0483C77.5764 27.0867 77.6654 27.1713 77.5868 27.2086L77.577 27.2127L77.475 27.2492C77.4884 27.2791 77.4851 27.3075 77.4403 27.324C76.8455 27.5266 76.2649 27.7642 75.6974 28.034C75.2725 28.2698 74.8235 28.4459 74.3506 28.5612C74.3117 28.5738 74.2272 28.5148 74.1925 28.4559L74.122 28.4767C74.1101 28.4801 74.0982 28.4835 74.0864 28.4865L74.0748 28.4891C74.1635 28.7257 74.229 28.9822 74.2655 29.2305C74.2696 29.2529 74.2729 29.2763 74.2753 29.2987C74.3681 29.2912 74.46 29.2845 74.5528 29.2796C75.1948 29.2455 75.8442 29.2662 76.4876 29.3426C76.7477 29.1873 76.9979 29.0171 77.2372 28.8328C77.3102 28.7763 77.3822 28.7182 77.4534 28.6592C77.881 28.2872 78.2676 27.8696 78.6107 27.4186C78.928 27.001 79.2037 26.5526 79.4356 26.0826C79.6411 25.6417 79.8107 25.1833 79.9391 24.71C80.0568 24.2773 80.0975 23.8563 80.1274 23.4088C80.1372 23.3357 80.1437 23.2627 80.1497 23.1895L80.1491 23.1582L80.1479 23.143C80.1396 22.9862 80.1239 22.8291 80.1067 22.6731ZM74.0378 28.2341C74.0188 28.2408 73.9989 28.2474 73.979 28.2532C73.9906 28.279 74.0013 28.304 74.0119 28.3296L74.0134 28.3291L74.0917 28.2674C74.0751 28.2599 74.0558 28.2483 74.0378 28.2341ZM79.9907 21.4956C80.1399 21.44 80.2525 21.4292 80.3288 21.4641C80.2161 21.4724 80.1034 21.4832 79.9907 21.4956Z" fill="black"/>
<path fill-rule="evenodd" clip-rule="evenodd" d="M75.0963 57.1411C74.5383 56.9134 74.0404 56.5335 73.6763 56.0484C73.55 55.8797 73.5171 55.7015 73.5438 55.5387C73.5734 55.3554 73.6819 55.1894 73.8296 55.0782C73.9779 54.9664 74.1632 54.9112 74.3423 54.9394C74.4983 54.9637 74.653 55.0491 74.7758 55.2259L74.8016 55.2614C75.0178 55.5541 75.2998 55.7946 75.6212 55.9494C75.9308 56.0988 76.2771 56.1685 76.6356 56.1279C77.3182 56.0508 77.7888 55.6813 78.2887 55.1799C78.3507 55.1164 78.4129 55.0512 78.4752 54.9848C78.5146 54.9249 78.5692 54.886 78.6297 54.8659C78.697 54.8433 78.7732 54.8445 78.8432 54.8688C78.9105 54.8926 78.9704 54.937 79.0107 54.996C79.0493 55.0524 79.0709 55.1221 79.0638 55.2021C79.0181 55.7219 78.7465 56.1857 78.3607 56.5498C77.9323 56.9543 77.3641 57.2342 76.8292 57.3323C76.2403 57.4406 75.6399 57.3632 75.0963 57.1411ZM77.1073 49.1231C77.7342 49.5042 78.6893 50.3928 78.015 51.3379C77.2212 52.1711 76.0784 51.2157 75.5153 50.7837C74.9932 50.4489 74.4063 51.31 74.8909 51.7011C78.96 54.7149 80.6116 49.2228 77.4243 48.6748C77.0735 48.6146 76.9431 49.0051 77.1073 49.1231ZM69.8153 45.6171C69.8847 44.7572 71.1938 44.562 71.324 45.4131C71.4405 46.1751 71.3032 46.8755 70.9602 47.5617C70.6322 48.2176 69.8079 47.9116 69.7456 47.3144C69.662 46.5143 69.7723 46.1523 69.8153 45.6171ZM79.7814 45.2363C79.964 44.9973 80.2274 44.834 80.5431 44.9262C81.5297 45.2147 81.2391 46.6158 80.8925 47.2978C80.7042 47.6681 80.0957 47.7621 79.8208 47.4359C79.3725 46.9043 79.1578 45.8421 79.7277 45.3185C79.7431 45.2912 79.7603 45.2639 79.7814 45.2363ZM70.9462 41.8542L71.1022 41.8269C71.584 41.7436 72.1836 41.6635 72.5246 42.0511C72.7055 42.2569 72.7678 42.6391 72.5246 42.8357C72.097 43.182 71.6241 43.0477 71.1117 43.0771C70.6894 43.1014 70.2835 43.1714 69.8767 43.2876C68.9841 43.5429 68.2571 44.0087 67.4947 44.5202C67.3948 44.5872 67.2925 44.4594 67.3402 44.3657C67.7803 43.5035 68.6331 42.7954 69.487 42.3636C69.9431 42.1332 70.4418 41.942 70.9462 41.8542ZM78.882 41.4678L79.0012 41.4925C80.2994 41.7638 81.9857 42.3061 82.6004 43.5814C82.6238 43.7617 82.5989 43.8003 82.5788 43.8258L82.5722 43.8341C82.5556 43.8557 82.5423 43.8854 82.4643 43.91C82.4424 43.9047 82.4207 43.8993 82.3985 43.8934C82.1168 43.8196 81.8938 43.7178 81.6779 43.6123L81.444 43.4969C81.1727 43.3638 80.8987 43.2354 80.6084 43.1408C79.9889 42.9386 79.352 42.7963 78.705 42.7203C78.5648 42.7037 78.4298 42.6563 78.3231 42.5754C78.222 42.4983 78.1449 42.3915 78.1096 42.2498C78.0639 42.0665 78.077 41.9274 78.1754 41.762C78.2496 41.6377 78.3554 41.5518 78.4767 41.5022C78.6006 41.4518 78.7418 41.44 78.882 41.4678Z" fill="black"/>
</g>
</svg>
