<svg width="132" height="88" viewBox="0 0 132 88" fill="none" xmlns="http://www.w3.org/2000/svg">
<path d="M37.9378 63.25C29.9035 63.25 23.375 56.8333 23.375 48.9359V39.0641C23.375 31.1667 29.9035 24.75 37.9378 24.75C45.9734 24.75 52.4818 31.1667 52.4818 39.0641V48.9359C52.4818 56.8333 45.9734 63.25 37.9378 63.25ZM37.9378 33.6346C34.8847 33.6346 32.4148 36.0631 32.4148 39.0641V48.9359C32.4148 51.9369 34.8847 54.3654 37.9378 54.3654C40.991 54.3654 43.462 51.9369 43.462 48.9359V39.0641C43.4417 36.0631 40.9708 33.6346 37.9378 33.6346ZM93.2578 39.6564H104.105C106.596 39.6564 108.625 41.6505 108.625 44.0987C108.625 46.5469 106.617 48.541 104.105 48.541H93.2578C90.7679 48.541 88.7392 46.5469 88.7392 44.0987C88.7392 41.6505 90.7679 39.6564 93.2578 39.6564ZM71.0817 63.25C63.0476 63.25 56.519 56.8333 56.519 48.9359V39.0641C56.519 31.1667 63.0476 24.75 71.0817 24.75C76.2842 24.75 81.0857 27.4746 83.6964 31.8972C84.9418 34.0295 84.2193 36.7344 82.0499 37.9585C79.8804 39.1826 77.1289 38.4718 75.8831 36.3395C74.3359 33.7531 70.9612 32.8646 68.3102 34.3651C66.602 35.3326 65.5375 37.1292 65.5375 39.0641V48.9359C65.5375 51.9369 68.0084 54.3654 71.0618 54.3654C73.03 54.3654 74.8588 53.3387 75.8429 51.6408C77.0887 49.5085 79.8601 48.7977 82.0094 50.0218C84.1788 51.2459 84.9017 53.9705 83.6562 56.0831C81.0654 60.5254 76.264 63.2303 71.0817 63.25Z" fill="#495057"/>
</svg>
