<svg width="132" height="88" viewBox="0 0 132 88" fill="none" xmlns="http://www.w3.org/2000/svg">
<path d="M73.318 37.1781C72.2944 40.9993 70.1615 44.4299 67.188 47.035C64.2133 49.6409 60.533 51.3076 56.6139 51.8252C52.6938 52.3427 48.7077 51.683 45.1624 49.9346C41.6159 48.1861 38.6674 45.424 36.6913 42.0016C34.7152 38.5795 33.7977 34.6446 34.0566 30.6994C34.3154 26.754 35.7368 22.9719 38.1446 19.8364C40.5535 16.7007 43.8359 14.3474 47.5802 13.0744C51.3235 11.8015 55.3605 11.6691 59.1816 12.6937C64.3002 14.0684 68.6642 17.4216 71.3149 22.0116C73.9645 26.6016 74.6864 32.0585 73.318 37.1781Z" fill="url(#paint0_linear_2056_25398)"/>
<path d="M39.8719 70.1403C37.0782 67.3438 35.1741 63.7806 34.4045 59.9023C33.6319 56.0234 34.0277 52.0035 35.5429 48.3501C37.0542 44.6967 39.619 41.5744 42.9065 39.3774C46.1929 37.1807 50.055 36.0078 54.0111 36.0078C57.9623 36.0078 61.8286 37.1807 65.1159 39.3777C68.4024 41.5744 70.9671 44.6967 72.4785 48.3501C73.9896 52.0035 74.3864 56.0234 73.617 59.9023C72.8473 63.7806 70.9432 67.3438 68.1464 70.1403C64.3962 73.8847 59.3107 75.9876 54.0111 75.9876C48.7108 75.9876 43.6251 73.8847 39.8719 70.1403Z" fill="url(#paint1_linear_2056_25398)"/>
<path d="M63.8601 56.823C61.0663 54.0262 59.1622 50.463 58.3887 46.5844C57.6189 42.7056 58.0158 38.6848 59.5272 35.0312C61.0383 31.3775 63.6032 28.2543 66.8917 26.0574C70.179 23.8604 74.0411 22.6875 77.9942 22.6875C81.9496 22.6875 85.8128 23.8604 89.1001 26.0574C92.3875 28.2546 94.9524 31.3775 96.4646 35.0312C97.976 38.6848 98.3728 42.7056 97.6031 46.5844C96.8295 50.463 94.9254 54.0262 92.1317 56.823C88.3774 60.5657 83.2949 62.6673 77.9942 62.6673C72.6969 62.6673 67.6144 60.5657 63.8601 56.823Z" fill="url(#paint2_linear_2056_25398)"/>
<defs>
<linearGradient id="paint0_linear_2056_25398" x1="71.313" y1="22.0094" x2="36.6893" y2="41.9992" gradientUnits="userSpaceOnUse">
<stop stop-color="#00FF85"/>
<stop offset="1" stop-color="#0066FF"/>
</linearGradient>
<linearGradient id="paint1_linear_2056_25398" x1="73.9998" y1="75.9876" x2="26.0125" y2="52.0777" gradientUnits="userSpaceOnUse">
<stop stop-color="#7000FF"/>
<stop offset="0.515625" stop-color="#1953F7"/>
<stop offset="1" stop-color="#00D8BE"/>
</linearGradient>
<linearGradient id="paint2_linear_2056_25398" x1="62.5236" y1="26.6054" x2="91.9898" y2="59.9489" gradientUnits="userSpaceOnUse">
<stop stop-color="#24FF00"/>
<stop offset="1" stop-color="#00DCC2"/>
</linearGradient>
</defs>
</svg>
