<svg width="132" height="88" viewBox="0 0 132 88" fill="none" xmlns="http://www.w3.org/2000/svg">
<path d="M48.9349 51.959C48.1542 53.2649 47.5471 54.6578 47.0266 55.9637C44.9449 60.9261 45.0316 63.8861 45.2918 64.7567C45.552 64.8438 45.899 64.8438 46.5062 64.8438C49.2818 64.8438 53.3586 63.6249 58.0425 61.0132C53.9658 59.1849 50.7564 55.9637 48.9349 51.959Z" fill="#EC5A6C"/>
<path d="M83.0667 36.0425C83.7606 34.7367 84.4545 33.3437 84.9749 32.0378C87.0567 27.0755 86.97 24.1154 86.7097 23.2449C86.4495 23.1578 86.1026 23.1578 85.4954 23.1578C82.7197 23.1578 78.643 24.3766 73.959 26.9884C77.949 28.8166 81.2451 32.0378 83.0667 36.0425Z" fill="#EC5779"/>
<path d="M73.959 15.5628C71.3716 14.8729 68.698 14.4416 65.9381 14.4416C49.6374 14.4416 36.4416 27.6374 36.4416 43.9381C36.4416 46.698 36.8729 49.3716 37.5628 51.959C40.4952 45.0593 45.5838 37.5558 52.5698 30.5698C59.4695 23.5838 67.0593 18.4952 73.959 15.5628Z" fill="#EE5A6A"/>
<path d="M79.4318 57.4318C72.532 64.3315 64.9423 69.5063 58.0425 72.4387C60.5437 73.1287 63.3036 73.5599 66.0635 73.5599C82.3642 73.5599 95.5599 60.3642 95.5599 44.0635C95.5599 41.3036 95.1287 38.63 94.4387 36.0425C91.5063 42.9423 86.4178 50.532 79.4318 57.4318Z" fill="#EE5A6A"/>
<path d="M94.3631 36.0425C97.9079 27.5577 98.1672 20.0253 94.0172 15.9561C91.9423 13.8782 89.0027 12.9258 85.5444 12.9258C82.0861 12.9258 78.109 13.8782 73.959 15.6098C83.8152 18.3803 91.5964 26.1725 94.3631 36.0425Z" fill="#408DF7"/>
<path d="M37.6385 51.959C34.0937 60.4438 33.8343 67.9762 37.9843 72.0455C40.0593 74.1234 42.9989 75.0758 46.4572 75.0758C49.9155 75.0758 53.8926 74.1234 58.0426 72.3918C48.1864 69.6213 40.4051 61.8291 37.6385 51.959Z" fill="#6160F6"/>
<path d="M83.1437 36.0425C80.5648 40.8565 76.7825 45.7564 72.2264 50.2264C67.3265 55.1263 62.4267 58.7368 58.0425 61.1437C60.4495 62.3472 63.2003 62.949 66.1231 62.949C76.5246 62.949 84.949 54.5246 84.949 44.1231C84.949 41.2003 84.3472 38.5355 83.1437 36.0425Z" fill="#4E78F6"/>
<path d="M94.423 35.9665C91.6586 26.1181 83.8835 18.343 74.035 15.5785C67.1238 18.5158 59.6079 23.6128 52.6104 30.6104C45.6992 37.5215 40.5158 45.1238 37.5785 52.035C40.343 61.8835 48.1181 69.6586 57.9665 72.423C64.8777 69.4858 72.3936 64.3888 79.3912 57.3912C86.3888 50.48 91.4858 42.8777 94.423 35.9665ZM66.0008 62.9202C63.0635 62.9202 60.3854 62.229 57.8801 61.106C53.2151 63.6977 49.1548 64.9071 46.3903 64.9071C45.7856 64.9071 45.44 64.8207 45.1808 64.8207C45.008 63.8704 44.8353 61.0196 46.9086 56.0954C47.427 54.7995 48.1181 53.5037 48.8092 52.1214C47.5997 49.7025 46.995 46.938 46.995 44.0008C46.995 33.5476 55.4612 25.0814 65.9144 25.0814C68.8516 25.0814 71.5297 25.7725 74.035 26.8956C78.7001 24.3039 82.7604 23.0944 85.5249 23.0944C86.1296 23.0944 86.4752 23.1808 86.7343 23.1808C86.9071 24.0447 87.0799 26.982 85.0065 31.9062C84.4882 33.2021 83.7971 34.4979 83.106 35.8801C84.3154 38.299 84.9202 41.0635 84.9202 44.0008C84.9202 54.4539 76.4539 62.9202 66.0008 62.9202Z" fill="#9648DE"/>
</svg>
