<svg width="132" height="88" viewBox="0 0 132 88" fill="none" xmlns="http://www.w3.org/2000/svg">
<path fill-rule="evenodd" clip-rule="evenodd" d="M78.9992 26.6147C81.7083 26.6147 83.9046 28.8072 83.9046 31.5119V56.488C83.9046 59.1926 81.7083 61.3852 78.9992 61.3852C76.29 61.3852 74.0939 59.1926 74.0939 56.488V31.5119C74.0939 28.8072 76.29 26.6147 78.9992 26.6147Z" fill="#007AFF"/>
<path fill-rule="evenodd" clip-rule="evenodd" d="M65.264 26.6147C67.9731 26.6147 70.1694 28.8072 70.1694 31.5119V56.488C70.1694 59.1926 67.9731 61.3852 65.264 61.3852C62.5548 61.3852 60.3587 59.1926 60.3587 56.488V31.5119C60.3587 28.8072 62.5548 26.6147 65.264 26.6147Z" fill="#007AFF"/>
<path fill-rule="evenodd" clip-rule="evenodd" d="M92.7344 37.8784C95.4436 37.8784 97.6398 40.0711 97.6398 42.7757V45.714C97.6398 48.4188 95.4436 50.6114 92.7344 50.6114C90.0252 50.6114 87.8291 48.4188 87.8291 45.714V42.7757C87.8291 40.0711 90.0252 37.8784 92.7344 37.8784Z" fill="#007AFF"/>
<path fill-rule="evenodd" clip-rule="evenodd" d="M106.47 32.9811C109.179 32.9811 111.375 35.1736 111.375 37.8783V50.1215C111.375 52.8261 109.179 55.0187 106.47 55.0187C103.76 55.0187 101.564 52.8261 101.564 50.1215V37.8783C101.564 35.1736 103.76 32.9811 106.47 32.9811Z" fill="#007AFF"/>
<path d="M38.5476 52.4905C43.3087 52.4905 47.1684 48.6373 47.1684 43.884C47.1684 39.1309 43.3087 35.2776 38.5476 35.2776C33.7865 35.2776 29.9268 39.1309 29.9268 43.884C29.9268 48.6373 33.7865 52.4905 38.5476 52.4905ZM38.5297 61.875C28.6412 61.875 20.625 53.872 20.625 44C20.625 34.1279 28.6412 26.125 38.5297 26.125C48.4182 26.125 56.4344 34.1279 56.4344 44C56.4344 53.872 48.4182 61.875 38.5297 61.875Z" fill="#007AFF"/>
</svg>
