<svg width="132" height="88" viewBox="0 0 132 88" fill="none" xmlns="http://www.w3.org/2000/svg">
<path d="M86.4604 9.89844H45.5404C38.0072 9.89844 31.9004 16.0053 31.9004 23.5384V64.4584C31.9004 71.9916 38.0072 78.0984 45.5404 78.0984H86.4604C93.9936 78.0984 100.1 71.9916 100.1 64.4584V23.5384C100.1 16.0053 93.9936 9.89844 86.4604 9.89844Z" fill="#F8CE65"/>
<path d="M83.0508 29.2227V48.546M83.0508 57.071V59.3443" stroke="#1D1D1D" stroke-width="1.65" stroke-linecap="round"/>
<path d="M71.6845 41.726C71.6845 35.4484 66.5955 30.3594 60.3178 30.3594C54.0402 30.3594 48.9512 35.4484 48.9512 41.726V47.4094C48.9512 53.687 54.0402 58.776 60.3178 58.776C66.5955 58.776 71.6845 53.687 71.6845 47.4094V41.726Z" stroke="#1D1D1D" stroke-width="1.65" stroke-linecap="round"/>
</svg>
