<svg width="132" height="88" viewBox="0 0 132 88" fill="none" xmlns="http://www.w3.org/2000/svg">
<path d="M74.3189 70.6206V72.2434C74.3189 74.5405 72.4567 76.4027 70.1596 76.4027C69.4452 76.4027 68.743 76.2188 68.1204 75.8686L43.1641 61.8307C41.8544 61.094 41.0439 59.7081 41.0439 58.2055V29.7957C41.0439 28.293 41.8544 26.9072 43.1641 26.1705L68.1204 12.1326C70.1225 11.0064 72.6586 11.7164 73.7848 13.7186C74.135 14.3412 74.3189 15.0435 74.3189 15.7578V17.3806L77.2831 16.4913C79.4834 15.8312 81.8022 17.0798 82.4623 19.2801C82.5786 19.6678 82.6377 20.0705 82.6377 20.4753V22.1638L86.2812 21.7084C88.5606 21.4235 90.6394 23.0403 90.9243 25.3198C90.9457 25.4909 90.9564 25.6632 90.9564 25.8357V62.1655C90.9564 64.4626 89.0942 66.3248 86.7971 66.3248C86.6246 66.3248 86.4523 66.3141 86.2812 66.2927L82.6377 65.8373V67.5259C82.6377 69.823 80.7755 71.6852 78.4783 71.6852C78.0735 71.6852 77.6709 71.6261 77.2831 71.5098L74.3189 70.6206ZM74.3189 66.278L78.4783 67.5259V20.4753L74.3189 21.7231V66.278ZM82.6377 26.3556V61.6455L86.7971 62.1655V25.8357L82.6377 26.3556ZM45.2033 29.7957V58.2055L70.1596 72.2434V15.7578L45.2033 29.7957ZM49.3627 32.5623L53.5221 30.4826V57.5185L49.3627 55.4388V32.5623Z" fill="black"/>
</svg>
