<svg width="132" height="88" viewBox="0 0 132 88" fill="none" xmlns="http://www.w3.org/2000/svg">
<path d="M66 17.3477C75.5924 17.3477 85.1847 24.01 94.7771 37.3348C97.6576 41.3362 97.6576 46.6668 94.7771 50.6682C85.1848 63.993 75.5924 70.6553 66 70.6553C56.4076 70.6553 46.8152 63.993 37.2229 50.6682C34.3424 46.6668 34.3424 41.3362 37.2229 37.3348C46.8153 24.01 56.4076 17.3477 66 17.3477ZM55.6151 54.0577C61.3506 59.6456 70.6494 59.6456 76.3849 54.0577C82.1202 48.4697 82.1202 39.4098 76.3849 33.8218C70.6494 28.2338 61.3506 28.2338 55.6151 33.8218C49.8798 39.4098 49.8798 48.4697 55.6151 54.0577Z" fill="url(#paint0_linear_2056_21794)"/>
<defs>
<linearGradient id="paint0_linear_2056_21794" x1="56.655" y1="19.9806" x2="63.6357" y2="70.979" gradientUnits="userSpaceOnUse">
<stop stop-color="#B000EE"/>
<stop offset="1" stop-color="#EE008D"/>
</linearGradient>
</defs>
</svg>
