<svg width="132" height="88" viewBox="0 0 132 88" fill="none" xmlns="http://www.w3.org/2000/svg">
<path d="M77.3556 28.1705C83.3998 31.5412 87.4877 37.9983 87.4877 45.4103C87.4877 56.3046 78.6562 65.1362 67.7619 65.1362C60.6416 65.1362 54.4024 61.3636 50.9341 55.7082L41.8223 59.6566C46.8558 68.8021 56.5852 74.9991 67.7619 74.9991C84.1033 74.9991 97.3507 61.7517 97.3507 45.4103C97.3507 33.3574 90.1439 22.9876 79.8044 18.375L77.3556 28.1705Z" fill="#203F54"/>
<path d="M73.8877 16.4594C71.9109 16.0432 69.8613 15.8242 67.7606 15.8242C51.4192 15.8242 38.1719 29.0716 38.1719 45.413C38.1719 48.4966 38.6436 51.4699 39.5187 54.2649L48.851 51.0469C48.32 49.2617 48.0348 47.3706 48.0348 45.413C48.0348 34.5187 56.8663 25.6871 67.7606 25.6871C69.2876 25.6871 70.774 25.8606 72.2012 26.189L73.8877 16.4594Z" fill="#203F54"/>
<path d="M70.3662 13.6391C68.3894 13.2229 66.3398 13.0039 64.2392 13.0039C47.8977 13.0039 34.6504 26.2513 34.6504 42.5927C34.6504 45.6762 35.1221 48.6496 35.9972 51.4446L45.3295 48.2266C44.7985 46.4414 44.5133 44.5503 44.5133 42.5927C44.5133 31.6984 53.3449 22.8668 64.2392 22.8668C65.7661 22.8668 67.2525 23.0403 68.6797 23.3686L70.3662 13.6391Z" fill="#00B9B0"/>
</svg>
