<svg width="132" height="88" viewBox="0 0 132 88" fill="none" xmlns="http://www.w3.org/2000/svg">
<path fill-rule="evenodd" clip-rule="evenodd" d="M97.9833 40.5354C97.9783 40.3215 97.8053 40.1515 97.5906 40.1515H90.3009C90.3009 53.5707 79.4241 64.445 66.0074 64.445C52.5849 64.445 41.707 53.5707 41.707 40.1515H34.4124C34.1975 40.1515 34.0246 40.3215 34.0186 40.5338L34.0156 40.5464C34.0156 40.5514 34.0186 40.5544 34.0186 40.5607C34.2385 58.01 48.5028 72.1365 66.0074 72.1365C83.5062 72.1365 97.7624 58.007 97.9833 40.5607C97.9833 40.5544 97.9844 40.5494 97.9844 40.5464C97.9844 40.5464 97.9833 40.5401 97.9833 40.5354Z" fill="#FB5D2E"/>
<path fill-rule="evenodd" clip-rule="evenodd" d="M66.2991 15.8672C52.8835 15.8672 42.0116 26.74 42.0116 40.1518H90.5805C90.5805 26.74 79.7098 15.8672 66.2991 15.8672Z" fill="#16B4F2"/>
<path fill-rule="evenodd" clip-rule="evenodd" d="M90.5805 40.1518C90.5805 53.5666 79.7087 64.4362 66.2991 64.4362C52.8835 64.4362 42.0116 53.5666 42.0116 40.1518H90.5805Z" fill="#2C2C96"/>
</svg>
