<svg width="132" height="88" viewBox="0 0 132 88" fill="none" xmlns="http://www.w3.org/2000/svg">
<path fill-rule="evenodd" clip-rule="evenodd" d="M100.911 40.2157C100.905 39.9821 100.717 39.7969 100.482 39.7969H92.5251C92.5251 54.4446 80.6528 66.3149 66.0069 66.3149C51.3549 66.3149 39.4818 54.4446 39.4818 39.7969H31.5188C31.2843 39.7969 31.0955 39.9821 31.0895 40.2141L31.0859 40.2279C31.0859 40.2332 31.0895 40.2364 31.0895 40.2433C31.3292 59.2905 46.8992 74.71 66.0069 74.71C85.1085 74.71 100.67 59.287 100.911 40.2433C100.911 40.2364 100.912 40.2279 100.912 40.2279C100.912 40.2279 100.911 40.221 100.911 40.2157Z" fill="#FB5D2E"/>
<path fill-rule="evenodd" clip-rule="evenodd" d="M66.0013 13.2891C51.358 13.2891 39.4902 25.1574 39.4902 39.7972H92.5065C92.5065 25.1574 80.6394 13.2891 66.0013 13.2891Z" fill="#16B4F2"/>
<path fill-rule="evenodd" clip-rule="evenodd" d="M92.5065 39.7969C92.5065 54.4398 80.6394 66.305 66.0011 66.305C51.3574 66.305 39.4902 54.4398 39.4902 39.7969H92.5065Z" fill="#2C2C96"/>
</svg>
