<svg width="132" height="88" viewBox="0 0 132 88" fill="none" xmlns="http://www.w3.org/2000/svg">
<path d="M104.959 54.0781H85.4792C74.7212 54.0781 66 62.8462 66 73.6619H85.4792C96.2372 73.6619 104.959 64.8939 104.959 54.0781Z" fill="#2B3654"/>
<path d="M65.9993 34.4531H46.5202C35.7623 34.4531 27.041 43.2021 27.041 53.9944H46.5202C57.2782 53.9944 65.9993 45.2454 65.9993 34.4531Z" fill="#FFC400"/>
<path d="M65.9993 34.4514H46.5202C35.7623 34.4514 27.041 25.7025 27.041 14.9102H46.5202C57.2782 14.9102 65.9993 23.6591 65.9993 34.4514Z" fill="#FF6922"/>
<path d="M104.959 34.2077C104.959 23.2329 96.2372 14.3359 85.4792 14.3359C74.7212 14.3359 66 23.2329 66 34.2077C66 45.1825 74.7212 54.0795 85.4792 54.0795H104.959V34.2077Z" fill="#D2E12E"/>
</svg>
