<svg width="132" height="88" viewBox="0 0 132 88" fill="none" xmlns="http://www.w3.org/2000/svg">
<circle cx="66" cy="44" r="38" fill="#231F20"/>
<path fill-rule="evenodd" clip-rule="evenodd" d="M95.0384 47.1645H87.6896L73.2983 46.9603L65.9496 60.0487L62.5814 66.0475H84.3215L95.0384 47.1645ZM76.5644 52.1659L85.8524 52.3701L81.1574 60.6377H71.7673L76.5644 52.1659Z" fill="#58585A"/>
<path d="M84.9355 42.2651L77.0748 28.2815L73.1963 34.5078L73.242 34.5768L78.1975 42.061L84.9355 42.2651Z" fill="black"/>
<path d="M77.0748 28.2815H62.1732L55.1306 40.734H62.5814L65.9496 34.5768H73.242L73.1963 34.5078L77.0748 28.2815Z" fill="#58585A"/>
<path d="M62.5814 40.734H55.1306L63.0918 54.9218L66.8682 48.6955L62.5814 40.734Z" fill="#B8B9BC"/>
<path d="M62.1732 28.2815L58.7029 21.9531L36.9629 59.617L40.8414 65.8433L51.4562 47.1645L62.5814 66.0475L65.9496 60.0487L63.0918 54.9218L55.1306 40.734L62.1732 28.2815Z" fill="black"/>
<path d="M62.1732 28.2815H77.0748L84.9355 42.2651L87.6896 47.1645H95.0384L80.545 21.9531H58.7029L62.1732 28.2815Z" fill="#BCBDC0"/>
</svg>
