<svg width="132" height="88" viewBox="0 0 132 88" fill="none" xmlns="http://www.w3.org/2000/svg">
<path fill-rule="evenodd" clip-rule="evenodd" d="M50.3304 12.7969L33.4277 75.1741H50.4013L55.8842 54.9358H67.8684C75.4305 54.9358 81.8523 53.0098 87.1338 49.155C92.4125 45.3002 95.9241 40.1605 97.6657 33.7358C99.3733 27.4275 98.6642 22.3473 95.5327 18.4925C92.265 14.6973 87.1197 12.7969 80.1022 12.7969H50.3304ZM59.3987 41.9699H68.8385C75.4333 41.9699 79.4611 39.2837 80.9162 33.9115C81.6112 31.3417 81.3247 29.3845 80.0568 28.04C78.8456 26.6983 76.758 26.0261 73.7938 26.0261H63.7186L59.3987 41.9699Z" fill="#11262F"/>
<path d="M69.8284 75.1996C74.528 75.1996 78.3378 71.3898 78.3378 66.6902C78.3378 61.9905 74.528 58.1807 69.8284 58.1807C65.1287 58.1807 61.3189 61.9905 61.3189 66.6902C61.3189 71.3898 65.1287 75.1996 69.8284 75.1996Z" fill="#DF3735"/>
</svg>
