<svg width="132" height="88" viewBox="0 0 132 88" fill="none" xmlns="http://www.w3.org/2000/svg">
<path d="M65.9992 80.2992C86.0472 80.2992 102.299 64.0472 102.299 43.9992C102.299 23.9513 86.0472 7.69922 65.9992 7.69922C45.9513 7.69922 29.6992 23.9513 29.6992 43.9992C29.6992 64.0472 45.9513 80.2992 65.9992 80.2992Z" fill="black"/>
<mask id="mask0_2056_27303" style="mask-type:alpha" maskUnits="userSpaceOnUse" x="29" y="7" width="74" height="74">
<path d="M65.9992 80.2992C86.0472 80.2992 102.299 64.0472 102.299 43.9992C102.299 23.9513 86.0472 7.69922 65.9992 7.69922C45.9513 7.69922 29.6992 23.9513 29.6992 43.9992C29.6992 64.0472 45.9513 80.2992 65.9992 80.2992Z" fill="#C4C4C4"/>
</mask>
<g mask="url(#mask0_2056_27303)">
<path d="M84.2588 30.2383H46.7246V85.1239H84.2588V30.2383Z" fill="black"/>
<path fill-rule="evenodd" clip-rule="evenodd" d="M46.1797 29.6953H84.8029V85.6699H46.1797V29.6953ZM47.2687 30.7843V84.5809H83.7139V30.7843H47.2687Z" fill="white"/>
<path d="M87.8877 34.1602H50.3535V89.0458H87.8877V34.1602Z" fill="black"/>
<path fill-rule="evenodd" clip-rule="evenodd" d="M49.8086 33.6172H88.4318V89.5918H49.8086V33.6172ZM50.8976 34.7062V88.5028H87.3428V34.7062H50.8976Z" fill="white"/>
<path d="M91.6494 38.1328H54.1152V93.0184H91.6494V38.1328Z" fill="#FFFAFA"/>
<path fill-rule="evenodd" clip-rule="evenodd" d="M53.5703 37.5898H92.1935V93.5644H53.5703V37.5898ZM54.6593 38.6788V92.4754H91.1045V38.6788H54.6593Z" fill="white"/>
<path d="M72.9691 61.0564C73.7038 61.0564 74.4075 60.953 75.0802 60.746C75.7633 60.5286 76.3583 60.1716 76.8654 59.6748C77.3828 59.1781 77.7916 58.5106 78.0918 57.6724C78.4022 56.8238 78.5574 55.7734 78.5574 54.5212C78.5574 52.648 78.0969 51.3182 77.1758 50.5317C76.2548 49.7349 74.8577 49.3365 72.9846 49.3365C72.2705 49.3365 71.6754 49.3675 71.1994 49.4295C70.7338 49.4813 70.3146 49.5124 69.9421 49.5227V60.9478C70.4492 60.9788 70.9252 61.0047 71.3702 61.0254C71.8255 61.0461 72.3585 61.0564 72.9691 61.0564ZM74.4904 70.5101V72.0934H63.1895V70.5101L65.7042 70.0599C65.9526 70.0185 66.1441 69.915 66.2786 69.7494C66.4131 69.5839 66.4804 69.382 66.4804 69.1441V50.8577C66.4804 50.661 66.4183 50.4748 66.2941 50.2988C66.1699 50.1229 66.0044 50.0143 65.7974 49.9729L63.1895 49.4606V47.8462H68.2345C68.7105 47.8462 69.14 47.8358 69.5229 47.8151C69.9162 47.7944 70.3094 47.7686 70.7027 47.7375C71.1063 47.7065 71.5461 47.6806 72.0222 47.6599C72.5085 47.6392 73.0881 47.6289 73.7607 47.6289C75.3545 47.6289 76.6946 47.7841 77.7813 48.0946C78.8679 48.405 79.732 48.85 80.3737 49.4295C81.0256 50.0091 81.4862 50.7283 81.7552 51.5873C82.0346 52.4462 82.1744 53.4138 82.1744 54.4901C82.1744 55.7941 81.9467 56.9687 81.4913 58.0139C81.036 59.0487 80.3995 59.9233 79.582 60.6373C78.7748 61.341 77.8019 61.8792 76.6636 62.2517C75.5356 62.6243 74.3041 62.8106 72.9691 62.8106C72.462 62.8106 71.9549 62.8002 71.4478 62.7795C70.951 62.7484 70.4492 62.7226 69.9421 62.7019V69.1441C69.9421 69.3717 70.0094 69.5683 70.1439 69.7339C70.2887 69.8892 70.475 69.9771 70.7027 69.9978L74.4904 70.5101Z" fill="black"/>
</g>
</svg>
