<svg width="132" height="88" viewBox="0 0 132 88" fill="none" xmlns="http://www.w3.org/2000/svg">
<path d="M65.9992 4.14062C49.8555 4.14062 36.7746 17.1357 36.5742 33.2221C36.5742 33.3366 36.5742 33.4511 36.5742 33.5942V78.1039V83.8572L41.6692 81.1666C41.6692 81.1666 45.0182 79.3633 48.2812 76.5582C53.0328 72.4364 55.4944 68.1429 55.5802 63.7348V63.6776V61.1301C58.8147 62.3609 62.3354 63.0479 65.9992 63.0479C82.2574 63.0479 95.4242 49.881 95.4242 33.6229C95.4242 17.3647 82.2574 4.14062 65.9992 4.14062Z" fill="#0B1E39"/>
<path fill-rule="evenodd" clip-rule="evenodd" d="M55.7814 44.5602C55.7814 44.1309 56.268 43.9019 56.6401 44.1022L77.5353 56.1241C77.9647 56.3817 77.9361 57.0115 77.4495 57.2118C76.0469 57.7557 74.444 58.414 73.1559 58.7861C67.9464 60.3318 62.7656 60.0455 57.5847 58.4712C56.5257 58.1564 56.0963 57.2977 55.9246 56.8683C55.8673 56.7252 55.8387 56.5535 55.8387 56.4104L55.7528 44.5888L55.7814 44.5602ZM70.4653 46.936C70.0646 47.165 70.0646 47.766 70.4653 47.995L80.4549 53.9774C81.3423 54.5212 81.972 54.3781 82.6589 53.777C88.0402 49.14 91.1888 43.3294 91.9044 36.2308C91.9044 36.0018 91.9044 35.8014 91.9044 35.5438C91.9044 35.0858 91.4178 34.7996 91.017 35.0286C84.0329 39.0645 77.3063 42.9573 70.4367 46.9073L70.4653 46.936ZM79.8252 36.517V12.7595C79.8252 12.2729 80.3691 11.9866 80.7698 12.2729C83.489 14.0761 85.6072 16.2802 87.4105 18.8276C89.7003 22.0907 91.1888 25.6687 91.7326 29.6187C91.7899 30.0767 91.5322 30.8782 91.1601 31.0785L80.6839 37.0322C80.3118 37.2612 79.8252 36.975 79.8252 36.5456V36.517ZM75.3886 23.3215C68.3758 19.2856 61.6493 15.3928 54.7224 11.4142C54.2644 11.1565 54.293 10.5268 54.7224 10.2692C54.8082 10.2406 54.8655 10.1833 54.9227 10.1547C59.0731 8.29419 63.3667 7.37823 67.9751 7.80759C70.4653 8.03657 72.8697 8.52317 75.1882 9.35326C75.6176 9.525 76.19 10.0688 76.19 10.4696C76.2473 14.4769 76.2473 18.4555 76.2473 22.8349C76.2473 23.2929 75.7607 23.5505 75.3599 23.3502L75.3886 23.3215ZM40.8686 32.4525L61.7924 20.3733C62.1645 20.1443 62.1645 19.6005 61.7924 19.3715C58.0141 17.1961 54.5506 15.2211 51.0586 13.2747C50.7151 13.0743 49.9422 13.2747 49.5988 13.5323C44.8186 17.3678 41.8418 22.377 40.5251 28.3307C40.2961 29.3325 40.1816 30.7064 40.0671 31.9086C40.0099 32.3666 40.4965 32.6528 40.8972 32.4238L40.8686 32.4525Z" fill="url(#paint0_linear_2056_27161)"/>
<path fill-rule="evenodd" clip-rule="evenodd" d="M66.1152 22.2891C65.9434 22.2891 65.8003 22.3177 65.6572 22.4036L56.4404 27.7275C56.1542 27.8993 55.9824 28.2141 55.9824 28.5576V39.2056C55.9824 39.5491 56.1542 39.8639 56.4404 40.0357L65.6572 45.3596C65.8003 45.4455 65.972 45.4741 66.1152 45.4741C66.2583 45.4741 66.43 45.4455 66.5731 45.3596L75.7899 40.0357C76.0761 39.8639 76.2479 39.5491 76.2479 39.2056V28.5576C76.2479 28.2141 76.0761 27.8993 75.7899 27.7275L66.5731 22.4036C66.43 22.3177 66.2583 22.2891 66.1152 22.2891ZM66.1152 26.9833L72.0975 30.4468V37.345L66.1152 40.8085L60.1328 37.345V30.4468L66.1152 26.9833Z" fill="url(#paint1_linear_2056_27161)"/>
<path fill-rule="evenodd" clip-rule="evenodd" d="M52.1162 63.6471C51.9445 71.8048 40.0371 78.1019 40.0371 78.1019V37.9431C40.0371 36.6837 40.4378 36.4833 41.4969 35.8822L51.3148 30.272C51.7155 30.043 52.2307 30.3292 52.2307 30.7872L52.1162 63.6471Z" fill="url(#paint2_linear_2056_27161)"/>
<defs>
<linearGradient id="paint0_linear_2056_27161" x1="59.0445" y1="52.861" x2="72.9842" y2="14.6486" gradientUnits="userSpaceOnUse">
<stop offset="0.17" stop-color="#4396FF"/>
<stop offset="1" stop-color="#3EDCFA"/>
</linearGradient>
<linearGradient id="paint1_linear_2056_27161" x1="69.2351" y1="24.3213" x2="63.0524" y2="43.1556" gradientUnits="userSpaceOnUse">
<stop stop-color="#FFE100"/>
<stop offset="1" stop-color="#FF5A00"/>
</linearGradient>
<linearGradient id="paint2_linear_2056_27161" x1="46.1339" y1="78.0733" x2="46.1339" y2="30.1861" gradientUnits="userSpaceOnUse">
<stop stop-color="#FFE100"/>
<stop offset="0.64" stop-color="#FF5A00"/>
<stop offset="1" stop-color="#FF5A00"/>
</linearGradient>
</defs>
</svg>
