<svg width="132" height="88" viewBox="0 0 132 88" fill="none" xmlns="http://www.w3.org/2000/svg">
<path d="M54.2295 75.9852V53.2122H59.944C77.8553 53.2122 92.6116 46.9004 92.6116 33.1682C92.6116 20.1185 79.6467 12.0156 61.7351 12.0156H39.3887V75.9852H54.2295ZM60.5416 51.0798H54.2295V19.2655H62.1619C71.4586 19.2655 77.8553 21.9096 77.8553 34.1918C77.8553 45.4506 69.5822 51.0798 60.5416 51.0798Z" fill="black"/>
<path d="M54.2295 75.9852V53.2122H59.944C77.8553 53.2122 92.6116 46.9004 92.6116 33.1682C92.6116 20.1185 79.6467 12.0156 61.7351 12.0156H39.3887V75.9852H54.2295ZM60.5416 51.0798H54.2295V19.2655H62.1619C71.4586 19.2655 77.8553 21.9096 77.8553 34.1918C77.8553 45.4506 69.5822 51.0798 60.5416 51.0798Z" fill="#00E165"/>
</svg>
