<svg width="132" height="88" viewBox="0 0 132 88" fill="none" xmlns="http://www.w3.org/2000/svg">
<circle cx="66.0008" cy="44.0008" r="35.2" fill="#353537"/>
<path fill-rule="evenodd" clip-rule="evenodd" d="M56.0631 23.4833C37.242 32.2473 39.9742 60.5355 60.1689 65.994C70.0191 68.6558 80.9721 63.5342 86.0845 53.8727C88.7966 48.7502 88.701 39.3024 85.8825 33.7777C80.3343 22.9042 67.1109 18.3391 56.0631 23.4833ZM59.5554 28.1549C49.5511 32.1744 46.249 40.3156 51.3563 48.3697C56.224 56.0442 66.22 62.6266 71.1354 61.3929C74.2732 60.6059 75.3041 58.0992 73.7352 55.0669C71.8788 51.4757 72.1118 50.0426 75.3803 44.9687C76.9912 42.4695 78.555 39.1096 78.8568 37.503C80.4106 29.2193 69.7542 24.0583 59.5554 28.1549ZM63.4015 35.9089C62.8483 36.4621 62.3957 37.8952 62.3957 39.0937C62.3957 40.2922 62.8483 41.7253 63.4015 42.2785C65.7716 44.6486 70.7767 42.4871 70.7767 39.0937C70.7767 35.7002 65.7716 33.5388 63.4015 35.9089Z" fill="#C3C3B7"/>
</svg>
