<svg width="132" height="88" viewBox="0 0 132 88" fill="none" xmlns="http://www.w3.org/2000/svg">
<path d="M66.0008 5.17188V7.59857H73.2809L72.0675 8.81192L84.201 13.6653L82.9877 14.8787L90.2678 17.3054L87.8411 18.5187L91.4811 22.1588H89.0544L91.4811 39.1456C93.0989 41.5723 93.9078 44.4035 93.9078 47.6391C93.9078 50.8747 92.8967 53.7058 90.8744 56.1325L85.4144 70.6927C82.9877 75.5461 73.2809 82.8262 66.0008 82.8262C58.7207 82.8262 49.0139 75.5461 46.5872 70.6927L41.1271 56.1325C39.1049 53.7058 38.0938 50.8747 38.0938 47.6391C38.0938 44.4035 38.9026 41.5723 40.5204 39.1456V18.5187L42.9471 19.7321L47.8005 12.452L49.0139 14.8787L66.0008 5.17188ZM70.8542 29.4389C64.383 25.3944 57.9118 23.3721 51.4406 23.3721C48.205 24.9899 46.1827 28.63 45.3738 34.2923L44.1605 50.0658C44.1605 54.3125 49.6206 67.0527 50.2272 68.266C55.0806 76.7595 64.7874 78.5795 66.0008 78.5795C67.2141 78.5795 76.9209 76.7595 81.7743 68.266C82.381 67.0527 87.8411 54.3125 87.8411 50.0658L87.2344 36.719L84.201 29.4389L82.9877 30.6522L78.1343 28.2255V30.6522L72.0675 27.0122M53.8673 42.7857C52.9823 42.7857 52.1336 43.1372 51.5079 43.763C50.8821 44.3888 50.5306 45.2375 50.5306 46.1224C50.5306 47.0074 50.8821 47.8561 51.5079 48.4818C52.1336 49.1076 52.9823 49.4591 53.8673 49.4591C54.7522 49.4591 55.6009 49.1076 56.2267 48.4818C56.8525 47.8561 57.204 47.0074 57.204 46.1224C57.204 45.2375 56.8525 44.3888 56.2267 43.763C55.6009 43.1372 54.7522 42.7857 53.8673 42.7857ZM78.1343 42.7857C77.2493 42.7857 76.4006 43.1372 75.7749 43.763C75.1491 44.3888 74.7976 45.2375 74.7976 46.1224C74.7976 47.0074 75.1491 47.8561 75.7749 48.4818C76.4006 49.1076 77.2493 49.4591 78.1343 49.4591C79.0192 49.4591 79.8679 49.1076 80.4937 48.4818C81.1194 47.8561 81.471 47.0074 81.471 46.1224C81.471 45.2375 81.1194 44.3888 80.4937 43.763C79.8679 43.1372 79.0192 42.7857 78.1343 42.7857ZM61.7541 58.5592H70.2475C70.5693 58.5592 70.8779 58.6871 71.1055 58.9146C71.333 59.1422 71.4608 59.4508 71.4608 59.7726C71.4608 60.0944 71.333 60.403 71.1055 60.6306C70.8779 60.8581 70.5693 60.9859 70.2475 60.9859H61.7541C61.4323 60.9859 61.1236 60.8581 60.8961 60.6306C60.6685 60.403 60.5407 60.0944 60.5407 59.7726C60.5407 59.4508 60.6685 59.1422 60.8961 58.9146C61.1236 58.6871 61.4323 58.5592 61.7541 58.5592ZM59.3274 68.266H72.6742C72.996 68.266 73.3046 68.3939 73.5322 68.6214C73.7597 68.849 73.8876 69.1576 73.8876 69.4794C73.8876 69.8012 73.7597 70.1098 73.5322 70.3373C73.3046 70.5649 72.996 70.6927 72.6742 70.6927H59.3274C59.0056 70.6927 58.6969 70.5649 58.4694 70.3373C58.2418 70.1098 58.114 69.8012 58.114 69.4794C58.114 69.1576 58.2418 68.849 58.4694 68.6214C58.6969 68.3939 59.0056 68.266 59.3274 68.266ZM47.3759 41.815C48.1645 40.2377 49.6206 39.085 51.2586 38.6603C53.2606 38.175 55.566 38.721 57.75 40.359C58.296 40.723 59.024 40.6017 59.4487 40.0557C59.8127 39.5097 59.6914 38.7816 59.1454 38.357C55.566 35.8089 52.5326 35.8089 50.6519 36.2943C48.2859 36.901 46.2839 38.4783 45.1918 40.723C44.8885 41.3297 45.1312 42.0577 45.7378 42.361C45.9199 42.4217 46.1019 42.4824 46.2839 42.4824C46.7085 42.4824 47.1332 42.2397 47.3759 41.815ZM86.4457 42.725C86.931 42.3004 86.9917 41.5117 86.567 41.0263C84.383 38.539 81.835 37.265 78.9836 37.3256C76.9209 37.3256 74.6762 38.0536 72.2495 39.5097C71.6429 39.8737 71.4608 40.6017 71.8249 41.1477C72.1889 41.7543 72.9169 41.9364 73.4629 41.5723C75.5256 40.359 77.3456 39.7523 79.0443 39.7523C81.1676 39.7523 83.0483 40.6623 84.8077 42.6037C85.0504 42.907 85.3537 43.0284 85.7177 43.0284C85.8997 43.0284 86.203 42.907 86.4457 42.725Z" fill="black"/>
</svg>
