<svg width="132" height="88" viewBox="0 0 132 88" fill="none" xmlns="http://www.w3.org/2000/svg">
<path fill-rule="evenodd" clip-rule="evenodd" d="M91.5301 35.514H94.5944C100.723 35.514 105.698 30.529 105.698 24.389C105.698 18.2494 100.723 13.2644 94.5944 13.2644C88.4659 13.2644 83.4903 18.2494 83.4903 24.389V27.459C83.4599 31.8969 87.0701 35.514 91.5301 35.514Z" fill="black"/>
<path fill-rule="evenodd" clip-rule="evenodd" d="M40.4706 35.514H37.4064C31.278 35.514 26.3027 30.529 26.3027 24.389C26.3027 18.2494 31.278 13.2644 37.4064 13.2644C43.5348 13.2644 48.5104 18.2494 48.5104 24.389V27.459C48.5407 31.8969 44.9304 35.514 40.4706 35.514Z" fill="black"/>
<path fill-rule="evenodd" clip-rule="evenodd" d="M82.6714 71.3809C72.5685 75.9707 60.8278 76.062 50.6643 71.6239L49.7844 71.2291C39.53 66.7913 32.9769 57.1556 32.9769 46.6083V44.0249C32.9769 26.9728 47.7821 13.1123 66.0157 13.1123C84.2487 13.1123 99.054 26.9424 99.054 44.0249V46.9125C99.054 57.3384 92.6827 66.8518 82.6714 71.3809Z" fill="white"/>
<path fill-rule="evenodd" clip-rule="evenodd" d="M66.0157 14.8613C48.6369 14.8613 34.7259 28.0462 34.7259 44.0249V46.6083C34.7259 56.4105 40.8198 65.4437 50.4791 69.6239L50.4897 69.6286L51.3722 70.0245C61.0787 74.2603 72.2986 74.1723 81.9479 69.7885L81.9505 69.7873C91.3796 65.5217 97.305 56.6047 97.305 46.9125V44.0249C97.305 28.0169 83.395 14.8613 66.0157 14.8613ZM31.2279 44.0249C31.2279 25.8994 46.9272 11.3633 66.0157 11.3633C85.1024 11.3633 100.803 25.8679 100.803 44.0249V46.9125C100.803 58.0714 93.9867 68.1807 83.3942 72.9735C72.8406 77.768 60.5828 77.8635 49.9644 73.2267L49.9564 73.2232L49.0791 72.8296C38.2357 68.1322 31.2279 57.897 31.2279 46.6083V44.0249Z" fill="black"/>
<path fill-rule="evenodd" clip-rule="evenodd" d="M42.691 34.1039C45.9288 28.895 52.0716 27.2604 56.4121 30.4529C60.7524 33.6454 61.646 40.4562 58.4087 45.6652C55.171 50.8737 49.0278 52.5088 44.6876 49.3162C40.3474 46.1236 39.4533 39.3129 42.691 34.1039Z" fill="black"/>
<path fill-rule="evenodd" clip-rule="evenodd" d="M81.8128 67.2882L81.8103 67.2895C72.2026 71.654 61.1517 71.7376 51.509 67.5276L50.6129 67.1252C41.1356 63.0238 35.0117 54.0788 35.0117 44.3367V46.8833C35.0117 56.6257 41.1356 65.5707 50.6129 69.6721L51.509 70.0745C61.1517 74.2845 72.2026 74.2009 81.8103 69.8364L81.8128 69.8349C91.0503 65.6562 97.0189 56.7657 97.0189 47.1853V44.6384C97.0189 54.2187 91.0503 63.1096 81.8128 67.2882Z" fill="#E6E6E6"/>
<path fill-rule="evenodd" clip-rule="evenodd" d="M70.418 54.8197L67.483 56.6616C66.58 57.2112 65.451 57.2112 64.5799 56.6616L61.6449 54.8197C60.8386 54.3027 60.3547 53.4301 60.3547 52.493C60.3547 50.9741 61.5804 49.7462 63.0963 49.7462H68.9666C70.4825 49.7462 71.7082 50.9741 71.7082 52.493C71.7082 53.4301 71.2246 54.3349 70.418 54.8197Z" fill="black"/>
<path fill-rule="evenodd" clip-rule="evenodd" d="M56.8095 58.086C57.3793 57.5174 58.3021 57.5183 58.8707 58.088C62.8167 62.0417 69.2143 62.0417 73.1606 58.088C73.7293 57.5183 74.6521 57.5174 75.2218 58.0861C75.7916 58.6547 75.7924 59.5776 75.2238 60.1473C70.1387 65.2419 61.8923 65.242 56.8075 60.1472C56.2389 59.5775 56.2398 58.6547 56.8095 58.086Z" fill="#010202"/>
<path fill-rule="evenodd" clip-rule="evenodd" d="M49.1477 35.2095C50.2969 33.3608 52.4773 32.7804 54.0178 33.9137C55.5583 35.0466 55.8754 37.4642 54.7265 39.313C53.5772 41.1617 51.3968 41.742 49.8564 40.6088C48.3158 39.4759 47.9985 37.0583 49.1477 35.2095Z" fill="white"/>
<path fill-rule="evenodd" clip-rule="evenodd" d="M89.372 34.1039C86.1344 28.895 79.9915 27.2604 75.651 30.4529C71.3108 33.6454 70.4169 40.4562 73.6546 45.6652C76.8922 50.8737 83.0354 52.5088 87.3756 49.3162C91.7158 46.1236 92.61 39.3129 89.372 34.1039Z" fill="black"/>
<path fill-rule="evenodd" clip-rule="evenodd" d="M82.9158 35.2095C81.7665 33.3608 79.586 32.7804 78.0455 33.9137C76.505 35.0466 76.1881 37.4642 77.3369 39.313C78.4862 41.1617 80.6667 41.742 82.2072 40.6088C83.7477 39.4759 84.0649 37.0583 82.9158 35.2095Z" fill="white"/>
<path fill-rule="evenodd" clip-rule="evenodd" d="M66.0316 54.6556C66.6755 54.6556 67.1976 55.1777 67.1976 55.8216V62.5107C67.1976 63.1547 66.6755 63.6767 66.0316 63.6767C65.3876 63.6767 64.8656 63.1547 64.8656 62.5107V55.8216C64.8656 55.1777 65.3876 54.6556 66.0316 54.6556Z" fill="#010202"/>
</svg>
