<svg width="132" height="88" viewBox="0 0 132 88" fill="none" xmlns="http://www.w3.org/2000/svg">
<circle cx="65.9992" cy="43.9992" r="36.3" fill="#33CB98"/>
<path d="M77.1143 22.3855C77.1143 22.3855 75.6404 23.8599 75.6404 24.7446C79.6199 27.1037 84.0416 31.6745 85.6629 35.3606C85.6629 35.3606 86.842 35.3606 87.7263 34.9182C90.3793 33.5912 91.2637 29.9051 90.9689 27.1037C90.6741 24.3023 88.1685 23.8599 87.2842 23.1227C86.3998 22.3855 86.6946 20.4687 83.4521 19.8789C80.2095 19.1417 77.1143 22.3855 77.1143 22.3855Z" fill="#393939"/>
<path d="M56.0381 23.4174C56.0381 23.4174 66.5027 18.5518 77.4094 25.4816C88.3162 32.4115 87.874 43.4698 87.874 43.4698C87.874 43.4698 94.2117 55.1179 83.1575 63.2273C72.1034 71.3367 59.5754 68.5353 56.775 67.3557C54.122 66.3236 49.2582 26.5137 56.0381 23.4174Z" fill="#EFEFEF"/>
<path d="M67.8287 22.0905C61.0489 21.2059 56.0377 23.565 56.0377 23.565C49.2578 26.6613 46.0152 35.9502 45.7205 40.521C45.5731 44.3546 43.0675 44.9443 43.0675 52.7588C42.9201 62.1952 54.1216 66.3237 56.7746 67.5032C58.2485 68.093 62.5227 69.2726 67.6813 68.9777V22.0905H67.8287Z" fill="#F8F8F8"/>
<path d="M62.6704 35.8027C58.9857 33.8859 55.3009 36.5399 54.2692 38.899C52.5005 42.7326 50.4371 47.0084 49.9949 47.8931C48.5211 50.9894 51.911 52.9062 54.564 52.169C56.9222 51.4317 60.3121 50.2522 64.1442 46.5661C68.1237 42.7326 66.5025 37.7194 62.6704 35.8027ZM60.7543 44.7968C60.4596 44.207 59.5752 43.7647 58.5435 43.7647C57.8066 43.7647 57.0696 44.0596 56.6274 44.5019C56.7748 43.6172 57.3644 42.1428 58.8383 42.2902C60.3121 42.4377 60.7543 43.7647 60.7543 44.7968ZM70.7767 46.5661C74.6088 50.2522 77.9988 51.4317 80.357 52.169C83.01 52.9062 86.3999 51.1369 84.926 47.8931C84.4839 47.0084 82.4204 42.7326 80.6518 38.899C79.4727 36.3925 75.9353 33.7385 72.2506 35.8027C68.7133 37.7194 66.9446 42.7326 70.7767 46.5661ZM74.314 44.7968C74.314 43.7647 74.7562 42.4377 76.2301 42.4377C77.704 42.2902 78.2936 43.7647 78.441 44.6493C77.9988 44.207 77.4092 43.9121 76.5249 43.9121C75.6405 43.7647 74.7562 44.207 74.314 44.7968Z" fill="#393939"/>
<path d="M75.3457 64.7018C71.8084 66.1762 66.5024 66.9134 60.1646 65.2916C49.7001 62.3427 55.0061 48.7779 66.9445 48.7779C78.7356 48.6304 86.1051 60.2785 75.3457 64.7018Z" fill="#F8F8F8"/>
<path d="M67.8288 66.1763V48.6305C67.534 48.6305 67.2392 48.6305 66.9445 48.6305C55.006 48.6305 49.8474 62.3428 60.1646 65.1442C62.965 65.8814 65.4706 66.1763 67.8288 66.1763Z" fill="white"/>
<path d="M76.6722 57.3295C76.5248 58.3616 75.3457 59.3937 72.5453 58.9514C70.4819 58.6565 69.3028 57.3295 68.8606 56.5923C69.5976 56.4448 70.0397 55.7076 70.7767 55.1178C71.661 54.3806 72.5453 53.9383 72.6927 53.2011C72.8401 52.4639 72.6927 51.5792 70.6293 51.1369C68.5658 50.842 68.8606 52.169 66.2076 51.2843C63.5546 50.2522 62.9651 52.169 62.9651 53.3485C62.9651 54.5281 64.8811 55.1178 66.2076 56.0025C66.7972 56.2974 67.092 56.5923 67.3868 56.5923C66.9446 57.1821 65.7655 58.6565 63.702 58.9514C60.9017 59.3937 59.7225 58.3616 59.5751 57.3295C59.4277 56.2974 58.5434 57.6244 59.4277 58.8039C60.3121 59.9835 62.6703 61.4579 65.3233 60.1309C67.0919 59.2463 67.8289 58.3616 68.1237 57.477C68.4185 58.3616 69.1554 59.2463 70.9241 60.1309C73.5771 61.4579 75.9353 59.9835 76.8196 58.8039C77.7039 57.4769 76.8196 56.2974 76.6722 57.3295ZM46.605 35.0655C48.2262 35.2129 49.5527 34.4757 49.8475 33.8859C49.9949 33.591 49.9949 33.2961 49.8475 33.1487C50.1423 32.8538 50.2897 32.4115 49.9949 31.6743C49.9949 31.5268 49.8475 31.0845 49.8475 30.937C49.8475 30.937 49.9949 30.7896 50.4371 30.7896C50.5845 30.7896 50.7318 30.7896 50.8792 30.7896C51.174 30.6421 51.4688 30.6422 51.4688 30.3473C51.4688 30.0524 51.3214 29.905 51.174 29.7575C51.0266 29.6101 50.7318 29.4626 50.5844 29.3152C50.437 29.1677 50.1423 29.0203 50.1423 28.8728C50.1423 28.7254 50.2897 28.5779 50.4371 28.5779C50.5845 28.5779 50.8792 28.5779 51.3214 28.7254C51.4688 28.8728 51.7636 28.8728 51.911 28.8728C52.2057 29.0203 52.3531 28.8728 52.3531 28.7254C52.5005 28.5779 52.5005 28.2831 52.5005 27.9882C52.7953 27.9882 53.0901 28.1356 53.3848 28.2831C53.6796 28.4305 53.827 28.4305 53.9744 28.4305C54.4166 28.4305 54.5639 28.1356 54.5639 27.8407C54.5639 27.6933 54.5639 27.6933 54.5639 27.6933C54.8587 27.6933 55.4483 27.3984 55.4483 26.8086H55.5957C55.5957 26.8086 55.743 26.8086 55.8904 26.8086C56.1852 26.8086 56.6274 26.8086 56.9222 26.3663C57.0695 26.0714 57.2169 25.7765 57.2169 25.4816C57.2169 25.4816 57.2169 25.4816 57.2169 25.3342C57.0695 23.5649 56.3326 19.4364 51.3214 18.6992C51.174 18.8467 50.8792 18.8466 50.4371 18.8466C46.7524 18.8466 43.952 21.2057 42.0359 25.7765C40.8568 28.7254 40.7094 32.4115 43.6572 34.1808C44.0994 34.4757 44.3941 34.6232 44.8363 34.7706" fill="#393939"/>
</svg>
