<svg width="132" height="88" viewBox="0 0 132 88" fill="none" xmlns="http://www.w3.org/2000/svg">
<path d="M71.4454 15.6875C49.1937 15.6875 39.1066 21.1975 39.1066 39.9714C39.1336 41.4218 39.2525 42.8906 39.4434 44.3409C40.245 50.5169 42.8238 55.215 47.4436 58.1525C50.8239 60.3052 54.4872 61.2721 58.2324 61.8925C62.8714 62.6589 67.545 62.7502 72.211 62.7865C73.7691 62.7684 84.4122 62.9691 89.3506 60.9347C95.8747 58.2435 100.859 51.6664 100.859 40.756C100.859 22.8123 91.9296 15.6875 71.4454 15.6875Z" fill="#5115AA"/>
<path d="M55.8729 37.7456C45.9776 37.7456 42.2233 38.9132 39.0978 39.9714C34.441 41.9509 31.1426 45.8735 31.1426 54.7772C31.1426 68.0962 42.1504 72.3101 59.6451 72.3101C67.3905 72.3101 73.5774 69.2906 76.895 62.7046C77.2677 61.8925 78.4342 58.9005 78.4342 54.4304C78.4342 43.0091 73.2406 37.7456 55.8729 37.7456Z" fill="#FCCB58"/>
<path d="M76.8948 62.6958C75.3363 62.7414 73.7782 62.7689 72.2198 62.778C67.545 62.7414 54.7881 62.9878 47.4436 58.1437C42.6509 54.9785 39.2885 49.8789 39.1066 39.9626C42.2321 38.9044 45.9864 37.7368 55.8817 37.7368C73.2403 37.7461 78.4339 43.0096 78.4339 54.4219C78.4339 58.8917 77.2586 61.884 76.8948 62.6958Z" fill="#F36464"/>
</svg>
