<svg width="132" height="88" viewBox="0 0 132 88" fill="none" xmlns="http://www.w3.org/2000/svg">
<path d="M32.3086 14.9495L39.0471 7.6875L45.7855 14.9495L39.0471 22.2115L32.3086 14.9495Z" fill="#E36C8F"/>
<path d="M45.7855 14.9495L52.5241 7.6875L59.2626 14.9495L52.5241 22.2115L45.7855 14.9495Z" fill="#E36C8F"/>
<path d="M59.2626 14.9495L66 7.6875L72.7385 14.9495L66 22.2115L59.2626 14.9495Z" fill="#E36C8F"/>
<path d="M72.7385 14.9495L79.4765 7.6875L86.215 14.9495L79.4765 22.2115L72.7385 14.9495Z" fill="#E36C8F"/>
<path d="M86.215 14.9495L92.953 7.6875L99.6915 14.9495L92.953 22.2115L86.215 14.9495Z" fill="#E36C8F"/>
<path d="M38.9554 22.21L45.6939 14.9481L52.4323 22.21L45.6939 29.472L38.9554 22.21Z" fill="#5DA2C8"/>
<path d="M52.4323 22.21L59.1709 14.9481L65.9094 22.21L59.1709 29.472L52.4323 22.21Z" fill="#5DA2C8"/>
<path d="M65.9094 22.21L72.6469 14.9481L79.3853 22.21L72.6469 29.472L65.9094 22.21Z" fill="#5DA2C8"/>
<path d="M79.3853 22.21L86.1233 14.9481L92.8618 22.21L86.1233 29.472L79.3853 22.21Z" fill="#5DA2C8"/>
<path d="M32.3086 29.4735L39.0471 22.2115L45.7855 29.4735L39.0471 36.7355L32.3086 29.4735Z" fill="#E36C8F"/>
<path d="M45.7855 29.4735L52.5241 22.2115L59.2626 29.4735L52.5241 36.7355L45.7855 29.4735Z" fill="#E36C8F"/>
<path d="M59.2626 29.4735L66 22.2115L72.7385 29.4735L66 36.7355L59.2626 29.4735Z" fill="#E36C8F"/>
<path d="M72.7385 29.4735L79.4765 22.2115L86.215 29.4735L79.4765 36.7355L72.7385 29.4735Z" fill="#E36C8F"/>
<path d="M86.215 29.4735L92.953 22.2115L99.6915 29.4735L92.953 36.7355L86.215 29.4735Z" fill="#E36C8F"/>
<path d="M32.3086 44.0012L39.0471 36.7392L45.7855 44.0012L39.0471 51.2632L32.3086 44.0012Z" fill="#E36C8F"/>
<path d="M45.7855 44.0012L52.5241 36.7392L59.2626 44.0012L52.5241 51.2632L45.7855 44.0012Z" fill="#E36C8F"/>
<path d="M59.2626 44.0012L66 36.7392L72.7385 44.0012L66 51.2632L59.2626 44.0012Z" fill="#E36C8F"/>
<path d="M72.7385 44.0012L79.4765 36.7392L86.215 44.0012L79.4765 51.2632L72.7385 44.0012Z" fill="#E36C8F"/>
<path d="M86.215 44.0012L92.953 36.7392L99.6915 44.0012L92.953 51.2632L86.215 44.0012Z" fill="#E36C8F"/>
<path d="M32.3086 58.527L39.0471 51.265L45.7855 58.527L39.0471 65.789L32.3086 58.527Z" fill="#E36C8F"/>
<path d="M45.7855 58.527L52.5241 51.265L59.2626 58.527L52.5241 65.789L45.7855 58.527Z" fill="#E36C8F"/>
<path d="M59.2626 58.527L66 51.265L72.7385 58.527L66 65.789L59.2626 58.527Z" fill="#E36C8F"/>
<path d="M72.7385 58.527L79.4765 51.265L86.215 58.527L79.4765 65.789L72.7385 58.527Z" fill="#E36C8F"/>
<path d="M86.215 58.527L92.953 51.265L99.6915 58.527L92.953 65.789L86.215 58.527Z" fill="#E36C8F"/>
<path d="M32.3086 73.0529L39.0471 65.7909L45.7855 73.0529L39.0471 80.3148L32.3086 73.0529Z" fill="#E36C8F"/>
<path d="M45.7855 73.0529L52.5241 65.7909L59.2626 73.0529L52.5241 80.3148L45.7855 73.0529Z" fill="#E36C8F"/>
<path d="M59.2626 73.0529L66 65.7909L72.7385 73.0529L66 80.3148L59.2626 73.0529Z" fill="#E36C8F"/>
<path d="M72.7385 73.0529L79.4765 65.7909L86.215 73.0529L79.4765 80.3148L72.7385 73.0529Z" fill="#E36C8F"/>
<path d="M86.215 73.0529L92.953 65.7909L99.6915 73.0529L92.953 80.3148L86.215 73.0529Z" fill="#E36C8F"/>
<path d="M38.9554 36.7341L45.6939 29.472L52.4323 36.7341L45.6939 43.9961L38.9554 36.7341Z" fill="#5DA2C8"/>
<path d="M52.4323 36.7341L59.1709 29.472L65.9094 36.7341L59.1709 43.9961L52.4323 36.7341Z" fill="#5DA2C8"/>
<path d="M65.9094 36.7341L72.6469 29.472L79.3853 36.7341L72.6469 43.9961L65.9094 36.7341Z" fill="#5DA2C8"/>
<path d="M79.3853 36.7341L86.1233 29.472L92.8618 36.7341L86.1233 43.9961L79.3853 36.7341Z" fill="#5DA2C8"/>
<path d="M38.9554 51.2617L45.6939 43.9998L52.4323 51.2617L45.6939 58.5237L38.9554 51.2617Z" fill="#5DA2C8"/>
<path d="M52.4323 51.2617L59.1709 43.9998L65.9094 51.2617L59.1709 58.5237L52.4323 51.2617Z" fill="#5DA2C8"/>
<path d="M65.9094 51.2617L72.6469 43.9998L79.3853 51.2617L72.6469 58.5237L65.9094 51.2617Z" fill="#5DA2C8"/>
<path d="M79.3853 51.2617L86.1233 43.9998L92.8618 51.2617L86.1233 58.5237L79.3853 51.2617Z" fill="#5DA2C8"/>
<path d="M38.9554 65.7876L45.6939 58.5256L52.4323 65.7876L45.6939 73.0496L38.9554 65.7876Z" fill="#5DA2C8"/>
<path d="M52.4323 65.7876L59.1709 58.5256L65.9094 65.7876L59.1709 73.0496L52.4323 65.7876Z" fill="#5DA2C8"/>
<path d="M65.9094 65.7876L72.6469 58.5256L79.3853 65.7876L72.6469 73.0496L65.9094 65.7876Z" fill="#5DA2C8"/>
<path d="M79.3853 65.7876L86.1233 58.5256L92.8618 65.7876L86.1233 73.0496L79.3853 65.7876Z" fill="#5DA2C8"/>
<circle opacity="0.67" cx="66.2585" cy="43.151" r="24.7721" fill="url(#paint0_radial_2201_6081)" fill-opacity="0.7"/>
<defs>
<radialGradient id="paint0_radial_2201_6081" cx="0" cy="0" r="1" gradientUnits="userSpaceOnUse" gradientTransform="translate(66.2585 43.151) rotate(90) scale(24.7721)">
<stop offset="0.40625" stop-color="white"/>
<stop offset="1" stop-color="white" stop-opacity="0"/>
</radialGradient>
</defs>
</svg>
