<svg width="132" height="88" viewBox="0 0 132 88" fill="none" xmlns="http://www.w3.org/2000/svg">
<path fill-rule="evenodd" clip-rule="evenodd" d="M34.1713 72.479L51.0194 28.4568C51.417 27.417 52.2577 26.609 53.3131 26.2529L94.7056 12.2761C96.6787 11.61 98.5487 13.515 97.8461 15.4751L85.3011 50.4977C84.8884 51.6511 83.9358 52.5283 82.7522 52.8457L60.9458 58.6963C59.7963 59.0046 58.8637 59.8417 58.4317 60.9502L55.4172 68.7038C55.0025 69.7703 54.1219 70.5879 53.0274 70.9217L37.2249 75.7504C35.2418 76.3563 33.4307 74.415 34.1713 72.479ZM61.9971 46.851L67.3046 31.4603C67.6354 30.4997 68.415 29.7614 69.3916 29.482L71.0418 29.0109C71.5256 28.8726 71.9653 29.3362 71.8014 29.8122L66.4939 45.2029C66.1631 46.1635 65.3834 46.9021 64.4061 47.1812L62.7566 47.6526C62.2729 47.7909 61.8332 47.327 61.9971 46.851Z" fill="black"/>
</svg>
