<svg width="132" height="88" viewBox="0 0 132 88" fill="none" xmlns="http://www.w3.org/2000/svg">
<path d="M65.9995 77.9833C84.7682 77.9833 99.9834 62.7684 99.9834 43.9996C99.9834 25.2309 84.7682 10.0156 65.9995 10.0156C47.2307 10.0156 32.0156 25.2309 32.0156 43.9996C32.0156 62.7684 47.2307 77.9833 65.9995 77.9833Z" fill="#14213D"/>
<path d="M56.0871 59.5753V28.4233H67.7696C70.1624 28.4233 72.1705 28.8697 73.7927 29.762C75.4248 30.6544 76.6574 31.8815 77.489 33.4432C78.3305 34.9945 78.7515 36.7589 78.7515 38.7364C78.7515 40.734 78.3305 42.5088 77.489 44.0601C76.6475 45.6117 75.405 46.8337 73.7616 47.7261C72.1196 48.6083 70.0964 49.0494 67.6926 49.0494H61.7304V44.4102H66.9331C68.3323 44.4102 69.4777 44.1668 70.3703 43.68C71.263 43.1933 71.9216 42.524 72.3473 41.6723C72.7832 40.8203 73.0021 39.8416 73.0021 38.7364C73.0021 37.6311 72.7832 36.6577 72.3473 35.8159C71.9216 34.9744 71.258 34.3202 70.3555 33.8538C69.4628 33.3772 68.3114 33.1388 66.902 33.1388H61.7304V59.5753H56.0871Z" fill="#F4F6FD"/>
</svg>
