<svg width="132" height="88" viewBox="0 0 132 88" fill="none" xmlns="http://www.w3.org/2000/svg">
<path d="M52.969 8.01562L45.4016 18.6744V24.6992L38.8168 27.8315L38.7568 27.8034V67.1106L64.4315 79.2408L66.001 79.9817L67.5693 79.2408L93.2441 67.1106V27.8034L93.196 27.8265L86.6081 24.6932V18.6744L86.3782 18.3502L79.0407 8.01562L71.4724 18.6744V18.6848L65.9661 10.9292L60.5015 18.6251L60.3065 18.3502L52.969 8.01562ZM54.3085 14.207L57.2351 18.3293H48.7032L51.5968 14.2555L54.3085 14.207ZM80.3791 14.207L83.3067 18.3293H74.7748L77.6673 14.2555L80.3791 14.207ZM67.3042 17.121L70.2318 21.2428H61.7011L64.5927 17.1689L67.3042 17.121ZM47.8944 20.4067H51.9405V34.0319L47.8944 32.1201V20.4067ZM54.0176 20.4067H58.0447V36.915L54.0176 35.0131V20.4067ZM73.9661 20.4067H78.0121V34.9991L73.9661 36.9103V20.4067ZM80.0892 20.4067H84.1152V32.1154L80.0892 34.0173V20.4067ZM60.8915 23.3204H64.9375V40.1716L60.8915 38.2598V23.3204ZM67.0154 23.3204H71.0406V38.2925L67.0154 40.1947V23.3204ZM86.6073 27.7985L90.1704 29.2549L86.6073 30.9379V27.7985ZM45.4016 27.8034V30.9426L41.8394 29.2598L45.4016 27.8034ZM41.8943 32.7562L64.4315 43.4028V75.7695L41.8943 65.1237V32.7562ZM90.1055 32.7562V65.1237L67.5693 75.7695V43.4028L90.1055 32.7562Z" fill="black"/>
</svg>
