<svg width="132" height="88" viewBox="0 0 132 88" fill="none" xmlns="http://www.w3.org/2000/svg">
<path fill-rule="evenodd" clip-rule="evenodd" d="M56.7842 56.5355C58.2036 56.4341 64.4385 52.3788 68.3925 48.9825L72.1436 44.471C72.6505 43.7613 73.1067 42.8489 73.1575 42.4433C73.2081 42.0378 74.222 40.7198 75.3878 39.5033C77.7197 37.1208 80.2542 31.9502 80.5077 29.1622C80.609 27.8442 80.457 27.4894 79.8994 27.6922C79.2911 27.9456 79.2911 27.7429 79.798 26.7797C80.7611 25.0562 80.8118 24.2452 79.9501 24.2452C79.4432 24.2452 79.1897 23.6369 79.1897 22.3696C79.1897 19.9364 78.1759 18.0609 75.6413 15.7291C72.5491 13.0424 69.3556 11.471 66.162 11.1162C63.6275 10.8627 63.2727 10.9641 62.6644 12.0286C62.3095 12.7383 61.904 12.9917 61.7012 12.6876C61.3464 12.0793 56.328 12.8397 55.7703 13.5493C55.6183 13.7521 54.5538 14.3604 53.3879 14.9687C49.6367 16.8442 41.881 23.0793 38.9409 26.4756C35.2911 30.7337 32.1483 36.1576 32.6045 37.4756C32.7566 38.0332 33.5169 38.7935 34.2773 39.1991C35.6459 39.9087 35.7473 39.8581 38.5353 36.7659C40.1575 35.0424 42.2358 32.4064 43.2497 30.9364C45.1252 28.1484 50.2957 22.8765 49.7888 24.2452C48.6229 27.2359 43.8073 37.6784 42.033 40.9226C40.9178 43.1023 39.6506 45.789 39.2957 46.9548C38.0791 50.7567 35.8487 55.1161 35.1897 55.1161C34.7842 55.1161 34.4801 55.5217 34.4801 55.9779C34.4801 56.3834 34.1252 56.8903 33.7197 57.0424C33.3142 57.2451 33.0607 57.7014 33.2635 58.1069C33.4155 58.5631 33.0607 59.0193 32.351 59.2728L31.2358 59.729L33.3649 61.6553L32.0469 64.2407C31.3372 65.6597 30.7796 67.2314 30.7796 67.7887C30.7796 68.3465 30.5261 69.0055 30.2727 69.2588C30.0192 69.5633 29.4109 71.0839 28.9547 72.7057C28.1943 75.3926 28.1944 75.6965 29.0054 76.3049C30.1713 77.1666 31.0838 77.116 31.4893 76.1532C31.6414 75.6965 32.4017 75.1392 33.1621 74.8348C33.9225 74.5308 34.4801 74.0241 34.3787 73.6185C34.328 73.2635 35.2911 71.0839 36.5584 68.8027C38.2819 65.6597 38.6874 64.494 38.2312 63.9871C37.775 63.4295 37.9271 63.0746 38.8395 62.4664C40.7151 61.2498 42.3372 60.8949 43.3003 61.4018C44.5169 62.1115 46.3925 61.6046 47.1529 60.388C47.7611 59.4755 47.7105 59.4249 46.3925 59.729C43.8579 60.3373 45.48 59.0193 48.3695 58.0562C50.4985 57.3465 51.2081 57.2958 51.5123 57.8028C51.8165 58.259 52.3234 58.2083 53.6413 57.5493C54.6045 57.0424 56.0238 56.5862 56.7842 56.5355ZM59.1348 17.7418C57.31 18.5022 57.1579 18.705 57.2086 20.7833C57.2593 24.3317 55.6372 28.9446 52.8999 32.7464C51.4805 34.6727 50.2132 36.7003 50.0611 37.2073C49.4529 38.88 50.1625 38.1704 51.3284 35.9399C51.9367 34.774 52.545 33.9123 52.6971 34.0644C52.8491 34.2164 52.5957 35.0275 52.1395 35.9399C51.6326 36.8524 51.2778 37.8662 51.2778 38.2718C51.2778 38.6266 50.7708 39.539 50.2132 40.2487C49.6556 41.0091 49.1487 41.9215 49.1487 42.327C49.1487 42.6819 48.1856 44.6589 46.969 46.6865C45.8031 48.6635 44.7385 50.6404 44.6879 51.0459C44.5865 51.4008 43.9275 53.0229 43.1672 54.645C42.4574 56.2671 41.8999 57.6358 41.9506 57.7372C42.3054 58.1934 47.2731 55.8109 47.2731 55.2026C47.2731 54.7971 47.9828 54.2395 48.8953 53.9353C49.757 53.6819 50.9736 53.0229 51.5312 52.516C52.1395 51.9584 53.5081 51.198 54.5727 50.7418C55.6879 50.2856 56.9045 49.6773 57.2593 49.3731C57.4238 49.2321 57.8933 48.8515 58.5212 48.3424C59.248 47.7532 60.1873 46.9916 61.1118 46.2303C70.3883 38.728 74.2915 31.4284 73.075 23.8247C72.568 20.6312 71.1487 18.7556 68.462 17.5898C66.2317 16.6266 61.6187 16.6773 59.1348 17.7418ZM101.082 16.6775C102.248 17.2857 103.363 18.1475 103.515 18.6037C103.92 19.6176 102.957 26.0553 101.842 29.7051C100.271 34.977 96.8742 38.7281 92.8189 39.7419L91.3493 40.0967L93.2245 37.8157C94.2384 36.5484 95.9113 33.8111 96.9253 31.7327C98.7499 27.9816 100.423 21.6959 99.7638 21.0876C98.3443 19.6175 89.2203 34.1153 83.7455 46.5346C82.681 48.9678 81.2617 53.8848 80.2478 58.5484C78.4736 66.8615 78.3216 68.2811 79.082 68.7878C79.3861 68.94 79.7407 69.7512 79.9435 70.5623C80.1463 71.3735 80.5518 71.9813 80.856 71.9813C81.7682 71.9813 86.6857 67.0643 88.5103 64.2764C89.4737 62.8064 91.2982 59.9677 92.515 57.8894C93.7823 55.8617 95.6074 53.1244 96.5703 51.8571C97.8881 50.1336 98.3954 48.9677 98.3954 47.4977C100.547 43.7482 100.945 44.0653 99.8144 50.1843C99.6116 50.1843 99.4599 50.5391 99.4599 50.9953C99.4599 51.4009 99.206 51.7557 98.9021 51.7557C98.6487 51.7557 98.2431 52.4148 98.0404 53.2258C97.8376 54.0369 96.9253 56.2673 96.0636 58.1428C95.2013 60.0691 94.5429 61.9446 94.5935 62.2995C94.644 62.6543 94.4918 62.9585 94.1879 62.9585C93.9345 62.9585 93.1739 64.1751 92.515 65.6959C91.6027 67.8249 91.2477 68.2811 90.8421 67.7233C90.386 67.1154 90.3354 67.166 90.5888 67.926C90.7915 68.4839 90.9438 69.0922 90.9438 69.295C90.9438 69.5484 91.5521 69.5989 92.3628 69.4467L93.7823 69.1934L92.4139 71.5252C91.6533 72.7925 90.1832 74.567 89.1187 75.4287L87.1924 77L85.3673 74.7693L83.8466 75.8338C81.4644 77.5067 77.8146 76.7972 75.128 74.0598L73.1003 71.9308L73.151 64.9353C73.2524 53.8341 74.976 47.9032 82.2248 33.659C90.386 17.6913 94.9479 13.5346 101.082 16.6775Z" fill="#1C33DA"/>
</svg>
