<svg width="132" height="88" viewBox="0 0 132 88" fill="none" xmlns="http://www.w3.org/2000/svg">
<path d="M36.1629 9.89844H95.8379C96.9684 9.89844 98.0526 10.3475 98.8519 11.1469C99.6513 11.9463 100.1 13.0305 100.1 14.1609V73.8359C100.1 74.9664 99.6513 76.0506 98.8519 76.85C98.0526 77.6494 96.9684 78.0984 95.8379 78.0984H36.1629C35.0324 78.0984 33.9482 77.6494 33.1488 76.85C32.3495 76.0506 31.9004 74.9664 31.9004 73.8359V14.1609C31.9004 13.0305 32.3495 11.9463 33.1488 11.1469C33.9482 10.3475 35.0324 9.89844 36.1629 9.89844Z" fill="#05A081"/>
<path d="M59.6063 54.6531H67.8393V46.6567H70.3264C71.2008 46.6567 72.0666 46.4845 72.8744 46.1499C73.6821 45.8153 74.4161 45.3248 75.0344 44.7066C75.6526 44.0883 76.1431 43.3544 76.4777 42.5466C76.8123 41.7388 76.9845 40.873 76.9845 39.9986C76.9845 39.1243 76.8123 38.2585 76.4777 37.4507C76.1431 36.6429 75.6526 35.909 75.0344 35.2907C74.4161 34.6725 73.6821 34.182 72.8744 33.8474C72.0666 33.5128 71.2008 33.3406 70.3264 33.3406H59.6063V54.6531ZM72.1018 58.9156H55.3438V29.0781H70.3264C73.0689 29.0776 75.7112 30.109 77.7282 31.9672C79.7451 33.8255 80.989 36.3747 81.2127 39.108C81.4364 41.8414 80.6234 44.5588 78.9354 46.7203C77.2474 48.8817 74.8079 50.3289 72.1018 50.7743V58.9156Z" fill="white"/>
</svg>
