<svg width="132" height="88" viewBox="0 0 132 88" fill="none" xmlns="http://www.w3.org/2000/svg">
<path fill-rule="evenodd" clip-rule="evenodd" d="M119.1 29.5977H125.001V35.3587V41.1198H119.1V46.8808H113.2V52.6419H107.3V58.403H101.4H95.5004H89.6004H83.7003V52.6419H80.1603V46.8808H83.7003V41.1198H89.6004V46.8808H87.2404V52.6419H89.6004V46.8808H95.5004V41.1198H89.6004V35.3587H83.7003V41.1198H80.1603V46.8808H73.0803V41.1198H77.8003V35.3587H73.0803V41.1198H66.0002H60.1002V46.8808H54.2002V52.6419H48.3002V58.403H42.4002H36.5001H30.6001H24.7001V52.6419H18.8V46.8808H12.9V41.1198H18.8V35.3587H12.9V41.1198H7V35.3587V29.5977H12.9H18.8H24.7001H30.6001H36.5001H42.4002H48.3002H54.2002H60.1002H66.0002H71.9003H77.8003H83.7003H89.6004H95.5004H101.4H107.3H113.2H119.1ZM96.6804 52.6419H100.22V46.8808H96.6804V52.6419ZM41.2201 52.6419V46.8808H36.5001V41.1198H30.6001V35.3587H25.8801V41.1198H30.6001V46.8808H25.8801V52.6419H30.6001V46.8808H36.5001V52.6419H41.2201ZM24.7001 46.8808V41.1198H19.98V46.8808H24.7001Z" fill="black"/>
</svg>
