<svg width="132" height="88" viewBox="0 0 132 88" fill="none" xmlns="http://www.w3.org/2000/svg">
<path d="M67.3714 3.30525H38.3986C37.842 3.30525 37.3081 3.52626 36.9145 3.91968C36.5209 4.3131 36.2998 4.84667 36.2998 5.40304V56.8668C36.3069 64.2435 39.2406 71.3165 44.4576 76.5343C49.6747 81.7521 56.7491 84.6889 64.1295 84.7008C64.405 84.7008 64.678 84.6466 64.9325 84.541C65.1872 84.4357 65.4187 84.2811 65.6136 84.0863C65.8085 83.8915 65.9629 83.6603 66.0685 83.4057C66.174 83.1512 66.2282 82.8785 66.2282 82.6029V58.9644H67.3536C71.052 59.0307 74.7264 58.3598 78.1625 56.9909C81.5986 55.6222 84.7273 53.5828 87.3662 50.992C90.0052 48.4012 92.1011 45.3109 93.5321 41.9015C94.9629 38.4921 95.6998 34.832 95.6998 31.1349C95.6998 27.4377 94.9629 23.7777 93.5321 20.3682C92.1011 16.9588 90.0052 13.8685 87.3662 11.2777C84.7273 8.68694 81.5986 6.64761 78.1625 5.27877C74.7264 3.90992 71.052 3.23904 67.3536 3.30525H67.3714ZM62.0126 80.4158C56.497 79.9145 51.3316 77.4963 47.4153 73.5818C43.4989 69.6672 41.0795 64.5043 40.5778 58.9913H62.0126V80.4158ZM62.0126 47.9845L41.8014 7.50085H62.0485L62.0126 47.9845ZM67.3714 54.7689H66.2462V7.50085H67.3714C70.5152 7.43977 73.6396 8.00597 76.5619 9.16625C79.4842 10.3265 82.1457 12.0576 84.3906 14.2583C86.6356 16.459 88.4189 19.085 89.6364 21.9828C90.8537 24.8807 91.4807 27.9919 91.4807 31.1349C91.4807 34.2778 90.8537 37.3891 89.6364 40.287C88.4189 43.1847 86.6356 45.8107 84.3906 48.0114C82.1457 50.212 79.4842 51.9432 76.5619 53.1036C73.6396 54.2637 70.5152 54.83 67.3714 54.7689Z" fill="black"/>
</svg>
