<svg width="132" height="88" viewBox="0 0 132 88" fill="none" xmlns="http://www.w3.org/2000/svg">
<path fill-rule="evenodd" clip-rule="evenodd" d="M69.18 12.2142C65.5491 12.5708 61.9507 13.6219 58.4774 15.3407C54.878 17.1218 52.3028 18.9899 49.6064 21.7756C43.7121 27.8653 40.6715 35.2086 40.2981 44.2556C40.1307 48.3139 39.5229 51.0611 38.2192 53.651C36.3646 57.3353 32.9936 60.6675 29.2742 62.4926C28.7518 62.7491 28.3242 63.025 28.3242 63.1057C28.3242 63.1865 29.2255 66.0055 30.3269 69.3703C32.2114 75.1269 32.3504 75.482 32.6813 75.3879C32.8748 75.3329 33.9253 74.8536 35.0157 74.3225C39.4014 72.1871 43.4426 68.8831 46.334 65.069L47.2422 63.8709L47.6326 64.3329C53.5048 71.2812 61.2482 75.2249 70.2513 75.8525L70.9555 75.9016L70.8691 62.9892L69.5473 62.791C67.6301 62.5033 66.416 62.1801 64.9211 61.5593C63.4572 60.9514 60.8197 59.4297 60.1488 58.806C59.911 58.5851 59.7165 58.4435 59.7165 58.4913C59.7165 58.6969 56.8137 55.4449 56.2361 54.5922C55.2763 53.1753 54.3276 51.2077 53.8478 49.6388C53.6109 48.8644 53.3589 48.1191 53.2879 47.9824C53.0901 47.6019 53.2601 43.1168 53.5357 41.4462C54.4036 36.184 57.451 31.4631 61.8986 28.4904C64.5655 26.708 66.5495 25.9886 70.4991 25.3713L71.1207 25.2742L71.0774 18.7002C71.0401 12.9983 71.0014 12.1232 70.7865 12.1035C70.6502 12.0909 69.9273 12.1408 69.18 12.2142ZM90.8782 46.119C90.2545 51.4742 87.092 56.6799 82.6415 59.6768C80.167 61.3431 77.8319 62.2795 74.8541 62.7994C74.047 62.9402 73.3221 63.0555 73.2432 63.0555C73.1642 63.0555 73.0996 65.9252 73.0996 69.4326V75.8096H73.6722C73.9872 75.8096 75.0837 75.6934 76.1093 75.5512C85.2284 74.2873 93.3675 69.1718 98.383 61.5525C99.5945 59.7119 101.4 56.1292 101.277 55.8086C101.23 55.6854 101.251 55.6216 101.324 55.667C101.515 55.7853 102.678 52.1636 102.557 51.8259C102.501 51.6692 102.521 51.6024 102.601 51.6756C102.83 51.8852 103.478 48.2822 103.264 47.992C103.131 47.8125 103.139 47.7841 103.294 47.8776C103.444 47.968 103.504 47.8294 103.514 47.371C103.522 47.024 103.561 46.3862 103.601 45.9533L103.674 45.1666H90.9891L90.8782 46.119Z" fill="#E4E4E4"/>
<path fill-rule="evenodd" clip-rule="evenodd" d="M69.1342 12.3104C68.907 12.3438 68.1635 12.4515 67.4819 12.5496C63.6474 13.1016 59.3345 14.6944 55.7979 16.8644C50.084 20.3705 45.2491 26.1372 42.8147 32.35C41.2337 36.3844 40.6215 39.3732 40.3935 44.1702C40.1899 48.4548 39.7724 50.4285 38.47 53.2634C36.7066 57.1021 33.1465 60.7264 29.3981 62.4993C28.8529 62.7572 28.3807 62.9828 28.3489 63.0008C28.317 63.0189 29.2084 65.7963 30.3298 69.1732C31.6552 73.1639 32.446 75.3127 32.5894 75.3127C33.0123 75.3127 36.5836 73.5127 38.0249 72.5731C41.2503 70.4703 44.4406 67.5044 46.6295 64.5739C50.6789 59.1527 53.1076 52.0117 53.1076 45.5265C53.1076 42.0178 53.7709 38.9906 55.1694 36.1179C57.9882 30.3274 63.3709 26.3224 69.5353 25.4289L70.9516 25.2235V12.2045L70.2494 12.2271C69.8631 12.2395 69.3613 12.2771 69.1342 12.3104Z" fill="#737373"/>
<path d="M73.0996 24.9436V18.5742C73.0996 12.9502 73.1293 12.2045 73.3539 12.2045C73.4938 12.2045 74.3303 12.2849 75.2126 12.3833C88.4408 13.8561 99.3753 23.3117 102.672 36.1285C103.135 37.9297 103.666 41.2568 103.666 42.3591V42.8476H90.9816L90.8683 41.8952C90.1045 35.4762 85.9571 29.6744 80.1216 26.8617C78.1921 25.9316 76.7431 25.5197 73.7192 25.0417L73.0996 24.9436Z" fill="#F0452B"/>
</svg>
