<svg width="132" height="88" viewBox="0 0 132 88" fill="none" xmlns="http://www.w3.org/2000/svg">
<path fill-rule="evenodd" clip-rule="evenodd" d="M64.8315 15.1196C49.4102 15.7328 37.0964 28.4284 37.0964 44.0001C37.0964 49.8141 38.813 55.2273 41.7671 59.7603L64.8315 15.1196ZM44.383 63.1874C44.6148 63.4483 44.8513 63.705 45.0922 63.9574C44.9517 63.4731 44.8378 62.9776 44.7525 62.4722L44.383 63.1874ZM52.1077 48.2365C53.8541 47.3947 55.8125 46.923 57.8811 46.923C60.3046 46.923 62.577 47.5705 64.5345 48.7018C64.182 47.1155 64.0097 45.4636 64.0392 43.7677C64.1536 37.2176 67.2562 31.4299 72.0401 27.5892L67.5649 18.3192L52.1077 48.2365ZM73.7888 31.2116C70.2594 34.3539 68.0229 38.8427 67.9359 43.8358C67.7677 53.4716 75.6649 61.5104 85.6861 61.6855C86.6177 61.7017 87.5329 61.6493 88.4268 61.5333L73.7888 31.2116ZM91.1617 58.2346L77.0112 28.9225C79.7376 27.4039 82.9125 26.5573 86.2983 26.6164C87.3289 26.6344 88.3365 26.7357 89.315 26.9132C92.8286 31.6996 94.904 37.6075 94.904 44.0001C94.904 49.1752 93.5439 54.0326 91.1617 58.2346ZM75.3156 25.4102L70.5049 15.4453C76.2636 16.3466 81.4587 18.948 85.5602 22.7201C81.858 22.7862 78.3663 23.7525 75.3156 25.4102ZM71.1964 60.2382C71.1964 60.1497 71.1955 60.0612 71.1938 59.973C74.9248 63.2996 79.8347 65.3879 85.2381 65.5722C80.1281 70.1324 73.3878 72.9039 66.0002 72.9039C64.8409 72.9039 63.6974 72.8357 62.5738 72.703C67.6121 70.8053 71.1964 65.9404 71.1964 60.2382ZM66.0002 11.1992C47.8847 11.1992 33.1992 25.8847 33.1992 44.0001C33.1992 62.1156 47.8847 76.801 66.0002 76.801C84.1157 76.801 98.8011 62.1156 98.8011 44.0001C98.8011 25.8847 84.1157 11.1992 66.0002 11.1992ZM57.8811 50.8201C52.6797 50.8201 48.463 55.0368 48.463 60.2382C48.463 65.4397 52.6797 69.6563 57.8811 69.6563C63.0827 69.6563 67.2992 65.4397 67.2992 60.2382C67.2992 55.0368 63.0827 50.8201 57.8811 50.8201Z" fill="#383635"/>
<path d="M57.882 53.7422C59.1666 53.7422 60.4224 54.1231 61.4905 54.837C62.5587 55.5506 63.3912 56.565 63.8827 57.7519C64.3744 58.9387 64.503 60.2447 64.2523 61.5046C64.0018 62.7646 63.3831 63.922 62.4747 64.8304C61.5664 65.7387 60.4091 66.3572 59.1492 66.608C57.8891 66.8585 56.5832 66.7299 55.3964 66.2384C54.2095 65.7467 53.195 64.9142 52.4813 63.846C51.7677 62.7779 51.3867 61.5222 51.3867 60.2374H57.882V53.7422Z" fill="#E7C800"/>
</svg>
