<svg width="132" height="88" viewBox="0 0 132 88" fill="none" xmlns="http://www.w3.org/2000/svg">
<rect x="31.0742" y="9.07422" width="69.85" height="69.85" rx="15.5615" fill="url(#paint0_linear_2056_27171)"/>
<mask id="mask0_2056_27171" style="mask-type:alpha" maskUnits="userSpaceOnUse" x="31" y="9" width="70" height="70">
<rect x="31.0742" y="9.07422" width="69.85" height="69.85" rx="15.5615" fill="url(#paint1_linear_2056_27171)"/>
</mask>
<g mask="url(#mask0_2056_27171)">
<g filter="url(#filter0_d_2056_27171)">
<path fill-rule="evenodd" clip-rule="evenodd" d="M43.0996 28.082H57.8654C63.3834 28.082 67.8566 32.5552 67.8566 38.0732V38.5153C67.8566 44.0333 63.3834 48.5065 57.8654 48.5065H48.9352V57.6136H43.0996V28.082ZM48.9352 42.671H57.8654C60.1605 42.671 62.021 40.8104 62.021 38.5153V38.0732C62.021 35.7781 60.1605 33.9176 57.8654 33.9176H48.9352V42.671ZM70.2438 49.656V28.8778H76.0794V49.656C76.0794 50.9744 77.1482 52.0432 78.4667 52.0432H88.7232V57.8788H78.4667C73.9253 57.8788 70.2438 54.1973 70.2438 49.656Z" fill="#F5F7F6"/>
</g>
<g filter="url(#filter1_d_2056_27171)">
<path d="M29.4824 65.8398H46.105V71.4986H29.4824V65.8398Z" fill="#00ABDD"/>
<path d="M46.105 65.8398H64.4958V71.4986H46.105V65.8398Z" fill="#E1338A"/>
<path d="M64.4958 65.8398H82.8867V71.4986H64.4958V65.8398Z" fill="#FFF000"/>
<path d="M82.8867 65.8398H101.278V71.4986H82.8867V65.8398Z" fill="#202221"/>
</g>
</g>
<defs>
<filter id="filter0_d_2056_27171" x="41.6849" y="28.082" width="48.4524" height="32.8031" filterUnits="userSpaceOnUse" color-interpolation-filters="sRGB">
<feFlood flood-opacity="0" result="BackgroundImageFix"/>
<feColorMatrix in="SourceAlpha" type="matrix" values="0 0 0 0 0 0 0 0 0 0 0 0 0 0 0 0 0 0 127 0" result="hardAlpha"/>
<feOffset dy="1.59152"/>
<feGaussianBlur stdDeviation="0.707342"/>
<feComposite in2="hardAlpha" operator="out"/>
<feColorMatrix type="matrix" values="0 0 0 0 0 0 0 0 0 0 0 0 0 0 0 0 0 0 0.25 0"/>
<feBlend mode="normal" in2="BackgroundImageFix" result="effect1_dropShadow_2056_27171"/>
<feBlend mode="normal" in="SourceGraphic" in2="effect1_dropShadow_2056_27171" result="shape"/>
</filter>
<filter id="filter1_d_2056_27171" x="28.7751" y="65.8398" width="73.2096" height="7.07484" filterUnits="userSpaceOnUse" color-interpolation-filters="sRGB">
<feFlood flood-opacity="0" result="BackgroundImageFix"/>
<feColorMatrix in="SourceAlpha" type="matrix" values="0 0 0 0 0 0 0 0 0 0 0 0 0 0 0 0 0 0 127 0" result="hardAlpha"/>
<feOffset dy="0.707342"/>
<feGaussianBlur stdDeviation="0.353671"/>
<feComposite in2="hardAlpha" operator="out"/>
<feColorMatrix type="matrix" values="0 0 0 0 0 0 0 0 0 0 0 0 0 0 0 0 0 0 0.25 0"/>
<feBlend mode="normal" in2="BackgroundImageFix" result="effect1_dropShadow_2056_27171"/>
<feBlend mode="normal" in="SourceGraphic" in2="effect1_dropShadow_2056_27171" result="shape"/>
</filter>
<linearGradient id="paint0_linear_2056_27171" x1="65.9992" y1="9.07422" x2="65.9992" y2="78.9242" gradientUnits="userSpaceOnUse">
<stop stop-color="#02BBFB"/>
<stop offset="0.991034" stop-color="#018AB8"/>
</linearGradient>
<linearGradient id="paint1_linear_2056_27171" x1="65.9992" y1="9.07422" x2="65.9992" y2="78.9242" gradientUnits="userSpaceOnUse">
<stop stop-color="#02BBFB"/>
<stop offset="0.991034" stop-color="#018AB8"/>
</linearGradient>
</defs>
</svg>
