<svg width="132" height="88" viewBox="0 0 132 88" fill="none" xmlns="http://www.w3.org/2000/svg">
<path fill-rule="evenodd" clip-rule="evenodd" d="M35.2583 11.4141H97.3942C102.606 11.4141 104.349 17.4844 104.349 21.8026C104.349 30.6746 94.6504 31.9618 87.628 32.8937L87.6278 32.8938L87.6278 32.8938C86.7508 33.0102 85.9156 33.121 85.1463 33.2404L90.8127 61.3627C92.0016 64.1 92.8583 70.2931 89.143 74.1364C86.9653 76.3891 83.5477 76.5891 80.4145 76.5891H60.6008C57.7426 76.5891 54.7143 76.2731 52.77 74.1782C50.2045 71.4139 48.1368 66.4668 50.2032 59.5789C53.2253 49.5052 54.7503 40.271 55.1351 36.9131C55.275 35.3391 54.7363 32.5268 51.4624 33.87C49.4476 36.3045 47.8247 37.8225 47.265 38.2772C45.4811 39.8512 40.4863 42.3067 34.7778 39.5364C29.8361 37.1382 28.1029 31.6311 27.7264 28.1754C27.4336 25.4868 28.0407 22.5808 28.6224 19.7969C28.8538 18.6892 29.0812 17.6008 29.2462 16.5531C29.7124 13.594 32.2626 11.4141 35.2583 11.4141ZM91.7573 26.9444C95.1186 26.9444 97.8435 24.2196 97.8435 20.8583C97.8435 17.4969 95.1186 14.7721 91.7573 14.7721C88.396 14.7721 85.6711 17.4969 85.6711 20.8583C85.6711 24.2196 88.396 26.9444 91.7573 26.9444ZM44.327 32.7155C44.327 34.9757 42.4947 36.8079 40.2345 36.8079C37.9743 36.8079 36.1421 34.9757 36.1421 32.7155C36.1421 30.4553 37.9743 28.623 40.2345 28.623C42.4947 28.623 44.327 30.4553 44.327 32.7155ZM57.0709 69.3381C56.2917 69.3381 55.6601 69.9697 55.6601 70.7489C55.6601 71.4906 56.2345 72.1057 56.9745 72.1564L70.9805 73.1157L84.9865 72.1564C85.7265 72.1057 86.3009 71.4906 86.3009 70.7489C86.3009 69.9697 85.6693 69.3381 84.8901 69.3381H57.0709Z" fill="url(#paint0_linear_2056_24408)"/>
<defs>
<linearGradient id="paint0_linear_2056_24408" x1="65.9998" y1="11.4141" x2="65.9998" y2="76.5891" gradientUnits="userSpaceOnUse">
<stop stop-color="#626365"/>
<stop offset="1" stop-color="#242122"/>
</linearGradient>
</defs>
</svg>
