<svg width="360" height="360" viewBox="0 0 360 360" fill="none" xmlns="http://www.w3.org/2000/svg">
<path fill-rule="evenodd" clip-rule="evenodd" d="M175.75 74.9804C119.673 77.2105 74.895 123.376 74.895 180.001C74.895 201.143 81.1374 220.827 91.8794 237.31L175.75 74.9804ZM101.392 249.772C102.235 250.721 103.095 251.655 103.971 252.572C103.46 250.812 103.046 249.009 102.735 247.172L101.392 249.772ZM129.482 195.405C135.832 192.344 142.954 190.629 150.476 190.629C159.289 190.629 167.552 192.984 174.67 197.098C173.388 191.329 172.762 185.322 172.869 179.156C173.285 155.337 184.567 134.291 201.963 120.325L185.69 86.6156L129.482 195.405ZM208.322 133.497C195.488 144.923 187.355 161.246 187.039 179.403C186.427 214.442 215.144 243.675 251.585 244.311C254.973 244.37 258.3 244.179 261.551 243.758L208.322 133.497ZM271.496 231.762L220.04 125.173C229.954 119.651 241.499 116.572 253.811 116.787C257.559 116.853 261.223 117.221 264.781 117.866C277.558 135.271 285.105 156.755 285.105 180.001C285.105 198.819 280.159 216.483 271.496 231.762ZM213.874 112.401L196.381 76.165C217.321 79.4422 236.213 88.9021 251.127 102.619C237.665 102.859 224.968 106.373 213.874 112.401ZM198.895 239.048C198.895 238.726 198.892 238.405 198.886 238.084C212.453 250.18 230.307 257.775 249.956 258.445C231.374 275.027 206.864 285.105 180 285.105C175.784 285.105 171.626 284.857 167.54 284.375C185.861 277.474 198.895 259.783 198.895 239.048ZM180 60.7246C114.125 60.7246 60.7236 114.126 60.7236 180.001C60.7236 245.875 114.125 299.277 180 299.277C245.874 299.277 299.276 245.875 299.276 180.001C299.276 114.126 245.874 60.7246 180 60.7246ZM150.476 204.801C131.562 204.801 116.228 220.134 116.228 239.048C116.228 257.963 131.562 273.296 150.476 273.296C169.391 273.296 184.724 257.963 184.724 239.048C184.724 220.134 169.391 204.801 150.476 204.801Z" fill="#383635"/>
<path d="M150.477 215.43C155.149 215.43 159.715 216.815 163.6 219.411C167.484 222.006 170.511 225.695 172.298 230.01C174.086 234.326 174.554 239.075 173.642 243.657C172.731 248.238 170.482 252.447 167.178 255.75C163.875 259.053 159.667 261.303 155.086 262.214C150.503 263.125 145.755 262.658 141.439 260.87C137.123 259.082 133.434 256.055 130.839 252.171C128.244 248.287 126.858 243.721 126.858 239.049H150.477V215.43Z" fill="#E7C800"/>
</svg>
