<svg width="132" height="88" viewBox="0 0 132 88" fill="none" xmlns="http://www.w3.org/2000/svg">
<rect x="31.0752" y="9.07422" width="69.85" height="69.85" rx="13.5884" fill="#FFE402"/>
<path fill-rule="evenodd" clip-rule="evenodd" d="M82.0514 15.9435C81.9476 15.9909 81.7459 16.0327 81.6031 16.0364C81.4604 16.04 81.3436 16.0855 81.3436 16.1374C81.3436 16.1893 81.2587 16.2317 81.1549 16.2317C81.0511 16.2317 80.9662 16.2742 80.9662 16.3261C80.9662 16.378 80.9093 16.4205 80.8396 16.4205C80.6688 16.4205 79.8338 17.2178 79.8338 17.3811C79.8338 17.4526 79.7489 17.5724 79.6451 17.6472C79.5343 17.7271 79.4564 17.8915 79.4564 18.0455C79.4564 18.1897 79.4139 18.3077 79.362 18.3077C79.3051 18.3077 79.2676 18.701 79.2676 19.2986C79.2676 19.8962 79.3051 20.2894 79.362 20.2894C79.4139 20.2894 79.4564 20.4168 79.4564 20.5725C79.4564 20.7282 79.4988 20.8556 79.5507 20.8556C79.6026 20.8556 79.6451 20.9193 79.6451 20.9971C79.6451 21.075 79.6876 21.1387 79.7395 21.1387C79.7914 21.1387 79.8338 21.1823 79.8338 21.2355C79.8338 21.388 80.6621 22.1767 80.8222 22.1767C80.9014 22.1767 80.9662 22.2191 80.9662 22.271C80.9662 22.3229 81.0511 22.3654 81.1549 22.3654C81.2587 22.3654 81.3436 22.4079 81.3436 22.4598C81.3436 22.5117 81.505 22.5541 81.7022 22.5541C81.8995 22.5541 82.1081 22.6014 82.1658 22.6591C82.2655 22.7588 82.5079 22.7464 83.3253 22.6C83.7157 22.5301 84.4577 22.1811 84.4577 22.0675C84.4577 22.0237 84.5214 21.9879 84.5992 21.9879C84.6771 21.9879 84.7408 21.9455 84.7408 21.8936C84.7408 21.8417 84.7862 21.7992 84.8418 21.7992C84.9734 21.7992 85.1326 21.6267 85.2993 21.3038C85.3729 21.1611 85.4685 21.0443 85.5116 21.0443C85.5547 21.0443 85.59 20.9594 85.59 20.8556C85.59 20.7518 85.6237 20.6668 85.6649 20.6668C85.7874 20.6668 85.9675 19.8529 85.9675 19.2986C85.9675 18.7443 85.7874 17.9303 85.6649 17.9303C85.6237 17.9303 85.59 17.8454 85.59 17.7416C85.59 17.6378 85.5504 17.5528 85.502 17.5528C85.4536 17.5528 85.3877 17.4701 85.3556 17.3689C85.2816 17.1355 84.794 16.6092 84.6518 16.6092C84.5926 16.6092 84.4529 16.5243 84.3416 16.4205C84.2301 16.3167 84.0833 16.2317 84.0152 16.2317C83.9471 16.2317 83.8915 16.1937 83.8915 16.1473C83.8915 15.9954 82.319 15.8213 82.0514 15.9435ZM75.21 22.4577C75.1321 22.5023 74.8774 22.6245 74.6438 22.7291C74.4103 22.8337 74.1104 23.0176 73.9773 23.1378C73.6711 23.4144 73.134 24.1984 73.134 24.3687C73.134 24.4399 73.0809 24.5511 73.016 24.616C72.8635 24.7685 72.8507 26.6822 73.0015 26.7803C73.0584 26.8174 73.131 26.9538 73.1628 27.0836C73.2798 27.5614 74.2274 28.5676 74.6975 28.7133C74.7977 28.7443 75.0496 28.8343 75.2572 28.9133C76.0567 29.2175 77.404 29.0172 78.1625 28.4813C78.5664 28.196 78.8902 27.8698 78.8902 27.7484C78.8902 27.6941 78.9326 27.6498 78.9845 27.6498C79.0364 27.6498 79.0789 27.5861 79.0789 27.5082C79.0789 27.4304 79.1214 27.3667 79.1733 27.3667C79.2252 27.3667 79.2676 27.2818 79.2676 27.178C79.2676 27.0742 79.3101 26.9892 79.362 26.9892C79.4139 26.9892 79.4564 26.8406 79.4564 26.6589C79.4564 26.4773 79.4988 26.3287 79.5507 26.3287C79.604 26.3287 79.6451 26.0613 79.6451 25.7153C79.6451 25.3693 79.604 25.1019 79.5507 25.1019C79.4988 25.1019 79.4564 24.983 79.4564 24.8376C79.4564 24.551 79.264 24.0658 79.1497 24.0647C79.1107 24.0643 79.0789 23.9991 79.0789 23.9199C79.0789 23.5791 77.8021 22.5541 77.3775 22.5541C77.2752 22.5541 77.1916 22.5117 77.1916 22.4598C77.1916 22.3435 75.4124 22.3416 75.21 22.4577ZM87.9491 22.479C87.8194 22.5344 87.5661 22.6439 87.3864 22.7225C86.6731 23.0339 86.0287 23.872 85.6968 24.9199C85.2497 26.3315 86.079 28.0315 87.5707 28.7611C88.0234 28.9825 88.2067 29.0156 88.9871 29.0167C89.778 29.0179 89.9448 28.9875 90.4033 28.7583C90.9837 28.4683 91.6723 27.8657 91.768 27.5642C91.8026 27.4556 91.865 27.3667 91.9069 27.3667C91.9488 27.3667 92.0793 27.0675 92.1969 26.7018C92.5749 25.5261 92.3142 24.3711 91.4488 23.3879C91.115 23.0087 90.7348 22.7688 89.9971 22.4716C89.667 22.3388 88.2655 22.3438 87.9491 22.479ZM81.5796 28.8154C80.871 29.0541 79.8338 29.8174 79.8338 30.1001C79.8338 30.1537 79.7914 30.1976 79.7395 30.1976C79.6876 30.1976 79.6451 30.2613 79.6451 30.3391C79.6451 30.417 79.6026 30.4807 79.5507 30.4807C79.4988 30.4807 79.4564 30.6081 79.4564 30.7638C79.4564 30.9195 79.4139 31.0469 79.362 31.0469C79.3051 31.0469 79.2676 31.4382 79.2676 32.0321C79.2676 32.5872 79.3089 33.0429 79.362 33.0757C79.4139 33.1078 79.4564 33.2164 79.4564 33.3172C79.4564 33.418 79.4988 33.5003 79.5507 33.5003C79.6026 33.5003 79.6451 33.5853 79.6451 33.6891C79.6451 33.7929 79.6876 33.8778 79.7395 33.8778C79.7914 33.8778 79.8338 33.9245 79.8338 33.9815C79.8338 34.1255 80.6846 34.9158 80.8396 34.9158C80.9093 34.9158 80.9662 34.9583 80.9662 35.0102C80.9662 35.0621 81.044 35.1045 81.1392 35.1045C81.2344 35.1045 81.3425 35.1349 81.3797 35.172C81.607 35.3993 83.0685 35.574 83.1837 35.3876C83.2158 35.3357 83.329 35.2933 83.4351 35.2933C83.9215 35.2933 85.4013 34.2373 85.4013 33.8902C85.4013 33.8315 85.4334 33.7834 85.4726 33.7834C85.5119 33.7834 85.5898 33.6666 85.646 33.5239C85.8891 32.9058 85.9675 32.5607 85.9675 32.1089C85.9675 31.5546 85.7835 30.6694 85.6682 30.6694C85.6252 30.6694 85.59 30.6062 85.59 30.5289C85.59 30.2162 84.7089 29.3332 84.081 29.0169C83.6643 28.807 83.4055 28.7492 82.7599 28.722C82.2494 28.7005 81.8195 28.7345 81.5796 28.8154ZM50.581 63.8855C50.581 63.9374 50.4536 63.9799 50.2979 63.9799C50.1422 63.9799 50.0148 64.0224 50.0148 64.0743C50.0148 64.1262 49.9299 64.1686 49.8261 64.1686C49.7223 64.1686 49.6373 64.2111 49.6373 64.263C49.6373 64.3149 49.5919 64.3574 49.5363 64.3574C49.3839 64.3574 49.2113 64.5597 48.9676 65.0239C48.6634 65.6033 48.589 67.4772 48.8386 68.2707C48.9288 68.5577 49.0364 68.7925 49.0778 68.7925C49.119 68.7925 49.1798 68.8774 49.2127 68.9812C49.2456 69.085 49.3334 69.1699 49.4078 69.1699C49.4821 69.1699 49.543 69.2124 49.543 69.2643C49.543 69.3162 49.6067 69.3587 49.6845 69.3587C49.7624 69.3587 49.8261 69.4011 49.8261 69.453C49.8261 69.5049 49.9085 69.5474 50.0092 69.5474C50.11 69.5474 50.2186 69.5898 50.2507 69.6417C50.287 69.7005 51.1953 69.7361 52.6626 69.7361C54.1687 69.7361 55.0161 69.7021 55.0161 69.6417C55.0161 69.5898 55.1192 69.5474 55.2453 69.5474C55.5729 69.5474 56.3372 68.7958 56.3372 68.4735C56.3372 68.3375 56.3797 68.2263 56.4316 68.2263C56.4835 68.2263 56.5259 68.1422 56.5259 68.0394C56.5259 67.7966 56.2772 67.7381 55.3924 67.7734C54.6988 67.8012 54.6833 67.8072 54.5443 68.1063L54.4027 68.411L52.7514 68.41C50.8301 68.4089 50.7697 68.3878 50.7697 67.7205V67.2826H53.513C55.7647 67.2826 56.2805 67.2585 56.3911 67.1478C56.5483 66.9907 56.584 65.7728 56.4316 65.7728C56.3797 65.7728 56.3372 65.6242 56.3372 65.4426C56.3372 65.2609 56.2947 65.1123 56.2428 65.1123C56.1909 65.1123 56.1485 65.0472 56.1485 64.9676C56.1485 64.7797 55.5374 64.1686 55.3495 64.1686C55.2699 64.1686 55.2048 64.1262 55.2048 64.0743C55.2048 64.0224 55.0587 63.9799 54.8801 63.9799C54.7015 63.9799 54.5292 63.9374 54.4971 63.8855C54.4613 63.8276 53.6941 63.7912 52.5099 63.7912C51.2868 63.7912 50.581 63.8257 50.581 63.8855ZM39.6977 63.9485C39.6631 63.983 39.6348 65.8302 39.6348 68.0533V72.0952H40.5784H41.522V70.6875C41.522 69.9132 41.5482 69.2117 41.5801 69.1285C41.6315 68.9944 41.6555 68.9973 41.7924 69.1546C41.8772 69.2522 42.1351 69.4229 42.3655 69.5341C42.7424 69.7159 42.9427 69.7361 44.3707 69.7361C45.3654 69.7361 45.9572 69.7009 45.9572 69.6417C45.9572 69.5898 46.0752 69.5474 46.2194 69.5474C46.3734 69.5474 46.5378 69.4694 46.6177 69.3587C46.6925 69.2549 46.8293 69.1699 46.9216 69.1699C47.0197 69.1699 47.0895 69.1001 47.0895 69.0021C47.0895 68.9097 47.1744 68.7729 47.2782 68.6981C47.389 68.6182 47.467 68.4538 47.467 68.2998C47.467 68.1556 47.5094 68.0376 47.5613 68.0376C47.6194 68.0376 47.6557 67.5676 47.6557 66.8164C47.6557 66.104 47.6164 65.571 47.5613 65.5369C47.5094 65.5048 47.467 65.3817 47.467 65.2633C47.467 64.9689 46.7508 64.2451 46.3057 64.0895C45.8087 63.9156 42.6187 63.8836 42.4516 64.0507C42.3867 64.1156 42.2453 64.1686 42.1374 64.1686C42.0294 64.1686 41.88 64.2536 41.8051 64.3574C41.6154 64.6206 41.522 64.5928 41.522 64.2731C41.522 64.1112 41.4613 63.9768 41.3728 63.9428C41.1703 63.8652 39.7763 63.8698 39.6977 63.9485ZM50.982 65.3505C50.8583 65.4827 50.7697 65.6969 50.7697 65.8638V66.1503H52.5909C54.5826 66.1503 54.725 66.1158 54.4997 65.688C54.2149 65.1473 54.0956 65.1118 52.5852 65.118C51.242 65.1236 51.1871 65.1316 50.982 65.3505ZM41.9467 65.5191C41.8429 65.6327 41.7049 65.8773 41.64 66.0626C41.4993 66.4646 41.4824 67.4714 41.6164 67.4714C41.6683 67.4714 41.7121 67.567 41.7138 67.6837C41.7181 67.995 41.9325 68.2263 42.2166 68.2263C42.3536 68.2263 42.4657 68.2688 42.4657 68.3207C42.4657 68.3783 42.9042 68.415 43.5925 68.415C44.2419 68.415 44.744 68.375 44.7776 68.3207C44.8097 68.2688 44.9107 68.2263 45.0021 68.2263C45.0934 68.2263 45.2607 68.1198 45.374 67.9896C45.5571 67.779 45.5794 67.6469 45.5767 66.7865C45.5722 65.3553 45.4938 65.2986 43.5286 65.3068C42.2196 65.3122 42.124 65.3251 41.9467 65.5191Z" fill="black"/>
</svg>
