<svg width="132" height="88" viewBox="0 0 132 88" fill="none" xmlns="http://www.w3.org/2000/svg">
<path fill-rule="evenodd" clip-rule="evenodd" d="M29.4248 43.9699C29.4248 64.1768 45.8239 80.5481 66.0307 80.5139C86.1652 80.4799 102.479 64.1661 102.513 44.0315C102.547 23.8247 86.1758 7.42578 65.969 7.42578C45.7862 7.42578 29.4248 23.7871 29.4248 43.9699ZM65.1484 31.6284C64.1999 32.1061 63.6458 33.4554 63.9479 34.5527C64.2585 35.6814 64.9783 36.1975 66.242 36.1975C67.5079 36.1975 68.2235 35.6823 68.5701 34.5215C68.7985 33.7568 68.7781 33.4611 68.4532 32.8308C67.8187 31.5994 66.3022 31.0476 65.1484 31.6284ZM54.5771 37.1443C54.1761 37.2501 53.3834 37.5764 52.8153 37.8692L51.7824 38.402V37.7778V37.1538L49.656 37.2243L47.5296 37.2948L47.4662 47.1089L47.4025 56.923H49.5926H51.7824V53.6386V50.3542L52.6663 50.9562C54.4379 52.1622 56.3356 52.2888 58.4552 51.3417C59.7833 50.7482 60.9495 49.5164 61.7126 47.9013C62.2509 46.7614 62.3454 46.2308 62.3415 44.3658C62.3377 42.4744 62.2487 42.0028 61.6988 40.9522C60.1597 38.0116 57.2297 36.445 54.5771 37.1443ZM75.6647 37.267C72.4963 38.0682 70.3959 40.5487 70.0885 43.8525C69.7925 47.0306 71.2712 49.7322 74.0606 51.1101C75.525 51.8333 75.9274 51.9233 77.6587 51.9133C79.2731 51.904 79.8376 51.7884 80.9445 51.2413C81.6797 50.8777 82.6449 50.246 83.0897 49.8371C83.9925 49.0071 84.0019 49.0422 82.4272 47.3527C81.4454 46.2994 81.1941 46.2452 80.5574 46.9509C78.8546 48.8391 75.6912 48.437 74.5658 46.1896C73.7114 44.4833 74.2521 42.4364 75.8412 41.3623C77.0451 40.5489 79.2872 40.6779 80.5346 41.6325C81.0097 41.9958 81.4874 42.2889 81.5965 42.2837C81.8133 42.2733 83.3098 40.3085 83.5203 39.7582C83.6782 39.3451 82.4362 38.3505 80.9312 37.6851C79.4842 37.0456 77.2436 36.8676 75.6647 37.267ZM64.1763 44.4877V51.8026H66.242H68.3076V44.4877V37.1729H66.242H64.1763V44.4877ZM53.4835 40.9812C52.2303 41.7688 51.9039 42.5095 51.9039 44.5662V46.4734L52.9273 47.4312C54.049 48.4809 54.9412 48.654 56.1086 48.0481C57.6642 47.241 58.3757 45.6593 58.0732 43.6809C57.9111 42.6219 57.714 42.2659 56.8654 41.5008C55.7293 40.4765 54.5701 40.2985 53.4835 40.9812Z" fill="#97BA44"/>
</svg>
