<svg width="132" height="88" viewBox="0 0 132 88" fill="none" xmlns="http://www.w3.org/2000/svg">
<mask id="mask0_2056_22265" style="mask-type:luminance" maskUnits="userSpaceOnUse" x="27" y="14" width="78" height="60">
<path d="M104.087 14.8281H27.9121V73.1749H104.087V14.8281Z" fill="white"/>
</mask>
<g mask="url(#mask0_2056_22265)">
<path d="M104.059 41.3128C104.004 39.0008 103.053 36.8006 101.406 35.1763C99.7597 33.5523 97.5469 32.6313 95.2344 32.6076C94.0149 32.676 92.837 33.0744 91.8263 33.7598C87.9007 28.6202 82.7021 24.5935 76.7445 22.0773C63.8513 16.8599 51.0437 20.2618 43.6612 31.67C42.1462 30.325 40.226 29.5236 38.2043 29.3926C35.5216 29.3561 32.9338 30.3844 31.008 32.2523C29.0821 34.1202 27.9752 36.6754 27.9297 39.358C27.6775 42.0288 28.4945 44.6907 30.2016 46.7603C31.9087 48.83 34.3667 50.1382 37.0368 50.3987C38.4914 50.474 39.9427 50.1966 41.2668 49.5896C44.5926 56.4525 51.9762 62.8026 60.4309 66.1283C74.8848 71.8142 90.5004 65.9554 95.0308 53.7656C95.3221 52.9604 95.5634 52.1379 95.753 51.3031C95.8248 51.2995 95.897 51.295 95.9696 51.2893C98.3381 50.9765 100.497 49.7679 102.001 47.9123C103.506 46.0565 104.242 43.6948 104.059 41.3128ZM42.3368 44.5992C41.734 45.0621 41.0377 45.3885 40.2962 45.5556C39.5547 45.7227 38.7858 45.7266 38.0427 45.5669C38.0074 45.5577 37.9719 45.5494 37.9369 45.5397C37.8745 45.5249 37.8136 45.5061 37.752 45.4891C36.7701 45.1768 35.8863 44.6146 35.1873 43.8575C34.4884 43.1005 33.9985 42.1747 33.7655 41.171C33.753 41.1152 33.7363 41.0611 33.7253 41.0047C33.7125 40.9405 33.7062 40.8742 33.6955 40.8095C33.6736 40.675 33.6503 40.541 33.6371 40.4035L33.6348 40.357C33.6191 40.1792 33.6097 39.9997 33.6092 39.8176C33.6144 38.31 34.1937 36.8609 35.2294 35.7653C36.265 34.6695 37.6791 34.0095 39.1841 33.9194C40.1476 33.9384 41.0889 34.2117 41.9128 34.7113C42.7368 35.211 43.4141 35.9196 43.8762 36.7651C42.3918 39.0883 41.8418 41.8872 42.3368 44.5992ZM87.0094 48.8977L86.9806 48.9081C87.8138 51.7163 87.5255 54.7384 86.1762 57.3386C83.3772 63.3086 74.0642 67.6293 63.9317 64.2355C53.9038 60.8768 49.3111 52.7282 51.3764 44.634C51.7629 43.0149 52.5381 41.5144 53.6347 40.2621C51.7895 33.6449 55.2185 27.3379 59.9373 25.6625C66.0427 23.4949 73.2965 28.0677 74.5587 36.205C75.3119 35.0193 76.3339 34.0279 77.542 33.3112C78.7501 32.5945 80.1101 32.1728 81.5117 32.0802C82.9133 31.9875 84.3171 32.2266 85.609 32.7781C86.9008 33.3296 88.0444 34.1778 88.947 35.2541C89.814 36.2363 90.4576 37.3946 90.8334 38.6496C91.2094 39.9044 91.3086 41.2258 91.1245 42.5228C90.9402 43.8198 90.477 45.0612 89.7665 46.1619C89.0561 47.2625 88.1154 48.1959 87.0094 48.8977ZM96.1459 47.7859C96.3098 43.8677 95.4235 39.977 93.5788 36.5164C96.5657 35.8627 99.4185 38.3522 99.6446 41.8987C99.7978 43.1292 99.5371 44.3757 98.9036 45.4416C98.2701 46.5074 97.2999 47.3322 96.1459 47.7859Z" fill="#EF632F"/>
<path d="M60.9361 35.2875C60.7732 35.2891 60.6114 35.258 60.4606 35.1964C60.3098 35.1347 60.1727 35.0434 60.0576 34.9282C59.9424 34.8128 59.8513 34.6757 59.7899 34.5248C59.7283 34.3739 59.6975 34.2121 59.6993 34.0491C59.7163 33.7723 59.8187 33.5076 59.9923 33.2912C60.1659 33.075 60.4022 32.9178 60.6688 32.8413C61.252 32.6634 61.8604 32.582 62.47 32.6001C64.1536 32.6941 65.7661 33.3113 67.0821 34.3655C68.3983 35.4198 69.3528 36.8583 69.8123 38.4809C69.8521 38.617 69.8763 38.7574 69.8842 38.8992C69.887 39.0627 69.8568 39.2249 69.7956 39.3766C69.7341 39.5282 69.6429 39.6658 69.5273 39.7813C69.4116 39.8969 69.2738 39.988 69.1223 40.0492C68.9706 40.1105 68.8082 40.1405 68.6448 40.1376C68.4153 40.1397 68.1899 40.0778 67.9935 39.9591C67.7972 39.8405 67.6375 39.6697 67.5325 39.4656C66.9703 38.1943 66.0432 37.1185 64.869 36.3747C63.6946 35.6309 62.3257 35.2525 60.9361 35.2875Z" fill="#EF632F"/>
<path d="M81.096 57.5443C79.2944 59.5322 76.9729 60.9767 74.3938 61.7152C68.5555 63.2675 59.8385 60.4793 56.3424 54.1729C55.5917 52.6823 55.1805 51.0439 55.1383 49.3755C55.0964 47.7071 55.4244 46.05 56.0991 44.5234C56.0991 44.5234 56.9404 50.8165 65.6651 55.6824C74.3899 60.5484 81.096 57.5443 81.096 57.5443Z" fill="#EF632F"/>
<path d="M85.8465 38.7263C84.9431 38.198 83.9175 37.914 82.871 37.9023C81.5129 37.9057 80.2009 38.3949 79.1721 39.2814C78.1434 40.1678 77.4656 41.3931 77.2616 42.7357C77.2176 43.0109 77.2817 43.2925 77.4402 43.5216C77.5988 43.7508 77.8397 43.9098 78.1128 43.9657C78.3361 43.9597 78.5544 43.8975 78.7473 43.7845C78.94 43.6717 79.1013 43.5119 79.2159 43.3202C79.8225 42.3023 80.6967 41.4706 81.7434 40.9153L81.7531 40.9142C81.751 40.9579 81.74 40.9993 81.74 41.0435C81.74 41.7604 82.0248 42.4479 82.5317 42.9549C83.0387 43.4618 83.7262 43.7466 84.4431 43.7466C85.1599 43.7466 85.8475 43.4618 86.3544 42.9549C86.8612 42.4479 87.146 41.7604 87.146 41.0435C87.1366 40.5803 87.0131 40.1265 86.7864 39.7223C86.5598 39.3181 86.2369 38.9761 85.8465 38.7263ZM84.989 42.2231C84.7706 42.2229 84.5572 42.1581 84.3757 42.0365C84.1941 41.9151 84.0528 41.7425 83.9693 41.5408C83.8859 41.339 83.8642 41.1169 83.9068 40.9028C83.9496 40.6886 84.0548 40.4918 84.2092 40.3375C84.3637 40.1832 84.5606 40.078 84.7747 40.0356C84.989 39.9929 85.211 40.0148 85.4128 40.0985C85.6144 40.1821 85.7868 40.3236 85.9082 40.5053C86.0295 40.6868 86.0943 40.9002 86.0943 41.1187C86.0941 41.4117 85.9776 41.6926 85.7703 41.8997C85.5632 42.1069 85.282 42.2232 84.989 42.2231Z" fill="#EF632F"/>
</g>
</svg>
