<svg width="132" height="88" viewBox="0 0 132 88" fill="none" xmlns="http://www.w3.org/2000/svg">
<path d="M43.1758 69.3425H88.8258V77H43.1758V69.3425Z" fill="#1B1B1D"/>
<path fill-rule="evenodd" clip-rule="evenodd" d="M65.8182 47.4641C73.4826 47.4641 79.6958 41.2604 79.6958 33.6077C79.6958 25.9551 73.4826 19.7514 65.8182 19.7514C58.1538 19.7514 51.9406 25.9551 51.9406 33.6077C51.9406 41.2604 58.1538 47.4641 65.8182 47.4641ZM65.8182 56.2155C78.3232 56.2155 88.4606 46.0936 88.4606 33.6077C88.4606 21.1218 78.3232 11 65.8182 11C53.3131 11 43.1758 21.1218 43.1758 33.6077C43.1758 46.0936 53.3131 56.2155 65.8182 56.2155Z" fill="#1B1B1D"/>
</svg>
