<svg width="132" height="88" viewBox="0 0 132 88" fill="none" xmlns="http://www.w3.org/2000/svg">
<path fill-rule="evenodd" clip-rule="evenodd" d="M65.9992 76.1742C83.7689 76.1742 98.1742 61.7689 98.1742 43.9992C98.1742 26.2295 83.7689 11.8242 65.9992 11.8242C48.2295 11.8242 33.8242 26.2295 33.8242 43.9992C33.8242 54.6948 39.0426 64.171 47.0723 70.0216V43.9992C47.0723 33.5465 55.5465 25.0729 65.9992 25.0729C76.452 25.0729 84.9253 33.5465 84.9253 43.9992C84.9253 54.452 76.452 62.9255 65.9992 62.9255C62.9354 62.9255 60.0419 62.1979 57.4819 60.9057V75.0349C60.1945 75.7779 63.0512 76.1742 65.9992 76.1742Z" fill="url(#paint0_linear_2056_26279)"/>
<defs>
<linearGradient id="paint0_linear_2056_26279" x1="65.9992" y1="11.8242" x2="65.9992" y2="76.1742" gradientUnits="userSpaceOnUse">
<stop stop-color="#9A67FF"/>
<stop offset="1" stop-color="#A238F9"/>
</linearGradient>
</defs>
</svg>
