<svg width="132" height="88" viewBox="0 0 132 88" fill="none" xmlns="http://www.w3.org/2000/svg">
<path fill-rule="evenodd" clip-rule="evenodd" d="M57.2649 19.4016C46.5115 19.4016 37.7942 28.1189 37.7942 38.8722C37.7942 49.6256 46.5115 58.3429 57.2649 58.3429C68.0182 58.3429 76.7355 49.6256 76.7355 38.8722C76.7355 28.1189 68.0182 19.4016 57.2649 19.4016ZM37.7942 56.9711C42.648 62.1904 49.5752 65.4555 57.2649 65.4555C71.9464 65.4555 83.8481 53.5538 83.8481 38.8722C83.8481 24.1907 71.9464 12.289 57.2649 12.289C42.5834 12.289 30.6816 24.1907 30.6816 38.8722V79.1143C30.6816 81.0784 32.2738 82.6706 34.2379 82.6706C36.202 82.6706 37.7942 81.0784 37.7942 79.1143V56.9711Z" fill="#D9D9D9"/>
<path d="M101.318 15.8453C101.318 21.6516 96.6114 26.3586 90.8051 26.3586C84.9988 26.3586 80.2918 21.6516 80.2918 15.8453C80.2918 10.039 84.9988 5.33203 90.8051 5.33203C96.6114 5.33203 101.318 10.039 101.318 15.8453Z" fill="#ABC228"/>
</svg>
