<svg width="132" height="88" viewBox="0 0 132 88" fill="none" xmlns="http://www.w3.org/2000/svg">
<path d="M41.3184 31.8584L42.122 30.3129L41.2295 28.8172C39.3583 25.68 38.2079 22.1459 37.895 18.467C37.7741 17.0357 38.9895 15.7714 40.5268 15.8996C44.3528 16.2186 48.0214 17.4141 51.2567 19.3576L52.6859 20.2165L54.1954 19.5064C57.8226 17.7998 61.8827 16.8426 66.1785 16.8426C70.3426 16.8426 74.2847 17.7417 77.825 19.3504L79.2974 20.0193L80.6927 19.2036C83.8643 17.351 87.4396 16.2102 91.1639 15.8996C92.7011 15.7714 93.9164 17.0357 93.7946 18.467C93.4998 21.9396 92.458 25.2834 90.7679 28.2861L89.9173 29.7986L90.752 31.3202C92.8959 35.2304 94.1144 39.7091 94.1144 44.4781C94.1144 59.7118 81.6363 72.1126 66.1785 72.1126C50.7219 72.1126 38.2429 59.7118 38.2429 44.4781C38.2429 39.9261 39.3533 35.6388 41.3184 31.8584Z" stroke="#FF3377" stroke-width="3.86749"/>
</svg>
