<svg width="132" height="88" viewBox="0 0 132 88" fill="none" xmlns="http://www.w3.org/2000/svg">
<path d="M66.0004 78.0984C84.8333 78.0984 100.1 62.8313 100.1 43.9984C100.1 25.1655 84.8333 9.89844 66.0004 9.89844C47.1675 9.89844 31.9004 25.1655 31.9004 43.9984C31.9004 62.8313 47.1675 78.0984 66.0004 78.0984Z" fill="#232323"/>
<path fill-rule="evenodd" clip-rule="evenodd" d="M66.1423 22.4297L76.9677 38.2368C79.3999 41.6696 81.2196 44.6914 81.2196 48.7882C81.2196 57.193 74.4062 64.0064 66.0014 64.0064C57.5966 64.0064 50.7832 57.193 50.7832 48.7882C50.7832 46.2451 51.407 43.8477 52.51 41.7406L52.4975 41.7409L52.5474 41.6696C52.9543 40.902 57.486 34.4887 66.1423 22.4297Z" fill="white"/>
</svg>
