<svg width="132" height="88" viewBox="0 0 132 88" fill="none" xmlns="http://www.w3.org/2000/svg">
<path fill-rule="evenodd" clip-rule="evenodd" d="M62.3214 5.44812C58.3999 5.8966 53.5023 7.4726 48.1541 10.0072C42.0684 12.8906 37.5763 16.6754 34.2686 21.7051C31.7056 25.6019 31.5151 25.9869 30.0952 30.1446C28.9972 33.3587 28.8567 34.5198 28.6689 41.9382C28.5025 48.4977 28.6157 50.9321 29.2273 53.9387C30.7386 61.3689 33.9149 66.9735 39.6282 72.2895C43.3883 75.7881 47.0224 77.8697 53.565 80.2724C64.1023 84.142 71.7998 83.5938 83.2255 78.1609C94.9341 72.5931 101.447 63.9588 103.1 51.8123C103.871 46.1412 103.077 34.705 101.59 30.0857C99.3793 23.2136 94.4503 16.6206 88.5278 12.6138C87.0438 11.6095 83.6984 9.88078 81.0936 8.77228C73.8535 5.69093 68.4949 4.74189 62.3214 5.44812ZM62.5219 6.35232C60.5714 6.51631 58.8323 6.80533 58.6573 6.99468C58.4822 7.18404 59.0296 7.20805 59.8735 7.04768C60.7174 6.88732 63.684 6.73964 66.4661 6.72016C69.2482 6.70068 71.3197 6.61461 71.0696 6.52945C69.9948 6.16342 65.8041 6.07689 62.5219 6.35232ZM53.3095 9.03683C48.5901 10.5277 42.1816 15.4056 39.0285 19.9067C38.2719 20.9862 38.9935 20.4784 41.3318 18.2854C45.1687 14.6867 50.1973 11.3947 54.518 9.65201C56.1193 9.00603 57.5152 8.39583 57.6193 8.29617C58.0826 7.85313 55.832 8.23954 53.3095 9.03683ZM58.5663 9.19629C49.1889 12.0004 40.5966 18.4811 35.523 26.5768C32.0294 32.151 31.5633 34.1886 31.5602 43.9024C31.5574 51.787 31.6293 52.4986 32.7755 55.9247C35.9672 65.4668 45.7916 74.5061 57.2023 78.3992C62.9279 80.3526 68.8759 80.508 73.7976 78.8332C82.6086 75.8352 89.299 70.9627 94.7027 63.6081C97.959 59.1759 99.4212 55.4957 100.282 49.565C101.589 40.5683 99.9918 32.267 95.7347 25.9253C90.1828 17.6553 81.6106 11.5632 71.9935 9.05314C67.3255 7.83501 62.9629 7.88167 58.5663 9.19629ZM75.3257 9.02143C81.3332 11.1746 85.7735 13.8804 90.0519 17.9959C91.7401 19.6195 93.1209 20.714 93.1209 20.4277C93.1209 19.5226 86.6242 13.4024 83.5606 11.4215C80.7144 9.58135 76.4228 8.09775 74.0431 8.13127C73.227 8.14305 73.603 8.40398 75.3257 9.02143ZM41.4377 15.0346C37.5349 18.039 33.8217 22.9677 31.7388 27.9072C30.624 30.5501 28.7958 38.4007 29.2004 38.8043C29.2673 38.8704 29.8465 37.3374 30.4881 35.3977C33.0192 27.7432 36.8484 20.882 41.2063 16.1921C42.5558 14.7397 43.587 13.556 43.4978 13.5624C43.4083 13.5687 42.4812 14.231 41.4377 15.0346ZM91.4668 16.7221C95.4319 21.6508 97.2342 24.9151 101.221 34.3893C102.042 36.3399 101.802 34.4029 100.806 31.0407C99.2938 25.9389 96.9569 21.9706 93.2063 18.1373C91.3345 16.2242 90.5584 15.5927 91.4668 16.7221ZM91.8705 27.9226C91.8705 28.6823 92.0997 28.8952 92.8021 28.7888C94.1457 28.5845 94.2102 26.7734 92.8708 26.8544C92.1583 26.8975 91.8705 27.2046 91.8705 27.9226ZM86.3009 28.5002C86.3009 28.7494 86.5055 28.9532 86.7556 28.9532C87.0056 28.9532 87.2102 28.7494 87.2102 28.5002C87.2102 28.2511 87.0056 28.0472 86.7556 28.0472C86.5055 28.0472 86.3009 28.2511 86.3009 28.5002ZM86.9911 31.2051C86.8101 31.4968 87.0397 32.0087 87.5058 32.353C88.3201 32.9546 88.3182 32.9954 87.4385 33.6445C86.2813 34.4985 86.9415 35.2273 88.1759 34.4595C88.8734 34.0255 89.2539 34.0115 89.7268 34.4024C90.071 34.6874 90.5975 34.7698 90.8966 34.5854C91.2868 34.3453 91.1995 34.0758 90.5866 33.6296C89.8536 33.095 89.8164 32.8758 90.3219 32.069C91.0881 30.8468 90.6284 30.4124 89.5745 31.3628C88.8243 32.0391 88.6861 32.0418 88.0341 31.3922C87.5153 30.8749 87.228 30.8237 86.9911 31.2051ZM51.2917 36.9673C50.6665 37.0824 49.4121 37.7624 48.5042 38.479C46.7273 39.8806 46.2904 39.8186 46.2904 38.1642C46.2904 37.5268 46.0199 37.1073 45.6084 37.1073C45.0201 37.1073 44.9264 38.6965 44.9264 48.692C44.9264 59.4817 44.981 60.2663 45.7221 60.1232C46.3913 59.9941 46.5318 59.3947 46.6059 56.3528C46.6546 54.3637 46.7055 52.5892 46.7196 52.4099C46.7337 52.2305 47.4898 52.5874 48.4 53.2026C51.7691 55.4808 56.915 54.0475 59.001 50.2504C61.1325 46.3699 60.2068 40.046 57.2023 37.9631C55.9752 37.1123 53.1213 36.6317 51.2917 36.9673ZM63.8527 42.8528C65.0003 46.046 66.3488 49.8422 66.8494 51.2887C67.5919 53.4323 67.9283 53.893 68.6699 53.7802C69.5906 53.6402 69.9934 52.7935 72.8301 45.0349C75.2662 38.3717 74.8201 38.6276 76.3828 42.9964C77.1403 45.1142 78.2592 48.2739 78.8689 50.018C80.2043 53.8377 80.999 54.8348 81.9243 53.8522C82.268 53.4875 82.9641 51.9659 83.472 50.471C83.9794 48.9761 85.2329 45.4331 86.2572 42.5973C87.2816 39.7619 88.1196 37.3664 88.1196 37.2745C88.1196 37.1825 87.7554 37.1073 87.3098 37.1073C86.671 37.1073 85.9772 38.6317 84.0194 44.3382C82.6545 48.3156 81.4073 51.4241 81.2473 51.2465C81.0872 51.0694 79.8569 47.8164 78.5134 44.0184C76.3974 38.036 75.9414 37.1128 75.1011 37.11C74.5674 37.1087 74.024 37.4638 73.8935 37.9001C73.0847 40.6041 69.3223 50.9865 69.0432 51.2859C68.8581 51.4853 67.5923 48.4275 66.2306 44.4909C64.1237 38.3988 63.6072 37.3125 62.7606 37.1902C61.8063 37.0525 61.8504 37.2808 63.8527 42.8528ZM50.3856 38.735C47.0688 40.1678 46.7451 40.8125 46.7451 45.9794C46.7451 50.6019 46.7496 50.6209 48.1441 51.7897C49.2421 52.7106 50.0332 52.9625 51.8246 52.9625C56.398 52.9625 58.8764 49.8277 58.4531 44.5774C58.1681 41.0385 56.9623 39.1472 54.5685 38.4849C52.4429 37.8965 52.307 37.9046 50.3856 38.735ZM101.377 39.8254C101.377 40.4482 101.48 40.7033 101.606 40.3916C101.732 40.0804 101.732 39.5708 101.606 39.2591C101.48 38.9479 101.377 39.2025 101.377 39.8254ZM29.8138 40.9579C29.3414 43.5042 29.3878 45.7502 29.967 48.4415C30.2412 49.7167 30.5126 50.6948 30.5699 50.6155C30.6267 50.5362 30.5558 47.9228 30.4117 44.8084C30.2112 40.4686 30.0711 39.569 29.8138 40.9579ZM101.896 43.4494C101.896 44.8197 101.981 45.3806 102.085 44.6952C102.189 44.0098 102.189 42.889 102.085 42.2036C101.981 41.5182 101.896 42.0791 101.896 43.4494ZM29.4901 51.0078C29.4041 53.0844 31.1782 58.8385 33.096 62.7021C34.8951 66.3266 36.0213 67.9112 38.7302 70.6297C43.9439 75.8615 46.0621 76.7313 41.2377 71.6594C37.8841 68.1337 36.9211 66.7398 34.5332 61.951C32.9996 58.876 31.2423 55.035 30.6285 53.4155C30.0148 51.796 29.5023 50.7124 29.4901 51.0078ZM101.226 52.9625C98.991 60.3402 95.2687 67.0161 90.6302 71.9661C88.2391 74.5179 88.1305 74.7045 89.7736 73.4406C95.1205 69.3264 99.4366 62.7977 101.313 55.9845C102.463 51.8046 102.387 49.1305 101.226 52.9625ZM38.1064 66.9694C38.1064 67.2834 39.9992 69.4139 42.3121 71.7043C47.0151 76.3607 51.3513 78.9714 56.0516 79.9775C61.2634 81.0923 61.8454 80.5021 56.975 79.0398C51.4777 77.3895 45.6311 73.799 40.9576 69.2032C39.3895 67.6607 38.1064 66.656 38.1064 66.9694ZM91.0576 69.3051C87.3521 73.0823 80.9386 77.0656 75.0334 79.2577C72.64 80.1465 73.6735 80.2579 76.8161 79.4507C81.014 78.372 84.5814 76.3109 88.4005 72.757C91.2958 70.063 93.9938 67.0057 93.476 67.0057C93.3868 67.0057 92.2988 68.0404 91.0576 69.3051ZM61.5217 81.5019C62.2719 81.6921 64.3178 81.8475 66.0683 81.8475C67.8188 81.8475 69.8648 81.6921 70.615 81.5019C71.4474 81.2908 69.6752 81.1562 66.0683 81.1562C62.4615 81.1562 60.6892 81.2908 61.5217 81.5019Z" fill="#3A8386"/>
</svg>
