<svg width="132" height="88" viewBox="0 0 132 88" fill="none" xmlns="http://www.w3.org/2000/svg">
<path d="M54.5501 20.4058L65.371 4.26478C65.659 3.83517 66.2422 3.72214 66.6701 4.01298L84.0818 15.8467C84.507 16.1357 84.6176 16.7141 84.3291 17.1394L66.0131 43.8925L54.5501 20.4058Z" fill="#7577B7"/>
<path d="M77.5479 67.5973L66.727 83.7383C66.439 84.168 65.8559 84.281 65.4279 83.9902L48.0163 72.1564C47.5911 71.8674 47.4804 71.289 47.769 70.8637L66.0131 43.8925L77.5479 67.5973Z" fill="#FEB516"/>
<path d="M92.5227 46.0063L101.105 63.4386C101.333 63.9026 101.14 64.4636 100.674 64.6884L81.7092 73.8354C81.246 74.0588 80.6893 73.8653 80.4649 73.403L66.0131 43.8925L92.5227 46.0063Z" fill="#B9D53C"/>
<path d="M39.8861 42.3073L31.304 24.875C31.0756 24.411 31.2692 23.85 31.7353 23.6252L50.6997 14.4782C51.1628 14.2548 51.7195 14.4483 51.9439 14.9106L66.0131 43.8925L39.8861 42.3073Z" fill="#F159A1"/>
<path d="M80.7131 22.1001L100.116 23.3914C100.633 23.4257 101.022 23.8737 100.984 24.3894L99.4311 45.3701C99.3932 45.8825 98.9471 46.2674 98.4342 46.2304L66.0131 43.8925L80.7131 22.1001Z" fill="#83CBF1"/>
<path d="M51.0742 65.903L31.6712 64.6118C31.1548 64.5774 30.7652 64.1294 30.8034 63.6137L32.3562 42.633C32.3941 42.1207 32.8401 41.7357 33.3531 41.7727L66.0131 43.8925L51.0742 65.903Z" fill="#F14F22"/>
</svg>
