<svg width="132" height="88" viewBox="0 0 132 88" fill="none" xmlns="http://www.w3.org/2000/svg">
<path d="M29.8943 42.9062C30.0361 24.1855 30.3197 23.2738 36.4789 20.8425C39.2546 19.7484 58.8667 20.3563 61.2575 21.6124C66.1808 24.2057 67.7003 27.2853 67.7003 34.7007C67.7003 42.5213 66.2618 45.1754 60.6091 47.8295C58.4413 48.8628 58.1171 48.8831 48.9594 49.0249C42.7316 49.1051 40.6206 49.1324 39.9051 48.1468C39.5382 47.6413 39.5382 46.8695 39.5382 45.7022C39.5382 44.4925 39.5382 43.7077 39.9112 43.1933C40.6002 42.2429 42.5621 42.2152 48.149 42.1363C60.0013 41.9337 61.1764 41.2449 60.9333 34.4171C60.7104 27.8121 59.5961 27.2043 47.6222 27.2043C42.3552 27.2043 39.6919 26.7936 38.3588 27.9356C36.6868 29.368 37.107 33.2427 37.107 43.433C37.107 54.1932 37.107 57.2204 35.7458 58.072C35.213 58.4055 34.4715 58.4055 33.4398 58.4055C32.4146 58.4055 31.6745 58.4055 31.1431 58.0724C29.7634 57.2073 29.7919 54.0961 29.8943 42.9062Z" fill="black"/>
<path d="M70.6055 52.2274C70.6055 33.7498 71.0512 32.2305 76.9875 30.4475C79.4188 29.7182 94.9788 30.0016 96.7617 30.8121C101.199 32.8178 102.313 35.8367 102.131 45.278C101.928 56.867 100.024 58.6096 87.6243 58.6096C82.9255 58.6096 81.172 58.6096 80.5176 57.7613C80.1279 57.2564 80.1279 56.4507 80.1279 55.1651C80.1279 53.836 80.1279 53.0197 80.5238 52.5127C81.1539 51.7058 82.7864 51.6819 87.0164 51.6196C91.5826 51.5459 93.6465 51.6309 94.5756 50.6455C95.4355 49.7335 95.3232 47.9045 95.3232 44.184C95.3232 40.5693 95.4399 38.7504 94.5871 37.8377C93.6281 36.8117 91.4437 36.9309 86.4897 36.9309C82.2086 36.9309 79.941 36.5843 78.7488 37.5566C77.1314 38.8757 77.494 42.6226 77.494 52.9569C77.494 63.6684 77.494 66.6116 76.1801 67.4204C75.6824 67.7266 74.9961 67.7266 74.0497 67.7266C73.1252 67.7266 72.449 67.7266 71.9541 67.4269C70.6055 66.6101 70.6055 63.5666 70.6055 52.2274Z" fill="black"/>
</svg>
