<svg width="132" height="88" viewBox="0 0 132 88" fill="none" xmlns="http://www.w3.org/2000/svg">
<path d="M30.25 44C30.25 59.2623 39.8161 72.2932 53.279 77.4203C52.9513 74.6288 52.6027 70.026 53.3534 66.7966C53.9999 64.02 57.5273 49.1063 57.5273 49.1063C57.5273 49.1063 56.4637 46.9762 56.4637 43.8213C56.4637 38.8758 59.3296 35.1817 62.9017 35.1817C65.9404 35.1817 67.4062 37.4607 67.4062 40.1926C67.4062 43.2463 65.4608 47.8104 64.4568 52.0438C63.6196 55.586 66.2354 58.4758 69.7269 58.4758C76.0517 58.4758 80.9167 51.8054 80.9167 42.1768C80.9167 33.6534 74.7915 27.698 66.0477 27.698C55.9245 27.698 49.981 35.2919 49.981 43.142C49.981 46.2016 51.1578 49.4787 52.6295 51.2632C52.755 51.398 52.8436 51.5628 52.8869 51.7418C52.9302 51.9207 52.9267 52.1078 52.8768 52.2851C52.6057 53.4112 52.0039 55.8273 51.8877 56.3218C51.7298 56.9713 51.3723 57.1113 50.696 56.7955C46.2511 54.728 43.4745 48.2304 43.4745 43.0109C43.4745 31.7824 51.6285 21.4745 66.9861 21.4745C79.3318 21.4745 88.9277 30.272 88.9277 42.0278C88.9277 54.293 81.1967 64.166 70.4598 64.166C66.852 64.166 63.4647 62.2891 62.3029 60.0756C62.3029 60.0756 60.5183 66.874 60.0864 68.5364C59.2462 71.7658 56.9165 75.8533 55.4716 78.174C58.8023 79.1989 62.3356 79.75 66 79.75C85.7429 79.75 101.75 63.7429 101.75 44C101.75 24.2571 85.7429 8.25 66 8.25C46.2571 8.25 30.25 24.2571 30.25 44Z" fill="#E60023"/>
</svg>
