<svg width="132" height="88" viewBox="0 0 132 88" fill="none" xmlns="http://www.w3.org/2000/svg">
<circle cx="65.9992" cy="43.9992" r="36.3" fill="#017737"/>
<path fill-rule="evenodd" clip-rule="evenodd" d="M80.8484 39.1378C80.8484 46.8668 75.8481 52.153 68.6983 52.153C65.2992 52.153 62.4979 50.7561 61.4492 49.0106L61.4988 50.8055V61.875H54.2001V33.2534C54.2001 32.8552 54.1008 32.754 53.6498 32.754H51.1484V26.6716H57.2495C60.0485 26.6716 60.7499 29.065 60.9484 30.1132C62.0491 28.2687 64.9474 26.125 69.0478 26.125C76.0983 26.1227 80.8484 31.3571 80.8484 39.1378ZM73.3985 39.1874C73.3985 35.0485 70.6988 32.2074 67.2976 32.2074C64.4985 32.2074 61.3476 34.052 61.3476 39.239C61.3476 42.6289 63.2468 46.1696 67.1983 46.1696C70.0988 46.1673 73.3985 44.0731 73.3985 39.1874Z" fill="white"/>
</svg>
