<svg width="132" height="88" viewBox="0 0 132 88" fill="none" xmlns="http://www.w3.org/2000/svg">
<path fill-rule="evenodd" clip-rule="evenodd" d="M11.7422 43.2574V64.1982H62.7827H120.259V43.2574V23.8008H62.7827H11.7422V43.2574ZM19.4386 44.4913V58.065L22.1243 58.0642C23.6013 58.0638 24.8681 58.0479 24.9392 58.0289L25.0684 57.9943V51.8884C25.0684 46.4994 25.0785 45.7827 25.1546 45.7827C25.202 45.7827 25.2408 45.744 25.2408 45.6966C25.2408 45.6208 25.7642 45.6105 29.6068 45.6105C33.3352 45.6105 33.9728 45.5986 33.9728 45.5292C33.9728 45.4845 34.0051 45.4371 34.0446 45.424C34.1014 45.405 34.1196 43.9081 34.1316 38.2499C34.1454 31.7842 34.1382 31.091 34.0558 31.0087C33.9735 30.9265 33.2573 30.9176 26.7016 30.9176H19.4386V44.4913ZM37.5345 32.6108V34.3039H40.3495H43.1644V32.6462V30.9884L43.0351 30.9538C42.9641 30.9348 41.6973 30.9188 40.2202 30.9184L37.5345 30.9176V32.6108ZM46.5921 30.9559C46.5444 31.0036 46.5424 45.3037 46.59 45.4814L46.6246 45.6105H51.0414C54.8137 45.6105 55.4582 45.6224 55.4582 45.6918C55.4582 45.7366 55.485 45.7821 55.5179 45.793C55.5586 45.8066 55.578 47.1927 55.5786 50.132C55.5794 53.8259 55.5675 54.463 55.4964 54.534C55.4255 54.6048 54.7655 54.6195 51.0457 54.6336C48.6436 54.6427 46.6567 54.6715 46.6304 54.6978C46.6041 54.7241 46.5749 55.4762 46.5657 56.3693L46.5488 57.9929L46.6806 58.0282C46.8512 58.0739 60.9606 58.0745 61.1311 58.0289L61.2604 57.9943V50.1953C61.2604 43.3013 61.2504 42.3964 61.1742 42.3964C61.1268 42.3964 61.088 42.3577 61.088 42.3104C61.088 42.2346 60.5678 42.2243 56.7507 42.2243C52.9337 42.2243 52.4134 42.2139 52.4134 42.1382C52.4134 42.0908 52.3747 42.0521 52.3273 42.0521C52.2518 42.0521 52.2402 41.6645 52.2336 38.9385C52.2294 37.2259 52.2185 35.5327 52.2093 35.1756C52.1959 34.6559 52.2089 34.5202 52.2743 34.4951C52.3192 34.4779 52.356 34.4278 52.356 34.3838C52.356 34.3162 53.0409 34.3039 56.8082 34.3039H61.2604V32.6462V30.9884L61.1311 30.9538C60.9533 30.9062 46.6398 30.9083 46.5921 30.9559ZM64.6498 44.4601V58.0024L64.8365 58.0364C65.1212 58.0883 70.2059 58.0432 70.2605 57.9883C70.3175 57.9311 70.3147 58.1292 70.3272 53.1435C70.3359 49.6532 70.3476 49.1689 70.4232 49.1689C70.4706 49.1689 70.5094 49.1302 70.5094 49.0829C70.5094 49.0085 70.7137 48.9968 72.003 48.9968C73.2583 48.9968 73.4967 49.0098 73.4967 49.0787C73.4967 49.1237 73.5351 49.1689 73.5821 49.1791C73.6567 49.1953 73.6695 49.755 73.6826 53.5692C73.691 55.9735 73.7193 57.9622 73.7456 57.9885C73.8003 58.0432 78.8857 58.0881 79.1696 58.0364L79.3563 58.0024V53.5857C79.3563 49.6979 79.346 49.1689 79.2701 49.1689C79.2228 49.1689 79.184 49.1302 79.184 49.0829C79.184 49.0085 78.9765 48.9968 77.6616 48.9968C76.3467 48.9968 76.1393 48.9851 76.1393 48.9107C76.1393 48.8633 76.1005 48.8246 76.0531 48.8246C75.9773 48.8246 75.9669 48.3048 75.9669 44.4913C75.9669 40.6778 75.9773 40.1581 76.0531 40.1581C76.1005 40.1581 76.1393 40.1193 76.1393 40.072C76.1393 39.9976 76.3467 39.9859 77.6616 39.9859C79.1457 39.9859 79.184 39.983 79.184 39.8711C79.184 39.8073 79.2223 39.7563 79.2701 39.7563C79.346 39.7563 79.3563 39.2309 79.3563 35.3724V30.9884L79.2271 30.9538C79.156 30.9348 77.892 30.9188 76.4183 30.9184L73.7389 30.9176L73.7019 31.0651C73.6815 31.1462 73.668 33.132 73.672 35.4779C73.6787 39.5168 73.6736 39.7497 73.5751 39.8646C73.4743 39.9822 73.4264 39.9859 72.003 39.9859C70.5914 39.9859 70.5311 39.9814 70.4335 39.8676C70.3385 39.7567 70.3324 39.4774 70.3356 35.4246C70.3387 31.5465 70.3297 31.0906 70.2478 31.0088C70.1669 30.928 69.8425 30.9176 67.4032 30.9176H64.6498V44.4601ZM82.7457 44.4559V57.9943L82.875 58.0289C83.0439 58.0741 97.1541 58.0741 97.323 58.0289L97.4523 57.9943V56.3939C97.4523 55.0643 97.4387 54.7936 97.3723 54.7936C97.3283 54.7936 97.2772 54.7544 97.2587 54.7064C97.2292 54.6295 96.722 54.6197 92.9466 54.6229C88.7376 54.6264 88.666 54.6245 88.5526 54.5112C88.4391 54.3978 88.4371 54.314 88.4208 48.9702C88.4077 44.6589 88.4191 43.5443 88.4761 43.5443C88.5156 43.5443 88.5479 43.5056 88.5479 43.4582C88.5479 43.3829 88.8826 43.3721 91.2151 43.3721C93.5633 43.3721 93.8931 43.3614 93.9726 43.282C94.0501 43.2046 94.0629 42.9785 94.0629 41.6877C94.0629 40.2517 94.0577 40.1791 93.9474 40.0847C93.8417 39.9944 93.6089 39.9859 91.2314 39.9859C88.7235 39.9859 88.6275 39.9819 88.5349 39.8739C88.4489 39.7735 88.4369 39.4898 88.4201 37.1409C88.405 35.0537 88.4161 34.5143 88.4746 34.4919C88.5149 34.4765 88.5479 34.4278 88.5479 34.3838C88.5479 34.3162 89.2329 34.3039 93.0001 34.3039H97.4523V32.6462V30.9884L97.323 30.9538C97.252 30.9348 93.9429 30.9188 89.9697 30.9184L82.7457 30.9176V44.4559ZM100.842 44.4559V57.9943L100.971 58.0289C101.042 58.0479 104.351 58.0638 108.324 58.0642L115.548 58.065V56.3422V54.6193L111.156 54.6228C106.794 54.6263 106.763 54.6255 106.645 54.508L106.527 54.3896L106.528 42.7444C106.53 32.2038 106.521 31.0905 106.439 31.0084C106.359 30.9282 106.028 30.9176 103.595 30.9176H100.842V44.4559ZM25.2408 34.39C25.2408 34.4373 25.202 34.4761 25.1546 34.4761C25.0789 34.4761 25.0684 34.9352 25.0684 38.2641C25.0684 41.5929 25.0789 42.0521 25.1546 42.0521C25.202 42.0521 25.2408 42.0908 25.2408 42.1382C25.2408 42.2136 25.6365 42.2243 28.4578 42.2243C31.2791 42.2243 31.6749 42.2136 31.6749 42.1382C31.6749 42.0908 31.7137 42.0521 31.7611 42.0521C31.8368 42.0521 31.8472 41.5873 31.8472 38.2134V34.3747L31.718 34.34C31.6469 34.3211 30.1604 34.3051 28.4148 34.3047C25.6314 34.304 25.2408 34.3145 25.2408 34.39ZM37.6351 37.7297C37.5398 37.7546 37.5345 38.2861 37.5345 47.8751V57.9943L37.6638 58.0289C37.8325 58.074 42.8664 58.074 43.0351 58.0289L43.1644 57.9943V47.9283C43.1644 39.019 43.1545 37.8623 43.0782 37.8623C43.0308 37.8623 42.9921 37.8236 42.9921 37.7762C42.9921 37.7009 42.6647 37.6909 40.3638 37.6968C38.9183 37.7005 37.6903 37.7153 37.6351 37.7297Z" fill="black"/>
</svg>
