<svg width="132" height="88" viewBox="0 0 132 88" fill="none" xmlns="http://www.w3.org/2000/svg">
<path fill-rule="evenodd" clip-rule="evenodd" d="M12 43.8071C12 53.0616 12.0862 53.6062 13.554 53.6062C14.8119 53.6062 15.1079 53.0616 15.1079 50.7482C15.1079 48.131 15.2998 47.8901 17.3883 47.8901C20.8692 47.8901 23.5785 46.5092 24.5661 44.2318C25.0563 43.1 25.9266 42.1739 26.4992 42.1739C27.2692 42.1739 27.5396 43.6577 27.5396 47.8901C27.5396 53.0616 27.6872 53.6062 29.0935 53.6062C30.5255 53.6062 30.6475 53.0616 30.6475 46.6652V39.7242H28.0532C26.0563 39.7242 25.2591 39.2652 24.5948 37.7325C23.6384 35.5277 19.7154 34.0203 14.9137 34.0129L12 34.008V43.8071ZM27.0136 35.3154C26.4697 36.8049 28.0485 38.1482 29.6056 37.5194C30.179 37.2891 30.6475 36.4039 30.6475 35.5538C30.6475 33.6242 27.7012 33.4315 27.0136 35.3154ZM57.0647 44.2154C57.0647 53.0616 57.1549 53.6062 58.6187 53.6062C59.9776 53.6062 60.1727 53.0616 60.1727 49.2709C60.1727 44.4106 61.4764 41.8473 63.7203 42.2981C65 42.5545 65.2572 43.4152 65.453 48.1024C65.6713 53.3359 65.7762 53.6062 67.5897 53.6062C69.4327 53.6062 69.4964 53.4143 69.4964 47.8901C69.4964 43.2625 69.2004 41.8628 67.9424 40.5408C66.0528 38.5548 63.5043 38.4421 61.5938 40.259C60.2387 41.5476 60.1727 41.4529 60.1727 38.2176C60.1727 35.3693 59.9233 34.8246 58.6187 34.8246C57.1549 34.8246 57.0647 35.3693 57.0647 44.2154ZM71.0504 35.6094C71.0504 36.1034 71.968 40.3546 73.0884 45.0565L75.1272 53.6062H78.0144H80.9024L81.897 47.7578C82.9816 41.3778 83.4704 41.5607 84.9676 48.9108L85.9241 53.6062H88.83H91.7359L93.6938 44.2154L95.6511 34.8246H93.8399C92.8438 34.8246 92.0288 34.9692 92.0288 35.1455C92.0288 36.0642 89.5378 48.4748 89.1431 49.5233C88.889 50.197 87.9364 47.441 87.0258 43.3988C85.4921 36.5942 85.2178 36.0307 83.3251 35.798C81.4098 35.562 81.2218 35.8462 80.3648 40.2893C78.0004 52.5373 78.2102 52.4687 75.8428 41.7657C74.6299 36.2839 74.128 35.1913 72.724 34.9716C71.8033 34.8287 71.0504 35.1153 71.0504 35.6094ZM108.345 36.0495C108.345 36.7232 108.695 37.2744 109.122 37.2744C109.588 37.2744 109.899 40.5408 109.899 45.4403V53.6062H111.842H113.784V44.2154V34.8246H111.065C109.166 34.8246 108.345 35.1937 108.345 36.0495ZM114.561 36.0495C114.561 36.7232 115.086 37.2744 115.727 37.2744C116.685 37.2744 116.892 38.7263 116.892 45.4403C116.892 53.0616 116.995 53.6062 118.446 53.6062C119.91 53.6062 120 53.0616 120 44.2154V34.8246H117.281C115.382 34.8246 114.561 35.1937 114.561 36.0495ZM33.7554 37.6827C33.7554 38.8055 33.4058 39.7242 32.9784 39.7242C32.5511 39.7242 32.2014 40.2754 32.2014 40.9491C32.2014 41.6227 32.5076 42.1739 32.8821 42.1739C33.2566 42.1739 33.7204 44.173 33.9131 46.6154C34.3405 52.0237 35.4694 53.6062 38.9005 53.6062C41.0069 53.6062 41.5252 53.2837 41.5252 51.973C41.5252 50.7751 41.0069 50.3399 39.5827 50.3399C37.77 50.3399 37.6403 50.0679 37.6403 46.2569C37.6403 42.4459 37.77 42.1739 39.5827 42.1739C40.7917 42.1739 41.5252 41.7109 41.5252 40.9491C41.5252 40.1872 40.7917 39.7242 39.5827 39.7242C38.0288 39.7242 37.6403 39.3159 37.6403 37.6827C37.6403 36.0495 37.2518 35.6412 35.6978 35.6412C34.1439 35.6412 33.7554 36.0495 33.7554 37.6827ZM15.414 38.4307C15.1817 39.066 15.1056 40.6281 15.2439 41.9012C15.4412 43.7075 15.9439 44.2701 17.5352 44.4637C19.4908 44.7021 22.1007 42.8934 22.1007 41.2994C22.1007 39.9202 19.02 37.2744 17.4148 37.2744C16.5461 37.2744 15.6464 37.7946 15.414 38.4307ZM45.7986 39.894C43.3332 41.3802 42.3534 43.1816 42.327 46.279C42.2788 51.8571 46.4877 55.2533 51.3555 53.5654C53.5979 52.788 55.5108 50.7637 55.5108 49.1689C55.5108 48.1783 52.2273 48.7745 51.0875 49.9724C49.4729 51.6693 47.6377 51.1777 46.337 48.701C44.7932 45.7596 46.2073 42.1739 48.9119 42.1739C50.0043 42.1739 51.0991 42.7251 51.3446 43.3988C51.8466 44.7732 55.5108 45.0998 55.5108 43.7704C55.5108 43.3008 54.6522 42.0147 53.6033 40.9123C51.5451 38.7483 48.3836 38.336 45.7986 39.894ZM97.4676 40.5408C97.4676 41.8947 97.9859 42.1739 100.492 42.1739C102.464 42.1739 103.673 42.6002 103.965 43.3988C104.305 44.3322 103.812 44.6237 101.889 44.6237C98.4295 44.6237 95.9137 46.6374 95.9137 49.4065C95.9137 50.6387 96.3332 52.0874 96.846 52.6263C98.0519 53.8937 103.099 53.8937 104.305 52.6263C105.03 51.8644 105.237 51.8644 105.237 52.6263C105.237 53.1653 105.762 53.6062 106.403 53.6062C107.325 53.6062 107.566 52.4548 107.557 48.0942C107.55 45.063 107.281 42.1462 106.958 41.6129C106.151 40.2786 102.496 38.9076 99.7481 38.9076C97.9859 38.9076 97.4676 39.2783 97.4676 40.5408ZM99.3168 48.2592C98.6828 49.9961 99.6385 51.1565 101.704 51.1565C103.346 51.1565 104.46 49.8091 104.46 47.8231C104.46 46.5754 99.7869 46.9714 99.3168 48.2592Z" fill="#7B77F8"/>
</svg>
