<svg width="132" height="88" viewBox="0 0 132 88" fill="none" xmlns="http://www.w3.org/2000/svg">
<path fill-rule="evenodd" clip-rule="evenodd" d="M42.6258 7.42578C35.3356 7.42578 29.4258 13.3356 29.4258 20.6258V67.3758C29.4258 74.6659 35.3356 80.5758 42.6258 80.5758H89.3758C96.6659 80.5758 102.576 74.6659 102.576 67.3758V20.6258C102.576 13.3356 96.6659 7.42578 89.3758 7.42578H42.6258ZM66.4125 38.9721C65.6821 32.0885 59.1816 26.4754 52.258 26.6317C51.5448 26.6317 50.8237 26.6832 50.1184 26.7864C43.6336 27.6583 38.2649 33.5121 38.0768 40.0535C38.0536 45.4634 38.0572 50.8738 38.0609 56.2845C38.0631 59.6512 38.0654 63.0179 38.0611 66.3847H43.6994V55.0084H47.2624C48.0467 54.9899 48.8394 54.9992 49.6343 55.0086C52.5345 55.0428 55.464 55.0774 58.1251 53.7614C63.7164 51.3064 67.2903 45.0229 66.4125 38.9721ZM60.7538 42.3007C60.1425 46.3214 56.3272 49.4843 52.258 49.3843L43.6994 49.3859V44.7947C43.7225 44.1515 43.7111 43.4973 43.6997 42.8406C43.6629 40.7323 43.6257 38.5982 44.7277 36.7203C46.5962 33.1215 51.1952 31.3431 55.0168 32.6964C58.9747 33.9091 61.5642 38.2564 60.7538 42.3007ZM78.9542 44.34H78.7504L70.8236 54.8787H63.9109L74.6843 40.2895L65.1304 26.5098H72.0431L78.752 36.2359H78.9526L85.6615 26.5082H92.5742L83.0187 40.2848L93.7937 54.8802H86.881L78.9542 44.34Z" fill="#0DAA6C"/>
</svg>
