<svg width="132" height="88" viewBox="0 0 132 88" fill="none" xmlns="http://www.w3.org/2000/svg">
<path fill-rule="evenodd" clip-rule="evenodd" d="M84.3555 43.9472V45.6402V53.4009V57.6249L71.1375 49.5792L65.0726 52.1773L50.5703 67.2463L62.0045 71.2692L90.7058 60.6253L101.533 36.6055L84.3555 43.9472Z" fill="#FF5886"/>
<path fill-rule="evenodd" clip-rule="evenodd" d="M56.3322 55.9176L46.7354 65.891L50.5705 67.2487L65.0728 52.1797L56.3322 55.9176Z" fill="#FF5886"/>
<path opacity="0.39" fill-rule="evenodd" clip-rule="evenodd" d="M53.7102 27.3359L47.9128 32.8339L46.2539 34.4262L53.7102 27.3359Z" fill="#070707"/>
<path fill-rule="evenodd" clip-rule="evenodd" d="M71.1377 49.5812L84.3557 57.6269V53.4029L76.9529 47.1172L71.1377 49.5812Z" fill="#FF5886"/>
<path fill-rule="evenodd" clip-rule="evenodd" d="M66.25 15.4023L68.9971 18.0004L81.4658 29.8009L92.8286 18.0004L95.3259 15.4023H66.25Z" fill="#433AF6"/>
<path fill-rule="evenodd" clip-rule="evenodd" d="M53.7099 27.3359L46.2536 34.4262L32.7324 47.2994V80.4378L35.3724 77.6888L46.7353 65.8884L56.3321 55.915L65.6435 46.2434L70.2636 41.4327L56.5462 29.7497L53.7099 27.3359Z" fill="#433AF6"/>
<g opacity="0.39">
<path fill-rule="evenodd" clip-rule="evenodd" d="M46.7344 65.8871L50.5695 67.2448L65.0718 52.1758L56.3312 55.9137L46.7344 65.8871Z" fill="#070707"/>
<path fill-rule="evenodd" clip-rule="evenodd" d="M76.9519 47.1133L71.1367 49.5773L84.3547 57.623V53.399L76.9519 47.1133Z" fill="#070707"/>
<path fill-rule="evenodd" clip-rule="evenodd" d="M53.7092 27.3359L46.2529 34.4262L49.5351 36.4209L65.6428 46.2434L70.2629 41.4327L56.5455 29.7497L53.7092 27.3359Z" fill="#070707"/>
</g>
<path fill-rule="evenodd" clip-rule="evenodd" d="M84.1592 32.3495L81.4656 29.8017L68.9969 18.0013L66.2498 15.4032L57.973 7.55859H30.4668L53.7097 27.3377L56.546 29.7514L70.2634 41.4345L73.0996 43.8314L76.9526 47.1168L84.3554 53.4025V45.6417V43.9488V32.5171L84.1592 32.3495Z" fill="#DADAF6"/>
</svg>
