<svg width="132" height="88" viewBox="0 0 132 88" fill="none" xmlns="http://www.w3.org/2000/svg">
<path d="M107.271 52.5005C104.768 67.5071 88.7894 77.5139 65.9971 77.5139C43.2048 77.5139 27.2289 67.5071 24.7278 52.5005C24.1366 48.9607 25.1011 33.0661 27.2504 29.9882C33.3751 21.2188 35.5651 54.7958 65.9971 54.7958C99.1385 54.7958 98.643 21.2212 104.768 29.9882C106.917 33.0661 107.86 48.9607 107.271 52.5005Z" fill="#FFAC33"/>
<path d="M65.997 10.4883C43.6642 10.4883 25.5605 21.4596 25.5605 34.9943C25.5605 48.5289 43.6642 59.5027 65.997 59.5027C88.3274 59.5027 106.433 48.5289 106.433 34.9943C106.433 21.4596 88.3274 10.4883 65.997 10.4883ZM65.997 42.4976C58.4003 42.4976 52.2397 40.8174 52.2397 38.7447C52.2397 36.672 58.4003 34.9943 65.997 34.9943C73.5912 34.9943 79.7518 36.672 79.7518 38.7447C79.7542 40.8174 73.5936 42.4976 65.997 42.4976Z" fill="#8A4B38"/>
<path d="M26.8125 31.1366C25.2496 33.6377 24.6106 44.2859 27.959 49.2714C33.0665 56.8824 35.5676 53.0218 39.3204 54.1707C44.909 55.882 45.3231 60.2978 49.7413 62.5069C54.7435 65.008 57.6538 64.2804 64.7479 62.5069C74.7547 60.0058 81.1115 65.1109 87.2578 62.5069C92.3007 60.3696 95.1847 52.6054 97.9946 51.6696C106.917 48.697 108.801 34.619 102.161 28.8438C100.079 33.2213 89.8642 48.9579 83.2991 49.6902C76.7316 50.4202 57.034 52.0836 48.6978 47.8138C40.3592 43.5416 31.92 38.2259 30.8765 36.7659C29.833 35.3035 26.8125 31.1366 26.8125 31.1366Z" fill="#8A4B38"/>
<path d="M65.9966 29.3633C57.0166 29.3633 49.7383 32.3024 49.7383 35.9284C49.7383 37.3381 50.8464 38.6401 52.7181 39.7099C52.4165 39.4012 52.2394 39.0781 52.2394 38.743C52.2394 36.6703 58.4 34.9925 65.9966 34.9925C73.5909 34.9925 79.7515 36.6703 79.7515 38.743C79.7515 39.0781 79.5768 39.3988 79.2728 39.7099C81.1444 38.6401 82.255 37.3381 82.255 35.9284C82.2574 32.3024 74.9767 29.3633 65.9966 29.3633Z" fill="#F4900C"/>
<path d="M33.2742 39.5817C32.3767 39.5817 31.5103 39.0959 31.0603 38.2486C30.4141 37.028 30.8808 35.5129 32.1039 34.8691L37.6278 31.9492C38.8461 31.2982 40.3611 31.7697 41.0073 32.9927C41.6535 34.2133 41.1868 35.7284 39.9638 36.3722L34.4398 39.2921C34.0665 39.4884 33.6668 39.5817 33.2742 39.5817ZM61.7245 58.2359C60.7433 58.2359 59.8122 57.6567 59.4125 56.6897L57.6414 52.4151C57.1125 51.1394 57.718 49.6771 58.9937 49.1481C60.2718 48.6216 61.7317 49.2247 62.2607 50.5028L64.0318 54.7774C64.5607 56.0531 63.9552 57.5178 62.6771 58.0444C62.3684 58.176 62.0429 58.2359 61.7245 58.2359Z" fill="#F4ABBA"/>
<path d="M90.0722 48.2287C89.639 48.2287 89.201 48.1162 88.8037 47.8792C87.6142 47.178 87.2193 45.6414 87.923 44.4543L90.6323 39.8685C91.3336 38.6814 92.8773 38.2865 94.0572 38.9878C95.2468 39.6914 95.6417 41.2256 94.938 42.4151L92.2287 46.9985C91.762 47.7883 90.9291 48.2287 90.0722 48.2287Z" fill="#55ACEE"/>
<path d="M94.2415 29.6478C92.9012 29.6478 91.793 28.4966 91.7452 27.1444C91.6949 25.7658 92.7767 24.5619 94.1553 24.5116L97.0705 24.3872C98.4754 24.3704 99.6123 25.4067 99.6577 26.7877C99.708 28.1687 98.6262 29.4109 97.2476 29.4588L94.3324 29.6478H94.2415ZM70.0658 19.7775C69.0031 19.7775 68.0194 19.0954 67.6796 18.0303C67.2631 16.7139 67.9931 15.309 69.3095 14.8902L71.2864 14.2655C72.6171 13.849 74.0101 14.579 74.4265 15.8978C74.8454 17.2141 74.113 18.6191 72.7966 19.0379L70.8197 19.6626C70.5684 19.7416 70.3147 19.7775 70.0658 19.7775Z" fill="#F4ABBA"/>
<path d="M56.1982 23.8397C55.8224 23.8397 55.4419 23.7535 55.0829 23.5764L53.2065 22.6382C51.9715 22.0207 51.4688 20.5176 52.0863 19.2826C52.7038 18.0476 54.2069 17.545 55.4419 18.1625L57.3183 19.1007C58.5533 19.7182 59.0559 21.2213 58.4384 22.4563C57.998 23.3323 57.1149 23.8397 56.1982 23.8397ZM77.9829 55.624C77.6095 55.624 77.229 55.5402 76.87 55.3631L74.9935 54.4273C73.7562 53.8098 73.2535 52.3091 73.8686 51.0741C74.4837 49.8367 75.9844 49.3341 77.2218 49.9492L79.0982 50.885C80.3356 51.5025 80.8382 53.0032 80.2231 54.2382C79.7875 55.1166 78.8996 55.624 77.9829 55.624Z" fill="#88C9F9"/>
<path d="M45.2557 50.1046C44.9255 50.1046 44.5928 50.0424 44.2697 49.9011C43.0012 49.3555 42.4124 47.8859 42.9581 46.6174L43.8963 44.4298C44.442 43.1637 45.9139 42.5654 47.1824 43.1183C48.4509 43.6616 49.0397 45.1335 48.494 46.402L47.5558 48.5896C47.1489 49.535 46.2275 50.1046 45.2557 50.1046ZM82.5736 26.4459C81.6091 26.4459 80.69 25.8858 80.2807 24.9452C79.7254 23.6791 80.3046 22.2048 81.5684 21.6519L83.2342 20.9219C84.5027 20.3666 85.977 20.9458 86.5275 22.2095C87.0804 23.4757 86.5035 24.95 85.2398 25.5053L83.574 26.2352C83.2461 26.3788 82.9063 26.4459 82.5736 26.4459ZM41.9265 26.3429C41.7398 26.3429 41.5508 26.3214 41.3641 26.2783L40.0094 25.9672C38.6643 25.656 37.8219 24.3133 38.133 22.9683C38.4417 21.6208 39.7868 20.7831 41.1319 21.0918L42.4866 21.403C43.8317 21.7141 44.6741 23.0568 44.363 24.4019C44.0949 25.5579 43.0634 26.3429 41.9265 26.3429Z" fill="#55ACEE"/>
</svg>
