<svg width="132" height="88" viewBox="0 0 132 88" fill="none" xmlns="http://www.w3.org/2000/svg">
<path d="M47.1722 22.0112H40.8463V44.0013V66.0667H47.1722V72.3927H53.4981V78.6433H78.6512V72.3927H84.9771V66.0667H91.303V44.0013V22.0112H84.9771V40.8384H78.6512V34.8437H72.3253V31.4549V28.4274H59.7488V31.4549V34.8437H56.631H53.4605V40.8384H47.1722V22.0112H53.4605V28.4274H59.7488V22.0112H53.4605V15.6853H47.1722V22.0112ZM53.4981 53.4901H59.8241V59.7182H53.4981V53.4901H47.1722V47.2622H53.4981V53.4901ZM72.4759 53.4901H69.2376H65.9994V47.2622H72.4759V53.4901Z" fill="#151515"/>
<path d="M78.6512 22.0112H72.3253V28.4274H78.6512V22.0112H84.9771V15.6853H78.6512V22.0112Z" fill="#151515"/>
<path d="M31.3574 22.0112H47.1722V15.6853H31.3574V22.0112Z" fill="#EC1515"/>
<path d="M53.4605 22.0112H66.0747H78.6512V15.6853H53.4605V22.0112Z" fill="#EC1515"/>
<path d="M84.9771 22.0112H100.641V15.6853H84.9771V22.0112Z" fill="#EC1515"/>
<path d="M31.3574 59.7182H40.8463V53.4901H31.3574V59.7182Z" fill="#EC6B15"/>
<path d="M91.303 59.7182H100.641V53.4901H91.303V59.7182Z" fill="#EC6B15"/>
<path d="M84.9771 31.4247C84.9771 36.1842 84.9621 37.4795 84.9771 34.8437C85.0073 32.2079 85.0073 31.003 84.9771 28.4274C84.9621 25.8368 84.9771 27.102 84.9771 31.4247Z" fill="#404040"/>
<path d="M59.7488 31.3795V34.8437H56.5557C58.9806 34.8587 59.6885 34.9943 59.7488 34.8437C59.7789 34.7383 59.7789 32.9308 59.7488 31.2741V28.4274V31.3795Z" fill="#404040"/>
<path d="M72.3253 31.5V34.8437V28.4274V31.5Z" fill="#404040"/>
<path d="M48.7236 72.3927C49.6122 72.4228 51.0581 72.4228 51.9618 72.3927C52.8505 72.3776 52.1125 72.3927 50.3352 72.3927C48.5579 72.3927 47.8199 72.3776 48.7236 72.3927Z" fill="#404040"/>
<path d="M80.2024 72.3927C81.0911 72.4228 84.1337 72.4228 84.9771 72.3927C85.8206 72.3776 83.4859 72.3927 81.7387 72.3927C80.0066 72.3927 79.3138 72.3776 80.2024 72.3927Z" fill="#404040"/>
<path d="M31.3574 53.4901H40.8463V47.2622H31.3574V53.4901Z" fill="#6B4040"/>
<path d="M91.303 53.4901H100.641V47.2622H91.303V53.4901Z" fill="#6B4040"/>
<path d="M31.3574 15.6853H100.641V9.35938H31.3574V15.6853Z" fill="#40C140"/>
<path d="M31.3574 40.8384H40.8463V34.8437H31.3574V40.8384Z" fill="#ECEC40"/>
<path d="M91.303 40.8384H100.641V34.8437H91.303V40.8384Z" fill="#ECEC40"/>
<path d="M47.1722 40.8384H53.4605V34.8437H59.7488V28.4274H53.4605V22.0112H47.1722V40.8384Z" fill="#6B6B6B"/>
<path d="M78.6512 28.4274H72.3253V34.8437H78.6512V40.8384H84.9771V22.0112H78.6512V28.4274Z" fill="#6B6B6B"/>
<path d="M48.7236 47.2622C49.6122 47.2923 51.0581 47.2923 51.9618 47.2622C52.8505 47.2471 52.1125 47.2622 50.3352 47.2622C48.5579 47.2622 47.8199 47.2471 48.7236 47.2622Z" fill="#6B6B6B"/>
<path d="M66.0746 47.2622C66.0294 47.3676 66.0143 48.8964 66.0445 50.5532L66.0746 53.4901L66.1198 50.4327L66.1499 47.2622H72.3252L72.4156 53.4901L72.4005 50.4025V47.2622H69.2677C66.8126 47.2321 66.1198 47.0965 66.0746 47.2622Z" fill="#6B6B6B"/>
<path d="M59.7036 56.5325L59.6734 59.7182H56.5557C58.9806 59.7332 59.7036 59.8688 59.7638 59.7182C59.7939 59.6127 59.809 58.0839 59.7789 56.4271L59.7488 53.4901L59.7036 56.5325Z" fill="#6B6B6B"/>
<path d="M31.3574 66.0667H40.8463V59.7182H31.3574V66.0667Z" fill="#159696"/>
<path d="M91.303 66.0667H100.641V59.7182H91.303V66.0667Z" fill="#159696"/>
<path d="M31.3574 78.6433H53.4981V72.3927H31.3574V78.6433Z" fill="#969696"/>
<path d="M78.6512 78.6433H100.641V72.3927H78.6512V78.6433Z" fill="#969696"/>
<path d="M31.3574 34.8437H40.8463V28.4274H31.3574V34.8437Z" fill="#9615C1"/>
<path d="M91.303 34.8437H100.641V28.4274H91.303V34.8437Z" fill="#9615C1"/>
<path d="M31.3574 72.3927H47.1722V66.0667H31.3574V72.3927Z" fill="#4040C1"/>
<path d="M84.9771 72.3927H100.641V66.0667H84.9771V72.3927Z" fill="#4040C1"/>
<path d="M31.3574 47.2622H40.8463V44.0013V40.8384H31.3574V47.2622Z" fill="#1596EC"/>
<path d="M91.303 44.0013V47.2622H100.641V40.8384H91.303V44.0013Z" fill="#1596EC"/>
<path d="M31.3574 28.4274H40.8463V22.0112H31.3574V28.4274Z" fill="#6B96EC"/>
<path d="M59.7488 28.4274H72.3253V22.0112H66.0747H59.7488V28.4274Z" fill="#6B96EC"/>
<path d="M91.303 28.4274H100.641V22.0112H91.303V28.4274Z" fill="#6B96EC"/>
<path d="M47.1722 53.4901H53.4981V59.7182H59.6734V53.4901H53.4981V47.2622H47.1722V53.4901Z" fill="#ECECEC"/>
<path d="M66.15 53.4901H69.2376H72.3253L72.3252 47.2622H66.1499L66.15 53.4901Z" fill="#ECECEC"/>
</svg>
