<svg width="132" height="88" viewBox="0 0 132 88" fill="none" xmlns="http://www.w3.org/2000/svg">
<path fill-rule="evenodd" clip-rule="evenodd" d="M33.8184 38.4518C33.8184 25.8995 33.8184 19.6233 37.7187 15.7237C41.619 11.8242 47.8964 11.8242 60.4512 11.8242H71.5484C84.1032 11.8242 90.3807 11.8242 94.281 15.7237C98.1812 19.6233 98.1812 25.8995 98.1812 38.4518V49.5467C98.1812 62.099 98.1812 68.3752 94.281 72.2747C90.3807 76.1742 84.1032 76.1742 71.5484 76.1742H60.4512C47.8964 76.1742 41.619 76.1742 37.7187 72.2747C33.8184 68.3752 33.8184 62.099 33.8184 49.5467V38.4518ZM85.2784 40.276L74.6436 29.6434L64.0087 40.276L74.6436 50.9088L85.2784 40.276ZM52.1574 29.6444H60.4267V61.2061H52.1574V29.6444Z" fill="#5F58B7"/>
</svg>
