<svg width="132" height="88" viewBox="0 0 132 88" fill="none" xmlns="http://www.w3.org/2000/svg">
<path d="M55.0647 50.3473C52.5932 50.2632 50.122 49.9695 47.6505 49.5074C42.0374 48.4156 36.7176 46.2322 31.9004 43.1251V43.9228C31.9004 60.9287 44.4671 74.9534 60.8035 77.2209C58.4997 70.0406 56.824 62.6925 55.7349 55.26C55.5254 53.7065 55.2742 52.0689 55.0647 50.3473Z" fill="#0EF275"/>
<path d="M66.4637 10.4492C51.0069 10.4492 38.0215 20.9047 34.1259 35.1814C34.4191 35.5592 35.9271 36.3991 36.1784 36.5669C36.8905 37.029 37.6445 37.4908 38.3985 37.9526C39.9065 38.8344 41.4564 39.5902 43.0481 40.262C46.1899 41.5637 49.4571 42.4455 52.85 42.8654C53.7297 43.0335 54.6514 43.0754 55.531 43.0754C55.531 42.7395 55.4889 42.4036 55.4889 42.0677C55.4472 40.4301 55.531 38.7503 55.6984 37.1127C55.7823 36.441 55.824 35.811 55.9499 35.1392C55.9917 35.0133 55.9917 34.8452 56.0335 34.7193V34.5934C57.0808 28.9666 60.013 23.9701 65.4585 21.5345C71.0717 19.0572 77.4806 20.0649 80.9991 25.3556C83.8057 30.1424 83.6801 36.1051 80.6641 40.766C76.9778 46.5187 70.4851 49.2899 63.6575 50.2138C64.0761 53.9927 64.6627 57.6459 65.4585 61.551C66.1707 64.8681 66.9665 68.1433 67.93 71.4185C67.9718 71.5866 68.0138 71.7544 68.0974 71.9225C68.6419 73.8119 69.2703 75.7017 69.8987 77.5492C86.8636 75.8695 100.1 61.5089 100.1 44.0831C100.017 25.5236 84.9787 10.4492 66.4637 10.4492Z" fill="#0EF275"/>
<path d="M73.3069 38.5368C74.354 37.361 75.0241 35.8912 75.2336 34.3377C75.2757 34.0018 75.3174 33.6659 75.3174 33.3719C75.3592 32.3642 75.108 31.3984 74.6473 30.5166C74.2284 29.7189 73.6 29.089 72.8042 28.7531C69.453 27.1155 65.4735 30.6007 64.0493 33.4978C64.0493 33.4978 64.0493 33.54 64.0076 33.54C61.9968 37.361 62.5413 43.4915 62.5413 43.4915C65.4317 43.0715 68.1965 42.0638 70.7516 40.594C71.6733 40.0482 72.5529 39.3764 73.3069 38.5368Z" fill="#0EF275"/>
</svg>
