<svg width="132" height="88" viewBox="0 0 132 88" fill="none" xmlns="http://www.w3.org/2000/svg">
<path d="M18.0834 53.2665C22.1972 53.2665 25.5631 49.9134 25.5631 44.0453C25.5631 38.4566 22.5245 34.824 18.2704 34.824C14.437 34.824 10.7907 37.5252 10.7907 44.0919C10.7907 48.6559 13.2683 53.2665 18.0834 53.2665ZM5.97562 36.454C5.97562 35.7089 5.55489 35.3363 4.85367 35.3363H2.75V31.0983H7.42482C9.71548 31.0983 10.6037 32.0763 10.6037 33.7063C10.6037 34.4514 10.5569 35.1035 10.5569 35.1035H10.6504C10.6504 35.1035 12.8009 30.5394 19.2521 30.5394C26.2176 30.5394 30.6587 36.0349 30.6587 44.0453C30.6587 52.242 25.6566 57.5512 18.8781 57.5512C13.1281 57.5512 10.9309 53.4063 10.9309 53.4063H10.8374C10.8374 53.4063 10.9309 54.3377 10.9309 55.6417V67.0984H5.97562V36.454Z" fill="black"/>
<path d="M37.25 20.8984H41.691V26.0679H37.25V20.8984ZM37.1097 36.4535C37.1097 35.7083 36.689 35.3358 35.9878 35.3358H33.8841V31.0977H38.7459C41.0366 31.0977 42.0183 32.0757 42.0183 34.3578V51.5428C42.0183 52.288 42.439 52.6606 43.1402 52.6606H45.2439V56.8986H40.3821C38.0914 56.8986 37.1097 55.9206 37.1097 53.6386V36.4535Z" fill="black"/>
<path d="M56.0897 43.626L51.1344 36.2676C50.5734 35.4293 50.0124 35.2896 48.9372 35.2896H47.488V31.0515H50.6669C53.051 31.0515 53.799 31.5172 55.1547 33.6595L58.3336 38.6427C58.7076 39.2948 59.175 40.2728 59.175 40.2728H59.2685C59.2685 40.2728 59.736 39.2948 60.1568 38.6427L63.2889 33.6595C64.5978 31.4707 65.3925 31.0515 67.7767 31.0515H71.0023V35.2896H69.5064C68.4779 35.2896 67.8235 35.4293 67.3092 36.221L62.3539 43.626L71.0958 56.899H65.5328L60.0633 48.4694C59.6893 47.864 59.3153 47.0723 59.3153 47.0723H59.2218C59.2218 47.0723 58.8011 47.8174 58.3803 48.4694L53.0043 56.899H47.3945L56.0897 43.626Z" fill="black"/>
<path d="M88.3455 53.2665C92.4594 53.2665 95.8252 49.9134 95.8252 44.0453C95.8252 38.4566 92.7866 34.824 88.5325 34.824C84.6992 34.824 81.0528 37.5252 81.0528 44.0919C81.0061 48.6559 83.5305 53.2665 88.3455 53.2665ZM76.191 36.454C76.191 35.7089 75.7703 35.3363 75.0691 35.3363H72.9654V31.0983H77.6402C79.9309 31.0983 80.8191 32.0763 80.8191 33.7063C80.8191 34.4514 80.7723 35.1035 80.7723 35.1035H80.8658C80.8658 35.1035 83.0163 30.5394 89.4675 30.5394C96.433 30.5394 100.874 36.0349 100.874 44.0453C100.874 52.242 95.872 57.5512 89.0935 57.5512C83.3435 57.5512 81.1463 53.4063 81.1463 53.4063H81.0528C81.0528 53.4063 81.1463 54.3377 81.1463 55.6417V67.0984H76.191V36.454Z" fill="black"/>
<path d="M114.291 53.4989C118.498 53.4989 121.209 49.1211 121.209 45.3022V44.4173H119.947C116.207 44.4173 109.476 44.6036 109.476 49.3539C109.429 51.4963 111.018 53.4989 114.291 53.4989ZM119.994 40.8313H121.116V40.5984C121.116 36.0809 119.433 34.4509 115.366 34.4509C114.15 34.4509 111.112 34.7769 111.112 36.4535V37.8507H106.437V35.2892C106.437 31.0511 112.888 30.4457 115.366 30.4457C123.734 30.4457 126.024 34.8235 126.024 40.5518V51.4963C126.024 52.2414 126.445 52.614 127.146 52.614H129.25V56.852H124.575C122.285 56.852 121.35 55.7343 121.35 53.918C121.35 53.0331 121.443 52.3811 121.443 52.3811H121.35C121.35 52.3811 119.293 57.4575 113.122 57.4575C108.681 57.4575 104.333 54.7563 104.333 49.5868C104.38 41.3436 115.646 40.8313 119.994 40.8313Z" fill="black"/>
</svg>
