<svg width="132" height="88" viewBox="0 0 132 88" fill="none" xmlns="http://www.w3.org/2000/svg">
<mask id="mask0_2056_25475" style="mask-type:luminance" maskUnits="userSpaceOnUse" x="26" y="4" width="80" height="80">
<path d="M26.0195 4.01953H105.982V83.9818H26.0195V4.01953Z" fill="white"/>
</mask>
<g mask="url(#mask0_2056_25475)">
<path fill-rule="evenodd" clip-rule="evenodd" d="M73.1668 25.6538C67.7803 25.6538 63.4133 30.0205 63.4133 35.4069V70.1804C63.4133 73.9655 60.346 77.0331 56.5617 77.0331C52.7763 77.0331 49.709 73.9655 49.709 70.1804V35.4069C49.709 22.4517 60.2121 11.9492 73.1668 11.9492C86.1226 11.9492 96.6256 22.4517 96.6256 35.4069C96.6256 48.3624 86.1226 58.865 73.1668 58.865C69.3825 58.865 66.3151 55.7971 66.3151 52.0128C66.3151 48.2285 69.3795 45.2863 73.1637 45.2863C78.5502 45.2863 82.9213 40.7939 82.9213 35.4069C82.9213 30.0205 78.5543 25.6538 73.1668 25.6538Z" fill="url(#paint0_linear_2056_25475)"/>
<path fill-rule="evenodd" clip-rule="evenodd" d="M80.7263 41.7032C77.3171 45.8744 71.1728 46.4926 67.0008 43.0845L46.6604 26.4638C43.7309 24.0693 39.414 24.5038 37.0191 27.4345C34.6242 30.3644 35.059 34.6816 37.9896 37.0763L58.33 53.6962C68.3623 61.8942 83.1403 60.4067 91.3383 50.3747C99.5355 40.3425 98.0483 25.5642 88.016 17.3667C85.0853 14.9721 80.7684 15.4065 78.3745 18.3371C75.9795 21.2673 76.4723 25.5125 79.403 27.9072C83.5739 31.3156 84.1338 37.532 80.7263 41.7032Z" fill="url(#paint1_linear_2056_25475)"/>
<path fill-rule="evenodd" clip-rule="evenodd" d="M45.9714 31.8772C45.9714 33.9146 44.3192 35.5669 42.282 35.5669C40.244 35.5669 38.5918 33.9146 38.5918 31.8772C38.5918 29.8394 40.244 28.1875 42.282 28.1875C44.3192 28.1875 45.9714 29.8394 45.9714 31.8772Z" fill="white"/>
</g>
<defs>
<linearGradient id="paint0_linear_2056_25475" x1="58.9594" y1="76.8172" x2="73.1679" y2="23.621" gradientUnits="userSpaceOnUse">
<stop stop-color="#A9FFD6"/>
<stop offset="0.586163" stop-color="#9831FF"/>
<stop offset="1" stop-color="#F55EC7"/>
</linearGradient>
<linearGradient id="paint1_linear_2056_25475" x1="37.4119" y1="30.0146" x2="76.3725" y2="30.2731" gradientUnits="userSpaceOnUse">
<stop stop-color="#FFCEB9"/>
<stop offset="0.617431" stop-color="#F65EC6"/>
</linearGradient>
</defs>
</svg>
