<svg width="132" height="88" viewBox="0 0 132 88" fill="none" xmlns="http://www.w3.org/2000/svg">
<path d="M43.0532 75.9849C43.7729 74.7427 45.745 71.3732 47.7129 68.0099C49.5362 64.8942 51.2934 61.8925 51.866 60.9039C53.9222 57.3542 59.0055 57.4334 62.6919 57.4909C63.2647 57.5 63.8035 57.5082 64.2921 57.5024L67.7676 57.4848L59.4076 71.9141C58.0021 74.3407 55.4283 75.8612 52.6176 75.9261L50.0658 75.9849H43.0532Z" fill="#FECE6A"/>
<path d="M81.8822 53.4822L86.7052 45.3111L77.6404 45.3551L70.9117 45.3554C60.1438 45.3554 56.6823 51.945 54.3853 56.318C54.0756 56.9076 53.7877 57.4568 53.5047 57.9441C52.5903 59.5944 51.8657 60.9036 51.8657 60.9036C53.9227 57.3539 59.0053 57.4334 62.6914 57.4909C63.2642 57.4997 63.8029 57.5079 64.2916 57.5022L67.767 57.4846L74.9885 57.4395C77.8252 57.4219 80.444 55.9187 81.8822 53.4822Z" fill="#FEAE06"/>
<path d="M40.0762 12.0156C40.7959 13.2586 42.738 16.6452 44.6769 20.025C46.4732 23.1566 48.2033 26.1731 48.7761 27.1617C50.8331 30.7114 48.2225 35.0586 46.3294 38.2112C46.0354 38.701 45.7585 39.1619 45.5187 39.5865L43.7965 42.5947L35.4364 28.1652C34.0311 25.7388 33.9961 22.7578 35.3455 20.2998L36.5699 18.068L40.0762 12.0156Z" fill="#89E5B8"/>
<path d="M51.5022 31.6285C51.1444 31.0667 50.8116 30.5431 50.5287 30.0558C49.5521 28.4407 48.7766 27.1611 48.7766 27.1611C50.8336 30.7108 48.2228 35.0578 46.3297 38.2106C46.036 38.7001 45.7591 39.161 45.5201 39.5856L43.7969 42.5939L40.2256 48.8479C38.8223 51.3048 38.8193 54.316 40.2176 56.7756L44.9074 65.0245L49.4012 57.1785L52.7658 51.3721C58.15 42.0791 54.3201 36.0582 51.5022 31.6285Z" fill="#3BD388"/>
<path d="M97.6417 41.0926C96.2004 41.0926 92.2863 41.075 88.3799 41.0585C84.7607 41.0429 81.2745 41.0277 80.128 41.0277C76.0148 41.0277 73.542 36.6013 71.749 33.3913C71.471 32.8927 71.2081 32.4233 70.9592 32.0047L69.2061 29.0141H85.9261C88.738 29.0141 91.3455 30.4743 92.8069 32.8677L94.1343 35.0402L97.6417 41.0926Z" fill="#BFB0FB"/>
<path d="M58.6714 18.8347L49.1581 18.7574L53.7288 26.5586L57.0932 32.3658C62.5858 41.8181 69.9731 41.0283 74.8928 41.0607C75.5974 41.0654 76.1983 41.0607 76.7628 41.0607C78.654 41.0255 80.1283 41.0283 80.1283 41.0283C76.0154 41.0283 73.5423 36.6022 71.7493 33.3918C71.4716 32.8932 71.2087 32.4241 70.9598 32.0053L69.2064 29.0146L65.5571 22.8051C64.123 20.3658 61.508 18.8577 58.6714 18.8347Z" fill="#947BF9"/>
</svg>
