<svg width="132" height="88" viewBox="0 0 132 88" fill="none" xmlns="http://www.w3.org/2000/svg">
<path fill-rule="evenodd" clip-rule="evenodd" d="M99.5845 63.1903H94.7869V60.7915C94.7869 44.8943 81.8979 32.0051 66.0004 32.0051C50.1029 32.0051 37.2142 44.8965 37.2142 60.7915V63.1903H32.4164C31.7798 63.1903 31.17 62.9376 30.7203 62.4877C30.2705 62.0378 30.0176 61.4276 30.0176 60.7915C30.0176 40.9192 46.1278 24.8086 66.0004 24.8086C85.873 24.8086 101.984 40.9192 101.984 60.7915C101.984 61.4276 101.731 62.0378 101.281 62.4877C100.831 62.9376 100.221 63.1903 99.5845 63.1903Z" fill="url(#paint0_linear_2056_25382)"/>
<path d="M82.7925 60.7915C82.7925 56.3379 81.0234 52.0669 77.8738 48.9178C74.7253 45.7685 70.4543 43.9995 66.0004 43.9995C61.5468 43.9995 57.2758 45.7685 54.1273 48.9178C50.9777 52.0669 49.2084 56.3379 49.2084 60.7915V63.1903H54.0063C54.6418 63.1903 55.2526 62.9376 55.7025 62.4877C56.1521 62.0378 56.4051 61.4276 56.4051 60.7915C56.4051 58.2467 57.4157 55.806 59.2159 54.0064C61.0149 52.2071 63.4558 51.1959 66.0004 51.1959C68.5453 51.1959 70.9862 52.2071 72.7852 54.0064C74.5854 55.806 75.596 58.2467 75.596 60.7915C75.596 61.4276 75.849 62.0378 76.2986 62.4877C76.7485 62.9376 77.3582 63.1903 77.9948 63.1903H82.7925V60.7915Z" fill="url(#paint1_linear_2056_25382)"/>
<path d="M92.3861 60.7915C92.3861 46.2184 80.5735 34.4039 66.0004 34.4039C51.4273 34.4039 39.6151 46.2209 39.6151 60.7915H39.613V63.1903H46.8095V60.7915C46.8095 55.7018 48.8316 50.8203 52.4311 47.2214C56.0292 43.6224 60.911 41.6006 66.0004 41.6006C71.0901 41.6006 75.9719 43.6224 79.5711 47.2214C83.1695 50.8203 85.1916 55.7018 85.1916 60.7915V63.1903H92.388V60.7915H92.3861Z" fill="url(#paint2_linear_2056_25382)"/>
<defs>
<linearGradient id="paint0_linear_2056_25382" x1="30.0176" y1="63.1903" x2="101.984" y2="63.1903" gradientUnits="userSpaceOnUse">
<stop stop-color="#1877F2"/>
<stop offset="1" stop-color="#04A4F4"/>
</linearGradient>
<linearGradient id="paint1_linear_2056_25382" x1="30.0176" y1="63.1903" x2="101.984" y2="63.1903" gradientUnits="userSpaceOnUse">
<stop stop-color="#F02849"/>
<stop offset="1" stop-color="#F5533D"/>
</linearGradient>
<linearGradient id="paint2_linear_2056_25382" x1="39.613" y1="63.1905" x2="92.388" y2="63.1905" gradientUnits="userSpaceOnUse">
<stop stop-color="#45BD62"/>
<stop offset="1" stop-color="#2ABBA7"/>
</linearGradient>
</defs>
</svg>
