<svg width="132" height="88" viewBox="0 0 132 88" fill="none" xmlns="http://www.w3.org/2000/svg">
<path fill-rule="evenodd" clip-rule="evenodd" d="M43.9456 6.33448C38.979 6.81309 36.7391 7.78245 33.4617 10.8704C31.0277 13.1638 29.7599 15.1909 28.7973 18.3288C28.0852 20.6512 28.0172 22.8977 28.0172 44.0667C28.0172 65.2638 28.0848 67.48 28.8003 69.8136C29.7405 72.8813 30.4168 74.0366 32.7213 76.5172C34.9986 78.9684 37.0116 80.2451 40.1275 81.2145C42.4337 81.9315 44.6646 82 65.6857 82C86.8034 82 88.93 81.9341 91.2749 81.2049C97.9907 79.1179 102.606 73.2753 103.051 66.2986C103.162 64.5511 103.421 63.0173 103.627 62.8894C103.832 62.7615 104 54.0733 104 43.582C104 30.9755 103.854 24.598 103.57 24.7749C103.303 24.9409 103.139 24.1553 103.139 22.7117C103.139 16.4599 99.2895 10.4928 93.5548 7.85571C91.8466 7.07017 89.8358 6.59459 87.0974 6.32754C82.5772 5.88708 48.5283 5.89228 43.9456 6.33448ZM61.5861 13.6892C54.5716 14.8099 49.5937 17.3495 44.5479 22.3827C38.1163 28.7975 35.4433 35.1638 35.4433 44.0667C35.4433 52.966 38.1141 59.3289 44.5479 65.7576C50.5998 71.8048 57.2006 74.5503 65.6857 74.5503C71.104 74.5503 74.3465 73.7774 79.4617 71.2655C82.4377 69.8041 83.848 68.7363 87.0156 65.5465C90.1832 62.3566 91.2435 60.9364 92.6947 57.9394C95.189 52.7883 95.9566 49.523 95.9566 44.0667C95.9566 39.0512 95.2415 35.6589 93.2526 31.2417C89.791 23.5536 82.3619 17.1058 74.2333 14.7349C70.5 13.6459 64.8054 13.1751 61.5861 13.6892ZM28 44.0667C28 54.6772 28.056 59.018 28.1244 53.7126C28.1929 48.4075 28.1929 39.7262 28.1244 34.4208C28.056 29.1157 28 33.4562 28 44.0667ZM54.1385 26.8037C51.4578 27.4072 49.1271 29.8787 48.511 32.7708C47.8941 35.6693 47.8941 52.464 48.511 55.3626C49.1654 58.4341 51.4186 60.7031 54.4687 61.3621C55.6892 61.6257 60.7367 61.8411 65.6857 61.8411C70.6347 61.8411 75.6823 61.6257 76.9028 61.3621C79.9529 60.7031 82.2061 58.4341 82.8604 55.3626C83.4773 52.464 83.4773 35.6693 82.8604 32.7708C82.2061 29.6992 79.9529 27.4302 76.9028 26.7712C74.1984 26.1873 56.7671 26.2124 54.1385 26.8037Z" fill="black" fill-opacity="0.972"/>
</svg>
