<svg width="132" height="88" viewBox="0 0 132 88" fill="none" xmlns="http://www.w3.org/2000/svg">
<mask id="mask0_2056_25286" style="mask-type:luminance" maskUnits="userSpaceOnUse" x="26" y="4" width="80" height="80">
<path d="M26.0186 4.01953H105.981V83.9818H26.0186V4.01953Z" fill="white"/>
</mask>
<g mask="url(#mask0_2056_25286)">
<path d="M63.1238 10.5131C62.8999 10.545 62.0843 10.657 61.2846 10.7529C58.0222 11.1687 54.4717 12.2562 51.2094 13.8555C41.342 18.7012 34.6412 27.8009 32.7861 38.8677C32.3863 41.2024 32.4023 46.9117 32.7861 49.1986C33.4258 52.8611 34.3373 55.6757 35.8566 58.7942C40.7023 68.6615 49.8019 75.3624 60.8688 77.2175C63.2038 77.6171 68.9131 77.6012 71.2 77.2175C74.8621 76.5776 77.6768 75.6663 80.7953 74.1469C90.6625 69.3011 97.3635 60.2014 99.2186 49.1348C99.6185 46.7998 99.6025 41.0905 99.2186 38.8036C98.579 35.1415 97.6673 32.3268 96.148 29.2081C91.3344 19.4048 82.2346 12.672 71.2797 10.8169C69.8406 10.561 64.0354 10.3531 63.1238 10.5131Z" fill="#4B2AAD"/>
<path d="M72.7666 29.8455C75.853 30.5014 78.6998 33.1081 80.0591 36.5145C80.8747 38.5614 81.1145 39.9848 81.1145 42.6396C81.1145 45.3264 80.8428 46.9415 80.0591 48.9567C78.7476 52.3469 76.0449 54.8738 72.9424 55.6095C70.6236 56.1531 66.1617 55.5454 64.5626 54.474L63.7629 53.9303V58.1362C63.7629 61.1746 63.7147 62.3742 63.5709 62.518C63.283 62.8059 56.0384 62.79 55.7826 62.4861C55.6548 62.3263 55.6226 57.9764 55.6385 46.3018L55.6867 30.3254H59.6849H63.6828L63.731 31.333L63.7788 32.3244L64.7383 31.6688C67.3131 29.9255 70.1277 29.2859 72.7666 29.8455Z" fill="white"/>
<path d="M66.9136 37.1889C66.1139 37.4768 65.2823 38.1324 64.7065 38.9321C63.4591 40.6434 63.2512 43.6978 64.2428 45.6968C65.1545 47.552 66.8336 48.5915 68.6888 48.4476C70.432 48.3198 71.7272 47.3441 72.5907 45.5049C73.0866 44.4816 73.1187 44.2896 73.1187 42.7224C73.1187 41.1711 73.0866 40.9632 72.607 39.9716C71.967 38.6282 70.9438 37.5728 69.9202 37.237C68.9926 36.9172 67.7452 36.9009 66.9136 37.1889Z" fill="#4B2AAD"/>
</g>
</svg>
