<svg width="132" height="88" viewBox="0 0 132 88" fill="none" xmlns="http://www.w3.org/2000/svg">
<path fill-rule="evenodd" clip-rule="evenodd" d="M66.0004 81.4578C86.6875 81.4578 103.458 64.6875 103.458 44.0004C103.458 23.3133 86.6875 6.54297 66.0004 6.54297C45.3133 6.54297 28.543 23.3133 28.543 44.0004C28.543 56.8921 35.0556 68.2626 44.9703 75.0015V44.0004C44.9703 32.3857 54.3857 22.9703 66.0004 22.9703C77.615 22.9703 87.0305 32.3857 87.0305 44.0004C87.0305 55.615 77.615 65.0305 66.0004 65.0305C59.7085 65.0305 54.0619 62.2674 50.208 57.8884V77.9759C55.0068 80.2101 60.358 81.4578 66.0004 81.4578ZM50.208 44.0004C50.208 35.2785 57.2785 28.208 66.0004 28.208C74.7223 28.208 81.7928 35.2785 81.7928 44.0004C81.7928 52.7223 74.7223 59.7928 66.0004 59.7928C57.2785 59.7928 50.208 52.7223 50.208 44.0004Z" fill="black"/>
</svg>
