<svg width="132" height="88" viewBox="0 0 132 88" fill="none" xmlns="http://www.w3.org/2000/svg">
<path d="M44.6674 34.5508L54.3229 44.2055L47.0813 51.4462C44.4155 54.1129 40.0925 54.1129 37.4268 51.4462C34.7601 48.7804 34.7601 44.4574 37.4268 41.7918L44.6674 34.5508Z" fill="#ECB284"/>
<path d="M62.7859 17.5909C68.8332 11.9103 78.2976 12.0582 84.1647 17.9249L92.074 25.834C97.9403 31.7006 98.0882 41.1658 92.4078 47.2128L71.2169 69.77C67.9185 73.2814 62.3701 73.3683 58.9637 69.9619L40.0367 51.0353C36.6303 47.6289 36.7173 42.0796 40.2286 38.7813L62.7859 17.5909Z" fill="url(#paint0_linear_2056_25249)"/>
<path d="M74.8422 44.8134C77.5089 42.1476 77.5089 37.8248 74.8422 35.1587C72.1766 32.4926 67.8536 32.4926 65.1878 35.1587L37.4299 62.9161C34.7642 65.582 34.7642 69.9047 37.4299 72.5705C40.0967 75.2372 44.4187 75.2372 47.0853 72.5705L74.8422 44.8134Z" fill="#E6A978"/>
<defs>
<linearGradient id="paint0_linear_2056_25249" x1="87.4455" y1="22.1239" x2="47.8217" y2="61.7454" gradientUnits="userSpaceOnUse">
<stop stop-color="#FFB800"/>
<stop offset="1" stop-color="#FF7F0A"/>
</linearGradient>
</defs>
</svg>
