<svg width="132" height="88" viewBox="0 0 132 88" fill="none" xmlns="http://www.w3.org/2000/svg">
<mask id="mask0_2056_25162" style="mask-type:luminance" maskUnits="userSpaceOnUse" x="34" y="10" width="64" height="68">
<path d="M97.8297 10.0156H34.1699V77.9833H97.8297V10.0156Z" fill="white"/>
</mask>
<g mask="url(#mask0_2056_25162)">
<path d="M87.4424 37.0558C90.4011 37.0558 92.7999 34.6569 92.7999 31.6977C92.7999 28.7387 90.4011 26.3398 87.4424 26.3398C84.4828 26.3398 82.084 28.7387 82.084 31.6977C82.084 34.6569 84.4828 37.0558 87.4424 37.0558Z" fill="#99C6FF"/>
<path d="M79.0195 17.6397C81.6095 15.8195 84.8149 15.1024 87.9334 15.6463C91.0511 16.1902 93.8255 17.9503 95.6458 20.5397C97.466 23.1289 98.1826 26.3351 97.639 29.4533C97.095 32.5713 95.335 35.3455 92.7462 37.1657L79.0195 17.6397Z" fill="#66AAFF"/>
<path d="M76.3128 23.6035H62.6972C60.4604 23.5961 58.3184 22.7026 56.7391 21.1184C55.1598 19.5343 54.2734 17.3889 54.2734 15.1523H75.4292C76.5388 15.1523 77.6372 15.3709 78.6626 15.7957C79.6884 16.2203 80.6198 16.8429 81.4044 17.6276C82.189 18.4124 82.8118 19.3439 83.2367 20.3693C83.6613 21.3947 83.8802 22.4936 83.8802 23.6035H76.3128Z" fill="#99C6FF"/>
<path d="M79.0201 18.4667H65.4045C63.1674 18.4594 61.0254 17.5658 59.4464 15.9817C57.8671 14.3976 56.9805 12.2523 56.9805 10.0156H78.1634C80.4003 10.0229 82.5423 10.9165 84.1216 12.5006C85.7009 14.0847 86.5875 16.2302 86.5875 18.4667H79.0201Z" fill="#66AAFF"/>
<path d="M74.5437 15.457C71.1744 15.457 67.9429 16.7955 65.5611 19.1781C63.1782 21.5605 61.8398 24.7919 61.8398 28.1612V50.7805L48.2793 77.0449C53.9415 79.9445 61.8118 75.9686 65.8438 68.1522C66.1207 67.6275 66.3688 67.0748 66.5896 66.5498H68.0818C70.4407 66.5498 72.7777 66.0851 74.9576 65.1806C77.1375 64.2769 79.1175 62.9525 80.7848 61.2825C82.4522 59.6127 83.7744 57.6305 84.675 55.4492C85.5756 53.2681 86.0362 50.9306 86.0335 48.5709V15.457H74.5437Z" fill="#0072FF"/>
<path d="M81.0905 19.4609H86.0339V40.561H81.9191C79.0112 40.561 76.2227 39.4057 74.1665 37.3495C72.1095 35.2933 70.9551 32.5046 70.9551 29.5964C70.9551 26.9083 72.0226 24.3305 73.9237 22.4297C75.8248 20.5287 78.4026 19.4609 81.0905 19.4609Z" fill="#E6F1FF"/>
<path d="M81.4765 26.8105C81.3307 27.4925 80.9548 28.1036 80.4122 28.5411C79.8683 28.9786 79.1918 29.216 78.4941 29.2132C77.9493 29.216 77.4136 29.0738 76.9417 28.8007C76.4701 28.5279 76.0801 28.1341 75.8112 27.6603C75.5425 27.1865 75.4045 26.6494 75.4124 26.1046C75.4204 25.5598 75.5725 25.0269 75.8552 24.5608C76.1371 24.0946 76.538 23.7121 77.0168 23.4525C77.4956 23.1929 78.0351 23.0656 78.5799 23.0837C79.1247 23.1019 79.6543 23.2647 80.1152 23.5559C80.575 23.8469 80.9498 24.2552 81.2006 24.7392C80.9927 24.668 80.7689 24.6562 80.5541 24.7049C80.3391 24.7535 80.1422 24.8611 79.9854 25.0153C79.8754 25.1231 79.7874 25.2521 79.7275 25.3946C79.6683 25.5367 79.6375 25.6894 79.6375 25.8439C79.6375 25.9979 79.6683 26.1508 79.7275 26.2933C79.7874 26.4354 79.8754 26.5641 79.9854 26.6722C80.1801 26.8631 80.435 26.981 80.707 27.0061C80.9779 27.0314 81.2496 26.9621 81.4765 26.8105Z" fill="#0072FF"/>
<path d="M76.9477 46.3598C76.9736 45.0233 76.7327 43.6953 76.2391 42.4531C75.7452 41.2112 75.0087 40.0802 74.0729 39.1259C73.1365 38.1717 72.02 37.414 70.7875 36.8968C69.5552 36.3795 68.2319 36.113 66.8954 36.1133H34.1679C34.1419 37.4498 34.3828 38.7778 34.8766 40.0199C35.3704 41.2621 36.107 42.3932 37.0426 43.3472C37.9791 44.3011 39.0956 45.059 40.329 45.5763C41.5614 46.0936 42.8838 46.3598 44.2211 46.3598H43.9173V46.7739C43.9173 49.3815 44.9529 51.8823 46.797 53.7262C48.6412 55.5701 51.142 56.606 53.7487 56.606H76.9477V46.3598Z" fill="#0072FF"/>
<path d="M76.9494 46.3598C76.9744 45.0233 76.7335 43.6953 76.2399 42.4531C75.746 41.2112 75.0104 40.0802 74.074 39.1259C73.1374 38.1717 72.0209 37.414 70.7886 36.8968C69.556 36.3795 68.2327 36.113 66.8962 36.1133H55.3248C55.2948 37.4484 55.5327 38.7761 56.0236 40.0177C56.5133 41.2599 57.2479 42.3913 58.1815 43.3455C59.1151 44.3 60.2305 45.0585 61.4609 45.576C62.6923 46.0936 64.0148 46.3601 65.3499 46.3598H65.0733V46.7739C65.0733 49.3815 66.1097 51.8823 67.9528 53.7262C69.7969 55.5701 72.2978 56.606 74.9056 56.606H76.9494V46.3598Z" fill="#66AAFF"/>
<path d="M93.8219 60.6671C93.2782 60.1702 92.6416 59.7855 91.9489 59.5347C91.255 59.2836 90.5205 59.1717 89.7838 59.2049C89.0482 59.2382 88.3255 59.4164 87.6589 59.7288C86.9912 60.0412 86.3925 60.482 85.8956 61.0263C85.3989 61.5702 85.0142 62.2068 84.7631 62.8996C84.5123 63.5923 84.4004 64.3279 84.4334 65.0635C84.4664 65.8 84.6443 66.5219 84.957 67.1896C85.2699 67.8562 85.7108 68.4559 86.2544 68.9526L93.8219 60.6671Z" fill="#99C6FF"/>
<path d="M91.1717 63.5656C90.0723 62.5621 88.6197 62.036 87.1336 62.1034C85.6473 62.1708 84.2481 62.8258 83.2443 63.9247C82.2419 65.0228 81.715 66.4754 81.7832 67.9626C81.8501 69.4489 82.5057 70.847 83.6043 71.8508L91.1717 63.5656Z" fill="#66AAFF"/>
</g>
</svg>
