<svg width="132" height="88" viewBox="0 0 132 88" fill="none" xmlns="http://www.w3.org/2000/svg">
<path d="M65.3945 68.8328L77.6608 75.3454L78.2676 50.5087L66.0011 43.9961L65.3945 68.8328Z" fill="#D53F8C"/>
<path d="M65.3934 68.8374L53.127 62.3252L53.7336 37.4883L66 44.0007L65.3934 68.8374Z" fill="#D53F8C"/>
<path d="M91.4433 19.7703L90.8369 44.6072L78.5703 38.0947L79.1768 13.2578L91.4433 19.7703Z" fill="#D53F8C"/>
<path d="M66.9093 6.74219L66.3027 31.579L78.5692 38.0915L79.1757 13.2547L66.9093 6.74219Z" fill="#D53F8C"/>
<path d="M40.5566 68.2278L53.1264 62.322L53.733 37.4849L66.3027 31.579L66.9093 6.74219L41.7698 18.554L40.5566 68.2278Z" fill="#805AD5"/>
<path d="M65.0887 81.2543L77.6583 75.3482L65.392 68.8359L52.8223 74.7417L65.0887 81.2543Z" fill="#F3CE49"/>
<path d="M65.3928 68.8368L53.1264 62.3242L40.5566 68.2303L52.8231 74.7429L65.3928 68.8368Z" fill="#F3CE49"/>
<path d="M90.8365 44.6026L78.2667 50.5084L66 43.9958L78.5699 38.0898L90.8365 44.6026Z" fill="#F3CE49"/>
<path d="M66.3022 31.5781L78.5686 38.0906L65.9989 43.9966L53.7324 37.484L66.3022 31.5781Z" fill="#F3CE49"/>
<path d="M77.6592 75.3469L65.0895 81.253L52.8231 74.7404M77.6592 75.3469L65.3928 68.8343M77.6592 75.3469L77.9628 62.9285L78.266 50.5102M52.8231 74.7404L65.3928 68.8343M52.8231 74.7404L40.5566 68.2278M65.3928 68.8343L53.1264 62.322M65.3928 68.8343L65.9994 43.9976M78.266 50.5102L65.9994 43.9976M78.266 50.5102L90.8358 44.604M40.5566 68.2278L53.1264 62.322M40.5566 68.2278L41.1632 43.3911L41.7698 18.554L66.9093 6.74219M53.1264 62.322L53.733 37.4849M65.9994 43.9976L53.733 37.4849M65.9994 43.9976L78.5693 38.0915M90.8358 44.604L78.5693 38.0915M90.8358 44.604L91.4423 19.7672L79.1757 13.2547M53.733 37.4849L66.3027 31.579M78.5693 38.0915L66.3027 31.579M78.5693 38.0915L79.1757 13.2547M66.9093 6.74219L66.3027 31.579M66.9093 6.74219L79.1757 13.2547" stroke="#111111" stroke-width="2"/>
</svg>
