<svg width="132" height="88" viewBox="0 0 132 88" fill="none" xmlns="http://www.w3.org/2000/svg">
<path fill-rule="evenodd" clip-rule="evenodd" d="M80.9578 11.4961H70.0276C69.7099 11.4961 69.4524 11.7537 69.4524 12.0714V58.2847C69.4524 58.6025 69.7099 58.86 70.0276 58.86H80.9578C81.2755 58.86 81.533 58.6025 81.533 58.2847V12.0714C81.533 11.7537 81.2755 11.4961 80.9578 11.4961ZM31.8682 29.1381H42.7984C43.1161 29.1381 43.3736 29.3956 43.3736 29.7134V75.9267C43.3736 76.2445 43.1161 76.502 42.7984 76.502H31.8682C31.5505 76.502 31.293 76.2445 31.293 75.9267V29.7134C31.293 29.3956 31.5505 29.1381 31.8682 29.1381ZM51.0439 29.1381H61.974C62.2918 29.1381 62.5493 29.3956 62.5493 29.7134V58.4769C62.5493 58.7946 62.2918 59.0522 61.974 59.0522H51.0439C50.7262 59.0522 50.4686 58.7946 50.4686 58.4769V29.7134C50.4686 29.3956 50.7262 29.1381 51.0439 29.1381ZM89.2033 29.1381H100.133C100.451 29.1381 100.709 29.3956 100.709 29.7134V58.4769C100.709 58.7946 100.451 59.0522 100.133 59.0522H89.2033C88.8856 59.0522 88.628 58.7946 88.628 58.4769V29.7134C88.628 29.3956 88.8856 29.1381 89.2033 29.1381Z" fill="#DCAD54"/>
</svg>
