<svg width="132" height="88" viewBox="0 0 132 88" fill="none" xmlns="http://www.w3.org/2000/svg">
<path d="M64.3918 7.0035C64.3918 7.0035 65.736 6.99563 66.0028 7.0035C82.5362 7.41914 95 20.6582 95 36.9169C95 53.0245 82.3223 66.1833 66.0028 66.8304C65.5844 66.8461 64.3918 66.8304 64.3918 66.8304C64.3918 66.8304 64.3918 57.162 64.3918 43.2145C64.3918 42.1675 72.4466 37.9671 72.4466 36.9169C72.4466 35.9755 64.6019 31.6412 64.396 30.6572C64.3933 30.6446 64.3918 32.2064 64.3918 32.1938C64.3918 18.3564 64.3918 7.0035 64.3918 7.0035Z" fill="#4038AB"/>
<path d="M38.6185 21.1731L61.1719 7.00359V65.2561C61.2223 67.4051 61.0043 67.2241 59.5609 68.4049L38.6185 81C37.7287 81 37.0075 80.2947 37.0075 79.4256V24.3219C36.9571 22.2217 37.1246 22.2059 38.6185 21.1731Z" fill="#4038AB"/>
</svg>
