<svg width="132" height="88" viewBox="0 0 132 88" fill="none" xmlns="http://www.w3.org/2000/svg">
<path fill-rule="evenodd" clip-rule="evenodd" d="M38.0879 70.3992V33.6838C38.0879 18.2692 50.5847 5.77344 66.0004 5.77344C81.4161 5.77344 93.9129 18.2692 93.9129 33.6838C93.9129 48.8954 81.7426 61.2647 66.6072 61.5875V61.5941C62.2504 61.5941 58.7189 58.0628 58.7189 53.7064C58.7189 49.3907 62.1851 45.8844 66.4858 45.8196V45.8092C72.9632 45.5544 78.1363 40.223 78.1363 33.6838C78.1363 26.9819 72.7028 21.5488 66.0004 21.5488C59.298 21.5488 53.8645 26.9819 53.8645 33.6838V74.3357C53.8645 78.6922 50.333 82.2234 45.9762 82.2234C44.3534 82.226 42.7696 81.7258 41.4427 80.7915C43.7117 80.1285 45.3694 78.0325 45.3694 75.5492C45.3694 72.5335 42.9243 70.0885 39.9083 70.0885C39.2699 70.0885 38.6573 70.198 38.0879 70.3992ZM66.6072 59.1671C69.6232 59.1671 72.0683 56.7221 72.0683 53.7064C72.0683 50.6906 69.6232 48.2457 66.6072 48.2457C63.5912 48.2457 61.146 50.6906 61.146 53.7064C61.146 56.7221 63.5912 59.1671 66.6072 59.1671Z" fill="url(#paint0_linear_2056_24592)"/>
<defs>
<linearGradient id="paint0_linear_2056_24592" x1="66.0004" y1="5.77344" x2="66.0004" y2="82.2234" gradientUnits="userSpaceOnUse">
<stop offset="0.0286041" stop-color="#D379E5"/>
<stop offset="0.997625" stop-color="#513C6A"/>
</linearGradient>
</defs>
</svg>
