<svg width="132" height="88" viewBox="0 0 132 88" fill="none" xmlns="http://www.w3.org/2000/svg">
<path d="M66 81C86.4351 81 103 64.4351 103 44C103 23.5649 86.4351 7 66 7C45.5649 7 29 23.5649 29 44C29 64.4351 45.5649 81 66 81Z" fill="#FF6154"/>
<path fill-rule="evenodd" clip-rule="evenodd" d="M70.934 44H60.45V32.9H70.934C72.4059 32.9 73.8176 33.4847 74.8584 34.5256C75.8992 35.5664 76.484 36.978 76.484 38.45C76.484 39.922 75.8992 41.3336 74.8584 42.3744C73.8176 43.4153 72.4059 44 70.934 44ZM70.934 25.5H53.05V62.5H60.45V51.4H70.934C74.3685 51.4 77.6624 50.0356 80.091 47.607C82.5196 45.1784 83.884 41.8846 83.884 38.45C83.884 35.0154 82.5196 31.7216 80.091 29.293C77.6624 26.8644 74.3685 25.5 70.934 25.5Z" fill="white"/>
</svg>
