<svg width="132" height="88" viewBox="0 0 132 88" fill="none" xmlns="http://www.w3.org/2000/svg">
<path fill-rule="evenodd" clip-rule="evenodd" d="M62.4179 8.44017C49.0008 9.84787 37.662 18.5676 32.7639 31.2447C30.1951 37.8932 29.5083 47.0551 31.1063 53.3524C31.6818 55.6205 32.2072 56.4462 34.4176 58.5568C37.7545 61.7433 43.0962 64.6293 47.4223 65.5828C47.9536 65.7001 47.9712 65.6798 47.778 65.1721C47.6662 64.8783 47.3521 63.8413 47.0799 62.8677C44.4057 53.3018 44.8871 42.0116 48.403 31.8426C49.2372 29.4296 51.6109 24.171 51.8658 24.171C51.9374 24.171 52.149 25.4369 52.3361 26.9839C53.5825 37.2899 56.6005 47.59 60.8631 56.0851C62.5902 59.5273 65.8452 64.8517 66.2363 64.8742C66.8113 64.9073 66.661 50.7475 66.0172 44.2196C64.9817 33.7217 63.4824 24.6446 61.6027 17.4958C61.2143 16.0188 60.7106 14.3386 60.4834 13.7623C60.2562 13.1862 60.1414 12.7146 60.2286 12.7146C60.5393 12.7146 64.0906 15.9547 66.1661 18.1318C72.1927 24.4531 77.3088 33.2332 80.5277 42.7781C81.5357 45.7672 82.8159 50.6125 83.1024 52.5226C83.3036 53.8636 83.4682 53.3702 83.9346 50.0272C84.4461 46.3599 84.4553 37.2159 83.951 33.6411C83.5062 30.4871 82.7136 26.5617 82.0865 24.4056C81.82 23.4889 81.672 22.7389 81.758 22.7389C81.8439 22.7389 82.6851 23.4138 83.6272 24.2387C86.3986 26.665 88.4194 29.2308 89.9295 32.2403L90.9211 34.217L91.5694 33.439C92.4276 32.4089 93.7534 29.6895 94.139 28.1684C94.5389 26.5903 94.5379 23.5249 94.137 22.1753C93.752 20.8795 92.4161 19.248 90.1595 17.3176C82.3347 10.624 72.2775 7.40562 62.4179 8.44017ZM95.847 25.664C95.9923 30.124 94.2618 34.3369 90.473 38.7471C90.014 39.2815 89.5819 39.7187 89.5132 39.7189C89.4442 39.7189 89.3286 39.216 89.2563 38.6015C89.0672 36.9921 88.1896 34.3407 87.2371 32.5002C86.7837 31.624 86.3765 30.9435 86.3321 30.9877C86.2876 31.0321 86.3914 31.887 86.5627 32.8876C87.0963 36.0076 87.2776 38.4532 87.2809 42.583C87.286 48.7175 86.5136 54.2169 84.8963 59.5629C83.9598 62.6584 82.5721 66.1904 82.3775 65.9742C82.2924 65.8799 82.1106 64.928 81.9735 63.8591C80.803 54.7333 77.2993 43.5805 73.0726 35.525C71.6919 32.8936 69.2744 28.8079 69.1637 28.9186C69.1266 28.9556 69.2687 29.9969 69.4793 31.2326C71.5237 43.2237 71.6129 62.1335 69.6815 74.0413C69.4574 75.422 69.2742 76.6012 69.2742 76.6618C69.2742 76.9388 68.7435 76.3571 66.9652 74.1317C60.7963 66.4116 56.9108 59.3316 53.9177 50.3569C52.8093 47.0334 51.0469 40.3803 50.7278 38.3145C50.5391 37.094 50.369 37.5078 49.8555 40.4349C48.3897 48.7925 49.1069 57.2166 51.989 65.4932C52.3827 66.6242 52.9333 68.0654 53.2122 68.6961C53.4914 69.3268 53.7196 69.908 53.7196 69.988C53.7196 70.0678 53.1441 70.0574 52.4405 69.9645C46.3373 69.1589 39.2727 65.7962 35.2453 61.78C33.6775 60.2166 33.6634 60.2082 34.2101 61.1576C38.8232 69.1701 45.8991 75.0303 54.3604 77.8463C67.4566 82.2046 81.6069 78.9534 91.1775 69.3868C95.0747 65.4912 98.0436 60.6932 99.7755 55.4916C103.26 45.0263 102.079 33.4257 96.6558 24.8422C96.2094 24.1354 95.8294 23.557 95.8111 23.557C95.7931 23.5568 95.8093 24.5051 95.847 25.664Z" fill="#1D97FF"/>
</svg>
