<svg width="132" height="88" viewBox="0 0 132 88" fill="none" xmlns="http://www.w3.org/2000/svg">
<path fill-rule="evenodd" clip-rule="evenodd" d="M29.8379 80.0266L102.072 79.9356L102.163 7.97656H29.8379V80.0266Z" fill="black"/>
<path fill-rule="evenodd" clip-rule="evenodd" d="M63.9259 22.2913C62.221 22.5791 59.868 23.1665 58.0377 23.7615C54.2267 25 47.6936 27.9192 47.6936 28.3836C48.9221 30.6622 67.1365 66.9641 67.1365 66.9641C67.1365 66.9641 73.9201 64.0763 75.9656 63.3638C76.19 63.2856 76.0893 63.0633 74.6814 60.5274C74.4201 60.0567 74.0168 59.3272 73.7851 58.9063C73.5535 58.4853 73.1071 57.6748 72.7931 57.1051C72.6771 56.8945 72.5338 56.6344 72.3834 56.3615C72.1269 55.8959 71.8497 55.3928 71.6519 55.0336C70.9801 53.814 70.7137 53.334 69.7959 51.6882C69.4137 51.0027 69.1805 50.3944 69.2687 50.3126C69.3556 50.2319 69.9827 50.0295 70.6621 49.8625C72.6088 49.3845 74.5206 48.7122 76.2922 47.8829C83.2712 44.6162 86.0567 37.9799 82.2713 31.0323C79.5371 26.0137 75.538 22.9921 70.5992 22.2137C69.0398 21.9678 65.6059 22.0078 63.9259 22.2913ZM63.9261 29.5178C62.2376 29.9658 59.0425 31.1663 58.7429 31.4655C58.676 31.5321 65.0755 43.1978 65.3798 43.564C65.529 43.7434 65.892 43.7034 67.1367 43.3705C71.0777 42.3168 73.3742 40.956 74.304 39.1236C74.6544 38.433 74.7477 37.9739 74.7477 36.9387C74.7477 35.7488 74.6735 35.4788 73.9413 34.0058C72.7515 31.6116 71.2983 30.2747 69.1362 29.5848C67.7981 29.1579 65.3995 29.1271 63.9261 29.5178Z" fill="white"/>
</svg>
