<svg width="132" height="88" viewBox="0 0 132 88" fill="none" xmlns="http://www.w3.org/2000/svg">
<mask id="mask0_2056_21938" style="mask-type:alpha" maskUnits="userSpaceOnUse" x="32" y="11" width="68" height="66">
<path d="M96.9713 44.8086L70.5991 74.904C68.27 77.5618 64.1249 77.5344 61.8312 74.846L32.4941 40.4618V11.1211H99.5069V40.0996L96.9713 44.8086Z" fill="#C4C4C4"/>
</mask>
<g mask="url(#mask0_2056_21938)">
<path d="M66.2261 79.5576C57.1765 68.5119 40.6444 49.3917 33.784 41.6682C33.0225 40.8108 34.1394 38.2891 35.2861 38.2891H96.9711C98.1715 38.2891 99.1445 39.2621 99.1445 40.4624V41.1084C99.1445 41.6266 98.9593 42.1278 98.6224 42.5214L66.9059 79.5834C66.712 79.7774 66.3999 79.7698 66.2261 79.5576Z" fill="#F6D3CB"/>
<path d="M65.1477 65.2053C55.8977 53.9504 40.3161 35.5185 33.7434 27.9414C32.992 27.0751 34.1395 24.5273 35.2862 24.5273H96.9712C98.1715 24.5273 99.1446 25.5004 99.1446 26.7007V40.0248C99.1446 40.543 98.9594 41.0441 98.6225 41.4378L66.906 78.4998L66.6128 69.1189C66.568 67.6853 66.0583 66.3133 65.1477 65.2053Z" fill="#F2A291"/>
<path d="M64.447 51.8293C55.2768 40.6619 40.1808 22.727 33.7392 15.2695C32.9896 14.4017 34.1395 11.8477 35.2862 11.8477H96.9712C98.1716 11.8477 99.1446 12.8207 99.1446 14.021V41.1098C99.1446 41.6281 98.9594 42.1292 98.6225 42.5229L66.906 79.5849L65.9098 55.6762C65.8511 54.2664 65.3424 52.9197 64.447 51.8293Z" fill="#EE7067"/>
</g>
</svg>
