<svg width="132" height="88" viewBox="0 0 132 88" fill="none" xmlns="http://www.w3.org/2000/svg">
<path fill-rule="evenodd" clip-rule="evenodd" d="M64.7117 32.4162C64.7117 25.3083 70.474 19.5462 77.5819 19.5462C84.6896 19.5462 90.4522 25.3083 90.4522 32.4162C90.4522 39.5241 84.6896 45.2862 77.5819 45.2862H64.7117V32.4162ZM77.5819 11.8242C66.2088 11.8242 56.9897 21.0435 56.9897 32.4162V45.2865H49.2685C40.7389 45.2865 33.8242 52.2008 33.8242 60.7305C33.8242 69.2596 40.7389 76.1742 49.2685 76.1742C57.7979 76.1742 64.7128 69.2596 64.7128 60.7305V53.0082H77.5819C88.9548 53.0082 98.1742 43.7888 98.1742 32.4162C98.1742 21.0435 88.9548 11.8242 77.5819 11.8242ZM41.5463 60.7305C41.5463 56.4655 45.0032 53.0085 49.2685 53.0085H56.9905V60.7305C56.9905 64.9955 53.5337 68.4522 49.2685 68.4522C45.0032 68.4522 41.5463 64.9955 41.5463 60.7305Z" fill="#0EF275"/>
</svg>
