<svg width="132" height="88" viewBox="0 0 132 88" fill="none" xmlns="http://www.w3.org/2000/svg">
<path d="M57.9833 55.7508C57.0728 57.4431 55.5999 57.083 54.7868 55.5699C51.023 48.5719 47.2647 41.5705 43.5118 34.5659C42.8109 33.2601 41.7239 31.7703 43.1374 30.5873C43.4096 30.3601 44.4437 30.2522 44.9319 30.2522C52.6157 30.25 60.2995 30.2494 67.9833 30.2506C69.0603 30.2522 70.4177 30.5094 70.4837 31.7603C70.5249 32.5418 70.0037 33.3995 69.6063 34.1395C65.7358 41.3455 61.8614 48.5492 57.9833 55.7508Z" fill="#15161C"/>
<path d="M79.7257 30.2599L77.1065 30.2645C75.2556 30.2677 73.7577 31.7797 73.7609 33.6416L73.7969 54.3803C73.8001 56.2422 75.3032 57.7489 77.1542 57.7456L79.7734 57.741C81.6244 57.7378 83.1222 56.2258 83.119 54.3639L83.083 33.6253C83.0798 31.7634 81.5767 30.2566 79.7257 30.2599Z" fill="#15161C"/>
<path d="M87.756 32.8636C87.756 30.6288 89.4169 30.5061 90.9804 31.4053C97.1974 34.9812 103.41 38.5648 109.618 42.1562C111.304 43.1318 111.774 44.6797 109.851 45.7946C106.387 47.8043 99.9832 51.4974 90.639 56.874C89.2602 57.6687 87.7659 57.1561 87.7642 55.4157C87.7565 47.8989 87.7538 40.3815 87.756 32.8636Z" fill="#15161C"/>
<path d="M35.8971 31.4849C36.344 31.9196 36.6475 32.5119 36.9675 33.1042C40.8435 40.2903 44.7057 47.4846 48.5542 54.6873C49.6527 56.7446 48.4635 57.75 46.4249 57.75C38.6102 57.75 30.7956 57.75 22.981 57.75C21.1716 57.75 20.4014 56.3929 21.2376 54.825C27.7218 42.6606 31.8072 35.037 33.494 31.9544C33.9739 31.0784 35.1483 30.7549 35.8971 31.4849Z" fill="#15161C"/>
</svg>
