<svg width="132" height="88" viewBox="0 0 132 88" fill="none" xmlns="http://www.w3.org/2000/svg">
<path d="M90.5348 25.4844H124.752V62.5148H90.5348V25.4844Z" fill="#F55254"/>
<path d="M114.277 46.3738C111.115 46.3738 108.568 49.0058 108.568 52.236C108.568 55.4662 111.113 58.0811 114.276 58.0811C117.422 58.0811 119.968 55.4662 119.968 52.236C119.968 49.0058 117.423 46.3738 114.277 46.3738ZM114.18 55.0475C112.654 55.0475 111.431 53.7899 111.431 52.2417C111.431 50.6893 112.657 49.4174 114.18 49.4174C115.691 49.4174 116.914 50.6893 116.914 52.2403C116.914 53.7899 115.688 55.0475 114.18 55.0475ZM102.268 46.8481H97.0075V57.9572H99.655V55.5987H101.886C104.149 55.5987 106.014 53.7699 106.146 51.4797V50.967C106.032 48.7965 104.5 46.8481 102.268 46.8481ZM101.852 52.8812H99.6564V49.5655H101.886C102.767 49.5826 103.469 50.3176 103.469 51.2234C103.469 52.1463 102.752 52.8812 101.852 52.8812ZM106.597 42.7648L104.216 39.4149C105.365 38.784 106.146 37.6389 106.146 36.0324C106.146 32.8563 104.678 31.6571 102.465 31.6571H97.0075V42.7662H99.655V39.9975H101.551L103.333 42.7648H106.597ZM99.6536 34.3902H101.869C102.753 34.3902 103.494 35.1223 103.494 36.0737C103.494 37.045 102.734 37.5435 101.852 37.5435H99.6564V34.3902H99.6536ZM118.094 34.0484V31.6556H109.956V42.7648H118.096V40.3891H112.55V38.4066H116.93V36.0309H112.553V34.0484H118.094Z" fill="white"/>
<path d="M30.217 38.4166C30.217 40.1826 29.8891 41.671 29.2333 42.8816C28.5774 44.0922 27.6935 45.0678 26.5815 45.8084C25.4694 46.549 24.1863 47.0902 22.7321 47.4321C21.2779 47.7739 19.7666 47.9448 18.1984 47.9448H14.5628V59.353H7.24902V29.102H18.3695C20.0233 29.102 21.5701 29.2658 23.0101 29.5934C24.4501 29.9209 25.7047 30.4479 26.7739 31.1743C27.8432 31.9006 28.6844 32.8549 29.2974 34.037C29.9105 35.2191 30.217 36.679 30.217 38.4166ZM22.9032 38.4593C22.9032 37.7472 22.7606 37.1632 22.4755 36.7075C22.1903 36.2517 21.8054 35.8957 21.3206 35.6393C20.8359 35.3829 20.287 35.212 19.674 35.1266C19.0609 35.0411 18.4265 34.9984 17.7707 34.9984H14.5628V42.1339H17.6423C18.3267 42.1339 18.9825 42.0769 19.6098 41.9629C20.2371 41.849 20.8003 41.6496 21.2993 41.3648C21.7983 41.0799 22.1903 40.7025 22.4755 40.2325C22.7606 39.7625 22.9032 39.1714 22.9032 38.4593ZM49.7344 36.9638C49.1071 36.1663 48.2873 35.5325 47.2751 35.0625C46.2628 34.5925 45.2862 34.3575 44.3453 34.3575C43.8605 34.3575 43.3687 34.4002 42.8697 34.4856C42.3707 34.5711 41.9216 34.7349 41.5224 34.977C41.1232 35.2191 40.7882 35.5325 40.5173 35.917C40.2464 36.3016 40.1109 36.7929 40.1109 37.3911C40.1109 37.9038 40.2179 38.3311 40.4317 38.6729C40.6456 39.0148 40.9592 39.3138 41.3727 39.5702C41.7861 39.8266 42.278 40.0616 42.8483 40.2752C43.4186 40.4888 44.0601 40.7096 44.773 40.9375C45.7995 41.2793 46.8687 41.6567 47.9808 42.0698C49.0928 42.4828 50.1051 43.0311 51.0175 43.7148C51.93 44.3984 52.6856 45.2458 53.2844 46.257C53.8832 47.2683 54.1826 48.5287 54.1826 50.0384C54.1826 51.776 53.8618 53.2786 53.2202 54.5462C52.5787 55.8137 51.7161 56.8606 50.6326 57.6866C49.5491 58.5127 48.3087 59.1251 46.9115 59.5239C45.5143 59.9227 44.0744 60.1221 42.5917 60.1221C40.4246 60.1221 38.3288 59.7447 36.3043 58.9898C34.2798 58.235 32.5975 57.1597 31.2574 55.7639L36.0477 50.893C36.7891 51.8045 37.7657 52.5665 38.9775 53.1789C40.1894 53.7913 41.3941 54.0975 42.5917 54.0975C43.1334 54.0975 43.6609 54.0406 44.1742 53.9266C44.6874 53.8127 45.1365 53.6275 45.5215 53.3712C45.9064 53.1148 46.2129 52.773 46.441 52.3457C46.6691 51.9184 46.7832 51.4057 46.7832 50.8075C46.7832 50.2378 46.6406 49.7536 46.3555 49.3548C46.0704 48.956 45.664 48.5928 45.1365 48.2652C44.609 47.9377 43.9532 47.6386 43.1691 47.368C42.3849 47.0974 41.4939 46.8054 40.4959 46.4921C39.5264 46.1787 38.5783 45.8084 37.6516 45.3811C36.7249 44.9539 35.898 44.4055 35.1709 43.7361C34.4438 43.0667 33.8593 42.2549 33.4173 41.3007C32.9753 40.3464 32.7544 39.1857 32.7544 37.8184C32.7544 36.1378 33.0965 34.6993 33.7809 33.5029C34.4652 32.3066 35.3634 31.3238 36.4754 30.5547C37.5875 29.7856 38.8421 29.2231 40.2393 28.867C41.6364 28.5109 43.0479 28.3329 44.4736 28.3329C46.1844 28.3329 47.9309 28.6462 49.713 29.2729C51.4951 29.8996 53.0563 30.8253 54.3964 32.0502L49.7344 36.9638ZM86.5027 44.142C86.5027 46.7911 86.0109 49.0771 85.0271 50.9998C84.0434 52.9225 82.746 54.5034 81.135 55.7425C79.5239 56.9816 77.7062 57.8932 75.6817 58.4771C73.6572 59.061 71.6042 59.353 69.5227 59.353H58.2312V29.102H69.1805C71.3191 29.102 73.4291 29.3512 75.5106 29.8497C77.5921 30.3482 79.4455 31.1743 81.0708 32.3279C82.6961 33.4816 84.0078 35.0269 85.0057 36.9638C86.0037 38.9008 86.5027 41.2935 86.5027 44.142ZM78.7897 44.142C78.7897 42.4329 78.5117 41.0158 77.9557 39.8907C77.3997 38.7655 76.6583 37.8682 75.7316 37.1988C74.8049 36.5294 73.7499 36.0523 72.5665 35.7675C71.3832 35.4826 70.1642 35.3402 68.9096 35.3402H65.2741V53.0293H68.7385C70.0502 53.0293 71.3119 52.8798 72.5238 52.5807C73.7356 52.2816 74.8049 51.7902 75.7316 51.1066C76.6583 50.423 77.3997 49.5115 77.9557 48.3721C78.5117 47.2327 78.7897 45.8227 78.7897 44.142Z" fill="#56577F"/>
</svg>
