<svg width="132" height="88" viewBox="0 0 132 88" fill="none" xmlns="http://www.w3.org/2000/svg">
<path d="M66 77C84.2254 77 99 62.2254 99 44C99 25.7746 84.2254 11 66 11C47.7746 11 33 25.7746 33 44C33 62.2254 47.7746 77 66 77Z" fill="#EF463C"/>
<path fill-rule="evenodd" clip-rule="evenodd" d="M80.3465 39.3917C80.3465 35.3367 79.1372 32.0108 76.7183 29.4141C74.3353 26.7819 71.2759 25.4658 67.5412 25.4658C64.0908 25.4658 61.5475 26.604 59.911 28.8805V26.1061H51.5343V62.3882H60.7114V50.9699C62.4547 52.6062 64.7309 53.4244 67.5412 53.4244C71.2406 53.4244 74.2995 52.1082 76.7183 49.476C79.1372 46.8082 80.3465 43.4467 80.3465 39.3917ZM70.9559 39.445C70.9559 41.188 70.4403 42.5753 69.4086 43.6068C68.4126 44.6028 67.1854 45.1008 65.7268 45.1008C64.2686 45.1008 63.0414 44.585 62.0455 43.5535C61.0495 42.5219 60.5516 41.1347 60.5516 39.3917C60.5516 37.6487 61.0319 36.2793 61.992 35.2833C62.988 34.2873 64.2329 33.7893 65.7268 33.7893C67.2565 33.7893 68.5014 34.3051 69.462 35.3367C70.4579 36.3326 70.9559 37.7021 70.9559 39.445ZM70.9727 62.5343C73.2197 62.5343 75.0412 60.7129 75.0412 58.4658C75.0412 56.2186 73.2197 54.3973 70.9727 54.3973C68.7256 54.3973 66.9042 56.2186 66.9042 58.4658C66.9042 60.7129 68.7256 62.5343 70.9727 62.5343Z" fill="white"/>
</svg>
