<svg width="132" height="88" viewBox="0 0 132 88" fill="none" xmlns="http://www.w3.org/2000/svg">
<path d="M43.2666 54.3321H45.3332V56.3987H47.3998V58.4653H49.4664V62.5985H47.3998V64.6651H45.3332V66.7317H43.2666V77.0647H47.3998V74.9981H49.4664V72.9315H51.533V70.8649H53.5995V68.7983H57.7327V70.8649H59.7993V72.9315H61.8659V74.9981H63.9325V77.0647H68.0657V66.7317H65.9991V64.6651H63.9325V62.5985H61.8659V58.4653H63.9325V56.3987H65.9991V54.3321H68.0657V43.9991H63.9325V46.0657H61.8659V48.1323H59.7993V50.1989H57.7327V52.2655H53.5995V50.1989H51.533V48.1323H49.4664V46.0657H47.3998V43.9991H43.2666V54.3321Z" fill="#15EC15"/>
<path d="M32.9336 77.0647H43.2666V43.9991H68.0657V10.9336H32.9336V77.0647ZM57.7327 33.6661H43.2666V21.2666H57.7327V33.6661Z" fill="#EC15EC"/>
<path d="M70.1323 77.0647H99.0647V66.7317H80.4653V10.9336H70.1323V77.0647Z" fill="#15ECEC"/>
</svg>
