<svg width="132" height="88" viewBox="0 0 132 88" fill="none" xmlns="http://www.w3.org/2000/svg">
<mask id="mask0_2056_26457" style="mask-type:luminance" maskUnits="userSpaceOnUse" x="37" y="11" width="58" height="66">
<path d="M37.0137 11.5156H94.9862V76.4849H37.0137V11.5156Z" fill="white"/>
</mask>
<g mask="url(#mask0_2056_26457)">
<path fill-rule="evenodd" clip-rule="evenodd" d="M65.3389 11.5156L65.3567 27.1755L79.5269 18.9844L67.4399 11.979C66.8401 11.675 66.0904 11.5212 65.3389 11.5156Z" fill="#3787F2"/>
<path fill-rule="evenodd" clip-rule="evenodd" d="M79.4967 18.9609L65.3604 27.1773L79.5097 35.4012V18.9684L79.4967 18.9609Z" fill="#0F6EED"/>
<path fill-rule="evenodd" clip-rule="evenodd" d="M89.0105 24.4838L91.4742 25.916C92.058 26.2922 92.5877 26.8915 92.9785 27.5715L79.501 35.4044V18.9727L89.0105 24.4838Z" fill="#0E65DA"/>
<path fill-rule="evenodd" clip-rule="evenodd" d="M79.4766 35.3712L92.97 27.5703C93.3858 28.2955 93.6459 29.1106 93.6459 29.8429V43.5838L79.4766 35.3712Z" fill="#0D5DC9"/>
<path fill-rule="evenodd" clip-rule="evenodd" d="M79.4766 51.8199L79.4944 35.4062L93.6459 43.5861V43.6076L79.4766 51.8199Z" fill="#0E65DA"/>
<path fill-rule="evenodd" clip-rule="evenodd" d="M65.3604 60.0403L79.5317 68.2303L79.5506 51.8164L65.3604 60.0403Z" fill="#0E65DA"/>
<path fill-rule="evenodd" clip-rule="evenodd" d="M65.3604 60.0373L79.5105 51.8137L65.3604 43.5898V60.0373Z" fill="#3787F2"/>
<path fill-rule="evenodd" clip-rule="evenodd" d="M65.3604 60.0469L65.3801 75.7067C66.1028 75.7037 66.8247 75.5637 67.4132 75.286L76.626 69.9614L79.5476 68.2683L65.3604 60.0469Z" fill="#0D5DC9"/>
<path fill-rule="evenodd" clip-rule="evenodd" d="M65.3825 60.0469L65.3646 75.7067C64.6438 75.7045 63.9272 75.5657 63.3384 75.2899L53.6851 69.7104L51.1982 68.2683L65.3825 60.0469Z" fill="#0E65DA"/>
<path fill-rule="evenodd" clip-rule="evenodd" d="M65.361 60.0403L51.1946 68.2303L51.1748 51.8164L65.361 60.0403Z" fill="#0F6EED"/>
<path fill-rule="evenodd" clip-rule="evenodd" d="M39.2589 61.3496L51.1622 68.2303L51.1812 51.8164L37.6797 59.6424C38.0865 60.3516 38.6442 60.9753 39.2589 61.3496Z" fill="#0F6EED"/>
<path fill-rule="evenodd" clip-rule="evenodd" d="M37.6804 59.6393L51.1431 51.8142L37.0127 43.6016V57.3769C37.0127 58.1059 37.2686 58.9171 37.6804 59.6393Z" fill="#217AF1"/>
<path fill-rule="evenodd" clip-rule="evenodd" d="M51.1819 51.821L51.1621 35.4062L37.0127 43.587V43.6076L51.1819 51.821Z" fill="#0F6EED"/>
<path fill-rule="evenodd" clip-rule="evenodd" d="M51.1819 35.3723L37.6874 27.5703C37.2706 28.2955 37.0127 29.1114 37.0127 29.844V43.5858L51.1819 35.3723Z" fill="#0C56B9"/>
<path fill-rule="evenodd" clip-rule="evenodd" d="M41.9277 24.3216L39.176 25.921C38.5943 26.2969 38.0685 26.8945 37.6797 27.5715L51.1573 35.4052V18.9727L41.9277 24.3216Z" fill="#0E65DA"/>
<path fill-rule="evenodd" clip-rule="evenodd" d="M51.1877 18.9609L65.3241 27.1781L51.1748 35.4009V18.9684L51.1877 18.9609Z" fill="#217AF1"/>
<path fill-rule="evenodd" clip-rule="evenodd" d="M65.3396 11.5156L65.3214 27.1755L51.1523 18.9844L63.2545 11.9715C63.8513 11.6722 64.5938 11.5212 65.3396 11.5156Z" fill="#4D94F3"/>
<path fill-rule="evenodd" clip-rule="evenodd" d="M89.0779 57.3508L91.5408 58.7833C92.1254 59.1584 92.6551 59.7587 93.0458 60.4388L79.5684 68.2711V51.8398L89.0779 57.3508Z" fill="#0F6EED"/>
<path fill-rule="evenodd" clip-rule="evenodd" d="M79.5469 68.2725L93.0403 60.4727C93.4561 61.1967 93.7151 62.0127 93.7151 62.7453V76.4848L79.5469 68.2725Z" fill="#0C56B9"/>
<path d="M65.3735 67.2362L65.3807 60.0367L65.3686 60.029L65.3807 60.0216V60.0367L71.9394 63.8268L71.9295 63.8328L65.3807 60.0367L65.3895 67.2362H65.3735ZM58.7936 63.8548L58.7848 63.851L65.3807 60.0367L58.7936 63.8548ZM65.3807 60.0367L75.026 54.4317L79.522 51.8249L79.5349 51.8326L65.3807 60.0367ZM51.2033 59.4554L51.1844 59.4446L51.1943 51.8428L51.2033 59.4554ZM79.5619 59.4092L79.571 51.8533L79.5888 51.8634V59.3932L79.5619 59.4092ZM44.9614 55.4258C44.9592 55.423 44.9584 55.4192 44.9562 55.4164L51.1555 51.8128L44.6006 48.003V47.9917L51.1624 51.795V51.8249L51.1684 51.828L44.9614 55.4258ZM79.522 51.8249V51.8183L79.5308 51.8128L79.522 51.8073V51.795L86.0849 47.9917L79.522 51.8249ZM86.0849 39.1994L79.522 35.4063V35.3923L79.53 35.3876L86.0849 39.1873V39.1994ZM44.6006 39.1994V39.1881L51.1555 35.3887L51.1624 35.3934V35.4055L44.6006 39.1994ZM51.1745 35.3802V35.3775L51.1753 35.3766V35.3802H51.1745ZM51.1753 35.3549H51.1745V27.7737H51.1753V35.3549ZM67.6805 28.5239L65.3427 27.1687L63.5844 28.187L65.3246 27.1761L65.3326 19.9766H65.3526L65.3606 27.1761L67.6805 28.5239Z" fill="white"/>
<path d="M65.3468 27.1761L65.3389 19.9766C65.7767 19.9774 66.2145 20.075 66.5461 20.2682L71.8965 23.369L65.3468 27.1761Z" fill="#65A2F5"/>
<path d="M79.5097 35.3781L67.6803 28.5221L65.3604 27.174L71.9103 23.3672L79.5097 27.7716V35.3539L79.4915 35.3641L79.5097 35.3745V35.3781Z" fill="#217AF1"/>
<path d="M79.5128 35.3962V35.3913L79.501 35.3838V35.38L79.5208 35.3913L79.5128 35.3962ZM79.501 35.3594V27.7773L84.8555 30.881C85.1852 31.0721 85.4842 31.3985 85.7039 31.7728L79.501 35.3594Z" fill="#3787F2"/>
<path d="M86.0694 39.1877L79.5145 35.388L79.4944 35.377L79.4766 35.3665L79.4944 35.3561L85.6976 31.7695C85.9264 32.1598 86.0694 32.6014 86.0694 32.9974V39.1877Z" fill="#217AF1"/>
<path d="M79.5234 51.7946V35.4062L86.0852 39.199V47.9913L79.5234 51.7946Z" fill="#3787F2"/>
<path d="M71.9191 63.8342L65.3604 60.0439L79.5157 51.8398L79.5506 51.8605L79.5416 59.4164L71.9191 63.8342Z" fill="#4D94F3"/>
<path d="M65.3604 60.0341V60.0189L75.0057 54.429L65.3604 60.0341ZM79.5025 51.816V51.8047L79.5105 51.8105L79.5025 51.816Z" fill="#D22229"/>
<path d="M65.3703 67.2466L65.3604 60.0469L71.9092 63.8421L66.5407 66.9549C66.2178 67.1427 65.796 67.2387 65.3703 67.2466Z" fill="#0C56B9"/>
<path d="M65.334 67.2466C64.8921 67.2466 64.4504 67.1487 64.1166 66.9549L58.7852 63.8652L65.3728 60.0469L65.3648 67.2466H65.334Z" fill="#217AF1"/>
<path d="M58.7651 63.8583L51.1836 59.463L51.1748 51.8516L65.323 60.0521L65.3491 60.0369L65.361 60.0444L58.7651 63.8583Z" fill="#3787F2"/>
<path d="M51.1676 59.4451L45.8032 56.3348C45.4693 56.1418 45.1654 55.8079 44.9443 55.426L51.1516 51.8281L51.1775 51.8433L51.1676 59.4451Z" fill="#4D94F3"/>
<path d="M44.9562 55.4213C44.7364 55.0385 44.6006 54.6081 44.6006 54.2217V48.0078L51.1555 51.8177L44.9562 55.4213Z" fill="#65A2F5"/>
<path d="M51.1624 51.7957L44.6006 47.9925V39.2002L51.1624 35.4062V51.7957Z" fill="#4D94F3"/>
<path d="M44.6006 39.1932V33.0021C44.6006 32.6116 44.7384 32.1785 44.9614 31.793L51.1555 35.3938L44.6006 39.1932ZM51.1745 35.3825V35.36H51.1753V35.3814L51.1745 35.3825Z" fill="#0F6EED"/>
<path d="M51.1456 35.397L51.1384 35.3924L44.9443 31.7915C45.1643 31.409 45.4682 31.0749 45.8032 30.881L51.1574 27.7773V35.3838L51.1456 35.3913V35.397Z" fill="#3787F2"/>
<path d="M51.1748 35.3796V27.7731L58.7552 23.3789L65.3241 27.1756L63.5828 28.1867L51.1748 35.3796Z" fill="#0F6EED"/>
<path d="M65.3072 27.1761L58.7383 23.3792L64.1066 20.2682C64.4396 20.075 64.8763 19.9774 65.3152 19.9766L65.3072 27.1761Z" fill="#7FB2F7"/>
<path d="M79.5684 59.3931V51.8633L85.7143 55.402C85.4924 55.7941 85.1855 56.1373 84.8448 56.3342L79.5684 59.3931Z" fill="#65A2F5"/>
</g>
</svg>
