<svg width="132" height="88" viewBox="0 0 132 88" fill="none" xmlns="http://www.w3.org/2000/svg">
<path d="M65.8024 67.1118C78.7274 67.1118 89.2055 56.6758 89.2055 43.8019C89.2055 30.9284 78.7274 20.4923 65.8024 20.4923C52.8777 20.4923 42.3996 30.9284 42.3996 43.8019C42.3996 56.6758 52.8777 67.1118 65.8024 67.1118Z" fill="#181C22"/>
<path fill-rule="evenodd" clip-rule="evenodd" d="M65.8016 75.5875C83.4272 75.5875 97.7154 61.3568 97.7154 43.8017C97.7154 26.2468 83.4272 12.0156 65.8016 12.0156C48.1768 12.0156 33.8887 26.2468 33.8887 43.8017C33.8887 61.3568 48.1768 75.5875 65.8016 75.5875ZM65.8016 67.1115C78.7274 67.1115 89.2055 56.6758 89.2055 43.8019C89.2055 30.9284 78.7274 20.492 65.8016 20.492C52.8766 20.492 42.3987 30.9281 42.3987 43.8017C42.3987 56.6755 52.8766 67.1115 65.8016 67.1115Z" fill="#248DE0"/>
<path d="M67.7296 45.7225L98.1133 64.6299L86.7126 75.9844L67.7296 45.7225Z" fill="#F8FAFF"/>
<path fill-rule="evenodd" clip-rule="evenodd" d="M92.5399 61.1591L85.3203 56.6662C83.5853 59.2726 81.3372 61.5114 78.7206 63.24L83.2314 70.4316C86.9417 68.0179 90.1171 64.8554 92.5399 61.1591Z" fill="#5AFBE2"/>
</svg>
