<svg width="132" height="88" viewBox="0 0 132 88" fill="none" xmlns="http://www.w3.org/2000/svg">
<path d="M94.8026 79.5125C95.5855 80.0717 96.704 80.0717 97.4869 79.5125C98.0461 79.0651 98.829 78.394 99.7238 77.4992C100.619 76.6044 101.402 75.8214 101.961 75.1503C102.856 74.2555 102.632 72.6896 101.625 72.0185L95.6973 67.6563C95.6973 67.6563 94.5789 69.1104 92.3419 71.2356C90.105 73.3607 88.3155 74.7029 88.3155 74.7029L94.8026 79.5125Z" fill="#FB4F14"/>
<path d="M103.974 42.6019C103.191 21.6859 85.5192 5.24389 64.6038 6.02684C63.4854 6.02684 62.2551 6.13869 61.1366 6.36239C41.899 8.71125 27.247 25.6006 28.03 45.3981C28.8129 66.3141 46.4847 82.7561 67.4 81.9732C75.0056 81.6376 82.2756 79.1769 88.4272 74.591L82.6112 70.3407C81.9401 69.8933 81.1572 69.7815 80.3742 70.2289C75.9004 72.8014 70.7554 74.1436 65.1631 74.0318C49.8401 73.6962 37.2014 61.2809 36.4185 45.9574C35.6355 28.1732 50.623 13.6327 68.6303 15.1986C82.9467 16.4289 94.3551 28.1732 95.3617 42.49C95.8091 49.4247 93.9077 55.912 90.3286 61.169C89.6575 62.0638 89.8812 63.406 90.776 64.0771L95.6973 67.6563C101.402 60.4979 104.309 51.7736 103.974 42.6019Z" fill="#FB4F14"/>
</svg>
