<svg width="132" height="88" viewBox="0 0 132 88" fill="none" xmlns="http://www.w3.org/2000/svg">
<path d="M29 24.2329C29 14.7154 36.6112 7 46 7H86C95.3888 7 103 14.7154 103 24.2329V63.7671C103 73.2846 95.3888 81 86 81H46C36.6112 81 29 73.2846 29 63.7671V24.2329Z" fill="url(#paint0_linear_2233_6832)"/>
<path fill-rule="evenodd" clip-rule="evenodd" d="M48.3333 29.6393C48.3333 27.5865 49.975 25.9224 52 25.9224H79.6667C81.6917 25.9224 83.3333 27.5865 83.3333 29.6393V58.0228C83.3333 60.0756 81.6917 61.7397 79.6667 61.7397H52C49.975 61.7397 48.3333 60.0756 48.3333 58.0228V29.6393ZM52 29.3014C51.8159 29.3014 51.6667 29.4527 51.6667 29.6393V58.0228C51.6667 58.2094 51.8159 58.3607 52 58.3607H79.6667C79.8508 58.3607 80 58.2094 80 58.0228V29.6393C80 29.4527 79.8508 29.3014 79.6667 29.3014H52Z" fill="white"/>
<path d="M59.6667 34.7078C59.6667 36.3873 58.3235 37.7489 56.6667 37.7489C55.0098 37.7489 53.6667 36.3873 53.6667 34.7078C53.6667 33.0282 55.0098 31.6667 56.6667 31.6667C58.3235 31.6667 59.6667 33.0282 59.6667 34.7078Z" fill="white"/>
<path d="M59.6667 52.9543C59.6667 54.6339 58.3235 55.9954 56.6667 55.9954C55.0098 55.9954 53.6667 54.6339 53.6667 52.9543C53.6667 51.2748 55.0098 49.9132 56.6667 49.9132C58.3235 49.9132 59.6667 51.2748 59.6667 52.9543Z" fill="white"/>
<path d="M78 34.7078C78 36.3873 76.6569 37.7489 75 37.7489C73.3431 37.7489 72 36.3873 72 34.7078C72 33.0282 73.3431 31.6667 75 31.6667C76.6569 31.6667 78 33.0282 78 34.7078Z" fill="white"/>
<path d="M78 52.9543C78 54.6339 76.6569 55.9954 75 55.9954C73.3431 55.9954 72 54.6339 72 52.9543C72 51.2748 73.3431 49.9132 75 49.9132C76.6569 49.9132 78 51.2748 78 52.9543Z" fill="white"/>
<path d="M68.6667 43.831C68.6667 45.5106 67.3235 46.8721 65.6667 46.8721C64.0098 46.8721 62.6667 45.5106 62.6667 43.831C62.6667 42.1515 64.0098 40.79 65.6667 40.79C67.3235 40.79 68.6667 42.1515 68.6667 43.831Z" fill="white"/>
<defs>
<linearGradient id="paint0_linear_2233_6832" x1="66" y1="7" x2="66" y2="81" gradientUnits="userSpaceOnUse">
<stop stop-color="#377598"/>
<stop offset="1" stop-color="#2B587C"/>
</linearGradient>
</defs>
</svg>
