<svg width="132" height="88" viewBox="0 0 132 88" fill="none" xmlns="http://www.w3.org/2000/svg">
<path d="M98.0793 19.5234V25.6363H93.4992V19.5234H83.0776V25.6389H48.7924V19.5234H38.3629V25.6389H33.7828V19.5234H29.1504V68.4734H33.9084V62.3527H38.3629V68.4734H48.7846V62.3527H83.0749V68.4734H93.507V62.3553H98.0871V68.4734H102.85V19.5234H98.0793ZM38.3629 58.6834H33.9084V51.3422H38.3629V58.6861V58.6834ZM38.3629 47.6677H33.9084V40.3265H38.3629V47.6677ZM38.3629 36.652H33.9084V29.3108H38.3629V36.652ZM83.0749 56.6023H48.7898V31.3919H83.0749V56.6101V56.6023ZM98.0766 58.6834H93.5018V51.3422H98.0766V58.6861V58.6834ZM98.0766 47.6677H93.5018V40.3265H98.0766V47.6677ZM98.0766 36.652H93.5018V29.3108H98.0766V36.652Z" fill="black"/>
</svg>
