<svg width="132" height="88" viewBox="0 0 132 88" fill="none" xmlns="http://www.w3.org/2000/svg">
<path d="M105.148 34.8346C104.672 33.3791 103.327 32.401 101.799 32.401H77.0117L69.3459 8.75785C68.8697 7.30229 67.5255 6.32422 65.9969 6.32422C64.453 6.32422 63.1088 7.30999 62.6479 8.77325L54.9821 32.401H30.195C28.6511 32.401 27.3069 33.3868 26.846 34.85C26.3774 36.3133 26.8921 37.892 28.1287 38.7931L48.1766 53.4026L40.5185 77.0457C40.0422 78.509 40.5569 80.1031 41.8012 81.0042C43.0379 81.8976 44.697 81.8976 45.9337 81.0042L65.9969 66.387L86.0525 80.9965C86.667 81.4432 87.3967 81.6665 88.1187 81.6665C88.8408 81.6665 89.5628 81.4432 90.185 80.9965C91.414 80.1031 91.9363 78.4782 91.4677 77.038L83.8096 53.4026L103.873 38.7931L103.888 38.7777C105.117 37.8766 105.624 36.2902 105.148 34.8346Z" fill="url(#paint0_linear_2056_24418)"/>
<defs>
<linearGradient id="paint0_linear_2056_24418" x1="26.6748" y1="38.4377" x2="105.325" y2="38.4377" gradientUnits="userSpaceOnUse">
<stop stop-color="#67A4EC"/>
<stop offset="1" stop-color="#6917BD"/>
</linearGradient>
</defs>
</svg>
