<svg width="132" height="88" viewBox="0 0 132 88" fill="none" xmlns="http://www.w3.org/2000/svg">
<path d="M65.9515 24.6748C74.8454 24.6748 82.0491 31.8785 82.0491 40.7724C82.0491 42.9536 81.6144 45.0221 80.8337 46.9216L95.9573 38.0358L94.581 36.748L69.1308 12.996C67.3117 11.4024 64.5912 11.4024 62.7722 12.996L37.3219 36.748L35.9456 38.0358L51.0693 46.9216C50.2886 45.0302 49.8539 42.9536 49.8539 40.7724C49.8539 31.8865 57.0576 24.6748 65.9515 24.6748Z" fill="#ED5851"/>
<path d="M34.2635 40.2492C33.9496 40.9575 33.8047 41.7302 33.8047 42.527V71.3577C33.8047 72.3719 34.0864 73.3055 34.6176 74.0863L63.2149 57.2724L61.4281 56.226L34.2635 40.2492Z" fill="#EE706A"/>
<path d="M98.195 42.527V71.3658C98.195 72.3799 97.857 73.3216 97.3258 74.0943C96.7543 74.9233 95.9092 75.5672 94.9353 75.9214H94.9272C94.4202 76.0984 93.8728 76.2031 93.3094 76.2031H38.5777C38.0063 76.2031 37.467 76.0984 36.9599 75.9214L65.9436 58.8821L65.9516 58.8741L97.6799 40.2492C97.9938 40.9655 98.195 41.7382 98.195 42.527Z" fill="#ED5851"/>
<path d="M94.9431 75.9133H94.9351C94.428 76.0904 93.8807 76.195 93.3173 76.195H38.5855C38.0141 76.195 37.4748 76.0904 36.9677 75.9133L65.9516 58.8741L65.9594 58.866L94.9431 75.9133Z" fill="#EE706A"/>
<path d="M66.4021 50.0767H65.4926C61.7579 50.0767 58.6592 47.1953 58.3855 43.4687H73.5092C73.2355 47.1953 70.1367 50.0767 66.4021 50.0767Z" fill="#ED5851"/>
<path d="M58.8605 40.6436C59.5139 40.6436 60.0437 40.1139 60.0437 39.4604C60.0437 38.8069 59.5139 38.2773 58.8605 38.2773C58.207 38.2773 57.6773 38.8069 57.6773 39.4604C57.6773 40.1139 58.207 40.6436 58.8605 40.6436Z" fill="#ED5851"/>
<path d="M73.0345 40.6436C73.6879 40.6436 74.2177 40.1139 74.2177 39.4604C74.2177 38.8069 73.6879 38.2773 73.0345 38.2773C72.3811 38.2773 71.8514 38.8069 71.8514 39.4604C71.8514 40.1139 72.3811 40.6436 73.0345 40.6436Z" fill="#ED5851"/>
</svg>
