<svg width="132" height="88" viewBox="0 0 132 88" fill="none" xmlns="http://www.w3.org/2000/svg">
<path fill-rule="evenodd" clip-rule="evenodd" d="M62.5465 8.97092C53.2973 9.91023 44.867 14.3399 38.9542 21.3677C33.067 28.3652 30.0364 37.6916 30.7703 46.5526C31.7334 58.1817 37.9326 68.2394 47.8227 74.2188C53.8016 77.8338 61.5553 79.6682 68.4468 79.0985C80.0869 78.1362 90.1541 71.9429 96.1392 62.0621C98.635 57.9418 100.582 52.0635 100.924 47.6139C100.988 46.7852 101.108 46.0655 101.19 46.0146C101.272 45.9637 101.339 44.9557 101.337 43.7745C101.336 42.5633 101.27 41.7276 101.188 41.858C101.099 41.9972 101 41.5019 100.937 40.6121C100.479 34.1334 97.377 26.7611 92.8394 21.3677C85.4232 12.5531 73.862 7.82178 62.5465 8.97092ZM59.2015 26.7575C58.1664 27.1777 57.6651 27.7784 56.8016 29.6336L55.934 31.4971L53.0085 31.4973C49.7834 31.4973 48.8936 31.6646 47.6864 32.4981C47.2909 32.7713 46.7432 33.3472 46.4692 33.7779L45.9712 34.5612V46.507V58.453L47.0375 59.5019C47.6413 60.0958 48.5787 60.7844 49.1983 61.089L50.2926 61.6274L66.1619 61.5805L82.0313 61.5336L82.8997 61.0932C83.3774 60.851 84.27 60.1597 84.8835 59.5569L85.9988 58.4611V46.5111V34.5612L85.4791 33.7425C84.3585 31.9772 82.9934 31.4994 79.0497 31.492L76.2123 31.4867L75.3044 29.5684C74.5319 27.9361 74.2841 27.5758 73.6424 27.1514L72.8883 26.6527L66.2627 26.6166C62.1487 26.5942 59.472 26.6476 59.2015 26.7575ZM64.0453 36.7735C59.3193 37.7933 56.0275 41.8111 56.0275 46.5595C56.0275 51.1733 59.2235 55.2089 63.7126 56.2636C65.2964 56.6357 67.7035 56.5228 69.147 56.0087C75.9959 53.5697 78.1638 45.0846 73.2727 39.861C71.3058 37.7605 69.2191 36.7927 66.4258 36.6856C65.5045 36.6502 64.4333 36.6898 64.0453 36.7735ZM64.7771 39.9619C62.6876 40.3121 60.497 42.1147 59.71 44.1311C59.1713 45.5118 59.1586 47.5855 59.6807 48.903C60.7483 51.5963 63.1199 53.2193 65.985 53.2174C67.8686 53.2161 69.1029 52.7391 70.4522 51.4909C74.565 47.6868 72.5903 40.99 67.0546 39.9698C65.9064 39.7583 65.9899 39.7586 64.7771 39.9619ZM30.6982 44.0051C30.6982 45.2162 30.7264 45.7118 30.7607 45.1061C30.7953 44.5006 30.7953 43.5097 30.7607 42.9041C30.7264 42.2986 30.6982 42.794 30.6982 44.0051Z" fill="#BF203C"/>
</svg>
