<svg width="132" height="88" viewBox="0 0 132 88" fill="none" xmlns="http://www.w3.org/2000/svg">
<path fill-rule="evenodd" clip-rule="evenodd" d="M69.104 37.8131H81.5182V25.4383H69.104V37.8131ZM69.104 56.3753H81.5182V44.0005H69.104V56.3753ZM69.104 74.9376H81.5182V62.5628H69.104V74.9376ZM50.4825 37.8131H62.8968V25.4383H50.4825V37.8131ZM50.4825 56.3753H62.8968V44.0005H50.4825V56.3753ZM50.4825 74.9376H62.8968V62.5628H50.4825V74.9376ZM44.2754 15.1259V77.4146C44.2759 78.3988 44.6686 79.3426 45.3669 80.0383C46.0653 80.7342 47.0123 81.125 47.9997 81.125H84.0011C84.9885 81.125 85.9355 80.7342 86.6338 80.0383C87.3323 79.3426 87.7248 78.3988 87.7254 77.4146V15.1259C75.5325 4.12469 56.4683 4.12469 44.2754 15.1259Z" fill="#F23A4B"/>
</svg>
