<svg width="132" height="88" viewBox="0 0 132 88" fill="none" xmlns="http://www.w3.org/2000/svg">
<path fill-rule="evenodd" clip-rule="evenodd" d="M66 15.2238C50.1079 15.2238 37.2247 28.1069 37.2247 43.999C37.2247 59.8912 50.1079 72.7743 66 72.7743C81.8921 72.7743 94.7753 59.8912 94.7753 43.999C94.7753 28.1069 81.8921 15.2238 66 15.2238ZM30.4541 43.999C30.4541 24.3676 46.3685 8.45312 66 8.45312C85.6315 8.45312 101.546 24.3676 101.546 43.999C101.546 63.6305 85.6315 79.5449 66 79.5449C46.3685 79.5449 30.4541 63.6305 30.4541 43.999Z" fill="black"/>
<path fill-rule="evenodd" clip-rule="evenodd" d="M56.8918 60.9256H49.9197L56.3688 25.3797H70.951C77.1089 25.3797 81.234 30.401 81.234 35.5357C81.234 40.2752 78.7356 43.2653 76.2956 44.9021C74.8433 45.861 73.2167 46.5947 71.4157 47.1025L77.516 60.9256H69.6731L64.502 47.9489H59.2734L56.8918 60.9256ZM62.178 31.8686L60.4345 41.46H68.5111C71.5325 41.46 74.2043 39.147 74.2043 36.382C74.2043 34.1249 72.4033 31.8686 69.789 31.8686H62.178Z" fill="black"/>
</svg>
