<svg width="132" height="88" viewBox="0 0 132 88" fill="none" xmlns="http://www.w3.org/2000/svg">
<path fill-rule="evenodd" clip-rule="evenodd" d="M72.1601 26.6381C70.9135 24.431 69.0784 22.5181 66.7244 21.1592C59.7089 17.1084 50.737 19.5123 46.686 26.5284L34.9836 46.7989C30.9325 53.815 33.3364 62.7866 40.353 66.8368C47.3688 70.8878 56.3404 68.4841 60.3914 61.468L71.5633 42.1165C72.1988 43.23 72.9917 44.2783 73.9412 45.2284C79.6703 50.9572 88.9579 50.9572 94.6872 45.2284C100.415 39.4999 100.415 30.2118 94.6872 24.483C88.9579 18.7543 79.6703 18.7543 73.9412 24.483C73.2683 25.1562 72.6746 25.8783 72.1601 26.6381Z" fill="#0EF275"/>
</svg>
