<svg width="132" height="88" viewBox="0 0 132 88" fill="none" xmlns="http://www.w3.org/2000/svg">
<path d="M49.9521 51.3617C48.0639 51.3617 46.176 50.6065 44.6657 49.0962C43.3443 47.7746 42.3997 45.8864 42.3997 43.8096C42.3997 41.7328 43.1554 40.0336 44.6657 38.5233C46.176 37.013 47.8753 36.2576 49.9521 36.2576H58.6371C58.826 36.2576 59.015 36.2576 59.2028 36.0689C59.3917 35.8803 59.3917 35.6913 59.3917 35.5027V28.5169C59.3917 28.3282 59.3917 28.1393 59.2028 27.9506C59.015 27.7617 58.826 27.7617 58.6371 27.7617H49.9521C45.6093 27.7617 41.4562 29.4609 38.4356 32.4818C35.414 35.5027 33.7148 39.6563 33.7148 43.9985C33.7148 48.3411 35.414 52.4944 38.4356 55.5153C41.4562 58.5361 45.6093 60.2354 49.9521 60.2354H58.6371C58.826 60.2354 59.015 60.2354 59.2028 60.0464C59.3917 59.8578 59.3917 59.6689 59.3917 59.4802V52.1171C59.3917 51.9282 59.3917 51.7392 59.2028 51.5506C59.015 51.3617 58.826 51.3617 58.6371 51.3617H49.9521Z" fill="url(#paint0_linear_2056_25838)"/>
<path d="M97.5306 51.3617C95.4536 51.173 93.5654 50.2289 92.0551 48.7184L84.6917 40.9777L82.8036 39.0898L76.7624 32.8594C73.7409 29.6496 69.399 27.9506 65.057 27.7617C64.8681 27.7617 64.8681 27.7617 64.6791 27.7617C64.4902 27.7617 64.4902 27.7617 64.4902 27.9506L64.3013 28.1393V35.8803C64.3013 36.0689 64.3013 36.2576 64.4902 36.4465C64.6791 36.6354 64.8681 36.6354 65.057 36.6354C67.133 36.8241 69.0211 37.7681 70.5314 39.2784L77.8948 46.8305L79.783 48.7184L85.8242 54.949C88.8459 58.1586 93.1876 59.8578 97.5306 60.0464H97.9074C98.0963 60.0464 98.0963 60.0464 98.0963 59.8578L98.2852 59.6689C98.2852 59.4802 98.2852 59.4802 98.2852 59.2913V51.9282C98.2852 51.7392 98.2852 51.5506 98.0963 51.3617C97.9074 51.5506 97.7185 51.3617 97.5306 51.3617Z" fill="url(#paint1_linear_2056_25838)"/>
<path d="M65.057 51.3617C67.133 51.173 69.0211 50.2289 70.5314 48.7184L77.8948 40.9777L79.783 39.0898L85.8242 32.8594C88.8459 29.6496 93.1876 27.9506 97.5306 27.7617H97.9074C98.0963 27.7617 98.0963 27.7617 98.0963 27.9506L98.2852 28.1393V35.8803C98.2852 36.0689 98.2852 36.2576 98.0963 36.4465C97.9074 36.6354 97.7185 36.6354 97.5306 36.6354C95.4536 36.8241 93.5654 37.7681 92.0551 39.2784L84.6917 46.8305L82.8036 48.7184L76.7624 54.949C73.7409 58.1586 69.399 59.8578 65.057 60.0464C64.8681 60.0464 64.8681 60.0464 64.6791 60.0464C64.4902 60.0464 64.4902 60.0464 64.4902 59.8578L64.3013 59.6689C64.3013 59.4802 64.3013 59.4802 64.3013 59.2913V51.9282C64.3013 51.7392 64.3013 51.5506 64.4902 51.3617C64.6791 51.5506 64.8681 51.3617 65.057 51.3617Z" fill="url(#paint2_linear_2056_25838)"/>
<defs>
<linearGradient id="paint0_linear_2056_25838" x1="52.4784" y1="57.952" x2="62.4663" y2="18.727" gradientUnits="userSpaceOnUse">
<stop offset="0.1" stop-color="#FF005C"/>
<stop offset="1" stop-color="#B154FF"/>
</linearGradient>
<linearGradient id="paint1_linear_2056_25838" x1="89.3253" y1="78.1173" x2="81.5715" y2="37.6465" gradientUnits="userSpaceOnUse">
<stop stop-color="#00F5DB"/>
<stop offset="1" stop-color="#B154FF"/>
</linearGradient>
<linearGradient id="paint2_linear_2056_25838" x1="98.2751" y1="44.0018" x2="64.3841" y2="44.0018" gradientUnits="userSpaceOnUse">
<stop offset="0.42" stop-color="#FF612D"/>
<stop offset="0.61" stop-color="#FF453B"/>
<stop offset="1" stop-color="#FF005C"/>
</linearGradient>
</defs>
</svg>
