<svg width="132" height="88" viewBox="0 0 132 88" fill="none" xmlns="http://www.w3.org/2000/svg">
<path d="M27.1669 37.9595L65.2374 57.8152C65.4733 57.9373 65.735 58.001 66.0004 58.001C66.266 58.001 66.5277 57.9373 66.7635 57.8152L104.824 37.9595C105.017 37.8601 105.189 37.7236 105.329 37.5577C105.47 37.3918 105.576 37.1999 105.642 36.9928C105.708 36.7858 105.732 36.5678 105.714 36.3513C105.695 36.1348 105.634 35.9241 105.534 35.7312C105.374 35.4292 105.126 35.1822 104.824 35.022L66.7625 15.1663C66.5251 15.0442 66.2619 14.9805 65.9949 14.9805C65.7279 14.9805 65.4648 15.0442 65.2273 15.1663L27.1669 35.022C26.7796 35.2279 26.4889 35.5779 26.3577 35.9964C26.2265 36.4149 26.2653 36.8682 26.4657 37.2583C26.6256 37.5558 26.8695 37.7997 27.1669 37.9595Z" fill="#54616C"/>
<path d="M104.823 50.0424L98.5295 46.7578L68.2888 62.5311C67.5823 62.896 66.7987 63.0863 66.0036 63.0863C65.2085 63.0863 64.4249 62.896 63.7185 62.5311L33.4696 46.7578L27.167 50.0424C26.7824 50.2465 26.4934 50.5934 26.3623 51.0085C26.2311 51.4237 26.2683 51.8737 26.4658 52.2617C26.6194 52.5657 26.8647 52.8138 27.167 52.9709L65.2376 72.8357C65.4734 72.9577 65.735 73.0214 66.0006 73.0214C66.2661 73.0214 66.5278 72.9577 66.7637 72.8357L104.824 52.972C105.017 52.8726 105.189 52.736 105.329 52.5703C105.469 52.4044 105.575 52.2125 105.641 52.0057C105.707 51.7987 105.732 51.5808 105.713 51.3644C105.695 51.1481 105.634 50.9374 105.534 50.7446C105.374 50.4445 105.126 50.2001 104.824 50.0435L104.823 50.0424Z" fill="#BAC0C4"/>
</svg>
