<svg width="132" height="88" viewBox="0 0 132 88" fill="none" xmlns="http://www.w3.org/2000/svg">
<path fill-rule="evenodd" clip-rule="evenodd" d="M96.3105 58.9115L96.8207 60.1018L98.0112 60.4422C102.093 61.4625 106.514 60.7823 110.255 58.7415C113.827 56.5307 116.718 53.2996 118.078 49.0481C119.439 44.7966 118.929 40.205 117.058 36.1236C115.017 32.2122 111.616 29.3212 107.194 27.7907H107.024C102.943 26.6003 98.3513 26.9404 94.4398 28.641C90.6985 30.5116 87.8075 33.7428 86.1071 37.8242L85.5967 39.0146L86.1071 40.205L96.3105 58.9115ZM106.004 30.5117C113.317 32.8925 117.398 40.8853 115.187 48.1978C112.976 55.3403 105.664 59.4217 98.5214 57.7212C98.5214 57.522 98.638 57.3227 98.7346 57.1577C98.803 57.0408 98.8615 56.9413 98.8615 56.8707C101.072 49.5583 96.9907 41.5655 89.6783 39.1847C89.3382 39.1847 88.9981 39.0146 88.8281 38.8445C91.5488 31.8721 99.2015 28.3009 106.004 30.5117Z" fill="#BF4776"/>
<path fill-rule="evenodd" clip-rule="evenodd" d="M78.2844 28.3047L78.4545 59.5957H47.8439L47.6738 28.3047L62.9791 39.3585L78.2844 28.3047ZM75.5635 33.7466L62.9791 42.7597L50.3948 33.7466V56.8747H75.5635V33.7466Z" fill="#BF4776"/>
<path d="M89.1687 57.723C89.1687 59.3197 87.8744 60.6141 86.2777 60.6141C84.6811 60.6141 83.3867 59.3197 83.3867 57.723C83.3867 56.1264 84.6811 54.832 86.2777 54.832C87.8744 54.832 89.1687 56.1264 89.1687 57.723Z" fill="#BF4776"/>
<path fill-rule="evenodd" clip-rule="evenodd" d="M40.7019 41.7388C40.7019 45.3101 39.3415 48.5412 36.7906 50.9221L41.3823 59.5951H13.1523V28.9844H27.9475C34.92 28.9844 40.7019 34.7664 40.7019 41.7388ZM28.1176 31.5353H16.2134V56.7041H37.1307L33.5595 50.0718L34.4097 49.3915C36.7906 47.5208 38.1511 44.6298 38.1511 41.5688C38.1511 35.9568 33.5594 31.5353 28.1176 31.5353Z" fill="#BF4776"/>
</svg>
