<svg width="132" height="88" viewBox="0 0 132 88" fill="none" xmlns="http://www.w3.org/2000/svg">
<path fill-rule="evenodd" clip-rule="evenodd" d="M93.9482 11.8242C80.4537 14.1349 70.5396 21.296 64.1852 29.9913C53.9164 28.5255 41.6457 30.3026 28.2206 37.0159C27.0811 41.4808 26.7343 46.8537 27.2579 51.441C39.2236 44.0578 49.6055 41.5239 57.9985 41.6942C57.8704 42.0569 57.7472 42.4199 57.6301 42.7829C54.9694 50.9963 54.7975 59.9407 58.229 66.7117C60.0016 70.2089 62.7962 73.1929 66.6847 74.8429C70.5534 76.485 74.9119 76.5573 79.4054 75.3388C83.8068 74.1453 87.5044 72.0236 90.1581 68.959C92.8416 65.8601 94.1737 62.1143 94.29 58.2571C94.5185 50.7221 90.1997 43.3717 83.738 38.1887C81.6496 36.5137 79.308 35.0262 76.739 33.7766C82.8192 27.4527 92.0925 22.8448 104.982 23.2356C101.635 18.0042 97.1344 14.033 93.9482 11.8242ZM69.0593 46.5746C69.3274 45.7441 69.6354 44.9095 69.9831 44.0765C72.452 45.0904 74.5563 46.3557 76.2679 47.7288C80.7347 51.3109 82.3462 55.3108 82.2687 57.8848C82.2618 58.1243 82.2409 58.3561 82.2062 58.5803C82.1744 58.8786 82.1227 59.1773 82.0492 59.4746C81.0617 63.2041 77.05 65.6178 73.365 64.6195C72.147 64.2887 71.0302 63.7021 70.1332 62.8254C69.9852 62.686 69.8411 62.5312 69.7001 62.3588C68.9936 61.5189 68.4642 60.4591 68.1879 59.1583C67.3692 56.0797 67.42 51.6327 69.0593 46.5746Z" fill="#006AFA"/>
</svg>
