<svg width="132" height="88" viewBox="0 0 132 88" fill="none" xmlns="http://www.w3.org/2000/svg">
<path d="M66.0002 72.7661C81.8882 72.7661 94.768 59.8863 94.768 43.9983C94.768 28.1103 81.8882 15.2305 66.0002 15.2305C50.1122 15.2305 37.2324 28.1103 37.2324 43.9983C37.2324 59.8863 50.1122 72.7661 66.0002 72.7661Z" fill="#246AFF"/>
<path d="M48.5102 58.061L51.0646 59.1149V41.9757L46.4591 53.0947C45.6616 55.0226 46.5823 57.2541 48.5102 58.061ZM85.5416 51.0155L76.1222 28.2929C75.5337 26.8688 74.1476 25.986 72.6949 25.9574C72.1744 25.9504 71.6578 26.0473 71.1752 26.2423L57.1893 32.0342C55.7647 32.6228 54.8912 33.9995 54.8527 35.4527C54.8403 35.9765 54.9373 36.4971 55.1376 36.9813L64.5477 59.7034C65.1456 61.1467 66.5416 62.0202 68.0229 62.0394C68.5168 62.0394 69.0107 61.9542 69.4943 61.7545L83.4812 55.9626C85.4091 55.165 86.3392 52.9429 85.5416 51.0155ZM58.6606 37.352C58.1573 37.3506 57.6751 37.1501 57.3192 36.7942C56.9633 36.4383 56.7627 35.956 56.7614 35.4527C56.7627 34.9494 56.9633 34.4671 57.3192 34.1112C57.6751 33.7554 58.1573 33.5548 58.6606 33.5534C59.1638 33.555 59.646 33.7556 60.0018 34.1114C60.3576 34.4673 60.558 34.9495 60.5594 35.4527C60.5579 35.9558 60.3574 36.4379 60.0016 36.7937C59.6458 37.1494 59.1638 37.3505 58.6606 37.352ZM54.8626 58.2409V46.2011L61.424 62.0394H58.6606C56.5716 62.0394 54.8626 60.3299 54.8626 58.2409ZM66.905 49.7033C66.4891 48.6738 66.6555 47.6558 67.4031 46.6503C68.1518 45.6447 69.462 44.4079 71.3337 42.9396L70.6604 41.2717C70.3859 40.5921 70.0396 40.1487 69.6206 39.9402C69.2026 39.7317 68.6275 39.7748 67.896 40.0701C67.4853 40.2365 67.1785 40.4492 66.9757 40.7096C66.773 40.9696 66.7179 41.215 66.8115 41.4464C66.8478 41.5358 66.8926 41.6044 66.9466 41.6523C67.0007 41.6996 67.0714 41.7448 67.1577 41.788L67.3553 41.8904C67.5113 41.9751 67.6516 42.0812 67.7764 42.2086C67.9023 42.336 67.9995 42.4852 68.0686 42.6573C68.2438 43.0898 68.235 43.4819 68.0426 43.8333C67.8553 44.1799 67.5506 44.4483 67.1832 44.5903C66.7428 44.7682 66.3149 44.7895 65.9 44.6533C65.4846 44.517 65.1773 44.203 64.9787 43.7101C64.6226 42.8299 64.7552 41.9647 65.3754 41.1152C65.9957 40.2651 66.9102 39.5965 68.1191 39.1083C69.4178 38.5832 70.6043 38.3944 71.68 38.5416C72.751 38.6996 73.5606 39.4572 74.1091 40.8157L76.3525 46.3685C76.4186 46.5323 76.5184 46.6544 76.651 46.7355C76.7836 46.8166 76.9016 46.8364 77.0061 46.7938C77.096 46.7574 77.1693 46.7085 77.2265 46.6461C77.2837 46.5837 77.357 46.4485 77.4459 46.2385L77.9877 46.5796C77.7506 47.283 77.4023 47.8492 76.9421 48.2781C76.6531 48.5516 76.3182 48.7648 75.9376 48.9187C75.2586 49.1932 74.682 49.1958 74.2089 48.927C73.9396 48.7752 73.6744 48.496 73.4145 48.0889C73.0365 48.9795 72.501 49.7163 71.8079 50.3006C71.4118 50.6469 70.9614 50.9256 70.4748 51.1258C69.8478 51.379 69.1813 51.4159 68.4752 51.237C67.7691 51.0577 67.2456 50.5466 66.905 49.7033ZM71.6545 48.8475C72.0278 48.6967 72.3294 48.4445 72.5602 48.091C72.685 47.8846 72.8129 47.5898 72.945 47.2066L71.5927 43.8593C71.041 44.256 70.5986 44.7078 70.2653 45.2163C69.7022 46.0773 69.5904 46.9295 69.9315 47.7728C70.1332 48.2729 70.4 48.6057 70.7322 48.771C71.0634 48.9369 71.3712 48.9624 71.6545 48.8475Z" fill="white"/>
</svg>
