<svg width="132" height="88" viewBox="0 0 132 88" fill="none" xmlns="http://www.w3.org/2000/svg">
<path fill-rule="evenodd" clip-rule="evenodd" d="M36.3008 15.7791C36.3008 17.9634 38.0462 19.734 40.1994 19.734H62.1159H72.5139C76.1956 19.734 79.2291 20.8876 81.6109 23.1946C83.994 25.5016 85.1848 28.4678 85.1848 32.0934C85.1848 35.444 83.994 38.1904 81.6109 40.3326C79.2291 42.4199 76.1956 43.4635 72.5139 43.4635H58.4699C56.3167 43.4635 54.5712 45.2342 54.5712 47.4186C54.5712 49.6029 56.3167 51.3736 58.4699 51.3736H72.5139H73.9752L87.9469 74.1139C88.8131 75.4875 90.0319 76.1742 91.6019 76.1742C93.3355 76.1742 94.5543 75.4875 95.258 74.1139C95.962 72.6861 95.8265 71.1761 94.8521 69.5825L82.4238 49.3136C85.781 47.7758 88.4339 45.5235 90.3842 42.5574C92.3337 39.5362 93.3077 36.0481 93.3077 32.0934C93.3077 28.0833 92.4148 24.5677 90.6279 21.5468C88.8943 18.5257 86.458 16.1636 83.3167 14.4609C80.1765 12.7031 76.5748 11.8242 72.5139 11.8242H40.1994C38.0462 11.8242 36.3008 13.5949 36.3008 15.7791Z" fill="#08080A"/>
</svg>
