<svg width="132" height="88" viewBox="0 0 132 88" fill="none" xmlns="http://www.w3.org/2000/svg">
<path fill-rule="evenodd" clip-rule="evenodd" d="M60.654 11.6982C50.231 13.9354 41.3582 19.9151 35.7802 28.4607C25.7195 43.8727 30.0707 62.3357 46.0436 72.0112C52.2991 75.8006 59.6434 77.4164 67.3221 76.6935C83.0093 75.2168 96.6071 64.2075 100.713 49.6586C101.822 45.7254 101.923 38.2103 100.918 34.3996C97.8331 22.7094 87.6586 13.7727 74.8497 11.5028C71.6558 10.9369 63.6899 11.0464 60.654 11.6982ZM58.3262 21.2905C57.8273 22.469 52.8895 45.8839 52.8895 47.0709C52.8895 47.6866 53.1908 48.1274 53.763 48.3488C54.2433 48.5349 55.8746 49.147 57.3875 49.7094C61.4421 51.2165 61.8749 51.8306 63.8416 58.8699C65.4073 64.4728 65.5906 64.8969 66.4858 64.9855C68.0651 65.142 78.6833 61.4591 78.8285 60.7044C78.8969 60.349 78.0676 57.6331 76.9857 54.6691C75.9033 51.7051 75.0182 48.8071 75.0182 48.2296C75.0182 46.8554 75.8718 45.2026 77.9997 42.4565C78.9528 41.2264 79.6756 39.9237 79.6058 39.5613C79.4186 38.5887 60.2475 20.4166 59.4086 20.4166C59.0168 20.4166 58.5296 20.81 58.3262 21.2905ZM60.654 25.4893C60.654 25.6074 59.7805 30.054 58.7129 35.3706C57.6453 40.6873 56.7718 45.1393 56.7718 45.264C56.7718 45.3887 57.9263 45.9942 59.3379 46.6095C60.7491 47.2243 62.3823 48.1305 62.967 48.6226L64.0303 49.5176L67.7433 48.294C71.1926 47.1571 71.4733 46.987 71.6903 45.8998C71.8192 45.2558 72.6333 43.5981 73.4994 42.2157L75.0748 39.7023L67.8644 32.4882C63.8987 28.5205 60.654 25.3712 60.654 25.4893ZM62.6102 36.0267C60.7304 38.0453 62.8532 43.7216 65.4881 43.7216C67.7413 43.7216 68.6346 41.2602 67.4292 38.3739C66.1535 35.3182 64.1693 34.3518 62.6102 36.0267Z" fill="#0000FF"/>
</svg>
