<svg width="132" height="88" viewBox="0 0 132 88" fill="none" xmlns="http://www.w3.org/2000/svg">
<path d="M51.0001 68.5H83.0001V76.5H51.0001V68.5Z" fill="#23252E"/>
<path fill-rule="evenodd" clip-rule="evenodd" d="M66 21.5C58.5081 21.5 52.4348 27.3203 52.4348 34.5C52.4348 41.6798 58.5081 47.5 66 47.5C73.4918 47.5 79.5652 41.6798 79.5652 34.5C79.5652 27.3203 73.4918 21.5 66 21.5ZM42 34.5C42 21.7975 52.7452 11.5 66 11.5C79.2548 11.5 90 21.7975 90 34.5C90 47.2026 79.2548 57.5 66 57.5C52.7452 57.5 42 47.2026 42 34.5Z" fill="#23252E"/>
</svg>
