<svg width="132" height="88" viewBox="0 0 132 88" fill="none" xmlns="http://www.w3.org/2000/svg">
<path fill-rule="evenodd" clip-rule="evenodd" d="M65.9992 76.1742C83.769 76.1742 98.1742 61.769 98.1742 43.9992C98.1742 26.2294 83.769 11.8242 66.0012 11.8242C48.2294 11.8242 33.8242 26.2294 33.8242 43.9992C33.8242 61.769 48.2294 76.1742 65.9992 76.1742ZM55.6853 34.8983C56.9601 33.6235 58.4735 32.6123 60.1391 31.9224C61.8047 31.2325 63.5899 30.8774 65.3927 30.8774C67.1955 30.8774 68.9807 31.2325 70.6463 31.9224C72.3119 32.6123 73.8253 33.6235 75.1001 34.8983C76.3749 36.1731 77.3861 37.6865 78.076 39.3521C78.7659 41.0177 79.121 42.8029 79.121 44.6057C79.121 46.4086 78.7659 48.1938 78.076 49.8593C77.3861 51.5249 76.3749 53.0383 75.1001 54.3131C74.3223 55.1232 73.893 56.2058 73.9044 57.3288C73.9158 58.4517 74.3669 59.5254 75.161 60.3195C75.9551 61.1136 77.0288 61.5647 78.1517 61.5761C79.2747 61.5875 80.3573 61.1582 81.1673 60.3804C89.8787 51.6691 89.8787 37.5444 81.1673 28.8331C72.454 20.1198 58.3294 20.1198 49.6201 28.8331C48.8588 29.646 48.4434 30.723 48.4617 31.8366C48.48 32.9501 48.9305 34.0129 49.718 34.8004C50.5055 35.5879 51.5683 36.0384 52.6818 36.0567C53.7954 36.075 54.8724 35.6596 55.6853 34.8983Z" fill="black"/>
<path d="M76.01 59.4523C77.1829 60.6252 79.0845 60.6252 80.2574 59.4523C81.4303 58.2794 81.4303 56.3778 80.2574 55.2049C79.0845 54.032 77.1829 54.032 76.01 55.2049C74.8372 56.3778 74.8371 58.2794 76.01 59.4523Z" fill="black"/>
</svg>
