<svg width="132" height="88" viewBox="0 0 132 88" fill="none" xmlns="http://www.w3.org/2000/svg">
<path d="M65.9992 11.8242C48.2576 11.8242 33.8242 26.2579 33.8242 43.9992C33.8242 61.7406 48.2576 76.1742 65.9992 76.1742C83.7408 76.1742 98.1742 61.7406 98.1742 43.9992C98.1742 26.2579 83.7408 11.8242 65.9992 11.8242ZM47.2874 62.7105C45.1176 60.5407 46.1582 55.0798 49.7489 48.8147C50.0616 48.2678 50.8297 48.2067 51.2268 48.6962C52.6878 50.4977 54.2875 52.2742 56.006 53.9927C57.7253 55.7117 59.5018 57.3117 61.3036 58.773C61.7945 59.1704 61.732 59.9393 61.184 60.2534C59.7421 61.0792 58.3196 61.7837 56.936 62.3475C52.4816 64.1619 48.875 64.2975 47.2874 62.7105ZM58.982 51.0161C53.7807 45.8145 49.7569 40.1038 47.6515 34.9358C45.8365 30.4819 45.7009 26.8752 47.2874 25.2879C48.0236 24.5526 49.1918 24.1874 50.6779 24.1874C52.3994 24.1874 54.546 24.6777 56.936 25.6512C62.103 27.7569 67.8142 31.7812 73.0153 36.9829C74.6834 38.6499 76.2298 40.3698 77.6303 42.1072C78.5213 43.2122 78.5213 44.7863 77.6303 45.8912C76.2298 47.6287 74.6834 49.3485 73.0153 51.0156C71.3482 52.6832 69.6289 54.2298 67.8915 55.6306C66.7865 56.5216 65.2119 56.5216 64.1069 55.6306C62.3695 54.2298 60.6502 52.6834 58.982 51.0161ZM84.7099 25.2879C86.2975 26.875 86.1619 30.4816 84.3469 34.9355C83.7829 36.3193 83.0792 37.7424 82.2525 39.1837C81.939 39.7315 81.1696 39.7942 80.7725 39.3039C79.3117 37.5018 77.712 35.7245 75.9924 34.0054C74.2742 32.287 72.4975 30.6873 70.6957 29.2268C70.2062 28.8299 70.2675 28.0621 70.8134 27.7486C77.0845 24.1511 82.5311 23.1091 84.7099 25.2879ZM75.9924 53.9927C77.712 52.2734 79.3117 50.4964 80.7725 48.6946C81.1696 48.204 81.939 48.2667 82.2525 48.8142C83.0792 50.2557 83.7829 51.6789 84.3469 53.0627C86.1619 57.5166 86.2975 61.1235 84.7099 62.7105C83.1235 64.2975 79.5168 64.1619 75.0624 62.3475C73.6789 61.7837 72.2563 61.0792 70.8145 60.2534C70.2664 59.9393 70.204 59.1704 70.6948 58.773C72.4966 57.3117 74.2731 55.7117 75.9924 53.9927ZM88.2453 51.4743C87.4599 49.5449 86.4353 47.5539 85.2088 45.5466C84.6296 44.599 84.6296 43.3994 85.2088 42.4515C86.4353 40.4446 87.4599 38.4536 88.2453 36.5242C88.8514 35.0356 89.3 33.6174 89.5937 32.2795C89.7785 31.438 90.9208 31.2928 91.2899 32.0714C93.0042 35.6912 93.9642 39.7348 93.9642 43.9992C93.9642 48.2636 93.0042 52.3072 91.2899 55.9271C90.9208 56.7061 89.7785 56.5604 89.5937 55.7189C89.3 54.3813 88.8525 52.9628 88.2453 51.4743ZM77.7211 20.4026C74.6645 21.0741 71.2165 22.5445 67.5648 24.7786C66.6116 25.3619 65.4069 25.3732 64.4529 24.7902C62.4459 23.5629 60.4541 22.539 58.5244 21.7527C57.0356 21.1462 55.6169 20.6982 54.2795 20.4044C53.4378 20.2198 53.2931 19.0775 54.0714 18.7088C57.6909 16.9941 61.7351 16.034 65.9992 16.034C70.2653 16.034 74.3105 16.9947 77.9312 18.7103C78.7083 19.0787 78.5607 20.218 77.7211 20.4026ZM40.7087 32.0714C41.0777 31.2923 42.2199 31.438 42.4039 32.2795C42.6975 33.6174 43.1459 35.0359 43.7522 36.5242C44.5385 38.4536 45.562 40.4446 46.7896 42.4515C47.3718 43.4047 47.3608 44.6092 46.7786 45.5623C44.5445 49.2165 43.0765 52.6686 42.4079 55.7288C42.2229 56.57 41.0837 56.718 40.7147 55.9403C38.9963 52.3171 38.0341 48.2686 38.0341 43.9992C38.0341 39.7348 38.9943 35.6912 40.7087 32.0714ZM54.0755 69.2918C53.2972 68.9238 53.4419 67.7815 54.2826 67.5967C55.6199 67.3011 57.0375 66.8514 58.5244 66.2453C60.4541 65.4588 62.4448 64.4353 64.4518 63.2088C65.3989 62.6294 66.5984 62.6294 67.5466 63.2088C69.5536 64.4353 71.5443 65.4599 73.474 66.2453C74.9609 66.8514 76.3785 67.3011 77.7159 67.5967C78.5565 67.7815 78.7012 68.9238 77.9229 69.2918C74.3045 71.005 70.2614 71.9642 65.9992 71.9642C61.7359 71.9642 57.6939 71.005 54.0755 69.2918Z" fill="#0EF275"/>
</svg>
