<svg width="132" height="88" viewBox="0 0 132 88" fill="none" xmlns="http://www.w3.org/2000/svg">
<path d="M20.3762 48.2292C23.2923 44.5677 26.9914 42.2121 31.4693 41.1604C30.0444 38.9524 29.333 36.5372 29.333 33.9085C29.333 30.1947 30.6355 27.0239 33.2394 24.3963C35.8434 21.7686 38.9877 20.4543 42.666 20.4543C46 20.4543 48.8829 21.5405 51.3127 23.7119C53.3608 18.737 56.617 14.7082 61.0783 11.6243C65.5406 8.54247 70.5131 7 76 7C83.3628 7 89.6451 9.62765 94.8541 14.884C100.063 20.1382 102.667 26.4818 102.667 33.9096C102.667 34.4338 102.633 35.1894 102.562 36.1689C106.591 38.0619 109.837 40.926 112.302 44.7634C114.768 48.5976 116 52.8305 116 57.4548C116 63.9376 113.718 69.4827 109.152 74.0892C104.585 78.6968 99.0903 81 92.666 81H36C30.4799 81 25.7667 79.0306 21.8602 75.0886C17.9537 71.1466 16 66.3915 16 60.8181C16 56.086 17.4601 51.8908 20.3762 48.2292Z" fill="black"/>
</svg>
