<svg width="132" height="88" viewBox="0 0 132 88" fill="none" xmlns="http://www.w3.org/2000/svg">
<path fill-rule="evenodd" clip-rule="evenodd" d="M66 11C84.2251 11 99 25.7744 99 44C99 62.2257 84.2251 77 66 77C47.7749 77 33 62.2257 33 44C33 25.7744 47.7749 11 66 11ZM71.6719 32.0253C70.5128 31.3365 69.1511 30.5938 66.2518 30.5938C61.9022 30.5938 57.9313 32.6975 57.9313 37.3734C57.9313 41.5064 61.0129 43.5916 64.5478 45.84C67.8107 47.9412 70.1128 49.7005 70.1128 52.745C70.1128 55.5191 68.1017 56.8966 65.5095 56.8966C60.7592 56.8966 59.0552 52.5284 58.746 47.5786H57.894C57.894 53.4898 57.8597 55.8635 57.75 57.6022H58.602C58.746 56.5336 58.9273 55.9726 59.4188 55.9726C59.7077 55.9726 60.0885 56.1172 60.6866 56.499C61.9365 57.1691 63.5679 57.8765 66.6495 57.8765C71.6345 57.8765 75.8583 55.5376 75.8583 50.6413C75.8583 46.6194 73.1028 44.6062 69.5863 42.2673C69.2146 42.0171 68.858 41.7799 68.5167 41.5528C65.0484 39.2451 63.17 37.9942 63.17 35.2717C63.17 32.9141 64.8761 31.4825 67.2478 31.4825C71.2177 31.4825 73.3033 35.5254 73.5572 39.386H74.409C74.409 34.1639 74.4806 32.3883 74.6085 30.9216H73.7575C73.5943 31.9901 73.413 32.5511 72.9218 32.5511C72.5963 32.5511 72.27 32.3883 71.6719 32.0253Z" fill="black"/>
</svg>
