<svg width="132" height="88" viewBox="0 0 132 88" fill="none" xmlns="http://www.w3.org/2000/svg">
<path fill-rule="evenodd" clip-rule="evenodd" d="M32.7005 16.4408C25.6939 18.8408 21.6643 23.4167 20.7525 30.0092C20 35.4503 22.6303 41.2873 27.2469 44.4226C28.5151 45.2836 33.1409 47.2395 37.527 48.7694C41.9132 50.2994 46.2155 52.2141 47.0871 53.0234C49.3869 55.1588 49.241 58.7389 46.7904 60.3303C42.6748 63.0027 36.7985 61.0328 35.6774 56.6056C35.2511 54.9221 35.1631 54.9046 28.0431 55.1008L20.8406 55.2998L21.0139 58.0769C21.887 72.0392 46.863 78.1995 58.4467 67.3097C65.5145 60.6655 65.0847 48.9566 57.5863 43.8549C55.9777 42.7607 51.4908 40.6909 47.6155 39.2553C38.3331 35.8176 36.759 34.9608 35.9769 32.9211C34.4204 28.8647 38.1034 25.5569 42.8757 26.7252C44.926 27.2272 45.7871 27.9479 46.8045 30.0106L48.1066 32.6529L55.2597 32.4546C62.0768 32.2654 62.4227 32.1823 62.6376 30.681C63.04 27.8725 59.6262 21.7178 56.3688 19.3792C50.4931 15.1608 40.1777 13.8802 32.7005 16.4408ZM68.0187 16.7208C67.832 17.2019 67.7629 29.85 67.8644 44.8269L68.049 72.0588L75.2712 72.2578L82.4933 72.4568V62.3072V52.1575H88.7065C103.467 52.1575 111.357 45.8206 111.375 33.9525C111.388 25.1701 105.918 18.4442 97.2667 16.6049C92.0618 15.4988 68.4555 15.5924 68.0187 16.7208ZM82.4933 34.0761V41.133L88.0583 40.8823C94.442 40.5953 96.2718 39.5108 97.0173 35.5739C98.0869 29.9212 94.4293 27.0317 86.1925 27.0233L82.4933 27.0192V34.0761Z" fill="#315BFB"/>
</svg>
