<svg width="132" height="88" viewBox="0 0 132 88" fill="none" xmlns="http://www.w3.org/2000/svg">
<path fill-rule="evenodd" clip-rule="evenodd" d="M61.1629 6.12819C59.8455 6.73508 58.0687 8.00372 57.2147 8.94684C56.3607 9.88997 49.5135 21.2254 41.9986 34.1365C30.5635 53.783 28.2903 58.0742 28.0615 60.4475C27.5573 65.674 30.1827 70.3533 34.789 72.4357C37.9839 73.8808 51.2795 74.0698 52.6653 72.6903C53.1443 72.2133 58.0609 63.9923 63.5919 54.4209C73.3363 37.5584 73.6208 36.9706 72.7764 35.4653C71.6799 33.5111 68.7204 33.0532 67.3646 34.6277C66.8568 35.2179 63.7961 40.2609 60.5623 45.835C57.3291 51.4091 53.2288 58.4509 51.4508 61.4842L48.2176 66.9987H44.1502C38.6582 66.9987 36.3897 66.1396 35.3519 63.668C34.7986 62.3498 34.6986 61.2332 35.0513 60.3205C36.2939 57.1018 61.6384 14.1168 63.0122 12.897C64.8674 11.2504 66.819 11.1872 68.7653 12.7116C69.5773 13.3471 73.1668 18.9141 76.7426 25.082C80.3183 31.2499 86.4272 41.7805 90.3185 48.4825C94.2098 55.1852 97.3933 61.0335 97.3933 61.4789C97.3933 63.2512 95.5398 65.7098 93.7289 66.3382C92.5672 66.7412 86.8769 66.9987 79.132 66.9987C67.7904 66.9987 66.3412 67.1096 65.5249 68.042C63.6925 70.1327 59.0669 78.634 59.0669 79.9104C59.0669 81.8503 60.7174 83.1887 62.8511 82.9782C64.4458 82.8209 65.0447 82.1877 67.3909 78.1768L70.0936 73.5565H82.2658C95.2518 73.5565 97.2669 73.2036 100.288 70.398C103.806 67.1317 105.074 60.7164 102.999 56.6851C99.4617 49.8167 75.9467 10.3061 74.4669 8.74713C70.8661 4.95196 65.8549 3.96531 61.1629 6.12819ZM78.705 46.1664C77.2306 47.0219 71.0439 57.726 71.0439 59.4209C71.0439 62.3141 74.7119 63.879 76.5773 61.7823C78.5774 59.5354 83.6198 50.3026 83.6198 48.8885C83.6198 48.0187 83.0628 47.0046 82.2885 46.4651C80.7549 45.3956 80.1243 45.3425 78.705 46.1664Z" fill="url(#paint0_linear_2187_5807)"/>
<defs>
<linearGradient id="paint0_linear_2187_5807" x1="83.6929" y1="-1.2597" x2="41.8584" y2="63.5107" gradientUnits="userSpaceOnUse">
<stop offset="0.163701" stop-color="#2FA5E0"/>
<stop offset="1" stop-color="#6451A1"/>
</linearGradient>
</defs>
</svg>
