<svg width="132" height="88" viewBox="0 0 132 88" fill="none" xmlns="http://www.w3.org/2000/svg">
<path d="M26 11.8049C26 7.49437 29.4944 4 33.8049 4H98.1951C102.506 4 106 7.49436 106 11.8049V76.1951C106 80.5056 102.506 84 98.1951 84H33.8049C29.4944 84 26 80.5056 26 76.1951V11.8049Z" fill="#030000"/>
<path d="M78.8542 13.9005C75.0543 12.5034 70.9268 11.8049 66.4716 11.8049C60.5032 11.8049 55.1294 13.0494 50.3503 15.5385C45.5712 18.0276 41.7761 21.6695 38.9649 26.4641C36.1753 31.2587 34.7805 37.104 34.7805 44C34.7805 50.8756 36.1753 56.7108 38.9649 61.5053C40.2893 63.7546 41.8321 65.7525 43.5933 67.499L52.6992 53.6575C51.6739 50.9739 51.1612 47.7547 51.1612 44C51.1612 39.9195 51.7667 36.4715 52.9777 33.6559C54.2103 30.8404 55.9728 28.7083 58.265 27.2598C60.5572 25.8112 63.2927 25.0869 66.4716 25.0869C68.1429 25.0869 69.6874 25.2844 71.1051 25.6794L78.8542 13.9005Z" fill="#C41045"/>
<path d="M62.177 62.4065C63.5052 62.7443 64.9367 62.9131 66.4716 62.9131C69.6721 62.9131 72.4076 62.1888 74.6782 60.7402C76.9704 59.2917 78.722 57.1596 79.933 54.3441C81.1656 51.5285 81.7819 48.0805 81.7819 44C81.7819 40.4343 81.3113 37.3516 80.3701 34.7519L89.6035 20.7167C91.2612 22.4013 92.7195 24.3171 93.9783 26.4641C96.7895 31.2587 98.1951 37.104 98.1951 44C98.1951 50.896 96.7895 56.7414 93.9783 61.5359C91.1671 66.3305 87.3611 69.9724 82.5604 72.4615C77.7813 74.9506 72.4184 76.1951 66.4716 76.1951C62.138 76.1951 58.118 75.5336 54.4114 74.2106L62.177 62.4065Z" fill="#C41045"/>
</svg>
