<svg width="132" height="88" viewBox="0 0 132 88" fill="none" xmlns="http://www.w3.org/2000/svg">
<path fill-rule="evenodd" clip-rule="evenodd" d="M70.2128 3.73179C70.7797 3.35368 71.7691 2.84478 72.4115 2.60075C73.4879 2.19177 73.7798 2.16218 76.1443 2.22392C78.2421 2.27853 78.887 2.36256 79.6835 2.68459C82.673 3.89326 85.0888 6.42989 86.1437 9.46737C86.4705 10.4086 86.5579 11.071 86.5653 12.664C86.5766 15.122 86.219 16.4615 85.185 17.8333C84.1643 19.1875 73.7972 29.7427 59.8587 43.6189L48.0304 55.3946L47.4651 54.8546C46.5611 53.9912 44.7602 51.2454 43.8722 49.3766C43.4219 48.429 42.8356 46.85 42.5691 45.8677C42.1257 44.2329 42.0838 43.7806 42.0746 40.5199C42.0629 36.438 42.3016 35.1252 43.6029 32.1162C43.9589 31.293 44.2272 30.658 44.5474 30.0502C45.7454 27.7762 47.6704 25.8828 57.636 15.9393C64.1791 9.41038 69.6284 4.12104 70.2128 3.73179Z" fill="#4351FC"/>
<path d="M71.473 44.6755C56.1751 59.961 49.4069 66.8287 47.6018 68.8984C46.3656 70.3157 46.1311 70.7017 45.7155 72.0037C44.8586 74.6886 45.1261 77.7784 46.4295 80.2489C47.2694 81.8408 49.4392 83.9459 51.0858 84.7668C52.8573 85.6498 54.0964 85.8829 56.4441 85.7746C60.6026 85.5828 60.4576 85.6945 73.7769 72.4123C79.8312 66.3746 85.2151 60.8593 85.7413 60.156C86.9719 58.5112 88.5553 55.2992 89.1409 53.2598C90.5299 48.4222 90.0544 42.9166 87.8515 38.328C86.6948 35.9188 84.3167 32.4828 83.8061 32.4828C83.7343 32.4828 78.1844 37.9694 71.473 44.6755Z" fill="#838CFA"/>
</svg>
