<svg width="132" height="88" viewBox="0 0 132 88" fill="none" xmlns="http://www.w3.org/2000/svg">
<path fill-rule="evenodd" clip-rule="evenodd" d="M58.39 19.2732C61.3159 16.2382 65.3921 14.3536 69.8981 14.3536C75.8879 14.3536 81.1154 17.6801 83.8984 22.6185C86.3885 21.511 89.0855 20.9402 91.8127 20.9434C102.617 20.9434 111.375 29.7411 111.375 40.5954C111.375 51.4497 102.617 60.2473 91.8127 60.2473C90.4916 60.2473 89.2034 60.1159 87.9578 59.8659C85.5073 64.2173 80.8345 67.1584 75.474 67.1584C73.2299 67.1584 71.107 66.6445 69.2182 65.7244C66.733 71.5454 60.9437 75.625 54.1976 75.625C47.1726 75.625 41.1838 71.1975 38.8862 64.9901C37.8625 65.2052 36.819 65.3135 35.7727 65.3133C27.4068 65.3143 20.625 58.4912 20.625 50.074C20.6188 47.4065 21.3148 44.784 22.6437 42.4678C23.9726 40.1517 25.888 38.2228 28.1989 36.8735C27.2402 34.6738 26.7469 32.3011 26.7498 29.9032C26.7498 20.222 34.6412 12.375 44.3758 12.375C47.0876 12.3719 49.7634 12.9928 52.1944 14.1894C54.6254 15.386 56.7458 17.1259 58.39 19.2732Z" fill="#00A1E0"/>
<path fill-rule="evenodd" clip-rule="evenodd" d="M33.7698 45.1761L34.137 44.1611C34.1956 43.9872 34.3276 44.0445 34.3812 44.0771C34.4834 44.1374 34.5568 44.1917 34.6888 44.2688C35.7707 44.9497 36.7731 44.9567 37.0857 44.9567C37.8956 44.9567 38.3978 44.5297 38.3978 43.9536V43.9239C38.3978 43.2973 37.6237 43.0601 36.7294 42.7874L36.5309 42.7241C35.3032 42.3763 33.9901 41.8732 33.9901 40.3256V40.2939C33.9901 38.8254 35.1801 37.8005 36.8833 37.8005L37.0699 37.7985C38.0703 37.7985 39.037 38.0881 39.7377 38.5111C39.8012 38.5506 39.8628 38.6238 39.827 38.7206L39.4499 39.7356C39.3834 39.9085 39.2018 39.7939 39.2018 39.7939C38.4707 39.4146 37.6618 39.2079 36.8376 39.19C36.1151 39.19 35.6506 39.5715 35.6506 40.0894V40.122C35.6506 40.7258 36.4466 40.9838 37.3696 41.2832L37.5284 41.3326C38.7522 41.7181 40.0583 42.2517 40.0583 43.7193V43.75C40.0583 45.3362 38.901 46.3215 37.0401 46.3215C36.126 46.3215 35.2516 46.1811 34.3266 45.6919C34.1519 45.5911 33.9792 45.5042 33.8085 45.3806C33.7906 45.3549 33.7122 45.3243 33.7688 45.1761H33.7698ZM61.0211 45.1761L61.3893 44.1611C61.4429 43.9951 61.5987 44.0563 61.6325 44.0771C61.7337 44.1393 61.8091 44.1917 61.9401 44.2688C63.0239 44.9497 64.0244 44.9567 64.34 44.9567C65.1469 44.9567 65.6501 44.5297 65.6501 43.9536V43.9239C65.6501 43.2973 64.877 43.0601 63.9827 42.7874L63.7842 42.7241C62.5545 42.3763 61.2414 41.8732 61.2414 40.3256V40.2939C61.2414 38.8254 62.4324 37.8005 64.1356 37.8005L64.3212 37.7985C65.3216 37.7985 66.2893 38.0881 66.991 38.5111C67.0525 38.5506 67.1151 38.6238 67.0803 38.7206C67.0456 38.8105 66.7359 39.6407 66.7032 39.7356C66.6347 39.9085 66.455 39.7939 66.455 39.7939C65.7237 39.4144 64.9144 39.2078 64.0899 39.19C63.3674 39.19 62.9029 39.5715 62.9029 40.0894V40.122C62.9029 40.7258 63.6979 40.9838 64.6219 41.2832L64.7807 41.3326C66.0044 41.7181 67.3096 42.2517 67.3096 43.7193V43.75C67.3096 45.3362 66.1533 46.3215 64.2924 46.3215C63.3773 46.3215 62.5029 46.1811 61.5789 45.6919C61.4042 45.5911 61.2315 45.5042 61.0598 45.3806C61.0419 45.3549 60.9635 45.3243 61.0211 45.1761ZM81.1789 40.4036C81.3317 40.9136 81.4072 41.474 81.4072 42.0659C81.4072 42.6589 81.3317 43.2173 81.1789 43.7272C81.0391 44.219 80.7993 44.6768 80.4742 45.0723C80.1485 45.4564 79.7401 45.7624 79.2792 45.9677C78.8028 46.1851 78.2431 46.2938 77.6138 46.2938C76.9846 46.2938 76.4228 46.1851 75.9484 45.9677C75.4875 45.7624 75.0791 45.4564 74.7534 45.0723C74.4287 44.6768 74.1885 44.2194 74.0477 43.7282C73.8917 43.188 73.8148 42.6281 73.8195 42.0659C73.8195 41.473 73.8959 40.9136 74.0477 40.4036C74.2006 39.8897 74.4378 39.4371 74.7524 39.0596C75.0789 38.6739 75.4874 38.3654 75.9484 38.1563C76.4238 37.9349 76.9826 37.8232 77.6138 37.8232C78.245 37.8232 78.8038 37.9349 79.2792 38.1563C79.7537 38.3767 80.1566 38.6801 80.4742 39.0596C80.7898 39.4371 81.028 39.8897 81.1789 40.4036ZM79.6266 42.0659C79.6266 41.1696 79.4599 40.4649 79.1284 39.9708C78.8008 39.4806 78.3046 39.2434 77.6138 39.2434C76.923 39.2434 76.4307 39.4806 76.1072 39.9708C75.7826 40.4649 75.6169 41.1696 75.6169 42.0659C75.6169 42.9613 75.7826 43.6709 76.1092 44.169C76.4307 44.6651 76.923 44.9053 77.6138 44.9053C78.3046 44.9053 78.8008 44.6641 79.1284 44.169C79.4579 43.6709 79.6266 42.9613 79.6266 42.0659ZM93.9406 44.6651L94.3217 45.7147C94.3713 45.8431 94.2592 45.8995 94.2592 45.8995C93.6706 46.1268 92.8538 46.2889 92.0588 46.2889C90.7109 46.2889 89.6787 45.9024 88.9899 45.1395C88.3051 44.3785 87.9557 43.3438 87.9557 42.06C87.9557 41.466 88.0421 40.9037 88.2108 40.3948C88.3795 39.8808 88.6326 39.4282 88.9661 39.0507C89.3124 38.6626 89.7395 38.3543 90.2177 38.1474C90.7139 37.927 91.2975 37.8163 91.9486 37.8163C92.3883 37.8163 92.7793 37.843 93.1148 37.8924C93.4731 37.9478 93.9505 38.0762 94.152 38.1543C94.1887 38.1682 94.2909 38.2176 94.2492 38.3372C94.1023 38.7493 94.0021 39.0181 93.8661 39.3936C93.8066 39.5537 93.6855 39.5004 93.6855 39.5004C93.1743 39.3403 92.6841 39.2671 92.0439 39.2671C91.2747 39.2671 90.6971 39.5221 90.3199 40.0212C89.9388 40.5242 89.7254 41.1834 89.7224 42.06C89.7194 43.0216 89.9616 43.7341 90.3904 44.1749C90.8181 44.6147 91.4156 44.8371 92.1679 44.8371C92.4726 44.8371 92.7605 44.8173 93.0195 44.7768C93.2756 44.7363 93.5158 44.6572 93.7421 44.5692C93.7421 44.5692 93.888 44.5149 93.9406 44.6651ZM101.891 40.1121C102.229 41.2921 102.052 42.311 102.046 42.3674C102.033 42.5018 101.895 42.5037 101.895 42.5037L96.6352 42.4998C96.668 43.2954 96.8595 43.8587 97.2466 44.2411C97.6267 44.6157 98.2302 44.8559 99.047 44.8568C100.296 44.8598 100.829 44.6098 101.207 44.4704C101.207 44.4704 101.351 44.419 101.405 44.5613L101.748 45.521C101.817 45.6821 101.762 45.7384 101.703 45.771C101.373 45.9519 100.574 46.2898 99.054 46.2938C98.3165 46.2968 97.6744 46.192 97.1454 45.9874C96.6427 45.802 96.1899 45.5034 95.8224 45.1148C95.4711 44.7335 95.2103 44.2786 95.0591 43.7836C94.8963 43.2412 94.8163 42.6775 94.8219 42.1114C94.8219 41.5184 94.8983 40.9551 95.0522 40.4402C95.206 39.9214 95.4452 39.4638 95.7638 39.0793C96.094 38.687 96.508 38.373 96.9757 38.1602C97.458 37.9339 98.0555 37.8232 98.7125 37.8232C99.2753 37.8232 99.7894 37.9438 100.217 38.1276C100.547 38.268 100.878 38.522 101.218 38.8856C101.432 39.1149 101.759 39.617 101.891 40.1121ZM96.66 41.2061H100.412C100.373 40.7258 100.279 40.2949 100.062 39.9708C99.7328 39.4806 99.2783 39.2108 98.5885 39.2108C97.8977 39.2108 97.4074 39.4806 97.0828 39.9708C96.8705 40.2949 96.7345 40.708 96.66 41.2061ZM59.7636 40.1121C60.101 41.2921 59.9273 42.311 59.9214 42.3674C59.9075 42.5018 59.7685 42.5037 59.7685 42.5037L54.5082 42.4998C54.542 43.2954 54.7325 43.8587 55.1206 44.2411C55.5007 44.6157 56.1032 44.8559 56.92 44.8568C58.1686 44.8598 58.7036 44.6098 59.0807 44.4704C59.0807 44.4704 59.2246 44.419 59.2782 44.5613L59.6216 45.521C59.6911 45.6821 59.6355 45.7384 59.578 45.771C59.2465 45.9519 58.4465 46.2898 56.928 46.2938C56.1895 46.2968 55.5474 46.192 55.0194 45.9874C54.5165 45.8018 54.0634 45.5032 53.6954 45.1148C53.345 44.7332 53.0849 44.2783 52.9341 43.7836C52.7701 43.2414 52.6895 42.6776 52.6949 42.1114C52.6949 41.5184 52.7723 40.9551 52.9252 40.4402C53.0682 39.9434 53.3106 39.4805 53.6378 39.0793C53.9679 38.6873 54.3815 38.3733 54.8487 38.1602C55.333 37.9339 55.9305 37.8232 56.5855 37.8232C57.1033 37.822 57.6159 37.9256 58.0922 38.1276C58.4217 38.268 58.7532 38.522 59.0916 38.8856C59.306 39.1149 59.6325 39.617 59.7636 40.1121ZM54.532 41.2061H58.2857C58.246 40.7258 58.1517 40.2949 57.9363 39.9708C57.6088 39.4806 57.1523 39.2108 56.4625 39.2108C55.7717 39.2108 55.2804 39.4806 54.9578 39.9708C54.7435 40.2949 54.6085 40.708 54.532 41.2061ZM45.2561 40.9561C45.2561 40.9561 45.6709 40.9927 46.1235 41.0579V40.8365C46.1235 40.1378 45.9776 39.8087 45.6908 39.5883C45.397 39.365 44.9583 39.2493 44.3906 39.2493C44.3906 39.2493 43.1103 39.2335 42.0979 39.781C42.0513 39.8087 42.0126 39.8245 42.0126 39.8245C42.0126 39.8245 41.8855 39.869 41.8399 39.7395L41.4677 38.7433C41.4101 38.6 41.5143 38.5348 41.5143 38.5348C41.9877 38.1672 43.1351 37.9448 43.1351 37.9448C43.6008 37.8633 44.0725 37.82 44.5454 37.8153C45.5955 37.8153 46.4084 38.0585 46.9612 38.5397C47.515 39.023 47.7969 39.8018 47.7969 40.8513L47.7999 45.6425C47.7999 45.6425 47.8108 45.7809 47.6788 45.8125C47.6788 45.8125 47.4852 45.8659 47.3116 45.9064C47.1359 45.9469 46.5027 46.0754 45.9856 46.1624C45.4575 46.2505 44.923 46.2948 44.3876 46.2948C43.8765 46.2948 43.408 46.2474 42.9951 46.1535C42.6104 46.0732 42.246 45.9158 41.9242 45.6909C41.631 45.4789 41.3956 45.1973 41.2394 44.8717C41.0776 44.5426 40.9962 44.1403 40.9962 43.6758C40.9962 43.2202 41.0925 42.8141 41.2781 42.4682C41.4647 42.1242 41.7208 41.8327 42.0423 41.6044C42.3745 41.3715 42.746 41.1998 43.139 41.0974C43.549 40.9887 43.9847 40.9324 44.4353 40.9324C44.7658 40.9324 45.0417 40.9393 45.2561 40.9561ZM43.1629 44.6365C43.1599 44.6355 43.6343 45.0071 44.7052 44.9418C45.4575 44.8964 46.1245 44.7541 46.1245 44.7541V42.3723C46.1245 42.3723 45.4516 42.2626 44.6963 42.2517C43.6254 42.2389 43.1688 42.6312 43.1718 42.6302C42.8562 42.8536 42.7023 43.1847 42.7023 43.6432C42.7023 43.9368 42.7549 44.166 42.8611 44.3261C42.9276 44.4319 42.9564 44.4714 43.1629 44.6365ZM87.6818 38.2571C87.6322 38.4004 87.3771 39.1179 87.2848 39.3561C87.2511 39.447 87.1955 39.5093 87.0933 39.4984C87.0933 39.4984 86.7915 39.4292 86.5156 39.4292C86.326 39.4292 86.0551 39.4529 85.8109 39.528C85.566 39.603 85.3432 39.7363 85.1618 39.9164C84.9693 40.1012 84.8135 40.3612 84.7003 40.6873C84.5852 41.0154 84.5256 41.5372 84.5256 42.061V45.9627C84.5258 45.9836 84.5218 46.0042 84.5138 46.0235C84.5059 46.0428 84.4942 46.0604 84.4795 46.0752C84.4647 46.09 84.4472 46.1017 84.4278 46.1097C84.4085 46.1177 84.3878 46.1218 84.3668 46.1218H82.9863C82.9651 46.1221 82.9442 46.1182 82.9246 46.1104C82.905 46.1026 82.8871 46.091 82.872 46.0763C82.8569 46.0617 82.8448 46.0442 82.8365 46.0248C82.8282 46.0055 82.8237 45.9847 82.8235 45.9637V38.1514C82.8235 38.0634 82.888 37.9932 82.9763 37.9932H84.3232C84.4125 37.9932 84.476 38.0634 84.476 38.1514V38.7898C84.6775 38.521 85.0388 38.2838 85.3653 38.1375C85.6928 37.9893 86.0591 37.8806 86.7211 37.9201C87.0655 37.9408 87.5131 38.0347 87.6034 38.0693C87.6211 38.0764 87.6371 38.0868 87.6507 38.1001C87.6642 38.1135 87.6749 38.1293 87.6822 38.1468C87.6895 38.1643 87.6933 38.1831 87.6932 38.202C87.6931 38.2209 87.6893 38.2397 87.6818 38.2571ZM74.7097 34.637C74.7465 34.6518 74.8467 34.7003 74.807 34.8189L74.403 35.9188C74.3693 36.0018 74.3475 36.0513 74.1758 35.9999C73.9487 35.9287 73.7121 35.8921 73.4741 35.8912C73.2656 35.8912 73.0771 35.9178 72.9103 35.9732C72.7435 36.0264 72.5922 36.1193 72.4696 36.244C72.3065 36.4009 72.1804 36.592 72.1004 36.8033C71.9069 37.3568 71.8325 37.9468 71.8225 37.9843H73.5038C73.6458 37.9843 73.6904 38.0496 73.6765 38.1533L73.48 39.2424C73.4483 39.4005 73.3043 39.3946 73.3043 39.3946H71.5714L70.3874 46.0714C70.2856 46.6702 70.1308 47.2589 69.9249 47.8306C69.7393 48.3138 69.5477 48.6667 69.24 49.0037C68.9774 49.3053 68.6435 49.5369 68.2684 49.6777C67.9041 49.8111 67.4614 49.8793 66.9781 49.8793C66.7478 49.8793 66.4997 49.8743 66.2069 49.8052C66.0438 49.7681 65.883 49.7212 65.7256 49.6648C65.661 49.6421 65.6084 49.5601 65.6461 49.4553C65.6819 49.3515 65.9935 48.5026 66.0352 48.3909C66.0888 48.2565 66.2258 48.3079 66.2258 48.3079C66.3191 48.3475 66.3846 48.3731 66.5086 48.3979C66.6347 48.4226 66.8034 48.4443 66.9314 48.4443C67.1607 48.4443 67.3691 48.4166 67.5508 48.3554C67.7691 48.2852 67.8982 48.1577 68.0311 47.9877C68.1701 47.8088 68.2832 47.5667 68.3994 47.2416C68.5155 46.9125 68.6217 46.4776 68.713 45.9509L69.8921 39.3956H68.7309C68.5919 39.3956 68.5443 39.3304 68.5602 39.2256L68.7547 38.1365C68.7855 37.9784 68.9333 37.9843 68.9333 37.9843H70.1253L70.1898 37.6305C70.3685 36.579 70.7228 35.7795 71.2469 35.2547C71.7739 34.726 72.5232 34.4591 73.4741 34.4591C73.746 34.4591 73.9862 34.4769 74.1897 34.5135C74.3892 34.551 74.541 34.5856 74.7097 34.637ZM51.2111 45.9627C51.2111 46.0517 51.1496 46.1218 51.0603 46.1218H49.6658C49.5765 46.1218 49.5159 46.0507 49.5159 45.9637V34.7833C49.5159 34.6973 49.5774 34.6262 49.6648 34.6262H51.0603C51.1496 34.6262 51.2111 34.6973 51.2111 34.7843V45.9627Z" fill="white"/>
</svg>
