<svg width="132" height="88" viewBox="0 0 132 88" fill="none" xmlns="http://www.w3.org/2000/svg">
<g clip-path="url(#clip0_2056_27322)">
<g style="mix-blend-mode:multiply">
<path d="M93.1132 42.2266L65.9977 44.0008L41.9668 88.8745L63.6866 62.6466C71.563 53.1354 81.7358 46.0761 93.1132 42.2266Z" fill="#FFFF00"/>
<path d="M38.8828 45.7729L65.9983 43.9986L90.0292 -0.875L68.3094 25.3529C60.433 34.864 50.2602 41.9234 38.8828 45.7729Z" fill="#FFFF00"/>
</g>
<g style="mix-blend-mode:multiply">
<path d="M94.0585 42.7305L66.943 44.5047L42.9121 89.3784L64.6319 63.1505C72.5083 53.6393 82.6811 46.58 94.0585 42.7305Z" fill="#00FFFF"/>
<path d="M39.8281 46.2768L66.9436 44.5025L90.9745 -0.371094L69.2547 25.8568C61.3784 35.3679 51.2055 42.4273 39.8281 46.2768Z" fill="#00FFFF"/>
</g>
<g style="mix-blend-mode:multiply">
<path d="M92.1698 41.7266L65.0543 43.5008L41.0234 88.3745L62.7433 62.1466C70.6196 52.6354 80.7925 45.5761 92.1698 41.7266Z" fill="#FF00FF"/>
<path d="M37.9395 45.2729L65.0549 43.4986L89.0858 -1.375L67.366 24.8529C59.4897 34.364 49.3168 41.4234 37.9395 45.2729Z" fill="#FF00FF"/>
</g>
<g style="mix-blend-mode:multiply">
<path fill-rule="evenodd" clip-rule="evenodd" d="M87.5426 3.77344L69.2551 25.8567C61.8271 34.8264 52.3568 41.6154 41.7598 45.5882L65.9992 44.0021L87.5426 3.77344ZM91.1829 42.9186C80.586 46.8914 71.1156 53.6804 63.6877 62.65L45.4001 84.7334L66.9434 44.5047L91.1829 42.9186ZM67.2547 43.9221L66.9439 44.5025L65.6879 44.5847L65.9987 44.0043L67.2547 43.9221Z" fill="#00FF00"/>
</g>
<g style="mix-blend-mode:multiply">
<path fill-rule="evenodd" clip-rule="evenodd" d="M86.5993 3.26953L68.3117 25.3528C60.8838 34.3225 51.4134 41.1115 40.8164 45.0843L65.0558 43.4982L86.5993 3.26953ZM90.2396 42.4146C79.6426 46.3875 70.1723 53.1765 62.7443 62.1461L44.4567 84.2295L66.0001 44.0008L90.2396 42.4146ZM66.3114 43.4182L66.0006 43.9986L64.7446 44.0808L65.0554 43.5004L66.3114 43.4182Z" fill="#FF0000"/>
</g>
<g style="mix-blend-mode:multiply">
<path fill-rule="evenodd" clip-rule="evenodd" d="M84.1096 7.91406L69.2543 25.8528C62.2314 34.3332 53.3828 40.8645 43.4824 44.9092L65.0538 43.4978L84.1096 7.91406ZM88.5139 43.0891C78.6136 47.1339 69.765 53.6651 62.7421 62.1456L47.8868 80.0843L66.9426 44.5006L88.5139 43.0891ZM67.566 43.3354L66.9432 44.4985L64.4304 44.6628L65.0532 43.4999L67.566 43.3354Z" fill="#0000FF"/>
</g>
<g style="mix-blend-mode:multiply">
<path fill-rule="evenodd" clip-rule="evenodd" d="M84.1096 7.91406L69.2543 25.8528C62.2314 34.3332 53.3828 40.8645 43.4824 44.9092L65.0538 43.4978L84.1096 7.91406ZM88.5139 43.0891C78.6136 47.1339 69.765 53.6652 62.7421 62.1456L47.8868 80.0843L66.9426 44.5006L88.5139 43.0891ZM66.3093 43.4177L65.9985 43.9981L64.7424 44.0803L65.0532 43.4999L66.3093 43.4177ZM66.9432 44.4985L67.254 43.9181L65.9979 44.0002L65.6871 44.5807L66.9432 44.4985Z" fill="black"/>
</g>
</g>
<defs>
<clipPath id="clip0_2056_27322">
<rect width="132" height="88" fill="white"/>
</clipPath>
</defs>
</svg>
