<svg width="132" height="88" viewBox="0 0 132 88" fill="none" xmlns="http://www.w3.org/2000/svg">
<mask id="mask0_2056_26565" style="mask-type:luminance" maskUnits="userSpaceOnUse" x="29" y="7" width="74" height="74">
<path d="M29.1504 7.14844H102.85V80.8483H29.1504V7.14844Z" fill="white"/>
</mask>
<g mask="url(#mask0_2056_26565)">
<path fill-rule="evenodd" clip-rule="evenodd" d="M96.317 44.0833C95.8324 42.1012 94.9134 40.2518 93.6246 38.6696C92.3361 37.0871 90.7112 35.8117 88.8678 34.9359C87.3264 34.2462 85.6509 33.9089 83.9622 33.9486C83.9059 33.9519 83.8495 33.9394 83.7997 33.9125C83.7499 33.8854 83.7076 33.8454 83.6796 33.7962C83.6512 33.7473 83.636 33.6913 83.6372 33.6346C83.6381 33.578 83.6557 33.5228 83.6858 33.4748C84.5607 32.033 85.1004 30.4132 85.2662 28.735C85.4329 26.696 85.1437 24.645 84.4176 22.7318C83.6924 20.8186 82.5491 19.0915 81.0719 17.6763C79.6226 16.2389 77.8475 15.1737 75.8976 14.5718C72.5009 13.5529 69.8228 14.0743 68.3694 16.0333C67.5619 17.1941 67.1197 18.5691 67.0979 19.9829C66.9506 21.477 67.3192 22.9763 68.1407 24.2329C68.5481 24.7929 69.0672 25.2628 69.6657 25.612C70.2639 25.9615 70.9282 26.1831 71.6165 26.263C72.2972 26.334 72.9855 26.2615 73.6379 26.0507C74.2892 25.8395 74.8897 25.4948 75.4002 25.0383C75.8845 24.6009 76.2748 24.0692 76.5468 23.4755C76.8178 22.8818 76.9651 22.2389 76.9792 21.5861C76.9911 21.2536 76.8817 20.9283 76.6702 20.671C76.46 20.4136 76.163 20.2422 75.8347 20.1885C75.5583 20.1548 75.2789 20.2103 75.0358 20.3471C74.7943 20.4837 74.6014 20.6942 74.4875 20.948C74.4117 21.1165 74.3727 21.299 74.3727 21.4835C74.3673 21.7838 74.2999 22.0793 74.1732 22.3516C74.0464 22.6238 73.8642 22.8663 73.6379 23.0637C73.4026 23.2769 73.1241 23.4385 72.8227 23.5378C72.5203 23.6371 72.2006 23.672 71.8842 23.6401C71.5613 23.6016 71.2491 23.4969 70.9673 23.3326C70.6855 23.1683 70.4416 22.9477 70.2498 22.6844C69.7751 21.9061 69.5744 20.9909 69.6809 20.0854C69.6904 19.1811 69.9648 18.2994 70.4708 17.5497C71.4897 16.1835 73.8437 16.6336 75.1551 17.0282C76.7006 17.5098 78.1075 18.3582 79.2541 19.501C80.4421 20.6435 81.3632 22.0334 81.9551 23.5718C82.5458 25.1102 82.7918 26.7595 82.6746 28.4034C82.4796 29.9251 81.9238 31.3782 81.0546 32.6422C80.1841 33.906 79.0254 34.9443 77.6751 35.671L77.611 35.7181L77.272 35.9155C77.105 36.0127 76.9088 36.0455 76.7191 36.0076C76.5307 35.9701 76.3616 35.8642 76.2444 35.7106C75.0185 34.1624 73.4569 32.9121 71.6794 32.0524C69.9007 31.193 67.9511 30.7466 65.9761 30.7469C64.0003 30.7469 62.0516 31.1933 60.2732 32.0527C58.4945 32.9121 56.934 34.1624 55.707 35.71C55.591 35.8618 55.4231 35.9665 55.2355 36.004C55.0492 36.0419 54.8542 36.0103 54.6884 35.9155L54.3478 35.7181L54.2852 35.671C52.9347 34.9434 51.7771 33.9048 50.9067 32.641C50.0374 31.3773 49.4816 29.9248 49.2854 28.4034C49.1715 26.7601 49.4199 25.1117 50.0103 23.5739C50.601 22.0361 51.5204 20.6459 52.7048 19.501C53.8549 18.358 55.2648 17.5098 56.8124 17.0286C58.1238 16.6336 60.4781 16.1755 61.4967 17.5501C62.0039 18.299 62.2795 19.1811 62.2869 20.0854C62.3922 20.99 62.1948 21.9037 61.7254 22.6844C61.5337 22.9477 61.2898 23.1683 61.008 23.3326C60.7274 23.4972 60.414 23.6019 60.091 23.6404C59.7734 23.6744 59.4517 23.6404 59.1481 23.5408C58.8446 23.4415 58.5652 23.2787 58.3299 23.0634C58.1033 22.866 57.9214 22.6232 57.7943 22.3513C57.6688 22.0793 57.6005 21.7835 57.5951 21.4835C57.5951 21.299 57.5561 21.1165 57.48 20.948C57.4043 20.7795 57.2937 20.6292 57.1562 20.5067C57.0172 20.3844 56.8547 20.2926 56.6791 20.2377C56.5026 20.1828 56.3171 20.1658 56.1331 20.1885C55.8045 20.2419 55.5075 20.4136 55.2964 20.671C55.0861 20.9283 54.9755 21.2539 54.9883 21.5864C55.0027 22.2392 55.15 22.8821 55.4219 23.4755C55.6942 24.0692 56.083 24.6012 56.5676 25.0386C57.0781 25.496 57.6786 25.841 58.3299 26.0519C58.9811 26.263 59.6706 26.3345 60.3513 26.2627C61.0417 26.192 61.7081 25.9785 62.3108 25.6359C62.9134 25.293 63.4379 24.8287 63.8509 24.2719C64.6757 23.0198 65.0464 21.5226 64.9021 20.0301C64.874 18.6176 64.4318 17.2444 63.6297 16.0809C62.1688 14.1216 59.4982 13.6001 56.1015 14.6191C54.1507 15.2192 52.3753 16.2846 50.9273 17.7235C49.4491 19.1377 48.3046 20.8648 47.5782 22.7783C46.8533 24.6918 46.5638 26.7431 46.7329 28.7827C46.8987 30.4609 47.4387 32.0807 48.3133 33.5222C48.3446 33.5699 48.361 33.6251 48.3619 33.682C48.364 33.739 48.3491 33.795 48.3207 33.8442C48.2927 33.8931 48.2504 33.9334 48.2006 33.9602C48.1505 33.9871 48.0932 33.9996 48.0369 33.9963C46.3515 33.9576 44.678 34.2948 43.1391 34.9836C41.2965 35.8603 39.6708 37.1357 38.381 38.7176C37.0913 40.2998 36.17 42.1486 35.6823 44.1307C35.1642 46.105 35.1285 48.1751 35.5794 50.1658C36.3695 53.618 38.186 55.6955 40.6115 55.9481C40.824 55.9639 41.0386 55.9639 41.251 55.9481C42.4508 55.9186 43.6257 55.6046 44.6792 55.0317C46.0503 54.4174 47.1664 53.349 47.8395 52.0066C48.118 51.3732 48.2623 50.6882 48.2623 49.9961C48.2623 49.3037 48.118 48.6191 47.8395 47.9857C47.5621 47.3583 47.1545 46.7965 46.6464 46.3367C46.1368 45.8766 45.5365 45.5289 44.885 45.3157C44.2641 45.1132 43.6084 45.0387 42.9581 45.0971C42.3077 45.1556 41.6759 45.3455 41.1014 45.6554C40.8055 45.811 40.5769 46.0698 40.4587 46.3829C40.3406 46.696 40.3417 47.0414 40.462 47.3539C40.5335 47.5229 40.6408 47.675 40.7763 47.7997C40.9118 47.9243 41.0722 48.0188 41.2467 48.0767C41.4222 48.1351 41.6065 48.156 41.7897 48.1375C41.9728 48.119 42.1505 48.0618 42.3098 47.9699C42.5743 47.817 42.868 47.7224 43.1716 47.6926C43.476 47.6625 43.7829 47.698 44.0712 47.7961C44.3745 47.8948 44.653 48.0564 44.8903 48.2702C45.1268 48.4837 45.3165 48.7449 45.4453 49.0363C45.5756 49.3342 45.6415 49.6556 45.6415 49.9803C45.6415 50.3051 45.5756 50.6265 45.4453 50.9244C45.0096 51.7239 44.3172 52.3528 43.4793 52.7094C42.7001 53.1656 41.8037 53.38 40.9042 53.3255C39.2058 53.1281 38.4233 50.8612 38.1068 49.5262C37.7524 47.9461 37.7849 46.3036 38.2022 44.739C38.5967 43.138 39.3391 41.6432 40.3774 40.3612C41.4146 39.0793 42.7219 38.0416 44.2054 37.3218C45.62 36.7322 47.1545 36.488 48.6816 36.6088C50.2089 36.7296 51.6862 37.2123 52.9899 38.0171L53.4008 38.2536C53.5666 38.3499 53.6912 38.5032 53.7517 38.6848C53.8135 38.8667 53.806 39.0644 53.7324 39.2412C52.9931 41.1321 52.7039 43.1681 52.8849 45.1899C53.0659 47.2116 53.7127 49.1642 54.7748 50.8937C55.837 52.6235 57.2862 54.0835 59.0074 55.1591C60.7283 56.2349 62.6761 56.8969 64.6963 57.0937V58.0101C64.6886 58.0888 64.6886 58.1681 64.6963 58.2468C64.744 59.7801 64.4252 61.3024 63.7653 62.6875C63.1063 64.0726 62.1256 65.28 60.9039 66.2092C59.5385 67.1348 57.9852 67.7494 56.3561 68.0106C54.7262 68.2706 53.0593 68.171 51.4726 67.718C49.8988 67.28 48.454 66.4671 47.2631 65.3483C46.2593 64.4084 44.6879 62.5915 45.3663 61.0275C45.7685 60.2194 46.4013 59.5488 47.1837 59.0997C47.9155 58.5632 48.8041 58.2853 49.7112 58.3101C50.0354 58.3435 50.3497 58.4433 50.6335 58.6038C50.9177 58.7642 51.1658 58.9813 51.362 59.2419C51.5472 59.5007 51.6775 59.7951 51.7425 60.1067C51.8075 60.4183 51.8075 60.7397 51.7413 61.051C51.6817 61.3507 51.5591 61.6343 51.3814 61.8833C51.2049 62.1323 50.9773 62.3413 50.7149 62.4967C50.4624 62.6401 50.2653 62.8644 50.1558 63.133C50.0461 63.4017 50.03 63.6996 50.109 63.9787C50.1621 64.1639 50.2554 64.335 50.3833 64.4794C50.601 64.7108 50.8939 64.8587 51.209 64.8977C51.5245 64.9368 51.8442 64.8643 52.1132 64.6926C52.6681 64.3508 53.1482 63.8994 53.523 63.3656C53.8981 62.8316 54.1606 62.2268 54.2927 61.5884C54.4346 60.9184 54.4334 60.2265 54.2906 59.5568C54.1486 58.8874 53.8668 58.2552 53.4634 57.7017C53.0495 57.1462 52.525 56.6825 51.9223 56.3399C51.3197 55.9973 50.6532 55.7832 49.9638 55.711C48.4672 55.621 46.9854 56.0507 45.7694 56.9279C44.5492 57.6505 43.5747 58.7239 42.9733 60.0083C42.0021 62.2516 42.8939 64.8271 45.4691 67.2606C46.9649 68.6478 48.7761 69.6503 50.7462 70.1826C52.0112 70.5401 53.3182 70.7202 54.6329 70.7202C57.4097 70.7429 60.1247 69.8975 62.3975 68.3022C63.7674 67.3149 64.8967 66.0294 65.7 64.5426C65.7281 64.4931 65.7683 64.4522 65.8181 64.4236C65.8667 64.3953 65.9231 64.3801 65.9794 64.3801C66.037 64.3801 66.0921 64.3953 66.1419 64.4236C66.1908 64.4522 66.232 64.4931 66.2603 64.5426C67.0654 66.0294 68.1971 67.3149 69.5703 68.3022C71.8398 69.8987 74.5525 70.7441 77.3271 70.7202C78.6407 70.7211 79.9489 70.5401 81.2138 70.1826C83.1831 69.6503 84.994 68.6478 86.4897 67.2606C89.0736 64.8271 89.958 62.2516 88.9859 60.0083C88.3844 58.7266 87.4132 57.654 86.1984 56.9279C84.9779 56.0518 83.4941 55.6222 81.9951 55.711C81.3068 55.7823 80.6416 55.9961 80.0398 56.3387C79.4395 56.6813 78.9159 57.1456 78.5041 57.7017C78.0998 58.2543 77.8171 58.8865 77.674 59.5562C77.5308 60.2262 77.5308 60.9186 77.6751 61.5884C77.8052 62.228 78.0652 62.8336 78.4412 63.368C78.8163 63.9021 79.2976 64.3532 79.8546 64.6926C80.1233 64.864 80.4421 64.9362 80.7585 64.8974C81.0739 64.8584 81.3665 64.7105 81.5856 64.4794C81.7091 64.3336 81.8 64.1627 81.8522 63.9781C81.9292 63.6996 81.9119 63.4035 81.8033 63.1357C81.6951 62.8679 81.5021 62.6434 81.2529 62.4967C80.9872 62.3443 80.7576 62.1365 80.5807 61.8869C80.403 61.6373 80.2828 61.3522 80.2265 61.051C80.1582 60.74 80.157 60.4177 80.222 60.1061C80.2882 59.7942 80.4182 59.4998 80.6058 59.2419C80.8008 58.9825 81.048 58.7657 81.3298 58.6056C81.6125 58.4451 81.9247 58.3447 82.2488 58.3101C83.1559 58.2832 84.0457 58.5614 84.7763 59.0997C85.5608 59.5488 86.196 60.2191 86.6003 61.0275C87.2722 62.607 85.7007 64.4084 84.7047 65.3483C83.5126 66.4445 82.0732 67.2376 80.5104 67.6626C78.9258 68.1167 77.261 68.2187 75.6331 67.9608C74.0053 67.7028 72.4532 67.0915 71.0866 66.1701C69.8694 65.2392 68.8919 64.0327 68.2317 62.6497C67.5727 61.2666 67.2518 59.7468 67.2953 58.2149V57.7411C67.2933 57.5482 67.3624 57.3612 67.4892 57.2157C67.615 57.0702 67.7906 56.9762 67.9824 56.9515C71.0788 56.4774 73.9033 54.9151 75.9507 52.5448C77.9981 50.1748 79.1327 47.152 79.1524 44.0204C79.15 42.3982 78.8444 40.7906 78.2515 39.2809C78.1779 39.1041 78.1704 38.9064 78.2322 38.7248C78.2927 38.5432 78.4173 38.3899 78.5834 38.2936L79.0018 38.0485C80.3067 37.2436 81.7848 36.7609 83.3143 36.6401C84.8425 36.5193 86.3782 36.7635 87.7937 37.3531C89.2751 38.0756 90.5791 39.1142 91.6151 40.3958C92.6513 41.6775 93.3938 43.1708 93.7895 44.7709C94.2001 46.3343 94.2272 47.9735 93.8685 49.5498C93.5521 50.8848 92.7705 53.1516 91.0798 53.349C90.1769 53.4048 89.2775 53.1904 88.4972 52.733C87.6592 52.3766 86.9656 51.7474 86.53 50.948C86.4009 50.6501 86.3338 50.3286 86.3338 50.0039C86.3338 49.6792 86.4009 49.3577 86.53 49.0598C86.6588 48.7685 86.8484 48.5076 87.0858 48.2941C87.3223 48.0803 87.6017 47.9189 87.904 47.8199C88.4471 47.6374 89.0411 47.6771 89.5548 47.9306C89.8292 48.0967 90.1521 48.1652 90.4706 48.125C90.7894 48.085 91.084 47.9386 91.3085 47.7093C91.4982 47.4907 91.6088 47.2152 91.6228 46.9268C91.638 46.6382 91.5557 46.3531 91.3896 46.1164C91.2793 45.9595 91.1362 45.8289 90.9692 45.7344C90.3871 45.4022 89.7424 45.1955 89.0759 45.1276C88.4092 45.0596 87.735 45.1317 87.0989 45.3396C86.4507 45.548 85.8546 45.8897 85.3473 46.343C84.8392 46.7959 84.4328 47.35 84.1519 47.9699C83.8734 48.6033 83.7293 49.2879 83.7293 49.98C83.7293 50.6724 83.8734 51.3571 84.1519 51.9905C84.8273 53.3317 85.9425 54.4002 87.3112 55.0159C88.549 55.7113 89.9666 56.017 91.3801 55.8929C93.7969 55.6165 95.5897 53.5229 96.4034 50.1106C96.8609 48.1238 96.8316 46.0561 96.317 44.0833ZM65.9991 33.4512C67.4644 33.4518 68.9133 33.7584 70.254 34.3515C71.5938 34.9446 72.7946 35.8111 73.7807 36.8953C73.861 36.9833 73.9206 37.0883 73.9543 37.2028C73.9889 37.317 73.9966 37.4375 73.977 37.5552C73.9588 37.673 73.9131 37.7849 73.8449 37.8827C73.7766 37.9802 73.6865 38.0613 73.5824 38.1197L66.7902 42.0693C66.5496 42.2079 66.2776 42.2807 66 42.2807C65.7227 42.2807 65.4495 42.2079 65.2101 42.0693L58.4167 38.1197C58.3126 38.061 58.2237 37.9796 58.1554 37.8815C58.0881 37.7834 58.0436 37.6712 58.0254 37.5535C58.0069 37.4357 58.0156 37.3152 58.0502 37.2013C58.0851 37.0871 58.1456 36.9827 58.227 36.8953C59.211 35.8114 60.411 34.9452 61.7493 34.3518C63.0879 33.759 64.5359 33.4521 65.9991 33.4512ZM55.4544 44.0204C55.4568 42.9484 55.6226 41.8829 55.9443 40.8604C55.9801 40.7474 56.041 40.6439 56.1221 40.5574C56.2035 40.4713 56.3031 40.4045 56.4137 40.3618C56.5252 40.3195 56.6436 40.3025 56.7617 40.3123C56.8807 40.3219 56.9946 40.3583 57.0975 40.4182L63.9061 44.3678C64.1467 44.5061 64.3462 44.7053 64.4837 44.9454C64.6226 45.1851 64.6963 45.4574 64.6963 45.7344V53.5864C64.7005 53.7674 64.6432 53.9448 64.5326 54.0882C64.422 54.2317 64.2648 54.3328 64.0883 54.3742C63.9711 54.4019 63.8497 54.4025 63.7328 54.376C61.3777 53.8548 59.2719 52.543 57.7663 50.659C56.2598 48.775 55.4437 46.4321 55.4544 44.0204ZM76.5456 44.0204C76.5369 46.4166 75.7145 48.739 74.211 50.6054C72.7078 52.4714 70.6139 53.7707 68.274 54.2892C68.158 54.3146 68.0367 54.3128 67.9207 54.2845C67.8047 54.2564 67.6973 54.2019 67.6052 54.1258C67.513 54.0498 67.4394 53.9538 67.3908 53.8452C67.3407 53.737 67.3159 53.6186 67.3192 53.4993V45.6554C67.3192 45.3783 67.3929 45.1064 67.5303 44.8663C67.6693 44.6266 67.8688 44.4274 68.1082 44.289L74.9103 40.3395C75.0132 40.2795 75.128 40.2438 75.2464 40.2345C75.3653 40.2253 75.4846 40.2429 75.5952 40.2861C75.7059 40.3296 75.8055 40.3973 75.8869 40.4844C75.968 40.5715 76.0288 40.6758 76.0634 40.7894C76.3908 41.8349 76.5533 42.9248 76.5456 44.0204Z" fill="#100F0F"/>
<path d="M40.0378 27.8333C40.2968 27.657 40.5872 27.5339 40.894 27.4707C41.2007 27.4075 41.5172 27.4057 41.8239 27.4653C42.1317 27.5249 42.4244 27.6448 42.6845 27.8184C42.9457 27.9916 43.169 28.215 43.3423 28.4753C43.5167 28.7353 43.6372 29.0275 43.6977 29.3347C43.7586 29.6418 43.7574 29.9579 43.6944 30.2647C43.6318 30.5716 43.5093 30.8629 43.3336 31.1217C43.158 31.3809 42.9326 31.6027 42.6704 31.7742C42.148 32.1135 41.5128 32.2337 40.9026 32.1082C40.2913 31.9826 39.7549 31.6215 39.4091 31.1033C39.0634 30.585 38.9344 29.9513 39.0525 29.3391C39.1707 28.7273 39.524 28.1863 40.0378 27.8333ZM90.6458 27.4337C90.0172 27.4337 89.4145 27.6836 88.9702 28.1279C88.5259 28.5725 88.2755 29.1751 88.2755 29.8037C88.2755 30.4323 88.5259 31.035 88.9702 31.4796C89.4145 31.9239 90.0172 32.1735 90.6458 32.1735C91.2744 32.1735 91.877 31.9239 92.3213 31.4796C92.7656 31.035 93.0149 30.4323 93.0149 29.8037C93.0149 29.1751 92.7656 28.5725 92.3213 28.1279C91.877 27.6836 91.2744 27.4337 90.6458 27.4337ZM65.9996 70.0896C65.6885 70.0896 65.3808 70.1513 65.0936 70.2706C64.8053 70.3895 64.5441 70.5643 64.324 70.7841C64.1039 71.0041 63.9295 71.2653 63.8102 71.5525C63.6912 71.8409 63.6304 72.1486 63.6304 72.4599C63.6304 72.7709 63.6912 73.0798 63.8102 73.367C63.9295 73.6542 64.1039 73.9154 64.324 74.1354C64.5441 74.3555 64.8065 74.53 65.0936 74.6492C65.3808 74.7682 65.6885 74.8299 66.0007 74.8299C66.6293 74.829 67.232 74.5798 67.6763 74.1354C68.1206 73.6908 68.3699 73.0885 68.3699 72.4599C68.3699 71.831 68.1206 71.2287 67.6754 70.7841C67.2308 70.3398 66.6281 70.0896 65.9996 70.0896Z" fill="#100F0F"/>
<path fill-rule="evenodd" clip-rule="evenodd" d="M66.0004 7.14844C45.6485 7.14844 29.1504 23.6469 29.1504 43.9985C29.1504 64.3502 45.6485 80.8483 66.0004 80.8483C86.3524 80.8483 102.85 64.3502 102.85 43.9985C102.85 23.6469 86.3524 7.14844 66.0004 7.14844ZM31.757 43.9985C31.757 25.0865 47.0887 9.75503 66.0004 9.75503C84.9121 9.75503 100.244 25.0863 100.244 43.9985C100.244 62.9105 84.9121 78.2418 66.0004 78.2418C47.0887 78.2418 31.757 62.9105 31.757 43.9985Z" fill="#100F0F"/>
</g>
</svg>
