<svg width="132" height="88" viewBox="0 0 132 88" fill="none" xmlns="http://www.w3.org/2000/svg">
<path fill-rule="evenodd" clip-rule="evenodd" d="M37.9671 35.8512C38.2869 36.4823 38.7524 37.0285 39.3253 37.4441C39.9256 37.8674 40.6001 38.1741 41.3137 38.3487C42.0854 38.5466 42.8793 38.6457 43.6761 38.6437C44.2692 38.6407 44.8613 38.5947 45.4478 38.506C46.0618 38.4193 46.6591 38.2402 47.2196 37.9751C47.7558 37.7249 48.2273 37.3548 48.5976 36.8936C48.9649 36.4351 49.1486 35.8516 49.1488 35.1434C49.1488 34.3833 48.906 33.7671 48.4204 33.2948C47.9348 32.8227 47.2984 32.4294 46.5112 32.115C45.6403 31.7745 44.7454 31.4984 43.8338 31.2891C42.8361 31.0531 41.8256 30.7909 40.8022 30.5025C39.7601 30.2432 38.7345 29.9214 37.7311 29.5391C36.7715 29.1803 35.8696 28.6834 35.0538 28.064C34.262 27.456 33.6107 26.6847 33.1443 25.8026C32.6583 24.898 32.4155 23.8034 32.4159 22.5186C32.4159 21.0769 32.7243 19.8249 33.3411 18.7627C33.9462 17.7131 34.7722 16.8074 35.7621 16.108C36.7882 15.3867 37.9349 14.854 39.1482 14.5348C40.3799 14.1979 41.6509 14.026 42.928 14.0235C44.3534 14.0185 45.7743 14.1836 47.1605 14.5152C48.5121 14.8434 49.713 15.3743 50.7632 16.1081C51.8067 16.8356 52.6633 17.7991 53.2633 18.9201C53.8796 20.0607 54.188 21.4437 54.1884 23.0694H48.2038C48.151 22.2305 47.9738 21.5357 47.6723 20.9849C47.3905 20.4562 46.9768 20.0091 46.4713 19.687C45.9459 19.362 45.3656 19.1354 44.7588 19.0183C44.065 18.8825 43.3593 18.8166 42.6523 18.8216C42.1495 18.8222 41.6481 18.8749 41.1562 18.9789C40.6734 19.0777 40.2129 19.2644 39.7979 19.5299C39.3985 19.7845 39.0565 20.1194 38.7938 20.5132C38.5312 20.9066 38.3999 21.4047 38.4001 22.0078C38.4001 22.5584 38.5051 23.0041 38.7151 23.345C38.9251 23.6858 39.3385 24.0004 39.9553 24.2889C40.5717 24.5777 41.4248 24.8661 42.5146 25.1541C43.6034 25.4429 45.0274 25.81 46.7865 26.2553C47.3112 26.3604 48.0396 26.5505 48.9717 26.8256C49.9566 27.1263 50.8919 27.5702 51.7473 28.1431C52.6658 28.7466 53.4599 29.5528 54.1294 30.5617C54.7989 31.5706 55.1336 32.8618 55.1334 34.4354C55.1441 35.6682 54.8891 36.889 54.3852 38.0146C53.8784 39.1263 53.1163 40.1033 52.1608 40.8659C51.1765 41.666 49.9558 42.2887 48.4991 42.7341C47.0424 43.1793 45.356 43.4023 43.4398 43.4027C41.9189 43.4059 40.4038 43.2143 38.9317 42.8324C37.475 42.4525 36.1888 41.856 35.0732 41.0427C33.9562 40.229 33.0459 39.1649 32.4155 37.9357C31.7592 36.6771 31.4442 35.1826 31.4706 33.4522H37.4552C37.4552 34.396 37.6258 35.1958 37.9671 35.8512ZM71.5905 31.9184L68.0471 21.6141H67.9682L64.3066 31.9184H71.5905ZM71.2362 14.6921L81.7487 42.7733H75.3309L73.2048 36.5199H62.6923L60.4875 42.7733H54.267L64.8973 14.6921H71.2362ZM39.345 73.9732L30.25 45.8923H36.5891L42.8492 65.6356H42.928L49.267 45.8923H55.6452L46.314 73.9734L39.345 73.9732ZM78.2839 45.8921V51.0841H63.4407V57.1015H77.0632V61.8997H63.4407V68.782H78.5989V73.9734H57.2591V45.8921H78.2839ZM101.435 45.8921V51.0841H86.5914V57.1015H100.214V61.8997H86.5914V68.782H101.75V73.9734H80.4098V45.8921H101.435Z" fill="black"/>
</svg>
