<svg width="132" height="88" viewBox="0 0 132 88" fill="none" xmlns="http://www.w3.org/2000/svg">
<path d="M66.0005 75.9852C83.6651 75.9852 97.9852 61.6651 97.9852 44.0005C97.9852 26.3359 83.6651 12.0156 66.0005 12.0156C48.3359 12.0156 34.0156 26.3359 34.0156 44.0005C34.0156 61.6651 48.3359 75.9852 66.0005 75.9852Z" fill="#0A2540"/>
<path fill-rule="evenodd" clip-rule="evenodd" d="M52.5601 23.1278C57.374 18.9918 63.6338 16.4922 70.4778 16.4922C70.5416 16.4922 70.6045 16.4924 70.6675 16.4928L68.2448 47.2706C68.1639 48.2999 67.2641 49.0691 66.2337 48.9879L52.4862 47.9058C51.4566 47.825 50.6871 46.9246 50.768 45.895L52.5601 23.1278ZM46.0413 56.6395C44.0792 52.8547 42.9707 48.5562 42.9707 43.9992C42.9707 39.8978 43.8683 36.006 45.4785 32.5099L46.0613 32.5559C47.0908 32.6367 47.8594 33.5371 47.7784 34.5667L46.0413 56.6395ZM66.3616 71.1997C59.6439 70.1921 53.7206 66.7549 49.5156 61.8106L50.1734 53.4625C50.2543 52.4329 51.1538 51.664 52.1834 51.7451L65.9317 52.827C66.9613 52.9081 67.7311 53.8084 67.6491 54.838L66.3616 71.1997ZM88.3211 64.9338C83.5185 69.0319 77.2876 71.5055 70.4778 71.5055C70.3917 71.5055 70.3059 71.5055 70.2198 71.5047L72.8197 38.4689C72.9005 37.4393 73.8011 36.6704 74.8307 36.7513L88.5791 37.8334C89.6087 37.9145 90.3773 38.8149 90.2962 39.8442L88.3211 64.9338ZM94.8551 31.2427C96.8541 35.0556 97.9846 39.3954 97.9846 43.9992C97.9846 48.0986 97.0881 51.9888 95.4799 55.4837L94.8271 55.4323C93.7975 55.3512 93.028 54.4508 93.1089 53.4215L94.8551 31.2427ZM91.3767 26.1132L90.8921 32.277C90.811 33.3063 89.9104 34.0752 88.881 33.9944L75.1324 32.9123C74.1031 32.8314 73.3342 31.9311 73.4153 30.9015L74.5258 16.7878C81.2385 17.7778 87.1617 21.1923 91.3767 26.1132Z" fill="#17A3CE"/>
</svg>
