<svg width="132" height="88" viewBox="0 0 132 88" fill="none" xmlns="http://www.w3.org/2000/svg">
<path d="M87.0575 13.062H44.9417C39.4854 13.062 35.0622 17.4853 35.0622 22.9416V65.0574C35.0622 70.5137 39.4854 74.937 44.9417 74.937H87.0575C92.5139 74.937 96.9372 70.5137 96.9372 65.0574V22.9416C96.9372 17.4853 92.5139 13.062 87.0575 13.062Z" fill="#000E27"/>
<path fill-rule="evenodd" clip-rule="evenodd" d="M44.9416 15.0109C40.5616 15.0109 37.0109 18.5616 37.0109 22.9416V65.0575C37.0109 69.4374 40.5616 72.9883 44.9416 72.9883H87.0575C91.4374 72.9883 94.9883 69.4374 94.9883 65.0575V22.9416C94.9883 18.5616 91.4374 15.0109 87.0575 15.0109H44.9416ZM33.1133 22.9416C33.1133 16.409 38.409 11.1133 44.9416 11.1133H87.0575C93.5902 11.1133 98.8859 16.409 98.8859 22.9416V65.0575C98.8859 71.5902 93.5902 76.8859 87.0575 76.8859H44.9416C38.409 76.8859 33.1133 71.5902 33.1133 65.0575V22.9416Z" fill="#007AD1"/>
<path d="M59.2744 50.3502C59.2744 49.1901 58.8635 48.2957 58.0417 47.6674C57.2321 47.0389 55.7637 46.4044 53.6368 45.764C51.5098 45.1233 49.8179 44.4105 48.5611 43.6249C46.1562 42.1144 44.9537 40.1445 44.9537 37.7154C44.9537 35.5884 45.8178 33.8361 47.546 32.4584C49.2862 31.0807 51.54 30.3919 54.3075 30.3919C56.1444 30.3919 57.7819 30.7303 59.22 31.407C60.658 32.0838 61.788 33.0506 62.6099 34.3074C63.4316 35.5522 63.8425 36.936 63.8425 38.4586H59.2744C59.2744 37.0809 58.8393 36.0054 57.9692 35.2319C57.1112 34.4464 55.8785 34.0536 54.2712 34.0536C52.7727 34.0536 51.6065 34.3739 50.7726 35.0144C49.9509 35.6549 49.54 36.5492 49.54 37.6973C49.54 38.6641 49.9871 39.4736 50.8814 40.1264C51.7757 40.7668 53.2501 41.3954 55.3045 42.0115C57.3589 42.6159 59.0086 43.3107 60.2533 44.0962C61.498 44.8697 62.4104 45.764 62.9905 46.779C63.5706 47.7822 63.8606 48.9604 63.8606 50.3139C63.8606 52.5135 63.0147 54.2656 61.3227 55.5709C59.643 56.8641 57.359 57.5105 54.4706 57.5105C52.5612 57.5105 50.8029 57.1601 49.1955 56.4591C47.6003 55.7462 46.3556 54.7673 45.4613 53.5226C44.5791 52.2776 44.138 50.8274 44.138 49.172H48.7242C48.7242 50.6704 49.2197 51.8306 50.2107 52.6525C51.2016 53.4741 52.6216 53.8851 54.4706 53.8851C56.0658 53.8851 57.2623 53.5649 58.0599 52.9242C58.8696 52.2717 59.2744 51.4137 59.2744 50.3502Z" fill="#007AD1"/>
<path d="M88.0246 48.5556C87.7588 51.3714 86.7193 53.5708 84.9067 55.154C83.094 56.7249 80.6829 57.5105 77.6737 57.5105C75.571 57.5105 73.716 57.0149 72.1086 56.0242C70.5135 55.021 69.2809 53.601 68.4108 51.7641C67.5407 49.9272 67.0874 47.7943 67.0511 45.3652V42.8997C67.0511 40.4103 67.4922 38.2168 68.3744 36.3196C69.2567 34.4222 70.5194 32.96 72.163 31.9327C73.8187 30.9055 75.728 30.3919 77.8913 30.3919C80.8038 30.3919 83.1484 31.1834 84.9247 32.7666C86.7013 34.3497 87.7346 36.5854 88.0246 39.4736H83.4565C83.2389 37.5764 82.683 36.2108 81.7887 35.3769C80.9064 34.531 79.6073 34.108 77.8913 34.108C75.8974 34.108 74.3626 34.8391 73.287 36.3014C72.2236 37.7517 71.6796 39.8846 71.6556 42.7004V45.0388C71.6556 47.891 72.163 50.0661 73.1782 51.5648C74.2054 53.0632 75.704 53.8127 77.6737 53.8127C79.4745 53.8127 80.8281 53.4076 81.7343 52.5981C82.6407 51.7883 83.2149 50.4407 83.4565 48.5556H88.0246Z" fill="#007AD1"/>
</svg>
