<svg width="132" height="88" viewBox="0 0 132 88" fill="none" xmlns="http://www.w3.org/2000/svg">
<path d="M71.485 6.81582C67.9515 5.40245 63.9941 5.82646 60.7433 7.94651C59.754 8.6532 58.9059 9.35989 58.0579 10.3492C55.3725 11.4799 41.5215 18.1228 37.14 32.6805C35.02 40.03 36.8573 44.1288 38.8361 46.3902C38.412 47.5209 37.988 48.7929 37.8467 50.6303C37.564 55.0117 38.1294 57.9798 39.8254 59.6759C40.6735 60.5239 41.6628 61.0892 42.7935 61.2306V61.3719C42.7935 62.644 42.9348 63.7747 43.0762 65.0467C42.7935 65.7534 42.6522 66.6014 42.7935 67.5908C42.9349 69.8522 43.9242 72.5376 47.0336 73.9509C50.8497 78.7564 56.6445 82.0072 63.2874 82.0072H68.5169C75.1597 82.0072 80.9545 78.8977 84.7707 73.9509C87.8801 72.5376 88.8694 69.8522 89.0108 67.5908C89.1521 66.7427 89.0108 65.8947 88.7281 65.0467C88.8694 63.916 89.0108 62.644 89.0108 61.3719V61.0893C90.1415 60.8066 91.1308 60.3826 91.9788 59.5345C93.6749 57.8385 94.2402 54.8704 93.9576 50.489C93.8162 48.3689 93.2509 46.8142 92.6855 45.6835C94.0989 44.1288 94.9469 42.0087 95.5123 39.4647C96.5016 34.0938 94.9469 27.875 91.2722 22.2215C87.032 15.7201 80.1065 10.3492 71.485 6.81582ZM92.4029 38.8993C91.6962 43.1394 89.1521 45.6835 85.6187 45.8248C80.6719 45.9662 74.877 43.2808 69.6476 38.0513C63.2874 31.9738 58.7646 23.4936 58.7646 17.8401C58.7646 17.6988 58.7646 17.5574 58.7646 17.4161C58.9059 14.7307 60.178 12.1866 62.5807 10.6319C63.9941 9.64256 65.5488 9.21855 67.2448 9.21855C68.2342 9.21855 69.3649 9.35989 70.3543 9.7839C88.8694 17.2748 93.6749 31.4084 92.4029 38.8993ZM84.3466 67.1668C81.6612 69.9935 76.0077 67.4494 73.0397 65.8947C70.2129 64.34 67.9515 63.2093 66.9622 65.7534C65.9728 68.2974 67.2448 74.0923 76.9971 74.799C77.8451 74.799 78.5518 74.9403 79.2585 74.799C76.2904 77.0604 72.6157 78.4737 68.6582 78.4737H63.4287C59.4713 78.4737 55.7965 77.0604 52.8284 74.799C53.5351 74.799 54.2418 74.799 55.0898 74.799C64.8421 74.0923 66.1141 68.2974 65.1248 65.7534C64.1354 63.2093 61.874 64.34 59.0473 65.8947C56.2205 67.4494 50.4257 70.1348 47.7403 67.1668C45.0549 64.34 48.871 60.6652 48.871 60.6652C47.8816 60.6652 47.0336 60.9479 46.3269 61.3719C46.3269 61.2306 46.3269 61.2306 46.3269 61.0893V49.7823C47.175 49.9236 47.8816 49.9236 48.7297 49.9236C50.9911 49.9236 53.1111 49.4996 54.6658 48.9342C59.754 47.0969 65.8315 42.8568 68.3755 41.1607C73.8877 46.2488 79.9652 49.0756 85.4773 49.0756C85.6187 49.0756 85.76 49.0756 86.0427 49.0756C86.184 49.0756 86.184 49.0756 86.3254 49.0756V61.2306C86.3254 61.3719 86.3254 61.3719 86.3254 61.5133C85.4773 61.0892 84.6293 60.8066 83.7813 60.8066C83.3573 60.8066 87.0321 64.34 84.3466 67.1668ZM40.2494 33.5285C43.0762 23.9176 50.8497 17.9815 55.6552 15.1547C55.5138 15.8614 55.3725 16.5681 55.3725 17.2748C55.3725 17.4161 55.3725 17.6988 55.3725 17.8401C55.3725 23.9176 59.4713 32.2565 65.6901 38.758C63.1461 40.5954 57.6339 44.2701 53.2525 45.8248C50.2844 46.9555 44.6309 47.0969 41.5215 44.2701C39.2601 42.1501 38.8361 38.6166 40.2494 33.5285ZM41.2388 50.7716C41.3801 49.7823 41.5215 48.9342 41.6628 48.3689C42.0868 48.5102 42.5108 48.7929 42.9349 48.9342V57.6972C42.6522 57.5558 42.5108 57.4145 42.3695 57.2731C41.3801 56.2838 40.9561 54.1637 41.2388 50.7716ZM89.1521 48.3689C89.5761 48.2276 89.8588 48.0862 90.1415 47.8036C90.4241 48.5102 90.7068 49.4996 90.7068 50.7716C90.9895 54.1637 90.5655 56.2838 89.7175 57.2731C89.5761 57.4145 89.4348 57.5558 89.1521 57.6972V48.3689Z" fill="#1050FF"/>
</svg>
