<svg width="132" height="88" viewBox="0 0 132 88" fill="none" xmlns="http://www.w3.org/2000/svg">
<path fill-rule="evenodd" clip-rule="evenodd" d="M52.6856 12.3021C51.3216 12.3021 50.0405 12.643 48.9196 13.2434L47.8769 11.2967C49.3106 10.5288 50.949 10.0938 52.6856 10.0938H55.392V12.3021H52.6856ZM64.0523 12.3021H58.6396V10.0938H64.0523V12.3021ZM72.7126 12.3021H67.2999V10.0938H72.7126V12.3021ZM78.6666 12.3021H75.9602V10.0938H78.6666C80.4032 10.0938 82.0415 10.5288 83.4752 11.2967L82.4326 13.2434C81.3117 12.643 80.0306 12.3021 78.6666 12.3021ZM86.6557 20.2912C86.6557 18.9273 86.3148 17.6462 85.7144 16.5253L87.6612 15.4826C88.4291 16.9163 88.8641 18.5546 88.8641 20.2912V21.4604H89.7085C91.4451 21.4604 93.0835 21.8954 94.5171 22.6634L93.4745 24.6101C92.3536 24.0097 91.0725 23.6688 89.7085 23.6688H86.745V23.2547H86.6557V20.2912ZM45.6378 16.5253C45.0374 17.6462 44.6965 18.9273 44.6965 20.2913V21.4604H45.2567V23.6688H42.2932C40.9292 23.6688 39.6481 24.0097 38.5272 24.6101L37.4845 22.6634C38.9182 21.8954 40.5566 21.4604 42.2932 21.4604H42.4881V20.2913C42.4881 18.5546 42.9231 16.9163 43.691 15.4826L45.6378 16.5253ZM54.7397 23.6688H48.8128V21.4604H54.7397V23.6688ZM64.2228 23.6688H58.2959V21.4604H64.2228V23.6688ZM73.7058 23.6688H67.7789V21.4604H73.7058V23.6688ZM83.1889 23.6688H77.262V21.4604H83.1889V23.6688ZM86.6557 32.7378V26.8108H88.8641V32.7378H86.6557ZM44.6965 26.8109V32.7378H42.4881V26.8109H44.6965ZM97.6977 31.6579C97.6977 30.294 97.3567 29.0129 96.7563 27.892L98.7032 26.8493C99.4709 28.283 99.9061 29.9213 99.9061 31.6579V34.3643H97.6977V31.6579ZM35.2454 27.892C34.645 29.0129 34.3041 30.294 34.3041 31.6579V34.3643H32.0957V31.6579C32.0957 29.9213 32.5307 28.283 33.2986 26.8493L35.2454 27.892ZM86.6557 42.2209V36.2939H88.8641V42.2209H86.6557ZM44.6965 36.2939V42.2209H42.4881V36.2939H44.6965ZM34.3041 37.6119V43.0246H32.0957V37.6119H34.3041ZM97.6977 43.0246V37.6119H99.9061V43.0246H97.6977ZM86.6557 51.7038V45.7769H88.8641V51.7038H86.6557ZM44.6965 45.7769V51.7038H42.4881V45.7769H44.6965ZM34.3041 46.2722V51.6849H32.0957V46.2722H34.3041ZM97.6977 51.6849V46.2722H99.9061V51.6849H97.6977ZM34.3041 54.9326V57.6389C34.3041 59.0029 34.645 60.284 35.2454 61.4049L33.2986 62.4475C32.5307 61.0138 32.0957 59.3756 32.0957 57.6389V54.9326H34.3041ZM97.6977 57.6389V54.9326H99.9061V57.6389C99.9061 59.3756 99.4709 61.0138 98.7032 62.4475L96.7563 61.4049C97.3567 60.284 97.6977 59.0029 97.6977 57.6389ZM86.6557 61.1869V55.26H88.8641V61.1869H86.6557ZM44.6965 55.26V61.1869H42.4881V55.26H44.6965ZM38.5272 64.6868C39.6481 65.2871 40.9292 65.628 42.2932 65.628H42.4881V64.743H44.6965V65.628H45.2567V67.8364H44.6975C44.7184 69.1519 45.0565 70.3873 45.6378 71.4725L43.691 72.5152C42.9423 71.1173 42.51 69.5248 42.4889 67.8364H42.2932C40.5566 67.8364 38.9182 67.4014 37.4845 66.6335L38.5272 64.6868ZM89.7085 65.628C91.0725 65.628 92.3536 65.2871 93.4745 64.6868L94.5171 66.6335C93.0835 67.4014 91.4451 67.8364 89.7085 67.8364H88.8632C88.8421 69.5248 88.4099 71.1173 87.6612 72.5152L85.7144 71.4725C86.3148 70.3516 86.6557 69.0705 86.6557 67.7065V64.743H88.8641V65.628H89.7085ZM48.8128 65.628H54.7397V67.8364H48.8128V65.628ZM58.2959 65.628H64.2228V67.8364H58.2959V65.628ZM67.7789 65.628H73.7058V67.8364H67.7789V65.628ZM77.262 65.628H83.1889V67.8364H77.262V65.628ZM48.9196 74.7544C50.0405 75.3546 51.3216 75.6956 52.6856 75.6956H55.392V77.904H52.6856C50.949 77.904 49.3106 77.4688 47.8769 76.7011L48.9196 74.7544ZM78.6666 75.6956C80.0306 75.6956 81.3117 75.3546 82.4326 74.7544L83.4752 76.7011C82.0415 77.4688 80.4032 77.904 78.6666 77.904H75.9602V75.6956H78.6666ZM58.6396 75.6956H64.0523V77.904H58.6396V75.6956ZM67.2999 75.6956H72.7126V77.904H67.2999V75.6956Z" fill="#F05623"/>
</svg>
