<svg width="132" height="88" viewBox="0 0 132 88" fill="none" xmlns="http://www.w3.org/2000/svg">
<path d="M87.5907 48.9843H80.9478V58.9495H70.9826V65.5926H80.9478V75.5578H87.5907V65.5926H97.5559V58.9495H87.5907V48.9843ZM37.7648 65.5926H47.73V58.9495H41.0872V52.306H34.4434V62.2712C34.4434 64.1079 35.9282 65.5926 37.7648 65.5926ZM87.5907 15.767C87.5907 13.9301 86.106 12.4453 84.2692 12.4453H74.3041V19.0888H80.9478V25.7322H87.5907V15.767ZM41.0872 19.0888H47.73V12.4453H37.7648C35.9282 12.4453 34.4434 13.9301 34.4434 15.767V25.7322H41.0872V19.0888ZM34.4434 32.3757H41.0872V45.6626H34.4434V32.3757ZM80.9478 32.3757H87.5907V42.3408H80.9478V32.3757ZM54.3737 12.4453H67.6603V19.0888H54.3737V12.4453ZM54.3737 58.9495H64.3389V65.5926H54.3737V58.9495Z" fill="#0EF275"/>
</svg>
