<svg width="132" height="88" viewBox="0 0 132 88" fill="none" xmlns="http://www.w3.org/2000/svg">
<mask id="mask0_2056_26301" style="mask-type:luminance" maskUnits="userSpaceOnUse" x="26" y="4" width="80" height="80">
<path d="M26.0195 4.01953H105.982V83.9818H26.0195V4.01953Z" fill="white"/>
</mask>
<g mask="url(#mask0_2056_26301)">
<mask id="mask1_2056_26301" style="mask-type:luminance" maskUnits="userSpaceOnUse" x="19" y="4" width="91" height="91">
<path d="M19.9395 37.5462L76.7849 4.72656L109.605 61.5722L52.7593 94.392L19.9395 37.5462Z" fill="white"/>
</mask>
<g mask="url(#mask1_2056_26301)">
<path d="M66.4569 48.2169C65.7232 48.1284 64.7189 47.7549 63.6293 47.3059C62.5368 46.8587 61.3515 46.3403 60.188 45.9801C59.0206 45.6234 57.873 45.4059 56.8126 45.6363C56.2846 45.7527 55.783 45.9927 55.3601 46.3805C54.9374 46.7669 54.5975 47.2927 54.3558 47.9562C53.7071 49.7234 53.6771 51.6418 54.0778 53.5382C54.4787 55.436 55.3103 57.3211 56.4048 59.0605C57.5001 60.7987 58.8617 62.3918 60.339 63.7025C61.8182 65.0117 63.4135 66.0402 65.0035 66.6359C67.2516 67.4826 69.2916 67.3996 70.9867 66.632C72.687 65.8673 74.0153 64.4771 75.0479 62.8263C77.1038 59.5172 78.0385 55.1219 78.1815 51.8434C78.3952 46.529 76.3313 40.845 72.6741 36.9947C70.8409 35.0736 68.5909 33.612 66.0172 32.9575C63.4443 32.3021 60.5617 32.4759 57.5733 33.739C54.4336 35.064 51.7939 37.4919 49.8499 40.4383C47.9087 43.3877 46.6563 46.8672 46.3335 50.3663C45.9666 54.3481 46.8142 58.3917 49.326 61.5968C51.3792 64.2142 53.885 66.0103 56.5437 67.0099C59.2024 68.0114 62.009 68.2171 64.6598 67.6845C67.3105 67.1518 69.8083 65.8824 71.8485 63.9442C73.8893 62.0063 75.4678 59.4009 76.2983 56.2302C77.5146 51.5725 77.5578 46.5042 76.1234 41.9555C74.6909 37.4127 71.7306 33.3804 67.0187 31.0074C63.6794 29.3137 60.295 29.0101 57.1424 29.7078C53.9848 30.4024 51.0583 32.0615 48.4565 34.2357C43.254 38.5952 39.2908 45.0192 37.4247 50.5014C37.1908 51.1905 37.0449 51.9979 36.9619 52.8999C36.88 53.8008 36.864 54.7938 36.9189 55.8289C37.0279 57.9013 37.4117 60.1423 38.1424 62.1209C38.5092 63.1096 38.963 64.0352 39.5317 64.841C40.1025 65.6453 40.7901 66.335 41.6307 66.808C42.4683 67.2808 43.4629 67.5145 44.5144 67.4196C45.5679 67.3278 46.6704 66.9268 47.8207 66.2182C48.3135 65.9162 48.7012 65.4746 48.9463 64.9798C49.1951 64.4829 49.317 63.9428 49.3632 63.3788C49.4531 62.2507 49.2581 60.9973 48.9292 59.5992C48.2626 56.8132 47.0133 53.4428 45.9246 49.9332C44.8342 46.4289 43.9126 42.7939 43.8697 39.6056C43.8457 38.012 44.0375 36.5371 44.5053 35.2372C44.9772 33.9345 45.7109 32.801 46.8301 31.8308C48.5544 30.34 50.2745 29.4641 51.9297 29.0552C53.5872 28.649 55.1882 28.7046 56.7035 29.1264C59.7282 29.9663 62.4237 32.323 64.1161 35.4437C65.8104 38.5598 66.488 42.3985 65.5843 46.1256C64.6757 49.8518 62.2219 53.5107 57.4572 56.3616C54.5827 58.0784 52.2267 58.9554 50.3974 59.1982C49.482 59.3217 48.7012 59.2915 48.0366 59.1435C47.3711 58.9945 46.8183 58.7343 46.3384 58.3724C45.385 57.6511 44.6813 56.4689 44.2693 54.8541C43.8567 53.2467 43.7507 51.2381 43.9426 49.0188C44.3224 44.5757 45.8858 39.2957 48.2615 34.5206C50.6326 29.7427 53.8259 25.4706 57.3393 22.9799C59.7362 21.2716 63.4385 19.1611 67.1276 18.1016C68.9729 17.5694 70.8088 17.3015 72.464 17.4373C74.1253 17.5757 75.5847 18.0971 76.8161 19.1508C78.1933 20.3356 78.9699 22.0625 79.2298 24.1379C79.4867 26.2048 79.204 28.5844 78.5013 30.887C77.8026 33.1896 76.6891 35.4132 75.3457 37.1864C74.0054 38.9618 72.434 40.2678 70.8959 40.82C70.0412 41.1296 69.2897 41.2105 68.6209 41.136C67.9523 41.0598 67.3586 40.8291 66.8177 40.468C65.7422 39.7516 64.8938 38.4674 64.4568 36.9565C64.016 35.4498 63.9962 33.7429 64.4609 32.2656C64.9306 30.7825 65.8403 29.5414 67.3165 28.7755C68.9707 27.92 71.0417 27.4957 73.2538 27.496C75.4626 27.4946 77.8067 27.9156 79.9916 28.7007C82.1784 29.4837 84.2004 30.6312 85.7869 32.05C87.375 33.4717 88.5204 35.1528 89.0223 37.0264C89.619 39.2244 89.616 42.0209 89.0861 45.008C88.5614 47.9953 87.518 51.1721 86.0996 54.1512C84.6814 57.1316 82.8851 59.9143 80.8771 62.1251C78.8701 64.341 76.6522 65.9704 74.4341 66.7121C73.5505 67.0088 72.7989 67.1188 72.1752 67.1017C71.5485 67.0828 71.0508 66.9409 70.6311 66.717C70.2131 66.4901 69.8674 66.1783 69.5784 65.7743C69.2916 65.3725 69.0647 64.8778 68.9137 64.3171C68.6068 63.1973 68.6079 61.8135 68.9239 60.48C69.2385 59.1452 69.8644 57.8653 70.726 56.9171C71.5276 56.0225 73.0827 54.9602 74.931 54.0849C76.4493 53.3594 78.1785 52.7547 79.8667 52.4008C81.5558 52.0436 83.2091 51.9393 84.5453 52.1574C85.213 52.2649 85.8018 52.4492 86.2836 52.7022C86.7673 52.956 87.1462 53.2703 87.441 53.6641C87.7369 54.0599 87.9536 54.54 88.0768 55.175C88.1998 55.8086 88.2165 56.5965 88.0788 57.5625C87.663 60.4976 86.8443 62.8753 85.7547 64.7989C84.6624 66.7209 83.3009 68.2012 81.7238 69.3556C78.6831 71.5697 74.763 72.5272 70.5261 72.6213C67.1397 72.6972 63.5364 72.2904 60.106 71.3697C59.5541 71.2207 59.2324 72.1023 59.7521 72.3443C63.0584 73.8824 66.7577 74.9791 70.4771 75.1909C75.1098 75.4538 79.7507 74.4442 83.4648 71.7495C85.3901 70.3583 87.0461 68.5001 88.2806 66.1821C89.514 63.8639 90.3285 61.0938 90.6426 57.8664C90.7595 56.6671 90.7034 55.5966 90.4757 54.644C90.2488 53.6952 89.8399 52.8661 89.286 52.1943C88.7324 51.5219 88.0397 51.0164 87.2832 50.6631C86.5256 50.3067 85.7019 50.0971 84.8453 49.9926C83.134 49.7861 81.2769 49.989 79.4267 50.4222C77.5768 50.8556 75.7357 51.5249 74.0843 52.3098C72.0762 53.2714 70.3652 54.3962 69.2696 55.596C68.1413 56.842 67.3946 58.409 67.0096 60.0293C66.6299 61.6493 66.609 63.3282 67.0157 64.8338C67.2195 65.5846 67.5343 66.2932 67.9763 66.9169C68.4201 67.5384 68.9968 68.0733 69.7005 68.4501C70.4012 68.8268 71.2207 69.043 72.1191 69.0677C73.0198 69.0919 74.0004 68.933 75.0608 68.5771C77.7195 67.6806 80.1684 65.8323 82.3346 63.4495C84.4994 61.0619 86.3845 58.1301 87.8758 54.9995C89.3671 51.8673 90.4636 48.5392 91.0262 45.3503C91.5861 42.1609 91.623 39.1106 90.9275 36.5138C90.3027 34.1963 88.9123 32.2004 87.1022 30.5806C85.2881 28.9598 83.0512 27.7039 80.6593 26.8426C78.2643 25.9843 75.7115 25.5228 73.2527 25.5206C70.7939 25.5226 68.4251 25.9832 66.4121 27.0188C64.4189 28.0405 63.1624 29.7809 62.5747 31.6762C61.9832 33.5757 62.0181 35.6426 62.5577 37.5082C63.1005 39.3699 64.1529 41.0551 65.7163 42.1111C66.4948 42.6361 67.4034 42.9917 68.4 43.103C69.3944 43.2161 70.4669 43.0838 71.5716 42.682C73.6176 41.9346 75.4197 40.3624 76.9259 38.3824C78.4282 36.3963 79.6308 33.9832 80.3994 31.4637C81.165 28.9447 81.4958 26.3187 81.1991 23.8948C81.05 22.6821 80.7412 21.5217 80.2363 20.4587C79.7317 19.3956 79.0299 18.4328 78.1125 17.6447C76.5241 16.2751 74.604 15.6147 72.6271 15.4559C70.644 15.2943 68.5859 15.6136 66.5779 16.1897C62.5648 17.3482 58.7357 19.5476 56.1848 21.3559C52.2768 24.1396 48.9573 28.6477 46.4735 33.6326C43.9956 38.6203 42.3614 44.0845 41.9476 48.847C41.7437 51.2307 41.8416 53.4397 42.3284 55.3493C42.8132 57.2526 43.7017 58.888 45.1282 59.971C45.8377 60.5089 46.6734 60.8958 47.6018 61.1021C48.5324 61.3075 49.5559 61.3361 50.6645 61.1868C52.8843 60.8876 55.4572 59.889 58.4857 58.087C63.6502 55.0147 66.5149 50.8619 67.5404 46.5977C68.5708 42.335 67.7994 38.004 65.8871 34.4807C63.975 30.9618 60.9096 28.2101 57.2474 27.1803C55.4192 26.6685 53.4442 26.6003 51.4471 27.0931C49.449 27.5829 47.4379 28.6312 45.5068 30.3004C44.1164 31.498 43.172 32.9608 42.6013 34.5522C42.0275 36.1458 41.8186 37.8643 41.8436 39.6356C41.8986 43.1798 42.8801 46.9599 43.9866 50.5341C45.0952 54.105 46.3376 57.4756 46.9522 60.0692C47.263 61.3614 47.4049 62.4586 47.3389 63.2121C47.3081 63.5889 47.2292 63.8721 47.131 64.0671C47.0292 64.264 46.9231 64.379 46.7542 64.4879C45.8027 65.0736 44.9992 65.3365 44.3384 65.3934C43.6748 65.4465 43.139 65.3167 42.6262 65.0337C42.1165 64.7488 41.6307 64.286 41.1929 63.6667C40.7551 63.0485 40.3683 62.276 40.0515 61.4136C39.4118 59.6919 39.0509 57.6175 38.953 55.7233C38.902 54.7757 38.918 53.8729 38.991 53.0847C39.0629 52.2988 39.1939 51.6225 39.3548 51.1559C41.083 46.0392 44.9233 39.8358 49.7638 35.8034C52.1838 33.7811 54.8395 32.3035 57.5802 31.7051C60.3258 31.1078 63.1555 31.3526 66.0972 32.8329C70.2722 34.9493 72.8608 38.4555 74.1693 42.5728C75.4736 46.6849 75.4486 51.3959 74.3142 55.7123C73.5755 58.533 72.1953 60.7861 70.4361 62.4575C68.6778 64.1271 66.535 65.2166 64.2561 65.6726C61.978 66.1302 59.5662 65.9553 57.2664 65.0918C54.9663 64.2241 52.7754 62.6693 50.9414 60.3307C48.8184 57.6239 48.0487 54.1374 48.3765 50.5547C48.6625 47.4159 49.7999 44.2314 51.553 41.5562C53.3031 38.8801 55.6609 36.7247 58.3529 35.5752C60.9836 34.4535 63.3774 34.3127 65.5453 34.8412C67.7123 35.3744 69.6694 36.5998 71.3197 38.2966C74.623 41.6838 76.6223 46.9638 76.4713 51.7815C76.3863 54.8018 75.5187 59.0341 73.7114 62.0038C72.811 63.4943 71.6915 64.6559 70.3671 65.2716C69.0397 65.8843 67.4793 66.0122 65.4894 65.3096C64.104 64.8168 62.6138 63.9007 61.2154 62.6979C59.8162 61.4972 58.5028 60.0109 57.4473 58.3914C56.3897 56.7727 55.5892 55.0207 55.1954 53.2918C54.8005 51.5634 54.8084 49.8645 55.3502 48.3126C55.538 47.7706 55.7819 47.3972 56.06 47.1334C56.3377 46.8711 56.6567 46.7083 57.0384 46.6162C57.796 46.4286 58.8146 46.5691 59.913 46.8925C61.0116 47.2113 62.1881 47.6991 63.2993 48.1333C64.4139 48.5659 65.4584 48.9512 66.3609 49.051C66.8218 49.1013 66.9178 48.2733 66.4569 48.2169Z" fill="black"/>
</g>
<path fill-rule="evenodd" clip-rule="evenodd" d="M45.7474 17.7727V17.7717C45.7265 17.3664 45.7064 16.961 45.6855 16.5563C45.6236 15.3167 46.626 14.2795 47.8665 14.2412C49.109 14.2052 50.1713 15.1808 50.1815 16.422C50.1853 16.8356 50.1895 17.2486 50.1933 17.6616V17.6676C50.1974 18.0708 50.2013 18.4741 50.2054 18.878C50.2274 21.3075 45.9324 21.4327 45.8104 19.0076C45.7894 18.5984 45.7686 18.1886 45.7474 17.7788V17.7727ZM64.6066 11.4388L64.7155 11.6258C64.9704 12.0624 65.2253 12.4988 65.4792 12.9364C66.7087 15.0476 70.5166 12.8685 69.3193 10.7386L69.2134 10.5496C68.9664 10.1085 68.7195 9.66738 68.4698 9.22749C67.8689 8.1559 66.4986 7.78918 65.4341 8.40169C64.3657 9.01329 63.9867 10.3781 64.6066 11.4388ZM57.0122 23.521C56.5323 23.3697 55.9977 23.3794 55.4959 23.5842C54.3524 24.049 53.7985 25.3583 54.2705 26.4976C54.5474 27.1725 54.8262 27.8437 55.1051 28.5172C55.3179 29.0301 55.6897 29.4181 56.1366 29.6505C56.5813 29.8842 57.109 29.9585 57.6059 29.8581C58.0996 29.7588 58.5563 29.4877 58.8773 29.0963C59.2001 28.7092 59.3921 28.2073 59.3901 27.6765C59.3871 27.2934 59.3852 26.9095 59.383 26.5254V26.51C59.3811 26.1225 59.3791 25.735 59.3761 25.3484C59.3689 24.0713 58.1636 23.4624 57.0122 23.521ZM50.6493 43.6763C50.1444 43.1871 49.7297 42.6687 49.3988 42.0959C48.779 41.0286 49.17 39.6497 50.2354 39.026C50.4972 38.2951 51.064 37.6442 51.7506 37.42C52.2146 36.9847 52.8011 36.658 53.5208 36.5362C53.9286 36.471 54.3815 36.4796 54.8251 36.5984C55.269 36.715 55.6988 36.9385 56.0486 37.2358C56.4985 37.6131 56.7903 38.0429 57.0012 38.4543C57.211 38.8696 57.3381 39.276 57.422 39.6726C57.5828 40.4701 57.5938 41.2131 57.428 41.993C57.3051 42.5235 57.1302 43.0279 56.8453 43.5083C56.5634 43.9837 56.1495 44.4446 55.6157 44.7565C55.085 45.0752 54.4674 45.2177 53.9328 45.2127C53.3929 45.2103 52.9282 45.0876 52.5302 44.9322C51.7377 44.6116 51.1569 44.1567 50.6493 43.6763ZM70.295 26.818C69.6842 27.1617 69.2145 27.6449 68.8886 28.2433C68.5578 28.8618 68.3667 29.6681 68.5806 30.5472C68.6846 30.9793 68.8955 31.4088 69.1884 31.7611C69.4801 32.1194 69.839 32.3994 70.2149 32.5982C70.4539 32.7222 70.7207 32.8443 71.0435 32.9213C71.1164 32.9623 71.1934 33.0008 71.2745 33.0368C71.7071 33.2337 72.2541 33.3192 72.7386 33.2535C73.2306 33.193 73.6423 33.0162 73.9742 32.8138C74.3339 32.5987 74.6578 32.3015 74.9037 31.9585C75.1506 31.6184 75.3104 31.2405 75.3984 30.8786C75.5744 30.1468 75.4875 29.5001 75.3096 28.9451C75.1245 28.3885 74.8377 27.9028 74.4318 27.4662C74.258 27.2846 74.0581 27.1078 73.8271 26.9508C73.1294 25.7897 71.2575 25.9317 70.295 26.818ZM67.3902 61.4817C67.2092 61.6596 66.9944 61.8125 66.7634 61.936C66.6947 62.0287 66.6185 62.1189 66.5346 62.2044C66.1348 62.6199 65.6051 62.8675 65.1503 62.9593C64.6905 63.058 64.2917 63.0407 63.921 62.9912C62.9673 62.8741 62.0458 62.3229 61.5189 61.5879C60.9824 60.8564 60.7863 60.0352 60.7954 59.268C60.8102 58.5005 61.0253 57.7461 61.4779 57.0639C61.9248 56.3882 62.6634 55.7818 63.585 55.5282C64.4545 55.2763 65.4143 55.3649 66.1977 55.7505C66.9895 56.1341 67.6071 56.7847 67.9698 57.5542C68.15 57.9334 68.2539 58.3096 68.3048 58.7094C68.3488 59.1071 68.3458 59.5314 68.2297 60.0088C68.1148 60.4758 67.87 61.0205 67.3902 61.4817ZM78.4721 48.186C78.257 47.6091 78.1402 46.9823 78.2051 46.2855C78.3162 45.1132 79.3865 44.6033 80.4491 44.6594C81.1008 44.1768 81.9932 44.0712 82.764 44.4631C82.9849 44.5766 83.2447 44.7202 83.5387 44.9254C83.8294 45.1288 84.1544 45.3755 84.494 45.7624C84.6632 45.9591 84.835 46.1956 84.991 46.511C85.1419 46.8292 85.2748 47.2414 85.2797 47.7331C85.2888 48.2223 85.1367 48.7668 84.876 49.1804C84.6192 49.6012 84.2941 49.8963 83.9773 50.1149C83.3008 50.5956 82.3801 50.8637 81.5296 50.7474C80.674 50.6429 79.9893 50.229 79.5094 49.7664C79.0226 49.2954 78.694 48.7588 78.4721 48.186ZM81.1437 48.6563C81.1479 48.6607 81.1487 48.6612 81.1517 48.6618C81.1498 48.6612 81.1479 48.6593 81.1437 48.6563ZM82.64 46.7068C82.64 46.7145 82.6389 46.7227 82.6381 46.7315L82.64 46.7068ZM65.656 42.9115C65.2573 43.5776 65.2473 44.3814 65.5672 45.0337C65.5322 45.3433 65.5452 45.6626 65.612 45.9701C65.6541 46.1631 65.7102 46.3388 65.777 46.4997C65.7899 46.6848 65.816 46.8886 65.8661 47.1215C65.917 47.3346 65.9868 47.5777 66.1317 47.8621C66.2758 48.1406 66.5016 48.4811 66.8935 48.7795C67.2763 49.0798 67.84 49.2824 68.3427 49.2907C68.8526 49.3069 69.2673 49.1779 69.5882 49.0319C70.3098 48.7003 70.7658 48.1434 71.0265 47.6487C71.2894 47.1405 71.4013 46.6565 71.4453 46.1837C71.4483 46.1469 71.4502 46.1101 71.4524 46.0732C71.4632 46.0069 71.4703 45.9404 71.4764 45.8736C71.5212 45.3497 71.3994 44.8657 71.2385 44.5073C71.2275 44.4834 71.2165 44.46 71.2055 44.437C71.0526 44.0374 70.8117 43.6144 70.3838 43.2204C70.1558 43.0103 69.8871 42.8373 69.6003 42.7102C69.4801 42.6294 69.3523 42.5595 69.2153 42.5023L69.1804 42.4812C69.0085 42.3819 68.8526 42.2955 68.7525 42.2402C68.6947 42.2084 68.6557 42.1866 68.6436 42.1789C67.625 41.5299 66.2789 41.874 65.656 42.9115ZM51.249 59.4305C51.0549 58.988 50.861 58.5453 50.6691 58.1014C50.1773 56.9764 48.8552 56.48 47.7356 56.9808C46.6161 57.4816 46.1032 58.798 46.6131 59.9123C46.816 60.3531 47.0168 60.7915 47.2159 61.2315C48.2314 63.4502 52.2214 61.6674 51.249 59.4305ZM69.8211 75.1305C70.119 75.0216 70.4168 74.9127 70.7146 74.8046C71.844 74.3908 73.0846 74.9875 73.5094 76.0952C73.9352 77.2016 73.4135 78.4759 72.3 78.9266C71.7131 79.1626 71.1244 79.4005 70.5397 79.6394C69.3924 80.1031 68.087 79.5066 67.6432 78.3511C67.1974 77.1966 67.7672 75.8821 68.9296 75.4564C69.2263 75.3483 69.5242 75.2394 69.8211 75.1305ZM85.1598 66.3597L85.0839 66.4287C84.2113 67.2303 84.1233 68.5616 84.854 69.4573C85.5855 70.3507 86.9061 70.5317 87.8644 69.8359C87.9296 69.7892 87.9945 69.7422 88.0594 69.6951L88.2054 69.5893C88.3303 69.4993 88.4543 69.4091 88.5762 69.3203C89.5849 68.5916 89.6828 67.1165 88.896 66.1548C88.1114 65.1912 86.647 64.9962 85.7304 65.835C85.5415 66.0088 85.3507 66.1848 85.1598 66.3597ZM95.0502 37.5243C94.8473 37.752 94.6454 37.9799 94.4413 38.2055C93.6708 39.0698 92.2884 38.9491 91.4689 38.2176C90.6513 37.4847 90.3763 36.1245 91.1479 35.2599C91.2261 35.1725 91.305 35.0848 91.3839 34.9967L91.3858 34.994C91.5088 34.8571 91.6317 34.7187 91.7546 34.5821C92.5262 33.718 93.9087 33.8384 94.7282 34.57C95.546 35.3028 95.8227 36.6619 95.0502 37.5243ZM92.9121 50.1572L92.8601 50.7771L92.8073 51.3931C92.6013 53.8098 96.8894 54.2421 97.1732 51.8344C97.1881 51.7046 97.2032 51.5746 97.218 51.4445C97.251 51.1629 97.284 50.881 97.3181 50.5997C97.46 49.3864 96.5514 48.2985 95.337 48.1756C94.1196 48.0543 93.0141 48.9384 92.9121 50.1572ZM82.6361 18.2565L83.4606 17.9527C84.582 17.5377 85.8146 18.1638 86.2232 19.2702C86.633 20.3765 86.1053 21.6554 84.9838 22.0704L84.573 22.2213L84.1613 22.3731C83.0387 22.7878 81.8043 22.1633 81.3956 21.0568C80.9859 19.9503 81.5144 18.6739 82.6361 18.2565ZM36.7727 40.2308C37.1076 40.2306 37.4414 40.2314 37.7753 40.2322C38.1091 40.2333 38.444 40.2341 38.7778 40.2341C39.8303 40.2352 40.427 38.9416 40.434 38.0355C40.443 37.1316 39.8663 35.8256 38.8158 35.8108C38.1451 35.8025 37.4774 35.7929 36.8097 35.7833C35.5793 35.7654 34.5778 36.759 34.5658 37.9882C34.5558 39.2161 35.5423 40.2284 36.7727 40.2308ZM33.4903 56.4839C33.7412 55.6715 33.9941 54.8581 34.247 54.0443C34.6098 52.869 35.8682 52.2205 37.0446 52.5896C38.2171 52.9603 38.8758 54.2135 38.499 55.3872L38.477 55.4559V55.4573L38.476 55.4592C38.2231 56.2468 37.9702 57.0344 37.7203 57.8204C36.9707 60.1529 32.7647 58.8247 33.4903 56.4839ZM52.7093 75.3404C52.6752 75.4284 52.6413 75.5183 52.6072 75.6063C52.1254 76.8627 54.3653 77.7482 54.8741 76.5028C54.9173 76.3961 54.9601 76.2891 55.0042 76.183C55.077 76.0042 55.1491 75.8243 55.22 75.6442C55.4769 75.0167 55.1601 74.3008 54.5292 74.052C53.8986 73.8031 53.1809 74.1092 52.937 74.7428C52.8622 74.9427 52.7852 75.1426 52.7093 75.3404ZM75.2994 62.7412L75.3264 62.527C75.4083 61.8607 76.0152 61.389 76.6788 61.4726C77.3454 61.5549 77.8192 62.1607 77.7373 62.8267L77.7134 63.0195C77.6914 63.195 77.6705 63.3693 77.6474 63.5442C77.5643 64.2097 76.9577 64.6824 76.2911 64.5997C75.6253 64.5174 75.1537 63.9102 75.2356 63.2445C75.2576 63.077 75.2785 62.9101 75.2994 62.7423V62.7412ZM103.729 44.1237C103.929 44.1801 104.128 44.2343 104.329 44.2873C105.631 44.6435 106.275 42.284 104.971 41.9295L104.37 41.7659C103.066 41.4109 102.426 43.7714 103.729 44.1237ZM83.9314 36.0662L83.3577 36.3948C82.772 36.7301 82.0273 36.5277 81.6923 35.9417C81.3585 35.3584 81.5595 34.612 82.1453 34.2768L82.72 33.9482C83.3036 33.614 84.0513 33.8175 84.3851 34.4008C84.7201 34.9866 84.5152 35.7321 83.9314 36.0662ZM91.7018 24.712L91.6559 24.7945L91.6537 24.7967C91.5049 25.0621 91.3559 25.3269 91.206 25.5901C90.9192 26.0958 91.3638 26.7374 91.7917 26.9937C92.2205 27.2489 92.9962 27.3372 93.305 26.8458C93.395 26.703 93.4849 26.5606 93.5748 26.4179L93.5759 26.4162L93.5768 26.4156C93.6658 26.2738 93.7558 26.1316 93.8446 25.9894C94.2125 25.4092 94.0046 24.6323 93.4139 24.2797C92.8222 23.9247 92.0417 24.11 91.7018 24.712ZM75.3286 17.7054C75.2956 17.8513 75.2634 17.9973 75.2304 18.1436C75.0835 18.8098 74.42 19.2267 73.7523 19.0769C73.0876 18.9256 72.6657 18.2648 72.8186 17.5983L72.8316 17.5429C72.8945 17.2711 72.9575 16.9991 73.0205 16.7271C73.3263 15.3979 75.7193 15.9383 75.4254 17.2669C75.3924 17.4133 75.3605 17.5593 75.3286 17.7054ZM38.9167 27.4197C38.9417 27.3553 38.9667 27.2948 38.9937 27.2327C39.4995 25.9756 37.4944 24.9771 36.7947 26.1362C36.7787 26.164 36.7617 26.1924 36.7448 26.2204C36.7268 26.249 36.7098 26.2779 36.6928 26.3062C36.3379 26.8922 36.6318 27.6666 37.2465 27.9743C37.8612 28.2821 38.6589 28.0557 38.9167 27.4197ZM29.0154 47.6451C28.8565 47.738 28.6986 47.831 28.5407 47.9248C27.9519 48.271 27.1953 48.057 26.8575 47.4666C26.5196 46.8759 26.7185 46.1153 27.3153 45.7831C27.4772 45.6934 27.6381 45.6032 27.8 45.513C27.9589 45.4245 28.1179 45.3356 28.2778 45.2477C28.8655 44.9207 29.6081 45.1145 29.943 45.7006C30.2779 46.2863 30.0689 47.025 29.4902 47.3657C29.3323 47.4592 29.1733 47.5522 29.0154 47.6451ZM39.8883 70.3268C39.8973 70.4266 39.9053 70.5279 39.9143 70.6288C39.9243 70.7487 39.9352 70.8686 39.9462 70.9877C40.0012 71.6653 40.6039 72.16 41.2816 72.0989C41.9573 72.0359 42.4581 71.4373 42.3891 70.7616C42.3781 70.6516 42.3671 70.5408 42.3561 70.4308C42.3451 70.3208 42.3341 70.21 42.3241 70.0989C42.1832 68.7555 39.7743 68.9823 39.8883 70.3268ZM57.7107 50.6132L57.3681 49.4755C57.1742 48.827 57.5468 48.147 58.1966 47.9558C58.8443 47.7658 59.529 48.136 59.716 48.7847L59.8799 49.355L60.0427 49.9257C60.4115 51.2171 58.0976 51.8974 57.7107 50.6132ZM44.0503 48.3111C44.0424 48.3914 44.0352 48.472 44.0272 48.5529C43.9634 49.2398 44.47 49.8487 45.1559 49.9103C45.8425 49.9743 46.4511 49.4675 46.5133 48.782C46.5352 48.5581 46.5542 48.3321 46.5732 48.1099C46.697 46.7387 44.2162 46.5129 44.0902 47.8854C44.0762 48.0268 44.0633 48.1687 44.0503 48.3111ZM61.9457 35.7489L61.9449 35.7483C61.8789 35.6713 61.8118 35.5949 61.745 35.5195C61.3003 35.0089 61.352 34.2355 61.861 33.7922C62.3717 33.3476 63.1422 33.4009 63.588 33.908C63.709 34.0499 63.8349 34.1929 63.959 34.3332C64.4025 34.8417 64.3478 35.6163 63.8388 36.0596C63.3281 36.5043 62.5576 36.4507 62.1126 35.94C62.0568 35.8765 62.0018 35.8127 61.9457 35.7489ZM62.8634 70.8326L62.8623 70.8345C62.8034 71.0204 62.7446 71.2054 62.6835 71.3913C62.2727 72.6737 64.5475 73.4373 64.9944 72.1679C65.0933 71.8902 65.1901 71.6141 65.2872 71.3375C65.5141 70.6948 65.1563 69.9941 64.5126 69.7771C63.866 69.5601 63.1612 69.9041 62.9533 70.5518C62.9244 70.6406 62.8953 70.7305 62.8675 70.8196L62.8634 70.8326ZM95.0142 61.3896C94.9542 61.1855 94.8943 60.9809 94.8332 60.7769C94.6413 60.1251 95.0301 59.4456 95.6827 59.2611C96.3355 59.0746 97.0222 59.4533 97.1991 60.1109C97.3011 60.4827 97.4009 60.8553 97.501 61.2282L97.5139 61.2747C97.8618 62.5685 95.554 63.2206 95.1739 61.9322C95.1211 61.7521 95.0681 61.5711 95.0142 61.3896ZM84.639 9.48266C84.617 9.24327 84.593 9.0054 84.5672 8.76502C84.499 8.09751 83.9014 7.61244 83.2356 7.68251C82.5679 7.7503 82.0812 8.34589 82.1491 9.01329L82.1783 9.29244C82.1931 9.43819 82.2093 9.58471 82.2231 9.72975C82.2913 10.3972 82.887 10.8839 83.5536 10.8161C84.2213 10.7484 84.7072 10.1501 84.639 9.48266ZM103.306 30.038L102.391 30.6454C101.833 31.0181 101.08 30.8605 100.711 30.3036C100.341 29.7476 100.489 28.9943 101.046 28.622C101.198 28.521 101.35 28.4201 101.502 28.3189C101.655 28.2172 101.809 28.1154 101.961 28.014C102.519 27.6455 103.269 27.8003 103.641 28.3563C104.01 28.9135 103.863 29.6692 103.306 30.038Z" fill="#989898"/>
</g>
</svg>
