<svg width="132" height="88" viewBox="0 0 132 88" fill="none" xmlns="http://www.w3.org/2000/svg">
<path d="M75.3804 38.0247C73.3677 38.0247 71.7362 36.3831 71.7362 34.358C71.7362 32.333 73.3677 30.6913 75.3804 30.6913C77.393 30.6913 79.0245 32.333 79.0245 34.358C79.0245 36.3831 77.393 38.0247 75.3804 38.0247ZM97.2452 27.9753C98.325 32.7284 99 38.1605 99 44C99 49.8395 98.4598 55.2716 97.2452 60.1605C97.2452 60.5679 95.0857 70.7532 85.3681 74.5557C79.6994 76.7285 69.9816 77 66.0675 77C62.1534 77 52.4356 76.7285 46.7668 74.5557C37.0491 70.8886 34.8896 60.4321 34.7546 60.0247C33.5399 55.2716 33 49.8395 33 44C33 38.1605 33.5399 32.7284 34.7546 27.8395C34.7546 27.4321 36.9141 17.2469 46.6319 13.4444C52.3006 11.2716 62.0184 11 65.9325 11C69.8466 11 79.5644 11.2716 85.2332 13.4444C94.6811 17.1111 96.9754 26.8889 97.2452 27.9753ZM47.3068 62.7408C47.3068 62.7408 60.6687 59.6173 55.6748 54.321C50.411 49.1605 47.3068 62.7408 47.3068 62.7408ZM84.5583 26.0741L84.8282 25.3951H83.8835C68.9019 25.3951 61.6135 33.4074 58.2393 39.6543L52.4356 38.1605L49.4662 41.1482L56.4847 48.2099C55.135 48.2099 53.9203 48.7531 52.9755 49.7037L60.3988 57.1728C61.3436 56.2222 61.8835 54.8642 61.8835 53.642L68.9019 60.7037L71.8712 57.7161L70.3865 51.8765C76.5951 48.4815 84.4233 41.1482 84.5583 26.0741Z" fill="black"/>
</svg>
