<svg width="132" height="88" viewBox="0 0 132 88" fill="none" xmlns="http://www.w3.org/2000/svg">
<path d="M65.9996 77.2766C84.3769 77.2766 99.2746 62.3788 99.2746 44.0016C99.2746 25.6243 84.3769 10.7266 65.9996 10.7266C47.6223 10.7266 32.7246 25.6243 32.7246 44.0016C32.7246 62.3788 47.6223 77.2766 65.9996 77.2766Z" fill="#235CAE"/>
<path d="M60.1976 62.324C62.6391 61.1955 67.9879 59.8489 75.1585 58.5836C76.1128 58.4156 77.0416 58.9866 77.3292 59.9118C77.65 60.9425 77.065 62.0348 76.0388 62.3704C70.2644 64.2593 65.2261 66.7048 61.1541 68.8262C58.7628 70.0327 56.5765 69.3623 55.9616 68.2897C55.2784 66.8823 55.62 64.3349 60.1976 62.324ZM55.6244 43.2567C57.0082 41.9645 58.4749 41.2647 59.975 42.2053C61.4751 43.1458 61.4143 44.5408 60.7608 46.0202C59.8249 48.1393 60.1576 49.7146 62.2832 50.9202C64.4088 52.1258 69.2916 51.0474 69.2916 47.7353C69.2916 44.423 67.7744 43.0228 66.3129 41.7338C64.1196 39.7994 57.2025 36.0522 59.2962 28.8912C61.3898 21.7303 67.8752 21.0545 72.4187 22.3454C77.2437 23.7163 76.9044 28.8912 76.0458 30.5586C75.1872 32.226 74.2161 33.2378 72.6187 32.8042C71.0213 32.3706 70.3429 30.5365 70.7621 29.6215C71.1812 28.7064 70.25 27.2599 68.8187 27.2599C63.8454 27.2599 63.3344 32.8875 67.2474 35.5662C70.0839 37.5079 75.2131 40.0865 76.0458 45.6798C76.9512 51.7633 72.2955 57.1808 65.8285 57.5801C51.3 58.4772 53.5029 45.2378 55.6244 43.2567Z" fill="white"/>
</svg>
