<svg width="132" height="88" viewBox="0 0 132 88" fill="none" xmlns="http://www.w3.org/2000/svg">
<path d="M33.3876 36.7096C33.2975 36.5656 33.2384 36.4052 33.214 36.2381C33.1895 36.071 33.2002 35.9009 33.2453 35.738C35.0317 28.8264 39.0281 22.6524 44.6531 18.1144C49.0506 14.5759 54.3082 12.207 59.9171 11.2369C65.526 10.2668 71.2962 10.7285 76.669 12.5772C76.8302 12.6336 76.9779 12.7212 77.1039 12.8347C77.2298 12.9482 77.3308 13.0853 77.401 13.2378C77.5316 13.5491 77.5316 13.8981 77.401 14.2094L75.7628 18.4767C75.6544 18.7806 75.4264 19.0299 75.1299 19.1699C74.8331 19.3099 74.4921 19.3291 74.181 19.2233C69.9623 17.7854 65.4361 17.4342 61.0384 18.2034C56.6406 18.9726 52.5199 20.8364 49.0736 23.615C44.7063 27.1879 41.6044 32.0171 40.2102 37.4141C40.1409 37.68 39.9833 37.916 39.762 38.0849C39.5408 38.2538 39.2684 38.3461 38.9876 38.3474H38.703L34.2096 37.2915C34.0439 37.2531 33.8879 37.1823 33.7511 37.0832C33.6143 36.9841 33.4996 36.8589 33.4138 36.7151" fill="#6DBB98"/>
<path d="M98.6112 47.3153C98.5077 47.1847 98.3775 47.0756 98.2294 46.9953C98.0814 46.9147 97.9184 46.8644 97.75 46.8469L93.1539 46.3767C92.8278 46.3463 92.5024 46.4405 92.2459 46.6392C91.9894 46.8383 91.8214 47.1266 91.7775 47.4434C90.9587 53.5475 87.9684 59.175 83.3298 63.3397C79.7584 66.5784 75.3282 68.7717 70.5437 69.6697C65.7589 70.5669 60.8125 70.1335 56.268 68.4175C56.1159 68.3593 55.9536 68.3308 55.7902 68.3336C55.6269 68.3368 55.4658 68.3711 55.3161 68.4349C55.1663 68.4992 55.031 68.5912 54.9177 68.7061C54.8044 68.821 54.7155 68.9569 54.656 69.1056L52.8642 73.3746C52.7966 73.5276 52.7617 73.6928 52.7617 73.8594C52.7617 74.0264 52.7966 74.1916 52.8642 74.3446C52.9261 74.5009 53.0214 74.6429 53.1438 74.7602C53.2661 74.8783 53.4127 74.9689 53.5738 75.0271C57.4151 76.5066 61.5079 77.2636 65.6368 77.2579C73.985 77.2575 82.0248 74.1744 88.1454 68.6262C94.0447 63.2794 97.8281 56.0726 98.8324 48.2707C98.8555 48.1052 98.8445 47.9364 98.7995 47.7748C98.7546 47.6135 98.6765 47.463 98.5701 47.3321" fill="#6DBB98"/>
<path d="M73.233 53.5213V48.9231C73.2348 48.5916 73.1024 48.2738 72.8652 48.0376C72.6276 47.8014 72.304 47.6673 71.9654 47.6641H34.3832C34.0462 47.6694 33.7251 47.805 33.4895 48.0404C33.254 48.2763 33.123 48.5934 33.125 48.9231V53.5213C33.1236 53.6854 33.1552 53.8481 33.2181 54.0001C33.281 54.152 33.374 54.2905 33.4917 54.4078C33.6095 54.5245 33.7496 54.6176 33.9042 54.6818C34.0588 54.7453 34.2247 54.7792 34.3926 54.7803H71.9654C72.1331 54.7792 72.2994 54.7453 72.4538 54.6818C72.6083 54.6176 72.7485 54.5245 72.8662 54.4078C72.984 54.2905 73.0771 54.152 73.1399 54.0001C73.2027 53.8481 73.2344 53.6854 73.233 53.5213Z" fill="#6DBB98"/>
<path d="M58.7752 32.2286V36.827C58.7722 37.1561 58.9023 37.4731 59.1372 37.7089C59.3721 37.9447 59.6929 38.0802 60.0296 38.086H97.6079C97.7755 38.0846 97.9414 38.0509 98.0959 37.9868C98.2504 37.9227 98.3902 37.8296 98.5076 37.7127C98.625 37.5958 98.7181 37.4574 98.7809 37.3054C98.8437 37.1535 98.8751 36.9909 98.8736 36.827V32.2286C98.8658 31.9048 98.7292 31.5966 98.4933 31.3695C98.2568 31.1423 97.9393 31.014 97.6079 31.0117H60.024C59.6873 31.0175 59.3665 31.153 59.1316 31.3888C58.8967 31.6246 58.7666 31.9415 58.7696 32.2706" fill="#6DBB98"/>
<path d="M86.2425 16.9849C85.4805 16.9724 84.7316 17.1809 84.0909 17.5843C83.4502 17.9876 82.9461 18.5675 82.6428 19.2508C82.3392 19.9341 82.25 20.6899 82.3863 21.4228C82.5222 22.1557 82.8776 22.8327 83.4073 23.3681C83.9371 23.9036 84.6175 24.2735 85.3627 24.431C86.1073 24.5885 86.8836 24.5266 87.5921 24.2531C88.301 23.9796 88.911 23.5068 89.3452 22.8944C89.779 22.2821 90.0173 21.5577 90.0298 20.813C90.0298 20.7929 90.0298 20.7709 90.0298 20.7508C90.0362 19.761 89.641 18.8091 88.9303 18.1034C88.2203 17.3977 87.2532 16.9955 86.2404 16.9849" fill="#6DBB98"/>
<path d="M44.4142 62.5162C43.6522 62.5037 42.9035 62.712 42.2628 63.1155C41.6221 63.519 41.1181 64.0991 40.8147 64.7823C40.5113 65.4655 40.4219 66.2211 40.558 66.9542C40.6941 67.687 41.0496 68.3641 41.5794 68.8996C42.1092 69.4347 42.7895 69.8047 43.5344 69.9624C44.2793 70.1197 45.0552 70.058 45.7641 69.7844C46.473 69.5111 47.0829 69.038 47.5169 68.4258C47.9508 67.8136 48.1892 67.0891 48.2018 66.3442V66.2803C48.2064 65.2914 47.8108 64.341 47.1013 63.6357C46.3918 62.9307 45.426 62.5283 44.4142 62.5162Z" fill="#6DBB98"/>
</svg>
