<svg width="132" height="88" viewBox="0 0 132 88" fill="none" xmlns="http://www.w3.org/2000/svg">
<path d="M101.605 23.6003C101.605 18.4025 97.9671 13.9844 92.7693 13.9844H51.1867L30.6543 35.5553V64.6631C30.6543 69.8608 34.8125 74.0191 40.0103 74.0191H92.2484C97.4463 74.0191 101.605 69.8608 101.605 64.6631C101.605 42.0653 101.605 46.9709 101.605 23.6003Z" fill="#185F4C"/>
<path d="M84.5667 39.3088C85.9934 39.3088 87.4202 39.7236 88.8469 40.3456C90.2736 40.9677 91.2928 41.7972 92.312 42.8339C93.331 43.8708 94.1463 45.3222 94.554 46.7738C95.1654 48.4327 95.3693 50.0915 95.3693 51.7504C95.3693 53.4093 95.1654 54.8608 94.554 56.3123C94.1463 57.7638 93.331 59.008 92.312 60.0448C91.2928 61.0816 90.2736 61.911 89.0508 62.5331C87.624 63.1552 86.1973 63.3626 84.7706 63.3626H67.4457V56.3123H82.7324C83.5475 56.3123 84.1591 56.3123 84.9744 56.1049C85.5859 55.8976 86.1973 55.6902 86.8087 55.2755C87.2164 54.8608 87.624 54.4461 88.0316 53.824C88.8469 51.7504 88.6432 49.4694 87.2164 48.018C86.1973 47.1885 84.7706 46.7738 83.5475 46.7738H79.0635C77.2292 46.7738 75.5986 46.5664 73.968 46.1517C72.5412 45.7369 71.1145 45.1149 70.0953 44.0781C69.0763 43.0413 68.0572 42.0045 67.6496 40.553C67.038 38.8941 66.6304 37.2352 66.8343 35.3691C66.8343 33.9175 67.038 32.6733 67.6496 31.2218C68.0572 29.9776 68.8725 28.7334 69.6878 27.6967C70.5031 26.6599 71.5221 25.8304 72.7451 25.2083C73.968 24.5863 75.3947 24.3789 76.8214 24.3789H92.5157V31.8439H79.6751C79.0635 31.8439 78.2483 31.8439 77.6367 32.0512C77.0253 32.0512 76.4139 32.2586 76.0061 32.4659C75.5986 32.6733 75.191 33.088 74.9871 33.5028C74.7833 34.1248 74.5794 34.7469 74.5794 35.5764C74.5794 36.4058 74.9871 37.4427 75.5986 38.0647C76.21 38.6867 77.2292 39.1014 78.2483 39.1014L84.5667 39.3088Z" fill="white"/>
<path opacity="0.6" d="M51.7082 26.7197C52.228 24.6405 52.4879 14.2449 51.7082 14.5048C51.1884 14.7647 47.8099 19.4427 45.7308 21.2619C41.0527 25.4202 33.256 33.4768 31.1769 35.5559C30.6571 35.8158 32.2164 35.8158 32.7362 35.8158C37.934 37.6351 43.6516 36.5955 48.0698 33.4768C50.9286 31.6576 50.9286 29.8383 51.7082 26.7197Z" fill="#313133"/>
<path d="M42.3515 35.5555C47.5493 35.5555 51.7075 31.3972 51.7075 26.1993C51.9674 22.301 51.4476 17.8827 51.1877 13.9844L30.3965 35.2955C30.3965 35.2955 30.3965 35.2955 30.6564 35.2955C34.2949 34.2559 38.4531 34.2559 42.3515 35.5555Z" fill="#21876A"/>
<path d="M62.0728 35.3195C62.0728 29.602 57.3948 24.6641 51.4173 24.6641C45.6996 24.6641 40.7617 29.3421 40.7617 35.3195C40.7617 38.9581 42.5809 42.0767 45.4397 44.1558V57.1504L51.4173 52.4725L57.3948 57.1504V44.1558C60.2536 42.0767 62.0728 38.9581 62.0728 35.3195Z" fill="white"/>
<path d="M58.4636 35.2962C58.4636 39.1946 55.3448 42.0534 51.7064 42.0534C48.068 42.0534 44.9492 38.9347 44.9492 35.2962C44.9492 31.6578 48.068 28.5391 51.7064 28.5391C55.3448 28.5391 58.4636 31.6578 58.4636 35.2962Z" fill="#28A380"/>
<path d="M51.4483 28.7969L53.0077 33.215H57.6858L53.7873 36.0737L55.3468 40.4919L51.4483 37.6332L47.55 40.4919L49.1093 36.0737L45.2109 33.215H49.889L51.4483 28.7969Z" fill="#FDFEFF"/>
</svg>
