<svg width="132" height="88" viewBox="0 0 132 88" fill="none" xmlns="http://www.w3.org/2000/svg">
<path d="M65.2258 76.5492C83.2026 76.5492 97.7758 61.9761 97.7758 43.9992C97.7758 26.0224 83.2026 11.4492 65.2258 11.4492C47.2489 11.4492 32.6758 26.0224 32.6758 43.9992C32.6758 61.9761 47.2489 76.5492 65.2258 76.5492Z" fill="black" fill-opacity="0.04"/>
<path d="M67.5504 75.7766C85.0992 75.7766 99.3254 61.5504 99.3254 44.0016C99.3254 26.4527 85.0992 12.2266 67.5504 12.2266C50.0015 12.2266 35.7754 26.4527 35.7754 44.0016C35.7754 61.5504 50.0015 75.7766 67.5504 75.7766Z" fill="black" fill-opacity="0.07"/>
<path d="M68.3242 75C85.445 75 99.3242 61.1208 99.3242 44C99.3242 26.8792 85.445 13 68.3242 13C51.2034 13 37.3242 26.8792 37.3242 44C37.3242 61.1208 51.2034 75 68.3242 75Z" fill="#0EF275"/>
</svg>
