<svg width="132" height="88" viewBox="0 0 132 88" fill="none" xmlns="http://www.w3.org/2000/svg">
<path d="M67.5354 75.9852C62.1248 75.9852 57.3711 75.1247 53.272 73.4016C49.1739 71.5973 45.8956 69.1377 43.4357 66.0211C40.9768 62.9043 39.5015 59.2957 39.0098 55.1952H54.8703C55.362 57.5737 56.6734 59.6238 58.8055 61.3461C61.0184 62.9865 63.846 63.8065 67.2884 63.8065C70.7317 63.8065 73.2315 63.1094 74.7888 61.7152C76.4281 60.3209 77.2476 58.7218 77.2476 56.9175C77.2476 54.2932 76.1003 52.5296 73.8054 51.6276C71.5105 50.6434 68.3139 49.7004 64.2148 48.7984C61.5921 48.2242 58.9284 47.5271 56.2227 46.707C53.5178 45.8867 51.0181 44.8615 48.7232 43.6314C46.5103 42.3191 44.706 40.679 43.3127 38.7106C41.9194 36.6605 41.2227 34.1591 41.2227 31.2067C41.2227 25.7936 43.3537 21.242 47.6166 17.5514C51.9608 13.8608 58.0267 12.0156 65.8131 12.0156C73.0266 12.0156 78.765 13.6967 83.027 17.0593C87.3709 20.4219 89.9537 25.0555 90.7732 30.9605H75.8954C74.9937 26.4497 71.5925 24.1944 65.6901 24.1944C62.7397 24.1944 60.4445 24.7686 58.8055 25.9168C57.2482 27.0649 56.4694 28.5001 56.4694 30.2222C56.4694 32.0264 57.6579 33.4619 60.0348 34.5278C62.4116 35.5943 65.5672 36.5782 69.5025 37.4805C73.7644 38.4645 77.6576 39.5719 81.1828 40.802C84.7892 41.9501 87.6577 43.7134 89.7897 46.0916C91.9207 48.3881 92.9861 51.7098 92.9861 56.0562C93.068 59.8289 92.0846 63.2323 90.0345 66.267C87.9855 69.3016 85.035 71.6792 81.1828 73.4016C77.3295 75.1247 72.7807 75.9852 67.5354 75.9852Z" stroke="#0EF275" stroke-width="1.2375"/>
</svg>
