<svg width="132" height="88" viewBox="0 0 132 88" fill="none" xmlns="http://www.w3.org/2000/svg">
<mask id="mask0_2056_25682" style="mask-type:luminance" maskUnits="userSpaceOnUse" x="34" y="12" width="64" height="64">
<path d="M34.0156 12.0156H97.9852V75.9852H34.0156V12.0156Z" fill="white"/>
</mask>
<g mask="url(#mask0_2056_25682)">
<path d="M66.0008 75.9855C63.9487 76.0014 61.9319 75.4536 60.1697 74.402C58.4605 73.4145 57.0281 72.0112 56.0056 70.3221C55.006 68.5429 54.4893 66.5329 54.5063 64.4907C54.5063 61.8263 55.1179 59.6054 56.3395 57.8283C57.5607 56.051 59.4481 53.9681 62.0028 51.5811C63.8899 49.8599 64.8353 48.2209 64.8353 46.6655V45.1662H63.336C61.6151 45.1662 59.2542 46.8874 56.2556 50.3318C53.3128 53.7743 49.7307 55.4952 45.5105 55.4952C43.4695 55.5134 41.4595 54.9964 39.6794 53.9962C37.9791 52.9608 36.5508 51.533 35.5153 49.8321C34.5158 48.0523 33.999 46.0421 34.016 44.0008C34.016 41.8899 34.5158 39.9748 35.5153 38.2535C36.5199 36.5282 37.9542 35.0932 39.6794 34.0895C41.4415 33.0379 43.4585 32.4904 45.5105 32.5063C49.6746 32.5063 53.2289 34.1995 56.1714 37.5878C59.1161 40.9741 61.5031 42.6673 63.336 42.6673H64.8353V41.336C64.8353 39.7809 63.8899 38.1416 62.0028 36.4204L60.0877 34.6711C58.6264 33.3088 57.3391 31.7704 56.2556 30.0913C55.0901 28.2584 54.5063 26.0653 54.5063 23.5105C54.5063 21.3995 55.006 19.4844 56.0056 17.7632C57.0102 16.0379 58.4446 14.6029 60.1697 13.5992C61.9327 12.5479 63.9487 12.0003 66.0008 12.016C68.1119 12.016 70.027 12.5437 71.7483 13.5992C73.4744 14.6029 74.9086 16.0379 75.912 17.7632C76.9678 19.4844 77.4955 21.3995 77.4955 23.5105C77.4955 27.6746 75.8023 31.2289 72.4138 34.1714C69.0274 37.1161 67.3342 39.5029 67.3342 41.336V42.6673H68.6655C70.5548 42.6673 72.9415 40.9741 75.8301 37.5878C78.6609 34.1995 82.2153 32.5063 86.4913 32.5063C88.6022 32.5063 90.5173 33.034 92.2385 34.0895C94.0156 35.0891 95.4029 36.4484 96.4026 38.1697C97.458 39.8928 97.9857 41.8357 97.9857 44.0008C98.0017 46.0528 97.4539 48.0699 96.4026 49.8321C95.3988 51.5575 93.9647 52.9924 92.2385 53.9962C90.5173 54.9955 88.6022 55.4952 86.4913 55.4952C83.8804 55.4952 81.6334 54.8578 79.7444 53.5801C77.9113 52.3027 75.8581 50.4418 73.5811 47.999C71.8602 46.1117 70.2209 45.1662 68.6655 45.1662H67.3342V46.6655C67.3342 48.7206 69.0274 51.1095 72.4138 53.8301C75.8023 56.5509 77.4955 60.105 77.4955 64.4907C77.5114 66.5428 76.9636 68.5599 75.912 70.3221C74.9377 72.0191 73.5294 73.4274 71.8321 74.402C70.1109 75.4575 68.1658 75.9855 66.0008 75.9855Z" fill="url(#paint0_linear_2056_25682)"/>
</g>
<defs>
<linearGradient id="paint0_linear_2056_25682" x1="36.0161" y1="12.0155" x2="36.0161" y2="75.9863" gradientUnits="userSpaceOnUse">
<stop stop-color="#9E84D7"/>
<stop offset="1" stop-color="#E3D1FF" stop-opacity="0.9604"/>
</linearGradient>
</defs>
</svg>
