<svg width="132" height="88" viewBox="0 0 132 88" fill="none" xmlns="http://www.w3.org/2000/svg">
<path fill-rule="evenodd" clip-rule="evenodd" d="M30.25 15.7877V23.3253L32.3229 23.3241C33.463 23.3235 34.5769 23.293 34.7984 23.2564L35.2012 23.1898L35.2292 18.2235L35.2572 13.2572L40.2235 13.2292L45.1898 13.2012L45.2564 12.7984C45.293 12.5769 45.3235 11.463 45.3241 10.3229L45.3253 8.25H37.7877H30.25V15.7877ZM86.6759 10.3229C86.6765 11.463 86.707 12.5769 86.7436 12.7984L86.8102 13.2012L91.7765 13.2292L96.7428 13.2572L96.7708 18.2912L96.7988 23.3253H99.2744H101.75V15.7877V8.25H94.2123H86.6747L86.6759 10.3229ZM61.5851 16.0427C61.5851 16.3635 61.2454 16.4309 59.6199 16.4326C58.4751 16.4337 58.4623 16.4365 58.4623 16.6883C58.4623 16.9095 58.3969 16.9518 57.9627 17.0113C57.688 17.049 57.2519 17.0798 56.9936 17.0798C56.5718 17.0798 56.5241 17.1057 56.5241 17.3344C56.5241 17.5556 56.4586 17.5979 56.0245 17.6574C55.7498 17.6951 55.3379 17.7259 55.1092 17.7259C54.743 17.7259 54.6935 17.7565 54.6935 17.9827C54.6935 18.2132 54.6329 18.2471 54.1013 18.3135C53.5663 18.3803 53.509 18.4128 53.509 18.6489C53.509 18.8967 53.4752 18.9104 52.863 18.9104H52.2169V19.2334C52.2169 19.5527 52.2101 19.5565 51.6317 19.5565C51.0735 19.5565 51.0451 19.57 51.0126 19.8526C50.9842 20.0993 50.9202 20.1543 50.6286 20.1824C50.3419 20.2101 50.2786 20.2622 50.2786 20.4708C50.2786 20.6988 50.2164 20.7332 49.6864 20.7994C49.1224 20.87 49.0941 20.8883 49.0941 21.1841C49.0941 21.4575 49.0554 21.4947 48.7711 21.4947C48.4983 21.4947 48.448 21.5366 48.448 21.7639C48.448 21.9912 48.3978 22.0331 48.125 22.0331C47.8378 22.0331 47.802 22.069 47.802 22.3562C47.802 22.6434 47.7661 22.6792 47.4789 22.6792C47.2085 22.6792 47.1559 22.7219 47.1559 22.9413C47.1559 23.1471 47.0923 23.2106 46.8598 23.2374C46.629 23.2639 46.5562 23.3354 46.5301 23.561C46.5043 23.7849 46.431 23.8582 46.2071 23.8841C45.9833 23.9099 45.9099 23.9833 45.8841 24.2071C45.8582 24.431 45.7849 24.5043 45.561 24.5301C45.3354 24.5562 45.2639 24.629 45.2374 24.8598C45.2106 25.0923 45.1471 25.1559 44.9413 25.1559C44.7219 25.1559 44.6792 25.2085 44.6792 25.4789C44.6792 25.7661 44.6434 25.802 44.3562 25.802C44.069 25.802 44.0331 25.8378 44.0331 26.125C44.0331 26.3954 43.9905 26.448 43.771 26.448C43.5653 26.448 43.5017 26.5116 43.4749 26.7442C43.4486 26.9733 43.3766 27.0477 43.1564 27.0732C42.8985 27.1031 42.8651 27.1609 42.7987 27.6924C42.7327 28.2211 42.6998 28.2786 42.464 28.2786C42.2453 28.2786 42.2026 28.3314 42.2026 28.6017C42.2026 28.8888 42.1667 28.9247 41.8795 28.9247H41.5565V29.5708V30.2169H41.2334C40.9142 30.2169 40.9104 30.2237 40.9104 30.802C40.9104 31.3602 40.8968 31.3886 40.6143 31.4212C40.334 31.4534 40.3164 31.4883 40.2858 32.0744C40.2563 32.6404 40.2322 32.6935 40.0044 32.6935C39.7895 32.6935 39.7457 32.7624 39.6867 33.1932C39.649 33.4679 39.6182 33.8797 39.6182 34.1084C39.6182 34.4735 39.5873 34.5241 39.364 34.5241C39.1378 34.5241 39.1023 34.5862 39.0419 35.0894C39.0046 35.4003 38.9735 35.8365 38.9731 36.0585C38.9722 36.4172 38.9421 36.4623 38.7029 36.4623C38.439 36.4623 38.4337 36.4788 38.4326 37.2969C38.4307 38.593 38.3486 38.939 38.0427 38.939H37.7877V44.2692V49.5994H38.1107H38.4337V50.5685C38.4337 51.5304 38.4358 51.5377 38.7029 51.5377C38.9421 51.5377 38.9722 51.5828 38.9731 51.9415C38.9735 52.1636 39.0046 52.5997 39.0419 52.9106C39.1023 53.4138 39.1378 53.4759 39.364 53.4759C39.5873 53.4759 39.6182 53.5265 39.6182 53.8915C39.6182 54.1203 39.649 54.5321 39.6867 54.8068C39.7457 55.2376 39.7895 55.3065 40.0044 55.3065C40.2322 55.3065 40.2563 55.3596 40.2858 55.9256C40.3164 56.5117 40.334 56.5466 40.6143 56.5788C40.8968 56.6114 40.9104 56.6398 40.9104 57.198C40.9104 57.7763 40.9142 57.7831 41.2334 57.7831H41.5565V58.4292V59.0753H41.8795C42.1667 59.0753 42.2026 59.1112 42.2026 59.3983C42.2026 59.6686 42.2453 59.7214 42.464 59.7214C42.7002 59.7214 42.7327 59.7787 42.7994 60.3136C42.87 60.8776 42.8883 60.9059 43.1841 60.9059C43.4575 60.9059 43.4947 60.9446 43.4947 61.2289C43.4947 61.5017 43.5366 61.552 43.7639 61.552C43.9912 61.552 44.0331 61.6022 44.0331 61.875C44.0331 62.1622 44.069 62.198 44.3562 62.198C44.6434 62.198 44.6792 62.2339 44.6792 62.5211C44.6792 62.7915 44.7219 62.8441 44.9413 62.8441C45.1471 62.8441 45.2106 62.9077 45.2374 63.1402C45.2639 63.371 45.3354 63.4438 45.561 63.4699C45.7849 63.4957 45.8582 63.569 45.8841 63.7929C45.9099 64.0167 45.9833 64.0901 46.2071 64.1159C46.431 64.1418 46.5043 64.2151 46.5301 64.439C46.5562 64.6646 46.629 64.7361 46.8598 64.7626C47.0923 64.7894 47.1559 64.8529 47.1559 65.0587C47.1559 65.2781 47.2085 65.3208 47.4789 65.3208C47.7661 65.3208 47.802 65.3566 47.802 65.6438C47.802 65.931 47.8378 65.9669 48.125 65.9669C48.3954 65.9669 48.448 66.0095 48.448 66.229C48.448 66.4347 48.5116 66.4983 48.7442 66.5251C48.9733 66.5514 49.0477 66.6234 49.0732 66.8436C49.1031 67.1015 49.1609 67.1349 49.6924 67.2013C50.2163 67.2668 50.2786 67.3016 50.2786 67.5292C50.2786 67.7378 50.3419 67.7899 50.6286 67.8176C50.9202 67.8457 50.9842 67.9007 51.0126 68.1474C51.0451 68.43 51.0735 68.4435 51.6317 68.4435C52.2101 68.4435 52.2169 68.4473 52.2169 68.7666V69.0896H52.863C53.4752 69.0896 53.509 69.1033 53.509 69.3511C53.509 69.5872 53.5663 69.6197 54.1013 69.6865C54.6329 69.7529 54.6935 69.7868 54.6935 70.0173C54.6935 70.2421 54.7438 70.2742 55.0973 70.2751C55.3195 70.2755 55.7556 70.3065 56.0665 70.3439C56.5696 70.4043 56.6318 70.4397 56.6318 70.6659C56.6318 70.8972 56.6779 70.9203 57.1433 70.9214C57.4246 70.922 57.8365 70.9526 58.0585 70.9893C58.3928 71.0446 58.4623 71.1 58.4623 71.3112C58.4623 71.5636 58.4743 71.5663 59.6199 71.5674C61.2454 71.5691 61.5851 71.6365 61.5851 71.9573V72.2123H65.9391H70.2929L70.327 71.9162L70.3611 71.6201L71.6802 71.5898C72.99 71.5598 72.9992 71.5579 72.9992 71.3029C72.9992 71.0524 73.0288 71.0441 74.1837 70.9693C75.3151 70.896 75.3682 70.8816 75.3682 70.6517C75.3682 70.447 75.4428 70.4008 75.8679 70.3426C76.1426 70.3049 76.5544 70.2741 76.7831 70.2741C77.1487 70.2741 77.1988 70.2433 77.1988 70.0188C77.1988 69.7867 77.2575 69.7569 77.8449 69.6905C78.4388 69.6232 78.491 69.596 78.491 69.3534C78.491 69.1027 78.5232 69.0896 79.137 69.0896H79.7831V68.7666C79.7831 68.4794 79.819 68.4435 80.1062 68.4435C80.3772 68.4435 80.4292 68.4011 80.4292 68.1797C80.4292 67.9371 80.4813 67.91 81.0753 67.8427C81.6569 67.7769 81.7214 67.7449 81.7214 67.5215C81.7214 67.3309 81.79 67.2655 82.0175 67.2392C82.2482 67.2127 82.3211 67.1412 82.347 66.916C82.3775 66.6525 82.4324 66.6204 82.9662 66.5536C83.4912 66.488 83.552 66.4538 83.552 66.2237C83.552 66.0102 83.6063 65.9669 83.875 65.9669C84.1622 65.9669 84.198 65.931 84.198 65.6438C84.198 65.3566 84.2339 65.3208 84.5211 65.3208C84.8083 65.3208 84.8441 65.2849 84.8441 64.9977C84.8441 64.7106 84.88 64.6747 85.1672 64.6747C85.4544 64.6747 85.4902 64.6388 85.4902 64.3517C85.4902 64.0645 85.5261 64.0286 85.8133 64.0286C86.086 64.0286 86.1363 63.9867 86.1363 63.7594C86.1363 63.5441 86.1901 63.4902 86.4055 63.4902C86.6328 63.4902 86.6747 63.4399 86.6747 63.1672C86.6747 62.88 86.7106 62.8441 86.9977 62.8441C87.2849 62.8441 87.3208 62.8083 87.3208 62.5211C87.3208 62.2339 87.3566 62.198 87.6438 62.198C87.931 62.198 87.9669 62.1622 87.9669 61.875C87.9669 61.6063 88.0102 61.552 88.2237 61.552C88.4538 61.552 88.488 61.4912 88.5536 60.9662C88.6204 60.4324 88.6525 60.3775 88.916 60.347C89.1412 60.3211 89.2127 60.2482 89.2392 60.0175C89.2657 59.7873 89.3302 59.7214 89.5286 59.7214C89.7378 59.7214 89.7899 59.6583 89.8176 59.3714C89.8457 59.0798 89.9007 59.0158 90.1474 58.9874C90.43 58.9549 90.4435 58.9265 90.4435 58.3683C90.4435 57.7899 90.4473 57.7831 90.7666 57.7831H91.0896V57.137C91.0896 56.5248 91.1033 56.491 91.3511 56.491C91.5872 56.491 91.6197 56.4337 91.6865 55.8987C91.7529 55.3671 91.7868 55.3065 92.0173 55.3065C92.2421 55.3065 92.2742 55.2562 92.2751 54.9027C92.2755 54.6806 92.3065 54.2444 92.3439 53.9335C92.4043 53.4304 92.4397 53.3682 92.6659 53.3682C92.8893 53.3682 92.9202 53.3176 92.9202 52.9526C92.9202 52.7239 92.951 52.312 92.9887 52.0373C93.0479 51.6053 93.0912 51.5377 93.3083 51.5377C93.5554 51.5377 93.5599 51.5173 93.5897 50.2724L93.6201 49.0072L93.9162 48.9731L94.2123 48.939V44V39.061L93.9162 39.0269L93.6201 38.9928L93.5897 37.7276C93.5599 36.4827 93.5554 36.4623 93.3083 36.4623C93.0912 36.4623 93.0479 36.3947 92.9887 35.9627C92.951 35.688 92.9202 35.2519 92.9202 34.9936C92.9202 34.5718 92.8943 34.5241 92.6656 34.5241C92.4444 34.5241 92.4021 34.4586 92.3426 34.0245C92.3049 33.7498 92.2741 33.3379 92.2741 33.1092C92.2741 32.743 92.2435 32.6935 92.0173 32.6935C91.7868 32.6935 91.7529 32.6329 91.6865 32.1013C91.6197 31.5663 91.5872 31.509 91.3511 31.509C91.1033 31.509 91.0896 31.4752 91.0896 30.863V30.2169H90.7666C90.4473 30.2169 90.4435 30.2101 90.4435 29.6317C90.4435 29.0735 90.43 29.0451 90.1474 29.0126C89.9007 28.9842 89.8457 28.9202 89.8176 28.6286C89.7899 28.3417 89.7378 28.2786 89.5286 28.2786C89.3302 28.2786 89.2657 28.2127 89.2392 27.9825C89.2127 27.7518 89.1412 27.6789 88.916 27.653C88.6525 27.6225 88.6204 27.5676 88.5536 27.0338C88.488 26.5088 88.4538 26.448 88.2237 26.448C88.0102 26.448 87.9669 26.3937 87.9669 26.125C87.9669 25.8378 87.931 25.802 87.6438 25.802C87.3566 25.802 87.3208 25.7661 87.3208 25.4789C87.3208 25.1917 87.2849 25.1559 86.9977 25.1559C86.7106 25.1559 86.6747 25.12 86.6747 24.8328C86.6747 24.5601 86.6328 24.5098 86.4055 24.5098C86.1901 24.5098 86.1363 24.4559 86.1363 24.2406C86.1363 24.0133 86.086 23.9714 85.8133 23.9714C85.5261 23.9714 85.4902 23.9355 85.4902 23.6483C85.4902 23.3612 85.4544 23.3253 85.1672 23.3253C84.88 23.3253 84.8441 23.2894 84.8441 23.0023C84.8441 22.7151 84.8083 22.6792 84.5211 22.6792C84.2339 22.6792 84.198 22.6434 84.198 22.3562C84.198 22.069 84.1622 22.0331 83.875 22.0331C83.6063 22.0331 83.552 21.9898 83.552 21.7763C83.552 21.5459 83.4913 21.512 82.9597 21.4455C82.4248 21.3788 82.3675 21.3462 82.3675 21.1101C82.3675 20.8914 82.3147 20.8486 82.0444 20.8486C81.7605 20.8486 81.7214 20.8112 81.7214 20.5395C81.7214 20.2415 81.6979 20.2278 81.0753 20.1573C80.4813 20.09 80.4292 20.0629 80.4292 19.8203C80.4292 19.5989 80.3772 19.5565 80.1062 19.5565C79.819 19.5565 79.7831 19.5206 79.7831 19.2334V18.9104H79.137C78.5267 18.9104 78.491 18.8961 78.491 18.6517C78.491 18.4158 78.4344 18.3865 77.8449 18.3181C77.2553 18.2498 77.1988 18.2205 77.1988 17.9846C77.1988 17.7562 77.1502 17.7259 76.7831 17.7259C76.5544 17.7259 76.1426 17.6951 75.8679 17.6574C75.4337 17.5979 75.3682 17.5556 75.3682 17.3344C75.3682 17.1026 75.3223 17.0797 74.8567 17.0786C74.5754 17.078 74.1636 17.0474 73.9415 17.0107C73.6072 16.9554 73.5377 16.9 73.5377 16.6888C73.5377 16.4364 73.5257 16.4337 72.3801 16.4326C70.7546 16.4309 70.4149 16.3635 70.4149 16.0427V15.7877H66H61.5851V16.0427ZM61.0198 20.8205C60.4451 20.8566 60.4006 20.8784 60.4006 21.1232C60.4006 21.3628 60.3575 21.387 59.9311 21.387C59.6728 21.387 59.2367 21.4178 58.962 21.4555C58.5278 21.5151 58.4623 21.5574 58.4623 21.7786C58.4623 22.018 58.4237 22.0331 57.8163 22.0331H57.1702V22.3562V22.6792H56.2549H55.3396V23.0023C55.3396 23.2894 55.3038 23.3253 55.0166 23.3253C54.7473 23.3253 54.6935 23.3684 54.6935 23.5839C54.6935 23.8199 54.637 23.8492 54.0474 23.9175C53.4641 23.9853 53.4014 24.0169 53.4014 24.2434C53.4014 24.4667 53.3363 24.5025 52.8091 24.5683C52.2775 24.6347 52.2169 24.6686 52.2169 24.8991C52.2169 25.1126 52.1625 25.1559 51.8938 25.1559C51.6066 25.1559 51.5708 25.1917 51.5708 25.4789C51.5708 25.7661 51.5349 25.802 51.2477 25.802C50.9606 25.802 50.9247 25.8378 50.9247 26.125C50.9247 26.4122 50.8888 26.448 50.6017 26.448C50.3313 26.448 50.2786 26.4907 50.2786 26.7101C50.2786 26.9159 50.2151 26.9794 49.9825 27.0063C49.7358 27.0346 49.6808 27.0986 49.6527 27.3902C49.6247 27.6801 49.5738 27.7402 49.3565 27.7402C49.1484 27.7402 49.0941 27.7959 49.0941 28.0094V28.2786H58.7854H68.4767V27.3633C68.4767 26.4588 68.4735 26.448 68.2075 26.448C67.9801 26.448 67.9383 26.3978 67.9383 26.125C67.9383 25.8391 67.9017 25.802 67.6206 25.802C67.3094 25.802 67.3023 25.7894 67.2706 25.1828C67.2401 24.5967 67.2225 24.5618 66.9422 24.5296C66.6597 24.4971 66.6461 24.4687 66.6461 23.9104C66.6461 23.3321 66.6423 23.3253 66.323 23.3253H66V22.6792V22.0331H65.677C65.3581 22.0331 65.3539 22.0256 65.3539 21.455V20.8769L64.9501 20.8101C64.542 20.7426 62.1604 20.7489 61.0198 20.8205ZM70.4149 21.1178C70.4149 21.3303 70.4695 21.387 70.6736 21.387C70.9095 21.387 70.9388 21.4436 71.0072 22.0331C71.0755 22.6227 71.1048 22.6792 71.3407 22.6792C71.5563 22.6792 71.5994 22.7329 71.5994 23.0023C71.5994 23.2894 71.6353 23.3253 71.9224 23.3253H72.2455V23.9714V24.6175H72.5685C72.8883 24.6175 72.8916 24.6235 72.8916 25.2097C72.8916 25.7959 72.8948 25.802 73.2146 25.802H73.5377V26.448V27.0941H73.8607C74.1805 27.0941 74.1837 27.1002 74.1837 27.6864C74.1837 28.2422 74.1999 28.2786 74.4462 28.2786C74.6635 28.2786 74.7143 28.3387 74.7423 28.6286C74.7704 28.9202 74.8254 28.9842 75.0721 29.0126C75.3547 29.0451 75.3682 29.0735 75.3682 29.6317C75.3682 30.2101 75.372 30.2169 75.6913 30.2169C76.0111 30.2169 76.0143 30.2229 76.0143 30.8091C76.0143 31.3953 76.0175 31.4014 76.3373 31.4014H76.6604V32.0474V32.6935H76.9834C77.2706 32.6935 77.3065 32.7294 77.3065 33.0166C77.3065 33.2859 77.3495 33.3396 77.5651 33.3396C77.8011 33.3396 77.8303 33.3961 77.8987 33.9857C77.966 34.5651 77.9991 34.6318 78.2199 34.6318C78.4377 34.6318 78.4747 34.7004 78.5402 35.224C78.6059 35.7498 78.642 35.8163 78.8632 35.8163C79.0843 35.8163 79.1206 35.8827 79.1863 36.4085C79.253 36.9435 79.2855 37.0008 79.5217 37.0008C79.7487 37.0008 79.7831 37.0504 79.7831 37.3776C79.7831 37.7246 79.8088 37.7545 80.1062 37.7545C80.426 37.7545 80.4292 37.7605 80.4292 38.3468C80.4292 38.933 80.4324 38.939 80.7523 38.939C81.0226 38.939 81.0753 38.8964 81.0753 38.6769C81.0753 38.4711 81.1388 38.4076 81.3714 38.3808C81.6517 38.3486 81.6693 38.3137 81.6998 37.7276C81.7315 37.121 81.7386 37.1084 82.0498 37.1084C82.3631 37.1084 82.3675 37.1003 82.3675 36.5162C82.3675 35.9603 82.3836 35.9239 82.6299 35.9239C82.8472 35.9239 82.898 35.8639 82.926 35.574C82.9541 35.2824 83.0091 35.2183 83.2558 35.19C83.5384 35.1575 83.552 35.129 83.552 34.5708C83.552 33.9925 83.5557 33.9857 83.875 33.9857H84.198V33.3396V32.6935H84.5211C84.8404 32.6935 84.8441 32.6867 84.8441 32.1084C84.8441 31.5502 84.8577 31.5217 85.1402 31.4892C85.4205 31.457 85.4381 31.4221 85.4687 30.836L85.501 30.2169H85.1726C84.8794 30.2169 84.8441 30.1822 84.8441 29.8938C84.8441 29.6066 84.8083 29.5708 84.5211 29.5708C84.2018 29.5708 84.198 29.564 84.198 28.9856C84.198 28.4274 84.1845 28.399 83.9019 28.3665C83.6712 28.34 83.5984 28.2685 83.5723 28.0429C83.5465 27.819 83.4731 27.7457 83.2493 27.7199C83.0255 27.694 82.9521 27.6206 82.9262 27.3968C82.9004 27.1729 82.827 27.0996 82.6032 27.0738C82.3794 27.0479 82.306 26.9745 82.2801 26.7507C82.2543 26.5269 82.181 26.4535 81.9571 26.4277C81.7315 26.4016 81.66 26.3288 81.6335 26.0981C81.601 25.8155 81.5726 25.802 81.0144 25.802C80.436 25.802 80.4292 25.7982 80.4292 25.4789C80.4292 25.1917 80.3934 25.1559 80.1062 25.1559C79.819 25.1559 79.7831 25.12 79.7831 24.8328C79.7831 24.5456 79.7473 24.5098 79.4601 24.5098C79.1914 24.5098 79.137 24.4665 79.137 24.253C79.137 24.0225 79.0764 23.9886 78.5448 23.9222C78.0176 23.8564 77.9526 23.8206 77.9526 23.5973C77.9526 23.3709 77.8898 23.3392 77.3065 23.2715C76.7169 23.2031 76.6604 23.1738 76.6604 22.9379C76.6604 22.6935 76.6246 22.6792 76.0143 22.6792H75.3682V22.3562V22.0331H74.7221C74.1143 22.0331 74.0761 22.0181 74.0761 21.778C74.0761 21.4722 73.7301 21.3901 72.4339 21.3882C71.6159 21.387 71.5994 21.3818 71.5994 21.1178C71.5994 20.8633 71.5671 20.8486 71.0072 20.8486C70.4472 20.8486 70.4149 20.8633 70.4149 21.1178ZM45.3253 33.0166C45.3253 33.3038 45.2894 33.3396 45.0023 33.3396H44.6792V33.9857V34.6318H44.3562H44.0331V35.5471V36.4623H43.7101H43.387V37.4315C43.387 38.3785 43.3812 38.4006 43.1325 38.4006C42.9113 38.4006 42.869 38.4661 42.8094 38.9002C42.7202 39.5518 42.7217 47.5592 42.8114 48.711C42.8769 49.5523 42.894 49.5994 43.1338 49.5994C43.3809 49.5994 43.387 49.6229 43.387 50.5685V51.5377H44.0331H44.6792V50.9525C44.6792 50.3943 44.6928 50.3659 44.9753 50.3334C45.2556 50.3012 45.2732 50.2663 45.3038 49.6802C45.3354 49.0736 45.3425 49.061 45.6537 49.061C45.945 49.061 45.9714 49.0297 45.9714 48.6841C45.9714 48.3569 46.0058 48.3072 46.2328 48.3072C46.469 48.3072 46.5015 48.2499 46.5683 47.715C46.6342 47.1874 46.6697 47.1227 46.8937 47.1227C47.1242 47.1227 47.1478 47.0714 47.1774 46.5036C47.208 45.9175 47.2255 45.8826 47.5058 45.8504C47.7884 45.8179 47.802 45.7894 47.802 45.2312C47.802 44.6529 47.8057 44.6461 48.125 44.6461H48.448V44V43.3539H48.7711C49.0904 43.3539 49.0941 43.3471 49.0941 42.7688C49.0941 42.2106 49.1077 42.1821 49.3902 42.1496C49.6369 42.1213 49.692 42.0572 49.7201 41.7656C49.7477 41.479 49.7999 41.4157 50.0084 41.4157C50.2364 41.4157 50.2709 41.3534 50.3371 40.8234C50.403 40.2958 50.4385 40.2312 50.6625 40.2312C50.893 40.2312 50.9166 40.1798 50.9462 39.612C50.9768 39.0259 50.9944 38.991 51.2747 38.9588C51.5572 38.9263 51.5708 38.8979 51.5708 38.3397C51.5708 37.7613 51.5746 37.7545 51.8938 37.7545C52.2131 37.7545 52.2169 37.7477 52.2169 37.1694C52.2169 36.6112 52.2304 36.5827 52.513 36.5502C52.7929 36.518 52.8108 36.4826 52.8412 35.9037C52.8714 35.3276 52.8906 35.2892 53.1642 35.2576C53.4052 35.2298 53.461 35.1639 53.4889 34.8741C53.5166 34.5874 53.5687 34.5241 53.7773 34.5241C54.0052 34.5241 54.0397 34.4619 54.1059 33.9319C54.1723 33.4002 54.2063 33.3396 54.4367 33.3396C54.6351 33.3396 54.6935 33.2816 54.6935 33.0845C54.6935 32.8734 54.624 32.8179 54.2897 32.7627C54.0677 32.7259 51.9598 32.6954 49.6056 32.6947L45.3253 32.6935V33.0166ZM59.7007 33.3396C59.6334 33.919 59.6003 33.9857 59.3795 33.9857C59.1617 33.9857 59.1247 34.0543 59.0592 34.5779C58.9925 35.1129 58.9599 35.1702 58.7238 35.1702C58.476 35.1702 58.4623 35.204 58.4623 35.8163V36.4623H58.1393C57.8521 36.4623 57.8163 36.4982 57.8163 36.7854C57.8163 37.0547 57.7732 37.1084 57.5576 37.1084C57.3217 37.1084 57.2924 37.165 57.224 37.7545C57.1563 38.3378 57.1246 38.4006 56.8982 38.4006C56.6748 38.4006 56.6391 38.4656 56.5733 38.9928C56.5078 39.5165 56.4708 39.5851 56.2531 39.5851C56.0322 39.5851 55.9992 39.6517 55.9319 40.2312C55.8635 40.8207 55.8342 40.8773 55.5983 40.8773C55.3565 40.8773 55.3396 40.916 55.3396 41.4695C55.3396 42.0557 55.3364 42.0617 55.0166 42.0617H54.6935V42.7078V43.3539H54.3705H54.0474V44V44.6461H54.3705H54.6935V45.2922V45.9383H55.0166C55.3358 45.9383 55.3396 45.945 55.3396 46.5234C55.3396 47.0816 55.3532 47.11 55.6357 47.1426C55.9119 47.1743 55.934 47.2146 55.9644 47.7419C55.9941 48.2567 56.0199 48.3072 56.2537 48.3072C56.4647 48.3072 56.5165 48.3697 56.5442 48.6572C56.5723 48.9488 56.6274 49.0129 56.8741 49.0412C57.1566 49.0737 57.1702 49.1021 57.1702 49.6603C57.1702 50.2387 57.174 50.2455 57.4932 50.2455H57.8163V50.8916C57.8163 51.5319 57.8191 51.5377 58.1269 51.5377C58.4227 51.5377 58.441 51.566 58.5116 52.1299C58.5783 52.6649 58.6108 52.7221 58.847 52.7221C59.074 52.7221 59.1084 52.7718 59.1084 53.099C59.1084 53.4263 59.1429 53.4759 59.3699 53.4759C59.606 53.4759 59.6385 53.5332 59.7053 54.0681C59.7758 54.6321 59.7941 54.6604 60.0899 54.6604C60.3633 54.6604 60.4006 54.6992 60.4006 54.9834V55.3065H66.3107H72.2207L72.2947 54.7142C72.3615 54.1793 72.394 54.122 72.6301 54.122C72.8571 54.122 72.8916 54.0723 72.8916 53.7451C72.8916 53.3982 72.9172 53.3682 73.2146 53.3682C73.5339 53.3682 73.5377 53.3614 73.5377 52.7831C73.5377 52.2249 73.5512 52.1964 73.8338 52.1639C74.1141 52.1317 74.1316 52.0968 74.1622 51.5107C74.192 50.9396 74.2143 50.8916 74.4506 50.8916C74.6803 50.8916 74.7143 50.8304 74.7806 50.2993C74.8461 49.7757 74.8831 49.7071 75.1009 49.7071C75.3217 49.7071 75.3548 49.6404 75.4221 49.061C75.4904 48.4714 75.5197 48.4149 75.7557 48.4149C75.9712 48.4149 76.0143 48.3612 76.0143 48.0919C76.0143 47.8047 76.0502 47.7688 76.3373 47.7688H76.6604V47.1227V46.4767H76.9834C77.3027 46.4767 77.3065 46.4699 77.3065 45.8915C77.3065 45.3333 77.32 45.3049 77.6026 45.2724C77.8844 45.2399 77.9003 45.2071 77.9333 44.5922C77.9522 44.2369 77.9366 43.6917 77.8986 43.3808C77.8365 42.8731 77.8028 42.8155 77.5679 42.8155C77.3409 42.8155 77.3065 42.7659 77.3065 42.4386C77.3065 42.0917 77.2808 42.0617 76.9834 42.0617C76.6642 42.0617 76.6604 42.055 76.6604 41.4766C76.6604 40.9184 76.6468 40.89 76.3643 40.8574C76.084 40.8252 76.0664 40.7904 76.0358 40.2043C76.006 39.6331 75.9837 39.5851 75.7475 39.5851C75.5178 39.5851 75.4838 39.5239 75.4174 38.9928C75.3516 38.4663 75.3157 38.4006 75.0934 38.4006C74.8901 38.4006 74.8371 38.3352 74.8097 38.0506C74.7816 37.759 74.7266 37.695 74.4799 37.6666C74.1973 37.6341 74.1837 37.6057 74.1837 37.0475C74.1837 36.4691 74.18 36.4623 73.8607 36.4623C73.5414 36.4623 73.5377 36.4556 73.5377 35.8772C73.5377 35.319 73.5241 35.2906 73.2415 35.258C72.9612 35.2259 72.9437 35.191 72.9131 34.6049C72.8814 33.9983 72.8743 33.9857 72.5631 33.9857C72.282 33.9857 72.2455 33.9485 72.2455 33.6627C72.2455 33.3899 72.2036 33.3396 71.9763 33.3396C71.749 33.3396 71.7071 33.2893 71.7071 33.0166V32.6935H65.7413H59.7756L59.7007 33.3396ZM87.931 36.5342C87.8915 36.5736 87.8592 36.6947 87.8592 36.8034C87.8592 36.9422 87.7793 37.0008 87.59 37.0008C87.3542 37.0008 87.3208 37.0474 87.3208 37.3776C87.3208 37.7049 87.2863 37.7545 87.0593 37.7545C86.8235 37.7545 86.7907 37.812 86.7247 38.3407C86.6582 38.8722 86.6248 38.9301 86.367 38.9599C86.1007 38.9907 86.0804 39.0325 86.0502 39.612C86.0203 40.1849 85.9986 40.2312 85.7594 40.2312C85.5234 40.2312 85.4945 40.2874 85.4278 40.8773C85.3621 41.4583 85.3298 41.5233 85.1072 41.5233C84.8878 41.5233 84.8511 41.591 84.7857 42.1156C84.7199 42.6421 84.6839 42.7078 84.4616 42.7078C84.2583 42.7078 84.2054 42.7732 84.1779 43.0578C84.1524 43.3226 84.0869 43.4159 83.9088 43.4412C83.7108 43.4695 83.6619 43.5677 83.6003 44.0604C83.5307 44.6172 83.5119 44.6461 83.2165 44.6461C82.9087 44.6461 82.9059 44.6518 82.9059 45.2922C82.9059 45.9044 82.8922 45.9383 82.6444 45.9383C82.4083 45.9383 82.3758 45.9955 82.309 46.5305C82.2437 47.0526 82.2061 47.1227 81.9906 47.1227C81.7751 47.1227 81.7374 47.1928 81.6722 47.715C81.6064 48.2422 81.5706 48.3072 81.3473 48.3072C81.1208 48.3072 81.0892 48.37 81.0215 48.9533C80.9531 49.5429 80.9238 49.5994 80.6879 49.5994C80.4641 49.5994 80.4292 49.6501 80.4292 49.9763C80.4292 50.3232 80.4036 50.3532 80.1062 50.3532C79.7864 50.3532 79.7831 50.3592 79.7831 50.9454C79.7831 51.5316 79.7799 51.5377 79.4601 51.5377C79.1408 51.5377 79.137 51.5444 79.137 52.1228C79.137 52.681 79.1235 52.7094 78.8409 52.742C78.5611 52.7741 78.5431 52.8096 78.5127 53.3885C78.4826 53.9646 78.4633 54.003 78.1897 54.0345C77.9156 54.0662 77.8969 54.104 77.8664 54.6873L77.8341 55.3065H82.2544H86.6747V54.9834C86.6747 54.6963 86.7106 54.6604 86.9977 54.6604C87.317 54.6604 87.3208 54.6536 87.3208 54.0753C87.3208 53.517 87.3344 53.4886 87.6169 53.4561C87.9008 53.4235 87.9143 53.3941 87.9451 52.7491C87.9747 52.126 87.9957 52.0761 88.2271 52.0761C88.4324 52.0761 88.489 52.0037 88.5438 51.6723C88.5805 51.4502 88.6111 51.0383 88.6118 50.757C88.6128 50.2921 88.636 50.2455 88.8662 50.2455C89.106 50.2455 89.1231 50.1984 89.1886 49.3571C89.2266 48.8685 89.2581 47.8993 89.2584 47.2035L89.259 45.9383H89.5282H89.7974V44V42.0617H89.5282H89.259L89.2584 40.7965C89.2581 40.1007 89.2266 39.1315 89.1886 38.6429C89.1231 37.8016 89.106 37.7545 88.8662 37.7545C88.6285 37.7545 88.613 37.7149 88.613 37.1084C88.613 36.4707 88.609 36.4623 88.3079 36.4623C88.14 36.4623 87.9704 36.4947 87.931 36.5342ZM50.9247 49.384C50.9247 49.6543 50.882 49.7071 50.6632 49.7071C50.4271 49.7071 50.3946 49.7644 50.3278 50.2993C50.2624 50.823 50.2253 50.8916 50.0076 50.8916C49.7867 50.8916 49.7537 50.9582 49.6864 51.5377C49.6191 52.1171 49.586 52.1837 49.3652 52.1837C49.1474 52.1837 49.1104 52.2523 49.0449 52.776C48.9782 53.3109 48.9456 53.3682 48.7095 53.3682C48.4617 53.3682 48.448 53.402 48.448 54.0143V54.6604H48.125C47.8052 54.6604 47.802 54.6664 47.802 55.2526C47.802 55.8388 47.7987 55.8449 47.4789 55.8449C47.1815 55.8449 47.1559 55.8748 47.1559 56.2218C47.1559 56.552 47.1225 56.5986 46.8867 56.5986C46.6321 56.5986 46.6175 56.6309 46.6175 57.1909C46.6175 57.7508 46.6321 57.7831 46.8867 57.7831C47.114 57.7831 47.1559 57.8334 47.1559 58.1062C47.1559 58.3934 47.1917 58.4292 47.4789 58.4292C47.7661 58.4292 47.802 58.4651 47.802 58.7523C47.802 59.0226 47.8446 59.0753 48.0641 59.0753C48.2698 59.0753 48.3334 59.1388 48.3602 59.3714C48.3867 59.6021 48.4582 59.675 48.6834 59.7009C48.9462 59.7313 48.9791 59.7869 49.0444 60.3091L49.1162 60.8838L49.6909 60.9556C50.2131 61.0209 50.2687 61.0538 50.2991 61.3166C50.325 61.5418 50.3979 61.6133 50.6286 61.6398C50.8612 61.6666 50.9247 61.7302 50.9247 61.9359C50.9247 62.1554 50.9774 62.198 51.2477 62.198C51.5349 62.198 51.5708 62.2339 51.5708 62.5211C51.5708 62.8083 51.6066 62.8441 51.8938 62.8441C52.1641 62.8441 52.2169 62.8869 52.2169 63.1056C52.2169 63.3414 52.2744 63.3742 52.8031 63.4402C53.3346 63.5067 53.3924 63.5401 53.4222 63.798C53.4478 64.0182 53.5222 64.0902 53.7513 64.1165C53.9839 64.1433 54.0474 64.2068 54.0474 64.4126C54.0474 64.6611 54.0808 64.6747 54.6935 64.6747H55.3396V64.9977V65.3208H55.9857H56.6318V65.6438V65.9669H57.5471H58.4623V66.2899V66.613H59.4315C60.3934 66.613 60.4006 66.615 60.4006 66.8822C60.4006 67.1367 60.4329 67.1514 60.9928 67.1514C61.5528 67.1514 61.5851 67.1367 61.5851 66.8822C61.5851 66.6697 61.5305 66.613 61.3264 66.613C61.0905 66.613 61.0612 66.5564 60.9928 65.9669C60.9255 65.3874 60.8925 65.3208 60.6716 65.3208C60.4539 65.3208 60.4169 65.2522 60.3514 64.7285C60.2846 64.1936 60.2521 64.1363 60.016 64.1363C59.789 64.1363 59.7545 64.0867 59.7545 63.7594C59.7545 63.4125 59.7289 63.3825 59.4315 63.3825C59.1122 63.3825 59.1084 63.3757 59.1084 62.7974C59.1084 62.2392 59.0949 62.2108 58.8123 62.1782C58.532 62.146 58.5145 62.1111 58.4839 61.525C58.4522 60.9185 58.4451 60.9059 58.1339 60.9059C57.8207 60.9059 57.8163 60.8977 57.8163 60.3136C57.8163 59.7578 57.8001 59.7214 57.5538 59.7214C57.3365 59.7214 57.2857 59.6613 57.2577 59.3714C57.2296 59.0798 57.1746 59.0158 56.9279 58.9874C56.6453 58.9549 56.6318 58.9265 56.6318 58.3683C56.6318 57.7899 56.628 57.7831 56.3087 57.7831C55.9889 57.7831 55.9857 57.7771 55.9857 57.1909C55.9857 56.6047 55.9825 56.5986 55.6627 56.5986H55.3396V55.9526V55.3065H55.0166C54.7294 55.3065 54.6935 55.2706 54.6935 54.9834C54.6935 54.7141 54.6505 54.6604 54.4349 54.6604C54.1989 54.6604 54.1697 54.6039 54.1013 54.0143C54.034 53.4349 54.0009 53.3682 53.7801 53.3682C53.5623 53.3682 53.5253 53.2996 53.4598 52.776C53.394 52.2488 53.3583 52.1837 53.135 52.1837C52.9085 52.1837 52.8768 52.121 52.8091 51.5377C52.7407 50.9481 52.7114 50.8916 52.4755 50.8916C52.2599 50.8916 52.2169 50.8378 52.2169 50.5685C52.2169 50.2813 52.181 50.2455 51.8938 50.2455C51.574 50.2455 51.5708 50.2395 51.5708 49.6532C51.5708 49.067 51.5676 49.061 51.2477 49.061C50.9606 49.061 50.9247 49.0969 50.9247 49.384ZM63.5233 60.3675C63.5233 60.9848 63.5353 61.0136 63.7925 61.0136C64.0471 61.0136 64.0617 61.0459 64.0617 61.6058C64.0617 62.192 64.065 62.198 64.3848 62.198C64.7046 62.198 64.7078 62.2041 64.7078 62.7903C64.7078 63.3765 64.7111 63.3825 65.0309 63.3825H65.3539V64.0286V64.6747H65.677C65.9641 64.6747 66 64.7106 66 64.9977C66 65.2671 66.0431 65.3208 66.2587 65.3208C66.4946 65.3208 66.5239 65.3773 66.5922 65.9669C66.66 66.5507 66.6914 66.613 66.9187 66.613C67.113 66.613 67.1779 66.6803 67.2043 66.9091L67.2383 67.2052L68.4767 67.2388C69.1577 67.2573 70.0179 67.2414 70.388 67.2034C71.0091 67.1395 71.061 67.1141 71.061 66.8735C71.061 66.6204 71.0848 66.613 71.8955 66.6118C73.1917 66.6099 73.5377 66.5278 73.5377 66.222C73.5377 65.9896 73.5832 65.9668 74.0491 65.9657C74.3305 65.965 74.7424 65.9345 74.9644 65.8977C75.2987 65.8425 75.3682 65.787 75.3682 65.5759C75.3682 65.3359 75.4064 65.3208 76.0143 65.3208H76.6604V64.9977C76.6604 64.6779 76.6664 64.6747 77.2526 64.6747C77.8085 64.6747 77.8449 64.6585 77.8449 64.4123C77.8449 64.195 77.905 64.1442 78.1948 64.1162C78.4826 64.0885 78.5506 64.0318 78.5778 63.798C78.6076 63.5401 78.6654 63.5067 79.1969 63.4402C79.7256 63.3742 79.7831 63.3414 79.7831 63.1056C79.7831 62.8869 79.8359 62.8441 80.1062 62.8441C80.3934 62.8441 80.4292 62.8083 80.4292 62.5211C80.4292 62.2339 80.4651 62.198 80.7523 62.198C81.0394 62.198 81.0753 62.1622 81.0753 61.875C81.0753 61.5878 81.1112 61.552 81.3983 61.552C81.6687 61.552 81.7214 61.5093 81.7214 61.2899C81.7214 61.0841 81.7849 61.0206 82.0175 60.9937C82.2501 60.967 82.321 60.8962 82.3477 60.6636C82.3745 60.431 82.438 60.3675 82.6438 60.3675C82.8632 60.3675 82.9059 60.3148 82.9059 60.0444V59.7214H73.2146H63.5233V60.3675ZM30.25 72.2123V79.75H37.7877H45.3253V77.2744V74.7988L40.2912 74.7708L35.2572 74.7428L35.2292 69.7765L35.2012 64.8102L34.7984 64.7436C34.5769 64.707 33.463 64.6765 32.3229 64.6759L30.25 64.6747V72.2123ZM96.7708 69.7088L96.7428 74.7428L91.7088 74.7708L86.6747 74.7988V77.2744V79.75H94.2123H101.75V72.2123V64.6747H99.2744H96.7988L96.7708 69.7088Z" fill="#C5BE75"/>
</svg>
