<svg width="132" height="88" viewBox="0 0 132 88" fill="none" xmlns="http://www.w3.org/2000/svg">
<path fill-rule="evenodd" clip-rule="evenodd" d="M47.8382 9.07422C38.5797 9.07422 31.0742 16.5797 31.0742 25.8382V62.1602C31.0742 71.4187 38.5797 78.9242 47.8382 78.9242H84.1602C93.4187 78.9242 100.924 71.4187 100.924 62.1602V25.8382C100.924 16.5797 93.4187 9.07422 84.1602 9.07422H47.8382ZM60.2338 31.3779H69.9667V21.6469H60.2338C58.5835 21.6691 56.9537 22.013 55.4377 22.6587C53.9216 23.3044 52.549 24.2394 51.398 25.4103C50.2471 26.5812 49.3405 27.965 48.7299 29.4827C48.1194 31.0004 47.8169 32.6223 47.8397 34.2557V44.9866H57.4248V34.2557C57.4248 32.6704 58.6814 31.3779 60.2338 31.3779ZM71.7655 56.5955H62.0572V66.3509H71.7655C75.0941 66.3059 78.2687 64.9555 80.5925 62.5961C82.9162 60.2367 84.1991 57.0611 84.1596 53.7664V43.0355H74.5745V53.7664C74.5745 55.3273 73.3178 56.5955 71.7655 56.5955Z" fill="#FC3441"/>
</svg>
