<svg width="132" height="88" viewBox="0 0 132 88" fill="none" xmlns="http://www.w3.org/2000/svg">
<path d="M74.281 39.3149C73.8304 38.3261 72.948 37.8317 71.6337 37.8317C70.1067 37.8317 69.0804 38.3261 68.5547 39.3149C68.2668 39.8781 68.1229 40.7167 68.1229 41.8307V54.1469H62.697V33.72H67.8976V36.7052C68.561 35.6413 69.1868 34.884 69.775 34.4334C70.8139 33.6324 72.1594 33.2319 73.8116 33.2319C75.3762 33.2319 76.6403 33.5761 77.6041 34.2645C78.3801 34.9028 78.9684 35.7226 79.3689 36.724C80.0698 35.5224 80.9397 34.64 81.9786 34.0767C83.08 33.5135 84.3067 33.2319 85.6584 33.2319C86.5596 33.2319 87.4483 33.4071 88.3244 33.7576C89.2006 34.108 89.9954 34.7213 90.7088 35.5975C91.2846 36.3109 91.6726 37.1871 91.8728 38.2259C91.998 38.9143 92.0606 39.9219 92.0606 41.2487L92.0231 54.1469H86.5408V41.1172C86.5408 40.3412 86.4157 39.7029 86.1653 39.2022C85.6897 38.251 84.8136 37.7753 83.5369 37.7753C82.06 37.7753 81.0399 38.3887 80.4766 39.6153C80.1887 40.2661 80.0448 41.0484 80.0448 41.9621V54.1469H74.6565V41.9621C74.6565 40.748 74.5313 39.8656 74.281 39.3149Z" fill="#262B2E"/>
<path d="M55.4876 34.6212C57.0897 35.6475 58.0097 37.4123 58.2475 39.9156H52.8967C52.8216 39.2272 52.6276 38.6828 52.3147 38.2822C51.7264 37.5563 50.7251 37.1933 49.3107 37.1933C48.1467 37.1933 47.3144 37.3748 46.8137 37.7378C46.3256 38.1007 46.0815 38.5263 46.0815 39.0144C46.0815 39.6278 46.3443 40.0721 46.87 40.3475C47.3957 40.6353 49.2544 41.1297 52.4461 41.8307C54.5739 42.3313 56.1698 43.0886 57.2337 44.1024C58.285 45.1287 58.8107 46.4117 58.8107 47.9512C58.8107 49.9789 58.0535 51.6373 56.539 52.9265C55.037 54.2032 52.709 54.8415 49.5548 54.8415C46.3381 54.8415 43.96 54.1656 42.4204 52.8138C40.8934 51.4496 40.1299 49.716 40.1299 47.6133H45.5558C45.6684 48.5645 45.9125 49.2404 46.288 49.6409C46.9514 50.3544 48.178 50.7111 49.9679 50.7111C51.0192 50.7111 51.8516 50.5546 52.4649 50.2417C53.0907 49.9288 53.4036 49.4594 53.4036 48.8336C53.4036 48.2328 53.1533 47.776 52.6526 47.4631C52.152 47.1501 50.2933 46.6119 47.0765 45.8484C44.761 45.2727 43.1276 44.553 42.1764 43.6893C41.2251 42.8382 40.7495 41.6116 40.7495 40.0095C40.7495 38.1195 41.488 36.4986 42.9649 35.1469C44.4544 33.7826 46.5446 33.1004 49.2356 33.1004C51.789 33.1004 53.873 33.6073 55.4876 34.6212Z" fill="#F80C0A"/>
<path fill-rule="evenodd" clip-rule="evenodd" d="M99.7493 10.2507H32.2507V77.7493H99.7493V10.2507ZM30.9375 8.9375V79.0625H101.062V8.9375H30.9375Z" fill="#262B2E"/>
</svg>
