<svg width="132" height="88" viewBox="0 0 132 88" fill="none" xmlns="http://www.w3.org/2000/svg">
<path d="M66 9.89844C56.5884 9.89844 48.95 17.5368 48.95 26.9484C48.95 36.36 56.5884 43.9984 66 43.9984C69.0293 43.9984 72.0161 44.8117 74.6305 46.3462C82.7519 51.1145 85.4763 61.5602 80.7079 69.6845H85.4811C86.6825 66.9736 87.3043 64.0415 87.3069 61.0763C87.3154 49.3004 77.7702 39.7501 66 39.7359C58.9413 39.7359 53.2125 34.0071 53.2125 26.9484C53.2125 19.8897 58.9413 14.1609 66 14.1609C73.0587 14.1609 78.7875 19.8897 78.7875 26.9484H83.05C83.05 17.5368 75.4116 9.89844 66 9.89844ZM66 18.4234C61.4619 18.5371 57.8163 22.1912 57.697 26.7265C57.5748 31.438 61.2914 35.3512 66 35.4734C70.5382 35.3598 74.1838 31.7057 74.3031 27.1704C74.4253 22.4589 70.7058 18.5456 66 18.4234ZM66 22.6859C68.3529 22.6859 70.2625 24.5955 70.2625 26.9484V26.9541C70.2625 29.307 68.3529 31.2166 66 31.2166C63.6415 31.2166 61.7375 29.3042 61.7375 26.9484C61.7375 24.5899 63.6415 22.6859 66 22.6859ZM53.2125 52.5234V56.7859H57.475V73.8359H44.6875V78.0984H87.3125V73.8359H74.525V56.7859H78.7875V52.5234H53.2125ZM61.7375 56.7859H70.2625V73.8359H61.7375V56.7859ZM44.6875 60.9652V61.0484C44.6817 64.024 45.3058 66.9672 46.519 69.6843H51.3032C49.8028 67.1495 48.95 64.2027 48.95 61.0484V60.9652H44.6875Z" fill="black"/>
</svg>
