<svg width="132" height="88" viewBox="0 0 132 88" fill="none" xmlns="http://www.w3.org/2000/svg">
<path fill-rule="evenodd" clip-rule="evenodd" d="M64.6441 10.4055C64.7461 10.4015 64.8483 10.4013 64.9504 10.4048L65.1495 10.4116C65.2514 10.4151 65.3532 10.4223 65.4546 10.4332L65.6532 10.4545C65.7521 10.4651 65.8507 10.4793 65.9486 10.4969L66.1477 10.5327C66.2434 10.5499 66.3386 10.5705 66.4329 10.5943L66.632 10.6447C66.7237 10.6679 66.8147 10.6941 66.9046 10.7235L67.1033 10.7882C67.1879 10.8158 67.2716 10.8461 67.3542 10.8789L67.5533 10.9582C67.6325 10.9897 67.7107 11.0236 67.7879 11.0598L67.9869 11.1535C68.0606 11.1881 68.1333 11.2249 68.2048 11.2638L68.4035 11.3717C68.4685 11.4071 68.5326 11.4441 68.5957 11.4828L68.7948 11.6051C68.855 11.642 68.9142 11.6805 68.9725 11.7204L69.1716 11.8569C69.2266 11.8946 69.2807 11.9337 69.3338 11.974L69.5325 12.1246C69.58 12.1606 69.6267 12.1976 69.6726 12.2356L69.8717 12.4003C69.9151 12.4362 69.9578 12.4731 69.9998 12.5107L70.1989 12.6894C70.239 12.7255 70.2785 12.7623 70.3172 12.7998L70.5159 12.9925C70.5496 13.0252 70.5828 13.0585 70.6154 13.0923L70.8145 13.2988C70.8457 13.3311 70.8764 13.364 70.9066 13.3974L71.1056 13.6176C71.1334 13.6484 71.1608 13.6795 71.1877 13.7111L71.3868 13.9449C71.4128 13.9754 71.4383 14.0063 71.4635 14.0376L71.6621 14.2849C71.6837 14.3118 71.7049 14.3389 71.7258 14.3662L71.9249 14.6269C71.945 14.6533 71.9649 14.6799 71.9844 14.7067L72.1834 14.9807C72.2024 15.0068 72.2211 15.0331 72.2395 15.0596L72.4381 15.3467C72.4537 15.3692 72.4691 15.3918 72.4842 15.4146L72.6833 15.7146C72.6981 15.737 72.7127 15.7595 72.7271 15.7821L72.9262 16.095C72.9402 16.117 72.9541 16.1392 72.9677 16.1615L73.1663 16.487C73.1778 16.5058 73.1892 16.5248 73.2004 16.5438L73.3995 16.8818C73.4105 16.9005 73.4214 16.9194 73.4322 16.9383L73.6312 17.2887C73.6419 17.3074 73.6524 17.3262 73.6628 17.3451L73.8614 17.7076C73.87 17.7233 73.8785 17.739 73.8868 17.7547L74.0859 18.1292C74.0943 18.1449 74.1025 18.1607 74.1106 18.1765L74.3097 18.5627C74.318 18.5788 74.3261 18.5948 74.3342 18.611L74.5328 19.0089L74.5519 19.0477L74.751 19.457L74.7703 19.4971L74.9693 19.9176L74.9884 19.9583L75.187 20.3899L75.2019 20.4225L75.4009 20.8648L75.4159 20.8985L75.615 21.3514L75.6288 21.3832L75.8279 21.8464L75.8419 21.8794L76.0405 22.3528L76.0512 22.3784L76.2503 22.8617L76.2612 22.8885L76.4603 23.3814L76.4716 23.4097L76.6703 23.9121L76.6785 23.9332L76.8776 24.4447L76.8864 24.4674L77.0855 24.9877L77.0947 25.0121L77.2933 25.5411L77.2998 25.5586L77.4989 26.096L77.506 26.1151L77.705 26.6607L77.7125 26.6814L77.9112 27.2348L77.9163 27.2492L78.1154 27.8102L78.1211 27.8263L78.3202 28.3946L78.3263 28.4123L78.525 28.9876L78.529 28.9992L78.7281 29.5812L78.7326 29.5946L78.9317 30.1831L78.9368 30.1982L79.1385 30.802L79.3412 31.4135L79.5436 32.0298L79.7426 32.6411L79.7465 32.6531L79.9472 33.2757L80.1488 33.9045L80.3512 34.5402L80.5512 35.1742L80.752 35.8129L80.9537 36.4576L81.3534 37.7463L81.5546 38.3978L81.9534 39.6974L82.1539 40.3524L82.3525 41.0043L82.5511 41.6549L82.5515 41.6563L82.9502 42.966L83.1481 43.6153L83.5461 44.9195L84.1402 46.8593L84.3389 47.5053L84.5361 48.143L84.7327 48.7759L84.7336 48.7788L84.9287 49.4055L85.1256 50.0333L85.3247 50.6641L85.5219 51.2866L85.715 51.891L85.718 51.9005L86.1065 53.1036L86.1107 53.1166L86.3055 53.7117L86.4984 54.2959L86.6922 54.8787L86.697 54.8931L86.8866 55.4563L86.8913 55.47L87.0812 56.0277L87.0857 56.0409L87.2759 56.5934L87.2803 56.606L87.4685 57.1473L87.4745 57.1646L87.6612 57.694L87.6676 57.7118L87.8551 58.236L87.8603 58.2505L88.046 58.7636L88.0538 58.7849L88.238 59.2855L88.245 59.3045L88.43 59.7996L88.4371 59.8185L88.6191 60.2987L88.6286 60.3237L88.8092 60.7912L88.8181 60.8141L88.9992 61.2748L89.0083 61.2977L89.192 61.7571L89.3794 62.2161L89.5622 62.6546L89.5728 62.6799L89.7532 63.1045L89.938 63.529L90.1226 63.9435L90.3049 64.344L90.4855 64.7294L90.6654 65.1042L90.8444 65.4663L91.0198 65.8119L91.1931 66.142L91.3663 66.4622L91.5344 66.7632L91.6998 67.0482L91.8639 67.3211L92.0229 67.5759L92.177 67.8125L92.3274 68.0337L92.4725 68.2377L92.6104 68.4225L92.7438 68.5918L92.8685 68.7424L92.9383 68.8216L93.0324 68.7133L93.1586 68.5598L93.2914 68.389L93.432 68.1989L93.5774 67.9928L93.7289 67.7677L93.8857 67.5252L94.0442 67.2698L94.2076 66.9954L94.3757 66.7036L94.5446 66.3999L94.716 66.081L94.8908 65.7451L95.0677 65.3953L95.2454 65.0335L95.4252 64.6569L95.6075 64.2654L95.7898 63.8638L95.9737 63.4482L96.1597 63.0188L96.3456 62.5803L96.5276 62.1412L96.5376 62.1168L96.7161 61.6783L96.7267 61.6519L96.9097 61.1929L97.0953 60.7184L97.103 60.6985L97.2859 60.2235L97.2943 60.2014L97.4763 59.7209L97.485 59.6976L97.6686 59.2039L97.6749 59.1866L97.8609 58.6798L97.8676 58.6613L98.0538 58.1464L98.06 58.1292L98.2463 57.6066L98.2529 57.5882L98.4402 57.0551L98.445 57.0413L98.6343 56.4965L98.6393 56.4823L98.8277 55.9336L98.8334 55.9169L99.0232 55.3566L99.0264 55.3472L99.218 54.7772L99.2223 54.7645L99.4127 54.192L99.4171 54.1787L99.6114 53.588L99.8078 52.9868C100.528 50.7819 102.899 49.5783 105.104 50.2986C107.309 51.0189 108.513 53.3902 107.792 55.5951L107.593 56.2045L107.392 56.8166L107.388 56.8299L107.189 57.4284L107.184 57.4411L106.985 58.0333L106.982 58.0427L106.783 58.629L106.778 58.6457L106.579 59.2253L106.574 59.2395L106.375 59.8124L106.37 59.8262L106.171 60.3915L106.165 60.41L105.966 60.9681L105.959 60.9853L105.76 61.5359L105.754 61.5544L105.554 62.097L105.548 62.1143L105.349 62.6486L105.341 62.6718L105.142 63.1977L105.133 63.2197L104.934 63.7367L104.926 63.7567L104.728 64.2649L104.717 64.2922L104.518 64.7911L104.507 64.8175L104.308 65.3068L104.298 65.3312L104.1 65.8108L104.086 65.843L103.887 66.3126L103.874 66.3429L103.675 66.8024L103.662 66.8321L103.463 67.2811L103.447 67.318L103.248 67.7565L103.231 67.7929L103.032 68.2205L103.015 68.2568L102.816 68.673C102.809 68.6872 102.802 68.7014 102.795 68.7155L102.596 69.1208C102.589 69.1356 102.582 69.1503 102.574 69.165L102.375 69.5586C102.368 69.5729 102.361 69.5872 102.353 69.6014L102.155 69.9832C102.146 69.9998 102.137 70.0163 102.128 70.0327L101.929 70.4031C101.92 70.4211 101.91 70.439 101.9 70.4568L101.701 70.8146C101.693 70.828 101.686 70.8413 101.678 70.8545C101.676 70.8593 101.673 70.8641 101.67 70.8689L101.471 71.2146C101.461 71.2324 101.45 71.2502 101.44 71.2678L101.241 71.6013C101.228 71.6231 101.215 71.6447 101.202 71.6662L101.003 71.987C100.989 72.0093 100.975 72.0314 100.961 72.0534L100.762 72.3613C100.748 72.3827 100.734 72.404 100.719 72.4252L100.521 72.7204C100.503 72.7461 100.486 72.7715 100.468 72.7967L100.269 73.079C100.251 73.1046 100.233 73.13 100.214 73.1553L100.015 73.4245C99.9946 73.452 99.9739 73.4792 99.9529 73.5062L99.7542 73.7616C99.7314 73.7909 99.7082 73.82 99.6846 73.8487L99.4855 74.091C99.4605 74.1215 99.4351 74.1516 99.4092 74.1813L99.2102 74.4102C99.1826 74.4418 99.1546 74.4731 99.1261 74.5039L98.9275 74.7189C98.9093 74.7387 98.8908 74.7582 98.8722 74.7776C98.8586 74.7918 98.8448 74.806 98.8309 74.8201L98.6318 75.0217C98.5957 75.0582 98.5589 75.0941 98.5215 75.1293L98.3224 75.3167C98.2845 75.3524 98.2459 75.3873 98.2067 75.4216L98.008 75.595C97.9637 75.6337 97.9186 75.6715 97.8727 75.7082L97.6737 75.8678C97.6243 75.9074 97.574 75.9459 97.5229 75.9832L97.3238 76.1285C97.2702 76.1677 97.2156 76.2056 97.1601 76.2422L96.9614 76.3732C96.9017 76.4126 96.8409 76.4505 96.7793 76.4868L96.5802 76.604C96.5119 76.6442 96.4425 76.6824 96.372 76.7187L96.173 76.8212C96.1003 76.8586 96.0266 76.8938 95.952 76.9269L95.7529 77.0151C95.675 77.0496 95.5961 77.0818 95.5162 77.1115L95.3175 77.1854C95.2296 77.2181 95.1405 77.2479 95.0505 77.2747L94.8515 77.3339C94.7614 77.3607 94.6704 77.3845 94.5787 77.4052L94.3797 77.4501C94.2855 77.4713 94.1907 77.4893 94.0954 77.5041L93.8967 77.5347C93.7955 77.5503 93.6938 77.5622 93.5917 77.5704L93.3927 77.5864C93.2899 77.5946 93.1869 77.5991 93.0838 77.5997L92.8847 77.601C92.7841 77.6016 92.6836 77.5986 92.5832 77.5921L92.3845 77.579C92.2827 77.5724 92.1812 77.562 92.0802 77.5479L91.8811 77.5202C91.7846 77.5068 91.6886 77.49 91.5932 77.4699L91.3942 77.4279C91.2981 77.4076 91.2029 77.384 91.1085 77.357L90.9098 77.3003C90.823 77.2756 90.7371 77.248 90.6521 77.2177L90.453 77.1467C90.371 77.1175 90.29 77.0857 90.21 77.0515L90.0109 76.9662C89.9317 76.9323 89.8536 76.896 89.7766 76.8572L89.5779 76.7573C89.5094 76.7228 89.4418 76.6864 89.3753 76.6482L89.1762 76.534C89.1145 76.4986 89.0538 76.4617 88.994 76.4232L88.7949 76.2951C88.7343 76.2561 88.6746 76.2155 88.6161 76.1734L88.4174 76.0306C88.3681 75.9951 88.3195 75.9585 88.2717 75.9209L88.0726 75.7643C88.0255 75.7272 87.9792 75.6892 87.9338 75.6502L87.7347 75.4792C87.6936 75.4439 87.6531 75.4078 87.6133 75.3709L87.4143 75.1861C87.394 75.1673 87.3739 75.1482 87.354 75.129C87.3365 75.1121 87.3191 75.095 87.3019 75.0778L87.1032 74.8791C87.0709 74.8468 87.0391 74.814 87.0079 74.7806L86.8088 74.5681C86.7796 74.5369 86.7508 74.5053 86.7226 74.4732L86.5235 74.2472C86.4953 74.2153 86.4677 74.1829 86.4405 74.1501L86.2418 73.9103C86.2197 73.8835 86.1978 73.8565 86.1764 73.8292L85.9773 73.5764C85.955 73.548 85.9331 73.5194 85.9115 73.4906L85.7124 73.2239C85.7011 73.2087 85.6899 73.1935 85.6788 73.1782C85.671 73.1674 85.6632 73.1566 85.6555 73.1458L85.4569 72.8665C85.4398 72.8425 85.423 72.8183 85.4064 72.794L85.2074 72.5013C85.1916 72.478 85.176 72.4546 85.1606 72.431L84.9615 72.1253C84.9468 72.1027 84.9324 72.08 84.9181 72.0571L84.7194 71.7388C84.7116 71.7261 84.7038 71.7135 84.696 71.7008C84.6918 71.6939 84.6877 71.6871 84.6836 71.6802L84.4845 71.3492C84.4791 71.3403 84.4738 71.3314 84.4685 71.3225C84.4625 71.3124 84.4566 71.3022 84.4507 71.292L84.2516 70.9489C84.2401 70.929 84.2287 70.9091 84.2175 70.889L84.0189 70.5333C84.013 70.5228 84.0072 70.5123 84.0015 70.5018C83.9983 70.496 83.9951 70.4901 83.9919 70.4842L83.7928 70.1163C83.7844 70.1008 83.7761 70.0853 83.768 70.0697L83.5689 69.6904C83.5636 69.6803 83.5583 69.6701 83.5531 69.66C83.5495 69.653 83.5459 69.646 83.5424 69.6391L83.3437 69.2476L83.3238 69.2079L83.1247 68.8051C83.1177 68.7909 83.1107 68.7766 83.1039 68.7623L82.9048 68.3478L82.8874 68.311L82.6883 67.886L82.6692 67.8447L82.4706 67.4084L82.4566 67.3772L82.2575 66.9304L82.243 66.8975L82.0439 66.4401L82.029 66.4053L81.8303 65.9375L81.8197 65.9122L81.6206 65.4346L81.6088 65.406L81.4097 64.9184L81.3983 64.8902L81.1997 64.3933L81.1906 64.3704L80.9915 63.8638L80.9826 63.841L80.7835 63.3257L80.7739 63.3007L80.5753 62.7766L80.5682 62.7576L80.3691 62.2247L80.362 62.2056L80.163 61.6647L80.1552 61.6433L79.9565 61.0944L79.9513 61.0799L79.7522 60.5234L79.7459 60.5056L79.5468 59.9411L79.5408 59.9239L79.3421 59.3527L79.3377 59.34L79.1387 58.7617L79.1341 58.7485L78.9351 58.1639L78.9304 58.1501L78.7313 57.5587L78.7265 57.5443L78.5278 56.9471L78.5248 56.9379L78.3257 56.3348L78.3225 56.325L78.1234 55.7168L78.1192 55.7038L77.7194 54.4657L77.7164 54.4562L77.5173 53.833L77.5143 53.8236L76.9113 51.9113L76.1115 49.3285L75.512 47.3716L75.1137 46.066L74.5171 44.107L74.5166 44.1056L74.318 43.4547L73.3286 40.2284L72.9344 38.9573L72.9318 38.9489L72.7353 38.321L72.344 37.0784L72.3406 37.0679L72.1449 36.4532L71.7556 35.242L71.7517 35.23L71.5598 34.6408L71.5565 34.6307L71.3644 34.0458L71.3607 34.0347L71.1683 33.4544L71.1653 33.4452L70.9747 32.8748L70.9697 32.8597L70.7802 32.2997L70.7757 32.2863L70.5851 31.7293L70.5811 31.7177L70.3926 31.1717L70.3865 31.154L70.1992 30.6194L70.1935 30.6034L70.0053 30.0729L70.0001 30.0584L69.8103 29.5299L69.615 28.9947L69.4295 28.4939L69.423 28.4764L69.2353 27.9767L69.0454 27.4802L68.8548 26.9905L68.666 26.513L68.478 26.0475L68.2897 25.5905L68.1033 25.1462L67.9181 24.7154L67.7335 24.2954L67.5494 23.8863L67.3675 23.4912L67.1876 23.1111L67.0077 22.7413L66.8307 22.3868L66.6563 22.0484L66.4823 21.7211L66.3121 21.4104L66.145 21.1164L65.9793 20.8351L65.8184 20.5714L65.662 20.3256L65.5078 20.0934L65.3601 19.8799L65.2187 19.6854L65.0812 19.5053L64.9526 19.3452L64.8329 19.2046L64.8132 19.1828L64.7861 19.2129L64.6659 19.3545L64.5368 19.5159L64.3988 19.697L64.2572 19.8925L64.1091 20.1071L63.9547 20.3404L63.797 20.5888L63.6365 20.8519L63.4718 21.1327L63.3028 21.4307L63.1329 21.7407L62.96 22.0673L62.7838 22.4098L62.6071 22.7636L62.4284 23.1326L62.2468 23.5167L62.0652 23.911L61.882 24.3195L61.6967 24.7419L61.5112 25.1741L61.3247 25.6185L61.1369 26.0753L60.9486 26.5424L60.7592 27.0212L60.5694 27.5097L60.3789 28.0085L60.1878 28.5174L59.9995 29.0262L59.8071 29.5541L59.8006 29.5722L59.6142 30.0912L59.6082 30.108L59.421 30.6362L59.4152 30.6526L59.2272 31.1902L59.2221 31.2049L59.0331 31.7518L59.0283 31.7659L58.8387 32.3209L58.8342 32.3342L58.6439 32.8973L58.6397 32.9098L58.4489 33.4806L58.445 33.4923L58.2535 34.0706L58.2499 34.0815L58.0579 34.6667L58.0546 34.677L57.862 35.2691L57.859 35.2784L57.6659 35.877L57.6631 35.8857L57.4669 36.4983L57.0761 37.7313L56.4828 39.6297L55.0974 44.1452L54.8987 44.7975L54.6997 45.451L52.3 53.2304L51.8974 54.4945L51.8945 54.5037L51.6955 55.1215L51.4939 55.7434L51.4902 55.7547L51.2913 56.3624L51.2881 56.3723L51.0891 56.975L51.0852 56.9867L50.8863 57.5835L50.8823 57.5953L50.6834 58.1863L50.679 58.1992L50.48 58.7839L50.4753 58.7977L50.2764 59.3756L50.271 59.3911L50.0721 59.9619L50.0666 59.9775L49.8676 60.5411L49.8616 60.558L49.6627 61.114L49.6565 61.1313L49.4575 61.6798L49.4507 61.6984L49.2518 62.239L49.2444 62.2588L49.0455 62.7909L49.0376 62.8119L48.8387 63.3356L48.8301 63.3578L48.6312 63.8727L48.6218 63.8967L48.4229 64.4024L48.4131 64.4271L48.2141 64.9235L48.2039 64.9489L48.0049 65.4361L47.9932 65.4645L47.7943 65.9416L47.7817 65.9715L47.5827 66.4385L47.569 66.4703L47.3701 66.9269L47.3561 66.9586L47.1572 67.405L47.1411 67.4405L46.9422 67.8761L46.9251 67.9129L46.7262 68.3376L46.7081 68.3756L46.5092 68.7893C46.5023 68.8037 46.4953 68.8181 46.4881 68.8325L46.2892 69.2344C46.2821 69.2488 46.2749 69.2632 46.2676 69.2775L46.0686 69.6681C46.0607 69.6836 46.0527 69.6991 46.0445 69.7146L45.8456 70.0934C45.8371 70.1097 45.8284 70.1258 45.8197 70.142L45.6208 70.509C45.6112 70.5266 45.6016 70.5441 45.5918 70.5615L45.3929 70.9164C45.3826 70.9348 45.3722 70.953 45.3616 70.9712L45.1626 71.3139C45.1512 71.3337 45.1395 71.3534 45.1277 71.373L44.9288 71.7031C44.9162 71.724 44.9034 71.7448 44.8905 71.7655L44.6915 72.083C44.6778 72.1048 44.664 72.1265 44.6499 72.1481L44.451 72.453C44.4356 72.4766 44.4199 72.5 44.404 72.5233L44.2051 72.8152C44.1972 72.8268 44.1892 72.8384 44.1812 72.8499C44.1715 72.8638 44.1618 72.8776 44.152 72.8914L43.953 73.1698C43.935 73.195 43.9168 73.2199 43.8983 73.2447L43.6993 73.5105C43.6784 73.5385 43.6571 73.5662 43.6355 73.5936L43.4366 73.846C43.4126 73.8765 43.3881 73.9067 43.3632 73.9365L43.1643 74.1751C43.1394 74.2049 43.1142 74.2343 43.0885 74.2634L42.8896 74.489C42.8594 74.5232 42.8286 74.5569 42.7974 74.5901L42.5984 74.8014C42.5669 74.8348 42.5348 74.8678 42.5023 74.9002L42.3033 75.098C42.2673 75.1338 42.2306 75.169 42.1933 75.2034L41.9944 75.3874C41.9544 75.4243 41.9137 75.4605 41.8724 75.4959L41.6734 75.666C41.6278 75.705 41.5813 75.743 41.5341 75.78L41.3352 75.9359C41.2843 75.9757 41.2325 76.0144 41.1798 76.0519L40.9809 76.1934C40.9264 76.2322 40.871 76.2696 40.8147 76.3057L40.6157 76.4334C40.5539 76.4731 40.4909 76.5112 40.4271 76.5476L40.2281 76.661C40.1581 76.7009 40.0869 76.7388 40.0147 76.7747L39.8158 76.8733C39.7438 76.9091 39.6708 76.9427 39.5969 76.9742L39.3979 77.0591C39.3153 77.0943 39.2317 77.1268 39.147 77.1567L38.9481 77.2268C38.8594 77.2581 38.7696 77.2864 38.679 77.3117L38.48 77.3671C38.3886 77.3926 38.2964 77.4149 38.2034 77.4342L38.0045 77.4753C37.9089 77.4951 37.8127 77.5115 37.716 77.5246L37.5171 77.5515C37.4155 77.5652 37.3135 77.5752 37.2112 77.5815L37.0123 77.5936C36.9121 77.5998 36.8117 77.6023 36.7114 77.6012L36.5124 77.5991C36.4063 77.598 36.3002 77.5929 36.1944 77.5837L35.9955 77.5665C35.8999 77.5582 35.8046 77.5467 35.7097 77.5319L35.5108 77.5008C35.4122 77.4854 35.3142 77.4665 35.217 77.4441L35.0181 77.3983C34.924 77.3767 34.8307 77.3518 34.7384 77.3237L34.5394 77.2632C34.4533 77.2371 34.368 77.2081 34.2837 77.1764L34.0847 77.1017C34.0043 77.0714 33.9248 77.0388 33.8464 77.0037L33.6474 76.9146C33.5731 76.8813 33.4997 76.8459 33.4274 76.8083L33.2284 76.705C33.1582 76.6686 33.0891 76.6302 33.0211 76.5898L32.8222 76.4718C32.7621 76.4361 32.7029 76.399 32.6447 76.3604L32.4457 76.2285C32.3879 76.1902 32.331 76.1504 32.2751 76.1092L32.0762 75.9627C32.0283 75.9274 31.9813 75.8912 31.935 75.854L31.736 75.6939C31.6889 75.656 31.6425 75.617 31.597 75.5771L31.3981 75.4024C31.3592 75.3683 31.3211 75.3335 31.2835 75.298L31.0846 75.1098C31.0483 75.0755 31.0127 75.0406 30.9777 75.005L30.7788 74.803C30.7454 74.7691 30.7126 74.7347 30.6804 74.6997L30.4815 74.4834C30.4539 74.4535 30.4268 74.4231 30.4002 74.3924L30.2012 74.1631C30.1747 74.1325 30.1486 74.1016 30.123 74.0702L29.9241 73.8271C29.9008 73.7987 29.8779 73.7699 29.8555 73.7409L29.6565 73.4843C29.6361 73.458 29.616 73.4314 29.5962 73.4046L29.3972 73.135C29.378 73.1089 29.359 73.0825 29.3404 73.056L29.1415 72.7729C29.1247 72.749 29.1081 72.7249 29.0918 72.7006L28.8928 72.4045C28.8779 72.3823 28.8632 72.3599 28.8486 72.3374L28.6497 72.0286C28.6356 72.0067 28.6216 71.9847 28.6079 71.9625L28.409 71.6408C28.3964 71.6205 28.384 71.6001 28.3718 71.5796L28.1729 71.2453C28.1617 71.2265 28.1507 71.2077 28.1398 71.1887L27.9409 70.8422C27.9306 70.8243 27.9204 70.8063 27.9104 70.7882L27.7114 70.4295C27.7018 70.4122 27.6923 70.3948 27.683 70.3774L27.4841 70.0065C27.4756 69.9907 27.4672 69.9749 27.459 69.959L27.26 69.5764C27.2521 69.5611 27.2443 69.5458 27.2365 69.5305L27.0376 69.1361C27.0304 69.122 27.0234 69.1078 27.0164 69.0936L26.8175 68.6879L26.7977 68.647L26.5987 68.23L26.5803 68.1907L26.3813 67.7623L26.3651 67.7269L26.1662 67.2881L26.1512 67.2545L25.9522 66.8051L25.9374 66.7713L25.7384 66.311L25.7255 66.2807L25.5265 65.8103L25.5148 65.7822L25.3159 65.3022L25.3042 65.2738L25.1053 64.7837L25.095 64.7582L24.8961 64.2588L24.8866 64.2347L24.6876 63.7261L24.6788 63.7034L24.4799 63.1859L24.4711 63.1628L24.2721 62.6362C23.4524 60.4663 24.547 58.0427 26.7169 57.223C28.8868 56.4033 31.3104 57.4979 32.13 59.6678L32.3246 60.1829L32.5148 60.6775L32.7045 61.1626L32.8936 61.6372L33.0816 62.1004L33.2688 62.5522L33.4555 62.9934L33.6406 63.4218L33.8246 63.8374L34.0079 64.2418L34.1895 64.6329L34.3694 65.0099L34.5478 65.3739L34.7245 65.7241L34.8992 66.0599L35.0713 66.381L35.2408 66.6865L35.408 66.9777L35.5719 67.2531L35.7315 67.5112L35.8874 67.7531L36.0395 67.9795L36.1852 68.1869L36.3256 68.3771L36.4602 68.5507L36.5859 68.7044L36.6878 68.8217L36.7507 68.7504L36.875 68.6013L37.0055 68.4357L37.1453 68.249L37.2902 68.046L37.4393 67.8274L37.594 67.5903L37.753 67.3365L37.9153 67.0672L38.0812 66.7813L38.25 66.4802L38.4216 66.1636L38.5956 65.8323L38.7717 65.4865L38.9494 65.1277L39.1287 64.7546L39.3101 64.3675L39.4926 63.968L39.6765 63.5553L39.8616 63.1306L40.0474 62.6944L40.2342 62.2463L40.4221 61.7861L40.611 61.3148L40.8005 60.8332L40.9905 60.3416L41.1813 59.8393L41.3726 59.3275L41.561 58.8157L41.5678 58.797L41.7538 58.2844L41.76 58.2671L41.9467 57.7452L41.9527 57.7283L42.1402 57.1971L42.1457 57.1815L42.3338 56.6419L42.3392 56.6263L42.528 56.0778L42.5327 56.064L42.7225 55.5061L42.7269 55.4931L42.9175 54.927L42.9215 54.9152L43.1126 54.3419L43.1165 54.3302L43.3083 53.7491L43.3115 53.7392L43.5035 53.1527L43.5072 53.1413L43.7025 52.539L43.8958 51.9387L43.8988 51.9295L44.2915 50.6962L49.2634 34.5776L49.4646 33.9448L49.6662 33.3152L49.669 33.3065L49.8679 32.6898L49.8709 32.6805L50.0732 32.0586L50.2757 31.4413L50.4747 30.8404L50.4786 30.8287L50.6776 30.2336L50.6818 30.2212L50.8807 29.6323L50.8852 29.619L51.0842 29.0366L51.089 29.0224L51.288 28.4467L51.2931 28.432L51.492 27.8632L51.4978 27.8468L51.6968 27.2854L51.7028 27.2685L51.9017 26.7146L51.9082 26.6966L52.1072 26.1505L52.1142 26.1315L52.3132 25.5935L52.3207 25.5734L52.5196 25.0438L52.5276 25.0227L52.7265 24.5017L52.7353 24.4789L52.9343 23.9668L52.9437 23.9429L53.1426 23.44L53.1528 23.4146L53.3517 22.9211L53.3626 22.8944L53.5616 22.4105L53.573 22.383L53.7718 21.909L53.7853 21.8773L53.9843 21.4134L53.998 21.3818L54.1971 20.9282L54.2107 20.8975L54.4094 20.4545L54.4269 20.4161L54.6259 19.9839L54.6434 19.9464L54.8425 19.5251L54.8601 19.4883L55.0588 19.0783C55.0661 19.0632 55.0735 19.0482 55.081 19.0331L55.2801 18.6345C55.2875 18.6196 55.2951 18.6048 55.3027 18.59L55.5018 18.2029C55.5093 18.1882 55.517 18.1735 55.5248 18.1589L55.7234 17.7836C55.7329 17.7658 55.7424 17.748 55.7521 17.7303L55.9512 17.3671C55.961 17.3493 55.9709 17.3315 55.9809 17.3138L56.18 16.9628C56.19 16.9451 56.2002 16.9275 56.2104 16.9099L56.4091 16.5712C56.4215 16.5501 56.434 16.5291 56.4467 16.5083L56.6458 16.182C56.6588 16.1607 56.6719 16.1396 56.6853 16.1185L56.8844 15.8049C56.8986 15.7824 56.9131 15.7601 56.9278 15.7379L57.1269 15.4371C57.142 15.4143 57.1572 15.3917 57.1727 15.3693L57.3714 15.0814C57.3896 15.0551 57.4081 15.0289 57.4269 15.003L57.626 14.7282C57.6454 14.7013 57.6652 14.6747 57.6853 14.6483L57.8844 14.3868C57.9051 14.3596 57.9261 14.3327 57.9475 14.3061L58.1461 14.0579C58.1711 14.0267 58.1965 13.9959 58.2224 13.9654L58.4215 13.7308C58.4482 13.6993 58.4754 13.6682 58.503 13.6375L58.7021 13.4165C58.7311 13.3843 58.7605 13.3526 58.7905 13.3213L58.9892 13.114C59.0236 13.0781 59.0586 13.0428 59.0943 13.0081L59.2934 12.8146C59.3307 12.7783 59.3687 12.7427 59.4074 12.7079L59.6065 12.5283C59.6471 12.4916 59.6884 12.4558 59.7305 12.4207L59.9291 12.2551C59.9769 12.2153 60.0255 12.1766 60.075 12.1389L60.2741 11.9874C60.326 11.9479 60.3788 11.9096 60.4325 11.8726L60.6316 11.7352C60.6882 11.6962 60.7458 11.6585 60.8043 11.6223L61.0029 11.4992C61.0678 11.459 61.1338 11.4205 61.2007 11.3839L61.3998 11.2751C61.4699 11.2368 61.5411 11.2005 61.6132 11.1662L61.8123 11.0717C61.8881 11.0357 61.9651 11.002 62.0429 10.9706L62.2416 10.8905C62.3256 10.8567 62.4107 10.8255 62.4967 10.7971L62.6958 10.7315C62.7844 10.7023 62.8739 10.676 62.9642 10.6528L63.1633 10.6016C63.2576 10.5773 63.3528 10.5563 63.4486 10.5386L63.6477 10.5019C63.7454 10.4839 63.8437 10.4694 63.9424 10.4583L64.1411 10.4361C64.2421 10.4248 64.3434 10.4172 64.445 10.4132L64.6441 10.4055Z" fill="#02063B"/>
</svg>
