<svg width="132" height="88" viewBox="0 0 132 88" fill="none" xmlns="http://www.w3.org/2000/svg">
<path fill-rule="evenodd" clip-rule="evenodd" d="M90.2467 60.0768C81.3252 60.0768 74.0926 52.8794 74.0926 44.0008C74.0926 35.1222 81.3252 27.9247 90.2467 27.9247C99.1689 27.9247 106.401 35.1222 106.401 44.0008C106.401 52.8794 99.1689 60.0768 90.2467 60.0768ZM66.0004 30.7465C67.0434 30.7465 67.8888 31.5878 67.8888 32.6259C67.8888 33.6638 67.0434 34.5052 66.0004 34.5052C64.9573 34.5052 64.1119 33.6638 64.1119 32.6259C64.1119 31.5878 64.9573 30.7465 66.0004 30.7465ZM41.7539 60.0768C32.8321 60.0768 25.5996 52.8794 25.5996 44.0008C25.5996 35.1222 32.8321 27.9247 41.7539 27.9247C50.6757 27.9247 57.9081 35.1222 57.9081 44.0008C57.9081 52.8794 50.6757 60.0768 41.7539 60.0768ZM90.2467 25.3008C84.087 25.3008 78.6196 28.2504 75.1927 32.8074H71.1575C70.5966 30.4903 68.5011 28.7683 66.0004 28.7683C63.4997 28.7683 61.4044 30.4903 60.8432 32.8074H56.8083C53.3812 28.2504 47.9137 25.3008 41.7539 25.3008C31.376 25.3008 22.9629 33.6729 22.9629 44.0008C22.9629 54.3285 31.376 62.7008 41.7539 62.7008C52.132 62.7008 60.5449 54.3285 60.5449 44.0008C60.5449 43.1966 60.4938 42.4043 60.395 41.6269H61.0567C61.5424 40.3875 62.4848 39.3764 63.678 38.7968C64.3795 39.1373 65.1675 39.3287 66.0004 39.3287C66.8335 39.3287 67.6213 39.1373 68.323 38.7968C69.516 39.3764 70.4584 40.3875 70.9441 41.6269H71.606C71.507 42.4043 71.4559 43.1966 71.4559 44.0008C71.4559 54.3285 79.869 62.7008 90.2467 62.7008C100.625 62.7008 109.038 54.3285 109.038 44.0008C109.038 33.6729 100.625 25.3008 90.2467 25.3008Z" fill="#3B97D3"/>
</svg>
