<svg width="132" height="88" viewBox="0 0 132 88" fill="none" xmlns="http://www.w3.org/2000/svg">
<g filter="url(#filter0_d_2056_22480)">
<path d="M52.4628 13.2266H79.5372C85.5298 13.2266 87.7029 13.8505 89.8938 15.0222C92.0847 16.1939 93.804 17.9133 94.9761 20.1041C96.1476 22.295 96.7715 24.4681 96.7715 30.4608V57.5353C96.7715 63.5278 96.1476 65.701 94.9761 67.8919C93.804 70.0828 92.0847 71.8021 89.8938 72.9741C87.7029 74.1457 85.5298 74.7695 79.5372 74.7695H52.4628C46.4701 74.7695 44.2969 74.1457 42.1061 72.9741C39.9152 71.8021 38.1958 70.0828 37.0242 67.8919C35.8525 65.701 35.2285 63.5278 35.2285 57.5353V30.4608C35.2285 24.4681 35.8525 22.295 37.0242 20.1041C38.1958 17.9133 39.9152 16.1939 42.1061 15.0222C44.2969 13.8505 46.4701 13.2266 52.4628 13.2266Z" fill="white"/>
</g>
<path d="M52.4628 13.2266H79.5372C85.5298 13.2266 87.7029 13.8505 89.8938 15.0222C92.0847 16.1939 93.804 17.9133 94.9761 20.1041C96.1476 22.295 96.7715 24.4681 96.7715 30.4608V57.5353C96.7715 63.5278 96.1476 65.701 94.9761 67.8919C93.804 70.0828 92.0847 71.8021 89.8938 72.9741C87.7029 74.1457 85.5298 74.7695 79.5372 74.7695H52.4628C46.4701 74.7695 44.2969 74.1457 42.1061 72.9741C39.9152 71.8021 38.1958 70.0828 37.0242 67.8919C35.8525 65.701 35.2285 63.5278 35.2285 57.5353V30.4608C35.2285 24.4681 35.8525 22.295 37.0242 20.1041C38.1958 17.9133 39.9152 16.1939 42.1061 15.0222C44.2969 13.8505 46.4701 13.2266 52.4628 13.2266Z" fill="url(#paint0_linear_2056_22480)"/>
<g opacity="0.38">
<g opacity="0.38" filter="url(#filter1_d_2056_22480)">
<path d="M49.6085 44.0412C50.2189 44.0412 51.0328 43.8377 51.6433 43.2273C53.8815 41.396 55.7129 39.7681 58.3581 39.7681C60.1894 39.7681 62.4277 40.582 65.2764 42.0064C68.9391 44.0412 72.1948 45.0586 75.247 45.0586C80.1305 45.0586 83.1829 42.4134 85.6246 40.1751C86.8455 39.1577 87.049 37.1229 86.0316 35.902C85.4212 35.2915 84.6072 34.8846 83.7933 34.8846C83.1829 34.8846 82.369 35.0881 81.7585 35.6985C79.52 37.5298 77.6887 39.1577 75.0435 39.1577C73.2122 39.1577 70.9739 38.3438 68.1252 36.9194C64.4625 34.8846 61.2068 33.8672 58.1546 33.8672C53.2711 33.8672 50.2189 36.5124 47.7771 38.7507C46.5562 39.7681 46.3528 41.8029 47.3702 43.0238C47.7771 43.6342 48.5911 44.0412 49.6085 44.0412Z" fill="white"/>
</g>
</g>
<g filter="url(#filter2_d_2056_22480)">
<path d="M49.6085 41.5959C50.2189 41.5959 51.0328 41.3924 51.6433 40.782C53.8815 38.9506 55.7129 37.3228 58.3581 37.3228C60.1894 37.3228 62.4277 38.1367 65.2764 39.5611C68.9391 41.5959 72.1948 42.6133 75.247 42.6133C80.1305 42.6133 83.1829 39.968 85.6246 37.7298C86.8455 36.7124 87.049 34.6776 86.0316 33.4567C85.4212 32.8462 84.6072 32.4393 83.7933 32.4393C83.1829 32.4393 82.369 32.6428 81.7585 33.2532C79.52 35.0845 77.6887 36.7124 75.0435 36.7124C73.2122 36.7124 70.9739 35.8984 68.1252 34.4741C64.4625 32.4393 61.2068 31.4219 58.1546 31.4219C53.2711 31.4219 50.2189 34.0671 47.7771 36.3054C46.5562 37.3228 46.3528 39.3576 47.3702 40.5785C47.7771 41.1889 48.5911 41.5959 49.6085 41.5959Z" fill="white"/>
</g>
<path d="M49.6085 41.5959C50.2189 41.5959 51.0328 41.3924 51.6433 40.782C53.8815 38.9506 55.7129 37.3228 58.3581 37.3228C60.1894 37.3228 62.4277 38.1367 65.2764 39.5611C68.9391 41.5959 72.1948 42.6133 75.247 42.6133C80.1305 42.6133 83.1829 39.968 85.6246 37.7298C86.8455 36.7124 87.049 34.6776 86.0316 33.4567C85.4212 32.8462 84.6072 32.4393 83.7933 32.4393C83.1829 32.4393 82.369 32.6428 81.7585 33.2532C79.52 35.0845 77.6887 36.7124 75.0435 36.7124C73.2122 36.7124 70.9739 35.8984 68.1252 34.4741C64.4625 32.4393 61.2068 31.4219 58.1546 31.4219C53.2711 31.4219 50.2189 34.0671 47.7771 36.3054C46.5562 37.3228 46.3528 39.3576 47.3702 40.5785C47.7771 41.1889 48.5911 41.5959 49.6085 41.5959Z" fill="url(#paint1_linear_2056_22480)"/>
<path d="M49.6085 41.5959C50.2189 41.5959 51.0328 41.3924 51.6433 40.782C53.8815 38.9506 55.7129 37.3228 58.3581 37.3228C60.1894 37.3228 62.4277 38.1367 65.2764 39.5611C68.9391 41.5959 72.1948 42.6133 75.247 42.6133C80.1305 42.6133 83.1829 39.968 85.6246 37.7298C86.8455 36.7124 87.049 34.6776 86.0316 33.4567C85.4212 32.8462 84.6072 32.4393 83.7933 32.4393C83.1829 32.4393 82.369 32.6428 81.7585 33.2532C79.52 35.0845 77.6887 36.7124 75.0435 36.7124C73.2122 36.7124 70.9739 35.8984 68.1252 34.4741C64.4625 32.4393 61.2068 31.4219 58.1546 31.4219C53.2711 31.4219 50.2189 34.0671 47.7771 36.3054C46.5562 37.3228 46.3528 39.3576 47.3702 40.5785C47.7771 41.1889 48.5911 41.5959 49.6085 41.5959Z" fill="url(#paint2_linear_2056_22480)"/>
<path d="M49.6085 41.5959C50.2189 41.5959 51.0328 41.3924 51.6433 40.782C53.8815 38.9506 55.7129 37.3228 58.3581 37.3228C60.1894 37.3228 62.4277 38.1367 65.2764 39.5611C68.9391 41.5959 72.1948 42.6133 75.247 42.6133C80.1305 42.6133 83.1829 39.968 85.6246 37.7298C86.8455 36.7124 87.049 34.6776 86.0316 33.4567C85.4212 32.8462 84.6072 32.4393 83.7933 32.4393C83.1829 32.4393 82.369 32.6428 81.7585 33.2532C79.52 35.0845 77.6887 36.7124 75.0435 36.7124C73.2122 36.7124 70.9739 35.8984 68.1252 34.4741C64.4625 32.4393 61.2068 31.4219 58.1546 31.4219C53.2711 31.4219 50.2189 34.0671 47.7771 36.3054C46.5562 37.3228 46.3528 39.3576 47.3702 40.5785C47.7771 41.1889 48.5911 41.5959 49.6085 41.5959Z" fill="url(#paint3_radial_2056_22480)"/>
<g filter="url(#filter3_d_2056_22480)">
<path d="M49.6085 41.5959C50.2189 41.5959 51.0328 41.3924 51.6433 40.782C53.8815 38.9506 55.7129 37.3228 58.3581 37.3228C60.1894 37.3228 62.4277 38.1367 65.2764 39.5611C68.9391 41.5959 72.1948 42.6133 75.247 42.6133C80.1305 42.6133 83.1829 39.968 85.6246 37.7298C86.8455 36.7124 87.049 34.6776 86.0316 33.4567C85.4212 32.8462 84.6072 32.4393 83.7933 32.4393C83.1829 32.4393 82.369 32.6428 81.7585 33.2532C79.52 35.0845 77.6887 36.7124 75.0435 36.7124C73.2122 36.7124 70.9739 35.8984 68.1252 34.4741C64.4625 32.4393 61.2068 31.4219 58.1546 31.4219C53.2711 31.4219 50.2189 34.0671 47.7771 36.3054C46.5562 37.3228 46.3528 39.3576 47.3702 40.5785C47.7771 41.1889 48.5911 41.5959 49.6085 41.5959Z" fill="white"/>
</g>
<path fill-rule="evenodd" clip-rule="evenodd" d="M49.6085 41.5959C50.2189 41.5959 51.0328 41.3924 51.6433 40.782C53.8815 38.9506 55.7129 37.3228 58.3581 37.3228C60.1894 37.3228 62.4277 38.1367 65.2764 39.5611C68.9391 41.5959 72.1948 42.6133 75.247 42.6133C80.1305 42.6133 83.1829 39.968 85.6246 37.7298C86.8455 36.7124 87.049 34.6776 86.0316 33.4567C85.4212 32.8462 84.6072 32.4393 83.7933 32.4393C83.1829 32.4393 82.369 32.6428 81.7585 33.2532C79.52 35.0845 77.6887 36.7124 75.0435 36.7124C73.2122 36.7124 70.9739 35.8984 68.1252 34.4741C64.4625 32.4393 61.2068 31.4219 58.1546 31.4219C53.2711 31.4219 50.2189 34.0671 47.7771 36.3054C46.5562 37.3228 46.3528 39.3576 47.3702 40.5785C47.7771 41.1889 48.5911 41.5959 49.6085 41.5959Z" fill="url(#paint4_linear_2056_22480)" fill-opacity="0.3"/>
<g opacity="0.38">
<g opacity="0.38" filter="url(#filter4_d_2056_22480)">
<path d="M49.6085 57.8771C50.2189 57.8771 51.0328 57.6737 51.6433 57.0632C53.8815 55.2319 55.7129 53.604 58.3581 53.604C60.1894 53.604 62.4277 54.418 65.2764 55.8423C68.9391 57.8771 72.1948 58.8945 75.247 58.8945C80.1305 58.8945 83.1829 56.2493 85.6246 54.011C86.8455 52.9936 87.049 50.9588 86.0316 49.7379C85.4212 49.1275 84.6072 48.7205 83.7933 48.7205C83.1829 48.7205 82.369 48.924 81.7585 49.5344C79.52 51.3658 77.6887 52.9936 75.0435 52.9936C73.2122 52.9936 70.9739 52.1797 68.1252 50.7553C64.4625 48.7205 61.2068 47.7031 58.1546 47.7031C53.2711 47.7031 50.2189 50.3484 47.7771 52.5866C46.5562 53.604 46.3528 55.6389 47.3702 56.8597C47.7771 57.4702 48.5911 57.8771 49.6085 57.8771Z" fill="white"/>
</g>
</g>
<g filter="url(#filter5_d_2056_22480)">
<path d="M49.6085 55.4318C50.2189 55.4318 51.0328 55.2283 51.6433 54.6179C53.8815 52.7866 55.7129 51.1587 58.3581 51.1587C60.1894 51.1587 62.4277 51.9727 65.2764 53.397C68.9391 55.4318 72.1948 56.4492 75.247 56.4492C80.1305 56.4492 83.1829 53.804 85.6246 51.5657C86.8455 50.5483 87.049 48.5135 86.0316 47.2926C85.4212 46.6822 84.6072 46.2752 83.7933 46.2752C83.1829 46.2752 82.369 46.4787 81.7585 47.0891C79.52 48.9205 77.6887 50.5483 75.0435 50.5483C73.2122 50.5483 70.9739 49.7344 68.1252 48.31C64.4625 46.2752 61.2068 45.2578 58.1546 45.2578C53.2711 45.2578 50.2189 47.9031 47.7771 50.1413C46.5562 51.1587 46.3528 53.1935 47.3702 54.4144C47.7771 55.0249 48.5911 55.4318 49.6085 55.4318Z" fill="white"/>
</g>
<path d="M49.6085 55.4318C50.2189 55.4318 51.0328 55.2283 51.6433 54.6179C53.8815 52.7866 55.7129 51.1587 58.3581 51.1587C60.1894 51.1587 62.4277 51.9727 65.2764 53.397C68.9391 55.4318 72.1948 56.4492 75.247 56.4492C80.1305 56.4492 83.1829 53.804 85.6246 51.5657C86.8455 50.5483 87.049 48.5135 86.0316 47.2926C85.4212 46.6822 84.6072 46.2752 83.7933 46.2752C83.1829 46.2752 82.369 46.4787 81.7585 47.0891C79.52 48.9205 77.6887 50.5483 75.0435 50.5483C73.2122 50.5483 70.9739 49.7344 68.1252 48.31C64.4625 46.2752 61.2068 45.2578 58.1546 45.2578C53.2711 45.2578 50.2189 47.9031 47.7771 50.1413C46.5562 51.1587 46.3528 53.1935 47.3702 54.4144C47.7771 55.0249 48.5911 55.4318 49.6085 55.4318Z" fill="url(#paint5_linear_2056_22480)"/>
<path d="M49.6085 55.4318C50.2189 55.4318 51.0328 55.2283 51.6433 54.6179C53.8815 52.7866 55.7129 51.1587 58.3581 51.1587C60.1894 51.1587 62.4277 51.9727 65.2764 53.397C68.9391 55.4318 72.1948 56.4492 75.247 56.4492C80.1305 56.4492 83.1829 53.804 85.6246 51.5657C86.8455 50.5483 87.049 48.5135 86.0316 47.2926C85.4212 46.6822 84.6072 46.2752 83.7933 46.2752C83.1829 46.2752 82.369 46.4787 81.7585 47.0891C79.52 48.9205 77.6887 50.5483 75.0435 50.5483C73.2122 50.5483 70.9739 49.7344 68.1252 48.31C64.4625 46.2752 61.2068 45.2578 58.1546 45.2578C53.2711 45.2578 50.2189 47.9031 47.7771 50.1413C46.5562 51.1587 46.3528 53.1935 47.3702 54.4144C47.7771 55.0249 48.5911 55.4318 49.6085 55.4318Z" fill="url(#paint6_linear_2056_22480)"/>
<path d="M49.6085 55.4318C50.2189 55.4318 51.0328 55.2283 51.6433 54.6179C53.8815 52.7866 55.7129 51.1587 58.3581 51.1587C60.1894 51.1587 62.4277 51.9727 65.2764 53.397C68.9391 55.4318 72.1948 56.4492 75.247 56.4492C80.1305 56.4492 83.1829 53.804 85.6246 51.5657C86.8455 50.5483 87.049 48.5135 86.0316 47.2926C85.4212 46.6822 84.6072 46.2752 83.7933 46.2752C83.1829 46.2752 82.369 46.4787 81.7585 47.0891C79.52 48.9205 77.6887 50.5483 75.0435 50.5483C73.2122 50.5483 70.9739 49.7344 68.1252 48.31C64.4625 46.2752 61.2068 45.2578 58.1546 45.2578C53.2711 45.2578 50.2189 47.9031 47.7771 50.1413C46.5562 51.1587 46.3528 53.1935 47.3702 54.4144C47.7771 55.0249 48.5911 55.4318 49.6085 55.4318Z" fill="url(#paint7_radial_2056_22480)"/>
<g filter="url(#filter6_d_2056_22480)">
<path d="M49.6085 55.4318C50.2189 55.4318 51.0328 55.2283 51.6433 54.6179C53.8815 52.7866 55.7129 51.1587 58.3581 51.1587C60.1894 51.1587 62.4277 51.9727 65.2764 53.397C68.9391 55.4318 72.1948 56.4492 75.247 56.4492C80.1305 56.4492 83.1829 53.804 85.6246 51.5657C86.8455 50.5483 87.049 48.5135 86.0316 47.2926C85.4212 46.6822 84.6072 46.2752 83.7933 46.2752C83.1829 46.2752 82.369 46.4787 81.7585 47.0891C79.52 48.9205 77.6887 50.5483 75.0435 50.5483C73.2122 50.5483 70.9739 49.7344 68.1252 48.31C64.4625 46.2752 61.2068 45.2578 58.1546 45.2578C53.2711 45.2578 50.2189 47.9031 47.7771 50.1413C46.5562 51.1587 46.3528 53.1935 47.3702 54.4144C47.7771 55.0249 48.5911 55.4318 49.6085 55.4318Z" fill="white"/>
</g>
<path fill-rule="evenodd" clip-rule="evenodd" d="M49.6085 55.4318C50.2189 55.4318 51.0328 55.2283 51.6433 54.6179C53.8815 52.7866 55.7129 51.1587 58.3581 51.1587C60.1894 51.1587 62.4277 51.9727 65.2764 53.397C68.9391 55.4318 72.1948 56.4492 75.247 56.4492C80.1305 56.4492 83.1829 53.804 85.6246 51.5657C86.8455 50.5483 87.049 48.5135 86.0316 47.2926C85.4212 46.6822 84.6072 46.2752 83.7933 46.2752C83.1829 46.2752 82.369 46.4787 81.7585 47.0891C79.52 48.9205 77.6887 50.5483 75.0435 50.5483C73.2122 50.5483 70.9739 49.7344 68.1252 48.31C64.4625 46.2752 61.2068 45.2578 58.1546 45.2578C53.2711 45.2578 50.2189 47.9031 47.7771 50.1413C46.5562 51.1587 46.3528 53.1935 47.3702 54.4144C47.7771 55.0249 48.5911 55.4318 49.6085 55.4318Z" fill="url(#paint8_linear_2056_22480)" fill-opacity="0.3"/>
<defs>
<filter id="filter0_d_2056_22480" x="33.8535" y="12.1266" width="64.293" height="64.293" filterUnits="userSpaceOnUse" color-interpolation-filters="sRGB">
<feFlood flood-opacity="0" result="BackgroundImageFix"/>
<feColorMatrix in="SourceAlpha" type="matrix" values="0 0 0 0 0 0 0 0 0 0 0 0 0 0 0 0 0 0 127 0" result="hardAlpha"/>
<feOffset dy="0.275"/>
<feGaussianBlur stdDeviation="0.6875"/>
<feColorMatrix type="matrix" values="0 0 0 0 0 0 0 0 0 0 0 0 0 0 0 0 0 0 0.187964 0"/>
<feBlend mode="normal" in2="BackgroundImageFix" result="effect1_dropShadow_2056_22480"/>
<feBlend mode="normal" in="SourceGraphic" in2="effect1_dropShadow_2056_22480" result="shape"/>
</filter>
<filter id="filter1_d_2056_22480" x="43.6937" y="31.1172" width="46.0139" height="17.2414" filterUnits="userSpaceOnUse" color-interpolation-filters="sRGB">
<feFlood flood-opacity="0" result="BackgroundImageFix"/>
<feColorMatrix in="SourceAlpha" type="matrix" values="0 0 0 0 0 0 0 0 0 0 0 0 0 0 0 0 0 0 127 0" result="hardAlpha"/>
<feOffset dy="0.275"/>
<feGaussianBlur stdDeviation="1.5125"/>
<feColorMatrix type="matrix" values="0 0 0 0 0 0 0 0 0 0 0 0 0 0 0 0 0 0 0.543788 0"/>
<feBlend mode="normal" in2="BackgroundImageFix" result="effect1_dropShadow_2056_22480"/>
<feBlend mode="normal" in="SourceGraphic" in2="effect1_dropShadow_2056_22480" result="shape"/>
</filter>
<filter id="filter2_d_2056_22480" x="45.8938" y="31.1469" width="42.7139" height="13.9414" filterUnits="userSpaceOnUse" color-interpolation-filters="sRGB">
<feFlood flood-opacity="0" result="BackgroundImageFix"/>
<feColorMatrix in="SourceAlpha" type="matrix" values="0 0 0 0 0 0 0 0 0 0 0 0 0 0 0 0 0 0 127 0" result="hardAlpha"/>
<feOffset dx="0.55" dy="1.1"/>
<feGaussianBlur stdDeviation="0.6875"/>
<feColorMatrix type="matrix" values="0 0 0 0 0 0 0 0 0 0 0 0 0 0 0 0 0 0 0.15 0"/>
<feBlend mode="normal" in2="BackgroundImageFix" result="effect1_dropShadow_2056_22480"/>
<feBlend mode="normal" in="SourceGraphic" in2="effect1_dropShadow_2056_22480" result="shape"/>
</filter>
<filter id="filter3_d_2056_22480" x="45.3438" y="30.0469" width="42.7139" height="13.9414" filterUnits="userSpaceOnUse" color-interpolation-filters="sRGB">
<feFlood flood-opacity="0" result="BackgroundImageFix"/>
<feColorMatrix in="SourceAlpha" type="matrix" values="0 0 0 0 0 0 0 0 0 0 0 0 0 0 0 0 0 0 127 0" result="hardAlpha"/>
<feOffset/>
<feGaussianBlur stdDeviation="0.6875"/>
<feComposite in2="hardAlpha" operator="out"/>
<feColorMatrix type="matrix" values="0 0 0 0 0.262745 0 0 0 0 0.32549 0 0 0 0 1 0 0 0 0.15 0"/>
<feBlend mode="normal" in2="BackgroundImageFix" result="effect1_dropShadow_2056_22480"/>
<feBlend mode="normal" in="SourceGraphic" in2="effect1_dropShadow_2056_22480" result="shape"/>
</filter>
<filter id="filter4_d_2056_22480" x="43.6937" y="44.9531" width="46.0139" height="17.2414" filterUnits="userSpaceOnUse" color-interpolation-filters="sRGB">
<feFlood flood-opacity="0" result="BackgroundImageFix"/>
<feColorMatrix in="SourceAlpha" type="matrix" values="0 0 0 0 0 0 0 0 0 0 0 0 0 0 0 0 0 0 127 0" result="hardAlpha"/>
<feOffset dy="0.275"/>
<feGaussianBlur stdDeviation="1.5125"/>
<feColorMatrix type="matrix" values="0 0 0 0 0 0 0 0 0 0 0 0 0 0 0 0 0 0 0.543788 0"/>
<feBlend mode="normal" in2="BackgroundImageFix" result="effect1_dropShadow_2056_22480"/>
<feBlend mode="normal" in="SourceGraphic" in2="effect1_dropShadow_2056_22480" result="shape"/>
</filter>
<filter id="filter5_d_2056_22480" x="45.8938" y="44.9828" width="42.7139" height="13.9414" filterUnits="userSpaceOnUse" color-interpolation-filters="sRGB">
<feFlood flood-opacity="0" result="BackgroundImageFix"/>
<feColorMatrix in="SourceAlpha" type="matrix" values="0 0 0 0 0 0 0 0 0 0 0 0 0 0 0 0 0 0 127 0" result="hardAlpha"/>
<feOffset dx="0.55" dy="1.1"/>
<feGaussianBlur stdDeviation="0.6875"/>
<feColorMatrix type="matrix" values="0 0 0 0 0 0 0 0 0 0 0 0 0 0 0 0 0 0 0.15 0"/>
<feBlend mode="normal" in2="BackgroundImageFix" result="effect1_dropShadow_2056_22480"/>
<feBlend mode="normal" in="SourceGraphic" in2="effect1_dropShadow_2056_22480" result="shape"/>
</filter>
<filter id="filter6_d_2056_22480" x="45.3438" y="43.8828" width="42.7139" height="13.9414" filterUnits="userSpaceOnUse" color-interpolation-filters="sRGB">
<feFlood flood-opacity="0" result="BackgroundImageFix"/>
<feColorMatrix in="SourceAlpha" type="matrix" values="0 0 0 0 0 0 0 0 0 0 0 0 0 0 0 0 0 0 127 0" result="hardAlpha"/>
<feOffset/>
<feGaussianBlur stdDeviation="0.6875"/>
<feComposite in2="hardAlpha" operator="out"/>
<feColorMatrix type="matrix" values="0 0 0 0 0.262745 0 0 0 0 0.32549 0 0 0 0 1 0 0 0 0.15 0"/>
<feBlend mode="normal" in2="BackgroundImageFix" result="effect1_dropShadow_2056_22480"/>
<feBlend mode="normal" in="SourceGraphic" in2="effect1_dropShadow_2056_22480" result="shape"/>
</filter>
<linearGradient id="paint0_linear_2056_22480" x1="41.0394" y1="71.7551" x2="88.4733" y2="26.2276" gradientUnits="userSpaceOnUse">
<stop stop-color="#4553FF"/>
<stop offset="1" stop-color="#A338FF"/>
</linearGradient>
<linearGradient id="paint1_linear_2056_22480" x1="71.2934" y1="36.239" x2="79.6173" y2="60.9591" gradientUnits="userSpaceOnUse">
<stop stop-color="#FCFDFC"/>
<stop offset="1" stop-color="#C6CBFF"/>
</linearGradient>
<linearGradient id="paint2_linear_2056_22480" x1="86.6827" y1="36.6992" x2="82.9277" y2="38.1771" gradientUnits="userSpaceOnUse">
<stop stop-color="#137524" stop-opacity="0.15"/>
<stop offset="1" stop-color="white" stop-opacity="0"/>
</linearGradient>
<radialGradient id="paint3_radial_2056_22480" cx="0" cy="0" r="1" gradientUnits="userSpaceOnUse" gradientTransform="translate(52.6723 33.1069) rotate(-35.0819) scale(34.7667 24.1827)">
<stop stop-color="white"/>
<stop offset="1" stop-color="#E5E0FF"/>
</radialGradient>
<linearGradient id="paint4_linear_2056_22480" x1="65.8552" y1="36.8721" x2="77.089" y2="46.8613" gradientUnits="userSpaceOnUse">
<stop stop-color="#158927" stop-opacity="0"/>
<stop offset="0.110525" stop-color="#16892B" stop-opacity="0.01"/>
<stop offset="1" stop-color="#4353FF" stop-opacity="0.17"/>
</linearGradient>
<linearGradient id="paint5_linear_2056_22480" x1="71.2934" y1="50.075" x2="79.6173" y2="74.795" gradientUnits="userSpaceOnUse">
<stop stop-color="#FCFDFC"/>
<stop offset="1" stop-color="#C6CBFF"/>
</linearGradient>
<linearGradient id="paint6_linear_2056_22480" x1="86.6827" y1="50.5352" x2="82.9277" y2="52.013" gradientUnits="userSpaceOnUse">
<stop stop-color="#137524" stop-opacity="0.15"/>
<stop offset="1" stop-color="white" stop-opacity="0"/>
</linearGradient>
<radialGradient id="paint7_radial_2056_22480" cx="0" cy="0" r="1" gradientUnits="userSpaceOnUse" gradientTransform="translate(52.6723 46.9428) rotate(-35.0819) scale(34.7667 24.1827)">
<stop stop-color="white"/>
<stop offset="1" stop-color="#E5E0FF"/>
</radialGradient>
<linearGradient id="paint8_linear_2056_22480" x1="65.8552" y1="50.708" x2="77.089" y2="60.6975" gradientUnits="userSpaceOnUse">
<stop stop-color="#158927" stop-opacity="0"/>
<stop offset="0.110525" stop-color="#16892B" stop-opacity="0.01"/>
<stop offset="1" stop-color="#4353FF" stop-opacity="0.17"/>
</linearGradient>
</defs>
</svg>
