<svg width="132" height="88" viewBox="0 0 132 88" fill="none" xmlns="http://www.w3.org/2000/svg">
<path d="M66.0004 78.0984C84.8333 78.0984 100.1 62.8313 100.1 43.9984C100.1 25.1655 84.8333 9.89844 66.0004 9.89844C47.1675 9.89844 31.9004 25.1655 31.9004 43.9984C31.9004 62.8313 47.1675 78.0984 66.0004 78.0984Z" fill="#705DE8"/>
<path opacity="0.2" d="M57.969 60.3859C57.7784 59.0365 57.683 57.6757 57.6831 56.313C57.7784 54.8922 60.4468 54.9867 61.9716 54.7973C62.8292 54.7973 63.5915 54.8922 63.5915 56.313L63.4964 57.5442C63.4964 60.1017 65.0211 62.2804 67.213 62.2804C70.6436 62.2804 70.9297 60.4808 70.9297 55.8394H70.8344V53.945C70.8344 51.2928 70.453 49.7772 68.3564 49.7772H67.88C66.4504 49.7772 65.1164 49.3985 63.687 49.3985H63.2104C58.7315 49.3985 57.8737 44.6622 57.0161 41.2522C56.6653 39.3468 56.5056 37.411 56.5397 35.4742C56.5397 34.148 56.8255 32.8219 56.73 31.3064V30.9277C56.73 25.4338 61.114 23.5391 66.1648 23.5391H68.3564C73.0261 23.5391 76.7428 25.339 76.7428 31.78V32.0642L76.9334 35.4742C76.9334 36.5161 76.6475 36.9897 75.0274 36.9897H73.6933L71.5014 37.0846H71.3108C71.1256 37.027 70.9624 36.9141 70.8431 36.7618C70.7239 36.6095 70.6544 36.4244 70.6438 36.2317C70.6438 35.2845 71.025 34.2426 71.025 33.3901C71.025 31.1167 69.5001 29.6012 66.5459 29.6012C62.3528 29.6012 63.02 40.1157 63.02 40.3999C63.02 43.2416 65.8789 43.2412 67.7849 43.3359L69.5003 43.1467C74.9323 43.1467 75.9804 45.8936 76.7428 49.3036C77.0438 50.5448 77.2037 51.8158 77.2192 53.0925C77.2289 53.7569 77.1971 54.4214 77.1241 55.0818L77.2192 58.2075C77.2192 63.133 76.1708 67.2059 69.3095 68.532C69.0962 68.6099 68.8691 68.6421 68.6425 68.6269C63.8774 68.6269 58.4455 66.9217 57.969 60.3859Z" fill="black"/>
<path d="M56.0619 58.4914C55.8714 57.142 55.7757 55.7812 55.7761 54.4185C55.8714 52.9977 58.5397 53.0924 60.0643 52.903C60.9221 52.903 61.6845 52.9977 61.6845 54.4185L61.5892 55.6497C61.5892 58.2072 63.114 60.3858 65.3059 60.3858C68.7365 60.3858 69.0226 58.5863 69.0226 53.9449H68.9271V52.0505C68.9271 49.3982 68.5459 47.8827 66.4494 47.8827H65.9729C64.5434 47.8827 63.2093 47.504 61.7797 47.504H61.3033C56.8243 47.504 55.9666 42.7677 55.1088 39.3577C54.7582 37.4522 54.5985 35.5165 54.6324 33.5796C54.6324 32.2535 54.9183 30.9274 54.823 29.4118V29.0331C54.823 23.5393 59.2069 21.6445 64.2577 21.6445H66.4494C71.119 21.6445 74.8357 23.4444 74.8357 29.8855V30.1696L75.0261 33.5796C75.0261 34.6216 74.7402 35.0952 73.1203 35.0952H71.7862L69.5941 35.1901H69.4037C69.2183 35.1325 69.0552 35.0196 68.936 34.8673C68.8168 34.715 68.7471 34.5299 68.7365 34.3372C68.7365 33.39 69.1177 32.348 69.1177 31.4955C69.1177 29.2222 67.593 27.7067 64.6388 27.7067C60.4457 27.7067 61.1127 38.2212 61.1127 38.5054C61.1127 41.347 63.9716 41.3467 65.8776 41.4414L67.593 41.2521C73.0252 41.2521 74.0732 43.9991 74.8357 47.4091C75.1367 48.6505 75.2964 49.9213 75.3121 51.198C75.3216 51.8623 75.29 52.5269 75.2169 53.1873L75.3121 56.313C75.3121 61.2385 74.2638 65.3116 67.4023 66.6377C67.1891 66.7154 66.9618 66.7476 66.7352 66.7324C61.9703 66.7324 56.5384 65.0272 56.0619 58.4914Z" fill="white"/>
</svg>
