<svg width="132" height="88" viewBox="0 0 132 88" fill="none" xmlns="http://www.w3.org/2000/svg">
<path d="M85.9911 12.0156H46.0099C39.3861 12.0156 34.0156 17.3857 34.0156 24.0099V63.9911C34.0156 70.615 39.3861 75.9852 46.0099 75.9852H85.9911C92.615 75.9852 97.9852 70.615 97.9852 63.9911V24.0099C97.9852 17.3857 92.615 12.0156 85.9911 12.0156Z" fill="#241670"/>
<path fill-rule="evenodd" clip-rule="evenodd" d="M81.9944 48.1992L82.3123 48.4008C82.892 48.7671 83.0649 49.5335 82.6981 50.1127C82.5892 50.2848 82.439 50.4278 82.2622 50.5285L67.2874 59.0287C66.1478 59.6758 64.7524 59.6758 63.612 59.0287L48.6382 50.5285C48.0426 50.1902 47.8336 49.4329 48.1713 48.8369C48.2725 48.6596 48.4152 48.5097 48.5871 48.4008L48.905 48.1992L63.612 56.5471C64.6806 57.1538 65.974 57.1914 67.0715 56.6607L67.2874 56.5471L81.9944 48.1992Z" fill="#6EF9E4"/>
<path fill-rule="evenodd" clip-rule="evenodd" d="M81.9944 41.9922L82.3123 42.1938C82.892 42.5601 83.0649 43.3265 82.6981 43.9059C82.5892 44.0783 82.439 44.2211 82.2622 44.3217L67.2874 52.822C66.1478 53.4688 64.7524 53.4688 63.612 52.822L48.6382 44.3217C48.0426 43.9835 47.8336 43.2261 48.1713 42.6302C48.2725 42.4528 48.4152 42.3029 48.5871 42.1938L48.905 41.9922L63.612 50.3404C64.6806 50.9467 65.974 50.9847 67.0715 50.4542L67.2874 50.3404L81.9944 41.9922Z" fill="#52C5FF"/>
<path fill-rule="evenodd" clip-rule="evenodd" d="M66.8287 27.5477C66.4079 27.2815 65.928 27.1484 65.4493 27.1484C64.9705 27.1484 64.4917 27.2815 64.071 27.5477L49.2012 37.1216L64.176 45.6218C64.9655 46.0704 65.9333 46.0704 66.7228 45.6218L81.7018 36.9527L66.8287 27.5477Z" stroke="#6958DA" stroke-width="1.2375"/>
</svg>
