<svg width="132" height="88" viewBox="0 0 132 88" fill="none" xmlns="http://www.w3.org/2000/svg">
<path d="M98.7254 8.63281H33.2754V79.3676H98.7254V8.63281Z" fill="#E78A5E"/>
<path d="M64.3934 42.4681H57.9054L52.8704 35.4942H49.2516V42.4681H43.4395V20.0156H53.4111C55.9117 20.0156 57.973 20.73 59.5949 22.1588C61.217 23.5649 62.0279 25.4246 62.0279 27.7379C62.0279 30.5501 60.8565 32.6819 58.5136 34.1334L64.3934 42.4681ZM49.2516 25.1184V30.3914H53.4448C54.2559 30.3914 54.8979 30.1532 55.371 29.677C55.8666 29.178 56.1144 28.5317 56.1144 27.7379C56.1144 26.9441 55.8666 26.3091 55.371 25.8328C54.8979 25.3566 54.2559 25.1184 53.4448 25.1184H49.2516Z" fill="white"/>
<path d="M67.8535 42.4681V20.0156H85.2501V25.2885H73.6657V28.3842H83.6988V33.2829H73.6657V37.1951H85.6554V42.4681H67.8535Z" fill="white"/>
<path d="M43.9043 67.9838V45.5312H53.8759C56.3765 45.5312 58.4378 46.2456 60.0598 47.6744C61.6818 49.0805 62.4928 50.9404 62.4928 53.2535C62.4928 55.5215 61.6706 57.381 60.026 58.8326C58.3815 60.2839 56.3315 61.01 53.8759 61.01H49.7165V67.9838H43.9043ZM49.7165 55.9069H53.9097C54.7207 55.9069 55.3628 55.6687 55.8359 55.1926C56.3315 54.6938 56.5793 54.0475 56.5793 53.2535C56.5793 52.4596 56.3315 51.8246 55.8359 51.3486C55.3628 50.8721 54.7207 50.6339 53.9097 50.6339H49.7165V55.9069Z" fill="white"/>
<path d="M64.4989 56.7544C64.4313 53.5567 65.5915 50.8013 67.9794 48.488C70.3899 46.1747 73.2284 45.0521 76.4949 45.1201C79.7613 45.0521 82.6001 46.1747 85.0103 48.488C87.4434 50.8013 88.6264 53.5567 88.5585 56.7544C88.6264 59.9749 87.4434 62.7307 85.0103 65.0211C82.6001 67.3118 79.7613 68.4342 76.4949 68.3891C73.2059 68.4342 70.3674 67.3118 67.9794 65.0211C65.5915 62.7307 64.4313 59.9749 64.4989 56.7544ZM82.6111 56.7544C82.6111 54.9174 82.0257 53.4205 80.8541 52.264C79.7052 51.0847 78.2633 50.4952 76.5287 50.4952C74.7266 50.4952 73.2622 51.0733 72.1358 52.2298C71.0094 53.3868 70.4462 54.895 70.4462 56.7544C70.4462 58.6143 71.0094 60.1338 72.1358 61.3132C73.2622 62.447 74.7266 63.014 76.5287 63.014C78.2861 63.014 79.739 62.4356 80.8878 61.279C82.0366 60.1225 82.6111 58.6143 82.6111 56.7544Z" fill="white"/>
</svg>
