<svg width="132" height="88" viewBox="0 0 132 88" fill="none" xmlns="http://www.w3.org/2000/svg">
<path fill-rule="evenodd" clip-rule="evenodd" d="M44.8497 34.7773L65.9972 76.1692L30.4521 34.7773H44.8497Z" fill="#EA6C00"/>
<path fill-rule="evenodd" clip-rule="evenodd" d="M87.1503 34.7773L66.0028 76.1692L101.548 34.7773H87.1503Z" fill="#EA6C00"/>
<path fill-rule="evenodd" clip-rule="evenodd" d="M44.8486 34.7773H87.1436L65.9961 76.1692L44.8486 34.7773Z" fill="#FDAD00"/>
<path fill-rule="evenodd" clip-rule="evenodd" d="M65.9961 11.8359L45.9617 13.9537L44.8486 34.7753L65.9961 11.8359Z" fill="#FDD231"/>
<path fill-rule="evenodd" clip-rule="evenodd" d="M65.9971 11.8359L86.0315 13.9537L87.1445 34.7753L65.9971 11.8359Z" fill="#FDD231"/>
<path fill-rule="evenodd" clip-rule="evenodd" d="M101.548 34.7747L86.0372 13.9531L87.1503 34.7747H101.548Z" fill="#FDAD00"/>
<path fill-rule="evenodd" clip-rule="evenodd" d="M30.4521 34.7747L45.9628 13.9531L44.8497 34.7747H30.4521Z" fill="#FDAD00"/>
<path fill-rule="evenodd" clip-rule="evenodd" d="M65.9961 11.8359L44.8486 34.7753H87.1436L65.9961 11.8359Z" fill="#FEEEB7"/>
</svg>
