<svg width="132" height="88" viewBox="0 0 132 88" fill="none" xmlns="http://www.w3.org/2000/svg">
<path fill-rule="evenodd" clip-rule="evenodd" d="M55.9224 17.9467C46.5863 21.1819 38.3594 32.829 38.3594 42.7197L38.4518 46.5097L43.2585 41.3332C47.603 36.8038 48.0652 35.8794 47.2333 33.9382C45.0148 29.1315 50.1913 24.4173 54.9056 26.913C56.5694 27.8374 56.9392 28.7618 56.6619 31.35C56.2921 34.4928 56.5694 34.8626 61.3762 37.6357C73.2081 44.2911 70.1576 56.9551 56.5694 56.9551C49.7291 56.9551 46.4014 50.1146 51.5779 46.6021C53.519 45.4004 53.6114 45.4004 53.2417 47.5265C52.4098 51.6861 57.7711 53.7197 60.0821 50.1146C61.6534 47.5265 59.9896 43.7365 56.1997 41.3332L52.5947 39.2072L48.8047 43.4592C41.5947 51.5936 40.9476 56.7702 46.8636 59.4508C49.7291 60.6525 49.7291 61.8542 46.8636 61.8542C44.9224 61.9466 45.1073 62.2239 48.435 65.2744C65.8131 80.5265 93.914 67.0306 93.6367 43.4592V38.0979L91.7879 43.9214C88.5526 53.997 79.9559 59.6357 73.8551 55.6609C70.4349 53.4424 69.6954 49.1904 70.8047 38.8374C71.8215 29.3164 72.0064 29.0391 77.2753 29.7786C77.3128 29.7851 77.3497 29.7915 77.386 29.7977C77.8986 29.886 78.2793 29.9516 78.5428 30.1633C79.3048 30.7753 79.0861 32.6079 78.2356 39.738L78.1996 40.0391C76.9056 51.039 77.8299 53.5349 82.5442 51.4088C86.9811 49.3752 90.956 35.6021 87.0736 35.6021C82.6367 35.6021 82.2669 29.5937 86.7038 28.1147L89.1072 27.2828L84.5778 23.308C76.8132 16.4677 65.8131 14.434 55.9224 17.9467ZM50.6537 29.5936C49.6368 31.2575 51.8554 33.3836 52.8721 31.8122C53.8889 30.3332 53.4267 28.8541 52.0402 28.8541C51.4856 28.8541 50.931 29.2239 50.6537 29.5936ZM87.443 32.7367C86.5187 32.7367 86.149 32.2745 86.4263 31.7199C86.7961 31.2577 87.2582 30.7955 87.443 30.7955C87.6279 30.7955 88.0901 31.2577 88.3674 31.7199C88.7372 32.2745 88.275 32.7367 87.443 32.7367Z" fill="black"/>
</svg>
