<svg width="132" height="88" viewBox="0 0 132 88" fill="none" xmlns="http://www.w3.org/2000/svg">
<path d="M66.0004 80.7937C86.3219 80.7937 102.796 64.3199 102.796 43.9984C102.796 23.6769 86.3219 7.20312 66.0004 7.20312C45.6789 7.20312 29.2051 23.6769 29.2051 43.9984C29.2051 64.3199 45.6789 80.7937 66.0004 80.7937Z" fill="#3B59F4"/>
<path d="M52.8658 65.3711L77.3632 57.9071C78.6216 57.5236 79.3103 56.1723 78.881 54.9288L70.6222 31.0032C70.0314 29.2917 67.6151 29.2579 66.9544 30.9437C62.2992 42.8243 58.1894 51.3084 50.6765 62.3468C49.6349 63.8772 51.095 65.9106 52.8658 65.3711Z" fill="#00FFB6"/>
<path d="M81.3962 24.2433L55.8476 26.0054C54.5352 26.0958 53.5601 27.2576 53.6987 28.5658L56.3637 53.7361C56.5544 55.5367 58.9012 56.113 59.9242 54.619C67.1326 44.0902 73.0456 36.748 82.8491 27.6826C84.2082 26.4258 83.243 24.116 81.3962 24.2433Z" fill="white"/>
</svg>
