<svg width="132" height="88" viewBox="0 0 132 88" fill="none" xmlns="http://www.w3.org/2000/svg">
<path fill-rule="evenodd" clip-rule="evenodd" d="M28.875 44.0001C28.875 64.4681 45.4822 81.1027 65.9501 81.0751C86.4423 81.0474 103.048 64.4421 103.075 43.95C103.103 23.4821 86.468 6.875 66.0001 6.875C45.4965 6.875 28.875 23.4965 28.875 44.0001ZM28.9718 44.0985C28.9718 64.517 28.9949 72.8701 29.0231 62.6608C29.0513 52.4516 29.0513 35.7456 29.0231 25.5363C28.9949 15.3271 28.9718 23.68 28.9718 44.0985ZM63.0207 11.0476C57.4362 11.5115 51.3979 13.7554 46.6559 17.1293C44.269 18.8273 40.7908 22.3099 39.1435 24.6512C35.0065 30.5305 33.0049 36.795 33.0037 43.867C33.0029 48.3739 33.6366 52.0206 35.0653 55.7297C36.6557 59.8589 38.2478 62.4368 41.8062 66.646C42.6906 67.6921 45.7767 70.2712 47.5867 71.4766C53.1712 75.1962 59.0128 76.9754 65.683 76.988C69.1831 76.9946 71.1693 76.7582 74.2046 75.9735C91.1679 71.5881 101.689 54.6531 98.1894 37.3666C95.269 22.9401 83.2835 12.3253 68.4679 11.044C65.8717 10.8195 65.7663 10.8195 63.0207 11.0476ZM57.8779 23.6557C53.4668 28.0932 49.5928 32.1246 49.269 32.6147C48.079 34.4156 47.75 35.6369 47.7489 38.2576C47.7479 40.2302 47.8198 40.8125 48.1718 41.6887C49.5178 45.037 52.3282 47.5379 55.5535 48.2574C57.1364 48.6107 60.0892 48.4259 61.4784 47.887C63.2442 47.2019 64.102 46.517 67.9274 42.7398C71.0328 39.6735 71.6738 39.1321 72.5403 38.8435C75.1582 37.9717 77.8499 39.7135 78.1781 42.4916C78.4163 44.508 78.5707 44.3209 67.7149 55.1743L61.6115 61.2764C59.5091 63.3784 59.5091 66.7869 61.6115 68.889L63.3012 70.5784C64.4701 71.7472 66.3656 71.7458 67.5329 70.5753L67.9664 70.1406C68.8962 69.2083 68.8985 67.7001 67.9714 66.765C67.0447 65.8301 67.0478 64.3221 67.9784 63.391L74.1566 57.2099C78.4801 52.8844 82.2812 48.935 82.6034 48.4333C83.9121 46.3963 84.4628 43.3794 83.98 40.8906C83.3896 37.8459 81.345 35.1692 78.5628 33.7983C76.13 32.5996 74.0279 32.3331 71.5761 32.9128C69.0933 33.4997 68.175 34.1464 64.1235 38.1612C60.107 42.1415 59.5627 42.5177 57.8297 42.5102C55.9862 42.5022 54.7287 41.6439 53.9394 39.8548C53.4234 38.6853 53.5024 37.1276 54.1284 36.1255C54.3481 35.7735 57.0882 32.9233 60.2172 29.7918L64.1263 25.8794C65.1091 24.8956 66.7035 24.8952 67.6869 25.8784C68.6696 26.861 70.2634 26.8586 71.2433 25.8732L71.5836 25.5309C72.7535 24.3542 72.7515 22.453 71.5792 21.2787L69.7988 19.4952C67.6469 17.3396 64.1529 17.3434 62.0055 19.5035L57.8779 23.6557Z" fill="black" fill-opacity="0.942"/>
<path fill-rule="evenodd" clip-rule="evenodd" d="M63.0207 11.0476C57.4362 11.5115 51.3979 13.7554 46.6559 17.1293C44.269 18.8273 40.7908 22.3099 39.1435 24.6512C35.0065 30.5305 33.0049 36.795 33.0037 43.867C33.0029 48.3739 33.6366 52.0206 35.0653 55.7297C36.6557 59.8589 38.2478 62.4368 41.8062 66.646C42.6906 67.6921 45.7767 70.2712 47.5867 71.4766C53.1712 75.1962 59.0128 76.9754 65.683 76.988C69.1831 76.9946 71.1693 76.7582 74.2046 75.9735C91.1679 71.5881 101.689 54.6531 98.1894 37.3666C95.269 22.9401 83.2835 12.3253 68.4679 11.044C65.8717 10.8195 65.7663 10.8195 63.0207 11.0476ZM49.269 32.6147C49.5928 32.1246 53.4668 28.0932 57.8779 23.6557L62.0055 19.5035C64.1529 17.3434 67.6469 17.3396 69.7988 19.4952L71.5792 21.2787C72.7515 22.453 72.7535 24.3542 71.5836 25.5309L71.2433 25.8732C70.2634 26.8586 68.6696 26.861 67.6869 25.8784C66.7035 24.8952 65.1091 24.8956 64.1263 25.8794L60.2172 29.7918C57.0882 32.9233 54.3481 35.7735 54.1284 36.1255C53.5024 37.1276 53.4234 38.6853 53.9394 39.8548C54.7287 41.6439 55.9862 42.5022 57.8297 42.5102C59.5627 42.5177 60.107 42.1415 64.1235 38.1612C68.175 34.1464 69.0933 33.4997 71.5761 32.9128C74.0279 32.3331 76.13 32.5996 78.5628 33.7983C81.345 35.1692 83.3896 37.8459 83.98 40.8906C84.4628 43.3794 83.9121 46.3963 82.6034 48.4333C82.2812 48.935 78.4801 52.8844 74.1566 57.2099L67.9784 63.391C67.0478 64.3221 67.0447 65.8301 67.9714 66.765C68.8985 67.7001 68.8962 69.2083 67.9664 70.1406L67.5329 70.5753C66.3656 71.7458 64.4701 71.7472 63.3012 70.5784L61.6115 68.889C59.5091 66.7869 59.5091 63.3784 61.6115 61.2764L67.7149 55.1743C78.5707 44.3209 78.4163 44.508 78.1781 42.4916C77.8499 39.7135 75.1582 37.9717 72.5403 38.8435C71.6738 39.1321 71.0328 39.6735 67.9274 42.7398C64.102 46.517 63.2442 47.2019 61.4784 47.887C60.0892 48.4259 57.1364 48.6107 55.5535 48.2574C52.3282 47.5379 49.5178 45.037 48.1718 41.6887C47.8198 40.8125 47.7479 40.2302 47.7489 38.2576C47.75 35.6369 48.079 34.4156 49.269 32.6147Z" fill="#FECD1B"/>
</svg>
