<svg width="132" height="88" viewBox="0 0 132 88" fill="none" xmlns="http://www.w3.org/2000/svg">
<path fill-rule="evenodd" clip-rule="evenodd" d="M46.793 59.0948L46.4468 62.1011C46.4657 64.8346 47.3504 66.3045 48.743 67.0747C49.1827 67.3129 49.7701 67.4669 50.5635 67.4669C51.3759 67.4669 52.0526 67.3321 52.62 67.0937C53.2354 66.8083 53.6982 66.4645 54.0447 66.0773L54.0577 66.0622C54.878 65.1693 55.2578 64.193 55.2578 63.068C55.2578 61.748 54.9946 60.5968 54.4966 59.5851C53.9312 58.4364 53.2192 57.2748 52.3538 56.1L49.3024 52.3037C46.7509 49.2036 44.9615 46.2911 44.0317 43.573L44.0298 43.5683C43.1421 40.9456 42.6773 38.4797 42.6773 36.1843C42.6773 33.9763 42.9353 31.8731 43.4605 29.881L43.4634 29.8667C44.0067 27.8804 44.7558 25.9988 45.7106 24.2248C46.6665 22.4224 47.8152 20.7687 49.1577 19.2668C50.5003 17.7641 51.9974 16.4651 53.6482 15.374C57.0519 13.053 60.5331 11.8242 64.0677 11.8242C67.3369 11.8242 70.0781 12.2779 72.1587 13.3193C74.1046 14.2931 75.7183 15.5501 76.9583 17.1087L76.9654 17.1175C79.2086 19.9808 80.302 23.4221 80.302 27.3532C80.302 31.0258 79.2738 34.4815 77.2506 37.6915L77.2476 37.6951C75.4392 40.546 73.2953 42.5645 70.751 43.4674C69.9989 43.8199 69.1172 43.9371 68.2226 43.9371C67.2788 43.9371 66.3832 43.799 65.5788 43.4649L65.5375 43.4478L65.4974 43.4283C64.7997 43.0912 64.1771 42.6476 63.6367 42.099C62.5103 40.9547 61.8366 39.5841 61.8366 38.0207C61.8366 37.0164 62.1509 35.8171 63.3144 35.1874C65.0277 34.2477 66.5449 32.8705 67.858 31.0126C69.288 28.9894 69.9678 27.0801 70.0319 25.2657C70.0992 23.303 69.6243 22.2096 68.9616 21.5978L68.9475 21.5851L68.9346 21.572C68.1833 20.845 67.1323 20.4139 65.606 20.4139C64.0143 20.4139 62.6228 20.7812 61.3927 21.492L61.3746 21.5025C60.0884 22.2233 58.9697 23.2067 58.0179 24.4728C55.9334 27.2481 54.8719 30.5413 54.8719 34.4259C54.8719 36.8456 55.6956 39.5057 57.4866 42.4314L57.4949 42.4449C58.2649 43.7327 59.0984 45.0093 59.9949 46.2748C60.9701 47.5866 61.8787 48.9385 62.7221 50.3308L62.7292 50.3426C64.6831 53.6322 65.7595 56.7416 65.7595 59.6294C65.7595 62.3098 65.2796 64.6836 64.2384 66.6826C63.2743 68.5809 61.9821 70.237 60.3717 71.6436C56.9424 74.6438 52.9874 76.1742 48.5632 76.1742C44.4324 76.1742 41.0365 74.9133 38.6167 72.2106L38.6126 72.2057C36.7541 70.1113 35.752 67.7433 35.752 65.1393C35.752 62.4811 36.501 60.1368 38.0664 58.2049L38.0704 58.1997C39.1529 56.8742 40.3778 55.8429 41.7766 55.4838C42.9202 55.1763 44.2407 55.0704 45.3201 55.778C46.4767 56.537 46.793 57.8391 46.793 59.004V59.0948ZM42.1762 57.0114C41.2534 57.2457 40.2915 57.9753 39.2914 59.1996C37.9831 60.8146 37.3294 62.7944 37.3294 65.1393C37.3294 67.3011 38.1497 69.3069 39.7915 71.1568C41.8428 73.4484 44.7668 74.5946 48.5632 74.5946C52.5897 74.5946 56.1804 73.2141 59.3352 70.4531C60.7974 69.176 61.9639 67.6789 62.8357 65.9596C63.7333 64.2403 64.1821 62.1302 64.1821 59.6294C64.1821 57.1285 63.2462 54.3021 61.3738 51.15C60.5532 49.7954 59.6688 48.4798 58.7197 47.2032C57.796 45.9008 56.9366 44.5852 56.1422 43.2567C54.2436 40.1569 53.2945 37.2133 53.2945 34.4259C53.2945 30.2316 54.4493 26.5978 56.7579 23.5238C57.8342 22.0911 59.1174 20.9579 60.6046 20.1243C62.0926 19.2646 63.7594 18.8348 65.606 18.8348C67.4524 18.8348 68.9275 19.3688 70.0299 20.4369C71.1585 21.4789 71.6849 23.1069 71.6073 25.3212C71.5312 27.5094 70.7097 29.7108 69.1453 31.9251C67.7095 33.9568 66.0166 35.5069 64.0677 36.575C63.631 36.8093 63.4129 37.2914 63.4129 38.0207C63.4129 39.0888 63.8617 40.0788 64.7596 40.9904C65.1701 41.4073 65.644 41.7459 66.1832 42.0063C66.7475 42.2409 67.4273 42.358 68.2226 42.358C69.043 42.358 69.6845 42.2409 70.1454 42.0063C72.2742 41.277 74.1981 39.5577 75.9171 36.8484C77.7888 33.8787 78.7254 30.7137 78.7254 27.3532C78.7254 23.7323 77.7244 20.6453 75.7244 18.0924C74.6469 16.7378 73.223 15.6177 71.4539 14.7319C69.6845 13.8462 67.2216 13.4034 64.0677 13.4034C60.9129 13.4034 57.7317 14.4975 54.5257 16.6857C52.9874 17.7016 51.5895 18.913 50.3325 20.3196C49.0755 21.7264 47.9989 23.2763 47.1013 24.9695C46.2037 26.6368 45.4977 28.4081 44.9846 30.2839C44.4976 32.1332 44.2536 34.1 44.2536 36.1843C44.2536 38.2682 44.6774 40.5606 45.5239 43.0615C46.3703 45.5362 48.0371 48.2845 50.5253 51.3062L53.6028 55.1356C54.5257 56.386 55.2957 57.6365 55.9114 58.8869C56.5269 60.1373 56.8341 61.531 56.8341 63.068C56.8341 64.6052 56.2959 65.9596 55.2184 67.1319C54.7053 67.705 54.0516 68.1736 53.2566 68.5386C52.4613 68.8776 51.5637 69.0465 50.5635 69.0465C49.5633 69.0465 48.704 68.8515 47.9859 68.4602C45.9086 67.314 44.8691 65.1654 44.8691 62.0128L45.2156 59.004C45.2156 57.1285 44.2025 56.4641 42.1762 57.0114Z" fill="#0EF275"/>
<path d="M62.6885 58.8685L62.3418 61.85C62.3418 64.974 63.3824 67.1033 65.463 68.2391C66.1819 68.6266 67.0426 68.8199 68.0442 68.8199C69.0457 68.8199 69.9447 68.6527 70.7411 68.3169C71.5375 67.955 72.192 67.4908 72.706 66.9229C73.7848 65.7611 74.3238 64.4191 74.3238 62.8956C74.3238 61.3726 74.0161 59.9916 73.3998 58.7524C72.7832 57.5133 72.0121 56.2741 71.0879 55.0352L68.0059 51.2402C65.5142 48.2458 63.8449 45.5224 62.9974 43.07C62.1495 40.592 61.7252 38.3202 61.7252 36.2552C61.7252 34.19 61.9697 32.241 62.4573 30.4082C62.9712 28.5494 63.678 26.7941 64.577 25.1419C65.4759 23.4641 66.5539 21.9281 67.8129 20.5341C69.0718 19.1402 70.4716 17.9398 72.0121 16.933C75.2228 14.7646 78.4084 13.6805 81.5678 13.6805C84.7265 13.6805 87.193 14.1193 88.9648 14.997C90.7377 15.8747 92.1625 16.9846 93.2416 18.327C95.2447 20.8568 96.2471 23.9157 96.2471 27.5039C96.2471 30.8341 95.309 33.9705 93.4346 36.9133C91.7131 39.5981 89.7865 41.3017 87.6547 42.0247C87.193 42.2571 86.5506 42.3731 85.7289 42.3731C84.9325 42.3731 84.2518 42.2571 83.6867 42.0247C83.1466 41.7665 82.672 41.431 82.2608 41.0179C81.3619 40.1143 80.9122 39.1334 80.9122 38.0749C80.9122 37.3522 81.1306 36.8748 81.5678 36.6424C83.5198 35.5839 85.2152 34.0481 86.6531 32.0345C88.2198 29.8403 89.0423 27.659 89.1188 25.4906C89.1961 23.2961 88.6692 21.6829 87.5389 20.6503C86.4348 19.5919 84.9578 19.0628 83.1084 19.0628C81.2593 19.0628 79.59 19.4887 78.0998 20.3405C76.6104 21.1666 75.3253 22.2896 74.2473 23.7094C71.9357 26.7553 70.7793 30.3565 70.7793 34.5125C70.7793 37.2749 71.7294 40.1918 73.6311 43.2636C74.4264 44.5803 75.2871 45.8838 76.2122 47.1746C77.1626 48.4396 78.0484 49.7431 78.8701 51.0854C80.7453 54.2091 81.6825 57.01 81.6825 59.488C81.6825 61.9663 81.2332 64.0574 80.3342 65.7611C79.4613 67.465 78.2929 68.9494 76.8288 70.2139C73.6693 72.9498 70.0734 74.318 66.0411 74.318C62.2392 74.318 59.311 73.1822 57.2565 70.9113C55.6125 69.0781 54.7908 67.0904 54.7908 64.9482C54.7908 62.6244 55.4456 60.6626 56.7557 59.0621C57.7572 57.8488 58.7206 57.1261 59.6448 56.8937C61.6741 56.3517 62.6885 57.01 62.6885 58.8685Z" fill="#0EF275"/>
</svg>
