<svg width="132" height="88" viewBox="0 0 132 88" fill="none" xmlns="http://www.w3.org/2000/svg">
<path fill-rule="evenodd" clip-rule="evenodd" d="M55.9461 70.937C77.7378 70.937 106.785 55.7622 106.785 41.7234C106.785 30.3414 82.2906 17.0625 60.4989 17.0625C38.7072 17.0625 25.2148 29.5815 25.2148 43.6204C25.2148 57.6592 34.1544 70.937 55.9461 70.937ZM55.9752 48.4299L52.5315 51.022C53.4943 52.7007 54.7903 54.0213 56.4196 54.9841C58.0735 55.9469 59.925 56.4282 61.974 56.4282C64.4673 56.4282 66.5162 55.7617 68.1208 54.4287C69.7255 53.0709 70.5277 51.2935 70.5277 49.0965C70.5277 47.4672 70.0463 46.1094 69.0836 45.0232C68.1208 43.9124 66.5903 42.8879 64.492 41.9498L61.7148 40.7278C60.6286 40.2341 59.8757 39.8021 59.456 39.4318C59.061 39.0369 58.8635 38.5307 58.8635 37.9136C58.8635 37.173 59.1474 36.5929 59.7152 36.1732C60.283 35.7535 61.0112 35.5437 61.8999 35.5437C63.7514 35.5437 65.3066 36.4818 66.5656 38.358L69.9723 35.7289C69.1823 34.2971 68.0962 33.1739 66.7137 32.3592C65.3313 31.5199 63.7267 31.1002 61.8999 31.1002C59.5547 31.1002 57.6169 31.7421 56.0863 33.0258C54.5557 34.2847 53.7905 35.9511 53.7905 38.0247C53.7905 40.9624 55.7654 43.3075 59.7152 45.0603L62.3443 46.2452C63.5786 46.813 64.4055 47.2944 64.8252 47.6893C65.2449 48.0596 65.4547 48.5904 65.4547 49.2816C65.4547 50.1209 65.1461 50.7874 64.529 51.2812C63.9119 51.7502 63.0602 51.9847 61.974 51.9847C59.7028 51.9847 57.7032 50.7998 55.9752 48.4299Z" fill="#3ABEFF"/>
</svg>
