<svg width="132" height="88" viewBox="0 0 132 88" fill="none" xmlns="http://www.w3.org/2000/svg">
<rect x="31.0752" y="9.07422" width="69.85" height="69.85" rx="13.5884" fill="#E100FF"/>
<path fill-rule="evenodd" clip-rule="evenodd" d="M82.2311 16.0959C82.1273 16.1433 81.9257 16.1851 81.7829 16.1887C81.6401 16.1923 81.5234 16.2378 81.5234 16.2897C81.5234 16.3416 81.4385 16.3841 81.3347 16.3841C81.2309 16.3841 81.1459 16.4265 81.1459 16.4784C81.1459 16.5303 81.089 16.5728 81.0194 16.5728C80.8485 16.5728 80.0136 17.3702 80.0136 17.5334C80.0136 17.605 79.9286 17.7247 79.8248 17.7995C79.7141 17.8795 79.6361 18.0438 79.6361 18.1978C79.6361 18.342 79.5936 18.4601 79.5417 18.4601C79.4848 18.4601 79.4474 18.8533 79.4474 19.4509C79.4474 20.0485 79.4848 20.4417 79.5417 20.4417C79.5936 20.4417 79.6361 20.5691 79.6361 20.7248C79.6361 20.8805 79.6786 21.0079 79.7305 21.0079C79.7824 21.0079 79.8248 21.0716 79.8248 21.1495C79.8248 21.2273 79.8673 21.291 79.9192 21.291C79.9711 21.291 80.0136 21.3346 80.0136 21.3878C80.0136 21.5403 80.8418 22.329 81.0019 22.329C81.0811 22.329 81.1459 22.3715 81.1459 22.4234C81.1459 22.4753 81.2309 22.5177 81.3347 22.5177C81.4385 22.5177 81.5234 22.5602 81.5234 22.6121C81.5234 22.664 81.6847 22.7065 81.882 22.7065C82.0792 22.7065 82.2878 22.7537 82.3456 22.8115C82.4452 22.9111 82.6876 22.8988 83.505 22.7523C83.8954 22.6824 84.6374 22.3334 84.6374 22.2198C84.6374 22.176 84.7011 22.1403 84.7789 22.1403C84.8568 22.1403 84.9205 22.0978 84.9205 22.0459C84.9205 21.994 84.966 21.9515 85.0216 21.9515C85.1531 21.9515 85.3124 21.7791 85.479 21.4561C85.5526 21.3135 85.6482 21.1966 85.6914 21.1966C85.7345 21.1966 85.7698 21.1117 85.7698 21.0079C85.7698 20.9041 85.8035 20.8192 85.8446 20.8192C85.9672 20.8192 86.1472 20.0052 86.1472 19.4509C86.1472 18.8966 85.9672 18.0826 85.8446 18.0826C85.8035 18.0826 85.7698 17.9977 85.7698 17.8939C85.7698 17.7901 85.7301 17.7052 85.6817 17.7052C85.6333 17.7052 85.5675 17.6224 85.5354 17.5213C85.4613 17.2878 84.9737 16.7615 84.8315 16.7615C84.7723 16.7615 84.6327 16.6766 84.5213 16.5728C84.4099 16.469 84.2631 16.3841 84.1949 16.3841C84.1269 16.3841 84.0712 16.346 84.0712 16.2996C84.0712 16.1478 82.4987 15.9737 82.2311 16.0959ZM75.3897 22.61C75.3119 22.6547 75.0571 22.7769 74.8235 22.8814C74.59 22.9861 74.2901 23.17 74.1571 23.2901C73.8508 23.5668 73.3137 24.3508 73.3137 24.5211C73.3137 24.5922 73.2607 24.7035 73.1958 24.7683C73.0433 24.9208 73.0304 26.8345 73.1812 26.9326C73.2381 26.9697 73.3107 27.1062 73.3425 27.2359C73.4595 27.7138 74.4071 28.72 74.8772 28.8656C74.9775 28.8966 75.2293 28.9867 75.4369 29.0656C76.2365 29.3699 77.5838 29.1695 78.3423 28.6337C78.7462 28.3483 79.0699 28.0222 79.0699 27.9007C79.0699 27.8465 79.1124 27.8021 79.1643 27.8021C79.2162 27.8021 79.2587 27.7384 79.2587 27.6606C79.2587 27.5827 79.3011 27.519 79.353 27.519C79.4049 27.519 79.4474 27.4341 79.4474 27.3303C79.4474 27.2265 79.4898 27.1416 79.5417 27.1416C79.5936 27.1416 79.6361 26.9929 79.6361 26.8113C79.6361 26.6296 79.6786 26.481 79.7305 26.481C79.7837 26.481 79.8248 26.2137 79.8248 25.8677C79.8248 25.5216 79.7837 25.2543 79.7305 25.2543C79.6786 25.2543 79.6361 25.1354 79.6361 24.99C79.6361 24.7033 79.4437 24.2182 79.3294 24.217C79.2905 24.2167 79.2587 24.1515 79.2587 24.0723C79.2587 23.7314 77.9818 22.7065 77.5573 22.7065C77.455 22.7065 77.3714 22.664 77.3714 22.6121C77.3714 22.4958 75.5921 22.494 75.3897 22.61ZM88.1289 22.6313C87.9991 22.6867 87.7458 22.7963 87.5662 22.8748C86.8529 23.1862 86.2085 24.0243 85.8765 25.0723C85.4294 26.4839 86.2588 28.1838 87.7505 28.9134C88.2031 29.1348 88.3865 29.1679 89.1669 29.1691C89.9577 29.1702 90.1246 29.1398 90.5831 28.9106C91.1634 28.6206 91.8521 28.018 91.9478 27.7165C91.9823 27.6079 92.0448 27.519 92.0867 27.519C92.1286 27.519 92.2591 27.2198 92.3767 26.8541C92.7547 25.6785 92.494 24.5234 91.6285 23.5403C91.2948 23.161 90.9146 22.9211 90.1768 22.624C89.8468 22.4911 88.4453 22.4961 88.1289 22.6313ZM81.7593 28.9677C81.0507 29.2064 80.0136 29.9698 80.0136 30.2525C80.0136 30.3061 79.9711 30.3499 79.9192 30.3499C79.8673 30.3499 79.8248 30.4136 79.8248 30.4915C79.8248 30.5693 79.7824 30.633 79.7305 30.633C79.6786 30.633 79.6361 30.7604 79.6361 30.9161C79.6361 31.0718 79.5936 31.1992 79.5417 31.1992C79.4848 31.1992 79.4474 31.5905 79.4474 32.1845C79.4474 32.7395 79.4886 33.1952 79.5417 33.228C79.5936 33.2601 79.6361 33.3687 79.6361 33.4695C79.6361 33.5703 79.6786 33.6527 79.7305 33.6527C79.7824 33.6527 79.8248 33.7376 79.8248 33.8414C79.8248 33.9452 79.8673 34.0301 79.9192 34.0301C79.9711 34.0301 80.0136 34.0768 80.0136 34.1338C80.0136 34.2778 80.8643 35.0681 81.0194 35.0681C81.089 35.0681 81.1459 35.1106 81.1459 35.1625C81.1459 35.2144 81.2238 35.2569 81.3189 35.2569C81.4141 35.2569 81.5223 35.2873 81.5594 35.3243C81.7868 35.5517 83.2483 35.7263 83.3635 35.54C83.3956 35.4881 83.5087 35.4456 83.6149 35.4456C84.1012 35.4456 85.581 34.3897 85.581 34.0426C85.581 33.9838 85.6131 33.9358 85.6524 33.9358C85.6916 33.9358 85.7696 33.819 85.8257 33.6763C86.0688 33.0581 86.1472 32.713 86.1472 32.2613C86.1472 31.707 85.9632 30.8218 85.8479 30.8218C85.805 30.8218 85.7698 30.7585 85.7698 30.6813C85.7698 30.3685 84.8886 29.4856 84.2607 29.1693C83.8441 28.9593 83.5852 28.9016 82.9396 28.8744C82.4292 28.8529 81.9993 28.8868 81.7593 28.9677Z" fill="black"/>
<path fill-rule="evenodd" clip-rule="evenodd" d="M39.7841 66.7723C39.6026 66.9538 39.4541 67.5035 39.4541 67.9941C39.4541 69.2808 40.2566 69.7423 42.4945 69.7423C44.4533 69.7423 44.8471 69.896 44.3681 70.4732C43.9402 70.9888 41.5416 70.9569 41.1041 70.4298C40.5989 69.8212 39.4541 69.8932 39.4541 70.5337C39.4541 71.513 40.2266 71.8048 42.8207 71.8048C45.071 71.8048 45.3218 71.75 45.8033 71.1555C46.424 70.3891 46.4691 69.7637 45.9546 69.06C45.6534 68.6483 45.1106 68.5229 43.1933 68.4223C41.5986 68.3387 40.8404 68.1948 40.9083 67.9883C41.0411 67.5854 44.1225 67.4257 44.4992 67.8024C44.8449 68.1481 45.9625 68.188 46.1638 67.8621C46.2422 67.7356 46.1187 67.3643 45.8896 67.0371C45.511 66.4964 45.2285 66.4423 42.7934 66.4423C41.0763 66.4423 39.9956 66.5608 39.7841 66.7723ZM47.719 66.8369C47.5388 67.0539 47.431 67.6388 47.4791 68.1368C47.5927 69.3135 48.4216 69.7329 50.6441 69.7381C52.3274 69.7423 53.0869 70.1242 52.3455 70.5937C51.7078 70.9979 49.4567 70.8849 49.0791 70.4298C48.5739 69.8212 47.4291 69.8932 47.4291 70.5337C47.4291 71.2971 48.0316 71.6667 49.5735 71.8496C51.3159 72.0558 53.3485 71.7588 53.8883 71.2187C54.4078 70.6993 54.4229 69.7348 53.9224 69.0504C53.6188 68.6351 53.071 68.4979 51.2412 68.3791C49.9203 68.2933 48.9696 68.1126 49.007 67.9548C49.0975 67.5764 52.1157 67.4438 52.4742 67.8024C52.6337 67.9619 53.1106 68.0923 53.5341 68.0923C54.4045 68.0923 54.5533 67.5557 53.8721 66.8743C53.2751 66.2775 48.209 66.2465 47.719 66.8369ZM55.4041 69.1923V71.9423H56.1914C56.9625 71.9423 56.9818 71.9054 57.1226 70.152C57.2859 68.1167 57.63 67.5423 58.6851 67.5423C59.9699 67.5423 60.3269 68.0535 60.4132 70.0173C60.4916 71.8026 60.4927 71.8048 61.3166 71.8048C62.1397 71.8048 62.1419 71.8004 62.2249 70.0277C62.3226 67.9479 62.5783 67.5423 63.7916 67.5423C65.0049 67.5423 65.2607 67.9479 65.3583 70.0277C65.4413 71.8004 65.4435 71.8048 66.2666 71.8048H67.0916L67.1714 69.8622C67.2385 68.2265 67.1593 67.8027 66.67 67.1809C66.1508 66.5206 65.9075 66.4423 64.3765 66.4423C63.4347 66.4423 62.5288 66.5776 62.3635 66.7428C62.1463 66.9601 61.9079 66.9601 61.5017 66.7428C60.7358 66.3328 58.0735 66.3625 57.6247 66.786C57.3332 67.061 57.2351 67.061 57.1344 66.786C57.0651 66.5971 56.6474 66.4423 56.2063 66.4423H55.4041V69.1923Z" fill="black"/>
</svg>
