<svg width="132" height="88" viewBox="0 0 132 88" fill="none" xmlns="http://www.w3.org/2000/svg">
<path d="M97.9529 64.4951C92.3635 62.8183 88.2646 58.5331 84.5384 53.689C83.9794 53.8753 83.4205 53.8753 82.8615 53.8753C79.6942 53.8753 77.0859 51.2669 77.0859 48.0996C77.0859 46.9818 77.4585 45.8639 78.0174 44.9323C73.7322 39.5292 69.2607 35.2441 62.1809 34.3125C61.8082 37.1072 59.3862 39.1566 56.4052 39.1566C54.1694 39.1566 52.3063 37.8524 51.3747 35.9893C46.5306 38.5977 43.9222 43.4418 41.1275 48.4722C39.0781 52.1985 37.0287 55.9247 34.0477 58.7194C34.0477 58.9058 34.0477 59.2784 34.0477 59.4647C34.0477 62.2594 32.1845 64.4951 29.5762 65.0541V68.9666C29.7625 71.7613 31.8119 73.8108 34.234 73.8108H97.7665C100.189 73.8108 102.238 71.7613 102.238 69.3392C100.002 68.7803 98.3255 66.7309 97.9529 64.4951Z" fill="#BF0418"/>
<path d="M97.7658 14.1914H34.2332C31.8112 14.1914 29.7617 16.2408 29.7617 18.6629V54.0623C30.8796 54.4349 31.8112 54.9938 32.5564 55.7391C34.7922 53.317 36.469 50.1497 38.3321 46.9824C41.3131 41.5793 44.6667 35.6173 50.815 32.8227C51.0013 29.8417 53.6097 27.4196 56.5907 27.4196C59.0128 27.4196 61.0622 28.9101 61.9938 30.9595C70.5641 31.7048 75.9672 36.9215 80.625 42.6972C81.3703 42.3246 82.1155 42.1383 83.0471 42.1383C86.2144 42.1383 88.8228 44.7467 88.8228 47.914C88.8228 49.4045 88.2638 50.7087 87.3323 51.8265C90.4996 55.9254 94.0395 59.4653 98.511 61.1422C99.2563 59.6517 100.747 58.3475 102.424 57.9748V18.6629C102.424 16.2408 100.374 14.1914 97.7658 14.1914Z" fill="#E43417"/>
</svg>
