<svg width="132" height="88" viewBox="0 0 132 88" fill="none" xmlns="http://www.w3.org/2000/svg">
<path fill-rule="evenodd" clip-rule="evenodd" d="M35.5529 54.385L60.6253 42.254C63.5943 40.8164 68.4062 40.8164 71.3731 42.254L96.4476 54.3872C99.4144 55.8227 99.4144 58.1492 96.4476 59.5847L71.3752 71.7179C68.4062 73.1534 63.5943 73.1534 60.6275 71.7179L35.5529 59.5847C32.5839 58.1492 32.5839 55.8227 35.5529 54.385Z" fill="url(#paint0_linear_2056_24972)"/>
<path opacity="0.95" fill-rule="evenodd" clip-rule="evenodd" d="M35.5529 41.4012L60.6253 29.268C63.5943 27.8325 68.4062 27.8325 71.3731 29.268L96.4476 41.4012C99.4144 42.8367 99.4144 45.1632 96.4476 46.6008L71.3752 58.7318C68.4062 60.1674 63.5943 60.1674 60.6275 58.7318L35.5529 46.5987C32.5839 45.1632 32.5839 42.8367 35.5529 41.4012Z" fill="url(#paint1_linear_2056_24972)"/>
<path opacity="0.3" fill-rule="evenodd" clip-rule="evenodd" d="M35.5529 28.4129L60.6253 16.2798C63.5943 14.8442 68.4062 14.8442 71.3731 16.2798L96.4476 28.4129C99.4144 29.8484 99.4144 32.1771 96.4476 33.6126L71.3752 45.7457C68.4062 47.1791 63.5943 47.1791 60.6275 45.7457L35.5529 33.6104C32.5839 32.1727 32.5839 29.8484 35.5529 28.4129Z" fill="url(#paint2_linear_2056_24972)"/>
<defs>
<linearGradient id="paint0_linear_2056_24972" x1="3300.65" y1="3203.05" x2="3300.65" y2="41.1758" gradientUnits="userSpaceOnUse">
<stop stop-color="#626262"/>
<stop offset="1"/>
</linearGradient>
<linearGradient id="paint1_linear_2056_24972" x1="3300.65" y1="3189.9" x2="3300.65" y2="28.1914" gradientUnits="userSpaceOnUse">
<stop stop-color="#00BAFF"/>
<stop offset="1" stop-color="#009AD3"/>
</linearGradient>
<linearGradient id="paint2_linear_2056_24972" x1="3300.65" y1="3176.96" x2="3300.65" y2="15.2031" gradientUnits="userSpaceOnUse">
<stop stop-color="white"/>
<stop offset="1" stop-color="#DCDCDC"/>
</linearGradient>
</defs>
</svg>
