<svg width="132" height="88" viewBox="0 0 132 88" fill="none" xmlns="http://www.w3.org/2000/svg">
<path d="M34.0156 25.3426C34.0156 17.9835 39.9838 12.0156 47.3423 12.0156H84.6587C92.0171 12.0156 97.9852 17.9835 97.9852 25.3426V62.6584C97.9852 70.0171 92.0171 75.9852 84.6587 75.9852H47.3423C39.9838 75.9852 34.0156 70.0171 34.0156 62.6584V25.3426Z" fill="#1D1D1D"/>
<path d="M79.7783 28.0087C79.6982 28.0114 79.6182 28.0194 79.5412 28.0301H69.0632C68.7783 28.0274 68.4956 28.0783 68.2316 28.1847C67.9678 28.2914 67.7247 28.4487 67.5229 28.6511C67.3199 28.851 67.1602 29.0883 67.0482 29.3521C66.9393 29.6161 66.8832 29.896 66.8832 30.1812C66.8832 30.4664 66.9393 30.7488 67.0482 31.0128C67.1602 31.2765 67.3199 31.5138 67.5229 31.7138C67.7247 31.9137 67.9678 32.0735 68.2316 32.1774C68.4956 32.2841 68.7783 32.3375 69.0632 32.3347H74.6286L65.6567 41.3066C65.302 41.2131 64.9371 41.1465 64.5534 41.1465H54.3102C51.9323 41.1465 50.0081 43.071 50.0081 45.4486V55.6916C50.0081 58.0692 51.9323 59.9964 54.3102 59.9964H64.5534C66.9314 59.9964 68.8583 58.0692 68.8583 55.6916V45.4486C68.8583 45.0647 68.7915 44.7023 68.6985 44.3478L77.6701 35.3759V40.9386C77.6671 41.2238 77.7182 41.509 77.8241 41.773C77.9311 42.0367 78.0878 42.2768 78.2878 42.4819C78.4907 42.6846 78.7278 42.8444 78.9915 42.9536C79.2533 43.0658 79.5352 43.1216 79.8212 43.1216C80.1061 43.1216 80.3888 43.0658 80.6528 42.9536C80.9137 42.8444 81.1535 42.6846 81.3535 42.4819C81.5534 42.2768 81.7101 42.0367 81.8171 41.773C81.9241 41.509 81.9772 41.2238 81.9722 40.9386V30.4556C82.017 30.1465 81.9901 29.8292 81.9002 29.5308C81.8061 29.2322 81.6524 28.9577 81.4445 28.7231C81.2336 28.4913 80.9775 28.3073 80.6896 28.1822C80.402 28.0596 80.0929 28.0007 79.7783 28.0087Z" fill="white"/>
</svg>
