<svg width="132" height="88" viewBox="0 0 132 88" fill="none" xmlns="http://www.w3.org/2000/svg">
<path d="M72.3012 54.4888C68.923 51.9734 65.1976 49.9617 61.2414 48.5165C58.264 47.3133 55.4248 45.793 52.7728 43.982C46.4529 39.5791 43.293 34.1177 43.293 27.5977C43.1661 23.6646 44.4242 19.8119 46.8479 16.7117C47.2694 16.1888 47.7232 15.6928 48.2067 15.2266L34.698 18.3865C33.7594 18.5905 32.8703 18.9778 32.0817 19.5261C31.2931 20.0744 30.6205 20.7729 30.1024 21.5817C29.5843 22.3904 29.2308 23.2935 29.0624 24.2391C28.8939 25.1847 28.9137 26.1542 29.1207 27.0921L40.3069 75.4234C40.7608 77.2907 41.9328 78.9037 43.5685 79.9124C45.2042 80.921 47.1718 81.244 49.0441 80.8111L54.5898 79.5313L54.1158 79.4839C50.3871 78.3422 46.7949 76.7952 43.4036 74.8704L49.1863 61.9462C53.8255 65.7239 59.6353 67.7685 65.618 67.7289C71.9378 67.7289 75.0978 65.4696 75.0978 60.9825C75.1377 59.761 74.9079 58.5458 74.4245 57.4234C73.9411 56.301 73.2161 55.299 72.3012 54.4888Z" fill="#D33A2C"/>
<path d="M102.856 60.9849L91.6702 12.6537C91.2339 10.7683 90.0668 9.13341 88.4254 8.1083C86.784 7.08319 84.8028 6.75181 82.9172 7.187L74.7803 9.06716C75.7178 9.21462 76.6447 9.38842 77.5611 9.58855C81.2136 10.3993 84.7491 11.6681 88.0837 13.3647L83.3438 26.0044C79.8046 22.9709 74.8593 21.4541 68.5395 21.4541C62.8726 21.4541 60.034 23.7082 60.0234 28.2164C60.0855 29.1703 60.3709 30.0964 60.8567 30.9197C61.3424 31.7431 62.015 32.4407 62.82 32.9563C66.5679 35.3332 70.5755 37.2733 74.7645 38.739C78.4003 40.0738 81.8064 41.9661 84.8605 44.3479C86.0284 45.28 87.0883 46.3399 88.0205 47.5078C90.7336 51.0512 92.15 55.4176 92.0336 59.879C92.164 64.1981 90.7964 68.4294 88.1627 71.8551L97.3739 69.7538C98.3116 69.5415 99.1979 69.1456 99.9819 68.5891C100.766 68.0326 101.432 67.3264 101.941 66.5112C102.451 65.696 102.794 64.788 102.951 63.8395C103.108 62.8911 103.076 61.9209 102.856 60.9849Z" fill="#D33A2C"/>
</svg>
