<svg width="132" height="88" viewBox="0 0 132 88" fill="none" xmlns="http://www.w3.org/2000/svg">
<g clip-path="url(#clip0_2056_24041)">
<path fill-rule="evenodd" clip-rule="evenodd" d="M42.9503 18.8611C39.5293 24.796 37.125 32.332 37.125 41.7914C37.125 77.0358 66 88.6708 66 88.6708V-0.671875C66 -0.671875 58.7812 1.74854 51.5624 8.26669V18.8611H42.9503Z" fill="#0B552B"/>
<path fill-rule="evenodd" clip-rule="evenodd" d="M42.9497 18.8604C40.108 23.79 37.9678 29.8242 37.3242 37.1478L65.9989 64.3082V-0.671875C65.9989 -0.671875 58.7807 1.74836 51.5622 8.26593V18.8604H42.9497Z" fill="#0B8142"/>
<path d="M94.875 41.7914C94.875 9.00974 66 -0.671875 66 -0.671875V88.6708C66 88.6708 94.875 77.0358 94.875 41.7914Z" fill="#8BC249"/>
<path fill-rule="evenodd" clip-rule="evenodd" d="M94.6758 37.1478L66.0011 64.3082V-0.671875C66.0011 -0.671875 92.1219 8.0863 94.6758 37.1478Z" fill="#AED580"/>
<path fill-rule="evenodd" clip-rule="evenodd" d="M85.2344 13.3148L66.0008 35.3518V-0.671875C66.0008 -0.671875 76.8383 2.96187 85.2344 13.3148Z" fill="#B2FF59"/>
<path fill-rule="evenodd" clip-rule="evenodd" d="M51.5625 18.8099L66 35.3518V-0.671875C66 -0.671875 58.7812 1.74853 51.5625 8.26662V18.8099Z" fill="#32AC71"/>
</g>
<defs>
<clipPath id="clip0_2056_24041">
<rect width="132" height="88" fill="white"/>
</clipPath>
</defs>
</svg>
