<svg width="132" height="88" viewBox="0 0 132 88" fill="none" xmlns="http://www.w3.org/2000/svg">
<path d="M90.9425 21.8359V63.8826C90.9425 66.6648 88.6687 68.9385 85.8865 68.9385H43.8398V73.4584C43.8398 75.5473 45.5406 77.2481 47.6295 77.2481H95.2035C97.4403 77.2481 99.2427 75.4364 99.2427 73.2088V25.8844C99.2427 23.6476 97.4311 21.8452 95.2035 21.8452H90.9425V21.8359Z" fill="#A66FE1"/>
<path d="M32.7578 14.7931V62.0067C32.7578 64.2989 34.6157 66.166 36.9172 66.166H43.8402H84.1307C86.3675 66.166 88.1699 64.3544 88.1699 62.1268V21.8363V14.7931C88.1699 12.5563 86.3583 10.7539 84.1307 10.7539H36.8063C34.5695 10.7539 32.7578 12.5655 32.7578 14.7931Z" fill="#34B2F5"/>
</svg>
