<svg width="132" height="88" viewBox="0 0 132 88" fill="none" xmlns="http://www.w3.org/2000/svg">
<path d="M91.1886 12.3164H40.8127C37.3353 12.3164 34.5156 15.1534 34.5156 18.653V34.4946C34.5156 37.9942 37.3353 40.8311 40.8127 40.8311H91.1886C94.666 40.8311 97.4859 37.9942 97.4859 34.4946V18.653C97.4859 15.1534 94.666 12.3164 91.1886 12.3164Z" fill="#F9A619"/>
<path d="M91.1889 47.1688H75.4465C71.9692 47.1688 69.1493 50.006 69.1493 53.5056V69.3475C69.1493 72.8466 71.9692 75.6833 75.4465 75.6833H91.1889C94.6674 75.6833 97.4861 72.8466 97.4861 69.3475V53.5056C97.4861 50.006 94.6674 47.1688 91.1889 47.1688Z" fill="#3B85DB"/>
<path d="M48.6808 75.6835C56.5043 75.6835 62.8463 69.3013 62.8463 61.4292C62.8463 53.5568 56.5043 47.1748 48.6808 47.1748C40.8576 47.1748 34.5156 53.5568 34.5156 61.4292C34.5156 69.3013 40.8576 75.6835 48.6808 75.6835Z" fill="#EB3669"/>
</svg>
