<svg width="132" height="88" viewBox="0 0 132 88" fill="none" xmlns="http://www.w3.org/2000/svg">
<path d="M29.6992 43.9992C29.6992 23.9513 45.9513 7.69922 65.9992 7.69922C86.0472 7.69922 102.299 23.9513 102.299 43.9992C102.299 64.0472 86.0472 80.2992 65.9992 80.2992C45.9513 80.2992 29.6992 64.0472 29.6992 43.9992Z" fill="black"/>
<path d="M99.6103 43.9992C99.6103 62.5621 84.5621 77.6103 65.9992 77.6103C47.4363 77.6103 32.3881 62.5621 32.3881 43.9992C32.3881 25.4363 47.4363 10.3881 65.9992 10.3881C84.5621 10.3881 99.6103 25.4363 99.6103 43.9992Z" fill="#D9D9D9"/>
<path fill-rule="evenodd" clip-rule="evenodd" d="M32.4362 40.8062L33.0631 37.877C33.8742 34.0883 34.6071 31.918 36.0068 29.1579C38.5528 24.1384 42.7325 19.485 47.5759 16.2778C50.8114 14.1351 53.2393 13.0878 57.9332 11.8092C60.7729 11.0355 61.8744 10.9131 65.9992 10.9131C70.124 10.9131 71.2255 11.0355 74.0652 11.8092C78.7493 13.0851 81.1863 14.1347 84.3908 16.2566C89.3321 19.5286 93.4378 24.1287 96.1028 29.3784C97.3923 31.9184 98.1396 34.1606 98.9354 37.877L99.5622 40.8062L99.5677 37.3195C99.5912 22.4526 87.5458 10.3881 72.6789 10.3881H65.9992H59.3196C44.4526 10.3881 32.4072 22.4526 32.4307 37.3195L32.4362 40.8062ZM60.1983 16.2717C48.2949 18.9021 39.6566 27.8968 37.6857 39.7138L37.4755 40.9742H46.0373V46.352H37.4424L37.6836 48.1166C37.9757 50.2566 39.3775 54.7628 40.3237 56.6034C43.894 63.5488 49.9321 68.6022 57.6391 71.0955C60.3249 71.9643 60.9436 72.0339 65.9992 72.0339C71.0549 72.0339 71.6735 71.9643 74.3593 71.0955C82.0663 68.6022 88.1044 63.5488 91.6747 56.6034C92.6209 54.7628 94.0227 50.2566 94.3148 48.1166L94.556 46.352H85.9611V40.9742H94.5001L94.28 39.5457C93.9831 37.6178 92.5247 33.0501 91.6778 31.3951C87.728 23.6779 80.2821 18.0474 71.6377 16.2425C68.8488 15.66 62.8978 15.6751 60.1983 16.2717ZM61.7338 23.3711C54.6134 24.7229 50.4733 28.9021 50.4733 34.7387C50.4733 37.4723 51.238 39.5814 52.9056 41.4475C54.6567 43.4073 57.3351 44.6802 62.9282 46.2115C72.5904 48.8567 73.0603 49.0268 74.433 50.3786C75.4639 51.3943 75.7243 51.9025 75.7243 52.8998C75.7243 57.3781 70.6539 60.1231 64.2398 59.1168C60.128 58.4718 57.4698 56.2464 56.614 52.7321C56.3895 51.8111 56.0295 51.0606 55.8135 51.0643C54.8888 51.0801 49.8761 51.9745 49.5294 52.1852C49.019 52.4961 49.8662 55.3151 51.2363 57.8645C53.2464 61.6047 56.6287 63.7955 61.8284 64.7252C68.2967 65.8821 75.2837 64.3615 79.098 60.9671C83.3415 57.1909 84.1608 49.9191 80.7956 45.8979C78.7349 43.4352 76.6671 42.5385 66.6817 39.7773C59.8185 37.8793 59.5595 37.7744 58.3198 36.3836C56.8321 34.7141 56.8966 33.0107 58.5147 31.2468C60.1229 29.493 61.5482 29.0561 65.658 29.0567C68.5015 29.0571 69.303 29.1784 70.4676 29.7861C72.2577 30.7201 73.8854 32.5489 74.1962 33.975C74.33 34.5895 74.4931 35.183 74.5586 35.2939C74.6825 35.5037 81.1792 34.7051 81.4399 34.4479C81.5214 34.3676 81.346 33.4964 81.0498 32.5123C79.1891 26.3265 74.7985 23.5502 66.5111 23.3186C64.3528 23.2581 62.203 23.2817 61.7338 23.3711ZM32.4307 50.6789C32.4072 65.5458 44.4526 77.6103 59.3196 77.6103H65.9992H72.6789C87.5458 77.6103 99.5912 65.5458 99.5677 50.6789L99.5622 47.1923L98.9354 50.1215C98.1396 53.8379 97.3923 56.0801 96.1028 58.62C93.4378 63.8698 89.3321 68.4698 84.3908 71.7418C81.1863 73.8637 78.7493 74.9134 74.0652 76.1892C71.2255 76.963 70.124 77.0853 65.9992 77.0853C61.8744 77.0853 60.7729 76.963 57.9332 76.1892C53.2492 74.9134 50.8121 73.8637 47.6076 71.7418C42.6663 68.4698 38.5606 63.8698 35.8956 58.62C34.6061 56.0801 33.8588 53.8379 33.0631 50.1215L32.4362 47.1923L32.4307 50.6789Z" fill="black" fill-opacity="0.988"/>
</svg>
