<svg width="132" height="88" viewBox="0 0 132 88" fill="none" xmlns="http://www.w3.org/2000/svg">
<path d="M101.037 65.4113L70.6091 75.6462C67.6169 76.6461 64.3807 76.6461 61.3885 75.6462L30.9606 65.4113C30.5164 65.27 30.1285 64.9917 29.8524 64.6162C29.5763 64.2407 29.4263 63.7874 29.4238 63.3213V24.6871C29.4258 24.22 29.5756 23.7655 29.8516 23.3887C30.1276 23.0119 30.5158 22.7321 30.9606 22.5894L61.3885 12.3623C64.3994 11.348 67.6597 11.348 70.6705 12.3623L101.037 22.5894C101.482 22.7321 101.87 23.0119 102.146 23.3887C102.422 23.7655 102.572 24.22 102.574 24.6871V63.3213C102.571 63.7874 102.421 64.2407 102.145 64.6162C101.869 64.9917 101.481 65.27 101.037 65.4113Z" fill="url(#paint0_linear_2056_28031)"/>
<mask id="mask0_2056_28031" style="mask-type:luminance" maskUnits="userSpaceOnUse" x="29" y="11" width="74" height="66">
<path d="M101.039 65.4152L70.611 75.6501C67.6188 76.65 64.3826 76.65 61.3905 75.6501L30.9625 65.4152C30.5184 65.274 30.1304 64.9956 29.8543 64.6201C29.5782 64.2446 29.4282 63.7913 29.4258 63.3252V24.691C29.4278 24.2239 29.5775 23.7694 29.8535 23.3926C30.1296 23.0158 30.5178 22.736 30.9625 22.5933L61.3905 12.3662C64.4013 11.3519 67.6616 11.3519 70.6725 12.3662L101.039 22.5933C101.484 22.736 101.872 23.0158 102.148 23.3926C102.424 23.7694 102.574 24.2239 102.576 24.691V63.3252C102.573 63.7913 102.423 64.2446 102.147 64.6201C101.871 64.9956 101.483 65.274 101.039 65.4152Z" fill="white"/>
</mask>
<g mask="url(#mask0_2056_28031)">
<path d="M64.694 83.538L45.3231 90.0539C43.4115 90.6986 41.3412 90.6986 39.4296 90.0539L20.0587 83.538C19.7842 83.4392 19.5472 83.2574 19.3806 83.0178C19.214 82.7783 19.1261 82.4928 19.129 82.201V57.6128C19.1308 57.325 19.221 57.0446 19.3872 56.8097C19.5535 56.5747 19.7879 56.3964 20.0587 56.2989L39.4219 49.783C41.3382 49.1348 43.4145 49.1348 45.3308 49.783L64.694 56.2989C64.9743 56.3926 65.2179 56.5721 65.3903 56.8121C65.5628 57.0521 65.6552 57.3404 65.6545 57.6359V82.2241C65.6504 82.5157 65.5557 82.7987 65.3837 83.0341C65.2116 83.2695 64.9706 83.4456 64.694 83.538Z" fill="url(#paint1_linear_2056_28031)"/>
<g style="mix-blend-mode:multiply" opacity="0.2">
<path d="M94.2695 52.8499L68.3059 61.5864C65.7432 62.4467 62.9697 62.4467 60.407 61.5864L34.4434 52.8499C34.0686 52.724 33.7429 52.4833 33.5126 52.162C33.2823 51.8406 33.159 51.4549 33.1602 51.0595V18.0806C33.1601 17.6855 33.2839 17.3003 33.514 16.9792C33.7442 16.6581 34.0692 16.4171 34.4434 16.2903L60.3916 7.56145C62.9635 6.69306 65.7494 6.69306 68.3213 7.56145L94.2695 16.2903C94.6437 16.4171 94.9687 16.6581 95.1989 16.9792C95.429 17.3003 95.5528 17.6855 95.5528 18.0806V51.0595C95.554 51.4549 95.4306 51.8406 95.2003 52.162C94.97 52.4833 94.6443 52.724 94.2695 52.8499Z" fill="#CF1418"/>
</g>
<path d="M98.6641 54.3875L82.021 59.989C80.3785 60.5424 78.5999 60.5424 76.9574 59.989L60.3142 54.3875C60.0724 54.3068 59.8621 54.1521 59.7132 53.9452C59.5642 53.7383 59.4842 53.4898 59.4844 53.2349V32.089C59.4858 31.8354 59.5666 31.5887 59.7154 31.3833C59.8643 31.178 60.0737 31.0244 60.3142 30.9442L76.9497 25.3503C78.5962 24.7895 80.3821 24.7895 82.0287 25.3503L98.6641 30.9442C98.9041 31.0254 99.1129 31.1792 99.2615 31.3843C99.4102 31.5895 99.4915 31.8357 99.494 32.089V53.2272C99.4946 53.4832 99.4149 53.7329 99.266 53.941C99.1171 54.1492 98.9066 54.3054 98.6641 54.3875Z" fill="url(#paint2_linear_2056_28031)"/>
<g style="mix-blend-mode:multiply" opacity="0.4">
<path d="M93.662 75.3243L74.2911 81.8402C72.3772 82.4867 70.3039 82.4867 68.3899 81.8402L49.019 75.3243C48.7348 75.2312 48.4877 75.0498 48.3136 74.8066C48.1395 74.5634 48.0474 74.2711 48.0509 73.972V49.3838C48.0502 49.0883 48.1426 48.8 48.315 48.56C48.4874 48.32 48.7311 48.1404 49.0114 48.0468L68.3746 41.5309C70.2939 40.8855 72.3717 40.8855 74.2911 41.5309L93.6543 48.0468C93.9332 48.1418 94.1751 48.3219 94.3461 48.5618C94.5171 48.8017 94.6084 49.0892 94.6071 49.3838V73.972C94.6121 74.2682 94.5235 74.5585 94.3537 74.8013C94.184 75.0442 93.9419 75.2272 93.662 75.3243Z" fill="#CF1418"/>
</g>
<g style="mix-blend-mode:multiply" opacity="0.2">
<path d="M50.2951 38.6268L37.8089 42.7991C36.5776 43.2142 35.2443 43.2142 34.013 42.7991L21.5268 38.6268C21.3466 38.5667 21.19 38.451 21.0796 38.2964C20.9691 38.1418 20.9105 37.9562 20.9121 37.7662V21.8837C20.9105 21.6937 20.9691 21.5081 21.0796 21.3535C21.19 21.1989 21.3466 21.0832 21.5268 21.0231L34.0054 16.8201C35.2513 16.3985 36.6013 16.3985 37.8473 16.8201L50.3258 21.0231C50.506 21.0832 50.6626 21.1989 50.7731 21.3535C50.8835 21.5081 50.9421 21.6937 50.9405 21.8837V37.7354C50.9468 37.9345 50.8869 38.1301 50.7701 38.2914C50.6533 38.4527 50.4862 38.5707 50.2951 38.6268Z" fill="#CF1418"/>
</g>
<g style="mix-blend-mode:multiply" opacity="0.6">
<path d="M114.723 69.3627L100.47 74.1574C99.0601 74.6234 97.538 74.6234 96.1284 74.1574L81.8749 69.3627C81.6689 69.2934 81.4898 69.1613 81.363 68.9848C81.2361 68.8083 81.1679 68.5965 81.168 68.3791V50.2607C81.1679 50.0434 81.2361 49.8315 81.363 49.655C81.4898 49.4786 81.6689 49.3464 81.8749 49.2772L96.1284 44.4825C97.5389 44.0058 99.0669 44.0058 100.477 44.4825L114.723 49.2772C114.929 49.3464 115.108 49.4786 115.235 49.655C115.362 49.8315 115.43 50.0434 115.43 50.2607V68.3715C115.432 68.5901 115.364 68.8037 115.237 68.9817C115.11 69.1597 114.93 69.293 114.723 69.3627Z" fill="#CF1418"/>
</g>
<g style="mix-blend-mode:multiply" opacity="0.6">
<path d="M76.1827 83.0401L60.0467 88.4802C58.4517 89.0189 56.724 89.0189 55.1291 88.4802L38.993 83.0401C38.7658 82.9562 38.57 82.8041 38.4324 82.6047C38.2949 82.4052 38.2223 82.1682 38.2247 81.9259V61.3794C38.2234 61.1374 38.2964 60.9008 38.4338 60.7016C38.5712 60.5024 38.7664 60.3501 38.993 60.2652L55.1291 54.8251C56.7294 54.2875 58.4617 54.2875 60.0621 54.8251L76.1981 60.2652C76.4247 60.3501 76.6199 60.5024 76.7573 60.7016C76.8947 60.9008 76.9677 61.1374 76.9665 61.3794V81.9259C76.9677 82.17 76.8928 82.4084 76.7524 82.6081C76.612 82.8077 76.4129 82.9587 76.1827 83.0401Z" fill="#CF1418"/>
</g>
<g style="mix-blend-mode:multiply" opacity="0.5">
<path d="M98.541 77.1066L83.2886 82.2394C81.7911 82.7304 80.1759 82.7304 78.6783 82.2394L63.3875 77.1066C63.1658 77.033 62.9725 76.892 62.8348 76.7033C62.697 76.5146 62.6216 76.2876 62.6191 76.054V56.6754C62.6216 56.4417 62.697 56.2147 62.8348 56.026C62.9725 55.8373 63.1658 55.6963 63.3875 55.6227L78.6399 50.4976C80.1506 49.9904 81.7856 49.9904 83.2963 50.4976L98.541 55.6227C98.7627 55.6963 98.956 55.8373 99.0937 56.026C99.2315 56.2147 99.3069 56.4417 99.3094 56.6754V76.054C99.3069 76.2876 99.2315 76.5146 99.0937 76.7033C98.956 76.892 98.7627 77.033 98.541 77.1066Z" fill="#7C0B13"/>
</g>
<g style="mix-blend-mode:multiply" opacity="0.2">
<path d="M93.5928 53.1271L62.504 63.5848C59.4339 64.6224 56.1078 64.6224 53.0376 63.5848L21.9489 53.1271C21.5042 52.97 21.1184 52.6801 20.8436 52.2968C20.5688 51.9134 20.4182 51.455 20.4121 50.9834V11.4809C20.4182 11.0092 20.5688 10.5508 20.8436 10.1674C21.1184 9.78409 21.5042 9.49427 21.9489 9.33708L53.0222 -1.12059C56.103 -2.15772 59.4386 -2.15772 62.5194 -1.12059L93.5928 9.33708C94.0375 9.49427 94.4233 9.78409 94.6981 10.1674C94.9729 10.5508 95.1235 11.0092 95.1295 11.4809V50.9834C95.1235 51.455 94.9729 51.9134 94.6981 52.2968C94.4233 52.6801 94.0375 52.97 93.5928 53.1271Z" fill="#CF1418"/>
</g>
<g style="mix-blend-mode:lighten" opacity="0.2">
<path d="M100.123 26.3338L72.461 35.6389C69.7202 36.5681 66.7496 36.5681 64.0088 35.6389L36.3931 26.3338C35.9934 26.201 35.6458 25.9451 35.4002 25.6029C35.1545 25.2607 35.0234 24.8495 35.0254 24.4282V-10.7022C35.0234 -11.1234 35.1545 -11.5346 35.4002 -11.8768C35.6458 -12.2191 35.9934 -12.4749 36.3931 -12.6077L64.0549 -21.9128C66.7966 -22.8363 69.7653 -22.8363 72.5071 -21.9128L100.169 -12.6077C100.567 -12.4729 100.914 -12.2165 101.159 -11.8747C101.404 -11.5329 101.536 -11.1229 101.537 -10.7022V24.4282C101.533 24.8547 101.394 25.269 101.14 25.6115C100.886 25.9539 100.53 26.2069 100.123 26.3338Z" fill="#F8A700"/>
</g>
</g>
<defs>
<linearGradient id="paint0_linear_2056_28031" x1="37.6148" y1="15.6125" x2="94.3828" y2="72.3882" gradientUnits="userSpaceOnUse">
<stop stop-color="#F8A700"/>
<stop offset="1" stop-color="#CF1418"/>
</linearGradient>
<linearGradient id="paint1_linear_2056_28031" x1="24.2925" y1="51.8115" x2="60.4602" y2="87.9869" gradientUnits="userSpaceOnUse">
<stop stop-color="#F8A700"/>
<stop offset="1" stop-color="#CF1418"/>
</linearGradient>
<linearGradient id="paint2_linear_2056_28031" x1="63.9487" y1="27.1253" x2="95.0297" y2="58.2063" gradientUnits="userSpaceOnUse">
<stop stop-color="#F8A700"/>
<stop offset="1" stop-color="#CF1418"/>
</linearGradient>
</defs>
</svg>
