<svg width="132" height="88" viewBox="0 0 132 88" fill="none" xmlns="http://www.w3.org/2000/svg">
<path d="M36.6665 27.8659C36.6665 26.2458 35.3532 24.9326 33.7331 24.9326C32.1131 24.9326 30.7998 26.2458 30.7998 27.8659V60.1325C30.7998 61.7526 32.1131 63.0659 33.7331 63.0659C35.3532 63.0659 36.6665 61.7526 36.6665 60.1325V27.8659Z" fill="#333333"/>
<path d="M80.6665 16.1326C80.6665 14.5125 79.3532 13.1992 77.7331 13.1992C76.1131 13.1992 74.7998 14.5125 74.7998 16.1326V71.8659C74.7998 73.4859 76.1131 74.7992 77.7331 74.7992C79.3532 74.7992 80.6665 73.4859 80.6665 71.8659V16.1326Z" fill="#333333"/>
<path d="M48.3998 42.5326C48.3998 40.9125 47.0865 39.5992 45.4665 39.5992C43.8464 39.5992 42.5331 40.9125 42.5331 42.5326V54.2659C42.5331 55.8859 43.8464 57.1992 45.4665 57.1992C47.0865 57.1992 48.3998 55.8859 48.3998 54.2659V42.5326Z" fill="#333333"/>
<path d="M68.9331 32.2659C68.9331 28.2158 65.6499 24.9326 61.5998 24.9326C57.5497 24.9326 54.2665 28.2158 54.2665 32.2659V61.5992C54.2665 65.6493 57.5497 68.9325 61.5998 68.9325C65.6499 68.9325 68.9331 65.6493 68.9331 61.5992V32.2659Z" fill="#333333"/>
<path d="M101.2 41.0659C101.2 37.0158 97.9166 33.7326 93.8665 33.7326C89.8164 33.7326 86.5331 37.0158 86.5331 41.0659V55.7325C86.5331 59.7826 89.8164 63.0659 93.8665 63.0659C97.9166 63.0659 101.2 59.7826 101.2 55.7325V41.0659Z" fill="#333333"/>
</svg>
