<svg width="132" height="88" viewBox="0 0 132 88" fill="none" xmlns="http://www.w3.org/2000/svg">
<path d="M60.545 22.3163V28.187C60.5572 28.3593 60.4951 28.5286 60.3742 28.6521C60.2534 28.7756 60.0856 28.8414 59.913 28.833H34.6326V40.8271H55.503C55.6753 40.8149 55.8447 40.877 55.9681 40.9978C56.0916 41.1187 56.1574 41.2865 56.149 41.4592V47.3298C56.157 47.5035 56.0916 47.6725 55.9687 47.7955C55.8456 47.9184 55.6767 47.984 55.503 47.9759H34.7028V65.6721C34.7151 65.8444 34.6529 66.0138 34.5321 66.1373C34.4113 66.2607 34.2434 66.3266 34.0708 66.3182H27.7507C27.5782 66.3266 27.4102 66.2607 27.2894 66.1373C27.1686 66.0138 27.1065 65.8444 27.1187 65.6721V22.3163C27.1106 22.1463 27.1746 21.9808 27.2949 21.8605C27.4152 21.7401 27.5807 21.6762 27.7507 21.6843H59.913C60.0829 21.6762 60.2485 21.7401 60.3687 21.8605C60.4891 21.9808 60.5531 22.1463 60.545 22.3163Z" fill="#67788A"/>
<path d="M104.883 54.0712C104.883 61.8801 98.8859 66.3182 88.2962 66.3182H66.3445C66.1719 66.3266 66.004 66.2607 65.8831 66.1373C65.7623 66.0138 65.7002 65.8444 65.7125 65.6721V22.3163C65.7043 22.1463 65.7683 21.9808 65.8886 21.8605C66.0089 21.7401 66.1745 21.6762 66.3445 21.6843H86.344C96.6528 21.6843 102.271 25.7713 102.271 33.229C102.271 38.1446 99.7848 41.3608 94.7427 42.8636C101.821 44.3383 104.883 48.5798 104.883 54.0712ZM86.1895 28.6083H73.2966V40.5743H86.1895C91.9619 40.5743 94.6163 38.6924 94.6163 34.5773C94.6163 30.4622 91.9619 28.6083 86.1895 28.6083ZM97.1022 53.3971C97.1022 49.2539 94.2933 47.3719 88.3243 47.3719H73.2966V59.3661H88.3243C94.4478 59.3661 97.1022 57.5824 97.1022 53.3971Z" fill="#67788A"/>
</svg>
