<svg width="132" height="88" viewBox="0 0 132 88" fill="none" xmlns="http://www.w3.org/2000/svg">
<path d="M72.8284 19.5234H52.1416C47.9363 19.5234 44.5135 20.3059 41.6124 22.1262C40.4214 22.9455 39.2673 23.8755 38.2634 24.9161C35.7339 27.5189 34.4691 31.4995 33.539 34.7372L30.7117 44.0366C29.8923 46.9002 29.3363 49.3555 29.1861 51.7001C28.6644 58.2466 31.605 62.7489 35.3993 65.241C38.079 67.064 41.2778 67.8833 44.5135 67.6594C44.7006 67.6594 44.885 67.6225 45.109 67.6225C46.2262 67.5119 47.3408 67.2879 48.4211 66.9165C48.6819 66.8427 48.9059 66.7294 49.1641 66.6188L49.3117 66.545C49.3363 66.545 49.3609 66.5327 49.3855 66.5082C49.5726 66.4344 49.7201 66.3606 49.8703 66.2842L50.0943 66.1736C50.3182 66.0629 50.5396 65.9497 50.7635 65.8021C50.8004 65.8021 50.8373 65.7653 50.8742 65.7284C51.0218 65.6546 51.1351 65.5808 51.2826 65.4676C53.4037 64.0529 56.3417 61.0786 58.4628 53.6759L66.0909 29.5711C66.6495 27.6374 68.8444 21.0909 72.8258 19.5287" fill="black"/>
<path d="M101.622 28.5273C101.622 28.5273 101.622 28.4904 101.585 28.4904V28.4535C101.251 27.7106 100.803 26.9651 100.321 26.2959C98.1258 23.0214 94.5923 20.8664 90.6847 20.4186C90.611 20.4186 90.4977 20.3817 90.4239 20.3817C89.4569 20.271 88.453 20.2341 87.4859 20.3079C87.2989 20.3079 87.1144 20.3448 86.8904 20.3448C85.7732 20.4554 84.6587 20.6794 83.5783 21.0508C83.3175 21.1246 83.0935 21.2379 82.8353 21.3485C82.7984 21.3854 82.7246 21.3854 82.6877 21.4223C82.6877 21.4223 82.6508 21.4223 82.6139 21.4591C82.4269 21.5329 82.2793 21.6067 82.0922 21.6831L81.8683 21.7937C81.6443 21.9044 81.423 22.0176 81.199 22.1652C81.1621 22.1652 81.1252 22.202 81.0883 22.2389C80.9408 22.3127 80.8275 22.426 80.6799 22.4997C78.5588 23.9144 75.6208 26.8887 73.4997 34.2914L65.8716 58.3962C65.313 60.3668 63.1181 66.8764 59.1367 68.4755H79.8604C84.0658 68.4755 87.449 67.6931 90.3896 65.8727C91.5806 65.0534 92.6952 64.1234 93.7386 63.0828C96.2682 60.48 97.5329 56.4994 98.4631 53.2617L101.253 43.9992C102.073 41.1356 102.629 38.6803 102.779 36.3357C103.077 33.5827 102.668 30.943 101.625 28.5246" fill="black"/>
</svg>
