<svg width="132" height="88" viewBox="0 0 132 88" fill="none" xmlns="http://www.w3.org/2000/svg">
<path fill-rule="evenodd" clip-rule="evenodd" d="M62.8062 10.0296C61.7598 10.1265 61.9018 10.1463 63.8451 10.1736C67.8882 10.2305 70.9369 10.9092 73.8016 12.3894C79.5191 15.3442 81.8435 20.9209 79.9495 27.1388C77.3413 35.7011 66.7775 43.3985 55.7451 44.7756C53.0923 45.1068 48.6826 44.9099 46.5295 44.3641C43.4257 43.5772 40.9366 42.2863 39.1292 40.5261C36.8425 38.2989 35.7355 35.8513 35.5778 32.6737C35.361 28.3014 37.3036 24.0083 41.4983 19.5902L42.8932 18.1211L41.6604 19.1973C40.2635 20.4167 38.1902 22.7701 37.2179 24.2398C35.0927 27.4527 33.9929 30.531 33.8493 33.668C33.74 36.0582 33.9664 37.5793 34.691 39.3255C36.6037 43.9342 40.93 47.0279 47.213 48.2796C49.6934 48.7738 54.6033 48.8106 57.2652 48.355C68.5165 46.4292 78.3892 39.7168 82.3808 31.2789C84.3314 27.1555 84.5529 22.4471 82.9624 18.9149C80.1506 12.6705 72.1873 9.16003 62.8062 10.0296ZM60.6883 10.3236C60.8568 10.3678 61.0906 10.3648 61.2078 10.3172C61.325 10.2696 61.1872 10.2337 60.9015 10.2371C60.6158 10.2406 60.5198 10.2795 60.6883 10.3236ZM60.382 10.6582C53.7583 11.6472 48.442 13.9567 43.7325 17.8911C41.1065 20.0851 39.208 22.5099 37.869 25.3805C36.0439 29.2928 35.9547 32.8382 37.5978 36.1711C38.4747 37.9498 39.6895 39.3048 41.4775 40.4981C44.1824 42.3035 47.0511 43.1517 51.0316 43.3226C59.1507 43.6716 67.3675 40.4481 73.2203 34.6179C77.2182 30.6357 79.0519 26.8308 79.0431 22.5358C79.0399 21.05 78.9554 20.452 78.5868 19.3089C77.2694 15.2238 73.813 12.3736 68.5832 11.0594C67.4477 10.774 66.4624 10.683 64.0183 10.638C62.3041 10.6064 60.6677 10.6156 60.382 10.6582ZM74.9271 11.2085C79.8257 12.9604 83.3823 16.279 84.7806 20.4028C86.7852 26.3153 84.4473 33.3553 78.4768 39.3833C73.0442 44.8685 65.4792 48.6468 57.3518 49.9342C55.0898 50.2926 49.8616 50.3338 48.0014 50.0079C44.1881 49.34 40.7846 47.9609 38.3912 46.1139C36.1982 44.4216 34.5307 42.0661 33.6275 39.3845C33.3485 38.5565 33.223 37.6733 33.1567 36.0716C33.0356 33.1522 33.427 31.2054 34.7338 28.2244C35.2101 27.1378 34.8846 27.4956 34.2597 28.7455C33.3544 30.5562 32.1384 33.7307 31.6147 35.65C31.191 37.2036 31.1398 37.6896 31.1297 40.253C31.1202 42.735 31.1711 43.3005 31.51 44.4735C32.9556 49.4772 36.6818 53.3577 42.1577 55.5622C48.7321 58.2089 57.7928 58.1602 66.0962 55.4337C80.7656 50.6165 91.4528 39.1561 91.5101 28.181C91.5333 23.7335 90.2012 20.4214 87.1346 17.3014C84.5674 14.6897 82.2321 13.351 77.4867 11.7716C74.6357 10.8227 72.589 10.3724 74.9271 11.2085ZM59.6941 13.8447C58.5992 14.9529 58.4215 15.0672 57.7894 15.0698C57.1535 15.0725 55.1849 15.4274 54.3751 15.6853C54.1049 15.7713 53.9761 15.6287 53.672 14.907C53.2402 13.8813 53.3209 13.8815 51.1873 14.902C49.6799 15.6228 47.4163 17.0732 46.8926 17.6537C46.5739 18.007 46.5803 18.0141 47.6343 18.4725L48.6976 18.9351L47.9252 19.7634C47.5004 20.219 46.9183 20.9705 46.6317 21.4335C46.1164 22.2655 46.0883 22.2822 44.2066 22.8672C42.3752 23.4368 42.2933 23.4832 42.051 24.0906C41.6396 25.122 41.3724 26.8044 41.4571 27.8294C41.5007 28.357 41.5821 28.8345 41.638 28.8904C41.6938 28.9465 42.6039 28.4775 43.6605 27.8484C44.7171 27.2192 45.6134 26.7046 45.6525 26.7046C45.6915 26.7046 45.8113 26.9715 45.9186 27.2979C46.026 27.6241 46.4217 28.242 46.7979 28.6707C47.174 29.0993 47.4819 29.4942 47.4819 29.5478C47.4819 29.6015 47.0665 30.293 46.5588 31.0845C46.0511 31.8759 45.4636 32.8114 45.253 33.1634L44.8705 33.8033L45.6317 34.2509C46.7519 34.9094 48.8226 35.5762 49.8697 35.6156L50.7857 35.65L51.5237 33.3919L52.2617 31.1339L53.8977 31.0283C54.7974 30.9702 55.8123 30.8664 56.1527 30.7976L56.7717 30.6724L57.5152 32.8623C58.3563 35.3396 58.0915 35.1843 60.1223 34.3909C61.6639 33.7885 62.7678 33.2233 64.1579 32.3244L65.3365 31.5624L64.9954 31.0877C64.8077 30.8264 64.1399 29.9946 63.5111 29.239L62.3679 27.8654L63.5438 26.6335C64.1906 25.9561 64.8347 25.2267 64.975 25.0129L65.2304 24.624L67.7006 25.3791L70.1709 26.1341L70.4879 25.4152C71.1797 23.8464 71.4373 22.774 71.4505 21.4068C71.4711 19.2875 71.6418 19.4093 68.6469 19.4093H66.0787L65.7093 18.6469C65.5062 18.2276 65.0931 17.6023 64.7911 17.2573L64.2422 16.6301L66.0901 15.7644C67.2956 15.1997 67.8956 14.8295 67.8156 14.6998C67.7483 14.5904 67.1389 14.2463 66.4617 13.935C65.2075 13.3587 63.5645 12.9298 61.8538 12.7323L60.9015 12.6225L59.6941 13.8447ZM87.9781 17.5526C88.1085 17.7134 88.6839 18.159 89.2565 18.5427C89.8289 18.9262 90.1929 19.1134 90.065 18.959C89.9372 18.8044 89.3618 18.3589 88.7866 17.969C88.2113 17.579 87.8475 17.3916 87.9781 17.5526ZM43.2231 17.8894L42.8932 18.2802L43.2829 17.9493C43.497 17.7673 43.6725 17.5915 43.6725 17.5585C43.6725 17.4195 43.5331 17.5222 43.2231 17.8894ZM90.0426 19.9792C90.2468 20.197 90.9011 20.7202 91.4968 21.1415C92.4526 21.8178 92.5335 21.8485 92.1842 21.4031C91.7738 20.8798 90.1126 19.5984 89.8317 19.5885C89.7436 19.5856 89.8386 19.7612 90.0426 19.9792ZM93.1122 22.2119C95.2231 25.0885 96.3252 29.0524 96.0655 32.8345C95.269 44.4355 84.0159 56.2381 68.9532 61.2707C64.5144 62.7537 60.6497 63.4646 56.0531 63.6437C43.8801 64.1181 34.1586 58.8767 31.3541 50.3275C31.1451 49.6905 31.0731 49.5747 31.1379 49.9801C31.5803 52.7488 32.8675 55.8949 34.3778 57.8985C37.7574 62.3821 43.479 65.3744 50.619 66.3925C52.7076 66.6902 58.1203 66.7397 60.2999 66.4809C76.2873 64.5831 91.0521 54.72 96.1822 42.5111C97.4807 39.4207 97.9405 37.2202 97.9422 34.0867C97.9439 30.7095 97.2376 27.9727 95.7119 25.4439C95.1563 24.5227 92.552 21.1462 92.3974 21.1462C92.3603 21.1462 92.682 21.6258 93.1122 22.2119ZM91.3801 22.3354C91.5688 22.6551 92.2272 23.2777 92.8433 23.7189L93.9631 24.5212L93.6225 23.9405C93.4349 23.6211 92.7766 22.9986 92.1593 22.557L91.0367 21.7542L91.3801 22.3354ZM92.2114 24.6879C92.2763 24.8573 92.3293 25.0996 92.3293 25.2261C92.3293 25.3525 92.738 25.7565 93.2374 26.1237C93.7367 26.4909 94.2855 26.8958 94.4565 27.0233C94.7416 27.2357 94.7577 27.214 94.6505 26.7628C94.5307 26.2578 94.2001 25.9214 92.8607 24.9414C92.3087 24.5372 92.1267 24.4663 92.2114 24.6879ZM92.6756 27.6889C92.6756 28.1032 92.8926 28.3712 93.8877 29.1867C95.0965 30.1773 95.0998 30.1787 95.0998 29.6924C95.0998 29.1846 94.5939 28.6071 93.325 27.666L92.6756 27.1845V27.6889ZM97.6454 28.9192C98.6625 31.3114 99.0111 35.1803 98.4881 38.2711C96.2085 51.7431 81.0221 64.3156 63.3735 67.3417C53.8677 68.9717 44.4461 67.266 38.4994 62.8385C36.8607 61.6184 34.785 59.3961 33.9298 57.9459C33.1179 56.569 33.0973 56.7403 33.8857 58.3108C36.9367 64.3882 39.8764 67.5597 44.6655 69.9408C49.0651 72.128 53.8042 73.0328 59.9446 72.8573C64.8069 72.7186 68.532 72.0531 73.2822 70.4746C84.7006 66.6801 94.1232 59.0751 98.6405 50.0079C100.132 47.0133 100.987 43.4491 100.987 40.223C100.987 38.0262 100.698 36.4497 99.7813 33.6525C99.1645 31.7696 97.6535 28.2679 97.458 28.2679C97.4089 28.2679 97.4932 28.5611 97.6454 28.9192ZM92.6405 30.5141C92.5735 30.9722 92.6999 31.1535 93.7334 32.0817C94.3762 32.6591 94.9306 33.1314 94.9656 33.1314C95.0004 33.1314 95.0467 32.8688 95.0681 32.5478C95.1026 32.0361 94.9949 31.87 94.1946 31.1988C92.6285 29.886 92.726 29.9289 92.6405 30.5141ZM92.1044 33.3405C92.0192 33.863 92.1091 34.0107 93.135 35.0322C94.024 35.9172 94.292 36.0989 94.4171 35.9007C94.8188 35.2635 94.3577 34.5592 92.5665 33.0737C92.2047 32.7736 92.1962 32.7784 92.1044 33.3405ZM91.1546 36.2993C90.9449 36.8565 90.9541 36.873 92.1352 38.0576L93.3274 39.2536L93.5406 38.6055L93.7539 37.9572L92.6569 36.847C92.0537 36.2364 91.5165 35.7369 91.4632 35.7369C91.4099 35.7369 91.271 35.9899 91.1546 36.2993ZM89.8063 39.0764L89.4993 39.7222L90.4239 40.7258C90.9325 41.2778 91.4412 41.8328 91.5546 41.9593C91.7214 42.1449 91.8268 42.0767 92.106 41.602L92.4512 41.015L91.2822 39.7229L90.1133 38.4307L89.8063 39.0764ZM88.1566 41.7538C87.6049 42.398 87.6325 42.4981 88.723 43.8088L89.8082 45.1133L90.1967 44.6373C90.4104 44.3754 90.5881 44.0725 90.5915 43.9639C90.595 43.8553 90.1108 43.241 89.5155 42.5986C88.4827 41.484 88.4207 41.4456 88.1566 41.7538ZM30.5263 41.9176C30.5346 42.1199 30.5756 42.1611 30.6309 42.0227C30.6809 41.8972 30.6747 41.7473 30.6172 41.6897C30.5597 41.632 30.5188 41.7345 30.5263 41.9176ZM101.193 43.5533C101.189 43.8876 101.248 44.513 101.325 44.9429L101.463 45.7245L101.475 45.0297C101.481 44.6476 101.422 44.0223 101.343 43.6401L101.2 42.9453L101.193 43.5533ZM30.7145 45.2034L30.7328 46.7667L30.8683 45.4664C30.9437 44.7412 30.9356 44.0499 30.8499 43.9031C30.7533 43.7377 30.7031 44.2198 30.7145 45.2034ZM85.9657 44.4789C85.3619 45.1527 85.3724 45.2576 86.1392 46.2018C86.5515 46.7094 87.0254 47.3178 87.1925 47.5537L87.4962 47.9826L87.9945 47.376L88.4929 46.7693L87.8664 45.9864C87.5218 45.5557 87.0292 44.9555 86.7717 44.6526L86.3035 44.1018L85.9657 44.4789ZM100.616 46.4645C100.58 46.7262 100.579 47.4408 100.613 48.0526C100.696 49.554 100.981 49.0748 100.985 47.4283C100.987 46.1926 100.739 45.5452 100.616 46.4645ZM31.2947 47.2569C31.2196 47.9291 31.2327 48.6805 31.3254 48.9938C31.4753 49.5016 31.498 49.4482 31.6081 48.33C31.6739 47.6612 31.6601 46.8796 31.5775 46.593C31.4436 46.1289 31.4128 46.2015 31.2947 47.2569ZM83.2686 47.2965C82.9993 47.5341 82.8045 47.7886 82.8357 47.862C83.0288 48.3178 84.6564 50.4911 84.8079 50.4956C84.9092 50.4988 85.202 50.2813 85.4588 50.0124L85.9255 49.5236L84.9439 48.1886C84.404 47.4544 83.9162 46.856 83.8601 46.8591C83.804 46.862 83.5378 47.0588 83.2686 47.2965ZM32.3406 50.0206C32.2377 51.1229 32.2689 51.43 32.534 51.9172L32.8502 52.4987L32.9004 51.0685C32.9349 50.0897 32.8737 49.491 32.7072 49.1717C32.4729 48.7234 32.4587 48.7561 32.3406 50.0206ZM99.6459 49.4213C99.5186 49.7788 99.4836 50.4265 99.552 51.1583C99.6587 52.2972 99.6666 52.3127 99.8836 51.8039C100.12 51.2488 100.154 50.2266 99.9646 49.3722L99.8492 48.8511L99.6459 49.4213ZM80.2732 49.7564L79.7319 50.209L80.5878 51.5276C81.0586 52.2528 81.5031 52.9069 81.5755 52.9813C81.6478 53.0554 81.9888 52.8918 82.333 52.6174L82.959 52.1183L82.0135 50.7018C81.4936 49.9228 81.011 49.2895 80.9414 49.2947C80.8716 49.2997 80.5708 49.5076 80.2732 49.7564ZM100.828 49.9077C100.836 50.11 100.877 50.1512 100.932 50.0128C100.982 49.8873 100.976 49.7374 100.919 49.6798C100.861 49.6221 100.82 49.7246 100.828 49.9077ZM100.653 50.588C100.625 51.2231 99.1622 54.5685 98.1813 56.2404C92.8105 65.3948 81.6463 72.8151 69.5823 75.249C66.3078 75.9097 63.9451 76.092 60.0584 75.9841C56.1331 75.875 53.9456 75.5082 50.8203 74.4347C49.847 74.1003 49.0874 73.8863 49.1322 73.9591C49.2922 74.219 53.3202 75.8192 55.3605 76.4336C59.0238 77.5368 60.1086 77.6862 64.3646 77.674C68.5373 77.662 70.2928 77.4558 73.7845 76.5672C80.3963 74.8844 86.1497 71.8258 91.3674 67.2198C92.3144 66.3838 93.1482 65.6998 93.2202 65.6998C93.2921 65.6998 93.4522 65.5864 93.576 65.4476C93.7703 65.2299 93.7598 65.227 93.4981 65.4255C93.067 65.7528 93.1215 65.3856 93.5631 64.9885C95.3102 63.4174 97.7451 59.5596 99.0353 56.3183C99.9745 53.9592 100.897 50.8055 100.753 50.4487C100.706 50.3343 100.661 50.397 100.653 50.588ZM33.9757 52.6262C33.9757 53.8471 34.0361 54.1831 34.3163 54.5204L34.6567 54.9305L34.6626 53.3507C34.6675 51.9872 34.6209 51.7279 34.322 51.4565C33.9783 51.1444 33.9757 51.1531 33.9757 52.6262ZM77.0353 51.9986C76.4144 52.4063 76.3886 52.4569 76.6206 52.8135C76.7567 53.0224 77.1207 53.6429 77.4292 54.1923C77.738 54.7415 78.0549 55.231 78.1338 55.28C78.3226 55.3969 79.5158 54.687 79.5158 54.4575C79.5158 54.243 77.9075 51.55 77.7842 51.5581C77.7366 51.5613 77.3996 51.7595 77.0353 51.9986ZM98.1855 52.4555C97.9725 52.9036 97.9237 53.3325 97.9952 54.1247C98.0482 54.7113 98.1392 55.1904 98.1974 55.1897C98.617 55.1843 98.8708 53.2772 98.5868 52.2625C98.4762 51.8668 98.4622 51.8736 98.1855 52.4555ZM35.8804 54.7266C35.8804 56.0135 35.9246 56.2143 36.2811 56.5504C36.5015 56.7581 36.7353 56.928 36.8006 56.928C36.866 56.928 36.9194 56.2772 36.9194 55.4818C36.9194 54.1949 36.8752 53.9941 36.5187 53.658C36.2983 53.4502 36.0645 53.2804 35.9992 53.2804C35.9338 53.2804 35.8804 53.9312 35.8804 54.7266ZM73.5111 54.0215L72.7874 54.379L73.5561 55.914C73.9788 56.7583 74.3658 57.4491 74.4163 57.4491C74.6246 57.4491 75.8793 56.7375 75.8771 56.6206C75.8741 56.4679 74.5149 53.9356 74.3504 53.7763C74.2866 53.7146 73.909 53.8251 73.5111 54.0215ZM38.3072 56.4405C38.3102 58.0218 38.3354 58.0925 39.0663 58.5597L39.5683 58.8807L39.4559 58.3169C39.3941 58.0069 39.3435 57.2716 39.3435 56.6833C39.3435 55.6786 39.3119 55.5945 38.8241 55.3055L38.3046 54.9977L38.3072 56.4405ZM96.2195 55.584C95.9034 56.0885 95.8861 56.2529 96.0504 57.1837L96.2337 58.2209L96.6354 57.655C96.9903 57.1549 97.0232 56.9687 96.9173 56.0533C96.8513 55.4836 96.7465 55.0184 96.6845 55.0194C96.6224 55.0206 96.4132 55.2748 96.2195 55.584ZM69.819 55.6743C69.4857 55.8322 69.1815 55.9826 69.1429 56.0085C68.9922 56.1094 70.4237 59.1906 70.5922 59.1281C70.6907 59.0914 71.0647 58.9561 71.4233 58.8274C71.7818 58.6987 72.0545 58.5455 72.0294 58.4868C71.4451 57.1285 70.5903 55.3673 70.5189 55.3759C70.4673 55.3819 70.1524 55.5162 69.819 55.6743ZM41.0382 58.0136C41.1245 59.5783 41.2093 59.7727 41.9144 60.0193L42.3873 60.1847L42.2595 59.0339C42.1894 58.4012 42.1279 57.681 42.1229 57.4337C42.1149 57.0262 41.5783 56.5806 41.0955 56.5806C41.0206 56.5806 40.9948 57.2254 41.0382 58.0136ZM65.7931 57.1299C65.5313 57.2259 65.317 57.3626 65.317 57.4337C65.317 57.5047 65.5144 58.0649 65.7556 58.6786C66.5661 60.74 66.4285 60.575 67.1694 60.3744C67.5315 60.2762 67.8885 60.1385 67.9628 60.0681C68.0369 59.9976 67.8149 59.2624 67.4693 58.434C66.8092 56.8525 66.7265 56.788 65.7931 57.1299ZM43.9014 57.9096C43.9509 58.0862 44.042 58.8252 44.104 59.5516L44.2167 60.8724L44.8449 61.0659C45.1903 61.1722 45.4873 61.2422 45.5048 61.2215C45.5223 61.2006 45.4515 60.4607 45.3476 59.5771C45.1476 57.8755 45.2175 57.9848 44.1315 57.6787C43.8849 57.6093 43.8321 57.6622 43.9014 57.9096ZM61.9837 58.0946C61.7219 58.1344 61.5075 58.224 61.5075 58.2936C61.5075 58.3631 61.7307 59.081 62.0036 59.8887L62.4999 61.3573L63.2519 61.3066C63.6654 61.2788 64.037 61.2227 64.0777 61.1821C64.1182 61.1412 63.8976 60.402 63.5875 59.5391C63.1762 58.3954 62.9472 57.9773 62.7416 57.9963C62.5866 58.0105 62.2455 58.0548 61.9837 58.0946ZM93.8353 58.5135C93.4304 59.0326 93.4216 59.0958 93.6386 59.9212C93.7636 60.3964 93.9 60.8196 93.9418 60.8616C93.9837 60.9035 94.2105 60.708 94.446 60.4273C94.8474 59.9486 94.8631 59.8561 94.6983 58.9434C94.6017 58.4083 94.4631 57.9702 94.3907 57.9702C94.3184 57.9702 94.0683 58.2148 93.8353 58.5135ZM47.1356 58.7619C47.1356 59.3028 47.5172 61.5338 47.628 61.6403C47.6905 61.7002 48.0443 61.8036 48.4142 61.8696C49.0148 61.9769 49.0739 61.9564 48.967 61.6769C48.9012 61.505 48.7627 60.7629 48.659 60.0282C48.5002 58.9016 48.4136 58.677 48.1061 58.5941C47.4734 58.4239 47.1356 58.4823 47.1356 58.7619ZM57.927 58.8005C57.7762 58.8967 57.8415 59.3506 58.1781 60.546C58.5862 61.995 58.6697 62.1515 58.9881 62.0657C59.1833 62.013 59.5183 61.9689 59.7327 61.9677C60.2217 61.9647 60.2193 61.8676 59.6839 60.107C59.2525 58.6888 59.2362 58.665 58.6882 58.6676C58.3817 58.6692 58.0392 58.7289 57.927 58.8005ZM50.5265 59.0065C50.4041 59.2511 51.0867 62.0125 51.3034 62.1501C51.4397 62.2366 51.7891 62.3085 52.08 62.3101L52.609 62.3127L52.2542 60.6768L51.8994 59.0409L51.2361 58.9773C50.8712 58.9424 50.5519 58.9556 50.5265 59.0065ZM54.0618 59.1211C54.0618 59.1811 54.2241 59.9236 54.4225 60.7713L54.7834 62.3127H55.5683C56.2971 62.3127 56.3459 62.2847 56.2512 61.9218C56.1951 61.7068 56.0159 60.9644 55.8529 60.2717L55.5569 59.0124H54.8093C54.3983 59.0124 54.0618 59.0614 54.0618 59.1211ZM91.1494 61.2632L90.5756 61.7485L90.8637 62.7427L91.1519 63.7368L91.7172 63.1871C92.2628 62.6566 92.2767 62.609 92.1146 61.8237C92.0221 61.3761 91.8963 60.9578 91.835 60.8939C91.7735 60.8302 91.4651 60.9964 91.1494 61.2632ZM88.011 63.8796L87.4155 64.3903L87.7171 65.3498L88.0186 66.3095L88.6766 65.779L89.3346 65.2485L89.0719 64.3017C88.9275 63.7809 88.7635 63.358 88.7078 63.362C88.652 63.3658 88.3386 63.5987 88.011 63.8796ZM84.5754 66.2483C83.7803 66.7293 83.7794 66.735 84.3034 67.9929L84.5475 68.5793L85.0753 68.2686C85.935 67.7623 85.9847 67.6271 85.6649 66.6614C85.5056 66.1802 85.362 65.7898 85.3459 65.7934C85.3297 65.797 84.983 66.0018 84.5754 66.2483ZM91.8964 67.051C86.5149 72.4101 78.125 76.4647 69.9056 77.6782C69.0485 77.8046 68.6199 77.9161 68.9532 77.9259C69.8677 77.9524 72.699 77.4907 74.6258 77.0007C79.6411 75.7254 84.1944 73.5587 88.1308 70.5746C89.8812 69.2474 93.1736 66.232 93.0219 66.0948C92.9743 66.0517 92.4678 66.4819 91.8964 67.051ZM41.1452 68.3674C41.4981 68.7655 41.5946 68.817 41.5946 68.6077C41.5946 68.535 41.4192 68.3676 41.205 68.2356C40.8168 67.9964 40.8166 67.9968 41.1452 68.3674ZM80.7712 68.4371C80.3665 68.641 80.0352 68.8642 80.0352 68.933C80.0352 69.0018 80.1885 69.4166 80.3757 69.8548L80.7161 70.6514L81.5012 70.2687C81.933 70.0584 82.2863 69.8334 82.2863 69.7692C82.2863 69.6328 81.5945 68.0395 81.5422 68.0555C81.5228 68.0614 81.1758 68.2332 80.7712 68.4371ZM44.1533 70.6283C44.751 71.2135 45.3112 71.6924 45.3983 71.6924C45.4852 71.6924 45.1521 71.3186 44.6577 70.8617C43.2851 69.5929 42.9261 69.4268 44.1533 70.6283ZM76.622 70.305L75.8928 70.6302L76.3482 71.4653C76.5988 71.9246 76.8175 72.3208 76.8343 72.3458C76.8512 72.3708 77.2272 72.2306 77.6699 72.0342L78.4749 71.6769L78.0401 70.8162C77.8008 70.3427 77.548 69.9609 77.4782 69.9677C77.4085 69.9743 77.0232 70.1263 76.622 70.305ZM46.4985 71.8341C46.8587 72.2041 47.4805 72.6863 47.8803 72.9055L48.6074 73.3039L47.7543 72.4175C47.2852 71.9301 46.6632 71.448 46.3725 71.3464L45.8437 71.1614L46.4985 71.8341ZM72.5895 71.7396C72.2562 71.8416 71.9546 71.9473 71.9192 71.9744C71.779 72.0825 72.7918 73.603 73.0039 73.603C73.2075 73.603 74.3315 73.2636 74.4591 73.1638C74.5729 73.0746 73.5322 71.5199 73.3699 71.5364C73.274 71.5461 72.9229 71.6376 72.5895 71.7396ZM49.6463 73.0766C50.2785 73.7524 51.1689 74.2978 51.6404 74.2978C51.7431 74.2978 51.4376 73.907 50.9615 73.4293C50.4853 72.9517 49.9816 72.5608 49.8418 72.5608C49.7023 72.5608 49.4453 72.5103 49.2709 72.4485C49.0822 72.3816 49.2344 72.6361 49.6463 73.0766ZM68.5796 72.7957L67.773 72.9605L68.3198 73.7995C68.8383 74.5949 68.8982 74.6329 69.4727 74.5327C70.5073 74.3522 70.5542 74.2695 70.0526 73.5103C69.4403 72.5838 69.4926 72.6091 68.5796 72.7957ZM53.2099 74.03C53.7235 74.5559 54.227 74.8929 54.6384 74.986C54.988 75.0651 55.2739 75.1125 55.2739 75.0913C55.2739 75.0701 54.9428 74.6935 54.538 74.2544C53.9858 73.6553 53.6291 73.4262 53.1095 73.3369L52.4168 73.2179L53.2099 74.03ZM48.4746 73.6246C48.5922 73.7434 48.7319 73.7967 48.7851 73.7432C48.8384 73.6897 48.7423 73.5926 48.5716 73.5273C48.3248 73.4332 48.3049 73.453 48.4746 73.6246ZM64.1541 73.577C63.7738 73.6888 63.7752 73.6963 64.3272 74.4217C64.8417 75.0975 64.9468 75.1538 65.7066 75.1599C66.159 75.1634 66.5291 75.1205 66.5291 75.0644C66.5291 75.0084 66.2821 74.6176 65.9802 74.1959C65.4169 73.409 65.095 73.2999 64.1541 73.577ZM56.7018 74.515C57.1965 75.1168 57.4486 75.2731 58.0661 75.3614C58.4827 75.4208 58.8468 75.4496 58.8754 75.4253C58.9038 75.4008 58.5996 75.0201 58.1994 74.5789C57.5672 73.882 57.3812 73.7767 56.7833 73.7767H56.0948L56.7018 74.515ZM60.4686 74.6452C61.1396 75.4491 61.2509 75.5137 61.9664 75.5137C62.822 75.5137 62.8306 75.6153 61.8646 74.3359C61.4899 73.8398 61.3467 73.7767 60.5931 73.7767H59.7438L60.4686 74.6452ZM67.1805 78.0683C67.3959 78.1098 67.7076 78.1082 67.8731 78.0648C68.0386 78.0214 67.8624 77.9874 67.4814 77.9893C67.1005 77.9912 66.9651 78.0268 67.1805 78.0683Z" fill="black" fill-opacity="0.99"/>
</svg>
