<svg width="132" height="88" viewBox="0 0 132 88" fill="none" xmlns="http://www.w3.org/2000/svg">
<path fill-rule="evenodd" clip-rule="evenodd" d="M61.8216 7.83111C54.3003 8.96393 48.5465 11.4126 42.9249 15.8727C40.5579 17.7507 37.439 21.2207 35.6952 23.9161C30.0025 32.7153 28.2932 43.101 30.8683 53.2433C31.872 57.1955 34.5961 62.9562 36.6688 65.5086C36.9911 65.9055 37.5642 66.612 37.9426 67.0787C38.9688 68.3449 41.2403 70.6056 42.8175 71.9309C43.5852 72.5759 44.2616 73.1621 44.3207 73.2336C44.3797 73.3051 45.2288 73.8638 46.2073 74.4751C52.1867 78.2097 57.9358 80.0099 64.6255 80.2421C70.1545 80.4339 74.3768 79.7096 79.7521 77.6472C81.5851 76.944 86.4252 74.2882 87.0531 73.6415C87.1122 73.5805 87.7403 73.1017 88.4489 72.5774C91.0476 70.6544 94.2285 67.152 96.652 63.5454C97.599 62.1361 99.458 58.3328 100.169 56.3498C101.025 53.9643 101.795 50.7238 102.099 48.2272C102.621 43.9417 102.046 37.3673 100.813 33.5375C100.12 31.3849 98.7098 28.0122 97.9965 26.8018C97.619 26.1618 97.2355 25.4411 97.1442 25.2008C97.0527 24.9604 96.3394 23.9167 95.5588 22.8814C94.778 21.8461 94.1394 20.9696 94.1394 20.9335C94.1394 20.7692 90.0508 16.7216 89.0727 15.9174C87.9797 15.0187 85.8106 13.4986 85.6215 13.4986C85.5663 13.4986 85.2137 13.2649 84.8377 12.9793C82.8522 11.4712 77.7868 9.41714 73.8524 8.52511C71.3712 7.96257 70.5704 7.88202 66.7606 7.81243C64.3985 7.76947 62.176 7.77763 61.8216 7.83111ZM60.0499 8.46003C53.6911 9.62249 48.5797 11.8881 43.8968 15.6199C36.3458 21.6374 31.7511 29.754 30.5664 39.1679C30.2029 42.0573 30.4172 48.0204 30.9755 50.5504C32.5851 57.8441 35.6353 63.4687 40.7668 68.6059C45.8032 73.6477 51.4495 76.7498 58.3859 78.2858C60.9825 78.8608 66.5108 79.1907 69.0282 78.9211L70.4257 78.7714L56.7827 65.1404C49.2789 57.6435 42.9217 51.3604 42.6552 51.178C41.598 50.4544 41.5291 50.0115 41.53 43.9563C41.5306 38.7357 41.5624 38.2552 41.9491 37.6207C42.7486 36.3092 43.2015 36.167 46.835 36.0863L50.1209 36.0132L54.3342 31.4682C59.7999 25.5721 60.2904 25.0953 60.3851 25.5833C60.4254 25.7915 60.5304 25.9173 60.6183 25.863C60.7063 25.8086 64.1988 29.1903 68.3792 33.3782C72.5597 37.5658 76.0556 40.9921 76.1482 40.9921C76.2407 40.9921 76.3163 39.3006 76.3163 37.2333V33.4744H82.6643L86.5766 37.3877C88.7283 39.5401 90.4889 41.4305 90.4889 41.5888C90.4889 41.7471 90.5688 41.8272 90.6665 41.7669C90.7642 41.7065 92.9906 43.8117 95.614 46.4453C98.2372 49.0789 100.415 51.1765 100.454 51.1069C101.208 49.7488 101.378 40.7758 100.718 37.2333C99.8396 32.5246 97.9705 27.9336 95.2524 23.8087C93.2375 20.7511 89.2013 16.5998 86.1942 14.4923C82.0169 11.5644 76.6343 9.36946 71.4311 8.47163C68.9762 8.04805 62.3402 8.04118 60.0499 8.46003ZM60.5255 37.2333C60.5255 43.2582 60.553 45.7539 60.5867 42.7792C60.6204 39.8045 60.6204 34.875 60.5867 31.8248C60.5532 28.7745 60.5257 31.2083 60.5255 37.2333ZM90.5673 44.751C90.5679 45.9324 90.604 46.3882 90.6474 45.764C90.6909 45.14 90.6905 44.1734 90.6465 43.616C90.6023 43.0589 90.5668 43.5696 90.5673 44.751ZM60.5216 55.2759C60.5218 59.0562 60.5511 60.5724 60.5867 58.6453C60.6221 56.7182 60.6221 53.6252 60.5865 51.7719C60.5506 49.9187 60.5216 51.4955 60.5216 55.2759Z" fill="black" fill-opacity="0.086"/>
<path fill-rule="evenodd" clip-rule="evenodd" d="M55.1647 30.8969L50.2258 36.2471L47.0477 36.2568C43.5131 36.2678 42.9877 36.4121 42.1365 37.6059C41.643 38.2978 41.6363 38.3832 41.6363 43.9992C41.6363 49.6152 41.643 49.7007 42.1365 50.3925C42.987 51.5855 43.5166 51.7318 46.9813 51.7318H50.0931L54.6169 56.538C57.1051 59.1812 59.3402 61.5976 59.5842 61.9078C59.8279 62.2177 60.1169 62.4714 60.2267 62.4714C60.3474 62.4714 60.4257 55.2071 60.4257 43.9992C60.4257 33.8395 60.3532 25.5315 60.2647 25.5369C60.1762 25.5423 57.8811 27.9542 55.1647 30.8969ZM76.5309 41.2069H69.0152V47.4359H76.5309V55.1685H82.7583V47.4359H90.274V41.2069H82.7583V33.4744H76.5309V41.2069ZM61.2847 43.9992C61.2847 47.5732 61.3594 49.369 61.508 49.369C62.056 49.369 63.4529 48.4465 64.1654 47.6138C64.9418 46.7065 65.5794 45.0766 65.5794 43.9992C65.5794 42.8847 64.9086 41.1788 64.1325 40.3194C63.4101 39.5197 62.0277 38.6294 61.508 38.6294C61.3594 38.6294 61.2847 40.4253 61.2847 43.9992Z" fill="#19496B"/>
<path fill-rule="evenodd" clip-rule="evenodd" d="M66.0089 78.5809C85.1027 78.5809 100.581 63.0981 100.581 43.9992C100.581 24.9003 85.1027 9.41756 66.0089 9.41756C46.915 9.41756 31.4364 24.9003 31.4364 43.9992C31.4364 63.0981 46.915 78.5809 66.0089 78.5809ZM66.0089 80.2992C86.0515 80.2992 102.299 64.0472 102.299 43.9992C102.299 23.9513 86.0515 7.69922 66.0089 7.69922C45.9663 7.69922 29.7185 23.9513 29.7185 43.9992C29.7185 64.0472 45.9663 80.2992 66.0089 80.2992Z" fill="#D6D6D6"/>
</svg>
