<svg width="132" height="88" viewBox="0 0 132 88" fill="none" xmlns="http://www.w3.org/2000/svg">
<path d="M54.8235 53.3071C54.8235 51.9061 54.348 50.8144 53.3971 50.0321C52.4635 49.2497 50.8124 48.44 48.4438 47.6031C46.0752 46.7661 44.1388 45.9564 42.6347 45.1741C37.7418 42.6449 35.2954 39.1697 35.2954 34.7484C35.2954 32.5469 35.9005 30.6091 37.1107 28.9352C38.3383 27.2431 40.0672 25.933 42.2975 25.0052C44.5278 24.059 47.0347 23.5859 49.8183 23.5859C52.5327 23.5859 54.9619 24.0954 57.1057 25.1143C59.2669 26.1332 60.9439 27.5888 62.1368 29.4811C63.3298 31.3551 63.9263 33.5021 63.9263 35.922H54.8494C54.8494 34.3027 54.374 33.0473 53.4231 32.1557C52.4895 31.2642 51.2187 30.8184 49.6108 30.8184C47.9856 30.8184 46.6976 31.2005 45.7467 31.9646C44.8131 32.7106 44.3463 33.6658 44.3463 34.8303C44.3463 35.8492 44.865 36.7772 45.9023 37.6141C46.9397 38.4329 48.7637 39.2881 51.3743 40.1796C53.985 41.0529 56.1288 41.999 57.8059 43.018C61.8861 45.4925 63.9263 48.904 63.9263 53.2525C63.9263 56.7277 62.6815 59.457 60.1918 61.4402C57.7021 63.4234 54.2875 64.415 49.948 64.415C46.8877 64.415 44.1128 63.8419 41.6232 62.6956C39.1509 61.5312 37.2836 59.9482 36.0215 57.9468C34.7767 55.9271 34.1543 53.6073 34.1543 50.9872H43.283C43.283 53.1161 43.8016 54.6899 44.839 55.7088C45.8936 56.7095 47.5966 57.2099 49.948 57.2099C51.4521 57.2099 52.6365 56.8733 53.5009 56.2C54.3827 55.5086 54.8235 54.5443 54.8235 53.3071Z" fill="#B4CF72"/>
<path d="M68.5938 63.8702V24.1328H82.1571C87.0153 24.1328 90.7066 25.0699 93.2308 26.944C95.7724 28.818 97.0431 31.5381 97.0431 35.1043C97.0431 37.1603 96.5936 38.9161 95.6945 40.3717C94.7955 41.8272 93.4729 42.9008 91.7267 43.5922C93.6977 44.138 95.2105 45.1569 96.2651 46.6489C97.3197 48.1409 97.8471 49.9603 97.8471 52.1073C97.8471 56.001 96.6714 58.9304 94.3201 60.8954C91.986 62.8422 88.5196 63.8339 83.9206 63.8702H68.5938ZM77.6965 46.9764V56.5014H83.6613C85.3038 56.5014 86.5659 56.1102 87.4476 55.3278C88.3294 54.5272 88.7703 53.4082 88.7703 51.9709C88.7703 48.6594 87.2055 46.9946 84.0762 46.9764H77.6965ZM77.6965 40.6992H82.4424C84.4306 40.681 85.8484 40.2989 86.6956 39.5529C87.5427 38.8069 87.9663 37.7062 87.9663 36.2506C87.9663 34.5766 87.5081 33.3758 86.5918 32.648C85.6755 31.902 84.1972 31.529 82.1571 31.529H77.6965V40.6992Z" fill="#B4CF72"/>
</svg>
