<svg width="360" height="360" viewBox="0 0 360 360" fill="none" xmlns="http://www.w3.org/2000/svg">
<path d="M78.75 124.312C78.75 118.721 74.2168 114.188 68.625 114.188C63.0331 114.188 58.5 118.721 58.5 124.312V235.688C58.5 241.28 63.0331 245.812 68.625 245.812C74.2168 245.812 78.75 241.28 78.75 235.688V124.312Z" fill="#333333"/>
<path d="M230.625 83.8125C230.625 78.2207 226.092 73.6875 220.5 73.6875C214.908 73.6875 210.375 78.2207 210.375 83.8125V276.188C210.375 281.78 214.908 286.312 220.5 286.312C226.092 286.312 230.625 281.78 230.625 276.188V83.8125Z" fill="#333333"/>
<path d="M119.25 174.938C119.25 169.345 114.717 164.812 109.125 164.812C103.533 164.812 99 169.345 99 174.938V215.438C99 221.03 103.533 225.562 109.125 225.562C114.717 225.562 119.25 221.03 119.25 215.438V174.938Z" fill="#333333"/>
<path d="M190.125 139.5C190.125 125.52 178.792 114.188 164.812 114.188C150.833 114.188 139.5 125.52 139.5 139.5V240.75C139.5 254.73 150.833 266.062 164.812 266.062C178.792 266.062 190.125 254.73 190.125 240.75V139.5Z" fill="#333333"/>
<path d="M301.5 169.875C301.5 155.895 290.167 144.562 276.188 144.562C262.208 144.562 250.875 155.895 250.875 169.875V220.5C250.875 234.48 262.208 245.812 276.188 245.812C290.167 245.812 301.5 234.48 301.5 220.5V169.875Z" fill="#333333"/>
</svg>
