<svg width="360" height="360" viewBox="0 0 360 360" fill="none" xmlns="http://www.w3.org/2000/svg">
<path d="M139.355 213.843C139.355 208.748 137.626 204.778 134.168 201.933C130.773 199.088 124.769 196.144 116.156 193.101C107.543 190.057 100.502 187.113 95.032 184.268C77.2397 175.071 68.3438 162.434 68.3438 146.357C68.3438 138.351 70.5441 131.304 74.945 125.217C79.4089 119.064 85.6957 114.301 93.806 110.926C101.916 107.486 111.032 105.766 121.154 105.766C131.025 105.766 139.858 107.618 147.654 111.323C155.513 115.028 161.611 120.322 165.949 127.203C170.287 134.017 172.456 141.824 172.456 150.624H139.449C139.449 144.736 137.721 140.17 134.263 136.928C130.868 133.686 126.247 132.065 120.4 132.065C114.49 132.065 109.806 133.455 106.349 136.234C102.953 138.946 101.256 142.42 101.256 146.654C101.256 150.359 103.142 153.734 106.914 156.777C110.687 159.754 117.319 162.864 126.812 166.106C136.306 169.282 144.102 172.722 150.2 176.428C165.037 185.426 172.456 197.831 172.456 213.644C172.456 226.281 167.93 236.206 158.876 243.418C149.823 250.629 137.406 254.235 121.626 254.235C110.498 254.235 100.407 252.151 91.3541 247.983C82.3637 243.748 75.5736 237.992 70.9841 230.714C66.4576 223.37 64.1943 214.934 64.1943 205.407H97.3897C97.3897 213.148 99.2756 218.871 103.048 222.576C106.883 226.215 113.076 228.035 121.626 228.035C127.095 228.035 131.402 226.811 134.546 224.362C137.752 221.848 139.355 218.342 139.355 213.843Z" fill="#B4CF72"/>
<path d="M189.431 252.25V107.75H238.752C256.418 107.75 269.841 111.158 279.02 117.972C288.262 124.787 292.883 134.678 292.883 147.646C292.883 155.123 291.248 161.507 287.979 166.8C284.71 172.093 279.9 175.997 273.55 178.511C280.718 180.496 286.219 184.201 290.054 189.627C293.889 195.052 295.806 201.668 295.806 209.476C295.806 223.634 291.531 234.287 282.981 241.432C274.494 248.511 261.888 252.117 245.165 252.25H189.431ZM222.532 190.817V225.454H244.222C250.194 225.454 254.784 224.031 257.99 221.186C261.197 218.275 262.8 214.206 262.8 208.979C262.8 196.938 257.11 190.884 245.731 190.817H222.532ZM222.532 167.991H239.789C247.019 167.925 252.175 166.536 255.255 163.823C258.336 161.11 259.876 157.108 259.876 151.815C259.876 145.728 258.21 141.361 254.878 138.714C251.546 136.002 246.171 134.645 238.752 134.645H222.532V167.991Z" fill="#B4CF72"/>
</svg>
