<svg width="132" height="88" viewBox="0 0 132 88" fill="none" xmlns="http://www.w3.org/2000/svg">
<path d="M65.9926 55.2068L78.5133 47.9788L65.9926 40.75L53.4727 47.9788L65.9926 55.2068Z" fill="#F59C18"/>
<path d="M67.2441 38.5669V24.1094L79.7648 31.3381V45.7957L67.2441 38.5669Z" fill="#7C47AD"/>
<path d="M64.7394 24.1094L52.2188 31.3381V45.7957L64.7394 38.5669V24.1094Z" fill="#3CA350"/>
<path d="M65.9917 6.05078L38.4414 21.935L50.9621 29.1637L65.9917 20.5083L81.0178 29.1799L93.5378 21.9518L65.9917 6.05078Z" fill="#F59C18"/>
<path d="M37.1953 73.2741L49.716 80.5029L49.7097 63.1604L64.7294 71.8446V57.3871L49.7181 48.6986L49.716 31.3499L37.1953 24.1211V73.2741Z" fill="#D54036"/>
<path d="M94.7881 55.9225L94.8071 24.1211L82.2864 31.3499L82.2674 48.6944L67.2441 57.3709V71.8278L94.7881 55.9225Z" fill="#3D8CBD"/>
<path d="M64.7426 74.721L52.2227 81.9497V67.4922L64.7426 74.721Z" fill="#3CA350"/>
<path style="mix-blend-mode:overlay" opacity="0.2" d="M65.9926 55.2068L78.5133 47.9788L65.9926 40.75L53.4727 47.9788L65.9926 55.2068Z" fill="url(#paint0_linear_2056_24340)"/>
<path style="mix-blend-mode:overlay" opacity="0.2" d="M67.2441 38.5669V24.1094L79.7648 31.3381V45.7957L67.2441 38.5669Z" fill="url(#paint1_linear_2056_24340)"/>
<path style="mix-blend-mode:overlay" opacity="0.2" d="M64.7394 24.1094L52.2188 31.3381V45.7957L64.7394 38.5669V24.1094Z" fill="url(#paint2_linear_2056_24340)"/>
<path style="mix-blend-mode:overlay" opacity="0.2" d="M65.9917 6.05078L38.4414 21.935L50.9621 29.1637L65.9917 20.5083L81.0178 29.1799L93.5378 21.9518L65.9917 6.05078Z" fill="url(#paint3_linear_2056_24340)"/>
<path style="mix-blend-mode:overlay" opacity="0.2" d="M37.1953 73.2741L49.716 80.5029L49.7097 63.1604L64.7294 71.8446V57.3871L49.7181 48.6986L49.716 31.3499L37.1953 24.1211V73.2741Z" fill="url(#paint4_linear_2056_24340)"/>
<path style="mix-blend-mode:overlay" opacity="0.2" d="M94.7881 55.9225L94.8071 24.1211L82.2864 31.3499L82.2674 48.6944L67.2441 57.3709V71.8278L94.7881 55.9225Z" fill="url(#paint5_linear_2056_24340)"/>
<path style="mix-blend-mode:overlay" opacity="0.2" d="M64.7426 74.721L52.2227 81.9497V67.4922L64.7426 74.721Z" fill="url(#paint6_linear_2056_24340)"/>
<defs>
<linearGradient id="paint0_linear_2056_24340" x1="71.8215" y1="43.0874" x2="60.0914" y2="52.9305" gradientUnits="userSpaceOnUse">
<stop stop-color="white"/>
<stop offset="1"/>
</linearGradient>
<linearGradient id="paint1_linear_2056_24340" x1="77.8308" y1="31.3227" x2="69.1241" y2="38.6281" gradientUnits="userSpaceOnUse">
<stop stop-color="white"/>
<stop offset="1"/>
</linearGradient>
<linearGradient id="paint2_linear_2056_24340" x1="65.6292" y1="28.9529" x2="51.2398" y2="41.0273" gradientUnits="userSpaceOnUse">
<stop stop-color="white"/>
<stop offset="1"/>
</linearGradient>
<linearGradient id="paint3_linear_2056_24340" x1="78.8111" y1="11.1846" x2="53.0079" y2="32.8365" gradientUnits="userSpaceOnUse">
<stop stop-color="white"/>
<stop offset="1"/>
</linearGradient>
<linearGradient id="paint4_linear_2056_24340" x1="55.5287" y1="44.1517" x2="33.1839" y2="62.9011" gradientUnits="userSpaceOnUse">
<stop stop-color="white"/>
<stop offset="1"/>
</linearGradient>
<linearGradient id="paint5_linear_2056_24340" x1="97.7264" y1="35.9257" x2="66.0628" y2="62.4949" gradientUnits="userSpaceOnUse">
<stop stop-color="white"/>
<stop offset="1"/>
</linearGradient>
<linearGradient id="paint6_linear_2056_24340" x1="59.2497" y1="70.4635" x2="50.543" y2="77.7689" gradientUnits="userSpaceOnUse">
<stop stop-color="white"/>
<stop offset="1"/>
</linearGradient>
</defs>
</svg>
