<svg width="132" height="88" viewBox="0 0 132 88" fill="none" xmlns="http://www.w3.org/2000/svg">
<path d="M66.0054 20.4843C70.6967 20.4932 75.28 21.8858 79.1745 24.4858C83.0691 27.0857 86.0998 30.7762 87.8828 35.0897C89.6658 39.4031 90.1211 44.1456 89.1907 48.7164C88.2603 53.2872 85.9862 57.4807 82.6565 60.7659C79.3268 64.0509 75.0911 66.2798 70.4861 67.1703C65.8811 68.0607 61.1138 67.5727 56.788 65.7678C52.4623 63.9631 48.7726 60.9227 46.1864 57.032C43.6002 53.1411 42.2338 48.5748 42.2602 43.9115C42.3071 37.682 44.8296 31.7235 49.2776 27.3352C53.7256 22.9467 59.7384 20.4842 66.0054 20.4843ZM66.0054 12.0859C59.6556 12.0859 53.4485 13.9577 48.1688 17.4644C42.8892 20.9712 38.7742 25.9554 36.3443 31.787C33.9143 37.6185 33.2785 44.0354 34.5173 50.226C35.7561 56.4167 38.8138 62.1032 43.3038 66.5665C47.7937 71.0298 53.5143 74.0693 59.7421 75.3006C65.9699 76.532 72.4251 75.9 78.2915 73.4845C84.1579 71.0691 89.1721 66.9786 92.6998 61.7303C96.2276 56.4821 98.1104 50.3119 98.1104 43.9999C98.1104 35.5358 94.7281 27.4183 88.7072 21.4333C82.6863 15.4483 74.5203 12.0859 66.0054 12.0859Z" fill="#F1F1F1"/>
<path d="M66.3158 75.7382C63.2731 75.7322 60.2422 75.3612 57.2891 74.6331C56.7547 74.5025 56.2515 74.2685 55.8081 73.9446C55.3648 73.6207 54.99 73.2132 54.7051 72.7452C54.4202 72.2773 54.2307 71.7581 54.1477 71.2175C54.0646 70.6768 54.0894 70.1252 54.2208 69.594C54.3522 69.0628 54.5875 68.5627 54.9134 68.122C55.2392 67.6813 55.6493 67.3086 56.12 67.0254C56.5907 66.7422 57.113 66.5539 57.6569 66.4713C58.2007 66.3888 58.7557 66.4135 59.2901 66.5441C69.5174 69.0194 76.4098 65.8368 80.4118 62.6984C86.0591 58.2783 89.7498 50.9849 89.7498 44.0452C89.7295 38.3463 87.6279 32.8486 83.8357 28.5744L89.9722 22.8281C95.2006 28.6718 98.0816 36.2246 98.0652 44.0452C98.0652 53.5928 93.3071 63.2289 85.6144 69.2404C80.0935 73.5221 73.2734 75.8131 66.2713 75.7382H66.3158Z" fill="#93DBE7"/>
<path d="M81.0346 25.7883C77.0325 22.6941 72.3636 20.484 66.0048 20.484C62.6002 20.5018 59.2374 21.2311 56.1348 22.6247C53.0322 24.0183 50.2591 26.045 47.9957 28.573C44.7941 32.1977 41.3257 38.4301 42.5263 47.7126C42.6785 48.8026 42.3893 49.9082 41.7224 50.7866C41.0555 51.665 40.0652 52.2445 38.969 52.398C38.7617 52.4131 38.5537 52.4131 38.3464 52.398C37.3454 52.3985 36.3774 52.0418 35.6184 51.393C34.8595 50.744 34.3601 49.8459 34.211 48.8618C32.877 39.1374 35.545 30.0317 41.6814 23.092C44.4858 19.8905 47.903 17.2757 51.7338 15.3998C55.5646 13.5239 59.7326 12.4243 63.9952 12.1652C68.2576 11.906 72.5294 12.4924 76.5617 13.8903C80.5941 15.2881 84.3063 17.4694 87.4822 20.3072" fill="#64FA8F"/>
<path d="M35.9459 73.7471C35.0898 73.7432 34.2555 73.478 33.5559 72.9876C32.8563 72.4971 32.3251 71.8049 32.0341 71.0045C31.743 70.2041 31.7063 69.3343 31.9287 68.5126C32.1512 67.6908 32.6221 66.9567 33.2779 66.4096L93.3081 15.4887C94.1572 14.7735 95.2573 14.423 96.3664 14.5142C97.4755 14.6054 98.5028 15.1308 99.2222 15.9749C99.9415 16.8189 100.294 17.9125 100.202 19.015C100.111 20.1175 99.5821 21.1387 98.7331 21.8538L38.7028 72.6862C37.9381 73.3458 36.9584 73.7072 35.9459 73.7028V73.7471Z" fill="#FF6464"/>
</svg>
