<svg width="132" height="88" viewBox="0 0 132 88" fill="none" xmlns="http://www.w3.org/2000/svg">
<path d="M68.2246 71.2325V16.7461H79.7444V39.227H103.13V16.7461H114.623V71.2325H103.13V48.7249H79.7444V71.2325H68.2246Z" fill="#1A1B1F"/>
<path d="M48.6907 32.4151C48.4778 30.269 47.5644 28.6017 45.9504 27.4134C44.3364 26.2251 42.1459 25.6309 39.379 25.6309C37.499 25.6309 35.9115 25.8969 34.6168 26.429C33.322 26.9434 32.3288 27.6617 31.6371 28.584C30.9631 29.5063 30.6261 30.5528 30.6261 31.7234C30.5906 32.6989 30.7946 33.5502 31.238 34.2774C31.6991 35.0046 32.3288 35.6343 33.1269 36.1663C33.9251 36.6807 34.8474 37.133 35.8938 37.5232C36.9403 37.8956 38.0577 38.2149 39.246 38.481L44.1413 39.6516C46.5179 40.1837 48.6995 40.8931 50.686 41.7799C52.6725 42.6668 54.3929 43.7575 55.8473 45.0523C57.3017 46.3471 58.428 47.8724 59.2261 49.6283C60.042 51.3842 60.4588 53.3973 60.4765 55.6676C60.4588 59.002 59.6074 61.8931 57.9225 64.3407C56.2553 66.7706 53.8431 68.6595 50.686 70.0075C47.5467 71.3377 43.7599 72.0028 39.3258 72.0028C34.9272 72.0028 31.0961 71.3289 27.8326 69.9809C24.5868 68.6329 22.0505 66.6376 20.2237 63.9948C18.4145 61.3344 17.4656 58.0443 17.377 54.1245H28.5243C28.6485 55.9514 29.1717 57.4767 30.094 58.7005C31.034 59.9066 32.2844 60.82 33.8452 61.4408C35.4238 62.0438 37.2063 62.3453 39.1928 62.3453C41.1438 62.3453 42.8376 62.0616 44.2743 61.494C45.7287 60.9264 46.8549 60.1372 47.6531 59.1262C48.4512 58.1152 48.8503 56.9535 48.8503 55.641C48.8503 54.4172 48.4867 53.3884 47.7595 52.5548C47.05 51.7212 46.0036 51.0118 44.6201 50.4265C43.2544 49.8412 41.5783 49.3091 39.5919 48.8302L33.659 47.3403C29.0653 46.2229 25.4382 44.4759 22.7777 42.0992C20.1172 39.7225 18.7959 36.5211 18.8136 32.4949C18.7959 29.1959 19.6738 26.3137 21.4475 23.8484C23.2389 21.383 25.6953 19.4586 28.817 18.0752C31.9386 16.6917 35.4859 16 39.4588 16C43.5027 16 47.0323 16.6917 50.0475 18.0752C53.0804 19.4586 55.4394 21.383 57.1243 23.8484C58.8093 26.3137 59.6784 29.1693 59.7316 32.4151H48.6907Z" fill="#1A1B1F"/>
</svg>
