<svg width="132" height="88" viewBox="0 0 132 88" fill="none" xmlns="http://www.w3.org/2000/svg">
<path fill-rule="evenodd" clip-rule="evenodd" d="M65.9766 44.0008L76.6735 50.1553L65.9766 56.3211L55.3266 50.1608L65.9766 44.0008ZM87.2924 31.663L97.9472 37.8175V50.1696L87.2924 44.0344V31.663ZM55.3266 13.1562V25.5277L44.6715 31.663V19.3107L55.3266 13.1562ZM44.6715 56.3387L34.0156 50.1842V37.8318L44.6715 43.9673V56.3387ZM76.6314 25.4942L65.9815 19.3339L76.6325 13.1743L87.3295 19.3396L76.6314 25.4942ZM55.3214 62.5075L66.0184 68.662L55.3214 74.827L44.6715 68.6681L55.3214 62.5075ZM76.6375 74.8451V62.474L87.2924 56.3387V68.6909L76.6375 74.8451Z" fill="#624DE3"/>
<path fill-rule="evenodd" clip-rule="evenodd" d="M65.9804 31.663V44.0341L76.6364 50.1696V37.8175L65.9804 31.663Z" fill="#AB9FF4"/>
<path fill-rule="evenodd" clip-rule="evenodd" d="M65.9815 31.663V44.0341L55.3255 50.1696V37.8175L65.9815 31.663Z" fill="#8D7CF6"/>
<path fill-rule="evenodd" clip-rule="evenodd" d="M87.2874 44.0008L97.9844 50.1553L87.2874 56.3211L76.6375 50.1608L87.2874 44.0008ZM44.6665 44.0008L34.0156 37.8406L44.6665 31.6806L55.3635 37.8463L44.6665 44.0008ZM76.6375 37.8318V25.4612L87.2924 19.3256V31.6773L76.6375 37.8318ZM55.3266 50.1696V62.5405L44.6715 68.676V56.3247L55.3266 50.1696ZM76.6375 74.8451L65.9815 68.6909V56.3387L76.6375 62.474V74.8451ZM55.3266 13.1562L65.9815 19.3107V31.663L55.3266 25.5277V13.1562Z" fill="#AB9FF4"/>
</svg>
