<svg width="132" height="88" viewBox="0 0 132 88" fill="none" xmlns="http://www.w3.org/2000/svg">
<path fill-rule="evenodd" clip-rule="evenodd" d="M99.5141 35.3554C99.5141 56.7871 82.1403 74.1609 60.7085 74.1609H50.6543C48.2189 74.1609 46.2446 72.1867 46.2446 69.7512C46.2446 67.3158 48.2189 65.3415 50.6543 65.3415H51.3599C53.6005 65.3415 55.4168 63.5251 55.4168 61.2845C55.4168 59.044 53.6005 57.2276 51.3599 57.2276H50.3016C47.6713 57.2276 45.5391 55.0953 45.5391 52.4651C45.5391 49.8349 47.6713 47.7026 50.3016 47.7026H56.7839C59.3411 47.7026 61.4141 45.6296 61.4141 43.0724L61.4269 32.1805C61.798 21.9863 70.1792 13.8359 80.4641 13.8359C90.8673 13.8359 99.3227 22.1749 99.5109 32.5332L99.5141 35.3554Z" fill="white" stroke="black" stroke-width="3.025" stroke-linecap="round"/>
<path d="M32.4863 36.0624H49.4197M42.3641 30.418H48.0085M36.3669 30.418H37.778" stroke="#4AA3EB" stroke-width="3.025" stroke-linecap="round"/>
<path d="M89.9895 34.2953C91.743 34.2953 93.1645 32.8738 93.1645 31.1203C93.1645 29.3668 91.743 27.9453 89.9895 27.9453C88.2359 27.9453 86.8145 29.3668 86.8145 31.1203C86.8145 32.8738 88.2359 34.2953 89.9895 34.2953Z" fill="black"/>
<path d="M80.8176 34.2953C82.5711 34.2953 83.9926 32.8738 83.9926 31.1203C83.9926 29.3668 82.5711 27.9453 80.8176 27.9453C79.0641 27.9453 77.6426 29.3668 77.6426 31.1203C77.6426 32.8738 79.0641 34.2953 80.8176 34.2953Z" fill="black"/>
</svg>
