<svg width="132" height="88" viewBox="0 0 132 88" fill="none" xmlns="http://www.w3.org/2000/svg">
<path fill-rule="evenodd" clip-rule="evenodd" d="M29.9746 44.0016C29.9746 63.9155 46.181 80.0516 66.0451 80.0265C85.8561 80.0015 102 63.9075 102.025 44.047C102.05 24.1333 85.8637 7.97656 65.9996 7.97656C46.1532 7.97656 29.9746 24.1055 29.9746 44.0016ZM66.1368 24.7461C65.7056 24.8345 64.9775 25.1493 64.5187 25.4458C63.31 26.227 53.8586 35.819 53.2498 36.8824C52.6112 37.9979 52.0884 39.8756 52.0884 41.0532C52.0884 45.5229 55.9758 49.4827 60.3942 49.5139C61.7998 49.5238 61.9864 49.2857 61.2719 48.3945C60.5111 47.4455 60.2872 46.5845 60.5463 45.6039C60.7228 44.9345 61.4909 44.0881 66.4764 39.0674C70.6755 34.8387 72.3013 33.0833 72.5697 32.4887C73.0672 31.3866 73.0794 29.1113 72.5938 28.0387C72.1264 27.0065 70.8795 25.6929 69.8945 25.1946C68.949 24.7162 67.264 24.5153 66.1368 24.7461ZM70.7862 37.6724C70.0387 37.7951 69.9988 38.0121 70.5885 38.7476C71.3375 39.682 71.5521 40.4725 71.3087 41.4006C71.1456 42.0225 70.2001 43.0571 64.9583 48.3496C57.9563 55.419 57.9394 55.4421 57.9466 57.812C57.9539 60.159 58.9654 61.8248 61.015 62.8644C61.8834 63.3049 62.2717 63.3909 63.4074 63.3946C65.8428 63.4028 66.0618 63.2424 72.5749 56.679C77.5261 51.6897 78.3191 50.8141 78.8116 49.7915C79.7945 47.7508 79.989 46.0898 79.4858 44.0354C78.9781 41.9632 77.6142 40.0212 75.9098 38.9436C74.4945 38.0485 72.1059 37.4559 70.7862 37.6724Z" fill="black" fill-opacity="0.884"/>
</svg>
