<svg width="132" height="88" viewBox="0 0 132 88" fill="none" xmlns="http://www.w3.org/2000/svg">
<path fill-rule="evenodd" clip-rule="evenodd" d="M65.9992 80.2992C86.0472 80.2992 102.299 64.0472 102.299 43.9992C102.299 23.9513 86.0472 7.69922 65.9992 7.69922C45.9513 7.69922 29.6992 23.9513 29.6992 43.9992C29.6992 64.0472 45.9513 80.2992 65.9992 80.2992ZM72.6442 34.7759L70.151 32.3035L54.1406 48.1796C53.0591 49.2513 51.5926 49.853 50.0636 49.8525C48.5347 49.852 47.0686 49.2492 45.9878 48.1767C44.9071 47.1043 44.3002 45.6501 44.3007 44.1339C44.3013 42.6178 44.9091 41.164 45.9907 40.0923L59.803 26.3958L57.3098 23.9234L43.4974 37.62C42.6181 38.4717 41.9179 39.4879 41.4375 40.6098C40.9571 41.7317 40.7059 42.937 40.6986 44.1559C40.6913 45.3747 40.9279 46.5829 41.3948 47.7105C41.8616 48.838 42.5495 49.8625 43.4184 50.7245C44.2874 51.5866 45.3203 52.2691 46.4571 52.7325C47.594 53.196 48.8123 53.4311 50.0415 53.4244C51.2706 53.4176 52.4862 53.1691 53.6179 52.6932C54.7495 52.2173 55.7746 51.5235 56.6339 50.6519L72.6442 34.7759ZM88.5807 37.62C86.8359 35.8956 84.473 34.9274 82.0096 34.9274C79.5462 34.9274 77.1833 35.8956 75.4385 37.62L59.4282 53.496L61.9215 55.9683L77.9318 40.0923C78.7383 39.2942 79.7652 38.7509 80.8829 38.5312C82.0006 38.3115 83.1589 38.4251 84.2115 38.8578C85.2641 39.2905 86.1637 40.0228 86.7968 40.9622C87.4299 41.9016 87.7681 43.0061 87.7686 44.1359C87.7715 44.8886 87.6222 45.6343 87.3296 46.3288C87.0369 47.0234 86.6068 47.6527 86.0647 48.1796L72.2694 61.8761L74.7683 64.3484L88.5807 50.6519C90.321 48.9225 91.2984 46.5791 91.2984 44.1359C91.2984 41.6928 90.321 39.3494 88.5807 37.62ZM51.2763 45.4087L67.2809 29.5552C68.3622 28.4888 69.8252 27.8901 71.3503 27.8901C72.8753 27.8901 74.3383 28.4888 75.4196 29.5552L76.6634 30.7886L79.1566 28.3162L77.9128 27.0772C76.1688 25.3515 73.8056 24.3823 71.3417 24.3823C68.8779 24.3823 66.5147 25.3515 64.7706 27.0772L48.7774 42.9364L51.2763 45.4087ZM64.7864 58.7333L80.7967 42.8629L83.29 45.324L67.2797 61.2057C65.5349 62.93 63.1719 63.8983 60.7086 63.8983C58.2452 63.8983 55.8822 62.93 54.1375 61.2057L52.8937 59.9667L55.3869 57.4943L56.6307 58.7333C57.7134 59.8036 59.1798 60.4045 60.7086 60.4045C62.2373 60.4045 63.7037 59.8036 64.7864 58.7333Z" fill="black"/>
</svg>
