<svg width="132" height="88" viewBox="0 0 132 88" fill="none" xmlns="http://www.w3.org/2000/svg">
<path d="M99.2746 44.0043L99.219 44.6172L99.0526 45.5461L98.7755 46.6442L98.3928 47.8642L97.9018 49.1731L97.3057 50.5567L96.6126 51.9932L95.8169 53.4683L94.9294 54.9738L93.9563 56.4935L92.8968 58.0189L91.7601 59.5353L90.5484 61.0412L89.2726 62.5219L87.9364 63.9694L86.5498 65.3779L85.1189 66.7369L83.6492 68.0371L82.1546 69.2768L80.6406 70.4442L79.1156 71.5366L77.5959 72.5487L76.0848 73.4723L74.5955 74.3041L73.1399 75.0415L71.734 75.6794L70.3919 76.2118L69.1302 76.6415L67.9795 76.9633L66.9701 77.1739L66.1882 77.2766L65.7001 77.2684L64.8683 77.1463L63.834 76.9162L62.661 76.5778L61.3855 76.1314L60.0295 75.5767L58.6153 74.925L57.154 74.171L55.6594 73.3225L54.1454 72.3851L52.6203 71.3593L51.1007 70.2527L49.5867 69.0714L48.0977 67.8236L46.6336 66.5093L45.2083 65.1421L43.8301 63.728L42.5047 62.2752L41.2403 60.7888L40.0396 59.2833L38.9165 57.7608L37.8712 56.2358L36.9089 54.719L36.0382 53.2187L35.2618 51.749L34.5825 50.3183L34.0057 48.9485L33.5343 47.6507L33.1655 46.45L32.9076 45.3769L32.7607 44.4841L32.7246 43.9489L32.7995 43.2501L32.9825 42.2879L33.2764 41.1676L33.6785 39.9309L34.1887 38.6083L34.7987 37.2162L35.5114 35.7716L36.3211 34.288L37.2223 32.7823L38.2122 31.26L39.2853 29.7349L40.4361 28.2181L41.6562 26.718L42.9428 25.24L44.2877 23.7981L45.6852 22.4005L47.1216 21.0501L48.594 19.7607L50.0942 18.5323L51.6109 17.376L53.1361 16.2946L54.6556 15.2991L56.1641 14.3896L57.6503 13.5743L59.0978 12.8534L60.4926 12.2323L61.8236 11.7165L63.0687 11.3061L64.1972 11.0011L65.1761 10.807L65.9025 10.7266L66.4183 10.7543L67.2918 10.8929L68.3511 11.1425L69.5434 11.5002L70.8328 11.9633L72.1998 12.5345L73.6253 13.2056L75.0922 13.9736L76.5896 14.8388L78.106 15.7927L79.6314 16.8298L81.1507 17.95L82.6623 19.1424L84.1483 20.404L85.6043 21.724L87.0209 23.0993L88.3937 24.5218L89.708 25.9832L90.9644 27.4722L92.1509 28.9835L93.26 30.5058L94.2943 32.0309L95.2374 33.5449L96.0969 35.0423L96.8565 36.5064L97.5167 37.9261L98.0767 39.2848L98.5344 40.5687L98.881 41.7499L99.1192 42.7981L99.2495 43.6494L99.2718 44.0043H99.2746Z" fill="#4D3DF7"/>
<path d="M47.332 39.9282C48.8571 33.434 58.1021 33.4784 59.8102 39.9282M72.2883 39.9282C73.8133 33.434 83.0584 33.4784 84.7664 39.9282" stroke="white" stroke-width="1.65"/>
</svg>
