<svg width="132" height="88" viewBox="0 0 132 88" fill="none" xmlns="http://www.w3.org/2000/svg">
<path d="M65.9991 75.6154C83.4602 75.6154 97.6154 61.4602 97.6154 43.9991C97.6154 26.5379 83.4602 12.3828 65.9991 12.3828C48.5379 12.3828 34.3828 26.5379 34.3828 43.9991C34.3828 61.4602 48.5379 75.6154 65.9991 75.6154Z" fill="#40403F" stroke="#4A494A" stroke-width="1.925"/>
<path d="M44.6998 30.7919L43.7676 29.5801L45.6009 28.446C45.1506 29.1618 44.8445 29.9587 44.6998 30.7919ZM52.7942 44.9766L52.3591 45.0076C52.0639 45.0387 51.5668 44.9144 51.225 45.0232L51.4425 46.1262L52.934 45.6757C52.9024 45.4399 52.8557 45.2064 52.7942 44.9766ZM52.2504 55.0908L51.9707 55.4325L51.9086 56.2713L52.1882 56.1938C52.6155 56.056 53.0515 55.9471 53.4933 55.8674L53.5865 54.1273C53.0866 54.3651 52.6339 54.6915 52.2504 55.0908ZM82.8414 24.4687C78.1625 22.6802 73.1996 21.7487 68.1906 21.7188C61.8829 21.7188 55.8393 23.2724 50.0443 26.0534C50.8836 26.1486 51.7081 26.3469 52.499 26.6437C53.7108 26.1155 54.9071 25.665 56.1189 25.261C60.0107 23.9571 64.0863 23.2857 68.1906 23.2724C72.4438 23.2953 76.6662 23.9981 80.6974 25.3542C77.6522 31.8795 75.8032 37.7832 75.0576 43.3608C74.6251 46.4704 74.5625 49.6203 74.8712 52.7447C75.164 55.4134 75.7582 58.0402 76.6425 60.5751C71.36 63.6512 66.2797 65.1428 61.1527 65.1428C58.2191 65.1314 55.307 64.6435 52.5301 63.6978C51.932 63.9377 51.2945 64.064 50.6502 64.0708L50.5103 64.6143C53.8943 65.9749 57.5055 66.6811 61.1527 66.6964C67.1963 66.6964 72.9913 64.6922 78.5533 61.2431C74.0633 49.9016 76.3784 37.7056 82.8414 24.4687ZM49.0499 36.4472C48.7547 35.8412 48.444 35.2509 48.1177 34.6605C48.009 34.8469 47.8847 35.2819 47.6672 35.4528L48.242 36.5559C48.5089 36.5034 48.7787 36.4671 49.0499 36.4472Z" fill="#E17926"/>
<path d="M75.8183 43.4545C76.5953 37.7527 78.5371 31.6625 81.7688 24.9042C77.4113 23.3391 72.8199 22.5249 68.1901 22.4961C62.6125 22.4961 56.9729 23.7701 51.3798 26.3025C53.1163 26.7341 54.7047 27.6249 55.9785 28.8815L56.1961 29.1146C56.4209 29.3152 56.5963 29.5651 56.7087 29.8447C56.7817 30.191 56.7603 30.5506 56.6466 30.8857C56.2874 32.0758 55.4719 33.0756 54.3783 33.6667C53.1043 34.3503 51.6595 34.2104 50.2767 33.9153C49.8883 33.8376 49.4688 33.7599 49.0649 33.8531C48.6609 33.9463 48.3502 34.257 48.1172 34.6455C48.4435 35.2358 48.7542 35.8262 49.0494 36.4321C49.659 36.3799 50.2709 36.3591 50.8827 36.37C52.4518 36.3544 54.021 36.2457 55.5746 36.4943C56.2927 36.5838 56.9971 36.7612 57.672 37.0225C57.9393 37.1159 58.1869 37.2581 58.4022 37.442H58.4177C58.6593 37.6956 58.8447 37.9973 58.9615 38.3275C59.9714 41.093 57.905 43.5322 55.4192 44.4177C54.4319 44.7552 53.4011 44.9488 52.3586 44.9926C52.2445 45.0023 52.1296 44.9971 52.0168 44.9771L52.1877 45.8782C52.7625 45.7073 53.3374 45.5364 53.9278 45.3965C54.7604 45.1809 55.6064 45.02 56.4602 44.9149C57.1127 44.8528 58.1381 44.6197 58.6663 45.1169C58.946 45.3655 59.1013 45.7384 59.2567 46.0957C59.5322 46.7147 59.7759 47.3473 59.9869 47.9911C60.1639 48.5048 60.2275 49.0507 60.1733 49.5914C60.0335 50.4925 59.3499 51.2382 58.5731 51.7354C57.1282 52.6675 55.4503 53.1801 53.9278 53.9261C53.529 54.1207 53.1448 54.344 52.7781 54.5941L52.7004 56.0235C54.5431 55.5504 56.4647 55.4712 58.3401 55.7903C58.6901 55.8404 59.0275 55.9565 59.3344 56.132C59.8937 56.4741 60.1733 57.1421 60.1733 57.7945C60.1733 58.4468 59.9092 59.0687 59.5829 59.6278C58.6403 61.1139 57.2218 62.2364 55.559 62.8128C54.7667 63.0922 53.9433 63.2011 53.1665 63.4652C52.6074 63.6738 52.0368 63.8501 51.4575 63.9934C51.4527 64.0362 51.4423 64.0777 51.4264 64.1176C54.5385 65.2786 57.8306 65.8835 61.1521 65.9042C66.6054 65.9042 71.9809 64.2731 77.5893 60.9015C75.5424 55.3275 74.933 49.3267 75.8183 43.4545Z" fill="#F78F20"/>
<path d="M65.9682 37.9879C67.1179 37.8015 68.2675 36.2634 68.6094 34.4301C68.9511 32.5968 67.817 31.0743 66.0614 31.2297C64.3058 31.385 63.2649 33.1562 63.529 35.005C63.7931 36.8538 64.8185 38.1589 65.9682 37.9879Z" fill="#FDCDA0"/>
<path d="M72.0587 48.0687C68.8117 45.9868 67.3357 42.4445 64.8033 38.8867C62.3952 43.2369 61.4319 47.7268 58.4023 51.1759C63.4206 51.4245 67.8794 49.9796 72.0587 48.0687Z" fill="#E17827"/>
<path d="M68.1123 54.2071C63.9642 50.4009 62.3795 44.637 56.2271 41.2656C57.1593 46.5635 57.2991 51.1933 53.9277 55.0774C59.179 56.3359 63.8244 55.6831 68.1123 54.2071Z" fill="#C86228"/>
<path d="M73.1932 49.7473C66.9165 52.5127 60.3291 54.2527 53.0581 53.041C54.2389 46.1584 53.2291 39.5555 48.5371 33.543C56.5383 29.8298 65.5649 27.546 76.0676 29.3015C72.7582 36.5881 71.2822 43.3774 73.1932 49.7473Z" stroke="#E17827" stroke-width="1.1" stroke-miterlimit="10"/>
<path opacity="0.5" d="M57.2992 29.9706C57.2976 29.8673 57.271 29.7661 57.2215 29.6754L57.1594 29.5977C57.004 29.4734 56.7709 29.4579 56.5845 29.3958L56.3204 29.287L56.2272 29.1938C54.6443 27.5692 52.5579 26.5287 50.3079 26.2419C49.7763 26.1561 49.2333 26.1719 48.7076 26.2885C46.3927 26.8789 44.5439 29.9395 44.8546 32.2389C45.0566 33.7148 46.1286 34.6004 47.2472 35.4549C47.3368 35.5309 47.4434 35.5842 47.558 35.6103C47.9153 35.6569 48.0862 34.9888 48.2415 34.7713C48.3969 34.5538 48.7076 34.0877 49.1892 33.9945C49.6004 33.9404 50.0184 33.9721 50.4166 34.0877C51.7838 34.414 53.2287 34.5693 54.5182 33.9168C54.9063 33.73 55.2627 33.4836 55.5747 33.1866C55.6558 33.155 55.7297 33.1074 55.7922 33.0468C56.0236 32.8773 56.2418 32.6903 56.4447 32.4875L56.7709 32.1612C57.038 31.814 57.2045 31.4002 57.2526 30.9649C57.3068 30.6364 57.3225 30.3027 57.2992 29.9706ZM66.0306 42.2598C66.0729 42.1368 66.1249 42.0173 66.1859 41.9025C67.0715 39.8206 68.594 38.1116 70.1322 36.4803C71.6703 34.849 73.1617 33.5129 75.2279 33.0002C76.6517 32.7253 78.1167 32.7465 79.5316 33.0623C80.3862 33.2177 81.3492 33.2798 82.1419 33.6838C82.9341 34.0877 83.5246 34.9267 84.0061 35.6569C85.4338 37.8653 86.7258 40.1585 87.8745 42.5239C88.6049 43.9688 89.4437 45.4292 89.4437 47.076C89.4094 48.1106 89.2318 49.1354 88.9156 50.1211C88.1233 52.7778 86.9733 55.3723 85.8238 57.8736C84.6742 60.375 83.2915 62.6122 81.0385 64.0882C77.7449 66.2632 73.5657 65.8592 69.868 65.331C69.2466 65.2378 63.9953 64.7253 63.9487 64.2281C63.9177 63.9797 65.6111 63.4202 65.8441 63.3116C68.0736 62.36 70.0211 60.8514 71.4994 58.9304C72.0262 58.1987 72.3868 57.3611 72.5558 56.4756C72.7889 55.1705 73.1928 53.8963 73.923 52.7934C74.6532 51.6903 75.6475 50.9135 75.6475 49.4997C75.6475 49.0025 75.5386 48.5209 75.5852 48.0238C75.6319 47.5266 75.865 47.0139 76.3313 46.843C76.7971 46.6721 76.9527 46.7653 77.1078 46.5167C77.1714 46.4143 77.204 46.2955 77.2011 46.1749C77.4024 44.899 77.8738 43.6807 78.5838 42.6016C77.3032 44.5634 75.3983 46.0359 73.1773 46.7808C71.8101 47.3246 70.3031 47.6819 68.8582 47.4023C67.4133 47.1227 66.0306 46.0817 65.7354 44.6368C65.6006 43.8326 65.7032 43.0066 66.0306 42.2598ZM59.5053 39.9294C59.5183 39.8159 59.5234 39.7017 59.5209 39.5875C59.5402 39.1181 59.4717 38.6491 59.3189 38.2048C59.2885 38.0907 59.2339 37.9845 59.1589 37.8934C59.0838 37.8022 58.99 37.7283 58.8839 37.6766C58.8213 37.645 58.752 37.629 58.6819 37.63C58.4705 37.4489 58.2285 37.3068 57.9672 37.2105C57.2879 36.9636 56.5851 36.7867 55.8699 36.6823C54.3162 36.4337 52.747 36.558 51.1779 36.558C49.6087 36.558 48.1794 36.558 46.8744 37.3348C45.5693 38.1116 44.8702 39.6031 44.6061 40.9703C44.3419 42.3375 44.575 43.6425 45.3363 44.699C45.9465 45.4776 46.7915 46.0387 47.7459 46.299C48.7003 46.5593 49.7131 46.5049 50.6341 46.1439C50.7611 46.1014 50.8775 46.0326 50.9759 45.9419C51.1002 45.8021 51.1313 45.6001 51.2245 45.4292C51.4575 44.9786 52.2344 45.2117 52.6383 45.1961C53.6792 45.1385 54.7081 44.9453 55.6989 44.6213C57.0817 44.1241 58.3401 43.1453 59.0082 41.9025C59.1141 41.8615 59.2021 41.7845 59.2568 41.685C59.2971 41.6004 59.3284 41.5119 59.35 41.4208C59.4143 41.0979 59.4558 40.7708 59.4743 40.4421C59.5001 40.2725 59.5105 40.1008 59.5053 39.9294ZM61.4629 48.2879C61.4328 47.6515 61.246 47.0325 60.9191 46.4856C60.6861 46.1283 60.5618 45.7399 60.1268 45.6778C59.8643 45.6809 59.6033 45.7174 59.35 45.7865C59.2748 45.6364 59.175 45.4999 59.0548 45.3826C58.5576 44.8854 57.5167 45.0719 56.8642 45.1185C56.0071 45.1987 55.1561 45.3336 54.3162 45.5224C52.6399 45.8837 50.9935 46.3719 49.3912 46.9828C47.993 47.5266 46.4704 48.0393 45.4295 49.1734C45.0411 49.6084 44.373 50.4163 44.2487 50.9912C43.8293 52.871 44.3575 55.2014 46.2063 56.1649C47.3094 56.7397 48.6455 56.6617 49.8884 56.4909C50.5409 56.3976 51.209 56.2734 51.7062 55.8542C51.9392 55.6363 52.1256 55.3723 52.3431 55.1548C52.8092 54.6576 53.4306 54.3316 54.0521 54.0519C55.6057 53.3529 57.2992 52.8866 58.7596 52.001C59.5519 51.5194 60.2511 50.8047 60.422 49.9036C60.4538 49.7872 60.4695 49.667 60.4686 49.5463L60.8881 49.3443C61.0865 49.2487 61.2576 49.1044 61.3852 48.9248C61.4808 48.7269 61.5081 48.503 61.4629 48.2879ZM60.9813 57.6562C60.857 57.1589 60.6395 56.5842 60.0957 56.4443C59.9953 56.4125 59.8904 56.3968 59.785 56.3976L59.5675 56.2268C59.2576 56.0577 58.9215 55.9424 58.5732 55.8852C56.5215 55.5257 54.4141 55.6537 52.4208 56.2578C50.6963 56.7707 47.6201 57.8584 47.4336 59.9557C47.376 60.7675 47.6011 61.5746 48.0707 62.2396C48.661 63.1561 49.6709 64.0882 50.8206 64.1348C51.7217 64.1658 52.5451 63.8241 53.3685 63.5444C54.1919 63.265 54.9843 63.187 55.7611 62.892C57.2965 62.3587 58.6308 61.366 59.583 60.049L59.7073 60.0176C60.0965 59.9413 60.4568 59.7586 60.7483 59.4895C60.8461 59.3733 60.9247 59.2423 60.9813 59.1012C61.1833 58.6349 61.1056 58.1224 60.9813 57.6562Z" fill="#C96328"/>
<path d="M56.0706 29.0353C54.4932 27.4119 52.4119 26.3713 50.1668 26.0834C49.6305 25.99 49.081 26.0058 48.551 26.1301C46.2516 26.7049 44.3873 29.7811 44.698 32.0804C44.9155 33.5564 45.972 34.442 47.0906 35.2809C47.1793 35.3615 47.2857 35.4201 47.4013 35.4518C47.7586 35.4984 47.9296 34.8304 48.0849 34.5973C48.2403 34.3643 48.5665 33.9293 49.0481 33.8361C49.4541 33.7813 49.8671 33.8131 50.26 33.9293C51.6272 34.2555 53.072 34.4109 54.3771 33.7584C55.4749 33.1976 56.3068 32.2261 56.692 31.0551C56.8182 30.7229 56.8452 30.3613 56.7697 30.0141C56.6694 29.7314 56.5045 29.4761 56.2881 29.2684L56.0706 29.0353Z" fill="#F4E1CE"/>
<path d="M54.3772 33.7613L54.8121 33.5127C53.4761 33.3107 52.9167 33.4972 52.6371 33.4039C52.3574 33.3107 51.1767 33.3729 50.7727 33.2641C50.3688 33.1554 49.825 33.1864 49.4832 33.1087C48.9839 32.9874 48.474 32.9146 47.9607 32.8912C47.1683 32.8136 46.5003 32.5028 46.0497 32.8447C45.5992 33.1864 45.4283 33.2486 45.1797 33.4039C45.6457 34.1497 46.3604 34.7245 47.0906 35.2838C47.1793 35.3645 47.2858 35.423 47.4014 35.4547C47.7587 35.5014 47.9296 34.8333 48.085 34.6002C48.2403 34.3672 48.5666 33.9322 49.0482 33.839C49.4542 33.7842 49.8672 33.816 50.26 33.9322C51.6272 34.2584 53.0721 34.4138 54.3772 33.7613Z" fill="#E6CFB4"/>
<path opacity="0.3" d="M56.7253 30.0516C56.6254 29.774 56.4611 29.5233 56.2456 29.3193L56.0289 29.0905C54.4578 27.4963 52.3847 26.4744 50.1483 26.1917C49.6142 26.1 49.0668 26.1155 48.5389 26.2375C48.5389 26.2375 46.4962 27.275 46.6509 29.5787C46.8521 32.4774 47.4402 32.4622 49.0342 33.8048C49.4385 33.751 49.8499 33.7822 50.2412 33.8963C51.603 34.2166 53.0422 34.3692 54.3421 33.7285C55.4356 33.1778 56.2643 32.2238 56.6479 31.0738C56.7737 30.7477 56.8005 30.3926 56.7253 30.0516Z" fill="#F4E1CE"/>
<path d="M57.0661 29.6767L57.0039 29.599C56.8486 29.4747 56.6155 29.4591 56.4291 29.397L55.6989 29.1173L54.4249 28.7445C53.415 28.4804 52.2343 28.2163 51.271 28.7755C51.0246 28.9091 50.8105 29.0953 50.6441 29.3208C50.4776 29.5463 50.3628 29.8057 50.3078 30.0806C50.2677 30.3266 50.2861 30.5787 50.3617 30.8162C50.4373 31.0538 50.5678 31.2702 50.7428 31.4478C51.1312 31.8206 51.7371 32.0226 52.2498 32.2091C53.206 32.6222 54.2153 32.8993 55.2483 33.0325C55.361 33.0559 55.4774 33.0559 55.5901 33.0325C55.6665 33.0006 55.7353 32.9529 55.7921 32.8926C56.0947 32.683 56.3711 32.4379 56.6155 32.1625C56.8825 31.8153 57.0491 31.4015 57.0971 30.9662C57.1513 30.6377 57.167 30.304 57.1438 29.9719C57.1442 29.8683 57.1174 29.7665 57.0661 29.6767Z" fill="#34B9EB"/>
<path d="M87.8262 42.3676C87.0806 40.8761 86.3036 39.4001 85.4804 37.9553L85.0765 37.2717L84.9057 36.992L84.5949 36.4793C84.5339 36.4024 84.4818 36.319 84.4394 36.2307L83.9578 35.5005C83.4606 34.7703 82.9011 33.9469 82.0779 33.5274C81.2543 33.108 80.3379 33.0613 79.4833 32.906C78.0684 32.5902 76.6034 32.569 75.1796 32.8438C73.0979 33.3565 71.4977 34.817 70.0684 36.3239C68.639 37.831 67.0232 39.6643 66.1221 41.7461L65.9823 42.1035C65.6871 42.8647 65.5162 43.6882 65.6871 44.4805C65.9668 45.9254 67.3495 46.9818 68.8099 47.2615L69.074 47.2926H70.6587C71.5061 47.1707 72.3356 46.9463 73.129 46.6245C75.3483 45.8763 77.2524 44.4046 78.5355 42.4452C78.1926 43.0076 77.8912 43.5943 77.6343 44.2008C77.3923 44.7822 77.2304 45.3937 77.1528 46.0186C77.1481 46.1381 77.1163 46.2549 77.0595 46.3604C76.9044 46.609 76.5471 46.5934 76.283 46.6867C76.1952 46.7145 76.1155 46.7624 76.0498 46.8265C75.773 51.7869 76.5954 56.7472 78.4579 61.3527C75.9697 62.9567 73.3059 64.2703 70.5189 65.2682C74.0456 65.7497 77.8988 65.9671 80.9902 63.9473C83.2432 62.4561 84.6725 60.1099 85.7755 57.7175C86.8784 55.3246 88.075 52.6215 88.8516 49.9648C89.1755 48.981 89.3535 47.9551 89.3798 46.9197C89.3954 45.2728 88.5409 43.8124 87.8262 42.3676Z" fill="#F3DEC7"/>
<path d="M76.0664 48.2704C76.0533 48.3682 76.0482 48.4669 76.0508 48.5656V48.8142L76.0664 49.4667V49.7153L76.0974 50.3834L76.1131 50.6164L76.1593 51.3155C76.1572 51.378 76.1622 51.4407 76.175 51.5019L76.2525 52.3565V52.3875C76.3148 52.9779 76.3924 53.5836 76.5014 54.1741C76.5039 54.2424 76.5145 54.3102 76.5323 54.3763L76.6412 55.0287C76.6675 55.1257 76.6883 55.2245 76.7031 55.3237L76.8277 55.8989L76.8896 56.2249L77.0138 56.753L77.1071 57.0951L77.247 57.6233L77.3402 57.9649L77.4958 58.4778C77.5246 58.594 77.5611 58.708 77.6043 58.8195L77.7751 59.3476C77.8044 59.4587 77.8408 59.5676 77.8841 59.674C77.9443 59.8631 78.0117 60.0496 78.0858 60.2331L78.1791 60.5129L78.5055 61.3518L77.5886 61.927L77.511 61.9732L76.6256 62.4861L76.5166 62.5484L75.6468 63.0142L75.5226 63.0918L74.6525 63.5272L74.5126 63.6047L73.6426 64.0244L73.5183 64.071L72.6327 64.4745L72.5084 64.5212L71.6073 64.8785L71.5297 64.9099L70.5664 65.2672C74.0931 65.7487 77.946 65.9662 81.0378 63.9311C81.9826 63.3063 82.8177 62.5293 83.5082 61.6315C82.7376 56.4203 80.0912 51.6691 76.0664 48.2704ZM83.4149 38.0475C84.3161 36.4473 84.1453 36.7114 83.6167 35.0024C83.1975 34.412 82.7159 33.8528 82.0788 33.5265C81.4417 33.2002 80.3388 33.0604 79.4842 32.905C78.9561 32.8118 78.4432 32.7341 77.915 32.6875C79.8573 34.3965 80.3697 36.0899 80.3854 37.5348C80.4007 38.9797 79.1578 41.2946 78.5364 42.4443C77.915 43.594 75.4293 48.6433 79.018 44.0601C80.1366 42.6463 81.4574 41.8073 82.2653 40.409C83.0733 39.0108 82.4052 39.8653 83.4149 38.0475Z" fill="#E6CFB4"/>
<path opacity="0.3" d="M79.4535 33.9001C79.0805 33.5272 78.4434 32.797 77.9 32.6727C77.0569 32.5973 76.2078 32.655 75.3829 32.8436C73.3166 33.3563 71.7008 34.8168 70.287 36.3238C68.8732 37.8308 67.2264 39.6641 66.3408 41.7459C66.2797 41.8608 66.2278 41.9802 66.1854 42.1033C65.8902 42.8645 65.7193 43.688 65.8902 44.4803C66.1699 45.863 67.4283 46.8729 68.7955 47.1992C70.9551 47.2147 74.2488 46.065 76.719 43.5326C80.2301 39.9437 81.3487 35.7489 79.4535 33.9001Z" fill="#F4E1CE"/>
<path d="M69.9612 39.6026C69.6823 39.7125 69.4247 39.8702 69.1999 40.0687C68.5629 40.5347 68.0036 41.0941 67.4288 41.6068C66.8539 42.1194 65.9684 42.6166 65.7509 43.4556C65.6499 43.8952 65.6824 44.355 65.8441 44.7761C66.0771 45.5219 66.4966 46.2366 67.1491 46.6716C68.3454 47.4639 69.6505 46.7803 70.6448 45.988C71.6391 45.1956 72.68 44.6208 73.1928 43.5488C73.7055 42.4768 72.9908 41.498 72.4159 40.7678C71.8411 40.0376 71.0332 39.3385 70.101 39.556L69.9612 39.6026Z" fill="#9F87BF"/>
<path opacity="0.1" d="M72.5704 40.9688L66.4336 45.9714C66.6319 46.2421 66.8733 46.4783 67.1483 46.6706C68.3446 47.4629 69.6496 46.7793 70.6439 45.987C71.6382 45.1946 72.6792 44.6198 73.1919 43.5478C73.5958 42.7088 73.0986 41.699 72.5704 40.9688Z" fill="white"/>
<path d="M58.4011 37.4898H58.3855C58.1663 37.3116 57.9197 37.1699 57.6553 37.0703C56.976 36.8235 56.2732 36.6464 55.5579 36.5421C54.0043 36.2935 52.4351 36.4178 50.866 36.4178C49.2968 36.4178 47.8675 36.4178 46.5624 37.1946C45.2574 37.9714 44.5582 39.4474 44.2941 40.8146C44.03 42.1818 44.263 43.4868 45.0243 44.5433C45.6361 45.3199 46.4812 45.8794 47.4349 46.1396C48.3887 46.3997 49.4009 46.3466 50.3222 45.9881C50.4491 45.9457 50.5656 45.8768 50.664 45.7862C50.7883 45.6463 50.8194 45.4444 50.9126 45.2735C51.1456 44.8229 51.9224 45.056 52.3264 45.0404C53.3673 44.9828 54.3961 44.7895 55.387 44.4656C57.8884 43.5645 59.9547 41.1253 58.9448 38.3753C58.8316 38.0434 58.6458 37.741 58.4011 37.4898Z" fill="#F4E1CE"/>
<path d="M51.7054 47.0451C52.1093 46.9208 51.6277 45.8799 51.2704 45.1963C51.2482 45.164 51.2177 45.1383 51.1822 45.1219C51.1466 45.1055 51.1073 45.099 51.0684 45.1031C51.3946 44.9011 52.0006 45.0564 52.3268 45.0409C53.3677 44.9833 54.3966 44.7901 55.3875 44.4661C56.4927 44.0715 57.4701 43.3842 58.2151 42.4774C55.9779 42.2288 54.968 44.3418 51.6277 43.9844C50.1673 43.8291 48.9088 44.1864 47.6349 44.2175C46.3609 44.2486 45.32 43.6271 44.916 44.3728L45.0248 44.5437C45.6928 45.4759 46.7648 46.0508 47.899 46.2372H47.9456C48.1865 46.2804 48.431 46.3011 48.6758 46.2994C49.5924 46.4392 50.478 46.7965 51.3791 47.014C51.4828 47.055 51.5959 47.0657 51.7054 47.0451Z" fill="#E6CFB4"/>
<path opacity="0.3" d="M58.4025 37.4898H58.3869C58.1677 37.3116 57.9211 37.1699 57.6568 37.0703C56.9774 36.8235 56.2746 36.6464 55.5594 36.5421C54.0057 36.2935 52.4366 36.4178 50.8674 36.4178C49.2982 36.4178 47.1387 37.1791 46.9212 39.7581C46.5328 44.5433 53.8348 44.6365 55.7458 44.2481C56.3742 44.1316 56.9689 43.8766 57.4865 43.5016C58.004 43.1266 58.4316 42.641 58.7381 42.0802C59.0446 41.5193 59.2223 40.8971 59.2583 40.259C59.2943 39.6209 59.1877 38.9827 58.9463 38.3909C58.8351 38.0535 58.6492 37.7454 58.4025 37.4898Z" fill="#F4E1CE"/>
<path d="M52.3273 39.9292C52.3241 39.4501 52.4953 38.9862 52.8089 38.6241C53.275 38.0959 53.8654 37.9871 54.5334 37.8784L55.5433 37.7386C56.46 37.6298 57.3921 37.5055 58.3398 37.4744C58.471 37.467 58.6025 37.4828 58.7283 37.5211C58.8344 37.5728 58.9282 37.6467 59.0032 37.7378C59.0783 37.829 59.1329 37.9352 59.1632 38.0493C59.3161 38.4936 59.3846 38.9625 59.3652 39.432C59.3701 40.0473 59.3128 40.6615 59.1943 41.2653C59.1727 41.3564 59.1415 41.4449 59.1011 41.5294C58.9302 41.8246 58.5107 41.8557 58.2156 41.9023C57.0044 42.0524 55.781 42.0784 54.5645 41.98C54.209 41.9685 53.8576 41.9003 53.5236 41.778C53.1592 41.629 52.8491 41.3719 52.6352 41.0413C52.4213 40.7108 52.3139 40.3227 52.3273 39.9292Z" fill="#5D509E"/>
<path d="M47.6655 34.9897C47.4169 34.9897 47.4169 34.9431 47.0129 34.8809C46.609 34.8188 46.7488 34.8499 46.5779 34.8654H46.5469L47.0906 35.2849L47.2615 35.4092L47.448 35.4558C47.5378 35.4428 47.6202 35.3989 47.681 35.3315L47.8364 35.114L47.883 35.0052L47.6655 34.9897ZM47.8519 46.238H47.8364C49.0637 46.1913 50.2134 46.7351 51.3787 47.0148C51.4823 47.0557 51.5954 47.0665 51.7049 47.0458C52.1088 46.9216 51.6272 45.8806 51.2699 45.197C51.2531 45.1673 51.2289 45.1423 51.1998 45.1244C51.1707 45.1065 51.1374 45.0963 51.1033 45.0947C51.0691 45.0932 51.0351 45.1003 51.0045 45.1155C50.9738 45.1307 50.9476 45.1534 50.9281 45.1815C50.4309 45.8651 48.1782 46.2069 47.8519 46.238ZM76.1745 51.5824L76.1592 51.4581C76.1554 51.5002 76.1605 51.5426 76.1745 51.5824ZM76.3143 46.6574C76.5941 46.5642 76.9514 46.5797 77.1066 46.3467C77.1592 46.2398 77.1909 46.1238 77.1998 46.0049C77.2757 45.3746 77.4376 44.7577 77.6814 44.1716C77.9332 43.5654 78.229 42.9785 78.5673 42.416C77.9756 43.4229 77.1757 44.2916 76.2211 44.964L76.0812 46.7972L76.3143 46.6574Z" fill="#DDC1A8"/>
<path d="M44.0928 50.8183C44.2326 50.2435 44.8852 49.4356 45.2736 49.0161C46.3145 47.882 47.8371 47.3693 49.2508 46.8255C50.8478 46.2146 52.4891 45.7264 54.1603 45.3651C54.9987 45.1688 55.8503 45.0338 56.7083 44.9611C57.3608 44.9146 58.4017 44.7126 58.9144 45.2253C59.1661 45.5155 59.3564 45.8538 59.4737 46.2196C59.7357 46.8474 59.9588 47.4909 60.1418 48.1461C60.3041 48.663 60.3518 49.2091 60.2816 49.7463C60.1107 50.6474 59.396 51.3621 58.6192 51.8282C57.1433 52.7138 55.4498 53.1796 53.8962 53.8943C53.2747 54.1741 52.6688 54.5005 52.2027 54.982C51.9697 55.2151 51.7988 55.4792 51.5502 55.681C51.0235 56.0629 50.3976 56.2842 49.748 56.3181C48.5051 56.5046 47.169 56.5822 46.0504 55.9917C44.2171 55.0286 43.6733 52.7138 44.0928 50.8183Z" fill="#F3DEC7"/>
<path d="M51.192 55.7915C51.6892 55.5741 52.1087 54.9836 52.4349 54.5796C52.4653 54.536 52.5089 54.5033 52.5592 54.4864C52.5822 54.4817 52.6061 54.4834 52.6281 54.4919C52.6501 54.4999 52.6693 54.5143 52.6835 54.533C53.0564 54.7661 52.1242 55.5117 52.2019 55.9623C52.2221 56.1026 52.2114 56.2459 52.1708 56.382C52.1087 56.5219 51.8756 56.4596 51.7358 56.4752C50.6483 56.6461 51.1143 56.0865 50.0579 56.273C50.5084 56.0556 50.7881 55.978 51.192 55.7915ZM58.4785 50.8354C57.9969 50.8975 52.0465 53.2126 51.2076 53.4919C50.3686 53.7717 49.0014 54.3312 47.6187 54.3312C46.236 54.3312 45.9097 54.4245 45.5368 54.8903L45.1484 55.3252C45.4078 55.5986 45.7127 55.8246 46.0495 55.9933C47.1681 56.5838 48.5043 56.5062 49.7472 56.3197C50.3841 56.2421 51.0522 56.1022 51.5494 55.6826C51.7979 55.4808 51.9688 55.2167 52.2019 54.9836C52.668 54.502 53.2739 54.1757 53.8954 53.8959C55.449 53.1812 57.1424 52.7153 58.6184 51.8297C59.0949 51.5573 59.508 51.1866 59.8302 50.7422L58.4785 50.8354Z" fill="#E6CFB4"/>
<path opacity="0.3" d="M60.1424 48.1461C59.9594 47.4908 59.7363 46.8474 59.4744 46.2196C59.357 45.8538 59.1667 45.5155 58.915 45.2253C58.4024 44.7126 57.3614 44.9146 56.7089 44.9611C55.8509 45.0338 54.9993 45.1688 54.1609 45.3651C52.8662 45.644 51.5899 46.002 50.339 46.4371C47.8998 47.9907 47.1385 49.8396 47.6978 51.4398C48.397 53.4751 51.5508 53.9409 54.9688 53.1332C56.2117 52.6361 57.4546 52.5273 58.6198 51.8282C59.3967 51.3621 60.1113 50.6474 60.2822 49.7463C60.3524 49.2091 60.3047 48.663 60.1424 48.1461Z" fill="#F4E1CE"/>
<path d="M54.4873 47.2293C54.9379 46.6544 55.8234 46.3593 56.4915 46.1728C57.1595 45.9864 58.0762 45.8621 58.8685 45.6912C59.1482 45.6291 59.692 45.4737 59.9871 45.5203C60.2823 45.5669 60.5309 45.9709 60.7795 46.3282C61.0281 46.6855 61.2611 47.509 61.3233 48.1304C61.3535 48.3473 61.3212 48.5683 61.2301 48.7674C61.1024 48.9469 60.9314 49.0912 60.7329 49.1869C60.3278 49.3997 59.9071 49.5815 59.4745 49.7306C58.7971 49.957 58.1072 50.1438 57.4081 50.2899C56.6002 50.4764 55.6215 50.7405 54.9068 50.1657C54.5795 49.884 54.3553 49.5014 54.2698 49.0781C54.1455 48.5499 54.1144 47.8197 54.4096 47.338L54.4873 47.2293Z" fill="#41439A"/>
<path opacity="0.4" d="M61.1834 47.2773L54.3008 49.2194C54.4004 49.5901 54.612 49.9211 54.9067 50.1671C55.6214 50.7419 56.6001 50.4778 57.408 50.2914C58.1071 50.1452 58.797 49.9585 59.4744 49.7321C59.907 49.5829 60.3277 49.4011 60.7328 49.1883C60.9313 49.0927 61.1023 48.9483 61.23 48.7688C61.3211 48.5697 61.3534 48.3487 61.3232 48.1318C61.2918 47.8447 61.2451 47.5595 61.1834 47.2773Z" fill="#5B61BF"/>
<path d="M59.4122 56.0725C59.1024 55.9034 58.7662 55.7876 58.4179 55.7304C56.3662 55.3714 54.2588 55.499 52.2655 56.1034C50.541 56.6159 47.4648 57.7036 47.2784 59.801C47.2208 60.6132 47.4458 61.4198 47.9154 62.0849C48.5057 63.0013 49.5156 63.9339 50.6653 63.9805C51.5664 64.0114 52.3898 63.6698 53.2132 63.39C54.0367 63.1103 54.829 63.0327 55.6058 62.7372C57.2714 62.1671 58.6951 61.0502 59.6453 59.5678C60.0069 59.0227 60.2111 58.3886 60.2356 57.7345C60.2512 57.0979 59.956 56.4141 59.4122 56.0725Z" fill="#F3DEC7"/>
<path d="M56.2734 61.5392C54.8752 62.0055 53.6789 62.1454 52.4204 62.5027C51.162 62.86 49.857 61.5083 49.0957 63.3725C49.5462 63.7273 50.0929 63.9384 50.6648 63.9787C51.566 64.0096 52.3894 63.668 53.2128 63.3882C54.0362 63.1084 54.8286 63.0309 55.6054 62.7354C57.0037 62.2229 58.2932 61.3841 59.1943 60.2031C58.0601 60.747 56.9726 61.3061 56.2734 61.5392Z" fill="#E6CFB4"/>
<path opacity="0.3" d="M59.411 56.0696C59.1012 55.9005 58.765 55.7848 58.4167 55.7276C56.4035 55.3766 54.3368 55.4881 52.3731 56.054C51.037 57.2349 50.3689 58.6019 50.7262 59.8138C51.2545 61.6158 53.2121 63.3872 57.1272 62.0045C58.1525 61.4085 59.0165 60.5713 59.6441 59.565C60.0057 59.0199 60.2099 58.3857 60.2345 57.7317C60.25 57.095 59.9548 56.4113 59.411 56.0696Z" fill="#F4E1CE"/>
<path d="M54.4389 59.054C54.7186 59.7844 55.5109 60.2036 56.2411 60.3125C56.7429 60.3744 57.2512 60.3588 57.7482 60.2659C58.3541 60.157 58.96 60.0171 59.5504 59.862C59.9406 59.7886 60.3018 59.6055 60.5913 59.3338C60.6891 59.2172 60.7678 59.0862 60.8243 58.9451C61.0263 58.4792 60.9486 57.9663 60.8243 57.5005C60.7001 57.0342 60.4826 56.4285 59.9388 56.2886C59.6573 56.2267 59.3657 56.2267 59.0843 56.2886C58.2608 56.4128 57.4685 56.7078 56.6451 56.8634C56.1479 56.9723 55.6352 57.0652 55.2002 57.3297C54.7652 57.5937 54.3768 58.0287 54.3457 58.5259C54.345 58.706 54.3765 58.8849 54.4389 59.054Z" fill="#005C9F"/>
<path opacity="0.3" d="M50.3544 29.8906L50.3078 30.077C50.2677 30.3231 50.2861 30.5752 50.3617 30.8127C50.4373 31.0502 50.5678 31.2666 50.7428 31.4442C51.1312 31.8171 51.7371 32.0191 52.2498 32.2055C53.206 32.6187 54.2153 32.8958 55.2483 33.0289C55.361 33.0524 55.4774 33.0524 55.5901 33.0289C55.6665 32.997 55.7353 32.9494 55.7921 32.8891C56.0947 32.6795 56.3711 32.4343 56.6155 32.1589C56.7339 32.0115 56.833 31.8497 56.9107 31.6773L50.3544 29.8906ZM52.343 40.1757C52.3757 40.5246 52.5029 40.8579 52.711 41.1399C52.919 41.4219 53.2 41.6417 53.5238 41.7759C53.8578 41.8982 54.2092 41.9664 54.5647 41.9778C55.7812 42.0763 57.0045 42.0502 58.2158 41.9001C58.5109 41.8536 58.9304 41.8225 59.1013 41.5273C59.1417 41.4428 59.1729 41.3543 59.1945 41.2632C59.3059 40.6846 59.3632 40.0968 59.3654 39.5076L52.343 40.1757ZM54.4871 59.1764C54.8133 59.8292 55.5435 60.2175 56.2426 60.3108C56.7444 60.3726 57.2527 60.357 57.7497 60.2641C58.3556 60.1552 58.9615 60.0153 59.5518 59.8602C59.9421 59.7868 60.3033 59.6037 60.5928 59.332C60.6906 59.2154 60.7693 59.0845 60.8258 58.9433C60.9739 58.5449 60.9902 58.1091 60.8725 57.7005L54.4871 59.1764Z" fill="white"/>
</svg>
