<svg width="132" height="88" viewBox="0 0 132 88" fill="none" xmlns="http://www.w3.org/2000/svg">
<path d="M97.5343 56.5343L84.4404 37.1151L94.7494 32.0142C96.0303 31.3718 96.8226 30.1065 96.8226 28.6806C96.8226 27.255 96.0303 25.9897 94.7494 25.3471L68.4596 12.3943C67.2802 11.812 65.9379 11.6714 64.6781 11.9927C64.3522 12.053 64.0275 12.1534 63.7219 12.314L60.4079 13.9406L37.2492 25.3872L35.9079 26.05C34.9517 26.532 34.2408 27.3955 33.9553 28.4196C33.6707 29.4437 33.8537 30.5481 34.464 31.432L47.558 50.8511L37.2492 55.9518C35.9682 56.5945 35.1759 57.8595 35.1759 59.2854C35.1759 60.7112 35.9682 61.9762 37.2492 62.6192L63.5388 75.6121C64.3121 75.9933 65.1456 76.1742 65.9992 76.1742C66.4466 76.1742 66.8941 76.114 67.3203 76.0133C67.6462 75.9531 67.971 75.8536 68.2765 75.6927L68.4596 75.6121L94.7494 62.6192L96.0905 61.9564C97.0467 61.4744 97.7576 60.6109 98.043 59.5868C98.3277 58.5222 98.1448 57.4178 97.5343 56.5343ZM66.6908 71.9373L53.5153 52.3974L66.0193 46.2322L92.3904 59.2653L66.6908 71.9373ZM65.3076 16.0292L78.5032 35.5688L65.9992 41.7338L39.6079 28.701L65.3076 16.0292ZM90.9879 54.0843L70.5329 43.983L80.7604 38.9425L90.9879 54.0843ZM82.1629 33.7615L71.9365 18.6197L92.3904 28.701L82.1629 33.7615ZM41.0105 33.882L61.4656 43.983L51.238 49.0237L41.0105 33.882ZM49.8355 54.2047L60.062 69.346L39.6079 59.2653L49.8355 54.2047Z" fill="#3333FF"/>
</svg>
