<svg width="132" height="88" viewBox="0 0 132 88" fill="none" xmlns="http://www.w3.org/2000/svg">
<path fill-rule="evenodd" clip-rule="evenodd" d="M47.0568 5.51796C46.5638 5.80245 45.6823 6.51072 45.0976 7.0924C44.5135 7.67362 43.8745 8.14913 43.6775 8.14913C43.48 8.14913 43.0281 8.71084 42.6728 9.39688C42.3171 10.0829 41.9103 10.7467 41.769 10.8715C40.9271 11.6138 39.9015 16.5404 40.1828 18.4914C40.6015 21.3957 41.4032 24.0296 41.8688 24.0296C42.08 24.0296 42.2528 24.3404 42.2528 24.7202C42.2528 25.9366 47.1918 30.3977 49.8177 31.5528C54.0558 33.4177 62.1095 32.8473 64.5175 30.5124C64.849 30.1912 65.311 29.928 65.5445 29.928C66.2007 29.928 69.6156 26.2669 69.6156 25.5627C69.6156 25.2188 69.7957 24.937 70.0165 24.937C70.5263 24.937 71.2697 23.0736 71.9168 20.1729C72.8481 15.9991 73.6671 14.6261 75.8265 13.6161C78.2805 12.4686 78.1665 12.4663 80.9807 13.7073C82.4259 14.3448 83.2961 15.0122 83.2965 15.4845C83.2965 15.9002 83.5296 16.3176 83.8137 16.412C84.1224 16.5145 84.3213 17.627 84.3071 19.172C84.2857 21.5772 84.1576 21.8816 82.4948 23.4711C79.9232 25.9289 79.4425 26.9766 80.1288 28.6254C80.4353 29.3609 81.0546 30.159 81.5052 30.399C82.6809 31.0252 84.9538 30.9371 85.6589 30.2379C85.9899 29.9094 86.8254 29.2738 87.5154 28.8246C88.2054 28.3758 88.7695 27.771 88.7695 27.4806C88.7695 27.1898 89.18 26.658 89.6816 26.2982C90.1833 25.9384 90.5937 25.4144 90.5937 25.1335C90.5937 24.8527 90.9134 23.9856 91.3038 23.2065C92.2515 21.3168 92.2296 17.8017 91.2509 14.7064C90.3256 11.7794 87.1638 8.23307 84.646 7.29794C83.7786 6.97579 82.7128 6.52524 82.2773 6.29656C81.2667 5.7657 74.6321 5.74936 74.6321 6.2775C74.6321 6.49574 74.0657 6.78704 73.373 6.92497C71.9839 7.20129 67.7914 10.1954 67.7914 10.9114C67.7914 11.1596 67.381 11.8016 66.8793 12.337C66.3777 12.8729 65.9672 13.7831 65.9672 14.3602C65.9672 14.9369 65.762 15.4088 65.5112 15.4088C65.2604 15.4088 65.0551 16.3276 65.0551 17.4505C65.0551 18.5735 64.8499 19.4923 64.5991 19.4923C64.3483 19.4923 64.1431 19.9007 64.1431 20.3998C64.1431 20.8989 63.9866 21.3072 63.7951 21.3072C63.604 21.3072 63.2446 21.7501 62.997 22.2909C62.7494 22.8322 62.1364 23.4956 61.6348 23.7655C61.1331 24.0355 60.6201 24.3585 60.4947 24.4833C59.2387 25.7329 53.654 26.4738 53.654 25.3908C53.654 25.1412 53.2367 24.937 52.7268 24.937C51.6442 24.937 48.6375 22.1126 48.6375 21.0953C48.6375 20.7128 48.4323 20.3998 48.1814 20.3998C47.9247 20.3998 47.7254 19.1289 47.7254 17.4946C47.7254 14.6075 47.7395 14.5757 49.9655 12.4532C51.1977 11.2785 52.2909 9.98264 52.3953 9.57338C52.7045 8.35694 51.8581 5.88049 51.1325 5.88049C50.7636 5.88049 50.4617 5.67631 50.4617 5.42676C50.4617 4.81423 48.1705 4.87548 47.0568 5.51796ZM50.5451 38.925C47.0103 42.2105 49.1031 47.6234 53.908 47.6234C55.495 47.6234 56.2357 47.3648 57.0949 46.5095C57.7105 45.897 58.2144 45.0803 58.2144 44.6946C58.2144 44.3089 58.4197 43.9936 58.6705 43.9936C59.7358 43.9936 58.9697 40.8021 57.5208 39.2054C55.7418 37.2439 52.4943 37.1133 50.5451 38.925ZM73.8582 38.1845C71.199 39.4627 70.7817 44.5226 73.1673 46.564C74.8797 48.0295 78.0329 48.0295 79.7453 46.564C82.1947 44.4677 81.6999 39.4178 78.9212 38.1582C77.5257 37.5253 75.204 37.5375 73.8582 38.1845ZM42.2606 53.3204C39.8563 54.6312 39.3268 56.6662 40.8792 58.6299L41.7863 59.777L52.3565 59.9389C60.289 60.0605 62.9742 60.2425 63.1169 60.6681C63.2214 60.9803 63.6045 61.2352 63.9684 61.2352C64.9831 61.2352 67.4954 63.9916 68.1335 65.8047C69.2307 68.9232 68.7924 70.3615 65.9011 73.1284C63.1612 75.7504 60.8997 76.2083 50.6865 76.2083C42.1502 76.2083 41.9336 76.2314 40.964 77.2582C39.8504 78.4379 39.7241 79.4333 40.503 80.8889C41.5865 82.9125 41.9993 82.9847 52.601 82.9996C58.8721 83.0087 62.8283 82.8417 63.0029 82.5604C63.158 82.3109 63.8881 82.1067 64.626 82.1067C65.3639 82.1067 65.9672 81.9025 65.9672 81.653C65.9672 81.4034 66.3777 81.1993 66.8793 81.1993C67.381 81.1993 67.7914 81.0087 67.7914 80.7759C67.7914 80.5432 68.1854 80.2287 68.667 80.0763C70.5263 79.4892 74.6321 74.8266 74.6321 73.3026C74.6321 72.9042 74.8373 72.5784 75.0882 72.5784C75.36 72.5784 75.5442 70.8393 75.5442 68.268C75.5442 65.6967 75.36 63.9576 75.0882 63.9576C74.8373 63.9576 74.6321 63.4594 74.6321 62.8501C74.6321 62.2407 74.4269 61.6164 74.1761 61.4621C73.9252 61.3078 73.72 60.8877 73.72 60.5279C73.72 59.9834 75.059 59.8741 81.7214 59.8741C89.6091 59.8741 89.7391 59.8582 90.8423 58.7602C92.6988 56.9135 92.1758 54.6008 89.6141 53.3295C88.3573 52.7056 85.3123 52.6203 65.783 52.6589C47.8271 52.6947 43.1686 52.8254 42.2606 53.3204Z" fill="#FC6F6F"/>
</svg>
