<svg width="132" height="88" viewBox="0 0 132 88" fill="none" xmlns="http://www.w3.org/2000/svg">
<path d="M67.688 81.8444C48.4386 81.8444 34.7051 72.2391 34.7051 54.6478L52.2657 54.0691C52.9414 63.2119 59.8077 66.3364 67.688 66.3364C74.3291 66.3364 78.6074 63.906 78.6074 59.8554C78.6074 55.5735 74.4417 54.879 69.0381 53.8375L56.0928 51.5229C44.4989 49.3241 36.3938 42.6114 36.3938 29.8813C36.3938 15.0676 47.6503 6.15625 65.3235 6.15625C84.9112 6.15625 95.492 15.9934 95.8294 32.1959L78.2688 32.543C77.7066 25.0204 72.4156 21.5484 65.0987 21.5484C58.7946 21.5484 55.1923 24.0947 55.1923 28.1453C55.1923 31.5014 57.8941 32.7742 62.2844 33.5845L75.6808 36.0149C90.5396 38.6766 97.2934 46.662 97.2934 58.5826C97.2934 74.0899 84.2355 81.8444 67.688 81.8444Z" fill="#0F101B"/>
</svg>
