<svg width="132" height="88" viewBox="0 0 132 88" fill="none" xmlns="http://www.w3.org/2000/svg">
<path fill-rule="evenodd" clip-rule="evenodd" d="M80.2466 9.05992C79.338 9.55226 78.127 10.8702 77.3298 12.2342L77.0135 12.7754L76.5938 12.6633C75.8526 12.4652 74.1572 12.1531 72.9129 11.9857C71.9574 11.857 70.94 11.8065 68.0706 11.7453C63.2633 11.6425 61.3883 11.7378 58.4162 12.2359C45.9498 14.3247 35.899 22.366 31.7074 33.6046C31.5174 34.1139 31.369 34.5382 31.3775 34.5475C31.386 34.5569 32.4162 34.2576 33.6666 33.8825L35.9402 33.2005L36.1687 32.6289C36.5815 31.5955 37.7065 29.364 38.3553 28.2917C40.8135 24.2288 44.2346 20.6513 48.2156 17.9805C51.257 15.94 54.4466 14.45 58.2199 13.307C59.6081 12.8866 59.4948 12.9774 58.0112 13.4743C49.7917 16.2273 43.0135 21.9144 38.9055 29.5042C38.3131 30.5985 37.3682 32.6372 37.4264 32.6953C37.4425 32.7115 38.8502 32.2873 40.5545 31.7527L43.6532 30.7807L44.1496 29.9426C46.828 25.42 50.6209 21.847 55.3635 19.3793L56.4512 18.8132L57.3478 16.6192C57.8409 15.4124 58.2987 14.2923 58.365 14.13L58.4856 13.8349L59.2664 14.1785C59.6957 14.3676 61.0644 14.9771 62.308 15.5331L64.569 16.5442L65.3418 16.4661C67.5813 16.2401 69.6154 16.2889 71.9296 16.6243C72.9183 16.7676 75.0743 17.2089 75.1487 17.2833C75.1647 17.2992 75.1233 17.4666 75.0567 17.6552C74.6926 18.6867 74.0048 21.716 73.6234 23.9678C72.3253 31.6338 71.9374 43.5589 72.666 53.3993C73.0174 58.1441 73.7574 62.8487 74.6554 66.045C74.8526 66.7471 75.2341 68.1288 75.5031 69.1155C76.0298 71.0471 76.1785 71.3918 77.805 74.4518C78.1635 75.1262 78.4462 75.6862 78.4332 75.6962C78.4201 75.7063 73.7242 76.4102 67.9979 77.2605C60.5588 78.3653 57.664 78.8228 57.8586 78.8631C58.9167 79.0827 60.5889 79.2007 62.6417 79.2008C67.1623 79.2009 70.9637 79.1129 72.1423 78.9808C75.0109 78.6594 78.1042 77.9272 80.4984 77.0031C80.7261 76.9152 80.8064 76.931 81.3121 77.164L81.8732 77.4224L85.1311 77.3983L88.389 77.3742L88.9409 77.1046C90.3327 76.4248 91.7143 74.4727 92.767 71.6987C93.1007 70.8191 93.8578 68.3377 93.8578 68.1233C93.8578 68.0747 94.0946 67.8026 94.384 67.5187C95.3396 66.5811 96.6201 64.7959 97.4867 63.1927C97.6943 62.8087 97.8878 62.4956 97.9168 62.4967C97.9457 62.4978 98.0894 62.6755 98.236 62.8915C98.5519 63.3569 98.8849 63.6247 99.5075 63.914C100.122 64.1994 101.089 64.2096 101.784 63.9381C102.429 63.686 103.109 63.0404 103.406 62.3974C103.631 61.9104 103.638 61.86 103.638 60.6197C103.638 59.4072 103.627 59.3207 103.427 58.8948C103.054 58.0989 102.437 57.5544 101.576 57.2612L101.208 57.136L101.618 56.604C101.843 56.3115 102.12 55.8746 102.233 55.6332L102.44 55.1944L102.464 46.4582C102.481 40.3489 102.461 37.5779 102.4 37.2432C102.282 36.6019 101.956 35.5903 101.711 35.1072C101.601 34.891 101.523 34.7061 101.537 34.6963C101.551 34.6865 101.735 34.6145 101.947 34.5361C102.679 34.2647 103.386 33.3822 103.595 32.4794C103.717 31.9502 103.694 30.598 103.554 30.0603C103.068 28.1955 100.967 27.2613 99.256 28.1487C99.0409 28.2602 98.8567 28.3415 98.8466 28.3294C98.8365 28.3173 98.5205 27.6971 98.1446 26.9511C97.3125 25.3001 96.5376 24.1103 95.7488 23.2723L95.1549 22.6415L94.8967 21.3257C94.3357 18.4686 93.5074 15.6081 92.6653 13.6202C91.6593 11.245 90.4316 9.6488 89.1475 9.04628L88.7084 8.84027L84.7165 8.82057L80.7247 8.80078L80.2466 9.05992ZM87.0645 10.7626C86.5351 11.8929 85.5916 14.285 85.0436 15.8867C81.1821 27.1728 79.8628 39.8408 81.2488 52.3222C81.954 58.6719 83.2772 64.7101 85.3313 70.9517C85.8896 72.6479 87.3299 76.5817 87.4289 76.6807C87.4823 76.734 87.8138 76.6352 87.9739 76.5182C88.1095 76.419 88.097 76.3601 87.7471 75.4576C84.608 67.3608 82.5948 58.921 81.8477 50.7266C81.5996 48.0056 81.5541 47.0741 81.5085 43.7854C81.4235 37.653 81.8237 32.7956 82.8892 27.0309C83.9218 21.4431 85.8197 15.1963 87.7224 11.123C87.9354 10.6671 88.1096 10.2698 88.1096 10.2402C88.1096 10.19 87.5972 9.91735 87.5029 9.91735C87.4796 9.91735 87.2823 10.2977 87.0645 10.7626ZM59.4333 13.0036C59.4909 13.0267 59.5598 13.0238 59.5863 12.9973C59.6128 12.9708 59.5657 12.952 59.4815 12.9554C59.3885 12.9593 59.3696 12.9782 59.4333 13.0036ZM59.2848 15.4721C58.7808 16.7969 53.9016 28.6498 53.8327 28.7167C53.7667 28.7808 32.919 35.3605 28.6175 36.6749L28.3242 36.7645L35.1436 53.4321C38.8943 62.5993 41.9745 70.1111 41.9883 70.1249C42.0022 70.1389 43.0669 69.7726 44.3541 69.3111C45.6414 68.8496 46.7024 68.4824 46.712 68.4951C46.7216 68.5078 47.0055 70.8859 47.3429 73.7797C47.6803 76.6734 47.9672 79.0518 47.9803 79.0649C48.0188 79.1034 76.8419 74.8186 76.8938 74.7667C76.9197 74.7408 76.6464 74.1298 76.2864 73.4087L75.632 72.0979L74.945 72.2002C54.3374 75.2677 50.5629 75.8216 50.525 75.7838C50.4779 75.7366 47.2328 48.0276 47.2701 47.9903C47.2847 47.9758 52.7843 50.2289 59.4913 52.9973C66.1983 55.7656 71.7017 58.0149 71.721 57.9956C71.7403 57.9763 71.7152 57.6913 71.6653 57.3622C71.6154 57.0332 71.5496 56.3416 71.5191 55.8254L71.4636 54.8869L60.8454 50.5566C55.0053 48.175 50.193 46.2134 50.1514 46.1974C50.1097 46.1815 50.194 45.8836 50.3385 45.5354C50.483 45.1872 51.0677 43.7355 51.6376 42.3094C52.5532 40.0188 61.123 19.0032 61.1619 18.9532C61.1703 18.9425 63.6174 20.0293 66.5998 21.3684C69.5823 22.7075 72.0984 23.823 72.1913 23.8472C72.3493 23.8885 72.3637 23.8513 72.4169 23.267C72.4482 22.9237 72.5541 22.3273 72.6523 21.9418L72.8308 21.2408L72.5065 21.0971C72.3281 21.018 69.3219 19.6729 65.8261 18.1081C62.3303 16.5432 59.4462 15.2628 59.4172 15.2628C59.3882 15.2628 59.3286 15.357 59.2848 15.4721ZM90.5104 21.6876C90.2721 21.7544 90.0297 21.8485 89.9715 21.8966C89.8868 21.9669 89.866 22.7014 89.866 25.6133V29.2425L89.4676 29.678C88.8055 30.4021 88.2693 31.5079 87.8234 33.0691C87.7066 33.4779 87.5995 33.8254 87.5853 33.8413C87.5712 33.8571 86.9962 33.5595 86.3076 33.1799C85.6189 32.8004 85.0406 32.5047 85.0224 32.5229C85.0042 32.5411 85.0261 32.7842 85.071 33.0632C85.2615 34.2451 84.7345 35.5329 83.8323 36.0901C83.6814 36.1832 83.5742 36.2858 83.5941 36.318C83.614 36.3502 84.3889 36.6972 85.316 37.0891L87.0017 37.8017L86.9546 38.2804C86.92 38.6329 86.7628 41.7952 86.7534 42.3294C86.7529 42.3623 86.5638 42.3894 86.3332 42.3896C86.1027 42.3898 85.5163 42.4128 85.0301 42.4408L84.1461 42.4917L84.4093 43.0192C84.7868 43.7753 84.8966 44.561 84.7351 45.3517C84.667 45.6855 84.5182 46.1552 84.4045 46.3956C84.2907 46.6359 84.1976 46.8499 84.1976 46.8711C84.1976 46.8923 84.7634 46.8271 85.455 46.7261C86.1467 46.6251 86.7865 46.5414 86.8769 46.5402C87.0278 46.5381 87.0525 46.6227 87.1744 47.5592C87.3904 49.2183 87.8983 51.7566 88.232 52.845C88.26 52.9362 87.9336 53.1567 86.9924 53.6827C86.2898 54.0753 85.7161 54.4146 85.7174 54.4365C85.7187 54.4584 85.906 54.5841 86.1336 54.7157C86.9449 55.1851 87.3459 56.0102 87.2975 57.1114C87.2831 57.4395 87.2777 57.7079 87.2854 57.7078C87.2932 57.7077 87.7945 57.3665 88.3994 56.9497C89.0043 56.5328 89.519 56.1942 89.5429 56.1973C89.5669 56.2003 89.7511 56.4248 89.9522 56.696C90.1695 56.9888 90.3882 57.1994 90.4911 57.2146L90.6644 57.24V60.9347V64.6294L90.9238 64.7388C91.2614 64.8812 92.6769 64.8832 93.0786 64.7419L93.3772 64.6369L93.398 60.9529C93.4143 58.057 93.4401 57.273 93.5185 57.2887C93.7183 57.3286 93.61 57.2391 93.2453 57.0626C92.7284 56.8126 92.0399 56.0985 91.552 55.3062C89.9834 52.7589 89.1973 47.9288 89.3329 41.6711C89.4647 35.5855 90.468 31.6227 92.4062 29.5305C92.6432 29.2747 92.7974 29.0654 92.7487 29.0654C92.6854 29.0654 92.6603 28.0505 92.6603 25.4838V21.9022L92.3242 21.7678C91.8467 21.5769 91.0336 21.5409 90.5104 21.6876ZM60.9547 29.2643C61.1182 29.7478 61.1369 29.9141 61.0928 30.4957C61.0494 31.0676 60.9041 31.8808 60.7634 32.3394C60.7309 32.445 60.8604 32.4614 61.7037 32.459C62.2416 32.4574 62.8481 32.4819 63.0515 32.5132L63.4214 32.5703L63.043 31.9412C62.6217 31.2406 62.2533 30.1865 62.2227 29.5939L62.2026 29.205L61.4841 28.9552L60.7655 28.7054L60.9547 29.2643ZM62.6792 29.1766C62.556 30.1628 62.8872 31.1121 63.7922 32.3662C64.0416 32.7116 64.2309 33.0088 64.2131 33.0266C64.1953 33.0444 64.0769 33.0174 63.9501 32.9667C63.8233 32.9159 63.2385 32.8562 62.6505 32.8339C61.4532 32.7888 60.7806 32.8777 59.8933 33.1984C59.4467 33.3599 59.1726 33.4038 58.5841 33.4081L57.8396 33.4136L57.8842 33.6367C58.0474 34.453 59.4173 35.4702 60.9651 35.9246C62.0531 36.2439 63.2698 36.8024 63.7532 37.2045C64.0024 37.4118 64.939 38.2322 65.8344 39.0278C66.7299 39.8234 67.4915 40.4744 67.5268 40.4744C67.6831 40.4744 68.2608 39.8487 68.5854 39.328C69.0792 38.5357 69.5884 37.2276 69.6854 36.5027C69.9189 34.7563 69.1442 32.7242 67.7546 31.4385C67.0793 30.8137 66.5008 30.4981 65.5345 30.2271C64.3813 29.9037 63.5614 29.4911 62.9479 28.9255L62.7351 28.7294L62.6792 29.1766ZM93.5303 29.3041C93.1701 29.4944 92.5442 30.1791 92.192 30.7682C91.3033 32.2551 90.4982 35.1327 90.1129 38.2006C89.1322 46.0063 90.6928 54.9888 93.3542 56.858C95.32 58.2387 97.3216 54.5815 98.042 48.2932C98.7759 41.8862 98.0315 34.6106 96.28 31.0722C95.8779 30.2598 95.2358 29.4882 94.7835 29.2738C94.4242 29.1033 93.8857 29.1164 93.5303 29.3041ZM42.3233 35.2663C36.7906 37.0033 32.2558 38.4301 32.246 38.4368C32.1888 38.476 43.7589 66.5636 43.8322 66.5636C43.8812 66.5636 44.4599 66.3704 45.1182 66.1343C46.09 65.7857 46.3197 65.6742 46.3399 65.5414C46.3535 65.4514 45.7645 60.2405 45.0309 53.9616C44.2973 47.6827 43.7191 42.5235 43.746 42.4967C43.7728 42.4698 44.8091 42.3988 46.0488 42.3389C47.2884 42.279 48.3297 42.203 48.3627 42.17C48.4063 42.1263 51.7601 33.9634 52.4275 32.2766C52.4665 32.1779 52.4724 32.0996 52.4406 32.1026C52.4087 32.1056 47.8559 33.5292 42.3233 35.2663ZM83.8307 32.3344C83.561 32.4434 83.0949 33.0462 82.9088 33.5269C82.7931 33.8255 82.726 34.2084 82.7049 34.6901C82.6704 35.4775 82.734 35.6832 83.0947 35.9508C83.2843 36.0913 83.3381 36.098 83.5566 36.0075C83.9116 35.8605 84.404 35.2653 84.6035 34.7417C84.7904 34.2514 84.8872 33.3907 84.8048 32.9517C84.7041 32.415 84.2864 32.1504 83.8307 32.3344ZM70.9206 33.6403C70.1792 33.9936 70.0644 34.0737 70.1024 34.2111C70.584 35.9532 70.1108 38.197 68.9058 39.8845C67.9025 41.2895 65.8939 42.0433 64.0174 41.7188L63.2774 41.5909L62.7001 41.879C61.9422 42.2573 60.8554 42.9788 60.6495 43.2402C60.4368 43.5105 60.4424 43.758 60.6657 43.9599C61.2305 44.4705 62.6482 44.4185 64.5261 43.8183C65.2686 43.5809 65.9015 43.5241 66.2649 43.6621C66.3753 43.7041 66.6061 43.8654 66.7781 44.0206C67.1743 44.3783 67.914 44.719 68.3949 44.7651C69.3382 44.8557 69.8914 44.0756 69.9116 42.6266C69.9295 41.341 70.2277 41.0255 71.0355 41.4374C71.2136 41.5282 71.3676 41.591 71.3777 41.577C71.3878 41.563 71.4933 39.8461 71.6121 37.7618C71.7309 35.6774 71.8482 33.8015 71.8729 33.5931C71.8976 33.3846 71.8874 33.2175 71.8504 33.2217C71.8133 33.2259 71.3949 33.4143 70.9206 33.6403ZM57.2767 33.6774L56.9814 33.702L57.2482 34.0514C57.5453 34.4403 57.6652 34.739 57.9689 35.847C58.4706 37.6766 59.7783 39.6484 61.0188 40.4454C62.3376 41.2927 64.3103 41.4186 66.359 40.7862C66.6473 40.6972 66.8719 40.5934 66.8581 40.5554C66.833 40.4861 63.7676 37.7375 63.1531 37.2334C62.7421 36.896 61.7214 36.4238 60.6857 36.0917C59.3359 35.6589 58.2661 34.9105 57.8065 34.0778C57.5823 33.6715 57.5591 33.654 57.2767 33.6774ZM47.6078 34.9237C46.8872 35.1173 46.4349 35.8024 46.4349 36.7001V37.0456L46.0955 36.9871C45.909 36.955 45.2892 36.9276 44.7184 36.9263C43.801 36.9243 43.633 36.9455 43.2719 37.1088C42.4481 37.4814 42.0984 38.0637 42.101 39.058L42.1026 39.6761L41.7738 39.7634C41.2951 39.8907 40.9899 40.1572 40.6998 40.7012C40.2341 41.5742 39.9681 43.1029 39.9681 44.9054V45.7184L39.6145 45.8534C39.0784 46.058 38.5709 46.485 38.3694 46.901C38.2254 47.1981 38.1988 47.3589 38.2324 47.7286C38.2553 47.9811 38.3341 48.3036 38.4076 48.4456C38.5326 48.6873 38.5324 48.7538 38.4035 49.4896C38.2362 50.4451 38.3143 51.0917 38.6892 51.8525C39.3202 53.1334 41.0722 54.074 43.5915 54.4842C44.0578 54.5601 44.4618 54.5997 44.4894 54.5723C44.5272 54.5345 44.1331 50.4713 44.0838 50.3912C44.0784 50.3824 43.6499 50.2467 43.1317 50.0897C42.2462 49.8214 41.1855 49.3636 41.2652 49.2841C41.2849 49.2644 41.531 49.3185 41.8121 49.4042C42.5736 49.6366 43.9744 49.9808 44.0107 49.9445C44.0414 49.9137 43.7356 47.0796 43.6987 47.0534C43.6887 47.0463 43.4565 46.9226 43.1826 46.7787C42.9088 46.6347 42.5495 46.3948 42.3843 46.2456L42.0838 45.9743L42.7224 46.2855C43.816 46.8183 43.7326 47.0879 43.3895 44.129C43.2257 42.7161 43.1095 41.5312 43.1313 41.4959C43.1531 41.4607 43.3368 41.4318 43.5394 41.4318H43.9079L43.7204 41.2323C43.4855 40.9825 43.5729 40.9789 43.9928 41.2211C44.3177 41.4084 44.3264 41.409 45.876 41.3412C48.2371 41.2378 48.048 41.2658 48.1336 41.0076C48.1995 40.8088 48.1575 40.7074 47.7696 40.13C47.5284 39.7709 47.1753 39.2617 46.985 38.9984C46.4127 38.2064 46.9311 38.6427 47.6723 39.5768C48.0236 40.0195 48.329 40.3839 48.3509 40.3867C48.4345 40.3972 50.4387 35.4283 50.3745 35.3698C50.188 35.1998 48.5484 34.7983 48.1114 34.8158C48.0456 34.8184 47.8189 34.867 47.6078 34.9237ZM83.2147 42.8347C82.8846 43.1646 82.7231 43.7568 82.7271 44.6231C82.7312 45.5287 82.9029 46.1778 83.2313 46.5292C83.5195 46.8374 83.7447 46.8432 84.0384 46.5497C84.3934 46.1949 84.542 45.5581 84.4949 44.5928C84.4479 43.6278 84.3496 43.2747 84.0253 42.9056C83.733 42.5729 83.4973 42.5523 83.2147 42.8347ZM29.6691 45.2817C29.6691 54.6967 32.8944 63.0923 38.9283 69.384C39.8752 70.3713 40.9418 71.3216 40.8563 71.1017C40.5444 70.3 29.735 43.9443 29.7062 43.9155C29.6858 43.8952 29.6691 44.5099 29.6691 45.2817ZM54.8993 52.4134C54.9003 52.451 54.9713 53.1101 55.0572 53.878C55.2637 55.7233 55.2709 55.6108 54.9398 55.7022C54.2785 55.8846 53.8597 56.4673 53.8597 57.2048C53.8597 57.8137 54.4098 62.8941 54.5088 63.1996C54.6995 63.7878 55.3084 64.2499 55.8929 64.2499C56.1353 64.2499 56.1749 64.276 56.1749 64.4365C56.1749 64.5572 56.1058 64.6547 55.9792 64.7123C55.8715 64.7613 55.7258 64.9128 55.6553 65.0489C55.5346 65.2822 55.5439 65.4063 55.8181 67.2264C55.9779 68.288 56.1506 69.2463 56.2018 69.356C56.2528 69.4657 56.429 69.621 56.5933 69.7013C56.7851 69.795 56.941 69.9517 57.0295 70.1401C57.233 70.5731 57.9477 71.2506 58.4373 71.4746C59.2903 71.8649 59.4274 71.8648 63.0041 71.4723C64.8027 71.275 66.3824 71.0821 66.5145 71.0437C67.3465 70.8017 68.1606 70.1007 68.5195 69.3171C68.89 68.5084 68.8893 68.3376 68.501 64.6488C67.8495 58.4607 67.7803 57.8643 67.7057 57.7951C67.6535 57.7468 56.4006 52.9568 54.9973 52.3857C54.9425 52.3633 54.8983 52.3758 54.8993 52.4134ZM85.1415 54.917C84.9037 55.1547 84.8966 55.1819 84.9347 55.7142C84.9862 56.4331 85.2755 57.0268 85.807 57.5044C86.1392 57.8029 86.2655 57.8672 86.5197 57.8672C86.9466 57.8672 87.1142 57.6052 87.1045 56.9525C87.0904 55.9934 86.3581 54.9005 85.611 54.7238C85.4292 54.6808 85.3421 54.7166 85.1415 54.917ZM61.475 56.7471C60.1045 56.9579 58.8571 57.8416 58.2259 59.0488C57.8282 59.8092 57.6918 60.3422 57.6918 61.136C57.6918 62.423 58.0881 63.3741 59.0067 64.2921C59.9086 65.1935 60.8918 65.6062 62.1374 65.6062C63.3928 65.6062 64.3532 65.1942 65.2785 64.2589C66.1974 63.33 66.5851 62.3844 66.58 61.0842C66.5697 58.4727 64.069 56.3481 61.475 56.7471ZM61.3055 57.4295C59.3143 57.8618 58.014 59.8538 58.4056 61.8721C58.7872 63.8382 60.7283 65.2124 62.6751 64.8946C64.596 64.581 65.915 63.0518 65.915 61.1383C65.915 59.3078 64.6921 57.8049 62.8927 57.4238C62.2493 57.2876 61.9544 57.2886 61.3055 57.4295ZM60.1842 66.776C59.6093 67.0592 59.3579 67.8627 59.6826 68.3794C59.9443 68.796 60.2934 68.9714 60.7881 68.9348C61.1365 68.909 61.2581 68.8568 61.4881 68.6339C61.9693 68.1679 62.0099 67.5156 61.5858 67.0618C61.1903 66.6386 60.676 66.5338 60.1842 66.776ZM43.0632 70.9377C42.1089 71.2745 41.3275 71.5721 41.3267 71.5991C41.3247 71.6711 42.8416 72.8408 43.7204 73.445C44.7575 74.1579 45.9609 74.8827 46.016 74.8275C46.0411 74.8025 45.9637 73.9292 45.8441 72.8868L45.6267 70.9916L45.277 70.6525C45.0847 70.466 44.8982 70.3161 44.8627 70.3194C44.8273 70.3226 44.0175 70.6009 43.0632 70.9377ZM41.0459 71.5101C41.073 71.554 41.111 71.5899 41.1304 71.5899C41.1498 71.5899 41.1656 71.554 41.1656 71.5101C41.1656 71.4663 41.1275 71.4304 41.0811 71.4304C41.0346 71.4304 41.0187 71.4663 41.0459 71.5101Z" fill="black" fill-opacity="0.981"/>
</svg>
