<svg width="132" height="88" viewBox="0 0 132 88" fill="none" xmlns="http://www.w3.org/2000/svg">
<path fill-rule="evenodd" clip-rule="evenodd" d="M86.5894 53.9184C86.3902 53.9184 86.193 53.9529 85.999 53.9372C85.8008 53.9215 85.6057 53.887 85.4127 53.8556C85.2177 53.8242 85.0279 53.7656 84.8391 53.7175C84.6488 53.6693 84.4609 53.6124 84.2759 53.5469C84.0882 53.481 83.9005 53.4213 83.7243 53.3376C83.545 53.2539 83.3856 53.1357 83.2198 53.0342C82.8808 52.8298 82.5663 52.5876 82.2823 52.3121C82.1425 52.1698 82.0119 52.0188 81.8911 51.8601C81.7653 51.6989 81.6205 51.5556 81.5199 51.3871C81.415 51.2113 81.3437 51.0219 81.2661 50.843C81.1822 50.6536 81.0878 50.4736 81.0343 50.2873C80.915 49.902 80.8705 49.4975 80.9032 49.0955C80.9147 48.9186 80.9609 48.7627 81.0028 48.6267C81.1067 48.2793 81.2241 48.2081 81.3835 48.4791C81.4664 48.6183 81.5828 48.7878 81.7128 48.9877C81.8125 49.1426 81.9383 49.3006 82.0767 49.469C82.1973 49.6176 82.3158 49.7819 82.4721 49.9274C82.6126 50.0592 82.7804 50.1722 82.9545 50.2936C83.1118 50.4056 83.267 50.5395 83.4548 50.6347C83.6268 50.7237 83.8197 50.7886 84.02 50.8587C84.2015 50.9235 84.3965 50.9769 84.6031 51.0219C84.7919 51.0638 84.9891 51.1245 85.2009 51.1475C85.3582 51.1642 85.5208 51.137 85.676 51.137C85.8857 51.137 86.085 51.1161 86.2758 51.0868C86.4835 51.0554 86.6901 51.0491 86.8736 50.9884C87.0729 50.9235 87.2575 50.8315 87.4273 50.7383C87.6119 50.6379 87.7629 50.4998 87.9108 50.3752C88.0723 50.2402 88.2265 50.1084 88.3429 49.9556C88.4708 49.7861 88.5872 49.6145 88.6575 49.4376C88.7252 49.2594 88.7772 49.0756 88.8127 48.8883C88.8547 48.6916 88.8526 48.5011 88.8505 48.3211C88.8505 48.1254 88.84 47.9381 88.7959 47.7571C88.7567 47.5703 88.6983 47.388 88.6218 47.213C88.5396 47.0415 88.4446 46.8764 88.3376 46.7191C88.2328 46.5642 88.1017 46.4261 87.979 46.2764C87.8615 46.132 87.7525 45.974 87.6224 45.8317C87.4966 45.6925 87.3413 45.5785 87.2103 45.4393C87.0897 45.3096 86.9722 45.1767 86.8526 45.0448C86.732 44.914 86.6188 44.7759 86.5055 44.6409C86.3894 44.5064 86.2785 44.3674 86.1731 44.2244C86.0678 44.0815 85.9698 43.9334 85.8794 43.7808C85.7892 43.628 85.6969 43.4731 85.6288 43.3099C85.5641 43.1436 85.5125 42.9725 85.4746 42.7982C85.4216 42.597 85.3875 42.3914 85.3729 42.1839C85.369 41.976 85.3852 41.7682 85.4211 41.5634C85.4505 41.3594 85.4924 41.1553 85.5606 40.9575C85.6262 40.7601 85.7087 40.5686 85.8071 40.3852C85.9046 40.2073 86.0525 40.0566 86.1836 39.8902C86.301 39.7406 86.3996 39.5721 86.537 39.4371C86.6733 39.3053 86.8275 39.1891 86.9816 39.073C87.1327 38.9579 87.2931 38.8532 87.4588 38.7559C87.6224 38.6596 87.7881 38.5602 87.9622 38.4817C88.1363 38.4033 88.3219 38.3499 88.5044 38.2902C88.6848 38.2306 88.8652 38.1636 89.0539 38.1228C89.2396 38.082 89.4283 38.0391 89.6202 38.0192C89.809 37.9983 90.003 38.0161 90.1949 38.0161C90.2453 38.0161 90.2967 38.0339 90.3481 38.0349C90.5368 38.0402 90.7193 38.0171 90.8913 38.0328C91.0811 38.0496 91.2584 38.0977 91.4262 38.1249C91.617 38.1563 91.7943 38.1856 91.96 38.2285C92.1466 38.2766 92.327 38.3049 92.4854 38.3645C92.6689 38.4326 92.8335 38.5131 92.9804 38.5937C93.1545 38.6879 93.2897 38.8114 93.4187 38.9129C93.5781 39.0384 93.7292 39.1431 93.8309 39.2634C93.9599 39.4172 94.0574 39.593 94.1382 39.7657C94.2221 39.9446 94.285 40.133 94.3144 40.3245C94.3358 40.5188 94.3284 40.7152 94.2923 40.9073C94.2651 41.0894 94.2326 41.2558 94.1528 41.3866C94.0607 41.5281 93.9301 41.6406 93.7764 41.711C93.6241 41.777 93.4587 41.8075 93.2929 41.7999C93.0672 41.8048 92.8428 41.7642 92.6332 41.6806C92.4812 41.6146 92.3439 41.5189 92.2295 41.3991C92.1176 41.279 92.0191 41.1471 91.9358 41.0057C91.8205 40.8236 91.7051 40.6332 91.5101 40.4699C91.3288 40.3288 91.1219 40.224 90.9007 40.1612C90.6816 40.0897 90.4527 40.0526 90.2222 40.0514C90.0544 40.0514 89.894 40.0702 89.745 40.111C89.5881 40.1489 89.4385 40.2126 89.3025 40.2993C89.1682 40.3935 89.0634 40.5212 88.9805 40.6572C88.8715 40.841 88.8197 41.053 88.8316 41.2662C88.8379 41.463 88.904 41.6618 89.0088 41.8679C89.0697 41.9851 89.1682 42.1086 89.2951 42.2551C89.3895 42.366 89.486 42.5 89.6108 42.6276C89.7178 42.7375 89.8185 42.8683 89.9422 42.9918C90.0691 43.1184 90.2212 43.2377 90.3606 43.381C90.4875 43.5118 90.627 43.6426 90.7602 43.787C90.8861 43.9231 90.9941 44.0821 91.121 44.2297C91.2426 44.372 91.3548 44.5248 91.4733 44.6775C91.5887 44.8261 91.7114 44.9726 91.8194 45.1317C91.9264 45.2876 92.0397 45.4414 92.1361 45.6078C92.2316 45.771 92.3102 45.9447 92.3931 46.1184C92.4749 46.289 92.5735 46.4554 92.6395 46.6354C92.7056 46.8133 92.756 46.9985 92.8042 47.1847C92.8514 47.3668 92.8734 47.5572 92.9007 47.7487C92.9269 47.934 92.929 48.1234 92.9342 48.318C92.9395 48.5042 92.9699 48.6957 92.9531 48.8893C92.9374 49.0756 92.9164 49.266 92.8786 49.4586C92.843 49.6406 92.7759 49.8227 92.7182 50.01C92.6619 50.1871 92.5954 50.3607 92.5189 50.5301C92.4455 50.7017 92.3784 50.8754 92.2861 51.0345C91.9975 51.5114 91.6322 51.9378 91.2049 52.2964C91.0654 52.4178 90.9322 52.5507 90.7822 52.6585C90.6312 52.7663 90.455 52.8364 90.2956 52.9295C90.1352 53.0237 89.9737 53.1095 89.8069 53.1901C89.6391 53.2696 89.4734 53.3512 89.3014 53.4182C89.1273 53.4852 88.9616 53.572 88.7844 53.6264C88.6061 53.6808 88.4194 53.6997 88.2391 53.7405C88.0576 53.7823 87.8804 53.8472 87.699 53.8744C87.5144 53.9027 87.3256 53.888 87.1431 53.9027C86.9588 53.9151 86.7741 53.9203 86.5894 53.9184ZM38.7642 55.2578C38.5513 55.2578 38.3384 55.2766 38.135 55.2337C37.9295 55.1854 37.7301 55.1145 37.5403 55.0223C37.3523 54.9288 37.1756 54.814 37.0139 54.6802C36.8487 54.5515 36.6991 54.404 36.5682 54.2407C36.4396 54.0883 36.3264 53.9235 36.2305 53.7489C36.1413 53.5772 36.092 53.3826 36.0281 53.1869C35.9659 52.9982 35.9161 52.8056 35.8791 52.6104C35.8416 52.4148 35.8143 52.2175 35.7973 52.0191C35.7816 51.8276 35.7827 51.6288 35.7827 51.4227C35.7827 51.2301 35.7533 51.0292 35.768 50.8241C35.7816 50.6306 35.8236 50.4349 35.8498 50.2319C35.875 50.0383 35.876 49.8353 35.9127 49.6333C35.9463 49.4418 35.9861 49.2441 36.0312 49.0442C36.0721 48.8642 36.1256 48.6842 36.1675 48.5001C36.2105 48.3201 36.2693 48.1411 36.3144 47.957C36.3584 47.778 36.3983 47.5949 36.4465 47.4128C36.4927 47.2329 36.5556 47.0571 36.6038 46.875C36.6531 46.6971 36.6772 46.5087 36.7286 46.3277C36.7779 46.1488 36.8188 45.9657 36.8702 45.7836C36.9226 45.6057 36.9981 45.432 37.0516 45.252C37.1051 45.0731 37.1418 44.8879 37.1964 44.7079C37.2519 44.53 37.339 44.3605 37.3956 44.1826C37.4512 44.0047 37.4931 43.8205 37.5508 43.6426L37.7249 43.1079C37.7847 42.93 37.8717 42.7626 37.9315 42.5847C37.9923 42.4068 38.0217 42.2185 38.0836 42.0406C38.1465 41.8637 38.2734 41.4598 38.3206 41.2777C38.4223 40.8832 38.4842 40.9261 38.1087 40.9481C38.0878 40.9492 37.7134 40.9544 37.6924 40.9534C37.4993 40.9414 37.3076 40.912 37.1198 40.8655C36.931 40.8142 36.7402 40.7681 36.5629 40.6886C36.3846 40.6091 36.2179 40.5034 36.0543 40.3998C35.8865 40.2952 35.7418 40.1644 35.5949 40.0419C35.3941 39.8577 35.2102 39.656 35.0454 39.4392C34.8566 39.1797 34.8776 39.1849 35.0454 39.0154C35.2572 38.803 35.5886 38.6073 35.7837 38.5027C35.9473 38.4137 36.1298 38.3279 36.3228 38.2358C36.4948 38.1542 36.6793 38.0789 36.8744 37.9941C37.0506 37.9177 37.2341 37.8371 37.4271 37.7608C37.6075 37.6875 37.7941 37.6143 37.9881 37.541C38.1706 37.472 38.3562 37.3924 38.5513 37.3223C38.7359 37.2574 38.9289 37.2051 39.125 37.1392C39.3116 37.0764 39.8685 36.886 40.0636 36.8232C40.1519 36.7964 40.2334 36.7509 40.3025 36.6899C40.3716 36.6289 40.4268 36.5537 40.4642 36.4695C40.5481 36.2916 40.7159 35.85 40.7987 35.6784C40.8826 35.5016 40.9802 35.3331 41.0641 35.1625C41.1522 34.9846 41.2413 34.813 41.3262 34.6446C41.4164 34.4667 41.494 34.2888 41.5811 34.1213C41.6744 33.9435 41.7803 33.7802 41.8684 33.6159C41.9649 33.437 42.0425 33.2591 42.1327 33.099C42.2334 32.919 42.3194 32.7443 42.4117 32.5904C42.5218 32.4063 42.6476 32.2566 42.741 32.1154C42.848 31.9521 42.9738 31.8088 43.0902 31.6633C43.2119 31.5106 43.3125 31.3452 43.4426 31.2113C43.5779 31.0711 43.7341 30.9591 43.8757 30.8367C44.0236 30.7111 44.1694 30.5887 44.3235 30.4809C44.4819 30.3689 44.6287 30.2434 44.7923 30.1502C44.9589 30.0565 45.1297 29.9702 45.3041 29.8918C45.4813 29.8101 45.668 29.7641 45.8442 29.6992C46.0277 29.6333 46.2007 29.5443 46.379 29.4952C46.5678 29.4428 46.7597 29.4115 46.9411 29.3748C47.1352 29.3361 47.3239 29.2995 47.5064 29.2765C47.7057 29.2514 47.8976 29.2576 48.078 29.2451C48.2825 29.2336 48.616 29.1844 48.875 29.2315C49.1865 29.288 49.2421 29.356 49.0879 29.5852C48.9946 29.7243 48.81 30.0403 48.6873 30.2277C48.5908 30.3773 48.4775 30.5363 48.3643 30.7153C48.2667 30.8702 48.1619 31.0355 48.0528 31.2123C47.9542 31.3693 47.8462 31.5325 47.7392 31.7083C47.6417 31.8684 47.5484 32.04 47.4435 32.2158L47.1456 32.7192C47.0492 32.8834 46.9464 33.0509 46.8457 33.2246C46.7503 33.3899 46.6391 33.5521 46.5395 33.7268C46.4451 33.8932 46.3591 34.0701 46.2616 34.2438C46.1672 34.4112 45.9396 34.8821 45.8358 35.0547C45.6239 35.4084 45.8169 35.4001 46.0015 35.3613C46.1861 35.3226 46.6832 35.1751 46.8677 35.1374C47.0523 35.1008 47.2348 35.0547 47.4204 35.0192C47.606 34.9836 47.7948 34.9742 47.9804 34.9396C48.1661 34.9062 48.3527 34.8821 48.5373 34.8496C48.724 34.8162 48.9065 34.7712 49.0921 34.7408C49.2777 34.7094 49.4623 34.6665 49.6479 34.6362C49.8335 34.6069 50.0213 34.5901 50.2079 34.5629C50.3946 34.5336 50.5771 34.4813 50.7638 34.4552C50.9515 34.4279 51.1392 34.4091 51.3259 34.384C51.5126 34.3589 51.7024 34.3505 51.8891 34.3275C52.0768 34.3034 52.2645 34.2961 52.4512 34.2741C52.6399 34.2521 52.8224 34.1956 53.0091 34.1758C53.1979 34.1548 53.3845 34.1297 53.5702 34.1119C53.7589 34.0931 53.9477 34.0973 54.1354 34.0805C54.3232 34.0627 54.5119 34.0544 54.6976 34.0387C54.8863 34.024 55.073 33.9905 55.2607 33.9769C55.4495 33.9633 55.6383 33.9602 55.826 33.9487C56.0148 33.9372 56.2035 33.933 56.3892 33.9236C56.5779 33.9142 56.7667 33.9131 56.9523 33.9068C57.1421 33.8995 57.3299 33.8713 57.5165 33.866C57.7053 33.8608 57.893 33.8943 58.0787 33.8922C58.2674 33.889 58.4541 33.888 58.6397 33.888C58.8274 33.888 59.0162 33.8796 59.2071 33.8828C59.3948 33.8859 59.5836 33.8597 59.7734 33.866C59.9611 33.8713 60.1488 33.9079 60.3376 33.9163C60.5264 33.9236 60.7162 33.9016 60.906 33.9131C61.0948 33.9257 61.2815 33.9738 61.4692 33.9895C61.658 34.0041 61.8478 34.0041 62.0366 34.023C62.2253 34.0418 62.411 34.0816 62.5987 34.1036C62.7875 34.1266 62.9804 34.1098 63.1681 34.137C63.3569 34.1632 63.5436 34.1915 63.7303 34.2218C63.918 34.2532 64.1036 34.2919 64.2882 34.3285C64.4759 34.3652 64.6552 34.4279 64.8398 34.4698C65.0254 34.5117 65.2111 34.5514 65.3925 34.5996C65.5781 34.6477 65.7648 34.6812 65.9452 34.7356C66.1287 34.791 66.307 34.857 66.4842 34.9187C66.6657 34.9815 66.8418 35.0495 67.017 35.1196C67.1953 35.1897 67.3578 35.2891 67.5288 35.3666C67.8731 35.5225 68.2076 35.6994 68.5303 35.8961C68.6928 35.9976 68.8554 36.0949 69.0054 36.2058C69.1595 36.3199 69.32 36.4245 69.4595 36.549C69.6021 36.6746 69.7196 36.8263 69.8475 36.9644C69.9775 37.1036 70.096 37.2501 70.2083 37.4008C70.3226 37.5515 70.4369 37.7043 70.5155 37.8759C70.6687 38.2139 70.4757 38.1553 70.3058 38.0579C70.1432 37.9638 69.9566 37.9052 69.7825 37.8183C69.6147 37.7346 69.4532 37.6258 69.2749 37.5483C69.099 37.471 68.9214 37.3978 68.7421 37.3286C68.566 37.2616 68.3751 37.224 68.1916 37.1612C68.0112 37.1026 67.835 37.023 67.6483 36.9686C67.4669 36.9163 67.2813 36.865 67.0925 36.8179C66.9079 36.7729 66.7244 36.7133 66.5335 36.6725C66.3479 36.6327 66.1581 36.5992 65.9662 36.5647C65.7795 36.5312 65.5876 36.5166 65.3946 36.4873C65.2069 36.459 65.0171 36.4276 64.8251 36.4036C64.6364 36.3805 64.4444 36.3722 64.2504 36.3533C64.0617 36.3345 63.8697 36.3261 63.6757 36.3115C63.487 36.2968 63.2961 36.2654 63.1021 36.255C62.9112 36.2445 62.7193 36.2477 62.5253 36.2403C62.3344 36.233 62.1414 36.2351 61.9464 36.232C61.7565 36.2288 61.5636 36.2079 61.3696 36.2079C61.1756 36.2079 60.9815 36.2361 60.7865 36.2393C60.5925 36.2424 60.3984 36.2089 60.2034 36.2152C60.0094 36.2215 59.8154 36.2278 59.6213 36.2361C59.4263 36.2456 59.2333 36.2613 59.0393 36.2738C58.6515 36.2972 58.2641 36.3269 57.8773 36.3628C57.6833 36.3795 57.4882 36.3858 57.2953 36.4046C57.1012 36.4245 56.9104 36.4695 56.7185 36.4904C56.5234 36.5113 56.3325 36.549 56.1417 36.5731C55.9466 36.5961 55.7505 36.6045 55.5586 36.6296C55.3645 36.6558 55.1684 36.6673 54.9765 36.6955C54.7836 36.7227 54.5927 36.7688 54.4018 36.797C54.2078 36.8274 54.018 36.8703 53.8271 36.9017C53.6331 36.9331 53.4359 36.9289 53.2461 36.9623C53.0521 36.9958 52.8654 37.0523 52.6756 37.0869C52.4826 37.1224 52.2918 37.1538 52.103 37.1894C51.91 37.2271 51.7171 37.2512 51.5283 37.2888L50.9578 37.4039C50.7659 37.4447 50.5802 37.5013 50.3925 37.5421C50.1996 37.5839 50.0045 37.6048 49.8199 37.6467C49.6269 37.6896 49.4424 37.7513 49.2567 37.7953C49.0648 37.8403 48.8719 37.8685 48.6873 37.9125C48.4954 37.9596 48.315 38.0402 48.1325 38.0851C47.9511 38.1312 47.7581 38.1647 47.5609 38.217C47.3795 38.2651 47.197 38.3405 47.0009 38.3949C46.8195 38.4451 46.6265 38.4796 46.4315 38.5351C46.25 38.5874 46.0571 38.6251 45.8631 38.6816C45.6806 38.735 45.496 38.804 45.303 38.8616C45.1206 38.916 44.9328 38.9704 44.7399 39.029C44.5574 39.0845 43.9984 39.2488 43.8096 39.322C43.5034 39.4392 43.4772 39.5459 43.3922 39.7196C43.3209 39.863 43.2643 40.0252 43.193 40.1696C43.1091 40.3402 43.0168 40.4898 42.9644 40.6018C42.8805 40.7786 42.8175 40.9638 42.7368 41.1375C42.6539 41.3154 42.5585 41.486 42.4788 41.6597C42.397 41.8376 42.3299 42.0207 42.2523 42.1965C42.1726 42.3754 42.1159 42.5627 42.0404 42.7396C41.9628 42.9185 41.8653 43.088 41.7898 43.2659C41.7143 43.4459 41.6535 43.6322 41.58 43.8101C41.5066 43.9911 41.4143 44.1637 41.3441 44.3437C41.2728 44.5248 41.2109 44.7089 41.1427 44.8889C41.0735 45.071 41.0221 45.2583 40.956 45.4393C40.89 45.6224 40.8019 45.7972 40.7379 45.9793C40.675 46.1624 40.6246 46.3507 40.5628 46.5339C40.5009 46.718 40.4453 46.9032 40.3855 47.0885C40.3268 47.2716 40.2618 47.4547 40.2052 47.6399C40.1496 47.8251 40.0772 48.0051 40.0227 48.1914C39.9681 48.3766 39.9409 48.5702 39.8884 48.7575C39.836 48.9437 39.7972 49.1342 39.7479 49.3225C39.6955 49.5172 39.6084 49.6961 39.5633 49.8803C39.514 50.077 39.4878 50.2727 39.4459 50.4579C39.4008 50.6567 39.3693 50.8503 39.3337 51.0345C39.2938 51.2354 39.2519 51.4258 39.2225 51.61C39.1889 51.814 39.1669 52.0076 39.1449 52.1918C39.1218 52.3979 39.0715 52.5894 39.0631 52.7715C39.0526 52.9839 39.0599 53.1807 39.0704 53.3596C39.083 53.5762 39.1501 53.7625 39.1931 53.932C39.2477 54.1465 39.2938 54.3348 39.3966 54.474C39.4794 54.5849 39.5749 54.6833 39.6965 54.7377C39.9692 54.857 39.9535 54.9868 39.8496 55.0412C39.7448 55.0945 39.62 55.1427 39.4752 55.1824C39.2428 55.2399 39.0037 55.2663 38.7642 55.2609V55.2567M50.8351 42.3828C50.6526 42.3828 50.4743 42.4591 50.2897 42.5261C50.1219 42.5858 49.952 42.6621 49.7864 42.7731C49.6385 42.8725 49.4801 42.9771 49.3354 43.1142C49.1982 43.244 49.0686 43.3817 48.9474 43.5265C48.8299 43.6657 48.7271 43.8247 48.6149 43.9859C48.51 44.1344 48.3832 44.2788 48.2825 44.4452C48.0887 44.7699 47.9137 45.1053 47.7581 45.4498C47.6816 45.6172 47.5987 45.7878 47.5253 45.9667C47.4561 46.1373 47.4225 46.3277 47.3575 46.5077C47.2946 46.6824 47.2107 46.8541 47.1519 47.0372C47.0953 47.214 47.0701 47.4034 47.0177 47.5876C46.9663 47.7665 46.917 47.9497 46.8709 48.1349C46.8258 48.3169 46.7713 48.498 46.7314 48.6853C46.6884 48.8851 46.637 49.0766 46.6056 49.2629C46.5709 49.4669 46.55 49.6637 46.529 49.8489C46.5059 50.0582 46.4766 50.2528 46.4703 50.438C46.464 50.6504 46.4944 50.8461 46.5101 51.0282C46.53 51.2448 46.5751 51.4321 46.6265 51.6037C46.6895 51.813 46.7545 51.9951 46.8656 52.1332C47.0471 52.3582 47.2851 52.4534 47.5714 52.4534C47.7487 52.4534 47.9437 52.4408 48.143 52.355C48.3194 52.2698 48.4863 52.1663 48.6411 52.0463C48.788 51.9396 48.9369 51.813 49.0868 51.6686C49.2211 51.5409 49.3763 51.4175 49.5105 51.2626C49.6332 51.1213 49.7287 50.9455 49.8503 50.7823C49.9625 50.6306 50.0664 50.4642 50.1723 50.2905C50.2719 50.1283 50.4051 49.9765 50.4974 49.7987C50.5876 49.6281 50.6641 49.445 50.7459 49.2629C50.8256 49.085 50.876 48.8935 50.9494 48.7083C51.0207 48.5273 51.1088 48.3494 51.1738 48.1631C51.2367 47.9769 51.3133 47.7937 51.3689 47.6043C51.4255 47.416 51.4654 47.2214 51.5136 47.032C51.5629 46.8394 51.586 46.6427 51.6258 46.4512C51.6678 46.2566 51.7171 46.064 51.7485 45.8746C51.781 45.6748 51.8282 45.4812 51.8482 45.2886C51.8697 45.0925 51.8847 44.8956 51.8933 44.6985C51.9016 44.4923 51.8807 44.2935 51.8723 44.1072C51.8618 43.898 51.8618 43.697 51.8293 43.5181C51.7884 43.3057 51.6982 43.1257 51.6227 42.9666C51.5586 42.818 51.4619 42.6857 51.3395 42.5795C51.2147 42.4748 51.0588 42.4141 50.8959 42.4068C50.8634 42.4016 50.8665 42.3828 50.8351 42.3828ZM47.1645 55.285C46.96 55.285 46.7566 55.3143 46.5594 55.2871C46.3595 55.2562 46.1622 55.2107 45.969 55.151C45.776 55.0945 45.5935 55.0087 45.41 54.924C45.2269 54.8406 45.0499 54.7445 44.8804 54.6362C44.7136 54.5284 44.5427 54.4227 44.3854 54.2899C44.2417 54.1695 44.1264 54.022 43.9995 53.8901C43.7421 53.6249 43.5143 53.3326 43.3199 53.0185C43.2261 52.8592 43.141 52.6951 43.065 52.5266C42.9864 52.3613 42.8815 52.2044 42.8196 52.0286C42.7588 51.8549 42.7284 51.6707 42.6844 51.4886C42.6424 51.3107 42.5774 51.1339 42.5501 50.9487C42.5238 50.7647 42.5056 50.5796 42.4956 50.3941C42.4851 50.2109 42.4956 50.0247 42.4998 49.8374C42.504 49.6543 42.5302 49.4711 42.5491 49.2838C42.5653 49.0992 42.5884 48.9153 42.6183 48.7324C42.6497 48.5524 42.7022 48.3755 42.7452 48.1924C42.7882 48.0145 42.8123 47.8293 42.8679 47.6483C42.9203 47.4746 42.9696 47.2936 43.0357 47.1167C43.1017 46.9357 43.193 46.7672 43.2612 46.5946C43.3335 46.4156 43.3891 46.2325 43.4625 46.0619C43.5401 45.8851 43.6492 45.7271 43.7289 45.5597C43.8107 45.3849 43.881 45.2081 43.9659 45.0427C44.055 44.8722 44.1442 44.7037 44.2354 44.5425C44.3309 44.3741 44.4525 44.2255 44.55 44.0675C44.6528 43.9032 44.7273 43.7253 44.8322 43.5725C44.9423 43.4124 45.0471 43.2534 45.1594 43.1058C45.2758 42.951 45.4268 42.8296 45.5463 42.6873C45.6711 42.5387 45.7875 42.3911 45.9134 42.2561C46.0466 42.1149 46.1598 41.96 46.293 41.8334C46.4336 41.6994 46.5898 41.5896 46.7314 41.4713C46.8803 41.3458 47.0376 41.2422 47.1866 41.1333C47.3439 41.0182 47.4907 40.9021 47.6469 40.8037C47.8116 40.6991 47.9647 40.5861 48.1273 40.5003C48.2993 40.4082 48.4765 40.3381 48.6432 40.2648C48.8236 40.1863 49.0061 40.1361 49.1781 40.0765C49.3637 40.0105 49.5451 39.9561 49.7203 39.909C49.9122 39.8599 50.0915 39.7992 50.2677 39.7678C50.467 39.7332 50.6558 39.7311 50.8309 39.7155C51.0396 39.6956 51.2263 39.6527 51.392 39.6527C51.4853 39.6527 51.5776 39.661 51.6699 39.6652C51.8691 39.6736 52.0684 39.7071 52.2655 39.7531C52.6591 39.8398 53.0357 39.9904 53.3803 40.1989C53.5502 40.3014 53.7233 40.4082 53.8816 40.5358C54.0358 40.6614 54.1753 40.809 54.3137 40.9575C54.4501 41.1019 54.5885 41.2505 54.707 41.4159C54.815 41.5655 54.901 41.7319 54.9922 41.8951C55.0824 42.0563 55.1716 42.2195 55.245 42.3922C55.3184 42.5606 55.3918 42.7323 55.4495 42.9122C55.5051 43.087 55.5135 43.2764 55.5544 43.4606C55.5942 43.6395 55.6655 43.8153 55.6907 44.0026C55.7148 44.1836 55.719 44.3709 55.7295 44.5593C55.74 44.7424 55.7421 44.9276 55.74 45.116C55.7379 45.2991 55.74 45.4854 55.7264 45.6737C55.7127 45.8568 55.6771 46.04 55.6519 46.2283C55.6278 46.4093 55.6152 46.5956 55.5806 46.7808C55.547 46.9608 55.5198 47.1471 55.4757 47.3312C55.4338 47.5091 55.3582 47.6828 55.3069 47.8649C55.2534 48.0512 55.1779 48.2311 55.1129 48.4153C55.0478 48.5995 55.0101 48.7931 54.9346 48.9741C54.8601 49.153 54.7563 49.3204 54.6724 49.4973C54.5864 49.672 54.5046 49.8478 54.4102 50.0195C54.3158 50.19 54.2414 50.3731 54.1386 50.5385C54.035 50.704 53.9273 50.867 53.8156 51.0271C53.7044 51.1883 53.5681 51.3306 53.4496 51.4855C53.3321 51.6403 53.2346 51.814 53.1098 51.9626C52.9839 52.1123 52.8434 52.2504 52.7113 52.3927C52.5781 52.5371 52.447 52.6815 52.3075 52.8176C52.167 52.9536 52.0076 53.0687 51.8618 53.1974C51.715 53.3272 51.5807 53.4716 51.4297 53.5919C51.2745 53.7133 51.1088 53.8179 50.9515 53.9288C50.79 54.0429 50.619 54.1371 50.4544 54.2386C50.2866 54.3411 50.1293 54.4583 49.9594 54.5483C49.7843 54.6404 49.6039 54.7178 49.4277 54.7942C49.0712 54.9516 48.7003 55.0742 48.3202 55.1605C48.1316 55.2091 47.9404 55.2475 47.7476 55.2756C47.5515 55.2986 47.3575 55.285 47.1645 55.285ZM61.7356 55.3164C61.5321 55.3164 61.3287 55.3478 61.1305 55.3227C60.9303 55.2941 60.732 55.2533 60.5369 55.2002C60.3408 55.151 60.1541 55.0726 59.9674 54.9993C59.78 54.9259 59.5975 54.8406 59.421 54.744C59.2438 54.6467 59.0666 54.5525 58.903 54.4332C58.7415 54.3139 58.6051 54.1632 58.4583 54.0241C58.1812 53.7582 57.9356 53.4615 57.7263 53.1398C57.6303 52.9839 57.5427 52.8228 57.4641 52.6575C57.3823 52.4942 57.2753 52.3404 57.2093 52.1667C57.1463 51.9972 57.1107 51.814 57.0624 51.6351C57.0142 51.4604 56.945 51.2867 56.9114 51.1035C56.8792 50.9221 56.854 50.7396 56.8359 50.5563C56.817 50.3763 56.8181 50.19 56.8118 50.0038C56.8076 49.8238 56.8223 49.6396 56.8296 49.4523C56.837 49.2713 56.8433 49.0881 56.8611 48.9029C56.88 48.7219 56.9188 48.5419 56.9481 48.3567C56.9764 48.1778 56.9848 47.9915 57.0236 47.8094C57.0645 47.6169 57.097 47.4233 57.1453 47.236C57.1935 47.0456 57.269 46.8635 57.3246 46.6783C57.3812 46.4899 57.4232 46.2974 57.4872 46.1143C57.5501 45.929 57.6508 45.7574 57.7221 45.5774C57.7945 45.3943 57.8553 45.2091 57.935 45.0323C58.0147 44.8544 58.0975 44.6765 58.1856 44.5028C58.2737 44.328 58.3912 44.17 58.4866 44.0015C58.5831 43.831 58.6544 43.6458 58.7572 43.4825C58.8621 43.3172 58.9669 43.1508 59.0781 42.9928C59.1914 42.8327 59.3413 42.7019 59.4619 42.5502C59.5836 42.3953 59.7 42.2404 59.829 42.095C59.958 41.9485 60.0702 41.7863 60.2065 41.6482C60.345 41.509 60.5002 41.3897 60.6449 41.261C60.7917 41.1292 60.949 41.0161 61.1021 40.8958C61.2553 40.7744 61.4021 40.6478 61.5615 40.5379C61.723 40.426 61.8751 40.3025 62.0418 40.2031C62.2096 40.1026 62.3879 40.0221 62.5609 39.9342C62.7361 39.8463 62.9206 39.7845 63.0989 39.7092C63.2793 39.6349 63.4607 39.5669 63.6443 39.5062C63.8299 39.4444 64.0103 39.3701 64.199 39.3241C64.3878 39.2781 64.5829 39.2613 64.7748 39.2299C64.9667 39.1985 65.1555 39.1389 65.3495 39.1232C65.5442 39.1094 65.7395 39.1034 65.9347 39.1054C65.9777 39.1054 65.9777 39.1117 66.0217 39.1127C66.4347 39.112 66.8448 39.1803 67.2351 39.3147C67.4323 39.3816 67.6263 39.4559 67.8046 39.5554C67.985 39.6558 68.1496 39.7856 68.308 39.9153C68.4674 40.0451 68.6236 40.1811 68.7589 40.3391C68.8911 40.4929 68.998 40.6708 69.105 40.8508C69.3104 41.1838 69.4625 41.5468 69.556 41.9265C69.5989 42.1159 69.5885 42.3147 69.6031 42.5104C69.6168 42.703 69.6566 42.8976 69.643 43.0933C69.6235 43.2878 69.5906 43.4808 69.5444 43.6709C69.5035 43.8592 69.4469 44.0455 69.3787 44.2307C69.3156 44.4156 69.2406 44.5963 69.1543 44.7717C69.0534 44.958 68.9355 45.1346 68.8019 45.2991C68.6572 45.4854 68.5198 45.6517 68.3562 45.747C68.0542 45.9217 67.7542 45.9196 67.7542 45.9196C67.5908 45.9126 67.4313 45.8675 67.2886 45.7878C67.1481 45.7187 66.996 45.6476 66.8754 45.523C66.7663 45.41 66.6887 45.2614 66.6059 45.1097C66.524 44.9659 66.4619 44.8117 66.4213 44.6514C66.3825 44.4819 66.3437 44.3144 66.3615 44.1564C66.3809 43.9881 66.4382 43.8264 66.5293 43.6834C66.6583 43.4825 66.7569 43.2816 66.7768 43.0723C66.7967 42.8495 66.7233 42.6391 66.6143 42.4393C66.5042 42.2289 66.3322 42.0573 66.1214 41.9474C65.9073 41.8422 65.671 41.7898 65.4324 41.7947C65.2855 41.7947 65.0968 41.7894 64.8765 41.8512C64.7192 41.8962 64.5556 41.9862 64.3679 42.0856C64.219 42.1651 64.0533 42.2509 63.8886 42.3765C63.7523 42.4811 63.5992 42.592 63.4534 42.7343C63.3296 42.8557 63.2195 43.0096 63.0905 43.1634C62.9773 43.2994 62.8556 43.4417 62.7392 43.6029C62.6258 43.762 62.5173 43.9246 62.4141 44.0905C62.3092 44.2569 62.2054 44.4222 62.111 44.5928C62.0166 44.7654 61.9369 44.9444 61.853 45.1202C61.769 45.2968 61.6899 45.4758 61.616 45.657C61.5416 45.838 61.4692 46.0201 61.4052 46.2042C61.3402 46.3895 61.2668 46.5726 61.2133 46.7588C61.1588 46.9493 61.1242 47.1418 61.0822 47.3312C61.0392 47.5248 61.013 47.7184 60.9826 47.9088C60.9522 48.1056 60.9406 48.3012 60.9249 48.4927C60.9104 48.687 60.9041 48.8818 60.906 49.0766C60.906 49.2775 60.8945 49.4722 60.9134 49.6626C60.9343 49.8614 60.9448 50.0603 60.9868 50.2434C61.0308 50.4401 61.1095 50.6222 61.1787 50.798C61.2542 50.9863 61.3517 51.1538 61.4535 51.3107C61.5636 51.4781 61.6695 51.6435 61.81 51.7711C61.9548 51.904 62.1142 52.0244 62.2883 52.1102C62.4582 52.1949 62.6511 52.2462 62.8472 52.2849C63.0339 52.3216 63.2248 52.3268 63.4094 52.3268C63.607 52.3302 63.8044 52.3137 63.9987 52.2776C64.1938 52.2357 64.3742 52.152 64.5546 52.0788C64.7381 52.0024 64.9153 51.9187 65.0842 51.8172C65.2541 51.7146 65.425 51.6152 65.5792 51.4949C65.7386 51.3714 65.9001 51.2521 66.0406 51.1213C66.1916 50.9821 66.307 50.8158 66.437 50.6787C66.5839 50.5249 66.7128 50.3731 66.8324 50.2413C67.3704 49.6469 67.512 49.6239 67.4795 50.1754C67.4711 50.3166 67.448 50.4862 67.3977 50.6766C67.2997 51.0194 67.1763 51.3545 67.0285 51.6791C66.9583 51.836 66.8691 52.0014 66.7737 52.1782C66.6877 52.3341 66.6122 52.5089 66.5042 52.6731C66.4056 52.8238 66.2671 52.9557 66.1476 53.1085C66.0329 53.2559 65.9115 53.398 65.7837 53.5343C65.6579 53.6734 65.5252 53.8061 65.3862 53.932C65.2488 54.0523 65.1198 54.1936 64.9646 54.3045C64.8146 54.4112 64.6416 54.4887 64.4749 54.5839C64.3154 54.676 64.1634 54.789 63.9872 54.8675C63.8194 54.9428 63.6306 54.9773 63.4482 55.038C63.2751 55.0956 63.0989 55.1615 62.9112 55.2055C62.7172 55.2494 62.52 55.263 62.3239 55.286C62.1285 55.3074 61.9321 55.3176 61.7356 55.3164ZM23.5367 56.03C23.3395 56.03 23.1413 56.0677 22.9462 56.0572C22.7491 56.0468 22.5529 56.0196 22.3589 55.9976C22.1628 55.9767 21.9709 55.9327 21.7779 55.9003C21.5843 55.8684 21.3916 55.831 21.2001 55.7883C21.0061 55.7444 20.8121 55.7098 20.6264 55.6554C20.4345 55.5989 20.2562 55.511 20.0748 55.444C19.891 55.3769 19.7098 55.3029 19.5316 55.2222C19.3536 55.1418 19.1793 55.0534 19.0093 54.9575C18.8393 54.8576 18.6745 54.7493 18.5153 54.6331C18.3517 54.518 18.1724 54.4248 18.0256 54.2961C17.8746 54.1653 17.7487 54.0115 17.6155 53.8671C17.4792 53.7206 17.3292 53.5877 17.2128 53.4307C17.094 53.2718 16.9844 53.1062 16.8846 52.9347C16.7839 52.7621 16.7042 52.579 16.6255 52.399C16.5458 52.2169 16.4902 52.0265 16.4336 51.8381C16.3747 51.6493 16.3274 51.4571 16.292 51.2626C16.2585 51.068 16.2532 50.8702 16.2448 50.6724C16.2364 50.4757 16.2134 50.2779 16.2312 50.0801C16.248 49.8834 16.2658 49.6846 16.3078 49.49C16.3497 49.2985 16.4252 49.1133 16.4923 48.9249C16.5605 48.7303 16.6234 48.5377 16.7136 48.3682C16.8091 48.1872 16.9443 48.0375 17.0618 47.8806C17.1824 47.7184 17.3009 47.5583 17.4404 47.4202C17.5841 47.2799 17.7351 47.1481 17.8934 47.032C18.0549 46.9116 18.2374 46.8289 18.4094 46.7316C18.5845 46.6333 18.7482 46.515 18.9296 46.4386C19.1127 46.3594 19.2996 46.2892 19.4896 46.2283C19.6857 46.1676 19.8902 46.1603 20.079 46.1205C20.2824 46.0787 20.4775 46.0368 20.6663 46.0169C20.8781 45.9939 21.0774 45.951 21.2578 45.9552C21.8755 45.9688 21.7821 46.1582 21.4748 46.2974C21.3112 46.3727 21.177 46.514 21.026 46.6343C20.8855 46.7473 20.7617 46.8875 20.6275 47.0267C20.5027 47.1565 20.3705 47.2883 20.2583 47.4432C20.1514 47.5897 20.0339 47.7362 19.9437 47.9067C19.855 48.0724 19.7772 48.2437 19.7109 48.4195C19.648 48.5869 19.6123 48.7721 19.5651 48.9605C19.5232 49.1342 19.4665 49.3152 19.4393 49.5088C19.412 49.7181 19.434 49.9274 19.4393 50.1314C19.443 50.5463 19.5164 50.9577 19.6564 51.3484C19.804 51.7366 20.0208 52.095 20.2961 52.4063C20.4188 52.5476 20.5583 52.6679 20.7019 52.7883C20.8446 52.9086 20.9872 53.0268 21.1455 53.1241C21.3039 53.2215 21.4748 53.2958 21.6468 53.369C21.8167 53.4423 21.9866 53.5197 22.1681 53.5689C22.3463 53.617 22.5299 53.6463 22.7165 53.6714C22.899 53.6955 23.0846 53.6976 23.2734 53.6976C23.4601 53.6976 23.6531 53.7248 23.845 53.6997C24.0296 53.6767 24.2089 53.6003 24.3966 53.5532C24.577 53.5061 24.7616 53.46 24.9419 53.3899C25.1195 53.3218 25.2932 53.2439 25.4621 53.1566C25.6268 53.0697 25.7841 52.964 25.9445 52.8552C26.0997 52.7527 26.2623 52.6543 26.4133 52.5308C26.557 52.4126 26.686 52.2734 26.8255 52.1363C26.9576 52.0066 27.0772 51.8611 27.2051 51.7136C27.3257 51.5734 27.4662 51.4415 27.5816 51.2846C27.6917 51.136 27.8144 50.9884 27.9193 50.8241C28.0179 50.6672 28.0871 50.4861 28.1804 50.3156C28.2696 50.1523 28.3797 49.9954 28.4636 49.8196C28.5443 49.6522 28.6167 49.4764 28.6922 49.2964C28.7635 49.1258 28.8076 48.9385 28.8736 48.7564C28.9366 48.5817 29.0037 48.4038 29.0624 48.2186C29.119 48.0407 29.1987 47.8659 29.2512 47.6786C29.3005 47.4997 29.3162 47.3072 29.3613 47.1188C29.4032 46.9357 29.4588 46.7526 29.4976 46.5632C29.5343 46.379 29.5637 46.1906 29.5962 45.9981C29.6298 45.8056 29.6822 45.6109 29.7042 45.41C29.7263 45.2143 29.7189 45.0124 29.7315 44.8115C29.743 44.6137 29.7661 44.4149 29.7692 44.2129C29.7734 44.0162 29.7881 43.8153 29.786 43.6144C29.7829 43.4156 29.7525 43.2167 29.7441 43.0158C29.7367 42.817 29.7346 42.6182 29.7221 42.4183C29.7095 42.2195 29.6948 42.0196 29.6801 41.8198C29.6644 41.621 29.6528 41.4211 29.635 41.2223C29.6172 41.0235 29.5899 40.8246 29.571 40.6258L29.5123 40.0294C29.4934 39.841 29.4777 39.6516 29.4599 39.4643C29.442 39.276 29.4399 39.0855 29.4232 38.8961C29.4064 38.7078 29.377 38.5194 29.3602 38.3311C29.3456 38.1427 29.3225 37.9543 29.3099 37.766C29.2963 37.5776 29.2743 37.3882 29.2648 37.1999C29.2554 37.0094 29.2428 36.82 29.2386 36.6317C29.2323 36.4412 29.2522 36.2518 29.2522 36.0635C29.2522 35.872 29.2753 35.6836 29.2805 35.4963C29.2868 35.3048 29.2743 35.1154 29.2879 34.9281C29.3026 34.7366 29.3099 34.5472 29.333 34.361C29.3561 34.1705 29.4095 33.9874 29.4431 33.8032C29.4767 33.6149 29.5238 33.4328 29.5689 33.2518C29.6161 33.0666 29.6549 32.8814 29.7137 32.7035C29.7745 32.5224 29.829 32.3414 29.9045 32.1698C29.979 31.995 30.0744 31.8308 30.1667 31.6654C30.2569 31.5011 30.3366 31.3264 30.4446 31.1715C30.5556 31.0176 30.675 30.8698 30.8022 30.7289C30.926 30.5887 31.0697 30.4652 31.2113 30.3354C31.3507 30.2099 31.5028 30.1021 31.6517 29.9891C31.7996 29.875 31.9338 29.74 32.0922 29.6406C32.2495 29.5402 32.41 29.4418 32.5757 29.3549C32.7414 29.2691 32.9217 29.2085 33.0937 29.1373C33.2657 29.0651 33.444 29.0075 33.6223 28.9489C33.7995 28.8924 33.9747 28.8234 34.1571 28.7794C34.3375 28.7376 34.5242 28.7093 34.7098 28.68C34.8933 28.6518 35.08 28.6361 35.2667 28.6225C35.4523 28.6089 35.639 28.6089 35.8278 28.6089C36.0228 28.6089 36.2158 28.5932 36.4046 28.6078C36.5986 28.6225 36.7842 28.6811 36.9709 28.7104C37.1638 28.7407 37.3505 28.7773 37.534 28.8223C37.7239 28.8684 37.9095 28.9134 38.0878 28.9751C38.2723 29.0379 38.4611 29.0829 38.6321 29.1624C38.8103 29.244 38.9666 29.3612 39.125 29.4585C39.2928 29.5611 39.47 29.6448 39.6147 29.763C39.7678 29.8865 39.8821 30.0456 40.0069 30.1837C40.138 30.3302 40.2649 30.4725 40.3625 30.6337C40.4621 30.8011 40.5261 30.979 40.5869 31.159C40.6477 31.341 40.7274 31.52 40.7442 31.7125C40.7589 31.8758 40.7526 32.0432 40.7222 32.2001C40.6907 32.3571 40.633 32.5141 40.5586 32.6595C40.4873 32.8008 40.374 32.9211 40.2628 33.0415C40.137 33.1806 39.9933 33.302 39.8329 33.3972C39.6742 33.4987 39.5024 33.5779 39.3221 33.6327C38.9954 33.7136 38.6547 33.7208 38.3248 33.6536C38.1832 33.6243 38.05 33.5573 37.9116 33.5019C37.6358 33.392 37.5173 33.2769 37.4722 33.1252C37.4218 32.9536 37.469 32.7621 37.5309 32.5287C37.576 32.3561 37.6148 32.1656 37.619 31.971C37.6184 31.7841 37.563 31.6015 37.4596 31.4457C37.367 31.2817 37.24 31.1396 37.0873 31.0292C36.9333 30.9204 36.7625 30.8374 36.5818 30.7833C36.4011 30.7271 36.2132 30.6972 36.0239 30.6944C35.8424 30.6944 35.6568 30.7257 35.4785 30.7707C35.3008 30.8174 35.1287 30.8838 34.9657 30.9685C34.8073 31.0501 34.6742 31.1788 34.5284 31.296C34.3889 31.408 34.2379 31.5126 34.1152 31.6539C33.9998 31.7868 33.8824 31.9427 33.7712 32.1248C33.6768 32.2786 33.6118 32.4628 33.53 32.6553C33.4566 32.8228 33.3685 32.9965 33.3098 33.1953C33.2584 33.3711 33.2112 33.5615 33.1745 33.7635C33.1409 33.9445 33.0979 34.136 33.079 34.34C33.0623 34.5346 33.0529 34.7297 33.0507 34.925C33.0465 35.1113 33.0654 35.3059 33.0738 35.5099C33.0822 35.6962 33.0916 35.8908 33.1115 36.0928C33.1304 36.2811 33.1671 36.4726 33.1954 36.6725C33.2227 36.8556 33.2594 37.0398 33.2898 37.2281C33.3213 37.4113 33.3339 37.5996 33.3674 37.7869C33.3989 37.97 33.445 38.1532 33.4807 38.3405C33.5143 38.5225 33.5562 38.7067 33.5919 38.8951C33.6265 39.0761 33.6412 39.2634 33.6758 39.4476C33.7104 39.6296 33.7702 39.8086 33.8037 39.9938C33.8362 40.1759 33.832 40.3663 33.8624 40.5505C33.8939 40.7336 33.9222 40.9167 33.9505 41.1019C33.9788 41.2861 34.0135 41.4692 34.0376 41.6545C34.0627 41.8386 34.0869 42.0238 34.1089 42.209C34.1299 42.3943 34.1529 42.5805 34.1697 42.7668C34.1865 42.952 34.1907 43.1393 34.2012 43.3256C34.2138 43.5118 34.2473 43.6981 34.2536 43.8854C34.2599 44.0717 34.2777 44.2579 34.2777 44.4452C34.2767 44.6315 34.2557 44.8188 34.2484 45.0061C34.241 45.1924 34.2148 45.3776 34.1991 45.5649C34.1844 45.7501 34.1823 45.9374 34.1582 46.1237C34.1351 46.3089 34.1204 46.4962 34.0879 46.6804C34.0565 46.8645 33.9841 47.0403 33.9432 47.2245C33.9023 47.4055 33.8792 47.5907 33.8278 47.7728C33.7775 47.957 33.7188 48.137 33.6621 48.3159C33.6045 48.4969 33.531 48.6717 33.466 48.8475C33.4011 49.0246 33.3325 49.2005 33.2605 49.3749C33.1871 49.5517 33.1262 49.7306 33.0465 49.9002C32.9658 50.0739 32.862 50.2329 32.7739 50.3983C32.6847 50.5657 32.6103 50.7404 32.5138 50.9016C32.4173 51.0648 32.3019 51.2155 32.1971 51.3725C32.0922 51.5294 32.0114 51.7042 31.8982 51.8538C31.7849 52.0066 31.6549 52.1447 31.5343 52.2891C31.4126 52.4346 31.3067 52.5926 31.1777 52.7317C31.0497 52.8699 30.9029 52.9923 30.7666 53.1231C30.6303 53.2539 30.4803 53.368 30.3366 53.4914C30.194 53.6149 30.0577 53.7447 29.9077 53.8619C29.7598 53.977 29.6056 54.0858 29.4504 54.1946C29.2963 54.3024 29.1306 54.3934 28.9691 54.4949C28.8107 54.5944 28.6513 54.6959 28.4856 54.79C28.3184 54.8824 28.1484 54.9696 27.9759 55.0516C27.8039 55.1353 27.6246 55.2013 27.4474 55.2735C27.2712 55.3467 27.1002 55.4315 26.9188 55.4932C26.7384 55.556 26.5517 55.5958 26.3661 55.6481C26.1826 55.6994 26.0022 55.7674 25.8155 55.8082C25.6289 55.85 25.438 55.8689 25.2492 55.8992C25.0605 55.9306 24.8738 55.9693 24.6829 55.9892C24.4931 56.0101 24.3033 56.0489 24.1114 56.0583C23.9215 56.0687 23.7286 56.0499 23.5367 56.0499C23.5251 56.0489 23.5367 56.03 23.5367 56.03ZM83.762 58.5759C83.5544 58.5759 83.3467 58.6115 83.1412 58.5969C82.9335 58.5812 82.728 58.5466 82.5245 58.5163C82.319 58.4849 82.1187 58.4294 81.9184 58.3834C81.7168 58.3377 81.517 58.2842 81.3195 58.2233C81.136 58.1658 80.9525 58.1155 80.7742 58.0444C80.598 57.9711 80.4376 57.8665 80.2677 57.7807C79.9267 57.6105 79.5993 57.4146 79.2882 57.1947C79.134 57.0838 78.9882 56.9613 78.8393 56.841C78.6925 56.7207 78.5236 56.6244 78.3831 56.4946C78.2447 56.3649 78.1241 56.2142 77.9919 56.0761C77.8598 55.939 77.7088 55.8176 77.584 55.6722C77.4592 55.5274 77.3382 55.3794 77.2211 55.2285C77.1058 55.0778 77.0009 54.9167 76.8897 54.7607C76.7807 54.6048 76.6852 54.4384 76.5824 54.2773C76.4807 54.1161 76.3748 53.9571 76.2783 53.7918C76.1829 53.6275 76.1042 53.4527 76.014 53.2842C75.9249 53.1158 75.8148 52.9567 75.733 52.7851C75.6491 52.6135 75.5599 52.444 75.4823 52.2692C75.4058 52.0934 75.3544 51.9082 75.2841 51.7303C75.2138 51.5524 75.1279 51.3798 75.0639 51.2008C75.001 51.0198 74.9716 50.8273 74.915 50.6462C74.8562 50.4642 74.787 50.2852 74.7367 50.1021C74.6849 49.9182 74.6367 49.7333 74.5919 49.5475C74.5479 49.3592 74.5227 48.8485 74.4388 48.679C74.3445 48.4906 74.3203 48.4436 74.1085 48.656C73.9732 48.791 73.6712 49.1269 73.5569 49.2734C73.4383 49.423 73.3052 49.558 73.1929 49.7066C73.0776 49.8573 72.9528 49.9996 72.8437 50.1503C72.7326 50.303 72.634 50.4642 72.5281 50.618C72.4211 50.7739 72.333 50.9424 72.2302 51.0973C72.1264 51.2542 72.0131 51.4049 71.9135 51.564C71.8139 51.7241 71.6985 51.8737 71.6031 52.0348C71.5087 52.197 71.4143 52.3603 71.3231 52.5256C71.2329 52.6878 71.1616 52.8636 71.0735 53.03C70.9864 53.1953 70.8815 53.3533 70.7966 53.5218C70.7127 53.6892 70.6624 53.8734 70.5806 54.045C70.5009 54.2124 70.3582 54.5692 70.268 54.7377C70.0793 55.0914 70.0719 55.2243 69.75 55.0914C69.5969 55.0286 69.3064 54.7733 69.1994 54.6216C69.0977 54.4632 69.0206 54.2903 68.9708 54.1088C68.9122 53.9318 68.8687 53.7501 68.8407 53.5657C68.8166 53.392 68.8197 53.2037 68.8135 53.007C68.8093 52.8291 68.803 52.6407 68.8135 52.4471C68.8229 52.2682 68.8281 52.0809 68.8502 51.8894C68.8711 51.7094 68.9372 51.5305 68.9687 51.3411C69.0001 51.1611 68.9949 50.9696 69.0358 50.7833C69.0746 50.6044 69.1312 50.4255 69.1795 50.2413C69.2267 50.0634 69.2812 49.8834 69.3368 49.7024C69.3913 49.5255 69.4385 49.3435 69.5014 49.1656C69.5654 48.9825 69.6482 48.8067 69.7122 48.6246C69.7772 48.4415 69.8265 48.2542 69.8915 48.0721C69.9576 47.89 70.0132 47.7037 70.0793 47.5227C70.1464 47.3406 70.2387 47.169 70.3047 46.987C70.3729 46.8059 70.4568 46.6312 70.525 46.4501C70.5921 46.2681 70.6288 46.0745 70.697 45.8945C70.7651 45.7135 70.8585 45.5419 70.9277 45.3619C70.9969 45.1809 71.0598 44.9977 71.1301 44.8177C71.2004 44.6378 71.2455 44.4473 71.3157 44.2684C71.387 44.0874 71.4625 43.9095 71.5339 43.7305C71.6062 43.5505 71.7038 43.3821 71.7751 43.2031C71.8485 43.0232 71.8915 42.8317 71.9638 42.6548C72.0372 42.4748 72.1243 42.3011 72.1977 42.1243C72.2722 41.9443 72.3414 41.7643 72.4158 41.5875C72.4913 41.4096 72.5889 41.2411 72.6644 41.0643C72.7409 40.8864 72.7944 40.6991 72.871 40.5233C72.9486 40.3454 73.0409 40.1748 73.1174 40.0001C73.1961 39.8211 73.2873 39.6506 73.366 39.4769C73.4457 39.299 73.5034 39.1127 73.5831 38.939C73.6638 38.7611 73.7519 38.5885 73.8327 38.4158L74.0781 37.8916C74.162 37.7147 74.2511 37.5431 74.3329 37.3725C74.4179 37.1957 74.4944 37.0189 74.5783 36.8483C74.6654 36.6725 74.7503 36.4988 74.8363 36.3293C74.9244 36.1545 75.0146 35.984 75.1016 35.8165C75.1929 35.6418 75.2967 35.4785 75.3848 35.3122C75.4781 35.1385 75.5589 34.9637 75.6491 34.7994C75.7445 34.6268 75.8305 34.4541 75.9238 34.2919C76.0256 34.1151 76.1231 33.9414 76.2385 33.7834C76.3529 33.6199 76.4762 33.4627 76.6076 33.3125C76.7418 33.1618 76.8981 33.0352 77.0428 32.9033C77.1918 32.7673 77.3575 32.6564 77.5148 32.5392C77.6763 32.4188 77.8283 32.2891 77.9951 32.1876C78.1681 32.0829 78.3391 31.9773 78.5132 31.8904C78.6956 31.8004 78.8875 31.7439 79.069 31.6707C79.2577 31.5953 79.4486 31.5388 79.6321 31.4823C79.8293 31.4195 80.017 31.3546 80.2016 31.3107C80.4072 31.2615 80.6001 31.2102 80.7826 31.1788C81.0007 31.1422 81.201 31.1171 81.3741 31.1119C81.9782 31.093 81.8838 31.1872 81.652 31.5566C81.5639 31.6958 81.4423 31.8475 81.3227 32.0369C81.2283 32.1844 81.113 32.3414 81.0007 32.5224C80.9063 32.6752 80.834 32.8594 80.726 33.0362C80.6316 33.1932 80.5351 33.3617 80.4302 33.5374C80.3358 33.6965 80.2184 33.8514 80.1146 34.0272C80.0202 34.1873 79.9153 34.3516 79.8146 34.5263C79.7202 34.6875 79.6416 34.8653 79.542 35.039C79.4476 35.2023 79.3458 35.3666 79.2473 35.5403C79.1539 35.7035 79.0543 35.8699 78.9568 36.0436C78.8645 36.2089 78.7627 36.3743 78.6663 36.548C78.575 36.7143 78.5006 36.8954 78.4051 37.0691C78.3139 37.2365 78.1891 37.3882 78.0937 37.563L77.8168 38.0757C77.7266 38.2442 77.6417 38.42 77.5483 38.5947C77.4581 38.7632 77.3931 38.9495 77.2998 39.1242C77.2106 39.2927 77.0942 39.4518 77.0019 39.6265C76.9128 39.796 76.8509 39.9823 76.7607 40.1581C76.6716 40.3276 76.551 40.4835 76.4597 40.6593C76.3716 40.8288 76.2961 41.0088 76.207 41.1846C76.1189 41.3552 76.013 41.5195 75.9238 41.6963C75.8357 41.8679 75.7844 42.0594 75.6952 42.2363C75.6082 42.4079 75.5138 42.5795 75.433 42.7595C75.239 43.1864 75.239 43.3747 75.4079 43.1853C75.539 43.0399 75.6879 42.9154 75.819 42.7762C75.9522 42.6339 76.0832 42.4926 76.2175 42.3566C76.3538 42.2174 76.4881 42.0772 76.6254 41.9454C76.766 41.8093 76.8992 41.6712 77.0407 41.5435C77.1855 41.4117 77.3176 41.2694 77.4623 41.1459C77.6123 41.0203 77.778 40.9178 77.9269 40.8006C78.0811 40.6782 78.2363 40.5641 78.3894 40.4511C78.5467 40.336 78.7103 40.2313 78.8676 40.1246C79.0302 40.0158 79.1885 39.9059 79.35 39.8065C79.5143 39.7057 79.6811 39.6091 79.8503 39.5166C80.0223 39.4225 80.1775 39.3032 80.3495 39.2215C80.5257 39.1378 80.7144 39.0855 80.8896 39.0144C81.071 38.9411 81.2524 38.8752 81.4328 38.8155C81.6174 38.7528 81.7946 38.6722 81.9782 38.6251C82.168 38.577 82.362 38.5602 82.5487 38.5267C82.7416 38.4932 82.9314 38.4702 83.1213 38.4535C83.3142 38.4357 83.5061 38.443 83.697 38.443C83.9183 38.443 84.1375 38.4367 84.3546 38.4755C84.8527 38.5665 84.8118 38.7109 84.6639 38.825C84.5119 38.9432 84.2602 39.1493 84.1134 39.2645C83.9613 39.3837 83.8176 39.5083 83.6708 39.6244C83.5198 39.7427 83.3593 39.8463 83.2125 39.9624C83.0625 40.0817 82.922 40.2094 82.7762 40.3266C82.6263 40.4458 82.4826 40.5693 82.3379 40.6865C82.1889 40.8069 82.0295 40.9115 81.8859 41.0297C81.7359 41.1511 81.6069 41.2913 81.4632 41.4106C81.3143 41.532 81.1444 41.6241 81.0018 41.7434L80.5634 42.1065C80.4176 42.23 80.2771 42.3576 80.1355 42.478L79.7056 42.8484C79.5598 42.974 79.4193 43.0995 79.2787 43.223C79.135 43.3496 78.9851 43.4668 78.8466 43.5914C78.703 43.719 78.5803 43.8634 78.4418 43.989C78.3003 44.1177 78.1713 44.2569 78.0349 44.3835C77.8934 44.5143 77.7444 44.6304 77.6091 44.7581C77.4697 44.8899 77.2085 45.1296 77.0774 45.2604C76.8184 45.5209 76.8048 45.6559 76.8656 46.0148C76.8971 46.2063 76.9484 46.5412 76.9872 46.7243C77.0292 46.9127 77.0586 47.1021 77.1026 47.2841C77.1488 47.4725 77.1959 47.6577 77.2452 47.8387C77.2956 48.025 77.3648 48.2039 77.4193 48.3829C77.476 48.5681 77.5137 48.7564 77.5745 48.9322C77.6375 49.1164 77.7203 49.288 77.7874 49.4628C77.8556 49.6448 77.9101 49.828 77.9835 49.9996C78.0601 50.1775 78.1692 50.3376 78.2489 50.506C78.3328 50.6808 78.402 50.8587 78.4901 51.023C78.5803 51.1956 78.6956 51.3484 78.79 51.5095C78.8886 51.677 78.9735 51.8475 79.0763 52.0034C79.1833 52.1656 79.2787 52.332 79.3899 52.4817C79.5052 52.6386 79.6332 52.7788 79.7517 52.9232C79.8755 53.0729 79.9992 53.2162 80.1261 53.3533C80.2582 53.4946 80.382 53.64 80.5173 53.7687C80.6589 53.9016 80.8046 54.0241 80.9483 54.1434C81.0972 54.2668 81.2451 54.3872 81.3951 54.497C81.5524 54.6111 81.7034 54.7283 81.8617 54.8277C82.0254 54.9303 82.2005 55.0098 82.3651 55.0987C82.5361 55.1898 82.6986 55.2902 82.8685 55.3677C83.0447 55.4472 83.2293 55.4995 83.4034 55.5654C83.5848 55.6334 83.7599 55.7098 83.9382 55.7642C84.1239 55.8207 84.3126 55.8563 84.494 55.9003C84.6828 55.9453 84.8727 55.9589 85.0551 55.9913C85.2481 56.0248 85.4327 56.075 85.6162 56.096C85.8102 56.1169 86 56.1179 86.1825 56.1284C86.3797 56.1389 86.5684 56.1661 86.7499 56.1661C86.9386 56.1661 87.1211 56.1525 87.2963 56.1441C87.4871 56.1336 87.6686 56.1022 87.8406 56.0855C88.0335 56.0656 88.2181 56.0656 88.3848 56.0405C88.5862 56.0101 88.7645 55.9641 88.9197 55.9317C89.3287 55.8459 89.4462 55.917 89.2228 56.3157C89.1378 56.4674 88.9983 56.594 88.861 56.7364C88.7383 56.863 88.6187 57.0063 88.4645 57.1277C88.3251 57.2376 88.1782 57.3558 88.0157 57.4584C87.8636 57.5536 87.6832 57.6122 87.5123 57.6991C87.3529 57.7828 87.1924 57.878 87.0173 57.9523C86.8505 58.0224 86.6796 58.0977 86.5013 58.1584C86.3249 58.2163 86.1465 58.2679 85.9665 58.3133C85.7872 58.3631 85.6064 58.4071 85.4243 58.4451C85.246 58.4807 85.0572 58.4765 84.8705 58.5016C84.6891 58.5257 84.5056 58.5508 84.3189 58.5644C84.1343 58.5759 83.9487 58.5759 83.762 58.5759ZM98.2282 54.3003C98.009 54.3401 97.8098 54.4196 97.6137 54.4552C97.3913 54.497 97.1826 54.5242 96.9939 54.5598C96.7841 54.6006 96.5817 54.6278 96.3929 54.676C96.1842 54.7283 95.9881 54.7869 95.8056 54.8476C95.5991 54.9156 95.4145 55.0035 95.2393 55.0799C95.038 55.1667 94.8419 55.2337 94.6804 55.3289C94.5033 55.4324 94.3359 55.5515 94.1801 55.6847C94.0227 55.8177 93.8872 55.9744 93.7785 56.1493C93.6568 56.3502 93.596 56.5574 93.6138 56.7374C93.6306 56.9153 93.7428 57.0534 93.8739 57.1727C93.9893 57.2753 94.1298 57.3726 94.3154 57.4228C94.4654 57.4626 94.6395 57.4542 94.8282 57.4542C94.9908 57.4542 95.1649 57.4511 95.3494 57.4186C95.5131 57.3914 95.6861 57.3642 95.8623 57.3119C96.0238 57.2648 96.1874 57.201 96.3573 57.134C96.5429 57.0587 96.7296 56.9875 96.9026 56.8902C97.0767 56.795 97.2298 56.6652 97.3924 56.547C97.5497 56.4308 97.6944 56.2958 97.8412 56.1587C97.9839 56.0248 98.137 55.8992 98.2691 55.7444C98.396 55.5968 98.5019 55.4283 98.6204 55.262C98.7316 55.1029 98.8721 54.9564 98.9718 54.7775C99.2707 54.2428 99.2476 54.1486 98.7652 54.202C98.4935 54.2313 98.4967 54.2511 98.2282 54.3003ZM94.8765 59.389C94.608 59.389 94.3353 59.4173 94.0679 59.389C93.8877 59.3673 93.709 59.3341 93.5331 59.2896C93.3516 59.2477 93.1849 59.1766 93.0213 59.1117C92.8539 59.0453 92.6925 58.9648 92.5389 58.871C92.3815 58.7814 92.2336 58.6762 92.0973 58.5571C91.9631 58.4315 91.8666 58.2767 91.768 58.1281C91.565 57.8303 91.4393 57.487 91.402 57.1288C91.3856 56.9347 91.393 56.7393 91.4241 56.547C91.4513 56.3617 91.4618 56.164 91.5331 55.9704C91.5971 55.7956 91.702 55.6272 91.8058 55.4482C91.9002 55.2881 91.9851 55.1081 92.1131 54.9459C92.2284 54.8015 92.3616 54.653 92.5063 54.5085C92.6395 54.3757 92.7937 54.2522 92.9521 54.1224C93.0968 54.0031 93.2614 53.8964 93.4303 53.7802C93.5855 53.6725 93.7459 53.5605 93.9221 53.4559C94.0847 53.3606 94.263 53.278 94.4434 53.1859C94.6111 53.098 94.7768 52.9892 94.9625 52.9054C95.1355 52.827 95.3117 52.738 95.4994 52.6637C95.6777 52.5926 95.8696 52.5444 96.0594 52.4775C96.2398 52.4126 96.4202 52.331 96.6132 52.2703C96.7873 52.2159 96.9718 52.1928 97.148 52.1374C97.3221 52.0851 97.492 52.015 97.6703 51.9605L98.1968 51.8004C98.3708 51.7481 98.5544 51.7241 98.7337 51.6717C98.9067 51.6205 99.0735 51.5367 99.2528 51.4855C99.4269 51.4352 99.795 51.318 99.9764 51.2731C100.291 51.1946 100.252 51.1841 100.401 50.8482C100.478 50.6766 100.579 50.4192 100.628 50.2476C100.68 50.0655 100.748 49.8928 100.801 49.7244C100.858 49.5402 100.906 49.3581 100.964 49.197C100.952 49.1342 100.913 49.1227 100.85 49.1405C100.706 49.2817 100.556 49.401 100.411 49.5266C100.258 49.6584 100.092 49.7662 99.9387 49.8803C99.7819 49.9985 99.6202 50.1102 99.4542 50.2151C99.2822 50.3229 99.1217 50.437 98.9508 50.5217C98.7694 50.6128 98.5795 50.6682 98.4002 50.731C98.2083 50.7969 98.029 50.8817 97.8423 50.9173C97.6485 50.9518 97.4519 50.9687 97.255 50.9675C97.0369 50.9675 96.825 50.9361 96.6237 50.8859C96.2082 50.7881 95.825 50.5852 95.511 50.2967C95.3514 50.1551 95.2082 49.9961 95.0841 49.8227C94.9786 49.6615 94.8866 49.4917 94.8094 49.3152C94.7244 49.1424 94.6522 48.9637 94.5933 48.7805C94.5388 48.6005 94.5126 48.409 94.478 48.2154C94.4433 48.0264 94.4188 47.8357 94.4045 47.6441C94.393 47.4557 94.3794 47.2632 94.3836 47.0665C94.3899 46.8781 94.4412 46.6898 94.4622 46.4951C94.4832 46.3078 94.4696 46.1122 94.5042 45.9196C94.5377 45.7334 94.5912 45.5481 94.6384 45.3587C94.6835 45.1746 94.7391 44.9904 94.7957 44.8031C94.8534 44.6221 94.9058 44.4369 94.974 44.2527C95.0422 44.0727 95.1313 43.8969 95.2079 43.7169C95.2834 43.539 95.3484 43.3538 95.4333 43.177C95.5152 43.0012 95.5928 42.8212 95.6829 42.6475C95.7731 42.4748 95.8906 42.3168 95.9881 42.1473C96.0846 41.9778 96.1989 41.8198 96.3027 41.6545C96.4055 41.487 96.4821 41.306 96.5911 41.1448C96.7002 40.9816 96.8344 40.8372 96.9488 40.6802C97.0652 40.5222 97.1784 40.3632 97.299 40.2125C97.4228 40.0587 97.5266 39.8902 97.6546 39.7458C97.7846 39.5972 97.9209 39.4559 98.0552 39.3178C98.1926 39.1766 98.352 39.0604 98.4935 38.9306C98.6404 38.7957 98.7673 38.6439 98.9162 38.5246C99.0724 38.4001 99.2381 38.2944 99.3954 38.1877C99.5561 38.0764 99.7224 37.9734 99.8936 37.879C100.07 37.7838 100.257 37.7231 100.434 37.6561C100.621 37.5829 100.801 37.5044 100.986 37.4657C101.181 37.4259 101.378 37.4196 101.568 37.4196C101.653 37.4196 101.82 37.4604 101.697 37.6938C101.62 37.8403 101.386 38.2515 101.287 38.4409L101.026 38.9484C100.944 39.1096 100.852 39.277 100.764 39.4549C100.681 39.6202 100.605 39.796 100.518 39.9718C100.436 40.1392 100.354 40.3119 100.27 40.4877C100.188 40.6562 100.104 40.8278 100.023 41.0025C99.9418 41.1741 99.8475 41.3405 99.7678 41.5153C99.6891 41.689 99.623 41.869 99.5454 42.0437C99.4689 42.2185 99.4017 42.3974 99.3273 42.5722C99.2528 42.75 99.1889 42.9311 99.1175 43.1058C99.0462 43.2858 98.9812 43.4647 98.9141 43.6405C98.8449 43.8226 98.7589 43.9942 98.697 44.169C98.6288 44.3657 98.5502 44.5478 98.4977 44.7288C98.4411 44.9308 98.4159 45.1285 98.3803 45.3096C98.3394 45.5188 98.3226 45.7156 98.3111 45.8966C98.2964 46.1163 98.2775 46.3131 98.3048 46.4878C98.3404 46.7076 98.4044 46.9001 98.5072 47.0456C98.6021 47.172 98.7287 47.2712 98.8742 47.3333C99.0074 47.393 99.1626 47.4118 99.3315 47.4118C99.5192 47.4118 99.7258 47.3856 99.9408 47.3134C100.124 47.2527 100.303 47.145 100.495 47.0382C100.668 46.942 100.844 46.8352 101.017 46.7065C101.177 46.5862 101.347 46.4658 101.501 46.3204C101.65 46.1812 101.809 46.0379 101.945 45.8788C102.009 45.6988 102.042 45.5063 102.106 45.3336C102.174 45.1536 102.235 44.9758 102.303 44.8031C102.373 44.6252 102.463 44.4578 102.533 44.2872C102.606 44.1093 102.684 43.9398 102.758 43.7703C102.834 43.5945 102.892 43.4145 102.967 43.2471C103.048 43.0723 103.135 42.906 103.215 42.7406C103.299 42.5669 103.388 42.4016 103.471 42.2383C103.559 42.0667 103.653 41.9035 103.741 41.7434C103.835 41.5739 103.907 41.3981 103.999 41.2411C104.098 41.0737 104.227 40.9314 104.324 40.7776C104.428 40.6122 104.53 40.4553 104.633 40.3056C104.743 40.1445 104.844 39.9875 104.953 39.8431C105.069 39.6862 105.162 39.5208 105.278 39.3827C105.402 39.231 105.547 39.1085 105.67 38.9767C105.803 38.8323 105.911 38.6764 106.041 38.5529C106.185 38.4169 106.35 38.3195 106.488 38.2076C106.642 38.082 106.783 37.9575 106.93 37.8591C107.095 37.7472 107.265 37.6697 107.42 37.5881C107.6 37.4939 107.755 37.3809 107.916 37.3213C108.094 37.2557 108.275 37.2039 108.461 37.1664C108.674 37.1245 108.865 37.1256 109.021 37.1141C109.472 37.0806 109.462 37.2344 109.377 37.4113C109.292 37.5891 109.09 38.081 109.007 38.2589C108.923 38.4388 108.833 38.6136 108.751 38.7915C108.667 38.9715 108.583 39.1493 108.504 39.3272C108.422 39.5072 108.317 39.6767 108.238 39.8546C108.158 40.0357 108.081 40.2167 108.003 40.3956C107.924 40.5766 107.851 40.7598 107.775 40.9398C107.697 41.1208 107.63 41.306 107.555 41.486C107.477 41.6691 107.418 41.8595 107.345 42.0406C107.268 42.2237 107.17 42.3964 107.095 42.5763C107.022 42.7605 106.944 42.9426 106.871 43.1236C106.797 43.3067 106.718 43.4867 106.645 43.6677C106.574 43.8519 106.509 44.0371 106.438 44.2182L106.228 44.7686C106.157 44.9538 106.121 45.1505 106.051 45.3336C105.981 45.5188 105.885 45.6915 105.817 45.8746C105.748 46.0588 105.677 46.2419 105.61 46.425C105.541 46.6102 105.499 46.8038 105.432 46.987C105.364 47.1722 105.274 47.3469 105.206 47.529C105.139 47.7142 105.07 47.8963 105.003 48.0784C104.944 48.2406 104.87 48.3944 104.812 48.5534C104.752 48.7156 104.697 48.8778 104.639 49.0369C104.579 49.198 104.482 49.5318 104.429 49.693C104.335 49.9818 104.383 50.1053 104.784 49.9996C104.973 49.9493 105.323 49.8248 105.51 49.7735C105.698 49.7212 105.885 49.6605 106.071 49.6082C106.26 49.5538 106.453 49.5182 106.639 49.4649C106.828 49.4094 107.007 49.3288 107.193 49.2734C107.382 49.2158 107.579 49.1959 107.763 49.1384C107.952 49.0808 108.139 49.0233 108.322 48.9636C108.511 48.904 108.693 48.836 108.876 48.7753C109.245 48.6497 109.613 48.5175 109.977 48.3787C110.162 48.3086 110.348 48.2479 110.526 48.1767C110.709 48.1035 110.88 48.0041 111.056 47.9277C111.238 47.8482 111.409 47.754 111.583 47.6724C111.761 47.5876 111.945 47.5164 112.114 47.4285C112.291 47.3365 112.469 47.2559 112.635 47.1607C112.807 47.0613 112.965 46.9461 113.125 46.8415C113.292 46.7348 113.444 46.6134 113.598 46.5004C113.758 46.3832 113.934 46.2911 114.08 46.1666C114.23 46.0379 114.359 45.8893 114.494 45.7532C114.633 45.6166 114.765 45.4735 114.889 45.3242C115.015 45.1735 115.142 45.0249 115.25 44.8638C115.358 44.7026 115.46 44.5352 115.551 44.3626C115.64 44.192 115.779 44.2108 115.775 44.4002C115.769 44.5949 115.775 44.7874 115.75 44.9758C115.725 45.1672 115.673 45.3514 115.628 45.5377C115.584 45.7239 115.562 45.9175 115.497 46.0996C115.432 46.2785 115.342 46.4501 115.259 46.6249C115.177 46.7955 115.106 46.9775 115.007 47.1439C114.908 47.3061 114.786 47.4568 114.669 47.6148C114.557 47.7655 114.425 47.9047 114.297 48.0532C114.173 48.1956 114.052 48.3462 113.914 48.4844C113.778 48.6196 113.637 48.7505 113.492 48.8768C113.352 49.0023 113.195 49.1133 113.042 49.2346C112.894 49.3497 112.744 49.4701 112.584 49.5841C112.431 49.693 112.27 49.7966 112.106 49.9033C111.948 50.0058 111.779 50.0948 111.611 50.1952C111.449 50.2915 111.292 50.4035 111.121 50.4977C110.957 50.5877 110.779 50.6609 110.605 50.7498C110.438 50.8357 110.275 50.9403 110.099 51.024C109.928 51.1046 109.746 51.1695 109.569 51.2479C109.395 51.3243 109.225 51.4133 109.045 51.4876C108.871 51.5608 108.701 51.6539 108.519 51.7251C108.343 51.7931 108.154 51.8402 107.972 51.9061C107.794 51.9721 107.617 52.0505 107.434 52.1154C107.255 52.1771 107.065 52.2169 106.88 52.2787C106.7 52.3372 106.519 52.4042 106.335 52.4618C106.152 52.5183 105.974 52.5915 105.787 52.647C105.606 52.7004 105.415 52.7307 105.227 52.783C105.045 52.8353 104.862 52.8992 104.675 52.9504C104.491 52.9996 104.306 53.0519 104.117 53.1011C103.875 53.1635 103.633 53.2298 103.393 53.2999C103.02 53.4119 102.911 53.4464 102.781 53.7949C102.698 54.0178 102.472 54.4552 102.376 54.653C102.292 54.8246 102.208 55.0014 102.109 55.173C102.008 55.34 101.902 55.5033 101.79 55.6627C101.681 55.8197 101.569 55.9808 101.447 56.1357C101.327 56.2864 101.175 56.413 101.044 56.5585C100.915 56.7018 100.786 56.8462 100.646 56.9833C100.507 57.1172 100.39 57.2784 100.241 57.4061C100.094 57.5316 99.9198 57.6258 99.7625 57.743C99.4519 57.9771 99.1261 58.1903 98.7872 58.3813C98.6173 58.4755 98.439 58.5519 98.2607 58.6345C98.0845 58.7155 97.9054 58.7902 97.7238 58.8585C97.5434 58.9286 97.3704 59.0207 97.1826 59.0782C96.997 59.1337 96.8103 59.1933 96.6184 59.2352C96.4296 59.2781 96.2367 59.3063 96.0416 59.3356C95.8518 59.3639 95.6546 59.3545 95.4585 59.3681C95.2666 59.3827 95.0736 59.389 94.8765 59.389Z" fill="#42AA5E"/>
</svg>
