<svg width="132" height="88" viewBox="0 0 132 88" fill="none" xmlns="http://www.w3.org/2000/svg">
<path fill-rule="evenodd" clip-rule="evenodd" d="M55.7724 20.8053L53.6 25.1233C52.2096 27.8868 49.3802 29.6306 46.2868 29.6306H38.7119C37.2048 29.6306 35.9831 30.8523 35.9831 32.3594V64.4669C35.9831 65.974 37.2048 67.1957 38.7119 67.1957H93.2888C94.796 67.1957 96.0177 65.974 96.0177 64.4669V32.3594C96.0177 30.8508 94.7968 29.6306 93.2913 29.6306H85.2037C82.1094 29.6306 79.2821 27.886 77.8922 25.1233L75.7196 20.8053H55.7724ZM51.275 17.6012C51.9702 16.2195 53.3848 15.3477 54.9315 15.3477H76.5605C78.1072 15.3477 79.5218 16.2195 80.217 17.6012L82.7675 22.6705C83.2313 23.5924 84.1734 24.1729 85.2037 24.1729H93.2913C97.8142 24.1729 101.475 27.8396 101.475 32.3594V64.4669C101.475 68.9882 97.8101 72.6534 93.2888 72.6534H38.7119C34.1906 72.6534 30.5254 68.9882 30.5254 64.4669V32.3594C30.5254 27.8381 34.1906 24.1729 38.7119 24.1729H46.2868C47.3179 24.1729 48.2611 23.5916 48.7245 22.6705L51.275 17.6012ZM66.0004 34.4496C59.2184 34.4496 53.7206 39.9474 53.7206 46.7294C53.7206 53.5114 59.2184 59.0092 66.0004 59.0092C72.7824 59.0092 78.2802 53.5114 78.2802 46.7294C78.2802 39.9474 72.7824 34.4496 66.0004 34.4496ZM48.2629 46.7294C48.2629 36.9332 56.2042 28.9919 66.0004 28.9919C75.7965 28.9919 83.7379 36.9332 83.7379 46.7294C83.7379 56.5255 75.7965 64.4669 66.0004 64.4669C56.2042 64.4669 48.2629 56.5255 48.2629 46.7294Z" fill="black"/>
</svg>
