<svg width="132" height="88" viewBox="0 0 132 88" fill="none" xmlns="http://www.w3.org/2000/svg">
<path d="M27.8575 70.0048L56.6835 41.1789C57.4547 40.4075 58.5103 39.9609 59.5659 39.9609H99.0696C100.328 39.9609 100.978 41.5038 100.085 42.3969L73.0857 69.3958C71.1369 71.3445 68.5385 72.4001 65.7777 72.4001H28.8725C27.6139 72.4408 26.9643 70.8979 27.8575 70.0048Z" fill="#2358F1"/>
<path d="M31.9161 45.6454L60.742 16.8196C61.5135 16.0482 62.569 15.6016 63.6246 15.6016H103.128C104.387 15.6016 105.036 17.1444 104.143 18.0376L74.5459 47.6755C74.2617 47.9596 73.8964 48.0814 73.5309 48.0814H32.9311C31.6725 48.0814 31.0229 46.5387 31.9161 45.6454Z" fill="#4FA1F0"/>
<path d="M70.081 27.7812V39.9612H82.2611L66.0211 60.2612V48.0811H49.7812L70.081 27.7812Z" fill="white"/>
</svg>
