<svg width="132" height="88" viewBox="0 0 132 88" fill="none" xmlns="http://www.w3.org/2000/svg">
<mask id="mask0_2056_25538" style="mask-type:luminance" maskUnits="userSpaceOnUse" x="34" y="12" width="64" height="64">
<path d="M34.0156 12.0156H97.9852V75.9852H34.0156V12.0156Z" fill="white"/>
</mask>
<g mask="url(#mask0_2056_25538)">
<path d="M41.3555 33.3387H34.2148C34.2148 21.5367 43.8353 12.0156 55.5386 12.0156V19.1564C47.8023 19.1564 41.3555 25.5037 41.3555 33.3387Z" fill="#1273EB"/>
<path d="M90.6471 54.6641H97.7878C97.7878 66.4665 88.1672 75.987 76.4648 75.987V68.8464C84.3001 68.9454 90.6471 62.5984 90.6471 54.6641Z" fill="#1273EB"/>
<path d="M75.9681 37.3085C73.3894 36.019 69.3232 34.7298 65.6531 34.6306C62.3806 34.6306 60.6943 35.8208 60.6943 37.6058C60.6943 39.4904 63.0752 39.9862 65.9509 40.3827L68.8274 40.7796C75.8691 41.8705 79.7364 44.945 79.7364 50.3999C79.7364 57.0447 74.2818 61.4087 64.9593 61.4087C60.5953 61.4087 54.8431 60.615 50.5781 57.6398L54.0495 50.995C56.8261 52.78 60.1985 54.1685 65.0583 54.1685C69.1244 54.1685 71.0095 53.0775 71.0095 51.094C71.0095 49.5072 69.4222 48.6146 65.6531 48.1187L62.9751 47.7219C55.5378 46.7303 51.7686 43.4572 51.7686 37.9033C51.7686 31.2585 56.9262 27.3906 65.3561 27.3906C70.5126 27.3906 74.5799 28.3823 78.8437 30.4651L75.9681 37.3085Z" fill="white"/>
</g>
</svg>
