<svg width="132" height="88" viewBox="0 0 132 88" fill="none" xmlns="http://www.w3.org/2000/svg">
<path fill-rule="evenodd" clip-rule="evenodd" d="M67.4184 11H64.5824C57.507 11 52.4588 12.2254 48.1565 14.526C43.8543 16.827 40.477 20.2035 38.176 24.5057C35.875 28.8076 34.6504 33.8571 34.6504 40.9328V47.0672C34.6504 54.1429 35.875 59.1924 38.176 63.4943C40.477 67.7965 43.8543 71.173 48.1565 73.4736C52.4588 75.7745 57.507 77 64.5824 77H67.4184C74.4938 77 79.5419 75.7745 83.8443 73.4736C88.1465 71.173 91.5239 67.7965 93.8248 63.4943C96.1258 59.1924 97.3504 54.1429 97.3504 47.0672V40.9328C97.3504 33.8571 96.1258 28.8076 93.8248 24.5057C91.5239 20.2035 88.1465 16.827 83.8443 14.526C79.5419 12.2254 74.4938 11 67.4184 11ZM66.0004 24.1162C65.1335 24.1162 64.7677 26.8611 64.0377 32.3513L63.1677 38.8845C63.0774 39.5608 63.0324 39.8991 62.8164 40.1304C62.6006 40.3621 62.2653 40.4297 61.5967 40.5642L54.1796 42.0591C50.4398 42.8128 48.5706 43.1895 48.5706 44C48.5706 44.8102 50.4398 45.1872 54.1796 45.9409L61.5967 47.4358C62.2653 47.5703 62.6006 47.6379 62.8164 47.8692C63.0324 48.1009 63.0774 48.4392 63.1677 49.1155L64.0377 55.6487C64.7677 61.1389 65.1335 63.8838 66.0004 63.8838C66.8657 63.8838 67.2315 61.1486 67.9581 55.6789L67.9631 55.6487L68.8315 49.1155C68.9217 48.4392 68.9669 48.1009 69.1827 47.8692C69.4002 47.6379 69.7338 47.5703 70.4041 47.4358L77.8195 45.9409C81.5594 45.1872 83.4285 44.8102 83.4285 44C83.4285 43.1895 81.5594 42.8128 77.8195 42.0591L70.4041 40.5642C70.0287 40.489 69.7596 40.4345 69.5566 40.3608C69.3971 40.3023 69.2778 40.2324 69.1827 40.1304C69.0506 39.9885 68.9829 39.8065 68.9282 39.531C68.8943 39.3569 68.8669 39.1459 68.8315 38.8845L67.9631 32.3513L67.9581 32.3211C67.2315 26.8514 66.8657 24.1162 66.0004 24.1162Z" fill="black"/>
</svg>
