<svg width="132" height="88" viewBox="0 0 132 88" fill="none" xmlns="http://www.w3.org/2000/svg">
<mask id="mask0_2056_25572" style="mask-type:luminance" maskUnits="userSpaceOnUse" x="34" y="12" width="64" height="64">
<path d="M89.989 12.0156H42.0118C37.5957 12.0156 34.0156 15.5957 34.0156 20.0118V67.989C34.0156 72.4052 37.5957 75.9852 42.0118 75.9852H89.989C94.4052 75.9852 97.9852 72.4052 97.9852 67.989V20.0118C97.9852 15.5957 94.4052 12.0156 89.989 12.0156Z" fill="white"/>
</mask>
<g mask="url(#mask0_2056_25572)">
<path d="M97.9852 12.0156H34.0156V75.9852H97.9852V12.0156Z" fill="white"/>
<path d="M97.9852 12.0156H34.0156V75.9852H97.9852V12.0156Z" fill="white"/>
<path d="M84.4507 -0.891411C89.4934 2.05538 89.8512 -10.6103 93.8931 -12.348C108.251 -18.5207 109.613 67.6114 94.8397 80.5961C80.8625 92.8814 66.4671 22.2463 66.4671 22.2463C66.4671 22.2463 63.6847 3.53249 66.4671 -4.03633C68.977 -10.867 72.2515 -10.5362 75.8419 -8.13599C78.6785 -6.23978 81.591 -2.56212 84.4507 -0.891411Z" fill="#7F30FF"/>
<path d="M43.0009 5.31287C50.5064 7.66536 51.0391 -2.44636 57.0553 -3.83359C78.4261 -8.76166 80.4531 60.002 58.4646 70.3693C37.6605 80.1774 16.2326 23.7851 16.2326 23.7851C16.2326 23.7851 12.0925 8.8447 16.2326 2.80207C19.9698 -2.65127 24.8435 -2.38707 30.187 -0.470985C34.409 1.04289 38.7449 3.97901 43.0009 5.31287Z" fill="#18A0FB"/>
<path d="M73.5308 119.698C84.4857 119.698 93.3654 105.505 93.3654 87.997C93.3654 70.4893 84.4857 56.2969 73.5308 56.2969C62.5762 56.2969 53.6953 70.4893 53.6953 87.997C53.6953 105.505 62.5762 119.698 73.5308 119.698Z" fill="#0038FF"/>
<path d="M41.7586 40.5056C36.0464 52.249 32.633 61.4711 34.1522 74.4907C37.1138 99.8746 66.2171 108.145 79.6846 87.7314C90.3285 71.598 83.9367 54.2845 80.8861 34.5233C79.5408 25.8039 80.1964 19.0545 75.7475 13.1076C65.7941 -0.199966 50.4505 22.6378 41.7586 40.5056Z" fill="#FF4880"/>
<path d="M25.4522 117.497C34.1861 117.497 41.2667 106.183 41.2667 92.229C41.2667 78.2736 34.1861 66.9609 25.4522 66.9609C16.7174 66.9609 9.63672 78.2736 9.63672 92.229C9.63672 106.183 16.7174 117.497 25.4522 117.497Z" fill="#FF8000"/>
<path d="M74.5581 24.8086H45.4477C43.2739 24.8086 41.5117 26.5711 41.5117 28.7452C41.5117 30.9194 43.2739 32.6818 45.4477 32.6818H74.5581C76.732 32.6818 78.4942 30.9194 78.4942 28.7452C78.4942 26.5711 76.732 24.8086 74.5581 24.8086Z" fill="white"/>
<path d="M57.5662 40.5547H45.4477C43.2739 40.5547 41.5117 42.3172 41.5117 44.4913C41.5117 46.6652 43.2739 48.4277 45.4477 48.4277H57.5662C59.74 48.4277 61.5022 46.6652 61.5022 44.4913C61.5022 42.3172 59.74 40.5547 57.5662 40.5547Z" fill="white"/>
<path d="M85.5529 56.3008H45.4477C43.2739 56.3008 41.5117 58.0633 41.5117 60.2374C41.5117 62.4116 43.2739 64.1746 45.4477 64.1746H85.5529C87.7268 64.1746 89.489 62.4116 89.489 60.2374C89.489 58.0633 87.7268 56.3008 85.5529 56.3008Z" fill="white"/>
</g>
</svg>
