<svg width="132" height="88" viewBox="0 0 132 88" fill="none" xmlns="http://www.w3.org/2000/svg">
<path d="M66.0004 78.0984C84.8333 78.0984 100.1 62.8313 100.1 43.9984C100.1 25.1655 84.8333 9.89844 66.0004 9.89844C47.1675 9.89844 31.9004 25.1655 31.9004 43.9984C31.9004 62.8313 47.1675 78.0984 66.0004 78.0984Z" fill="#FFE121"/>
<path d="M64.5087 26.0938V49.1113C58.115 49.1113 53 43.9963 53 37.6025C53 31.2088 58.115 26.0938 64.5087 26.0938ZM67.4925 61.8988V38.8812C73.8862 38.8812 79.0012 43.9963 79.0012 50.39C79.0012 56.7838 73.8862 61.8988 67.4925 61.8988ZM72.9272 26.0938C75.9109 26.0938 78.3619 28.5447 78.3619 31.5284C78.3619 34.5122 75.9109 36.9631 72.9272 36.9631C69.9434 36.9631 67.4925 34.5122 67.4925 31.5284C67.4925 28.5447 69.9434 26.0938 72.9272 26.0938ZM59.0741 51.0294C62.0578 51.0294 64.5087 53.4803 64.5087 56.4641C64.5087 59.4478 62.0578 61.8988 59.0741 61.8988C56.0903 61.8988 53.6394 59.4478 53.6394 56.4641C53.6394 53.4803 56.0903 51.0294 59.0741 51.0294Z" fill="black"/>
</svg>
