<svg width="132" height="88" viewBox="0 0 132 88" fill="none" xmlns="http://www.w3.org/2000/svg">
<path d="M66.0004 78.0984C84.8333 78.0984 100.1 62.8313 100.1 43.9984C100.1 25.1655 84.8333 9.89844 66.0004 9.89844C47.1675 9.89844 31.9004 25.1655 31.9004 43.9984C31.9004 62.8313 47.1675 78.0984 66.0004 78.0984Z" fill="#132A4A"/>
<path d="M74.278 38.4579C72.3461 37.4919 69.2995 36.5259 66.5503 36.4517C64.0982 36.4517 62.835 37.3433 62.835 38.6808C62.835 40.0926 64.6184 40.4641 66.7732 40.7613L68.928 41.0586C74.2037 41.8759 77.1016 44.1794 77.1016 48.2662C77.1016 53.2447 73.0148 56.5141 66.0302 56.5141C62.7607 56.5141 58.451 55.9197 55.2559 53.6905L57.8566 48.712C59.9371 50.0495 62.4635 51.0898 66.1044 51.0898C69.1509 51.0898 70.5627 50.2725 70.5627 48.7863C70.5627 47.5975 69.3739 46.9287 66.5503 46.5572L64.544 46.2599C58.9711 45.5169 56.1475 43.0648 56.1475 38.9037C56.1475 33.9253 60.0114 31.0273 66.3274 31.0273C70.1912 31.0273 73.2378 31.7704 76.4329 33.3308L74.278 38.4579Z" fill="#F8FAFB"/>
<path d="M48.3461 35.4835H42.9961C42.9961 26.6411 50.2037 19.5078 58.9718 19.5078V24.8578C53.1759 24.8578 48.3461 29.6133 48.3461 35.4835Z" fill="#1273EB"/>
<path d="M83.3444 52.2031H88.6944C88.6944 61.0455 81.4867 68.1788 72.7188 68.1788V62.8288C78.5146 62.8288 83.3444 58.0733 83.3444 52.2031Z" fill="#1273EB"/>
</svg>
