<svg width="132" height="88" viewBox="0 0 132 88" fill="none" xmlns="http://www.w3.org/2000/svg">
<path d="M111.099 29.373C111.076 28.6083 110.381 28.1627 108.672 27.9491C106.965 27.7401 104.243 27.7739 100.181 28.062C96.1198 28.3587 90.7157 28.9004 83.6767 29.9444C80.1586 30.4713 76.2336 31.1349 71.8731 32.0085C67.5168 32.8922 62.7253 33.9866 57.5065 35.4731C56.5442 35.7482 55.5895 36.0345 54.6384 36.3255C53.4898 36.2248 52.3646 36.1748 51.2646 36.1517C49.2638 36.114 47.3382 36.169 45.4817 36.2514C41.7761 36.4161 38.3117 36.7168 35.1968 36.7549C34.4213 36.7617 33.6709 36.7506 32.9676 36.7045C32.2705 36.6574 31.6097 36.5715 31.0992 36.438C30.9783 36.4024 30.8568 36.3704 30.7636 36.3323L30.6888 36.3068L30.6312 36.2787C30.5934 36.2607 30.5474 36.2445 30.5593 36.2492C30.5571 36.2496 30.5539 36.2503 30.5514 36.2492C30.5524 36.2463 30.5431 36.2478 30.5431 36.2431L30.5398 36.2373C30.5391 36.2312 30.5406 36.2449 30.5377 36.2431C30.5413 36.2143 30.5582 36.1737 30.5701 36.1348C30.6801 35.8086 30.9413 35.344 31.269 34.9052C31.5917 34.4603 31.9802 34.0186 32.3798 33.5953C33.1888 32.7472 34.073 31.9693 34.949 31.2575C36.7087 29.8326 38.4487 28.6612 40.034 27.6865C41.6229 26.7129 43.0712 25.9411 44.3273 25.3527C44.9557 25.0607 45.5363 24.8118 46.0626 24.6133C46.5853 24.4126 47.072 24.2565 47.449 24.1572C47.8371 24.0529 48.113 24.018 48.3148 24.0008C48.5062 23.9896 48.6774 24.0044 48.8544 24.0903C49.0318 24.1673 49.1893 24.2831 49.3361 24.35C49.4785 24.4223 49.6149 24.4514 49.7375 24.4173C49.8609 24.3831 49.9559 24.282 50.0163 24.0943C50.0638 23.9069 50.0879 23.6271 49.9426 23.248C49.8685 23.0603 49.7501 22.8477 49.5631 22.6463C49.3796 22.4499 49.131 22.255 48.853 22.1227C48.2915 21.8432 47.6425 21.7393 46.9957 21.7277C45.7097 21.7062 44.2644 21.9795 42.642 22.4888C41.024 23.0027 39.2448 23.7616 37.3321 24.7841C35.4227 25.8149 33.3734 27.0891 31.2697 28.7878C30.2204 29.6463 29.1549 30.5994 28.1283 31.8211C27.6193 32.4437 27.111 33.1195 26.675 34.0219C26.462 34.4887 26.2624 34.9365 26.1347 35.7324C26.0239 36.4467 26.0908 37.1879 26.3426 37.8713C26.5922 38.5589 27.0707 39.1473 27.6354 39.6318C27.7844 39.7451 27.9293 39.8659 28.0923 39.9616C28.2488 40.0572 28.4272 40.1641 28.575 40.2374L28.984 40.4248C29.1153 40.478 29.242 40.5223 29.3722 40.5705C29.8808 40.7442 30.3704 40.8661 30.8334 40.9456C31.3032 41.0326 31.7532 41.0859 32.2007 41.1283C33.977 41.2819 35.6799 41.2362 37.4124 41.1643C38.9941 41.0916 40.597 40.983 42.2218 40.8722C41.3722 41.2427 40.5283 41.6207 39.6966 42.0174C36.89 43.3456 34.177 44.8101 31.61 46.4764C29.0474 48.1473 26.6135 50.006 24.5145 52.2834C24.2483 52.5618 24.0037 52.8685 23.749 53.1602C23.5094 53.472 23.258 53.7677 23.0339 54.0971C22.5691 54.7337 22.1486 55.4221 21.7907 56.163C21.4345 56.905 21.1389 57.7095 20.9917 58.595C20.8439 59.4751 20.8604 60.4544 21.1536 61.3949C21.4407 62.3354 22.0033 63.1935 22.6875 63.8219C23.3986 64.4786 24.1832 64.8979 24.9469 65.2112C25.7142 65.5252 26.4735 65.7162 27.2232 65.8712C27.9739 66.0258 28.7121 66.1143 29.4438 66.1787C32.3669 66.4142 35.1648 66.1956 37.8818 65.8316C40.5973 65.4565 43.2276 64.8997 45.7788 64.2157C48.3292 63.528 50.7987 62.7044 53.1797 61.7459C55.56 60.7853 57.8525 59.6851 60.0152 58.3706C61.0954 57.7124 62.1433 56.9995 63.1404 56.2054C64.1354 55.4088 65.0887 54.5406 65.9359 53.5274C66.779 52.5161 67.5391 51.3713 68.0435 50.0409C68.1586 49.7018 68.2841 49.3705 68.36 49.0134C68.4003 48.8372 68.451 48.6638 68.4794 48.4833L68.5593 47.9409C68.5906 47.7603 68.5917 47.5751 68.6032 47.3928C68.6086 47.209 68.6269 47.0256 68.6179 46.8429C68.5992 46.476 68.5913 46.1081 68.5244 45.7506C68.4316 45.0244 68.21 44.344 67.9622 43.6923C67.8244 43.3754 67.6812 43.0676 67.5258 42.7604C67.356 42.459 67.187 42.1576 66.987 41.8757C66.8003 41.5851 66.5776 41.3225 66.3654 41.0542C66.1355 40.8025 65.9118 40.5435 65.6632 40.3187C65.1801 39.8483 64.6538 39.4465 64.1171 39.0937C63.0404 38.3848 61.9127 37.8896 60.8019 37.5148C60.6925 37.4774 60.5839 37.4472 60.4745 37.4123C65.4286 36.0895 69.9651 35.1605 74.0674 34.4412C78.7812 33.6226 82.9313 33.0929 86.5584 32.7041C93.8172 31.9431 98.9897 31.7262 102.634 31.5366C103.546 31.4874 104.363 31.4428 105.095 31.4043C105.826 31.3644 106.472 31.3216 107.041 31.273C108.18 31.1719 109.014 31.0698 109.621 30.9144C110.83 30.6102 111.123 30.1379 111.099 29.373ZM61.603 42.3907C62.33 42.8162 62.9663 43.3229 63.4541 43.9386C63.6987 44.2472 63.9189 44.5706 64.0916 44.9406L64.2282 45.214L64.3329 45.4913C64.4167 45.6747 64.4506 45.8614 64.5085 46.0469C64.5426 46.139 64.5441 46.2329 64.5642 46.3257C64.5779 46.4192 64.606 46.5116 64.6103 46.6059C64.6171 46.7932 64.6498 46.981 64.6319 47.1716C64.6391 47.5514 64.5581 47.9369 64.4642 48.3293C64.2369 49.113 63.825 49.9201 63.2502 50.6915C62.6742 51.4634 61.9645 52.2035 61.1742 52.8995C59.5875 54.2924 57.6982 55.5124 55.6841 56.5975C53.6657 57.6847 51.5041 58.6313 49.2602 59.4682C47.0152 60.3066 44.6784 61.0234 42.279 61.6125C39.8801 62.1998 37.4131 62.6627 34.9134 62.9177C33.6644 63.0443 32.4072 63.1176 31.1589 63.1097C29.9111 63.1058 28.6707 63.004 27.5056 62.7706C26.3556 62.5296 25.2584 62.1135 24.6566 61.5021C24.3339 61.1802 24.1159 60.8241 23.994 60.4174C23.872 60.0102 23.8497 59.5405 23.9321 59.0312C24.0127 58.5238 24.1933 57.9879 24.4368 57.457C24.5515 57.1898 24.7048 56.9276 24.8454 56.6615C25.0105 56.4022 25.1591 56.1364 25.3454 55.8817C26.0512 54.8495 26.925 53.8731 27.8804 52.9559C29.7952 51.1174 32.0197 49.4942 34.372 48.02C35.5522 47.286 36.7681 46.589 38.0095 45.9204C39.2549 45.2593 40.5261 44.6263 41.8197 44.0217C44.41 42.8187 47.0878 41.7289 49.8289 40.732C50.0624 40.6474 50.2994 40.5672 50.534 40.4845C51.5768 40.4773 52.6254 40.4939 53.6751 40.5521C55.5438 40.6553 57.4266 40.8862 59.1716 41.3905C60.0454 41.6394 60.8641 41.9774 61.603 42.3907Z" fill="#7B8080"/>
<path d="M92.912 35.3871C91.9047 35.3882 91.3148 35.5097 90.9748 35.9967C90.631 36.4844 90.5453 37.353 90.4014 38.9182C90.3248 39.6979 90.2327 40.6535 90.046 41.7904C89.9514 42.3569 89.8316 42.9697 89.668 43.6099C89.5068 44.2472 89.2953 44.9288 89.0162 45.5301L88.9633 45.6391C88.9482 45.6715 88.9385 45.6956 88.9356 45.7049C88.9269 45.7286 88.919 45.7538 88.9082 45.7783C88.8859 45.8268 88.8618 45.8793 88.8262 45.9282C88.7604 46.0329 88.642 46.1038 88.5053 46.1228C88.3676 46.1401 88.223 46.0843 88.0999 45.9865C88.0694 45.9617 88.0377 45.9362 88.0079 45.9063C87.9769 45.8775 87.9568 45.8563 87.8798 45.761C87.7532 45.5927 87.6212 45.4103 87.4956 45.2017C86.9819 44.3742 86.5089 43.3168 86.0495 42.1742C85.5905 41.0251 85.1455 39.7681 84.6952 38.4219L82.0174 38.8934C82.0188 39.0444 82.0206 39.1969 82.0213 39.3512C82.0145 39.5066 82.0073 39.663 82.0008 39.8202C81.9098 41.1391 81.5757 42.3997 81.14 43.5419C80.7015 44.6856 80.1551 45.7171 79.5677 46.6188C79.2738 47.0691 78.968 47.4866 78.6576 47.8618C78.5018 48.0495 78.3446 48.2275 78.1874 48.3894L78.0709 48.5109C78.0345 48.5469 77.9795 48.5962 77.9795 48.5962L77.895 48.6595C77.7766 48.7429 77.6611 48.8069 77.541 48.8174C77.4169 48.8253 77.3144 48.7242 77.2597 48.63C77.2 48.5347 77.1676 48.4401 77.1478 48.3563C77.1442 48.3437 77.1428 48.3333 77.1327 48.3117L77.0831 48.2013C77.05 48.1293 77.0194 48.0477 76.9881 47.9722C76.9248 47.8222 76.869 47.6632 76.8133 47.5093C76.5967 46.8839 76.433 46.2674 76.3025 45.6916C76.0438 44.536 75.905 43.5473 75.7902 42.7359C75.5722 41.1096 75.4391 40.1784 75.0625 39.6763C74.6924 39.1739 74.0866 39.0937 73.0689 39.1743C72.0541 39.2541 71.4797 39.5271 71.2448 40.2755C71.0153 41.0211 71.1084 42.24 71.5933 44.1444C71.8426 45.0967 72.1865 46.2178 72.7257 47.5359C72.9999 48.1962 73.3146 48.9033 73.7571 49.6733C73.9283 49.9683 74.3542 50.693 74.8089 51.1979C75.2773 51.7173 75.8284 52.1521 76.4867 52.3596C76.8147 52.4636 77.1773 52.5071 77.5316 52.4625L77.7935 52.4168L78.0511 52.3366C78.1371 52.3107 78.2205 52.2708 78.3047 52.2391C78.3889 52.2068 78.4741 52.1712 78.5547 52.1219L78.8022 51.9845L79.041 51.8187C79.2029 51.7162 79.3526 51.5766 79.5083 51.4522C79.6605 51.3231 79.8008 51.1713 79.9504 51.0314C80.0224 50.958 80.0936 50.8775 80.1666 50.8009L80.2673 50.6904L80.3393 50.6081C81.0731 49.733 81.6882 48.7738 82.2649 47.715C82.8379 46.658 83.3545 45.4999 83.7822 44.221C83.7973 44.1789 83.8102 44.1346 83.8243 44.0918C84.1016 44.8288 84.3919 45.5445 84.7311 46.2422C84.8632 46.5087 84.9959 46.7713 85.152 47.0349C85.2243 47.1658 85.3103 47.2975 85.393 47.428C85.4315 47.4931 85.4808 47.5586 85.525 47.6247C85.5768 47.6978 85.6376 47.7869 85.7049 47.8661C86.2179 48.5278 86.8567 49.0785 87.5906 49.3266C88.3179 49.5856 89.1115 49.5708 89.7986 49.322C90.4881 49.0778 91.0533 48.5879 91.5044 48.0196C91.6148 47.8761 91.7188 47.7265 91.8263 47.5809C91.9303 47.4305 91.9871 47.3334 92.0569 47.2284C92.1864 47.0184 92.3091 46.8119 92.4141 46.612C92.635 46.2106 92.8127 45.8275 92.9796 45.4567C93.3051 44.7173 93.5591 44.0336 93.776 43.3963C94.2062 42.122 94.485 41.0366 94.6782 40.1119C95.0537 38.2643 95.0764 37.0599 94.7962 36.3373C94.5088 35.6119 93.9127 35.3842 92.912 35.3871Z" fill="#7B8080"/>
</svg>
