<svg width="132" height="88" viewBox="0 0 132 88" fill="none" xmlns="http://www.w3.org/2000/svg">
<path d="M76.5661 40.7472C77.2777 39.2589 78.4002 38.4505 79.9337 38.322C81.4671 38.1936 82.7829 39.002 83.8811 40.7472M60.3105 51.3133C61.1243 53.7305 62.9524 55.2885 65.7948 55.9872C68.6373 56.686 71.4149 55.5783 74.1277 52.6643M72.5022 51.3133C73.0458 51.5444 73.5877 51.8625 74.1277 52.2676C74.6678 52.6726 75.2096 53.1673 75.7533 53.7516M70.5314 14.7383C86.8819 14.7383 100.137 27.8384 100.137 43.9983C100.137 60.1581 86.8819 73.2583 70.5314 73.2583C59.6062 73.2583 50.0632 67.4095 44.9331 58.7071L31.8633 58.7069L41.2814 48.5449C41.0475 47.0632 40.9261 45.5448 40.9261 43.9983C40.9261 27.8384 54.1808 14.7383 70.5314 14.7383ZM60.3105 40.7472C61.2083 40.7472 61.9361 40.0194 61.9361 39.1216C61.9361 38.2238 61.2083 37.4961 60.3105 37.4961C59.4127 37.4961 58.6849 38.2238 58.6849 39.1216C58.6849 40.0194 59.4127 40.7472 60.3105 40.7472Z" stroke="black" stroke-width="3.3" stroke-linecap="round" stroke-linejoin="round"/>
</svg>
