<svg width="132" height="88" viewBox="0 0 132 88" fill="none" xmlns="http://www.w3.org/2000/svg">
<path d="M55.5298 10.4256C59.1262 7.46674 62.7786 6.14388 70.2557 5.0917C72.1066 4.83121 79.2174 5.16414 81.2778 5.60786C91.0066 7.70202 97.0849 13.9413 99.567 24.3818C100.581 28.6463 100.8 30.6825 100.966 37.3931C101.191 46.4769 100.268 58.3049 99.2785 59.036C98.0674 59.9304 89.7355 60.2961 81.6189 59.811L78.1897 59.6061V65.562L78.9293 65.5661C80.2897 65.5736 80.3924 65.8107 80.922 70.163C81.1977 72.428 81.4747 74.4218 81.5376 74.5938C81.6006 74.766 82.8698 75.5091 84.3581 76.2456C88.4412 78.2656 91.6283 80.4948 93.999 83H31C34.0461 80.1113 36.969 77.8824 39.3583 76.7124C41.2162 75.8024 45.2543 74.5431 48.3972 73.8933L49.9378 73.5749L50.4622 71.7817C51.4692 68.3392 52.6394 64.2086 52.6394 64.0959C52.6394 64.0337 53.8965 64.0535 55.433 64.1402C58.0176 64.2864 58.2376 64.2601 58.3742 63.7898C58.7056 62.651 59.3898 55.2876 59.183 55.0904C59.06 54.9737 58.2024 54.5737 57.2766 54.2019C55.2791 53.3992 50.9385 50.856 49.1228 49.4245C46.8838 47.6589 45.123 45.6388 44.1585 43.7287C43.3479 42.1228 43.2261 41.6252 43.2261 39.9157C43.2261 37.6901 43.9342 35.4167 44.9135 34.499C45.779 33.688 47.334 33.1007 48.6159 33.1007H49.7196L49.4986 31.5581C49.377 30.7099 49.2778 28.0236 49.278 25.589C49.2783 21.6947 49.3541 20.9213 49.9093 19.1571C51.1373 15.2534 52.7981 12.6734 55.5298 10.4256Z" fill="#FBBEA5"/>
<path d="M61.6519 73.8273C62.4988 71.1258 63.3051 68.52 63.4436 68.0366C63.5822 67.5534 63.8153 67.2318 63.9619 67.3222C64.4517 67.6242 70.1171 74.5087 69.9845 74.6407C69.696 74.9286 60.3483 78.9747 60.2343 78.8612C60.167 78.7939 60.8047 76.5286 61.6519 73.8273Z" fill="#EA857A"/>
<path d="M73.1151 74.5345C73.0608 74.4832 74.3284 73.0472 75.9319 71.3431C77.5353 69.639 78.921 68.2448 79.0111 68.2448C79.1012 68.2448 79.5673 70.3877 80.0468 73.0067C80.5261 75.6256 80.9833 78.04 81.0624 78.3722C81.1417 78.7043 81.0855 78.9758 80.9378 78.9758C80.7186 78.9758 73.4489 74.8484 73.1151 74.5345Z" fill="#EA857A"/>
<path fill-rule="evenodd" clip-rule="evenodd" d="M60.8647 17.0473C60.8023 17.2448 60.1752 22.0541 59.4713 27.7349C58.7672 33.4156 58.1647 38.1016 58.1322 38.148C58.0997 38.1947 57.4967 37.6184 56.7926 36.8672C54.8986 34.8477 52.0797 33.5283 49.426 33.4194C47.727 33.3496 47.1972 33.4373 46.1859 33.9559C43.4609 35.3534 42.5277 39.7445 44.2 43.3002C46.0117 47.1524 51.1048 51.2495 57.5784 54.0623C58.6341 54.5211 59.5334 54.9273 59.577 54.9651C59.6206 55.0029 59.4772 56.5273 59.2586 58.3526C59.0396 60.1782 58.8226 62.2753 58.7758 63.0131L58.6908 64.3545L62.7708 64.6227C65.0149 64.7703 66.9067 64.9514 66.9753 65.0251C67.0439 65.0989 68.1539 66.8797 69.4421 68.9822C70.7304 71.0847 71.8242 72.8051 71.8729 72.8051C71.9216 72.8051 73.0299 71.1767 74.336 69.1864C76.2159 66.3214 76.8367 65.5671 77.3157 65.5646C77.9071 65.5617 77.9208 65.4938 77.9208 62.5436V59.5255H87.6703C99.9377 59.5255 99.4237 59.6559 99.8285 56.4403C101.21 45.4582 101.044 31.3249 99.453 24.6586C98.608 21.1157 98.6101 21.1192 96.9685 20.9279C96.1813 20.8364 91.3616 20.2811 86.2583 19.6941C66.2629 17.3945 62.9585 17.0073 61.986 16.8509C61.2674 16.7353 60.9454 16.7917 60.8647 17.0473Z" fill="#E377C6"/>
<path fill-rule="evenodd" clip-rule="evenodd" d="M86.2174 39.0089C86.0224 41.5207 85.938 43.6504 86.0297 43.7422C86.1741 43.886 90.5432 43.8924 90.6871 43.7486C90.7164 43.7196 90.3442 42.7304 89.8601 41.5507C89.376 40.371 88.521 38.2888 87.9602 36.9239C87.3992 35.5591 86.8575 34.4422 86.7564 34.4422C86.655 34.4422 86.4127 36.4973 86.2174 39.0089Z" fill="#425FD4"/>
<path fill-rule="evenodd" clip-rule="evenodd" d="M77.7679 35.3915C76.2623 36.8932 77.3411 39.5622 79.4537 39.5622C80.6871 39.5622 81.9488 38.3412 81.9488 37.1475C81.9488 35.1154 79.2014 33.9612 77.7679 35.3915ZM91.1359 35.1624C89.2755 36.4623 90.2472 39.5622 92.5153 39.5622C93.5744 39.5622 94.2414 39.1514 94.7382 38.1931C95.8839 35.9831 93.1968 33.7224 91.1359 35.1624ZM81.4577 47.03L80.8318 47.5103L81.8452 48.492C82.8541 49.4696 84.7077 50.2941 85.8964 50.2941C86.4053 50.2941 86.5209 50.1508 86.5209 49.5212C86.5209 48.8295 86.3943 48.7163 85.3176 48.4458C84.6558 48.2795 83.7018 47.7823 83.1978 47.3407C82.6935 46.8991 82.2365 46.5406 82.1822 46.5439C82.1279 46.5471 81.8016 46.766 81.4577 47.03Z" fill="#0C0B6D"/>
<path d="M48.3364 74.2024C47.6707 74.3488 47.089 74.5036 47.0435 74.5468C46.9978 74.5897 47.3719 75.2717 47.8743 76.0626C49.1316 78.0408 50.4098 80.4185 51.6187 83H55.5699C53.2953 78.2951 50.6262 73.8634 49.974 73.9073C49.739 73.9231 49.002 74.0559 48.3364 74.2024Z" fill="#CB9885"/>
<path d="M88.3255 83H84.8325C84.2457 81.2021 83.6595 79.5869 83.1405 78.3794L82.0419 75.8235C81.8302 75.3313 82.0513 75.3946 84.0485 76.3979L85.8596 77.3076L87.0446 79.9526C87.5026 80.9744 87.9262 81.9799 88.3255 83Z" fill="#CB9885"/>
</svg>
