<svg width="132" height="88" viewBox="0 0 132 88" fill="none" xmlns="http://www.w3.org/2000/svg">
<path d="M29.1504 7.14844H102.85V80.8484H29.1504V7.14844Z" fill="#151716"/>
<path fill-rule="evenodd" clip-rule="evenodd" d="M54.3365 23.6251L52.5433 23.7261L52.5919 24.5393C52.6186 24.9866 52.892 27.2188 53.1991 29.4998C53.5064 31.7808 54.3814 38.2944 55.1435 43.9745C55.9056 49.6547 56.5787 54.5582 56.6394 54.8713C56.7158 55.2663 57.2636 51.6097 58.4302 42.9174C60.7061 25.9598 60.9821 23.7964 60.8827 23.6972C60.7477 23.5625 56.315 23.5137 54.3365 23.6251ZM65.2261 24.2547C65.2758 24.5902 66.0707 31.5766 66.9923 39.7803C67.914 47.9837 68.6882 54.6758 68.7128 54.6512C68.7375 54.6266 69.2017 51.4277 69.7446 47.5421C70.2875 43.6567 70.9466 38.9409 71.2092 37.0624C71.4718 35.184 71.8026 32.8054 71.9441 31.7767C72.0858 30.748 72.3818 28.6345 72.6021 27.0799C72.8223 25.5254 73.0026 24.1166 73.0026 23.9491C73.0026 23.6603 72.8039 23.6448 69.0692 23.6448H65.1358L65.2261 24.2547ZM77.2497 24.1501C77.2728 25.6812 79.8103 48.8699 79.8995 48.3657C79.9547 48.0527 80.046 47.1378 80.1024 46.3328C80.3846 42.3007 81.4623 39.3203 83.1633 37.8678C85.2024 36.1266 88.5563 36.6187 91.2763 39.0586L92.1304 39.8247L92.0207 37.8743C91.738 32.855 90.5678 29.1002 88.6256 26.9802C86.9499 25.1508 83.6394 24.0379 78.9068 23.7128L77.2412 23.5983L77.2497 24.1501ZM46.6662 24.7743C44.7154 25.4672 43.6716 26.2636 42.5934 27.8818C41.3674 29.7214 40.5587 32.3137 40.059 36.0053C39.8779 37.3441 39.7926 47.8159 39.9615 47.9844C40.1025 48.125 40.9516 47.5983 41.4871 47.0378C42.528 45.9485 43.7389 43.3913 44.6253 40.4108C44.9022 39.4794 45.7195 35.6371 46.4413 31.8723C47.163 28.1074 47.7908 24.8992 47.8363 24.7426C47.939 24.3897 47.7333 24.3952 46.6662 24.7743ZM49.7003 32.625C48.1953 41.2276 46.7428 45.6863 44.4508 48.7395C43.4879 50.0222 42.5559 50.7087 41.0676 51.2313L39.9905 51.6094L40.038 52.3052C40.1254 53.5832 40.5689 55.6822 41.05 57.0932C42.7349 62.035 45.6905 63.7884 53.3176 64.3706C54.116 64.4316 54.4195 64.4005 54.4231 64.2574C54.4365 63.7365 50.1193 31.6788 50.0208 31.5679C49.9586 31.4978 49.8143 31.9735 49.7003 32.625ZM62.9081 34.5573C62.9011 34.7003 62.6416 36.7129 62.3316 39.0298C62.0216 41.347 61.1763 47.7803 60.4531 53.3262C59.73 58.8721 59.0974 63.6111 59.0476 63.857L58.9568 64.3042H62.6378C64.6622 64.3042 66.3187 64.2439 66.3187 64.1702C66.3187 63.8092 63.0423 34.6007 62.986 34.4602C62.9503 34.3708 62.9151 34.4145 62.9081 34.5573ZM74.6581 36.4265C74.5401 37.313 73.7579 43.015 72.92 49.0976C72.082 55.1803 71.2731 61.0627 71.1225 62.1696C70.8929 63.8565 70.8845 64.2067 71.0697 64.3327C71.3272 64.5077 77.6517 64.4368 77.8322 64.2569C77.9425 64.1467 75.254 36.9107 74.9886 35.4507C74.8852 34.8823 74.8502 34.9859 74.6581 36.4265ZM85.0876 40.6177C84.6565 41.0757 84.1992 42.2265 83.8477 43.7385C83.7065 44.3458 83.4085 47.2637 83.1853 50.2229C82.9623 53.1819 82.6359 57.4653 82.4602 59.7413C82.2845 62.0172 82.1728 63.9115 82.2121 63.9505C82.3593 64.0975 85.5138 63.2721 86.498 62.8293C88.3975 61.9741 90.0352 59.927 90.9431 57.2719C91.8236 54.6972 91.9403 53.8146 92.0231 49.0976L92.1002 44.7064L90.2542 42.8333C88.2394 40.7886 87.3692 40.2339 86.1773 40.2339C85.6229 40.2339 85.363 40.3254 85.0876 40.6177Z" fill="url(#paint0_linear_2056_24500)" fill-opacity="0.807"/>
<defs>
<linearGradient id="paint0_linear_2056_24500" x1="66.0004" y1="23.5634" x2="66.0004" y2="64.4334" gradientUnits="userSpaceOnUse">
<stop stop-color="#00EDFF"/>
<stop offset="1" stop-color="#0D72F6"/>
</linearGradient>
</defs>
</svg>
