<svg width="132" height="88" viewBox="0 0 132 88" fill="none" xmlns="http://www.w3.org/2000/svg">
<path fill-rule="evenodd" clip-rule="evenodd" d="M77.4025 2.27033C77.1933 2.41254 76.1299 5.26128 75.0395 8.60106C73.9491 11.9405 73.0309 14.671 72.9991 14.6685C72.9673 14.666 71.9547 14.3492 70.7491 13.9645C66.391 12.5741 60.8761 13.283 57.1055 15.7178C51.8521 19.1107 48.6314 25.9575 49.5101 31.8662C49.7522 33.4928 49.7114 34.1862 49.3303 34.9265C48.6431 36.2616 49.0363 37.822 50.4342 39.3057C51.4869 40.4233 51.9606 41.7563 55.2519 52.8651C65.8574 88.6622 64.9877 85.9532 65.8768 85.9532C66.6476 85.9532 67.0114 84.8627 73.4501 63.2491C79.9074 41.573 80.2701 40.4863 81.4633 39.2455C83.0095 37.6379 83.3805 35.9923 82.6142 34.1398C82.2459 33.2492 82.1307 32.3164 82.2701 31.353C82.7736 27.8777 81.2589 22.9046 78.6088 19.3318L77.2175 17.4563L79.3157 11.0485C80.47 7.52394 81.4141 4.28835 81.4141 3.85785C81.4141 2.58748 78.5835 1.46777 77.4025 2.27033ZM61.5245 16.0103C54.6187 18.4409 50.4746 25.2412 51.6636 32.1914C51.9983 34.1482 51.9734 34.5791 51.4803 35.345C50.6645 36.6122 51.2545 37.6774 53.3785 38.7731C57.1273 40.7067 63.2032 40.7222 67.0464 38.8083C68.0441 38.3117 68.9903 37.9051 69.149 37.9051C69.3077 37.9051 70.1481 38.2599 71.0165 38.6936C74.1725 40.2698 78.7903 39.5064 80.4991 37.1258C81.1672 36.1947 81.169 36.1352 80.5613 34.7639C80.0827 33.6829 79.9886 32.8859 80.1553 31.3192C80.4548 28.5032 79.6356 24.8459 78.1644 22.434C77.5174 21.3727 76.8343 20.4526 76.6466 20.3889C76.4588 20.3251 76.1327 20.7778 75.9214 21.3942L75.5375 22.5156L73.7205 20.7944C71.964 19.1301 71.8133 18.8056 72.1114 17.3335C72.4447 15.6872 65.0637 14.7646 61.5245 16.0103ZM67.6125 40.9376L66.4332 41.473L68.4771 42.856C69.601 43.6167 70.717 44.2394 70.957 44.2401C71.197 44.2408 72.1587 43.7261 73.0942 43.0971L74.795 41.9531L72.4849 41.3234C68.991 40.3712 68.8789 40.3624 67.6125 40.9376ZM54.2078 42.0063C55.1713 45.4414 55.6451 46.9283 55.8578 47.1852C56.0639 47.4348 60.3186 45.0975 60.3186 44.735C60.3186 44.5188 55.6354 41.8405 54.8376 41.6004C54.1598 41.3962 54.0557 41.4635 54.2078 42.0063ZM76.2267 41.6824C75.5434 41.9482 71.731 44.5738 71.731 44.7786C71.731 45.2119 75.5939 47.4866 75.848 47.2032C76.1053 46.9163 77.61 42.1604 77.61 41.6346C77.61 41.3822 76.9388 41.4054 76.2267 41.6824ZM63.7724 43.0563C62.7287 43.7599 61.7504 44.4488 61.5982 44.5875C61.446 44.7262 62.341 45.5154 63.5867 46.3415L65.8519 47.8438L68.0963 46.3552C69.3309 45.5368 70.2612 44.7353 70.1633 44.5745C69.9921 44.2925 66.0708 41.7771 65.8021 41.7771C65.7291 41.7771 64.8158 42.3526 63.7724 43.0563ZM57.9006 42.4836C57.8992 42.5818 58.5642 43.0718 59.3783 43.5727L60.8592 44.4829L62.4987 43.3558L64.1383 42.2284L61.021 42.2667C59.3064 42.2879 57.902 42.3854 57.9006 42.4836ZM58.7129 46.3866C57.5987 47.1395 56.6874 47.9164 56.6874 48.1131C56.6874 48.3099 57.5983 49.0864 58.7116 49.8386L60.7357 51.2069L62.948 49.7714C64.1646 48.9819 65.1602 48.2244 65.1602 48.0878C65.1602 47.9516 64.1653 47.2046 62.9493 46.4288L60.7381 45.0176L58.7129 46.3866ZM68.7122 46.4791C67.5274 47.281 66.5581 48.0163 66.5581 48.1131C66.5581 48.2099 67.5392 48.9449 68.7382 49.7464L70.9183 51.204L73.2114 49.7464C74.4727 48.9449 75.5115 48.1994 75.5198 48.0899C75.5281 47.9804 74.9517 47.5478 74.2382 47.1289C73.5251 46.71 72.4745 46.0645 71.9039 45.6942L70.8664 45.0215L68.7122 46.4791ZM63.7769 49.7408C62.7308 50.4462 61.7504 51.1368 61.5982 51.2755C61.446 51.4142 62.3341 52.1988 63.5715 53.0197L65.8211 54.5114L67.9275 53.1883C69.0861 52.4603 70.109 51.7412 70.2007 51.5902C70.3456 51.3519 67.0893 49.0076 66.0521 48.6035C65.8467 48.5236 64.823 49.0354 63.7769 49.7408ZM56.7345 50.6546C57.0284 51.6768 57.3877 52.6402 57.5326 52.7958C57.6775 52.9514 58.3879 52.7229 59.1113 52.2886L60.4262 51.499L59.6239 50.9499C59.1826 50.6482 58.2315 50.04 57.5105 49.5986L56.1998 48.796L56.7345 50.6546ZM73.4646 50.1114L71.6051 51.386L72.619 52.2118C73.1769 52.6659 73.7769 52.9894 73.9526 52.931C74.269 52.8254 75.6298 49.1484 75.4286 48.9431C75.3711 48.8847 74.4872 49.4106 73.4646 50.1114ZM59.4032 52.5983C58.6704 53.0953 58.013 53.5491 57.9428 53.6071C57.8722 53.6649 57.9182 54.2731 58.0445 54.9585C58.2091 55.8508 58.6237 56.4467 59.5049 57.056L60.7353 57.9072L62.8615 56.5087C64.0307 55.7392 64.9873 54.9708 64.9873 54.8011C64.9873 54.6315 64.0307 53.8631 62.8615 53.0936L60.7353 51.6951L59.4032 52.5983ZM68.7122 53.1654C67.5274 53.9683 66.5581 54.7043 66.5581 54.8011C66.5581 54.8979 67.5471 55.6385 68.7565 56.4467L70.9549 57.9167L72.139 57.0976C72.8656 56.5949 73.4687 55.7952 73.7004 55.0275C74.0452 53.8835 74.0069 53.73 73.2502 53.233C70.7253 51.574 71.0542 51.5786 68.7122 53.1654ZM63.7724 56.4323C62.7287 57.136 61.7504 57.8248 61.5982 57.9635C61.446 58.1022 62.3341 58.8868 63.5715 59.7077L65.8211 61.1994L67.9275 59.8763C69.0861 59.1483 70.1031 58.4391 70.1875 58.3C70.3189 58.0839 66.2544 55.1531 65.8232 55.1531C65.7388 55.1531 64.8158 55.7287 63.7724 56.4323ZM58.9353 57.9568C58.9353 58.3507 59.1594 58.6731 59.4336 58.6731C60.2605 58.6731 60.3847 58.03 59.6367 57.6224C59.0387 57.2968 58.9353 57.3461 58.9353 57.9568ZM72.1221 57.7375C71.9104 57.9973 71.8392 58.3141 71.9644 58.4415C72.369 58.8534 72.6837 58.689 72.8687 57.9691C73.0759 57.1627 72.6889 57.0427 72.1221 57.7375ZM60.0897 58.9167L59.3583 59.4109L60.0489 61.77C60.4286 63.0675 60.7914 64.1858 60.8547 64.2552C61.022 64.4382 65.1616 61.8348 65.153 61.5518C65.1492 61.4205 64.1729 60.6626 62.9832 59.8678C61.0141 58.5513 60.7557 58.4665 60.0897 58.9167ZM68.5365 59.997C67.4455 60.7211 66.5522 61.3923 66.5511 61.4891C66.5487 61.7443 70.6935 64.4238 70.8429 64.2636C70.912 64.1897 71.2793 63.0995 71.6594 61.8411C72.7259 58.3085 71.8565 57.7949 68.5365 59.997ZM63.7171 63.1802C62.6384 63.8958 61.6611 64.5783 61.5456 64.6969C61.4301 64.8156 62.349 65.5847 63.5874 66.4062L65.8394 67.8994L67.3282 67.0113C68.1471 66.5228 69.1801 65.824 69.6235 65.4587L70.4296 64.7941L68.2032 63.3178C66.9786 62.5057 65.9096 61.8496 65.8277 61.8602C65.7461 61.8707 64.7961 62.4645 63.7171 63.1802ZM61.3561 66.0025C61.3561 66.3211 62.4309 69.6844 62.5983 69.8893C62.7501 70.0751 65.1613 68.5158 65.154 68.2363C65.1478 68.0004 61.8655 65.7131 61.5332 65.7131C61.4356 65.7131 61.3561 65.8434 61.3561 66.0025ZM68.3411 66.86C67.3524 67.4788 66.5435 68.0948 66.5435 68.2285C66.5435 68.4792 68.7095 69.9372 69.0819 69.9372C69.334 69.9372 70.4694 66.0715 70.275 65.874C70.2 65.7976 69.3295 66.2411 68.3411 66.86ZM64.4876 69.4201C63.8322 69.891 63.1485 70.3265 62.968 70.3877C62.2822 70.6204 63.4698 73.0721 64.618 73.7944C65.2463 74.1897 65.9037 74.5132 66.0787 74.5132C66.8008 74.5132 68.6365 72.5046 68.8132 71.5212C68.9837 70.5722 68.8485 70.3669 67.4776 69.4972C66.6386 68.9649 65.8906 68.5369 65.8156 68.5464C65.7405 68.5559 65.1429 68.9491 64.4876 69.4201ZM63.7821 74.2463C63.7911 74.9915 64.3693 75.6734 64.7757 75.4175C65.3356 75.0655 65.2501 74.7399 64.4686 74.2428C63.9145 73.8905 63.7779 73.8912 63.7821 74.2463ZM67.081 74.3498C66.546 74.7613 66.4958 74.9574 66.8358 75.3034C67.1761 75.6498 67.331 75.6315 67.59 75.2144C67.8847 74.7402 68.0548 73.7926 67.8404 73.8204C67.793 73.8264 67.451 74.0647 67.081 74.3498ZM65.017 75.7494C64.369 76.2485 64.3686 76.3048 64.9904 78.395C65.3397 79.5697 65.7322 80.5978 65.8629 80.6802C65.9933 80.7622 66.3793 79.7802 66.7203 78.4978C67.3206 76.2415 67.3199 76.1507 66.703 75.6917C65.9217 75.1102 65.8436 75.113 65.017 75.7494Z" fill="black" fill-opacity="0.983"/>
</svg>
