<svg width="132" height="88" viewBox="0 0 132 88" fill="none" xmlns="http://www.w3.org/2000/svg">
<circle cx="66.0008" cy="44.0008" r="35.2" fill="black"/>
<path d="M84.2411 38.8029H71.3983C71.3309 38.1882 71.0528 37.6586 70.564 37.2139C70.0753 36.7692 69.4432 36.4292 68.668 36.1938C67.9095 35.9453 67.0668 35.821 66.1398 35.821C64.9432 35.821 63.9151 35.991 63.0556 36.3311C62.196 36.6711 61.7746 37.155 61.7915 37.7828C61.7746 38.2275 62.019 38.6395 62.5246 39.0187C63.0471 39.398 64.0499 39.6923 65.5331 39.9016L73.4208 41.0002C77.3984 41.5626 80.3562 42.5108 82.2945 43.8448C84.2495 45.1657 85.2355 46.9379 85.2523 49.1613C85.2355 51.3062 84.4096 53.1699 82.7748 54.7524C81.1568 56.3219 78.9405 57.5382 76.1259 58.4014C73.3281 59.2515 70.1343 59.6766 66.5443 59.6766C60.6117 59.6766 55.9684 58.7349 52.6145 56.8516C49.2774 54.9682 47.415 52.4833 47.0273 49.3967H60.8814C61.0668 50.3514 61.6735 51.0904 62.7016 51.6135C63.7466 52.1236 65.0612 52.3786 66.6455 52.3786C67.9264 52.3786 68.9798 52.2086 69.8056 51.8686C70.6483 51.5285 71.0781 51.0446 71.0949 50.4168C71.0781 49.8414 70.7073 49.3836 69.9826 49.0436C69.2747 48.7035 68.1623 48.4289 66.6455 48.2196L59.769 47.278C55.8083 46.7417 52.842 45.7216 50.8701 44.2175C48.8981 42.7135 47.9206 40.7778 47.9375 38.4106C47.9206 36.318 48.6285 34.5458 50.0611 33.0941C51.5105 31.6293 53.5751 30.5176 56.2549 29.759C58.9516 28.9874 62.1454 28.6016 65.8365 28.6016C71.4489 28.6016 75.8731 29.504 79.109 31.3089C82.3619 33.1137 84.0726 35.6117 84.2411 38.8029Z" fill="white"/>
</svg>
