<svg width="132" height="88" viewBox="0 0 132 88" fill="none" xmlns="http://www.w3.org/2000/svg">
<path d="M85.3974 26.554L93.3339 18.6404C97.6992 14.2877 101.348 10.7266 101.442 10.7266C101.536 10.7266 101.783 10.8952 101.989 11.101C102.285 11.3961 100.784 13.0526 94.9257 18.8944L87.4858 26.3132L88.1614 27.9725C88.5332 28.8849 89.0265 30.3464 89.2576 31.2205L89.6783 32.8092H88.6873C87.7616 32.8092 87.6711 32.7123 87.3187 31.3425C87.1113 30.5356 86.5943 29.1281 86.1696 28.2148L85.3974 26.554Z" fill="black"/>
<path d="M52.6717 16.181C55.6471 14.653 57.7965 13.9374 60.6627 13.5212C61.6718 13.3749 63.3707 13.2382 64.4383 13.2176L66.379 13.1802L65.8577 14.0598C65.3766 14.8714 65.1541 14.9545 62.9807 15.1351C58.4299 15.5133 54.2748 17.0302 50.9325 19.5342C46.5014 22.8539 46.4155 25.5449 50.6251 29.1745C53.3438 31.5186 58.0956 34.1148 71.6617 40.6679C86.1692 47.6757 86.7266 48.0324 88.3568 51.3531C89.5823 53.849 89.7848 57.5994 88.8572 60.6207C87.355 65.5136 83.6108 69.7191 78.5777 72.1669C75.2222 73.7985 72.5499 74.4978 68.7245 74.7447C66.1577 74.9107 65.9497 74.8821 66.1386 74.3911C66.2516 74.0976 66.3442 73.682 66.3442 73.4676C66.3442 73.2011 67.1192 73.0186 68.7996 72.8895C73.9099 72.4969 78.6777 70.5895 81.9566 67.6258C85.1262 64.7612 85.2164 63.0523 82.3592 59.9889C79.5084 56.9323 76.6 55.2838 59.5735 47.0721C45.768 40.4139 44.9727 39.8913 43.4287 36.4626C40.3243 29.5686 44.5166 20.3693 52.6717 16.181Z" fill="black"/>
<path d="M43.9116 60.0352C43.5398 59.1228 43.0465 57.6614 42.8153 56.7873L42.3946 55.1985H43.3856C44.3114 55.1985 44.4018 55.2954 44.7542 56.6652C44.9617 57.4721 45.4787 58.8796 45.9034 59.7929L46.6756 61.4537L38.7391 69.3673C34.3738 73.72 30.7321 77.279 30.6462 77.2766C30.5603 77.2738 30.2824 77.1392 30.0285 76.9772C29.6604 76.7426 31.0884 75.1646 37.0772 69.1888L44.5871 61.6945L43.9116 60.0352Z" fill="black"/>
</svg>
