<svg width="132" height="88" viewBox="0 0 132 88" fill="none" xmlns="http://www.w3.org/2000/svg">
<path d="M35.9297 62.8762L41.1012 57.7989C49.1434 65.7459 55.5454 68.7734 66.9301 68.7734C74.4665 68.7734 88.7527 66.5665 88.7527 56.4745C88.7527 49.0949 81.1212 46.1304 74.9081 46.0674L61.9474 45.9098C54.252 45.8152 50.4678 44.9322 46.7786 42.5353C42.7734 39.9179 40.4705 35.156 40.4705 30.3941C40.4705 16.865 55.7343 11.9453 66.8671 11.9453C76.8634 11.9453 84.8106 14.9097 92.7897 20.9647L88.28 26.6098C81.2152 21.5953 75.3181 19.2302 66.646 19.2302C60.0862 19.2302 47.7871 21.8476 47.7871 30.3941C47.7871 32.9483 49.1744 35.4714 51.3824 36.7012C54.158 38.1835 56.0503 38.5935 63.8394 38.6565L72.9531 38.751C77.2101 38.751 81.562 39.1611 85.5041 40.8009C91.8121 43.4183 96.0691 49.915 96.0691 56.6951C96.0691 71.5492 79.0084 76.0578 67.056 76.0578C53.8423 76.0578 45.1693 72.2738 35.9927 62.8446L35.9297 62.8762Z" fill="black"/>
</svg>
