<svg width="132" height="88" viewBox="0 0 132 88" fill="none" xmlns="http://www.w3.org/2000/svg">
<path fill-rule="evenodd" clip-rule="evenodd" d="M55.9461 70.937C77.738 70.937 106.785 55.7626 106.785 41.7234C106.785 30.3414 82.2907 17.0625 60.4989 17.0625C38.707 17.0625 25.2148 29.5811 25.2148 43.6204C25.2148 57.6596 34.1542 70.937 55.9461 70.937ZM55.9749 48.4296L52.5315 51.0217C53.4944 52.7009 54.7904 54.0212 56.4196 54.9841C58.0738 55.947 59.9252 56.4281 61.974 56.4281C64.4674 56.4281 66.5161 55.7619 68.1202 54.4287C69.7258 53.0704 70.5279 51.2933 70.5279 49.0966C70.5279 47.4675 70.046 46.1092 69.0839 45.0234C68.1202 43.9125 66.5905 42.8881 64.4917 41.9503L61.7145 40.7278C60.6286 40.2346 59.8759 39.8021 59.4563 39.4318C59.0617 39.0372 58.8637 38.5304 58.8637 37.9142C58.8637 37.1729 59.1475 36.5932 59.715 36.1735C60.2826 35.7539 61.0111 35.5437 61.9004 35.5437C63.7518 35.5437 65.3066 36.4816 66.5654 38.3581L69.9724 35.7289C69.1825 34.297 68.0959 33.174 66.7134 32.3598C65.3309 31.5198 63.7268 31.1002 61.8996 31.1002C59.5549 31.1002 57.617 31.7422 56.0865 33.0261C54.556 34.2849 53.7904 35.9512 53.7904 38.025C53.7904 40.9623 55.7655 43.3077 59.715 45.0606L62.3443 46.245C63.5788 46.8126 64.4052 47.2945 64.8255 47.689C65.2451 48.0593 65.4553 48.5905 65.4553 49.2817C65.4553 50.121 65.1465 50.7872 64.5296 51.2812C63.9119 51.7501 63.0606 51.9846 61.974 51.9846C59.7029 51.9846 57.7035 50.8001 55.9749 48.4296Z" fill="#3ABEFF"/>
</svg>
