<svg width="132" height="88" viewBox="0 0 132 88" fill="none" xmlns="http://www.w3.org/2000/svg">
<mask id="mask0_2056_25338" style="mask-type:luminance" maskUnits="userSpaceOnUse" x="34" y="12" width="64" height="64">
<path d="M34.0156 12.0156H97.9852V75.9852H34.0156V12.0156Z" fill="white"/>
</mask>
<g mask="url(#mask0_2056_25338)">
<mask id="mask1_2056_25338" style="mask-type:luminance" maskUnits="userSpaceOnUse" x="34" y="12" width="64" height="64">
<path d="M34.0156 28.0081C34.0156 19.1757 41.1752 12.0156 50.0081 12.0156H81.9928C90.8256 12.0156 97.9852 19.1757 97.9852 28.0081V59.9928C97.9852 68.8256 90.8256 75.9852 81.9928 75.9852H50.0081C41.1752 75.9852 34.0156 68.8256 34.0156 59.9928V28.0081Z" fill="white"/>
</mask>
<g mask="url(#mask1_2056_25338)">
<path d="M34.0156 28.0081C34.0156 19.1757 41.1752 12.0156 50.0081 12.0156H81.9928C90.8258 12.0156 97.9854 19.1757 97.9854 28.0081V59.9928C97.9854 68.8256 90.8258 75.9852 81.9928 75.9852H50.0081C41.1752 75.9852 34.0156 68.8256 34.0156 59.9928V28.0081Z" fill="white"/>
<g opacity="0.4">
<path d="M56.5057 18.0136C56.5057 11.1133 50.9125 5.51953 44.0117 5.51953C37.1109 5.51953 31.5176 11.1133 31.5176 18.0136C31.5176 24.9141 37.1109 30.5076 44.0117 30.5076C50.9125 30.5076 56.5057 24.9141 56.5057 18.0136Z" fill="#EE46D3"/>
</g>
<g opacity="0.5">
<path d="M103.984 13.5173C103.984 6.34098 98.0545 0.523438 90.7398 0.523438C83.4254 0.523438 77.4961 6.34098 77.4961 13.5173C77.4961 20.6936 83.4254 26.511 90.7398 26.511C98.0545 26.511 103.984 20.6936 103.984 13.5173Z" fill="#18A0FB"/>
</g>
<g opacity="0.5">
<path d="M99.9856 70.7408C99.9856 64.5308 94.9509 59.4961 88.7408 59.4961C82.5308 59.4961 77.4961 64.5308 77.4961 70.7408C77.4961 76.9509 82.5308 81.9853 88.7408 81.9853C94.9509 81.9853 99.9856 76.9509 99.9856 70.7408Z" fill="#F4CE10"/>
</g>
<g opacity="0.5">
<path d="M47.5086 68.2395C47.5086 60.6492 41.4676 54.4961 34.0151 54.4961C26.5626 54.4961 20.5215 60.6492 20.5215 68.2395C20.5215 75.83 26.5626 81.9832 34.0151 81.9832C41.4676 81.9832 47.5086 75.83 47.5086 68.2395Z" fill="#7B61FF"/>
</g>
<g opacity="0.2">
<path d="M86.9915 44.2477C86.9915 32.2412 77.482 22.5078 65.7516 22.5078C54.0212 22.5078 44.5117 32.2412 44.5117 44.2477C44.5117 56.2542 54.0212 65.9872 65.7516 65.9872C77.482 65.9872 86.9915 56.2542 86.9915 44.2477Z" fill="#18A0FB"/>
</g>
<path d="M43.2611 25.0106C43.9508 25.0106 44.5105 24.4513 44.5105 23.7613C44.5105 23.0711 43.9508 22.5117 43.2611 22.5117C42.5715 22.5117 42.0117 23.0711 42.0117 23.7613C42.0117 24.4513 42.5715 25.0106 43.2611 25.0106Z" fill="#47516B" fill-opacity="0.75"/>
<path d="M43.2611 35.1317C43.9508 35.1317 44.5105 34.5724 44.5105 33.8824C44.5105 33.1922 43.9508 32.6328 43.2611 32.6328C42.5715 32.6328 42.0117 33.1922 42.0117 33.8824C42.0117 34.5724 42.5715 35.1317 43.2611 35.1317Z" fill="#47516B" fill-opacity="0.75"/>
<path d="M43.2611 45.2489C43.9508 45.2489 44.5105 44.6896 44.5105 43.9993C44.5105 43.3093 43.9508 42.75 43.2611 42.75C42.5715 42.75 42.0117 43.3093 42.0117 43.9993C42.0117 44.6896 42.5715 45.2489 43.2611 45.2489Z" fill="#47516B" fill-opacity="0.75"/>
<path d="M43.2611 55.3697C43.9508 55.3697 44.5105 54.8104 44.5105 54.1204C44.5105 53.4304 43.9508 52.8711 43.2611 52.8711C42.5715 52.8711 42.0117 53.4304 42.0117 54.1204C42.0117 54.8104 42.5715 55.3697 43.2611 55.3697Z" fill="#47516B" fill-opacity="0.75"/>
<path d="M43.2611 65.4908C43.9508 65.4908 44.5105 64.9312 44.5105 64.2415C44.5105 63.5515 43.9508 62.9922 43.2611 62.9922C42.5715 62.9922 42.0117 63.5515 42.0117 64.2415C42.0117 64.9312 42.5715 65.4908 43.2611 65.4908Z" fill="#47516B" fill-opacity="0.75"/>
<path d="M97.9857 12.0156H55.5059V33.5054H97.9857V12.0156Z" fill="#9581FF"/>
<path d="M97.9857 33.5078H55.5059V54.4977H97.9857V33.5078Z" fill="#7B61FF"/>
<path d="M97.9857 54.4961H55.5059V75.986H97.9857V54.4961Z" fill="#624ECC"/>
<path d="M63.2524 33.0079C63.2524 37.2861 59.7841 40.7544 55.5062 40.7544C51.2283 40.7544 47.7598 37.2861 47.7598 33.0079C47.7598 28.7297 51.2283 25.2617 55.5062 25.2617C59.7841 25.2617 63.2524 28.7297 63.2524 33.0079Z" fill="url(#paint0_linear_2056_25338)" stroke="#F0F0F0" stroke-width="0.309375"/>
<path d="M60.5859 33.0067C60.5859 35.8128 58.3111 38.0876 55.5042 38.0876C52.6986 38.0876 50.4238 35.8128 50.4238 33.0067C50.4238 30.2006 52.6986 27.9258 55.5042 27.9258C58.3111 27.9258 60.5859 30.2006 60.5859 33.0067Z" fill="#7B61FF" stroke="#F0F0F0" stroke-width="0.309375"/>
</g>
</g>
<defs>
<linearGradient id="paint0_linear_2056_25338" x1="55.5062" y1="25.0117" x2="55.5062" y2="41.0041" gradientUnits="userSpaceOnUse">
<stop stop-color="#F4F6FB"/>
<stop offset="1" stop-color="#E7E9EE"/>
</linearGradient>
</defs>
</svg>
