<svg width="132" height="88" viewBox="0 0 132 88" fill="none" xmlns="http://www.w3.org/2000/svg">
<path d="M49.6762 60.3226C50.5354 73.2101 57.4087 82.6609 66.0004 82.6609C74.5921 82.6609 81.4654 73.2101 82.3246 60.3226C95.2121 59.4634 104.663 52.5901 104.663 43.9984C104.663 35.4068 95.2121 28.5334 82.3246 27.6743C81.4654 14.7868 74.5921 5.33594 66.0004 5.33594C57.4087 5.33594 50.5354 14.7868 49.6762 27.6743C36.7887 28.5334 27.3379 35.4068 27.3379 43.9984C27.3379 52.5901 36.7887 59.4634 49.6762 60.3226ZM72.8737 71.4918C71.585 73.2101 69.4371 76.6468 66.0004 76.6468C62.5637 76.6468 60.4158 73.6397 59.1271 71.4918C57.4087 68.4847 56.12 64.6184 55.6904 60.3226C64.7116 59.4634 72.4441 55.5972 75.4512 50.4422C75.8808 52.5901 76.3104 55.1676 76.3104 57.3155C76.3104 62.9001 75.0216 67.6255 72.8737 71.4918ZM60.4158 43.9984C60.4158 40.9914 62.9933 38.4138 66.0004 38.4138C69.0075 38.4138 71.585 40.9914 71.585 43.9984C71.585 47.0055 69.0075 49.583 66.0004 49.583C62.9933 49.583 60.4158 47.0055 60.4158 43.9984ZM93.4937 37.1251C95.2121 38.4139 98.6487 40.5618 98.6487 43.9984C98.6487 47.4351 95.6416 49.583 93.4937 50.8718C90.4866 52.5901 86.6204 53.8788 82.3246 54.3084C81.4654 45.2872 77.5991 37.5547 72.4441 34.5476C74.5921 34.118 77.1696 33.6884 79.3175 33.6884C84.9021 33.6884 89.6275 34.9772 93.4937 37.1251ZM59.1271 16.5051C60.4158 14.7868 62.5637 11.3501 66.0004 11.3501C69.4371 11.3501 71.585 14.3572 72.8737 16.5051C74.5921 19.5122 75.8808 23.3784 76.3104 27.6743C67.2891 28.5334 59.5566 32.3997 56.5496 37.5547C55.6904 35.4068 55.6904 32.8293 55.6904 30.2518C55.6904 25.0968 56.9791 20.3714 59.1271 16.5051ZM38.5071 37.1251C41.5141 35.4068 45.3804 34.118 49.6762 33.6884C50.5354 42.7097 54.4016 50.4422 59.5566 53.4493C57.4087 53.8788 54.8312 54.3084 52.6833 54.3084C47.5283 54.3084 42.3733 53.0197 38.5071 50.8718C36.7887 49.583 33.3521 47.4351 33.3521 43.9984C33.3521 40.5618 36.7887 38.4139 38.5071 37.1251Z" fill="black"/>
</svg>
