<svg width="132" height="88" viewBox="0 0 132 88" fill="none" xmlns="http://www.w3.org/2000/svg">
<path d="M55.3955 48.0064C54.4097 47.5665 53.4667 47.0411 52.5622 46.4688C50.1876 44.9653 48.9788 43.1885 49.0003 41.1297C49.0089 40.3097 49.1203 39.6775 49.6047 38.7165C50.0976 37.7427 50.9463 36.9952 51.3749 36.709C52.5108 35.9487 53.5524 35.8804 54.5811 35.9103C55.7684 35.9402 57.1187 36.7517 57.9416 37.1575C58.696 37.5291 61.8722 39.0582 62.931 39.4768C63.9897 39.8911 65.2627 40.1943 66.6601 40.1943C68.5032 40.1943 69.802 39.6818 70.4707 39.0966C71.1393 38.5115 71.3837 37.8366 71.3837 36.7218C71.3837 35.8889 70.8179 34.992 69.952 34.4111C69.0862 33.8259 67.9117 33.1468 66.5872 32.5531C65.147 31.9039 64.8384 31.7629 63.8054 31.3743C62.7166 30.96 61.7565 30.5926 60.7492 30.204C58.1259 29.0934 54.474 27.6412 52.2965 25.8046L52.3008 25.8131C50.1233 24.0021 49.0003 21.0763 49.0003 17.6252C49.0003 13.6231 50.5648 10.6716 53.6896 8.00213C56.8186 5.33262 60.9764 4 66.1672 4C67.003 4 67.886 4.05552 68.8033 4.16658C69.7248 4.27763 70.6336 4.44421 71.5251 4.66631C74.427 5.27709 77.0674 6.33636 79.4378 7.83556C81.8124 9.33903 83.0212 11.1201 82.9997 13.1789C82.9911 13.9989 82.8797 14.6268 82.3953 15.5878C81.9024 16.5617 81.0537 17.3091 80.6251 17.5953C79.4892 18.3556 78.4476 18.4239 77.4189 18.394C76.2316 18.3641 74.8813 17.5569 74.0584 17.1468C73.304 16.7752 70.1278 15.2461 69.069 14.8318C68.0103 14.4132 66.7373 14.11 65.3399 14.11C63.4968 14.11 62.198 14.6225 61.5293 15.2077C60.8606 15.7928 60.6163 16.472 60.6163 17.5825C60.6163 18.4154 61.1821 19.3123 62.048 19.8975C62.9138 20.4784 64.0883 21.1575 65.4128 21.7512C66.853 22.4004 67.1616 22.5414 68.1946 22.9343C69.2834 23.3444 70.2864 23.7202 71.2894 24.1089C73.9126 25.3177 77.0803 26.7443 79.2577 28.551C81.4352 30.362 82.9997 33.2322 82.9997 36.6791C82.9997 40.6855 81.4352 43.6327 78.3104 46.3022C77.6675 46.8489 76.2573 47.8996 76.2573 47.8996C77.2346 48.4036 78.1433 48.9589 78.9834 49.6935C81.6581 52.0342 82.9997 55.3187 82.9997 59.543V78.4901C82.9997 80.1901 82.5197 81.5312 81.5638 82.5222C80.6079 83.5088 79.3649 84 77.8347 84C76.3516 84 75.1214 83.5088 74.1398 82.5222C73.1582 81.5312 72.6696 80.2114 72.6696 78.5585V61.1959C72.6696 58.9493 72.0138 57.2579 70.6979 56.1345C69.3819 55.0069 67.796 54.4474 65.9314 54.4474C64.0626 54.4474 62.6181 55.0069 61.3021 56.1345C59.9862 57.2579 59.3304 58.9493 59.3304 61.1959V78.5585C59.3304 80.2114 58.8418 81.5312 57.8602 82.5222C56.8786 83.5088 55.6484 84 54.1653 84C52.6351 84 51.3921 83.5088 50.4362 82.5222C49.4804 81.5312 49.0003 80.1901 49.0003 78.4901V59.543C49.0003 55.3187 50.3419 52.0342 53.0166 49.6935C53.7796 49.0272 55.3955 48.0064 55.3955 48.0064Z" fill="#FF6682"/>
</svg>
