<svg width="132" height="88" viewBox="0 0 132 88" fill="none" xmlns="http://www.w3.org/2000/svg">
<mask id="mask0_2056_25079" style="mask-type:luminance" maskUnits="userSpaceOnUse" x="32" y="11" width="68" height="66">
<path d="M32.0156 11.8789H99.9833V76.1224H32.0156V11.8789Z" fill="white"/>
</mask>
<g mask="url(#mask0_2056_25079)">
<path d="M56.5957 46.979V76.1219L99.983 53.9621L99.8901 24.7266L56.5957 46.979Z" fill="#7C61D6"/>
<path d="M32.0156 63.3678L56.596 76.1229V46.9808L32.0156 34.0391V63.3678Z" fill="#6140D2"/>
<path d="M99.8903 24.7276L56.596 46.9801L32.0156 34.0383L75.4029 11.8789L99.8903 24.7276Z" fill="#9683DB"/>
<path d="M56.6428 41.6705L42.3516 34.0359L56.6428 26.7734L70.4233 34.548L56.6428 41.6705Z" fill="#7C61D6"/>
<path d="M56.6426 41.6705V26.7734L70.422 34.548L56.6426 41.6705Z" fill="#6140D2"/>
<path d="M75.6349 31.7096L61.3438 24.0748L75.6349 16.8125L89.4155 24.5868L75.6349 31.7096Z" fill="#7C61D6"/>
<path d="M75.6367 31.7096V16.8125L89.4161 24.5868L75.6367 31.7096Z" fill="#6140D2"/>
</g>
</svg>
