<svg width="132" height="88" viewBox="0 0 132 88" fill="none" xmlns="http://www.w3.org/2000/svg">
<rect x="27.5" y="5.5" width="77" height="77" rx="38.5" fill="black"/>
<path d="M69.9701 54.3575C72.7548 54.3575 75.0122 52.0904 75.0122 49.2939C75.0122 46.4973 72.7548 44.2303 69.9701 44.2303C67.1854 44.2303 64.928 46.4973 64.928 49.2939C64.928 52.0904 67.1854 54.3575 69.9701 54.3575Z" fill="#DDF5FF"/>
<path d="M71.6672 61.9777C71.0133 61.7281 70.3169 61.6105 69.6177 61.6317C68.9185 61.6529 68.2304 61.8125 67.5927 62.1012C66.9551 62.39 66.3804 62.8023 65.9017 63.3144C65.423 63.8266 65.0496 64.4287 64.803 65.086C64.7232 65.3251 64.5523 65.5228 64.3277 65.6355C64.1031 65.7483 63.8432 65.767 63.6048 65.6876C61.7862 65.0036 60.0977 64.0116 58.6127 62.7548C58.4404 62.5769 58.344 62.3386 58.344 62.0905C58.344 61.8423 58.4404 61.604 58.6127 61.4262C59.2913 60.6759 59.7433 59.7471 59.9158 58.7484C60.0882 57.7497 59.9741 56.7224 59.5866 55.7864C59.1992 54.8504 58.5544 54.0446 57.7278 53.463C56.9012 52.8814 55.9268 52.5482 54.9185 52.5022C51.4558 53.8275 47.6511 53.951 44.1105 52.8532C44.8713 54.9582 45.9857 56.9167 47.4053 58.6437C57.0901 70.0995 61.7827 72.2051 74.8622 65.5122C74.8108 65.4428 74.7689 65.367 74.7374 65.2866C74.4979 64.543 74.0989 63.8613 73.5684 63.2895C73.0379 62.7178 72.3889 62.27 71.6672 61.9777Z" fill="#DDF5FF"/>
<path d="M93.7827 32.5989C89.7141 27.5854 67.6238 28.3625 63.8297 29.0895C64.5915 30.6209 65.1135 32.2612 65.3773 33.9525C65.7375 34.7188 66.275 35.3875 66.9448 35.9027C67.6147 36.418 68.3975 36.7649 69.228 36.9146C70.0586 37.0642 70.9127 37.0122 71.7191 36.763C72.5256 36.5137 73.261 36.0744 73.864 35.4816C74.4477 34.9054 74.8918 34.2021 75.1619 33.4261C75.2417 33.187 75.4126 32.9894 75.6371 32.8766C75.8617 32.7638 76.1217 32.7451 76.36 32.8245C78.1789 33.5081 79.8675 34.5001 81.3522 35.7574C81.5245 35.9352 81.6209 36.1735 81.6209 36.4217C81.6209 36.6698 81.5245 36.9081 81.3522 37.086C80.5951 37.9093 80.1151 38.951 79.9803 40.0636C79.8455 41.1761 80.0627 42.303 80.6011 43.2847C81.1396 44.2663 81.972 45.0529 82.9803 45.5331C83.9887 46.0132 85.122 46.1625 86.2196 45.9598C86.4611 45.8986 86.7169 45.9353 86.9318 46.0619C87.1466 46.1885 87.3032 46.395 87.3678 46.6366C87.6493 48.4388 87.6493 50.274 87.3678 52.0762C87.3469 52.199 87.3016 52.3164 87.2346 52.4212C87.1675 52.5261 87.0801 52.6163 86.9776 52.6865C86.8751 52.7567 86.7596 52.8054 86.6379 52.8297C86.5163 52.8541 86.3909 52.8536 86.2695 52.8282C85.18 52.5888 84.0431 52.6994 83.0197 53.1446C81.9963 53.5897 81.1381 54.3468 80.5668 55.3087C79.9954 56.2706 79.7397 57.3886 79.8359 58.5045C79.932 59.6203 80.3752 60.6776 81.1026 61.5266C90.413 53.856 97.7265 37.2614 93.7827 32.5989Z" fill="#DDF5FF"/>
<path d="M59.9358 40.1443L57.9888 38.9662C57.7245 38.8042 57.507 38.5754 57.3581 38.3027C57.2092 38.0301 57.1341 37.7229 57.1402 37.412V36.4595C57.1367 36.1461 57.2156 35.8373 57.369 35.5644C57.5224 35.2915 57.7448 35.0642 58.0138 34.9053L59.9607 33.7271C60.1725 33.6105 60.3583 33.4516 60.5068 33.2603C60.6552 33.0689 60.7631 32.8491 60.8239 32.6144C60.8846 32.3796 60.897 32.1349 60.8602 31.8952C60.8233 31.6554 60.7381 31.4258 60.6097 31.2204L59.6363 29.6161C59.5223 29.4013 59.3657 29.2123 59.1762 29.0607C58.9866 28.9091 58.7681 28.7982 58.5342 28.7348C58.3002 28.6713 58.0558 28.6567 57.8161 28.6919C57.5763 28.7271 57.3463 28.8113 57.1402 28.9392L55.1683 30.1174C54.8989 30.2736 54.5932 30.3559 54.2822 30.3559C53.9711 30.3559 53.6655 30.2736 53.396 30.1174L52.4975 29.591C52.2285 29.4321 52.0061 29.2047 51.8526 28.9318C51.6992 28.6589 51.6203 28.3502 51.6238 28.0368V25.7056C51.624 25.2421 51.4442 24.7968 51.1225 24.4645C50.8009 24.1321 50.3629 23.9388 49.9015 23.9258H48.0544C47.5844 23.9258 47.1336 24.1133 46.8013 24.4471C46.4689 24.7808 46.2822 25.2335 46.2822 25.7056V28.2123C46.2857 28.5257 46.2068 28.8344 46.0534 29.1073C45.9 29.3802 45.6776 29.6076 45.4086 29.7665L44.51 30.2929C44.2406 30.4491 43.935 30.5313 43.6239 30.5313C43.3128 30.5313 43.0072 30.4491 42.7378 30.2929L40.7659 28.9392C40.5613 28.8103 40.3327 28.7247 40.094 28.6877C39.8553 28.6507 39.6115 28.6632 39.3778 28.7242C39.144 28.7852 38.9252 28.8936 38.7346 29.0427C38.5441 29.1917 38.3859 29.3783 38.2698 29.591L37.4211 31.2454C37.2927 31.4509 37.2075 31.6805 37.1707 31.9202C37.1339 32.16 37.1462 32.4047 37.207 32.6395C37.2678 32.8742 37.3757 33.094 37.5241 33.2854C37.6725 33.4767 37.8583 33.6356 38.0701 33.7522L40.0171 34.9303C40.2777 35.0902 40.4928 35.315 40.6415 35.5829C40.7902 35.8508 40.8675 36.1527 40.8657 36.4595V37.4621C40.8606 37.767 40.7775 38.0654 40.6246 38.3288C40.4716 38.5921 40.2538 38.8116 39.9921 38.9662L38.0452 40.1443C37.8334 40.261 37.6476 40.4198 37.4991 40.6112C37.3507 40.8025 37.2428 41.0223 37.182 41.2571C37.1212 41.4918 37.1089 41.7366 37.1457 41.9763C37.1825 42.216 37.2678 42.4456 37.3962 42.6511L38.3197 44.2554C38.4358 44.4681 38.594 44.6547 38.7846 44.8037C38.9751 44.9528 39.194 45.0612 39.4277 45.1222C39.6615 45.1832 39.9052 45.1956 40.1439 45.1587C40.3826 45.1217 40.6112 45.0361 40.8158 44.9071L42.7627 43.729C43.0322 43.5728 43.3378 43.4905 43.6489 43.4905C43.9599 43.4905 44.2656 43.5728 44.535 43.729L45.4336 44.2554C45.7025 44.4143 45.925 44.6417 46.0784 44.9146C46.2318 45.1875 46.3107 45.4962 46.3072 45.8096V47.84C46.3072 48.312 46.4939 48.7647 46.8263 49.0985C47.1586 49.4323 47.6094 49.6198 48.0794 49.6198H49.9015C50.3716 49.6198 50.8223 49.4323 51.1547 49.0985C51.487 48.7647 51.6738 48.312 51.6738 47.84V45.7594C51.6702 45.4461 51.7492 45.1373 51.9026 44.8644C52.056 44.5915 52.2784 44.3641 52.5474 44.2053L53.446 43.6788C53.7154 43.5226 54.021 43.4404 54.3321 43.4404C54.6432 43.4404 54.9488 43.5226 55.2182 43.6788L57.1402 44.8821C57.3447 45.011 57.5734 45.0966 57.8121 45.1336C58.0508 45.1706 58.2945 45.1582 58.5283 45.0971C58.762 45.0361 58.9809 44.9277 59.1714 44.7787C59.3619 44.6296 59.5201 44.443 59.6363 44.2303L60.5598 42.626C60.6902 42.4236 60.7783 42.1967 60.8188 41.9591C60.8593 41.7215 60.8513 41.4781 60.7952 41.2437C60.7392 41.0093 60.6364 40.7888 60.4929 40.5955C60.3495 40.4022 60.1684 40.2402 59.9607 40.1193L59.9358 40.1443ZM48.978 40.6457C48.2315 40.6507 47.5003 40.4329 46.8772 40.02C46.2541 39.6071 45.7672 39.0177 45.4781 38.3265C45.189 37.6353 45.1107 36.8735 45.2533 36.1376C45.3959 35.4017 45.7529 34.7249 46.279 34.193C46.8052 33.6611 47.4767 33.2981 48.2085 33.15C48.9403 33.0019 49.6994 33.0754 50.3896 33.3612C51.0797 33.6469 51.6699 34.132 52.0851 34.755C52.5004 35.378 52.7221 36.1108 52.7221 36.8605C52.7155 37.8601 52.3155 38.8164 51.6094 39.5209C50.9033 40.2253 49.9483 40.6206 48.953 40.6206L48.978 40.6457Z" fill="#3CFFFC"/>
</svg>
