<svg width="360" height="360" viewBox="0 0 360 360" fill="none" xmlns="http://www.w3.org/2000/svg">
<path fill-rule="evenodd" clip-rule="evenodd" d="M173.465 71.0331L53.0297 280.326C49.0618 287.221 55.9257 295.344 63.4395 292.73C154.264 261.133 202.22 258.804 296.43 292.388C303.958 295.072 310.943 286.94 306.994 279.992L241.269 164.367L209.82 190.04C205.166 175.772 200.052 170.072 187.694 162.809L225.505 136.632L188.239 71.0722C184.986 65.3502 176.747 65.3284 173.465 71.0331ZM106.85 232.59C111.388 230.604 122.836 220.209 132.379 202.805C146.846 176.425 163.866 173.021 171.525 172.17C179.184 171.319 191.098 174.723 195.353 183.233C197.906 188.338 200.459 206.209 180.886 221.527C148.264 247.057 111.104 235.143 106.85 232.59Z" fill="#59C9AF"/>
</svg>
