<svg width="132" height="88" viewBox="0 0 132 88" fill="none" xmlns="http://www.w3.org/2000/svg">
<path fill-rule="evenodd" clip-rule="evenodd" d="M64.203 14.0324L31.0834 71.588C29.9922 73.484 31.8798 75.718 33.946 74.9991C58.9229 66.3098 72.1106 65.6695 98.0185 74.905C100.089 75.6431 102.01 73.4068 100.924 71.4962L82.8491 39.6992L74.2006 46.7594C72.9207 42.8355 71.5144 41.2681 68.116 39.2707L78.5141 32.0721L68.2659 14.0431C67.3714 12.4696 65.1057 12.4636 64.203 14.0324ZM45.8838 58.4606C47.132 57.9145 50.28 55.0557 52.9045 50.2698C56.8829 43.015 61.5634 42.0789 63.6696 41.8449C65.7758 41.6109 69.0521 42.547 70.2222 44.8872C70.9243 46.2914 71.6264 51.2059 66.2438 55.4183C57.2729 62.4391 47.0539 59.1626 45.8838 58.4606Z" fill="#59C9AF"/>
</svg>
