<svg width="132" height="88" viewBox="0 0 132 88" fill="none" xmlns="http://www.w3.org/2000/svg">
<path d="M65.9326 25.4435C64.5053 26.098 61.075 27.2071 62.1084 29.4456C62.3694 30.0113 62.973 30.3726 63.5929 30.1177C64.3763 29.7948 65.3848 26.6081 64.3315 26.851C63.4207 27.0611 62.3072 30.404 63.2568 28.8222C63.8497 27.8352 64.6192 24.1054 63.3918 26.8669M67.1932 30.6693C68.0828 30.3374 71.3732 29.6499 71.7928 28.4713C71.9179 28.1217 71.5041 27.9171 71.2502 28.0942C70.3348 28.7344 69.8519 30.2139 69.875 31.2908C69.897 32.3455 75.2474 27.7337 71.0564 28.3516M66.4823 37.3373C66.4155 37.4332 62.4722 42.6981 65.1529 41.4873C65.9856 41.1111 66.3613 40.4943 66.4003 39.6349M53.4891 38.7002C53.2413 39.1616 50.9794 42.3205 51.6051 43.0083C52.0068 43.45 52.3407 42.933 52.4408 42.5598C52.5596 42.1173 52.7876 36.7378 51.2503 38.3817C49.8849 39.8409 50.5315 44.2532 52.2986 41.1422C53.4192 39.169 53.958 35.1441 50.7644 37.1956M55.3195 51.2855C55.0346 50.9278 52.6776 47.1023 51.956 48.3656C51.4522 49.2473 51.3394 50.3266 51.2654 51.3183C51.1972 52.2382 51.9222 55.4834 52.9265 53.3029C53.1855 52.7414 54.0979 48.5265 53.0084 48.3961C51.8 48.2515 52.2189 51.9574 52.7375 52.5665M63.3297 51.7731C63.3336 51.7503 64.0472 46.3861 63.3905 48.4049C63.0797 49.363 63.3935 50.3379 63.6143 51.2649M76.8314 38.7816C78.7077 38.877 81.6161 39.5425 81.8672 36.9971C81.964 36.0129 81.7063 35.8487 80.8565 36.0164M65.8916 58.1369C66.2664 58.9561 67.4429 62.8064 68.3564 60.484C68.8082 59.3353 69.034 58.1545 68.9983 56.9228C68.9493 55.223 68.8212 57.5151 68.982 58.1979M83.46 34.2672C82.7953 34.7204 78.9013 36.4611 80.1047 37.8842C80.8335 38.7453 82.2307 37.8834 82.8544 37.395C86.3387 34.6665 82.3787 33.7372 80.2155 36.8425C78.7173 38.9939 79.8588 40.3359 81.1153 37.9123C82.0847 36.0404 81.1381 34.5658 80.5925 36.9105M80.6332 47.2601C79.8126 48.1978 76.9669 50.4773 77.4839 52.0993C77.7746 53.0112 78.9761 51.3983 79.0861 51.1866C79.355 50.6693 81.178 43.8839 78.8892 45.3422C78.3593 45.6799 76.8352 48.3452 77.6407 48.9104C78.7723 49.704 79.8118 47.1891 79.7997 46.3859M66.0954 60.8005C68.0374 49.4452 63.6085 60.379 64.945 60.7057C66.4551 61.0747 67.3238 55.2642 65.7904 58.0761M42.6922 67.7952C43.5778 65.4183 45.0722 60.1746 42.2854 64.5218M61.6429 75.7242C61.5408 75.8422 59.032 78.9907 59.1568 78.9827C59.8856 78.9406 60.3644 77.2797 60.5492 76.7618C60.6861 76.379 61.7336 72.6957 60.9581 73.6463C60.1334 74.6567 59.8135 76.9937 60.1815 78.235C60.8192 80.391 62.4734 76.6829 62.5762 76.1021C63.017 73.5993 61.2279 74.5519 60.5352 76.079C59.8906 77.5024 59.8606 80.0423 61.5958 77.7304C61.9206 77.2964 63.7538 72.6808 62.1134 73.5034C61.1209 74.0022 59.7536 77.8002 61.7847 76.233M70.1822 71.1301C70.2391 71.0883 75.5818 67.4858 73.4557 67.1541C71.7364 66.8852 69.5326 69.1391 68.2712 70.0526M53.6513 67.9987C53.6571 67.9767 54.9977 62.3353 54.9867 62.3378C54.5399 62.4307 54.225 64.1844 54.148 64.5062C54.0911 64.7493 53.4575 68.0226 54.3449 67.4248C55.4743 66.6652 57.7384 61.1014 54.7087 64.8881M43.953 56.3686C43.872 55.6278 44.0478 48.9626 42.6316 52.0965C42.4257 52.5519 41.0094 56.4019 42.3127 55.8162C44.4606 54.8509 45.3854 48.9054 42.6715 53.6643M84.1918 56.2669C84.249 56.1981 87.5693 51.8776 85.6652 53.4272C84.7016 54.2107 84.1618 55.4958 83.7262 56.6216C83.1693 58.0624 83.4591 58.5202 83.9679 56.7954M73.3144 9.01562C73.0015 9.29758 67.6651 14.3457 70.4156 14.704C71.6012 14.8584 72.2529 13.3909 72.7408 12.5443C74.6438 9.24242 71.1424 11.4654 70.9084 13.6558C70.8465 14.231 71.5533 14.6359 71.9092 14.0929C72.4058 13.3339 73.1634 11.7074 72.9616 10.7619C72.8846 10.3973 72.4278 11.179 72.5697 11.5141C72.9635 12.4417 74.036 10.9495 74.209 10.6218M56.5391 23.0249C56.4022 23.1442 52.8387 25.9305 53.4275 26.34C53.8774 26.6535 54.7538 25.2488 54.9037 25.0307C55.1806 24.6257 56.307 22.1124 56.1321 22.5571M79.2313 19.9134C78.9445 20.2647 75.8229 23.2229 77.0052 23.7652C77.564 24.0212 78.0408 23.488 78.3697 23.1011C78.6816 22.7342 79.7189 20.3647 78.7245 20.3041C76.8204 20.1882 77.5629 25.1933 78.8925 22.3418C80.1487 19.6443 77.3321 19.7733 77.9267 22.0277C78.2066 23.0859 78.6186 21.0299 78.5894 20.7017C78.4156 18.7701 77.2441 20.0888 77.0962 21.2348M90.1293 29.0427C88.9789 29.9175 86.0153 32.8677 87.3815 32.3963C88.3052 32.0773 89.0719 29.7217 89.2666 28.8835C89.8125 26.5295 86.823 30.3371 88.2403 31.444C90.1342 32.9243 91.1259 25.5684 88.7829 29.1329C88.4232 29.6802 86.9987 32.9158 88.2661 32.978C89.8763 33.0574 90.2032 30.0764 90.2313 29.0427M53.6115 37.0128C53.5534 37.081 50.1701 41.4166 50.8958 41.3006C51.5116 41.2021 51.7635 39.6833 51.8924 39.2221C52.1031 38.4661 52.46 34.788 51.5336 37.2341C51.1497 38.2486 51.6793 40.7002 52.0761 38.8575C52.2032 38.2698 52.4532 36.7914 51.7153 36.4526C50.7949 36.0296 50.9008 38.803 50.8868 39.2086" stroke="#0EF275" stroke-width="0.777285" stroke-linecap="round"/>
</svg>
