<svg width="132" height="88" viewBox="0 0 132 88" fill="none" xmlns="http://www.w3.org/2000/svg">
<path d="M105.151 33.931L93.7041 15.2929C90.1596 9.52191 83.8368 6 77.0211 6H54.979C48.1633 6 41.8403 9.52191 38.2959 15.2929L26.8486 33.931C23.0505 40.1154 23.0505 47.8841 26.8486 54.069L38.2959 72.7071C41.8403 78.4781 48.1633 82 54.979 82H77.0211C83.8368 82 90.1596 78.4781 93.7041 72.7071L105.151 54.069C108.95 47.8846 108.95 40.1159 105.151 33.931Z" fill="#00C6FF"/>
<path d="M88.7556 61.1673L76.0818 49.796L76.325 49.4459C77.8784 47.2062 78.9667 44.66 79.3441 41.9679C80.9007 30.8682 71.6966 21.4062 60.5968 22.3716C52.176 23.1038 45.4278 29.9238 44.8381 38.2825C44.1291 48.3259 52.1724 56.7229 62.156 56.7229C64.8035 56.7229 67.3483 56.1438 69.7189 55.0013L70.1946 54.7718L83.5914 66.7939C84.3483 67.4771 85.3307 67.8215 86.3598 67.7802C87.3816 67.7317 88.3249 67.2907 89.0146 66.5383C90.4349 64.9864 90.3196 62.5775 88.7556 61.1673ZM63.287 50.4097C56.3086 51.1011 50.4663 45.3108 51.1627 38.3933C51.6786 33.2724 55.8559 29.1301 61.0217 28.6171C68.0011 27.9241 73.8449 33.716 73.1469 40.6351C72.6306 45.7559 68.4528 49.8978 63.287 50.4097Z" fill="white"/>
</svg>
