<svg width="132" height="88" viewBox="0 0 132 88" fill="none" xmlns="http://www.w3.org/2000/svg">
<path d="M66 82C86.9868 82 104 64.9868 104 44C104 23.0132 86.9868 6 66 6C45.0132 6 28 23.0132 28 44C28 64.9868 45.0132 82 66 82Z" fill="url(#paint0_radial_2247_5839)" stroke="#C00042" stroke-width="2" stroke-miterlimit="10"/>
<g style="mix-blend-mode:multiply">
<path d="M89.9102 40.5654C90.8999 41.522 91.8172 42.5509 92.6544 43.6435C93.8918 41.0134 94.5334 38.1425 94.5334 35.2358C94.5334 32.3291 93.8918 29.4583 92.6544 26.8281C92.7425 27.6541 92.7871 28.4842 92.788 29.3148C92.7925 33.2476 91.8026 37.1178 89.9102 40.5654Z" fill="#E30230"/>
</g>
<g style="mix-blend-mode:multiply" opacity="0.8">
<path d="M54.9948 48.9446C54.7963 48.9642 54.5988 48.994 54.4033 49.0336C56.5224 52.2821 57.9502 55.9321 58.5976 59.7563L59.4848 58.8691C60.4898 57.8652 61.0927 56.5283 61.1797 55.1104L64.1434 52.1468C61.0749 51.455 58.1782 50.1494 55.6276 48.3086L54.9948 48.9446Z" fill="#BC1D35"/>
</g>
<g style="mix-blend-mode:multiply" opacity="0.8">
<path d="M85.897 45.9102C83.2281 48.5743 79.9547 50.5538 76.3558 51.68C72.7569 52.8062 68.939 53.0457 65.2275 52.3781C69.2677 54.658 73.9836 55.4364 78.5421 54.5758C83.1006 53.7152 87.2082 51.271 90.139 47.675C88.6648 47.2434 87.2423 46.6516 85.897 45.9102Z" fill="#BC1D35"/>
</g>
<g style="mix-blend-mode:multiply">
<path d="M89.9105 40.5664C88.8337 42.528 87.4824 44.3258 85.8975 45.9055C87.2426 46.648 88.6651 47.2409 90.1395 47.6735C91.1393 46.4372 91.984 45.0831 92.6548 43.6414C91.8175 42.5498 90.9002 41.522 89.9105 40.5664Z" fill="#E30230"/>
</g>
<g style="mix-blend-mode:multiply" opacity="0.8">
<path d="M89.9105 40.5664C88.8337 42.528 87.4824 44.3258 85.8975 45.9055C87.2426 46.648 88.6651 47.2409 90.1395 47.6735C91.1393 46.4372 91.984 45.0831 92.6548 43.6414C91.8175 42.5498 90.9002 41.522 89.9105 40.5664Z" fill="#BC1D35"/>
</g>
<g style="mix-blend-mode:multiply" opacity="0.8">
<path d="M68.6201 22.8858C70.8402 21.7669 73.32 21.265 75.8004 21.4325C76.3735 19.4658 77.2305 17.5933 78.3443 15.874C75.1442 15.307 71.8537 15.5363 68.7632 16.5418C68.8427 17.3845 68.8872 18.2399 68.8872 19.1048C68.8865 20.3698 68.7972 21.6332 68.6201 22.8858Z" fill="#BD1957"/>
</g>
<g style="mix-blend-mode:multiply">
<path d="M84.6723 25.4434C86.4156 27.1903 87.6608 29.3712 88.2791 31.7606C88.8974 34.1499 88.8664 36.661 88.1893 39.0343C88.7839 39.5209 89.3563 40.036 89.9064 40.567C91.7938 37.117 92.7783 33.2458 92.7684 29.3133C92.7675 28.4827 92.7229 27.6526 92.6348 26.8266C91.3074 23.9841 89.3132 21.5041 86.8219 19.5974C84.3306 17.6908 81.4158 16.4138 78.3252 15.875C77.2113 17.5942 76.3543 19.4668 75.7812 21.4335C79.1347 21.6414 82.2966 23.0674 84.6723 25.4434Z" fill="#E30230"/>
</g>
<g style="mix-blend-mode:multiply" opacity="0.8">
<path d="M84.6723 25.4434C86.4156 27.1903 87.6608 29.3712 88.2791 31.7606C88.8974 34.1499 88.8664 36.661 88.1893 39.0343C88.7839 39.5209 89.3563 40.036 89.9064 40.567C91.7938 37.117 92.7783 33.2458 92.7684 29.3133C92.7675 28.4827 92.7229 27.6526 92.6348 26.8266C91.3074 23.9841 89.3132 21.5041 86.8219 19.5974C84.3306 17.6908 81.4158 16.4138 78.3252 15.875C77.2113 17.5942 76.3543 19.4668 75.7812 21.4335C79.1347 21.6414 82.2966 23.0674 84.6723 25.4434Z" fill="#BD1957"/>
</g>
<g style="mix-blend-mode:multiply" opacity="0.8">
<path d="M85.8966 45.9063C85.4482 45.6583 85.0094 45.3911 84.5833 45.1145C82.7973 46.8715 80.568 48.1108 78.133 48.7004C75.698 49.2899 73.1487 49.2075 70.7568 48.462C68.365 47.7165 66.2203 46.3359 64.5515 44.4673C62.8827 42.5986 61.7523 40.3121 61.2808 37.8516C59.8027 39.3736 58.1505 40.7163 56.3583 41.8519C56.8325 43.204 57.4542 44.4997 58.2122 45.7155L55.627 48.3071C58.176 50.1547 61.0728 51.4668 64.1428 52.1644L64.3972 51.91C64.6675 52.0785 64.9473 52.228 65.2239 52.3838C68.9367 53.0507 72.7556 52.81 76.3552 51.6821C79.9548 50.5542 83.2283 48.5726 85.8966 45.9063Z" fill="#BC1D35"/>
</g>
<g style="mix-blend-mode:multiply" opacity="0.8">
<path d="M85.8966 45.9063C85.4482 45.6583 85.0094 45.3911 84.5833 45.1145C82.7973 46.8715 80.568 48.1108 78.133 48.7004C75.698 49.2899 73.1487 49.2075 70.7568 48.462C68.365 47.7165 66.2203 46.3359 64.5515 44.4673C62.8827 42.5986 61.7523 40.3121 61.2808 37.8516C59.8027 39.3736 58.1505 40.7163 56.3583 41.8519C56.8325 43.204 57.4542 44.4997 58.2122 45.7155L55.627 48.3071C58.176 50.1547 61.0728 51.4668 64.1428 52.1644L64.3972 51.91C64.6675 52.0785 64.9473 52.228 65.2239 52.3838C68.9367 53.0507 72.7556 52.81 76.3552 51.6821C79.9548 50.5542 83.2283 48.5726 85.8966 45.9063Z" fill="#BD1957"/>
</g>
<g style="mix-blend-mode:multiply">
<path d="M89.9094 40.5679C89.3561 40.0336 88.7869 39.5217 88.1922 39.0352C87.5531 41.3035 86.3421 43.3697 84.6752 45.0357L84.583 45.1183C85.0123 45.3982 85.4479 45.6621 85.8963 45.9101C87.4815 44.3295 88.8328 42.5306 89.9094 40.5679Z" fill="#E30230"/>
</g>
<g style="mix-blend-mode:multiply" opacity="0.8">
<path d="M89.9094 40.5679C89.3561 40.0336 88.7869 39.5217 88.1922 39.0352C87.5531 41.3035 86.3421 43.3697 84.6752 45.0357L84.583 45.1183C85.0123 45.3982 85.4479 45.6621 85.8963 45.9101C87.4815 44.3295 88.8328 42.5306 89.9094 40.5679Z" fill="#BC1D35"/>
</g>
<g style="mix-blend-mode:multiply" opacity="0.8">
<path d="M89.9094 40.5679C89.3561 40.0336 88.7869 39.5217 88.1922 39.0352C87.5531 41.3035 86.3421 43.3697 84.6752 45.0357L84.583 45.1183C85.0123 45.3982 85.4479 45.6621 85.8963 45.9101C87.4815 44.3295 88.8328 42.5306 89.9094 40.5679Z" fill="#BD1957"/>
</g>
<g style="mix-blend-mode:multiply" opacity="0.8">
<path d="M65.0809 25.4394C66.1173 24.4093 67.3109 23.5506 68.617 22.8954C68.795 21.644 68.8853 20.3817 68.8873 19.1177C68.8873 18.2528 68.8427 17.3974 68.7632 16.5547C64.45 17.9496 60.7544 20.798 58.3072 24.6139C55.8599 28.4297 54.8126 32.9766 55.344 37.4785C57.1307 36.2799 59.0518 35.2948 61.0678 34.5435C61.2252 31.1149 62.6563 27.8685 65.0809 25.4394Z" fill="#BD1957"/>
</g>
<g style="mix-blend-mode:multiply" opacity="0.8">
<path d="M65.0809 25.4394C66.1173 24.4093 67.3109 23.5506 68.617 22.8954C68.795 21.644 68.8853 20.3817 68.8873 19.1177C68.8873 18.2528 68.8427 17.3974 68.7632 16.5547C64.45 17.9496 60.7544 20.798 58.3072 24.6139C55.8599 28.4297 54.8126 32.9766 55.344 37.4785C57.1307 36.2799 59.0518 35.2948 61.0678 34.5435C61.2252 31.1149 62.6563 27.8685 65.0809 25.4394Z" fill="#A02159"/>
</g>
<g style="mix-blend-mode:multiply" opacity="0.8">
<path d="M61.2809 37.8518C61.0769 36.7588 61.0043 35.6454 61.0647 34.5352C59.0486 35.2865 57.1275 36.2716 55.3408 37.4702C55.5107 38.9648 55.851 40.435 56.3552 41.8521C58.1485 40.7167 59.8018 39.374 61.2809 37.8518Z" fill="#BC1D35"/>
</g>
<g style="mix-blend-mode:multiply" opacity="0.8">
<path d="M61.2809 37.8518C61.0769 36.7588 61.0043 35.6454 61.0647 34.5352C59.0486 35.2865 57.1275 36.2716 55.3408 37.4702C55.5107 38.9648 55.851 40.435 56.3552 41.8521C58.1485 40.7167 59.8018 39.374 61.2809 37.8518Z" fill="#BD1957"/>
</g>
<g style="mix-blend-mode:multiply" opacity="0.8">
<path d="M61.2809 37.8518C61.0769 36.7588 61.0043 35.6454 61.0647 34.5352C59.0486 35.2865 57.1275 36.2716 55.3408 37.4702C55.5107 38.9648 55.851 40.435 56.3552 41.8521C58.1485 40.7167 59.8018 39.374 61.2809 37.8518Z" fill="#A02159"/>
</g>
<g style="mix-blend-mode:multiply" opacity="0.8">
<path d="M43.1497 58.7148L41.7601 60.1045C41.0092 60.8532 40.4766 61.7924 40.2197 62.8212C39.9628 63.8499 39.9912 64.9293 40.3019 65.9431C40.6125 66.9569 41.1938 67.8669 41.983 68.575C42.7722 69.2832 43.7396 69.7628 44.781 69.9622C43.6595 66.9069 43.0878 63.6771 43.0925 60.4225C43.102 59.8501 43.102 59.2809 43.1497 58.7148Z" fill="#71295C"/>
</g>
<g style="mix-blend-mode:multiply" opacity="0.8">
<path d="M51.2358 50.6305L43.1493 58.717C43.1016 59.283 43.1016 59.8522 43.1016 60.4246C43.0969 63.6793 43.6686 66.909 44.7901 69.9644C45.7251 70.147 46.6906 70.0975 47.602 69.8203C48.5134 69.5431 49.3429 69.0467 50.0179 68.3744L58.6037 59.7886C57.9587 55.9578 56.5309 52.3011 54.4094 49.0469C53.2117 49.229 52.1015 49.783 51.2358 50.6305Z" fill="#BC1D35"/>
</g>
<g style="mix-blend-mode:multiply" opacity="0.8">
<path d="M51.2358 50.6305L43.1493 58.717C43.1016 59.283 43.1016 59.8522 43.1016 60.4246C43.0969 63.6793 43.6686 66.909 44.7901 69.9644C45.7251 70.147 46.6906 70.0975 47.602 69.8203C48.5134 69.5431 49.3429 69.0467 50.0179 68.3744L58.6037 59.7886C57.9587 55.9578 56.5309 52.3011 54.4094 49.0469C53.2117 49.229 52.1015 49.783 51.2358 50.6305Z" fill="#71295C"/>
</g>
<path d="M68.1681 33.3398C67.8783 33.3407 67.6005 33.4562 67.3955 33.6612C67.1906 33.8661 67.0751 34.1439 67.0742 34.4337V36.7487C67.0751 37.0386 67.1906 37.3163 67.3955 37.5213C67.6005 37.7262 67.8783 37.8418 68.1681 37.8426H72.391C71.6926 36.444 71.3176 34.9062 71.294 33.343H68.1681V33.3398Z" fill="#BC1D35"/>
<g style="mix-blend-mode:multiply" opacity="0.8">
<path d="M68.1681 33.3398C67.8783 33.3407 67.6005 33.4562 67.3955 33.6612C67.1906 33.8661 67.0751 34.1439 67.0742 34.4337V36.7487C67.0751 37.0386 67.1906 37.3163 67.3955 37.5213C67.6005 37.7262 67.8783 37.8418 68.1681 37.8426H72.391C71.6926 36.444 71.3176 34.9062 71.294 33.343H68.1681V33.3398Z" fill="#BD1957"/>
</g>
<path d="M77.7054 37.8387H81.2033C81.4931 37.8379 81.7709 37.7223 81.9759 37.5174C82.1808 37.3124 82.2963 37.0347 82.2972 36.7448V34.4298C82.2963 34.14 82.1808 33.8622 81.9759 33.6573C81.7709 33.4523 81.4931 33.3368 81.2033 33.3359H77.6768C78.1299 34.8012 78.1398 36.3678 77.7054 37.8387Z" fill="#BC1D35"/>
<g style="mix-blend-mode:multiply" opacity="0.8">
<path d="M77.7054 37.8387H81.2033C81.4931 37.8379 81.7709 37.7223 81.9759 37.5174C82.1808 37.3124 82.2963 37.0347 82.2972 36.7448V34.4298C82.2963 34.14 82.1808 33.8622 81.9759 33.6573C81.7709 33.4523 81.4931 33.3368 81.2033 33.3359H77.6768C78.1299 34.8012 78.1398 36.3678 77.7054 37.8387Z" fill="#BC1D35"/>
</g>
<path d="M72.392 37.8394H77.7056C78.1405 36.3698 78.1316 34.8045 77.6802 33.3398H71.2949C71.3186 34.903 71.6935 36.4408 72.392 37.8394Z" fill="#BC1D35"/>
<g style="mix-blend-mode:multiply" opacity="0.8">
<path d="M72.392 37.8394H77.7056C78.1405 36.3698 78.1316 34.8045 77.6802 33.3398H71.2949C71.3186 34.903 71.6935 36.4408 72.392 37.8394Z" fill="#BD1957"/>
</g>
<g style="mix-blend-mode:multiply" opacity="0.8">
<path d="M72.392 37.8394H77.7056C78.1405 36.3698 78.1316 34.8045 77.6802 33.3398H71.2949C71.3186 34.903 71.6935 36.4408 72.392 37.8394Z" fill="#BC1D35"/>
</g>
<defs>
<radialGradient id="paint0_radial_2247_5839" cx="0" cy="0" r="1" gradientUnits="userSpaceOnUse" gradientTransform="translate(66 44) scale(38)">
<stop stop-color="#EAFAFA"/>
<stop offset="1" stop-color="#DCDCDC"/>
</radialGradient>
</defs>
</svg>
