<svg width="132" height="88" viewBox="0 0 132 88" fill="none" xmlns="http://www.w3.org/2000/svg">
<path d="M50.6154 53.2308L87.5385 10.1538L106 4L99.8462 22.4615L56.7692 59.3846C62.9231 65.5385 62.9231 71.6923 69.0769 65.5385C69.0769 71.6923 75.2308 77.8462 69.0769 77.8462C68.6783 79.3202 67.9003 80.6639 66.8206 81.7437C65.7409 82.8234 64.3971 83.6013 62.9231 84C61.2593 76.5296 56.8712 69.9475 50.6154 65.5385C48.5641 65.1282 47.5385 66.1539 47.5385 68.6154C47.5385 71.0769 44.4615 73.7436 38.3077 76.6154C32.1538 79.4872 30.5128 77.8462 33.3846 71.6923C36.2564 65.5385 38.9231 62.4615 41.3846 62.4615C43.8462 62.4615 44.8718 61.4359 44.4615 59.3846C40.0525 53.1288 33.4704 48.7407 26 47.0769C26.3987 45.6029 27.1766 44.2591 28.2563 43.1794C29.3361 42.0997 30.6799 41.3218 32.1538 40.9231C32.1538 34.7692 38.3077 40.9231 44.4615 40.9231C38.3077 47.0769 44.4615 47.0769 50.6154 53.2308ZM87.5385 10.1538L99.1183 11.2807L99.8462 22.4615L87.5385 10.1538Z" fill="black"/>
</svg>
