<svg width="132" height="88" viewBox="0 0 132 88" fill="none" xmlns="http://www.w3.org/2000/svg">
<path d="M98.61 12.8242C98.61 10.0628 96.3714 7.82422 93.61 7.82422H38.3906C35.6292 7.82422 33.3906 10.0628 33.3906 12.8242V75.1742C33.3906 77.9356 35.6292 80.1742 38.3906 80.1742H93.61C96.3714 80.1742 98.61 77.9356 98.61 75.1742V12.8242Z" fill="#6B9BD2"/>
<path d="M52.203 34.9519H49.6812V41.87H44.3647V18.0141H54.7596C55.9185 18.0141 57.0152 18.2356 58.0478 18.6786C59.0805 19.1217 59.9775 19.7249 60.7406 20.4815C61.5036 21.2449 62.1004 22.141 62.5465 23.1737C62.9893 24.2098 63.2116 25.3037 63.2116 26.466C63.2116 27.3759 63.0712 28.2382 62.7991 29.056C62.5261 29.8738 62.1554 30.6304 61.6743 31.3224C61.2 32.014 60.628 32.6275 59.9707 33.1627C59.3121 33.6942 58.5861 34.11 57.7928 34.4031L63.2116 41.8666H56.6679L52.203 34.9519ZM49.6778 29.9422H54.7562C55.2361 29.9422 55.6801 29.8534 56.1027 29.6695C56.5217 29.4889 56.8927 29.2366 57.213 28.9197C57.53 28.5994 57.7795 28.2311 57.9591 27.8122C58.1434 27.3929 58.2321 26.943 58.2321 26.466C58.2321 25.5764 57.9322 24.813 57.3287 24.1622C56.7264 23.5178 56.0072 23.1363 55.1653 23.0204H49.6778V29.9422Z" fill="#F7F7F7"/>
<path d="M76.3768 36.5535H87.5113V41.87H79.0097H70.5081V18.0141H87.5113V23.3305H76.3768V27.0488H85.6704V32.3653H76.3768V36.5535Z" fill="#F7F7F7"/>
<path d="M62.4992 56.2765C62.4992 57.4353 62.2812 58.5292 61.8339 59.565C61.3911 60.5977 60.7876 61.5008 60.0313 62.2747C59.2682 63.0483 58.3716 63.6512 57.3355 64.0977C56.3028 64.5407 55.2058 64.759 54.0473 64.759H48.9689V71.6771H43.6555V47.8211H54.0473C55.2058 47.8211 56.3028 48.0428 57.3355 48.4859C58.3716 48.9289 59.2682 49.5321 60.0313 50.2887C60.791 51.0521 61.3911 51.9484 61.8339 52.9808C62.2812 54.0203 62.4992 55.1176 62.4992 56.2765ZM48.9654 59.7527H54.0439C54.5237 59.7527 54.9677 59.6639 55.3935 59.48C55.8127 59.2994 56.18 59.0471 56.5004 58.7302C56.8207 58.4099 57.0668 58.0419 57.2511 57.6227C57.4344 57.2034 57.5232 56.7535 57.5232 56.2765C57.5232 55.3869 57.2195 54.6235 56.6197 53.9727C56.0137 53.3287 55.2945 52.9468 54.4563 52.8309H48.9654V59.7527Z" fill="#F7F7F7"/>
<path d="M67.8559 59.4327C67.8559 57.6706 68.1561 56.0279 68.7628 54.4909C69.3697 52.9573 70.1946 51.6213 71.2409 50.4866C72.2872 49.3516 73.5097 48.4555 74.9144 47.7976C76.3181 47.1434 77.8251 46.8128 79.4198 46.8128C81.0446 46.8128 82.5618 47.1434 83.9723 47.7976C85.3906 48.4555 86.6211 49.3516 87.6671 50.4866C88.7134 51.6213 89.5383 52.9573 90.144 54.4909C90.751 56.0279 91.0509 57.674 91.0509 59.4327C91.0509 61.1672 90.751 62.7963 90.144 64.3231C89.5383 65.8498 88.7134 67.1787 87.6671 68.3138C86.6211 69.4488 85.3906 70.3445 83.9723 70.9997C82.5618 71.6536 81.0446 71.9841 79.4198 71.9841C77.8207 71.9841 76.3181 71.6536 74.9144 70.9997C73.5097 70.3445 72.2872 69.4488 71.2409 68.3138C70.1946 67.1787 69.3697 65.8464 68.7628 64.3231C68.1561 62.7997 67.8559 61.1672 67.8559 59.4327ZM72.6613 59.4327C72.6613 60.4616 72.8422 61.4229 73.1996 62.3158C73.558 63.2122 74.0446 63.9858 74.6516 64.6468C75.2585 65.3082 75.9777 65.8294 76.7958 66.2079C77.6207 66.5854 78.4926 66.7765 79.4198 66.7765C80.3706 66.7765 81.2561 66.5854 82.0943 66.2079C82.926 65.8294 83.652 65.3082 84.2654 64.6468C84.886 63.9892 85.3702 63.2122 85.7174 62.3158C86.0714 61.4229 86.2424 60.4616 86.2424 59.4327C86.2424 58.4034 86.068 57.4424 85.7174 56.5461C85.3702 55.6531 84.886 54.8693 84.2654 54.2012C83.652 53.5299 82.926 52.9981 82.0943 52.6064C81.2561 52.2178 80.3706 52.0202 79.4198 52.0202C78.496 52.0202 77.6241 52.2178 76.7958 52.6064C75.9777 52.9981 75.2585 53.5299 74.6516 54.2012C74.0446 54.8693 73.5614 55.6565 73.1996 56.5461C72.8422 57.4424 72.6613 58.4034 72.6613 59.4327Z" fill="#F7F7F7"/>
</svg>
