<svg width="132" height="88" viewBox="0 0 132 88" fill="none" xmlns="http://www.w3.org/2000/svg">
<path opacity="0.8" d="M98.4852 61.6521C108.29 51.8473 108.29 35.9511 98.4852 26.1463C88.6814 16.3418 72.7849 16.3418 62.9798 26.1463C53.176 35.9511 53.176 51.8473 62.9798 61.6521C72.7849 71.4568 88.6814 71.4568 98.4852 61.6521Z" fill="url(#paint0_linear_2056_26551)"/>
<path opacity="0.8" d="M93.8266 44.0215C93.8266 44.9603 93.788 45.887 93.7109 46.801C93.7109 47.0021 93.6945 47.2045 93.6616 47.4082C93.4238 49.7807 92.9364 52.1216 92.2077 54.3919C92.1375 54.611 92.0627 54.8299 91.9889 55.0487C89.3763 62.6125 84.1682 69.0054 77.2883 73.0938C70.4082 77.1809 62.3029 78.698 54.411 77.3765C46.5188 76.0538 39.3495 71.9783 34.1787 65.8716C29.0068 59.7653 26.166 52.0239 26.1602 44.0215C26.1602 43.6624 26.1602 43.3073 26.1812 42.9521C26.2421 40.938 26.4846 38.9339 26.904 36.9634C28.024 31.6696 30.4043 26.7242 33.8425 22.5455C38.2648 17.147 44.2485 13.2485 50.974 11.3847C57.6992 9.52091 64.8356 9.7832 71.4063 12.1355C77.9758 14.4879 83.6586 18.8149 87.672 24.5238C91.6865 30.2324 93.836 37.043 93.8266 44.0215Z" fill="url(#paint1_linear_2056_26551)"/>
<defs>
<linearGradient id="paint0_linear_2056_26551" x1="80.7344" y1="61.2254" x2="80.7344" y2="-8.07179" gradientUnits="userSpaceOnUse">
<stop stop-color="#1D0054"/>
<stop offset="1" stop-color="#4C5FEC"/>
</linearGradient>
<linearGradient id="paint1_linear_2056_26551" x1="59.9939" y1="77.5287" x2="59.9939" y2="12.9763" gradientUnits="userSpaceOnUse">
<stop stop-color="#00DCCC"/>
<stop offset="1" stop-color="#C7F0B9"/>
</linearGradient>
</defs>
</svg>
