<svg width="132" height="88" viewBox="0 0 132 88" fill="none" xmlns="http://www.w3.org/2000/svg">
<path d="M36.6619 49.7838C29.1309 42.2527 29.1309 30.0426 36.6619 22.5116C44.1929 14.9805 56.4032 14.9805 63.9342 22.5116L79.6363 38.2137C87.1673 45.7447 87.1673 57.9549 79.6363 65.486C72.1053 73.017 59.8952 73.017 52.3641 65.486L36.6619 49.7838Z" fill="#EC3347"/>
<path d="M68.0673 22.5116C75.5983 14.9805 87.8085 14.9805 95.3393 22.5116C102.871 30.0426 102.871 42.2527 95.3393 49.7838L79.6373 65.486C72.1063 73.017 59.8961 73.017 52.3651 65.486C44.834 57.9549 44.834 45.7447 52.3651 38.2137L68.0673 22.5116Z" fill="#67E4E4"/>
<path d="M52.3651 65.4864C59.8961 73.0174 72.1063 73.0174 79.6373 65.4864C87.1683 57.9554 87.1683 45.7452 79.6373 38.2142L66.0012 24.5781L52.3651 38.2142C44.834 45.7452 44.834 57.9554 52.3651 65.4864Z" fill="#090135"/>
<path d="M62.6943 55.1555C64.52 56.9812 67.48 56.9812 69.3057 55.1555C71.1314 53.3298 71.1314 50.3697 69.3057 48.544C67.48 46.7183 64.52 46.7183 62.6943 48.544C60.8686 50.3697 60.8686 53.3298 62.6943 55.1555Z" fill="#FEFEFE"/>
</svg>
