<svg width="132" height="88" viewBox="0 0 132 88" fill="none" xmlns="http://www.w3.org/2000/svg">
<path fill-rule="evenodd" clip-rule="evenodd" d="M61.0509 11.4336L58.3836 14.0316L63.3437 18.8677L40.1779 41.3916L35.2873 36.6235L32.62 39.2189L37.5079 43.9871L32.5879 48.7708L35.2151 51.3299L40.1324 46.5484L63.3598 69.203L58.4531 73.9737L61.0723 76.5248L65.9762 71.7567L70.9124 76.5692L73.5796 73.9686L68.6463 69.1613L91.8122 46.6345L96.7456 51.4472L99.4128 48.8467L94.4849 44.0391L99.1453 39.5084L96.5261 36.9573L91.8657 41.4882L68.6382 18.8338L73.3389 14.2638L70.7117 11.7049L66.011 16.2723L61.0509 11.4336ZM42.8024 43.9532L65.9683 21.4292L89.1956 44.0836L66.0297 66.6076L42.8024 43.9532Z" fill="#EB4329"/>
<path fill-rule="evenodd" clip-rule="evenodd" d="M65.9789 27.4297L83.0155 44.0193L66.019 60.57L48.9824 43.9804L65.9789 27.4297Z" fill="#36BBD0"/>
</svg>
