<svg width="132" height="88" viewBox="0 0 132 88" fill="none" xmlns="http://www.w3.org/2000/svg">
<path d="M51.8395 70.9508C45.9414 70.9508 41.297 69.7514 37.905 67.3521C34.5131 64.9034 32.6948 61.4756 32.4492 57.0684H44.2455C44.4421 58.2924 45.2048 59.3453 46.5315 60.2269C47.8586 61.1082 49.7257 61.549 52.1352 61.549C53.8546 61.549 55.3293 61.3041 56.5585 60.8145C57.8367 60.2759 58.4758 59.4187 58.4758 58.2434C58.4758 57.2152 57.9835 56.3826 57.001 55.7463C56.0173 55.0605 54.2236 54.5953 51.6184 54.3504L48.8166 54.0567C43.6065 53.5181 39.7733 52.0979 37.3149 49.7964C34.8576 47.4948 33.6284 44.6056 33.6284 41.1288C33.6284 38.1418 34.3663 35.6931 35.8412 33.7833C37.3149 31.8245 39.3554 30.3555 41.9605 29.3761C44.5657 28.3967 47.5384 27.9071 50.8815 27.9071C56.3375 27.9071 60.7364 29.1068 64.0782 31.5064C67.4213 33.8567 69.1905 37.2602 69.3874 41.7164H57.5912C57.3942 40.4921 56.7307 39.4639 55.5993 38.6313C54.4692 37.75 52.8476 37.3092 50.7338 37.3092C49.2101 37.3092 47.9564 37.5785 46.974 38.1171C46.0392 38.6557 45.5726 39.4149 45.5726 40.3943C45.5726 41.4227 46.0148 42.1816 46.8994 42.6712C47.8341 43.161 49.3089 43.5284 51.324 43.773L54.1258 44.067C59.3359 44.6056 63.3413 46.0502 66.1431 48.4008C68.9939 50.7024 70.4197 53.7384 70.4197 57.5092C70.4197 60.3003 69.6574 62.6996 68.1337 64.7075C66.659 66.7154 64.5216 68.2578 61.7198 69.3353C58.9668 70.4125 55.6739 70.9508 51.8395 70.9508Z" fill="#2F54EB"/>
<path fill-rule="evenodd" clip-rule="evenodd" d="M79.2741 41.147V70.6726H91.6596V41.147H99.5492V31.4513H91.6596V30.4195C91.6596 29.2442 91.9794 28.3382 92.6185 27.7015C93.2576 27.0651 94.1666 26.7468 95.3469 26.7468H99.2535V17.0508H95.6405C90.2334 17.0508 86.1559 18.226 83.403 20.5766C80.6501 22.8782 79.2741 26.4037 79.2741 31.154V31.4513H74.8486V41.147H79.2741Z" fill="#00156A"/>
</svg>
