<svg width="132" height="88" viewBox="0 0 132 88" fill="none" xmlns="http://www.w3.org/2000/svg">
<path fill-rule="evenodd" clip-rule="evenodd" d="M55.3385 54.6625C67.1151 54.6625 76.6625 64.2091 76.6625 75.9855H55.3385V54.6625Z" fill="#275AA6"/>
<path fill-rule="evenodd" clip-rule="evenodd" d="M76.6625 75.9855C88.4388 75.9855 97.9852 66.4391 97.9852 54.6625H76.6625V75.9855Z" fill="#3EECFF"/>
<path fill-rule="evenodd" clip-rule="evenodd" d="M97.9852 33.3385C86.2089 33.3385 76.6625 42.8851 76.6625 54.6614H97.9852V33.3385Z" fill="#FF3D8B"/>
<path fill-rule="evenodd" clip-rule="evenodd" d="M55.3385 54.6614V33.3385H76.6625C76.6625 45.1148 67.1151 54.6614 55.3385 54.6614Z" fill="#3E8BFF"/>
<path fill-rule="evenodd" clip-rule="evenodd" d="M55.3385 54.6614C43.5621 54.6614 34.0156 45.1148 34.0156 33.3385H55.3385V54.6614Z" fill="#232529"/>
<path fill-rule="evenodd" clip-rule="evenodd" d="M76.6625 12.0156C64.8862 12.0156 55.3385 21.562 55.3385 33.3385H76.6625V12.0156Z" fill="#3FFFB2"/>
<path fill-rule="evenodd" clip-rule="evenodd" d="M34.0156 12.0156C45.7921 12.0156 55.3385 21.562 55.3385 33.3385H34.0156V12.0156Z" fill="#FF3D8B"/>
</svg>
