<svg width="132" height="88" viewBox="0 0 132 88" fill="none" xmlns="http://www.w3.org/2000/svg">
<path d="M29.1504 25.4915C29.1504 15.3609 37.3629 7.14844 47.4935 7.14844H84.5073C94.6379 7.14844 102.85 15.3609 102.85 25.4915V62.5053C102.85 72.6359 94.6379 80.8484 84.5073 80.8484H47.4935C37.3629 80.8484 29.1504 72.6359 29.1504 62.5053V25.4915Z" fill="#0088F8"/>
<path fill-rule="evenodd" clip-rule="evenodd" d="M65.6728 53.17C65.6728 51.18 67.286 49.5669 69.2759 49.5669H84.1797C86.1697 49.5669 87.7828 51.18 87.7828 53.17C87.7828 55.1599 86.1697 56.7731 84.1797 56.7731H69.2759C67.286 56.7731 65.6728 55.1599 65.6728 53.17Z" fill="white"/>
<path fill-rule="evenodd" clip-rule="evenodd" d="M45.7876 27.475C48.2198 25.1761 52.0551 25.2842 54.354 27.7163L64.804 38.7721C67.4893 41.613 67.4893 46.0563 64.804 48.8972L54.354 59.953C52.0551 62.3852 48.2198 62.4932 45.7876 60.1943C43.3554 57.8954 43.2474 54.0601 45.5463 51.6279L52.9125 43.8347L45.5463 36.0415C43.2474 33.6093 43.3554 29.7739 45.7876 27.475Z" fill="white"/>
</svg>
