<svg width="132" height="88" viewBox="0 0 132 88" fill="none" xmlns="http://www.w3.org/2000/svg">
<path d="M82.2938 13.043C86.856 16.519 95.9805 23.6013 95.9805 24.1227C95.9805 24.4303 95.9805 30.6501 95.9805 37.4836M82.2938 13.043H65.6742M82.2938 13.043V26.078M95.9805 37.4836L82.2938 26.078M95.9805 37.4836C95.9805 42.2339 95.9805 47.2808 95.9805 50.8445L76.2398 66.3851M65.6742 13.043H49.0545M65.6742 13.043L65.3483 37.4836M82.2938 26.078L65.3483 37.4836M49.0545 13.043L36.0195 24.1227V37.4836M49.0545 13.043V26.078M36.0195 37.4836V50.8445L54.9203 66.3851M36.0195 37.4836L49.0545 26.078M49.0545 26.078L65.3483 37.4836M54.9203 66.3851L65.3483 74.9592L76.2398 66.3851M54.9203 66.3851C60.9617 60.9499 70.2463 60.8969 76.2398 66.3851" stroke="#E13C52" stroke-width="4.675" stroke-linecap="round" stroke-linejoin="round"/>
</svg>
