<svg width="132" height="88" viewBox="0 0 132 88" fill="none" xmlns="http://www.w3.org/2000/svg">
<path fill-rule="evenodd" clip-rule="evenodd" d="M67.4987 19.5759V19.5856L29.6309 47.4714V18.2084C29.6309 12.5057 35.6003 8.53417 41.2424 10.4884L64.1042 18.4L64.177 18.4194L64.6013 18.5843H64.611L67.4963 19.5783L67.4987 19.5759Z" fill="#F67222"/>
<path fill-rule="evenodd" clip-rule="evenodd" d="M29.6309 70.4237C29.6309 76.1361 35.3772 80.1125 40.8108 78.1582L66.8028 68.7992V19.8047L36.8999 30.57C32.5356 32.146 29.6309 36.2461 29.6309 40.8335V70.4237Z" fill="#FA9626"/>
<path fill-rule="evenodd" clip-rule="evenodd" d="M91.2161 9.84951L66 19.0946H90.0838C94.3803 19.0946 97.862 22.5982 97.862 26.9165V40.2834L102.369 43.2826V17.7005C102.369 11.8983 96.6352 7.86616 91.2161 9.84951Z" fill="#FBB82C"/>
<mask id="mask0_2056_22040" style="mask-type:alpha" maskUnits="userSpaceOnUse" x="66" y="19" width="37" height="59">
<path d="M102.369 77.2301H66V19.0391H102.369V77.2301Z" fill="white"/>
</mask>
<g mask="url(#mask0_2056_22040)">
<path fill-rule="evenodd" clip-rule="evenodd" d="M92.2199 28.58L66 19.0391V19.6549L81.5467 30.8058C84.1411 33.4195 85.5037 36.3654 85.5037 39.3623V74.5727L91.4295 76.7306C96.7443 78.6655 102.369 74.7352 102.369 69.0858V43.0598C102.369 36.5837 98.313 30.7985 92.2199 28.58Z" fill="#F67222"/>
</g>
</svg>
