<svg width="132" height="88" viewBox="0 0 132 88" fill="none" xmlns="http://www.w3.org/2000/svg">
<path d="M65.9996 10.1328C47.3054 10.1328 32.1484 25.2953 32.1484 43.9987C32.1484 62.704 47.3054 77.8665 65.9996 77.8665C84.6956 77.8665 99.8526 62.704 99.8526 43.9987C99.8526 35.0166 96.2859 26.4031 89.936 20.0513C83.5915 13.7013 74.978 10.1328 65.9996 10.1328ZM57.0083 53.2352L52.872 51.5468V36.7695L57.0083 35.0571V53.2352ZM76.5429 55.742C75.708 56.4351 74.7403 56.9512 73.7007 57.2609C71.4132 57.9429 68.9764 57.9429 66.689 57.2609C65.642 56.9549 64.6688 56.4369 63.8283 55.7402C63.0172 55.0508 62.3647 54.1974 61.9131 53.2334C61.4118 52.1459 61.1666 50.9551 61.1943 49.7552C61.1887 48.9607 61.3233 48.17 61.5942 47.4216C61.8394 46.7193 62.2007 46.0632 62.6633 45.4825C63.1057 44.9296 63.631 44.4466 64.2209 44.054L64.5047 43.8808L68.1986 45.4143C67.7617 45.595 67.3618 45.8549 67.0152 46.1774C66.6116 46.5571 66.2853 47.0106 66.0567 47.5138C65.8153 48.0391 65.6936 48.6105 65.6992 49.1893C65.6512 50.3432 66.0991 51.4639 66.9304 52.2675C68.7774 53.8619 71.5146 53.8619 73.3634 52.2675C74.191 51.4639 74.6389 50.3432 74.5928 49.1893C74.5983 48.6105 74.4767 48.0391 74.2352 47.5138C74.0048 47.0106 73.6804 46.5553 73.2767 46.1774C72.8657 45.794 72.3791 45.501 71.8482 45.3148C71.4058 45.1673 70.945 45.0696 70.4805 45.0254L65.4098 43.0071C64.3886 42.6255 63.5223 41.914 62.9472 40.9869C62.267 39.8514 61.9223 38.5483 61.9518 37.2248C61.9242 36.1926 62.1343 35.1696 62.5656 34.2314C62.9767 33.3835 63.5739 32.637 64.3149 32.0527C65.089 31.4444 65.9701 30.9836 66.912 30.6979C68.982 30.0656 71.1939 30.0656 73.2638 30.6979C74.2039 30.9854 75.0868 31.4444 75.8609 32.0527C76.6333 32.6314 77.2618 33.3816 77.695 34.2461C78.1263 35.1806 78.3383 36.2055 78.3106 37.2377C78.3383 38.5593 77.9936 39.8643 77.3134 40.9979C76.9134 41.6467 76.3678 42.1905 75.719 42.5886L71.8906 41.079C72.2593 40.9131 72.5873 40.6717 72.8565 40.3712C73.5127 39.645 73.8629 38.6939 73.8352 37.7169C73.8573 36.7732 73.5145 35.8571 72.8767 35.1622C72.1763 34.436 71.1939 34.0507 70.1856 34.1097C69.2179 34.0858 68.2834 34.4563 67.594 35.1364C66.9065 35.8184 66.5249 36.7492 66.536 37.7169C66.5341 38.222 66.6281 38.7215 66.8198 39.1897C67.0042 39.6302 67.2696 40.0321 67.6069 40.3712C67.9461 40.7104 75.4905 43.6891 75.9955 43.9987L76.1503 44.0964C76.7328 44.4817 77.2544 44.9517 77.695 45.4936C78.1595 46.0761 78.5207 46.7323 78.7641 47.4345C79.035 48.1829 79.1696 48.9718 79.1659 49.7681C79.1972 50.9662 78.9558 52.1551 78.4581 53.2463C78.0065 54.1974 77.3521 55.0545 76.5429 55.742Z" fill="#151515"/>
</svg>
