<svg width="132" height="88" viewBox="0 0 132 88" fill="none" xmlns="http://www.w3.org/2000/svg">
<path d="M90.9881 53.0757L65.9999 77.9833L41.0117 53.0757V10.0156H90.9881V53.0757Z" fill="#F5F3F4"/>
<path d="M90.9881 10.0156V50.5061H82.3402C81.7475 48.429 80.4949 46.5995 78.7709 45.2918C77.0467 43.9839 74.9438 43.2689 72.7768 43.2535C68.2868 43.2535 64.5446 46.4862 63.2972 50.5061H57.6847C57.6897 49.5983 57.8016 48.6944 58.0167 47.8122L61.8837 31.8152H84.4601L85.9154 23.5264H64.0037L66.0827 15.2375H59.8468C58.3915 20.9567 52.4452 25.5985 46.7491 25.5985L45.1698 31.8152H53.4847L49.7425 46.9836C49.4997 48.143 49.3608 49.322 49.3267 50.5061H41.0117V10.0156H90.9881Z" fill="#5E6E66"/>
<path d="M82.6729 53.0757H90.9881C90.9881 59.6815 88.3552 66.0169 83.6695 70.6878C78.9827 75.3595 72.6266 77.9833 65.9999 77.9833C59.373 77.9833 53.0169 75.3595 48.3304 70.6878C43.6445 66.0169 41.0117 59.6815 41.0117 53.0757H49.3267C49.3267 57.4834 51.0839 61.7104 54.2104 64.8276C57.3369 67.9441 61.5779 69.6942 65.9999 69.6942C70.4217 69.6942 74.6627 67.9441 77.7892 64.8276C80.9159 61.7104 82.6729 57.4834 82.6729 53.0757Z" fill="#8D95B9"/>
<path d="M69.1184 53.0757H74.3148C74.3148 55.2741 73.4392 57.3822 71.88 58.9368C70.3207 60.4911 68.2049 61.3645 65.9999 61.3645C63.795 61.3645 61.6789 60.4911 60.1196 58.9368C58.5604 57.3822 57.6847 55.2741 57.6847 53.0757H62.8814C62.9422 53.898 63.325 54.663 63.9479 55.2061C64.5705 55.749 65.3823 56.0259 66.2078 55.9767C66.9575 55.9112 67.6601 55.5848 68.1928 55.0541C68.7246 54.5236 69.0524 53.8232 69.1184 53.0757Z" fill="#7092A5"/>
<path d="M90.9881 53.0757L65.9999 77.9833L41.0117 53.0757V10.0156H90.9881V53.0757Z" fill="#F5F3F4"/>
<path d="M90.9881 10.0156V50.5061H82.3402C81.7475 48.429 80.4949 46.5995 78.7709 45.2918C77.0467 43.9839 74.9438 43.2689 72.7768 43.2535C68.2868 43.2535 64.5446 46.4862 63.2972 50.5061H57.6847C57.6897 49.5983 57.8016 48.6944 58.0167 47.8122L61.8837 31.8152H84.4601L85.9154 23.5264H64.0037L66.0827 15.2375H59.8468C58.3915 20.9567 52.4452 25.5985 46.7491 25.5985L45.1698 31.8152H53.4847L49.7425 46.9836C49.4997 48.143 49.3608 49.322 49.3267 50.5061H41.0117V10.0156H90.9881Z" fill="#666D69"/>
<path d="M82.6729 53.0757H90.9881C90.9881 59.6815 88.3552 66.0169 83.6695 70.6878C78.9827 75.3595 72.6266 77.9833 65.9999 77.9833C59.373 77.9833 53.0169 75.3595 48.3304 70.6878C43.6445 66.0169 41.0117 59.6815 41.0117 53.0757H49.3267C49.3267 57.4834 51.0839 61.7104 54.2104 64.8276C57.3369 67.9441 61.5779 69.6942 65.9999 69.6942C70.4217 69.6942 74.6627 67.9441 77.7892 64.8276C80.9159 61.7104 82.6729 57.4834 82.6729 53.0757Z" fill="#A3A7B7"/>
<path d="M69.1184 53.0757H74.3148C74.3148 55.2741 73.4392 57.3822 71.88 58.9368C70.3207 60.4911 68.2049 61.3645 65.9999 61.3645C63.795 61.3645 61.6789 60.4911 60.1196 58.9368C58.5604 57.3822 57.6847 55.2741 57.6847 53.0757H62.8814C62.9422 53.898 63.325 54.663 63.9479 55.2061C64.5705 55.749 65.3823 56.0259 66.2078 55.9767C66.9575 55.9112 67.6601 55.5848 68.1928 55.0541C68.7246 54.5236 69.0524 53.8232 69.1184 53.0757Z" fill="#7092A5"/>
</svg>
