<svg width="132" height="88" viewBox="0 0 132 88" fill="none" xmlns="http://www.w3.org/2000/svg">
<mask id="mask0_2056_25987" style="mask-type:luminance" maskUnits="userSpaceOnUse" x="34" y="14" width="64" height="65">
<path d="M34.0156 14.6094H97.9852V78.5791H34.0156V14.6094Z" fill="white"/>
</mask>
<g mask="url(#mask0_2056_25987)">
<path d="M53.2067 46.5941V44.4621C52.6407 44.4621 52.099 44.6865 51.6991 45.0863C51.2984 45.4864 51.0746 46.0287 51.0746 46.5941H53.2067ZM78.7943 46.5941H80.9264C80.9264 46.0287 80.7025 45.4864 80.3016 45.0863C79.902 44.6865 79.3603 44.4621 78.7943 44.4621V46.5941ZM78.7943 44.4621H53.2067V48.7265H78.7943V44.4621ZM66.0005 61.5206C74.4015 61.5206 80.9264 54.9957 80.9264 46.5941H76.6625C76.6625 52.6414 72.0477 57.2559 66.0005 57.2559V61.5206ZM51.0746 46.5941C51.0746 54.9957 57.5995 61.5206 66.0005 61.5206V57.2559C59.9532 57.2559 55.3385 52.6414 55.3385 46.5941H51.0746ZM66.0005 74.3141C58.6489 74.3141 51.5982 71.3934 46.3999 66.1953C41.2012 60.9967 38.2806 53.946 38.2806 46.5941H34.0156C34.0156 55.0771 37.385 63.2127 43.3842 69.2104C49.3822 75.2095 57.5176 78.5791 66.0005 78.5791V74.3141ZM93.7202 46.5941C93.7202 50.2346 93.0036 53.839 91.6104 57.2023C90.2181 60.5655 88.1759 63.6213 85.6011 66.1953C83.0274 68.7696 79.9719 70.8117 76.6083 72.2041C73.2451 73.5975 69.6407 74.3141 66.0005 74.3141V78.5791C74.4834 78.5791 82.6185 75.2095 88.6168 69.2104C94.6159 63.2127 97.9852 55.0771 97.9852 46.5941H93.7202ZM66.0005 18.874C69.6407 18.874 73.2451 19.591 76.6083 20.9841C79.9719 22.3771 83.0274 24.419 85.6011 26.9932C88.1759 29.5672 90.2181 32.623 91.6104 35.9863C93.0036 39.3493 93.7202 42.954 93.7202 46.5941H97.9852C97.9852 38.1112 94.6159 29.9759 88.6168 23.9776C82.6185 17.9792 74.4834 14.6094 66.0005 14.6094V18.874ZM66.0005 14.6094C57.5176 14.6094 49.3822 17.9792 43.3842 23.9776C37.385 29.9759 34.0156 38.1112 34.0156 46.5941H38.2806C38.2806 39.2423 41.2012 32.1916 46.3999 26.9932C51.5982 21.7946 58.6489 18.874 66.0005 18.874V14.6094ZM51.0746 40.1974H55.3385V35.9327H51.0746V40.1974ZM76.6625 40.1974H80.9264V35.9327H76.6625V40.1974Z" fill="black"/>
</g>
<mask id="mask1_2056_25987" style="mask-type:luminance" maskUnits="userSpaceOnUse" x="34" y="9" width="64" height="65">
<path d="M34.0156 9.42188H97.9852V73.3916H34.0156V9.42188Z" fill="white"/>
</mask>
<g mask="url(#mask1_2056_25987)">
<path d="M53.2067 41.4069V39.2745C52.6407 39.2745 52.099 39.4989 51.6991 39.899C51.2984 40.2989 51.0746 40.8412 51.0746 41.4069H53.2067ZM78.7943 41.4069H80.9264C80.9264 40.8412 80.7025 40.2989 80.3016 39.899C79.902 39.4989 79.3603 39.2745 78.7943 39.2745V41.4069ZM78.7943 39.2745H53.2067V43.5389H78.7943V39.2745ZM66.0005 56.333C74.4015 56.333 80.9264 49.8081 80.9264 41.4069H76.6625C76.6625 47.4538 72.0477 52.0683 66.0005 52.0683V56.333ZM51.0746 41.4069C51.0746 49.8081 57.5995 56.333 66.0005 56.333V52.0683C59.9532 52.0683 55.3385 47.4538 55.3385 41.4069H51.0746ZM66.0005 69.1266C58.6489 69.1266 51.5982 66.2061 46.3999 61.0075C41.2012 55.8094 38.2806 48.7584 38.2806 41.4069H34.0156C34.0156 49.8895 37.385 58.0251 43.3842 64.0231C49.3822 70.0223 57.5176 73.3916 66.0005 73.3916V69.1266ZM93.7202 41.4069C93.7202 45.047 93.0036 48.6515 91.6104 52.0147C90.2181 55.3779 88.1759 58.4338 85.6011 61.0075C83.0274 63.5823 79.9719 65.6242 76.6083 67.0165C73.2451 68.4099 69.6407 69.1266 66.0005 69.1266V73.3916C74.4834 73.3916 82.6185 70.0223 88.6168 64.0231C94.6159 58.0251 97.9852 49.8895 97.9852 41.4069H93.7202ZM66.0005 13.6865C69.6407 13.6865 73.2451 14.4035 76.6083 15.7966C79.9719 17.1897 83.0274 19.2315 85.6011 21.8057C88.1759 24.3797 90.2181 27.4355 91.6104 30.7987C93.0036 34.162 93.7202 37.7664 93.7202 41.4069H97.9852C97.9852 32.9239 94.6159 24.7883 88.6168 18.79C82.6185 12.7917 74.4834 9.42188 66.0005 9.42188V13.6865ZM66.0005 9.42188C57.5176 9.42188 49.3822 12.7917 43.3842 18.79C37.385 24.7883 34.0156 32.9239 34.0156 41.4069H38.2806C38.2806 34.055 41.2012 27.0043 46.3999 21.8057C51.5982 16.6071 58.6489 13.6865 66.0005 13.6865V9.42188ZM51.0746 35.0098H55.3385V30.7451H51.0746V35.0098ZM76.6625 35.0098H80.9264V30.7451H76.6625V35.0098Z" fill="#01E2C7"/>
</g>
</svg>
