<svg width="132" height="88" viewBox="0 0 132 88" fill="none" xmlns="http://www.w3.org/2000/svg">
<path fill-rule="evenodd" clip-rule="evenodd" d="M61.3141 8.97995C59.1121 10.048 51.3905 13.729 44.1552 17.1601L31 23.3991V63.2831L41.0094 68.655C46.5145 71.6093 53.7213 75.4521 57.0244 77.1946C60.3275 78.9366 63.3389 80.6037 63.7164 80.8984C64.2317 81.3009 64.4456 80.5497 64.5743 77.8874L64.7459 74.3392L74.7639 69.7497C80.2742 67.2259 87.1589 64.09 90.0639 62.7806L95.346 60.4005V43.9015C95.346 34.827 95.2551 27.4026 95.1447 27.4026C95.0337 27.4026 88.2771 30.5578 80.1306 34.4143L65.3179 41.4259L51.1749 34.2723C43.3956 30.3375 37.0256 26.9699 37.0188 26.7882C37.0113 26.6065 43.4419 23.4831 51.3087 19.8481L65.6119 13.2378L95.3168 26.9892L98.4523 25.3597C101.071 23.9987 101.427 23.6392 100.612 23.1827C97.6241 21.5083 66.4795 6.96826 65.9499 7.00005C65.6021 7.02163 63.5162 7.9125 61.3141 8.97995Z" fill="#2679CD"/>
<path fill-rule="evenodd" clip-rule="evenodd" d="M36.5677 43.7269L36.7193 60.051L49.8745 66.7191C57.1098 70.3865 63.4804 73.5338 64.0306 73.7127C64.9681 74.0176 65.0315 73.0148 65.0315 57.8848V41.7311L50.9807 34.5667C43.2523 30.6268 36.8143 27.4029 36.673 27.4029C36.5311 27.4029 36.4842 34.749 36.5677 43.7269Z" fill="#404042"/>
</svg>
