<svg width="132" height="88" viewBox="0 0 132 88" fill="none" xmlns="http://www.w3.org/2000/svg">
<path d="M97.7633 44.0008C97.7633 61.5428 83.5428 75.7633 66.0008 75.7633C48.4588 75.7633 34.2383 61.5428 34.2383 44.0008C34.2383 26.4588 48.4588 12.2383 66.0008 12.2383C83.5428 12.2383 97.7633 26.4588 97.7633 44.0008Z" stroke="#C4C4C4" stroke-width="0.55"/>
<path d="M97.7633 44.0008C97.7633 61.5428 83.5428 75.7633 66.0008 75.7633C48.4588 75.7633 34.2383 61.5428 34.2383 44.0008C34.2383 26.4588 48.4588 12.2383 66.0008 12.2383C83.5428 12.2383 97.7633 26.4588 97.7633 44.0008Z" stroke="url(#paint0_linear_2056_22096)" stroke-width="0.55"/>
<path fill-rule="evenodd" clip-rule="evenodd" d="M87.6095 31.3839L78.6162 22.3906L76.943 24.0638L80.6031 27.7239L69.832 38.4949L71.5052 40.168L82.2763 29.397L85.9364 33.0571L87.6095 31.3839Z" fill="black"/>
<path fill-rule="evenodd" clip-rule="evenodd" d="M53.384 65.6095L44.3906 56.6162L46.0638 54.943L55.0571 63.9364L53.384 65.6095ZM62.1681 49.5053L51.397 60.2763L49.7239 58.6031L60.4948 47.832L62.1681 49.5053Z" fill="black"/>
<path fill-rule="evenodd" clip-rule="evenodd" d="M87.6075 56.6162L78.6142 65.6095L76.9411 63.9364L85.9344 54.943L87.6075 56.6162ZM71.5034 47.832L82.2743 58.6031L80.6012 60.2763L69.8301 49.5053L71.5034 47.832Z" fill="black"/>
<path fill-rule="evenodd" clip-rule="evenodd" d="M53.384 22.3945L44.3906 31.3879L46.0638 33.0611L49.7239 29.401L60.4948 40.1721L62.1681 38.4988L51.397 27.7278L55.0571 24.0677L53.384 22.3945Z" fill="black"/>
<defs>
<linearGradient id="paint0_linear_2056_22096" x1="32.7258" y1="10.7258" x2="99.2758" y2="77.2758" gradientUnits="userSpaceOnUse">
<stop stop-color="#00D1FF"/>
<stop offset="1" stop-color="#AD00FF"/>
</linearGradient>
</defs>
</svg>
