<svg width="132" height="88" viewBox="0 0 132 88" fill="none" xmlns="http://www.w3.org/2000/svg">
<rect x="31.5" y="9.5" width="69" height="69" stroke="#F46F57" stroke-width="3"/>
<path d="M80 51.9455C80 55.1697 78.892 57.8182 76.6761 59.8909C74.4601 61.9636 71.5493 63 67.9437 63H52V25H65.0141C68.3568 25 71.0423 25.9596 73.0704 27.8788C75.1361 29.7596 76.169 32.1778 76.169 35.1333C76.169 38.0889 75.1361 40.4687 73.0704 42.2727C75.2488 43.002 76.939 44.2111 78.1408 45.9C79.3803 47.5889 80 49.604 80 51.9455ZM64.4507 30.3545H57.8592V40.603H64.4507C66.2535 40.603 67.662 40.1424 68.6761 39.2212C69.6901 38.3 70.1972 37.0333 70.1972 35.4212C70.1972 33.8475 69.6901 32.6192 68.6761 31.7364C67.6995 30.8152 66.2911 30.3545 64.4507 30.3545ZM73.9718 51.7727C73.9718 49.9303 73.3897 48.4909 72.2254 47.4545C71.061 46.3798 69.4648 45.8424 67.4366 45.8424H57.8592V57.6455H67.4366C69.5023 57.6455 71.0986 57.1273 72.2254 56.0909C73.3897 55.0162 73.9718 53.5768 73.9718 51.7727Z" fill="#69A6AC"/>
</svg>
