<svg width="132" height="88" viewBox="0 0 132 88" fill="none" xmlns="http://www.w3.org/2000/svg">
<rect x="52.9902" y="12.2852" width="24.6537" height="63.4319" fill="#65AB3D"/>
<path d="M50.0604 12.2434L54.1455 12.2434L54.1455 75.7578L50.0604 75.7578C43.517 75.4029 39.4832 74.4634 36.9966 71.9768C33 67.9802 33 59.987 33 44.0006C33 28.0142 33 20.021 36.9966 16.0244C39.4832 13.5378 43.517 12.5983 50.0604 12.2434Z" fill="#004D90"/>
<path d="M81.9396 12.2434L77.5152 12.2434L77.5152 75.7578L81.9396 75.7578C88.483 75.4029 92.5168 74.4634 95.0034 71.9768C99 67.9802 99 59.987 99 44.0006C99 28.0142 99 20.021 95.0034 16.0244C92.5168 13.5378 88.483 12.5983 81.9396 12.2434Z" fill="#FF6E00"/>
</svg>
