<svg width="132" height="88" viewBox="0 0 132 88" fill="none" xmlns="http://www.w3.org/2000/svg">
<path fill-rule="evenodd" clip-rule="evenodd" d="M84.1177 12.944C81.184 14.6212 77.5463 16.7129 76.0338 17.5923C73.2484 19.2115 47.0279 34.3354 45.5088 35.1989C42.6213 36.8407 34.8248 41.3438 32.0976 42.9457C28.0595 45.3173 27.3726 46.2003 27.5585 48.7795C27.6721 50.3539 27.9383 50.9053 31.884 57.7445C37.544 67.5552 37.7467 67.8557 39.1319 68.4844C40.5874 69.1452 42.087 69.159 43.3908 68.5232C43.9507 68.2501 48.0996 65.8876 52.6104 63.2729C57.1215 60.6582 60.8445 58.561 60.8841 58.613C61.0653 58.8503 65.0921 65.7853 67.6452 70.257C71.0715 76.2581 71.493 76.8414 72.9357 77.5775C75.0691 78.6657 75.7781 78.413 84.1832 73.57C88.3222 71.1852 92.2896 68.8677 92.9997 68.4203C94.7209 67.3357 95.5379 65.703 95.3573 63.709C95.2448 62.466 94.5826 61.1688 90.2249 53.6514C87.4733 48.9047 85.1963 44.9064 85.1652 44.7667C85.1341 44.6268 89.0603 42.2233 93.8899 39.4257C98.7194 36.6278 102.912 34.0673 103.206 33.7354C104.529 32.2441 104.845 30.1117 104.002 28.3751C103.037 26.3868 94.7737 12.2216 94.2086 11.5866C93.3646 10.6387 91.7435 9.89453 90.5225 9.89453C89.6631 9.89453 88.3984 10.4968 84.1177 12.944ZM89.5088 14.2118C85.3011 16.4819 74.8271 22.7018 74.4344 23.1636C74.1597 23.4864 73.9914 23.9663 74.0604 24.23C74.3665 25.4012 83.1434 40.1382 83.6258 40.2914C83.912 40.3821 84.3875 40.3799 84.6826 40.2864C85.2502 40.1063 99.716 31.7711 100.303 31.2862C100.492 31.13 100.646 30.7475 100.646 30.4362C100.646 29.675 91.953 14.6754 91.2103 14.1551C90.5021 13.6593 90.5349 13.6582 89.5088 14.2118ZM67.0963 27.128C63.8983 28.9168 54.8858 34.1396 53.8276 34.817C53.057 35.3103 52.7963 35.6634 52.7963 36.2137C52.7963 36.6589 54.3333 39.6196 56.6843 43.7036C61.6414 52.3141 61.7479 52.478 62.5148 52.6705C63.0085 52.7945 64.9318 51.8043 70.833 48.3874C75.0546 45.9429 78.6637 43.8158 78.8526 43.6601C79.0418 43.5045 79.1963 43.0931 79.1963 42.7458C79.1963 42.3987 77.5645 39.289 75.5699 35.8358C73.5756 32.3824 71.5857 28.9064 71.1482 28.1114C70.4285 26.8029 69.7196 26.1121 69.1082 26.1237C68.9847 26.1261 68.0795 26.578 67.0963 27.128ZM39.7239 42.913C35.4944 45.3429 31.8235 47.5764 31.5663 47.8764C31.3092 48.1762 31.172 48.6115 31.2611 48.8442C31.4789 49.412 40.1177 64.3894 40.4791 64.8258C40.6356 65.015 40.9823 65.1695 41.2499 65.1695C41.9781 65.1695 56.9796 56.4878 57.5662 55.7266C58.183 54.9263 58.543 55.6922 53.1503 46.332C49.3918 39.8082 48.4843 38.4945 47.7372 38.4945C47.5592 38.4945 43.9534 40.4828 39.7239 42.913ZM73.5401 51.9574C69.3153 54.3708 65.6212 56.6561 65.3308 57.0359L64.8028 57.7261L69.5064 65.9164C73.3691 72.6427 74.3247 74.1216 74.8516 74.1879C75.2765 74.2415 78.0922 72.7711 83.1885 69.8341C90.8618 65.4124 91.8463 64.7785 91.8463 64.2607C91.8463 63.8553 82.9908 48.614 82.4284 48.0516C82.1633 47.7865 81.7833 47.5695 81.5839 47.5695C81.3845 47.5695 77.765 49.544 73.5401 51.9574Z" fill="black"/>
</svg>
