<svg width="132" height="88" viewBox="0 0 132 88" fill="none" xmlns="http://www.w3.org/2000/svg">
<path d="M29.0127 19.8305C29.0127 12.7509 34.7519 7.01172 41.8315 7.01172H90.1689C97.2485 7.01172 102.988 12.7509 102.988 19.8305V68.1679C102.988 75.2476 97.2485 80.9867 90.1689 80.9867H41.8315C34.7519 80.9867 29.0127 75.2476 29.0127 68.1679V19.8305Z" fill="#E8BA8C"/>
<path d="M72.265 59.996V51.8972H70.04C69.0209 51.8972 68.3204 51.6819 67.9343 51.2542C67.5496 50.8235 67.3572 50.2235 67.3572 49.4527V46.0909H74.3148V42.2497H67.3558V35.9409H70.3874C70.9831 35.9409 71.4812 35.9955 71.8803 36.1046C72.2808 36.2137 72.6009 36.4247 72.8406 36.7362C73.0803 37.0505 73.2439 37.4797 73.3315 38.0252C73.4176 38.5707 73.4621 39.2956 73.4621 40.197H81.0958V27.8422H50.9114V35.9409C52.1918 35.9409 53.1076 36.1118 53.6603 36.4534C54.2129 36.7965 54.4885 37.4467 54.4885 38.407V49.4527C54.4885 50.3987 54.2129 51.0432 53.6603 51.3848C53.1076 51.7264 52.1918 51.8972 50.9114 51.8972V59.996H72.265Z" fill="black"/>
</svg>
