<svg width="132" height="88" viewBox="0 0 132 88" fill="none" xmlns="http://www.w3.org/2000/svg">
<path fill-rule="evenodd" clip-rule="evenodd" d="M44.6142 8.61586C44.5731 8.73032 43.3127 14.5713 41.8133 21.5956L39.0873 34.3674L35.4227 36.1976C33.4071 37.2043 31.7596 38.0624 31.7615 38.1045C31.7633 38.1466 32.9626 38.9748 34.4267 39.9451C35.8906 40.9152 37.0863 41.7492 37.0838 41.7984C37.0813 41.8475 35.443 42.7884 33.4431 43.8893C31.4432 44.9901 29.5973 46.0162 29.341 46.1695L28.875 46.4481L33.5124 48.7708L38.1499 51.0937L35.3981 52.9253C33.8847 53.9326 32.6465 54.7752 32.6465 54.7976C32.6465 54.82 34.5119 55.4596 36.792 56.219L40.9373 57.5998L53.3932 68.5366C60.244 74.5518 65.8995 79.4734 65.9609 79.4734C66.0224 79.4734 71.6778 74.5518 78.5286 68.5366L90.9845 57.5998L95.1298 56.219C97.4099 55.4596 99.2753 54.82 99.2753 54.7976C99.2753 54.7752 98.0371 53.9326 96.5236 52.9253L93.7719 51.0937L98.4484 48.7512C101.021 47.463 103.125 46.3757 103.125 46.3352C103.125 46.2948 103.075 46.2783 103.014 46.2986C102.877 46.3443 94.8436 41.9226 94.8377 41.7984C94.8353 41.7492 96.0312 40.9152 97.4952 39.9451C98.9592 38.9748 100.159 38.1466 100.16 38.1045C100.162 38.0624 98.5137 37.2039 96.4969 36.1967L92.8301 34.3655L91.7279 29.1792L90.6257 23.9928L89.0063 23.1796L87.3871 22.3663L88.5191 21.226C89.2127 20.5274 89.6512 19.9645 89.6512 19.7727C89.6512 19.4065 87.4726 9.10158 87.3103 8.70082C87.2232 8.48553 85.3766 10.737 78.4018 19.5614L69.6033 30.6935H65.9609H62.3185L53.7926 19.907C49.1032 13.9744 45.1366 8.96013 44.9777 8.76413C44.7609 8.49665 44.6702 8.45958 44.6142 8.61586Z" fill="black"/>
</svg>
