<svg width="132" height="88" viewBox="0 0 132 88" fill="none" xmlns="http://www.w3.org/2000/svg">
<path d="M99.6497 20.7424C96.6438 14.5685 87.9844 9.51717 77.9121 12.4582C73.0991 13.8495 68.8998 16.8333 66.0003 20.922C63.1008 16.8333 58.9015 13.8495 54.0884 12.4582C43.9935 9.56207 35.3568 14.5685 32.3508 20.7424C28.1334 29.3858 29.8832 39.1068 37.5552 49.636C43.5673 57.8753 52.1591 66.227 64.6319 75.9253C65.026 76.2333 65.5116 76.4002 66.0115 76.4002C66.5114 76.4002 66.9969 76.2333 67.3911 75.9253C79.8415 66.2492 88.4557 57.9651 94.4676 49.636C102.118 39.1068 103.867 29.3858 99.6497 20.7424Z" fill="black"/>
</svg>
