<svg width="132" height="88" viewBox="0 0 132 88" fill="none" xmlns="http://www.w3.org/2000/svg">
<circle cx="66.0008" cy="44.0008" r="35.2" fill="#FF43CB"/>
<path fill-rule="evenodd" clip-rule="evenodd" d="M56.5801 24.4282C56.5509 24.6574 56.4354 26.0356 56.3235 27.491C56.2115 28.9464 56.0356 31.1736 55.9325 32.4403C55.8294 33.7071 55.6948 35.4271 55.6332 36.2626C55.5718 37.0981 55.5065 37.8699 55.4883 37.9777C55.4701 38.0855 55.4519 38.2318 55.4479 38.3029C55.437 38.4964 55.0124 38.165 53.8299 37.0402L52.7992 36.0597L52.2263 36.4232C51.9112 36.6232 51.2329 37.0567 50.7189 37.3867C50.2049 37.7167 49.2663 38.3154 48.6332 38.7173C47.6691 39.329 47.491 39.4797 47.5381 39.6438C47.5691 39.7516 48.0834 40.8101 48.681 41.996C50.3216 45.2516 51.9717 48.1286 53.6515 50.662L54.3937 51.7815L53.9324 57.5622C53.6787 60.7417 53.4837 63.3555 53.4989 63.3708C53.5429 63.4145 59.8781 63.923 59.9102 63.8854C59.926 63.8667 60.0224 62.752 60.1244 61.4081L60.3099 58.9647L60.879 59.4878C63.3681 61.7757 66.0658 63.2792 68.6287 63.8068C70.0518 64.0998 72.5804 64.0379 74.1309 63.6721C77.8688 62.7902 80.6055 60.696 82.8195 57.0232C83.3864 56.0827 84.3285 54.1253 84.2473 54.0565C84.2288 54.041 82.93 53.5115 81.3611 52.88C79.7921 52.2485 78.4616 51.7119 78.4046 51.6876C78.3475 51.6633 78.1349 51.9915 77.9322 52.417C77.2128 53.9262 76.6835 54.7092 75.7621 55.6271C74.8506 56.5354 74.2104 56.9331 73.0752 57.2965C72.4146 57.508 70.3607 57.589 69.695 57.4298C67.5194 56.9099 64.7726 54.6766 61.9227 51.1106C61.3875 50.441 59.7939 48.2621 59.4172 47.6851C59.2298 47.398 59.2299 47.3964 59.4249 47.4715C60.3677 47.8342 63.3846 48.1743 64.8841 48.0868C70.8875 47.7366 75.4835 44.3773 77.7324 38.6957C78.2311 37.4357 78.6878 35.8589 78.5809 35.7657C78.541 35.7309 78.0214 35.5877 77.4263 35.4475C73.3016 34.476 72.5503 34.3025 72.4698 34.3025C72.42 34.3025 72.2827 34.6221 72.1645 35.013C70.8897 39.2285 68.4015 41.4138 64.6382 41.6235C63.6587 41.6781 61.9624 41.5215 61.7993 41.3616C61.7523 41.3155 61.7853 40.4387 61.8738 39.3832C62.394 33.1787 63.0203 25.007 62.9952 24.7515L62.9659 24.4528L60.3099 24.2401C58.8491 24.1231 57.4243 24.0238 57.1435 24.0196L56.6332 24.0117L56.5801 24.4282Z" fill="black"/>
</svg>
