<svg width="132" height="88" viewBox="0 0 132 88" fill="none" xmlns="http://www.w3.org/2000/svg">
<path fill-rule="evenodd" clip-rule="evenodd" d="M42.2911 10.9265C41.9265 11.2643 41.5598 11.5406 41.4764 11.5406C41.3928 11.5406 40.8769 12.1208 40.3292 12.8301C38.8517 14.7442 38.4218 16.1091 38.4919 18.6636C38.5604 21.1652 38.8989 23.2414 39.2765 23.4748C39.3997 23.5507 40.3641 22.7143 41.4199 21.6162C42.9224 20.053 43.428 19.3378 43.7486 18.3217C44.2122 16.8521 44.2744 14.3524 43.8835 12.8915C43.739 12.3511 43.5637 11.5497 43.4939 11.1108C43.3412 10.1514 43.1586 10.1234 42.2911 10.9265ZM88.2172 12.4617C87.6194 14.8867 87.5842 16.0526 88.0574 17.7508C88.4815 19.2725 89.1105 20.1626 91.084 22.0347C92.2097 23.1026 92.7488 23.4691 92.8717 23.2498C93.295 22.494 93.6539 16.6323 93.3171 15.9748C93.2097 15.765 92.969 15.2617 92.7824 14.8565C92.2062 13.605 91.0009 11.8022 90.7352 11.7941C90.5963 11.7897 90.1914 11.4546 89.8355 11.0494C89.4795 10.6441 89.0892 10.3125 88.9677 10.3125C88.8465 10.3125 88.5088 11.2797 88.2172 12.4617ZM63.7012 16.6763C63.0251 16.7607 62.3061 16.9388 62.1033 17.0715C61.9005 17.2041 61.2368 17.3276 60.6283 17.3461C60.0199 17.3645 59.2771 17.3922 58.9776 17.4075C58.678 17.4229 58.0696 17.7528 57.6256 18.1406C57.1539 18.5525 56.3055 18.9549 55.5853 19.1081C54.0221 19.4407 52.23 20.4364 51.3822 21.4432C51.0203 21.8731 50.436 22.4093 50.0837 22.635C49.7314 22.8607 48.5389 23.911 47.4337 24.9686C45.9251 26.4124 45.2053 27.3307 44.5453 28.6527C44.062 29.6211 43.6665 30.5351 43.6665 30.6839C43.6665 30.8325 43.4066 31.3665 43.089 31.8705C41.3923 34.562 40.3896 41.6339 41.2001 45.1905C41.3695 45.9335 41.587 46.9835 41.6839 47.5239C41.7807 48.0642 42.1559 49.1248 42.5175 49.8808C42.8791 50.6371 43.1748 51.3946 43.1748 51.5645C43.1748 52.0988 44.4096 54.3575 45.285 55.4249C45.7469 55.9881 46.1247 56.5457 46.1247 56.6641C46.1247 56.7827 46.8641 57.593 47.768 58.465C48.6717 59.3369 49.8054 60.4488 50.2877 60.9359C51.3106 61.9695 52.1764 62.4723 52.6322 62.2976C52.8099 62.2296 53.199 62.4327 53.4965 62.7493C53.7942 63.0657 54.3313 63.3982 54.6905 63.4884C55.0494 63.5783 55.529 63.8509 55.7561 64.0946C55.9835 64.338 56.7578 64.6747 57.4769 64.8427C58.1962 65.0107 58.9506 65.2871 59.1534 65.4568C59.5261 65.769 63.3022 66.3142 65.7907 66.4154C68.4102 66.522 73.6106 65.4622 74.924 64.5541C75.2829 64.3061 75.7935 64.1032 76.0588 64.1032C76.3237 64.1032 76.8043 63.8973 77.1269 63.6458C77.4494 63.3941 77.9897 63.1055 78.3277 63.0045C78.6657 62.9036 79.4401 62.4079 80.0485 61.9032C80.6569 61.3984 81.5239 60.7949 81.975 60.5621C82.4263 60.329 82.9794 59.8154 83.2041 59.4207C83.4291 59.0257 83.7005 58.702 83.8071 58.701C84.2393 58.6976 86.0183 56.529 86.5941 55.3041C86.9321 54.5847 87.5746 53.517 88.022 52.9314C88.5479 52.2432 88.8984 51.4489 89.0127 50.6862C89.1103 50.0373 89.3456 49.2845 89.5356 49.013C89.7258 48.7419 89.8815 48.2902 89.8815 48.0094C89.8815 47.729 89.9953 47.3856 90.1344 47.2466C90.2738 47.1073 90.4815 46.157 90.5963 45.1345C90.7111 44.112 90.8704 43.1695 90.9505 43.0398C91.0307 42.9104 90.9815 42.1531 90.8414 41.3571C90.7013 40.561 90.5555 39.1359 90.5179 38.1903C90.4488 36.4607 89.5557 33.457 88.7826 32.3544C88.5759 32.0592 88.4065 31.5898 88.4065 31.3115C88.4065 31.033 88.0193 30.2047 87.5461 29.4708C87.0729 28.7369 86.6857 28.0371 86.6857 27.9156C86.6857 27.5729 84.3017 24.6238 83.2897 23.714C81.1399 21.7819 78.9708 20.1373 78.5723 20.1373C78.3358 20.1373 77.9941 19.9592 77.8132 19.7413C77.3592 19.1948 75.0558 18.1723 74.2787 18.1723C73.9272 18.1723 73.3876 18.0073 73.0794 17.8054C72.7711 17.6037 71.9729 17.3719 71.3057 17.2906C70.6386 17.2093 69.6457 16.9813 69.0997 16.7843C68.3726 16.5218 67.9328 16.4918 67.4569 16.6726C67.0365 16.8322 66.5198 16.8371 65.9932 16.6863C65.5456 16.5579 65.1233 16.4685 65.0549 16.4876C64.9863 16.5065 64.3772 16.5915 63.7012 16.6763ZM34.0882 20.4487C33.6199 21.1556 33.2634 21.8637 33.2959 22.0224C33.3283 22.1811 33.2413 22.381 33.1027 22.4667C32.9638 22.5525 32.8502 22.8858 32.8502 23.2075C32.8502 23.5293 32.7511 23.8537 32.6302 23.9284C32.2693 24.1512 32.7125 28.3744 33.1231 28.6279C33.2435 28.7023 33.35 29.0051 33.3598 29.3011C33.3696 29.5971 33.5923 30.1708 33.8544 30.5761C34.1164 30.9814 34.3979 31.5063 34.4795 31.7428C34.5614 31.9793 34.713 32.1726 34.8168 32.1726C34.9205 32.1726 35.069 32.4165 35.1472 32.7145C35.2915 33.2664 35.5454 33.2209 35.6479 32.6251C35.6791 32.4438 36.1098 31.6706 36.6049 30.907C37.1003 30.1433 37.569 29.1579 37.6467 28.717C37.7244 28.2764 37.8522 27.8119 37.9306 27.6852C38.1406 27.3457 38.131 25.3191 37.9142 24.19C37.8102 23.6496 37.4579 22.8558 37.1315 22.4257C36.8048 21.9956 36.5376 21.5395 36.5376 21.4118C36.5376 21.2843 36.3751 21.0453 36.1767 20.8808C35.9783 20.716 35.8357 20.5091 35.8601 20.4207C35.9141 20.2242 35.2391 19.1531 35.0648 19.1592C34.996 19.1617 34.5565 19.7418 34.0882 20.4487ZM96.1782 20.0059C95.96 20.3387 95.7812 20.6875 95.7812 20.7808C95.7812 20.8741 95.5042 21.3136 95.1655 21.7574C93.6571 23.7331 93.4685 27.513 94.7682 29.7164C95.2077 30.4614 96.0271 32.3576 96.0271 32.6295C96.0271 32.7835 96.193 32.9095 96.3958 32.9095C96.5986 32.9095 96.7645 32.7702 96.7645 32.6003C96.7645 32.43 96.9858 32.1527 97.2562 31.984C97.5266 31.8153 97.7478 31.564 97.7478 31.4257C97.7478 31.2874 97.9312 30.7635 98.1557 30.2612C99.5431 27.1536 99.6913 23.2063 98.4824 21.5594C98.2137 21.1934 97.9937 20.7982 97.9937 20.6813C97.9937 20.4509 96.9452 19.4004 96.7156 19.4004C96.6384 19.4004 96.3965 19.6728 96.1782 20.0059ZM63.947 21.2566C63.4062 21.4558 62.5713 21.595 62.092 21.5663C60.9944 21.5005 54.2369 24.023 54.2369 24.4987C54.2369 24.8475 52.1189 26.9532 51.3888 27.3305C50.4547 27.8131 49.3883 29.0945 49.1973 29.9635C49.1157 30.3342 48.7799 30.8898 48.4509 31.1985C48.122 31.5073 47.7813 32.1567 47.6941 32.6418C47.4996 33.7191 47.1776 34.3658 46.5876 34.8644C46.299 35.108 46.1033 35.6803 46.0382 36.471C45.9826 37.1464 45.8132 38.2957 45.6616 39.0252C45.3968 40.2994 45.447 42.7259 45.7481 43.213C45.8278 43.3417 45.899 43.8668 45.9062 44.3802C45.9241 45.6223 46.4726 47.5607 47.5254 50.1029C48.7917 53.1603 48.8423 53.2478 49.7329 53.9267C50.182 54.2691 50.5495 54.6591 50.5495 54.7939C50.5495 55.2176 53.0867 57.4938 54.114 57.9917C54.6548 58.2537 55.6504 58.855 56.3264 59.3281C57.0024 59.8009 58.3299 60.4095 59.2763 60.6802C60.2227 60.9509 61.3843 61.2967 61.8575 61.4488C62.989 61.8123 66.3612 61.7853 69.5215 61.3874C72.0624 61.0676 73.8916 60.4218 75.5088 59.2736C75.91 58.9886 76.6254 58.5885 77.0986 58.3842C78.9634 57.579 81.7892 54.7188 82.7321 52.6819C83.1073 51.8713 83.5854 51.0664 83.7946 50.893C84.0036 50.7196 84.3089 50.2222 84.4728 49.7877C84.6368 49.3532 84.9674 48.5002 85.2076 47.8923C85.4478 47.2844 85.7214 46.2344 85.8155 45.5589C85.9097 44.8834 86.1302 44.107 86.3057 43.8334C86.5395 43.4689 86.5668 43.0099 86.4082 42.1141C86.2892 41.4421 86.1248 40.4935 86.0424 40.0064C85.9569 39.4987 86.0169 38.8893 86.1835 38.5784C86.3782 38.2149 86.3935 37.939 86.2295 37.7418C86.095 37.5797 85.5478 36.1477 85.0136 34.5591C84.4298 32.8235 83.8096 31.4404 83.4588 31.0929C83.138 30.7748 82.5989 30.1057 82.2609 29.6062C81.9229 29.1066 81.4748 28.5127 81.2651 28.286C81.0556 28.0595 80.6903 27.5653 80.4534 27.1878C80.2166 26.8103 79.7279 26.3895 79.3675 26.2525C79.0072 26.1157 78.2663 25.6468 77.721 25.2108C75.7143 23.6054 73.4188 22.3501 72.4764 22.3425C72.1118 22.3395 71.3156 22.1013 70.7072 21.8129C69.8977 21.4295 69.0734 21.2789 67.6343 21.2517C66.5527 21.231 65.5018 21.1424 65.299 21.0544C65.0962 20.9665 64.4878 21.0576 63.947 21.2566ZM29.8251 30.1453C29.4822 30.7476 29.1343 33.8571 29.2498 35.2861C29.3909 37.0322 29.8725 38.3023 30.7418 39.2212C31.0227 39.5179 31.2538 39.8495 31.2555 39.958C31.2575 40.0666 31.966 40.8676 32.8303 41.7383C34.3308 43.2501 34.4112 43.296 34.6098 42.7596C34.7241 42.4506 34.7605 42.105 34.6904 41.9918C34.6204 41.8785 34.6737 41.7174 34.8089 41.6339C34.9444 41.5501 35.0552 41.2387 35.0552 40.9413C35.0555 40.6441 35.1467 39.7588 35.258 38.9741C35.3694 38.1893 35.3692 37.491 35.2575 37.422C35.1459 37.353 35.1199 37.1914 35.1995 37.0624C35.5191 36.5459 34.1808 33.8615 32.9731 32.5966C31.5429 31.0988 29.9765 29.879 29.8251 30.1453ZM101.681 30.1816C101.681 30.3185 101.277 30.6218 100.783 30.8561C100.289 31.0904 99.708 31.5922 99.4922 31.9715C99.2764 32.3505 98.9723 32.6614 98.8164 32.6624C98.6603 32.6631 98.1173 33.4651 97.6092 34.4446C96.7879 36.0284 96.6792 36.4496 96.6269 38.2525C96.5947 39.3676 96.6677 40.3412 96.7894 40.4161C96.9108 40.4913 97.0121 40.9607 97.0141 41.4593C97.0224 43.4692 97.6512 43.364 99.7973 40.9946C101.78 38.8058 103.267 35.43 102.872 34.0148C102.759 33.6095 102.721 33.1328 102.787 32.9554C102.853 32.7778 102.742 32.3136 102.54 31.9236C102.338 31.5335 102.173 30.9946 102.173 30.7257C102.173 30.4567 102.062 30.1684 101.927 30.0849C101.792 30.0014 101.681 30.0448 101.681 30.1816ZM57.1873 31.2339C56.8493 31.3611 56.0511 31.3933 55.4132 31.3056C54.2654 31.1479 54.2534 31.1536 54.2531 31.8438C54.2531 32.2272 54.2106 33.149 54.1585 33.892C54.1066 34.635 54.1678 35.3762 54.2947 35.5391C54.4213 35.7022 54.4375 35.9768 54.3306 36.1497C54.2239 36.3224 54.1669 36.8173 54.204 37.2493C54.2413 37.6814 54.1531 38.2564 54.0078 38.5275C53.8628 38.7985 53.8379 39.0782 53.9527 39.1492C54.0675 39.22 54.1715 39.625 54.1836 40.0489C54.1956 40.4729 54.2416 40.8558 54.2856 40.9C54.4454 41.0596 57.1635 41.181 57.384 41.0385C57.5086 40.958 57.6706 40.5605 57.7438 40.1553C57.8174 39.75 58.0644 38.8105 58.293 38.0675C58.5216 37.3245 58.7264 36.4955 58.7483 36.2254C58.7702 35.9552 58.8685 35.6093 58.9668 35.4571C59.4041 34.7787 62.2955 33.8193 62.3791 34.3248C62.3956 34.4245 62.4315 36.9445 62.4588 39.9246C62.486 42.905 62.5802 45.4592 62.668 45.6011C62.7557 45.7429 62.7596 45.9266 62.6766 46.0096C62.5937 46.0924 62.4922 46.8268 62.4511 47.6418C62.4101 48.4565 62.3132 49.2255 62.2358 49.3505C62.1586 49.4755 62.2078 49.647 62.3452 49.732C62.7982 50.0117 62.6284 50.8397 62.1178 50.8397C61.8553 50.8397 61.5691 50.9557 61.4814 51.0971C61.3835 51.2553 60.9044 51.2919 60.2377 51.1919C59.2549 51.0448 59.1534 51.0767 59.1534 51.5341C59.1534 51.8116 59.0374 52.1106 58.8955 52.198C58.7193 52.3068 58.7284 52.4662 58.9245 52.7022C59.0824 52.8921 59.1581 53.3261 59.0927 53.6666C58.9978 54.163 59.0905 54.315 59.56 54.4326C59.8823 54.5135 60.4228 54.5267 60.7616 54.4619C61.1003 54.3973 61.4369 54.44 61.5091 54.5569C61.6883 54.847 62.5949 54.8274 62.5949 54.5336C62.5949 54.2425 64.5819 54.2602 66.9718 54.5726C68.066 54.7156 68.8824 54.719 69.0614 54.5815C69.3915 54.3275 70.4522 54.3192 70.8362 54.5672C70.9746 54.6569 71.4628 54.6537 71.921 54.5599C72.6288 54.4154 72.7608 54.2796 72.7976 53.6587C72.8215 53.2564 72.7799 52.817 72.705 52.6821C72.6302 52.547 72.601 52.1324 72.6398 51.761C72.7089 51.1043 72.6762 51.0853 71.479 51.0853C70.8018 51.0853 69.983 50.9849 69.6595 50.8621L69.0714 50.6386L69.1609 46.0111C69.2101 43.4657 69.2484 41.2728 69.2465 41.1377C69.2445 41.0027 69.2128 39.4695 69.1762 37.731C69.1098 34.5873 69.1125 34.5687 69.7032 34.3444C70.157 34.172 70.599 34.2614 71.5747 34.7232C72.9238 35.3613 73.1148 35.6312 73.333 37.2076C73.4078 37.7482 73.5447 38.2456 73.6371 38.3131C73.7296 38.3807 73.8021 38.9164 73.7981 39.5036C73.7891 40.8742 74.3444 41.3438 75.791 41.1891C76.3562 41.1287 76.9371 41.1974 77.0816 41.3419C77.4941 41.754 78.0126 41.1166 77.7018 40.579C77.5595 40.3326 77.474 38.2957 77.4978 35.7135L77.5384 31.2715L74.8385 31.295C73.3537 31.3081 72.0838 31.2299 72.0167 31.1216C71.9498 31.0133 71.6553 31.0013 71.3625 31.0951C70.6467 31.3243 58.6372 31.3997 58.1701 31.1779C57.9673 31.0813 57.5251 31.1066 57.1873 31.2339ZM28.5035 43.9395C28.578 45.5432 28.7289 46.3142 29.0684 46.8268C29.96 48.173 30.1614 48.5093 30.2948 48.8748C30.4787 49.379 32.2573 50.7528 33.86 51.6289C34.5892 52.0273 35.4441 52.519 35.76 52.7214C36.7032 53.3259 36.9213 52.7116 36.5152 50.5941C35.9832 47.8213 35.2192 45.6817 34.761 45.6817C34.6565 45.6817 34.571 45.5122 34.571 45.3049C34.571 44.8979 30.9994 42.4896 30.3919 42.4872C30.1891 42.4864 29.7063 42.3204 29.3192 42.1188C28.9318 41.9169 28.5669 41.7518 28.5084 41.7518C28.4497 41.7518 28.4475 42.7362 28.5035 43.9395ZM102.572 42.1762C100.995 42.4113 97.6532 44.7095 96.6547 46.2461C96.1787 46.9788 95.3515 50.1888 95.2495 51.6994C95.1534 53.1223 95.1342 53.1188 97.3533 52.0752C99.0399 51.2821 101.357 49.4075 101.868 48.4221C102.054 48.0637 102.351 47.6044 102.527 47.4015C102.871 47.0058 103.361 45.5496 103.353 44.9449C103.35 44.7422 103.411 43.996 103.489 43.2869C103.566 42.5778 103.551 42.0139 103.454 42.0343C103.358 42.0544 102.961 42.1185 102.572 42.1762ZM30.7993 54.2538C30.8829 54.6051 31.0323 55.003 31.1314 55.1381C31.2302 55.2732 31.4465 55.8034 31.612 56.3165C31.7774 56.8296 32.1626 57.499 32.4682 57.8043C32.7735 58.1093 33.0675 58.4677 33.1211 58.6003C33.2288 58.8661 35.2534 60.1197 36.4146 60.6399C38.0501 61.3724 41.5713 62.0542 41.8002 61.6828C41.854 61.5956 41.5248 60.7505 41.0683 59.8048C40.6121 58.8592 40.2357 57.9475 40.2318 57.7785C40.2281 57.6097 40.1234 57.4714 39.9993 57.4714C39.8749 57.4714 39.5342 57.0846 39.2416 56.6118C38.9491 56.139 38.6074 55.7521 38.482 55.7521C38.3567 55.7521 37.8171 55.4357 37.2829 55.0491C36.2583 54.3076 34.1845 53.7741 31.933 53.6732C30.6628 53.616 30.6488 53.6233 30.7993 54.2538ZM98.3022 53.6992C95.4064 54.2423 92.8247 55.83 91.9695 57.5943C91.7728 57.9995 91.5046 58.4969 91.3731 58.6995C91.2416 58.9022 90.9535 59.5101 90.7327 60.0504C90.5122 60.5908 90.2313 61.2235 90.1086 61.4561C89.9183 61.8172 89.9847 61.8636 90.5594 61.7722C90.9301 61.7133 91.8677 61.5981 92.6431 61.5161C93.4184 61.434 94.1087 61.2768 94.1767 61.1663C94.2451 61.056 94.6782 60.8951 95.1392 60.8087C95.6003 60.7222 96.107 60.4958 96.2653 60.3054C96.4233 60.115 96.8614 59.8915 97.2385 59.8088C97.8889 59.6661 99.4686 58.1675 99.4686 57.6935C99.4686 57.5714 99.5522 57.4714 99.6545 57.4714C99.7567 57.4714 99.9934 57.1121 100.181 56.6732C100.368 56.2343 100.717 55.4343 100.957 54.8959C101.196 54.3572 101.341 53.8338 101.279 53.7326C101.186 53.5838 99.0463 53.5597 98.3022 53.6992ZM39.3645 63.4091C38.6885 63.5368 38.0304 63.7453 37.9019 63.8723C37.7736 63.9993 37.304 64.1032 36.8589 64.1032H36.0491L36.9311 65.2699C38.6121 67.4937 40.144 68.5408 42.4105 69.0146C44.0394 69.355 44.5861 69.3693 46.8622 69.1303C48.8566 68.921 49.3207 68.794 49.3182 68.4582C49.3165 68.1871 48.1631 66.9538 46.33 65.2627C45.4217 64.4249 43.7682 63.6908 42.3444 63.4933C41.6849 63.4017 41.0211 63.2931 40.8695 63.2519C40.7178 63.2106 40.0406 63.2813 39.3645 63.4091ZM89.2101 63.3985C89.0784 63.5301 88.6791 63.6687 88.3229 63.7067C87.9667 63.7446 87.4802 63.9379 87.242 64.1358C87.0036 64.3338 86.3939 64.7091 85.8868 64.9695C85.3799 65.2298 84.965 65.5199 84.965 65.6137C84.965 65.7078 84.6606 66.1018 84.289 66.4894C83.9173 66.877 83.3479 67.49 83.0239 67.8518L82.4352 68.5093L83.1469 68.7847C83.5385 68.9362 84.6884 69.1109 85.7024 69.1728C86.7165 69.2349 87.6808 69.3304 87.8455 69.3855C88.0102 69.4405 88.2103 69.3796 88.2902 69.2504C88.3701 69.1212 88.8222 69.0156 89.2949 69.0156C89.7676 69.0156 90.6737 68.7793 91.3085 68.4907C92.4992 67.9491 95.5354 65.0886 95.5354 64.5084C95.5354 64.0641 93.9572 63.624 91.7937 63.4651C90.8097 63.3928 89.8795 63.2943 89.7271 63.2462C89.5744 63.1983 89.3419 63.2668 89.2101 63.3985ZM49.0975 70.3181C48.096 70.5703 47.1203 70.9331 46.929 71.1242C46.7378 71.3153 46.5062 71.472 46.4145 71.4723C46.3226 71.4727 45.8737 71.7923 45.4167 72.1826L44.5858 72.8922L45.1709 73.0744C45.4927 73.1746 46.1461 73.5632 46.623 73.938C48.1149 75.1104 51.2079 75.7512 52.6199 75.1806C53.0152 75.021 53.4943 74.9502 53.6848 75.0232C53.8753 75.0961 54.2708 74.9876 54.5641 74.7815C54.8574 74.5754 55.5123 74.2949 56.0191 74.1581C56.5263 74.021 56.941 73.8027 56.941 73.6728C56.941 73.5431 57.0944 73.4367 57.2817 73.4367C57.469 73.4367 57.9321 73.2761 58.311 73.0796L58.9998 72.7227L58.4004 72.4621C58.071 72.3187 57.4695 71.99 57.0639 71.7316C56.6583 71.4735 56.133 71.2539 55.8962 71.2441C55.6595 71.2342 55.466 71.1156 55.466 70.9805C55.466 70.8454 55.3235 70.7349 55.1492 70.7349C54.9751 70.7349 54.4183 70.5239 53.9119 70.266C52.7907 69.6947 51.5169 69.7085 49.0975 70.3181ZM78.6964 70.0405C77.7724 70.2395 74.9098 71.5992 74.6403 71.9672C74.5727 72.0595 74.2625 72.2693 73.951 72.4331L73.3849 72.7313L74.0693 73.2682C74.4457 73.5634 74.8461 73.7752 74.9589 73.7383C75.0718 73.7017 75.4786 73.8955 75.8631 74.1691C76.2478 74.4428 76.7222 74.6051 76.9179 74.5302C77.1133 74.4553 77.6807 74.6341 78.1787 74.9276C78.8744 75.3378 79.3066 75.426 80.0431 75.3081C80.5706 75.2238 81.0628 75.2531 81.137 75.3732C81.212 75.494 81.684 75.4444 82.1967 75.2617C82.7051 75.0804 83.2929 74.9271 83.5026 74.9212C83.9593 74.9082 86.9316 73.0152 86.9316 72.7372C86.9316 72.1836 84.8209 70.9036 83.2442 70.5016C82.6358 70.3463 81.9721 70.1538 81.7693 70.0734C81.1572 69.8313 79.7392 69.816 78.6964 70.0405ZM65.1761 73.0793C64.1687 73.2999 61.7112 74.0552 61.6116 74.1748C61.544 74.2559 61.074 74.5742 60.5669 74.8819C60.06 75.1899 59.6451 75.5409 59.6451 75.662C59.6451 75.7831 60.5025 76.2893 61.5502 76.7867C63.3103 77.6221 63.6237 77.6906 65.6678 77.6874C68.1587 77.6837 68.0788 77.7002 70.0926 76.7651C72.1939 75.789 72.292 75.6817 71.5877 75.128C71.2635 74.8733 70.9222 74.6648 70.8293 74.6648C70.7362 74.6648 70.3664 74.4612 70.0075 74.2121C69.4598 73.8322 68.4468 73.5627 65.7907 73.0909C65.5879 73.055 65.3113 73.0496 65.1761 73.0793Z" fill="#4B5E43"/>
</svg>
