<svg width="132" height="88" viewBox="0 0 132 88" fill="none" xmlns="http://www.w3.org/2000/svg">
<mask id="mask0_2056_25701" style="mask-type:alpha" maskUnits="userSpaceOnUse" x="30" y="8" width="72" height="72">
<path fill-rule="evenodd" clip-rule="evenodd" d="M46.0087 14.0796C51.9269 10.1263 58.8836 8.01562 66.0003 8.01562C75.5437 8.01562 84.6965 11.8071 91.4442 18.5548C98.1918 25.3026 101.983 34.4554 101.983 43.9985C101.983 51.1157 99.8732 58.0727 95.919 63.9901C91.965 69.9073 86.3457 74.5191 79.7707 77.2418C73.1949 79.9665 65.9602 80.6782 58.9807 79.2898C51.9998 77.9024 45.589 74.4743 40.5563 69.4426C35.5237 64.4098 32.0973 57.9987 30.709 51.0181C29.3206 44.0383 30.0333 36.8039 32.756 30.2284C35.4797 23.6531 40.0915 18.0341 46.0087 14.0796ZM66.9917 13.9784C66.6218 13.6091 66.0224 13.6091 65.6525 13.9784L35.9805 43.6511C35.6106 44.0205 35.6106 44.6208 35.9805 44.9901L65.6525 74.6632C66.0224 75.0319 66.6218 75.0319 66.9917 74.6632L96.6648 44.9901C97.0335 44.6208 97.0335 44.0205 96.6648 43.6511L66.9917 13.9784Z" fill="#FF0000"/>
</mask>
<g mask="url(#mask0_2056_25701)">
<path d="M65.8727 8.14844C58.781 8.14844 51.8494 10.2515 45.9531 14.1917C40.0559 18.1309 35.461 23.7311 32.7473 30.2827C30.0336 36.8345 29.3229 44.0434 30.7063 50.9984C32.0896 57.9537 35.505 64.342 40.5196 69.3577C45.5332 74.3712 51.9223 77.7856 58.8778 79.1689C65.8326 80.5524 73.0423 79.8426 79.593 77.13C86.1449 74.4163 91.7453 69.8194 95.6844 63.924C99.6246 58.0274 101.728 51.0949 101.728 44.0035C101.728 34.4946 97.9493 25.3747 91.2255 18.6507C84.5018 11.9266 75.3822 8.14844 65.8727 8.14844Z" fill="#0F1829"/>
</g>
</svg>
