<svg width="132" height="88" viewBox="0 0 132 88" fill="none" xmlns="http://www.w3.org/2000/svg">
<g clip-path="url(#clip0_2056_25609)">
<mask id="mask0_2056_25609" style="mask-type:luminance" maskUnits="userSpaceOnUse" x="16" y="-6" width="100" height="100">
<path d="M115.5 -5.5H16.5V93.5H115.5V-5.5Z" fill="white"/>
</mask>
<g mask="url(#mask0_2056_25609)">
<path d="M26.3582 11.1973C26.5221 11.3734 26.699 11.5009 26.884 11.5768C27.0699 11.6526 27.2398 11.6344 27.3947 11.5221C27.4377 11.4979 27.4157 11.4462 27.3278 11.3674C27.2398 11.2884 27.1458 11.1882 27.0479 11.0729C26.9509 10.9545 26.875 10.8179 26.817 10.657C26.763 10.4992 26.79 10.3201 26.9019 10.1166C27.0149 9.91634 27.2398 9.69777 27.5706 9.46097C27.9025 9.22419 28.4062 8.96621 29.0779 8.68384C29.3328 8.58369 29.5707 8.50471 29.7956 8.44104C30.0165 8.38027 30.2544 8.36509 30.5033 8.39548C30.6762 9.08754 30.8161 9.88897 30.928 10.7966C31.038 11.7043 31.1599 12.6605 31.2869 13.6592C31.4178 14.6609 31.5548 15.6809 31.6977 16.7191C31.8436 17.7572 32.0315 18.7499 32.2624 19.7C32.4933 20.6472 32.7762 21.5184 33.104 22.3077C33.4348 23.1 33.8457 23.7526 34.3374 24.2687C34.6053 24.2291 34.9242 24.1502 35.298 24.0259C35.6688 23.9013 36.0276 23.7707 36.3705 23.628C36.7143 23.4855 37.0022 23.3458 37.2331 23.2122C37.4649 23.0755 37.5769 22.9845 37.5679 22.9391C37.37 21.9585 37.1181 20.9871 36.8083 20.0218C36.5014 19.0565 36.1796 18.0942 35.8477 17.1319C35.5179 16.1764 35.199 15.217 34.8912 14.2542C34.5843 13.3007 34.3324 12.3308 34.1345 11.3491C34.1125 11.2398 34.0796 11.0152 34.0336 10.6783C33.9886 10.3382 33.9456 9.97703 33.9006 9.58851C33.8597 9.23296 33.8157 8.87785 33.7697 8.52302C33.7297 8.20116 33.7087 8.00385 33.7117 7.94008L34.0526 7.58194C34.2705 7.53948 34.5533 7.48481 34.9062 7.42104C35.6408 7.2883 36.3695 7.12528 37.0911 6.93226C37.4369 6.83821 37.7019 6.73195 37.8898 6.61362C37.9597 6.54984 38.0117 6.51338 38.0477 6.49517C38.0847 6.47999 38.1056 6.46789 38.1117 6.45879C38.1177 6.44969 38.1207 6.4375 38.1176 6.4223C38.1146 6.40712 38.1056 6.36774 38.0936 6.30696C37.9997 5.83949 37.7078 5.54502 37.2211 5.41448C36.7353 5.28704 36.1336 5.26576 35.4229 5.35082C34.7113 5.43879 33.9426 5.60269 33.119 5.85167C32.2954 6.09755 31.4998 6.36774 30.7312 6.6591C29.9655 6.95054 29.2698 7.23283 28.6431 7.50299C28.0174 7.77318 27.5646 7.97957 27.2858 8.11622C26.826 8.33781 26.4891 8.58669 26.2703 8.86595C26.0514 9.14521 25.9244 9.43058 25.8844 9.71894C25.8454 10.0104 25.8725 10.2836 25.9664 10.5386C26.0634 10.8057 26.1913 11.0212 26.3582 11.1973ZM38.6984 12.8852C39.0472 14.6093 39.382 16.0483 39.7009 17.1957C40.0227 18.3432 40.3356 19.272 40.6394 19.9793C40.9433 20.6867 41.2472 21.2087 41.551 21.5427C41.8519 21.8796 42.1647 22.0982 42.4876 22.2043C42.8094 22.3107 43.1313 22.3319 43.4621 22.2742C43.791 22.2164 44.1427 22.1499 44.5137 22.0739C44.8423 22.0071 45.0423 21.8462 45.1212 21.5882C44.8784 20.8597 44.6355 20.1493 44.3988 19.4511C44.1548 18.7363 43.9589 18.0061 43.8119 17.2655C43.584 16.1302 43.4901 15.1831 43.5291 14.4211C43.5691 13.6592 43.675 13.0582 43.8459 12.6119C44.0129 12.1657 44.1977 11.8712 44.3957 11.7255C44.5926 11.5799 44.7414 11.5556 44.8423 11.6466C45.1094 11.9319 45.2733 12.2447 45.3343 12.5785C45.3951 12.9154 45.4102 13.2616 45.3863 13.6228C45.3613 13.984 45.3313 14.3513 45.2922 14.7217C45.2524 15.092 45.2702 15.4654 45.3461 15.8387C45.4501 16.3518 45.6291 16.9224 45.8871 17.5508C46.1428 18.1792 46.4736 18.7469 46.8746 19.2568C47.2764 19.7668 47.759 20.1675 48.3178 20.459C48.8804 20.7503 49.5094 20.8263 50.2109 20.6835C50.7097 20.5834 51.0774 20.3071 51.3205 19.8548C51.5603 19.4025 51.7151 18.8804 51.7822 18.2946C51.8183 17.9819 51.8372 17.6692 51.8403 17.3535C52.25 18.1488 52.7368 18.8227 53.3074 19.357C53.9182 19.9307 54.6197 20.3314 55.4194 20.5561C56.218 20.7837 57.1057 20.7837 58.0781 20.553C58.8068 20.3891 59.3456 20.0886 59.6915 19.6455C60.0383 19.2023 60.272 18.7347 60.393 18.2429C60.5121 17.7511 60.5481 17.2897 60.503 16.8618C60.4571 16.4338 60.4021 16.1393 60.3361 15.9723C60.25 15.7143 60.1321 15.5929 59.9833 15.6081C59.8312 15.6232 59.7465 15.7447 59.7284 15.9754C59.6585 16.3457 59.6153 16.7221 59.6035 17.1046C59.5914 17.4871 59.5425 17.8453 59.4545 18.1792C59.3665 18.5131 59.2086 18.8075 58.9776 19.0625C58.7469 19.3206 58.382 19.5058 57.8861 19.6211C57.6103 19.6939 57.3425 19.6485 57.0845 19.4906C56.8257 19.3327 56.5829 19.1142 56.358 18.8349C56.133 18.5557 55.9243 18.2429 55.7293 17.8939C55.5374 17.5447 55.3674 17.2078 55.2217 16.8799C55.0756 16.5552 54.9607 16.2667 54.8787 16.0149C54.7968 15.7629 54.7448 15.5929 54.7267 15.4988L54.6689 15.2195C54.9486 15.1619 55.1826 15.092 55.3674 15.007C55.5503 14.9234 55.7213 14.8151 55.8753 14.6852C56.0271 14.5578 56.1732 14.415 56.3131 14.2572C56.452 14.0994 56.617 13.9385 56.8079 13.7685C56.8318 13.4892 56.8777 13.1887 56.9418 12.867C57.0056 12.5482 57.0116 12.2538 56.9597 11.9897C56.9047 11.7255 56.7837 11.4008 56.5947 11.0182C56.4039 10.6357 56.1641 10.2806 55.8693 9.94972C55.5745 9.62189 55.2305 9.35473 54.8328 9.15132C54.4349 8.94793 54.0031 8.89334 53.5354 8.98739C52.8028 9.13614 52.2349 9.41848 51.8251 9.84038C51.4143 10.2624 51.1195 10.736 50.9317 11.258C50.7458 11.7802 50.6457 12.3144 50.6338 12.8578C50.6217 13.4012 50.6638 13.8748 50.7617 14.2754C50.9006 14.922 51.0804 15.5261 51.2933 16.0998C51.2864 16.285 51.2834 16.4732 51.2804 16.6675C51.2773 17.0166 51.2683 17.3687 51.2504 17.7239C51.2325 18.079 51.1893 18.4038 51.1195 18.7013C51.0496 18.9988 50.9405 19.2538 50.7887 19.4632C50.6366 19.6727 50.4207 19.8063 50.141 19.8609C49.8622 19.9186 49.6092 19.8063 49.3812 19.527C49.1565 19.2477 48.9536 18.9138 48.7795 18.5283C48.6038 18.1427 48.4608 17.7572 48.3519 17.3717C48.2419 16.9893 48.1718 16.7191 48.1388 16.5612C48.0868 16.3123 48.0359 15.9663 47.9779 15.5231C47.9199 15.0799 47.8409 14.6124 47.7441 14.1206C47.644 13.6289 47.5222 13.134 47.3732 12.6392C47.2244 12.1444 47.0294 11.7073 46.7926 11.334C46.5556 10.9606 46.2699 10.6752 45.939 10.4749C45.6082 10.2745 45.2062 10.2229 44.7414 10.317C44.3377 10.3989 44.0069 10.5628 43.748 10.8087C43.4901 11.0546 43.2802 11.3431 43.1223 11.6739C42.9613 12.0048 42.8394 12.3569 42.7515 12.7303C42.6695 13.0759 42.5935 13.4231 42.5236 13.7715C42.3776 13.2828 42.2317 12.7941 42.0948 12.3053C41.9558 11.8166 41.8369 11.3218 41.7369 10.8239C41.7219 10.745 41.7399 10.6783 41.7909 10.6175C41.8429 10.5598 41.8639 10.5052 41.8549 10.4597C41.9558 10.311 42.0618 10.0347 42.1747 9.631C42.2867 9.22719 42.3686 8.778 42.4236 8.28311C42.4786 7.78836 42.4936 7.2693 42.4746 6.73195C42.4566 6.19462 42.3716 5.71805 42.2227 5.30225C42.0737 4.88634 41.8459 4.56459 41.542 4.33381C41.2352 4.10311 40.8344 4.03942 40.3356 4.13958C39.9468 4.21845 39.6249 4.45225 39.373 4.84385C39.1202 5.23537 38.9232 5.71205 38.7863 6.27358C38.6494 6.83521 38.5584 7.44832 38.5124 8.11322C38.4675 8.778 38.4525 9.4154 38.4615 10.0286C38.4705 10.6418 38.5005 11.2064 38.5494 11.7225C38.5974 12.2538 38.6464 12.6362 38.6984 12.8852ZM53.7334 10.2472C53.7691 10.0286 53.8511 9.82828 53.9762 9.64007C54.2011 9.62789 54.4079 9.72816 54.5958 9.94065C54.7847 10.153 54.9486 10.3989 55.0847 10.6783C55.2214 10.9576 55.3344 11.2398 55.4254 11.5191C55.5134 11.8015 55.5745 12.0108 55.6014 12.1505C55.6265 12.2749 55.6383 12.454 55.6383 12.6908C55.6383 12.9246 55.6102 13.1705 55.5563 13.4224C55.5063 13.6627 55.4186 13.8934 55.2945 14.1055C55.1735 14.3088 54.9967 14.4333 54.7627 14.4788C54.6389 14.5031 54.5289 14.4606 54.4349 14.3513C54.3408 14.242 54.2589 14.1085 54.1951 13.9506C54.131 13.7928 54.079 13.638 54.04 13.4832C54.0001 13.3283 53.9732 13.213 53.958 13.1371C53.9272 12.9792 53.9182 12.8177 53.933 12.6575C53.9492 12.4935 53.9391 12.3326 53.9091 12.1778C53.8731 11.9927 53.8302 11.7893 53.7873 11.5707C53.7452 11.3522 53.7141 11.1336 53.7023 10.909C53.6841 10.6843 53.6962 10.4627 53.7334 10.2472ZM40.4575 5.35992C40.5725 5.13522 40.7824 5.04116 41.0802 5.07755C41.1992 5.10183 41.2991 5.1747 41.3811 5.29614C41.4631 5.41758 41.527 5.56323 41.579 5.73023C41.627 5.89716 41.67 6.07626 41.6999 6.26447C41.7309 6.45268 41.7609 6.62571 41.7909 6.78054C41.8829 7.23283 41.9158 7.75187 41.8888 8.33781C41.8609 8.92672 41.7279 9.43058 41.4911 9.84948C41.4021 9.81921 41.3481 9.76451 41.3231 9.68866C41.2991 9.61279 41.2722 9.53684 41.2412 9.46097C41.0772 8.97529 40.9193 8.42276 40.7614 7.79746C40.6035 7.17217 40.4665 6.58323 40.3546 6.02159C40.3056 5.8091 40.3416 5.58751 40.4575 5.35992ZM97.6344 67.5565C97.4606 67.6965 97.2697 67.8444 97.0596 68.0083C96.8498 68.1692 96.6279 68.318 96.3881 68.4549C96.1483 68.591 95.9263 68.6548 95.7162 68.6491L95.5224 68.643C95.4495 68.4302 95.4036 68.1392 95.3854 67.7655C95.3675 67.3956 95.3615 67.0948 95.3706 66.8698C95.3945 66.1782 95.2606 65.6133 94.9726 65.1736C94.6809 64.7358 94.0761 64.4999 93.1585 64.466C92.8997 64.457 92.6448 64.4999 92.3898 64.5969C92.1341 64.6937 91.8882 64.8117 91.6512 64.9577C91.4114 65.1035 91.1834 65.2646 90.9675 65.4404C90.7517 65.6194 90.5509 65.7772 90.3689 65.9142L90.3359 65.5253C90.351 65.1065 90.3898 64.6819 90.4538 64.2471C90.5179 63.8135 90.5479 63.3883 90.5479 62.9695C90.5388 62.7267 90.6397 62.4442 90.8427 62.1225C91.0465 61.8007 91.2744 61.4608 91.5263 61.1055C91.7793 60.7505 92.0101 60.3982 92.2221 60.0432C92.4349 59.6879 92.548 59.3419 92.5598 59.0018C92.5689 58.7592 92.548 58.4889 92.493 58.1883C92.438 57.8878 92.3439 57.6117 92.21 57.3567C92.075 57.1021 91.8852 56.8801 91.6542 56.7069C91.4205 56.5279 91.1345 56.4338 90.7976 56.4217C90.5388 56.4127 90.354 56.4852 90.2349 56.6434C90.016 56.8617 89.7762 57.0743 89.5122 57.2839C89.2474 57.4931 88.9985 57.7118 88.7645 57.9455C88.4967 58.2249 88.2269 58.6831 87.956 59.3208C87.6832 59.9552 87.4332 60.635 87.2053 61.3605C86.9855 62.0587 86.7985 62.7668 86.6467 63.4823C86.5007 64.1721 86.4218 64.6998 86.4067 65.0697C86.3858 65.6342 86.3489 66.333 86.2939 67.1707C86.2397 68.0083 86.2147 68.8649 86.2238 69.7455C86.2298 70.507 86.2758 71.2387 86.3517 71.9425C86.2667 71.9823 86.1968 72.0733 86.1479 72.2221C85.99 72.5711 85.86 72.9319 85.756 73.3087C85.6532 73.6854 85.5192 74.0253 85.3553 74.3352C85.1934 74.6402 84.9604 74.902 84.6744 75.097C84.3857 75.2969 83.982 75.3937 83.4653 75.3907C83.1732 75.3967 82.9213 75.2909 82.7024 75.0728C82.4835 74.8539 82.2957 74.5841 82.1409 74.2533C81.9827 73.9255 81.8518 73.5636 81.7418 73.1747C81.6401 72.804 81.5532 72.43 81.4811 72.0522C81.414 71.6936 81.3681 71.3806 81.3442 71.1166C81.3203 70.8499 81.3112 70.6681 81.3172 70.571L81.326 70.2823C81.6181 70.2911 81.8639 70.2762 82.0677 70.2372C82.2707 70.1943 82.4626 70.1302 82.6447 70.0392C82.8245 69.9484 83.0033 69.8423 83.1762 69.7205C83.3503 69.5994 83.553 69.4776 83.784 69.3566C83.875 69.0858 83.9908 68.8008 84.1308 68.497C84.2707 68.1972 84.3466 67.9082 84.3557 67.6354C84.3648 67.3615 84.3216 67.0128 84.2248 66.591C84.1277 66.1691 83.9729 65.7594 83.7601 65.3645C83.5472 64.9696 83.2711 64.6239 82.9243 64.3291C82.5806 64.0351 82.1648 63.877 81.6819 63.8619C80.9223 63.8346 80.2926 63.9804 79.7888 64.3019C79.2842 64.6239 78.8774 65.0188 78.5705 65.4923C78.2667 65.9571 78.0398 66.4669 77.8987 67.0037C77.8049 67.3555 77.7469 67.6833 77.7158 67.9844C77.6309 67.9753 77.5398 67.9693 77.44 67.9662C77.1972 67.9572 76.9593 67.9423 76.7283 67.9143C76.4946 67.8903 76.2916 67.8532 76.1145 67.8084C75.9388 67.7625 75.7988 67.7083 75.6957 67.6475C75.5917 67.5865 75.5439 67.5254 75.5439 67.4594C75.7287 66.8368 75.8929 66.1452 76.0416 65.3853C76.1907 64.6269 76.3246 63.8467 76.4434 63.0545C76.5614 62.2592 76.6524 61.479 76.7223 60.7049C76.7924 59.9338 76.8383 59.2265 76.8592 58.5799C76.8653 58.4523 76.8504 58.3099 76.8144 58.1551C76.7803 58.0002 76.7223 57.8545 76.6494 57.7148C76.5735 57.5751 76.4734 57.4538 76.3485 57.3537C76.2245 57.2533 76.0727 57.1989 75.8956 57.1928C75.589 57.1805 75.3071 57.302 75.0481 57.5479C74.7874 57.7967 74.5564 58.1215 74.3465 58.5252C74.1364 58.9289 73.9547 59.3783 73.8026 59.8733C73.6478 60.368 73.5138 60.8506 73.3989 61.3211C73.2831 61.7917 73.2009 62.2259 73.1462 62.6172C73.092 63.0121 73.0612 63.3033 73.0551 63.4977C73.0221 64.433 73.0821 65.1797 73.2399 65.7412C73.3989 66.303 73.5749 66.734 73.7756 67.0307C73.9725 67.3285 74.2495 67.5713 74.5954 67.7625C74.5863 68.0512 74.5135 68.409 74.3864 68.8308C74.2585 69.2535 74.0916 69.6996 73.8906 70.1673C73.6868 70.634 73.4619 71.0987 73.21 71.5574C72.9581 72.0153 72.7053 72.4102 72.4534 72.738C72.1985 73.0688 71.9557 73.3177 71.7247 73.4846C71.4929 73.6546 71.2899 73.6796 71.1169 73.5605C70.6852 73.4486 70.3263 73.1937 70.0436 72.7961C69.7587 72.3981 69.5428 71.9513 69.3908 71.4535C69.239 70.9557 69.135 70.4492 69.0839 69.9303C69.0289 69.4105 69.008 68.9826 69.0201 68.646C69.0349 68.1972 69.102 67.7294 69.2178 67.2496C69.3327 66.7697 69.4548 66.2901 69.5846 65.8113C69.7155 65.3315 69.8376 64.8576 69.9526 64.3841C70.0684 63.9136 70.1324 63.443 70.1506 62.9755C70.1564 62.7811 70.1715 62.5201 70.1894 62.1893C70.2114 61.8585 70.2174 61.5246 70.2144 61.1875C70.2114 60.8476 70.1806 60.5531 70.1256 60.3012C70.0714 60.0493 69.9776 59.9126 69.8495 59.8914C69.3968 59.9065 69.017 60.0704 68.7071 60.3831C68.3972 60.6958 68.1384 61.0874 67.9385 61.5639C67.7347 62.0405 67.5736 62.5718 67.4578 63.1545C67.3398 63.7406 67.2458 64.3079 67.1789 64.8637C67.1088 65.4164 67.0659 65.9323 67.0508 66.4059C67.0329 66.8827 67.0208 67.2405 67.0109 67.4806C66.993 67.9484 66.9719 68.4181 66.9479 68.8919C66.9229 69.3657 66.8531 69.8233 66.7411 70.2641C66.6281 70.7038 66.4403 71.1227 66.1755 71.5266C65.9115 71.9273 65.5317 72.2892 65.0328 72.6102C64.611 72.6591 64.2953 72.4622 64.0855 72.0183C63.8754 71.5756 63.7445 70.9648 63.6906 70.1913C63.6386 69.4136 63.6416 68.5281 63.7024 67.5326C63.7634 66.5329 63.8514 65.5044 63.9724 64.4449C64.0912 63.3853 64.2133 62.3502 64.3401 61.3363C64.4652 60.3254 64.5711 59.4179 64.6561 58.6135C64.7419 57.8088 64.7809 57.1623 64.7749 56.6706C64.7691 56.1789 64.6841 55.93 64.5233 55.924L61.6424 55.8693C61.3896 56.1333 61.1617 56.5369 60.9557 57.0773C60.7489 57.6177 60.5759 58.2279 60.4302 58.9077C60.2841 59.5878 60.1563 60.3102 60.0501 61.0723C59.9404 61.8343 59.8494 62.5779 59.7765 63.3003C59.7003 64.0227 59.6464 64.6877 59.6065 65.2886C59.5664 65.8933 59.5425 66.3781 59.5304 66.7488C59.5095 67.3285 59.5854 68.0333 59.7553 68.8619C59.9253 69.6905 60.2052 70.4951 60.588 71.2748C60.9708 72.0552 61.4595 72.7259 62.0524 73.2878C62.645 73.8496 63.3526 74.1463 64.1762 74.1743C64.7721 74.1953 65.2707 74.1493 65.6717 74.0344C66.0723 73.9183 66.4073 73.7646 66.6801 73.5636C66.954 73.3637 67.1759 73.1417 67.3459 72.8989C67.5158 72.6561 67.6706 72.4133 67.8076 72.1762C67.8956 72.4072 68.0325 72.6891 68.2113 73.0268C68.3942 73.3637 68.6312 73.6945 68.926 74.0192C69.2208 74.3443 69.5668 74.6262 69.9617 74.866C70.3574 75.1058 70.8191 75.2367 71.354 75.2548C71.6117 75.2639 71.8795 75.1327 72.1556 74.8599C72.4323 74.5871 72.7023 74.2343 72.9702 73.8004C73.2369 73.3667 73.4869 72.881 73.7267 72.3401C73.9637 71.8006 74.1857 71.2657 74.3925 70.7319C74.5954 70.1973 74.7753 69.7023 74.9301 69.2375C75.0852 68.7769 75.1971 68.4002 75.273 68.1153C75.7347 68.2762 76.1027 68.3699 76.3766 68.3971C76.6494 68.4241 76.9472 68.4431 77.2701 68.4549C77.434 68.461 77.58 68.461 77.7068 68.4519C77.6859 69.5505 77.7799 70.5771 77.9928 71.5266C78.2086 72.4861 78.5485 73.3207 79.0171 74.0313C79.4849 74.7411 80.0839 75.3027 80.8214 75.7185C81.557 76.1313 82.4315 76.3413 83.4501 76.3474C84.2097 76.3592 84.8114 76.1862 85.2613 75.8315C85.7112 75.4756 86.0508 75.0689 86.2848 74.6111C86.4666 74.2602 86.5997 73.8864 86.6797 73.4995C86.7686 73.7646 86.8687 74.0105 86.9894 74.2252C87.5061 75.1479 88.0531 75.6186 88.6336 75.6395C89.2144 75.6615 89.6552 75.2727 89.9591 74.4771L90.2558 74.924C90.384 74.9749 90.5179 75.0269 90.6637 75.0728C90.8067 75.1179 90.9436 75.1418 91.0734 75.1479C91.5412 75.1668 91.9611 75.0478 92.3348 74.7961C92.7088 74.5442 93.0366 74.2161 93.3254 73.8155C93.6144 73.4148 93.8693 72.9778 94.0882 72.501C94.3071 72.0244 94.501 71.5726 94.6718 71.1447C94.8417 70.716 94.9996 70.3461 95.1486 70.0362C95.2974 69.7265 95.4465 69.5354 95.5925 69.4595C95.9052 69.3107 96.1782 69.1837 96.4191 69.0767C96.6559 68.9738 96.8718 68.8559 97.0626 68.725C97.2546 68.5941 97.4276 68.4401 97.5884 68.2602C97.7493 68.0812 97.9044 67.8474 98.0623 67.5656L98.0471 67.3225C97.9382 67.3436 97.8104 67.4195 97.6344 67.5565ZM90.7187 60.013C90.7668 59.7974 90.7946 59.5757 90.8036 59.351C90.8097 59.1902 90.8127 59.0232 90.8097 58.8563C90.8067 58.6864 90.8188 58.5191 90.8397 58.3492C90.8606 58.1792 90.9125 58.0244 90.9887 57.8817C91.0676 57.739 91.1955 57.6147 91.3773 57.5085C91.4084 57.5418 91.4474 57.5721 91.4964 57.5965C91.5442 57.6237 91.5753 57.6603 91.5904 57.7087C91.6842 57.7937 91.7513 57.9697 91.7881 58.237C91.8272 58.504 91.842 58.7015 91.8393 58.8321C91.8332 59.0081 91.7912 59.2083 91.7092 59.433C91.6273 59.6577 91.5354 59.8733 91.4323 60.0886C91.3294 60.3012 91.2104 60.5137 91.0825 60.7169C90.9557 60.9235 90.8397 61.1025 90.7368 61.2603C90.6606 61.0965 90.6298 60.9023 90.6359 60.6776C90.6428 60.4499 90.6697 60.2283 90.7187 60.013ZM75.1152 66.5239C75.0571 66.8129 75.012 66.9309 74.9812 66.8827C74.7472 66.6638 74.5803 66.3569 74.4835 65.9563C74.3834 65.5583 74.3375 65.1125 74.3375 64.6208C74.3375 64.1292 74.3765 63.619 74.4524 63.0877C74.5283 62.5597 74.6235 62.0466 74.7384 61.5488C74.8542 61.0541 74.9752 60.6048 75.1031 60.2071C75.2309 59.8095 75.3459 59.4998 75.4529 59.2751C75.611 58.9262 75.7688 58.7592 75.9297 58.7713C76.0906 58.7864 76.1486 59.0081 76.0997 59.4421C76.0757 59.6516 76.0356 59.9885 75.9787 60.453C75.9206 60.9205 75.8568 61.4364 75.7897 62.0073C75.7199 62.5779 75.6437 63.1606 75.556 63.7527C75.471 64.348 75.3891 64.8846 75.3159 65.3645C75.243 65.8504 75.1762 66.2359 75.1152 66.5239ZM81.1564 68.9067C81.1283 68.7368 81.1162 68.5698 81.1132 68.409C81.1102 68.2481 81.1102 68.1271 81.1132 68.0452C81.1192 67.8843 81.1503 67.7234 81.2042 67.5656C81.2592 67.4074 81.2892 67.2466 81.2961 67.0857C81.3021 66.8918 81.3112 66.682 81.3203 66.457C81.3291 66.2332 81.3533 66.0082 81.3931 65.7833C81.4322 65.5583 81.496 65.3436 81.587 65.1365C81.6761 64.9308 81.8029 64.7487 81.9698 64.5939C82.1948 64.633 82.3746 64.7817 82.5116 65.0366C82.6474 65.2916 82.7486 65.5743 82.8185 65.8831C82.8875 66.193 82.9334 66.4969 82.9543 66.7947C82.9763 67.0947 82.9854 67.3167 82.9793 67.4594C82.9733 67.5895 82.9425 67.7682 82.8875 67.9992C82.8306 68.2302 82.7456 68.467 82.6326 68.7038C82.5206 68.9408 82.3776 69.1468 82.2107 69.3165C82.0427 69.4895 81.837 69.5684 81.5961 69.5596C81.466 69.5535 81.3681 69.4864 81.3021 69.3566C81.2292 69.2288 81.1833 69.0767 81.1564 68.9067ZM93.4464 71.1928C93.3224 71.4876 93.1706 71.8033 92.9877 72.1432C92.8056 72.4831 92.6178 72.8079 92.4198 73.1148C92.2221 73.4206 92.073 73.6307 91.9732 73.7396C91.8882 73.8185 91.8033 73.8795 91.7122 73.9255C91.6204 73.9703 91.5112 73.9915 91.3833 73.9854C91.3014 73.9824 91.2315 73.9403 91.1716 73.8584C91.1105 73.7764 91.0795 73.7005 91.0825 73.6365C91.1075 72.9748 91.3624 72.3682 91.8511 71.8154C92.3409 71.2596 92.9277 70.8499 93.6144 70.5859C93.6262 70.6951 93.5712 70.8988 93.4464 71.1928ZM94.1091 68.3482C94.094 68.7519 94.0181 69.1047 93.8781 69.4045C93.3675 69.7084 92.9665 69.9454 92.6778 70.1123C92.3898 70.2793 92.1459 70.4492 91.9463 70.6189C91.7452 70.7888 91.5472 70.9929 91.3564 71.2266C91.1614 71.4595 90.9037 71.8006 90.5817 72.2373C90.5237 72.0093 90.4808 71.7725 90.4508 71.5297C90.4208 71.2866 90.4079 71.0347 90.4178 70.78C90.4299 70.4101 90.5179 69.9424 90.6727 69.3745C90.8306 68.8069 91.0525 68.2511 91.3385 67.7052C91.6234 67.1586 91.9672 66.679 92.3709 66.2662C92.7726 65.8531 93.2256 65.6073 93.7294 65.5284C93.8693 65.6623 93.9782 65.8562 94.061 66.1081C94.1402 66.36 94.176 66.5758 94.1702 66.7518L94.1091 68.3482Z" fill="black"/>
<path d="M128.668 29.7035C129.054 29.0053 129.202 28.6442 129.427 28.3406C130.39 27.0413 131.435 25.7969 132.341 24.4579C133.53 22.7004 134.675 20.9064 135.719 19.0607C136.142 18.314 136.726 17.3911 135.741 16.4258C132.362 18.8573 128.543 19.5403 124.526 19.6406C120.992 19.7285 117.458 19.9471 113.927 20.1687C109.208 20.4662 105.152 22.2238 101.816 25.6448C101.387 26.0851 100.466 26.3796 99.8647 26.2671C95.2496 25.3959 90.6819 24.2547 86.052 23.5017C81.4333 22.7491 76.7476 21.8231 72.1048 21.9051C63.0529 22.0599 54.0552 23.2559 45.2835 25.6055C39.6771 27.1081 34.0008 28.5257 28.6193 30.6506C21.9565 33.2824 15.5145 36.5276 10.4859 41.9006C10.197 42.2102 9.88419 42.7262 9.93916 43.0936C10.337 45.8378 10.7528 48.582 11.3155 51.2957C11.5764 52.5434 11.3975 53.4478 10.6009 54.4863C8.91764 56.6777 7.37138 58.9819 5.88208 61.3131C3.60016 64.8887 0.804513 67.8493 -3.23059 69.4427C-4.51896 69.9522 -5.81336 70.453 -7.56055 71.1367C-3.18461 73.8295 1.02339 73.1978 5.45729 72.0073C5.55426 76.3972 4.88254 80.3734 1.10833 83.394C1.98094 83.7248 2.7156 83.9957 3.37829 83.8708C5.2104 83.5309 7.13449 83.2969 8.80272 82.5415C15.3416 79.5817 21.3238 75.8296 26.2584 70.4591C29.1061 67.3576 31.464 64.0362 33.0412 60.1567C33.2501 59.6436 33.2531 59.0455 33.399 58.226C41.5582 55.2543 49.959 53.02 58.8569 53.0532C73.7119 53.108 88.4758 53.964 103.086 56.9662C106.589 57.6856 110.281 57.5338 113.891 57.6097C114.38 57.6188 115.231 56.6687 115.331 56.0678C115.754 53.5026 115.875 50.8859 116.261 48.3117C116.626 45.8832 116.732 45.9684 119.13 45.4157C127.474 43.4852 134.489 39.5329 139.075 32.0135C139.366 31.537 139.473 30.9482 139.561 30.7054C135.845 30.3685 132.408 30.0497 128.668 29.7035ZM3.10841 82.8112C3.28133 82.4895 3.38126 82.1405 3.60616 81.9156C5.48427 80.0547 6.13096 77.7295 6.27091 75.1797C6.33188 74.0715 6.53279 72.9728 6.61774 71.8654C6.64774 71.4887 6.51777 71.0998 6.4598 70.7178C6.04301 70.7929 5.55723 70.7569 5.21639 70.964C2.10787 72.864 -1.22455 72.2414 -4.53698 71.8863C-4.75288 71.8624 -4.94678 71.6644 -5.43356 71.3886C-4.78285 71.0699 -4.37904 70.824 -3.94424 70.6631C1.17832 68.7409 4.76663 65.1956 7.38037 60.445C8.6048 58.2199 10.267 56.2377 11.7283 54.1463C11.8982 54.1705 12.0691 54.1948 12.2391 54.2159C12.449 54.7777 12.6579 55.3363 12.8708 55.8978L12.8438 55.8582C12.8408 55.8522 12.8378 55.8491 12.8378 55.8491C12.8038 55.8975 12.7708 55.9492 12.7368 55.9979C12.7828 55.9677 12.8288 55.9341 12.8708 55.9008C13.5025 56.8843 14.1322 57.8679 14.6389 58.6602C13.8343 59.8683 13.1896 60.8396 12.5429 61.8111C12.6609 61.9082 12.7798 62.0053 12.8988 62.1057C13.5335 61.2493 14.1712 60.3902 14.9708 59.3128C16.4841 62.1904 18.65 64.507 18.9539 67.7454C23.0649 68.5899 26.1795 66.3459 29.376 64.2699C29.4619 69.6275 9.06059 84.0257 3.10841 82.8112ZM116.604 38.261C116.006 43.9708 114.942 49.6322 113.991 55.3027C113.909 55.7974 113.25 56.5716 112.845 56.5807C110.345 56.6354 107.814 56.7203 105.343 56.4016C96.687 55.2906 88.0782 53.6362 79.3942 52.9259C71.1632 52.2549 62.8431 52.1884 54.581 52.4675C48.3918 52.68 42.2998 54.225 36.4686 56.4228C32.7463 57.8258 29.0941 59.406 25.5238 61.1583C23.3778 62.2088 21.4607 63.7295 19.3517 65.0985C16.703 59.4525 12.43 54.5468 11.4974 48.0779C11.3035 46.7302 11.0057 45.3945 10.8377 44.0437C10.7778 43.5399 10.9537 43.0025 11.0596 42.1616C11.5314 42.6777 11.7623 42.9327 12.1141 43.3212C12.2021 43.1543 12.2541 43.0086 12.345 42.8964C13.0197 42.0826 13.6974 41.2692 14.3871 40.4678C14.8488 39.9305 15.8544 39.7666 15.5325 38.6768C15.4905 38.534 15.9883 38.1941 16.2712 37.9967C22.5362 33.6709 29.4129 30.6963 36.7605 28.7655C41.6491 27.4815 46.4619 25.7936 51.4215 24.9378C57.9354 23.8174 64.5472 23.1558 71.1442 22.6426C76.7264 22.2087 82.2259 23.3015 87.6714 24.4975C93.4475 25.7633 99.2388 26.9714 105 28.3101C108.151 29.0419 111.241 28.9233 114.286 28.0098C115.507 27.6424 116.109 28.037 116.191 29.1024C116.425 32.1532 116.92 35.2558 116.604 38.261ZM117.051 44.6993C117.203 43.5003 117.352 42.3346 117.51 41.0932C121.216 41.2692 124.505 40.3768 127.442 38.3245C125.422 39.0046 123.404 39.6847 121.384 40.3584C121.242 40.4071 121.089 40.4252 120.938 40.4497C117.774 40.9384 117.385 40.5528 117.771 37.4382C118.148 34.3997 117.963 31.4248 117.045 28.4528C116.79 27.6303 117.458 26.5254 117.616 25.897C115.872 25.5145 113.906 25.0835 111.493 24.5552C113.481 22.5791 115.966 22.7309 118.017 21.8626C115.465 22.16 112.958 22.5761 110.816 24.1909C110.518 24.4155 110.126 24.6037 109.762 24.6372C107.878 24.8132 105.988 24.9347 103.861 24.7524C105.462 23.8023 106.978 22.6489 108.682 21.9476C112.305 20.4571 116.194 20.5179 120.041 20.4055C122.819 20.3235 125.616 20.2993 128.364 19.941C130.481 19.6649 132.542 18.915 135.045 18.2684C133.73 20.4055 132.599 22.4273 131.287 24.3185C129.974 26.2127 128.476 27.9823 126.778 30.168C130.728 30.6627 134.285 31.1091 137.841 31.5524C137.057 36.4091 124.833 44.2532 117.051 44.6993Z" fill="black"/>
<path d="M18.9598 67.7845C18.9598 67.7727 18.9568 67.7606 18.9538 67.7487C18.9408 67.7446 18.9278 67.7427 18.9138 67.7427L18.9598 67.7845ZM62.3413 36.1994C62.0833 34.3505 62.0523 32.4715 61.7646 30.629C61.6915 30.1705 61.0199 29.8034 60.625 29.3934C60.3052 29.7578 59.8624 30.0735 59.6974 30.4983C59.4637 31.0995 59.4395 31.7796 59.3237 32.4231C59.0779 33.7799 58.829 35.1398 58.5581 36.6333C56.8718 34.721 55.3376 33.0605 53.9002 31.3181C53.2256 30.5014 52.6418 30.4469 51.6853 30.8506C50.6739 31.2785 50.9777 31.9129 51.1045 32.5809C51.5632 35.0094 52.0651 37.4256 52.4938 39.8602C52.9187 42.2947 53.2776 44.7414 53.6573 47.182C53.8064 48.1443 54.3099 49.049 55.2856 48.6239C55.9662 48.3266 57.4094 48.1718 57.1146 46.8694C56.4739 44.022 55.6533 41.217 54.9548 38.3818C54.52 36.6182 54.168 34.8332 53.7814 33.0575C53.9461 32.9816 54.1103 32.9027 54.2742 32.8268C55.4894 34.5296 56.6928 36.2417 57.9352 37.9233C58.2361 38.3303 58.6769 38.6339 59.0537 38.9829C59.2478 38.5245 59.5245 38.0845 59.6215 37.6079C59.9383 36.0291 60.1842 34.4355 60.46 32.851L60.8428 32.8966C60.8709 33.4793 60.85 34.0714 60.9319 34.6481C61.4695 38.3878 62.0074 42.1278 62.6122 45.8554C62.6729 46.2319 63.1888 46.5325 63.4957 46.8663C63.6057 46.4412 63.8546 45.9982 63.7966 45.5975C63.3349 42.4647 62.7791 39.341 62.3413 36.1994ZM27.9665 40.0241C27.9145 39.6446 27.4858 39.3168 27.2339 38.9648C27.1149 39.3443 26.866 39.7356 26.903 40.0969C27.1219 42.1581 27.4038 44.2101 27.6806 46.2652C27.9115 47.9713 28.1664 49.6713 28.4093 51.3741C27.1149 50.2299 26.1614 48.9429 25.1248 47.7254C24.8 47.3459 24.2563 47.1518 23.8125 46.8724C23.6546 47.4097 23.3777 47.9471 23.3657 48.4905C23.3417 49.5861 23.4597 50.685 23.5176 51.7839C23.3957 51.8174 23.2748 51.8507 23.1528 51.8873C23.0469 51.7415 22.9039 51.6079 22.84 51.444C21.6275 48.2444 20.4331 45.042 19.2117 41.8454C19.0657 41.4629 18.8448 40.9134 18.541 40.8224C17.7784 40.5886 15.7903 43.2055 16.1131 43.9643C16.8598 45.7278 17.6224 47.4887 18.4071 49.2401C19.3336 51.3106 20.2662 53.3808 21.2477 55.4268C21.7035 56.38 22.4691 57.321 23.5696 56.8565C24.0614 56.65 24.3113 55.4571 24.3592 54.692C24.4692 52.8586 24.3962 51.0131 24.3962 49.1703C25.0069 49.3859 25.3018 49.6955 25.5626 50.0324C26.7081 51.5108 27.8146 53.0195 29.002 54.4613C29.2789 54.7954 29.8196 54.9137 30.4513 55.2448C29.8496 52.3639 29.2549 49.9686 28.8651 47.5404C28.4733 45.045 28.3034 42.5224 27.9665 40.0241ZM40.7705 38.0328C41.1753 37.884 41.4971 37.5166 41.8549 37.2526C41.773 37.0948 41.688 36.9369 41.6061 36.7791C40.7824 37.1069 39.9598 37.4347 39.1422 37.7627C37.9388 36.7364 38.9963 34.6662 37.3161 33.8649C37.2821 35.1733 37.553 36.3844 37.7079 37.6109C37.7689 38.1057 37.7469 38.7703 37.468 39.1166C36.5564 40.2487 35.5079 41.2687 34.2166 42.647C33.8027 40.9591 33.3839 39.5777 33.1351 38.1664C32.8122 36.3481 32.0256 35.9109 30.6762 37.1069C30.2844 37.4531 30.3214 38.4183 30.3634 39.0891C30.5403 42.0459 32.8552 44.8082 31.16 47.941C31.135 47.9864 31.248 48.108 31.3389 48.2749C31.7127 48.1839 32.1016 48.0898 32.5084 47.9894C32.9672 49.483 33.338 50.9006 33.8607 52.2607C34.0216 52.6765 34.5964 52.9345 34.9822 53.2653C35.45 52.5946 37.0392 52.8283 36.4615 51.2892C35.9147 49.8322 35.5169 48.3172 35.0791 46.8237C34.3075 44.192 35.6019 41.3779 38.3036 39.9968C38.4705 40.5342 38.6345 41.044 38.7894 41.5572C39.652 44.4015 40.5066 47.2458 41.3782 50.0871C41.6 50.8126 41.9349 51.3862 42.7735 50.8431C41.731 47.3611 40.7824 43.9733 39.686 40.6313C39.2512 39.3137 39.4431 38.5275 40.7705 38.0328ZM100.664 31.1784C100.615 30.2555 99.6547 29.5878 98.756 30.0795C98.2541 30.3556 97.8135 30.9933 97.6285 31.5609C95.9114 36.8701 94.2432 42.1946 92.6119 47.531C92.514 47.8467 92.7269 48.4721 92.9947 48.645C93.6784 49.0914 95.9383 47.8984 96.1094 47.088C96.4949 45.2667 96.8689 43.439 97.2666 41.6207C97.4065 40.9833 97.2666 40.1607 98.4422 40.3035C99.5367 40.4368 100.059 40.8405 100.083 41.9881C100.129 44.2071 100.238 46.423 100.393 48.6393C100.427 49.134 100.755 49.6106 100.946 50.0962C101.18 50.0112 101.415 49.9263 101.649 49.8443C101.579 48.2477 101.521 46.6538 101.436 45.0571C101.177 40.4278 100.907 35.8047 100.664 31.1784ZM98.1512 37.617C98.4642 36.5181 98.795 35.4222 99.4877 34.3445C99.6126 36.0657 99.7396 37.7839 99.8675 39.5324C97.7893 39.4413 97.6736 39.2956 98.1512 37.617ZM109.737 33.9317C109.871 33.522 109.916 33.0847 110.002 32.6629C109.083 32.4869 108.166 32.1742 107.254 32.1954C106.877 32.2044 106.328 32.8752 106.182 33.3457C105.694 34.9344 105.287 36.5461 104.96 38.1755C104.225 41.8272 103.502 45.482 102.882 49.1552C102.538 51.1921 102.8 51.3802 104.836 51.6414C106.589 51.8658 108.33 52.1543 110.078 52.4277C110.645 52.5157 111.207 52.6463 111.773 52.7585L111.974 52.1059C110.204 51.2408 108.141 51.274 106.158 50.6517C107.011 44.951 107.978 39.3594 109.737 33.9317ZM88.339 28.8258C88.8166 27.915 89.6213 27.9029 90.0891 28.7771C90.4999 29.5452 90.5728 30.4893 90.8307 31.3423C90.9556 31.7581 91.1657 32.1527 91.3354 32.5564C91.5573 32.4869 91.7792 32.42 92.0042 32.3502C91.7484 31.1086 91.6392 29.8125 91.1987 28.6407C90.7397 27.4263 88.4149 26.722 87.6402 27.5509C86.4918 28.7771 85.2345 30.0916 84.6537 31.6093C83.854 33.698 83.3744 35.9959 83.2432 38.233C83.0675 41.2717 83.5471 44.2648 85.6352 46.7632C86.8507 48.2171 88.0931 48.5359 89.3114 47.1122C90.3869 45.8554 91.0375 44.2252 91.7732 42.7105C91.8881 42.4707 91.4564 41.9639 91.1437 41.2959C90.0291 43.5727 89.962 45.9646 87.5822 46.9332C86.1819 41.6785 86.076 36.594 87.3303 31.5032C87.5563 30.5731 87.8951 29.6742 88.339 28.8258ZM80.5727 45.4306C79.0203 45.8827 78.8955 44.8962 78.8105 43.8004C78.6216 41.2838 78.3936 38.7703 78.2236 36.2508C78.0419 33.5492 77.9079 30.8476 77.7589 28.24C78.6796 27.9546 79.3212 27.7544 80.2449 27.4659C78.0207 26.6613 73.5838 27.3474 72.7723 28.5222H74.9943C75.252 33.2791 75.5319 37.9569 75.7418 42.6377C75.8078 44.1524 76.4796 45.8736 74.3987 46.8875C74.5106 47.0151 74.6203 47.1427 74.7322 47.27L81.4263 46.068C81.4362 45.9646 81.4422 45.8585 81.4513 45.7553C81.1593 45.6368 80.8155 45.3607 80.5727 45.4306ZM48.9955 47.6163C47.9959 42.6682 47.0026 37.7537 46.0299 32.948C46.8236 32.508 47.3065 32.2407 47.7902 31.9737C47.7201 31.7917 47.6502 31.6124 47.5801 31.4303C45.3493 32.1497 43.1193 32.8691 40.8894 33.5855C40.8834 33.6889 40.8804 33.792 40.8744 33.8951C41.3602 33.9257 41.8919 34.0896 42.3267 33.9529C43.1433 33.698 43.4322 33.9925 43.5781 34.7361C44.4107 38.9345 45.3042 43.1203 46.0759 47.3278C46.2579 48.3233 46.0429 49.395 46.006 50.6184C47.5224 49.7745 49.2573 48.8092 50.9956 47.844L50.9137 47.5098C50.367 47.5434 49.8192 47.5736 48.9955 47.6163ZM68.9622 33.1059C68.3544 31.7034 67.9936 30.3042 68.8321 28.7771C69.199 28.9655 69.5218 29.0199 69.6219 29.1992C70.1296 30.0946 70.5544 31.0357 71.0621 31.9311C71.223 32.2165 71.5508 32.4046 71.8038 32.6384C71.8948 32.3348 72.1285 31.9888 72.0526 31.7339C71.8428 31.0145 71.564 30.2981 71.2051 29.6423C70.5302 28.407 68.6344 27.6023 67.6257 28.0517C66.1674 28.7012 65.3528 30.2646 65.9394 31.8189C66.3552 32.9208 66.999 34.0197 67.8017 34.8758C69.9866 37.21 70.6672 40.0788 70.7942 43.0749C70.8341 44.0129 70.1356 45.6673 69.5369 45.7856C68.6283 45.9646 67.4038 45.2331 66.5282 44.5957C66.1093 44.2921 66.1484 43.3208 66.0274 42.6437C65.9325 42.1127 65.9116 41.5663 65.8566 41.0289C64.632 42.5285 64.8361 44.4348 65.9177 45.479C67.3457 46.8633 69.9167 47.2398 71.567 46.3078C72.9791 45.5095 73.6149 44.2252 72.9343 42.4102C71.7518 39.256 70.3025 36.2024 68.9622 33.1059ZM124.732 41.3779C122.602 41.9911 120.269 42.6591 117.996 43.3117C119.275 44.1768 123.62 42.9231 124.732 41.3779ZM122.9 37.2617L118.685 38.0358C120.22 38.6733 121.554 37.9871 122.9 37.2617ZM24.6391 68.2185C21.7125 70.8321 18.7869 73.4429 15.8603 76.0568C19.6924 74.5085 22.1653 71.3669 24.6391 68.2185ZM11.7552 56.7746C10.6217 58.3044 9.54926 59.8829 8.44678 61.4342C7.81107 62.3266 7.15838 63.2068 6.51367 64.0934C6.70859 64.2243 6.89952 64.3541 7.09442 64.4881C8.97553 61.6589 10.8586 58.8297 12.7397 55.9974C12.3879 56.2403 11.9951 56.4528 11.7552 56.7746ZM20.537 69.2181C18.3341 71.093 16.2461 72.8723 13.8522 74.9122C16.8728 73.595 19.0697 71.9436 20.537 69.2181ZM12.5608 58.3591C11.8342 59.5826 11.1115 60.8058 10.3848 62.029C10.5578 62.1233 10.7287 62.2204 10.9016 62.3145C11.5853 61.0668 12.266 59.8194 12.9496 58.5747C12.8217 58.5049 12.6918 58.432 12.5608 58.3591ZM18.9598 67.7875L18.9138 67.7427C18.8958 67.7757 18.8748 67.8117 18.8568 67.8455C18.8898 67.8246 18.9238 67.8057 18.9598 67.7875ZM16.49 70.8111C16.6479 70.917 16.8058 71.024 16.9637 71.1329C17.5954 70.0376 18.2241 68.9411 18.8568 67.8455C17.6104 68.5072 17.1397 69.7246 16.49 70.8111Z" fill="black"/>
</g>
</g>
<defs>
<clipPath id="clip0_2056_25609">
<rect width="132" height="88" fill="white"/>
</clipPath>
</defs>
</svg>
