<svg width="132" height="88" viewBox="0 0 132 88" fill="none" xmlns="http://www.w3.org/2000/svg">
<path d="M111.197 32.3748L73.0745 15.1332C72.6107 14.9504 72.0948 14.9504 71.6309 15.1332L58.9239 20.8696C58.6224 21.0074 58.3675 21.2302 58.1906 21.5106C58.0137 21.791 57.9224 22.117 57.9278 22.4485V32.8205L20.801 49.6165C20.4993 49.7541 20.2444 49.9769 20.0674 50.2573C19.8905 50.5378 19.7993 50.8638 19.8049 51.1954V65.5517C19.8109 65.881 19.9069 66.2024 20.0825 66.481C20.258 66.7596 20.5065 66.9849 20.801 67.1324L33.508 72.867C33.9714 73.0523 34.4883 73.0523 34.9516 72.867L85.0616 50.1993L97.0468 55.6272C97.5106 55.8099 98.0266 55.8099 98.4904 55.6272L111.197 49.8908C111.499 49.753 111.755 49.53 111.931 49.2492C112.108 48.9683 112.2 48.6419 112.193 48.3101V33.9537C112.192 33.6237 112.098 33.3006 111.922 33.0215C111.746 32.7423 111.495 32.5182 111.197 32.3748ZM60.3314 23.5131L70.671 28.1849L60.3314 32.8602V23.5131ZM33.5423 70.2235L22.2085 65.106V52.26L33.5423 57.3775V70.2235ZM84.3741 47.8643L34.9173 70.2235V57.3775L84.3741 35.0256V47.8643ZM97.0811 52.9818L85.7473 47.8643V35.0256L97.0811 40.1412V52.9818ZM97.7686 38.9341L85.3358 33.3023C85.2541 33.2684 85.1664 33.2509 85.0778 33.2509C84.9892 33.2509 84.9016 33.2684 84.8198 33.3023C84.8198 33.3023 84.4426 33.4828 84.4083 33.4828L34.2298 56.1757L23.2045 51.1954L59.9543 34.5727L72.6613 28.8363C73.1774 28.6306 73.1774 27.8059 72.6613 27.6002L61.3275 22.4828L72.3527 17.5024L108.803 33.988L97.7686 38.9341ZM109.79 47.8643L98.4561 52.9818V40.1358L109.79 35.0256V47.8643Z" fill="#FDC0FF"/>
</svg>
