<svg width="132" height="88" viewBox="0 0 132 88" fill="none" xmlns="http://www.w3.org/2000/svg">
<path d="M102.576 43.5256C102.576 63.7671 86.2006 80.1761 66.0008 80.1761C45.801 80.1761 29.4258 63.7671 29.4258 43.5256C29.4258 23.284 45.801 6.875 66.0008 6.875C86.2006 6.875 102.576 23.284 102.576 43.5256Z" fill="#F9E1E1"/>
<path d="M88.6086 28.2248C88.6086 31.7622 85.7469 34.6298 82.2169 34.6298C78.6868 34.6298 75.8251 31.7622 75.8251 28.2248C75.8251 24.6875 78.6868 21.8199 82.2169 21.8199C85.7469 21.8199 88.6086 24.6875 88.6086 28.2248Z" fill="white"/>
<path d="M70.617 30.1226C70.617 33.66 67.7554 36.5276 64.2253 36.5276C60.6952 36.5276 57.8335 33.66 57.8335 30.1226C57.8335 26.5852 60.6952 23.7177 64.2253 23.7177C67.7554 23.7177 70.617 26.5852 70.617 30.1226Z" fill="white"/>
<path fill-rule="evenodd" clip-rule="evenodd" d="M79.9869 20.0485C78.8665 20.3659 77.2736 21.2849 76.4756 22.0744C75.7383 22.8039 74.8791 23.0552 74.8791 22.5414C74.8791 22.4375 74.5542 22.2827 74.1574 22.1975C73.7605 22.1123 73.3357 21.9682 73.2135 21.8777C73.0914 21.7869 72.0736 21.4975 70.9519 21.2343C68.0518 20.5541 62.0361 20.5459 59.1846 21.2182C56.8843 21.7606 55.0335 22.3598 54.9291 22.5958C54.8883 22.6879 54.7264 22.7631 54.5693 22.7631C54.1863 22.7631 50.8033 24.544 50.7096 24.7952C50.6688 24.904 50.5293 24.9932 50.3994 24.9932C50.0358 24.9932 47.4013 27.1736 46.2603 28.4187C45.9387 28.7695 45.4344 29.3192 45.1394 29.6406C44.4854 30.3531 43.7923 30.7286 42.7794 30.9195C42.357 30.9992 42.0115 31.1392 42.0115 31.2306C42.0115 31.3223 41.5971 31.4867 41.0907 31.5962C40.5844 31.7057 40.0998 31.9456 40.0139 32.1296C39.3701 33.5083 39.1056 33.7944 38.1138 34.1856C36.6132 34.7774 35.9727 35.2924 35.4026 36.3649C34.8952 37.3193 34.7466 38.4723 35.1024 38.6933C35.211 38.7607 35.3675 39.0867 35.4504 39.4179C35.5332 39.7491 35.8941 40.3918 36.2523 40.8459C36.9023 41.6701 37.1022 42.3882 36.6816 42.3882C36.5594 42.3882 36.4595 42.4948 36.4595 42.6251C36.4595 42.7553 36.1999 43.4326 35.8825 44.1304C34.7994 46.5117 34.6829 46.8045 34.6829 47.1424C34.6829 47.3282 34.608 47.5137 34.5163 47.5548C34.3477 47.6299 33.6944 49.5104 33.0572 51.7548C32.8658 52.4294 32.5536 53.5197 32.3635 54.1778C31.7552 56.2839 31.7998 56.4724 34.0364 61.2328C34.5549 62.3367 35.0624 63.2734 35.1641 63.3142C35.2658 63.3552 35.3491 63.5102 35.3491 63.6588C35.3491 64.6869 41.0499 71.2914 43.7894 73.4372C45.5247 74.7967 46.6565 75.6172 46.7961 75.6172C46.8774 75.6172 47.39 75.9196 47.9352 76.2891C48.8768 76.9272 50.6055 77.7978 52.5602 78.618C55.3582 79.7922 58.71 80.5527 63.0421 80.9958C66.0932 81.308 69.7933 81.0498 73.4356 80.2703C75.2553 79.8807 78.3125 79.0351 78.7015 78.8134C78.845 78.7318 78.7737 78.4858 78.1952 77.0668C78.0953 76.8215 77.9491 76.1948 77.8705 75.6741C77.7919 75.1535 77.6362 74.6709 77.5247 74.6016C77.4133 74.5324 77.322 74.2925 77.322 74.0686C77.322 73.8444 77.1543 73.14 76.9493 72.5026C76.6866 71.6857 76.6486 71.2992 76.8208 71.1924C76.9549 71.1092 77.1337 70.7651 77.2178 70.4279C77.3022 70.0905 77.4601 69.7595 77.5687 69.6922C77.8945 69.4899 77.7917 67.9319 77.4006 67.1442C76.9724 66.2827 76.5221 65.8202 75.6617 65.3586C75.3188 65.1746 74.8911 64.7995 74.7112 64.525C74.4148 64.0722 74.4227 64.0136 74.7983 63.8916C75.0259 63.8176 75.4121 63.6715 75.6564 63.5669C75.9007 63.4623 76.5247 63.3122 77.0433 63.2333C77.5616 63.1543 78.0351 63.0096 78.0953 62.9117C78.1557 62.814 78.6596 62.6655 79.2154 62.5816C79.7713 62.498 80.5688 62.2857 80.9876 62.1099C82.5673 61.4471 83.1886 61.7988 83.082 63.2953C83.0581 63.6329 83.0263 64.5943 83.0116 65.4317C82.9859 66.9005 83.0125 66.9799 83.7623 67.6737C84.6366 68.4825 84.942 69.0365 85.3142 70.4879C86.4539 74.9301 86.2791 74.65 87.3953 73.8264C88.7262 72.8442 92.3123 69.2626 93.4076 67.8213C94.8811 65.8822 96.4208 63.5488 96.4208 63.2544C96.4208 62.2212 92.8602 59.9159 90.8512 59.6483C89.9729 59.5315 89.6627 59.3649 89.2083 58.7665C88.9001 58.3609 88.646 57.947 88.6438 57.8468C88.6416 57.7467 87.9931 57.0232 87.2029 56.2391L85.7661 54.8138L86.4854 53.9883C87.8019 52.4771 87.916 52.2911 89.0202 49.8592C89.5363 48.7227 89.6076 43.7381 89.1228 42.7007C87.9072 40.1003 87.5019 39.4737 86.1856 38.1608C84.2202 36.2003 84.15 35.847 85.5807 35.1191C88.139 33.8171 89.9805 30.7926 89.9805 27.8924C89.9805 26.695 89.3915 24.6591 88.755 23.6562C87.8203 22.1832 86.8041 21.3195 84.9837 20.4511C84.0408 20.0013 81.0147 19.7575 79.9869 20.0485ZM80.5157 22.9392C79.3418 23.3342 78.0822 24.3966 77.5958 25.402C76.9946 26.6448 76.9031 29.2119 77.4277 30.1225C77.6042 30.4291 77.8214 30.8306 77.9103 31.0145C78.1328 31.4755 78.5885 31.8241 79.813 32.4695C81.9541 33.5982 84.6419 32.8981 86.079 30.8377C86.6282 30.0505 86.7621 29.608 86.833 28.3491C86.8805 27.507 86.8036 26.4664 86.6624 26.0369C86.3841 25.1897 85.365 24.0106 84.3375 23.3467C83.6506 22.9027 81.3525 22.6578 80.5157 22.9392ZM63.22 24.2974C62.3403 24.526 61.6046 24.9582 60.7069 25.7737C59.5854 26.7927 59.2219 27.7516 59.227 29.6765C59.231 31.1156 59.3165 31.4811 59.8391 32.2946C60.5981 33.4757 61.8109 34.2946 63.4294 34.719C64.5553 35.0143 64.8118 35.01 65.9957 34.6764C68.523 33.9643 70.012 32.0585 70.0178 29.5277C70.0227 27.4985 69.1952 26.065 67.3404 24.8893C66.4108 24.2998 64.3497 24.0039 63.22 24.2974ZM78.9876 42.2484C78.3769 42.3599 77.817 42.5443 77.7435 42.6583C77.6147 42.8579 77.8003 43.7865 78.4919 46.4025C78.7224 47.2747 78.9212 47.6237 79.1795 47.6105C80.5022 47.5427 80.4324 47.6455 80.4115 45.7892C80.4009 44.8387 80.326 43.6074 80.245 43.0532L80.098 42.0457L78.9876 42.2484ZM75.1587 43.3068L73.9948 43.756L74.3286 44.3545C74.7021 45.0236 74.9553 45.4399 75.7779 46.737C76.089 47.2276 76.4155 47.8168 76.5032 48.0465C76.6309 48.381 76.8039 48.4357 77.374 48.321C77.7653 48.2425 78.1579 48.1047 78.2463 48.0151C78.3349 47.9254 78.2061 47.1495 77.9602 46.2909C77.7146 45.4323 77.4035 44.3035 77.2694 43.782C76.9884 42.6922 76.8383 42.6585 75.1587 43.3068Z" fill="#EF5048"/>
<path fill-rule="evenodd" clip-rule="evenodd" d="M81.0974 20.026C79.2395 20.3418 77.5346 21.2597 76.0713 22.7318C75.3212 23.4865 74.9967 23.6576 74.2947 23.6685C73.8221 23.6756 72.9529 23.7615 72.3629 23.8587C71.3502 24.026 71.2394 23.9932 70.3797 23.272C69.252 22.3259 68.2502 21.8103 66.6281 21.3418C65.2399 20.9406 62.887 20.8527 62.887 21.202C62.887 21.3246 62.6402 21.425 62.3387 21.425C61.8361 21.425 60.3373 22.0858 59.5736 22.644C58.8967 23.1388 57.1129 25.0987 57.1129 25.3478C57.1129 25.7534 56.2883 26.1894 54.2259 26.8743C53.1877 27.2191 52.2432 27.5893 52.1273 27.6968C52.0111 27.8043 51.7266 27.8924 51.4945 27.8924C51.2627 27.8924 50.7579 28.0331 50.3731 28.205C49.9882 28.3767 48.7739 28.8348 47.6746 29.2226C46.5753 29.6105 45.2761 30.1093 44.7875 30.3312C42.9649 31.1588 42.2117 31.4606 41.9676 31.4606C41.8297 31.4606 41.3318 31.6312 40.8614 31.8395C40.1643 32.1483 39.9616 32.3854 39.7643 33.1218C39.6315 33.6187 39.4081 34.099 39.2682 34.1891C39.1281 34.2792 39.5774 34.3544 40.2667 34.3564C41.1781 34.3588 41.5547 34.2685 41.6478 34.0252C41.718 33.8412 42.0251 33.6907 42.33 33.6907C42.6349 33.6907 43.3125 33.5556 43.8359 33.3905C44.3594 33.2253 45.637 32.87 46.6752 32.6011C48.6035 32.1013 49.926 31.7338 51.8941 31.151C52.5048 30.9702 53.4286 30.7565 53.9472 30.676C54.4655 30.5955 54.9461 30.4381 55.0152 30.3261C55.084 30.2141 55.3274 30.1225 55.5557 30.1225C55.8824 30.1225 56.0274 30.3952 56.2348 31.3986C56.4998 32.6805 56.9428 33.6976 57.5586 34.4385C58.2384 35.256 59.6715 36.5899 59.8703 36.5899C59.9835 36.5899 60.2338 36.7232 60.4266 36.886C61.0553 37.4173 63.1275 37.928 64.6543 37.928C68.7836 37.928 72.1195 35.2502 73.0291 31.205C73.3176 29.9227 73.3329 29.4233 73.1177 28.3246C72.8323 26.8681 72.9107 26.5543 73.5599 26.5543C73.9256 26.5543 73.9914 26.7146 73.9936 27.6136C74.0013 30.773 75.814 33.763 78.5708 35.1644C79.7152 35.746 80.055 35.8093 82.0308 35.8093C83.2378 35.8093 84.2934 35.7092 84.3809 35.5863C84.4681 35.4637 85.0085 35.1267 85.5814 34.8374C87.0203 34.1113 88.0947 32.9648 88.9268 31.2672C89.5624 29.9708 89.6317 29.6319 89.6208 27.8681C89.6102 26.1366 89.5278 25.7434 88.913 24.4894C88.2444 23.1252 87.2133 21.9667 85.9354 21.1442C84.7393 20.3739 82.3284 19.8168 81.0974 20.026ZM79.8185 22.9807C78.8313 23.4047 77.4374 25.1074 77.0394 26.375C76.5681 27.8761 76.5666 28.0563 77.013 29.3899C77.4709 30.7576 78.6279 32.1834 79.6912 32.69C80.809 33.2226 83.1625 33.2226 84.2803 32.69C85.1133 32.2931 86.2861 31.0005 86.8624 29.8446C87.2686 29.0299 87.2306 26.8649 86.7924 25.8522C86.4706 25.1089 85.5543 24.0418 84.5323 23.2202C84.0495 22.832 80.5753 22.6556 79.8185 22.9807ZM62.9671 24.2133C61.5891 24.6497 59.9999 25.7842 59.9999 26.3313C59.9999 26.4539 59.9158 26.5543 59.813 26.5543C59.7101 26.5543 59.4421 27.1647 59.2171 27.9106C58.4063 30.6002 59.54 33.199 62.0655 34.4398C64.2825 35.529 67.0234 35.101 68.5615 33.4255C69.6424 32.248 69.7874 31.9991 70.1132 30.7587C70.3524 29.8482 70.3668 29.3589 70.1776 28.5719C69.6319 26.3018 68.2917 24.887 66.036 24.1997C64.7977 23.8224 64.1932 23.825 62.9671 24.2133ZM83.0961 59.1031C82.4086 59.3308 79.5884 60.1468 78.0994 60.5491C75.764 61.1802 72.7437 62.0633 72.1388 62.2917C71.5683 62.5074 71.5161 62.6142 71.592 63.4137L71.676 64.2973L70.335 64.1539C66.2559 63.7181 60.3495 63.8182 59.838 64.3318C59.5103 64.661 60.0819 64.7493 60.8152 64.483C61.8094 64.1222 67.9097 64.0838 69.472 64.4288C70.0641 64.5595 71.1983 64.7819 71.9922 64.923C72.7861 65.0642 73.7135 65.2317 74.0533 65.2955C74.6618 65.4094 74.6687 65.3983 74.5292 64.5221C74.3875 63.6331 74.3878 63.6331 75.2441 63.475C75.7151 63.388 76.5504 63.1838 77.1 63.0207C77.6497 62.8577 78.8989 62.5085 79.876 62.2442C80.8531 61.9799 81.8698 61.6751 82.1354 61.5667C82.7177 61.3287 82.8992 61.5301 83.3267 62.8892C83.5678 63.6554 83.5765 63.8969 83.3653 63.9676C83.2158 64.0176 83.1426 64.1385 83.2027 64.2364C83.2629 64.3341 83.7881 63.9627 84.37 63.4112C85.8712 61.9886 85.9656 61.9146 87.2495 61.1577C87.8848 60.783 88.7591 60.4097 89.1926 60.3281C90.0134 60.1735 90.2842 59.7832 89.5706 59.7832C89.1804 59.7832 88.033 60.2429 87.3156 60.6867C87.1324 60.8 86.7236 61.0388 86.4073 61.2172L85.8322 61.5419L85.4067 60.2723C85.0227 59.1269 84.9161 58.9987 84.3162 58.961C83.9505 58.938 83.4015 59.002 83.0961 59.1031ZM91.3131 60.0589C91.5476 60.3198 93.0897 60.866 93.0897 60.688C93.0897 60.585 92.8492 60.44 92.5551 60.366C92.2611 60.2917 91.8363 60.1646 91.6113 60.0832C91.3861 60.0018 91.252 59.9909 91.3131 60.0589ZM94.1599 61.4619C94.6873 61.7892 95.1788 61.9971 95.2518 61.9237C95.3247 61.8504 95.2749 61.7904 95.1413 61.7904C95.0076 61.7904 94.7613 61.653 94.5943 61.4853C94.427 61.3174 94.0453 61.1097 93.7455 61.0234C93.4155 60.9284 93.5787 61.1012 94.1599 61.4619ZM95.6685 62.8006C96.1011 63.4636 96.1941 63.4935 96.0451 62.9208C95.9834 62.684 95.7926 62.4362 95.6209 62.37C95.3766 62.2759 95.3871 62.3693 95.6685 62.8006ZM82.8916 65.2656C82.9023 65.5254 82.9549 65.5782 83.0257 65.4005C83.0899 65.2395 83.0819 65.047 83.0082 64.973C82.9345 64.8989 82.8821 65.0305 82.8916 65.2656ZM75.2408 65.6407C76.75 66.5203 76.7842 66.5318 76.1215 65.9375C75.7667 65.6191 75.3169 65.3601 75.1222 65.3619C74.8606 65.3644 74.8914 65.4371 75.2408 65.6407ZM83.3253 66.5983C83.3291 66.7136 83.479 67.0031 83.6584 67.241C83.8377 67.4792 83.9813 67.5796 83.9774 67.464C83.9736 67.3487 83.8237 67.0593 83.6442 66.8213C83.465 66.5831 83.3213 66.4828 83.3253 66.5983ZM77.1176 67.2727C77.1282 67.5325 77.1809 67.5854 77.2517 67.4076C77.3159 67.2466 77.3079 67.0541 77.2341 66.9801C77.1604 66.9061 77.108 67.0376 77.1176 67.2727ZM84.5952 68.0156C84.8701 68.2809 85.0944 68.7201 85.0937 68.9912C85.0931 69.2624 85.2414 69.9359 85.4235 70.4879C85.6054 71.0398 85.9256 72.1114 86.1353 72.8692C86.5643 74.4209 86.6252 74.4281 88.0314 73.0962C88.8036 72.365 88.8384 72.274 88.6179 71.5706C88.0103 69.6328 88.021 69.6163 89.5364 70.1534C90.6173 70.5363 91.091 70.5762 91.091 70.2845C91.091 70.1725 90.6661 70.0169 90.1471 69.9384C88.9581 69.7586 86.9876 69.0142 84.9838 67.9879L84.0955 67.5327L84.5952 68.0156ZM77.3654 68.5923C77.3698 68.9602 77.4196 69.0838 77.476 68.8668C77.5324 68.6498 77.5286 68.3487 77.4678 68.1978C77.4069 68.0468 77.361 68.2243 77.3654 68.5923ZM75.9288 71.487C75.1142 72.4439 72.924 73.9988 70.4376 75.3852C69.3777 75.9765 68.7399 76.2907 66.3292 77.41C65.5139 77.7884 61.6824 79.0244 60.3331 79.3442C57.438 80.0304 57.3339 80.0708 58.7008 79.9771C60.1594 79.8774 62.2345 79.2985 66.1071 77.9106C67.2206 77.5119 69.8436 76.243 69.9979 76.0284C70.0617 75.9403 70.3615 75.7608 70.6642 75.6294C71.6156 75.2173 73.5872 74.0474 73.9585 73.6745C74.2849 73.3467 74.3274 73.3708 74.4724 73.9653C74.5592 74.3219 74.8415 75.3161 75.0995 76.1747C75.3574 77.0333 75.6545 78.0699 75.7595 78.4782C75.8648 78.8866 76.0125 79.2826 76.088 79.3584C76.1633 79.4343 76.7673 79.3112 77.43 79.0848C78.4509 78.7365 78.6037 78.6147 78.43 78.2887C78.3172 78.077 78.1214 77.4646 77.9948 76.9278C77.8682 76.391 77.5599 75.2492 77.3099 74.3906C76.5466 71.7713 76.4949 71.4892 76.6825 70.9798C76.782 70.7093 76.842 70.4912 76.8153 70.4952C76.7887 70.4993 76.3898 70.9455 75.9288 71.487Z" fill="#27255D"/>
</svg>
