<svg width="132" height="88" viewBox="0 0 132 88" fill="none" xmlns="http://www.w3.org/2000/svg">
<path fill-rule="evenodd" clip-rule="evenodd" d="M32.582 44.0002C32.582 62.4139 47.5857 77.418 66.0002 77.418C84.4139 77.418 99.4184 62.4139 99.4184 44.0002C99.4184 25.5861 84.4139 10.582 66.0002 10.582C47.5857 10.582 32.582 25.5861 32.582 44.0002ZM34.7982 44.0002C34.7982 26.7795 48.7795 12.7986 66.0002 12.7986C83.2209 12.7986 97.2014 26.7795 97.2014 44.0002C97.2014 61.2205 83.2209 75.2014 66.0002 75.2014C48.7795 75.2014 34.7982 61.2205 34.7982 44.0002ZM50.4845 38.203C50.3139 32.0652 53.5532 28.996 57.645 28.996C60.2025 28.996 62.0782 29.8485 66.17 31.7242C69.2395 33.2585 71.4557 34.2817 73.6727 34.2817C75.8889 34.2817 76.912 32.5767 76.912 29.1667H80.4927C80.8332 35.816 77.4232 38.3735 73.6727 38.3735C71.285 38.3735 69.0689 37.6917 64.977 35.6455C63.8456 35.1134 62.8183 34.5811 61.8642 34.1298C60.9993 33.7206 60.195 33.378 59.4291 33.1625C58.8747 33.0067 58.3393 32.9177 57.8157 32.9177C55.5995 32.9177 54.235 34.452 54.235 38.0327H50.4845V38.203ZM67.8759 40.2489V63.437H63.272V38.5439L67.8759 40.2489Z" fill="#1A1A1A"/>
</svg>
