<svg width="132" height="88" viewBox="0 0 132 88" fill="none" xmlns="http://www.w3.org/2000/svg">
<path d="M59.7529 19.0117H44.1354C43.3066 19.0117 42.512 19.3408 41.9263 19.9266C41.3405 20.5123 41.0117 21.3068 41.0117 22.1352V37.7527C41.0117 38.5813 41.3405 39.3758 41.9263 39.9615C42.512 40.5473 43.3066 40.8765 44.1354 40.8765H59.7529C60.5815 40.8765 61.3759 40.5473 61.9617 39.9615C62.5474 39.3758 62.8763 38.5813 62.8763 37.7527V22.1352C62.8763 21.3068 62.5474 20.5123 61.9617 19.9266C61.3759 19.3408 60.5815 19.0117 59.7529 19.0117ZM56.6294 34.6293H47.2588V25.2587H56.6294V34.6293Z" fill="black"/>
<path d="M87.8642 47.1234H72.2467C71.4181 47.1234 70.6234 47.4526 70.0379 48.0383C69.4521 48.6241 69.1232 49.4185 69.1232 50.2471V65.8646C69.1232 66.6932 69.4521 67.488 70.0379 68.0737C70.6234 68.6592 71.4181 68.9881 72.2467 68.9881H87.8642C88.6931 68.9881 89.4875 68.6592 90.0733 68.0737C90.659 67.488 90.9879 66.6932 90.9879 65.8646V50.2471C90.9879 49.4185 90.659 48.6241 90.0733 48.0383C89.4875 47.4526 88.6931 47.1234 87.8642 47.1234ZM84.7408 62.7412H75.3701V53.3706H84.7408V62.7412Z" fill="black"/>
<path d="M59.7529 47.1234H44.1354C43.3068 47.1234 42.5121 47.4526 41.9264 48.0383C41.3407 48.6241 41.0119 49.4185 41.0119 50.2471V65.8646C41.0119 66.6932 41.3407 67.488 41.9264 68.0737C42.5121 68.6592 43.3068 68.9881 44.1354 68.9881H59.7529C60.5815 68.9881 61.3762 68.6592 61.962 68.0737C62.5477 67.488 62.8766 66.6932 62.8766 65.8646V50.2471C62.8766 49.4185 62.5477 48.6241 61.962 48.0383C61.3762 47.4526 60.5815 47.1234 59.7529 47.1234ZM56.6294 62.7412H47.2588V53.3706H56.6294V62.7412Z" fill="black"/>
<path d="M80.0561 40.8762C79.2276 40.8762 78.4328 40.5467 77.8471 39.961L70.0387 32.1521C69.4532 31.5666 69.1243 30.7722 69.1243 29.9439C69.1243 29.1156 69.4532 28.3214 70.0387 27.7356L77.8471 19.9268C78.4328 19.3412 79.2276 19.0123 80.0561 19.0123C80.8836 19.0123 81.6784 19.3412 82.2641 19.9268L90.0725 27.7356C90.6579 28.3214 90.9868 29.1156 90.9868 29.9439C90.9868 30.7722 90.6579 31.5666 90.0725 32.1521L82.2641 39.961C81.6784 40.5467 80.8836 40.8762 80.0561 40.8762Z" fill="black"/>
</svg>
