<svg width="132" height="88" viewBox="0 0 132 88" fill="none" xmlns="http://www.w3.org/2000/svg">
<path d="M81 55.5743C80.7232 67.0661 73.5549 76.0502 63.3864 82L58.1591 79.2769C60.5674 76.5985 62.1079 73.1582 63.3864 69.8408C59.8258 69.2417 56.8712 67.6315 54.5227 65.0104C52.1742 62.3144 51 59.169 51 55.5743C51 53.4774 51.3788 51.5303 52.1364 49.7329C52.9697 47.9356 54.0682 46.3629 55.4318 45.0149C56.7955 43.6669 58.3864 42.6184 60.2045 41.8695C62.0227 41.0457 63.9924 40.6338 66.1136 40.6338C68.1591 40.6338 70.0909 41.0457 71.9091 41.8695C73.7273 42.6184 75.2803 43.6669 76.5682 45.0149C77.9318 46.3629 78.9924 47.9356 79.75 49.7329C80.5833 51.5303 81 53.4774 81 55.5743ZM81 20.9405C81 22.9625 80.5833 24.8722 79.75 26.6695C78.9924 28.4669 77.9318 30.0396 76.5682 31.3876C75.2803 32.6607 73.7273 33.7091 71.9091 34.5329C70.0909 35.2818 68.1591 35.6563 66.1136 35.6563C63.9924 35.6563 62.0227 35.2818 60.2045 34.5329C58.3864 33.7091 56.7955 32.6607 55.4318 31.3876C54.0682 30.0396 52.9697 28.4669 52.1364 26.6695C51.3788 24.8722 51 22.9625 51 20.9405C51 18.9185 51.3788 17.0088 52.1364 15.2114C52.9697 13.3392 54.0682 11.7291 55.4318 10.381C56.7955 9.03303 58.3864 7.98457 60.2045 7.23568C62.0227 6.41189 63.9924 6 66.1136 6C68.1591 6 70.0909 6.41189 71.9091 7.23568C73.7273 7.98457 75.2803 9.03303 76.5682 10.381C77.9318 11.7291 78.9924 13.3392 79.75 15.2114C80.5833 17.0088 81 18.9185 81 20.9405Z" fill="black"/>
</svg>
