<svg width="132" height="88" viewBox="0 0 132 88" fill="none" xmlns="http://www.w3.org/2000/svg">
<path d="M77.8593 12.1211H54.1405C43.0839 12.1211 34.1211 21.084 34.1211 32.1405V55.8592C34.1211 66.9162 43.0839 75.879 54.1405 75.879H77.8593C88.9162 75.879 97.879 66.9162 97.879 55.8592V32.1405C97.879 21.084 88.9162 12.1211 77.8593 12.1211Z" fill="#171716"/>
<path d="M63.4652 20.1057H65.891V22.532C65.891 26.2508 65.891 29.0335 65.7142 31.2432C65.5362 33.4511 65.1823 35.0772 64.4786 36.4844C63.1822 39.0787 61.0793 41.1819 58.4844 42.4783C57.0772 43.1815 55.452 43.5357 53.244 43.713C51.0341 43.8907 48.2514 43.8907 44.5323 43.8907H42.1063V41.4644C42.1063 37.7455 42.1063 34.9628 42.2842 32.7535C42.4612 30.5452 42.816 28.9194 43.5186 27.5122C44.815 24.9179 46.9179 22.8144 49.5128 21.5181C50.9203 20.815 52.5463 20.4608 54.7543 20.2834C56.9634 20.1059 59.7458 20.1057 63.4652 20.1057Z" fill="#799934"/>
<path d="M66.1088 20.1057H68.5346C72.2537 20.1057 75.0364 20.1059 77.2455 20.2834C79.4534 20.4608 81.0795 20.815 82.487 21.5181C85.0808 22.8144 87.1848 24.9179 88.4811 27.5122C89.1838 28.9194 89.5385 30.5452 89.7153 32.7535C89.8933 34.9628 89.8933 37.7455 89.8933 41.4644V43.8907H87.4667C83.7484 43.8907 80.9657 43.8907 78.7558 43.713C76.5478 43.5357 74.9214 43.1815 73.5151 42.4783C70.9205 41.1819 68.8164 39.0787 67.5209 36.4844C66.8172 35.0772 66.4635 33.4511 66.2856 31.2432C66.1085 29.0335 66.1088 26.2508 66.1088 22.532V20.1057Z" fill="#8F6ED4"/>
<path d="M42.1063 44.1088H44.5323C48.2514 44.1088 51.0341 44.1088 53.244 44.2861C55.452 44.4635 57.0772 44.818 58.4844 45.5209C61.0793 46.8172 63.1822 48.9207 64.4786 51.5151C65.1823 52.9222 65.5362 54.5483 65.7142 56.7563C65.891 58.9659 65.891 61.7484 65.891 65.4677V67.8935H63.4652C59.7458 67.8935 56.9634 67.8935 54.7543 67.7156C52.5463 67.5388 50.9203 67.1837 49.5128 66.4811C46.9179 65.1848 44.815 63.0816 43.5186 60.4869C42.816 59.08 42.4612 57.4542 42.2842 55.246C42.1063 53.0366 42.1063 50.2539 42.1063 46.5348V44.1088Z" fill="#E1F038"/>
<path d="M87.4667 44.1088H89.8933V46.5348C89.8933 50.2539 89.8933 53.0366 89.7153 55.246C89.5385 57.4542 89.1838 59.08 88.4811 60.4869C87.1848 63.0816 85.0808 65.1848 82.487 66.4811C81.0795 67.1837 79.4534 67.5388 77.2455 67.7156C75.0364 67.8935 72.2537 67.8935 68.5346 67.8935H66.1088V65.4677C66.1088 61.7484 66.1085 58.9659 66.2856 56.7563C66.4635 54.5483 66.8172 52.9222 67.5209 51.5151C68.8164 48.9207 70.9205 46.8172 73.5151 45.5209C74.9214 44.818 76.5478 44.4635 78.7558 44.2861C80.9657 44.1088 83.7484 44.1088 87.4667 44.1088Z" fill="#BEB1F5"/>
<path d="M77.8593 12.1211H54.1405C43.0839 12.1211 34.1211 21.084 34.1211 32.1405V55.8592C34.1211 66.9162 43.0839 75.879 54.1405 75.879H77.8593C88.9162 75.879 97.879 66.9162 97.879 55.8592V32.1405C97.879 21.084 88.9162 12.1211 77.8593 12.1211Z" stroke="#171716" stroke-width="0.63354"/>
<path d="M63.4652 20.1057H65.891V22.532C65.891 26.2508 65.891 29.0335 65.7142 31.2432C65.5362 33.4511 65.1823 35.0772 64.4786 36.4844C63.1822 39.0787 61.0793 41.1819 58.4844 42.4783C57.0772 43.1815 55.452 43.5357 53.244 43.713C51.0341 43.8907 48.2514 43.8907 44.5323 43.8907H42.1063V41.4644C42.1063 37.7455 42.1063 34.9628 42.2842 32.7535C42.4612 30.5452 42.816 28.9194 43.5186 27.5122C44.815 24.9179 46.9179 22.8144 49.5128 21.5181C50.9203 20.815 52.5463 20.4608 54.7543 20.2834C56.9634 20.1059 59.7458 20.1057 63.4652 20.1057Z" stroke="#171716" stroke-width="0.63354"/>
<path d="M66.1088 20.1057H68.5346C72.2537 20.1057 75.0364 20.1059 77.2455 20.2834C79.4534 20.4608 81.0795 20.815 82.487 21.5181C85.0808 22.8144 87.1848 24.9179 88.4811 27.5122C89.1838 28.9194 89.5385 30.5452 89.7153 32.7535C89.8933 34.9628 89.8933 37.7455 89.8933 41.4644V43.8907H87.4667C83.7484 43.8907 80.9657 43.8907 78.7558 43.713C76.5478 43.5357 74.9214 43.1815 73.5151 42.4783C70.9205 41.1819 68.8164 39.0787 67.5209 36.4844C66.8172 35.0772 66.4635 33.4511 66.2856 31.2432C66.1085 29.0335 66.1088 26.2508 66.1088 22.532V20.1057Z" stroke="#171716" stroke-width="0.63354"/>
<path d="M42.1063 44.1088H44.5323C48.2514 44.1088 51.0341 44.1088 53.244 44.2861C55.452 44.4635 57.0772 44.818 58.4844 45.5209C61.0793 46.8172 63.1822 48.9207 64.4786 51.5151C65.1823 52.9222 65.5362 54.5483 65.7142 56.7563C65.891 58.9659 65.891 61.7484 65.891 65.4677V67.8935H63.4652C59.7458 67.8935 56.9634 67.8935 54.7543 67.7156C52.5463 67.5388 50.9203 67.1837 49.5128 66.4811C46.9179 65.1848 44.815 63.0816 43.5186 60.4869C42.816 59.08 42.4612 57.4542 42.2842 55.246C42.1063 53.0366 42.1063 50.2539 42.1063 46.5348V44.1088Z" stroke="#171716" stroke-width="0.63354"/>
<path d="M87.4667 44.1088H89.8933V46.5348C89.8933 50.2539 89.8933 53.0366 89.7153 55.246C89.5385 57.4542 89.1838 59.08 88.4811 60.4869C87.1848 63.0816 85.0808 65.1848 82.487 66.4811C81.0795 67.1837 79.4534 67.5388 77.2455 67.7156C75.0364 67.8935 72.2537 67.8935 68.5346 67.8935H66.1088V65.4677C66.1088 61.7484 66.1085 58.9659 66.2856 56.7563C66.4635 54.5483 66.8172 52.9222 67.5209 51.5151C68.8164 48.9207 70.9205 46.8172 73.5151 45.5209C74.9214 44.818 76.5478 44.4635 78.7558 44.2861C80.9657 44.1088 83.7484 44.1088 87.4667 44.1088Z" stroke="#171716" stroke-width="0.63354"/>
</svg>
