<svg width="132" height="88" viewBox="0 0 132 88" fill="none" xmlns="http://www.w3.org/2000/svg">
<path d="M88.4272 17.8928L68.5918 12.1677C67.0141 11.7097 65.2109 11.7097 63.4077 12.1677L43.7968 17.8928C42.2193 18.3508 40.8675 19.7249 40.4162 21.3279L34.7811 41.4802C34.3308 43.0832 34.3308 44.9152 34.7811 46.7473L40.4162 66.8996C40.8675 68.5023 41.9937 69.8767 43.5722 70.1061L63.4077 75.831C64.9854 76.2886 66.7886 76.2886 68.5918 75.831L88.4272 70.1061C90.0049 69.6474 91.3576 68.5023 91.5823 66.8996L97.2173 46.7473C97.6686 45.1443 97.6686 43.3123 97.2173 41.4802L91.5823 21.3279C91.3576 19.7249 90.0049 18.3508 88.4272 17.8928ZM63.8582 70.5634L39.9659 46.2894C38.8387 45.1443 38.8387 43.0835 39.9659 41.7093L63.8582 17.4349C64.9854 16.2898 67.0141 16.2898 68.366 17.4349L92.2594 41.7093C93.3866 42.8544 93.3866 44.9153 92.2594 46.2894L68.366 70.5634C67.0141 71.7088 65.2109 71.7088 63.8582 70.5634Z" fill="#DA2FE3"/>
</svg>
