<svg width="132" height="88" viewBox="0 0 132 88" fill="none" xmlns="http://www.w3.org/2000/svg">
<path d="M85.2878 8.52344H46.713C37.7728 8.52344 30.5254 15.7709 30.5254 24.7111V63.2858C30.5254 72.226 37.7728 79.4734 46.713 79.4734H85.2878C94.2279 79.4734 101.475 72.226 101.475 63.2858V24.7111C101.475 15.7709 94.2279 8.52344 85.2878 8.52344Z" fill="black"/>
<path d="M85.2878 8.52344H46.713C37.7728 8.52344 30.5254 15.7709 30.5254 24.7111V63.2858C30.5254 72.226 37.7728 79.4734 46.713 79.4734H85.2878C94.2279 79.4734 101.475 72.226 101.475 63.2858V24.7111C101.475 15.7709 94.2279 8.52344 85.2878 8.52344Z" fill="#060717"/>
<path d="M85.2878 8.52344H46.713C37.7728 8.52344 30.5254 15.7709 30.5254 24.7111V63.2858C30.5254 72.226 37.7728 79.4734 46.713 79.4734H85.2878C94.2279 79.4734 101.475 72.226 101.475 63.2858V24.7111C101.475 15.7709 94.2279 8.52344 85.2878 8.52344Z" fill="url(#paint0_radial_2056_24482)"/>
<path style="mix-blend-mode:screen" d="M101.475 8.52344H30.5254V79.4734H101.475V8.52344Z" fill="url(#paint1_linear_2056_24482)" fill-opacity="0.12"/>
<path fill-rule="evenodd" clip-rule="evenodd" d="M80.047 36.6797L71.1431 22.0039H80.047V36.6797ZM66.0092 22.2414L44.3499 31.394L62.1524 35.1387L66.0092 22.2414ZM78.2033 38.5103L68.5441 22.5909L64.6312 35.6577L78.2033 38.5103ZM65.3704 38.4024L80.0485 70.2499V41.5534L80.0034 41.4805L65.3704 38.4024ZM76.3124 68.179L44.0059 33.9094L62.2912 37.7553L76.3124 68.179Z" fill="#606BFF"/>
<path fill-rule="evenodd" clip-rule="evenodd" d="M80.047 36.6797L71.1431 22.0039H80.047V36.6797ZM66.0092 22.2414L44.3499 31.394L62.1524 35.1387L66.0092 22.2414ZM78.2033 38.5103L68.5441 22.5909L64.6312 35.6577L78.2033 38.5103ZM65.3704 38.4024L80.0485 70.2499V41.5534L80.0034 41.4805L65.3704 38.4024ZM76.3124 68.179L44.0059 33.9094L62.2912 37.7553L76.3124 68.179Z" fill="url(#paint2_linear_2056_24482)"/>
<defs>
<radialGradient id="paint0_radial_2056_24482" cx="0" cy="0" r="1" gradientUnits="userSpaceOnUse" gradientTransform="translate(66.0004 8.52344) rotate(90) scale(70.95)">
<stop stop-color="#3F43AF"/>
<stop offset="1" stop-color="#03043A"/>
</radialGradient>
<linearGradient id="paint1_linear_2056_24482" x1="30.5254" y1="8.52344" x2="101.475" y2="79.4736" gradientUnits="userSpaceOnUse">
<stop stop-color="#DF60FF"/>
<stop offset="1" stop-color="#060717"/>
</linearGradient>
<linearGradient id="paint2_linear_2056_24482" x1="44.0059" y1="25.0193" x2="79.8969" y2="25.9788" gradientUnits="userSpaceOnUse">
<stop stop-color="#DFE2FF"/>
<stop offset="1" stop-color="#9FA7FF"/>
</linearGradient>
</defs>
</svg>
