<svg width="132" height="88" viewBox="0 0 132 88" fill="none" xmlns="http://www.w3.org/2000/svg">
<circle cx="66" cy="44" r="34.375" fill="#204ECF"/>
<path fill-rule="evenodd" clip-rule="evenodd" d="M83.3258 40.775L73.5938 30.9873L62.1791 19.5234L57.2636 24.4365L64.4547 31.6654L48.6758 47.4345L69.8944 68.7484L74.7476 63.8993L67.4941 56.6065L83.3258 40.775ZM63.0932 51.2153C62.9529 51.2602 62.802 51.2602 62.6617 51.2153C62.5163 51.1705 62.398 51.1065 62.1376 50.8442L59.2771 47.9671C59.0246 47.7144 58.9527 47.5864 58.9079 47.4425C58.8627 47.301 58.8627 47.149 58.9079 47.0075C58.9527 46.8635 59.015 46.7452 59.2771 46.4829L68.29 37.4628C68.5424 37.2101 68.6687 37.1382 68.8125 37.1014C68.9533 37.0561 69.1048 37.0561 69.2456 37.1014C69.3894 37.1462 69.5077 37.2101 69.7697 37.4724L72.6302 40.3496C72.8811 40.6023 72.953 40.7286 72.9897 40.8742C73.0347 41.0151 73.0347 41.1666 72.9897 41.3076C72.945 41.4531 72.8811 41.5715 72.619 41.8337L63.6061 50.8538C63.3632 51.1065 63.2386 51.1705 63.0948 51.2153H63.0932Z" fill="white"/>
</svg>
