<svg width="132" height="88" viewBox="0 0 132 88" fill="none" xmlns="http://www.w3.org/2000/svg">
<path d="M62.4657 4.32422H67.3916L68.1412 4.4313L69.9616 4.53839L73.6025 5.07381L75.53 5.60923L77.1362 6.03756L79.1708 6.78715L80.5629 7.42966L82.3834 8.28633V8.5005L82.9188 8.60758L84.8463 9.89259V10.1068H85.1676V10.3209L85.703 10.5351L86.4526 11.1776V11.3918H86.7738L87.0951 11.713V11.9272L87.4163 12.0343V12.2484L87.8447 12.4626L89.0226 13.7476L89.2367 14.176H89.4509L90.7359 15.8893L90.843 16.3176H91.0572L92.0209 17.9239L92.7705 19.4231L93.6272 21.0293L94.3768 23.171L94.698 24.1348L95.1264 25.5269L95.4476 26.919V27.2402L95.876 27.4544L96.8397 28.204L98.0176 29.489L98.8743 30.9881L99.1956 31.6306L99.5168 32.7015L99.8381 35.0573L100.052 37.5203L100.159 38.5911L100.266 41.3753V42.8745L100.159 44.9091L99.731 46.6224L99.3027 47.5862L99.0885 47.9074H98.8743V48.2287L98.3389 48.657L98.8743 49.0854L99.3027 49.6208L99.8381 50.1562L100.481 51.1199L101.123 52.512L101.444 53.797V56.1529L101.016 57.8662L100.481 58.9371L99.9452 59.6867L99.8381 60.0079L98.5531 61.2929L97.6964 61.9354L96.8397 62.4709L95.3405 63.1134L94.1626 63.4346L92.6634 63.5417L92.2351 66.1117L91.9138 67.5038L91.3784 69.3242L90.9501 70.288L90.5218 71.4659L89.2367 73.7147L87.6305 75.9634H87.4163L87.2022 76.3918L85.8101 77.7839L84.6321 78.7476L84.2038 79.0689H83.9896V79.2831L82.3834 80.2468L81.2054 80.8893L80.1346 81.3176L79.1708 81.746L77.9929 82.1743L75.7442 82.8168L74.1379 83.1381L72.6387 83.3522L70.1758 83.5664L69.4262 83.6735H64.7145L61.2878 83.3522L59.2532 83.031L56.6832 82.4956L54.5415 81.8531L51.8644 80.7822L50.044 79.8185L49.0802 79.2831L47.6881 78.3193L46.8315 77.6768V77.4626L46.4031 77.2485L45.5465 76.4989L44.5827 75.5351V75.3209L44.2614 75.2139L44.0473 74.6784L43.726 74.5714L42.6552 73.0722L41.9056 71.8942L41.156 70.6092L40.2993 68.5746L39.6568 66.6471L39.3356 65.4692L39.0143 63.7559V63.4346H37.7293L37.1939 63.2204L36.3372 63.0063L34.9451 62.3638L33.9814 61.8284V61.6142L33.553 61.4L32.6964 60.6504L31.6255 59.2583L30.8759 57.7592L30.5547 56.6883V53.4758L30.983 52.0837L31.8397 50.4774L33.0176 49.1924L33.446 48.657L32.8035 48.2287L32.4822 47.8003V47.5862H32.268L31.8397 46.6224L31.5184 45.3374L31.4114 44.1595V39.769L31.6255 36.7707L31.7326 36.0211L31.8397 34.2007L32.1609 32.3802L32.8035 30.774L33.2318 30.0244H33.446L33.553 29.5961L34.4097 28.5252H34.6239L34.731 28.204H34.9451V27.9898L35.4806 27.5615H35.6947L35.8018 26.2764L36.2301 23.8135L36.6585 22.3143L36.9797 21.2435L37.7293 19.2089L38.586 17.4956L39.6568 15.568L40.2993 14.7114L40.4064 14.4972H40.6206V14.176H40.8348L41.0489 13.7476L42.0127 12.5697L42.8694 11.713H43.0835L43.1906 11.3918H43.4048L43.5119 11.0705L44.6898 10.1068H44.904V9.89259L46.5102 8.82175L47.2598 8.39341L48.5448 7.64382L49.7227 7.1084L51.5432 6.35882L53.4707 5.71631L56.1478 5.07381L59.7886 4.53839L62.4657 4.32422Z" fill="#020101"/>
<path d="M60.1099 22.7427H70.7112L73.3883 22.8498L77.6717 23.2781L79.5992 23.4923L81.955 23.9206L84.418 24.456L86.6667 24.9914L90.7359 26.3835L92.8776 27.3473L95.1264 28.5252L96.4114 29.7031L97.2681 30.8811L98.0176 32.3802L98.2318 33.1298L98.6601 36.8778L98.8743 39.8761V44.1595L98.6601 45.5516L98.1247 46.9437L97.5893 47.4791L97.2681 47.5862H96.3043L94.2697 46.6224L92.0209 45.2303L89.3438 43.6241L86.988 42.4461L85.5959 41.9107L84.525 41.4824L82.1692 40.8399L79.8134 40.3045L77.3504 39.8761L72.2104 39.4478H59.3603L55.0769 39.769L51.2219 40.4115L49.6156 40.7328L47.0456 41.4824L44.3685 42.5532L42.0127 43.7311L39.0143 45.5516L37.301 46.6224L35.2664 47.5862H34.1955L33.6601 47.1578L33.0176 45.8728L32.6964 43.9453V41.4824L32.8035 38.484L33.0176 36.0211L33.2318 33.7723L33.6601 32.2732L34.5168 30.5598L35.6947 29.1677L36.8726 28.311L39.3356 27.026L41.3702 26.1694L43.5119 25.4198L46.296 24.6702L48.4377 24.1348L52.1857 23.4923L55.6124 23.0639L57.9682 22.8498L60.1099 22.7427Z" fill="#D40040"/>
<path d="M58.7178 40.6257H72.6387L76.2796 40.947L79.385 41.3753L81.955 41.9107L85.8101 43.1957L88.9155 44.6949L90.5218 45.6587L90.6288 45.7657L90.5218 47.0508L89.1297 54.975L88.8084 57.0096L88.273 59.6867L87.9517 61.1858L87.4163 62.7921L86.7738 63.7559L86.2384 64.1842L85.5959 64.5055H84.2038L82.3834 63.8629L79.7063 63.2204L77.3504 62.7921L75.3158 62.5779H71.1395L68.3554 62.8992L66.3208 63.3275L65.7853 63.4346L63.7507 63.0063L62.2516 62.7921L61.6091 62.685L59.8957 62.5779H55.8265L54.1132 62.685L51.7573 63.1134L50.3652 63.5417L49.6156 63.8629L47.6881 64.2913H45.9748L45.1181 63.97L44.3685 63.2204L43.8331 61.9354L43.4048 60.0079L42.7623 57.545L42.1198 54.1183L41.9056 52.512L41.6914 51.1199L41.0489 46.7295V45.6587L43.4048 44.2666L45.9748 43.0886L48.2236 42.3391L50.044 41.8036L51.4361 41.4824L55.7194 40.8399L58.7178 40.6257Z" fill="#E9AE82"/>
<path d="M61.6091 5.71631H68.2483L72.5316 6.25173L76.3867 7.21549L78.5283 7.96508L80.7771 8.92883L83.0259 10.2138L84.8463 11.4988L86.3455 12.7839L88.273 14.7114L89.4509 16.2105L90.7359 18.1381L92.0209 20.601L92.9847 22.8498L93.7343 25.3127L93.9484 26.0623V26.4906L92.9847 26.1694L92.128 25.741L89.558 24.7773L88.4872 24.3489L86.0242 23.7064L84.525 23.2781L82.0621 22.7427L78.4213 22.2073L74.5662 21.7789L70.2829 21.5648H61.0736L55.7194 21.886L51.5432 22.4214L49.5086 22.7427L45.3323 23.7064L41.5843 24.8844L40.2993 25.4198L37.8364 26.4906L37.1939 26.7048L37.4081 24.8844L38.1577 21.9931L38.6931 20.4939L39.2285 19.2089L40.4064 16.9601L41.4773 15.3539L42.8694 13.6405L44.5827 11.9272L46.0819 10.7493L47.6881 9.67842L49.6156 8.60758L52.5069 7.42966L55.184 6.68007L57.2186 6.25173L59.2532 5.93048L61.6091 5.71631Z" fill="#D40040"/>
<path d="M65.5712 64.8267H66.4278L67.4987 65.255L69.5333 65.7905L70.1758 65.8975H71.8891L76.1725 65.148H78.2071L79.2779 65.5763L79.8134 66.0046L80.0275 66.3259V67.718L79.4921 69.2171L78.9567 70.3951L78.6354 71.1447L77.9929 72.7509L77.6717 73.5005L77.0292 74.5714L76.0654 75.6422L75.53 76.0705L74.5662 76.3918H73.0671L71.782 75.8564L70.497 74.9997L69.5333 74.143H62.4657L60.8595 75.428L59.3603 76.1776L58.6107 76.3918H57.1115L56.2549 75.9634L55.184 74.9997L54.2203 73.5005L53.3636 71.3588L52.8282 70.288L52.2927 68.8959L51.8644 67.5038V66.54L52.1857 65.8975L52.7211 65.4692L53.6848 65.148H55.6124L59.1461 65.7905L59.4674 65.8975H61.7161L63.6437 65.4692L65.5712 64.8267Z" fill="#E8AE82"/>
<path d="M93.3059 48.0145L94.2697 48.1216L95.876 48.657L96.9468 49.2995L98.1247 50.2633L98.8743 51.1199L99.6239 52.405L100.052 53.797V55.9387L99.731 57.4379L99.0885 58.6158L98.2318 59.6867L97.4822 60.4363L96.0901 61.2929L94.591 61.9354L93.5201 62.1496H92.6634L92.7705 60.3292L92.9847 57.2237L93.1989 50.1562L93.3059 48.0145Z" fill="#E8AE82"/>
<path d="M37.9435 48.0145H38.586L38.6931 49.6208L38.9072 59.3654V62.1496L37.6222 62.0425L35.9089 61.4L34.3026 60.3292L33.446 59.4725L32.6964 58.4017L32.1609 57.2237L31.8397 55.9387V54.1183L32.1609 52.7262L32.9105 51.3341L33.8743 50.1562L35.2664 49.0854L36.7656 48.3358L37.9435 48.0145Z" fill="#E9AE82"/>
<path d="M53.0423 51.3341L54.0061 51.4412L54.7557 52.2979L55.184 53.5829V55.5104L54.7557 56.9025L54.1132 57.7592L53.7919 57.9733H53.0423L52.2927 57.3308L51.7573 56.26L51.6502 55.6175V53.4758L52.0786 52.2979L52.8282 51.4412L53.0423 51.3341Z" fill="#070504"/>
<path d="M78.1 51.3341H79.0638L79.8134 51.9766L80.3488 53.2616V55.9387L79.8134 57.1167L79.2779 57.7592L79.0638 57.8662H78.2071L77.4575 57.2237L77.0292 56.1529L76.815 55.2962V53.9041L77.1362 52.6191L77.5646 51.8695L78.1 51.3341Z" fill="#060503"/>
<path d="M64.1791 53.3687H65.6783L66.642 53.797L67.1774 54.4396V54.6537L66.1066 54.2254H65.1428L64.2862 54.5466L63.7507 55.0821L63.4295 55.6175L63.3224 55.8316V57.1167L63.6437 57.9733L64.3932 58.6158L64.8216 58.83H66.2137L66.642 58.7229L66.4278 59.1512L65.357 59.6867H64.3932L63.6437 59.3654L63.0012 58.9371L62.3587 58.1875L61.9303 57.1167V55.9387L62.2516 54.975L63.0012 54.0112L63.6437 53.5829L64.1791 53.3687Z" fill="#0A0705"/>
<path d="M51.8644 45.0162H54.2203L55.7194 45.5516L56.7903 46.1941L57.754 47.0508L57.647 47.2649L56.0407 46.6224L54.8628 46.4082H51.8644L50.1511 46.8366L48.4377 47.5862L47.3669 48.2287L47.1527 48.3358L47.3669 47.9074L48.1165 46.9437L49.1873 46.087L50.6865 45.3374L51.8644 45.0162Z" fill="#0B0806"/>
<path d="M77.6717 44.4807H79.5992L80.9913 44.802L82.4905 45.5516L83.7755 46.7295L84.525 47.9074V48.1216H84.3109V47.9074L83.8825 47.6933L82.4905 46.8366L80.8842 46.1941L79.8134 45.8728L78.8496 45.7657H77.0292L74.9946 46.087L74.0308 46.3012L74.5662 45.7657L75.53 45.1232L76.7079 44.6949L77.6717 44.4807Z" fill="#0A0806"/>
<path d="M60.7524 67.8251L61.1807 68.0392L62.2516 68.6817L63.5366 69.2171L65.1428 69.5384H66.7491L68.5695 69.2171L70.1758 68.5746L70.9254 68.2534L70.8183 68.5746L69.7475 69.4313L68.2483 70.1809L67.1774 70.5022H64.8216L63.6437 70.1809L62.3587 69.5384L61.2878 68.5746L60.7524 67.9321V67.8251Z" fill="#0C0907"/>
<path d="M53.899 52.0837L54.1132 52.1908L54.6486 53.797V55.2962L54.3273 56.1529H54.2203L54.1132 54.1183L53.7919 53.0475L53.4707 52.6191V52.405L53.899 52.0837Z" fill="#DEA97E"/>
<path d="M78.9567 52.1908L79.2779 52.2979L79.8134 53.797V55.2962L79.4921 56.0458H79.385L79.2779 54.1183L78.9567 53.0475L78.8496 52.6191H78.6354V52.405L78.9567 52.1908Z" fill="#DFAB80"/>
<path d="M78.9567 52.1908L79.2779 52.2979L79.4921 52.8333V53.69L79.2779 53.797L78.8496 52.8333V52.6191H78.6354V52.405L78.9567 52.1908Z" fill="#E2AC81"/>
<path d="M54.4344 53.797H54.6486V55.2962L54.3273 56.1529H54.2203V54.7608H54.4344V53.797Z" fill="#D09E76"/>
<path d="M79.4921 53.0475L79.7063 53.4758L79.8134 53.797V55.2962H79.7063L79.5992 54.2254L79.2779 54.1183L79.4921 53.0475Z" fill="#C99973"/>
<path d="M70.8183 68.2534V68.5746L69.9616 69.2171V68.6817L70.8183 68.2534Z" fill="#362A1F"/>
<path d="M74.6733 45.6587L74.8875 45.7657L74.7804 45.8728L74.9946 46.087L74.0308 46.3012L74.5662 45.7657L74.6733 45.6587Z" fill="#2A2018"/>
</svg>
