<svg width="132" height="88" viewBox="0 0 132 88" fill="none" xmlns="http://www.w3.org/2000/svg">
<path d="M73.8835 75.6209C73.2856 75.9079 72.4688 75.8443 71.624 75.8697C70.8968 75.8888 69.8792 75.9041 69.4565 75.5301C69.2265 75.3275 69.16 74.8868 69.1457 74.6301C69.1271 74.3248 69.2048 73.9494 69.2688 73.6075C69.3459 73.2029 69.4267 72.6851 69.2688 72.4619C69.0867 72.204 68.4365 72.3128 68.0921 72.1201C67.7254 71.9174 67.6234 71.4282 67.5059 70.8824C67.4674 70.7097 67.3661 70.553 67.3481 70.4175C67.2461 69.5808 67.5271 68.4582 67.7191 67.5985C67.9243 66.6898 68.1897 65.8388 68.3395 64.9953C68.5676 63.7229 68.6441 62.2851 68.5571 60.9692C68.5123 60.2842 68.4203 59.7453 68.526 59.1728C68.6255 58.637 68.8492 58.1906 68.9593 57.6561C68.9934 57.4851 68.9673 57.2831 68.9903 57.0973C69.0133 56.9338 69.1072 56.7989 69.1153 56.6646C69.1339 56.306 69.0195 55.8721 68.991 55.4251C68.9151 54.2305 69.0065 52.5465 69.0848 51.5216C69.1103 51.1666 69.2775 50.7588 69.022 50.5935C67.7807 50.5748 66.6475 50.8173 65.4901 50.9646C62.3759 51.3624 58.458 51.4146 55.4532 50.8098C55.1691 50.7526 54.8844 50.7458 54.6183 50.6855C52.4868 50.1957 50.5276 49.2794 49.0115 48.0835C48.7778 47.8994 48.4999 47.6987 48.2376 47.4961C47.9803 47.2965 47.705 47.0193 47.4625 46.9074C46.2492 46.3442 44.641 46.9932 44.1494 47.7746C43.9517 48.0866 43.8119 48.4888 43.6222 48.858C43.4414 49.2123 43.2829 49.5871 43.1269 49.9439C42.3262 51.7752 41.423 53.5224 40.6181 55.3642C40.1531 56.4259 39.6341 57.6095 39.2854 58.8017C38.5475 61.3328 39.2356 64.723 39.8138 67.1037C39.8647 67.3213 39.9816 67.5389 40.0611 67.7844C40.2432 68.3606 40.6336 69.1252 41.083 69.5199C41.3174 69.7251 41.7158 69.8481 41.9806 70.0781C42.3138 70.3622 42.5606 70.9278 42.8167 71.4089C42.9242 71.6103 43.074 71.8378 43.2195 72.0902C43.5278 72.6248 43.6334 73.1041 43.0336 73.4217C42.5829 73.661 41.8992 73.7225 41.2683 73.7617C40.9799 73.835 41.0712 74.2223 40.8965 74.4125C40.7983 74.5206 40.3732 74.691 40.1531 74.7544C39.322 74.9949 37.9185 74.9788 37.2714 74.7544C36.9482 74.64 36.5796 74.392 36.4981 74.1346C36.3378 73.6281 36.7356 72.9878 36.3738 72.585C36.2159 72.4122 35.8709 72.442 35.5676 72.3078C35.1362 72.1151 34.7222 71.711 34.5146 71.1908C34.0198 69.9432 34.3269 67.9833 34.2678 66.4523C34.2511 66.0054 34.1908 65.5261 34.1752 65.027C34.1454 64.1195 33.9315 63.2281 33.8346 62.3317C33.7855 61.8954 33.6419 61.523 33.5561 61.1252C33.4138 60.4837 33.3062 59.7919 33.1222 59.1417C32.9171 58.4281 32.9121 57.7331 33.1533 57.129C33.2198 56.9599 33.3976 56.8033 33.4933 56.5695C33.6363 56.2196 33.6879 55.8087 33.6786 55.4867C33.5735 55.3039 33.139 55.4475 33.0277 55.271C32.7692 53.313 32.4745 51.3413 32.316 49.2925C32.2638 48.6087 32.2613 47.8939 32.1911 47.1859C32.0568 45.7854 32.1693 44.3607 32.0382 43.005C31.9723 42.3436 31.8107 41.7227 31.7274 41.083C31.4912 39.2866 30.9901 36.9805 31.3563 35.1057C31.59 33.9023 32.0226 32.9283 32.7194 32.0394C33.2039 31.4144 33.7312 30.8239 34.2977 30.2722C34.8716 29.7249 35.4829 29.2181 36.127 28.7555C36.5454 28.4534 36.9892 28.1022 37.4585 27.8884C38.4965 27.4135 39.8485 26.9914 41.2676 26.9268C42.6949 26.8652 44.311 26.8571 45.7288 27.1138C47.0815 27.3588 48.4266 27.5962 49.755 27.8573C51.0566 28.1121 52.3327 28.4664 53.5654 28.7859C53.7239 28.8276 53.8606 28.9258 54.0297 28.9724C54.4219 29.0794 54.867 29.1024 55.3002 29.2192C56.4471 29.5318 57.9582 29.6854 59.358 29.6854C60.8797 29.6854 62.2528 29.6437 63.509 29.3435C63.6956 29.3 63.8379 29.2018 64.0343 29.1272C64.2332 29.0507 64.4713 29.0663 64.6546 29.0029C64.779 28.9594 64.9133 28.8239 65.0575 28.7555C65.75 28.4318 66.4131 28.0485 67.0391 27.6099C67.5501 27.2512 67.969 26.9448 68.6491 26.68C68.9505 26.5625 69.2551 26.4009 69.5485 26.3083C70.1906 26.105 70.8856 25.9129 71.3773 25.5959C72.1481 25.1011 72.7168 24.3906 73.3583 23.8306C74.027 23.2474 74.7088 22.6795 75.4034 22.1274C76.8256 20.993 78.272 19.9561 79.6147 18.8746C80.317 18.3101 81.0633 17.8026 81.8462 17.3566C83.4077 16.4653 84.9896 15.4148 87.2342 15.2507C88.1126 15.186 89.0406 15.1593 89.9307 15.2811C90.1756 15.3153 90.5119 15.452 90.7351 15.4048C90.9818 15.3526 91.1614 14.9803 91.3231 14.6931C91.6581 14.0994 91.8949 13.7054 92.1914 12.9887C92.373 12.5455 92.2971 12.1054 92.7484 12.1215C93.209 12.1389 93.1307 13.3169 93.1512 13.7638C93.1761 14.3046 93.0853 15.03 93.1823 15.4048C93.2482 15.6646 93.5938 16.0482 93.9568 16.0556C94.2054 16.06 94.372 15.8542 94.607 15.7137C94.8494 15.5726 95.0739 15.4893 95.226 15.3744C95.5939 15.099 96.0332 14.6409 96.403 14.2586C96.7098 13.9434 97.1898 13.2044 97.706 13.2684C98.5857 13.374 97.7124 14.6713 97.5182 15.0946C97.058 16.1097 96.6143 16.8662 96.0949 17.821C95.8791 18.2157 95.3826 18.7465 95.3801 19.1543C95.3801 19.4402 95.6277 19.6317 95.7531 19.9282C95.8136 20.0693 95.8479 20.2209 95.909 20.3602C96.2114 21.0626 96.4412 22.0472 96.6837 22.8696C96.8861 23.5626 97.0529 24.2937 97.3031 24.9768C97.5469 25.6438 97.8995 26.271 98.1707 26.9268C98.2407 27.0989 98.2554 27.3096 98.326 27.4856C98.8925 28.932 99.4387 30.5823 100.119 31.9778C100.397 32.5429 100.775 33.2478 100.773 34.0844C100.767 35.0057 100.288 35.4458 99.8722 36.1277C99.6551 36.4882 99.3343 37.037 99.0059 37.1502C98.7627 37.2335 98.4794 37.1458 98.2331 37.18C97.8849 37.2285 97.6424 37.4535 97.3336 37.4908C96.4902 37.5878 95.7359 36.9314 95.5048 36.3135C95.4284 36.1047 95.4622 35.8199 95.4138 35.5701C95.2126 34.565 94.7257 34.0788 94.0208 33.4324C93.5702 33.0222 93.2252 32.7057 92.6565 32.4099C91.8657 31.9996 90.9844 31.746 90.1477 31.2947C89.8387 31.1294 89.4508 30.9647 89.186 31.0168C88.7378 31.1051 88.2909 31.8312 87.949 32.2874C85.761 35.1685 83.8297 38.1292 81.6896 40.9612C80.2767 42.8322 78.7656 44.7331 77.6318 46.8763C77.3477 47.4146 77.178 48.0437 76.9505 48.6727C76.7305 49.2875 76.6242 49.9694 76.3929 50.6246C75.5699 52.9804 75.3138 55.8466 74.5679 58.3063C74.4883 58.5642 74.4585 58.8614 74.3802 59.1417C74.0371 60.3974 73.6927 61.8363 73.2968 63.169C73.0008 64.1624 72.9113 65.5031 72.8616 66.8247C72.8162 68.0486 72.7572 69.7928 73.2035 70.5704C73.4385 70.9844 74.2788 71.1348 74.5984 71.5637C74.8172 71.8602 74.9651 72.4427 75.1858 72.8337C75.3381 73.1041 75.7763 73.6815 75.7434 74.1023C75.7185 74.4181 75.4506 74.64 75.2156 74.7537C74.9558 74.8818 74.5704 74.8035 74.3193 74.9403C74.0396 75.0925 74.1726 75.4338 73.8835 75.6209Z" fill="#4C2418"/>
</svg>
