<svg width="132" height="88" viewBox="0 0 132 88" fill="none" xmlns="http://www.w3.org/2000/svg">
<path fill-rule="evenodd" clip-rule="evenodd" d="M61.2651 8.17129C47.4465 10.1825 35.6282 20.1159 31.7105 33.013C27.2838 47.5862 31.4385 62.0464 42.8582 71.8075C52.473 80.0258 65.5338 82.4622 77.7285 78.3121C83.2777 76.4235 86.7056 74.2182 91.457 69.4795C95.0829 65.8636 96.2115 64.3253 98.1799 60.3185C100.935 54.7112 102.025 50.1109 102.025 44.099C102.025 38.1267 100.936 33.4869 98.2615 28.0655C92.8875 17.1696 82.2611 9.664 70.0371 8.13024C65.4047 7.54938 65.543 7.54836 61.2651 8.17129ZM60.5053 17.3941V20.5944L56.9002 22.0035L53.2951 23.4126L51.0663 21.2234L48.8375 19.0348L44.933 22.9417L41.0285 26.8486L43.2158 29.0788L45.4036 31.3089L43.9954 34.9163L42.5872 38.5236H39.3888H36.191V44.099V49.6745H39.3888H42.5872L43.9954 53.2818L45.4036 56.8891L43.2158 59.1193L41.0285 61.3495L44.933 65.2564L48.8375 69.1632L51.1002 66.9412L53.363 64.7191L56.3643 66.0668C58.0151 66.8079 59.6219 67.4146 59.9355 67.4146C60.2992 67.4146 60.5053 68.6067 60.5053 70.7092V74.0038H66.0774H71.6494V70.8039V67.6036L75.2545 66.1946L78.8596 64.7855L81.0884 66.9746L83.3173 69.1632L87.2227 65.2554L91.1282 61.3475L88.6852 58.8654C87.3418 57.5004 86.4624 56.2474 86.7314 56.0812C87.0009 55.9144 87.7344 54.405 88.3615 52.7263L89.5022 49.6745H92.733H95.9638V44.099V38.5236H92.733H89.5022L88.3615 35.4718C87.7344 33.7931 87.0009 32.2836 86.7314 32.1169C86.4624 31.9506 87.3418 30.6977 88.6852 29.3327L91.1282 26.8506L87.2227 22.9427L83.3173 19.0348L81.0884 21.2234L78.8596 23.4126L75.2545 22.0035L71.6494 20.5944V17.3941V14.1943H66.0774H60.5053V17.3941Z" fill="black" fill-opacity="0.989"/>
</svg>
