<svg width="132" height="88" viewBox="0 0 132 88" fill="none" xmlns="http://www.w3.org/2000/svg">
<path d="M96.9375 39.692C96.9375 22.633 83.0577 8.75391 66 8.75391C48.9405 8.75391 35.0625 22.633 35.0625 39.692C35.0625 53.051 43.5886 64.427 55.4733 68.7453V57.8523C49.2143 54.2106 44.9832 47.4421 44.9832 39.692C44.9832 28.1032 54.4129 18.6762 66 18.6762C77.5871 18.6762 87.0149 28.1032 87.0149 39.692C87.0149 47.4699 82.7566 54.259 76.4591 57.8927V68.7713C88.3785 64.4689 96.9375 53.0768 96.9375 39.692Z" fill="#74C043"/>
<path d="M70.2734 79.245H61.6706V46.3562H51.832V39.0469H80.1684V46.3562H70.2734V79.245Z" fill="#B18F79"/>
</svg>
