<svg width="132" height="88" viewBox="0 0 132 88" fill="none" xmlns="http://www.w3.org/2000/svg">
<path d="M92.7756 10.7266H39.2236C35.6343 10.7266 32.7246 13.6363 32.7246 17.2256V70.7776C32.7246 74.3667 35.6343 77.2766 39.2236 77.2766H92.7756C96.3648 77.2766 99.2746 74.3667 99.2746 70.7776V17.2256C99.2746 13.6363 96.3648 10.7266 92.7756 10.7266Z" fill="url(#paint0_linear_2056_21954)"/>
<path d="M87.5033 19.3789H73.4448C71.7219 19.3789 70.3252 20.7756 70.3252 22.4985V45.3749C70.3252 47.0978 71.7219 48.4945 73.4448 48.4945H87.5033C89.2262 48.4945 90.6229 47.0978 90.6229 45.3749V22.4985C90.6229 20.7756 89.2262 19.3789 87.5033 19.3789Z" fill="white"/>
<path d="M58.5542 19.3789H44.4955C42.7726 19.3789 41.376 20.7756 41.376 22.4985V62.0124C41.376 63.7353 42.7726 65.132 44.4955 65.132H58.5542C60.277 65.132 61.6737 63.7353 61.6737 62.0124V22.4985C61.6737 20.7756 60.277 19.3789 58.5542 19.3789Z" fill="white"/>
<defs>
<linearGradient id="paint0_linear_2056_21954" x1="65.9996" y1="10.7266" x2="65.9996" y2="77.2766" gradientUnits="userSpaceOnUse">
<stop stop-color="#0091E6"/>
<stop offset="1" stop-color="#0079BF"/>
</linearGradient>
</defs>
</svg>
