<svg width="132" height="88" viewBox="0 0 132 88" fill="none" xmlns="http://www.w3.org/2000/svg">
<path d="M103.877 44.002C103.877 64.9208 86.9189 81.8789 66 81.8789C45.0811 81.8789 28.123 64.9208 28.123 44.002C28.123 23.0831 45.0811 6.125 66 6.125C86.9189 6.125 103.877 23.0831 103.877 44.002Z" fill="#161616"/>
<path fill-rule="evenodd" clip-rule="evenodd" d="M59.9939 31.6054L54.6703 31.761V39.3586H60.0941L60.1806 49.3562C60.2623 58.8143 60.2975 59.4199 60.8356 60.578C61.5173 62.0451 63.0092 63.4168 64.4229 63.8754C65.059 64.0819 67.7281 64.2511 71.3918 64.3175L77.3297 64.4247V56.2748L74.47 56.1821C70.115 56.0409 70.3866 56.6298 70.2878 47.1048L70.2075 39.3586H77.3297V31.7414H70.2316V23.5801H60.1449L59.9939 31.6054Z" fill="white"/>
</svg>
