<svg width="132" height="88" viewBox="0 0 132 88" fill="none" xmlns="http://www.w3.org/2000/svg">
<path d="M53.9237 23.5343C53.7115 23.7465 53.5505 24.0023 53.416 24.2826L53.4008 24.2675L32.1528 72.1325L32.1736 72.1534C31.7796 72.9168 32.4388 74.4703 33.7896 75.8229C35.1403 77.1736 36.6937 77.8329 37.4572 77.4389L37.4761 77.4578L85.3412 56.2078L85.326 56.1908C85.6045 56.0582 85.8603 55.8971 86.0743 55.6812C89.0335 52.722 84.2348 43.1267 75.3594 34.2493C66.4801 25.3719 56.8847 20.5752 53.9237 23.5343Z" fill="#DD2E44"/>
<path d="M56.5267 32.082L32.687 70.9295L32.1528 72.1325L32.1736 72.1533C31.7796 72.9168 32.4388 74.4702 33.7896 75.8229C34.2291 76.2624 34.6856 76.5958 35.1327 76.8781L64.1045 41.5543L56.5267 32.082Z" fill="#EA596E"/>
<path d="M75.4937 34.1008C84.3408 42.9516 89.2531 52.3859 86.4607 55.1746C83.6701 57.967 74.2358 53.0566 65.3831 44.2095C56.5341 35.3587 51.6237 25.9206 54.4142 23.13C57.2066 20.3395 66.641 25.2499 75.4937 34.1008Z" fill="#A0041E"/>
<path d="M67.1162 35.13C66.7392 35.435 66.2466 35.5942 65.7257 35.5373C64.0813 35.3593 62.6983 34.7871 61.7303 33.8835C60.7054 32.9268 60.1996 31.6424 60.3379 30.356C60.5803 28.0979 62.8461 26.0253 66.7089 26.4421C68.2112 26.6031 68.8818 26.1201 68.9045 25.8889C68.9311 25.6597 68.3798 25.044 66.8775 24.8811C65.2331 24.703 63.8502 24.1309 62.8802 23.2272C61.8553 22.2705 61.3476 20.9861 61.4878 19.6998C61.7341 17.4416 63.9979 15.3691 67.8569 15.7878C68.9519 15.9052 69.5297 15.6798 69.7741 15.5339C69.9692 15.4146 70.0469 15.3009 70.0545 15.2346C70.0772 15.0054 69.5335 14.3897 68.0274 14.2267C66.9874 14.1131 66.2334 13.181 66.3489 12.1391C66.4607 11.099 67.3909 10.3469 68.4347 10.4606C72.2937 10.8755 74.0669 13.3818 73.8225 15.6419C73.5762 17.9039 71.3124 19.9726 67.4496 19.5577C66.3546 19.4384 65.7825 19.6657 65.5362 19.8116C65.3411 19.929 65.2615 20.0446 65.2539 20.109C65.2293 20.3401 65.7768 20.9539 67.2829 21.1168C71.1419 21.5336 72.9151 24.0381 72.6707 26.2981C72.4263 28.5563 70.1624 30.6288 66.3016 30.2102C65.2066 30.0927 64.6307 30.32 64.3844 30.464C64.1874 30.5853 64.1116 30.6989 64.104 30.7633C64.0794 30.9926 64.6269 31.6083 66.1311 31.7712C67.1692 31.8849 67.9251 32.8188 67.8095 33.8589C67.7565 34.3779 67.4932 34.8269 67.1162 35.13Z" fill="#AA8DD8"/>
<path d="M89.9838 52.6492C93.7215 51.594 96.2999 53.2612 96.9137 55.4492C97.5275 57.6354 96.1976 60.4032 92.4617 61.4546C91.003 61.8638 90.5654 62.561 90.6241 62.7826C90.6885 63.0062 91.4292 63.3737 92.8842 62.9626C96.62 61.9112 99.1983 63.5783 99.8121 65.7645C100.43 67.9526 99.0961 70.7166 95.3583 71.7699C93.9015 72.1791 93.462 72.8781 93.5264 73.0998C93.5889 73.3214 94.3277 73.689 95.7846 73.2798C96.7886 72.9975 97.8381 73.5829 98.1204 74.5888C98.4008 75.5967 97.8154 76.6424 96.8076 76.9266C93.0736 77.978 90.4934 76.3146 89.8758 74.1247C89.262 71.9385 90.5938 69.1745 94.3334 68.1212C95.7921 67.7101 96.2298 67.0148 96.1653 66.7913C96.1047 66.5696 95.3659 66.2002 93.911 66.6094C90.1713 67.6627 87.5949 65.9994 86.9792 63.8075C86.3635 61.6213 87.6953 58.8573 91.433 57.8021C92.888 57.3948 93.3256 56.6939 93.265 56.4741C93.2005 56.2506 92.4636 55.8831 91.0068 56.2923C89.9989 56.5764 88.9551 55.9892 88.6709 54.9832C88.3887 53.9791 88.9759 52.9334 89.9838 52.6492Z" fill="#77B255"/>
<path d="M75.4722 47.5402C74.9152 47.5402 74.3658 47.2958 73.9907 46.8297C73.3372 46.0113 73.4717 44.8197 74.2863 44.1662C74.6993 43.8346 84.5504 36.0977 98.4726 38.0888C99.5089 38.2365 100.229 39.1951 100.081 40.2314C99.9333 41.2658 98.9823 41.9932 97.9365 41.8379C85.6359 40.0912 76.7434 47.0552 76.6562 47.1253C76.3039 47.4057 75.8871 47.5402 75.4722 47.5402Z" fill="#AA8DD8"/>
<path d="M42.7988 39.6601C42.6188 39.6601 42.435 39.6335 42.2532 39.5805C41.251 39.2793 40.6827 38.2241 40.9839 37.2219C43.1303 30.0742 45.0759 18.6677 42.6851 15.6934C42.418 15.3562 42.0145 15.0247 41.09 15.0948C39.313 15.2312 39.4816 18.9803 39.4835 19.0182C39.5631 20.062 38.7788 20.9714 37.7368 21.049C36.6778 21.1135 35.7837 20.3443 35.706 19.3005C35.5109 16.688 36.3236 11.6564 40.8058 11.3173C42.8064 11.1657 44.4678 11.861 45.6404 13.3197C50.1322 18.9102 45.5722 35.1172 44.6137 38.3112C44.3674 39.1315 43.6134 39.6601 42.7988 39.6601Z" fill="#77B255"/>
<path d="M80.2069 30.1872C81.7763 30.1872 83.0486 28.915 83.0486 27.3456C83.0486 25.7762 81.7763 24.5039 80.2069 24.5039C78.6375 24.5039 77.3652 25.7762 77.3652 27.3456C77.3652 28.915 78.6375 30.1872 80.2069 30.1872Z" fill="#5C913B"/>
<path d="M35.6873 47.2379C37.7799 47.2379 39.4762 45.5416 39.4762 43.449C39.4762 41.3565 37.7799 39.6602 35.6873 39.6602C33.5948 39.6602 31.8984 41.3565 31.8984 43.449C31.8984 45.5416 33.5948 47.2379 35.6873 47.2379Z" fill="#9266CC"/>
<path d="M93.4676 49.1326C95.0371 49.1326 96.3093 47.8603 96.3093 46.2909C96.3093 44.7215 95.0371 43.4492 93.4676 43.4492C91.8982 43.4492 90.626 44.7215 90.626 46.2909C90.626 47.8603 91.8982 49.1326 93.4676 49.1326Z" fill="#5C913B"/>
<path d="M76.4178 71.8669C77.9872 71.8669 79.2595 70.5947 79.2595 69.0253C79.2595 67.4559 77.9872 66.1836 76.4178 66.1836C74.8484 66.1836 73.5762 67.4559 73.5762 69.0253C73.5762 70.5947 74.8484 71.8669 76.4178 71.8669Z" fill="#5C913B"/>
<path d="M84.9432 20.7145C87.0357 20.7145 88.7321 19.0182 88.7321 16.9256C88.7321 14.8331 87.0357 13.1367 84.9432 13.1367C82.8506 13.1367 81.1543 14.8331 81.1543 16.9256C81.1543 19.0182 82.8506 20.7145 84.9432 20.7145Z" fill="#FFCC4D"/>
<path d="M93.4676 28.2927C95.0371 28.2927 96.3093 27.0205 96.3093 25.451C96.3093 23.8816 95.0371 22.6094 93.4676 22.6094C91.8982 22.6094 90.626 23.8816 90.626 25.451C90.626 27.0205 91.8982 28.2927 93.4676 28.2927Z" fill="#FFCC4D"/>
<path d="M87.784 35.8708C89.3535 35.8708 90.6257 34.5986 90.6257 33.0292C90.6257 31.4598 89.3535 30.1875 87.784 30.1875C86.2146 30.1875 84.9424 31.4598 84.9424 33.0292C84.9424 34.5986 86.2146 35.8708 87.784 35.8708Z" fill="#FFCC4D"/>
<path d="M46.1063 56.7107C47.6757 56.7107 48.948 55.4384 48.948 53.869C48.948 52.2996 47.6757 51.0273 46.1063 51.0273C44.5369 51.0273 43.2646 52.2996 43.2646 53.869C43.2646 55.4384 44.5369 56.7107 46.1063 56.7107Z" fill="#FFCC4D"/>
</svg>
