<svg width="132" height="88" viewBox="0 0 132 88" fill="none" xmlns="http://www.w3.org/2000/svg">
<path fill-rule="evenodd" clip-rule="evenodd" d="M28 7V81H104V7H28ZM30.9804 9.96H101.02V78.04H30.9804V9.96Z" fill="black"/>
<path d="M75.6863 45.924L83.4353 35.564C83.5843 35.268 83.7333 35.268 83.8824 35.268H89.098C89.3961 35.268 89.5451 35.416 89.2471 35.712C88.0549 37.34 82.3922 44 80.6039 46.368V46.664L90.5882 60.132C90.7373 60.28 90.5882 60.576 90.2902 60.576H84.1804C83.8824 60.576 83.7333 60.428 83.7333 60.28C82.0941 58.06 77.7725 51.844 75.6863 48.736V60.28C75.6863 60.576 75.6863 60.576 75.3882 60.576H70.1725C69.7255 60.28 69.7255 60.132 69.7255 59.836V26.536C69.7255 26.388 69.7255 26.24 70.0235 26.24H75.2392C75.3882 26.24 75.5373 26.388 75.5373 26.536V45.924H75.6863Z" fill="black"/>
<path d="M50.3529 32.16H41.7098C41.4118 32.16 41.4118 32.012 41.4118 31.716L42.0078 26.536C42.0078 26.24 42.1569 26.24 42.4549 26.24H64.2118C64.5098 26.24 64.6588 26.388 64.6588 26.684L65.2549 31.864C65.2549 32.16 65.1059 32.308 64.9569 32.308H56.3137V59.984C56.3137 60.28 56.1647 60.428 55.8667 60.428H50.651C50.3529 60.428 50.2039 60.28 50.2039 59.984V32.16H50.3529Z" fill="black"/>
</svg>
