<svg width="132" height="88" viewBox="0 0 132 88" fill="none" xmlns="http://www.w3.org/2000/svg">
<circle cx="66" cy="44" r="34.375" fill="#030303"/>
<path d="M70.7631 26.9492H59.492V36.6499H55.2754V44.8417H59.492V51.77C59.4648 53.9721 59.8936 55.8048 60.7784 57.2683C61.6632 58.7318 62.9836 59.8054 64.7396 60.4893C66.4956 61.1595 68.6668 61.4262 71.2532 61.2894C72.5327 61.221 73.6354 61.0774 74.561 60.8586C75.5003 60.6398 76.2217 60.4551 76.7254 60.3047L75.0919 52.3444C74.8741 52.3992 74.5338 52.4675 74.071 52.5496C73.6217 52.6317 73.227 52.6727 72.8867 52.6727C72.3966 52.6727 71.9951 52.6043 71.682 52.4675C71.3689 52.3171 71.1375 52.0982 70.9877 51.811C70.838 51.5101 70.7631 51.1408 70.7631 50.7032V44.8417H76.3012V36.6499H70.7631V26.9492Z" fill="white"/>
</svg>
