<svg width="132" height="88" viewBox="0 0 132 88" fill="none" xmlns="http://www.w3.org/2000/svg">
<path d="M35.4328 18.4334C37.8372 15.7622 41.8197 13.4621 44.9835 12.9171C50.4611 11.9741 56.6103 13.5625 60.4413 16.9105C62.3065 18.5407 64.3657 21.6721 65.1436 24.0604C65.9834 26.6406 65.9823 26.6406 66.8145 24.1611C68.3038 19.7262 71.2469 16.4238 75.4855 14.4314C81.3022 11.6974 88.2485 12.1624 93.2659 15.6222C95.0137 16.8274 97.784 19.7983 98.5574 21.2968C101.671 27.3318 101.017 35.8142 96.9542 42.0628C94.9132 45.2024 91.0343 48.7622 84.9113 53.1157C78.9315 57.3671 76.304 59.7006 76.304 60.7592C76.304 61.1528 76.5996 61.841 76.9614 62.2887C77.6081 63.09 77.7323 63.1048 84.7055 63.209L91.7922 63.3149V69.3317V75.3484H65.9785H40.1649V69.3317V63.3149L47.1855 63.209C53.5192 63.1134 54.2767 63.0389 54.9296 62.446C56.8147 60.734 55.3227 58.97 47.0485 53.1267C38.9472 47.4059 34.9148 43.1318 32.9908 38.2274C30.2859 31.3311 31.3122 23.0111 35.4328 18.4334Z" fill="#E32A42"/>
</svg>
