<svg width="132" height="88" viewBox="0 0 132 88" fill="none" xmlns="http://www.w3.org/2000/svg">
<mask id="mask0_2056_25260" style="mask-type:luminance" maskUnits="userSpaceOnUse" x="26" y="4" width="80" height="80">
<path d="M26.0186 4.01953H105.981V83.9818H26.0186V4.01953Z" fill="white"/>
</mask>
<g mask="url(#mask0_2056_25260)">
<mask id="mask1_2056_25260" style="mask-type:luminance" maskUnits="userSpaceOnUse" x="26" y="4" width="80" height="80">
<path d="M26.0176 4.01953H105.98V83.9818H26.0176V4.01953Z" fill="white"/>
</mask>
<g mask="url(#mask1_2056_25260)">
<path d="M105.98 4.01953H26.0176V83.9818H105.98V4.01953Z" fill="#FF88EE"/>
<path d="M60.9677 61.0775C60.3311 61.0775 60.0132 60.7356 60.0132 60.0495V23.4841H47.972C47.2862 23.4841 46.9443 23.1421 46.9443 22.4562V14.0122C46.9443 13.3274 47.2862 12.9844 47.972 12.9844H84.0968C84.7326 12.9844 85.0514 13.3274 85.0514 14.0122V22.4562C85.0514 23.1421 84.7326 23.4841 84.0968 23.4841H72.0554V60.0495C72.0554 60.7356 71.7128 61.0775 71.0269 61.0775H60.9677Z" fill="black"/>
<path d="M84.4136 64.6602H47.5821C47.2292 64.6602 46.9443 64.9459 46.9443 65.2979V74.3787C46.9443 74.7304 47.2292 75.0161 47.5821 75.0161H84.4136C84.7656 75.0161 85.0514 74.7304 85.0514 74.3787V65.2979C85.0514 64.9459 84.7656 64.6602 84.4136 64.6602Z" fill="white"/>
</g>
</g>
</svg>
