<svg width="132" height="88" viewBox="0 0 132 88" fill="none" xmlns="http://www.w3.org/2000/svg">
<path fill-rule="evenodd" clip-rule="evenodd" d="M73.2362 12.4735C71.0899 12.7479 69.3925 13.7169 67.254 15.8889L65.3683 17.8039L63.3248 16.7342C60.7862 15.4057 58.529 14.9008 54.3395 14.7247C47.2069 14.4249 42.2048 16.184 38.2133 20.3962C35.6895 23.0595 34.5887 25.824 34.5887 29.4996C34.5887 33.2972 36.0675 36.936 38.5008 39.1248C39.2709 39.8177 40.005 40.3845 40.1322 40.3845C40.6989 40.3845 40.2604 40.9342 39.0575 41.7318C36.5403 43.4003 34.1356 46.0397 33.3296 48.0185C32.7671 49.3996 32.9029 51.4603 33.6518 52.9078C34.4186 54.3901 36.1532 55.9778 37.8705 56.7699C38.539 57.0782 39.0904 57.3859 39.096 57.4539C39.1018 57.522 38.0643 58.1859 36.7906 58.9293C32.8971 61.2023 31.5148 62.9849 31.4882 65.7672C31.4756 67.0841 31.594 67.4957 32.3369 68.7188C34.3962 72.1087 38.7026 74.1461 46.2692 75.3106C49.023 75.7343 58.7196 75.7284 61.6 75.3011C71.3131 73.8604 77.0327 70.5754 79.2713 65.1518C80.0665 63.2251 80.0441 60.0567 79.221 58.0657C77.3994 53.6583 72.7125 51.1185 64.3773 50.0221C63.4027 49.8939 61.8701 49.6747 60.9717 49.5352C60.0732 49.3954 58.5464 49.1827 57.5788 49.0625C55.4111 48.7928 50.919 48.1568 48.4341 47.7677C45.268 47.2721 44.5296 45.9778 46.5485 44.4621L47.4625 43.7759L49.9011 44.0938C52.917 44.4866 58.2006 44.3003 60.469 43.7212C63.5744 42.9286 66.1426 41.5106 68.2424 39.4291C72.6647 35.0452 73.6655 30.0142 71.1789 24.6678C70.8175 23.891 70.522 23.1614 70.522 23.0464C70.522 22.5383 71.809 22.2479 74.1591 22.2256C77.0028 22.1989 77.9847 21.8033 79.2444 20.178C79.8372 19.4129 79.9134 19.094 79.9134 17.3779C79.9134 15.6583 79.838 15.3439 79.2396 14.5716C77.8096 12.7261 76.0556 12.1131 73.2362 12.4735ZM51.2683 23.1746C50.2341 23.6176 48.8674 24.9864 48.264 26.184C47.5817 27.5372 47.5666 31.6801 48.2389 33.0105C49.3221 35.1546 51.0145 36.179 53.4727 36.179C55.1885 36.179 56.4109 35.658 57.6288 34.4072C58.8751 33.1275 59.2845 31.9089 59.2785 29.4996C59.2705 26.3784 58.1626 24.2155 56.1 23.2936C54.8703 22.7439 52.4146 22.6833 51.2683 23.1746ZM89.0233 42.3329C85.3628 43.1129 82.7375 46.361 82.7422 50.1037C82.746 53.1361 85.2208 56.406 87.8222 56.8154C88.8597 56.9787 90.3483 56.8033 91.0814 56.4313C91.8575 56.0372 91.7947 56.6316 90.865 58.4774C90.0967 60.003 89.3825 60.85 86.4696 63.6905C84.5568 65.556 82.9916 67.1788 82.9916 67.2971C82.9916 67.5519 87.1882 72.1361 87.5312 72.2559C88.1917 72.4864 94.5233 66.5651 96.517 63.8525C100.538 58.3814 101.595 52.3744 99.3635 47.6803C97.9197 44.6432 94.8105 42.4902 91.5366 42.2602C90.6381 42.1971 89.5071 42.2297 89.0233 42.3329ZM46.5206 60.3758C44.8799 61.8579 44.3843 62.6401 44.3843 63.7479C44.3843 65.1419 44.992 65.8707 46.8211 66.6709C49.2135 67.7171 52.8763 68.1849 57.3061 68.0098C63.0963 67.7807 66.1165 66.9223 66.9124 65.2797C67.2666 64.5481 67.2819 64.3003 67.0117 63.6585C66.3683 62.1292 64.4824 61.5256 58.0814 60.7993C56.1463 60.5796 53.3189 60.239 51.7984 60.0423C47.9091 59.5389 47.4125 59.5703 46.5206 60.3758Z" fill="black"/>
</svg>
