<svg width="132" height="88" viewBox="0 0 132 88" fill="none" xmlns="http://www.w3.org/2000/svg">
<path d="M55.6559 30.9263H48.2834C47.7194 30.9263 47.4375 29.8917 47.4375 27.8221C47.4375 27.2649 47.4782 26.9069 47.5585 26.7476C50.7812 25.3149 53.8838 23.2059 56.865 20.4202C57.9125 19.3855 59.0403 18.2314 60.2486 16.9579C61.5381 15.6048 62.5856 14.411 63.3908 13.3763C64.2774 12.3415 64.7213 11.8242 64.7213 11.8242C65.5262 11.8242 66.2918 11.9436 67.0175 12.1824C67.7421 12.3415 68.1046 12.5405 68.1046 12.7793V24.4794C70.1995 24.4794 73.1005 24.519 76.8064 24.5988H82.8495C83.4949 24.5988 83.8167 24.9568 83.8167 25.6732C83.8167 27.5834 83.4135 29.3346 82.6083 30.9263H68.1046V59.6987C68.1046 62.8824 68.7896 65.3101 70.1597 66.9813C71.5297 68.6524 73.4231 69.489 75.8406 69.489C76.6458 69.489 77.4914 69.4084 78.378 69.2494C79.2646 69.0113 79.9895 68.772 80.5533 68.5336C81.1173 68.2944 81.6414 68.0559 82.1249 67.8167C82.6083 67.5785 82.8905 67.4589 82.9708 67.4589C83.2934 67.3794 83.6558 67.7372 84.059 68.5336C84.4618 69.3289 84.6227 69.8467 84.5424 70.0852C84.059 71.2003 82.3265 72.5134 79.3452 74.0257C76.4442 75.4584 73.5839 76.1742 70.7644 76.1742C66.5736 76.1742 62.9887 74.8611 60.0075 72.2348C57.1065 69.528 55.6559 65.3895 55.6559 59.818V30.9263Z" fill="black"/>
</svg>
