<svg width="132" height="88" viewBox="0 0 132 88" fill="none" xmlns="http://www.w3.org/2000/svg">
<path d="M41.8082 81.9508H58.9995V79.6515H56.3632C54.3693 79.6515 53.3946 78.9882 54.2143 76.0256L59.509 58.2058V57.0561L62.1453 48.9642L58.9995 43.0169H57.5152L55.034 51.9268C53.0401 59.0238 49.2519 61.9864 44.2894 65.3028V67.1157H45.951C48.2549 65.966 50.426 64.1531 51.9103 62.8266L48.0999 76.0256C47.2802 78.6566 46.2833 79.6515 44.6217 79.6515H41.8082V81.9508Z" fill="black"/>
<path d="M48.255 55.8843C73.7095 55.8843 85.4509 38.8826 85.4509 23.539C85.4509 14.6291 79.4916 6.05078 68.4148 6.05078C64.2721 6.05078 62.6327 8.04059 62.6327 9.85352C62.6327 11.5117 63.9619 12.993 65.9336 12.993C68.4148 12.993 69.0794 10.6937 69.0794 9.03549C74.8615 9.03549 79.6688 19.7583 79.6688 29.8179C79.6688 35.7652 77.8522 41.5356 73.5544 44.3435L73.0671 44.1887L63.4745 21.2617C62.9872 20.2668 62.8099 19.4488 62.8099 18.9624C62.8099 17.6359 63.8068 17.1495 65.7785 17.1495H68.4148V14.8501H49.5621V17.1495H51.3787C54.3472 17.1495 55.5214 18.2991 57.1608 21.925L67.0856 45.0288C62.9429 50.9762 54.5245 53.2755 47.0809 53.2755C40.6342 53.2755 34.8521 51.7942 33.5228 49.318C32.8582 48.1683 32.8582 47.3282 32.8582 46.3554C32.8582 43.2159 30.8644 41.403 28.5604 41.403C26.5666 41.403 24.75 42.8843 24.75 45.0288C24.75 51.9489 38.308 55.9286 48.2328 55.9286L48.255 55.8843Z" fill="url(#paint0_linear_2056_26998)"/>
<path d="M85.6059 68.9065C89.4163 68.9065 93.2046 67.4252 95.6858 64.949V63.2908H94.0243C92.54 64.6174 90.5462 65.767 88.3973 65.767C84.5868 65.767 80.4663 63.4677 80.4663 56.7024C80.4663 53.4081 83.9444 45.471 89.5493 45.471C92.6951 45.471 91.6982 50.5782 87.4004 52.568C85.0964 53.7177 82.2829 54.2262 80.4663 54.3809L80.134 56.1939C91.5431 55.8622 107.25 47.4387 107.25 39.7006C107.25 37.0696 105.256 35.7431 103.44 35.7431C101.623 35.7431 99.8064 36.8928 99.8064 39.369C99.8064 40.8503 100.626 41.1819 100.626 42.3316C100.626 44.6309 97.4803 48.4336 94.0021 50.2466C94.8218 49.4285 95.1541 48.4336 95.1541 47.6156C95.1541 45.3163 92.8501 42.9948 88.22 42.9948C85.5838 42.9948 82.593 43.8129 79.9567 45.471C75.6589 48.102 73.51 52.7228 73.51 57.1888C73.51 64.949 79.4694 68.9065 85.5838 68.9065H85.6059Z" fill="black"/>
<path d="M57.6703 48.9421L58.1577 46.6428H55.8537C53.7048 46.6428 52.2205 46.1564 53.0402 43.0169L57.6703 25.8604H68.9244L72.2253 31.1444H74.0419V29.3315L71.4056 21.4165H38.8176L34.6749 29.3315V31.1444H36.1592L40.6342 25.8604H49.7172L45.4194 42.3537C44.5997 45.8248 43.4255 46.6428 40.457 46.6428H38.3081V48.9421H57.6703Z" fill="black"/>
<path d="M54.3695 74.3674C62.81 74.3674 72.0702 69.415 72.0702 62.1633C72.0702 58.3606 69.7662 54.9116 64.4715 54.9116C62.3226 54.9116 59.9965 55.9065 59.0217 56.9014V59.5323C60.506 55.5748 65.8007 55.9065 65.8007 60.3504C65.8007 66.4524 60.3509 72.8861 54.3916 72.8861V74.3674H54.3695Z" fill="black"/>
<defs>
<linearGradient id="paint0_linear_2056_26998" x1="24.7801" y1="43.9671" x2="107.25" y2="43.9671" gradientUnits="userSpaceOnUse">
<stop stop-color="#CCCBCA"/>
<stop offset="1"/>
</linearGradient>
</defs>
</svg>
