<svg width="132" height="88" viewBox="0 0 132 88" fill="none" xmlns="http://www.w3.org/2000/svg">
<path fill-rule="evenodd" clip-rule="evenodd" d="M43.4977 25.6111H36.5742V39.4573H43.1516V49.9595C43.1516 59.3607 43.225 60.7485 43.8502 63.1937C45.1206 68.1603 48.1791 71.8963 52.9356 74.2917C56.8834 76.2793 59.8373 76.8934 66.4319 77.0973L72.2304 77.2766V61.6111H69.6971C65.2262 61.6111 62.4031 60.2618 61.2874 57.5919C60.9215 56.7158 60.8066 54.4132 60.8066 47.9491V39.4573H71.538V25.6111H60.8066V10.7266H43.4977V25.6111ZM78.8077 76.4956H95.4242V61.6111H78.8077V76.4956Z" fill="black" fill-opacity="0.196"/>
<path fill-rule="evenodd" clip-rule="evenodd" d="M43.8439 25.6111H36.5742V39.1111H43.0806L43.245 50.2745C43.4226 62.3314 43.5462 63.266 45.4678 67.09C47.3988 70.933 51.7572 74.1629 57.1717 75.7639C61.1801 76.9491 67.6266 77.5119 70.9322 76.9657L72.2304 76.7511V62.06L69.3744 61.8534C66.0968 61.6163 64.5609 61.169 62.9698 59.9876C60.7131 58.3126 60.6338 57.909 60.6338 48.1111L60.6335 39.2842L71.538 39.0935V25.6288L60.6335 25.4381L60.4466 10.7266H43.8439V25.6111Z" fill="black" fill-opacity="0.922"/>
</svg>
