<svg width="132" height="88" viewBox="0 0 132 88" fill="none" xmlns="http://www.w3.org/2000/svg">
<path d="M40.1555 11.8242H41.987C43.7895 12.029 45.4165 12.5701 46.6313 13.9869C48.1033 15.7057 47.9005 18.3838 46.696 20.1795C45.4659 22.0144 43.6413 23.2792 41.6207 24.2846C41.5548 24.3176 41.5582 24.3403 41.6309 24.3528C47.8034 25.3719 53.6301 27.4662 59.7022 28.859C59.7336 28.8659 59.7665 28.8621 59.7958 28.8482C59.825 28.8344 59.849 28.8112 59.864 28.7822C61.7143 25.1397 65.0842 22.7586 69.3486 23.0573C72.4119 23.2724 71.5975 26.0905 70.1357 27.4901C67.8698 29.6596 64.7861 30.4311 61.6683 30.3884C61.6083 30.3876 61.55 30.4078 61.5033 30.4455C61.4567 30.4832 61.4246 30.5361 61.4127 30.595C60.8721 33.3123 60.5699 36.0565 60.5063 38.8273C60.5052 38.8808 60.5313 38.903 60.5847 38.8939C63.0091 38.4808 65.4215 38.0268 67.8919 37.9773C67.905 37.9769 67.9179 37.9799 67.9295 37.986C67.9411 37.9921 67.9509 38.001 67.9581 38.0119C67.9653 38.0229 67.9695 38.0355 67.9705 38.0485C67.9714 38.0616 67.969 38.0747 67.9635 38.0865C67.88 38.264 67.7284 38.3716 67.5205 38.3835C65.1132 38.5252 63.2289 39.0424 60.5148 39.8327C60.4592 39.8486 60.4297 39.8856 60.4263 39.9436C60.3626 41.0861 60.2706 42.2229 60.1503 43.354C59.341 50.9736 55.0783 59.8375 46.1082 59.8C41.0005 59.7795 36.6049 55.1179 36.6015 50.0468C36.6015 49.7173 36.8094 49.5296 37.1229 49.5483C37.1853 49.5529 37.2183 49.5865 37.2217 49.649C37.4738 55.7034 42.6037 60.6056 48.8103 58.9977C56.8791 56.9085 57.4703 46.9385 57.7412 40.3328C57.7419 40.3177 57.7395 40.3025 57.7341 40.2884C57.7288 40.2742 57.7206 40.2613 57.71 40.2504C57.6995 40.2395 57.6869 40.2309 57.6729 40.2251C57.6589 40.2193 57.6439 40.2165 57.6288 40.2167C55.7274 40.2543 51.8021 39.5664 51.5312 37.0573C51.2637 34.5789 54.7614 33.3158 56.6883 33.1485C56.7064 33.1466 56.7247 33.1503 56.7408 33.1591C56.7569 33.1679 56.7701 33.1815 56.7786 33.198L56.845 33.3311C56.8734 33.388 56.8564 33.425 56.7939 33.4421C55.5468 33.7715 52.2161 35.0619 52.7544 36.8832C53.2349 38.5081 56.322 38.9605 57.7054 39.0373C57.7679 39.0418 57.8008 39.0128 57.8042 38.9502C57.978 35.6115 58.1041 33.0427 59.1553 30.2928C59.1593 30.2823 59.1609 30.271 59.16 30.2597C59.1592 30.2485 59.1558 30.2376 59.1503 30.2279C59.1447 30.2182 59.137 30.21 59.1279 30.2038C59.1187 30.1976 59.1083 30.1936 59.0974 30.1921C54.1532 29.4428 49.3044 28.1302 44.4062 27.1009C44.3222 27.0827 44.3034 27.1106 44.35 27.1846C46.2326 30.2024 45.0639 33.9012 42.5066 36.1219C39.9919 38.3067 35.9422 39.3445 32.7341 38.6652C27.0965 37.472 25.6824 31.9554 29.2057 27.7274C29.2682 27.6523 29.2551 27.6363 29.1665 27.6796C22.3721 31.0166 22.752 40.0768 30.124 42.2616C38.2354 44.6649 45.7147 39.6398 47.1799 31.4552C47.2174 31.247 47.3673 31.1036 47.5785 31.1702C47.6387 31.1884 47.6671 31.2294 47.6637 31.2931C47.4014 35.4084 45.086 39.1209 41.8336 41.5549C38.3739 44.1437 34.6025 45.0029 30.5193 44.1324C26.599 43.2977 23.9463 40.9234 23.4062 36.7347V35.0704C24.1235 29.2363 28.7099 25.2421 34.2896 24.2999C34.2999 24.2984 34.3096 24.2939 34.3175 24.2869C34.3253 24.28 34.331 24.271 34.3339 24.2609C34.3368 24.2508 34.3367 24.2401 34.3337 24.2301C34.3306 24.2201 34.3248 24.2111 34.3168 24.2043C32.1991 22.2926 31.5244 19.5838 32.5228 16.9159C33.7239 13.712 36.8451 12.0871 40.1555 11.8242ZM36.3357 19.1349C36.6748 20.5635 38.0497 21.8727 39.1963 22.7023C39.2383 22.7319 39.2826 22.7358 39.3292 22.7142C41.4673 21.7276 43.7043 19.7954 43.7213 17.3341C43.7384 14.6167 41.0567 13.7138 38.8811 14.656C37.1859 15.3882 35.8843 17.2402 36.3357 19.1349ZM61.9443 29.2209C63.3072 29.3825 64.5464 29.3518 65.6618 29.1287C67.2411 28.8113 69.3742 27.7444 70.0403 26.1622C70.9739 23.9483 68.7813 23.5233 67.2309 23.7708C64.292 24.2385 62.6973 26.4438 61.8727 29.1117C61.8523 29.1765 61.8761 29.2129 61.9443 29.2209ZM40.1469 33.1912C41.8524 29.8183 39.3411 27.9715 36.7003 26.2441C36.6538 26.2145 36.6049 26.2099 36.5538 26.2304C33.8841 27.3382 31.7238 29.8149 31.734 32.761C31.7425 35.347 33.9386 36.5606 36.2693 36.0622C38.082 35.6753 39.3746 34.7183 40.1469 33.1912Z" fill="#0C0C0D"/>
<path d="M94.9094 76.1742H92.8224C87.8339 75.7646 83.67 72.7246 82.6836 67.6551C81.7687 62.9526 83.2816 58.2364 87.454 55.6659C87.5664 55.5964 87.5568 55.56 87.425 55.5566C86.4346 55.5248 85.4674 55.3609 84.5236 55.065C84.4691 55.048 84.418 55.0542 84.3703 55.0838C81.7261 56.7179 78.8394 57.503 75.7103 57.4393C70.9024 57.3403 67.2871 54.4608 67.1218 49.3811C67.1221 49.3694 67.1181 49.3581 67.1106 49.3492C67.1031 49.3403 67.0925 49.3344 67.081 49.3327C67.0695 49.3311 67.0578 49.3336 67.048 49.34C67.0383 49.3464 67.0312 49.3562 67.0281 49.3674C66.7096 50.3659 65.8986 51.7502 64.8287 52.0643C63.7894 52.3715 62.561 51.868 62.0005 50.9907C60.261 48.2613 61.8029 41.4286 65.3074 40.5103C66.3092 40.2475 67.0423 40.6611 67.5069 41.7512C67.5307 41.8081 67.5733 41.8332 67.6347 41.8263C68.6296 41.7239 69.3452 41.9919 69.2072 43.1901C69.0368 44.682 68.8778 46.1755 68.7302 47.6708C67.8033 57.0877 76.6763 58.7366 83.1078 54.7288C83.2134 54.6628 83.2129 54.5979 83.1061 54.5342L81.6136 53.6398C81.5614 53.609 81.5097 53.6113 81.4586 53.6466C79.4698 55.0303 77.3697 55.3683 75.1583 54.6605C69.8648 52.9638 69.2583 45.3272 72.2228 41.3723C73.1036 40.198 75.0509 39.254 76.3969 40.2014C78.012 41.3399 76.8961 43.6903 75.7903 44.7229C75.7825 44.7305 75.7732 44.7364 75.7629 44.7402C75.7526 44.744 75.7416 44.7456 75.7306 44.745C75.7196 44.7443 75.7088 44.7414 75.6989 44.7365C75.6889 44.7315 75.68 44.7246 75.6728 44.7161C75.624 44.6604 75.6177 44.5966 75.6541 44.5249C76.0442 43.75 76.5059 42.6064 76.4395 41.7325C76.3543 40.6093 75.5178 40.0034 74.4615 40.5564C72.2603 41.7103 71.9434 45.8922 72.2177 48.0531C72.5754 50.8558 73.998 53.3462 76.9438 53.9043C78.3772 54.1752 79.6964 53.9214 80.9015 53.1431C80.9617 53.1044 80.9657 53.0606 80.9134 53.0116C77.5758 49.9085 77.4106 45.0251 80.082 41.5054C80.7788 40.5871 81.8828 39.7542 83.0805 39.86C84.3208 39.9709 84.1317 41.6232 83.8608 42.434C83.1589 44.5346 81.8857 46.1283 80.0411 47.215C79.9923 47.2446 79.9713 47.2873 79.9781 47.343C80.3143 50.2265 81.7573 52.3266 84.3072 53.6432C84.3466 53.6636 84.3914 53.6713 84.4353 53.6651C84.4792 53.659 84.5202 53.6394 84.5525 53.609C88.2956 50.0399 90.5036 44.484 89.1815 39.295C88.3217 35.921 86.2324 33.8329 82.9136 33.0307C78.6015 31.9895 74.4001 34.1692 71.6742 37.4447C71.5498 37.5932 71.4408 37.6257 71.2568 37.6462C71.2383 37.648 71.2197 37.6444 71.2032 37.636C71.1867 37.6276 71.173 37.6146 71.1637 37.5986C71.1545 37.5827 71.1502 37.5645 71.1513 37.5463C71.1524 37.528 71.1588 37.5105 71.1699 37.4959C74.6659 32.732 80.542 30.4857 86.1319 32.8685C89.5104 34.3092 91.3538 38.0473 91.4185 41.7393C91.5054 46.5288 89.3536 51.0675 85.7009 54.1279C85.6497 54.17 85.656 54.2008 85.7196 54.2201C92.0881 56.084 96.5842 51.1562 97.2657 45.194C97.2725 45.1349 97.2571 45.082 97.2197 45.0353C93.739 40.7647 90.6076 36.3284 90.5718 30.6871C90.5496 27.0019 92.6299 23.962 96.3678 23.2143C100.162 22.4548 103.949 24.6242 104.23 28.7276C104.307 29.832 104.069 30.9551 103.028 31.416C102.611 31.6003 102.34 31.503 102.215 31.1241C102.196 31.0661 102.214 31.0245 102.269 30.9995C103.224 30.5625 103.586 29.7893 103.517 28.7276C103.275 25.0288 99.702 22.9361 96.2468 23.88C93.4732 24.6379 92.1477 27.1197 92.1682 29.8781C92.2278 38.2419 98.7513 43.5281 103.695 49.2889C107.689 53.9402 109.527 58.5283 108.129 64.738C106.665 71.2328 101.499 75.6383 94.9094 76.1742ZM82.6972 40.3311C80.8453 40.8398 80.036 45.0148 79.9764 46.6022C79.976 46.6192 79.9802 46.6359 79.9885 46.6506C79.9968 46.6653 80.0089 46.6775 80.0236 46.6859C80.0382 46.6943 80.0549 46.6986 80.0718 46.6983C80.0887 46.698 80.1051 46.6931 80.1195 46.6842C81.7806 45.6395 82.9885 43.9053 83.3872 41.9817C83.4775 41.5447 83.561 40.0955 82.6972 40.3311ZM66.4029 41.0736C65.8032 40.611 64.9888 41.2358 64.6583 41.7273C63.2629 43.8115 62.5423 48.5788 63.6241 50.7807C64.4146 52.3869 65.9548 50.7124 66.3569 49.8573C67.1184 48.2409 68.2514 42.5057 66.4029 41.0736ZM95.0406 54.1535C99.9916 54.7561 103.529 58.3798 103.511 63.5347C103.51 63.7463 103.43 63.9022 103.271 64.0023C103.243 64.0202 103.21 64.0301 103.176 64.031C103.142 64.0318 103.108 64.0237 103.079 64.0074C103.049 63.9911 103.024 63.9671 103.007 63.938C102.99 63.909 102.98 63.8758 102.98 63.8419C102.903 56.1421 94.6436 52.8717 88.4115 55.9987C82.0293 59.2025 81.5489 68.5871 86.9667 72.9789C91.2362 76.4388 97.6047 76.0616 101.69 72.6956C103.646 71.0843 104.91 68.9626 105.612 66.5388C108.176 57.6817 103.048 51.9465 97.833 45.7863C97.823 45.7741 97.8096 45.7652 97.7945 45.7606C97.7794 45.756 97.7632 45.756 97.7481 45.7606C97.733 45.7651 97.7196 45.7741 97.7095 45.7862C97.6995 45.7984 97.6932 45.8133 97.6916 45.829C97.3253 48.9936 95.918 52.0029 93.2347 53.8668C93.1631 53.9169 93.1711 53.9464 93.2585 53.9555C93.8616 54.017 94.4557 54.083 95.0406 54.1535Z" fill="#0C0C0D"/>
</svg>
