<svg width="132" height="88" viewBox="0 0 132 88" fill="none" xmlns="http://www.w3.org/2000/svg">
<path fill-rule="evenodd" clip-rule="evenodd" d="M100.015 43.9986C100.015 62.7841 84.7861 78.0128 66.0005 78.0128C47.215 78.0128 31.9863 62.7841 31.9863 43.9986C31.9863 25.2131 47.215 9.98438 66.0005 9.98438C84.7861 9.98438 100.015 25.2131 100.015 43.9986ZM44.8186 49.5474C44.8186 47.2074 45.4886 45.2398 46.8285 43.6448C48.1682 42.0508 50.1522 41.067 52.7806 40.6935C52.0685 39.2602 51.6777 37.6887 51.6355 36.0887C51.6344 34.4805 52.1322 32.9115 53.0603 31.5982C54.0013 30.224 55.2407 29.0803 56.6859 28.2525C58.0673 27.4282 59.6442 26.9889 61.2528 26.9804C63.0167 26.9802 64.488 27.4679 65.6669 28.4434C66.8457 29.4189 67.4351 30.585 67.4351 31.9417C67.4387 32.947 67.1418 33.9304 66.5826 34.7659C66.0141 35.6309 65.4162 36.0634 64.7888 36.0634C64.7246 36.0707 64.6596 36.063 64.5989 36.0409C64.5382 36.0188 64.4835 35.9829 64.4391 35.936C64.3947 35.8891 64.3618 35.8325 64.343 35.7707C64.3242 35.7089 64.3201 35.6436 64.3309 35.5799C64.3773 35.3062 64.463 35.0405 64.5853 34.7912C64.8516 34.1545 64.9899 33.4716 64.9923 32.7815C65.0012 32.2979 64.8923 31.8194 64.6752 31.3873C64.458 30.9551 64.139 30.5822 63.7457 30.3007C62.881 29.6537 61.8231 29.3176 60.7435 29.3468C58.8603 29.3464 57.1003 30.1224 55.4635 31.6746C53.8267 33.2269 53.0083 35.0036 53.0083 37.0047C52.9883 37.7791 53.1094 38.5507 53.3658 39.2817C53.5025 39.7225 53.7229 40.1329 54.0148 40.4903C54.2427 40.6889 54.5398 40.7896 54.8415 40.7703C57.1823 40.7703 58.3527 41.4486 58.3527 42.8053C58.3466 43.1608 58.216 43.503 57.9836 43.7722C57.8516 43.9275 57.6851 44.0499 57.4973 44.1294C57.3095 44.2089 57.1058 44.2433 56.9023 44.23C56.3767 44.23 55.7067 43.8824 54.8924 43.187C54.0272 42.4406 53.1792 42.0674 52.3483 42.0674C51.2795 42.0676 50.266 42.5976 49.3079 43.6575C48.3621 44.686 47.8479 46.0387 47.8716 47.4357C47.8725 50.2691 49.2807 52.9452 52.0962 55.4641C54.9116 57.9829 58.4141 59.2423 62.6036 59.2423C66.5734 59.2421 69.9699 58.254 72.7932 56.2781C75.6166 54.3021 77.0282 51.9403 77.0282 49.1927C77.0323 48.296 76.8488 47.4084 76.4895 46.5868C76.1302 45.7653 75.603 45.028 74.9418 44.4223C73.5508 43.0739 71.6682 42.3996 69.2938 42.3996C67.4617 42.3735 65.6678 42.9254 64.1673 43.977C62.6662 45.0294 61.9156 46.3439 61.9156 47.9205C61.8819 48.7755 62.1726 49.6116 62.7296 50.2611C63.2723 50.8717 63.8321 51.1771 64.409 51.1771C65.0705 51.1773 65.4012 50.8211 65.4012 50.1084L65.3756 49.8032C65.3588 49.5828 65.3503 49.4302 65.3503 49.3453C65.3241 48.6768 65.5409 48.0214 65.9608 47.5006C66.1468 47.269 66.3835 47.0833 66.6526 46.9576C66.9216 46.8319 67.216 46.7697 67.5129 46.7757C68.0921 46.7698 68.65 46.9935 69.0648 47.3978C69.2916 47.6253 69.4679 47.8982 69.5819 48.1985C69.6959 48.4989 69.7452 48.82 69.7264 49.1407C69.739 49.6386 69.647 50.1337 69.4564 50.5938C69.2657 51.054 68.9806 51.469 68.6195 51.8121C68.2414 52.1698 67.7958 52.4485 67.3087 52.632C66.8216 52.8155 66.3028 52.9001 65.7826 52.8807C65.1193 52.8804 64.4626 52.7492 63.8502 52.4945C63.2377 52.2398 62.6816 51.8666 62.2137 51.3965C61.7458 50.9263 61.3753 50.3684 61.1235 49.7548C60.8718 49.1411 60.7437 48.4837 60.7466 47.8204C60.7471 45.7341 61.6206 43.8344 63.367 42.1213C65.1135 40.4083 68.2851 39.5517 72.882 39.5517C77.0032 39.5517 79.9968 38.9834 81.863 37.8467C83.7288 36.7266 84.6617 35.0216 84.6617 32.7317C84.684 32.1195 84.5854 31.5089 84.3715 30.9349C84.1575 30.3608 83.8324 29.8346 83.4148 29.3864C83.0113 28.9575 82.5216 28.619 81.9778 28.3932C81.434 28.1673 80.8486 28.0592 80.26 28.076C79.7745 28.0466 79.2894 28.1383 78.8482 28.343C78.6992 28.4218 78.5758 28.5415 78.4924 28.6879C78.409 28.8344 78.3691 29.0016 78.3774 29.1699C78.4343 29.5445 78.5926 29.8964 78.8352 30.1874C79.1937 30.6568 79.3982 31.2256 79.4204 31.8157C79.42 32.1263 79.3553 32.4334 79.2304 32.7178C79.1054 33.0021 78.9229 33.2576 78.6944 33.4679C78.459 33.7016 78.1787 33.8851 77.8704 34.0076C77.5621 34.1301 77.2322 34.1888 76.9006 34.1804C76.0516 34.1808 75.4071 33.9094 74.9671 33.3662C74.5276 32.8286 74.2931 32.1525 74.3054 31.4582C74.3065 30.306 74.8709 29.2715 75.9986 28.3548C77.1263 27.4382 78.5637 26.9798 80.3109 26.9798C81.1578 26.9618 81.9985 27.1289 82.7742 27.4694C83.5498 27.81 84.2418 28.3158 84.8016 28.9516C85.9886 30.243 86.6311 31.9428 86.5952 33.6964C86.6045 35.4141 86.0649 37.0899 85.0552 38.4795C84.0968 39.8678 82.7393 40.9323 81.1626 41.532C79.5932 42.1256 77.3925 42.4733 74.5604 42.5751C77.2737 44.4918 78.6304 46.9513 78.6304 49.9533C78.6304 52.2094 77.7993 54.389 76.1372 56.492C74.55 58.537 72.4713 60.1474 70.0946 61.1733C67.7296 62.191 64.8421 62.6999 61.4321 62.6999C58.6675 62.6995 56.4286 62.3985 54.7155 61.7968C52.9592 61.1718 51.3078 60.2838 49.8178 59.1634C48.2949 58.0438 47.0429 56.5966 46.1542 54.9284C45.2678 53.274 44.8087 51.4243 44.8186 49.5474Z" fill="#916A70"/>
</svg>
