<svg width="132" height="88" viewBox="0 0 132 88" fill="none" xmlns="http://www.w3.org/2000/svg">
<path fill-rule="evenodd" clip-rule="evenodd" d="M76.6728 20.4675C71.4336 21.1947 69.4998 21.5269 66.5252 22.2117C47.3725 26.619 44.2445 27.1134 36.4851 26.9603L31.5029 26.862V29.6787C31.5031 31.5057 31.6057 32.5686 31.795 32.7043C32.3433 33.0967 39.4916 33.1891 42.7145 32.8453C47.3567 32.3497 51.4495 31.5949 60.1106 29.6362C72.1631 26.9109 74.128 26.563 79.8377 26.1424C87.1509 25.6041 94.5108 26.7275 100.181 29.2474C100.442 29.3633 100.512 28.7777 100.512 26.488V23.5815L98.9439 22.859C97.1326 22.0242 92.4909 20.7625 89.641 20.3298C87.041 19.9351 79.9676 20.0103 76.6728 20.4675ZM74.9162 32.2582C71.6514 32.7424 68.5166 33.394 55.3981 36.3156C46.8721 38.2141 44.9107 38.4568 37.9569 38.4727L31.4873 38.4879L31.5578 41.3943L31.6286 44.3008L33.2597 44.5356C35.6793 44.8841 42.8836 44.535 47.3125 43.8552C50.8719 43.3085 59.3274 41.5164 62.9964 40.5308C64.5319 40.1181 70.8012 38.8875 74.1199 38.3472C83.383 36.8387 93.2796 37.7845 100.082 40.8281C100.498 41.0139 100.525 40.8092 100.459 38.0571L100.387 35.0858L99.1321 34.5278C97.1868 33.6623 93.2131 32.5532 90.3961 32.0893C86.8176 31.5002 79.4861 31.5801 74.9162 32.2582ZM76.6728 43.7192C71.4336 44.4464 69.4998 44.7786 66.5252 45.4634C47.3725 49.8707 44.2445 50.3651 36.4851 50.2119L31.5029 50.1137V52.9303C31.5031 54.7573 31.6057 55.8202 31.795 55.956C32.3433 56.3483 39.4916 56.4408 42.7145 56.0969C47.3567 55.6014 51.4495 54.8466 60.1106 52.8879C72.1631 50.1625 74.128 49.8146 79.8377 49.394C87.1509 48.8558 94.5108 49.9791 100.181 52.499C100.442 52.615 100.512 52.0293 100.512 49.7396V46.8332L98.9439 46.1106C97.1326 45.2759 92.4909 44.0142 89.641 43.5814C87.041 43.1867 79.9676 43.262 76.6728 43.7192ZM74.9162 55.5098C71.6514 55.994 68.5166 56.6457 55.3981 59.5672C46.8721 61.4657 44.9107 61.7084 37.9569 61.7244L31.4873 61.7395L31.5578 64.646L31.6286 67.5524L33.2597 67.7873C35.6793 68.1358 42.8836 67.7867 47.3125 67.1069C50.8719 66.5602 59.3274 64.768 62.9964 63.7825C64.5319 63.3697 70.8012 62.1392 74.1199 61.5988C83.383 60.0904 93.2796 61.0362 100.082 64.0798C100.498 64.2655 100.525 64.0609 100.459 61.3088L100.387 58.3375L99.1321 57.7795C97.1868 56.9139 93.2131 55.8048 90.3961 55.341C86.8176 54.7518 79.4861 54.8317 74.9162 55.5098Z" fill="#E89724"/>
</svg>
