<svg width="132" height="88" viewBox="0 0 132 88" fill="none" xmlns="http://www.w3.org/2000/svg">
<path fill-rule="evenodd" clip-rule="evenodd" d="M32.8945 43.9991V76.9906L65.942 76.9328L98.9895 76.8752L99.047 43.9415L99.1048 11.0078H65.9996H32.8945V43.9991ZM33.0053 44.1122C33.0053 62.257 33.0322 69.6462 33.0652 60.5328C33.0982 51.4192 33.0982 36.5735 33.0652 27.5422C33.0322 18.5108 33.0053 25.9673 33.0053 44.1122ZM44.0431 35.9214V37.8553H48.1385H52.2338V46.8424V55.8295H54.3953H56.5567V46.8424V37.8553H60.6521H64.7475V35.9214V33.9875H54.3953H44.0431V35.9214ZM67.0227 44.9085V55.8295H69.181H71.339L71.3993 48.8553L71.4594 41.8813L77.3749 48.8494L83.2905 55.8174L84.7125 55.8236L86.1345 55.8295V44.9085V33.9875H83.9762H81.8182L81.7579 40.9442L81.6978 47.9008L75.8098 40.9442L69.9218 33.9875H68.4723H67.0227V44.9085Z" fill="black"/>
</svg>
