<svg width="132" height="88" viewBox="0 0 132 88" fill="none" xmlns="http://www.w3.org/2000/svg">
<path fill-rule="evenodd" clip-rule="evenodd" d="M31.2305 78.6493L100.65 78.5282L100.771 9.34766H31.2305V78.6493Z" fill="#122E48"/>
<path d="M57.7189 20.163C57.7202 20.099 57.8279 20.288 57.9582 20.163C58.145 19.9841 58.2506 20.1185 58.4572 20.163C58.7354 20.2229 60.8538 20.0015 65.6614 20.163C67.2842 20.2176 69.2953 20.1092 70.1306 20.163C70.9658 20.2169 72.1818 20.1324 72.8328 20.163C74.5187 20.2423 74.3724 20.5656 74.3957 24.4708C74.406 26.1974 74.4086 27.7097 74.4014 27.8315C74.3818 28.1615 74.0971 28.5024 73.8101 28.5398L65.3332 28.6359C65.0093 28.6805 64.9553 28.7224 64.8636 29.0003C64.7178 29.4423 64.6192 39.4752 64.7642 39.8041C64.7642 39.8041 71.9118 36.4951 73.5433 35.5074L73.9234 35.2772L74.3827 35.6506C74.3824 37.6486 74.2206 43.5587 74.2206 43.5587C74.2206 43.5587 67.3055 47.6289 64.8187 49.1936C64.6815 49.4723 64.6701 50.1767 64.6695 58.4645C64.6691 63.3976 64.643 67.5663 64.6113 67.7285C64.5797 67.8906 64.4834 68.0621 64.3974 68.1097C64.1757 68.2323 58.2812 68.2242 58.0584 68.101C57.9638 68.0487 57.8466 67.8975 57.7978 67.765C57.7978 67.765 57.4813 31.8509 57.7189 20.163Z" fill="#D7C701"/>
</svg>
