<svg width="132" height="88" viewBox="0 0 132 88" fill="none" xmlns="http://www.w3.org/2000/svg">
<path d="M29.4248 19.2242C29.4248 12.7081 34.7071 7.42578 41.2232 7.42578H90.7764C97.2925 7.42578 102.575 12.7081 102.575 19.2242V68.7774C102.575 75.2935 97.2925 80.5758 90.7764 80.5758H41.2232C34.7071 80.5758 29.4248 75.2935 29.4248 68.7774V19.2242Z" fill="#A00000"/>
<path d="M44.1968 25.8028C45.0083 24.9905 45.2907 24.8288 47.0819 24.152C47.7356 23.905 51.9524 23.8552 68.8371 23.8941L89.7814 23.9426L89.7259 25.6585C89.6821 27.0095 89.5213 27.6899 88.97 28.8579C87.7363 31.4717 86.0652 32.5458 82.81 32.8173L80.7855 32.9861L80.5539 65.914L79.1726 65.985C76.2525 66.1353 73.2655 64.4184 72.039 61.8845C71.5234 60.8195 71.5192 60.7212 71.4041 46.8993L71.2883 32.9861L66.0504 32.924C61.8538 32.8741 60.7605 32.9245 60.5506 33.1777C60.3625 33.4045 60.2717 38.0663 60.2291 49.7038L60.1696 65.914L58.7758 65.9818C56.0702 66.113 52.9836 64.3898 51.8975 62.1419L51.3673 61.0444L51.3024 47.2119C51.251 36.2377 51.1757 33.3277 50.9378 33.1301C50.7546 32.9778 48.9772 32.8563 46.3699 32.8176L42.1017 32.7543L42.1271 31.0151C42.1575 28.9402 42.8797 27.1213 44.1968 25.8028Z" fill="white"/>
</svg>
