<svg width="132" height="88" viewBox="0 0 132 88" fill="none" xmlns="http://www.w3.org/2000/svg">
<path d="M29.8379 7.83594H102.163V80.1609H29.8379V7.83594Z" fill="#FF6600"/>
<path d="M65.0844 20.4859L74.3198 34.3186V42.9755H77.1951V34.3349L86.8616 20.4859H83.3569L75.7838 31.3356L68.54 20.4859H65.0844Z" fill="white"/>
<path fill-rule="evenodd" clip-rule="evenodd" d="M63.298 52.3062C63.298 48.4743 60.1871 45.3679 56.3495 45.3679H43.1713V67.8574H46.0466V59.2444H56.3495C60.1871 59.2444 63.298 56.1381 63.298 52.3062ZM60.4228 52.3062C60.4228 54.5525 58.5991 56.3734 56.3495 56.3734H46.0466V48.2389H56.3495C58.5991 48.2389 60.4228 50.0599 60.4228 52.3062Z" fill="white"/>
<path fill-rule="evenodd" clip-rule="evenodd" d="M79.3515 45.3679C73.132 45.3679 68.0901 50.4024 68.0901 56.6127V57.0912C68.0901 63.3015 73.132 68.3359 79.3515 68.3359C85.571 68.3359 90.6129 63.3015 90.6129 57.0912V56.6127C90.6129 50.4024 85.571 45.3679 79.3515 45.3679ZM70.9654 56.6127C70.9654 51.988 74.72 48.2389 79.3515 48.2389C83.983 48.2389 87.7376 51.988 87.7376 56.6127V57.0912C87.7376 61.7159 83.983 65.4649 79.3515 65.4649C74.72 65.4649 70.9654 61.7159 70.9654 57.0912V56.6127Z" fill="white"/>
<path d="M42.2129 23.357H50.8386V42.9755H53.7139V23.357H62.3396V20.486H42.2129V23.357Z" fill="white"/>
</svg>
