<svg width="132" height="88" viewBox="0 0 132 88" fill="none" xmlns="http://www.w3.org/2000/svg">
<path d="M29.1723 7.14844H102.85V80.7384H29.1723V7.14844Z" fill="#EDCCEB"/>
<path d="M37.1846 7.25843L43.5317 11.8304L46.8146 7.25843H49.3258L44.5968 13.8443C44.4386 14.0646 44.1986 14.213 43.93 14.2566C43.6615 14.3002 43.3865 14.2355 43.1661 14.0767L33.7005 7.25843H37.1846Z" fill="#B50000"/>
<path fill-rule="evenodd" clip-rule="evenodd" d="M29.1504 26.2073V22.9641L34.9779 15.6213C35.32 15.1902 35.9447 15.1075 36.3883 15.4346L53.7739 28.2546L71.3365 15.4318C71.7762 15.1107 72.3918 15.1899 72.7351 15.6115L81.9563 26.9384L93.1256 10.2387L88.6315 7.25843H92.3155L95.1085 9.11057C95.5777 9.42173 95.7047 10.0522 95.3924 10.5192L83.3037 28.5935L92.0341 39.3176L102.829 32.0697V34.5221L92.4011 41.5236C91.9619 41.8185 91.3689 41.7305 91.0354 41.3208L82.1177 30.3667L71.352 46.463L82.0689 54.9652L99.3925 43.287C99.8312 42.9913 100.424 43.0783 100.759 43.4875L102.829 46.0216V49.2451L99.7634 45.4925L83.7422 56.2927L95.1788 65.3658C95.595 65.696 95.6866 66.2888 95.3893 66.7281L85.8321 80.8484H83.3687L93.1678 66.3705L81.9704 57.4871L64.0765 69.5497C63.6211 69.8566 63.0032 69.75 62.6785 69.3083L53.665 57.0485L44.5881 69.311C44.2569 69.7584 43.626 69.8583 43.1715 69.5354L29.1504 59.5729V57.0749L43.5397 67.299L52.4004 55.3286L40.5299 39.1829C40.1972 38.7304 40.2957 38.0953 40.75 37.7636L52.0496 29.5135L35.9676 17.6547L29.1686 26.2216L29.1504 26.2073ZM71.7602 17.6439L80.7703 28.7116L69.1315 46.1133C68.8378 46.5524 68.9305 47.1421 69.3451 47.4709L80.2971 56.1596L63.7461 67.3169L54.9351 55.3327L66.8874 39.1855C67.2212 38.7346 67.1254 38.0999 66.6731 37.7664L55.4921 29.5216L71.7602 17.6439ZM64.6381 38.7961L53.6705 53.6127L42.7814 38.8019L53.7678 30.7805L64.6381 38.7961Z" fill="#B50000"/>
<path d="M29.1504 35.4644V32.1383L29.2466 32.0708L39.1764 46.0909C39.4934 46.5385 39.397 47.1555 38.9584 47.4862L29.1504 54.8824V52.3316L36.9376 46.4593L29.1504 35.4644Z" fill="#B50000"/>
<path d="M29.7005 80.8484H29.1504V78.3523L35.0009 71.4977C35.3425 71.0976 35.9343 71.022 36.3664 71.3234L50.9402 80.8484H47.2079L35.9559 73.5196L29.7005 80.8484Z" fill="#B50000"/>
<path d="M60.0931 80.8484H56.2829L71.3931 71.2977C71.826 71.0241 72.3959 71.1122 72.7249 71.5036L80.5791 80.8484H77.9156L71.7323 73.4917L60.0931 80.8484Z" fill="#B50000"/>
<path d="M102.829 77.8156V80.5283L96.7277 75.1653C96.3395 74.8241 96.2695 74.2479 96.5647 73.8245L102.829 64.8405V68.4073L98.7615 74.2405L102.829 77.8156Z" fill="#B50000"/>
<path d="M102.829 21.6588V24.2211L96.7822 19.6053C96.3609 19.2837 96.2576 18.6947 96.5444 18.2501L102.829 8.5101V12.2735L98.7715 18.5616L102.829 21.6588Z" fill="#B50000"/>
<path d="M73.2422 7.25843L64.1163 14.0666C63.6673 14.4016 63.0307 14.3136 62.6905 13.8695L57.6269 7.25843H60.1959L63.7014 11.8353L69.8363 7.25843H73.2422Z" fill="#B50000"/>
</svg>
