<svg width="132" height="88" viewBox="0 0 132 88" fill="none" xmlns="http://www.w3.org/2000/svg">
<path fill-rule="evenodd" clip-rule="evenodd" d="M27.5058 21.3546C21.9123 23.2218 15.3486 29.8011 13.4476 35.4467C10.2915 44.8218 12.3513 54.1148 19.0879 60.8919C28.4342 70.2923 42.9479 70.3794 51.9348 61.0898C61.5727 51.1245 61.5727 36.7888 51.9348 26.8235C45.7371 20.4176 36.5053 18.35 27.5058 21.3546ZM75.6961 36.1343C76.0086 53.6378 76.8092 56.6484 82.691 62.4293C90.8114 70.4098 106.265 69.6462 113.863 60.8885C118.758 55.2454 119.271 53.0526 119.652 36.1343L120 20.7009H115.324H110.649V33.8357C110.649 48.1401 109.964 51.2403 105.84 55.598C100.089 61.6733 89.9232 59.6454 86.3643 51.7131C85.0223 48.7211 84.7792 46.097 84.7633 34.4429L84.7449 20.7009H80.0831H75.4204L75.6961 36.1343Z" fill="black"/>
</svg>
