<svg width="132" height="88" viewBox="0 0 132 88" fill="none" xmlns="http://www.w3.org/2000/svg">
<path d="M65.9996 77.2766C84.3769 77.2766 99.2746 62.3788 99.2746 44.0016C99.2746 25.6243 84.3769 10.7266 65.9996 10.7266C47.6223 10.7266 32.7246 25.6243 32.7246 44.0016C32.7246 62.3788 47.6223 77.2766 65.9996 77.2766Z" fill="#15171E"/>
<path fill-rule="evenodd" clip-rule="evenodd" d="M65.6281 22.1367L53.8623 31.1379V38.371L65.6281 29.7956V22.1367Z" fill="#1E89EF"/>
<path d="M67.4295 52.2912C64.5907 52.8183 61.8621 50.9443 61.335 48.1054C60.8081 45.2664 62.6821 42.5379 65.5209 42.0109C68.3598 41.4838 71.0883 43.358 71.6154 46.1969C72.1425 49.0355 70.2683 51.7642 67.4295 52.2912ZM77.6395 40.824C74.145 34.6582 66.314 32.4925 60.1483 35.9869C53.9823 39.4812 51.8168 47.3121 55.3111 53.4781C58.8055 59.6439 66.6366 61.8096 72.8022 58.3152C78.9681 54.8211 81.1338 46.9898 77.6395 40.824Z" fill="white"/>
<path d="M67.4295 52.2912C64.5907 52.8183 61.8621 50.9443 61.335 48.1054C60.8081 45.2664 62.6821 42.5379 65.5209 42.0109C68.3598 41.4838 71.0883 43.358 71.6154 46.1969C72.1425 49.0355 70.2683 51.7642 67.4295 52.2912ZM77.6395 40.824C74.145 34.6582 66.314 32.4925 60.1483 35.9869C53.9823 39.4812 51.8168 47.3121 55.3111 53.4781C58.8055 59.6439 66.6366 61.8096 72.8022 58.3152C78.9681 54.8211 81.1338 46.9898 77.6395 40.824Z" fill="white"/>
</svg>
