<svg width="132" height="88" viewBox="0 0 132 88" fill="none" xmlns="http://www.w3.org/2000/svg">
<path fill-rule="evenodd" clip-rule="evenodd" d="M31.9004 9.89844H86.7704L100.1 23.5384V78.0984H46.7804L31.9004 64.1484V9.89844ZM86.5243 31.2512V38.4184H93.8899V31.2512H86.5243ZM54.6024 59.6938V44.5807H61.968V60.294C61.968 61.858 62.4409 63.1129 63.3866 64.0586C64.3687 65.0043 65.6054 65.4772 67.0967 65.4772C68.5516 65.4772 69.7519 65.0043 70.6976 64.0586C71.6433 63.0765 72.1162 61.8216 72.1162 60.294V44.5807H79.4818V59.6938C79.4818 63.4039 78.2996 66.4229 75.9354 68.7508C73.6075 71.0787 70.6612 72.2425 67.0967 72.2425C63.4593 72.2425 60.4585 71.0968 58.0943 68.8053C55.7664 66.4775 54.6024 63.4403 54.6024 59.6938ZM86.5243 71.5879V44.5807H93.8899V71.5879H86.5243Z" fill="#EC4160"/>
</svg>
