<svg width="132" height="88" viewBox="0 0 132 88" fill="none" xmlns="http://www.w3.org/2000/svg">
<path d="M91.5571 13.0625H40.4445C38.1566 13.0625 36.3008 14.9049 36.3008 17.1777V70.8226C36.3008 73.0947 38.1566 74.9375 40.4445 74.9375H91.5571C93.8451 74.9375 95.7008 73.0947 95.7008 70.8226V17.1777C95.7008 14.9049 93.8451 13.0625 91.5571 13.0625Z" fill="#FFFF66" stroke="#FF7D05" stroke-width="1.71702"/>
<path d="M62.6737 35.4298H48.4274C47.4959 35.4298 46.7402 36.1847 46.7402 37.1156C46.7402 38.0467 47.4959 38.8013 48.4274 38.8013H62.6737C63.6052 38.8013 64.3609 38.0467 64.3609 37.1156C64.3609 36.1847 63.6052 35.4298 62.6737 35.4298Z" fill="#F25F4C"/>
<path d="M60.2988 29.6328H50.7472C49.7688 29.6328 48.9751 30.4265 48.9751 31.4055C48.9751 32.3845 49.7688 33.1778 50.7472 33.1778H60.2988C61.2784 33.1778 62.072 32.3845 62.072 31.4055C62.072 30.4265 61.2784 29.6328 60.2988 29.6328Z" fill="#F25F4C"/>
<path d="M80.5758 37.7008C82.4359 37.7008 83.9445 36.177 83.9445 34.2977C83.9445 32.418 82.4359 30.8945 80.5758 30.8945C78.7144 30.8945 77.207 32.418 77.207 34.2977C77.207 36.177 78.7144 37.7008 80.5758 37.7008Z" fill="#E53170"/>
<path d="M85.1828 48.2053V46.293H46.8203V48.2053C46.8203 53.2777 48.8418 58.1424 52.4386 61.729C56.0353 65.3161 60.9146 67.3305 66.001 67.3305C71.0885 67.3305 75.9678 65.3161 79.5646 61.729C83.1613 58.1424 85.1828 53.2777 85.1828 48.2053Z" fill="#FF7D05"/>
</svg>
