<svg width="132" height="88" viewBox="0 0 132 88" fill="none" xmlns="http://www.w3.org/2000/svg">
<mask id="mask0_2056_26706" style="mask-type:luminance" maskUnits="userSpaceOnUse" x="34" y="11" width="64" height="66">
<path d="M34.0156 11.1836H97.9852V76.8148H34.0156V11.1836Z" fill="white"/>
</mask>
<g mask="url(#mask0_2056_26706)">
<path d="M69.7546 37.0859V55.6289H64.0714V53.1033C63.4956 53.9231 62.7091 54.5878 61.7125 55.0971C60.7379 55.5846 59.6525 55.8283 58.4559 55.8283C57.0378 55.8283 55.7862 55.5181 54.7008 54.8977C53.6154 54.2553 52.7736 53.336 52.1749 52.1397C51.5774 50.9435 51.2773 49.5366 51.2773 47.9193V37.0859H56.9267V47.1551C56.9267 48.3956 57.2487 49.3592 57.8914 50.0461C58.5329 50.7328 59.3975 51.0763 60.483 51.0763C61.5907 51.0763 62.4663 50.7328 63.1078 50.0461C63.7505 49.3592 64.0714 48.3956 64.0714 47.1551V37.0859H69.7546Z" fill="#272E35"/>
<path d="M79.16 37.0859V55.6289H73.4766V37.0859H79.16Z" fill="#272E35"/>
<path fill-rule="evenodd" clip-rule="evenodd" d="M66.831 18.6606C52.8368 18.6606 41.4931 30.0052 41.4931 43.9994C41.4931 57.9933 52.8368 69.3381 66.831 69.3381C77.0753 69.3381 85.9069 63.2587 89.9021 54.495C90.7576 52.6162 92.9758 51.7874 94.8538 52.6437C96.7328 53.5001 97.5614 55.7171 96.7048 57.5959C91.5414 68.9262 80.1107 76.8146 66.831 76.8146C48.7077 76.8146 34.0156 62.1227 34.0156 43.9994C34.0156 25.8758 48.7077 11.1836 66.831 11.1836C80.6536 11.1836 92.4709 19.7283 97.3076 31.8097C98.0743 33.7267 97.1426 35.9028 95.2256 36.6698C93.3096 37.437 91.1336 36.5053 90.366 34.5883C86.6266 25.2477 77.4941 18.6606 66.831 18.6606Z" fill="#272E35"/>
<path d="M76.3857 34.8598C78.4498 34.8598 80.124 33.1859 80.124 31.1212C80.124 29.0565 78.4498 27.3828 76.3857 27.3828C74.3207 27.3828 72.6465 29.0565 72.6465 31.1212C72.6465 33.1859 74.3207 34.8598 76.3857 34.8598Z" fill="#FF6E30"/>
</g>
</svg>
