<svg width="132" height="88" viewBox="0 0 132 88" fill="none" xmlns="http://www.w3.org/2000/svg">
<path fill-rule="evenodd" clip-rule="evenodd" d="M11 25.4718C11 25.4533 11.0001 25.4348 11.0002 25.4163C11.0298 20.7815 14.7651 17.0299 19.3798 17.0002C19.3982 17.0001 19.4166 17 19.4351 17H104.857C104.968 17 105.078 17.0021 105.187 17.0063L105.187 17.006C107.384 17.0908 109.366 18.0198 110.82 19.4797L110.82 19.4801L112.34 21.0057L112.34 21.006L117.324 26.0115C119.546 27.5664 121 30.1516 121 33.078V62.3932C121 64.388 120.324 66.2243 119.19 67.6838C118.973 67.9631 118.739 68.2286 118.49 68.4788C118.326 68.6435 118.156 68.8015 117.979 68.9525C116.484 70.2294 114.547 71 112.431 71H27.0086C24.0956 71 21.6661 69.2692 19.9738 67.3091C19.2479 66.5801 18.4733 65.8542 17.6892 65.1194C15.9242 63.4655 14.1111 61.7664 12.6979 59.8856C11.6934 58.5491 11.0743 56.9044 11.0059 55.1178L11.0063 55.1182C11.0021 55.0084 11 54.898 11 54.7871V25.4718ZM27.0091 26.624H112.431C115.98 26.624 118.858 29.5139 118.858 33.0788V62.3942C118.858 65.959 115.98 68.8489 112.431 68.8489H27.0091C23.4597 68.8489 20.5823 65.959 20.5823 62.3942V33.0788C20.5823 29.5139 23.4597 26.624 27.0091 26.624Z" fill="#212121"/>
<path d="M45.9553 41.3711V49.7018C45.9553 51.2095 44.9032 52.2985 43.2868 52.2985C41.6765 52.2985 40.6181 51.2095 40.6181 49.7018V41.3711H37.8404V49.9402C37.8404 52.8268 40.0086 54.7531 43.2868 54.7531C46.5519 54.7531 48.733 52.8268 48.733 49.9402V41.3711H45.9553ZM54.6994 41.3711H51.9217V54.5664H54.6994V41.3711ZM62.4718 43.6713H66.4941V54.5664H69.2395V43.6713H73.2619V41.3711H62.4718V43.6713ZM75.8908 54.5664H78.6234V44.6699H75.8908V54.5664ZM77.2635 43.3942C78.0782 43.3942 78.7454 42.7693 78.7454 42.0025C78.7454 41.2423 78.0782 40.6173 77.2635 40.6173C76.4554 40.6173 75.7882 41.2423 75.7882 42.0025C75.7882 42.7693 76.4554 43.3942 77.2635 43.3942ZM81.716 58.2775H84.4487V52.9815H84.532C84.9105 53.8062 85.738 54.7274 87.3292 54.7274C89.5745 54.7274 91.3257 52.9426 91.3257 49.631C91.3257 46.2291 89.4975 44.5411 87.3356 44.5411C85.6869 44.5411 84.8977 45.5269 84.532 46.3322H84.4103V44.6699H81.716V58.2775ZM84.3909 49.6181C84.3909 47.8529 85.135 46.7253 86.463 46.7253C87.8166 46.7253 88.5352 47.9042 88.5352 49.6181C88.5352 51.3449 87.8038 52.5433 86.463 52.5433C85.1481 52.5433 84.3909 51.3837 84.3909 49.6181ZM102.249 47.492C102.005 45.6686 100.543 44.5411 98.0539 44.5411C95.5327 44.5411 93.8712 45.7137 93.8776 47.621C93.8712 49.1026 94.8013 50.0627 96.7259 50.4492L98.4324 50.7909C99.2918 50.9647 99.6831 51.2804 99.6959 51.7766C99.6831 52.363 99.0481 52.7816 98.0922 52.7816C97.1171 52.7816 96.4691 52.363 96.3024 51.5575L93.6145 51.6993C93.8712 53.5935 95.4749 54.7595 98.0858 54.7595C100.639 54.7595 102.467 53.4517 102.474 51.4995C102.467 50.0691 101.537 49.2123 99.6253 48.8191L97.8421 48.4585C96.9246 48.2587 96.5847 47.943 96.5911 47.4663C96.5847 46.8734 97.2519 46.4869 98.0986 46.4869C99.0481 46.4869 99.6125 47.0087 99.7473 47.6466L102.249 47.492Z" fill="#212121"/>
</svg>
