<svg width="132" height="88" viewBox="0 0 132 88" fill="none" xmlns="http://www.w3.org/2000/svg">
<path d="M66 80C81.7748 80 90.5445 80 96.2723 74.2723C102 68.5445 102 59.7748 102 44C102 28.2252 102 19.4555 96.2723 13.7277C90.5445 8 81.7748 8 66 8C50.2252 8 41.4555 8 35.7277 13.7277C30 19.4555 30 28.2252 30 44C30 59.7748 30 68.5445 35.7277 74.2723C41.4555 80 50.2252 80 66 80Z" fill="#3A3670"/>
<path d="M49.5512 32.9646C52.5405 32.9646 54.9639 30.5412 54.9639 27.5519C54.9639 24.5625 52.5405 22.1391 49.5512 22.1391C46.5618 22.1391 44.1384 24.5625 44.1384 27.5519C44.1384 30.5412 46.5618 32.9646 49.5512 32.9646Z" fill="#D3A0FF"/>
<path d="M65.7091 32.9646C68.6984 32.9646 71.1217 30.5412 71.1217 27.5519C71.1217 24.5625 68.6984 22.1391 65.7091 22.1391C62.7196 22.1391 60.2963 24.5625 60.2963 27.5519C60.2963 30.5412 62.7196 32.9646 65.7091 32.9646Z" fill="#FC7FAF"/>
<path d="M82.321 32.9646C85.3104 32.9646 87.7338 30.5412 87.7338 27.5519C87.7338 24.5625 85.3104 22.1391 82.321 22.1391C79.3317 22.1391 76.9083 24.5625 76.9083 27.5519C76.9083 30.5412 79.3317 32.9646 82.321 32.9646Z" fill="#F49420"/>
<path d="M49.5512 49.577C52.5405 49.577 54.9639 47.1536 54.9639 44.1642C54.9639 41.1749 52.5405 38.7515 49.5512 38.7515C46.5618 38.7515 44.1384 41.1749 44.1384 44.1642C44.1384 47.1536 46.5618 49.577 49.5512 49.577Z" fill="#F9D009"/>
<path d="M65.7091 49.577C68.6984 49.577 71.1217 47.1536 71.1217 44.1642C71.1217 41.1749 68.6984 38.7515 65.7091 38.7515C62.7196 38.7515 60.2963 41.1749 60.2963 44.1642C60.2963 47.1536 62.7196 49.577 65.7091 49.577Z" fill="#48C171"/>
<path d="M82.321 49.577C85.3104 49.577 87.7338 47.1536 87.7338 44.1642C87.7338 41.1749 85.3104 38.7515 82.321 38.7515C79.3317 38.7515 76.9083 41.1749 76.9083 44.1642C76.9083 47.1536 79.3317 49.577 82.321 49.577Z" fill="#84B54A"/>
<path d="M49.5512 65.7334C52.5405 65.7334 54.9639 63.31 54.9639 60.3207C54.9639 57.3313 52.5405 54.9079 49.5512 54.9079C46.5618 54.9079 44.1384 57.3313 44.1384 60.3207C44.1384 63.31 46.5618 65.7334 49.5512 65.7334Z" fill="#1AC0E1"/>
<path d="M65.7091 65.7334C68.6984 65.7334 71.1217 63.31 71.1217 60.3207C71.1217 57.3313 68.6984 54.9079 65.7091 54.9079C62.7196 54.9079 60.2963 57.3313 60.2963 60.3207C60.2963 63.31 62.7196 65.7334 65.7091 65.7334Z" fill="#80D2EE"/>
<path d="M82.321 65.7334C85.3104 65.7334 87.7338 63.31 87.7338 60.3207C87.7338 57.3313 85.3104 54.9079 82.321 54.9079C79.3317 54.9079 76.9083 57.3313 76.9083 60.3207C76.9083 63.31 79.3317 65.7334 82.321 65.7334Z" fill="#CCB0BB"/>
</svg>
