<svg width="132" height="88" viewBox="0 0 132 88" fill="none" xmlns="http://www.w3.org/2000/svg">
<rect x="28.875" y="6.875" width="74.25" height="74.25" rx="37.125" fill="black"/>
<path d="M50.2656 25.1406H58.6328C61.1443 25.1406 63.1802 27.1901 63.1802 29.7183V62.8605H61.1794C55.1519 62.8605 50.2656 57.9418 50.2656 51.8742V25.1406Z" fill="white"/>
<path d="M69.0009 62.8605V43.8221C69.0009 41.9992 70.4688 40.5216 72.2796 40.5216H81.7336V51.8742C81.7336 57.9418 76.8474 62.8605 70.8198 62.8605H69.0009Z" fill="white"/>
<path d="M68.8191 29.7183C68.8191 27.1901 70.855 25.1406 73.3663 25.1406H77.1862C79.6976 25.1406 81.7336 27.1901 81.7336 29.7183V31C81.7336 33.5282 79.6976 35.5777 77.1862 35.5777H73.3663C70.855 35.5777 68.8191 33.5282 68.8191 31V29.7183Z" fill="white"/>
</svg>
