<svg width="132" height="88" viewBox="0 0 132 88" fill="none" xmlns="http://www.w3.org/2000/svg">
<path d="M41.8178 11.7578H62.5449C66.9966 11.7578 70.6055 15.3666 70.6055 19.8183C70.6055 24.27 66.9966 27.8789 62.5449 27.8789H41.8178C37.3661 27.8789 33.7572 24.27 33.7572 19.8183C33.7572 15.3666 37.3661 11.7578 41.8178 11.7578Z" fill="#303030"/>
<path d="M41.8178 11.7578H62.5449C66.9966 11.7578 70.6055 15.3666 70.6055 19.8183C70.6055 24.27 66.9966 27.8789 62.5449 27.8789H41.8178C37.3661 27.8789 33.7572 24.27 33.7572 19.8183C33.7572 15.3666 37.3661 11.7578 41.8178 11.7578Z" fill="url(#paint0_radial_2056_24953)"/>
<path d="M85.5757 11.7578H90.1816C94.6334 11.7578 98.2422 15.3666 98.2422 19.8183C98.2422 24.27 94.6334 27.8789 90.1816 27.8789H85.5757C81.124 27.8789 77.5152 24.27 77.5152 19.8183C77.5152 15.3666 81.124 11.7578 85.5757 11.7578Z" fill="#303030"/>
<path d="M85.5757 11.7578H90.1816C94.6334 11.7578 98.2422 15.3666 98.2422 19.8183C98.2422 24.27 94.6334 27.8789 90.1816 27.8789H85.5757C81.124 27.8789 77.5152 24.27 77.5152 19.8183C77.5152 15.3666 81.124 11.7578 85.5757 11.7578Z" fill="url(#paint1_radial_2056_24953)"/>
<g filter="url(#filter0_d_2056_24953)">
<path d="M69.4545 35.9375H90.1816C94.6334 35.9375 98.2422 39.5463 98.2422 43.998C98.2422 48.4497 94.6334 52.0586 90.1816 52.0586H69.4545C65.0028 52.0586 61.394 48.4497 61.394 43.998C61.394 39.5463 65.0028 35.9375 69.4545 35.9375Z" fill="url(#paint2_radial_2056_24953)"/>
</g>
<g filter="url(#filter1_d_2056_24953)">
<path d="M41.8179 35.9375H46.4238C50.8755 35.9375 54.4844 39.5463 54.4844 43.998C54.4844 48.4497 50.8755 52.0586 46.4238 52.0586H41.8179C37.3662 52.0586 33.7574 48.4497 33.7574 43.998C33.7574 39.5463 37.3662 35.9375 41.8179 35.9375Z" fill="url(#paint3_radial_2056_24953)"/>
</g>
<path d="M41.8178 60.1211H62.5449C66.9966 60.1211 70.6055 63.7299 70.6055 68.1816C70.6055 72.6333 66.9966 76.2422 62.5449 76.2422H41.8178C37.3661 76.2422 33.7572 72.6333 33.7572 68.1816C33.7572 63.7299 37.3661 60.1211 41.8178 60.1211Z" fill="#303030"/>
<path d="M41.8178 60.1211H62.5449C66.9966 60.1211 70.6055 63.7299 70.6055 68.1816C70.6055 72.6333 66.9966 76.2422 62.5449 76.2422H41.8178C37.3661 76.2422 33.7572 72.6333 33.7572 68.1816C33.7572 63.7299 37.3661 60.1211 41.8178 60.1211Z" fill="url(#paint4_radial_2056_24953)"/>
<path d="M85.5757 60.1211H90.1816C94.6334 60.1211 98.2422 63.7299 98.2422 68.1816C98.2422 72.6333 94.6334 76.2422 90.1816 76.2422H85.5757C81.124 76.2422 77.5152 72.6333 77.5152 68.1816C77.5152 63.7299 81.124 60.1211 85.5757 60.1211Z" fill="#303030"/>
<path d="M85.5757 60.1211H90.1816C94.6334 60.1211 98.2422 63.7299 98.2422 68.1816C98.2422 72.6333 94.6334 76.2422 90.1816 76.2422H85.5757C81.124 76.2422 77.5152 72.6333 77.5152 68.1816C77.5152 63.7299 81.124 60.1211 85.5757 60.1211Z" fill="url(#paint5_radial_2056_24953)"/>
<defs>
<filter id="filter0_d_2056_24953" x="59.1945" y="33.7375" width="41.2477" height="20.5211" filterUnits="userSpaceOnUse" color-interpolation-filters="sRGB">
<feFlood flood-opacity="0" result="BackgroundImageFix"/>
<feColorMatrix in="SourceAlpha" type="matrix" values="0 0 0 0 0 0 0 0 0 0 0 0 0 0 0 0 0 0 127 0" result="hardAlpha"/>
<feOffset/>
<feGaussianBlur stdDeviation="1.1"/>
<feComposite in2="hardAlpha" operator="out"/>
<feColorMatrix type="matrix" values="0 0 0 0 0.27451 0 0 0 0 0.65098 0 0 0 0 1 0 0 0 0.15 0"/>
<feBlend mode="normal" in2="BackgroundImageFix" result="effect1_dropShadow_2056_24953"/>
<feBlend mode="normal" in="SourceGraphic" in2="effect1_dropShadow_2056_24953" result="shape"/>
</filter>
<filter id="filter1_d_2056_24953" x="31.5578" y="33.7375" width="25.1266" height="20.5211" filterUnits="userSpaceOnUse" color-interpolation-filters="sRGB">
<feFlood flood-opacity="0" result="BackgroundImageFix"/>
<feColorMatrix in="SourceAlpha" type="matrix" values="0 0 0 0 0 0 0 0 0 0 0 0 0 0 0 0 0 0 127 0" result="hardAlpha"/>
<feOffset/>
<feGaussianBlur stdDeviation="1.1"/>
<feComposite in2="hardAlpha" operator="out"/>
<feColorMatrix type="matrix" values="0 0 0 0 0.27451 0 0 0 0 0.65098 0 0 0 0 1 0 0 0 0.15 0"/>
<feBlend mode="normal" in2="BackgroundImageFix" result="effect1_dropShadow_2056_24953"/>
<feBlend mode="normal" in="SourceGraphic" in2="effect1_dropShadow_2056_24953" result="shape"/>
</filter>
<radialGradient id="paint0_radial_2056_24953" cx="0" cy="0" r="1" gradientUnits="userSpaceOnUse" gradientTransform="translate(30.3902 9.82324) rotate(41.009) scale(30.8219 30.8219)">
<stop stop-color="#66B6FF"/>
<stop offset="1" stop-color="#0082F6"/>
</radialGradient>
<radialGradient id="paint1_radial_2056_24953" cx="0" cy="0" r="1" gradientUnits="userSpaceOnUse" gradientTransform="translate(79.5374 14.8794) rotate(47.49) scale(16.4616)">
<stop stop-color="#66B6FF"/>
<stop offset="1" stop-color="#0082F6"/>
</radialGradient>
<radialGradient id="paint2_radial_2056_24953" cx="0" cy="0" r="1" gradientUnits="userSpaceOnUse" gradientTransform="translate(58.027 34.0029) rotate(41.009) scale(30.8219 30.8219)">
<stop stop-color="#66B6FF"/>
<stop offset="1" stop-color="#0082F6"/>
</radialGradient>
<radialGradient id="paint3_radial_2056_24953" cx="0" cy="0" r="1" gradientUnits="userSpaceOnUse" gradientTransform="translate(35.7796 39.0591) rotate(47.49) scale(16.4616)">
<stop stop-color="#66B6FF"/>
<stop offset="1" stop-color="#0082F6"/>
</radialGradient>
<radialGradient id="paint4_radial_2056_24953" cx="0" cy="0" r="1" gradientUnits="userSpaceOnUse" gradientTransform="translate(30.3902 58.1865) rotate(41.009) scale(30.8219 30.8219)">
<stop stop-color="#66B6FF"/>
<stop offset="1" stop-color="#0082F6"/>
</radialGradient>
<radialGradient id="paint5_radial_2056_24953" cx="0" cy="0" r="1" gradientUnits="userSpaceOnUse" gradientTransform="translate(79.5374 63.2427) rotate(47.49) scale(16.4616)">
<stop stop-color="#66B6FF"/>
<stop offset="1" stop-color="#0082F6"/>
</radialGradient>
</defs>
</svg>
