<svg width="132" height="88" viewBox="0 0 132 88" fill="none" xmlns="http://www.w3.org/2000/svg">
<path d="M66 77C84.2254 77 99 62.2254 99 44C99 25.7746 84.2254 11 66 11C47.7746 11 33 25.7746 33 44C33 62.2254 47.7746 77 66 77Z" fill="#496AA1"/>
<path d="M60.2839 29.3773L65.2813 23.2935C65.8313 22.6238 66.8562 22.6238 67.4062 23.2935L72.4037 29.3773C73.1407 30.2746 72.5024 31.625 71.3412 31.625H61.3463C60.1852 31.625 59.5469 30.2746 60.2839 29.3773Z" fill="white"/>
<path d="M53.625 49.8421V37.125H57.8406V50.1707C57.8406 51.7261 58.257 52.942 59.0897 53.8183C59.9224 54.6728 61.0152 55.0998 62.3684 55.0998C63.7423 55.0998 64.8352 54.6728 65.6472 53.8183C66.4799 52.942 66.8962 51.7261 66.8962 50.1707V37.125H71.1117V49.8421C71.1117 52.6681 70.2894 54.9356 68.6448 56.6444C67.0003 58.3531 64.9081 59.2075 62.3684 59.2075C59.8078 59.2075 57.7052 58.3531 56.0607 56.6444C54.4369 54.9356 53.625 52.6681 53.625 49.8421Z" fill="white"/>
<path d="M75.6768 58.8131V37.125H79.8924V58.8131H75.6768Z" fill="white"/>
</svg>
