<svg width="132" height="88" viewBox="0 0 132 88" fill="none" xmlns="http://www.w3.org/2000/svg">
<path d="M91.9 7H40.1C33.9696 7 29 11.9696 29 18.1V69.9C29 76.0304 33.9696 81 40.1 81H91.9C98.0304 81 103 76.0304 103 69.9V18.1C103 11.9696 98.0304 7 91.9 7Z" fill="#5A4197"/>
<path d="M90.05 16.25H41.95C39.9065 16.25 38.25 17.9065 38.25 19.95V31.05C38.25 33.0935 39.9065 34.75 41.95 34.75H90.05C92.0935 34.75 93.75 33.0935 93.75 31.05V19.95C93.75 17.9065 92.0935 16.25 90.05 16.25Z" fill="black"/>
<path d="M90.05 16.25H41.95C39.9065 16.25 38.25 17.9065 38.25 19.95V31.05C38.25 33.0935 39.9065 34.75 41.95 34.75H90.05C92.0935 34.75 93.75 33.0935 93.75 31.05V19.95C93.75 17.9065 92.0935 16.25 90.05 16.25Z" fill="#FBFBFD"/>
<path d="M90.05 40.3H82.65C80.6065 40.3 78.95 41.9565 78.95 44V68.05C78.95 70.0935 80.6065 71.75 82.65 71.75H90.05C92.0935 71.75 93.75 70.0935 93.75 68.05V44C93.75 41.9565 92.0935 40.3 90.05 40.3Z" fill="black"/>
<path d="M90.05 40.3H82.65C80.6065 40.3 78.95 41.9565 78.95 44V68.05C78.95 70.0935 80.6065 71.75 82.65 71.75H90.05C92.0935 71.75 93.75 70.0935 93.75 68.05V44C93.75 41.9565 92.0935 40.3 90.05 40.3Z" fill="#23CBE2"/>
<path d="M69.7 40.3H41.95C39.9065 40.3 38.25 41.9565 38.25 44V68.05C38.25 70.0935 39.9065 71.75 41.95 71.75H69.7C71.7435 71.75 73.4 70.0935 73.4 68.05V44C73.4 41.9565 71.7435 40.3 69.7 40.3Z" fill="black"/>
<path d="M69.7 40.3H41.95C39.9065 40.3 38.25 41.9565 38.25 44V68.05C38.25 70.0935 39.9065 71.75 41.95 71.75H69.7C71.7435 71.75 73.4 70.0935 73.4 68.05V44C73.4 41.9565 71.7435 40.3 69.7 40.3Z" fill="#F1236E"/>
</svg>
