<svg width="132" height="88" viewBox="0 0 132 88" fill="none" xmlns="http://www.w3.org/2000/svg">
<path fill-rule="evenodd" clip-rule="evenodd" d="M59.1804 78.0984H72.8204C87.8865 78.0984 100.1 65.8845 100.1 50.8184V37.1784C100.1 22.1123 87.8865 9.89844 72.8204 9.89844H59.1804C44.1145 9.89844 31.9004 22.1123 31.9004 37.1784V50.8184C31.9004 65.8845 44.1145 78.0984 59.1804 78.0984ZM78.6856 33.0864C78.4107 33.0864 78.1284 33.1164 77.8426 33.1798C76.4895 33.4799 75.397 34.5725 75.0969 35.9263C74.4429 38.8753 77.3257 41.4068 80.321 40.0981C81.074 39.7694 81.6864 39.1569 82.0144 38.4047C83.1963 35.6999 81.2465 33.0864 78.6856 33.0864ZM55.7704 33.6314H50.3144C49.9371 33.6314 49.6324 33.9376 49.6324 34.3134V44.3531C49.6324 53.1822 56.9139 60.3664 65.8639 60.3664C74.5759 60.3664 81.7075 53.5594 82.0806 45.0535C82.097 44.6702 81.7791 44.3531 81.3952 44.3531H75.9508C75.592 44.3531 75.279 44.6231 75.2538 44.9812C74.9223 49.7586 70.8371 53.5464 65.8639 53.5464C60.6739 53.5464 56.4524 49.4224 56.4524 44.3531V34.3134C56.4524 33.9376 56.1467 33.6314 55.7704 33.6314Z" fill="#FFC125"/>
</svg>
