<svg width="132" height="88" viewBox="0 0 132 88" fill="none" xmlns="http://www.w3.org/2000/svg">
<mask id="mask0_2056_25969" style="mask-type:luminance" maskUnits="userSpaceOnUse" x="33" y="11" width="66" height="66">
<path d="M33.0156 11.0156H98.9844V76.9844H33.0156V11.0156Z" fill="white"/>
</mask>
<g mask="url(#mask0_2056_25969)">
<mask id="mask1_2056_25969" style="mask-type:luminance" maskUnits="userSpaceOnUse" x="33" y="11" width="66" height="66">
<path d="M98.9844 44.0001C98.9844 25.7832 84.2163 11.0156 66.0001 11.0156C47.7835 11.0156 33.0156 25.7832 33.0156 44.0001C33.0156 62.2169 47.7835 76.9844 66.0001 76.9844C84.2163 76.9844 98.9844 62.2169 98.9844 44.0001Z" fill="white"/>
</mask>
<g mask="url(#mask1_2056_25969)">
<path d="M98.9863 44.0001C98.9863 25.7832 84.2183 11.0156 66.002 11.0156C47.7855 11.0156 33.0176 25.7832 33.0176 44.0001C33.0176 62.2169 47.7855 76.9844 66.002 76.9844C84.2183 76.9844 98.9863 62.2169 98.9863 44.0001Z" fill="url(#paint0_linear_2056_25969)"/>
<path d="M98.9863 44.0001C98.9863 25.7832 84.2183 11.0156 66.002 11.0156C47.7855 11.0156 33.0176 25.7832 33.0176 44.0001C33.0176 62.2169 47.7855 76.9844 66.002 76.9844C84.2183 76.9844 98.9863 62.2169 98.9863 44.0001Z" fill="black"/>
<path fill-rule="evenodd" clip-rule="evenodd" d="M43.7266 44.5351L62.8696 4.86719L71.1215 8.8493L55.6979 40.8083L83.5177 36.9338L88.2755 43.462L69.1324 83.1302L60.8805 79.1479L76.3042 47.1888L48.4843 51.0633L43.7266 44.5351Z" fill="white"/>
</g>
</g>
<defs>
<linearGradient id="paint0_linear_2056_25969" x1="66.002" y1="11.0156" x2="66.002" y2="76.9844" gradientUnits="userSpaceOnUse">
<stop stop-color="#F9742C"/>
<stop offset="1" stop-color="#F20486"/>
</linearGradient>
</defs>
</svg>
