<svg width="132" height="88" viewBox="0 0 132 88" fill="none" xmlns="http://www.w3.org/2000/svg">
<path d="M65.9998 9.24609C46.6701 9.24609 31.0225 24.7948 31.0225 44.0019C31.0225 63.209 46.6701 78.7578 65.9998 78.7578C85.3298 78.7578 100.977 63.209 100.977 44.0019C100.977 24.7948 85.3298 9.24609 65.9998 9.24609ZM64.7505 57.6559L62.1867 65.1692C62.1207 65.4302 61.9887 65.626 61.8578 65.822C61.5289 66.3448 61.1342 66.7364 60.6084 66.9985C60.1486 67.2592 59.622 67.3904 59.0962 67.3904C58.7673 67.3904 58.3735 67.3244 58.0446 67.1943C56.5984 66.6715 55.6777 65.2344 55.8746 63.7969C48.6421 60.1383 43.7115 52.6253 43.7115 44.0019C43.7115 31.7198 53.7046 21.7242 66.1307 21.7242C67.578 21.7242 68.9585 21.8549 70.3388 22.1163C71.1286 20.8749 72.7057 20.287 74.1519 20.7442C74.9417 21.0056 75.5332 21.5283 75.9273 22.1815C76.2559 22.7694 76.4539 23.4228 76.3879 24.1414C76.3879 24.4026 76.3219 24.6642 76.2559 24.86L73.6921 32.373L64.7505 57.6559ZM67.578 66.2139L70.6677 56.9371C75.993 55.0426 79.8065 50.0123 79.8065 44.0019C79.8065 41.1928 78.9518 38.514 77.4395 36.3583L80.53 27.0814C85.3298 31.1319 88.4192 37.2075 88.4192 44.0019C88.3543 55.7612 79.2147 65.3653 67.578 66.2139Z" fill="#303030"/>
<path d="M50.9198 44.0808C50.9198 48.9153 53.4847 53.1616 57.2979 55.6443L65.9769 30.4268C65.582 30.3613 65.1222 30.3613 64.7273 30.3613C57.101 30.3613 50.9198 36.5023 50.9198 44.0808Z" fill="#303030"/>
</svg>
