<svg width="132" height="88" viewBox="0 0 132 88" fill="none" xmlns="http://www.w3.org/2000/svg">
<path d="M67.3419 25.0927C67.3419 16.9657 61.6489 11.8242 49.6121 11.8242L44.0007 25.0927C55.5496 27.3317 58.5581 32.6384 58.5581 37.5312C58.5581 44.4967 51.4824 51.3799 41.5596 61.3303C43.2674 70.2873 50.5067 76.1742 58.7198 76.1742C64.9018 76.1742 73.2794 72.2769 76.9397 62.6582L76.2893 75.0965H90.2783L90.4408 12.9017H76.6144L77.6717 40.2675C78.2415 55.4431 75.8823 64.3168 67.7489 64.3168C62.0559 64.3168 56.6879 60.6678 54.8982 53.3704C62.2184 43.7501 67.3419 34.2139 67.3419 25.0927Z" fill="#1E1F1C"/>
</svg>
