<svg width="132" height="88" viewBox="0 0 132 88" fill="none" xmlns="http://www.w3.org/2000/svg">
<path d="M100.1 43.9984C100.106 48.379 99.2648 52.7193 97.6236 56.7809C97.6196 56.79 97.6166 56.798 97.6126 56.8071V56.8081C96.5094 59.5277 95.0584 62.0928 93.2956 64.4393C92.9556 64.8933 92.6048 65.3378 92.2433 65.773C92.1112 65.9324 91.977 66.0908 91.8428 66.2472C91.1517 67.0492 90.4247 67.8177 89.6616 68.5525C89.484 68.724 89.3045 68.8934 89.1229 69.0609C89.0805 69.1003 89.0381 69.1386 88.9957 69.178C88.107 69.9901 87.1758 70.7545 86.2062 71.4681C85.5555 71.9493 84.8876 72.4064 84.2026 72.8392C84.0522 72.935 83.9009 73.0292 83.7486 73.1216C83.4843 73.2831 83.2176 73.4408 82.9485 73.5948C82.5975 73.7966 82.242 73.992 81.8822 74.181C81.7369 74.2587 81.5906 74.3333 81.4443 74.408C81.2304 74.5179 81.0155 74.6239 80.7986 74.7278C80.7613 74.7459 80.724 74.7641 80.6866 74.7812C80.5454 74.8499 80.4021 74.9164 80.2589 74.983C78.3931 75.8436 76.4527 76.5321 74.4619 77.0401C74.4508 77.0432 74.4407 77.0452 74.4296 77.0482C74.2994 77.0815 74.1683 77.1138 74.0371 77.145C73.9393 77.1693 73.8404 77.1925 73.7415 77.2147C73.7293 77.2186 73.7169 77.2217 73.7042 77.2237C73.5014 77.2712 73.2986 77.3166 73.0938 77.3579C72.9788 77.3821 72.8638 77.4063 72.7488 77.4296C72.6792 77.4447 72.6086 77.4578 72.539 77.4709C72.4512 77.4881 72.3644 77.5042 72.2767 77.5214C72.2282 77.5314 72.1798 77.5395 72.1304 77.5476C72.0194 77.5678 71.9084 77.5879 71.7984 77.6071C71.6108 77.6394 71.4211 77.6707 71.2325 77.6989C71.0953 77.7201 70.9591 77.7403 70.8219 77.7595C70.6604 77.7827 70.499 77.8038 70.3366 77.824C70.2922 77.8311 70.2478 77.8361 70.2034 77.8412C70.1459 77.8482 70.0884 77.8553 70.0309 77.8624C69.9149 77.8765 69.7989 77.8896 69.6818 77.9017C69.6213 77.9088 69.5618 77.9148 69.5012 77.9209C69.3862 77.933 69.2712 77.9441 69.1562 77.9542C69.0079 77.9683 68.8596 77.9804 68.7103 77.9925C68.5287 78.0066 68.3481 78.0197 68.1655 78.0308C68.0485 78.0379 67.9314 78.045 67.8134 78.051C67.5127 78.0672 67.2121 78.0783 66.9094 78.0863C66.7591 78.0904 66.6078 78.0934 66.4565 78.0954H66.4534C66.3031 78.0974 66.1518 78.0984 66.0004 78.0984C64.4668 78.0991 62.9349 77.9966 61.4151 77.7917C60.3003 77.6424 59.2033 77.44 58.1241 77.1844C58.0808 77.1743 58.0374 77.1642 57.995 77.1531C57.8861 77.1279 57.7781 77.1007 57.6701 77.0734C57.5743 77.0492 57.4795 77.024 57.3836 76.9988C54.9135 76.356 52.5241 75.4357 50.261 74.2556C50.2499 74.2496 50.2378 74.2435 50.2267 74.2375C50.1611 74.2032 50.0965 74.1699 50.032 74.1346C49.8897 74.0599 49.7481 73.9839 49.6072 73.9066C48.8052 73.4657 48.0236 72.9942 47.2626 72.4921C47.0669 72.364 46.8732 72.2338 46.6815 72.1017C46.6199 72.0593 46.5594 72.0169 46.4989 71.9746C46.4353 71.9302 46.3718 71.8858 46.3092 71.8414C46.1427 71.7233 45.9773 71.604 45.8128 71.4832C45.1318 70.9828 44.471 70.4579 43.8304 69.9084C41.5597 67.9637 39.5531 65.7302 37.8619 63.2649C37.2717 62.4054 36.7208 61.5182 36.2093 60.6035C33.3747 55.5288 31.891 49.8111 31.9004 43.9984C31.9004 25.1658 47.1678 9.89844 66.0004 9.89844C84.8331 9.89844 100.1 25.1658 100.1 43.9984Z" fill="#6C63FF"/>
<path opacity="0.2" d="M71.4844 77.1519C71.5933 77.1267 71.7013 77.0994 71.8092 77.0722C71.9051 77.048 71.9999 77.0228 72.0958 76.9975C72.1008 76.7968 72.1079 76.5758 72.1149 76.3367C72.1744 74.4643 72.3147 71.4497 72.6456 67.8178C72.6638 67.6231 72.6819 67.427 72.7001 67.2296C72.8181 65.9988 72.9563 64.7044 73.1218 63.3626C73.1268 63.3182 73.1329 63.2748 73.1379 63.2304C73.2721 62.1429 73.4244 61.026 73.596 59.888C73.716 59.092 73.8458 58.2873 73.9854 57.4738C73.9955 57.4173 74.0056 57.3598 74.0156 57.3033C74.056 57.0682 74.0974 56.8342 74.1397 56.5981C74.2578 55.9413 74.3839 55.2805 74.5161 54.6197C74.9811 52.2952 75.535 49.9567 76.1958 47.6816C76.8671 45.3223 77.6938 43.0099 78.6706 40.7597C79.4282 39.0117 80.3306 37.3301 81.3683 35.7325C81.3835 35.7093 81.3986 35.6871 81.4137 35.6639C82.7404 33.6653 84.2567 31.9694 85.988 30.7012L85.6288 30.2109C83.9702 31.4266 82.4488 33.0442 81.0647 35.0636C81.0576 35.0737 81.0515 35.0828 81.0445 35.0929C80.0036 36.6364 79.0951 38.2651 78.3286 39.9617C77.3023 42.2311 76.4365 44.5697 75.7378 46.9603C75.076 49.1818 74.4824 51.5887 73.9571 54.1808C73.7725 55.0938 73.5963 56.0294 73.4285 56.9875C73.4002 57.1509 73.372 57.3144 73.3437 57.4788C73.3437 57.4808 73.3427 57.4839 73.3427 57.4859C73.2993 57.7381 73.258 57.9903 73.2156 58.2456C73.1107 58.8882 73.0118 59.5258 72.919 60.1584C72.7757 61.133 72.6463 62.0907 72.5306 63.0317C72.4922 63.3424 72.4553 63.6508 72.4196 63.9568C72.3692 64.3886 72.3214 64.8147 72.2763 65.2351C72.2128 65.8202 72.1546 66.3929 72.1018 66.9532L72.0867 67.1075C72.0786 67.1963 72.0705 67.2851 72.0625 67.3729C71.6529 71.7907 71.5247 75.3591 71.4844 77.1519Z" fill="black"/>
<path opacity="0.2" d="M79.2168 74.2541C79.2279 74.248 79.24 74.242 79.2511 74.2359C79.4589 74.128 79.6647 74.018 79.8705 73.905C79.9381 73.1 80.0289 72.2152 80.148 71.285C80.1732 71.0933 80.1984 70.8986 80.2267 70.7029C80.2408 70.5979 80.2559 70.492 80.2711 70.3851C80.3901 69.5659 80.5314 68.7204 80.7008 67.8709C81.3899 64.4045 82.534 60.8613 84.4337 58.674C84.5356 58.556 84.6395 58.443 84.7475 58.333C85.015 58.055 85.3056 57.8002 85.6161 57.5713L85.2569 57.082C84.8234 57.4026 84.4245 57.7675 84.0665 58.1706C83.9404 58.3108 83.8173 58.4568 83.6972 58.6085C81.9488 60.8088 80.8572 64.0665 80.1773 67.2919C79.9997 68.1333 79.8504 68.9737 79.7233 69.7918C79.691 70.0057 79.66 70.2176 79.6304 70.4274C79.4337 71.8136 79.3036 73.1232 79.2168 74.2541Z" fill="black"/>
<path opacity="0.2" d="M89.3793 30.6883C91.0558 30.6883 92.4149 29.3292 92.4149 27.6528C92.4149 25.9763 91.0558 24.6172 89.3793 24.6172C87.7028 24.6172 86.3438 25.9763 86.3438 27.6528C86.3438 29.3292 87.7028 30.6883 89.3793 30.6883Z" fill="black"/>
<path opacity="0.2" d="M88.4027 56.8211C90.0792 56.8211 91.4383 55.4621 91.4383 53.7856C91.4383 52.1091 90.0792 50.75 88.4027 50.75C86.7263 50.75 85.3672 52.1091 85.3672 53.7856C85.3672 55.4621 86.7263 56.8211 88.4027 56.8211Z" fill="black"/>
<path opacity="0.2" d="M77.3284 32.7509C77.9721 36.3826 76.5511 39.671 76.5511 39.671C76.5511 39.671 74.0864 37.0713 73.4427 33.4396C72.799 29.808 74.22 26.5195 74.22 26.5195C74.22 26.5195 76.6847 29.1192 77.3284 32.7509Z" fill="black"/>
<path opacity="0.2" d="M87.4174 41.3743C83.9535 42.641 80.4727 41.8281 80.4727 41.8281C80.4727 41.8281 82.6081 38.9616 86.072 37.695C89.536 36.4283 93.0168 37.2412 93.0168 37.2412C93.0168 37.2412 90.8814 40.1077 87.4174 41.3743Z" fill="black"/>
<path opacity="0.2" d="M88.004 64.5139C85.576 65.4017 83.1328 64.8226 83.1328 64.8226C83.1328 64.8226 84.6261 62.804 87.0541 61.9161C89.482 61.0283 91.9252 61.6075 91.9252 61.6075C91.9252 61.6075 90.4319 63.6261 88.004 64.5139Z" fill="black"/>
<path d="M76.2871 64L76.4102 64.0636C76.3981 64.1947 76.3688 64.2754 76.2871 64Z" fill="#2F2E41"/>
<path d="M76.4495 64.0424C76.4505 64.0565 76.4525 64.0717 76.4535 64.0858L76.4102 64.0636C76.4112 64.0505 76.4122 64.0364 76.4142 64.0222C76.4243 63.8457 76.4122 63.6368 76.4495 64.0424Z" fill="#2F2E41"/>
<path d="M63.3459 59.2192C72.4955 59.2192 79.9126 51.8021 79.9126 42.6526C79.9126 33.5031 72.4955 26.0859 63.3459 26.0859C54.1964 26.0859 46.7793 33.5031 46.7793 42.6526C46.7793 51.8021 54.1964 59.2192 63.3459 59.2192Z" fill="#2F2E41"/>
<path d="M64.7085 58.542C70.2494 58.542 74.7412 54.0502 74.7412 48.5093C74.7412 42.9684 70.2494 38.4766 64.7085 38.4766C59.1676 38.4766 54.6758 42.9684 54.6758 48.5093C54.6758 54.0502 59.1676 58.542 64.7085 58.542Z" fill="#D0CDE1"/>
<path d="M87.6173 67.74L87.6052 67.743L85.2717 68.3029L80.4129 69.4692L79.7501 69.6286L72.3611 71.4012L71.7335 71.5525L53.8068 75.8544C52.595 75.3908 51.4109 74.8576 50.2606 74.2573C50.2495 74.2512 50.2374 74.2452 50.2263 74.2391C50.1608 74.2048 50.0962 74.1716 50.0316 74.1362C49.8894 74.0616 49.7478 73.9856 49.6069 73.9082C48.8048 73.4674 48.0233 72.9959 47.2623 72.4938C47.0665 72.3657 46.8728 72.2355 46.6811 72.1034C46.6196 72.061 46.5591 72.0186 46.4985 71.9762C46.435 71.9318 46.3714 71.8875 46.3089 71.8431C46.1424 71.725 45.9769 71.6056 45.8125 71.4849C47.5538 68.3201 51.7003 66.2166 55.8468 65.0654C58.9763 64.1958 59.6644 61.3376 59.6048 58.7943C59.5897 58.2141 59.5405 57.6354 59.4575 57.061C59.3311 56.1469 59.13 55.2446 58.8563 54.3633L68.8895 54.6982L69.9246 57.0832C69.8963 57.3452 69.8872 57.6089 69.8974 57.8722C69.9761 59.8284 71.1837 61.0935 72.6738 61.9097C72.8675 62.0156 73.0663 62.1145 73.268 62.2063C75.7115 63.3171 78.5878 63.3927 78.5878 63.3927C79.4637 63.2959 80.3484 63.3125 81.22 63.4422C81.4319 63.4744 81.6377 63.5131 81.8374 63.5582C83.0037 63.8188 84.1055 64.3119 85.0769 65.0079C85.448 65.2719 85.799 65.5629 86.1272 65.8786C86.7105 66.4245 87.2123 67.0513 87.6173 67.74Z" fill="#D0CDE1"/>
<path d="M89.1227 69.0618C89.0804 69.1012 89.038 69.1395 88.9956 69.1789C88.1069 69.991 87.1757 70.7554 86.2061 71.469C85.5554 71.9502 84.8875 72.4073 84.2024 72.8401C84.0521 72.9359 83.9008 73.0301 83.7485 73.1226C83.4841 73.284 83.2174 73.4417 82.9484 73.5957C82.5973 73.7975 82.2419 73.9929 81.882 74.1819C81.7368 74.2596 81.5905 74.3342 81.4442 74.4089C81.2303 74.5188 81.0154 74.6248 80.7985 74.7287C80.7612 74.7469 80.7238 74.765 80.6865 74.7822L80.2598 74.428L85.2719 68.3022L86.2797 67.0703C86.2797 67.0703 86.6823 67.0703 87.6054 67.7422C88.1156 68.122 88.5978 68.538 89.0481 68.9872C89.0723 69.0124 89.0975 69.0366 89.1227 69.0618Z" fill="#D0CDE1"/>
<path d="M89.0515 68.9901C89.038 69.0535 89.0191 69.1156 88.995 69.1758C88.1063 69.9879 87.1751 70.7524 86.2055 71.4659C85.3642 71.7692 84.4914 71.9766 83.6036 72.0844C83.6036 72.0844 83.6793 72.4637 83.7479 73.1195C83.4836 73.2809 83.2169 73.4386 82.9478 73.5926C82.5967 73.7944 82.2413 73.9898 81.8815 74.1788C81.7362 74.2565 81.5899 74.3311 81.4436 74.4058C81.2297 74.5158 81.0148 74.6217 80.7979 74.7256C80.7606 74.7438 80.7233 74.7619 80.6859 74.7791C80.5447 74.8477 80.4014 74.9143 80.2582 74.9809C78.3924 75.8414 76.452 76.5299 74.4612 77.038C74.4501 77.041 74.44 77.043 74.4289 77.046C74.2987 77.0793 74.1676 77.1116 74.0364 77.1429C73.9386 77.1671 73.8397 77.1903 73.7408 77.2125C73.7286 77.2165 73.7162 77.2195 73.7035 77.2216C73.5007 77.269 73.2979 77.3144 73.0931 77.3557C72.9781 77.38 72.8631 77.4042 72.7481 77.4274C72.6785 77.4425 72.6079 77.4556 72.5383 77.4687C72.4505 77.4859 72.3637 77.502 72.276 77.5192C72.2275 77.5293 72.1791 77.5373 72.1297 77.5454C72.0187 77.5656 71.9077 77.5858 71.7977 77.6049C71.6101 77.6372 71.4204 77.6685 71.2318 77.6967C71.0946 77.7179 70.9584 77.7381 70.8211 77.7573C70.6597 77.7805 70.4983 77.8017 70.3359 77.8218C70.2915 77.8289 70.2471 77.834 70.2027 77.839C70.1452 77.8461 70.0877 77.8531 70.0302 77.8602C69.9142 77.8743 69.7982 77.8874 69.6811 77.8995C69.6206 77.9066 69.5611 77.9126 69.5005 77.9187C69.3855 77.9308 69.2705 77.9419 69.1555 77.952C69.0072 77.9661 68.8589 77.9782 68.7096 77.9903C68.528 78.0045 68.3474 78.0176 68.1648 78.0287C68.0478 78.0357 67.9307 78.0428 67.8127 78.0488C67.512 78.065 67.2114 78.0761 66.9087 78.0842C66.7584 78.0882 66.6071 78.0912 66.4557 78.0932H66.4527C66.3024 78.0952 66.1511 78.0963 65.9997 78.0963C64.4661 78.0969 62.9342 77.9944 61.4144 77.7896C60.2996 77.6403 59.2026 77.4378 58.1234 77.1822C58.0801 77.1721 58.0367 77.162 57.9943 77.1509C57.8854 77.1257 57.7774 77.0985 57.6694 77.0712C57.5736 77.047 57.4788 77.0218 57.3829 76.9966C54.9128 76.3538 52.5234 75.4336 50.2603 74.2534C50.2492 74.2474 50.2371 74.2413 50.226 74.2353C50.1604 74.201 50.0958 74.1677 50.0312 74.1324C55.569 72.842 64.32 70.8071 71.9138 69.0638C72.1266 69.0154 72.3382 68.9669 72.5483 68.9185C75.353 68.2749 77.9801 67.6756 80.2027 67.1742C80.4327 67.1227 80.658 67.0723 80.8786 67.0228C83.2666 66.4861 85.121 66.0785 86.1268 65.8747C86.3979 65.8128 86.672 65.7646 86.948 65.7305L89.0475 68.9841L89.0515 68.9901Z" fill="#2F2E41"/>
<path d="M48.1887 35.6C50.914 35.6 53.1234 33.3906 53.1234 30.6652C53.1234 27.9398 50.914 25.7305 48.1887 25.7305C45.4633 25.7305 43.2539 27.9398 43.2539 30.6652C43.2539 33.3906 45.4633 35.6 48.1887 35.6Z" fill="#2F2E41"/>
<path d="M78.5012 34.1898C81.2265 34.1898 83.4359 31.9804 83.4359 29.2551C83.4359 26.5297 81.2265 24.3203 78.5012 24.3203C75.7758 24.3203 73.5664 26.5297 73.5664 29.2551C73.5664 31.9804 75.7758 34.1898 78.5012 34.1898Z" fill="#2F2E41"/>
<path d="M73.215 27.1418C73.2151 25.9247 73.6651 24.7506 74.4784 23.8451C75.2917 22.9396 76.4109 22.3666 77.621 22.2362C76.9318 22.1609 76.2346 22.2317 75.5746 22.4439C74.9146 22.6561 74.3068 23.005 73.7906 23.4678C73.2745 23.9306 72.8617 24.497 72.5791 25.13C72.2965 25.7631 72.1504 26.4485 72.1504 27.1418C72.1504 27.835 72.2965 28.5205 72.5791 29.1535C72.8617 29.7866 73.2745 30.3529 73.7906 30.8157C74.3068 31.2786 74.9146 31.6274 75.5746 31.8397C76.2346 32.0519 76.9318 32.1226 77.621 32.0474C76.4109 31.917 75.2917 31.344 74.4784 30.4385C73.6651 29.533 73.2151 28.3589 73.215 27.1418Z" fill="#2F2E41"/>
<path d="M42.6743 34.6579C41.8226 33.7884 41.3223 32.6348 41.2694 31.4189C41.2166 30.2029 41.6151 29.0103 42.3882 28.0703C41.8433 28.4989 41.3947 29.0374 41.0718 29.6509C40.749 30.2643 40.5589 30.9389 40.5142 31.6307C40.4694 32.3225 40.571 33.016 40.8121 33.6659C41.0533 34.3159 41.4287 34.9077 41.9139 35.4029C42.399 35.8981 42.9831 36.2855 43.628 36.5398C44.2729 36.7942 44.9641 36.9098 45.6567 36.8792C46.3493 36.8486 47.0276 36.6724 47.6475 36.3621C48.2675 36.0517 48.815 35.6143 49.2546 35.0782C48.299 35.832 47.0985 36.206 45.8839 36.1284C44.6693 36.0508 43.5262 35.5271 42.6743 34.6579Z" fill="#2F2E41"/>
<path d="M63.3459 34.8945C57.5058 34.8945 52.7715 37.6562 52.7715 41.063C52.7715 42.5873 53.7231 43.9804 55.294 45.0567L57.3297 43.5816L56.7761 45.8924C57.0058 45.9989 57.2403 46.1019 57.485 46.1971L60.5261 42.6491V47.0078C61.4586 47.1573 62.4015 47.232 63.3459 47.2314C69.1861 47.2314 73.9204 44.4697 73.9204 41.063C73.9204 37.6562 69.1861 34.8945 63.3459 34.8945Z" fill="#2F2E41"/>
<path d="M73.5665 29.2539C73.5665 29.2539 72.8001 32.7787 77.5894 34.1887L73.5665 29.2539Z" fill="#2F2E41"/>
<path d="M52.7709 29.8984C52.7709 29.8984 54.5333 33.8392 49.2461 35.6016L52.7709 29.8984Z" fill="#2F2E41"/>
<path d="M55.385 52.4477C55.8297 52.3232 55.9479 51.3572 55.6492 50.2901C55.3504 49.2229 54.7478 48.4587 54.3032 48.5832C53.8585 48.7077 53.7402 49.6737 54.039 50.7409C54.3377 51.808 54.9404 52.5722 55.385 52.4477Z" fill="#D0CDE1"/>
<path d="M75.7435 48.8969C75.8116 47.7908 75.4932 46.8712 75.0323 46.8428C74.5715 46.8144 74.1426 47.688 74.0745 48.7941C74.0064 49.9002 74.3248 50.8199 74.7856 50.8483C75.2465 50.8767 75.6753 50.003 75.7435 48.8969Z" fill="#D0CDE1"/>
</svg>
