<svg width="132" height="88" viewBox="0 0 132 88" fill="none" xmlns="http://www.w3.org/2000/svg">
<path d="M29 44C29 23.5655 45.5655 7 66 7C86.4345 7 103 23.5655 103 44C103 64.4345 86.4345 81 66 81C45.5655 81 29 64.4345 29 44Z" fill="url(#paint0_linear_2233_6839)"/>
<path d="M75.7746 60.0989H64.4044V28.0242H75.8686C79.0949 28.0242 81.8722 28.6663 84.2005 29.9505C86.5289 31.2243 88.3195 33.0567 89.5724 35.4477C90.8358 37.8387 91.4675 40.6995 91.4675 44.0302C91.4675 47.3713 90.8358 50.2426 89.5724 52.644C88.3195 55.0455 86.5184 56.8883 84.1692 58.1725C81.8304 59.4568 79.0322 60.0989 75.7746 60.0989ZM71.1858 54.2885H75.4927C77.4974 54.2885 79.1836 53.9335 80.5514 53.2235C81.9296 52.5031 82.9633 51.3911 83.6524 49.8876C84.3519 48.3737 84.7017 46.4212 84.7017 44.0302C84.7017 41.6601 84.3519 39.7233 83.6524 38.2198C82.9633 36.7163 81.9348 35.6095 80.5671 34.8996C79.1993 34.1896 77.5131 33.8346 75.5084 33.8346H71.1858V54.2885Z" fill="white"/>
<path d="M55.3576 49.8562V36.0428H62.0294V60.0988H55.6238V55.7293H55.3732C54.8303 57.1388 53.9271 58.2716 52.6638 59.1278C51.4109 59.984 49.8813 60.4121 48.075 60.4121C46.4671 60.4121 45.0523 60.0466 43.8307 59.3157C42.6091 58.5849 41.6538 57.546 40.9647 56.1991C40.286 54.8522 39.9414 53.2391 39.931 51.3597V36.0428H46.6028V50.1694C46.6132 51.5894 46.9943 52.7118 47.7461 53.5367C48.4978 54.3615 49.5054 54.7739 50.7687 54.7739C51.5727 54.7739 52.3245 54.5912 53.024 54.2258C53.7235 53.8499 54.2874 53.2965 54.7154 52.5656C55.154 51.8348 55.368 50.9316 55.3576 49.8562Z" fill="white"/>
<defs>
<linearGradient id="paint0_linear_2233_6839" x1="29" y1="53.6705" x2="107.205" y2="37.6932" gradientUnits="userSpaceOnUse">
<stop stop-color="#6E64DA"/>
<stop offset="1" stop-color="#3880FD"/>
</linearGradient>
</defs>
</svg>
