<svg width="132" height="88" viewBox="0 0 132 88" fill="none" xmlns="http://www.w3.org/2000/svg">
<path fill-rule="evenodd" clip-rule="evenodd" d="M70.5004 20.0118C70.5004 15.5956 66.9202 12.0156 62.5042 12.0156H46.5119C42.0959 12.0156 38.5156 15.5956 38.5156 20.0118V67.989C38.5156 72.405 42.0959 75.9852 46.5119 75.9852H62.5042C66.9202 75.9852 70.5004 72.405 70.5004 67.989V63.9897C79.6563 63.9891 87.7853 59.588 92.8849 52.7988C93.8793 51.4747 93.6114 49.5951 92.2881 48.6004C90.9637 47.606 89.0835 47.873 88.0891 49.1972C84.0741 54.5432 77.69 57.9919 70.5004 57.9928V20.0118ZM48.7089 48.6004C50.0333 47.606 51.9132 47.873 52.9078 49.1972C56.9239 54.5437 63.31 57.9928 70.5004 57.9928V63.9897C61.3437 63.9897 53.2125 59.5886 48.1121 52.7988C47.1174 51.4747 47.3853 49.5951 48.7089 48.6004Z" fill="#18181B"/>
<path d="M76.4973 34.0053C76.4973 37.3174 79.1822 40.0023 82.4945 40.0023C85.8069 40.0023 88.4917 37.3174 88.4917 34.0053C88.4917 30.693 85.8069 28.0081 82.4945 28.0081C79.1822 28.0081 76.4973 30.693 76.4973 34.0053Z" fill="#18181B"/>
</svg>
