<svg width="132" height="88" viewBox="0 0 132 88" fill="none" xmlns="http://www.w3.org/2000/svg">
<path d="M66 6.875C45.496 6.875 28.875 23.496 28.875 44C28.875 64.504 45.496 81.125 66 81.125C86.504 81.125 103.125 64.504 103.125 44C103.125 23.496 86.5057 6.875 66 6.875Z" fill="#6116F5"/>
<path d="M55.5296 30.1144L53.656 37.0821C53.3257 38.3104 51.7085 38.5926 50.9825 37.5483L45.2965 29.3797C44.0681 27.6232 44.7959 25.624 46.2238 24.6967C47.2371 24.0395 48.5945 23.9105 49.8505 24.7535L54.7674 28.0739C55.4315 28.5212 55.736 29.3419 55.5278 30.1144H55.5296Z" fill="white"/>
<path d="M69.6989 40.5231L66.234 53.4366C65.7746 55.1484 63.5243 55.5424 62.511 54.0869L57.0486 46.2435C56.4052 45.3196 56.2022 44.1566 56.4929 43.0693L58.9514 33.8926C59.2852 32.647 60.7458 32.0999 61.8142 32.8208L68.5066 37.3334C69.544 38.0336 70.0223 39.3136 69.6989 40.5231Z" fill="white"/>
<path d="M84.1057 61.9923L82.2064 63.7058C79.8924 65.8048 76.8524 66.5187 74.0533 65.9768C72.5049 65.6792 71.0202 64.9962 69.7729 63.9398C68.8197 63.1329 68.4155 61.8443 68.7389 60.6383L73.1466 44.2066C73.563 42.6582 75.3797 41.9786 76.7096 42.8732L83.0476 47.1416C85.0468 48.4835 86.3457 50.4397 86.9031 52.5678C87.7599 55.8229 86.8601 59.4925 84.104 61.9923H84.1057Z" fill="white"/>
</svg>
