<svg width="132" height="88" viewBox="0 0 132 88" fill="none" xmlns="http://www.w3.org/2000/svg">
<path fill-rule="evenodd" clip-rule="evenodd" d="M39.1858 22.841C37.2783 24.3277 35.8884 25.9998 34.9044 27.9922C33.2411 31.3598 33.3095 30.2815 33.3791 51.9632C33.4415 71.3474 33.4424 71.3805 33.9412 72.8343C34.4541 74.3295 35.6726 76.4953 36.7583 77.8421L37.372 78.6033L38.5605 78.1632C40.6041 77.407 45.5313 74.9159 47.2744 73.7578C55.4134 68.3511 60.0147 61.3018 60.4979 53.499C60.613 51.6398 60.3621 48.1739 60.0931 47.9068C60.0528 47.8668 59.6793 47.9033 59.263 47.9877C58.5845 48.1254 58.4559 48.2796 58.0171 49.4818C56.8455 52.6924 54.4835 54.8983 50.4155 56.5814C49.596 56.9204 49.5888 56.9184 48.1552 55.9644C44.9798 53.851 42.7378 51.3137 41.0897 47.9687C39.4354 44.6108 39.159 45.5772 44.5816 35.7623C47.1868 31.0469 49.2741 27.1179 49.22 27.031C49.0256 26.7192 41.0677 21.8751 40.7498 21.8753C40.5712 21.8753 39.8672 22.31 39.1858 22.841Z" fill="url(#paint0_linear_2233_6829)"/>
<path fill-rule="evenodd" clip-rule="evenodd" d="M59.9104 5.01914C59.9104 5.07904 60.1548 5.60692 60.4537 6.19202C61.64 8.51476 62.1031 11.3958 61.717 14.0531C61.2766 17.0845 61.2021 17.232 59.7477 17.9396C59.0337 18.2869 58.0939 18.8467 57.6593 19.1833L56.8693 19.7952L42.4602 15.0353C34.5354 12.4171 28.0293 10.2971 28.0023 10.3237C27.9462 10.3793 28.8261 10.9343 41.8892 19.0805C47.1548 22.3643 51.8441 25.294 52.31 25.5908C53.1036 26.0968 53.1369 26.162 52.8402 26.6291C52.5312 27.1155 49.4932 32.6071 44.9882 40.8237L42.7474 44.91L43.1234 45.8522C44.0891 48.2729 46.7319 51.5669 49.0639 53.2565C49.907 53.8675 49.9978 53.8521 51.8427 52.7836C53.9123 51.5852 55.2943 49.5441 55.9324 46.7442C56.2163 45.4985 56.2532 45.4518 56.9984 45.3992C65.8653 44.7741 73.3556 39.7851 75.3712 33.1615C75.6889 32.1178 75.7756 31.1023 75.7627 28.58C75.7481 25.741 75.6715 25.0949 75.1455 23.3677C74.8153 22.2831 74.337 20.9911 74.0827 20.4965C73.8282 20.0017 73.6585 19.559 73.7054 19.5125C73.8399 19.3791 75.3311 21.2249 76.3405 22.7746C76.8465 23.5514 77.5306 24.9992 77.8609 25.9924C78.7153 28.5626 78.7112 31.9145 77.8507 34.5318C76.7228 37.9619 73.6811 41.717 70.2426 43.9237C68.3614 45.131 65.3886 46.5457 63.9068 46.9391L62.8481 47.22L63.0123 48.1247C63.1028 48.6222 63.167 50.6888 63.1551 52.717C63.1312 56.7738 62.8823 58.0857 61.4559 61.6669C58.6005 68.8358 51.0154 75.8957 42.0863 79.6952C40.9924 80.1608 40.095 80.612 40.0923 80.6978C40.0846 80.9289 42.7013 82.1183 44.2545 82.5899C45.5211 82.9743 46.8295 83 65.0915 83H84.5769L86.2664 82.4788C92.0999 80.6797 96.0555 76.009 96.8775 69.9495C97.1676 67.8109 96.873 63.9206 96.1436 60.2616C95.6807 57.9395 95.678 57.8269 96.06 56.8344C96.998 54.3976 99.5874 54.3699 100.978 56.7816C101.729 58.0835 102.052 59.1616 102.367 61.4246L102.634 63.3328L103.133 61.7684C104.199 58.4256 104.281 55.1799 103.385 51.7053C102.961 50.0595 102.367 48.8334 98.125 40.8519C96.3788 37.5654 96.0706 36.2853 96.8417 35.5203C97.4582 34.9086 98.1899 35.0295 100.197 36.0752L101.626 36.8194L101.475 36.2196C101.142 34.8981 99.9368 32.3635 98.8864 30.776C97.4941 28.6718 95.4725 26.7851 92.4666 24.7842C89.6183 22.8883 88.932 22.0804 88.932 20.6228C88.932 19.9494 89.084 19.3652 89.3566 18.9922C89.8636 18.2978 91.9694 17.1833 92.7831 17.1786C94.1655 17.1703 94.0169 16.7991 92.2107 15.7487C89.9301 14.4225 87.4608 13.4812 84.3516 12.7533C82.131 12.2332 81.4293 12.1738 77.5937 12.1798C74.0681 12.1854 72.9104 12.2723 71.0256 12.6728C68.3195 13.2478 68.4705 13.2373 68.4705 12.8538C68.4705 12.686 68.1177 11.849 67.6863 10.9939C66.4 8.4428 63.8057 6.27337 60.7711 5.21112C60.2978 5.04529 59.9104 4.95902 59.9104 5.01914ZM62.011 25.5937C61.537 25.7575 61.1266 25.893 61.0989 25.8947C61.071 25.8965 60.8937 26.1949 60.7047 26.5574C60.4096 27.1235 60.2037 29.2505 60.4438 29.2505C60.4895 29.2505 60.9736 28.8073 61.5197 28.2655C62.2552 27.5358 62.8582 27.1809 63.848 26.8955L65.1838 26.5102L64.5389 26C63.6944 25.332 63.0627 25.2303 62.011 25.5937Z" fill="black"/>
<defs>
<linearGradient id="paint0_linear_2233_6829" x1="48.4585" y1="77.0609" x2="49.6505" y2="4.86603" gradientUnits="userSpaceOnUse">
<stop stop-color="#751CEC"/>
<stop offset="0.94696" stop-color="#E200FB"/>
</linearGradient>
</defs>
</svg>
