<svg width="132" height="88" viewBox="0 0 132 88" fill="none" xmlns="http://www.w3.org/2000/svg">
<mask id="mask0_2056_25601" style="mask-type:luminance" maskUnits="userSpaceOnUse" x="30" y="8" width="72" height="72">
<path d="M30.0176 8.01562H101.984V79.9817H30.0176V8.01562Z" fill="white"/>
</mask>
<g mask="url(#mask0_2056_25601)">
<path d="M66.0004 79.9817C85.873 79.9817 101.984 63.8713 101.984 43.9985C101.984 24.1259 85.873 8.01562 66.0004 8.01562C46.1278 8.01562 30.0176 24.1259 30.0176 43.9985C30.0176 63.8713 46.1278 79.9817 66.0004 79.9817Z" fill="#FFFF00"/>
<path d="M62.1242 72.1686L60.4929 71.4971C60.109 66.5713 58.5098 61.3254 55.6952 55.7602L56.9426 52.6896C59.9492 56.016 62.0601 58.8946 63.2756 61.3254L72.7749 38.1044L50.5137 48.5635L60.8768 15.3633L64.9066 16.3228L57.0386 41.367L80.5472 30.1404L66.9218 62.7647C68.2652 62.3811 69.8324 62.061 71.6235 61.8053C73.4786 61.4854 75.4938 61.2935 77.6688 61.2297L76.4214 64.3006C70.5361 66.2836 65.7704 68.9063 62.1242 72.1686Z" fill="black"/>
<path fill-rule="evenodd" clip-rule="evenodd" d="M62.2839 73.0999L59.7341 72.0505L59.6961 71.5607C59.3224 66.7619 57.7609 61.6181 54.9815 56.1225L54.8173 55.7977L56.6816 51.2096L57.5363 52.155C59.9851 54.8649 61.87 57.3066 63.1685 59.4769L71.2588 39.7022L49.209 50.0615L60.3358 14.4141L65.9271 15.7452L58.3527 39.8551L82.0927 28.518L68.2761 61.5983C69.2625 61.3766 70.3381 61.183 71.4997 61.0169C73.3936 60.6908 75.4426 60.4966 77.6456 60.4317L78.871 60.3957L77.0239 64.9428L76.6771 65.0597C70.868 67.0169 66.204 69.5925 62.6579 72.766L62.2839 73.0999ZM71.6234 61.8067C70.2492 62.0031 69.0068 62.2371 67.8963 62.5088C67.5595 62.5913 67.2347 62.6771 66.9217 62.7665L80.5472 30.1418L57.0385 41.3684L64.9068 16.3244L60.8767 15.3648L50.5136 48.5652L72.7748 38.1061L63.2755 61.3271C63.1265 61.0282 62.9637 60.7227 62.7866 60.4103C61.6241 58.3522 59.874 56.0004 57.5363 53.3549C57.3424 53.1357 57.1444 52.9143 56.9425 52.691L55.6951 55.7617C58.5098 61.3271 60.1089 66.573 60.4928 71.4985L62.1241 72.1704C65.7703 68.9078 70.5361 66.2851 76.4213 64.3021L77.6687 61.2311C77.3737 61.2397 77.0819 61.2507 76.792 61.2641C74.9498 61.3494 73.2278 61.5303 71.6234 61.8067Z" fill="black"/>
</g>
</svg>
