<svg width="132" height="88" viewBox="0 0 132 88" fill="none" xmlns="http://www.w3.org/2000/svg">
<circle cx="66.0003" cy="44.0003" r="35.4417" fill="#151515"/>
<path d="M51.1199 53.8928C50.4729 53.8928 49.8524 53.6358 49.395 53.1783C48.9375 52.7208 48.6805 52.1004 48.6805 51.4534V35.8852H46.6845C46.0375 35.8852 45.4171 36.1423 44.9596 36.5997C44.5021 37.0572 44.2451 37.6777 44.2451 38.3246V55.8888C44.2451 56.5357 44.5021 57.1562 44.9596 57.6137C45.4171 58.0712 46.0375 58.3282 46.6845 58.3282H79.107C79.754 58.3282 80.3745 58.0712 80.8319 57.6137C81.2894 57.1562 81.5464 56.5357 81.5464 55.8888V53.8928H51.1199Z" fill="#BAC0C4"/>
<path d="M85.3166 29.6758H52.8941C52.2471 29.6758 51.6267 29.9328 51.1692 30.3903C50.7117 30.8477 50.4547 31.4682 50.4547 32.1152V49.6793C50.4547 50.3381 50.7164 50.9698 51.1822 51.4356C51.648 51.9015 52.2798 52.1631 52.9385 52.1631H85.3166C85.9636 52.1631 86.5841 51.9061 87.0415 51.4487C87.499 50.9912 87.756 50.3707 87.756 49.7237V32.1152C87.756 31.4682 87.499 30.8477 87.0415 30.3903C86.5841 29.9328 85.9636 29.6758 85.3166 29.6758ZM66.1559 45.0222V36.7723L74.7161 40.8972L66.1559 45.0222Z" fill="white"/>
</svg>
