<svg width="132" height="88" viewBox="0 0 132 88" fill="none" xmlns="http://www.w3.org/2000/svg">
<path d="M93.1244 47.7839L98.1729 50.2108C100.462 51.3105 100.601 53.4 98.4828 54.8545L69.8515 74.5087C68.7919 75.2364 67.3954 75.5991 65.9993 75.5991C64.6028 75.5991 63.2066 75.2364 62.1482 74.5087L33.5156 54.8545C31.3976 53.4 31.5366 51.3105 33.8255 50.2108L38.8711 47.7839L60.7297 59.0386C62.1781 59.7841 64.0501 60.195 65.9993 60.195C67.9482 60.195 69.8204 59.7841 71.2688 59.0386L93.1244 47.7839Z" fill="black"/>
<path d="M89.9685 31.8468L98.0808 35.1873C100.42 36.1503 100.483 37.8914 98.2207 39.056L70.1111 53.5281C68.9794 54.1103 67.4892 54.401 65.9979 54.401C64.5077 54.401 63.0163 54.1103 61.8858 53.5281L33.7752 39.056C31.5142 37.8914 31.5762 36.1503 33.9161 35.1873L42.0242 31.8468L60.8504 38.3077C62.2595 38.7911 64.0877 39.0579 65.9979 39.0579C67.9089 39.0579 69.7371 38.7911 71.1453 38.3077L89.9685 31.8468Z" fill="black"/>
<path d="M66.0001 12.4023C67.5973 12.4023 69.1945 12.5687 70.4059 12.9014L97.929 20.4587C100.352 21.1241 100.384 22.3382 97.9999 23.1563L70.3341 32.6518C69.1425 33.0607 67.5714 33.2653 66.0001 33.2653C64.4279 33.2653 62.8566 33.0607 61.6642 32.6518L33.9993 23.1563C31.6154 22.3382 31.6474 21.1241 34.0702 20.4587L61.5932 12.9014C62.8046 12.5687 64.4018 12.4023 66.0001 12.4023Z" fill="black"/>
</svg>
