<svg width="132" height="88" viewBox="0 0 132 88" fill="none" xmlns="http://www.w3.org/2000/svg">
<path d="M51.9546 21.6406V39.9796C51.9546 43.0159 51.3466 45.202 50.1305 46.538C48.9143 47.8739 46.9686 48.6026 44.2932 48.6026C41.6177 48.6026 39.672 47.9954 38.4559 46.6594C37.2398 45.3234 36.6317 43.1373 36.6317 39.9796V21.6406H26.5381V39.9796C26.5381 45.4448 27.6326 49.4528 29.8216 52.3676C30.1864 52.7319 30.4296 53.2177 30.7944 53.582C33.7131 56.4968 38.2127 57.9542 44.2932 57.9542C50.2521 57.9542 54.7516 56.4968 57.6703 53.582C58.0351 53.2177 58.2783 52.8533 58.6432 52.3676C60.8321 49.4528 61.9267 45.3234 61.9267 39.9796V21.6406H51.9546Z" fill="url(#paint0_linear_2056_23742)"/>
<path d="M68.25 67.5489V21.5192H77.9787V27.2273C79.3165 24.9198 80.8974 23.2195 82.8432 22.005C84.789 20.9119 86.9779 20.3047 89.5318 20.3047C94.5178 20.3047 98.4093 22.005 101.206 25.2841C104.003 28.5633 105.463 33.1784 105.463 39.008C105.463 44.7162 104.003 49.2098 101.206 52.6105C98.4093 56.011 94.6394 57.7114 90.0182 57.7114C87.2212 57.7114 84.9106 57.2256 82.9648 56.1325C81.0191 55.1609 79.3165 53.4606 77.9787 51.2745C78.1004 52.1247 78.2219 53.0962 78.2219 54.1893C78.2219 55.1609 78.3436 56.3754 78.3436 57.7114V67.4274H68.25V67.5489ZM77.4923 39.008C77.4923 42.1658 78.222 44.5948 79.8029 46.4165C81.3839 48.1168 83.5728 49.0884 86.2483 49.0884C89.0453 49.0884 91.2343 48.2383 92.6936 46.4165C94.2745 44.7162 95.0042 42.1658 95.0042 39.008C95.0042 35.8503 94.2745 33.4213 92.6936 31.5995C91.1127 29.7778 88.9237 28.9277 86.1266 28.9277C83.4513 28.9277 81.2623 29.8993 79.6813 31.721C78.2219 33.2999 77.4923 35.8503 77.4923 39.008Z" fill="url(#paint1_linear_2056_23742)"/>
<path d="M58.7776 67.695C58.4122 67.3277 58.1685 66.8379 57.8032 66.4706C54.88 63.5319 50.3735 62.0625 44.2835 62.0625C38.3153 62.0625 33.8087 63.5319 30.8855 66.4706C30.5201 66.8379 30.2765 67.2053 29.9111 67.695H58.7776Z" fill="#3A3A3A"/>
<defs>
<linearGradient id="paint0_linear_2056_23742" x1="20.5836" y1="46.4266" x2="104.663" y2="15.8151" gradientUnits="userSpaceOnUse">
<stop stop-color="#6A11CB"/>
<stop offset="1" stop-color="#2575FC"/>
</linearGradient>
<linearGradient id="paint1_linear_2056_23742" x1="29.4389" y1="61.383" x2="112.726" y2="41.5737" gradientUnits="userSpaceOnUse">
<stop stop-color="#6A11CB"/>
<stop offset="1" stop-color="#2575FC"/>
</linearGradient>
</defs>
</svg>
