<svg width="132" height="88" viewBox="0 0 132 88" fill="none" xmlns="http://www.w3.org/2000/svg">
<path d="M90.9552 14.4125C90.9552 7.08312 86.8074 2.99543 80.6303 4.24696C80.5352 4.26725 80.4422 4.29912 80.3405 4.31942C80.3405 4.31942 68.9406 5.78533 68.9406 20.108V51.8679C68.9406 57.2071 64.8857 62.3724 59.8681 63.3863L58.2189 63.7196C53.2161 64.7338 49.1461 61.2135 49.1461 55.8744V36.7253C50.2687 36.9156 51.416 36.8912 52.5294 36.653C58.6306 35.4188 63.0575 29.3146 63.0575 22.1388C63.0575 14.8095 58.9086 10.7247 52.7324 11.9733C52.6364 11.9936 52.5446 12.0255 52.4425 12.0486C52.4425 12.0486 41.043 13.5116 41.043 27.8343V57.5142C41.043 67.6133 48.7432 73.5514 58.2079 71.6344L59.856 71.3005C69.3237 69.3865 77.024 60.33 77.024 50.2311V28.9989C78.1465 29.1892 79.2938 29.1645 80.4073 28.9266C86.5285 27.6924 90.9552 21.5884 90.9552 14.4125ZM55.8289 23.6483C55.8289 26.4555 54.3807 28.5732 52.1788 29.0077C49.9777 29.4422 48.4883 27.8981 48.4883 25.1344C48.4883 22.3706 49.9367 20.2616 52.1788 19.8097C54.4217 19.3577 55.8289 20.8671 55.8289 23.6483ZM80.0916 21.2756C77.8844 21.7217 76.4011 20.1631 76.4011 17.4022C76.4011 14.6414 77.8495 12.5295 80.0916 12.0776C82.3345 11.6256 83.7417 13.1349 83.7417 15.9161C83.7417 18.6972 82.3103 20.8265 80.0916 21.2756Z" fill="#0EF275"/>
<path d="M78.3976 69.3568C77.6708 68.963 76.8194 68.8723 76.0265 69.1041C75.2329 69.3359 74.5644 69.8708 74.1645 70.5935C74.0105 70.8834 70.3233 77.3613 62.1041 77.735C61.6944 77.754 61.2926 77.853 60.9219 78.0279C60.5501 78.2017 60.2171 78.4478 59.9401 78.7514C59.6643 79.0544 59.4504 79.4092 59.3115 79.795C59.1715 80.1808 59.1096 80.5898 59.1286 80.9995C59.1476 81.4093 59.2477 81.811 59.4215 82.1828C59.5964 82.5538 59.8422 82.8877 60.145 83.1635C60.4481 83.4393 60.8028 83.6533 61.1886 83.7932C61.5745 83.9321 61.9842 83.994 62.394 83.975C74.2256 83.4363 79.4431 73.9719 79.6598 73.569C80.0487 72.8422 80.1348 71.9916 79.8977 71.2021C79.6609 70.4126 79.1211 69.7487 78.3976 69.3568Z" fill="#0EF275"/>
</svg>
