<svg width="132" height="88" viewBox="0 0 132 88" fill="none" xmlns="http://www.w3.org/2000/svg">
<path d="M32.7246 24.5911C32.7246 16.934 38.932 10.7266 46.5892 10.7266H85.41C93.0672 10.7266 99.2746 16.934 99.2746 24.5911V63.412C99.2746 71.0691 93.0672 77.2766 85.41 77.2766H46.5892C38.932 77.2766 32.7246 71.0691 32.7246 63.412V24.5911Z" fill="#1D1D1D"/>
<path d="M80.3341 27.3642C80.2509 27.3669 80.1677 27.3741 80.0851 27.3861H69.1867C68.89 27.3819 68.5958 27.4367 68.3205 27.5473C68.0451 27.6579 67.7947 27.8221 67.5834 28.0303C67.3721 28.2386 67.2046 28.4867 67.0901 28.7604C66.9756 29.034 66.9165 29.3277 66.9165 29.6243C66.9165 29.9209 66.9756 30.2146 67.0901 30.4882C67.2046 30.7619 67.3721 31.01 67.5834 31.2183C67.7947 31.4265 68.0451 31.5908 68.3205 31.7013C68.5958 31.8119 68.89 31.8667 69.1867 31.8626H74.9746L65.6407 41.1965C65.2727 41.0989 64.8942 41.0304 64.4952 41.0304H53.8388C51.3655 41.0304 49.3623 43.0336 49.3623 45.507V56.1633C49.3623 58.6368 51.3655 60.6399 53.8388 60.6399H64.4952C66.9687 60.6399 68.9718 58.6368 68.9718 56.1633V45.507C68.9718 45.108 68.9033 44.7295 68.8057 44.3615L78.1396 35.0276V40.8155C78.1355 41.1122 78.1904 41.4067 78.301 41.6818C78.4114 41.9571 78.5758 42.2075 78.7841 42.4188C78.9923 42.6301 79.2405 42.7976 79.5139 42.9121C79.7876 43.0266 80.0812 43.0857 80.3779 43.0857C80.6746 43.0857 80.9683 43.0266 81.242 42.9121C81.5154 42.7976 81.7636 42.6301 81.9718 42.4188C82.1803 42.2075 82.3445 41.9571 82.4551 41.6818C82.5655 41.4067 82.6204 41.1122 82.6162 40.8155V29.9085C82.6609 29.5862 82.6345 29.2581 82.5394 28.947C82.4443 28.6359 82.2824 28.3493 82.0653 28.1071C81.8481 27.8649 81.5805 27.673 81.2816 27.5447C80.9827 27.4164 80.6594 27.3548 80.3341 27.3642Z" fill="white"/>
</svg>
