<svg width="132" height="88" viewBox="0 0 132 88" fill="none" xmlns="http://www.w3.org/2000/svg">
<path d="M89.3311 53.3368C81.2549 66.5522 77.2168 73.1602 71.8983 75.1793C68.0991 76.6216 63.9029 76.6216 60.1027 75.1793C54.7853 73.1602 50.7472 66.5522 42.6711 53.3368C33.9692 39.0984 29.6193 31.979 30.4149 26.1201C30.9826 21.942 33.1176 18.136 36.3871 15.4728C40.9709 11.7383 49.3139 11.7383 66.0009 11.7383C82.6871 11.7383 91.0311 11.7383 95.6151 15.4728C98.8846 18.136 101.018 21.942 101.586 26.1201C102.383 31.979 98.0318 39.0984 89.3311 53.3368Z" fill="url(#paint0_linear_2056_25403)"/>
<path d="M65.2625 25.0415C65.6123 24.3384 66.5756 24.4206 66.9205 25.1262C67.7031 26.727 68.43 28.3853 69.1554 29.986C70.6649 33.2448 73.0687 35.5892 76.1982 37.1327C77.7074 37.8761 79.2157 38.5619 80.7249 39.3052C81.4146 39.6578 81.4916 40.5983 80.814 40.9731C80.7841 40.9899 80.7541 41.0056 80.7249 41.0204C79.2157 41.8209 77.6515 42.5071 76.0862 43.2501C72.9006 44.794 70.6088 47.1953 69.1007 50.454C68.43 51.8832 67.8142 53.3126 67.1435 54.6849C66.7967 55.4846 65.5183 55.4755 65.0755 54.7245C65.0565 54.6926 65.0376 54.6601 65.0205 54.6277C64.294 53.1413 63.6232 51.6547 62.8964 50.168C61.4433 47.1381 59.2631 44.8512 56.2455 43.3645C54.6244 42.5643 52.9483 41.8209 51.383 41.0204C51.347 41.002 51.312 40.9811 51.2771 40.958C50.7252 40.5884 50.7362 39.6075 51.3269 39.3052C52.8922 38.5047 54.5125 37.7614 56.0778 37.0183C59.0954 35.5317 61.3872 33.2448 62.8406 30.1576C63.6232 28.4994 64.3498 26.8414 65.1874 25.1834C65.2144 25.1348 65.2394 25.0877 65.2625 25.0415Z" fill="url(#paint1_linear_2056_25403)"/>
<defs>
<linearGradient id="paint0_linear_2056_25403" x1="66.0009" y1="38.2479" x2="66.0009" y2="98.2432" gradientUnits="userSpaceOnUse">
<stop offset="0.0012161" stop-color="#F85B2E"/>
<stop offset="0.9987" stop-color="#D8272E"/>
</linearGradient>
<linearGradient id="paint1_linear_2056_25403" x1="66.0005" y1="48.375" x2="118.002" y2="-45.0648" gradientUnits="userSpaceOnUse">
<stop stop-color="white"/>
<stop offset="1" stop-color="white" stop-opacity="0"/>
</linearGradient>
</defs>
</svg>
