<svg width="132" height="88" viewBox="0 0 132 88" fill="none" xmlns="http://www.w3.org/2000/svg">
<path d="M66.0004 78.0984C84.8333 78.0984 100.1 62.8313 100.1 43.9984C100.1 25.1655 84.8333 9.89844 66.0004 9.89844C47.1675 9.89844 31.9004 25.1655 31.9004 43.9984C31.9004 62.8313 47.1675 78.0984 66.0004 78.0984Z" fill="#171819"/>
<path d="M59.51 63.1973C59.8235 63.1973 60.9913 63.3988 60.9913 61.9418C60.9913 55.189 60.9913 48.4362 60.9913 41.6834C60.9913 39.8001 59.4646 38.2734 57.5813 38.2734H50.0877C48.2044 38.2734 46.6777 39.8001 46.6777 41.6834C46.6777 44.7007 46.6777 47.7181 46.6777 50.7354C46.6777 57.6179 52.423 63.1973 59.51 63.1973Z" fill="white" fill-opacity="0.1"/>
<path d="M83.7436 24.6922C84.2294 24.6922 86.0396 24.3799 86.0396 26.6382C86.0396 37.7302 86.0396 48.8222 86.0396 59.9142C86.0396 61.7975 84.5129 63.3242 82.6296 63.3242H67.2635C65.3802 63.3242 63.8535 61.7975 63.8535 59.9142C63.8535 54.6122 63.8535 49.3102 63.8535 44.0082C63.8535 33.3403 72.7586 24.6922 83.7436 24.6922Z" fill="white" fill-opacity="0.2"/>
</svg>
