<svg width="132" height="88" viewBox="0 0 132 88" fill="none" xmlns="http://www.w3.org/2000/svg">
<path fill-rule="evenodd" clip-rule="evenodd" d="M42.8778 24.5286C41.8099 24.6988 39.6462 25.4675 38.0692 26.2372C33.4443 28.4948 29.8625 32.8126 28.592 37.6629C28.1567 39.3245 28.0508 42.0833 28.0508 51.7639V63.7992H46.2315H64.4122V52.0583C64.4122 44.6722 64.2643 39.6278 64.0136 38.4576C62.5214 31.4912 56.2993 25.6174 49.2322 24.5044C46.6117 24.0916 45.5999 24.0955 42.8778 24.5286ZM69.59 26.4777C69.4604 26.6061 69.3545 35.0561 69.3545 45.2555V63.7992H86.6526H103.951V45.0214V26.2435H86.8881C77.5033 26.2435 69.7192 26.3488 69.59 26.4777ZM38.083 34.6385C37.6791 34.8108 36.9074 35.4731 36.3684 36.1098C35.5098 37.1242 35.4092 37.485 35.5575 39.0177C35.7926 41.4518 37.2156 42.74 39.6688 42.74C42.5046 42.74 44.3252 40.5207 43.7949 37.71C43.3543 35.3766 40.2573 33.7108 38.083 34.6385ZM50.759 34.8284C48.5335 35.7911 47.7368 38.1122 48.8484 40.3954C49.6819 42.1071 50.7301 42.74 52.7313 42.74C57.1057 42.74 58.3349 36.4752 54.2903 34.795C52.8655 34.2029 52.1905 34.2096 50.759 34.8284ZM78.2856 35.0042C77.0628 35.7451 76.0619 37.3393 76.0619 38.5453C76.0619 39.8075 77.1588 41.6884 78.2101 42.2289C78.7569 42.5101 79.8633 42.74 80.6689 42.74C81.8642 42.74 82.3549 42.5202 83.3342 41.5466C84.3135 40.573 84.5345 40.0851 84.5345 38.8967C84.5345 36.9294 83.6809 35.4187 82.2279 34.815C80.6078 34.1422 79.6299 34.1889 78.2856 35.0042ZM91.3895 34.6385C90.0823 35.1962 88.7708 37.0785 88.7708 38.3968C88.7708 40.9545 90.5122 42.74 93.0071 42.74C95.5146 42.74 97.2433 40.9545 97.2433 38.3649C97.2433 36.5633 95.4457 34.6767 93.5362 34.4746C92.7599 34.3921 91.7937 34.4658 91.3895 34.6385ZM35.376 49.746C34.4539 50.8748 33.6992 51.9551 33.6992 52.1464C33.6992 52.6694 36.8488 54.5746 39.3934 55.5907C42.1488 56.691 46.7917 57.0718 49.94 56.4562C52.3829 55.9782 56.8727 54.2474 57.6348 53.4897C58.0807 53.046 57.9985 52.7206 56.9867 50.932C55.2325 47.83 55.4722 47.9412 52.9703 49.069C48.0926 51.2679 43.402 51.1893 39.4827 48.8429C38.3905 48.1887 37.3971 47.6629 37.2749 47.6738C37.1528 47.6847 36.2981 48.6172 35.376 49.746ZM77.121 52.7431V55.7265H87.0057H96.8903V52.7431V49.7597H87.0057H77.121V52.7431Z" fill="#5D2EF5"/>
</svg>
