<svg width="132" height="88" viewBox="0 0 132 88" fill="none" xmlns="http://www.w3.org/2000/svg">
<path d="M78.5012 58.5232C80.747 57.0259 82.5437 55.0795 83.8912 52.684C85.6878 49.6895 86.5862 46.2459 86.5862 42.3532C86.5862 38.3107 85.6878 34.867 83.8912 32.0223C82.2442 29.0279 79.8487 26.6323 76.7045 24.9854C73.5603 23.4882 70.1167 22.5898 66.0742 22.5898C61.882 22.5898 58.2887 23.4882 55.2942 24.9854C52.1501 26.6323 49.7545 29.0279 47.9578 32.0223C46.3109 34.867 45.4126 38.3107 45.4126 42.3532C45.4126 46.2459 46.3109 49.6895 47.9578 52.684C49.4551 55.0795 51.2517 57.1757 53.6473 58.6729L60.6842 51.6359C60.0853 51.1868 59.6362 50.7376 59.0373 50.1387C57.2406 48.1923 56.3423 45.647 56.3423 42.5029C56.3423 39.3587 57.2406 36.6637 59.0373 34.7173C60.8339 32.7709 63.2295 31.8726 66.0742 31.8726C68.7692 31.8726 71.1648 32.7709 72.9614 34.7173C74.6084 36.6637 75.5067 39.3587 75.5067 42.5029C75.5067 45.647 74.6084 48.1923 72.9614 50.1387C72.5123 50.5879 71.9134 51.037 71.4642 51.4862L78.5012 58.5232ZM99.612 42.952C99.612 43.4012 99.612 43.8504 99.612 44.4493C99.612 50.7376 98.2645 56.4271 95.4198 61.2182C92.575 66.159 88.6823 70.0518 83.5917 72.7468C78.5012 75.4418 72.662 76.7893 66.0742 76.7893C59.3367 76.7893 53.4976 75.4418 48.407 72.7468C43.3164 70.0518 39.4237 66.159 36.5789 61.2182C33.7342 56.4271 32.3867 50.7376 32.3867 44.4493C32.3867 43.8504 32.3867 43.4012 32.3867 42.952C32.3867 42.952 32.3867 42.952 32.3867 42.8023V11.2109H99.3126C99.4623 11.2109 99.612 11.3607 99.612 11.5104V42.8023C99.612 42.952 99.612 42.952 99.612 42.952Z" fill="#2989CB"/>
</svg>
