<svg width="132" height="88" viewBox="0 0 132 88" fill="none" xmlns="http://www.w3.org/2000/svg">
<path d="M65.9996 77.2766C84.3769 77.2766 99.2746 62.3788 99.2746 44.0016C99.2746 25.6243 84.3769 10.7266 65.9996 10.7266C47.6223 10.7266 32.7246 25.6243 32.7246 44.0016C32.7246 62.3788 47.6223 77.2766 65.9996 77.2766Z" fill="#4531C8"/>
<path d="M76.3886 39.8863C76.7071 40.642 76.9429 41.4301 77.0918 42.2366C78.2054 48.3425 74.1636 54.1956 68.0654 55.3114C62.7059 56.2997 57.3276 53.2018 55.4886 48.0653C55.2521 47.4031 55.0769 46.7207 54.9651 46.0266C54.935 45.8232 54.9666 45.6155 55.0556 45.4302C55.1445 45.2449 55.2869 45.0905 55.4643 44.9866C55.6418 44.8829 55.8463 44.8346 56.0514 44.848C56.2566 44.8613 56.453 44.9357 56.6155 45.0616C57.5583 45.7981 58.612 46.3782 59.7378 46.7808C65.5742 48.8705 71.9974 45.827 74.0838 39.9861C74.4653 38.9191 75.9505 38.8425 76.3886 39.8863ZM65.9791 63.9652C54.9651 63.9652 46.0352 55.0264 46.0352 44.0002C46.0352 32.9739 54.9639 24.0352 65.9791 24.0352C76.9942 24.0352 85.9241 32.9739 85.9241 44.0002C85.9241 55.0264 76.9953 63.9652 65.9791 63.9652ZM65.9791 59.7792C74.6849 59.7792 81.7415 52.7138 81.7415 44.0002C81.7415 35.2854 74.6849 28.2212 65.9802 28.2212C57.2732 28.2212 50.2167 35.2865 50.2167 44.0002C50.2167 52.7149 57.2743 59.7792 65.9791 59.7792Z" fill="#F8F8F9"/>
</svg>
