<svg width="132" height="88" viewBox="0 0 132 88" fill="none" xmlns="http://www.w3.org/2000/svg">
<path fill-rule="evenodd" clip-rule="evenodd" d="M36.7129 32.9101C36.7129 55.7488 36.7489 56.4723 38.111 61.0657C39.3292 65.1742 41.7619 69.3951 44.1472 71.5399C45.7466 72.9778 49.0587 74.7466 51.6209 75.5315C54.1253 76.2985 59.3063 76.7154 62.4254 76.4008C68.2485 75.8139 75.2849 72.9473 80.0884 69.2054C81.0302 68.4714 81.8451 67.8711 81.8984 67.8711C81.952 67.8711 83.0375 69.226 84.3107 70.8821L86.6254 73.893L90.9566 73.9071L95.2879 73.9211V42.7086V11.4961H87.0379H78.7879V34.1638V56.8312L77.1104 57.8504C74.601 59.3747 70.8863 61.1517 69.0254 61.7177C66.7478 62.4107 62.146 62.4143 60.1511 61.7243C57.0975 60.6686 54.8373 58.0442 53.9229 54.494C53.5451 53.0263 53.4879 50.0904 53.4879 32.1502V11.4961H45.1004H36.7129V32.9101Z" fill="#5178F5"/>
</svg>
