<svg width="132" height="88" viewBox="0 0 132 88" fill="none" xmlns="http://www.w3.org/2000/svg">
<path d="M42.6765 70.125C54.1525 70.125 62.1783 63.2283 62.1783 50.4844V23.7222C62.1783 20.1989 59.8531 17.875 56.6278 17.875C53.4775 17.875 51.1523 20.1989 51.1523 23.7222V50.8592C51.1523 56.9313 47.7769 60.3797 42.6765 60.3797C37.801 60.3797 34.1256 57.0063 34.1256 50.8592V23.7222C34.1256 20.1989 31.8004 17.875 28.6501 17.875C25.4248 17.875 23.0996 20.1989 23.0996 23.7222V50.4844C23.0996 63.2283 30.7503 70.125 42.6765 70.125Z" fill="#6C75F1"/>
<path d="M103.724 69.7502C106.724 69.7502 108.9 67.5762 108.9 64.8025C108.9 63.6781 108.525 62.5536 107.775 61.4292L95.2483 43.1379L106.874 26.196C107.624 25.0716 108 23.9471 108 22.8226C108 20.049 105.824 17.875 102.824 17.875C100.949 17.875 99.4487 18.6996 98.2486 20.4987L89.0977 33.9923H88.9477L79.7969 20.4987C78.5968 18.6996 77.0966 17.875 75.2214 17.875C72.2212 17.875 70.046 20.049 70.046 22.8226C70.046 23.9471 70.421 25.0716 71.1711 26.196L82.7221 43.1379L70.271 61.4292C69.5209 62.5536 69.1459 63.6781 69.1459 64.8025C69.1459 67.5762 71.3211 69.7502 74.3214 69.7502C76.1965 69.7502 77.6967 68.9256 78.8968 67.1264L88.9477 52.2835H89.0977L99.1487 67.1264C100.349 68.9256 101.849 69.7502 103.724 69.7502Z" fill="#6C75F1"/>
</svg>
