<svg width="132" height="88" viewBox="0 0 132 88" fill="none" xmlns="http://www.w3.org/2000/svg">
<path d="M108.857 56.575H100.216L88.7909 39.2152L77.4371 56.575H68.7253L84.6493 32.7935L69.725 10H78.4368L88.8624 26.4424L99.1451 10H107.785L93.1468 32.7935L108.857 56.575Z" fill="black"/>
<path d="M23 37.7333V10H30.5692V38.2273C30.5692 42.085 31.6404 45.0959 33.7826 47.26C35.9724 49.4241 38.8526 50.5061 42.423 50.5061C45.9457 50.5061 48.7783 49.4241 50.9205 47.26C53.0627 45.0959 54.1339 42.085 54.1339 38.2273V10H61.7031V37.7333C61.7031 43.7551 59.8941 48.5302 56.2761 52.0586C52.7057 55.587 48.088 57.3512 42.423 57.3512C36.6627 57.3512 31.9736 55.587 28.3556 52.0586C24.7852 48.5302 23 43.7551 23 37.7333Z" fill="black"/>
<path d="M94.8955 66.031C94.8955 63.5587 96.3769 61.6562 98.8857 60.907C101.213 60.2116 106.176 60.968 107.868 62.276L108.521 62.7799L107.493 64.2168C106.928 65.0071 106.35 65.6936 106.21 65.7422C106.07 65.7911 105.415 65.5576 104.754 65.2231C102.396 64.0295 99.5339 64.1886 99.5339 65.5133C99.5339 66.2858 100.511 66.8475 102.753 67.3635C106.5 68.2254 108.303 69.3926 108.818 71.2873C109.475 73.7101 108.312 76.2111 106.003 77.3388C104.817 77.9184 104.194 78.0173 101.853 77.9978C98.9414 77.9736 97.5751 77.6152 95.2596 76.2692L94.0102 75.5427L94.5943 74.7685C94.9158 74.3426 95.4736 73.6445 95.8345 73.2169L96.4903 72.4392L98.3448 73.3512C100.641 74.4803 103.361 74.6583 104.049 73.7245C104.799 72.7084 103.992 72.0673 100.932 71.2485C96.3946 70.0342 94.8955 68.7385 94.8955 66.031Z" fill="#DA0303"/>
<path d="M23 77.877V60.9081H27.8819L29.8257 64.0718C30.8946 65.8118 31.8672 67.2355 31.9869 67.2355C32.1067 67.2355 33.0793 65.8118 34.1482 64.0718L36.0919 60.9081H40.9739V77.877H36.6254V73.1314C36.6254 70.5062 36.5085 68.3859 36.3642 68.3859C36.2204 68.3859 35.1643 69.8268 34.0171 71.5881L31.9313 74.7901L27.4935 67.9554L27.3349 77.877H23Z" fill="#DA0303"/>
<path d="M45.7103 66.4023C44.0103 63.6177 42.5678 61.2426 42.5043 61.1239C42.4411 61.0051 43.5636 60.9081 44.9989 60.9081H47.6088L49.2517 63.7871C50.1553 65.3704 50.9992 66.7299 51.1268 66.8081C51.2546 66.8863 52.1206 65.593 53.0517 63.9341L54.7442 60.9179L57.2808 60.913C58.6761 60.9105 59.8175 60.9708 59.8175 61.0474C59.8175 61.1239 58.3824 63.5087 56.6285 66.3471L53.4396 71.5076V77.877H48.8012V71.4653L45.7103 66.4023Z" fill="#DA0303"/>
<path d="M60.3973 64.9346V60.9081H75.1822V64.9346H69.964V77.877H65.6155V64.9346H60.3973Z" fill="#DA0303"/>
<path d="M76.9216 77.877V60.9081H81.5601V67.2355H87.9379V60.9081H92.5763V77.877H87.9379V71.262H81.5601V77.877H76.9216Z" fill="#DA0303"/>
</svg>
