<svg width="132" height="88" viewBox="0 0 132 88" fill="none" xmlns="http://www.w3.org/2000/svg">
<path fill-rule="evenodd" clip-rule="evenodd" d="M103.174 6.82812H28.8281V81.1737H103.174V6.82812ZM43.2932 47.7935V33.683H40.9667V47.8441C40.9667 48.6027 41.0173 49.3614 41.0679 50.12C41.1185 50.8786 41.3208 51.5867 41.6242 52.1936C41.9277 52.8005 42.4334 53.3062 43.1415 53.7108C43.8495 54.1154 44.8105 54.3177 46.0748 54.3177C46.9852 54.3177 47.6933 54.166 48.3002 53.9637C48.9071 53.7614 49.3622 53.458 49.7668 53.1039C50.1714 52.7499 50.4749 52.3453 50.6772 51.8901C50.8795 51.435 51.0312 50.9292 51.1324 50.474C51.1483 50.3302 51.1694 50.1814 51.1907 50.0307L51.1907 50.0306C51.2368 49.7043 51.2841 49.3693 51.2841 49.0579C51.3347 48.5522 51.3347 48.1476 51.3347 47.7935V33.6325H49.1094V47.9453C49.1094 49.5131 48.8565 50.6763 48.4519 51.3338C48.0473 51.9913 47.2381 52.3453 46.1254 52.3453C45.4174 52.3453 44.861 52.2442 44.507 51.9913C44.1024 51.7384 43.8495 51.435 43.6472 51.0304C43.4955 50.6258 43.3944 50.12 43.3438 49.5637C43.2932 49.0073 43.2932 48.4004 43.2932 47.7935ZM53.4081 33.6325H55.8863L58.6174 40.9153L61.4496 33.6325H63.7255L59.7806 42.9889L64.2818 53.9131H61.6519L58.4151 45.4671L55.1783 53.9131H52.9024L57.353 43.3429L53.4081 33.6325ZM70.1488 33.6325H66.2039V53.8626H68.5304V45.6188H70.5028C71.5649 45.6188 72.4247 45.4671 73.1327 45.1636C73.8408 44.8096 74.3971 44.405 74.8523 43.8487C75.3075 43.2923 75.6109 42.6349 75.8132 41.9268C76.0155 41.2188 76.1167 40.4601 76.1167 39.6509C76.1167 39.044 76.1167 38.4877 76.0155 38.0325C75.9649 37.5773 75.8638 37.1727 75.7121 36.8187C75.5603 36.4647 75.4086 36.1612 75.2569 35.9084C75.1051 35.6555 74.9534 35.4532 74.8017 35.2509C74.2454 34.5934 73.5879 34.1382 72.8798 33.9359C72.1212 33.7336 71.2109 33.6325 70.1488 33.6325ZM70.4522 43.6969H68.5304H68.4798V35.6555H70.2499H70.25C70.5534 35.6555 70.8568 35.6555 71.2614 35.7061C71.666 35.7566 72.0706 35.9084 72.4247 36.1612C72.7787 36.4141 73.1327 36.8187 73.3856 37.375C73.6385 37.9314 73.7902 38.7406 73.7902 39.7521C73.7902 40.5613 73.689 41.2693 73.5373 41.7751C73.3856 42.2808 73.1327 42.6854 72.8293 42.9889C72.5258 43.2418 72.1718 43.4441 71.7672 43.5452C71.3626 43.6464 70.9074 43.6969 70.4522 43.6969ZM80.163 33.6325V36.2118H77.8871V33.6325H80.163ZM77.9883 38.9429H80.0618V53.9131H77.9883V38.9429ZM84.3604 38.9429H82.5397V53.8626H84.6133V45.2143C84.6133 44.8097 84.6133 44.3039 84.6639 43.7476C84.7145 43.1913 84.8156 42.6855 84.9673 42.1798C85.1191 41.7246 85.3719 41.32 85.6754 40.966C86.0294 40.6119 86.434 40.4602 86.9903 40.4602C87.4455 40.4602 87.7995 40.5614 88.0524 40.8142C88.3053 41.0671 88.5076 41.3706 88.6087 41.7246C88.7099 42.1292 88.8111 42.5338 88.8111 42.989C88.8616 43.4947 88.8616 43.9499 88.8616 44.4051V53.9132H90.8846V44.4051C90.8846 43.5453 90.8846 42.7361 90.8341 41.9775C90.7835 41.1683 90.6318 40.5613 90.3789 40.1062C90.1766 39.651 89.772 39.297 89.3168 38.9935C88.8616 38.7406 88.3053 38.5889 87.6478 38.5889C87.0915 38.5889 86.6363 38.6901 86.2317 38.8924C85.8777 39.0947 85.5237 39.3475 85.2708 39.651C85.0179 39.9039 84.8156 40.2073 84.6639 40.5108C84.5122 40.8142 84.411 41.0671 84.3604 41.2188V38.9429Z" fill="#1C2025"/>
</svg>
