<svg width="132" height="88" viewBox="0 0 132 88" fill="none" xmlns="http://www.w3.org/2000/svg">
<path d="M65.9996 77.2766C84.3769 77.2766 99.2746 62.3788 99.2746 44.0016C99.2746 25.6243 84.3769 10.7266 65.9996 10.7266C47.6223 10.7266 32.7246 25.6243 32.7246 44.0016C32.7246 62.3788 47.6223 77.2766 65.9996 77.2766Z" fill="#B385F8"/>
<path d="M46.0352 46.6542V31.3516H50.8915V47.0496C50.8915 48.9212 51.3711 50.3843 52.3304 51.4388C53.2897 52.4669 54.5488 52.9809 56.1076 52.9809C57.6904 52.9809 58.9495 52.4669 59.8848 51.4388C60.844 50.3843 61.3237 48.9212 61.3237 47.0496V31.3516H66.18V46.6542C66.18 50.0548 65.2327 52.7832 63.3382 54.8393C61.4436 56.8955 59.0334 57.9236 56.1076 57.9236C53.1578 57.9236 50.7356 56.8955 48.841 54.8393C46.9705 52.7832 46.0352 50.0548 46.0352 46.6542Z" fill="white"/>
<path d="M87.4111 57.4491H81.9072L76.871 48.7895L71.8348 57.4491H66.2949L74.173 44.1631L66.7626 31.3516H72.3024L76.871 39.5762L81.4036 31.3516H86.9074L79.6049 44.1631L87.4111 57.4491Z" fill="white"/>
</svg>
