<svg width="132" height="88" viewBox="0 0 132 88" fill="none" xmlns="http://www.w3.org/2000/svg">
<path d="M91.1055 31.7267C93.8021 33.501 95.4087 35.3814 95.9257 37.3683C96.7097 40.3826 99.2149 65.9801 95.8344 68.2604C92.4538 70.5404 83.2801 69.5694 70.3551 71.3506C57.4303 73.1318 47.6885 77.0926 44.4083 74.9267C41.127 72.7608 36.2264 48.7393 36.2907 45.2278C36.3338 42.887 37.5407 40.7137 39.9112 38.7078C36.7575 37.8902 34.9523 35.891 34.4965 32.7098C33.8258 28.0279 39.3379 15.8211 60.7196 12.4453C60.3492 13.6463 60.2315 14.941 60.4212 16.262C60.9776 20.1468 64.0188 23.0974 67.7747 23.8254C68.6644 28.5405 73.2467 31.7676 78.1997 31.0851C79.9647 30.842 81.5451 30.1339 82.8271 29.1073C84.8212 31.1134 87.7499 32.1933 90.8211 31.7701C90.9165 31.7572 91.0109 31.7426 91.1055 31.7267Z" fill="#0EF275"/>
</svg>
