<svg width="132" height="88" viewBox="0 0 132 88" fill="none" xmlns="http://www.w3.org/2000/svg">
<path fill-rule="evenodd" clip-rule="evenodd" d="M88.6778 76.0296H43.3206C38.1581 76.0296 33.9688 71.8402 33.9688 66.6778V21.3206C33.9688 16.1581 38.1581 11.9688 43.3206 11.9688H88.6778C93.8402 11.9688 98.0296 16.1581 98.0296 21.3206V66.6778C98.0296 71.8402 93.8402 76.0296 88.6778 76.0296Z" fill="url(#paint0_linear_2056_22158)"/>
<path d="M65.9991 57.7218C73.5778 57.7218 79.7215 51.578 79.7215 43.9992C79.7215 36.4203 73.5778 30.2765 65.9991 30.2765C58.4202 30.2765 52.2764 36.4203 52.2764 43.9992C52.2764 51.578 58.4202 57.7218 65.9991 57.7218Z" fill="white"/>
<path fill-rule="evenodd" clip-rule="evenodd" d="M71.393 40.5684C69.2489 40.5684 67.5005 42.3168 67.5005 44.461C67.5005 46.6051 69.2489 48.3535 71.393 48.3535C73.5372 48.3535 75.2854 46.6051 75.2854 44.461C75.2854 42.3168 73.5537 40.5684 71.393 40.5684Z" fill="black"/>
<defs>
<linearGradient id="paint0_linear_2056_22158" x1="65.9992" y1="74.3445" x2="65.9992" y2="14.4556" gradientUnits="userSpaceOnUse">
<stop stop-color="#EA344A"/>
<stop offset="0.9896" stop-color="#F15D44"/>
</linearGradient>
</defs>
</svg>
