<svg width="132" height="88" viewBox="0 0 132 88" fill="none" xmlns="http://www.w3.org/2000/svg">
<rect x="28.875" y="6.875" width="74.25" height="74.25" rx="37.125" fill="black"/>
<path fill-rule="evenodd" clip-rule="evenodd" d="M77.1743 26.5931C76.2799 27.0126 74.6324 28.4472 74.6324 28.8064C74.6324 28.9344 74.4924 29.3197 74.3213 29.6626C73.9399 30.427 74.0539 32.1145 74.5537 33.1078C75.3161 34.6222 77.3061 35.9721 78.7764 35.9721C79.9656 35.9721 81.3502 35.365 82.2963 34.4286C85.2477 31.5082 83.3395 26.5824 79.1463 26.2973C78.2556 26.2368 77.7826 26.3078 77.1743 26.5931ZM48.4047 27.8885C48.3346 27.9584 48.2773 35.5615 48.2773 44.7841V61.5523L48.707 61.6581C48.9435 61.7161 50.6407 61.7394 52.4789 61.7094L55.821 61.655L55.871 54.7359L55.9213 47.8168L61.5049 47.7662L67.0887 47.7156V44.7558V41.7961L61.5026 41.7455L55.9165 41.6949V37.7832V33.8716H62.3143H68.712V30.8164V27.7612H58.6221C53.0724 27.7612 48.4746 27.8184 48.4047 27.8885Z" fill="white"/>
</svg>
