<svg width="132" height="88" viewBox="0 0 132 88" fill="none" xmlns="http://www.w3.org/2000/svg">
<path fill-rule="evenodd" clip-rule="evenodd" d="M30.1348 8.13281V79.8641H101.866V8.13281H30.1348ZM79.3539 45.2778L66.0004 67.3111L52.6469 45.2778C42.5028 50.2283 35.5146 60.6435 35.5146 72.6909V74.4842H96.4862V72.6909C96.4862 60.6435 89.4979 50.2283 79.3539 45.2778ZM74.2421 43.3322L66.0004 56.9314L57.7585 43.3322C60.3801 42.5979 63.1444 42.2052 66.0004 42.2052C68.8564 42.2052 71.6207 42.5979 74.2421 43.3322ZM82.1528 40.6597C88.0515 43.6401 93.0151 48.2021 96.4862 53.7883V17.0096L82.1528 40.6597ZM92.3148 13.5127L77.1207 38.5827C73.6197 37.442 69.8821 36.8253 66.0004 36.8253C62.1187 36.8253 58.3811 37.442 54.8799 38.5827L39.6861 13.5127H92.3148ZM35.5146 17.0095L49.8479 40.6597C43.9492 43.6401 38.9856 48.2021 35.5146 53.7883V17.0095Z" fill="#6B4749"/>
</svg>
