<svg width="132" height="88" viewBox="0 0 132 88" fill="none" xmlns="http://www.w3.org/2000/svg">
<path d="M64.8845 68.9981H45.5286C45.0477 68.9981 44.5865 68.8067 44.2464 68.466C43.9063 68.1254 43.7152 67.6634 43.7152 67.1816C43.7152 66.6999 43.9063 66.2379 44.2464 65.8972C44.5865 65.5566 45.0477 65.3652 45.5286 65.3652H51.4418C51.6817 65.3184 51.9097 65.2238 52.1124 65.0872C52.3151 64.9505 52.4883 64.7744 52.6219 64.5695C52.7554 64.3645 52.8466 64.1348 52.8899 63.8939C52.9332 63.653 52.9279 63.4059 52.8741 63.1671C52.7878 62.7677 52.5723 62.408 52.261 62.1439C51.9498 61.8797 51.5602 61.7258 51.1527 61.7061H37.605C37.124 61.7061 36.6628 61.5147 36.3227 61.1741C35.9826 60.8334 35.7916 60.3714 35.7916 59.8897C35.7916 59.4079 35.9826 58.9459 36.3227 58.6053C36.6628 58.2646 37.124 58.0733 37.605 58.0733H48.8532L46.3039 51.0314H35.9755C35.5539 51.0314 35.1494 50.8636 34.8513 50.5649C34.5531 50.2662 34.3856 49.8611 34.3856 49.4387C34.3856 49.0163 34.5531 48.6113 34.8513 48.3126C35.1494 48.0139 35.5539 47.8461 35.9755 47.8461H46.8295C47.2512 47.8461 47.6556 47.6783 47.9538 47.3796C48.252 47.0809 48.4195 46.6758 48.4195 46.2534C48.4195 45.8311 48.252 45.426 47.9538 45.1273C47.6556 44.8286 47.2512 44.6608 46.8295 44.6608H30.6143C30.3951 44.6856 30.1733 44.6644 29.9627 44.5987C29.7522 44.5329 29.5577 44.424 29.3914 44.2789C29.2252 44.1338 29.0909 43.9557 28.9971 43.7558C28.9032 43.5559 28.852 43.3386 28.8465 43.1178C28.841 42.897 28.8814 42.6775 28.9652 42.4732C29.0489 42.2688 29.1742 42.0842 29.3331 41.931C29.4919 41.7778 29.6808 41.6593 29.8878 41.5832C30.0948 41.507 30.3153 41.4748 30.5354 41.4887C30.5497 41.4817 30.5655 41.4781 30.5814 41.4781C30.5973 41.4781 30.6131 41.4817 30.6274 41.4887H43.0057L38.8927 29.9058H32.5459C32.065 29.9058 31.6037 29.7144 31.2636 29.3737C30.9236 29.0331 30.7325 28.5711 30.7325 28.0894C30.7325 27.6076 30.9236 27.1456 31.2636 26.805C31.6037 26.4643 32.065 26.2729 32.5459 26.2729H39.576C40.032 26.2341 40.4568 26.0252 40.7664 25.6876C41.076 25.35 41.2478 24.9083 41.2478 24.45C41.2478 23.9916 41.076 23.5499 40.7664 23.2123C40.4568 22.8747 40.032 22.6658 39.576 22.627H26.0677C25.6117 22.5881 25.1869 22.3792 24.8773 22.0416C24.5677 21.7041 24.3959 21.2624 24.3959 20.804C24.3959 20.3456 24.5677 19.9039 24.8773 19.5663C25.1869 19.2287 25.6117 19.0198 26.0677 18.981H46.0017C46.6141 18.9447 47.2187 19.1331 47.7024 19.5111C48.1861 19.889 48.5158 20.4305 48.6298 21.0343L59.2472 53.4401C59.51 54.2299 59.9042 54.6905 60.3247 54.6905C60.7452 54.6905 61.1657 54.2167 61.4285 53.3743L69.1814 29.9058H61.9804C61.4995 29.9058 61.0383 29.7144 60.6982 29.3737C60.3581 29.0331 60.1671 28.5711 60.1671 28.0894C60.1671 27.6076 60.3581 27.1456 60.6982 26.805C61.0383 26.4643 61.4995 26.2729 61.9804 26.2729H75.5151C75.971 26.2341 76.3959 26.0252 76.7054 25.6876C77.015 25.35 77.1868 24.9083 77.1868 24.45C77.1868 23.9916 77.015 23.5499 76.7054 23.2123C76.3959 22.8747 75.971 22.6658 75.5151 22.627H68.4587C67.9765 22.6235 67.5153 22.4292 67.1756 22.0865C66.8359 21.7437 66.6453 21.2803 66.6453 20.7974C66.6521 20.3178 66.8453 19.8597 67.1839 19.5205C67.5225 19.1813 67.9798 18.9878 68.4587 18.981H92.2954C97.4858 18.981 101.494 20.1524 104.122 22.4427C105.432 23.6136 106.466 25.0622 107.148 26.6832C107.83 28.3042 108.143 30.057 108.064 31.8143C108.073 32.9136 107.976 34.0111 107.775 35.0917C107.307 37.9533 106.163 40.6613 104.437 42.9892C102.571 45.4868 100.114 47.4813 97.2887 48.7938C93.9659 50.3373 90.3329 51.0939 86.6713 51.0051H85.9091C85.4861 51.0157 85.0761 50.8584 84.7684 50.5675C84.4607 50.2765 84.2803 49.8755 84.2666 49.4519C84.2613 49.2427 84.2973 49.0346 84.3724 48.8393C84.4475 48.6441 84.5603 48.4656 84.7043 48.314C84.8482 48.1625 85.0206 48.0408 85.2116 47.956C85.4026 47.8712 85.6083 47.8249 85.8171 47.8198H89.7593C90.181 47.8198 90.5854 47.652 90.8836 47.3533C91.1817 47.0546 91.3493 46.6495 91.3493 46.2271C91.3493 45.8047 91.1817 45.3996 90.8836 45.101C90.5854 44.8023 90.181 44.6345 89.7593 44.6345H80.561C80.1393 44.6345 79.7349 44.4667 79.4367 44.168C79.1385 43.8693 78.971 43.4642 78.971 43.0418C78.971 42.6194 79.1385 42.2143 79.4367 41.9157C79.7349 41.617 80.1393 41.4492 80.561 41.4492H87.9196C89.7325 41.4533 91.493 40.8407 92.913 39.7117C94.2308 38.4823 95.0887 36.8379 95.3439 35.0523C95.4402 34.5256 95.5061 33.9939 95.5411 33.4596C95.5783 32.7996 95.4666 32.1397 95.214 31.529C94.9615 30.9182 94.5747 30.3724 94.0825 29.9321C92.8035 29.0079 91.2401 28.5651 89.6673 28.6817H82.2167L77.6832 41.5018L74.293 51.0577L68.9186 66.2471C68.6953 67.1187 68.1625 67.8789 67.4199 68.3853C66.6773 68.8917 65.7759 69.1095 64.8845 68.9981ZM39.9177 68.9981H38.4197C37.9387 68.9981 37.4775 68.8067 37.1374 68.466C36.7973 68.1254 36.6063 67.6634 36.6063 67.1816C36.6063 66.6999 36.7973 66.2379 37.1374 65.8972C37.4775 65.5566 37.9387 65.3652 38.4197 65.3652H39.8651C40.346 65.3652 40.8073 65.5566 41.1474 65.8972C41.4874 66.2379 41.6785 66.6999 41.6785 67.1816C41.6785 67.6634 41.4874 68.1254 41.1474 68.466C40.8073 68.8067 40.346 68.9981 39.8651 68.9981H39.9177ZM81.31 51.0314H79.9959C79.6009 50.9953 79.2336 50.8126 78.9661 50.5191C78.6986 50.2257 78.5503 49.8427 78.5503 49.4453C78.5503 49.048 78.6986 48.665 78.9661 48.3715C79.2336 48.0781 79.6009 47.8953 79.9959 47.8593H81.31C81.705 47.8953 82.0724 48.0781 82.3398 48.3715C82.6073 48.665 82.7556 49.048 82.7556 49.4453C82.7556 49.8427 82.6073 50.2257 82.3398 50.5191C82.0724 50.8126 81.705 50.9953 81.31 51.0314ZM27.0532 29.9058H25.7392C25.2582 29.9058 24.797 29.7144 24.4569 29.3737C24.1168 29.0331 23.9258 28.5711 23.9258 28.0894C23.9258 27.6076 24.1168 27.1456 24.4569 26.805C24.797 26.4643 25.2582 26.2729 25.7392 26.2729H27.0532C27.5341 26.2729 27.9954 26.4643 28.3355 26.805C28.6755 27.1456 28.8666 27.6076 28.8666 28.0894C28.8666 28.5711 28.6755 29.0331 28.3355 29.3737C27.9954 29.7144 27.5341 29.9058 27.0532 29.9058ZM62.966 22.627H61.6519C61.172 22.6235 60.7128 22.431 60.3735 22.0911C60.0341 21.7512 59.842 21.2912 59.8385 20.8106C59.8403 20.5674 59.89 20.3271 59.9848 20.1033C60.0797 19.8795 60.2178 19.6767 60.3913 19.5067C60.5647 19.3366 60.7701 19.2026 60.9954 19.1124C61.2208 19.0222 61.4618 18.9775 61.7045 18.981H63.0185C63.4996 18.9879 63.9588 19.1832 64.2978 19.5252C64.6368 19.8672 64.8285 20.3286 64.8319 20.8106C64.832 21.0536 64.7834 21.2942 64.689 21.518C64.5946 21.7419 64.4563 21.9445 64.2823 22.1139C64.1083 22.2833 63.9022 22.416 63.6761 22.5041C63.45 22.5922 63.2085 22.634 62.966 22.627Z" fill="url(#paint0_linear_2056_24387)"/>
<defs>
<linearGradient id="paint0_linear_2056_24387" x1="95.7065" y1="18.0724" x2="46.5649" y2="84.1319" gradientUnits="userSpaceOnUse">
<stop stop-color="#FF00D7" stop-opacity="0.98"/>
<stop offset="1" stop-color="#FF0072"/>
</linearGradient>
</defs>
</svg>
