<svg width="360" height="360" viewBox="0 0 360 360" fill="none" xmlns="http://www.w3.org/2000/svg">
<path fill-rule="evenodd" clip-rule="evenodd" d="M59 59V301H301V59H59ZM225.051 184.316L180 258.65L134.949 184.316C100.726 201.018 77.15 236.155 77.15 276.8V282.85H282.85V276.8C282.85 236.155 259.274 201.018 225.051 184.316ZM207.805 177.752L180 223.632L152.194 177.752C161.039 175.275 170.365 173.95 180 173.95C189.635 173.95 198.961 175.275 207.805 177.752ZM234.494 168.736C254.394 178.791 271.14 194.182 282.85 213.028V88.9476L234.494 168.736ZM268.777 77.15L217.517 161.729C205.705 157.881 193.096 155.8 180 155.8C166.904 155.8 154.295 157.881 142.483 161.729L91.2232 77.15H268.777ZM77.15 88.9474L125.506 168.736C105.606 178.791 88.8602 194.182 77.15 213.028V88.9474Z" fill="#6B4749"/>
</svg>
