<svg width="132" height="88" viewBox="0 0 132 88" fill="none" xmlns="http://www.w3.org/2000/svg">
<path d="M37.4163 16.6148C41.5013 16.358 46.0991 17.4525 49.9224 19.8044C53.7466 22.1562 56.7961 25.7656 58.4092 29.5273C60.1035 33.253 60.7173 37.9387 59.8807 42.3489C59.0431 46.7594 56.7562 50.8948 53.8156 53.7413C52.582 55.0231 50.4832 55.6636 48.7438 55.2888C46.9887 55.0006 45.2694 53.6357 44.5918 51.9912L32.4986 24.6111C31.739 23.0021 31.8879 20.8126 32.8574 19.3211C33.751 17.7832 35.6381 16.6631 37.4163 16.6148Z" fill="#0EF275"/>
<path d="M99.8737 19.5851C100.016 19.2726 100.019 18.8713 99.8806 18.557C99.7508 18.2386 99.4598 17.9622 99.135 17.8489C94.6789 16.1018 88.6589 16.0834 83.5684 18.2487C78.4768 20.4139 74.3138 24.7627 72.4815 29.1844L55.1598 68.4126C55.016 68.7255 55.013 69.1273 55.1529 69.4411C55.2816 69.759 55.5737 70.0359 55.8974 70.1487C60.3535 71.896 66.3735 71.915 71.4651 69.7488C76.5567 67.584 80.7186 63.2354 82.5517 58.8137L99.8737 19.5851Z" fill="#0EF275"/>
</svg>
