<svg width="132" height="88" viewBox="0 0 132 88" fill="none" xmlns="http://www.w3.org/2000/svg">
<path fill-rule="evenodd" clip-rule="evenodd" d="M31.9004 43.9984C31.9004 62.8314 47.1675 78.0984 66.0004 78.0984C84.8334 78.0984 100.1 62.8314 100.1 43.9984C100.1 25.1655 84.8334 9.89844 66.0004 9.89844C47.1675 9.89844 31.9004 25.1655 31.9004 43.9984ZM85.2954 22.0087C84.8113 22.243 68.4776 30.2332 62.5728 44.6804C77.1368 38.4575 84.9366 22.7445 85.2954 22.0087ZM52.913 55.7892C52.8657 55.7828 52.8185 55.7741 52.7716 55.7627C52.507 55.7351 52.24 55.8273 52.0482 56.0201L45.9877 62.116C45.8592 62.2453 45.8598 62.4543 45.9891 62.5829C46.0868 62.6801 46.2347 62.7062 46.3599 62.6487L56.5892 57.9351C57.2884 57.613 57.766 56.946 57.8456 56.1804C58.0633 54.0849 58.6611 51.2599 59.6382 47.7051C56.1379 48.4702 53.186 48.9808 50.7827 49.2371C49.9859 49.322 49.2999 49.8373 48.9962 50.5788L44.6441 61.2047C44.575 61.3734 44.6557 61.566 44.8244 61.635C44.9478 61.6856 45.0895 61.6569 45.1835 61.5624L51.3827 55.3272C51.5764 55.1322 51.6648 54.8596 51.6273 54.5928C51.6218 54.567 51.617 54.5413 51.6129 54.5155C51.6085 54.4968 51.6035 54.4781 51.5978 54.4596L51.6061 54.4678C51.5563 54.0691 51.6752 53.6652 51.9673 53.373C52.4925 52.8479 53.3788 52.8827 53.9469 53.4508C54.5149 54.0189 54.5497 54.9051 54.0246 55.4304C53.7332 55.7217 53.3307 55.8407 52.933 55.7919L52.9375 55.7964L52.9225 55.7919L52.913 55.7892Z" fill="url(#paint0_linear_2056_24651)"/>
<path fill-rule="evenodd" clip-rule="evenodd" d="M83.3756 21.0021C82.9406 21.2136 67.1331 28.9885 59.9387 45.501C57.6827 46.3432 55.2699 46.9033 52.7031 47.0803C61.2822 29.3716 83.3868 20.9766 83.3868 20.9766C83.3868 20.9766 83.383 20.9852 83.3756 21.0021Z" fill="url(#paint1_linear_2056_24651)"/>
<path fill-rule="evenodd" clip-rule="evenodd" d="M61.9963 47.3054C77.8194 39.9219 85.6263 25.0961 85.9885 24.3954C85.9958 24.3922 85.9996 24.3906 85.9996 24.3906C85.9996 24.3906 77.7786 45.5747 60.1973 54.3186C60.5057 51.8217 61.1333 49.4844 61.9963 47.3054Z" fill="url(#paint2_linear_2056_24651)"/>
<defs>
<linearGradient id="paint0_linear_2056_24651" x1="66.0004" y1="78.0984" x2="66.0004" y2="9.89844" gradientUnits="userSpaceOnUse">
<stop/>
<stop offset="1" stop-color="#303030"/>
</linearGradient>
<linearGradient id="paint1_linear_2056_24651" x1="79.5647" y1="22.6798" x2="72.0366" y2="51.2193" gradientUnits="userSpaceOnUse">
<stop stop-color="#FFF800"/>
<stop offset="1" stop-color="#FF0071"/>
</linearGradient>
<linearGradient id="paint2_linear_2056_24651" x1="85.2692" y1="26.0442" x2="69.5899" y2="58.2577" gradientUnits="userSpaceOnUse">
<stop stop-color="#01FFE4"/>
<stop offset="1" stop-color="#FF00E4"/>
</linearGradient>
</defs>
</svg>
