<svg width="132" height="88" viewBox="0 0 132 88" fill="none" xmlns="http://www.w3.org/2000/svg">
<path d="M63.4961 70.0089V75.9961H68.5111V70.0089C67.745 70.1351 66.9131 70.2019 66.0018 70.2019C65.0933 70.2019 64.2588 70.1351 63.4961 70.0089Z" fill="black"/>
<path d="M89.6257 31.1412H86.7897C86.5851 31.4045 86.3823 31.6653 86.1776 31.9309C85.1151 33.313 84.0141 34.7343 82.918 36.1562H89.6257V31.1412Z" fill="black"/>
<path d="M97.5348 15.062L93.5571 12.0076L92.0292 13.9945C91.9762 14.0678 90.5828 15.8761 88.4395 18.6641H94.7642C95.526 17.6762 95.9783 17.0904 96.0069 17.0496L97.5348 15.062Z" fill="black"/>
<path d="M74.9439 36.1587C73.1347 38.4925 71.3867 40.75 69.8008 42.7872V47.4648H72.5103C75.0488 44.2093 78.1618 40.1934 81.283 36.1587C82.5837 34.4718 83.8907 32.7816 85.1548 31.1437C86.4668 29.4405 87.7331 27.7985 88.9147 26.2656H82.5837C80.9375 28.4031 79.9099 29.7305 78.8188 31.1437C77.5312 32.8152 76.2223 34.5052 74.9439 36.1587Z" fill="black"/>
<path d="M58.2887 65.3136C59.1762 67.1659 60.9256 68.3125 63.496 68.7426C64.2587 68.8691 65.0932 68.9375 66.0018 68.9375C66.913 68.9375 67.745 68.8691 68.511 68.7426C71.0771 68.3125 72.8301 67.1659 73.7134 65.3136C74.9359 62.7645 74.2318 59.442 71.5131 55.0635H69.8018V64.4987L68.9502 64.8083C68.2004 65.0797 67.2072 65.2157 66.0018 65.2157C64.7941 65.2157 63.8031 65.0797 63.0542 64.8083L62.2018 64.4987V55.0635H60.4896C57.7728 59.442 57.0678 62.7645 58.2887 65.3136Z" fill="black"/>
<path d="M32.6387 24.9688H40.4596C39.2046 23.3405 38.0905 21.8908 37.2072 20.7434C36.9905 20.4607 36.7917 20.203 36.6018 19.9554H32.6387V24.9688Z" fill="black"/>
<path d="M50.0545 24.9726H63.4967V29.8516H68.5117V24.9726H99.3636V19.9592H46.1934L49.4474 24.1846C49.6471 24.4421 49.8515 24.7093 50.0545 24.9726Z" fill="black"/>
<path d="M63.4961 59.9884V63.5918C63.9939 63.7735 64.791 63.9219 66.0018 63.9219C67.2154 63.9219 68.009 63.7735 68.5111 63.5918V55.0637H63.4961V59.9884Z" fill="black"/>
<path d="M68.5111 37.4511H63.4961V42.9559L63.5213 47.4648H68.5111V37.4511Z" fill="black"/>
<path d="M63.4954 36.1562H73.2849C74.5643 34.5027 75.8732 32.8127 77.1639 31.1412H54.8164C55.9083 32.5542 57.0029 33.9697 58.0817 35.3641C58.297 35.6428 58.4981 35.9019 58.6946 36.1562H63.4954Z" fill="black"/>
<path d="M57.0591 36.1587C57.0591 36.1587 54.4741 32.8152 53.1825 31.1437C51.5445 29.0216 49.9293 26.929 48.421 24.9715C47.0193 23.1534 45.709 21.4502 44.5582 19.9582C41.8568 16.4475 40.0362 14.0784 39.9736 13.9946L38.4455 12.0077L34.4688 15.0621L35.9967 17.0496C36.0382 17.1051 36.8735 18.1905 38.2329 19.9582C39.2572 21.2904 40.5807 23.0109 42.0915 24.9715C44.286 27.8229 46.876 31.1804 49.5121 34.5957C51.195 36.7739 52.8949 38.9717 54.5256 41.0775C56.3045 43.3715 57.9946 45.5483 59.4908 47.4648H62.2331L62.2012 42.8752L57.0591 36.1587Z" fill="black"/>
<path d="M50.0251 37.0913L49.5117 36.4287V68.9375H54.5253V53.7727H76.7032V48.7584H54.5253V42.9122C53.0518 41.0077 51.5328 39.0438 50.0251 37.0913Z" fill="black"/>
</svg>
