<svg width="132" height="88" viewBox="0 0 132 88" fill="none" xmlns="http://www.w3.org/2000/svg">
<path d="M66 7C45.5319 7 29 23.5319 29 44C29 64.4682 45.5319 81 66 81C86.4682 81 103 64.4682 103 44C103 23.6894 86.4682 7.15745 66 7ZM66 11.5659C71.3532 11.5659 76.7064 12.983 81.4298 15.5021L65.8426 31.0894L49.783 15.9745C54.8214 12.9829 60.332 11.5659 66 11.5659ZM66 76.4341C48.0511 76.4341 33.566 61.949 33.566 44C33.566 34.0808 38.1319 24.634 46.0043 18.4936L62.6935 34.2383L66 37.5447L85.5235 18.0213C99.8512 28.7277 102.843 49.0384 92.1362 63.3661C85.9957 71.7107 76.2342 76.4341 66 76.4341Z" fill="#2B2B35"/>
</svg>
