<svg width="132" height="88" viewBox="0 0 132 88" fill="none" xmlns="http://www.w3.org/2000/svg">
<path fill-rule="evenodd" clip-rule="evenodd" d="M27.6491 15.3685L23 26.8982L35.772 43.9603C54.5803 69.0866 65.9925 84.1141 66.1785 83.9993C66.3342 83.9033 108.679 27.6419 108.999 27.1065C109.132 26.8838 100.274 4.43389 99.8831 4.00203C99.8017 3.91212 98.4756 6.82456 96.9365 10.4741C91.042 24.4499 86.3327 35.3245 86.0685 35.5702C85.9174 35.711 81.3606 38.293 75.9424 41.3081C67.3365 46.0972 66.0369 46.761 65.6623 46.5595C65.4265 46.4324 60.8929 43.9079 55.5878 40.9493L45.9421 35.5702L42.9893 28.694C41.3652 24.9121 38.3634 17.846 36.3185 12.9916C34.2736 8.1372 32.5325 4.09193 32.4493 4.00223C32.366 3.91233 30.2059 9.02721 27.6491 15.3685Z" fill="#6EC6FF"/>
<path fill-rule="evenodd" clip-rule="evenodd" d="M23.2307 27.0438C23.4056 27.4707 54.1325 68.3027 54.1748 68.1648C54.2024 68.0749 52.3534 60.7124 50.0661 51.8041L45.907 35.6068L34.5388 31.252C28.2862 28.8568 23.1976 26.9631 23.2307 27.0438ZM97.4103 31.3078C91.3605 33.6281 86.3738 35.5575 86.329 35.5955C86.2655 35.6493 78.6395 65.121 77.997 67.7959C77.9038 68.1835 77.9207 68.3356 78.0426 68.2064C78.1491 68.0936 85.0614 58.903 93.4034 47.783C101.745 36.6631 108.662 27.4496 108.773 27.3083C108.913 27.1291 108.889 27.0573 108.692 27.0704C108.537 27.0807 103.46 28.9876 97.4103 31.3078ZM61.6355 55.233C59.2043 59.759 56.595 64.6247 55.8369 66.0457L54.4588 68.6293L60.2274 76.2678C63.4002 80.4691 66.0848 83.8518 66.1931 83.7851C66.3687 83.6767 77.1624 69.3972 77.5381 68.7762C77.6285 68.6268 75.3471 64.1817 71.9021 57.7948C68.7187 51.8932 66.101 47.0511 66.085 47.0345C66.0691 47.0178 64.0668 50.7072 61.6355 55.233Z" fill="#0069C0"/>
<path d="M55.8369 66.0457C56.595 64.6247 59.2043 59.759 61.6355 55.233C64.0668 50.7072 66.0691 47.0178 66.085 47.0345C66.101 47.0511 68.7187 51.8932 71.9021 57.7948C75.3471 64.1817 77.6285 68.6268 77.5381 68.7762C77.1624 69.3972 66.3687 83.6767 66.1931 83.7851C66.0848 83.8518 63.4002 80.4691 60.2274 76.2678L54.4588 68.6293L55.8369 66.0457Z" fill="#2196F3"/>
</svg>
