<svg width="132" height="88" viewBox="0 0 132 88" fill="none" xmlns="http://www.w3.org/2000/svg">
<path d="M30.2305 20.593C30.2305 20.6324 36.8972 39.3484 37.0726 39.805C37.1067 39.8905 37.3128 39.8956 40.4809 39.8956C43.6491 39.8956 43.8535 39.8905 43.8892 39.805C44.0442 39.4048 50.7314 20.6375 50.7314 20.5982C50.7314 20.5623 49.9104 20.552 48.1901 20.5571L45.6488 20.5725L43.6797 26.2703C41.629 32.1869 41.6341 32.1612 40.6121 36.031C40.5508 36.2533 40.4367 36.32 40.3856 36.1575C40.3702 36.1131 40.1249 35.1794 39.8337 34.0918C39.3278 32.2074 39.2086 31.8381 37.3077 26.3421L35.3131 20.5725L32.7718 20.5571C31.1622 20.552 30.2305 20.564 30.2305 20.5913V20.593ZM59.098 20.9368L67.7746 44.2527C72.4655 56.8589 76.3303 67.2318 76.3559 67.3087L76.407 67.4507H84.341L93.0278 44.1091C95.9411 36.2963 98.8446 28.4798 101.738 20.6597L101.769 20.5469H94.3513L94.1997 20.9368C94.1196 21.1556 91.6038 27.8623 88.6128 35.8446L83.1674 50.3557L81.8729 55.3797L80.5818 60.4089H80.3706C80.2513 60.4089 80.1542 60.3986 80.1542 60.3849C80.1542 60.3678 79.5785 58.1209 78.8717 55.3849L77.5942 50.4053L71.9954 35.4752L66.3967 20.5469H58.9567L59.098 20.9368ZM32.937 57.7498V67.4507H48.0249V63.4493H37.4985V59.2939H46.9739V55.2925H37.4985V52.0521H47.674V48.0506H32.937V57.7498Z" fill="black"/>
</svg>
