<svg width="132" height="88" viewBox="0 0 132 88" fill="none" xmlns="http://www.w3.org/2000/svg">
<rect x="31.0752" y="9.07422" width="69.85" height="69.85" rx="13.5884" fill="#003BF4"/>
<path fill-rule="evenodd" clip-rule="evenodd" d="M84.2763 16.2482C84.1725 16.2956 83.9708 16.3374 83.8281 16.3411C83.6853 16.3447 83.5686 16.3902 83.5686 16.4421C83.5686 16.494 83.4836 16.5364 83.3798 16.5364C83.276 16.5364 83.1911 16.5789 83.1911 16.6308C83.1911 16.6827 83.1342 16.7251 83.0646 16.7251C82.8937 16.7251 82.0587 17.5225 82.0587 17.6858C82.0587 17.7573 81.9738 17.877 81.87 17.9519C81.7592 18.0318 81.6813 18.1962 81.6813 18.3502C81.6813 18.4944 81.6388 18.6124 81.5869 18.6124C81.53 18.6124 81.4925 19.0056 81.4925 19.6032C81.4925 20.2009 81.53 20.5941 81.5869 20.5941C81.6388 20.5941 81.6813 20.7215 81.6813 20.8772C81.6813 21.0329 81.7237 21.1603 81.7756 21.1603C81.8275 21.1603 81.87 21.2239 81.87 21.3018C81.87 21.3796 81.9125 21.4433 81.9644 21.4433C82.0163 21.4433 82.0587 21.4869 82.0587 21.5402C82.0587 21.6927 82.887 22.4813 83.0471 22.4813C83.1263 22.4813 83.1911 22.5238 83.1911 22.5757C83.1911 22.6276 83.276 22.6701 83.3798 22.6701C83.4836 22.6701 83.5686 22.7125 83.5686 22.7644C83.5686 22.8163 83.7299 22.8588 83.9271 22.8588C84.1244 22.8588 84.333 22.9061 84.3908 22.9638C84.4904 23.0635 84.7328 23.0511 85.5502 22.9047C85.9406 22.8347 86.6826 22.4858 86.6826 22.3722C86.6826 22.3284 86.7463 22.2926 86.8241 22.2926C86.902 22.2926 86.9657 22.2502 86.9657 22.1983C86.9657 22.1464 87.0111 22.1039 87.0667 22.1039C87.1983 22.1039 87.3576 21.9314 87.5242 21.6085C87.5978 21.4658 87.6934 21.349 87.7365 21.349C87.7796 21.349 87.8149 21.2641 87.8149 21.1603C87.8149 21.0565 87.8486 20.9715 87.8898 20.9715C88.0123 20.9715 88.1924 20.1575 88.1924 19.6032C88.1924 19.049 88.0123 18.235 87.8898 18.235C87.8486 18.235 87.8149 18.15 87.8149 18.0462C87.8149 17.9424 87.7753 17.8575 87.7269 17.8575C87.6785 17.8575 87.6126 17.7748 87.5805 17.6736C87.5065 17.4401 87.0189 16.9139 86.8767 16.9139C86.8175 16.9139 86.6778 16.8289 86.5665 16.7251C86.4551 16.6213 86.3082 16.5364 86.2401 16.5364C86.1721 16.5364 86.1164 16.4984 86.1164 16.452C86.1164 16.3001 84.5439 16.126 84.2763 16.2482ZM77.4349 22.7624C77.357 22.807 77.1023 22.9292 76.8687 23.0338C76.6352 23.1384 76.3353 23.3223 76.2022 23.4424C75.896 23.7191 75.3589 24.5031 75.3589 24.6734C75.3589 24.7446 75.3059 24.8558 75.2409 24.9207C75.0884 25.0731 75.0756 26.9869 75.2264 27.085C75.2833 27.1221 75.3559 27.2585 75.3877 27.3883C75.5047 27.8661 76.4523 28.8723 76.9224 29.0179C77.0226 29.049 77.2745 29.139 77.4821 29.218C78.2816 29.5222 79.629 29.3219 80.3875 28.786C80.7913 28.5006 81.1151 28.1745 81.1151 28.0531C81.1151 27.9988 81.1576 27.9545 81.2095 27.9545C81.2614 27.9545 81.3038 27.8908 81.3038 27.8129C81.3038 27.7351 81.3463 27.6714 81.3982 27.6714C81.4501 27.6714 81.4925 27.5864 81.4925 27.4826C81.4925 27.3788 81.535 27.2939 81.5869 27.2939C81.6388 27.2939 81.6813 27.1453 81.6813 26.9636C81.6813 26.782 81.7237 26.6334 81.7756 26.6334C81.8289 26.6334 81.87 26.366 81.87 26.02C81.87 25.674 81.8289 25.4066 81.7756 25.4066C81.7237 25.4066 81.6813 25.2877 81.6813 25.1423C81.6813 24.8556 81.4889 24.3705 81.3746 24.3694C81.3356 24.369 81.3038 24.3038 81.3038 24.2246C81.3038 23.8838 80.027 22.8588 79.6024 22.8588C79.5001 22.8588 79.4165 22.8163 79.4165 22.7644C79.4165 22.6482 77.6373 22.6463 77.4349 22.7624ZM90.174 22.7837C90.0443 22.8391 89.791 22.9486 89.6113 23.0271C88.898 23.3385 88.2536 24.1767 87.9217 25.2246C87.4746 26.6362 88.3039 28.3362 89.7956 29.0658C90.2483 29.2872 90.4316 29.3203 91.212 29.3214C92.0029 29.3225 92.1697 29.2922 92.6282 29.063C93.2086 28.773 93.8973 28.1704 93.9929 27.8689C94.0275 27.7603 94.09 27.6714 94.1319 27.6714C94.1737 27.6714 94.3043 27.3721 94.4218 27.0065C94.7999 25.8308 94.5391 24.6758 93.6737 23.6926C93.3399 23.3134 92.9598 23.0735 92.222 22.7763C91.8919 22.6435 90.4904 22.6485 90.174 22.7837ZM83.8045 29.12C83.0959 29.3588 82.0587 30.1221 82.0587 30.4048C82.0587 30.4584 82.0163 30.5023 81.9644 30.5023C81.9125 30.5023 81.87 30.566 81.87 30.6438C81.87 30.7217 81.8275 30.7854 81.7756 30.7854C81.7237 30.7854 81.6813 30.9128 81.6813 31.0685C81.6813 31.2242 81.6388 31.3516 81.5869 31.3516C81.53 31.3516 81.4925 31.7429 81.4925 32.3368C81.4925 32.8919 81.5338 33.3475 81.5869 33.3804C81.6388 33.4125 81.6813 33.5211 81.6813 33.6219C81.6813 33.7226 81.7237 33.805 81.7756 33.805C81.8275 33.805 81.87 33.89 81.87 33.9938C81.87 34.0976 81.9125 34.1825 81.9644 34.1825C82.0163 34.1825 82.0587 34.2292 82.0587 34.2862C82.0587 34.4302 82.9095 35.2205 83.0646 35.2205C83.1342 35.2205 83.1911 35.263 83.1911 35.3149C83.1911 35.3668 83.269 35.4092 83.3641 35.4092C83.4593 35.4092 83.5674 35.4396 83.6046 35.4767C83.8319 35.704 85.2934 35.8787 85.4087 35.6923C85.4407 35.6404 85.5539 35.5979 85.66 35.5979C86.1464 35.5979 87.6262 34.542 87.6262 34.1949C87.6262 34.1361 87.6583 34.0881 87.6975 34.0881C87.7368 34.0881 87.8147 33.9713 87.8709 33.8286C88.114 33.2104 88.1924 32.8654 88.1924 32.4136C88.1924 31.8593 88.0084 30.9741 87.8931 30.9741C87.8501 30.9741 87.8149 30.9109 87.8149 30.8336C87.8149 30.5209 86.9338 29.6379 86.3059 29.3216C85.8892 29.1116 85.6304 29.0539 84.9848 29.0267C84.4744 29.0052 84.0444 29.0392 83.8045 29.12Z" fill="white"/>
<path fill-rule="evenodd" clip-rule="evenodd" d="M37.4216 66.2185C37.3788 66.3299 37.4505 66.647 37.5808 66.9233C37.7112 67.1995 38.2886 68.4073 38.864 69.607L39.9099 71.7883H41.0621C42.1325 71.7883 42.2224 71.767 42.3313 71.4863C42.3956 71.3202 42.8528 70.3385 43.3471 69.3049C43.8414 68.2713 44.3666 67.1717 44.5141 66.8614C44.6617 66.551 44.7434 66.234 44.6956 66.1566C44.5973 65.9977 43.2969 65.9676 43.06 66.1188C42.9043 66.2183 41.2675 69.5711 41.2675 69.7907C41.2675 70.0832 40.8755 69.867 40.691 69.4727C40.5788 69.2327 40.2059 68.4324 39.8624 67.6941C39.5189 66.9558 39.1392 66.2762 39.0186 66.1839C38.6981 65.9388 37.5191 65.9644 37.4216 66.2185ZM46.9833 66.2236C45.8321 66.6556 45.5645 67.1735 45.5645 68.9693C45.5645 70.5321 45.711 70.9334 46.4699 71.4488C46.9579 71.7804 47.0252 71.7883 49.3468 71.7883C50.6542 71.7883 51.873 71.7317 52.0552 71.6624C52.5996 71.4554 53.0842 70.8359 53.0842 70.3466V69.909H52.233C51.4524 69.909 51.3687 69.9372 51.2268 70.2487L51.072 70.5885L49.4309 70.5508C47.8216 70.5137 47.7861 70.5063 47.5947 70.165C47.4874 69.9736 47.438 69.7168 47.4848 69.5945C47.5606 69.3974 47.8844 69.372 50.3273 69.372H53.0842V68.4522C53.0842 67.3481 52.7674 66.7661 51.9411 66.3517C51.4897 66.1254 51.0998 66.0787 49.4586 66.0542C48.0109 66.0327 47.3761 66.0762 46.9833 66.2236ZM47.7046 67.6354C47.1945 68.1452 47.4134 68.2286 49.3689 68.2683C51.0866 68.3034 51.2043 68.2895 51.2043 68.0542C51.2043 67.5103 50.799 67.3585 49.3473 67.3585C48.1468 67.3585 47.948 67.392 47.7046 67.6354Z" fill="white"/>
</svg>
