<svg width="132" height="88" viewBox="0 0 132 88" fill="none" xmlns="http://www.w3.org/2000/svg">
<path d="M66.0004 78.0984C84.8333 78.0984 100.1 62.8313 100.1 43.9984C100.1 25.1655 84.8333 9.89844 66.0004 9.89844C47.1675 9.89844 31.9004 25.1655 31.9004 43.9984C31.9004 62.8313 47.1675 78.0984 66.0004 78.0984Z" fill="url(#paint0_linear_2056_23765)"/>
<path fill-rule="evenodd" clip-rule="evenodd" d="M53.526 30.0951C55.2756 29.3089 57.3314 30.0899 58.1176 31.8395L66.1584 49.7331L74.1992 31.8395C74.9854 30.0899 77.0412 29.3089 78.7908 30.0951C80.5404 30.8813 81.3214 32.937 80.5351 34.6867L69.3264 59.6302C68.7659 60.8774 67.5258 61.6797 66.1584 61.6797C64.791 61.6797 63.5509 60.8774 62.9904 59.6302L51.7816 34.6867C50.9954 32.937 51.7764 30.8813 53.526 30.0951Z" fill="white"/>
<defs>
<linearGradient id="paint0_linear_2056_23765" x1="33.1634" y1="43.9984" x2="101.363" y2="43.9984" gradientUnits="userSpaceOnUse">
<stop stop-color="#2961AC"/>
<stop offset="1" stop-color="#377CC5"/>
</linearGradient>
</defs>
</svg>
