<svg width="132" height="88" viewBox="0 0 132 88" fill="none" xmlns="http://www.w3.org/2000/svg">
<path fill-rule="evenodd" clip-rule="evenodd" d="M59.2671 69.6492C61.321 73.8501 66.3907 75.5914 70.5916 73.5382C74.7927 71.4851 76.5338 66.4157 74.4809 62.2143L55.199 22.7633C51.2379 14.6582 41.4565 11.299 33.3513 15.2604C33.0545 15.4054 32.9315 15.7636 33.0765 16.0605L59.2671 69.6492ZM74.6258 36.5945C74.5067 35.0303 76.1202 33.9195 77.5394 34.5881L88.6632 39.829C90.0924 40.5019 90.2524 42.4707 88.952 43.3663L78.7588 50.3874C77.4583 51.283 75.6763 50.4311 75.5564 48.8564L74.6258 36.5945ZM93.7067 14.4371C89.3556 12.4404 84.2101 14.3488 82.2131 18.6997L78.4948 26.802L86.5971 30.52C90.9479 32.5168 96.0937 30.6083 98.0908 26.2575L98.1936 26.0334C100.191 21.6824 98.2816 16.5367 93.9305 14.54L93.7067 14.4371Z" fill="#3A76FB"/>
</svg>
