<svg width="132" height="88" viewBox="0 0 132 88" fill="none" xmlns="http://www.w3.org/2000/svg">
<path fill-rule="evenodd" clip-rule="evenodd" d="M85.4516 7C82.6943 7 81.7753 7.30833 79.9371 8.54167C76.5671 10.7 75.3416 15.0167 76.5671 18.7167C77.1798 20.875 80.5498 27.0417 84.2262 32.5917L85.1452 33.825L82.6943 41.225C75.9544 60.0333 71.6653 71.75 70.1335 74.525L69.8271 75.1417L68.908 73.2917C67.0699 69.5917 65.538 65.275 54.2026 35.9833L43.1736 7.30833H36.74L30 7L30.9191 7.61667C33.37 9.46667 35.5145 12.2417 37.3527 15.6333C39.1909 19.3333 39.1909 18.7167 52.9772 55.1C54.8154 60.3417 56.6535 64.9667 56.9599 65.5833C57.2663 66.5083 57.2663 67.125 57.2663 69.2833C57.2663 71.4417 57.2663 71.75 56.9599 73.2917C55.7344 75.7583 54.509 77.9167 52.3645 80.075L51.139 81H62.1681H73.1971V80.6917C75.0353 72.3667 80.8562 54.4833 89.7407 30.4333C90.9661 27.35 92.4979 22.725 93.417 20.5667C95.2552 15.6333 95.8679 13.7833 96.787 12.55C97.7061 11.0083 99.5443 9.46667 100.77 8.54167C101.382 7.61667 101.995 7 101.995 7C102.302 7 87.9025 7 85.4516 7ZM87.5961 9.46667C89.4343 10.3917 90.6598 11.9333 90.9661 14.0917C90.9661 15.0167 90.9661 15.6333 90.3534 18.1C89.7407 20.875 86.9834 28.8917 86.6771 29.8167C86.3707 30.125 86.3707 30.125 85.1452 28.275C83.6134 25.8083 80.8562 20.2583 79.9371 18.4083C79.018 16.25 79.018 15.325 79.018 14.0917C79.3244 11.625 81.1625 9.775 83.3071 9.15833C84.5325 8.85 86.3707 8.85 87.5961 9.46667Z" fill="black"/>
</svg>
