<svg width="132" height="88" viewBox="0 0 132 88" fill="none" xmlns="http://www.w3.org/2000/svg">
<path fill-rule="evenodd" clip-rule="evenodd" d="M88.4087 71.0756C101.578 57.4379 104.997 41.6799 98.6683 23.8017C91.5732 7.63837 75.8066 4.53691 51.3684 14.4973C26.9302 24.4576 23.7019 39.7869 41.6835 60.485C59.665 81.1833 75.2401 84.7135 88.4087 71.0756ZM79.5202 57.3937C88.6789 47.9022 91.0505 36.9285 86.635 24.4724C81.7093 13.2426 70.7383 11.0816 53.7222 17.9893C36.706 24.8971 34.462 35.5643 46.9901 49.9909C59.5182 64.4176 70.3615 66.8852 79.5202 57.3937Z" fill="url(#paint0_linear_2056_27451)"/>
<path fill-rule="evenodd" clip-rule="evenodd" d="M71.9327 45.655C77.4706 39.8935 78.8813 33.2098 76.1647 25.6036C73.1638 18.7764 66.4986 17.4369 56.1691 21.5853C45.8396 25.7336 44.4999 32.2227 52.1503 41.0525C59.8007 49.8823 66.3948 51.4164 71.9327 45.655ZM66.1744 36.7099C68.7389 34.0137 69.3627 30.8574 68.0458 27.2411C66.5999 23.9919 63.4665 23.3201 58.6458 25.2255C53.825 27.1309 53.2335 30.1954 56.8711 34.4189C60.5087 38.6425 63.6098 39.4062 66.1744 36.7099Z" fill="url(#paint1_linear_2056_27451)"/>
<defs>
<linearGradient id="paint0_linear_2056_27451" x1="65.9999" y1="8.80078" x2="65.9999" y2="79.2007" gradientUnits="userSpaceOnUse">
<stop stop-color="#3E21DE"/>
<stop offset="1" stop-color="#2209A9"/>
</linearGradient>
<linearGradient id="paint1_linear_2056_27451" x1="62.387" y1="19.2334" x2="62.387" y2="49.0674" gradientUnits="userSpaceOnUse">
<stop stop-color="#3E21DE"/>
<stop offset="1" stop-color="#2209A9"/>
</linearGradient>
</defs>
</svg>
