<svg width="132" height="88" viewBox="0 0 132 88" fill="none" xmlns="http://www.w3.org/2000/svg">
<mask id="mask0_2056_26153" style="mask-type:luminance" maskUnits="userSpaceOnUse" x="26" y="4" width="80" height="80">
<path d="M26.0195 4.01953H105.982V83.9818H26.0195V4.01953Z" fill="white"/>
</mask>
<g mask="url(#mask0_2056_26153)">
<path d="M28.4727 23.9364C28.4727 23.9709 31.7827 32.9737 35.8295 43.9658L43.1862 63.9435L45.7581 63.9951L48.3313 64.0464L48.7079 63.0518C50.5943 58.0104 63.1126 24.0738 63.1126 24.0049C63.1126 23.9536 61.7579 23.9023 60.1118 23.9023C57.4363 23.9023 57.1107 23.9364 56.974 24.1936C56.8886 24.3651 54.4355 31.2415 51.5201 39.49C48.606 47.7213 46.1182 54.512 45.9984 54.5633C45.8617 54.5978 45.6562 54.5293 45.536 54.4091C45.347 54.2376 38.7449 35.7686 34.8692 24.6222L34.6125 23.9023H31.5426C29.862 23.9023 28.4727 23.9192 28.4727 23.9364ZM83.3482 26.5603V29.2182H89.4012C93.8769 29.2182 95.5065 29.2695 95.661 29.424C95.8142 29.5783 95.8666 32.3219 95.8666 40.7074C95.8666 52.7799 95.8666 52.8316 94.8719 54.6663C94.2884 55.7639 92.7277 57.3586 91.751 57.8558C88.8865 59.3135 85.6109 59.245 83.1771 57.6843C80.9985 56.2955 79.4034 53.4489 79.4034 50.9452V50.1392H73.9161V50.9452C73.9161 52.1626 74.4997 54.7176 75.0822 56.0896C76.6081 59.7593 79.6437 62.5546 83.4336 63.7892C84.5484 64.1666 85.2342 64.2692 87.1203 64.338C89.9503 64.4238 91.5106 64.1149 93.8938 62.932C96.6726 61.5428 98.815 59.382 100.154 56.5867C101.491 53.7746 101.423 54.8722 101.474 38.5126L101.543 23.9023H83.3482V26.5603Z" fill="black"/>
</g>
</svg>
