<svg width="132" height="88" viewBox="0 0 132 88" fill="none" xmlns="http://www.w3.org/2000/svg">
<path d="M65.9996 77.2766C84.3769 77.2766 99.2746 62.3788 99.2746 44.0016C99.2746 25.6243 84.3769 10.7266 65.9996 10.7266C47.6223 10.7266 32.7246 25.6243 32.7246 44.0016C32.7246 62.3788 47.6223 77.2766 65.9996 77.2766Z" fill="url(#paint0_linear_2056_22286)"/>
<path d="M78.7707 23.8902C78.5853 24.5604 78.3001 25.6015 78.129 26.2004C77.7867 27.3983 78.3144 28.3538 79.17 28.0258C79.6406 27.8404 80.5248 25.1451 80.5818 23.719C80.6531 22.1503 79.1843 22.2787 78.7707 23.8902Z" fill="black"/>
<path d="M66.6074 25.0589C66.2652 25.2443 63.2134 28.9521 59.8336 33.3016C56.4395 37.6368 53.3164 41.4302 52.8886 41.7439C52.4608 42.0434 50.5071 43.2128 48.5391 44.3394C46.5854 45.466 44.5176 46.8778 43.9615 47.491C39.9114 51.8975 43.4766 58.814 49.4803 58.2578C51.2772 58.0867 51.2772 58.0867 53.8583 62.5646C56.9244 67.8981 57.8228 68.5968 60.347 67.6414C63.2419 66.529 63.4986 64.3757 61.2311 60.3684C59.363 57.0599 59.3915 57.4877 60.9459 56.6321C62.5716 55.7479 62.6857 55.4057 61.8016 53.8798C61.388 53.1953 61.1028 52.6391 61.1456 52.6391C61.1884 52.6391 65.4666 51.812 70.6289 50.7852C82.9502 48.3751 83.1213 48.2325 79.8271 42.5568C77.9019 39.2483 77.9732 39.7189 79.1996 37.8935C80.4261 36.0539 80.4261 36.0824 79.0998 33.815C78.016 31.9611 78.016 31.9611 75.8912 32.0038C73.7663 32.0609 73.7663 32.0609 71.8554 28.7096C69.6022 24.7594 68.5041 23.9893 66.6074 25.0589ZM59.7765 54.1935C60.2186 54.878 60.2044 54.9208 59.3915 55.3486C58.5644 55.7765 58.5359 55.7622 58.108 54.9636C57.7087 54.1935 57.723 54.1222 58.322 53.837C59.2204 53.4092 59.2632 53.4234 59.7765 54.1935Z" fill="white"/>
<path d="M53.7863 50.2033C53.5011 50.9306 53.9004 51.5438 54.5992 51.4439C55.0698 51.3869 55.2409 51.173 55.2409 50.6453C55.2409 49.804 54.0715 49.4474 53.7863 50.2033Z" fill="white"/>
<path d="M50.1067 52.0828C49.0657 52.7531 48.5951 52.7816 47.9248 52.1827C47.6539 51.926 47.2118 51.7976 46.9694 51.8832C45.4292 52.4679 47.2118 54.8351 48.9801 54.5499C50.1067 54.3645 52.2458 53.0526 52.2458 52.5534C52.2458 51.4981 51.3332 51.2985 50.1067 52.0828Z" fill="white"/>
<path d="M85.9728 28.0562C83.0351 29.6961 82.6501 30.0527 82.9496 30.8227C83.2205 31.55 84.0762 31.3076 87.0424 29.6534C89.9658 28.0276 90.522 27.3289 89.3811 26.7157C88.9818 26.5017 88.226 26.8012 85.9728 28.0562Z" fill="black"/>
<path d="M83.5052 35.6851C82.564 36.6263 85.2022 38.0952 87.8547 38.0952C89.5802 38.0952 88.639 36.5265 86.5855 35.9846C85.8154 35.785 84.917 35.5283 84.5747 35.4142C84.1754 35.2858 83.8047 35.3857 83.5052 35.6851Z" fill="black"/>
<path d="M66.6074 25.0589C66.2652 25.2443 63.2134 28.9521 59.8336 33.3016C56.4395 37.6368 53.3164 41.4302 52.8886 41.7439C52.4608 42.0434 50.5071 43.2128 48.5391 44.3394C46.5854 45.466 44.5176 46.8778 43.9615 47.491C39.9114 51.8975 43.4766 58.814 49.4803 58.2578C51.2772 58.0867 51.2772 58.0867 53.8583 62.5646C56.9244 67.8981 57.8228 68.5968 60.347 67.6414C63.2419 66.529 63.4986 64.3757 61.2311 60.3684C59.363 57.0599 59.3915 57.4877 60.9459 56.6321C62.5716 55.7479 62.6857 55.4057 61.8016 53.8798C61.388 53.1953 61.1028 52.6391 61.1456 52.6391C61.1884 52.6391 65.4666 51.812 70.6289 50.7852C82.9502 48.3751 83.1213 48.2325 79.8271 42.5568C77.9019 39.2483 77.9732 39.7189 79.1996 37.8935C80.4261 36.0539 80.4261 36.0824 79.0998 33.815C78.016 31.9611 78.016 31.9611 75.8912 32.0038C73.7663 32.0609 73.7663 32.0609 71.8554 28.7096C69.6022 24.7594 68.5041 23.9893 66.6074 25.0589ZM68.5611 26.8985C69.5451 28.0251 79.6702 46.1077 79.5704 46.5783C79.5134 46.892 79.2139 47.0774 78.7861 47.0774C77.6737 47.0774 66.5932 27.6686 67.2777 26.9128C67.8481 26.271 68.0192 26.271 68.5611 26.8985ZM71.0568 38.4782C73.9089 43.4695 76.1906 47.6051 76.1336 47.6764C75.9625 47.8475 60.2044 50.9849 60.0903 50.885C60.0475 50.828 58.9066 48.8885 57.5661 46.564C55.1276 42.3429 55.1276 42.3429 60.3185 35.6831C63.1706 32.0181 65.5807 29.1089 65.6805 29.2087C65.766 29.3086 68.1904 33.487 71.0568 38.4782ZM77.5597 34.8845C78.1301 35.9113 78.1301 35.9968 77.688 36.7384C77.0891 37.7367 77.0177 37.7224 76.376 36.5958C76.0765 36.0824 75.5917 35.2553 75.2922 34.7419C74.736 33.815 74.736 33.815 75.8484 33.815C76.8324 33.815 77.0177 33.929 77.5597 34.8845ZM56.0973 47.6621C57.3094 49.8012 58.1936 51.6551 58.051 51.7692C57.2667 52.4822 50.5926 56.1044 49.7227 56.3041C45.7297 57.174 42.6352 52.6961 44.8741 49.3164C45.5301 48.3324 53.2309 43.4267 53.7015 43.6834C53.8013 43.7404 54.8851 45.5373 56.0973 47.6621ZM59.7765 54.1935C60.2186 54.878 60.2044 54.9208 59.3915 55.3486C58.5644 55.7765 58.5359 55.7622 58.108 54.9636C57.7087 54.1935 57.723 54.1222 58.322 53.837C59.2204 53.4092 59.2632 53.4234 59.7765 54.1935ZM58.6072 59.5698C61.3737 64.4327 61.3167 64.2616 60.5038 65.2883C58.9352 67.2848 57.6232 65.9016 53.074 57.445C52.8601 57.0171 55.1703 55.2488 55.9689 55.206C56.0545 55.206 57.2381 57.174 58.6072 59.5698Z" fill="black"/>
<defs>
<linearGradient id="paint0_linear_2056_22286" x1="38.0724" y1="61.2333" x2="94.521" y2="27.9583" gradientUnits="userSpaceOnUse">
<stop stop-color="#F6A31F"/>
<stop offset="1" stop-color="#FBDA62"/>
</linearGradient>
</defs>
</svg>
