<svg width="132" height="88" viewBox="0 0 132 88" fill="none" xmlns="http://www.w3.org/2000/svg">
<path fill-rule="evenodd" clip-rule="evenodd" d="M78.028 10.5543C80.9532 12.2556 85.2622 18.2908 83.5693 31.293C80.7975 52.0316 69.7126 69.0544 66.0163 69.0544C63.8663 69.0544 64.0148 65.8143 66.7866 53.7328C70.4809 37.9467 75.564 15.5068 55.5459 15.5068C34.2987 15.5068 31.6794 38.4111 45.3836 41.1977C43.3821 30.5181 49.6956 20.4592 55.6994 20.4592C62.1666 20.4592 59.3959 32.9942 56.7744 46.4607C53.696 62.0903 50.1551 79.8883 62.4724 79.8883C79.5642 79.8883 92.344 48.1618 94.6545 31.282C97.5877 9.93328 84.6525 4.20852 78.028 10.5543Z" fill="#2B2F32"/>
</svg>
