<svg width="132" height="88" viewBox="0 0 132 88" fill="none" xmlns="http://www.w3.org/2000/svg">
<circle cx="66.0008" cy="44.0008" r="33.825" fill="black"/>
<path d="M91.4178 32.2038L73.2566 63.8165C73.1241 64.048 72.9245 64.1638 72.7035 64.1638H59.3866C58.8333 64.1638 58.5021 63.3779 58.8333 62.8233L76.9729 31.2101C77.1054 30.9788 77.305 30.8633 77.526 30.8633H90.8645C91.4178 30.8633 91.7499 31.6261 91.4178 32.2038Z" fill="url(#paint0_linear_2056_25946)"/>
<path d="M40.5837 32.2074L58.7446 63.8213C58.878 64.0519 59.0769 64.1677 59.2979 64.1677H72.6373C73.1903 64.1677 73.5218 63.3816 73.1903 62.827L55.0285 31.2138C54.896 30.9827 54.6973 30.8672 54.4752 30.8672H41.1369C40.5837 30.8672 40.2516 31.6298 40.5837 32.2074Z" fill="white"/>
<path d="M66.002 50.3203L58.8122 62.8224C58.4801 63.377 58.8122 64.1624 59.3655 64.1624H72.7046C72.9258 64.1624 73.1246 64.0245 73.2572 63.816L77.2831 56.8138C77.0179 56.8371 76.7307 56.8602 76.4425 56.8602C72.1731 56.8371 68.3691 54.2719 66.002 50.3203Z" fill="black"/>
<path d="M66.002 50.3203L58.8122 62.8224C58.4801 63.377 58.8122 64.1624 59.3655 64.1624H72.7046C72.9258 64.1624 73.1246 64.0245 73.2572 63.816L77.2831 56.8138C77.0179 56.8371 76.7307 56.8602 76.4425 56.8602C72.1731 56.8371 68.7666 54.6187 66.002 50.3203Z" fill="white"/>
<defs>
<linearGradient id="paint0_linear_2056_25946" x1="70.9646" y1="54.8861" x2="89.8315" y2="34.0237" gradientUnits="userSpaceOnUse">
<stop stop-color="#BBBBBB"/>
<stop offset="0.578125" stop-color="white"/>
</linearGradient>
</defs>
</svg>
