<svg width="132" height="88" viewBox="0 0 132 88" fill="none" xmlns="http://www.w3.org/2000/svg">
<path d="M91.3823 30.5888C90.3466 30.5949 89.325 30.8405 88.4002 31.3063C87.4751 31.7724 86.6696 32.4459 86.0484 33.2748C78.3734 43.9038 74.5366 49.1607 70.6998 54.4176L70.4303 54.763V54.9932C69.9567 55.6331 69.3374 56.1512 68.6224 56.5048C67.9096 56.8585 67.1212 57.0375 66.3251 57.0268C65.4814 57.0304 64.6509 56.8299 63.9018 56.4424C63.1546 56.0547 62.5103 55.4917 62.0277 54.8012C62.0277 54.8012 49.6714 38.3018 49.6714 38.1865C49.0884 37.312 48.7806 36.2827 48.7886 35.2319C48.7886 33.7934 49.3576 32.4132 50.3712 31.3924C51.3846 30.3719 52.7602 29.7933 54.2001 29.7831C55.0465 29.7858 55.8803 29.9891 56.6344 30.3757C57.3873 30.7626 58.0399 31.322 58.5357 32.0087L64.5222 40.0282C64.6781 40.3258 64.9124 40.5746 65.1998 40.7484C65.4874 40.9222 65.8172 41.0141 66.1521 41.0141C66.489 41.0141 66.8187 40.9222 67.1053 40.7484C67.3918 40.5746 67.6269 40.3258 67.7829 40.0282C67.7829 40.0282 73.3472 32.0469 79.4866 23.3365C80.2569 22.2291 80.7062 20.9303 80.7857 19.5836C80.8652 18.237 80.5715 16.8946 79.9359 15.7042C79.3015 14.514 78.3495 13.522 77.187 12.8375C76.0246 12.1531 74.6955 11.8028 73.3472 11.8252H49.1728C45.1014 11.8252 41.1983 13.4423 38.3187 16.3207C35.441 19.1991 33.8242 23.1031 33.8242 27.1739V60.8256C33.8242 64.8959 35.441 68.8001 38.3187 71.6788C41.1983 74.5575 45.1014 76.1742 49.1728 76.1742H82.8248C86.8967 76.1742 90.8001 74.5575 93.6788 71.6788C96.5564 68.8001 98.1742 64.8959 98.1742 60.8256V37.2656C98.1742 36.379 97.9982 35.5012 97.6545 34.6836C97.3126 33.866 96.8097 33.1249 96.1774 32.5034C95.546 31.8816 94.7958 31.3924 93.9725 31.0638C93.15 30.7351 92.2691 30.5737 91.3823 30.5888ZM84.9352 56.9886C84.2526 56.9886 83.5849 56.7859 83.0168 56.4064C82.4486 56.0272 82.0064 55.4876 81.7449 54.8568C81.4834 54.2256 81.4152 53.5313 81.5477 52.8614C81.6816 52.1915 82.0114 51.576 82.494 51.0931C82.9766 50.6099 83.5918 50.2813 84.2614 50.1479C84.9321 50.0146 85.6271 50.083 86.2574 50.3446C86.8888 50.6058 87.4278 51.0486 87.8067 51.6164C88.1868 52.1843 88.39 52.852 88.39 53.5351C88.39 54.4313 88.0421 55.2926 87.4187 55.9372C86.7964 56.5816 85.9466 56.9586 85.0509 56.9886H84.9352Z" fill="#0EF275"/>
</svg>
