<svg width="132" height="88" viewBox="0 0 132 88" fill="none" xmlns="http://www.w3.org/2000/svg">
<path fill-rule="evenodd" clip-rule="evenodd" d="M37.3145 11.1875C35.0363 11.1875 33.1895 13.0343 33.1895 15.3125V72.6838C33.1895 74.962 35.0363 76.8088 37.3145 76.8088H94.6858C96.964 76.8088 98.8108 74.962 98.8108 72.6838V15.3125C98.8108 13.0343 96.964 11.1875 94.6858 11.1875H37.3145ZM81.9411 19.1131C81.9534 18.1505 82.615 17.26 83.602 16.8787C86.6078 15.7178 92.9016 18.1436 90.8287 21.4793C90.4231 22.1321 89.9785 22.0584 88.1485 21.0338C86.9416 20.3583 85.0493 19.8058 83.9437 19.8058C82.7012 19.8058 81.9361 19.5409 81.9411 19.1131ZM49.8907 45.02C44.8702 30.695 40.7617 18.7878 40.7605 18.5589C40.7578 18.0036 46.5446 18.0975 48.7565 18.1334C49.1054 18.1391 49.3653 18.1433 49.4996 18.1433L58.5568 43.7731C63.5378 57.8698 67.86 69.6523 68.1605 69.9571C68.5188 70.3201 68.575 68.7451 68.323 65.3853L67.939 60.2593H69.7051C71.7126 60.2593 75.04 61.6697 75.4317 62.6871C75.5758 63.0611 74.0301 65.178 71.997 67.3908L68.3007 71.4145L63.6602 71.24L59.0198 71.0654L49.8907 45.02ZM80.2636 23.2416C80.2636 22.3882 80.5768 21.3696 80.9591 20.9784C81.9217 19.9925 86.1471 20.5212 87.9348 21.8506C90.2578 23.5779 90.6039 24.494 89.5434 26.106L88.6059 27.5308L86.0213 26.162C84.5997 25.4094 82.7224 24.7932 81.8499 24.7932C80.4833 24.7932 80.2636 24.5782 80.2636 23.2416ZM68.5811 59.0114C68.5789 58.6074 78.4341 29.9746 79.6521 26.8453C80.2074 25.42 80.4238 25.3252 82.3462 25.666C84.0455 25.9669 88.0533 27.84 88.0533 28.3332C88.0533 28.5116 78.1948 56.7609 77.1666 59.5295L76.3053 61.847L74.419 60.7387C73.3819 60.1291 71.6442 59.5849 70.5586 59.5295C69.4725 59.4735 68.5828 59.2402 68.5811 59.0114Z" fill="#1B5FAA"/>
</svg>
