<svg width="132" height="88" viewBox="0 0 132 88" fill="none" xmlns="http://www.w3.org/2000/svg">
<path d="M79.8149 12.0977H52.1851C42.1968 12.0977 34.0996 20.1949 34.0996 30.1833V57.8128C34.0996 67.8014 42.1968 75.8985 52.1851 75.8985H79.8149C89.8031 75.8985 97.9002 67.8014 97.9002 57.8128V30.1833C97.9002 20.1949 89.8031 12.0977 79.8149 12.0977Z" fill="#6C75F1"/>
<path fill-rule="evenodd" clip-rule="evenodd" d="M86.8694 27.3798C87.965 27.2563 89.0634 27.2657 90.1631 27.4081C91.6761 27.7464 93.2984 28.3701 94.6838 29.2206C94.9418 29.379 95.3284 29.5471 95.7373 29.7244C96.4411 30.03 97.2086 30.3633 97.4924 30.7238C98.6028 32.1329 97.2696 34.2724 95.6513 34.2724C95.2654 34.2724 94.9726 34.2372 94.408 34.142C94.2809 34.1209 94.2229 34.1112 94.1561 34.1005C93.1966 33.9462 92.5919 33.9944 91.6962 34.4113C91.4303 34.5353 91.7292 36.9146 92.1181 40.0108C92.5517 43.4596 93.0976 47.7977 93.0976 50.8992C93.0976 55.7064 91.5604 66.8233 90.3548 66.8233C89.4654 66.8233 88.7037 61.3456 88.3079 58.496C88.2238 57.8924 88.157 57.4059 88.108 57.1155L88.1141 57.1153L88.111 57.1147L88.108 57.1142C88.075 56.9195 88.0511 56.8128 88.0349 56.8174C88.023 56.8372 87.9691 57.1961 87.8831 57.7725C87.4832 60.4304 86.3879 67.7149 85.4911 67.7149C84.5787 67.7149 83.7611 60.1859 83.4853 57.6435C83.4303 57.1441 83.3973 56.837 83.3882 56.8174C83.3593 56.8177 83.2422 56.837 83.0543 56.868L83.0532 56.8683C81.4371 57.1353 74.5665 58.2703 72.5084 55.7064C72.4924 55.7353 72.3964 56.1704 72.2455 56.8592C71.5838 59.8669 69.8587 67.7149 69.0249 67.7149C67.6906 67.7149 66.2463 56.395 66.6811 51.5061C66.6921 51.3801 66.705 51.2597 66.718 51.1436C66.74 50.9553 66.765 50.7784 66.7941 50.6151L66.7862 50.622C66.933 49.6273 67.1269 49.0638 67.2358 48.7476C67.3169 48.5144 67.3507 48.4156 67.2858 48.3771C67.1448 48.2941 66.3522 49.6311 65.7065 51.4695C65.4785 51.6252 65.2596 51.755 65.0468 51.8589C64.513 52.118 64.0323 52.2021 63.6105 52.058C62.8088 51.7852 62.5311 51.1205 62.7621 50.2757C62.9538 49.575 63.4917 48.755 64.2372 47.9916C65.7357 46.4568 67.3947 45.5081 70.2094 45.0694C73.2481 44.5964 77.7108 44.7579 83.606 45.551L85.0283 29.0622C84.6815 26.8823 84.0138 22.256 84.3438 20.8397C84.7657 19.0357 86.7217 21.7416 86.8694 27.3798ZM88.108 57.1142V57.1155H88.1069C88.105 57.1147 88.102 57.1144 88.1 57.1139L88.0959 57.1136L88.1039 57.1139L88.108 57.1142ZM90.162 21.5884C90.242 22.4867 89.6832 24.7403 89.1555 26.6128C88.5238 26.5793 87.893 26.5878 87.2624 26.6381C88.0899 22.0065 90.022 20.023 90.162 21.5884ZM72.7451 57.1265C72.7451 57.1265 73.8578 66.7911 74.5923 66.7911C75.1492 66.7911 75.6519 61.8095 75.8988 59.3683C75.9588 58.7738 76.0028 58.3297 76.0297 58.1454C73.9375 58.1454 72.7451 57.1265 72.7451 57.1265Z" fill="white"/>
</svg>
