<svg width="132" height="88" viewBox="0 0 132 88" fill="none" xmlns="http://www.w3.org/2000/svg">
<path d="M70.8049 29.1147C70.8049 29.0861 70.7879 29.0605 70.7609 29.0495L47.3491 19.4624C47.3331 19.456 47.3161 19.4553 47.3001 19.4605L43.0431 20.83C43.0141 20.8394 42.9941 20.8665 42.9941 20.897V68.4914C42.9941 68.5214 43.0141 68.5483 43.0431 68.5574L47.3001 69.9277C47.3131 69.9319 47.3271 69.9319 47.3411 69.9288L70.753 63.4226C70.784 63.4144 70.8049 63.3863 70.8049 63.355V29.1147Z" fill="white" stroke="#222222" stroke-width="0.198" stroke-linejoin="round"/>
<path d="M74.0328 28.9985C74.0328 27.9497 73.3272 27.0018 72.2338 26.5604L48.6891 17.0628C47.9323 16.7578 47.0658 16.726 46.282 16.9743L42.0011 18.3311C40.7767 18.7191 39.9551 19.7245 39.9551 20.8576V68.0065C39.9551 69.1389 40.7767 70.1446 42.0011 70.5323L46.282 71.8897C46.9338 72.0965 47.6474 72.1095 48.309 71.9285L71.854 65.4836C73.1465 65.13 74.0328 64.0962 74.0328 62.9181V28.9985ZM43.1526 67.9556V20.9083L47.3595 19.5749L70.8365 29.045V62.8653L47.3636 69.2899L43.1526 67.9556Z" fill="#222222" stroke="#222222" stroke-width="0.198" stroke-linejoin="round"/>
<path d="M49.0298 18.6562H46.0664V70.9949H49.0298V18.6562Z" fill="#222222" stroke="#222222" stroke-width="0.198"/>
<path d="M89.2655 25.9197C89.2655 25.8908 89.2474 25.865 89.2215 25.8543L61.0398 14.669C61.0249 14.6631 61.0079 14.6624 60.9919 14.6672L55.8681 16.2652C55.8382 16.2744 55.8184 16.3016 55.8184 16.3323V71.8585C55.8184 71.8895 55.8382 71.9165 55.8681 71.9256L60.9919 73.5239C61.0049 73.5277 61.0189 73.5277 61.0318 73.5247L89.2135 65.9344C89.2443 65.9264 89.2655 65.8984 89.2655 65.8665V25.9197Z" fill="white" stroke="#222222" stroke-width="0.198" stroke-linejoin="round"/>
<path d="M92.0435 25.8777C92.0435 24.8104 91.331 23.8482 90.2324 23.4104L62.2346 12.258C61.505 11.9673 60.6745 11.937 59.9199 12.1732L54.8302 13.7664C53.6059 14.1496 52.7793 15.168 52.7793 16.3185V71.6823C52.7793 72.8329 53.6059 73.8515 54.8302 74.2343L59.9199 75.8273C60.5475 76.0242 61.2303 76.0372 61.8669 75.8653L89.8647 68.297C91.1539 67.9491 92.0435 66.9025 92.0435 65.7082V25.8777ZM55.9377 71.6314V16.37L60.9553 14.7996L88.8851 25.9253V65.6543L60.9594 73.2027L55.9377 71.6314Z" fill="#222222" stroke="#222222" stroke-width="0.198" stroke-linejoin="round"/>
<path d="M61.9129 14.4453H58.9492V74.0534H61.9129V14.4453Z" fill="#222222" stroke="#222222" stroke-width="0.198"/>
</svg>
