<svg width="132" height="88" viewBox="0 0 132 88" fill="none" xmlns="http://www.w3.org/2000/svg">
<path fill-rule="evenodd" clip-rule="evenodd" d="M34.5117 28.875V44H42.0847H49.6573L49.5784 46.5438L49.4992 49.0875L48.3305 49.1719L47.1617 49.2566V51.7157V54.175H45.9242H44.6867V56.65V59.125H43.3117H41.9367V61.7375V64.35H40.6992H39.4617V66.825V69.3H38.2242H36.9867V71.775V74.25H50.8742H64.7617V71.7901V69.3302L63.4555 69.2464L62.1492 69.1625L62.07 66.7717L61.9908 64.3805L60.8325 64.2966L59.6742 64.2125L59.595 61.6688L59.5161 59.125H58.2888H57.0617V56.65V54.175H55.8242H54.5867V51.7V49.225H53.3492H52.1117V46.6125V44H66.0097H79.9073L79.8284 46.5438L79.7492 49.0875L78.5805 49.1719L77.4117 49.2566V51.7157V54.175H76.1742H74.9367V56.65V59.125H73.7097H72.4823L72.4034 61.6688L72.3242 64.2125L71.018 64.2964L69.7117 64.3803V66.8401V69.3H68.4742H67.2367V71.775V74.25H81.1242H95.0117V71.775V69.3H93.7742H92.5367V66.825V64.35H91.3097H90.0823L90.0034 61.8063L89.9242 59.2625L88.618 59.1786L87.3117 59.0947V56.6349V54.175H86.0742H84.8367V51.7157V49.2566L83.668 49.1719L82.4992 49.0875L82.42 46.5438L82.3411 44H89.9138H97.4867V28.875V13.75H96.2492H95.0117V16.225V18.7H93.7742H92.5367V21.3125V23.925H91.2992H90.0617V26.4V28.875H88.8242H87.5867V31.35V33.825H86.3597H85.1323L85.0534 36.3687L84.9742 38.9125L83.668 38.9964L82.3617 39.0802V41.5401V44H81.1242H79.8867V41.525V39.05H78.6597H77.4323L77.3534 36.5063L77.2742 33.9625L75.968 33.8786L74.6617 33.7948V31.3349V28.875H73.4242H72.1867V26.4V23.925H70.9492H69.7117V21.3125V18.7H68.4742H67.2367V16.225V13.75H65.9992H64.7617V16.225V18.7H63.5347H62.3073L62.2284 21.2438L62.1492 23.7875L60.9805 23.8719L59.8117 23.9566V26.4157V28.875H58.4367H57.0617V31.3343V33.7934L55.893 33.8781L54.7242 33.9625L54.645 36.5063L54.5661 39.05H53.3388H52.1117V41.525V44H50.8742H49.6367V41.5401V39.0802L48.3305 38.9964L47.0242 38.9125L46.945 36.3687L46.8661 33.825H45.6388H44.4117V31.35V28.875H43.1742H41.9367V26.4V23.925H40.6992H39.4617V21.3125V18.7H38.2242H36.9867V16.225V13.75H35.7492H34.5117V28.875Z" fill="#00FF00"/>
</svg>
