<svg width="132" height="88" viewBox="0 0 132 88" fill="none" xmlns="http://www.w3.org/2000/svg">
<path d="M66 77C84.2254 77 99 62.2254 99 44C99 25.7746 84.2254 11 66 11C47.7746 11 33 25.7746 33 44C33 62.2254 47.7746 77 66 77Z" fill="url(#paint0_linear_2056_22616)"/>
<path d="M51.4076 30.8C50.3568 30.8 49.5 31.6402 49.5 32.6703V56.9832H53.315V32.6703C53.315 31.6402 52.4581 30.8 51.4076 30.8Z" fill="white"/>
<path d="M79.8741 56.9832C80.9247 56.9832 81.7817 56.143 81.7817 55.1131V30.8H77.9665V55.1131C77.9665 56.143 78.8235 56.9832 79.8741 56.9832Z" fill="white"/>
<path fill-rule="evenodd" clip-rule="evenodd" d="M72.6196 30.8V52.1642C72.6196 53.9955 71.279 55.5507 69.4678 55.821C67.4482 56.1222 65.5667 54.7292 65.2655 52.7096L65.263 52.6928V35.0146C64.9584 33.4979 63.6258 32.4049 62.0768 32.4049C60.2819 32.4049 58.8269 33.8598 58.8269 35.6548V56.9832H58.3666V35.6548C58.3666 33.6056 60.0278 31.9447 62.0768 31.9447C63.8535 31.9447 65.3807 33.2042 65.719 34.9483L65.7232 34.97V52.6583C65.9947 54.4175 67.6372 55.6287 69.3998 55.3658C70.9856 55.1292 72.1593 53.7675 72.1593 52.1642V30.8H72.6196Z" fill="white"/>
<defs>
<linearGradient id="paint0_linear_2056_22616" x1="321.337" y1="43.5664" x2="34.9071" y2="43.5664" gradientUnits="userSpaceOnUse">
<stop stop-color="#663DFF"/>
<stop offset="0.50302" stop-color="#AA00FF"/>
<stop offset="1" stop-color="#CC4499"/>
</linearGradient>
</defs>
</svg>
