<svg width="132" height="88" viewBox="0 0 132 88" fill="none" xmlns="http://www.w3.org/2000/svg">
<path fill-rule="evenodd" clip-rule="evenodd" d="M59.7551 8.94362C52.9836 10.1784 46.495 13.4637 41.572 18.1498C36.5187 22.9599 33.217 28.6563 31.3676 35.7545C30.474 39.184 30.249 45.8508 30.8984 49.6586C34.9495 73.4102 60.4545 86.3965 81.9787 75.6669C92.2308 70.5563 99.3966 60.5944 101.21 48.9315C101.767 45.3482 101.414 38.8286 100.469 35.2503C96.8256 21.4538 85.8809 11.373 71.8688 8.90844C68.8674 8.38077 62.7448 8.39836 59.7551 8.94362ZM62.6828 16.8339C48.0356 18.5457 37.1759 32.2155 38.835 46.8527C40.2992 59.7722 50.2292 69.656 63.1964 71.101C66.2935 71.4462 70.0436 71.146 73.2964 70.2928C75.5503 69.7016 80.123 67.4991 82.0043 66.0992C91.5385 59.0025 95.5496 46.9288 92.0545 35.8463C90.6028 31.2434 88.6033 28.0285 84.9523 24.426C80.7005 20.2309 75.0119 17.513 69.056 16.8309C66.1593 16.4991 65.5433 16.4994 62.6828 16.8339ZM71.7498 33.2252C71.3916 33.368 70.9552 33.752 70.7804 34.0784C70.5754 34.4615 70.4627 37.9307 70.4627 43.8668C70.4627 54.2189 70.494 54.3868 72.4308 54.3868C73.2257 54.3868 75.2386 53.3663 80.9896 50.048C85.1253 47.6615 88.7441 45.4331 89.0311 45.0959C89.7553 44.2451 89.6891 42.9853 88.882 42.2668C87.9027 41.3948 73.9867 33.3841 72.9981 33.1233C72.67 33.0365 72.1083 33.0824 71.7498 33.2252Z" fill="#C80525"/>
</svg>
