<svg width="132" height="88" viewBox="0 0 132 88" fill="none" xmlns="http://www.w3.org/2000/svg">
<path fill-rule="evenodd" clip-rule="evenodd" d="M39.5832 8.69955C35.0182 10.7731 31.2225 15.1117 29.9433 19.7161C28.6484 24.3787 28.7021 63.7858 30.009 68.4957C31.3197 73.2148 36.775 78.6708 41.4936 79.9815C46.3862 81.3395 85.6138 81.3395 90.5064 79.9815C95.225 78.6708 100.68 73.2148 101.991 68.4957C103.298 63.7858 103.352 24.3787 102.057 19.7161C100.778 15.1117 96.9818 10.7731 92.4168 8.69955C89.1144 7.19902 86.0248 7 66 7C45.9752 7 42.8856 7.19902 39.5832 8.69955ZM64.5209 27.8009C60.2439 32.3266 56.7443 36.4968 56.7443 37.0698C56.7443 37.6419 57.7791 39.0813 59.0425 40.2689L61.3416 42.4285L69.918 33.978C79.0941 24.9369 79.3338 24.2445 74.4199 20.9824C72.3615 19.6152 72.0671 19.8179 64.5209 27.8009ZM55.4522 22.8393C53.8731 25.0943 54.7126 27.5927 57.5634 29.1182C58.8823 29.8245 59.7107 29.5551 61.2444 27.9231C63.6629 25.3479 63.7148 24.3528 61.5304 22.3765C59.2276 20.2928 57.1237 20.4529 55.4522 22.8393ZM44.9182 33.3939C43.7862 34.1863 42.8606 35.5489 42.8606 36.4227C42.8606 38.1288 57.5116 53.2433 59.1656 53.2433C60.5697 53.2433 63.2233 50.1246 63.2233 48.4751C63.2233 47.3134 48.4604 31.9526 47.345 31.9526C47.1414 31.9526 46.0492 32.6015 44.9182 33.3939ZM81.8171 34.1798C80.0956 36.0117 79.9068 36.7467 80.7509 38.3241C82.7122 41.9879 84.9113 42.323 87.7251 39.3849L90.2834 36.7152L87.9019 34.3335C84.9687 31.4 84.4402 31.387 81.8171 34.1798ZM70.3085 36.4227C69.4663 37.354 68.7767 38.7379 68.7767 39.4978C68.7767 40.2588 72.318 44.3373 76.646 48.5621C84.1977 55.9342 84.5985 56.1888 86.5959 54.8641C90.4009 52.3416 89.704 50.6097 81.6144 42.4776C77.3762 38.2158 73.4425 34.7297 72.8742 34.7297C72.3059 34.7297 71.1508 35.4915 70.3085 36.4227ZM44.2749 48.588L41.7166 51.2577L44.0981 53.6395C47.0748 56.6164 47.8143 56.6127 50.1773 53.6071C52.2673 50.9504 51.673 48.5075 48.5279 46.8246C47.1868 46.1072 46.2982 46.4756 44.2749 48.588ZM61.5832 54.4198C57.3949 58.6307 53.9675 62.5149 53.9675 63.0527C53.9675 64.9679 58.3751 68.2698 59.8366 67.4487C61.8238 66.3333 75.2557 51.739 75.2557 50.6958C75.2557 49.4128 72.0755 46.7635 70.5344 46.7635C69.7995 46.7635 65.7714 50.2089 61.5832 54.4198ZM70.7556 60.0498C68.3371 62.625 68.2852 63.6201 70.4696 65.5965C72.7724 67.6802 74.8763 67.52 76.5478 65.1336C78.1269 62.8787 77.2874 60.3802 74.4366 58.8547C73.1177 58.1484 72.2893 58.4178 70.7556 60.0498Z" fill="black" fill-opacity="0.989"/>
<path fill-rule="evenodd" clip-rule="evenodd" d="M55.4751 22.801C53.8961 25.056 54.7356 27.5544 57.5864 29.0799C58.9053 29.7862 59.7337 29.5169 61.2674 27.8849C63.6859 25.3096 63.7377 24.3145 61.5534 22.3382C59.2505 20.2545 57.1467 20.4146 55.4751 22.801ZM44.9412 33.3556C43.8092 34.148 42.8836 35.5106 42.8836 36.3845C42.8836 38.0905 57.5345 53.205 59.1885 53.205C60.5926 53.205 63.2463 50.0864 63.2463 48.4368C63.2463 47.2751 48.4833 31.9144 47.368 31.9144C47.1644 31.9144 46.0722 32.5633 44.9412 33.3556ZM70.3315 36.3845C69.4892 37.3157 68.7997 38.6996 68.7997 39.4596C68.7997 40.2205 72.3409 44.299 76.6689 48.5238C84.2207 55.896 84.6215 56.1505 86.6189 54.8259C90.4239 52.3034 89.7269 50.5714 81.6374 42.4393C77.3992 38.1775 73.4655 34.6914 72.8972 34.6914C72.3289 34.6914 71.1738 35.4532 70.3315 36.3845ZM70.7786 60.0115C68.36 62.5868 68.3082 63.5819 70.4926 65.5582C72.7954 67.6419 74.8992 67.4818 76.5708 65.0954C78.1498 62.8404 77.3104 60.342 74.4596 58.8165C73.1406 58.1102 72.3122 58.3795 70.7786 60.0115Z" fill="#FFAD00"/>
</svg>
