<svg width="132" height="88" viewBox="0 0 132 88" fill="none" xmlns="http://www.w3.org/2000/svg">
<path fill-rule="evenodd" clip-rule="evenodd" d="M75.5945 58.4265C72.8475 60.2572 69.5486 61.3242 65.9992 61.3242C56.4311 61.3242 48.6739 53.5676 48.6739 43.9992C48.6739 34.4309 56.4311 26.6742 65.9992 26.6742C69.5486 26.6742 72.8475 27.7412 75.5945 29.5719C77.8616 25.0594 81.1608 21.1539 85.1805 18.1644C79.8243 14.1811 73.1863 11.8242 65.9992 11.8242C48.2295 11.8242 33.8242 26.2295 33.8242 43.9992C33.8242 61.7689 48.2295 76.1742 65.9992 76.1742C73.1863 76.1742 79.8243 73.8175 85.1805 69.8338C81.1608 66.8446 77.8616 62.939 75.5945 58.4265ZM94.7656 29.5719C96.9466 33.9111 98.1742 38.8119 98.1742 43.9992C98.1742 49.1865 96.9466 54.0873 94.7656 58.4265C90.1074 55.3212 87.0367 50.0187 87.0367 43.9992C87.0367 37.9797 90.1074 32.6772 94.7656 29.5719Z" fill="url(#paint0_linear_2056_25549)"/>
<defs>
<linearGradient id="paint0_linear_2056_25549" x1="65.9992" y1="11.8242" x2="65.9992" y2="76.1742" gradientUnits="userSpaceOnUse">
<stop stop-color="#3FEAE9"/>
<stop offset="1" stop-color="#7E64DE"/>
</linearGradient>
</defs>
</svg>
