<svg width="132" height="88" viewBox="0 0 132 88" fill="none" xmlns="http://www.w3.org/2000/svg">
<path d="M107.314 33.9348C86.177 43.1446 90.8457 44.2635 80.6776 58.1739C71.6279 70.581 60.3391 70.421 51.2575 58.0141C40.6415 43.4963 44.9905 43.1446 24.908 33.9029" fill="black"/>
<path fill-rule="evenodd" clip-rule="evenodd" d="M46.4685 49.0704C47.8436 51.252 49.5234 53.9169 52.0794 57.4125C56.5184 63.4768 61.3457 66.3442 65.9875 66.3807C70.6235 66.4171 75.4359 63.6318 79.8546 57.5736L79.8553 57.5728C82.3693 54.1336 83.9649 51.4874 85.2833 49.2893L85.3832 49.1227C86.6497 47.0106 87.7073 45.2469 89.1126 43.6247C92.0255 40.2622 96.3423 37.6043 106.907 33.001L107.721 34.8686C97.1485 39.4751 93.2313 41.9815 90.6523 44.9586C89.3645 46.4451 88.3883 48.0728 87.0795 50.2551L87.0303 50.3371C85.7039 52.5487 84.0702 55.2586 81.5005 58.7741C76.8696 65.1231 71.5127 68.4613 65.9715 68.4178C60.4361 68.3743 55.0783 64.9583 50.4356 58.6157L50.4353 58.6153C47.8373 55.0624 46.1267 52.3485 44.748 50.1611C44.7064 50.0952 44.6652 50.0298 44.6243 49.9649C43.2173 47.7333 42.1827 46.1147 40.8754 44.6611C38.284 41.7797 34.5382 39.4558 24.4822 34.8282L25.3338 32.9776C35.3603 37.5917 39.4813 40.0645 42.3901 43.2988C43.8328 44.9031 44.9565 46.6721 46.3475 48.8784C46.3876 48.942 46.4279 49.006 46.4685 49.0704Z" fill="white"/>
<path d="M60.4362 65.6591C60.4362 65.6591 57.8143 33.9057 24.941 33.9057C21.5836 33.9057 20.2412 30.0361 20.2412 25.5275V23.0971C20.2412 20.3471 21.9035 20.6029 23.9185 20.6029H108.115C110.13 20.6029 111.76 20.3471 111.76 23.0971V25.6873C111.76 30.1321 110.513 33.9057 107.283 33.9057C74.2505 33.9057 71.5008 65.691 71.5008 65.691" fill="black"/>
<path fill-rule="evenodd" clip-rule="evenodd" d="M21.4375 22.0146C21.3524 22.1792 21.2598 22.4987 21.2598 23.0971V25.5275C21.2598 27.7063 21.588 29.6238 22.2456 30.9567C22.8821 32.247 23.7566 32.8871 24.941 32.8871C41.7864 32.8871 50.9686 41.0595 55.8895 49.2582C58.3362 53.3347 59.7234 57.4024 60.4998 60.4458C60.8885 61.9694 61.1255 63.2416 61.2657 64.1372C61.3358 64.5851 61.3817 64.9393 61.4104 65.184C61.4247 65.3064 61.4347 65.4016 61.4413 65.4674C61.4445 65.5003 61.4469 65.5259 61.4486 65.544L61.4505 65.5654L61.451 65.5718L61.4512 65.5739C61.4513 65.5746 61.4513 65.5753 60.4362 65.6591C59.4211 65.7429 59.4211 65.7433 59.4211 65.7436L59.4209 65.7412L59.4198 65.7282C59.4186 65.7157 59.4168 65.6958 59.4141 65.6686C59.4087 65.6143 59.4 65.5311 59.3871 65.4209C59.3613 65.2006 59.3188 64.8725 59.253 64.4522C59.1214 63.6112 58.8967 62.4027 58.5259 60.9494C57.7835 58.0391 56.4607 54.1684 54.1428 50.3066C49.5344 42.6285 40.969 34.9242 24.941 34.9242C22.768 34.9242 21.2926 33.6296 20.4186 31.858C19.5657 30.129 19.2227 27.8573 19.2227 25.5275V23.0971C19.2227 22.3205 19.3378 21.6407 19.6274 21.0798C19.9334 20.4873 20.3948 20.1039 20.9304 19.8794C21.4311 19.6695 21.9712 19.6089 22.4498 19.5883C22.7766 19.5741 23.1425 19.5778 23.4884 19.5813C23.637 19.5828 23.7819 19.5843 23.9185 19.5843H108.115C108.251 19.5843 108.396 19.5828 108.544 19.5813C108.889 19.5778 109.254 19.5741 109.579 19.5883C110.054 19.609 110.592 19.6696 111.091 19.8811C111.625 20.1077 112.081 20.4938 112.382 21.0857C112.666 21.6451 112.779 22.3228 112.779 23.0971V25.6873C112.779 27.9786 112.461 30.2069 111.652 31.902C110.823 33.6403 109.404 34.9242 107.283 34.9242C91.1731 34.9242 82.5353 42.639 77.8758 50.3263C75.5324 54.1925 74.1891 58.0673 73.4325 60.9806C73.0546 62.4353 72.8245 63.6451 72.6892 64.4869C72.6215 64.9076 72.5777 65.236 72.5509 65.4565C72.5376 65.5668 72.5285 65.6501 72.5229 65.7044C72.5201 65.7316 72.5182 65.7516 72.517 65.764L72.5158 65.7771L72.5156 65.7794C72.5156 65.7791 72.5156 65.7788 71.5008 65.691C70.486 65.6032 70.4861 65.6026 70.4862 65.6018L70.4863 65.5997L70.4869 65.5933L70.4889 65.5719C70.4901 65.5593 70.4917 65.5432 70.4936 65.5235C70.4945 65.5147 70.4955 65.5053 70.4965 65.4952C70.5033 65.4293 70.5137 65.3341 70.5286 65.2115C70.5583 64.9665 70.6058 64.612 70.6778 64.1636C70.8219 63.2671 71.0646 61.9936 71.4607 60.4685C72.252 57.422 73.6606 53.3505 76.1337 49.2704C81.1072 41.065 90.3605 32.8871 107.283 32.8871C108.393 32.8871 109.212 32.2843 109.814 31.0246C110.436 29.7217 110.741 27.8409 110.741 25.6873V23.0971C110.741 22.4964 110.65 22.1748 110.566 22.0087C110.498 21.8752 110.42 21.8096 110.295 21.7564C110.134 21.6881 109.887 21.6408 109.49 21.6235C109.22 21.6118 108.948 21.6146 108.635 21.6179C108.474 21.6196 108.303 21.6214 108.115 21.6214H23.9185C23.7309 21.6214 23.5591 21.6196 23.3979 21.6179C23.0837 21.6146 22.8097 21.6117 22.5378 21.6235C22.138 21.6408 21.8848 21.6882 21.718 21.7581C21.5862 21.8134 21.5061 21.8816 21.4375 22.0146Z" fill="white"/>
<path d="M91.2307 21.2056L90.9747 21.2696C90.8787 21.3868 90.7827 21.504 90.6867 21.6214V21.7173C90.6579 21.822 90.6579 21.9324 90.6867 22.0369L90.7508 22.1651C92.0623 25.3628 94.812 28.5605 97.7856 30.4151C95.8034 30.9269 93.8522 31.5343 91.9022 31.9501C91.5824 31.9501 91.3905 32.0461 91.2626 32.078H91.1666L91.1025 32.0461L91.0387 32.0139C89.3266 31.1128 87.8881 29.7675 86.8755 28.1188C85.8632 26.4702 85.3124 24.5793 85.2824 22.6447V22.7088C85.2824 22.4846 85.1546 22.1329 84.9626 22.005C84.7388 21.8771 84.5787 21.8771 84.4827 21.8771C84.2589 21.8771 84.0999 21.9411 84.1318 21.9411H83.6841C83.4603 21.8771 83.2043 21.8771 82.9166 21.9411C82.6226 22.0092 82.3617 22.1791 82.181 22.4208L77.608 27.0257C75.306 27.2493 72.8112 26.0662 71.6598 24.0516V24.0197L71.6279 23.9556C71.3721 23.668 71.3399 23.1565 71.4359 22.6766L71.596 21.9411H70.8612C70.8612 21.9411 70.7652 21.8771 70.5094 21.9091C70.3816 21.9091 70.1896 21.9091 69.9977 22.1329C69.8376 22.2611 69.8057 22.4527 69.7738 22.6128C69.7097 22.8685 69.5178 23.0924 69.2301 23.2203H69.1661L69.1342 23.2522C68.1475 23.8275 67.0191 24.1146 65.8765 24.0805C64.7353 24.0466 63.6256 23.6933 62.6741 23.0605C62.5152 22.8685 62.3551 22.6128 62.1954 22.293L61.9715 21.7813L61.5557 21.9091H61.3319C61.2359 21.9091 61.1077 21.8453 60.852 22.005C60.7241 22.101 60.5641 22.293 60.5322 22.4527C60.5003 22.6447 60.5322 22.7726 60.5641 22.8685C60.6919 23.2522 60.6919 23.6039 60.5003 23.8277H60.4681V23.8918C59.8914 24.914 59.034 25.7497 57.9964 26.2994C56.9588 26.8492 55.7865 27.0901 54.6158 26.9935C54.2272 26.8549 53.8843 26.6116 53.6255 26.2901C53.3054 25.9062 52.9537 25.4266 52.4419 25.0111C51.4825 24.1157 50.523 23.0605 49.4684 22.101L49.2764 21.9091H48.4448L46.9095 21.8771L47.0695 22.0369C46.9736 22.101 46.8457 22.197 46.8135 22.3568C46.8196 24.389 46.2478 26.3808 45.1674 28.1015C44.0858 29.8222 42.5397 31.201 40.7065 32.078C38.5316 31.5662 36.3896 30.9588 34.2466 30.3832C37.2292 28.6301 39.5801 25.9769 40.9614 22.8045L41.2813 22.0369L40.4187 21.9411H39.8109L39.683 22.005C39.3312 22.197 39.2032 22.5168 39.1713 22.6447C39.1073 22.8364 39.0753 22.9004 39.1393 22.8364L39.0753 22.9004V22.9645C37.7639 25.5723 35.7189 27.7399 33.1911 29.2001C32.6793 29.4878 32.1686 29.7116 31.6888 29.7757C29.4818 29.1361 27.2759 28.6884 25.2288 27.9208C27.047 26.4633 28.6792 24.788 30.0896 22.9323L30.6973 22.1329L29.7057 21.9411C29.4819 21.9411 29.258 21.9091 28.9701 21.9731C28.7142 22.0369 28.4583 22.2611 28.2984 22.5168C26.8471 24.3645 25.1349 25.9912 23.2148 27.3453C22.5431 27.2815 21.8395 27.1214 21.1038 26.9616L20.3362 26.7697V27.5691L20.3682 28.0487C20.4002 28.1769 20.4961 28.3685 20.688 28.4964C20.784 28.5924 20.9439 28.6246 21.1038 28.6565C21.6795 28.8162 22.2553 29.0401 22.799 29.2958C23.1508 30.1274 23.4707 31.0228 23.7575 31.8861L23.9495 32.4938L24.2054 32.3978L24.4292 32.6536L24.7491 32.9734C24.7811 33.0372 24.7811 33.0694 24.909 33.1651L25.0689 33.2292L25.3248 33.2932C25.3918 33.2822 25.4567 33.2605 25.5167 33.2292C25.6237 33.1442 25.7296 33.0589 25.8366 32.9734C25.9046 32.8458 25.9265 32.6995 25.9005 32.5576V32.4297C25.6446 31.6303 25.1649 30.5751 24.7491 29.6157C27.084 30.2872 29.4499 30.7349 31.5609 31.6303C31.8807 31.8223 32.0726 32.3657 32.4874 33.0053L32.6473 33.2611H32.8073L32.8712 33.2932L33.2551 33.6128L33.6389 33.9648L33.8308 34.0927L33.9907 34.1884L34.2146 34.2205C34.3425 34.2205 34.5664 34.1884 34.7264 33.9967L35.0142 33.645L34.7583 33.2611C34.5984 33.0372 34.3106 32.6536 34.1186 32.3019L34.0227 32.1421C34.2146 32.2059 34.4065 32.3019 34.6944 32.3338C36.5485 32.7815 38.4036 33.2932 40.2587 33.8047C40.7065 34.4444 41.0574 35.2119 41.4092 35.9792L41.5051 36.203L41.6971 36.299L42.2408 36.5869L43.6161 37.3223L43.1044 35.8513C42.9125 35.2119 42.6886 34.7961 42.5926 34.4125L42.6886 34.4763L42.8165 34.5082C44.8957 35.02 46.9736 35.5955 49.0526 36.1711C50.267 37.7381 50.5868 39.9444 49.979 41.8312L49.8512 42.2148L50.171 42.4708C50.1072 42.4386 50.171 42.5346 50.3948 42.7266C50.427 42.7585 50.4908 42.8225 50.6509 42.8544C50.7787 42.9182 51.0026 42.9182 51.1945 42.7904C51.5144 42.6306 51.5144 42.4386 51.5144 42.2789C51.8493 41.4008 52.0052 40.4644 51.9722 39.5253C51.9392 38.5862 51.7184 37.663 51.3224 36.8108C53.7212 37.4501 56.1192 37.8659 58.2612 38.7932C58.7411 39.049 59.0609 39.7524 58.8371 40.2323C58.7089 40.4881 58.517 40.6478 58.2612 40.8079C57.9425 40.9996 57.5586 41.1277 57.1747 41.2875C55.5115 41.9271 53.6574 42.1188 51.8023 42.7585C51.6752 42.7978 51.5633 42.8762 51.4825 42.9823C51.3224 43.1421 51.2905 43.3981 51.3224 43.526C51.3546 43.8136 51.4506 43.8458 51.5144 43.9418L51.8342 44.2613L52.0261 44.3573H52.2822C53.0178 44.2294 53.6255 43.9737 54.2 43.8458C55.7994 43.3981 57.3985 42.9823 58.9968 42.7904C59.7965 42.8863 60.2761 44.1335 59.7325 44.709V44.7412C58.9328 45.7004 58.0704 46.5317 57.1747 47.4593L55.8313 48.8021L55.3517 49.2498L55.7994 49.6656L55.8954 49.8254C55.8954 49.8895 55.9592 49.9536 56.0233 50.0174C56.0873 50.0812 56.2471 50.2093 56.4391 50.2093C56.5689 50.2203 56.7 50.1967 56.818 50.1406C56.9357 50.0842 57.0369 49.9976 57.1109 49.8895C58.581 48.4185 59.9244 46.8516 61.5876 45.8602C62.1635 45.7004 62.9299 46.18 62.9621 46.8197C62.9929 47.0317 62.9929 47.247 62.9621 47.4593C62.898 48.3225 62.4833 49.2498 62.3232 50.3372L61.2997 54.0145C60.4681 52.9274 59.3807 52.032 58.1023 51.5202L56.7589 50.9766L57.2707 52.3197C57.3686 52.5985 57.5206 52.8548 57.7184 53.0743C57.9153 53.2937 58.1553 53.4722 58.421 53.5987C59.4126 54.2383 60.2123 55.1978 60.66 56.2849L60.0204 58.907L59.9563 59.0671L60.0204 59.2268L60.2442 60.0582L60.8839 62.3607L61.4597 60.0263C61.7796 58.7791 62.0034 57.5639 62.5471 56.6047C63.5536 55.8974 64.7542 55.5179 65.9846 55.5179C67.2149 55.5179 68.4153 55.8974 69.4218 56.6047V56.6366C69.6778 56.8286 69.8057 57.0843 69.8376 57.4363V57.5001L70.2534 58.9392L70.8933 60.9536L71.404 59.0349C71.6598 58.4274 71.7879 57.7559 71.5319 57.0524C71.4678 56.7326 71.3721 56.4768 71.3721 56.253C71.3721 56.0291 71.3721 55.8694 71.5 55.7412V55.7093L71.5638 55.6774C71.9796 54.9099 72.5873 54.2383 73.2911 53.7268L73.4511 53.6309L73.5149 53.4711L73.8988 52.6395L74.3465 51.1685L72.9712 51.936C72.0437 52.4475 71.2761 53.2151 70.6692 54.0464C70.0617 51.5521 69.198 49.186 68.9741 46.8197C69.006 46.5317 69.198 46.2119 69.4218 46.0202C69.6778 45.8283 69.9336 45.7323 70.1896 45.8283C71.4359 46.1481 72.2675 47.3952 73.4511 48.4504C73.8028 48.7702 74.2186 49.2817 74.7304 49.6656L75.3063 50.0812L75.625 49.4418C75.625 49.5378 75.721 49.4418 75.8488 49.186C75.9129 49.0582 75.9767 48.8662 75.8807 48.5783C75.8488 48.4185 75.721 48.3225 75.625 48.2266C74.2186 46.8516 72.7793 45.6044 71.9796 44.0694C71.9507 43.9055 71.9647 43.7364 72.0217 43.5793C72.0778 43.4223 72.1737 43.2829 72.2997 43.1743C72.5554 42.8863 72.9393 42.7266 73.2592 42.7585C74.0908 42.8225 74.9543 43.1421 75.9767 43.334C76.9684 43.5579 78.0238 43.8777 79.0474 44.1654L79.4951 44.2613L79.7511 43.8777L80.006 43.622C80.1977 43.1421 80.7735 43.3021 80.6135 42.8225L79.6551 42.5987C77.512 41.9909 75.3701 41.6392 73.5149 40.68C73.2721 40.4779 73.112 40.1933 73.0672 39.8806C73.0672 39.5608 73.1313 39.2728 73.3551 39.0812C74.6344 38.0579 76.4885 37.9938 78.3436 37.3544C79.1752 37.1625 79.91 36.9386 80.5816 36.8746C79.879 38.4734 79.783 40.3602 80.3258 41.9909L80.6135 42.8225L81.3172 42.2789L81.7011 41.895C81.829 41.7033 81.8931 41.3194 81.7971 40.9996C81.4773 39.3369 81.8609 37.482 82.9166 36.1392C85.0905 35.5315 87.2655 34.9559 89.4715 34.4444L88.9916 35.4355L88.5769 36.6188L89.7592 36.2671C89.9833 36.1711 90.239 36.0751 90.4629 35.8832C90.6867 35.7234 90.8468 35.4355 90.9428 35.1159C91.0706 34.732 91.2626 34.3484 91.5505 34.0605C91.8063 33.7409 92.0623 33.5809 92.414 33.5171C94.2362 33.1973 95.9634 32.5576 97.6896 32.174L98.0732 32.078L97.9454 32.3338L97.4017 33.2932L98.5212 33.2611C98.7132 33.2611 98.9689 33.2292 99.2247 33.1013C99.4488 32.9734 99.7045 32.7496 99.8324 32.4616C99.9606 32.1421 100.12 31.918 100.248 31.7263C100.408 31.5662 100.536 31.4703 100.696 31.4065H100.824C102.902 30.6708 105.077 30.1912 107.283 29.5838C107.059 30.2234 106.803 30.799 106.611 31.4703L106.355 32.3019L107.219 32.27H107.699C107.827 32.2059 107.987 32.5257 108.115 32.3657C108.242 32.2378 108.338 31.6622 108.37 31.5343C108.64 30.7456 108.939 29.9671 109.266 29.2001L110.608 28.7203L111.12 28.5286L111.056 28.0809L111.088 27.9208C111.088 27.793 111.216 27.6651 110.992 27.3453C110.896 27.1855 110.672 27.0257 110.48 27.0257L110.162 27.0576L108.818 27.3774C106.771 25.9062 104.981 24.1476 103.446 22.1651L103.222 21.8452L103.03 21.8771L102.966 21.8452L102.422 21.5254C102.291 21.4294 102.151 21.344 102.007 21.2696C101.911 21.2696 101.847 21.2056 101.623 21.2696C101.528 21.2696 101.368 21.3656 101.24 21.4934C101.157 21.6042 101.112 21.7388 101.112 21.8771C101.112 22.101 101.176 22.1651 101.208 22.2289L101.432 22.5806C102.87 24.4993 104.917 26.418 106.867 27.9527L99.9925 29.8395C96.7629 28.2577 94.1853 25.6007 92.7019 22.3249L92.4781 21.8452L92.254 21.8771L92.1261 21.7493L91.8703 21.5254C91.8184 21.4705 91.7653 21.4173 91.7103 21.3656C91.6784 21.3656 91.6784 21.3016 91.5824 21.2696H91.4864C91.4064 21.2298 91.3195 21.208 91.2307 21.2056ZM83.6522 23.3481C83.7961 25.2258 84.3628 27.0466 85.3105 28.6746C86.257 30.3023 87.5594 31.6955 89.1195 32.7496L83.812 34.1565L82.4686 34.4763C81.3024 33.9722 80.3228 33.1148 79.6691 32.0249C79.0144 30.9348 78.7185 29.6674 78.8235 28.4004C79.0113 27.934 79.3213 27.5257 79.7189 27.2174C80.1658 26.8016 80.7095 26.418 81.1574 25.8424L83.6522 23.3481ZM48.4129 23.3481L52.9537 27.9208C53.2735 28.2728 53.3695 28.7524 53.2735 29.232V29.2958C53.1806 30.4104 52.7827 31.478 52.1221 32.3808C51.4624 33.2833 50.5659 33.9865 49.5313 34.4125C47.3575 33.9326 45.1833 33.357 43.0724 32.6855C44.5998 31.6331 45.87 30.2498 46.7888 28.6389C47.7073 27.0276 48.252 25.2302 48.381 23.38L48.4129 23.3481ZM69.0701 25.1389C68.3664 27.697 67.9506 30.2553 66.8002 32.3978C66.6083 32.6217 66.3204 32.7174 65.9686 32.7174C65.7995 32.7006 65.6356 32.6495 65.4868 32.567C65.3389 32.4842 65.2088 32.3725 65.1049 32.2378V32.2059C64.5612 31.5662 64.5293 30.5111 64.1135 29.3918C63.7285 28.0066 63.3878 26.6094 63.0899 25.2027C65.0089 25.9703 67.183 25.9703 69.0701 25.1389ZM70.7333 25.5226C71.404 26.418 72.2037 27.2493 73.2592 27.7611C74.1227 28.2407 75.0821 28.4645 76.0408 28.6246C74.1867 30.4473 72.5235 32.3978 70.4775 33.7409C69.7738 34.0286 68.8143 33.2292 69.006 32.4938V32.4297C69.3258 30.4151 69.9658 28.4004 70.5094 26.322L70.7333 25.5226ZM61.3319 25.5866C61.9715 28.0487 62.802 30.4151 63.0259 32.8134C62.994 33.5809 61.8115 34.0927 61.2359 33.6128C60.4681 33.0694 59.7965 32.3338 58.9968 31.5984C58.0082 30.6249 57.0487 29.6225 56.1192 28.5924C58.1663 28.2726 60.0845 27.2815 61.3319 25.5866ZM54.7759 29.8395C56.631 31.6303 58.5491 33.2611 59.9244 35.2757C60.2442 35.9154 59.5086 36.8746 58.8371 36.8427H58.8049C57.9422 36.8427 57.0468 36.459 55.9914 36.2671C54.5839 35.9473 53.2095 35.4677 51.8342 35.0519C53.4974 33.8047 54.4879 31.8542 54.7759 29.8395ZM77.1603 29.9036C77.4801 31.918 78.4396 33.8688 80.1658 35.0838C77.8 35.7234 75.4979 36.4909 73.1313 36.8746C72.9344 36.8438 72.7474 36.7706 72.5813 36.6603C72.4155 36.5498 72.2755 36.4049 72.1715 36.2349C71.9477 35.8832 71.9158 35.4677 72.0756 35.1478C72.7155 34.2524 73.579 33.453 74.4106 32.5576C75.2741 31.6303 76.2327 30.7668 77.1603 29.9036ZM65.4247 34.3165C65.8086 34.3803 66.1606 34.4444 66.5764 34.3803L66.0005 36.4909L65.4247 34.3165ZM63.7615 34.7961L64.3373 36.9386C63.7296 36.2671 63.154 35.8194 62.8661 35.3398C63.1859 35.2119 63.5057 35.02 63.7615 34.7961ZM68.2385 34.8602C68.5583 35.0838 68.91 35.1797 69.262 35.3398L67.5988 36.9386L68.2385 34.8602ZM61.5876 36.555C61.6195 36.555 61.6517 36.555 61.7477 36.6826C61.8755 36.8427 62.0353 37.1303 62.3551 37.3544L63.0259 37.9938C63.1218 38.0579 63.1218 38.1217 63.154 38.1536L62.898 38.1217H62.8339C62.1313 37.8019 61.4916 37.77 61.0439 37.578V37.482L61.1718 37.4182L61.2359 37.2904C61.4278 36.9705 61.4916 36.7148 61.5557 36.5869L61.5876 36.555ZM70.4454 36.6188C70.6054 36.9386 70.7652 37.2585 71.0531 37.578L68.8462 38.1217L70.4454 36.6188ZM71.4678 39.2409C71.3669 39.616 71.3449 40.0082 71.404 40.3921L69.2939 39.8165C70.0296 39.5927 70.7333 39.4007 71.4678 39.2409ZM60.5962 39.2409C61.3638 39.4329 62.0675 39.5927 62.706 39.8165C61.9393 40.0404 61.2037 40.2323 60.5641 40.2961L60.6281 40.1363V39.2409H60.5962ZM63.154 41.4154C62.5152 42.0231 62.0675 42.5987 61.5557 42.9504C61.4276 42.5987 61.2037 42.3108 60.948 41.9909L63.1859 41.4154H63.154ZM68.91 41.4473C69.55 41.6392 70.2534 41.8312 70.9571 41.959L71.0212 42.0231L70.9571 42.055C70.6692 42.3748 70.5413 42.6944 70.4135 43.0142L68.91 41.4473ZM64.3692 42.6306C64.1773 43.3981 63.9856 44.1335 63.6977 44.805C63.4098 44.5812 63.1218 44.4214 62.898 44.2935C62.8339 44.2935 62.8339 44.2294 62.802 44.1975L64.3692 42.6306ZM67.6948 42.6625L68.1425 43.1421L69.2301 44.2613L68.91 44.3895C68.6543 44.4852 68.3985 44.6131 68.1744 44.805L67.6948 42.6625ZM66.0005 43.1421V43.27C66.2244 44.0694 66.4482 44.6771 66.4163 45.1889C66.2563 45.1567 66.0965 45.1248 65.7767 45.1889C65.6166 45.1889 65.5207 45.2208 65.3928 45.2846L65.5847 44.5493C65.7126 44.0056 65.8086 43.5579 66.0005 43.1421ZM65.9686 46.8516C66.3204 46.9156 66.6402 47.1073 66.927 47.4271C67.183 47.747 67.4069 48.2266 67.5029 48.6743C67.9506 50.6248 68.5264 52.5116 69.006 54.4303C67.0871 53.5349 64.8491 53.6628 62.9299 54.4941C63.6336 52.032 64.0175 49.5378 65.073 47.3952C65.3928 47.0754 65.7126 46.8516 65.9686 46.8516ZM65.9686 62.0409C64.4383 62.0431 62.9211 62.325 61.4916 62.8722L60.852 63.128L61.1077 63.6398V63.7676C61.1077 63.8636 61.0758 64.0234 61.2997 64.2794C61.4278 64.4076 61.6517 64.5035 61.8436 64.5035C61.9715 64.5035 62.0675 64.4397 62.1313 64.4076C64.4284 63.5358 66.9531 63.4679 69.2939 64.2153L69.9336 64.4076L70.5732 64.3757C70.7652 64.7904 70.5732 64.0556 70.5732 63.7676C70.5732 63.7676 70.5732 63.1602 70.3816 62.9363C70.2534 62.7763 69.7416 62.6165 69.5819 62.5527C68.6224 62.2967 67.5988 62.1369 66.6083 62.0728V62.0409H65.9686Z" fill="white"/>
</svg>
