<svg width="132" height="88" viewBox="0 0 132 88" fill="none" xmlns="http://www.w3.org/2000/svg">
<circle cx="65.9996" cy="44.0016" r="36.025" fill="url(#paint0_linear_2056_27284)"/>
<path fill-rule="evenodd" clip-rule="evenodd" d="M66.0001 10.7422C84.3557 10.7422 99.2581 25.6446 99.2581 44.0001C99.2581 62.3557 84.3557 77.2581 66.0001 77.2581C47.6446 77.2581 32.7422 62.3557 32.7422 44.0001C32.7422 25.6446 47.6446 10.7422 66.0001 10.7422ZM72.0245 33.4279C70.8899 31.6973 69.2945 30.3755 67.0413 30.0835C64.5793 29.764 62.1376 30.8254 60.6938 32.8439L59.2147 34.9068L71.6928 56.3175C72.9677 58.1357 75.6301 58.2299 77.0861 56.8581C77.4021 56.5938 78.0247 55.9158 78.2417 55.5167L81.5167 49.5615L72.0245 33.4279ZM50.3135 29.2511C52.7959 29.18 55.1155 30.4863 56.346 32.6434L65.7081 48.8088L60.9376 55.3828C59.9241 56.6807 58.457 57.6035 57.0287 57.3394C55.8454 57.1776 54.9179 56.7831 54.0818 55.4779L44.68 39.3708C42.1034 34.954 45.2011 29.3897 50.3135 29.2511ZM82.2467 48.2405L87.2602 39.1112C89.7186 34.6232 86.4713 29.1449 81.3542 29.1449C78.8692 29.1449 76.589 30.5132 75.4168 32.7026L74.4106 34.5799L82.2467 48.2405Z" fill="#1B1D20"/>
<defs>
<linearGradient id="paint0_linear_2056_27284" x1="40.5905" y1="18.0604" x2="91.9408" y2="69.384" gradientUnits="userSpaceOnUse">
<stop stop-color="#9BBBF9"/>
<stop offset="0.526042" stop-color="#CE293A"/>
<stop offset="1" stop-color="#FBD88E"/>
</linearGradient>
</defs>
</svg>
