<svg width="132" height="88" viewBox="0 0 132 88" fill="none" xmlns="http://www.w3.org/2000/svg">
<path fill-rule="evenodd" clip-rule="evenodd" d="M29.4258 80.5758L65.9547 80.5295L102.484 80.4834L102.53 43.9546L102.576 7.42578H66.0007H29.4258V80.5758ZM44.0498 26.1055C43.5857 26.3357 43.0587 26.8026 42.7728 27.2364C42.0685 28.3056 42.1236 29.9429 42.9799 33.3937C43.3416 34.8521 44.989 41.5178 46.6404 48.2064C48.2919 54.895 49.8249 60.8612 50.0473 61.4647C51.0197 64.1041 53.5163 65.2713 56.1093 64.2986C58.1287 63.5412 58.5873 62.6038 60.5928 55.1332C61.808 50.6064 65.3042 37.756 65.6614 36.5025L65.9482 35.4967L66.8404 38.7885C68.4826 44.8476 69.1558 47.3489 70.6536 52.9611C72.6005 60.2562 73.2359 62.2057 73.9484 63.0701C75.0818 64.4451 77.0044 64.9661 78.9034 64.4126C79.7064 64.1787 80.0916 63.9263 80.725 63.2204C81.679 62.1565 81.9725 61.2827 83.6183 54.6069C89.6776 30.0272 89.6233 30.2573 89.6233 29.1836C89.6233 27.1095 88.1762 25.7127 86.0279 25.7134C84.6499 25.7138 83.8367 26.1344 83.2008 27.176C82.6528 28.0734 82.3186 29.3314 80.7949 36.2282C80.2392 38.7427 79.4094 42.4459 78.9508 44.4575C78.4922 46.4691 77.901 49.1255 77.637 50.3608C77.3731 51.5959 77.1022 52.5423 77.0349 52.4639C76.9676 52.3852 76.4395 50.5517 75.8614 48.3893C73.7809 40.6082 71.0308 30.5354 70.6636 29.3517C70.2207 27.924 69.1264 26.5632 68.014 26.0565C67.0749 25.6289 64.8989 25.5967 63.9423 25.9963C63.1827 26.3136 61.9924 27.3916 61.6223 28.0979C61.1767 28.9481 60.4729 31.3955 57.9811 40.7593C56.6221 45.8664 55.3735 50.557 55.2064 51.183C55.0391 51.809 54.8492 52.3841 54.7844 52.4611C54.7195 52.5381 54.4077 51.4272 54.0918 49.9923C53.7757 48.5575 52.8138 44.2563 51.9542 40.4343C51.0947 36.6123 50.2216 32.7034 50.0141 31.7479C49.4841 29.3078 48.8298 27.3119 48.3663 26.721C47.5398 25.6677 45.5142 25.3788 44.0498 26.1055Z" fill="url(#paint0_linear_2056_27318)"/>
<defs>
<linearGradient id="paint0_linear_2056_27318" x1="29.4258" y1="39.9771" x2="98.7441" y2="39.9771" gradientUnits="userSpaceOnUse">
<stop stop-color="#30B8CE"/>
<stop offset="1" stop-color="#4AC8BA"/>
</linearGradient>
</defs>
</svg>
