<svg width="132" height="88" viewBox="0 0 132 88" fill="none" xmlns="http://www.w3.org/2000/svg">
<path d="M35.2797 12.0378C34.8813 12.3476 34.3059 13.1001 33.996 13.6313C33.2435 15.0478 33.2435 72.7258 33.996 74.3637C34.2616 74.9833 35.0141 75.7358 35.6339 76.0016C37.2274 76.7541 94.7728 76.7541 96.3661 76.0016C96.9857 75.7358 97.7382 74.9833 98.004 74.3637C98.7565 72.77 98.7565 15.2249 98.004 13.6313C97.7382 13.0116 96.9857 12.2591 96.3661 11.9935C94.6841 11.1967 36.2978 11.2853 35.2797 12.0378ZM93.8874 71.885H38.1127V16.1102H93.8874V71.885Z" fill="#3C3939"/>
<path d="M78.483 33.9935C77.2878 34.6575 76.2254 36.7823 76.2254 38.5086C76.2254 38.9955 75.6942 39.6152 75.0745 39.8809C73.5695 40.5891 73.5695 41.6515 75.0302 41.6515H76.1811L76.4468 54.0016L77.9518 54.1343L79.5011 54.2671V41.6515H81.3604C82.9978 41.6515 83.2195 41.5629 83.2195 40.5006C83.2195 39.4824 82.9978 39.3497 81.3604 39.3497C79.7224 39.3497 79.5011 39.2169 79.5011 38.2873C79.5011 36.7823 80.342 36.074 82.157 36.074C83.3078 36.074 83.7949 35.8527 84.1045 35.0559C84.3704 34.2591 84.2816 33.905 83.7062 33.6836C82.4224 33.1525 79.7667 33.3295 78.483 33.9935Z" fill="#3C3939"/>
<path d="M47.8955 35.233C47.8955 35.5429 48.9136 39.8366 50.1973 44.7943C51.481 49.7521 52.5433 53.913 52.5433 54.0458C52.5433 54.1786 53.2959 54.2229 54.2697 54.1344L55.9961 54.0016L58.0766 46.6092C59.8914 40.1907 60.2455 39.394 60.5554 40.5449C60.7768 41.2974 61.7063 44.6173 62.6359 47.9372L64.3623 54.0016L66.1329 54.1344C67.0625 54.2229 67.8593 54.2229 67.8593 54.1344C67.8593 54.0458 69.0102 49.6635 70.3824 44.3517L72.9055 34.7018H71.3119C69.5413 34.7018 69.8512 34.0378 67.5051 43.6434C66.2214 48.8668 65.5574 50.7259 65.5574 48.8225C65.5574 48.3356 64.7164 45.0157 63.6983 41.4301C62.6359 37.8446 61.8391 34.8789 61.8391 34.8346C61.8391 34.7461 61.0866 34.7018 60.2013 34.7018C58.6963 34.7018 58.5635 34.8346 58.0323 36.6937C57.7667 37.7561 56.8371 41.1646 55.9961 44.2189C55.155 47.3175 54.4025 49.6193 54.4025 49.3537C54.3583 49.0881 53.5615 45.7239 52.5876 41.9171L50.8613 34.9231L49.3562 34.7903C48.4267 34.7018 47.8955 34.8346 47.8955 35.233Z" fill="#3C3939"/>
</svg>
