<svg width="132" height="88" viewBox="0 0 132 88" fill="none" xmlns="http://www.w3.org/2000/svg">
<path d="M30.8008 17.6008C30.8008 12.7407 34.7407 8.80078 39.6008 8.80078H92.4008C97.261 8.80078 101.201 12.7407 101.201 17.6008V70.4008C101.201 75.261 97.261 79.2008 92.4008 79.2008H39.6008C34.7407 79.2008 30.8008 75.261 30.8008 70.4008V17.6008Z" fill="#4353FF"/>
<path d="M78.4793 38.2986C78.4793 38.2986 74.9065 49.4922 74.6424 50.4426C74.5368 49.5098 71.932 29.393 71.932 29.393C65.8424 29.393 62.604 33.7226 60.8792 38.2986C60.8792 38.2986 56.532 49.5274 56.18 50.4602C56.1624 49.5802 55.5112 38.4042 55.5112 38.4042C55.1416 32.7898 50.02 29.393 45.8664 29.393L50.8648 59.8588C57.236 59.8412 60.668 55.5292 62.4632 50.9354C62.4632 50.9354 66.2824 41.0266 66.4408 40.5866C66.476 41.009 69.1864 59.8588 69.1864 59.8588C75.5753 59.8588 79.0249 55.8284 80.8729 51.4106L89.8313 29.393C83.5129 29.393 80.1865 33.705 78.4793 38.2986Z" fill="white"/>
</svg>
