<svg width="132" height="88" viewBox="0 0 132 88" fill="none" xmlns="http://www.w3.org/2000/svg">
<mask id="mask0_2056_23797" style="mask-type:alpha" maskUnits="userSpaceOnUse" x="31" y="9" width="70" height="70">
<path d="M73.8696 9.89844H58.1312C43.6443 9.89844 31.9004 21.6424 31.9004 36.1292V51.8677C31.9004 66.3545 43.6443 78.0984 58.1312 78.0984H73.8696C88.3565 78.0984 100.1 66.3545 100.1 51.8677V36.1292C100.1 21.6424 88.3565 9.89844 73.8696 9.89844Z" fill="#C4C4C4"/>
</mask>
<g mask="url(#mask0_2056_23797)">
<path d="M104.298 1.5H28.7529V52.9123H104.298V1.5Z" fill="#4EC9FF"/>
<path d="M64.9507 46.0937C76.7021 27.2075 95.7281 19.688 103.772 18.2891L108.494 22.486L110.068 47.6675L103.772 74.9475L93.2799 86.4891L71.2461 88.5875C64.2512 82.2921 53.1993 64.9798 64.9507 46.0937Z" fill="#4990FB"/>
<path d="M67.0498 41.369C58.656 32.9751 40.1195 24.5813 31.9006 21.4336L24.556 22.4828L16.1621 54.4844L29.2775 80.7151C44.4913 82.289 75.1289 83.3382 75.9683 74.9444C77.0175 64.4521 77.5421 51.8613 67.0498 41.369Z" fill="#92DAFF"/>
</g>
</svg>
