<svg width="132" height="88" viewBox="0 0 132 88" fill="none" xmlns="http://www.w3.org/2000/svg">
<path d="M107.837 52.344C106.705 51.2607 106.139 49.9313 106.139 48.3556C106.139 46.7799 106.705 45.4504 107.837 44.3671C108.97 43.2838 110.324 42.7422 111.9 42.7422C113.525 42.7422 114.903 43.2838 116.036 44.3671C117.218 45.4012 117.809 46.7306 117.809 48.3556C117.809 49.9805 117.218 51.3346 116.036 52.4179C114.903 53.4519 113.525 53.969 111.9 53.969C110.324 53.969 108.97 53.4273 107.837 52.344Z" fill="black"/>
<path d="M79.4406 18.7386V23.3918C80.327 21.7176 81.7549 20.4128 83.7245 19.4772C85.7434 18.4924 87.91 18 90.2242 18C94.8528 18 98.8167 19.6742 102.116 23.0225C105.415 26.3708 107.064 30.6794 107.064 35.9481C107.064 41.3152 105.415 45.673 102.116 49.0213C98.8659 52.3204 94.9021 53.97 90.2242 53.97C87.91 53.97 85.7434 53.5022 83.7245 52.5666C81.7549 51.6311 80.327 50.3262 79.4406 48.652V69.9977H70.4297V18.7386H79.4406ZM79.5884 36.0958C79.5884 38.9517 80.4747 41.2168 82.2473 42.8909C84.0692 44.5651 86.2358 45.4022 88.747 45.4022C91.3075 45.4022 93.4495 44.5405 95.1729 42.8171C96.9455 41.0937 97.8319 38.8532 97.8319 36.0958C97.8319 33.3383 96.9455 31.0733 95.1729 29.3006C93.4002 27.528 91.2583 26.6417 88.747 26.6417C86.1865 26.6417 84.02 27.528 82.2473 29.3006C80.4747 31.024 79.5884 33.2891 79.5884 36.0958Z" fill="black"/>
<path d="M69.3651 18.7344L57.0304 53.2271H49.4966L41.8152 30.1089L34.3553 53.2271H26.8954L14.1914 18.7344H23.7932L30.81 40.5232L37.7528 18.7344H45.7298L52.7465 40.5232L59.7632 18.7344H69.3651Z" fill="black"/>
</svg>
