<svg width="132" height="88" viewBox="0 0 132 88" fill="none" xmlns="http://www.w3.org/2000/svg">
<path fill-rule="evenodd" clip-rule="evenodd" d="M92.2109 70.7967L108.117 21.742C109.365 17.8959 107.26 13.7567 103.421 12.508C99.5832 11.2594 95.4528 13.367 94.2067 17.2131L78.301 66.266C77.0531 70.1122 79.1581 74.2515 82.9961 75.5C86.8341 76.7506 90.9649 74.6429 92.2109 70.7967Z" fill="url(#paint0_linear_2056_27906)"/>
<path fill-rule="evenodd" clip-rule="evenodd" d="M92.2109 70.7967L108.117 21.742C109.365 17.8959 107.26 13.7567 103.421 12.508C99.5832 11.2594 95.4528 13.367 94.2067 17.2131L78.301 66.266C77.0531 70.1122 79.1581 74.2515 82.9961 75.5C86.8341 76.7506 90.9649 74.6429 92.2109 70.7967Z" fill="url(#paint1_linear_2056_27906)"/>
<path fill-rule="evenodd" clip-rule="evenodd" d="M92.2109 70.7967L108.117 21.742C109.365 17.8959 107.26 13.7567 103.421 12.508C99.5832 11.2594 95.4528 13.367 94.2067 17.2131L78.301 66.266C77.0531 70.1122 79.1581 74.2515 82.9961 75.5C86.8341 76.7506 90.9649 74.6429 92.2109 70.7967Z" fill="url(#paint2_linear_2056_27906)" fill-opacity="0.8"/>
<path fill-rule="evenodd" clip-rule="evenodd" d="M92.2109 70.7967L108.117 21.742C109.365 17.8959 107.26 13.7567 103.421 12.508C99.5832 11.2594 95.4528 13.367 94.2067 17.2131L78.301 66.266C77.0531 70.1122 79.1581 74.2515 82.9961 75.5C86.8341 76.7506 90.9649 74.6429 92.2109 70.7967Z" fill="url(#paint3_radial_2056_27906)"/>
<path fill-rule="evenodd" clip-rule="evenodd" d="M92.2109 70.7967L108.117 21.742C109.365 17.8959 107.26 13.7567 103.421 12.508C99.5832 11.2594 95.4528 13.367 94.2067 17.2131L78.301 66.266C77.0531 70.1122 79.1581 74.2515 82.9961 75.5C86.8341 76.7506 90.9649 74.6429 92.2109 70.7967Z" fill="url(#paint4_radial_2056_27906)"/>
<path fill-rule="evenodd" clip-rule="evenodd" d="M92.2109 70.7967L108.117 21.742C109.365 17.8959 107.26 13.7567 103.421 12.508C99.5832 11.2594 95.4528 13.367 94.2067 17.2131L78.301 66.266C77.0531 70.1122 79.1581 74.2515 82.9961 75.5C86.8341 76.7506 90.9649 74.6429 92.2109 70.7967Z" fill="url(#paint5_radial_2056_27906)"/>
<path fill-rule="evenodd" clip-rule="evenodd" d="M65.998 41.7196C67.8032 41.7196 69.1342 42.7789 70.2693 44.1075C71.5302 45.5862 72.5375 47.4191 73.3928 49.3654C77.2381 58.1021 77.9583 69.0318 77.9583 69.0318C78.2341 73.0673 81.7281 76.1174 85.7548 75.841C89.7818 75.5646 92.8255 72.0615 92.5498 68.0281C92.5498 68.0281 91.5831 54.3766 86.7751 43.4506C82.6519 34.0812 75.6701 27.0625 65.9998 27.0625C56.3295 27.0625 49.3479 34.0812 45.2247 43.4506C40.4146 54.3766 39.45 68.0281 39.45 68.0281C39.1741 72.0633 42.2179 75.5646 46.2448 75.841C50.2717 76.1174 53.7654 73.0673 54.0413 69.0318C54.0413 69.0318 54.7616 58.1039 58.6069 49.3654C59.4625 47.4209 60.4694 45.5862 61.7304 44.1075C62.8636 42.7789 64.1946 41.7196 65.998 41.7196Z" fill="#E63CFE"/>
<path fill-rule="evenodd" clip-rule="evenodd" d="M65.998 41.7196C67.8032 41.7196 69.1342 42.7789 70.2693 44.1075C71.5302 45.5862 72.5375 47.4191 73.3928 49.3654C77.2381 58.1021 77.9583 69.0318 77.9583 69.0318C78.2341 73.0673 81.7281 76.1174 85.7548 75.841C89.7818 75.5646 92.8255 72.0615 92.5498 68.0281C92.5498 68.0281 91.5831 54.3766 86.7751 43.4506C82.6519 34.0812 75.6701 27.0625 65.9998 27.0625C56.3295 27.0625 49.3479 34.0812 45.2247 43.4506C40.4146 54.3766 39.45 68.0281 39.45 68.0281C39.1741 72.0633 42.2179 75.5646 46.2448 75.841C50.2717 76.1174 53.7654 73.0673 54.0413 69.0318C54.0413 69.0318 54.7616 58.1039 58.6069 49.3654C59.4625 47.4209 60.4694 45.5862 61.7304 44.1075C62.8636 42.7789 64.1946 41.7196 65.998 41.7196Z" fill="url(#paint6_radial_2056_27906)"/>
<path fill-rule="evenodd" clip-rule="evenodd" d="M65.998 41.7196C67.8032 41.7196 69.1342 42.7789 70.2693 44.1075C71.5302 45.5862 72.5375 47.4191 73.3928 49.3654C77.2381 58.1021 77.9583 69.0318 77.9583 69.0318C78.2341 73.0673 81.7281 76.1174 85.7548 75.841C89.7818 75.5646 92.8255 72.0615 92.5498 68.0281C92.5498 68.0281 91.5831 54.3766 86.7751 43.4506C82.6519 34.0812 75.6701 27.0625 65.9998 27.0625C56.3295 27.0625 49.3479 34.0812 45.2247 43.4506C40.4146 54.3766 39.45 68.0281 39.45 68.0281C39.1741 72.0633 42.2179 75.5646 46.2448 75.841C50.2717 76.1174 53.7654 73.0673 54.0413 69.0318C54.0413 69.0318 54.7616 58.1039 58.6069 49.3654C59.4625 47.4209 60.4694 45.5862 61.7304 44.1075C62.8636 42.7789 64.1946 41.7196 65.998 41.7196Z" fill="url(#paint7_radial_2056_27906)"/>
<path fill-rule="evenodd" clip-rule="evenodd" d="M65.998 41.7196C67.8032 41.7196 69.1342 42.7789 70.2693 44.1075C71.5302 45.5862 72.5375 47.4191 73.3928 49.3654C77.2381 58.1021 77.9583 69.0318 77.9583 69.0318C78.2341 73.0673 81.7281 76.1174 85.7548 75.841C89.7818 75.5646 92.8255 72.0615 92.5498 68.0281C92.5498 68.0281 91.5831 54.3766 86.7751 43.4506C82.6519 34.0812 75.6701 27.0625 65.9998 27.0625C56.3295 27.0625 49.3479 34.0812 45.2247 43.4506C40.4146 54.3766 39.45 68.0281 39.45 68.0281C39.1741 72.0633 42.2179 75.5646 46.2448 75.841C50.2717 76.1174 53.7654 73.0673 54.0413 69.0318C54.0413 69.0318 54.7616 58.1039 58.6069 49.3654C59.4625 47.4209 60.4694 45.5862 61.7304 44.1075C62.8636 42.7789 64.1946 41.7196 65.998 41.7196Z" fill="url(#paint8_radial_2056_27906)"/>
<path fill-rule="evenodd" clip-rule="evenodd" d="M65.998 41.7196C67.8032 41.7196 69.1342 42.7789 70.2693 44.1075C71.5302 45.5862 72.5375 47.4191 73.3928 49.3654C77.2381 58.1021 77.9583 69.0318 77.9583 69.0318C78.2341 73.0673 81.7281 76.1174 85.7548 75.841C89.7818 75.5646 92.8255 72.0615 92.5498 68.0281C92.5498 68.0281 91.5831 54.3766 86.7751 43.4506C82.6519 34.0812 75.6701 27.0625 65.9998 27.0625C56.3295 27.0625 49.3479 34.0812 45.2247 43.4506C40.4146 54.3766 39.45 68.0281 39.45 68.0281C39.1741 72.0633 42.2179 75.5646 46.2448 75.841C50.2717 76.1174 53.7654 73.0673 54.0413 69.0318C54.0413 69.0318 54.7616 58.1039 58.6069 49.3654C59.4625 47.4209 60.4694 45.5862 61.7304 44.1075C62.8636 42.7789 64.1946 41.7196 65.998 41.7196Z" fill="url(#paint9_radial_2056_27906)"/>
<path fill-rule="evenodd" clip-rule="evenodd" d="M65.998 41.7196C67.8032 41.7196 69.1342 42.7789 70.2693 44.1075C71.5302 45.5862 72.5375 47.4191 73.3928 49.3654C77.2381 58.1021 77.9583 69.0318 77.9583 69.0318C78.2341 73.0673 81.7281 76.1174 85.7548 75.841C89.7818 75.5646 92.8255 72.0615 92.5498 68.0281C92.5498 68.0281 91.5831 54.3766 86.7751 43.4506C82.6519 34.0812 75.6701 27.0625 65.9998 27.0625C56.3295 27.0625 49.3479 34.0812 45.2247 43.4506C40.4146 54.3766 39.45 68.0281 39.45 68.0281C39.1741 72.0633 42.2179 75.5646 46.2448 75.841C50.2717 76.1174 53.7654 73.0673 54.0413 69.0318C54.0413 69.0318 54.7616 58.1039 58.6069 49.3654C59.4625 47.4209 60.4694 45.5862 61.7304 44.1075C62.8636 42.7789 64.1946 41.7196 65.998 41.7196Z" fill="url(#paint10_radial_2056_27906)"/>
<path fill-rule="evenodd" clip-rule="evenodd" d="M65.998 41.7196C67.8032 41.7196 69.1342 42.7789 70.2693 44.1075C71.5302 45.5862 72.5375 47.4191 73.3928 49.3654C77.2381 58.1021 77.9583 69.0318 77.9583 69.0318C78.2341 73.0673 81.7281 76.1174 85.7548 75.841C89.7818 75.5646 92.8255 72.0615 92.5498 68.0281C92.5498 68.0281 91.5831 54.3766 86.7751 43.4506C82.6519 34.0812 75.6701 27.0625 65.9998 27.0625C56.3295 27.0625 49.3479 34.0812 45.2247 43.4506C40.4146 54.3766 39.45 68.0281 39.45 68.0281C39.1741 72.0633 42.2179 75.5646 46.2448 75.841C50.2717 76.1174 53.7654 73.0673 54.0413 69.0318C54.0413 69.0318 54.7616 58.1039 58.6069 49.3654C59.4625 47.4209 60.4694 45.5862 61.7304 44.1075C62.8636 42.7789 64.1946 41.7196 65.998 41.7196Z" fill="url(#paint11_radial_2056_27906)"/>
<path fill-rule="evenodd" clip-rule="evenodd" d="M65.998 41.7196C67.8032 41.7196 69.1342 42.7789 70.2693 44.1075C71.5302 45.5862 72.5375 47.4191 73.3928 49.3654C77.2381 58.1021 77.9583 69.0318 77.9583 69.0318C78.2341 73.0673 81.7281 76.1174 85.7548 75.841C89.7818 75.5646 92.8255 72.0615 92.5498 68.0281C92.5498 68.0281 91.5831 54.3766 86.7751 43.4506C82.6519 34.0812 75.6701 27.0625 65.9998 27.0625C56.3295 27.0625 49.3479 34.0812 45.2247 43.4506C40.4146 54.3766 39.45 68.0281 39.45 68.0281C39.1741 72.0633 42.2179 75.5646 46.2448 75.841C50.2717 76.1174 53.7654 73.0673 54.0413 69.0318C54.0413 69.0318 54.7616 58.1039 58.6069 49.3654C59.4625 47.4209 60.4694 45.5862 61.7304 44.1075C62.8636 42.7789 64.1946 41.7196 65.998 41.7196Z" fill="url(#paint12_radial_2056_27906)"/>
<path fill-rule="evenodd" clip-rule="evenodd" d="M65.998 41.7196C67.8032 41.7196 69.1342 42.7789 70.2693 44.1075C71.5302 45.5862 72.5375 47.4191 73.3928 49.3654C77.2381 58.1021 77.9583 69.0318 77.9583 69.0318C78.2341 73.0673 81.7281 76.1174 85.7548 75.841C89.7818 75.5646 92.8255 72.0615 92.5498 68.0281C92.5498 68.0281 91.5831 54.3766 86.7751 43.4506C82.6519 34.0812 75.6701 27.0625 65.9998 27.0625C56.3295 27.0625 49.3479 34.0812 45.2247 43.4506C40.4146 54.3766 39.45 68.0281 39.45 68.0281C39.1741 72.0633 42.2179 75.5646 46.2448 75.841C50.2717 76.1174 53.7654 73.0673 54.0413 69.0318C54.0413 69.0318 54.7616 58.1039 58.6069 49.3654C59.4625 47.4209 60.4694 45.5862 61.7304 44.1075C62.8636 42.7789 64.1946 41.7196 65.998 41.7196Z" fill="url(#paint13_radial_2056_27906)"/>
<path fill-rule="evenodd" clip-rule="evenodd" d="M53.6998 66.2647L37.7939 17.2099C36.5479 13.3638 32.4192 11.2543 28.5792 12.5048C24.7412 13.7553 22.6361 17.8927 23.8839 21.7388L39.7898 70.7936C41.0377 74.6398 45.1664 76.7493 49.0045 75.4987C52.8426 74.2481 54.9476 70.1109 53.6998 66.2647Z" fill="url(#paint14_linear_2056_27906)"/>
<path fill-rule="evenodd" clip-rule="evenodd" d="M53.6998 66.2647L37.7939 17.2099C36.5479 13.3638 32.4192 11.2543 28.5792 12.5048C24.7412 13.7553 22.6361 17.8927 23.8839 21.7388L39.7898 70.7936C41.0377 74.6398 45.1664 76.7493 49.0045 75.4987C52.8426 74.2481 54.9476 70.1109 53.6998 66.2647Z" fill="url(#paint15_radial_2056_27906)"/>
<path fill-rule="evenodd" clip-rule="evenodd" d="M53.6998 66.2647L37.7939 17.2099C36.5479 13.3638 32.4192 11.2543 28.5792 12.5048C24.7412 13.7553 22.6361 17.8927 23.8839 21.7388L39.7898 70.7936C41.0377 74.6398 45.1664 76.7493 49.0045 75.4987C52.8426 74.2481 54.9476 70.1109 53.6998 66.2647Z" fill="url(#paint16_linear_2056_27906)"/>
<path fill-rule="evenodd" clip-rule="evenodd" d="M53.6998 66.2647L37.7939 17.2099C36.5479 13.3638 32.4192 11.2543 28.5792 12.5048C24.7412 13.7553 22.6361 17.8927 23.8839 21.7388L39.7898 70.7936C41.0377 74.6398 45.1664 76.7493 49.0045 75.4987C52.8426 74.2481 54.9476 70.1109 53.6998 66.2647Z" fill="url(#paint17_radial_2056_27906)"/>
<path fill-rule="evenodd" clip-rule="evenodd" d="M53.6998 66.2647L37.7939 17.2099C36.5479 13.3638 32.4192 11.2543 28.5792 12.5048C24.7412 13.7553 22.6361 17.8927 23.8839 21.7388L39.7898 70.7936C41.0377 74.6398 45.1664 76.7493 49.0045 75.4987C52.8426 74.2481 54.9476 70.1109 53.6998 66.2647Z" fill="url(#paint18_radial_2056_27906)"/>
<defs>
<linearGradient id="paint0_linear_2056_27906" x1="116.624" y1="-3.92331" x2="92.8062" y2="73.0941" gradientUnits="userSpaceOnUse">
<stop stop-color="#4A4EFA"/>
<stop offset="0.548576" stop-color="#E63CFE"/>
</linearGradient>
<linearGradient id="paint1_linear_2056_27906" x1="86.7094" y1="40.4747" x2="100.202" y2="44.8424" gradientUnits="userSpaceOnUse">
<stop offset="0.160046" stop-color="#4A4EFA"/>
<stop offset="0.946031" stop-color="#4A4EFA" stop-opacity="0"/>
</linearGradient>
<linearGradient id="paint2_linear_2056_27906" x1="88.754" y1="33.9988" x2="97.2319" y2="36.7104" gradientUnits="userSpaceOnUse">
<stop stop-color="#39FBBB"/>
<stop offset="1" stop-color="#39FBBB" stop-opacity="0"/>
</linearGradient>
<radialGradient id="paint3_radial_2056_27906" cx="0" cy="0" r="1" gradientUnits="userSpaceOnUse" gradientTransform="translate(85.6214 51.9374) rotate(-64.165) scale(44.2072 44.2072)">
<stop offset="0.832168" stop-color="#4A4EFA" stop-opacity="0"/>
<stop offset="1" stop-color="#4A4EFA" stop-opacity="0.75"/>
</radialGradient>
<radialGradient id="paint4_radial_2056_27906" cx="0" cy="0" r="1" gradientUnits="userSpaceOnUse" gradientTransform="translate(84.7643 49.0193) scale(9.85589 21.0779)">
<stop offset="0.169047" stop-color="#11417A"/>
<stop offset="0.926198" stop-color="#4069D4" stop-opacity="0"/>
</radialGradient>
<radialGradient id="paint5_radial_2056_27906" cx="0" cy="0" r="1" gradientUnits="userSpaceOnUse" gradientTransform="translate(96.1724 75.8605) rotate(-90) scale(32.5994 15.6237)">
<stop offset="0.34895" stop-color="#E63CFE"/>
<stop offset="1" stop-color="#E63CFE" stop-opacity="0"/>
</radialGradient>
<radialGradient id="paint6_radial_2056_27906" cx="0" cy="0" r="1" gradientUnits="userSpaceOnUse" gradientTransform="translate(63.521 52.7917) rotate(-85.7675) scale(33.587 29.8229)">
<stop stop-color="#39FBBB" stop-opacity="0.5"/>
<stop offset="0.688731" stop-color="#39FBBB"/>
<stop offset="1" stop-color="#39FBBB" stop-opacity="0"/>
</radialGradient>
<radialGradient id="paint7_radial_2056_27906" cx="0" cy="0" r="1" gradientUnits="userSpaceOnUse" gradientTransform="translate(111.375 71.7017) rotate(-122.629) scale(80.5202 19.5893)">
<stop stop-color="#E63CFE"/>
<stop offset="1" stop-color="#E63CFE" stop-opacity="0"/>
</radialGradient>
<radialGradient id="paint8_radial_2056_27906" cx="0" cy="0" r="1" gradientUnits="userSpaceOnUse" gradientTransform="translate(64.8557 63.1582) rotate(-85.0198) scale(36.2323 31.1674)">
<stop offset="0.556793" stop-color="#4A4EFA"/>
<stop offset="0.934777" stop-color="#4A4EFA" stop-opacity="0"/>
</radialGradient>
<radialGradient id="paint9_radial_2056_27906" cx="0" cy="0" r="1" gradientUnits="userSpaceOnUse" gradientTransform="translate(55.0307 74.1243) rotate(-68.6367) scale(37.8385 22.5809)">
<stop offset="0.61345" stop-color="#E63CFE"/>
<stop offset="1" stop-color="#E63CFE" stop-opacity="0"/>
</radialGradient>
<radialGradient id="paint10_radial_2056_27906" cx="0" cy="0" r="1" gradientUnits="userSpaceOnUse" gradientTransform="translate(91.6417 48.4998) rotate(176.233) scale(46.9812 118.768)">
<stop offset="0.813918" stop-color="#4A98D0" stop-opacity="0"/>
<stop offset="0.972647" stop-color="#11417A"/>
</radialGradient>
<radialGradient id="paint11_radial_2056_27906" cx="0" cy="0" r="1" gradientUnits="userSpaceOnUse" gradientTransform="translate(52.209 75.8583) rotate(-90) scale(33.671 27.9377)">
<stop offset="0.457769" stop-color="#FFAE3C"/>
<stop offset="1" stop-color="#FFAE3C" stop-opacity="0"/>
</radialGradient>
<radialGradient id="paint12_radial_2056_27906" cx="0" cy="0" r="1" gradientUnits="userSpaceOnUse" gradientTransform="translate(93.0385 75.8583) rotate(-90) scale(30.3497 30.3497)">
<stop offset="0.191715" stop-color="#E63CFE"/>
<stop offset="1" stop-color="#E63CFE" stop-opacity="0"/>
</radialGradient>
<radialGradient id="paint13_radial_2056_27906" cx="0" cy="0" r="1" gradientUnits="userSpaceOnUse" gradientTransform="translate(75.2332 75.8583) rotate(-90) scale(22.838 10.8485)">
<stop offset="0.173611" stop-color="#FFAE3C"/>
<stop offset="1" stop-color="#FFAE3C" stop-opacity="0"/>
</radialGradient>
<linearGradient id="paint14_linear_2056_27906" x1="21.0253" y1="15.2062" x2="41.5615" y2="79.0973" gradientUnits="userSpaceOnUse">
<stop offset="0.169527" stop-color="#E63CFE"/>
<stop offset="0.708644" stop-color="#FFAE3C"/>
</linearGradient>
<radialGradient id="paint15_radial_2056_27906" cx="0" cy="0" r="1" gradientUnits="userSpaceOnUse" gradientTransform="translate(37.8369 31.6181) rotate(161.042) scale(10.2461 50.0325)">
<stop offset="0.120383" stop-color="#4A4EFA"/>
<stop offset="1" stop-color="#4A4EFA" stop-opacity="0"/>
</radialGradient>
<linearGradient id="paint16_linear_2056_27906" x1="46.8482" y1="45.068" x2="43.9723" y2="46.0094" gradientUnits="userSpaceOnUse">
<stop stop-color="#E63CFE" stop-opacity="0.33"/>
<stop offset="1" stop-color="#E63CFE" stop-opacity="0"/>
</linearGradient>
<radialGradient id="paint17_radial_2056_27906" cx="0" cy="0" r="1" gradientUnits="userSpaceOnUse" gradientTransform="translate(54.0592 75.8591) rotate(-90) scale(32.9192 35.962)">
<stop offset="0.465389" stop-color="#FFAE3C"/>
<stop offset="0.92565" stop-color="#FFAE3C" stop-opacity="0"/>
</radialGradient>
<radialGradient id="paint18_radial_2056_27906" cx="0" cy="0" r="1" gradientUnits="userSpaceOnUse" gradientTransform="translate(54.0592 75.8591) rotate(-90) scale(72.0287 72.0287)">
<stop offset="0.843756" stop-color="#E63CFE" stop-opacity="0"/>
<stop offset="1" stop-color="#E63CFE"/>
</radialGradient>
</defs>
</svg>
