<svg width="132" height="88" viewBox="0 0 132 88" fill="none" xmlns="http://www.w3.org/2000/svg">
<path fill-rule="evenodd" clip-rule="evenodd" d="M29.4258 44.0008C29.4258 64.1618 45.7855 80.5514 65.9465 80.5213C86.1338 80.4913 102.492 64.1337 102.522 43.9464C102.551 23.7854 86.1618 7.42578 66.0008 7.42578C45.801 7.42578 29.4258 23.801 29.4258 44.0008ZM29.5307 44.1077C29.5307 64.2236 29.5558 72.4847 29.5867 62.4657C29.6176 52.4467 29.6176 35.9882 29.5867 25.8913C29.5558 15.7944 29.5307 23.9918 29.5307 44.1077ZM49.2253 28.4674C47.2438 29.1768 45.9171 30.2843 45.0515 31.9521C44.6233 32.7768 44.5508 33.2234 44.5622 34.9641C44.5711 36.3167 44.8118 37.6577 45.2737 38.929L47.859 46.044C49.6648 51.0138 51.3346 55.4602 51.5697 55.9249C52.278 57.325 53.9726 58.9446 55.4414 59.6251C56.6403 60.1806 56.9945 60.2419 58.9212 60.229C60.6519 60.2174 61.2689 60.123 62.1138 59.7402C63.5504 59.0899 64.6727 58.1561 65.3937 57.0118C65.7273 56.4823 66.057 56.0488 66.1265 56.0486C66.1962 56.0484 66.3549 56.2659 66.4796 56.5322C66.983 57.6077 68.3173 58.85 69.705 59.5352C71.0377 60.1933 71.2917 60.2435 73.2891 60.2435C75.2092 60.2435 75.5828 60.1768 76.7882 59.6185C78.3816 58.8805 79.9728 57.2558 80.7592 55.5637C81.2026 54.6097 86.8083 39.3644 87.5346 37.1373C87.9141 35.974 87.8244 33.8267 87.3424 32.5347C86.7295 30.8919 85.6488 29.7286 83.961 28.8954C82.6435 28.2448 82.3603 28.1871 80.4842 28.1871C78.6868 28.1871 78.2968 28.2585 77.2316 28.7831C75.854 29.4616 74.471 30.857 73.7968 32.249C73.6091 32.6365 73.0583 32.6396 72.8662 32.2543L72.8386 32.1989C72.0256 30.5679 71.1283 29.6555 69.59 28.896C68.2879 28.2529 67.9743 28.1871 66.2192 28.1871C64.8222 28.1871 63.9859 28.3024 63.2121 28.6017C61.8367 29.1337 60.1073 30.7761 59.4573 32.1675L59.4478 32.1878C59.2492 32.6132 58.645 32.6149 58.4439 32.1907C57.7738 30.7766 56.4022 29.4281 54.9528 28.7581C53.3641 28.0238 50.8247 27.8949 49.2253 28.4674ZM50.2116 33.0896C49.1302 33.8198 48.8267 34.5997 49.1051 35.9314C49.3583 37.1418 54.9015 52.318 55.5633 53.6123C56.5695 55.5809 58.6252 56.3674 60.6006 55.5396C61.9208 54.9864 62.332 54.1867 64.2094 48.5229C65.1908 45.5621 66.045 43.1396 66.1076 43.1396C66.1702 43.1396 66.9798 45.439 67.9065 48.2492C68.8332 51.0596 69.7843 53.7104 70.0199 54.1403C71.0566 56.0318 74.0847 56.4371 75.7276 54.9042C76.5014 54.1827 76.7968 53.4875 79.9168 45.0444C83.4327 35.5302 83.4445 35.4899 83.0382 34.4194C82.6008 33.2669 81.8041 32.7488 80.3216 32.6535C78.8968 32.5616 77.9157 33.0296 77.4128 34.0403C77.2483 34.371 76.2609 37.3785 75.2188 40.7237C74.1767 44.069 73.2532 46.7314 73.1668 46.6402C73.0805 46.5489 72.1178 43.7151 71.0277 40.3427C69.1974 34.6814 68.9821 34.1472 68.2201 33.3792C67.4009 32.5534 67.3848 32.5481 65.9729 32.6382C63.7014 32.7832 63.565 33.0033 61.1833 40.3619C60.0953 43.7237 59.1342 46.5489 59.048 46.6402C58.9616 46.7314 58.0381 44.069 56.996 40.7237C55.9539 37.3785 54.9665 34.371 54.8019 34.0403C54.09 32.6094 51.6664 32.1074 50.2116 33.0896Z" fill="#3374FF"/>
</svg>
