<svg width="132" height="88" viewBox="0 0 132 88" fill="none" xmlns="http://www.w3.org/2000/svg">
<path d="M30.1459 53.1669C29.4011 50.2335 29 47.1625 29 44C29 23.5692 45.5692 7 66 7C86.4309 7 103 23.5692 103 44C103 64.4309 86.4309 81 66 81C50.737 81 37.6398 71.7643 31.9793 58.5639L33.6178 58.1744C35.3481 57.7045 36.8033 57.5441 37.8232 57.4754C40.4014 57.3034 43.415 57.0513 45.4661 58.9306C46.0619 59.4805 46.4057 60.0307 47.0245 61.0274C48.7662 63.8235 48.3766 64.935 49.8204 67.2151C50.6111 68.4641 51.4131 69.7247 52.9945 70.3892C55.5267 71.4435 58.0017 70.1372 58.2195 70.011C59.6748 69.209 60.3393 68.0403 61.3478 66.2411C62.1956 64.7172 62.5968 63.5485 63.7657 59.8358C65.3354 54.8628 65.6447 53.7398 66.1375 53.7513C66.5386 53.7627 66.7562 54.5191 68.2917 59.3546C69.174 62.116 69.6323 63.514 70.6637 64.6829C71.145 65.2213 72.0387 66.2182 73.5742 66.7339C73.9063 66.8485 75.9117 67.4901 77.9398 66.5735C79.9795 65.6569 80.9192 63.7432 81.5493 61.8868C82.1108 60.214 82.4316 58.7702 82.9473 54.7825C83.7952 48.2168 84.185 46.4292 84.6204 44.8249C85.6515 41.0092 86.5684 39.7144 87.1526 39.0041C87.7141 38.3279 89.1922 36.5404 91.6789 35.7154C95.208 34.5581 98.2561 34.8902 99.276 34.7986C100.147 34.7185 100.513 33.6871 100.513 32.106C100.513 30.3984 99.5051 29.161 99.001 29.1495C96.3998 29.0694 92.882 28.9203 90.3037 29.7913C85.8119 31.3037 83.2797 34.1915 82.7411 34.8331C80.8047 37.1361 80.0369 39.405 79.1888 41.9374C77.4702 47.0366 77.2066 51.0242 77.0461 52.3878C76.5878 56.0889 76.3129 56.868 75.9805 59.1255C75.9117 59.6067 75.7513 60.6953 75.4076 60.7295C75.0981 60.764 74.7773 59.9162 74.6054 59.4692C73.0242 55.2408 72.6231 53.2127 71.397 51.1043C70.7668 50.0157 70.1022 48.9272 68.7616 48.1251C68.2 47.7928 66.2979 46.7845 64.1781 47.4377C62.5509 47.9418 61.6802 49.145 60.855 50.3023C59.8352 51.723 59.3998 53.0981 58.5633 55.8023C57.8758 58.0369 57.83 58.6785 57.0738 60.8441C56.2373 63.262 55.7445 64.6371 55.1258 64.6255C54.4839 64.6142 54.3235 63.09 53.1778 60.5004C52.3985 58.7357 51.184 55.9627 48.8235 54.0835C47.2995 52.869 45.8328 52.445 44.3546 52.0211C38.9805 50.474 34.0991 51.9293 31.8647 52.594C31.1313 52.8116 30.5355 53.0178 30.1459 53.1669Z" fill="#7F46D8"/>
</svg>
