<svg width="132" height="88" viewBox="0 0 132 88" fill="none" xmlns="http://www.w3.org/2000/svg">
<path d="M34.0156 24.0099C34.0156 17.3857 39.3861 12.0156 46.0099 12.0156H85.9911C92.6158 12.0156 97.9852 17.3857 97.9852 24.0099V63.9911C97.9852 70.6158 92.6158 75.9852 85.9911 75.9852H46.0099C39.3861 75.9852 34.0156 70.6158 34.0156 63.9911V24.0099Z" fill="white"/>
<path d="M52.9509 55.9949C51.9274 55.9949 51.2555 55.9201 50.9357 55.771C50.6159 55.622 50.392 55.366 50.2642 55.0035L43.1955 35.4925C43.1955 35.0875 43.9521 34.6183 45.4665 34.0854C47.0016 33.5521 48.5471 33.2857 50.1041 33.2857C52.1083 33.2857 53.1748 33.9146 53.3026 35.1727L54.3903 45.312H54.838L55.7336 35.1727C55.8395 33.9146 57.2789 33.2857 60.0514 33.2857C61.117 33.2857 61.8318 33.435 62.1945 33.7334C62.5564 34.0106 62.7593 34.3837 62.8022 34.8529L63.8577 45.312H64.3054L65.137 35.1727C65.2011 34.5545 65.9257 34.0854 67.312 33.7655C68.7194 33.4457 70.1049 33.2857 71.47 33.2857C72.8554 33.2857 73.794 33.4883 74.2849 33.8934C74.7966 34.2985 75.0524 34.725 75.0524 35.1727L68.2076 55.0035C67.9728 55.6643 66.3946 55.9949 63.4738 55.9949C62.5993 55.9949 62.0127 55.9201 61.7146 55.771C61.416 55.622 61.213 55.366 61.1071 55.0035L59.4437 49.4381H59.06L57.3647 55.0035C57.173 55.6643 55.7015 55.9949 52.9509 55.9949Z" fill="#2F74EB"/>
<path d="M87.8344 53.1159C87.8344 55.7389 87.2376 57.7007 86.0433 59.0012C84.8707 60.3019 83.2496 60.9523 81.1816 60.9523C79.1136 60.9523 77.7801 60.7496 77.1834 60.3446C76.6078 59.9607 76.3199 59.076 76.3199 57.69C76.3199 56.3254 76.5866 55.6107 77.1196 55.5469C77.8662 55.4402 78.3879 55.2483 78.6868 54.9711C79.0066 54.6941 79.1664 54.1824 79.1664 53.4357V40.0342C79.1664 39.565 79.7631 39.1066 80.9577 38.6589C82.173 38.1897 83.4844 37.9552 84.8919 37.9552C86.8537 37.9552 87.8344 38.4565 87.8344 39.4586V53.1159ZM87.9942 33.8291C87.9942 35.8121 86.502 36.8037 83.5163 36.8037C80.5309 36.8037 79.0385 35.8335 79.0385 33.8931C79.0385 32.8055 79.4334 32.0594 80.2221 31.6541C81.0325 31.249 82.1521 31.0466 83.5804 31.0466C85.0088 31.0466 86.0961 31.2383 86.8427 31.6222C87.6105 31.9846 87.9942 32.7203 87.9942 33.8291Z" fill="#2F74EB"/>
</svg>
