<svg width="132" height="88" viewBox="0 0 132 88" fill="none" xmlns="http://www.w3.org/2000/svg">
<path fill-rule="evenodd" clip-rule="evenodd" d="M5.87038 38.5449C5.27438 36.1629 4.84379 35.2154 4.125 34.1867V34.1325H8.41555V34.1867C8.0259 35.0258 7.88179 36.6501 8.37462 38.6803L11.023 49.6434L14.2051 39.1134L14.0405 38.5449C13.384 36.1629 13.0139 35.2154 12.296 34.1867V34.1325H16.5865V34.1867C16.2583 34.9719 15.9914 36.6501 16.5456 38.6803L19.4199 49.4269L21.7596 40.0067C22.5193 36.8937 22.1501 35.0531 21.7187 34.1867V34.1325H24.4293V34.1867C23.4641 35.5131 22.9712 36.7853 22.417 39.1134L18.7011 54.1642H18.2901L14.4106 39.8983L10.1405 54.1642H9.7295L5.87038 38.5449ZM25.6144 54.0157V53.9613C26.1482 52.3316 26.4151 51.218 26.4151 49.4253V38.723C26.4151 36.903 26.1482 35.8439 25.6144 34.1869V34.1325H35.0968L35.8975 38.9677L35.7329 39.0491C34.6458 37.528 33.1673 34.8117 32.2643 34.73L28.7957 34.54V43.7212H30.5616C31.5668 43.7212 32.3879 41.9015 33.1059 40.8693H33.2909V47.0078H33.1059C32.4493 46.0572 31.5463 44.2645 30.5607 44.2645H28.7957V53.6085L32.4493 53.4182C34.1325 53.3368 35.7124 50.6475 36.8618 48.5561L37.0264 48.6377L36.1234 54.0157H25.6144ZM42.1798 34.6758C41.9948 34.6758 41.7279 34.703 41.3988 34.73V45.3237H42.6735C45.3875 45.3237 46.4977 42.5804 46.4977 39.674C46.4977 35.7625 44.7915 34.6758 42.7144 34.6758H42.1798ZM39.0344 49.0992V39.0491C39.0344 36.8488 38.8698 35.8439 38.2115 34.1872V34.1325H43.064C47.567 34.1325 48.8826 36.713 48.8826 39.6196C48.8826 43.2321 46.7859 45.867 42.7562 45.867H41.3988V49.0992C41.3988 51.3538 41.5429 52.2774 42.2216 53.9613V54.0157H38.2115V53.9613C38.8698 52.3046 39.0344 51.2994 39.0344 49.0992ZM54.2439 34.6758C53.9762 34.6758 53.6471 34.6758 53.2567 34.703V43.884H54.8613C57.432 43.884 58.1116 41.5479 58.1116 38.8588C58.1116 36.3872 57.3912 34.6758 54.8613 34.6758H54.2439ZM50.8914 49.0992V39.0491C50.8914 36.8488 50.7269 35.8439 50.0686 34.1872V34.1325H55.3141C59.0368 34.1325 60.5178 36.0339 60.5178 38.886C60.5178 41.1677 59.5919 43.042 57.5352 43.911L59.9832 50.24C60.8469 52.5219 61.2997 53.1194 62.369 53.8257V54.0157H58.7485L55.0464 44.4273H53.2567V49.0989C53.2567 51.3538 53.4008 52.2772 54.0795 53.9613V54.0157H50.0686V53.9613C50.7269 52.3044 50.8914 51.2994 50.8914 49.0992ZM63.4066 54.0157V53.9613C63.9405 52.3316 64.2072 51.218 64.2072 49.4253V38.723C64.2072 36.903 63.9405 35.8439 63.4066 34.1869V34.1325H72.889L73.6896 38.9677L73.5252 39.0491C72.4371 37.528 70.9594 34.8117 70.0565 34.73L66.5878 34.54V43.7212H68.3529C69.3591 43.7212 70.1801 41.9015 70.898 40.8693H71.0831V47.0078H70.898C70.2416 46.0572 69.3387 44.2645 68.3529 44.2645H66.5878V53.6085L70.2416 53.4182C71.9246 53.3368 73.5045 50.6475 74.654 48.5561L74.8185 48.6377L73.9148 54.0157H63.4066ZM84.7358 39.4528C83.2905 35.4467 81.927 34.2289 80.4606 34.2289C79.0571 34.2289 78.2095 35.4197 78.2095 37.2603C78.2095 39.8317 79.9448 40.9143 81.7821 42.0781C83.8268 43.3775 85.9339 44.7851 85.9339 48.5472C85.9339 52.607 83.4345 54.3125 80.5228 54.3125C79.1185 54.3125 77.6528 53.9336 76.269 53.2568L75.8554 48.2495L76.0208 48.1681C77.6111 52.0661 79.2217 53.7713 81.1008 53.7713C82.9801 53.7713 83.8892 52.0391 83.8892 50.0629C83.8892 47.4915 82.4021 46.1924 80.6882 45.1097C78.5405 43.7292 76.3722 42.3758 76.3722 38.8574C76.3722 35.122 78.6641 33.6875 81.1426 33.6875C82.3817 33.6875 83.5378 34.0122 84.509 34.4722L84.9216 39.3714L84.7358 39.4528ZM87.564 54.0157V53.9613C88.0977 52.3316 88.3647 51.218 88.3647 49.4253V38.723C88.3647 36.903 88.0977 35.8439 87.564 34.1869V34.1325H97.0465L97.8462 38.9677L97.6824 39.0491C96.5944 37.528 95.1169 34.8117 94.214 34.73L90.7453 34.54V43.7212H92.5104C93.5163 43.7212 94.3367 41.9015 95.0555 40.8693H95.2396V47.0078H95.0555C94.3989 46.0572 93.4959 44.2645 92.5104 44.2645H90.7453V53.6085L94.3989 53.4182C96.0811 53.3368 97.662 50.6475 98.8115 48.5561L98.976 48.6377L98.0721 54.0157H87.564ZM101.507 48.5512C101.507 50.986 101.773 51.987 102.919 53.8804V53.9346H99.7682V53.8804C100.791 52.014 101.016 50.959 101.016 48.5512V37.947C100.914 36.1615 100.566 35.4042 99.4203 34.1867V34.1325H102.694L111.269 49.5252L111.208 39.5159C111.208 37.1083 110.942 36.0534 109.96 34.1867V34.1325H112.907V34.1867C111.924 36.0803 111.658 37.0813 111.658 39.5159V53.9346L110.922 54.0157L101.426 36.9732L101.507 48.5512ZM118.838 54.0157V53.9613C119.493 52.3046 119.657 51.2996 119.657 49.0994V34.5944L117.423 34.703C116.522 34.7844 115.005 37.8269 113.96 39.8096L113.796 39.7282L114.574 34.1325H127.096L127.875 39.7282L127.711 39.8096C126.604 37.8269 125.17 34.7844 124.248 34.703L122.014 34.5944V49.0994C122.014 51.3538 122.158 52.2774 122.834 53.9613V54.0157H118.838Z" fill="#0EF275"/>
</svg>
