<svg width="132" height="88" viewBox="0 0 132 88" fill="none" xmlns="http://www.w3.org/2000/svg">
<path d="M115.429 14H21.106L11 74L28.7503 55.4989H109.08C111.801 55.4989 113.874 53.5717 114.522 51.1306V51.0021L120.87 20.6809V20.5525C121 20.167 121 19.9101 121 19.5246C121 16.4411 118.538 14 115.429 14Z" fill="#DD1F26"/>
<path d="M27.066 43.8073L30.0459 26.7195H27.066L27.9729 21.4519H49.8693L48.1849 30.4455H43.2615L43.7797 26.5911H36.1355L34.9694 32.8866H42.6137L41.7067 38.1542H34.0624L33.1555 43.6789H36.7833L35.8763 48.9465H23.3086L24.2156 43.6789L27.066 43.8073Z" fill="white"/>
<path d="M58.1614 29.0321C63.9918 29.0321 66.9718 32.501 66.9718 37.5117C66.9718 43.9357 62.1779 49.5888 54.5336 49.5888C48.8328 49.5888 45.7233 46.1199 45.7233 41.1091C45.7233 34.4282 51.0354 29.0321 58.1614 29.0321ZM57.6432 34.0428C53.7562 34.0428 51.5537 36.9978 51.4241 40.3383C51.2945 42.5224 52.4606 44.4496 55.311 44.4496C58.6797 44.4496 60.7527 42.137 61.4005 39.4389C62.0483 36.2269 60.6231 34.0428 57.6432 34.0428Z" fill="white"/>
<path d="M75.5228 49.0749H70.0811L72.5429 34.2998H69.822L70.5994 29.546H78.3732V31.6017C80.4463 29.803 82.7784 29.4176 84.3332 29.4176C89.6453 29.4176 92.2366 31.8587 91.0705 38.7966L90.4227 42.2655C89.9045 44.4497 91.8479 44.4497 93.4027 44.0642L92.7549 48.6895C91.7184 49.2034 90.1636 49.3319 88.868 49.3319C84.0741 49.3319 84.3332 45.349 84.981 42.0086L85.6288 38.7966C86.0175 36.7409 86.1471 34.4283 82.5193 34.4283C79.7984 34.4283 77.7254 36.227 77.2072 39.182L75.5228 49.0749Z" fill="white"/>
<path d="M105.323 24.407L104.416 29.8031H109.469L108.691 34.5569H103.638L102.343 42.1372C101.954 44.4498 104.027 45.0922 106.489 44.1928L107.007 48.6896C104.934 49.332 103.898 49.4605 102.213 49.4605C98.715 49.4605 96.1237 47.4048 97.0307 42.1372L98.3263 34.5569H94.9577L95.735 29.8031H99.1037L99.8811 25.0494L105.323 24.407Z" fill="white"/>
</svg>
