<svg width="132" height="88" viewBox="0 0 132 88" fill="none" xmlns="http://www.w3.org/2000/svg">
<path d="M99.9634 31.5981C99.644 30.7263 99.2181 30.0357 98.6887 29.5264C98.1564 29.0171 97.5291 28.761 96.8097 28.761C96.0904 28.761 95.535 29.0171 95.1524 29.5264C94.7697 30.0357 94.2373 30.9507 93.5583 32.2657L90.6262 38.1931C91.3484 34.6251 91.8693 31.9578 92.1886 30.194C92.508 28.4301 92.6663 27.1036 92.6663 26.2116C92.6663 25.5757 92.5397 24.937 92.2836 24.3011C92.0275 23.6652 91.688 23.081 91.265 22.5487C90.8391 22.0193 90.3414 21.5301 89.7659 21.2107C89.1933 20.8942 88.589 20.6698 87.9531 20.6698H87.9502C87.6539 20.6698 87.3776 20.7763 87.1244 20.8597C86.8683 20.946 86.5921 21.1676 86.2957 21.4639C85.9994 21.7603 85.6685 22.2351 85.3088 22.8509C84.9463 23.4666 84.5118 24.2924 84.0025 25.3139L80.0518 33.221C80.3482 30.6284 80.6158 28.4646 80.8488 26.7209C81.0819 24.9801 81.2718 23.5127 81.4214 22.3243C81.5711 21.1359 81.6775 20.1576 81.7408 19.3922C81.8041 18.6268 81.8358 17.9276 81.8358 17.2889C81.8358 16.2271 81.666 15.2488 81.3265 14.3568C80.987 13.4648 80.541 12.6994 79.9885 12.0635C79.436 11.4247 78.8404 10.9269 78.2045 10.5644C77.5686 10.2047 76.973 10.0234 76.4205 10.0234C75.9515 10.0234 75.5602 10.0982 75.2408 10.2479C74.9214 10.3975 74.6049 10.6737 74.2855 11.0766C73.9661 11.4823 73.6496 12.075 73.3302 12.8605C73.0108 13.6461 72.6396 14.6762 72.2138 15.9509L66.7324 33.1605L67.305 20.031C67.3481 18.8426 67.21 17.7262 66.8906 16.6846C66.5712 15.643 66.1454 14.751 65.6159 14.0086C65.0836 13.2663 64.4794 12.6821 63.8003 12.2563C63.1212 11.8333 62.4393 11.6204 61.7602 11.6204C61.1243 11.6204 60.5057 11.8448 59.9129 12.2908C59.3173 12.7368 58.7016 13.6518 58.0657 15.033C57.4298 16.4141 56.7478 18.411 56.0256 21.0237C55.3034 23.6364 54.4948 27.1094 53.6028 31.4456C52.9669 34.5906 52.4346 37.2234 52.0087 39.3498C51.5829 41.4762 51.1254 43.1739 50.6391 44.4486C50.1499 45.7232 49.5658 46.6354 48.8868 47.1878C48.2077 47.7403 47.2927 48.0165 46.1446 48.0165C45.1663 48.0165 44.1592 47.8784 43.1176 47.6022C42.076 47.3259 41.089 46.9749 40.1539 46.549C39.2187 46.1232 38.39 45.6369 37.6678 45.0845C36.9456 44.532 36.3931 43.9795 36.0104 43.4271C37.0722 43.0444 38.3037 42.8545 39.7079 42.8545C40.8128 42.8545 41.8861 42.9293 42.9277 43.0789C43.9693 43.2285 44.7663 43.3005 45.3188 43.3005C46.1245 43.3005 46.5302 42.9178 46.5302 42.1524C46.5302 41.6863 46.3403 41.1654 45.9576 40.59C45.5749 40.0174 45.0109 39.4735 44.2686 38.9642C43.5233 38.4549 42.6112 38.0291 41.5264 37.6896C40.4416 37.35 39.1986 37.1803 37.7973 37.1803C35.6306 37.1803 33.9733 37.7011 32.8252 38.7427C31.6771 39.7843 31.1045 41.0475 31.1045 42.5351C31.1045 43.8961 31.4872 45.1391 32.2526 46.2642C33.018 47.3892 34.0481 48.3676 35.3429 49.1963C36.6377 50.0249 38.1483 50.6724 39.869 51.1414C41.5897 51.6075 43.4053 51.8434 45.3188 51.8434C46.933 51.8434 48.3142 51.5672 49.4623 51.0148C50.6103 50.4623 51.5656 49.7286 52.331 48.8164C53.0964 47.9014 53.7237 46.8512 54.2099 45.6628C54.6991 44.4744 55.0904 43.24 55.3897 41.9654L57.3664 32.2772C57.7894 30.3666 58.1721 28.6776 58.5145 27.2101C58.8541 25.7455 59.1619 24.4593 59.4382 23.3544C59.7144 22.2495 59.9676 21.2827 60.2036 20.454C60.4366 19.6253 60.6582 18.9146 60.874 18.319C61.1301 18.6585 61.2567 19.7433 61.2567 21.5704C61.2567 23.3976 61.1819 25.5959 61.0351 27.9122C60.8855 30.2285 60.8107 32.5966 60.8107 35.0193C60.8107 36.1243 60.9373 37.1544 61.1934 38.1097C61.4495 39.065 61.7775 39.8936 62.1803 40.5957C62.5832 41.2978 63.0723 41.8503 63.6449 42.2531C64.2175 42.6588 64.8246 42.8574 65.4606 42.8574C66.3094 42.8574 66.9482 42.4977 67.374 41.7726C67.797 41.0504 68.3092 39.839 68.9048 38.1384L75.5976 17.6802C75.7242 18.0197 75.7875 18.552 75.7875 19.2743C75.7875 20.2526 75.6926 21.5042 75.4998 23.035C75.3099 24.5658 75.1056 26.2865 74.8955 28.197C74.6826 29.8976 74.5128 31.2989 74.3862 32.4038C74.2596 33.5087 74.1618 34.4237 74.0985 35.1459C74.0352 35.8682 73.992 36.4321 73.9719 36.835C73.9489 37.2407 73.9402 37.5889 73.9402 37.8852C73.9402 39.4994 74.2596 40.9036 74.8955 42.092C75.5314 43.2832 76.2968 43.8759 77.1888 43.8759C77.7413 43.8759 78.2304 43.6515 78.6534 43.2055C79.0764 42.7595 79.5454 42.0488 80.0547 41.0705L87.0007 27.1123C87.0007 27.6216 86.9058 28.4503 86.713 29.5983C86.5231 30.7464 86.3101 32.0412 86.0771 33.4857C85.844 34.9301 85.6196 36.3976 85.4066 37.8823C85.1937 39.37 85.0872 40.7079 85.0872 41.8992C85.0872 42.7509 85.2052 43.5048 85.4383 44.1608C85.6714 44.8197 85.9591 45.3607 86.2986 45.7865C86.6382 46.2095 87.0208 46.5289 87.4467 46.7418C87.8697 46.9548 88.2524 47.0612 88.5948 47.0612C89.1904 47.0612 89.7112 46.7217 90.1572 46.0426C90.6032 45.3636 91.1873 44.3219 91.9095 42.9207L96.1796 34.3173C96.053 37.2493 95.7739 40.2562 95.3509 43.335C94.925 46.4167 94.3208 49.4121 93.5353 52.3211C92.7497 55.2301 91.7714 57.9924 90.6032 60.608C89.435 63.2207 88.0423 65.5053 86.4281 67.4591C84.8139 69.4128 82.9551 70.9637 80.8517 72.1118C78.7483 73.2599 76.4004 73.8325 73.8079 73.8325C73.1288 73.8325 72.5015 73.8095 71.9289 73.7692C71.3563 73.726 70.7722 73.6426 70.1766 73.5131C69.581 73.3865 68.9451 73.2052 68.2631 72.9721C67.5841 72.7391 66.8388 72.4513 66.0332 72.1118C65.6505 71.942 65.2908 71.9104 64.9484 72.0168C64.6088 72.1233 64.4391 72.4715 64.4391 73.0671C64.4391 74.5979 65.2908 75.7977 66.9884 76.6696C68.689 77.5386 70.8758 77.9759 73.5518 77.9759C76.7399 77.9759 79.6288 77.4033 82.2214 76.2552C84.8139 75.1072 87.1187 73.5678 89.1357 71.6342C91.1528 69.7005 92.9051 67.4274 94.3927 64.8147C95.8803 62.2021 97.1003 59.4167 98.0585 56.4645C99.0138 53.5095 99.7245 50.4824 100.194 47.3806C100.66 44.2788 100.896 41.2403 100.896 38.265C100.896 36.9904 100.821 35.779 100.671 34.6309C100.522 33.4828 100.289 32.4757 99.9691 31.6039L99.9634 31.5981Z" fill="#00A9FF"/>
</svg>
