<svg width="132" height="88" viewBox="0 0 132 88" fill="none" xmlns="http://www.w3.org/2000/svg">
<path fill-rule="evenodd" clip-rule="evenodd" d="M54.4559 19.7905C53.7523 19.0869 52.6115 19.0869 51.9077 19.7905L28.9741 42.7242C28.2705 43.4277 28.2705 44.5688 28.9741 45.2724L51.9077 68.2059C52.6115 68.9097 53.7523 68.9097 54.4559 68.2059L77.3897 45.2724C78.0932 44.5688 78.0932 43.4277 77.3897 42.7242L54.4559 19.7905ZM55.73 10.8719C54.3226 9.46458 52.041 9.46458 50.6338 10.8719L20.0555 41.45C18.6482 42.8575 18.6482 45.1391 20.0555 46.5465L50.6338 77.1248C52.041 78.5319 54.3226 78.5319 55.73 77.1248L86.3083 46.5465C87.7154 45.1391 87.7154 42.8575 86.3083 41.45L55.73 10.8719Z" fill="#9187F6"/>
<mask id="mask0_2172_6181" style="mask-type:alpha" maskUnits="userSpaceOnUse" x="19" y="9" width="69" height="70">
<path fill-rule="evenodd" clip-rule="evenodd" d="M54.4559 19.7944C53.7523 19.0908 52.6115 19.0908 51.9077 19.7944L28.9741 42.7281C28.2705 43.4316 28.2705 44.5727 28.9741 45.2763L51.9077 68.2098C52.6115 68.9137 53.7523 68.9137 54.4559 68.2098L77.3897 45.2763C78.0932 44.5727 78.0932 43.4316 77.3897 42.7281L54.4559 19.7944ZM55.73 10.8758C54.3226 9.46848 52.041 9.46848 50.6338 10.8758L20.0555 41.4539C18.6482 42.8614 18.6482 45.143 20.0555 46.5504L50.6338 77.1287C52.041 78.5359 54.3226 78.5359 55.73 77.1287L86.3083 46.5504C87.7154 45.143 87.7154 42.8614 86.3083 41.4539L55.73 10.8758Z" fill="white"/>
</mask>
<g mask="url(#mask0_2172_6181)">
<g filter="url(#filter0_d_2172_6181)">
<path d="M76.2686 10.8758C77.6757 9.46848 79.9574 9.46848 81.3648 10.8758L111.943 41.4539C113.35 42.8614 113.35 45.143 111.943 46.5504L81.3648 77.1287C79.9574 78.5359 77.6757 78.5359 76.2686 77.1287L45.6903 46.5504C44.2829 45.143 44.2829 42.8614 45.6903 41.4539L76.2686 10.8758Z" fill="black" fill-opacity="0.01"/>
</g>
</g>
<path d="M76.2705 10.8719C77.6777 9.46458 79.9593 9.46458 81.3667 10.8719L111.945 41.45C113.352 42.8575 113.352 45.1391 111.945 46.5465L81.3667 77.1248C79.9593 78.5319 77.6777 78.5319 76.2705 77.1248L45.6922 46.5465C44.2849 45.1391 44.2849 42.8575 45.6922 41.45L76.2705 10.8719Z" fill="#8313DD"/>
<defs>
<filter id="filter0_d_2172_6181" x="28.1542" y="-6.66025" width="101.324" height="101.324" filterUnits="userSpaceOnUse" color-interpolation-filters="sRGB">
<feFlood flood-opacity="0" result="BackgroundImageFix"/>
<feColorMatrix in="SourceAlpha" type="matrix" values="0 0 0 0 0 0 0 0 0 0 0 0 0 0 0 0 0 0 127 0" result="hardAlpha"/>
<feOffset/>
<feGaussianBlur stdDeviation="8.24028"/>
<feColorMatrix type="matrix" values="0 0 0 0 0 0 0 0 0 0 0 0 0 0 0 0 0 0 0.6 0"/>
<feBlend mode="normal" in2="BackgroundImageFix" result="effect1_dropShadow_2172_6181"/>
<feBlend mode="normal" in="SourceGraphic" in2="effect1_dropShadow_2172_6181" result="shape"/>
</filter>
</defs>
</svg>
