<svg width="132" height="88" viewBox="0 0 132 88" fill="none" xmlns="http://www.w3.org/2000/svg">
<path d="M30 17.642C30 12.8691 33.8838 9 38.6747 9H75.1084C79.8993 9 83.7831 12.8691 83.7831 17.642V53.9383C83.7831 58.7111 79.8993 62.5802 75.1084 62.5802H38.6747C33.8838 62.5802 30 58.7111 30 53.9383V17.642Z" fill="#663399"/>
<path d="M48.2169 34.0617C48.2169 29.2889 52.1007 25.4198 56.8916 25.4198H93.3253C98.1162 25.4198 102 29.2889 102 34.0617V70.358C102 75.1309 98.1162 79 93.3253 79H56.8916C52.1007 79 48.2169 75.1309 48.2169 70.358V34.0617Z" fill="#F1F4F5"/>
</svg>
