<svg width="132" height="88" viewBox="0 0 132 88" fill="none" xmlns="http://www.w3.org/2000/svg">
<mask id="mask0_2056_24222" style="mask-type:luminance" maskUnits="userSpaceOnUse" x="24" y="27" width="84" height="34">
<path d="M24.0918 27.7734H107.907V60.2234H24.0918V27.7734Z" fill="white"/>
</mask>
<g mask="url(#mask0_2056_24222)">
<path d="M107.905 27.7734H103.275C102.642 27.7733 102.019 27.9282 101.46 28.2244C100.902 28.5207 100.424 28.9494 100.069 29.473L93.877 38.6067C93.8389 38.6627 93.7877 38.7086 93.7277 38.7403C93.6678 38.772 93.6011 38.7886 93.5333 38.7886C93.4655 38.7886 93.3987 38.772 93.3388 38.7403C93.2789 38.7086 93.2276 38.6627 93.1895 38.6067L86.9982 29.473C86.6433 28.9493 86.1655 28.5206 85.6066 28.2243C85.0477 27.928 84.4248 27.7732 83.7922 27.7734H79.1625L90.1919 44.0441L79.2233 60.2234H83.853C84.4856 60.2236 85.1085 60.0687 85.6674 59.7724C86.2263 59.4762 86.7041 59.0475 87.059 58.5239L93.1895 49.4805C93.2276 49.4244 93.2789 49.3785 93.3388 49.3468C93.3987 49.3151 93.4655 49.2985 93.5333 49.2985C93.6011 49.2985 93.6678 49.3151 93.7277 49.3468C93.7877 49.3785 93.8389 49.4244 93.877 49.4805L100.008 58.5239C100.362 59.0476 100.84 59.4763 101.399 59.7726C101.958 60.0689 102.581 60.2237 103.214 60.2234H107.844L96.8746 44.0441L107.905 27.7734ZM69.6374 31.0925V60.2234H71.8501C72.286 60.2235 72.7177 60.1377 73.1205 59.9709C73.5233 59.8041 73.8892 59.5596 74.1975 59.2513C74.5058 58.9431 74.7503 58.5771 74.9171 58.1743C75.0839 57.7715 75.1697 57.3398 75.1696 56.9039V27.7734H72.9569C72.521 27.7734 72.0894 27.8592 71.6866 28.0259C71.2839 28.1927 70.918 28.4372 70.6097 28.7454C70.3014 29.0536 70.0569 29.4195 69.8901 29.8222C69.7233 30.2249 69.6374 30.6566 69.6374 31.0925ZM65.5822 27.7734H63.6123C62.56 27.7733 61.5387 28.1308 60.7162 28.7873C59.8937 29.4438 59.3187 30.3603 59.0856 31.3865L54.681 50.7511L50.825 32.6744C50.1116 29.3336 46.6836 27.0803 43.1759 28.0493C40.9415 28.6663 39.285 30.554 38.8018 32.8204L34.9854 50.7267L30.5884 31.3876C30.3547 30.3613 29.7795 29.4448 28.9569 28.7882C28.1343 28.1316 27.1131 27.7738 26.0606 27.7734H24.0918L31.4716 60.2219H34.2679C36.8051 60.2219 38.9975 58.4478 39.5268 55.9664L44.2448 33.8274C44.3026 33.5526 44.549 33.3538 44.8294 33.3538C45.1093 33.3538 45.3557 33.5526 45.414 33.8274L50.1355 55.9679C50.3924 57.1721 51.055 58.2515 52.0123 59.0258C52.9696 59.8001 54.1636 60.2223 55.3949 60.2219H58.2003L65.5822 27.7734Z" fill="black"/>
</g>
</svg>
