<svg width="132" height="88" viewBox="0 0 132 88" fill="none" xmlns="http://www.w3.org/2000/svg">
<path fill-rule="evenodd" clip-rule="evenodd" d="M33.8457 17.875H98.1534V70.125H33.8457V17.875ZM37.8649 21.8942V25.9135H41.8842V21.8942H37.8649ZM45.9034 21.8942V25.9135H49.9226V21.8942H45.9034ZM90.1149 25.9135H53.9419V21.8942H90.1149V25.9135ZM37.8649 66.1058V29.9327H94.1342V66.1058H37.8649Z" fill="#EE5E2F"/>
<path d="M57.9617 33.9531H41.8848V46.0108H57.9617V33.9531Z" fill="#F6BE9A"/>
<path d="M90.1151 33.9531H61.9805V37.9724H90.1151V33.9531Z" fill="#F6BE9A"/>
<path d="M90.1151 50.0273H61.9805V54.0466H90.1151V50.0273Z" fill="#F6BE9A"/>
<path d="M78.0574 41.9883H61.9805V46.0075H78.0574V41.9883Z" fill="#F6BE9A"/>
<path d="M86.0959 58.0664H61.9805V62.0856H86.0959V58.0664Z" fill="#F6BE9A"/>
<path d="M57.9617 58.0664H41.8848V62.0856H57.9617V58.0664Z" fill="#F6BE9A"/>
<path d="M53.9425 50.0273H41.8848V54.0466H53.9425V50.0273Z" fill="#F6BE9A"/>
</svg>
