<svg width="132" height="88" viewBox="0 0 132 88" fill="none" xmlns="http://www.w3.org/2000/svg">
<path fill-rule="evenodd" clip-rule="evenodd" d="M12.0445 23.8198C12.1594 24.2641 14.3045 33.7104 16.811 44.8122L21.3687 64.9977L23.7975 64.9986C27.928 65.0009 30.6083 63.2665 31.6401 59.9246C32.0963 58.4472 33.4118 52.3663 36.6301 36.8544C37.7967 31.2327 38.7352 28.9593 39.2842 30.428C39.4194 30.7906 40.9593 37.7754 42.7062 45.95C44.9413 56.4114 46.1645 61.211 46.8363 62.1573C48.1477 64.0061 50.4642 65 53.4609 65C55.7779 65 56.0092 64.904 56.2773 63.8336C57.3413 59.579 65.2815 24.1252 65.2815 23.6283C65.2815 23.1992 64.6032 23.0123 63.0444 23.0123C60.561 23.0123 58.7994 24.0638 57.7579 26.1674C57.4236 26.8429 55.9329 32.8462 54.4458 39.5075C52.9583 46.1692 51.6198 51.6193 51.4708 51.6193C51.3218 51.6193 50.0854 46.2938 48.7224 39.7848C46.1677 27.5807 45.643 26.1272 43.114 24.2479C41.2357 22.8513 37.4012 22.6718 35.0598 23.8705C32.0429 25.4148 31.4314 26.9379 28.6932 39.7313C27.3206 46.1429 26.1977 51.5787 26.1973 51.8117C26.1954 53.2993 25.4261 50.3472 22.967 39.4184C21.4363 32.6164 19.878 26.4571 19.5041 25.7314C18.607 23.9905 16.6201 23.0123 13.9808 23.0123C12.164 23.0123 11.867 23.136 12.0445 23.8198ZM71.9898 24.432L70.7993 25.8513V45.4259V65H72.617C73.6166 65 74.9772 64.7518 75.6403 64.4486C78.1182 63.3159 78.1564 62.9777 78.1564 42.1836V23.0123H75.6683C73.4543 23.0123 73.0487 23.1687 71.9898 24.432ZM85.1972 25.8961C88.1198 30.1401 96.8076 43.0054 97.1318 43.5692C97.2854 43.8364 94.2487 48.7157 90.3844 54.4122L83.3574 64.7693L86.7463 64.9045C88.8449 64.988 90.6083 64.8117 91.3785 64.4412C92.1271 64.0809 94.3158 61.3766 96.878 57.6457C99.2189 54.2368 101.318 51.264 101.542 51.0389C101.779 50.8012 103.704 53.2347 106.14 56.8535C108.445 60.2766 110.879 63.5101 111.549 64.0384C112.549 64.8279 113.415 65 116.384 65C118.373 65 120 64.8911 120 64.7582C120 64.6253 116.882 59.8937 113.07 54.2433L106.139 43.9697L113.07 33.7192C116.882 28.0813 120 23.3657 120 23.2402C120 22.7507 112.814 23.0774 111.858 23.6112C111.3 23.9222 108.953 26.9776 106.642 30.4003C104.331 33.823 102.275 36.799 102.073 37.0131C101.87 37.2272 99.8075 34.5848 97.4881 31.1404C95.1693 27.6965 92.7396 24.4588 92.0894 23.9453C91.1169 23.1775 90.2253 23.0123 87.0594 23.0123H83.2117L85.1972 25.8961Z" fill="black"/>
</svg>
