<svg width="132" height="88" viewBox="0 0 132 88" fill="none" xmlns="http://www.w3.org/2000/svg">
<path d="M60.5889 16.1721C60.9308 15.4343 61.6744 14.9648 62.493 14.9648H70.9919C71.8725 14.9648 72.6592 15.5096 72.959 16.3265L77.5529 28.7641C77.6667 29.0792 77.7038 29.4175 77.6587 29.75C77.6139 30.0822 77.4899 30.3987 77.296 30.6726C77.1021 30.9462 76.8453 31.1687 76.5464 31.3213C76.2474 31.4739 75.9166 31.5518 75.5808 31.5482H56.7018C55.1734 31.5482 54.157 29.9815 54.7966 28.6076L60.5889 16.1701V16.1721Z" fill="#FF715D"/>
<path d="M50.9606 38.9949C51.3005 38.2469 52.0502 37.7673 52.8777 37.7673H59.0247C60.1833 37.7673 61.1219 38.6941 61.1219 39.8403V56.4236C61.1219 57.5679 60.1833 58.4965 59.0247 58.4965H45.3982C43.88 58.4965 42.8665 56.9499 43.4842 55.5782L50.9626 38.9949H50.9606Z" fill="#6220F7"/>
<path d="M67.4067 39.8381C67.4067 38.6938 68.3453 37.7651 69.5036 37.7651H80.3865C81.2552 37.7651 82.0326 38.2956 82.3436 39.1002L88.7517 55.6838C88.8716 55.9993 88.9126 56.3395 88.8705 56.6744C88.8295 57.0093 88.7066 57.3292 88.5138 57.6061C88.3208 57.883 88.0628 58.1085 87.7631 58.2633C87.4633 58.4182 87.1303 58.4974 86.7926 58.4943H69.5036C68.3453 58.4943 67.4067 57.5676 67.4067 56.4214V39.8381Z" fill="#3371F2"/>
<path d="M32.2354 66.7859C32.2354 65.6416 33.174 64.7129 34.3304 64.7129H97.6724C98.8307 64.7129 99.7674 65.6416 99.7674 66.7859V70.9601C99.7674 72.1044 98.8307 73.0331 97.6743 73.0331H34.3284C33.17 73.0331 32.2334 72.1044 32.2334 70.9601V66.7859H32.2354Z" fill="#33ADF2"/>
</svg>
