<svg width="132" height="88" viewBox="0 0 132 88" fill="none" xmlns="http://www.w3.org/2000/svg">
<path fill-rule="evenodd" clip-rule="evenodd" d="M65.9996 77.2766C47.6223 77.2766 32.7246 62.3789 32.7246 44.0016C32.7246 25.6243 47.6223 10.7266 65.9996 10.7266C84.3769 10.7266 99.2746 25.6243 99.2746 44.0016C99.2746 62.3789 84.3769 77.2766 65.9996 77.2766ZM62.9801 46.5609L66.9009 55.6136C68.1178 58.422 72.0214 58.7186 73.6586 56.127L85.6071 37.2154C85.8728 36.7942 86.0521 36.3245 86.1348 35.8334C86.2173 35.3425 86.2017 34.8399 86.0884 34.355C85.9753 33.8702 85.7669 33.4125 85.4752 33.0088C85.1837 32.6052 84.815 32.2635 84.3902 32.0035C83.5304 31.4719 82.496 31.3 81.5105 31.525C80.525 31.7497 79.6675 32.3534 79.1233 33.2053L71.0498 45.9829L66.7621 36.084C65.4786 33.1254 61.2822 33.0037 59.8276 35.8825L55.4239 44.5929L51.9671 40.0333C51.3532 39.2294 50.4475 38.6992 49.4459 38.5576C48.4443 38.4161 47.4273 38.6743 46.6145 39.2765C46.2134 39.5716 45.875 39.9433 45.619 40.3704C45.3629 40.7975 45.1943 41.2711 45.123 41.7638C45.0517 42.2566 45.0791 42.7586 45.2036 43.2408C45.3281 43.7228 45.5473 44.1754 45.8483 44.572L53.0167 54.0297C54.7241 56.2791 58.2266 55.9673 59.4967 53.4517L62.9801 46.5609Z" fill="#F44444"/>
</svg>
