<svg width="132" height="88" viewBox="0 0 132 88" fill="none" xmlns="http://www.w3.org/2000/svg">
<path d="M30.9785 20.1826C30.9785 13.9937 35.9956 8.97656 42.1845 8.97656H89.8155C96.0044 8.97656 101.021 13.9937 101.021 20.1826V67.8135C101.021 74.0024 96.0044 79.0195 89.8155 79.0195H42.1845C35.9956 79.0195 30.9785 74.0024 30.9785 67.8135V20.1826Z" fill="#0B2B95"/>
<path d="M74.6777 37.7658L75.2927 34.1063H92.5344L91.9194 37.7658H85.4922L82.622 55.0997H78.2347L81.1049 37.7658H74.6777Z" fill="white"/>
<path d="M66.8006 55.1001L69.4248 39.355H73.7916L71.1674 55.1001H66.8006ZM72.0592 37.3048C71.41 37.3048 70.8735 37.0896 70.4498 36.659C70.033 36.2217 69.8621 35.7023 69.9373 35.1009C70.0125 34.4859 70.3063 33.9665 70.8189 33.5428C71.3314 33.1123 71.9123 32.897 72.5615 32.897C73.2107 32.897 73.7403 33.1123 74.1503 33.5428C74.5604 33.9665 74.7312 34.4859 74.6629 35.1009C74.5945 35.7023 74.3041 36.2217 73.7916 36.659C73.2859 37.0896 72.7084 37.3048 72.0592 37.3048Z" fill="white"/>
<path d="M41.988 55.1001L39.4663 34.1066H44.3149L45.3809 48.6934H45.5552L51.7979 34.1066H55.9494L57.364 48.7241H57.5485L63.4325 34.1066H68.281L58.7889 55.1001H54.4631L52.7615 41.3744H52.5974L46.3138 55.1001H41.988Z" fill="white"/>
</svg>
