<svg width="132" height="88" viewBox="0 0 132 88" fill="none" xmlns="http://www.w3.org/2000/svg">
<path fill-rule="evenodd" clip-rule="evenodd" d="M31.2598 43.9994C31.2598 63.1435 46.8255 78.6534 65.9695 78.6199C85.0426 78.5867 100.706 63.1329 100.74 44.0599C100.773 24.9159 85.1739 9.37891 66.03 9.37891C46.9096 9.37891 31.2598 24.8791 31.2598 43.9994Z" fill="#713BDC"/>
<path fill-rule="evenodd" clip-rule="evenodd" d="M49.6573 29.9159C46.7774 30.8176 44.7348 33.5363 44.7348 36.4677C44.7348 38.1989 44.8942 38.5326 49.9492 47.3855C54.1637 54.7666 54.8157 55.8343 55.5013 56.4794C58.4222 59.2268 63.0536 58.8674 65.4547 55.707L66.1079 54.8471L66.5159 55.4398C68.5803 58.4391 72.7774 59.2294 75.8279 57.1932C76.294 56.8821 76.8903 56.3651 77.1532 56.0445C77.6695 55.4147 86.1643 40.647 86.8654 39.1604C87.2339 38.3792 87.2983 38.0681 87.3448 36.8418C87.3886 35.6951 87.3438 35.2448 87.1103 34.4762C86.4219 32.2106 84.6819 30.5102 82.4379 29.9101C81.5337 29.6683 79.6923 29.6724 78.8829 29.918C76.6528 30.5945 75.7102 31.5386 73.6344 35.174L72.0664 37.92L71.6513 37.2937C70.2611 35.1955 67.4815 33.9896 65.0404 34.4256C63.2447 34.7464 61.7134 35.6782 60.7035 37.0642L60.0983 37.895L58.6557 35.3697C57.8624 33.9808 56.9715 32.5242 56.6762 32.1327C56.0056 31.2443 54.7056 30.3647 53.5245 30C52.4774 29.6767 50.5548 29.6349 49.6573 29.9159ZM80.0529 32.9255C79.289 33.0693 78.7239 33.3719 78.1698 33.934C77.9204 34.187 76.7003 36.178 75.4585 38.3584C73.4288 41.9222 73.149 42.3471 72.6867 42.5663C72.2276 42.7841 72.1126 42.7895 71.613 42.6164C71.0096 42.4074 70.8246 42.1672 69.523 39.9051C68.7337 38.5333 67.9907 37.8854 66.9058 37.6232C65.2948 37.2338 63.6314 38.0316 62.8575 39.5646C62.5398 40.1944 62.4322 41.4883 62.6442 42.1306C62.8497 42.753 68.7852 53.1823 69.3415 53.8983C70.5437 55.4461 73.1689 55.5573 74.5535 54.119C75.1071 53.5439 83.9919 38.0298 84.1914 37.2899C84.8339 34.9065 82.516 32.462 80.0529 32.9255Z" fill="white"/>
</svg>
