<svg width="132" height="88" viewBox="0 0 132 88" fill="none" xmlns="http://www.w3.org/2000/svg">
<path fill-rule="evenodd" clip-rule="evenodd" d="M32.7246 33.4944V56.6233C32.7246 58.1204 33.7243 59.4273 35.1675 59.8253L96.4665 76.7305C97.8791 77.1201 99.2746 76.0574 99.2746 74.5921V45.3391H93.4771L85.4343 56.398C84.8871 57.1505 83.9988 57.5783 83.0692 57.5373C82.1396 57.4961 81.2927 56.9916 80.814 56.1938L69.9863 38.1475L60.1106 56.1034C59.6547 56.9321 58.8079 57.4714 57.864 57.534C56.9202 57.5964 56.0097 57.1735 55.4486 56.4119L47.6844 45.8748C46.776 44.642 47.039 42.906 48.2718 41.9976C49.5047 41.0891 51.2406 41.3522 52.1491 42.5851L57.341 49.6311L67.4521 31.2474C67.9305 30.3777 68.8372 29.83 69.8297 29.8113C70.822 29.7926 71.7488 30.3059 72.2595 31.1571L83.4137 49.7474L89.8225 40.9353C90.3443 40.2178 91.1779 39.7933 92.065 39.7933H99.2746V13.4113C99.2746 11.9166 97.8265 10.8497 96.399 11.2926L35.0661 30.3214C33.6737 30.7535 32.7246 32.0365 32.7246 33.4944Z" fill="#A29BFE"/>
</svg>
