<svg width="132" height="88" viewBox="0 0 132 88" fill="none" xmlns="http://www.w3.org/2000/svg">
<path fill-rule="evenodd" clip-rule="evenodd" d="M89.3867 32.9231C89.0078 33.0314 89.4112 33.2891 90.8162 33.8358C93.5049 34.8819 94.9673 35.7842 96.9635 37.6289C100.194 40.614 101.834 44.0749 102.076 48.416C102.244 51.4331 101.825 53.4942 100.518 56.0841C98.6504 59.7834 94.4168 63.0832 90.3875 63.9794C87.4447 64.6342 82.9069 64.3982 80.2193 63.4511C78.4079 62.8126 78.2495 62.795 78.4976 63.2581C79.4485 65.0351 84.2519 67.9179 87.234 68.5015C89.6565 68.9756 94.1467 68.7185 96.2851 67.9837C100.666 66.4775 104.818 62.8648 106.79 58.8421C108.476 55.4019 108.836 53.6369 108.691 49.527C108.583 46.4712 108.471 45.828 107.703 43.8785C105.737 38.8889 102.062 35.2347 97.2897 33.5267C95.6994 32.9575 90.6204 32.5694 89.3867 32.9231Z" fill="#FDBD06"/>
<path fill-rule="evenodd" clip-rule="evenodd" d="M57.0516 17.6125C51.9443 18.5794 47.893 20.6193 45.03 23.666C43.8552 24.9159 42.2827 28.0245 42.0542 29.5483L41.8746 30.7465L39.4942 31.3732C34.6078 32.6602 31.0143 34.5967 28.0278 37.5535C25.1038 40.4482 23.6369 43.9143 23.3262 48.6649C22.868 55.6604 25.7863 61.9436 31.3133 65.8629C33.8446 67.6578 36.1277 68.6981 38.8824 69.3116C43.991 70.4496 50.3301 69.7175 55.9904 67.336L57.2669 66.799L58.6142 67.767C61.8966 70.1251 66.0095 71.3266 68.7185 70.7188C70.7796 70.2565 72.8108 69.228 74.2094 67.9391C75.5918 66.6648 78.1444 63.092 77.8691 62.8167C77.7715 62.7191 77.2493 62.9767 76.7086 63.3892C75.4032 64.3847 71.6197 66.1348 69.5641 66.6936C67.2599 67.3204 62.7936 67.5376 60.4844 67.1353C59.4438 66.9541 58.4816 66.7374 58.3463 66.6538C58.2107 66.5702 58.9505 66.0323 59.99 65.4581C64.4285 63.0073 67.7178 60.3945 71.5774 56.2535C73.7067 53.9691 76.2463 50.7038 77.5391 48.5885C77.7707 48.2095 78.0481 48.4251 79.2991 49.9571C80.3518 51.2463 80.8421 51.6668 80.9843 51.402C81.1369 51.1176 84.1776 40.9074 85.0062 37.8973C85.0791 37.6325 85.0505 37.416 84.9424 37.416C84.6085 37.416 72.4516 44.626 72.4516 44.8243C72.4516 44.9268 73.3124 45.4097 74.3645 45.897C75.6284 46.4828 76.2301 46.9077 76.1372 47.1494C75.9282 47.6944 70.5327 52.8433 68.6904 54.2559C60.4864 60.5468 53.173 63.5496 46.0843 63.5375C43.2617 63.5325 39.3232 62.683 37.14 61.6081C34.8305 60.4712 32.5744 58.1282 31.3982 55.6452C30.5493 53.8531 30.5141 53.6413 30.5141 50.341C30.5141 46.9613 30.5306 46.8689 31.5025 44.841C32.1264 43.5392 32.9886 42.2965 33.84 41.4712C35.8645 39.5093 39.3999 37.8134 42.7648 37.1897C43.9756 36.9653 44.0576 36.9947 45.33 38.1145C46.7441 39.3586 47.89 40.0692 48.1166 39.8426C48.1941 39.7651 48.0489 39.1565 47.7937 38.4902C47.4668 37.6358 47.324 36.387 47.3095 34.2535C47.2913 31.5492 47.3645 31.0677 48.0008 29.7114C49.8054 25.8647 54.7144 22.8028 61.0006 21.6035C67.1312 20.4337 73.6891 22.0779 79.2353 26.1751C80.0653 26.7884 80.8113 27.2229 80.8933 27.1409C81.1521 26.8822 79.0728 24.2787 77.4574 22.8394C72.0171 17.9903 64.8088 16.144 57.0516 17.6125Z" fill="#3A84FD"/>
<path fill-rule="evenodd" clip-rule="evenodd" d="M57.0516 17.6125C51.9443 18.5794 47.893 20.6193 45.03 23.666C43.8552 24.9159 42.2827 28.0245 42.0542 29.5483L41.8746 30.7465L39.4942 31.3732C34.6078 32.6602 31.0143 34.5967 28.0278 37.5535C25.1038 40.4482 23.6369 43.9143 23.3262 48.6649C22.868 55.6604 25.7863 61.9436 31.3133 65.8629C33.8446 67.6578 36.1277 68.6981 38.8824 69.3116C43.991 70.4496 50.3301 69.7175 55.9904 67.336L57.2669 66.799L59.99 65.4581C64.4285 63.0073 67.7178 60.3945 71.5774 56.2535C73.7067 53.9691 76.2463 50.7038 77.5391 48.5885C77.7707 48.2095 78.0481 48.4251 79.2991 49.9571C80.3518 51.2463 80.8421 51.6668 80.9843 51.402C81.1369 51.1176 84.1776 40.9074 85.0062 37.8973C85.0791 37.6325 85.0505 37.416 84.9424 37.416C84.6085 37.416 72.4516 44.626 72.4516 44.8243C72.4516 44.9268 73.3124 45.4097 74.3645 45.897C75.6284 46.4828 76.2301 46.9077 76.1372 47.1494C75.9282 47.6944 70.5327 52.8433 68.6904 54.2559C60.4864 60.5468 53.173 63.5496 46.0843 63.5375C43.2617 63.5325 39.3232 62.683 37.14 61.6081C34.8305 60.4712 32.5744 58.1282 31.3982 55.6452C30.5493 53.8531 30.5141 53.6413 30.5141 50.341C30.5141 46.9613 30.5306 46.8689 31.5025 44.841C32.1264 43.5392 32.9886 42.2965 33.84 41.4712C35.8645 39.5093 39.3999 37.8134 42.7648 37.1897C43.9756 36.9653 44.0576 36.9947 45.33 38.1145C46.7441 39.3586 47.89 40.0692 48.1166 39.8426C48.1941 39.7651 48.0489 39.1565 47.7937 38.4902C47.4668 37.6358 47.324 36.387 47.3095 34.2535C47.2913 31.5492 47.3645 31.0677 48.0008 29.7114C49.8054 25.8647 54.7144 22.8028 61.0006 21.6035C67.1312 20.4337 73.6891 22.0779 79.2353 26.1751C80.0653 26.7884 80.8113 27.2229 80.8933 27.1409C81.1521 26.8822 79.0728 24.2787 77.4574 22.8394C72.0171 17.9903 64.8088 16.144 57.0516 17.6125Z" fill="#9535F1"/>
<path fill-rule="evenodd" clip-rule="evenodd" d="M57.0495 17.6125C51.9422 18.5794 47.8909 20.6193 45.0278 23.666C43.853 24.9159 42.2806 28.0245 42.0521 29.5483L41.8725 30.7465C41.8725 30.7465 41.355 34.2535 45.3279 38.1145C46.7419 39.3586 47.8878 40.0692 48.1144 39.8426C48.192 39.7651 48.0468 39.1565 47.7916 38.4902C47.4646 37.6358 47.3219 36.387 47.3073 34.2535C47.2892 31.5492 47.3623 31.0677 47.9987 29.7114C49.8032 25.8647 54.7122 22.8028 60.9985 21.6035C67.129 20.4337 73.687 22.0779 79.2332 26.1751C80.0631 26.7884 80.8092 27.2229 80.8911 27.1409C81.1499 26.8822 79.0706 24.2787 77.4553 22.8394C72.015 17.9903 64.8067 16.144 57.0495 17.6125Z" fill="#FC0172"/>
</svg>
