<svg width="132" height="88" viewBox="0 0 132 88" fill="none" xmlns="http://www.w3.org/2000/svg">
<path d="M66.0004 78.0984C84.8333 78.0984 100.1 62.8313 100.1 43.9984C100.1 25.1655 84.8333 9.89844 66.0004 9.89844C47.1675 9.89844 31.9004 25.1655 31.9004 43.9984C31.9004 62.8313 47.1675 78.0984 66.0004 78.0984Z" fill="url(#paint0_linear_2056_23812)"/>
<path d="M78.1765 58.4833H69.7036L67.1784 46.9703C67.0544 46.4843 66.8623 45.529 66.6023 44.1048C66.3424 42.6805 66.1561 41.4936 66.0432 40.5441C65.9753 41.3242 65.8173 42.2961 65.5687 43.4606C65.3201 44.6248 65.1111 45.6874 64.9417 46.6482C64.727 47.6204 63.8514 51.5766 62.3149 58.5172H53.842L47.3008 32.1172H54.1978L57.0787 45.2747C57.7338 48.1913 58.1802 50.514 58.4174 52.2437C58.5756 51.0227 58.858 49.3612 59.2648 47.2587C59.6714 45.1561 60.0443 43.4322 60.3831 42.0871L62.7217 32.1172H69.3307L71.5846 42.0871C71.9687 43.681 72.3583 45.5235 72.7539 47.6146C73.1492 49.706 73.4148 51.2658 73.5503 52.2945C73.7085 50.9606 74.1377 48.6491 74.8382 45.3596L77.8038 32.1172H84.7008" fill="white"/>
<defs>
<linearGradient id="paint0_linear_2056_23812" x1="100.1" y1="43.9984" x2="31.9004" y2="43.9984" gradientUnits="userSpaceOnUse">
<stop stop-color="#384CC5"/>
<stop offset="1" stop-color="#8A2AC8"/>
</linearGradient>
</defs>
</svg>
