<svg width="132" height="88" viewBox="0 0 132 88" fill="none" xmlns="http://www.w3.org/2000/svg">
<path d="M65.9996 77.2766C84.3769 77.2766 99.2746 62.3788 99.2746 44.0016C99.2746 25.6243 84.3769 10.7266 65.9996 10.7266C47.6223 10.7266 32.7246 25.6243 32.7246 44.0016C32.7246 62.3788 47.6223 77.2766 65.9996 77.2766Z" fill="#343C64"/>
<path d="M74.9894 52.7382C73.879 51.3755 72.882 50.1007 71.9986 48.9138C71.1153 47.727 70.3053 46.6293 69.5685 45.6208C68.8366 44.6111 68.1426 43.6266 67.4864 42.6676C68.3445 39.1841 69.2278 35.373 70.1364 31.2341C71.045 27.0952 71.9283 22.8781 72.7864 18.5825C72.7864 18.4307 72.6855 18.3168 72.4836 18.2409C72.2369 18.1645 71.973 18.1645 71.7265 18.2409C71.3935 18.3347 71.0924 18.5177 70.8557 18.7705C70.5532 19.0987 70.3559 19.5105 70.2896 19.9525C70.1382 20.8116 69.9489 21.7707 69.7218 22.8298C69.4946 23.8889 69.1942 25.1891 68.8204 26.7302C68.4418 28.27 67.9875 30.0774 67.4575 32.1523C66.9275 34.2271 66.2833 36.6725 65.525 39.4884C64.0142 37.5196 62.7644 35.8285 61.7752 34.4151C60.7861 33.0018 59.928 31.7016 59.2009 30.5148C58.469 29.3292 57.7749 28.1935 57.1187 27.1079C56.4625 26.0223 55.6813 24.8487 54.7751 23.5871C54.5887 23.3007 54.3587 23.0451 54.0936 22.8298C53.8792 22.6503 53.6352 22.5096 53.3725 22.4142C53.1454 22.3382 52.9813 22.3636 52.8804 22.4901C52.7794 22.6166 52.7794 22.8515 52.8804 23.213C53.3937 24.7987 54.0265 26.3431 54.7733 27.8327C55.5293 29.3436 56.3748 30.919 57.3098 32.5589C58.2448 34.1988 59.279 35.9405 60.4123 37.7841C61.548 39.6276 62.7722 41.6343 64.0846 43.8044C64.135 43.9056 64.135 44.1822 64.0846 44.6376C64.0341 45.0424 63.9457 45.5979 63.8195 46.304C63.6934 47.0101 63.5064 47.9686 63.2589 49.1795C62.8539 50.9471 62.5258 52.4996 62.2746 53.8371C62.0234 55.1745 61.7458 56.5879 61.4417 58.0772C61.1341 59.5616 60.7657 61.2401 60.3366 63.1125C59.9076 64.985 59.3667 67.2815 58.7142 70.0025C58.7142 70.306 58.916 70.4305 59.3199 70.38C59.7237 70.3295 60.2032 70.1018 60.7621 69.6985C61.0144 68.9911 61.4056 67.7544 61.9356 65.9881C62.4657 64.2217 63.0209 62.2528 63.6014 60.0816C64.1807 57.9127 64.7612 55.6662 65.3429 53.3419C65.9246 51.0176 66.3915 48.9229 66.7436 47.0576C68.1558 48.9253 69.4051 50.5278 70.4916 51.8652C71.578 53.2027 72.5623 54.3763 73.4445 55.386C74.3266 56.3969 75.1217 57.3181 75.8295 58.1495C76.5374 58.9809 77.2693 59.8014 78.0253 60.6111C78.4291 60.6617 78.7698 60.4599 79.0474 60.0057C79.3251 59.5514 79.2115 58.6429 78.7067 57.2802C77.339 55.6149 76.0999 54.101 74.9894 52.7382Z" fill="white"/>
</svg>
