<svg width="132" height="88" viewBox="0 0 132 88" fill="none" xmlns="http://www.w3.org/2000/svg">
<path fill-rule="evenodd" clip-rule="evenodd" d="M66 11.7C48.1612 11.7 33.7 26.1612 33.7 44C33.7 61.8387 48.1612 76.3 66 76.3C83.8387 76.3 98.3 61.8387 98.3 44C98.3 26.1612 83.8387 11.7 66 11.7ZM28 44C28 23.0132 45.0132 6 66 6C86.9867 6 104 23.0132 104 44C104 64.9867 86.9867 82 66 82C45.0132 82 28 64.9867 28 44Z" fill="black"/>
<path fill-rule="evenodd" clip-rule="evenodd" d="M68.6627 42.6361C68.1056 41.8654 67.7093 41.2954 67.3243 40.6973C66.2922 39.1515 65.9898 37.4688 66.2953 35.593L66.3177 35.4727C66.4271 34.9501 66.5962 34.4437 66.8212 33.9545C67.034 33.4941 67.2939 33.0562 67.5953 32.647C67.9825 32.1214 68.4362 31.6446 68.9724 31.2043C70.7671 29.7795 72.8906 29.3276 75.2675 29.6048C76.8566 29.7901 78.1855 30.1897 80.4784 31.0408L78.8832 35.8798C75.0911 34.4723 73.2181 34.2499 71.8828 35.2964C71.6985 35.4499 71.5359 35.6217 71.4021 35.8036C71.3037 35.9368 71.222 36.0744 71.1604 36.2079C71.1095 36.3188 71.0711 36.428 71.0449 36.5356C70.964 37.082 71.0244 37.3746 71.3018 37.7884C71.6301 38.2988 71.9816 38.8049 72.4954 39.5148C72.4422 39.441 73.2212 40.5134 73.4359 40.814C74.3596 42.1064 74.9771 43.0822 75.5008 44.1546C76.1791 45.5423 76.607 46.9498 76.7692 48.498C76.8266 49.109 76.8369 49.72 76.7989 50.3284C76.7175 51.6048 76.4223 52.8569 75.9062 54.0653C75.6706 54.6175 75.3856 55.1445 75.0558 55.6412C74.1157 57.0578 72.8267 58.207 71.3177 59.0137C70.7386 59.3234 70.131 59.5803 69.4386 59.8018C64.8178 61.136 59.6612 59.6806 56.4442 56.0596L59.9595 52.5427C61.9264 54.7569 65.2199 55.6925 68.1368 54.8645C68.4875 54.7501 68.8249 54.6061 69.1441 54.4358C69.9623 53.9981 70.636 53.3973 71.1065 52.6886C71.263 52.453 71.396 52.2068 71.5055 51.9506C71.7821 51.3016 71.9364 50.6495 71.9786 49.9849C71.9987 49.6684 71.9934 49.3469 71.9637 49.0197C71.792 47.4165 71.1407 46.0861 69.5865 43.9114C69.3858 43.6305 68.6209 42.5776 68.6627 42.6361ZM63.511 32.1609V44.7736H66.4663V49.9002H58.6801V32.1609H63.511ZM52.9776 46.9802C54.7788 46.9802 56.2385 45.4306 56.2385 43.5192C56.2385 41.6082 54.7788 40.0589 52.9776 40.0589C51.1762 40.0589 49.7164 41.6082 49.7164 43.5192C49.7164 45.4306 51.1762 46.9802 52.9776 46.9802Z" fill="black"/>
</svg>
