<svg width="132" height="88" viewBox="0 0 132 88" fill="none" xmlns="http://www.w3.org/2000/svg">
<path d="M43.4888 58.7923C43.4888 58.7923 61.7716 41.2048 104.706 25.4559C106.59 25.2427 108.261 23.6438 109.455 22.1516C109.323 22.1249 109.137 22.0716 108.951 22.0183C108.527 21.9384 108.076 21.8051 107.625 21.6986C107.173 21.6186 106.669 21.4854 106.165 21.3788C105.183 21.1656 104.042 20.9791 102.954 20.7392C100.752 20.3662 98.5228 20.0997 96.8512 19.9132C95.1529 19.7799 94.0649 19.7266 94.0649 19.7266C94.0649 19.7266 95.2059 19.7266 96.9042 19.7799C98.5759 19.8332 100.805 20.0197 103.034 20.2329C104.175 20.3662 105.263 20.4994 106.298 20.6859C106.802 20.7925 107.306 20.8725 107.81 20.9791C108.261 21.059 108.712 21.1656 109.137 21.2455C109.455 21.2988 109.721 21.3788 109.986 21.4321C109.986 21.4321 109.986 21.3788 110.039 21.3788C109.721 21.2988 109.349 21.1923 109.004 21.059C108.447 20.9258 107.81 20.7925 107.173 20.606C106.484 20.4195 105.767 20.2862 104.998 20.0997C104.573 20.0197 104.228 19.9132 103.803 19.8332C103.405 19.7266 102.981 19.6733 102.53 19.5934C102.132 19.5134 101.681 19.4601 101.203 19.3536C100.752 19.3269 100.301 19.2203 99.8497 19.1937C98.9475 19.0338 98.0188 18.9538 97.1165 18.8206C96.2143 18.6874 95.259 18.6341 94.3569 18.5275C93.4281 18.4475 92.526 18.3942 91.6503 18.3676C90.8011 18.3143 89.9254 18.261 89.156 18.261C88.3334 18.2077 87.6169 18.2077 86.874 18.2077C84.1142 18.181 82.2567 18.3143 82.2567 18.3143C82.2567 18.3143 84.1142 18.1277 86.874 18.0745C87.5637 18.0745 88.3334 18.0212 89.156 18.0212C89.9785 18.0212 90.8011 18.0212 91.6503 18.0745C92.526 18.1277 93.4281 18.1278 94.3569 18.181C95.259 18.2077 96.2143 18.261 97.1165 18.3676C98.0188 18.4475 98.974 18.5008 99.9027 18.6341C100.354 18.6874 100.805 18.714 101.256 18.7673C101.707 18.8206 102.158 18.9005 102.583 18.9538C103.034 19.0071 103.432 19.0871 103.856 19.1404C104.255 19.2203 104.679 19.2736 105.077 19.3536C105.847 19.5134 106.616 19.6467 107.306 19.7799C107.996 19.9132 108.633 20.0464 109.163 20.1796C109.721 20.3395 110.172 20.4728 110.596 20.5527C110.915 20.0997 111.074 19.7799 111.074 19.7799C110.676 17.1951 75.5168 13.9973 50.6797 20.2862C31.6009 25.0562 30.9641 31.425 32.3439 32.8907C32.6093 32.7574 32.8746 32.6241 33.193 32.4908C34.1218 32.0646 35.2097 31.5316 36.4834 31.0786C37.7571 30.519 39.2165 30.0126 40.8353 29.4531C41.6579 29.1867 42.4804 28.9468 43.356 28.6802C44.2051 28.4404 45.134 28.174 46.0892 27.9075C47.0444 27.6677 47.9996 27.4011 48.9816 27.1614C49.9898 26.9481 50.9981 26.7083 52.0331 26.4686C53.0945 26.282 54.1294 26.0688 55.1642 25.829C56.2788 25.6424 57.3135 25.4292 58.4016 25.296C60.5775 24.9229 62.8063 24.6032 65.0354 24.3633C67.2644 24.0968 69.5198 23.857 71.7489 23.6705C73.9777 23.4839 76.1005 23.3507 78.2499 23.2175C80.3462 23.1375 82.3895 23.0309 84.3265 22.9776C86.237 22.951 88.121 22.8977 89.7928 22.8977C96.5327 22.8444 101.044 23.1375 101.044 23.1375C101.044 23.1375 96.5327 22.951 89.7928 23.0842C88.121 23.1375 86.2901 23.1642 84.3265 23.2708C82.4159 23.3507 80.3728 23.4573 78.2764 23.5905C76.2068 23.7238 74.0043 23.9103 71.8284 24.1501C69.6525 24.3633 67.4236 24.6032 65.1946 24.9229C62.9655 25.1894 60.7367 25.5625 58.5873 25.9622C57.4993 26.1487 56.4114 26.3886 55.35 26.5751C54.315 26.7883 53.2537 27.0281 52.2188 27.268C51.2105 27.4811 50.1756 27.7743 49.2203 27.9874C48.2651 28.2805 47.3099 28.4938 46.3545 28.7602C45.4524 29.0534 44.5235 29.3198 43.6744 29.5864C42.7988 29.8795 41.9763 30.1459 41.1537 30.4123C39.5615 31.0253 38.1552 31.5316 36.8814 32.0646C35.7935 32.4908 34.8913 32.944 34.1218 33.317C39.2431 32.8107 54.5008 25.5625 90.8807 24.4166C90.8807 24.4166 11.2218 58.0462 21.9155 71.2634C22.4993 72.0095 44.6298 68.3855 92.6055 68.2257C92.6055 68.2257 93.0831 68.0656 93.7199 67.7192C92.6055 67.6927 91.438 67.6394 90.1643 67.5594C88.4395 67.4528 86.5554 67.3995 84.5653 67.3728C82.5751 67.3195 80.4789 67.2662 78.2764 67.2397C76.1005 67.2397 73.8716 67.1864 71.5897 67.1864C69.3341 67.1864 66.999 67.1864 64.6904 67.2397C63.5494 67.2397 62.3553 67.2662 61.2143 67.2662C60.0999 67.3195 58.9057 67.3195 57.7648 67.3728C56.6238 67.3995 55.4826 67.3995 54.3682 67.4528C53.2272 67.5061 52.1393 67.5594 51.0247 67.5861C49.9368 67.6394 48.9019 67.6927 47.8404 67.7192C46.8057 67.7725 45.7973 67.8792 44.8156 67.9058C42.7988 68.0656 40.9414 68.1456 39.2165 68.2789C37.4918 68.4121 35.8996 68.5454 34.4667 68.6519C33.0604 68.7852 31.8397 68.9185 30.8314 69.0251C28.8412 69.2382 27.6471 69.3448 27.6471 69.3448C27.6471 69.3448 28.7882 69.2116 30.8314 68.9185C31.8397 68.7852 33.0604 68.5986 34.4667 68.4121C35.8996 68.2789 37.4918 68.0924 39.2165 67.8792C40.9414 67.6394 42.7988 67.5061 44.8156 67.3195C45.7973 67.2397 46.8057 67.133 47.8404 67.0531C48.9019 66.9465 49.9368 66.8665 51.0247 66.8133C52.1393 66.7332 53.2272 66.6267 54.3682 66.5468C55.4826 66.4936 56.5972 66.4136 57.7648 66.307C58.9057 66.2537 60.0467 66.1737 61.2143 66.1204C62.3553 66.0671 63.5494 66.0404 64.6904 65.9871C66.999 65.854 69.3341 65.8007 71.5897 65.7207C73.8716 65.6141 76.1536 65.6141 78.3295 65.5874C80.5055 65.5874 82.6017 65.5341 84.6184 65.5341C86.6085 65.5341 88.466 65.5341 90.2438 65.5341C93.0302 65.5341 95.4448 65.6141 97.3554 65.6674C98.5759 64.708 99.5312 63.5889 99.3456 62.4431C98.5228 57.5931 43.4888 58.7923 43.4888 58.7923Z" fill="black"/>
</svg>
