<svg width="361" height="360" viewBox="0 0 361 360" fill="none" xmlns="http://www.w3.org/2000/svg">
<path d="M98.717 233.796C98.717 233.796 165.2 169.841 321.323 112.572C328.174 111.797 334.254 105.983 338.596 100.556C338.113 100.46 337.438 100.266 336.762 100.072C335.218 99.7813 333.578 99.2968 331.938 98.9091C330.297 98.6185 328.464 98.1339 326.631 97.7463C323.06 96.9711 318.911 96.2929 314.955 95.4207C306.946 94.0641 298.841 93.0951 292.762 92.4168C286.587 91.9323 282.63 91.7385 282.63 91.7385C282.63 91.7385 286.779 91.7385 292.955 91.9323C299.034 92.1261 307.139 92.8044 315.244 93.5796C319.394 94.0641 323.35 94.5486 327.113 95.2269C328.947 95.6145 330.78 95.9052 332.613 96.2929C334.254 96.5835 335.894 96.9711 337.438 97.2618C338.596 97.4556 339.56 97.7463 340.526 97.9401C340.526 97.9401 340.526 97.7463 340.718 97.7463C339.56 97.4556 338.209 97.0681 336.955 96.5835C334.929 96.099 332.613 95.6145 330.297 94.9362C327.789 94.2579 325.183 93.7734 322.385 93.0951C320.841 92.8044 319.587 92.4168 318.043 92.1261C316.595 91.7385 315.052 91.5447 313.411 91.254C311.964 90.9633 310.324 90.7695 308.586 90.3819C306.946 90.285 305.306 89.8974 303.666 89.8004C300.385 89.2191 297.008 88.9284 293.727 88.4439C290.446 87.9594 286.972 87.7655 283.692 87.3779C280.314 87.0872 277.034 86.8934 273.85 86.7965C270.762 86.6027 267.577 86.4089 264.779 86.4089C261.788 86.2151 259.183 86.2151 256.481 86.2151C246.446 86.1182 239.691 86.6027 239.691 86.6027C239.691 86.6027 246.446 85.9244 256.481 85.7306C258.99 85.7306 261.788 85.5368 264.779 85.5368C267.771 85.5368 270.762 85.5368 273.85 85.7306C277.034 85.9244 280.314 85.9244 283.692 86.1182C286.972 86.2151 290.446 86.4089 293.727 86.7965C297.008 87.0872 300.481 87.281 303.858 87.7655C305.499 87.9594 307.139 88.0562 308.78 88.25C310.42 88.4439 312.061 88.7346 313.604 88.9284C315.244 89.1221 316.692 89.4129 318.236 89.6066C319.683 89.8974 321.227 90.0911 322.674 90.3819C325.472 90.9633 328.271 91.4478 330.78 91.9323C333.289 92.4168 335.605 92.9013 337.534 93.3858C339.56 93.9672 341.201 94.4517 342.745 94.7424C343.903 93.0951 344.482 91.9323 344.482 91.9323C343.034 82.5329 215.183 70.9048 124.866 93.7734C55.4883 111.119 53.1725 134.278 58.1901 139.608C59.155 139.123 60.1199 138.639 61.2778 138.154C64.655 136.604 68.6112 134.666 73.2428 133.018C77.8744 130.984 83.1813 129.142 89.0678 127.107C92.059 126.139 95.0502 125.266 98.234 124.297C101.322 123.425 104.699 122.456 108.173 121.487C111.647 120.615 115.12 119.646 118.691 118.774C122.357 117.999 126.024 117.126 129.787 116.255C133.647 115.576 137.41 114.801 141.173 113.929C145.226 113.25 148.989 112.475 152.945 111.991C160.858 110.634 168.963 109.471 177.068 108.599C185.174 107.63 193.375 106.758 201.481 106.08C209.586 105.402 217.305 104.917 225.121 104.433C232.744 104.142 240.174 103.754 247.218 103.56C254.165 103.464 261.016 103.27 267.095 103.27C291.604 103.076 308.007 104.142 308.007 104.142C308.007 104.142 291.604 103.464 267.095 103.948C261.016 104.142 254.358 104.239 247.218 104.626C240.27 104.917 232.841 105.305 225.217 105.789C217.691 106.274 209.682 106.952 201.77 107.824C193.858 108.599 185.753 109.471 177.647 110.634C169.542 111.603 161.437 112.96 153.621 114.413C149.664 115.092 145.708 115.964 141.848 116.642C138.085 117.417 134.226 118.289 130.463 119.162C126.796 119.937 123.032 121.003 119.559 121.778C116.085 122.844 112.612 123.619 109.138 124.588C105.857 125.654 102.48 126.623 99.3919 127.592C96.2081 128.658 93.2169 129.627 90.2256 130.596C84.4358 132.825 79.322 134.666 74.6902 136.604C70.734 138.154 67.4533 139.802 64.655 141.158C83.2779 139.317 138.761 112.96 271.051 108.793C271.051 108.793 -18.6175 231.082 20.2688 279.145C22.3916 281.858 102.866 268.68 277.323 268.099C277.323 268.099 279.06 267.517 281.376 266.257C277.323 266.16 273.078 265.967 268.446 265.676C262.174 265.288 255.323 265.095 248.086 264.997C240.849 264.804 233.226 264.61 225.217 264.513C217.305 264.513 209.2 264.319 200.902 264.319C192.7 264.319 184.208 264.319 175.814 264.513C171.665 264.513 167.322 264.61 163.173 264.61C159.121 264.804 154.779 264.804 150.63 264.997C146.48 265.095 142.331 265.095 138.278 265.288C134.129 265.482 130.173 265.676 126.12 265.773C122.164 265.967 118.401 266.16 114.541 266.257C110.778 266.451 107.112 266.839 103.542 266.935C96.2081 267.517 89.4535 267.808 83.1813 268.292C76.9097 268.776 71.12 269.261 65.9094 269.649C60.7954 270.133 56.3567 270.618 52.69 271.006C45.4532 271.781 41.111 272.168 41.111 272.168C41.111 272.168 45.2602 271.684 52.69 270.618C56.3567 270.133 60.7954 269.455 65.9094 268.776C71.12 268.292 76.9097 267.614 83.1813 266.839C89.4535 265.967 96.2081 265.482 103.542 264.804C107.112 264.513 110.778 264.125 114.541 263.835C118.401 263.447 122.164 263.156 126.12 262.963C130.173 262.672 134.129 262.284 138.278 261.994C142.331 261.8 146.384 261.509 150.63 261.122C154.779 260.928 158.928 260.637 163.173 260.443C167.322 260.249 171.665 260.152 175.814 259.959C184.208 259.474 192.7 259.281 200.902 258.99C209.2 258.602 217.498 258.602 225.411 258.505C233.323 258.505 240.946 258.311 248.279 258.311C255.516 258.311 262.271 258.311 268.735 258.311C278.867 258.311 287.648 258.602 294.596 258.796C299.034 255.307 302.507 251.238 301.832 247.071C298.841 229.435 98.717 233.796 98.717 233.796Z" fill="black"/>
</svg>
