<svg width="132" height="88" viewBox="0 0 132 88" fill="none" xmlns="http://www.w3.org/2000/svg">
<path d="M32.5987 50.3157L32.5809 50.2596L43.7795 40.0165V35.0812H25.8133V40.0165H36.5445L36.5622 40.0638L25.4731 50.3157V55.251H43.9599V50.3157H32.5987Z" fill="#201515"/>
<path d="M54.9892 34.6112C52.9169 34.6112 51.2279 34.9235 49.9225 35.5481C48.7065 36.0923 47.6822 36.9891 46.9824 38.1221C46.313 39.2625 45.8926 40.5315 45.749 41.8458L51.2003 42.6112C51.3975 41.4507 51.7919 40.6282 52.3835 40.1435C53.056 39.6366 53.8846 39.3805 54.7261 39.4195C55.8326 39.4195 56.6352 39.715 57.1337 40.306C57.628 40.8971 57.8793 41.7157 57.8793 42.7944V43.3323H52.6379C49.9698 43.3323 48.0531 43.9233 46.8878 45.1055C45.7223 46.2876 45.1406 47.848 45.1426 49.7866C45.1426 51.7726 45.7243 53.2503 46.8878 54.2196C48.0512 55.1889 49.5144 55.6706 51.2772 55.6647C53.4641 55.6647 55.1464 54.9131 56.3233 53.4098C57.0189 52.486 57.5153 51.4285 57.7816 50.3038H57.9797L58.731 55.2391H63.6706V42.7412C63.6706 40.1583 62.9895 38.1576 61.6269 36.739C60.2643 35.3205 58.0515 34.6112 54.9892 34.6112ZM56.7169 50.0171C55.9329 50.6702 54.9064 50.9953 53.6287 50.9953C52.5757 50.9953 51.8441 50.8111 51.434 50.4427C51.2341 50.2684 51.0752 50.0522 50.9683 49.8097C50.8615 49.567 50.8094 49.3039 50.8158 49.039C50.8042 48.789 50.8435 48.5394 50.9315 48.3052C51.0194 48.071 51.1542 47.8571 51.3275 47.6766C51.515 47.5009 51.7362 47.3651 51.9776 47.2772C52.2191 47.1893 52.4759 47.1512 52.7325 47.1653H57.8881V47.5051C57.8985 47.9855 57.7981 48.4619 57.5954 48.8974C57.3922 49.333 57.0918 49.7161 56.7169 50.0171Z" fill="#201515"/>
<path d="M93.5395 35.0812H87.7038V55.254H93.5395V35.0812Z" fill="#201515"/>
<path d="M127.996 35.0812C126.348 35.0812 125.048 35.6624 124.098 36.8248C123.416 37.6602 122.897 38.8945 122.542 40.5278H122.371L121.607 35.0812H116.623V55.251H122.46V44.9075C122.46 43.6033 122.765 42.6034 123.377 41.9079C123.988 41.2124 125.116 40.8647 126.76 40.8647H128.975V35.0812H127.996Z" fill="#201515"/>
<path d="M110.832 35.7401C109.47 34.9303 107.751 34.5265 105.676 34.5284C102.411 34.5284 99.8552 35.4574 98.0097 37.3153C96.1635 39.1732 95.241 41.7344 95.241 44.9991C95.1939 46.9728 95.6252 48.9286 96.4981 50.6998C97.2971 52.2782 98.5413 53.5881 100.077 54.4678C101.623 55.3603 103.462 55.8075 105.594 55.8095C107.437 55.8095 108.977 55.5258 110.214 54.9584C111.376 54.4488 112.388 53.6501 113.154 52.6385C113.883 51.6454 114.424 50.5278 114.751 49.3404L109.723 47.9336C109.511 48.7057 109.103 49.4102 108.54 49.9787C107.971 50.5461 107.02 50.8299 105.685 50.8299C104.098 50.8299 102.915 50.3757 102.136 49.4675C101.571 48.8114 101.216 47.8745 101.059 46.6599H114.828C114.884 46.0925 114.914 45.6167 114.914 45.2325V43.9765C114.947 42.2892 114.598 40.6162 113.894 39.0825C113.234 37.6855 112.166 36.5203 110.832 35.7401ZM105.508 39.3367C107.874 39.3367 109.216 40.5001 109.533 42.8269H101.163C101.295 42.0505 101.618 41.3188 102.1 40.6961C102.867 39.7879 104.003 39.3347 105.508 39.3367Z" fill="#201515"/>
<path d="M90.6852 26.9511C90.2462 26.9362 89.8087 27.0096 89.3986 27.167C88.9886 27.3244 88.6147 27.5625 88.2982 27.8672C87.9869 28.1749 87.7423 28.544 87.581 28.9509C87.4196 29.3579 87.3447 29.794 87.3607 30.2315C87.3452 30.6718 87.4202 31.1106 87.582 31.5206C87.7433 31.9306 87.9879 32.3029 88.2998 32.6143C88.6116 32.9257 88.9844 33.1695 89.395 33.3305C89.8056 33.4916 90.2447 33.5664 90.6852 33.5503C91.1232 33.5668 91.5597 33.492 91.9672 33.3308C92.3747 33.1695 92.7439 32.9252 93.0516 32.6134C93.3572 32.2985 93.5951 31.9251 93.7523 31.5158C93.9095 31.1064 93.9819 30.6696 93.9658 30.2315C93.986 29.796 93.9152 29.3611 93.7574 28.9545C93.5997 28.5479 93.3593 28.1786 93.0511 27.8702C92.7423 27.5618 92.3731 27.321 91.9661 27.1633C91.5597 27.0055 91.1243 26.9343 90.6883 26.9541L90.6852 26.9511Z" fill="#201515"/>
<path d="M78.6291 34.5284C76.6413 34.5284 75.0439 35.152 73.8375 36.3991C72.9439 37.3231 72.2882 38.7023 71.8703 40.5365H71.6842L70.9209 35.0899H65.9369V61.0492H71.7726V50.357H71.9857C72.1636 51.0699 72.4133 51.763 72.7308 52.4257C73.2247 53.5052 74.0345 54.4098 75.0532 55.0204C76.1092 55.5963 77.2991 55.8828 78.5019 55.8509C80.9453 55.8509 82.8054 54.9003 84.0832 52.999C85.361 51.0978 86.0001 48.4449 86.0001 45.0404C86.0001 41.7522 85.3816 39.1781 84.1457 37.3182C82.9093 35.4584 81.0704 34.5284 78.6291 34.5284ZM79.2207 49.1453C78.5401 50.1304 77.4754 50.6229 76.0259 50.6229C75.4286 50.6505 74.8329 50.5354 74.2889 50.2872C73.7444 50.0389 73.2671 49.6648 72.8968 49.1955C72.1413 48.2479 71.7648 46.9505 71.7669 45.3034V44.9192C71.7669 43.2465 72.1434 41.9659 72.8968 41.0773C73.6497 40.1888 74.6933 39.7495 76.0259 39.7593C77.5013 39.7593 78.5727 40.2272 79.2414 41.1631C79.91 42.0989 80.2441 43.4042 80.2441 45.0788C80.2482 46.8106 79.909 48.1661 79.2264 49.1453H79.2207Z" fill="#201515"/>
<path d="M23.2159 50.3157H3.02539V55.2569H23.2159V50.3157Z" fill="#FF4F00"/>
</svg>
