<svg width="132" height="88" viewBox="0 0 132 88" fill="none" xmlns="http://www.w3.org/2000/svg">
<circle cx="66" cy="44" r="39" fill="#FFDDBB"/>
<path d="M56.8864 19.8594H60.1042L73.4352 25.3257V23.0481L74.3545 22.137H77.5724L81.2499 23.9591L85.8468 28.5144L88.6049 33.0696L89.5243 36.7138L89.0646 39.9025L87.2258 41.7246L84.4677 42.1801L83.0886 40.8136L81.2499 41.7246L76.1933 45.3688L72.0561 48.102L73.8949 49.4685L78.4917 51.2906L79.4111 47.1909L80.7902 45.8243H84.008L85.8468 47.6464V52.2017L84.008 57.2125L83.0886 58.1235L82.6289 62.6788L81.2499 64.5009L68.8383 68.1451H65.6205L45.3941 59.9456L43.0957 58.1235V47.6464L45.3941 45.3688L49.0717 43.0912L49.5313 40.8136L52.2895 38.9915L47.2329 36.7138L43.5554 34.8917L43.0957 33.9807V25.3257L44.0151 23.9591H44.9345L45.3941 22.5925L50.4507 20.7704H53.6685L56.8864 19.8594Z" fill="#EDA900"/>
<path d="M55.367 20.4766L56.7304 20.9305L55.8214 21.8385V30.4639L57.6394 32.2797L63.5478 34.5496L64.0023 37.7274L59.0029 41.3591H58.0939L57.6394 42.721L55.8214 44.0829V54.5242L58.0939 56.3401L77.1825 64.0575L79.0005 64.9655L68.5472 68.1432H65.3657L45.3682 59.9718L43.0957 58.1559V47.7147L45.3682 45.4448L49.0041 43.175L49.4586 40.9051L52.1855 39.0893L47.1861 36.8194L43.5502 35.0035L43.0957 34.0956V25.4702L44.0047 24.1083H44.9137L45.3682 22.7464L50.3676 20.9305H53.549L55.367 20.4766Z" fill="#ED6622"/>
<path d="M55.4497 20.4766L56.8224 20.9289L55.9073 21.8337V30.4289L57.7375 32.2385L63.6858 34.5004L64.1433 37.667L59.1102 41.2861L53.162 44.0004H50.4166L49.0439 41.7385L51.3317 39.4766L52.2468 39.0242L47.2137 36.7623L43.5533 34.9528L43.0957 34.048V25.4528L44.0108 24.0956H44.9259L45.3835 22.7385L50.4166 20.9289H53.6195L55.4497 20.4766Z" fill="#EC6522"/>
<path d="M74.3494 22.3359H77.5685L81.2474 24.1368L85.846 28.639L88.6052 33.1411L89.5249 36.7429L89.0651 39.8944L87.2256 41.6952L84.4664 42.1455L82.627 40.3446L80.7875 36.7429L75.2691 28.1888L74.3494 25.9377H73.4297V23.2364L74.3494 22.3359Z" fill="#663365"/>
<path d="M62.3434 34.7148H63.694L64.1443 37.5006L59.1919 41.2148L53.3391 44.0006H50.6378L49.2871 41.6791L51.5382 39.3577L56.0404 36.572L62.3434 34.7148Z" fill="#6A3463"/>
<path d="M80.8159 45.8594H83.9937L85.8095 47.6936V52.2791L83.9937 57.3232L82.6317 58.2403L81.7238 53.6548L79 51.8206V48.6107L80.3619 46.3179L80.8159 45.8594Z" fill="#ED6622"/>
<path d="M50.4268 20.4766H52.7075L53.6198 21.4233V25.2105L51.3391 28.0508L50.4268 28.5242H47.2338L45.4093 26.6306L44.9531 22.8435L47.2338 21.4233L50.4268 20.4766Z" fill="#693464"/>
<path d="M63.9877 34.7148L67.2377 35.5992L64.9163 37.8101H63.5234L63.9877 35.5992V34.7148Z" fill="#E76623"/>
</svg>
