<svg width="132" height="88" viewBox="0 0 132 88" fill="none" xmlns="http://www.w3.org/2000/svg">
<path fill-rule="evenodd" clip-rule="evenodd" d="M32.0918 30.2266V57.7763H96.0614V30.2266H32.0918ZM77.9589 52.6237H64.1427V49.2087L73.2834 39.051H64.4663V35.8236H77.7142L77.7263 39.1605L68.6194 49.4419H77.9471C77.9589 50.499 77.9589 51.5561 77.9589 52.6237ZM93.6906 47.2392C93.6906 47.2392 93.7467 47.006 93.7687 46.8052C93.9384 45.5641 93.7896 44.3005 93.3347 43.1334C92.2213 40.5201 89.8483 39.2061 87.3667 39.2061C85.6853 39.2061 84.0051 39.7185 82.7797 40.7857C81.3654 42.0111 80.4529 43.6015 80.4529 45.959C80.4529 48.4734 81.7223 50.4872 83.3036 51.5666C84.439 52.3462 86.1872 52.8467 88.0014 52.8467C89.8945 52.8467 91.9424 52.2901 92.977 51.5561C92.865 51.2993 92.6492 50.7693 92.4311 50.2334C92.2493 49.7826 92.0642 49.3333 91.8756 48.8853C91.2656 49.2222 90.6089 49.4661 89.9275 49.6088C89.0428 49.8104 88.1304 49.8481 87.2328 49.7197C85.0627 49.4419 84.1382 48.0955 84.0153 47.2392H93.6906Z" fill="#0F0F0F"/>
<path d="M96.921 42.7891C94.9501 42.7891 93.8597 43.8462 93.6367 45.2148H99.9056C99.9716 44.0915 98.8911 42.7891 96.921 42.7891Z" fill="#0F0F0F"/>
</svg>
