<svg width="132" height="88" viewBox="0 0 132 88" fill="none" xmlns="http://www.w3.org/2000/svg">
<path d="M39.3675 55.6484L35.3393 57.1184L35.123 69.0902L49.0671 64.0014C44.2845 62.3962 40.7919 59.5725 39.3675 55.6484Z" fill="#FDBD39"/>
<path d="M41.4763 42.9883L27.5 48.089L35.3401 57.1205L39.3683 55.6505C37.948 51.7378 38.8239 47.3149 41.4763 42.9883Z" fill="#F69833"/>
<path d="M64.996 25.714C47.1985 32.2093 35.7245 45.6125 39.3683 55.6506L103.819 32.1291C100.175 22.0907 82.7935 19.2187 64.996 25.714Z" fill="#FECF33"/>
<path d="M78.1922 62.0658C95.9897 55.5704 107.485 42.2266 103.82 32.1289L39.3691 55.6506C43.0344 65.7482 60.3946 68.5608 78.1922 62.0658Z" fill="#EE6723"/>
<path d="M103.82 32.1289L39.3691 55.6506C40.6312 59.1273 45.4438 60.8404 52.1965 60.8404C58.7797 60.8404 67.207 59.2135 75.9928 56.007C93.7904 49.5117 106.312 38.9953 103.82 32.1289Z" fill="#F69833"/>
<path d="M90.9922 26.9375C84.4087 26.9375 75.9817 28.5644 67.1956 31.7708C49.3982 38.2661 36.8764 48.7823 39.3689 55.6488L103.82 32.1272C102.558 28.6504 97.7447 26.9375 90.9922 26.9375Z" fill="#FDBD39"/>
<path d="M87.4328 69.7244H87.4322C85.5361 69.7244 82.7385 68.0132 79.1174 64.6384C74.8331 60.6458 69.9259 54.798 65.2989 48.1719C60.672 41.5464 56.8701 34.9223 54.5935 29.5199C52.1131 23.6327 51.7594 20.0128 53.5423 18.7608C53.9333 18.4866 54.4045 18.3477 54.9429 18.3477C56.3931 18.3477 59.219 19.4263 64.4444 24.5656L64.5587 24.6779L64.5431 24.8376C64.5076 25.2068 64.4745 25.5793 64.4453 25.9449L64.387 26.6709L63.8741 26.1549C58.2441 20.4883 55.7657 19.8765 54.9614 19.8765C54.732 19.8765 54.5493 19.9231 54.4184 20.0151C53.645 20.558 53.5952 23.2169 56 28.9239C58.236 34.23 61.9825 40.7539 66.5496 47.2936C71.117 53.834 75.9493 59.5956 80.1566 63.517C84.6939 67.7451 86.7386 68.2019 87.407 68.2019C87.6377 68.2019 87.8254 68.1523 87.9643 68.0543C88.7803 67.4819 88.7812 64.6336 86.0995 58.4907L85.9765 58.2088L86.246 58.0613C86.5155 57.9141 86.7762 57.7689 87.0205 57.6301L87.3435 57.4468L87.4921 57.7873C89.3936 62.1398 91.1712 67.6718 88.8405 69.3089C88.4477 69.5844 87.9739 69.7244 87.4328 69.7244ZM87.4322 69.0528H87.4328L87.4325 69.3885L87.4322 69.0528Z" fill="#EE6723"/>
<path d="M78.6222 61.8809L78.5951 62.2154C78.1452 67.7774 76.9604 74.4645 73.8714 74.7349C73.8094 74.7406 73.745 74.7433 73.6804 74.7433C71.5821 74.7433 69.5967 71.7397 67.78 65.8158C66.0607 60.2114 64.7267 52.6866 64.0238 44.6275C63.3206 36.5701 63.3311 28.9273 64.0533 23.1072C64.8407 16.765 66.3395 13.453 68.5081 13.2629C68.5722 13.2569 68.6387 13.2539 68.7043 13.2539C70.2265 13.2539 72.5209 14.9759 74.8694 22.9968L73.336 23.2925C72.5519 20.6122 71.697 18.4322 70.8488 16.9342C70.0638 15.5486 69.3007 14.7855 68.7 14.7855C68.6802 14.7855 68.6603 14.7864 68.6408 14.788C67.7009 14.8705 66.332 17.1483 65.5686 23.2963C64.8594 29.012 64.8506 36.5402 65.5445 44.4941C66.2391 52.4492 67.5511 59.8617 69.2393 65.3657C69.9952 67.8309 70.8248 69.8625 71.6375 71.2411C72.387 72.5122 73.1125 73.2123 73.6801 73.2123C73.6996 73.2123 73.7189 73.2114 73.7384 73.2099C74.6378 73.1312 76.3327 70.761 77.0458 62.4212L78.6222 61.8809Z" fill="#EE6723"/>
</svg>
