<svg width="132" height="88" viewBox="0 0 132 88" fill="none" xmlns="http://www.w3.org/2000/svg">
<path d="M103 44C103 64.4345 86.4345 81 66 81C45.5655 81 29 64.4345 29 44C29 23.5655 45.5655 7 66 7C86.4345 7 103 23.5655 103 44Z" fill="#FFCC00"/>
<path d="M46.3055 25.8739C46.522 24.7914 47.5751 24.0894 48.6575 24.3059L62.4517 27.0647L81.4259 25.6051C82.2599 25.541 83.0456 26.0029 83.3951 26.7629C83.7447 27.5228 83.584 28.42 82.9926 29.0115L81.1914 30.8126L81.9715 30.9687C82.7119 31.1167 83.3057 31.6695 83.5064 32.3974C83.7071 33.1254 83.4805 33.9043 82.9205 34.4109L60.7759 54.4465L62.9807 54.8874L81.2968 52.2708C82.3896 52.1147 83.4021 52.8741 83.5582 53.9669C83.6085 54.3186 83.5639 54.662 83.4439 54.9712L84.091 54.9214C85.1917 54.8367 86.1526 55.6604 86.2372 56.761C86.3219 57.8617 85.4983 58.8226 84.3976 58.9073L83.4307 58.9817C84.4406 59.252 85.0798 60.2645 84.8719 61.3041C84.6554 62.3866 83.6024 63.0886 82.5199 62.8721L68.7241 60.1129L49.7511 61.5724C48.9171 61.6366 48.1314 61.1746 47.7818 60.4147C47.4323 59.6547 47.593 58.7575 48.1844 58.1661L49.9853 56.3652L49.206 56.2093C48.4655 56.0612 47.8717 55.5085 47.671 54.7806C47.4703 54.0526 47.697 53.2737 48.2569 52.7671L70.4015 32.7315L68.1967 32.2905L49.8806 34.9071C48.7878 35.0632 47.7753 34.3039 47.6192 33.2111C47.569 32.8592 47.6136 32.5156 47.7337 32.2063L47.086 32.2562C45.9853 32.3408 45.0244 31.5172 44.9398 30.4165C44.8551 29.3158 45.6787 28.3549 46.7794 28.2703L47.7454 28.1959C46.7363 27.9251 46.0977 26.9131 46.3055 25.8739Z" fill="black"/>
</svg>
