<svg width="132" height="88" viewBox="0 0 132 88" fill="none" xmlns="http://www.w3.org/2000/svg">
<path d="M67.426 78.0984C65.0031 78.0984 62.7515 77.1682 61.0383 75.4546L31.1311 45.4672C30.3235 44.6594 30.3235 43.3375 31.1311 42.5297L61.0628 12.5422C62.776 10.8287 65.0276 9.89844 67.4505 9.89844C69.849 9.89844 72.1251 10.8287 73.8382 12.5422L84.4599 23.2153C85.2676 24.0231 85.2676 25.345 84.4599 26.1529L66.6429 43.9984L84.4599 61.844C85.2676 62.6518 85.2676 63.9737 84.4599 64.7816L73.7893 75.4546C72.1006 77.1682 69.849 78.0984 67.426 78.0984ZM35.5364 43.9984L63.9997 72.5171C64.9052 73.4228 66.1289 73.9369 67.426 73.9369C68.7232 73.9369 69.9469 73.4228 70.8524 72.5171L80.0546 63.3128L62.2376 45.4672C61.4299 44.6594 61.4299 43.3375 62.2376 42.5297L80.0546 24.6841L70.8769 15.4798C69.9713 14.5496 68.7476 14.06 67.4505 14.06C66.1534 14.06 64.9297 14.574 64.0242 15.4798L35.5364 43.9984Z" fill="#397CBC"/>
<path d="M90.3336 58.0497C89.7707 58.0497 89.2568 57.8294 88.8652 57.4377L76.9219 45.4672C76.1142 44.6594 76.1142 43.3375 76.9219 42.5297L88.8652 30.5592C89.2568 30.1675 89.7952 29.9472 90.3336 29.9472C90.8965 29.9472 91.4105 30.1675 91.802 30.5592L98.8505 37.6338C102.35 41.1343 102.35 46.8625 98.8505 50.3631L91.802 57.4377C91.4105 57.8294 90.8965 58.0497 90.3336 58.0497ZM81.3272 43.9984L90.3336 53.0069L95.9137 47.4256C97.7982 45.5407 97.7982 42.4562 95.9137 40.5713L90.3336 34.99L81.3272 43.9984Z" fill="#E73B3D"/>
</svg>
