<svg width="132" height="88" viewBox="0 0 132 88" fill="none" xmlns="http://www.w3.org/2000/svg">
<path d="M39.5733 14.3011C37.8741 14.2897 36.1895 14.6165 34.6178 15.2625C33.046 15.9085 31.6185 16.8608 30.4182 18.0639C29.218 19.267 28.269 20.6969 27.6266 22.2703C26.9842 23.8438 26.6611 25.5293 26.6763 27.2289V62.467C28.3721 62.5162 30.0601 62.2184 31.6367 61.5919C33.2133 60.9653 34.6453 60.0233 35.8449 58.8234C37.0445 57.6236 37.9865 56.1913 38.6129 54.6144C39.2393 53.0375 39.5371 51.3493 39.4879 49.6532V27.115H74.8337C82.1078 27.115 88.4424 21.2918 88.4709 14.3011H39.5733Z" fill="#23BAE2"/>
<path d="M39.4879 49.6246L39.4879 27.115L38.7192 27.1149C31.5447 27.1149 26.6763 33.2513 26.6763 40.4128L26.6763 62.467C28.3624 62.4803 30.0344 62.1578 31.5947 61.5186C33.1551 60.8793 34.5727 59.936 35.765 58.7434C36.9573 57.5509 37.9005 56.133 38.5397 54.5724C39.1788 53.0117 39.5012 51.3396 39.4879 49.6532" fill="#3197BC"/>
<path d="M92.4283 73.7005C94.1275 73.7119 95.812 73.3851 97.3838 72.7391C98.9555 72.0931 100.383 71.1408 101.583 69.9377C102.784 68.7346 103.733 67.3047 104.375 65.7312C105.017 64.1578 105.34 62.4722 105.325 60.7727V25.5345C103.637 25.5135 101.962 25.8306 100.398 26.4671C98.8339 27.1036 97.4131 28.0467 96.2193 29.2408C95.0254 30.4349 94.0825 31.8558 93.4461 33.42C92.8097 34.9841 92.4927 36.6598 92.5137 38.3484V60.8581H57.1679C49.8937 60.8581 43.5449 66.6956 43.5306 73.672L92.4283 73.7005Z" fill="#89BA17"/>
<path d="M92.4852 38.3769V60.8581H93.2824C100.4 60.8581 105.325 54.7502 105.325 47.5886L105.325 25.5345C103.639 25.5212 101.967 25.8436 100.407 26.4829C98.8465 27.1222 97.4288 28.0655 96.2365 29.258C95.0442 30.4506 94.101 31.8685 93.4619 33.4291C92.8227 34.9897 92.5004 36.662 92.5137 38.3484" fill="#6DA025"/>
</svg>
