<svg width="132" height="88" viewBox="0 0 132 88" fill="none" xmlns="http://www.w3.org/2000/svg">
<path d="M105.56 37.7239C107.853 35.0614 109 32.0184 109 28.2147C109 24.0307 107.471 20.227 104.031 17.184C100.591 14.5215 96.3867 13 91.8 13H26.8222C24.5289 13.3804 23 15.2822 23 17.5644V28.5951H91.4178L35.2311 44.5706C31.4089 45.7117 28.7333 47.6135 26.44 50.2761C24.1467 52.9387 23 55.9816 23 59.4049C23 63.589 24.5289 67.3926 27.9689 70.4356C31.4089 73.4785 35.2311 75 40.2 75H104.796C107.089 74.6196 108.618 73.0982 109 70.816V59.4049H40.2L96.7689 43.4294C100.209 42.2883 103.267 40.3865 105.56 37.7239Z" fill="black"/>
</svg>
